<?xml version="1.0" encoding="utf-8" standalone="no"?>
<!DOCTYPE svg PUBLIC "-//W3C//DTD SVG 1.1//EN"
  "http://www.w3.org/Graphics/SVG/1.1/DTD/svg11.dtd">
<svg xmlns:xlink="http://www.w3.org/1999/xlink" width="460.8pt" height="345.6pt" viewBox="0 0 460.8 345.6" xmlns="http://www.w3.org/2000/svg" version="1.1">
 <metadata>
  <rdf:RDF xmlns:dc="http://purl.org/dc/elements/1.1/" xmlns:cc="http://creativecommons.org/ns#" xmlns:rdf="http://www.w3.org/1999/02/22-rdf-syntax-ns#">
   <cc:Work>
    <dc:type rdf:resource="http://purl.org/dc/dcmitype/StillImage"/>
    <dc:date>2023-06-19T14:47:41.298889</dc:date>
    <dc:format>image/svg+xml</dc:format>
    <dc:creator>
     <cc:Agent>
      <dc:title>Matplotlib v3.7.1, https://matplotlib.org/</dc:title>
     </cc:Agent>
    </dc:creator>
   </cc:Work>
  </rdf:RDF>
 </metadata>
 <defs>
  <style type="text/css">*{stroke-linejoin: round; stroke-linecap: butt}</style>
 </defs>
 <g id="figure_1">
  <g id="patch_1">
   <path d="M 0 345.6 
L 460.8 345.6 
L 460.8 0 
L 0 0 
z
" style="fill: #ffffff"/>
  </g>
  <g id="axes_1">
   <g id="PatchCollection_1">
    <path d="M 178.163531 280.514055 
L 178.467047 280.358853 
L 178.972936 280.565806 
L 178.972936 281.238466 
L 178.922364 281.859477 
L 177.758828 281.083213 
L 178.163531 280.514055 
" clip-path="url(#p48691ac6ae)" style="fill: #c733ff"/>
    <path d="M 168.648189 288.782926 
L 168.901134 287.850146 
L 169.356451 288.109254 
L 169.457637 289.145738 
L 169.457637 290.182423 
L 169.052892 290.545336 
L 168.395245 289.81956 
L 168.648189 288.782926 
" clip-path="url(#p48691ac6ae)" style="fill: #c733ff"/>
    <path d="M 165.945617 294.785825 
L 167.070628 294.652658 
L 167.741344 294.608286 
L 168.88798 294.297629 
L 170.424079 293.986972 
L 172.457766 293.631993 
L 173.258274 293.631993 
L 173.907322 293.498876 
L 174.464804 293.416297 
L 174.716344 292.839356 
L 174.719068 292.328973 
L 176.330131 293.530563 
L 176.83917 294.073594 
L 176.796516 294.224197 
L 176.671789 294.279789 
L 176.070844 294.497355 
L 175.45666 295.288678 
L 173.864072 294.586099 
L 172.933771 294.475169 
L 171.181294 294.69703 
L 168.130764 295.429426 
L 167.027378 295.473799 
L 166.205245 295.385004 
L 165.945617 294.785825 
" clip-path="url(#p48691ac6ae)" style="fill: #c733ff"/>
    <path d="M 159.880868 210.951927 
L 160.065958 209.112042 
L 160.075281 208.964926 
L 160.655112 203.580307 
L 160.658517 203.536996 
L 160.724129 202.9066 
L 161.165481 198.666111 
L 161.350219 196.891152 
L 161.352773 196.854361 
L 161.66591 194.082424 
L 161.794298 192.945906 
L 162.084831 189.987565 
L 162.409802 186.690366 
L 162.46595 186.381933 
L 162.56828 185.409251 
L 162.836768 182.857163 
L 162.836768 182.851351 
L 162.999325 181.057762 
L 162.999509 181.055737 
L 163.472396 176.370467 
L 163.720073 173.916541 
L 163.722371 173.902643 
L 164.133034 169.613435 
L 164.34541 167.802609 
L 164.943801 161.360332 
L 165.218029 158.633931 
L 165.533806 155.494441 
L 165.93499 151.386173 
L 165.938125 151.354067 
L 166.525534 145.744454 
L 166.606415 144.774125 
L 166.721351 143.884656 
L 167.066925 140.478653 
L 167.138154 139.776619 
L 167.634741 134.882235 
L 168.216115 129.152182 
L 168.242337 128.948665 
L 168.335393 128.061977 
L 168.52989 126.201623 
L 168.551941 126.096757 
L 168.571352 125.892836 
L 168.610346 125.482923 
L 168.653425 125.131735 
L 168.659513 125.01853 
L 168.872479 122.935907 
L 169.113382 120.580083 
L 169.122407 120.539299 
L 169.186643 119.886348 
L 169.194178 119.734785 
L 169.287319 118.684151 
L 169.428633 117.4002 
L 169.632766 115.545491 
L 169.680315 114.837605 
L 169.806787 114.069479 
L 170.000987 112.233737 
L 170.266741 109.971663 
L 170.383042 108.98172 
L 170.383042 108.975959 
L 170.386831 108.914808 
L 170.946952 103.983792 
L 171.054609 103.036029 
L 171.204111 101.563656 
L 171.350759 100.137412 
L 171.503499 98.651911 
L 171.846944 95.649804 
L 171.908669 94.903257 
L 172.038845 94.162623 
L 172.079413 93.345222 
L 172.486407 89.742535 
L 172.495652 89.660701 
L 172.539157 89.240579 
L 172.634299 88.28627 
L 172.963016 85.260461 
L 172.974765 85.150491 
L 173.372444 81.101793 
L 174.066487 75.113599 
L 174.098073 74.805722 
L 174.120507 74.733958 
L 174.310194 73.043716 
L 174.792932 69.37027 
L 174.985166 67.907441 
L 175.069836 66.79505 
L 175.446911 63.493657 
L 175.858638 59.421611 
L 175.768775 59.325942 
L 174.702892 58.914968 
L 174.206794 58.643831 
L 174.077853 58.540785 
L 173.796302 58.301083 
L 173.443747 57.895869 
L 173.146743 57.336717 
L 172.699429 56.237163 
L 172.528983 55.867932 
L 172.364369 55.617921 
L 172.046976 55.241767 
L 171.562456 54.418857 
L 171.509118 54.194368 
L 171.476936 54.086216 
L 171.427258 53.699752 
L 171.385881 53.568 
L 180.02426 53.673574 
L 180.667723 53.676522 
L 181.153877 53.678749 
L 183.134146 53.68782 
L 185.220348 53.697377 
L 185.230011 53.695154 
L 185.447794 53.692172 
L 186.260775 53.693688 
L 186.265755 53.691919 
L 186.330673 53.687876 
L 189.663818 53.723758 
L 189.91855 53.731996 
L 190.289411 53.735634 
L 192.392272 53.767069 
L 192.697491 53.774347 
L 192.773178 53.772173 
L 192.931066 53.779047 
L 194.013551 53.794966 
L 194.323538 53.795674 
L 195.987897 53.785111 
L 196.790177 53.789655 
L 203.988777 53.830425 
L 204.34894 53.832465 
L 204.649902 53.838328 
L 204.826265 53.838833 
L 205.936718 53.853742 
L 206.372751 53.866679 
L 207.300327 53.881588 
L 207.727293 53.889725 
L 209.858548 53.927477 
L 211.100326 53.954009 
L 212.78052 53.999796 
L 213.056825 54.007748 
L 213.370568 54.016777 
L 213.622746 54.023044 
L 217.373633 54.109211 
L 222.11886 54.218222 
L 222.594227 54.220294 
L 223.683778 54.251021 
L 223.76036 54.246118 
L 223.861546 54.249353 
L 223.994191 54.256731 
L 228.462776 54.380246 
L 228.765067 54.381176 
L 228.98863 54.381863 
L 229.130299 54.385098 
L 229.560075 54.38995 
L 229.562799 54.38995 
L 230.22896 54.38995 
L 231.804392 54.381813 
L 231.805243 54.381812 
L 236.318058 54.374485 
L 236.355945 54.374485 
L 236.456663 54.377972 
L 236.605952 54.378023 
L 237.084554 54.388534 
L 237.860038 54.391137 
L 237.867737 54.391162 
L 239.620426 54.416431 
L 240.091962 54.418605 
L 240.843475 54.427956 
L 240.847347 54.428005 
L 241.500907 54.430026 
L 242.666401 54.444884 
L 243.115375 54.444753 
L 245.24978 54.444126 
L 246.691632 54.424265 
L 248.254932 54.395205 
L 251.594116 54.421133 
L 251.912835 54.423608 
L 262.540361 54.500296 
L 270.955545 54.56102 
L 272.454459 54.571836 
L 272.638059 54.572998 
L 281.971121 54.748062 
L 282.217126 56.411367 
L 282.242838 56.757603 
L 282.395618 57.797876 
L 282.39681 57.805962 
L 282.908318 61.030285 
L 283.833127 66.604218 
L 284.213395 68.714583 
L 284.214587 68.723831 
L 284.69072 71.319209 
L 284.690848 71.323353 
L 284.986106 72.921313 
L 284.996238 72.983289 
L 285.286855 74.760844 
L 285.720419 77.089887 
L 285.854256 77.969551 
L 285.863429 78.020141 
L 285.863621 78.0212 
L 285.931774 78.320284 
L 286.0903 79.181451 
L 286.342691 80.530107 
L 286.348566 80.559066 
L 287.103124 84.656034 
L 287.553122 87.099359 
L 287.704854 87.923206 
L 288.061012 90.038342 
L 288.205251 90.894939 
L 288.231729 91.08198 
L 288.346623 91.73301 
L 288.359989 91.842425 
L 289.449029 98.18964 
L 289.502155 98.730346 
L 289.773256 100.4274 
L 289.842196 100.858955 
L 290.41611 104.394793 
L 290.451442 104.506684 
L 290.75283 106.324585 
L 291.279023 109.478632 
L 291.664102 111.78683 
L 291.707702 112.059598 
L 292.327283 115.935795 
L 292.384879 116.238669 
L 292.516374 117.140974 
L 293.333609 122.0426 
L 293.946808 125.720455 
L 293.998962 126.033264 
L 294.321296 127.966561 
L 294.359735 128.253617 
L 294.363652 128.274388 
L 294.770568 130.645781 
L 295.219092 133.415887 
L 297.661851 148.502502 
L 297.837572 149.587765 
L 298.22563 151.887091 
L 298.284929 152.242979 
L 298.905395 155.930663 
L 299.10717 157.129893 
L 299.694853 160.622731 
L 299.823464 161.606076 
L 299.881979 162.053473 
L 299.882625 162.058413 
L 301.198132 162.995185 
L 300.583352 164.570403 
L 302.056959 166.062991 
L 302.530879 166.503935 
L 301.820404 167.175635 
L 302.194222 167.595769 
L 302.685787 168.148238 
L 302.868833 168.672317 
L 302.507509 169.416236 
L 302.848102 170.937075 
L 303.750606 171.740629 
L 303.963578 172.335764 
L 303.24825 172.998974 
L 303.91207 173.667692 
L 304.34031 174.855659 
L 304.851991 176.275098 
L 306.265036 177.652963 
L 306.774147 178.149399 
L 307.430091 179.1124 
L 307.57312 179.808069 
L 307.611516 179.994823 
L 307.617985 180.026288 
L 307.913222 181.462272 
L 307.935342 181.569859 
L 307.931085 182.681644 
L 308.931454 183.207239 
L 309.289075 184.233109 
L 308.789359 184.617653 
L 308.707925 185.836527 
L 308.53482 186.288378 
L 308.502232 186.373443 
L 308.436165 187.232942 
L 307.387693 188.572653 
L 307.652556 189.313641 
L 309.590087 190.11633 
L 310.550392 190.51417 
L 312.439132 192.349659 
L 311.392107 193.016305 
L 311.076992 193.920961 
L 310.923849 194.360615 
L 309.118885 194.502071 
L 308.612272 195.11358 
L 309.238078 195.300621 
L 309.361528 195.548257 
L 307.252707 196.465875 
L 305.23145 198.713551 
L 305.72891 201.171162 
L 305.631873 202.431833 
L 305.441485 204.905261 
L 305.042162 205.999155 
L 304.525615 207.414168 
L 304.236147 208.384497 
L 302.626999 210.982048 
L 302.205099 211.474641 
L 301.694741 213.711047 
L 302.145971 214.923908 
L 301.920356 216.253006 
L 302.034975 216.688265 
L 302.254195 217.520733 
L 302.669611 219.098243 
L 302.388656 221.003474 
L 304.210648 223.28774 
L 305.086375 224.645088 
L 305.265037 227.276499 
L 305.949502 228.598371 
L 305.817326 229.935302 
L 305.793032 229.989278 
L 304.683503 232.454418 
L 304.92257 234.325384 
L 304.327755 235.381172 
L 304.429793 236.00567 
L 303.79526 237.786325 
L 304.043437 238.942937 
L 303.950943 240.527163 
L 303.91075 241.215579 
L 302.856148 242.161852 
L 303.52465 244.374303 
L 303.485231 245.525204 
L 303.155492 246.702739 
L 303.756182 247.921967 
L 304.470361 248.194822 
L 305.48184 250.086862 
L 306.216239 250.65779 
L 306.59987 252.034141 
L 306.728718 252.309809 
L 307.247386 253.419487 
L 307.668605 255.87068 
L 307.625951 256.091127 
L 306.700546 256.091177 
L 306.555641 256.091733 
L 306.445175 256.092592 
L 306.400562 256.092895 
L 305.50951 256.096079 
L 305.393978 256.096079 
L 305.277723 256.096079 
L 301.519016 256.090571 
L 301.25296 256.080817 
L 301.247299 256.083546 
L 301.1522 256.083495 
L 297.356075 256.081069 
L 286.94602 256.273227 
L 286.53328 256.280846 
L 286.516841 256.281149 
L 283.064064 256.307897 
L 275.817786 256.364032 
L 275.804462 256.387026 
L 269.691397 256.456364 
L 265.217618 256.486586 
L 263.671803 256.463895 
L 263.668365 256.463844 
L 262.926687 256.467584 
L 262.767054 256.473345 
L 260.182994 256.484312 
L 258.226314 256.44565 
L 257.966942 256.444437 
L 257.701951 256.439788 
L 257.487914 256.429327 
L 257.192547 256.42713 
L 255.014661 256.410931 
L 254.243653 256.437059 
L 252.847478 256.439889 
L 252.194131 256.428215 
L 249.626885 256.406736 
L 249.441157 256.405624 
L 249.216606 256.405776 
L 248.6192 256.420513 
L 248.616342 256.420584 
L 248.47629 256.421038 
L 247.924001 256.427255 
L 245.804496 256.440344 
L 245.650609 256.429883 
L 243.878508 256.463187 
L 243.330093 256.444993 
L 243.027684 256.467988 
L 241.176107 256.368075 
L 240.999446 256.373836 
L 236.866431 256.402946 
L 236.283194 256.402794 
L 235.862655 256.399839 
L 235.096501 256.394455 
L 234.282711 256.284839 
L 234.201235 256.284333 
L 234.154451 256.29156 
L 233.437293 256.314252 
L 231.717279 256.279763 
L 231.70576 256.279532 
L 229.808166 256.258155 
L 229.746995 256.259317 
L 227.999414 256.246581 
L 227.354665 256.24931 
L 225.665829 256.242943 
L 222.657783 256.194628 
L 222.407392 256.161526 
L 221.439077 256.164609 
L 221.044932 256.159909 
L 220.890747 256.147476 
L 220.30551 256.170875 
L 219.865986 256.167843 
L 219.671446 256.17032 
L 217.53287 256.155967 
L 217.273412 256.187553 
L 216.60142 256.150711 
L 215.670949 256.174817 
L 215.629486 256.176312 
L 213.026185 256.270183 
L 212.823244 256.284633 
L 212.475429 256.3094 
L 211.739242 256.213782 
L 211.71319 256.217269 
L 211.653168 256.218381 
L 211.612387 256.214894 
L 211.538785 256.219493 
L 211.502559 256.218331 
L 211.288693 256.214692 
L 210.295135 256.21075 
L 210.206166 256.210396 
L 209.75617 256.206303 
L 209.651323 256.218583 
L 209.304258 256.206252 
L 208.376725 256.21449 
L 207.453746 256.215905 
L 207.098125 256.217219 
L 206.935044 256.213529 
L 204.46907 256.223738 
L 204.191605 256.217926 
L 203.445883 256.214591 
L 203.194982 256.212266 
L 203.069276 256.208829 
L 202.942421 256.218128 
L 202.936249 256.218179 
L 202.721574 256.219341 
L 202.71936 256.219341 
L 202.215898 256.217573 
L 202.173456 256.218381 
L 202.150469 256.218128 
L 200.478576 256.24931 
L 199.243141 256.232077 
L 198.275252 256.234958 
L 197.103052 256.255798 
L 197.098434 256.25588 
L 197.088048 256.343513 
L 197.192341 256.753477 
L 197.333968 256.988529 
L 197.364575 257.130996 
L 197.301233 257.260777 
L 197.303489 257.323293 
L 197.348825 257.493505 
L 197.439454 257.673015 
L 197.513098 257.923178 
L 197.39101 258.578706 
L 197.185232 259.10233 
L 197.125253 259.220488 
L 197.023428 259.307363 
L 196.938588 259.448718 
L 196.72038 259.943282 
L 196.701181 260.074175 
L 196.618683 260.340612 
L 196.548572 260.446084 
L 196.448024 260.749565 
L 196.416438 260.967333 
L 196.37123 261.107475 
L 196.171113 261.234982 
L 196.107771 261.306847 
L 196.094319 261.500306 
L 196.162302 261.690178 
L 196.168006 261.812934 
L 196.113773 261.918356 
L 196.014247 261.95434 
L 195.799104 262.185854 
L 195.776415 262.30856 
L 195.565698 262.904908 
L 195.850612 263.195754 
L 195.936474 263.34752 
L 195.972572 263.487611 
L 195.925023 263.612692 
L 195.889861 263.810751 
L 195.942987 263.88489 
L 196.025485 263.92436 
L 196.317295 264.195193 
L 196.398772 264.36308 
L 196.375146 264.481238 
L 196.585437 264.585397 
L 196.80705 264.652511 
L 196.900957 264.787953 
L 196.983541 264.964027 
L 197.03224 265.192054 
L 197.295699 265.376164 
L 197.569289 265.474562 
L 197.824702 265.607679 
L 198.038398 265.821909 
L 198.242984 266.207564 
L 198.409131 266.280541 
L 198.576469 266.42417 
L 198.752747 266.625665 
L 198.777607 266.717189 
L 198.975382 266.885076 
L 199.05554 266.894375 
L 199.093979 266.929095 
L 199.39226 267.312577 
L 199.378638 267.54303 
L 199.344753 267.648402 
L 199.510771 267.876631 
L 199.731066 268.128007 
L 199.754776 268.185974 
L 199.802113 268.520637 
L 199.804284 268.772568 
L 199.921689 269.09025 
L 200.304554 269.352138 
L 200.8104 269.593255 
L 201.090333 269.95824 
L 201.211059 270.19688 
L 201.415474 270.271019 
L 201.447103 270.259396 
L 201.861554 270.353042 
L 202.108879 270.453714 
L 202.168731 270.532452 
L 202.178948 270.637824 
L 202.398178 270.955101 
L 202.569815 271.021053 
L 202.6839 271.202889 
L 202.742603 271.245745 
L 203.142325 271.411257 
L 203.378284 271.297749 
L 203.46521 271.342879 
L 203.711343 271.560597 
L 203.766683 271.657882 
L 203.871658 271.769066 
L 204.033121 271.86059 
L 204.273551 271.861752 
L 204.507211 272.128138 
L 204.73521 272.299563 
L 205.024168 272.396899 
L 205.270259 272.542954 
L 205.287159 272.60087 
L 205.263448 272.713216 
L 205.316404 272.975003 
L 205.536357 273.453446 
L 205.558919 273.449959 
L 205.683007 273.5948 
L 205.729194 273.791747 
L 205.686285 273.909854 
L 205.73924 274.119486 
L 205.839405 274.780926 
L 205.831445 274.976711 
L 205.801476 275.068336 
L 205.751245 275.160315 
L 205.718424 275.445248 
L 205.718424 275.486942 
L 205.777042 275.537935 
L 205.778191 275.569218 
L 205.681049 275.900393 
L 205.597571 276.05792 
L 205.51635 276.119273 
L 205.370807 276.170215 
L 205.287329 276.345077 
L 205.194614 277.165156 
L 205.025403 277.69444 
L 204.948736 277.682867 
L 204.874326 277.733809 
L 204.785229 277.855353 
L 204.77846 277.879713 
L 204.844953 277.958451 
L 204.857341 278.044214 
L 204.772756 278.270068 
L 204.675784 278.329147 
L 204.612654 278.34072 
L 204.595755 278.293214 
L 204.572044 278.290889 
L 204.458215 278.359217 
L 204.379292 278.658098 
L 204.228172 278.854944 
L 204.078244 278.888501 
L 204.057939 278.911698 
L 203.583509 280.027172 
L 203.590277 280.368859 
L 203.653407 280.639894 
L 203.643275 280.688562 
L 203.587212 280.709333 
L 203.552902 280.756839 
L 203.532639 280.793024 
L 203.536044 280.866557 
L 203.663198 281.016352 
L 203.726796 281.052335 
L 203.877064 281.059056 
L 203.937554 281.124301 
L 204.23941 281.607545 
L 204.264952 281.845023 
L 204.162786 282.158308 
L 204.05215 282.380675 
L 204.090419 282.446374 
L 204.222383 282.522181 
L 204.264952 282.577773 
L 204.307521 282.881 
L 204.499081 283.13364 
L 204.94184 283.553105 
L 205.231308 283.598589 
L 205.367529 283.775421 
L 205.571817 283.871393 
L 205.699524 283.891608 
L 205.908154 283.84107 
L 206.367898 283.916877 
L 206.810913 284.080216 
L 206.899796 284.193118 
L 206.973909 284.40285 
L 206.988723 284.596512 
L 206.920613 284.760305 
L 206.793842 284.907725 
L 206.329586 285.291459 
L 206.232964 285.355484 
L 206.14654 285.412751 
L 205.750692 285.559311 
L 205.618728 285.685605 
L 205.490979 285.872596 
L 205.418612 285.933241 
L 205.188782 286.003994 
L 205.005736 285.993887 
L 204.750322 285.933241 
L 204.601331 285.938295 
L 204.45234 285.983779 
L 204.307606 286.120232 
L 204.260636 286.203876 
L 204.213954 286.287007 
L 204.107532 286.575023 
L 203.979825 286.655884 
L 203.835091 286.878251 
L 203.813806 287.024811 
L 203.826577 287.120833 
L 203.920229 287.353307 
L 203.920229 287.419007 
L 203.786392 287.646074 
L 203.477555 287.944501 
L 203.379646 288.106222 
L 203.358362 288.217406 
L 203.354105 288.454934 
L 203.397397 289.164285 
L 203.341377 289.273599 
L 203.013596 289.667744 
L 202.88589 289.783982 
L 202.805051 289.819358 
L 202.107943 290.159378 
L 201.708434 290.327972 
L 201.473411 290.592892 
L 201.614399 290.905975 
L 201.919916 291.050514 
L 202.836467 290.905975 
L 202.718977 291.387754 
L 200.909628 291.896974 
L 200.527657 292.315782 
L 200.530041 292.490947 
L 199.414353 292.732316 
L 198.836948 292.794074 
L 197.846583 293.05586 
L 194.631524 294.043776 
L 191.28382 294.500134 
L 188.515564 295.071921 
L 186.902118 295.182094 
L 183.170656 295.020979 
L 181.632471 295.063986 
L 180.025793 295.254464 
L 179.405308 295.425636 
L 178.816623 295.488 
L 178.779546 295.408049 
L 179.004352 295.020119 
L 181.436909 294.755907 
L 182.197531 293.697339 
L 182.748287 293.44945 
L 183.505758 293.86189 
L 183.69668 294.138384 
L 184.262931 294.457076 
L 184.571939 294.57301 
L 185.161859 294.605708 
L 185.981651 294.519844 
L 187.784103 293.812161 
L 188.450562 293.874727 
L 189.060872 293.814587 
L 189.960098 293.404774 
L 190.443808 292.649788 
L 190.433038 291.946046 
L 189.699065 290.910827 
L 188.679157 290.279254 
L 188.14496 289.849479 
L 187.267444 288.782774 
L 187.203612 288.623004 
L 186.95418 287.998677 
L 186.618183 287.588208 
L 186.248941 287.535901 
L 185.771701 287.284778 
L 184.012498 285.974328 
L 183.903309 285.728714 
L 183.680759 284.116351 
L 183.429815 282.87812 
L 183.251877 282.602435 
L 182.92448 282.349745 
L 182.862627 282.033529 
L 183.808253 280.088272 
L 184.055067 279.496068 
L 184.190043 278.908701 
L 184.209677 278.823256 
L 184.105086 278.05983 
L 183.946602 277.699545 
L 183.795908 277.540502 
L 183.645852 277.05372 
L 183.749124 275.542534 
L 183.458975 274.518382 
L 182.959897 273.677733 
L 182.71951 273.438284 
L 181.899123 273.366015 
L 180.826088 272.545885 
L 180.418123 272.370205 
L 179.668214 272.047277 
L 179.495895 272.136527 
L 179.085871 272.60739 
L 178.888777 273.233201 
L 178.553249 273.626134 
L 178.13816 273.684101 
L 177.386436 274.072081 
L 177.488601 275.375961 
L 177.726987 275.709511 
L 177.262986 276.932479 
L 176.837297 277.407536 
L 176.448264 278.08906 
L 176.386279 278.197647 
L 176.551276 279.053811 
L 176.501258 279.943481 
L 176.163176 280.203398 
L 175.731527 280.901833 
L 175.608333 281.348942 
L 175.641536 281.746878 
L 175.902101 282.8575 
L 175.741233 283.35444 
L 175.494716 283.783103 
L 175.595477 285.068688 
L 175.459086 287.598316 
L 175.111809 288.643239 
L 174.721069 289.39863 
L 174.574589 289.556005 
L 174.228887 290.45457 
L 173.394452 290.128347 
L 172.705176 290.254945 
L 171.87189 290.642925 
L 171.696421 290.428644 
L 171.581612 289.540338 
L 171.667091 289.299424 
L 172.000022 289.225284 
L 172.000235 289.070082 
L 171.509075 288.349714 
L 171.320495 288.363663 
L 168.928122 287.338803 
L 167.994161 287.313787 
L 167.653014 287.927065 
L 166.760812 288.019701 
L 166.551501 287.965272 
L 166.420644 287.442254 
L 165.880955 287.032594 
L 165.49494 286.980539 
L 164.529605 287.054527 
L 164.076289 287.175717 
L 163.209927 287.993573 
L 162.900877 280.84614 
L 162.84707 279.721771 
L 162.830723 279.203302 
L 162.827232 279.117337 
L 162.79898 278.366736 
L 162.742201 276.858239 
L 162.679476 275.19175 
L 162.680412 274.741103 
L 162.65453 274.472392 
L 162.590635 272.867256 
L 162.515373 270.966877 
L 162.506391 270.632214 
L 162.478338 269.750882 
L 162.475741 269.681342 
L 162.468053 269.487953 
L 162.205003 262.870997 
L 162.165329 262.433439 
L 162.060566 259.912542 
L 161.906759 256.211451 
L 161.902806 256.116345 
L 161.899486 256.068839 
L 161.635559 250.349205 
L 161.376016 244.498828 
L 161.371461 244.438587 
L 161.338726 243.647971 
L 161.347239 243.356973 
L 161.307709 242.600437 
L 161.074713 238.141405 
L 161.073564 238.135643 
L 160.925552 234.854769 
L 160.926659 234.83511 
L 160.887938 234.099391 
L 160.825132 232.906025 
L 160.80257 231.789894 
L 160.741356 230.848321 
L 160.466148 224.708564 
L 160.455761 224.5898 
L 160.25556 220.856105 
L 160.255476 220.852522 
L 160.226528 219.621412 
L 160.074897 216.16411 
L 159.971157 213.12036 
L 159.96656 213.098325 
L 159.905771 211.897139 
L 159.880868 210.951927 
" clip-path="url(#p48691ac6ae)" style="fill: #c733ff"/>
   </g>
   <g id="text_1">
    <!-- AL -->
    <g transform="translate(228.7125 35.472) scale(0.12 -0.12)">
     <defs>
      <path id="DejaVuSans-41" d="M 2188 4044 
L 1331 1722 
L 3047 1722 
L 2188 4044 
z
M 1831 4666 
L 2547 4666 
L 4325 0 
L 3669 0 
L 3244 1197 
L 1141 1197 
L 716 0 
L 50 0 
L 1831 4666 
z
" transform="scale(0.015625)"/>
      <path id="DejaVuSans-4c" d="M 628 4666 
L 1259 4666 
L 1259 531 
L 3531 531 
L 3531 0 
L 628 0 
L 628 4666 
z
" transform="scale(0.015625)"/>
     </defs>
     <use xlink:href="#DejaVuSans-41"/>
     <use xlink:href="#DejaVuSans-4c" x="68.408203"/>
    </g>
   </g>
  </g>
 </g>
 <defs>
  <clipPath id="p48691ac6ae">
   <rect x="152.252955" y="41.472" width="167.814089" height="266.112"/>
  </clipPath>
 </defs>
</svg>
