<?xml version="1.0" encoding="utf-8" standalone="no"?>
<!DOCTYPE svg PUBLIC "-//W3C//DTD SVG 1.1//EN"
  "http://www.w3.org/Graphics/SVG/1.1/DTD/svg11.dtd">
<svg xmlns:xlink="http://www.w3.org/1999/xlink" width="360pt" height="360pt" viewBox="0 0 360 360" xmlns="http://www.w3.org/2000/svg" version="1.1">
 <metadata>
  <rdf:RDF xmlns:dc="http://purl.org/dc/elements/1.1/" xmlns:cc="http://creativecommons.org/ns#" xmlns:rdf="http://www.w3.org/1999/02/22-rdf-syntax-ns#">
   <cc:Work>
    <dc:type rdf:resource="http://purl.org/dc/dcmitype/StillImage"/>
    <dc:date>2023-06-19T15:20:26.022412</dc:date>
    <dc:format>image/svg+xml</dc:format>
    <dc:creator>
     <cc:Agent>
      <dc:title>Matplotlib v3.7.1, https://matplotlib.org/</dc:title>
     </cc:Agent>
    </dc:creator>
   </cc:Work>
  </rdf:RDF>
 </metadata>
 <defs>
  <style type="text/css">*{stroke-linejoin: round; stroke-linecap: butt}</style>
 </defs>
 <g id="figure_1">
  <g id="patch_1">
   <path d="M 0 360 
L 360 360 
L 360 0 
L 0 0 
z
" style="fill: #ffffff"/>
  </g>
  <g id="axes_1">
   <g id="PatchCollection_1">
    <path d="M 112.777462 292.20214 
L 113.152812 292.040471 
L 113.77843 292.256048 
L 113.77843 292.956735 
L 113.715889 293.603621 
L 112.276979 292.795014 
L 112.777462 292.20214 
" clip-path="url(#p09a46a6e24)" style="fill: #0c00a8"/>
    <path d="M 101.010118 300.815547 
L 101.322927 299.843902 
L 101.886004 300.113807 
L 102.011138 301.193477 
L 102.011138 302.273357 
L 101.510601 302.651392 
L 100.697309 301.895375 
L 101.010118 300.815547 
" clip-path="url(#p09a46a6e24)" style="fill: #0c00a8"/>
    <path d="M 97.667926 307.068568 
L 99.059194 306.929852 
L 99.888649 306.883631 
L 101.30666 306.56003 
L 103.206308 306.236429 
L 105.721309 305.866659 
L 106.711274 305.866659 
L 107.513933 305.727996 
L 108.203355 305.641976 
L 108.514427 305.040995 
L 108.517796 304.509347 
L 110.51015 305.761004 
L 111.139664 306.32666 
L 111.086915 306.483539 
L 110.932669 306.541447 
L 110.189497 306.768078 
L 109.429954 307.592373 
L 107.460447 306.86052 
L 106.309971 306.744967 
L 104.142735 306.976073 
L 100.370233 307.738986 
L 99.005708 307.785207 
L 97.989 307.692712 
L 97.667926 307.068568 
" clip-path="url(#p09a46a6e24)" style="fill: #0c00a8"/>
    <path d="M 90.167828 219.741591 
L 90.396723 217.825043 
L 90.408252 217.671798 
L 91.125312 212.06282 
L 91.129524 212.017704 
L 91.210664 211.361041 
L 91.756471 206.943866 
L 91.984931 205.09495 
L 91.98809 205.056626 
L 92.375336 202.169191 
L 92.534111 200.985318 
L 92.893404 197.903713 
L 93.295286 194.469132 
L 93.364723 194.147847 
L 93.491271 193.134636 
L 93.823303 190.476211 
L 93.823303 190.470157 
L 94.024333 188.601835 
L 94.02456 188.599726 
L 94.609366 183.719236 
L 94.91566 181.163064 
L 94.918503 181.148587 
L 95.426356 176.680662 
L 95.688996 174.794385 
L 96.429009 168.083679 
L 96.768138 165.243678 
L 97.158651 161.973376 
L 97.654783 157.69393 
L 97.658661 157.660487 
L 98.385091 151.817139 
L 98.485114 150.80638 
L 98.627252 149.87985 
L 99.054615 146.33193 
L 99.142701 145.600645 
L 99.756815 140.502328 
L 100.475784 134.533523 
L 100.508212 134.321526 
L 100.623292 133.397892 
L 100.863821 131.460024 
L 100.89109 131.350789 
L 100.915096 131.138371 
L 100.963317 130.711378 
L 101.016593 130.345557 
L 101.024121 130.227635 
L 101.28749 128.058236 
L 101.585408 125.604253 
L 101.596569 125.56177 
L 101.676008 124.881613 
L 101.685326 124.723734 
L 101.80051 123.629324 
L 101.975269 122.291875 
L 102.227714 120.359886 
L 102.286517 119.622505 
L 102.442922 118.822374 
L 102.683082 116.910143 
L 103.011733 114.553815 
L 103.15556 113.522625 
L 103.15556 113.516624 
L 103.160245 113.452925 
L 103.85293 108.31645 
L 103.986067 107.329197 
L 104.170952 105.795475 
L 104.352306 104.309804 
L 104.541195 102.762407 
L 104.965924 99.635213 
L 105.042258 98.85756 
L 105.203242 98.086066 
L 105.253412 97.234606 
L 105.756729 93.481807 
L 105.768162 93.396564 
L 105.821964 92.958936 
L 105.939623 91.964865 
L 106.346137 88.81298 
L 106.360667 88.698428 
L 106.852465 84.481034 
L 107.710768 78.243333 
L 107.74983 77.922627 
L 107.777573 77.847873 
L 108.012153 76.087204 
L 108.609141 72.260698 
L 108.846872 70.736918 
L 108.95158 69.578177 
L 109.417898 66.139226 
L 109.927068 61.897511 
L 109.815938 61.797857 
L 108.497791 61.369758 
L 107.884282 61.087324 
L 107.724824 60.979984 
L 107.376638 60.730295 
L 106.940643 60.308197 
L 106.573348 59.725747 
L 106.020168 58.580378 
L 105.809382 58.195763 
L 105.605809 57.935334 
L 105.213297 57.543507 
L 104.614107 56.68631 
L 104.548144 56.452466 
L 104.508345 56.339809 
L 104.44691 55.937242 
L 104.39574 55.8 
L 115.078572 55.909973 
L 115.874324 55.913043 
L 116.475536 55.915363 
L 118.924477 55.924813 
L 121.504422 55.934768 
L 121.516372 55.932452 
L 121.785697 55.929346 
L 122.791087 55.930925 
L 122.797246 55.929082 
L 122.877528 55.924871 
L 126.999531 55.962248 
L 127.314551 55.970829 
L 127.773183 55.974619 
L 130.37373 56.007364 
L 130.751186 56.014944 
L 130.844786 56.012681 
L 131.040042 56.01984 
L 132.378719 56.036423 
L 132.76207 56.03716 
L 134.820335 56.026157 
L 135.812491 56.030891 
L 144.714789 56.07336 
L 145.160192 56.075485 
L 145.532383 56.081591 
L 145.750486 56.082118 
L 147.12375 56.097648 
L 147.66298 56.111124 
L 148.810087 56.126654 
L 149.338103 56.13513 
L 151.973763 56.174455 
L 153.509433 56.202093 
L 155.587281 56.249788 
L 155.92898 56.258071 
L 156.316975 56.267476 
L 156.628837 56.274004 
L 161.26745 56.363762 
L 167.135733 56.477314 
L 167.723605 56.479472 
L 169.071021 56.51148 
L 169.165727 56.506373 
L 169.290862 56.509743 
L 169.454899 56.517429 
L 174.981068 56.64609 
L 175.354903 56.647058 
L 175.631376 56.647774 
L 175.806574 56.651144 
L 176.338065 56.656197 
L 176.341435 56.656197 
L 177.165256 56.656197 
L 179.113547 56.647722 
L 179.114599 56.64772 
L 184.695466 56.640088 
L 184.742319 56.640088 
L 184.866874 56.643721 
L 185.051496 56.643774 
L 185.643369 56.654723 
L 186.602387 56.657434 
L 186.611908 56.657461 
L 188.779408 56.683783 
L 189.362542 56.686046 
L 190.291916 56.695788 
L 190.296705 56.695838 
L 191.104944 56.697944 
L 192.546276 56.713421 
L 193.101509 56.713284 
L 195.741066 56.712631 
L 197.524161 56.691943 
L 199.457449 56.661672 
L 203.58692 56.68868 
L 203.981071 56.691258 
L 217.123822 56.771141 
L 227.530634 56.834395 
L 229.384297 56.845662 
L 229.611349 56.846873 
L 241.153273 57.029231 
L 241.457501 58.761841 
L 241.489298 59.122503 
L 241.678237 60.206121 
L 241.679711 60.214544 
L 242.312278 63.573213 
L 243.455962 69.379394 
L 243.926229 71.577691 
L 243.927703 71.587324 
L 244.516523 74.290843 
L 244.516681 74.295159 
L 244.881817 75.959701 
L 244.894348 76.024259 
L 245.253745 77.87588 
L 245.789921 80.301965 
L 245.955433 81.218282 
L 245.966777 81.27098 
L 245.967015 81.272084 
L 246.051298 81.583629 
L 246.247343 82.480678 
L 246.559467 83.885528 
L 246.566732 83.915693 
L 247.499872 88.183369 
L 248.056371 90.728499 
L 248.244014 91.586673 
L 248.684465 93.789939 
L 248.862841 94.682228 
L 248.895585 94.877063 
L 249.03767 95.555219 
L 249.0542 95.669193 
L 250.400985 102.280875 
L 250.466684 102.84411 
L 250.801946 104.611875 
L 250.887202 105.061411 
L 251.596945 108.744576 
L 251.640639 108.861129 
L 252.013356 110.754777 
L 252.664084 114.040242 
L 253.140301 116.444615 
L 253.194219 116.728748 
L 253.960437 120.766453 
L 254.031664 121.081947 
L 254.19428 122.021848 
L 255.204931 127.127709 
L 255.963256 130.958807 
L 256.027754 131.284649 
L 256.426374 133.298501 
L 256.473911 133.597517 
L 256.478754 133.619154 
L 256.981976 136.089355 
L 257.536652 138.974882 
L 260.557541 154.690106 
L 260.77485 155.820589 
L 261.25475 158.21572 
L 261.328083 158.586437 
L 262.095396 162.427774 
L 262.344925 163.676972 
L 263.071696 167.315344 
L 263.230745 168.339663 
L 263.303108 168.805701 
L 263.303907 168.810847 
L 264.930756 169.786651 
L 264.170475 171.427503 
L 265.992843 172.982283 
L 266.578925 173.441599 
L 265.700302 174.141287 
L 266.162592 174.578926 
L 266.770496 175.154415 
L 266.996864 175.70033 
L 266.550024 176.475246 
L 266.971226 178.059453 
L 268.087326 178.896488 
L 268.350702 179.516421 
L 267.466077 180.207264 
L 268.287004 180.903846 
L 268.816596 182.141312 
L 269.449377 183.619893 
L 271.196848 185.05517 
L 271.826451 185.572291 
L 272.637638 186.575417 
L 272.814518 187.300072 
L 272.862001 187.494608 
L 272.870001 187.527383 
L 273.235112 189.0232 
L 273.262467 189.13527 
L 273.257202 190.293379 
L 274.49433 190.840874 
L 274.936589 191.909489 
L 274.318605 192.310055 
L 274.217897 193.579716 
L 274.003824 194.050394 
L 273.963523 194.139003 
L 273.88182 195.034315 
L 272.585205 196.429847 
L 272.912754 197.201709 
L 275.308842 198.037844 
L 276.496423 198.452261 
L 278.832172 200.364228 
L 277.537347 201.058651 
L 277.147653 202.001001 
L 276.958266 202.458974 
L 274.72612 202.606324 
L 274.099607 203.243313 
L 274.873522 203.438147 
L 275.026189 203.696101 
L 272.418272 204.651953 
L 269.918643 206.993283 
L 270.533837 209.553294 
L 270.413834 210.866493 
L 270.178387 213.44298 
L 269.684556 214.582454 
L 269.045757 216.056425 
L 268.68778 217.067184 
L 266.697795 219.772966 
L 266.176043 220.286085 
L 265.544898 222.615674 
L 266.102921 223.879071 
L 265.823909 225.263548 
L 265.965656 225.716943 
L 266.236758 226.584097 
L 266.750491 228.227337 
L 266.403043 230.211952 
L 268.656247 232.591396 
L 269.739233 234.0053 
L 269.960179 236.746354 
L 270.806637 238.123303 
L 270.643178 239.51594 
L 270.613135 239.572165 
L 269.241013 242.140018 
L 269.53666 244.088941 
L 268.801069 245.188721 
L 268.927256 245.83924 
L 268.142549 247.694088 
L 268.449462 248.898892 
L 268.335077 250.549128 
L 268.285372 251.266228 
L 266.981176 252.251929 
L 267.807893 254.556565 
L 267.759145 255.755421 
L 267.351367 256.982019 
L 268.094222 258.252049 
L 268.977426 258.536273 
L 270.228293 260.507148 
L 271.136503 261.101864 
L 271.610928 262.535563 
L 271.770271 262.822718 
L 272.411691 263.978633 
L 272.932601 266.531958 
L 272.879852 266.76159 
L 271.73543 266.761643 
L 271.556231 266.762222 
L 271.419621 266.763117 
L 271.36445 266.763433 
L 270.262512 266.766749 
L 270.119637 266.766749 
L 269.975867 266.766749 
L 265.327584 266.761011 
L 264.998561 266.750851 
L 264.991559 266.753694 
L 264.873953 266.753641 
L 260.179397 266.751114 
L 247.305587 266.951278 
L 246.795163 266.959214 
L 246.774833 266.959531 
L 242.504885 266.987393 
L 233.543624 267.045866 
L 233.527147 267.069819 
L 225.967298 267.142046 
L 220.434707 267.173527 
L 218.523043 267.14989 
L 218.518791 267.149838 
L 217.60158 267.153733 
L 217.404166 267.159735 
L 214.208534 267.171158 
L 211.788766 267.130886 
L 211.468008 267.129622 
L 211.140301 267.124779 
L 210.875608 267.113882 
L 210.510336 267.111593 
L 207.817008 267.09472 
L 206.863525 267.121936 
L 205.136916 267.124884 
L 204.328941 267.112724 
L 201.154103 267.09035 
L 200.924419 267.089192 
L 200.646723 267.08935 
L 199.907928 267.104701 
L 199.904394 267.104775 
L 199.731196 267.105248 
L 199.048197 267.111724 
L 196.427066 267.125358 
L 196.236759 267.114461 
L 194.045254 267.149153 
L 193.367045 267.130201 
L 192.993064 267.154154 
L 190.703272 267.050078 
L 190.484801 267.056079 
L 185.373622 267.086402 
L 184.652351 267.086244 
L 184.132283 267.083166 
L 183.184802 267.077558 
L 182.178412 266.963374 
L 182.077652 266.962847 
L 182.019797 266.970375 
L 181.132908 266.994012 
L 179.005816 266.958086 
L 178.991572 266.957846 
L 176.644873 266.935578 
L 176.569224 266.936788 
L 174.408041 266.923522 
L 173.6107 266.926365 
L 171.522166 266.919732 
L 167.802203 266.869404 
L 167.492552 266.834923 
L 166.295066 266.838134 
L 165.807637 266.833238 
L 165.616962 266.820288 
L 164.893216 266.844662 
L 164.34967 266.841503 
L 164.109088 266.844083 
L 161.464373 266.829132 
L 161.143509 266.862034 
L 160.312476 266.823657 
L 159.161789 266.848768 
L 159.110513 266.850326 
L 155.891088 266.948107 
L 155.640116 266.96316 
L 155.209983 266.988958 
L 154.299563 266.889356 
L 154.267345 266.892989 
L 154.193117 266.894147 
L 154.142685 266.890515 
L 154.051664 266.895305 
L 154.006864 266.894094 
L 153.742382 266.890304 
L 152.513677 266.886198 
L 152.403652 266.885829 
L 151.847155 266.881565 
L 151.717494 266.894358 
L 151.28829 266.881513 
L 150.141236 266.890093 
L 148.999814 266.891567 
L 148.560029 266.892936 
L 148.358351 266.889093 
L 145.308753 266.899727 
L 144.965621 266.893673 
L 144.043409 266.890199 
L 143.733126 266.887777 
L 143.57767 266.884197 
L 143.420791 266.893884 
L 143.413158 266.893936 
L 143.147676 266.895147 
L 143.144938 266.895147 
L 142.522321 266.893305 
L 142.469835 266.894147 
L 142.441408 266.893884 
L 140.373826 266.926365 
L 138.846 266.908413 
L 137.649039 266.911414 
L 136.199414 266.933123 
L 136.193704 266.933209 
L 136.180859 267.024493 
L 136.309836 267.451539 
L 136.484981 267.696385 
L 136.522832 267.844787 
L 136.444498 267.979976 
L 136.447289 268.045097 
L 136.503354 268.222401 
L 136.615433 268.409391 
L 136.706506 268.669978 
L 136.555524 269.352819 
L 136.301044 269.898261 
L 136.226869 270.021342 
L 136.100946 270.111836 
L 135.996027 270.259081 
L 135.726175 270.774252 
L 135.702433 270.910599 
L 135.600409 271.188137 
L 135.513705 271.298005 
L 135.38936 271.61413 
L 135.350299 271.840972 
L 135.294391 271.986953 
L 135.046913 272.119773 
L 134.968579 272.194632 
L 134.951944 272.396152 
L 135.036016 272.593935 
L 135.04307 272.721807 
L 134.976002 272.831621 
L 134.852921 272.869104 
L 134.58686 273.110265 
L 134.558801 273.238083 
L 134.298214 273.859279 
L 134.650559 274.162244 
L 134.756741 274.320333 
L 134.801383 274.466261 
L 134.74258 274.596555 
L 134.699096 274.802865 
L 134.764795 274.880094 
L 134.866819 274.921208 
L 135.227692 275.203326 
L 135.328452 275.378209 
L 135.299234 275.50129 
L 135.559294 275.609788 
L 135.833358 275.679699 
L 135.94949 275.820784 
L 136.051618 276.004195 
L 136.111843 276.241723 
L 136.437655 276.433504 
L 136.775996 276.536002 
L 137.091858 276.674665 
L 137.35613 276.897822 
L 137.609135 277.299546 
L 137.814604 277.375564 
L 138.021546 277.525177 
L 138.239544 277.735068 
L 138.270288 277.830406 
L 138.514871 278.005288 
L 138.613999 278.014974 
L 138.661536 278.051141 
L 139.030411 278.450601 
L 139.013565 278.690656 
L 138.97166 278.800419 
L 139.176971 279.038158 
L 139.449402 279.300008 
L 139.478724 279.36039 
L 139.537264 279.708997 
L 139.539949 279.971425 
L 139.68514 280.302344 
L 140.158618 280.575144 
L 140.784183 280.826307 
L 141.130368 281.2065 
L 141.279666 281.455083 
L 141.532461 281.532312 
L 141.571575 281.520204 
L 142.084115 281.617752 
L 142.389975 281.722619 
L 142.463992 281.804638 
L 142.476626 281.9144 
L 142.747741 282.244897 
L 142.960001 282.313597 
L 143.101086 282.503009 
L 143.173682 282.547651 
L 143.668006 282.720059 
L 143.95981 282.601821 
L 144.067309 282.648832 
L 144.371695 282.875621 
L 144.440132 282.976961 
L 144.569951 283.092777 
L 144.769629 283.188115 
L 145.06696 283.189325 
L 145.355922 283.46681 
L 145.637881 283.645378 
L 145.995227 283.74677 
L 146.29956 283.89891 
L 146.32046 283.95924 
L 146.291137 284.076267 
L 146.356626 284.348961 
L 146.628636 284.847339 
L 146.656537 284.843707 
L 146.809994 284.994584 
L 146.867112 285.199736 
L 146.814047 285.322765 
L 146.879536 285.541131 
L 147.003407 286.230132 
L 146.993562 286.434074 
L 146.956501 286.529517 
L 146.894382 286.625328 
L 146.853793 286.922133 
L 146.853793 286.965564 
L 146.926284 287.018682 
L 146.927705 287.051268 
L 146.807572 287.396243 
L 146.704338 287.560333 
L 146.603894 287.624243 
L 146.423905 287.677308 
L 146.32067 287.859455 
L 146.206012 288.713704 
L 145.996754 289.265042 
L 145.901942 289.252987 
L 145.809921 289.306052 
L 145.699738 289.43266 
L 145.691367 289.458034 
L 145.773597 289.540053 
L 145.788916 289.629389 
L 145.684313 289.864654 
L 145.564391 289.926195 
L 145.48632 289.93825 
L 145.465421 289.888765 
L 145.436098 289.886343 
L 145.295329 289.957518 
L 145.197727 290.268852 
L 145.010842 290.4739 
L 144.825431 290.508855 
L 144.80032 290.533019 
L 144.213606 291.694971 
L 144.221976 292.050895 
L 144.300047 292.333223 
L 144.287517 292.383919 
L 144.218186 292.405556 
L 144.175755 292.455041 
L 144.150696 292.492734 
L 144.154908 292.56933 
L 144.312155 292.725366 
L 144.390804 292.762849 
L 144.576637 292.76985 
L 144.651443 292.837813 
L 145.02474 293.341192 
L 145.056326 293.588565 
L 144.929981 293.914904 
L 144.79316 294.146536 
L 144.840487 294.214973 
L 145.003683 294.293938 
L 145.056326 294.351847 
L 145.10897 294.667709 
L 145.345867 294.930875 
L 145.893414 295.367818 
L 146.251391 295.415197 
L 146.419851 295.599397 
L 146.672488 295.699368 
L 146.83042 295.720425 
L 147.088426 295.667782 
L 147.656979 295.746747 
L 148.204842 295.916892 
L 148.314762 296.034498 
L 148.406415 296.252969 
L 148.424735 296.4547 
L 148.340505 296.625318 
L 148.183732 296.77888 
L 147.609599 297.178604 
L 147.49011 297.245295 
L 147.383231 297.304949 
L 146.893697 297.457615 
L 146.730502 297.589172 
L 146.572518 297.783954 
L 146.483024 297.847126 
L 146.1988 297.920827 
L 145.972432 297.910299 
L 145.65657 297.847126 
L 145.472317 297.852391 
L 145.288064 297.89977 
L 145.109075 298.041908 
L 145.050989 298.129037 
L 144.993259 298.215632 
L 144.86165 298.515649 
L 144.703719 298.599879 
L 144.52473 298.831511 
L 144.498408 298.984178 
L 144.514201 299.084201 
L 144.630017 299.326362 
L 144.630017 299.394799 
L 144.464506 299.631327 
L 144.082575 299.942188 
L 143.961495 300.110648 
L 143.935173 300.226464 
L 143.929909 300.47389 
L 143.983447 301.212797 
L 143.914168 301.326665 
L 143.508812 301.737234 
L 143.35088 301.858314 
L 143.25091 301.895165 
L 142.388816 302.249352 
L 141.894755 302.424971 
L 141.604109 302.70093 
L 141.778465 303.027057 
L 142.156289 303.177618 
L 143.289761 303.027057 
L 143.144464 303.52891 
L 140.906896 304.059348 
L 140.434524 304.495607 
L 140.437472 304.67807 
L 139.057733 304.929496 
L 138.343673 304.993827 
L 137.118917 305.266521 
L 133.142948 306.2956 
L 129.002941 306.770973 
L 125.57952 307.366584 
L 123.584217 307.481348 
L 118.969627 307.313519 
L 117.067399 307.358319 
L 115.080467 307.556733 
L 114.313132 307.735038 
L 113.585122 307.8 
L 113.53927 307.716718 
L 113.817281 307.312624 
L 116.825554 307.037403 
L 117.766192 305.934728 
L 118.447296 305.67651 
L 119.384038 306.106136 
L 119.620145 306.39415 
L 120.320412 306.726121 
L 120.702553 306.846885 
L 121.43209 306.880946 
L 122.445902 306.791504 
L 124.674943 306.054334 
L 125.499133 306.119507 
L 126.253886 306.056861 
L 127.365931 305.629973 
L 127.964122 304.843529 
L 127.950803 304.110465 
L 127.04312 303.032111 
L 125.781829 302.374223 
L 125.121203 301.92654 
L 124.036006 300.81539 
L 123.957067 300.648962 
L 123.648601 299.998622 
L 123.233084 299.57105 
L 122.776452 299.516564 
L 122.186263 299.254977 
L 120.010709 297.889925 
L 119.875678 297.634077 
L 119.600457 295.954532 
L 119.290122 294.664708 
L 119.070071 294.377537 
L 118.665188 294.114318 
L 118.588697 293.784926 
L 119.758125 291.758617 
L 120.063353 291.141738 
L 120.230273 290.529896 
L 120.254555 290.440892 
L 120.125209 289.645656 
L 119.929217 289.270359 
L 119.742858 289.104689 
L 119.557289 288.597625 
L 119.685003 287.023473 
L 119.326183 285.956648 
L 118.708988 285.080972 
L 118.411709 284.831546 
L 117.397159 284.756266 
L 116.070169 283.901963 
L 115.56565 283.718964 
L 114.63826 283.38258 
L 114.425158 283.475549 
L 113.918094 283.966031 
L 113.674353 284.617918 
L 113.259416 285.027223 
L 112.746087 285.087605 
L 111.816451 285.491751 
L 111.942796 286.849959 
L 112.237601 287.197407 
L 111.663785 288.471333 
L 111.137347 288.966184 
L 110.656242 289.676104 
L 110.579587 289.789216 
L 110.783634 290.681053 
L 110.721778 291.607793 
L 110.303682 291.878539 
L 109.769874 292.606076 
L 109.617523 293.071815 
L 109.658585 293.486331 
L 109.980818 294.64323 
L 109.781877 295.160875 
L 109.477017 295.607399 
L 109.601625 296.94655 
L 109.432954 299.581579 
L 109.003487 300.67004 
L 108.52027 301.456906 
L 108.339123 301.620838 
L 107.911604 302.556844 
L 106.879682 302.217028 
L 106.027274 302.348901 
L 104.996774 302.753047 
L 104.779776 302.529837 
L 104.637796 301.604519 
L 104.743505 301.353566 
L 105.155231 301.276338 
L 105.155494 301.114669 
L 104.548091 300.364285 
L 104.31488 300.378815 
L 101.356303 299.311253 
L 100.2013 299.285195 
L 99.779413 299.924026 
L 98.676053 300.020522 
L 98.417204 299.963825 
L 98.255377 299.419015 
L 97.58796 298.992285 
L 97.110587 298.938062 
L 95.916785 299.015132 
L 95.356182 299.141372 
L 94.284777 299.993305 
L 93.902584 292.548062 
L 93.836042 291.376845 
L 93.815827 290.836773 
L 93.81151 290.747226 
L 93.776572 289.96535 
L 93.706355 288.393999 
L 93.628784 286.658073 
L 93.629942 286.188649 
L 93.597935 285.908742 
L 93.518917 284.236725 
L 93.425843 282.257163 
L 93.414735 281.908556 
L 93.380043 280.990503 
L 93.376831 280.918065 
L 93.367324 280.716617 
L 93.042017 273.823955 
L 92.992953 273.368166 
L 92.863397 270.742231 
L 92.673187 266.886928 
L 92.668299 266.787859 
L 92.664193 266.738374 
L 92.337802 260.780422 
L 92.016833 254.68628 
L 92.011201 254.623528 
L 91.970718 253.79997 
L 91.981246 253.496847 
L 91.93236 252.708788 
L 91.644221 248.063963 
L 91.6428 248.057962 
L 91.459758 244.640384 
L 91.461126 244.619906 
L 91.413242 243.853532 
L 91.335571 242.610443 
L 91.30767 241.447806 
L 91.231968 240.467001 
L 90.891627 234.071421 
L 90.878782 233.947708 
L 90.631198 230.058443 
L 90.631094 230.05471 
L 90.595295 228.772304 
L 90.407778 225.170948 
L 90.279485 222.000375 
L 90.2738 221.977422 
L 90.198625 220.726186 
L 90.167828 219.741591 
" clip-path="url(#p09a46a6e24)" style="fill: #0c00a8"/>
   </g>
   <g id="PathCollection_1">
    <defs>
     <path id="m90f898aa2d" d="M 0 1.581139 
C 0.419323 1.581139 0.821528 1.41454 1.118034 1.118034 
C 1.41454 0.821528 1.581139 0.419323 1.581139 0 
C 1.581139 -0.419323 1.41454 -0.821528 1.118034 -1.118034 
C 0.821528 -1.41454 0.419323 -1.581139 0 -1.581139 
C -0.419323 -1.581139 -0.821528 -1.41454 -1.118034 -1.118034 
C -1.41454 -0.821528 -1.581139 -0.419323 -1.581139 0 
C -1.581139 0.419323 -1.41454 0.821528 -1.118034 1.118034 
C -0.821528 1.41454 -0.419323 1.581139 0 1.581139 
z
" style="stroke: #000000"/>
    </defs>
    <g clip-path="url(#p09a46a6e24)">
     <use xlink:href="#m90f898aa2d" x="204.544674" y="194.269401" style="stroke: #000000"/>
    </g>
   </g>
   <g id="text_1">
    <!-- Montgomery -->
    <g transform="translate(207.544674 191.269401) scale(0.1 -0.1)">
     <defs>
      <path id="DejaVuSans-4d" d="M 628 4666 
L 1569 4666 
L 2759 1491 
L 3956 4666 
L 4897 4666 
L 4897 0 
L 4281 0 
L 4281 4097 
L 3078 897 
L 2444 897 
L 1241 4097 
L 1241 0 
L 628 0 
L 628 4666 
z
" transform="scale(0.015625)"/>
      <path id="DejaVuSans-6f" d="M 1959 3097 
Q 1497 3097 1228 2736 
Q 959 2375 959 1747 
Q 959 1119 1226 758 
Q 1494 397 1959 397 
Q 2419 397 2687 759 
Q 2956 1122 2956 1747 
Q 2956 2369 2687 2733 
Q 2419 3097 1959 3097 
z
M 1959 3584 
Q 2709 3584 3137 3096 
Q 3566 2609 3566 1747 
Q 3566 888 3137 398 
Q 2709 -91 1959 -91 
Q 1206 -91 779 398 
Q 353 888 353 1747 
Q 353 2609 779 3096 
Q 1206 3584 1959 3584 
z
" transform="scale(0.015625)"/>
      <path id="DejaVuSans-6e" d="M 3513 2113 
L 3513 0 
L 2938 0 
L 2938 2094 
Q 2938 2591 2744 2837 
Q 2550 3084 2163 3084 
Q 1697 3084 1428 2787 
Q 1159 2491 1159 1978 
L 1159 0 
L 581 0 
L 581 3500 
L 1159 3500 
L 1159 2956 
Q 1366 3272 1645 3428 
Q 1925 3584 2291 3584 
Q 2894 3584 3203 3211 
Q 3513 2838 3513 2113 
z
" transform="scale(0.015625)"/>
      <path id="DejaVuSans-74" d="M 1172 4494 
L 1172 3500 
L 2356 3500 
L 2356 3053 
L 1172 3053 
L 1172 1153 
Q 1172 725 1289 603 
Q 1406 481 1766 481 
L 2356 481 
L 2356 0 
L 1766 0 
Q 1100 0 847 248 
Q 594 497 594 1153 
L 594 3053 
L 172 3053 
L 172 3500 
L 594 3500 
L 594 4494 
L 1172 4494 
z
" transform="scale(0.015625)"/>
      <path id="DejaVuSans-67" d="M 2906 1791 
Q 2906 2416 2648 2759 
Q 2391 3103 1925 3103 
Q 1463 3103 1205 2759 
Q 947 2416 947 1791 
Q 947 1169 1205 825 
Q 1463 481 1925 481 
Q 2391 481 2648 825 
Q 2906 1169 2906 1791 
z
M 3481 434 
Q 3481 -459 3084 -895 
Q 2688 -1331 1869 -1331 
Q 1566 -1331 1297 -1286 
Q 1028 -1241 775 -1147 
L 775 -588 
Q 1028 -725 1275 -790 
Q 1522 -856 1778 -856 
Q 2344 -856 2625 -561 
Q 2906 -266 2906 331 
L 2906 616 
Q 2728 306 2450 153 
Q 2172 0 1784 0 
Q 1141 0 747 490 
Q 353 981 353 1791 
Q 353 2603 747 3093 
Q 1141 3584 1784 3584 
Q 2172 3584 2450 3431 
Q 2728 3278 2906 2969 
L 2906 3500 
L 3481 3500 
L 3481 434 
z
" transform="scale(0.015625)"/>
      <path id="DejaVuSans-6d" d="M 3328 2828 
Q 3544 3216 3844 3400 
Q 4144 3584 4550 3584 
Q 5097 3584 5394 3201 
Q 5691 2819 5691 2113 
L 5691 0 
L 5113 0 
L 5113 2094 
Q 5113 2597 4934 2840 
Q 4756 3084 4391 3084 
Q 3944 3084 3684 2787 
Q 3425 2491 3425 1978 
L 3425 0 
L 2847 0 
L 2847 2094 
Q 2847 2600 2669 2842 
Q 2491 3084 2119 3084 
Q 1678 3084 1418 2786 
Q 1159 2488 1159 1978 
L 1159 0 
L 581 0 
L 581 3500 
L 1159 3500 
L 1159 2956 
Q 1356 3278 1631 3431 
Q 1906 3584 2284 3584 
Q 2666 3584 2933 3390 
Q 3200 3197 3328 2828 
z
" transform="scale(0.015625)"/>
      <path id="DejaVuSans-65" d="M 3597 1894 
L 3597 1613 
L 953 1613 
Q 991 1019 1311 708 
Q 1631 397 2203 397 
Q 2534 397 2845 478 
Q 3156 559 3463 722 
L 3463 178 
Q 3153 47 2828 -22 
Q 2503 -91 2169 -91 
Q 1331 -91 842 396 
Q 353 884 353 1716 
Q 353 2575 817 3079 
Q 1281 3584 2069 3584 
Q 2775 3584 3186 3129 
Q 3597 2675 3597 1894 
z
M 3022 2063 
Q 3016 2534 2758 2815 
Q 2500 3097 2075 3097 
Q 1594 3097 1305 2825 
Q 1016 2553 972 2059 
L 3022 2063 
z
" transform="scale(0.015625)"/>
      <path id="DejaVuSans-72" d="M 2631 2963 
Q 2534 3019 2420 3045 
Q 2306 3072 2169 3072 
Q 1681 3072 1420 2755 
Q 1159 2438 1159 1844 
L 1159 0 
L 581 0 
L 581 3500 
L 1159 3500 
L 1159 2956 
Q 1341 3275 1631 3429 
Q 1922 3584 2338 3584 
Q 2397 3584 2469 3576 
Q 2541 3569 2628 3553 
L 2631 2963 
z
" transform="scale(0.015625)"/>
      <path id="DejaVuSans-79" d="M 2059 -325 
Q 1816 -950 1584 -1140 
Q 1353 -1331 966 -1331 
L 506 -1331 
L 506 -850 
L 844 -850 
Q 1081 -850 1212 -737 
Q 1344 -625 1503 -206 
L 1606 56 
L 191 3500 
L 800 3500 
L 1894 763 
L 2988 3500 
L 3597 3500 
L 2059 -325 
z
" transform="scale(0.015625)"/>
     </defs>
     <use xlink:href="#DejaVuSans-4d"/>
     <use xlink:href="#DejaVuSans-6f" x="86.279297"/>
     <use xlink:href="#DejaVuSans-6e" x="147.460938"/>
     <use xlink:href="#DejaVuSans-74" x="210.839844"/>
     <use xlink:href="#DejaVuSans-67" x="250.048828"/>
     <use xlink:href="#DejaVuSans-6f" x="313.525391"/>
     <use xlink:href="#DejaVuSans-6d" x="374.707031"/>
     <use xlink:href="#DejaVuSans-65" x="472.119141"/>
     <use xlink:href="#DejaVuSans-72" x="533.642578"/>
     <use xlink:href="#DejaVuSans-79" x="574.755859"/>
    </g>
   </g>
   <g id="text_2">
    <!-- Alabama -->
    <g transform="translate(158.044688 37.2) scale(0.12 -0.12)">
     <defs>
      <path id="DejaVuSans-41" d="M 2188 4044 
L 1331 1722 
L 3047 1722 
L 2188 4044 
z
M 1831 4666 
L 2547 4666 
L 4325 0 
L 3669 0 
L 3244 1197 
L 1141 1197 
L 716 0 
L 50 0 
L 1831 4666 
z
" transform="scale(0.015625)"/>
      <path id="DejaVuSans-6c" d="M 603 4863 
L 1178 4863 
L 1178 0 
L 603 0 
L 603 4863 
z
" transform="scale(0.015625)"/>
      <path id="DejaVuSans-61" d="M 2194 1759 
Q 1497 1759 1228 1600 
Q 959 1441 959 1056 
Q 959 750 1161 570 
Q 1363 391 1709 391 
Q 2188 391 2477 730 
Q 2766 1069 2766 1631 
L 2766 1759 
L 2194 1759 
z
M 3341 1997 
L 3341 0 
L 2766 0 
L 2766 531 
Q 2569 213 2275 61 
Q 1981 -91 1556 -91 
Q 1019 -91 701 211 
Q 384 513 384 1019 
Q 384 1609 779 1909 
Q 1175 2209 1959 2209 
L 2766 2209 
L 2766 2266 
Q 2766 2663 2505 2880 
Q 2244 3097 1772 3097 
Q 1472 3097 1187 3025 
Q 903 2953 641 2809 
L 641 3341 
Q 956 3463 1253 3523 
Q 1550 3584 1831 3584 
Q 2591 3584 2966 3190 
Q 3341 2797 3341 1997 
z
" transform="scale(0.015625)"/>
      <path id="DejaVuSans-62" d="M 3116 1747 
Q 3116 2381 2855 2742 
Q 2594 3103 2138 3103 
Q 1681 3103 1420 2742 
Q 1159 2381 1159 1747 
Q 1159 1113 1420 752 
Q 1681 391 2138 391 
Q 2594 391 2855 752 
Q 3116 1113 3116 1747 
z
M 1159 2969 
Q 1341 3281 1617 3432 
Q 1894 3584 2278 3584 
Q 2916 3584 3314 3078 
Q 3713 2572 3713 1747 
Q 3713 922 3314 415 
Q 2916 -91 2278 -91 
Q 1894 -91 1617 61 
Q 1341 213 1159 525 
L 1159 0 
L 581 0 
L 581 4863 
L 1159 4863 
L 1159 2969 
z
" transform="scale(0.015625)"/>
     </defs>
     <use xlink:href="#DejaVuSans-41"/>
     <use xlink:href="#DejaVuSans-6c" x="68.408203"/>
     <use xlink:href="#DejaVuSans-61" x="96.191406"/>
     <use xlink:href="#DejaVuSans-62" x="157.470703"/>
     <use xlink:href="#DejaVuSans-61" x="220.947266"/>
     <use xlink:href="#DejaVuSans-6d" x="282.226562"/>
     <use xlink:href="#DejaVuSans-61" x="379.638672"/>
    </g>
   </g>
  </g>
 </g>
 <defs>
  <clipPath id="p09a46a6e24">
   <rect x="80.734611" y="43.2" width="207.530778" height="277.2"/>
  </clipPath>
 </defs>
</svg>
