<?xml version="1.0" encoding="utf-8" standalone="no"?>
<!DOCTYPE svg PUBLIC "-//W3C//DTD SVG 1.1//EN"
  "http://www.w3.org/Graphics/SVG/1.1/DTD/svg11.dtd">
<svg xmlns:xlink="http://www.w3.org/1999/xlink" width="360pt" height="360pt" viewBox="0 0 360 360" xmlns="http://www.w3.org/2000/svg" version="1.1">
 <metadata>
  <rdf:RDF xmlns:dc="http://purl.org/dc/elements/1.1/" xmlns:cc="http://creativecommons.org/ns#" xmlns:rdf="http://www.w3.org/1999/02/22-rdf-syntax-ns#">
   <cc:Work>
    <dc:type rdf:resource="http://purl.org/dc/dcmitype/StillImage"/>
    <dc:date>2023-06-19T15:20:28.978645</dc:date>
    <dc:format>image/svg+xml</dc:format>
    <dc:creator>
     <cc:Agent>
      <dc:title>Matplotlib v3.7.1, https://matplotlib.org/</dc:title>
     </cc:Agent>
    </dc:creator>
   </cc:Work>
  </rdf:RDF>
 </metadata>
 <defs>
  <style type="text/css">*{stroke-linejoin: round; stroke-linecap: butt}</style>
 </defs>
 <g id="figure_1">
  <g id="patch_1">
   <path d="M 0 360 
L 360 360 
L 360 0 
L 0 0 
z
" style="fill: #ffffff"/>
  </g>
  <g id="axes_1">
   <g id="PatchCollection_1">
    <path d="M 288.822457 306.639638 
L 289.116753 306.243984 
L 289.830568 306.275614 
L 290.282866 306.72403 
L 290.533528 307.583771 
L 290.255622 307.789505 
L 289.68342 307.8 
L 289.002312 307.573204 
L 288.822457 306.639638 
" clip-path="url(#p061983f583)" style="fill: #e30000"/>
    <path d="M 191.343745 283.988345 
L 192.177248 283.37524 
L 194.112239 283.551142 
L 196.059092 283.299043 
L 197.976112 283.289122 
L 198.587779 283.779376 
L 198.420288 285.041383 
L 198.268971 286.451904 
L 197.943117 286.573102 
L 197.173089 286.415818 
L 196.021496 285.958776 
L 195.269726 286.177377 
L 194.473244 286.863372 
L 193.841378 287.644543 
L 193.383185 287.597099 
L 192.915359 287.005345 
L 191.897041 285.352716 
L 191.343745 283.988345 
" clip-path="url(#p061983f583)" style="fill: #e30000"/>
    <path d="M 179.289188 279.890702 
L 179.791518 279.499794 
L 180.515972 279.655496 
L 182.136324 279.886893 
L 183.141487 279.8948 
L 184.08332 279.755847 
L 184.380707 279.350633 
L 184.56351 279.199675 
L 184.90985 279.394051 
L 184.849108 280.296132 
L 185.113572 281.016129 
L 184.650634 281.977946 
L 184.048888 281.211727 
L 183.697156 280.710907 
L 182.855458 280.584102 
L 181.925342 280.625004 
L 181.209587 281.219275 
L 180.539837 281.42465 
L 179.494203 280.467218 
L 179.289188 279.890702 
" clip-path="url(#p061983f583)" style="fill: #e30000"/>
    <path d="M 95.922156 291.088754 
L 96.912511 290.437478 
L 97.505344 289.902728 
L 97.803738 289.650341 
L 98.496131 289.289049 
L 99.418771 288.883404 
L 100.379509 288.756455 
L 101.993464 288.76005 
L 103.000353 289.009993 
L 103.358156 288.855546 
L 103.593545 288.753939 
L 104.927581 287.665749 
L 105.594814 286.906359 
L 106.364915 286.341633 
L 107.188354 285.92384 
L 108.534035 284.582256 
L 109.359343 285.789703 
L 110.754984 285.86475 
L 111.999523 285.962298 
L 112.769624 286.183846 
L 114.791021 286.120013 
L 115.278759 285.783808 
L 116.389664 285.714871 
L 116.418059 286.683876 
L 117.124541 288.104893 
L 117.553765 288.394085 
L 117.301234 288.838116 
L 116.707467 288.812669 
L 116.430423 288.618077 
L 115.671177 287.590198 
L 115.251802 287.820229 
L 113.513774 288.501912 
L 111.644557 288.183606 
L 110.790855 288.676304 
L 109.129959 289.002373 
L 108.096473 289.479831 
L 106.831806 290.354955 
L 106.481296 291.604526 
L 106.145277 291.87465 
L 104.949434 292.835983 
L 103.583194 294.305305 
L 102.192872 294.946373 
L 100.344933 293.763798 
L 99.378731 292.050499 
L 97.983665 291.971857 
L 97.192718 291.828806 
L 95.932723 291.29075 
L 95.922156 291.088754 
" clip-path="url(#p061983f583)" style="fill: #e30000"/>
    <path d="M 78.485593 56.113705 
L 78.624331 55.995095 
L 78.8604 55.909696 
L 79.630644 55.8 
L 79.969724 55.922132 
L 80.152455 56.129232 
L 80.174164 56.428344 
L 79.848096 56.690076 
L 79.408736 57.005434 
L 79.110918 57.07013 
L 78.655385 56.718542 
L 78.466472 56.300174 
L 78.485593 56.113705 
" clip-path="url(#p061983f583)" style="fill: #e30000"/>
   </g>
   <g id="text_1">
    <!-- American Samoa -->
    <g transform="translate(133.362188 37.2) scale(0.12 -0.12)">
     <defs>
      <path id="DejaVuSans-41" d="M 2188 4044 
L 1331 1722 
L 3047 1722 
L 2188 4044 
z
M 1831 4666 
L 2547 4666 
L 4325 0 
L 3669 0 
L 3244 1197 
L 1141 1197 
L 716 0 
L 50 0 
L 1831 4666 
z
" transform="scale(0.015625)"/>
      <path id="DejaVuSans-6d" d="M 3328 2828 
Q 3544 3216 3844 3400 
Q 4144 3584 4550 3584 
Q 5097 3584 5394 3201 
Q 5691 2819 5691 2113 
L 5691 0 
L 5113 0 
L 5113 2094 
Q 5113 2597 4934 2840 
Q 4756 3084 4391 3084 
Q 3944 3084 3684 2787 
Q 3425 2491 3425 1978 
L 3425 0 
L 2847 0 
L 2847 2094 
Q 2847 2600 2669 2842 
Q 2491 3084 2119 3084 
Q 1678 3084 1418 2786 
Q 1159 2488 1159 1978 
L 1159 0 
L 581 0 
L 581 3500 
L 1159 3500 
L 1159 2956 
Q 1356 3278 1631 3431 
Q 1906 3584 2284 3584 
Q 2666 3584 2933 3390 
Q 3200 3197 3328 2828 
z
" transform="scale(0.015625)"/>
      <path id="DejaVuSans-65" d="M 3597 1894 
L 3597 1613 
L 953 1613 
Q 991 1019 1311 708 
Q 1631 397 2203 397 
Q 2534 397 2845 478 
Q 3156 559 3463 722 
L 3463 178 
Q 3153 47 2828 -22 
Q 2503 -91 2169 -91 
Q 1331 -91 842 396 
Q 353 884 353 1716 
Q 353 2575 817 3079 
Q 1281 3584 2069 3584 
Q 2775 3584 3186 3129 
Q 3597 2675 3597 1894 
z
M 3022 2063 
Q 3016 2534 2758 2815 
Q 2500 3097 2075 3097 
Q 1594 3097 1305 2825 
Q 1016 2553 972 2059 
L 3022 2063 
z
" transform="scale(0.015625)"/>
      <path id="DejaVuSans-72" d="M 2631 2963 
Q 2534 3019 2420 3045 
Q 2306 3072 2169 3072 
Q 1681 3072 1420 2755 
Q 1159 2438 1159 1844 
L 1159 0 
L 581 0 
L 581 3500 
L 1159 3500 
L 1159 2956 
Q 1341 3275 1631 3429 
Q 1922 3584 2338 3584 
Q 2397 3584 2469 3576 
Q 2541 3569 2628 3553 
L 2631 2963 
z
" transform="scale(0.015625)"/>
      <path id="DejaVuSans-69" d="M 603 3500 
L 1178 3500 
L 1178 0 
L 603 0 
L 603 3500 
z
M 603 4863 
L 1178 4863 
L 1178 4134 
L 603 4134 
L 603 4863 
z
" transform="scale(0.015625)"/>
      <path id="DejaVuSans-63" d="M 3122 3366 
L 3122 2828 
Q 2878 2963 2633 3030 
Q 2388 3097 2138 3097 
Q 1578 3097 1268 2742 
Q 959 2388 959 1747 
Q 959 1106 1268 751 
Q 1578 397 2138 397 
Q 2388 397 2633 464 
Q 2878 531 3122 666 
L 3122 134 
Q 2881 22 2623 -34 
Q 2366 -91 2075 -91 
Q 1284 -91 818 406 
Q 353 903 353 1747 
Q 353 2603 823 3093 
Q 1294 3584 2113 3584 
Q 2378 3584 2631 3529 
Q 2884 3475 3122 3366 
z
" transform="scale(0.015625)"/>
      <path id="DejaVuSans-61" d="M 2194 1759 
Q 1497 1759 1228 1600 
Q 959 1441 959 1056 
Q 959 750 1161 570 
Q 1363 391 1709 391 
Q 2188 391 2477 730 
Q 2766 1069 2766 1631 
L 2766 1759 
L 2194 1759 
z
M 3341 1997 
L 3341 0 
L 2766 0 
L 2766 531 
Q 2569 213 2275 61 
Q 1981 -91 1556 -91 
Q 1019 -91 701 211 
Q 384 513 384 1019 
Q 384 1609 779 1909 
Q 1175 2209 1959 2209 
L 2766 2209 
L 2766 2266 
Q 2766 2663 2505 2880 
Q 2244 3097 1772 3097 
Q 1472 3097 1187 3025 
Q 903 2953 641 2809 
L 641 3341 
Q 956 3463 1253 3523 
Q 1550 3584 1831 3584 
Q 2591 3584 2966 3190 
Q 3341 2797 3341 1997 
z
" transform="scale(0.015625)"/>
      <path id="DejaVuSans-6e" d="M 3513 2113 
L 3513 0 
L 2938 0 
L 2938 2094 
Q 2938 2591 2744 2837 
Q 2550 3084 2163 3084 
Q 1697 3084 1428 2787 
Q 1159 2491 1159 1978 
L 1159 0 
L 581 0 
L 581 3500 
L 1159 3500 
L 1159 2956 
Q 1366 3272 1645 3428 
Q 1925 3584 2291 3584 
Q 2894 3584 3203 3211 
Q 3513 2838 3513 2113 
z
" transform="scale(0.015625)"/>
      <path id="DejaVuSans-20" transform="scale(0.015625)"/>
      <path id="DejaVuSans-53" d="M 3425 4513 
L 3425 3897 
Q 3066 4069 2747 4153 
Q 2428 4238 2131 4238 
Q 1616 4238 1336 4038 
Q 1056 3838 1056 3469 
Q 1056 3159 1242 3001 
Q 1428 2844 1947 2747 
L 2328 2669 
Q 3034 2534 3370 2195 
Q 3706 1856 3706 1288 
Q 3706 609 3251 259 
Q 2797 -91 1919 -91 
Q 1588 -91 1214 -16 
Q 841 59 441 206 
L 441 856 
Q 825 641 1194 531 
Q 1563 422 1919 422 
Q 2459 422 2753 634 
Q 3047 847 3047 1241 
Q 3047 1584 2836 1778 
Q 2625 1972 2144 2069 
L 1759 2144 
Q 1053 2284 737 2584 
Q 422 2884 422 3419 
Q 422 4038 858 4394 
Q 1294 4750 2059 4750 
Q 2388 4750 2728 4690 
Q 3069 4631 3425 4513 
z
" transform="scale(0.015625)"/>
      <path id="DejaVuSans-6f" d="M 1959 3097 
Q 1497 3097 1228 2736 
Q 959 2375 959 1747 
Q 959 1119 1226 758 
Q 1494 397 1959 397 
Q 2419 397 2687 759 
Q 2956 1122 2956 1747 
Q 2956 2369 2687 2733 
Q 2419 3097 1959 3097 
z
M 1959 3584 
Q 2709 3584 3137 3096 
Q 3566 2609 3566 1747 
Q 3566 888 3137 398 
Q 2709 -91 1959 -91 
Q 1206 -91 779 398 
Q 353 888 353 1747 
Q 353 2609 779 3096 
Q 1206 3584 1959 3584 
z
" transform="scale(0.015625)"/>
     </defs>
     <use xlink:href="#DejaVuSans-41"/>
     <use xlink:href="#DejaVuSans-6d" x="68.408203"/>
     <use xlink:href="#DejaVuSans-65" x="165.820312"/>
     <use xlink:href="#DejaVuSans-72" x="227.34375"/>
     <use xlink:href="#DejaVuSans-69" x="268.457031"/>
     <use xlink:href="#DejaVuSans-63" x="296.240234"/>
     <use xlink:href="#DejaVuSans-61" x="351.220703"/>
     <use xlink:href="#DejaVuSans-6e" x="412.5"/>
     <use xlink:href="#DejaVuSans-20" x="475.878906"/>
     <use xlink:href="#DejaVuSans-53" x="507.666016"/>
     <use xlink:href="#DejaVuSans-61" x="571.142578"/>
     <use xlink:href="#DejaVuSans-6d" x="632.421875"/>
     <use xlink:href="#DejaVuSans-6f" x="729.833984"/>
     <use xlink:href="#DejaVuSans-61" x="791.015625"/>
    </g>
   </g>
  </g>
 </g>
 <defs>
  <clipPath id="p061983f583">
   <rect x="67.863119" y="43.2" width="233.273761" height="277.2"/>
  </clipPath>
 </defs>
</svg>
