<?xml version="1.0" encoding="utf-8" standalone="no"?>
<!DOCTYPE svg PUBLIC "-//W3C//DTD SVG 1.1//EN"
  "http://www.w3.org/Graphics/SVG/1.1/DTD/svg11.dtd">
<svg xmlns:xlink="http://www.w3.org/1999/xlink" width="460.8pt" height="345.6pt" viewBox="0 0 460.8 345.6" xmlns="http://www.w3.org/2000/svg" version="1.1">
 <metadata>
  <rdf:RDF xmlns:dc="http://purl.org/dc/elements/1.1/" xmlns:cc="http://creativecommons.org/ns#" xmlns:rdf="http://www.w3.org/1999/02/22-rdf-syntax-ns#">
   <cc:Work>
    <dc:type rdf:resource="http://purl.org/dc/dcmitype/StillImage"/>
    <dc:date>2023-06-19T14:47:53.996953</dc:date>
    <dc:format>image/svg+xml</dc:format>
    <dc:creator>
     <cc:Agent>
      <dc:title>Matplotlib v3.7.1, https://matplotlib.org/</dc:title>
     </cc:Agent>
    </dc:creator>
   </cc:Work>
  </rdf:RDF>
 </metadata>
 <defs>
  <style type="text/css">*{stroke-linejoin: round; stroke-linecap: butt}</style>
 </defs>
 <g id="figure_1">
  <g id="patch_1">
   <path d="M 0 345.6 
L 460.8 345.6 
L 460.8 0 
L 0 0 
z
" style="fill: #ffffff"/>
  </g>
  <g id="axes_1">
   <g id="PatchCollection_1">
    <path d="M 94.764937 53.580873 
L 98.098826 53.575198 
L 100.362702 53.594715 
L 109.362879 53.568 
L 114.590015 53.593552 
L 119.586503 53.617976 
L 123.563568 53.637417 
L 123.60906 53.638109 
L 124.201641 53.632364 
L 124.296263 53.631949 
L 125.518786 53.628212 
L 125.727271 53.628241 
L 131.954047 53.629112 
L 132.223015 53.629112 
L 134.346892 53.629042 
L 135.240341 53.629042 
L 137.479078 53.624162 
L 145.368191 53.606965 
L 145.394918 53.605719 
L 145.887304 53.597206 
L 146.3955 53.597137 
L 146.951915 53.600182 
L 148.142998 53.603172 
L 153.541904 53.616723 
L 157.509261 53.617761 
L 157.913224 53.615685 
L 162.486183 53.638247 
L 164.243855 53.632434 
L 164.321247 53.642815 
L 168.835182 53.650497 
L 168.835898 53.6505 
L 170.078812 53.654949 
L 170.22995 53.65549 
L 178.171467 53.68392 
L 179.603436 53.689047 
L 181.70633 53.666 
L 181.783267 53.662194 
L 182.813817 53.661986 
L 182.873922 53.661432 
L 192.775054 53.687939 
L 192.794104 53.689116 
L 195.065915 53.679937 
L 195.928741 53.676451 
L 195.943242 53.673267 
L 199.712654 53.694514 
L 211.545804 53.662124 
L 213.542299 53.636596 
L 214.241279 53.627658 
L 218.375702 53.642331 
L 219.725999 53.684687 
L 221.742175 53.689462 
L 222.297624 53.734171 
L 223.712518 53.693476 
L 225.524325 53.698736 
L 226.03559 53.686071 
L 231.324641 53.649874 
L 231.453665 53.652989 
L 231.606857 53.651397 
L 232.292241 53.654442 
L 235.084321 53.634876 
L 235.798202 53.629873 
L 236.783432 53.619006 
L 236.789629 53.618938 
L 238.037797 53.62316 
L 239.36967 53.626066 
L 240.37935 53.632364 
L 240.458334 53.632364 
L 241.990369 53.634302 
L 242.528986 53.642469 
L 244.270395 53.644268 
L 244.438087 53.648905 
L 251.250813 53.624544 
L 251.342364 53.624129 
L 254.663459 53.610425 
L 254.887561 53.612086 
L 255.031996 53.612847 
L 255.872846 53.604404 
L 256.930633 53.601636 
L 259.173811 53.595061 
L 261.394243 53.582049 
L 261.484601 53.583641 
L 262.262673 53.577482 
L 263.954553 53.58634 
L 264.588645 53.595822 
L 265.370212 53.591243 
L 266.301508 53.585787 
L 266.591742 53.598314 
L 269.267202 53.598383 
L 269.824698 53.601497 
L 269.966233 53.598729 
L 270.369741 53.608003 
L 272.054854 53.622537 
L 274.905776 53.709064 
L 275.117331 53.715485 
L 275.673576 53.721852 
L 275.855769 53.729811 
L 277.336341 53.739431 
L 277.343392 53.740192 
L 277.456893 53.736524 
L 277.469744 53.739639 
L 287.564101 53.705242 
L 288.061834 53.70891 
L 288.134904 53.712578 
L 293.299934 53.698667 
L 295.020188 53.68614 
L 295.042763 53.687732 
L 299.472824 53.674444 
L 300.008257 53.660048 
L 301.560872 53.653901 
L 302.595292 53.649805 
L 302.732619 53.649251 
L 307.362955 53.652574 
L 307.496756 53.649459 
L 307.513815 53.657072 
L 307.67258 53.673613 
L 308.999847 53.640808 
L 312.754916 53.642489 
L 312.865473 53.642538 
L 313.819768 53.644545 
L 316.915794 53.656726 
L 317.951916 53.643438 
L 320.212779 53.644961 
L 320.482997 53.647798 
L 322.526696 53.640047 
L 322.930659 53.646968 
L 323.564694 53.646968 
L 324.074083 53.644338 
L 324.595098 53.647841 
L 324.59894 53.647867 
L 328.917887 53.65112 
L 329.209771 53.653058 
L 329.235474 53.653266 
L 338.031394 53.663993 
L 344.340417 53.694583 
L 344.80733 53.688584 
L 344.809035 53.688562 
L 345.001179 53.692784 
L 346.330663 53.690985 
L 348.688365 53.682057 
L 348.578731 53.759571 
L 348.609324 53.862554 
L 348.251307 54.831481 
L 348.296338 54.859672 
L 349.269062 55.46862 
L 349.318534 56.317401 
L 349.731538 57.928035 
L 349.185244 58.770241 
L 349.907704 59.418315 
L 351.132728 60.179338 
L 352.785713 60.40842 
L 353.598302 61.411329 
L 353.746718 63.443378 
L 352.957727 64.544356 
L 352.811018 66.093532 
L 353.720901 67.171879 
L 352.877776 68.174789 
L 352.597777 69.297014 
L 350.824127 69.763276 
L 350.196574 71.298265 
L 350.173373 72.270583 
L 349.270711 72.398274 
L 348.492354 73.328998 
L 346.961287 73.949527 
L 346.586829 74.281834 
L 345.953142 74.844193 
L 345.430333 75.548534 
L 344.824786 75.357517 
L 343.974951 77.130031 
L 343.962725 78.491997 
L 342.824816 79.349359 
L 341.509662 80.019303 
L 340.613028 80.327768 
L 340.304937 81.346042 
L 339.209847 81.917709 
L 339.248344 82.918611 
L 338.40846 83.472976 
L 338.062613 84.884288 
L 337.382119 86.284527 
L 335.870669 88.443643 
L 336.392228 88.434715 
L 337.876496 88.428971 
L 338.057438 88.41942 
L 340.733352 88.394228 
L 340.928336 88.392768 
L 340.936698 88.392705 
L 348.328358 88.326541 
L 350.118499 88.308547 
L 350.174283 88.311246 
L 351.454182 88.273389 
L 358.919253 88.214492 
L 359.330722 88.227018 
L 359.572509 88.204733 
L 359.639722 88.212692 
L 359.669064 88.212692 
L 362.965152 88.188909 
L 362.978218 88.188815 
L 363.244058 88.184178 
L 364.43377 88.175181 
L 364.462259 88.174073 
L 364.490407 88.174281 
L 364.807709 88.169783 
L 370.42333 88.108602 
L 370.439365 88.107771 
L 372.2775 88.105626 
L 372.282276 88.10874 
L 372.536402 88.102788 
L 372.643136 88.360869 
L 372.800991 88.59002 
L 373.32835 89.115456 
L 373.349219 89.181966 
L 373.282745 89.901394 
L 373.299292 90.156153 
L 373.349503 90.339972 
L 373.590095 90.703251 
L 373.836772 90.925274 
L 374.425658 91.324126 
L 375.161878 91.763396 
L 375.74775 92.26011 
L 376.06073 92.588438 
L 376.911987 93.279491 
L 377.131937 93.580412 
L 377.242197 93.834201 
L 377.448557 94.511551 
L 377.555063 94.764649 
L 377.41677 95.41736 
L 377.222863 95.696964 
L 376.951507 95.971586 
L 376.819639 96.052007 
L 376.370355 96.2215 
L 376.149665 96.222884 
L 375.725516 96.054083 
L 375.452113 95.758561 
L 375.092674 95.277142 
L 373.569113 94.633428 
L 372.073187 94.598685 
L 371.216187 95.200043 
L 370.682972 95.667966 
L 370.509308 95.988819 
L 370.339683 96.469061 
L 370.275483 96.709909 
L 370.235166 97.024603 
L 370.25052 97.320195 
L 370.297546 97.481313 
L 370.471209 97.726314 
L 370.759511 97.950897 
L 371.607867 98.32172 
L 372.739862 98.69012 
L 373.891703 99.293692 
L 374.170906 99.514123 
L 374.254383 99.622989 
L 374.338314 99.842244 
L 374.358899 100.033122 
L 374.31881 100.309197 
L 374.197973 100.583058 
L 374.072304 100.722929 
L 373.285872 101.186838 
L 373.086222 101.337368 
L 372.482438 101.559391 
L 371.971741 101.584098 
L 371.127365 101.265875 
L 370.697017 101.210577 
L 370.696164 101.328301 
L 369.767231 101.634829 
L 368.940938 102.484509 
L 368.769947 102.782385 
L 368.899484 103.187604 
L 368.889362 103.362772 
L 368.77461 103.686532 
L 368.204205 104.451985 
L 367.998869 104.675184 
L 367.909877 104.759135 
L 367.525475 104.982334 
L 367.314679 105.051613 
L 366.861358 105.107672 
L 366.096649 105.050436 
L 365.450444 105.441814 
L 365.099763 105.613798 
L 364.589634 106.049331 
L 364.338807 106.044486 
L 363.981757 105.794296 
L 363.718589 105.441814 
L 362.730574 104.819901 
L 362.477074 104.796854 
L 362.298748 104.941778 
L 362.164605 105.106842 
L 360.186471 106.243532 
L 359.975789 106.404997 
L 359.846651 106.596983 
L 359.7083 106.99009 
L 359.697212 107.258068 
L 359.80804 108.099443 
L 359.827601 109.220008 
L 359.87514 109.55671 
L 360.014457 109.847596 
L 360.193124 110.123394 
L 360.617388 110.629451 
L 360.919735 111.280709 
L 361.280652 111.672917 
L 361.751885 112.001729 
L 362.168244 112.175513 
L 362.695944 112.288808 
L 363.107129 112.305488 
L 363.585129 112.201397 
L 363.785916 112.116339 
L 363.902317 112.014602 
L 364.018263 111.851545 
L 364.266134 111.342374 
L 364.344379 111.251295 
L 364.633249 111.088584 
L 365.04813 110.957225 
L 365.247439 110.979441 
L 365.380615 111.048927 
L 365.689103 111.465981 
L 365.821824 111.853691 
L 365.839623 112.353657 
L 365.784919 112.765175 
L 365.667495 113.180499 
L 365.512313 113.44467 
L 365.099706 113.697698 
L 364.379066 113.983878 
L 363.366998 114.753345 
L 363.216137 114.798538 
L 363.057486 114.78615 
L 362.702654 114.711127 
L 362.437781 114.614857 
L 362.353337 114.648147 
L 361.92987 114.981665 
L 361.197402 115.284178 
L 360.46357 115.717012 
L 360.137056 116.002154 
L 359.966577 116.225491 
L 359.818503 116.485233 
L 359.75328 116.710163 
L 359.751688 116.832109 
L 359.821858 117.113998 
L 359.963677 117.486066 
L 360.377933 118.349103 
L 360.500589 118.575556 
L 360.691709 118.835297 
L 361.390684 119.182035 
L 361.672503 119.250137 
L 362.054687 119.267647 
L 362.239325 119.308826 
L 362.43198 119.460948 
L 362.481225 119.701657 
L 362.426521 119.906862 
L 362.432094 120.06978 
L 362.521995 120.108113 
L 362.543605 120.117327 
L 362.728072 120.204323 
L 362.79574 120.278584 
L 362.824741 120.384197 
L 362.609908 121.161485 
L 362.532459 121.32731 
L 362.367042 121.544488 
L 362.16978 121.703046 
L 361.946247 121.789488 
L 361.728457 121.750869 
L 361.134056 121.46642 
L 360.485122 121.407592 
L 360.315439 121.359007 
L 360.131313 121.236092 
L 359.841363 120.97808 
L 359.763572 120.867484 
L 359.762208 120.664494 
L 359.873604 120.450707 
L 359.881509 120.360458 
L 359.820948 120.024725 
L 359.719048 119.863191 
L 358.706183 119.020985 
L 357.963935 118.593896 
L 357.758542 118.543304 
L 357.416162 118.516589 
L 356.887496 118.592373 
L 356.718667 118.658814 
L 356.374638 118.873985 
L 355.999847 118.850454 
L 355.731618 118.925684 
L 355.486079 119.050884 
L 355.220125 119.266193 
L 355.099061 119.424544 
L 354.972937 120.156292 
L 354.814513 120.558466 
L 354.730411 120.701382 
L 354.567609 121.209031 
L 354.500111 121.692249 
L 354.600078 122.447874 
L 354.754408 122.989366 
L 354.884513 123.282467 
L 355.37019 124.084808 
L 356.199838 124.807904 
L 356.278765 124.977744 
L 356.287636 125.184471 
L 356.10442 125.699456 
L 355.980285 125.915042 
L 355.846256 126.362964 
L 355.829482 126.564985 
L 355.847394 126.894836 
L 355.802699 127.047995 
L 355.692382 127.231054 
L 355.581099 127.484982 
L 355.563073 127.755866 
L 355.052091 128.08371 
L 354.934383 128.200535 
L 354.844765 128.339368 
L 354.782783 128.602086 
L 354.709314 128.772963 
L 354.402471 129.114227 
L 354.138057 129.408303 
L 353.419351 129.095478 
L 353.832469 128.619734 
L 353.34736 128.058379 
L 353.146459 127.318395 
L 353.14754 126.928887 
L 353.30312 126.186481 
L 353.537457 125.451549 
L 353.541324 125.183295 
L 353.503794 125.087025 
L 353.256093 124.773646 
L 352.802659 124.352024 
L 352.525105 124.214229 
L 351.745497 124.230839 
L 351.57263 124.34891 
L 351.233492 124.345726 
L 350.853127 124.654952 
L 350.626922 124.909365 
L 350.500171 125.120453 
L 350.356703 125.527956 
L 349.998118 126.768321 
L 349.387874 127.145336 
L 347.748912 128.157902 
L 347.6581 128.400203 
L 347.652357 128.973739 
L 347.165315 130.695038 
L 347.217858 130.909725 
L 347.55637 131.215006 
L 347.90563 131.418204 
L 349.118088 131.425956 
L 349.653407 131.285115 
L 349.200484 130.528383 
L 349.064294 130.010906 
L 349.046041 129.707148 
L 349.108933 129.41031 
L 349.202019 129.208634 
L 349.303692 129.077691 
L 349.518582 128.873732 
L 349.6753 128.772202 
L 349.939718 128.719049 
L 350.711536 128.861135 
L 350.961624 128.967648 
L 351.073135 129.075476 
L 351.287399 129.439239 
L 351.397317 129.567414 
L 351.863149 129.998587 
L 352.03721 130.131745 
L 352.369638 130.304422 
L 352.813918 130.68964 
L 352.925315 130.743 
L 353.094713 130.767154 
L 352.592489 131.829791 
L 352.36054 132.212379 
L 352.213318 132.377373 
L 352.042726 132.405057 
L 351.853198 132.631371 
L 351.655936 133.018734 
L 351.256863 133.60535 
L 351.171282 133.64383 
L 351.087351 133.630058 
L 351.453044 134.348518 
L 351.284613 134.887449 
L 351.155588 136.246093 
L 350.69351 136.357035 
L 350.429376 136.277375 
L 350.324575 136.277721 
L 349.830653 136.557464 
L 349.426292 136.672352 
L 348.841159 136.363679 
L 348.636448 136.412125 
L 348.322615 136.547152 
L 348.191145 136.663839 
L 348.044037 136.860116 
L 347.965451 137.062691 
L 347.756361 137.83721 
L 347.76074 138.038539 
L 347.885841 138.34998 
L 348.325344 139.181251 
L 348.710372 139.6372 
L 349.375682 139.893274 
L 349.846404 139.831609 
L 350.331057 139.706409 
L 350.734793 139.651111 
L 351.097984 139.674089 
L 351.383045 139.754925 
L 351.701655 139.955285 
L 351.789396 140.05287 
L 352.190573 140.592286 
L 352.450442 141.040069 
L 352.642813 141.309638 
L 352.881017 141.58772 
L 352.98741 141.823101 
L 353.098807 142.096684 
L 353.142308 142.330749 
L 353.135712 142.715967 
L 352.990765 142.901932 
L 352.743236 142.947887 
L 352.575657 142.790782 
L 352.321076 142.655617 
L 352.054497 143.285004 
L 351.873612 143.868714 
L 351.820046 143.872451 
L 351.156555 143.574091 
L 350.752478 143.616101 
L 350.675143 144.16479 
L 350.683615 144.350271 
L 350.864386 144.779298 
L 351.041973 144.990524 
L 351.150811 145.003536 
L 351.213476 145.272067 
L 351.358479 145.540321 
L 351.489779 145.728224 
L 351.685334 145.970871 
L 351.868892 146.212965 
L 352.073887 146.47236 
L 352.220199 146.538663 
L 353.412584 146.720267 
L 353.55156 146.845328 
L 353.578627 146.898273 
L 353.684963 147.621716 
L 353.640609 147.824499 
L 353.572429 147.942223 
L 353.310797 148.246674 
L 352.615462 148.933298 
L 352.428379 149.064172 
L 352.206608 149.167432 
L 351.638933 149.27789 
L 351.138529 149.12563 
L 349.453586 148.080295 
L 349.239208 148.004442 
L 349.131337 148.011848 
L 348.488601 148.2882 
L 348.257505 148.43776 
L 347.957831 148.687052 
L 347.514658 149.153431 
L 347.48728 149.182243 
L 347.30304 149.596459 
L 347.04465 151.028188 
L 346.262995 153.077331 
L 346.180542 153.468778 
L 346.148527 153.842922 
L 346.16479 154.331815 
L 346.208291 154.765549 
L 345.979186 155.083011 
L 345.451884 155.516744 
L 345.168416 155.56872 
L 345.061739 155.551141 
L 344.576517 155.280395 
L 344.245568 155.18634 
L 342.773695 154.966739 
L 342.43814 154.835242 
L 342.381276 154.759112 
L 342.35853 154.613773 
L 342.273234 154.565327 
L 340.75496 154.461513 
L 340.614569 154.542202 
L 340.550249 154.579169 
L 340.45358 154.731429 
L 340.260185 155.361231 
L 339.907627 156.094779 
L 339.738172 156.67918 
L 339.714232 157.056716 
L 339.771153 157.651983 
L 340.048196 158.396327 
L 340.159308 158.594404 
L 340.50328 158.991041 
L 340.693149 159.11368 
L 341.025463 159.255074 
L 341.310069 159.592122 
L 341.537184 159.770958 
L 342.59355 160.275078 
L 342.917334 160.469209 
L 343.139844 160.73165 
L 343.26631 160.958656 
L 343.363889 161.207809 
L 343.457146 161.672894 
L 343.442987 162.819343 
L 343.339437 163.294325 
L 343.239242 163.600852 
L 343.137626 163.768269 
L 341.473269 164.961641 
L 340.188536 165.655393 
L 339.730894 165.998393 
L 339.533518 166.233635 
L 340.048514 167.002487 
L 340.089536 167.063729 
L 340.156351 167.287482 
L 340.148049 167.433167 
L 340.075547 167.699553 
L 339.879935 167.998675 
L 339.656572 168.135155 
L 339.208141 168.091484 
L 338.988134 167.98511 
L 338.463221 167.560235 
L 338.003644 167.018536 
L 337.557943 167.381468 
L 337.332988 167.514142 
L 335.759955 168.016946 
L 334.520543 168.752362 
L 334.159008 168.911994 
L 334.006889 168.97916 
L 333.768174 168.991756 
L 333.342204 168.865173 
L 333.255543 168.800739 
L 332.97833 168.330533 
L 332.860394 167.805789 
L 332.808477 167.385759 
L 332.809557 167.118474 
L 332.957802 166.691177 
L 332.965479 166.547152 
L 332.902018 166.267271 
L 332.534392 165.470051 
L 332.434766 165.342014 
L 332.267528 165.222144 
L 332.065547 165.105804 
L 331.547514 164.889318 
L 331.211845 164.832289 
L 330.85161 164.898522 
L 330.309581 165.222352 
L 330.071548 165.433163 
L 329.838575 165.854508 
L 329.805082 165.998463 
L 329.777787 166.402921 
L 329.843863 166.950988 
L 329.953099 167.195157 
L 330.382538 167.770285 
L 330.985753 168.7788 
L 331.375841 169.577473 
L 331.385735 169.78427 
L 331.257052 170.19641 
L 330.896362 170.462727 
L 330.601977 170.847252 
L 330.50326 171.025189 
L 330.412448 171.306593 
L 330.371904 171.666411 
L 330.432351 171.968509 
L 330.609539 172.519275 
L 331.26507 173.668838 
L 331.597441 174.424256 
L 331.703663 174.809404 
L 331.698716 175.037933 
L 331.629228 175.355395 
L 331.487693 175.655832 
L 331.318124 175.836536 
L 330.638768 176.245978 
L 330.081101 176.400798 
L 329.560168 176.474298 
L 328.832193 176.439348 
L 328.089092 176.064234 
L 327.885404 175.847333 
L 327.73261 175.444398 
L 327.68166 175.103543 
L 327.68166 174.762619 
L 327.758086 174.421764 
L 327.987476 174.079525 
L 328.614574 173.648006 
L 328.85164 173.276838 
L 328.870463 173.189911 
L 328.840381 172.940205 
L 328.717782 172.570559 
L 328.201342 171.438852 
L 328.090741 171.073428 
L 327.625251 171.039031 
L 327.145431 171.155371 
L 326.850875 171.29462 
L 326.639795 171.488682 
L 326.421152 171.807667 
L 326.219569 172.262371 
L 326.187838 172.449166 
L 326.205523 172.635754 
L 326.298439 173.033775 
L 326.502809 173.65991 
L 326.49917 174.474501 
L 326.435709 174.706283 
L 326.321469 174.937995 
L 326.21991 175.046099 
L 326.067628 175.154273 
L 325.902608 175.216008 
L 325.725078 175.241684 
L 325.521106 175.293799 
L 325.313609 175.440314 
L 325.205965 175.588076 
L 325.103439 175.800755 
L 325.050441 176.221478 
L 325.055616 176.400175 
L 325.089678 176.504681 
L 325.19408 176.65964 
L 326.30822 177.973021 
L 326.710761 178.200927 
L 327.265926 178.336854 
L 327.671197 178.351664 
L 328.367044 178.25491 
L 329.123053 178.076697 
L 329.668153 178.014478 
L 330.061937 178.011848 
L 330.337558 178.059533 
L 330.565527 178.181341 
L 330.799864 178.418244 
L 330.989222 178.733145 
L 331.056435 178.976553 
L 331.041423 179.218924 
L 330.858036 179.894543 
L 330.643089 180.232007 
L 330.080305 180.889631 
L 329.615611 181.239345 
L 329.118106 181.707475 
L 328.752924 182.21457 
L 328.466386 182.498881 
L 327.950741 182.897111 
L 327.534894 183.064873 
L 327.096642 183.135259 
L 326.813629 183.115881 
L 326.442249 182.991858 
L 326.219455 182.846726 
L 325.983639 182.512585 
L 325.848985 182.208965 
L 325.793542 181.837658 
L 325.858481 181.229863 
L 325.933542 180.905342 
L 326.074792 180.646638 
L 326.686025 180.130546 
L 325.929277 178.921532 
L 324.769873 179.056213 
L 324.449216 179.234842 
L 324.263782 179.484617 
L 323.899112 180.126324 
L 323.892459 180.286682 
L 323.961436 180.51085 
L 324.01756 181.46026 
L 324.091768 181.779799 
L 324.202255 182.019401 
L 324.206122 182.083834 
L 324.18222 182.173096 
L 323.908438 183.19554 
L 323.967065 183.948812 
L 324.281581 184.745063 
L 324.674285 185.366837 
L 324.938931 185.905699 
L 325.238434 186.24171 
L 325.647856 186.634333 
L 326.126766 187.245311 
L 326.317432 187.58056 
L 326.598341 188.439029 
L 326.610567 188.6306 
L 326.579519 188.821202 
L 326.445831 189.163995 
L 326.326701 189.345876 
L 325.783762 189.812207 
L 324.983626 190.237497 
L 324.463546 190.830688 
L 324.317462 191.071398 
L 324.177121 191.675801 
L 324.006813 191.951391 
L 323.951913 192.200364 
L 323.869372 192.574689 
L 323.813702 193.010983 
L 323.903263 193.995897 
L 324.066407 194.64058 
L 324.166488 194.807928 
L 324.554529 195.117846 
L 324.721368 195.289208 
L 325.098321 196.084559 
L 325.183845 196.50009 
L 325.145234 196.835824 
L 325.037647 197.162698 
L 324.881384 197.47317 
L 324.643066 197.830774 
L 324.339355 198.148997 
L 322.447654 199.521483 
L 322.189719 199.656856 
L 321.444457 199.765791 
L 321.253734 199.823235 
L 320.886505 199.995842 
L 319.911626 200.560865 
L 320.093364 200.827943 
L 319.442724 201.937088 
L 319.438516 202.438923 
L 319.778996 203.26085 
L 319.805745 203.325423 
L 319.978214 203.911832 
L 319.971561 204.261753 
L 319.893604 204.427692 
L 319.749393 204.734659 
L 319.297436 204.899238 
L 318.799647 204.898476 
L 318.350079 204.708844 
L 318.122509 204.514158 
L 317.944865 204.238291 
L 317.913192 203.746214 
L 318.034597 203.127623 
L 318.599315 202.138487 
L 318.66232 201.472764 
L 318.582199 201.232678 
L 318.508218 201.037578 
L 318.094532 201.052181 
L 317.545792 201.242575 
L 316.866777 201.384454 
L 316.137722 201.394558 
L 315.897641 201.356701 
L 315.187692 201.147758 
L 314.704858 201.099727 
L 314.358556 201.145613 
L 314.023739 201.318774 
L 313.814536 201.501832 
L 313.740783 201.629038 
L 313.662083 202.099799 
L 313.702627 202.556371 
L 313.738111 202.667659 
L 313.848086 202.836945 
L 314.771105 203.651744 
L 315.011584 204.078971 
L 315.126392 204.397956 
L 315.244897 204.868163 
L 315.229032 205.347851 
L 315.104329 205.644135 
L 314.55849 206.543231 
L 314.411212 206.710578 
L 313.848598 207.148257 
L 313.444805 207.188467 
L 312.005971 207.018282 
L 311.701236 207.013922 
L 311.138224 207.223418 
L 310.678193 207.334014 
L 310.475813 207.444749 
L 310.260355 207.624 
L 310.127008 207.790448 
L 310.024937 208.050259 
L 309.765352 209.253598 
L 309.594248 210.221833 
L 309.585889 210.63778 
L 309.621088 210.907903 
L 309.592656 211.124112 
L 309.470853 211.553001 
L 309.318855 211.96002 
L 309.149172 212.269315 
L 308.867353 212.070477 
L 308.643081 211.918563 
L 308.054196 211.880983 
L 307.368641 211.65197 
L 306.490658 211.033933 
L 306.278782 210.835095 
L 306.176882 210.671208 
L 305.937995 209.886446 
L 305.843885 209.708647 
L 305.778605 209.641999 
L 305.476429 209.542338 
L 304.864798 209.500951 
L 304.531403 209.638608 
L 304.275742 209.937799 
L 304.111234 210.181415 
L 304.0687 210.360528 
L 304.078025 210.849767 
L 304.178561 211.402817 
L 304.322996 211.695295 
L 305.268761 212.934691 
L 305.51032 213.143634 
L 306.643566 213.775582 
L 306.870284 213.968398 
L 307.165011 213.803404 
L 307.462183 213.715578 
L 307.669453 213.882579 
L 307.907088 213.900227 
L 308.196242 213.836763 
L 308.507801 213.670246 
L 308.706086 213.629274 
L 309.188977 213.68651 
L 309.695239 213.842161 
L 310.253474 213.774336 
L 310.925381 213.896213 
L 311.164097 214.052349 
L 311.298183 214.213606 
L 311.373869 214.390712 
L 311.460359 214.973315 
L 311.423455 215.3876 
L 311.248825 215.773164 
L 310.964845 216.19008 
L 310.583002 216.593223 
L 310.40587 216.734617 
L 310.145603 216.886739 
L 309.814995 217.020797 
L 309.185565 217.089452 
L 308.82715 217.046058 
L 308.195446 216.835385 
L 308.007794 216.725274 
L 307.498519 216.311127 
L 307.143857 216.077753 
L 306.50061 215.423658 
L 305.977914 215.189801 
L 305.612107 215.108411 
L 304.016839 216.26794 
L 303.093593 216.977749 
L 302.808305 217.541664 
L 302.85664 217.904666 
L 302.998402 218.249327 
L 303.053579 218.329049 
L 303.422609 218.862243 
L 303.547198 218.993394 
L 304.971646 220.060322 
L 305.135301 220.122887 
L 305.381466 220.143511 
L 306.117061 220.011253 
L 306.549456 219.794767 
L 306.858854 219.793729 
L 307.169162 219.876433 
L 307.380469 220.017758 
L 307.511598 220.132784 
L 307.777893 220.565964 
L 307.861028 220.836779 
L 307.857218 220.990631 
L 307.776926 221.278125 
L 307.629022 221.577178 
L 307.198333 222.140402 
L 306.957456 222.509909 
L 306.872956 222.728679 
L 306.828033 222.935199 
L 306.803525 223.354398 
L 306.898147 223.805434 
L 306.921063 224.134247 
L 306.897067 224.313429 
L 306.809325 224.50147 
L 306.612348 224.704114 
L 306.211626 224.916171 
L 305.348712 225.04843 
L 304.929339 224.956312 
L 304.831077 224.961365 
L 304.196985 225.229965 
L 303.755378 225.313847 
L 303.320424 225.329626 
L 302.857265 225.16131 
L 302.159542 225.06677 
L 301.807439 225.086495 
L 301.476262 225.14643 
L 301.180227 225.245468 
L 301.635311 226.555735 
L 301.77497 226.801565 
L 302.146975 227.124703 
L 302.681441 227.951059 
L 302.699979 228.213639 
L 302.557932 228.799355 
L 302.474513 228.953484 
L 302.33548 229.101384 
L 302.15215 229.202152 
L 301.81051 229.296623 
L 301.441177 229.318562 
L 301.197002 229.276552 
L 300.787409 229.115641 
L 300.488759 228.886559 
L 300.325104 228.576917 
L 300.21166 228.154119 
L 299.720979 226.944067 
L 299.420736 226.344993 
L 298.574881 226.886762 
L 298.243705 227.303816 
L 298.0639 227.47587 
L 297.744551 227.595809 
L 296.954309 227.595463 
L 296.446001 227.637681 
L 296.208593 227.699069 
L 295.988187 227.801845 
L 295.76454 227.956596 
L 295.495345 228.270113 
L 295.427222 228.455732 
L 295.391 228.658653 
L 295.389237 228.915903 
L 295.451276 229.23911 
L 295.561478 229.451167 
L 295.712908 229.595883 
L 296.002356 229.729209 
L 296.03129 229.742537 
L 297.837922 230.203054 
L 298.450008 230.455529 
L 299.352101 230.914455 
L 299.756007 231.250188 
L 299.908176 231.452555 
L 299.923984 231.615128 
L 299.879004 231.71555 
L 299.500858 232.163264 
L 298.99471 232.931692 
L 298.409464 233.585649 
L 297.3498 234.658113 
L 297.01214 235.04084 
L 296.464197 235.787675 
L 296.355302 236.08652 
L 296.34319 236.428897 
L 296.446456 236.976341 
L 296.655943 237.605867 
L 296.800037 237.835434 
L 297.271157 238.402326 
L 297.491392 238.731346 
L 297.669945 239.108674 
L 297.830871 239.341493 
L 298.08113 239.515208 
L 299.063458 239.992889 
L 299.352044 240.097118 
L 300.053236 240.22557 
L 300.488816 240.436104 
L 300.9642 240.917246 
L 301.103404 241.234293 
L 301.150772 241.475556 
L 301.095158 241.749209 
L 300.994168 242.011165 
L 300.84507 242.231942 
L 300.488873 242.538954 
L 299.768745 242.849703 
L 299.170818 242.966251 
L 298.971964 242.921196 
L 297.430717 241.878976 
L 297.053253 241.952407 
L 295.632445 242.037534 
L 295.434216 242.079682 
L 294.392351 242.438324 
L 294.154886 242.165017 
L 293.794254 241.856483 
L 293.474108 241.643319 
L 293.203662 241.550509 
L 292.97831 241.552378 
L 292.883403 241.594319 
L 292.684549 241.794402 
L 292.541365 241.988603 
L 292.419619 242.216785 
L 292.243227 242.66526 
L 292.260286 242.896696 
L 292.327272 243.028262 
L 292.459765 243.115466 
L 292.490927 243.191596 
L 292.445606 243.453068 
L 292.27399 243.754127 
L 292.27581 243.911163 
L 292.347004 244.063215 
L 292.162991 244.799461 
L 292.157589 245.079551 
L 292.204559 245.323997 
L 292.264835 245.47079 
L 292.96961 246.339848 
L 293.356911 246.718145 
L 293.800111 246.956086 
L 294.3737 247.001972 
L 294.745876 246.979271 
L 295.384347 246.816146 
L 296.207967 246.328983 
L 296.611646 246.185443 
L 296.869696 246.22593 
L 297.089248 246.300399 
L 297.335413 246.461656 
L 297.834908 246.888884 
L 298.148628 247.330438 
L 298.275776 247.561458 
L 298.382396 247.816701 
L 298.440966 248.079281 
L 298.59757 248.102812 
L 298.766116 248.172505 
L 298.770096 248.597726 
L 298.705953 248.838574 
L 298.52939 249.193201 
L 298.400024 249.310995 
L 297.85572 249.521668 
L 297.621952 249.536063 
L 297.129565 249.651227 
L 296.678746 249.908062 
L 296.030665 250.212997 
L 295.711145 250.279507 
L 295.479367 250.275009 
L 295.147394 250.208291 
L 294.752756 250.056031 
L 293.076969 249.089111 
L 292.90831 248.932145 
L 292.295769 248.045853 
L 291.347388 246.834694 
L 291.25652 246.852411 
L 291.064205 246.970551 
L 290.502159 247.110146 
L 289.684282 247.197072 
L 289.081579 247.219565 
L 288.816307 247.269119 
L 288.435317 247.446986 
L 287.95237 247.815594 
L 287.684597 248.173682 
L 287.538001 248.497304 
L 287.472152 248.88003 
L 287.516904 249.310303 
L 287.613062 249.494469 
L 287.814133 249.762377 
L 288.038917 249.990144 
L 288.480411 250.19618 
L 289.949155 250.536827 
L 290.355393 250.709504 
L 290.761574 250.94087 
L 291.157121 251.25148 
L 291.936899 251.961911 
L 292.578896 252.470944 
L 292.852981 252.896304 
L 292.934207 253.139922 
L 293.051266 253.491017 
L 293.077253 253.829104 
L 293.012258 254.284777 
L 292.963241 254.4551 
L 292.872656 254.628123 
L 292.623875 254.876791 
L 291.84313 255.442576 
L 291.542831 255.535939 
L 291.3537 255.537323 
L 290.488 255.425481 
L 290.360568 255.450465 
L 290.198618 255.525696 
L 289.75087 255.892158 
L 289.219588 256.180345 
L 288.942887 256.270524 
L 287.90142 256.449914 
L 287.750445 256.505074 
L 287.502063 256.692077 
L 287.367353 256.920124 
L 287.335507 256.974035 
L 287.271876 257.191282 
L 287.285638 257.514212 
L 287.42558 257.911541 
L 287.625117 258.316207 
L 288.024758 258.927738 
L 288.230948 259.131282 
L 289.840431 260.437327 
L 289.997092 260.657966 
L 290.094386 261.002973 
L 290.084776 261.263615 
L 289.938806 261.416844 
L 289.726248 261.651739 
L 289.370335 261.965741 
L 289.14521 262.335525 
L 288.800158 262.997995 
L 288.738062 263.222578 
L 288.63673 263.340372 
L 288.240216 263.605166 
L 287.973865 263.725244 
L 287.79497 263.744692 
L 287.32169 264.136692 
L 287.269033 264.354147 
L 287.221552 265.040701 
L 287.171056 265.160987 
L 287.07905 265.277881 
L 287.121528 265.391315 
L 288.134108 265.687045 
L 288.537787 265.749541 
L 288.734992 265.746081 
L 289.425834 265.572227 
L 289.862494 265.417614 
L 290.157733 265.266185 
L 290.413281 265.068385 
L 290.864384 264.446126 
L 290.725692 263.773898 
L 290.507562 263.122018 
L 290.430852 262.628003 
L 290.421526 262.124784 
L 290.515921 261.806422 
L 290.702151 261.396635 
L 290.975667 261.285 
L 291.168096 261.344243 
L 291.388558 261.525502 
L 291.549086 261.657414 
L 292.72407 262.46024 
L 293.380681 263.047202 
L 293.690135 263.920068 
L 293.78635 264.364598 
L 293.75678 264.689258 
L 293.608649 265.073576 
L 293.182793 265.577349 
L 293.071169 265.78643 
L 293.070657 265.880762 
L 292.995369 266.007899 
L 292.582251 266.223001 
L 292.25659 266.171024 
L 292.098166 266.207982 
L 291.204034 266.555066 
L 290.470884 266.913431 
L 290.295288 266.901527 
L 290.007612 266.733694 
L 289.578515 266.861593 
L 289.1588 266.820552 
L 288.975356 266.923604 
L 288.822278 267.103617 
L 288.627234 267.485098 
L 288.597778 267.653207 
L 288.608469 267.837095 
L 288.660727 267.949629 
L 288.851506 268.169991 
L 289.626622 268.805953 
L 290.43324 269.276091 
L 290.716082 269.401429 
L 291.038161 269.492854 
L 291.736851 269.547875 
L 292.480578 269.439701 
L 293.465181 268.951846 
L 294.025805 268.564414 
L 294.400767 268.152343 
L 294.849596 267.517972 
L 295.080806 266.878203 
L 295.073754 266.310965 
L 294.952122 265.892319 
L 294.948881 265.754455 
L 294.994827 265.486062 
L 295.133803 265.13531 
L 295.288076 264.882835 
L 295.576263 264.519003 
L 295.841478 264.338229 
L 296.070072 264.237184 
L 296.255392 264.225903 
L 296.649574 264.274834 
L 296.815731 264.366812 
L 297.092831 264.61029 
L 297.196021 264.890043 
L 297.21833 264.950522 
L 297.188135 266.101885 
L 296.953343 266.618669 
L 296.213426 267.67563 
L 295.328677 268.380525 
L 294.725689 268.9751 
L 294.424195 269.393746 
L 293.647942 270.593278 
L 293.380737 270.850044 
L 292.522998 271.448495 
L 292.431959 271.543727 
L 292.407735 271.618957 
L 292.478872 272.483794 
L 292.426272 272.728102 
L 292.343251 272.89718 
L 292.325395 273.044042 
L 292.450042 274.018506 
L 292.442081 275.041347 
L 292.530675 275.243507 
L 293.356229 276.375976 
L 293.356855 276.758218 
L 293.211851 277.18939 
L 293.7731 277.634474 
L 293.829111 277.730398 
L 293.993904 278.265523 
L 294.207941 278.751578 
L 294.459223 279.037481 
L 294.802797 279.291755 
L 294.860059 279.288433 
L 294.982999 279.049316 
L 295.107134 278.435362 
L 295.292454 278.135063 
L 295.357677 277.96294 
L 295.596791 276.832963 
L 295.73571 276.493493 
L 295.875027 276.307113 
L 296.029357 276.164819 
L 296.368438 275.986329 
L 296.68301 275.896703 
L 297.155267 275.916012 
L 297.51698 276.018857 
L 297.75689 276.200115 
L 297.927995 276.461795 
L 298.014258 276.764862 
L 297.99373 277.097135 
L 297.925151 277.4038 
L 297.785436 277.778567 
L 297.628548 278.386708 
L 297.41707 278.739467 
L 296.860597 279.344977 
L 296.762961 279.647698 
L 296.587877 279.650881 
L 296.453052 279.847435 
L 296.474774 280.040805 
L 296.281095 280.074095 
L 296.078089 280.02814 
L 295.989723 280.096311 
L 295.989723 280.277016 
L 295.966522 280.322971 
L 295.782111 280.433982 
L 295.605491 280.43239 
L 295.27983 280.489903 
L 295.382299 281.224835 
L 295.549821 282.033543 
L 295.697498 283.255291 
L 295.667758 284.57414 
L 295.629488 284.987872 
L 295.552735 285.478456 
L 295.514224 285.724603 
L 295.384972 286.106775 
L 295.195103 286.309489 
L 294.563 286.664393 
L 294.007438 286.786478 
L 293.00822 286.837208 
L 292.344331 286.789869 
L 291.94469 286.726889 
L 291.859905 286.650275 
L 291.793829 286.422507 
L 291.379687 285.99874 
L 291.30275 285.959637 
L 290.861768 285.900256 
L 290.051113 285.965866 
L 289.763608 286.095979 
L 289.510221 286.308935 
L 289.389555 286.447561 
L 289.020848 287.112661 
L 289.003277 287.380638 
L 289.038931 288.184225 
L 289.058094 288.284786 
L 289.11257 288.371643 
L 289.352195 288.5356 
L 290.211811 288.964488 
L 290.559422 289.42985 
L 290.626351 289.590554 
L 290.741899 289.694368 
L 291.060111 289.808147 
L 291.35933 289.84815 
L 291.97534 290.124502 
L 293.407407 291.334001 
L 293.603247 291.677347 
L 293.654538 291.90193 
L 293.649648 291.9982 
L 293.47553 292.54862 
L 293.349576 293.123125 
L 293.154418 293.44993 
L 292.679545 293.78338 
L 292.396078 293.88754 
L 291.979036 293.951143 
L 291.614991 294.140222 
L 291.262263 294.409861 
L 291.039412 294.987964 
L 291.051297 295.488 
L 285.424871 295.420313 
L 284.322844 295.425643 
L 282.752369 295.407994 
L 282.155864 295.402527 
L 282.011941 295.400935 
L 281.934662 295.400104 
L 281.742973 295.39699 
L 281.558506 295.389515 
L 279.113062 295.371175 
L 276.301129 295.355811 
L 275.714518 295.350066 
L 274.714448 295.367784 
L 274.314633 295.363177 
L 272.678313 295.344322 
L 272.056105 295.302658 
L 268.679738 295.298782 
L 267.950057 295.294076 
L 267.534209 295.324251 
L 267.52494 295.321068 
L 265.864563 295.318438 
L 265.374735 295.307295 
L 264.85983 295.312693 
L 264.804731 295.31212 
L 258.66954 295.248329 
L 257.558585 295.287017 
L 250.731472 295.237325 
L 246.473881 295.25172 
L 246.362598 295.258087 
L 239.701131 295.207219 
L 230.959971 295.143754 
L 226.988634 295.072953 
L 224.530453 295.055928 
L 222.996712 295.036618 
L 222.574496 295.030459 
L 216.918103 294.940971 
L 215.120001 294.93059 
L 214.983925 294.930521 
L 213.505124 294.911908 
L 203.18387 294.781998 
L 202.922579 294.7757 
L 202.486488 294.780545 
L 202.418829 294.77923 
L 202.404547 294.778953 
L 201.93809 294.77923 
L 198.336541 294.745386 
L 196.38809 294.688289 
L 195.633218 294.662474 
L 195.621106 294.659982 
L 195.059231 294.655691 
L 194.300493 294.660536 
L 189.805778 294.608975 
L 188.407829 294.58233 
L 187.40868 294.575 
L 182.747058 294.540804 
L 182.605978 294.533468 
L 182.136223 294.531392 
L 181.024358 294.541219 
L 180.998087 294.544403 
L 179.95822 294.541628 
L 177.989517 294.536375 
L 175.541458 294.5298 
L 174.50363 294.49921 
L 173.19837 294.526962 
L 169.242102 294.515612 
L 169.229762 294.51402 
L 167.412668 294.503085 
L 165.321147 294.510214 
L 160.208603 294.484122 
L 160.205455 294.484151 
L 158.931206 294.495749 
L 158.873547 294.4958 
L 158.852335 294.495818 
L 157.141975 294.483776 
L 157.140667 294.483767 
L 156.917646 294.482323 
L 156.543309 294.481907 
L 145.638239 294.425571 
L 140.995654 294.430833 
L 140.447678 294.431454 
L 128.510637 294.442873 
L 128.311158 294.44758 
L 127.864433 294.447164 
L 127.545709 294.444188 
L 127.459276 294.442043 
L 127.455182 290.271087 
L 127.464621 289.35462 
L 127.456831 286.505766 
L 127.45285 286.210105 
L 127.446709 285.842327 
L 127.473208 284.678576 
L 127.464337 281.945232 
L 127.46337 281.745841 
L 127.46428 280.877059 
L 127.472582 279.03582 
L 127.457001 278.461038 
L 127.454385 277.715241 
L 127.457797 277.000796 
L 127.457796 276.999677 
L 127.455816 275.144189 
L 127.453419 272.898703 
L 127.453419 271.732322 
L 127.453419 271.403855 
L 127.44995 270.942923 
L 127.464678 270.08383 
L 127.454215 269.630787 
L 127.456032 269.064573 
L 127.463654 266.688778 
L 127.457911 265.941389 
L 127.457911 265.609185 
L 127.446538 263.221471 
L 127.441364 261.788427 
L 127.443271 261.771152 
L 127.456717 261.649386 
L 127.435905 258.239039 
L 127.432891 257.608544 
L 127.43164 257.551238 
L 127.284362 257.615741 
L 127.047124 257.632213 
L 126.712536 256.513171 
L 125.770069 256.168371 
L 124.03537 256.298761 
L 122.857031 257.561827 
L 121.769447 255.788344 
L 120.675267 255.014517 
L 119.473783 254.785712 
L 117.88534 256.061789 
L 117.028795 257.50563 
L 115.675143 257.238967 
L 116.319357 255.857761 
L 115.535314 255.205673 
L 114.500557 256.684048 
L 113.946017 255.983306 
L 112.934574 255.892642 
L 112.298264 257.59138 
L 111.103662 257.520856 
L 110.658302 256.524937 
L 109.849068 256.972789 
L 109.489857 258.175712 
L 107.57905 257.62813 
L 107.836133 256.633664 
L 108.421379 256.004 
L 107.956969 255.500227 
L 106.073059 255.823502 
L 105.097384 254.648194 
L 103.845405 254.366443 
L 104.181302 252.944404 
L 103.790475 251.122197 
L 102.532923 251.560083 
L 102.273509 251.62597 
L 102.290455 250.557174 
L 102.293241 249.859685 
L 102.35056 248.162609 
L 102.345101 247.907711 
L 102.389228 246.541524 
L 102.387294 246.167725 
L 102.444386 243.826312 
L 102.444841 243.811363 
L 102.449674 243.613564 
L 102.455076 243.430298 
L 102.502842 241.165638 
L 102.519845 240.701175 
L 102.530194 240.221556 
L 102.530535 240.205084 
L 102.574946 238.317129 
L 102.610202 236.852388 
L 102.664791 234.78532 
L 102.673435 234.765387 
L 102.756172 230.870715 
L 102.760089 230.651085 
L 102.776018 229.757901 
L 102.780624 229.513801 
L 102.897878 225.202766 
L 102.897824 225.060691 
L 102.897821 225.051682 
L 102.897821 225.048983 
L 103.159605 213.422754 
L 103.412385 202.196415 
L 103.436381 201.679077 
L 103.507405 198.691666 
L 103.527876 197.87832 
L 103.536121 197.52397 
L 103.679533 191.442428 
L 103.741571 188.825839 
L 103.741913 188.645549 
L 103.88703 182.619098 
L 103.885324 182.064318 
L 103.984003 178.56757 
L 104.053293 176.112237 
L 104.245921 169.2863 
L 104.300262 167.360705 
L 104.30555 167.13363 
L 104.309815 166.950849 
L 104.334551 165.987597 
L 104.367077 164.92849 
L 104.365485 164.679614 
L 104.355989 164.560782 
L 104.433561 161.925845 
L 104.523798 158.860719 
L 104.695532 153.027384 
L 104.812096 149.067979 
L 104.839277 148.439421 
L 104.89822 146.042294 
L 104.907742 145.65507 
L 104.910073 145.463361 
L 104.946978 144.399202 
L 104.935833 143.955917 
L 104.934241 143.699152 
L 104.969155 142.91785 
L 104.981836 142.751402 
L 105.019878 141.371096 
L 105.008733 140.794238 
L 105.019878 140.591386 
L 105.075775 140.045188 
L 105.1203 138.57754 
L 105.121379 138.54079 
L 105.126328 138.372196 
L 105.148505 138.259662 
L 105.150552 137.45739 
L 105.156807 137.179931 
L 105.216799 136.141864 
L 105.347586 132.238609 
L 105.336213 131.927168 
L 105.364645 131.774908 
L 105.256603 131.311207 
L 105.298114 130.998728 
L 105.237985 130.606928 
L 105.228171 130.542986 
L 105.326753 130.236408 
L 105.372278 130.094829 
L 105.381705 130.065512 
L 105.034466 127.723169 
L 104.335146 123.005825 
L 104.330798 122.976493 
L 103.937268 119.954721 
L 103.556194 117.028594 
L 103.511897 116.709886 
L 103.491426 116.596106 
L 103.445082 116.241202 
L 103.025708 113.160082 
L 102.176271 107.097987 
L 102.140731 106.883924 
L 101.872227 104.812783 
L 101.847767 104.624108 
L 101.780269 104.180409 
L 101.524608 102.439315 
L 101.490376 102.200544 
L 101.440392 101.803837 
L 101.426858 101.722309 
L 101.404227 101.541673 
L 101.299085 100.795599 
L 101.21794 100.161713 
L 101.149475 99.659324 
L 101.036372 98.809921 
L 100.471142 94.936633 
L 100.181874 92.695366 
L 100.181874 92.65737 
L 100.183239 92.650933 
L 100.167545 92.56546 
L 100.086001 92.017116 
L 100.06917 91.901053 
L 99.868894 90.521162 
L 99.860762 90.494239 
L 99.646612 88.985619 
L 99.557051 88.36606 
L 99.488473 87.959525 
L 99.438887 87.604552 
L 98.757029 82.797011 
L 98.748158 82.72711 
L 98.502885 81.069259 
L 97.992206 77.617471 
L 97.899062 76.950364 
L 97.897658 76.940364 
L 97.736886 75.795264 
L 97.683831 75.426034 
L 97.41856 73.548598 
L 97.417756 73.543561 
L 97.387114 73.35156 
L 97.239893 72.227051 
L 97.212314 72.037072 
L 97.201453 71.971946 
L 97.148455 71.529838 
L 97.040641 70.873874 
L 97.04155 70.837055 
L 96.65215 67.994175 
L 96.568611 67.384282 
L 96.277577 65.131463 
L 96.15936 64.216374 
L 95.799637 61.320319 
L 95.671067 60.314503 
L 95.634731 60.095595 
L 95.476364 58.942156 
L 95.123749 56.202929 
L 94.997454 55.184171 
L 94.913238 54.579007 
L 94.764937 53.580873 
" clip-path="url(#pb8627b8c4f)" style="fill: #33a1ff"/>
   </g>
   <g id="text_1">
    <!-- AR -->
    <g transform="translate(227.886563 35.472) scale(0.12 -0.12)">
     <defs>
      <path id="DejaVuSans-41" d="M 2188 4044 
L 1331 1722 
L 3047 1722 
L 2188 4044 
z
M 1831 4666 
L 2547 4666 
L 4325 0 
L 3669 0 
L 3244 1197 
L 1141 1197 
L 716 0 
L 50 0 
L 1831 4666 
z
" transform="scale(0.015625)"/>
      <path id="DejaVuSans-52" d="M 2841 2188 
Q 3044 2119 3236 1894 
Q 3428 1669 3622 1275 
L 4263 0 
L 3584 0 
L 2988 1197 
Q 2756 1666 2539 1819 
Q 2322 1972 1947 1972 
L 1259 1972 
L 1259 0 
L 628 0 
L 628 4666 
L 2053 4666 
Q 2853 4666 3247 4331 
Q 3641 3997 3641 3322 
Q 3641 2881 3436 2590 
Q 3231 2300 2841 2188 
z
M 1259 4147 
L 1259 2491 
L 2053 2491 
Q 2509 2491 2742 2702 
Q 2975 2913 2975 3322 
Q 2975 3731 2742 3939 
Q 2509 4147 2053 4147 
L 1259 4147 
z
" transform="scale(0.015625)"/>
     </defs>
     <use xlink:href="#DejaVuSans-41"/>
     <use xlink:href="#DejaVuSans-52" x="68.408203"/>
    </g>
   </g>
  </g>
 </g>
 <defs>
  <clipPath id="pb8627b8c4f">
   <rect x="80.62543" y="41.472" width="311.06914" height="266.112"/>
  </clipPath>
 </defs>
</svg>
