<?xml version="1.0" encoding="utf-8" standalone="no"?>
<!DOCTYPE svg PUBLIC "-//W3C//DTD SVG 1.1//EN"
  "http://www.w3.org/Graphics/SVG/1.1/DTD/svg11.dtd">
<svg xmlns:xlink="http://www.w3.org/1999/xlink" width="360pt" height="360pt" viewBox="0 0 360 360" xmlns="http://www.w3.org/2000/svg" version="1.1">
 <metadata>
  <rdf:RDF xmlns:dc="http://purl.org/dc/elements/1.1/" xmlns:cc="http://creativecommons.org/ns#" xmlns:rdf="http://www.w3.org/1999/02/22-rdf-syntax-ns#">
   <cc:Work>
    <dc:type rdf:resource="http://purl.org/dc/dcmitype/StillImage"/>
    <dc:date>2023-06-19T15:20:27.618441</dc:date>
    <dc:format>image/svg+xml</dc:format>
    <dc:creator>
     <cc:Agent>
      <dc:title>Matplotlib v3.7.1, https://matplotlib.org/</dc:title>
     </cc:Agent>
    </dc:creator>
   </cc:Work>
  </rdf:RDF>
 </metadata>
 <defs>
  <style type="text/css">*{stroke-linejoin: round; stroke-linecap: butt}</style>
 </defs>
 <g id="figure_1">
  <g id="patch_1">
   <path d="M 0 360 
L 360 360 
L 360 0 
L 0 0 
z
" style="fill: #ffffff"/>
  </g>
  <g id="axes_1">
   <g id="PatchCollection_1">
    <path d="M 58.319409 251.028257 
L 57.892502 249.995151 
L 58.412528 249.667211 
L 59.086522 249.419377 
L 59.846469 248.576291 
L 61.363153 246.4021 
L 61.381267 246.36552 
L 61.379288 246.162267 
L 61.701996 245.776556 
L 61.838862 245.526303 
L 61.925386 245.399199 
L 62.00791 245.130832 
L 62.06357 245.015114 
L 62.450688 244.523094 
L 62.617714 244.348682 
L 62.669373 244.345649 
L 62.755238 244.379546 
L 63.195379 244.694824 
L 63.393268 244.700892 
L 63.641499 244.741472 
L 63.70925 244.758882 
L 64.131232 244.846462 
L 64.511667 244.863872 
L 64.537168 244.865235 
L 65.661546 244.995066 
L 66.290827 245.109421 
L 66.4097 245.100851 
L 66.413403 245.100584 
L 66.406896 245.057453 
L 66.449147 244.852485 
L 69.776426 243.84743 
L 70.314434 243.841055 
L 70.244661 243.393396 
L 70.095705 243.086164 
L 70.069282 242.969259 
L 70.099442 242.723931 
L 70.102828 242.342221 
L 70.143012 242.241099 
L 70.226811 242.117028 
L 70.526569 241.88102 
L 70.598936 241.797398 
L 70.626503 241.705114 
L 70.818589 241.45174 
L 71.045979 241.232878 
L 71.63468 240.982186 
L 71.658553 240.973085 
L 71.753871 240.93079 
L 72.555102 240.253455 
L 72.859388 239.969393 
L 73.00997 238.665634 
L 73.00254 238.472976 
L 73.00254 238.462908 
L 73.116323 237.475263 
L 73.125029 237.208831 
L 73.093329 237.044487 
L 73.058245 236.980869 
L 72.650903 236.652665 
L 72.522215 236.519273 
L 72.418236 236.314261 
L 72.334042 236.008216 
L 72.341956 235.930177 
L 72.442373 235.775066 
L 72.636438 235.573044 
L 72.777524 235.389135 
L 72.853145 235.24229 
L 72.913949 235.081815 
L 72.934086 234.890477 
L 72.916851 234.618505 
L 72.856398 234.379595 
L 72.770709 234.301996 
L 72.543495 234.253282 
L 72.356157 234.319362 
L 72.316676 234.389751 
L 71.995286 234.482871 
L 71.929162 234.485553 
L 71.805662 234.402194 
L 71.74965 234.293115 
L 71.683702 234.037498 
L 71.613225 233.536378 
L 71.504102 232.98984 
L 71.368951 232.671177 
L 71.225667 232.41367 
L 70.996474 232.130311 
L 70.840088 231.99538 
L 70.770452 231.949311 
L 70.610148 231.843259 
L 70.458554 231.800305 
L 69.804301 231.692105 
L 69.156686 231.667836 
L 68.344904 231.551327 
L 68.190672 231.554932 
L 68.053235 231.60624 
L 67.916194 231.730663 
L 67.768426 231.920331 
L 67.670954 231.976871 
L 67.548026 232.008394 
L 67.054027 232.044358 
L 66.272581 231.965572 
L 65.964865 231.867352 
L 65.854687 231.796304 
L 65.595422 231.445765 
L 65.359634 231.170276 
L 65.268669 231.099711 
L 65.077066 231.011472 
L 64.944246 231.105559 
L 64.678825 231.530091 
L 64.556205 231.674387 
L 64.468053 231.725387 
L 64.358799 231.725123 
L 64.238201 231.670738 
L 63.985706 231.491534 
L 63.86014 231.319496 
L 63.79661 231.071749 
L 63.832134 230.647964 
L 63.273989 230.041325 
L 63.180387 229.81477 
L 63.172165 229.680367 
L 63.203381 229.518134 
L 63.184783 229.466826 
L 63.029672 229.389886 
L 62.938224 229.370541 
L 62.65082 229.364298 
L 62.494082 229.334269 
L 62.416791 229.285511 
L 62.358272 229.156164 
L 62.354887 228.877862 
L 62.430552 228.530401 
L 62.540158 228.159594 
L 62.841455 227.392833 
L 63.141917 227.099406 
L 63.27034 226.909782 
L 63.383992 226.649285 
L 63.482299 226.337436 
L 63.609536 226.148164 
L 63.637234 225.997406 
L 63.57045 225.699802 
L 63.623824 225.47905 
L 63.764647 225.180875 
L 63.785354 225.006375 
L 63.792829 224.888108 
L 63.661459 224.386679 
L 63.636355 224.216795 
L 63.754051 223.892021 
L 63.857678 223.52227 
L 63.861591 223.351859 
L 63.824088 223.247088 
L 63.66502 223.036229 
L 63.461283 222.833195 
L 63.167153 222.378942 
L 63.161877 222.32715 
L 63.220615 222.259531 
L 63.823561 221.924029 
L 63.92921 221.796441 
L 63.915449 221.709784 
L 63.711844 221.283317 
L 63.559063 221.133526 
L 63.389531 221.025898 
L 62.946093 220.860543 
L 62.575726 220.766896 
L 62.209756 220.704201 
L 61.916153 220.624403 
L 61.749303 220.544166 
L 61.679442 220.495936 
L 61.329299 219.864808 
L 61.329343 219.794243 
L 61.38729 219.719238 
L 61.663439 219.439396 
L 62.227562 219.06582 
L 62.351985 218.9421 
L 62.471616 218.751026 
L 62.6608 218.344475 
L 62.788432 217.666172 
L 62.782497 217.484462 
L 62.743675 217.283407 
L 62.37898 216.602818 
L 62.393884 216.426692 
L 62.380651 216.342805 
L 62.332376 216.27224 
L 62.104019 216.091541 
L 61.696457 215.628934 
L 61.59006 215.472285 
L 61.579376 215.396927 
L 61.590499 215.353313 
L 61.654382 215.288112 
L 61.819868 215.228319 
L 62.223781 215.256325 
L 62.625891 215.206468 
L 62.802853 215.09418 
L 62.84251 215.043839 
L 62.855744 214.957139 
L 62.893071 214.910183 
L 63.231694 214.786332 
L 63.8495 214.770724 
L 64.531804 215.002116 
L 64.775989 215.007128 
L 64.920548 214.975868 
L 65.194806 214.839047 
L 65.551764 214.576088 
L 65.795465 214.338146 
L 65.906039 214.100028 
L 66.118921 213.484332 
L 66.070031 213.179562 
L 66.091003 213.088509 
L 66.550268 212.463889 
L 66.753785 212.285124 
L 67.024043 211.996709 
L 67.111226 211.868286 
L 67.218063 211.589631 
L 67.469943 211.203173 
L 67.615689 211.070836 
L 67.957346 210.894446 
L 68.2524 210.847051 
L 68.438111 210.773364 
L 68.814897 210.442742 
L 68.832967 210.375343 
L 68.820524 210.108823 
L 68.878911 209.827882 
L 68.905686 209.77974 
L 69.648134 209.310978 
L 70.413665 208.882312 
L 70.42281 208.818474 
L 70.315402 208.652152 
L 69.927185 208.154372 
L 69.913951 208.138281 
L 69.72336 207.63439 
L 69.709423 207.159693 
L 70.211994 206.489744 
L 70.317688 206.393854 
L 70.404256 206.283061 
L 70.412786 206.155165 
L 70.36161 206.052813 
L 70.266863 205.953846 
L 70.191067 205.779962 
L 70.182537 205.575345 
L 70.242243 205.455934 
L 70.310433 205.328038 
L 70.310433 205.131907 
L 70.267787 204.961364 
L 70.216655 204.841998 
L 70.174008 204.688513 
L 70.165479 204.577676 
L 70.250772 204.44978 
L 70.310433 204.338898 
L 70.36161 204.270708 
L 70.387198 204.228061 
L 70.395727 204.15987 
L 70.387198 204.074577 
L 70.35308 204.014871 
L 70.310433 203.95521 
L 70.250772 203.878446 
L 70.189132 203.791086 
L 70.132285 203.656067 
L 70.109247 203.479941 
L 70.160906 203.298055 
L 70.273722 203.146857 
L 70.441803 203.006386 
L 70.654861 202.892339 
L 70.949607 202.76884 
L 71.275656 202.692339 
L 71.64954 202.521797 
L 71.683394 202.453518 
L 71.75031 202.037251 
L 71.719358 201.751122 
L 71.646199 201.543384 
L 71.460532 201.409333 
L 71.378184 201.304694 
L 71.311576 201.15209 
L 71.196254 201.043802 
L 71.043869 200.972226 
L 70.952289 200.881305 
L 71.134394 200.557146 
L 71.231383 200.348001 
L 71.298079 200.143385 
L 71.304366 199.906718 
L 71.281372 199.727162 
L 71.183504 199.398958 
L 70.759455 198.501398 
L 70.61173 198.012148 
L 70.261939 197.33112 
L 70.301025 197.27713 
L 70.49654 197.154554 
L 70.583636 197.02037 
L 70.617182 196.873085 
L 70.595419 196.7677 
L 70.465984 196.435979 
L 70.372337 196.291287 
L 70.193924 195.875856 
L 70.203245 195.713534 
L 70.244309 195.573987 
L 70.318171 195.467239 
L 70.416699 195.417997 
L 70.75607 195.433693 
L 70.850068 195.410919 
L 71.247298 195.16304 
L 71.324282 195.098059 
L 71.362532 194.9994 
L 71.345913 194.690761 
L 71.304366 194.608809 
L 70.947057 194.344927 
L 70.769699 194.211183 
L 70.712236 194.112656 
L 70.679394 194.038794 
L 70.662994 193.95671 
L 70.671216 193.891025 
L 70.712236 193.817119 
L 70.777921 193.759655 
L 70.892187 193.682144 
L 71.014016 193.632023 
L 71.112324 193.564272 
L 71.143979 193.5127 
L 71.146969 193.425033 
L 71.118918 193.324307 
L 70.989088 193.104743 
L 70.684713 192.822219 
L 70.380163 192.613206 
L 70.247211 192.551566 
L 70.014457 192.446137 
L 69.956949 192.339432 
L 69.935362 192.068955 
L 70.234241 191.490103 
L 70.527844 191.146907 
L 70.797881 191.03774 
L 71.001398 191.084607 
L 71.074513 191.074759 
L 71.500321 190.875814 
L 71.712939 190.653963 
L 72.164159 190.272165 
L 72.238329 190.174298 
L 72.271919 190.067197 
L 72.31052 190.019714 
L 72.554442 189.880651 
L 72.764114 189.721671 
L 72.905068 189.509009 
L 72.981788 189.483157 
L 73.149298 189.469264 
L 73.202364 189.429431 
L 73.242197 189.343171 
L 73.235558 189.230355 
L 73.129381 188.998128 
L 73.116104 188.905228 
L 73.129381 188.825606 
L 73.202364 188.752623 
L 73.301903 188.719473 
L 73.482118 188.713626 
L 73.684404 188.643017 
L 73.965125 188.484653 
L 74.109376 188.346029 
L 74.209354 188.201821 
L 74.301462 187.961153 
L 74.355189 187.534642 
L 74.330788 187.322244 
L 74.194582 186.988544 
L 74.159233 186.830048 
L 74.162135 186.650536 
L 74.234986 186.033082 
L 74.334085 185.690589 
L 74.388954 185.354164 
L 74.424171 185.308703 
L 74.659563 185.116398 
L 74.741251 184.929324 
L 74.990493 184.646888 
L 75.192339 184.463551 
L 75.378182 184.358253 
L 75.630545 184.291909 
L 75.832304 184.286985 
L 76.306561 184.355923 
L 76.804737 184.09635 
L 77.241624 184.029126 
L 77.363672 183.98261 
L 77.632698 183.762694 
L 77.809836 183.461441 
L 77.956769 183.343086 
L 78.175675 183.284303 
L 78.700625 183.302901 
L 79.207813 183.183138 
L 79.374839 183.100659 
L 79.751669 182.830666 
L 80.604603 181.865663 
L 80.846942 181.698417 
L 81.375717 181.627149 
L 81.683477 181.712442 
L 82.304536 181.553243 
L 82.741995 181.298505 
L 82.894951 181.139921 
L 83.378442 180.977424 
L 83.496314 180.892219 
L 83.588334 180.671071 
L 83.547886 180.324709 
L 83.577211 180.242582 
L 83.656789 180.176897 
L 84.005436 180.008948 
L 84.167802 179.895385 
L 84.322033 179.721017 
L 85.086025 179.046012 
L 85.649929 178.64544 
L 85.72234 178.577601 
L 85.742345 178.52559 
L 85.813833 178.403673 
L 85.866724 178.326381 
L 86.15615 178.21994 
L 86.246719 178.13113 
L 86.273494 178.057179 
L 86.306249 177.97637 
L 86.363228 177.89499 
L 86.456831 177.842055 
L 86.58187 177.834449 
L 86.736057 177.839989 
L 87.008073 177.783933 
L 87.112711 177.781339 
L 87.364371 177.785076 
L 87.490552 177.707784 
L 87.55971 177.610092 
L 87.567844 177.483955 
L 87.552852 177.370611 
L 87.469185 177.132669 
L 87.452742 177.016556 
L 87.496488 176.848826 
L 87.394707 176.508928 
L 87.343311 176.188858 
L 87.403412 175.964984 
L 87.398356 175.864127 
L 87.281935 175.745903 
L 86.56635 175.220821 
L 86.056304 174.26892 
L 85.87877 174.028604 
L 85.700094 173.838364 
L 85.513855 173.711743 
L 85.319923 173.615018 
L 85.076441 173.538562 
L 84.707656 173.30783 
L 84.079299 173.260039 
L 83.53707 173.108094 
L 83.379717 172.976549 
L 83.177958 172.635639 
L 82.694951 172.24008 
L 82.545996 172.132188 
L 82.366176 172.044828 
L 81.857141 171.551137 
L 81.716275 171.500269 
L 81.162879 171.471208 
L 80.868573 171.374791 
L 80.786753 171.318383 
L 80.718342 171.245048 
L 80.650987 171.121373 
L 80.630103 170.835508 
L 80.515353 170.669186 
L 80.243645 170.43098 
L 79.74969 170.170747 
L 79.450592 170.034233 
L 79.13949 169.971802 
L 78.93993 169.618142 
L 78.837842 169.49561 
L 78.73316 169.409613 
L 78.546086 169.348193 
L 78.414716 169.347885 
L 77.825136 169.422539 
L 77.500713 169.509195 
L 77.047207 169.545906 
L 76.956198 169.508096 
L 76.821532 169.394752 
L 76.476533 169.063471 
L 76.445405 168.949995 
L 76.455078 168.882772 
L 76.61608 168.514164 
L 76.696273 168.266417 
L 76.702692 168.185388 
L 76.637491 167.700886 
L 76.667388 167.399546 
L 76.709419 167.246325 
L 76.853539 166.892577 
L 76.849186 166.486642 
L 76.734216 165.906163 
L 76.348856 165.323266 
L 75.661893 164.151361 
L 74.907705 163.664485 
L 74.583898 163.179851 
L 74.583898 162.999064 
L 74.568818 162.953867 
L 74.682601 162.850416 
L 74.777743 162.779412 
L 74.822236 162.713639 
L 74.827688 162.356857 
L 74.632216 162.172729 
L 74.188559 161.873147 
L 74.071654 161.489942 
L 74.06607 161.430237 
L 74.120192 161.135183 
L 74.068708 160.94657 
L 73.945121 160.77018 
L 73.71329 160.555583 
L 73.616389 160.428171 
L 73.606805 160.303088 
L 73.577919 160.197263 
L 73.614982 160.007419 
L 73.616389 159.956727 
L 73.606805 159.879743 
L 73.577919 159.802759 
L 73.504189 159.684579 
L 73.47759 159.602891 
L 73.452837 159.485239 
L 73.404738 159.389042 
L 73.158047 159.044175 
L 73.02316 158.806672 
L 72.898122 158.34134 
L 72.87482 158.08691 
L 72.793176 157.92006 
L 72.742923 157.849803 
L 72.652266 157.805925 
L 72.49333 157.781744 
L 72.288582 157.714829 
L 72.076931 157.580118 
L 71.892143 157.327403 
L 71.846155 157.289856 
L 71.677283 157.190758 
L 71.347408 157.046067 
L 71.042682 156.943407 
L 70.764511 156.804343 
L 70.569787 156.609663 
L 70.500717 156.497243 
L 70.369172 156.353255 
L 70.193133 156.185438 
L 69.723096 155.909026 
L 69.43389 155.702695 
L 69.178977 155.479833 
L 68.916457 155.172909 
L 68.373174 154.274162 
L 68.2167 153.770667 
L 68.133912 153.350619 
L 67.928417 152.87513 
L 67.677109 152.45495 
L 67.435429 152.213974 
L 67.069899 151.941035 
L 66.911534 151.843783 
L 66.224658 151.522833 
L 66.046114 151.396872 
L 65.749653 151.106083 
L 65.58698 150.818635 
L 65.552071 150.725736 
L 65.482078 150.255215 
L 65.483969 150.105644 
L 65.541124 149.838112 
L 65.74108 149.307403 
L 65.755369 149.105644 
L 65.637321 148.693334 
L 65.636617 148.544818 
L 65.683089 148.280144 
L 65.790497 147.925957 
L 65.789794 147.734442 
L 65.787947 147.656623 
L 65.705731 147.370846 
L 65.561876 147.036355 
L 65.54939 146.762405 
L 65.577088 146.590455 
L 65.783727 146.074694 
L 65.822944 145.83917 
L 65.81525 145.586851 
L 65.782803 145.461416 
L 65.626329 145.148513 
L 65.486211 144.842951 
L 65.426901 144.326398 
L 65.476582 143.982982 
L 65.672845 143.577663 
L 65.906083 143.263968 
L 66.804302 142.638776 
L 66.939497 142.406417 
L 66.970756 142.214639 
L 66.890387 141.940205 
L 66.521251 141.57674 
L 66.108633 141.330269 
L 65.215514 140.987336 
L 65.042817 140.751285 
L 65.148642 140.574015 
L 65.78254 140.030247 
L 66.223471 139.882523 
L 67.137298 139.908111 
L 67.637628 139.790327 
L 68.042815 139.569575 
L 68.296805 139.131017 
L 68.436528 138.06142 
L 68.451081 137.163333 
L 68.324416 136.411036 
L 68.205005 136.17771 
L 67.979549 136.013191 
L 67.821448 135.121127 
L 67.841145 134.762367 
L 67.664491 133.694616 
L 67.208391 132.174371 
L 67.277505 130.931021 
L 66.90894 129.684594 
L 66.595861 129.004357 
L 65.905512 127.226033 
L 64.812173 126.361624 
L 64.36724 125.698797 
L 64.262822 125.467714 
L 64.180298 124.704513 
L 63.893466 124.051535 
L 63.684981 123.698315 
L 63.616306 123.247666 
L 63.704238 122.654174 
L 63.853721 122.460725 
L 64.324154 122.170551 
L 64.548379 121.906757 
L 64.596741 121.735291 
L 64.574758 121.647359 
L 64.451654 121.519859 
L 64.372516 121.247272 
L 64.32855 120.44714 
L 64.188783 119.836633 
L 64.212305 119.711243 
L 64.47799 119.400757 
L 64.711008 118.956703 
L 64.750577 118.3764 
L 64.539542 118.011485 
L 63.708546 117.026654 
L 63.167768 116.590382 
L 63.141345 116.006694 
L 63.484321 115.413157 
L 63.554666 115.092208 
L 63.440312 114.920786 
L 62.961086 114.665785 
L 62.648929 114.40199 
L 62.464229 114.089834 
L 62.468626 113.944747 
L 62.820352 112.97315 
L 62.890697 111.992715 
L 62.640092 111.416764 
L 62.749962 110.489132 
L 62.169615 109.785682 
L 62.26634 109.609819 
L 62.538927 109.41637 
L 62.890653 108.712215 
L 62.859877 108.572273 
L 62.708723 108.154643 
L 62.708723 107.930989 
L 62.800215 107.646355 
L 63.492983 107.275285 
L 64.034772 107.196147 
L 64.144378 106.769548 
L 62.690125 105.583134 
L 62.327628 105.119691 
L 62.371154 104.427364 
L 62.01213 104.135036 
L 61.411383 103.84029 
L 61.332113 103.730244 
L 61.45702 103.186212 
L 61.385663 102.927123 
L 60.917253 102.334773 
L 60.778277 101.919781 
L 60.800832 100.977376 
L 60.821232 100.826442 
L 60.920462 100.678146 
L 61.060056 100.550991 
L 61.331981 100.303295 
L 61.395951 100.026135 
L 61.363944 99.887599 
L 61.193401 99.695733 
L 60.969572 99.5998 
L 60.916286 99.46122 
L 60.926925 99.343963 
L 60.926925 99.098811 
L 61.086829 98.874981 
L 61.108152 98.693799 
L 60.91902 98.371909 
L 60.796479 98.163353 
L 60.32354 97.771838 
L 60.26234 97.676829 
L 60.256756 97.432159 
L 60.343808 97.276565 
L 60.632179 96.999581 
L 61.112021 96.675906 
L 61.941741 96.529984 
L 62.272451 96.527522 
L 64.17322 96.105407 
L 64.333606 95.99158 
L 64.462866 95.806352 
L 65.704193 95.007892 
L 65.873944 95.064783 
L 66.136507 95.455286 
L 66.364645 95.544493 
L 66.735276 95.375313 
L 67.221185 95.016817 
L 68.328285 94.598835 
L 69.482032 94.570785 
L 70.979855 94.627588 
L 71.200123 94.745373 
L 71.291572 94.861794 
L 71.283262 95.003143 
L 71.258334 95.219367 
L 71.225052 95.344097 
L 71.241671 95.485447 
L 71.299881 95.56032 
L 71.399683 95.601868 
L 71.665764 95.64346 
L 72.065236 95.575489 
L 72.807465 95.161991 
L 73.093901 95.122686 
L 73.325512 95.171444 
L 73.547275 95.517014 
L 73.752639 95.70677 
L 73.842725 95.726115 
L 74.697242 95.27173 
L 75.146527 94.85599 
L 75.347758 94.790349 
L 75.651033 94.785205 
L 77.118124 94.972367 
L 77.513683 95.538118 
L 78.649581 96.515299 
L 79.023113 96.626049 
L 79.917683 97.639809 
L 80.036039 97.972234 
L 79.941908 98.130115 
L 79.663737 98.335522 
L 79.58007 98.489842 
L 79.60434 98.648778 
L 79.671563 98.707208 
L 81.158746 99.226135 
L 81.578926 99.694018 
L 81.751448 99.979004 
L 81.908625 100.124134 
L 82.370045 100.376673 
L 82.979058 100.624288 
L 83.221308 100.636247 
L 84.082992 100.578036 
L 85.019901 100.341501 
L 85.703831 100.048777 
L 86.159271 100.044952 
L 86.701588 100.215363 
L 86.807326 100.184543 
L 86.9627 100.032862 
L 87.401874 99.449393 
L 87.446455 99.207538 
L 87.40183 98.927213 
L 87.459293 98.649965 
L 88.442585 97.078192 
L 88.458677 97.000592 
L 88.313854 96.828643 
L 88.060523 96.659243 
L 88.027373 96.581467 
L 88.063909 96.358957 
L 88.164239 96.226181 
L 88.597344 95.994086 
L 88.939793 95.980852 
L 89.087166 95.915871 
L 89.567096 94.916663 
L 90.487165 93.3215 
L 90.8268 92.938998 
L 91.418754 92.732096 
L 91.422931 90.482064 
L 91.406972 90.247067 
L 91.35773 89.443243 
L 91.345024 88.532098 
L 91.41449 87.395541 
L 91.385956 86.950433 
L 91.464127 84.070768 
L 91.463116 81.788861 
L 91.434142 80.448963 
L 91.346739 79.282509 
L 91.294683 73.956814 
L 91.272393 73.786887 
L 91.255026 72.411596 
L 91.25252 64.195773 
L 91.252523 64.195192 
L 91.279955 59.155503 
L 91.253355 57.281377 
L 94.976941 57.297689 
L 94.976941 57.299843 
L 112.907873 57.295483 
L 115.68579 57.294808 
L 122.81833 57.293074 
L 138.917829 57.289159 
L 141.875845 57.284731 
L 144.939754 57.280144 
L 154.599685 57.265682 
L 156.833714 57.268364 
L 157.443957 57.266517 
L 157.651739 57.269375 
L 157.730224 57.269166 
L 165.188425 57.249326 
L 165.683303 57.253723 
L 207.226742 57.23382 
L 207.530764 57.233675 
L 207.54624 57.232971 
L 209.978416 57.252699 
L 213.140038 57.278344 
L 214.170286 57.251437 
L 219.496069 57.264539 
L 222.451531 57.193754 
L 236.336158 57.158229 
L 241.831868 57.135191 
L 241.835605 57.148601 
L 242.982802 57.147194 
L 247.327579 57.111494 
L 247.757651 57.142006 
L 248.668532 57.386851 
L 268.383273 57.360252 
L 269.302243 57.364648 
L 269.310771 57.387532 
L 269.310993 57.388126 
L 274.806879 57.36456 
L 285.79852 57.373178 
L 291.528568 57.338137 
L 296.54558 57.336247 
L 296.685699 57.336818 
L 301.431442 57.331059 
L 301.514274 57.332114 
L 301.72632 57.33119 
L 302.450567 57.327541 
L 303.025155 57.331059 
L 305.340036 57.330839 
L 311.318182 57.33906 
L 311.317259 58.640225 
L 311.316027 58.667396 
L 311.310092 62.794586 
L 311.308949 62.812568 
L 311.309031 78.078523 
L 311.309037 79.281586 
L 311.289809 87.418878 
L 311.275975 93.273665 
L 311.295935 96.119256 
L 311.285242 101.145708 
L 311.285208 101.161681 
L 311.283537 104.522505 
L 311.281646 104.524088 
L 311.281602 106.15693 
L 311.282965 106.549148 
L 311.271051 118.124565 
L 311.271007 118.224191 
L 311.261642 121.205548 
L 311.262873 121.21056 
L 311.249024 129.24397 
L 311.254771 130.160841 
L 311.261843 131.288947 
L 311.280327 134.237637 
L 311.282957 137.513828 
L 311.290568 146.996763 
L 311.290571 147.001183 
L 311.280855 152.76737 
L 311.300552 153.397838 
L 311.279448 154.024129 
L 311.312027 154.664929 
L 311.280239 155.297595 
L 311.277162 163.726916 
L 311.276019 166.221441 
L 311.276019 166.228476 
L 311.239791 189.193643 
L 311.265291 194.689266 
L 311.242626 198.946299 
L 311.23368 200.62648 
L 311.254915 205.680555 
L 311.226953 215.145136 
L 311.259224 216.671756 
L 311.24577 216.777538 
L 311.238076 216.925878 
L 311.244056 217.088991 
L 311.247661 217.102093 
L 311.219391 222.167335 
L 311.229635 223.974237 
L 311.22964 223.977313 
L 311.234955 227.094481 
L 311.234911 227.11365 
L 311.239483 229.076367 
L 311.244232 229.119717 
L 311.220138 230.109121 
L 311.218951 230.153394 
L 311.234899 242.930965 
L 311.234911 242.940813 
L 311.212005 246.63969 
L 311.211697 246.791416 
L 311.211345 246.952374 
L 311.211345 247.169916 
L 311.211588 248.679319 
L 311.213148 258.381254 
L 311.183515 273.209253 
L 311.183075 273.430004 
L 311.16395 275.888521 
L 311.169754 276.527035 
L 311.170149 282.807973 
L 311.16228 283.221602 
L 311.147463 283.998388 
L 311.162543 285.446573 
L 311.14355 286.071985 
L 311.147199 293.104428 
L 311.116379 299.130805 
L 311.11506 299.131376 
L 311.100552 299.989191 
L 311.106223 306.474217 
L 301.062482 306.410159 
L 276.828597 306.405411 
L 269.313806 306.445947 
L 263.163051 306.409895 
L 249.10898 306.459928 
L 234.367506 306.424624 
L 225.346803 306.488506 
L 222.08534 306.48578 
L 219.85096 305.749839 
L 209.258471 302.357691 
L 200.74576 299.631574 
L 197.979395 298.756937 
L 182.314334 293.804142 
L 170.589345 290.13248 
L 165.360023 288.508607 
L 164.888931 288.382954 
L 163.848615 288.041384 
L 143.287886 281.722152 
L 131.905742 278.323957 
L 127.889609 277.034575 
L 122.769409 275.422987 
L 115.760004 273.216771 
L 104.436202 269.69679 
L 103.076607 269.255858 
L 82.452525 262.886286 
L 71.460884 259.538431 
L 57.706967 255.395984 
L 57.690348 255.266109 
L 57.76399 255.141994 
L 57.798283 254.140456 
L 58.497382 252.904053 
L 57.681818 252.29592 
L 58.319409 251.028257 
" clip-path="url(#pb2791f5d2e)" style="fill: #00c100"/>
   </g>
   <g id="PathCollection_1">
    <defs>
     <path id="m9334c127b8" d="M 0 1.581139 
C 0.419323 1.581139 0.821528 1.41454 1.118034 1.118034 
C 1.41454 0.821528 1.581139 0.419323 1.581139 0 
C 1.581139 -0.419323 1.41454 -0.821528 1.118034 -1.118034 
C 0.821528 -1.41454 0.419323 -1.581139 0 -1.581139 
C -0.419323 -1.581139 -0.821528 -1.41454 -1.118034 -1.118034 
C -1.41454 -0.821528 -1.581139 -0.419323 -1.581139 0 
C -1.581139 0.419323 -1.41454 0.821528 -1.118034 1.118034 
C -0.821528 1.41454 -0.419323 1.581139 0 1.581139 
z
" style="stroke: #000000"/>
    </defs>
    <g clip-path="url(#pb2791f5d2e)">
     <use xlink:href="#m9334c127b8" x="177.146388" y="213.458612" style="stroke: #000000"/>
    </g>
   </g>
   <g id="text_1">
    <!-- Phoenix -->
    <g transform="translate(180.146388 210.458612) scale(0.1 -0.1)">
     <defs>
      <path id="DejaVuSans-50" d="M 1259 4147 
L 1259 2394 
L 2053 2394 
Q 2494 2394 2734 2622 
Q 2975 2850 2975 3272 
Q 2975 3691 2734 3919 
Q 2494 4147 2053 4147 
L 1259 4147 
z
M 628 4666 
L 2053 4666 
Q 2838 4666 3239 4311 
Q 3641 3956 3641 3272 
Q 3641 2581 3239 2228 
Q 2838 1875 2053 1875 
L 1259 1875 
L 1259 0 
L 628 0 
L 628 4666 
z
" transform="scale(0.015625)"/>
      <path id="DejaVuSans-68" d="M 3513 2113 
L 3513 0 
L 2938 0 
L 2938 2094 
Q 2938 2591 2744 2837 
Q 2550 3084 2163 3084 
Q 1697 3084 1428 2787 
Q 1159 2491 1159 1978 
L 1159 0 
L 581 0 
L 581 4863 
L 1159 4863 
L 1159 2956 
Q 1366 3272 1645 3428 
Q 1925 3584 2291 3584 
Q 2894 3584 3203 3211 
Q 3513 2838 3513 2113 
z
" transform="scale(0.015625)"/>
      <path id="DejaVuSans-6f" d="M 1959 3097 
Q 1497 3097 1228 2736 
Q 959 2375 959 1747 
Q 959 1119 1226 758 
Q 1494 397 1959 397 
Q 2419 397 2687 759 
Q 2956 1122 2956 1747 
Q 2956 2369 2687 2733 
Q 2419 3097 1959 3097 
z
M 1959 3584 
Q 2709 3584 3137 3096 
Q 3566 2609 3566 1747 
Q 3566 888 3137 398 
Q 2709 -91 1959 -91 
Q 1206 -91 779 398 
Q 353 888 353 1747 
Q 353 2609 779 3096 
Q 1206 3584 1959 3584 
z
" transform="scale(0.015625)"/>
      <path id="DejaVuSans-65" d="M 3597 1894 
L 3597 1613 
L 953 1613 
Q 991 1019 1311 708 
Q 1631 397 2203 397 
Q 2534 397 2845 478 
Q 3156 559 3463 722 
L 3463 178 
Q 3153 47 2828 -22 
Q 2503 -91 2169 -91 
Q 1331 -91 842 396 
Q 353 884 353 1716 
Q 353 2575 817 3079 
Q 1281 3584 2069 3584 
Q 2775 3584 3186 3129 
Q 3597 2675 3597 1894 
z
M 3022 2063 
Q 3016 2534 2758 2815 
Q 2500 3097 2075 3097 
Q 1594 3097 1305 2825 
Q 1016 2553 972 2059 
L 3022 2063 
z
" transform="scale(0.015625)"/>
      <path id="DejaVuSans-6e" d="M 3513 2113 
L 3513 0 
L 2938 0 
L 2938 2094 
Q 2938 2591 2744 2837 
Q 2550 3084 2163 3084 
Q 1697 3084 1428 2787 
Q 1159 2491 1159 1978 
L 1159 0 
L 581 0 
L 581 3500 
L 1159 3500 
L 1159 2956 
Q 1366 3272 1645 3428 
Q 1925 3584 2291 3584 
Q 2894 3584 3203 3211 
Q 3513 2838 3513 2113 
z
" transform="scale(0.015625)"/>
      <path id="DejaVuSans-69" d="M 603 3500 
L 1178 3500 
L 1178 0 
L 603 0 
L 603 3500 
z
M 603 4863 
L 1178 4863 
L 1178 4134 
L 603 4134 
L 603 4863 
z
" transform="scale(0.015625)"/>
      <path id="DejaVuSans-78" d="M 3513 3500 
L 2247 1797 
L 3578 0 
L 2900 0 
L 1881 1375 
L 863 0 
L 184 0 
L 1544 1831 
L 300 3500 
L 978 3500 
L 1906 2253 
L 2834 3500 
L 3513 3500 
z
" transform="scale(0.015625)"/>
     </defs>
     <use xlink:href="#DejaVuSans-50"/>
     <use xlink:href="#DejaVuSans-68" x="60.302734"/>
     <use xlink:href="#DejaVuSans-6f" x="123.681641"/>
     <use xlink:href="#DejaVuSans-65" x="184.863281"/>
     <use xlink:href="#DejaVuSans-6e" x="246.386719"/>
     <use xlink:href="#DejaVuSans-69" x="309.765625"/>
     <use xlink:href="#DejaVuSans-78" x="337.548828"/>
    </g>
   </g>
   <g id="text_2">
    <!-- Arizona -->
    <g transform="translate(161.9625 38.642643) scale(0.12 -0.12)">
     <defs>
      <path id="DejaVuSans-41" d="M 2188 4044 
L 1331 1722 
L 3047 1722 
L 2188 4044 
z
M 1831 4666 
L 2547 4666 
L 4325 0 
L 3669 0 
L 3244 1197 
L 1141 1197 
L 716 0 
L 50 0 
L 1831 4666 
z
" transform="scale(0.015625)"/>
      <path id="DejaVuSans-72" d="M 2631 2963 
Q 2534 3019 2420 3045 
Q 2306 3072 2169 3072 
Q 1681 3072 1420 2755 
Q 1159 2438 1159 1844 
L 1159 0 
L 581 0 
L 581 3500 
L 1159 3500 
L 1159 2956 
Q 1341 3275 1631 3429 
Q 1922 3584 2338 3584 
Q 2397 3584 2469 3576 
Q 2541 3569 2628 3553 
L 2631 2963 
z
" transform="scale(0.015625)"/>
      <path id="DejaVuSans-7a" d="M 353 3500 
L 3084 3500 
L 3084 2975 
L 922 459 
L 3084 459 
L 3084 0 
L 275 0 
L 275 525 
L 2438 3041 
L 353 3041 
L 353 3500 
z
" transform="scale(0.015625)"/>
      <path id="DejaVuSans-61" d="M 2194 1759 
Q 1497 1759 1228 1600 
Q 959 1441 959 1056 
Q 959 750 1161 570 
Q 1363 391 1709 391 
Q 2188 391 2477 730 
Q 2766 1069 2766 1631 
L 2766 1759 
L 2194 1759 
z
M 3341 1997 
L 3341 0 
L 2766 0 
L 2766 531 
Q 2569 213 2275 61 
Q 1981 -91 1556 -91 
Q 1019 -91 701 211 
Q 384 513 384 1019 
Q 384 1609 779 1909 
Q 1175 2209 1959 2209 
L 2766 2209 
L 2766 2266 
Q 2766 2663 2505 2880 
Q 2244 3097 1772 3097 
Q 1472 3097 1187 3025 
Q 903 2953 641 2809 
L 641 3341 
Q 956 3463 1253 3523 
Q 1550 3584 1831 3584 
Q 2591 3584 2966 3190 
Q 3341 2797 3341 1997 
z
" transform="scale(0.015625)"/>
     </defs>
     <use xlink:href="#DejaVuSans-41"/>
     <use xlink:href="#DejaVuSans-72" x="68.408203"/>
     <use xlink:href="#DejaVuSans-69" x="109.521484"/>
     <use xlink:href="#DejaVuSans-7a" x="137.304688"/>
     <use xlink:href="#DejaVuSans-6f" x="189.794922"/>
     <use xlink:href="#DejaVuSans-6e" x="250.976562"/>
     <use xlink:href="#DejaVuSans-61" x="314.355469"/>
    </g>
   </g>
  </g>
 </g>
 <defs>
  <clipPath id="pb2791f5d2e">
   <rect x="45" y="44.642643" width="279" height="274.314713"/>
  </clipPath>
 </defs>
</svg>
