<?xml version="1.0" encoding="utf-8" standalone="no"?>
<!DOCTYPE svg PUBLIC "-//W3C//DTD SVG 1.1//EN"
  "http://www.w3.org/Graphics/SVG/1.1/DTD/svg11.dtd">
<svg xmlns:xlink="http://www.w3.org/1999/xlink" width="360pt" height="360pt" viewBox="0 0 360 360" xmlns="http://www.w3.org/2000/svg" version="1.1">
 <metadata>
  <rdf:RDF xmlns:dc="http://purl.org/dc/elements/1.1/" xmlns:cc="http://creativecommons.org/ns#" xmlns:rdf="http://www.w3.org/1999/02/22-rdf-syntax-ns#">
   <cc:Work>
    <dc:type rdf:resource="http://purl.org/dc/dcmitype/StillImage"/>
    <dc:date>2023-06-19T15:20:29.197326</dc:date>
    <dc:format>image/svg+xml</dc:format>
    <dc:creator>
     <cc:Agent>
      <dc:title>Matplotlib v3.7.1, https://matplotlib.org/</dc:title>
     </cc:Agent>
    </dc:creator>
   </cc:Work>
  </rdf:RDF>
 </metadata>
 <defs>
  <style type="text/css">*{stroke-linejoin: round; stroke-linecap: butt}</style>
 </defs>
 <g id="figure_1">
  <g id="patch_1">
   <path d="M 0 360 
L 360 360 
L 360 0 
L 0 0 
z
" style="fill: #ffffff"/>
  </g>
  <g id="axes_1">
   <g id="PatchCollection_1">
    <path d="M 57.681818 92.671145 
L 60.672006 92.666962 
L 62.702492 92.681345 
L 70.774811 92.661658 
L 75.463064 92.680488 
L 79.944447 92.698487 
L 83.511504 92.712813 
L 83.552306 92.713323 
L 84.083796 92.70909 
L 84.168663 92.708784 
L 85.265152 92.70603 
L 85.452144 92.706051 
L 91.036981 92.706693 
L 91.27822 92.706693 
L 93.183139 92.706642 
L 93.984481 92.706642 
L 95.992419 92.703046 
L 103.068217 92.690372 
L 103.092188 92.689454 
L 103.533813 92.683181 
L 103.989617 92.68313 
L 104.48867 92.685374 
L 105.55696 92.687577 
L 110.399275 92.697564 
L 113.957624 92.698329 
L 114.319941 92.696799 
L 118.421459 92.713425 
L 119.997927 92.709141 
L 120.06734 92.716791 
L 124.115918 92.722452 
L 124.116561 92.722454 
L 125.231339 92.725733 
L 125.366896 92.726132 
L 132.489696 92.747083 
L 133.774038 92.750861 
L 135.660138 92.733877 
L 135.729143 92.731072 
L 136.65345 92.730919 
L 136.707359 92.730511 
L 145.587751 92.750044 
L 145.604837 92.750912 
L 147.642439 92.744147 
L 148.416314 92.741578 
L 148.429319 92.739232 
L 151.810131 92.75489 
L 162.423362 92.731021 
L 164.214032 92.712208 
L 164.840952 92.705622 
L 168.549144 92.716434 
L 169.760234 92.747647 
L 171.568556 92.751167 
L 172.066742 92.784114 
L 173.33577 92.754125 
L 174.960791 92.758001 
L 175.419349 92.748667 
L 180.163134 92.721993 
L 180.278857 92.724289 
L 180.416256 92.723116 
L 181.030981 92.72536 
L 183.535216 92.710941 
L 184.175501 92.707254 
L 185.05916 92.699246 
L 185.064718 92.699196 
L 186.184209 92.702307 
L 187.378774 92.704449 
L 188.284363 92.70909 
L 188.355205 92.70909 
L 189.729297 92.710518 
L 190.212386 92.716536 
L 191.774267 92.717862 
L 191.924672 92.721279 
L 198.035051 92.703327 
L 198.117164 92.703021 
L 201.095877 92.692922 
L 201.296875 92.694146 
L 201.42642 92.694707 
L 202.180584 92.688485 
L 203.129321 92.686445 
L 205.141242 92.6816 
L 207.132762 92.672012 
L 207.213804 92.673185 
L 207.911663 92.668646 
L 209.429121 92.675174 
L 209.997843 92.682161 
L 210.698835 92.678787 
L 211.534121 92.674766 
L 211.794434 92.683997 
L 214.194071 92.684048 
L 214.694094 92.686343 
L 214.821037 92.684303 
L 215.182946 92.691137 
L 216.694335 92.701848 
L 219.251347 92.765612 
L 219.441091 92.770343 
L 219.939992 92.775035 
L 220.103402 92.780901 
L 221.431337 92.78799 
L 221.437661 92.788551 
L 221.539461 92.785848 
L 221.550987 92.788143 
L 230.604684 92.762795 
L 231.051103 92.765498 
L 231.11664 92.768201 
L 235.74919 92.75795 
L 237.292098 92.748718 
L 237.312346 92.749891 
L 241.285697 92.740099 
L 241.76593 92.729491 
L 243.158481 92.724961 
L 244.08626 92.721942 
L 244.209429 92.721534 
L 248.362408 92.723983 
L 248.482416 92.721687 
L 248.497716 92.727298 
L 248.640113 92.739487 
L 249.830548 92.715312 
L 253.198494 92.716551 
L 253.297654 92.716587 
L 254.153567 92.718066 
L 256.930414 92.727043 
L 257.859719 92.71725 
L 259.887502 92.718372 
L 260.129863 92.720463 
L 261.962869 92.714751 
L 262.325186 92.719851 
L 262.893857 92.719851 
L 263.350732 92.717913 
L 263.818033 92.720495 
L 263.821479 92.720514 
L 267.695172 92.722911 
L 267.956964 92.72434 
L 267.980017 92.724493 
L 275.869137 92.732398 
L 281.527742 92.754941 
L 281.946519 92.75052 
L 281.948049 92.750504 
L 282.120384 92.753615 
L 283.312807 92.752289 
L 285.427446 92.745709 
L 285.329115 92.802831 
L 285.356554 92.878722 
L 285.035446 93.592748 
L 285.075835 93.613522 
L 285.948277 94.062271 
L 285.992649 94.687758 
L 286.363075 95.874673 
L 285.873101 96.495315 
L 286.521079 96.972896 
L 287.619812 97.533713 
L 289.102385 97.702529 
L 289.831202 98.441597 
L 289.964317 99.939062 
L 289.256666 100.7504 
L 289.125081 101.892025 
L 289.941162 102.686685 
L 289.184957 103.425753 
L 288.933824 104.252748 
L 287.343025 104.596348 
L 286.780169 105.727518 
L 286.75936 106.444043 
L 285.949756 106.538141 
L 285.251643 107.224014 
L 283.878418 107.681297 
L 283.542565 107.926182 
L 282.974206 108.340598 
L 282.505295 108.859644 
L 281.962176 108.718879 
L 281.199953 110.025087 
L 281.188988 111.028753 
L 280.16839 111.660564 
L 278.988819 112.154262 
L 278.184622 112.381577 
L 277.908294 113.131967 
L 276.9261 113.553243 
L 276.960628 114.290832 
L 276.207331 114.699356 
L 275.897137 115.739386 
L 275.286798 116.771256 
L 273.931169 118.362361 
L 274.398958 118.355782 
L 275.730208 118.351548 
L 275.892496 118.34451 
L 278.292542 118.325945 
L 278.467424 118.32487 
L 278.474924 118.324823 
L 285.104554 118.276066 
L 286.710143 118.262805 
L 286.760176 118.264794 
L 287.908126 118.236896 
L 294.603598 118.193494 
L 294.972648 118.202725 
L 295.189508 118.186302 
L 295.249792 118.192168 
L 295.276109 118.192168 
L 298.232392 118.174641 
L 298.244111 118.174572 
L 298.482545 118.171155 
L 299.549605 118.164525 
L 299.575157 118.163709 
L 299.600403 118.163862 
L 299.884994 118.160546 
L 304.921682 118.115461 
L 304.936065 118.114849 
L 306.5847 118.113268 
L 306.588984 118.115563 
L 306.816911 118.111177 
L 306.912641 118.301363 
L 307.054223 118.47023 
L 307.527214 118.857436 
L 307.545932 118.906449 
L 307.48631 119.436613 
L 307.501152 119.624351 
L 307.546187 119.759812 
L 307.761975 120.02752 
L 307.983221 120.191134 
L 308.511397 120.485058 
L 309.171718 120.808767 
L 309.69719 121.174807 
L 309.977904 121.41676 
L 310.741402 121.926014 
L 310.938677 122.14777 
L 311.03757 122.334793 
L 311.222655 122.833949 
L 311.318182 123.020462 
L 311.194145 123.501461 
L 311.020229 123.707508 
L 310.776848 123.909884 
L 310.658575 123.969148 
L 310.255609 124.094051 
L 310.057671 124.095071 
L 309.677248 123.970678 
L 309.432031 123.7529 
L 309.109648 123.398131 
L 307.743156 122.923763 
L 306.40145 122.89816 
L 305.632801 123.341315 
L 305.154556 123.686139 
L 304.998797 123.922583 
L 304.846658 124.276485 
L 304.789077 124.453972 
L 304.752917 124.685877 
L 304.766687 124.903706 
L 304.808866 125.022438 
L 304.964626 125.202985 
L 305.223205 125.368486 
L 305.984102 125.641754 
L 306.999396 125.913237 
L 308.032489 126.358024 
L 308.282908 126.520465 
L 308.357779 126.600691 
L 308.433058 126.762265 
L 308.45152 126.902928 
L 308.415564 127.106374 
L 308.307185 127.308188 
L 308.194471 127.411263 
L 307.489115 127.753129 
L 307.310048 127.864058 
L 306.76851 128.027672 
L 306.310463 128.045879 
L 305.553136 127.811373 
L 305.167154 127.770622 
L 305.166389 127.857376 
L 304.333223 128.083264 
L 303.592115 128.709413 
L 303.438752 128.928925 
L 303.554934 129.227541 
L 303.545856 129.356627 
L 303.442934 129.595214 
L 302.931335 130.159294 
L 302.747167 130.323775 
L 302.667349 130.38564 
L 302.322576 130.550121 
L 302.133512 130.601174 
L 301.726926 130.642486 
L 301.041053 130.600307 
L 300.461468 130.888723 
L 300.146939 131.015462 
L 299.689402 131.336417 
L 299.464432 131.332847 
L 299.144192 131.148475 
L 298.908155 130.888723 
L 298.021998 130.43042 
L 297.794632 130.413436 
L 297.63469 130.520234 
L 297.514376 130.641874 
L 295.740175 131.479528 
L 295.551213 131.598516 
L 295.435388 131.739995 
L 295.3113 132.029685 
L 295.301355 132.227164 
L 295.400757 132.847194 
L 295.418302 133.672965 
L 295.46094 133.921089 
L 295.585894 134.13545 
L 295.746142 134.338692 
L 296.126667 134.711618 
L 296.397844 135.191545 
L 296.721552 135.480573 
L 297.144205 135.722883 
L 297.51764 135.850948 
L 297.990938 135.934438 
L 298.359732 135.94673 
L 298.788454 135.870023 
L 298.968541 135.807342 
L 299.072942 135.732369 
L 299.176935 135.612209 
L 299.399252 135.236988 
L 299.469431 135.16987 
L 299.72852 135.049964 
L 300.100629 134.953163 
L 300.279391 134.969534 
L 300.398837 135.02074 
L 300.675522 135.328077 
L 300.794561 135.61379 
L 300.810524 135.982227 
L 300.761461 136.285484 
L 300.656142 136.591546 
L 300.516958 136.78622 
L 300.146888 136.972683 
L 299.500542 137.183576 
L 298.592811 137.750615 
L 298.457503 137.783919 
L 298.315207 137.774789 
L 297.996956 137.719503 
L 297.759389 137.64856 
L 297.683652 137.673092 
L 297.303841 137.91887 
L 296.646886 138.141799 
L 295.988707 138.460764 
L 295.695854 138.670892 
L 295.542951 138.835475 
L 295.410142 139.026885 
L 295.351643 139.192641 
L 295.350215 139.282506 
L 295.413151 139.490237 
L 295.540349 139.764423 
L 295.911898 140.400416 
L 296.021909 140.567294 
L 296.193326 140.758704 
L 296.820241 141.014223 
L 297.073006 141.064409 
L 297.41579 141.077313 
L 297.581393 141.107659 
L 297.754187 141.219761 
L 297.798355 141.397145 
L 297.749291 141.548366 
L 297.754289 141.668424 
L 297.834921 141.696672 
L 297.854304 141.703462 
L 298.019754 141.767572 
L 298.080446 141.822297 
L 298.106457 141.900126 
L 297.913772 142.472927 
L 297.844307 142.595128 
L 297.695943 142.755172 
L 297.519018 142.872017 
L 297.318529 142.935718 
L 297.123192 142.907259 
L 296.59007 142.697642 
L 296.008037 142.65429 
L 295.855847 142.618487 
L 295.690703 142.527907 
L 295.430644 142.337773 
L 295.360874 142.256272 
L 295.35965 142.106683 
L 295.459563 141.949138 
L 295.466652 141.882632 
L 295.412335 141.635222 
L 295.32094 141.516184 
L 294.412494 140.895542 
L 293.746767 140.58081 
L 293.562548 140.543527 
L 293.255466 140.523841 
L 292.781302 140.579688 
L 292.629878 140.628649 
L 292.321316 140.787214 
L 291.985163 140.769873 
L 291.744587 140.825312 
L 291.524361 140.917575 
L 291.285826 141.076242 
L 291.177243 141.192934 
L 291.064121 141.732176 
L 290.922029 142.028548 
L 290.846598 142.133867 
L 290.700579 142.507966 
L 290.64004 142.864061 
L 290.729701 143.420899 
L 290.86812 143.819937 
L 290.984813 144.03593 
L 291.42042 144.627195 
L 292.164537 145.160062 
L 292.235327 145.285221 
L 292.243283 145.437563 
L 292.078955 145.817068 
L 291.967618 145.975939 
L 291.847407 146.306023 
L 291.832362 146.454897 
L 291.848427 146.697972 
L 291.80834 146.810839 
L 291.709396 146.945739 
L 291.609585 147.132865 
L 291.593418 147.332486 
L 291.135115 147.574082 
L 291.029541 147.660173 
L 290.949162 147.762483 
L 290.89357 147.956086 
L 290.827676 148.08201 
L 290.552466 148.333495 
L 290.315311 148.550207 
L 289.670699 148.319678 
L 290.041227 147.969092 
L 289.60613 147.555415 
L 289.425941 147.010104 
L 289.42691 146.723065 
L 289.566451 146.175968 
L 289.77663 145.63438 
L 289.780098 145.436696 
L 289.746437 145.365753 
L 289.524272 145.134816 
L 289.117584 144.824113 
L 288.868644 144.722568 
L 288.169408 144.734809 
L 288.014363 144.821818 
L 287.710187 144.819472 
L 287.369036 145.047348 
L 287.166151 145.234831 
L 287.052468 145.390387 
L 286.92379 145.690686 
L 286.602172 146.604741 
L 286.05484 146.882572 
L 284.584845 147.628756 
L 284.503395 147.807314 
L 284.498244 148.229966 
L 284.061413 149.498433 
L 284.108538 149.656641 
L 284.412152 149.88161 
L 284.725406 150.031352 
L 285.812867 150.037064 
L 286.292999 149.933275 
L 285.886769 149.375621 
L 285.76462 148.99428 
L 285.748248 148.770433 
L 285.804656 148.551686 
L 285.888146 148.403066 
L 285.979337 148.306571 
L 286.172073 148.156268 
L 286.312635 148.081449 
L 286.549793 148.042279 
L 287.242041 148.146986 
L 287.466348 148.225478 
L 287.566362 148.304939 
L 287.758537 148.573005 
L 287.857124 148.66746 
L 288.274931 148.985202 
L 288.431048 149.083329 
L 288.729205 149.210579 
L 289.127682 149.494455 
L 289.227595 149.533777 
L 289.379529 149.551577 
L 288.929081 150.33466 
L 288.721044 150.616598 
L 288.589 150.738186 
L 288.435995 150.758587 
L 288.266006 150.925363 
L 288.08908 151.210821 
L 287.731149 151.643112 
L 287.654391 151.671469 
L 287.579113 151.66132 
L 287.907106 152.19077 
L 287.756038 152.587922 
L 287.640315 153.589139 
L 287.225874 153.670895 
L 286.98897 153.612192 
L 286.894974 153.612447 
L 286.451972 153.818596 
L 286.089297 153.90326 
L 285.564488 153.675791 
L 285.380882 153.711493 
L 285.099402 153.810997 
L 284.981486 153.896986 
L 284.849544 154.041628 
L 284.77906 154.19091 
L 284.591526 154.761672 
L 284.595453 154.910036 
L 284.707657 155.139545 
L 285.101851 155.752128 
L 285.447184 156.088128 
L 286.043906 156.276835 
L 286.466099 156.231392 
L 286.900788 156.13913 
L 287.262901 156.098379 
L 287.58865 156.115312 
L 287.844322 156.174882 
L 288.130086 156.322533 
L 288.208782 156.394445 
L 288.5686 156.791954 
L 288.801678 157.121936 
L 288.974217 157.320588 
L 289.187864 157.525513 
L 289.283289 157.698971 
L 289.383201 157.900581 
L 289.422218 158.073069 
L 289.416302 158.356946 
L 289.286298 158.493988 
L 289.064287 158.527853 
L 288.913984 158.412079 
L 288.685649 158.312472 
L 288.446552 158.776283 
L 288.284315 159.206433 
L 288.236272 159.209187 
L 287.641182 158.989318 
L 287.278763 159.020276 
L 287.2094 159.424619 
L 287.217 159.561303 
L 287.379134 159.877464 
L 287.538413 160.033122 
L 287.636031 160.04271 
L 287.692235 160.240597 
L 287.82229 160.43828 
L 287.940053 160.57675 
L 288.115448 160.755563 
L 288.280082 160.933967 
L 288.463944 161.125122 
L 288.595172 161.173982 
L 289.66463 161.307811 
L 289.789278 161.399971 
L 289.813555 161.438988 
L 289.908928 161.97211 
L 289.869147 162.121546 
L 289.807996 162.2083 
L 289.573336 162.432657 
L 288.949686 162.938646 
L 288.781889 163.035091 
L 288.582982 163.111186 
L 288.073831 163.192585 
L 287.625014 163.080381 
L 286.113778 162.310049 
L 285.921501 162.254151 
L 285.824751 162.259608 
L 285.248277 162.463258 
L 285.041005 162.573473 
L 284.772226 162.757182 
L 284.374741 163.100868 
L 284.350185 163.1221 
L 284.184939 163.427346 
L 283.953187 164.482422 
L 283.252115 165.992485 
L 283.178162 166.280951 
L 283.149448 166.556667 
L 283.164035 166.916944 
L 283.203051 167.236573 
L 282.997565 167.470518 
L 282.524625 167.790147 
L 282.27038 167.828449 
L 282.174701 167.815495 
L 281.739502 167.615976 
L 281.442671 167.546664 
L 280.122539 167.384835 
L 279.821577 167.287932 
L 279.770575 167.23183 
L 279.750175 167.124726 
L 279.673672 167.089025 
L 278.311922 167.012522 
L 278.186004 167.071983 
L 278.128316 167.099225 
L 278.041613 167.211429 
L 277.868155 167.675546 
L 277.551944 168.216115 
L 277.399958 168.646774 
L 277.378486 168.924989 
L 277.429539 169.363656 
L 277.67802 169.912181 
L 277.777678 170.058149 
L 278.086188 170.35044 
L 278.256483 170.440816 
L 278.554538 170.545012 
L 278.809802 170.793391 
L 279.013504 170.92518 
L 279.960965 171.296678 
L 280.25137 171.439738 
L 280.45094 171.633137 
L 280.564368 171.800423 
L 280.651888 171.98403 
L 280.735531 172.326762 
L 280.722831 173.171608 
L 280.629957 173.521634 
L 280.540091 173.747521 
L 280.448951 173.870894 
L 278.956178 174.750319 
L 277.803893 175.261562 
L 277.39343 175.514327 
L 277.216402 175.687683 
L 277.678306 176.254268 
L 277.715099 176.299399 
L 277.775026 176.464288 
L 277.76758 176.571647 
L 277.702552 176.767953 
L 277.527106 176.988383 
L 277.32677 177.088959 
L 276.92457 177.056776 
L 276.727244 176.978386 
L 276.256446 176.665286 
L 275.844249 176.266095 
L 275.444496 176.533548 
L 275.242733 176.631319 
L 273.831868 177.001847 
L 272.720232 177.543793 
L 272.395968 177.66143 
L 272.259532 177.710926 
L 272.045426 177.720208 
L 271.663371 177.626926 
L 271.585645 177.579443 
L 271.33701 177.232937 
L 271.231233 176.846241 
L 271.184668 176.53671 
L 271.185637 176.339741 
L 271.318599 176.024856 
L 271.325484 175.918721 
L 271.268566 175.712469 
L 270.938839 175.124979 
L 270.849484 175.030626 
L 270.699487 174.94229 
L 270.518329 174.856556 
L 270.053702 174.697022 
L 269.752638 174.654997 
L 269.429541 174.703806 
L 268.943391 174.942443 
L 268.729898 175.097795 
L 268.520943 175.408294 
L 268.490903 175.514378 
L 268.466422 175.812433 
L 268.525686 176.216317 
L 268.623661 176.396251 
L 269.008827 176.820077 
L 269.549854 177.563276 
L 269.899727 178.151837 
L 269.908601 178.304231 
L 269.793184 178.607947 
L 269.469679 178.804202 
L 269.205643 179.087568 
L 269.117104 179.218694 
L 269.035654 179.426068 
L 268.999289 179.691226 
L 269.053504 179.913849 
L 269.212426 180.319722 
L 269.800376 181.166863 
L 270.098481 181.723548 
L 270.193753 182.007374 
L 270.189316 182.175782 
L 270.126991 182.409727 
L 270.000048 182.631126 
L 269.84796 182.764292 
L 269.238641 183.066019 
L 268.738466 183.18011 
L 268.271238 183.234274 
L 267.618312 183.208518 
L 266.95182 182.932088 
L 266.769131 182.772248 
L 266.632089 182.475316 
L 266.586392 182.224131 
L 266.586392 181.972896 
L 266.654938 181.721712 
L 266.86068 181.469508 
L 267.423128 181.151511 
L 267.635755 180.877988 
L 267.652636 180.81393 
L 267.625656 180.629915 
L 267.515696 180.357514 
L 267.052497 179.523532 
L 266.953299 179.254242 
L 266.535798 179.228894 
L 266.105444 179.314629 
L 265.841254 179.417244 
L 265.651936 179.560253 
L 265.455833 179.795321 
L 265.275032 180.130403 
L 265.246573 180.268057 
L 265.262434 180.405558 
L 265.345771 180.69887 
L 265.529072 181.160284 
L 265.525808 181.760576 
L 265.46889 181.931381 
L 265.366427 182.102135 
L 265.275338 182.1818 
L 265.138755 182.261516 
L 264.990747 182.307009 
L 264.83152 182.325931 
L 264.648576 182.364336 
L 264.46247 182.472306 
L 264.365924 182.581195 
L 264.273967 182.737924 
L 264.226434 183.047964 
L 264.231075 183.179651 
L 264.261625 183.256664 
L 264.355264 183.370857 
L 265.354544 184.338719 
L 265.715586 184.506669 
L 266.213517 184.606836 
L 266.577007 184.617751 
L 267.201117 184.54645 
L 267.879187 184.41512 
L 268.36809 184.36927 
L 268.721278 184.367331 
L 268.968484 184.402472 
L 269.172951 184.492235 
L 269.383129 184.666814 
L 269.552966 184.898873 
L 269.61325 185.078246 
L 269.599785 185.256855 
L 269.435304 185.754735 
L 269.242517 186.00342 
L 268.737752 186.48804 
L 268.320965 186.745752 
L 267.874749 187.090729 
L 267.547216 187.464419 
L 267.290217 187.673935 
L 266.827732 187.967399 
L 266.454756 188.091028 
L 266.061684 188.142897 
L 265.807848 188.128616 
L 265.474755 188.037221 
L 265.27493 187.93027 
L 265.063425 187.684033 
L 264.942653 187.460288 
L 264.892926 187.186663 
L 264.95117 186.738765 
L 265.018492 186.499617 
L 265.145181 186.308972 
L 265.6934 185.928651 
L 265.014667 185.0377 
L 263.97479 185.136949 
L 263.687191 185.268585 
L 263.520874 185.452651 
L 263.193799 185.92554 
L 263.187832 186.043711 
L 263.249697 186.208906 
L 263.300036 186.90855 
L 263.366593 187.144026 
L 263.46569 187.320594 
L 263.469158 187.368077 
L 263.44772 187.433856 
L 263.202163 188.18732 
L 263.254746 188.742424 
L 263.536838 189.3292 
L 263.889056 189.787401 
L 264.126419 190.184501 
L 264.395046 190.432115 
L 264.762259 190.721449 
L 265.191797 191.171693 
L 265.362806 191.418746 
L 265.614755 192.051373 
L 265.625721 192.192546 
L 265.597874 192.333005 
L 265.477968 192.585618 
L 265.371119 192.71965 
L 264.884154 193.063301 
L 264.166506 193.376707 
L 263.700043 193.813844 
L 263.56902 193.991229 
L 263.443147 194.436628 
L 263.290397 194.639717 
L 263.241156 194.823191 
L 263.167125 195.09904 
L 263.117194 195.420556 
L 263.197522 196.146363 
L 263.343847 196.621446 
L 263.43361 196.744768 
L 263.781646 196.973154 
L 263.931286 197.099435 
L 264.269377 197.685548 
L 264.346084 197.991763 
L 264.311454 198.239173 
L 264.214958 198.480055 
L 264.074805 198.70885 
L 263.861056 198.972376 
L 263.588655 199.206883 
L 261.891977 200.2183 
L 261.660632 200.31806 
L 260.992202 200.398337 
L 260.821142 200.440669 
L 260.491772 200.567867 
L 259.617396 200.984246 
L 259.780398 201.181062 
L 259.196835 201.998418 
L 259.19306 202.368233 
L 259.498439 202.97393 
L 259.52243 203.021515 
L 259.677119 203.453654 
L 259.671152 203.71152 
L 259.601231 203.833805 
L 259.471888 204.060015 
L 259.066525 204.181298 
L 258.620055 204.180737 
L 258.216834 204.040992 
L 258.012724 203.897523 
L 257.853395 203.69423 
L 257.824987 203.331607 
L 257.933876 202.875752 
L 258.440375 202.146834 
L 258.496885 201.656247 
L 258.425023 201.479321 
L 258.35867 201.335547 
L 257.987632 201.346309 
L 257.495464 201.486615 
L 256.88645 201.591168 
L 256.232556 201.598615 
L 256.017226 201.570717 
L 255.380468 201.416742 
L 254.947411 201.381347 
L 254.63681 201.415161 
L 254.336511 201.542768 
L 254.148875 201.677668 
L 254.082725 201.771409 
L 254.012139 202.118324 
L 254.048503 202.454783 
L 254.080328 202.536794 
L 254.178966 202.661544 
L 255.006828 203.261989 
L 255.222515 203.576824 
L 255.325488 203.811891 
L 255.431775 204.158398 
L 255.417546 204.511892 
L 255.305699 204.730231 
L 254.816132 205.392796 
L 254.684037 205.516118 
L 254.179425 205.838654 
L 253.817261 205.868286 
L 252.526761 205.742873 
L 252.253442 205.739659 
L 251.748472 205.894042 
L 251.335867 205.975543 
L 251.154352 206.057146 
L 250.961106 206.189241 
L 250.841506 206.3119 
L 250.749958 206.503361 
L 250.517135 207.390131 
L 250.36367 208.103646 
L 250.356173 208.410168 
L 250.387743 208.609228 
L 250.362242 208.768558 
L 250.252996 209.084616 
L 250.116668 209.384558 
L 249.964478 209.612485 
L 249.711713 209.465957 
L 249.510562 209.354008 
L 248.982387 209.326314 
L 248.367508 209.157549 
L 247.58004 208.702102 
L 247.390007 208.555574 
L 247.298611 208.434802 
L 247.084353 207.856491 
L 246.999945 207.725468 
L 246.941394 207.676353 
L 246.670371 207.60291 
L 246.121795 207.572411 
L 245.822771 207.673854 
L 245.593466 207.894335 
L 245.445918 208.073861 
L 245.407769 208.205854 
L 245.416133 208.566386 
L 245.506304 208.973942 
L 245.635849 209.189476 
L 246.484112 210.102817 
L 246.700768 210.256792 
L 247.717184 210.72249 
L 247.920528 210.864581 
L 248.184871 210.742993 
L 248.451406 210.678271 
L 248.637308 210.801339 
L 248.850445 210.814344 
L 249.109789 210.767575 
L 249.389229 210.644865 
L 249.567072 210.614672 
L 250.00018 210.65685 
L 250.454249 210.771554 
L 250.954935 210.721572 
L 251.557572 210.811386 
L 251.771678 210.926446 
L 251.891941 211.045281 
L 251.959824 211.175794 
L 252.037398 211.605128 
L 252.004298 211.910425 
L 251.847671 212.194556 
L 251.592968 212.501792 
L 251.25049 212.798877 
L 251.09162 212.903074 
L 250.858184 213.015176 
L 250.561659 213.113967 
L 249.99712 213.164561 
L 249.675655 213.132583 
L 249.109075 212.977333 
L 248.940769 212.896189 
L 248.483997 212.590994 
L 248.165898 212.419016 
L 247.588965 211.936997 
L 247.120156 211.764662 
L 246.792061 211.704684 
L 245.361255 212.559169 
L 244.533189 213.082244 
L 244.277312 213.497807 
L 244.320664 213.765312 
L 244.447812 214.019301 
L 244.4973 214.07805 
L 244.828286 214.470973 
L 244.940031 214.567622 
L 246.217627 215.353866 
L 246.36441 215.399972 
L 246.585197 215.415171 
L 247.244957 215.317706 
L 247.632776 215.158172 
L 247.910277 215.157407 
L 248.188594 215.218354 
L 248.378117 215.3225 
L 248.495727 215.407265 
L 248.734569 215.726486 
L 248.809133 215.926056 
L 248.805716 216.039433 
L 248.733702 216.251295 
L 248.601046 216.471674 
L 248.214758 216.886727 
L 247.998714 217.159026 
L 247.922925 217.320243 
L 247.882634 217.472433 
L 247.860652 217.781351 
L 247.945519 218.11373 
L 247.966073 218.35604 
L 247.94455 218.488083 
L 247.865854 218.626656 
L 247.689184 218.775989 
L 247.329774 218.932259 
L 246.55582 219.029723 
L 246.179682 218.96184 
L 246.09155 218.965563 
L 245.522829 219.163501 
L 245.126748 219.225315 
L 244.736635 219.236944 
L 244.321225 219.112907 
L 243.695432 219.043239 
L 243.379629 219.057774 
L 243.082594 219.101942 
L 242.817078 219.174925 
L 243.225246 220.140493 
L 243.350507 220.321651 
L 243.684161 220.559779 
L 244.163527 221.168741 
L 244.180154 221.362242 
L 244.052751 221.793871 
L 243.977932 221.907452 
L 243.853232 222.016443 
L 243.688802 222.090702 
L 243.382383 222.160319 
L 243.051126 222.176487 
L 242.832124 222.145529 
L 242.464757 222.026949 
L 242.196896 221.858133 
L 242.050112 221.629951 
L 241.948364 221.318381 
L 241.508269 220.426664 
L 241.238979 219.985192 
L 240.480326 220.384435 
L 240.183291 220.691772 
L 240.022024 220.818562 
L 239.735597 220.906949 
L 239.026824 220.906694 
L 238.570919 220.937805 
L 238.357986 220.983043 
L 238.160303 221.058781 
L 237.959712 221.172821 
L 237.71827 221.40386 
L 237.657169 221.540647 
L 237.624681 221.690184 
L 237.6231 221.879758 
L 237.678743 222.117937 
L 237.777585 222.274206 
L 237.913403 222.380851 
L 238.173011 222.479102 
L 238.198962 222.488924 
L 239.819342 222.82829 
L 240.368326 223.014345 
L 241.17742 223.352539 
L 241.539686 223.599949 
L 241.676167 223.749078 
L 241.690345 223.868881 
L 241.650003 223.942885 
L 241.31084 224.272816 
L 240.856873 224.83909 
L 240.331962 225.321006 
L 239.381542 226.111331 
L 239.078693 226.393371 
L 238.587239 226.943732 
L 238.489571 227.163958 
L 238.478707 227.416264 
L 238.571327 227.819689 
L 238.759218 228.283602 
L 238.888456 228.452775 
L 239.311007 228.870531 
L 239.508537 229.112994 
L 239.668683 229.391056 
L 239.813018 229.562627 
L 240.037477 229.690641 
L 240.918534 230.042656 
L 241.177369 230.119465 
L 241.806273 230.214124 
L 242.196947 230.369272 
L 242.623322 230.723837 
L 242.748175 230.957476 
L 242.790659 231.135269 
L 242.74078 231.33693 
L 242.6502 231.529972 
L 242.516473 231.692668 
L 242.196998 231.918912 
L 241.55111 232.147911 
L 241.014826 232.233798 
L 240.836472 232.200596 
L 239.454118 231.432559 
L 239.115568 231.486672 
L 237.841235 231.549404 
L 237.663443 231.580464 
L 236.728987 231.844756 
L 236.516003 231.643349 
L 236.192549 231.415983 
L 235.905409 231.258897 
L 235.662844 231.190504 
L 235.460724 231.191881 
L 235.375601 231.222788 
L 235.197248 231.370234 
L 235.068825 231.513346 
L 234.95963 231.681499 
L 234.801423 232.011991 
L 234.816723 232.182541 
L 234.876803 232.279496 
L 234.995638 232.343758 
L 235.023587 232.39986 
L 234.982938 232.592545 
L 234.829015 232.814403 
L 234.830647 232.930126 
L 234.894501 233.042177 
L 234.729459 233.584735 
L 234.724614 233.79114 
L 234.766741 233.971278 
L 234.820803 234.079453 
L 235.45292 234.719883 
L 235.800294 234.998659 
L 236.197802 235.174004 
L 236.712258 235.207818 
L 237.046065 235.191089 
L 237.618714 235.070878 
L 238.357425 234.711876 
L 238.719487 234.606098 
L 238.950934 234.635934 
L 239.147852 234.690812 
L 239.368639 234.809647 
L 239.816639 235.124481 
L 240.098016 235.449873 
L 240.212056 235.620117 
L 240.307685 235.808212 
L 240.360217 236.001713 
L 240.500676 236.019054 
L 240.651845 236.070413 
L 240.655416 236.383768 
L 240.597886 236.561254 
L 240.439525 236.822588 
L 240.323496 236.909393 
L 239.835306 237.064643 
L 239.625637 237.075251 
L 239.184012 237.160118 
L 238.779669 237.349386 
L 238.198401 237.5741 
L 237.911822 237.623113 
L 237.703938 237.619798 
L 237.406189 237.570632 
L 237.052236 237.458428 
L 235.549212 236.745881 
L 235.39794 236.630209 
L 234.848548 235.977079 
L 233.997939 235.084547 
L 233.916438 235.097603 
L 233.74395 235.184663 
L 233.239848 235.287534 
L 232.506288 235.351592 
L 231.965719 235.368168 
L 231.727796 235.404685 
L 231.386083 235.53576 
L 230.952924 235.807396 
L 230.712757 236.07128 
L 230.581274 236.309764 
L 230.522214 236.591804 
L 230.562352 236.908883 
L 230.648596 237.044599 
L 230.828939 237.242027 
L 231.030549 237.409874 
L 231.426528 237.561707 
L 232.743855 237.812738 
L 233.108212 237.939988 
L 233.472518 238.110487 
L 233.827287 238.339383 
L 234.526676 238.862917 
L 235.102486 239.238036 
L 235.348315 239.551493 
L 235.421167 239.731022 
L 235.526159 239.989752 
L 235.549467 240.238896 
L 235.491172 240.574692 
L 235.447208 240.700208 
L 235.365962 240.827713 
L 235.142829 241.010962 
L 234.442573 241.427903 
L 234.173233 241.496704 
L 234.0036 241.497724 
L 233.227148 241.415305 
L 233.112853 241.433717 
L 232.9676 241.489156 
L 232.566011 241.759211 
L 232.089501 241.971582 
L 231.841326 242.038038 
L 230.907227 242.170235 
L 230.771817 242.210883 
L 230.549041 242.34869 
L 230.428218 242.516744 
L 230.399656 242.556472 
L 230.342585 242.716566 
L 230.354928 242.954541 
L 230.480443 243.247343 
L 230.659409 243.545551 
L 231.01785 243.996203 
L 231.202783 244.146199 
L 232.646339 245.108656 
L 232.786849 245.271249 
L 232.874113 245.525494 
L 232.865494 245.717567 
L 232.734572 245.830485 
L 232.543927 246.003585 
L 232.224707 246.234981 
L 232.02279 246.507483 
L 231.713311 246.995673 
L 231.657617 247.161174 
L 231.566732 247.247979 
L 231.211096 247.443112 
L 230.972203 247.531601 
L 230.811751 247.545932 
L 230.387263 247.834807 
L 230.340035 247.995055 
L 230.297449 248.500993 
L 230.252159 248.589634 
L 230.169638 248.675776 
L 230.207736 248.759368 
L 231.115926 248.977299 
L 231.477989 249.023354 
L 231.654863 249.020804 
L 232.274485 248.892687 
L 232.666128 248.778749 
L 232.930929 248.667157 
L 233.160132 248.521394 
L 233.56473 248.062836 
L 233.440336 247.567455 
L 233.244693 247.087069 
L 233.175891 246.723017 
L 233.167527 246.352183 
L 233.25219 246.117574 
L 233.419221 245.815592 
L 233.66454 245.733326 
L 233.83713 245.776984 
L 234.034865 245.910558 
L 234.178843 246.007767 
L 235.232694 246.599389 
L 235.821613 247.031936 
L 236.099165 247.675171 
L 236.18546 248.002756 
L 236.158939 248.242006 
L 236.026079 248.525219 
L 235.644126 248.896461 
L 235.54401 249.050538 
L 235.543551 249.120054 
L 235.476024 249.213744 
L 235.105496 249.372258 
L 234.813408 249.333955 
L 234.671317 249.36119 
L 233.869364 249.616965 
L 233.211797 249.881052 
L 233.054303 249.87228 
L 232.796285 249.7486 
L 232.411425 249.842852 
L 232.03498 249.812608 
L 231.870448 249.888549 
L 231.733151 250.021205 
L 231.558214 250.302328 
L 231.531796 250.426211 
L 231.541384 250.561723 
L 231.588255 250.644652 
L 231.759366 250.807042 
L 232.454572 251.275698 
L 233.178033 251.622154 
L 233.431717 251.714518 
L 233.720591 251.781891 
L 234.347251 251.822438 
L 235.014304 251.742722 
L 235.897401 251.38321 
L 236.400229 251.097702 
L 236.736535 250.794036 
L 237.139093 250.326553 
L 237.346466 249.855092 
L 237.340142 249.437081 
L 237.231049 249.128571 
L 237.228142 249.026975 
L 237.269351 248.82919 
L 237.394 248.570713 
L 237.532368 248.384658 
L 237.790845 248.116541 
L 238.028718 247.983324 
L 238.233745 247.908861 
L 238.399961 247.900548 
L 238.753505 247.936606 
L 238.902533 248.004388 
L 239.151065 248.183812 
L 239.243617 248.389969 
L 239.263626 248.434538 
L 239.236544 249.283004 
L 239.025957 249.663835 
L 238.362321 250.442736 
L 237.568783 250.96219 
L 237.02796 251.400347 
L 236.757548 251.708857 
L 236.061321 252.592821 
L 235.821664 252.782038 
L 235.052352 253.223051 
L 234.970698 253.293229 
L 234.948971 253.348668 
L 235.012774 253.985988 
L 234.965598 254.166024 
L 234.891135 254.290622 
L 234.87512 254.398848 
L 234.986916 255.116954 
L 234.979776 255.87071 
L 235.059237 256.019687 
L 235.799682 256.85423 
L 235.800243 257.135913 
L 235.670188 257.453655 
L 236.173576 257.781648 
L 236.223813 257.852336 
L 236.371617 258.246683 
L 236.563588 258.604869 
L 236.788965 258.815557 
L 237.097118 259.002938 
L 237.148477 259.00049 
L 237.258743 258.824279 
L 237.37008 258.371841 
L 237.536295 258.150544 
L 237.594794 258.023703 
L 237.809257 257.190995 
L 237.933855 256.940831 
L 238.058809 256.803483 
L 238.197228 256.698623 
L 238.501352 256.56709 
L 238.783494 256.501042 
L 239.207065 256.515272 
L 239.531488 256.59106 
L 239.746665 256.724634 
L 239.900129 256.917472 
L 239.977499 257.140809 
L 239.959087 257.385669 
L 239.897579 257.611659 
L 239.772267 257.887834 
L 239.631553 258.335987 
L 239.441877 258.595943 
L 238.942773 259.042159 
L 238.855203 259.265241 
L 238.698168 259.267587 
L 238.577243 259.412432 
L 238.596726 259.554931 
L 238.423013 259.579463 
L 238.240937 259.545598 
L 238.16168 259.595835 
L 238.16168 259.729001 
L 238.140871 259.762866 
L 237.975472 259.844673 
L 237.81706 259.8435 
L 237.524973 259.885882 
L 237.616878 260.427471 
L 237.767129 261.023428 
L 237.899581 261.923764 
L 237.872907 262.895655 
L 237.838583 263.200544 
L 237.769743 263.562067 
L 237.735202 263.743459 
L 237.619275 264.025091 
L 237.44898 264.174476 
L 236.882043 264.436013 
L 236.383755 264.52598 
L 235.487551 264.563365 
L 234.892104 264.528479 
L 234.533663 264.482068 
L 234.457619 264.425609 
L 234.398355 264.257762 
L 234.026908 263.945477 
L 233.957903 263.916661 
L 233.562383 263.872902 
L 232.835301 263.921251 
L 232.577436 264.017135 
L 232.350171 264.174068 
L 232.241945 264.276224 
L 231.911249 264.766352 
L 231.89549 264.963831 
L 231.927468 265.556014 
L 231.944656 265.63012 
L 231.993515 265.694127 
L 232.208437 265.81495 
L 232.979432 266.131009 
L 233.291207 266.473945 
L 233.351236 266.592372 
L 233.454872 266.668874 
L 233.740278 266.752721 
L 234.00865 266.7822 
L 234.561153 266.985851 
L 235.845584 267.877159 
L 236.021234 268.13018 
L 236.067238 268.295681 
L 236.062851 268.366624 
L 235.906684 268.772242 
L 235.793715 269.195608 
L 235.618676 269.436439 
L 235.19276 269.682166 
L 234.938516 269.758924 
L 234.564468 269.805795 
L 234.237954 269.945132 
L 233.921589 270.143835 
L 233.721713 270.569853 
L 233.732373 270.938342 
L 228.685994 270.888462 
L 227.697578 270.892389 
L 226.289009 270.879384 
L 225.753999 270.875354 
L 225.624913 270.874181 
L 225.555602 270.873569 
L 225.383675 270.871274 
L 225.218225 270.865766 
L 223.02489 270.852251 
L 220.502848 270.840928 
L 219.976713 270.836695 
L 219.079743 270.849752 
L 218.721147 270.846357 
L 217.25352 270.832462 
L 216.695457 270.801759 
L 213.667171 270.798903 
L 213.012715 270.795435 
L 212.639739 270.817671 
L 212.631426 270.815325 
L 211.142222 270.813387 
L 210.702892 270.805176 
L 210.241071 270.809154 
L 210.191651 270.808732 
L 204.688957 270.761722 
L 203.692534 270.790232 
L 197.569251 270.753613 
L 193.750589 270.764221 
L 193.650779 270.768914 
L 187.676064 270.731427 
L 179.836059 270.684658 
L 176.27414 270.632484 
L 174.069381 270.619937 
L 172.693759 270.605708 
L 172.31507 270.601168 
L 167.241813 270.535223 
L 165.629084 270.527573 
L 165.507036 270.527522 
L 164.18069 270.513805 
L 154.923488 270.418072 
L 154.689134 270.413431 
L 154.298001 270.417001 
L 154.237318 270.416032 
L 154.224507 270.415828 
L 153.806139 270.416032 
L 150.575886 270.391092 
L 148.828307 270.349015 
L 148.151257 270.329992 
L 148.140394 270.328156 
L 147.636445 270.324993 
L 146.955927 270.328564 
L 142.924587 270.290567 
L 141.670757 270.270931 
L 140.774613 270.26553 
L 136.593574 270.24033 
L 136.467038 270.234924 
L 136.045712 270.233394 
L 135.048472 270.240636 
L 135.02491 270.242982 
L 134.092246 270.240938 
L 132.326503 270.237066 
L 130.130822 270.232221 
L 129.199988 270.209678 
L 128.029291 270.23013 
L 124.480888 270.221766 
L 124.46982 270.220593 
L 122.840056 270.212534 
L 120.964157 270.217788 
L 116.378682 270.19856 
L 116.375859 270.198581 
L 115.232976 270.207128 
L 115.181261 270.207165 
L 115.162237 270.207179 
L 113.628203 270.198305 
L 113.62703 270.198299 
L 113.427 270.197234 
L 113.091255 270.196928 
L 103.310425 270.155412 
L 99.146459 270.15929 
L 98.654976 270.159747 
L 87.948564 270.168163 
L 87.769649 270.171631 
L 87.368979 270.171325 
L 87.083113 270.169132 
L 87.005591 270.167551 
L 87.001918 267.093873 
L 87.010385 266.418506 
L 87.003398 264.319117 
L 86.999827 264.101237 
L 86.994319 263.830213 
L 87.018086 262.972617 
L 87.01013 260.958349 
L 87.009263 260.811413 
L 87.010079 260.171187 
L 87.017525 258.814333 
L 87.003551 258.390763 
L 87.001204 257.841167 
L 87.004265 257.314675 
L 87.004263 257.31385 
L 87.002487 255.946497 
L 87.000337 254.291744 
L 87.000337 253.432209 
L 87.000337 253.190155 
L 86.997226 252.850482 
L 87.010436 252.217396 
L 87.001051 251.883538 
L 87.002681 251.466281 
L 87.009518 249.7155 
L 87.004367 249.164731 
L 87.004367 248.919922 
L 86.994166 247.160358 
L 86.989525 246.104314 
L 86.991236 246.091583 
L 87.003296 246.001851 
L 86.984629 243.488684 
L 86.981926 243.024057 
L 86.980804 242.981827 
L 86.848709 243.029361 
L 86.635929 243.041499 
L 86.335834 242.21685 
L 85.490529 241.962759 
L 83.934667 242.058846 
L 82.877806 242.98963 
L 81.902345 241.682708 
L 80.920967 241.112456 
L 79.843349 240.943844 
L 78.418663 241.884216 
L 77.650422 242.948217 
L 76.436323 242.751707 
L 77.014123 241.733863 
L 76.310909 241.253323 
L 75.382829 242.342774 
L 74.885458 241.82638 
L 73.978288 241.759568 
L 73.407578 243.011408 
L 72.336131 242.959437 
L 71.936684 242.225521 
L 71.210877 242.555554 
L 70.888698 243.442017 
L 69.174883 243.03849 
L 69.405462 242.305644 
L 69.930373 241.84163 
L 69.513841 241.470387 
L 67.824149 241.708617 
L 66.94906 240.842503 
L 65.826152 240.634875 
L 66.12742 239.58694 
L 65.776884 238.244112 
L 64.648978 238.5668 
L 64.416307 238.615354 
L 64.431506 237.827732 
L 64.434005 237.313736 
L 64.485415 236.063119 
L 64.480519 235.875279 
L 64.520096 234.868503 
L 64.518362 234.593042 
L 64.569568 232.867598 
L 64.569976 232.856582 
L 64.574311 232.710818 
L 64.579156 232.575765 
L 64.621998 230.906883 
L 64.637247 230.564609 
L 64.64653 230.211166 
L 64.646836 230.199028 
L 64.686668 228.807748 
L 64.718289 227.728345 
L 64.767251 226.205072 
L 64.775003 226.190384 
L 64.849211 223.320305 
L 64.852724 223.158455 
L 64.867011 222.500247 
L 64.871142 222.320363 
L 64.976308 219.143457 
L 64.97626 219.038759 
L 64.976257 219.03212 
L 64.976257 219.030131 
L 65.211053 210.462482 
L 65.437773 202.189522 
L 65.459295 201.808283 
L 65.522997 199.606788 
L 65.541357 199.007414 
L 65.548753 198.746285 
L 65.677379 194.26465 
L 65.733022 192.336423 
L 65.733328 192.203563 
L 65.863485 187.762525 
L 65.861955 187.353694 
L 65.950461 184.776857 
L 66.012607 182.967462 
L 66.185377 177.937265 
L 66.234115 176.518248 
L 66.238859 176.350911 
L 66.242684 176.216215 
L 66.26487 175.506371 
L 66.294043 174.725889 
L 66.292615 174.542487 
L 66.284097 174.454917 
L 66.353673 172.513168 
L 66.434607 170.254403 
L 66.588636 165.955677 
L 66.693183 163.037896 
L 66.717562 162.574697 
L 66.770428 160.808196 
L 66.778968 160.522841 
L 66.781059 160.381566 
L 66.81416 159.597362 
L 66.804163 159.270695 
L 66.802735 159.081478 
L 66.83405 158.505718 
L 66.845424 158.383059 
L 66.879544 157.365878 
L 66.869548 156.940777 
L 66.879544 156.791291 
L 66.929679 156.388784 
L 66.969613 155.307239 
L 66.970581 155.280157 
L 66.975019 155.155916 
L 66.99491 155.072987 
L 66.996746 154.481774 
L 67.002356 154.277307 
L 67.056163 153.51233 
L 67.173468 150.635928 
L 67.163267 150.406419 
L 67.188768 150.294215 
L 67.091865 149.952503 
L 67.129096 149.722229 
L 67.075165 149.433502 
L 67.066364 149.386382 
L 67.154782 149.160457 
L 67.195614 149.056124 
L 67.204069 149.03452 
L 66.892628 147.308391 
L 66.265404 143.832067 
L 66.261503 143.810451 
L 65.908544 141.583634 
L 65.566756 139.427301 
L 65.527026 139.192437 
L 65.508665 139.10859 
L 65.467099 138.847052 
L 65.09096 136.576501 
L 64.329094 132.109197 
L 64.297218 131.951448 
L 64.056395 130.425175 
L 64.034456 130.286136 
L 63.973917 129.959163 
L 63.744613 128.676109 
L 63.71391 128.500153 
L 63.669079 128.20781 
L 63.656941 128.14773 
L 63.636642 128.014615 
L 63.54234 127.464815 
L 63.46956 126.997689 
L 63.408154 126.627467 
L 63.306711 126.001521 
L 62.799752 123.147202 
L 62.540306 121.495558 
L 62.540306 121.467558 
L 62.54153 121.462815 
L 62.527454 121.399827 
L 62.454317 120.99574 
L 62.43922 120.91021 
L 62.259592 119.893335 
L 62.252299 119.873495 
L 62.060226 118.761756 
L 61.979898 118.305188 
L 61.918389 118.005603 
L 61.873916 117.744014 
L 61.262353 114.201221 
L 61.254396 114.149709 
L 61.034409 112.928 
L 60.576378 110.384293 
L 60.492837 109.892686 
L 60.491577 109.885317 
L 60.347379 109.041466 
L 60.299794 108.769371 
L 60.061871 107.385843 
L 60.06115 107.382131 
L 60.033667 107.240641 
L 59.901623 106.411963 
L 59.876887 106.271963 
L 59.867146 106.22397 
L 59.819612 105.89817 
L 59.722912 105.414774 
L 59.723729 105.387642 
L 59.374473 103.292655 
L 59.299546 102.84321 
L 59.038516 101.183053 
L 58.932486 100.508702 
L 58.609848 98.374529 
L 58.494533 97.633319 
L 58.461943 97.472 
L 58.319902 96.622003 
L 58.00364 94.603401 
L 57.890365 93.852654 
L 57.814831 93.406693 
L 57.681818 92.671145 
" clip-path="url(#p6dc2476b8f)" style="fill: #ce0000"/>
   </g>
   <g id="PathCollection_1">
    <defs>
     <path id="m984d666798" d="M 0 1.581139 
C 0.419323 1.581139 0.821528 1.41454 1.118034 1.118034 
C 1.41454 0.821528 1.581139 0.419323 1.581139 0 
C 1.581139 -0.419323 1.41454 -0.821528 1.118034 -1.118034 
C 0.821528 -1.41454 0.419323 -1.581139 0 -1.581139 
C -0.419323 -1.581139 -0.821528 -1.41454 -1.118034 -1.118034 
C -1.41454 -0.821528 -1.581139 -0.419323 -1.581139 0 
C -1.581139 0.419323 -1.41454 0.821528 -1.118034 1.118034 
C -0.821528 1.41454 -0.419323 1.581139 0 1.581139 
z
" style="stroke: #000000"/>
    </defs>
    <g clip-path="url(#p6dc2476b8f)">
     <use xlink:href="#m984d666798" x="176.461725" y="182.06725" style="stroke: #000000"/>
    </g>
   </g>
   <g id="text_1">
    <!-- Little Rock -->
    <g transform="translate(179.461725 179.06725) scale(0.1 -0.1)">
     <defs>
      <path id="DejaVuSans-4c" d="M 628 4666 
L 1259 4666 
L 1259 531 
L 3531 531 
L 3531 0 
L 628 0 
L 628 4666 
z
" transform="scale(0.015625)"/>
      <path id="DejaVuSans-69" d="M 603 3500 
L 1178 3500 
L 1178 0 
L 603 0 
L 603 3500 
z
M 603 4863 
L 1178 4863 
L 1178 4134 
L 603 4134 
L 603 4863 
z
" transform="scale(0.015625)"/>
      <path id="DejaVuSans-74" d="M 1172 4494 
L 1172 3500 
L 2356 3500 
L 2356 3053 
L 1172 3053 
L 1172 1153 
Q 1172 725 1289 603 
Q 1406 481 1766 481 
L 2356 481 
L 2356 0 
L 1766 0 
Q 1100 0 847 248 
Q 594 497 594 1153 
L 594 3053 
L 172 3053 
L 172 3500 
L 594 3500 
L 594 4494 
L 1172 4494 
z
" transform="scale(0.015625)"/>
      <path id="DejaVuSans-6c" d="M 603 4863 
L 1178 4863 
L 1178 0 
L 603 0 
L 603 4863 
z
" transform="scale(0.015625)"/>
      <path id="DejaVuSans-65" d="M 3597 1894 
L 3597 1613 
L 953 1613 
Q 991 1019 1311 708 
Q 1631 397 2203 397 
Q 2534 397 2845 478 
Q 3156 559 3463 722 
L 3463 178 
Q 3153 47 2828 -22 
Q 2503 -91 2169 -91 
Q 1331 -91 842 396 
Q 353 884 353 1716 
Q 353 2575 817 3079 
Q 1281 3584 2069 3584 
Q 2775 3584 3186 3129 
Q 3597 2675 3597 1894 
z
M 3022 2063 
Q 3016 2534 2758 2815 
Q 2500 3097 2075 3097 
Q 1594 3097 1305 2825 
Q 1016 2553 972 2059 
L 3022 2063 
z
" transform="scale(0.015625)"/>
      <path id="DejaVuSans-20" transform="scale(0.015625)"/>
      <path id="DejaVuSans-52" d="M 2841 2188 
Q 3044 2119 3236 1894 
Q 3428 1669 3622 1275 
L 4263 0 
L 3584 0 
L 2988 1197 
Q 2756 1666 2539 1819 
Q 2322 1972 1947 1972 
L 1259 1972 
L 1259 0 
L 628 0 
L 628 4666 
L 2053 4666 
Q 2853 4666 3247 4331 
Q 3641 3997 3641 3322 
Q 3641 2881 3436 2590 
Q 3231 2300 2841 2188 
z
M 1259 4147 
L 1259 2491 
L 2053 2491 
Q 2509 2491 2742 2702 
Q 2975 2913 2975 3322 
Q 2975 3731 2742 3939 
Q 2509 4147 2053 4147 
L 1259 4147 
z
" transform="scale(0.015625)"/>
      <path id="DejaVuSans-6f" d="M 1959 3097 
Q 1497 3097 1228 2736 
Q 959 2375 959 1747 
Q 959 1119 1226 758 
Q 1494 397 1959 397 
Q 2419 397 2687 759 
Q 2956 1122 2956 1747 
Q 2956 2369 2687 2733 
Q 2419 3097 1959 3097 
z
M 1959 3584 
Q 2709 3584 3137 3096 
Q 3566 2609 3566 1747 
Q 3566 888 3137 398 
Q 2709 -91 1959 -91 
Q 1206 -91 779 398 
Q 353 888 353 1747 
Q 353 2609 779 3096 
Q 1206 3584 1959 3584 
z
" transform="scale(0.015625)"/>
      <path id="DejaVuSans-63" d="M 3122 3366 
L 3122 2828 
Q 2878 2963 2633 3030 
Q 2388 3097 2138 3097 
Q 1578 3097 1268 2742 
Q 959 2388 959 1747 
Q 959 1106 1268 751 
Q 1578 397 2138 397 
Q 2388 397 2633 464 
Q 2878 531 3122 666 
L 3122 134 
Q 2881 22 2623 -34 
Q 2366 -91 2075 -91 
Q 1284 -91 818 406 
Q 353 903 353 1747 
Q 353 2603 823 3093 
Q 1294 3584 2113 3584 
Q 2378 3584 2631 3529 
Q 2884 3475 3122 3366 
z
" transform="scale(0.015625)"/>
      <path id="DejaVuSans-6b" d="M 581 4863 
L 1159 4863 
L 1159 1991 
L 2875 3500 
L 3609 3500 
L 1753 1863 
L 3688 0 
L 2938 0 
L 1159 1709 
L 1159 0 
L 581 0 
L 581 4863 
z
" transform="scale(0.015625)"/>
     </defs>
     <use xlink:href="#DejaVuSans-4c"/>
     <use xlink:href="#DejaVuSans-69" x="55.712891"/>
     <use xlink:href="#DejaVuSans-74" x="83.496094"/>
     <use xlink:href="#DejaVuSans-74" x="122.705078"/>
     <use xlink:href="#DejaVuSans-6c" x="161.914062"/>
     <use xlink:href="#DejaVuSans-65" x="189.697266"/>
     <use xlink:href="#DejaVuSans-20" x="251.220703"/>
     <use xlink:href="#DejaVuSans-52" x="283.007812"/>
     <use xlink:href="#DejaVuSans-6f" x="347.990234"/>
     <use xlink:href="#DejaVuSans-63" x="409.171875"/>
     <use xlink:href="#DejaVuSans-6b" x="464.152344"/>
    </g>
   </g>
   <g id="text_2">
    <!-- Arkansas -->
    <g transform="translate(157.152187 77.747824) scale(0.12 -0.12)">
     <defs>
      <path id="DejaVuSans-41" d="M 2188 4044 
L 1331 1722 
L 3047 1722 
L 2188 4044 
z
M 1831 4666 
L 2547 4666 
L 4325 0 
L 3669 0 
L 3244 1197 
L 1141 1197 
L 716 0 
L 50 0 
L 1831 4666 
z
" transform="scale(0.015625)"/>
      <path id="DejaVuSans-72" d="M 2631 2963 
Q 2534 3019 2420 3045 
Q 2306 3072 2169 3072 
Q 1681 3072 1420 2755 
Q 1159 2438 1159 1844 
L 1159 0 
L 581 0 
L 581 3500 
L 1159 3500 
L 1159 2956 
Q 1341 3275 1631 3429 
Q 1922 3584 2338 3584 
Q 2397 3584 2469 3576 
Q 2541 3569 2628 3553 
L 2631 2963 
z
" transform="scale(0.015625)"/>
      <path id="DejaVuSans-61" d="M 2194 1759 
Q 1497 1759 1228 1600 
Q 959 1441 959 1056 
Q 959 750 1161 570 
Q 1363 391 1709 391 
Q 2188 391 2477 730 
Q 2766 1069 2766 1631 
L 2766 1759 
L 2194 1759 
z
M 3341 1997 
L 3341 0 
L 2766 0 
L 2766 531 
Q 2569 213 2275 61 
Q 1981 -91 1556 -91 
Q 1019 -91 701 211 
Q 384 513 384 1019 
Q 384 1609 779 1909 
Q 1175 2209 1959 2209 
L 2766 2209 
L 2766 2266 
Q 2766 2663 2505 2880 
Q 2244 3097 1772 3097 
Q 1472 3097 1187 3025 
Q 903 2953 641 2809 
L 641 3341 
Q 956 3463 1253 3523 
Q 1550 3584 1831 3584 
Q 2591 3584 2966 3190 
Q 3341 2797 3341 1997 
z
" transform="scale(0.015625)"/>
      <path id="DejaVuSans-6e" d="M 3513 2113 
L 3513 0 
L 2938 0 
L 2938 2094 
Q 2938 2591 2744 2837 
Q 2550 3084 2163 3084 
Q 1697 3084 1428 2787 
Q 1159 2491 1159 1978 
L 1159 0 
L 581 0 
L 581 3500 
L 1159 3500 
L 1159 2956 
Q 1366 3272 1645 3428 
Q 1925 3584 2291 3584 
Q 2894 3584 3203 3211 
Q 3513 2838 3513 2113 
z
" transform="scale(0.015625)"/>
      <path id="DejaVuSans-73" d="M 2834 3397 
L 2834 2853 
Q 2591 2978 2328 3040 
Q 2066 3103 1784 3103 
Q 1356 3103 1142 2972 
Q 928 2841 928 2578 
Q 928 2378 1081 2264 
Q 1234 2150 1697 2047 
L 1894 2003 
Q 2506 1872 2764 1633 
Q 3022 1394 3022 966 
Q 3022 478 2636 193 
Q 2250 -91 1575 -91 
Q 1294 -91 989 -36 
Q 684 19 347 128 
L 347 722 
Q 666 556 975 473 
Q 1284 391 1588 391 
Q 1994 391 2212 530 
Q 2431 669 2431 922 
Q 2431 1156 2273 1281 
Q 2116 1406 1581 1522 
L 1381 1569 
Q 847 1681 609 1914 
Q 372 2147 372 2553 
Q 372 3047 722 3315 
Q 1072 3584 1716 3584 
Q 2034 3584 2315 3537 
Q 2597 3491 2834 3397 
z
" transform="scale(0.015625)"/>
     </defs>
     <use xlink:href="#DejaVuSans-41"/>
     <use xlink:href="#DejaVuSans-72" x="68.408203"/>
     <use xlink:href="#DejaVuSans-6b" x="109.521484"/>
     <use xlink:href="#DejaVuSans-61" x="165.681641"/>
     <use xlink:href="#DejaVuSans-6e" x="226.960938"/>
     <use xlink:href="#DejaVuSans-73" x="290.339844"/>
     <use xlink:href="#DejaVuSans-61" x="342.439453"/>
     <use xlink:href="#DejaVuSans-73" x="403.71875"/>
    </g>
   </g>
  </g>
 </g>
 <defs>
  <clipPath id="p6dc2476b8f">
   <rect x="45" y="83.747824" width="279" height="196.104352"/>
  </clipPath>
 </defs>
</svg>
