<?xml version="1.0" encoding="utf-8" standalone="no"?>
<!DOCTYPE svg PUBLIC "-//W3C//DTD SVG 1.1//EN"
  "http://www.w3.org/Graphics/SVG/1.1/DTD/svg11.dtd">
<svg xmlns:xlink="http://www.w3.org/1999/xlink" width="460.8pt" height="345.6pt" viewBox="0 0 460.8 345.6" xmlns="http://www.w3.org/2000/svg" version="1.1">
 <metadata>
  <rdf:RDF xmlns:dc="http://purl.org/dc/elements/1.1/" xmlns:cc="http://creativecommons.org/ns#" xmlns:rdf="http://www.w3.org/1999/02/22-rdf-syntax-ns#">
   <cc:Work>
    <dc:type rdf:resource="http://purl.org/dc/dcmitype/StillImage"/>
    <dc:date>2023-06-19T14:47:53.202705</dc:date>
    <dc:format>image/svg+xml</dc:format>
    <dc:creator>
     <cc:Agent>
      <dc:title>Matplotlib v3.7.1, https://matplotlib.org/</dc:title>
     </cc:Agent>
    </dc:creator>
   </cc:Work>
  </rdf:RDF>
 </metadata>
 <defs>
  <style type="text/css">*{stroke-linejoin: round; stroke-linecap: butt}</style>
 </defs>
 <g id="figure_1">
  <g id="patch_1">
   <path d="M 0 345.6 
L 460.8 345.6 
L 460.8 0 
L 0 0 
z
" style="fill: #ffffff"/>
  </g>
  <g id="axes_1">
   <g id="PatchCollection_1">
    <path d="M 333.820878 294.374052 
L 334.096381 293.994225 
L 334.764615 294.024589 
L 335.188031 294.455069 
L 335.422687 295.28042 
L 335.162527 295.477925 
L 334.626863 295.488 
L 333.989248 295.270276 
L 333.820878 294.374052 
" clip-path="url(#pbf33d4e3f6)" style="fill: #ffc733"/>
    <path d="M 242.566733 272.628811 
L 243.347012 272.040231 
L 245.158443 272.209096 
L 246.980978 271.967081 
L 248.775586 271.957558 
L 249.348195 272.428201 
L 249.191399 273.639728 
L 249.049744 274.993828 
L 248.744698 275.110178 
L 248.02384 274.959186 
L 246.945783 274.520425 
L 246.242018 274.730282 
L 245.496396 275.388837 
L 244.904878 276.138761 
L 244.475943 276.093215 
L 244.037991 275.525131 
L 243.084698 273.938607 
L 242.566733 272.628811 
" clip-path="url(#pbf33d4e3f6)" style="fill: #ffc733"/>
    <path d="M 231.281927 268.695074 
L 231.752181 268.319802 
L 232.430374 268.469276 
L 233.947258 268.691417 
L 234.888236 268.699008 
L 235.769928 268.565613 
L 236.048325 268.176608 
L 236.219455 268.031688 
L 236.543679 268.218289 
L 236.486815 269.084287 
L 236.734392 269.775484 
L 236.301015 270.698828 
L 235.737694 269.963258 
L 235.408422 269.48247 
L 234.620472 269.360738 
L 233.749749 269.400004 
L 233.079698 269.970504 
L 232.452716 270.167664 
L 231.473851 269.248529 
L 231.281927 268.695074 
" clip-path="url(#pbf33d4e3f6)" style="fill: #ffc733"/>
    <path d="M 153.238353 279.445203 
L 154.165468 278.819979 
L 154.720445 278.306619 
L 154.999785 278.064328 
L 155.647965 277.717487 
L 156.511689 277.328067 
L 157.411079 277.206197 
L 158.921973 277.209648 
L 159.864567 277.449593 
L 160.199522 277.301324 
L 160.41988 277.203782 
L 161.66873 276.159119 
L 162.293357 275.430105 
L 163.014282 274.887968 
L 163.78514 274.486886 
L 165.044892 273.198966 
L 165.817499 274.358115 
L 167.124021 274.43016 
L 168.289089 274.523806 
L 169.010015 274.736493 
L 170.902334 274.675212 
L 171.358927 274.352456 
L 172.398895 274.286276 
L 172.425476 275.216521 
L 173.086846 276.580697 
L 173.488661 276.858321 
L 173.252256 277.284592 
L 172.696404 277.260162 
L 172.437051 277.073354 
L 171.726287 276.08659 
L 171.333691 276.30742 
L 169.706647 276.961835 
L 167.956789 276.656262 
L 167.157601 277.129252 
L 165.602763 277.442278 
L 164.635271 277.900638 
L 163.45136 278.740757 
L 163.123232 279.940345 
L 162.80867 280.199664 
L 161.689188 281.122543 
L 160.41019 282.533093 
L 159.108648 283.148518 
L 157.37871 282.013246 
L 156.474206 280.368479 
L 155.168223 280.292983 
L 154.427782 280.155654 
L 153.248245 279.63912 
L 153.238353 279.445203 
" clip-path="url(#pbf33d4e3f6)" style="fill: #ffc733"/>
    <path d="M 136.915213 53.869157 
L 137.045092 53.755291 
L 137.266087 53.673308 
L 137.987146 53.568 
L 138.304574 53.685247 
L 138.475637 53.884063 
L 138.49596 54.17121 
L 138.190712 54.422473 
L 137.779408 54.725217 
L 137.500608 54.787325 
L 137.074163 54.449801 
L 136.897313 54.048167 
L 136.915213 53.869157 
" clip-path="url(#pbf33d4e3f6)" style="fill: #ffc733"/>
   </g>
   <g id="text_1">
    <!-- AS -->
    <g transform="translate(228.246563 35.472) scale(0.12 -0.12)">
     <defs>
      <path id="DejaVuSans-41" d="M 2188 4044 
L 1331 1722 
L 3047 1722 
L 2188 4044 
z
M 1831 4666 
L 2547 4666 
L 4325 0 
L 3669 0 
L 3244 1197 
L 1141 1197 
L 716 0 
L 50 0 
L 1831 4666 
z
" transform="scale(0.015625)"/>
      <path id="DejaVuSans-53" d="M 3425 4513 
L 3425 3897 
Q 3066 4069 2747 4153 
Q 2428 4238 2131 4238 
Q 1616 4238 1336 4038 
Q 1056 3838 1056 3469 
Q 1056 3159 1242 3001 
Q 1428 2844 1947 2747 
L 2328 2669 
Q 3034 2534 3370 2195 
Q 3706 1856 3706 1288 
Q 3706 609 3251 259 
Q 2797 -91 1919 -91 
Q 1588 -91 1214 -16 
Q 841 59 441 206 
L 441 856 
Q 825 641 1194 531 
Q 1563 422 1919 422 
Q 2459 422 2753 634 
Q 3047 847 3047 1241 
Q 3047 1584 2836 1778 
Q 2625 1972 2144 2069 
L 1759 2144 
Q 1053 2284 737 2584 
Q 422 2884 422 3419 
Q 422 4038 858 4394 
Q 1294 4750 2059 4750 
Q 2388 4750 2728 4690 
Q 3069 4631 3425 4513 
z
" transform="scale(0.015625)"/>
     </defs>
     <use xlink:href="#DejaVuSans-41"/>
     <use xlink:href="#DejaVuSans-53" x="68.408203"/>
    </g>
   </g>
  </g>
 </g>
 <defs>
  <clipPath id="pbf33d4e3f6">
   <rect x="126.971044" y="41.472" width="218.377911" height="266.112"/>
  </clipPath>
 </defs>
</svg>
