<?xml version="1.0" encoding="utf-8" standalone="no"?>
<!DOCTYPE svg PUBLIC "-//W3C//DTD SVG 1.1//EN"
  "http://www.w3.org/Graphics/SVG/1.1/DTD/svg11.dtd">
<svg xmlns:xlink="http://www.w3.org/1999/xlink" width="460.8pt" height="345.6pt" viewBox="0 0 460.8 345.6" xmlns="http://www.w3.org/2000/svg" version="1.1">
 <metadata>
  <rdf:RDF xmlns:dc="http://purl.org/dc/elements/1.1/" xmlns:cc="http://creativecommons.org/ns#" xmlns:rdf="http://www.w3.org/1999/02/22-rdf-syntax-ns#">
   <cc:Work>
    <dc:type rdf:resource="http://purl.org/dc/dcmitype/StillImage"/>
    <dc:date>2023-06-19T14:47:46.977896</dc:date>
    <dc:format>image/svg+xml</dc:format>
    <dc:creator>
     <cc:Agent>
      <dc:title>Matplotlib v3.7.1, https://matplotlib.org/</dc:title>
     </cc:Agent>
    </dc:creator>
   </cc:Work>
  </rdf:RDF>
 </metadata>
 <defs>
  <style type="text/css">*{stroke-linejoin: round; stroke-linecap: butt}</style>
 </defs>
 <g id="figure_1">
  <g id="patch_1">
   <path d="M 0 345.6 
L 460.8 345.6 
L 460.8 0 
L 0 0 
z
" style="fill: #ffffff"/>
  </g>
  <g id="axes_1">
   <g id="PatchCollection_1">
    <path d="M 134.881012 241.686155 
L 134.538355 240.683941 
L 134.955754 240.365808 
L 135.496736 240.125384 
L 136.106708 239.307508 
L 137.324077 237.198331 
L 137.338616 237.162846 
L 137.337028 236.96567 
L 137.59605 236.591493 
L 137.705905 236.348723 
L 137.775354 236.225419 
L 137.841591 235.965078 
L 137.886267 235.85282 
L 138.196988 235.375513 
L 138.331051 235.206316 
L 138.372516 235.203374 
L 138.441435 235.236257 
L 138.794715 235.542108 
L 138.953551 235.547994 
L 139.152793 235.58736 
L 139.207174 235.60425 
L 139.545879 235.689211 
L 139.851235 235.706101 
L 139.871703 235.707423 
L 140.774186 235.833371 
L 141.279279 235.944307 
L 141.374693 235.935993 
L 141.377665 235.935734 
L 141.372443 235.893893 
L 141.406355 235.695054 
L 144.077 234.720052 
L 144.508832 234.713868 
L 144.452829 234.279596 
L 144.333269 233.98155 
L 144.31206 233.868141 
L 144.336269 233.630149 
L 144.338986 233.259853 
L 144.37124 233.161756 
L 144.438501 233.041394 
L 144.679102 232.812444 
L 144.737188 232.731322 
L 144.759314 232.641797 
L 144.913492 232.396 
L 145.096008 232.183683 
L 145.568529 231.940487 
L 145.587691 231.931658 
L 145.664198 231.890628 
L 146.307306 231.233547 
L 146.551542 230.957979 
L 146.672407 229.693206 
L 146.666443 229.506309 
L 146.666443 229.496542 
L 146.757772 228.53843 
L 146.764759 228.279965 
L 146.739315 228.120536 
L 146.711155 228.05882 
L 146.384201 227.74043 
L 146.28091 227.611027 
L 146.197451 227.412145 
L 146.129873 227.115252 
L 146.136225 227.039546 
L 146.216825 226.889073 
L 146.372591 226.693092 
L 146.485834 226.514683 
L 146.546531 226.372229 
L 146.595336 226.216552 
L 146.611498 226.030935 
L 146.597665 225.767096 
L 146.549142 225.535331 
L 146.480364 225.460052 
L 146.29799 225.412794 
L 146.147623 225.476899 
L 146.115933 225.545183 
L 145.85797 225.635518 
L 145.804895 225.63812 
L 145.705768 225.557253 
L 145.66081 225.451436 
L 145.607876 225.203463 
L 145.551308 224.717327 
L 145.46372 224.187133 
L 145.355241 223.877998 
L 145.240234 223.628191 
L 145.056272 223.353306 
L 144.930749 223.22241 
L 144.874855 223.177718 
L 144.746187 223.074837 
L 144.62451 223.033167 
L 144.099373 222.928203 
L 143.579564 222.90466 
L 142.927986 222.791635 
L 142.804192 222.795132 
L 142.693878 222.844906 
L 142.583882 222.965608 
L 142.465276 223.149604 
L 142.38704 223.204454 
L 142.288371 223.235034 
L 141.891863 223.269923 
L 141.264634 223.193492 
L 141.017646 223.09821 
L 140.929211 223.029286 
L 140.721112 222.68923 
L 140.531856 222.421978 
L 140.458843 222.353524 
L 140.305053 222.267923 
L 140.198445 222.359196 
L 139.985404 222.771034 
L 139.886983 222.911015 
L 139.816228 222.96049 
L 139.728535 222.960234 
L 139.631737 222.907475 
L 139.429072 222.733629 
L 139.328286 222.566736 
L 139.277293 222.326398 
L 139.305807 221.915285 
L 138.857812 221.326786 
L 138.782681 221.107006 
L 138.776082 220.976621 
L 138.801137 220.819239 
L 138.78621 220.769466 
L 138.66171 220.694826 
L 138.588309 220.67606 
L 138.357624 220.670003 
L 138.231818 220.640873 
L 138.16978 220.593573 
L 138.12281 220.468094 
L 138.120093 220.198113 
L 138.180825 219.861042 
L 138.268801 219.501323 
L 138.510637 218.75749 
L 138.751803 218.472837 
L 138.854883 218.288883 
L 138.946105 218.036176 
L 139.025011 217.733653 
L 139.127138 217.55004 
L 139.14937 217.40379 
L 139.095766 217.115085 
L 139.138607 216.900935 
L 139.251638 216.611676 
L 139.268259 216.442394 
L 139.274258 216.327663 
L 139.168814 215.841228 
L 139.148664 215.676425 
L 139.243133 215.361362 
L 139.32631 215.002667 
L 139.32945 214.837351 
L 139.299349 214.735714 
L 139.171673 214.53116 
L 139.008143 214.334198 
L 138.772059 213.893528 
L 138.767824 213.843285 
L 138.814971 213.777687 
L 139.298925 213.452218 
L 139.383725 213.328444 
L 139.37268 213.244379 
L 139.209256 212.830665 
L 139.086626 212.685353 
L 138.950551 212.580943 
L 138.594625 212.420533 
L 138.29735 212.329686 
L 138.003604 212.268866 
L 137.767943 212.191454 
L 137.634021 212.113616 
L 137.577946 212.066828 
L 137.296904 211.454573 
L 137.296939 211.386118 
L 137.34345 211.313355 
L 137.565101 211.041882 
L 138.017896 210.679476 
L 138.117764 210.559456 
L 138.213785 210.374095 
L 138.365634 209.979701 
L 138.468079 209.321682 
L 138.463315 209.145405 
L 138.432154 208.950362 
L 138.139431 208.290125 
L 138.151394 208.119265 
L 138.140772 208.037887 
L 138.102025 207.969432 
L 137.918733 207.794136 
L 137.591603 207.345362 
L 137.506204 207.193397 
L 137.497628 207.120293 
L 137.506557 207.077983 
L 137.557832 207.014732 
L 137.69066 206.956727 
L 138.014861 206.983895 
L 138.337615 206.935529 
L 138.479654 206.826598 
L 138.511484 206.777763 
L 138.522106 206.693655 
L 138.552067 206.648104 
L 138.823863 206.527956 
L 139.319746 206.512815 
L 139.867398 206.737287 
L 140.063393 206.742149 
L 140.179424 206.711825 
L 140.399557 206.579095 
L 140.68607 206.323999 
L 140.881677 206.093172 
L 140.970429 205.862174 
L 141.141299 205.264889 
L 141.102057 204.969233 
L 141.11889 204.880903 
L 141.48752 204.27496 
L 141.650874 204.101541 
L 141.867796 203.82175 
L 141.937774 203.697167 
L 142.023527 203.426845 
L 142.225698 203.051942 
L 142.342681 202.923563 
L 142.616913 202.752447 
L 142.853738 202.706469 
L 143.002799 202.634986 
L 143.305227 202.314251 
L 143.319731 202.248867 
L 143.309744 201.990316 
L 143.356608 201.717777 
L 143.378099 201.671074 
L 143.974026 201.216329 
L 144.58848 200.800482 
L 144.59582 200.738552 
L 144.509609 200.577204 
L 144.198006 200.094309 
L 144.187384 200.078699 
L 144.034406 199.589876 
L 144.023219 199.129373 
L 144.426609 198.479457 
L 144.511444 198.386435 
L 144.580928 198.278955 
L 144.587774 198.154883 
L 144.546698 198.055591 
L 144.47065 197.959584 
L 144.409811 197.790899 
L 144.402965 197.592401 
L 144.450888 197.476561 
L 144.505621 197.35249 
L 144.505621 197.162223 
L 144.471391 196.99678 
L 144.430349 196.880983 
L 144.396119 196.732088 
L 144.389273 196.624565 
L 144.457734 196.500493 
L 144.505621 196.392927 
L 144.546698 196.326776 
L 144.567236 196.285404 
L 144.574082 196.219253 
L 144.567236 196.13651 
L 144.539851 196.07859 
L 144.505621 196.020712 
L 144.457734 195.946244 
L 144.408258 195.861496 
L 144.36263 195.730515 
L 144.344138 195.559655 
L 144.385603 195.383208 
L 144.476155 195.236531 
L 144.611065 195.100261 
L 144.782076 194.989624 
L 145.018654 194.869818 
L 145.280358 194.795605 
L 145.580457 194.630162 
L 145.607629 194.563925 
L 145.661339 194.160105 
L 145.636496 193.882532 
L 145.577775 193.681006 
L 145.428749 193.550963 
L 145.362652 193.449454 
L 145.309189 193.301413 
L 145.216626 193.196363 
L 145.094314 193.126927 
L 145.020807 193.038725 
L 145.166974 192.724259 
L 145.244822 192.521368 
L 145.298355 192.322871 
L 145.303402 192.09328 
L 145.284946 191.919094 
L 145.206392 191.600704 
L 144.866029 190.729984 
L 144.747457 190.255364 
L 144.466697 189.5947 
L 144.498069 189.542324 
L 144.655 189.423413 
L 144.724908 189.293242 
L 144.751833 189.150361 
L 144.734365 189.048127 
L 144.630474 188.726325 
L 144.555308 188.585961 
L 144.412105 188.182952 
L 144.419586 188.025484 
L 144.452546 187.89011 
L 144.511832 187.786553 
L 144.590915 187.738784 
L 144.863311 187.75401 
L 144.938759 187.731917 
L 145.257597 187.491451 
L 145.319388 187.428413 
L 145.350089 187.332704 
L 145.33675 187.033294 
L 145.303402 186.953792 
L 145.016607 186.697801 
L 144.874251 186.568057 
L 144.828128 186.472476 
L 144.801767 186.400822 
L 144.788604 186.321193 
L 144.795203 186.257472 
L 144.828128 186.185776 
L 144.88085 186.130031 
L 144.972566 186.054837 
L 145.070353 186.006215 
L 145.149259 185.94049 
L 145.174667 185.89046 
L 145.177067 185.805414 
L 145.154552 185.707701 
L 145.050344 185.494702 
L 144.806037 185.220626 
L 144.56159 185.017864 
L 144.454875 184.958067 
L 144.268055 184.85579 
L 144.221897 184.752276 
L 144.20457 184.489887 
L 144.444465 183.928344 
L 144.680126 183.59541 
L 144.896871 183.489508 
L 145.060225 183.534974 
L 145.11891 183.52542 
L 145.460685 183.332424 
L 145.631343 183.117207 
L 145.993516 182.746826 
L 146.053048 182.651885 
L 146.080009 182.547987 
L 146.110993 182.501924 
L 146.306777 182.367019 
L 146.475071 182.212793 
L 146.588207 182.00649 
L 146.649787 181.981411 
L 146.784238 181.967933 
L 146.826832 181.929292 
L 146.858804 181.84561 
L 146.853476 181.736168 
L 146.768253 181.510885 
L 146.757595 181.420764 
L 146.768253 181.343523 
L 146.826832 181.272722 
L 146.906727 181.240563 
L 147.051377 181.234891 
L 147.213742 181.166393 
L 147.439063 181.012764 
L 147.554847 180.878286 
L 147.635094 180.73839 
L 147.709025 180.504919 
L 147.752148 180.091162 
L 147.732563 179.885115 
L 147.623237 179.561394 
L 147.594864 179.407637 
L 147.597194 179.233493 
L 147.655668 178.634502 
L 147.735209 178.302251 
L 147.77925 177.975885 
L 147.807517 177.931784 
L 147.996454 177.745229 
L 148.062022 177.563749 
L 148.262076 177.289759 
L 148.424088 177.111904 
L 148.573255 177.009755 
L 148.775814 176.945395 
L 148.937756 176.940618 
L 149.31842 177.007494 
L 149.71828 176.755683 
L 150.068948 176.69047 
L 150.166911 176.645345 
L 150.382845 176.432005 
L 150.525025 176.13976 
L 150.642961 176.024943 
L 150.818665 175.967919 
L 151.240017 175.98596 
L 151.647112 175.869779 
L 151.781176 175.789766 
L 152.083639 175.527846 
L 152.768247 174.591699 
L 152.962761 174.429455 
L 153.387183 174.360318 
L 153.634206 174.443061 
L 154.1327 174.288621 
L 154.483827 174.041501 
L 154.606598 173.887659 
L 154.994672 173.730021 
L 155.089282 173.647364 
L 155.163142 173.432829 
L 155.130676 173.096824 
L 155.154214 173.017152 
L 155.218087 172.953432 
L 155.49793 172.790505 
L 155.628253 172.680337 
L 155.752047 172.511184 
L 156.365266 171.856363 
L 156.817884 171.46777 
L 156.876005 171.401959 
L 156.892061 171.351503 
L 156.949441 171.233232 
L 156.991894 171.158251 
L 157.224202 171.054993 
L 157.296898 170.968838 
L 157.318389 170.897099 
L 157.344679 170.818707 
L 157.390414 170.73976 
L 157.465545 170.688408 
L 157.565907 170.681029 
L 157.689666 170.686403 
L 157.907999 170.632023 
L 157.991987 170.629507 
L 158.193982 170.633132 
L 158.295262 170.558152 
L 158.350772 170.463381 
L 158.3573 170.341016 
L 158.345267 170.231061 
L 158.278111 170.000234 
L 158.264913 169.887593 
L 158.300026 169.724879 
L 158.218332 169.395144 
L 158.177079 169.084645 
L 158.225319 168.867466 
L 158.221261 168.769625 
L 158.127815 168.654936 
L 157.55345 168.145555 
L 157.144061 167.222119 
L 157.001563 166.988988 
L 156.858148 166.804437 
L 156.708664 166.681603 
L 156.553004 166.58777 
L 156.357573 166.5136 
L 156.061568 166.289768 
L 155.557216 166.243406 
L 155.121995 166.096004 
L 154.995695 165.968393 
L 154.833754 165.637677 
L 154.446068 165.253946 
L 154.326508 165.14928 
L 154.182176 165.064533 
L 153.773598 164.585605 
L 153.660532 164.536257 
L 153.216348 164.508065 
L 152.980123 164.414531 
L 152.91445 164.35981 
L 152.85954 164.288668 
L 152.805477 164.168691 
L 152.788715 163.891374 
L 152.69661 163.730026 
L 152.478524 163.498942 
L 152.082051 163.246491 
L 151.841979 163.11406 
L 151.592273 163.053495 
L 151.432096 162.710411 
L 151.350155 162.591542 
L 151.266131 162.508117 
L 151.115976 162.448534 
L 151.010532 162.448235 
L 150.537305 162.520656 
L 150.276907 162.604722 
L 149.9129 162.640335 
L 149.839851 162.603655 
L 149.731761 162.493701 
L 149.454847 162.172326 
L 149.429863 162.062244 
L 149.437626 161.99703 
L 149.566855 161.639444 
L 149.631222 161.399106 
L 149.636374 161.3205 
L 149.584041 160.850486 
L 149.608037 160.558156 
L 149.641774 160.409517 
L 149.757451 160.066347 
L 149.753958 159.672551 
L 149.661677 159.10943 
L 149.352368 158.543963 
L 148.800975 157.4071 
L 148.195626 156.934783 
L 147.935722 156.464641 
L 147.935722 156.28926 
L 147.923618 156.245415 
L 148.014946 156.145057 
L 148.091312 156.076176 
L 148.127024 156.01237 
L 148.1314 155.666257 
L 147.974505 155.487635 
L 147.618402 155.197011 
L 147.524569 154.825265 
L 147.520087 154.767345 
L 147.563528 154.481114 
L 147.522204 154.298141 
L 147.423007 154.127025 
L 147.236927 153.918846 
L 147.15915 153.795243 
L 147.151457 153.673901 
L 147.128272 153.57124 
L 147.158021 153.387073 
L 147.15915 153.337897 
L 147.151457 153.263215 
L 147.128272 153.188533 
L 147.069092 153.073887 
L 147.047742 152.994641 
L 147.027874 152.880507 
L 146.989268 152.787187 
L 146.791261 152.452633 
L 146.682994 152.222232 
L 146.582632 151.770814 
L 146.563929 151.523992 
L 146.498397 151.362132 
L 146.458061 151.293976 
L 146.385295 151.25141 
L 146.257725 151.227952 
L 146.093384 151.163037 
L 145.923502 151.032354 
L 145.775182 150.787196 
L 145.738269 150.750772 
L 145.602724 150.654637 
L 145.33795 150.514273 
L 145.093361 150.414683 
L 144.870087 150.279777 
L 144.713791 150.090919 
L 144.658352 149.98186 
L 144.552767 149.842178 
L 144.41147 149.679379 
L 144.034194 149.411233 
L 143.802062 149.211071 
L 143.597456 148.994873 
L 143.386745 148.697127 
L 142.950677 147.825255 
L 142.825083 147.336816 
L 142.758634 146.929328 
L 142.593693 146.468058 
L 142.39198 146.060442 
L 142.197996 145.826672 
L 141.904602 145.561895 
L 141.777491 145.467551 
L 141.226169 145.156198 
L 141.08286 145.034003 
L 140.844906 144.75191 
L 140.714336 144.473057 
L 140.686317 144.382936 
L 140.630136 143.926485 
L 140.631654 143.781386 
L 140.67753 143.521855 
L 140.838024 143.007015 
L 140.849493 142.811289 
L 140.754742 142.411308 
L 140.754177 142.267233 
L 140.791478 142.010474 
L 140.877689 141.666878 
L 140.877125 141.48109 
L 140.875643 141.405598 
L 140.809652 141.128366 
L 140.694186 140.803877 
L 140.684164 140.538119 
L 140.706396 140.371311 
L 140.872255 139.870972 
L 140.903733 139.642491 
L 140.897557 139.397717 
L 140.871514 139.276033 
L 140.74592 138.972486 
L 140.633453 138.676062 
L 140.585848 138.174955 
L 140.625725 137.841808 
L 140.783256 137.448609 
L 140.970464 137.144294 
L 141.691421 136.537797 
L 141.799935 136.312386 
L 141.825025 136.126342 
L 141.760517 135.860115 
L 141.46423 135.507519 
L 141.133041 135.268418 
L 140.416178 134.93574 
L 140.277563 134.706747 
L 140.362504 134.534778 
L 140.871302 134.00727 
L 141.225216 133.863963 
L 141.9587 133.888786 
L 142.36029 133.774524 
L 142.685515 133.560373 
L 142.88938 133.134929 
L 143.001529 132.097316 
L 143.01321 131.226084 
L 142.911542 130.496283 
L 142.815696 130.269934 
L 142.634734 130.110334 
L 142.507834 129.244945 
L 142.523644 128.896913 
L 142.381852 127.861091 
L 142.015763 126.386305 
L 142.071237 125.180134 
L 141.775409 123.970979 
L 141.524115 123.311082 
L 140.970006 121.585935 
L 140.092436 120.747374 
L 139.73531 120.104367 
L 139.651499 119.880193 
L 139.585261 119.139815 
L 139.355035 118.506362 
L 139.187694 118.163704 
L 139.132573 117.726531 
L 139.203151 117.150785 
L 139.323134 116.963121 
L 139.700727 116.681624 
L 139.880702 116.425718 
L 139.91952 116.25938 
L 139.901875 116.174078 
L 139.803066 116.05039 
L 139.739545 115.785954 
L 139.704256 115.009748 
L 139.592072 114.417496 
L 139.610952 114.295856 
L 139.824204 113.994654 
L 140.011236 113.563879 
L 140.042996 113.000929 
L 139.873608 112.646925 
L 139.206609 111.691543 
L 138.772553 111.268317 
L 138.751344 110.702083 
L 139.026635 110.126294 
L 139.083097 109.814942 
L 138.99131 109.648646 
L 138.606659 109.40127 
L 138.356106 109.145364 
L 138.207857 108.842542 
L 138.211386 108.701793 
L 138.493699 107.759249 
L 138.550161 106.808132 
L 138.349013 106.249404 
L 138.437201 105.34951 
L 137.971385 104.667094 
L 138.049021 104.49649 
L 138.267813 104.308826 
L 138.550126 103.625728 
L 138.525424 103.489969 
L 138.4041 103.084828 
L 138.4041 102.867862 
L 138.477536 102.591739 
L 139.033587 102.231765 
L 139.468454 102.154993 
L 139.55643 101.741151 
L 138.389172 100.590213 
L 138.098214 100.140629 
L 138.13315 99.469004 
L 137.844979 99.185417 
L 137.362789 98.899485 
L 137.299162 98.79273 
L 137.399419 98.264966 
L 137.342145 98.013624 
L 136.966174 97.438987 
L 136.854626 97.036404 
L 136.872729 96.12218 
L 136.889103 95.975759 
L 136.968751 95.831897 
L 137.080795 95.708545 
L 137.299057 95.468255 
L 137.350402 95.199383 
L 137.324712 95.06499 
L 137.187825 94.878861 
L 137.008169 94.785796 
L 136.965398 94.65136 
L 136.973938 94.53761 
L 136.973938 94.299788 
L 137.102285 94.082652 
L 137.1194 93.906887 
L 136.967593 93.594623 
L 136.869235 93.392303 
L 136.48963 93.012496 
L 136.440508 92.920327 
L 136.436026 92.682974 
L 136.505899 92.532032 
L 136.73736 92.263331 
L 137.122505 91.949334 
L 137.788481 91.807776 
L 138.053926 91.805387 
L 139.57958 91.395895 
L 139.708314 91.285472 
L 139.812064 91.105783 
L 140.808417 90.331198 
L 140.944668 90.386389 
L 141.155415 90.765215 
L 141.33853 90.851754 
L 141.636017 90.687633 
L 142.026032 90.339856 
L 142.914647 89.934373 
L 143.840704 89.907162 
L 145.042933 89.962267 
L 145.219731 90.076529 
L 145.293133 90.189469 
L 145.286463 90.326592 
L 145.266454 90.53635 
L 145.23974 90.65735 
L 145.25308 90.794473 
L 145.299802 90.867108 
L 145.379909 90.907413 
L 145.593478 90.947761 
L 145.914115 90.881823 
L 146.509866 90.48069 
L 146.739774 90.44256 
L 146.925677 90.48986 
L 147.103675 90.825097 
L 147.268511 91.009178 
L 147.340818 91.027945 
L 148.026697 90.587147 
L 148.387317 90.183839 
L 148.548835 90.120161 
L 148.792259 90.115171 
L 149.969821 90.296736 
L 150.287317 90.845569 
L 151.199047 91.79353 
L 151.498863 91.900968 
L 152.21689 92.884415 
L 152.311888 93.206899 
L 152.236335 93.360059 
L 152.01306 93.559324 
L 151.945905 93.709029 
L 151.965385 93.863213 
L 152.019342 93.919896 
L 153.213031 94.423306 
L 153.550289 94.877197 
L 153.688763 95.153661 
L 153.814922 95.294452 
L 154.185281 95.53944 
L 154.674106 95.77965 
L 154.868549 95.791251 
L 155.56018 95.734781 
L 156.312191 95.505319 
L 156.861148 95.221348 
L 157.226708 95.217638 
L 157.661999 95.382953 
L 157.746869 95.353055 
L 157.871581 95.205909 
L 158.224084 94.639887 
L 158.259867 94.405264 
L 158.224049 94.133321 
L 158.270171 93.864364 
L 159.059412 92.339591 
L 159.072328 92.264312 
L 158.956086 92.097504 
L 158.75275 91.93317 
L 158.726142 91.85772 
L 158.755467 91.641863 
L 158.835997 91.513057 
L 159.18363 91.287903 
L 159.458497 91.275065 
L 159.576786 91.212027 
L 159.962002 90.242697 
L 160.700497 88.695234 
L 160.973105 88.32417 
L 161.448238 88.123455 
L 161.45159 85.940705 
L 161.43878 85.712735 
L 161.399256 84.932947 
L 161.389058 84.049047 
L 161.444815 82.946476 
L 161.421912 82.514678 
L 161.484656 79.721123 
L 161.483844 77.507451 
L 161.460589 76.207619 
L 161.390434 75.076045 
L 161.348652 69.909602 
L 161.33076 69.744756 
L 161.316821 68.41059 
L 161.314809 60.440441 
L 161.314812 60.439877 
L 161.33683 55.550888 
L 161.31548 53.732803 
L 164.30422 53.748627 
L 164.30422 53.750717 
L 178.696502 53.746488 
L 180.9262 53.745832 
L 186.651141 53.74415 
L 199.573421 53.740353 
L 201.947676 53.736057 
L 204.406926 53.731607 
L 212.16048 53.717577 
L 213.953625 53.720179 
L 214.443438 53.718387 
L 214.610214 53.72116 
L 214.673211 53.720957 
L 220.659543 53.701711 
L 221.056757 53.705976 
L 254.401644 53.686668 
L 254.645668 53.686527 
L 254.65809 53.685845 
L 256.610278 53.704983 
L 259.147958 53.729861 
L 259.974887 53.703758 
L 264.249633 53.716468 
L 266.621837 53.6478 
L 277.766348 53.613338 
L 282.177486 53.590989 
L 282.180486 53.603997 
L 283.101284 53.602633 
L 286.588624 53.568 
L 286.933822 53.5976 
L 287.664942 53.835123 
L 303.489 53.809319 
L 304.226612 53.813584 
L 304.233457 53.835783 
L 304.233635 53.83636 
L 308.644914 53.813499 
L 317.467367 53.821859 
L 322.066596 53.787866 
L 326.093506 53.786032 
L 326.205972 53.786586 
L 330.015149 53.780999 
L 330.081633 53.782023 
L 330.251833 53.781127 
L 330.83315 53.777587 
L 331.294343 53.780999 
L 333.152385 53.780786 
L 337.950751 53.788762 
L 337.95001 55.051018 
L 337.949022 55.077376 
L 337.944258 59.081153 
L 337.94334 59.098598 
L 337.943405 73.908061 
L 337.943411 75.07515 
L 337.927977 82.969116 
L 337.916873 88.64883 
L 337.932894 91.40933 
L 337.924311 96.285478 
L 337.924284 96.300973 
L 337.922943 99.561301 
L 337.921425 99.562836 
L 337.92139 101.146852 
L 337.922484 101.527341 
L 337.912921 112.756624 
L 337.912886 112.853271 
L 337.905369 115.745478 
L 337.906357 115.75034 
L 337.895241 123.54353 
L 337.899854 124.432984 
L 337.90553 125.527357 
L 337.920367 128.387873 
L 337.922477 131.566098 
L 337.928586 140.765469 
L 337.928589 140.769757 
L 337.92079 146.36352 
L 337.9366 146.975135 
L 337.919661 147.582699 
L 337.94581 148.204337 
L 337.920296 148.818085 
L 337.917826 156.995348 
L 337.916908 159.41528 
L 337.916908 159.422104 
L 337.88783 181.700554 
L 337.908298 187.031844 
L 337.890105 191.161581 
L 337.882925 192.79152 
L 337.89997 197.694465 
L 337.877526 206.876031 
L 337.903428 208.357002 
L 337.89263 208.45962 
L 337.886454 208.603524 
L 337.891253 208.761759 
L 337.894147 208.774469 
L 337.871456 213.688248 
L 337.879678 215.441119 
L 337.879683 215.444103 
L 337.883948 218.46806 
L 337.883913 218.486656 
L 337.887583 220.390682 
L 337.891394 220.432736 
L 337.872056 221.392554 
L 337.871103 221.435503 
L 337.883903 233.830992 
L 337.883913 233.840546 
L 337.865528 237.428817 
L 337.865281 237.576006 
L 337.864998 237.732151 
L 337.864998 237.943188 
L 337.865193 239.407456 
L 337.866445 248.819278 
L 337.84266 263.203882 
L 337.842307 263.418032 
L 337.826957 265.803033 
L 337.831615 266.422454 
L 337.831932 272.515575 
L 337.825616 272.916836 
L 337.813723 273.670394 
L 337.825827 275.075275 
L 337.810582 275.681986 
L 337.813511 282.504141 
L 337.788774 288.350313 
L 337.787715 288.350867 
L 337.77607 289.183031 
L 337.780622 295.474138 
L 329.719003 295.411996 
L 310.267648 295.40739 
L 304.235893 295.446714 
L 299.298983 295.41174 
L 288.018468 295.460277 
L 276.186208 295.426028 
L 268.94573 295.488 
L 266.327914 295.485356 
L 264.534487 294.771421 
L 256.032413 291.480707 
L 249.199677 288.836108 
L 246.979251 287.987625 
L 234.405673 283.182931 
L 224.994598 279.621061 
L 220.797277 278.045746 
L 220.419154 277.92385 
L 219.584143 277.592494 
L 203.081052 271.462224 
L 193.945162 268.165643 
L 190.721608 266.914817 
L 186.611874 265.35142 
L 180.985768 263.211175 
L 171.896706 259.796451 
L 170.805426 259.368704 
L 154.251484 253.189598 
L 145.429031 249.941852 
L 134.389435 245.923275 
L 134.376095 245.797284 
L 134.435205 245.676881 
L 134.46273 244.705291 
L 135.023862 243.505859 
L 134.369249 242.915911 
L 134.881012 241.686155 
" clip-path="url(#p16724e5b0b)" style="fill: #c733ff"/>
   </g>
   <g id="text_1">
    <!-- AZ -->
    <g transform="translate(227.945625 35.472) scale(0.12 -0.12)">
     <defs>
      <path id="DejaVuSans-41" d="M 2188 4044 
L 1331 1722 
L 3047 1722 
L 2188 4044 
z
M 1831 4666 
L 2547 4666 
L 4325 0 
L 3669 0 
L 3244 1197 
L 1141 1197 
L 716 0 
L 50 0 
L 1831 4666 
z
" transform="scale(0.015625)"/>
      <path id="DejaVuSans-5a" d="M 359 4666 
L 4025 4666 
L 4025 4184 
L 1075 531 
L 4097 531 
L 4097 0 
L 288 0 
L 288 481 
L 3238 4134 
L 359 4134 
L 359 4666 
z
" transform="scale(0.015625)"/>
     </defs>
     <use xlink:href="#DejaVuSans-41"/>
     <use xlink:href="#DejaVuSans-5a" x="68.408203"/>
    </g>
   </g>
  </g>
 </g>
 <defs>
  <clipPath id="p16724e5b0b">
   <rect x="124.190174" y="41.472" width="223.939652" height="266.112"/>
  </clipPath>
 </defs>
</svg>
