<?xml version="1.0" encoding="utf-8" standalone="no"?>
<!DOCTYPE svg PUBLIC "-//W3C//DTD SVG 1.1//EN"
  "http://www.w3.org/Graphics/SVG/1.1/DTD/svg11.dtd">
<svg xmlns:xlink="http://www.w3.org/1999/xlink" width="460.8pt" height="345.6pt" viewBox="0 0 460.8 345.6" xmlns="http://www.w3.org/2000/svg" version="1.1">
 <metadata>
  <rdf:RDF xmlns:dc="http://purl.org/dc/elements/1.1/" xmlns:cc="http://creativecommons.org/ns#" xmlns:rdf="http://www.w3.org/1999/02/22-rdf-syntax-ns#">
   <cc:Work>
    <dc:type rdf:resource="http://purl.org/dc/dcmitype/StillImage"/>
    <dc:date>2023-06-19T14:47:40.615639</dc:date>
    <dc:format>image/svg+xml</dc:format>
    <dc:creator>
     <cc:Agent>
      <dc:title>Matplotlib v3.7.1, https://matplotlib.org/</dc:title>
     </cc:Agent>
    </dc:creator>
   </cc:Work>
  </rdf:RDF>
 </metadata>
 <defs>
  <style type="text/css">*{stroke-linejoin: round; stroke-linecap: butt}</style>
 </defs>
 <g id="figure_1">
  <g id="patch_1">
   <path d="M 0 345.6 
L 460.8 345.6 
L 460.8 0 
L 0 0 
z
" style="fill: #ffffff"/>
  </g>
  <g id="axes_1">
   <g id="PatchCollection_1">
    <path d="M 249.744782 271.387765 
L 249.838078 271.391825 
L 250.099094 271.497014 
L 250.940348 271.489355 
L 251.221295 271.643769 
L 251.840767 272.115566 
L 251.851799 272.159301 
L 252.138251 272.201836 
L 252.299245 272.146203 
L 252.946023 272.643684 
L 253.397797 272.685786 
L 254.241754 273.129395 
L 254.47975 273.144663 
L 254.520831 273.200194 
L 254.585988 273.678552 
L 255.411558 274.689394 
L 255.581755 274.838855 
L 255.701018 275.020971 
L 255.84403 275.417501 
L 255.805225 275.671309 
L 255.567452 275.905841 
L 255.395629 275.958487 
L 255.029818 275.801239 
L 254.682739 275.543473 
L 254.38944 275.422581 
L 253.817043 275.401237 
L 253.063152 275.459015 
L 252.732753 275.377774 
L 252.5487 275.269622 
L 252.2131 274.808345 
L 252.073236 274.488538 
L 252.198411 274.149863 
L 252.282605 273.730993 
L 252.150868 273.072 
L 252.073643 272.875536 
L 251.76478 272.762993 
L 251.521746 272.809383 
L 251.514574 272.741521 
L 251.373105 272.597064 
L 251.085616 272.498129 
L 250.652149 272.528486 
L 250.556109 272.503925 
L 250.404035 272.377033 
L 250.302977 272.149548 
L 249.935885 271.666058 
L 249.789276 271.598272 
L 249.731474 271.427543 
L 249.744782 271.387765 
" clip-path="url(#p54868721e5)" style="fill: #ff5733"/>
    <path d="M 249.700917 282.802864 
L 249.934585 282.676432 
L 250.318032 282.727239 
L 250.442922 282.850046 
L 250.535731 282.958223 
L 250.534065 283.118484 
L 250.642884 283.433695 
L 251.030983 284.081123 
L 251.251242 284.336744 
L 251.909866 285.283298 
L 252.143981 285.546323 
L 252.270943 285.627564 
L 252.645105 285.904657 
L 252.926539 286.264294 
L 254.486637 287.697912 
L 254.821465 288.139887 
L 254.759762 288.258634 
L 254.678716 288.191997 
L 254.28379 288.07394 
L 254.1333 288.053974 
L 253.98722 288.088416 
L 253.851033 288.18135 
L 253.355984 288.685418 
L 253.27886 288.561999 
L 253.300356 288.525157 
L 252.964146 288.17484 
L 252.331184 287.634568 
L 252.09075 287.562161 
L 251.920288 287.3839 
L 251.704845 286.951627 
L 251.680606 286.879679 
L 251.698932 286.753477 
L 251.344437 286.321714 
L 251.346672 286.26266 
L 251.11725 285.987124 
L 250.806173 284.994588 
L 250.60802 284.669419 
L 250.351312 284.381118 
L 250.078939 283.382888 
L 249.893869 283.202227 
L 249.680092 283.219257 
L 249.700917 282.802864 
" clip-path="url(#p54868721e5)" style="fill: #ff5733"/>
    <path d="M 240.466945 271.041839 
L 241.07057 270.890029 
L 241.263725 271.294882 
L 241.167158 271.801094 
L 240.611827 271.952956 
L 240.34622 271.649208 
L 240.466945 271.041839 
" clip-path="url(#p54868721e5)" style="fill: #ff5733"/>
    <path d="M 232.933728 257.319512 
L 233.489058 257.69674 
L 234.285838 257.394958 
L 234.623876 257.570972 
L 234.309996 258.048844 
L 233.730508 258.199786 
L 233.078589 258.124315 
L 232.426671 257.671566 
L 232.933728 257.319512 
" clip-path="url(#p54868721e5)" style="fill: #ff5733"/>
    <path d="M 229.923976 276.480529 
L 230.267337 276.67199 
L 230.405494 276.613267 
L 230.559905 276.437126 
L 230.63711 276.4371 
L 230.858588 276.324787 
L 230.956111 276.319655 
L 231.425459 276.628586 
L 231.87772 276.854693 
L 232.224393 276.975559 
L 232.371713 277.092442 
L 232.959023 277.768873 
L 232.660156 277.998069 
L 232.244547 278.094017 
L 232.014881 278.09177 
L 231.513961 277.962861 
L 231.290979 277.900105 
L 231.172022 277.805383 
L 230.595866 277.635114 
L 230.207828 277.276805 
L 230.194215 277.210704 
L 230.186637 277.144067 
L 230.092609 277.014112 
L 229.923976 276.480529 
" clip-path="url(#p54868721e5)" style="fill: #ff5733"/>
    <path d="M 223.011795 256.089763 
L 223.139752 256.083942 
L 223.581185 256.202714 
L 224.268435 256.242492 
L 224.907188 256.536206 
L 225.051907 256.709744 
L 225.27371 256.731956 
L 225.639969 256.600903 
L 226.027398 256.657302 
L 226.121832 256.649158 
L 226.170451 256.603584 
L 226.336382 256.614792 
L 226.662453 256.804159 
L 226.927288 256.839674 
L 227.208905 256.958216 
L 227.370386 257.100784 
L 227.738554 257.557185 
L 228.729323 257.726382 
L 229.10314 257.642383 
L 229.247738 257.520139 
L 229.409036 257.257037 
L 229.317385 257.162979 
L 229.308425 257.109235 
L 229.63348 256.795836 
L 230.036371 256.783453 
L 230.172699 256.698127 
L 230.926407 257.012088 
L 231.10851 257.188076 
L 231.085552 257.239522 
L 230.869316 257.425851 
L 230.738595 257.450387 
L 230.665412 257.524581 
L 230.546942 257.812142 
L 230.571485 257.923204 
L 230.421138 258.118494 
L 230.299397 258.176961 
L 229.991145 258.164732 
L 229.695245 258.325503 
L 229.559587 258.353614 
L 229.108443 258.388924 
L 229.067097 258.343937 
L 228.526801 258.374677 
L 228.219707 258.42311 
L 227.665351 258.771972 
L 227.323169 258.849767 
L 227.213232 258.945663 
L 227.165832 259.047355 
L 227.033567 259.094741 
L 226.591465 258.985109 
L 226.439654 258.988122 
L 226.283151 259.104214 
L 225.515221 259.009313 
L 224.564172 258.820099 
L 223.942262 258.563891 
L 223.867109 258.42648 
L 223.745693 258.042359 
L 223.707842 257.837801 
L 223.755892 257.764781 
L 223.869974 257.462157 
L 223.8819 257.243607 
L 223.546828 256.900413 
L 223.071507 256.573048 
L 222.926828 256.291947 
L 223.011795 256.089763 
" clip-path="url(#p54868721e5)" style="fill: #ff5733"/>
    <path d="M 216.342912 258.014045 
L 216.520403 257.869001 
L 216.696269 257.804049 
L 216.873313 257.798151 
L 217.133557 257.918455 
L 217.391545 257.953459 
L 217.970057 257.852992 
L 218.287879 257.600052 
L 218.369473 257.428863 
L 218.517484 257.399681 
L 218.609094 257.396796 
L 219.031591 257.555627 
L 219.537002 257.557159 
L 219.873719 257.437902 
L 220.093775 257.267249 
L 220.110537 257.195378 
L 220.198226 257.10949 
L 220.249628 257.099558 
L 220.490347 257.148655 
L 220.47521 257.429144 
L 220.398127 257.520879 
L 220.345627 257.722475 
L 220.375209 257.810125 
L 220.422975 258.062785 
L 220.529925 258.20308 
L 220.848052 258.431689 
L 221.143261 258.576172 
L 221.291739 258.585031 
L 221.687904 258.472667 
L 221.79843 258.494803 
L 221.777361 258.838405 
L 221.839451 259.168527 
L 221.955584 259.329171 
L 221.973483 259.483433 
L 221.903775 259.531381 
L 221.349745 259.555048 
L 221.00933 259.687506 
L 220.416758 260.115643 
L 220.387623 260.165991 
L 220.381609 260.213224 
L 220.359849 260.244169 
L 219.788712 260.389111 
L 219.365951 260.415485 
L 219.226006 260.506709 
L 219.151889 260.638221 
L 218.894267 260.725462 
L 217.936168 260.128588 
L 217.731472 259.901255 
L 217.512229 259.398055 
L 217.461456 259.332618 
L 217.334209 259.282959 
L 217.304079 259.16314 
L 217.115393 258.768117 
L 216.808827 258.342176 
L 216.320746 258.079967 
L 216.342912 258.014045 
" clip-path="url(#p54868721e5)" style="fill: #ff5733"/>
    <path d="M 212.244503 257.109363 
L 212.531098 256.993782 
L 212.861049 256.732824 
L 212.931773 256.659626 
L 213.012494 256.713012 
L 213.168957 256.774977 
L 213.319812 256.781487 
L 213.427127 256.735352 
L 213.766323 256.463084 
L 213.875996 256.332312 
L 213.880648 256.244637 
L 213.848303 256.150349 
L 213.886865 256.110571 
L 214.009317 256.197608 
L 214.157003 256.549942 
L 214.049159 256.637668 
L 214.083333 256.780262 
L 214.320272 256.873681 
L 214.64098 256.809317 
L 214.887407 256.99105 
L 215.006405 257.128996 
L 215.230971 257.460957 
L 215.181783 257.522309 
L 214.927635 257.581899 
L 214.304831 257.549295 
L 214.150136 257.605465 
L 214.097108 257.679123 
L 213.747388 257.583482 
L 213.052031 257.240773 
L 212.933033 257.239573 
L 212.855909 257.323725 
L 212.685508 257.413698 
L 212.14251 257.345886 
L 212.244503 257.109363 
" clip-path="url(#p54868721e5)" style="fill: #ff5733"/>
    <path d="M 173.057367 160.260729 
L 173.218645 160.222713 
L 173.354709 160.431713 
L 173.445426 160.678679 
L 173.366554 160.849766 
L 173.168238 160.754687 
L 173.163199 160.621693 
L 173.04475 160.366506 
L 173.057367 160.260729 
" clip-path="url(#p54868721e5)" style="fill: #ff5733"/>
    <path d="M 171.666918 159.484623 
L 171.824396 159.297707 
L 171.978949 159.198773 
L 172.17434 159.257393 
L 172.232671 159.466292 
L 172.232671 159.697173 
L 172.228036 159.697278 
L 171.908957 159.7045 
L 171.728154 159.627548 
L 171.666918 159.484623 
" clip-path="url(#p54868721e5)" style="fill: #ff5733"/>
    <path d="M 131.798748 93.558389 
L 132.041722 93.075384 
L 132.279474 92.368137 
L 132.314338 92.112005 
L 132.237153 91.981743 
L 132.322628 91.623128 
L 132.398208 91.524449 
L 132.714161 90.864894 
L 133.407811 89.135596 
L 133.697595 88.545921 
L 133.750075 88.499786 
L 134.22629 87.522007 
L 135.053465 86.104091 
L 135.463101 85.230301 
L 135.997911 84.318291 
L 136.510026 83.335151 
L 136.883721 82.506629 
L 137.315584 81.238659 
L 137.699965 79.616618 
L 137.821503 78.623189 
L 137.551629 78.104108 
L 137.399291 78.002544 
L 137.292199 77.955055 
L 137.197724 77.96297 
L 137.109364 77.99228 
L 137.074357 78.028458 
L 137.027079 78.037803 
L 136.979212 77.975276 
L 136.970963 77.812564 
L 136.961109 77.117189 
L 136.838332 76.81459 
L 136.868625 76.228744 
L 136.739631 76.027939 
L 136.768604 75.801909 
L 136.879312 75.690949 
L 137.059424 75.746506 
L 137.178768 75.64844 
L 137.607928 74.498502 
L 137.926726 73.478468 
L 137.938855 73.19752 
L 138.225429 71.997208 
L 138.495019 70.479617 
L 138.631571 69.772166 
L 138.818855 68.119385 
L 138.769184 67.477001 
L 138.758289 67.336105 
L 138.557961 66.531889 
L 138.446013 66.29008 
L 138.434636 65.357339 
L 138.222991 65.207878 
L 138.045845 64.810174 
L 138.040157 64.571914 
L 138.121791 64.400164 
L 138.049137 63.959797 
L 137.77583 63.595488 
L 137.742835 63.287042 
L 137.657746 62.993303 
L 137.346344 62.560468 
L 137.269098 62.194218 
L 137.289029 62.009651 
L 137.185289 61.233418 
L 137.105382 61.012034 
L 136.966534 60.73512 
L 136.753813 60.445976 
L 136.496312 60.302234 
L 136.334323 60.465763 
L 136.218982 60.549302 
L 136.139481 60.531455 
L 135.958861 60.269579 
L 135.22994 59.662823 
L 135.177766 59.631318 
L 135.04741 59.645998 
L 134.899298 59.350982 
L 135.122117 59.113897 
L 135.413649 58.440351 
L 135.638885 57.731827 
L 135.865483 56.665632 
L 135.967821 55.318285 
L 135.93641 54.233784 
L 135.801159 53.850327 
L 137.536473 53.887807 
L 138.04995 53.888726 
L 138.064273 53.891637 
L 138.315983 53.890386 
L 138.339673 53.890948 
L 140.076247 53.909407 
L 143.468815 53.910173 
L 143.715935 53.925851 
L 143.727575 53.92659 
L 143.879548 53.936215 
L 144.381322 53.910301 
L 145.623497 53.887424 
L 145.760165 53.891938 
L 147.069229 53.935168 
L 147.728401 53.81517 
L 149.191119 53.804728 
L 149.746083 53.784277 
L 149.895148 53.788467 
L 150.218418 53.797554 
L 150.281422 53.798907 
L 150.282763 53.797605 
L 151.584284 53.769111 
L 152.660974 53.829698 
L 153.356107 53.833783 
L 155.722119 53.713199 
L 155.729158 53.71284 
L 156.50936 53.671964 
L 157.2703 53.605838 
L 157.452119 53.574919 
L 158.711848 53.671913 
L 159.083673 53.684679 
L 159.498165 53.733163 
L 161.604186 53.732244 
L 162.572017 53.744499 
L 162.933928 53.728108 
L 164.479418 53.70707 
L 166.249819 53.704874 
L 167.838687 53.686977 
L 170.553148 53.595012 
L 172.648889 53.587404 
L 173.050987 53.568 
L 174.847811 53.612667 
L 174.852434 53.612782 
L 175.429443 53.622995 
L 177.45708 53.616025 
L 177.475163 53.616025 
L 177.551799 53.622484 
L 177.577358 53.621335 
L 178.664045 53.663794 
L 180.728335 53.709725 
L 183.849202 53.732627 
L 186.6634 53.7902 
L 186.727481 53.791451 
L 187.05024 53.796098 
L 187.330841 53.802047 
L 189.250473 53.845017 
L 190.482001 53.862506 
L 191.959263 53.883293 
L 192.120381 53.885561 
L 192.214511 53.887041 
L 193.410707 53.886939 
L 193.732695 53.895773 
L 194.133675 53.907518 
L 194.230852 53.899909 
L 194.25826 53.896411 
L 194.754082 53.871978 
L 195.9504 53.87305 
L 196.021165 53.886224 
L 198.490174 53.912879 
L 199.123401 53.947398 
L 200.336968 53.981482 
L 203.491623 53.969822 
L 203.500643 53.969789 
L 204.866001 53.959525 
L 207.2703 53.97247 
L 207.305286 53.972444 
L 208.220495 53.987584 
L 211.188922 53.969687 
L 214.694214 53.986369 
L 214.745735 53.986614 
L 215.549911 53.988248 
L 217.680394 53.949185 
L 221.347754 53.935117 
L 221.386153 53.95041 
L 221.383959 57.005226 
L 221.404053 60.196636 
L 221.392512 63.388045 
L 221.404195 63.544502 
L 221.379997 66.579454 
L 221.371972 74.645359 
L 221.382293 82.582406 
L 221.384853 82.726582 
L 221.384873 82.766284 
L 221.400152 85.727935 
L 221.419372 86.465974 
L 221.452022 92.110754 
L 221.447369 96.656965 
L 221.447369 96.671978 
L 221.44682 98.145604 
L 221.4468 98.172948 
L 221.427682 101.647731 
L 221.425447 102.535512 
L 221.426645 102.901786 
L 221.424289 103.040729 
L 221.41732 105.984457 
L 221.374674 108.66779 
L 221.356917 110.471002 
L 221.35905 110.492014 
L 221.345847 111.660463 
L 221.342451 111.960993 
L 221.333897 116.647756 
L 221.305941 119.041051 
L 221.305914 119.042819 
L 221.279244 120.833488 
L 221.273555 121.967597 
L 221.261252 122.325943 
L 221.261162 122.328561 
L 221.259272 122.39244 
L 221.259252 122.405283 
L 221.264778 122.969196 
L 221.262301 123.293464 
L 221.252567 124.567314 
L 221.252507 124.655499 
L 221.277732 126.177465 
L 221.300122 127.528377 
L 221.319249 128.68235 
L 221.348648 130.41632 
L 223.313302 132.107781 
L 229.746464 137.688706 
L 229.758919 137.698638 
L 229.792015 137.727565 
L 231.646043 139.34524 
L 231.649314 139.348253 
L 232.531284 140.108325 
L 232.531061 140.108299 
L 234.047314 141.465859 
L 234.166719 141.555525 
L 234.912238 142.192612 
L 235.014064 142.283368 
L 236.012639 143.173379 
L 236.587088 143.661898 
L 236.912611 143.962735 
L 238.497013 145.348018 
L 239.126862 145.898711 
L 239.712425 146.417434 
L 240.01318 146.713242 
L 241.075364 147.63457 
L 241.666656 148.18365 
L 242.70897 149.070486 
L 243.260684 149.556121 
L 244.549426 150.707871 
L 246.321493 152.314746 
L 246.834889 152.747377 
L 247.490851 153.327988 
L 249.374704 155.05892 
L 250.383088 155.938709 
L 251.82561 157.238542 
L 253.31197 158.586326 
L 256.905138 161.844498 
L 260.943347 165.513014 
L 261.195098 165.759571 
L 261.194061 165.760286 
L 262.495846 166.933509 
L 263.941437 168.298345 
L 264.5245 168.772439 
L 265.402224 169.598076 
L 267.847767 171.895858 
L 268.492798 172.445602 
L 270.508103 174.346752 
L 271.331621 175.087293 
L 272.143822 175.844275 
L 272.159913 175.841773 
L 274.683555 178.229911 
L 276.915585 180.321782 
L 277.344867 180.696226 
L 278.948231 182.203095 
L 279.639534 182.852794 
L 280.965171 184.114636 
L 282.302715 185.356998 
L 291.626529 194.235365 
L 292.461587 195.045453 
L 292.71858 195.278454 
L 294.910665 197.426723 
L 295.001381 197.48782 
L 297.541155 199.928196 
L 300.662957 202.957071 
L 300.736403 203.021947 
L 304.408598 206.607741 
L 304.812565 207.000721 
L 305.626615 207.774504 
L 305.767293 207.913715 
L 307.700272 209.826545 
L 308.950634 211.033776 
L 309.363012 211.429207 
L 309.789363 211.860321 
L 309.796216 211.867251 
L 309.805988 211.876519 
L 310.208594 212.263295 
L 310.240046 212.310094 
L 312.779819 214.82829 
L 314.56619 216.574668 
L 314.704937 216.737253 
L 314.736266 216.762989 
L 314.95043 216.973904 
L 315.00043 217.026831 
L 315.502461 217.523125 
L 316.784119 218.790137 
L 317.442417 219.44239 
L 319.692407 221.698019 
L 319.703195 221.702717 
L 319.973008 221.969955 
L 319.992817 221.98221 
L 320.399101 222.396892 
L 320.865076 222.845455 
L 320.963879 222.957308 
L 322.065194 224.0546 
L 324.129342 226.148641 
L 324.469371 226.479018 
L 324.471382 226.479401 
L 326.916579 228.949699 
L 326.932447 228.964891 
L 330.401856 232.483945 
L 330.474165 232.665653 
L 330.489159 232.738494 
L 330.492714 232.885019 
L 330.474591 233.021791 
L 330.3791 233.321301 
L 330.3663 233.421155 
L 330.372071 233.580241 
L 330.438548 233.774485 
L 330.476542 233.94044 
L 330.477395 233.98563 
L 330.47772 234.096845 
L 330.428085 234.302527 
L 330.40661 234.456226 
L 330.406935 234.542472 
L 330.461487 234.781906 
L 330.454884 234.89907 
L 330.362481 235.20726 
L 330.336068 235.362619 
L 330.335195 235.449478 
L 330.36754 235.722715 
L 330.383672 235.776663 
L 330.458845 235.943588 
L 330.595844 236.112453 
L 330.678353 236.185601 
L 330.995768 236.371981 
L 331.068951 236.428457 
L 331.237868 236.586956 
L 331.349552 236.726894 
L 331.465685 236.970898 
L 331.560648 237.247021 
L 331.598905 237.490949 
L 331.671214 237.783336 
L 331.922274 238.30525 
L 332.043588 238.483485 
L 332.161387 238.612904 
L 332.295034 238.732724 
L 332.512246 238.89324 
L 332.593596 238.990694 
L 332.654385 239.074309 
L 332.686303 239.139593 
L 332.776288 239.252647 
L 332.904835 239.333403 
L 333.045654 239.393019 
L 333.198094 239.477043 
L 333.276132 239.534591 
L 333.297384 239.556395 
L 333.382777 239.70315 
L 333.480584 239.781378 
L 333.575202 239.820237 
L 333.648648 239.834279 
L 333.690542 239.85976 
L 333.713765 239.900559 
L 333.751494 239.997451 
L 333.762262 240.145202 
L 333.820044 240.415427 
L 333.882378 240.553348 
L 333.996378 240.753617 
L 334.018605 240.80948 
L 334.030043 240.877802 
L 334.042335 240.925239 
L 334.076407 240.993868 
L 334.089755 241.038573 
L 334.094185 241.083279 
L 334.093534 241.112717 
L 334.076407 241.222962 
L 334.089755 241.284416 
L 334.094185 241.357053 
L 334.138964 241.431043 
L 334.246096 241.555663 
L 334.303208 241.658095 
L 334.327 241.767625 
L 334.301989 241.938967 
L 334.304569 241.973638 
L 334.358593 242.196171 
L 334.563614 242.370142 
L 334.653944 242.477068 
L 334.651425 242.684256 
L 334.630864 242.722451 
L 334.586897 242.763684 
L 334.534316 242.82376 
L 334.541285 242.850006 
L 334.541285 242.954992 
L 334.690922 243.236425 
L 335.039443 243.519161 
L 335.3569 244.199702 
L 335.53498 244.538199 
L 335.58811 244.875291 
L 335.590121 245.111023 
L 335.523521 245.316449 
L 335.504098 245.405426 
L 335.490282 245.580419 
L 335.520413 245.861776 
L 335.517446 245.908831 
L 335.480388 246.052701 
L 335.405986 246.266756 
L 335.401516 246.305794 
L 335.415901 246.371691 
L 335.57533 246.564071 
L 335.637562 246.629891 
L 335.679618 246.651848 
L 335.88919 246.630529 
L 336.039111 246.580206 
L 336.311565 246.536854 
L 336.372273 246.537033 
L 336.458723 246.5727 
L 336.507098 246.62264 
L 336.554274 246.693796 
L 336.646494 246.899171 
L 336.790259 246.935426 
L 336.928477 247.014701 
L 337.156741 247.165822 
L 337.282301 247.304151 
L 337.335329 247.400737 
L 337.34498 247.566743 
L 337.376106 247.638563 
L 337.407719 247.681149 
L 337.44553 247.713906 
L 337.581533 247.769897 
L 337.837266 247.786773 
L 337.902362 247.816313 
L 338.137595 248.103006 
L 338.220693 248.153737 
L 338.289527 248.216391 
L 338.512732 248.446098 
L 338.605968 248.644069 
L 338.678683 248.720459 
L 338.929255 248.808696 
L 339.219629 248.836449 
L 339.39005 248.970438 
L 339.502567 249.014837 
L 339.592186 249.071006 
L 339.67825 249.144537 
L 339.760819 249.255012 
L 339.84286 249.394567 
L 340.07856 249.947349 
L 340.409243 250.252271 
L 340.463043 250.320925 
L 340.465379 250.379495 
L 340.437606 250.509501 
L 340.461356 250.69537 
L 340.508391 250.892754 
L 340.488175 250.990157 
L 340.495774 251.057585 
L 340.534437 251.195762 
L 340.541366 251.261582 
L 340.537607 251.334831 
L 340.505648 251.391562 
L 340.447338 251.436447 
L 340.331042 251.434277 
L 340.282687 251.435783 
L 340.156984 251.468336 
L 340.085732 251.465119 
L 340.02795 251.469536 
L 339.984694 251.500275 
L 339.958363 251.547534 
L 339.943227 251.594461 
L 339.930854 251.637405 
L 339.889 251.688979 
L 339.755252 251.75079 
L 339.73081 251.795675 
L 339.697775 251.866473 
L 339.68853 251.896677 
L 339.655068 251.936072 
L 339.394479 252.16869 
L 339.041427 252.560674 
L 338.970154 252.661932 
L 338.895123 252.72788 
L 338.734007 252.82541 
L 338.697233 252.863554 
L 338.683681 252.911247 
L 338.702373 253.112384 
L 338.659849 253.240807 
L 338.605379 253.290287 
L 338.38195 253.384652 
L 338.311267 253.476744 
L 338.10911 253.624673 
L 337.822109 253.717123 
L 337.679889 253.667592 
L 337.435534 253.708978 
L 337.323545 253.8061 
L 336.929391 254.36649 
L 336.755252 254.523279 
L 336.678067 254.571176 
L 336.443688 254.640724 
L 336.2011 254.629924 
L 336.099941 254.66406 
L 336.032041 254.73279 
L 335.950183 254.907732 
L 335.825862 255.035441 
L 335.769461 255.062453 
L 335.567569 255.10149 
L 335.337354 255.252228 
L 335.118193 255.212195 
L 335.024957 255.215055 
L 334.908336 255.253582 
L 334.822455 255.314729 
L 334.729179 255.421196 
L 334.614001 255.58521 
L 334.576251 255.693846 
L 334.467473 255.805521 
L 334.451199 255.831921 
L 334.425843 256.027287 
L 334.380048 256.226178 
L 334.346382 256.584742 
L 334.345041 256.688987 
L 334.361376 256.781028 
L 334.424319 256.974812 
L 334.435595 257.098154 
L 334.410767 257.345835 
L 334.368203 257.485594 
L 334.322002 257.569338 
L 334.255341 257.649838 
L 334.125615 257.741803 
L 334.032136 257.782806 
L 333.948856 257.786202 
L 333.902857 257.805453 
L 333.869131 257.847835 
L 333.862995 257.894073 
L 333.869131 257.948021 
L 333.918197 258.082878 
L 333.921265 258.148392 
L 333.902857 258.198484 
L 333.878335 258.221616 
L 333.800926 258.229684 
L 333.765472 258.244696 
L 333.700335 258.368192 
L 333.603443 258.460514 
L 333.490723 258.54127 
L 333.472884 258.568844 
L 333.457362 258.631039 
L 333.423087 258.687872 
L 333.214571 258.909587 
L 333.116317 259.038419 
L 332.919545 259.153949 
L 332.885757 259.159668 
L 332.791709 259.132451 
L 332.66692 259.195846 
L 332.531242 259.395145 
L 332.393126 259.731292 
L 332.403101 259.888362 
L 332.429676 259.950327 
L 332.537236 260.011551 
L 332.598675 260.047346 
L 332.739412 260.168723 
L 332.880068 260.332788 
L 332.940065 260.460292 
L 332.953028 260.518785 
L 332.951646 260.569695 
L 332.937018 260.599643 
L 332.891588 260.638987 
L 332.835289 260.668093 
L 332.782485 260.713105 
L 332.752131 260.746475 
L 332.733175 260.789393 
L 332.729376 260.827537 
L 332.736954 260.875205 
L 332.752131 260.918097 
L 332.778685 260.975313 
L 332.860645 261.05298 
L 333.025763 261.20622 
L 333.044963 261.253811 
L 333.052643 261.433042 
L 333.034967 261.490334 
L 332.999391 261.52807 
L 332.815825 261.672016 
L 332.772387 261.685242 
L 332.615559 261.676127 
L 332.570028 261.704722 
L 332.535895 261.766713 
L 332.516918 261.84775 
L 332.512611 261.942012 
L 332.595058 262.183259 
L 332.638334 262.267283 
L 332.698148 262.459918 
L 332.708205 262.521117 
L 332.692703 262.606647 
L 332.652455 262.684569 
L 332.562104 262.755751 
L 332.544042 262.787104 
L 332.705686 263.182586 
L 332.773952 263.466701 
L 332.969911 263.987926 
L 333.015137 264.178518 
L 333.025763 264.282789 
L 333.022858 264.420225 
L 332.992037 264.539048 
L 332.947217 264.660502 
L 332.863063 264.848745 
L 332.905384 264.901544 
L 332.975803 264.943109 
L 333.029095 265.005993 
L 333.059876 265.094613 
L 333.09793 265.155378 
L 333.18373 265.233224 
L 333.217537 265.35386 
L 333.231841 265.520019 
L 333.200918 265.761751 
L 333.185274 265.801401 
L 333.012496 265.900438 
L 332.861824 265.944863 
L 332.725617 266.01658 
L 332.62716 266.082809 
L 332.549487 266.164382 
L 332.497353 266.252185 
L 332.47348 266.357809 
L 332.484126 266.460088 
L 332.510397 266.538495 
L 332.538881 266.589226 
L 332.566452 266.633804 
L 332.58616 266.66845 
L 332.601926 266.703122 
L 332.605867 266.752653 
L 332.601926 266.792252 
L 332.590101 266.817018 
L 332.566452 266.856617 
L 332.538881 266.921008 
L 332.499466 266.995279 
L 332.503408 267.059643 
L 332.523115 267.148774 
L 332.546744 267.218092 
L 332.566452 267.317128 
L 332.566452 267.431024 
L 332.53494 267.505295 
L 332.507349 267.574639 
L 332.511291 267.693462 
L 332.546317 267.794439 
L 332.590101 267.851911 
L 332.61375 267.911348 
L 332.609809 267.985619 
L 332.569804 268.049958 
L 332.520962 268.105643 
L 332.288715 268.494691 
L 332.295156 268.770355 
L 332.383231 269.062971 
L 332.389347 269.072315 
L 332.568748 269.361383 
L 332.618383 269.457968 
L 332.614157 269.49504 
L 332.260393 269.743972 
L 331.917296 270.016189 
L 331.904923 270.044146 
L 331.877942 270.207292 
L 331.883692 270.362064 
L 331.875341 270.401203 
L 331.701223 270.5932 
L 331.615403 270.635991 
L 331.479054 270.663514 
L 331.321169 270.765946 
L 331.253817 270.842796 
L 331.13742 271.067218 
L 331.088049 271.229036 
L 331.04776 271.303613 
L 330.92287 271.4711 
L 330.828822 271.574911 
L 330.616588 271.937637 
L 330.606897 271.990512 
L 330.62949 272.167497 
L 330.531114 272.525039 
L 330.480016 272.663318 
L 330.367398 272.801494 
L 330.202442 272.954198 
L 330.075703 273.033652 
L 330.0089 273.051805 
L 329.896058 273.048894 
L 329.580756 272.914522 
L 329.295258 272.923586 
L 329.138775 272.995508 
L 329.121526 273.022776 
L 329.11541 273.073124 
L 329.097084 273.102357 
L 329.015307 273.167565 
L 328.829486 273.196517 
L 328.642832 273.180254 
L 328.566358 273.214977 
L 328.536837 273.25284 
L 328.531696 273.278167 
L 328.536634 273.321928 
L 328.585801 273.412897 
L 328.774142 273.681539 
L 328.879669 273.786473 
L 328.901978 273.827451 
L 328.908093 273.876165 
L 328.901206 273.978444 
L 329.069737 274.373672 
L 329.087677 274.490427 
L 329.09042 274.595949 
L 329.031439 274.989848 
L 328.944014 275.225938 
L 328.888731 275.336898 
L 328.831233 275.408743 
L 328.570543 275.625684 
L 328.442931 275.788192 
L 328.416152 275.831749 
L 328.416132 275.872727 
L 328.577938 276.239231 
L 328.610222 276.267239 
L 328.687326 276.313834 
L 328.823005 276.360174 
L 328.992125 276.396582 
L 329.163277 276.450964 
L 329.368197 276.546988 
L 329.44654 276.609489 
L 329.517142 276.696474 
L 329.611231 276.94413 
L 329.617591 276.994452 
L 329.568768 277.068545 
L 329.290138 277.263375 
L 329.262994 277.302643 
L 329.265432 277.332719 
L 329.401355 277.59651 
L 329.495505 277.714415 
L 329.569012 277.836863 
L 329.586343 277.897705 
L 329.584535 277.996665 
L 329.536647 278.211385 
L 329.482258 278.399986 
L 329.493859 278.498639 
L 329.554567 278.789826 
L 329.551113 278.858506 
L 329.541543 278.95984 
L 329.476467 279.132995 
L 329.451802 279.261188 
L 329.482664 279.434011 
L 329.469864 279.521558 
L 329.411066 279.631471 
L 329.365637 279.812566 
L 329.313117 279.96384 
L 329.25377 280.073957 
L 329.114922 280.244354 
L 328.975689 280.689623 
L 328.925038 280.904956 
L 328.890072 281.106731 
L 328.891636 281.268345 
L 328.918678 281.343459 
L 328.954396 281.371773 
L 329.026827 281.389211 
L 329.159641 281.392837 
L 329.2019 281.404071 
L 329.27358 281.448751 
L 329.282174 281.478546 
L 329.267749 281.572757 
L 329.271548 281.650807 
L 329.314803 281.78237 
L 329.57273 282.134654 
L 329.556314 282.380752 
L 329.585672 282.524622 
L 329.643698 282.624526 
L 329.76038 282.728593 
L 329.81611 282.760175 
L 329.866599 282.760328 
L 329.907335 282.730712 
L 329.963999 282.646917 
L 330.086654 282.400385 
L 330.148033 282.345748 
L 330.236575 282.39699 
L 330.278611 282.437968 
L 330.387573 282.597948 
L 330.507383 282.801511 
L 330.558298 282.842769 
L 330.700498 282.899807 
L 331.061617 282.945559 
L 331.289901 282.924674 
L 331.346708 282.906368 
L 331.391751 282.873535 
L 331.460037 282.763392 
L 331.523366 282.691138 
L 331.586878 282.661343 
L 331.65815 282.659249 
L 332.033287 282.726908 
L 332.33256 282.741001 
L 332.634901 282.803834 
L 332.704954 282.828778 
L 332.779033 282.890364 
L 332.811213 282.917117 
L 332.883482 282.995473 
L 332.989395 283.160024 
L 333.055609 283.309561 
L 333.118064 283.494614 
L 333.168492 283.811995 
L 333.20106 284.103003 
L 333.231536 284.251443 
L 333.25742 284.314787 
L 333.314491 284.363194 
L 333.345048 284.361637 
L 333.493567 284.307561 
L 333.511812 284.266685 
L 333.598384 284.228312 
L 333.703383 284.256601 
L 333.742981 284.301664 
L 333.770917 284.440402 
L 333.778882 284.598339 
L 333.769576 284.709452 
L 333.741478 284.802642 
L 333.706532 284.887917 
L 333.641334 284.994716 
L 333.551654 285.112033 
L 333.505249 285.202108 
L 333.501592 285.247426 
L 333.5405 285.425151 
L 333.58855 285.544204 
L 333.648019 285.621667 
L 333.836258 285.812259 
L 333.852471 285.849203 
L 333.867119 285.94464 
L 333.863097 286.099361 
L 333.810516 286.6729 
L 333.810516 286.678746 
L 333.813949 286.790625 
L 333.744363 287.547736 
L 333.603747 287.712695 
L 333.233486 288.106033 
L 333.189439 288.130594 
L 333.178406 288.135879 
L 332.906359 288.281459 
L 332.801278 288.408555 
L 332.712512 288.555693 
L 332.699773 288.609284 
L 332.666331 288.657844 
L 332.527808 288.794897 
L 332.489084 288.866947 
L 332.470514 288.92567 
L 332.46895 289.147334 
L 332.455012 289.2898 
L 332.467223 289.357688 
L 332.536057 289.536102 
L 332.568301 289.796063 
L 332.319679 289.799765 
L 330.782092 290.383415 
L 330.762567 290.502443 
L 330.765574 290.527489 
L 330.763863 290.527644 
L 330.70893 290.532621 
L 330.41813 290.466214 
L 329.898537 290.390819 
L 329.886753 290.390028 
L 329.710948 290.379917 
L 329.515944 290.329058 
L 329.484635 290.318948 
L 329.369924 290.295382 
L 329.278476 290.291859 
L 329.07508 290.108773 
L 329.035401 290.089088 
L 329.011528 290.09085 
L 328.934343 290.192133 
L 328.75545 290.477856 
L 328.729728 290.545055 
L 328.691593 290.700899 
L 328.651609 290.77471 
L 322.939037 291.26203 
L 313.504494 292.093743 
L 301.690927 293.210669 
L 300.480804 293.330963 
L 300.29296 293.349637 
L 300.081234 293.381219 
L 298.350512 293.543267 
L 291.653754 294.221868 
L 289.898205 294.412997 
L 285.304908 294.884643 
L 285.223132 294.89304 
L 283.782621 295.064126 
L 283.418922 295.081998 
L 281.785377 295.276063 
L 281.04581 295.342445 
L 279.905834 295.473951 
L 279.78405 295.488 
L 279.693749 294.934444 
L 279.611334 294.429235 
L 279.615129 294.173756 
L 279.619461 293.882121 
L 279.544267 293.328088 
L 279.487378 293.116177 
L 279.072887 292.25837 
L 278.890012 291.969864 
L 278.656364 291.722209 
L 278.400346 291.566493 
L 278.323141 291.538408 
L 277.99195 291.566493 
L 277.772524 291.686491 
L 277.52118 291.985158 
L 277.321462 292.036246 
L 277.136575 291.252455 
L 277.087793 290.588662 
L 277.132491 290.093377 
L 277.189379 289.901891 
L 277.140618 289.033847 
L 277.016683 288.620237 
L 276.61235 288.132611 
L 276.58799 287.690916 
L 276.608307 287.601556 
L 276.756623 287.387092 
L 276.937446 287.45092 
L 277.02481 287.356454 
L 277.116237 287.18284 
L 277.190651 286.873232 
L 277.207665 286.802446 
L 277.150777 286.143734 
L 277.028873 285.349731 
L 276.676084 283.578639 
L 276.616434 283.279179 
L 276.360437 282.709853 
L 276.027214 281.691198 
L 275.915327 281.207019 
L 275.649558 280.483508 
L 274.954445 279.293868 
L 274.367115 278.4175 
L 274.154881 278.140841 
L 273.267892 276.738678 
L 272.775992 276.02635 
L 272.047498 275.065192 
L 271.193301 274.262788 
L 270.705099 273.91819 
L 270.214276 273.723104 
L 270.208531 273.711285 
L 269.969961 273.22044 
L 269.486879 272.602298 
L 269.204469 272.341877 
L 268.412057 271.800635 
L 268.316566 271.845877 
L 268.26171 271.935952 
L 268.2739 272.002308 
L 267.786998 271.835638 
L 267.560725 271.251708 
L 267.443421 271.112754 
L 266.851634 270.411748 
L 266.374159 269.76838 
L 266.040957 269.645855 
L 265.778865 269.495219 
L 265.248565 268.951424 
L 264.506966 268.471458 
L 264.03967 268.285078 
L 263.48499 268.134468 
L 263.210708 267.764261 
L 261.991634 266.888583 
L 261.400383 266.324362 
L 261.34895 266.260834 
L 260.685196 265.440973 
L 260.197563 264.961007 
L 259.949673 264.851222 
L 259.653824 264.626516 
L 259.307628 264.36357 
L 259.025047 264.259396 
L 258.815911 264.182297 
L 258.438011 264.098043 
L 258.3297 264.111958 
L 258.19012 264.465671 
L 258.27141 264.800133 
L 258.278683 265.130306 
L 257.691963 265.179863 
L 257.276955 265.376317 
L 256.747882 265.626766 
L 256.371587 265.541235 
L 255.967356 265.509883 
L 255.55896 265.395017 
L 255.445101 265.320619 
L 255.232037 265.181399 
L 254.797064 264.897178 
L 254.679224 264.782287 
L 254.181432 264.664842 
L 253.945752 264.805265 
L 253.649019 264.65034 
L 253.299644 263.814695 
L 253.401231 263.628315 
L 253.775067 263.163642 
L 253.992462 263.058963 
L 254.04935 262.775564 
L 254.037159 262.124511 
L 253.618604 261.026708 
L 253.429454 260.575368 
L 253.015142 259.586758 
L 252.645349 258.851477 
L 252.195981 258.167197 
L 252.165842 258.121303 
L 251.787922 257.666868 
L 251.448604 257.36049 
L 250.969097 257.079669 
L 250.480955 257.006115 
L 250.438411 256.999705 
L 249.740779 257.065882 
L 249.617251 257.132877 
L 248.424508 257.069993 
L 248.280825 257.105941 
L 248.200856 257.213786 
L 247.655359 257.312644 
L 247.123536 257.226858 
L 246.868331 257.243199 
L 246.086504 257.512811 
L 246.012123 257.563823 
L 245.646007 258.031202 
L 245.311484 257.706442 
L 244.9295 257.360031 
L 244.639512 257.189276 
L 243.796226 257.061823 
L 243.14833 256.892294 
L 242.944487 256.955203 
L 242.806202 256.905246 
L 242.606389 256.833061 
L 242.138503 256.535492 
L 241.747824 256.379213 
L 241.592113 256.37186 
L 240.924692 255.940889 
L 240.390089 255.788608 
L 240.265094 255.753003 
L 239.887661 255.552836 
L 239.69099 255.526692 
L 239.45596 255.648426 
L 239.041794 255.507084 
L 237.853826 254.513832 
L 237.559226 254.373409 
L 237.394637 254.363197 
L 237.288987 254.332559 
L 237.109649 254.021034 
L 237.059362 253.933681 
L 236.8684 253.5743 
L 236.464067 252.616869 
L 236.283569 252.072921 
L 236.197892 251.605848 
L 236.125759 251.456561 
L 236.025195 251.248433 
L 235.775273 251.044181 
L 235.548005 251.098844 
L 235.326486 251.024088 
L 234.829913 250.644001 
L 234.591958 250.291488 
L 234.161863 249.905886 
L 234.051662 249.864218 
L 233.798327 249.959195 
L 233.753629 249.93877 
L 232.99537 249.049815 
L 232.928404 248.991578 
L 232.830435 248.97774 
L 232.319498 248.512429 
L 232.082964 248.472497 
L 231.969444 248.432428 
L 231.311378 248.200153 
L 230.776994 247.965264 
L 230.319816 247.50825 
L 229.153547 247.314211 
L 228.706528 247.449502 
L 228.507419 247.406099 
L 228.036019 247.43929 
L 227.704828 247.531177 
L 227.775958 247.63841 
L 227.632052 247.769718 
L 227.280198 247.967766 
L 226.867718 247.955 
L 226.54059 247.776254 
L 225.719755 247.441817 
L 225.538931 247.400967 
L 224.705925 247.446949 
L 224.340216 247.646095 
L 223.929808 247.625695 
L 222.888428 246.983936 
L 222.254409 246.949289 
L 221.939127 246.710494 
L 221.205147 246.306943 
L 220.580372 246.23068 
L 220.339532 246.276203 
L 219.569327 246.313045 
L 219.394172 246.272169 
L 218.963467 246.064905 
L 218.501169 245.976106 
L 217.640938 246.053543 
L 216.787758 246.048054 
L 216.533711 246.111602 
L 216.13208 246.128121 
L 215.619457 246.105066 
L 215.374634 246.047135 
L 215.290968 246.069909 
L 215.237066 246.137669 
L 214.433581 246.349274 
L 212.389548 246.535067 
L 212.19755 246.647865 
L 211.792201 246.628665 
L 211.685861 245.932039 
L 211.609427 245.780688 
L 211.403187 245.550496 
L 211.123435 244.997419 
L 210.978598 244.711072 
L 210.707262 244.498191 
L 209.558994 243.842849 
L 209.009169 243.850585 
L 208.935011 243.929528 
L 208.720258 243.917963 
L 208.410827 243.606402 
L 208.24963 243.228153 
L 208.361273 242.631457 
L 208.668409 241.863393 
L 209.138894 240.392627 
L 209.169777 240.072335 
L 209.144949 239.942609 
L 208.877168 239.406755 
L 208.64417 239.218766 
L 208.418751 238.763719 
L 208.712233 237.808714 
L 208.84783 237.221286 
L 208.97782 236.546157 
L 208.970343 236.152232 
L 208.847241 235.933708 
L 208.380798 235.58459 
L 208.321289 235.233992 
L 208.217346 235.055578 
L 207.90119 235.054301 
L 207.739749 234.979443 
L 208.185305 233.185136 
L 208.366434 232.455707 
L 208.49687 231.686648 
L 208.570805 230.960788 
L 208.577875 230.53066 
L 208.549959 229.928653 
L 208.451827 229.370433 
L 208.278643 228.966754 
L 208.140019 228.758622 
L 207.909601 228.615926 
L 207.797471 228.649807 
L 207.653625 228.623484 
L 207.41185 228.428244 
L 207.169425 228.160572 
L 207.061804 228.109152 
L 206.858998 228.037868 
L 206.451719 227.974703 
L 206.154295 227.991988 
L 206.033347 228.070982 
L 205.99192 228.211227 
L 206.007686 228.434602 
L 205.918169 228.453725 
L 205.542178 228.219167 
L 205.398373 227.995282 
L 205.008648 227.808723 
L 204.16719 227.311983 
L 203.976757 227.259439 
L 203.631385 226.769209 
L 203.148973 226.202691 
L 203.147225 226.046617 
L 203.300052 225.438227 
L 203.498835 225.020405 
L 203.750159 224.178632 
L 203.841912 223.677653 
L 203.853106 223.320545 
L 203.772528 222.496337 
L 203.709342 222.235125 
L 203.39345 221.547817 
L 203.14751 221.24024 
L 202.922497 221.065962 
L 202.138069 221.126063 
L 202.052818 221.092744 
L 201.948774 220.946628 
L 201.673008 220.781847 
L 201.537167 220.811694 
L 200.983787 220.76875 
L 200.531485 220.158854 
L 199.973595 219.573366 
L 199.834767 219.518703 
L 198.987905 218.519324 
L 198.491515 217.38971 
L 198.338547 217.200853 
L 198.135273 217.058107 
L 197.664909 216.308681 
L 197.214172 216.111093 
L 197.084263 216.172471 
L 195.951721 215.766342 
L 195.519208 215.50924 
L 195.262175 215.320358 
L 195.164225 214.929241 
L 195.028527 214.74041 
L 194.863754 214.613519 
L 194.659586 214.319498 
L 194.63614 213.318409 
L 194.450603 212.888791 
L 194.297594 212.537503 
L 194.014904 212.229169 
L 193.80413 211.999274 
L 193.167876 211.506619 
L 192.786522 210.966883 
L 192.658056 210.693875 
L 192.377496 210.571656 
L 192.12091 210.396842 
L 191.660115 209.92022 
L 191.681184 209.632021 
L 191.635978 209.44028 
L 191.453469 209.045206 
L 191.173802 207.756938 
L 190.830197 206.992245 
L 190.657948 206.831422 
L 190.245793 206.633043 
L 189.802065 206.494407 
L 189.479102 206.449956 
L 189.37772 206.357609 
L 189.05685 205.714037 
L 189.081474 205.626924 
L 189.00691 205.33875 
L 188.722632 205.159953 
L 188.48234 204.759058 
L 188.414541 204.454518 
L 188.259623 204.07775 
L 187.23338 202.7663 
L 186.481013 202.017513 
L 185.207631 201.193842 
L 184.858013 201.020126 
L 184.656466 201.053419 
L 184.519223 201.019513 
L 184.261377 200.824836 
L 184.071208 200.597912 
L 183.998777 200.34949 
L 183.742435 199.906443 
L 183.278593 199.619648 
L 183.000369 199.268692 
L 182.873935 198.885822 
L 182.910445 198.308249 
L 182.65589 197.852742 
L 182.712311 197.708948 
L 182.729703 197.249943 
L 182.701624 196.950612 
L 182.651603 196.833091 
L 182.474417 196.676379 
L 182.411738 196.409192 
L 182.467062 196.126278 
L 182.248449 195.410681 
L 182.010636 194.936562 
L 181.953084 194.720764 
L 181.921342 194.601742 
L 181.969778 194.313389 
L 181.978982 194.070151 
L 181.879123 193.932817 
L 181.859049 193.675996 
L 182.182032 193.643163 
L 182.23957 193.591436 
L 182.106066 192.703911 
L 181.902386 192.537956 
L 181.757605 192.508161 
L 181.721014 192.599895 
L 181.60165 192.587819 
L 181.29163 192.360895 
L 181.169767 192.179162 
L 181.335657 192.121308 
L 181.920001 191.219919 
L 181.983289 190.81527 
L 182.026382 190.742812 
L 182.163807 190.737374 
L 182.281647 190.798649 
L 182.966378 191.444596 
L 182.988727 191.636082 
L 183.035457 191.643741 
L 183.348342 191.564594 
L 183.566955 191.396673 
L 183.939593 190.913541 
L 184.14821 190.535752 
L 184.289273 190.220413 
L 184.504432 189.565505 
L 184.654779 188.766395 
L 184.68361 187.845168 
L 185.036418 186.472723 
L 184.970062 186.186975 
L 184.60803 185.332488 
L 184.583875 185.281571 
L 184.236204 184.548697 
L 183.533188 183.215979 
L 183.169489 182.741119 
L 182.87489 182.442401 
L 182.635126 182.261153 
L 182.15562 182.026263 
L 181.964617 182.028816 
L 181.716747 182.197324 
L 181.288034 182.638993 
L 181.22505 182.641546 
L 181.062005 182.522161 
L 180.483431 182.373491 
L 180.259942 182.434767 
L 180.182716 182.715613 
L 179.716477 182.782684 
L 179.385326 182.789118 
L 179.334033 182.776603 
L 178.581679 182.593037 
L 177.878663 182.107964 
L 177.584063 181.957328 
L 176.937955 181.380317 
L 176.545813 181.112262 
L 175.6112 179.950605 
L 175.442567 179.616143 
L 174.946807 178.870649 
L 174.782408 178.728406 
L 174.514924 178.49697 
L 174.3571 178.451575 
L 174.172945 178.520536 
L 174.020728 178.523651 
L 173.886472 178.471464 
L 173.850206 178.382819 
L 173.886187 178.129011 
L 173.87099 177.997753 
L 173.745105 177.78934 
L 173.424865 177.496366 
L 173.384251 177.291629 
L 173.276671 177.056127 
L 173.029106 176.843935 
L 172.798932 176.796446 
L 172.667561 176.687657 
L 172.50486 176.469567 
L 172.462032 175.865135 
L 172.42544 175.717231 
L 172.286471 175.523677 
L 172.219607 175.303314 
L 172.233036 175.123292 
L 172.370503 174.68101 
L 172.511124 173.467496 
L 172.58105 172.864062 
L 172.59066 172.296855 
L 172.419833 171.899075 
L 172.134823 171.446223 
L 171.720331 170.338182 
L 171.673602 169.684576 
L 171.549667 169.199504 
L 171.228635 168.75015 
L 171.137207 168.688874 
L 170.862925 168.839484 
L 170.845425 168.845886 
L 170.702398 168.898207 
L 170.590654 168.821612 
L 170.237134 168.15782 
L 170.179352 167.750286 
L 170.239166 167.555302 
L 170.275737 167.524664 
L 170.298106 167.368922 
L 170.20871 166.758746 
L 170.227016 166.388565 
L 170.548048 166.158781 
L 170.641508 165.839663 
L 170.696384 165.025235 
L 170.669042 164.485495 
L 170.641548 163.942751 
L 170.526901 163.388718 
L 170.444492 162.990478 
L 170.416829 162.690904 
L 170.332747 161.780312 
L 170.281954 161.532682 
L 170.468324 161.34163 
L 170.720806 161.351408 
L 170.865058 161.282473 
L 171.021501 160.766763 
L 171.178898 160.821834 
L 171.311834 160.92442 
L 172.08086 160.762908 
L 172.099163 160.762333 
L 172.456526 160.751112 
L 172.64574 160.899476 
L 172.906126 161.280048 
L 173.098509 162.7033 
L 173.215536 162.770907 
L 173.264237 162.704219 
L 173.309321 162.71244 
L 173.485959 162.843059 
L 173.385084 163.213138 
L 173.209096 163.147726 
L 172.783163 163.383663 
L 172.74629 163.404088 
L 172.859335 164.130995 
L 173.130265 164.561302 
L 173.10367 164.811945 
L 173.057143 164.862089 
L 172.864313 164.912207 
L 172.890908 165.187947 
L 173.309788 165.480384 
L 173.515906 165.74775 
L 173.449408 165.86471 
L 173.210051 165.781171 
L 173.150217 165.797868 
L 173.043836 166.006741 
L 173.416169 166.340974 
L 174.280524 166.382744 
L 174.327071 166.474657 
L 174.320407 166.566545 
L 174.519881 166.775443 
L 175.397524 166.842285 
L 175.61695 167.009388 
L 175.769857 167.218261 
L 176.381568 167.719572 
L 176.740594 167.752992 
L 176.773833 168.128995 
L 177.312402 168.596884 
L 177.409022 168.624901 
L 177.57171 168.672075 
L 177.694711 168.634467 
L 177.887521 168.500784 
L 178.184173 168.849084 
L 178.366845 169.437738 
L 178.526203 169.564046 
L 178.907689 169.866412 
L 179.2901 169.925823 
L 179.496827 169.957942 
L 179.518724 169.94702 
L 179.813411 169.800035 
L 179.825194 169.794158 
L 179.788963 169.735732 
L 179.535471 169.326957 
L 179.342295 168.927287 
L 178.856652 168.715708 
L 178.472616 168.509133 
L 178.470573 168.425618 
L 178.459329 167.966053 
L 178.120234 167.155607 
L 178.013853 167.097114 
L 177.940711 166.980129 
L 177.801092 166.612501 
L 177.747901 166.445398 
L 177.78114 166.127914 
L 177.761189 165.96081 
L 177.628212 165.10857 
L 177.427122 164.431934 
L 177.422114 164.415084 
L 177.262523 164.206211 
L 177.096308 164.105948 
L 176.723974 163.78009 
L 176.590693 163.653326 
L 176.391524 163.629684 
L 176.231952 163.454232 
L 175.719999 163.03646 
L 175.533832 162.685556 
L 175.493929 162.585294 
L 175.510569 162.447424 
L 175.610286 162.380582 
L 175.758358 162.312285 
L 175.805088 162.224202 
L 175.579262 162.03338 
L 175.369019 161.945322 
L 175.139292 161.876821 
L 174.921268 161.823 
L 174.761636 161.798541 
L 174.551373 161.6909 
L 174.255473 161.578358 
L 174.047216 161.472847 
L 174.014084 161.456062 
L 174.010574 161.399782 
L 173.99462 161.144016 
L 173.914835 161.052103 
L 173.954738 160.793086 
L 174.160836 160.45053 
L 174.280524 160.358617 
L 174.513238 160.341894 
L 174.559784 160.275052 
L 174.568842 160.198227 
L 174.612975 159.823885 
L 174.426788 159.155471 
L 174.436764 158.675046 
L 174.370286 158.566409 
L 174.365452 158.561284 
L 174.157524 158.340838 
L 173.938098 158.265623 
L 173.479335 158.265623 
L 173.372954 158.382608 
L 173.266573 158.390957 
L 173.040504 158.357536 
L 172.89424 158.282346 
L 172.827742 158.232202 
L 172.801146 157.914718 
L 172.708073 157.797733 
L 172.581741 157.764312 
L 172.329076 157.538716 
L 172.254999 157.379119 
L 171.996646 156.878651 
L 172.003289 156.820184 
L 172.295837 156.878651 
L 172.368979 156.945492 
L 172.43761 157.020887 
L 172.611343 157.060077 
L 172.766993 156.703045 
L 173.266573 156.494325 
L 173.381914 156.192467 
L 173.359646 156.080537 
L 173.279861 155.976292 
L 173.239978 155.733998 
L 173.25993 155.617013 
L 173.346359 155.575243 
L 173.430919 155.683114 
L 173.825073 155.842609 
L 173.991288 155.800839 
L 174.007777 155.786398 
L 174.210714 155.608664 
L 174.323739 155.591966 
L 174.62293 155.658808 
L 174.975332 155.358021 
L 175.181629 155.082321 
L 175.394212 154.798218 
L 175.394212 154.62274 
L 175.333035 154.449152 
L 175.316855 154.403241 
L 175.188094 154.037891 
L 174.98862 153.820643 
L 174.602999 153.252491 
L 174.288306 153.076426 
L 173.24264 152.473679 
L 172.738204 152.274457 
L 172.660633 152.317862 
L 172.408862 152.458743 
L 171.803835 152.951705 
L 171.584409 152.968403 
L 171.491336 152.901561 
L 170.892933 153.001823 
L 170.779908 153.077039 
L 170.76461 153.134712 
L 170.753313 153.177301 
L 170.779908 153.461364 
L 170.846386 153.636842 
L 170.906221 154.104732 
L 170.733362 154.497432 
L 170.587078 155.115702 
L 170.620337 155.44156 
L 170.686815 155.550171 
L 170.952767 155.742347 
L 171.331765 155.850958 
L 171.531219 156.034784 
L 171.624312 156.235308 
L 171.624312 156.327222 
L 171.458077 156.477602 
L 171.338408 156.410761 
L 171.145598 156.402412 
L 170.806504 156.786763 
L 170.773244 156.836881 
L 170.773244 156.978913 
L 170.826435 157.246278 
L 170.972719 157.329843 
L 170.999314 157.430105 
L 170.866338 157.530367 
L 170.587078 157.488598 
L 170.513956 157.555439 
L 170.513956 157.755963 
L 170.706767 157.931416 
L 170.85303 157.931416 
L 171.019266 158.01498 
L 171.145598 158.223853 
L 171.138934 158.424377 
L 171.418194 158.641625 
L 171.624312 158.658322 
L 171.810479 158.900616 
L 171.83043 158.975832 
L 171.591053 159.226474 
L 171.345052 159.284967 
L 170.912844 158.742883 
L 170.555505 158.651888 
L 170.652073 159.236227 
L 170.919528 159.410301 
L 171.054211 160.213113 
L 170.999802 160.394003 
L 170.911788 160.360812 
L 170.466841 160.478257 
L 169.98325 160.557405 
L 169.818681 160.268899 
L 169.580949 160.118289 
L 169.326963 159.719998 
L 168.86369 159.531065 
L 168.518277 159.12514 
L 167.993626 158.845468 
L 167.732265 158.557754 
L 167.396178 158.374693 
L 166.950113 158.32146 
L 166.875 158.325392 
L 166.643425 158.460173 
L 166.459127 158.647854 
L 165.958166 158.371961 
L 165.844369 157.973696 
L 165.7631 157.83072 
L 165.403323 157.583013 
L 165.169025 157.519772 
L 164.821478 157.179437 
L 164.648884 156.717624 
L 164.533766 156.532903 
L 164.0466 156.020282 
L 163.331637 155.510112 
L 162.812715 155.291665 
L 161.642505 155.122264 
L 161.29508 155.203658 
L 160.978802 155.419986 
L 160.787861 155.704101 
L 160.775467 155.827801 
L 160.820958 155.915705 
L 160.889691 156.047218 
L 160.937924 156.130221 
L 159.928646 156.067694 
L 159.999837 155.948564 
L 160.086368 155.893748 
L 160.183281 155.849145 
L 160.571604 154.870779 
L 161.212226 153.052835 
L 161.391079 152.399229 
L 161.452274 152.003543 
L 161.441059 151.748713 
L 161.359729 151.451807 
L 161.120413 151.159651 
L 161.100868 150.868566 
L 161.065475 150.768636 
L 160.581092 149.983364 
L 160.540336 149.870592 
L 160.555046 149.817384 
L 160.678696 149.872226 
L 161.05619 149.735862 
L 161.083944 149.53641 
L 160.88323 149.096988 
L 160.69556 148.962641 
L 160.527252 148.709063 
L 160.476398 148.546631 
L 160.358452 148.387051 
L 160.333852 148.353767 
L 159.923221 148.007534 
L 159.63047 147.930863 
L 159.380182 148.004471 
L 159.331116 148.131387 
L 159.360678 148.220135 
L 159.330547 148.29318 
L 159.234345 148.319478 
L 159.123982 148.221871 
L 158.900229 147.701131 
L 159.02715 147.378515 
L 159.030645 146.749037 
L 158.679015 145.966242 
L 158.310583 145.327546 
L 157.931199 144.771649 
L 157.800234 144.437085 
L 157.465 144.207199 
L 157.036246 143.810823 
L 156.307894 143.316355 
L 155.34242 142.889188 
L 154.583389 142.14423 
L 154.380319 142.061789 
L 153.674336 141.497799 
L 153.441927 140.873146 
L 153.314457 140.699608 
L 152.862115 140.433315 
L 152.711219 140.057543 
L 152.327975 139.416932 
L 152.229558 139.355529 
L 152.175657 139.16966 
L 151.625934 138.393452 
L 151.441982 138.071423 
L 151.045451 137.630827 
L 150.461737 137.242442 
L 149.958622 136.993433 
L 149.747973 136.691268 
L 149.577654 136.31833 
L 149.40898 136.104989 
L 148.796416 135.557977 
L 148.63654 135.439358 
L 148.50399 135.438796 
L 148.22278 135.151363 
L 148.195392 135.026897 
L 148.119243 134.930515 
L 147.442274 134.391801 
L 147.360212 134.388227 
L 147.264498 134.350772 
L 147.166467 134.11818 
L 147.115999 133.835904 
L 147.011366 133.659967 
L 146.437344 133.122146 
L 145.981405 132.62081 
L 145.680161 132.513374 
L 145.634184 132.205413 
L 145.660901 132.030088 
L 145.405493 131.576828 
L 145.527274 131.554513 
L 145.605272 131.511799 
L 145.761837 131.327666 
L 145.969032 130.9846 
L 146.258532 130.29308 
L 146.383686 129.861802 
L 146.39679 129.609959 
L 146.318081 128.940882 
L 145.92346 127.63727 
L 145.758627 127.20566 
L 145.465429 126.840126 
L 145.425262 126.743157 
L 145.337735 126.195686 
L 144.955995 125.51374 
L 144.856827 125.461094 
L 144.671798 124.990651 
L 144.623646 124.34902 
L 144.409807 123.656785 
L 144.184327 123.477349 
L 144.085646 123.288008 
L 144.128129 123.166504 
L 144.101229 122.956712 
L 143.932475 122.418559 
L 143.985604 122.123849 
L 143.810937 121.755379 
L 143.715121 121.626266 
L 143.649171 121.193329 
L 143.629362 120.991732 
L 143.710245 120.703814 
L 143.719144 120.019009 
L 143.865367 119.004668 
L 144.25243 117.838467 
L 144.485448 117.399224 
L 144.60022 117.091339 
L 144.844961 116.291566 
L 144.830028 116.111595 
L 144.419478 114.970337 
L 144.498248 114.843574 
L 144.522994 114.537987 
L 144.440953 113.556404 
L 144.312975 112.938798 
L 143.997063 112.259839 
L 143.661097 112.070574 
L 143.563554 111.944372 
L 143.521823 111.751405 
L 143.450855 111.543605 
L 143.389964 111.19533 
L 143.409042 110.587093 
L 143.355262 110.091655 
L 143.113142 109.162207 
L 143.071492 109.109638 
L 142.508827 108.82057 
L 141.976394 108.371063 
L 141.824462 108.057409 
L 141.810016 107.909301 
L 141.521634 107.179534 
L 141.015633 106.855897 
L 140.85913 106.466236 
L 140.506098 105.832468 
L 140.184497 105.562166 
L 139.614027 104.841172 
L 139.370914 104.533912 
L 138.95433 104.253423 
L 138.778362 104.241168 
L 138.700365 104.329966 
L 138.627202 104.295499 
L 138.475351 104.113817 
L 138.460601 103.186079 
L 138.331038 102.871225 
L 137.854335 102.224692 
L 137.256948 101.903378 
L 136.630873 101.702777 
L 136.283307 101.541035 
L 135.734315 100.765899 
L 135.405176 100.493249 
L 134.850313 100.169101 
L 134.07639 99.542584 
L 133.580345 99.088098 
L 133.442614 98.813558 
L 133.130156 98.644821 
L 132.934196 98.47953 
L 132.716822 98.210913 
L 132.712353 97.821865 
L 133.032979 96.840894 
L 132.925887 96.412195 
L 132.855366 96.320512 
L 132.729378 95.936773 
L 132.677346 95.303363 
L 132.509892 94.84206 
L 132.398492 94.691297 
L 132.146274 94.481454 
L 131.920205 94.097001 
L 131.778634 93.689237 
L 131.798748 93.558389 
" clip-path="url(#p54868721e5)" style="fill: #ff5733"/>
   </g>
   <g id="text_1">
    <!-- CA -->
    <g transform="translate(227.865938 35.472) scale(0.12 -0.12)">
     <defs>
      <path id="DejaVuSans-43" d="M 4122 4306 
L 4122 3641 
Q 3803 3938 3442 4084 
Q 3081 4231 2675 4231 
Q 1875 4231 1450 3742 
Q 1025 3253 1025 2328 
Q 1025 1406 1450 917 
Q 1875 428 2675 428 
Q 3081 428 3442 575 
Q 3803 722 4122 1019 
L 4122 359 
Q 3791 134 3420 21 
Q 3050 -91 2638 -91 
Q 1578 -91 968 557 
Q 359 1206 359 2328 
Q 359 3453 968 4101 
Q 1578 4750 2638 4750 
Q 3056 4750 3426 4639 
Q 3797 4528 4122 4306 
z
" transform="scale(0.015625)"/>
      <path id="DejaVuSans-41" d="M 2188 4044 
L 1331 1722 
L 3047 1722 
L 2188 4044 
z
M 1831 4666 
L 2547 4666 
L 4325 0 
L 3669 0 
L 3244 1197 
L 1141 1197 
L 716 0 
L 50 0 
L 1831 4666 
z
" transform="scale(0.015625)"/>
     </defs>
     <use xlink:href="#DejaVuSans-43"/>
     <use xlink:href="#DejaVuSans-41" x="69.824219"/>
    </g>
   </g>
  </g>
 </g>
 <defs>
  <clipPath id="p54868721e5">
   <rect x="121.340498" y="41.472" width="229.639004" height="266.112"/>
  </clipPath>
 </defs>
</svg>
