<?xml version="1.0" encoding="utf-8" standalone="no"?>
<!DOCTYPE svg PUBLIC "-//W3C//DTD SVG 1.1//EN"
  "http://www.w3.org/Graphics/SVG/1.1/DTD/svg11.dtd">
<svg xmlns:xlink="http://www.w3.org/1999/xlink" width="360pt" height="360pt" viewBox="0 0 360 360" xmlns="http://www.w3.org/2000/svg" version="1.1">
 <metadata>
  <rdf:RDF xmlns:dc="http://purl.org/dc/elements/1.1/" xmlns:cc="http://creativecommons.org/ns#" xmlns:rdf="http://www.w3.org/1999/02/22-rdf-syntax-ns#">
   <cc:Work>
    <dc:type rdf:resource="http://purl.org/dc/dcmitype/StillImage"/>
    <dc:date>2023-06-19T15:20:25.834591</dc:date>
    <dc:format>image/svg+xml</dc:format>
    <dc:creator>
     <cc:Agent>
      <dc:title>Matplotlib v3.7.1, https://matplotlib.org/</dc:title>
     </cc:Agent>
    </dc:creator>
   </cc:Work>
  </rdf:RDF>
 </metadata>
 <defs>
  <style type="text/css">*{stroke-linejoin: round; stroke-linecap: butt}</style>
 </defs>
 <g id="figure_1">
  <g id="patch_1">
   <path d="M 0 360 
L 360 360 
L 360 0 
L 0 0 
z
" style="fill: #ffffff"/>
  </g>
  <g id="axes_1">
   <g id="PatchCollection_1">
    <path d="M 201.004836 275.44621 
L 201.118187 275.450135 
L 201.435307 275.551834 
L 202.45739 275.544429 
L 202.798726 275.69372 
L 203.551354 276.149864 
L 203.564757 276.192148 
L 203.912783 276.233272 
L 204.108382 276.179485 
L 204.894186 276.660461 
L 205.443068 276.701165 
L 206.468434 277.130057 
L 206.757587 277.144818 
L 206.807499 277.198507 
L 206.886662 277.660994 
L 207.889688 278.638299 
L 208.09647 278.782802 
L 208.241367 278.958876 
L 208.415121 279.342249 
L 208.367973 279.587637 
L 208.079092 279.814388 
L 207.870336 279.865287 
L 207.425893 279.713256 
L 207.004209 279.464042 
L 206.647865 279.347161 
L 205.952431 279.326525 
L 205.036491 279.382386 
L 204.635073 279.30384 
L 204.411457 279.199277 
L 204.00372 278.753304 
L 203.833793 278.444107 
L 203.985873 278.116668 
L 204.088166 277.711696 
L 203.928112 277.074566 
L 203.834286 276.88462 
L 203.459034 276.775811 
L 203.163759 276.820663 
L 203.155046 276.755051 
L 202.983168 276.615387 
L 202.633884 276.519735 
L 202.107242 276.549085 
L 201.990559 276.525338 
L 201.805796 276.402657 
L 201.683015 276.182719 
L 201.237018 275.71527 
L 201.058895 275.649733 
L 200.988668 275.484668 
L 201.004836 275.44621 
" clip-path="url(#p1874a787b6)" style="fill: #850096"/>
    <path d="M 200.951542 286.482585 
L 201.235438 286.360348 
L 201.701307 286.40947 
L 201.853042 286.528202 
L 201.9658 286.63279 
L 201.963776 286.787734 
L 202.095986 287.092487 
L 202.567507 287.718435 
L 202.835111 287.965575 
L 203.635305 288.880725 
L 203.919744 289.135024 
L 204.073997 289.213569 
L 204.528585 289.481469 
L 204.870513 289.829174 
L 206.765955 291.215228 
L 207.172754 291.64254 
L 207.097788 291.757347 
L 206.999322 291.692921 
L 206.519506 291.57878 
L 206.336669 291.559477 
L 206.159188 291.592776 
L 205.993728 291.682628 
L 205.392268 292.169972 
L 205.298566 292.050647 
L 205.324682 292.015028 
L 204.916204 291.676333 
L 204.147186 291.153986 
L 203.855071 291.083981 
L 203.647969 290.911635 
L 203.386215 290.493703 
L 203.356767 290.424142 
L 203.379032 290.302127 
L 202.948338 289.884689 
L 202.951054 289.827594 
L 202.672317 289.5612 
L 202.294374 288.601594 
L 202.053627 288.287213 
L 201.74174 288.008477 
L 201.41082 287.043365 
L 201.18597 286.868699 
L 200.926241 286.885163 
L 200.951542 286.482585 
" clip-path="url(#p1874a787b6)" style="fill: #850096"/>
    <path d="M 189.732725 275.111761 
L 190.466099 274.964987 
L 190.700773 275.356408 
L 190.583448 275.845826 
L 189.908749 275.992649 
L 189.58605 275.698978 
L 189.732725 275.111761 
" clip-path="url(#p1874a787b6)" style="fill: #850096"/>
    <path d="M 180.580239 261.844705 
L 181.254938 262.209417 
L 182.222987 261.917647 
L 182.633686 262.087822 
L 182.252336 262.54984 
L 181.548288 262.695774 
L 180.756239 262.622807 
L 179.96419 262.185078 
L 180.580239 261.844705 
" clip-path="url(#p1874a787b6)" style="fill: #850096"/>
    <path d="M 176.92354 280.370009 
L 177.340706 280.555118 
L 177.50856 280.498343 
L 177.696162 280.328046 
L 177.789963 280.328021 
L 178.059047 280.219434 
L 178.177533 280.214473 
L 178.747767 280.513154 
L 179.297242 280.731759 
L 179.718432 280.848615 
L 179.897419 280.96162 
L 180.610971 281.615609 
L 180.247863 281.837201 
L 179.742919 281.929965 
L 179.463887 281.927793 
L 178.855292 281.803161 
L 178.584381 281.742487 
L 178.439854 281.650908 
L 177.739853 281.486288 
L 177.268406 281.139867 
L 177.251867 281.075959 
L 177.24266 281.011532 
L 177.128421 280.885889 
L 176.92354 280.370009 
" clip-path="url(#p1874a787b6)" style="fill: #850096"/>
    <path d="M 168.525583 260.655756 
L 168.681045 260.650128 
L 169.217363 260.764959 
L 170.052338 260.803418 
L 170.828391 261.087387 
L 171.004218 261.255167 
L 171.273698 261.276643 
L 171.718684 261.149937 
L 172.189391 261.204465 
L 172.304124 261.196591 
L 172.363194 261.152529 
L 172.564791 261.163366 
L 172.960952 261.34645 
L 173.282713 261.380786 
L 173.624863 261.495396 
L 173.821055 261.633234 
L 174.268361 262.074492 
L 175.472097 262.238076 
L 175.926265 262.156864 
L 176.101944 262.038675 
L 176.297914 261.784302 
L 176.186562 261.693365 
L 176.175676 261.641404 
L 176.570602 261.338403 
L 177.060094 261.326431 
L 177.225726 261.243936 
L 178.141444 261.54748 
L 178.36269 261.71763 
L 178.334797 261.767369 
L 178.072081 261.947515 
L 177.913261 261.971237 
L 177.824348 262.04297 
L 177.680413 262.320991 
L 177.710232 262.428368 
L 177.527567 262.617179 
L 177.379658 262.673706 
L 177.005147 262.661882 
L 176.645643 262.81732 
L 176.480825 262.844498 
L 175.932708 262.878636 
L 175.882475 262.835142 
L 175.226042 262.864862 
L 174.852938 262.911689 
L 174.179423 263.248976 
L 173.763689 263.32419 
L 173.630121 263.416904 
L 173.572532 263.515222 
L 173.411837 263.561037 
L 172.874704 263.455042 
L 172.690262 263.457955 
L 172.500118 263.570195 
L 171.567122 263.478443 
L 170.411644 263.295506 
L 169.656055 263.047798 
L 169.564747 262.914947 
L 169.417233 262.54357 
L 169.371246 262.345798 
L 169.429624 262.275201 
L 169.568227 261.982617 
L 169.582717 261.771318 
L 169.175622 261.43951 
L 168.59813 261.123007 
L 168.422352 260.851231 
L 168.525583 260.655756 
" clip-path="url(#p1874a787b6)" style="fill: #850096"/>
    <path d="M 160.423221 262.516195 
L 160.638864 262.375963 
L 160.852532 262.313166 
L 161.067632 262.307464 
L 161.383815 262.423776 
L 161.697258 262.457619 
L 162.400122 262.360486 
L 162.78626 262.115937 
L 162.885392 261.950428 
L 163.065218 261.922214 
L 163.17652 261.919425 
L 163.689833 262.072986 
L 164.303882 262.074467 
L 164.712977 261.959166 
L 164.980334 261.794176 
L 165.000698 261.724689 
L 165.107236 261.641651 
L 165.169688 261.632049 
L 165.462149 261.679517 
L 165.443759 261.9507 
L 165.350106 262.039391 
L 165.286322 262.234299 
L 165.322262 262.319041 
L 165.380295 262.563317 
L 165.510234 262.698958 
L 165.896742 262.919982 
L 166.255407 263.059672 
L 166.4358 263.068237 
L 166.917122 262.959601 
L 167.051405 262.981002 
L 167.025807 263.313205 
L 167.101243 263.632375 
L 167.242339 263.787689 
L 167.264086 263.936832 
L 167.179394 263.983189 
L 166.506274 264.006072 
L 166.092687 264.134135 
L 165.372742 264.548067 
L 165.337344 264.596745 
L 165.330038 264.642411 
L 165.303601 264.672329 
L 164.609697 264.812462 
L 164.096064 264.837961 
L 163.926038 264.926159 
L 163.835989 265.053308 
L 163.522991 265.137655 
L 162.358948 264.560582 
L 162.110253 264.340792 
L 161.843883 263.854287 
L 161.782197 263.791021 
L 161.627598 263.74301 
L 161.590991 263.627166 
L 161.361747 263.245249 
L 160.989284 262.833439 
L 160.39629 262.57993 
L 160.423221 262.516195 
" clip-path="url(#p1874a787b6)" style="fill: #850096"/>
    <path d="M 155.443857 261.641528 
L 155.792056 261.529781 
L 156.19293 261.277482 
L 156.278857 261.206712 
L 156.376928 261.258327 
L 156.567023 261.318236 
L 156.750304 261.32453 
L 156.880687 261.279926 
L 157.292794 261.016691 
L 157.42604 260.890257 
L 157.431693 260.805491 
L 157.392395 260.714332 
L 157.439246 260.675873 
L 157.588019 260.760023 
L 157.76745 261.100667 
L 157.636425 261.185483 
L 157.677944 261.323345 
L 157.965814 261.413666 
L 158.355458 261.351436 
L 158.654855 261.52714 
L 158.799431 261.66051 
L 159.072268 261.981457 
L 159.012507 262.040773 
L 158.70373 262.098387 
L 157.947054 262.066865 
L 157.759107 262.12117 
L 157.694681 262.192385 
L 157.269788 262.099917 
L 156.424964 261.768578 
L 156.280387 261.767418 
L 156.186685 261.848778 
L 155.979657 261.935766 
L 155.319942 261.870204 
L 155.443857 261.641528 
" clip-path="url(#p1874a787b6)" style="fill: #850096"/>
    <path d="M 107.833431 168.00608 
L 108.029376 167.969325 
L 108.194687 168.171392 
L 108.304903 168.410164 
L 108.209078 168.575574 
L 107.968134 168.483649 
L 107.962012 168.355068 
L 107.818102 168.108348 
L 107.833431 168.00608 
" clip-path="url(#p1874a787b6)" style="fill: #850096"/>
    <path d="M 106.144104 167.255723 
L 106.335433 167.075009 
L 106.523207 166.979357 
L 106.760597 167.036032 
L 106.831466 167.238 
L 106.831466 167.461221 
L 106.825835 167.461322 
L 106.438169 167.468305 
L 106.218503 167.393907 
L 106.144104 167.255723 
" clip-path="url(#p1874a787b6)" style="fill: #850096"/>
    <path d="M 57.706256 103.51675 
L 58.001457 103.04977 
L 58.290314 102.365987 
L 58.332672 102.118353 
L 58.238896 101.992414 
L 58.342743 101.645696 
L 58.434569 101.550291 
L 58.818437 100.912619 
L 59.661187 99.240694 
L 60.013261 98.670583 
L 60.077021 98.625978 
L 60.655598 97.68064 
L 61.660575 96.309766 
L 62.158262 95.464967 
L 62.80803 94.583215 
L 63.430225 93.632692 
L 63.884245 92.831659 
L 64.408937 91.605757 
L 64.875941 90.037532 
L 65.023604 89.077061 
L 64.695721 88.575202 
L 64.510637 88.477008 
L 64.380525 88.431095 
L 64.265743 88.438747 
L 64.15839 88.467085 
L 64.115859 88.502062 
L 64.058418 88.511097 
L 64.000262 88.450645 
L 63.99024 88.293331 
L 63.978268 87.621026 
L 63.8291 87.328467 
L 63.865905 86.762058 
L 63.709183 86.567915 
L 63.744383 86.349384 
L 63.878889 86.242106 
L 64.097716 86.295819 
L 64.242712 86.201006 
L 64.764121 85.089221 
L 65.151444 84.103029 
L 65.166181 83.831402 
L 65.514354 82.670914 
L 65.841892 81.203672 
L 66.007796 80.519692 
L 66.235337 78.921747 
L 66.174989 78.300675 
L 66.161752 78.164454 
L 65.918364 77.386919 
L 65.782353 77.153133 
L 65.76853 76.251338 
L 65.511392 76.106835 
L 65.296169 75.722326 
L 65.289257 75.491971 
L 65.388439 75.325919 
L 65.300168 74.900163 
L 64.968113 74.547941 
L 64.928026 74.249728 
L 64.824647 73.965734 
L 64.446309 73.547259 
L 64.352459 73.193161 
L 64.376675 73.014718 
L 64.250636 72.264238 
L 64.153552 72.050199 
L 63.984859 71.782472 
L 63.726413 71.502921 
L 63.413563 71.363948 
L 63.216754 71.522052 
L 63.076621 71.602819 
L 62.980031 71.585565 
L 62.760586 71.332377 
L 61.874984 70.745752 
L 61.811594 70.715291 
L 61.653219 70.729485 
L 61.47327 70.444256 
L 61.743983 70.215037 
L 62.09818 69.563837 
L 62.371831 68.87882 
L 62.647137 67.847999 
L 62.771472 66.545354 
L 62.73331 65.496834 
L 62.568986 65.126099 
L 64.677306 65.162335 
L 65.301155 65.163224 
L 65.318558 65.166038 
L 65.624373 65.164829 
L 65.653155 65.165372 
L 67.763005 65.183218 
L 71.884808 65.183959 
L 72.185046 65.199117 
L 72.199189 65.199831 
L 72.383828 65.209137 
L 72.993459 65.184082 
L 74.502639 65.161965 
L 74.668685 65.166329 
L 76.259133 65.208125 
L 77.059994 65.092108 
L 78.837123 65.082012 
L 79.511378 65.06224 
L 79.692483 65.066291 
L 80.085241 65.075076 
L 80.161787 65.076384 
L 80.163416 65.075125 
L 81.7447 65.047578 
L 83.052825 65.106154 
L 83.897378 65.110103 
L 86.771965 64.99352 
L 86.780517 64.993173 
L 87.728423 64.953653 
L 88.652928 64.889721 
L 88.873829 64.859828 
L 90.404336 64.953604 
L 90.856086 64.965946 
L 91.359672 65.012822 
L 93.918384 65.011933 
L 95.094251 65.023782 
L 95.533954 65.007934 
L 97.411648 64.987595 
L 99.562598 64.985472 
L 101.492993 64.968168 
L 104.790929 64.879255 
L 107.337151 64.871899 
L 107.82568 64.853139 
L 110.008732 64.896324 
L 110.014348 64.896435 
L 110.715385 64.906309 
L 113.178864 64.89957 
L 113.200834 64.89957 
L 113.293943 64.905815 
L 113.324996 64.904704 
L 114.645267 64.945754 
L 117.153277 64.990162 
L 120.944975 65.012304 
L 124.364087 65.067967 
L 124.441941 65.069176 
L 124.834078 65.073669 
L 125.174994 65.079421 
L 127.507251 65.120964 
L 129.003497 65.137873 
L 130.798297 65.157971 
L 130.994048 65.160163 
L 131.108411 65.161595 
L 132.56173 65.161496 
L 132.952928 65.170037 
L 133.4401 65.181392 
L 133.558165 65.174036 
L 133.591465 65.170654 
L 134.193863 65.147031 
L 135.647331 65.148068 
L 135.733306 65.160805 
L 138.73303 65.186576 
L 139.502369 65.219949 
L 140.976793 65.252903 
L 144.809542 65.241629 
L 144.820502 65.241597 
L 146.479343 65.231674 
L 149.400447 65.244189 
L 149.442954 65.244164 
L 150.554888 65.258802 
L 154.161379 65.241498 
L 158.420135 65.257627 
L 158.48273 65.257864 
L 159.459764 65.259444 
L 162.048196 65.221677 
L 166.503855 65.208076 
L 166.550509 65.222862 
L 166.547843 68.176327 
L 166.572256 71.261853 
L 166.558235 74.34738 
L 166.572429 74.498646 
L 166.54303 77.432906 
L 166.533279 85.231205 
L 166.545819 92.904922 
L 166.548929 93.044315 
L 166.548954 93.082699 
L 166.567516 95.946091 
L 166.590868 96.659643 
L 166.630536 102.117144 
L 166.624883 106.512524 
L 166.624883 106.527038 
L 166.624217 107.951773 
L 166.624192 107.97821 
L 166.600964 111.337709 
L 166.598249 112.196035 
L 166.599705 112.550158 
L 166.596842 112.684491 
L 166.588375 115.530554 
L 166.536562 118.124861 
L 166.514988 119.868246 
L 166.51758 119.888562 
L 166.501539 121.018244 
L 166.497413 121.308804 
L 166.487021 125.840072 
L 166.453055 128.153964 
L 166.453023 128.155674 
L 166.42062 129.886933 
L 166.413708 130.983414 
L 166.39876 131.329871 
L 166.39865 131.332402 
L 166.396355 131.394163 
L 166.39633 131.406579 
L 166.403044 131.951784 
L 166.400034 132.265292 
L 166.388209 133.49688 
L 166.388135 133.582139 
L 166.418783 135.05361 
L 166.445986 136.359702 
L 166.469223 137.475389 
L 166.504942 139.151831 
L 168.891899 140.787173 
L 176.707872 146.182938 
L 176.723004 146.192541 
L 176.763215 146.220508 
L 179.015766 147.784512 
L 179.01974 147.787425 
L 180.09129 148.52228 
L 180.091019 148.522255 
L 181.933192 149.834775 
L 182.078262 149.921466 
L 182.984032 150.537417 
L 183.107745 150.625161 
L 184.320964 151.485644 
L 185.018891 151.957955 
L 185.414385 152.248811 
L 187.339355 153.588134 
L 188.10459 154.120556 
L 188.81602 154.622069 
L 189.181423 154.908063 
L 190.471924 155.798825 
L 191.190314 156.329687 
L 192.456674 157.1871 
L 193.126979 157.656623 
L 194.692736 158.770161 
L 196.84571 160.323724 
L 197.469461 160.742001 
L 198.266422 161.303349 
L 200.555209 162.976854 
L 201.780346 163.827454 
L 203.532939 165.084162 
L 205.338792 166.38723 
L 209.704313 169.537303 
L 214.610537 173.084108 
L 214.916402 173.322485 
L 214.915143 173.323176 
L 216.496747 174.457474 
L 218.253068 175.777029 
L 218.961461 176.235393 
L 220.027852 177.033638 
L 222.999065 179.255185 
L 223.782746 179.78669 
L 226.231242 181.624765 
L 227.231775 182.340737 
L 228.218559 183.072605 
L 228.238109 183.070186 
L 231.304209 185.379091 
L 234.016014 187.401559 
L 234.537571 187.763581 
L 236.485578 189.220455 
L 237.325477 189.848599 
L 238.936061 191.068576 
L 240.56111 192.26972 
L 251.889082 200.853526 
L 252.903636 201.636738 
L 253.215869 201.862008 
L 255.879144 203.939003 
L 255.98936 203.998073 
L 259.075059 206.357483 
L 262.867893 209.285869 
L 262.957127 209.348592 
L 267.418661 212.815418 
L 267.909462 213.195361 
L 268.898492 213.943471 
L 269.069408 214.078064 
L 271.417881 215.927431 
L 272.937009 217.094609 
L 273.438029 217.476921 
L 273.956024 217.893732 
L 273.96435 217.900432 
L 273.976223 217.909392 
L 274.465369 218.283336 
L 274.503581 218.328583 
L 277.58928 220.763231 
L 279.759632 222.451669 
L 279.928202 222.608859 
L 279.966266 222.633741 
L 280.226464 222.837659 
L 280.287212 222.88883 
L 280.897155 223.368658 
L 282.454306 224.593634 
L 283.254106 225.224247 
L 285.987731 227.40504 
L 286.000839 227.409582 
L 286.328648 227.667954 
L 286.352715 227.679803 
L 286.846329 228.080727 
L 287.412466 228.514407 
L 287.532506 228.62255 
L 288.870549 229.683436 
L 291.378387 231.708002 
L 291.791505 232.027418 
L 291.793949 232.027789 
L 294.764742 234.416129 
L 294.784021 234.430816 
L 298.99918 237.833118 
L 299.087032 238.008797 
L 299.105249 238.079221 
L 299.109569 238.220885 
L 299.08755 238.353119 
L 298.971533 238.642692 
L 298.955982 238.739233 
L 298.962993 238.893041 
L 299.04376 239.08084 
L 299.08992 239.241289 
L 299.090957 239.284981 
L 299.091352 239.392506 
L 299.031048 239.591363 
L 299.004956 239.739964 
L 299.005351 239.823348 
L 299.071629 240.054838 
L 299.063606 240.168115 
L 298.951342 240.46608 
L 298.919252 240.616285 
L 298.91819 240.700261 
L 298.957488 240.964434 
L 298.977087 241.016592 
L 299.06842 241.177979 
L 299.234867 241.341241 
L 299.33511 241.411962 
L 299.720755 241.592158 
L 299.809668 241.64676 
L 300.014894 241.800001 
L 300.150584 241.935296 
L 300.29168 242.171205 
L 300.407055 242.438167 
L 300.453536 242.674002 
L 300.541388 242.956688 
L 300.846413 243.461287 
L 300.993804 243.633608 
L 301.136924 243.758734 
L 301.299298 243.874578 
L 301.563199 244.029769 
L 301.662035 244.123989 
L 301.735891 244.20483 
L 301.77467 244.267948 
L 301.883998 244.377251 
L 302.040176 244.455328 
L 302.211264 244.512966 
L 302.396471 244.594202 
L 302.491284 244.649841 
L 302.517103 244.670921 
L 302.620852 244.812807 
L 302.739683 244.88844 
L 302.854638 244.92601 
L 302.943872 244.939587 
L 302.994771 244.964222 
L 303.022986 245.003667 
L 303.068825 245.097345 
L 303.081907 245.240193 
L 303.15211 245.501453 
L 303.227842 245.634798 
L 303.366346 245.828423 
L 303.393351 245.882432 
L 303.407248 245.948488 
L 303.422182 245.994351 
L 303.463578 246.060703 
L 303.479795 246.103925 
L 303.485177 246.147148 
L 303.484387 246.175609 
L 303.463578 246.282196 
L 303.479795 246.341612 
L 303.485177 246.411839 
L 303.539581 246.483374 
L 303.669742 246.603859 
L 303.73913 246.702893 
L 303.768035 246.808789 
L 303.737649 246.974446 
L 303.740784 247.007967 
L 303.80642 247.223117 
L 304.05551 247.391316 
L 304.165257 247.494695 
L 304.162196 247.695008 
L 304.137215 247.731936 
L 304.083798 247.771802 
L 304.019915 247.829884 
L 304.028382 247.85526 
L 304.028382 247.956762 
L 304.210182 248.228858 
L 304.633619 248.502213 
L 305.019313 249.160176 
L 305.235672 249.487442 
L 305.300221 249.813351 
L 305.302665 250.041262 
L 305.22175 250.239872 
L 305.198151 250.325898 
L 305.181366 250.495085 
L 305.217973 250.767107 
L 305.214369 250.8126 
L 305.169345 250.951697 
L 305.07895 251.158651 
L 305.07352 251.196393 
L 305.090996 251.260104 
L 305.284695 251.446101 
L 305.360303 251.509737 
L 305.4114 251.530966 
L 305.66602 251.510354 
L 305.848166 251.461701 
L 306.179184 251.419787 
L 306.252941 251.41996 
L 306.357973 251.454444 
L 306.416747 251.502727 
L 306.474064 251.571522 
L 306.586106 251.770084 
L 306.760773 251.805136 
L 306.928701 251.881781 
L 307.206031 252.027888 
L 307.35858 252.161628 
L 307.423007 252.255009 
L 307.434732 252.415507 
L 307.472548 252.484944 
L 307.510957 252.526118 
L 307.556895 252.557788 
L 307.722132 252.611921 
L 308.032835 252.628237 
L 308.111924 252.656797 
L 308.39772 252.933978 
L 308.498679 252.983026 
L 308.58231 253.043602 
L 308.853493 253.265687 
L 308.96677 253.45709 
L 309.055115 253.530946 
L 309.359548 253.616255 
L 309.712338 253.643087 
L 309.91939 253.772631 
L 310.056093 253.815557 
L 310.164976 253.869863 
L 310.269539 253.940954 
L 310.369856 254.047764 
L 310.469532 254.182689 
L 310.755896 254.717131 
L 311.157659 255.011937 
L 311.223023 255.078313 
L 311.225862 255.134939 
L 311.192119 255.260632 
L 311.220975 255.440335 
L 311.278119 255.63117 
L 311.253558 255.725341 
L 311.26279 255.790532 
L 311.309764 255.924124 
L 311.318182 255.987761 
L 311.313615 256.05858 
L 311.274787 256.113429 
L 311.203942 256.156824 
L 311.062649 256.154726 
L 311.0039 256.156183 
L 310.851177 256.187655 
L 310.764609 256.184545 
L 310.694407 256.188815 
L 310.641854 256.218535 
L 310.609863 256.264226 
L 310.591473 256.309596 
L 310.57644 256.351115 
L 310.52559 256.400978 
L 310.363093 256.460739 
L 310.333397 256.504134 
L 310.29326 256.572584 
L 310.282029 256.601786 
L 310.241374 256.639874 
L 309.924772 256.864773 
L 309.495831 257.243753 
L 309.409238 257.341651 
L 309.318078 257.405411 
L 309.122331 257.499706 
L 309.077652 257.536584 
L 309.061187 257.582695 
L 309.083897 257.777158 
L 309.032233 257.901321 
L 308.966054 257.949159 
L 308.694599 258.040393 
L 308.608722 258.12943 
L 308.363112 258.272451 
L 308.01442 258.361833 
L 307.841629 258.313946 
L 307.54475 258.353959 
L 307.40869 258.447859 
L 306.929812 258.989657 
L 306.718242 259.141244 
L 306.624466 259.187552 
L 306.339707 259.254792 
L 306.044975 259.24435 
L 305.922071 259.277353 
L 305.839576 259.343804 
L 305.740122 259.512941 
L 305.589078 259.636413 
L 305.520554 259.662529 
L 305.275265 259.700271 
L 304.995566 259.846008 
L 304.729296 259.807303 
L 304.616019 259.810068 
L 304.47433 259.847316 
L 304.369989 259.906436 
L 304.256663 260.00937 
L 304.116727 260.167942 
L 304.070864 260.272974 
L 303.938703 260.380944 
L 303.918931 260.406468 
L 303.888125 260.595353 
L 303.832486 260.787644 
L 303.791584 261.134312 
L 303.789955 261.235099 
L 303.809801 261.324086 
L 303.886274 261.511441 
L 303.899973 261.630691 
L 303.869809 261.870155 
L 303.818095 262.005277 
L 303.761963 262.086242 
L 303.680973 262.164072 
L 303.523363 262.252985 
L 303.40979 262.292628 
L 303.308609 262.295911 
L 303.252724 262.314523 
L 303.211747 262.355499 
L 303.204293 262.400203 
L 303.211747 262.452361 
L 303.27136 262.582744 
L 303.275088 262.646084 
L 303.252724 262.694515 
L 303.222929 262.716879 
L 303.128882 262.724679 
L 303.085808 262.739194 
L 303.006669 262.858592 
L 302.888949 262.947851 
L 302.752 263.025928 
L 302.730327 263.052587 
L 302.711468 263.112718 
L 302.669826 263.167666 
L 302.41649 263.382025 
L 302.297116 263.506583 
L 302.058047 263.61828 
L 302.016997 263.623809 
L 301.902733 263.597495 
L 301.751122 263.658787 
L 301.586279 263.851473 
L 301.418474 264.176468 
L 301.430594 264.328327 
L 301.462882 264.388236 
L 301.593561 264.447429 
L 301.668207 264.482037 
L 301.839195 264.599386 
L 302.010086 264.758008 
L 302.082979 264.881282 
L 302.098727 264.937834 
L 302.097049 264.987055 
L 302.079276 265.01601 
L 302.024082 265.054048 
L 301.955681 265.082189 
L 301.891526 265.125707 
L 301.854648 265.15797 
L 301.831617 265.199464 
L 301.827001 265.236343 
L 301.836209 265.282429 
L 301.854648 265.323898 
L 301.88691 265.379216 
L 301.986487 265.454306 
L 302.187098 265.602462 
L 302.210424 265.648474 
L 302.219755 265.821758 
L 302.19828 265.87715 
L 302.155057 265.913634 
L 301.932034 266.052804 
L 301.879258 266.065591 
L 301.688719 266.056779 
L 301.633402 266.084425 
L 301.591932 266.144359 
L 301.568877 266.222707 
L 301.563643 266.313842 
L 301.663813 266.547085 
L 301.716391 266.628321 
L 301.789061 266.814565 
L 301.80128 266.873734 
L 301.782446 266.956427 
L 301.733546 267.031763 
L 301.623775 267.100584 
L 301.60183 267.130896 
L 301.798219 267.513258 
L 301.881159 267.787946 
L 302.11924 268.291878 
L 302.174188 268.476147 
L 302.187098 268.576958 
L 302.183568 268.709834 
L 302.146121 268.824716 
L 302.091668 268.942139 
L 301.989425 269.124137 
L 302.040842 269.175185 
L 302.126399 269.215371 
L 302.191146 269.276169 
L 302.228543 269.361848 
L 302.274777 269.420597 
L 302.379019 269.49586 
L 302.420094 269.612494 
L 302.437472 269.77314 
L 302.399902 270.006852 
L 302.380895 270.045187 
L 302.170979 270.140938 
L 301.987919 270.183889 
L 301.822435 270.253227 
L 301.702814 270.317258 
L 301.608446 270.396125 
L 301.545105 270.481015 
L 301.516101 270.583134 
L 301.529036 270.68202 
L 301.560953 270.757826 
L 301.59556 270.806874 
L 301.629057 270.849973 
L 301.653001 270.883469 
L 301.672156 270.916991 
L 301.676945 270.964879 
L 301.672156 271.003164 
L 301.65779 271.027108 
L 301.629057 271.065394 
L 301.59556 271.127648 
L 301.547673 271.199455 
L 301.552461 271.261684 
L 301.576405 271.347857 
L 301.605113 271.414875 
L 301.629057 271.510626 
L 301.629057 271.620743 
L 301.590772 271.69255 
L 301.55725 271.759593 
L 301.562039 271.874474 
L 301.604595 271.972101 
L 301.65779 272.027666 
L 301.686522 272.085131 
L 301.681734 272.156938 
L 301.63313 272.219143 
L 301.573789 272.27298 
L 301.291621 272.649121 
L 301.299446 272.915638 
L 301.406453 273.198546 
L 301.413883 273.207581 
L 301.631846 273.487058 
L 301.69215 273.580439 
L 301.687016 273.61628 
L 301.257211 273.856953 
L 300.840366 274.120139 
L 300.825333 274.147168 
L 300.792552 274.304901 
L 300.799537 274.454538 
L 300.789392 274.49238 
L 300.577847 274.678006 
L 300.47358 274.719377 
L 300.307923 274.745987 
L 300.1161 274.845021 
L 300.034271 274.919321 
L 299.892854 275.136297 
L 299.832871 275.292747 
L 299.783922 275.36485 
L 299.632187 275.52678 
L 299.517923 275.627147 
L 299.26007 275.977838 
L 299.248295 276.028959 
L 299.275744 276.200072 
L 299.156222 276.545752 
L 299.094141 276.679443 
L 298.957315 276.813035 
L 298.756903 276.960673 
L 298.602921 277.03749 
L 298.521759 277.055041 
L 298.384662 277.052227 
L 298.001584 276.922313 
L 297.654719 276.931076 
L 297.4646 277.000612 
L 297.443643 277.026975 
L 297.436213 277.075652 
L 297.413947 277.103916 
L 297.314592 277.16696 
L 297.088829 277.194952 
L 296.862053 277.179228 
L 296.769141 277.212799 
L 296.733275 277.249406 
L 296.727029 277.273893 
L 296.733028 277.316202 
L 296.792764 277.404153 
L 297.021589 277.663882 
L 297.149799 277.765335 
L 297.176903 277.804953 
L 297.184333 277.852051 
L 297.175965 277.950937 
L 297.380722 278.333052 
L 297.402518 278.445933 
L 297.405851 278.547954 
L 297.334192 278.928785 
L 297.227975 279.157042 
L 297.160809 279.26432 
L 297.090952 279.333782 
L 296.774226 279.543526 
L 296.619183 279.700642 
L 296.586649 279.742754 
L 296.586625 279.782372 
L 296.783211 280.136717 
L 296.822435 280.163796 
L 296.916112 280.208845 
L 297.080955 280.253647 
L 297.286428 280.288847 
L 297.494369 280.341425 
L 297.743336 280.434263 
L 297.838519 280.49469 
L 297.924297 280.57879 
L 298.038611 280.818229 
L 298.046337 280.866882 
L 297.98702 280.938516 
L 297.648498 281.126883 
L 297.61552 281.164847 
L 297.618482 281.193925 
L 297.783621 281.448965 
L 297.898008 281.562957 
L 297.987317 281.681344 
L 298.008372 281.740167 
L 298.006176 281.835844 
L 297.947994 282.043439 
L 297.881914 282.225783 
L 297.896009 282.321164 
L 297.969766 282.602689 
L 297.96557 282.66909 
L 297.953943 282.767063 
L 297.874879 282.934473 
L 297.844912 283.058413 
L 297.882408 283.225502 
L 297.866857 283.310145 
L 297.79542 283.416411 
L 297.740226 283.591498 
L 297.676417 283.737753 
L 297.604313 283.844217 
L 297.43562 284.00896 
L 297.266458 284.439456 
L 297.20492 284.647645 
L 297.162438 284.842726 
L 297.164338 284.998978 
L 297.197193 285.071599 
L 297.240589 285.098974 
L 297.328589 285.115834 
L 297.489951 285.119339 
L 297.541294 285.1302 
L 297.628381 285.173398 
L 297.638822 285.202205 
L 297.621296 285.29329 
L 297.625912 285.36875 
L 297.678465 285.495949 
L 297.991834 285.836545 
L 297.971889 286.074478 
L 298.007558 286.213574 
L 298.078057 286.310164 
L 298.219819 286.410778 
L 298.287528 286.441313 
L 298.348869 286.441461 
L 298.398361 286.412827 
L 298.467206 286.331813 
L 298.616226 286.09346 
L 298.690798 286.040635 
L 298.798372 286.090177 
L 298.849444 286.129795 
L 298.981827 286.284468 
L 299.127391 286.481277 
L 299.18925 286.521167 
L 299.362016 286.576312 
L 299.800757 286.620546 
L 300.078111 286.600354 
L 300.147129 286.582656 
L 300.201854 286.550911 
L 300.284818 286.444423 
L 300.361759 286.374566 
L 300.438923 286.345759 
L 300.525516 286.343735 
L 300.981289 286.409149 
L 301.34489 286.422775 
L 301.712219 286.483523 
L 301.797331 286.50764 
L 301.887333 286.567182 
L 301.92643 286.593048 
L 302.014233 286.668804 
L 302.142912 286.827895 
L 302.223359 286.972472 
L 302.299239 287.151384 
L 302.360506 287.458236 
L 302.400075 287.739589 
L 302.437101 287.883104 
L 302.468549 287.944346 
L 302.537888 287.991148 
L 302.575013 287.989642 
L 302.755456 287.937361 
L 302.777623 287.897841 
L 302.882803 287.86074 
L 303.010372 287.888091 
L 303.058482 287.931659 
L 303.092423 288.065794 
L 303.102099 288.218491 
L 303.090794 288.325918 
L 303.056655 288.416016 
L 303.014198 288.498462 
L 302.934986 288.601717 
L 302.826029 288.715142 
L 302.76965 288.802228 
L 302.765206 288.846043 
L 302.812477 289.017871 
L 302.870856 289.132975 
L 302.943107 289.207867 
L 303.171808 289.392136 
L 303.191506 289.427855 
L 303.209304 289.520125 
L 303.204416 289.669713 
L 303.140533 290.224223 
L 303.140533 290.229876 
L 303.144705 290.338043 
L 303.06016 291.070035 
L 302.88932 291.229521 
L 302.439471 291.609809 
L 302.385955 291.633555 
L 302.372552 291.638665 
L 302.042027 291.779415 
L 301.91436 291.902294 
L 301.806513 292.04455 
L 301.791036 292.096363 
L 301.750406 292.143313 
L 301.582107 292.275819 
L 301.535059 292.345478 
L 301.512497 292.402252 
L 301.510597 292.616562 
L 301.493663 292.754301 
L 301.508498 292.819937 
L 301.592129 292.992432 
L 301.631303 293.243768 
L 301.32924 293.247348 
L 299.461149 293.811633 
L 299.437427 293.926712 
L 299.44108 293.950927 
L 299.439001 293.951077 
L 299.37226 293.955889 
L 299.018952 293.891685 
L 298.387673 293.818792 
L 298.373356 293.818027 
L 298.159762 293.808252 
L 297.922841 293.75908 
L 297.884802 293.749305 
L 297.745434 293.726521 
L 297.63433 293.723115 
L 297.387214 293.546103 
L 297.339005 293.527071 
L 297.310001 293.528775 
L 297.216225 293.626698 
L 296.998879 293.902941 
L 296.967628 293.96791 
L 296.921296 294.118584 
L 296.872717 294.189947 
L 289.932226 294.661098 
L 278.469724 295.465217 
L 264.116825 296.545086 
L 262.646587 296.66139 
L 262.418365 296.679443 
L 262.161129 296.709978 
L 260.058387 296.86665 
L 251.922159 297.522737 
L 249.789253 297.707524 
L 244.208625 298.163522 
L 244.109272 298.171641 
L 242.359122 298.337051 
L 241.917247 298.35433 
L 239.932571 298.541956 
L 239.034033 298.606136 
L 237.649019 298.733279 
L 237.501057 298.746861 
L 237.391345 298.211671 
L 237.291215 297.723224 
L 237.295826 297.47622 
L 237.301089 297.194261 
L 237.209732 296.65861 
L 237.140616 296.453729 
L 236.637029 295.624382 
L 236.414845 295.345448 
L 236.130974 295.10601 
L 235.819926 294.955459 
L 235.726125 294.928307 
L 235.323744 294.955459 
L 235.057153 295.071476 
L 234.751782 295.360234 
L 234.509134 295.409628 
L 234.284506 294.651841 
L 234.225239 294.010071 
L 234.279544 293.531218 
L 234.348661 293.346085 
L 234.289418 292.50684 
L 234.138843 292.106953 
L 233.647599 291.635505 
L 233.618002 291.208465 
L 233.642687 291.122069 
L 233.822883 290.91472 
L 234.042574 290.976431 
L 234.148717 290.885099 
L 234.259797 290.717245 
L 234.350206 290.417909 
L 234.370877 290.349472 
L 234.30176 289.712614 
L 234.153654 288.944954 
L 233.725033 287.232622 
L 233.65256 286.943097 
L 233.341537 286.39266 
L 232.936688 285.407801 
L 232.800751 284.939686 
L 232.477854 284.240179 
L 231.633326 283.090009 
L 230.919749 282.242717 
L 230.661896 281.975236 
L 229.584249 280.619593 
L 228.986614 279.930898 
L 228.10153 279.001629 
L 227.063724 278.225847 
L 226.470582 277.892682 
L 225.874256 277.704068 
L 225.867277 277.692642 
L 225.577426 277.218082 
L 224.990505 276.620447 
L 224.647391 276.368666 
L 223.68465 275.845381 
L 223.568633 275.889122 
L 223.501985 275.976209 
L 223.516796 276.040364 
L 222.925234 275.879224 
L 222.650324 275.314667 
L 222.507805 275.180323 
L 221.788813 274.502574 
L 221.208705 273.880552 
L 220.803881 273.762091 
L 220.485452 273.616453 
L 219.841164 273.0907 
L 218.940158 272.626658 
L 218.372417 272.446462 
L 217.698508 272.300848 
L 217.365268 271.942924 
L 215.884154 271.096298 
L 215.165813 270.550798 
L 215.103325 270.489377 
L 214.296897 269.696717 
L 213.704447 269.232675 
L 213.403272 269.126532 
L 213.043831 268.909282 
L 212.62322 268.65506 
L 212.279898 268.554341 
L 212.025808 268.4798 
L 211.566678 268.398342 
L 211.435085 268.411795 
L 211.265504 268.753773 
L 211.364266 269.077138 
L 211.373103 269.396357 
L 210.660266 269.44427 
L 210.156053 269.634206 
L 209.513256 269.876346 
L 209.056076 269.793653 
L 208.564955 269.76334 
L 208.068774 269.652285 
L 207.930442 269.580356 
L 207.671579 269.445755 
L 207.143108 269.170964 
L 206.999939 269.059884 
L 206.395146 268.946336 
L 206.108807 269.0821 
L 205.748291 268.932315 
L 205.323818 268.124394 
L 205.44724 267.944198 
L 205.901433 267.494942 
L 206.165556 267.393736 
L 206.234673 267.119739 
L 206.219862 266.490286 
L 205.711338 265.428906 
L 205.48153 264.99254 
L 204.978162 264.03673 
L 204.528881 263.325844 
L 203.982921 262.664266 
L 203.946304 262.619894 
L 203.48715 262.180536 
L 203.074895 261.884323 
L 202.492319 261.61282 
L 201.89925 261.541706 
L 201.847562 261.535508 
L 200.999973 261.59949 
L 200.849892 261.664262 
L 199.400769 261.603464 
L 199.226201 261.63822 
L 199.129043 261.742487 
L 198.466291 261.838065 
L 197.820152 261.755125 
L 197.510091 261.770923 
L 196.56021 262.031591 
L 196.469841 262.08091 
L 196.025028 262.532783 
L 195.618599 262.218797 
L 195.154507 261.883879 
L 194.802187 261.71879 
L 193.777636 261.595565 
L 192.990474 261.431661 
L 192.742816 261.492483 
L 192.574806 261.444183 
L 192.332042 261.374393 
L 191.763585 261.086696 
L 191.288929 260.935603 
L 191.099747 260.928494 
L 190.288864 260.511821 
L 189.639348 260.364592 
L 189.487485 260.330168 
L 189.028923 260.136642 
L 188.789978 260.111366 
L 188.504428 260.229061 
L 188.001237 260.092408 
L 186.557915 259.13211 
L 186.199991 258.996346 
L 186.000022 258.986472 
L 185.871663 258.956851 
L 185.653777 258.655662 
L 185.59268 258.571207 
L 185.360671 258.223749 
L 184.869427 257.298083 
L 184.650131 256.772182 
L 184.546036 256.320605 
L 184.458399 256.176271 
L 184.336219 255.975048 
L 184.032576 255.777573 
L 183.756456 255.830422 
L 183.487322 255.758146 
L 182.88401 255.39067 
L 182.594907 255.049852 
L 182.072362 254.677043 
L 181.938474 254.636758 
L 181.630684 254.728584 
L 181.576378 254.708837 
L 180.655132 253.849375 
L 180.573772 253.79307 
L 180.454744 253.779691 
L 179.83398 253.329818 
L 179.546604 253.291211 
L 179.408682 253.252471 
L 178.609164 253.027903 
L 177.959915 252.800806 
L 177.404466 252.358955 
L 175.987507 252.171354 
L 175.444401 252.302156 
L 175.202493 252.260193 
L 174.629766 252.292282 
L 174.227385 252.381122 
L 174.313805 252.484796 
L 174.138966 252.611748 
L 173.711481 252.803225 
L 173.210338 252.790883 
L 172.812894 252.618067 
L 171.81562 252.294726 
L 171.595928 252.255231 
L 170.583868 252.299688 
L 170.139548 252.492226 
L 169.640923 252.472503 
L 168.375699 251.852036 
L 167.605397 251.818539 
L 167.222345 251.587666 
L 166.330596 251.197504 
L 165.571525 251.123772 
L 165.278916 251.167784 
L 164.343155 251.203404 
L 164.130351 251.163884 
L 163.607066 250.963496 
L 163.045397 250.877644 
L 162.000259 250.952511 
L 160.963686 250.947204 
L 160.655032 251.008644 
L 160.167071 251.024615 
L 159.544259 251.002325 
L 159.246812 250.946316 
L 159.145161 250.968334 
L 159.079673 251.033847 
L 158.103479 251.238431 
L 155.620079 251.418059 
L 155.386812 251.527115 
L 154.894333 251.508552 
L 154.765135 250.835038 
L 154.672272 250.688709 
L 154.421701 250.466154 
L 154.081815 249.931427 
L 153.905846 249.65458 
L 153.576185 249.448762 
L 152.181097 248.815162 
L 151.513087 248.822642 
L 151.422989 248.898966 
L 151.162075 248.887784 
L 150.786131 248.58656 
L 150.590285 248.22086 
L 150.725926 247.643961 
L 151.09908 246.90138 
L 151.670697 245.47941 
L 151.708217 245.169744 
L 151.678053 245.044322 
L 151.352712 244.526246 
L 151.069632 244.344495 
L 150.795758 243.904545 
L 151.152324 242.981224 
L 151.317068 242.413285 
L 151.474999 241.760555 
L 151.465915 241.3797 
L 151.316352 241.168426 
L 150.749648 240.830891 
L 150.677347 240.491925 
L 150.551062 240.31943 
L 150.166947 240.318196 
L 149.970805 240.245821 
L 150.512133 238.511045 
L 150.732196 237.805817 
L 150.89067 237.062273 
L 150.980496 236.360495 
L 150.989086 235.944637 
L 150.95517 235.362603 
L 150.835944 234.822903 
L 150.625534 234.432618 
L 150.457113 234.231391 
L 150.177167 234.093429 
L 150.040934 234.126186 
L 149.866168 234.100736 
L 149.572423 233.911974 
L 149.277889 233.653183 
L 149.147136 233.603469 
L 148.900736 233.53455 
L 148.405912 233.47348 
L 148.044557 233.490192 
L 147.897611 233.566565 
L 147.847279 233.702157 
L 147.866434 233.918121 
L 147.757675 233.936609 
L 147.300865 233.709834 
L 147.126149 233.493376 
L 146.652653 233.313007 
L 145.630323 232.832747 
L 145.398956 232.781947 
L 144.979346 232.307981 
L 144.393239 231.760259 
L 144.391116 231.609363 
L 144.576792 231.021158 
L 144.818305 230.617198 
L 145.123651 229.803353 
L 145.235126 229.318995 
L 145.248727 228.973735 
L 145.150828 228.176873 
L 145.07406 227.924326 
L 144.690267 227.259822 
L 144.391462 226.962449 
L 144.118082 226.793953 
L 143.165042 226.85206 
L 143.061466 226.819847 
L 142.935057 226.678578 
L 142.600016 226.519265 
L 142.434976 226.548121 
L 141.762646 226.506602 
L 141.213122 225.916941 
L 140.535313 225.350878 
L 140.366644 225.298028 
L 139.337749 224.331807 
L 138.734659 223.23967 
L 138.54881 223.057079 
L 138.301843 222.919068 
L 137.730374 222.194507 
L 137.18275 222.003474 
L 137.024918 222.062816 
L 135.648935 221.670161 
L 135.123453 221.421589 
L 134.811171 221.238973 
L 134.692167 220.860833 
L 134.5273 220.678267 
L 134.32711 220.555586 
L 134.079056 220.27132 
L 134.05057 219.303444 
L 133.825152 218.88808 
L 133.639254 218.548447 
L 133.295799 218.250342 
L 133.039719 218.028075 
L 132.266702 217.551764 
L 131.803375 217.029936 
L 131.647296 216.765986 
L 131.306429 216.647821 
L 130.994689 216.478807 
L 130.434847 216.017999 
L 130.460445 215.739361 
L 130.405522 215.553981 
L 130.183782 215.172014 
L 129.844001 213.926488 
L 129.426538 213.187166 
L 129.217264 213.031679 
L 128.716516 212.839881 
L 128.177408 212.705844 
L 127.785025 212.662869 
L 127.66185 212.573585 
L 127.272009 211.951365 
L 127.301926 211.867142 
L 127.211335 211.588529 
L 126.86595 211.415664 
L 126.574008 211.02807 
L 126.491636 210.733634 
L 126.303417 210.369366 
L 125.056583 209.101427 
L 124.142495 208.377482 
L 122.595399 207.581139 
L 122.17063 207.413186 
L 121.925761 207.445374 
L 121.759017 207.412593 
L 121.445747 207.224375 
L 121.214701 207.00498 
L 121.126701 206.7648 
L 120.815258 206.336452 
L 120.251713 206.059172 
L 119.913685 205.71986 
L 119.760074 205.349693 
L 119.804432 204.791282 
L 119.495161 204.350887 
L 119.563709 204.211865 
L 119.584839 203.768088 
L 119.550725 203.478688 
L 119.489952 203.365066 
L 119.27468 203.213553 
L 119.198528 202.955231 
L 119.265744 202.681703 
L 119.00014 201.989848 
L 118.711209 201.531459 
L 118.641286 201.32282 
L 118.602721 201.207747 
L 118.661568 200.928962 
L 118.67275 200.693793 
L 118.551426 200.561016 
L 118.527038 200.312715 
L 118.919446 200.280971 
L 118.989352 200.230961 
L 118.827151 199.372881 
L 118.57969 199.212432 
L 118.403789 199.183626 
L 118.359332 199.272317 
L 118.214311 199.260641 
L 117.837652 199.041246 
L 117.689595 198.865542 
L 117.891143 198.809607 
L 118.601091 197.938124 
L 118.677983 197.546901 
L 118.730339 197.476847 
L 118.897304 197.471589 
L 119.040474 197.530832 
L 119.872388 198.155347 
L 119.899541 198.34048 
L 119.956315 198.347886 
L 120.336455 198.271364 
L 120.602059 198.109015 
L 121.054796 197.641911 
L 121.308255 197.276656 
L 121.479639 196.971779 
L 121.741047 196.338599 
L 121.923712 195.566002 
L 121.958739 194.675339 
L 122.387384 193.348429 
L 122.306764 193.072161 
L 121.866913 192.246023 
L 121.837567 192.196796 
L 121.415164 191.488236 
L 120.561034 190.199735 
L 120.119158 189.740629 
L 119.761234 189.451822 
L 119.469933 189.276587 
L 118.887356 189.04949 
L 118.655298 189.051959 
L 118.354149 189.214876 
L 117.833283 189.641892 
L 117.756761 189.64436 
L 117.558669 189.528936 
L 116.855731 189.385198 
L 116.584202 189.444441 
L 116.490377 189.715969 
L 115.923919 189.780815 
L 115.521588 189.787036 
L 115.459269 189.774936 
L 114.545196 189.59746 
L 113.691066 189.128481 
L 113.333142 188.982842 
L 112.548153 188.424975 
L 112.071719 188.165813 
L 110.936212 187.042697 
L 110.731331 186.719331 
L 110.129007 185.998571 
L 109.92927 185.861047 
L 109.60429 185.63729 
L 109.412542 185.593401 
L 109.188802 185.660074 
L 109.003867 185.663086 
L 108.840752 185.612631 
L 108.79669 185.526926 
L 108.840407 185.281539 
L 108.821943 185.154636 
L 108.668998 184.953137 
L 108.279922 184.669884 
L 108.230578 184.471939 
L 108.099874 184.24425 
L 107.799095 184.039098 
L 107.519445 183.993185 
L 107.359836 183.888005 
L 107.162163 183.677151 
L 107.110128 183.092772 
L 107.065672 182.949775 
L 106.89683 182.762643 
L 106.815594 182.549591 
L 106.83191 182.375542 
L 106.998925 181.947934 
L 107.169773 180.774681 
L 107.254729 180.191268 
L 107.266405 179.642879 
L 107.058859 179.258296 
L 106.712586 178.820468 
L 106.208999 177.74919 
L 106.152225 177.117269 
L 106.00165 176.64829 
L 105.611612 176.213844 
L 105.500532 176.154601 
L 105.167292 176.300215 
L 105.146031 176.306404 
L 104.972261 176.356989 
L 104.836496 176.282936 
L 104.406988 175.641166 
L 104.336785 175.247153 
L 104.409456 175.058638 
L 104.453888 175.029017 
L 104.481066 174.878442 
L 104.372454 174.288509 
L 104.394695 173.93061 
L 104.784733 173.70845 
L 104.898282 173.39992 
L 104.964954 172.612512 
L 104.931735 172.090679 
L 104.898331 171.565942 
L 104.75904 171.030291 
L 104.658917 170.645263 
L 104.625309 170.355629 
L 104.523153 169.475247 
L 104.461442 169.235833 
L 104.687872 169.051119 
L 104.994625 169.060573 
L 105.169884 168.993925 
L 105.359954 168.495325 
L 105.551184 168.548569 
L 105.712694 168.647751 
L 106.647024 168.491598 
L 106.669261 168.491042 
L 107.103439 168.480193 
L 107.333325 168.623635 
L 107.64968 168.99158 
L 107.883417 170.367613 
L 108.025599 170.432977 
L 108.084767 170.368502 
L 108.139542 170.37645 
L 108.354148 170.502735 
L 108.23159 170.860536 
L 108.017774 170.797294 
L 107.500287 171.025403 
L 107.455488 171.045151 
L 107.592832 171.74794 
L 107.921998 172.163971 
L 107.889686 172.406298 
L 107.833159 172.454778 
L 107.598879 172.503234 
L 107.631191 172.769826 
L 108.14011 173.052561 
L 108.390533 173.311056 
L 108.309741 173.424135 
L 108.018934 173.343368 
L 107.946238 173.359511 
L 107.816991 173.561455 
L 108.269357 173.884598 
L 109.319506 173.924982 
L 109.376058 174.013846 
L 109.367962 174.102685 
L 109.610313 174.304653 
L 110.676606 174.369277 
L 110.943197 174.530836 
L 111.128972 174.732779 
L 111.87217 175.217458 
L 112.308369 175.24977 
L 112.348752 175.613297 
L 113.003087 176.065663 
L 113.120476 176.09275 
L 113.318134 176.138359 
L 113.467573 176.101999 
L 113.701828 175.972751 
L 114.062245 176.309496 
L 114.284183 176.87862 
L 114.477795 177.000737 
L 114.941282 177.293071 
L 115.405892 177.350512 
L 115.657056 177.381565 
L 115.683659 177.371005 
L 116.041689 177.228896 
L 116.056005 177.223214 
L 116.011986 177.166727 
L 115.704006 176.771514 
L 115.469306 176.385104 
L 114.879275 176.180545 
L 114.41269 175.980823 
L 114.410207 175.900079 
L 114.396546 175.455761 
L 113.984564 174.672204 
L 113.855316 174.615652 
L 113.766452 174.502548 
L 113.596821 174.147117 
L 113.532197 173.985558 
L 113.572581 173.678607 
L 113.548341 173.517047 
L 113.386781 172.693082 
L 113.142467 172.038895 
L 113.136383 172.022604 
L 112.942487 171.820661 
L 112.740543 171.723725 
L 112.288177 171.408678 
L 112.126247 171.28612 
L 111.884266 171.263262 
L 111.690395 171.093631 
L 111.068397 170.68972 
L 110.842213 170.350457 
L 110.793733 170.253522 
L 110.81395 170.120226 
L 110.935101 170.055602 
L 111.115001 169.989571 
L 111.171775 169.90441 
L 110.897408 169.719919 
L 110.641974 169.634782 
L 110.362867 169.568554 
L 110.097979 169.516519 
L 109.904033 169.492871 
L 109.648574 169.388802 
L 109.28907 169.279993 
L 109.036048 169.177983 
L 108.995795 169.161755 
L 108.99153 169.107342 
L 108.972147 168.860062 
L 108.875212 168.771198 
L 108.923692 168.520775 
L 109.17409 168.189584 
L 109.319506 168.10072 
L 109.602242 168.084552 
L 109.658793 168.019928 
L 109.669798 167.945651 
L 109.723417 167.58373 
L 109.497209 166.937492 
L 109.509329 166.473005 
L 109.428562 166.367973 
L 109.422689 166.363018 
L 109.170067 166.149886 
L 108.903475 166.077166 
L 108.346101 166.077166 
L 108.216854 166.19027 
L 108.087606 166.198342 
L 107.812943 166.16603 
L 107.63524 166.093334 
L 107.554448 166.044854 
L 107.522136 165.737904 
L 107.409056 165.6248 
L 107.255569 165.592488 
L 106.948593 165.374376 
L 106.858594 165.220074 
L 106.544707 164.73621 
L 106.552779 164.679683 
L 106.90821 164.73621 
L 106.997074 164.800834 
L 107.080457 164.873727 
L 107.291534 164.911618 
L 107.480641 164.566431 
L 108.087606 164.364636 
L 108.227739 164.072792 
L 108.200685 163.964576 
L 108.10375 163.863789 
L 108.055294 163.629534 
L 108.079534 163.51643 
L 108.184542 163.476046 
L 108.287278 163.580338 
L 108.766156 163.734542 
L 108.968099 163.694158 
L 108.988132 163.680196 
L 109.234691 163.508358 
L 109.37201 163.492215 
L 109.735513 163.556838 
L 110.163664 163.266031 
L 110.414304 162.999478 
L 110.672582 162.724801 
L 110.672582 162.555145 
L 110.598254 162.387316 
L 110.578596 162.342929 
L 110.422159 161.989699 
L 110.179807 161.77966 
L 109.711297 161.230358 
L 109.32896 161.060134 
L 108.058528 160.477384 
L 107.445663 160.284772 
L 107.351419 160.326737 
L 107.045529 160.462944 
L 106.310452 160.93955 
L 106.04386 160.955694 
L 105.930781 160.89107 
L 105.203751 160.988006 
L 105.066432 161.060726 
L 105.047845 161.116485 
L 105.03412 161.157662 
L 105.066432 161.432301 
L 105.147199 161.601957 
L 105.219895 162.054323 
L 105.00988 162.433994 
L 104.832152 163.031752 
L 104.87256 163.346799 
L 104.953328 163.451806 
L 105.276447 163.637606 
L 105.73691 163.742613 
L 105.979237 163.920341 
L 106.092341 164.114212 
L 106.092341 164.203076 
L 105.890373 164.348468 
L 105.744982 164.283844 
L 105.510726 164.275772 
L 105.098744 164.647371 
L 105.058335 164.695827 
L 105.058335 164.833146 
L 105.122959 165.091641 
L 105.300687 165.172433 
L 105.332999 165.269369 
L 105.171439 165.366305 
L 104.832152 165.325921 
L 104.743313 165.390545 
L 104.743313 165.584416 
L 104.977568 165.754047 
L 105.155271 165.754047 
L 105.357239 165.834839 
L 105.510726 166.036782 
L 105.50263 166.230654 
L 105.841917 166.440693 
L 106.092341 166.456837 
L 106.318524 166.691092 
L 106.342764 166.763812 
L 106.051932 167.006139 
L 105.753053 167.062691 
L 105.227942 166.538592 
L 104.793792 166.450617 
L 104.911117 167.015569 
L 105.236063 167.183867 
L 105.399696 167.960044 
L 105.333591 168.134933 
L 105.226658 168.102843 
L 104.68607 168.216391 
L 104.098531 168.292913 
L 103.898588 168.013979 
L 103.609755 167.868366 
L 103.301176 167.483289 
L 102.738322 167.300624 
L 102.318662 166.908167 
L 101.681236 166.637774 
L 101.363696 166.359605 
L 100.955367 166.182618 
L 100.41342 166.131151 
L 100.322162 166.134952 
L 100.040809 166.265261 
L 99.816897 166.446716 
L 99.208253 166.179977 
L 99.069996 165.794925 
L 98.971258 165.656692 
L 98.534147 165.417204 
L 98.249486 165.35606 
L 97.827235 165.027017 
L 97.617541 164.580526 
L 97.477679 164.401934 
L 96.885796 163.90632 
L 96.017152 163.413076 
L 95.386687 163.201877 
L 93.964939 163.038096 
L 93.542836 163.11679 
L 93.158574 163.325941 
L 92.926589 163.600629 
L 92.911532 163.720225 
L 92.9668 163.805213 
L 93.050308 163.932362 
L 93.108908 164.012611 
L 91.882686 163.952159 
L 91.96918 163.836982 
L 92.074311 163.783984 
L 92.192055 163.740861 
L 92.663849 162.794954 
L 93.442173 161.037325 
L 93.65947 160.405405 
L 93.733819 160.022846 
L 93.720193 159.77647 
L 93.621382 159.489415 
L 93.330624 159.206952 
L 93.306877 158.925525 
L 93.263877 158.82891 
L 92.675376 158.069692 
L 92.625859 157.960661 
L 92.643731 157.909218 
L 92.79396 157.96224 
L 93.252596 157.830401 
L 93.286315 157.637566 
L 93.042458 157.212723 
L 92.814448 157.082834 
L 92.609962 156.837668 
L 92.548177 156.680626 
L 92.404879 156.526339 
L 92.374992 156.49416 
L 91.876095 156.159414 
L 91.520417 156.085287 
L 91.21633 156.156452 
L 91.156717 156.279159 
L 91.192633 156.364962 
L 91.156026 156.435584 
L 91.039145 156.461009 
L 90.90506 156.36664 
L 90.63321 155.863177 
L 90.787414 155.551265 
L 90.791659 154.94267 
L 90.364446 154.185846 
L 89.916819 153.568341 
L 89.455887 153.030888 
L 89.296772 152.707423 
L 88.889479 152.485165 
L 88.368564 152.101939 
L 87.483652 151.623876 
L 86.310649 151.210881 
L 85.388464 150.49064 
L 85.141744 150.410934 
L 84.28401 149.865655 
L 84.001645 149.261726 
L 83.846775 149.093946 
L 83.297201 148.836488 
L 83.11387 148.473183 
L 82.648248 147.853826 
L 82.528677 147.79446 
L 82.463189 147.614758 
L 81.795303 146.864302 
L 81.57181 146.552958 
L 81.090044 146.126979 
L 80.380861 145.75148 
L 79.769601 145.510733 
L 79.513673 145.218593 
L 79.306744 144.858027 
L 79.101814 144.651765 
L 78.357579 144.122901 
L 78.163337 144.008217 
L 78.002296 144.007674 
L 77.660639 143.729777 
L 77.627365 143.609441 
L 77.534848 143.516257 
L 76.712363 142.995416 
L 76.612663 142.99196 
L 76.496374 142.955748 
L 76.377272 142.730873 
L 76.315956 142.457962 
L 76.188831 142.287862 
L 75.491423 141.767885 
L 74.93748 141.283182 
L 74.571484 141.17931 
L 74.515623 140.881566 
L 74.548083 140.712059 
L 74.237776 140.273836 
L 74.385734 140.252262 
L 74.480497 140.210965 
L 74.670715 140.032941 
L 74.922447 139.701257 
L 75.274175 139.032679 
L 75.426231 138.61571 
L 75.442153 138.372223 
L 75.346525 137.725344 
L 74.86708 136.464982 
L 74.666815 136.047692 
L 74.310595 135.694286 
L 74.261793 135.600534 
L 74.155453 135.071227 
L 73.691658 134.411906 
L 73.571173 134.361007 
L 73.346372 133.906172 
L 73.28787 133.285828 
L 73.028067 132.616559 
L 72.754119 132.443077 
L 72.634227 132.260018 
L 72.685842 132.142545 
L 72.65316 131.939713 
L 72.448131 131.419415 
L 72.512681 131.134483 
L 72.300469 130.778237 
L 72.184057 130.653408 
L 72.103932 130.234835 
L 72.079864 130.039927 
L 72.178133 129.761561 
L 72.188945 129.099475 
L 72.366599 128.118788 
L 72.836861 126.991279 
L 73.119967 126.566608 
L 73.259409 126.268939 
L 73.556757 125.495699 
L 73.538614 125.321699 
L 73.039816 124.218306 
L 73.135518 124.095748 
L 73.165584 123.8003 
L 73.065908 122.851283 
L 72.910421 122.254167 
L 72.526603 121.597735 
L 72.118421 121.414749 
L 71.999912 121.292734 
L 71.94921 121.10617 
L 71.862987 120.905263 
L 71.789008 120.568543 
L 71.812187 119.980486 
L 71.746847 119.501485 
L 71.452683 118.602874 
L 71.40208 118.552049 
L 70.71847 118.272572 
L 70.07159 117.837978 
L 69.887 117.53473 
L 69.86945 117.391536 
L 69.519079 116.685982 
L 68.904314 116.373082 
L 68.71417 115.996349 
L 68.285253 115.383607 
L 67.894524 115.122274 
L 67.201431 114.4252 
L 66.906061 114.128134 
L 66.399932 113.856951 
L 66.186141 113.845102 
L 66.091377 113.930955 
L 66.002489 113.897631 
L 65.817997 113.721976 
L 65.800076 112.825019 
L 65.642664 112.520611 
L 65.063494 111.895527 
L 64.337698 111.584874 
L 63.577048 111.390929 
L 63.154772 111.234553 
L 62.487774 110.485134 
L 62.087887 110.221529 
L 61.413755 109.908136 
L 60.473477 109.302405 
L 59.870807 108.862998 
L 59.703471 108.597567 
L 59.32385 108.434428 
L 59.085769 108.274621 
L 58.82167 108.014916 
L 58.81624 107.638775 
L 59.205784 106.690351 
L 59.075673 106.275875 
L 58.989993 106.187233 
L 58.836925 105.816226 
L 58.773708 105.203831 
L 58.570259 104.757833 
L 58.434915 104.612071 
L 58.128483 104.40919 
L 57.853819 104.037492 
L 57.681818 103.643258 
L 57.706256 103.51675 
" clip-path="url(#p1874a787b6)" style="fill: #850096"/>
   </g>
   <g id="PathCollection_1">
    <defs>
     <path id="m2b22301323" d="M 0 1.581139 
C 0.419323 1.581139 0.821528 1.41454 1.118034 1.118034 
C 1.41454 0.821528 1.581139 0.419323 1.581139 0 
C 1.581139 -0.419323 1.41454 -0.821528 1.118034 -1.118034 
C 0.821528 -1.41454 0.419323 -1.581139 0 -1.581139 
C -0.419323 -1.581139 -0.821528 -1.41454 -1.118034 -1.118034 
C -1.41454 -0.821528 -1.581139 -0.419323 -1.581139 0 
C -1.581139 0.419323 -1.41454 0.821528 -1.118034 1.118034 
C -0.821528 1.41454 -0.419323 1.581139 0 1.581139 
z
" style="stroke: #000000"/>
    </defs>
    <g clip-path="url(#p1874a787b6)">
     <use xlink:href="#m2b22301323" x="129.66062" y="149.591016" style="stroke: #000000"/>
    </g>
   </g>
   <g id="text_1">
    <!-- Sacramento -->
    <g transform="translate(132.66062 146.591016) scale(0.1 -0.1)">
     <defs>
      <path id="DejaVuSans-53" d="M 3425 4513 
L 3425 3897 
Q 3066 4069 2747 4153 
Q 2428 4238 2131 4238 
Q 1616 4238 1336 4038 
Q 1056 3838 1056 3469 
Q 1056 3159 1242 3001 
Q 1428 2844 1947 2747 
L 2328 2669 
Q 3034 2534 3370 2195 
Q 3706 1856 3706 1288 
Q 3706 609 3251 259 
Q 2797 -91 1919 -91 
Q 1588 -91 1214 -16 
Q 841 59 441 206 
L 441 856 
Q 825 641 1194 531 
Q 1563 422 1919 422 
Q 2459 422 2753 634 
Q 3047 847 3047 1241 
Q 3047 1584 2836 1778 
Q 2625 1972 2144 2069 
L 1759 2144 
Q 1053 2284 737 2584 
Q 422 2884 422 3419 
Q 422 4038 858 4394 
Q 1294 4750 2059 4750 
Q 2388 4750 2728 4690 
Q 3069 4631 3425 4513 
z
" transform="scale(0.015625)"/>
      <path id="DejaVuSans-61" d="M 2194 1759 
Q 1497 1759 1228 1600 
Q 959 1441 959 1056 
Q 959 750 1161 570 
Q 1363 391 1709 391 
Q 2188 391 2477 730 
Q 2766 1069 2766 1631 
L 2766 1759 
L 2194 1759 
z
M 3341 1997 
L 3341 0 
L 2766 0 
L 2766 531 
Q 2569 213 2275 61 
Q 1981 -91 1556 -91 
Q 1019 -91 701 211 
Q 384 513 384 1019 
Q 384 1609 779 1909 
Q 1175 2209 1959 2209 
L 2766 2209 
L 2766 2266 
Q 2766 2663 2505 2880 
Q 2244 3097 1772 3097 
Q 1472 3097 1187 3025 
Q 903 2953 641 2809 
L 641 3341 
Q 956 3463 1253 3523 
Q 1550 3584 1831 3584 
Q 2591 3584 2966 3190 
Q 3341 2797 3341 1997 
z
" transform="scale(0.015625)"/>
      <path id="DejaVuSans-63" d="M 3122 3366 
L 3122 2828 
Q 2878 2963 2633 3030 
Q 2388 3097 2138 3097 
Q 1578 3097 1268 2742 
Q 959 2388 959 1747 
Q 959 1106 1268 751 
Q 1578 397 2138 397 
Q 2388 397 2633 464 
Q 2878 531 3122 666 
L 3122 134 
Q 2881 22 2623 -34 
Q 2366 -91 2075 -91 
Q 1284 -91 818 406 
Q 353 903 353 1747 
Q 353 2603 823 3093 
Q 1294 3584 2113 3584 
Q 2378 3584 2631 3529 
Q 2884 3475 3122 3366 
z
" transform="scale(0.015625)"/>
      <path id="DejaVuSans-72" d="M 2631 2963 
Q 2534 3019 2420 3045 
Q 2306 3072 2169 3072 
Q 1681 3072 1420 2755 
Q 1159 2438 1159 1844 
L 1159 0 
L 581 0 
L 581 3500 
L 1159 3500 
L 1159 2956 
Q 1341 3275 1631 3429 
Q 1922 3584 2338 3584 
Q 2397 3584 2469 3576 
Q 2541 3569 2628 3553 
L 2631 2963 
z
" transform="scale(0.015625)"/>
      <path id="DejaVuSans-6d" d="M 3328 2828 
Q 3544 3216 3844 3400 
Q 4144 3584 4550 3584 
Q 5097 3584 5394 3201 
Q 5691 2819 5691 2113 
L 5691 0 
L 5113 0 
L 5113 2094 
Q 5113 2597 4934 2840 
Q 4756 3084 4391 3084 
Q 3944 3084 3684 2787 
Q 3425 2491 3425 1978 
L 3425 0 
L 2847 0 
L 2847 2094 
Q 2847 2600 2669 2842 
Q 2491 3084 2119 3084 
Q 1678 3084 1418 2786 
Q 1159 2488 1159 1978 
L 1159 0 
L 581 0 
L 581 3500 
L 1159 3500 
L 1159 2956 
Q 1356 3278 1631 3431 
Q 1906 3584 2284 3584 
Q 2666 3584 2933 3390 
Q 3200 3197 3328 2828 
z
" transform="scale(0.015625)"/>
      <path id="DejaVuSans-65" d="M 3597 1894 
L 3597 1613 
L 953 1613 
Q 991 1019 1311 708 
Q 1631 397 2203 397 
Q 2534 397 2845 478 
Q 3156 559 3463 722 
L 3463 178 
Q 3153 47 2828 -22 
Q 2503 -91 2169 -91 
Q 1331 -91 842 396 
Q 353 884 353 1716 
Q 353 2575 817 3079 
Q 1281 3584 2069 3584 
Q 2775 3584 3186 3129 
Q 3597 2675 3597 1894 
z
M 3022 2063 
Q 3016 2534 2758 2815 
Q 2500 3097 2075 3097 
Q 1594 3097 1305 2825 
Q 1016 2553 972 2059 
L 3022 2063 
z
" transform="scale(0.015625)"/>
      <path id="DejaVuSans-6e" d="M 3513 2113 
L 3513 0 
L 2938 0 
L 2938 2094 
Q 2938 2591 2744 2837 
Q 2550 3084 2163 3084 
Q 1697 3084 1428 2787 
Q 1159 2491 1159 1978 
L 1159 0 
L 581 0 
L 581 3500 
L 1159 3500 
L 1159 2956 
Q 1366 3272 1645 3428 
Q 1925 3584 2291 3584 
Q 2894 3584 3203 3211 
Q 3513 2838 3513 2113 
z
" transform="scale(0.015625)"/>
      <path id="DejaVuSans-74" d="M 1172 4494 
L 1172 3500 
L 2356 3500 
L 2356 3053 
L 1172 3053 
L 1172 1153 
Q 1172 725 1289 603 
Q 1406 481 1766 481 
L 2356 481 
L 2356 0 
L 1766 0 
Q 1100 0 847 248 
Q 594 497 594 1153 
L 594 3053 
L 172 3053 
L 172 3500 
L 594 3500 
L 594 4494 
L 1172 4494 
z
" transform="scale(0.015625)"/>
      <path id="DejaVuSans-6f" d="M 1959 3097 
Q 1497 3097 1228 2736 
Q 959 2375 959 1747 
Q 959 1119 1226 758 
Q 1494 397 1959 397 
Q 2419 397 2687 759 
Q 2956 1122 2956 1747 
Q 2956 2369 2687 2733 
Q 2419 3097 1959 3097 
z
M 1959 3584 
Q 2709 3584 3137 3096 
Q 3566 2609 3566 1747 
Q 3566 888 3137 398 
Q 2709 -91 1959 -91 
Q 1206 -91 779 398 
Q 353 888 353 1747 
Q 353 2609 779 3096 
Q 1206 3584 1959 3584 
z
" transform="scale(0.015625)"/>
     </defs>
     <use xlink:href="#DejaVuSans-53"/>
     <use xlink:href="#DejaVuSans-61" x="63.476562"/>
     <use xlink:href="#DejaVuSans-63" x="124.755859"/>
     <use xlink:href="#DejaVuSans-72" x="179.736328"/>
     <use xlink:href="#DejaVuSans-61" x="220.849609"/>
     <use xlink:href="#DejaVuSans-6d" x="282.128906"/>
     <use xlink:href="#DejaVuSans-65" x="379.541016"/>
     <use xlink:href="#DejaVuSans-6e" x="441.064453"/>
     <use xlink:href="#DejaVuSans-74" x="504.443359"/>
     <use xlink:href="#DejaVuSans-6f" x="543.652344"/>
    </g>
   </g>
   <g id="text_2">
    <!-- California -->
    <g transform="translate(156.008438 47.158452) scale(0.12 -0.12)">
     <defs>
      <path id="DejaVuSans-43" d="M 4122 4306 
L 4122 3641 
Q 3803 3938 3442 4084 
Q 3081 4231 2675 4231 
Q 1875 4231 1450 3742 
Q 1025 3253 1025 2328 
Q 1025 1406 1450 917 
Q 1875 428 2675 428 
Q 3081 428 3442 575 
Q 3803 722 4122 1019 
L 4122 359 
Q 3791 134 3420 21 
Q 3050 -91 2638 -91 
Q 1578 -91 968 557 
Q 359 1206 359 2328 
Q 359 3453 968 4101 
Q 1578 4750 2638 4750 
Q 3056 4750 3426 4639 
Q 3797 4528 4122 4306 
z
" transform="scale(0.015625)"/>
      <path id="DejaVuSans-6c" d="M 603 4863 
L 1178 4863 
L 1178 0 
L 603 0 
L 603 4863 
z
" transform="scale(0.015625)"/>
      <path id="DejaVuSans-69" d="M 603 3500 
L 1178 3500 
L 1178 0 
L 603 0 
L 603 3500 
z
M 603 4863 
L 1178 4863 
L 1178 4134 
L 603 4134 
L 603 4863 
z
" transform="scale(0.015625)"/>
      <path id="DejaVuSans-66" d="M 2375 4863 
L 2375 4384 
L 1825 4384 
Q 1516 4384 1395 4259 
Q 1275 4134 1275 3809 
L 1275 3500 
L 2222 3500 
L 2222 3053 
L 1275 3053 
L 1275 0 
L 697 0 
L 697 3053 
L 147 3053 
L 147 3500 
L 697 3500 
L 697 3744 
Q 697 4328 969 4595 
Q 1241 4863 1831 4863 
L 2375 4863 
z
" transform="scale(0.015625)"/>
     </defs>
     <use xlink:href="#DejaVuSans-43"/>
     <use xlink:href="#DejaVuSans-61" x="69.824219"/>
     <use xlink:href="#DejaVuSans-6c" x="131.103516"/>
     <use xlink:href="#DejaVuSans-69" x="158.886719"/>
     <use xlink:href="#DejaVuSans-66" x="186.669922"/>
     <use xlink:href="#DejaVuSans-6f" x="221.875"/>
     <use xlink:href="#DejaVuSans-72" x="283.056641"/>
     <use xlink:href="#DejaVuSans-6e" x="322.419922"/>
     <use xlink:href="#DejaVuSans-69" x="385.798828"/>
     <use xlink:href="#DejaVuSans-61" x="413.582031"/>
    </g>
   </g>
  </g>
 </g>
 <defs>
  <clipPath id="p1874a787b6">
   <rect x="45" y="53.158452" width="279" height="257.283095"/>
  </clipPath>
 </defs>
</svg>
