<?xml version="1.0" encoding="utf-8" standalone="no"?>
<!DOCTYPE svg PUBLIC "-//W3C//DTD SVG 1.1//EN"
  "http://www.w3.org/Graphics/SVG/1.1/DTD/svg11.dtd">
<svg xmlns:xlink="http://www.w3.org/1999/xlink" width="460.8pt" height="345.6pt" viewBox="0 0 460.8 345.6" xmlns="http://www.w3.org/2000/svg" version="1.1">
 <metadata>
  <rdf:RDF xmlns:dc="http://purl.org/dc/elements/1.1/" xmlns:cc="http://creativecommons.org/ns#" xmlns:rdf="http://www.w3.org/1999/02/22-rdf-syntax-ns#">
   <cc:Work>
    <dc:type rdf:resource="http://purl.org/dc/dcmitype/StillImage"/>
    <dc:date>2023-06-19T14:47:47.975978</dc:date>
    <dc:format>image/svg+xml</dc:format>
    <dc:creator>
     <cc:Agent>
      <dc:title>Matplotlib v3.7.1, https://matplotlib.org/</dc:title>
     </cc:Agent>
    </dc:creator>
   </cc:Work>
  </rdf:RDF>
 </metadata>
 <defs>
  <style type="text/css">*{stroke-linejoin: round; stroke-linecap: butt}</style>
 </defs>
 <g id="figure_1">
  <g id="patch_1">
   <path d="M 0 345.6 
L 460.8 345.6 
L 460.8 0 
L 0 0 
z
" style="fill: #ffffff"/>
  </g>
  <g id="axes_1">
   <g id="PatchCollection_1">
    <path d="M 73.832727 198.252259 
L 73.865661 191.076779 
L 73.965249 186.579129 
L 74.11322 181.845788 
L 74.124599 180.094175 
L 74.131353 180.042395 
L 74.157441 177.82934 
L 74.154712 177.804878 
L 74.194306 174.405988 
L 74.237046 166.900183 
L 74.271599 152.581243 
L 74.243938 144.784574 
L 74.243941 144.782832 
L 74.258867 135.095256 
L 74.278537 122.328701 
L 74.266603 111.380677 
L 74.269379 111.341157 
L 74.263319 104.131573 
L 74.261978 104.123419 
L 74.262176 101.635689 
L 74.263227 88.439317 
L 74.29246 85.42033 
L 74.274698 85.130418 
L 74.309066 82.753391 
L 74.303562 82.726191 
L 74.39746 78.031835 
L 74.387978 75.986204 
L 74.382243 75.450075 
L 74.349169 72.357932 
L 74.378449 65.720553 
L 74.303469 55.330033 
L 81.979008 55.363661 
L 93.683027 55.359971 
L 98.513994 55.392587 
L 99.717006 55.36259 
L 111.281334 55.362471 
L 114.49248 55.342175 
L 120.722536 55.246411 
L 126.648693 55.248077 
L 140.192153 55.24284 
L 152.134434 55.186357 
L 154.430976 55.192653 
L 157.97414 55.202367 
L 169.102649 55.164276 
L 175.709455 55.21076 
L 194.392683 55.246827 
L 195.053951 55.251529 
L 195.153123 55.262421 
L 195.45235 55.26498 
L 197.260846 55.299263 
L 197.515066 55.301167 
L 200.530505 55.421453 
L 205.322201 55.504123 
L 206.571984 55.511681 
L 212.556185 55.547869 
L 227.855641 55.554595 
L 228.115458 55.553166 
L 248.822456 55.477995 
L 248.835315 55.477981 
L 249.775827 55.476924 
L 249.856681 55.475793 
L 264.261002 55.483309 
L 268.336016 55.485435 
L 269.527973 55.412704 
L 272.140333 55.375763 
L 276.628417 55.312297 
L 280.165747 55.290131 
L 284.901206 55.260457 
L 284.905416 55.261826 
L 286.264679 55.281586 
L 297.966385 55.270635 
L 297.989559 55.275932 
L 298.115281 55.274563 
L 302.180535 55.27248 
L 303.059204 55.27742 
L 303.915947 55.276229 
L 304.799751 55.279741 
L 305.434005 55.285574 
L 306.082091 55.27986 
L 306.815471 55.256945 
L 307.054149 55.273015 
L 309.162519 55.273134 
L 309.221218 55.27855 
L 310.046785 55.274265 
L 312.230089 55.286704 
L 312.698056 55.265099 
L 313.541755 55.269682 
L 314.444569 55.269206 
L 319.437893 55.247006 
L 327.577744 55.266825 
L 327.612343 55.266875 
L 331.142883 55.271944 
L 331.640129 55.255338 
L 334.633875 55.249803 
L 334.636188 55.252065 
L 335.789522 55.217009 
L 336.460159 55.236405 
L 337.254756 55.259386 
L 337.362763 55.259505 
L 350.553664 55.232484 
L 350.612316 55.235162 
L 351.398566 55.228317 
L 351.469799 55.228317 
L 352.143001 55.229746 
L 352.362252 55.235281 
L 354.05881 55.221294 
L 354.147805 55.226413 
L 354.953206 55.240876 
L 355.009036 55.243554 
L 355.833031 55.23915 
L 355.886086 55.245935 
L 355.970086 55.246708 
L 356.020134 55.244566 
L 356.704437 55.232186 
L 356.784043 55.247184 
L 357.59541 55.233555 
L 357.666597 55.241768 
L 358.475235 55.233793 
L 358.556228 55.2379 
L 359.360565 55.239626 
L 359.437395 55.242423 
L 360.266478 55.239328 
L 360.360746 55.250934 
L 361.124933 55.232305 
L 361.254818 55.234983 
L 362.001936 55.229329 
L 362.141767 55.241709 
L 364.627258 55.225579 
L 364.942859 55.233852 
L 365.502827 55.228734 
L 366.196335 55.236531 
L 370.181752 55.23046 
L 371.681817 55.214688 
L 373.640134 55.2329 
L 373.776958 55.234269 
L 373.788152 55.238316 
L 374.225173 55.238316 
L 374.653453 55.237185 
L 377.837401 55.223734 
L 378.643079 55.227484 
L 378.703858 55.224984 
L 382.849735 55.232305 
L 383.567944 55.239864 
L 386.862859 55.2379 
L 386.872619 55.236531 
L 386.875811 55.2379 
L 386.931271 55.2379 
L 387.821874 55.235638 
L 388.020217 55.227425 
L 389.679909 55.230758 
L 390.592576 55.222723 
L 390.723895 55.223913 
L 391.563478 55.230817 
L 394.627347 55.230103 
L 397.142441 55.225044 
L 398.015767 55.227767 
L 398.020555 55.227782 
L 398.035449 70.273079 
L 398.030526 73.370938 
L 398.015421 82.876117 
L 398.024949 83.932263 
L 398.027447 88.698815 
L 398.010101 91.29451 
L 398.022498 91.491872 
L 398.012044 93.456618 
L 398.023365 94.102686 
L 398.034663 94.747442 
L 398.006308 100.87999 
L 398.007604 101.246085 
L 398.00691 105.205158 
L 398.002654 106.057157 
L 398.014542 114.703979 
L 398.022637 123.82647 
L 398.032165 124.203456 
L 398.034247 124.808158 
L 398.037207 125.660395 
L 398.067736 134.195146 
L 398.090632 135.491565 
L 398.075692 135.953662 
L 398.097339 139.150786 
L 398.104185 140.238357 
L 398.106136 140.588204 
L 398.115841 142.328984 
L 398.110337 142.462364 
L 398.110059 144.278136 
L 398.124399 149.209196 
L 398.124352 149.514106 
L 398.133742 150.383842 
L 398.143317 152.162535 
L 398.166954 156.362952 
L 398.222414 166.24995 
L 398.225254 166.480489 
L 398.22778 166.685562 
L 398.253821 171.605492 
L 398.308542 185.511615 
L 398.311039 186.340641 
L 398.305766 187.293522 
L 398.309328 188.090408 
L 398.313213 188.95556 
L 398.309143 189.026327 
L 398.316683 192.405279 
L 398.319273 192.941654 
L 398.320614 193.050572 
L 398.319088 193.735266 
L 398.321771 193.751633 
L 398.323066 194.068804 
L 398.313167 197.304675 
L 398.313176 197.309469 
L 398.316729 199.306858 
L 398.317746 200.668449 
L 398.316174 201.557349 
L 398.321308 202.748481 
L 398.31437 203.834802 
L 398.314324 203.842956 
L 398.311502 206.92289 
L 398.329449 208.944535 
L 398.352299 209.175345 
L 398.329079 211.043196 
L 398.34439 215.334141 
L 398.346471 217.923468 
L 398.3465 217.927627 
L 398.349151 218.304824 
L 398.354335 219.042643 
L 398.361134 225.484684 
L 398.3455 226.482502 
L 398.360949 227.196836 
L 398.342956 231.213045 
L 398.37996 238.202235 
L 398.379914 238.319307 
L 398.40887 241.783607 
L 398.417473 244.38948 
L 398.421174 245.616204 
L 398.434356 246.4957 
L 398.457947 248.197555 
L 398.465719 249.484533 
L 398.470991 250.357401 
L 398.48496 252.9428 
L 398.479409 253.820987 
L 398.48459 254.486754 
L 398.484451 255.094611 
L 398.482925 257.261896 
L 398.470158 260.231305 
L 398.469927 261.23067 
L 398.464515 261.583314 
L 398.475154 263.32094 
L 398.47446 265.497986 
L 398.476588 267.55927 
L 398.480566 267.566115 
L 398.480242 269.044659 
L 398.484416 270.27713 
L 398.487273 271.120644 
L 398.461138 272.441882 
L 398.466458 272.454143 
L 398.47372 275.020734 
L 398.480797 275.725426 
L 398.466967 278.075551 
L 398.465163 285.004627 
L 398.459011 285.999945 
L 398.461 285.999945 
L 398.47409 286.776535 
L 398.466041 287.099241 
L 398.468956 291.352868 
L 398.476865 291.393697 
L 398.468909 291.525768 
L 398.467568 291.607486 
L 398.467475 291.968343 
L 398.454154 293.852621 
L 397.886923 293.851073 
L 391.884444 293.822267 
L 390.772232 293.814113 
L 388.345069 293.77495 
L 383.973974 293.767927 
L 383.97032 293.76382 
L 368.115104 293.729657 
L 366.083657 293.578481 
L 365.259292 293.528486 
L 364.394916 293.48605 
L 363.412774 293.471349 
L 362.610705 293.454743 
L 361.461395 293.464861 
L 355.095534 293.527296 
L 354.809027 293.525986 
L 354.754955 293.528784 
L 354.050808 293.434745 
L 350.169835 293.430587 
L 346.94028 293.427127 
L 320.235845 293.559019 
L 320.184178 293.557531 
L 307.533726 293.664782 
L 296.308404 293.759713 
L 292.224186 293.825719 
L 283.878591 293.81197 
L 279.007937 293.775605 
L 278.96219 293.821909 
L 278.060949 293.835063 
L 274.036631 293.830956 
L 274.032514 293.828754 
L 261.615976 293.841848 
L 260.289647 293.87369 
L 256.053942 293.713051 
L 255.330156 293.715468 
L 254.47005 293.71834 
L 251.441971 293.72845 
L 251.437046 293.728466 
L 250.017789 293.702517 
L 242.246224 293.687578 
L 242.229762 293.687451 
L 241.175457 293.679364 
L 240.953615 293.677995 
L 240.124394 293.679543 
L 238.105158 293.685256 
L 237.936372 293.692279 
L 236.944793 293.686447 
L 232.617687 293.698112 
L 230.894671 293.686506 
L 228.500905 293.687994 
L 228.408764 293.688177 
L 228.408456 293.688177 
L 215.563808 293.713646 
L 215.503074 293.713706 
L 215.093962 293.717958 
L 215.079282 293.71811 
L 206.067099 293.790782 
L 203.928432 293.782211 
L 203.883564 293.780902 
L 201.820385 293.80459 
L 199.514088 293.784354 
L 193.35582 293.807605 
L 192.231166 293.811851 
L 186.839166 293.859525 
L 186.840739 293.857323 
L 186.307552 293.847145 
L 186.303806 293.847978 
L 184.795369 293.843098 
L 184.134748 293.85024 
L 180.667208 293.889641 
L 175.153326 293.891724 
L 174.806595 293.432662 
L 169.800736 293.43425 
L 149.661155 293.440638 
L 146.847713 293.440663 
L 122.846401 293.440876 
L 121.327488 293.448623 
L 111.341049 293.49956 
L 111.281981 293.467064 
L 109.549668 293.467421 
L 109.535144 293.469504 
L 108.052009 293.470754 
L 108.040121 293.470099 
L 105.330389 293.473143 
L 98.06322 293.481306 
L 94.211218 293.485633 
L 94.18254 293.483372 
L 78.728822 293.506048 
L 78.522337 293.505631 
L 74.527947 293.495454 
L 74.530583 289.111483 
L 74.535579 288.997268 
L 74.538493 288.296861 
L 74.52952 287.711086 
L 74.53026 286.925866 
L 74.528872 286.777428 
L 74.531046 286.771119 
L 74.492238 282.889658 
L 74.493024 281.428374 
L 74.515735 280.891939 
L 74.511249 278.600082 
L 74.490202 278.561872 
L 74.500795 271.122132 
L 74.609429 264.585455 
L 74.624436 263.682451 
L 74.68096 261.857573 
L 74.683273 261.853228 
L 74.686002 257.481934 
L 74.670969 256.678978 
L 74.672911 256.313954 
L 74.664585 253.798013 
L 74.689425 251.110957 
L 74.68813 250.993826 
L 74.693865 249.385176 
L 74.672495 248.803091 
L 74.70196 245.82035 
L 74.688407 243.69431 
L 74.689841 243.323811 
L 74.684244 241.494409 
L 74.693001 241.000579 
L 74.720601 239.444136 
L 74.625176 235.455007 
L 74.639145 234.097522 
L 74.639099 233.964618 
L 74.684587 224.814864 
L 74.688037 224.121009 
L 74.091989 219.345827 
L 73.841562 217.526483 
L 73.846188 204.164829 
L 73.832727 198.252259 
" clip-path="url(#pd050a530a8)" style="fill: #33ff57"/>
   </g>
   <g id="text_1">
    <!-- CO -->
    <g transform="translate(227.247187 37.227904) scale(0.12 -0.12)">
     <defs>
      <path id="DejaVuSans-43" d="M 4122 4306 
L 4122 3641 
Q 3803 3938 3442 4084 
Q 3081 4231 2675 4231 
Q 1875 4231 1450 3742 
Q 1025 3253 1025 2328 
Q 1025 1406 1450 917 
Q 1875 428 2675 428 
Q 3081 428 3442 575 
Q 3803 722 4122 1019 
L 4122 359 
Q 3791 134 3420 21 
Q 3050 -91 2638 -91 
Q 1578 -91 968 557 
Q 359 1206 359 2328 
Q 359 3453 968 4101 
Q 1578 4750 2638 4750 
Q 3056 4750 3426 4639 
Q 3797 4528 4122 4306 
z
" transform="scale(0.015625)"/>
      <path id="DejaVuSans-4f" d="M 2522 4238 
Q 1834 4238 1429 3725 
Q 1025 3213 1025 2328 
Q 1025 1447 1429 934 
Q 1834 422 2522 422 
Q 3209 422 3611 934 
Q 4013 1447 4013 2328 
Q 4013 3213 3611 3725 
Q 3209 4238 2522 4238 
z
M 2522 4750 
Q 3503 4750 4090 4092 
Q 4678 3434 4678 2328 
Q 4678 1225 4090 567 
Q 3503 -91 2522 -91 
Q 1538 -91 948 565 
Q 359 1222 359 2328 
Q 359 3434 948 4092 
Q 1538 4750 2522 4750 
z
" transform="scale(0.015625)"/>
     </defs>
     <use xlink:href="#DejaVuSans-43"/>
     <use xlink:href="#DejaVuSans-4f" x="69.824219"/>
    </g>
   </g>
  </g>
 </g>
 <defs>
  <clipPath id="pd050a530a8">
   <rect x="57.6" y="43.227904" width="357.12" height="262.600193"/>
  </clipPath>
 </defs>
</svg>
