<?xml version="1.0" encoding="utf-8" standalone="no"?>
<!DOCTYPE svg PUBLIC "-//W3C//DTD SVG 1.1//EN"
  "http://www.w3.org/Graphics/SVG/1.1/DTD/svg11.dtd">
<svg xmlns:xlink="http://www.w3.org/1999/xlink" width="360pt" height="360pt" viewBox="0 0 360 360" xmlns="http://www.w3.org/2000/svg" version="1.1">
 <metadata>
  <rdf:RDF xmlns:dc="http://purl.org/dc/elements/1.1/" xmlns:cc="http://creativecommons.org/ns#" xmlns:rdf="http://www.w3.org/1999/02/22-rdf-syntax-ns#">
   <cc:Work>
    <dc:type rdf:resource="http://purl.org/dc/dcmitype/StillImage"/>
    <dc:date>2023-06-19T15:20:27.806539</dc:date>
    <dc:format>image/svg+xml</dc:format>
    <dc:creator>
     <cc:Agent>
      <dc:title>Matplotlib v3.7.1, https://matplotlib.org/</dc:title>
     </cc:Agent>
    </dc:creator>
   </cc:Work>
  </rdf:RDF>
 </metadata>
 <defs>
  <style type="text/css">*{stroke-linejoin: round; stroke-linecap: butt}</style>
 </defs>
 <g id="figure_1">
  <g id="patch_1">
   <path d="M 0 360 
L 360 360 
L 360 0 
L 0 0 
z
" style="fill: #ffffff"/>
  </g>
  <g id="axes_1">
   <g id="PatchCollection_1">
    <path d="M 57.681818 196.204493 
L 57.707548 191.847806 
L 57.785351 189.117 
L 57.900953 186.24309 
L 57.909843 185.179576 
L 57.915119 185.148136 
L 57.9355 183.804451 
L 57.933368 183.789599 
L 57.964302 181.725919 
L 57.997692 177.168672 
L 58.024687 168.474741 
L 58.003077 163.740892 
L 58.003079 163.739834 
L 58.01474 157.857897 
L 58.030107 150.106517 
L 58.020784 143.459282 
L 58.022952 143.435287 
L 58.018218 139.057894 
L 58.01717 139.052943 
L 58.017325 137.542486 
L 58.018146 129.530137 
L 58.040985 127.697119 
L 58.027108 127.521096 
L 58.053958 126.077853 
L 58.049658 126.061338 
L 58.123016 123.211099 
L 58.115608 121.969067 
L 58.111128 121.643549 
L 58.085289 119.766115 
L 58.108163 115.736144 
L 58.049585 109.427405 
L 64.0461 109.447822 
L 73.189865 109.445582 
L 76.964058 109.465385 
L 77.903911 109.447172 
L 86.938542 109.4471 
L 89.44725 109.434777 
L 94.314481 109.376632 
L 98.944291 109.377644 
L 109.52512 109.374464 
L 118.855027 109.34017 
L 120.6492 109.343993 
L 123.417297 109.349891 
L 132.111444 109.326763 
L 137.273012 109.354986 
L 151.869284 109.376885 
L 152.385899 109.37974 
L 152.463377 109.386353 
L 152.697148 109.387907 
L 154.110036 109.408722 
L 154.308645 109.409878 
L 156.664457 109.482911 
L 160.40797 109.533106 
L 161.384362 109.537695 
L 166.05952 109.559667 
L 178.01222 109.56375 
L 178.215202 109.562883 
L 194.392543 109.517242 
L 194.40259 109.517233 
L 195.137365 109.516591 
L 195.200532 109.515905 
L 206.453908 109.520468 
L 209.637512 109.521759 
L 210.568729 109.477599 
L 212.609635 109.45517 
L 216.115951 109.416636 
L 218.87949 109.403178 
L 222.579067 109.385161 
L 222.582356 109.385992 
L 223.64428 109.397989 
L 232.786238 109.39134 
L 232.804343 109.394556 
L 232.902564 109.393725 
L 236.078543 109.39246 
L 236.765003 109.39546 
L 237.434334 109.394737 
L 238.124805 109.396869 
L 238.620317 109.40041 
L 239.126633 109.396941 
L 239.699587 109.383028 
L 239.886054 109.392785 
L 241.533218 109.392858 
L 241.579076 109.396146 
L 242.224051 109.393544 
L 243.929757 109.401097 
L 244.295356 109.387979 
L 244.954496 109.390762 
L 245.65982 109.390473 
L 249.560854 109.376994 
L 255.920112 109.389027 
L 255.947143 109.389057 
L 258.705377 109.392135 
L 259.093851 109.382053 
L 261.432715 109.378692 
L 261.434522 109.380065 
L 262.335564 109.35878 
L 262.859499 109.370557 
L 263.480278 109.38451 
L 263.564658 109.384582 
L 273.87005 109.368176 
L 273.915872 109.369802 
L 274.53013 109.365647 
L 274.585781 109.365647 
L 275.11172 109.366514 
L 275.283009 109.369875 
L 276.608445 109.361382 
L 276.677973 109.36449 
L 277.307192 109.373271 
L 277.350809 109.374898 
L 277.994555 109.372223 
L 278.036004 109.376343 
L 278.101629 109.376813 
L 278.14073 109.375512 
L 278.675342 109.367995 
L 278.737534 109.377102 
L 279.371414 109.368827 
L 279.427029 109.373814 
L 280.058777 109.368971 
L 280.122053 109.371465 
L 280.750441 109.372513 
L 280.810465 109.374211 
L 281.458186 109.372332 
L 281.531833 109.379379 
L 282.128854 109.368068 
L 282.230327 109.369694 
L 282.814013 109.366261 
L 282.923255 109.373777 
L 284.865045 109.363984 
L 285.111608 109.369007 
L 285.549084 109.365899 
L 286.090887 109.370633 
L 289.204494 109.366947 
L 290.376419 109.357371 
L 291.906355 109.368429 
L 292.013248 109.36926 
L 292.021994 109.371718 
L 292.363417 109.371718 
L 292.69801 109.371031 
L 295.18547 109.362864 
L 295.814905 109.365141 
L 295.862389 109.363623 
L 299.101356 109.368068 
L 299.662456 109.372657 
L 302.236609 109.371465 
L 302.244234 109.370633 
L 302.246727 109.371465 
L 302.290055 109.371465 
L 302.985839 109.370091 
L 303.140795 109.365104 
L 304.437429 109.367128 
L 305.15045 109.36225 
L 305.253043 109.362972 
L 305.908967 109.367164 
L 308.302615 109.366731 
L 310.267532 109.363659 
L 310.949818 109.365312 
L 310.953559 109.365321 
L 310.965195 118.500269 
L 310.961349 120.381174 
L 310.949547 126.152368 
L 310.956992 126.79362 
L 310.958943 129.687694 
L 310.945392 131.263705 
L 310.955076 131.383535 
L 310.946909 132.576456 
L 310.955754 132.968725 
L 310.964581 133.360197 
L 310.942428 137.083653 
L 310.94344 137.305933 
L 310.942898 139.709735 
L 310.939574 140.227037 
L 310.948861 145.477068 
L 310.955185 151.015907 
L 310.962629 151.244799 
L 310.964255 151.611952 
L 310.966568 152.129398 
L 310.990419 157.311383 
L 311.008306 158.098521 
L 310.996634 158.379089 
L 311.013546 160.320265 
L 311.018895 160.980598 
L 311.020418 161.193011 
L 311.028001 162.249949 
L 311.023701 162.330932 
L 311.023484 163.433402 
L 311.034686 166.427359 
L 311.03465 166.612489 
L 311.041986 167.14056 
L 311.049466 168.220517 
L 311.067933 170.770855 
L 311.111261 176.773874 
L 311.113479 176.913849 
L 311.115453 177.038362 
L 311.135798 180.025561 
L 311.178548 188.468845 
L 311.1805 188.972198 
L 311.17638 189.550753 
L 311.179162 190.034592 
L 311.182198 190.559881 
L 311.179018 190.602848 
L 311.184908 192.654422 
L 311.186932 192.980089 
L 311.18798 193.04622 
L 311.186787 193.461941 
L 311.188883 193.471879 
L 311.189895 193.664453 
L 311.182162 195.629154 
L 311.182169 195.632065 
L 311.184944 196.844806 
L 311.185739 197.671513 
L 311.184511 198.211221 
L 311.188522 198.934432 
L 311.183101 199.594006 
L 311.183065 199.598957 
L 311.180861 201.468978 
L 311.194882 202.696447 
L 311.212734 202.836586 
L 311.194593 203.970676 
L 311.206554 206.575979 
L 311.208181 208.148122 
L 311.208203 208.150648 
L 311.210274 208.379668 
L 311.214324 208.827644 
L 311.219636 212.739013 
L 311.207422 213.344851 
L 311.219491 213.778568 
L 311.205434 216.217062 
L 311.234344 220.46064 
L 311.234308 220.531721 
L 311.256929 222.635116 
L 311.263651 224.217306 
L 311.266542 224.962127 
L 311.276841 225.496125 
L 311.295271 226.529428 
L 311.301343 227.310834 
L 311.305462 227.840807 
L 311.316375 229.410565 
L 311.312039 229.943768 
L 311.316086 230.347997 
L 311.315977 230.717065 
L 311.314785 232.032961 
L 311.304811 233.835876 
L 311.30463 234.442654 
L 311.300402 234.656766 
L 311.308714 235.711788 
L 311.308172 237.03361 
L 311.309834 238.285145 
L 311.312942 238.289301 
L 311.312689 239.187018 
L 311.31595 239.935329 
L 311.318182 240.44748 
L 311.297764 241.249687 
L 311.30192 241.257131 
L 311.307594 242.81547 
L 311.313123 243.243333 
L 311.302318 244.670242 
L 311.300908 248.877321 
L 311.296102 249.481641 
L 311.297656 249.481641 
L 311.307883 249.953158 
L 311.301595 250.149093 
L 311.303872 252.731738 
L 311.310051 252.756528 
L 311.303835 252.836716 
L 311.302787 252.886332 
L 311.302715 253.105431 
L 311.292308 254.249495 
L 310.849159 254.248555 
L 306.159722 254.231065 
L 305.290806 254.226114 
L 303.394585 254.202336 
L 299.979667 254.198072 
L 299.976813 254.195578 
L 287.589925 254.174836 
L 286.002857 254.083048 
L 285.358822 254.052692 
L 284.683529 254.026927 
L 283.91623 254.018001 
L 283.289613 254.007919 
L 282.391715 254.014062 
L 277.418386 254.05197 
L 277.194553 254.051175 
L 277.152308 254.052873 
L 276.602194 253.995776 
L 273.570184 253.993252 
L 271.047093 253.991151 
L 250.184254 254.071231 
L 250.143889 254.070327 
L 240.260723 254.135446 
L 231.490941 254.193085 
L 228.300145 254.233161 
L 221.780149 254.224813 
L 217.974951 254.202734 
L 217.939211 254.230848 
L 217.235116 254.238834 
L 214.091118 254.236341 
L 214.087902 254.235004 
L 204.387481 254.242954 
L 203.351287 254.262287 
L 200.042142 254.164753 
L 199.476685 254.166221 
L 198.804726 254.167964 
L 196.43904 254.174103 
L 196.435192 254.174113 
L 195.326398 254.158357 
L 189.254863 254.149287 
L 189.242002 254.14921 
L 188.418325 254.1443 
L 188.245012 254.143469 
L 187.597183 254.144408 
L 186.019655 254.147877 
L 185.88779 254.152142 
L 185.11312 254.1486 
L 181.732568 254.155683 
L 180.386462 254.148636 
L 178.516332 254.14954 
L 178.444347 254.149651 
L 178.444106 254.149651 
L 168.409225 254.165115 
L 168.361777 254.165151 
L 168.042158 254.167732 
L 168.030689 254.167825 
L 160.989921 254.211948 
L 159.319087 254.206745 
L 159.284034 254.20595 
L 157.672176 254.220332 
L 155.870381 254.208046 
L 151.059234 254.222163 
L 150.180598 254.224741 
L 145.968099 254.253687 
L 145.969327 254.25235 
L 145.552775 254.24617 
L 145.549848 254.246676 
L 144.371382 254.243713 
L 143.855272 254.248049 
L 141.146256 254.271972 
L 136.838536 254.273237 
L 136.567652 253.994512 
L 132.656825 253.995476 
L 116.922777 253.999354 
L 114.724775 253.999369 
L 95.973751 253.999499 
L 94.7871 254.004203 
L 86.985195 254.03513 
L 86.939048 254.015399 
L 85.585678 254.015616 
L 85.574331 254.016881 
L 84.415632 254.017639 
L 84.406344 254.017242 
L 82.289367 254.01909 
L 76.611891 254.024046 
L 73.602514 254.026674 
L 73.580109 254.0253 
L 61.506892 254.039069 
L 61.345576 254.038816 
L 58.224958 254.032636 
L 58.227018 251.370851 
L 58.230921 251.301504 
L 58.233198 250.876243 
L 58.226187 250.520582 
L 58.226765 250.043826 
L 58.225681 249.9537 
L 58.22738 249.949869 
L 58.197061 247.59319 
L 58.197675 246.705952 
L 58.215418 246.380248 
L 58.211913 244.988718 
L 58.195471 244.965518 
L 58.203746 240.448383 
L 58.288616 236.479555 
L 58.30034 235.931284 
L 58.3445 234.823285 
L 58.346307 234.820647 
L 58.348439 232.16656 
L 58.336694 231.679034 
L 58.338212 231.457406 
L 58.331707 229.929819 
L 58.351113 228.298338 
L 58.350101 228.227221 
L 58.354582 227.250508 
L 58.337887 226.897087 
L 58.360906 225.086077 
L 58.350318 223.795225 
L 58.351438 223.570271 
L 58.347066 222.459526 
L 58.353907 222.159691 
L 58.375469 221.214676 
L 58.300919 218.792624 
L 58.311832 217.96841 
L 58.311796 217.887716 
L 58.347334 212.332323 
L 58.350029 211.91104 
L 57.884367 209.011726 
L 57.68872 207.907088 
L 57.692334 199.794386 
L 57.681818 196.204493 
" clip-path="url(#p137f6e6f47)" style="fill: #00e600"/>
   </g>
   <g id="PathCollection_1">
    <defs>
     <path id="mbb31baed52" d="M 0 1.581139 
C 0.419323 1.581139 0.821528 1.41454 1.118034 1.118034 
C 1.41454 0.821528 1.581139 0.419323 1.581139 0 
C 1.581139 -0.419323 1.41454 -0.821528 1.118034 -1.118034 
C 0.821528 -1.41454 0.419323 -1.581139 0 -1.581139 
C -0.419323 -1.581139 -0.821528 -1.41454 -1.118034 -1.118034 
C -1.41454 -0.821528 -1.581139 -0.419323 -1.581139 0 
C -1.581139 0.419323 -1.41454 0.821528 -1.118034 1.118034 
C -0.821528 1.41454 -0.419323 1.581139 0 1.581139 
z
" style="stroke: #000000"/>
    </defs>
    <g clip-path="url(#p137f6e6f47)">
     <use xlink:href="#mbb31baed52" x="204.954761" y="155.011873" style="stroke: #000000"/>
    </g>
   </g>
   <g id="text_1">
    <!-- Denver -->
    <g transform="translate(207.954761 152.011873) scale(0.1 -0.1)">
     <defs>
      <path id="DejaVuSans-44" d="M 1259 4147 
L 1259 519 
L 2022 519 
Q 2988 519 3436 956 
Q 3884 1394 3884 2338 
Q 3884 3275 3436 3711 
Q 2988 4147 2022 4147 
L 1259 4147 
z
M 628 4666 
L 1925 4666 
Q 3281 4666 3915 4102 
Q 4550 3538 4550 2338 
Q 4550 1131 3912 565 
Q 3275 0 1925 0 
L 628 0 
L 628 4666 
z
" transform="scale(0.015625)"/>
      <path id="DejaVuSans-65" d="M 3597 1894 
L 3597 1613 
L 953 1613 
Q 991 1019 1311 708 
Q 1631 397 2203 397 
Q 2534 397 2845 478 
Q 3156 559 3463 722 
L 3463 178 
Q 3153 47 2828 -22 
Q 2503 -91 2169 -91 
Q 1331 -91 842 396 
Q 353 884 353 1716 
Q 353 2575 817 3079 
Q 1281 3584 2069 3584 
Q 2775 3584 3186 3129 
Q 3597 2675 3597 1894 
z
M 3022 2063 
Q 3016 2534 2758 2815 
Q 2500 3097 2075 3097 
Q 1594 3097 1305 2825 
Q 1016 2553 972 2059 
L 3022 2063 
z
" transform="scale(0.015625)"/>
      <path id="DejaVuSans-6e" d="M 3513 2113 
L 3513 0 
L 2938 0 
L 2938 2094 
Q 2938 2591 2744 2837 
Q 2550 3084 2163 3084 
Q 1697 3084 1428 2787 
Q 1159 2491 1159 1978 
L 1159 0 
L 581 0 
L 581 3500 
L 1159 3500 
L 1159 2956 
Q 1366 3272 1645 3428 
Q 1925 3584 2291 3584 
Q 2894 3584 3203 3211 
Q 3513 2838 3513 2113 
z
" transform="scale(0.015625)"/>
      <path id="DejaVuSans-76" d="M 191 3500 
L 800 3500 
L 1894 563 
L 2988 3500 
L 3597 3500 
L 2284 0 
L 1503 0 
L 191 3500 
z
" transform="scale(0.015625)"/>
      <path id="DejaVuSans-72" d="M 2631 2963 
Q 2534 3019 2420 3045 
Q 2306 3072 2169 3072 
Q 1681 3072 1420 2755 
Q 1159 2438 1159 1844 
L 1159 0 
L 581 0 
L 581 3500 
L 1159 3500 
L 1159 2956 
Q 1341 3275 1631 3429 
Q 1922 3584 2338 3584 
Q 2397 3584 2469 3576 
Q 2541 3569 2628 3553 
L 2631 2963 
z
" transform="scale(0.015625)"/>
     </defs>
     <use xlink:href="#DejaVuSans-44"/>
     <use xlink:href="#DejaVuSans-65" x="77.001953"/>
     <use xlink:href="#DejaVuSans-6e" x="138.525391"/>
     <use xlink:href="#DejaVuSans-76" x="201.904297"/>
     <use xlink:href="#DejaVuSans-65" x="261.083984"/>
     <use xlink:href="#DejaVuSans-72" x="322.607422"/>
    </g>
   </g>
   <g id="text_2">
    <!-- Colorado -->
    <g transform="translate(157.677188 96.079439) scale(0.12 -0.12)">
     <defs>
      <path id="DejaVuSans-43" d="M 4122 4306 
L 4122 3641 
Q 3803 3938 3442 4084 
Q 3081 4231 2675 4231 
Q 1875 4231 1450 3742 
Q 1025 3253 1025 2328 
Q 1025 1406 1450 917 
Q 1875 428 2675 428 
Q 3081 428 3442 575 
Q 3803 722 4122 1019 
L 4122 359 
Q 3791 134 3420 21 
Q 3050 -91 2638 -91 
Q 1578 -91 968 557 
Q 359 1206 359 2328 
Q 359 3453 968 4101 
Q 1578 4750 2638 4750 
Q 3056 4750 3426 4639 
Q 3797 4528 4122 4306 
z
" transform="scale(0.015625)"/>
      <path id="DejaVuSans-6f" d="M 1959 3097 
Q 1497 3097 1228 2736 
Q 959 2375 959 1747 
Q 959 1119 1226 758 
Q 1494 397 1959 397 
Q 2419 397 2687 759 
Q 2956 1122 2956 1747 
Q 2956 2369 2687 2733 
Q 2419 3097 1959 3097 
z
M 1959 3584 
Q 2709 3584 3137 3096 
Q 3566 2609 3566 1747 
Q 3566 888 3137 398 
Q 2709 -91 1959 -91 
Q 1206 -91 779 398 
Q 353 888 353 1747 
Q 353 2609 779 3096 
Q 1206 3584 1959 3584 
z
" transform="scale(0.015625)"/>
      <path id="DejaVuSans-6c" d="M 603 4863 
L 1178 4863 
L 1178 0 
L 603 0 
L 603 4863 
z
" transform="scale(0.015625)"/>
      <path id="DejaVuSans-61" d="M 2194 1759 
Q 1497 1759 1228 1600 
Q 959 1441 959 1056 
Q 959 750 1161 570 
Q 1363 391 1709 391 
Q 2188 391 2477 730 
Q 2766 1069 2766 1631 
L 2766 1759 
L 2194 1759 
z
M 3341 1997 
L 3341 0 
L 2766 0 
L 2766 531 
Q 2569 213 2275 61 
Q 1981 -91 1556 -91 
Q 1019 -91 701 211 
Q 384 513 384 1019 
Q 384 1609 779 1909 
Q 1175 2209 1959 2209 
L 2766 2209 
L 2766 2266 
Q 2766 2663 2505 2880 
Q 2244 3097 1772 3097 
Q 1472 3097 1187 3025 
Q 903 2953 641 2809 
L 641 3341 
Q 956 3463 1253 3523 
Q 1550 3584 1831 3584 
Q 2591 3584 2966 3190 
Q 3341 2797 3341 1997 
z
" transform="scale(0.015625)"/>
      <path id="DejaVuSans-64" d="M 2906 2969 
L 2906 4863 
L 3481 4863 
L 3481 0 
L 2906 0 
L 2906 525 
Q 2725 213 2448 61 
Q 2172 -91 1784 -91 
Q 1150 -91 751 415 
Q 353 922 353 1747 
Q 353 2572 751 3078 
Q 1150 3584 1784 3584 
Q 2172 3584 2448 3432 
Q 2725 3281 2906 2969 
z
M 947 1747 
Q 947 1113 1208 752 
Q 1469 391 1925 391 
Q 2381 391 2643 752 
Q 2906 1113 2906 1747 
Q 2906 2381 2643 2742 
Q 2381 3103 1925 3103 
Q 1469 3103 1208 2742 
Q 947 2381 947 1747 
z
" transform="scale(0.015625)"/>
     </defs>
     <use xlink:href="#DejaVuSans-43"/>
     <use xlink:href="#DejaVuSans-6f" x="69.824219"/>
     <use xlink:href="#DejaVuSans-6c" x="131.005859"/>
     <use xlink:href="#DejaVuSans-6f" x="158.789062"/>
     <use xlink:href="#DejaVuSans-72" x="219.970703"/>
     <use xlink:href="#DejaVuSans-61" x="261.083984"/>
     <use xlink:href="#DejaVuSans-64" x="322.363281"/>
     <use xlink:href="#DejaVuSans-6f" x="385.839844"/>
    </g>
   </g>
  </g>
 </g>
 <defs>
  <clipPath id="p137f6e6f47">
   <rect x="45" y="102.079439" width="279" height="159.441121"/>
  </clipPath>
 </defs>
</svg>
