<?xml version="1.0" encoding="utf-8" standalone="no"?>
<!DOCTYPE svg PUBLIC "-//W3C//DTD SVG 1.1//EN"
  "http://www.w3.org/Graphics/SVG/1.1/DTD/svg11.dtd">
<svg xmlns:xlink="http://www.w3.org/1999/xlink" width="360pt" height="360pt" viewBox="0 0 360 360" xmlns="http://www.w3.org/2000/svg" version="1.1">
 <metadata>
  <rdf:RDF xmlns:dc="http://purl.org/dc/elements/1.1/" xmlns:cc="http://creativecommons.org/ns#" xmlns:rdf="http://www.w3.org/1999/02/22-rdf-syntax-ns#">
   <cc:Work>
    <dc:type rdf:resource="http://purl.org/dc/dcmitype/StillImage"/>
    <dc:date>2023-06-19T15:20:28.916173</dc:date>
    <dc:format>image/svg+xml</dc:format>
    <dc:creator>
     <cc:Agent>
      <dc:title>Matplotlib v3.7.1, https://matplotlib.org/</dc:title>
     </cc:Agent>
    </dc:creator>
   </cc:Work>
  </rdf:RDF>
 </metadata>
 <defs>
  <style type="text/css">*{stroke-linejoin: round; stroke-linecap: butt}</style>
 </defs>
 <g id="figure_1">
  <g id="patch_1">
   <path d="M 0 360 
L 360 360 
L 360 0 
L 0 0 
z
" style="fill: #ffffff"/>
  </g>
  <g id="axes_1">
   <g id="PatchCollection_1">
    <path d="M 206.001803 233.765863 
L 206.826326 232.647032 
L 207.359825 232.320749 
L 207.893324 232.880125 
L 206.777816 234.371951 
L 206.098825 234.371951 
L 206.001803 233.765863 
" clip-path="url(#p3fe9fa0946)" style="fill: #f00000"/>
    <path d="M 198.165258 182.486927 
L 198.429858 182.293158 
L 198.751645 182.382439 
L 199.059869 182.768726 
L 198.6325 183.258717 
L 198.125152 182.870555 
L 198.165258 182.486927 
" clip-path="url(#p3fe9fa0946)" style="fill: #f00000"/>
    <path d="M 197.471803 171.240453 
L 197.760052 170.69468 
L 198.251999 170.587066 
L 198.767008 171.05978 
L 198.89921 171.666806 
L 198.367587 172.216137 
L 197.93326 172.19151 
L 197.502528 171.720868 
L 197.471803 171.240453 
" clip-path="url(#p3fe9fa0946)" style="fill: #f00000"/>
    <path d="M 195.611594 206.280629 
L 196.040371 205.778676 
L 196.504915 206.134628 
L 196.551354 206.535065 
L 196.272682 206.95661 
L 195.668704 206.713041 
L 195.611594 206.280629 
" clip-path="url(#p3fe9fa0946)" style="fill: #f00000"/>
    <path d="M 193.392461 153.071864 
L 193.717102 152.710048 
L 194.182194 152.276971 
L 194.693177 151.835373 
L 195.246455 151.320129 
L 195.146541 150.830567 
L 195.404066 150.382362 
L 195.134815 149.920007 
L 195.343555 149.319 
L 195.872949 149.164009 
L 196.803054 149.310049 
L 197.141259 149.62136 
L 197.299378 150.459174 
L 196.819706 151.524491 
L 196.295706 151.493102 
L 195.622265 151.967848 
L 195.018366 152.806874 
L 194.786094 153.292683 
L 194.120354 153.814494 
L 193.367052 154.022022 
L 193.392461 153.071864 
" clip-path="url(#p3fe9fa0946)" style="fill: #f00000"/>
    <path d="M 192.459815 267.85721 
L 192.982721 266.910179 
L 193.39164 264.501655 
L 193.387809 263.538989 
L 194.536974 263.940129 
L 195.778625 263.225722 
L 197.325725 261.691562 
L 197.689925 261.775331 
L 198.067807 262.424184 
L 197.917624 262.886149 
L 197.204311 263.380948 
L 197.24172 263.673419 
L 196.857389 264.044147 
L 196.191961 265.099926 
L 196.238048 265.87246 
L 196.787652 266.506615 
L 196.578052 266.885591 
L 196.644779 267.234156 
L 196.100647 267.134946 
L 195.741646 267.004542 
L 194.886125 266.974677 
L 194.708383 267.924835 
L 195.204199 268.316829 
L 194.885186 269.439099 
L 194.24638 268.879567 
L 193.251737 268.85107 
L 192.579313 268.310066 
L 192.459815 267.85721 
" clip-path="url(#p3fe9fa0946)" style="fill: #f00000"/>
    <path d="M 190.488356 125.319568 
L 190.692053 124.693113 
L 191.295445 123.989769 
L 192.193379 124.269027 
L 192.839534 124.938481 
L 192.95958 126.023577 
L 192.694237 126.644168 
L 192.413885 126.933824 
L 191.699009 127.418069 
L 190.651634 126.581468 
L 190.488356 125.319568 
" clip-path="url(#p3fe9fa0946)" style="fill: #f00000"/>
    <path d="M 190.376911 219.55747 
L 190.819955 219.499187 
L 192.494605 219.54418 
L 193.114727 219.49262 
L 193.862595 219.864482 
L 193.925178 220.350721 
L 193.559218 220.724108 
L 193.082634 220.900911 
L 192.129467 220.88938 
L 190.884649 220.968146 
L 190.357678 220.221646 
L 190.376911 219.55747 
" clip-path="url(#p3fe9fa0946)" style="fill: #f00000"/>
    <path d="M 188.365853 272.409853 
L 188.996334 270.884956 
L 190.107855 269.754281 
L 190.834262 269.07783 
L 191.295445 269.74658 
L 191.451609 270.86889 
L 190.968771 271.706704 
L 191.737434 272.398516 
L 191.895045 273.017309 
L 191.631383 274.101389 
L 191.582286 275.082819 
L 190.838093 275.876813 
L 190.446061 276.053577 
L 190.180875 275.357934 
L 189.54672 274.227962 
L 188.968033 273.417512 
L 188.396109 273.304698 
L 188.365853 272.409853 
" clip-path="url(#p3fe9fa0946)" style="fill: #f00000"/>
    <path d="M 186.892555 278.553493 
L 188.009353 278.252032 
L 188.232869 278.503966 
L 188.105084 278.928521 
L 187.61349 279.13601 
L 186.93704 279.270519 
L 186.504549 279.069167 
L 186.892555 278.553493 
" clip-path="url(#p3fe9fa0946)" style="fill: #f00000"/>
    <path d="M 180.845232 89.430633 
L 181.202709 89.061039 
L 181.752313 89.176315 
L 181.956011 89.652899 
L 181.783077 90.029569 
L 181.387214 90.263991 
L 180.864504 89.998805 
L 180.845232 89.430633 
" clip-path="url(#p3fe9fa0946)" style="fill: #f00000"/>
    <path d="M 173.829418 76.397791 
L 174.18971 76.211958 
L 174.603633 76.328407 
L 174.9495 76.783217 
L 174.53245 77.138505 
L 173.987771 77.16278 
L 173.715198 76.699409 
L 173.829418 76.397791 
" clip-path="url(#p3fe9fa0946)" style="fill: #f00000"/>
    <path d="M 170.256876 307.244298 
L 171.913232 305.536265 
L 173.550746 305.199076 
L 174.826523 304.3717 
L 175.54523 304.317912 
L 176.929715 304.658424 
L 176.728989 305.26721 
L 176.690368 305.84144 
L 176.164023 306.174252 
L 174.969201 306.269357 
L 174.617431 306.93627 
L 173.831842 307.582269 
L 172.255308 307.8 
L 171.973782 307.139185 
L 171.57358 307.01789 
L 170.948298 307.478759 
L 170.412845 307.53157 
L 170.256876 307.244298 
" clip-path="url(#p3fe9fa0946)" style="fill: #f00000"/>
    <path d="M 161.106676 56.017496 
L 161.431865 55.8 
L 161.849931 55.973989 
L 161.942848 56.365474 
L 161.524742 56.713492 
L 161.17094 56.476724 
L 161.106676 56.017496 
" clip-path="url(#p3fe9fa0946)" style="fill: #f00000"/>
   </g>
   <g id="text_1">
    <!-- Commonwealth of the Northern Mariana Islands -->
    <g transform="translate(40.457813 37.2) scale(0.12 -0.12)">
     <defs>
      <path id="DejaVuSans-43" d="M 4122 4306 
L 4122 3641 
Q 3803 3938 3442 4084 
Q 3081 4231 2675 4231 
Q 1875 4231 1450 3742 
Q 1025 3253 1025 2328 
Q 1025 1406 1450 917 
Q 1875 428 2675 428 
Q 3081 428 3442 575 
Q 3803 722 4122 1019 
L 4122 359 
Q 3791 134 3420 21 
Q 3050 -91 2638 -91 
Q 1578 -91 968 557 
Q 359 1206 359 2328 
Q 359 3453 968 4101 
Q 1578 4750 2638 4750 
Q 3056 4750 3426 4639 
Q 3797 4528 4122 4306 
z
" transform="scale(0.015625)"/>
      <path id="DejaVuSans-6f" d="M 1959 3097 
Q 1497 3097 1228 2736 
Q 959 2375 959 1747 
Q 959 1119 1226 758 
Q 1494 397 1959 397 
Q 2419 397 2687 759 
Q 2956 1122 2956 1747 
Q 2956 2369 2687 2733 
Q 2419 3097 1959 3097 
z
M 1959 3584 
Q 2709 3584 3137 3096 
Q 3566 2609 3566 1747 
Q 3566 888 3137 398 
Q 2709 -91 1959 -91 
Q 1206 -91 779 398 
Q 353 888 353 1747 
Q 353 2609 779 3096 
Q 1206 3584 1959 3584 
z
" transform="scale(0.015625)"/>
      <path id="DejaVuSans-6d" d="M 3328 2828 
Q 3544 3216 3844 3400 
Q 4144 3584 4550 3584 
Q 5097 3584 5394 3201 
Q 5691 2819 5691 2113 
L 5691 0 
L 5113 0 
L 5113 2094 
Q 5113 2597 4934 2840 
Q 4756 3084 4391 3084 
Q 3944 3084 3684 2787 
Q 3425 2491 3425 1978 
L 3425 0 
L 2847 0 
L 2847 2094 
Q 2847 2600 2669 2842 
Q 2491 3084 2119 3084 
Q 1678 3084 1418 2786 
Q 1159 2488 1159 1978 
L 1159 0 
L 581 0 
L 581 3500 
L 1159 3500 
L 1159 2956 
Q 1356 3278 1631 3431 
Q 1906 3584 2284 3584 
Q 2666 3584 2933 3390 
Q 3200 3197 3328 2828 
z
" transform="scale(0.015625)"/>
      <path id="DejaVuSans-6e" d="M 3513 2113 
L 3513 0 
L 2938 0 
L 2938 2094 
Q 2938 2591 2744 2837 
Q 2550 3084 2163 3084 
Q 1697 3084 1428 2787 
Q 1159 2491 1159 1978 
L 1159 0 
L 581 0 
L 581 3500 
L 1159 3500 
L 1159 2956 
Q 1366 3272 1645 3428 
Q 1925 3584 2291 3584 
Q 2894 3584 3203 3211 
Q 3513 2838 3513 2113 
z
" transform="scale(0.015625)"/>
      <path id="DejaVuSans-77" d="M 269 3500 
L 844 3500 
L 1563 769 
L 2278 3500 
L 2956 3500 
L 3675 769 
L 4391 3500 
L 4966 3500 
L 4050 0 
L 3372 0 
L 2619 2869 
L 1863 0 
L 1184 0 
L 269 3500 
z
" transform="scale(0.015625)"/>
      <path id="DejaVuSans-65" d="M 3597 1894 
L 3597 1613 
L 953 1613 
Q 991 1019 1311 708 
Q 1631 397 2203 397 
Q 2534 397 2845 478 
Q 3156 559 3463 722 
L 3463 178 
Q 3153 47 2828 -22 
Q 2503 -91 2169 -91 
Q 1331 -91 842 396 
Q 353 884 353 1716 
Q 353 2575 817 3079 
Q 1281 3584 2069 3584 
Q 2775 3584 3186 3129 
Q 3597 2675 3597 1894 
z
M 3022 2063 
Q 3016 2534 2758 2815 
Q 2500 3097 2075 3097 
Q 1594 3097 1305 2825 
Q 1016 2553 972 2059 
L 3022 2063 
z
" transform="scale(0.015625)"/>
      <path id="DejaVuSans-61" d="M 2194 1759 
Q 1497 1759 1228 1600 
Q 959 1441 959 1056 
Q 959 750 1161 570 
Q 1363 391 1709 391 
Q 2188 391 2477 730 
Q 2766 1069 2766 1631 
L 2766 1759 
L 2194 1759 
z
M 3341 1997 
L 3341 0 
L 2766 0 
L 2766 531 
Q 2569 213 2275 61 
Q 1981 -91 1556 -91 
Q 1019 -91 701 211 
Q 384 513 384 1019 
Q 384 1609 779 1909 
Q 1175 2209 1959 2209 
L 2766 2209 
L 2766 2266 
Q 2766 2663 2505 2880 
Q 2244 3097 1772 3097 
Q 1472 3097 1187 3025 
Q 903 2953 641 2809 
L 641 3341 
Q 956 3463 1253 3523 
Q 1550 3584 1831 3584 
Q 2591 3584 2966 3190 
Q 3341 2797 3341 1997 
z
" transform="scale(0.015625)"/>
      <path id="DejaVuSans-6c" d="M 603 4863 
L 1178 4863 
L 1178 0 
L 603 0 
L 603 4863 
z
" transform="scale(0.015625)"/>
      <path id="DejaVuSans-74" d="M 1172 4494 
L 1172 3500 
L 2356 3500 
L 2356 3053 
L 1172 3053 
L 1172 1153 
Q 1172 725 1289 603 
Q 1406 481 1766 481 
L 2356 481 
L 2356 0 
L 1766 0 
Q 1100 0 847 248 
Q 594 497 594 1153 
L 594 3053 
L 172 3053 
L 172 3500 
L 594 3500 
L 594 4494 
L 1172 4494 
z
" transform="scale(0.015625)"/>
      <path id="DejaVuSans-68" d="M 3513 2113 
L 3513 0 
L 2938 0 
L 2938 2094 
Q 2938 2591 2744 2837 
Q 2550 3084 2163 3084 
Q 1697 3084 1428 2787 
Q 1159 2491 1159 1978 
L 1159 0 
L 581 0 
L 581 4863 
L 1159 4863 
L 1159 2956 
Q 1366 3272 1645 3428 
Q 1925 3584 2291 3584 
Q 2894 3584 3203 3211 
Q 3513 2838 3513 2113 
z
" transform="scale(0.015625)"/>
      <path id="DejaVuSans-20" transform="scale(0.015625)"/>
      <path id="DejaVuSans-66" d="M 2375 4863 
L 2375 4384 
L 1825 4384 
Q 1516 4384 1395 4259 
Q 1275 4134 1275 3809 
L 1275 3500 
L 2222 3500 
L 2222 3053 
L 1275 3053 
L 1275 0 
L 697 0 
L 697 3053 
L 147 3053 
L 147 3500 
L 697 3500 
L 697 3744 
Q 697 4328 969 4595 
Q 1241 4863 1831 4863 
L 2375 4863 
z
" transform="scale(0.015625)"/>
      <path id="DejaVuSans-4e" d="M 628 4666 
L 1478 4666 
L 3547 763 
L 3547 4666 
L 4159 4666 
L 4159 0 
L 3309 0 
L 1241 3903 
L 1241 0 
L 628 0 
L 628 4666 
z
" transform="scale(0.015625)"/>
      <path id="DejaVuSans-72" d="M 2631 2963 
Q 2534 3019 2420 3045 
Q 2306 3072 2169 3072 
Q 1681 3072 1420 2755 
Q 1159 2438 1159 1844 
L 1159 0 
L 581 0 
L 581 3500 
L 1159 3500 
L 1159 2956 
Q 1341 3275 1631 3429 
Q 1922 3584 2338 3584 
Q 2397 3584 2469 3576 
Q 2541 3569 2628 3553 
L 2631 2963 
z
" transform="scale(0.015625)"/>
      <path id="DejaVuSans-4d" d="M 628 4666 
L 1569 4666 
L 2759 1491 
L 3956 4666 
L 4897 4666 
L 4897 0 
L 4281 0 
L 4281 4097 
L 3078 897 
L 2444 897 
L 1241 4097 
L 1241 0 
L 628 0 
L 628 4666 
z
" transform="scale(0.015625)"/>
      <path id="DejaVuSans-69" d="M 603 3500 
L 1178 3500 
L 1178 0 
L 603 0 
L 603 3500 
z
M 603 4863 
L 1178 4863 
L 1178 4134 
L 603 4134 
L 603 4863 
z
" transform="scale(0.015625)"/>
      <path id="DejaVuSans-49" d="M 628 4666 
L 1259 4666 
L 1259 0 
L 628 0 
L 628 4666 
z
" transform="scale(0.015625)"/>
      <path id="DejaVuSans-73" d="M 2834 3397 
L 2834 2853 
Q 2591 2978 2328 3040 
Q 2066 3103 1784 3103 
Q 1356 3103 1142 2972 
Q 928 2841 928 2578 
Q 928 2378 1081 2264 
Q 1234 2150 1697 2047 
L 1894 2003 
Q 2506 1872 2764 1633 
Q 3022 1394 3022 966 
Q 3022 478 2636 193 
Q 2250 -91 1575 -91 
Q 1294 -91 989 -36 
Q 684 19 347 128 
L 347 722 
Q 666 556 975 473 
Q 1284 391 1588 391 
Q 1994 391 2212 530 
Q 2431 669 2431 922 
Q 2431 1156 2273 1281 
Q 2116 1406 1581 1522 
L 1381 1569 
Q 847 1681 609 1914 
Q 372 2147 372 2553 
Q 372 3047 722 3315 
Q 1072 3584 1716 3584 
Q 2034 3584 2315 3537 
Q 2597 3491 2834 3397 
z
" transform="scale(0.015625)"/>
      <path id="DejaVuSans-64" d="M 2906 2969 
L 2906 4863 
L 3481 4863 
L 3481 0 
L 2906 0 
L 2906 525 
Q 2725 213 2448 61 
Q 2172 -91 1784 -91 
Q 1150 -91 751 415 
Q 353 922 353 1747 
Q 353 2572 751 3078 
Q 1150 3584 1784 3584 
Q 2172 3584 2448 3432 
Q 2725 3281 2906 2969 
z
M 947 1747 
Q 947 1113 1208 752 
Q 1469 391 1925 391 
Q 2381 391 2643 752 
Q 2906 1113 2906 1747 
Q 2906 2381 2643 2742 
Q 2381 3103 1925 3103 
Q 1469 3103 1208 2742 
Q 947 2381 947 1747 
z
" transform="scale(0.015625)"/>
     </defs>
     <use xlink:href="#DejaVuSans-43"/>
     <use xlink:href="#DejaVuSans-6f" x="69.824219"/>
     <use xlink:href="#DejaVuSans-6d" x="131.005859"/>
     <use xlink:href="#DejaVuSans-6d" x="228.417969"/>
     <use xlink:href="#DejaVuSans-6f" x="325.830078"/>
     <use xlink:href="#DejaVuSans-6e" x="387.011719"/>
     <use xlink:href="#DejaVuSans-77" x="450.390625"/>
     <use xlink:href="#DejaVuSans-65" x="532.177734"/>
     <use xlink:href="#DejaVuSans-61" x="593.701172"/>
     <use xlink:href="#DejaVuSans-6c" x="654.980469"/>
     <use xlink:href="#DejaVuSans-74" x="682.763672"/>
     <use xlink:href="#DejaVuSans-68" x="721.972656"/>
     <use xlink:href="#DejaVuSans-20" x="785.351562"/>
     <use xlink:href="#DejaVuSans-6f" x="817.138672"/>
     <use xlink:href="#DejaVuSans-66" x="878.320312"/>
     <use xlink:href="#DejaVuSans-20" x="913.525391"/>
     <use xlink:href="#DejaVuSans-74" x="945.3125"/>
     <use xlink:href="#DejaVuSans-68" x="984.521484"/>
     <use xlink:href="#DejaVuSans-65" x="1047.900391"/>
     <use xlink:href="#DejaVuSans-20" x="1109.423828"/>
     <use xlink:href="#DejaVuSans-4e" x="1141.210938"/>
     <use xlink:href="#DejaVuSans-6f" x="1216.015625"/>
     <use xlink:href="#DejaVuSans-72" x="1277.197266"/>
     <use xlink:href="#DejaVuSans-74" x="1318.310547"/>
     <use xlink:href="#DejaVuSans-68" x="1357.519531"/>
     <use xlink:href="#DejaVuSans-65" x="1420.898438"/>
     <use xlink:href="#DejaVuSans-72" x="1482.421875"/>
     <use xlink:href="#DejaVuSans-6e" x="1521.785156"/>
     <use xlink:href="#DejaVuSans-20" x="1585.164062"/>
     <use xlink:href="#DejaVuSans-4d" x="1616.951172"/>
     <use xlink:href="#DejaVuSans-61" x="1703.230469"/>
     <use xlink:href="#DejaVuSans-72" x="1764.509766"/>
     <use xlink:href="#DejaVuSans-69" x="1805.623047"/>
     <use xlink:href="#DejaVuSans-61" x="1833.40625"/>
     <use xlink:href="#DejaVuSans-6e" x="1894.685547"/>
     <use xlink:href="#DejaVuSans-61" x="1958.064453"/>
     <use xlink:href="#DejaVuSans-20" x="2019.34375"/>
     <use xlink:href="#DejaVuSans-49" x="2051.130859"/>
     <use xlink:href="#DejaVuSans-73" x="2080.623047"/>
     <use xlink:href="#DejaVuSans-6c" x="2132.722656"/>
     <use xlink:href="#DejaVuSans-61" x="2160.505859"/>
     <use xlink:href="#DejaVuSans-6e" x="2221.785156"/>
     <use xlink:href="#DejaVuSans-64" x="2285.164062"/>
     <use xlink:href="#DejaVuSans-73" x="2348.640625"/>
    </g>
   </g>
  </g>
 </g>
 <defs>
  <clipPath id="p3fe9fa0946">
   <rect x="158.767344" y="43.2" width="51.465313" height="277.2"/>
  </clipPath>
 </defs>
</svg>
