<?xml version="1.0" encoding="utf-8" standalone="no"?>
<!DOCTYPE svg PUBLIC "-//W3C//DTD SVG 1.1//EN"
  "http://www.w3.org/Graphics/SVG/1.1/DTD/svg11.dtd">
<svg xmlns:xlink="http://www.w3.org/1999/xlink" width="360pt" height="360pt" viewBox="0 0 360 360" xmlns="http://www.w3.org/2000/svg" version="1.1">
 <metadata>
  <rdf:RDF xmlns:dc="http://purl.org/dc/elements/1.1/" xmlns:cc="http://creativecommons.org/ns#" xmlns:rdf="http://www.w3.org/1999/02/22-rdf-syntax-ns#">
   <cc:Work>
    <dc:type rdf:resource="http://purl.org/dc/dcmitype/StillImage"/>
    <dc:date>2023-06-19T15:20:28.400152</dc:date>
    <dc:format>image/svg+xml</dc:format>
    <dc:creator>
     <cc:Agent>
      <dc:title>Matplotlib v3.7.1, https://matplotlib.org/</dc:title>
     </cc:Agent>
    </dc:creator>
   </cc:Work>
  </rdf:RDF>
 </metadata>
 <defs>
  <style type="text/css">*{stroke-linejoin: round; stroke-linecap: butt}</style>
 </defs>
 <g id="figure_1">
  <g id="patch_1">
   <path d="M 0 360 
L 360 360 
L 360 0 
L 0 0 
z
" style="fill: #ffffff"/>
  </g>
  <g id="axes_1">
   <g id="PatchCollection_1">
    <path d="M 57.681818 236.320721 
L 61.841102 234.394627 
L 69.195804 230.98879 
L 70.178445 230.541054 
L 72.49971 229.49636 
L 78.962232 226.587879 
L 78.98606 226.576864 
L 80.307131 225.966153 
L 85.538964 223.547558 
L 86.209393 223.236522 
L 87.980352 222.446475 
L 89.42115 221.803716 
L 89.70895 221.675325 
L 87.115644 218.479834 
L 85.046663 215.930421 
L 80.789248 210.872412 
L 81.054805 209.281157 
L 80.970512 208.192136 
L 81.049055 206.837427 
L 81.536585 202.234544 
L 81.603825 201.599722 
L 81.774111 200.260564 
L 81.775436 200.243304 
L 82.068942 196.422002 
L 82.525827 192.774376 
L 82.552487 192.514961 
L 82.617831 191.834861 
L 82.735711 190.49701 
L 82.746297 190.271051 
L 82.759497 189.986675 
L 82.763156 189.924859 
L 82.774656 189.735362 
L 82.836542 188.907197 
L 82.957619 187.286927 
L 82.970688 187.221583 
L 82.970688 187.154017 
L 82.98624 187.003857 
L 82.998655 186.885192 
L 83.009894 186.790444 
L 83.519838 180.582643 
L 84.699426 168.483699 
L 84.699776 168.476385 
L 84.83325 165.683844 
L 85.065796 162.346473 
L 85.255633 159.622022 
L 85.891299 152.648522 
L 86.009227 150.460949 
L 86.016759 150.321234 
L 86.794743 141.823392 
L 86.803107 141.75648 
L 87.189943 137.256638 
L 87.670874 132.840567 
L 87.903106 128.936662 
L 88.367309 124.213082 
L 88.80642 118.780653 
L 89.107133 112.305596 
L 96.229878 112.181573 
L 114.316022 112.652441 
L 114.488922 112.658192 
L 122.348199 112.910916 
L 122.596922 112.918914 
L 122.761328 112.9278 
L 136.159504 113.308472 
L 145.829017 113.583204 
L 145.833471 113.58333 
L 151.647731 113.714112 
L 152.852059 113.741201 
L 155.540354 113.759867 
L 170.60155 113.86444 
L 170.613912 113.864548 
L 170.616449 113.86457 
L 172.769791 113.971081 
L 177.161032 114.023356 
L 176.742831 119.10698 
L 182.229314 118.514464 
L 183.277481 118.401266 
L 183.355894 117.787034 
L 183.73149 117.519516 
L 183.735019 117.120526 
L 183.996395 116.885288 
L 184.192426 116.571637 
L 183.981235 116.41638 
L 183.856297 116.208325 
L 183.877077 115.97936 
L 184.085262 115.937671 
L 184.399828 116.065875 
L 184.489218 116.055159 
L 184.937347 115.47386 
L 185.237929 114.846558 
L 185.002691 114.598252 
L 184.479939 114.441426 
L 184.702109 114.062432 
L 192.531744 113.984934 
L 199.431144 114.559045 
L 204.023909 114.767801 
L 204.031485 114.768146 
L 204.159159 115.508658 
L 204.162173 115.526135 
L 206.344659 115.565341 
L 207.377223 115.565341 
L 208.566612 114.853616 
L 211.229088 114.608384 
L 214.460631 114.310739 
L 216.934152 114.320986 
L 223.798404 114.349422 
L 231.541214 114.46551 
L 235.519561 114.525157 
L 242.033532 114.622821 
L 248.10945 114.648068 
L 250.871293 114.659544 
L 256.679348 114.730005 
L 265.744608 114.83998 
L 265.748267 114.840024 
L 270.128689 115.01587 
L 270.448027 115.028689 
L 275.182749 115.218757 
L 285.137237 115.279788 
L 288.313825 115.362439 
L 297.75462 115.608076 
L 298.647509 115.615992 
L 309.533509 115.712496 
L 309.717518 117.738679 
L 309.890026 127.23576 
L 309.989748 129.73595 
L 310.312176 137.819702 
L 310.339545 138.505897 
L 310.381542 139.558834 
L 310.381542 139.684294 
L 310.561238 143.797169 
L 310.563721 144.015287 
L 310.760921 148.263232 
L 310.786544 148.815188 
L 310.965572 154.705895 
L 310.967416 154.766579 
L 311.317542 163.733932 
L 311.318182 163.750318 
L 311.234196 165.851105 
L 311.205634 166.565547 
L 311.009497 171.471614 
L 311.009148 171.479173 
L 310.586108 180.634003 
L 310.458999 183.384707 
L 309.922476 194.99536 
L 309.92126 195.021683 
L 307.215108 194.643995 
L 304.436817 195.62154 
L 304.055992 195.917417 
L 303.937197 196.443435 
L 304.11245 197.811867 
L 305.247865 199.227869 
L 305.331992 199.854223 
L 305.487024 201.00849 
L 304.686561 201.971659 
L 304.9201 203.225478 
L 305.750752 204.452767 
L 304.519934 205.82525 
L 301.710147 207.627957 
L 301.833908 207.346717 
L 300.700976 206.230513 
L 298.33984 205.515781 
L 294.365886 206.063755 
L 293.662524 205.763042 
L 293.507005 205.685283 
L 291.807803 205.313346 
L 290.58352 205.334256 
L 289.133539 206.370348 
L 287.276727 207.068875 
L 286.166926 206.355189 
L 286.058688 206.360153 
L 285.807927 206.371655 
L 285.029158 207.584961 
L 280.619099 208.073602 
L 272.718522 207.720665 
L 272.439482 207.708199 
L 271.138354 208.423061 
L 270.435646 209.35957 
L 270.004474 209.643425 
L 268.867392 210.392004 
L 265.939855 210.352797 
L 262.364368 208.933005 
L 260.75142 207.97441 
L 260.288385 207.361203 
L 260.267875 207.33404 
L 259.418404 207.138008 
L 258.516659 207.242559 
L 257.157506 208.222717 
L 256.948405 208.549437 
L 256.817718 210.392134 
L 255.654335 211.402612 
L 254.040079 210.398669 
L 252.699876 210.220149 
L 251.04929 210.341035 
L 250.964425 210.360763 
L 250.561301 210.454472 
L 250.741651 211.007804 
L 250.636055 211.581393 
L 249.307744 212.505486 
L 241.953551 213.177744 
L 240.668236 213.089138 
L 239.845034 212.506793 
L 238.856226 212.873515 
L 237.91752 213.221655 
L 237.992665 214.234224 
L 232.953214 215.266658 
L 232.647134 214.851056 
L 231.37725 213.126776 
L 230.430809 213.097241 
L 224.419824 213.033596 
L 221.725827 214.181296 
L 220.006759 214.079621 
L 219.936919 214.104926 
L 218.19791 214.73502 
L 217.270027 215.488696 
L 215.698375 215.337883 
L 215.351791 214.769783 
L 214.292698 214.923864 
L 213.792033 215.150084 
L 213.334756 215.997333 
L 213.200119 216.070601 
L 211.963972 216.743299 
L 208.840403 214.443325 
L 207.246012 213.972849 
L 205.324902 214.364912 
L 202.815566 213.933642 
L 199.639722 214.587081 
L 198.032262 214.730969 
L 197.917659 214.688947 
L 196.856072 214.299699 
L 195.614408 214.587212 
L 193.967742 215.815677 
L 193.889329 216.63901 
L 193.248959 217.240174 
L 192.686348 217.465872 
L 190.614816 217.529909 
L 190.212428 216.938285 
L 190.534704 216.675472 
L 190.371083 216.263936 
L 189.06695 215.614287 
L 184.113622 217.953991 
L 184.884287 214.59819 
L 184.487911 214.59819 
L 180.741746 214.874856 
L 180.288823 215.049272 
L 176.481978 216.515249 
L 176.398991 216.277789 
L 175.417395 215.925716 
L 172.688112 215.934211 
L 172.368841 216.083979 
L 171.866347 217.103867 
L 171.119192 217.354285 
L 170.913764 217.423137 
L 168.314776 217.730907 
L 167.480596 217.494754 
L 166.594794 217.800694 
L 166.162217 217.378572 
L 165.795176 217.24811 
L 165.387892 217.103344 
L 165.329997 216.98285 
L 165.463952 216.442979 
L 166.548661 215.99864 
L 166.66628 215.515095 
L 166.189139 214.749396 
L 165.145597 214.178421 
L 165.45023 213.551642 
L 165.083651 212.535022 
L 164.884324 210.919709 
L 164.865925 210.770606 
L 164.151586 210.700557 
L 163.271273 211.442472 
L 162.303399 212.626111 
L 160.822576 212.88435 
L 161.044042 213.266122 
L 161.075308 213.320018 
L 161.575468 214.182211 
L 162.175717 215.014822 
L 161.487487 215.498433 
L 161.2034 215.698058 
L 158.414839 216.426859 
L 158.068602 216.517349 
L 157.753112 216.599804 
L 154.590468 218.965253 
L 153.06129 220.376681 
L 151.806687 222.010278 
L 150.839598 222.781336 
L 150.15989 222.807474 
L 150.148104 222.717112 
L 150.120684 222.506892 
L 149.84624 222.402341 
L 146.833442 222.080702 
L 146.173782 222.010278 
L 145.036799 222.467685 
L 142.409974 224.125068 
L 139.006472 226.976806 
L 138.680537 227.428463 
L 138.37146 228.610011 
L 138.423736 228.962868 
L 138.632836 229.391393 
L 138.279979 229.773132 
L 135.770643 230.295883 
L 131.311941 228.757994 
L 130.566525 228.500887 
L 130.484583 227.924162 
L 129.560229 227.695197 
L 128.659361 228.006601 
L 126.308455 228.819242 
L 124.006118 230.210576 
L 122.957751 230.844119 
L 122.102244 230.66778 
L 122.07391 230.66194 
L 122.046158 230.699803 
L 120.388038 232.962045 
L 118.506133 234.125166 
L 115.317221 232.766013 
L 114.062618 233.053526 
L 113.796386 233.214973 
L 112.090062 234.249709 
L 112.036827 234.281991 
L 109.579897 235.105324 
L 107.682281 235.377688 
L 104.13858 235.886315 
L 106.499455 238.288487 
L 102.637798 241.494285 
L 102.187281 241.868286 
L 97.621311 243.264685 
L 96.355298 242.36813 
L 95.9357 242.070983 
L 94.396119 242.030735 
L 93.936046 242.018708 
L 91.600002 242.770032 
L 90.407476 244.77609 
L 88.321307 243.184835 
L 88.010083 243.309386 
L 85.240212 244.417874 
L 85.258116 245.62556 
L 84.991085 246.087207 
L 84.487058 246.958576 
L 83.676794 247.33757 
L 83.37582 246.615912 
L 83.503894 245.719786 
L 83.164498 245.341576 
L 82.830983 245.308904 
L 82.286744 245.564382 
L 80.719591 246.30004 
L 80.539702 246.429521 
L 79.350767 247.285295 
L 78.605847 248.056353 
L 78.292196 249.271749 
L 76.475636 249.363231 
L 76.342334 248.103401 
L 74.942538 247.390107 
L 73.863971 247.513084 
L 68.698406 249.196735 
L 67.692502 250.103969 
L 66.887335 251.418427 
L 66.850757 251.375536 
L 66.582179 251.060604 
L 66.699667 250.33032 
L 66.621255 249.546194 
L 67.117999 248.474554 
L 67.235618 247.951803 
L 67.145674 247.810462 
L 67.144136 247.808046 
L 66.189985 246.80175 
L 65.17062 245.547148 
L 63.928956 244.0181 
L 62.988003 242.854979 
L 62.06012 241.731195 
L 60.506235 239.785572 
L 59.106315 238.032731 
L 58.361395 237.248604 
L 57.681818 236.320721 
" clip-path="url(#pc838062b0e)" style="fill: #f7db00"/>
   </g>
   <g id="PathCollection_1">
    <defs>
     <path id="m820114349a" d="M 0 1.581139 
C 0.419323 1.581139 0.821528 1.41454 1.118034 1.118034 
C 1.41454 0.821528 1.581139 0.419323 1.581139 0 
C 1.581139 -0.419323 1.41454 -0.821528 1.118034 -1.118034 
C 0.821528 -1.41454 0.419323 -1.581139 0 -1.581139 
C -0.419323 -1.581139 -0.821528 -1.41454 -1.118034 -1.118034 
C -1.41454 -0.821528 -1.581139 -0.419323 -1.581139 0 
C -1.581139 0.419323 -1.41454 0.821528 -1.118034 1.118034 
C -0.821528 1.41454 -0.419323 1.581139 0 1.581139 
z
" style="stroke: #000000"/>
    </defs>
    <g clip-path="url(#pc838062b0e)">
     <use xlink:href="#m820114349a" x="194.325957" y="149.628981" style="stroke: #000000"/>
    </g>
   </g>
   <g id="text_1">
    <!-- Hartford&lt;br&gt; -->
    <g transform="translate(197.325957 146.628981) scale(0.1 -0.1)">
     <defs>
      <path id="DejaVuSans-48" d="M 628 4666 
L 1259 4666 
L 1259 2753 
L 3553 2753 
L 3553 4666 
L 4184 4666 
L 4184 0 
L 3553 0 
L 3553 2222 
L 1259 2222 
L 1259 0 
L 628 0 
L 628 4666 
z
" transform="scale(0.015625)"/>
      <path id="DejaVuSans-61" d="M 2194 1759 
Q 1497 1759 1228 1600 
Q 959 1441 959 1056 
Q 959 750 1161 570 
Q 1363 391 1709 391 
Q 2188 391 2477 730 
Q 2766 1069 2766 1631 
L 2766 1759 
L 2194 1759 
z
M 3341 1997 
L 3341 0 
L 2766 0 
L 2766 531 
Q 2569 213 2275 61 
Q 1981 -91 1556 -91 
Q 1019 -91 701 211 
Q 384 513 384 1019 
Q 384 1609 779 1909 
Q 1175 2209 1959 2209 
L 2766 2209 
L 2766 2266 
Q 2766 2663 2505 2880 
Q 2244 3097 1772 3097 
Q 1472 3097 1187 3025 
Q 903 2953 641 2809 
L 641 3341 
Q 956 3463 1253 3523 
Q 1550 3584 1831 3584 
Q 2591 3584 2966 3190 
Q 3341 2797 3341 1997 
z
" transform="scale(0.015625)"/>
      <path id="DejaVuSans-72" d="M 2631 2963 
Q 2534 3019 2420 3045 
Q 2306 3072 2169 3072 
Q 1681 3072 1420 2755 
Q 1159 2438 1159 1844 
L 1159 0 
L 581 0 
L 581 3500 
L 1159 3500 
L 1159 2956 
Q 1341 3275 1631 3429 
Q 1922 3584 2338 3584 
Q 2397 3584 2469 3576 
Q 2541 3569 2628 3553 
L 2631 2963 
z
" transform="scale(0.015625)"/>
      <path id="DejaVuSans-74" d="M 1172 4494 
L 1172 3500 
L 2356 3500 
L 2356 3053 
L 1172 3053 
L 1172 1153 
Q 1172 725 1289 603 
Q 1406 481 1766 481 
L 2356 481 
L 2356 0 
L 1766 0 
Q 1100 0 847 248 
Q 594 497 594 1153 
L 594 3053 
L 172 3053 
L 172 3500 
L 594 3500 
L 594 4494 
L 1172 4494 
z
" transform="scale(0.015625)"/>
      <path id="DejaVuSans-66" d="M 2375 4863 
L 2375 4384 
L 1825 4384 
Q 1516 4384 1395 4259 
Q 1275 4134 1275 3809 
L 1275 3500 
L 2222 3500 
L 2222 3053 
L 1275 3053 
L 1275 0 
L 697 0 
L 697 3053 
L 147 3053 
L 147 3500 
L 697 3500 
L 697 3744 
Q 697 4328 969 4595 
Q 1241 4863 1831 4863 
L 2375 4863 
z
" transform="scale(0.015625)"/>
      <path id="DejaVuSans-6f" d="M 1959 3097 
Q 1497 3097 1228 2736 
Q 959 2375 959 1747 
Q 959 1119 1226 758 
Q 1494 397 1959 397 
Q 2419 397 2687 759 
Q 2956 1122 2956 1747 
Q 2956 2369 2687 2733 
Q 2419 3097 1959 3097 
z
M 1959 3584 
Q 2709 3584 3137 3096 
Q 3566 2609 3566 1747 
Q 3566 888 3137 398 
Q 2709 -91 1959 -91 
Q 1206 -91 779 398 
Q 353 888 353 1747 
Q 353 2609 779 3096 
Q 1206 3584 1959 3584 
z
" transform="scale(0.015625)"/>
      <path id="DejaVuSans-64" d="M 2906 2969 
L 2906 4863 
L 3481 4863 
L 3481 0 
L 2906 0 
L 2906 525 
Q 2725 213 2448 61 
Q 2172 -91 1784 -91 
Q 1150 -91 751 415 
Q 353 922 353 1747 
Q 353 2572 751 3078 
Q 1150 3584 1784 3584 
Q 2172 3584 2448 3432 
Q 2725 3281 2906 2969 
z
M 947 1747 
Q 947 1113 1208 752 
Q 1469 391 1925 391 
Q 2381 391 2643 752 
Q 2906 1113 2906 1747 
Q 2906 2381 2643 2742 
Q 2381 3103 1925 3103 
Q 1469 3103 1208 2742 
Q 947 2381 947 1747 
z
" transform="scale(0.015625)"/>
      <path id="DejaVuSans-3c" d="M 4684 3150 
L 1459 2003 
L 4684 863 
L 4684 294 
L 678 1747 
L 678 2266 
L 4684 3719 
L 4684 3150 
z
" transform="scale(0.015625)"/>
      <path id="DejaVuSans-62" d="M 3116 1747 
Q 3116 2381 2855 2742 
Q 2594 3103 2138 3103 
Q 1681 3103 1420 2742 
Q 1159 2381 1159 1747 
Q 1159 1113 1420 752 
Q 1681 391 2138 391 
Q 2594 391 2855 752 
Q 3116 1113 3116 1747 
z
M 1159 2969 
Q 1341 3281 1617 3432 
Q 1894 3584 2278 3584 
Q 2916 3584 3314 3078 
Q 3713 2572 3713 1747 
Q 3713 922 3314 415 
Q 2916 -91 2278 -91 
Q 1894 -91 1617 61 
Q 1341 213 1159 525 
L 1159 0 
L 581 0 
L 581 4863 
L 1159 4863 
L 1159 2969 
z
" transform="scale(0.015625)"/>
      <path id="DejaVuSans-3e" d="M 678 3150 
L 678 3719 
L 4684 2266 
L 4684 1747 
L 678 294 
L 678 863 
L 3897 2003 
L 678 3150 
z
" transform="scale(0.015625)"/>
     </defs>
     <use xlink:href="#DejaVuSans-48"/>
     <use xlink:href="#DejaVuSans-61" x="75.195312"/>
     <use xlink:href="#DejaVuSans-72" x="136.474609"/>
     <use xlink:href="#DejaVuSans-74" x="177.587891"/>
     <use xlink:href="#DejaVuSans-66" x="216.796875"/>
     <use xlink:href="#DejaVuSans-6f" x="252.001953"/>
     <use xlink:href="#DejaVuSans-72" x="313.183594"/>
     <use xlink:href="#DejaVuSans-64" x="352.546875"/>
     <use xlink:href="#DejaVuSans-3c" x="416.023438"/>
     <use xlink:href="#DejaVuSans-62" x="499.8125"/>
     <use xlink:href="#DejaVuSans-72" x="563.289062"/>
     <use xlink:href="#DejaVuSans-3e" x="604.402344"/>
    </g>
   </g>
   <g id="text_2">
    <!-- Connecticut -->
    <g transform="translate(148.570312 99.219731) scale(0.12 -0.12)">
     <defs>
      <path id="DejaVuSans-43" d="M 4122 4306 
L 4122 3641 
Q 3803 3938 3442 4084 
Q 3081 4231 2675 4231 
Q 1875 4231 1450 3742 
Q 1025 3253 1025 2328 
Q 1025 1406 1450 917 
Q 1875 428 2675 428 
Q 3081 428 3442 575 
Q 3803 722 4122 1019 
L 4122 359 
Q 3791 134 3420 21 
Q 3050 -91 2638 -91 
Q 1578 -91 968 557 
Q 359 1206 359 2328 
Q 359 3453 968 4101 
Q 1578 4750 2638 4750 
Q 3056 4750 3426 4639 
Q 3797 4528 4122 4306 
z
" transform="scale(0.015625)"/>
      <path id="DejaVuSans-6e" d="M 3513 2113 
L 3513 0 
L 2938 0 
L 2938 2094 
Q 2938 2591 2744 2837 
Q 2550 3084 2163 3084 
Q 1697 3084 1428 2787 
Q 1159 2491 1159 1978 
L 1159 0 
L 581 0 
L 581 3500 
L 1159 3500 
L 1159 2956 
Q 1366 3272 1645 3428 
Q 1925 3584 2291 3584 
Q 2894 3584 3203 3211 
Q 3513 2838 3513 2113 
z
" transform="scale(0.015625)"/>
      <path id="DejaVuSans-65" d="M 3597 1894 
L 3597 1613 
L 953 1613 
Q 991 1019 1311 708 
Q 1631 397 2203 397 
Q 2534 397 2845 478 
Q 3156 559 3463 722 
L 3463 178 
Q 3153 47 2828 -22 
Q 2503 -91 2169 -91 
Q 1331 -91 842 396 
Q 353 884 353 1716 
Q 353 2575 817 3079 
Q 1281 3584 2069 3584 
Q 2775 3584 3186 3129 
Q 3597 2675 3597 1894 
z
M 3022 2063 
Q 3016 2534 2758 2815 
Q 2500 3097 2075 3097 
Q 1594 3097 1305 2825 
Q 1016 2553 972 2059 
L 3022 2063 
z
" transform="scale(0.015625)"/>
      <path id="DejaVuSans-63" d="M 3122 3366 
L 3122 2828 
Q 2878 2963 2633 3030 
Q 2388 3097 2138 3097 
Q 1578 3097 1268 2742 
Q 959 2388 959 1747 
Q 959 1106 1268 751 
Q 1578 397 2138 397 
Q 2388 397 2633 464 
Q 2878 531 3122 666 
L 3122 134 
Q 2881 22 2623 -34 
Q 2366 -91 2075 -91 
Q 1284 -91 818 406 
Q 353 903 353 1747 
Q 353 2603 823 3093 
Q 1294 3584 2113 3584 
Q 2378 3584 2631 3529 
Q 2884 3475 3122 3366 
z
" transform="scale(0.015625)"/>
      <path id="DejaVuSans-69" d="M 603 3500 
L 1178 3500 
L 1178 0 
L 603 0 
L 603 3500 
z
M 603 4863 
L 1178 4863 
L 1178 4134 
L 603 4134 
L 603 4863 
z
" transform="scale(0.015625)"/>
      <path id="DejaVuSans-75" d="M 544 1381 
L 544 3500 
L 1119 3500 
L 1119 1403 
Q 1119 906 1312 657 
Q 1506 409 1894 409 
Q 2359 409 2629 706 
Q 2900 1003 2900 1516 
L 2900 3500 
L 3475 3500 
L 3475 0 
L 2900 0 
L 2900 538 
Q 2691 219 2414 64 
Q 2138 -91 1772 -91 
Q 1169 -91 856 284 
Q 544 659 544 1381 
z
M 1991 3584 
L 1991 3584 
z
" transform="scale(0.015625)"/>
     </defs>
     <use xlink:href="#DejaVuSans-43"/>
     <use xlink:href="#DejaVuSans-6f" x="69.824219"/>
     <use xlink:href="#DejaVuSans-6e" x="131.005859"/>
     <use xlink:href="#DejaVuSans-6e" x="194.384766"/>
     <use xlink:href="#DejaVuSans-65" x="257.763672"/>
     <use xlink:href="#DejaVuSans-63" x="319.287109"/>
     <use xlink:href="#DejaVuSans-74" x="374.267578"/>
     <use xlink:href="#DejaVuSans-69" x="413.476562"/>
     <use xlink:href="#DejaVuSans-63" x="441.259766"/>
     <use xlink:href="#DejaVuSans-75" x="496.240234"/>
     <use xlink:href="#DejaVuSans-74" x="559.619141"/>
    </g>
   </g>
  </g>
 </g>
 <defs>
  <clipPath id="pc838062b0e">
   <rect x="45" y="105.219731" width="279" height="153.160539"/>
  </clipPath>
 </defs>
</svg>
