<?xml version="1.0" encoding="utf-8" standalone="no"?>
<!DOCTYPE svg PUBLIC "-//W3C//DTD SVG 1.1//EN"
  "http://www.w3.org/Graphics/SVG/1.1/DTD/svg11.dtd">
<svg xmlns:xlink="http://www.w3.org/1999/xlink" width="460.8pt" height="345.6pt" viewBox="0 0 460.8 345.6" xmlns="http://www.w3.org/2000/svg" version="1.1">
 <metadata>
  <rdf:RDF xmlns:dc="http://purl.org/dc/elements/1.1/" xmlns:cc="http://creativecommons.org/ns#" xmlns:rdf="http://www.w3.org/1999/02/22-rdf-syntax-ns#">
   <cc:Work>
    <dc:type rdf:resource="http://purl.org/dc/dcmitype/StillImage"/>
    <dc:date>2023-06-19T14:47:50.710405</dc:date>
    <dc:format>image/svg+xml</dc:format>
    <dc:creator>
     <cc:Agent>
      <dc:title>Matplotlib v3.7.1, https://matplotlib.org/</dc:title>
     </cc:Agent>
    </dc:creator>
   </cc:Work>
  </rdf:RDF>
 </metadata>
 <defs>
  <style type="text/css">*{stroke-linejoin: round; stroke-linecap: butt}</style>
 </defs>
 <g id="figure_1">
  <g id="patch_1">
   <path d="M 0 345.6 
L 460.8 345.6 
L 460.8 0 
L 0 0 
z
" style="fill: #ffffff"/>
  </g>
  <g id="axes_1">
   <g id="PatchCollection_1">
    <path d="M 73.832727 267.732172 
L 79.15661 264.43948 
L 88.570629 258.617138 
L 89.82841 257.851725 
L 92.799628 256.065803 
L 101.071658 251.0937 
L 101.102157 251.074869 
L 102.793127 250.030849 
L 109.489874 245.896217 
L 110.348023 245.364493 
L 112.61485 244.013893 
L 114.459072 242.915087 
L 114.827456 242.6956 
L 111.508024 237.232848 
L 108.859729 232.874581 
L 103.410237 224.227821 
L 103.750151 221.507543 
L 103.642255 219.645841 
L 103.74279 217.32994 
L 104.366829 209.461228 
L 104.452895 208.375987 
L 104.670862 206.086673 
L 104.672559 206.057166 
L 105.048246 199.524581 
L 105.633058 193.288897 
L 105.667184 192.845422 
L 105.750824 191.682779 
L 105.901711 189.395699 
L 105.91526 189.009418 
L 105.932156 188.523271 
L 105.93684 188.417596 
L 105.95156 188.093647 
L 106.030774 186.677883 
L 106.185753 183.908001 
L 106.202481 183.796295 
L 106.202481 183.68079 
L 106.222387 183.424089 
L 106.238279 183.221229 
L 106.252665 183.059255 
L 106.905393 172.446906 
L 108.415265 151.76354 
L 108.415713 151.751036 
L 108.58656 146.977136 
L 108.884219 141.271838 
L 109.127211 136.61434 
L 109.940862 124.693014 
L 110.091811 120.953318 
L 110.101451 120.714472 
L 111.097271 106.187255 
L 111.107977 106.072868 
L 111.603127 98.380306 
L 112.218719 90.830952 
L 112.515976 84.157154 
L 113.110156 76.082109 
L 113.672218 66.79527 
L 114.05713 55.726042 
L 123.174244 55.514023 
L 146.324508 56.31898 
L 146.54582 56.328811 
L 156.605695 56.760847 
L 156.924061 56.77452 
L 157.134499 56.789712 
L 174.284166 57.440477 
L 186.661141 57.910136 
L 186.666843 57.910352 
L 194.109095 58.133926 
L 195.650635 58.180235 
L 199.091653 58.212144 
L 218.369985 58.390914 
L 218.385807 58.391099 
L 218.389055 58.391138 
L 221.145333 58.573219 
L 226.76612 58.662585 
L 226.230823 67.353133 
L 233.253522 66.340215 
L 234.595176 66.146702 
L 234.695544 65.09666 
L 235.176308 64.639333 
L 235.180824 63.957253 
L 235.515385 63.555109 
L 235.766306 63.018918 
L 235.495981 62.753503 
L 235.336061 62.397829 
L 235.362658 62.006409 
L 235.629136 61.93514 
L 236.03178 62.154309 
L 236.146199 62.135989 
L 236.719804 61.142247 
L 237.104549 60.069864 
L 236.803444 59.645379 
L 236.134322 59.377283 
L 236.418699 58.729385 
L 246.440633 58.596901 
L 255.271865 59.578355 
L 261.150603 59.935227 
L 261.160301 59.935816 
L 261.323724 61.201735 
L 261.327581 61.231612 
L 264.121163 61.298636 
L 265.442845 61.298636 
L 266.965264 60.081928 
L 270.373233 59.662701 
L 274.509608 59.15387 
L 277.675715 59.171388 
L 286.461957 59.22 
L 296.372754 59.418455 
L 301.465038 59.520423 
L 309.80292 59.687381 
L 317.580096 59.730541 
L 321.115255 59.75016 
L 328.549565 59.870613 
L 340.153098 60.058617 
L 340.157782 60.058693 
L 345.764722 60.359304 
L 346.173475 60.381219 
L 352.233918 60.706145 
L 364.975664 60.810479 
L 369.041696 60.951771 
L 381.125913 61.371692 
L 382.268812 61.385224 
L 396.202892 61.5502 
L 396.438423 65.013997 
L 396.659233 81.249431 
L 396.786877 85.523551 
L 397.199585 99.342875 
L 397.234618 100.515938 
L 397.288374 102.315952 
L 397.288374 102.530429 
L 397.518385 109.561464 
L 397.521563 109.934341 
L 397.773979 117.196279 
L 397.806776 118.139859 
L 398.035932 128.210131 
L 398.038292 128.313871 
L 398.486454 143.643725 
L 398.487273 143.671738 
L 398.379771 147.263072 
L 398.343211 148.484422 
L 398.092157 156.871435 
L 398.091709 156.884357 
L 397.550218 172.534706 
L 397.387519 177.237086 
L 396.70077 197.08571 
L 396.699213 197.130709 
L 393.235339 196.485045 
L 389.679125 198.156176 
L 389.19167 198.661983 
L 389.039613 199.561221 
L 389.263935 201.90058 
L 390.717267 204.321262 
L 390.82495 205.392026 
L 391.02339 207.365266 
L 389.998798 209.011821 
L 390.297728 211.155247 
L 391.360962 213.25332 
L 389.785516 215.599605 
L 386.188988 218.681366 
L 386.347402 218.200581 
L 384.897249 216.292409 
L 381.874995 215.070563 
L 376.788333 216.007334 
L 375.888031 215.49326 
L 375.688967 215.360329 
L 373.513988 214.724496 
L 371.946905 214.760242 
L 370.09093 216.531461 
L 367.71421 217.725605 
L 366.293665 216.505545 
L 366.15512 216.514033 
L 365.834146 216.533695 
L 364.837323 218.607863 
L 359.192447 219.443205 
L 349.079708 218.839852 
L 348.722536 218.818542 
L 347.057093 220.040612 
L 346.157627 221.64159 
L 345.605727 222.126845 
L 344.150262 223.406554 
L 340.403015 223.33953 
L 335.826392 220.91237 
L 333.761817 219.273634 
L 333.169133 218.225345 
L 333.14288 218.17891 
L 332.055558 217.84379 
L 330.901323 218.022521 
L 329.161607 219.698119 
L 328.893959 220.256652 
L 328.726679 223.406778 
L 327.237549 225.134208 
L 325.171302 223.417948 
L 323.455842 223.112766 
L 321.343091 223.319423 
L 321.234463 223.353148 
L 320.718466 223.513346 
L 320.949313 224.459277 
L 320.81415 225.439838 
L 319.113913 227.019592 
L 309.700545 228.168829 
L 308.055343 228.017355 
L 307.001644 227.021826 
L 305.73597 227.648743 
L 304.534425 228.243896 
L 304.630612 229.974901 
L 298.180114 231.739865 
L 297.788332 231.029386 
L 296.16288 228.081698 
L 294.951435 228.031207 
L 287.257375 227.922405 
L 283.809058 229.884419 
L 281.608652 229.710603 
L 281.519256 229.753863 
L 279.293325 230.83102 
L 278.105634 232.119444 
L 276.09392 231.861625 
L 275.650293 230.890448 
L 274.294653 231.153852 
L 273.653802 231.540581 
L 273.068488 232.988968 
L 272.896153 233.114221 
L 271.313884 234.26421 
L 267.315716 230.332362 
L 265.274896 229.528075 
L 262.815875 230.198314 
L 259.603924 229.461051 
L 255.538844 230.578117 
L 253.481296 230.824095 
L 253.334603 230.752258 
L 251.975773 230.086831 
L 250.386442 230.57834 
L 248.278709 232.678424 
L 248.178341 234.085927 
L 247.358667 235.113627 
L 246.638525 235.499462 
L 243.986964 235.608934 
L 243.471908 234.597543 
L 243.884422 234.148259 
L 243.674987 233.444731 
L 242.005696 232.334144 
L 235.665436 236.33391 
L 236.651888 230.597107 
L 236.144527 230.597107 
L 231.349435 231.070073 
L 230.769694 231.36824 
L 225.896932 233.874355 
L 225.790709 233.468413 
L 224.534266 232.866538 
L 221.040783 232.88106 
L 220.632117 233.137091 
L 219.988924 234.880607 
L 219.032566 235.308702 
L 218.769617 235.426406 
L 215.442913 235.952544 
L 214.375162 235.548836 
L 213.241336 236.071846 
L 212.687638 235.350222 
L 212.217825 235.127194 
L 211.696502 234.879714 
L 211.622397 234.673727 
L 211.793859 233.750807 
L 213.182286 232.991202 
L 213.332838 232.164574 
L 212.722098 230.855596 
L 211.386364 229.879504 
L 211.776295 228.808014 
L 211.307073 227.070083 
L 211.051935 224.308676 
L 211.028384 224.053782 
L 210.11403 223.934033 
L 208.987229 225.202349 
L 207.748351 227.225802 
L 205.852897 227.667267 
L 206.136374 228.319912 
L 206.176394 228.412048 
L 206.816599 229.885983 
L 207.584918 231.309348 
L 206.703984 232.13609 
L 206.340352 232.477352 
L 202.770994 233.723251 
L 202.32781 233.877945 
L 201.923983 234.018903 
L 197.875798 238.062681 
L 195.918451 240.475543 
L 194.31256 243.268208 
L 193.074685 244.586345 
L 192.20466 244.631028 
L 192.189573 244.476553 
L 192.154476 244.117178 
L 191.803187 243.938447 
L 187.946805 243.388598 
L 187.102441 243.268208 
L 185.647102 244.050154 
L 182.284767 246.883479 
L 177.928285 251.758578 
L 177.511087 252.530694 
L 177.115469 254.550572 
L 177.182381 255.153788 
L 177.45003 255.886359 
L 176.998373 256.538949 
L 173.786423 257.432602 
L 168.079284 254.803552 
L 167.125152 254.364022 
L 167.020267 253.3781 
L 165.837093 252.98668 
L 164.683983 253.519031 
L 161.674823 254.908257 
L 158.727831 257.286768 
L 157.385922 258.36982 
L 156.290872 258.068366 
L 156.254605 258.058382 
L 156.219082 258.123111 
L 154.096688 261.990454 
L 151.687851 263.978831 
L 147.606043 261.655334 
L 146.000151 262.146843 
L 145.659374 262.422839 
L 143.475279 264.191739 
L 143.407138 264.246927 
L 140.262268 265.65443 
L 137.83332 266.120041 
L 133.297383 266.989547 
L 136.319302 271.096104 
L 131.376381 276.576474 
L 130.79972 277.215837 
L 124.955278 279.603007 
L 123.334781 278.070329 
L 122.797696 277.562351 
L 120.827032 277.493546 
L 120.238139 277.472986 
L 117.248003 278.757388 
L 115.72157 282.18678 
L 113.051273 279.466501 
L 112.652906 279.679422 
L 109.107471 281.574404 
L 109.130389 283.638965 
L 108.788589 284.428159 
L 108.143435 285.91778 
L 107.106297 286.565678 
L 106.72105 285.33199 
L 106.884985 283.800046 
L 106.450557 283.153489 
L 106.023658 283.097635 
L 105.327032 283.534381 
L 103.321077 284.792001 
L 103.090818 285.013351 
L 101.568982 286.476313 
L 100.615484 287.79445 
L 100.214011 289.872193 
L 97.888814 290.028582 
L 97.718188 287.874879 
L 95.926448 286.65549 
L 94.545883 286.865722 
L 87.93396 289.743953 
L 86.646403 291.294888 
L 85.615789 293.541977 
L 85.568969 293.468654 
L 85.225189 292.930272 
L 85.375574 291.681839 
L 85.275206 290.34136 
L 85.911038 288.509372 
L 86.061591 287.61572 
L 85.946462 287.374095 
L 85.944494 287.369965 
L 84.723181 285.649684 
L 83.418394 283.504918 
L 81.829063 280.890984 
L 80.624644 278.902606 
L 79.436954 276.981477 
L 77.44798 273.655399 
L 75.656083 270.658884 
L 74.702585 269.318405 
L 73.832727 267.732172 
" clip-path="url(#p7b21df3bfb)" style="fill: #ff5733"/>
   </g>
   <g id="text_1">
    <!-- CT -->
    <g transform="translate(228.305625 37.612625) scale(0.12 -0.12)">
     <defs>
      <path id="DejaVuSans-43" d="M 4122 4306 
L 4122 3641 
Q 3803 3938 3442 4084 
Q 3081 4231 2675 4231 
Q 1875 4231 1450 3742 
Q 1025 3253 1025 2328 
Q 1025 1406 1450 917 
Q 1875 428 2675 428 
Q 3081 428 3442 575 
Q 3803 722 4122 1019 
L 4122 359 
Q 3791 134 3420 21 
Q 3050 -91 2638 -91 
Q 1578 -91 968 557 
Q 359 1206 359 2328 
Q 359 3453 968 4101 
Q 1578 4750 2638 4750 
Q 3056 4750 3426 4639 
Q 3797 4528 4122 4306 
z
" transform="scale(0.015625)"/>
      <path id="DejaVuSans-54" d="M -19 4666 
L 3928 4666 
L 3928 4134 
L 2272 4134 
L 2272 0 
L 1638 0 
L 1638 4134 
L -19 4134 
L -19 4666 
z
" transform="scale(0.015625)"/>
     </defs>
     <use xlink:href="#DejaVuSans-43"/>
     <use xlink:href="#DejaVuSans-54" x="69.824219"/>
    </g>
   </g>
  </g>
 </g>
 <defs>
  <clipPath id="p7b21df3bfb">
   <rect x="57.6" y="43.612625" width="357.12" height="261.83075"/>
  </clipPath>
 </defs>
</svg>
