<?xml version="1.0" encoding="utf-8" standalone="no"?>
<!DOCTYPE svg PUBLIC "-//W3C//DTD SVG 1.1//EN"
  "http://www.w3.org/Graphics/SVG/1.1/DTD/svg11.dtd">
<svg xmlns:xlink="http://www.w3.org/1999/xlink" width="460.8pt" height="345.6pt" viewBox="0 0 460.8 345.6" xmlns="http://www.w3.org/2000/svg" version="1.1">
 <metadata>
  <rdf:RDF xmlns:dc="http://purl.org/dc/elements/1.1/" xmlns:cc="http://creativecommons.org/ns#" xmlns:rdf="http://www.w3.org/1999/02/22-rdf-syntax-ns#">
   <cc:Work>
    <dc:type rdf:resource="http://purl.org/dc/dcmitype/StillImage"/>
    <dc:date>2023-06-19T14:47:52.383177</dc:date>
    <dc:format>image/svg+xml</dc:format>
    <dc:creator>
     <cc:Agent>
      <dc:title>Matplotlib v3.7.1, https://matplotlib.org/</dc:title>
     </cc:Agent>
    </dc:creator>
   </cc:Work>
  </rdf:RDF>
 </metadata>
 <defs>
  <style type="text/css">*{stroke-linejoin: round; stroke-linecap: butt}</style>
 </defs>
 <g id="figure_1">
  <g id="patch_1">
   <path d="M 0 345.6 
L 460.8 345.6 
L 460.8 0 
L 0 0 
z
" style="fill: #ffffff"/>
  </g>
  <g id="axes_1">
   <g id="PatchCollection_1">
    <path d="M 139.031165 126.184458 
L 153.12174 111.867608 
L 156.630763 108.901492 
L 165.126292 99.884498 
L 170.408183 94.667192 
L 183.464646 81.770376 
L 199.478705 65.952129 
L 210.357371 54.966935 
L 211.74274 53.568 
L 216.100393 58.121582 
L 235.216257 76.867436 
L 236.878426 78.647106 
L 241.957275 83.748826 
L 247.228918 89.237423 
L 247.313153 89.325125 
L 257.10654 99.051143 
L 303.251535 144.878703 
L 309.553987 151.137801 
L 316.52315 158.265128 
L 333.288835 175.411309 
L 331.99419 176.763858 
L 324.145059 184.594405 
L 323.313975 185.424918 
L 296.071951 212.831832 
L 292.378243 216.153882 
L 288.274438 220.384132 
L 284.764137 224.002591 
L 268.5529 240.713325 
L 256.363662 252.102025 
L 249.622644 259.576637 
L 248.329846 260.051216 
L 227.066411 281.747897 
L 213.600675 295.488 
L 213.700406 284.610659 
L 216.56303 267.881763 
L 214.439147 267.05125 
L 213.51572 260.169861 
L 214.439147 251.628632 
L 213.422454 247.357425 
L 211.5756 245.577755 
L 210.282802 245.459111 
L 209.451717 246.170978 
L 208.158919 244.391309 
L 208.066577 239.882812 
L 208.538806 238.593501 
L 208.805318 237.865853 
L 211.113886 237.865853 
L 219.333311 236.086183 
L 220.349081 225.645454 
L 220.170196 225.228173 
L 213.330111 209.272492 
L 213.699482 207.492823 
L 213.514797 204.763996 
L 212.129656 201.086012 
L 209.636403 197.763961 
L 209.493186 197.658813 
L 207.697206 196.340226 
L 206.589093 196.69616 
L 207.51252 198.950408 
L 206.866122 200.967367 
L 204.280526 201.679235 
L 202.248986 198.713119 
L 202.433671 196.340226 
L 199.66339 191.713084 
L 198.64762 190.645282 
L 195.82655 190.577655 
L 190.983175 180.443029 
L 187.474152 167.866696 
L 186.643068 167.154828 
L 184.888556 166.087026 
L 177.263528 165.115517 
L 173.714164 164.663291 
L 166.326748 161.934464 
L 163.094753 159.917505 
L 156.169049 153.747983 
L 154.13751 151.612379 
L 151.459571 144.256411 
L 144.903238 137.019087 
L 141.948272 132.629235 
L 140.747816 128.476672 
L 139.031165 126.184458 
" clip-path="url(#pfb535ab3ca)" style="fill: #33ff57"/>
   </g>
   <g id="text_1">
    <!-- DC -->
    <g transform="translate(227.350313 35.472) scale(0.12 -0.12)">
     <defs>
      <path id="DejaVuSans-44" d="M 1259 4147 
L 1259 519 
L 2022 519 
Q 2988 519 3436 956 
Q 3884 1394 3884 2338 
Q 3884 3275 3436 3711 
Q 2988 4147 2022 4147 
L 1259 4147 
z
M 628 4666 
L 1925 4666 
Q 3281 4666 3915 4102 
Q 4550 3538 4550 2338 
Q 4550 1131 3912 565 
Q 3275 0 1925 0 
L 628 0 
L 628 4666 
z
" transform="scale(0.015625)"/>
      <path id="DejaVuSans-43" d="M 4122 4306 
L 4122 3641 
Q 3803 3938 3442 4084 
Q 3081 4231 2675 4231 
Q 1875 4231 1450 3742 
Q 1025 3253 1025 2328 
Q 1025 1406 1450 917 
Q 1875 428 2675 428 
Q 3081 428 3442 575 
Q 3803 722 4122 1019 
L 4122 359 
Q 3791 134 3420 21 
Q 3050 -91 2638 -91 
Q 1578 -91 968 557 
Q 359 1206 359 2328 
Q 359 3453 968 4101 
Q 1578 4750 2638 4750 
Q 3056 4750 3426 4639 
Q 3797 4528 4122 4306 
z
" transform="scale(0.015625)"/>
     </defs>
     <use xlink:href="#DejaVuSans-44"/>
     <use xlink:href="#DejaVuSans-43" x="77.001953"/>
    </g>
   </g>
  </g>
 </g>
 <defs>
  <clipPath id="pfb535ab3ca">
   <rect x="129.318282" y="41.472" width="213.683436" height="266.112"/>
  </clipPath>
 </defs>
</svg>
