<?xml version="1.0" encoding="utf-8" standalone="no"?>
<!DOCTYPE svg PUBLIC "-//W3C//DTD SVG 1.1//EN"
  "http://www.w3.org/Graphics/SVG/1.1/DTD/svg11.dtd">
<svg xmlns:xlink="http://www.w3.org/1999/xlink" width="460.8pt" height="345.6pt" viewBox="0 0 460.8 345.6" xmlns="http://www.w3.org/2000/svg" version="1.1">
 <metadata>
  <rdf:RDF xmlns:dc="http://purl.org/dc/elements/1.1/" xmlns:cc="http://creativecommons.org/ns#" xmlns:rdf="http://www.w3.org/1999/02/22-rdf-syntax-ns#">
   <cc:Work>
    <dc:type rdf:resource="http://purl.org/dc/dcmitype/StillImage"/>
    <dc:date>2023-06-19T14:47:47.313476</dc:date>
    <dc:format>image/svg+xml</dc:format>
    <dc:creator>
     <cc:Agent>
      <dc:title>Matplotlib v3.7.1, https://matplotlib.org/</dc:title>
     </cc:Agent>
    </dc:creator>
   </cc:Work>
  </rdf:RDF>
 </metadata>
 <defs>
  <style type="text/css">*{stroke-linejoin: round; stroke-linecap: butt}</style>
 </defs>
 <g id="figure_1">
  <g id="patch_1">
   <path d="M 0 345.6 
L 460.8 345.6 
L 460.8 0 
L 0 0 
z
" style="fill: #ffffff"/>
  </g>
  <g id="axes_1">
   <g id="PatchCollection_1">
    <path d="M 215.632253 90.586384 
L 217.166553 90.055899 
L 217.213046 90.187649 
L 217.143846 91.032521 
L 217.301709 92.23709 
L 217.513635 93.134941 
L 217.429297 93.650786 
L 217.533098 94.08577 
L 217.649873 94.236341 
L 217.312873 94.279909 
L 216.830282 94.342299 
L 216.051779 92.856105 
L 215.502367 91.141266 
L 215.632253 90.586384 
" clip-path="url(#pf618e7140d)" style="fill: #ffc733"/>
    <path d="M 214.159314 94.656337 
L 217.066266 96.614983 
L 216.425758 98.170711 
L 214.526805 97.710632 
L 213.72492 96.41579 
L 214.159314 94.656337 
" clip-path="url(#pf618e7140d)" style="fill: #ffc733"/>
    <path d="M 186.158196 82.806086 
L 186.160641 81.114862 
L 186.154964 80.910964 
L 186.19051 77.75228 
L 186.19051 77.707666 
L 186.195376 73.955411 
L 188.197048 73.955236 
L 189.214238 71.170715 
L 189.988821 69.529768 
L 190.121713 69.2858 
L 190.975601 67.718208 
L 192.150384 65.937668 
L 193.221096 64.561441 
L 194.499409 63.104699 
L 194.938192 62.664107 
L 195.532968 62.06688 
L 195.864087 61.734397 
L 196.803442 60.921525 
L 197.997401 59.888331 
L 200.05665 58.418693 
L 202.60792 56.989826 
L 203.191341 56.663075 
L 206.073289 55.409883 
L 206.994653 55.097239 
L 209.355301 54.432042 
L 212.261983 53.885873 
L 212.378211 53.864586 
L 212.544596 53.834114 
L 212.618362 53.826847 
L 214.400143 53.651322 
L 214.412733 53.650082 
L 215.681585 53.568 
L 219.802404 53.709696 
L 219.888205 53.712646 
L 222.713522 54.047771 
L 225.243891 54.550657 
L 225.362595 54.574248 
L 227.741084 55.309677 
L 230.142574 56.230407 
L 230.159715 56.236979 
L 230.278353 56.292943 
L 230.623949 56.455969 
L 231.456814 56.848849 
L 234.928722 58.788673 
L 236.681029 60.062429 
L 237.985022 61.024934 
L 237.974857 61.029715 
L 237.160532 61.412664 
L 233.812189 62.987275 
L 233.540256 63.115155 
L 231.910826 64.698877 
L 231.865934 64.742509 
L 231.930269 64.795314 
L 232.054207 64.851952 
L 231.64279 65.797031 
L 230.683177 66.354702 
L 230.156065 67.156354 
L 230.196612 67.661744 
L 229.35864 70.223545 
L 229.209379 70.541382 
L 228.692453 71.642121 
L 228.528102 72.411707 
L 228.520533 72.820201 
L 228.277251 73.51729 
L 228.251301 74.240869 
L 228.324826 74.62845 
L 228.223188 75.207731 
L 228.047484 75.416858 
L 227.66891 75.289116 
L 227.479691 75.120595 
L 227.195862 75.068313 
L 226.748222 75.2391 
L 226.371405 75.887393 
L 226.228054 76.253296 
L 225.709137 77.577833 
L 224.654779 78.118077 
L 224.23309 78.353693 
L 223.978995 78.780312 
L 223.884385 80.244198 
L 221.180979 79.111429 
L 221.140725 79.168761 
L 217.551228 84.281109 
L 216.788114 85.367976 
L 213.758538 86.262167 
L 213.422575 86.361328 
L 210.067713 91.42289 
L 209.907687 91.598557 
L 209.877412 91.715668 
L 209.784424 92.058635 
L 209.667649 92.471312 
L 209.756312 92.699957 
L 209.881737 92.976004 
L 209.838487 93.062443 
L 209.896875 93.960294 
L 209.863896 94.055621 
L 209.864437 94.060675 
L 209.821187 94.172209 
L 210.076363 95.675133 
L 210.080688 95.703016 
L 211.058277 97.007967 
L 211.201003 97.175268 
L 212.736384 98.114944 
L 212.768821 98.170711 
L 213.341886 98.619636 
L 213.415411 98.692133 
L 213.495424 98.931932 
L 213.575437 99.007218 
L 215.523992 100.875416 
L 215.63428 100.95349 
L 216.68161 101.831822 
L 216.535061 102.103037 
L 216.463332 102.235785 
L 216.329932 102.482032 
L 215.826743 105.60499 
L 215.818769 105.860299 
L 215.691181 107.934312 
L 216.993282 109.110824 
L 216.154634 111.236771 
L 214.870239 111.076092 
L 213.343913 113.314096 
L 213.343913 113.48558 
L 212.622311 116.305827 
L 212.622311 116.513211 
L 213.050353 119.297036 
L 213.112795 119.507905 
L 214.363536 121.255159 
L 214.53532 121.761594 
L 215.606978 122.701618 
L 215.492771 123.327081 
L 217.64717 124.816412 
L 219.995925 127.229908 
L 220.338547 128.470377 
L 222.01368 131.572597 
L 222.270613 132.219496 
L 223.444585 136.00434 
L 223.528912 136.090929 
L 223.607854 136.17199 
L 224.487995 137.221457 
L 225.990669 138.015442 
L 226.309774 138.497827 
L 225.995534 139.41537 
L 226.127177 139.598879 
L 226.324506 139.871441 
L 226.501696 140.070982 
L 227.925168 141.002642 
L 227.909219 141.158615 
L 229.347152 142.161901 
L 230.550183 142.61222 
L 233.441997 145.200511 
L 233.72461 145.898471 
L 233.911802 147.960635 
L 233.935725 148.112252 
L 234.938723 150.138515 
L 237.584688 153.685129 
L 238.316156 155.440399 
L 238.0649 156.961447 
L 237.915687 157.356522 
L 237.944205 160.806589 
L 237.972201 160.850012 
L 238.075442 161.010139 
L 239.136828 162.147265 
L 239.660831 164.173877 
L 239.420928 166.989768 
L 238.908143 167.292653 
L 238.697298 167.320536 
L 237.599555 169.382351 
L 237.334784 172.042186 
L 237.28072 172.5853 
L 238.555519 184.345887 
L 238.441717 188.158441 
L 238.582011 188.287282 
L 238.677025 188.374538 
L 239.283608 189.495806 
L 239.21995 189.727065 
L 240.350266 190.896432 
L 241.437061 191.311897 
L 246.047259 195.482754 
L 246.705878 196.336165 
L 249.751771 201.872619 
L 250.21171 203.165022 
L 250.663674 205.454611 
L 250.536762 208.34265 
L 250.536762 208.653726 
L 250.621024 209.239836 
L 250.626506 209.277969 
L 250.672459 209.463569 
L 251.887519 210.444896 
L 250.572443 212.95581 
L 251.68127 214.948439 
L 257.217697 221.188953 
L 261.419181 226.956841 
L 265.027867 230.593554 
L 267.025079 233.473402 
L 267.072493 233.505478 
L 271.053291 236.198497 
L 271.286572 236.378172 
L 274.665491 237.76381 
L 277.46202 237.63206 
L 278.706814 237.067767 
L 278.712173 237.047084 
L 279.460449 234.159164 
L 280.101092 234.004758 
L 280.686591 235.157395 
L 281.675939 239.521346 
L 281.937602 243.363177 
L 282.072218 245.432485 
L 283.925353 258.887695 
L 283.964954 263.878155 
L 284.410566 267.977909 
L 284.499904 268.02444 
L 284.534815 268.058445 
L 284.605462 268.12726 
L 284.665742 268.180065 
L 286.055694 289.32312 
L 286.165036 295.444258 
L 285.682256 295.442515 
L 285.550748 295.442341 
L 284.03227 295.43975 
L 283.814254 295.439378 
L 283.329852 295.441992 
L 280.662799 295.445813 
L 273.597618 295.455934 
L 267.713973 295.488 
L 265.054288 295.468441 
L 258.613731 295.421079 
L 257.582485 295.404524 
L 255.873135 295.391505 
L 246.657801 295.32132 
L 246.644923 295.321221 
L 244.678256 295.314599 
L 242.615493 295.297346 
L 239.572303 295.296126 
L 239.407007 295.28811 
L 237.230577 295.246284 
L 235.344869 295.209687 
L 234.845253 295.199606 
L 234.818028 295.199057 
L 228.236807 295.026099 
L 228.001126 295.019905 
L 225.162968 294.942354 
L 224.781826 294.929109 
L 222.301835 294.852952 
L 222.109101 294.852952 
L 220.617511 294.800496 
L 217.176824 294.695061 
L 217.079106 294.692273 
L 215.162583 294.620299 
L 213.879404 294.544839 
L 213.10793 294.568888 
L 212.597578 294.548324 
L 211.923416 294.469727 
L 207.544606 294.286916 
L 205.186854 294.206683 
L 203.165932 294.137913 
L 202.795332 294.113341 
L 199.018376 293.899334 
L 198.633314 288.278184 
L 198.590199 287.564365 
L 198.307721 283.113103 
L 198.119353 279.525775 
L 198.118096 279.501834 
L 197.931258 276.368772 
L 197.930769 276.360577 
L 197.676539 272.109904 
L 197.604095 270.89906 
L 197.361624 266.946392 
L 197.35 266.67993 
L 197.299317 265.803515 
L 197.252012 264.961605 
L 197.149157 263.36562 
L 197.148622 263.356844 
L 197.1486 263.356471 
L 196.402497 251.1179 
L 195.766021 240.677564 
L 195.379936 234.344473 
L 195.163975 230.801983 
L 195.088013 229.466935 
L 195.085313 229.419482 
L 195.048551 228.870699 
L 194.89704 226.512795 
L 194.889066 226.32127 
L 194.68579 222.769951 
L 194.650108 222.570583 
L 194.369127 218.030069 
L 192.437906 186.822509 
L 192.218773 183.281433 
L 191.950757 179.749457 
L 191.906426 178.811001 
L 191.699365 174.84503 
L 191.697203 174.803612 
L 191.468923 171.05397 
L 191.242941 168.796971 
L 190.577024 156.908642 
L 190.576792 156.904982 
L 190.018766 148.090652 
L 189.128413 134.027047 
L 189.12671 134.000127 
L 188.704091 127.322145 
L 187.987802 116.003757 
L 187.394484 106.628489 
L 187.385609 106.488248 
L 187.374905 106.319109 
L 187.219324 103.860699 
L 186.598065 93.321152 
L 186.489324 91.476385 
L 186.394056 89.860191 
L 186.318369 88.66085 
L 186.235481 86.825405 
L 186.154964 85.042436 
L 186.158196 82.806086 
" clip-path="url(#pf618e7140d)" style="fill: #ffc733"/>
   </g>
   <g id="text_1">
    <!-- DE -->
    <g transform="translate(227.74875 35.472) scale(0.12 -0.12)">
     <defs>
      <path id="DejaVuSans-44" d="M 1259 4147 
L 1259 519 
L 2022 519 
Q 2988 519 3436 956 
Q 3884 1394 3884 2338 
Q 3884 3275 3436 3711 
Q 2988 4147 2022 4147 
L 1259 4147 
z
M 628 4666 
L 1925 4666 
Q 3281 4666 3915 4102 
Q 4550 3538 4550 2338 
Q 4550 1131 3912 565 
Q 3275 0 1925 0 
L 628 0 
L 628 4666 
z
" transform="scale(0.015625)"/>
      <path id="DejaVuSans-45" d="M 628 4666 
L 3578 4666 
L 3578 4134 
L 1259 4134 
L 1259 2753 
L 3481 2753 
L 3481 2222 
L 1259 2222 
L 1259 531 
L 3634 531 
L 3634 0 
L 628 0 
L 628 4666 
z
" transform="scale(0.015625)"/>
     </defs>
     <use xlink:href="#DejaVuSans-44"/>
     <use xlink:href="#DejaVuSans-45" x="77.001953"/>
    </g>
   </g>
  </g>
 </g>
 <defs>
  <clipPath id="pf618e7140d">
   <rect x="181.15446" y="41.472" width="110.011079" height="266.112"/>
  </clipPath>
 </defs>
</svg>
