<?xml version="1.0" encoding="utf-8" standalone="no"?>
<!DOCTYPE svg PUBLIC "-//W3C//DTD SVG 1.1//EN"
  "http://www.w3.org/Graphics/SVG/1.1/DTD/svg11.dtd">
<svg xmlns:xlink="http://www.w3.org/1999/xlink" width="360pt" height="360pt" viewBox="0 0 360 360" xmlns="http://www.w3.org/2000/svg" version="1.1">
 <metadata>
  <rdf:RDF xmlns:dc="http://purl.org/dc/elements/1.1/" xmlns:cc="http://creativecommons.org/ns#" xmlns:rdf="http://www.w3.org/1999/02/22-rdf-syntax-ns#">
   <cc:Work>
    <dc:type rdf:resource="http://purl.org/dc/dcmitype/StillImage"/>
    <dc:date>2023-06-19T15:20:27.681572</dc:date>
    <dc:format>image/svg+xml</dc:format>
    <dc:creator>
     <cc:Agent>
      <dc:title>Matplotlib v3.7.1, https://matplotlib.org/</dc:title>
     </cc:Agent>
    </dc:creator>
   </cc:Work>
  </rdf:RDF>
 </metadata>
 <defs>
  <style type="text/css">*{stroke-linejoin: round; stroke-linecap: butt}</style>
 </defs>
 <g id="figure_1">
  <g id="patch_1">
   <path d="M 0 360 
L 360 360 
L 360 0 
L 0 0 
z
" style="fill: #ffffff"/>
  </g>
  <g id="axes_1">
   <g id="PatchCollection_1">
    <path d="M 156.9285 94.360816 
L 158.989269 93.808228 
L 159.051717 93.945467 
L 158.958771 94.825542 
L 159.170803 96.080302 
L 159.455447 97.015563 
L 159.34217 97.552903 
L 159.481588 98.00601 
L 159.638433 98.162855 
L 159.185797 98.208238 
L 158.537613 98.273228 
L 157.49198 96.725109 
L 156.754046 94.938819 
L 156.9285 94.360816 
" clip-path="url(#pfd0aa7589b)" style="fill: #00ce00"/>
    <path d="M 154.950147 98.600351 
L 158.854571 100.640607 
L 157.994283 102.261157 
L 155.443737 101.781909 
L 154.366698 100.433114 
L 154.950147 98.600351 
" clip-path="url(#pfd0aa7589b)" style="fill: #00ce00"/>
    <path d="M 117.340914 86.25634 
L 117.344197 84.494648 
L 117.336573 84.282254 
L 117.384316 80.991958 
L 117.384316 80.945485 
L 117.390852 77.036886 
L 120.079364 77.036705 
L 121.445585 74.136161 
L 122.485954 72.426841 
L 122.664446 72.172709 
L 123.811331 70.5398 
L 125.389221 68.685071 
L 126.82733 67.251501 
L 128.544274 65.734062 
L 129.133619 65.275112 
L 129.932482 64.653 
L 130.377218 64.306663 
L 131.638898 63.459922 
L 133.242544 62.383678 
L 136.00839 60.852805 
L 139.435086 59.364402 
L 140.218698 59.024036 
L 144.089538 57.718628 
L 145.327053 57.392957 
L 148.497718 56.700043 
L 152.401779 56.131117 
L 152.557888 56.108944 
L 152.781366 56.077202 
L 152.880443 56.069632 
L 155.273613 55.886794 
L 155.290523 55.885502 
L 156.99476 55.8 
L 162.529569 55.9476 
L 162.64481 55.950673 
L 166.439588 56.299762 
L 169.838211 56.823601 
L 169.997646 56.848175 
L 173.192274 57.614246 
L 176.417795 58.573341 
L 176.440817 58.580187 
L 176.600164 58.638483 
L 177.064346 58.808301 
L 178.182995 59.217551 
L 182.846229 61.238201 
L 185.199812 62.56503 
L 186.951248 63.56764 
L 186.937595 63.572619 
L 185.843847 63.971525 
L 181.346577 65.611745 
L 180.981335 65.744954 
L 178.792793 67.394663 
L 178.732497 67.440114 
L 178.818907 67.495119 
L 178.985373 67.554117 
L 178.432785 68.538574 
L 177.143897 69.119481 
L 176.435916 69.954535 
L 176.490376 70.480983 
L 175.364868 73.149526 
L 175.164389 73.480606 
L 174.470089 74.62721 
L 174.249344 75.428862 
L 174.239178 75.854377 
L 173.912418 76.580511 
L 173.877563 77.334238 
L 173.976317 77.737969 
L 173.839804 78.341386 
L 173.603811 78.559227 
L 173.095335 78.426163 
L 172.841188 78.25062 
L 172.459968 78.19616 
L 171.858728 78.374062 
L 171.352613 79.049367 
L 171.160074 79.430516 
L 170.463098 80.810243 
L 169.046955 81.372997 
L 168.48057 81.61843 
L 168.139287 82.062825 
L 168.012214 83.587707 
L 164.381179 82.407738 
L 164.327113 82.467459 
L 159.505939 87.792822 
L 158.480975 88.924975 
L 154.411852 89.856424 
L 153.960608 89.959716 
L 149.454581 95.232177 
L 149.239646 95.415163 
L 149.198982 95.537154 
L 149.074087 95.894412 
L 148.917242 96.324283 
L 149.036328 96.562455 
L 149.204791 96.850005 
L 149.1467 96.940045 
L 149.225123 97.875306 
L 149.180829 97.974605 
L 149.181555 97.97987 
L 149.123464 98.096051 
L 149.466199 99.661597 
L 149.472009 99.690642 
L 150.785041 101.049965 
L 150.97674 101.224237 
L 153.038962 102.203066 
L 153.08253 102.261157 
L 153.852232 102.728788 
L 153.950986 102.804306 
L 154.058454 103.054096 
L 154.165922 103.132518 
L 156.783092 105.078558 
L 156.931223 105.159885 
L 158.337927 106.074814 
L 158.141092 106.35733 
L 158.04475 106.495609 
L 157.865576 106.752116 
L 157.189727 110.005198 
L 157.179016 110.271144 
L 157.007649 112.431575 
L 158.756543 113.657109 
L 157.630127 115.871637 
L 155.905014 115.704263 
L 153.854955 118.035517 
L 153.854955 118.214146 
L 152.885747 121.151904 
L 152.885747 121.367928 
L 153.460664 124.267746 
L 153.544533 124.487401 
L 155.224444 126.307457 
L 155.455173 126.834993 
L 156.894553 127.814186 
L 156.741157 128.46571 
L 159.634802 130.017095 
L 162.789493 132.531154 
L 163.24968 133.82331 
L 165.499607 137.054789 
L 165.844703 137.728641 
L 167.421503 141.671188 
L 167.534765 141.761385 
L 167.640796 141.845823 
L 168.822942 142.939018 
L 170.841233 143.766085 
L 171.269833 144.26857 
L 170.847768 145.224344 
L 171.024582 145.415499 
L 171.289621 145.699417 
L 171.527611 145.907273 
L 173.439523 146.877752 
L 173.418102 147.040224 
L 175.349437 148.085313 
L 176.965268 148.554396 
L 180.84936 151.250532 
L 181.228947 151.977574 
L 181.480371 154.125661 
L 181.512502 154.283595 
L 182.859663 156.394286 
L 186.413545 160.088676 
L 187.396005 161.917082 
L 187.058534 163.501507 
L 186.858121 163.913044 
L 186.896425 167.506864 
L 186.934028 167.552096 
L 187.072694 167.718895 
L 188.498277 168.903401 
L 189.202083 171.014455 
L 188.87986 173.947675 
L 188.191122 174.26318 
L 187.90793 174.292225 
L 186.433514 176.439949 
L 186.077891 179.210611 
L 186.005276 179.776355 
L 187.717501 192.026966 
L 187.56465 195.998376 
L 187.753084 196.132585 
L 187.8807 196.223477 
L 188.695422 197.391464 
L 188.60992 197.63236 
L 190.128085 198.85045 
L 191.587797 199.283226 
L 197.779907 203.627869 
L 198.66452 204.516839 
L 202.75556 210.283979 
L 203.373319 211.630232 
L 203.980367 214.01522 
L 203.809907 217.023594 
L 203.809907 217.347631 
L 203.923082 217.958163 
L 203.930446 217.997885 
L 203.992167 218.191218 
L 205.624154 219.213433 
L 203.857832 221.828969 
L 205.347134 223.904624 
L 212.783293 230.405159 
L 218.426446 236.413376 
L 223.273392 240.201619 
L 225.955914 243.201461 
L 226.019598 243.234873 
L 231.36634 246.040101 
L 231.679667 246.227262 
L 236.218006 247.670636 
L 239.974117 247.533396 
L 241.646042 246.945591 
L 241.653239 246.924046 
L 242.658273 243.915795 
L 243.518742 243.754957 
L 244.305145 244.95562 
L 245.633971 249.501402 
L 245.98542 253.503309 
L 246.166227 255.658839 
L 248.655234 269.674683 
L 248.708424 274.873078 
L 249.30694 279.143655 
L 249.426933 279.192125 
L 249.473822 279.227547 
L 249.568711 279.29923 
L 249.649675 279.354234 
L 251.516566 301.37825 
L 251.663427 307.754435 
L 251.014989 307.75262 
L 250.838357 307.752438 
L 248.798838 307.74974 
L 248.506014 307.749352 
L 247.855397 307.752075 
L 244.27319 307.756055 
L 234.78371 307.766598 
L 226.88119 307.8 
L 223.30888 307.779627 
L 214.658353 307.730291 
L 213.273252 307.713045 
L 210.977367 307.699484 
L 198.599946 307.626375 
L 198.582648 307.626272 
L 195.941153 307.619374 
L 193.170588 307.601402 
L 189.083178 307.600132 
L 188.861162 307.591781 
L 185.937927 307.548213 
L 183.405171 307.510091 
L 182.73412 307.49959 
L 182.697553 307.499017 
L 173.858096 307.318853 
L 173.541545 307.312401 
L 169.729521 307.231618 
L 169.217596 307.217822 
L 165.886637 307.138492 
L 165.62777 307.138492 
L 163.624366 307.08385 
L 159.003066 306.974022 
L 158.871817 306.971118 
L 156.297671 306.896144 
L 154.574191 306.81754 
L 153.537997 306.842592 
L 152.852527 306.821171 
L 151.947037 306.739299 
L 146.065713 306.548871 
L 142.898937 306.465295 
L 140.18457 306.393659 
L 139.686805 306.368063 
L 134.613849 306.14514 
L 134.09666 300.289775 
L 134.038751 299.546213 
L 133.659345 294.909483 
L 133.406342 291.172682 
L 133.404654 291.147744 
L 133.153705 287.884138 
L 133.153048 287.875602 
L 132.811584 283.447816 
L 132.714282 282.186521 
L 132.38861 278.069158 
L 132.372999 277.791593 
L 132.304923 276.878661 
L 132.241387 276.001672 
L 132.10324 274.339188 
L 132.102521 274.330045 
L 132.10249 274.329657 
L 131.100376 261.581146 
L 130.245504 250.705796 
L 129.72694 244.108826 
L 129.436875 240.418733 
L 129.334849 239.028058 
L 129.331222 238.978627 
L 129.281845 238.406978 
L 129.078346 235.950828 
L 129.067635 235.751323 
L 128.794609 232.052032 
L 128.746684 231.844358 
L 128.369289 227.114655 
L 125.775401 194.60678 
L 125.481077 190.918159 
L 125.121095 187.239018 
L 125.061552 186.26146 
L 124.783443 182.130239 
L 124.780539 182.087095 
L 124.473928 178.181219 
L 124.170404 175.830178 
L 123.275988 163.446502 
L 123.275677 163.44269 
L 122.526173 154.261095 
L 121.330311 139.611508 
L 121.328023 139.583465 
L 120.76039 132.627235 
L 119.798319 120.837247 
L 119.001414 111.071343 
L 118.989493 110.925258 
L 118.975116 110.749072 
L 118.76615 108.188228 
L 117.931716 97.209534 
L 117.785663 95.287901 
L 117.657706 93.604366 
L 117.556047 92.355052 
L 117.444719 90.44313 
L 117.336573 88.58587 
L 117.340914 86.25634 
" clip-path="url(#pfd0aa7589b)" style="fill: #00ce00"/>
   </g>
   <g id="PathCollection_1">
    <defs>
     <path id="m33e5ebef08" d="M 0 1.581139 
C 0.419323 1.581139 0.821528 1.41454 1.118034 1.118034 
C 1.41454 0.821528 1.581139 0.419323 1.581139 0 
C 1.581139 -0.419323 1.41454 -0.821528 1.118034 -1.118034 
C 0.821528 -1.41454 0.419323 -1.581139 0 -1.581139 
C -0.419323 -1.581139 -0.821528 -1.41454 -1.118034 -1.118034 
C -1.41454 -0.821528 -1.581139 -0.419323 -1.581139 0 
C -1.581139 0.419323 -1.41454 0.821528 -1.118034 1.118034 
C -0.821528 1.41454 -0.419323 1.581139 0 1.581139 
z
" style="stroke: #000000"/>
    </defs>
    <g clip-path="url(#pfd0aa7589b)">
     <use xlink:href="#m33e5ebef08" x="166.200509" y="179.583747" style="stroke: #000000"/>
    </g>
   </g>
   <g id="text_1">
    <!-- Dover -->
    <g transform="translate(169.200509 176.583747) scale(0.1 -0.1)">
     <defs>
      <path id="DejaVuSans-44" d="M 1259 4147 
L 1259 519 
L 2022 519 
Q 2988 519 3436 956 
Q 3884 1394 3884 2338 
Q 3884 3275 3436 3711 
Q 2988 4147 2022 4147 
L 1259 4147 
z
M 628 4666 
L 1925 4666 
Q 3281 4666 3915 4102 
Q 4550 3538 4550 2338 
Q 4550 1131 3912 565 
Q 3275 0 1925 0 
L 628 0 
L 628 4666 
z
" transform="scale(0.015625)"/>
      <path id="DejaVuSans-6f" d="M 1959 3097 
Q 1497 3097 1228 2736 
Q 959 2375 959 1747 
Q 959 1119 1226 758 
Q 1494 397 1959 397 
Q 2419 397 2687 759 
Q 2956 1122 2956 1747 
Q 2956 2369 2687 2733 
Q 2419 3097 1959 3097 
z
M 1959 3584 
Q 2709 3584 3137 3096 
Q 3566 2609 3566 1747 
Q 3566 888 3137 398 
Q 2709 -91 1959 -91 
Q 1206 -91 779 398 
Q 353 888 353 1747 
Q 353 2609 779 3096 
Q 1206 3584 1959 3584 
z
" transform="scale(0.015625)"/>
      <path id="DejaVuSans-76" d="M 191 3500 
L 800 3500 
L 1894 563 
L 2988 3500 
L 3597 3500 
L 2284 0 
L 1503 0 
L 191 3500 
z
" transform="scale(0.015625)"/>
      <path id="DejaVuSans-65" d="M 3597 1894 
L 3597 1613 
L 953 1613 
Q 991 1019 1311 708 
Q 1631 397 2203 397 
Q 2534 397 2845 478 
Q 3156 559 3463 722 
L 3463 178 
Q 3153 47 2828 -22 
Q 2503 -91 2169 -91 
Q 1331 -91 842 396 
Q 353 884 353 1716 
Q 353 2575 817 3079 
Q 1281 3584 2069 3584 
Q 2775 3584 3186 3129 
Q 3597 2675 3597 1894 
z
M 3022 2063 
Q 3016 2534 2758 2815 
Q 2500 3097 2075 3097 
Q 1594 3097 1305 2825 
Q 1016 2553 972 2059 
L 3022 2063 
z
" transform="scale(0.015625)"/>
      <path id="DejaVuSans-72" d="M 2631 2963 
Q 2534 3019 2420 3045 
Q 2306 3072 2169 3072 
Q 1681 3072 1420 2755 
Q 1159 2438 1159 1844 
L 1159 0 
L 581 0 
L 581 3500 
L 1159 3500 
L 1159 2956 
Q 1341 3275 1631 3429 
Q 1922 3584 2338 3584 
Q 2397 3584 2469 3576 
Q 2541 3569 2628 3553 
L 2631 2963 
z
" transform="scale(0.015625)"/>
     </defs>
     <use xlink:href="#DejaVuSans-44"/>
     <use xlink:href="#DejaVuSans-6f" x="77.001953"/>
     <use xlink:href="#DejaVuSans-76" x="138.183594"/>
     <use xlink:href="#DejaVuSans-65" x="197.363281"/>
     <use xlink:href="#DejaVuSans-72" x="258.886719"/>
    </g>
   </g>
   <g id="text_2">
    <!-- Delaware -->
    <g transform="translate(156.237188 37.2) scale(0.12 -0.12)">
     <defs>
      <path id="DejaVuSans-6c" d="M 603 4863 
L 1178 4863 
L 1178 0 
L 603 0 
L 603 4863 
z
" transform="scale(0.015625)"/>
      <path id="DejaVuSans-61" d="M 2194 1759 
Q 1497 1759 1228 1600 
Q 959 1441 959 1056 
Q 959 750 1161 570 
Q 1363 391 1709 391 
Q 2188 391 2477 730 
Q 2766 1069 2766 1631 
L 2766 1759 
L 2194 1759 
z
M 3341 1997 
L 3341 0 
L 2766 0 
L 2766 531 
Q 2569 213 2275 61 
Q 1981 -91 1556 -91 
Q 1019 -91 701 211 
Q 384 513 384 1019 
Q 384 1609 779 1909 
Q 1175 2209 1959 2209 
L 2766 2209 
L 2766 2266 
Q 2766 2663 2505 2880 
Q 2244 3097 1772 3097 
Q 1472 3097 1187 3025 
Q 903 2953 641 2809 
L 641 3341 
Q 956 3463 1253 3523 
Q 1550 3584 1831 3584 
Q 2591 3584 2966 3190 
Q 3341 2797 3341 1997 
z
" transform="scale(0.015625)"/>
      <path id="DejaVuSans-77" d="M 269 3500 
L 844 3500 
L 1563 769 
L 2278 3500 
L 2956 3500 
L 3675 769 
L 4391 3500 
L 4966 3500 
L 4050 0 
L 3372 0 
L 2619 2869 
L 1863 0 
L 1184 0 
L 269 3500 
z
" transform="scale(0.015625)"/>
     </defs>
     <use xlink:href="#DejaVuSans-44"/>
     <use xlink:href="#DejaVuSans-65" x="77.001953"/>
     <use xlink:href="#DejaVuSans-6c" x="138.525391"/>
     <use xlink:href="#DejaVuSans-61" x="166.308594"/>
     <use xlink:href="#DejaVuSans-77" x="227.587891"/>
     <use xlink:href="#DejaVuSans-61" x="309.375"/>
     <use xlink:href="#DejaVuSans-72" x="370.654297"/>
     <use xlink:href="#DejaVuSans-65" x="409.517578"/>
    </g>
   </g>
  </g>
 </g>
 <defs>
  <clipPath id="pfd0aa7589b">
   <rect x="110.62023" y="43.2" width="147.759539" height="277.2"/>
  </clipPath>
 </defs>
</svg>
