<?xml version="1.0" encoding="utf-8" standalone="no"?>
<!DOCTYPE svg PUBLIC "-//W3C//DTD SVG 1.1//EN"
  "http://www.w3.org/Graphics/SVG/1.1/DTD/svg11.dtd">
<svg xmlns:xlink="http://www.w3.org/1999/xlink" width="460.8pt" height="345.6pt" viewBox="0 0 460.8 345.6" xmlns="http://www.w3.org/2000/svg" version="1.1">
 <metadata>
  <rdf:RDF xmlns:dc="http://purl.org/dc/elements/1.1/" xmlns:cc="http://creativecommons.org/ns#" xmlns:rdf="http://www.w3.org/1999/02/22-rdf-syntax-ns#">
   <cc:Work>
    <dc:type rdf:resource="http://purl.org/dc/dcmitype/StillImage"/>
    <dc:date>2023-06-19T14:47:50.174197</dc:date>
    <dc:format>image/svg+xml</dc:format>
    <dc:creator>
     <cc:Agent>
      <dc:title>Matplotlib v3.7.1, https://matplotlib.org/</dc:title>
     </cc:Agent>
    </dc:creator>
   </cc:Work>
  </rdf:RDF>
 </metadata>
 <defs>
  <style type="text/css">*{stroke-linejoin: round; stroke-linecap: butt}</style>
 </defs>
 <g id="figure_1">
  <g id="patch_1">
   <path d="M 0 345.6 
L 460.8 345.6 
L 460.8 0 
L 0 0 
z
" style="fill: #ffffff"/>
  </g>
  <g id="axes_1">
   <g id="PatchCollection_1">
    <path d="M 337.871258 282.72077 
L 338.616556 282.157701 
L 339.422057 281.177888 
L 339.626304 280.780502 
L 339.793551 281.143833 
L 340.107117 281.835995 
L 339.518735 282.640316 
L 338.538098 283.243631 
L 337.871258 282.72077 
" clip-path="url(#pc9cf35f6b2)" style="fill: #c733ff"/>
    <path d="M 334.596209 284.718256 
L 334.615551 284.168913 
L 335.164721 283.967758 
L 335.713858 283.484994 
L 336.513451 283.218193 
L 336.916664 283.344936 
L 336.662544 283.952988 
L 336.588806 284.192785 
L 336.405419 284.410948 
L 335.596188 284.812661 
L 334.750516 284.745597 
L 334.613637 284.759323 
L 334.596209 284.718256 
" clip-path="url(#pc9cf35f6b2)" style="fill: #c733ff"/>
    <path d="M 325.555768 288.320318 
L 326.88816 287.670453 
L 328.300891 286.971988 
L 330.047289 286.342302 
L 331.752098 285.416274 
L 332.697649 285.718958 
L 332.45815 286.382212 
L 328.888381 287.95583 
L 327.122311 288.960186 
L 326.153722 289.004684 
L 325.555768 288.320318 
" clip-path="url(#pc9cf35f6b2)" style="fill: #c733ff"/>
    <path d="M 302.882231 293.481935 
L 303.28485 292.533677 
L 304.54258 290.748274 
L 305.062077 290.082595 
L 307.481916 288.604352 
L 310.377914 287.217492 
L 310.821791 286.484263 
L 311.979708 286.125333 
L 313.23295 285.133285 
L 315.034833 284.357834 
L 317.202697 285.521197 
L 318.942328 286.082886 
L 319.604844 286.527866 
L 320.023702 288.193911 
L 321.6454 289.556079 
L 321.167493 289.917471 
L 319.340194 290.553722 
L 317.688955 291.161252 
L 316.408615 291.437975 
L 316.057157 290.57308 
L 315.021465 290.724328 
L 313.919395 290.613326 
L 312.905851 290.734548 
L 312.595816 291.523949 
L 311.216786 291.959157 
L 309.478375 292.854077 
L 308.412943 293.251724 
L 307.719434 293.313604 
L 307.055961 293.857501 
L 304.086127 294.165854 
L 302.854406 294.350112 
L 302.882231 293.481935 
" clip-path="url(#pc9cf35f6b2)" style="fill: #c733ff"/>
    <path d="M 296.174656 294.439556 
L 297.429845 294.237953 
L 299.351906 293.713825 
L 300.411 293.350978 
L 300.803255 293.673504 
L 300.371755 294.116992 
L 299.587246 295.0444 
L 297.58676 295.488 
L 296.135411 295.24604 
L 296.174656 294.439556 
" clip-path="url(#pc9cf35f6b2)" style="fill: #c733ff"/>
    <path d="M 291.239588 293.682232 
L 291.693301 293.198983 
L 291.944319 292.562509 
L 292.196888 292.432559 
L 292.532074 292.412156 
L 293.227894 292.75419 
L 293.331404 292.887609 
L 293.385337 293.341056 
L 293.219906 293.764589 
L 292.812006 294.213038 
L 291.404193 294.2478 
L 291.213842 294.10058 
L 291.239588 293.682232 
" clip-path="url(#pc9cf35f6b2)" style="fill: #c733ff"/>
    <path d="M 287.941367 214.043853 
L 288.224369 213.859558 
L 288.244767 213.683394 
L 288.529419 213.747735 
L 288.662272 214.198086 
L 288.548398 214.412519 
L 288.529419 214.605543 
L 288.829617 215.406021 
L 289.459984 216.732718 
L 289.592177 217.60787 
L 290.18046 219.21625 
L 290.484091 220.417174 
L 290.806701 221.36077 
L 291.186248 221.832568 
L 291.736606 222.282919 
L 292.324889 222.304366 
L 292.704436 222.433011 
L 293.748215 223.119279 
L 294.127762 222.711822 
L 294.602171 222.561693 
L 295.399224 223.054938 
L 296.15165 223.131364 
L 296.214165 223.153744 
L 296.207564 223.235802 
L 294.583589 224.227924 
L 294.190773 224.354742 
L 293.930018 224.354742 
L 293.428312 224.246574 
L 292.485765 223.824347 
L 291.758127 223.108985 
L 290.959325 222.653934 
L 290.823997 222.508467 
L 290.701871 222.333198 
L 290.212378 221.760021 
L 289.467081 219.65791 
L 289.153284 218.983876 
L 288.643359 218.072096 
L 288.329562 216.447267 
L 287.898062 215.654882 
L 287.985695 214.980363 
L 287.820694 214.629638 
L 287.941367 214.043853 
" clip-path="url(#pc9cf35f6b2)" style="fill: #c733ff"/>
    <path d="M 265.853374 291.094076 
L 266.40865 290.9642 
L 267.61852 290.691169 
L 268.165545 291.404778 
L 267.147841 291.899963 
L 265.814162 291.738793 
L 265.853374 291.094076 
" clip-path="url(#pc9cf35f6b2)" style="fill: #c733ff"/>
    <path d="M 208.552897 98.557367 
L 209.572746 98.326559 
L 210.906425 97.59583 
L 211.612477 96.980542 
L 212.004732 97.057453 
L 212.004732 97.980422 
L 211.377104 98.595822 
L 210.043458 99.172879 
L 208.788236 99.365268 
L 208.160642 98.980527 
L 208.552897 98.557367 
" clip-path="url(#pc9cf35f6b2)" style="fill: #c733ff"/>
    <path d="M 110.83784 58.164347 
L 110.855433 58.073785 
L 111.02225 57.902917 
L 111.099421 57.87636 
L 111.141472 57.798554 
L 111.137049 57.707954 
L 111.084336 57.567821 
L 111.094767 57.425039 
L 111.143881 57.372 
L 111.299047 57.277894 
L 111.3341 57.174463 
L 111.358591 57.013741 
L 111.436554 56.789759 
L 111.490916 56.711915 
L 111.554884 56.515274 
L 111.56977 56.418669 
L 111.738963 56.053658 
L 111.804746 55.949332 
L 111.883699 55.885215 
L 111.930206 55.798009 
L 112.089761 55.411552 
L 112.184425 54.927744 
L 112.127323 54.743112 
L 112.057052 54.610626 
L 112.021899 54.485002 
L 112.02015 54.438863 
L 112.069264 54.343078 
L 112.045532 54.237932 
L 111.935718 54.064453 
L 111.854851 53.761881 
L 111.862905 53.697205 
L 111.866485 53.697144 
L 112.775382 53.681763 
L 113.525861 53.679637 
L 114.483789 53.692356 
L 115.780138 53.669342 
L 115.797961 53.669529 
L 115.830869 53.668932 
L 116.221243 53.670237 
L 116.222959 53.670237 
L 116.389413 53.669379 
L 116.394199 53.669342 
L 116.49256 53.662479 
L 116.590029 53.665015 
L 116.784572 53.666731 
L 117.362788 53.669193 
L 117.577928 53.673482 
L 119.489988 53.665948 
L 119.616437 53.668671 
L 119.892178 53.667701 
L 120.607834 53.666656 
L 121.327023 53.660577 
L 121.596129 53.669678 
L 121.677425 53.660614 
L 122.026341 53.663635 
L 122.095326 53.663896 
L 122.865708 53.666806 
L 123.031535 53.669491 
L 123.059624 53.670349 
L 123.116693 53.666955 
L 123.148314 53.669529 
L 123.194854 53.668708 
L 123.215054 53.666134 
L 123.785876 53.736704 
L 124.055564 53.718426 
L 124.212921 53.70776 
L 126.23146 53.63848 
L 126.26361 53.637377 
L 126.985076 53.619585 
L 127.506124 53.646776 
L 127.707301 53.623464 
L 129.365505 53.634057 
L 129.516347 53.632229 
L 129.857144 53.634467 
L 130.310923 53.617198 
L 130.430474 53.626373 
L 130.736086 53.629842 
L 131.486895 53.627567 
L 131.681042 53.651998 
L 134.013413 53.687656 
L 135.322898 53.692356 
L 135.822821 53.690341 
L 137.177856 53.699741 
L 137.225287 53.698883 
L 138.696638 53.714661 
L 138.705569 53.714831 
L 140.039229 53.740285 
L 140.595298 53.723538 
L 140.631572 53.718204 
L 140.694748 53.718577 
L 141.325742 53.799479 
L 141.9198 53.803452 
L 142.245877 53.805633 
L 142.698105 53.805745 
L 145.902751 53.784261 
L 146.039729 53.780009 
L 147.4754 53.853749 
L 147.709882 53.836778 
L 148.13511 53.850206 
L 149.509157 53.825626 
L 149.628477 53.833347 
L 151.271894 53.823686 
L 151.700126 53.819098 
L 151.808719 53.818763 
L 151.810934 53.818711 
L 152.27415 53.807834 
L 152.448262 53.807722 
L 152.592271 53.808543 
L 154.582855 53.824395 
L 155.089446 53.833011 
L 156.172008 53.830922 
L 156.76983 53.811639 
L 158.458513 53.823594 
L 158.687534 53.825216 
L 158.853493 53.832936 
L 159.058961 53.836368 
L 159.260073 53.837263 
L 160.777238 53.865797 
L 162.780859 53.857703 
L 162.904635 53.853451 
L 163.479716 53.850691 
L 163.482381 53.850728 
L 164.680971 53.867476 
L 168.149837 53.845171 
L 172.889769 53.793996 
L 172.9001 53.777025 
L 178.518699 53.735595 
L 181.195904 53.715854 
L 181.208651 53.71563 
L 181.52868 53.710007 
L 189.6004 53.568186 
L 192.543828 53.569977 
L 192.617566 53.570014 
L 192.621956 53.568 
L 192.828249 53.575199 
L 195.742665 53.579264 
L 195.832807 53.579264 
L 195.922388 53.579264 
L 196.613289 53.576915 
L 196.647881 53.576691 
L 196.733534 53.576057 
L 196.845889 53.575646 
L 197.563428 53.575609 
L 197.583199 53.575646 
L 197.584981 53.710222 
L 197.557751 54.089742 
L 197.445725 54.35438 
L 197.445824 54.457475 
L 197.473088 54.544606 
L 197.508702 54.590708 
L 197.643965 54.675825 
L 197.647265 54.664635 
L 197.719881 54.675825 
L 198.036814 54.765343 
L 198.142436 54.813832 
L 198.218352 54.8847 
L 198.297569 55.045087 
L 198.314072 55.130875 
L 198.314072 55.291299 
L 198.228254 55.582233 
L 198.201848 55.74262 
L 198.182044 55.951496 
L 198.198548 56.033554 
L 198.281065 56.111845 
L 198.459336 56.182714 
L 198.597965 56.279729 
L 198.650809 56.510984 
L 198.739928 56.686291 
L 199.089835 57.048093 
L 199.215261 57.245779 
L 199.30438 57.428583 
L 199.538762 57.760509 
L 199.578371 57.790348 
L 199.622963 57.826155 
L 199.685247 57.867222 
L 199.726803 57.902432 
L 199.773508 57.984565 
L 199.768326 58.125332 
L 199.700826 58.230926 
L 199.674883 58.336521 
L 199.695644 58.43044 
L 199.763111 58.54189 
L 199.799451 58.618167 
L 199.820246 58.7003 
L 199.799451 58.800001 
L 199.773508 58.882134 
L 199.77869 59.034688 
L 199.84576 59.140618 
L 199.950029 59.239983 
L 199.991552 59.31626 
L 200.007131 59.410104 
L 200.007131 59.474707 
L 199.97079 59.556802 
L 199.887712 59.662434 
L 199.815031 59.791489 
L 199.77869 59.908795 
L 199.768326 60.143445 
L 199.752746 60.290105 
L 199.773508 60.419235 
L 199.921709 60.669923 
L 200.007527 60.871302 
L 200.020763 60.95709 
L 199.984455 61.162236 
L 200.00756 61.318893 
L 200.060371 61.427061 
L 200.347532 61.878419 
L 200.367336 61.960477 
L 200.347532 62.102214 
L 200.278217 62.329739 
L 200.446586 62.508738 
L 200.469691 62.79225 
L 200.496096 62.840739 
L 200.575313 62.881768 
L 200.733779 62.904148 
L 200.839401 62.859389 
L 200.935122 62.855659 
L 201.02094 62.874308 
L 201.07045 62.904148 
L 201.35431 63.232381 
L 201.430259 63.486016 
L 201.476469 63.575534 
L 201.75376 63.765797 
L 201.940877 63.974449 
L 202.111985 64.36031 
L 202.152659 64.361682 
L 203.044266 64.391753 
L 209.365627 64.71689 
L 210.634118 64.796226 
L 210.63864 64.795965 
L 212.846178 64.91148 
L 212.989032 64.92088 
L 214.990442 65.060006 
L 218.086921 65.16543 
L 218.274866 65.171829 
L 221.326304 65.338834 
L 221.367585 65.341093 
L 222.401066 65.382533 
L 226.527233 65.610021 
L 227.094853 65.655824 
L 227.888306 65.693361 
L 228.760813 65.734637 
L 229.111446 65.753473 
L 229.269715 65.765484 
L 229.339128 65.767684 
L 230.405847 65.831914 
L 230.406837 65.831969 
L 234.600306 66.066526 
L 234.603507 66.065593 
L 234.624967 66.066971 
L 235.428846 66.118558 
L 236.562008 66.185697 
L 236.903663 66.213 
L 239.111576 66.343097 
L 241.318938 66.473162 
L 241.408552 66.479055 
L 243.467955 66.609304 
L 243.468798 66.609352 
L 247.157968 66.817546 
L 248.840762 66.939179 
L 249.133666 66.953614 
L 249.478193 66.97327 
L 249.481724 66.972412 
L 250.782727 67.053949 
L 251.132699 67.078305 
L 251.853116 67.127723 
L 252.401817 67.165361 
L 253.371066 67.231344 
L 253.443418 67.237312 
L 253.452215 67.237897 
L 254.670551 67.319036 
L 257.472544 67.505642 
L 257.900974 67.534698 
L 258.267451 67.555176 
L 258.503087 67.56976 
L 259.150616 67.626437 
L 259.321693 67.641411 
L 267.659251 68.182288 
L 267.709421 68.184451 
L 273.596675 68.58553 
L 273.606049 68.586984 
L 273.907269 68.605666 
L 273.914565 68.606119 
L 277.390655 68.827137 
L 277.876654 68.858038 
L 278.000826 68.870832 
L 278.407373 68.896493 
L 278.674861 68.917866 
L 278.966082 68.93562 
L 279.340183 68.961581 
L 281.49044 69.107209 
L 281.497418 69.107682 
L 282.839647 69.202014 
L 284.29324 69.304174 
L 287.181481 69.510998 
L 288.146736 69.58183 
L 288.419341 69.60779 
L 289.574683 69.692534 
L 289.575371 69.695331 
L 289.589669 69.753481 
L 289.451237 69.84878 
L 289.304489 69.893278 
L 289.164902 69.97418 
L 289.011024 70.152135 
L 288.889327 70.576787 
L 288.882164 70.863953 
L 288.910815 71.017664 
L 289.049444 71.252947 
L 289.094102 71.474318 
L 289.061821 71.604269 
L 289.175497 71.867564 
L 289.238442 71.958984 
L 289.453416 72.094865 
L 289.640301 72.297624 
L 289.851777 72.554019 
L 290.017769 72.804409 
L 290.033546 73.204518 
L 289.912213 73.412274 
L 289.810089 73.724283 
L 289.816228 73.857665 
L 289.865145 73.910667 
L 289.905314 74.047443 
L 289.933304 74.320958 
L 289.850424 74.597942 
L 289.738728 74.756949 
L 289.724832 75.063885 
L 289.927528 75.931502 
L 290.297569 76.772637 
L 290.399659 76.878604 
L 290.599352 76.961632 
L 290.724118 77.151411 
L 291.005007 77.478003 
L 291.052999 77.513064 
L 291.213479 77.54641 
L 291.326858 77.553273 
L 291.447267 77.476362 
L 291.936694 77.34656 
L 292.824516 77.199527 
L 293.205779 77.162787 
L 293.282817 77.181287 
L 293.318597 77.228583 
L 293.305988 77.274088 
L 293.540734 77.443986 
L 293.989001 77.517652 
L 294.404031 77.503553 
L 294.684557 77.460883 
L 295.013471 77.385911 
L 295.017546 77.383925 
L 295.084502 77.351297 
L 295.321228 77.094194 
L 295.450648 76.80602 
L 295.482137 76.529894 
L 295.307398 76.098901 
L 295.280134 75.859253 
L 295.307398 75.609349 
L 295.346775 75.44844 
L 295.543728 75.147136 
L 295.528578 74.934866 
L 295.437941 74.69354 
L 295.471146 74.546507 
L 295.673808 74.308016 
L 295.734937 74.213164 
L 295.825871 73.826781 
L 295.882742 73.47117 
L 296.079299 73.180497 
L 296.105605 73.042564 
L 296.095208 72.71213 
L 296.064677 72.546261 
L 296.141583 72.418921 
L 296.178617 71.765774 
L 296.143762 71.573422 
L 296.105341 71.528961 
L 296.043354 71.362234 
L 296.060089 71.087823 
L 296.22991 70.382607 
L 296.485351 69.882611 
L 296.39907 69.378213 
L 296.266448 68.753227 
L 296.147656 68.457407 
L 296.121416 68.428313 
L 295.776856 68.291463 
L 295.763752 68.27009 
L 295.790059 68.024736 
L 295.725431 67.706722 
L 295.54627 67.416758 
L 295.424738 67.279945 
L 295.347766 67.135447 
L 295.375789 66.986698 
L 295.359186 66.905498 
L 295.270826 66.676368 
L 295.143981 66.590021 
L 295.031988 66.448992 
L 295.001457 65.676189 
L 295.285977 65.075261 
L 295.463752 64.545277 
L 295.426223 64.095597 
L 295.373709 63.926333 
L 295.312448 63.85539 
L 295.220524 63.685268 
L 295.307233 63.513431 
L 295.344927 63.390343 
L 295.357866 63.010637 
L 295.379881 62.953383 
L 295.479001 62.888631 
L 295.588551 62.900716 
L 295.728699 62.889265 
L 296.074711 62.72955 
L 296.248229 62.504785 
L 296.283315 62.436415 
L 296.075899 61.961857 
L 295.872774 61.689125 
L 295.878947 61.557496 
L 295.91136 61.508783 
L 296.103295 61.372044 
L 296.406497 61.324301 
L 296.501953 61.368799 
L 296.832089 61.580323 
L 296.967978 61.746752 
L 297.042244 61.804753 
L 297.284251 61.92743 
L 297.357262 61.940559 
L 297.361036 61.938862 
L 297.529064 61.863275 
L 297.902801 61.190397 
L 297.92079 61.044296 
L 297.905871 60.745977 
L 297.896035 60.552207 
L 297.914651 60.389396 
L 297.994396 60.271232 
L 298.323541 60.035314 
L 298.542014 60.037515 
L 298.700018 60.100513 
L 298.796993 60.272612 
L 298.823035 60.298983 
L 299.159937 60.405621 
L 299.606291 60.468172 
L 299.759674 60.426136 
L 299.843314 60.352619 
L 299.889787 60.284324 
L 299.987389 60.252806 
L 300.108194 60.273843 
L 300.201142 60.3421 
L 300.254712 60.466046 
L 300.537153 60.869698 
L 300.730012 61.078872 
L 301.003112 61.33109 
L 301.530662 61.26824 
L 301.739926 61.413372 
L 301.87948 61.541234 
L 301.935031 61.568686 
L 302.37607 61.47361 
L 302.986203 61.43329 
L 303.048157 61.445636 
L 303.506426 61.641494 
L 303.784311 62.045929 
L 303.840324 62.182184 
L 303.955288 62.25212 
L 304.092266 62.242123 
L 304.171813 62.197178 
L 304.242547 62.087294 
L 304.317671 62.032353 
L 304.476764 62.037351 
L 304.609915 62.128473 
L 304.750656 62.242534 
L 304.875819 62.288673 
L 304.998307 62.31206 
L 305.039896 62.333096 
L 305.082046 62.364875 
L 305.110168 62.408553 
L 305.134758 62.46812 
L 305.146113 62.556108 
L 305.157929 62.582628 
L 305.504799 62.93947 
L 305.673168 63.040178 
L 305.910818 63.126003 
L 306.740943 62.984975 
L 306.805735 63.033986 
L 306.838643 63.149987 
L 306.865973 63.192881 
L 306.934133 63.245361 
L 307.465611 63.338572 
L 307.554729 63.290083 
L 307.581135 63.249054 
L 307.615759 63.12563 
L 307.646753 63.087697 
L 307.737126 63.052673 
L 307.817168 63.055582 
L 308.003063 63.1081 
L 308.069286 63.153461 
L 308.148888 63.207987 
L 308.16209 63.290083 
L 308.147633 63.461174 
L 308.160539 63.586649 
L 308.204438 63.682918 
L 308.245763 63.720852 
L 308.3465 63.761694 
L 308.771333 63.686648 
L 308.892039 63.582061 
L 309.040934 63.559309 
L 309.145533 63.627529 
L 309.182072 63.689185 
L 309.22201 63.863969 
L 309.286374 63.968519 
L 309.555974 64.018537 
L 309.616311 63.973069 
L 309.680708 63.845767 
L 309.737018 63.773033 
L 309.829569 63.74118 
L 310.079036 63.841216 
L 310.30444 63.90552 
L 310.736864 63.957702 
L 310.81278 63.983811 
L 310.98445 64.125548 
L 311.13341 64.209061 
L 311.435094 64.1577 
L 311.546657 64.195074 
L 311.621055 64.25576 
L 311.695419 64.269784 
L 311.761565 64.283809 
L 311.819394 64.293134 
L 311.873162 64.288471 
L 311.926864 64.25576 
L 311.997136 64.18105 
L 312.030869 64.121818 
L 312.046713 64.050316 
L 312.088037 63.98493 
L 312.162435 63.938232 
L 312.2368 63.919545 
L 312.46326 63.950242 
L 312.63823 63.961432 
L 312.932025 63.935322 
L 313.515555 63.817307 
L 313.588336 63.818016 
L 313.705378 63.899701 
L 313.970523 64.240505 
L 314.074726 64.29429 
L 314.343139 64.378847 
L 314.491241 64.401637 
L 314.862932 64.441958 
L 315.014566 64.428493 
L 315.390813 64.678286 
L 315.565914 64.86467 
L 315.452932 65.932435 
L 315.048398 68.485754 
L 315.066057 70.192157 
L 315.346616 71.408858 
L 315.058779 71.880662 
L 314.916767 72.11344 
L 315.147122 72.337273 
L 315.612454 72.372297 
L 316.114193 72.920596 
L 316.239653 75.158513 
L 316.556057 75.957238 
L 316.589559 78.21705 
L 316.748026 79.582165 
L 316.949401 80.686222 
L 317.13509 81.466796 
L 317.936771 84.836806 
L 319.475325 92.040146 
L 319.92785 93.562925 
L 320.136223 94.064003 
L 320.546005 94.613047 
L 320.747281 95.260338 
L 320.937038 96.188865 
L 320.956191 96.815462 
L 320.979848 97.589414 
L 320.986894 97.632255 
L 321.018898 97.826854 
L 321.200499 98.931068 
L 321.72158 100.627251 
L 322.11466 101.542014 
L 322.647297 103.184153 
L 322.690632 103.317756 
L 324.274438 107.487624 
L 325.584319 110.502335 
L 326.309581 112.270689 
L 327.349408 114.806025 
L 327.731038 115.736526 
L 328.13305 116.716723 
L 330.296341 121.572294 
L 330.611428 122.279516 
L 330.790176 122.680721 
L 330.910454 122.912025 
L 331.509728 124.064486 
L 332.734319 125.802593 
L 333.183214 126.850664 
L 333.691521 127.805524 
L 334.070006 128.439655 
L 336.703538 132.851999 
L 338.511545 135.986201 
L 339.254844 137.274718 
L 341.3157 140.214532 
L 342.322346 141.830111 
L 343.408473 143.204812 
L 343.706064 143.672507 
L 343.953847 144.523414 
L 344.164695 145.702704 
L 344.985182 147.645584 
L 345.348952 148.361468 
L 345.294887 148.6505 
L 344.10185 149.169929 
L 343.730225 149.543481 
L 343.278788 150.174136 
L 343.002817 150.926611 
L 342.82885 151.655607 
L 342.765167 151.922463 
L 342.649643 152.948155 
L 342.610034 153.888058 
L 342.662384 154.708781 
L 342.737441 155.885507 
L 343.207427 158.85986 
L 343.98451 161.931825 
L 344.603622 163.678734 
L 344.716833 163.936941 
L 345.884424 166.599936 
L 347.927489 170.647761 
L 347.923821 170.692481 
L 347.920689 170.730677 
L 350.016103 175.194873 
L 351.0716 178.828639 
L 351.11002 179.360601 
L 351.314102 179.813227 
L 351.756857 180.510163 
L 351.963382 181.568081 
L 352.076525 182.008229 
L 352.390558 183.229874 
L 352.740002 184.136656 
L 353.004025 184.136656 
L 353.916205 187.11209 
L 354.307998 188.632109 
L 354.972329 190.067495 
L 355.196281 190.760179 
L 356.102818 192.987479 
L 356.307394 193.49011 
L 357.351075 195.60617 
L 357.618266 196.482926 
L 357.45644 196.659995 
L 357.414316 196.706088 
L 357.735606 197.443419 
L 358.105779 198.638486 
L 358.82642 200.097632 
L 359.581058 202.104704 
L 360.055638 203.898312 
L 360.811771 206.756001 
L 361.153707 208.0483 
L 361.505816 209.727874 
L 361.645544 210.394384 
L 361.630935 210.934703 
L 361.620525 211.319741 
L 361.480509 211.330558 
L 361.444202 211.513324 
L 361.596034 213.41924 
L 361.571542 214.369737 
L 361.50028 214.890397 
L 361.487128 216.066031 
L 361.475103 217.140883 
L 361.473809 217.256586 
L 361.397959 218.861012 
L 361.018379 221.091432 
L 360.681675 223.51204 
L 360.643489 223.97893 
L 360.633677 224.0989 
L 360.625975 224.193069 
L 360.351605 227.547706 
L 360.295493 227.588697 
L 360.210558 228.122986 
L 360.196472 228.211595 
L 360.044607 230.236868 
L 359.856468 230.80005 
L 359.731041 231.449056 
L 359.334925 234.58581 
L 359.206198 236.506646 
L 359.160098 236.616881 
L 359.064268 236.846032 
L 358.793215 240.605645 
L 358.792554 241.024027 
L 358.789056 243.238859 
L 358.691157 244.45556 
L 358.701003 244.850609 
L 358.730303 246.026194 
L 358.652011 246.888925 
L 358.47582 247.884404 
L 358.456247 248.592307 
L 358.307669 248.980584 
L 358.18145 249.310434 
L 358.143043 249.410801 
L 357.927706 249.764733 
L 357.634076 251.1805 
L 357.59493 251.910521 
L 357.653649 252.153861 
L 357.565554 252.574186 
L 357.369789 252.596305 
L 356.841249 251.844166 
L 357.056586 250.892923 
L 357.252351 250.472636 
L 357.193598 250.207177 
L 356.978261 249.875326 
L 356.586765 249.587749 
L 356.156091 249.632023 
L 355.118583 250.074429 
L 354.746627 250.384125 
L 354.609582 250.649583 
L 354.413818 251.733536 
L 353.904851 252.839645 
L 353.889969 252.932152 
L 353.865705 253.082985 
L 353.532928 253.636021 
L 353.160973 253.879361 
L 352.886916 254.189057 
L 352.730298 254.520871 
L 352.593286 255.27301 
L 352.593286 255.936638 
L 352.710725 256.224215 
L 352.31923 257.286049 
L 351.966847 257.418797 
L 351.952024 257.43076 
L 351.932574 257.446455 
L 351.829802 257.52939 
L 351.477453 258.768209 
L 351.477453 259.542467 
L 351.555746 260.029147 
L 351.849409 260.86976 
L 352.103892 261.090982 
L 351.908128 261.621899 
L 351.927701 262.550986 
L 352.103892 262.794326 
L 352.436668 262.860681 
L 352.55414 263.059784 
L 352.436668 263.48011 
L 351.614498 264.763166 
L 351.046778 265.09498 
L 350.743345 265.183454 
L 350.332277 265.559542 
L 350.258603 265.987672 
L 350.234972 266.124998 
L 350.603033 266.751886 
L 351.513629 266.576505 
L 353.102287 265.486212 
L 353.709681 264.399834 
L 353.770744 264.255364 
L 354.442699 262.665569 
L 356.071857 259.292524 
L 356.870691 257.957809 
L 356.849435 259.272905 
L 355.952933 261.936033 
L 354.41966 264.536014 
L 354.374123 264.619255 
L 353.309339 266.565651 
L 351.874065 269.048438 
L 350.858177 271.681167 
L 349.244367 273.504316 
L 347.865898 274.659436 
L 346.425111 276.376805 
L 343.816109 279.122439 
L 340.972196 281.225071 
L 340.617041 280.830818 
L 342.914854 278.65907 
L 344.699738 276.943231 
L 346.284798 275.64298 
L 347.206089 273.963917 
L 347.453212 272.45479 
L 347.460506 271.362333 
L 348.0612 270.336418 
L 347.347325 269.598415 
L 346.329259 269.943768 
L 346.016485 269.691029 
L 345.697274 269.221133 
L 345.463387 269.133256 
L 344.778031 269.698675 
L 343.892636 269.824502 
L 343.423932 269.891112 
L 343.285159 269.910833 
L 342.553956 269.923291 
L 341.592958 270.284273 
L 340.763229 270.411725 
L 340.314433 271.079978 
L 339.47368 271.668858 
L 339.145591 271.71966 
L 338.770236 271.192286 
L 338.139902 271.279976 
L 338.125808 271.808879 
L 337.999886 271.897017 
L 336.766185 271.095569 
L 336.454171 270.594081 
L 335.874667 270.457342 
L 335.540142 270.897473 
L 334.931758 270.801278 
L 334.659879 270.746858 
L 334.361219 270.809056 
L 334.355225 270.810304 
L 333.784436 270.894414 
L 332.972266 271.35271 
L 332.921073 271.65972 
L 333.01039 271.889147 
L 332.9554 272.186907 
L 332.448842 272.126035 
L 331.548016 272.381833 
L 331.078954 272.334799 
L 330.6057 272.399923 
L 329.700947 272.763068 
L 329.356948 272.719018 
L 328.914952 272.570194 
L 328.006733 272.611969 
L 327.037846 272.965417 
L 326.553799 272.657437 
L 325.978851 271.970534 
L 325.692582 271.715706 
L 325.265108 271.56677 
L 325.018976 271.284303 
L 324.977585 270.570694 
L 324.830407 270.192517 
L 324.541794 269.634558 
L 323.9951 269.105729 
L 324.032629 268.226176 
L 324.118447 267.953108 
L 324.324311 266.585905 
L 324.415971 266.259089 
L 324.646789 265.999934 
L 324.758518 265.532798 
L 324.659464 265.282931 
L 324.785319 264.98353 
L 325.049507 264.673051 
L 325.253688 264.602966 
L 325.666374 264.761338 
L 325.772062 264.520012 
L 325.803188 264.156979 
L 325.432619 263.203685 
L 325.00673 263.172092 
L 324.705938 262.952139 
L 324.701053 262.506376 
L 324.816973 262.316485 
L 324.829483 262.194144 
L 324.107059 260.095279 
L 323.752102 259.663391 
L 323.338921 259.315837 
L 322.801667 258.56269 
L 322.73737 258.116927 
L 322.96756 257.472695 
L 322.92749 257.295598 
L 322.764699 256.933684 
L 322.228798 256.56595 
L 321.992865 256.010341 
L 321.981444 255.517208 
L 321.734948 255.052683 
L 320.712723 254.482042 
L 320.668691 253.600997 
L 320.120743 252.855162 
L 320.090905 251.753006 
L 319.378911 251.178412 
L 318.509409 251.552001 
L 318.102961 251.666248 
L 317.923734 251.155473 
L 317.948093 250.215495 
L 317.056608 249.441946 
L 317.005348 248.424236 
L 315.996457 248.171459 
L 315.679161 247.791306 
L 314.210352 247.433233 
L 314.086576 246.92559 
L 312.675759 246.115787 
L 311.589434 245.706726 
L 310.447756 244.695767 
L 309.383216 244.051796 
L 309.094504 243.933147 
L 308.546527 243.909784 
L 308.399014 243.903494 
L 308.070925 244.066641 
L 307.763036 244.364065 
L 307.472179 245.443916 
L 307.285558 245.867374 
L 307.070583 245.796356 
L 306.91413 245.591024 
L 306.13411 243.917855 
L 305.985083 243.75109 
L 305.674851 243.558327 
L 305.514305 242.651993 
L 305.310718 242.260239 
L 305.064453 241.975497 
L 304.92764 241.571919 
L 304.990023 240.310832 
L 304.896481 240.155966 
L 304.672199 240.08327 
L 304.507956 239.870813 
L 303.213291 236.80642 
L 302.976631 234.41856 
L 302.78595 233.638223 
L 302.713335 232.370086 
L 302.585763 231.267185 
L 302.174265 229.111924 
L 301.797557 227.873813 
L 301.755355 227.774374 
L 300.991263 225.973939 
L 300.366376 225.283147 
L 299.904442 224.772493 
L 299.878037 224.574807 
L 299.580974 224.164553 
L 299.188158 223.81021 
L 298.699655 223.496897 
L 298.098929 223.224612 
L 297.848043 223.015774 
L 297.752323 222.833008 
L 297.782029 222.750949 
L 297.673205 222.323948 
L 297.303428 222.157892 
L 296.765415 222.012462 
L 296.371014 222.04245 
L 296.215255 221.789673 
L 296.367087 221.253534 
L 296.161849 220.371855 
L 295.306738 220.522581 
L 295.294407 220.50309 
L 294.749746 219.64217 
L 294.721714 219.696281 
L 294.415253 220.287857 
L 294.450372 220.953313 
L 294.788958 221.680797 
L 294.29854 221.725332 
L 293.539446 222.047001 
L 293.178878 222.047001 
L 292.970142 219.923928 
L 292.742394 219.173356 
L 292.628553 218.487125 
L 292.116153 216.321158 
L 291.717627 215.699231 
L 290.673881 214.669884 
L 290.730818 214.112297 
L 290.939554 213.919274 
L 291.66069 213.833486 
L 292.078195 213.87638 
L 292.514679 214.005062 
L 292.742394 214.326731 
L 293.159899 215.205986 
L 293.368668 215.377562 
L 293.596383 215.270327 
L 293.639508 215.119715 
L 293.805152 214.541201 
L 293.862056 213.897827 
L 294.032867 213.361725 
L 294.469351 212.396682 
L 294.619392 211.360431 
L 294.640129 211.217205 
L 294.640129 210.659619 
L 294.848899 210.166374 
L 294.754003 209.437249 
L 294.735024 208.815321 
L 294.791962 208.064749 
L 294.716045 207.399927 
L 294.469351 207.185494 
L 293.672299 206.949614 
L 293.596383 206.284792 
L 293.691278 205.662902 
L 293.918993 205.491325 
L 294.431393 205.491325 
L 294.62115 205.362643 
L 294.640129 205.083869 
L 294.631489 205.018779 
L 294.583192 204.654965 
L 294.146741 204.354743 
L 294.066172 204.356399 
L 293.102962 204.37619 
L 292.799331 204.504835 
L 292.552637 204.826504 
L 292.135132 205.555667 
L 291.319101 205.577114 
L 291.072407 205.662902 
L 290.882617 205.898782 
L 290.958533 206.627908 
L 291.508891 208.322076 
L 291.812522 210.638172 
L 291.679669 210.874053 
L 290.958533 211.045629 
L 290.768776 211.281509 
L 290.453851 211.345098 
L 289.772923 211.48259 
L 289.405252 211.409205 
L 289.054197 211.339137 
L 288.667091 211.517278 
L 288.418747 211.639918 
L 288.318604 213.327783 
L 287.838649 213.235169 
L 287.930442 211.867816 
L 287.771447 210.82948 
L 287.698827 210.648861 
L 287.12494 209.22151 
L 286.707402 208.706631 
L 285.059926 206.215192 
L 284.264846 204.810614 
L 283.443608 203.359823 
L 282.829678 202.024548 
L 281.954994 200.536383 
L 281.473059 199.070561 
L 281.308025 198.667766 
L 281.190157 198.560344 
L 280.921843 197.530177 
L 280.240894 196.084975 
L 279.756697 195.057349 
L 279.747199 195.039018 
L 278.852307 193.31182 
L 278.674036 193.061915 
L 278.215239 192.770981 
L 277.860943 192.374639 
L 277.866083 192.154962 
L 277.877644 191.660881 
L 277.654121 191.260437 
L 276.940874 190.274618 
L 276.074969 189.287978 
L 275.449223 188.261727 
L 275.448701 188.261095 
L 274.383098 186.971248 
L 273.831882 186.490088 
L 273.858849 186.224779 
L 273.303771 184.610319 
L 273.082624 184.132889 
L 272.752522 183.640576 
L 272.142058 182.988884 
L 272.051916 182.699889 
L 272.161202 182.68027 
L 273.293869 183.271314 
L 273.461973 184.224757 
L 273.878092 184.282086 
L 274.01012 184.252246 
L 273.993616 183.849414 
L 274.102539 183.659188 
L 274.399602 183.416781 
L 274.815523 183.297423 
L 275.188501 183.286196 
L 275.343832 182.897351 
L 275.804642 182.212239 
L 276.465904 181.491506 
L 276.433425 181.058611 
L 276.441796 181.040619 
L 276.475872 180.967377 
L 276.978535 180.640561 
L 277.369964 180.566858 
L 277.832788 180.087153 
L 277.995842 179.832361 
L 278.231149 178.975785 
L 278.367494 178.729064 
L 278.937234 177.698099 
L 279.356596 177.02177 
L 279.692466 176.480093 
L 280.331943 175.981215 
L 280.415605 175.974202 
L 280.742615 175.946788 
L 280.901412 175.830489 
L 280.945674 175.572192 
L 280.918212 175.374991 
L 280.747368 175.097746 
L 280.878274 174.963431 
L 281.564687 174.727663 
L 282.32081 174.288129 
L 282.408444 174.148741 
L 282.342397 173.925132 
L 282.834695 173.191084 
L 282.856645 172.839725 
L 283.10631 172.553229 
L 283.369705 172.485979 
L 283.678813 171.569836 
L 283.682413 171.559167 
L 283.547745 171.032801 
L 283.377693 169.877606 
L 283.004714 169.176418 
L 282.397353 169.180148 
L 282.225574 169.117657 
L 281.761144 168.948706 
L 281.48306 168.796003 
L 281.496263 168.598317 
L 281.415 168.480228 
L 280.887384 168.196231 
L 280.49942 168.497609 
L 280.456511 168.687835 
L 280.578637 169.415133 
L 280.557512 170.587634 
L 280.818927 170.972562 
L 281.099916 171.192777 
L 281.191807 171.343727 
L 281.072982 172.117164 
L 280.979473 172.175649 
L 280.498364 172.115374 
L 279.793863 171.913659 
L 278.382717 171.151002 
L 278.416648 170.619861 
L 278.888647 170.53784 
L 279.066885 170.321504 
L 279.175808 170.067869 
L 278.865543 169.788125 
L 278.750018 169.579249 
L 278.785369 169.463435 
L 278.981067 169.303272 
L 279.129598 169.083207 
L 279.050382 167.997837 
L 278.802829 167.401086 
L 278.383641 166.7297 
L 277.654682 166.639212 
L 276.014831 165.494983 
L 275.505731 164.87313 
L 275.26119 164.740991 
L 274.56434 164.364443 
L 273.889644 164.474029 
L 274.247242 165.49793 
L 273.803364 166.102066 
L 273.711865 166.286609 
L 273.360114 166.996054 
L 273.016577 167.050473 
L 272.88455 167.147451 
L 272.765724 167.434655 
L 272.855119 167.730111 
L 272.897752 167.871019 
L 273.231123 168.173143 
L 273.615312 168.358126 
L 273.759366 168.427486 
L 274.053029 168.620734 
L 274.511826 168.743784 
L 275.57158 169.015024 
L 275.733116 169.090667 
L 275.802431 169.560637 
L 276.531885 170.217066 
L 276.914006 170.810833 
L 277.033623 171.339736 
L 277.215162 171.62694 
L 277.307581 172.335588 
L 276.617703 172.999477 
L 276.325708 173.409935 
L 276.112597 173.709506 
L 275.898499 174.515132 
L 275.855242 174.677906 
L 276.03678 175.468612 
L 276.013675 175.681218 
L 275.75292 176.292888 
L 275.548277 176.542793 
L 275.129056 176.67707 
L 274.785783 176.602472 
L 274.775048 176.597452 
L 274.498623 176.468194 
L 274.310483 176.457005 
L 274.248584 176.875317 
L 274.24678 176.887512 
L 273.768278 176.680427 
L 273.112066 176.738465 
L 272.940661 176.986654 
L 272.802032 177.76244 
L 272.848242 178.034725 
L 273.023179 178.500928 
L 273.147516 178.678547 
L 273.624929 178.969071 
L 273.396322 179.474401 
L 272.47018 179.934599 
L 272.355448 179.772198 
L 272.07743 178.671087 
L 272.053896 178.168517 
L 272.29224 177.490305 
L 272.306928 176.434625 
L 272.230979 176.009451 
L 272.036238 175.520831 
L 271.788685 175.334335 
L 271.551035 175.002409 
L 271.250672 174.155754 
L 270.818248 173.562696 
L 270.583898 173.271799 
L 269.586791 172.446031 
L 269.318511 172.12854 
L 269.0523 171.591905 
L 268.725541 170.933212 
L 268.639723 170.601286 
L 268.573709 169.739673 
L 268.682632 168.848259 
L 268.910585 167.848031 
L 268.911832 167.84256 
L 269.2252 166.911757 
L 269.29492 164.789271 
L 269.322405 163.952511 
L 268.828159 161.832609 
L 268.47241 159.320058 
L 268.468063 159.074595 
L 268.441351 157.566472 
L 268.596681 157.391165 
L 269.042011 157.659272 
L 269.137175 159.088039 
L 269.232429 160.518146 
L 269.807641 163.380378 
L 270.831451 163.413947 
L 270.795143 161.53414 
L 270.87766 160.739704 
L 270.702724 160.090697 
L 270.567395 159.81099 
L 270.293437 159.8371 
L 269.981521 159.724717 
L 270.092986 159.076531 
L 270.335092 158.494365 
L 271.494263 157.329733 
L 271.43429 157.290345 
L 271.446073 156.384869 
L 271.612131 156.023999 
L 272.037393 155.756489 
L 272.479554 154.609873 
L 272.391393 154.294433 
L 272.523519 153.373702 
L 272.960488 152.728722 
L 273.039682 152.611828 
L 273.36018 151.770506 
L 273.353248 150.529635 
L 273.646647 149.82688 
L 274.085508 149.533969 
L 274.263553 149.331174 
L 274.293386 149.297194 
L 274.394123 149.01413 
L 274.208987 148.445764 
L 274.47258 148.16408 
L 274.715347 147.429733 
L 274.734656 147.267332 
L 274.671282 146.948722 
L 274.547308 146.82045 
L 274.571403 146.107662 
L 274.616821 145.797332 
L 274.759906 145.722957 
L 274.794061 145.642466 
L 274.991318 145.177605 
L 274.825128 144.993757 
L 274.827735 144.829641 
L 274.979567 144.311741 
L 275.075684 143.460983 
L 274.748353 142.873632 
L 274.39815 141.344214 
L 274.588778 139.601801 
L 274.59431 139.55124 
L 273.153523 138.608949 
L 273.618657 137.262857 
L 272.563623 133.78862 
L 273.929484 131.720228 
L 273.475506 130.700243 
L 273.271688 130.58745 
L 272.774339 129.933707 
L 272.381788 129.18015 
L 272.311879 128.359791 
L 271.617605 128.450289 
L 271.563314 128.457366 
L 271.447658 128.210445 
L 271.602031 127.952632 
L 271.795617 127.211236 
L 271.591271 126.178196 
L 270.811514 125.789277 
L 270.902944 125.455038 
L 269.70258 125.356755 
L 269.480311 124.510547 
L 269.948217 124.29727 
L 270.222736 124.279255 
L 270.290368 124.072468 
L 270.298322 123.928605 
L 270.072984 123.356285 
L 270.104901 122.730553 
L 269.367625 122.290385 
L 268.340911 122.146783 
L 267.382653 122.166701 
L 266.21414 121.867262 
L 265.890936 121.93731 
L 265.465245 121.939921 
L 264.495699 121.824704 
L 264.335747 121.790873 
L 264.083574 121.482148 
L 263.93534 121.460887 
L 263.787105 121.557492 
L 263.058708 122.551778 
L 263.030355 122.928239 
L 262.65467 123.200561 
L 261.903629 123.319322 
L 261.782824 122.744018 
L 261.407139 122.487698 
L 261.648155 121.822876 
L 261.641059 121.630636 
L 261.506391 121.318218 
L 261.052743 120.853656 
L 260.760532 120.127216 
L 261.193088 118.950238 
L 261.109548 118.675865 
L 260.721782 118.259195 
L 260.112342 118.170162 
L 259.515246 117.798811 
L 259.434049 117.653792 
L 258.826126 117.412801 
L 258.716576 117.391391 
L 258.354622 117.509145 
L 258.177655 117.424505 
L 258.062642 117.369497 
L 257.826313 116.479351 
L 257.77601 115.9685 
L 257.822484 115.918034 
L 257.866515 115.342843 
L 257.402338 114.64434 
L 257.035268 114.255011 
L 256.977704 113.487877 
L 256.461838 112.515486 
L 255.72136 112.042308 
L 254.947149 111.944286 
L 254.681311 112.076698 
L 253.931128 111.865323 
L 253.523591 111.054886 
L 253.499364 110.71136 
L 253.376644 110.457538 
L 252.991519 110.415651 
L 252.730236 110.460224 
L 252.105183 109.946837 
L 251.885522 109.553591 
L 251.43775 109.553591 
L 251.141809 109.417188 
L 250.986049 109.065195 
L 250.448729 108.906785 
L 250.40582 108.681162 
L 250.462658 108.317458 
L 250.283562 106.62866 
L 250.289768 105.985211 
L 250.474211 105.336726 
L 250.322345 104.298241 
L 250.051796 103.323819 
L 250.035614 103.265537 
L 249.971812 103.189037 
L 249.260248 102.933425 
L 248.983781 102.942153 
L 248.86631 103.013059 
L 248.629914 102.968673 
L 247.712749 102.445215 
L 247.698754 102.144434 
L 247.363371 101.777186 
L 246.736634 101.475361 
L 245.913804 101.229932 
L 245.599347 100.888159 
L 245.341199 100.501105 
L 244.977298 99.798611 
L 244.550287 99.539605 
L 244.360133 99.252326 
L 244.314815 98.932896 
L 244.415288 98.833568 
L 244.452982 98.656173 
L 244.321086 97.921713 
L 244.004417 97.316347 
L 243.682567 97.002921 
L 243.242782 96.781028 
L 242.602051 95.149671 
L 241.876855 94.647959 
L 241.240877 93.939684 
L 241.003095 93.744908 
L 238.665344 92.468975 
L 237.626285 91.758835 
L 236.307294 91.527394 
L 235.754856 90.972344 
L 232.913518 89.443075 
L 232.842289 89.365343 
L 232.901338 89.252588 
L 232.850079 89.173141 
L 231.983712 88.477957 
L 230.929899 87.77013 
L 230.629238 87.31176 
L 229.85166 87.048352 
L 229.044937 87.050702 
L 228.573763 87.11896 
L 228.142937 87.339543 
L 227.911412 87.458084 
L 227.780144 87.46491 
L 227.526287 87.358197 
L 227.262066 87.408663 
L 226.895359 87.712018 
L 226.530665 87.520934 
L 226.174388 87.803774 
L 225.461603 88.188105 
L 225.11163 88.236296 
L 224.739708 88.170463 
L 224.1 87.620299 
L 223.999164 87.61862 
L 223.940939 87.69721 
L 223.787094 87.738202 
L 222.82976 87.708959 
L 222.544118 87.430669 
L 222.483946 87.127837 
L 222.1886 87.028957 
L 221.762018 87.257638 
L 221.658112 87.455399 
L 221.608866 87.801498 
L 221.728846 88.085346 
L 221.714851 88.360428 
L 221.504399 88.652518 
L 221.089864 88.766877 
L 220.822211 88.757403 
L 219.525169 89.693726 
L 218.568529 90.577196 
L 218.705606 91.357608 
L 218.770828 91.469505 
L 219.176352 91.492482 
L 219.330131 91.829033 
L 219.388881 92.363326 
L 219.449451 92.914179 
L 219.545667 93.044689 
L 219.636931 93.74543 
L 219.564084 94.146732 
L 219.318645 94.6474 
L 219.131264 94.749115 
L 218.145313 94.887122 
L 217.286439 94.584364 
L 216.6634 94.518457 
L 216.318378 94.394175 
L 216.009268 94.116035 
L 215.743463 93.545357 
L 215.128939 93.715479 
L 214.328884 94.10962 
L 213.75344 94.012008 
L 212.965333 94.253781 
L 211.593333 95.084211 
L 210.739674 95.521023 
L 210.414522 95.824377 
L 209.265748 96.603185 
L 208.98981 96.944884 
L 208.985453 97.081623 
L 208.547187 97.281808 
L 208.07829 97.191655 
L 207.810306 97.27625 
L 206.546998 98.102764 
L 205.712978 98.787578 
L 205.468628 98.776164 
L 203.448635 99.915954 
L 203.020501 100.004055 
L 201.993886 100.50655 
L 201.548094 100.826279 
L 201.341668 101.254325 
L 201.194391 101.244851 
L 200.887823 100.757611 
L 201.274499 100.00868 
L 201.702104 99.371385 
L 201.144914 98.913052 
L 200.810289 98.871911 
L 200.447873 98.982914 
L 200.256202 99.3709 
L 199.680131 100.21722 
L 199.408649 100.410393 
L 198.833932 100.507744 
L 198.674376 101.079989 
L 198.40494 101.298972 
L 197.868247 101.532018 
L 196.417657 101.677 
L 195.265351 101.380359 
L 194.289699 101.390766 
L 193.636458 101.49871 
L 194.331749 102.661103 
L 195.193231 103.060541 
L 195.333907 104.293318 
L 197.248112 104.983018 
L 200.896074 103.287954 
L 204.293943 102.012693 
L 205.838503 100.669809 
L 207.485947 99.322934 
L 207.791624 99.738745 
L 205.007982 102.381322 
L 201.714647 103.740245 
L 199.348939 104.977087 
L 197.498965 105.863802 
L 196.158156 106.305201 
L 194.865703 105.254407 
L 192.991601 104.550384 
L 190.331306 102.919438 
L 190.219141 102.907691 
L 189.073378 102.787697 
L 188.049469 102.683818 
L 187.109596 102.780312 
L 186.304094 103.134281 
L 186.169029 103.31384 
L 186.007163 103.589966 
L 185.452514 102.796947 
L 185.093267 102.14656 
L 184.5134 100.579508 
L 183.981592 98.365164 
L 183.84996 97.283859 
L 183.896929 96.770137 
L 183.995059 96.385507 
L 184.251193 95.905205 
L 184.870668 95.430423 
L 184.852877 96.66913 
L 184.813665 97.707355 
L 184.892122 98.784333 
L 185.166674 100.092529 
L 185.558929 101.709152 
L 185.872759 102.209671 
L 186.421896 102.402172 
L 186.971065 102.17114 
L 187.545849 101.150037 
L 187.699892 98.467662 
L 187.658303 98.058228 
L 187.582849 97.946256 
L 187.366885 97.824027 
L 187.263672 97.529139 
L 187.255883 97.219704 
L 187.317672 97.15637 
L 187.167391 96.909412 
L 186.918386 96.682931 
L 186.678063 96.647907 
L 186.533987 96.521463 
L 186.191045 95.675292 
L 185.640258 94.670675 
L 184.947145 93.848823 
L 184.816859 93.721764 
L 184.276377 93.194669 
L 183.5864 92.769421 
L 182.446604 92.407954 
L 182.15162 92.474757 
L 181.546306 92.346485 
L 180.840485 91.964578 
L 179.783338 91.057274 
L 178.769001 89.91409 
L 178.455996 89.491005 
L 178.229832 88.82857 
L 177.802854 88.798768 
L 177.239228 88.45789 
L 176.611072 88.165539 
L 176.084083 87.996946 
L 174.646333 87.286359 
L 173.54905 86.493265 
L 172.893003 85.807556 
L 172.052151 85.070784 
L 170.87004 84.249082 
L 168.661247 82.857858 
L 167.193692 82.022169 
L 164.768244 80.861282 
L 164.641032 80.800395 
L 161.669548 79.57739 
L 157.292891 78.084824 
L 154.779774 77.358832 
L 152.618644 76.930823 
L 151.524473 76.780541 
L 151.037577 76.713667 
L 149.097659 76.581105 
L 147.932481 76.640784 
L 147.17606 76.469357 
L 143.747099 76.118632 
L 139.853829 76.28342 
L 139.373607 76.342814 
L 138.277454 76.478387 
L 138.224054 76.484991 
L 136.562408 76.690504 
L 134.613215 77.009189 
L 134.295917 77.074382 
L 126.502976 78.675532 
L 124.824176 78.929353 
L 122.791839 79.133119 
L 122.298055 79.011374 
L 121.881012 78.833867 
L 121.085676 79.046063 
L 120.063517 79.223234 
L 117.773725 79.817635 
L 114.523695 80.440271 
L 114.521846 80.310992 
L 114.818018 80.001893 
L 116.220945 79.626066 
L 116.312045 79.270492 
L 115.601372 79.377168 
L 115.364481 79.270492 
L 115.255162 79.039423 
L 115.437393 78.843901 
L 115.747164 78.719471 
L 116.287686 78.468521 
L 116.350366 78.442412 
L 116.449387 78.356624 
L 116.70354 78.065727 
L 116.746977 77.985049 
L 116.713409 77.461517 
L 116.71671 77.28621 
L 116.733213 77.204152 
L 116.809129 77.084794 
L 117.048595 76.864542 
L 117.152369 76.696957 
L 117.152369 76.648468 
L 117.079754 76.476891 
L 117.069851 76.406023 
L 117.086355 76.297855 
L 117.198579 76.133738 
L 117.297599 76.07406 
L 117.380117 75.861491 
L 117.416313 75.800137 
L 117.452732 75.738404 
L 117.564956 75.637696 
L 117.68048 75.604127 
L 117.796005 75.600397 
L 117.994046 75.645156 
L 118.135976 75.652616 
L 118.314181 75.600397 
L 118.370293 75.555638 
L 118.469347 75.41763 
L 118.571668 75.32442 
L 118.8786 75.216252 
L 118.945611 75.173986 
L 119.02053 75.126734 
L 119.380504 74.843521 
L 119.478798 74.734719 
L 119.531609 74.613832 
L 119.520123 74.470901 
L 119.462658 74.316109 
L 119.393739 74.232783 
L 119.050236 74.112232 
L 118.693761 74.056283 
L 118.531994 74.093582 
L 118.432973 74.078663 
L 118.274572 74.007831 
L 118.16895 73.877321 
L 117.944503 73.843752 
L 117.601197 73.534168 
L 117.452666 73.347709 
L 117.419659 73.123914 
L 117.386652 73.082885 
L 117.284331 73.026936 
L 117.254657 72.978447 
L 117.340443 72.81433 
L 117.419659 72.583112 
L 117.399855 72.407843 
L 117.165803 72.051188 
L 117.1189 72.003035 
L 117.002385 71.998074 
L 116.953073 71.971517 
L 116.854481 71.860962 
L 116.85184 71.806692 
L 116.867552 71.779985 
L 116.894155 71.744924 
L 116.937626 71.729594 
L 116.945481 71.693675 
L 116.896532 71.493639 
L 116.891284 71.241459 
L 117.259146 70.41819 
L 117.274891 70.40107 
L 117.391141 70.376303 
L 117.508316 70.231023 
L 117.569511 70.010435 
L 117.657771 69.960006 
L 117.676156 69.961722 
L 117.68926 69.996784 
L 117.738209 69.988242 
L 117.813399 69.944639 
L 117.878984 69.777949 
L 117.869379 69.714652 
L 117.817822 69.65654 
L 117.82307 69.638562 
L 117.892154 69.548857 
L 117.94985 69.511259 
L 118.009296 69.519801 
L 118.140498 69.129166 
L 118.212387 68.523911 
L 118.277114 68.394856 
L 118.389965 68.357258 
L 118.452942 68.311977 
L 118.517669 68.195715 
L 118.592991 67.951293 
L 118.592099 67.928205 
L 118.546649 67.89057 
L 118.546649 67.859798 
L 118.572097 67.649505 
L 118.611045 67.581621 
L 118.634282 67.513997 
L 118.640455 67.3695 
L 118.562789 66.881328 
L 118.521729 66.72661 
L 118.555 66.639442 
L 118.519187 66.494087 
L 118.422972 66.387187 
L 118.405478 66.389761 
L 118.234931 66.036649 
L 118.19387 65.843439 
L 118.212255 65.760523 
L 118.199152 65.717778 
L 118.008338 65.609983 
L 117.784287 65.538145 
L 117.607502 65.411626 
L 117.426327 65.215022 
L 117.239903 65.214164 
L 117.114708 65.146615 
L 117.033313 65.064557 
L 116.990404 64.992756 
L 116.799557 64.83207 
L 116.732157 64.798762 
L 116.5492 64.882536 
L 116.239264 64.760381 
L 116.193748 64.728752 
L 116.105289 64.594549 
L 115.972205 64.545873 
L 115.802219 64.311709 
L 115.794298 64.23394 
L 115.74789 64.175828 
L 115.556119 64.101528 
L 115.234764 64.032412 
L 115.210239 64.040991 
L 115.05174 63.986273 
L 114.958132 63.810146 
L 114.741078 63.540771 
L 114.348857 63.362816 
L 114.051992 63.169532 
L 113.960959 62.935069 
L 113.959276 62.749132 
L 113.922572 62.502136 
L 113.904187 62.459354 
L 113.733376 62.273828 
L 113.604649 62.105384 
L 113.630922 62.027616 
L 113.641485 61.857531 
L 113.410205 61.574504 
L 113.3804 61.54888 
L 113.318247 61.542017 
L 113.164897 61.418109 
L 113.145621 61.35056 
L 113.008939 61.201848 
L 112.879189 61.095843 
L 112.750363 61.041983 
L 112.591731 60.757353 
L 112.426036 60.599241 
L 112.227995 60.500995 
L 112.015859 60.428374 
L 111.811579 60.292492 
L 111.773819 60.124198 
L 111.709785 59.994248 
L 111.636972 59.894286 
L 111.465138 59.844752 
L 111.302083 59.767879 
L 111.320402 59.680673 
L 111.257227 59.556765 
L 111.030964 59.356878 
L 110.966997 59.327748 
L 110.925804 59.27303 
L 110.953068 59.126854 
L 110.989937 59.034539 
L 110.961947 58.931145 
L 110.895372 58.819135 
L 110.674456 58.604478 
L 110.83784 58.164347 
" clip-path="url(#pc9cf35f6b2)" style="fill: #c733ff"/>
   </g>
   <g id="text_1">
    <!-- FL -->
    <g transform="translate(229.365938 35.472) scale(0.12 -0.12)">
     <defs>
      <path id="DejaVuSans-46" d="M 628 4666 
L 3309 4666 
L 3309 4134 
L 1259 4134 
L 1259 2759 
L 3109 2759 
L 3109 2228 
L 1259 2228 
L 1259 0 
L 628 0 
L 628 4666 
z
" transform="scale(0.015625)"/>
      <path id="DejaVuSans-4c" d="M 628 4666 
L 1259 4666 
L 1259 531 
L 3531 531 
L 3531 0 
L 628 0 
L 628 4666 
z
" transform="scale(0.015625)"/>
     </defs>
     <use xlink:href="#DejaVuSans-46"/>
     <use xlink:href="#DejaVuSans-4c" x="57.519531"/>
    </g>
   </g>
  </g>
 </g>
 <defs>
  <clipPath id="pc9cf35f6b2">
   <rect x="98.125902" y="41.472" width="276.068197" height="266.112"/>
  </clipPath>
 </defs>
</svg>
