<?xml version="1.0" encoding="utf-8" standalone="no"?>
<!DOCTYPE svg PUBLIC "-//W3C//DTD SVG 1.1//EN"
  "http://www.w3.org/Graphics/SVG/1.1/DTD/svg11.dtd">
<svg xmlns:xlink="http://www.w3.org/1999/xlink" width="360pt" height="360pt" viewBox="0 0 360 360" xmlns="http://www.w3.org/2000/svg" version="1.1">
 <metadata>
  <rdf:RDF xmlns:dc="http://purl.org/dc/elements/1.1/" xmlns:cc="http://creativecommons.org/ns#" xmlns:rdf="http://www.w3.org/1999/02/22-rdf-syntax-ns#">
   <cc:Work>
    <dc:type rdf:resource="http://purl.org/dc/dcmitype/StillImage"/>
    <dc:date>2023-06-19T15:20:28.275182</dc:date>
    <dc:format>image/svg+xml</dc:format>
    <dc:creator>
     <cc:Agent>
      <dc:title>Matplotlib v3.7.1, https://matplotlib.org/</dc:title>
     </cc:Agent>
    </dc:creator>
   </cc:Work>
  </rdf:RDF>
 </metadata>
 <defs>
  <style type="text/css">*{stroke-linejoin: round; stroke-linecap: butt}</style>
 </defs>
 <g id="figure_1">
  <g id="patch_1">
   <path d="M 0 360 
L 360 360 
L 360 0 
L 0 0 
z
" style="fill: #ffffff"/>
  </g>
  <g id="axes_1">
   <g id="PatchCollection_1">
    <path d="M 287.291417 278.559065 
L 288.044629 278.055501 
L 288.858685 277.179233 
L 289.065101 276.823842 
L 289.234124 277.148777 
L 289.55102 277.767792 
L 288.956389 278.487113 
L 287.965338 279.026671 
L 287.291417 278.559065 
" clip-path="url(#pd8fcfb890d)" style="fill: #e5f100"/>
    <path d="M 283.981587 280.345459 
L 284.001134 279.85417 
L 284.556136 279.674273 
L 285.111105 279.242527 
L 285.91919 279.003921 
L 286.326685 279.11727 
L 286.069866 279.661063 
L 285.995345 279.875519 
L 285.810011 280.070627 
L 284.992185 280.429887 
L 284.137533 280.36991 
L 283.9992 280.382186 
L 283.981587 280.345459 
" clip-path="url(#pd8fcfb890d)" style="fill: #e5f100"/>
    <path d="M 274.845138 283.566858 
L 276.191679 282.985671 
L 277.619413 282.361018 
L 279.384358 281.797877 
L 281.107272 280.969711 
L 282.062864 281.240407 
L 281.820822 281.83357 
L 278.213143 283.240889 
L 276.428317 284.139106 
L 275.449442 284.178901 
L 274.845138 283.566858 
" clip-path="url(#pd8fcfb890d)" style="fill: #e5f100"/>
    <path d="M 251.930811 288.183001 
L 252.337706 287.334954 
L 253.608793 285.738231 
L 254.133807 285.1429 
L 256.579344 283.820876 
L 259.506097 282.580577 
L 259.954688 281.924836 
L 261.124902 281.603837 
L 262.391453 280.716628 
L 264.212472 280.023126 
L 266.403358 281.063546 
L 268.161464 281.565876 
L 268.831016 281.963831 
L 269.254322 283.45381 
L 270.893243 284.672025 
L 270.410259 284.995226 
L 268.563556 285.564238 
L 266.894781 286.107565 
L 265.600844 286.355044 
L 265.245653 285.58155 
L 264.198962 285.716815 
L 263.085189 285.617543 
L 262.06088 285.725955 
L 261.747553 286.431933 
L 260.353877 286.821148 
L 258.597005 287.621494 
L 257.520259 287.977119 
L 256.819385 288.032459 
L 256.148866 288.518877 
L 253.147492 288.794644 
L 251.902691 288.95943 
L 251.930811 288.183001 
" clip-path="url(#pd8fcfb890d)" style="fill: #e5f100"/>
    <path d="M 245.152003 289.039421 
L 246.420521 288.859124 
L 248.362995 288.390384 
L 249.433336 288.065883 
L 249.829757 288.354325 
L 249.393674 288.750946 
L 248.600833 289.580346 
L 246.579103 289.977067 
L 245.112341 289.760677 
L 245.152003 289.039421 
" clip-path="url(#pd8fcfb890d)" style="fill: #e5f100"/>
    <path d="M 240.164525 288.362131 
L 240.623057 287.929951 
L 240.87674 287.360739 
L 241.131992 287.244521 
L 241.470737 287.226275 
L 242.173946 287.532163 
L 242.278555 287.651483 
L 242.333062 288.05701 
L 242.165874 288.435784 
L 241.753642 288.836841 
L 240.330878 288.86793 
L 240.138506 288.736268 
L 240.164525 288.362131 
" clip-path="url(#pd8fcfb890d)" style="fill: #e5f100"/>
    <path d="M 236.831278 217.139857 
L 237.117285 216.975038 
L 237.1379 216.81749 
L 237.425575 216.875032 
L 237.559838 217.27779 
L 237.444755 217.469562 
L 237.425575 217.642187 
L 237.728961 218.358072 
L 238.366022 219.544565 
L 238.499619 220.327232 
L 239.094149 221.76564 
L 239.401005 222.839651 
L 239.727041 223.683529 
L 240.110619 224.105468 
L 240.666822 224.508226 
L 241.261352 224.527407 
L 241.64493 224.642456 
L 242.699794 225.256201 
L 243.083372 224.891804 
L 243.562819 224.75754 
L 244.368335 225.198659 
L 245.128753 225.267009 
L 245.191932 225.287023 
L 245.18526 225.36041 
L 243.544038 226.247686 
L 243.147051 226.361101 
L 242.883527 226.361101 
L 242.376493 226.264364 
L 241.423937 225.886758 
L 240.688571 225.246994 
L 239.881286 224.840033 
L 239.74452 224.709939 
L 239.621098 224.553192 
L 239.126406 224.040587 
L 238.373194 222.160626 
L 238.056064 221.557823 
L 237.540725 220.742399 
L 237.223595 219.28928 
L 236.787513 218.580634 
L 236.876077 217.977397 
L 236.709323 217.663736 
L 236.831278 217.139857 
" clip-path="url(#pd8fcfb890d)" style="fill: #e5f100"/>
    <path d="M 214.508713 286.047488 
L 215.069886 285.931337 
L 216.292605 285.68716 
L 216.845439 286.325356 
L 215.816927 286.76821 
L 214.469085 286.624072 
L 214.508713 286.047488 
" clip-path="url(#pd8fcfb890d)" style="fill: #e5f100"/>
    <path d="M 156.599713 113.857868 
L 157.630393 113.651452 
L 158.978236 112.997946 
L 159.691786 112.44768 
L 160.088206 112.516464 
L 160.088206 113.341895 
L 159.453914 113.89226 
L 158.106104 114.408334 
L 156.837552 114.580391 
L 156.203293 114.236309 
L 156.599713 113.857868 
" clip-path="url(#pd8fcfb890d)" style="fill: #e5f100"/>
    <path d="M 57.846938 77.733543 
L 57.864717 77.652551 
L 58.033306 77.499741 
L 58.111296 77.47599 
L 58.153793 77.406406 
L 58.149323 77.325381 
L 58.096051 77.200057 
L 58.106592 77.072364 
L 58.156228 77.02493 
L 58.313042 76.940769 
L 58.348468 76.848269 
L 58.373219 76.704531 
L 58.452009 76.50422 
L 58.506949 76.434603 
L 58.571596 76.258742 
L 58.58664 76.172346 
L 58.757631 75.84591 
L 58.824112 75.752609 
L 58.903903 75.695267 
L 58.950904 75.617277 
L 59.112154 75.271661 
L 59.207823 74.838981 
L 59.150115 74.673861 
L 59.079097 74.555375 
L 59.043571 74.443027 
L 59.041803 74.401764 
L 59.091439 74.316102 
L 59.067455 74.222067 
L 58.956475 74.066921 
L 58.874749 73.796326 
L 58.882888 73.738484 
L 58.886506 73.738429 
L 59.805056 73.724674 
L 60.563505 73.722772 
L 61.531606 73.734147 
L 62.841721 73.713566 
L 62.859734 73.713732 
L 62.892992 73.713199 
L 63.287511 73.714366 
L 63.289245 73.714366 
L 63.457467 73.713599 
L 63.462304 73.713566 
L 63.561709 73.707428 
L 63.660214 73.709696 
L 63.856823 73.711231 
L 64.441179 73.713432 
L 64.658604 73.717268 
L 66.590969 73.71053 
L 66.718762 73.712965 
L 66.99743 73.712098 
L 67.720688 73.711164 
L 68.447514 73.705727 
L 68.719477 73.713866 
L 68.801637 73.70576 
L 69.154259 73.708462 
L 69.223976 73.708695 
L 70.00254 73.711297 
L 70.170128 73.713699 
L 70.198515 73.714466 
L 70.25619 73.711431 
L 70.288147 73.713732 
L 70.335181 73.712999 
L 70.355596 73.710697 
L 70.93248 73.773809 
L 71.205032 73.757462 
L 71.364059 73.747924 
L 73.404036 73.685965 
L 73.436527 73.684978 
L 74.165654 73.669067 
L 74.692236 73.693384 
L 74.89555 73.672536 
L 76.571363 73.682009 
L 76.723807 73.680375 
L 77.068223 73.682376 
L 77.526822 73.666932 
L 77.647643 73.675138 
L 77.9565 73.67824 
L 78.715282 73.676205 
L 78.911491 73.698054 
L 81.268631 73.729944 
L 82.592023 73.734147 
L 83.097255 73.732346 
L 84.46668 73.740752 
L 84.514615 73.739985 
L 86.001592 73.754095 
L 86.010618 73.754247 
L 87.358441 73.777012 
L 87.920415 73.762034 
L 87.957074 73.757264 
L 88.020921 73.757597 
L 88.658616 73.82995 
L 89.258983 73.833503 
L 89.588523 73.835454 
L 90.045553 73.835554 
L 93.284232 73.81634 
L 93.422666 73.812537 
L 94.873583 73.878485 
L 95.110554 73.863307 
L 95.540299 73.875316 
L 96.928938 73.853333 
L 97.049525 73.860238 
L 98.710395 73.851599 
L 99.143175 73.847496 
L 99.252921 73.847196 
L 99.25516 73.847149 
L 99.723295 73.837422 
L 99.899255 73.837322 
L 100.044794 73.838056 
L 102.056518 73.852233 
L 102.568488 73.859938 
L 103.662547 73.85807 
L 104.266718 73.840824 
L 105.973335 73.851516 
L 106.204788 73.852967 
L 106.37251 73.859872 
L 106.58016 73.86294 
L 106.783407 73.863741 
L 108.316684 73.889259 
L 110.341584 73.882021 
L 110.466674 73.878218 
L 111.047862 73.87575 
L 111.050556 73.875783 
L 112.261874 73.890761 
L 115.767579 73.870813 
L 120.557848 73.825046 
L 120.568289 73.809869 
L 126.246557 73.772817 
L 128.952193 73.755162 
L 128.965075 73.754962 
L 129.288503 73.749933 
L 137.445944 73.6231 
L 140.420631 73.624701 
L 140.495152 73.624735 
L 140.499588 73.622933 
L 140.708073 73.629371 
L 143.653439 73.633007 
L 143.744538 73.633007 
L 143.83507 73.633007 
L 144.533309 73.630906 
L 144.568268 73.630706 
L 144.654831 73.630139 
L 144.768379 73.629772 
L 145.493538 73.629738 
L 145.513519 73.629772 
L 145.51532 73.750125 
L 145.4878 74.089538 
L 145.374585 74.326209 
L 145.374685 74.418409 
L 145.402238 74.496332 
L 145.438231 74.537562 
L 145.57493 74.613684 
L 145.578266 74.603677 
L 145.651652 74.613684 
L 145.971951 74.693742 
L 146.078695 74.737107 
L 146.155417 74.800486 
L 146.235475 74.943923 
L 146.252154 75.020645 
L 146.252154 75.164116 
L 146.165424 75.424304 
L 146.138738 75.567742 
L 146.118724 75.754543 
L 146.135403 75.82793 
L 146.218796 75.897947 
L 146.39896 75.961327 
L 146.539062 76.048089 
L 146.592467 76.254906 
L 146.682532 76.411686 
L 147.036155 76.735254 
L 147.162913 76.912048 
L 147.252979 77.075533 
L 147.48985 77.372382 
L 147.529879 77.399068 
L 147.574945 77.431091 
L 147.637891 77.467817 
L 147.679888 77.499307 
L 147.727089 77.57276 
L 147.721851 77.698651 
L 147.653635 77.793086 
L 147.627416 77.887521 
L 147.648398 77.971516 
L 147.716581 78.071188 
L 147.753308 78.139404 
L 147.774323 78.212857 
L 147.753308 78.302022 
L 147.727089 78.375475 
L 147.732326 78.511907 
L 147.800108 78.606642 
L 147.905484 78.695506 
L 147.947448 78.763723 
L 147.963193 78.84765 
L 147.963193 78.905425 
L 147.926466 78.978845 
L 147.842506 79.073313 
L 147.769052 79.18873 
L 147.732326 79.29364 
L 147.721851 79.503492 
L 147.706107 79.634653 
L 147.727089 79.750137 
L 147.876864 79.974332 
L 147.963593 80.15443 
L 147.97697 80.231152 
L 147.940276 80.414618 
L 147.963627 80.554719 
L 148.016999 80.651456 
L 148.307209 81.055115 
L 148.327223 81.128502 
L 148.307209 81.25526 
L 148.237158 81.458741 
L 148.407314 81.618823 
L 148.430665 81.872374 
L 148.457351 81.915738 
L 148.537409 81.952432 
L 148.697558 81.972446 
L 148.804302 81.932417 
L 148.901039 81.929081 
L 148.987768 81.94576 
L 149.037804 81.972446 
L 149.324679 82.265992 
L 149.401434 82.492823 
L 149.448135 82.572881 
L 149.728371 82.743037 
L 149.917475 82.929639 
L 150.0904 83.274722 
L 150.131506 83.275949 
L 151.032582 83.302843 
L 157.421075 83.59362 
L 158.703037 83.664571 
L 158.707606 83.664338 
L 160.938589 83.767646 
L 161.08296 83.776052 
L 163.105625 83.900475 
L 166.234987 83.994759 
L 166.424928 84.000481 
L 169.508772 84.149837 
L 169.550491 84.151858 
L 170.594948 84.188918 
L 174.764934 84.392365 
L 175.338583 84.433328 
L 176.140461 84.466898 
L 177.022235 84.503812 
L 177.376592 84.520658 
L 177.536541 84.531399 
L 177.606692 84.533367 
L 178.684739 84.590809 
L 178.68574 84.590858 
L 182.923742 84.800627 
L 182.926978 84.799793 
L 182.948665 84.801025 
L 183.761082 84.847161 
L 184.906278 84.907204 
L 185.251561 84.931622 
L 187.482921 85.047971 
L 189.713725 85.164291 
L 189.804291 85.169561 
L 191.885565 85.286045 
L 191.886417 85.286088 
L 195.614765 85.47228 
L 197.31543 85.581059 
L 197.611444 85.593968 
L 197.95963 85.611548 
L 197.963199 85.610781 
L 199.278018 85.6837 
L 199.631707 85.705483 
L 200.359775 85.749678 
L 200.914303 85.783339 
L 201.893845 85.842348 
L 201.966965 85.847685 
L 201.975856 85.848209 
L 203.20713 85.920773 
L 206.03888 86.087659 
L 206.47186 86.113645 
L 206.842228 86.131958 
L 207.080368 86.145001 
L 207.734773 86.195689 
L 207.907667 86.209081 
L 216.333768 86.692797 
L 216.384472 86.694732 
L 222.334247 87.053425 
L 222.34372 87.054726 
L 222.648139 87.071434 
L 222.655513 87.071839 
L 226.168518 87.2695 
L 226.659679 87.297135 
L 226.78517 87.308577 
L 227.196034 87.331527 
L 227.466363 87.35064 
L 227.760676 87.366519 
L 228.13875 87.389735 
L 230.311843 87.519974 
L 230.318895 87.520397 
L 231.675378 87.604761 
L 233.144408 87.696124 
L 236.063321 87.881091 
L 237.038828 87.944437 
L 237.314327 87.967654 
L 238.48194 88.043442 
L 238.482635 88.045944 
L 238.497084 88.097948 
L 238.357182 88.183177 
L 238.208875 88.222972 
L 238.067806 88.295325 
L 237.912294 88.454473 
L 237.789305 88.834248 
L 237.782066 89.091067 
L 237.81102 89.228534 
L 237.951122 89.438953 
L 237.996254 89.636929 
L 237.963631 89.753147 
L 238.078514 89.988617 
L 238.142127 90.070377 
L 238.359384 90.191898 
L 238.548254 90.373229 
L 238.761976 90.602529 
L 238.92973 90.826457 
L 238.945675 91.184283 
L 238.823053 91.370084 
L 238.719845 91.64912 
L 238.72605 91.768406 
L 238.775485 91.815807 
L 238.816081 91.938129 
L 238.844369 92.18274 
L 238.760608 92.430452 
L 238.647726 92.572655 
L 238.633683 92.847154 
L 238.838531 93.623082 
L 239.212502 94.375327 
L 239.315677 94.470096 
L 239.517489 94.54435 
L 239.643581 94.714073 
L 239.927453 95.006151 
L 239.975955 95.037507 
L 240.138139 95.067328 
L 240.252722 95.073466 
L 240.37441 95.004683 
L 240.869035 94.888599 
L 241.766284 94.757104 
L 242.151597 94.724247 
L 242.229453 94.740792 
L 242.265613 94.783089 
L 242.25287 94.823785 
L 242.490109 94.975729 
L 242.943137 95.04161 
L 243.362574 95.029001 
L 243.646079 94.99084 
L 243.978486 94.923791 
L 243.982604 94.922015 
L 244.050272 94.892835 
L 244.289512 94.662902 
L 244.420306 94.405182 
L 244.452129 94.158237 
L 244.275535 93.772791 
L 244.247981 93.558469 
L 244.275535 93.334974 
L 244.31533 93.19107 
L 244.514374 92.921608 
L 244.499063 92.73177 
L 244.407464 92.515947 
L 244.441021 92.384452 
L 244.645836 92.171164 
L 244.707614 92.086336 
L 244.799514 91.740786 
L 244.856989 91.422756 
L 245.055633 91.162801 
L 245.082219 91.039445 
L 245.071711 90.743931 
L 245.040856 90.59559 
L 245.118579 90.481708 
L 245.156006 89.897585 
L 245.12078 89.72556 
L 245.081952 89.685798 
L 245.019307 89.53669 
L 245.036219 89.291279 
L 245.207843 88.660589 
L 245.465997 88.213432 
L 245.3788 87.762339 
L 245.24477 87.203401 
L 245.124716 86.938842 
L 245.098197 86.912823 
L 244.749978 86.790435 
L 244.736735 86.771321 
L 244.763321 86.551895 
L 244.698007 86.267489 
L 244.516943 86.008168 
L 244.394121 85.885813 
L 244.316331 85.756586 
L 244.344651 85.623557 
L 244.327873 85.550937 
L 244.238575 85.346022 
L 244.110382 85.2688 
L 243.9972 85.142675 
L 243.966344 84.451541 
L 244.253886 83.914119 
L 244.433549 83.440142 
L 244.395622 83.037984 
L 244.34255 82.886608 
L 244.280638 82.823162 
L 244.187738 82.671019 
L 244.275368 82.517341 
L 244.313462 82.407261 
L 244.326538 82.067682 
L 244.348788 82.016478 
L 244.44896 81.958569 
L 244.559674 81.969377 
L 244.70131 81.959136 
L 245.050996 81.8163 
L 245.226357 81.615287 
L 245.261816 81.554143 
L 245.052197 81.129736 
L 244.846915 80.885826 
L 244.853153 80.768107 
L 244.88591 80.724542 
L 245.079884 80.602254 
L 245.386306 80.559556 
L 245.482776 80.599352 
L 245.816417 80.788522 
L 245.95375 80.937363 
L 246.028804 80.989234 
L 246.273381 81.098947 
L 246.347168 81.110689 
L 246.350982 81.109171 
L 246.520794 81.041572 
L 246.898501 80.439803 
L 246.916681 80.309142 
L 246.901603 80.042348 
L 246.891663 79.869056 
L 246.910476 79.723451 
L 246.991068 79.617774 
L 247.323709 79.406788 
L 247.544502 79.408756 
L 247.704184 79.465097 
L 247.802188 79.619009 
L 247.828508 79.642592 
L 248.168987 79.737961 
L 248.620081 79.793902 
L 248.775093 79.756308 
L 248.859621 79.69056 
L 248.906588 79.629483 
L 249.005226 79.601296 
L 249.127315 79.620109 
L 249.221249 79.681154 
L 249.275389 79.792 
L 249.560829 80.152995 
L 249.755736 80.340064 
L 250.031736 80.565627 
L 250.564889 80.50942 
L 250.776376 80.639214 
L 250.917411 80.753563 
L 250.973552 80.778115 
L 251.419274 80.693086 
L 252.035888 80.657027 
L 252.0985 80.668068 
L 252.561635 80.843228 
L 252.842472 81.204924 
L 252.899079 81.326778 
L 253.015263 81.389324 
L 253.153697 81.380384 
L 253.234089 81.340188 
L 253.305574 81.241917 
L 253.381495 81.192781 
L 253.542278 81.197251 
L 253.676842 81.278744 
L 253.819079 81.380751 
L 253.94557 81.422014 
L 254.06936 81.442929 
L 254.11139 81.461743 
L 254.153988 81.490163 
L 254.182409 81.529225 
L 254.20726 81.582497 
L 254.218735 81.661187 
L 254.230677 81.684904 
L 254.581231 82.004036 
L 254.751387 82.094101 
L 254.991561 82.170856 
L 255.830502 82.044732 
L 255.895983 82.088563 
L 255.92924 82.192305 
L 255.95686 82.230666 
L 256.025743 82.2776 
L 256.562866 82.360961 
L 256.652931 82.317596 
L 256.679617 82.280903 
L 256.714609 82.170523 
L 256.745932 82.136598 
L 256.837264 82.105276 
L 256.918156 82.107877 
L 257.106026 82.154845 
L 257.172951 82.195412 
L 257.253399 82.244176 
L 257.266742 82.317596 
L 257.252131 82.470607 
L 257.265174 82.582821 
L 257.30954 82.668917 
L 257.351303 82.702842 
L 257.45311 82.739368 
L 257.882455 82.672253 
L 258.004443 82.578718 
L 258.154918 82.55837 
L 258.260628 82.619381 
L 258.297555 82.674521 
L 258.337918 82.830834 
L 258.402965 82.924335 
L 258.675429 82.969068 
L 258.736406 82.928405 
L 258.801487 82.814556 
L 258.858395 82.749509 
L 258.951929 82.721021 
L 259.204045 82.810486 
L 259.431843 82.867995 
L 259.86886 82.914662 
L 259.945582 82.938012 
L 260.119074 83.06477 
L 260.269616 83.139458 
L 260.574504 83.093524 
L 260.687252 83.126949 
L 260.76244 83.181221 
L 260.837594 83.193764 
L 260.904443 83.206306 
L 260.962885 83.214646 
L 261.017224 83.210476 
L 261.071497 83.181221 
L 261.142515 83.114406 
L 261.176607 83.061435 
L 261.192618 82.997488 
L 261.234382 82.939013 
L 261.309569 82.897249 
L 261.384724 82.880537 
L 261.61359 82.90799 
L 261.790418 82.917997 
L 262.087333 82.894647 
L 262.67706 82.789104 
L 262.750613 82.789738 
L 262.868899 82.862791 
L 263.136859 83.167578 
L 263.242169 83.21568 
L 263.513432 83.291301 
L 263.663107 83.311682 
L 264.038746 83.347742 
L 264.19199 83.3357 
L 264.572232 83.559095 
L 264.749194 83.725782 
L 264.635011 84.680707 
L 264.226181 86.964194 
L 264.244028 88.490266 
L 264.527566 89.578387 
L 264.236673 90.000332 
L 264.093152 90.20851 
L 264.325954 90.408688 
L 264.796228 90.440011 
L 265.303295 90.930366 
L 265.430087 92.931782 
L 265.749851 93.646099 
L 265.783709 95.667096 
L 265.943859 96.887947 
L 266.147373 97.875328 
L 266.335033 98.573413 
L 267.145229 101.587283 
L 268.700121 108.029381 
L 269.157452 109.391234 
L 269.368038 109.839358 
L 269.782171 110.330381 
L 269.985585 110.909266 
L 270.177358 111.739668 
L 270.196714 112.300047 
L 270.220622 112.992208 
L 270.227743 113.030521 
L 270.260087 113.204555 
L 270.443617 114.192077 
L 270.970232 115.709009 
L 271.367486 116.527101 
L 271.905779 117.9957 
L 271.949574 118.115184 
L 273.5502 121.844385 
L 274.873992 124.540504 
L 275.606956 126.121981 
L 276.657826 128.389385 
L 277.043509 129.221551 
L 277.44979 130.098162 
L 279.636055 134.440601 
L 279.954488 135.073084 
L 280.135135 135.431891 
L 280.256689 135.638751 
L 280.862328 136.66942 
L 282.099924 138.223846 
L 282.553586 139.161158 
L 283.067291 140.015109 
L 283.449795 140.582226 
L 286.111296 144.528277 
L 287.938504 147.33126 
L 288.689696 148.483608 
L 290.772438 151.112745 
L 291.789774 152.557592 
L 292.887436 153.787015 
L 293.188187 154.205285 
L 293.438601 154.966269 
L 293.651689 156.020933 
L 294.48089 157.758491 
L 294.848522 158.398721 
L 294.793883 158.657208 
L 293.588176 159.121745 
L 293.212605 159.45582 
L 292.756374 160.019829 
L 292.477472 160.692782 
L 292.301657 161.344739 
L 292.237298 161.583394 
L 292.120547 162.500692 
L 292.080518 163.341267 
L 292.133424 164.075256 
L 292.209278 165.127627 
L 292.684255 167.787653 
L 293.469591 170.534976 
L 294.095277 172.097274 
L 294.20969 172.328194 
L 295.389681 174.709766 
L 297.454443 178.329821 
L 297.450737 178.369815 
L 297.447571 178.403974 
L 299.565238 182.396399 
L 300.631944 185.646152 
L 300.670772 186.121896 
L 300.877021 186.526689 
L 301.324478 187.149974 
L 301.533196 188.096092 
L 301.647541 188.489726 
L 301.964909 189.582269 
L 302.318065 190.393223 
L 302.584891 190.393223 
L 303.506759 193.054216 
L 303.902712 194.4136 
L 304.574098 195.697297 
L 304.800429 196.316779 
L 305.716593 198.308699 
L 305.923342 198.758213 
L 306.978106 200.65065 
L 307.248135 201.434751 
L 307.08459 201.593108 
L 307.042019 201.634329 
L 307.36672 202.29374 
L 307.740825 203.362514 
L 308.469119 204.667459 
L 309.231771 206.462425 
L 309.711392 208.066486 
L 310.475554 210.622178 
L 310.821122 211.777908 
L 311.17697 213.279986 
L 311.318182 213.87606 
L 311.303418 214.359279 
L 311.292897 214.703626 
L 311.151394 214.7133 
L 311.114701 214.876752 
L 311.268146 216.581253 
L 311.243394 217.431301 
L 311.171376 217.896939 
L 311.158084 218.948333 
L 311.145931 219.909596 
L 311.144623 220.013071 
L 311.067967 221.447943 
L 310.684356 223.442654 
L 310.344076 225.607455 
L 310.305485 226.025005 
L 310.295569 226.132296 
L 310.287785 226.216514 
L 310.010502 229.216635 
L 309.953794 229.253295 
L 309.867957 229.731121 
L 309.853721 229.810365 
L 309.700244 231.62161 
L 309.510106 232.125275 
L 309.383347 232.705695 
L 308.983024 235.51096 
L 308.85293 237.228804 
L 308.80634 237.32739 
L 308.709493 237.532324 
L 308.435561 240.894625 
L 308.434893 241.268793 
L 308.431358 243.249564 
L 308.33242 244.337685 
L 308.34237 244.690985 
L 308.371982 245.742335 
L 308.292858 246.513894 
L 308.114796 247.404172 
L 308.095015 248.037264 
L 307.94486 248.384508 
L 307.8173 248.6795 
L 307.778485 248.769261 
L 307.560861 249.08579 
L 307.264113 250.35194 
L 307.224551 251.004813 
L 307.283894 251.222437 
L 307.194863 251.598343 
L 306.997019 251.618123 
L 306.462866 250.94547 
L 306.68049 250.094754 
L 306.878333 249.718882 
L 306.818957 249.481476 
L 306.601333 249.184695 
L 306.20568 248.927508 
L 305.770431 248.967104 
L 304.721905 249.362757 
L 304.346 249.639724 
L 304.207499 249.877129 
L 304.009656 250.846531 
L 303.495284 251.835748 
L 303.480244 251.918479 
L 303.455722 252.053372 
L 303.119412 252.547963 
L 302.743506 252.765588 
L 302.466539 253.042555 
L 302.308258 253.339303 
L 302.169791 254.011957 
L 302.169791 254.605453 
L 302.288477 254.86264 
L 301.892823 255.812261 
L 301.536699 255.93098 
L 301.521718 255.941678 
L 301.502062 255.955715 
L 301.398199 256.029885 
L 301.042107 257.137787 
L 301.042107 257.830222 
L 301.121231 258.26547 
L 301.418013 259.017248 
L 301.675199 259.215091 
L 301.477356 259.689902 
L 301.497137 260.520803 
L 301.675199 260.738428 
L 302.011509 260.797771 
L 302.130229 260.975833 
L 302.011509 261.351738 
L 301.180608 262.499203 
L 300.606859 262.795951 
L 300.300203 262.875075 
L 299.884769 263.211418 
L 299.810314 263.594304 
L 299.786431 263.717118 
L 300.158401 264.277757 
L 301.078667 264.12091 
L 302.684196 263.145838 
L 303.298041 262.174267 
L 303.359752 262.045065 
L 304.038844 260.623278 
L 305.685303 257.606693 
L 306.492621 256.413029 
L 306.471139 257.589147 
L 305.565116 259.970839 
L 304.01556 262.296056 
L 303.969539 262.3705 
L 302.893448 264.111203 
L 301.442931 266.331611 
L 300.416254 268.686116 
L 298.785306 270.316597 
L 297.392198 271.349645 
L 295.93611 272.885524 
L 293.299401 275.341002 
L 290.425286 277.22143 
L 290.06636 276.868841 
L 292.388574 274.926602 
L 294.192414 273.392091 
L 295.794307 272.229248 
L 296.725382 270.727628 
L 296.975129 269.377984 
L 296.982501 268.400976 
L 297.589574 267.483479 
L 296.868118 266.823467 
L 295.83924 267.132324 
L 295.523144 266.906294 
L 295.200544 266.486056 
L 294.964173 266.407466 
L 294.271538 266.913132 
L 293.376741 267.025662 
L 292.903059 267.085232 
L 292.762812 267.10287 
L 292.023844 267.114011 
L 291.05264 267.436845 
L 290.2141 267.550827 
L 289.760538 268.14846 
L 288.910856 268.675108 
L 288.579283 268.720541 
L 288.199941 268.2489 
L 287.562913 268.327323 
L 287.54867 268.800332 
L 287.421411 268.879156 
L 286.174608 268.162404 
L 285.85928 267.713912 
L 285.273622 267.591624 
L 284.935544 267.985242 
L 284.320699 267.899213 
L 284.045933 267.850544 
L 283.744101 267.906169 
L 283.738044 267.907286 
L 283.161193 267.982507 
L 282.340398 268.39237 
L 282.288661 268.666936 
L 282.378926 268.872117 
L 282.323353 269.13841 
L 281.811415 269.083971 
L 280.901023 269.312737 
L 280.426979 269.270673 
L 279.9487 269.328915 
L 279.034338 269.653683 
L 278.686686 269.614288 
L 278.239996 269.481192 
L 277.322131 269.518552 
L 276.342955 269.834648 
L 275.853768 269.559215 
L 275.272714 268.944904 
L 274.983404 268.717005 
L 274.551392 268.583809 
L 274.302645 268.331192 
L 274.260814 267.692997 
L 274.112073 267.354785 
L 273.820396 266.855791 
L 273.267895 266.382848 
L 273.305823 265.596245 
L 273.392552 265.352035 
L 273.600603 264.129316 
L 273.693237 263.837038 
L 273.926506 263.60527 
L 274.039421 263.187501 
L 273.939315 262.964039 
L 274.066507 262.696279 
L 274.3335 262.418611 
L 274.53985 262.355932 
L 274.956918 262.497568 
L 275.063729 262.281745 
L 275.095185 261.957077 
L 274.720681 261.104526 
L 274.290269 261.076272 
L 273.986282 260.879563 
L 273.981345 260.480908 
L 274.098497 260.311085 
L 274.111139 260.201672 
L 273.381044 258.324613 
L 273.022318 257.938367 
L 272.604749 257.627542 
L 272.061789 256.953987 
L 271.996808 256.555332 
L 272.229443 255.979181 
L 272.188947 255.8208 
L 272.024428 255.497132 
L 271.482836 255.168261 
L 271.244397 254.671368 
L 271.232855 254.230348 
L 270.983741 253.814914 
L 269.95066 253.304578 
L 269.906161 252.516641 
L 269.352393 251.849624 
L 269.322238 250.863944 
L 268.602684 250.350072 
L 267.723948 250.684181 
L 267.313184 250.786355 
L 267.132052 250.329557 
L 267.15667 249.488915 
L 266.255718 248.797114 
L 266.203914 247.886955 
L 265.184309 247.660891 
L 264.863643 247.320912 
L 263.379235 247.00068 
L 263.254144 246.546684 
L 261.828345 245.82246 
L 260.730483 245.456628 
L 259.576681 244.552507 
L 258.500836 243.97659 
L 258.209058 243.87048 
L 257.655261 243.849585 
L 257.506182 243.843961 
L 257.174609 243.989866 
L 256.86345 244.255859 
L 256.569504 245.221592 
L 256.380901 245.600299 
L 256.163643 245.536787 
L 256.005529 245.353154 
L 255.217225 243.856803 
L 255.066615 243.707662 
L 254.753088 243.535271 
L 254.590838 242.724717 
L 254.385089 242.374363 
L 254.136208 242.119712 
L 253.997942 241.758784 
L 254.060987 240.630967 
L 253.966452 240.492467 
L 253.739788 240.427453 
L 253.573801 240.237449 
L 252.265387 237.496898 
L 252.026214 235.361385 
L 251.833508 234.663513 
L 251.760121 233.529392 
L 251.631194 232.543044 
L 251.215327 230.615548 
L 250.834618 229.50828 
L 250.791968 229.41935 
L 250.019761 227.809183 
L 249.388238 227.191393 
L 248.921399 226.734705 
L 248.894713 226.55791 
L 248.594496 226.191011 
L 248.197508 225.874115 
L 247.703817 225.593912 
L 247.096711 225.350402 
L 246.843161 225.163634 
L 246.746424 225.000182 
L 246.776446 224.926796 
L 246.666466 224.544919 
L 246.292762 224.396412 
L 245.749035 224.266351 
L 245.350446 224.29317 
L 245.193032 224.067107 
L 245.346477 223.587626 
L 245.13906 222.799122 
L 244.274868 222.933919 
L 244.262405 222.916488 
L 243.71196 222.146549 
L 243.68363 222.194942 
L 243.373915 222.724001 
L 243.409408 223.319132 
L 243.751589 223.969736 
L 243.255963 224.009565 
L 242.488808 224.29724 
L 242.12441 224.29724 
L 241.913458 222.398532 
L 241.683291 221.727279 
L 241.568241 221.113568 
L 241.050399 219.176498 
L 240.647641 218.620296 
L 239.592811 217.699729 
L 239.650352 217.201068 
L 239.861305 217.028443 
L 240.590099 216.951721 
L 241.012038 216.990082 
L 241.453158 217.105165 
L 241.683291 217.39284 
L 242.10523 218.179176 
L 242.316216 218.332621 
L 242.546349 218.236718 
L 242.589932 218.102023 
L 242.757335 217.584646 
L 242.814844 217.009262 
L 242.987469 216.529815 
L 243.428588 215.666757 
L 243.580222 214.740016 
L 243.60118 214.611927 
L 243.60118 214.113265 
L 243.812166 213.672146 
L 243.716263 213.020074 
L 243.697083 212.463871 
L 243.754624 211.792618 
L 243.677902 211.198054 
L 243.428588 211.006282 
L 242.623072 210.795329 
L 242.546349 210.200766 
L 242.642252 209.644596 
L 242.872385 209.491152 
L 243.390227 209.491152 
L 243.581999 209.376068 
L 243.60118 209.126755 
L 243.592447 209.068543 
L 243.543638 208.743177 
L 243.102552 208.474682 
L 243.021127 208.476163 
L 242.047688 208.493863 
L 241.740833 208.608913 
L 241.491519 208.896588 
L 241.06958 209.548693 
L 240.244883 209.567874 
L 239.995569 209.644596 
L 239.803763 209.855549 
L 239.880486 210.507621 
L 240.436688 212.022752 
L 240.743544 214.094085 
L 240.60928 214.305038 
L 239.880486 214.458482 
L 239.688713 214.669435 
L 239.370444 214.726304 
L 238.682285 214.849265 
L 238.310709 214.783636 
L 237.955925 214.720972 
L 237.564709 214.880287 
L 237.313727 214.989967 
L 237.21252 216.49946 
L 236.727469 216.416633 
L 236.820236 215.193781 
L 236.659553 214.265175 
L 236.586162 214.103644 
L 236.00618 212.827134 
L 235.584208 212.366667 
L 233.919236 210.138521 
L 233.115713 208.882377 
L 232.285753 207.584905 
L 231.665303 206.39074 
L 230.78133 205.059843 
L 230.294277 203.748927 
L 230.12749 203.3887 
L 230.00837 203.29263 
L 229.737207 202.371329 
L 229.049026 201.078855 
L 228.559688 200.159828 
L 228.550089 200.143434 
L 227.645693 198.598764 
L 227.465529 198.375269 
L 227.00186 198.115081 
L 226.643801 197.760624 
L 226.648995 197.564162 
L 226.660679 197.122295 
L 226.434783 196.764169 
L 225.713961 195.882531 
L 224.83886 195.000159 
L 224.206469 194.082361 
L 224.205941 194.081795 
L 223.129022 192.928258 
L 222.571952 192.497947 
L 222.599205 192.260675 
L 222.038232 190.816829 
L 221.814737 190.389853 
L 221.481129 189.949568 
L 220.864182 189.366746 
L 220.773083 189.108292 
L 220.883529 189.090746 
L 222.028225 189.619329 
L 222.198115 190.472013 
L 222.618653 190.523283 
L 222.752083 190.496597 
L 222.735404 190.136337 
L 222.845483 189.966213 
L 223.145701 189.749423 
L 223.566039 189.642679 
L 223.942978 189.632638 
L 224.099959 189.284887 
L 224.565662 188.672176 
L 225.233946 188.02761 
L 225.201123 187.640463 
L 225.209582 187.624372 
L 225.24402 187.55887 
L 225.752021 187.266592 
L 226.147608 187.200677 
L 226.615347 186.771667 
L 226.780133 186.543802 
L 227.017938 185.777747 
L 227.155731 185.557099 
L 227.731522 184.635086 
L 228.155337 184.030231 
L 228.494774 183.545798 
L 229.141042 183.099641 
L 229.225593 183.093369 
L 229.556076 183.068852 
L 229.716559 182.964843 
L 229.761291 182.733843 
L 229.733538 182.557482 
L 229.56088 182.309536 
L 229.693175 182.189415 
L 230.386878 181.978563 
L 231.151031 181.585478 
L 231.239595 181.460821 
L 231.172847 181.260843 
L 231.670374 180.604368 
L 231.692556 180.29014 
L 231.944873 180.033921 
L 232.211065 179.973778 
L 232.523456 179.154452 
L 232.527094 179.144911 
L 232.390996 178.67417 
L 232.219138 177.641055 
L 231.842198 177.013968 
L 231.228387 177.017303 
L 231.054783 176.961417 
L 230.585421 176.81032 
L 230.304385 176.673755 
L 230.317728 176.49696 
L 230.235601 176.39135 
L 229.702382 176.137366 
L 229.310298 176.406895 
L 229.266933 176.577018 
L 229.390356 177.227456 
L 229.369007 178.276048 
L 229.633199 178.620298 
L 229.917171 178.81724 
L 230.010038 178.952238 
L 229.889951 179.643939 
L 229.795449 179.696243 
L 229.309231 179.642338 
L 228.597248 179.46194 
L 227.171116 178.77988 
L 227.205407 178.304869 
L 227.682419 178.231516 
L 227.86255 178.038043 
L 227.972629 177.811212 
L 227.659069 177.56103 
L 227.542318 177.374229 
L 227.578044 177.270654 
L 227.77582 177.127416 
L 227.925929 176.930607 
L 227.845871 175.959938 
L 227.59569 175.426251 
L 227.17205 174.825817 
L 226.43535 174.744891 
L 224.778083 173.721584 
L 224.263577 173.165448 
L 224.016439 173.047273 
L 223.312188 172.710518 
L 222.630328 172.808522 
L 222.991723 173.724219 
L 222.543131 174.26451 
L 222.45066 174.429551 
L 222.095173 175.064022 
L 221.747989 175.112691 
L 221.614559 175.19942 
L 221.494472 175.456273 
L 221.584815 175.720505 
L 221.627902 175.846522 
L 221.964812 176.116718 
L 222.353082 176.282152 
L 222.498666 176.344183 
L 222.795447 176.517008 
L 223.259116 176.627054 
L 224.330125 176.86963 
L 224.493377 176.937279 
L 224.563427 177.357583 
L 225.300628 177.944642 
L 225.686808 178.475659 
L 225.807695 178.948669 
L 225.991161 179.205521 
L 226.084562 179.83928 
L 225.387357 180.43301 
L 225.092262 180.800091 
L 224.876888 181.068003 
L 224.660516 181.788492 
L 224.616799 181.934064 
L 224.800266 182.641209 
L 224.776915 182.831347 
L 224.513391 183.378376 
L 224.306575 183.601871 
L 223.882901 183.721958 
L 223.535983 183.655243 
L 223.525135 183.650754 
L 223.245773 183.535156 
L 223.055636 183.525149 
L 222.993079 183.899254 
L 222.991256 183.910161 
L 222.507672 183.724961 
L 221.844492 183.776865 
L 221.671267 183.998826 
L 221.531165 184.692628 
L 221.577866 184.936138 
L 221.75466 185.353073 
L 221.880318 185.511921 
L 222.362801 185.771743 
L 222.131767 186.22367 
L 221.195789 186.635235 
L 221.079838 186.489996 
L 220.798868 185.50525 
L 220.775084 185.055791 
L 221.015959 184.449252 
L 221.030803 183.505135 
L 220.954047 183.124893 
L 220.757238 182.68791 
L 220.507057 182.521122 
L 220.266883 182.224274 
L 219.96333 181.467092 
L 219.526313 180.936708 
L 219.289475 180.676553 
L 218.281779 179.938052 
L 218.010649 179.654113 
L 217.741612 179.174188 
L 217.411382 178.585105 
L 217.324652 178.288257 
L 217.257937 177.517699 
L 217.368017 176.720488 
L 217.598391 175.825964 
L 217.599652 175.821071 
L 217.916348 174.988634 
L 217.986807 173.090451 
L 218.014585 172.342118 
L 217.51509 170.446245 
L 217.155563 168.199218 
L 217.151169 167.979696 
L 217.124174 166.630949 
L 217.281154 166.474169 
L 217.731213 166.713943 
L 217.827388 167.991719 
L 217.923653 169.270694 
L 218.504974 171.830447 
L 219.539656 171.860469 
L 219.502963 170.179319 
L 219.586357 169.468837 
L 219.409562 168.888417 
L 219.272796 168.638269 
L 218.995929 168.66162 
L 218.680701 168.561113 
L 218.793349 167.981427 
L 219.038026 167.460783 
L 220.209508 166.419229 
L 220.148897 166.384004 
L 220.160806 165.574217 
L 220.328628 165.251484 
L 220.758406 165.012244 
L 221.205262 163.986801 
L 221.116165 163.704697 
L 221.249695 162.881267 
L 221.691303 162.304448 
L 221.771339 162.199907 
L 222.09524 161.447496 
L 222.088235 160.337759 
L 222.38475 159.70927 
L 222.828271 159.447314 
L 223.008207 159.26595 
L 223.038356 159.235561 
L 223.140164 158.982411 
L 222.953061 158.474109 
L 223.219454 158.222193 
L 223.464799 157.565451 
L 223.484313 157.420213 
L 223.420266 157.135273 
L 223.294976 157.020557 
L 223.319327 156.383095 
L 223.365226 156.105561 
L 223.509831 156.039046 
L 223.544349 155.96706 
L 223.743701 155.551326 
L 223.575746 155.386907 
L 223.578381 155.240134 
L 223.731825 154.776965 
L 223.828962 154.016114 
L 223.498156 153.490834 
L 223.144233 152.123044 
L 223.336886 150.564767 
L 223.342477 150.519549 
L 221.886389 149.676839 
L 222.356463 148.473001 
L 221.290224 145.365917 
L 222.67059 143.516111 
L 222.211791 142.603917 
L 222.005809 142.503044 
L 221.503178 141.918388 
L 221.106458 141.244466 
L 221.035806 140.510802 
L 220.334159 140.591736 
L 220.279292 140.598065 
L 220.162407 140.377238 
L 220.31842 140.146671 
L 220.514062 139.483624 
L 220.307546 138.559755 
L 219.519508 138.211937 
L 219.611909 137.91302 
L 218.398797 137.825123 
L 218.174168 137.068342 
L 218.647043 136.877604 
L 218.924478 136.861492 
L 218.992827 136.676558 
L 219.000866 136.547899 
L 218.773135 136.036061 
L 218.805391 135.476456 
L 218.060285 135.082804 
L 217.022667 134.954378 
L 216.054232 134.972191 
L 214.873311 134.704397 
L 214.546674 134.767042 
L 214.116463 134.769377 
L 213.13662 134.666336 
L 212.974969 134.636081 
L 212.720118 134.359981 
L 212.57031 134.340967 
L 212.420501 134.427363 
L 211.684368 135.316574 
L 211.655714 135.653251 
L 211.276039 135.896794 
L 210.517023 136.003004 
L 210.394934 135.488498 
L 210.015259 135.259266 
L 210.258836 134.664702 
L 210.251664 134.492777 
L 210.115565 134.213375 
L 209.6571 133.797907 
L 209.361786 133.148237 
L 209.798936 132.095641 
L 209.714508 131.850264 
L 209.322625 131.477627 
L 208.706712 131.398003 
L 208.103275 131.065896 
L 208.021216 130.936202 
L 207.406837 130.720679 
L 207.296124 130.701532 
L 206.930326 130.806841 
L 206.75148 130.731146 
L 206.635245 130.681951 
L 206.396406 129.885875 
L 206.345569 129.42901 
L 206.392536 129.383878 
L 206.437035 128.869472 
L 205.967929 128.244786 
L 205.59696 127.896601 
L 205.538785 127.210537 
L 205.01744 126.340908 
L 204.269099 125.917734 
L 203.486665 125.830071 
L 203.218004 125.94849 
L 202.459855 125.759453 
L 202.04799 125.034662 
L 202.023506 124.727439 
L 201.899483 124.500441 
L 201.510268 124.462981 
L 201.24621 124.502843 
L 200.614519 124.043711 
L 200.392525 123.692023 
L 199.939997 123.692023 
L 199.640914 123.570034 
L 199.4835 123.25524 
L 198.940473 123.113571 
L 198.897109 122.911791 
L 198.95455 122.586522 
L 198.773552 121.076195 
L 198.779824 120.500745 
L 198.966225 119.920792 
L 198.812748 118.992053 
L 198.539325 118.120606 
L 198.522971 118.068484 
L 198.458491 118.000068 
L 197.73937 117.771469 
L 197.459968 117.779275 
L 197.341249 117.842687 
L 197.102342 117.802992 
L 196.175438 117.334853 
L 196.161294 117.065858 
L 195.822349 116.73742 
L 195.188957 116.467491 
L 194.357388 116.247999 
L 194.039591 115.942344 
L 193.778702 115.596194 
L 193.410936 114.967939 
L 192.97939 114.736304 
L 192.787218 114.479385 
L 192.741418 114.193711 
L 192.842958 114.10488 
L 192.881052 113.946232 
L 192.747756 113.28939 
L 192.427724 112.747998 
L 192.102455 112.467695 
L 191.658 112.269251 
L 191.010464 110.810295 
L 190.277567 110.361603 
L 189.634835 109.728178 
L 189.394528 109.553985 
L 187.03195 108.412892 
L 185.981856 107.777799 
L 184.648858 107.570816 
L 184.090554 107.074423 
L 181.219041 105.706766 
L 181.147055 105.637249 
L 181.206732 105.536409 
L 181.154928 105.465358 
L 180.27936 104.843641 
L 179.214356 104.210616 
L 178.910503 103.800686 
L 178.124667 103.565115 
L 177.309376 103.567217 
L 176.833198 103.628261 
L 176.397797 103.825533 
L 176.163814 103.931547 
L 176.031151 103.937652 
L 175.774598 103.842216 
L 175.507572 103.887348 
L 175.13697 104.158645 
L 174.768403 103.987754 
L 174.408342 104.240704 
L 173.687987 104.58442 
L 173.334298 104.627518 
L 172.958426 104.568642 
L 172.311924 104.076619 
L 172.210017 104.075118 
L 172.151175 104.145402 
L 171.995695 104.182062 
L 171.028195 104.15591 
L 170.739519 103.907029 
L 170.678708 103.6362 
L 170.380226 103.547769 
L 169.949113 103.752284 
L 169.844104 103.929145 
L 169.794335 104.238669 
L 169.915589 104.49252 
L 169.901446 104.738531 
L 169.688758 104.999754 
L 169.269821 105.102028 
L 168.999326 105.093555 
L 167.68851 105.930928 
L 166.72171 106.721034 
L 166.860243 107.418972 
L 166.926158 107.519045 
L 167.335988 107.539593 
L 167.4914 107.840578 
L 167.550774 108.318407 
L 167.611988 108.811047 
L 167.709225 108.927765 
L 167.801458 109.554452 
L 167.727838 109.913345 
L 167.479792 110.361103 
L 167.290422 110.452069 
L 166.294 110.575491 
L 165.426005 110.304729 
L 164.796349 110.245786 
L 164.447663 110.134639 
L 164.13527 109.885892 
L 163.866642 109.375523 
L 163.245593 109.527666 
L 162.43704 109.880155 
L 161.855486 109.792858 
L 161.059009 110.009081 
L 159.672438 110.751752 
L 158.809714 111.142402 
L 158.481109 111.413698 
L 157.320135 112.110203 
L 157.041267 112.415791 
L 157.036863 112.538079 
L 156.593943 112.717109 
L 156.120066 112.636484 
L 155.849237 112.712139 
L 154.572512 113.451307 
L 153.729635 114.063751 
L 153.48269 114.053543 
L 151.441245 115.072881 
L 151.008565 115.151672 
L 149.971047 115.601064 
L 149.520521 115.887004 
L 149.311903 116.269815 
L 149.163062 116.261342 
L 148.853237 115.825593 
L 149.24402 115.155808 
L 149.676167 114.585862 
L 149.113059 114.175965 
L 148.774881 114.139172 
L 148.408615 114.238444 
L 148.214909 114.585428 
L 147.63272 115.34231 
L 147.358355 115.515068 
L 146.777534 115.602131 
L 146.616284 116.113902 
L 146.343987 116.309744 
L 145.801594 116.518161 
L 144.335599 116.647822 
L 143.171056 116.38253 
L 142.185042 116.391837 
L 141.524864 116.488373 
L 142.22754 117.527926 
L 143.09817 117.885151 
L 143.24034 118.98765 
L 145.174874 119.604463 
L 148.861577 118.088532 
L 152.29553 116.948039 
L 153.856494 115.74707 
L 155.521433 114.542531 
L 155.830356 114.9144 
L 153.017153 117.277711 
L 149.688842 118.493025 
L 147.298011 119.599159 
L 145.428391 120.392167 
L 144.073343 120.786919 
L 142.767164 119.847172 
L 140.873159 119.217549 
L 138.184612 117.75896 
L 138.071256 117.748454 
L 136.913325 117.641141 
L 135.878542 117.548241 
L 134.928688 117.634536 
L 134.114632 117.951099 
L 133.978133 118.111682 
L 133.814548 118.358627 
L 133.254008 117.649414 
L 132.890945 117.067759 
L 132.304921 115.666311 
L 131.767465 113.685977 
L 131.634436 112.718944 
L 131.681903 112.259511 
L 131.781075 111.915528 
L 132.039929 111.485984 
L 132.665983 111.061377 
L 132.648003 112.169179 
L 132.608374 113.097684 
L 132.687665 114.060849 
L 132.965132 115.230796 
L 133.361553 116.676576 
L 133.678716 117.1242 
L 134.233684 117.296358 
L 134.788686 117.089742 
L 135.369574 116.176547 
L 135.525253 113.777644 
L 135.483223 113.411478 
L 135.406967 113.311339 
L 135.188709 113.202027 
L 135.0844 112.938302 
L 135.076528 112.661569 
L 135.138973 112.604928 
L 134.987097 112.384068 
L 134.735448 112.181521 
L 134.492572 112.150198 
L 134.346966 112.037117 
L 134.000382 111.280369 
L 133.443746 110.381918 
L 132.743272 109.646919 
L 132.611602 109.533287 
L 132.065381 109.061895 
L 131.368076 108.681587 
L 130.216175 108.358319 
L 129.918059 108.418063 
L 129.306316 108.303346 
L 128.593 107.961799 
L 127.524626 107.150378 
L 126.499517 106.128004 
L 126.183188 105.74963 
L 125.954623 105.157201 
L 125.52311 105.130549 
L 124.953498 104.825695 
L 124.318671 104.564239 
L 123.786086 104.413463 
L 122.333067 103.777969 
L 121.224131 103.068689 
L 120.561117 102.455445 
L 119.711335 101.796534 
L 118.51667 101.061669 
L 116.28442 99.817468 
L 114.80128 99.070093 
L 112.350074 98.031888 
L 112.221512 97.977436 
L 109.21847 96.883677 
L 104.795334 95.548844 
L 102.255528 94.899574 
L 100.071447 94.516796 
L 98.965656 94.382396 
L 98.47359 94.322589 
L 96.51307 94.204037 
L 95.335517 94.257408 
L 94.571064 94.104097 
L 91.105688 93.790437 
L 87.171072 93.93781 
L 86.68575 93.990928 
L 85.577956 94.112173 
L 85.523988 94.11808 
L 83.844697 94.301874 
L 81.874804 94.58688 
L 81.554135 94.645184 
L 73.678435 96.077126 
L 71.981806 96.304124 
L 69.927886 96.486356 
L 69.428858 96.377477 
L 69.007386 96.218729 
L 68.203604 96.408499 
L 67.170589 96.566948 
L 64.85648 97.098532 
L 61.571935 97.655369 
L 61.570067 97.539752 
L 61.869384 97.263318 
L 63.287211 96.927208 
L 63.379277 96.609211 
L 62.661057 96.704614 
L 62.42165 96.609211 
L 62.31117 96.402562 
L 62.495337 96.227702 
L 62.808397 96.116421 
L 63.354659 95.891992 
L 63.418005 95.868642 
L 63.518078 95.79192 
L 63.77493 95.531765 
L 63.818829 95.459612 
L 63.784904 94.991407 
L 63.78824 94.834626 
L 63.804919 94.76124 
L 63.881641 94.654496 
L 64.12365 94.45752 
L 64.228525 94.307645 
L 64.228525 94.26428 
L 64.155139 94.110836 
L 64.145132 94.047456 
L 64.16181 93.95072 
L 64.275226 93.803947 
L 64.375298 93.750575 
L 64.458692 93.56047 
L 64.495272 93.5056 
L 64.532079 93.450391 
L 64.645494 93.360326 
L 64.762245 93.330304 
L 64.878996 93.326968 
L 65.079141 93.366997 
L 65.222579 93.373669 
L 65.402676 93.326968 
L 65.459383 93.286939 
L 65.559489 93.163516 
L 65.662897 93.080156 
L 65.973089 92.983419 
L 66.040812 92.94562 
L 66.116526 92.903361 
L 66.480323 92.650078 
L 66.579661 92.552774 
L 66.633033 92.444663 
L 66.621425 92.316837 
L 66.563349 92.178403 
L 66.493699 92.103882 
L 66.146548 91.996071 
L 65.786287 91.946035 
L 65.622802 91.979392 
L 65.522729 91.966049 
L 65.362647 91.902703 
L 65.255903 91.785986 
L 65.029072 91.755964 
L 64.682121 91.479097 
L 64.532012 91.312343 
L 64.498654 91.112198 
L 64.465297 91.075504 
L 64.361889 91.025468 
L 64.3319 90.982103 
L 64.418596 90.83533 
L 64.498654 90.628547 
L 64.47864 90.471801 
L 64.242102 90.152836 
L 64.194701 90.109772 
L 64.076949 90.105335 
L 64.027113 90.081585 
L 63.927474 89.982713 
L 63.924806 89.934178 
L 63.940684 89.910294 
L 63.96757 89.878938 
L 64.011502 89.865228 
L 64.019441 89.833105 
L 63.969972 89.654209 
L 63.964668 89.428679 
L 64.336437 88.692412 
L 64.352348 88.677101 
L 64.469834 88.654952 
L 64.588253 88.525024 
L 64.650097 88.327748 
L 64.739295 88.282649 
L 64.757875 88.284183 
L 64.771118 88.315539 
L 64.820588 88.3079 
L 64.896576 88.268905 
L 64.962857 88.119831 
L 64.95315 88.063223 
L 64.901046 88.011252 
L 64.90635 87.995174 
L 64.976167 87.914949 
L 65.034476 87.881325 
L 65.094553 87.888964 
L 65.227149 87.539611 
L 65.299801 86.998319 
L 65.365215 86.882902 
L 65.479264 86.849277 
L 65.542911 86.808781 
L 65.608325 86.704806 
L 65.684446 86.486215 
L 65.683546 86.465566 
L 65.637612 86.431909 
L 65.637612 86.404389 
L 65.663331 86.216319 
L 65.702693 86.155608 
L 65.726177 86.095131 
L 65.732414 85.965904 
L 65.653924 85.529322 
L 65.612428 85.390955 
L 65.646052 85.312998 
L 65.609859 85.183004 
L 65.512622 85.087402 
L 65.494943 85.089703 
L 65.322584 84.773908 
L 65.281088 84.601116 
L 65.299668 84.526962 
L 65.286425 84.488735 
L 65.093585 84.392332 
L 64.867155 84.328085 
L 64.688492 84.214937 
L 64.505393 84.039109 
L 64.31699 84.038342 
L 64.190465 83.977932 
L 64.108205 83.904545 
L 64.06484 83.840332 
L 63.871967 83.696628 
L 63.803851 83.66684 
L 63.618951 83.741761 
L 63.305724 83.632515 
L 63.259724 83.604228 
L 63.170326 83.484207 
L 63.035828 83.440676 
L 62.864037 83.231258 
L 62.856032 83.161707 
L 62.809131 83.109736 
L 62.615324 83.043288 
L 62.290555 82.981477 
L 62.265771 82.989149 
L 62.105588 82.940213 
L 62.010986 82.782699 
L 61.791628 82.541792 
L 61.39524 82.382643 
L 61.095223 82.209785 
L 61.003223 82.000099 
L 61.001522 81.833812 
L 60.964429 81.612919 
L 60.945848 81.574658 
L 60.773223 81.408738 
L 60.643129 81.258095 
L 60.669682 81.188545 
L 60.680356 81.036435 
L 60.44662 80.783318 
L 60.416498 80.760402 
L 60.353686 80.754264 
L 60.198707 80.64345 
L 60.179227 80.58304 
L 60.041093 80.450044 
L 59.909965 80.355242 
L 59.779771 80.307073 
L 59.619455 80.052522 
L 59.452 79.91112 
L 59.251855 79.823256 
L 59.037467 79.758309 
L 58.831017 79.636788 
L 58.792856 79.486279 
L 58.728143 79.370062 
L 58.654556 79.280664 
L 58.480897 79.236365 
L 58.316111 79.167615 
L 58.334624 79.089625 
L 58.270778 78.978812 
L 58.042112 78.800049 
L 57.977466 78.773997 
L 57.935835 78.725061 
L 57.963389 78.594333 
L 58.000649 78.511773 
L 57.972362 78.419306 
L 57.90508 78.319134 
L 57.681818 78.127162 
L 57.846938 77.733543 
" clip-path="url(#pd8fcfb890d)" style="fill: #e5f100"/>
   </g>
   <g id="PathCollection_1">
    <defs>
     <path id="mfd9c470a3f" d="M 0 1.581139 
C 0.419323 1.581139 0.821528 1.41454 1.118034 1.118034 
C 1.41454 0.821528 1.581139 0.419323 1.581139 0 
C 1.581139 -0.419323 1.41454 -0.821528 1.118034 -1.118034 
C 0.821528 -1.41454 0.419323 -1.581139 0 -1.581139 
C -0.419323 -1.581139 -0.821528 -1.41454 -1.118034 -1.118034 
C -1.41454 -0.821528 -1.581139 -0.419323 -1.581139 0 
C -1.581139 0.419323 -1.41454 0.821528 -1.118034 1.118034 
C -0.821528 1.41454 -0.419323 1.581139 0 1.581139 
z
" style="stroke: #000000"/>
    </defs>
    <g clip-path="url(#pd8fcfb890d)">
     <use xlink:href="#mfd9c470a3f" x="169.551058" y="92.39546" style="stroke: #000000"/>
    </g>
   </g>
   <g id="text_1">
    <!-- Tallahassee -->
    <g transform="translate(172.551058 89.39546) scale(0.1 -0.1)">
     <defs>
      <path id="DejaVuSans-54" d="M -19 4666 
L 3928 4666 
L 3928 4134 
L 2272 4134 
L 2272 0 
L 1638 0 
L 1638 4134 
L -19 4134 
L -19 4666 
z
" transform="scale(0.015625)"/>
      <path id="DejaVuSans-61" d="M 2194 1759 
Q 1497 1759 1228 1600 
Q 959 1441 959 1056 
Q 959 750 1161 570 
Q 1363 391 1709 391 
Q 2188 391 2477 730 
Q 2766 1069 2766 1631 
L 2766 1759 
L 2194 1759 
z
M 3341 1997 
L 3341 0 
L 2766 0 
L 2766 531 
Q 2569 213 2275 61 
Q 1981 -91 1556 -91 
Q 1019 -91 701 211 
Q 384 513 384 1019 
Q 384 1609 779 1909 
Q 1175 2209 1959 2209 
L 2766 2209 
L 2766 2266 
Q 2766 2663 2505 2880 
Q 2244 3097 1772 3097 
Q 1472 3097 1187 3025 
Q 903 2953 641 2809 
L 641 3341 
Q 956 3463 1253 3523 
Q 1550 3584 1831 3584 
Q 2591 3584 2966 3190 
Q 3341 2797 3341 1997 
z
" transform="scale(0.015625)"/>
      <path id="DejaVuSans-6c" d="M 603 4863 
L 1178 4863 
L 1178 0 
L 603 0 
L 603 4863 
z
" transform="scale(0.015625)"/>
      <path id="DejaVuSans-68" d="M 3513 2113 
L 3513 0 
L 2938 0 
L 2938 2094 
Q 2938 2591 2744 2837 
Q 2550 3084 2163 3084 
Q 1697 3084 1428 2787 
Q 1159 2491 1159 1978 
L 1159 0 
L 581 0 
L 581 4863 
L 1159 4863 
L 1159 2956 
Q 1366 3272 1645 3428 
Q 1925 3584 2291 3584 
Q 2894 3584 3203 3211 
Q 3513 2838 3513 2113 
z
" transform="scale(0.015625)"/>
      <path id="DejaVuSans-73" d="M 2834 3397 
L 2834 2853 
Q 2591 2978 2328 3040 
Q 2066 3103 1784 3103 
Q 1356 3103 1142 2972 
Q 928 2841 928 2578 
Q 928 2378 1081 2264 
Q 1234 2150 1697 2047 
L 1894 2003 
Q 2506 1872 2764 1633 
Q 3022 1394 3022 966 
Q 3022 478 2636 193 
Q 2250 -91 1575 -91 
Q 1294 -91 989 -36 
Q 684 19 347 128 
L 347 722 
Q 666 556 975 473 
Q 1284 391 1588 391 
Q 1994 391 2212 530 
Q 2431 669 2431 922 
Q 2431 1156 2273 1281 
Q 2116 1406 1581 1522 
L 1381 1569 
Q 847 1681 609 1914 
Q 372 2147 372 2553 
Q 372 3047 722 3315 
Q 1072 3584 1716 3584 
Q 2034 3584 2315 3537 
Q 2597 3491 2834 3397 
z
" transform="scale(0.015625)"/>
      <path id="DejaVuSans-65" d="M 3597 1894 
L 3597 1613 
L 953 1613 
Q 991 1019 1311 708 
Q 1631 397 2203 397 
Q 2534 397 2845 478 
Q 3156 559 3463 722 
L 3463 178 
Q 3153 47 2828 -22 
Q 2503 -91 2169 -91 
Q 1331 -91 842 396 
Q 353 884 353 1716 
Q 353 2575 817 3079 
Q 1281 3584 2069 3584 
Q 2775 3584 3186 3129 
Q 3597 2675 3597 1894 
z
M 3022 2063 
Q 3016 2534 2758 2815 
Q 2500 3097 2075 3097 
Q 1594 3097 1305 2825 
Q 1016 2553 972 2059 
L 3022 2063 
z
" transform="scale(0.015625)"/>
     </defs>
     <use xlink:href="#DejaVuSans-54"/>
     <use xlink:href="#DejaVuSans-61" x="44.583984"/>
     <use xlink:href="#DejaVuSans-6c" x="105.863281"/>
     <use xlink:href="#DejaVuSans-6c" x="133.646484"/>
     <use xlink:href="#DejaVuSans-61" x="161.429688"/>
     <use xlink:href="#DejaVuSans-68" x="222.708984"/>
     <use xlink:href="#DejaVuSans-61" x="286.087891"/>
     <use xlink:href="#DejaVuSans-73" x="347.367188"/>
     <use xlink:href="#DejaVuSans-73" x="399.466797"/>
     <use xlink:href="#DejaVuSans-65" x="451.566406"/>
     <use xlink:href="#DejaVuSans-65" x="513.089844"/>
    </g>
   </g>
   <g id="text_2">
    <!-- Florida -->
    <g transform="translate(164.091563 56.805227) scale(0.12 -0.12)">
     <defs>
      <path id="DejaVuSans-46" d="M 628 4666 
L 3309 4666 
L 3309 4134 
L 1259 4134 
L 1259 2759 
L 3109 2759 
L 3109 2228 
L 1259 2228 
L 1259 0 
L 628 0 
L 628 4666 
z
" transform="scale(0.015625)"/>
      <path id="DejaVuSans-6f" d="M 1959 3097 
Q 1497 3097 1228 2736 
Q 959 2375 959 1747 
Q 959 1119 1226 758 
Q 1494 397 1959 397 
Q 2419 397 2687 759 
Q 2956 1122 2956 1747 
Q 2956 2369 2687 2733 
Q 2419 3097 1959 3097 
z
M 1959 3584 
Q 2709 3584 3137 3096 
Q 3566 2609 3566 1747 
Q 3566 888 3137 398 
Q 2709 -91 1959 -91 
Q 1206 -91 779 398 
Q 353 888 353 1747 
Q 353 2609 779 3096 
Q 1206 3584 1959 3584 
z
" transform="scale(0.015625)"/>
      <path id="DejaVuSans-72" d="M 2631 2963 
Q 2534 3019 2420 3045 
Q 2306 3072 2169 3072 
Q 1681 3072 1420 2755 
Q 1159 2438 1159 1844 
L 1159 0 
L 581 0 
L 581 3500 
L 1159 3500 
L 1159 2956 
Q 1341 3275 1631 3429 
Q 1922 3584 2338 3584 
Q 2397 3584 2469 3576 
Q 2541 3569 2628 3553 
L 2631 2963 
z
" transform="scale(0.015625)"/>
      <path id="DejaVuSans-69" d="M 603 3500 
L 1178 3500 
L 1178 0 
L 603 0 
L 603 3500 
z
M 603 4863 
L 1178 4863 
L 1178 4134 
L 603 4134 
L 603 4863 
z
" transform="scale(0.015625)"/>
      <path id="DejaVuSans-64" d="M 2906 2969 
L 2906 4863 
L 3481 4863 
L 3481 0 
L 2906 0 
L 2906 525 
Q 2725 213 2448 61 
Q 2172 -91 1784 -91 
Q 1150 -91 751 415 
Q 353 922 353 1747 
Q 353 2572 751 3078 
Q 1150 3584 1784 3584 
Q 2172 3584 2448 3432 
Q 2725 3281 2906 2969 
z
M 947 1747 
Q 947 1113 1208 752 
Q 1469 391 1925 391 
Q 2381 391 2643 752 
Q 2906 1113 2906 1747 
Q 2906 2381 2643 2742 
Q 2381 3103 1925 3103 
Q 1469 3103 1208 2742 
Q 947 2381 947 1747 
z
" transform="scale(0.015625)"/>
     </defs>
     <use xlink:href="#DejaVuSans-46"/>
     <use xlink:href="#DejaVuSans-6c" x="57.519531"/>
     <use xlink:href="#DejaVuSans-6f" x="85.302734"/>
     <use xlink:href="#DejaVuSans-72" x="146.484375"/>
     <use xlink:href="#DejaVuSans-69" x="187.597656"/>
     <use xlink:href="#DejaVuSans-64" x="215.380859"/>
     <use xlink:href="#DejaVuSans-61" x="278.857422"/>
    </g>
   </g>
  </g>
 </g>
 <defs>
  <clipPath id="pd8fcfb890d">
   <rect x="45" y="62.805227" width="279" height="237.989547"/>
  </clipPath>
 </defs>
</svg>
