<?xml version="1.0" encoding="utf-8" standalone="no"?>
<!DOCTYPE svg PUBLIC "-//W3C//DTD SVG 1.1//EN"
  "http://www.w3.org/Graphics/SVG/1.1/DTD/svg11.dtd">
<svg xmlns:xlink="http://www.w3.org/1999/xlink" width="460.8pt" height="345.6pt" viewBox="0 0 460.8 345.6" xmlns="http://www.w3.org/2000/svg" version="1.1">
 <metadata>
  <rdf:RDF xmlns:dc="http://purl.org/dc/elements/1.1/" xmlns:cc="http://creativecommons.org/ns#" xmlns:rdf="http://www.w3.org/1999/02/22-rdf-syntax-ns#">
   <cc:Work>
    <dc:type rdf:resource="http://purl.org/dc/dcmitype/StillImage"/>
    <dc:date>2023-06-19T14:47:41.546454</dc:date>
    <dc:format>image/svg+xml</dc:format>
    <dc:creator>
     <cc:Agent>
      <dc:title>Matplotlib v3.7.1, https://matplotlib.org/</dc:title>
     </cc:Agent>
    </dc:creator>
   </cc:Work>
  </rdf:RDF>
 </metadata>
 <defs>
  <style type="text/css">*{stroke-linejoin: round; stroke-linecap: butt}</style>
 </defs>
 <g id="figure_1">
  <g id="patch_1">
   <path d="M 0 345.6 
L 460.8 345.6 
L 460.8 0 
L 0 0 
z
" style="fill: #ffffff"/>
  </g>
  <g id="axes_1">
   <g id="PatchCollection_1">
    <path d="M 131.676386 54.40071 
L 133.982115 54.434464 
L 137.424421 54.484857 
L 137.748634 54.489603 
L 141.333862 54.488821 
L 142.256989 54.468604 
L 143.857549 54.434441 
L 144.698221 54.416498 
L 144.820804 54.411297 
L 144.821023 54.411287 
L 144.995096 54.411287 
L 145.301577 54.402117 
L 146.04471 54.385234 
L 146.119269 54.385234 
L 146.59298 54.380023 
L 147.035948 54.374813 
L 147.886796 54.359181 
L 148.114902 54.359181 
L 148.487696 54.359181 
L 148.544712 54.35397 
L 148.663129 54.34876 
L 148.720144 54.34876 
L 150.064353 54.332086 
L 150.299081 54.327917 
L 156.236159 54.285815 
L 156.241904 54.287066 
L 159.101105 54.246006 
L 159.227707 54.244871 
L 160.164094 54.236471 
L 160.655437 54.234699 
L 160.879728 54.23199 
L 164.300312 54.238503 
L 164.444255 54.240848 
L 165.594786 54.227404 
L 165.936397 54.24288 
L 166.091304 54.232146 
L 166.231606 54.240483 
L 166.518307 54.247674 
L 166.529932 54.248081 
L 166.586638 54.250071 
L 166.632996 54.248872 
L 168.048497 54.238054 
L 170.014678 54.223027 
L 170.172041 54.226571 
L 174.667545 54.228759 
L 174.818856 54.21047 
L 179.713293 54.227092 
L 179.749871 54.225893 
L 184.756234 54.22605 
L 184.798689 54.22407 
L 187.95937 54.206353 
L 196.393906 54.253457 
L 196.39842 54.253467 
L 200.762221 54.262993 
L 201.13927 54.257313 
L 201.845283 54.256769 
L 204.854537 54.254447 
L 204.864131 54.254469 
L 209.483721 54.26466 
L 213.045178 54.243714 
L 218.742702 54.300978 
L 218.73393 54.014446 
L 221.839262 53.993552 
L 224.752697 53.941894 
L 231.778089 53.817328 
L 237.583065 53.630684 
L 241.17053 53.568005 
L 241.170837 53.568 
L 241.305701 53.792838 
L 241.346533 53.978389 
L 241.351357 54.158207 
L 241.241668 54.502734 
L 241.108602 54.611375 
L 241.021062 54.858307 
L 240.654144 55.248582 
L 240.592041 55.497963 
L 240.621119 55.740465 
L 240.479106 55.934613 
L 240.362575 56.010792 
L 240.374592 56.273199 
L 240.542174 56.493556 
L 240.617874 56.588859 
L 240.649101 56.662954 
L 240.622347 56.774096 
L 240.557744 56.829694 
L 240.444151 56.882581 
L 240.317182 56.827036 
L 240.254772 56.864084 
L 240.216922 56.980541 
L 240.23758 57.127272 
L 240.208239 57.201211 
L 239.766719 57.514734 
L 239.650933 57.523019 
L 239.357741 57.394734 
L 239.212702 57.440379 
L 239.097531 57.54678 
L 239.003675 57.76474 
L 238.875696 57.861032 
L 238.696536 57.830602 
L 238.542945 57.881302 
L 238.445141 58.071437 
L 238.301286 58.24443 
L 238.086469 58.383085 
L 238.001428 58.567645 
L 237.752752 58.837242 
L 237.583109 58.9203 
L 237.391142 58.925354 
L 237.266541 59.071095 
L 237.015497 59.140344 
L 236.961946 59.319225 
L 237.110581 59.612635 
L 236.915676 59.847686 
L 236.737787 59.840548 
L 236.578144 59.709397 
L 236.280961 59.952837 
L 235.880053 59.859931 
L 235.742383 59.956641 
L 235.517347 60.008434 
L 235.448445 60.081174 
L 235.471427 60.226707 
L 235.47748 60.38808 
L 235.370992 60.546223 
L 235.162446 60.60948 
L 235.100343 60.735993 
L 235.091484 60.978496 
L 234.967234 61.10501 
L 234.856317 61.236786 
L 234.804564 61.519515 
L 234.767592 61.605751 
L 234.718777 61.647957 
L 234.61229 61.679585 
L 234.537117 61.646029 
L 234.434796 61.605751 
L 234.332738 61.605751 
L 234.195199 61.663745 
L 234.093185 62.085441 
L 234.211119 62.317209 
L 234.173138 62.908875 
L 234.039152 63.062745 
L 233.844334 63.144969 
L 233.515617 62.912262 
L 233.442769 62.8229 
L 233.219004 62.74818 
L 233.166111 62.850777 
L 233.15712 63.042267 
L 233.026993 63.25632 
L 232.896866 63.280132 
L 232.801738 63.280132 
L 232.716653 63.286072 
L 232.671611 63.333645 
L 232.646612 63.387158 
L 232.646612 63.446612 
L 232.711653 63.571458 
L 232.724811 63.814742 
L 232.616876 63.898373 
L 232.172198 64.028221 
L 231.729932 64.559653 
L 231.9019 65.392675 
L 231.855279 65.82797 
L 231.896769 66.127842 
L 231.080832 67.030374 
L 230.635102 67.296168 
L 230.441731 67.741468 
L 230.474421 68.394181 
L 230.474756 68.400872 
L 230.522693 68.480959 
L 230.540938 68.544164 
L 230.593042 68.80308 
L 230.683828 68.948977 
L 230.678872 69.043029 
L 230.599708 69.184185 
L 230.58484 69.278237 
L 230.609576 69.360564 
L 230.678872 69.437004 
L 230.817464 69.572272 
L 230.916452 69.689876 
L 231.005527 69.80748 
L 231.050087 69.913307 
L 231.051499 69.928986 
L 231.064911 70.077963 
L 231.079779 70.172015 
L 231.188679 70.248507 
L 231.448451 70.206405 
L 231.665461 70.301499 
L 231.835324 70.404356 
L 231.924049 70.486111 
L 231.964223 70.548691 
L 232.057334 70.833034 
L 232.145357 70.852418 
L 232.385568 70.783169 
L 232.573105 70.820268 
L 232.711872 70.975493 
L 232.739459 71.189754 
L 233.088789 71.620881 
L 233.365096 71.792831 
L 233.743285 72.107709 
L 234.005469 72.261787 
L 234.430893 72.345157 
L 234.737943 72.480633 
L 235.04495 72.793271 
L 235.207226 73.074592 
L 235.378799 73.167862 
L 235.378492 73.178284 
L 235.259855 73.507074 
L 235.768654 73.856186 
L 236.223814 73.926529 
L 236.653799 73.876611 
L 237.172158 74.007242 
L 237.294961 74.132297 
L 238.064233 74.026938 
L 238.327864 74.071645 
L 238.478473 74.161163 
L 238.496981 74.243387 
L 238.478473 74.340096 
L 238.435317 74.507461 
L 238.466018 74.840941 
L 238.553734 74.91389 
L 239.154634 75.059787 
L 239.242351 75.575587 
L 239.799393 76.112281 
L 240.246746 76.44055 
L 240.356391 76.424919 
L 240.543885 76.522357 
L 241.373418 77.562554 
L 241.392022 77.74679 
L 241.408987 77.914792 
L 241.452713 77.978726 
L 241.686083 78.012856 
L 241.8615 77.943937 
L 241.87441 77.938865 
L 242.083832 77.983989 
L 242.212512 78.041879 
L 242.508204 78.36129 
L 242.513379 78.418138 
L 242.124533 78.728066 
L 242.110147 78.824931 
L 242.888103 79.544414 
L 243.060729 79.596781 
L 243.397208 79.462086 
L 243.545449 79.504866 
L 243.764555 79.911144 
L 243.816229 80.006961 
L 244.01438 80.238209 
L 244.411691 80.515466 
L 244.508135 80.539591 
L 244.648393 80.481493 
L 245.805854 81.107549 
L 246.149439 81.08926 
L 246.141149 80.924344 
L 246.255531 80.745932 
L 246.275512 80.739356 
L 246.830205 80.556786 
L 247.659124 80.593261 
L 247.922316 80.83816 
L 248.242481 80.718316 
L 248.527559 80.379625 
L 249.071444 80.478627 
L 249.189861 80.603682 
L 249.317049 80.624524 
L 249.953036 80.416099 
L 250.203028 80.390046 
L 251.071463 80.749527 
L 251.334612 80.94232 
L 251.467634 81.140063 
L 251.422328 81.276425 
L 251.37847 81.322696 
L 251.352155 81.437329 
L 251.396057 81.557174 
L 251.839814 81.72308 
L 251.979677 81.804939 
L 252.043228 81.873719 
L 252.035904 82.18422 
L 252.068666 82.276031 
L 252.260106 82.5746 
L 252.31835 83.184347 
L 252.452863 83.469003 
L 252.571982 83.623655 
L 252.610138 83.794198 
L 252.624831 84.238248 
L 252.662035 84.337884 
L 252.863814 84.878268 
L 252.893243 85.005095 
L 252.863814 85.256716 
L 252.884559 85.380364 
L 253.100034 85.768764 
L 253.161786 86.2261 
L 253.152576 86.472146 
L 253.170514 86.634092 
L 253.227617 86.72929 
L 253.678567 87.009101 
L 254.016507 87.273585 
L 254.26938 87.471491 
L 254.784757 87.923825 
L 254.915235 87.942427 
L 254.966505 88.00433 
L 255.090141 88.458904 
L 255.073782 88.647529 
L 255.101939 88.849597 
L 255.282898 89.535784 
L 255.506048 89.925538 
L 255.569379 90.248597 
L 255.859087 90.663205 
L 255.980768 90.837345 
L 256.229093 91.038632 
L 256.330888 91.015132 
L 256.372553 91.041081 
L 256.678113 91.323757 
L 256.904947 91.594553 
L 257.045293 91.827103 
L 256.957577 91.946947 
L 256.953191 91.983422 
L 257.159325 92.55659 
L 257.118712 92.949784 
L 257.125203 93.048994 
L 257.250374 93.713922 
L 257.18542 93.862581 
L 257.143579 93.989199 
L 257.317609 94.261923 
L 257.313354 94.329244 
L 257.232831 94.570027 
L 257.243011 94.667392 
L 257.253006 94.762976 
L 257.654702 95.530241 
L 257.689175 95.644041 
L 257.672333 96.300058 
L 257.693297 96.414744 
L 257.739656 96.542769 
L 257.977147 96.862284 
L 258.069118 97.064404 
L 258.323714 97.866371 
L 258.417308 97.988248 
L 258.909966 98.361224 
L 259.102153 98.449232 
L 259.287585 98.475441 
L 259.435738 98.466531 
L 259.513191 98.502641 
L 259.692834 98.702676 
L 260.086242 98.848418 
L 260.178344 98.946273 
L 260.490044 99.447483 
L 260.544165 99.789769 
L 260.764683 100.093913 
L 260.831743 100.138568 
L 260.886346 100.31328 
L 260.908977 100.335477 
L 261.108181 100.479916 
L 261.189055 100.513368 
L 261.364093 100.56834 
L 261.414793 100.611275 
L 261.654916 100.903748 
L 261.677854 100.974143 
L 261.668117 101.075594 
L 261.692283 101.105451 
L 261.716405 101.143593 
L 261.707897 101.211591 
L 261.600357 101.471706 
L 261.494088 101.589778 
L 261.474747 101.746097 
L 261.548472 101.94457 
L 261.699213 102.186447 
L 261.898855 102.324737 
L 262.005255 102.330937 
L 262.118979 102.29415 
L 262.294807 102.402062 
L 262.505676 102.659519 
L 262.545149 102.742889 
L 262.558306 102.873155 
L 262.637251 103.034684 
L 262.891628 103.269162 
L 263.053903 103.628643 
L 263.343367 103.894385 
L 263.645988 104.118442 
L 263.716161 104.212233 
L 263.73809 104.35813 
L 263.659146 104.743664 
L 263.667917 104.868719 
L 263.719107 104.98235 
L 263.834578 105.238673 
L 263.949048 105.702419 
L 264.081105 105.857018 
L 264.205662 105.954196 
L 264.453855 106.034596 
L 264.520213 106.067788 
L 264.550124 106.122864 
L 264.558413 106.182526 
L 264.515476 106.245574 
L 264.431532 106.298879 
L 264.354692 106.385375 
L 264.329474 106.482866 
L 264.330351 106.622354 
L 264.373113 106.763145 
L 264.462408 106.905239 
L 264.585912 107.057441 
L 264.799063 107.236114 
L 264.868183 107.335741 
L 264.962171 107.589602 
L 264.981688 107.861493 
L 265.030722 108.011142 
L 265.03297 108.014747 
L 265.370491 108.556016 
L 265.473031 108.635947 
L 265.971654 108.785492 
L 266.11893 108.754124 
L 266.367123 108.644701 
L 266.690358 108.638761 
L 266.787986 108.659864 
L 267.295205 108.992875 
L 267.528092 109.280137 
L 267.705981 109.561927 
L 268.03382 110.217893 
L 268.173289 110.410946 
L 268.735463 110.820345 
L 269.182728 111.292375 
L 269.644204 111.628564 
L 269.83218 111.87534 
L 270.139012 112.08934 
L 270.472597 112.215437 
L 270.554129 112.278173 
L 270.882802 112.636038 
L 270.969904 112.698931 
L 271.248886 112.807833 
L 271.465194 112.782874 
L 271.62361 112.724775 
L 271.882592 112.674128 
L 272.07877 112.718054 
L 272.226308 112.829248 
L 272.435994 113.050908 
L 272.664451 113.151317 
L 272.908039 113.293775 
L 273.137111 113.467914 
L 273.376751 113.75429 
L 273.486879 113.846883 
L 273.603893 113.921812 
L 274.359393 114.231479 
L 274.576403 114.342674 
L 274.975688 114.714816 
L 275.56115 115.085969 
L 275.988066 115.530644 
L 276.049774 115.650175 
L 276.240206 115.822803 
L 276.508267 115.97834 
L 276.625456 116.097143 
L 276.666376 116.185098 
L 276.682033 116.346627 
L 276.652297 116.834133 
L 276.66142 116.909479 
L 276.709971 116.988628 
L 276.85479 117.074603 
L 276.965137 117.04657 
L 277.083817 117.066058 
L 277.257408 117.168916 
L 277.465471 117.377445 
L 277.613668 117.58712 
L 277.931025 117.801746 
L 278.050583 117.815398 
L 278.120405 117.862606 
L 278.169 117.914868 
L 278.197025 118.032681 
L 278.248514 118.11183 
L 278.412325 118.201296 
L 278.474691 118.191709 
L 278.596704 118.230215 
L 278.938579 118.600117 
L 278.996077 118.925469 
L 279.248524 119.521877 
L 279.305847 119.731813 
L 279.452552 120.590628 
L 279.38944 120.929839 
L 279.504173 121.329181 
L 280.024638 121.907143 
L 280.202702 122.054344 
L 280.280813 122.153293 
L 280.492253 122.522362 
L 280.596197 122.811916 
L 280.651722 122.910293 
L 280.989122 123.182912 
L 281.027323 123.333083 
L 281.027785 123.355882 
L 281.031709 123.549167 
L 280.968597 124.107381 
L 281.170476 124.957546 
L 281.627872 125.463081 
L 281.904179 125.720225 
L 282.14553 125.867582 
L 282.593317 125.973357 
L 282.691257 125.996492 
L 282.848138 126.045108 
L 282.93774 126.101382 
L 283.066288 126.2218 
L 283.16703 126.501246 
L 283.265448 126.650478 
L 283.430583 126.776365 
L 283.526141 126.849211 
L 283.93617 127.044245 
L 284.131032 127.076029 
L 284.27208 127.033511 
L 284.512379 126.817582 
L 284.680794 126.734212 
L 284.734191 126.733363 
L 284.995213 126.72921 
L 285.132752 126.778399 
L 285.458355 127.261892 
L 285.566422 127.381111 
L 285.663962 127.450308 
L 285.95518 127.56119 
L 286.586036 127.722928 
L 286.764319 127.83381 
L 287.260443 128.282341 
L 287.354681 128.338321 
L 287.382544 128.354873 
L 287.644991 128.381551 
L 287.760075 128.435741 
L 288.153044 128.913451 
L 288.261812 129.200244 
L 288.343914 129.341139 
L 288.553775 129.420341 
L 288.764295 129.639187 
L 288.764295 129.785032 
L 288.922184 129.93614 
L 289.266341 130.098707 
L 289.286207 130.108091 
L 289.351994 130.175829 
L 289.457253 130.545783 
L 289.479182 130.571836 
L 289.601985 130.618732 
L 289.73356 130.712523 
L 290.145826 131.530591 
L 290.214069 131.722133 
L 290.189684 132.062074 
L 290.259857 132.280868 
L 290.408975 132.46324 
L 290.641467 132.593506 
L 290.95286 132.666455 
L 291.237938 132.770667 
L 291.750906 133.033938 
L 292.141416 133.23436 
L 292.347549 133.322941 
L 292.680915 133.411522 
L 292.887048 133.541787 
L 293.023008 133.692895 
L 293.040145 133.733239 
L 293.264228 134.260801 
L 293.584568 134.821672 
L 293.587857 134.906762 
L 293.592287 135.022594 
L 293.465976 135.246859 
L 293.269491 135.357741 
L 293.082436 135.446218 
L 293.003141 135.58753 
L 292.983317 135.781886 
L 293.086296 135.96629 
L 293.254053 136.064667 
L 293.330279 136.15877 
L 293.335234 136.288359 
L 293.295587 136.412007 
L 293.166688 136.541595 
L 292.83955 136.618139 
L 292.646223 136.659355 
L 292.557016 136.753615 
L 292.542148 136.906703 
L 292.623154 137.084281 
L 292.82455 138.010469 
L 293.088752 138.319772 
L 293.049279 138.476091 
L 292.834506 138.631107 
L 292.658942 138.590724 
L 292.439651 138.403142 
L 292.259833 138.413563 
L 292.145802 138.502144 
L 292.128258 138.674094 
L 292.215975 138.845993 
L 292.65017 139.262843 
L 292.615084 139.471268 
L 292.513843 139.594412 
L 292.430879 139.695324 
L 292.435265 139.841222 
L 292.544911 139.90896 
L 292.742272 139.914171 
L 293.093138 139.820379 
L 293.389794 140.01583 
L 293.338743 140.388285 
L 293.37383 140.471655 
L 293.594129 140.644127 
L 293.683951 140.743962 
L 293.724476 140.860993 
L 293.770834 140.922947 
L 293.895435 140.922947 
L 293.996835 140.761157 
L 294.063455 140.606298 
L 294.164855 140.561538 
L 294.257571 140.637249 
L 294.312394 140.742607 
L 294.306824 140.909191 
L 294.295202 141.019344 
L 294.764133 141.300092 
L 294.873778 141.638783 
L 295.237845 141.795101 
L 295.474679 141.508517 
L 295.584324 141.4512 
L 296.210794 141.644879 
L 296.489556 141.829491 
L 296.540432 141.982684 
L 296.386928 142.206688 
L 296.299212 142.258795 
L 296.242196 142.201478 
L 296.04922 142.206688 
L 295.865016 142.290058 
L 295.790457 142.764225 
L 295.873788 142.899701 
L 296.29044 143.040388 
L 296.632534 143.295709 
L 296.88599 143.591099 
L 296.882481 143.793115 
L 296.806124 143.900349 
L 296.698935 143.92411 
L 296.487802 143.936563 
L 296.233381 144.74942 
L 296.277283 144.916212 
L 296.284163 144.924676 
L 296.522888 145.218324 
L 296.940418 145.431647 
L 297.171989 145.645595 
L 297.179484 145.656844 
L 297.33865 145.895705 
L 297.702673 146.005128 
L 298.049152 146.150974 
L 298.141254 146.213501 
L 298.207041 146.380241 
L 298.215813 146.677246 
L 298.242128 146.734563 
L 298.33423 146.797091 
L 298.992102 146.953409 
L 299.242137 146.969041 
L 299.487743 146.880461 
L 299.549144 146.802301 
L 299.557916 146.614719 
L 299.395641 146.359398 
L 299.435113 146.29166 
L 299.509672 146.255186 
L 299.702648 146.29166 
L 299.926324 146.484453 
L 299.98334 146.573034 
L 300.163158 147.203467 
L 300.246489 147.302469 
L 300.395607 147.380628 
L 300.446117 147.491415 
L 300.452622 147.505683 
L 300.290347 147.953797 
L 300.193859 148.005903 
L 300.066671 148.021535 
L 299.772821 148.370595 
L 299.772821 148.41228 
L 300.022812 148.91771 
L 300.123686 149.188663 
L 300.180702 149.506511 
L 300.531567 149.918098 
L 301.027164 150.444371 
L 301.882442 151.069593 
L 302.19822 151.350967 
L 302.746447 151.746974 
L 302.812234 151.762606 
L 302.956966 151.731342 
L 303.084155 151.741764 
L 303.671898 151.944978 
L 304.772737 152.439935 
L 305.299035 152.888048 
L 305.478854 152.960997 
L 305.702574 152.971418 
L 305.921865 152.919312 
L 306.555747 152.850271 
L 306.671839 152.862829 
L 306.708396 152.882371 
L 306.777406 152.91926 
L 306.861833 152.988197 
L 306.919901 153.132427 
L 306.917401 153.287964 
L 306.904068 153.389467 
L 306.893498 153.496076 
L 306.904068 153.533697 
L 306.940996 153.552507 
L 307.035686 153.556832 
L 307.178181 153.407756 
L 307.262915 153.402024 
L 307.326246 153.439645 
L 307.41598 153.590128 
L 307.410673 153.690432 
L 307.363175 153.809547 
L 307.326246 153.897346 
L 307.331509 153.985145 
L 307.368482 154.072892 
L 307.574308 154.173249 
L 307.658077 154.17205 
L 307.743162 154.10426 
L 307.838159 154.12307 
L 308.045827 154.322585 
L 308.169068 154.547892 
L 308.285819 154.743864 
L 308.524933 154.991681 
L 308.698392 155.025915 
L 308.793389 155.013409 
L 308.883079 154.963231 
L 308.94641 154.919358 
L 308.978076 154.919358 
L 308.999215 154.919358 
L 309.030881 154.919358 
L 309.06781 154.938168 
L 309.125834 154.994599 
L 309.136404 155.057283 
L 309.126097 155.117518 
L 309.104738 155.257944 
L 309.125834 155.345691 
L 309.162806 155.408375 
L 309.220831 155.464806 
L 309.368633 155.514984 
L 309.447797 155.483616 
L 309.669412 155.358248 
L 309.780241 155.370754 
L 309.856916 155.456801 
L 309.875238 155.477363 
L 309.963437 155.698606 
L 310.020102 155.773014 
L 310.860292 156.294285 
L 311.141028 156.327372 
L 311.22813 156.366973 
L 311.632283 157.027315 
L 312.061084 157.32802 
L 312.097662 157.393883 
L 312.107398 157.92818 
L 312.095995 158.052557 
L 311.952184 158.909132 
L 311.744516 159.649978 
L 311.728771 159.700208 
L 311.661273 159.747208 
L 311.574566 159.745332 
L 311.490797 159.741737 
L 311.438474 159.772792 
L 311.407993 159.829745 
L 311.394923 159.886697 
L 311.381809 159.93849 
L 311.351328 159.985073 
L 311.346942 160.047236 
L 311.351328 160.119716 
L 311.364398 160.212934 
L 311.412335 160.357893 
L 311.545181 160.519579 
L 311.745613 160.681265 
L 311.74035 160.747231 
L 311.602196 161.009534 
L 311.614871 161.183308 
L 311.728815 161.326027 
L 311.936571 161.379071 
L 312.45822 161.8894 
L 312.598127 162.324903 
L 312.634266 162.731645 
L 313.081883 162.968989 
L 313.215825 163.031203 
L 313.297182 163.139324 
L 313.271481 163.233897 
L 313.000394 163.519335 
L 312.962369 163.523607 
L 312.725667 163.678363 
L 312.622819 164.011165 
L 312.777507 164.190463 
L 313.020569 164.262057 
L 313.122934 164.240797 
L 313.742299 164.376326 
L 313.78778 164.434164 
L 313.85497 164.662441 
L 313.781903 165.128635 
L 313.652039 165.416731 
L 313.741027 165.643184 
L 313.801376 165.737549 
L 313.861637 165.738852 
L 313.940713 165.676272 
L 314.13939 165.580344 
L 314.195134 165.598008 
L 314.235659 165.625156 
L 314.945985 166.111515 
L 315.15918 166.40305 
L 315.202775 166.60913 
L 315.318385 167.287918 
L 315.295886 167.419851 
L 315.240844 167.520572 
L 315.064534 167.688198 
L 315.016202 168.137979 
L 315.000413 168.53878 
L 315.01072 168.739701 
L 314.877742 168.881222 
L 314.834498 168.991322 
L 314.865374 169.116117 
L 314.945722 169.204176 
L 315.044579 169.270247 
L 315.137251 169.314329 
L 315.180495 169.380347 
L 315.186679 169.439071 
L 315.180495 169.490448 
L 315.174311 169.556519 
L 315.112515 169.629936 
L 315.02322 169.661252 
L 314.982782 169.703354 
L 314.96423 169.740037 
L 314.945722 169.784067 
L 314.945722 169.850137 
L 314.95809 169.88682 
L 315.009931 169.90042 
L 315.124883 169.952891 
L 315.223739 170.033655 
L 315.334963 170.180439 
L 315.384391 170.305233 
L 315.43996 170.437374 
L 315.384391 170.598852 
L 315.372023 170.723646 
L 315.396716 170.819053 
L 315.433776 170.899765 
L 315.545 170.9365 
L 315.606796 170.98053 
L 315.643856 171.053947 
L 315.656224 171.119966 
L 315.643856 171.193384 
L 315.631488 171.274148 
L 315.600612 171.354861 
L 315.551447 171.410198 
L 315.293912 171.748732 
L 315.207336 172.39214 
L 315.1776 172.822537 
L 314.900285 173.347872 
L 314.934582 173.401489 
L 315.532588 173.82975 
L 315.597981 173.803854 
L 315.617805 173.761439 
L 315.635655 173.719077 
L 315.669338 173.69787 
L 315.6971 173.69318 
L 315.742669 173.71199 
L 316.052044 174.480661 
L 316.062 174.619368 
L 315.91911 175.12459 
L 315.815649 175.399867 
L 315.786965 175.449629 
L 315.791658 175.503872 
L 315.875866 175.712401 
L 316.181075 175.723343 
L 316.378261 175.870074 
L 316.41269 175.971577 
L 316.344446 176.074383 
L 315.95003 176.395982 
L 315.883059 176.432873 
L 315.921259 176.663808 
L 315.987178 176.727691 
L 315.98231 176.770522 
L 315.788237 177.003593 
L 315.697933 177.036993 
L 315.657145 177.02157 
L 315.601752 176.942629 
L 315.518948 176.710183 
L 315.45974 176.706431 
L 315.360927 176.773805 
L 315.29878 176.848994 
L 315.288737 177.125782 
L 315.584955 177.698013 
L 315.900383 178.073334 
L 316.234055 178.366171 
L 316.3762 178.53536 
L 316.574745 178.895101 
L 316.578112 178.897875 
L 316.940479 179.196484 
L 317.018678 179.229311 
L 317.149331 179.21915 
L 317.283493 179.068146 
L 317.354017 179.0732 
L 317.433532 179.114208 
L 317.467522 179.177048 
L 317.493661 179.479473 
L 317.556028 179.852657 
L 319.231891 180.677551 
L 319.589993 180.765819 
L 320.097827 180.690995 
L 320.466937 180.5934 
L 320.582634 180.583864 
L 320.635045 180.60356 
L 321.312039 180.925785 
L 321.313197 180.927021 
L 321.403527 181.023432 
L 321.580056 181.512606 
L 321.5926 181.567004 
L 321.598082 181.724105 
L 321.534926 181.858799 
L 321.495937 182.022465 
L 322.559453 182.912804 
L 322.693439 182.953916 
L 322.779094 182.917963 
L 322.904704 182.913482 
L 323.251841 182.965744 
L 323.358636 183.020143 
L 323.386574 183.149992 
L 323.351005 183.228516 
L 323.268858 183.273796 
L 323.194124 183.336845 
L 323.180221 183.404374 
L 323.199826 183.555899 
L 323.405783 183.946696 
L 323.671432 184.186593 
L 324.33369 184.978556 
L 324.877487 185.536092 
L 325.10555 185.687148 
L 325.210809 185.70278 
L 325.351155 185.661095 
L 325.399399 185.671516 
L 325.456415 185.739254 
L 325.434486 185.801782 
L 325.202038 186.145683 
L 324.987133 186.364529 
L 324.838936 186.390218 
L 324.775298 186.449879 
L 324.745167 186.533458 
L 324.745167 186.620996 
L 324.782008 186.708535 
L 324.828893 186.784141 
L 324.828893 186.839842 
L 324.808805 186.923421 
L 324.765254 187.002987 
L 324.680082 187.062701 
L 324.560963 187.122362 
L 324.509035 187.203387 
L 324.653767 187.839031 
L 325.101076 188.479886 
L 325.329139 188.698732 
L 325.71509 189.261427 
L 325.877365 189.511537 
L 325.837893 189.881491 
L 325.708906 190.099921 
L 325.744578 190.143227 
L 326.043982 190.506714 
L 326.223801 190.671109 
L 326.250554 190.769694 
L 326.223801 190.871458 
L 326.17025 190.963686 
L 326.156873 191.02095 
L 326.188978 191.094107 
L 326.557123 191.366415 
L 326.850972 191.679 
L 326.853516 191.746686 
L 326.846411 191.831306 
L 326.860621 191.870803 
L 326.877243 191.887737 
L 326.896234 191.896231 
L 326.92711 191.901858 
L 326.979345 191.901858 
L 327.045834 191.899044 
L 327.112323 191.856734 
L 327.138463 191.811558 
L 327.175523 191.715474 
L 327.333412 191.626894 
L 327.399199 191.637315 
L 327.469372 191.715474 
L 327.789537 192.137535 
L 327.815852 192.476173 
L 327.640419 192.726283 
L 327.61406 192.820074 
L 327.697391 193.007657 
L 328.14913 193.80483 
L 328.214917 193.836094 
L 328.258775 193.909042 
L 328.28509 194.008044 
L 328.394735 194.83127 
L 328.40321 194.931954 
L 328.403507 194.935483 
L 328.324562 195.097012 
L 328.035055 195.524231 
L 327.912252 195.612812 
L 327.66226 195.711814 
L 327.25438 196.196402 
L 327.144734 196.628831 
L 326.82628 197.101747 
L 326.782773 197.211796 
L 326.808737 197.338518 
L 326.916803 197.536053 
L 327.223837 198.096133 
L 327.372577 198.36746 
L 327.653796 198.78754 
L 327.685154 198.829798 
L 328.024134 199.049895 
L 328.249258 199.430531 
L 328.464864 200.062475 
L 328.478022 200.26569 
L 328.394691 200.479273 
L 328.368377 200.609539 
L 328.415436 200.690824 
L 328.412235 200.781489 
L 328.337676 200.807542 
L 328.1904 200.952502 
L 328.030669 201.109758 
L 327.975057 201.22335 
L 327.964882 201.29213 
L 328.017511 201.354658 
L 328.24996 201.432817 
L 328.298204 201.490082 
L 328.371687 201.861118 
L 328.38592 201.932985 
L 328.460479 202.39673 
L 328.425392 202.516522 
L 328.387674 202.924827 
L 328.508723 203.793073 
L 328.679769 204.02234 
L 328.776257 204.084868 
L 329.244487 204.127803 
L 329.554652 204.12525 
L 329.637456 204.148594 
L 329.664823 204.346181 
L 329.780609 204.504583 
L 329.8097 204.52794 
L 329.986216 204.669656 
L 330.716015 205.213176 
L 330.999514 205.361575 
L 331.447218 205.475948 
L 331.972157 205.519665 
L 332.217368 205.468549 
L 332.702088 205.184726 
L 332.768952 205.092351 
L 332.948264 204.844629 
L 333.125801 204.701232 
L 333.354565 204.650377 
L 333.549646 204.707902 
L 333.657713 204.76178 
L 333.898933 204.99136 
L 334.012964 205.168521 
L 334.188396 205.533213 
L 334.390144 205.772901 
L 334.578734 205.892746 
L 335.430942 206.207988 
L 335.646724 206.345392 
L 336.140391 206.908035 
L 336.564455 207.443166 
L 336.862866 207.749655 
L 337.036501 207.881015 
L 337.253555 207.963134 
L 337.568281 208.006904 
L 338.344219 208.099965 
L 338.671401 208.11815 
L 339.829519 208.686473 
L 340.129289 208.53104 
L 340.530416 208.6587 
L 340.643614 209.331913 
L 340.583791 209.783309 
L 340.297485 210.531763 
L 339.667112 211.51829 
L 338.789949 212.053473 
L 338.137647 212.575057 
L 337.544685 212.851011 
L 336.759887 212.788744 
L 336.708222 212.176965 
L 335.909478 212.149609 
L 334.861224 212.981225 
L 334.715528 213.901838 
L 335.032183 214.307224 
L 335.647294 214.518463 
L 336.222274 214.455102 
L 336.522746 214.653314 
L 335.961976 215.329132 
L 334.90324 216.28106 
L 333.970992 217.338817 
L 333.636486 217.385556 
L 333.01541 216.826456 
L 331.82817 216.371881 
L 330.788425 216.325142 
L 331.080477 217.329959 
L 331.059688 217.731437 
L 330.896536 218.011039 
L 330.309363 218.45957 
L 330.325415 218.829576 
L 331.142536 219.160138 
L 331.415991 219.175978 
L 331.547829 219.045817 
L 331.904483 219.143829 
L 332.029479 219.323178 
L 332.033207 219.679429 
L 331.573925 220.192988 
L 330.662947 221.971373 
L 330.270811 222.361076 
L 329.378517 222.784699 
L 327.921023 224.3705 
L 327.578316 224.462103 
L 326.866133 224.187577 
L 326.6037 224.086417 
L 325.19524 223.820623 
L 324.949187 224.194485 
L 324.722098 224.539533 
L 325.479484 225.474267 
L 326.585543 226.000956 
L 326.868867 225.872098 
L 326.988862 225.635692 
L 327.099341 225.589161 
L 327.536826 225.55722 
L 327.898963 225.773096 
L 327.702873 226.413117 
L 327.667787 226.864304 
L 327.873043 227.924562 
L 327.795633 229.546942 
L 327.072982 231.103459 
L 326.617121 232.303986 
L 326.059464 233.060986 
L 325.807587 233.080682 
L 325.613295 232.844745 
L 325.487773 232.42925 
L 325.12523 232.425676 
L 324.689511 232.421382 
L 324.241237 232.97277 
L 323.093777 233.248308 
L 322.500858 233.059318 
L 322.243937 233.458452 
L 322.076004 234.276572 
L 322.09653 234.362391 
L 322.299505 234.459934 
L 324.091593 234.552474 
L 324.285841 234.507246 
L 324.899899 234.015155 
L 325.185065 234.107018 
L 325.6861 234.530954 
L 325.830042 234.80644 
L 325.876357 235.084479 
L 325.332998 235.787184 
L 324.6646 237.374548 
L 322.82133 239.997575 
L 322.30797 240.954194 
L 321.422825 242.893118 
L 321.399142 243.731351 
L 321.24191 245.01504 
L 321.610757 245.028275 
L 321.895221 245.133478 
L 322.474456 245.590241 
L 322.205254 246.191651 
L 321.812815 246.682547 
L 321.603082 246.944899 
L 321.507734 248.754027 
L 321.245463 249.29614 
L 320.969419 250.277978 
L 321.001567 251.029454 
L 320.784207 251.276073 
L 320.27554 251.284358 
L 319.870904 251.19239 
L 318.781249 252.287663 
L 318.086009 253.314885 
L 317.826764 253.903738 
L 317.890007 254.254778 
L 317.500021 254.912983 
L 316.684742 255.085976 
L 316.121296 255.039133 
L 316.015203 255.49402 
L 315.943451 256.445897 
L 316.054105 257.538668 
L 316.051562 258.234912 
L 315.443863 260.635081 
L 315.209178 261.156925 
L 315.02243 261.314546 
L 314.682837 261.350343 
L 314.584814 261.264368 
L 314.575472 261.099556 
L 314.213755 261.159097 
L 313.850891 261.218827 
L 313.572348 261.492698 
L 313.508973 261.730667 
L 313.067848 262.234221 
L 312.134196 262.81135 
L 311.999771 263.198187 
L 312.292962 263.611181 
L 312.783165 263.800118 
L 312.935265 263.595705 
L 313.176792 263.543026 
L 313.757737 263.821117 
L 314.02878 264.281788 
L 314.926074 264.287884 
L 315.22523 263.378057 
L 315.413075 263.215694 
L 315.735037 263.188286 
L 315.957617 264.220198 
L 315.881129 266.810451 
L 314.853796 270.555169 
L 314.754764 270.82508 
L 314.347102 271.335043 
L 314.048999 271.907117 
L 313.682345 272.921105 
L 313.472966 274.016273 
L 313.428932 274.861853 
L 313.498886 275.471757 
L 313.941634 276.846215 
L 314.171933 277.152964 
L 313.970449 277.171775 
L 313.476562 277.115448 
L 313.279771 277.083611 
L 312.923116 276.965486 
L 312.784656 276.890349 
L 312.432343 276.414254 
L 312.276822 276.300142 
L 312.180115 276.299152 
L 311.404747 276.464016 
L 311.014366 276.50049 
L 310.781874 276.484858 
L 310.480963 276.441975 
L 310.382151 276.46808 
L 310.283294 276.533317 
L 310.228384 276.624659 
L 310.207332 276.724547 
L 310.162509 276.807292 
L 310.069135 276.91166 
L 309.997778 276.957357 
L 309.926333 276.963871 
L 309.849493 276.950844 
L 309.761602 276.931252 
L 309.662789 276.91166 
L 309.563933 276.826883 
L 309.415692 276.774673 
L 309.014829 276.846423 
L 308.816897 276.729757 
L 308.588791 276.531754 
L 308.487917 276.495279 
L 307.913332 276.422383 
L 307.613824 276.332552 
L 307.282344 276.192803 
L 307.159366 276.237301 
L 307.084544 276.338909 
L 306.998977 276.516747 
L 306.918804 276.580265 
L 306.560571 276.51039 
L 306.475048 276.364336 
L 306.421979 276.120167 
L 306.373428 276.034035 
L 306.234442 275.938733 
L 306.036598 275.970518 
L 305.876208 276.116623 
L 305.31171 276.221461 
L 305.177855 276.164405 
L 305.122945 276.111413 
L 305.064613 275.976927 
L 305.047465 275.801641 
L 305.066675 275.56263 
L 305.049131 275.447944 
L 304.94336 275.371772 
L 304.855366 275.308404 
L 304.608357 275.235038 
L 304.502001 275.230974 
L 304.381917 275.279902 
L 304.340735 275.332894 
L 304.294727 275.505313 
L 304.259641 275.56263 
L 304.141224 275.630368 
L 303.43502 275.500155 
L 303.344453 275.426841 
L 303.308138 275.366919 
L 303.264412 275.204869 
L 303.178318 275.136401 
L 302.075286 275.333415 
L 301.759507 275.213518 
L 301.535787 275.072831 
L 301.074882 274.574331 
L 301.05918 274.537284 
L 301.044093 274.414365 
L 301.011419 274.331151 
L 300.974052 274.270135 
L 300.918045 274.22574 
L 300.862784 274.196353 
L 300.700026 274.163682 
L 300.533716 274.099227 
L 300.346705 273.939886 
L 300.169781 273.81259 
L 299.958385 273.805608 
L 299.858564 273.88236 
L 299.764576 274.035865 
L 299.658878 274.098653 
L 299.476866 274.112618 
L 299.324108 274.014919 
L 299.249681 273.824575 
L 298.880439 273.259587 
L 298.271513 272.985977 
L 298.189191 272.96873 
L 297.378473 273.025057 
L 296.792441 273.157875 
L 296.718627 273.119525 
L 296.533195 272.940905 
L 296.255134 272.73816 
L 295.55415 272.825959 
L 295.191267 272.473616 
L 294.935004 272.181405 
L 294.55971 271.617511 
L 294.488528 271.444362 
L 294.365024 271.349008 
L 294.204503 271.31962 
L 294.074814 271.36365 
L 294.013062 271.459056 
L 293.901926 271.561757 
L 293.698117 271.620481 
L 293.105023 271.533099 
L 292.657363 271.384127 
L 292.622759 271.347288 
L 292.493904 271.10687 
L 292.283955 271.018863 
L 291.993658 271.015788 
L 291.556304 271.34536 
L 291.450343 271.510433 
L 291.425607 271.737876 
L 291.438677 272.008568 
L 291.458501 272.425314 
L 291.434598 272.629414 
L 290.937992 273.56941 
L 290.714724 273.675003 
L 290.70971 273.677375 
L 290.612696 273.659033 
L 290.291128 273.487656 
L 290.192447 273.406631 
L 290.011883 273.174133 
L 289.573214 272.878638 
L 289.446376 272.816475 
L 289.043496 272.883171 
L 288.78846 273.074193 
L 288.745392 273.142244 
L 288.73719 273.326126 
L 289.007093 273.707127 
L 289.282698 274.370075 
L 289.236077 274.465585 
L 289.005514 274.779578 
L 288.545749 275.002696 
L 288.359528 275.018693 
L 288.213963 275.001811 
L 288.082257 275.092267 
L 288.053003 275.17225 
L 288.035811 275.702692 
L 287.985725 275.874642 
L 287.870509 276.114696 
L 287.992654 276.352352 
L 288.074055 276.451458 
L 288.143833 276.687916 
L 288.1937 277.316109 
L 287.95748 278.056486 
L 287.579423 278.89597 
L 287.619992 279.975559 
L 287.768802 280.172572 
L 287.937349 280.293198 
L 288.054757 280.613287 
L 288.076818 280.726722 
L 288.039583 280.934522 
L 288.14186 281.136381 
L 288.303345 281.327507 
L 288.541407 281.732581 
L 288.627282 282.176838 
L 288.592327 282.519593 
L 288.609738 282.54945 
L 289.067574 282.740628 
L 289.102441 282.781271 
L 289.260286 283.194525 
L 289.436508 284.067617 
L 289.551154 284.77225 
L 289.211735 285.470734 
L 288.986085 286.455906 
L 288.963849 286.839252 
L 289.046215 287.072167 
L 289.097266 287.134277 
L 289.14358 287.402989 
L 289.094371 288.315421 
L 288.992181 288.493312 
L 289.03275 288.725028 
L 289.046566 289.186637 
L 289.011611 289.379326 
L 288.750435 289.78539 
L 288.674868 290.282171 
L 288.554039 290.821939 
L 288.472813 290.954445 
L 288.203524 291.287613 
L 288.159403 291.493015 
L 288.279837 291.830143 
L 288.299968 292.126679 
L 288.038267 292.547593 
L 287.985944 292.77238 
L 287.949717 293.121491 
L 287.985944 293.456274 
L 288.218129 294.058361 
L 288.176288 294.444104 
L 288.004321 294.846677 
L 287.68977 295.205845 
L 287.600802 295.251425 
L 287.595387 295.254199 
L 287.158341 295.358933 
L 286.78559 295.418542 
L 286.234118 295.438239 
L 285.638481 295.335329 
L 285.326561 295.097985 
L 285.343315 295.034415 
L 285.295773 294.968345 
L 285.193408 294.9425 
L 284.686803 294.993825 
L 283.507106 295.199227 
L 282.856778 295.380557 
L 282.696783 295.488 
L 282.54613 295.478412 
L 282.332892 295.431829 
L 282.269122 295.38285 
L 281.895889 294.926607 
L 281.730106 294.661491 
L 281.464764 294.545503 
L 281.329111 294.397469 
L 280.837417 293.222421 
L 280.568084 292.010378 
L 280.586548 291.581596 
L 280.734964 291.359467 
L 280.845092 290.972526 
L 280.8079 290.590431 
L 280.754525 290.399358 
L 280.689527 290.325315 
L 280.68137 290.138983 
L 280.817067 289.703114 
L 280.978289 289.412883 
L 280.957325 288.853939 
L 280.736763 288.50415 
L 280.455763 288.145972 
L 280.207439 287.862722 
L 279.92179 287.672899 
L 279.838153 287.545187 
L 279.687105 287.177369 
L 279.729999 286.995831 
L 279.670659 286.68658 
L 279.486454 286.357894 
L 279.448386 286.143165 
L 279.457903 285.741999 
L 279.619608 285.148769 
L 279.824074 284.900171 
L 280.009551 284.787152 
L 280.204544 284.724989 
L 280.388485 284.591858 
L 280.369487 284.510624 
L 280.368573 284.506716 
L 278.833407 284.388331 
L 278.471182 284.352065 
L 277.188595 284.253115 
L 273.350831 283.964186 
L 271.419363 283.821472 
L 269.635871 283.689691 
L 269.626598 283.68903 
L 266.769434 283.485591 
L 266.272346 283.449325 
L 265.885385 283.424522 
L 265.529959 283.394665 
L 264.989758 283.358816 
L 264.824764 283.340944 
L 264.17899 283.297776 
L 259.560119 282.989018 
L 259.550425 282.988386 
L 259.150177 282.962288 
L 259.137722 282.960256 
L 251.315007 282.399957 
L 251.248343 282.396935 
L 240.169775 281.641343 
L 239.942456 281.620424 
L 239.082049 281.541247 
L 238.768946 281.520873 
L 238.281989 281.492267 
L 237.71271 281.451676 
L 233.989549 281.190991 
L 232.37068 281.077642 
L 232.35899 281.076824 
L 232.262853 281.068487 
L 230.974958 280.976311 
L 230.24587 280.923731 
L 229.288613 280.854695 
L 228.823585 280.82067 
L 227.094872 280.706765 
L 227.090179 280.707964 
L 226.632388 280.680504 
L 226.243191 280.660339 
L 224.007171 280.49042 
L 219.105169 280.199578 
L 219.104049 280.199511 
L 216.367608 280.017556 
L 216.248533 280.009324 
L 213.31549 279.827626 
L 210.381716 279.645883 
L 209.927741 279.607741 
L 208.422047 279.51395 
L 207.353888 279.441883 
L 207.325374 279.439959 
L 207.321119 279.441261 
L 201.74903 279.113591 
L 201.747714 279.113513 
L 200.330306 279.023786 
L 200.238073 279.020712 
L 200.027773 279.003934 
L 199.561868 278.97762 
L 198.402519 278.919958 
L 197.348215 278.86752 
L 196.593987 278.803533 
L 191.111324 278.485737 
L 189.738081 278.427847 
L 189.68323 278.424691 
L 185.628617 278.191389 
L 185.378884 278.18245 
L 181.264424 278.035175 
L 178.605042 277.840819 
L 178.415224 277.827688 
L 175.481947 277.666315 
L 175.475938 277.66668 
L 173.790426 277.55585 
L 165.390889 277.10164 
L 164.206162 277.05963 
L 164.152116 277.057714 
L 163.924755 276.518675 
L 163.676123 276.227193 
L 163.307671 275.961399 
L 163.24627 275.836344 
L 163.145352 275.482022 
L 162.768172 275.023487 
L 162.702385 274.981802 
L 162.588353 274.955749 
L 162.461165 274.960959 
L 162.320819 275.023487 
L 162.110256 274.992223 
L 162.004996 274.934906 
L 161.96991 274.867168 
L 161.939209 274.471109 
L 161.715489 274.221051 
L 161.807591 273.903203 
L 161.833906 273.705199 
L 161.807591 273.590566 
L 161.426025 272.960028 
L 161.355852 272.80892 
L 161.325151 272.590074 
L 161.373395 272.30349 
L 161.355808 272.183645 
L 161.241777 271.902324 
L 161.044854 271.552118 
L 161.017267 271.371726 
L 161.037968 271.166844 
L 161.051739 270.839044 
L 161.100027 270.67517 
L 161.196603 270.494882 
L 161.306994 270.347318 
L 161.355282 270.232632 
L 161.355282 270.142384 
L 161.334581 270.011284 
L 161.279407 269.904727 
L 161.140859 269.765916 
L 161.051739 269.617935 
L 161.044854 269.40482 
L 161.079326 269.290082 
L 161.106957 269.150802 
L 161.079326 269.036064 
L 161.031038 268.929507 
L 160.941392 268.773814 
L 160.913806 268.64261 
L 160.948278 268.495097 
L 161.037968 268.347585 
L 161.044854 268.150936 
L 160.982794 268.036198 
L 160.927577 267.98701 
L 160.844817 267.929641 
L 160.785564 267.879619 
L 160.732935 267.837934 
L 160.421498 267.37424 
L 160.303081 267.118868 
L 160.13642 266.842705 
L 159.67148 266.337274 
L 159.553063 266.092375 
L 159.482846 265.769316 
L 159.298642 265.633788 
L 159.061764 265.534786 
L 158.952118 265.425415 
L 158.930189 265.310781 
L 158.956504 265.018987 
L 158.991591 264.79493 
L 159.105622 264.388501 
L 159.105622 264.164392 
L 159.083693 264.044548 
L 158.978433 263.820491 
L 158.87756 263.721489 
L 158.737213 263.653751 
L 158.316088 263.528696 
L 158.2196 263.513064 
L 158.215214 263.528696 
L 158.035483 263.40979 
L 157.98816 263.345387 
L 157.951933 263.223666 
L 157.951802 263.079645 
L 158.100656 262.709951 
L 158.136839 262.17977 
L 158.134471 261.991771 
L 158.1082 261.991719 
L 158.152146 261.764432 
L 157.718169 259.237175 
L 157.183794 258.093062 
L 157.051043 257.808839 
L 156.655794 256.389778 
L 155.899153 255.801134 
L 154.857039 253.850381 
L 154.121231 253.56906 
L 153.502349 252.311997 
L 153.842074 251.097922 
L 153.882687 249.911306 
L 153.193938 247.6302 
L 154.28048 246.654563 
L 154.32189 245.944784 
L 154.417186 244.311398 
L 154.161493 243.118895 
L 154.815243 241.282984 
L 154.710115 240.639107 
L 155.322944 239.550556 
L 155.076637 237.621531 
L 156.219769 235.079895 
L 156.244799 235.024244 
L 156.380978 233.645826 
L 155.675783 232.282935 
L 155.491711 229.569868 
L 154.589461 228.170399 
L 152.712288 225.81525 
L 153.001752 223.850897 
L 152.573754 222.224434 
L 152.347896 221.366134 
L 152.229805 220.917368 
L 152.462253 219.547027 
L 151.997357 218.296529 
L 152.523172 215.990724 
L 152.95785 215.482845 
L 154.615732 212.804689 
L 154.913967 211.804249 
L 155.446158 210.345327 
L 155.857575 209.217488 
L 156.053729 206.667306 
L 156.153705 205.367515 
L 155.641179 202.833641 
L 157.723652 200.516216 
L 159.89634 199.570124 
L 159.769152 199.314803 
L 159.124393 199.121958 
L 159.646349 198.491472 
L 161.505978 198.345627 
L 161.663759 197.89233 
L 161.988418 196.959601 
L 163.067153 196.272268 
L 161.121211 194.379822 
L 160.131822 193.969637 
L 158.135611 193.142039 
L 157.862726 192.378057 
L 158.942952 190.996773 
L 159.01102 190.110602 
L 159.044595 190.022898 
L 159.222942 189.557026 
L 159.306843 188.300328 
L 159.821694 187.903851 
L 159.453242 186.846147 
L 158.422575 186.304242 
L 158.426961 185.157957 
L 158.404171 185.047032 
L 158.099993 183.566486 
L 158.093328 183.534046 
L 158.053769 183.341496 
L 157.906409 182.62424 
L 157.230598 181.631356 
L 156.706068 181.119514 
L 155.250228 179.698892 
L 154.72305 178.235407 
L 154.28184 177.010575 
L 153.597916 176.321106 
L 154.334908 175.637316 
L 154.115486 175.023713 
L 153.185649 174.195224 
L 152.83474 172.627191 
L 153.207008 171.860187 
L 153.018418 171.319846 
L 152.511966 170.750232 
L 152.126826 170.317061 
L 152.858818 169.624517 
L 152.370546 169.16989 
L 150.852308 167.630985 
L 151.485707 166.006886 
L 150.130359 165.041045 
L 150.129693 165.035951 
L 150.069407 164.574671 
L 149.936901 163.560811 
L 149.331419 159.959586 
L 149.123533 158.723142 
L 148.484275 154.921025 
L 148.423181 154.554093 
L 148.02337 152.183416 
L 147.842327 151.064476 
L 145.325586 135.509702 
L 144.863478 132.653636 
L 144.444238 130.208656 
L 144.440203 130.18724 
L 144.400599 129.891277 
L 144.068504 127.897987 
L 144.01477 127.575471 
L 143.383 123.783488 
L 142.541014 118.729758 
L 142.405536 117.799453 
L 142.346196 117.48718 
L 141.70785 113.4907 
L 141.66293 113.209467 
L 141.266188 110.829643 
L 140.724059 107.577722 
L 140.413543 105.703409 
L 140.377141 105.588046 
L 139.785845 101.942485 
L 139.714817 101.497539 
L 139.435506 99.747823 
L 139.380771 99.190339 
L 138.258748 92.646161 
L 138.244977 92.533351 
L 138.126604 91.862118 
L 138.099324 91.669273 
L 137.950717 90.786094 
L 137.583771 88.605323 
L 137.427444 87.755911 
L 136.963817 85.236766 
L 136.186407 81.012664 
L 136.180355 80.982807 
L 135.92032 79.5923 
L 135.756992 78.70441 
L 135.686775 78.396045 
L 135.686577 78.394953 
L 135.677126 78.342793 
L 135.539236 77.435832 
L 135.092541 75.034516 
L 134.793123 73.2018 
L 134.782683 73.137901 
L 134.478483 71.490354 
L 134.478351 71.486082 
L 133.987798 68.810166 
L 133.98657 68.800631 
L 133.594785 66.624779 
L 132.641967 60.877879 
L 132.114968 57.553501 
L 132.113739 57.545164 
L 131.956333 56.47261 
L 131.929842 56.11563 
L 131.676386 54.40071 
" clip-path="url(#p13b5278022)" style="fill: #ffc733"/>
   </g>
   <g id="text_1">
    <!-- GA -->
    <g transform="translate(227.406563 35.472) scale(0.12 -0.12)">
     <defs>
      <path id="DejaVuSans-47" d="M 3809 666 
L 3809 1919 
L 2778 1919 
L 2778 2438 
L 4434 2438 
L 4434 434 
Q 4069 175 3628 42 
Q 3188 -91 2688 -91 
Q 1594 -91 976 548 
Q 359 1188 359 2328 
Q 359 3472 976 4111 
Q 1594 4750 2688 4750 
Q 3144 4750 3555 4637 
Q 3966 4525 4313 4306 
L 4313 3634 
Q 3963 3931 3569 4081 
Q 3175 4231 2741 4231 
Q 1884 4231 1454 3753 
Q 1025 3275 1025 2328 
Q 1025 1384 1454 906 
Q 1884 428 2741 428 
Q 3075 428 3337 486 
Q 3600 544 3809 666 
z
" transform="scale(0.015625)"/>
      <path id="DejaVuSans-41" d="M 2188 4044 
L 1331 1722 
L 3047 1722 
L 2188 4044 
z
M 1831 4666 
L 2547 4666 
L 4325 0 
L 3669 0 
L 3244 1197 
L 1141 1197 
L 716 0 
L 50 0 
L 1831 4666 
z
" transform="scale(0.015625)"/>
     </defs>
     <use xlink:href="#DejaVuSans-47"/>
     <use xlink:href="#DejaVuSans-41" x="77.490234"/>
    </g>
   </g>
  </g>
 </g>
 <defs>
  <clipPath id="p13b5278022">
   <rect x="121.228025" y="41.472" width="229.863951" height="266.112"/>
  </clipPath>
 </defs>
</svg>
