<?xml version="1.0" encoding="utf-8" standalone="no"?>
<!DOCTYPE svg PUBLIC "-//W3C//DTD SVG 1.1//EN"
  "http://www.w3.org/Graphics/SVG/1.1/DTD/svg11.dtd">
<svg xmlns:xlink="http://www.w3.org/1999/xlink" width="360pt" height="360pt" viewBox="0 0 360 360" xmlns="http://www.w3.org/2000/svg" version="1.1">
 <metadata>
  <rdf:RDF xmlns:dc="http://purl.org/dc/elements/1.1/" xmlns:cc="http://creativecommons.org/ns#" xmlns:rdf="http://www.w3.org/1999/02/22-rdf-syntax-ns#">
   <cc:Work>
    <dc:type rdf:resource="http://purl.org/dc/dcmitype/StillImage"/>
    <dc:date>2023-06-19T15:20:26.100515</dc:date>
    <dc:format>image/svg+xml</dc:format>
    <dc:creator>
     <cc:Agent>
      <dc:title>Matplotlib v3.7.1, https://matplotlib.org/</dc:title>
     </cc:Agent>
    </dc:creator>
   </cc:Work>
  </rdf:RDF>
 </metadata>
 <defs>
  <style type="text/css">*{stroke-linejoin: round; stroke-linecap: butt}</style>
 </defs>
 <g id="figure_1">
  <g id="patch_1">
   <path d="M 0 360 
L 360 360 
L 360 0 
L 0 0 
z
" style="fill: #ffffff"/>
  </g>
  <g id="axes_1">
   <g id="PatchCollection_1">
    <path d="M 57.681818 59.074263 
L 60.480423 59.108748 
L 64.658561 59.16023 
L 65.052079 59.165079 
L 69.40369 59.164281 
L 70.524145 59.143626 
L 72.466844 59.108725 
L 73.487219 59.090393 
L 73.636006 59.085079 
L 73.636272 59.08507 
L 73.847555 59.08507 
L 74.21955 59.075701 
L 75.121535 59.058453 
L 75.212032 59.058453 
L 75.787005 59.05313 
L 76.324662 59.047806 
L 77.357388 59.031836 
L 77.634255 59.031836 
L 78.086738 59.031836 
L 78.155941 59.026513 
L 78.299671 59.02119 
L 78.368875 59.02119 
L 80.000423 59.004155 
L 80.285328 58.999896 
L 87.491523 58.956884 
L 87.498497 58.958161 
L 90.968884 58.916214 
L 91.122549 58.915053 
L 92.2591 58.906472 
L 92.855473 58.904662 
L 93.127708 58.901894 
L 97.279482 58.908548 
L 97.454194 58.910943 
L 98.850664 58.897209 
L 99.265298 58.91302 
L 99.453318 58.902053 
L 99.623612 58.910571 
L 99.971598 58.917917 
L 99.985708 58.918334 
L 100.054535 58.920366 
L 100.110803 58.919141 
L 101.828884 58.908089 
L 104.215359 58.892738 
L 104.40636 58.896358 
L 109.862829 58.898593 
L 110.046484 58.879908 
L 115.987164 58.89689 
L 116.03156 58.895665 
L 122.108092 58.895825 
L 122.159621 58.893802 
L 125.995934 58.875703 
L 136.233448 58.923826 
L 136.238927 58.923836 
L 141.535541 58.933568 
L 141.993188 58.927765 
L 142.85012 58.927209 
L 146.502636 58.924837 
L 146.514281 58.924859 
L 152.121361 58.935271 
L 156.44412 58.913871 
L 163.359555 58.972375 
L 163.348908 58.679645 
L 167.118041 58.658298 
L 170.654255 58.605523 
L 179.181405 58.478263 
L 186.227262 58.287581 
L 190.581588 58.223547 
L 190.581961 58.223542 
L 190.745653 58.453243 
L 190.795214 58.642807 
L 190.801069 58.826515 
L 190.667933 59.178494 
L 190.506423 59.289486 
L 190.400169 59.541758 
L 189.954819 59.940476 
L 189.879441 60.195251 
L 189.914734 60.442999 
L 189.742365 60.641346 
L 189.600924 60.719173 
L 189.61551 60.987256 
L 189.818914 61.21238 
L 189.910795 61.309744 
L 189.948697 61.385441 
L 189.916225 61.498988 
L 189.837812 61.555788 
L 189.699938 61.60982 
L 189.545827 61.553073 
L 189.470076 61.590922 
L 189.424136 61.709899 
L 189.449209 61.859804 
L 189.413596 61.935342 
L 188.877696 62.255647 
L 188.73716 62.264111 
L 188.381295 62.13305 
L 188.205253 62.179683 
L 188.065462 62.288385 
L 187.951542 62.51106 
L 187.796208 62.609435 
L 187.578749 62.578347 
L 187.392326 62.630143 
L 187.273616 62.824392 
L 187.099011 63.001126 
L 186.838274 63.14278 
L 186.735054 63.331333 
L 186.433222 63.606762 
L 186.227315 63.691616 
L 185.994313 63.696779 
L 185.843077 63.845673 
L 185.538369 63.91642 
L 185.473371 64.09917 
L 185.653779 64.398927 
L 185.41721 64.639062 
L 185.201296 64.631769 
L 185.007527 64.497781 
L 184.646818 64.746487 
L 184.160212 64.651572 
L 183.993112 64.750373 
L 183.719972 64.803287 
L 183.636342 64.877601 
L 183.664237 65.026282 
L 183.671583 65.191145 
L 183.542332 65.352708 
L 183.289208 65.417334 
L 183.21383 65.546584 
L 183.203076 65.794332 
L 183.052266 65.923583 
L 182.917639 66.05821 
L 182.854824 66.347054 
L 182.809948 66.435155 
L 182.7507 66.478274 
L 182.621449 66.510587 
L 182.530207 66.476304 
L 182.406014 66.435155 
L 182.28214 66.435155 
L 182.1152 66.494404 
L 181.991379 66.925221 
L 182.134524 67.162003 
L 182.088424 67.766467 
L 181.925796 67.923665 
L 181.689334 68.007667 
L 181.29035 67.769927 
L 181.201929 67.678632 
L 180.930333 67.602296 
L 180.866133 67.707112 
L 180.855221 67.902745 
L 180.697277 68.121427 
L 180.539334 68.145755 
L 180.423871 68.145755 
L 180.320598 68.151823 
L 180.265928 68.200425 
L 180.235585 68.255096 
L 180.235585 68.315835 
L 180.31453 68.443382 
L 180.3305 68.691929 
L 180.199492 68.777368 
L 179.65976 68.910026 
L 179.122955 69.452952 
L 179.331683 70.303993 
L 179.275096 70.748705 
L 179.325454 71.055062 
L 178.335102 71.977117 
L 177.794091 72.24866 
L 177.559386 72.703592 
L 177.599063 73.370424 
L 177.59947 73.37726 
L 177.657654 73.45908 
L 177.679799 73.523652 
L 177.743041 73.788168 
L 177.853234 73.937221 
L 177.847218 74.033307 
L 177.751132 74.177517 
L 177.733086 74.273603 
L 177.763109 74.357711 
L 177.847218 74.435805 
L 178.015435 74.573998 
L 178.135583 74.694146 
L 178.2437 74.814294 
L 178.297785 74.92241 
L 178.299498 74.938428 
L 178.315778 75.090628 
L 178.333824 75.186714 
L 178.466002 75.26486 
L 178.781303 75.221848 
L 179.044702 75.318999 
L 179.250875 75.424081 
L 179.358566 75.507604 
L 179.407327 75.571538 
L 179.520342 75.862032 
L 179.627181 75.881835 
L 179.91874 75.811088 
L 180.146366 75.84899 
L 180.314796 76.007572 
L 180.34828 76.226467 
L 180.772283 76.66692 
L 181.107653 76.84259 
L 181.566684 77.164279 
L 181.884913 77.32169 
L 182.401276 77.406863 
L 182.773963 77.54527 
L 183.146596 77.86467 
L 183.343559 78.152076 
L 183.551808 78.247364 
L 183.551435 78.258011 
L 183.407439 78.593913 
L 184.024999 78.950576 
L 184.577454 79.022441 
L 185.099354 78.971444 
L 185.728519 79.1049 
L 185.877572 79.23266 
L 186.811285 79.125022 
L 187.13127 79.170696 
L 187.314073 79.262151 
L 187.336538 79.346153 
L 187.314073 79.444954 
L 187.261692 79.61594 
L 187.298955 79.956633 
L 187.405422 80.03116 
L 188.134772 80.180213 
L 188.241238 80.70717 
L 188.917355 81.255473 
L 189.460335 81.590843 
L 189.593418 81.574873 
L 189.82099 81.674419 
L 190.827846 82.737116 
L 190.850427 82.925338 
L 190.871018 83.096973 
L 190.924091 83.162291 
L 191.207346 83.197159 
L 191.420261 83.126749 
L 191.43593 83.121567 
L 191.690119 83.167667 
L 191.846306 83.22681 
L 192.205205 83.55313 
L 192.211486 83.611207 
L 191.73952 83.927839 
L 191.722059 84.0268 
L 192.666312 84.761846 
L 192.875838 84.815345 
L 193.284244 84.677737 
L 193.464173 84.721442 
L 193.730116 85.136509 
L 193.792836 85.234398 
L 194.033344 85.470648 
L 194.515584 85.753902 
L 194.632644 85.778549 
L 194.802885 85.719194 
L 196.207765 86.358792 
L 196.624795 86.340107 
L 196.614734 86.171624 
L 196.753567 85.989353 
L 196.777818 85.982635 
L 197.451083 85.796116 
L 198.457193 85.833379 
L 198.776646 86.083576 
L 199.165249 85.961139 
L 199.511266 85.615123 
L 200.171412 85.716266 
L 200.315142 85.844026 
L 200.469519 85.865319 
L 201.241456 85.652386 
L 201.544886 85.625769 
L 202.598959 85.993026 
L 202.918359 86.189989 
L 203.079815 86.39201 
L 203.024825 86.531322 
L 202.971592 86.578593 
L 202.939652 86.695706 
L 202.992939 86.818143 
L 203.531553 86.987638 
L 203.701314 87.071267 
L 203.77845 87.141535 
L 203.76956 87.458753 
L 203.809325 87.55255 
L 204.041688 87.857577 
L 204.112382 88.480513 
L 204.275649 88.771327 
L 204.420231 88.929323 
L 204.466544 89.103556 
L 204.484377 89.55721 
L 204.529534 89.659002 
L 204.774445 90.211075 
L 204.810165 90.340645 
L 204.774445 90.597709 
L 204.799624 90.724032 
L 205.06116 91.120833 
L 205.136112 91.588062 
L 205.124933 91.83943 
L 205.146706 92.004879 
L 205.216016 92.102136 
L 205.763361 92.387999 
L 206.17354 92.658204 
L 206.480467 92.860392 
L 207.106012 93.32251 
L 207.264381 93.341514 
L 207.326611 93.404756 
L 207.476675 93.869163 
L 207.456819 94.061868 
L 207.490995 94.268307 
L 207.710636 94.969336 
L 207.981487 95.367522 
L 208.058356 95.697568 
L 208.409992 96.121144 
L 208.557684 96.299052 
L 208.859092 96.504692 
L 208.982646 96.480684 
L 209.033218 96.507194 
L 209.404094 96.795985 
L 209.679417 97.072638 
L 209.849764 97.310219 
L 209.743297 97.432655 
L 209.737974 97.469919 
L 209.98817 98.055485 
L 209.938876 98.457184 
L 209.946755 98.55854 
L 210.098683 99.237851 
L 210.019844 99.389725 
L 209.96906 99.519082 
L 210.180289 99.797706 
L 210.175126 99.866483 
L 210.077389 100.112474 
L 210.089746 100.211945 
L 210.101877 100.309597 
L 210.589441 101.093458 
L 210.631282 101.20972 
L 210.610841 101.879927 
L 210.636286 101.997094 
L 210.692554 102.127888 
L 210.980812 102.454315 
L 211.092443 102.660807 
L 211.401462 103.480121 
L 211.515062 103.604634 
L 212.113032 103.985678 
L 212.3463 104.075589 
L 212.571371 104.102365 
L 212.751193 104.093262 
L 212.845203 104.130153 
L 213.063247 104.334516 
L 213.54075 104.48341 
L 213.65254 104.583382 
L 214.030869 105.095433 
L 214.096559 105.445123 
L 214.364216 105.755846 
L 214.44561 105.801467 
L 214.511885 105.979958 
L 214.539354 106.002635 
L 214.78114 106.150198 
L 214.879302 106.184374 
L 215.091756 106.240535 
L 215.153294 106.284399 
L 215.444746 106.583198 
L 215.472587 106.655116 
L 215.460769 106.758762 
L 215.490101 106.789264 
L 215.519379 106.828231 
L 215.509052 106.897701 
L 215.378524 107.163441 
L 215.24954 107.284068 
L 215.226064 107.443768 
L 215.315549 107.646534 
L 215.498512 107.893643 
L 215.74083 108.034924 
L 215.869974 108.041259 
L 216.008008 108.003676 
L 216.22142 108.113922 
L 216.477366 108.376948 
L 216.525276 108.462122 
L 216.541246 108.595205 
L 216.637066 108.760228 
L 216.94582 108.999778 
L 217.142783 109.367035 
L 217.494123 109.638525 
L 217.861433 109.867428 
L 217.946606 109.963248 
L 217.973223 110.112302 
L 217.877403 110.506175 
L 217.888049 110.633935 
L 217.950181 110.750024 
L 218.090336 111.011892 
L 218.229275 111.485668 
L 218.389561 111.643611 
L 218.540743 111.742892 
L 218.841991 111.825031 
L 218.922533 111.85894 
L 218.958838 111.915208 
L 218.968899 111.97616 
L 218.916783 112.040572 
L 218.814895 112.09503 
L 218.72163 112.183397 
L 218.691021 112.282997 
L 218.692086 112.425503 
L 218.743988 112.569339 
L 218.852371 112.714506 
L 219.002276 112.870001 
L 219.26099 113.052538 
L 219.344886 113.15432 
L 219.458965 113.413673 
L 219.482654 113.691444 
L 219.542169 113.84433 
L 219.544897 113.848014 
L 219.954567 114.400991 
L 220.079027 114.482651 
L 220.684236 114.635431 
L 220.862994 114.603384 
L 221.164241 114.491594 
L 221.556571 114.485526 
L 221.675068 114.507085 
L 222.290712 114.8473 
L 222.573381 115.140775 
L 222.789295 115.428661 
L 223.187214 116.098815 
L 223.356496 116.296045 
L 224.038841 116.714299 
L 224.581714 117.19654 
L 225.141836 117.540001 
L 225.369994 117.792114 
L 225.742414 118.010743 
L 226.147307 118.139568 
L 226.246267 118.203661 
L 226.645198 118.569267 
L 226.750919 118.63352 
L 227.089537 118.744778 
L 227.352083 118.719279 
L 227.544362 118.659924 
L 227.858705 118.608181 
L 228.096818 118.653057 
L 228.275894 118.766657 
L 228.530403 118.993111 
L 228.807695 119.095692 
L 229.103353 119.241232 
L 229.381391 119.419137 
L 229.672258 119.711708 
L 229.805927 119.806303 
L 229.947953 119.882853 
L 230.864951 120.199219 
L 231.128349 120.312819 
L 231.612985 120.693011 
L 232.323597 121.072192 
L 232.84177 121.526485 
L 232.91667 121.648602 
L 233.147809 121.824964 
L 233.473171 121.983866 
L 233.61541 122.105238 
L 233.665077 122.195096 
L 233.684081 122.360119 
L 233.647989 122.85817 
L 233.659061 122.935145 
L 233.717991 123.016007 
L 233.893767 123.103842 
L 234.027702 123.075202 
L 234.171752 123.095112 
L 234.382449 123.200194 
L 234.634988 123.413234 
L 234.814863 123.627445 
L 235.20006 123.846713 
L 235.345174 123.86066 
L 235.429921 123.908889 
L 235.488904 123.962283 
L 235.52292 124.082643 
L 235.585416 124.163505 
L 235.784242 124.254906 
L 235.85994 124.245111 
L 236.008035 124.284451 
L 236.422989 124.662354 
L 236.492778 124.994743 
L 236.799189 125.604052 
L 236.868765 125.818529 
L 237.04683 126.69592 
L 236.970228 127.042469 
L 237.109486 127.45045 
L 237.741206 128.040914 
L 237.957333 128.191298 
L 238.052142 128.292388 
L 238.30878 128.66944 
L 238.434943 128.965257 
L 238.502336 129.065762 
L 238.91186 129.344278 
L 238.958226 129.497697 
L 238.958788 129.520989 
L 238.96355 129.718455 
L 238.886947 130.288744 
L 239.13198 131.157299 
L 239.68715 131.673769 
L 240.02252 131.936475 
L 240.315463 132.087019 
L 240.85897 132.195083 
L 240.977846 132.218718 
L 241.168261 132.268385 
L 241.277017 132.325877 
L 241.433044 132.448899 
L 241.555321 132.73439 
L 241.674776 132.88685 
L 241.875211 133.01546 
L 241.991195 133.089882 
L 242.488874 133.289134 
L 242.725389 133.321606 
L 242.896588 133.278168 
L 243.188253 133.057569 
L 243.392669 132.972396 
L 243.45748 132.971528 
L 243.774299 132.967285 
L 243.941238 133.017538 
L 244.336443 133.51149 
L 244.46761 133.633288 
L 244.586 133.703981 
L 244.93947 133.817262 
L 245.705178 133.982498 
L 245.921571 134.095779 
L 246.523747 134.554011 
L 246.638129 134.611202 
L 246.671948 134.628112 
L 246.990497 134.655367 
L 247.130181 134.71073 
L 247.607151 135.198773 
L 247.73917 135.49177 
L 247.838823 135.635712 
L 248.093544 135.716627 
L 248.349064 135.940207 
L 248.349064 136.089207 
L 248.540704 136.243584 
L 248.958429 136.409667 
L 248.982541 136.419254 
L 249.062391 136.488457 
L 249.190151 136.866414 
L 249.216768 136.89303 
L 249.365821 136.94094 
L 249.525521 137.03676 
L 250.025914 137.872524 
L 250.108745 138.068209 
L 250.079148 138.415504 
L 250.164321 138.63903 
L 250.345314 138.825347 
L 250.627504 138.95843 
L 251.005461 139.032957 
L 251.351477 139.139424 
L 251.974098 139.40839 
L 252.448084 139.613147 
L 252.69828 139.703644 
L 253.102907 139.79414 
L 253.353104 139.927224 
L 253.518127 140.0816 
L 253.538926 140.122817 
L 253.81091 140.66179 
L 254.199726 141.234794 
L 254.203719 141.321724 
L 254.209096 141.440062 
L 254.055784 141.669178 
L 253.817298 141.782458 
L 253.590258 141.872848 
L 253.494012 142.017217 
L 253.469951 142.215778 
L 253.594943 142.40417 
L 253.79856 142.504675 
L 253.89108 142.600814 
L 253.897095 142.733206 
L 253.848972 142.859528 
L 253.692519 142.991919 
L 253.295452 143.070119 
L 253.060799 143.112227 
L 252.952523 143.208526 
L 252.934477 143.364925 
L 253.032799 143.546345 
L 253.277246 144.492567 
L 253.597924 144.80856 
L 253.550014 144.96826 
L 253.28933 145.126629 
L 253.076237 145.085373 
L 252.81007 144.893733 
L 252.591814 144.90438 
L 252.453407 144.994877 
L 252.432114 145.170547 
L 252.53858 145.346163 
L 253.06559 145.77203 
L 253.023004 145.984963 
L 252.900121 146.110771 
L 252.799424 146.213867 
L 252.804747 146.36292 
L 252.93783 146.432123 
L 253.17738 146.437447 
L 253.603247 146.341627 
L 253.963317 146.541305 
L 253.901354 146.921817 
L 253.94394 147.00699 
L 254.211331 147.183192 
L 254.320353 147.285187 
L 254.369541 147.404749 
L 254.425808 147.468044 
L 254.577044 147.468044 
L 254.70012 147.302754 
L 254.780981 147.144545 
L 254.904057 147.098817 
L 255.016592 147.176165 
L 255.083134 147.283803 
L 255.076373 147.45399 
L 255.062266 147.566525 
L 255.631437 147.853347 
L 255.76452 148.199363 
L 256.20641 148.359063 
L 256.49387 148.06628 
L 256.626953 148.007723 
L 257.387338 148.205592 
L 257.725689 148.394197 
L 257.78744 148.550703 
L 257.601123 148.779553 
L 257.494656 148.832787 
L 257.425453 148.77423 
L 257.191227 148.779553 
L 256.967647 148.864727 
L 256.87715 149.34915 
L 256.978293 149.487557 
L 257.48401 149.631287 
L 257.89923 149.89213 
L 258.206865 150.19391 
L 258.202607 150.400295 
L 258.109927 150.509849 
L 257.979825 150.534124 
L 257.72356 150.546847 
L 257.414753 151.377286 
L 257.46804 151.547686 
L 257.476391 151.556333 
L 257.766146 151.856333 
L 258.272928 152.07427 
L 258.554 152.292846 
L 258.563097 152.304338 
L 258.756286 152.548366 
L 259.198123 152.660156 
L 259.618666 152.809156 
L 259.730456 152.873036 
L 259.810306 153.043383 
L 259.820953 153.346813 
L 259.852893 153.40537 
L 259.964683 153.46925 
L 260.763183 153.62895 
L 261.066666 153.64492 
L 261.364773 153.554423 
L 261.439299 153.474573 
L 261.449946 153.282933 
L 261.252983 153.02209 
L 261.300893 152.952886 
L 261.391389 152.915623 
L 261.625616 152.952886 
L 261.897106 153.14985 
L 261.966309 153.240346 
L 262.184566 153.884416 
L 262.285709 153.98556 
L 262.466702 154.06541 
L 262.52801 154.178593 
L 262.535906 154.19317 
L 262.338943 154.650976 
L 262.221829 154.70421 
L 262.067453 154.72018 
L 261.710789 155.07679 
L 261.710789 155.119376 
L 262.014219 155.63574 
L 262.136656 155.912553 
L 262.205859 156.237276 
L 262.631726 156.657766 
L 263.233262 157.195423 
L 264.271366 157.83417 
L 264.654645 158.12163 
L 265.320062 158.526203 
L 265.399912 158.542173 
L 265.575582 158.510233 
L 265.729959 158.52088 
L 266.443339 158.72849 
L 267.779495 159.234153 
L 268.418295 159.69196 
L 268.636552 159.766486 
L 268.908095 159.777133 
L 269.174261 159.7239 
L 269.943643 159.653365 
L 270.084551 159.666195 
L 270.128922 159.686159 
L 270.212684 159.723846 
L 270.315158 159.794274 
L 270.385639 159.941624 
L 270.382605 160.100525 
L 270.366422 160.204224 
L 270.353593 160.313139 
L 270.366422 160.351574 
L 270.411244 160.370791 
L 270.526175 160.375209 
L 270.69913 160.222909 
L 270.801977 160.217053 
L 270.878846 160.255488 
L 270.987761 160.409225 
L 270.98132 160.5117 
L 270.923668 160.633391 
L 270.878846 160.723089 
L 270.885234 160.812787 
L 270.93011 160.902432 
L 271.179934 161.00496 
L 271.281609 161.003735 
L 271.384882 160.934479 
L 271.500185 160.953696 
L 271.752245 161.157526 
L 271.901831 161.387707 
L 272.043538 161.587918 
L 272.333766 161.841095 
L 272.544304 161.87607 
L 272.659607 161.863294 
L 272.768469 161.81203 
L 272.845338 161.767208 
L 272.883773 161.767208 
L 272.909431 161.767208 
L 272.947866 161.767208 
L 272.992688 161.786425 
L 273.063116 161.844077 
L 273.075945 161.908116 
L 273.063435 161.969654 
L 273.03751 162.113118 
L 273.063116 162.202763 
L 273.107991 162.266802 
L 273.178419 162.324454 
L 273.357815 162.375718 
L 273.453902 162.343671 
L 273.72289 162.215592 
L 273.85741 162.228368 
L 273.950474 162.316276 
L 273.972714 162.337283 
L 274.079766 162.563312 
L 274.148543 162.639329 
L 275.168334 163.171875 
L 275.509081 163.205679 
L 275.614802 163.246136 
L 276.105347 163.920762 
L 276.625809 164.227971 
L 276.670206 164.295258 
L 276.682024 164.841113 
L 276.668183 164.968181 
L 276.493631 165.843283 
L 276.241571 166.600155 
L 276.22246 166.651472 
L 276.140534 166.699488 
L 276.035292 166.697572 
L 275.933616 166.693899 
L 275.870109 166.725626 
L 275.833112 166.78381 
L 275.817248 166.841994 
L 275.801332 166.894908 
L 275.764334 166.942498 
L 275.759011 167.006006 
L 275.764334 167.080053 
L 275.780198 167.175288 
L 275.838382 167.323383 
L 275.999626 167.488566 
L 276.242902 167.653749 
L 276.236514 167.721142 
L 276.068829 167.989119 
L 276.084214 168.166652 
L 276.222514 168.312458 
L 276.47468 168.36665 
L 277.107837 168.888017 
L 277.277651 169.332941 
L 277.321516 169.74848 
L 277.864815 169.990958 
L 278.02739 170.054519 
L 278.126137 170.164978 
L 278.094943 170.261596 
L 277.765908 170.553209 
L 277.719754 170.557574 
L 277.432454 170.715677 
L 277.307622 171.055678 
L 277.495376 171.238854 
L 277.790395 171.311996 
L 277.914641 171.290277 
L 278.666403 171.428737 
L 278.721605 171.487826 
L 278.803159 171.721041 
L 278.714472 172.19732 
L 278.556848 172.491647 
L 278.664859 172.722999 
L 278.738108 172.819405 
L 278.81125 172.820735 
L 278.90723 172.756802 
L 279.148377 172.6588 
L 279.216037 172.676846 
L 279.265224 172.70458 
L 280.127391 173.20146 
L 280.386158 173.499301 
L 280.439072 173.709838 
L 280.579395 174.403309 
L 280.552087 174.538096 
L 280.485279 174.640996 
L 280.271281 174.812247 
L 280.212618 175.271758 
L 280.193454 175.681228 
L 280.205964 175.886496 
L 280.04456 176.031078 
L 279.992072 176.14356 
L 280.029548 176.271054 
L 280.127072 176.361018 
L 280.24706 176.428518 
L 280.359542 176.473553 
L 280.41203 176.541 
L 280.419536 176.600994 
L 280.41203 176.653482 
L 280.404524 176.720982 
L 280.329518 176.795987 
L 280.221135 176.827981 
L 280.172054 176.870993 
L 280.149536 176.908469 
L 280.127072 176.953452 
L 280.127072 177.020951 
L 280.142084 177.058428 
L 280.205005 177.072322 
L 280.34453 177.125928 
L 280.464518 177.208439 
L 280.599518 177.358397 
L 280.659512 177.485891 
L 280.726958 177.620891 
L 280.659512 177.785861 
L 280.6445 177.913355 
L 280.67447 178.010825 
L 280.719452 178.093284 
L 280.854452 178.130813 
L 280.929458 178.175795 
L 280.97444 178.250801 
L 280.989452 178.318248 
L 280.97444 178.393253 
L 280.959428 178.475765 
L 280.921952 178.558223 
L 280.862277 178.614757 
L 280.549691 178.960614 
L 280.444609 179.617939 
L 280.408516 180.057647 
L 280.071922 180.594345 
L 280.113551 180.649122 
L 280.839387 181.086647 
L 280.918758 181.06019 
L 280.942819 181.016858 
L 280.964485 180.973579 
L 281.005368 180.951913 
L 281.039065 180.947122 
L 281.094375 180.966339 
L 281.469882 181.751638 
L 281.481966 181.893345 
L 281.308532 182.409495 
L 281.182955 182.690727 
L 281.14814 182.741564 
L 281.153836 182.79698 
L 281.256044 183.01002 
L 281.626495 183.021199 
L 281.865832 183.171104 
L 281.90762 183.274803 
L 281.824789 183.379832 
L 281.346062 183.708388 
L 281.264774 183.746077 
L 281.311141 183.982007 
L 281.39115 184.047272 
L 281.385242 184.091029 
L 281.149684 184.329142 
L 281.040077 184.363265 
L 280.99057 184.347508 
L 280.923336 184.266859 
L 280.822831 184.029385 
L 280.750966 184.025552 
L 280.631032 184.094383 
L 280.5556 184.171199 
L 280.54341 184.453974 
L 280.902948 185.038583 
L 281.285802 185.422022 
L 281.690801 185.721194 
L 281.86333 185.894042 
L 282.104317 186.261565 
L 282.108403 186.264399 
L 282.54823 186.569467 
L 282.643145 186.603004 
L 282.801727 186.592623 
L 282.964568 186.438353 
L 283.050167 186.443517 
L 283.146679 186.485411 
L 283.187935 186.549611 
L 283.219662 186.858577 
L 283.29536 187.239834 
L 285.329458 188.082571 
L 285.764109 188.172748 
L 286.380497 188.096305 
L 286.828509 187.996599 
L 286.968938 187.986857 
L 287.032552 188.006979 
L 287.854262 188.336174 
L 287.855667 188.337437 
L 287.965307 188.435934 
L 288.179571 188.935688 
L 288.194796 188.991264 
L 288.20145 189.151762 
L 288.124794 189.28937 
L 288.077469 189.456576 
L 289.368324 190.366174 
L 289.530952 190.408175 
L 289.634917 190.371444 
L 289.787377 190.366866 
L 290.208719 190.420259 
L 290.338342 190.475835 
L 290.372252 190.608492 
L 290.329079 190.688715 
L 290.229373 190.734974 
L 290.138664 190.799387 
L 290.121789 190.868377 
L 290.145584 191.02318 
L 290.395568 191.42243 
L 290.718002 191.667516 
L 291.521825 192.476609 
L 292.181865 193.046206 
L 292.458679 193.200529 
L 292.586439 193.216499 
L 292.756785 193.173913 
L 292.815342 193.184559 
L 292.884545 193.253763 
L 292.857929 193.317643 
L 292.575792 193.668983 
L 292.314949 193.892563 
L 292.135073 193.918807 
L 292.057832 193.979759 
L 292.02126 194.065145 
L 292.02126 194.154577 
L 292.065976 194.244009 
L 292.122883 194.32125 
L 292.122883 194.378157 
L 292.098502 194.463543 
L 292.045641 194.54483 
L 291.942262 194.605836 
L 291.79768 194.666788 
L 291.734652 194.749566 
L 291.910322 195.398959 
L 292.453249 196.053676 
L 292.730062 196.277256 
L 293.198515 196.852123 
L 293.395479 197.107643 
L 293.347569 197.485599 
L 293.191009 197.708753 
L 293.234306 197.752997 
L 293.597712 198.124346 
L 293.815969 198.292297 
L 293.848441 198.393014 
L 293.815969 198.496979 
L 293.750971 198.591202 
L 293.734735 198.649706 
L 293.773701 198.724445 
L 294.220542 199.002643 
L 294.577205 199.321989 
L 294.580293 199.391139 
L 294.571669 199.47759 
L 294.588917 199.517941 
L 294.609092 199.535242 
L 294.632142 199.543919 
L 294.669618 199.549668 
L 294.733019 199.549668 
L 294.813721 199.546794 
L 294.894423 199.503568 
L 294.92615 199.457415 
L 294.971132 199.359253 
L 295.162772 199.268756 
L 295.242622 199.279403 
L 295.327795 199.359253 
L 295.716399 199.790443 
L 295.748339 200.136406 
L 295.535405 200.391926 
L 295.503412 200.487746 
L 295.604555 200.679386 
L 296.152859 201.493803 
L 296.232709 201.525743 
L 296.285942 201.600269 
L 296.317882 201.701413 
L 296.450965 202.542446 
L 296.461251 202.645307 
L 296.461612 202.648913 
L 296.365792 202.813936 
L 296.014399 203.250396 
L 295.865345 203.340893 
L 295.561915 203.442036 
L 295.066845 203.937106 
L 294.933762 204.378889 
L 294.547235 204.862035 
L 294.494427 204.974464 
L 294.525942 205.103927 
L 294.657109 205.305735 
L 295.029774 205.87793 
L 295.210309 206.155126 
L 295.551641 206.584293 
L 295.589703 206.627465 
L 296.001144 206.852323 
L 296.27439 207.241192 
L 296.536085 207.886806 
L 296.552055 208.094416 
L 296.450912 208.312619 
L 296.418972 208.445702 
L 296.476091 208.528746 
L 296.472205 208.621372 
L 296.381709 208.647989 
L 296.202951 208.796084 
L 296.009075 208.956742 
L 295.941575 209.072791 
L 295.929225 209.143059 
L 295.993105 209.206939 
L 296.275242 209.286789 
L 296.333799 209.345292 
L 296.42299 209.724355 
L 296.440265 209.797776 
L 296.530762 210.271552 
L 296.488175 210.393936 
L 296.442395 210.811072 
L 296.589319 211.698099 
L 296.796929 211.932326 
L 296.914042 211.996206 
L 297.482361 212.04007 
L 297.858827 212.037462 
L 297.959332 212.06131 
L 297.992549 212.263171 
L 298.133085 212.425 
L 298.168395 212.448861 
L 298.382643 212.593643 
L 299.268446 213.14892 
L 299.612546 213.300529 
L 300.155952 213.417376 
L 300.793101 213.462039 
L 301.090729 213.409817 
L 301.679064 213.119855 
L 301.760221 213.025482 
L 301.977862 212.772401 
L 302.193351 212.625903 
L 302.471016 212.573947 
L 302.707798 212.632717 
L 302.838964 212.68776 
L 303.131748 212.922306 
L 303.270154 213.103299 
L 303.483088 213.475879 
L 303.727961 213.720753 
L 303.956864 213.843189 
L 304.991241 214.165251 
L 305.253149 214.305627 
L 305.852343 214.880441 
L 306.367056 215.427147 
L 306.729256 215.740265 
L 306.940007 215.874467 
L 307.203459 215.958362 
L 307.585461 216.003078 
L 308.527265 216.098153 
L 308.924386 216.116731 
L 310.330065 216.697347 
L 310.693915 216.538552 
L 311.180787 216.668974 
L 311.318182 217.356749 
L 311.245572 217.817909 
L 310.898064 218.582552 
L 310.132942 219.590419 
L 309.068275 220.137179 
L 308.276536 220.670044 
L 307.556821 220.951968 
L 306.604264 220.888354 
L 306.541555 220.263341 
L 305.57207 220.235394 
L 304.29974 221.084998 
L 304.122899 222.025524 
L 304.507244 222.43968 
L 305.253841 222.655488 
L 305.95173 222.590756 
L 306.316432 222.793255 
L 305.63579 223.483692 
L 304.350738 224.456211 
L 303.21921 225.536848 
L 302.8132 225.584598 
L 302.059362 225.013405 
L 300.618336 224.548997 
L 299.356334 224.501247 
L 299.710814 225.527798 
L 299.685582 225.937961 
L 299.487554 226.223611 
L 298.774866 226.681843 
L 298.79435 227.059853 
L 299.78614 227.397566 
L 300.118049 227.413748 
L 300.278069 227.280772 
L 300.710962 227.380904 
L 300.862677 227.564133 
L 300.867202 227.928089 
L 300.309743 228.452757 
L 299.204033 230.26961 
L 298.728074 230.667742 
L 297.645042 231.100529 
L 295.875992 232.720632 
L 295.460027 232.814216 
L 294.595606 232.533752 
L 294.277076 232.430404 
L 292.567541 232.158861 
L 292.268892 232.540809 
L 291.99326 232.893321 
L 292.912546 233.848274 
L 294.255037 234.386356 
L 294.598925 234.25471 
L 294.744571 234.013191 
L 294.878666 233.965653 
L 295.409668 233.933021 
L 295.849216 234.153567 
L 295.611209 234.807432 
L 295.568623 235.268379 
L 295.817755 236.351571 
L 295.723798 238.009044 
L 294.846672 239.59923 
L 294.293365 240.825726 
L 293.616503 241.599099 
L 293.310784 241.619222 
L 293.074961 241.378181 
L 292.922607 240.953699 
L 292.482566 240.950048 
L 291.953707 240.94566 
L 291.409609 241.508975 
L 290.016866 241.790473 
L 289.297204 241.597396 
L 288.985364 242.005163 
L 288.781533 242.84098 
L 288.806446 242.928655 
L 289.05281 243.028308 
L 291.227977 243.12285 
L 291.463748 243.076644 
L 292.209068 242.573908 
L 292.555191 242.667758 
L 293.163328 243.100865 
L 293.33804 243.382309 
L 293.394254 243.666362 
L 292.734747 244.384267 
L 291.923471 246.005967 
L 289.68618 248.685733 
L 289.063084 249.663044 
L 287.988729 251.643909 
L 287.959983 252.500273 
L 287.769142 253.81173 
L 288.216834 253.825251 
L 288.562105 253.932729 
L 289.265158 254.399372 
L 288.938412 255.013791 
L 288.462084 255.515306 
L 288.207518 255.783332 
L 288.091789 257.631594 
L 287.773454 258.185433 
L 287.438403 259.188509 
L 287.477423 259.95624 
L 287.213599 260.208193 
L 286.596199 260.216657 
L 286.105068 260.1227 
L 284.782486 261.241665 
L 283.938631 262.291107 
L 283.623969 262.892697 
L 283.700732 263.251329 
L 283.227381 263.923773 
L 282.237826 264.100508 
L 281.553938 264.052651 
L 281.425166 264.517378 
L 281.338077 265.489844 
L 281.472384 266.606253 
L 281.469297 267.317557 
L 280.731696 269.769644 
L 280.446844 270.302776 
L 280.220177 270.463807 
L 279.807991 270.500378 
L 279.689015 270.412543 
L 279.677676 270.244166 
L 279.238638 270.304995 
L 278.798208 270.366017 
L 278.460123 270.645811 
L 278.383201 270.888928 
L 277.84778 271.403375 
L 276.714549 271.992987 
L 276.551389 272.388191 
L 276.907254 272.810119 
L 277.502243 273.003143 
L 277.686856 272.794308 
L 277.980012 272.74049 
L 278.685141 273.024596 
L 279.014123 273.495232 
L 280.103223 273.50146 
L 280.466328 272.571953 
L 280.694326 272.406078 
L 281.085112 272.378077 
L 281.355271 273.43231 
L 281.262432 276.078592 
L 280.015495 279.904311 
L 279.895294 280.18006 
L 279.40049 280.701055 
L 279.038663 281.285503 
L 278.593633 282.321424 
L 278.339497 283.440282 
L 278.28605 284.304152 
L 278.370958 284.927248 
L 278.908348 286.331437 
L 279.187876 286.644822 
L 278.943322 286.664039 
L 278.343862 286.606494 
L 278.105004 286.573968 
L 277.67211 286.453288 
L 277.504053 286.376526 
L 277.07643 285.890133 
L 276.887664 285.773552 
L 276.770285 285.77254 
L 275.829173 285.940971 
L 275.355343 285.978234 
L 275.073153 285.962264 
L 274.707919 285.918453 
L 274.587984 285.945123 
L 274.467996 286.011771 
L 274.401348 286.105089 
L 274.375796 286.207137 
L 274.321392 286.291672 
L 274.208058 286.398298 
L 274.121448 286.444984 
L 274.03473 286.451638 
L 273.941466 286.43833 
L 273.834786 286.418314 
L 273.714851 286.398298 
L 273.594863 286.311688 
L 273.414935 286.258348 
L 272.928382 286.33165 
L 272.68814 286.212461 
L 272.411274 286.010174 
L 272.288837 285.972911 
L 271.591427 285.898437 
L 271.227897 285.806663 
L 270.825559 285.663891 
L 270.676293 285.709352 
L 270.585477 285.813157 
L 270.481619 285.994843 
L 270.384308 286.059734 
L 269.949498 285.988348 
L 269.845693 285.839135 
L 269.781281 285.589684 
L 269.722352 285.501689 
L 269.553655 285.404325 
L 269.31352 285.436798 
L 269.118846 285.586064 
L 268.433679 285.69317 
L 268.271211 285.634879 
L 268.204563 285.580741 
L 268.133763 285.443346 
L 268.112949 285.264269 
L 268.136265 285.020087 
L 268.114971 284.902921 
L 267.98659 284.825101 
L 267.879787 284.760362 
L 267.579977 284.685409 
L 267.450886 284.681257 
L 267.305133 284.731243 
L 267.255147 284.785382 
L 267.199305 284.961531 
L 267.156718 285.020087 
L 267.012988 285.089291 
L 266.155825 284.956261 
L 266.045898 284.881361 
L 266.001821 284.820143 
L 265.948748 284.654587 
L 265.844251 284.584639 
L 264.505432 284.785914 
L 264.122153 284.663424 
L 263.850609 284.519694 
L 263.29118 284.010411 
L 263.272123 283.972562 
L 263.25381 283.846984 
L 263.214152 283.761971 
L 263.168797 283.699635 
L 263.100818 283.65428 
L 263.033744 283.624256 
L 262.836195 283.590879 
L 262.634334 283.525029 
L 262.407347 283.362242 
L 262.192604 283.232193 
L 261.936019 283.22506 
L 261.81486 283.303472 
L 261.700781 283.460298 
L 261.572489 283.524444 
L 261.351571 283.53871 
L 261.166159 283.438898 
L 261.075822 283.244436 
L 260.627651 282.667227 
L 259.888559 282.387699 
L 259.78864 282.370079 
L 258.804622 282.427624 
L 258.093318 282.563316 
L 258.003727 282.524136 
L 257.778656 282.341652 
L 257.441157 282.134522 
L 256.590329 282.22422 
L 256.149876 281.864256 
L 255.838834 281.565723 
L 255.383316 280.989632 
L 255.296919 280.812738 
L 255.147014 280.715321 
L 254.95218 280.685297 
L 254.794769 280.73028 
L 254.719816 280.82775 
L 254.584923 280.932673 
L 254.337548 280.992667 
L 253.617673 280.903394 
L 253.074321 280.7512 
L 253.03232 280.713564 
L 252.87592 280.467946 
L 252.621092 280.378035 
L 252.268741 280.374894 
L 251.737898 280.711595 
L 251.609286 280.880238 
L 251.579263 281.112601 
L 251.595126 281.389149 
L 251.619188 281.814909 
L 251.590176 282.023424 
L 250.987415 282.983753 
L 250.71642 283.09163 
L 250.710335 283.094052 
L 250.592583 283.075314 
L 250.202276 282.90023 
L 250.082501 282.817452 
L 249.86334 282.579925 
L 249.3309 282.278039 
L 249.176949 282.214531 
L 248.687948 282.28267 
L 248.378396 282.477823 
L 248.326121 282.547346 
L 248.316166 282.735206 
L 248.643764 283.124449 
L 248.978282 283.801736 
L 248.921695 283.899313 
L 248.641848 284.220097 
L 248.083803 284.448042 
L 247.857774 284.464385 
L 247.681093 284.447137 
L 247.521233 284.53955 
L 247.485726 284.621263 
L 247.464859 285.163178 
L 247.404066 285.338848 
L 247.264222 285.584094 
L 247.412477 285.826892 
L 247.511278 285.928141 
L 247.595972 286.169714 
L 247.656499 286.811495 
L 247.369784 287.567888 
L 246.910913 288.42553 
L 246.960154 289.528471 
L 247.140774 289.729746 
L 247.34535 289.852981 
L 247.487856 290.179994 
L 247.514632 290.295883 
L 247.469437 290.508177 
L 247.593577 290.714403 
L 247.789582 290.909663 
L 248.078533 291.323499 
L 248.182763 291.777366 
L 248.140336 292.127535 
L 248.16147 292.158038 
L 248.717173 292.353351 
L 248.759493 292.394873 
L 248.95108 292.817066 
L 249.164972 293.709044 
L 249.304123 294.428918 
L 248.892151 295.142511 
L 248.618265 296.148994 
L 248.591276 296.540631 
L 248.691248 296.778584 
L 248.753212 296.842038 
L 248.809426 297.116562 
L 248.749698 298.048731 
L 248.625665 298.23047 
L 248.674906 298.467198 
L 248.691674 298.938793 
L 248.649247 299.135649 
L 248.332243 299.550497 
L 248.240522 300.058023 
L 248.093864 300.609467 
L 247.995276 300.74484 
L 247.668423 301.085214 
L 247.61487 301.295059 
L 247.761049 301.639479 
L 247.785483 301.94243 
L 247.46784 302.372449 
L 247.404332 302.602097 
L 247.360362 302.95876 
L 247.404332 303.300785 
L 247.68615 303.915896 
L 247.635365 304.309982 
L 247.426637 304.721263 
L 247.044848 305.0882 
L 246.936861 305.134767 
L 246.93029 305.137601 
L 246.39982 305.2446 
L 245.94739 305.305498 
L 245.278034 305.325621 
L 244.555072 305.220485 
L 244.176476 304.978007 
L 244.196812 304.913062 
L 244.139107 304.845563 
L 244.01486 304.819159 
L 243.399962 304.871594 
L 241.968092 305.081439 
L 241.178748 305.266691 
L 240.984553 305.376458 
L 240.801696 305.366664 
L 240.542876 305.319073 
L 240.465475 305.269034 
L 240.012459 304.802923 
L 239.811237 304.532071 
L 239.489176 304.413574 
L 239.324525 304.262338 
L 238.727726 303.061873 
L 238.40082 301.823613 
L 238.423231 301.385556 
L 238.603373 301.158622 
L 238.737042 300.763312 
L 238.6919 300.372952 
L 238.627115 300.177745 
L 238.548223 300.1021 
L 238.538322 299.911738 
L 238.703026 299.466441 
L 238.898711 299.169932 
L 238.873266 298.598898 
L 238.605556 298.241542 
L 238.26449 297.875616 
L 237.963082 297.58624 
L 237.616374 297.392311 
L 237.514858 297.261836 
L 237.331522 296.886062 
L 237.383584 296.700597 
L 237.31156 296.384657 
L 237.08798 296.048862 
L 237.041773 295.829487 
L 237.053325 295.419644 
L 237.249596 294.813582 
L 237.49777 294.559606 
L 237.722894 294.444143 
L 237.959569 294.380636 
L 238.18283 294.244624 
L 238.159771 294.161634 
L 238.158662 294.157641 
L 236.295336 294.036695 
L 235.855682 293.999645 
L 234.298926 293.898555 
L 229.640797 293.603376 
L 227.296455 293.457574 
L 225.131721 293.322943 
L 225.120467 293.322268 
L 221.652551 293.114428 
L 221.049204 293.077377 
L 220.579526 293.052038 
L 220.148124 293.021536 
L 219.492449 292.984911 
L 219.292185 292.966652 
L 218.50837 292.92255 
L 212.902163 292.607114 
L 212.890396 292.606468 
L 212.404591 292.579805 
L 212.389473 292.577729 
L 202.894563 292.005311 
L 202.813649 292.002224 
L 189.36691 291.230287 
L 189.090999 291.208916 
L 188.04667 291.128026 
L 187.666638 291.107212 
L 187.075588 291.077987 
L 186.384619 291.036518 
L 181.865591 290.770194 
L 179.900669 290.654394 
L 179.88648 290.653557 
L 179.769793 290.64504 
L 178.206596 290.55087 
L 177.321657 290.497153 
L 176.159775 290.426624 
L 175.595342 290.391862 
L 173.497097 290.275494 
L 173.491401 290.276719 
L 172.935752 290.248665 
L 172.463359 290.228063 
L 169.749364 290.05447 
L 163.799504 289.757336 
L 163.798145 289.757268 
L 160.476758 289.571377 
L 160.332229 289.562966 
L 156.772214 289.377338 
L 153.211313 289.191664 
L 152.660295 289.152697 
L 150.832742 289.056877 
L 149.536252 288.983251 
L 149.501642 288.981286 
L 149.496479 288.982617 
L 142.733291 288.647858 
L 142.731694 288.647779 
L 141.011299 288.556111 
L 140.89935 288.55297 
L 140.644096 288.535829 
L 140.078598 288.508946 
L 138.671425 288.450037 
L 137.391752 288.396464 
L 136.476299 288.331094 
L 129.821654 288.006424 
L 128.154865 287.947282 
L 128.088288 287.944057 
L 123.166956 287.705709 
L 122.86384 287.696576 
L 117.869867 287.546115 
L 114.642011 287.347555 
L 114.411617 287.33414 
L 110.851319 287.169276 
L 110.844026 287.169649 
L 108.798216 287.056422 
L 98.603182 286.592387 
L 97.165206 286.549469 
L 97.099607 286.547511 
L 96.823645 285.996812 
L 96.521865 285.699025 
L 96.074652 285.427482 
L 96.000125 285.299722 
L 95.877636 284.937735 
L 95.419829 284.469282 
L 95.339979 284.426695 
L 95.201572 284.400079 
L 95.047196 284.405402 
L 94.876849 284.469282 
L 94.621276 284.437342 
L 94.493516 284.378785 
L 94.450929 284.309582 
L 94.413666 283.904956 
L 94.142123 283.649489 
L 94.253913 283.324766 
L 94.285853 283.122479 
L 94.253913 283.005366 
L 93.790783 282.361189 
L 93.705609 282.206812 
L 93.668346 281.983232 
L 93.726903 281.690449 
L 93.705556 281.568012 
L 93.567149 281.280606 
L 93.328132 280.922825 
L 93.294648 280.738531 
L 93.319774 280.529217 
L 93.336489 280.194326 
L 93.395099 280.026908 
L 93.512319 279.84272 
L 93.646307 279.691964 
L 93.704917 279.574797 
L 93.704917 279.482597 
L 93.679791 279.348662 
L 93.612824 279.2398 
L 93.44466 279.097986 
L 93.336489 278.946803 
L 93.328132 278.729079 
L 93.369973 278.611859 
L 93.40351 278.469567 
L 93.369973 278.352347 
L 93.311363 278.243485 
L 93.202554 278.084424 
L 93.169071 277.950382 
L 93.210912 277.799678 
L 93.319774 277.648975 
L 93.328132 277.448072 
L 93.252807 277.330853 
L 93.185786 277.2806 
L 93.085335 277.22199 
L 93.013416 277.170886 
L 92.949536 277.1283 
L 92.571527 276.654576 
L 92.427797 276.39368 
L 92.22551 276.111543 
L 91.661183 275.59518 
L 91.517453 275.344983 
L 91.432227 275.014937 
L 91.208647 274.876477 
L 90.921134 274.775333 
L 90.78805 274.663597 
L 90.761434 274.546483 
L 90.793374 274.248377 
L 90.83596 274.019473 
L 90.974367 273.604253 
L 90.974367 273.375297 
L 90.94775 273.25286 
L 90.81999 273.023957 
L 90.697554 272.922814 
L 90.527207 272.85361 
L 90.016061 272.72585 
L 89.898947 272.70988 
L 89.893624 272.72585 
L 89.675474 272.604372 
L 89.618035 272.538575 
L 89.574064 272.414222 
L 89.573905 272.267086 
L 89.754579 271.889395 
L 89.798496 271.347746 
L 89.795621 271.15568 
L 89.763735 271.155627 
L 89.817074 270.923423 
L 89.290331 268.3415 
L 88.641726 267.172639 
L 88.480599 266.882268 
L 88.00086 265.432512 
L 87.082478 264.831135 
L 85.817601 262.838186 
L 84.924506 262.550779 
L 84.17333 261.266525 
L 84.585676 260.026188 
L 84.63497 258.813906 
L 83.798994 256.483457 
L 85.117796 255.486716 
L 85.168058 254.761585 
L 85.283724 253.092867 
L 84.973374 251.874569 
L 85.76687 249.998946 
L 85.63927 249.341142 
L 86.383099 248.229044 
L 86.084141 246.258293 
L 87.47163 243.66168 
L 87.50201 243.604825 
L 87.6673 242.19659 
L 86.811361 240.804219 
L 86.587941 238.032466 
L 85.492825 236.602726 
L 83.214385 234.196633 
L 83.565725 232.189789 
L 83.046238 230.528145 
L 82.7721 229.65128 
L 82.628765 229.192806 
L 82.910902 227.792823 
L 82.346629 226.515276 
L 82.984843 224.159595 
L 83.512439 223.64073 
L 85.524712 220.904643 
L 85.886698 219.882563 
L 86.532651 218.392084 
L 87.032013 217.239848 
L 87.270097 214.634504 
L 87.391445 213.306597 
L 86.76936 210.717914 
L 89.296985 208.350362 
L 91.934111 207.383804 
L 91.779734 207.122961 
L 90.997151 206.925944 
L 91.630681 206.281821 
L 93.887827 206.132821 
L 94.079335 205.669719 
L 94.473394 204.716814 
L 95.782721 204.014614 
L 93.420811 202.081232 
L 92.219929 201.662174 
L 89.797006 200.816675 
L 89.465788 200.036168 
L 90.776925 198.625005 
L 90.859543 197.719666 
L 90.900295 197.630065 
L 91.116766 197.154115 
L 91.218602 195.870234 
L 91.843508 195.465181 
L 91.396294 194.384598 
L 90.145311 193.830972 
L 90.150635 192.659892 
L 90.122973 192.546566 
L 89.753774 191.033996 
L 89.745684 191.000853 
L 89.697669 190.804139 
L 89.518808 190.071368 
L 88.698536 189.057007 
L 88.061881 188.534094 
L 86.294838 187.082742 
L 85.65497 185.587601 
L 85.119446 184.336275 
L 84.289326 183.631892 
L 85.183859 182.933311 
L 84.917532 182.306435 
L 83.788932 181.460025 
L 83.363013 179.858075 
L 83.814857 179.07448 
L 83.585954 178.522451 
L 82.971241 177.940516 
L 82.503773 177.497975 
L 83.392238 176.790451 
L 82.799591 176.32599 
L 80.956813 174.753797 
L 81.725609 173.094568 
L 80.080539 172.107835 
L 80.079731 172.102631 
L 80.006557 171.631373 
L 79.845727 170.595582 
L 79.110817 166.91646 
L 78.858493 165.653271 
L 78.082586 161.768911 
L 78.008432 161.394042 
L 77.523157 158.972085 
L 77.303414 157.828942 
L 74.248691 141.937706 
L 73.687802 139.019862 
L 73.178945 136.521994 
L 73.174047 136.500115 
L 73.125978 136.19775 
L 72.722893 134.161343 
L 72.657673 133.831852 
L 71.890855 129.957845 
L 70.868885 124.794799 
L 70.704447 123.844371 
L 70.632422 123.525343 
L 69.857623 119.442416 
L 69.8031 119.1551 
L 69.32155 116.723798 
L 68.663534 113.401536 
L 68.286642 111.48668 
L 68.242459 111.368821 
L 67.524767 107.644404 
L 67.438556 107.189834 
L 67.099539 105.40227 
L 67.033104 104.832727 
L 65.671236 98.146993 
L 65.65452 98.031743 
L 65.510844 97.345991 
L 65.477733 97.148975 
L 65.297359 96.246692 
L 64.851975 94.018749 
L 64.662231 93.150963 
L 64.099498 90.577328 
L 63.155908 86.261854 
L 63.148562 86.231352 
L 62.832941 84.810767 
L 62.6347 83.903671 
L 62.549474 83.588636 
L 62.549233 83.587521 
L 62.537762 83.534232 
L 62.370397 82.607653 
L 61.828215 80.154395 
L 61.464793 78.282036 
L 61.452122 78.216755 
L 61.082895 76.53357 
L 61.082736 76.529205 
L 60.487321 73.795408 
L 60.48583 73.785666 
L 60.010297 71.562749 
L 58.853803 65.691539 
L 58.214151 62.295252 
L 58.212661 62.286735 
L 58.021607 61.19098 
L 57.989454 60.826279 
L 57.681818 59.074263 
" clip-path="url(#p090ed795b7)" style="fill: #0000b8"/>
   </g>
   <g id="PathCollection_1">
    <defs>
     <path id="m104384fe19" d="M 0 1.581139 
C 0.419323 1.581139 0.821528 1.41454 1.118034 1.118034 
C 1.41454 0.821528 1.581139 0.419323 1.581139 0 
C 1.581139 -0.419323 1.41454 -0.821528 1.118034 -1.118034 
C 0.821528 -1.41454 0.419323 -1.581139 0 -1.581139 
C -0.419323 -1.581139 -0.821528 -1.41454 -1.118034 -1.118034 
C -1.41454 -0.821528 -1.581139 -0.419323 -1.581139 0 
C -1.581139 0.419323 -1.41454 0.821528 -1.118034 1.118034 
C -0.821528 1.41454 -0.419323 1.581139 0 1.581139 
z
" style="stroke: #000000"/>
    </defs>
    <g clip-path="url(#p090ed795b7)">
     <use xlink:href="#m104384fe19" x="122.463371" y="124.852078" style="stroke: #000000"/>
    </g>
   </g>
   <g id="text_1">
    <!-- Atlanta&lt;br&gt; -->
    <g transform="translate(125.463371 121.852078) scale(0.1 -0.1)">
     <defs>
      <path id="DejaVuSans-41" d="M 2188 4044 
L 1331 1722 
L 3047 1722 
L 2188 4044 
z
M 1831 4666 
L 2547 4666 
L 4325 0 
L 3669 0 
L 3244 1197 
L 1141 1197 
L 716 0 
L 50 0 
L 1831 4666 
z
" transform="scale(0.015625)"/>
      <path id="DejaVuSans-74" d="M 1172 4494 
L 1172 3500 
L 2356 3500 
L 2356 3053 
L 1172 3053 
L 1172 1153 
Q 1172 725 1289 603 
Q 1406 481 1766 481 
L 2356 481 
L 2356 0 
L 1766 0 
Q 1100 0 847 248 
Q 594 497 594 1153 
L 594 3053 
L 172 3053 
L 172 3500 
L 594 3500 
L 594 4494 
L 1172 4494 
z
" transform="scale(0.015625)"/>
      <path id="DejaVuSans-6c" d="M 603 4863 
L 1178 4863 
L 1178 0 
L 603 0 
L 603 4863 
z
" transform="scale(0.015625)"/>
      <path id="DejaVuSans-61" d="M 2194 1759 
Q 1497 1759 1228 1600 
Q 959 1441 959 1056 
Q 959 750 1161 570 
Q 1363 391 1709 391 
Q 2188 391 2477 730 
Q 2766 1069 2766 1631 
L 2766 1759 
L 2194 1759 
z
M 3341 1997 
L 3341 0 
L 2766 0 
L 2766 531 
Q 2569 213 2275 61 
Q 1981 -91 1556 -91 
Q 1019 -91 701 211 
Q 384 513 384 1019 
Q 384 1609 779 1909 
Q 1175 2209 1959 2209 
L 2766 2209 
L 2766 2266 
Q 2766 2663 2505 2880 
Q 2244 3097 1772 3097 
Q 1472 3097 1187 3025 
Q 903 2953 641 2809 
L 641 3341 
Q 956 3463 1253 3523 
Q 1550 3584 1831 3584 
Q 2591 3584 2966 3190 
Q 3341 2797 3341 1997 
z
" transform="scale(0.015625)"/>
      <path id="DejaVuSans-6e" d="M 3513 2113 
L 3513 0 
L 2938 0 
L 2938 2094 
Q 2938 2591 2744 2837 
Q 2550 3084 2163 3084 
Q 1697 3084 1428 2787 
Q 1159 2491 1159 1978 
L 1159 0 
L 581 0 
L 581 3500 
L 1159 3500 
L 1159 2956 
Q 1366 3272 1645 3428 
Q 1925 3584 2291 3584 
Q 2894 3584 3203 3211 
Q 3513 2838 3513 2113 
z
" transform="scale(0.015625)"/>
      <path id="DejaVuSans-3c" d="M 4684 3150 
L 1459 2003 
L 4684 863 
L 4684 294 
L 678 1747 
L 678 2266 
L 4684 3719 
L 4684 3150 
z
" transform="scale(0.015625)"/>
      <path id="DejaVuSans-62" d="M 3116 1747 
Q 3116 2381 2855 2742 
Q 2594 3103 2138 3103 
Q 1681 3103 1420 2742 
Q 1159 2381 1159 1747 
Q 1159 1113 1420 752 
Q 1681 391 2138 391 
Q 2594 391 2855 752 
Q 3116 1113 3116 1747 
z
M 1159 2969 
Q 1341 3281 1617 3432 
Q 1894 3584 2278 3584 
Q 2916 3584 3314 3078 
Q 3713 2572 3713 1747 
Q 3713 922 3314 415 
Q 2916 -91 2278 -91 
Q 1894 -91 1617 61 
Q 1341 213 1159 525 
L 1159 0 
L 581 0 
L 581 4863 
L 1159 4863 
L 1159 2969 
z
" transform="scale(0.015625)"/>
      <path id="DejaVuSans-72" d="M 2631 2963 
Q 2534 3019 2420 3045 
Q 2306 3072 2169 3072 
Q 1681 3072 1420 2755 
Q 1159 2438 1159 1844 
L 1159 0 
L 581 0 
L 581 3500 
L 1159 3500 
L 1159 2956 
Q 1341 3275 1631 3429 
Q 1922 3584 2338 3584 
Q 2397 3584 2469 3576 
Q 2541 3569 2628 3553 
L 2631 2963 
z
" transform="scale(0.015625)"/>
      <path id="DejaVuSans-3e" d="M 678 3150 
L 678 3719 
L 4684 2266 
L 4684 1747 
L 678 294 
L 678 863 
L 3897 2003 
L 678 3150 
z
" transform="scale(0.015625)"/>
     </defs>
     <use xlink:href="#DejaVuSans-41"/>
     <use xlink:href="#DejaVuSans-74" x="66.658203"/>
     <use xlink:href="#DejaVuSans-6c" x="105.867188"/>
     <use xlink:href="#DejaVuSans-61" x="133.650391"/>
     <use xlink:href="#DejaVuSans-6e" x="194.929688"/>
     <use xlink:href="#DejaVuSans-74" x="258.308594"/>
     <use xlink:href="#DejaVuSans-61" x="297.517578"/>
     <use xlink:href="#DejaVuSans-3c" x="358.796875"/>
     <use xlink:href="#DejaVuSans-62" x="442.585938"/>
     <use xlink:href="#DejaVuSans-72" x="506.0625"/>
     <use xlink:href="#DejaVuSans-3e" x="547.175781"/>
    </g>
   </g>
   <g id="text_2">
    <!-- Georgia -->
    <g transform="translate(160.973437 39.865896) scale(0.12 -0.12)">
     <defs>
      <path id="DejaVuSans-47" d="M 3809 666 
L 3809 1919 
L 2778 1919 
L 2778 2438 
L 4434 2438 
L 4434 434 
Q 4069 175 3628 42 
Q 3188 -91 2688 -91 
Q 1594 -91 976 548 
Q 359 1188 359 2328 
Q 359 3472 976 4111 
Q 1594 4750 2688 4750 
Q 3144 4750 3555 4637 
Q 3966 4525 4313 4306 
L 4313 3634 
Q 3963 3931 3569 4081 
Q 3175 4231 2741 4231 
Q 1884 4231 1454 3753 
Q 1025 3275 1025 2328 
Q 1025 1384 1454 906 
Q 1884 428 2741 428 
Q 3075 428 3337 486 
Q 3600 544 3809 666 
z
" transform="scale(0.015625)"/>
      <path id="DejaVuSans-65" d="M 3597 1894 
L 3597 1613 
L 953 1613 
Q 991 1019 1311 708 
Q 1631 397 2203 397 
Q 2534 397 2845 478 
Q 3156 559 3463 722 
L 3463 178 
Q 3153 47 2828 -22 
Q 2503 -91 2169 -91 
Q 1331 -91 842 396 
Q 353 884 353 1716 
Q 353 2575 817 3079 
Q 1281 3584 2069 3584 
Q 2775 3584 3186 3129 
Q 3597 2675 3597 1894 
z
M 3022 2063 
Q 3016 2534 2758 2815 
Q 2500 3097 2075 3097 
Q 1594 3097 1305 2825 
Q 1016 2553 972 2059 
L 3022 2063 
z
" transform="scale(0.015625)"/>
      <path id="DejaVuSans-6f" d="M 1959 3097 
Q 1497 3097 1228 2736 
Q 959 2375 959 1747 
Q 959 1119 1226 758 
Q 1494 397 1959 397 
Q 2419 397 2687 759 
Q 2956 1122 2956 1747 
Q 2956 2369 2687 2733 
Q 2419 3097 1959 3097 
z
M 1959 3584 
Q 2709 3584 3137 3096 
Q 3566 2609 3566 1747 
Q 3566 888 3137 398 
Q 2709 -91 1959 -91 
Q 1206 -91 779 398 
Q 353 888 353 1747 
Q 353 2609 779 3096 
Q 1206 3584 1959 3584 
z
" transform="scale(0.015625)"/>
      <path id="DejaVuSans-67" d="M 2906 1791 
Q 2906 2416 2648 2759 
Q 2391 3103 1925 3103 
Q 1463 3103 1205 2759 
Q 947 2416 947 1791 
Q 947 1169 1205 825 
Q 1463 481 1925 481 
Q 2391 481 2648 825 
Q 2906 1169 2906 1791 
z
M 3481 434 
Q 3481 -459 3084 -895 
Q 2688 -1331 1869 -1331 
Q 1566 -1331 1297 -1286 
Q 1028 -1241 775 -1147 
L 775 -588 
Q 1028 -725 1275 -790 
Q 1522 -856 1778 -856 
Q 2344 -856 2625 -561 
Q 2906 -266 2906 331 
L 2906 616 
Q 2728 306 2450 153 
Q 2172 0 1784 0 
Q 1141 0 747 490 
Q 353 981 353 1791 
Q 353 2603 747 3093 
Q 1141 3584 1784 3584 
Q 2172 3584 2450 3431 
Q 2728 3278 2906 2969 
L 2906 3500 
L 3481 3500 
L 3481 434 
z
" transform="scale(0.015625)"/>
      <path id="DejaVuSans-69" d="M 603 3500 
L 1178 3500 
L 1178 0 
L 603 0 
L 603 3500 
z
M 603 4863 
L 1178 4863 
L 1178 4134 
L 603 4134 
L 603 4863 
z
" transform="scale(0.015625)"/>
     </defs>
     <use xlink:href="#DejaVuSans-47"/>
     <use xlink:href="#DejaVuSans-65" x="77.490234"/>
     <use xlink:href="#DejaVuSans-6f" x="139.013672"/>
     <use xlink:href="#DejaVuSans-72" x="200.195312"/>
     <use xlink:href="#DejaVuSans-67" x="239.558594"/>
     <use xlink:href="#DejaVuSans-69" x="303.035156"/>
     <use xlink:href="#DejaVuSans-61" x="330.818359"/>
    </g>
   </g>
  </g>
 </g>
 <defs>
  <clipPath id="p090ed795b7">
   <rect x="45" y="45.865896" width="279" height="271.868209"/>
  </clipPath>
 </defs>
</svg>
