<?xml version="1.0" encoding="utf-8" standalone="no"?>
<!DOCTYPE svg PUBLIC "-//W3C//DTD SVG 1.1//EN"
  "http://www.w3.org/Graphics/SVG/1.1/DTD/svg11.dtd">
<svg xmlns:xlink="http://www.w3.org/1999/xlink" width="460.8pt" height="345.6pt" viewBox="0 0 460.8 345.6" xmlns="http://www.w3.org/2000/svg" version="1.1">
 <metadata>
  <rdf:RDF xmlns:dc="http://purl.org/dc/elements/1.1/" xmlns:cc="http://creativecommons.org/ns#" xmlns:rdf="http://www.w3.org/1999/02/22-rdf-syntax-ns#">
   <cc:Work>
    <dc:type rdf:resource="http://purl.org/dc/dcmitype/StillImage"/>
    <dc:date>2023-06-19T14:47:52.697288</dc:date>
    <dc:format>image/svg+xml</dc:format>
    <dc:creator>
     <cc:Agent>
      <dc:title>Matplotlib v3.7.1, https://matplotlib.org/</dc:title>
     </cc:Agent>
    </dc:creator>
   </cc:Work>
  </rdf:RDF>
 </metadata>
 <defs>
  <style type="text/css">*{stroke-linejoin: round; stroke-linecap: butt}</style>
 </defs>
 <g id="figure_1">
  <g id="patch_1">
   <path d="M 0 345.6 
L 460.8 345.6 
L 460.8 0 
L 0 0 
z
" style="fill: #ffffff"/>
  </g>
  <g id="axes_1">
   <g id="PatchCollection_1">
    <path d="M 154.845479 288.96514 
L 158.828524 286.790853 
L 163.173664 286.065709 
L 166.794614 291.501998 
L 160.276904 295.488 
L 152.31137 295.126 
L 154.845479 288.96514 
" clip-path="url(#p25319e26d7)" style="fill: #33a1ff"/>
    <path d="M 145.431565 164.719691 
L 152.628412 161.495433 
L 167.153927 161.109414 
L 179.308305 159.627101 
L 201.284301 153.739028 
L 213.92314 151.678545 
L 220.925312 153.860266 
L 225.499056 152.175508 
L 228.512064 147.726284 
L 225.884512 144.12916 
L 226.055825 139.992182 
L 228.255094 137.705235 
L 233.195938 136.600364 
L 241.386182 138.65284 
L 244.73125 129.26429 
L 243.724504 120.893686 
L 254.563436 101.736287 
L 262.926106 86.520855 
L 262.849349 71.348313 
L 268.43707 63.12411 
L 274.016447 54.137592 
L 278.937268 53.568 
L 287.930128 59.676819 
L 293.614074 67.38919 
L 301.131856 75.67973 
L 301.970626 80.721994 
L 313.15163 83.951971 
L 328.197761 83.878198 
L 330.823645 86.173152 
L 326.219866 96.204494 
L 320.068701 111.819671 
L 311.774445 129.774979 
L 293.32818 141.680943 
L 271.016232 162.027853 
L 256.431201 174.237485 
L 246.256944 183.075887 
L 235.994805 189.719413 
L 229.158384 204.824473 
L 227.173815 230.309722 
L 227.18772 252.048015 
L 224.477848 259.433842 
L 217.882824 269.064868 
L 210.32722 276.185915 
L 200.161306 286.54952 
L 188.538668 286.082866 
L 173.707235 281.01258 
L 165.72724 272.079246 
L 159.914809 248.020266 
L 151.010943 232.075687 
L 150.946422 222.202183 
L 161.474988 208.584582 
L 166.384128 197.945332 
L 163.781605 191.555147 
L 157.289481 191.401884 
L 153.453276 186.526037 
L 145.926595 177.415993 
L 141.496355 172.371441 
L 145.431565 164.719691 
" clip-path="url(#p25319e26d7)" style="fill: #33a1ff"/>
   </g>
   <g id="text_1">
    <!-- GU -->
    <g transform="translate(227.119688 35.472) scale(0.12 -0.12)">
     <defs>
      <path id="DejaVuSans-47" d="M 3809 666 
L 3809 1919 
L 2778 1919 
L 2778 2438 
L 4434 2438 
L 4434 434 
Q 4069 175 3628 42 
Q 3188 -91 2688 -91 
Q 1594 -91 976 548 
Q 359 1188 359 2328 
Q 359 3472 976 4111 
Q 1594 4750 2688 4750 
Q 3144 4750 3555 4637 
Q 3966 4525 4313 4306 
L 4313 3634 
Q 3963 3931 3569 4081 
Q 3175 4231 2741 4231 
Q 1884 4231 1454 3753 
Q 1025 3275 1025 2328 
Q 1025 1384 1454 906 
Q 1884 428 2741 428 
Q 3075 428 3337 486 
Q 3600 544 3809 666 
z
" transform="scale(0.015625)"/>
      <path id="DejaVuSans-55" d="M 556 4666 
L 1191 4666 
L 1191 1831 
Q 1191 1081 1462 751 
Q 1734 422 2344 422 
Q 2950 422 3222 751 
Q 3494 1081 3494 1831 
L 3494 4666 
L 4128 4666 
L 4128 1753 
Q 4128 841 3676 375 
Q 3225 -91 2344 -91 
Q 1459 -91 1007 375 
Q 556 841 556 1753 
L 556 4666 
z
" transform="scale(0.015625)"/>
     </defs>
     <use xlink:href="#DejaVuSans-47"/>
     <use xlink:href="#DejaVuSans-55" x="77.490234"/>
    </g>
   </g>
  </g>
 </g>
 <defs>
  <clipPath id="p25319e26d7">
   <rect x="132.02999" y="41.472" width="208.26002" height="266.112"/>
  </clipPath>
 </defs>
</svg>
