<?xml version="1.0" encoding="utf-8" standalone="no"?>
<!DOCTYPE svg PUBLIC "-//W3C//DTD SVG 1.1//EN"
  "http://www.w3.org/Graphics/SVG/1.1/DTD/svg11.dtd">
<svg xmlns:xlink="http://www.w3.org/1999/xlink" width="360pt" height="360pt" viewBox="0 0 360 360" xmlns="http://www.w3.org/2000/svg" version="1.1">
 <metadata>
  <rdf:RDF xmlns:dc="http://purl.org/dc/elements/1.1/" xmlns:cc="http://creativecommons.org/ns#" xmlns:rdf="http://www.w3.org/1999/02/22-rdf-syntax-ns#">
   <cc:Work>
    <dc:type rdf:resource="http://purl.org/dc/dcmitype/StillImage"/>
    <dc:date>2023-06-19T15:20:28.869312</dc:date>
    <dc:format>image/svg+xml</dc:format>
    <dc:creator>
     <cc:Agent>
      <dc:title>Matplotlib v3.7.1, https://matplotlib.org/</dc:title>
     </cc:Agent>
    </dc:creator>
   </cc:Work>
  </rdf:RDF>
 </metadata>
 <defs>
  <style type="text/css">*{stroke-linejoin: round; stroke-linecap: butt}</style>
 </defs>
 <g id="figure_1">
  <g id="patch_1">
   <path d="M 0 360 
L 360 360 
L 360 0 
L 0 0 
z
" style="fill: #ffffff"/>
  </g>
  <g id="axes_1">
   <g id="PatchCollection_1">
    <path d="M 97.411651 301.005354 
L 101.677516 298.740472 
L 106.331188 297.985114 
L 110.209247 303.647915 
L 103.22874 307.8 
L 94.697605 307.422917 
L 97.411651 301.005354 
" clip-path="url(#p59533fd88d)" style="fill: #fc0000"/>
    <path d="M 87.329292 171.583011 
L 95.037158 168.224409 
L 110.594075 167.822306 
L 123.611487 166.278231 
L 147.147913 160.14482 
L 160.684187 157.998484 
L 168.183556 160.271111 
L 173.082064 158.516155 
L 176.309014 153.881546 
L 173.494889 150.134542 
L 173.678367 145.82519 
L 176.033797 143.442953 
L 181.325472 142.292045 
L 190.097273 144.430042 
L 193.679861 134.650302 
L 192.60163 125.930923 
L 204.210193 105.975299 
L 213.166664 90.12589 
L 213.084456 74.321159 
L 219.068939 65.754282 
L 225.044487 56.393325 
L 230.314716 55.8 
L 239.946124 62.163354 
L 246.033665 70.197073 
L 254.085255 78.833052 
L 254.983583 84.08541 
L 266.958506 87.44997 
L 283.073005 87.373123 
L 285.885343 89.7637 
L 280.954667 100.213015 
L 274.366732 116.478824 
L 265.483533 135.18227 
L 245.727471 147.584316 
L 221.831237 168.779013 
L 206.21058 181.49738 
L 195.313889 190.704048 
L 184.323075 197.624389 
L 177.001227 213.358826 
L 174.87574 239.90596 
L 174.890633 262.550015 
L 171.988344 270.243585 
L 164.925033 280.275905 
L 156.832935 287.693661 
L 145.945178 298.489083 
L 133.497263 298.002985 
L 117.612707 292.721437 
L 109.066083 283.415882 
L 102.840934 258.354443 
L 93.304839 241.745507 
L 93.235737 231.460607 
L 104.511895 217.275607 
L 109.769615 206.193054 
L 106.982297 199.536612 
L 100.029192 199.376962 
L 95.920594 194.297955 
L 87.859472 184.808326 
L 83.114657 179.553585 
L 87.329292 171.583011 
" clip-path="url(#p59533fd88d)" style="fill: #fc0000"/>
   </g>
   <g id="text_1">
    <!-- Guam -->
    <g transform="translate(166.527187 37.2) scale(0.12 -0.12)">
     <defs>
      <path id="DejaVuSans-47" d="M 3809 666 
L 3809 1919 
L 2778 1919 
L 2778 2438 
L 4434 2438 
L 4434 434 
Q 4069 175 3628 42 
Q 3188 -91 2688 -91 
Q 1594 -91 976 548 
Q 359 1188 359 2328 
Q 359 3472 976 4111 
Q 1594 4750 2688 4750 
Q 3144 4750 3555 4637 
Q 3966 4525 4313 4306 
L 4313 3634 
Q 3963 3931 3569 4081 
Q 3175 4231 2741 4231 
Q 1884 4231 1454 3753 
Q 1025 3275 1025 2328 
Q 1025 1384 1454 906 
Q 1884 428 2741 428 
Q 3075 428 3337 486 
Q 3600 544 3809 666 
z
" transform="scale(0.015625)"/>
      <path id="DejaVuSans-75" d="M 544 1381 
L 544 3500 
L 1119 3500 
L 1119 1403 
Q 1119 906 1312 657 
Q 1506 409 1894 409 
Q 2359 409 2629 706 
Q 2900 1003 2900 1516 
L 2900 3500 
L 3475 3500 
L 3475 0 
L 2900 0 
L 2900 538 
Q 2691 219 2414 64 
Q 2138 -91 1772 -91 
Q 1169 -91 856 284 
Q 544 659 544 1381 
z
M 1991 3584 
L 1991 3584 
z
" transform="scale(0.015625)"/>
      <path id="DejaVuSans-61" d="M 2194 1759 
Q 1497 1759 1228 1600 
Q 959 1441 959 1056 
Q 959 750 1161 570 
Q 1363 391 1709 391 
Q 2188 391 2477 730 
Q 2766 1069 2766 1631 
L 2766 1759 
L 2194 1759 
z
M 3341 1997 
L 3341 0 
L 2766 0 
L 2766 531 
Q 2569 213 2275 61 
Q 1981 -91 1556 -91 
Q 1019 -91 701 211 
Q 384 513 384 1019 
Q 384 1609 779 1909 
Q 1175 2209 1959 2209 
L 2766 2209 
L 2766 2266 
Q 2766 2663 2505 2880 
Q 2244 3097 1772 3097 
Q 1472 3097 1187 3025 
Q 903 2953 641 2809 
L 641 3341 
Q 956 3463 1253 3523 
Q 1550 3584 1831 3584 
Q 2591 3584 2966 3190 
Q 3341 2797 3341 1997 
z
" transform="scale(0.015625)"/>
      <path id="DejaVuSans-6d" d="M 3328 2828 
Q 3544 3216 3844 3400 
Q 4144 3584 4550 3584 
Q 5097 3584 5394 3201 
Q 5691 2819 5691 2113 
L 5691 0 
L 5113 0 
L 5113 2094 
Q 5113 2597 4934 2840 
Q 4756 3084 4391 3084 
Q 3944 3084 3684 2787 
Q 3425 2491 3425 1978 
L 3425 0 
L 2847 0 
L 2847 2094 
Q 2847 2600 2669 2842 
Q 2491 3084 2119 3084 
Q 1678 3084 1418 2786 
Q 1159 2488 1159 1978 
L 1159 0 
L 581 0 
L 581 3500 
L 1159 3500 
L 1159 2956 
Q 1356 3278 1631 3431 
Q 1906 3584 2284 3584 
Q 2666 3584 2933 3390 
Q 3200 3197 3328 2828 
z
" transform="scale(0.015625)"/>
     </defs>
     <use xlink:href="#DejaVuSans-47"/>
     <use xlink:href="#DejaVuSans-75" x="77.490234"/>
     <use xlink:href="#DejaVuSans-61" x="140.869141"/>
     <use xlink:href="#DejaVuSans-6d" x="202.148438"/>
    </g>
   </g>
  </g>
 </g>
 <defs>
  <clipPath id="p59533fd88d">
   <rect x="72.976123" y="43.2" width="223.047754" height="277.2"/>
  </clipPath>
 </defs>
</svg>
