<?xml version="1.0" encoding="utf-8" standalone="no"?>
<!DOCTYPE svg PUBLIC "-//W3C//DTD SVG 1.1//EN"
  "http://www.w3.org/Graphics/SVG/1.1/DTD/svg11.dtd">
<svg xmlns:xlink="http://www.w3.org/1999/xlink" width="360pt" height="360pt" viewBox="0 0 360 360" xmlns="http://www.w3.org/2000/svg" version="1.1">
 <metadata>
  <rdf:RDF xmlns:dc="http://purl.org/dc/elements/1.1/" xmlns:cc="http://creativecommons.org/ns#" xmlns:rdf="http://www.w3.org/1999/02/22-rdf-syntax-ns#">
   <cc:Work>
    <dc:type rdf:resource="http://purl.org/dc/dcmitype/StillImage"/>
    <dc:date>2023-06-19T15:20:27.524699</dc:date>
    <dc:format>image/svg+xml</dc:format>
    <dc:creator>
     <cc:Agent>
      <dc:title>Matplotlib v3.7.1, https://matplotlib.org/</dc:title>
     </cc:Agent>
    </dc:creator>
   </cc:Work>
  </rdf:RDF>
 </metadata>
 <defs>
  <style type="text/css">*{stroke-linejoin: round; stroke-linecap: butt}</style>
 </defs>
 <g id="figure_1">
  <g id="patch_1">
   <path d="M 0 360 
L 360 360 
L 360 0 
L 0 0 
z
" style="fill: #ffffff"/>
  </g>
  <g id="axes_1">
   <g id="PatchCollection_1">
    <path d="M 253.1409 220.613038 
L 253.369582 219.946338 
L 253.493784 218.845305 
L 254.795434 217.831362 
L 255.516448 217.11431 
L 255.624837 216.984541 
L 256.609556 215.805574 
L 256.897216 215.578104 
L 257.448945 215.36117 
L 258.174668 215.274872 
L 258.317389 215.40449 
L 258.359013 215.442293 
L 258.591472 215.495349 
L 259.266004 215.186569 
L 259.242917 214.948459 
L 259.214953 214.660063 
L 259.282462 214.437255 
L 259.740667 213.871912 
L 259.903846 213.574133 
L 260.378227 212.708451 
L 260.745984 212.193088 
L 260.728501 212.016296 
L 260.818995 211.772228 
L 262.01318 210.74607 
L 262.494835 210.060115 
L 263.235198 209.684013 
L 263.329189 209.75045 
L 263.486773 209.724761 
L 263.64361 209.412531 
L 263.782685 208.817303 
L 263.94549 207.39989 
L 263.81919 206.957911 
L 262.784034 205.695284 
L 262.01262 204.94252 
L 261.207965 203.632525 
L 260.510541 201.815279 
L 260.1895 199.044559 
L 260.40317 197.616516 
L 260.906179 196.709572 
L 261.280649 196.34657 
L 261.68673 196.126606 
L 262.648456 195.949254 
L 264.598856 196.47273 
L 265.914398 197.121946 
L 266.147883 197.152344 
L 266.404306 197.167916 
L 267.609074 197.777923 
L 268.070123 198.22326 
L 268.12523 198.706081 
L 268.270599 199.033603 
L 269.876937 199.809496 
L 271.94155 200.806744 
L 273.041091 201.759891 
L 273.312293 201.806747 
L 274.094057 202.176182 
L 274.415192 202.70833 
L 274.549278 202.80316 
L 274.880762 202.898363 
L 275.311693 202.846146 
L 275.93233 202.523146 
L 276.372212 202.475358 
L 278.016675 203.013473 
L 278.336784 203.237167 
L 279.000407 203.287286 
L 280.601885 203.746936 
L 281.732663 204.165511 
L 283.52753 204.936925 
L 283.670148 205.087562 
L 284.361185 205.480215 
L 287.035816 206.813708 
L 288.65501 207.470104 
L 289.254154 207.585214 
L 289.828215 207.932271 
L 291.198119 209.067619 
L 292.897364 210.034333 
L 293.358599 210.550443 
L 294.041803 210.969857 
L 295.474228 212.20535 
L 295.698995 212.314865 
L 296.312498 212.954617 
L 296.620998 213.398136 
L 296.754711 213.919793 
L 297.417168 214.555349 
L 297.82861 214.772423 
L 298.000367 214.769113 
L 298.405562 215.351099 
L 298.498061 215.615122 
L 298.436659 216.135054 
L 298.282572 216.691166 
L 298.02918 217.238792 
L 298.138463 217.961485 
L 298.178278 219.035711 
L 298.071 219.24719 
L 298.073622 219.934579 
L 298.077061 220.836126 
L 298.355011 221.267882 
L 298.369336 221.290134 
L 298.727956 221.374987 
L 299.448457 221.247988 
L 300.315167 220.739478 
L 302.131527 220.764561 
L 302.557889 221.263699 
L 302.85496 221.853023 
L 303.029241 222.198757 
L 303.312052 223.03036 
L 303.143465 223.894086 
L 303.181042 225.113903 
L 303.18729 225.31672 
L 303.627219 225.710493 
L 304.112511 225.971391 
L 304.745363 226.024727 
L 304.861219 226.127809 
L 304.868492 226.235181 
L 304.714825 226.623685 
L 304.897025 227.032003 
L 305.510855 227.374724 
L 305.778234 227.598651 
L 305.954607 227.885332 
L 306.928081 228.628073 
L 308.258776 229.272627 
L 309.302278 229.628122 
L 310.012523 230.132483 
L 310.509144 230.166424 
L 311.083298 230.51777 
L 311.309697 230.877368 
L 311.318182 231.030802 
L 310.684631 232.792941 
L 309.958394 233.615732 
L 308.559957 234.805348 
L 307.661218 235.350876 
L 305.751799 236.692621 
L 305.033209 237.428974 
L 304.080528 238.184536 
L 303.323288 238.947045 
L 301.473499 239.785035 
L 299.553031 240.469498 
L 297.149975 241.682751 
L 296.197574 242.359428 
L 294.988423 242.719539 
L 294.392683 242.687603 
L 293.692695 242.822994 
L 293.28088 243.049625 
L 292.831813 243.067715 
L 291.056947 242.582562 
L 290.093822 242.447358 
L 288.595287 242.816793 
L 288.266739 243.024449 
L 288.21082 243.089578 
L 287.820936 243.543682 
L 286.520266 244.320364 
L 286.152882 245.079516 
L 285.617517 245.491005 
L 284.777988 245.793817 
L 284.215583 245.852747 
L 282.972258 246.473431 
L 282.518902 246.860956 
L 282.26593 247.276967 
L 281.287 248.147453 
L 280.720678 248.380005 
L 278.873594 248.802217 
L 278.432593 249.054304 
L 278.553811 249.256039 
L 278.553951 249.436841 
L 278.203584 249.775832 
L 277.901285 249.828795 
L 277.772327 249.930385 
L 277.030845 250.986428 
L 276.798895 251.07003 
L 276.736052 251.09268 
L 276.424242 251.402719 
L 276.540378 251.997294 
L 276.547325 252.717376 
L 276.445036 253.060843 
L 276.021938 253.715141 
L 275.548581 253.953801 
L 275.301296 254.194931 
L 274.642569 255.286221 
L 274.619771 256.133769 
L 274.370574 256.557193 
L 273.806444 256.611881 
L 273.280077 257.005746 
L 273.292013 257.099784 
L 272.683404 257.948823 
L 271.730817 258.736182 
L 271.100529 259.079742 
L 270.642697 259.02249 
L 270.368045 258.805043 
L 270.253587 258.393041 
L 270.116238 258.003884 
L 268.58115 256.656732 
L 266.830248 256.078614 
L 264.848285 254.580638 
L 262.618152 254.123972 
L 261.331048 253.523383 
L 261.213234 253.401139 
L 261.110618 252.63215 
L 260.29869 251.465799 
L 260.081336 251.448968 
L 259.47366 249.581976 
L 259.664672 247.960451 
L 260.315194 245.077837 
L 260.24195 244.501818 
L 260.35128 243.183338 
L 260.683697 242.427496 
L 260.897833 241.296159 
L 261.060359 239.515371 
L 260.997652 239.005789 
L 260.527186 237.60931 
L 259.825193 236.531261 
L 260.047209 235.862323 
L 259.458834 235.158559 
L 259.339388 234.774204 
L 259.297568 233.408776 
L 259.416781 232.917842 
L 259.346148 232.787533 
L 259.047812 232.623655 
L 258.809199 232.590693 
L 258.773672 232.764268 
L 258.645834 232.77956 
L 258.070281 232.543092 
L 258.004683 232.442574 
L 257.968971 231.454273 
L 257.652218 229.747476 
L 257.567972 229.506578 
L 257.430576 229.368296 
L 257.237606 229.31151 
L 257.162124 227.895822 
L 256.824718 226.87801 
L 256.698052 226.653142 
L 255.914557 225.262219 
L 254.457422 224.922715 
L 254.27345 224.745224 
L 254.177128 224.490899 
L 254.254894 224.030736 
L 254.529919 223.894412 
L 254.443482 223.579525 
L 254.126543 223.050641 
L 253.572623 222.645679 
L 253.400493 222.426041 
L 253.361657 221.725867 
L 253.181775 221.542654 
L 252.80783 221.161783 
L 253.1409 220.613038 
" clip-path="url(#pef158c963b)" style="fill: #00b500"/>
    <path d="M 223.178113 165.687572 
L 223.44759 164.191973 
L 224.063238 162.907341 
L 224.780803 161.658235 
L 225.391323 161.567788 
L 225.692177 161.315001 
L 225.84948 161.057646 
L 225.77605 160.946871 
L 225.839363 160.701125 
L 226.922307 160.691334 
L 227.275192 160.832273 
L 227.272721 160.715578 
L 227.544389 160.384652 
L 228.196263 160.454166 
L 228.532342 160.815861 
L 228.74678 161.046643 
L 229.57083 161.233365 
L 230.175056 161.756841 
L 230.339259 161.750174 
L 231.18056 163.490353 
L 231.62529 164.100873 
L 231.92745 164.25855 
L 232.013002 164.767759 
L 232.128532 164.88301 
L 232.521698 165.037283 
L 232.689399 165.343685 
L 232.81155 165.902874 
L 233.380715 166.733311 
L 233.41206 166.751605 
L 233.672525 166.903622 
L 234.809958 166.530828 
L 236.102854 166.10708 
L 237.421147 165.821557 
L 237.810305 165.737271 
L 238.358024 165.361821 
L 238.524373 165.126239 
L 239.367305 164.718526 
L 239.693382 164.710041 
L 239.846769 164.843334 
L 240.291919 164.483736 
L 240.676041 164.309648 
L 241.486337 164.656751 
L 242.459159 164.425411 
L 242.982076 164.907486 
L 243.541964 164.743049 
L 244.500146 164.885248 
L 245.078077 165.160413 
L 245.08134 165.816482 
L 245.236686 165.871823 
L 245.455578 165.795735 
L 245.647149 165.876672 
L 245.722304 166.321356 
L 247.738162 167.725108 
L 247.861478 167.833319 
L 248.03454 168.251008 
L 249.62329 168.450412 
L 249.776584 169.096412 
L 250.412793 170.038742 
L 251.140661 169.982749 
L 251.599052 169.825632 
L 253.021174 170.82018 
L 254.256712 170.927131 
L 255.643961 171.519282 
L 255.671235 171.804937 
L 256.37071 172.40478 
L 256.527221 172.826992 
L 256.421668 173.242817 
L 256.488711 173.911009 
L 256.404651 174.914695 
L 256.203336 175.337233 
L 255.721447 176.064075 
L 255.148924 176.6414 
L 254.874132 176.586572 
L 254.377231 176.791944 
L 253.927838 177.245719 
L 253.767224 177.610166 
L 253.319696 178.103524 
L 253.022805 178.209636 
L 252.010214 178.1004 
L 251.642224 178.37398 
L 250.168025 179.065576 
L 249.75248 179.352863 
L 249.157253 179.535529 
L 249.067598 179.515621 
L 248.90456 179.280878 
L 248.499551 179.25421 
L 247.895326 179.360555 
L 247.724641 179.512451 
L 247.204196 179.25048 
L 246.813407 179.154904 
L 246.005908 179.306473 
L 245.302843 179.566533 
L 244.798995 179.892423 
L 244.315999 180.124724 
L 243.410768 180.560102 
L 242.549653 180.799787 
L 242.379668 181.00763 
L 242.127115 181.159013 
L 241.696418 181.279485 
L 240.752222 181.18279 
L 239.410804 181.243539 
L 239.041648 181.476324 
L 238.524559 181.626308 
L 238.202492 181.641834 
L 236.445762 181.284147 
L 236.342726 181.114954 
L 236.425574 180.913732 
L 236.360059 180.765725 
L 236.329859 180.697498 
L 236.080802 180.539122 
L 235.867878 180.688593 
L 235.673742 180.722627 
L 235.370091 180.573716 
L 235.097024 180.265822 
L 235.160337 179.990703 
L 234.798221 178.668027 
L 235.020004 178.338966 
L 235.123552 178.024359 
L 234.891233 175.752871 
L 234.780178 174.78639 
L 234.693601 174.515141 
L 234.435173 174.263893 
L 234.257822 173.458445 
L 234.2664 172.590384 
L 234.236735 172.454449 
L 234.173855 172.166307 
L 233.730057 171.742556 
L 232.987176 171.389019 
L 232.418756 171.314703 
L 232.216508 171.336616 
L 231.751777 171.580404 
L 231.321872 172.205749 
L 230.737368 172.318249 
L 226.352909 170.321321 
L 224.169118 168.022792 
L 223.687276 167.177436 
L 223.741591 167.082 
L 223.726298 166.354458 
L 223.577014 166.069362 
L 223.293363 165.886229 
L 223.178113 165.687572 
" clip-path="url(#pef158c963b)" style="fill: #00b500"/>
    <path d="M 223.067385 183.785343 
L 223.32861 183.35665 
L 224.100769 182.639832 
L 225.431045 182.241071 
L 227.154626 181.237058 
L 227.334775 180.926507 
L 228.913548 180.329741 
L 229.36723 180.407833 
L 229.99831 180.881796 
L 230.491108 181.563135 
L 230.501645 181.86343 
L 230.217202 182.100458 
L 229.885624 183.309515 
L 230.025631 183.462203 
L 230.623749 183.678578 
L 230.649205 184.009457 
L 230.438192 184.235202 
L 230.165591 184.35311 
L 229.700393 184.277628 
L 228.476836 184.75229 
L 227.656003 184.162005 
L 226.38326 184.601607 
L 225.860903 184.912019 
L 225.622336 184.738024 
L 224.627182 185.077388 
L 223.968408 184.982418 
L 223.001741 184.028432 
L 223.067385 183.785343 
" clip-path="url(#pef158c963b)" style="fill: #00b500"/>
    <path d="M 206.271869 166.444905 
L 206.429499 166.024278 
L 207.517712 165.386904 
L 207.991534 165.272679 
L 208.720009 165.262003 
L 209.661221 165.151508 
L 210.510167 165.425321 
L 212.098824 165.471011 
L 212.988332 165.598197 
L 213.980502 165.931593 
L 216.783531 168.347563 
L 217.334141 168.946381 
L 218.064294 170.09772 
L 218.115905 170.36067 
L 218.069562 170.884099 
L 217.698262 171.56306 
L 216.724134 172.963176 
L 216.346866 173.167102 
L 216.110584 173.173256 
L 215.2587 173.423525 
L 214.300984 173.882569 
L 213.425136 174.130693 
L 211.563599 174.155683 
L 210.683323 174.338302 
L 209.89741 173.331399 
L 209.465966 171.933009 
L 209.702248 170.589119 
L 209.566997 170.071285 
L 208.895216 168.998971 
L 208.677582 168.77178 
L 206.642936 167.711448 
L 206.404649 167.365743 
L 206.336348 167.085962 
L 206.271869 166.444905 
" clip-path="url(#pef158c963b)" style="fill: #00b500"/>
    <path d="M 194.698476 157.249019 
L 195.257711 156.357367 
L 195.555255 155.653462 
L 195.738761 155.141596 
L 196.26163 154.600683 
L 196.605051 154.507485 
L 197.217389 154.011563 
L 197.544911 153.389901 
L 197.483742 153.084478 
L 197.518569 152.301828 
L 197.207365 151.932299 
L 196.996539 151.839241 
L 196.917001 151.68949 
L 197.032298 151.46519 
L 197.200372 151.39134 
L 197.925396 151.685014 
L 198.62888 151.721566 
L 199.298517 151.644033 
L 199.762736 151.76292 
L 200.21432 152.306257 
L 200.535362 152.40146 
L 201.861768 152.629723 
L 202.280343 152.627905 
L 202.443428 152.543518 
L 203.208967 152.593265 
L 203.897533 152.785022 
L 204.61864 152.755324 
L 206.19014 153.171941 
L 206.712823 153.186954 
L 206.959735 153.094408 
L 207.321991 153.086482 
L 208.507802 153.338502 
L 209.227866 153.491537 
L 209.591054 153.338196 
L 209.756563 153.159167 
L 210.00949 152.299077 
L 209.910604 152.193478 
L 209.930745 152.093939 
L 210.398367 151.799985 
L 210.628588 151.869219 
L 210.918439 152.097063 
L 211.440283 153.051376 
L 211.479726 153.472189 
L 211.696473 153.7833 
L 212.997749 154.14153 
L 213.686921 154.331253 
L 213.933646 154.250596 
L 214.028943 154.081776 
L 214.009967 153.958367 
L 215.34304 154.3168 
L 216.571632 154.158004 
L 217.487668 153.84251 
L 219.839719 153.592615 
L 221.204076 153.771598 
L 221.385437 153.967132 
L 221.464368 154.439883 
L 222.269163 154.345193 
L 222.748441 154.59024 
L 222.593282 155.272325 
L 222.105706 155.975157 
L 221.338768 156.796363 
L 220.114931 157.691372 
L 219.111198 158.302265 
L 218.40818 158.858982 
L 216.964053 159.314529 
L 215.818262 159.388799 
L 214.914441 159.688627 
L 214.22401 159.570626 
L 213.436792 159.384976 
L 211.336875 158.904066 
L 209.162035 158.40861 
L 207.966172 157.83702 
L 207.692266 157.740092 
L 206.924162 157.519709 
L 205.42572 157.232748 
L 204.729975 157.157779 
L 203.273725 157.425485 
L 202.236565 157.719392 
L 197.41255 157.899727 
L 195.253609 157.63398 
L 194.698476 157.249019 
" clip-path="url(#pef158c963b)" style="fill: #00b500"/>
    <path d="M 149.617879 135.002605 
L 150.702035 134.821011 
L 153.672858 134.671446 
L 154.638127 134.838913 
L 156.707693 134.631957 
L 156.84741 134.559192 
L 157.58839 134.173286 
L 157.589835 133.872712 
L 157.45878 133.74795 
L 157.520088 133.664636 
L 158.839034 132.703563 
L 159.449554 131.976301 
L 159.453703 131.573484 
L 159.584759 131.290953 
L 160.829576 130.083434 
L 161.718804 129.353561 
L 162.922919 128.978484 
L 163.168619 128.768963 
L 164.026563 128.759172 
L 165.026799 129.837827 
L 165.407891 130.796756 
L 165.822829 131.440144 
L 166.079672 131.627426 
L 166.163173 132.330631 
L 166.11655 132.647663 
L 166.722781 133.49232 
L 167.199401 133.739325 
L 168.282158 135.166342 
L 168.223834 135.870153 
L 168.506971 135.991977 
L 168.769362 135.706089 
L 169.271019 135.847775 
L 169.43746 135.994495 
L 170.165935 137.279827 
L 170.146027 138.112502 
L 169.576908 138.228452 
L 169.434896 138.677285 
L 169.609461 139.490144 
L 169.767547 140.226266 
L 169.977347 140.564931 
L 170.727967 140.756269 
L 171.128453 140.997726 
L 171.240347 141.459287 
L 171.331774 141.575857 
L 171.613326 141.934835 
L 172.517193 142.609321 
L 172.803385 142.738309 
L 172.912038 142.787279 
L 173.164265 142.4281 
L 173.609415 141.575237 
L 172.871243 141.174705 
L 173.184079 140.646147 
L 173.540134 140.478586 
L 174.452673 140.84252 
L 174.79684 140.5833 
L 175.50135 140.576959 
L 175.349734 141.008309 
L 175.090048 141.253543 
L 174.88062 141.546751 
L 174.671766 142.154295 
L 174.650212 142.216994 
L 174.629279 142.656829 
L 174.75101 143.137692 
L 175.143057 143.250938 
L 175.234903 143.240075 
L 175.318823 143.205528 
L 175.416591 143.183802 
L 175.4413 143.184781 
L 175.464985 143.187718 
L 175.490673 143.19266 
L 175.499578 143.196623 
L 175.532167 143.263759 
L 175.546135 143.301428 
L 175.567694 143.359568 
L 175.66947 143.519995 
L 176.135694 144.116761 
L 176.145018 144.303251 
L 175.963191 144.788123 
L 176.056436 145.272996 
L 176.140356 145.51077 
L 176.685837 146.30335 
L 176.839691 146.466528 
L 177.361834 146.790616 
L 178.326944 147.389651 
L 178.523777 147.37406 
L 178.79783 147.352353 
L 178.810305 147.597361 
L 178.833636 148.055604 
L 177.213836 149.130389 
L 176.811718 149.562252 
L 176.54597 149.678808 
L 176.098396 149.767391 
L 175.902582 149.688133 
L 175.888595 149.562252 
L 176.019138 149.305829 
L 175.71474 149.013694 
L 175.622588 148.989439 
L 175.050838 148.838953 
L 173.883834 149.026095 
L 173.52018 148.984135 
L 173.378072 149.113919 
L 172.823455 149.620437 
L 172.210092 149.846649 
L 171.440823 149.972529 
L 170.904666 149.837324 
L 170.764799 149.650835 
L 170.708852 149.333803 
L 170.707484 149.332124 
L 170.401144 148.956162 
L 169.50842 148.721651 
L 169.035512 148.454918 
L 168.785588 148.313954 
L 168.624242 148.222951 
L 167.692386 147.697358 
L 166.716813 147.731486 
L 164.789538 147.695913 
L 164.860731 147.417204 
L 164.807348 147.126607 
L 164.057194 146.69563 
L 163.999188 146.774481 
L 163.768788 147.087678 
L 163.425275 147.259201 
L 162.029869 147.473439 
L 161.421679 147.566816 
L 160.489917 147.720162 
L 158.524239 148.043667 
L 158.447173 148.05635 
L 157.747838 148.09831 
L 157.309588 147.911821 
L 156.91796 147.212486 
L 156.852689 146.956063 
L 156.714733 146.589425 
L 156.479613 145.714848 
L 156.351965 145.240034 
L 156.022811 144.559674 
L 155.583675 144.027806 
L 155.023088 143.51151 
L 154.262596 143.162216 
L 154.209202 143.137692 
L 154.112507 142.889381 
L 154.125281 142.365253 
L 154.048448 141.936094 
L 153.596024 141.09843 
L 152.988489 140.550478 
L 152.332838 140.084861 
L 151.700919 139.25405 
L 151.786191 137.563664 
L 151.759197 137.135764 
L 151.639657 136.808335 
L 150.877055 136.001069 
L 149.923764 135.392151 
L 149.532513 135.142239 
L 149.617879 135.002605 
" clip-path="url(#pef158c963b)" style="fill: #00b500"/>
    <path d="M 79.205819 113.961331 
L 79.396039 113.135789 
L 79.401493 112.339106 
L 81.196407 110.818705 
L 81.524209 109.795158 
L 81.881896 108.839819 
L 82.478056 108.293965 
L 83.048061 107.936837 
L 83.746093 107.741829 
L 84.405331 107.557658 
L 85.701852 106.95222 
L 86.543105 106.380164 
L 87.425014 105.975575 
L 88.851285 104.945221 
L 89.380775 104.951562 
L 89.879447 104.797708 
L 90.582559 105.028815 
L 90.810263 105.392702 
L 91.204035 105.305798 
L 91.800195 105.377503 
L 92.128929 105.874871 
L 92.705135 105.659429 
L 92.749473 105.382445 
L 92.58732 105.146396 
L 93.192712 104.664368 
L 93.91298 104.746423 
L 94.456597 104.904986 
L 95.002311 104.867641 
L 95.81438 105.10714 
L 96.373009 104.961819 
L 96.978353 104.843025 
L 97.177664 104.520258 
L 98.088944 104.885404 
L 98.123864 105.249059 
L 99.087269 105.383285 
L 99.634568 105.340718 
L 100.482769 106.039541 
L 100.628184 106.274984 
L 101.381741 106.829044 
L 101.367242 107.303753 
L 101.82498 107.90658 
L 101.658771 108.358117 
L 102.002285 108.481293 
L 102.268219 108.63524 
L 102.28062 109.632073 
L 102.111847 110.464422 
L 101.773415 110.742664 
L 101.610797 111.2653 
L 101.179353 111.848406 
L 101.102613 112.501352 
L 100.803577 112.848829 
L 100.429853 113.000398 
L 100.368309 113.312268 
L 100.346911 113.420698 
L 100.155667 114.271836 
L 100.295767 114.9197 
L 100.436659 115.394968 
L 100.583893 115.751909 
L 100.393301 116.378793 
L 100.561701 117.221399 
L 100.198139 117.641187 
L 99.774948 118.331431 
L 99.386538 118.55312 
L 98.789678 118.822224 
L 98.23049 119.039811 
L 97.979335 119.447057 
L 97.887536 119.872812 
L 97.842329 119.874425 
L 97.437956 119.88885 
L 97.077379 120.336238 
L 96.515487 120.572381 
L 96.244191 120.873561 
L 95.709479 121.229942 
L 95.200783 121.489675 
L 93.780013 120.860507 
L 92.929622 120.714159 
L 92.061327 120.582498 
L 91.375419 120.778265 
L 90.029478 120.569816 
L 89.156055 120.362394 
L 88.541246 120.084478 
L 88.089009 120.273811 
L 87.815289 120.388409 
L 87.374242 119.98079 
L 86.278943 119.269659 
L 85.647956 118.448919 
L 85.133852 118.034027 
L 84.764509 117.528734 
L 82.942508 117.172352 
L 82.292685 116.819328 
L 80.751257 116.401079 
L 80.241209 115.989823 
L 79.847809 115.091317 
L 79.263678 114.48821 
L 79.205819 113.961331 
" clip-path="url(#pef158c963b)" style="fill: #00b500"/>
    <path d="M 57.899405 122.40739 
L 58.548155 120.667444 
L 58.644337 120.534383 
L 59.349966 120.064617 
L 59.737025 119.676998 
L 59.868127 119.447849 
L 60.45361 118.927078 
L 61.511332 118.494842 
L 62.92963 117.759654 
L 63.384105 117.439079 
L 63.491429 117.272078 
L 63.619081 117.095332 
L 64.06274 115.586446 
L 64.822498 115.295336 
L 65.95668 115.209318 
L 66.589811 115.53353 
L 66.895234 116.125587 
L 66.860873 116.282238 
L 66.692707 116.393293 
L 66.496287 116.449706 
L 66.365744 116.373945 
L 66.25096 116.457492 
L 65.664357 117.45563 
L 65.319632 118.754435 
L 65.588876 119.523098 
L 65.633027 120.209752 
L 64.708413 120.739801 
L 63.524858 121.109144 
L 62.437345 121.294468 
L 61.784119 121.670617 
L 61.169823 122.501567 
L 60.47114 123.642556 
L 59.751804 125.199602 
L 59.974845 125.319608 
L 59.721966 125.644147 
L 59.153499 125.446608 
L 58.373228 124.902851 
L 57.681818 123.983132 
L 57.899405 122.40739 
" clip-path="url(#pef158c963b)" style="fill: #00b500"/>
   </g>
   <g id="PathCollection_1">
    <defs>
     <path id="m50e6b7b699" d="M 0 1.581139 
C 0.419323 1.581139 0.821528 1.41454 1.118034 1.118034 
C 1.41454 0.821528 1.581139 0.419323 1.581139 0 
C 1.581139 -0.419323 1.41454 -0.821528 1.118034 -1.118034 
C 0.821528 -1.41454 0.419323 -1.581139 0 -1.581139 
C -0.419323 -1.581139 -0.821528 -1.41454 -1.118034 -1.118034 
C -1.41454 -0.821528 -1.581139 -0.419323 -1.581139 0 
C -1.581139 0.419323 -1.41454 0.821528 -1.118034 1.118034 
C -0.821528 1.41454 -0.419323 1.581139 0 1.581139 
z
" style="stroke: #000000"/>
    </defs>
    <g clip-path="url(#pef158c963b)">
     <use xlink:href="#m50e6b7b699" x="169.213393" y="147.65344" style="stroke: #000000"/>
    </g>
   </g>
   <g id="text_1">
    <!-- Honolulu -->
    <g transform="translate(172.213393 144.65344) scale(0.1 -0.1)">
     <defs>
      <path id="DejaVuSans-48" d="M 628 4666 
L 1259 4666 
L 1259 2753 
L 3553 2753 
L 3553 4666 
L 4184 4666 
L 4184 0 
L 3553 0 
L 3553 2222 
L 1259 2222 
L 1259 0 
L 628 0 
L 628 4666 
z
" transform="scale(0.015625)"/>
      <path id="DejaVuSans-6f" d="M 1959 3097 
Q 1497 3097 1228 2736 
Q 959 2375 959 1747 
Q 959 1119 1226 758 
Q 1494 397 1959 397 
Q 2419 397 2687 759 
Q 2956 1122 2956 1747 
Q 2956 2369 2687 2733 
Q 2419 3097 1959 3097 
z
M 1959 3584 
Q 2709 3584 3137 3096 
Q 3566 2609 3566 1747 
Q 3566 888 3137 398 
Q 2709 -91 1959 -91 
Q 1206 -91 779 398 
Q 353 888 353 1747 
Q 353 2609 779 3096 
Q 1206 3584 1959 3584 
z
" transform="scale(0.015625)"/>
      <path id="DejaVuSans-6e" d="M 3513 2113 
L 3513 0 
L 2938 0 
L 2938 2094 
Q 2938 2591 2744 2837 
Q 2550 3084 2163 3084 
Q 1697 3084 1428 2787 
Q 1159 2491 1159 1978 
L 1159 0 
L 581 0 
L 581 3500 
L 1159 3500 
L 1159 2956 
Q 1366 3272 1645 3428 
Q 1925 3584 2291 3584 
Q 2894 3584 3203 3211 
Q 3513 2838 3513 2113 
z
" transform="scale(0.015625)"/>
      <path id="DejaVuSans-6c" d="M 603 4863 
L 1178 4863 
L 1178 0 
L 603 0 
L 603 4863 
z
" transform="scale(0.015625)"/>
      <path id="DejaVuSans-75" d="M 544 1381 
L 544 3500 
L 1119 3500 
L 1119 1403 
Q 1119 906 1312 657 
Q 1506 409 1894 409 
Q 2359 409 2629 706 
Q 2900 1003 2900 1516 
L 2900 3500 
L 3475 3500 
L 3475 0 
L 2900 0 
L 2900 538 
Q 2691 219 2414 64 
Q 2138 -91 1772 -91 
Q 1169 -91 856 284 
Q 544 659 544 1381 
z
M 1991 3584 
L 1991 3584 
z
" transform="scale(0.015625)"/>
     </defs>
     <use xlink:href="#DejaVuSans-48"/>
     <use xlink:href="#DejaVuSans-6f" x="75.195312"/>
     <use xlink:href="#DejaVuSans-6e" x="136.376953"/>
     <use xlink:href="#DejaVuSans-6f" x="199.755859"/>
     <use xlink:href="#DejaVuSans-6c" x="260.9375"/>
     <use xlink:href="#DejaVuSans-75" x="288.720703"/>
     <use xlink:href="#DejaVuSans-6c" x="352.099609"/>
     <use xlink:href="#DejaVuSans-75" x="379.882812"/>
    </g>
   </g>
   <g id="text_2">
    <!-- Hawaii -->
    <g transform="translate(164.393438 90.792284) scale(0.12 -0.12)">
     <defs>
      <path id="DejaVuSans-61" d="M 2194 1759 
Q 1497 1759 1228 1600 
Q 959 1441 959 1056 
Q 959 750 1161 570 
Q 1363 391 1709 391 
Q 2188 391 2477 730 
Q 2766 1069 2766 1631 
L 2766 1759 
L 2194 1759 
z
M 3341 1997 
L 3341 0 
L 2766 0 
L 2766 531 
Q 2569 213 2275 61 
Q 1981 -91 1556 -91 
Q 1019 -91 701 211 
Q 384 513 384 1019 
Q 384 1609 779 1909 
Q 1175 2209 1959 2209 
L 2766 2209 
L 2766 2266 
Q 2766 2663 2505 2880 
Q 2244 3097 1772 3097 
Q 1472 3097 1187 3025 
Q 903 2953 641 2809 
L 641 3341 
Q 956 3463 1253 3523 
Q 1550 3584 1831 3584 
Q 2591 3584 2966 3190 
Q 3341 2797 3341 1997 
z
" transform="scale(0.015625)"/>
      <path id="DejaVuSans-77" d="M 269 3500 
L 844 3500 
L 1563 769 
L 2278 3500 
L 2956 3500 
L 3675 769 
L 4391 3500 
L 4966 3500 
L 4050 0 
L 3372 0 
L 2619 2869 
L 1863 0 
L 1184 0 
L 269 3500 
z
" transform="scale(0.015625)"/>
      <path id="DejaVuSans-69" d="M 603 3500 
L 1178 3500 
L 1178 0 
L 603 0 
L 603 3500 
z
M 603 4863 
L 1178 4863 
L 1178 4134 
L 603 4134 
L 603 4863 
z
" transform="scale(0.015625)"/>
     </defs>
     <use xlink:href="#DejaVuSans-48"/>
     <use xlink:href="#DejaVuSans-61" x="75.195312"/>
     <use xlink:href="#DejaVuSans-77" x="136.474609"/>
     <use xlink:href="#DejaVuSans-61" x="218.261719"/>
     <use xlink:href="#DejaVuSans-69" x="279.541016"/>
     <use xlink:href="#DejaVuSans-69" x="307.324219"/>
    </g>
   </g>
  </g>
 </g>
 <defs>
  <clipPath id="pef158c963b">
   <rect x="45" y="96.792284" width="279" height="170.015432"/>
  </clipPath>
 </defs>
</svg>
