<?xml version="1.0" encoding="utf-8" standalone="no"?>
<!DOCTYPE svg PUBLIC "-//W3C//DTD SVG 1.1//EN"
  "http://www.w3.org/Graphics/SVG/1.1/DTD/svg11.dtd">
<svg xmlns:xlink="http://www.w3.org/1999/xlink" width="460.8pt" height="345.6pt" viewBox="0 0 460.8 345.6" xmlns="http://www.w3.org/2000/svg" version="1.1">
 <metadata>
  <rdf:RDF xmlns:dc="http://purl.org/dc/elements/1.1/" xmlns:cc="http://creativecommons.org/ns#" xmlns:rdf="http://www.w3.org/1999/02/22-rdf-syntax-ns#">
   <cc:Work>
    <dc:type rdf:resource="http://purl.org/dc/dcmitype/StillImage"/>
    <dc:date>2023-06-19T14:47:46.680646</dc:date>
    <dc:format>image/svg+xml</dc:format>
    <dc:creator>
     <cc:Agent>
      <dc:title>Matplotlib v3.7.1, https://matplotlib.org/</dc:title>
     </cc:Agent>
    </dc:creator>
   </cc:Work>
  </rdf:RDF>
 </metadata>
 <defs>
  <style type="text/css">*{stroke-linejoin: round; stroke-linecap: butt}</style>
 </defs>
 <g id="figure_1">
  <g id="patch_1">
   <path d="M 0 345.6 
L 460.8 345.6 
L 460.8 0 
L 0 0 
z
" style="fill: #ffffff"/>
  </g>
  <g id="axes_1">
   <g id="PatchCollection_1">
    <path d="M 324.020352 227.593597 
L 324.313065 226.682078 
L 324.472044 225.176733 
L 326.138155 223.79046 
L 327.061054 222.810099 
L 327.199791 222.632677 
L 328.460232 221.020781 
L 328.828436 220.709781 
L 329.534649 220.413187 
L 330.463576 220.2952 
L 330.646258 220.472415 
L 330.699537 220.524099 
L 330.997084 220.596638 
L 331.860486 220.174471 
L 331.830933 219.848925 
L 331.79514 219.454626 
L 331.881552 219.150001 
L 332.468053 218.377058 
L 332.676922 217.969931 
L 333.284131 216.786362 
L 333.75486 216.081752 
L 333.732481 215.84004 
L 333.848314 215.506348 
L 335.37687 214.103374 
L 335.993389 213.165529 
L 336.941054 212.651318 
L 337.061362 212.742151 
L 337.263069 212.707029 
L 337.463821 212.280145 
L 337.641836 211.466343 
L 337.850227 209.528442 
L 337.688563 208.924162 
L 336.363563 207.197886 
L 335.376154 206.168698 
L 334.346196 204.377659 
L 333.453493 201.893101 
L 333.04256 198.104944 
L 333.316058 196.152509 
L 333.959909 194.912524 
L 334.439231 194.416225 
L 334.959015 194.115487 
L 336.190024 193.873011 
L 338.686535 194.588712 
L 340.37043 195.476327 
L 340.66929 195.517888 
L 340.997512 195.539178 
L 342.539615 196.373185 
L 343.129757 196.982055 
L 343.200295 197.642173 
L 343.386367 198.089964 
L 345.44248 199.150773 
L 348.085183 200.514222 
L 349.492597 201.817375 
L 349.839735 201.881436 
L 350.840393 202.386532 
L 351.251445 203.11409 
L 351.423075 203.243743 
L 351.847376 203.373905 
L 352.398967 203.302513 
L 353.193382 202.860905 
L 353.756431 202.795568 
L 355.861344 203.531285 
L 356.271084 203.837122 
L 357.120521 203.905645 
L 359.170412 204.534083 
L 360.617809 205.106364 
L 362.915239 206.161049 
L 363.09779 206.367001 
L 363.982316 206.903841 
L 367.405844 208.727006 
L 369.478413 209.624438 
L 370.245317 209.781818 
L 370.980115 210.256318 
L 372.733593 211.808577 
L 374.908626 213.130279 
L 375.499007 213.83591 
L 376.373508 214.409338 
L 378.207012 216.098516 
L 378.494713 216.248247 
L 379.279998 217.122923 
L 379.674878 217.729306 
L 379.84603 218.442522 
L 380.693975 219.31146 
L 381.220621 219.608246 
L 381.44047 219.60372 
L 381.959119 220.399419 
L 382.077518 220.760393 
L 381.998924 221.47125 
L 381.801692 222.231572 
L 381.47735 222.980292 
L 381.617232 223.968365 
L 381.668196 225.437058 
L 381.53088 225.726194 
L 381.534236 226.666 
L 381.538638 227.898605 
L 381.894414 228.488907 
L 381.912751 228.51933 
L 382.371783 228.635342 
L 383.294025 228.461707 
L 384.403414 227.766467 
L 386.728355 227.80076 
L 387.274097 228.483188 
L 387.654349 229.288918 
L 387.877428 229.761609 
L 388.239426 230.898586 
L 388.023636 232.07948 
L 388.071734 233.747227 
L 388.079732 234.024521 
L 388.64284 234.562891 
L 389.264014 234.919595 
L 390.074064 234.992516 
L 390.222361 235.133451 
L 390.23167 235.28025 
L 390.034976 235.811417 
L 390.268192 236.369674 
L 391.053894 236.838246 
L 391.39614 237.144402 
L 391.621896 237.536355 
L 392.867944 238.551838 
L 394.571234 239.433079 
L 395.906916 239.919116 
L 396.816029 240.608683 
L 397.451705 240.655088 
L 398.186622 241.135452 
L 398.476412 241.627098 
L 398.487273 241.836875 
L 397.676327 244.246089 
L 396.746745 245.371018 
L 394.956745 246.997474 
L 393.806359 247.743325 
L 391.362303 249.577773 
L 390.442508 250.584523 
L 389.223076 251.617535 
L 388.253808 252.660045 
L 385.886079 253.805754 
L 383.42788 254.741559 
L 380.351969 256.400332 
L 379.132895 257.325492 
L 377.585182 257.817839 
L 376.822634 257.774176 
L 375.92665 257.959284 
L 375.399526 258.269137 
L 374.824721 258.293869 
L 372.552892 257.630564 
L 371.320093 257.44571 
L 369.401967 257.950806 
L 368.981426 258.234716 
L 368.90985 258.323761 
L 368.410798 258.944617 
L 366.74594 260.006504 
L 366.275688 261.044425 
L 365.590422 261.607016 
L 364.515825 262.021024 
L 363.795946 262.101595 
L 362.20449 262.9502 
L 361.624195 263.480028 
L 361.30039 264.048803 
L 360.04736 265.238941 
L 359.322468 265.556889 
L 356.9582 266.134142 
L 356.393719 266.478798 
L 356.548878 266.754612 
L 356.549057 267.001805 
L 356.100588 267.465278 
L 355.713645 267.537689 
L 355.548579 267.676584 
L 354.599482 269.120417 
L 354.302586 269.234719 
L 354.222147 269.265687 
L 353.82303 269.689575 
L 353.971684 270.502484 
L 353.980576 271.486988 
L 353.849646 271.956579 
L 353.30808 272.851143 
L 352.702184 273.177441 
L 352.385659 273.507118 
L 351.542488 274.99914 
L 351.513306 276.157916 
L 351.194335 276.736826 
L 350.472248 276.811596 
L 349.798499 277.350094 
L 349.813776 277.478662 
L 349.034758 278.639478 
L 347.815445 279.715963 
L 347.008677 280.185682 
L 346.422653 280.107406 
L 346.071098 279.810111 
L 345.924592 279.246818 
L 345.748784 278.714758 
L 343.783872 276.872917 
L 341.542717 276.082509 
L 339.005805 274.03446 
L 336.151234 273.410101 
L 334.503742 272.588969 
L 334.352939 272.421836 
L 334.221591 271.370466 
L 333.182323 269.775818 
L 332.90411 269.752807 
L 332.126285 267.200236 
L 332.37078 264.983269 
L 333.203448 261.04213 
L 333.109696 260.25459 
L 333.249638 258.45195 
L 333.675132 257.418556 
L 333.949227 255.871778 
L 334.157259 253.437067 
L 334.076994 252.740361 
L 333.474798 250.831079 
L 332.576247 249.35716 
L 332.860427 248.442581 
L 332.107308 247.480387 
L 331.954417 246.954894 
L 331.900887 245.088065 
L 332.05348 244.416856 
L 331.96307 244.238695 
L 331.581199 244.01464 
L 331.275774 243.969574 
L 331.230301 244.206887 
L 331.066667 244.227795 
L 330.32996 243.904493 
L 330.245995 243.767064 
L 330.200282 242.415849 
L 329.794839 240.082297 
L 329.687004 239.752939 
L 329.511137 239.563878 
L 329.264135 239.48624 
L 329.167519 237.550697 
L 328.735639 236.159133 
L 328.573507 235.851691 
L 327.570633 233.950006 
L 325.7055 233.485833 
L 325.470016 233.243165 
L 325.346724 232.895449 
L 325.446265 232.26631 
L 325.798297 232.079927 
L 325.687656 231.649409 
L 325.281975 230.926314 
L 324.572957 230.372646 
L 324.352631 230.072354 
L 324.30292 229.115068 
L 324.072672 228.864577 
L 323.594022 228.343847 
L 324.020352 227.593597 
" clip-path="url(#p43d5367f9d)" style="fill: #33a1ff"/>
    <path d="M 285.667984 152.498917 
L 286.012915 150.454119 
L 286.800945 148.697756 
L 287.719428 146.989965 
L 288.500893 146.866305 
L 288.885986 146.520692 
L 289.087335 146.168833 
L 288.993344 146.017381 
L 289.074385 145.681394 
L 290.460553 145.668008 
L 290.912246 145.860702 
L 290.909083 145.701154 
L 291.256818 145.248709 
L 292.091217 145.34375 
L 292.521398 145.838263 
L 292.795878 146.15379 
L 293.850662 146.409079 
L 294.624071 147.124781 
L 294.834252 147.115666 
L 295.911117 149.494857 
L 296.480372 150.329566 
L 296.867136 150.545144 
L 296.976642 151.24134 
L 297.124521 151.398912 
L 297.627774 151.609836 
L 297.842431 152.028752 
L 297.998783 152.79328 
L 298.727315 153.928663 
L 298.767437 153.953675 
L 299.100831 154.161515 
L 300.556746 153.651826 
L 302.211654 153.072473 
L 303.899068 152.682103 
L 304.39719 152.566867 
L 305.098271 152.053548 
L 305.311197 151.731457 
L 306.39015 151.174028 
L 306.807529 151.162427 
L 307.003865 151.344667 
L 307.573657 150.85302 
L 308.065332 150.615005 
L 309.102512 151.089569 
L 310.347724 150.773278 
L 311.017057 151.432376 
L 311.733713 151.207556 
L 312.960187 151.401971 
L 313.699938 151.77818 
L 313.704116 152.675165 
L 313.902958 152.750828 
L 314.18314 152.6468 
L 314.428351 152.757457 
L 314.52455 153.365434 
L 317.104847 155.284659 
L 317.262692 155.432605 
L 317.484211 156.003675 
L 319.517811 156.276302 
L 319.714028 157.159519 
L 320.528375 158.447884 
L 321.460046 158.371329 
L 322.046786 158.156517 
L 323.867102 159.516273 
L 325.448592 159.662499 
L 327.224269 160.472093 
L 327.25918 160.862644 
L 328.154508 161.682756 
L 328.354843 162.260009 
L 328.219735 162.828529 
L 328.30555 163.742087 
L 328.197953 165.114337 
L 327.940269 165.692036 
L 327.323452 166.685783 
L 326.590623 167.475107 
L 326.238889 167.400146 
L 325.602856 167.680932 
L 325.027633 168.301339 
L 324.822047 168.799614 
L 324.249211 169.474138 
L 323.869191 169.619216 
L 322.573074 169.469867 
L 322.102047 169.843909 
L 320.215073 170.789466 
L 319.683175 171.182248 
L 318.921284 171.431991 
L 318.806526 171.404773 
L 318.597836 171.083829 
L 318.079426 171.047369 
L 317.306017 171.192765 
L 317.087541 171.400439 
L 316.421371 171.042269 
L 315.921161 170.911597 
L 314.887563 171.118824 
L 313.987639 171.47438 
L 313.342714 171.919941 
L 312.724479 172.237545 
L 311.565783 172.832798 
L 310.463556 173.160499 
L 310.245975 173.444663 
L 309.922707 173.651635 
L 309.371415 173.816346 
L 308.162844 173.684144 
L 306.445829 173.767201 
L 305.973309 174.085467 
L 305.311436 174.290527 
L 304.89919 174.311753 
L 302.650575 173.82272 
L 302.51869 173.591398 
L 302.624735 173.316286 
L 302.540876 173.113928 
L 302.502219 173.020647 
L 302.183427 172.804114 
L 301.910884 173.008473 
L 301.66239 173.055005 
L 301.273716 172.851411 
L 300.924191 172.430455 
L 301.005231 172.05431 
L 300.541723 170.245933 
L 300.825605 169.796038 
L 300.958147 169.365903 
L 300.660778 166.260301 
L 300.518628 164.938918 
L 300.407809 164.568064 
L 300.077021 164.224555 
L 299.850012 163.123338 
L 299.860992 161.936515 
L 299.823021 161.750664 
L 299.742534 161.356713 
L 299.174472 160.777356 
L 298.223585 160.293997 
L 297.496008 160.192391 
L 297.237131 160.22235 
L 296.642274 160.55566 
L 296.091996 161.410639 
L 295.343831 161.56445 
L 289.731723 158.834228 
L 286.93647 155.691655 
L 286.319713 154.535875 
L 286.389236 154.405394 
L 286.369662 153.410691 
L 286.178578 153.020905 
L 285.815505 152.770524 
L 285.667984 152.498917 
" clip-path="url(#p43d5367f9d)" style="fill: #33a1ff"/>
    <path d="M 285.526253 177.242382 
L 285.860621 176.656269 
L 286.848985 175.676227 
L 288.551737 175.131037 
L 290.757922 173.75834 
L 290.988512 173.333751 
L 293.009341 172.517846 
L 293.590054 172.624615 
L 294.397837 173.272622 
L 295.028619 174.204156 
L 295.042106 174.614722 
L 294.678019 174.938789 
L 294.253599 176.591825 
L 294.432808 176.800582 
L 295.198399 177.096411 
L 295.230982 177.548792 
L 294.960886 177.857434 
L 294.611957 178.018639 
L 294.016504 177.91544 
L 292.450351 178.564403 
L 291.399684 177.757358 
L 289.770572 178.358387 
L 289.101956 178.782785 
L 288.79659 178.544898 
L 287.522793 179.00888 
L 286.679563 178.879036 
L 285.442228 177.574736 
L 285.526253 177.242382 
" clip-path="url(#p43d5367f9d)" style="fill: #33a1ff"/>
    <path d="M 264.027992 153.534352 
L 264.229759 152.959266 
L 265.622671 152.087841 
L 266.229164 151.931672 
L 267.161611 151.917075 
L 268.366363 151.766005 
L 269.453014 152.140365 
L 271.486494 152.202833 
L 272.625065 152.376723 
L 273.895042 152.832546 
L 277.48292 156.135686 
L 278.1877 156.954396 
L 279.122296 158.528518 
L 279.188358 158.888027 
L 279.129039 159.603664 
L 278.653775 160.531948 
L 277.406892 162.446201 
L 276.923988 162.725011 
L 276.621547 162.733425 
L 275.531136 163.075595 
L 274.305259 163.703204 
L 273.184175 164.042442 
L 270.801407 164.076608 
L 269.674653 164.326288 
L 268.668684 162.94964 
L 268.116437 161.037745 
L 268.418878 159.200365 
L 268.245756 158.492376 
L 267.385876 157.026297 
L 267.107305 156.71568 
L 264.502958 155.265982 
L 264.197951 154.793331 
L 264.110525 154.410812 
L 264.027992 153.534352 
" clip-path="url(#p43d5367f9d)" style="fill: #33a1ff"/>
    <path d="M 249.21405 140.961639 
L 249.929871 139.742562 
L 250.310727 138.780177 
L 250.545614 138.080347 
L 251.214887 137.340806 
L 251.654465 137.213384 
L 252.438258 136.535355 
L 252.857486 135.685411 
L 252.77919 135.267833 
L 252.823768 134.197787 
L 252.425427 133.692563 
L 252.155569 133.565333 
L 252.053761 133.360592 
L 252.201341 133.053926 
L 252.416476 132.952958 
L 253.344507 133.354473 
L 254.244967 133.404447 
L 255.102102 133.298443 
L 255.696302 133.460987 
L 256.27433 134.203842 
L 256.685263 134.334005 
L 258.383062 134.646088 
L 258.918839 134.643602 
L 259.127588 134.528228 
L 260.107478 134.596242 
L 260.988842 134.858415 
L 261.91186 134.817811 
L 263.923379 135.387415 
L 264.592414 135.40794 
L 264.908461 135.281411 
L 265.372148 135.270574 
L 266.889987 135.615139 
L 267.811668 135.82437 
L 268.276549 135.614721 
L 268.488401 135.369949 
L 268.812147 134.194026 
L 268.685573 134.049649 
L 268.711353 133.913559 
L 269.309909 133.511662 
L 269.604593 133.60632 
L 269.975602 133.91783 
L 270.643562 135.222576 
L 270.694049 135.797917 
L 270.971485 136.223271 
L 272.637119 136.713046 
L 273.519259 136.972437 
L 273.835067 136.862163 
L 273.957046 136.631351 
L 273.932758 136.462624 
L 275.639091 136.952677 
L 277.211689 136.73557 
L 278.384215 136.304224 
L 281.394841 135.962564 
L 283.141217 136.207272 
L 283.373359 136.474608 
L 283.474392 137.120958 
L 284.504529 136.991496 
L 285.118005 137.326527 
L 284.919401 138.259081 
L 284.295303 139.220001 
L 283.313623 140.342762 
L 281.747112 141.566428 
L 280.462334 142.401647 
L 279.56247 143.162797 
L 277.713987 143.785626 
L 276.247375 143.887168 
L 275.090484 144.297097 
L 274.206733 144.135764 
L 273.199094 143.881941 
L 270.5112 143.224436 
L 267.727405 142.547044 
L 266.1967 141.76556 
L 265.8461 141.633039 
L 264.862928 141.331728 
L 262.944922 140.939393 
L 262.054368 140.836895 
L 260.190369 141.202905 
L 258.862803 141.604738 
L 252.688064 141.851294 
L 249.924619 141.487961 
L 249.21405 140.961639 
" clip-path="url(#p43d5367f9d)" style="fill: #33a1ff"/>
    <path d="M 191.510885 110.546105 
L 192.898605 110.297828 
L 196.701258 110.093342 
L 197.936803 110.322305 
L 200.585848 110.039352 
L 200.764685 109.939867 
L 201.713139 109.412252 
L 201.714989 109.001304 
L 201.547238 108.830729 
L 201.625713 108.716821 
L 203.313964 107.402831 
L 204.095429 106.408511 
L 204.10074 105.857775 
L 204.268491 105.471495 
L 205.861857 103.820562 
L 207.000069 102.822672 
L 208.541337 102.309863 
L 208.855832 102.023404 
L 209.954001 102.010018 
L 211.234303 103.484766 
L 211.7221 104.795824 
L 212.253222 105.675471 
L 212.58198 105.931525 
L 212.688861 106.892954 
L 212.629184 107.326404 
L 213.405159 108.481228 
L 214.015233 108.818936 
L 215.401163 110.769969 
L 215.326507 111.732227 
L 215.688923 111.898786 
L 216.024783 111.507917 
L 216.666904 111.70163 
L 216.879949 111.902228 
L 217.812396 113.659547 
L 217.786914 114.79799 
L 217.058442 114.956517 
L 216.876667 115.570167 
L 217.10011 116.681516 
L 217.30246 117.68795 
L 217.571004 118.150976 
L 218.531798 118.412576 
L 219.04442 118.742699 
L 219.187644 119.37375 
L 219.30467 119.533125 
L 219.665057 120.023925 
L 220.822007 120.946088 
L 221.188333 121.122442 
L 221.327408 121.189394 
L 221.650259 120.698321 
L 222.220051 119.532278 
L 221.275191 118.984666 
L 221.675621 118.262016 
L 222.131372 118.032925 
L 223.299422 118.5305 
L 223.739955 118.176091 
L 224.641728 118.167422 
L 224.44766 118.757168 
L 224.115261 119.092454 
L 223.847194 119.493331 
L 223.579861 120.323972 
L 223.552272 120.409695 
L 223.525477 121.011042 
L 223.681293 121.668483 
L 224.183113 121.823314 
L 224.300676 121.808462 
L 224.408094 121.761228 
L 224.533236 121.731524 
L 224.564864 121.732863 
L 224.59518 121.736879 
L 224.628062 121.743635 
L 224.63946 121.749054 
L 224.681174 121.840843 
L 224.699053 121.892345 
L 224.726648 121.971834 
L 224.856922 122.191172 
L 225.453688 123.007077 
L 225.465623 123.262047 
L 225.232884 123.92497 
L 225.352238 124.587893 
L 225.459656 124.91298 
L 226.157872 125.996604 
L 226.354805 126.219703 
L 227.023147 126.6628 
L 228.258489 127.481806 
L 228.510434 127.46049 
L 228.861222 127.430812 
L 228.87719 127.76579 
L 228.907054 128.392305 
L 226.83371 129.861762 
L 226.318999 130.45221 
L 225.978842 130.611566 
L 225.405947 130.732677 
L 225.155305 130.624315 
L 225.137402 130.45221 
L 225.304496 130.101625 
L 224.914868 129.702214 
L 224.796913 129.669053 
L 224.065073 129.463307 
L 222.571308 129.71917 
L 222.10583 129.661802 
L 221.923932 129.839244 
L 221.214023 130.53176 
L 220.428917 130.841039 
L 219.444253 131.013144 
L 218.757972 130.828291 
L 218.578942 130.57332 
L 218.50733 130.139871 
L 218.50558 130.137576 
L 218.113465 129.623556 
L 216.970777 129.302931 
L 216.365455 128.938251 
L 216.045553 128.745523 
L 215.83903 128.621102 
L 214.646254 127.902507 
L 213.397521 127.949166 
L 210.930609 127.900531 
L 211.021735 127.519477 
L 210.953405 127.12217 
L 209.993209 126.532934 
L 209.918961 126.64074 
L 209.624049 127.068945 
L 209.184352 127.303454 
L 207.398232 127.596363 
L 206.61975 127.724027 
L 205.427094 127.933684 
L 202.911026 128.375984 
L 202.812382 128.393324 
L 201.917233 128.450693 
L 201.356273 128.195722 
L 200.854989 127.239584 
L 200.771442 126.889 
L 200.594859 126.387728 
L 200.293905 125.191998 
L 200.130515 124.542827 
L 199.709198 123.612631 
L 199.147104 122.885456 
L 198.429553 122.179571 
L 197.456123 121.702013 
L 197.387778 121.668483 
L 197.264009 121.32899 
L 197.28036 120.612396 
L 197.182013 120.025646 
L 196.602911 118.880383 
L 195.825265 118.131216 
L 194.986033 117.494619 
L 194.177176 116.358727 
L 194.286325 114.047612 
L 194.251772 113.462583 
L 194.098761 113.014919 
L 193.122631 111.911216 
L 191.902418 111.078697 
L 191.401617 110.737014 
L 191.510885 110.546105 
" clip-path="url(#p43d5367f9d)" style="fill: #33a1ff"/>
    <path d="M 101.383449 81.778253 
L 101.62693 80.649563 
L 101.633912 79.56033 
L 103.931401 77.481621 
L 104.350988 76.082217 
L 104.808827 74.776068 
L 105.571912 74.029769 
L 106.301518 73.541501 
L 107.194999 73.274883 
L 108.038823 73.023083 
L 109.69837 72.195322 
L 110.775175 71.413201 
L 111.904018 70.860043 
L 113.729644 69.451332 
L 114.407392 69.460001 
L 115.045693 69.24965 
L 115.945676 69.565622 
L 116.237136 70.063133 
L 116.741165 69.944317 
L 117.50425 70.042353 
L 117.92503 70.722359 
L 118.662573 70.427804 
L 118.719325 70.049109 
L 118.51177 69.726381 
L 119.286671 69.067346 
L 120.208615 69.179533 
L 120.904444 69.396322 
L 121.602959 69.345264 
L 122.642406 69.67271 
L 123.357451 69.474024 
L 124.132292 69.311608 
L 124.38741 68.870318 
L 125.553849 69.36955 
L 125.598546 69.866742 
L 126.831704 70.050257 
L 127.532248 69.99206 
L 128.617944 70.947497 
L 128.804076 71.269397 
L 129.768629 72.026914 
L 129.750069 72.675941 
L 130.335974 73.500132 
L 130.123227 74.117479 
L 130.562924 74.285887 
L 130.90332 74.496365 
L 130.919194 75.859245 
L 130.703164 76.997241 
L 130.269972 77.377657 
L 130.06182 78.092211 
L 129.509572 78.88944 
L 129.411345 79.782154 
L 129.028579 80.257228 
L 128.550211 80.464455 
L 128.471435 80.890847 
L 128.444047 81.039094 
L 128.199253 82.202779 
L 128.378581 83.088545 
L 128.558924 83.738337 
L 128.747383 84.22635 
L 128.503425 85.083433 
L 128.718977 86.235452 
L 128.253619 86.809391 
L 127.711934 87.753099 
L 127.214768 88.056195 
L 126.450788 88.424117 
L 125.735027 88.721604 
L 125.413549 89.278395 
L 125.296046 89.860493 
L 125.238181 89.862697 
L 124.720584 89.88242 
L 124.259045 90.494094 
L 123.539823 90.81695 
L 123.192565 91.228727 
L 122.508134 91.715975 
L 121.857002 92.071085 
L 120.038417 91.210879 
L 118.949916 91.010791 
L 117.838498 90.830782 
L 116.960536 91.098437 
L 115.237732 90.813444 
L 114.11975 90.529853 
L 113.332795 90.149884 
L 112.753932 90.408742 
L 112.40357 90.565422 
L 111.83903 90.00812 
L 110.437047 89.035855 
L 109.629384 87.913731 
L 108.97133 87.346485 
L 108.498572 86.655643 
L 106.16641 86.168395 
L 105.334637 85.685736 
L 103.361609 85.113902 
L 102.708747 84.551629 
L 102.205196 83.323182 
L 101.457508 82.498608 
L 101.383449 81.778253 
" clip-path="url(#p43d5367f9d)" style="fill: #33a1ff"/>
    <path d="M 74.111238 93.325794 
L 74.941638 90.946921 
L 75.064751 90.765 
L 75.967956 90.12273 
L 76.463392 89.592774 
L 76.631202 89.279479 
L 77.380621 88.567474 
L 78.734504 87.976517 
L 80.549927 86.97136 
L 81.131654 86.533066 
L 81.26903 86.304741 
L 81.432424 86.063092 
L 82.000307 84.000128 
L 82.972797 83.602119 
L 84.42455 83.484514 
L 85.234958 83.92778 
L 85.6259 84.737247 
L 85.581918 84.951422 
L 85.366664 85.103257 
L 85.115247 85.180385 
L 84.948152 85.076804 
L 84.801229 85.19103 
L 84.050377 86.555695 
L 83.609129 88.331436 
L 83.953761 89.38236 
L 84.010275 90.32116 
L 82.826768 91.045849 
L 81.311818 91.550818 
L 79.919801 91.804195 
L 79.083672 92.31847 
L 78.297373 93.454554 
L 77.40306 95.014526 
L 76.482309 97.143337 
L 76.767802 97.30741 
L 76.444116 97.751122 
L 75.716479 97.481045 
L 74.717731 96.737615 
L 73.832727 95.480165 
L 74.111238 93.325794 
" clip-path="url(#p43d5367f9d)" style="fill: #33a1ff"/>
   </g>
   <g id="text_1">
    <!-- HI -->
    <g transform="translate(229.877813 52.30455) scale(0.12 -0.12)">
     <defs>
      <path id="DejaVuSans-48" d="M 628 4666 
L 1259 4666 
L 1259 2753 
L 3553 2753 
L 3553 4666 
L 4184 4666 
L 4184 0 
L 3553 0 
L 3553 2222 
L 1259 2222 
L 1259 0 
L 628 0 
L 628 4666 
z
" transform="scale(0.015625)"/>
      <path id="DejaVuSans-49" d="M 628 4666 
L 1259 4666 
L 1259 0 
L 628 0 
L 628 4666 
z
" transform="scale(0.015625)"/>
     </defs>
     <use xlink:href="#DejaVuSans-48"/>
     <use xlink:href="#DejaVuSans-49" x="75.195312"/>
    </g>
   </g>
  </g>
 </g>
 <defs>
  <clipPath id="p43d5367f9d">
   <rect x="57.6" y="58.30455" width="357.12" height="232.4469"/>
  </clipPath>
 </defs>
</svg>
