<?xml version="1.0" encoding="utf-8" standalone="no"?>
<!DOCTYPE svg PUBLIC "-//W3C//DTD SVG 1.1//EN"
  "http://www.w3.org/Graphics/SVG/1.1/DTD/svg11.dtd">
<svg xmlns:xlink="http://www.w3.org/1999/xlink" width="460.8pt" height="345.6pt" viewBox="0 0 460.8 345.6" xmlns="http://www.w3.org/2000/svg" version="1.1">
 <metadata>
  <rdf:RDF xmlns:dc="http://purl.org/dc/elements/1.1/" xmlns:cc="http://creativecommons.org/ns#" xmlns:rdf="http://www.w3.org/1999/02/22-rdf-syntax-ns#">
   <cc:Work>
    <dc:type rdf:resource="http://purl.org/dc/dcmitype/StillImage"/>
    <dc:date>2023-06-19T14:47:53.474587</dc:date>
    <dc:format>image/svg+xml</dc:format>
    <dc:creator>
     <cc:Agent>
      <dc:title>Matplotlib v3.7.1, https://matplotlib.org/</dc:title>
     </cc:Agent>
    </dc:creator>
   </cc:Work>
  </rdf:RDF>
 </metadata>
 <defs>
  <style type="text/css">*{stroke-linejoin: round; stroke-linecap: butt}</style>
 </defs>
 <g id="figure_1">
  <g id="patch_1">
   <path d="M 0 345.6 
L 460.8 345.6 
L 460.8 0 
L 0 0 
z
" style="fill: #ffffff"/>
  </g>
  <g id="axes_1">
   <g id="PatchCollection_1">
    <path d="M 73.832727 120.986354 
L 74.023435 120.722386 
L 74.201855 120.410876 
L 74.293213 120.092786 
L 74.380325 119.612393 
L 74.20695 119.345135 
L 74.159198 118.88764 
L 74.210446 118.717213 
L 74.301904 118.715736 
L 74.496957 118.538929 
L 74.723279 118.153688 
L 74.842408 117.832777 
L 75.037761 117.768178 
L 75.588206 117.899927 
L 75.626917 117.853862 
L 75.687306 117.582105 
L 76.051538 117.231916 
L 76.190898 116.685313 
L 76.27761 116.206331 
L 76.269818 116.157177 
L 76.207781 116.094257 
L 76.032508 116.060548 
L 76.015325 115.750448 
L 76.066523 115.696728 
L 76.263524 115.728892 
L 76.530255 115.549198 
L 76.590744 115.486211 
L 76.917964 114.904287 
L 76.924158 114.832168 
L 76.696038 114.50058 
L 76.734799 114.241112 
L 76.826306 114.202702 
L 77.246832 114.265689 
L 77.672053 114.322498 
L 77.785339 114.116749 
L 77.884639 114.109094 
L 78.204316 113.949478 
L 78.103468 113.829682 
L 78.078193 113.662209 
L 78.124996 113.570952 
L 78.271099 113.561081 
L 78.538079 113.406098 
L 78.59707 113.317057 
L 78.485432 112.91476 
L 78.291478 112.518708 
L 78.28998 112.480365 
L 78.330439 112.041269 
L 78.446921 111.811011 
L 78.493524 111.76038 
L 78.617699 111.750307 
L 78.920244 111.49104 
L 78.890923 110.978281 
L 78.793122 110.792543 
L 78.807108 110.738756 
L 79.092869 110.672882 
L 79.425284 110.677649 
L 79.494364 110.592771 
L 79.484075 110.464985 
L 79.368042 110.183289 
L 79.012351 109.985129 
L 78.984529 109.665829 
L 78.945075 109.455293 
L 78.920943 109.326519 
L 78.801463 108.792205 
L 78.731584 108.657098 
L 78.728537 108.529647 
L 78.758057 108.400719 
L 79.535373 107.661059 
L 79.812193 107.375737 
L 80.067236 107.113314 
L 80.273977 107.064362 
L 80.337763 107.01373 
L 80.407842 106.786561 
L 80.568281 106.375266 
L 80.795501 106.057511 
L 80.654444 105.466522 
L 80.559739 105.288439 
L 80.503796 105.254595 
L 80.276775 105.260505 
L 80.015588 105.151318 
L 79.799606 104.831885 
L 79.773283 104.647759 
L 79.975529 104.575706 
L 80.199652 104.27494 
L 80.201351 104.08148 
L 80.167235 103.906487 
L 80.312089 103.657897 
L 80.444406 103.564356 
L 80.674623 103.527625 
L 80.919776 103.455304 
L 80.975769 103.410717 
L 81.09355 103.20846 
L 81.175867 102.988879 
L 81.226966 102.678779 
L 81.089804 102.353503 
L 80.851495 102.040449 
L 80.650597 102.000696 
L 80.26169 101.671928 
L 80.221281 101.598197 
L 80.157295 101.421055 
L 80.165737 101.318651 
L 80.27133 101.188379 
L 80.354047 100.867535 
L 80.354097 100.826104 
L 80.231221 100.649498 
L 80.117935 100.657086 
L 80.02408 100.685692 
L 79.945809 100.62801 
L 79.890265 100.50573 
L 80.298603 99.978667 
L 80.365535 99.974101 
L 80.5492 100.058643 
L 80.723574 100.064956 
L 81.29215 99.920112 
L 81.368373 99.874047 
L 81.402539 99.70362 
L 81.474116 99.603902 
L 81.964472 99.141572 
L 82.151283 99.063208 
L 82.311721 99.161382 
L 82.398933 99.176692 
L 82.654326 99.101417 
L 82.766412 99.030775 
L 82.898729 98.794339 
L 83.048178 98.290779 
L 83.099164 97.731673 
L 83.104172 97.676757 
L 83.082294 97.500219 
L 83.041785 97.412722 
L 82.677202 97.313004 
L 82.666263 97.191798 
L 82.783096 96.955362 
L 83.21461 96.583752 
L 83.401571 96.316629 
L 83.841078 95.681119 
L 83.97824 95.216036 
L 83.827092 95.140761 
L 83.767852 95.062464 
L 83.725744 94.957843 
L 83.672448 94.678901 
L 83.636484 94.344224 
L 83.290334 93.779357 
L 83.031445 93.650428 
L 82.866112 93.704215 
L 82.809968 93.693471 
L 82.554177 93.424938 
L 82.482349 93.2392 
L 82.440042 92.61289 
L 82.444637 92.313534 
L 82.564316 91.106978 
L 82.551829 91.044058 
L 82.45193 90.941251 
L 82.369213 90.939707 
L 82.189744 90.864566 
L 82.117867 90.585221 
L 82.120714 89.98342 
L 82.270363 89.558158 
L 82.278105 89.415396 
L 82.201582 89.260346 
L 82.064021 88.735433 
L 82.031104 88.486775 
L 81.974861 88.422311 
L 81.546943 88.276662 
L 80.988007 88.312319 
L 80.772974 88.506048 
L 80.188614 88.654517 
L 79.848207 88.712669 
L 79.763892 88.675736 
L 79.707799 88.493088 
L 79.46899 88.284183 
L 79.025637 88.044524 
L 78.808506 88.17493 
L 78.568049 88.159485 
L 78.404114 88.093409 
L 78.066805 88.102609 
L 77.998074 88.145585 
L 77.947925 88.236708 
L 77.864109 88.28049 
L 77.791932 88.274245 
L 77.389089 87.781698 
L 77.254774 87.284316 
L 77.551525 86.929763 
L 77.854569 86.868387 
L 78.165405 86.725626 
L 78.212008 86.468038 
L 78.183986 86.021354 
L 78.152718 85.929224 
L 78.065406 85.871609 
L 77.965257 85.932246 
L 77.808965 85.919957 
L 77.60587 85.855493 
L 77.385542 85.692788 
L 76.974557 85.313658 
L 76.669864 85.355156 
L 76.554181 85.275382 
L 76.499386 84.910017 
L 76.638446 84.738113 
L 76.668116 84.761145 
L 76.671263 84.891551 
L 76.769764 84.877718 
L 76.935396 84.609117 
L 76.873709 83.783505 
L 76.860172 83.602065 
L 76.840992 83.513897 
L 76.794489 83.463937 
L 76.762371 83.379059 
L 76.797635 83.306134 
L 77.136793 83.241267 
L 77.232197 83.307275 
L 77.2791 83.407061 
L 77.358869 83.485358 
L 77.599626 83.534445 
L 77.637937 83.534445 
L 78.05137 83.534512 
L 78.159211 83.664985 
L 78.761104 83.483948 
L 79.292818 83.183249 
L 79.511996 82.514097 
L 79.533974 82.34837 
L 79.371488 82.073457 
L 79.157504 81.265908 
L 79.066995 80.736361 
L 79.217244 80.587489 
L 79.59766 80.0151 
L 79.588319 79.95218 
L 79.536671 79.939825 
L 79.480478 79.704933 
L 79.451108 79.004959 
L 79.445014 78.611996 
L 79.48887 78.59823 
L 79.701855 78.354273 
L 79.74581 78.175653 
L 79.747109 78.085672 
L 79.733373 77.434785 
L 79.609898 76.82224 
L 79.539519 76.717822 
L 79.354755 76.622602 
L 79.306204 76.634824 
L 79.306204 76.711577 
L 79.254506 76.765297 
L 78.956956 76.802028 
L 78.163157 76.19405 
L 77.934488 76.014423 
L 77.677647 75.612193 
L 77.389388 75.314381 
L 77.135644 75.179342 
L 77.275054 74.875353 
L 77.332995 74.622062 
L 77.303225 74.549943 
L 77.055625 74.338084 
L 76.717217 74.307463 
L 76.421115 74.342852 
L 76.334417 74.30838 
L 76.170318 74.243133 
L 76.102936 74.177125 
L 75.685658 73.136564 
L 75.67307 73.052089 
L 75.813978 72.637571 
L 76.418868 72.113933 
L 76.585 71.796178 
L 76.558327 71.693371 
L 76.497039 71.215933 
L 76.765118 71.005551 
L 76.562722 70.434573 
L 76.501534 70.353187 
L 76.292845 70.138373 
L 76.231706 70.13374 
L 76.07956 70.204449 
L 75.896045 70.086264 
L 75.856785 70.023345 
L 75.869426 69.725867 
L 75.869472 69.724795 
L 76.254833 69.720967 
L 83.14553 69.729294 
L 88.250429 69.733121 
L 89.199321 69.727615 
L 95.355509 69.729227 
L 95.857402 69.734531 
L 95.871488 69.732987 
L 103.130237 69.743661 
L 112.721086 69.757765 
L 112.73139 69.757765 
L 114.056288 69.757765 
L 114.712826 69.757833 
L 118.694208 69.762802 
L 118.73197 69.7626 
L 130.022527 69.764548 
L 131.419667 69.738963 
L 131.422964 69.737083 
L 132.005975 69.732987 
L 133.022899 69.717677 
L 133.022899 69.711969 
L 133.036534 69.712228 
L 134.04252 69.731308 
L 134.047216 69.734397 
L 136.36228 69.739366 
L 136.364228 69.739366 
L 136.365472 69.739355 
L 136.990745 69.73386 
L 137.017319 69.734397 
L 143.19948 69.724325 
L 143.20982 69.728219 
L 143.505421 69.675171 
L 144.999214 69.696054 
L 146.723224 69.703508 
L 147.349193 69.696054 
L 147.379013 69.70371 
L 147.99629 69.725332 
L 149.609812 69.704784 
L 149.997371 69.710693 
L 153.023567 69.697733 
L 153.062777 69.703844 
L 154.036994 69.701023 
L 155.023749 69.696927 
L 156.012001 69.720363 
L 157.016038 69.72137 
L 158.009136 69.724123 
L 159.000735 69.722579 
L 159.983244 69.725265 
L 159.985741 69.725265 
L 159.99929 69.725265 
L 160.004822 69.725265 
L 161.36505 69.721773 
L 162.017192 69.71808 
L 162.092615 69.71761 
L 162.718634 69.718818 
L 162.834767 69.714185 
L 163.000195 69.71425 
L 174.920121 69.718953 
L 177.430139 69.733323 
L 177.671245 69.730167 
L 182.187588 69.732651 
L 183.35501 69.712573 
L 183.564805 69.716322 
L 183.565447 69.716334 
L 186.174714 69.723989 
L 186.830603 69.730032 
L 193.299107 69.733152 
L 200.196415 69.736479 
L 200.286924 69.735337 
L 200.972682 69.735203 
L 201.044859 69.735203 
L 207.145403 69.782007 
L 215.884934 69.787714 
L 215.960258 69.786237 
L 217.248311 69.785771 
L 219.859723 69.784827 
L 220.231648 69.78476 
L 220.424204 69.784491 
L 220.702473 69.783954 
L 223.24051 69.785116 
L 224.809029 69.785834 
L 226.827143 69.787714 
L 227.731081 69.787647 
L 229.052397 69.790938 
L 229.237011 69.791005 
L 230.789295 69.792012 
L 230.792044 69.792028 
L 231.246034 69.794631 
L 231.558318 69.790266 
L 232.018105 69.795772 
L 232.229941 69.790871 
L 234.230622 69.790535 
L 235.702836 69.790065 
L 242.058173 69.798727 
L 244.202959 69.784558 
L 247.18435 69.78446 
L 253.177353 69.784263 
L 254.414255 69.784223 
L 254.418319 69.784212 
L 255.24132 69.782074 
L 262.114085 69.785834 
L 266.108055 69.784558 
L 268.017578 69.749842 
L 270.254121 69.750849 
L 270.979689 69.751252 
L 271.16715 69.751319 
L 271.98897 69.751789 
L 272.9511 69.752125 
L 273.157092 69.752192 
L 277.953901 69.735337 
L 277.955548 69.735336 
L 282.382233 69.732316 
L 283.159308 69.727268 
L 285.163077 69.714252 
L 285.29804 69.723519 
L 286.188742 69.723049 
L 287.157264 69.724996 
L 291.643937 69.726205 
L 291.726803 69.72419 
L 295.65469 69.720094 
L 296.649935 69.707604 
L 300.395006 69.706127 
L 301.090105 69.709552 
L 301.5904 69.712036 
L 301.597994 69.712049 
L 308.087594 69.722914 
L 308.489288 69.718281 
L 313.02955 69.711499 
L 314.332842 69.709552 
L 315.21655 69.711969 
L 315.327988 69.707403 
L 316.608446 69.701561 
L 316.688465 69.707739 
L 317.501345 69.712708 
L 318.648587 69.720228 
L 318.742892 69.717811 
L 318.904129 69.713648 
L 319.052529 69.70982 
L 319.059601 69.709852 
L 320.531537 69.716468 
L 322.023881 69.721034 
L 322.646802 69.719691 
L 322.996699 69.724996 
L 323.319973 69.71996 
L 323.577313 69.717005 
L 323.784404 69.724392 
L 323.840897 69.726003 
L 323.853435 69.723317 
L 324.28465 69.706664 
L 324.525706 69.710022 
L 324.694436 69.70935 
L 324.72001 69.710962 
L 324.80003 69.71855 
L 325.019708 69.719893 
L 325.022875 69.719891 
L 326.009809 69.71949 
L 328.01039 69.719288 
L 328.499946 69.7209 
L 328.870272 69.717878 
L 331.006317 69.709149 
L 332.303957 69.714655 
L 332.486773 69.712372 
L 333.259543 69.715998 
L 333.466634 69.726071 
L 335.687743 69.69592 
L 336.705166 69.723116 
L 336.971997 69.692025 
L 337.086032 69.699949 
L 342.457811 69.688802 
L 343.210352 69.722713 
L 344.65934 69.71855 
L 344.631168 69.941623 
L 344.663885 70.359297 
L 344.780418 70.7763 
L 344.742806 71.021802 
L 344.524826 71.682292 
L 344.315687 72.070487 
L 344.070084 72.266432 
L 343.933322 72.440284 
L 343.88607 72.590297 
L 343.877079 72.765962 
L 343.931574 73.049068 
L 344.107696 73.412686 
L 345.186857 74.789669 
L 345.266495 74.92951 
L 345.386706 75.140596 
L 345.482609 75.402617 
L 345.525815 75.617632 
L 345.517424 75.90067 
L 345.573317 76.266908 
L 345.641249 76.522683 
L 345.66013 76.78383 
L 345.596045 77.153089 
L 345.508733 77.415311 
L 345.302441 77.88825 
L 345.240453 78.150875 
L 345.175769 78.239312 
L 344.876421 78.478501 
L 344.795003 78.618912 
L 344.805992 78.762077 
L 345.213081 79.658532 
L 345.345747 79.837958 
L 345.45149 79.888253 
L 346.142443 79.989046 
L 346.487045 80.10159 
L 346.989538 80.434588 
L 347.801169 80.846957 
L 348.673439 81.187342 
L 348.899711 81.303311 
L 349.084125 81.416123 
L 349.656547 81.887383 
L 350.177222 82.269267 
L 351.255384 83.731463 
L 351.543943 84.342329 
L 351.851882 84.881344 
L 351.951082 85.106566 
L 351.958574 85.32138 
L 351.898235 85.578565 
L 351.904878 85.728579 
L 351.95238 85.803452 
L 352.040342 85.853277 
L 352.446881 85.874765 
L 352.549178 85.933723 
L 352.604422 86.027398 
L 352.640686 86.182716 
L 352.641085 86.276592 
L 352.552475 86.639338 
L 352.40872 87.002016 
L 352.217113 87.262022 
L 351.944438 87.539285 
L 351.573763 88.002958 
L 351.165275 88.430571 
L 350.142557 89.458842 
L 349.85195 89.705284 
L 349.58392 89.87598 
L 349.431324 90.084884 
L 349.345111 90.334616 
L 349.318538 90.714015 
L 348.831779 91.619267 
L 348.744667 91.685276 
L 348.608205 91.915534 
L 348.472991 92.349056 
L 348.376739 92.827435 
L 348.231036 93.096573 
L 347.73154 93.731814 
L 347.519304 93.89096 
L 347.023654 94.105237 
L 346.77985 94.287818 
L 346.692438 94.477115 
L 346.646035 94.676618 
L 346.630101 94.938034 
L 346.656225 95.357656 
L 346.782847 96.362358 
L 346.681499 97.942 
L 346.679401 98.42978 
L 346.604627 98.591276 
L 346.569862 98.802867 
L 346.647933 99.019158 
L 346.638293 99.164336 
L 346.807872 100.731019 
L 347.127999 102.026146 
L 347.667105 103.903062 
L 347.700938 104.125003 
L 347.704417 104.147825 
L 347.713458 104.792736 
L 347.765555 104.957388 
L 347.995973 105.310599 
L 348.141076 105.603307 
L 348.213553 105.791999 
L 348.269497 106.136748 
L 348.264002 106.250971 
L 348.086681 106.919519 
L 348.047221 107.228343 
L 348.052016 107.343237 
L 348.265151 108.005741 
L 348.325191 108.259972 
L 348.350915 108.509435 
L 348.347019 108.659247 
L 348.247619 109.040593 
L 348.231935 109.217131 
L 348.232184 109.384201 
L 348.263003 109.509772 
L 348.30566 109.645147 
L 348.372143 109.73204 
L 348.640622 109.79234 
L 349.669035 110.325178 
L 349.763889 110.403408 
L 349.93142 110.639978 
L 350.336361 110.987682 
L 350.510485 111.181948 
L 350.626718 111.670802 
L 350.597648 112.43477 
L 350.655789 112.740304 
L 350.772022 113.045904 
L 350.946446 113.320885 
L 350.968174 113.412545 
L 350.782761 114.41268 
L 350.835408 114.691555 
L 351.03141 114.797384 
L 351.399339 114.747693 
L 351.604382 114.902071 
L 351.571964 115.396902 
L 351.632753 116.322434 
L 351.763421 117.065115 
L 351.914968 117.584455 
L 351.980352 117.901942 
L 352.001431 118.405703 
L 352.059722 118.800143 
L 352.374155 119.181624 
L 352.523654 119.322639 
L 352.530247 119.447606 
L 352.465163 119.582712 
L 352.380848 119.629785 
L 352.262368 119.642678 
L 352.247832 119.890731 
L 352.302927 120.056793 
L 352.5281 120.085869 
L 352.632045 120.1688 
L 352.721654 120.296721 
L 352.795929 120.475005 
L 352.796379 120.754148 
L 352.849725 120.90799 
L 352.972501 120.991055 
L 353.037585 120.997501 
L 353.207464 120.979908 
L 353.328941 120.883346 
L 353.566502 120.891874 
L 353.764552 120.968291 
L 353.93463 121.160072 
L 353.986028 121.28994 
L 353.999315 121.482393 
L 354.050563 121.6778 
L 354.195717 121.848765 
L 354.672586 122.161819 
L 354.750107 122.184449 
L 355.055299 122.124416 
L 355.527273 122.388585 
L 355.756642 122.555454 
L 356.094301 122.889862 
L 356.503788 123.547397 
L 356.645794 123.689487 
L 356.820518 123.794712 
L 357.279505 123.930087 
L 357.910518 124.363541 
L 358.070457 124.444457 
L 358.452371 124.56056 
L 358.678243 124.590442 
L 359.036082 124.54149 
L 359.348118 124.449359 
L 359.471943 124.455672 
L 359.859302 124.62066 
L 360.515589 125.070231 
L 360.683577 125.136832 
L 361.156493 125.324327 
L 362.170719 125.575603 
L 362.901382 125.837892 
L 363.330299 125.955472 
L 363.890134 126.050087 
L 365.672586 126.445602 
L 366.111692 126.572113 
L 366.584915 126.634093 
L 367.047298 126.736295 
L 367.502139 126.891547 
L 368.336897 127.13134 
L 368.963515 127.2739 
L 369.509114 127.453796 
L 370.05881 127.768059 
L 370.203713 127.896249 
L 370.38513 128.125433 
L 370.475789 128.414917 
L 370.5138 128.682444 
L 370.818293 129.216423 
L 370.916594 129.494626 
L 371.117991 130.24456 
L 371.129179 130.552914 
L 371.169139 130.743084 
L 371.243464 130.888128 
L 371.548756 131.432784 
L 371.664639 131.586424 
L 371.880821 131.762089 
L 372.440256 132.339581 
L 372.560135 133.017731 
L 372.809883 133.554933 
L 373.234455 133.944405 
L 373.319369 134.192793 
L 373.484203 135.045601 
L 373.679006 135.649887 
L 373.669016 136.019213 
L 373.373515 136.336229 
L 373.084606 137.033182 
L 372.719974 137.462876 
L 372.719684 137.464499 
L 372.690004 137.630752 
L 372.699994 138.006793 
L 372.814878 138.349259 
L 373.17951 138.792384 
L 373.470551 139.019467 
L 374.298331 139.665337 
L 375.197424 140.162182 
L 375.992222 140.431589 
L 376.406204 140.6368 
L 376.97523 140.820523 
L 377.113491 140.908624 
L 377.249354 141.01922 
L 377.489561 141.411714 
L 377.571379 141.705832 
L 377.602997 142.211674 
L 377.633866 142.327576 
L 377.760338 142.537085 
L 378.107488 142.74008 
L 379.633548 143.418029 
L 380.167359 143.701873 
L 380.502071 143.920313 
L 380.719951 144.130694 
L 380.991278 144.487464 
L 381.150117 144.618541 
L 381.27664 144.65957 
L 381.500064 144.653795 
L 381.64337 144.708992 
L 381.801111 144.847657 
L 381.816537 144.865841 
L 381.993317 145.074222 
L 382.26729 145.672061 
L 382.375631 145.819724 
L 382.869882 146.353569 
L 383.189759 146.505463 
L 383.311936 146.627878 
L 383.977664 147.860622 
L 384.236553 148.145675 
L 384.437001 148.289578 
L 384.553034 148.421662 
L 384.677508 148.649705 
L 384.707378 148.811537 
L 384.694241 148.90454 
L 384.648038 148.996603 
L 384.500686 149.148497 
L 384.452135 149.254057 
L 384.489448 149.550794 
L 384.481756 149.974915 
L 384.288351 150.783941 
L 384.159331 150.959002 
L 383.968224 151.396015 
L 383.960781 151.797641 
L 384.299739 152.594446 
L 384.395493 153.028572 
L 384.538099 153.393332 
L 384.688497 153.580547 
L 384.980402 153.844448 
L 385.470807 154.41227 
L 385.709067 154.825916 
L 385.76571 155.099486 
L 385.947576 155.340287 
L 386.745721 156.056243 
L 387.244767 156.343981 
L 387.653055 156.685172 
L 388.591858 156.827799 
L 389.086159 156.980499 
L 389.601908 157.459816 
L 389.61058 157.467875 
L 390.576206 157.88508 
L 391.388836 158.471301 
L 392.042826 158.763136 
L 392.723339 158.943032 
L 392.989421 158.966669 
L 393.749154 159.372122 
L 394.282366 159.734935 
L 394.688806 159.956396 
L 395.019872 160.228355 
L 395.122668 160.468148 
L 395.175215 160.710493 
L 395.225614 161.141665 
L 395.423215 161.688403 
L 395.62611 161.874677 
L 395.970263 162.034763 
L 396.119013 162.058669 
L 396.943381 162.073778 
L 397.115057 162.256628 
L 397.346724 162.643212 
L 397.397223 162.840499 
L 397.433436 163.337948 
L 397.416204 163.838889 
L 397.321249 164.59762 
L 397.073849 165.392276 
L 397.213858 166.274697 
L 397.226895 167.058005 
L 397.267304 167.653493 
L 397.319201 167.767514 
L 397.549819 167.944657 
L 397.779986 168.259994 
L 397.911953 168.423841 
L 397.94507 168.503951 
L 398.00416 168.697075 
L 398.035179 168.957954 
L 398.085928 169.136909 
L 398.30171 169.481592 
L 398.432028 169.881136 
L 398.487273 170.262482 
L 398.459701 170.749523 
L 398.188974 171.277324 
L 398.179383 171.734617 
L 398.060803 171.940097 
L 397.799317 172.218972 
L 397.384386 173.080039 
L 397.284786 173.423513 
L 397.244627 173.914851 
L 397.299172 174.17855 
L 397.45896 174.453127 
L 397.646072 174.632016 
L 397.858008 174.976026 
L 397.910904 175.114087 
L 397.898997 175.254073 
L 397.822893 176.148806 
L 397.811804 176.751748 
L 397.640227 177.328904 
L 397.238333 178.285258 
L 396.989784 178.778006 
L 396.853721 179.468982 
L 396.841683 180.056346 
L 396.739536 180.309704 
L 396.422356 180.912847 
L 396.397382 181.008939 
L 396.304276 181.477379 
L 396.293886 181.690245 
L 396.406422 182.393376 
L 396.460218 183.106511 
L 396.444684 183.282781 
L 396.393785 183.436152 
L 396.094287 183.698508 
L 394.649745 184.22416 
L 394.381316 184.372025 
L 393.376493 185.054824 
L 393.376467 185.054842 
L 393.064245 185.267003 
L 392.565199 185.569851 
L 392.332234 185.78359 
L 391.565657 186.102823 
L 390.359424 187.266335 
L 389.963524 187.791248 
L 389.738151 188.325093 
L 389.681321 188.686308 
L 389.615875 189.10229 
L 389.628212 189.394863 
L 389.833056 189.988405 
L 389.854384 190.120422 
L 389.860528 190.463022 
L 389.827311 190.754723 
L 389.764774 190.973096 
L 389.633507 191.185291 
L 389.503188 191.316166 
L 388.988808 191.703422 
L 388.875971 191.82483 
L 388.773874 191.998547 
L 388.663785 193.007614 
L 388.327974 194.187645 
L 388.334068 194.59753 
L 388.523977 197.432748 
L 388.424077 197.96995 
L 388.339163 198.157971 
L 387.295216 198.708603 
L 386.436033 198.910054 
L 385.60682 199.205515 
L 385.217213 199.448067 
L 384.862571 199.668851 
L 384.712722 199.830012 
L 384.393045 200.414219 
L 384.2464 200.520656 
L 384.143247 200.595525 
L 383.868524 200.729825 
L 383.583812 201.092437 
L 383.244154 201.629639 
L 382.434921 202.475732 
L 381.790571 202.730903 
L 381.011307 202.831628 
L 380.515858 202.844078 
L 380.476847 202.845058 
L 379.852427 202.744333 
L 378.85838 202.381721 
L 378.463778 202.301141 
L 378.235052 202.339346 
L 377.699549 202.428794 
L 377.150054 202.8787 
L 376.95525 202.959281 
L 376.4108 203.039861 
L 375.961203 203.194307 
L 375.751415 203.315177 
L 375.406763 203.650928 
L 375.301869 204.255281 
L 375.216954 204.443301 
L 374.58759 205.061084 
L 373.888245 205.48413 
L 373.503633 205.846741 
L 373.004137 206.404088 
L 372.72437 206.598824 
L 372.204894 206.69955 
L 371.695408 206.68612 
L 370.970539 206.967412 
L 370.460654 207.094997 
L 369.342482 207.262537 
L 368.643588 207.404963 
L 368.013973 207.438202 
L 366.938558 207.36239 
L 366.643306 207.328815 
L 366.208795 207.219561 
L 365.159803 207.113598 
L 364.288033 207.113531 
L 363.654772 207.035905 
L 363.198033 207.068272 
L 362.846088 207.151001 
L 362.648787 207.228761 
L 362.162877 207.533354 
L 361.538707 208.013478 
L 360.988812 208.391736 
L 360.5051 208.679005 
L 359.562052 209.052696 
L 359.312703 209.235949 
L 359.029339 209.33372 
L 358.041586 209.148452 
L 357.871408 209.087211 
L 357.198886 208.753071 
L 356.774015 208.488902 
L 356.541899 208.46634 
L 356.288005 208.496692 
L 355.241661 209.016032 
L 354.93527 209.090636 
L 354.145717 209.186056 
L 353.678988 209.426857 
L 353.542076 209.527179 
L 353.336484 209.703516 
L 353.24148 209.825192 
L 353.145127 210.039066 
L 353.019803 210.767713 
L 352.985738 211.606621 
L 352.957266 211.759254 
L 352.284046 212.845879 
L 352.211019 213.104743 
L 351.959673 214.823454 
L 351.940264 215.230297 
L 351.939515 215.246007 
L 351.875708 216.583529 
L 351.795389 217.111464 
L 351.662323 217.363278 
L 351.194046 217.864017 
L 350.936605 218.364958 
L 350.481665 219.690638 
L 350.315832 220.030754 
L 350.024026 220.43473 
L 349.830122 220.841593 
L 349.856995 221.420966 
L 349.922679 221.581992 
L 350.061089 221.74557 
L 350.497299 222.150822 
L 350.887455 222.681107 
L 351.465522 223.232142 
L 351.888345 223.720862 
L 352.242038 224.233487 
L 352.782992 225.15687 
L 353.45896 226.474895 
L 354.03373 226.649351 
L 354.174338 226.660565 
L 354.90645 226.489399 
L 355.154749 226.471873 
L 355.638261 226.71489 
L 355.785413 226.845161 
L 356.049996 227.174735 
L 356.467175 228.051515 
L 356.989647 228.894385 
L 357.236698 229.602686 
L 357.669212 230.171717 
L 358.199626 231.14224 
L 358.218008 231.269691 
L 358.120706 231.962749 
L 358.061965 232.748541 
L 358.074303 232.889557 
L 358.081594 232.913826 
L 358.253472 233.485918 
L 358.302023 234.122166 
L 358.348227 234.365116 
L 358.414759 235.047698 
L 358.418106 235.300855 
L 358.264711 236.336513 
L 358.278197 236.830873 
L 358.233492 237.194962 
L 358.049428 237.950201 
L 357.771359 238.51715 
L 357.624457 238.989754 
L 357.627104 239.199531 
L 357.775854 239.655145 
L 357.895533 240.17697 
L 357.932896 240.435431 
L 357.919609 240.716858 
L 357.508574 241.904813 
L 357.385997 242.670259 
L 357.26472 242.893466 
L 357.082354 243.061745 
L 356.573118 243.303821 
L 356.259834 243.530856 
L 355.608591 243.800867 
L 355.357045 244.000572 
L 355.057347 244.308188 
L 354.944626 244.469503 
L 354.872334 244.572961 
L 354.456653 245.419121 
L 354.160602 245.744666 
L 353.696071 246.022332 
L 353.580787 246.121244 
L 353.303267 246.47103 
L 353.168853 246.71962 
L 353.024149 247.131923 
L 352.715011 247.811953 
L 352.599178 247.951491 
L 352.179102 248.241043 
L 351.661524 248.817998 
L 351.034607 249.406704 
L 350.888704 249.645692 
L 350.696248 250.281068 
L 350.656138 250.68679 
L 350.687007 250.895224 
L 350.925517 251.537315 
L 350.975966 251.952639 
L 350.953139 252.423765 
L 350.731862 253.268112 
L 350.633361 253.530065 
L 350.414532 253.94351 
L 350.12912 254.355879 
L 350.018032 254.718961 
L 349.75275 256.08614 
L 349.781571 256.305922 
L 349.845157 256.464598 
L 349.984516 257.220039 
L 349.992908 257.557133 
L 349.942309 257.976419 
L 349.917654 258.026064 
L 349.769134 258.32513 
L 349.558097 259.395035 
L 349.498756 259.604208 
L 349.418787 259.745358 
L 349.343513 259.847628 
L 348.637875 260.402222 
L 347.826794 260.892217 
L 346.27159 261.934748 
L 346.194091 261.986699 
L 345.648342 262.066608 
L 344.622827 261.910148 
L 343.153609 261.913304 
L 342.892722 261.942044 
L 342.634233 262.028668 
L 342.299371 262.215279 
L 341.738837 262.326278 
L 340.222917 262.729784 
L 338.56484 263.585479 
L 338.114594 263.84018 
L 337.852059 264.051166 
L 337.558155 264.369996 
L 336.83993 265.660288 
L 336.565207 266.206891 
L 335.479803 267.213607 
L 335.292042 267.53707 
L 335.235499 267.725762 
L 335.211623 268.012762 
L 335.244041 268.339045 
L 335.347786 268.578839 
L 335.517615 268.735836 
L 335.8298 268.886656 
L 336.149877 268.985635 
L 336.326498 269.128061 
L 336.460064 269.309434 
L 337.099318 270.3647 
L 337.158409 270.502559 
L 337.341474 271.203339 
L 337.367848 271.59496 
L 337.356509 271.869537 
L 337.30631 272.269349 
L 337.148519 272.909023 
L 336.645526 274.13438 
L 336.557465 274.422052 
L 336.479494 274.829654 
L 336.464459 275.063673 
L 336.504619 275.544469 
L 336.67145 276.15285 
L 336.866453 276.719866 
L 336.929939 277.150702 
L 336.924745 277.840671 
L 336.906413 277.98115 
L 336.765306 278.466579 
L 336.63164 278.614914 
L 336.455019 278.751766 
L 336.135241 278.933273 
L 335.703877 279.054278 
L 334.903934 279.111355 
L 334.769869 279.171522 
L 334.583707 279.380829 
L 334.438753 279.201202 
L 334.272021 279.096985 
L 333.493757 278.844232 
L 332.30131 278.911248 
L 331.332737 279.002371 
L 331.128444 277.920647 
L 331.160511 277.755726 
L 331.166805 277.661649 
L 331.134238 277.631364 
L 331.067555 277.631364 
L 330.876348 277.757875 
L 330.654122 277.79192 
L 330.295534 277.68542 
L 330.221958 277.630155 
L 330.187893 277.550314 
L 330.106175 277.466309 
L 329.859924 277.34799 
L 329.640195 277.338253 
L 329.443344 277.273386 
L 329.329509 277.198379 
L 329.23895 277.02117 
L 329.207382 276.800581 
L 329.232457 276.586842 
L 329.490546 276.142576 
L 329.609227 275.819583 
L 329.603133 275.717246 
L 329.563123 275.660101 
L 329.310128 275.67286 
L 329.103737 275.619878 
L 328.920172 275.451197 
L 328.879413 275.348054 
L 328.883159 275.181253 
L 328.964877 275.051921 
L 329.254784 274.789767 
L 329.357431 274.668695 
L 329.396491 274.559643 
L 329.406431 274.412382 
L 329.366871 274.138611 
L 329.305633 274.036945 
L 329.252437 273.984568 
L 329.13031 273.959253 
L 328.371825 274.016532 
L 327.926974 273.974899 
L 327.369886 273.825892 
L 327.175133 273.738463 
L 326.825336 273.511898 
L 326.545169 273.152577 
L 326.486578 273.02761 
L 326.441173 272.904927 
L 326.397318 272.608458 
L 326.219048 272.063534 
L 326.022596 271.723821 
L 325.831439 271.542179 
L 325.146979 271.203541 
L 324.923505 271.046611 
L 324.717363 270.884308 
L 324.590591 270.727177 
L 324.497335 270.529889 
L 324.446936 270.241815 
L 324.455227 270.061987 
L 324.625206 269.441115 
L 324.663417 268.921104 
L 324.614916 268.581726 
L 324.56137 268.465355 
L 324.470013 268.366308 
L 324.307127 268.285191 
L 323.661728 268.148137 
L 322.849398 267.903173 
L 322.017837 267.785795 
L 321.482327 267.644913 
L 321.13338 267.352474 
L 321.028286 267.184397 
L 320.988975 267.028004 
L 320.990674 266.850392 
L 321.282079 266.050095 
L 321.299162 265.908609 
L 321.250411 265.77545 
L 321.127386 265.605292 
L 320.750816 265.287067 
L 319.968305 264.823864 
L 319.731344 264.589913 
L 319.56706 264.388664 
L 319.114667 263.575273 
L 316.27748 263.71978 
L 315.805056 263.745767 
L 315.567346 263.755705 
L 314.876293 263.784378 
L 314.333941 263.806874 
L 313.951577 263.833331 
L 312.157387 263.950038 
L 308.61641 264.078228 
L 308.425543 264.09893 
L 308.196034 264.123823 
L 307.033208 264.14793 
L 305.649854 264.193525 
L 304.103115 264.241873 
L 302.192293 264.313388 
L 302.111524 264.305061 
L 301.47127 264.345083 
L 301.428264 264.340517 
L 300.945001 264.351395 
L 300.769578 264.368317 
L 296.604132 264.455679 
L 295.785857 264.486569 
L 295.510785 264.492545 
L 294.714888 264.502483 
L 293.77179 264.522695 
L 290.661428 264.594009 
L 289.040514 264.638597 
L 289.028526 264.644707 
L 288.06295 264.674254 
L 288.061416 264.674308 
L 286.618658 264.725623 
L 282.91969 264.807614 
L 282.526887 264.803115 
L 281.523749 264.830915 
L 281.488684 264.834071 
L 281.379095 264.832057 
L 276.599418 265.018264 
L 273.721322 265.105425 
L 273.655139 265.107305 
L 271.284032 265.17553 
L 271.126141 265.170494 
L 269.8902 265.19197 
L 268.509881 265.215955 
L 267.751896 265.236032 
L 264.222757 265.257185 
L 264.226204 265.262423 
L 263.872461 265.264504 
L 262.757736 265.272831 
L 262.47587 265.285254 
L 261.669484 265.274107 
L 261.139119 265.294386 
L 260.452412 265.306406 
L 258.55178 265.314263 
L 257.744994 265.335281 
L 251.362934 265.538544 
L 250.774578 265.564666 
L 250.714089 265.567419 
L 248.851218 265.64256 
L 242.617009 265.780688 
L 239.770232 265.789149 
L 238.379785 265.799692 
L 236.934044 265.811758 
L 233.56839 265.839848 
L 232.393076 265.823194 
L 232.313656 265.829372 
L 229.454691 265.801908 
L 229.280717 265.804929 
L 229.252246 265.809563 
L 228.247909 265.806205 
L 227.963096 265.81386 
L 227.817593 265.818427 
L 227.715746 265.821516 
L 227.62284 265.813793 
L 227.400964 265.824604 
L 227.372492 265.829171 
L 227.353561 265.82635 
L 225.796982 265.868051 
L 222.856999 265.944871 
L 222.704103 265.946348 
L 222.572186 265.944736 
L 222.225936 265.952324 
L 221.813652 265.959979 
L 221.152619 265.976901 
L 219.548737 265.992614 
L 219.253435 265.998926 
L 218.808684 265.999262 
L 218.533961 266.000874 
L 218.161137 265.987309 
L 217.161746 265.99436 
L 216.95629 265.996417 
L 214.901327 266.01699 
L 214.73949 266.029883 
L 213.630359 266.049692 
L 212.994701 266.062115 
L 210.763402 266.102069 
L 210.713952 266.106703 
L 210.636031 266.111269 
L 209.98249 266.124833 
L 208.897285 266.147799 
L 208.865817 266.150887 
L 208.826857 266.141688 
L 208.750434 266.150887 
L 208.688996 266.157065 
L 207.489906 266.186477 
L 206.845406 266.194468 
L 204.911058 266.242883 
L 203.979898 266.264976 
L 201.677771 266.311041 
L 201.665783 266.311041 
L 201.229673 266.317286 
L 201.135218 266.311175 
L 194.084581 266.377629 
L 191.33186 266.403574 
L 190.959087 266.415661 
L 190.164339 266.403372 
L 189.462996 266.406528 
L 188.874041 266.406663 
L 188.866548 266.408207 
L 187.787587 266.414184 
L 184.220287 266.435806 
L 182.703667 266.442118 
L 182.176199 266.449975 
L 182.147978 266.45031 
L 181.245538 266.458234 
L 179.017886 266.456085 
L 178.859047 266.454474 
L 178.79611 266.454474 
L 178.620787 266.451385 
L 178.604503 266.451385 
L 176.014767 266.440842 
L 174.115134 266.426069 
L 171.589232 266.385712 
L 169.974662 266.357912 
L 169.887749 266.357912 
L 167.024489 266.305803 
L 165.166364 266.268535 
L 164.727307 266.256313 
L 164.538497 266.241003 
L 160.890029 266.187552 
L 160.657763 266.178218 
L 159.986191 266.165392 
L 157.976319 266.125035 
L 157.409042 266.113619 
L 156.15181 266.12349 
L 152.292704 266.043716 
L 151.7522 266.035188 
L 150.85985 266.024376 
L 150.380034 266.027868 
L 150.22569 266.024914 
L 150.207708 266.021825 
L 150.129837 266.020347 
L 149.699921 266.007925 
L 148.018118 265.977908 
L 147.54065 265.967366 
L 145.632252 265.933068 
L 145.175536 265.92486 
L 145.166445 265.924591 
L 145.110252 265.922912 
L 145.079683 265.922241 
L 144.873491 265.91754 
L 144.807158 265.916063 
L 144.670196 265.912974 
L 138.972795 265.842869 
L 137.863215 265.827492 
L 137.059476 265.800565 
L 137.057977 265.80054 
L 134.985918 265.766117 
L 132.292986 265.730796 
L 129.492162 265.693863 
L 129.427727 265.690774 
L 129.103055 265.683186 
L 128.015302 265.657669 
L 127.061914 265.635241 
L 125.212631 265.599517 
L 123.675631 265.549893 
L 121.39783 265.540089 
L 121.394933 265.540022 
L 118.450754 265.50282 
L 117.491622 265.484488 
L 117.828781 265.231668 
L 118.115842 264.971998 
L 118.270436 264.689161 
L 118.330126 264.493552 
L 118.341714 264.265913 
L 118.288817 264.03176 
L 118.209597 263.883022 
L 117.871239 263.567282 
L 117.55321 263.343604 
L 117.432781 263.23012 
L 117.327737 263.063319 
L 117.269945 262.851057 
L 117.252013 262.121805 
L 117.207908 261.845952 
L 117.132634 261.637585 
L 116.961856 261.30405 
L 116.679241 260.913974 
L 116.446526 260.646649 
L 116.300823 260.503283 
L 116.000926 260.302101 
L 115.56047 260.134091 
L 115.068816 260.08816 
L 114.631108 259.976019 
L 114.235691 259.748788 
L 114.168375 259.710104 
L 113.637711 259.287326 
L 113.536513 259.128113 
L 113.476224 258.944256 
L 113.381469 258.16585 
L 113.286715 257.900607 
L 113.147505 257.624283 
L 112.809696 257.235282 
L 112.255106 256.938142 
L 112.015398 256.828016 
L 111.928735 256.816802 
L 111.620896 256.595743 
L 111.512455 256.359777 
L 111.334735 255.637106 
L 111.345224 255.33916 
L 111.445473 254.949085 
L 111.597669 254.564314 
L 111.828237 254.211775 
L 112.11255 253.907248 
L 112.280031 253.771001 
L 112.693963 253.554374 
L 113.139463 253.369039 
L 113.446953 253.168394 
L 113.636562 253.002265 
L 113.833613 252.770462 
L 113.932313 252.640728 
L 114.015779 252.461168 
L 114.069525 252.201632 
L 114.066568 252.150056 
L 114.051193 251.881863 
L 113.986658 251.69035 
L 113.590558 250.807123 
L 113.510789 250.300743 
L 113.535264 250.033283 
L 113.581767 249.873533 
L 113.847499 249.303495 
L 113.912333 248.968482 
L 113.918178 248.687592 
L 113.712235 247.998832 
L 113.423776 247.423355 
L 113.353547 247.125678 
L 113.348552 246.960891 
L 113.388762 246.741511 
L 113.431069 246.646359 
L 113.574175 246.411132 
L 113.651696 246.342773 
L 113.840806 246.213509 
L 114.527413 246.024884 
L 114.797091 245.861104 
L 114.979756 245.699474 
L 115.172062 245.404483 
L 115.240693 245.240502 
L 115.302381 244.935169 
L 115.287346 244.651863 
L 115.231852 244.486673 
L 115.103394 244.232436 
L 115.061224 244.148974 
L 114.841096 243.888297 
L 114.242201 243.338605 
L 114.125219 243.188256 
L 113.95554 242.892862 
L 113.888807 242.686711 
L 113.790456 242.144942 
L 113.763883 241.664012 
L 113.879966 240.947116 
L 114.285657 240.058114 
L 114.360581 239.485927 
L 114.323369 239.26366 
L 114.26228 239.086114 
L 114.100444 238.795488 
L 113.832164 238.538705 
L 113.560289 238.334569 
L 113.150902 238.185898 
L 112.772833 237.950604 
L 112.604203 237.809722 
L 112.414695 237.523729 
L 112.319191 237.231492 
L 112.304806 236.999957 
L 112.36035 236.778093 
L 112.485024 236.462487 
L 112.782723 235.925285 
L 112.823482 235.509222 
L 112.79591 235.234175 
L 112.755551 235.086981 
L 112.689617 234.98357 
L 112.288772 234.595979 
L 111.80526 234.052062 
L 111.686979 233.78937 
L 111.659007 233.574489 
L 111.710955 233.252705 
L 111.87439 232.958318 
L 112.247613 232.579322 
L 112.505753 232.234439 
L 112.586871 232.023587 
L 112.649408 231.695088 
L 112.615392 231.33476 
L 112.506402 230.831066 
L 112.484524 229.714223 
L 112.344665 229.257601 
L 111.83518 228.357788 
L 111.675341 227.961601 
L 111.610356 227.498265 
L 111.605361 227.229664 
L 111.715251 226.893912 
L 111.732905 226.869002 
L 111.964999 226.541508 
L 112.183628 226.341669 
L 112.297113 226.294126 
L 112.411798 226.300573 
L 112.525283 226.363157 
L 113.138864 226.524586 
L 113.468531 226.437291 
L 113.683315 226.14183 
L 113.712493 225.88686 
L 113.713284 225.879944 
L 113.573425 225.503902 
L 113.268733 225.221871 
L 112.939066 225.067426 
L 112.539419 224.986845 
L 110.296632 225.248731 
L 110.051879 225.201726 
L 109.867066 225.094286 
L 109.622312 224.80554 
L 109.620879 224.802304 
L 109.482454 224.489933 
L 109.407479 224.053457 
L 109.537348 223.449105 
L 110.026854 222.656732 
L 110.151728 222.388131 
L 110.236643 222.065809 
L 110.236643 221.918079 
L 110.211668 221.649478 
L 109.927146 220.857433 
L 109.717167 220.272898 
L 109.687197 219.863281 
L 109.558273 219.302926 
L 109.533103 219.193525 
L 109.34754 218.735157 
L 109.302585 218.486768 
L 109.302585 218.12738 
L 109.302585 218.003287 
L 109.407479 217.59367 
L 109.767116 217.412364 
L 110.486441 217.425794 
L 110.56636 217.51309 
L 110.56636 217.922706 
L 110.827147 218.569766 
L 111.272547 218.942651 
L 111.660256 218.735224 
L 111.934979 218.486768 
L 112.134827 218.191307 
L 112.14105 218.15366 
L 112.204757 217.768261 
L 112.044918 217.009463 
L 111.870094 216.646852 
L 111.625341 216.364821 
L 111.345574 216.20366 
L 110.816108 216.062644 
L 110.091839 216.129795 
L 109.677257 216.069359 
L 109.497438 215.995494 
L 108.818074 215.545588 
L 108.438457 215.196473 
L 108.12877 214.807002 
L 107.948951 214.430961 
L 107.943956 214.182505 
L 108.03886 214.007914 
L 108.173724 213.893759 
L 108.73321 213.625158 
L 109.007932 213.416992 
L 109.232706 213.141676 
L 109.342595 212.779064 
L 109.31762 212.456743 
L 109.022917 211.818883 
L 108.935969 211.376737 
L 108.908033 211.234676 
L 108.938003 211.013617 
L 109.243295 210.356082 
L 109.296092 210.010124 
L 109.2877 209.753341 
L 109.167422 209.285438 
L 109.123865 208.794772 
L 109.172616 208.62797 
L 109.246941 208.495013 
L 109.586599 208.102318 
L 109.690094 207.94653 
L 109.752831 207.796113 
L 109.788395 207.553029 
L 109.767616 207.308334 
L 109.655329 207.026303 
L 109.49629 206.783487 
L 109.136253 206.486952 
L 108.942449 206.393479 
L 108.684309 206.321494 
L 108.459736 206.32794 
L 107.932667 206.553028 
L 107.667335 206.553296 
L 107.509894 206.506291 
L 107.111896 206.250583 
L 106.636725 206.085393 
L 106.234331 206.045372 
L 105.550521 205.91322 
L 105.344479 205.799266 
L 105.198427 205.653349 
L 104.96706 205.294498 
L 104.809569 204.95465 
L 104.795833 204.859767 
L 104.825453 204.774755 
L 104.98719 204.548929 
L 105.419354 204.215058 
L 105.890428 203.734396 
L 105.976766 203.588665 
L 106.088229 203.400525 
L 106.143673 203.250041 
L 106.155361 203.104191 
L 106.151815 202.894951 
L 106.090826 202.483857 
L 105.80921 201.458674 
L 105.727692 201.293015 
L 105.53199 201.101099 
L 105.284789 200.998426 
L 104.962814 200.961359 
L 104.802376 200.984325 
L 104.627752 201.076925 
L 104.422609 201.297379 
L 104.365167 201.395754 
L 104.257576 202.223314 
L 104.072163 203.192896 
L 103.957379 203.44847 
L 103.882554 203.519448 
L 103.752685 203.580823 
L 103.382209 203.567729 
L 103.10389 203.461095 
L 102.891854 203.284422 
L 102.606992 202.970696 
L 102.412738 202.690143 
L 102.135867 202.373731 
L 101.765091 202.162409 
L 101.379131 202.001517 
L 101.304506 201.922078 
L 101.085926 201.419324 
L 100.981232 200.887024 
L 100.997965 200.639374 
L 101.109752 200.143067 
L 101.199312 199.954039 
L 101.550657 199.50111 
L 101.669538 199.272934 
L 101.730876 199.068461 
L 101.732174 198.866003 
L 101.697659 198.656629 
L 101.619038 198.459744 
L 101.501457 198.298113 
L 101.356004 198.178989 
L 100.716 197.906359 
L 100.567699 197.799657 
L 100.321847 197.551067 
L 100.099772 197.188053 
L 100.000022 196.954168 
L 99.913709 196.669518 
L 99.886387 196.434761 
L 99.894129 196.175494 
L 99.979893 195.892254 
L 100.084137 195.731027 
L 100.75571 194.95665 
L 100.90421 194.679588 
L 101.038175 194.160382 
L 101.019743 193.799718 
L 100.89397 193.400443 
L 100.798866 193.242774 
L 100.217153 192.737939 
L 100.042579 192.558513 
L 99.885638 192.345042 
L 99.742632 192.112568 
L 99.705519 191.784942 
L 99.706221 191.768164 
L 99.721753 191.39668 
L 99.78389 191.220209 
L 99.904069 191.01399 
L 100.192928 190.775473 
L 100.535032 190.631502 
L 101.261299 190.798841 
L 101.668389 190.749553 
L 101.991762 190.514392 
L 102.136217 190.289909 
L 102.173279 190.165413 
L 102.164638 190.03541 
L 102.120582 189.909167 
L 102.031922 189.735181 
L 101.8056 189.419776 
L 101.410099 189.136536 
L 100.660356 188.744648 
L 100.511906 188.500825 
L 100.474743 188.303135 
L 100.469798 188.081606 
L 100.559857 187.657149 
L 100.652264 187.514254 
L 100.915049 187.330463 
L 101.205955 187.240281 
L 101.556302 187.045881 
L 101.793962 186.738265 
L 101.874631 186.489608 
L 101.842713 185.834557 
L 101.912442 185.400028 
L 102.129523 185.051854 
L 102.468381 184.655399 
L 102.562087 184.380822 
L 102.545004 184.164061 
L 102.422628 183.868734 
L 102.306095 183.675274 
L 102.012092 183.386394 
L 101.738468 183.229732 
L 101.098664 183.052388 
L 100.877137 182.956968 
L 100.603463 182.75921 
L 100.411507 182.521901 
L 100.323845 182.317093 
L 100.250769 182.019147 
L 100.245924 181.841468 
L 100.395573 181.20213 
L 100.389679 180.929635 
L 100.278941 180.630615 
L 100.093328 180.345092 
L 99.981441 180.226437 
L 99.631144 179.977243 
L 99.261268 179.827565 
L 99.029851 179.671843 
L 98.842215 179.458775 
L 98.690594 179.286602 
L 98.568816 179.08589 
L 98.488897 178.875441 
L 98.455231 178.704208 
L 98.425611 178.215824 
L 98.351885 177.992819 
L 98.184404 177.727374 
L 97.883458 177.385713 
L 97.706037 177.073666 
L 97.694449 176.822994 
L 97.755437 176.655723 
L 97.838803 176.520549 
L 98.078411 176.361806 
L 98.679605 176.163176 
L 98.810073 176.065203 
L 98.955426 175.797408 
L 98.985896 175.615834 
L 98.96192 175.371609 
L 98.618267 174.685333 
L 98.563821 174.406189 
L 98.612772 174.206888 
L 98.663021 174.113146 
L 99.022858 173.689092 
L 99.126504 173.453462 
L 99.332895 172.821981 
L 99.347181 172.513694 
L 99.316961 172.38302 
L 99.165514 172.184792 
L 98.731402 171.95393 
L 97.966674 171.81466 
L 97.759783 171.816204 
L 97.390605 171.891278 
L 97.086762 172.034443 
L 96.934466 172.070637 
L 96.58282 172.045724 
L 96.481822 171.997309 
L 96.265191 171.775444 
L 96.217889 171.68741 
L 96.188319 171.524302 
L 96.319436 171.198422 
L 96.555798 170.785717 
L 96.604898 170.631271 
L 96.616536 170.481727 
L 96.562791 170.304048 
L 96.391813 170.056264 
L 96.06769 169.899199 
L 95.491921 169.858573 
L 95.035282 170.030881 
L 94.914804 170.22152 
L 94.706214 170.656654 
L 94.602169 170.785985 
L 94.523898 170.834468 
L 94.310314 170.856224 
L 93.973254 170.720715 
L 93.762167 170.524435 
L 93.696133 170.419681 
L 93.678901 170.286186 
L 93.701278 170.013153 
L 93.854773 169.653899 
L 94.403819 169.228435 
L 94.616405 168.959767 
L 94.71036 168.721182 
L 94.701819 168.496028 
L 94.605865 168.241662 
L 94.514258 168.116024 
L 94.191134 167.852258 
L 93.8781 167.721785 
L 93.456525 167.68633 
L 93.071414 167.831509 
L 92.994242 167.923773 
L 92.742246 167.863741 
L 92.604685 167.80438 
L 92.367374 167.639459 
L 92.228015 167.459899 
L 92.155588 167.308811 
L 92.15437 167.305907 
L 92.022173 166.990653 
L 91.877469 166.425047 
L 91.832664 165.761535 
L 91.845801 165.50999 
L 91.961734 165.01375 
L 92.092751 164.710365 
L 92.210532 164.524829 
L 92.417374 164.022545 
L 92.469421 163.546786 
L 92.433258 163.076532 
L 92.354237 162.853258 
L 92.184459 162.530534 
L 92.049445 162.370515 
L 91.839607 162.189142 
L 91.516583 162.045508 
L 90.749707 161.882802 
L 90.506902 161.763006 
L 90.297063 161.581902 
L 90.110552 161.325724 
L 89.952711 160.866886 
L 89.825389 160.633472 
L 89.508509 160.308465 
L 88.903719 159.925037 
L 88.683192 159.703844 
L 88.415612 159.27979 
L 88.318909 158.928124 
L 88.287191 158.565715 
L 88.441036 157.942493 
L 88.399928 157.403545 
L 88.344983 157.235267 
L 88.227652 157.018237 
L 87.849433 156.5271 
L 87.810323 156.342706 
L 87.896686 156.104792 
L 87.970905 156.034368 
L 87.974107 156.03133 
L 88.550326 155.876347 
L 88.848475 155.836258 
L 88.986486 155.780188 
L 89.20022 155.601367 
L 89.615851 155.043885 
L 89.660606 154.938191 
L 89.658558 154.792072 
L 89.302117 154.349753 
L 89.354514 154.238217 
L 89.416901 153.69383 
L 89.357012 153.375403 
L 89.235834 153.060066 
L 89.00247 152.699066 
L 88.730394 152.409716 
L 87.984197 151.915154 
L 87.983345 151.914274 
L 87.76387 151.687716 
L 87.514521 151.284277 
L 87.381555 150.883189 
L 87.378908 150.092562 
L 87.343694 149.775478 
L 87.305882 149.60532 
L 87.214923 149.384127 
L 87.039251 149.104312 
L 86.596597 148.598335 
L 85.992207 148.263725 
L 85.658144 148.042196 
L 85.406348 147.823824 
L 85.111796 147.421929 
L 84.917442 146.880967 
L 84.898361 146.664139 
L 84.910848 146.394061 
L 84.952057 146.209867 
L 85.106851 145.90843 
L 85.384471 145.226183 
L 85.348657 144.863639 
L 85.0576 144.061127 
L 85.031177 143.601013 
L 85.126081 143.090671 
L 85.216041 142.88922 
L 86.424821 141.438775 
L 86.589704 141.116454 
L 86.769523 140.505387 
L 86.799493 140.16292 
L 86.739553 139.477988 
L 86.53476 138.712475 
L 86.50479 138.618398 
L 86.000299 137.973755 
L 85.996235 137.972318 
L 85.33592 137.738729 
L 85.131724 137.71248 
L 84.61245 137.645726 
L 83.532739 137.534928 
L 82.991285 137.410835 
L 82.142592 136.66822 
L 81.937049 136.261827 
L 81.840647 136.157811 
L 81.630459 136.211061 
L 81.305936 136.070314 
L 81.162031 135.74524 
L 81.270322 135.540499 
L 81.814423 135.28103 
L 81.859378 135.1333 
L 81.819418 134.918419 
L 81.924312 134.515517 
L 81.961625 133.787676 
L 81.962124 133.140012 
L 81.075669 133.09529 
L 80.860985 132.820847 
L 81.343948 132.151493 
L 81.467473 132.057617 
L 81.513327 131.968576 
L 81.52037 131.869395 
L 81.479911 131.798148 
L 81.240352 131.733617 
L 81.038156 131.569032 
L 81.007387 131.475156 
L 81.032162 131.350928 
L 81.076817 131.263229 
L 81.071772 131.148201 
L 80.971124 131.019675 
L 80.81663 130.960315 
L 80.759088 130.912772 
L 80.739258 130.821246 
L 80.798748 130.678821 
L 80.801745 130.586489 
L 80.57842 129.854887 
L 80.337963 129.335883 
L 80.015788 128.512352 
L 80.044159 128.334337 
L 79.994809 128.146988 
L 79.473935 127.42519 
L 79.127534 127.266917 
L 78.918745 127.071845 
L 78.889425 126.961316 
L 78.932781 126.688082 
L 78.918945 126.4685 
L 78.694721 126.112268 
L 78.628188 126.069225 
L 78.471896 126.06157 
L 77.786438 125.544043 
L 77.480047 125.091182 
L 77.410417 125.071104 
L 77.049731 124.63973 
L 76.534201 124.343531 
L 76.235403 124.276045 
L 75.995495 124.246969 
L 75.307939 123.840441 
L 74.840111 123.462989 
L 74.336169 123.13308 
L 74.286619 123.080837 
L 74.328577 122.881267 
L 74.455649 122.807737 
L 74.594858 122.515835 
L 74.581971 121.763551 
L 74.501403 121.733065 
L 74.220985 121.79115 
L 73.886823 121.130727 
L 73.832727 120.986354 
" clip-path="url(#p7ff8cb6e31)" style="fill: #ff5733"/>
   </g>
   <g id="text_1">
    <!-- IA -->
    <g transform="translate(230.285625 53.189888) scale(0.12 -0.12)">
     <defs>
      <path id="DejaVuSans-49" d="M 628 4666 
L 1259 4666 
L 1259 0 
L 628 0 
L 628 4666 
z
" transform="scale(0.015625)"/>
      <path id="DejaVuSans-41" d="M 2188 4044 
L 1331 1722 
L 3047 1722 
L 2188 4044 
z
M 1831 4666 
L 2547 4666 
L 4325 0 
L 3669 0 
L 3244 1197 
L 1141 1197 
L 716 0 
L 50 0 
L 1831 4666 
z
" transform="scale(0.015625)"/>
     </defs>
     <use xlink:href="#DejaVuSans-49"/>
     <use xlink:href="#DejaVuSans-41" x="29.492188"/>
    </g>
   </g>
  </g>
 </g>
 <defs>
  <clipPath id="p7ff8cb6e31">
   <rect x="57.6" y="59.189888" width="357.12" height="230.676225"/>
  </clipPath>
 </defs>
</svg>
