<?xml version="1.0" encoding="utf-8" standalone="no"?>
<!DOCTYPE svg PUBLIC "-//W3C//DTD SVG 1.1//EN"
  "http://www.w3.org/Graphics/SVG/1.1/DTD/svg11.dtd">
<svg xmlns:xlink="http://www.w3.org/1999/xlink" width="460.8pt" height="345.6pt" viewBox="0 0 460.8 345.6" xmlns="http://www.w3.org/2000/svg" version="1.1">
 <metadata>
  <rdf:RDF xmlns:dc="http://purl.org/dc/elements/1.1/" xmlns:cc="http://creativecommons.org/ns#" xmlns:rdf="http://www.w3.org/1999/02/22-rdf-syntax-ns#">
   <cc:Work>
    <dc:type rdf:resource="http://purl.org/dc/dcmitype/StillImage"/>
    <dc:date>2023-06-19T14:47:44.746873</dc:date>
    <dc:format>image/svg+xml</dc:format>
    <dc:creator>
     <cc:Agent>
      <dc:title>Matplotlib v3.7.1, https://matplotlib.org/</dc:title>
     </cc:Agent>
    </dc:creator>
   </cc:Work>
  </rdf:RDF>
 </metadata>
 <defs>
  <style type="text/css">*{stroke-linejoin: round; stroke-linecap: butt}</style>
 </defs>
 <g id="figure_1">
  <g id="patch_1">
   <path d="M 0 345.6 
L 460.8 345.6 
L 460.8 0 
L 0 0 
z
" style="fill: #ffffff"/>
  </g>
  <g id="axes_1">
   <g id="PatchCollection_1">
    <path d="M 161.215353 212.405903 
L 161.404929 212.298242 
L 161.594867 212.094236 
L 161.631597 212.020209 
L 161.805117 211.574009 
L 161.882809 211.349858 
L 161.893327 210.630005 
L 161.870694 210.432829 
L 161.835826 210.250141 
L 161.726215 209.867103 
L 161.656164 209.738159 
L 161.624415 209.622978 
L 161.620208 209.548261 
L 161.640907 209.446258 
L 161.66441 209.398378 
L 161.851374 209.314692 
L 161.977693 209.342323 
L 162.03118 209.331905 
L 162.241527 209.112307 
L 162.384676 208.841276 
L 162.428757 208.724405 
L 162.456927 208.603257 
L 162.449649 208.496252 
L 162.49489 208.375552 
L 162.600632 208.172857 
L 162.69259 208.045258 
L 163.040693 208.02901 
L 163.1895 207.969161 
L 163.398106 207.740249 
L 163.474613 207.590228 
L 163.597474 207.262658 
L 163.627241 206.86289 
L 163.506241 206.693621 
L 163.498479 206.616765 
L 163.552233 206.47078 
L 163.638122 206.373261 
L 163.744855 206.319241 
L 163.844067 206.241833 
L 164.036399 206.024063 
L 164.066746 205.945379 
L 164.054341 205.600976 
L 164.169078 204.88209 
L 164.23468 204.69302 
L 164.308551 204.529373 
L 164.466281 204.452552 
L 164.708328 203.984137 
L 164.786987 203.593579 
L 164.742906 203.4082 
L 164.765225 203.154589 
L 164.877543 203.014193 
L 165.130254 202.484549 
L 165.135501 202.396482 
L 165.1702 202.208102 
L 165.337022 201.920341 
L 165.540066 201.813198 
L 165.589031 201.708642 
L 165.621554 201.190726 
L 165.57757 201.001863 
L 166.014173 200.381048 
L 166.157975 200.276216 
L 166.749624 199.977416 
L 166.937193 200.005599 
L 167.10989 199.99325 
L 167.276736 199.896662 
L 167.409753 199.786311 
L 167.620124 199.593136 
L 167.738608 199.434457 
L 167.786969 199.389613 
L 167.886134 199.344769 
L 168.316547 199.248181 
L 168.611574 199.079153 
L 168.662353 199.044658 
L 168.732476 198.930823 
L 168.759075 198.837685 
L 168.756657 198.79974 
L 168.701066 198.679006 
L 168.684139 198.599666 
L 168.686558 198.530675 
L 168.749427 198.323702 
L 168.821969 198.199518 
L 169.005765 197.99258 
L 169.361871 197.288389 
L 169.476549 197.055828 
L 169.592118 196.821457 
L 169.898026 196.478641 
L 170.339563 196.053277 
L 170.540261 195.702458 
L 170.651758 195.467613 
L 170.698063 195.262502 
L 170.805691 194.858008 
L 170.901277 194.524333 
L 170.989318 194.224947 
L 171.106231 194.039533 
L 171.141438 193.956848 
L 171.145935 193.900482 
L 171.056177 193.637419 
L 170.796019 193.261832 
L 170.692623 193.034438 
L 170.676446 192.97483 
L 170.509431 192.322175 
L 170.547129 192.131174 
L 170.804675 191.593734 
L 170.840414 191.540024 
L 170.836279 191.06133 
L 170.810866 190.952393 
L 170.75791 190.840007 
L 170.760159 190.809858 
L 170.920476 190.523373 
L 171.191274 190.371248 
L 171.311741 190.284216 
L 171.712098 189.842259 
L 171.984057 189.510585 
L 172.313371 188.934338 
L 172.311874 188.88971 
L 172.300459 188.549506 
L 172.317555 188.360574 
L 172.342823 188.285201 
L 172.527683 187.949008 
L 173.016227 187.658004 
L 173.582704 186.762432 
L 173.621611 186.688025 
L 173.642164 186.609031 
L 173.752645 185.969381 
L 173.752234 185.673513 
L 174.106938 184.586422 
L 174.130877 184.436677 
L 174.101764 184.09562 
L 174.11088 184.01904 
L 174.250305 183.318988 
L 174.433109 182.804246 
L 174.545767 182.491717 
L 174.646717 182.355727 
L 174.651218 182.349665 
L 174.79664 182.250904 
L 174.927843 182.107851 
L 174.954297 182.056729 
L 174.996854 181.820987 
L 175.010637 181.622465 
L 175.000215 181.309073 
L 174.950549 180.746141 
L 174.971223 180.498843 
L 175.467915 179.478708 
L 176.111577 178.203996 
L 176.294769 177.853073 
L 176.81731 177.350818 
L 176.938962 176.847667 
L 177.041028 176.310779 
L 177.20577 176.101598 
L 177.337143 175.979553 
L 177.626439 175.715766 
L 177.680627 175.679753 
L 177.847836 175.620524 
L 177.844185 175.280019 
L 177.751742 175.029064 
L 177.751718 174.990705 
L 177.880625 174.372581 
L 177.996619 173.98354 
L 178.113628 173.852181 
L 178.315657 173.476663 
L 178.602051 172.733941 
L 179.106989 172.0441 
L 179.408689 171.771896 
L 179.585425 171.685347 
L 179.610258 171.654646 
L 180.052955 170.796156 
L 180.056123 170.347715 
L 180.015838 170.27179 
L 179.903568 170.181481 
L 179.829358 170.03384 
L 179.718853 169.813655 
L 179.596911 169.515304 
L 179.46636 169.17542 
L 179.306381 168.971551 
L 178.875581 168.469814 
L 178.594241 168.21403 
L 178.489998 168.081774 
L 178.317736 167.727816 
L 178.29358 167.558236 
L 178.254432 166.927693 
L 178.310434 166.261861 
L 178.274767 166.156408 
L 178.045778 165.684372 
L 177.986729 165.623556 
L 177.878811 165.601031 
L 177.736243 165.538904 
L 177.301525 165.113195 
L 176.924744 164.733365 
L 176.633707 164.64792 
L 175.981026 164.511283 
L 175.889575 164.557404 
L 175.797037 164.639089 
L 175.635003 164.689418 
L 175.313716 164.682485 
L 175.175524 164.614115 
L 174.817773 164.214243 
L 174.651701 163.775149 
L 174.405423 163.29856 
L 174.383975 163.273826 
L 174.133198 163.126703 
L 174.051662 163.087033 
L 173.962073 163.069579 
L 173.460544 163.090069 
L 173.358551 163.149367 
L 173.244104 163.25513 
L 173.104849 163.353683 
L 173.000631 163.404599 
L 172.891842 163.435438 
L 172.804478 163.421191 
L 172.338374 163.117769 
L 172.201682 162.891754 
L 172.18386 162.838528 
L 172.187318 162.725727 
L 172.221244 162.60627 
L 172.214666 162.466114 
L 172.157625 162.273491 
L 172.053552 162.056527 
L 172.014959 161.976071 
L 171.577509 161.317966 
L 171.45564 161.20113 
L 171.193982 161.012543 
L 170.866408 160.810123 
L 170.535038 160.40011 
L 170.473596 160.293001 
L 170.310401 159.958602 
L 170.235176 159.722618 
L 170.088859 158.991003 
L 169.819561 158.521554 
L 169.672253 157.97725 
L 169.225542 157.476513 
L 169.114795 157.252258 
L 169.085996 157.212174 
L 169.049725 157.098339 
L 168.945144 156.463001 
L 168.734749 155.726246 
L 168.469973 154.989801 
L 168.327114 154.750644 
L 168.114132 154.491376 
L 168.040526 154.460434 
L 167.973449 154.475646 
L 167.808562 154.445842 
L 167.592654 154.334146 
L 167.519532 154.164842 
L 167.507031 154.010509 
L 167.506572 153.942967 
L 167.524731 153.89005 
L 167.595435 153.791738 
L 167.640556 153.759347 
L 167.710655 153.723575 
L 168.061515 153.676972 
L 168.165129 153.567311 
L 168.261802 153.259473 
L 168.268694 152.994133 
L 168.285717 152.835075 
L 168.332627 152.751561 
L 168.643661 152.180212 
L 168.953777 151.549082 
L 168.987388 151.409341 
L 168.972589 151.305406 
L 168.9221 151.198056 
L 168.492509 150.711187 
L 168.233971 150.418665 
L 167.978866 150.205966 
L 167.909347 150.077056 
L 167.891743 149.936176 
L 167.902359 149.868841 
L 168.064417 149.511502 
L 168.146558 149.298872 
L 168.165104 149.129706 
L 168.079578 148.735078 
L 167.944699 148.356938 
L 167.88756 148.23134 
L 167.801574 148.082664 
L 167.746128 148.012363 
L 167.662391 147.917879 
L 167.388256 147.681413 
L 167.297749 147.561472 
L 167.290785 147.488169 
L 167.303552 147.422455 
L 167.448248 147.09937 
L 167.455019 146.997022 
L 167.405255 146.860523 
L 167.330151 146.766247 
L 167.149619 146.636682 
L 166.902349 146.562482 
L 166.686489 146.357786 
L 166.583722 146.235085 
L 166.544307 146.142741 
L 166.528687 146.049431 
L 166.516959 145.833765 
L 166.534321 145.745353 
L 166.523609 145.546348 
L 166.506803 145.504367 
L 166.412499 145.408642 
L 166.341699 145.354691 
L 166.250345 145.320023 
L 165.983899 145.279664 
L 165.832384 145.233336 
L 165.729665 145.174763 
L 165.615533 145.054581 
L 165.568937 144.933605 
L 165.566084 144.895591 
L 165.565189 144.49327 
L 165.607263 144.408411 
L 165.692597 144.282537 
L 165.831417 144.136103 
L 165.887056 144.095433 
L 165.948934 144.000329 
L 166.068991 143.566272 
L 166.074141 143.461578 
L 166.157685 143.087475 
L 166.201863 143.027039 
L 166.223867 142.950459 
L 166.244396 142.663939 
L 166.199275 142.516367 
L 166.120665 142.418779 
L 166.120687 142.402252 
L 166.122406 141.132822 
L 166.121874 140.895976 
L 166.12168 140.819775 
L 166.124441 138.407497 
L 166.130699 132.940762 
L 166.120302 128.964914 
L 166.124437 128.607713 
L 166.12047 118.208322 
L 166.120108 117.260902 
L 166.119262 116.325246 
L 166.118851 115.586215 
L 166.118585 114.819276 
L 166.115683 113.654812 
L 166.119939 110.621657 
L 166.114466 109.972215 
L 166.111887 109.666166 
L 166.118996 108.831893 
L 166.117352 108.372171 
L 166.1174 107.596954 
L 166.116844 106.616454 
L 166.117473 106.115786 
L 166.103714 104.57977 
L 166.102964 104.400014 
L 166.098128 104.215567 
L 166.085288 103.342796 
L 166.087755 103.331758 
L 166.095589 102.793835 
L 166.08891 101.087851 
L 166.08154 99.205751 
L 166.08154 99.204199 
L 166.08154 99.14159 
L 166.079098 99.031411 
L 166.076656 98.230909 
L 166.075568 97.668287 
L 166.076632 97.233989 
L 166.075776 97.212558 
L 166.064517 96.930428 
L 166.066355 96.895933 
L 166.051895 96.352387 
L 166.052717 96.339762 
L 166.055184 96.21306 
L 166.056054 96.156867 
L 166.066234 95.739299 
L 166.067806 94.229465 
L 166.056417 93.656495 
L 166.05891 89.539259 
L 166.059077 89.264045 
L 166.061396 88.880852 
L 166.075596 86.534717 
L 166.075616 86.531415 
L 166.082266 85.153665 
L 166.089375 83.794404 
L 166.126976 82.102193 
L 166.130337 81.988703 
L 166.12538 81.957933 
L 166.126226 81.883043 
L 166.12625 81.864416 
L 166.12625 81.855068 
L 166.125452 81.755341 
L 166.125839 81.742509 
L 166.149947 80.930071 
L 166.232741 75.309409 
L 166.232741 75.297577 
L 166.230057 73.520679 
L 166.230904 73.506467 
L 166.230154 73.276313 
L 166.230154 73.266068 
L 166.226769 70.858248 
L 166.24916 66.689294 
L 166.252569 66.421816 
L 166.269181 65.442868 
L 166.277306 62.234132 
L 166.300287 58.896889 
L 166.307 57.922022 
L 166.3011 53.635542 
L 172.95476 53.614741 
L 172.953575 53.609498 
L 181.168452 53.604117 
L 182.171073 53.589663 
L 182.338185 53.568 
L 190.076971 53.578349 
L 190.077874 70.326327 
L 190.077899 70.784151 
L 190.077938 71.510109 
L 190.057433 73.847352 
L 190.082944 77.422637 
L 190.063913 78.636155 
L 190.07315 79.489297 
L 190.058062 79.914696 
L 190.062924 80.647913 
L 190.083838 83.801442 
L 190.074567 85.053524 
L 190.071651 85.447222 
L 190.073948 85.812046 
L 190.087997 86.038026 
L 190.075351 88.105686 
L 190.076416 88.884861 
L 190.076439 88.901877 
L 190.332825 89.091499 
L 190.529123 89.047551 
L 191.082929 89.800795 
L 191.089724 89.955025 
L 191.384509 90.393635 
L 191.525288 90.729483 
L 191.671991 90.959809 
L 192.014291 91.068746 
L 192.109151 91.21104 
L 192.158262 91.616569 
L 192.733517 92.17788 
L 193.295714 93.158518 
L 193.477431 93.205639 
L 193.511598 93.378254 
L 193.648073 93.515477 
L 194.131393 93.296603 
L 194.282763 93.517375 
L 194.382291 93.787509 
L 194.848322 94.072925 
L 194.986925 94.531163 
L 194.936073 94.747415 
L 194.954378 95.519666 
L 195.120063 95.684934 
L 195.249743 96.05852 
L 195.247494 96.356872 
L 195.334786 96.535282 
L 195.495659 96.645047 
L 196.017233 96.440558 
L 196.175519 96.504167 
L 196.547899 96.936913 
L 196.501521 97.448723 
L 196.630838 97.707508 
L 196.736314 97.840833 
L 196.956768 97.851251 
L 197.095782 97.796196 
L 197.468162 98.041804 
L 197.776802 98.306937 
L 197.967538 98.613567 
L 197.862232 99.217825 
L 197.643664 100.020121 
L 197.795929 100.455178 
L 198.200276 100.678537 
L 198.326401 100.699717 
L 198.652403 101.081582 
L 198.691165 101.922272 
L 198.396138 102.572753 
L 197.984053 102.806909 
L 197.775811 102.95041 
L 197.184838 103.573192 
L 197.251456 103.854089 
L 197.548659 104.023324 
L 198.111557 104.180175 
L 198.37573 104.150302 
L 198.61681 104.386906 
L 198.279153 104.538479 
L 198.257245 104.789296 
L 198.679824 105.288411 
L 198.870246 105.881907 
L 198.939305 105.90388 
L 199.308905 105.756895 
L 199.48477 106.107852 
L 199.769471 106.119098 
L 200.099391 105.984945 
L 200.223074 106.054143 
L 199.984654 106.69262 
L 199.750997 106.861061 
L 199.165466 106.949922 
L 198.955676 106.845883 
L 198.080727 107.010185 
L 197.806738 107.211432 
L 197.368006 107.353864 
L 197.086085 107.980647 
L 197.342399 108.016384 
L 197.622022 107.919383 
L 198.0085 107.944427 
L 198.201751 108.250195 
L 198.559332 108.249505 
L 199.114517 108.493147 
L 199.154996 108.713987 
L 199.550468 108.793154 
L 199.910589 109.571476 
L 200.521704 109.41121 
L 201.492552 109.952513 
L 201.505972 110.280635 
L 201.769201 110.441625 
L 201.994999 110.42693 
L 202.17142 110.627418 
L 202.133699 111.06796 
L 202.392189 111.296561 
L 202.658924 112.157535 
L 203.152521 112.492693 
L 203.691215 112.783214 
L 203.828488 112.883182 
L 204.111013 112.722743 
L 204.376371 112.857 
L 204.380288 112.966178 
L 204.492437 113.028442 
L 205.022885 112.952069 
L 205.27342 113.079496 
L 205.309522 113.269807 
L 205.594755 113.486991 
L 206.152576 113.383884 
L 206.758322 113.642014 
L 207.243722 113.551774 
L 207.723585 113.822736 
L 207.599515 114.121398 
L 207.763966 114.483876 
L 207.904165 114.659666 
L 208.021296 114.677534 
L 208.219673 114.819656 
L 208.383689 115.367203 
L 208.289966 115.512187 
L 208.1606 115.948245 
L 208.180718 116.116514 
L 208.481355 116.227624 
L 209.098925 116.331145 
L 209.253415 116.625564 
L 209.297689 117.008774 
L 209.565996 117.399057 
L 210.089094 117.467392 
L 210.538368 117.777541 
L 210.930891 118.122393 
L 211.127769 118.554759 
L 211.281146 118.902301 
L 211.605358 119.05315 
L 211.970243 119.112931 
L 212.038674 119.279268 
L 212.021892 119.601974 
L 212.336336 120.287261 
L 212.9209 120.950437 
L 213.1223 120.943779 
L 213.315478 121.015772 
L 213.62997 121.707406 
L 213.851996 122.569173 
L 214.01195 122.967078 
L 214.287221 123.649537 
L 214.671426 123.579098 
L 214.75804 123.438183 
L 215.413623 123.567818 
L 215.45797 123.770272 
L 215.772559 124.258831 
L 216.192212 124.710308 
L 216.428166 124.913245 
L 216.397215 125.012868 
L 217.098764 125.369207 
L 217.272453 125.43223 
L 217.33467 125.609882 
L 217.18932 125.712851 
L 216.975153 126.14646 
L 217.114119 126.673206 
L 217.066048 126.899048 
L 216.915428 127.092223 
L 216.784732 127.156833 
L 216.695506 127.427588 
L 216.870016 127.54777 
L 217.138106 127.59358 
L 217.275935 127.858126 
L 217.177182 128.013908 
L 217.214468 128.344202 
L 217.493125 128.621132 
L 217.872856 128.718133 
L 217.972068 128.948839 
L 217.911109 129.227252 
L 218.089949 129.370271 
L 218.364446 129.107519 
L 218.714048 129.008758 
L 218.80238 129.105759 
L 218.830477 129.331084 
L 219.200028 129.702014 
L 219.394343 129.756724 
L 219.564477 130.08519 
L 219.85711 130.142315 
L 220.088058 130.111165 
L 220.371865 130.282677 
L 220.54686 130.20282 
L 220.607698 130.246594 
L 220.702655 130.572887 
L 221.118488 130.949716 
L 221.076776 131.615721 
L 220.919966 131.843909 
L 220.767145 131.918764 
L 220.583711 132.431712 
L 220.645637 132.60174 
L 221.02312 132.878773 
L 221.10248 133.050147 
L 221.487217 133.019239 
L 221.717899 132.545064 
L 222.066631 132.444579 
L 222.30921 132.4551 
L 222.493441 132.172064 
L 222.725212 131.5676 
L 222.801187 131.564047 
L 223.304543 131.645744 
L 223.626879 131.698062 
L 223.988741 131.903758 
L 224.298735 132.40277 
L 224.581672 132.663039 
L 224.54736 133.259949 
L 224.338174 133.50735 
L 224.114528 133.654612 
L 224.172102 134.087427 
L 224.251487 134.345074 
L 224.580995 134.388883 
L 224.763437 134.498579 
L 224.836946 134.759089 
L 224.728859 134.878891 
L 224.858974 135.100939 
L 225.250357 135.215338 
L 225.336467 135.240508 
L 225.59295 135.203046 
L 225.932928 134.950021 
L 226.469954 134.754294 
L 227.105491 135.024221 
L 227.555466 135.043607 
L 228.002443 135.291906 
L 228.393733 135.233195 
L 228.679909 134.96306 
L 228.668037 134.705207 
L 229.364799 134.312579 
L 229.691647 134.422344 
L 229.873581 134.347592 
L 230.088039 134.167767 
L 230.932544 134.021851 
L 231.602381 134.307026 
L 231.605294 134.308267 
L 231.779564 134.556428 
L 231.819413 134.923494 
L 231.828916 136.022935 
L 231.348376 136.791391 
L 231.615668 137.171117 
L 231.609452 137.29739 
L 231.605706 137.373502 
L 231.417508 137.645154 
L 231.232406 138.100012 
L 231.298685 138.437895 
L 231.183562 138.836112 
L 231.356114 139.175375 
L 231.103307 139.587803 
L 230.551483 139.790223 
L 230.328611 139.677043 
L 229.937007 139.780184 
L 229.873122 139.909025 
L 229.95374 140.641399 
L 230.089659 140.904634 
L 230.36522 141.013191 
L 230.449296 141.222993 
L 230.360529 141.552701 
L 230.569086 141.80645 
L 230.610943 142.05737 
L 230.359828 142.206046 
L 230.331561 142.772013 
L 230.257061 142.955391 
L 229.766679 143.261022 
L 229.412338 143.748857 
L 229.675083 144.452876 
L 229.697088 144.660366 
L 229.640112 145.31378 
L 229.622708 145.513371 
L 229.188668 146.382692 
L 229.145868 146.563517 
L 229.336677 147.170741 
L 229.295038 147.31821 
L 229.098426 147.560161 
L 228.956099 147.657093 
L 228.667602 147.755785 
L 228.383069 147.680309 
L 228.251164 147.880624 
L 228.304966 148.519619 
L 228.700124 148.779818 
L 228.842233 149.470798 
L 228.765001 149.623958 
L 228.910422 150.101341 
L 228.844821 151.102055 
L 228.692242 151.278051 
L 228.42362 151.30482 
L 228.061251 151.552463 
L 227.797175 151.317618 
L 227.276834 151.362979 
L 226.934123 152.194597 
L 227.034763 152.69799 
L 227.713196 153.106796 
L 228.15599 153.2207 
L 228.503367 153.75231 
L 228.45948 154.391615 
L 228.321747 154.811874 
L 227.666914 155.46646 
L 227.420394 155.710861 
L 227.384462 156.038258 
L 227.696995 156.130361 
L 228.015114 156.055885 
L 228.170595 156.528853 
L 227.925114 156.812233 
L 227.857409 157.081574 
L 228.057164 157.351812 
L 228.203408 157.339152 
L 228.368585 157.219246 
L 228.5961 157.270023 
L 228.773222 157.510112 
L 229.206948 157.548022 
L 229.667829 157.864898 
L 229.729224 158.088187 
L 229.865626 158.238622 
L 229.900712 158.430417 
L 229.841542 158.623212 
L 229.666838 158.745395 
L 229.569052 158.899487 
L 229.382765 159.030259 
L 229.285172 159.184627 
L 229.197856 159.239888 
L 229.201943 159.318745 
L 229.636975 160.155537 
L 229.851069 160.43088 
L 230.07486 160.501216 
L 230.265717 160.925304 
L 230.239675 161.160701 
L 229.807472 161.75668 
L 229.730674 162.162933 
L 229.652934 162.195187 
L 229.319122 162.002357 
L 228.907037 161.861512 
L 228.537051 162.106326 
L 228.234093 162.272353 
L 228.03279 162.330651 
L 227.788591 162.253795 
L 227.481958 162.327201 
L 227.177283 162.585917 
L 227.125295 162.857604 
L 227.186496 163.057229 
L 226.821031 163.328536 
L 226.456655 164.296101 
L 226.195626 164.475408 
L 225.937257 164.902635 
L 226.423165 165.500028 
L 226.454865 165.988346 
L 226.944013 166.505089 
L 227.271659 166.580599 
L 227.49782 166.904857 
L 227.648054 167.336051 
L 227.349472 167.79522 
L 227.33141 168.010783 
L 227.553218 168.154146 
L 227.546108 168.518763 
L 227.352471 168.866685 
L 227.001926 169.198152 
L 226.819701 169.095356 
L 226.672393 169.15424 
L 226.061206 169.523583 
L 225.998192 169.609615 
L 226.006582 169.809688 
L 226.233106 170.234432 
L 226.451504 170.325017 
L 226.615279 170.664418 
L 226.231606 171.200995 
L 226.128742 171.414005 
L 226.109761 172.083149 
L 226.340201 172.259628 
L 226.906824 171.908429 
L 227.10786 171.999566 
L 227.384002 172.307025 
L 227.581436 172.436141 
L 228.171852 172.166904 
L 228.491446 172.235722 
L 228.5828 172.832495 
L 228.72549 172.882616 
L 229.012561 173.10525 
L 229.573235 174.013275 
L 230.230607 174.24957 
L 230.716587 174.600975 
L 230.786711 174.680315 
L 230.90522 175.242591 
L 231.284854 175.732428 
L 231.570208 175.753125 
L 232.875981 175.018371 
L 233.081516 174.828646 
L 233.301583 174.494039 
L 233.635081 173.512056 
L 233.6264 173.203563 
L 233.538069 173.045366 
L 233.627899 172.76716 
L 234.115838 172.748325 
L 234.702869 173.122705 
L 234.965542 173.087313 
L 235.118653 172.77882 
L 235.274062 172.575538 
L 235.883556 172.524346 
L 236.357204 172.367426 
L 236.505915 172.090565 
L 236.517957 171.969659 
L 236.427086 171.847717 
L 236.448607 171.781727 
L 236.669786 171.443119 
L 237.202096 171.370886 
L 237.53395 171.20441 
L 237.642375 171.005095 
L 237.61701 170.762316 
L 237.649871 170.509361 
L 237.992534 169.944428 
L 238.818613 169.222679 
L 239.174672 169.223127 
L 239.265542 169.037127 
L 239.294244 168.891211 
L 239.142294 168.474023 
L 239.131098 168.098332 
L 239.16055 167.694252 
L 239.249583 167.584211 
L 239.950262 167.293173 
L 240.353473 167.533917 
L 240.572983 167.789115 
L 241.115353 167.587247 
L 241.116371 167.592012 
L 241.283142 168.372813 
L 241.774901 169.057687 
L 242.031432 169.235442 
L 242.113259 169.469045 
L 241.994992 169.725692 
L 241.93222 170.141018 
L 242.384033 170.313047 
L 242.978922 170.083997 
L 243.905907 170.469449 
L 244.300993 170.826133 
L 244.39225 171.154358 
L 244.425571 171.425251 
L 244.369182 171.58976 
L 243.983285 172.061762 
L 243.628145 173.634653 
L 244.242597 173.662974 
L 244.394813 173.550829 
L 244.546425 173.540377 
L 244.986946 173.541998 
L 245.19103 173.584496 
L 245.237795 173.686707 
L 245.26125 174.279684 
L 245.424928 174.813088 
L 245.318171 175.118684 
L 244.846723 175.90387 
L 244.868196 176.011048 
L 245.319912 176.715998 
L 245.326127 177.023629 
L 245.018816 177.260026 
L 245.086062 177.565484 
L 245.408582 177.575005 
L 246.049898 178.063047 
L 246.081575 178.138247 
L 246.098549 178.314692 
L 246.022623 179.01564 
L 245.9097 179.67616 
L 245.945269 180.222879 
L 246.020906 180.377281 
L 247.139062 181.816261 
L 247.170061 182.062662 
L 247.085913 182.252215 
L 247.074258 182.449563 
L 247.245771 182.845744 
L 247.395617 182.998766 
L 247.500561 182.993902 
L 247.712769 183.102425 
L 247.920867 183.269004 
L 248.089236 183.501021 
L 248.153677 183.722758 
L 248.407815 184.250504 
L 249.311755 185.004887 
L 249.544251 185.492239 
L 249.429611 185.870034 
L 250.037437 186.733973 
L 249.912303 187.167858 
L 250.520879 187.69588 
L 251.020569 187.577043 
L 251.479177 187.631546 
L 251.570942 187.862839 
L 251.413382 188.173781 
L 251.224581 188.491657 
L 251.985735 189.112955 
L 252.226525 189.441491 
L 252.526364 189.431797 
L 252.671108 189.359426 
L 252.879254 189.553704 
L 252.895189 190.055303 
L 252.92909 190.384356 
L 253.223682 191.357129 
L 253.002237 191.64765 
L 252.999117 192.127414 
L 253.05113 192.420487 
L 253.077245 192.981074 
L 252.952086 193.199982 
L 252.504529 193.389121 
L 252.327672 193.363801 
L 252.181259 193.311541 
L 251.852162 193.370631 
L 251.74821 193.587367 
L 251.932562 194.096727 
L 252.321023 194.877291 
L 252.753516 195.937855 
L 253.596642 197.103941 
L 254.223765 197.189041 
L 254.690666 197.344513 
L 255.198361 197.813617 
L 255.439247 198.475482 
L 255.424932 198.534573 
L 255.229771 198.652892 
L 255.247399 198.781319 
L 255.545545 199.019062 
L 256.517506 198.531572 
L 256.630622 198.380723 
L 257.076705 198.058259 
L 257.831524 197.704887 
L 258.035535 198.008655 
L 258.73931 198.183685 
L 259.108401 198.422359 
L 259.373541 198.718537 
L 259.470964 198.940102 
L 259.847213 199.223689 
L 259.982624 199.157251 
L 260.407912 199.300373 
L 260.629526 199.43356 
L 260.631122 199.712939 
L 260.478374 199.872619 
L 260.548014 200.126023 
L 260.982054 200.631692 
L 261.338378 200.944808 
L 261.362172 201.650206 
L 261.43689 202.033141 
L 261.827599 202.243046 
L 262.101395 202.647782 
L 262.169753 202.884145 
L 262.105337 203.055346 
L 262.156454 203.451009 
L 262.222153 203.692581 
L 262.562736 204.12105 
L 262.614845 204.382181 
L 262.51377 204.664802 
L 262.435401 204.752076 
L 262.222056 204.795747 
L 262.024574 204.915205 
L 261.781342 205.319079 
L 261.813647 205.544334 
L 262.106884 205.73606 
L 262.3314 206.177706 
L 262.90107 206.625009 
L 262.876647 206.825462 
L 262.693359 207.086904 
L 262.784084 207.391223 
L 263.634175 207.949705 
L 263.643025 208.209146 
L 263.395924 208.707916 
L 263.175857 208.948143 
L 263.357405 209.477407 
L 263.64259 209.820914 
L 263.722434 210.541904 
L 264.251069 211.112287 
L 264.979822 211.667078 
L 265.796156 212.108655 
L 266.593485 212.351158 
L 266.667018 212.973802 
L 267.304756 213.675441 
L 267.559522 213.735946 
L 268.148801 213.29699 
L 268.29869 213.085875 
L 268.324086 213.050106 
L 268.339368 212.561236 
L 268.114779 212.03825 
L 267.772915 211.513332 
L 267.962563 210.829665 
L 268.716173 210.061658 
L 269.22128 209.38527 
L 269.877177 209.14763 
L 270.21394 208.874219 
L 270.600199 208.69536 
L 270.873319 208.740928 
L 271.759438 209.146527 
L 271.921061 209.312622 
L 272.140524 209.282059 
L 273.435294 209.15515 
L 273.862468 209.487928 
L 274.120812 209.501209 
L 274.675901 209.365125 
L 274.88308 209.398137 
L 275.442085 209.680551 
L 275.607359 209.865585 
L 275.615169 210.002705 
L 275.8909 210.119783 
L 276.546265 209.534187 
L 276.857227 209.683104 
L 277.461861 210.148586 
L 278.62139 210.636974 
L 279.071752 209.978282 
L 279.30964 209.318487 
L 279.365884 209.082296 
L 279.309858 207.850117 
L 279.423676 207.615858 
L 279.554637 207.510543 
L 280.270285 207.496089 
L 280.371601 207.399847 
L 280.370658 207.118743 
L 280.422598 206.998457 
L 280.549715 206.856508 
L 281.068508 206.483233 
L 281.734005 206.447219 
L 282.117992 206.496375 
L 282.424311 206.680305 
L 282.503526 206.939712 
L 282.439786 207.137888 
L 282.627886 207.343999 
L 283.540968 207.704546 
L 283.643348 207.706133 
L 284.008619 207.407919 
L 284.689132 207.468459 
L 284.867487 207.593022 
L 284.963653 207.861155 
L 285.407269 208.126702 
L 285.532791 208.126081 
L 285.660101 208.044499 
L 285.732522 207.810274 
L 286.319939 207.565287 
L 286.6966 207.634796 
L 287.095361 207.799201 
L 287.163308 207.544176 
L 287.141739 207.372561 
L 287.197789 207.236269 
L 287.653762 207.384393 
L 288.103979 207.62255 
L 288.45213 207.579844 
L 289.160886 207.118295 
L 289.247476 206.886692 
L 290.320488 206.871031 
L 290.70046 206.657745 
L 291.119944 206.636358 
L 291.632838 207.471011 
L 291.79608 207.945945 
L 292.305177 208.524883 
L 292.633404 208.441059 
L 292.6704 208.075476 
L 293.74595 207.815828 
L 293.816993 207.680433 
L 294.120821 207.438965 
L 294.343524 207.359832 
L 294.868652 207.343171 
L 295.011825 207.113327 
L 295.140828 206.768407 
L 295.688445 206.78017 
L 297.240041 207.138493 
L 297.312555 207.155239 
L 297.630674 206.975207 
L 297.859929 206.723666 
L 298.005133 206.677408 
L 298.560052 206.940746 
L 298.710866 206.965376 
L 298.951221 206.87555 
L 299.498451 207.176144 
L 299.689041 207.542589 
L 300.059777 207.46325 
L 300.763673 207.436964 
L 300.859089 207.309434 
L 300.824051 207.049925 
L 300.271792 206.747537 
L 299.948571 206.699554 
L 299.888579 206.496824 
L 299.964047 206.25846 
L 299.645541 206.002917 
L 299.508123 205.427601 
L 299.490036 205.246741 
L 299.565358 204.860081 
L 299.944098 204.517714 
L 299.770627 204.037226 
L 299.980973 203.844258 
L 300.199347 203.842188 
L 300.727499 203.136928 
L 300.811212 202.702181 
L 300.611384 202.553471 
L 300.444103 202.374612 
L 300.315221 201.938485 
L 300.336717 201.775494 
L 300.416996 201.68208 
L 300.529785 201.638156 
L 301.558946 201.237364 
L 301.781141 201.251059 
L 301.911474 201.462344 
L 302.151901 201.575593 
L 302.531439 201.14088 
L 302.630966 200.408368 
L 302.550058 200.333858 
L 302.645595 200.133405 
L 302.859569 200.044441 
L 303.047683 200.171038 
L 303.107298 200.211158 
L 303.312591 200.489226 
L 303.301637 200.622827 
L 303.566535 200.993964 
L 303.773375 201.031702 
L 304.049082 200.811759 
L 304.342706 201.101866 
L 304.77648 201.683943 
L 305.670677 203.04034 
L 305.472251 203.476812 
L 305.657498 203.765194 
L 306.059258 203.633215 
L 306.748862 204.588395 
L 306.42153 205.084785 
L 306.578656 205.861037 
L 306.735249 206.206924 
L 307.297809 206.234037 
L 307.652972 206.388301 
L 307.798394 206.618834 
L 307.796 206.944058 
L 307.965071 207.135508 
L 308.41582 207.374596 
L 308.965951 207.706339 
L 308.814702 208.255887 
L 309.062335 208.846657 
L 309.538111 209.255877 
L 310.524967 209.502244 
L 310.898677 209.581998 
L 310.982342 209.731674 
L 310.977022 210.973995 
L 310.97649 211.051506 
L 310.978134 213.151799 
L 310.964907 213.886518 
L 310.978835 221.775742 
L 310.994964 222.123871 
L 310.990587 223.915153 
L 310.987734 223.986386 
L 310.987734 224.001392 
L 310.979851 225.39263 
L 311.021635 226.087749 
L 311.028528 226.655558 
L 311.032081 226.94817 
L 311.041801 229.245639 
L 311.036965 232.437991 
L 311.046033 235.503778 
L 311.043736 235.51799 
L 311.044074 235.672737 
L 311.051595 236.852862 
L 311.053021 236.923095 
L 311.051401 236.954486 
L 311.057156 237.087949 
L 311.061364 237.844125 
L 311.067193 240.466549 
L 311.073484 243.296489 
L 311.087696 249.689603 
L 311.097078 253.833927 
L 311.098553 254.052456 
L 311.097006 254.218172 
L 311.096183 254.466678 
L 311.096933 254.470645 
L 311.099158 258.08429 
L 311.098698 258.22717 
L 311.098988 258.297886 
L 311.099786 258.500133 
L 311.100536 258.689513 
L 311.101092 258.983311 
L 311.101213 259.040643 
L 311.102688 259.151891 
L 311.100343 259.570839 
L 311.101818 259.669461 
L 311.101793 259.723516 
L 311.101793 259.732588 
L 311.097634 259.800441 
L 311.09916 259.911033 
L 311.099496 259.935387 
L 311.104453 261.440736 
L 311.103655 261.633256 
L 311.103607 261.806837 
L 311.103086 262.185079 
L 311.099351 264.895081 
L 311.113158 270.148745 
L 311.053843 274.9747 
L 311.037074 277.347958 
L 311.034886 277.657656 
L 311.028139 283.022603 
L 311.028285 285.390133 
L 311.027728 288.357229 
L 311.028671 288.774659 
L 311.027487 289.937191 
L 311.027438 290.160515 
L 311.037594 295.021966 
L 302.110528 295.050218 
L 301.989021 295.048665 
L 301.876896 295.047044 
L 300.768315 295.085024 
L 299.900645 295.092647 
L 299.887934 295.092661 
L 299.88754 295.092662 
L 294.280193 295.098837 
L 294.012347 295.099132 
L 290.97254 295.126798 
L 290.026331 295.127901 
L 290.021133 295.127108 
L 289.316388 295.128872 
L 287.691508 295.132938 
L 285.339649 295.158855 
L 285.337484 295.158878 
L 284.021483 295.189579 
L 284.002919 295.189974 
L 283.794283 295.194409 
L 283.319764 295.035764 
L 282.204292 295.034039 
L 281.579733 295.041835 
L 278.64823 295.037178 
L 277.091076 295.038351 
L 277.085104 295.043146 
L 272.316582 295.06543 
L 270.832961 295.065361 
L 268.918661 295.087024 
L 267.841612 295.099995 
L 267.84062 295.098615 
L 266.69219 295.113241 
L 266.649923 295.113206 
L 265.991728 295.117725 
L 264.308014 295.135939 
L 263.804521 295.137269 
L 263.785642 295.137319 
L 257.780697 295.207 
L 257.740315 295.227456 
L 255.582372 295.257225 
L 255.15827 295.287857 
L 254.217985 295.274369 
L 254.079358 295.277439 
L 253.370071 295.289927 
L 251.798699 295.306968 
L 251.694989 295.324422 
L 245.318751 295.439637 
L 244.555807 295.451883 
L 243.925155 295.473443 
L 242.205967 295.488 
L 239.77239 295.327906 
L 238.616077 295.292652 
L 238.458348 295.292617 
L 238.458082 295.289409 
L 238.131233 295.289996 
L 238.131499 295.285097 
L 237.031382 295.288823 
L 237.027295 295.284201 
L 232.810904 295.275614 
L 232.809558 295.275611 
L 228.318604 295.231526 
L 227.57718 295.261054 
L 227.576794 295.26233 
L 225.158547 295.265366 
L 222.197689 295.137043 
L 220.126167 295.013169 
L 219.529077 294.999889 
L 218.445789 295.030521 
L 217.881585 295.079159 
L 217.519433 295.079159 
L 214.675899 295.213726 
L 214.521768 295.213578 
L 209.380072 295.208621 
L 209.294522 295.189131 
L 207.854716 295.210449 
L 201.254108 295.183508 
L 200.309495 295.165191 
L 194.402989 295.187579 
L 194.175329 295.148771 
L 193.981498 295.143355 
L 191.581145 295.126591 
L 190.968604 295.143804 
L 190.968435 295.143355 
L 190.805796 295.154601 
L 190.805434 295.153221 
L 190.520152 295.166295 
L 190.520248 295.165743 
L 190.331253 295.16526 
L 190.33048 295.163639 
L 187.374869 295.161983 
L 187.299958 295.160362 
L 183.21751 295.169745 
L 182.353902 295.204309 
L 180.055543 295.195133 
L 179.582426 295.183474 
L 179.516438 295.184302 
L 179.179023 295.188476 
L 179.131532 295.167985 
L 178.920895 295.176195 
L 178.561403 295.160258 
L 177.185579 295.150738 
L 177.071447 295.166743 
L 176.128165 295.166433 
L 176.108264 295.153635 
L 167.829188 295.110826 
L 166.859573 295.14063 
L 166.643072 295.098568 
L 166.641005 295.098166 
L 166.449907 295.079815 
L 166.452301 291.017728 
L 166.440404 290.479219 
L 166.449955 289.335831 
L 166.451551 282.75447 
L 166.441347 282.017508 
L 166.43859 273.520542 
L 166.446666 267.237636 
L 166.447344 267.232289 
L 166.448553 267.222734 
L 166.438155 259.722412 
L 166.438904 259.713719 
L 166.436632 240.658475 
L 166.435954 240.618874 
L 166.432376 240.10289 
L 166.433174 240.020067 
L 166.434745 239.870908 
L 166.436293 239.817268 
L 166.435592 239.51519 
L 166.432013 239.275619 
L 166.430465 239.157714 
L 166.432787 239.024975 
L 166.437623 238.79113 
L 166.438687 237.66223 
L 166.437333 237.278019 
L 166.43957 237.095865 
L 166.4405 237.020062 
L 166.434721 236.220042 
L 166.437139 235.922622 
L 166.434334 235.298599 
L 166.438929 235.263068 
L 166.43934 232.704572 
L 166.545771 232.383037 
L 166.554197 232.357582 
L 166.51326 232.162751 
L 166.288284 231.948396 
L 166.368612 231.636729 
L 166.475079 231.558286 
L 166.636871 231.557941 
L 166.773104 231.604269 
L 166.865691 231.52417 
L 166.897246 231.389086 
L 166.824608 231.267834 
L 166.613198 231.186494 
L 166.534297 231.107706 
L 166.573759 230.950131 
L 166.82294 230.836123 
L 167.10607 230.754438 
L 167.146451 230.746262 
L 167.290954 230.781103 
L 167.33489 230.766028 
L 167.495884 230.648433 
L 167.510223 230.609453 
L 167.574846 230.220045 
L 167.663116 229.688147 
L 167.653323 229.489971 
L 167.631488 229.334086 
L 167.577131 229.008414 
L 167.909661 228.943286 
L 168.048095 228.802268 
L 168.050755 228.477286 
L 167.865822 228.334406 
L 167.832864 228.182108 
L 167.92533 228.025706 
L 168.01475 227.717937 
L 168.019924 227.492716 
L 168.055228 227.333243 
L 168.069785 227.245452 
L 167.964696 227.173115 
L 167.812601 227.203092 
L 167.667179 226.984908 
L 167.839175 226.861966 
L 168.053705 226.674034 
L 168.577842 226.616599 
L 168.621633 226.375683 
L 168.45781 226.032038 
L 168.61242 225.719095 
L 168.667552 225.352029 
L 168.6617 225.263824 
L 168.598468 225.071684 
L 168.452925 224.855432 
L 168.141359 224.605581 
L 167.748232 224.402644 
L 167.731765 224.380084 
L 167.711671 224.233892 
L 167.631029 223.14035 
L 167.70594 223.039244 
L 167.876413 222.948141 
L 168.122909 222.920303 
L 168.458463 222.840377 
L 168.586547 222.740926 
L 168.686437 222.634128 
L 168.816963 222.38276 
L 168.831907 222.309905 
L 169.570743 220.821109 
L 169.599808 220.762541 
L 169.639029 220.630802 
L 169.644494 220.559155 
L 169.604015 220.177083 
L 169.498927 219.98446 
L 169.434872 219.89422 
L 168.887425 219.477618 
L 168.644387 219.394208 
L 168.521284 219.402901 
L 168.407103 219.47303 
L 168.350642 219.487277 
L 167.917641 219.38855 
L 167.875059 219.372855 
L 167.768278 219.28058 
L 167.719288 218.909373 
L 167.713388 218.291387 
L 167.761435 217.955228 
L 167.723133 217.806794 
L 167.665994 217.707999 
L 167.400854 217.617172 
L 167.059184 217.620311 
L 166.674205 217.620139 
L 166.594168 217.596958 
L 166.472153 217.51272 
L 166.416997 217.499749 
L 166.312924 217.508235 
L 166.216492 217.571362 
L 166.060939 217.710379 
L 165.982835 218.081895 
L 165.94538 218.159959 
L 165.872959 218.191419 
L 165.80107 218.182933 
L 165.716922 218.12091 
L 165.648201 217.901174 
L 165.456401 217.667777 
L 165.188819 217.465116 
L 164.919134 217.177113 
L 164.884556 217.105466 
L 164.820598 216.792523 
L 164.796611 216.737502 
L 164.700832 216.580375 
L 164.611098 216.467713 
L 164.563559 216.428354 
L 164.479774 216.399964 
L 164.384406 216.403276 
L 164.229626 216.462677 
L 164.156625 216.509591 
L 163.918036 216.790108 
L 163.878718 216.873173 
L 163.864838 216.970071 
L 163.84356 217.013673 
L 163.733804 217.137926 
L 163.616021 217.176147 
L 163.28557 217.202778 
L 162.964404 217.154484 
L 162.413402 216.73802 
L 162.292064 216.63919 
L 161.836817 216.138005 
L 161.699641 215.819922 
L 161.70438 215.772146 
L 161.761978 215.688701 
L 161.762183 215.687942 
L 161.815804 215.488696 
L 161.841146 215.452269 
L 161.879472 215.421913 
L 162.114265 215.329707 
L 162.166906 215.287105 
L 162.435793 214.748768 
L 162.45168 214.714583 
L 162.492883 214.52879 
L 162.494649 214.474356 
L 162.340377 214.137094 
L 162.311602 214.10108 
L 162.078913 213.832016 
L 161.991258 213.74588 
L 161.838341 213.661021 
L 161.571702 213.391543 
L 161.39811 213.188778 
L 161.206842 212.598181 
L 161.215353 212.405903 
" clip-path="url(#p31dc8312f0)" style="fill: #33ff57"/>
   </g>
   <g id="text_1">
    <!-- ID -->
    <g transform="translate(229.77 35.472) scale(0.12 -0.12)">
     <defs>
      <path id="DejaVuSans-49" d="M 628 4666 
L 1259 4666 
L 1259 0 
L 628 0 
L 628 4666 
z
" transform="scale(0.015625)"/>
      <path id="DejaVuSans-44" d="M 1259 4147 
L 1259 519 
L 2022 519 
Q 2988 519 3436 956 
Q 3884 1394 3884 2338 
Q 3884 3275 3436 3711 
Q 2988 4147 2022 4147 
L 1259 4147 
z
M 628 4666 
L 1925 4666 
Q 3281 4666 3915 4102 
Q 4550 3538 4550 2338 
Q 4550 1131 3912 565 
Q 3275 0 1925 0 
L 628 0 
L 628 4666 
z
" transform="scale(0.015625)"/>
     </defs>
     <use xlink:href="#DejaVuSans-49"/>
     <use xlink:href="#DejaVuSans-44" x="29.492188"/>
    </g>
   </g>
  </g>
 </g>
 <defs>
  <clipPath id="p31dc8312f0">
   <rect x="153.711526" y="41.472" width="164.896948" height="266.112"/>
  </clipPath>
 </defs>
</svg>
