<?xml version="1.0" encoding="utf-8" standalone="no"?>
<!DOCTYPE svg PUBLIC "-//W3C//DTD SVG 1.1//EN"
  "http://www.w3.org/Graphics/SVG/1.1/DTD/svg11.dtd">
<svg xmlns:xlink="http://www.w3.org/1999/xlink" width="360pt" height="360pt" viewBox="0 0 360 360" xmlns="http://www.w3.org/2000/svg" version="1.1">
 <metadata>
  <rdf:RDF xmlns:dc="http://purl.org/dc/elements/1.1/" xmlns:cc="http://creativecommons.org/ns#" xmlns:rdf="http://www.w3.org/1999/02/22-rdf-syntax-ns#">
   <cc:Work>
    <dc:type rdf:resource="http://purl.org/dc/dcmitype/StillImage"/>
    <dc:date>2023-06-19T15:20:26.928768</dc:date>
    <dc:format>image/svg+xml</dc:format>
    <dc:creator>
     <cc:Agent>
      <dc:title>Matplotlib v3.7.1, https://matplotlib.org/</dc:title>
     </cc:Agent>
    </dc:creator>
   </cc:Work>
  </rdf:RDF>
 </metadata>
 <defs>
  <style type="text/css">*{stroke-linejoin: round; stroke-linecap: butt}</style>
 </defs>
 <g id="figure_1">
  <g id="patch_1">
   <path d="M 0 360 
L 360 360 
L 360 0 
L 0 0 
z
" style="fill: #ffffff"/>
  </g>
  <g id="axes_1">
   <g id="PatchCollection_1">
    <path d="M 73.130583 221.256149 
L 73.412296 221.144002 
L 73.694548 220.931496 
L 73.74913 220.854384 
L 74.006984 220.389593 
L 74.122436 220.156102 
L 74.138067 219.406256 
L 74.104434 219.200864 
L 74.052619 219.010564 
L 73.889735 218.611566 
L 73.785638 218.477249 
L 73.738458 218.357269 
L 73.732206 218.279439 
L 73.762964 218.173185 
L 73.797891 218.123311 
L 74.075724 218.036138 
L 74.263437 218.06492 
L 74.34292 218.054068 
L 74.6555 217.82532 
L 74.868222 217.542996 
L 74.933727 217.421255 
L 74.975589 217.295059 
L 74.964773 217.183596 
L 75.032004 217.057867 
L 75.189138 216.846726 
L 75.32579 216.71381 
L 75.843079 216.696886 
L 76.064209 216.634542 
L 76.374202 216.396092 
L 76.487893 216.23982 
L 76.670468 215.898602 
L 76.714701 215.482177 
L 76.534893 215.305855 
L 76.523359 215.225797 
L 76.603238 215.073729 
L 76.730871 214.972147 
L 76.889478 214.915876 
L 77.036911 214.835243 
L 77.32272 214.608399 
L 77.367816 214.526436 
L 77.349382 214.167683 
L 77.519884 213.418843 
L 77.617369 213.221896 
L 77.727144 213.05143 
L 77.961534 212.971408 
L 78.321221 212.483476 
L 78.438111 212.076645 
L 78.372605 211.883542 
L 78.405771 211.619364 
L 78.572679 211.473118 
L 78.948213 210.921405 
L 78.95601 210.829669 
L 79.007574 210.63344 
L 79.255474 210.333688 
L 79.557202 210.222081 
L 79.629966 210.113168 
L 79.678296 209.573673 
L 79.612934 209.376941 
L 80.261737 208.730258 
L 80.475429 208.621058 
L 81.354633 208.309808 
L 81.633364 208.339166 
L 81.889996 208.326302 
L 82.137932 208.22569 
L 82.335599 208.110741 
L 82.648214 207.909517 
L 82.824285 207.744226 
L 82.896151 207.697513 
L 83.043511 207.650801 
L 83.683115 207.550189 
L 84.121531 207.374118 
L 84.19699 207.338185 
L 84.301195 207.219607 
L 84.340722 207.122588 
L 84.337128 207.083062 
L 84.254519 206.957297 
L 84.229366 206.874652 
L 84.232959 206.802786 
L 84.326384 206.587189 
L 84.434183 206.457831 
L 84.707308 206.24227 
L 85.236491 205.508738 
L 85.406904 205.266487 
L 85.578643 205.022352 
L 86.033229 204.665251 
L 86.689362 204.222164 
L 86.987604 203.856727 
L 87.15329 203.612096 
L 87.222102 203.39844 
L 87.382039 202.977092 
L 87.524081 202.629514 
L 87.654912 202.317653 
L 87.828648 202.124514 
L 87.880966 202.038383 
L 87.887649 201.979669 
L 87.754267 201.705645 
L 87.367666 201.314409 
L 87.214017 201.07754 
L 87.189978 201.015448 
L 86.94179 200.335599 
L 86.997809 200.136639 
L 87.38053 199.576806 
L 87.433638 199.520859 
L 87.427494 199.022219 
L 87.389728 198.908743 
L 87.311035 198.791674 
L 87.314377 198.760269 
L 87.552612 198.461847 
L 87.955023 198.303383 
L 88.134041 198.212725 
L 88.72898 197.752353 
L 89.133116 197.406859 
L 89.622485 196.806602 
L 89.62026 196.760114 
L 89.603297 196.405735 
L 89.628702 196.208931 
L 89.666252 196.130418 
L 89.940958 195.780217 
L 90.666944 195.477088 
L 91.508742 194.5442 
L 91.566558 194.466693 
L 91.597101 194.384407 
L 91.761278 193.718105 
L 91.760667 193.409909 
L 92.287766 192.277523 
L 92.323339 192.121538 
L 92.280076 191.76627 
L 92.293623 191.6865 
L 92.500811 190.957279 
L 92.772463 190.42109 
L 92.939874 190.095539 
L 93.08989 189.953882 
L 93.096577 189.947567 
L 93.312677 189.844692 
L 93.507649 189.695678 
L 93.546959 189.642426 
L 93.610201 189.396861 
L 93.630683 189.190068 
L 93.615196 188.863618 
L 93.54139 188.277231 
L 93.572112 188.019628 
L 94.310208 186.956987 
L 95.266704 185.629162 
L 95.53893 185.263618 
L 96.315439 184.740436 
L 96.496217 184.21632 
L 96.647889 183.657062 
L 96.892699 183.439165 
L 97.087922 183.312035 
L 97.517822 183.037257 
L 97.598348 182.999743 
L 97.846823 182.938046 
L 97.841397 182.583353 
L 97.704026 182.321942 
L 97.70399 182.281985 
L 97.895548 181.638105 
L 98.067918 181.232854 
L 98.241797 181.096022 
L 98.542015 180.704858 
L 98.967603 179.931188 
L 99.717952 179.212604 
L 100.166286 178.929058 
L 100.428919 178.838903 
L 100.465822 178.806923 
L 101.12368 177.912663 
L 101.128387 177.445536 
L 101.068523 177.366448 
L 100.901687 177.272376 
L 100.791409 177.118584 
L 100.627196 176.889224 
L 100.445987 176.578442 
L 100.251986 176.224396 
L 100.014254 176.012033 
L 99.374075 175.48939 
L 98.955997 175.222948 
L 98.801091 175.085182 
L 98.545105 174.716475 
L 98.509208 174.539829 
L 98.451033 173.883014 
L 98.534254 173.189439 
L 98.481253 173.079592 
L 98.140969 172.587887 
L 98.053221 172.524538 
L 97.892853 172.501074 
L 97.680993 172.436359 
L 97.034993 171.992912 
L 96.475088 171.597256 
L 96.042601 171.50825 
L 95.072702 171.36592 
L 94.936804 171.413962 
L 94.79929 171.499051 
L 94.558504 171.551477 
L 94.081064 171.544255 
L 93.875708 171.473036 
L 93.344083 171.056503 
L 93.097296 170.599114 
L 92.73132 170.102666 
L 92.699448 170.076903 
L 92.326789 169.923649 
L 92.205623 169.882326 
L 92.072492 169.864144 
L 91.32721 169.885488 
L 91.175645 169.947257 
L 91.005575 170.057427 
L 90.798638 170.160087 
L 90.643768 170.213124 
L 90.482106 170.245248 
L 90.352281 170.230407 
L 89.65964 169.914342 
L 89.456512 169.678911 
L 89.430029 169.623466 
L 89.435168 169.505966 
L 89.485581 169.381531 
L 89.475808 169.235536 
L 89.391042 169.034887 
L 89.236388 168.808882 
L 89.179039 168.725074 
L 88.528978 168.039548 
L 88.347877 167.917844 
L 87.959048 167.721399 
L 87.472266 167.510545 
L 86.979843 167.083448 
L 86.888537 166.971876 
L 86.646027 166.623544 
L 86.53424 166.377727 
L 86.316811 165.615628 
L 85.916627 165.126619 
L 85.697724 164.559635 
L 85.033901 164.038034 
L 84.869329 163.804435 
L 84.826533 163.762681 
L 84.772634 163.644103 
L 84.617225 162.982292 
L 84.304573 162.214839 
L 83.911109 161.44771 
L 83.698818 161.198588 
L 83.382322 160.928517 
L 83.272942 160.896285 
L 83.173265 160.912131 
L 82.928239 160.881085 
L 82.607395 160.764735 
L 82.498734 160.588377 
L 82.480157 160.427613 
L 82.479474 160.357257 
L 82.506459 160.302136 
L 82.611527 160.199727 
L 82.678578 160.165987 
L 82.782747 160.128724 
L 83.304132 160.080179 
L 83.458104 159.965949 
L 83.601763 159.645284 
L 83.612004 159.368889 
L 83.637301 159.203203 
L 83.70701 159.116209 
L 84.169214 158.521054 
L 84.630053 157.863628 
L 84.679999 157.718064 
L 84.658008 157.609798 
L 84.582981 157.497975 
L 83.944598 156.99082 
L 83.560405 156.686109 
L 83.181313 156.464548 
L 83.078007 156.330267 
L 83.051848 156.183517 
L 83.067622 156.113376 
L 83.308444 155.741148 
L 83.430508 155.519658 
L 83.458068 155.343444 
L 83.330974 154.932373 
L 83.13054 154.538477 
L 83.045631 154.407646 
L 82.917854 154.252775 
L 82.83546 154.179544 
L 82.711025 154.081124 
L 82.303655 153.834805 
L 82.169158 153.709867 
L 82.158809 153.633509 
L 82.177782 153.565057 
L 82.392804 153.228511 
L 82.402865 153.121898 
L 82.328915 152.979712 
L 82.217308 152.881507 
L 81.949034 152.746544 
L 81.581585 152.669252 
L 81.260813 152.456027 
L 81.108098 152.328214 
L 81.049528 152.232022 
L 81.026315 152.134824 
L 81.008888 151.910172 
L 81.034687 151.818076 
L 81.018769 151.61078 
L 80.993796 151.567049 
L 80.853658 151.467336 
L 80.748447 151.411137 
L 80.612692 151.375024 
L 80.216749 151.332983 
L 79.991594 151.284725 
L 79.838951 151.223711 
L 79.669348 151.098521 
L 79.600106 150.972505 
L 79.595866 150.932907 
L 79.594536 150.513823 
L 79.657059 150.425428 
L 79.783866 150.294309 
L 79.990156 150.141774 
L 80.072838 150.09941 
L 80.16479 150.000343 
L 80.343196 149.5482 
L 80.35085 149.439144 
L 80.474998 149.049453 
L 80.540647 148.986499 
L 80.573346 148.906728 
L 80.603853 148.60827 
L 80.536802 148.454549 
L 80.419985 148.352895 
L 80.420018 148.335679 
L 80.422572 147.013356 
L 80.421781 146.766641 
L 80.421494 146.687266 
L 80.425597 144.174476 
L 80.434897 138.47996 
L 80.419446 134.338452 
L 80.42559 133.966368 
L 80.419695 123.133669 
L 80.419158 122.146773 
L 80.417901 121.172131 
L 80.41729 120.402307 
L 80.416895 119.603413 
L 80.412583 118.390429 
L 80.418907 115.230893 
L 80.410774 114.554391 
L 80.406941 114.23559 
L 80.417505 113.366555 
L 80.415062 112.887678 
L 80.415134 112.08016 
L 80.414307 111.058806 
L 80.415242 110.537277 
L 80.394796 108.937261 
L 80.393682 108.750015 
L 80.386495 108.557882 
L 80.367415 107.648746 
L 80.37108 107.637248 
L 80.382722 107.076912 
L 80.372796 105.299845 
L 80.361845 103.339324 
L 80.361845 103.337707 
L 80.361845 103.272489 
L 80.358216 103.15772 
L 80.354587 102.323863 
L 80.35297 101.737799 
L 80.354551 101.285405 
L 80.35328 101.263081 
L 80.336549 100.969196 
L 80.33928 100.933263 
L 80.317792 100.36707 
L 80.319014 100.353919 
L 80.322679 100.221937 
L 80.323972 100.163403 
L 80.3391 99.728436 
L 80.341436 98.155693 
L 80.324511 97.558849 
L 80.328216 93.270061 
L 80.328464 92.98338 
L 80.33191 92.58422 
L 80.353012 90.140331 
L 80.353042 90.136891 
L 80.362923 88.701734 
L 80.373488 87.285838 
L 80.429363 85.523118 
L 80.434358 85.404899 
L 80.426992 85.372847 
L 80.428249 85.294837 
L 80.428285 85.275433 
L 80.428285 85.265695 
L 80.427099 85.161814 
L 80.427674 85.148447 
L 80.463499 84.302157 
L 80.586533 78.447301 
L 80.586533 78.434976 
L 80.582545 76.584041 
L 80.583802 76.569236 
L 80.582689 76.329493 
L 80.582689 76.318821 
L 80.577658 73.810675 
L 80.610932 69.468015 
L 80.615998 69.189392 
L 80.640684 68.169655 
L 80.652758 64.82722 
L 80.686907 61.350926 
L 80.696883 60.335439 
L 80.688115 55.870356 
L 90.575603 55.848689 
L 90.573842 55.843227 
L 102.781332 55.837622 
L 104.27125 55.822566 
L 104.519582 55.8 
L 116.019591 55.81078 
L 116.020933 73.256591 
L 116.02097 73.733491 
L 116.021028 74.489697 
L 115.990557 76.924325 
L 116.028466 80.648581 
L 116.000187 81.912661 
L 116.013913 82.801351 
L 115.991491 83.244475 
L 115.998717 84.008242 
L 116.029796 87.293168 
L 116.016018 88.597421 
L 116.011685 89.007523 
L 116.015099 89.387548 
L 116.035976 89.622944 
L 116.017183 91.776757 
L 116.018766 92.588397 
L 116.0188 92.606122 
L 116.399796 92.803644 
L 116.691498 92.757866 
L 117.514467 93.542495 
L 117.524564 93.703151 
L 117.962621 94.160036 
L 118.171822 94.509878 
L 118.389827 94.749801 
L 118.898491 94.863277 
L 119.039456 95.0115 
L 119.112435 95.433926 
L 119.967277 96.018625 
L 120.802715 97.040123 
L 121.07275 97.089207 
L 121.123523 97.269015 
L 121.326328 97.411956 
L 122.044553 97.183962 
L 122.269492 97.413932 
L 122.417392 97.695322 
L 123.109925 97.99263 
L 123.315892 98.469961 
L 123.240325 98.695224 
L 123.267526 99.499652 
L 123.513738 99.671806 
L 123.706445 100.060958 
L 123.703104 100.371741 
L 123.832821 100.557586 
L 124.071882 100.671924 
L 124.846953 100.458914 
L 125.082169 100.525174 
L 125.635534 100.975951 
L 125.566615 101.509087 
L 125.758784 101.778654 
L 125.915523 101.917535 
L 126.243122 101.928387 
L 126.4497 101.871038 
L 127.003065 102.126879 
L 127.461711 102.403059 
L 127.745149 102.722466 
L 127.588662 103.351901 
L 127.263865 104.187626 
L 127.490134 104.640811 
L 128.091003 104.873476 
L 128.278428 104.895538 
L 128.762874 105.293315 
L 128.820475 106.169033 
L 128.382059 106.846618 
L 127.769692 107.09053 
L 127.460238 107.240011 
L 126.58204 107.888741 
L 126.681035 108.181342 
L 127.122685 108.357629 
L 127.959165 108.521015 
L 128.351731 108.489897 
L 128.709981 108.736361 
L 128.208216 108.894249 
L 128.17566 109.155517 
L 128.803622 109.675429 
L 129.086593 110.293653 
L 129.189217 110.316542 
L 129.73845 110.163432 
L 129.99979 110.529013 
L 130.422863 110.540727 
L 130.91313 110.400984 
L 131.096926 110.473065 
L 130.742629 111.138146 
L 130.39541 111.313605 
L 129.525297 111.406168 
L 129.213544 111.297795 
L 127.913351 111.468943 
L 127.506196 111.678575 
L 126.854231 111.826942 
L 126.435291 112.479841 
L 126.816179 112.517067 
L 127.231706 112.416024 
L 127.80602 112.442111 
L 128.093195 112.76062 
L 128.624569 112.759901 
L 129.449586 113.013695 
L 129.509738 113.243736 
L 130.097419 113.326202 
L 130.632566 114.136954 
L 131.540696 113.97001 
L 132.983399 114.533868 
L 133.003341 114.875661 
L 133.394506 115.043359 
L 133.730047 115.028052 
L 133.992212 115.236894 
L 133.936157 115.695791 
L 134.320279 115.933918 
L 134.716654 116.830765 
L 135.45015 117.179888 
L 136.250661 117.482515 
L 136.454652 117.586648 
L 136.874491 117.419524 
L 137.268818 117.559375 
L 137.274639 117.673102 
L 137.441295 117.737961 
L 138.229553 117.658406 
L 138.601853 117.791141 
L 138.655501 117.989383 
L 139.079364 118.215616 
L 139.908298 118.108213 
L 140.808451 118.377098 
L 141.529766 118.283098 
L 142.242853 118.56535 
L 142.058482 118.876456 
L 142.302861 119.254038 
L 142.511199 119.437152 
L 142.685258 119.455765 
L 142.98005 119.603808 
L 143.223783 120.174169 
L 143.084507 120.325195 
L 142.892267 120.779422 
L 142.922163 120.954702 
L 143.368915 121.070442 
L 144.286639 121.178276 
L 144.516214 121.484963 
L 144.582007 121.88414 
L 144.980717 122.290684 
L 145.758052 122.361867 
L 146.425684 122.684939 
L 147.008981 123.044159 
L 147.301546 123.494541 
L 147.529468 123.856564 
L 148.011255 124.013698 
L 148.553481 124.07597 
L 148.655171 124.249238 
L 148.630233 124.585389 
L 149.097504 125.29923 
L 149.966179 125.990039 
L 150.265464 125.983104 
L 150.552531 126.058095 
L 151.019873 126.778548 
L 151.349808 127.676222 
L 151.587504 128.090707 
L 151.996563 128.801601 
L 152.567499 128.728227 
L 152.696211 128.581441 
L 153.670421 128.716477 
L 153.736322 128.927366 
L 154.203808 129.436283 
L 154.827421 129.906571 
L 155.178054 130.117964 
L 155.13206 130.221738 
L 156.174578 130.592924 
L 156.432684 130.658573 
L 156.525139 130.843627 
L 156.309147 130.950887 
L 155.99089 131.402562 
L 156.197396 131.951256 
L 156.125961 132.186508 
L 155.902136 132.387732 
L 155.707919 132.455034 
L 155.575327 132.737071 
L 155.834654 132.862261 
L 156.233041 132.909979 
L 156.437858 133.185548 
L 156.291109 133.347821 
L 156.346517 133.691877 
L 156.760607 133.980346 
L 157.324896 134.081389 
L 157.472328 134.321708 
L 157.381741 134.611721 
L 157.6475 134.760699 
L 158.05541 134.486999 
L 158.574926 134.384123 
L 158.706189 134.485166 
L 158.747943 134.719879 
L 159.297104 135.106265 
L 159.58586 135.163254 
L 159.838683 135.505406 
L 160.273542 135.564911 
L 160.616736 135.532464 
L 161.03848 135.711122 
L 161.298525 135.627937 
L 161.388932 135.673536 
L 161.530041 136.013424 
L 162.147977 136.405954 
L 162.085993 137.099709 
L 161.852969 137.337405 
L 161.625873 137.415379 
L 161.353287 137.9497 
L 161.445311 138.126813 
L 162.006258 138.415389 
L 162.12419 138.593903 
L 162.695917 138.561707 
L 163.038716 138.067775 
L 163.556939 137.963103 
L 163.917416 137.974062 
L 164.191189 137.679234 
L 164.535605 137.049583 
L 164.648505 137.045882 
L 165.396505 137.130984 
L 165.875503 137.185481 
L 166.413238 137.399748 
L 166.873896 137.919552 
L 167.294346 138.190665 
L 167.243357 138.812447 
L 166.932503 139.070157 
L 166.60016 139.223554 
L 166.685716 139.674403 
L 166.803684 139.942785 
L 167.29334 139.98842 
L 167.564453 140.102686 
L 167.673689 140.374051 
L 167.513069 140.498845 
L 167.706424 140.730145 
L 168.288026 140.84931 
L 168.415989 140.875529 
L 168.797128 140.836506 
L 169.302343 140.572939 
L 170.100375 140.369056 
L 171.044797 140.65023 
L 171.713471 140.670424 
L 172.377689 140.929069 
L 172.959154 140.867911 
L 173.384419 140.586521 
L 173.366776 140.317924 
L 174.402179 139.908936 
L 174.887883 140.023275 
L 175.158242 139.945408 
L 175.47693 139.75809 
L 176.731883 139.606095 
L 177.727276 139.903152 
L 177.731606 139.904445 
L 177.990574 140.162945 
L 178.049791 140.545306 
L 178.063913 141.690557 
L 177.34982 142.491032 
L 177.747021 142.886581 
L 177.737784 143.018114 
L 177.732217 143.097398 
L 177.452552 143.380369 
L 177.177486 143.854179 
L 177.275978 144.206141 
L 177.104902 144.62095 
L 177.361318 144.974349 
L 176.985641 145.403961 
L 176.165618 145.614815 
L 175.834425 145.49692 
L 175.252494 145.604359 
L 175.157559 145.738568 
L 175.277359 146.501457 
L 175.479337 146.775661 
L 175.888828 146.888741 
L 176.013766 147.107284 
L 175.881857 147.45073 
L 176.191777 147.715052 
L 176.253977 147.976427 
L 175.880815 148.131298 
L 175.838809 148.720847 
L 175.7281 148.911866 
L 174.999383 149.230231 
L 174.472823 149.738393 
L 174.863269 150.471745 
L 174.895968 150.687881 
L 174.811301 151.368521 
L 174.785439 151.576428 
L 174.140445 152.481971 
L 174.076844 152.67033 
L 174.36039 153.302856 
L 174.298513 153.456468 
L 174.006344 153.708501 
L 173.794843 153.809472 
L 173.366129 153.912276 
L 172.943307 153.833655 
L 172.747294 154.042317 
L 172.827244 154.707936 
L 173.414458 154.978977 
L 173.625636 155.698748 
L 173.510866 155.858289 
L 173.726966 156.355563 
L 173.62948 157.397974 
L 173.402744 157.581304 
L 173.003567 157.609187 
L 172.465078 157.867149 
L 172.072655 157.622518 
L 171.299417 157.66977 
L 170.790141 158.536038 
L 170.939694 159.060406 
L 171.947861 159.486246 
L 172.605862 159.604896 
L 173.122073 160.158656 
L 173.056855 160.824599 
L 172.852182 161.262368 
L 171.879085 161.944229 
L 171.51275 162.198813 
L 171.459354 162.539852 
L 171.923786 162.635792 
L 172.396518 162.558213 
L 172.627566 163.050888 
L 172.262776 163.346076 
L 172.162164 163.62664 
L 172.459005 163.908137 
L 172.676327 163.89495 
L 172.921784 163.770047 
L 173.259875 163.822941 
L 173.523083 164.073033 
L 174.16761 164.112523 
L 174.852489 164.442602 
L 174.943723 164.675195 
L 175.14642 164.831898 
L 175.198558 165.031684 
L 175.110631 165.232513 
L 174.851016 165.359787 
L 174.705704 165.520299 
L 174.428878 165.65652 
L 174.283853 165.817319 
L 174.154099 165.874884 
L 174.160172 165.957026 
L 174.806639 166.828684 
L 175.124788 167.1155 
L 175.457346 167.188767 
L 175.740964 167.630525 
L 175.702265 167.87573 
L 175.060001 168.496542 
L 174.945879 168.919722 
L 174.830355 168.953319 
L 174.334302 168.752455 
L 173.721935 168.605741 
L 173.172128 168.860757 
L 172.721925 169.033701 
L 172.422785 169.094428 
L 172.059899 169.014369 
L 171.604235 169.090834 
L 171.151482 169.36033 
L 171.074226 169.643337 
L 171.165172 169.85128 
L 170.622084 170.133892 
L 170.080612 171.141771 
L 169.692718 171.32855 
L 169.308775 171.773578 
L 170.030845 172.395862 
L 170.077953 172.904527 
L 170.804838 173.442801 
L 171.291728 173.521458 
L 171.627807 173.859226 
L 171.851058 174.308386 
L 171.407359 174.786688 
L 171.380518 175.011232 
L 171.710129 175.160569 
L 171.699565 175.540379 
L 171.411815 175.902797 
L 170.890897 176.248075 
L 170.620107 176.140996 
L 170.401205 176.202333 
L 169.492967 176.587065 
L 169.399326 176.676682 
L 169.411795 176.885092 
L 169.748413 177.327533 
L 170.072959 177.421892 
L 170.316331 177.775435 
L 169.746186 178.33437 
L 169.593327 178.556255 
L 169.56512 179.25328 
L 169.90756 179.437112 
L 170.749573 179.07128 
L 171.048319 179.166215 
L 171.458671 179.486484 
L 171.752063 179.62098 
L 172.629434 179.340525 
L 173.104358 179.412211 
L 173.240112 180.033848 
L 173.452152 180.086059 
L 173.878746 180.317969 
L 174.71192 181.263829 
L 175.68879 181.509968 
L 176.410967 181.876016 
L 176.515172 181.958661 
L 176.691279 182.544366 
L 177.255424 183.054612 
L 177.679467 183.076172 
L 179.619875 182.310803 
L 179.925304 182.113172 
L 180.252329 181.764624 
L 180.747914 180.741725 
L 180.735014 180.420378 
L 180.603751 180.25559 
L 180.737242 179.965792 
L 181.46233 179.946172 
L 182.334671 180.336151 
L 182.725009 180.299284 
L 182.952536 179.977937 
L 183.183476 179.766185 
L 184.089198 179.712861 
L 184.79305 179.549402 
L 185.014037 179.261006 
L 185.031931 179.135061 
L 184.896896 179.008039 
L 184.928876 178.939299 
L 185.257553 178.586583 
L 186.048578 178.511339 
L 186.54172 178.337928 
L 186.702843 178.130308 
L 186.665149 177.877413 
L 186.713982 177.613917 
L 187.223186 177.025446 
L 188.450759 176.273624 
L 188.979869 176.274091 
L 189.114905 176.080341 
L 189.157557 175.928345 
L 188.931755 175.493774 
L 188.915118 175.10243 
L 188.958885 174.681513 
L 189.091189 174.566887 
L 190.132414 174.263722 
L 190.731594 174.514497 
L 191.057792 174.780328 
L 191.863765 174.570049 
L 191.865277 174.575013 
L 192.113103 175.388347 
L 192.843868 176.101757 
L 193.225079 176.286919 
L 193.346676 176.530256 
L 193.170929 176.797596 
L 193.077647 177.230227 
L 193.749052 177.409424 
L 194.633071 177.17083 
L 196.010591 177.572343 
L 196.597697 177.943888 
L 196.733307 178.285789 
L 196.782823 178.567969 
L 196.699028 178.739333 
L 196.125576 179.231002 
L 195.597831 180.86943 
L 196.510919 180.898931 
L 196.737116 180.782113 
L 196.962415 180.771226 
L 197.617039 180.772915 
L 197.920312 180.817184 
L 197.989806 180.923653 
L 198.024661 181.541338 
L 198.26789 182.096967 
L 198.109247 182.415295 
L 197.408665 183.233198 
L 197.440573 183.344841 
L 198.111834 184.079164 
L 198.121069 184.399613 
L 197.664398 184.645861 
L 197.764328 184.964046 
L 198.243599 184.973963 
L 199.196609 185.482341 
L 199.243681 185.560674 
L 199.268906 185.74447 
L 199.156077 186.474625 
L 198.988271 187.162667 
L 199.041128 187.732166 
L 199.153526 187.893001 
L 200.815131 189.391938 
L 200.861197 189.648606 
L 200.736151 189.846057 
L 200.718831 190.051629 
L 200.973703 190.464317 
L 201.196378 190.623715 
L 201.352327 190.618648 
L 201.667673 190.731693 
L 201.976911 190.905213 
L 202.227111 191.146897 
L 202.322872 191.377873 
L 202.700526 191.927609 
L 204.043802 192.713423 
L 204.389296 193.221082 
L 204.218938 193.614618 
L 205.122181 194.514556 
L 204.936229 194.966518 
L 205.840586 195.516542 
L 206.583138 195.392753 
L 207.264639 195.449527 
L 207.401004 195.690457 
L 207.166866 196.014355 
L 206.886303 196.345476 
L 208.017396 196.992662 
L 208.375215 197.334886 
L 208.820782 197.324789 
L 209.035875 197.249402 
L 209.345185 197.451775 
L 209.368865 197.974274 
L 209.419243 198.317037 
L 209.857012 199.330343 
L 209.527939 199.632969 
L 209.523304 200.132722 
L 209.600595 200.438008 
L 209.639403 201.021952 
L 209.453415 201.249981 
L 208.788334 201.447001 
L 208.525522 201.420626 
L 208.307949 201.366188 
L 207.818903 201.427741 
L 207.664428 201.653507 
L 207.93838 202.184091 
L 208.51564 202.997178 
L 209.158334 204.101933 
L 210.41124 205.316605 
L 211.343157 205.405252 
L 212.036984 205.567201 
L 212.791429 206.055851 
L 213.149392 206.745294 
L 213.12812 206.806847 
L 212.838106 206.930096 
L 212.864301 207.063874 
L 213.307352 207.311523 
L 214.751708 206.803721 
L 214.919801 206.646586 
L 215.58269 206.310687 
L 216.704368 205.942591 
L 217.007534 206.259015 
L 218.053358 206.441338 
L 218.601836 206.689957 
L 218.99584 206.998476 
L 219.140613 207.229273 
L 219.699728 207.524677 
L 219.900951 207.45547 
L 220.532938 207.604555 
L 220.862262 207.743292 
L 220.864633 208.034312 
L 220.637646 208.200645 
L 220.741132 208.464607 
L 221.386126 208.991346 
L 221.915632 209.317508 
L 221.95099 210.052298 
L 222.062022 210.451188 
L 222.642625 210.66984 
L 223.049492 211.091439 
L 223.151074 211.337651 
L 223.055349 211.515985 
L 223.131311 211.928135 
L 223.22894 212.179772 
L 223.735054 212.626094 
L 223.812489 212.898105 
L 223.66229 213.192503 
L 223.545832 213.283413 
L 223.228797 213.328903 
L 222.935333 213.453339 
L 222.573885 213.87404 
L 222.621892 214.108681 
L 223.057649 214.308396 
L 223.391285 214.768444 
L 224.237826 215.234384 
L 224.201534 215.44319 
L 223.929163 215.715525 
L 224.063983 216.032524 
L 225.327237 216.614276 
L 225.340388 216.884527 
L 224.973191 217.404079 
L 224.646166 217.654316 
L 224.91595 218.205633 
L 225.339742 218.563452 
L 225.458392 219.314483 
L 226.243955 219.908632 
L 227.326898 220.48654 
L 228.53999 220.946516 
L 229.724838 221.199123 
L 229.83411 221.847711 
L 230.781802 222.578584 
L 231.16039 222.64161 
L 232.036072 222.184365 
L 232.258811 221.964453 
L 232.296549 221.927194 
L 232.319259 221.417954 
L 231.985515 220.873177 
L 231.477497 220.326387 
L 231.759318 219.614235 
L 232.8792 218.814227 
L 233.6298 218.109656 
L 234.604478 217.862115 
L 235.104914 217.577312 
L 235.678905 217.391 
L 236.084766 217.438467 
L 237.40156 217.860965 
L 237.641735 218.033982 
L 237.967861 218.002145 
L 239.891919 217.869948 
L 240.526708 218.216592 
L 240.910614 218.230426 
L 241.735488 218.088671 
L 242.04336 218.123059 
L 242.874055 218.417241 
L 243.119656 218.609985 
L 243.131262 218.752818 
L 243.541004 218.874773 
L 244.514891 218.264778 
L 244.976987 218.4199 
L 245.875487 218.904777 
L 247.598573 219.413514 
L 248.267821 218.727377 
L 248.621328 218.04009 
L 248.704908 217.794058 
L 248.621652 216.510538 
L 248.790787 216.266519 
L 248.9854 216.156816 
L 250.048867 216.14176 
L 250.199425 216.041507 
L 250.198024 215.748691 
L 250.275208 215.623393 
L 250.464107 215.47553 
L 251.235045 215.086701 
L 252.223988 215.049187 
L 252.794601 215.100391 
L 253.249798 215.291985 
L 253.367514 215.5622 
L 253.272795 215.768634 
L 253.552316 215.983332 
L 254.909175 216.358902 
L 255.061314 216.360555 
L 255.604115 216.049916 
L 256.615373 216.112978 
L 256.880413 216.242731 
L 257.023318 216.522037 
L 257.682541 216.798648 
L 257.869068 216.798001 
L 258.058255 216.71302 
L 258.165873 216.469036 
L 259.038789 216.213841 
L 259.598515 216.286246 
L 260.191082 216.457501 
L 260.292054 216.19185 
L 260.260002 216.013084 
L 260.343294 215.871114 
L 261.020879 216.025409 
L 261.689912 216.273489 
L 262.207273 216.229005 
L 263.260499 215.748224 
L 263.389175 215.506971 
L 264.983693 215.490657 
L 265.548341 215.268485 
L 266.171704 215.246206 
L 266.933874 216.115637 
L 267.176457 216.61036 
L 267.932986 217.21342 
L 268.420738 217.126103 
L 268.475715 216.745287 
L 270.074007 216.474821 
L 270.179577 216.333785 
L 270.631073 216.082255 
L 270.962014 215.999825 
L 271.742367 215.98247 
L 271.955125 215.743049 
L 272.146827 215.383757 
L 272.960597 215.39601 
L 275.266303 215.769264 
L 275.37406 215.786708 
L 275.846793 215.599174 
L 276.187472 215.337152 
L 276.403248 215.288966 
L 277.22787 215.563277 
L 277.451983 215.588934 
L 277.809155 215.495364 
L 278.622351 215.808483 
L 278.905573 216.190197 
L 279.456495 216.107552 
L 280.502499 216.080171 
L 280.64429 215.947327 
L 280.592223 215.677005 
L 279.771554 215.362018 
L 279.29124 215.312035 
L 279.202091 215.100858 
L 279.314237 214.852562 
L 278.84093 214.586372 
L 278.636724 213.987085 
L 278.609846 213.798689 
L 278.721777 213.395918 
L 279.284592 213.039285 
L 279.02681 212.538777 
L 279.33939 212.337769 
L 279.663899 212.335613 
L 280.448744 211.600966 
L 280.573143 211.148105 
L 280.276194 210.993199 
L 280.027611 210.806887 
L 279.836089 210.352589 
L 279.868033 210.182806 
L 279.98733 210.0855 
L 280.154937 210.039746 
L 281.684293 209.622254 
L 282.01448 209.63652 
L 282.208158 209.856608 
L 282.565438 209.974576 
L 283.129439 209.52175 
L 283.277338 208.758717 
L 283.157107 208.681102 
L 283.299078 208.472297 
L 283.617047 208.379626 
L 283.89659 208.511498 
L 283.985179 208.553289 
L 284.290248 208.842944 
L 284.273971 208.982111 
L 284.667615 209.368712 
L 284.974984 209.408023 
L 285.38469 209.178915 
L 285.821022 209.48111 
L 286.465621 210.087441 
L 287.794416 211.500355 
L 287.499552 211.955012 
L 287.774833 212.255411 
L 288.371856 212.117932 
L 289.396624 213.112911 
L 288.910202 213.629984 
L 289.143693 214.438581 
L 289.376394 214.798879 
L 290.212371 214.827122 
L 290.740152 214.987814 
L 290.956252 215.227953 
L 290.952695 215.566727 
L 291.203937 215.766154 
L 291.87376 216.015204 
L 292.691268 216.36077 
L 292.466508 216.933216 
L 292.834496 217.548601 
L 293.54151 217.974872 
L 295.008 218.231504 
L 295.563341 218.314581 
L 295.687669 218.470493 
L 295.679764 219.764578 
L 295.678973 219.845319 
L 295.681417 222.033124 
L 295.661761 222.798457 
L 295.682459 231.016398 
L 295.706426 231.379032 
L 295.699922 233.244951 
L 295.695682 233.319153 
L 295.695682 233.334783 
L 295.683968 234.78399 
L 295.74606 235.508072 
L 295.756304 236.09954 
L 295.761583 236.404344 
L 295.776028 238.797541 
L 295.768841 242.122907 
L 295.782316 245.316435 
L 295.778902 245.33124 
L 295.779405 245.492434 
L 295.790581 246.721732 
L 295.792701 246.794891 
L 295.790293 246.82759 
L 295.798845 246.966614 
L 295.805097 247.754297 
L 295.81376 250.485989 
L 295.823109 253.433842 
L 295.844228 260.093337 
L 295.85817 264.41034 
L 295.860362 264.637975 
L 295.858062 264.810596 
L 295.856841 265.069456 
L 295.857955 265.073588 
L 295.86126 268.837802 
L 295.860578 268.986635 
L 295.861009 269.060298 
L 295.862195 269.270972 
L 295.863309 269.468243 
L 295.864135 269.774283 
L 295.864315 269.834003 
L 295.866507 269.949886 
L 295.863021 270.38629 
L 295.865213 270.489022 
L 295.865177 270.545329 
L 295.865177 270.554779 
L 295.858997 270.625459 
L 295.861264 270.74066 
L 295.861763 270.766028 
L 295.86913 272.3341 
L 295.867944 272.534641 
L 295.867872 272.715455 
L 295.867097 273.109457 
L 295.861548 275.932376 
L 295.882065 281.404943 
L 295.793922 286.431979 
L 295.769003 288.904123 
L 295.765751 289.226725 
L 295.755726 294.815212 
L 295.755941 297.281388 
L 295.755115 300.372113 
L 295.756516 300.806936 
L 295.754756 302.017908 
L 295.754684 302.250537 
L 295.769775 307.314548 
L 282.503957 307.343977 
L 282.323394 307.34236 
L 282.156774 307.340671 
L 280.509398 307.380233 
L 279.220021 307.388174 
L 279.201132 307.388189 
L 279.200546 307.388189 
L 270.867903 307.394622 
L 270.469879 307.394929 
L 265.952657 307.423748 
L 264.54657 307.424897 
L 264.538845 307.424071 
L 263.491579 307.425908 
L 261.07697 307.430144 
L 257.582055 307.45714 
L 257.578839 307.457165 
L 255.623232 307.489145 
L 255.595646 307.489556 
L 255.285607 307.494176 
L 254.580462 307.328921 
L 252.922845 307.327124 
L 251.994736 307.335245 
L 247.638458 307.330394 
L 245.324493 307.331616 
L 245.315617 307.33661 
L 238.229488 307.359823 
L 236.024794 307.359751 
L 233.180101 307.382317 
L 231.579582 307.395828 
L 231.578109 307.39439 
L 229.871516 307.409626 
L 229.808705 307.40959 
L 228.830614 307.414297 
L 226.328577 307.43327 
L 225.580374 307.434655 
L 225.55232 307.434707 
L 216.628838 307.507291 
L 216.56883 307.528599 
L 213.362078 307.559609 
L 212.731852 307.591518 
L 211.334569 307.577468 
L 211.128566 307.580666 
L 210.074549 307.593674 
L 207.739456 307.611425 
L 207.58534 307.629607 
L 198.110109 307.749622 
L 196.976357 307.762378 
L 196.039193 307.784836 
L 193.484442 307.8 
L 189.868092 307.633236 
L 188.149785 307.596512 
L 187.915396 307.596477 
L 187.915 307.593135 
L 187.429297 307.593746 
L 187.429692 307.588643 
L 185.794893 307.592524 
L 185.78882 307.587709 
L 179.523168 307.578765 
L 179.521168 307.578762 
L 172.84751 307.53284 
L 171.745739 307.563598 
L 171.745164 307.564928 
L 168.151595 307.56809 
L 163.751694 307.43442 
L 160.673366 307.305385 
L 159.786078 307.291551 
L 158.176288 307.323459 
L 157.337867 307.374124 
L 156.799702 307.374124 
L 152.574147 307.514298 
L 152.345105 307.514143 
L 144.70443 307.50898 
L 144.5773 307.488678 
L 142.437716 307.510885 
L 132.629065 307.482821 
L 131.22535 307.463741 
L 122.44815 307.487061 
L 122.109843 307.446637 
L 121.821805 307.440995 
L 118.254827 307.423532 
L 117.344577 307.441462 
L 117.344326 307.440995 
L 117.102641 307.452709 
L 117.102102 307.451272 
L 116.678167 307.464891 
L 116.678311 307.464316 
L 116.39746 307.463813 
L 116.39631 307.462124 
L 112.004207 307.460399 
L 111.892887 307.45871 
L 105.826279 307.468484 
L 104.542938 307.504489 
L 101.127525 307.49493 
L 100.424463 307.482785 
L 100.326403 307.483648 
L 99.824996 307.487995 
L 99.754424 307.466651 
L 99.441413 307.475203 
L 98.9072 307.458602 
L 96.862695 307.448685 
L 96.693092 307.465358 
L 95.291353 307.465034 
L 95.261781 307.451703 
L 82.958889 307.407111 
L 81.51802 307.438157 
L 81.196295 307.394342 
L 81.193223 307.393923 
L 80.909246 307.374807 
L 80.912803 303.143467 
L 80.895124 302.58252 
L 80.909318 301.391491 
L 80.911689 294.535906 
L 80.896526 293.768237 
L 80.892429 284.917232 
L 80.904431 278.372537 
L 80.905437 278.366968 
L 80.907234 278.357014 
L 80.891783 270.544179 
L 80.892896 270.535124 
L 80.889519 250.685911 
L 80.888513 250.64466 
L 80.883195 250.107177 
L 80.88438 250.020903 
L 80.886716 249.865529 
L 80.889016 249.809654 
L 80.887974 249.49499 
L 80.882656 249.245437 
L 80.880356 249.122618 
L 80.883805 248.984349 
L 80.890992 248.74076 
L 80.892573 247.564823 
L 80.890561 247.164604 
L 80.893885 246.97486 
L 80.895268 246.895898 
L 80.88668 246.062544 
L 80.890273 245.752732 
L 80.886105 245.102707 
L 80.892932 245.065696 
L 80.893543 242.400596 
L 81.051703 242.065663 
L 81.064224 242.039147 
L 81.00339 241.836199 
L 80.669071 241.612912 
L 80.78844 241.288259 
L 80.946652 241.206548 
L 81.187078 241.206189 
L 81.389524 241.254447 
L 81.527111 241.171011 
L 81.574003 241.030298 
L 81.466061 240.903994 
L 81.1519 240.819264 
L 81.034651 240.737194 
L 81.093294 240.573053 
L 81.463581 240.454295 
L 81.884319 240.369206 
L 81.944326 240.36069 
L 82.159061 240.396982 
L 82.224351 240.381279 
L 82.463592 240.258784 
L 82.4849 240.21818 
L 82.580932 239.812547 
L 82.712103 239.258487 
L 82.69755 239.052053 
L 82.665103 238.889672 
L 82.584326 238.550431 
L 83.078474 238.48259 
L 83.284189 238.335696 
L 83.288142 237.997173 
L 83.013328 237.84834 
L 82.964351 237.689696 
L 83.101758 237.526777 
L 83.234638 237.206184 
L 83.242327 236.971579 
L 83.294789 236.805462 
L 83.316421 236.714013 
L 83.160257 236.638662 
L 82.934239 236.669887 
L 82.71814 236.442612 
L 82.97373 236.314548 
L 83.292526 236.118786 
L 84.071405 236.058958 
L 84.136479 235.808003 
L 83.893035 235.45004 
L 84.122789 235.124058 
L 84.204716 234.741697 
L 84.19602 234.649816 
L 84.102056 234.449671 
L 83.885776 234.224408 
L 83.422782 233.964146 
L 82.838586 233.752754 
L 82.814116 233.729254 
L 82.784256 233.57697 
L 82.66442 232.437864 
L 82.77574 232.332545 
L 83.029066 232.237647 
L 83.395365 232.208649 
L 83.894005 232.125393 
L 84.084341 232.021798 
L 84.232779 231.91055 
L 84.426745 231.648708 
L 84.448951 231.572818 
L 85.546878 230.021988 
L 85.590069 229.96098 
L 85.648352 229.823752 
L 85.656473 229.74912 
L 85.596322 229.351128 
L 85.440158 229.150479 
L 85.344972 229.056479 
L 84.531453 228.622519 
L 84.170292 228.535633 
L 83.987358 228.544688 
L 83.817684 228.61774 
L 83.73378 228.63258 
L 83.090332 228.52974 
L 83.027054 228.513391 
L 82.868375 228.41727 
L 82.795575 228.030597 
L 82.786807 227.386861 
L 82.858206 227.036696 
L 82.801288 226.882077 
L 82.716379 226.779165 
L 82.322376 226.684554 
L 81.814645 226.687824 
L 81.242559 226.687645 
L 81.123621 226.663498 
L 80.942304 226.57575 
L 80.860341 226.562239 
L 80.705687 226.571078 
L 80.562386 226.636836 
L 80.331231 226.781645 
L 80.215168 227.168641 
L 80.159508 227.249957 
L 80.051889 227.282728 
L 79.945061 227.273888 
L 79.820015 227.209281 
L 79.717894 226.980389 
L 79.432875 226.737268 
L 79.035242 226.526162 
L 78.634483 226.226159 
L 78.583099 226.151527 
L 78.488057 225.825545 
L 78.452412 225.768232 
L 78.310082 225.604558 
L 78.176735 225.487201 
L 78.106091 225.446202 
L 77.981584 225.416629 
L 77.839865 225.420079 
L 77.609859 225.481955 
L 77.501378 225.530824 
L 77.146829 225.823029 
L 77.088402 225.909555 
L 77.067777 226.010491 
L 77.036156 226.05591 
L 76.873057 226.18534 
L 76.698028 226.225153 
L 76.20697 226.252893 
L 75.729711 226.202588 
L 74.91091 225.768771 
L 74.730599 225.665823 
L 74.054092 225.143755 
L 73.850245 224.812419 
L 73.857288 224.762652 
L 73.94288 224.675731 
L 73.943184 224.67494 
L 74.022866 224.467392 
L 74.060524 224.429447 
L 74.117478 224.397826 
L 74.466385 224.301778 
L 74.544611 224.257401 
L 74.944184 223.696633 
L 74.967792 223.661024 
L 75.029021 223.46749 
L 75.031644 223.410788 
L 74.802393 223.059473 
L 74.759633 223.021959 
L 74.413851 222.741683 
L 74.283595 222.651959 
L 74.056356 222.563564 
L 73.660125 222.282857 
L 73.402163 222.071644 
L 73.117935 221.456438 
L 73.130583 221.256149 
" clip-path="url(#p47faa1d384)" style="fill: #00aa94"/>
   </g>
   <g id="PathCollection_1">
    <defs>
     <path id="ma697e4872b" d="M 0 1.581139 
C 0.419323 1.581139 0.821528 1.41454 1.118034 1.118034 
C 1.41454 0.821528 1.581139 0.419323 1.581139 0 
C 1.581139 -0.419323 1.41454 -0.821528 1.118034 -1.118034 
C 0.821528 -1.41454 0.419323 -1.581139 0 -1.581139 
C -0.419323 -1.581139 -0.821528 -1.41454 -1.118034 -1.118034 
C -1.41454 -0.821528 -1.581139 -0.419323 -1.581139 0 
C -1.581139 0.419323 -1.41454 0.821528 -1.118034 1.118034 
C -0.821528 1.41454 -0.419323 1.581139 0 1.581139 
z
" style="stroke: #000000"/>
    </defs>
    <g clip-path="url(#p47faa1d384)">
     <use xlink:href="#ma697e4872b" x="110.606816" y="249.239651" style="stroke: #000000"/>
    </g>
   </g>
   <g id="text_1">
    <!-- Boise -->
    <g transform="translate(113.606816 246.239651) scale(0.1 -0.1)">
     <defs>
      <path id="DejaVuSans-42" d="M 1259 2228 
L 1259 519 
L 2272 519 
Q 2781 519 3026 730 
Q 3272 941 3272 1375 
Q 3272 1813 3026 2020 
Q 2781 2228 2272 2228 
L 1259 2228 
z
M 1259 4147 
L 1259 2741 
L 2194 2741 
Q 2656 2741 2882 2914 
Q 3109 3088 3109 3444 
Q 3109 3797 2882 3972 
Q 2656 4147 2194 4147 
L 1259 4147 
z
M 628 4666 
L 2241 4666 
Q 2963 4666 3353 4366 
Q 3744 4066 3744 3513 
Q 3744 3084 3544 2831 
Q 3344 2578 2956 2516 
Q 3422 2416 3680 2098 
Q 3938 1781 3938 1306 
Q 3938 681 3513 340 
Q 3088 0 2303 0 
L 628 0 
L 628 4666 
z
" transform="scale(0.015625)"/>
      <path id="DejaVuSans-6f" d="M 1959 3097 
Q 1497 3097 1228 2736 
Q 959 2375 959 1747 
Q 959 1119 1226 758 
Q 1494 397 1959 397 
Q 2419 397 2687 759 
Q 2956 1122 2956 1747 
Q 2956 2369 2687 2733 
Q 2419 3097 1959 3097 
z
M 1959 3584 
Q 2709 3584 3137 3096 
Q 3566 2609 3566 1747 
Q 3566 888 3137 398 
Q 2709 -91 1959 -91 
Q 1206 -91 779 398 
Q 353 888 353 1747 
Q 353 2609 779 3096 
Q 1206 3584 1959 3584 
z
" transform="scale(0.015625)"/>
      <path id="DejaVuSans-69" d="M 603 3500 
L 1178 3500 
L 1178 0 
L 603 0 
L 603 3500 
z
M 603 4863 
L 1178 4863 
L 1178 4134 
L 603 4134 
L 603 4863 
z
" transform="scale(0.015625)"/>
      <path id="DejaVuSans-73" d="M 2834 3397 
L 2834 2853 
Q 2591 2978 2328 3040 
Q 2066 3103 1784 3103 
Q 1356 3103 1142 2972 
Q 928 2841 928 2578 
Q 928 2378 1081 2264 
Q 1234 2150 1697 2047 
L 1894 2003 
Q 2506 1872 2764 1633 
Q 3022 1394 3022 966 
Q 3022 478 2636 193 
Q 2250 -91 1575 -91 
Q 1294 -91 989 -36 
Q 684 19 347 128 
L 347 722 
Q 666 556 975 473 
Q 1284 391 1588 391 
Q 1994 391 2212 530 
Q 2431 669 2431 922 
Q 2431 1156 2273 1281 
Q 2116 1406 1581 1522 
L 1381 1569 
Q 847 1681 609 1914 
Q 372 2147 372 2553 
Q 372 3047 722 3315 
Q 1072 3584 1716 3584 
Q 2034 3584 2315 3537 
Q 2597 3491 2834 3397 
z
" transform="scale(0.015625)"/>
      <path id="DejaVuSans-65" d="M 3597 1894 
L 3597 1613 
L 953 1613 
Q 991 1019 1311 708 
Q 1631 397 2203 397 
Q 2534 397 2845 478 
Q 3156 559 3463 722 
L 3463 178 
Q 3153 47 2828 -22 
Q 2503 -91 2169 -91 
Q 1331 -91 842 396 
Q 353 884 353 1716 
Q 353 2575 817 3079 
Q 1281 3584 2069 3584 
Q 2775 3584 3186 3129 
Q 3597 2675 3597 1894 
z
M 3022 2063 
Q 3016 2534 2758 2815 
Q 2500 3097 2075 3097 
Q 1594 3097 1305 2825 
Q 1016 2553 972 2059 
L 3022 2063 
z
" transform="scale(0.015625)"/>
     </defs>
     <use xlink:href="#DejaVuSans-42"/>
     <use xlink:href="#DejaVuSans-6f" x="68.603516"/>
     <use xlink:href="#DejaVuSans-69" x="129.785156"/>
     <use xlink:href="#DejaVuSans-73" x="157.568359"/>
     <use xlink:href="#DejaVuSans-65" x="209.667969"/>
    </g>
   </g>
   <g id="text_2">
    <!-- Idaho -->
    <g transform="translate(167.770312 37.2) scale(0.12 -0.12)">
     <defs>
      <path id="DejaVuSans-49" d="M 628 4666 
L 1259 4666 
L 1259 0 
L 628 0 
L 628 4666 
z
" transform="scale(0.015625)"/>
      <path id="DejaVuSans-64" d="M 2906 2969 
L 2906 4863 
L 3481 4863 
L 3481 0 
L 2906 0 
L 2906 525 
Q 2725 213 2448 61 
Q 2172 -91 1784 -91 
Q 1150 -91 751 415 
Q 353 922 353 1747 
Q 353 2572 751 3078 
Q 1150 3584 1784 3584 
Q 2172 3584 2448 3432 
Q 2725 3281 2906 2969 
z
M 947 1747 
Q 947 1113 1208 752 
Q 1469 391 1925 391 
Q 2381 391 2643 752 
Q 2906 1113 2906 1747 
Q 2906 2381 2643 2742 
Q 2381 3103 1925 3103 
Q 1469 3103 1208 2742 
Q 947 2381 947 1747 
z
" transform="scale(0.015625)"/>
      <path id="DejaVuSans-61" d="M 2194 1759 
Q 1497 1759 1228 1600 
Q 959 1441 959 1056 
Q 959 750 1161 570 
Q 1363 391 1709 391 
Q 2188 391 2477 730 
Q 2766 1069 2766 1631 
L 2766 1759 
L 2194 1759 
z
M 3341 1997 
L 3341 0 
L 2766 0 
L 2766 531 
Q 2569 213 2275 61 
Q 1981 -91 1556 -91 
Q 1019 -91 701 211 
Q 384 513 384 1019 
Q 384 1609 779 1909 
Q 1175 2209 1959 2209 
L 2766 2209 
L 2766 2266 
Q 2766 2663 2505 2880 
Q 2244 3097 1772 3097 
Q 1472 3097 1187 3025 
Q 903 2953 641 2809 
L 641 3341 
Q 956 3463 1253 3523 
Q 1550 3584 1831 3584 
Q 2591 3584 2966 3190 
Q 3341 2797 3341 1997 
z
" transform="scale(0.015625)"/>
      <path id="DejaVuSans-68" d="M 3513 2113 
L 3513 0 
L 2938 0 
L 2938 2094 
Q 2938 2591 2744 2837 
Q 2550 3084 2163 3084 
Q 1697 3084 1428 2787 
Q 1159 2491 1159 1978 
L 1159 0 
L 581 0 
L 581 4863 
L 1159 4863 
L 1159 2956 
Q 1366 3272 1645 3428 
Q 1925 3584 2291 3584 
Q 2894 3584 3203 3211 
Q 3513 2838 3513 2113 
z
" transform="scale(0.015625)"/>
     </defs>
     <use xlink:href="#DejaVuSans-49"/>
     <use xlink:href="#DejaVuSans-64" x="29.492188"/>
     <use xlink:href="#DejaVuSans-61" x="92.96875"/>
     <use xlink:href="#DejaVuSans-68" x="154.248047"/>
     <use xlink:href="#DejaVuSans-6f" x="217.626953"/>
    </g>
   </g>
  </g>
 </g>
 <defs>
  <clipPath id="p47faa1d384">
   <rect x="61.979728" y="43.2" width="245.040544" height="277.2"/>
  </clipPath>
 </defs>
</svg>
