<?xml version="1.0" encoding="utf-8" standalone="no"?>
<!DOCTYPE svg PUBLIC "-//W3C//DTD SVG 1.1//EN"
  "http://www.w3.org/Graphics/SVG/1.1/DTD/svg11.dtd">
<svg xmlns:xlink="http://www.w3.org/1999/xlink" width="460.8pt" height="345.6pt" viewBox="0 0 460.8 345.6" xmlns="http://www.w3.org/2000/svg" version="1.1">
 <metadata>
  <rdf:RDF xmlns:dc="http://purl.org/dc/elements/1.1/" xmlns:cc="http://creativecommons.org/ns#" xmlns:rdf="http://www.w3.org/1999/02/22-rdf-syntax-ns#">
   <cc:Work>
    <dc:type rdf:resource="http://purl.org/dc/dcmitype/StillImage"/>
    <dc:date>2023-06-19T14:47:54.550650</dc:date>
    <dc:format>image/svg+xml</dc:format>
    <dc:creator>
     <cc:Agent>
      <dc:title>Matplotlib v3.7.1, https://matplotlib.org/</dc:title>
     </cc:Agent>
    </dc:creator>
   </cc:Work>
  </rdf:RDF>
 </metadata>
 <defs>
  <style type="text/css">*{stroke-linejoin: round; stroke-linecap: butt}</style>
 </defs>
 <g id="figure_1">
  <g id="patch_1">
   <path d="M 0 345.6 
L 460.8 345.6 
L 460.8 0 
L 0 0 
z
" style="fill: #ffffff"/>
  </g>
  <g id="axes_1">
   <g id="PatchCollection_1">
    <path d="M 168.705238 155.234775 
L 168.769093 154.897024 
L 168.820216 154.785897 
L 168.956457 154.599461 
L 168.990651 154.483441 
L 168.971844 154.410793 
L 168.91719 154.199682 
L 168.896868 153.999617 
L 168.907684 153.728263 
L 168.997201 153.346088 
L 168.996966 153.022272 
L 168.940569 152.909004 
L 168.922665 152.821683 
L 168.945271 152.710949 
L 169.032504 152.508482 
L 169.112314 152.410284 
L 169.20472 152.336024 
L 169.232958 152.27752 
L 169.459331 151.808518 
L 169.477973 151.684373 
L 169.459297 151.576304 
L 169.379824 151.353131 
L 169.374113 151.119912 
L 169.385332 150.990831 
L 169.481366 150.648756 
L 169.608671 150.326469 
L 170.087394 149.281852 
L 170.160284 149.060427 
L 170.262834 148.53397 
L 170.412746 148.186565 
L 170.745386 147.694878 
L 170.893249 147.456417 
L 170.944541 147.338737 
L 170.994086 147.279897 
L 171.178528 147.131422 
L 171.511067 146.964687 
L 171.605455 146.894708 
L 171.847638 146.620558 
L 171.972827 146.484401 
L 172.062983 146.445262 
L 172.600924 146.408132 
L 172.891007 146.329416 
L 173.106049 146.211344 
L 173.224823 146.122319 
L 173.314709 146.025825 
L 173.409601 145.710047 
L 173.421928 145.618663 
L 173.425421 145.169829 
L 173.382729 144.889564 
L 173.251594 144.520711 
L 173.139404 144.124951 
L 173.112397 143.812186 
L 173.122508 143.659954 
L 173.174942 143.394803 
L 173.234161 143.207668 
L 173.572411 142.410556 
L 173.678521 141.994439 
L 173.712279 141.734355 
L 173.719904 141.555739 
L 173.702168 141.300984 
L 173.579061 140.845117 
L 173.539325 140.755437 
L 173.109441 140.068971 
L 173.019622 139.950986 
L 172.900848 139.858336 
L 172.685604 139.793948 
L 172.475668 139.695838 
L 172.361462 139.593709 
L 172.291696 139.43772 
L 172.269896 139.225468 
L 172.285952 139.03877 
L 172.323976 138.916023 
L 172.45024 138.705606 
L 173.180148 138.050723 
L 173.364892 137.69515 
L 173.847881 136.855796 
L 174.045524 136.648393 
L 174.222072 136.511144 
L 174.524852 136.345457 
L 175.639867 135.788815 
L 176.659286 135.526329 
L 177.036232 135.454122 
L 177.261418 135.332729 
L 177.435246 135.276379 
L 177.610686 135.257683 
L 178.598698 135.25563 
L 179.288332 135.35741 
L 179.655335 135.305428 
L 179.707451 135.271633 
L 180.753287 134.593452 
L 181.29872 134.274703 
L 181.773244 133.913931 
L 181.823864 133.847403 
L 181.877641 133.755583 
L 181.917546 133.619513 
L 182.059463 132.923525 
L 182.15934 132.728978 
L 182.175919 132.696683 
L 182.209946 132.423932 
L 182.204302 132.204647 
L 182.110587 131.713222 
L 182.067827 131.610001 
L 182.048445 131.46703 
L 182.226841 130.57766 
L 182.301545 130.34147 
L 182.493478 130.073218 
L 182.640635 129.804267 
L 182.706874 129.633862 
L 182.855677 129.084602 
L 182.871028 128.778128 
L 182.837102 128.507954 
L 182.67671 128.090265 
L 182.655952 127.954675 
L 182.682925 127.690747 
L 182.812346 127.277426 
L 182.910462 127.121961 
L 183.332049 126.739 
L 183.680107 126.363682 
L 183.962598 126.175325 
L 184.040493 126.084553 
L 184.248381 125.642183 
L 184.34569 125.373975 
L 184.436081 125.212263 
L 184.622706 124.984723 
L 184.700232 124.920379 
L 185.012617 124.739753 
L 185.211705 124.527981 
L 185.491239 123.977542 
L 185.539854 123.910241 
L 185.615656 123.805303 
L 185.817196 123.605195 
L 185.986354 123.475284 
L 186.424299 123.299638 
L 186.634975 123.151949 
L 186.977423 122.994474 
L 187.10006 122.885007 
L 187.181616 122.739807 
L 187.264046 122.241874 
L 187.540457 121.469092 
L 187.549392 121.28602 
L 187.524266 121.117887 
L 187.443785 120.778433 
L 187.343755 120.482049 
L 187.341974 120.345586 
L 187.440762 120.038151 
L 187.627757 119.669342 
L 187.751536 119.178048 
L 187.781598 118.941203 
L 187.772529 118.619615 
L 187.875684 117.945904 
L 187.873433 117.781223 
L 187.828691 117.337193 
L 187.797621 117.179151 
L 187.764972 116.765262 
L 187.649388 116.393108 
L 187.644485 116.37732 
L 187.636188 116.285588 
L 187.67569 115.774419 
L 187.741123 115.323575 
L 187.728762 115.240666 
L 187.372071 114.609327 
L 187.081216 114.239164 
L 186.915081 113.778404 
L 186.56373 113.230105 
L 186.283188 112.659747 
L 186.105262 112.445355 
L 186.006307 112.360611 
L 185.681157 112.202525 
L 185.514181 112.213927 
L 185.021855 112.325272 
L 184.927299 112.317978 
L 184.54078 112.204491 
L 184.086209 111.347097 
L 183.72243 110.746423 
L 183.48458 110.412953 
L 183.200242 110.095034 
L 182.811507 109.736578 
L 182.549136 109.39162 
L 182.255796 109.127998 
L 182.162718 109.021588 
L 182.118548 108.916838 
L 182.100476 108.539948 
L 182.230872 108.275278 
L 182.427104 108.012485 
L 182.538622 107.791235 
L 182.844559 106.928861 
L 183.017681 106.602992 
L 183.332586 106.277254 
L 183.42207 106.113446 
L 183.476082 105.770016 
L 183.518991 104.899939 
L 183.519495 104.889719 
L 183.532547 104.625062 
L 183.701571 103.507016 
L 183.750679 103.338621 
L 184.203404 102.631756 
L 184.22255 102.532467 
L 184.245458 101.986745 
L 184.329735 101.512749 
L 184.39453 101.373622 
L 184.458418 101.294469 
L 184.596674 101.17976 
L 184.688744 101.114499 
L 185.002608 100.957854 
L 185.533563 100.895782 
L 185.739603 100.847251 
L 186.443244 100.509413 
L 186.613981 100.489669 
L 186.770073 100.504346 
L 187.055789 100.676192 
L 187.508043 100.893554 
L 187.622483 100.933392 
L 188.286723 101.053912 
L 188.477278 100.99031 
L 188.644959 100.871102 
L 189.279136 100.62801 
L 189.60442 100.441138 
L 189.974211 100.195076 
L 190.39395 99.882748 
L 190.720712 99.684606 
L 190.853392 99.634022 
L 191.090067 99.580205 
L 191.397212 99.55915 
L 191.823065 99.609647 
L 192.409309 99.609691 
L 193.11473 99.678621 
L 193.406928 99.749692 
L 193.605478 99.771533 
L 194.328668 99.82085 
L 194.752068 99.799228 
L 195.222058 99.706578 
L 195.974 99.597591 
L 196.316886 99.514595 
L 196.804342 99.33161 
L 197.146959 99.340346 
L 197.496293 99.274823 
L 197.68443 99.148145 
L 198.020329 98.785582 
L 198.278971 98.549699 
L 198.749263 98.274501 
L 199.172495 97.872624 
L 199.229598 97.750314 
L 199.300137 97.357175 
L 199.531907 97.138764 
L 199.672984 97.060136 
L 199.975327 96.959667 
L 200.341456 96.907248 
L 200.472457 96.854829 
L 200.841979 96.562159 
L 201.202092 96.503972 
L 201.355904 96.479119 
L 201.621264 96.531537 
L 202.289736 96.767421 
L 202.709643 96.832945 
L 202.735877 96.832307 
L 203.069055 96.824208 
L 203.59309 96.758685 
L 204.0264 96.592692 
L 204.570589 96.042297 
L 204.799 95.692839 
L 204.990463 95.456955 
L 205.175207 95.369591 
L 205.244574 95.320888 
L 205.34319 95.251649 
L 205.558165 94.871614 
L 205.658935 94.766777 
L 205.897423 94.623153 
L 206.159424 94.465369 
L 206.717049 94.273168 
L 207.294829 94.142121 
L 207.996857 93.783927 
L 208.05396 93.661617 
L 208.12114 93.312159 
L 207.993431 91.46781 
L 207.989333 91.201174 
L 208.215158 90.433546 
L 208.28919 89.777134 
L 208.357847 89.664128 
L 208.433727 89.585151 
L 208.779635 89.333235 
L 208.867271 89.248099 
L 208.955546 89.110063 
L 208.9976 88.968009 
L 209.019937 88.778253 
L 209.015806 88.555387 
L 209.001463 88.469507 
L 208.863711 88.0834 
L 208.855414 87.893077 
L 208.899425 87.622475 
L 208.937642 87.387499 
L 209.0892 87.040226 
L 209.355433 86.698762 
L 210.166595 85.941881 
L 210.682099 85.734216 
L 210.838762 85.595175 
L 211.174358 85.398168 
L 211.38432 85.260154 
L 211.384337 85.260143 
L 212.060056 84.815972 
L 212.240568 84.719784 
L 213.211987 84.37784 
L 213.413392 84.207173 
L 213.44762 84.107403 
L 213.458066 83.992737 
L 213.42189 83.528833 
L 213.346212 83.071436 
L 213.353199 82.932964 
L 213.41581 82.628237 
L 213.432605 82.565727 
L 213.645901 82.173374 
L 213.714592 82.008561 
L 213.722687 81.626473 
L 213.814186 81.176983 
L 213.981329 80.856443 
L 214.251594 80.234321 
L 214.366975 79.858873 
L 214.374432 79.46665 
L 214.42561 78.884614 
L 214.433617 78.793551 
L 214.398045 78.703741 
L 214.255524 78.479957 
L 214.129696 78.363587 
L 214.022242 78.184971 
L 213.985562 78.013431 
L 214.012568 77.693808 
L 214.079546 77.470374 
L 214.358577 76.910237 
L 214.53442 76.728825 
L 214.614163 76.595157 
L 214.620612 76.297682 
L 214.802669 75.95434 
L 214.821211 75.637513 
L 214.78406 75.389441 
L 214.696424 75.129532 
L 214.551316 74.905312 
L 214.517189 74.788899 
L 214.496329 74.619193 
L 214.456593 74.493563 
L 214.434322 74.44145 
L 214.345578 74.334866 
L 214.190796 74.129734 
L 214.035711 74.014501 
L 214.000812 73.940328 
L 213.973637 73.552955 
L 213.96487 73.043402 
L 213.870718 72.469374 
L 214.037089 71.952439 
L 214.100943 71.458874 
L 214.112531 71.133004 
L 214.088179 70.809407 
L 214.054219 70.681068 
L 213.89843 70.42959 
L 213.782981 70.310643 
L 213.228614 70.300815 
L 213.128583 70.285264 
L 212.897149 70.181126 
L 212.760707 70.059951 
L 212.627826 69.704291 
L 212.593933 69.423807 
L 212.558597 69.266158 
L 212.489469 69.110169 
L 212.266835 68.933256 
L 211.993514 68.789193 
L 211.634943 68.553178 
L 211.124041 68.289425 
L 210.945107 68.274048 
L 210.487479 68.157024 
L 210.047687 67.967181 
L 209.501213 67.585835 
L 208.851854 67.314438 
L 208.846022 67.309195 
L 208.499194 66.997393 
L 208.166788 66.898059 
L 207.535467 66.805278 
L 207.260903 66.583329 
L 206.925307 66.396151 
L 206.388574 65.930411 
L 206.266273 65.773767 
L 206.228182 65.595806 
L 206.067959 65.326723 
L 205.738173 64.957347 
L 205.541874 64.785676 
L 205.440735 64.66389 
L 205.344836 64.426608 
L 205.280444 64.144202 
L 205.052503 63.62587 
L 205.057508 63.364606 
L 205.186023 63.080323 
L 205.272786 62.966443 
L 205.402846 62.44016 
L 205.408018 62.164263 
L 205.382927 61.971232 
L 205.415576 61.902563 
L 205.514666 61.803754 
L 205.545737 61.743866 
L 205.554571 61.683366 
L 205.534484 61.578092 
L 205.450778 61.429747 
L 205.372749 61.343824 
L 205.237953 61.250213 
L 205.063857 61.064782 
L 204.616171 60.262865 
L 204.53401 60.183232 
L 204.3189 60.084423 
L 203.986529 59.737149 
L 203.913672 59.641092 
L 203.729432 59.25219 
L 203.610551 59.116635 
L 203.600178 59.104806 
L 203.494101 59.014602 
L 203.397732 58.978695 
L 203.247484 58.982452 
L 203.162401 58.955762 
L 203.055585 58.870495 
L 202.873125 58.638411 
L 202.726606 58.501555 
L 202.50152 58.359456 
L 202.142545 58.174812 
L 201.116308 57.733796 
L 200.882858 57.601745 
L 200.797808 57.465457 
L 200.77705 57.390061 
L 200.755787 57.061003 
L 200.700767 56.869675 
L 200.539234 56.614353 
L 200.447869 56.542408 
L 200.354892 56.485097 
L 199.972237 56.365583 
L 199.693844 56.23209 
L 199.159362 56.056837 
L 198.554744 55.733632 
L 197.998082 55.313484 
L 197.802364 55.165764 
L 197.557158 54.877505 
L 197.479902 54.654726 
L 197.473184 54.410105 
L 197.493143 54.301956 
L 197.493338 54.3009 
L 197.738544 54.021378 
L 197.932827 53.568 
L 198.776336 53.585648 
L 198.881876 53.586696 
L 200.532751 53.606484 
L 200.854508 53.610459 
L 201.01228 53.602509 
L 201.226113 53.601548 
L 201.241295 53.60181 
L 201.647498 53.607663 
L 203.009164 53.605436 
L 203.421312 53.614522 
L 203.572164 53.611551 
L 204.846698 53.626272 
L 205.203861 53.630097 
L 205.890806 53.637455 
L 207.074983 53.627845 
L 207.16602 53.627718 
L 207.169001 53.627714 
L 207.344407 53.630597 
L 209.320466 53.612206 
L 210.360375 53.609498 
L 210.478913 53.60098 
L 210.552542 53.604649 
L 211.02354 53.617841 
L 211.107481 53.609935 
L 212.028918 53.599276 
L 212.603876 53.600063 
L 213.426861 53.586041 
L 214.00491 53.57713 
L 214.72511 53.582415 
L 216.33467 53.594035 
L 216.40111 53.582022 
L 217.051276 53.576999 
L 218.898887 53.620113 
L 218.953873 53.627146 
L 219.548884 53.63645 
L 219.619457 53.643395 
L 220.008024 53.657549 
L 220.027271 53.656107 
L 221.027611 53.692713 
L 221.977665 53.685808 
L 221.995235 53.68568 
L 221.99893 53.685636 
L 224.981258 53.696354 
L 226.180096 53.700663 
L 226.253759 53.701668 
L 226.4468 53.699702 
L 226.90547 53.704813 
L 227.263504 53.705992 
L 228.178761 53.703371 
L 229.821574 53.715733 
L 229.935746 53.711714 
L 230.69125 53.721805 
L 231.271414 53.736963 
L 231.477924 53.741025 
L 232.51135 53.766273 
L 232.843454 53.783091 
L 232.913528 53.780116 
L 232.961757 53.778068 
L 233.137163 53.786979 
L 234.157355 53.823672 
L 235.563595 53.855953 
L 236.548652 53.872334 
L 236.56894 53.872334 
L 236.848139 53.876178 
L 238.834577 53.906755 
L 238.876094 53.902737 
L 238.921743 53.908765 
L 238.97468 53.91274 
L 239.631664 53.919554 
L 239.632189 53.919557 
L 240.82078 53.9265 
L 240.82858 53.927094 
L 240.970926 53.937945 
L 243.344555 53.988572 
L 244.292738 54.014962 
L 244.692751 54.026095 
L 244.819956 54.020154 
L 245.447852 54.02378 
L 245.515334 54.027711 
L 247.515342 54.058333 
L 247.576576 54.054358 
L 248.913252 54.071394 
L 249.072669 54.069865 
L 249.187412 54.073447 
L 249.789914 54.0914 
L 250.726097 54.104112 
L 251.674776 54.102059 
L 252.65204 54.10896 
L 252.656641 54.109397 
L 252.723853 54.109655 
L 253.362297 54.112105 
L 253.365652 54.112186 
L 255.021469 54.1519 
L 255.117973 54.15487 
L 260.281072 54.288669 
L 260.623281 54.286895 
L 260.997242 54.284956 
L 262.944783 54.218603 
L 265.253314 54.155001 
L 268.550931 54.16021 
L 269.678477 54.161991 
L 271.20732 54.173566 
L 272.685308 54.173566 
L 276.471021 54.166809 
L 277.57952 54.16483 
L 277.601223 54.163517 
L 278.305095 54.120929 
L 279.419943 54.116561 
L 279.981835 54.112499 
L 280.008064 54.112417 
L 282.833178 54.103631 
L 283.541157 54.116281 
L 285.033415 54.142945 
L 287.035439 54.177891 
L 287.670321 54.199732 
L 290.056445 54.24337 
L 290.131828 54.244604 
L 291.959244 54.274516 
L 292.890423 54.291421 
L 293.407539 54.291421 
L 293.488356 55.173758 
L 293.390073 56.406291 
L 293.310363 57.405918 
L 293.305007 57.530947 
L 293.297586 57.704176 
L 293.243183 58.974109 
L 292.868354 59.887285 
L 292.625634 59.972247 
L 292.382745 61.350595 
L 292.358889 61.58674 
L 292.255675 62.608424 
L 292.463932 63.988781 
L 293.011514 65.653029 
L 293.421344 66.692622 
L 294.789776 69.124061 
L 295.116574 69.704717 
L 295.382189 70.176663 
L 295.383127 70.17833 
L 295.954188 71.073815 
L 296.414403 71.615431 
L 297.375107 72.471558 
L 297.741136 73.23141 
L 297.773046 73.465284 
L 297.726625 73.684045 
L 297.824439 74.506581 
L 297.904537 74.769559 
L 298.514455 76.772044 
L 298.745078 77.529226 
L 298.798972 77.706169 
L 298.946322 78.189951 
L 299.101828 78.700508 
L 299.102778 78.705679 
L 299.309757 79.8329 
L 299.333632 79.962924 
L 299.370849 80.059549 
L 299.474709 80.086981 
L 299.555963 80.233753 
L 299.665802 80.435303 
L 299.673962 80.435774 
L 299.728682 80.438929 
L 299.729532 80.440886 
L 299.749911 80.487809 
L 299.749911 80.553682 
L 299.715616 80.617458 
L 299.664962 80.653583 
L 299.686191 80.825735 
L 299.58606 80.916768 
L 299.595666 81.504862 
L 299.824111 82.54013 
L 300.123095 83.343882 
L 300.412464 83.775832 
L 300.462966 83.851218 
L 300.574085 84.017089 
L 300.576381 84.020516 
L 300.78149 84.326688 
L 300.782414 84.331469 
L 300.794865 84.395872 
L 300.936037 85.126072 
L 301.463431 85.999716 
L 302.061365 86.606855 
L 302.467802 86.777215 
L 302.68963 87.83629 
L 302.692888 88.520135 
L 302.662657 88.769124 
L 302.666016 89.249628 
L 302.667954 89.957227 
L 302.672801 91.726408 
L 302.669442 91.835614 
L 302.672801 92.268068 
L 302.672816 93.44482 
L 302.672823 93.992286 
L 302.672835 94.854054 
L 302.659399 95.033151 
L 302.662791 96.321775 
L 302.659906 96.627799 
L 302.646435 98.056615 
L 302.638306 98.918789 
L 302.638237 98.926108 
L 302.639849 99.64669 
L 302.642122 100.434503 
L 302.649019 102.825356 
L 302.613616 103.919114 
L 302.601389 106.436738 
L 302.601395 106.442215 
L 302.608028 112.206297 
L 302.608141 112.303781 
L 302.605602 112.437799 
L 302.605017 112.468681 
L 302.603035 112.496725 
L 302.603908 112.73654 
L 302.603807 112.943419 
L 302.603673 113.361196 
L 302.603304 114.155032 
L 302.609719 118.376829 
L 302.615564 118.999475 
L 302.616941 119.009828 
L 302.624364 123.309554 
L 302.624375 123.31289 
L 302.626716 124.022972 
L 302.612507 124.082947 
L 302.628462 124.676632 
L 302.62339 124.716601 
L 302.634475 125.82377 
L 302.622853 130.952366 
L 302.622851 130.955202 
L 302.617378 139.75612 
L 302.615362 139.769137 
L 302.614556 141.670929 
L 302.614457 141.685662 
L 302.610324 142.300651 
L 302.61003 142.312837 
L 302.608745 142.366131 
L 302.600012 142.95536 
L 302.491013 152.194101 
L 302.493095 152.221839 
L 302.465023 154.764417 
L 302.465014 154.765191 
L 302.458138 155.403772 
L 302.454769 155.716677 
L 302.444536 156.673609 
L 302.444491 156.677816 
L 302.433742 156.841799 
L 302.440393 157.33401 
L 302.415301 162.637815 
L 302.415301 162.641965 
L 302.416006 163.142345 
L 302.414529 163.24111 
L 302.407441 163.691648 
L 302.402705 164.118467 
L 302.399111 164.235579 
L 302.399581 164.407381 
L 302.384432 168.24923 
L 302.384437 168.254778 
L 302.387287 171.402211 
L 302.390176 171.709079 
L 302.390109 172.044514 
L 302.38984 172.677906 
L 302.402033 177.783263 
L 302.410733 178.603003 
L 302.413386 178.601955 
L 302.419056 180.297698 
L 302.425378 182.188831 
L 302.427696 182.982099 
L 302.426822 183.808392 
L 302.428742 184.095675 
L 302.435992 185.18093 
L 302.438176 185.347709 
L 302.436967 185.984508 
L 302.436968 185.984938 
L 302.438277 186.322695 
L 302.438814 186.460425 
L 302.442811 187.192146 
L 302.447312 187.705062 
L 302.447312 187.752064 
L 302.440807 190.332542 
L 302.437538 191.629646 
L 302.022132 191.410405 
L 301.673234 191.952894 
L 300.869394 191.959228 
L 300.508202 192.243686 
L 300.1282 193.157824 
L 300.210529 193.744257 
L 300.223999 193.879279 
L 299.803957 194.497644 
L 299.955347 195.419775 
L 300.00463 195.49244 
L 300.36034 196.016911 
L 300.694593 196.186092 
L 300.841448 196.649866 
L 300.996129 197.285791 
L 300.913128 197.603841 
L 300.52399 198.184771 
L 299.443 199.190947 
L 298.783329 199.543156 
L 298.704662 199.945129 
L 298.596737 200.496607 
L 298.6923 201.210287 
L 299.05843 201.640994 
L 299.037302 201.833414 
L 299.037302 201.997091 
L 299.058296 202.160768 
L 299.121209 202.269886 
L 299.289058 202.379048 
L 299.498827 202.433607 
L 299.561774 202.624542 
L 299.582734 202.897381 
L 299.687635 203.088359 
L 299.85545 203.224779 
L 300.263366 203.347351 
L 301.062301 204.323779 
L 300.980375 205.338255 
L 301.159443 205.978155 
L 300.842993 206.75596 
L 300.869797 207.31601 
L 302.509756 208.052535 
L 303.091163 208.817323 
L 302.86816 210.180732 
L 302.571931 210.858549 
L 302.019579 211.408726 
L 301.90937 212.259611 
L 301.707361 212.795592 
L 301.80373 212.960885 
L 302.346545 213.269516 
L 302.63078 213.431124 
L 302.772261 214.401699 
L 302.582108 214.771032 
L 303.616844 216.498663 
L 303.554464 217.198425 
L 303.535859 217.407122 
L 303.618289 218.064364 
L 303.382181 218.46532 
L 302.939337 219.217355 
L 302.841859 220.053214 
L 302.451477 220.628159 
L 302.30891 220.711394 
L 301.970907 220.90873 
L 300.353891 221.354769 
L 299.465707 222.57407 
L 299.389962 223.474622 
L 299.22292 224.061405 
L 299.330575 224.432049 
L 299.339073 224.561829 
L 299.253285 224.689293 
L 299.15527 224.737125 
L 298.873451 224.800858 
L 298.410683 225.689615 
L 298.438395 226.210569 
L 298.101555 226.872267 
L 298.267892 227.740931 
L 298.334333 227.907972 
L 298.322106 228.146957 
L 298.224091 228.354098 
L 298.001827 228.539224 
L 297.508963 228.735488 
L 297.011362 229.189783 
L 296.310711 229.546142 
L 295.749055 229.596944 
L 295.455009 229.756297 
L 295.320213 230.074959 
L 295.332473 230.457396 
L 295.582416 230.720931 
L 295.770351 231.003467 
L 295.751373 231.16116 
L 295.40402 231.481438 
L 295.291764 232.402235 
L 295.262472 232.642511 
L 294.773923 233.340244 
L 294.095493 234.309161 
L 293.219502 234.645471 
L 292.660365 235.354476 
L 292.3244 236.318062 
L 292.349626 237.087393 
L 292.383854 237.431434 
L 292.321746 237.694619 
L 292.046914 238.272753 
L 291.880543 238.422932 
L 291.58811 238.479326 
L 291.305115 238.265676 
L 291.198299 237.841391 
L 291.392952 237.169035 
L 291.303704 236.974605 
L 291.109689 236.867409 
L 290.903313 236.95722 
L 290.707887 237.240979 
L 290.573192 237.706719 
L 290.472724 238.045867 
L 290.138371 238.299967 
L 289.777649 238.776146 
L 289.632944 238.795716 
L 289.472888 238.710754 
L 289.416558 238.456087 
L 289.545812 238.174686 
L 289.733613 237.869566 
L 289.750911 237.590655 
L 289.51071 237.431128 
L 289.225734 237.462273 
L 288.810697 237.734326 
L 288.64473 238.32207 
L 288.320487 238.528381 
L 288.421928 238.971187 
L 288.651549 239.137835 
L 288.517256 239.35546 
L 288.17867 239.515642 
L 288.088179 239.807789 
L 288.11663 240.020434 
L 288.041624 240.150519 
L 287.868434 240.181403 
L 287.747947 240.138682 
L 287.693364 239.987017 
L 287.715063 239.878117 
L 287.314638 239.306317 
L 287.138795 239.250098 
L 287.12557 239.291437 
L 287.107422 239.348165 
L 287.081995 239.642889 
L 287.13295 239.992215 
L 287.200415 240.458612 
L 287.211819 240.537456 
L 287.235164 241.33684 
L 287.517823 241.866531 
L 288.065976 242.454406 
L 288.816307 242.986761 
L 288.930613 243.329142 
L 288.930311 243.680085 
L 289.141927 243.871019 
L 289.208032 244.11979 
L 289.129768 244.325358 
L 288.884394 244.417833 
L 288.537175 244.97749 
L 288.18784 244.703122 
L 288.032991 244.738155 
L 287.802329 244.736233 
L 287.686646 244.876889 
L 287.563976 245.229973 
L 287.571567 245.643031 
L 287.37987 245.789804 
L 287.143666 245.827807 
L 286.762353 245.76936 
L 286.264955 245.986068 
L 286.143662 246.259955 
L 286.298108 246.783355 
L 286.547815 246.840579 
L 287.974948 246.137776 
L 288.154049 246.651915 
L 288.006858 247.088257 
L 287.806461 247.577061 
L 287.082801 248.080018 
L 286.660912 248.256756 
L 285.518789 248.274229 
L 285.300018 248.840525 
L 285.668197 249.166743 
L 286.113363 248.990617 
L 286.449262 249.235237 
L 285.921901 249.833683 
L 285.970674 250.684874 
L 286.283227 251.510337 
L 286.271303 251.969786 
L 286.157702 252.186887 
L 286.004633 252.283992 
L 285.757747 252.325141 
L 285.63108 252.317234 
L 285.473241 252.39228 
L 285.492186 253.009335 
L 284.887635 253.433795 
L 284.693486 253.398762 
L 284.389632 253.628792 
L 284.515863 254.016734 
L 285.691206 254.249909 
L 286.031774 254.313074 
L 286.256994 255.101363 
L 286.077691 255.383157 
L 285.813137 255.268666 
L 285.333071 255.23621 
L 284.845614 255.259318 
L 284.305624 255.059472 
L 283.808897 254.627018 
L 283.492312 254.622868 
L 283.417407 254.810308 
L 283.516027 255.152253 
L 283.586643 255.233711 
L 284.067807 255.788746 
L 284.442838 256.796363 
L 284.771616 257.152854 
L 285.586741 257.413767 
L 285.819418 257.885972 
L 285.352889 258.26889 
L 285.095053 258.295711 
L 284.683073 258.246699 
L 284.218525 257.971021 
L 283.895088 257.926684 
L 283.652805 258.175978 
L 283.910775 258.768789 
L 284.390505 259.201854 
L 284.772321 259.156075 
L 285.219268 258.870219 
L 285.514624 258.828939 
L 285.718649 259.087494 
L 285.764062 259.278691 
L 285.615998 259.403753 
L 285.502162 259.597877 
L 285.403341 259.930299 
L 285.332668 260.464313 
L 285.274591 260.681065 
L 285.028041 261.250768 
L 284.704033 261.751803 
L 284.562485 261.924915 
L 284.269044 262.159008 
L 283.953736 262.285555 
L 283.820183 262.364271 
L 283.489054 262.599368 
L 283.28466 262.825161 
L 283.108514 262.917811 
L 282.748599 263.063361 
L 282.593783 263.189952 
L 282.505744 263.303132 
L 282.260269 263.737857 
L 282.195071 263.9844 
L 281.820477 264.373521 
L 281.611817 264.700788 
L 281.391434 265.161897 
L 281.352301 265.27962 
L 281.324926 265.465488 
L 281.329124 265.607892 
L 281.376889 265.836568 
L 281.385824 266.236217 
L 281.437788 266.548414 
L 281.576715 266.9841 
L 281.928267 267.817993 
L 281.977745 268.018014 
L 281.995413 268.188156 
L 281.97143 268.38027 
L 282.003911 268.573083 
L 282.131855 268.842428 
L 282.224933 269.106705 
L 282.28442 269.16205 
L 282.623846 269.371812 
L 282.865256 269.632901 
L 283.159 269.895387 
L 283.307165 270.107246 
L 283.587976 270.618022 
L 283.748032 270.815159 
L 283.810341 270.856133 
L 284.084031 270.950356 
L 284.278987 271.09027 
L 284.387281 271.244424 
L 284.578978 271.66124 
L 284.603935 271.756991 
L 284.595202 271.994622 
L 284.645108 272.116777 
L 284.646796 272.120908 
L 284.604103 272.526322 
L 284.551972 272.698343 
L 284.591104 272.813139 
L 284.61717 272.827467 
L 284.613139 272.88076 
L 284.547975 273.02443 
L 284.430612 273.153511 
L 284.404546 273.139183 
L 284.27415 273.067457 
L 284.086013 273.216719 
L 283.878293 273.542021 
L 283.760964 273.613659 
L 283.669734 273.613659 
L 283.643668 273.585004 
L 283.643668 273.542021 
L 283.487072 273.52778 
L 283.030283 273.556436 
L 282.405747 273.637772 
L 282.250629 273.591993 
L 282.166184 273.588892 
L 281.429928 273.793717 
L 280.936056 273.851596 
L 280.817853 273.931185 
L 280.370033 274.013919 
L 279.755069 274.088529 
L 279.147462 274.210751 
L 278.718452 274.236043 
L 278.133686 274.238795 
L 277.244428 274.420164 
L 276.701817 274.672647 
L 276.205896 274.944569 
L 276.039962 275.137338 
L 275.916553 275.201682 
L 275.600036 275.437085 
L 275.514012 275.52908 
L 275.002707 276.249137 
L 274.665767 276.505377 
L 274.663415 276.507267 
L 274.560933 276.58964 
L 274.429462 276.645029 
L 274.236556 276.59842 
L 274.161617 276.528005 
L 274.025175 276.288495 
L 273.683834 275.997703 
L 273.358987 275.772215 
L 273.131012 275.662922 
L 272.973778 275.616182 
L 272.829341 275.648857 
L 272.769744 275.683907 
L 272.645067 275.757232 
L 272.396939 275.868447 
L 272.155058 275.924011 
L 271.948447 276.000586 
L 271.585878 276.205848 
L 271.388605 276.34716 
L 271.057375 276.693778 
L 270.910822 276.881262 
L 270.696922 277.291001 
L 270.63206 277.807456 
L 270.511472 278.263367 
L 270.494711 278.687084 
L 270.43257 279.093591 
L 270.349099 279.356252 
L 270.236136 279.555181 
L 270.107588 279.876376 
L 269.891638 280.307388 
L 269.739779 280.742638 
L 269.619863 280.939426 
L 269.524468 281.150236 
L 269.418189 281.481304 
L 269.375261 281.782929 
L 269.588624 282.247926 
L 269.677469 282.542432 
L 269.597324 282.740137 
L 269.64089 282.821779 
L 269.884551 283.113664 
L 270.166504 283.337928 
L 270.338014 283.528732 
L 270.415103 283.673014 
L 270.591517 284.160857 
L 270.643615 284.263728 
L 270.859463 284.573697 
L 271.019754 284.710379 
L 271.295796 284.86283 
L 271.56821 285.146327 
L 271.665251 285.300045 
L 271.860341 285.933044 
L 271.941931 286.251749 
L 272.000579 286.32745 
L 272.145922 286.944942 
L 272.134904 287.023613 
L 272.21196 287.188383 
L 272.265099 287.259585 
L 272.325863 287.299335 
L 272.449944 287.532161 
L 272.437415 287.642546 
L 272.104035 288.668073 
L 272.066146 288.727874 
L 271.807202 289.420805 
L 271.807202 289.45029 
L 271.833906 289.479776 
L 271.771361 289.883443 
L 271.289582 290.96698 
L 270.712541 291.210421 
L 270.486515 291.258864 
L 270.244265 291.225666 
L 270.237274 291.227317 
L 269.761612 291.339633 
L 269.428434 291.341118 
L 269.190618 291.325698 
L 268.850016 291.255457 
L 268.385569 291.132667 
L 267.894183 290.870268 
L 267.766101 290.759682 
L 267.580353 290.599307 
L 267.333702 290.440347 
L 267.168541 290.234386 
L 266.914199 289.837402 
L 266.755822 289.745407 
L 266.513236 289.513018 
L 266.167395 289.265602 
L 265.682055 288.972364 
L 265.523645 288.904875 
L 265.27602 288.891508 
L 265.044418 288.824456 
L 263.603581 288.102214 
L 263.394786 288.024591 
L 263.106921 287.959461 
L 262.513354 288.047044 
L 262.405329 288.022887 
L 262.114273 287.902237 
L 261.918377 287.790542 
L 261.645358 287.569903 
L 261.410128 287.432872 
L 260.997343 287.085118 
L 260.641525 286.81787 
L 260.523423 286.655591 
L 260.272137 286.38961 
L 259.921929 286.115723 
L 259.641555 285.952307 
L 259.130485 285.794702 
L 258.65633 285.607611 
L 257.498185 285.029914 
L 256.379273 284.611089 
L 255.90589 284.393028 
L 255.773412 284.372148 
L 255.533547 284.291086 
L 255.408391 284.248789 
L 255.363653 284.241953 
L 255.060198 284.195584 
L 254.229857 284.148407 
L 253.678009 284.201088 
L 253.083199 284.388223 
L 252.829125 284.555001 
L 252.916862 284.528137 
L 252.645355 284.751265 
L 252.108656 284.967318 
L 251.85381 285.282354 
L 251.729695 285.328264 
L 251.166292 285.944794 
L 250.55546 286.540707 
L 250.209317 286.956692 
L 249.994073 287.356952 
L 249.899383 287.621142 
L 249.868615 287.804214 
L 249.788738 288.032803 
L 249.38089 288.990098 
L 249.23343 289.132983 
L 249.06931 289.23319 
L 249.017078 289.326888 
L 248.914562 289.437361 
L 248.583399 289.679141 
L 248.552631 289.726362 
L 248.472552 289.957484 
L 248.368793 290.090322 
L 248.191573 290.227965 
L 248.084052 290.266667 
L 248.033768 290.23788 
L 247.925944 290.306898 
L 247.469693 290.948546 
L 247.342268 291.212125 
L 247.213134 291.479241 
L 247.090228 291.874871 
L 247.023553 292.167847 
L 246.98526 292.562298 
L 247.041019 293.01799 
L 247.103967 293.27637 
L 247.28468 293.692181 
L 247.367815 293.837949 
L 247.524781 294.044784 
L 247.71893 294.188324 
L 248.465633 294.841897 
L 248.651116 294.974341 
L 248.38579 295.089706 
L 248.275078 295.102068 
L 248.081197 295.16746 
L 247.681981 295.380105 
L 247.405167 295.488 
L 247.162413 295.462359 
L 246.885095 295.347343 
L 246.6632 295.064414 
L 246.564379 294.637508 
L 246.564715 294.188324 
L 246.448528 293.678465 
L 246.371103 293.484472 
L 246.228514 293.314854 
L 245.541803 292.83304 
L 245.253904 292.56221 
L 245.112826 292.318638 
L 244.864429 291.666463 
L 244.552648 291.044822 
L 244.384497 291.391789 
L 244.23173 291.359333 
L 243.697954 291.341424 
L 243.593388 291.315782 
L 243.586771 291.275376 
L 243.239082 291.248774 
L 242.779237 291.147912 
L 242.760292 291.203956 
L 242.675344 291.661483 
L 242.722974 291.841803 
L 242.790288 291.987571 
L 242.879133 292.112808 
L 242.992801 292.225639 
L 243.334847 292.425441 
L 243.787303 292.611877 
L 244.171201 292.937615 
L 244.382247 293.17328 
L 244.462694 293.513652 
L 244.263876 294.188367 
L 244.172679 294.352088 
L 244.061094 294.47881 
L 243.905438 294.605751 
L 243.756635 294.685471 
L 243.303105 294.531753 
L 242.614122 293.795363 
L 242.462081 293.632861 
L 242.26679 293.487705 
L 241.991958 293.319703 
L 241.493753 293.075738 
L 240.942845 292.873271 
L 240.409438 292.460518 
L 240.296341 292.31178 
L 240.219319 292.161906 
L 240.194328 292.082842 
L 240.169035 291.782352 
L 240.177366 291.667992 
L 240.388881 291.111 
L 240.495596 290.673916 
L 240.498854 290.436678 
L 240.394894 290.058827 
L 240.211325 289.679622 
L 240.081164 289.495545 
L 239.900551 289.333222 
L 239.429487 288.97896 
L 239.285756 288.839176 
L 239.193686 288.728093 
L 238.820536 288.152143 
L 238.497334 287.546926 
L 238.394113 287.145181 
L 237.795205 285.973057 
L 237.601828 285.475211 
L 237.574486 285.307733 
L 237.408049 284.659096 
L 237.412449 284.499918 
L 237.721408 283.690749 
L 237.737196 283.593513 
L 237.723289 283.398166 
L 237.703774 283.328493 
L 237.641129 283.244798 
L 237.575024 283.203605 
L 237.310839 283.123361 
L 237.019279 283.136684 
L 236.699397 283.204152 
L 236.659532 283.21256 
L 236.442172 282.899839 
L 236.24342 282.669896 
L 236.093274 282.460265 
L 235.853711 282.083419 
L 235.748675 281.875666 
L 235.70474 281.719415 
L 235.702959 281.550933 
L 235.726506 281.433603 
L 235.79204 281.28849 
L 235.830198 281.115465 
L 235.849109 280.920948 
L 235.923007 280.613033 
L 235.99499 280.462984 
L 236.046214 280.401742 
L 236.351345 280.147162 
L 236.483353 280.002792 
L 236.61657 279.715975 
L 236.679522 279.640916 
L 236.690099 279.628305 
L 236.793396 279.564472 
L 236.851128 279.528797 
L 237.175002 279.418761 
L 237.841627 279.369925 
L 238.082365 279.317855 
L 238.469186 279.144612 
L 238.576808 279.030383 
L 238.68087 278.81634 
L 238.733035 278.632788 
L 238.939545 277.568165 
L 238.972564 277.256362 
L 238.963629 277.063767 
L 238.925169 276.842953 
L 238.808444 276.391323 
L 238.533343 275.544937 
L 238.34393 275.092695 
L 238.218841 274.877385 
L 237.967723 274.530549 
L 237.288133 273.813986 
L 237.14289 273.599288 
L 236.587784 272.611197 
L 236.398404 272.133313 
L 236.313019 271.783594 
L 236.222796 271.568852 
L 236.070231 271.287015 
L 235.904264 271.047287 
L 235.768325 270.796201 
L 235.748037 270.721068 
L 235.612267 269.999132 
L 235.58432 269.696415 
L 235.590885 269.457276 
L 235.596363 269.257696 
L 235.59801 269.197691 
L 235.606187 268.899826 
L 235.621974 268.804424 
L 235.65543 268.734839 
L 235.765269 268.658133 
L 235.852434 268.644547 
L 236.000263 268.673727 
L 236.520604 268.84981 
L 236.788954 268.817616 
L 236.955022 268.72501 
L 237.074938 268.597807 
L 237.125927 268.408183 
L 237.129219 268.287096 
L 237.10967 268.175444 
L 237.046353 268.030638 
L 236.798023 267.6686 
L 236.100328 266.886994 
L 235.967211 266.594105 
L 235.79513 266.389192 
L 235.725633 266.180784 
L 235.745182 266.068434 
L 235.788043 265.991291 
L 235.786598 265.762047 
L 235.755561 265.531143 
L 235.778436 265.011936 
L 235.852972 264.636269 
L 235.916356 264.443631 
L 235.917397 264.245313 
L 235.841954 264.053199 
L 235.760331 263.929185 
L 235.583547 263.766993 
L 235.456511 263.681114 
L 235.265149 263.598424 
L 235.022462 263.566973 
L 234.080199 263.298982 
L 233.851385 263.217034 
L 233.522204 263.033744 
L 233.391304 262.848138 
L 233.254392 262.582157 
L 233.077138 262.176481 
L 232.880973 262.018963 
L 232.667644 261.879529 
L 232.542656 261.864153 
L 232.438259 261.763073 
L 232.417836 261.678635 
L 232.426603 261.508231 
L 232.411286 261.465291 
L 232.381425 261.441135 
L 232.154861 261.467344 
L 232.020938 261.510371 
L 231.840897 261.613155 
L 231.435836 261.598915 
L 231.298084 261.625561 
L 230.998295 261.528936 
L 230.833805 261.426632 
L 230.760109 261.33739 
L 230.743676 261.272859 
L 230.677914 261.014622 
L 230.728938 260.808835 
L 230.807672 260.620346 
L 230.906426 260.304873 
L 230.938773 260.073358 
L 230.933634 259.843415 
L 230.90206 259.760069 
L 230.812643 259.646626 
L 230.622458 259.248201 
L 230.463045 259.114248 
L 230.355049 259.0235 
L 230.17887 258.904553 
L 229.718386 258.618522 
L 229.507274 258.510409 
L 229.015652 258.121113 
L 228.614388 257.712379 
L 228.503172 257.562724 
L 228.378822 257.34488 
L 228.263474 257.194788 
L 227.92462 257.19243 
L 227.785457 257.219775 
L 227.675988 257.164953 
L 227.5205 257.031985 
L 227.412005 256.982842 
L 227.106874 256.967947 
L 226.921391 256.890498 
L 226.847258 256.838254 
L 226.70168 256.984939 
L 226.454828 256.75255 
L 226.375253 256.645485 
L 226.231724 256.247103 
L 226.249359 256.127327 
L 226.321812 256.003488 
L 226.309619 255.765289 
L 226.266221 255.683952 
L 226.112379 255.619827 
L 225.785415 255.413428 
L 225.026049 254.797859 
L 224.811242 254.649602 
L 224.73946 254.633177 
L 224.52912 254.702719 
L 224.129367 255.011727 
L 223.993698 255.159679 
L 223.671034 255.606329 
L 223.507081 255.768084 
L 222.975488 256.11693 
L 222.823292 256.194816 
L 222.437513 256.202722 
L 222.106048 256.157686 
L 221.629139 255.98204 
L 221.602008 255.96379 
L 221.185383 255.683559 
L 221.121394 255.609649 
L 220.478148 254.209984 
L 220.411204 254.105103 
L 220.391755 254.037133 
L 220.368343 253.70943 
L 220.588457 253.502507 
L 220.793087 253.375523 
L 220.881327 253.120725 
L 221.291695 253.114609 
L 221.610866 252.858763 
L 221.794267 252.801801 
L 222.032016 252.512057 
L 222.051431 252.438103 
L 222.042227 252.254725 
L 221.749592 252.293078 
L 221.679423 252.273945 
L 221.644355 252.210126 
L 221.617147 252.037494 
L 221.470729 251.813535 
L 221.040409 251.965287 
L 220.23395 252.133725 
L 219.986157 252.159629 
L 219.623152 252.114767 
L 219.522147 252.056321 
L 219.245266 251.811001 
L 218.437194 250.715496 
L 217.983798 250.506083 
L 217.876377 250.43344 
L 217.800767 250.351798 
L 217.749509 250.250324 
L 217.727406 250.139677 
L 217.664996 249.986221 
L 217.602183 249.880991 
L 217.531712 249.829402 
L 217.340988 249.771217 
L 217.097865 249.765714 
L 216.806439 249.834426 
L 216.5612 249.819399 
L 216.375985 249.72937 
L 215.813489 249.348723 
L 215.581618 249.123279 
L 215.287001 248.730402 
L 215.272961 248.587168 
L 215.293316 248.299346 
L 215.280216 248.110333 
L 215.220997 247.902974 
L 215.13269 247.785163 
L 214.670325 247.493278 
L 214.200739 247.243766 
L 214.098995 247.236995 
L 214.036887 247.260714 
L 213.740994 247.466501 
L 212.643527 246.707307 
L 212.56844 246.655363 
L 212.179468 246.386284 
L 211.359606 245.586725 
L 211.12441 245.045721 
L 211.044936 244.935773 
L 211.038865 244.925204 
L 210.291045 243.623385 
L 210.016851 243.324948 
L 209.759082 243.062593 
L 209.432421 242.853224 
L 209.09182 242.707937 
L 208.88326 242.669322 
L 208.698046 242.575973 
L 208.388985 242.314448 
L 208.298158 242.211708 
L 207.638319 241.166698 
L 207.586974 241.059641 
L 207.561935 241.007433 
L 207.448301 240.700609 
L 207.301614 240.183849 
L 207.197922 239.585446 
L 207.172696 239.334143 
L 207.067627 238.825944 
L 207.034809 238.542665 
L 206.965614 238.196396 
L 206.969309 237.645957 
L 207.039848 237.213503 
L 207.012976 236.383541 
L 207.070079 235.937983 
L 207.157413 235.645312 
L 207.557166 234.7673 
L 207.778019 234.013564 
L 207.899782 233.828177 
L 207.988303 233.690036 
L 208.000552 233.670921 
L 208.079845 233.581229 
L 208.490998 233.116157 
L 208.699255 232.958901 
L 209.606215 231.866846 
L 209.824583 231.355764 
L 209.945506 231.137353 
L 209.985814 230.805369 
L 210.100952 230.137816 
L 210.147046 229.87057 
L 210.257892 229.560426 
L 210.291516 229.267755 
L 210.412439 228.839713 
L 210.456939 228.605919 
L 210.496414 228.398523 
L 210.663881 227.771304 
L 210.664363 227.7695 
L 210.781928 227.428778 
L 210.867293 227.269087 
L 211.118887 226.798438 
L 211.164886 226.71239 
L 211.994589 225.388864 
L 212.065128 225.327708 
L 212.246513 225.227239 
L 212.46824 225.000092 
L 212.62179 224.876602 
L 212.723523 224.794786 
L 212.941857 224.541429 
L 213.082935 224.344859 
L 213.256362 223.955632 
L 213.328174 223.794463 
L 213.519637 223.0257 
L 213.546509 222.824762 
L 213.556475 222.435922 
L 213.556586 222.431623 
L 213.444415 221.710835 
L 213.44238 221.697762 
L 213.435157 221.661443 
L 213.391995 221.444405 
L 213.264354 221.033792 
L 212.968763 220.47466 
L 212.884797 220.382625 
L 212.733634 220.216935 
L 212.732038 220.214178 
L 212.498505 219.810691 
L 212.404453 219.417551 
L 212.407812 219.146721 
L 212.424607 218.998202 
L 212.432369 218.966571 
L 212.474992 218.792896 
L 212.632864 218.526434 
L 213.099797 218.05471 
L 213.365157 217.88435 
L 213.603645 217.552365 
L 213.643953 217.299008 
L 213.771594 217.02381 
L 213.930715 216.766204 
L 213.936185 216.757349 
L 214.597939 216.303054 
L 215.390693 215.647865 
L 215.572079 215.311512 
L 215.672848 214.905267 
L 215.860952 213.926786 
L 215.850875 213.660325 
L 215.719202 213.408803 
L 214.436707 212.629425 
L 213.936185 212.227549 
L 213.247592 211.847514 
L 213.133387 211.795095 
L 212.968763 211.773254 
L 212.888147 211.73394 
L 212.49813 211.325667 
L 212.353766 211.174546 
L 212.033923 210.87161 
L 211.788885 210.719989 
L 211.407069 210.546658 
L 211.120043 210.349389 
L 210.992906 210.299373 
L 210.89348 210.287404 
L 210.698692 210.305707 
L 210.460876 210.209082 
L 210.260925 210.169388 
L 210.205626 210.15841 
L 209.995992 210.143908 
L 209.492177 210.172432 
L 209.243545 210.166754 
L 209.131321 210.140763 
L 208.858639 209.97512 
L 208.636711 209.891468 
L 208.322511 209.731504 
L 207.888899 209.412581 
L 206.656688 208.772069 
L 206.567931 208.730374 
L 206.230433 208.571829 
L 205.876026 208.461881 
L 205.649597 208.427984 
L 205.25935 208.408108 
L 204.956403 208.332058 
L 204.743678 208.25177 
L 204.383796 208.234297 
L 204.383193 208.234529 
L 203.993515 208.384651 
L 203.813037 208.494424 
L 203.667324 208.624204 
L 203.321449 209.252267 
L 203.290546 209.353915 
L 203.286751 209.428044 
L 203.311171 209.678081 
L 203.168447 210.059427 
L 202.726976 210.739733 
L 202.480627 211.073509 
L 202.161121 211.24601 
L 201.685656 211.758839 
L 201.251943 212.284248 
L 201.190071 212.329765 
L 200.860185 212.470553 
L 200.560081 212.540172 
L 200.495264 212.555209 
L 200.153924 212.57753 
L 199.929913 212.547215 
L 199.527977 212.284248 
L 198.528074 211.689996 
L 198.415111 211.560565 
L 198.166176 211.022226 
L 198.031111 210.833038 
L 197.760008 210.665561 
L 197.586146 210.489303 
L 197.448764 210.308939 
L 197.3095 210.102803 
L 197.243261 209.969441 
L 197.169598 209.701364 
L 197.169428 209.700516 
L 197.046525 209.089944 
L 196.958688 208.909973 
L 196.820801 208.479966 
L 196.805081 208.319565 
L 196.805753 207.520879 
L 196.745425 207.182124 
L 196.615265 206.879537 
L 196.561017 206.824017 
L 196.517487 206.749328 
L 196.425448 206.59141 
L 196.388701 206.505443 
L 196.34883 206.294589 
L 196.268113 206.098587 
L 195.992945 205.556141 
L 195.748075 204.980061 
L 195.62396 204.781918 
L 195.555135 204.468324 
L 195.556613 204.398869 
L 195.59168 204.333477 
L 195.941183 203.962003 
L 195.97306 203.750582 
L 195.998689 203.690344 
L 196.592558 202.966923 
L 196.61775 202.891877 
L 196.64825 202.432166 
L 196.532969 201.865302 
L 196.481476 201.68105 
L 196.42748 201.587137 
L 196.182728 201.16145 
L 195.997345 200.909885 
L 195.914748 200.765297 
L 195.839339 200.572964 
L 195.747504 200.236261 
L 195.705718 200.050568 
L 195.678611 199.272457 
L 195.660909 199.122103 
L 195.530245 198.731497 
L 195.428333 198.20268 
L 195.42756 197.967801 
L 195.452753 197.796043 
L 195.45544 197.634812 
L 195.438108 197.482012 
L 195.279496 197.036628 
L 195.301229 196.771564 
L 195.287625 196.66 
L 195.106643 195.854369 
L 195.006578 195.648146 
L 194.871682 195.508188 
L 194.700004 195.386096 
L 194.371159 195.288554 
L 194.279727 195.231505 
L 193.740643 194.594051 
L 193.531076 194.134557 
L 193.471085 194.03553 
L 193.198469 193.845381 
L 192.967169 193.594471 
L 192.933109 193.417602 
L 192.873588 193.306605 
L 192.675912 193.14983 
L 192.087921 192.826188 
L 191.938278 192.688022 
L 191.306788 191.955078 
L 191.058425 191.743918 
L 190.668346 191.477544 
L 189.503986 190.779808 
L 189.291766 190.560917 
L 189.205742 190.429346 
L 189.197378 190.334643 
L 189.131643 190.253001 
L 189.026271 190.191453 
L 188.802596 190.141481 
L 188.590375 190.065867 
L 188.468612 190.002571 
L 188.329416 189.897384 
L 188.152666 189.697189 
L 188.094824 189.469867 
L 188.059581 189.375707 
L 188.038057 189.318202 
L 187.984112 189.233415 
L 187.925632 189.179249 
L 187.672599 189.025575 
L 187.364916 188.960314 
L 187.028312 188.831364 
L 186.860866 188.735438 
L 186.687778 188.554332 
L 186.506325 188.459454 
L 186.144596 188.350379 
L 185.811956 188.147519 
L 185.534436 187.926575 
L 185.142912 187.66304 
L 184.650485 187.237488 
L 184.153758 186.639654 
L 183.939421 186.345323 
L 183.839491 186.115467 
L 183.775973 185.219065 
L 183.40635 184.860783 
L 183.256539 184.647483 
L 183.037432 184.236303 
L 182.816512 183.706263 
L 182.56667 183.294777 
L 182.096479 183.189808 
L 181.682215 183.140491 
L 180.955431 182.984502 
L 180.775624 182.877481 
L 180.608414 182.667806 
L 180.439524 182.426768 
L 180.278797 182.148862 
L 180.231737 181.946744 
L 180.17057 181.407531 
L 180.083539 180.967389 
L 180.069465 180.908942 
L 179.956569 180.695642 
L 179.824762 180.499902 
L 179.690907 180.39323 
L 178.659059 179.95619 
L 178.43441 179.847902 
L 178.233241 179.705935 
L 177.833252 179.303447 
L 177.75482 179.172531 
L 177.675749 178.987013 
L 177.579515 178.831111 
L 177.186647 178.475364 
L 176.975367 178.12726 
L 176.660462 177.744342 
L 176.418984 177.553232 
L 176.067668 177.350896 
L 175.775537 177.138383 
L 175.679369 176.949413 
L 175.634561 176.909055 
L 175.260638 176.572261 
L 174.797467 176.229706 
L 174.337386 175.83792 
L 174.087175 175.5812 
L 173.583193 174.980569 
L 173.507414 174.8279 
L 173.509295 174.281086 
L 173.594849 173.895023 
L 173.640497 173.804383 
L 173.671467 173.68347 
L 173.645234 173.411199 
L 173.652355 172.976387 
L 173.680772 172.780778 
L 173.785035 172.532182 
L 173.790846 172.424331 
L 173.727932 172.194737 
L 173.576038 171.862796 
L 173.334796 171.493376 
L 173.239972 171.387971 
L 172.977904 171.201011 
L 172.572138 170.957745 
L 172.290991 170.724045 
L 172.012531 170.570633 
L 171.508481 170.229169 
L 171.394275 170.108912 
L 171.289072 169.892423 
L 170.941954 168.805436 
L 170.892947 168.475329 
L 170.923916 168.253293 
L 171.038424 167.792489 
L 171.527392 167.174561 
L 171.798731 166.862845 
L 171.832254 166.789983 
L 171.868296 166.545668 
L 171.84972 166.301441 
L 171.766686 166.071847 
L 171.634006 165.862522 
L 171.524067 165.732524 
L 171.308336 165.534342 
L 171.254172 165.484584 
L 171.104025 165.271328 
L 170.913369 164.913002 
L 170.827043 164.660694 
L 170.664435 164.397378 
L 170.523189 164.060632 
L 170.500315 164.022322 
L 170.360917 163.937011 
L 170.306098 163.843094 
L 170.260181 163.700778 
L 170.239624 163.553219 
L 170.174023 163.348088 
L 169.90359 162.751127 
L 169.676321 162.299497 
L 169.565911 162.13049 
L 169.313081 161.551614 
L 169.490166 160.635074 
L 169.296722 160.044665 
L 169.219533 159.725523 
L 169.113389 159.170803 
L 168.939292 158.42078 
L 168.830495 157.820149 
L 168.794319 157.552902 
L 168.746386 156.718703 
L 168.751727 156.623563 
L 168.861431 156.315298 
L 168.86479 156.256807 
L 168.739433 155.698724 
L 168.701711 155.345072 
L 168.705238 155.234775 
" clip-path="url(#pcc09515d00)" style="fill: #ffc733"/>
   </g>
   <g id="text_1">
    <!-- IL -->
    <g transform="translate(231.046875 35.472) scale(0.12 -0.12)">
     <defs>
      <path id="DejaVuSans-49" d="M 628 4666 
L 1259 4666 
L 1259 0 
L 628 0 
L 628 4666 
z
" transform="scale(0.015625)"/>
      <path id="DejaVuSans-4c" d="M 628 4666 
L 1259 4666 
L 1259 531 
L 3531 531 
L 3531 0 
L 628 0 
L 628 4666 
z
" transform="scale(0.015625)"/>
     </defs>
     <use xlink:href="#DejaVuSans-49"/>
     <use xlink:href="#DejaVuSans-4c" x="29.492188"/>
    </g>
   </g>
  </g>
 </g>
 <defs>
  <clipPath id="pcc09515d00">
   <rect x="161.955882" y="41.472" width="148.408235" height="266.112"/>
  </clipPath>
 </defs>
</svg>
