<?xml version="1.0" encoding="utf-8" standalone="no"?>
<!DOCTYPE svg PUBLIC "-//W3C//DTD SVG 1.1//EN"
  "http://www.w3.org/Graphics/SVG/1.1/DTD/svg11.dtd">
<svg xmlns:xlink="http://www.w3.org/1999/xlink" width="360pt" height="360pt" viewBox="0 0 360 360" xmlns="http://www.w3.org/2000/svg" version="1.1">
 <metadata>
  <rdf:RDF xmlns:dc="http://purl.org/dc/elements/1.1/" xmlns:cc="http://creativecommons.org/ns#" xmlns:rdf="http://www.w3.org/1999/02/22-rdf-syntax-ns#">
   <cc:Work>
    <dc:type rdf:resource="http://purl.org/dc/dcmitype/StillImage"/>
    <dc:date>2023-06-19T15:20:29.322283</dc:date>
    <dc:format>image/svg+xml</dc:format>
    <dc:creator>
     <cc:Agent>
      <dc:title>Matplotlib v3.7.1, https://matplotlib.org/</dc:title>
     </cc:Agent>
    </dc:creator>
   </cc:Work>
  </rdf:RDF>
 </metadata>
 <defs>
  <style type="text/css">*{stroke-linejoin: round; stroke-linecap: butt}</style>
 </defs>
 <g id="figure_1">
  <g id="patch_1">
   <path d="M 0 360 
L 360 360 
L 360 0 
L 0 0 
z
" style="fill: #ffffff"/>
  </g>
  <g id="axes_1">
   <g id="PatchCollection_1">
    <path d="M 93.122873 161.702891 
L 93.209373 161.351067 
L 93.278628 161.235309 
L 93.463185 161.041105 
L 93.509506 160.920251 
L 93.484029 160.844577 
L 93.409993 160.624668 
L 93.382464 160.416268 
L 93.397116 160.133608 
L 93.518379 159.735508 
L 93.518061 159.3982 
L 93.441662 159.280212 
L 93.41741 159.189253 
L 93.448033 159.073905 
L 93.566202 158.863002 
L 93.674315 158.760713 
L 93.799492 158.683359 
L 93.837745 158.622417 
L 94.1444 158.133873 
L 94.169653 158.004556 
L 94.144354 157.891983 
L 94.036696 157.659512 
L 94.02896 157.416575 
L 94.044158 157.282116 
L 94.174249 156.925787 
L 94.346703 156.590071 
L 94.995201 155.50193 
L 95.093941 155.271279 
L 95.23286 154.722885 
L 95.435937 154.361005 
L 95.886546 153.848832 
L 96.086847 153.600435 
L 96.156329 153.477851 
L 96.223445 153.41656 
L 96.473298 153.261898 
L 96.92377 153.088215 
L 97.051632 153.015321 
L 97.379703 152.729748 
L 97.54929 152.587918 
L 97.671418 152.547148 
L 98.400138 152.508471 
L 98.793095 152.426476 
L 99.084401 152.303483 
L 99.245297 152.210749 
L 99.367061 152.110235 
L 99.495605 151.781299 
L 99.512305 151.686108 
L 99.517037 151.218572 
L 99.459203 150.926629 
L 99.281562 150.542408 
L 99.129585 150.130157 
L 99.093001 149.804361 
L 99.106697 149.645785 
L 99.177726 149.369586 
L 99.257947 149.174654 
L 99.716155 148.344329 
L 99.859897 147.910874 
L 99.905626 147.639953 
L 99.915955 147.453894 
L 99.89193 147.188525 
L 99.725164 146.713663 
L 99.671335 146.620247 
L 99.088997 145.905179 
L 98.967324 145.782277 
L 98.806428 145.685767 
L 98.514849 145.618696 
L 98.23046 145.516498 
L 98.075752 145.410114 
L 97.981244 145.247625 
L 97.951713 145.026529 
L 97.973463 144.832053 
L 98.024971 144.704191 
L 98.196014 144.485007 
L 99.184779 143.802836 
L 99.435042 143.432448 
L 100.089319 142.558121 
L 100.357055 142.342076 
L 100.596215 142.199108 
L 101.006372 142.026518 
L 102.516821 141.446682 
L 103.89777 141.173259 
L 104.408396 141.098044 
L 104.713444 140.971593 
L 104.948918 140.912895 
L 105.186576 140.89342 
L 106.524981 140.891281 
L 107.459188 140.997302 
L 107.956346 140.943154 
L 108.026945 140.907951 
L 109.44368 140.201512 
L 110.182546 139.869482 
L 110.825357 139.493679 
L 110.893928 139.424379 
L 110.966778 139.328733 
L 111.020834 139.186993 
L 111.213082 138.462005 
L 111.348379 138.259352 
L 111.370838 138.225712 
L 111.416932 137.941596 
L 111.409287 137.713174 
L 111.282336 137.201273 
L 111.224412 137.093751 
L 111.198157 136.944822 
L 111.439819 136.018396 
L 111.541017 135.772365 
L 111.801017 135.492935 
L 112.000362 135.212778 
L 112.090093 135.035273 
L 112.291668 134.463128 
L 112.312462 134.143884 
L 112.266505 133.862452 
L 112.049232 133.427359 
L 112.021111 133.28612 
L 112.05765 133.011195 
L 112.23297 132.580652 
L 112.365882 132.41871 
L 112.936981 132.019791 
L 113.408476 131.628836 
L 113.79115 131.43263 
L 113.89667 131.338076 
L 114.178284 130.877274 
L 114.310104 130.59789 
L 114.43255 130.429441 
L 114.685361 130.192419 
L 114.79038 130.125394 
L 115.213552 129.937242 
L 115.483244 129.716647 
L 115.861914 129.143273 
L 115.927769 129.073168 
L 116.030454 128.963858 
L 116.303468 128.755412 
L 116.532618 128.620088 
L 117.125876 128.437123 
L 117.411267 128.28328 
L 117.875163 128.119244 
L 118.041291 128.005215 
L 118.151771 127.853966 
L 118.263434 127.335285 
L 118.637872 126.530304 
L 118.649976 126.339604 
L 118.61594 126.164466 
L 118.506916 125.810867 
L 118.371411 125.502134 
L 118.368999 125.359985 
L 118.502821 125.03974 
L 118.756132 124.655564 
L 118.923808 124.1438 
L 118.964533 123.897087 
L 118.952247 123.562099 
L 119.091985 122.860317 
L 119.088936 122.688773 
L 119.028327 122.226243 
L 118.986237 122.061615 
L 118.942009 121.630481 
L 118.785435 121.242821 
L 118.778793 121.226375 
L 118.767553 121.130821 
L 118.821064 120.598353 
L 118.909703 120.128724 
L 118.892958 120.04236 
L 118.409769 119.384716 
L 118.015765 118.999129 
L 117.79071 118.519171 
L 117.314756 117.948027 
L 116.934721 117.353903 
L 116.693696 117.130578 
L 116.559646 117.042303 
L 116.119184 116.877631 
L 115.892992 116.889507 
L 115.226065 117.005492 
L 115.097976 116.997893 
L 114.574381 116.879678 
L 113.958599 115.986559 
L 113.465809 115.360857 
L 113.143607 115.013493 
L 112.75843 114.682327 
L 112.231832 114.308936 
L 111.876414 113.949604 
L 111.479042 113.674998 
L 111.352956 113.564154 
L 111.29312 113.45504 
L 111.26864 113.062446 
L 111.44528 112.786747 
L 111.711104 112.513006 
L 111.862172 112.282537 
L 112.276607 111.38423 
L 112.511125 111.044783 
L 112.937709 110.705473 
L 113.058927 110.534839 
L 113.132095 110.1771 
L 113.190221 109.27077 
L 113.190904 109.260124 
L 113.208584 108.98444 
L 113.437552 107.819809 
L 113.504076 107.644397 
L 114.117356 106.908079 
L 114.143292 106.804653 
L 114.174325 106.236193 
L 114.28849 105.742447 
L 114.376264 105.597522 
L 114.462809 105.515072 
L 114.650097 105.395583 
L 114.774819 105.327603 
L 115.199992 105.164432 
L 115.919247 105.099773 
L 116.198358 105.04922 
L 117.15154 104.697305 
L 117.382828 104.676738 
L 117.594277 104.692027 
L 117.981319 104.871033 
L 118.593962 105.097452 
L 118.748989 105.13895 
L 119.648796 105.264491 
L 119.906931 105.19824 
L 120.134078 105.074064 
L 120.993161 104.820844 
L 121.433806 104.626185 
L 121.93474 104.369871 
L 122.503337 104.044529 
L 122.945983 103.838131 
L 123.125717 103.785439 
L 123.446326 103.72938 
L 123.862399 103.707448 
L 124.439277 103.760049 
L 125.233429 103.760094 
L 126.189022 103.831897 
L 126.584847 103.905929 
L 126.853811 103.92868 
L 127.833475 103.980053 
L 128.407031 103.957529 
L 129.043699 103.861019 
L 130.062313 103.74749 
L 130.526801 103.661036 
L 131.18713 103.470427 
L 131.651253 103.479527 
L 132.124477 103.411274 
L 132.379336 103.279317 
L 132.834358 102.901648 
L 133.184726 102.655936 
L 133.821804 102.369272 
L 134.395132 101.95065 
L 134.472486 101.823244 
L 134.568041 101.413723 
L 134.882007 101.186212 
L 135.073116 101.104308 
L 135.482683 100.999653 
L 135.978658 100.94505 
L 136.156116 100.890447 
L 136.656687 100.585582 
L 137.144511 100.524971 
L 137.352872 100.499082 
L 137.71234 100.553685 
L 138.617881 100.799397 
L 139.186705 100.867651 
L 139.222243 100.866986 
L 139.67358 100.85855 
L 140.383461 100.790297 
L 140.970441 100.617388 
L 141.707623 100.044059 
L 142.017039 99.680041 
L 142.276402 99.434328 
L 142.526664 99.343324 
L 142.620633 99.292591 
L 142.754221 99.220468 
L 143.045436 98.824598 
L 143.181943 98.715392 
L 143.505009 98.565784 
L 143.859927 98.401426 
L 144.61531 98.201216 
L 145.397995 98.06471 
L 146.348993 97.691591 
L 146.426347 97.564184 
L 146.517352 97.200166 
L 146.344352 95.278968 
L 146.338801 95.001222 
L 146.644712 94.201611 
L 146.744999 93.517848 
L 146.838006 93.400133 
L 146.940796 93.317865 
L 147.409378 93.055454 
L 147.528094 92.96677 
L 147.647674 92.822982 
L 147.704643 92.675009 
L 147.734902 92.477347 
L 147.729305 92.245194 
L 147.709876 92.155737 
L 147.523271 91.753542 
L 147.512032 91.555289 
L 147.571651 91.273411 
L 147.623421 91.028645 
L 147.828727 90.666902 
L 148.189379 90.311211 
L 149.288213 89.522792 
L 149.986537 89.306475 
L 150.19876 89.161641 
L 150.653373 88.956425 
L 150.937796 88.812661 
L 150.937819 88.812649 
L 151.853177 88.349971 
L 152.097707 88.249775 
L 153.413633 87.893583 
L 153.686465 87.715806 
L 153.732831 87.611878 
L 153.746983 87.492435 
L 153.697977 87.009201 
L 153.59546 86.532746 
L 153.604924 86.388504 
L 153.689741 86.07108 
L 153.712492 86.005966 
L 154.001431 85.597265 
L 154.094484 85.425584 
L 154.10545 85.027576 
L 154.229398 84.559357 
L 154.455817 84.225462 
L 154.821929 83.577418 
L 154.978229 83.186326 
L 154.988331 82.777761 
L 155.057659 82.171473 
L 155.068506 82.076616 
L 155.020319 81.983063 
L 154.827252 81.749955 
L 154.656801 81.628737 
L 154.511239 81.442678 
L 154.461551 81.263991 
L 154.498134 80.93105 
L 154.588866 80.698306 
L 154.966853 80.11483 
L 155.205058 79.925859 
L 155.31308 79.786622 
L 155.321817 79.476752 
L 155.568439 79.119104 
L 155.593556 78.789076 
L 155.543231 78.530668 
L 155.424515 78.25993 
L 155.227946 78.026366 
L 155.181715 77.905103 
L 155.153458 77.728326 
L 155.099629 77.597462 
L 155.069461 77.543178 
L 154.949244 77.432152 
L 154.73957 77.218473 
L 154.529485 77.098438 
L 154.482209 77.021175 
L 154.445397 76.617661 
L 154.433521 76.086877 
L 154.305978 75.488931 
L 154.531351 74.950457 
L 154.617851 74.436327 
L 154.633549 74.09688 
L 154.60056 73.759799 
L 154.554557 73.626113 
L 154.343518 73.364156 
L 154.187126 73.240254 
L 153.436156 73.230016 
L 153.300651 73.213817 
L 152.98714 73.105339 
L 152.80231 72.979116 
L 152.622303 72.608636 
L 152.576391 72.316466 
L 152.528522 72.152248 
L 152.434879 71.98976 
L 152.133289 71.805475 
L 151.763037 71.655409 
L 151.2773 71.40956 
L 150.585211 71.134817 
L 150.34282 71.1188 
L 149.722897 70.9969 
L 149.127135 70.799147 
L 148.386859 70.401912 
L 147.507208 70.119206 
L 147.499308 70.113745 
L 147.02948 69.788951 
L 146.579189 69.685478 
L 145.723974 69.588831 
L 145.352038 69.357634 
L 144.897425 69.162657 
L 144.170344 68.677512 
L 144.00467 68.51434 
L 143.95307 68.328964 
L 143.736024 68.04867 
L 143.289283 67.663903 
L 143.023367 67.485079 
L 142.88636 67.358218 
L 142.756451 67.11105 
L 142.669223 66.816878 
L 142.360444 66.276947 
L 142.367224 66.004798 
L 142.541316 65.708669 
L 142.658848 65.590045 
L 142.835033 65.041833 
L 142.842041 64.754441 
L 142.80805 64.553366 
L 142.852279 64.481837 
L 142.98651 64.37891 
L 143.0286 64.316527 
L 143.040567 64.253506 
L 143.013357 64.143846 
L 142.899965 63.98932 
L 142.794263 63.899817 
L 142.611663 63.802305 
L 142.375824 63.609148 
L 141.76937 62.773817 
L 141.658071 62.690867 
L 141.366675 62.58794 
L 140.916429 62.226197 
L 140.817735 62.126138 
L 140.568155 61.721031 
L 140.407115 61.579828 
L 140.393062 61.567506 
L 140.249366 61.473544 
L 140.11882 61.436141 
L 139.915288 61.440054 
L 139.800031 61.412252 
L 139.655333 61.323432 
L 139.408165 61.081678 
L 139.209684 60.939119 
L 138.904773 60.791101 
L 138.41849 60.598762 
L 137.028304 60.139371 
L 136.712063 60.001818 
L 136.596852 59.859851 
L 136.568731 59.781314 
L 136.539928 59.438545 
L 136.465396 59.239245 
L 136.246575 58.973284 
L 136.122809 58.898342 
L 135.996858 58.838643 
L 135.478496 58.714149 
L 135.101373 58.575094 
L 134.377341 58.392538 
L 133.5583 58.055867 
L 132.804222 57.618213 
L 132.539094 57.464337 
L 132.206927 57.164068 
L 132.102272 56.932006 
L 132.093172 56.677193 
L 132.120209 56.564537 
L 132.120473 56.563437 
L 132.45264 56.272268 
L 132.715825 55.8 
L 133.858478 55.818383 
L 134.001447 55.819475 
L 136.237793 55.840088 
L 136.673659 55.844228 
L 136.887384 55.835947 
L 137.177051 55.834946 
L 137.197618 55.835219 
L 137.747878 55.841316 
L 139.592449 55.838995 
L 140.150762 55.84846 
L 140.355113 55.845366 
L 142.081652 55.8607 
L 142.565481 55.864685 
L 143.496045 55.872349 
L 145.100183 55.862338 
L 145.223505 55.862206 
L 145.227544 55.862202 
L 145.465157 55.865205 
L 148.142011 55.846048 
L 149.550716 55.843227 
L 149.711294 55.834354 
L 149.811035 55.838176 
L 150.449068 55.851918 
L 150.562778 55.843682 
L 151.810997 55.83258 
L 152.589859 55.833399 
L 153.704711 55.818792 
L 154.48776 55.80951 
L 155.463374 55.815016 
L 157.643753 55.827119 
L 157.733757 55.814606 
L 158.614499 55.809373 
L 161.117352 55.854284 
L 161.19184 55.86161 
L 161.997867 55.871302 
L 162.093467 55.878537 
L 162.619838 55.89328 
L 162.645911 55.891778 
L 164.001014 55.929909 
L 165.287998 55.922716 
L 165.311799 55.922583 
L 165.316804 55.922538 
L 169.356795 55.933702 
L 170.980792 55.93819 
L 171.080579 55.939237 
L 171.342081 55.937189 
L 171.963414 55.942513 
L 172.448423 55.943742 
L 173.68827 55.941012 
L 175.913695 55.953889 
L 176.068358 55.949703 
L 177.091795 55.960214 
L 177.877711 55.976003 
L 178.157459 55.980235 
L 179.557382 56.006535 
L 180.007263 56.024053 
L 180.102189 56.020954 
L 180.167522 56.018821 
L 180.405135 56.028103 
L 181.787131 56.066325 
L 183.692084 56.099951 
L 185.026484 56.117014 
L 185.053968 56.117014 
L 185.432183 56.121019 
L 188.123097 56.15287 
L 188.179338 56.148684 
L 188.241175 56.154963 
L 188.312887 56.159104 
L 189.202866 56.166202 
L 189.203576 56.166206 
L 190.813693 56.173437 
L 190.82426 56.174057 
L 191.017088 56.185359 
L 194.232507 56.238096 
L 195.516958 56.265585 
L 196.058833 56.277182 
L 196.23115 56.270994 
L 197.081724 56.274771 
L 197.173138 56.278866 
L 199.882435 56.310763 
L 199.965386 56.306622 
L 201.776104 56.324368 
L 201.992058 56.322776 
L 202.147494 56.326507 
L 202.963668 56.345208 
L 204.231863 56.35845 
L 205.516984 56.356311 
L 206.840827 56.3635 
L 206.847061 56.363955 
L 206.93811 56.364224 
L 207.802973 56.366777 
L 207.807517 56.36686 
L 210.050559 56.408229 
L 210.181287 56.411323 
L 217.175444 56.550697 
L 217.639015 56.548849 
L 218.145598 56.546829 
L 220.783821 56.477711 
L 223.911056 56.41146 
L 228.37815 56.416885 
L 229.905573 56.41874 
L 231.97661 56.430798 
L 233.978756 56.430798 
L 239.107046 56.423759 
L 240.608667 56.421698 
L 240.638067 56.42033 
L 241.591562 56.375968 
L 243.101783 56.371418 
L 243.862945 56.367186 
L 243.898477 56.367101 
L 247.725498 56.357949 
L 248.684557 56.371126 
L 250.706034 56.398901 
L 253.418062 56.435303 
L 254.278101 56.458054 
L 257.510447 56.503511 
L 257.612564 56.504796 
L 260.08806 56.535954 
L 261.349475 56.553563 
L 262.049982 56.553563 
L 262.159461 57.472664 
L 262.026323 58.756553 
L 261.918344 59.797831 
L 261.911089 59.92807 
L 261.901036 60.108517 
L 261.82734 61.431363 
L 261.31958 62.382589 
L 260.99078 62.471091 
L 260.661753 63.90687 
L 260.629436 64.152854 
L 260.489618 65.217108 
L 260.771732 66.65498 
L 261.51351 68.388572 
L 262.068684 69.471481 
L 263.922421 72.00423 
L 264.365116 72.609081 
L 264.724929 73.100691 
L 264.726199 73.102427 
L 265.499784 74.035224 
L 266.123211 74.599407 
L 267.424622 75.491206 
L 267.92046 76.282719 
L 267.963687 76.526338 
L 267.900803 76.754213 
L 268.033306 77.611021 
L 268.14181 77.884957 
L 268.968031 79.970879 
L 269.280444 80.759611 
L 269.35345 80.943926 
L 269.553057 81.447865 
L 269.763712 81.979696 
L 269.764998 81.985082 
L 270.045382 83.159271 
L 270.077724 83.294712 
L 270.12814 83.395363 
L 270.268833 83.423939 
L 270.378903 83.576826 
L 270.527696 83.786774 
L 270.538749 83.787264 
L 270.612876 83.790551 
L 270.614027 83.792589 
L 270.641633 83.841468 
L 270.641633 83.910085 
L 270.595176 83.976519 
L 270.526558 84.014149 
L 270.555316 84.193473 
L 270.419673 84.2883 
L 270.432687 84.900898 
L 270.742148 85.979302 
L 271.147164 86.816544 
L 271.539156 87.266492 
L 271.607568 87.345019 
L 271.758095 87.517801 
L 271.761205 87.521371 
L 272.039054 87.8403 
L 272.040306 87.84528 
L 272.057173 87.912366 
L 272.24841 88.672992 
L 272.962842 89.583038 
L 273.772828 90.215474 
L 274.323406 90.392933 
L 274.623903 91.496136 
L 274.628316 92.208474 
L 274.587364 92.467837 
L 274.591915 92.968362 
L 274.594541 93.705445 
L 274.601106 95.548342 
L 274.596556 95.662098 
L 274.601106 96.11257 
L 274.601127 97.338354 
L 274.601136 97.908632 
L 274.601152 98.806306 
L 274.582951 98.992865 
L 274.587546 100.335183 
L 274.583638 100.653957 
L 274.565389 102.142307 
L 274.554378 103.040405 
L 274.554284 103.048029 
L 274.556468 103.798635 
L 274.559547 104.619274 
L 274.56889 107.109745 
L 274.520931 108.249077 
L 274.504368 110.871602 
L 274.504377 110.877307 
L 274.513362 116.881559 
L 274.513514 116.983105 
L 274.510075 117.122707 
L 274.509282 117.154876 
L 274.506598 117.184089 
L 274.507781 117.433896 
L 274.507644 117.649395 
L 274.507462 118.084579 
L 274.506962 118.911492 
L 274.515653 123.309197 
L 274.52357 123.957787 
L 274.525436 123.968571 
L 274.535492 128.447452 
L 274.535507 128.450927 
L 274.538677 129.190595 
L 274.519429 129.25307 
L 274.541043 129.871492 
L 274.534172 129.913126 
L 274.549188 131.066427 
L 274.533444 136.408714 
L 274.533442 136.411668 
L 274.526027 145.579291 
L 274.523297 145.592851 
L 274.522205 147.573884 
L 274.522071 147.589231 
L 274.516472 148.229845 
L 274.516074 148.242539 
L 274.514333 148.298053 
L 274.502503 148.911833 
L 274.354848 158.535522 
L 274.357669 158.564416 
L 274.319641 161.212935 
L 274.319629 161.213741 
L 274.310315 161.87893 
L 274.305751 162.204872 
L 274.291888 163.201676 
L 274.291827 163.206059 
L 274.277266 163.376874 
L 274.286276 163.889594 
L 274.252286 169.414391 
L 274.252286 169.418714 
L 274.253241 169.939942 
L 274.251239 170.042823 
L 274.241638 170.512134 
L 274.235222 170.956736 
L 274.230353 171.078728 
L 274.23099 171.257689 
L 274.210469 175.259615 
L 274.210476 175.265394 
L 274.214337 178.54397 
L 274.21825 178.863624 
L 274.218159 179.213036 
L 274.217795 179.872819 
L 274.234312 185.190899 
L 274.246097 186.044795 
L 274.249692 186.043703 
L 274.257372 187.810102 
L 274.265936 189.780032 
L 274.269076 190.606354 
L 274.267893 191.467075 
L 274.270493 191.766328 
L 274.280315 192.896802 
L 274.283273 193.07053 
L 274.281635 193.733862 
L 274.281637 193.73431 
L 274.283409 194.086141 
L 274.284137 194.22961 
L 274.289552 194.991819 
L 274.295649 195.526107 
L 274.295649 195.575067 
L 274.286837 198.263065 
L 274.282408 199.614214 
L 273.719681 199.385838 
L 273.247049 199.950931 
L 272.158134 199.957529 
L 271.668848 200.25384 
L 271.15408 201.206066 
L 271.265606 201.816934 
L 271.283853 201.957582 
L 270.714847 202.601712 
L 270.919925 203.562266 
L 270.986686 203.637958 
L 271.468547 204.184282 
L 271.92134 204.360512 
L 272.120276 204.84361 
L 272.329814 205.506032 
L 272.217378 205.837335 
L 271.690234 206.44247 
L 270.225879 207.490569 
L 269.33226 207.857454 
L 269.225694 208.276176 
L 269.079494 208.850633 
L 269.208948 209.594049 
L 269.704923 210.042702 
L 269.676302 210.243139 
L 269.676302 210.413636 
L 269.704741 210.584133 
L 269.789967 210.697798 
L 270.017342 210.811508 
L 270.301504 210.868341 
L 270.386775 211.067231 
L 270.415169 211.351438 
L 270.557272 211.550374 
L 270.784602 211.692478 
L 271.337181 211.820158 
L 272.419453 212.83727 
L 272.308473 213.894015 
L 272.551046 214.560578 
L 272.122369 215.370792 
L 272.15868 215.954177 
L 274.380238 216.721391 
L 275.167837 217.518045 
L 274.865747 218.938262 
L 274.464463 219.644322 
L 273.716223 220.217423 
L 273.56693 221.103762 
L 273.293279 221.662075 
L 273.423825 221.834256 
L 274.159145 222.155745 
L 274.544183 222.324088 
L 274.735838 223.335103 
L 274.47825 223.719825 
L 275.879948 225.51944 
L 275.795444 226.248359 
L 275.770242 226.465752 
L 275.881904 227.150379 
L 275.562063 227.568041 
L 274.962167 228.351412 
L 274.830119 229.222098 
L 274.301292 229.820999 
L 274.108164 229.907702 
L 273.65029 230.113261 
L 271.45981 230.577884 
L 270.256639 231.84799 
L 270.154031 232.786065 
L 269.927748 233.397297 
L 270.073583 233.783384 
L 270.085095 233.918571 
L 269.968882 234.051347 
L 269.836106 234.101172 
L 269.454342 234.16756 
L 268.827457 235.093349 
L 268.864997 235.63601 
L 268.4087 236.325278 
L 268.634027 237.230137 
L 268.724031 237.404138 
L 268.707468 237.653081 
L 268.574692 237.868853 
L 268.273603 238.061691 
L 267.605948 238.266133 
L 266.931877 238.739357 
L 265.982745 239.110564 
L 265.221901 239.163484 
L 264.823574 239.329476 
L 264.640974 239.661415 
L 264.657582 240.059788 
L 264.996165 240.334303 
L 265.25075 240.628612 
L 265.225041 240.792875 
L 264.754502 241.126498 
L 264.602436 242.085661 
L 264.562755 242.335949 
L 263.900946 243.062754 
L 262.981915 244.072043 
L 261.795261 244.422365 
L 261.037829 245.160913 
L 260.582716 246.164648 
L 260.616888 246.966034 
L 260.663255 247.32441 
L 260.579121 247.598561 
L 260.206821 248.200784 
L 259.981448 248.357221 
L 259.585305 248.415964 
L 259.201949 248.193413 
L 259.057251 247.751449 
L 259.320937 247.051078 
L 259.200038 246.848547 
L 258.937216 246.736885 
L 258.65765 246.830437 
L 258.392918 247.12602 
L 258.210454 247.611166 
L 258.074356 247.964445 
L 257.621427 248.229132 
L 257.132778 248.725153 
L 256.936754 248.745538 
L 256.719935 248.657036 
L 256.643628 248.391757 
L 256.818721 248.098632 
L 257.073124 247.780798 
L 257.096558 247.490266 
L 256.771171 247.324092 
L 256.385129 247.356535 
L 255.822903 247.639923 
L 255.598076 248.252156 
L 255.158843 248.467064 
L 255.29626 248.92832 
L 255.607313 249.101911 
L 255.425395 249.328604 
L 254.966732 249.495461 
L 254.844149 249.79978 
L 254.882689 250.021285 
L 254.781083 250.156791 
L 254.546473 250.188961 
L 254.383256 250.14446 
L 254.309315 249.986476 
L 254.33871 249.873039 
L 253.796277 249.277414 
L 253.558072 249.218852 
L 253.540157 249.261914 
L 253.515573 249.321005 
L 253.481128 249.628009 
L 253.550155 249.991891 
L 253.641545 250.47772 
L 253.656994 250.55985 
L 253.688618 251.392542 
L 254.07152 251.944303 
L 254.814072 252.556673 
L 255.830502 253.111209 
L 255.985346 253.467856 
L 255.984937 253.833421 
L 256.271601 254.032312 
L 256.36115 254.291447 
L 256.255129 254.505581 
L 255.922735 254.60191 
L 255.452378 255.184885 
L 254.979154 254.899085 
L 254.769389 254.935578 
L 254.456925 254.933576 
L 254.300215 255.080093 
L 254.13404 255.447888 
L 254.144324 255.878158 
L 253.884642 256.031045 
L 253.56467 256.070632 
L 253.048128 256.00975 
L 252.37433 256.235487 
L 252.210021 256.520787 
L 252.419241 257.065995 
L 252.757505 257.125603 
L 254.690761 256.393517 
L 254.933379 256.929079 
L 254.733988 257.383601 
L 254.462521 257.892772 
L 253.48222 258.416685 
L 252.910711 258.600787 
L 251.363542 258.618988 
L 251.067186 259.20888 
L 251.565937 259.548691 
L 252.168978 259.365226 
L 252.624001 259.620038 
L 251.909615 260.24342 
L 251.975685 261.130077 
L 252.399084 261.989934 
L 252.38293 262.468527 
L 252.229041 262.694674 
L 252.021688 262.795825 
L 251.687246 262.838688 
L 251.515657 262.830452 
L 251.301841 262.908625 
L 251.327505 263.551391 
L 250.508554 263.993536 
L 250.245551 263.957044 
L 249.833938 264.196659 
L 250.004935 264.600764 
L 251.597106 264.843656 
L 252.058453 264.909452 
L 252.363546 265.730586 
L 252.120655 266.024122 
L 251.762279 265.90486 
L 251.11196 265.871052 
L 250.451631 265.895123 
L 249.720136 265.68695 
L 249.047248 265.236477 
L 248.618389 265.232154 
L 248.516919 265.427405 
L 248.650514 265.783596 
L 248.746175 265.868449 
L 249.39798 266.44661 
L 249.906013 267.496212 
L 250.35139 267.867556 
L 251.455594 268.139341 
L 251.770788 268.631221 
L 251.138807 269.030094 
L 250.789531 269.058032 
L 250.231445 269.006979 
L 249.602149 268.719814 
L 249.164007 268.673629 
L 248.835799 268.93331 
L 249.185257 269.550822 
L 249.835121 270.001932 
L 250.352345 269.954245 
L 250.957799 269.656478 
L 251.3579 269.613479 
L 251.634281 269.882807 
L 251.6958 270.08197 
L 251.495226 270.212243 
L 251.341019 270.414455 
L 251.207151 270.760728 
L 251.111414 271.316993 
L 251.032741 271.542776 
L 250.698754 272.136216 
L 250.259839 272.658128 
L 250.068092 272.838453 
L 249.670584 273.0823 
L 249.243454 273.21412 
L 249.062537 273.296115 
L 248.613976 273.541009 
L 248.337094 273.77621 
L 248.09848 273.87272 
L 247.610923 274.024334 
L 247.401203 274.156199 
L 247.281942 274.274096 
L 246.949411 274.726935 
L 246.861091 274.98375 
L 246.353649 275.389084 
L 246.070989 275.729987 
L 245.772449 276.210309 
L 245.719439 276.332938 
L 245.682354 276.52655 
L 245.688042 276.674888 
L 245.752746 276.913092 
L 245.76485 277.329393 
L 245.835242 277.654597 
L 246.023439 278.108437 
L 246.499666 278.977076 
L 246.566691 279.185431 
L 246.590625 279.362662 
L 246.558137 279.562781 
L 246.602137 279.763629 
L 246.775456 280.044196 
L 246.901543 280.319484 
L 246.982127 280.377136 
L 247.441928 280.595638 
L 247.768953 280.867605 
L 248.16687 281.141028 
L 248.367581 281.361714 
L 248.74798 281.893773 
L 248.964798 282.099124 
L 249.049205 282.141806 
L 249.419958 282.239954 
L 249.684053 282.385698 
L 249.830752 282.546275 
L 250.090434 282.980458 
L 250.124242 283.080199 
L 250.112412 283.327732 
L 250.180017 283.454976 
L 250.182303 283.459279 
L 250.12447 283.881586 
L 250.05385 284.060774 
L 250.10686 284.180354 
L 250.14217 284.195278 
L 250.13671 284.250791 
L 250.048435 284.400448 
L 249.88945 284.534907 
L 249.854141 284.519983 
L 249.677501 284.445268 
L 249.422642 284.600749 
L 249.141256 284.939605 
L 248.982317 285.014229 
L 248.858732 285.014229 
L 248.823423 284.984379 
L 248.823423 284.939605 
L 248.611291 284.924771 
L 247.992505 284.954621 
L 247.146481 285.039346 
L 246.936352 284.991659 
L 246.821959 284.988429 
L 245.824594 285.201789 
L 245.155574 285.26208 
L 244.995452 285.344985 
L 244.388815 285.431166 
L 243.555759 285.508884 
L 242.732668 285.636199 
L 242.151513 285.662545 
L 241.359364 285.665412 
L 240.154736 285.854337 
L 239.419692 286.117341 
L 238.747896 286.400592 
L 238.523115 286.601394 
L 238.35594 286.668419 
L 237.927172 286.913631 
L 237.81064 287.009458 
L 237.118004 287.759518 
L 236.661571 288.026435 
L 236.658386 288.028403 
L 236.519558 288.114208 
L 236.341462 288.171905 
L 236.080143 288.123354 
L 235.978627 288.050005 
L 235.793797 287.800516 
L 235.331403 287.497607 
L 234.89135 287.262724 
L 234.582526 287.148877 
L 234.36953 287.10019 
L 234.17387 287.134226 
L 234.093136 287.170737 
L 233.924244 287.247117 
L 233.588119 287.362966 
L 233.260457 287.420845 
L 232.980572 287.50061 
L 232.489421 287.714425 
L 232.222186 287.861625 
L 231.773488 288.222686 
L 231.574961 288.417982 
L 231.285203 288.844793 
L 231.197338 289.382767 
L 231.033985 289.857674 
L 231.011279 290.299046 
L 230.9271 290.722491 
L 230.814026 290.996096 
L 230.661002 291.203313 
L 230.486865 291.537892 
L 230.194331 291.986863 
L 229.988615 292.440248 
L 229.826172 292.645235 
L 229.696945 292.864829 
L 229.552976 293.209691 
L 229.494824 293.523885 
L 229.783855 294.008256 
L 229.904208 294.315033 
L 229.79564 294.520976 
L 229.854656 294.60602 
L 230.18473 294.910066 
L 230.566676 295.143675 
L 230.799011 295.342429 
L 230.903438 295.492723 
L 231.142416 296.000893 
L 231.212991 296.10805 
L 231.505388 296.430935 
L 231.722525 296.573311 
L 232.096463 296.732114 
L 232.465487 297.027424 
L 232.596943 297.187547 
L 232.86122 297.84692 
L 232.971745 298.178905 
L 233.051192 298.257761 
L 233.24808 298.900981 
L 233.233156 298.982931 
L 233.337538 299.154565 
L 233.409522 299.228734 
L 233.491836 299.270141 
L 233.659922 299.512668 
L 233.642949 299.627652 
L 233.191339 300.69591 
L 233.140012 300.758202 
L 232.789235 301.480005 
L 232.789235 301.510719 
L 232.82541 301.541433 
L 232.740684 301.96192 
L 232.088045 303.090604 
L 231.306361 303.344188 
L 231.000176 303.39465 
L 230.672014 303.360069 
L 230.662543 303.361788 
L 230.018191 303.478784 
L 229.566854 303.480331 
L 229.244698 303.464269 
L 228.783305 303.391101 
L 228.154145 303.263194 
L 227.488492 302.989862 
L 227.314987 302.874669 
L 227.063364 302.707611 
L 226.729241 302.542029 
L 226.505506 302.327485 
L 226.160962 301.91396 
L 225.946419 301.818133 
L 225.617802 301.57606 
L 225.14931 301.318336 
L 224.491848 301.012879 
L 224.277259 300.942578 
L 223.941816 300.928654 
L 223.628078 300.858808 
L 221.676257 300.106473 
L 221.393415 300.025616 
L 221.00346 299.957772 
L 220.199389 300.049004 
L 220.053054 300.023841 
L 219.658776 299.898164 
L 219.393407 299.781814 
L 219.023564 299.551982 
L 218.704912 299.409242 
L 218.145734 299.046998 
L 217.663729 298.768615 
L 217.503743 298.599574 
L 217.16334 298.32251 
L 216.688933 298.037211 
L 216.309125 297.866987 
L 215.616808 297.702815 
L 214.974498 297.507928 
L 213.405624 296.906161 
L 211.889898 296.469885 
L 211.248634 296.242737 
L 211.069173 296.220987 
L 210.744242 296.136548 
L 210.5747 296.092489 
L 210.514096 296.085368 
L 210.103023 296.037067 
L 208.978206 295.987924 
L 208.230649 296.0428 
L 207.424895 296.237732 
L 207.080715 296.41146 
L 207.199567 296.383476 
L 206.831772 296.615902 
L 206.104737 296.840956 
L 205.759511 297.169118 
L 205.59138 297.216941 
L 204.82817 297.859161 
L 204.000711 298.479903 
L 203.53181 298.913221 
L 203.240231 299.330159 
L 203.11196 299.605356 
L 203.07028 299.796056 
L 202.962076 300.03417 
L 202.409587 301.031353 
L 202.209832 301.180191 
L 201.987508 301.284573 
L 201.916752 301.382175 
L 201.777879 301.497251 
L 201.329272 301.749106 
L 201.287592 301.798294 
L 201.179114 302.039046 
L 201.038558 302.177419 
L 200.798487 302.320796 
L 200.652835 302.361111 
L 200.584718 302.331125 
L 200.438655 302.403019 
L 199.820598 303.071402 
L 199.647982 303.345964 
L 199.473051 303.624209 
L 199.306558 304.036324 
L 199.216236 304.341508 
L 199.164364 304.752393 
L 199.239898 305.227073 
L 199.325169 305.496219 
L 199.569971 305.929355 
L 199.682589 306.081197 
L 199.895222 306.29665 
L 200.158225 306.44617 
L 201.169741 307.126976 
L 201.421004 307.264939 
L 201.061582 307.38511 
L 200.911606 307.397987 
L 200.648967 307.466104 
L 200.108172 307.687609 
L 199.733188 307.8 
L 199.404343 307.77329 
L 199.028676 307.653483 
L 198.728088 307.358764 
L 198.59422 306.91407 
L 198.594675 306.44617 
L 198.437283 305.915068 
L 198.3324 305.712992 
L 198.139243 305.536307 
L 197.208994 305.034416 
L 196.818994 304.752302 
L 196.627884 304.498581 
L 196.291395 303.819232 
L 195.869043 303.171689 
L 195.641258 303.533114 
L 195.434314 303.499306 
L 194.711237 303.48065 
L 194.569588 303.45394 
L 194.560624 303.41185 
L 194.08963 303.384139 
L 193.466704 303.279075 
L 193.44104 303.337454 
L 193.325965 303.814045 
L 193.390487 304.001878 
L 193.481674 304.15372 
L 193.602028 304.284175 
L 193.756007 304.401707 
L 194.219357 304.609835 
L 194.832273 304.804038 
L 195.352319 305.143349 
L 195.638209 305.388834 
L 195.747187 305.743388 
L 195.477859 306.446216 
L 195.354321 306.616758 
L 195.203162 306.748761 
L 194.992304 306.88099 
L 194.790729 306.964032 
L 194.176357 306.803909 
L 193.243032 306.036836 
L 193.037071 305.867563 
L 192.772521 305.716359 
L 192.400221 305.541357 
L 191.725331 305.287227 
L 190.979048 305.076324 
L 190.256472 304.646373 
L 190.103266 304.491438 
L 189.998929 304.335319 
L 189.965075 304.25296 
L 189.930812 303.93995 
L 189.942096 303.820825 
L 190.228624 303.240625 
L 190.373185 302.785329 
L 190.377599 302.538206 
L 190.236769 302.144612 
L 189.988099 301.749606 
L 189.811778 301.55786 
L 189.567112 301.388773 
L 188.928988 301.01975 
L 188.734284 300.874142 
L 188.609562 300.75843 
L 188.104077 300.158482 
L 187.666254 299.528048 
L 187.526425 299.109563 
L 186.71512 297.888601 
L 186.453163 297.370011 
L 186.416124 297.195555 
L 186.19066 296.519892 
L 186.196621 296.354081 
L 186.615151 295.511197 
L 186.636537 295.409909 
L 186.617699 295.206423 
L 186.591262 295.133846 
L 186.506401 295.046664 
L 186.416852 295.003755 
L 186.058977 294.920168 
L 185.664017 294.934046 
L 185.23069 295.004325 
L 185.176687 295.013083 
L 184.882242 294.687333 
L 184.613005 294.447808 
L 184.40961 294.229443 
L 184.085087 293.836895 
L 183.942802 293.620486 
L 183.883285 293.457724 
L 183.880873 293.282222 
L 183.91277 293.160003 
L 184.001545 293.008844 
L 184.053236 292.82861 
L 184.078854 292.625988 
L 184.178959 292.305242 
L 184.27647 292.148942 
L 184.345861 292.085148 
L 184.759204 291.81996 
L 184.938028 291.669575 
L 185.11849 291.370807 
L 185.203766 291.292621 
L 185.218094 291.279484 
L 185.358026 291.212992 
L 185.436232 291.17583 
L 185.874965 291.06121 
L 186.778004 291.010338 
L 187.104119 290.956099 
L 187.628123 290.775637 
L 187.773912 290.656649 
L 187.914878 290.433688 
L 187.985544 290.242487 
L 188.265292 289.133505 
L 188.31002 288.80871 
L 188.297917 288.60809 
L 188.245817 288.378076 
L 188.087696 287.907628 
L 187.715032 287.025976 
L 187.458445 286.554891 
L 187.288995 286.33061 
L 186.948819 285.969322 
L 186.028217 285.222902 
L 185.831465 284.999258 
L 185.079494 283.969997 
L 184.822952 283.472202 
L 184.707286 283.10791 
L 184.585067 282.884221 
L 184.378395 282.59064 
L 184.153568 282.340924 
L 183.969421 282.079376 
L 183.941937 282.001113 
L 183.758017 281.249096 
L 183.720159 280.933765 
L 183.729052 280.684662 
L 183.736473 280.476766 
L 183.738705 280.414262 
L 183.749781 280.103986 
L 183.771167 280.004609 
L 183.816487 279.932123 
L 183.96528 279.852221 
L 184.083358 279.83807 
L 184.283614 279.868466 
L 184.98849 280.051886 
L 185.352008 280.01835 
L 185.576971 279.921885 
L 185.739414 279.789383 
L 185.808487 279.591857 
L 185.812946 279.465725 
L 185.786463 279.349421 
L 185.700692 279.198581 
L 185.364293 278.821458 
L 184.419165 278.007286 
L 184.23884 277.702193 
L 184.005731 277.488742 
L 183.911587 277.27165 
L 183.938069 277.154618 
L 183.99613 277.074261 
L 183.994174 276.835465 
L 183.95213 276.59494 
L 183.983117 276.0541 
L 184.084086 275.66278 
L 184.169949 275.462115 
L 184.17136 275.255535 
L 184.069162 275.055416 
L 183.958591 274.926235 
L 183.719112 274.757285 
L 183.547023 274.667827 
L 183.287796 274.581691 
L 182.959042 274.54893 
L 181.682612 274.269773 
L 181.37265 274.184411 
L 180.926728 273.993483 
L 180.749406 273.800144 
L 180.563938 273.523081 
L 180.323823 273.100501 
L 180.058089 272.93642 
L 179.769104 272.791176 
L 179.59979 272.77516 
L 179.458369 272.669867 
L 179.430704 272.581911 
L 179.44258 272.404407 
L 179.421831 272.359678 
L 179.381379 272.334515 
L 179.074466 272.361817 
L 178.893049 272.406637 
L 178.649157 272.513703 
L 178.100444 272.49887 
L 177.91384 272.526626 
L 177.507732 272.425975 
L 177.284907 272.319409 
L 177.185075 272.226447 
L 177.162814 272.159228 
L 177.073731 271.890231 
L 177.142849 271.67587 
L 177.249506 271.479527 
L 177.383283 271.15091 
L 177.427102 270.909748 
L 177.42014 270.670224 
L 177.377368 270.583405 
L 177.25624 270.465236 
L 176.998606 270.05021 
L 176.782659 269.910675 
L 176.636363 269.816146 
L 176.397703 269.692243 
L 175.773912 269.394294 
L 175.487931 269.281676 
L 174.821959 268.876159 
L 174.278389 268.450395 
L 174.127731 268.294504 
L 173.959281 268.067584 
L 173.803026 267.911238 
L 173.343999 267.908781 
L 173.155483 267.937265 
L 173.007191 267.88016 
L 172.796561 267.741651 
L 172.649589 267.690461 
L 172.236246 267.674945 
L 171.984982 267.594269 
L 171.884559 267.539848 
L 171.687352 267.692645 
L 171.352956 267.450573 
L 171.245161 267.339047 
L 171.050729 266.924066 
L 171.074618 266.799299 
L 171.172767 266.6703 
L 171.156249 266.422176 
L 171.09746 266.33745 
L 170.88906 266.270653 
L 170.44614 266.055655 
L 169.41747 265.414436 
L 169.126483 265.260002 
L 169.029245 265.242893 
L 168.744309 265.315332 
L 168.202787 265.637216 
L 168.019003 265.791332 
L 167.581908 266.256593 
L 167.359811 266.425088 
L 166.639692 266.788469 
L 166.433521 266.8696 
L 165.910927 266.877835 
L 165.461911 266.830923 
L 164.815869 266.647958 
L 164.779116 266.628948 
L 164.214739 266.337041 
L 164.128057 266.260051 
L 163.256688 264.802067 
L 163.166002 264.692816 
L 163.139656 264.622014 
L 163.107941 264.280656 
L 163.406117 264.065111 
L 163.683317 263.932836 
L 163.802852 263.667421 
L 164.358753 263.661051 
L 164.791116 263.394544 
L 165.039559 263.335209 
L 165.361624 263.033393 
L 165.387924 262.956357 
L 165.375456 262.765339 
L 164.979041 262.80529 
L 164.883986 262.78536 
L 164.836482 262.718881 
L 164.799625 262.539056 
L 164.601281 262.305766 
L 164.018351 262.46384 
L 162.925886 262.639297 
L 162.590216 262.66628 
L 162.098473 262.619549 
L 161.961647 262.558667 
L 161.586572 262.303126 
L 160.491923 261.161974 
L 159.877733 260.943837 
L 159.732217 260.868166 
L 159.629791 260.783122 
L 159.560355 260.677421 
L 159.530414 260.562163 
L 159.445871 260.402314 
L 159.360782 260.292699 
L 159.265318 260.238961 
L 159.006956 260.178352 
L 158.677611 260.172618 
L 158.282833 260.244193 
L 157.950621 260.228541 
L 157.699721 260.13476 
L 156.93774 259.738253 
L 156.623637 259.503416 
L 156.224537 259.094169 
L 156.205517 258.944966 
L 156.233091 258.645152 
L 156.215345 258.448264 
L 156.135125 258.232264 
L 156.015499 258.109544 
L 155.38916 257.805498 
L 154.753038 257.545589 
L 154.615212 257.538536 
L 154.531078 257.563244 
L 154.130248 257.777605 
L 152.643573 256.986778 
L 152.541856 256.93267 
L 152.014938 256.652379 
L 150.904318 255.819505 
L 150.585711 255.255959 
L 150.478053 255.14143 
L 150.469829 255.130421 
L 149.456799 253.774359 
L 149.085364 253.463488 
L 148.73618 253.190201 
L 148.29367 252.972109 
L 147.832277 252.820768 
L 147.549753 252.780544 
L 147.298853 252.683306 
L 146.880187 252.410883 
L 146.757149 252.303862 
L 145.863302 251.215311 
L 145.793748 251.103792 
L 145.759829 251.049409 
L 145.605895 250.729801 
L 145.407187 250.191509 
L 145.266721 249.568173 
L 145.232549 249.306399 
L 145.090218 248.777025 
L 145.045762 248.481943 
L 144.952027 248.121246 
L 144.957033 247.547872 
L 145.052587 247.097399 
L 145.016186 246.232856 
L 145.093539 245.768732 
L 145.211845 245.463867 
L 145.753368 244.549271 
L 146.052546 243.764129 
L 146.217491 243.571017 
L 146.337405 243.427121 
L 146.353998 243.407209 
L 146.461413 243.31378 
L 147.018377 242.82933 
L 147.300491 242.665522 
L 148.529099 241.527965 
L 148.824909 240.995588 
L 148.988717 240.768076 
L 149.04332 240.422259 
L 149.19929 239.726892 
L 149.261731 239.44851 
L 149.411889 239.125444 
L 149.457436 238.820578 
L 149.621245 238.374701 
L 149.681526 238.131166 
L 149.735 237.915128 
L 149.961859 237.261775 
L 149.962512 237.259895 
L 150.12177 236.904978 
L 150.23741 236.738633 
L 150.57823 236.248373 
L 150.640541 236.15874 
L 151.764493 234.780066 
L 151.860048 234.716363 
L 152.105761 234.611708 
L 152.406121 234.375096 
L 152.614127 234.246461 
L 152.751939 234.161235 
L 153.047703 233.897322 
L 153.238813 233.692562 
L 153.473746 233.287117 
L 153.571025 233.119233 
L 153.830388 232.318438 
L 153.86679 232.109127 
L 153.880292 231.704085 
L 153.880441 231.699607 
L 153.728489 230.948787 
L 153.725733 230.935168 
L 153.715949 230.897336 
L 153.65748 230.671255 
L 153.484571 230.243534 
L 153.084151 229.661104 
L 152.970407 229.565235 
L 152.765635 229.392641 
L 152.763473 229.389769 
L 152.447119 228.969469 
L 152.319712 228.559949 
L 152.324263 228.277835 
L 152.347014 228.123127 
L 152.357529 228.090179 
L 152.415267 227.909266 
L 152.629128 227.631702 
L 153.261655 227.140323 
L 153.621123 226.962864 
L 153.94419 226.617047 
L 153.998792 226.353133 
L 154.171701 226.066469 
L 154.387252 225.79813 
L 154.394662 225.788905 
L 155.291103 225.315681 
L 156.365002 224.633192 
L 156.610715 224.282825 
L 156.747222 223.859654 
L 157.002034 222.840402 
L 156.988384 222.562838 
L 156.810015 222.300836 
L 155.072692 221.488984 
L 154.394662 221.070363 
L 153.461865 220.674493 
L 153.307158 220.619891 
L 153.084151 220.597139 
L 152.974945 220.556187 
L 152.446611 220.130903 
L 152.251049 219.973485 
L 151.817777 219.657927 
L 151.485837 219.499988 
L 150.968613 219.319435 
L 150.579796 219.113947 
L 150.40757 219.061847 
L 150.272883 219.049379 
L 150.009015 219.068445 
L 149.686859 218.967793 
L 149.415997 218.926446 
L 149.341087 218.915011 
L 149.057107 218.899904 
L 148.374618 218.929617 
L 148.037811 218.923702 
L 147.885787 218.896628 
L 147.5164 218.724083 
L 147.215766 218.636946 
L 146.790138 218.470317 
L 146.202749 218.138105 
L 144.533543 217.470905 
L 144.413309 217.427473 
L 143.956119 217.262322 
L 143.476024 217.147793 
L 143.169293 217.112483 
L 142.640648 217.09178 
L 142.230262 217.01256 
L 141.942096 216.928927 
L 141.454585 216.910726 
L 141.453768 216.910968 
L 140.925894 217.067345 
L 140.68141 217.181692 
L 140.484021 217.316879 
L 140.015484 217.971111 
L 139.973622 218.076995 
L 139.96848 218.154213 
L 140.00156 218.414668 
L 139.808221 218.811903 
L 139.210185 219.520555 
L 138.876471 219.868238 
L 138.443653 220.047927 
L 137.799568 220.582124 
L 137.212043 221.129425 
L 137.128227 221.176839 
L 136.681349 221.323492 
L 136.274816 221.396013 
L 136.187013 221.411676 
L 135.724618 221.434928 
L 135.421163 221.403349 
L 134.876683 221.129425 
L 133.522171 220.510412 
L 133.369147 220.375589 
L 133.031929 219.814819 
L 132.848965 219.617748 
L 132.481716 219.443292 
L 132.246196 219.259691 
L 132.060091 219.071812 
L 131.871439 218.857086 
L 131.781708 218.718168 
L 131.681922 218.43892 
L 131.681691 218.438037 
L 131.515202 217.802025 
L 131.396213 217.614555 
L 131.209426 217.166631 
L 131.188131 216.999546 
L 131.189041 216.167583 
L 131.107319 215.814712 
L 130.930998 215.499518 
L 130.857511 215.441685 
L 130.798543 215.363884 
L 130.673864 215.199385 
L 130.624085 215.109836 
L 130.570074 214.890197 
L 130.460732 214.686028 
L 130.087977 214.120981 
L 129.756265 213.520897 
L 129.588134 213.314498 
L 129.4949 212.987837 
L 129.496902 212.915489 
L 129.544406 212.847372 
L 130.017858 212.46042 
L 130.061039 212.240189 
L 130.095758 212.177441 
L 130.900238 211.423878 
L 130.934365 211.345705 
L 130.975681 210.866839 
L 130.819517 210.276356 
L 130.749762 210.084427 
L 130.676616 209.986601 
L 130.345065 209.543178 
L 130.093938 209.28113 
L 129.982047 209.130517 
L 129.879895 208.930171 
L 129.755492 208.579439 
L 129.698887 208.386009 
L 129.662166 207.575477 
L 129.638187 207.418858 
L 129.461183 207.011976 
L 129.323129 206.461125 
L 129.322082 206.21646 
L 129.356209 206.037545 
L 129.359849 205.869596 
L 129.33637 205.710429 
L 129.121508 205.246487 
L 129.150948 204.97038 
L 129.13252 204.854167 
L 128.887353 204.014968 
L 128.751802 203.800152 
L 128.569065 203.654362 
L 128.336503 203.527183 
L 127.891035 203.425577 
L 127.767178 203.366151 
L 127.036912 202.702136 
L 126.753023 202.223497 
L 126.671756 202.120344 
L 126.302459 201.922272 
L 125.989131 201.660907 
L 125.942991 201.476668 
L 125.862361 201.361047 
L 125.59458 201.197739 
L 124.798063 200.860613 
L 124.59535 200.716689 
L 123.739907 199.953206 
L 123.403463 199.733248 
L 122.875045 199.455775 
L 121.297754 198.728967 
L 121.01027 198.500955 
L 120.893739 198.363902 
L 120.882409 198.265253 
L 120.793361 198.18021 
L 120.65062 198.116097 
L 120.34762 198.064042 
L 120.060137 197.985278 
L 119.895191 197.919345 
L 119.70663 197.809775 
L 119.467197 197.601238 
L 119.388842 197.364445 
L 119.3411 197.266362 
L 119.311943 197.206461 
L 119.238866 197.118141 
L 119.159647 197.061718 
L 118.816878 196.901641 
L 118.400077 196.83366 
L 117.944099 196.699338 
L 117.71727 196.599415 
L 117.482796 196.410762 
L 117.236993 196.311931 
L 116.746979 196.198312 
L 116.29637 195.986999 
L 115.92043 195.756849 
L 115.390055 195.482333 
L 114.722992 195.03905 
L 114.050104 194.416306 
L 113.759754 194.109711 
L 113.624384 193.870278 
L 113.538339 192.936526 
L 113.037632 192.563316 
L 112.834692 192.341128 
L 112.537881 191.912815 
L 112.238612 191.360691 
L 111.900166 190.932059 
L 111.263225 190.822717 
L 110.702045 190.771345 
L 109.717512 190.608856 
L 109.473939 190.497376 
L 109.247428 190.278965 
L 109.018643 190.027883 
L 108.800914 189.738397 
L 108.737166 189.527858 
L 108.654306 188.966178 
L 108.536409 188.507697 
L 108.517344 188.446815 
L 108.364411 188.224627 
L 108.18586 188.020732 
L 108.004533 187.909615 
L 106.606748 187.454365 
L 106.302429 187.341564 
L 106.029916 187.193682 
L 105.488075 186.774424 
L 105.381827 186.638054 
L 105.274714 186.444805 
L 105.14435 186.282408 
L 104.612156 185.911837 
L 104.325946 185.549229 
L 103.899362 185.150356 
L 103.572246 184.951284 
L 103.096338 184.740517 
L 102.700604 184.519149 
L 102.570331 184.322306 
L 102.509632 184.280265 
L 102.0031 183.929439 
L 101.375669 183.57261 
L 100.752424 183.1645 
L 100.413477 182.897083 
L 99.730761 182.271426 
L 99.628108 182.112396 
L 99.630656 181.542798 
L 99.74655 181.140649 
L 99.808388 181.046232 
L 99.850341 180.920282 
L 99.814804 180.636666 
L 99.82445 180.183736 
L 99.862945 179.979977 
L 100.004184 179.721023 
L 100.012056 179.608678 
L 99.92683 179.369518 
L 99.721069 179.023746 
L 99.394272 178.638933 
L 99.265819 178.529136 
L 98.91081 178.334386 
L 98.361142 178.080984 
L 97.980288 177.837547 
L 97.603074 177.677743 
L 96.920267 177.322052 
L 96.765559 177.196784 
L 96.623046 176.971274 
L 96.152825 175.838995 
L 96.086437 175.495135 
L 96.12839 175.263847 
L 96.283508 174.783843 
L 96.945885 174.140168 
L 97.313452 173.815463 
L 97.358863 173.739565 
L 97.407687 173.485071 
L 97.382524 173.230668 
L 97.270043 172.991508 
L 97.090309 172.773461 
L 96.94138 172.638046 
L 96.649141 172.431606 
L 96.575769 172.379775 
L 96.372374 172.157633 
L 96.114103 171.784378 
L 95.997162 171.521556 
L 95.776885 171.247269 
L 95.585548 170.896491 
L 95.554561 170.856586 
L 95.365727 170.76772 
L 95.291467 170.66989 
L 95.229265 170.521644 
L 95.201418 170.367937 
L 95.112552 170.154258 
L 94.746213 169.532424 
L 94.438344 169.061976 
L 94.288778 168.885927 
L 93.946283 168.282931 
L 94.186171 167.328202 
L 93.924123 166.713193 
L 93.819559 166.380753 
L 93.675772 165.80292 
L 93.439933 165.021645 
L 93.292551 164.395989 
L 93.243545 164.117606 
L 93.178614 163.248649 
L 93.185848 163.149545 
L 93.334459 162.828435 
L 93.339009 162.767508 
L 93.169195 162.18617 
L 93.118096 161.817784 
L 93.122873 161.702891 
" clip-path="url(#pa4be1fb5f7)" style="fill: #cc8282"/>
   </g>
   <g id="PathCollection_1">
    <defs>
     <path id="md6ef302c40" d="M 0 1.581139 
C 0.419323 1.581139 0.821528 1.41454 1.118034 1.118034 
C 1.41454 0.821528 1.581139 0.419323 1.581139 0 
C 1.581139 -0.419323 1.41454 -0.821528 1.118034 -1.118034 
C 0.821528 -1.41454 0.419323 -1.581139 0 -1.581139 
C -0.419323 -1.581139 -0.821528 -1.41454 -1.118034 -1.118034 
C -1.41454 -0.821528 -1.581139 -0.419323 -1.581139 0 
C -1.581139 0.419323 -1.41454 0.821528 -1.118034 1.118034 
C -0.821528 1.41454 -0.419323 1.581139 0 1.581139 
z
" style="stroke: #000000"/>
    </defs>
    <g clip-path="url(#pa4be1fb5f7)">
     <use xlink:href="#md6ef302c40" x="177.666717" y="179.116571" style="stroke: #000000"/>
    </g>
   </g>
   <g id="text_1">
    <!-- Springfield -->
    <g transform="translate(180.666717 176.116571) scale(0.1 -0.1)">
     <defs>
      <path id="DejaVuSans-53" d="M 3425 4513 
L 3425 3897 
Q 3066 4069 2747 4153 
Q 2428 4238 2131 4238 
Q 1616 4238 1336 4038 
Q 1056 3838 1056 3469 
Q 1056 3159 1242 3001 
Q 1428 2844 1947 2747 
L 2328 2669 
Q 3034 2534 3370 2195 
Q 3706 1856 3706 1288 
Q 3706 609 3251 259 
Q 2797 -91 1919 -91 
Q 1588 -91 1214 -16 
Q 841 59 441 206 
L 441 856 
Q 825 641 1194 531 
Q 1563 422 1919 422 
Q 2459 422 2753 634 
Q 3047 847 3047 1241 
Q 3047 1584 2836 1778 
Q 2625 1972 2144 2069 
L 1759 2144 
Q 1053 2284 737 2584 
Q 422 2884 422 3419 
Q 422 4038 858 4394 
Q 1294 4750 2059 4750 
Q 2388 4750 2728 4690 
Q 3069 4631 3425 4513 
z
" transform="scale(0.015625)"/>
      <path id="DejaVuSans-70" d="M 1159 525 
L 1159 -1331 
L 581 -1331 
L 581 3500 
L 1159 3500 
L 1159 2969 
Q 1341 3281 1617 3432 
Q 1894 3584 2278 3584 
Q 2916 3584 3314 3078 
Q 3713 2572 3713 1747 
Q 3713 922 3314 415 
Q 2916 -91 2278 -91 
Q 1894 -91 1617 61 
Q 1341 213 1159 525 
z
M 3116 1747 
Q 3116 2381 2855 2742 
Q 2594 3103 2138 3103 
Q 1681 3103 1420 2742 
Q 1159 2381 1159 1747 
Q 1159 1113 1420 752 
Q 1681 391 2138 391 
Q 2594 391 2855 752 
Q 3116 1113 3116 1747 
z
" transform="scale(0.015625)"/>
      <path id="DejaVuSans-72" d="M 2631 2963 
Q 2534 3019 2420 3045 
Q 2306 3072 2169 3072 
Q 1681 3072 1420 2755 
Q 1159 2438 1159 1844 
L 1159 0 
L 581 0 
L 581 3500 
L 1159 3500 
L 1159 2956 
Q 1341 3275 1631 3429 
Q 1922 3584 2338 3584 
Q 2397 3584 2469 3576 
Q 2541 3569 2628 3553 
L 2631 2963 
z
" transform="scale(0.015625)"/>
      <path id="DejaVuSans-69" d="M 603 3500 
L 1178 3500 
L 1178 0 
L 603 0 
L 603 3500 
z
M 603 4863 
L 1178 4863 
L 1178 4134 
L 603 4134 
L 603 4863 
z
" transform="scale(0.015625)"/>
      <path id="DejaVuSans-6e" d="M 3513 2113 
L 3513 0 
L 2938 0 
L 2938 2094 
Q 2938 2591 2744 2837 
Q 2550 3084 2163 3084 
Q 1697 3084 1428 2787 
Q 1159 2491 1159 1978 
L 1159 0 
L 581 0 
L 581 3500 
L 1159 3500 
L 1159 2956 
Q 1366 3272 1645 3428 
Q 1925 3584 2291 3584 
Q 2894 3584 3203 3211 
Q 3513 2838 3513 2113 
z
" transform="scale(0.015625)"/>
      <path id="DejaVuSans-67" d="M 2906 1791 
Q 2906 2416 2648 2759 
Q 2391 3103 1925 3103 
Q 1463 3103 1205 2759 
Q 947 2416 947 1791 
Q 947 1169 1205 825 
Q 1463 481 1925 481 
Q 2391 481 2648 825 
Q 2906 1169 2906 1791 
z
M 3481 434 
Q 3481 -459 3084 -895 
Q 2688 -1331 1869 -1331 
Q 1566 -1331 1297 -1286 
Q 1028 -1241 775 -1147 
L 775 -588 
Q 1028 -725 1275 -790 
Q 1522 -856 1778 -856 
Q 2344 -856 2625 -561 
Q 2906 -266 2906 331 
L 2906 616 
Q 2728 306 2450 153 
Q 2172 0 1784 0 
Q 1141 0 747 490 
Q 353 981 353 1791 
Q 353 2603 747 3093 
Q 1141 3584 1784 3584 
Q 2172 3584 2450 3431 
Q 2728 3278 2906 2969 
L 2906 3500 
L 3481 3500 
L 3481 434 
z
" transform="scale(0.015625)"/>
      <path id="DejaVuSans-66" d="M 2375 4863 
L 2375 4384 
L 1825 4384 
Q 1516 4384 1395 4259 
Q 1275 4134 1275 3809 
L 1275 3500 
L 2222 3500 
L 2222 3053 
L 1275 3053 
L 1275 0 
L 697 0 
L 697 3053 
L 147 3053 
L 147 3500 
L 697 3500 
L 697 3744 
Q 697 4328 969 4595 
Q 1241 4863 1831 4863 
L 2375 4863 
z
" transform="scale(0.015625)"/>
      <path id="DejaVuSans-65" d="M 3597 1894 
L 3597 1613 
L 953 1613 
Q 991 1019 1311 708 
Q 1631 397 2203 397 
Q 2534 397 2845 478 
Q 3156 559 3463 722 
L 3463 178 
Q 3153 47 2828 -22 
Q 2503 -91 2169 -91 
Q 1331 -91 842 396 
Q 353 884 353 1716 
Q 353 2575 817 3079 
Q 1281 3584 2069 3584 
Q 2775 3584 3186 3129 
Q 3597 2675 3597 1894 
z
M 3022 2063 
Q 3016 2534 2758 2815 
Q 2500 3097 2075 3097 
Q 1594 3097 1305 2825 
Q 1016 2553 972 2059 
L 3022 2063 
z
" transform="scale(0.015625)"/>
      <path id="DejaVuSans-6c" d="M 603 4863 
L 1178 4863 
L 1178 0 
L 603 0 
L 603 4863 
z
" transform="scale(0.015625)"/>
      <path id="DejaVuSans-64" d="M 2906 2969 
L 2906 4863 
L 3481 4863 
L 3481 0 
L 2906 0 
L 2906 525 
Q 2725 213 2448 61 
Q 2172 -91 1784 -91 
Q 1150 -91 751 415 
Q 353 922 353 1747 
Q 353 2572 751 3078 
Q 1150 3584 1784 3584 
Q 2172 3584 2448 3432 
Q 2725 3281 2906 2969 
z
M 947 1747 
Q 947 1113 1208 752 
Q 1469 391 1925 391 
Q 2381 391 2643 752 
Q 2906 1113 2906 1747 
Q 2906 2381 2643 2742 
Q 2381 3103 1925 3103 
Q 1469 3103 1208 2742 
Q 947 2381 947 1747 
z
" transform="scale(0.015625)"/>
     </defs>
     <use xlink:href="#DejaVuSans-53"/>
     <use xlink:href="#DejaVuSans-70" x="63.476562"/>
     <use xlink:href="#DejaVuSans-72" x="126.953125"/>
     <use xlink:href="#DejaVuSans-69" x="168.066406"/>
     <use xlink:href="#DejaVuSans-6e" x="195.849609"/>
     <use xlink:href="#DejaVuSans-67" x="259.228516"/>
     <use xlink:href="#DejaVuSans-66" x="322.705078"/>
     <use xlink:href="#DejaVuSans-69" x="357.910156"/>
     <use xlink:href="#DejaVuSans-65" x="385.693359"/>
     <use xlink:href="#DejaVuSans-6c" x="447.216797"/>
     <use xlink:href="#DejaVuSans-64" x="475"/>
    </g>
   </g>
   <g id="text_2">
    <!-- Illinois -->
    <g transform="translate(165.463125 37.2) scale(0.12 -0.12)">
     <defs>
      <path id="DejaVuSans-49" d="M 628 4666 
L 1259 4666 
L 1259 0 
L 628 0 
L 628 4666 
z
" transform="scale(0.015625)"/>
      <path id="DejaVuSans-6f" d="M 1959 3097 
Q 1497 3097 1228 2736 
Q 959 2375 959 1747 
Q 959 1119 1226 758 
Q 1494 397 1959 397 
Q 2419 397 2687 759 
Q 2956 1122 2956 1747 
Q 2956 2369 2687 2733 
Q 2419 3097 1959 3097 
z
M 1959 3584 
Q 2709 3584 3137 3096 
Q 3566 2609 3566 1747 
Q 3566 888 3137 398 
Q 2709 -91 1959 -91 
Q 1206 -91 779 398 
Q 353 888 353 1747 
Q 353 2609 779 3096 
Q 1206 3584 1959 3584 
z
" transform="scale(0.015625)"/>
      <path id="DejaVuSans-73" d="M 2834 3397 
L 2834 2853 
Q 2591 2978 2328 3040 
Q 2066 3103 1784 3103 
Q 1356 3103 1142 2972 
Q 928 2841 928 2578 
Q 928 2378 1081 2264 
Q 1234 2150 1697 2047 
L 1894 2003 
Q 2506 1872 2764 1633 
Q 3022 1394 3022 966 
Q 3022 478 2636 193 
Q 2250 -91 1575 -91 
Q 1294 -91 989 -36 
Q 684 19 347 128 
L 347 722 
Q 666 556 975 473 
Q 1284 391 1588 391 
Q 1994 391 2212 530 
Q 2431 669 2431 922 
Q 2431 1156 2273 1281 
Q 2116 1406 1581 1522 
L 1381 1569 
Q 847 1681 609 1914 
Q 372 2147 372 2553 
Q 372 3047 722 3315 
Q 1072 3584 1716 3584 
Q 2034 3584 2315 3537 
Q 2597 3491 2834 3397 
z
" transform="scale(0.015625)"/>
     </defs>
     <use xlink:href="#DejaVuSans-49"/>
     <use xlink:href="#DejaVuSans-6c" x="29.492188"/>
     <use xlink:href="#DejaVuSans-6c" x="57.275391"/>
     <use xlink:href="#DejaVuSans-69" x="85.058594"/>
     <use xlink:href="#DejaVuSans-6e" x="112.841797"/>
     <use xlink:href="#DejaVuSans-6f" x="176.220703"/>
     <use xlink:href="#DejaVuSans-69" x="237.402344"/>
     <use xlink:href="#DejaVuSans-73" x="265.185547"/>
    </g>
   </g>
  </g>
 </g>
 <defs>
  <clipPath id="pa4be1fb5f7">
   <rect x="83.979905" y="43.2" width="201.04019" height="277.2"/>
  </clipPath>
 </defs>
</svg>
