<?xml version="1.0" encoding="utf-8" standalone="no"?>
<!DOCTYPE svg PUBLIC "-//W3C//DTD SVG 1.1//EN"
  "http://www.w3.org/Graphics/SVG/1.1/DTD/svg11.dtd">
<svg xmlns:xlink="http://www.w3.org/1999/xlink" width="360pt" height="360pt" viewBox="0 0 360 360" xmlns="http://www.w3.org/2000/svg" version="1.1">
 <metadata>
  <rdf:RDF xmlns:dc="http://purl.org/dc/elements/1.1/" xmlns:cc="http://creativecommons.org/ns#" xmlns:rdf="http://www.w3.org/1999/02/22-rdf-syntax-ns#">
   <cc:Work>
    <dc:type rdf:resource="http://purl.org/dc/dcmitype/StillImage"/>
    <dc:date>2023-06-19T15:20:26.803472</dc:date>
    <dc:format>image/svg+xml</dc:format>
    <dc:creator>
     <cc:Agent>
      <dc:title>Matplotlib v3.7.1, https://matplotlib.org/</dc:title>
     </cc:Agent>
    </dc:creator>
   </cc:Work>
  </rdf:RDF>
 </metadata>
 <defs>
  <style type="text/css">*{stroke-linejoin: round; stroke-linecap: butt}</style>
 </defs>
 <g id="figure_1">
  <g id="patch_1">
   <path d="M 0 360 
L 360 360 
L 360 0 
L 0 0 
z
" style="fill: #ffffff"/>
  </g>
  <g id="axes_1">
   <g id="PatchCollection_1">
    <path d="M 79.97978 299.330233 
L 80.575215 299.336234 
L 81.509463 299.961678 
L 82.525082 300.250708 
L 83.441894 300.217288 
L 84.344807 300.264228 
L 84.842382 300.429813 
L 85.179616 300.022264 
L 84.75602 298.882188 
L 84.115478 298.790835 
L 81.904883 298.453601 
L 81.667467 297.892534 
L 82.238958 297.559849 
L 82.604116 297.610516 
L 83.741159 296.996634 
L 83.705528 296.104208 
L 84.002392 295.995671 
L 84.24063 296.007106 
L 84.704974 295.947594 
L 84.992867 295.807154 
L 85.206529 295.493169 
L 85.228956 294.828682 
L 84.641103 293.634844 
L 84.549371 292.403794 
L 85.541236 291.538281 
L 84.909475 291.184495 
L 84.072202 291.439221 
L 83.379729 290.967422 
L 83.791195 290.148407 
L 85.939309 290.123137 
L 86.7328 289.867526 
L 88.093866 289.140117 
L 88.470775 288.433176 
L 88.747613 287.80211 
L 88.410758 287.058527 
L 85.726595 288.074967 
L 85.256943 287.992207 
L 84.96646 287.235231 
L 85.194589 286.839117 
L 86.1301 286.5257 
L 86.847276 286.61023 
L 87.29153 286.555266 
L 87.652076 286.342995 
L 87.637798 285.745601 
L 87.868517 285.234949 
L 88.086096 285.031522 
L 88.519926 285.034302 
L 88.811168 284.983634 
L 89.468199 285.380443 
L 90.121251 284.571031 
L 90.582752 284.437287 
L 90.729952 284.139981 
L 90.605622 283.780193 
L 90.207612 283.50405 
L 90.208181 282.996493 
L 89.993193 282.501319 
L 88.581965 281.731392 
L 87.550994 280.881168 
L 87.019367 280.115094 
L 86.97546 278.958972 
L 86.954009 278.844941 
L 86.827122 278.170408 
L 86.731284 277.665188 
L 86.779109 277.238939 
L 86.813241 277.156896 
L 86.838115 277.097109 
L 87.168842 277.178416 
L 87.921964 278.005392 
L 87.881152 278.16289 
L 87.983814 278.382237 
L 88.210426 278.444023 
L 88.536162 278.399358 
L 88.677235 278.211219 
L 88.623724 277.903678 
L 88.793921 277.481156 
L 89.430736 277.249489 
L 89.683314 276.934746 
L 89.251442 276.693729 
L 89.06065 276.053313 
L 89.670489 275.754932 
L 89.982642 274.904898 
L 90.763246 274.511437 
L 91.299232 274.466393 
L 91.751005 274.697112 
L 91.718469 275.100491 
L 91.365251 275.541776 
L 91.12215 275.948757 
L 91.228096 276.317073 
L 91.52913 276.439951 
L 91.801293 276.411648 
L 92.479741 275.722965 
L 93.108596 275.35547 
L 93.297556 274.864971 
L 93.550892 274.191387 
L 93.91845 273.780995 
L 94.306604 273.651105 
L 94.67151 273.806139 
L 94.839368 274.087336 
L 94.473263 275.059743 
L 94.674163 275.673372 
L 95.206422 275.982366 
L 95.756433 275.900806 
L 96.069344 275.683607 
L 96.586251 274.847471 
L 96.703064 274.466835 
L 96.638687 273.96926 
L 96.591242 272.856602 
L 97.223129 271.463001 
L 98.274759 270.437589 
L 99.922328 269.951196 
L 101.198326 268.549883 
L 102.117192 267.540775 
L 102.172286 267.193273 
L 102.383417 265.861555 
L 103.036721 265.398347 
L 103.072415 265.170282 
L 102.718945 264.761659 
L 102.248851 264.380517 
L 102.225792 263.82741 
L 102.479318 263.366541 
L 103.032361 263.136074 
L 104.088729 263.0626 
L 105.406519 262.54721 
L 106.34241 261.890178 
L 107.269393 261.606328 
L 107.687429 261.338588 
L 107.871777 261.039007 
L 107.894773 260.69337 
L 107.769811 260.451785 
L 107.456963 259.195465 
L 108.090493 258.238473 
L 108.038373 257.485035 
L 108.90875 256.199654 
L 109.438797 256.10748 
L 109.623145 256.038302 
L 109.784497 255.853954 
L 109.768513 255.666258 
L 109.566034 255.130209 
L 109.880209 254.281564 
L 110.022671 252.979126 
L 111.693173 251.215691 
L 114.734471 250.5706 
L 115.37019 250.2852 
L 115.638332 250.16482 
L 116.372564 249.333296 
L 116.555901 248.124421 
L 117.388807 247.036777 
L 117.83288 246.456888 
L 117.677846 245.50634 
L 117.712837 245.20451 
L 117.830163 244.192467 
L 115.884023 241.693852 
L 116.241663 241.159698 
L 115.975566 239.755988 
L 115.440974 239.522259 
L 114.420044 239.075898 
L 114.238791 238.836839 
L 114.618732 238.061668 
L 114.826013 236.831061 
L 115.864881 236.035358 
L 116.422031 235.055054 
L 116.841457 233.083202 
L 115.747942 231.977115 
L 112.663495 230.911902 
L 112.613081 230.101922 
L 113.208263 228.977008 
L 112.871471 228.051541 
L 113.025557 226.584339 
L 111.522914 225.172164 
L 110.755703 224.994892 
L 110.440075 224.797593 
L 110.242776 224.521387 
L 110.203355 224.126789 
L 110.084963 223.850646 
L 109.690428 223.771739 
L 109.374737 223.613862 
L 109.256408 223.456048 
L 109.216923 223.219327 
L 109.216923 222.982607 
L 109.256661 222.704316 
L 108.568041 222.081399 
L 108.388305 221.049228 
L 108.591292 220.251643 
L 108.739248 219.670283 
L 109.979964 219.160894 
L 112.013097 217.705696 
L 112.744992 216.865517 
L 112.901101 216.405532 
L 112.610175 215.485814 
L 112.333969 214.815074 
L 111.705303 214.570392 
L 111.036281 213.811868 
L 110.943589 213.706775 
L 110.658854 212.373128 
L 111.448871 211.478807 
L 111.423538 211.283529 
L 111.268693 210.43539 
L 111.983404 209.113304 
L 112.662737 208.701901 
L 114.174604 208.692741 
L 114.830815 207.908156 
L 115.612114 208.225237 
L 115.618263 206.34928 
L 115.630498 202.617221 
L 115.630498 202.549244 
L 115.622032 201.80743 
L 115.614514 200.749167 
L 115.613503 200.549973 
L 115.611043 200.061485 
L 115.61104 200.060863 
L 115.613314 199.139882 
L 115.609207 198.898676 
L 115.59557 197.329107 
L 115.59196 196.913619 
L 115.593603 195.71858 
L 115.589244 194.571302 
L 115.577353 191.83622 
L 115.56669 189.383723 
L 115.561699 189.385239 
L 115.545336 188.199676 
L 115.522403 180.815969 
L 115.522909 179.899916 
L 115.523035 179.414786 
L 115.517602 178.970974 
L 115.512242 174.418946 
L 115.512232 174.410923 
L 115.540725 168.854585 
L 115.53984 168.606113 
L 115.5466 168.436738 
L 115.555508 167.819444 
L 115.568838 167.167846 
L 115.571618 167.025005 
L 115.570291 166.301322 
L 115.570291 166.295321 
L 115.617483 158.624605 
L 115.604975 157.912736 
L 115.625191 157.675573 
L 115.625276 157.669488 
L 115.644523 156.285509 
L 115.65086 155.832966 
L 115.663792 154.909407 
L 115.663808 154.908288 
L 115.716607 151.231042 
L 115.71269 151.190925 
L 115.917696 137.829243 
L 115.934122 136.97706 
L 115.936539 136.899983 
L 115.937091 136.882359 
L 115.944865 135.992921 
L 115.945052 135.971612 
L 115.946568 133.221114 
L 115.950358 133.202288 
L 115.960653 120.473814 
L 115.960656 120.469713 
L 115.982515 113.052396 
L 115.961667 111.451135 
L 115.971206 111.393328 
L 115.941198 110.534702 
L 115.967921 110.447961 
L 115.96352 109.420994 
L 115.963499 109.416169 
L 115.949537 103.197619 
L 115.946947 103.182646 
L 115.935954 102.282134 
L 115.923888 96.17629 
L 115.924583 95.028191 
L 115.924835 94.423974 
L 115.925025 94.124772 
L 115.923382 93.777935 
L 115.92711 93.737376 
L 115.92821 93.692712 
L 115.932985 93.498887 
L 115.932774 93.357899 
L 115.920298 85.0215 
L 115.920287 85.013578 
L 115.943283 81.372423 
L 116.00987 79.790557 
L 115.996898 76.332746 
L 115.992623 75.193358 
L 115.989591 74.151205 
L 115.989721 74.140619 
L 116.005009 72.893686 
L 116.030346 70.827237 
L 116.035772 70.384646 
L 116.029392 68.520951 
L 116.054662 68.261929 
L 116.054641 67.015584 
L 116.054628 66.223801 
L 116.054599 64.521903 
L 116.048281 63.89646 
L 116.054599 63.73852 
L 116.045483 61.179811 
L 116.041837 60.156435 
L 116.03552 59.461497 
L 116.092378 59.101394 
L 116.313495 59.000312 
L 116.648391 59.360416 
L 116.913731 59.846872 
L 117.273835 60.162752 
L 119.459791 61.344145 
L 119.632199 61.369605 
L 119.874479 61.088851 
L 119.987434 61.031514 
L 120.787753 60.625264 
L 122.357363 60.255116 
L 122.929802 60.374518 
L 123.242081 60.63929 
L 123.893174 61.042858 
L 122.592694 62.185588 
L 121.468854 62.512903 
L 122.04382 63.037265 
L 122.448147 63.239428 
L 123.41094 63.425984 
L 124.274 63.593215 
L 124.457671 63.641809 
L 126.112424 64.079607 
L 128.709025 64.490252 
L 131.027651 64.540793 
L 131.608871 64.698733 
L 132.676611 64.660828 
L 135.133656 64.419187 
L 135.258997 64.40686 
L 137.344377 64.072216 
L 139.051775 63.591256 
L 139.04173 63.078329 
L 141.249671 62.767692 
L 141.597961 63.058366 
L 144.936814 62.065486 
L 145.027729 62.038451 
L 147.437581 61.228786 
L 153.316623 59.019075 
L 153.44823 58.930483 
L 154.940249 57.926129 
L 157.069347 57.231128 
L 160.266121 55.822238 
L 160.341932 55.822238 
L 160.819417 55.822238 
L 161.554976 55.822238 
L 161.734965 55.822238 
L 161.789991 55.822238 
L 161.796056 55.821543 
L 164.930298 55.838493 
L 165.113749 55.839485 
L 165.213252 55.838537 
L 171.856673 55.860549 
L 171.867907 55.860586 
L 171.940054 55.858185 
L 179.257182 55.871762 
L 179.567052 55.872337 
L 180.675477 55.86564 
L 195.164676 55.825535 
L 195.602537 55.824323 
L 198.091619 55.836381 
L 198.093318 55.836389 
L 198.629051 55.836389 
L 201.082578 55.820642 
L 204.298854 55.8 
L 204.449466 55.802022 
L 204.474736 55.801011 
L 206.913104 55.802868 
L 208.422296 55.804017 
L 209.783614 55.805054 
L 212.920155 55.840567 
L 212.925045 55.840622 
L 213.956206 55.84694 
L 213.961197 55.84694 
L 219.399143 55.873916 
L 219.402676 55.873937 
L 220.272742 55.879033 
L 220.459491 55.877517 
L 225.556412 55.897354 
L 225.558191 55.897344 
L 226.587699 55.891289 
L 226.651262 55.891437 
L 228.139936 55.894891 
L 228.170071 55.894827 
L 229.778408 55.895206 
L 233.871208 55.894208 
L 234.440552 55.894069 
L 234.633555 55.892679 
L 235.579238 55.890215 
L 236.0674 55.894701 
L 236.217696 55.897481 
L 237.120861 55.888383 
L 237.169128 55.895585 
L 242.810564 55.868167 
L 242.955364 55.878338 
L 248.22981 55.857364 
L 248.54051 55.855974 
L 251.599497 55.845297 
L 253.429014 55.843212 
L 254.66417 55.838537 
L 255.453492 55.838474 
L 256.084558 55.831272 
L 256.702105 55.835631 
L 257.092983 55.839748 
L 257.097966 55.839801 
L 258.259522 55.851931 
L 258.307662 55.843023 
L 258.354097 55.837463 
L 260.842035 55.847572 
L 263.120245 55.854117 
L 263.128884 55.854142 
L 264.670823 55.861534 
L 267.774538 55.853637 
L 268.143171 55.856353 
L 273.06023 55.838348 
L 273.162512 55.849972 
L 277.269843 55.877454 
L 277.34894 55.867283 
L 277.980006 55.865703 
L 278.024356 55.872905 
L 279.817041 55.856922 
L 286.595079 55.838032 
L 286.599254 55.837986 
L 286.994541 55.833673 
L 287.815199 55.823754 
L 287.799341 56.904129 
L 287.803132 57.252355 
L 287.803701 57.548904 
L 287.805154 58.330077 
L 287.80667 59.155093 
L 287.802627 59.875048 
L 287.79454 61.235798 
L 287.828466 63.902335 
L 287.827013 63.961974 
L 287.821041 64.907026 
L 287.819684 65.12176 
L 287.888104 70.35331 
L 287.888104 70.359401 
L 287.888104 70.362092 
L 287.899349 72.240191 
L 287.905288 73.007149 
L 287.939276 76.336087 
L 287.936939 76.930132 
L 287.936917 76.935408 
L 287.933212 77.84448 
L 287.931253 78.052582 
L 287.925757 78.056941 
L 287.938834 80.605023 
L 287.960586 86.713266 
L 287.96063 86.725524 
L 287.960693 86.734179 
L 287.966243 87.895366 
L 287.966253 87.897314 
L 287.967516 92.865609 
L 287.959809 92.908948 
L 287.971244 93.449357 
L 287.948058 94.973733 
L 287.982552 96.180775 
L 287.973707 98.209486 
L 287.976777 103.246312 
L 287.977554 104.521287 
L 287.977561 104.532972 
L 288.001374 108.743118 
L 288.001442 108.755158 
L 288.049771 116.448491 
L 288.026523 118.665087 
L 288.043707 120.131847 
L 288.052993 121.024841 
L 288.052986 121.025919 
L 288.049077 121.628868 
L 288.054573 122.647646 
L 288.052488 123.347068 
L 288.050593 123.478538 
L 288.046613 124.397624 
L 288.048318 125.312288 
L 288.051983 126.287663 
L 288.04377 130.877028 
L 288.029997 133.667454 
L 288.025954 135.324942 
L 287.945019 137.624986 
L 287.938708 137.804351 
L 287.902318 141.026901 
L 287.926641 144.736033 
L 287.926667 144.741533 
L 287.939403 147.435485 
L 287.939371 147.436838 
L 287.927968 147.916697 
L 287.831372 152.897438 
L 287.796751 154.51879 
L 287.786327 154.876872 
L 287.785885 154.88161 
L 287.759414 155.647557 
L 287.663071 158.875919 
L 287.662186 159.00284 
L 287.636852 160.253853 
L 287.620569 161.174402 
L 287.571718 163.936199 
L 287.548848 164.865835 
L 287.496161 166.706476 
L 287.478533 167.322311 
L 287.416557 171.617718 
L 287.406197 171.969988 
L 287.402785 172.276266 
L 287.384653 173.876579 
L 287.379031 173.924277 
L 287.362415 175.053361 
L 287.336261 176.29774 
L 287.330891 176.454923 
L 287.322994 176.935061 
L 287.321161 176.942263 
L 287.315476 177.971275 
L 287.311748 178.107104 
L 287.29109 178.764704 
L 287.294817 178.942482 
L 287.289194 179.678041 
L 287.29109 180.493139 
L 287.290458 180.574257 
L 287.294244 184.29841 
L 287.294248 184.302469 
L 287.268915 187.216593 
L 287.263292 187.92764 
L 287.281992 188.771673 
L 287.257859 190.4749 
L 287.229367 194.297244 
L 287.236936 194.338667 
L 287.242065 194.366738 
L 287.242065 194.429914 
L 287.22943 195.579719 
L 287.216795 197.228615 
L 287.204159 197.917172 
L 287.204159 197.923489 
L 287.191587 200.046206 
L 287.084251 205.454018 
L 286.96428 210.653348 
L 286.958025 210.925131 
L 286.947222 213.045448 
L 286.946527 213.660467 
L 286.932249 214.345106 
L 286.935914 214.548028 
L 286.935155 214.767376 
L 286.913297 215.848256 
L 286.916055 216.38619 
L 286.93585 220.24607 
L 286.924289 220.785089 
L 286.913423 223.53963 
L 286.528744 223.622391 
L 286.215959 223.764537 
L 285.69046 224.183268 
L 285.054971 224.62727 
L 284.352769 225.266865 
L 283.704157 225.537595 
L 282.572214 226.010069 
L 282.256333 226.257087 
L 282.035786 226.578527 
L 282.047978 226.892576 
L 282.230557 227.07168 
L 282.560084 227.624597 
L 282.952344 228.0535 
L 283.255939 228.256406 
L 283.753923 228.589233 
L 284.10285 228.959663 
L 284.588416 229.475151 
L 285.005694 229.998123 
L 285.063121 230.145134 
L 285.211648 230.373452 
L 285.670559 230.753709 
L 285.841767 230.957831 
L 286.07217 231.370814 
L 286.252475 231.789292 
L 286.300615 232.137582 
L 286.126249 232.638253 
L 285.965592 232.859306 
L 284.097411 234.316652 
L 283.716586 234.674355 
L 283.274163 235.23498 
L 283.17902 235.50291 
L 283.207513 235.67418 
L 283.320472 235.95146 
L 283.725381 236.457348 
L 283.756703 236.49648 
L 283.904914 236.57583 
L 284.348347 236.669267 
L 286.261761 236.694411 
L 286.981906 236.807307 
L 287.381621 236.828597 
L 288.171259 237.085219 
L 288.935943 237.549057 
L 289.04568 237.644327 
L 289.119722 237.756844 
L 289.161102 238.080242 
L 289.084027 238.44818 
L 288.925898 238.774863 
L 288.755322 239.011963 
L 288.583989 239.187846 
L 288.526966 239.230106 
L 287.981731 239.634185 
L 287.102193 240.09556 
L 286.71088 240.362416 
L 286.450279 240.633252 
L 286.294234 240.903456 
L 286.298783 241.233677 
L 286.474918 241.661443 
L 287.144079 242.502569 
L 287.306252 242.825462 
L 287.451178 243.295682 
L 287.444418 243.522927 
L 287.373345 243.717635 
L 287.261902 243.818654 
L 286.836285 243.905647 
L 286.372825 243.899519 
L 285.933246 243.831226 
L 285.159591 243.590083 
L 284.591891 243.456276 
L 282.632484 243.176532 
L 282.252732 243.236423 
L 281.750861 243.432269 
L 280.906829 243.844051 
L 279.785895 244.258928 
L 279.274548 244.378457 
L 278.859291 244.400822 
L 277.918536 244.226329 
L 276.895841 244.147675 
L 276.183025 244.204344 
L 275.808201 244.307132 
L 275.554865 244.436074 
L 274.807934 244.941672 
L 274.061685 245.237168 
L 272.96534 245.671293 
L 272.521275 245.943835 
L 271.744398 246.316637 
L 271.007512 246.530236 
L 270.726947 246.661073 
L 270.359831 246.917379 
L 269.173194 247.463157 
L 269.02473 247.556468 
L 268.793127 247.789778 
L 268.797991 247.842909 
L 267.884781 248.446683 
L 267.146126 249.006233 
L 266.790381 249.208839 
L 266.273537 249.445181 
L 265.686189 249.645828 
L 264.651996 249.909209 
L 264.362397 249.888804 
L 263.720149 249.939092 
L 263.516153 249.917549 
L 262.816439 249.730431 
L 262.63213 249.681144 
L 262.078897 249.443981 
L 261.58189 249.095817 
L 261.269927 248.811588 
L 260.473718 247.735193 
L 260.235608 247.498852 
L 259.978418 247.14595 
L 259.198761 246.771126 
L 258.643254 246.635613 
L 258.149533 246.55519 
L 257.279471 246.476978 
L 256.21666 246.525055 
L 254.652546 246.837398 
L 254.510724 246.876704 
L 254.011561 247.015049 
L 253.327806 247.157511 
L 252.597167 247.227901 
L 252.566471 247.230859 
L 252.03219 247.224604 
L 250.250814 246.8832 
L 249.591003 246.813707 
L 249.23052 246.864753 
L 248.890001 246.9556 
L 248.129108 247.295424 
L 247.895293 247.488112 
L 247.610685 247.902231 
L 247.194291 248.311738 
L 246.988842 248.565706 
L 246.745425 249.430777 
L 246.681554 249.842685 
L 246.712952 250.099559 
L 246.775812 250.287761 
L 247.449965 251.046316 
L 247.833633 251.726344 
L 247.897062 252.384702 
L 247.788399 253.429129 
L 247.795159 254.817614 
L 247.842983 255.13242 
L 247.915509 255.364971 
L 247.996122 255.581792 
L 248.493926 256.337774 
L 249.025071 257.144389 
L 249.281692 257.776151 
L 249.316376 258.29053 
L 249.295654 258.863853 
L 249.186865 259.21625 
L 248.823287 259.796333 
L 248.652079 259.976448 
L 248.201694 260.271598 
L 248.187798 260.280704 
L 247.645179 260.515909 
L 246.585652 260.881761 
L 246.331558 260.995352 
L 246.067924 261.142047 
L 245.71856 261.394815 
L 245.583806 261.534118 
L 245.374314 261.897633 
L 245.26047 262.136881 
L 245.148396 262.525983 
L 245.044092 262.694852 
L 244.505516 263.389726 
L 244.035233 263.797844 
L 242.893451 264.232811 
L 242.247476 264.426573 
L 241.65501 264.566002 
L 240.596052 264.705179 
L 239.209337 264.742327 
L 238.419383 264.91903 
L 237.403827 265.449773 
L 237.16401 265.626603 
L 236.349544 266.649424 
L 236.361674 266.738376 
L 236.279798 267.029491 
L 235.753162 267.963424 
L 235.56515 268.382913 
L 235.517268 268.526709 
L 235.242699 269.351276 
L 235.242273 269.354413 
L 235.212374 269.574667 
L 235.24472 270.24983 
L 235.196201 270.544989 
L 234.727182 271.715452 
L 234.257152 272.71414 
L 233.861922 273.201354 
L 233.305909 273.762295 
L 232.906699 274.343515 
L 232.857835 274.376961 
L 232.366923 274.712969 
L 232.210658 274.786884 
L 230.502322 275.594942 
L 229.214782 276.20396 
L 228.880549 276.362055 
L 228.494164 276.500789 
L 228.10879 276.456566 
L 227.470711 276.159638 
L 227.12318 275.83744 
L 227.17372 275.711151 
L 227.161085 275.66061 
L 226.693582 275.300507 
L 226.213444 275.155202 
L 225.543777 275.148884 
L 225.542984 275.149106 
L 225.385837 275.193107 
L 225.259485 275.268919 
L 224.84884 275.376318 
L 223.989582 275.50267 
L 223.509443 275.654293 
L 223.155657 275.894362 
L 222.808189 276.443994 
L 222.606025 277.119978 
L 222.612343 277.511607 
L 222.505353 278.229068 
L 222.504943 278.231815 
L 222.138522 278.831988 
L 222.120758 278.85305 
L 221.761234 279.279338 
L 220.679154 279.988174 
L 220.470339 280.141661 
L 220.383809 280.205265 
L 220.301562 280.26572 
L 219.939993 280.531488 
L 219.02394 281.472812 
L 218.840729 281.738152 
L 218.721555 281.986164 
L 218.139475 283.19752 
L 218.095251 284.530472 
L 218.366611 286.360573 
L 218.366909 286.362579 
L 218.404814 287.044881 
L 218.303796 287.935664 
L 217.861563 288.744318 
L 217.704886 289.180233 
L 217.619977 289.47236 
L 217.532036 289.95452 
L 217.457236 290.784338 
L 217.343013 291.349385 
L 217.278321 291.567722 
L 217.182961 291.73248 
L 217.08734 291.89769 
L 216.78302 292.222731 
L 216.505046 292.46836 
L 216.198768 292.687707 
L 215.810511 292.86081 
L 215.658782 292.928457 
L 215.441665 293.025257 
L 215.010046 293.087928 
L 213.889997 293.154642 
L 212.591475 293.374937 
L 212.440773 293.393485 
L 211.798931 293.472481 
L 211.070637 293.624925 
L 210.511276 293.844525 
L 210.324338 294.004992 
L 210.163618 294.338941 
L 210.14675 294.565491 
L 210.266342 295.250699 
L 210.205125 295.614656 
L 210.100379 295.799004 
L 209.962971 295.947658 
L 209.699779 296.031808 
L 209.519474 296.016646 
L 209.314152 295.946457 
L 208.969589 295.680991 
L 208.475616 295.191061 
L 208.278001 294.919909 
L 207.849351 294.188203 
L 207.642702 293.799986 
L 207.701771 293.667063 
L 207.612504 293.572362 
L 207.319303 293.325976 
L 206.846051 293.055645 
L 206.325417 292.815386 
L 205.542665 292.531978 
L 204.907619 292.414281 
L 204.316164 292.368036 
L 203.463729 292.402215 
L 201.805546 292.755432 
L 201.497499 292.752842 
L 201.068091 292.665154 
L 200.313516 292.34106 
L 199.333528 291.997509 
L 198.453358 291.615546 
L 198.128128 291.277048 
L 197.651906 290.896412 
L 196.583283 290.484188 
L 195.86933 290.048842 
L 195.514406 289.770614 
L 195.487935 289.737131 
L 195.091568 289.118763 
L 194.767096 287.737733 
L 194.771139 287.156134 
L 195.240727 285.15958 
L 195.204148 284.669207 
L 194.195163 283.394566 
L 193.160212 282.77405 
L 192.339933 282.455958 
L 191.526256 281.935124 
L 191.349901 281.822239 
L 190.406934 281.037276 
L 189.608325 280.820392 
L 188.760249 281.164323 
L 188.668913 281.321945 
L 188.485433 281.638586 
L 188.53073 282.552492 
L 188.890455 283.007107 
L 190.03489 283.29797 
L 191.783857 283.630402 
L 192.0787 284.066254 
L 191.941039 284.596049 
L 191.628634 284.984898 
L 191.202384 285.214543 
L 190.108111 285.26401 
L 188.664032 285.126918 
L 188.382835 285.212521 
L 187.912742 285.505785 
L 187.34422 286.56986 
L 187.000668 286.72104 
L 186.784922 286.695454 
L 185.919915 285.944164 
L 185.09932 285.411716 
L 183.95937 285.342096 
L 183.496795 285.512166 
L 183.249214 285.724222 
L 183.109336 285.84403 
L 182.930358 286.149865 
L 182.921766 286.633541 
L 183.070799 286.98758 
L 183.390659 287.28912 
L 184.954205 287.898201 
L 185.204066 288.411507 
L 185.033617 289.135947 
L 184.689497 289.56207 
L 183.807811 290.189788 
L 182.562547 290.459676 
L 182.026182 290.500109 
L 181.370643 290.494139 
L 180.784266 290.4888 
L 180.044537 290.571498 
L 179.695236 290.686099 
L 179.561619 290.774103 
L 179.408669 290.958198 
L 179.210044 291.618262 
L 179.246939 292.203905 
L 179.229818 292.564956 
L 179.165694 292.928156 
L 179.154765 293.481578 
L 179.215161 294.527206 
L 179.197093 295.38678 
L 179.281938 295.769564 
L 179.492188 296.257979 
L 179.613992 296.424764 
L 179.992227 296.731041 
L 180.194264 297.01268 
L 180.342539 297.395085 
L 180.369262 297.756453 
L 180.292756 297.875855 
L 180.092235 298.047 
L 179.57198 298.296987 
L 179.000931 298.520947 
L 178.629645 298.622723 
L 178.214831 298.631315 
L 177.723005 298.569971 
L 176.601692 298.296924 
L 175.713057 298.234948 
L 175.320102 298.28928 
L 175.191285 298.360416 
L 174.714685 298.794436 
L 174.567674 299.004433 
L 174.47948 299.270468 
L 174.463813 299.620211 
L 174.58669 300.673041 
L 174.576203 300.934147 
L 174.508415 301.292166 
L 174.629334 301.499068 
L 174.639189 301.582208 
L 174.589407 301.757837 
L 174.177751 302.333372 
L 173.890995 302.514308 
L 173.508653 302.67547 
L 172.842272 303.028688 
L 172.304769 303.244813 
L 172.052444 303.316013 
L 171.435656 303.3977 
L 171.152121 303.384369 
L 170.976492 303.32928 
L 170.788732 303.225924 
L 170.575892 302.874033 
L 170.521687 302.416827 
L 170.601415 302.049774 
L 170.782036 301.631864 
L 171.391496 300.57935 
L 171.642494 300.025296 
L 171.687665 299.81075 
L 171.681095 299.547685 
L 171.594544 299.284683 
L 171.495483 299.152518 
L 171.305576 299.026482 
L 170.623211 298.872143 
L 169.855621 298.755646 
L 169.357099 298.748886 
L 169.035785 298.870563 
L 168.658055 299.15833 
L 167.658483 299.800326 
L 167.132731 300.071604 
L 166.98591 300.131621 
L 166.746788 300.16163 
L 166.164747 300.054736 
L 165.958919 299.912779 
L 164.930918 298.88263 
L 164.042409 297.643304 
L 163.098621 296.12632 
L 162.58999 295.095412 
L 162.428702 294.639154 
L 162.151485 294.075623 
L 161.145216 293.559601 
L 160.902443 293.463306 
L 160.870147 293.450496 
L 160.566649 293.41796 
L 160.350587 293.446579 
L 159.613322 293.7744 
L 158.737322 294.010047 
L 158.299954 294.182391 
L 157.840411 294.485447 
L 157.605901 294.687673 
L 157.387817 294.941515 
L 157.041233 295.226186 
L 156.696039 295.431319 
L 156.467152 295.630324 
L 156.017149 296.163783 
L 155.364603 296.780887 
L 155.066538 296.979134 
L 155.057926 296.983623 
L 154.295916 297.380871 
L 153.764099 297.488775 
L 153.409681 297.489849 
L 152.697307 297.578612 
L 151.424183 297.651264 
L 151.155116 297.621319 
L 150.536603 297.787162 
L 150.528851 297.789241 
L 148.990892 298.28233 
L 148.547775 298.454612 
L 147.086575 299.280639 
L 146.530309 299.805127 
L 146.350131 300.090431 
L 146.278363 300.337386 
L 146.300032 300.482186 
L 146.41059 300.706398 
L 146.457151 300.964472 
L 146.479768 301.273466 
L 146.428911 301.542154 
L 146.087381 302.240313 
L 145.948899 302.623413 
L 145.699227 303.784843 
L 145.545583 304.280143 
L 145.068477 305.352621 
L 144.913822 305.631607 
L 144.730864 305.892398 
L 144.36153 306.209475 
L 144.309353 306.25427 
L 143.473407 306.785013 
L 142.888143 306.985155 
L 142.178486 307.119593 
L 141.667013 307.098366 
L 141.142398 306.959884 
L 141.009981 306.860824 
L 140.787601 306.507038 
L 140.512809 305.556598 
L 140.512596 305.555858 
L 140.231588 304.992833 
L 139.502789 303.968875 
L 139.162143 303.622227 
L 138.944754 303.477681 
L 138.784034 303.410967 
L 138.406999 303.34122 
L 137.823757 303.400858 
L 136.422701 303.248225 
L 135.779821 303.094581 
L 135.241055 302.910675 
L 133.073736 301.761375 
L 132.588543 301.412643 
L 132.224416 301.046005 
L 132.148838 300.969905 
L 131.865809 300.774817 
L 130.099784 299.795398 
L 130.082408 299.788241 
L 128.980809 299.334465 
L 128.239816 299.175767 
L 128.088194 299.178799 
L 128.010361 299.219232 
L 127.407913 298.991861 
L 126.922658 298.678508 
L 126.790241 298.544069 
L 126.563817 298.399522 
L 126.352557 298.370208 
L 126.227215 298.2853 
L 125.677267 297.800107 
L 125.653008 297.76675 
L 125.695462 297.693971 
L 125.670191 297.672744 
L 125.645822 297.661658 
L 125.176912 297.448343 
L 124.482786 297.261443 
L 123.855711 297.092598 
L 123.762715 297.026895 
L 122.754867 296.869207 
L 122.127149 296.866175 
L 121.600387 296.905281 
L 120.910062 297.016787 
L 120.741255 297.078447 
L 120.695878 297.101838 
L 119.790076 297.568756 
L 118.473928 298.419865 
L 118.21718 298.643256 
L 117.539932 299.11834 
L 117.138638 299.271984 
L 116.884922 299.29119 
L 116.32992 298.900003 
L 115.619316 298.667515 
L 114.711538 298.26521 
L 114.547154 298.181061 
L 114.371903 298.091349 
L 113.862388 297.729476 
L 113.449975 297.30089 
L 113.290265 297.092661 
L 113.06081 296.698442 
L 112.918221 296.232455 
L 112.973311 295.739682 
L 112.891182 295.417484 
L 112.689018 295.177415 
L 112.486855 295.05738 
L 112.183546 294.931028 
L 112.05836 294.911768 
L 111.93716 294.893122 
L 111.741314 294.905757 
L 111.501244 294.968933 
L 111.204317 295.114238 
L 111.052694 295.341672 
L 110.964248 295.581742 
L 110.964248 295.815493 
L 111.071647 295.973433 
L 110.901071 296.560971 
L 110.610461 296.879379 
L 110.062598 297.262479 
L 109.675455 297.584424 
L 109.464194 298.009473 
L 109.498562 298.342032 
L 109.635022 298.677623 
L 109.822024 299.018269 
L 110.013068 299.259854 
L 110.758104 299.77335 
L 111.169507 299.967427 
L 111.475848 300.177677 
L 111.825591 300.506193 
L 112.024974 301.668822 
L 112.005832 302.162038 
L 111.830518 302.436349 
L 110.876875 303.571813 
L 110.508748 303.87689 
L 110.320925 303.994777 
L 109.713487 304.177798 
L 109.031691 304.308067 
L 108.396644 304.378572 
L 107.808285 304.369853 
L 107.091173 304.28027 
L 106.720014 304.174639 
L 106.521578 304.010066 
L 106.290985 303.72015 
L 106.196158 303.448556 
L 106.119651 303.082767 
L 106.136519 302.482151 
L 106.530296 301.848558 
L 106.670168 301.692766 
L 106.942267 301.497868 
L 107.113096 301.330514 
L 107.244123 301.139091 
L 107.325051 300.869139 
L 107.322208 300.608285 
L 107.185748 300.10692 
L 107.093764 299.963383 
L 106.779399 299.728874 
L 106.509448 299.575229 
L 106.218332 299.490321 
L 105.985844 299.476169 
L 105.712924 299.540862 
L 104.932903 299.863364 
L 104.918358 299.869377 
L 104.301759 300.08266 
L 103.840826 300.166558 
L 103.482997 300.198904 
L 102.8724 300.054357 
L 102.43977 300.035151 
L 101.04282 300.271683 
L 100.490408 300.565136 
L 100.363361 300.673609 
L 99.691925 301.102259 
L 99.517306 301.17826 
L 99.273011 301.224042 
L 99.233456 301.231454 
L 98.962746 301.259315 
L 98.152323 301.264495 
L 96.726755 301.180787 
L 96.517958 301.129741 
L 96.251418 300.975275 
L 96.05614 300.813797 
L 96.02948 300.746325 
L 96.024552 300.475173 
L 95.83515 300.199536 
L 95.778355 300.129852 
L 95.042164 299.656158 
L 94.947716 299.521593 
L 94.672331 298.948017 
L 94.516854 298.74598 
L 94.075759 298.370524 
L 93.773461 298.178785 
L 93.394657 298.039545 
L 92.816596 297.932651 
L 92.463378 297.958932 
L 92.038393 298.12458 
L 90.967242 299.199016 
L 90.629364 299.589384 
L 90.586606 299.638785 
L 90.311158 299.866471 
L 90.017073 300.165484 
L 89.917192 300.278253 
L 89.80954 300.476121 
L 89.760894 300.7498 
L 89.749396 301.013244 
L 89.813583 301.273782 
L 89.932165 301.551315 
L 90.052199 301.722775 
L 90.616046 302.305764 
L 91.400125 302.880098 
L 91.691745 303.271916 
L 91.849875 303.638653 
L 92.100621 304.892636 
L 92.050649 305.223426 
L 91.910714 305.533115 
L 91.64051 305.688907 
L 91.131879 305.880331 
L 90.600884 306.024183 
L 90.284308 306.161844 
L 90.133823 306.316751 
L 90.148859 306.531108 
L 90.075385 306.665294 
L 89.902472 306.778316 
L 89.529227 307.577999 
L 89.405592 307.690389 
L 89.270964 307.761968 
L 89.018512 307.8 
L 88.548482 307.706436 
L 87.902064 307.161037 
L 87.804583 306.984649 
L 87.514984 306.77263 
L 87.011533 306.532814 
L 86.834703 306.507417 
L 86.581304 306.390731 
L 86.459311 306.282889 
L 86.206417 306.161844 
L 85.726026 306.005609 
L 85.066594 305.89284 
L 84.695308 305.925755 
L 84.252507 306.063794 
L 84.167093 305.787273 
L 83.783361 305.413333 
L 83.227853 305.473035 
L 82.387232 305.886459 
L 81.669109 305.952668 
L 80.766828 305.32634 
L 80.281636 304.468977 
L 80.737325 304.108431 
L 81.345648 304.172554 
L 82.219373 304.571259 
L 82.994228 304.642142 
L 83.479168 304.603352 
L 84.356621 304.049551 
L 83.919 303.366617 
L 82.385905 302.989266 
L 81.767538 302.473686 
L 81.062177 301.016403 
L 80.157199 300.213674 
L 80.024383 300.095864 
L 79.838898 299.601321 
L 79.97978 299.330233 
" clip-path="url(#peb5f05e093)" style="fill: #00a8af"/>
   </g>
   <g id="PathCollection_1">
    <defs>
     <path id="m1bc2da9566" d="M 0 1.581139 
C 0.419323 1.581139 0.821528 1.41454 1.118034 1.118034 
C 1.41454 0.821528 1.581139 0.419323 1.581139 0 
C 1.581139 -0.419323 1.41454 -0.821528 1.118034 -1.118034 
C 0.821528 -1.41454 0.419323 -1.581139 0 -1.581139 
C -0.419323 -1.581139 -0.821528 -1.41454 -1.118034 -1.118034 
C -1.41454 -0.821528 -1.581139 -0.419323 -1.581139 0 
C -1.581139 0.419323 -1.41454 0.821528 -1.118034 1.118034 
C -0.821528 1.41454 -0.419323 1.581139 0 1.581139 
z
" style="stroke: #000000"/>
    </defs>
    <g clip-path="url(#peb5f05e093)">
     <use xlink:href="#m1bc2da9566" x="202.100389" y="181.644839" style="stroke: #000000"/>
    </g>
   </g>
   <g id="text_1">
    <!-- Indianapolis -->
    <g transform="translate(205.100389 178.644839) scale(0.1 -0.1)">
     <defs>
      <path id="DejaVuSans-49" d="M 628 4666 
L 1259 4666 
L 1259 0 
L 628 0 
L 628 4666 
z
" transform="scale(0.015625)"/>
      <path id="DejaVuSans-6e" d="M 3513 2113 
L 3513 0 
L 2938 0 
L 2938 2094 
Q 2938 2591 2744 2837 
Q 2550 3084 2163 3084 
Q 1697 3084 1428 2787 
Q 1159 2491 1159 1978 
L 1159 0 
L 581 0 
L 581 3500 
L 1159 3500 
L 1159 2956 
Q 1366 3272 1645 3428 
Q 1925 3584 2291 3584 
Q 2894 3584 3203 3211 
Q 3513 2838 3513 2113 
z
" transform="scale(0.015625)"/>
      <path id="DejaVuSans-64" d="M 2906 2969 
L 2906 4863 
L 3481 4863 
L 3481 0 
L 2906 0 
L 2906 525 
Q 2725 213 2448 61 
Q 2172 -91 1784 -91 
Q 1150 -91 751 415 
Q 353 922 353 1747 
Q 353 2572 751 3078 
Q 1150 3584 1784 3584 
Q 2172 3584 2448 3432 
Q 2725 3281 2906 2969 
z
M 947 1747 
Q 947 1113 1208 752 
Q 1469 391 1925 391 
Q 2381 391 2643 752 
Q 2906 1113 2906 1747 
Q 2906 2381 2643 2742 
Q 2381 3103 1925 3103 
Q 1469 3103 1208 2742 
Q 947 2381 947 1747 
z
" transform="scale(0.015625)"/>
      <path id="DejaVuSans-69" d="M 603 3500 
L 1178 3500 
L 1178 0 
L 603 0 
L 603 3500 
z
M 603 4863 
L 1178 4863 
L 1178 4134 
L 603 4134 
L 603 4863 
z
" transform="scale(0.015625)"/>
      <path id="DejaVuSans-61" d="M 2194 1759 
Q 1497 1759 1228 1600 
Q 959 1441 959 1056 
Q 959 750 1161 570 
Q 1363 391 1709 391 
Q 2188 391 2477 730 
Q 2766 1069 2766 1631 
L 2766 1759 
L 2194 1759 
z
M 3341 1997 
L 3341 0 
L 2766 0 
L 2766 531 
Q 2569 213 2275 61 
Q 1981 -91 1556 -91 
Q 1019 -91 701 211 
Q 384 513 384 1019 
Q 384 1609 779 1909 
Q 1175 2209 1959 2209 
L 2766 2209 
L 2766 2266 
Q 2766 2663 2505 2880 
Q 2244 3097 1772 3097 
Q 1472 3097 1187 3025 
Q 903 2953 641 2809 
L 641 3341 
Q 956 3463 1253 3523 
Q 1550 3584 1831 3584 
Q 2591 3584 2966 3190 
Q 3341 2797 3341 1997 
z
" transform="scale(0.015625)"/>
      <path id="DejaVuSans-70" d="M 1159 525 
L 1159 -1331 
L 581 -1331 
L 581 3500 
L 1159 3500 
L 1159 2969 
Q 1341 3281 1617 3432 
Q 1894 3584 2278 3584 
Q 2916 3584 3314 3078 
Q 3713 2572 3713 1747 
Q 3713 922 3314 415 
Q 2916 -91 2278 -91 
Q 1894 -91 1617 61 
Q 1341 213 1159 525 
z
M 3116 1747 
Q 3116 2381 2855 2742 
Q 2594 3103 2138 3103 
Q 1681 3103 1420 2742 
Q 1159 2381 1159 1747 
Q 1159 1113 1420 752 
Q 1681 391 2138 391 
Q 2594 391 2855 752 
Q 3116 1113 3116 1747 
z
" transform="scale(0.015625)"/>
      <path id="DejaVuSans-6f" d="M 1959 3097 
Q 1497 3097 1228 2736 
Q 959 2375 959 1747 
Q 959 1119 1226 758 
Q 1494 397 1959 397 
Q 2419 397 2687 759 
Q 2956 1122 2956 1747 
Q 2956 2369 2687 2733 
Q 2419 3097 1959 3097 
z
M 1959 3584 
Q 2709 3584 3137 3096 
Q 3566 2609 3566 1747 
Q 3566 888 3137 398 
Q 2709 -91 1959 -91 
Q 1206 -91 779 398 
Q 353 888 353 1747 
Q 353 2609 779 3096 
Q 1206 3584 1959 3584 
z
" transform="scale(0.015625)"/>
      <path id="DejaVuSans-6c" d="M 603 4863 
L 1178 4863 
L 1178 0 
L 603 0 
L 603 4863 
z
" transform="scale(0.015625)"/>
      <path id="DejaVuSans-73" d="M 2834 3397 
L 2834 2853 
Q 2591 2978 2328 3040 
Q 2066 3103 1784 3103 
Q 1356 3103 1142 2972 
Q 928 2841 928 2578 
Q 928 2378 1081 2264 
Q 1234 2150 1697 2047 
L 1894 2003 
Q 2506 1872 2764 1633 
Q 3022 1394 3022 966 
Q 3022 478 2636 193 
Q 2250 -91 1575 -91 
Q 1294 -91 989 -36 
Q 684 19 347 128 
L 347 722 
Q 666 556 975 473 
Q 1284 391 1588 391 
Q 1994 391 2212 530 
Q 2431 669 2431 922 
Q 2431 1156 2273 1281 
Q 2116 1406 1581 1522 
L 1381 1569 
Q 847 1681 609 1914 
Q 372 2147 372 2553 
Q 372 3047 722 3315 
Q 1072 3584 1716 3584 
Q 2034 3584 2315 3537 
Q 2597 3491 2834 3397 
z
" transform="scale(0.015625)"/>
     </defs>
     <use xlink:href="#DejaVuSans-49"/>
     <use xlink:href="#DejaVuSans-6e" x="29.492188"/>
     <use xlink:href="#DejaVuSans-64" x="92.871094"/>
     <use xlink:href="#DejaVuSans-69" x="156.347656"/>
     <use xlink:href="#DejaVuSans-61" x="184.130859"/>
     <use xlink:href="#DejaVuSans-6e" x="245.410156"/>
     <use xlink:href="#DejaVuSans-61" x="308.789062"/>
     <use xlink:href="#DejaVuSans-70" x="370.068359"/>
     <use xlink:href="#DejaVuSans-6f" x="433.544922"/>
     <use xlink:href="#DejaVuSans-6c" x="494.726562"/>
     <use xlink:href="#DejaVuSans-69" x="522.509766"/>
     <use xlink:href="#DejaVuSans-73" x="550.292969"/>
    </g>
   </g>
   <g id="text_2">
    <!-- Indiana -->
    <g transform="translate(162.295312 37.2) scale(0.12 -0.12)">
     <use xlink:href="#DejaVuSans-49"/>
     <use xlink:href="#DejaVuSans-6e" x="29.492188"/>
     <use xlink:href="#DejaVuSans-64" x="92.871094"/>
     <use xlink:href="#DejaVuSans-69" x="156.347656"/>
     <use xlink:href="#DejaVuSans-61" x="184.130859"/>
     <use xlink:href="#DejaVuSans-6e" x="245.410156"/>
     <use xlink:href="#DejaVuSans-61" x="308.789062"/>
    </g>
   </g>
  </g>
 </g>
 <defs>
  <clipPath id="peb5f05e093">
   <rect x="69.372787" y="43.2" width="230.254425" height="277.2"/>
  </clipPath>
 </defs>
</svg>
