<?xml version="1.0" encoding="utf-8" standalone="no"?>
<!DOCTYPE svg PUBLIC "-//W3C//DTD SVG 1.1//EN"
  "http://www.w3.org/Graphics/SVG/1.1/DTD/svg11.dtd">
<svg xmlns:xlink="http://www.w3.org/1999/xlink" width="360pt" height="360pt" viewBox="0 0 360 360" xmlns="http://www.w3.org/2000/svg" version="1.1">
 <metadata>
  <rdf:RDF xmlns:dc="http://purl.org/dc/elements/1.1/" xmlns:cc="http://creativecommons.org/ns#" xmlns:rdf="http://www.w3.org/1999/02/22-rdf-syntax-ns#">
   <cc:Work>
    <dc:type rdf:resource="http://purl.org/dc/dcmitype/StillImage"/>
    <dc:date>2023-06-19T15:20:29.041139</dc:date>
    <dc:format>image/svg+xml</dc:format>
    <dc:creator>
     <cc:Agent>
      <dc:title>Matplotlib v3.7.1, https://matplotlib.org/</dc:title>
     </cc:Agent>
    </dc:creator>
   </cc:Work>
  </rdf:RDF>
 </metadata>
 <defs>
  <style type="text/css">*{stroke-linejoin: round; stroke-linecap: butt}</style>
 </defs>
 <g id="figure_1">
  <g id="patch_1">
   <path d="M 0 360 
L 360 360 
L 360 0 
L 0 0 
z
" style="fill: #ffffff"/>
  </g>
  <g id="axes_1">
   <g id="PatchCollection_1">
    <path d="M 57.681818 150.685265 
L 57.830808 150.531865 
L 57.970199 150.350836 
L 58.041572 150.165984 
L 58.109629 149.886813 
L 57.974179 149.731501 
L 57.936873 149.465636 
L 57.976911 149.366595 
L 58.048362 149.365737 
L 58.200748 149.262989 
L 58.377561 149.039113 
L 58.470632 148.852622 
L 58.623251 148.815082 
L 59.053286 148.891645 
L 59.083529 148.864875 
L 59.130708 148.706948 
L 59.415264 148.503443 
L 59.524139 148.185795 
L 59.591883 147.907443 
L 59.585795 147.878878 
L 59.537329 147.842313 
L 59.400396 147.822724 
L 59.386973 147.642515 
L 59.426971 147.611296 
L 59.580878 147.629988 
L 59.789262 147.525562 
L 59.836519 147.488959 
L 60.092159 147.150784 
L 60.096998 147.108874 
L 59.91878 146.916177 
L 59.949062 146.765392 
L 60.020552 146.743071 
L 60.349088 146.779674 
L 60.681291 146.812688 
L 60.769796 146.693121 
L 60.847374 146.688673 
L 61.097122 146.595915 
L 61.018334 146.526297 
L 60.998588 146.428974 
L 61.035153 146.375941 
L 61.149296 146.370205 
L 61.357874 146.280139 
L 61.403961 146.228395 
L 61.316744 145.994607 
L 61.165217 145.764449 
L 61.164046 145.742167 
L 61.195655 145.486995 
L 61.286657 145.353184 
L 61.323066 145.323761 
L 61.420077 145.317907 
L 61.65644 145.167239 
L 61.633534 144.869259 
L 61.557126 144.761321 
L 61.568053 144.730063 
L 61.791304 144.691781 
L 62.051003 144.694552 
L 62.104972 144.645227 
L 62.096933 144.570966 
L 62.006283 144.407264 
L 61.728399 144.292107 
L 61.706663 144.106552 
L 61.67584 143.984203 
L 61.656987 143.909368 
L 61.563643 143.598861 
L 61.50905 143.520346 
L 61.50667 143.44628 
L 61.529732 143.371356 
L 62.13701 142.941516 
L 62.353276 142.775707 
L 62.552528 142.623205 
L 62.714045 142.594757 
L 62.763877 142.565333 
L 62.818627 142.433318 
L 62.943969 142.194302 
L 63.121485 142.009644 
L 63.011284 141.666202 
L 62.937296 141.562712 
L 62.89359 141.543045 
L 62.71623 141.546479 
L 62.512178 141.483027 
L 62.343442 141.297394 
L 62.322877 141.190393 
L 62.480882 141.148521 
L 62.655979 140.973736 
L 62.657305 140.861311 
L 62.630653 140.759616 
L 62.74382 140.615153 
L 62.847192 140.560794 
L 63.027049 140.539448 
L 63.218575 140.49742 
L 63.26232 140.471509 
L 63.354336 140.353971 
L 63.418646 140.226365 
L 63.458567 140.046157 
L 63.35141 139.857129 
L 63.16523 139.675203 
L 63.008279 139.652101 
L 62.704445 139.461044 
L 62.672876 139.418197 
L 62.622887 139.315254 
L 62.629482 139.255743 
L 62.711977 139.180038 
L 62.776599 138.993586 
L 62.776638 138.969509 
L 62.680641 138.866878 
L 62.592137 138.871288 
L 62.518812 138.887911 
L 62.457663 138.854391 
L 62.414269 138.783329 
L 62.733283 138.477037 
L 62.785574 138.474383 
L 62.929062 138.523513 
L 63.065292 138.527182 
L 63.509492 138.443009 
L 63.569042 138.416239 
L 63.595733 138.317198 
L 63.651653 138.259249 
L 64.034743 137.990575 
L 64.18069 137.945035 
L 64.306032 138.002087 
L 64.374167 138.010984 
L 64.573692 137.967239 
L 64.66126 137.926187 
L 64.764632 137.788786 
L 64.881389 137.496152 
L 64.921222 137.171238 
L 64.925134 137.139324 
L 64.908042 137.036733 
L 64.876394 136.985885 
L 64.591564 136.927936 
L 64.583018 136.857499 
L 64.674293 136.720099 
L 65.011414 136.504145 
L 65.157478 136.348911 
L 65.500842 135.979596 
L 65.608 135.709322 
L 65.489916 135.665577 
L 65.443634 135.620076 
L 65.410738 135.559278 
L 65.3691 135.397176 
L 65.341003 135.202685 
L 65.070573 134.874422 
L 64.868316 134.799498 
L 64.73915 134.830755 
L 64.695288 134.824512 
L 64.49545 134.668458 
L 64.439335 134.56052 
L 64.406283 134.196552 
L 64.409873 134.022587 
L 64.503372 133.321419 
L 64.493616 133.284854 
L 64.41557 133.22511 
L 64.350948 133.224212 
L 64.210738 133.180546 
L 64.154583 133.018209 
L 64.156808 132.668484 
L 64.273721 132.421351 
L 64.27977 132.338388 
L 64.219986 132.248283 
L 64.112517 131.943239 
L 64.0868 131.798737 
L 64.04286 131.761275 
L 63.708549 131.676634 
L 63.27188 131.697355 
L 63.103886 131.809936 
L 62.647354 131.896217 
L 62.381412 131.930011 
L 62.315541 131.908548 
L 62.271718 131.802405 
L 62.085148 131.681004 
L 61.738779 131.541731 
L 61.569146 131.617513 
L 61.381288 131.608538 
L 61.253214 131.570139 
L 60.989691 131.575486 
L 60.935995 131.60046 
L 60.896816 131.653415 
L 60.831335 131.678858 
L 60.774947 131.675229 
L 60.460225 131.388994 
L 60.355292 131.09995 
L 60.587129 130.893908 
L 60.823882 130.858241 
L 61.066723 130.775277 
L 61.103131 130.625585 
L 61.081239 130.366003 
L 61.056811 130.312463 
L 60.988599 130.278981 
L 60.910357 130.314219 
L 60.788254 130.307078 
L 60.629586 130.269616 
L 60.457455 130.175063 
L 60.136373 129.954738 
L 59.898332 129.978855 
L 59.807954 129.932495 
L 59.765146 129.72017 
L 59.873786 129.620271 
L 59.896966 129.633656 
L 59.899424 129.709439 
L 59.976378 129.7014 
L 60.105778 129.545308 
L 60.057585 129.065518 
L 60.04701 128.960078 
L 60.032025 128.908841 
L 59.995694 128.879807 
L 59.970602 128.830482 
L 59.998153 128.788103 
L 60.26312 128.750407 
L 60.337654 128.788766 
L 60.374297 128.846755 
L 60.436616 128.892256 
L 60.624708 128.920782 
L 60.654639 128.920782 
L 60.977633 128.920821 
L 61.061884 128.996643 
L 61.532113 128.891436 
L 61.947514 128.716691 
L 62.118747 128.327825 
L 62.135917 128.231516 
L 62.008975 128.071756 
L 61.8418 127.602463 
L 61.77109 127.294727 
L 61.888472 127.208213 
L 62.185672 126.87558 
L 62.178375 126.839015 
L 62.138025 126.831835 
L 62.094124 126.695332 
L 62.071178 126.288555 
L 62.066417 126.060192 
L 62.100679 126.052192 
L 62.267074 125.910421 
L 62.301414 125.806619 
L 62.302429 125.754328 
L 62.291698 125.376077 
L 62.195233 125.020108 
L 62.140249 124.959427 
L 61.995902 124.904093 
L 61.957972 124.911195 
L 61.957972 124.955798 
L 61.917583 124.987017 
L 61.685122 125.008362 
L 61.064967 124.655047 
L 60.886319 124.55066 
L 60.685662 124.316912 
L 60.46046 124.143844 
L 60.262222 124.065369 
L 60.371136 123.888711 
L 60.416402 123.741516 
L 60.393145 123.699605 
L 60.199707 123.576487 
L 59.935325 123.558692 
L 59.703996 123.579258 
L 59.636263 123.559225 
L 59.508061 123.521308 
L 59.455419 123.482949 
L 59.12942 122.878246 
L 59.119586 122.829155 
L 59.22967 122.588265 
L 59.70224 122.283963 
L 59.832031 122.099306 
L 59.811193 122.039561 
L 59.763312 121.762107 
L 59.972749 121.639847 
L 59.814627 121.308034 
L 59.766824 121.260738 
L 59.603785 121.135903 
L 59.556021 121.13321 
L 59.437156 121.174302 
L 59.293785 121.105621 
L 59.263113 121.069056 
L 59.272989 120.896183 
L 59.273025 120.895559 
L 59.574088 120.893335 
L 64.957445 120.898174 
L 68.945647 120.900398 
L 69.68697 120.897198 
L 74.496491 120.898135 
L 74.888596 120.901218 
L 74.8996 120.90032 
L 80.570497 120.906524 
L 88.063348 120.91472 
L 88.071398 120.91472 
L 89.106475 120.91472 
L 89.619395 120.914759 
L 92.72985 120.917647 
L 92.759352 120.917529 
L 101.580099 120.918661 
L 102.671615 120.903793 
L 102.67419 120.902701 
L 103.129668 120.90032 
L 103.92414 120.891423 
L 103.92414 120.888106 
L 103.934792 120.888256 
L 104.720719 120.899345 
L 104.724387 120.90114 
L 106.533031 120.904027 
L 106.534553 120.904027 
L 106.535525 120.904021 
L 107.02402 120.900828 
L 107.04478 120.90114 
L 111.874594 120.895286 
L 111.882672 120.89755 
L 112.113611 120.866721 
L 113.280636 120.878858 
L 114.627519 120.883189 
L 115.116557 120.878858 
L 115.139854 120.883306 
L 115.622101 120.895872 
L 116.882665 120.883931 
L 117.185446 120.887365 
L 119.549662 120.879833 
L 119.580295 120.883384 
L 120.341402 120.881745 
L 121.112304 120.879365 
L 121.884376 120.892984 
L 122.66878 120.893569 
L 123.444637 120.895169 
L 124.219325 120.894272 
L 124.986909 120.895833 
L 124.98886 120.895833 
L 124.999445 120.895833 
L 125.003767 120.895833 
L 126.066445 120.893803 
L 126.575931 120.891657 
L 126.634856 120.891384 
L 127.123933 120.892086 
L 127.214661 120.889394 
L 127.343902 120.889432 
L 136.656345 120.892164 
L 138.617296 120.900515 
L 138.80566 120.898681 
L 142.334053 120.900125 
L 143.246101 120.888457 
L 143.410004 120.890636 
L 143.410506 120.890643 
L 145.448996 120.895091 
L 145.961408 120.898603 
L 151.014927 120.900416 
L 156.40345 120.902349 
L 156.474159 120.901686 
L 157.009908 120.901608 
L 157.066296 120.901608 
L 161.832346 120.928807 
L 168.660105 120.932124 
L 168.718952 120.931266 
L 169.725243 120.930995 
L 171.765409 120.930446 
L 172.055975 120.930407 
L 172.206409 120.930251 
L 172.423807 120.929939 
L 174.406648 120.930614 
L 175.632054 120.931031 
L 177.208705 120.932124 
L 177.914907 120.932085 
L 178.947185 120.933997 
L 179.091415 120.934036 
L 180.304136 120.934622 
L 180.306285 120.934631 
L 180.660964 120.936143 
L 180.904936 120.933607 
L 181.264144 120.936807 
L 181.429641 120.933958 
L 182.992673 120.933763 
L 184.142841 120.93349 
L 189.107948 120.938524 
L 190.783562 120.93029 
L 193.112774 120.930233 
L 197.794807 120.930119 
L 198.761137 120.930095 
L 198.764312 120.930089 
L 199.407281 120.928846 
L 204.776629 120.931031 
L 207.896918 120.93029 
L 209.388733 120.910115 
L 211.136032 120.9107 
L 211.702882 120.910935 
L 211.849336 120.910974 
L 212.491383 120.911247 
L 213.243047 120.911442 
L 213.403978 120.911481 
L 217.151485 120.901686 
L 217.152772 120.901685 
L 220.611119 120.89993 
L 221.218209 120.896997 
L 222.783654 120.889433 
L 222.889094 120.894818 
L 223.584954 120.894545 
L 224.341613 120.895676 
L 227.846826 120.896379 
L 227.911565 120.895208 
L 230.980226 120.892828 
L 231.757762 120.885569 
L 234.683599 120.884711 
L 235.226644 120.886701 
L 235.6175 120.888145 
L 235.623433 120.888152 
L 240.693433 120.894467 
L 241.007257 120.891774 
L 244.554336 120.887833 
L 245.572533 120.886701 
L 246.26293 120.888106 
L 246.34999 120.885452 
L 247.350348 120.882057 
L 247.412863 120.885648 
L 248.047925 120.888535 
L 248.944208 120.892906 
L 249.017884 120.891501 
L 249.143851 120.889082 
L 249.259788 120.886857 
L 249.265313 120.886876 
L 250.415263 120.890721 
L 251.581157 120.893374 
L 252.067814 120.892594 
L 252.341171 120.895676 
L 252.593729 120.89275 
L 252.794776 120.891033 
L 252.956566 120.895325 
L 253.000701 120.896262 
L 253.010496 120.894701 
L 253.347382 120.885023 
L 253.535708 120.886974 
L 253.667528 120.886584 
L 253.687508 120.887521 
L 253.750023 120.89193 
L 253.921647 120.892711 
L 253.924121 120.89271 
L 254.695163 120.892477 
L 256.258117 120.89236 
L 256.640583 120.893296 
L 256.9299 120.89154 
L 258.598685 120.886467 
L 259.612467 120.889667 
L 259.755291 120.88834 
L 260.359018 120.890447 
L 260.520808 120.896301 
L 262.256049 120.878779 
L 263.050911 120.894584 
L 263.259373 120.876516 
L 263.348462 120.881121 
L 267.545165 120.874643 
L 268.133087 120.89435 
L 269.265109 120.89193 
L 269.2431 121.021565 
L 269.26866 121.264289 
L 269.359701 121.506622 
L 269.330317 121.649291 
L 269.16002 122.033122 
L 268.99663 122.258715 
L 268.804753 122.372585 
L 268.697908 122.473615 
L 268.660992 122.560793 
L 268.653968 122.662878 
L 268.696542 122.827399 
L 268.834138 123.038709 
L 269.677232 123.838917 
L 269.739449 123.920183 
L 269.833364 124.042852 
L 269.908288 124.19512 
L 269.942043 124.320073 
L 269.935487 124.484555 
L 269.979154 124.697387 
L 270.032226 124.846026 
L 270.046976 124.997787 
L 269.99691 125.212375 
L 269.928697 125.364761 
L 269.767532 125.6396 
L 269.719104 125.79222 
L 269.668569 125.843613 
L 269.434704 125.982614 
L 269.371096 126.064211 
L 269.379681 126.147408 
L 269.69772 126.668367 
L 269.801365 126.772637 
L 269.883977 126.801865 
L 270.423784 126.860439 
L 270.693004 126.925842 
L 271.085577 127.119357 
L 271.719664 127.358998 
L 272.401124 127.556806 
L 272.577899 127.624199 
L 272.721972 127.689758 
L 273.169177 127.963622 
L 273.575954 128.185547 
L 274.418269 129.035275 
L 274.643705 129.390269 
L 274.884283 129.703507 
L 274.961783 129.834391 
L 274.967636 129.959226 
L 274.920496 130.108684 
L 274.925686 130.195862 
L 274.962797 130.239373 
L 275.031517 130.268328 
L 275.349126 130.280815 
L 275.429046 130.315078 
L 275.472205 130.369515 
L 275.500536 130.459775 
L 275.500848 130.51433 
L 275.431621 130.725133 
L 275.319312 130.935897 
L 275.16962 131.086994 
L 274.956593 131.248121 
L 274.667002 131.517575 
L 274.347871 131.766075 
L 273.548872 132.363636 
L 273.321836 132.50685 
L 273.112438 132.606047 
L 272.993222 132.727448 
L 272.925868 132.872575 
L 272.905108 133.093056 
L 272.524828 133.619126 
L 272.456771 133.657486 
L 272.35016 133.791297 
L 272.244525 134.04323 
L 272.169327 134.321231 
L 272.055497 134.477635 
L 271.665265 134.846794 
L 271.499456 134.939279 
L 271.11223 135.063801 
L 270.921758 135.169905 
L 270.853467 135.279912 
L 270.817215 135.395849 
L 270.804766 135.547766 
L 270.825176 135.791622 
L 270.924099 136.375486 
L 270.844921 137.293466 
L 270.843282 137.57693 
L 270.784865 137.67078 
L 270.757705 137.793742 
L 270.818698 137.919436 
L 270.811166 138.003804 
L 270.94365 138.914252 
L 271.193749 139.666891 
L 271.614926 140.757626 
L 271.641358 140.886603 
L 271.644076 140.899866 
L 271.651139 141.274644 
L 271.69184 141.370328 
L 271.871854 141.57559 
L 271.985216 141.745692 
L 272.041838 141.855347 
L 272.085544 142.055691 
L 272.081252 142.12207 
L 271.94272 142.510584 
L 271.911891 142.690051 
L 271.915638 142.75682 
L 272.082149 143.141822 
L 272.129055 143.289563 
L 272.149152 143.434534 
L 272.146108 143.521595 
L 272.068452 143.743207 
L 272.056199 143.845799 
L 272.056394 143.942889 
L 272.080471 144.015862 
L 272.113797 144.094532 
L 272.165737 144.145028 
L 272.375486 144.180071 
L 273.178933 144.48972 
L 273.253038 144.535182 
L 273.383922 144.67266 
L 273.700282 144.874722 
L 273.836317 144.987616 
L 273.927124 145.271704 
L 273.904412 145.71567 
L 273.949835 145.893225 
L 274.040642 146.070819 
L 274.176911 146.230619 
L 274.193886 146.283886 
L 274.049032 146.865096 
L 274.090162 147.027159 
L 274.243289 147.08866 
L 274.530733 147.059782 
L 274.690923 147.149497 
L 274.665597 147.437058 
L 274.713088 147.974914 
L 274.815173 148.406509 
L 274.933569 148.708314 
L 274.98465 148.892816 
L 275.001118 149.185567 
L 275.046658 149.414789 
L 275.292308 149.636479 
L 275.409105 149.718428 
L 275.414256 149.79105 
L 275.363409 149.869564 
L 275.297538 149.89692 
L 275.204975 149.904412 
L 275.193619 150.048563 
L 275.236662 150.145068 
L 275.412578 150.161965 
L 275.493785 150.210158 
L 275.563792 150.284497 
L 275.62182 150.388104 
L 275.622171 150.550323 
L 275.663848 150.639725 
L 275.759766 150.687996 
L 275.810614 150.691742 
L 275.943331 150.681518 
L 276.038235 150.625403 
L 276.223829 150.630359 
L 276.378556 150.674767 
L 276.51143 150.786217 
L 276.551585 150.861688 
L 276.561965 150.973528 
L 276.602003 151.087086 
L 276.715404 151.186439 
L 277.087957 151.368364 
L 277.148521 151.381515 
L 277.386953 151.346629 
L 277.755682 151.500145 
L 277.934876 151.597118 
L 278.198673 151.791453 
L 278.518584 152.173568 
L 278.629527 152.25614 
L 278.76603 152.31729 
L 279.124613 152.39596 
L 279.617592 152.647855 
L 279.742544 152.694877 
L 280.040915 152.762348 
L 280.217378 152.779714 
L 280.496939 152.751266 
L 280.740717 152.697726 
L 280.837455 152.701394 
L 281.140079 152.797274 
L 281.652804 153.058534 
L 281.784044 153.097238 
L 282.15351 153.206197 
L 282.945874 153.352222 
L 283.516705 153.504646 
L 283.851796 153.572976 
L 284.289167 153.627959 
L 285.681707 153.857805 
L 286.02476 153.931325 
L 286.394465 153.967343 
L 286.755702 154.026737 
L 287.111046 154.116958 
L 287.763201 154.25631 
L 288.252746 154.339156 
L 288.678995 154.443699 
L 289.108445 154.626327 
L 289.221651 154.700822 
L 289.363383 154.834008 
L 289.43421 155.002237 
L 289.463907 155.157705 
L 289.701792 155.468017 
L 289.778589 155.629689 
L 289.93593 156.0655 
L 289.944671 156.244694 
L 289.97589 156.355207 
L 290.033956 156.439497 
L 290.272466 156.756014 
L 290.362999 156.845299 
L 290.531891 156.947383 
L 290.96895 157.282982 
L 291.062606 157.677076 
L 291.257721 157.989261 
L 291.589418 158.215596 
L 291.655757 158.359942 
L 291.784534 158.855536 
L 291.936724 159.206705 
L 291.928919 159.421332 
L 291.698058 159.60556 
L 291.472349 160.010581 
L 291.18748 160.26029 
L 291.187253 160.261233 
L 291.164066 160.357848 
L 291.171871 160.576377 
L 291.261624 160.775395 
L 291.546493 161.032909 
L 291.773868 161.164874 
L 292.420571 161.54021 
L 293.122988 161.828942 
L 293.743924 161.985502 
L 294.067347 162.104757 
L 294.511899 162.211524 
L 294.619915 162.262723 
L 294.726058 162.326994 
L 294.91372 162.555084 
L 294.97764 162.726005 
L 295.002341 163.019966 
L 295.026458 163.08732 
L 295.125264 163.209072 
L 295.396475 163.327039 
L 296.588709 163.721017 
L 297.005749 163.885967 
L 297.267243 164.01291 
L 297.437462 164.135169 
L 297.649436 164.342499 
L 297.773529 164.418672 
L 297.872375 164.442515 
L 298.046925 164.439159 
L 298.158883 164.471236 
L 298.282118 164.551819 
L 298.294169 164.562386 
L 298.432279 164.683483 
L 298.64632 165.030906 
L 298.730962 165.116718 
L 299.117095 165.426952 
L 299.366999 165.515222 
L 299.46245 165.586361 
L 299.98255 166.302747 
L 300.184807 166.468401 
L 300.341407 166.552027 
L 300.432057 166.628786 
L 300.529303 166.761308 
L 300.552639 166.855354 
L 300.542376 166.909401 
L 300.506279 166.962902 
L 300.391161 167.051172 
L 300.353231 167.112516 
L 300.382381 167.284959 
L 300.376371 167.531429 
L 300.225274 168.00158 
L 300.124477 168.103313 
L 299.975175 168.357276 
L 299.96936 168.590673 
L 300.234171 169.053721 
L 300.308979 169.306006 
L 300.42039 169.51798 
L 300.537888 169.626776 
L 300.765939 169.780137 
L 301.149068 170.110116 
L 301.335209 170.350499 
L 301.379461 170.509479 
L 301.521544 170.649416 
L 302.145095 171.06548 
L 302.534975 171.232695 
L 302.85395 171.430971 
L 303.587389 171.513856 
L 303.973562 171.602595 
L 304.376491 171.881141 
L 304.383266 171.885825 
L 305.137661 172.128275 
L 305.772528 172.468947 
L 306.283458 172.638542 
L 306.815109 172.743085 
L 307.022985 172.756821 
L 307.616526 172.992442 
L 308.033098 173.203284 
L 308.350629 173.331982 
L 308.609275 173.490026 
L 308.689584 173.629378 
L 308.730637 173.770212 
L 308.770011 174.02078 
L 308.924386 174.338506 
L 309.082898 174.446756 
L 309.351768 174.539787 
L 309.467979 174.553679 
L 310.112016 174.56246 
L 310.246139 174.66872 
L 310.427128 174.893376 
L 310.46658 175.008026 
L 310.494872 175.297109 
L 310.481409 175.588221 
L 310.407226 176.029144 
L 310.213945 176.490943 
L 310.323326 177.003746 
L 310.333511 177.458951 
L 310.365081 177.805008 
L 310.405626 177.871269 
L 310.585796 177.974212 
L 310.765614 178.157465 
L 310.868713 178.252681 
L 310.894586 178.299236 
L 310.94075 178.411466 
L 310.964984 178.563071 
L 311.004631 178.667068 
L 311.173211 178.867373 
L 311.275022 179.099561 
L 311.318182 179.321173 
L 311.296641 179.604208 
L 311.085136 179.91093 
L 311.077643 180.176677 
L 310.985002 180.296088 
L 310.780716 180.458151 
L 310.456551 180.958544 
L 310.378739 181.158148 
L 310.347365 181.44368 
L 310.389978 181.596924 
L 310.514813 181.756489 
L 310.660993 181.860447 
L 310.826569 182.060362 
L 310.867894 182.140594 
L 310.858592 182.221944 
L 310.799135 182.741901 
L 310.790472 183.09229 
L 310.656428 183.427693 
L 310.342448 183.983461 
L 310.148269 184.269812 
L 310.04197 184.67136 
L 310.032565 185.012696 
L 309.952763 185.15993 
L 309.704966 185.510436 
L 309.685454 185.566278 
L 309.612715 185.838503 
L 309.604598 185.962206 
L 309.692518 186.370817 
L 309.734545 186.785243 
L 309.722409 186.887679 
L 309.682645 186.976807 
L 309.448662 187.129271 
L 308.320113 187.434744 
L 308.110403 187.520673 
L 307.325385 187.917469 
L 307.325365 187.917479 
L 307.081441 188.040773 
L 306.691561 188.216767 
L 306.509558 188.340978 
L 305.91067 188.526494 
L 304.9683 189.202647 
L 304.659003 189.507691 
L 304.482931 189.817925 
L 304.438532 190.027838 
L 304.387402 190.269578 
L 304.397041 190.439602 
L 304.557075 190.784528 
L 304.573738 190.861247 
L 304.578537 191.060343 
L 304.552587 191.229859 
L 304.50373 191.356763 
L 304.401177 191.480076 
L 304.299366 191.556132 
L 303.897506 191.781178 
L 303.809353 191.851732 
L 303.729589 191.952685 
L 303.643582 192.539085 
L 303.38123 193.224839 
L 303.385991 193.463036 
L 303.534357 195.11067 
L 303.45631 195.422855 
L 303.389971 195.53212 
L 302.574388 195.852109 
L 301.903151 195.969179 
L 301.255328 196.14088 
L 300.950948 196.281835 
L 300.673884 196.41014 
L 300.556814 196.503795 
L 300.307066 196.843297 
L 300.1925 196.90515 
L 300.111912 196.948659 
L 299.897285 197.026705 
L 299.674853 197.23743 
L 299.409496 197.549615 
L 298.777282 198.041306 
L 298.273884 198.189594 
L 297.665084 198.248129 
L 297.278014 198.255364 
L 297.247537 198.255934 
L 296.759709 198.197399 
L 295.983109 197.986674 
L 295.674827 197.939846 
L 295.496135 197.962049 
L 295.077773 198.014029 
L 294.64848 198.275484 
L 294.496289 198.322312 
L 294.070937 198.36914 
L 293.71969 198.458893 
L 293.555793 198.529134 
L 293.286534 198.72425 
L 293.204585 199.075458 
L 293.138246 199.184723 
L 292.646554 199.543736 
L 292.100192 199.789581 
L 291.799714 200.000306 
L 291.409482 200.324198 
L 291.190914 200.437365 
L 290.785073 200.4959 
L 290.387038 200.488095 
L 289.820734 200.651563 
L 289.422386 200.725707 
L 288.548814 200.82307 
L 288.002803 200.905838 
L 287.510916 200.925154 
L 286.670749 200.881097 
L 286.440083 200.861586 
L 286.100621 200.798095 
L 285.281096 200.736516 
L 284.600026 200.736477 
L 284.10529 200.691367 
L 283.748463 200.710176 
L 283.473506 200.758252 
L 283.319365 200.803441 
L 282.939748 200.98045 
L 282.452115 201.259465 
L 282.022509 201.479283 
L 281.644609 201.646223 
L 280.907853 201.863387 
L 280.713049 201.969881 
L 280.491671 202.026699 
L 279.719989 201.919034 
L 279.587037 201.883445 
L 279.06163 201.689266 
L 278.729699 201.535749 
L 278.548359 201.522637 
L 278.350004 201.540276 
L 277.532548 201.84208 
L 277.29318 201.885435 
L 276.676342 201.940887 
L 276.31171 202.080824 
L 276.204747 202.139124 
L 276.044128 202.241599 
L 275.969906 202.312309 
L 275.89463 202.436598 
L 275.796721 202.860038 
L 275.770108 203.347554 
L 275.747864 203.436253 
L 275.221911 204.067725 
L 275.164859 204.218159 
L 274.968495 205.216956 
L 274.953332 205.453386 
L 274.952746 205.462515 
L 274.902897 206.239791 
L 274.840148 206.546591 
L 274.73619 206.692928 
L 274.370348 206.983923 
L 274.169223 207.275036 
L 273.8138 208.04543 
L 273.684244 208.243082 
L 273.456271 208.477845 
L 273.304783 208.714286 
L 273.325777 209.050978 
L 273.377093 209.144555 
L 273.485226 209.239616 
L 273.826015 209.47512 
L 274.130824 209.783286 
L 274.582439 210.10351 
L 274.91277 210.38752 
L 275.189092 210.685422 
L 275.611713 211.222029 
L 276.139813 211.987975 
L 276.588852 212.089357 
L 276.698702 212.095874 
L 277.270664 211.996404 
L 277.464648 211.986219 
L 277.842391 212.127444 
L 277.957354 212.203149 
L 278.164059 212.394674 
L 278.48998 212.904199 
L 278.898162 213.394017 
L 279.09117 213.805633 
L 279.429072 214.136315 
L 279.843458 214.700316 
L 279.857819 214.774382 
L 279.781802 215.17714 
L 279.73591 215.633788 
L 279.745549 215.715737 
L 279.751246 215.729841 
L 279.885525 216.062301 
L 279.923456 216.432045 
L 279.959552 216.573231 
L 280.011531 216.969901 
L 280.014145 217.117018 
L 279.894305 217.718872 
L 279.904842 218.00616 
L 279.869916 218.217744 
L 279.726116 218.656637 
L 279.508874 218.986109 
L 279.394107 219.260754 
L 279.396175 219.382662 
L 279.512386 219.647434 
L 279.605885 219.950682 
L 279.635075 220.100882 
L 279.624695 220.264428 
L 279.303573 220.954786 
L 279.207811 221.399611 
L 279.113062 221.529324 
L 278.970589 221.627116 
L 278.572748 221.767794 
L 278.327995 221.899731 
L 277.819212 222.056643 
L 277.622691 222.172698 
L 277.388553 222.351463 
L 277.300489 222.445209 
L 277.244011 222.505331 
L 276.91926 222.997061 
L 276.68797 223.186246 
L 276.325055 223.347606 
L 276.23499 223.405087 
L 276.018178 223.608359 
L 275.913166 223.752822 
L 275.800116 223.992424 
L 275.558602 224.387611 
L 275.468108 224.468701 
L 275.139923 224.636969 
L 274.735566 224.972256 
L 274.245786 225.314371 
L 274.1318 225.453255 
L 273.981444 225.822492 
L 273.950108 226.058269 
L 273.974224 226.179397 
L 274.16056 226.552536 
L 274.199973 226.793894 
L 274.18214 227.06768 
L 274.009267 227.558357 
L 273.932314 227.710586 
L 273.761353 227.950852 
L 273.538375 228.190493 
L 273.451588 228.401491 
L 273.244336 229.196001 
L 273.266852 229.323724 
L 273.316529 229.415936 
L 273.425403 229.854946 
L 273.431959 230.050842 
L 273.392429 230.294502 
L 273.373168 230.323352 
L 273.257136 230.497149 
L 273.092263 231.118905 
L 273.045903 231.240462 
L 272.983427 231.322488 
L 272.92462 231.381921 
L 272.37334 231.704213 
L 271.739682 231.988964 
L 270.524679 232.594812 
L 270.464134 232.625002 
L 270.037767 232.67144 
L 269.236583 232.580516 
L 268.088757 232.58235 
L 267.884939 232.599052 
L 267.682995 232.649392 
L 267.421384 232.757837 
L 266.983466 232.822342 
L 265.799154 233.056832 
L 264.503781 233.554104 
L 264.152027 233.702118 
L 263.946921 233.824729 
L 263.717309 234.010011 
L 263.156195 234.75984 
L 262.941568 235.077488 
L 262.093596 235.662523 
L 261.946908 235.850497 
L 261.902734 235.960152 
L 261.884081 236.126937 
L 261.909407 236.316551 
L 261.990458 236.455902 
L 262.123136 236.547138 
L 262.367031 236.634784 
L 262.617091 236.692304 
L 262.755077 236.775072 
L 262.859425 236.880474 
L 263.358843 237.493722 
L 263.405007 237.573837 
L 263.548027 237.981082 
L 263.568631 238.208665 
L 263.559773 238.36823 
L 263.520554 238.600574 
L 263.39728 238.972308 
L 263.004318 239.684402 
L 262.93552 239.851577 
L 262.874605 240.088448 
L 262.862859 240.224443 
L 262.894233 240.503849 
L 263.024571 240.857398 
L 263.176917 241.186909 
L 263.226515 241.437282 
L 263.222457 241.838244 
L 263.208135 241.919881 
L 263.097895 242.201979 
L 262.993469 242.288181 
L 262.855483 242.36771 
L 262.605657 242.47319 
L 262.268654 242.543509 
L 261.643698 242.576679 
L 261.53896 242.611644 
L 261.393521 242.733279 
L 261.280276 242.628892 
L 261.150017 242.568328 
L 260.541998 242.421445 
L 259.610399 242.46039 
L 258.853701 242.513344 
L 258.694097 241.884721 
L 258.719149 241.78888 
L 258.724066 241.734209 
L 258.698623 241.716609 
L 258.646527 241.716609 
L 258.497147 241.790129 
L 258.323533 241.809914 
L 258.043386 241.748023 
L 257.985905 241.715907 
L 257.959291 241.669508 
L 257.895449 241.62069 
L 257.703065 241.551932 
L 257.531403 241.546273 
L 257.377613 241.508577 
L 257.288679 241.464988 
L 257.21793 241.362006 
L 257.193267 241.233815 
L 257.212857 241.109605 
L 257.414489 240.851428 
L 257.507208 240.663726 
L 257.502447 240.604255 
L 257.47119 240.571046 
L 257.273538 240.578461 
L 257.112294 240.547672 
L 256.968884 240.449646 
L 256.937041 240.389706 
L 256.939968 240.292773 
L 257.00381 240.217614 
L 257.2303 240.065268 
L 257.310493 239.994909 
L 257.341009 239.931536 
L 257.348774 239.845958 
L 257.317868 239.686861 
L 257.270026 239.62778 
L 257.228466 239.597342 
L 257.133055 239.58263 
L 256.540489 239.615917 
L 256.192949 239.591722 
L 255.757724 239.50513 
L 255.605573 239.454322 
L 255.332294 239.322658 
L 255.113413 239.113845 
L 255.067639 239.041223 
L 255.032167 238.969928 
L 254.997904 238.797641 
L 254.858631 238.480968 
L 254.705153 238.28355 
L 254.555812 238.177993 
L 254.021078 237.981199 
L 253.846488 237.890002 
L 253.68544 237.795683 
L 253.586399 237.704369 
L 253.513543 237.589719 
L 253.474169 237.42231 
L 253.480646 237.317806 
L 253.613442 236.956998 
L 253.643295 236.654803 
L 253.605403 236.45758 
L 253.563571 236.389953 
L 253.492197 236.332394 
L 253.364943 236.285254 
L 252.860725 236.205608 
L 252.226092 236.063251 
L 251.576435 235.995039 
L 251.158068 235.913169 
L 250.885453 235.743223 
L 250.803348 235.645548 
L 250.772637 235.554663 
L 250.773964 235.451447 
L 251.001625 234.986369 
L 251.01497 234.904148 
L 250.976884 234.826765 
L 250.88077 234.72788 
L 250.586575 234.54295 
L 249.975238 234.273768 
L 249.790113 234.137812 
L 249.661766 234.020859 
L 249.308333 233.548172 
L 247.091781 233.63215 
L 246.7227 233.647252 
L 246.536989 233.653027 
L 245.997104 233.66969 
L 245.573391 233.682763 
L 245.274669 233.698138 
L 243.872959 233.76596 
L 241.10657 233.840455 
L 240.957456 233.852486 
L 240.778152 233.866952 
L 239.869694 233.880961 
L 238.788948 233.907458 
L 237.580558 233.935555 
L 236.087729 233.977114 
L 236.024628 233.972276 
L 235.52443 233.995533 
L 235.490831 233.99288 
L 235.113282 233.999201 
L 234.976233 234.009035 
L 231.721978 234.059804 
L 231.082701 234.077755 
L 230.867801 234.081228 
L 230.246006 234.087004 
L 229.509211 234.098749 
L 227.079241 234.140192 
L 225.812902 234.166103 
L 225.803536 234.169654 
L 225.04918 234.186825 
L 225.047982 234.186856 
L 223.920826 234.216677 
L 221.031008 234.264325 
L 220.72413 234.26171 
L 219.940429 234.277866 
L 219.913035 234.2797 
L 219.827418 234.278529 
L 216.093295 234.38674 
L 213.844783 234.437392 
L 213.793077 234.438485 
L 211.94065 234.478132 
L 211.817298 234.475206 
L 210.851718 234.487686 
L 209.773345 234.501624 
L 209.181169 234.513292 
L 206.424029 234.525584 
L 206.426722 234.528628 
L 206.15036 234.529838 
L 205.279481 234.534677 
L 205.059273 234.541896 
L 204.429284 234.535418 
L 204.014937 234.547203 
L 203.478447 234.554188 
L 201.993578 234.558754 
L 201.363276 234.570968 
L 196.377292 234.689091 
L 195.917639 234.704271 
L 195.870382 234.705871 
L 194.415014 234.749538 
L 189.544539 234.829809 
L 187.320494 234.834726 
L 186.234207 234.840852 
L 185.104721 234.847864 
L 182.475305 234.864188 
L 181.557091 234.85451 
L 181.495044 234.8581 
L 179.261478 234.84214 
L 179.12556 234.843896 
L 179.103317 234.846589 
L 178.318679 234.844637 
L 178.096169 234.849086 
L 177.982495 234.85174 
L 177.902927 234.853535 
L 177.830344 234.849047 
L 177.657003 234.85533 
L 177.63476 234.857983 
L 177.61997 234.856344 
L 176.403892 234.880578 
L 174.10703 234.92522 
L 173.987581 234.926079 
L 173.884521 234.925142 
L 173.614012 234.929552 
L 173.291915 234.934 
L 172.775483 234.943834 
L 171.522451 234.952966 
L 171.291746 234.956634 
L 170.944284 234.956829 
L 170.729657 234.957765 
L 170.438389 234.949883 
L 169.657614 234.95398 
L 169.497101 234.955176 
L 167.891662 234.967131 
L 167.765227 234.974623 
L 166.898718 234.986135 
L 166.40211 234.993355 
L 164.658908 235.016573 
L 164.620275 235.019266 
L 164.559399 235.021919 
L 164.048821 235.029802 
L 163.201004 235.043148 
L 163.17642 235.044943 
L 163.145982 235.039597 
L 163.086276 235.044943 
L 163.038278 235.048533 
L 162.101489 235.065625 
L 161.597973 235.070269 
L 160.086764 235.098405 
L 159.359295 235.111243 
L 157.560758 235.138013 
L 157.551393 235.138013 
L 157.210682 235.141642 
L 157.136889 235.138091 
L 151.628579 235.17671 
L 149.478016 235.191787 
L 149.186786 235.198811 
L 148.56589 235.19167 
L 148.017966 235.193504 
L 147.557844 235.193582 
L 147.551991 235.19448 
L 146.709052 235.197953 
L 143.922099 235.210518 
L 142.73724 235.214186 
L 142.325156 235.218752 
L 142.303108 235.218947 
L 141.598077 235.223552 
L 139.857724 235.222303 
L 139.73363 235.221367 
L 139.684461 235.221367 
L 139.54749 235.219572 
L 139.534768 235.219572 
L 137.511537 235.213445 
L 136.027448 235.20486 
L 134.054088 235.181407 
L 132.792704 235.165251 
L 132.724804 235.165251 
L 130.487882 235.134969 
L 129.036222 235.113312 
L 128.693208 235.106209 
L 128.545701 235.097312 
L 125.695335 235.06625 
L 125.513878 235.060826 
L 124.989212 235.053372 
L 123.418999 235.029919 
L 122.975814 235.023285 
L 121.993602 235.029022 
L 118.978675 234.982662 
L 118.556406 234.977706 
L 117.859258 234.971424 
L 117.484402 234.973453 
L 117.36382 234.971736 
L 117.349772 234.969941 
L 117.288935 234.969082 
L 116.953063 234.961863 
L 115.639155 234.94442 
L 115.266132 234.938293 
L 113.775197 234.918361 
L 113.418388 234.913591 
L 113.411285 234.913435 
L 113.367384 234.91246 
L 113.343502 234.912069 
L 113.182415 234.909338 
L 113.130592 234.908479 
L 113.023591 234.906684 
L 108.572496 234.865944 
L 107.705637 234.857008 
L 107.077716 234.841359 
L 107.076544 234.841345 
L 105.457749 234.821341 
L 103.353895 234.800814 
L 101.165752 234.779352 
L 101.115412 234.777557 
L 100.861762 234.773147 
L 100.011955 234.758318 
L 99.267121 234.745285 
L 97.822368 234.724524 
L 96.621587 234.695686 
L 94.842055 234.689989 
L 94.839791 234.68995 
L 92.539651 234.668331 
L 91.790329 234.657678 
L 92.053736 234.510756 
L 92.278001 234.359853 
L 92.398778 234.195488 
L 92.445411 234.081813 
L 92.454464 233.949525 
L 92.413138 233.813451 
L 92.351248 233.727015 
L 92.086905 233.543528 
L 91.838445 233.413542 
L 91.74436 233.347593 
L 91.662295 233.25066 
L 91.617145 233.127308 
L 91.603136 232.703517 
L 91.568678 232.54321 
L 91.50987 232.422121 
L 91.37645 232.228293 
L 91.155657 232.001608 
L 90.973849 231.846257 
L 90.860018 231.762942 
L 90.625723 231.646029 
L 90.281617 231.548393 
L 89.897513 231.521701 
L 89.555553 231.456533 
L 89.246633 231.324482 
L 89.194043 231.302001 
L 88.779461 231.056312 
L 88.700401 230.963788 
L 88.6533 230.856943 
L 88.579273 230.404587 
L 88.505246 230.250445 
L 88.396488 230.089865 
L 88.132575 229.863804 
L 87.699301 229.691127 
L 87.512029 229.627129 
L 87.444324 229.620612 
L 87.203825 229.492148 
L 87.119106 229.355021 
L 86.980261 228.935054 
L 86.988456 228.761908 
L 87.066776 228.535223 
L 87.185679 228.31162 
L 87.36581 228.106749 
L 87.587929 227.929779 
L 87.718774 227.850601 
L 88.042159 227.724713 
L 88.390206 227.617009 
L 88.630432 227.500408 
L 88.778564 227.403865 
L 88.93251 227.269157 
L 89.00962 227.193764 
L 89.074827 227.089416 
L 89.116816 226.938592 
L 89.114506 226.90862 
L 89.102495 226.752764 
L 89.052077 226.64147 
L 88.742624 226.128199 
L 88.680304 225.833925 
L 88.699425 225.678496 
L 88.735756 225.58566 
L 88.943359 225.254393 
L 88.994011 225.059707 
L 88.998576 224.896473 
L 88.837684 224.496213 
L 88.612325 224.161785 
L 88.557459 223.988795 
L 88.553557 223.893032 
L 88.58497 223.765544 
L 88.618023 223.710248 
L 88.729824 223.57355 
L 88.790388 223.533824 
L 88.938129 223.458705 
L 89.474541 223.349089 
L 89.685227 223.253912 
L 89.827935 223.159983 
L 89.978174 222.988554 
L 90.031791 222.89326 
L 90.079985 222.715822 
L 90.068239 222.551183 
L 90.024884 222.455186 
L 89.924527 222.307441 
L 89.891581 222.258939 
L 89.719606 222.107451 
L 89.251719 221.788008 
L 89.160327 221.700635 
L 89.027766 221.528973 
L 88.975631 221.409172 
L 88.898794 221.094333 
L 88.878034 220.814849 
L 88.968724 220.398239 
L 89.285669 219.881611 
L 89.344204 219.549095 
L 89.315132 219.419929 
L 89.267407 219.316752 
L 89.140972 219.14786 
L 88.931378 218.998635 
L 88.718976 218.880005 
L 88.399142 218.793608 
L 88.103776 218.656871 
L 87.972034 218.575 
L 87.82398 218.408801 
L 87.749368 218.238972 
L 87.738129 218.10442 
L 87.781523 217.975488 
L 87.878925 217.792079 
L 88.111503 217.479894 
L 88.143345 217.238107 
L 88.121805 217.078268 
L 88.090274 216.99273 
L 88.038764 216.932634 
L 87.725603 216.707393 
L 87.347859 216.391305 
L 87.255452 216.238647 
L 87.233599 216.113773 
L 87.274183 215.926774 
L 87.401867 215.755697 
L 87.693448 215.53545 
L 87.895119 215.335027 
L 87.958493 215.212495 
L 88.00735 215.021594 
L 87.980775 214.812196 
L 87.895627 214.519483 
L 87.878535 213.870451 
L 87.76927 213.605093 
L 87.371234 213.082184 
L 87.24636 212.851947 
L 87.195591 212.582688 
L 87.191689 212.426595 
L 87.277539 212.23148 
L 87.291332 212.217003 
L 87.472655 212.026686 
L 87.643459 211.910553 
L 87.73212 211.882925 
L 87.821717 211.886671 
L 87.910377 211.923041 
L 88.389737 212.016852 
L 88.64729 211.966122 
L 88.81509 211.794421 
L 88.837885 211.64625 
L 88.838503 211.64223 
L 88.729239 211.423701 
L 88.491198 211.259804 
L 88.233645 211.170051 
L 87.921421 211.123223 
L 86.169244 211.275413 
L 85.97803 211.248097 
L 85.833645 211.18566 
L 85.642432 211.01786 
L 85.641312 211.01598 
L 85.533167 210.834452 
L 85.474593 210.580801 
L 85.576053 210.229593 
L 85.95848 209.76912 
L 86.056038 209.613028 
L 86.122377 209.425717 
L 86.122377 209.339866 
L 86.102865 209.183774 
L 85.880583 208.723491 
L 85.716537 208.3838 
L 85.693123 208.145759 
L 85.592401 207.820118 
L 85.572736 207.756542 
L 85.427765 207.49017 
L 85.392645 207.345824 
L 85.392645 207.136972 
L 85.392645 207.064857 
L 85.474593 206.826816 
L 85.75556 206.721454 
L 86.317532 206.729258 
L 86.379969 206.779988 
L 86.379969 207.018029 
L 86.583708 207.394056 
L 86.931678 207.610752 
L 87.234575 207.490209 
L 87.449202 207.345824 
L 87.605334 207.174122 
L 87.610196 207.152244 
L 87.659966 206.928276 
L 87.535092 206.487315 
L 87.398511 206.27659 
L 87.207298 206.112693 
L 86.988729 206.019037 
L 86.575084 205.937089 
L 86.009249 205.976112 
L 85.685357 205.940991 
L 85.544874 205.898066 
L 85.01412 205.636611 
L 84.717545 205.43373 
L 84.475601 205.207396 
L 84.335118 204.988866 
L 84.331216 204.84448 
L 84.40536 204.74302 
L 84.510722 204.676681 
L 84.94782 204.520589 
L 85.162447 204.399617 
L 85.338051 204.239622 
L 85.423902 204.028897 
L 85.404391 203.841586 
L 85.174154 203.470906 
L 85.106226 203.213961 
L 85.084401 203.131404 
L 85.107815 203.00294 
L 85.346324 202.620826 
L 85.387572 202.419779 
L 85.381016 202.270554 
L 85.287048 201.998641 
L 85.25302 201.713499 
L 85.291106 201.616566 
L 85.349173 201.5393 
L 85.61453 201.311093 
L 85.695386 201.220559 
L 85.744399 201.133147 
L 85.772184 200.991884 
L 85.75595 200.849683 
L 85.668226 200.685786 
L 85.543976 200.544679 
L 85.262698 200.372353 
L 85.111288 200.318032 
L 84.909616 200.2762 
L 84.734168 200.279946 
L 84.322396 200.410751 
L 84.115106 200.410907 
L 83.992105 200.383591 
L 83.681169 200.234991 
L 83.309942 200.138994 
L 82.995571 200.115737 
L 82.461345 200.038939 
L 82.300374 199.972717 
L 82.186271 199.88792 
L 82.005516 199.67938 
L 81.882476 199.481884 
L 81.871744 199.426744 
L 81.894885 199.377341 
L 82.021242 199.246106 
L 82.35887 199.052083 
L 82.726897 198.772756 
L 82.794349 198.688067 
L 82.881429 198.578733 
L 82.924744 198.491282 
L 82.933876 198.406524 
L 82.931105 198.284928 
L 82.883458 198.046028 
L 82.663445 197.450262 
L 82.59976 197.353992 
L 82.446867 197.242464 
L 82.253742 197.182798 
L 82.002199 197.161257 
L 81.876856 197.174603 
L 81.740432 197.228416 
L 81.580164 197.356529 
L 81.535287 197.413698 
L 81.451231 197.894619 
L 81.306377 198.458073 
L 81.216702 198.606595 
L 81.158246 198.647843 
L 81.056786 198.68351 
L 80.767351 198.6759 
L 80.549914 198.613932 
L 80.384261 198.511262 
L 80.161712 198.328946 
L 80.009951 198.165907 
L 79.793646 197.98203 
L 79.503977 197.859225 
L 79.202446 197.765725 
L 79.144145 197.719561 
L 78.97338 197.427395 
L 78.891588 197.118058 
L 78.90466 196.974141 
L 78.991994 196.685721 
L 79.061963 196.575871 
L 79.336451 196.31266 
L 79.429326 196.18006 
L 79.477247 196.061234 
L 79.478261 195.943579 
L 79.451296 195.821905 
L 79.389874 195.70749 
L 79.298013 195.613561 
L 79.184378 195.544334 
L 78.684375 195.3859 
L 78.568515 195.323892 
L 78.376443 195.179429 
L 78.202947 194.96847 
L 78.125017 194.832552 
L 78.057585 194.667133 
L 78.03624 194.530708 
L 78.042288 194.38004 
L 78.109291 194.21544 
L 78.190732 194.121746 
L 78.715398 193.671731 
L 78.831414 193.510722 
L 78.936074 193.208995 
L 78.921674 192.999402 
L 78.823414 192.76737 
L 78.749114 192.675744 
L 78.294651 192.382368 
L 78.158265 192.278099 
L 78.035654 192.154044 
L 77.923931 192.018946 
L 77.894937 191.828552 
L 77.895485 191.818802 
L 77.90762 191.602921 
L 77.956164 191.500368 
L 78.050054 191.380528 
L 78.275725 191.241918 
L 78.542994 191.158252 
L 79.11039 191.255498 
L 79.428429 191.226855 
L 79.681064 191.090196 
L 79.793919 190.959741 
L 79.822874 190.887393 
L 79.816123 190.811844 
L 79.781705 190.73848 
L 79.712439 190.637371 
L 79.535625 190.45408 
L 79.22664 190.28948 
L 78.640903 190.061741 
L 78.524926 189.920048 
L 78.495893 189.805164 
L 78.49203 189.676427 
L 78.562389 189.429762 
L 78.634581 189.346721 
L 78.839882 189.239914 
L 79.067153 189.187506 
L 79.340861 189.074534 
L 79.526533 188.895769 
L 79.589555 188.751267 
L 79.564619 188.370596 
L 79.619096 188.118078 
L 79.78869 187.915743 
L 80.053423 187.68535 
L 80.12663 187.525785 
L 80.113284 187.399818 
L 80.017678 187.228194 
L 79.926637 187.115769 
L 79.696947 186.947891 
L 79.483178 186.85685 
L 78.983331 186.75379 
L 78.810263 186.698338 
L 78.596456 186.583415 
L 78.44649 186.445508 
L 78.378004 186.326487 
L 78.320913 186.153341 
L 78.317128 186.050086 
L 78.434041 185.678547 
L 78.429437 185.520191 
L 78.342922 185.346421 
L 78.197913 185.180495 
L 78.110501 185.111541 
L 77.836832 184.966726 
L 77.547865 184.879744 
L 77.367071 184.789249 
L 77.220481 184.665429 
L 77.102026 184.565374 
L 77.006888 184.448733 
L 76.944451 184.326435 
L 76.918149 184.226926 
L 76.895009 183.943111 
L 76.83741 183.813515 
L 76.706566 183.659257 
L 76.471452 183.460707 
L 76.332841 183.279367 
L 76.323788 183.133693 
L 76.371435 183.036487 
L 76.436565 182.957933 
L 76.623759 182.865682 
L 77.093441 182.750252 
L 77.19537 182.693317 
L 77.308927 182.537693 
L 77.332731 182.432175 
L 77.314 182.290247 
L 77.045521 181.891431 
L 77.002986 181.729212 
L 77.041228 181.613391 
L 77.080485 181.558915 
L 77.361608 181.312484 
L 77.442581 181.175552 
L 77.603825 180.808579 
L 77.614985 180.629423 
L 77.591376 180.553484 
L 77.473058 180.438288 
L 77.133908 180.304127 
L 76.536464 180.223193 
L 76.37483 180.22409 
L 76.08641 180.267718 
L 75.849033 180.350915 
L 75.730051 180.371949 
L 75.455328 180.357471 
L 75.376424 180.329336 
L 75.20718 180.200403 
L 75.170226 180.149244 
L 75.147124 180.054457 
L 75.24956 179.865078 
L 75.434217 179.625241 
L 75.472577 179.535488 
L 75.481669 179.448584 
L 75.43968 179.345329 
L 75.306104 179.201333 
L 75.052883 179.110058 
L 74.603063 179.086449 
L 74.246314 179.186582 
L 74.15219 179.297369 
L 73.98923 179.550239 
L 73.907945 179.625397 
L 73.846795 179.653572 
L 73.679933 179.666216 
L 73.416604 179.587467 
L 73.251693 179.473402 
L 73.200104 179.412526 
L 73.186641 179.334948 
L 73.204124 179.17628 
L 73.324042 178.967507 
L 73.752984 178.720256 
L 73.919066 178.564125 
L 73.992469 178.425475 
L 73.985796 178.294631 
L 73.910832 178.146811 
L 73.839264 178.073799 
L 73.586823 177.920516 
L 73.342265 177.844694 
L 73.01291 177.82409 
L 72.712042 177.908458 
L 72.651751 177.962076 
L 72.45488 177.927189 
L 72.34741 177.892693 
L 72.162011 177.796852 
L 72.053137 177.692504 
L 71.996553 177.604702 
L 71.995602 177.603015 
L 71.892322 177.419811 
L 71.779272 177.091119 
L 71.744269 176.705531 
L 71.754532 176.559351 
L 71.845104 176.27097 
L 71.947462 176.094663 
L 72.039478 175.986843 
L 72.201073 175.69495 
L 72.241735 175.418471 
L 72.213483 175.145192 
L 72.151748 175.01544 
L 72.019108 174.827895 
L 71.913629 174.734903 
L 71.749693 174.629501 
L 71.49733 174.546031 
L 70.898208 174.451478 
L 70.708517 174.381861 
L 70.544581 174.276615 
L 70.398868 174.127742 
L 70.275555 173.861097 
L 70.176085 173.725453 
L 69.928523 173.536581 
L 69.456031 173.313759 
L 69.283744 173.185216 
L 69.074697 172.938785 
L 68.999148 172.734421 
L 68.974368 172.523814 
L 69.09456 172.16164 
L 69.062444 171.84844 
L 69.019518 171.750648 
L 68.927853 171.624526 
L 68.63237 171.339111 
L 68.601815 171.231953 
L 68.669286 171.093694 
L 68.72727 171.052769 
L 68.729771 171.051003 
L 69.179942 170.960938 
L 69.412871 170.937641 
L 69.520692 170.905056 
L 69.687672 170.801138 
L 70.012383 170.477168 
L 70.047348 170.415746 
L 70.045748 170.330831 
L 69.767279 170.073786 
L 69.808214 170.008968 
L 69.856954 169.692608 
L 69.810166 169.50756 
L 69.715495 169.324308 
L 69.533179 169.114519 
L 69.32062 168.946369 
L 68.737654 168.658964 
L 68.736988 168.658452 
L 68.565523 168.526792 
L 68.37072 168.292341 
L 68.26684 168.059256 
L 68.264772 167.599798 
L 68.237261 167.415531 
L 68.20772 167.316646 
L 68.136659 167.188104 
L 67.999415 167.025495 
L 67.653592 166.731455 
L 67.181412 166.537003 
L 66.920425 166.408266 
L 66.72371 166.281363 
L 66.49359 166.047809 
L 66.341751 165.733439 
L 66.326845 165.607433 
L 66.3366 165.450482 
L 66.368794 165.343442 
L 66.489727 165.168267 
L 66.706618 164.771792 
L 66.678638 164.561106 
L 66.45125 164.094741 
L 66.430607 163.827355 
L 66.504751 163.530779 
L 66.575032 163.41371 
L 67.519391 162.57081 
L 67.648207 162.383499 
L 67.78869 162.028389 
L 67.812104 161.829371 
L 67.765276 161.431335 
L 67.605281 160.986471 
L 67.581867 160.9318 
L 67.187734 160.557178 
L 67.184559 160.556343 
L 66.668687 160.420597 
L 66.509159 160.405343 
L 66.103476 160.36655 
L 65.259952 160.302162 
L 64.836942 160.230047 
L 64.1739 159.79849 
L 64.01332 159.562323 
L 63.938005 159.501876 
L 63.773796 159.532821 
L 63.520263 159.451029 
L 63.407837 159.262118 
L 63.492439 159.143136 
L 63.917518 158.992351 
L 63.952639 158.9065 
L 63.92142 158.781626 
L 64.003369 158.547487 
L 64.032519 158.124516 
L 64.032909 157.748138 
L 63.340366 157.722148 
L 63.172645 157.562661 
L 63.549959 157.173678 
L 63.646463 157.119124 
L 63.682287 157.067379 
L 63.687789 157.009742 
L 63.65618 156.968339 
L 63.469025 156.930837 
L 63.31106 156.835192 
L 63.287021 156.780637 
L 63.306377 156.708445 
L 63.341264 156.65748 
L 63.337322 156.590634 
L 63.258691 156.515943 
L 63.137992 156.481447 
L 63.093037 156.453819 
L 63.077545 156.40063 
L 63.124022 156.317862 
L 63.126363 156.264205 
L 62.951891 155.839048 
L 62.764034 155.537439 
L 62.512334 155.058859 
L 62.5345 154.955409 
L 62.495945 154.846534 
L 62.089012 154.427075 
L 61.818386 154.335097 
L 61.65527 154.221735 
L 61.632363 154.157503 
L 61.666235 153.998718 
L 61.655426 153.871112 
L 61.480251 153.664095 
L 61.428272 153.639081 
L 61.306169 153.634632 
L 60.770654 153.333881 
L 60.531287 153.070709 
L 60.476888 153.059041 
L 60.195102 152.808357 
L 59.792345 152.636226 
L 59.558908 152.597007 
L 59.37148 152.58011 
L 58.834327 152.343864 
L 58.468837 152.124515 
L 58.075132 151.932795 
L 58.036421 151.902435 
L 58.069201 151.786458 
L 58.168476 151.743728 
L 58.277233 151.574094 
L 58.267165 151.136918 
L 58.204221 151.119202 
L 57.985145 151.152957 
L 57.72408 150.769164 
L 57.681818 150.685265 
" clip-path="url(#p10f3b4274f)" style="fill: #da0000"/>
   </g>
   <g id="PathCollection_1">
    <defs>
     <path id="m3380da2c1e" d="M 0 1.581139 
C 0.419323 1.581139 0.821528 1.41454 1.118034 1.118034 
C 1.41454 0.821528 1.581139 0.419323 1.581139 0 
C 1.581139 -0.419323 1.41454 -0.821528 1.118034 -1.118034 
C 0.821528 -1.41454 0.419323 -1.581139 0 -1.581139 
C -0.419323 -1.581139 -0.821528 -1.41454 -1.118034 -1.118034 
C -1.41454 -0.821528 -1.581139 -0.419323 -1.581139 0 
C -1.581139 0.419323 -1.41454 0.821528 -1.118034 1.118034 
C -0.821528 1.41454 -0.419323 1.581139 0 1.581139 
z
" style="stroke: #000000"/>
    </defs>
    <g clip-path="url(#p10f3b4274f)">
     <use xlink:href="#m3380da2c1e" x="176.155042" y="195.405138" style="stroke: #000000"/>
    </g>
   </g>
   <g id="text_1">
    <!-- Des Moines -->
    <g transform="translate(179.155042 192.405138) scale(0.1 -0.1)">
     <defs>
      <path id="DejaVuSans-44" d="M 1259 4147 
L 1259 519 
L 2022 519 
Q 2988 519 3436 956 
Q 3884 1394 3884 2338 
Q 3884 3275 3436 3711 
Q 2988 4147 2022 4147 
L 1259 4147 
z
M 628 4666 
L 1925 4666 
Q 3281 4666 3915 4102 
Q 4550 3538 4550 2338 
Q 4550 1131 3912 565 
Q 3275 0 1925 0 
L 628 0 
L 628 4666 
z
" transform="scale(0.015625)"/>
      <path id="DejaVuSans-65" d="M 3597 1894 
L 3597 1613 
L 953 1613 
Q 991 1019 1311 708 
Q 1631 397 2203 397 
Q 2534 397 2845 478 
Q 3156 559 3463 722 
L 3463 178 
Q 3153 47 2828 -22 
Q 2503 -91 2169 -91 
Q 1331 -91 842 396 
Q 353 884 353 1716 
Q 353 2575 817 3079 
Q 1281 3584 2069 3584 
Q 2775 3584 3186 3129 
Q 3597 2675 3597 1894 
z
M 3022 2063 
Q 3016 2534 2758 2815 
Q 2500 3097 2075 3097 
Q 1594 3097 1305 2825 
Q 1016 2553 972 2059 
L 3022 2063 
z
" transform="scale(0.015625)"/>
      <path id="DejaVuSans-73" d="M 2834 3397 
L 2834 2853 
Q 2591 2978 2328 3040 
Q 2066 3103 1784 3103 
Q 1356 3103 1142 2972 
Q 928 2841 928 2578 
Q 928 2378 1081 2264 
Q 1234 2150 1697 2047 
L 1894 2003 
Q 2506 1872 2764 1633 
Q 3022 1394 3022 966 
Q 3022 478 2636 193 
Q 2250 -91 1575 -91 
Q 1294 -91 989 -36 
Q 684 19 347 128 
L 347 722 
Q 666 556 975 473 
Q 1284 391 1588 391 
Q 1994 391 2212 530 
Q 2431 669 2431 922 
Q 2431 1156 2273 1281 
Q 2116 1406 1581 1522 
L 1381 1569 
Q 847 1681 609 1914 
Q 372 2147 372 2553 
Q 372 3047 722 3315 
Q 1072 3584 1716 3584 
Q 2034 3584 2315 3537 
Q 2597 3491 2834 3397 
z
" transform="scale(0.015625)"/>
      <path id="DejaVuSans-20" transform="scale(0.015625)"/>
      <path id="DejaVuSans-4d" d="M 628 4666 
L 1569 4666 
L 2759 1491 
L 3956 4666 
L 4897 4666 
L 4897 0 
L 4281 0 
L 4281 4097 
L 3078 897 
L 2444 897 
L 1241 4097 
L 1241 0 
L 628 0 
L 628 4666 
z
" transform="scale(0.015625)"/>
      <path id="DejaVuSans-6f" d="M 1959 3097 
Q 1497 3097 1228 2736 
Q 959 2375 959 1747 
Q 959 1119 1226 758 
Q 1494 397 1959 397 
Q 2419 397 2687 759 
Q 2956 1122 2956 1747 
Q 2956 2369 2687 2733 
Q 2419 3097 1959 3097 
z
M 1959 3584 
Q 2709 3584 3137 3096 
Q 3566 2609 3566 1747 
Q 3566 888 3137 398 
Q 2709 -91 1959 -91 
Q 1206 -91 779 398 
Q 353 888 353 1747 
Q 353 2609 779 3096 
Q 1206 3584 1959 3584 
z
" transform="scale(0.015625)"/>
      <path id="DejaVuSans-69" d="M 603 3500 
L 1178 3500 
L 1178 0 
L 603 0 
L 603 3500 
z
M 603 4863 
L 1178 4863 
L 1178 4134 
L 603 4134 
L 603 4863 
z
" transform="scale(0.015625)"/>
      <path id="DejaVuSans-6e" d="M 3513 2113 
L 3513 0 
L 2938 0 
L 2938 2094 
Q 2938 2591 2744 2837 
Q 2550 3084 2163 3084 
Q 1697 3084 1428 2787 
Q 1159 2491 1159 1978 
L 1159 0 
L 581 0 
L 581 3500 
L 1159 3500 
L 1159 2956 
Q 1366 3272 1645 3428 
Q 1925 3584 2291 3584 
Q 2894 3584 3203 3211 
Q 3513 2838 3513 2113 
z
" transform="scale(0.015625)"/>
     </defs>
     <use xlink:href="#DejaVuSans-44"/>
     <use xlink:href="#DejaVuSans-65" x="77.001953"/>
     <use xlink:href="#DejaVuSans-73" x="138.525391"/>
     <use xlink:href="#DejaVuSans-20" x="190.625"/>
     <use xlink:href="#DejaVuSans-4d" x="222.412109"/>
     <use xlink:href="#DejaVuSans-6f" x="308.691406"/>
     <use xlink:href="#DejaVuSans-69" x="369.873047"/>
     <use xlink:href="#DejaVuSans-6e" x="397.65625"/>
     <use xlink:href="#DejaVuSans-65" x="461.035156"/>
     <use xlink:href="#DejaVuSans-73" x="522.558594"/>
    </g>
   </g>
   <g id="text_2">
    <!-- Iowa -->
    <g transform="translate(170.475 108.773393) scale(0.12 -0.12)">
     <defs>
      <path id="DejaVuSans-49" d="M 628 4666 
L 1259 4666 
L 1259 0 
L 628 0 
L 628 4666 
z
" transform="scale(0.015625)"/>
      <path id="DejaVuSans-77" d="M 269 3500 
L 844 3500 
L 1563 769 
L 2278 3500 
L 2956 3500 
L 3675 769 
L 4391 3500 
L 4966 3500 
L 4050 0 
L 3372 0 
L 2619 2869 
L 1863 0 
L 1184 0 
L 269 3500 
z
" transform="scale(0.015625)"/>
      <path id="DejaVuSans-61" d="M 2194 1759 
Q 1497 1759 1228 1600 
Q 959 1441 959 1056 
Q 959 750 1161 570 
Q 1363 391 1709 391 
Q 2188 391 2477 730 
Q 2766 1069 2766 1631 
L 2766 1759 
L 2194 1759 
z
M 3341 1997 
L 3341 0 
L 2766 0 
L 2766 531 
Q 2569 213 2275 61 
Q 1981 -91 1556 -91 
Q 1019 -91 701 211 
Q 384 513 384 1019 
Q 384 1609 779 1909 
Q 1175 2209 1959 2209 
L 2766 2209 
L 2766 2266 
Q 2766 2663 2505 2880 
Q 2244 3097 1772 3097 
Q 1472 3097 1187 3025 
Q 903 2953 641 2809 
L 641 3341 
Q 956 3463 1253 3523 
Q 1550 3584 1831 3584 
Q 2591 3584 2966 3190 
Q 3341 2797 3341 1997 
z
" transform="scale(0.015625)"/>
     </defs>
     <use xlink:href="#DejaVuSans-49"/>
     <use xlink:href="#DejaVuSans-6f" x="29.492188"/>
     <use xlink:href="#DejaVuSans-77" x="90.673828"/>
     <use xlink:href="#DejaVuSans-61" x="172.460938"/>
    </g>
   </g>
  </g>
 </g>
 <defs>
  <clipPath id="p10f3b4274f">
   <rect x="45" y="114.773393" width="279" height="134.053213"/>
  </clipPath>
 </defs>
</svg>
