<?xml version="1.0" encoding="utf-8" standalone="no"?>
<!DOCTYPE svg PUBLIC "-//W3C//DTD SVG 1.1//EN"
  "http://www.w3.org/Graphics/SVG/1.1/DTD/svg11.dtd">
<svg xmlns:xlink="http://www.w3.org/1999/xlink" width="360pt" height="360pt" viewBox="0 0 360 360" xmlns="http://www.w3.org/2000/svg" version="1.1">
 <metadata>
  <rdf:RDF xmlns:dc="http://purl.org/dc/elements/1.1/" xmlns:cc="http://creativecommons.org/ns#" xmlns:rdf="http://www.w3.org/1999/02/22-rdf-syntax-ns#">
   <cc:Work>
    <dc:type rdf:resource="http://purl.org/dc/dcmitype/StillImage"/>
    <dc:date>2023-06-19T15:20:26.865957</dc:date>
    <dc:format>image/svg+xml</dc:format>
    <dc:creator>
     <cc:Agent>
      <dc:title>Matplotlib v3.7.1, https://matplotlib.org/</dc:title>
     </cc:Agent>
    </dc:creator>
   </cc:Work>
  </rdf:RDF>
 </metadata>
 <defs>
  <style type="text/css">*{stroke-linejoin: round; stroke-linecap: butt}</style>
 </defs>
 <g id="figure_1">
  <g id="patch_1">
   <path d="M 0 360 
L 360 360 
L 360 0 
L 0 0 
z
" style="fill: #ffffff"/>
  </g>
  <g id="axes_1">
   <g id="PatchCollection_1">
    <path d="M 57.681818 130.644665 
L 62.27227 130.64249 
L 62.697841 130.64181 
L 64.844423 130.654659 
L 65.145721 130.649594 
L 65.977623 130.654183 
L 66.073649 130.655746 
L 72.116989 130.660233 
L 72.159886 130.65714 
L 74.99938 130.660607 
L 79.250463 130.666895 
L 79.460068 130.668918 
L 79.497103 130.669275 
L 80.70811 130.663598 
L 81.777713 130.661593 
L 82.367295 130.657959 
L 82.417531 130.65765 
L 83.438798 130.662307 
L 83.691557 130.662307 
L 84.979214 130.66285 
L 86.12268 130.662443 
L 86.898157 130.664618 
L 87.354115 130.6654 
L 87.697461 130.662714 
L 88.982229 130.666793 
L 91.381672 130.670872 
L 92.490841 130.672606 
L 95.558858 130.676379 
L 101.629595 130.671042 
L 101.855535 130.676957 
L 102.309562 130.673543 
L 102.497528 130.67213 
L 102.612826 130.677535 
L 102.911134 130.678962 
L 104.192366 130.673354 
L 104.981133 130.675801 
L 105.483694 130.685285 
L 106.996305 130.684503 
L 107.206643 130.68209 
L 108.142049 130.685081 
L 108.663883 130.685081 
L 110.05144 130.686746 
L 110.864035 130.689228 
L 111.20874 130.689738 
L 111.248306 130.689194 
L 111.488998 130.690689 
L 112.226643 130.688276 
L 112.498267 130.68899 
L 114.163873 130.6878 
L 119.54904 130.694122 
L 119.622903 130.691743 
L 120.101262 130.693918 
L 120.728299 130.698507 
L 120.842815 130.695822 
L 120.953865 130.69538 
L 121.026674 130.69691 
L 121.378756 130.695142 
L 121.379711 130.695143 
L 127.73162 130.698201 
L 127.878293 130.696604 
L 129.185053 130.687664 
L 129.31252 130.695448 
L 129.787854 130.697759 
L 130.595996 130.697895 
L 133.765919 130.701702 
L 135.049463 130.693307 
L 135.169078 130.68797 
L 135.437847 130.69657 
L 135.688668 130.703674 
L 136.035617 130.687426 
L 136.534235 130.687188 
L 136.953007 130.687834 
L 140.056172 130.685863 
L 140.05928 130.685864 
L 140.136595 130.685897 
L 140.158893 130.685868 
L 144.357902 130.680424 
L 144.452839 130.682769 
L 144.498353 130.684299 
L 144.640947 130.683449 
L 145.073894 130.683279 
L 147.016936 130.67213 
L 147.388121 130.685795 
L 147.702744 130.682361 
L 151.533083 130.683041 
L 151.670645 130.68073 
L 151.796039 130.685421 
L 152.780256 130.678792 
L 152.904052 130.682769 
L 154.059551 130.680764 
L 154.698043 130.680186 
L 154.993325 130.680526 
L 155.05937 130.68209 
L 155.325454 130.68209 
L 155.331198 130.68209 
L 155.642184 130.683857 
L 157.232398 130.675699 
L 157.556096 130.674747 
L 158.504894 130.676787 
L 159.136283 130.675519 
L 160.72313 130.672334 
L 160.778774 130.669989 
L 161.681786 130.674781 
L 162.356444 130.67298 
L 162.375683 130.672198 
L 162.739798 130.670532 
L 162.742857 130.672096 
L 163.630946 130.674339 
L 167.041494 130.668969 
L 167.512816 130.670464 
L 168.987595 130.669105 
L 169.064483 130.669887 
L 170.715357 130.673755 
L 170.718022 130.673762 
L 171.258177 130.675189 
L 171.846498 130.668629 
L 171.902686 130.664142 
L 171.94198 130.66268 
L 172.535739 130.668935 
L 172.640942 130.667371 
L 173.181097 130.672164 
L 173.226611 130.67298 
L 173.627164 130.66455 
L 174.543399 130.667711 
L 175.237262 130.665128 
L 175.853286 130.664992 
L 176.350952 130.671994 
L 176.942128 130.67162 
L 177.626474 130.669887 
L 178.258644 130.670139 
L 178.73187 130.670329 
L 186.09159 130.663768 
L 186.288637 130.664652 
L 186.907618 130.670872 
L 188.828974 130.660437 
L 189.310562 130.66489 
L 189.550065 130.66642 
L 190.074377 130.666177 
L 190.577892 130.665944 
L 192.01817 130.673592 
L 192.821214 130.671076 
L 193.070472 130.669241 
L 193.704205 130.671858 
L 193.792174 130.674985 
L 194.915823 130.673728 
L 195.060456 130.676107 
L 196.351138 130.677433 
L 197.723041 130.679607 
L 197.723535 130.679608 
L 199.61175 130.677841 
L 200.251159 130.679098 
L 200.899407 130.684367 
L 201.469814 130.681172 
L 201.473283 130.681245 
L 201.543643 130.682735 
L 202.980488 130.675631 
L 203.197318 130.68209 
L 203.250752 130.681478 
L 203.300311 130.681512 
L 211.880997 130.684673 
L 212.014481 130.684741 
L 212.052449 130.686916 
L 213.649325 130.67971 
L 214.282344 130.682735 
L 214.935622 130.679676 
L 215.194533 130.680492 
L 215.262278 130.681274 
L 216.847422 130.679272 
L 216.847443 130.679272 
L 216.85069 130.679268 
L 217.469568 130.683687 
L 217.490779 130.682123 
L 221.063362 130.697861 
L 221.066388 130.699425 
L 222.520194 130.700275 
L 222.592255 130.696638 
L 223.218204 130.696604 
L 224.554979 130.698473 
L 224.710727 130.68763 
L 227.708858 130.70432 
L 228.349933 130.703674 
L 229.085436 130.699561 
L 232.238397 130.698104 
L 232.249071 130.698099 
L 233.460315 130.700071 
L 233.5353 130.699459 
L 233.643936 130.700071 
L 233.686255 130.700003 
L 235.999156 130.702689 
L 242.232032 130.709928 
L 242.641695 130.719344 
L 242.827457 130.719004 
L 243.612519 130.716554 
L 243.644335 130.716455 
L 243.98418 130.712206 
L 244.42576 130.716387 
L 245.067719 130.720364 
L 245.471059 130.714245 
L 247.414204 130.716455 
L 247.496089 130.714109 
L 247.626039 130.716377 
L 247.628519 130.716421 
L 253.036018 130.72791 
L 253.154614 130.727808 
L 255.257249 130.725803 
L 255.258469 130.725802 
L 255.779657 130.724511 
L 255.904337 130.724817 
L 258.141166 130.732465 
L 258.145211 130.733994 
L 258.385835 130.733008 
L 259.107469 130.734606 
L 259.112534 130.733416 
L 260.336457 130.731649 
L 260.621508 130.728793 
L 261.631184 130.724579 
L 262.569377 130.724851 
L 263.025268 130.727604 
L 264.811135 130.731581 
L 267.381384 130.733314 
L 270.590587 130.733926 
L 270.593558 130.733926 
L 270.710794 130.733552 
L 284.624029 130.74929 
L 285.825994 130.749324 
L 286.900322 130.749358 
L 286.896447 130.961464 
L 286.917657 131.068196 
L 286.940397 131.119319 
L 287.096893 131.281016 
L 287.531709 131.507091 
L 288.040151 131.697137 
L 288.205722 131.789559 
L 288.47874 132.087934 
L 288.621571 132.282772 
L 288.873039 132.494945 
L 289.174575 132.620543 
L 289.331683 132.655146 
L 289.523631 132.660143 
L 289.894204 132.638083 
L 290.022419 132.654398 
L 290.114297 132.67979 
L 290.430722 132.824491 
L 290.537828 132.986119 
L 290.557781 133.191392 
L 290.512913 133.38572 
L 290.385956 133.632803 
L 290.366207 133.736408 
L 290.370625 133.823562 
L 290.386363 133.867139 
L 290.515462 134.01065 
L 290.603432 134.056334 
L 290.791437 134.124962 
L 290.935934 134.14981 
L 291.279654 134.146309 
L 291.522929 134.07955 
L 291.946528 133.911021 
L 292.076035 133.902218 
L 292.292457 133.946236 
L 292.414894 134.006231 
L 292.491476 134.083221 
L 292.533591 134.216671 
L 292.537602 134.304096 
L 292.505039 134.510219 
L 292.528323 134.628067 
L 292.600282 134.770864 
L 292.719558 134.884293 
L 292.799267 134.935246 
L 293.022964 135.026581 
L 293.779405 135.196571 
L 294.314903 135.401334 
L 294.490128 135.444061 
L 294.608044 135.44967 
L 295.593757 135.359389 
L 295.947028 135.344739 
L 296.09574 135.319687 
L 296.289966 135.224682 
L 296.430078 135.116419 
L 296.515362 134.940039 
L 296.525661 134.867909 
L 296.497516 134.598902 
L 296.521548 134.498526 
L 296.550475 134.447471 
L 296.742389 134.237745 
L 296.932434 134.150014 
L 297.092601 134.128158 
L 297.249675 134.134786 
L 297.603481 134.223427 
L 297.709747 134.25005 
L 297.822224 134.261607 
L 298.135827 134.234346 
L 298.625437 134.109802 
L 298.763748 134.091617 
L 299.026704 134.130299 
L 299.287519 134.21198 
L 299.606153 134.373914 
L 299.773356 134.530682 
L 299.830359 134.620487 
L 299.848647 134.693432 
L 299.852284 134.819472 
L 299.811018 134.952514 
L 299.709147 135.079709 
L 299.460059 135.271692 
L 299.393708 135.358165 
L 299.337146 135.471832 
L 299.331708 135.623569 
L 299.426883 135.782376 
L 299.498673 135.855253 
L 299.889742 136.142956 
L 300.203549 136.319166 
L 300.440672 136.377359 
L 300.671303 136.396938 
L 301.027532 136.378991 
L 301.13576 136.390956 
L 301.222777 136.4225 
L 301.424006 136.564447 
L 301.503409 136.646026 
L 301.558917 136.740114 
L 301.574385 136.837869 
L 301.575913 136.847526 
L 301.596307 137.095663 
L 301.582711 137.313207 
L 301.426759 137.638027 
L 301.319618 137.743536 
L 301.108601 137.832185 
L 301.017742 137.850133 
L 299.908267 137.895817 
L 299.770637 137.945852 
L 299.666216 138.013835 
L 299.581917 138.120975 
L 299.562338 138.264554 
L 299.578654 138.376589 
L 299.614005 138.443484 
L 299.770671 138.59794 
L 299.887057 138.68659 
L 300.207934 138.875309 
L 300.360759 138.929695 
L 300.566372 138.926976 
L 300.807302 138.864432 
L 300.93946 138.798081 
L 300.947176 138.793322 
L 300.980148 138.773063 
L 300.985314 138.769868 
L 300.991943 138.765789 
L 300.994594 138.764158 
L 301.325057 138.560958 
L 301.408812 138.524519 
L 301.410103 138.524519 
L 301.759465 138.46551 
L 301.810452 138.46891 
L 301.895464 138.509699 
L 301.960048 138.564085 
L 302.031429 138.659261 
L 302.113008 138.802024 
L 302.157197 139.121542 
L 302.156008 139.126876 
L 302.125653 139.263081 
L 302.038228 139.485248 
L 301.793491 139.770775 
L 301.606539 139.910139 
L 301.317613 140.035907 
L 301.059245 140.10049 
L 300.801864 140.129451 
L 300.689828 140.124012 
L 300.43639 140.07017 
L 300.155758 139.967924 
L 299.758706 139.744398 
L 299.445442 139.53338 
L 299.257811 139.438238 
L 299.122355 139.396905 
L 298.989654 139.384396 
L 298.899373 139.393642 
L 298.736215 139.482835 
L 298.558372 139.6188 
L 298.384881 139.854835 
L 298.358232 139.950555 
L 298.362583 140.159907 
L 298.45181 140.695065 
L 298.433862 141.186171 
L 298.402319 141.318873 
L 298.354459 141.40861 
L 298.184231 141.579926 
L 298.006388 141.672926 
L 297.918283 141.699575 
L 297.598493 141.743084 
L 297.332614 141.746177 
L 297.072784 141.770447 
L 296.859081 141.821536 
L 296.756836 141.868885 
L 296.543472 142.017903 
L 296.439833 142.120931 
L 296.106039 142.547487 
L 296.052163 142.658502 
L 295.865041 142.837602 
L 295.696308 143.058342 
L 295.565476 143.314262 
L 295.512517 143.496183 
L 295.504801 143.609646 
L 295.564695 143.824928 
L 295.577543 143.871107 
L 295.750932 144.132057 
L 295.800763 144.291205 
L 295.803619 144.360853 
L 295.77629 144.511774 
L 295.7045 144.699882 
L 295.51663 144.94105 
L 295.445487 145.006347 
L 295.356362 145.055124 
L 295.186405 145.123685 
L 295.023383 145.154175 
L 294.926678 145.157438 
L 294.772766 145.135615 
L 294.33676 144.990677 
L 294.1253 145.004613 
L 294.011123 145.036123 
L 293.870638 145.100978 
L 293.762613 145.18701 
L 293.726991 145.234904 
L 293.535858 145.734915 
L 293.519542 145.911398 
L 293.664107 146.3076 
L 293.756155 146.464912 
L 293.882195 146.611414 
L 294.228362 146.920938 
L 294.567934 147.176859 
L 294.74717 147.284271 
L 295.358333 147.536112 
L 295.46306 147.609907 
L 295.605925 147.745057 
L 295.661161 147.829423 
L 295.685193 147.934762 
L 295.73533 148.41047 
L 295.777377 148.595688 
L 295.825543 148.681074 
L 295.993324 148.887469 
L 296.104815 148.979177 
L 296.243907 149.074795 
L 296.410805 149.162798 
L 296.841576 149.349002 
L 297.523338 149.506552 
L 297.713554 149.573922 
L 297.986435 149.765633 
L 298.10017 149.912169 
L 298.174679 150.236446 
L 298.298883 150.406266 
L 298.438362 150.495735 
L 298.532947 150.556406 
L 298.915315 150.673472 
L 299.037955 150.746111 
L 299.151656 150.851586 
L 299.205056 150.952132 
L 299.192513 151.153666 
L 299.2073 151.291977 
L 299.229394 151.353059 
L 299.349655 151.500989 
L 299.429262 151.553641 
L 299.491787 151.588585 
L 299.515566 151.601875 
L 299.63474 151.635356 
L 299.993076 151.671183 
L 300.125132 151.648001 
L 300.239546 151.608095 
L 300.452943 151.522539 
L 300.716647 151.388852 
L 300.949284 151.36278 
L 301.055812 151.371346 
L 301.153469 151.401293 
L 301.287599 151.490724 
L 301.425161 151.69134 
L 301.482878 151.83135 
L 301.489439 151.969932 
L 301.412211 152.150766 
L 301.28114 152.268784 
L 301.086982 152.366678 
L 300.886298 152.397135 
L 300.811789 152.421064 
L 300.693737 152.490678 
L 300.530579 152.614679 
L 300.45879 152.698977 
L 300.438123 152.75717 
L 300.433121 152.790905 
L 300.416913 152.900205 
L 300.504474 153.738838 
L 300.554192 153.951647 
L 300.597474 154.136909 
L 300.671983 154.32998 
L 300.776948 154.536646 
L 300.941194 154.74005 
L 301.218596 155.002735 
L 301.370877 155.109875 
L 301.515544 155.184384 
L 301.881018 155.296385 
L 302.23779 155.432894 
L 302.603264 155.614543 
L 302.891 155.820666 
L 303.108001 156.029509 
L 303.243422 156.246509 
L 303.305422 156.523878 
L 303.290194 156.640807 
L 303.233089 156.786562 
L 302.991581 157.131879 
L 302.986142 157.240107 
L 303.037265 157.337458 
L 303.10093 157.400546 
L 303.369054 157.606669 
L 303.474562 157.64909 
L 303.7813 157.71816 
L 304.189195 157.737739 
L 304.607967 157.681722 
L 304.727106 157.699125 
L 304.805966 157.733389 
L 304.931054 157.822582 
L 305.009234 157.921836 
L 305.185988 158.282143 
L 305.430725 158.625421 
L 305.797831 158.853163 
L 306.15134 158.955136 
L 306.151762 158.955215 
L 306.334927 158.989128 
L 306.773414 158.995926 
L 307.096331 158.948338 
L 307.701546 158.67097 
L 308.01073 158.503053 
L 308.24527 158.47586 
L 308.626006 158.55404 
L 308.80616 158.652614 
L 308.863041 158.831207 
L 308.925809 159.028286 
L 308.853747 159.383426 
L 309.251445 159.502396 
L 309.615152 159.536387 
L 310.162445 159.417418 
L 310.437774 159.301847 
L 310.675713 159.284852 
L 310.917085 159.315444 
L 311.110835 159.380027 
L 311.250199 159.471804 
L 311.318182 159.968076 
L 311.229805 160.121037 
L 310.96124 160.372572 
L 310.781086 160.586683 
L 310.736897 160.681859 
L 310.72602 160.884446 
L 310.730081 161.691133 
L 310.730099 161.694798 
L 310.7267 161.963329 
L 310.730099 162.507189 
L 310.720712 163.223119 
L 310.720465 163.242021 
L 310.704321 164.473284 
L 310.692709 165.358988 
L 310.693235 165.463729 
L 310.696992 166.211323 
L 310.699507 166.71184 
L 310.699507 166.779823 
L 310.708617 166.868472 
L 310.70481 166.886419 
L 310.704809 166.887201 
L 310.704748 166.945428 
L 310.703464 168.184884 
L 310.703191 168.447568 
L 310.70311 168.525842 
L 310.70294 168.690098 
L 310.70294 169.18637 
L 310.70294 169.22376 
L 310.7043 169.252177 
L 310.704201 169.267099 
L 310.70294 169.4583 
L 310.70294 169.669046 
L 310.70294 169.934178 
L 310.716808 170.602004 
L 310.715163 170.66727 
L 310.702668 171.162724 
L 310.656508 173.49534 
L 310.65457 173.554485 
L 310.652771 173.6428 
L 310.581625 177.134309 
L 310.586282 177.4869 
L 310.572923 177.640744 
L 310.571224 178.021888 
L 310.571938 179.012156 
L 310.571428 179.013142 
L 310.562114 179.134286 
L 310.56276 180.042839 
L 310.558851 180.107422 
L 310.558781 180.117956 
L 310.552299 181.098562 
L 310.546206 182.020212 
L 310.543419 182.267567 
L 310.544439 182.308798 
L 310.538693 182.497506 
L 310.53866 182.498571 
L 310.528737 183.973115 
L 310.521699 185.018989 
L 310.525098 185.392757 
L 310.524744 185.518784 
L 310.522922 186.16803 
L 310.5235 186.345158 
L 310.534105 187.317512 
L 310.540054 187.705489 
L 310.541312 187.849782 
L 310.545221 188.030275 
L 310.545221 188.448538 
L 310.539408 188.825977 
L 310.539238 188.877269 
L 310.544575 189.540779 
L 310.547226 190.649846 
L 310.546512 191.016237 
L 310.545696 191.279194 
L 310.54573 191.333648 
L 310.540156 191.800382 
L 310.539272 191.90929 
L 310.531624 192.254709 
L 310.519761 193.024407 
L 310.50868 193.271694 
L 310.505009 193.640975 
L 310.498041 196.442738 
L 310.497089 196.491754 
L 310.498245 196.689345 
L 310.498248 196.690437 
L 310.500748 197.472186 
L 310.50076 197.475869 
L 310.492908 198.988038 
L 310.484308 199.146539 
L 310.481181 199.716301 
L 310.481011 200.37981 
L 310.479923 200.432123 
L 310.479311 200.623018 
L 310.474485 200.745148 
L 310.471731 200.883459 
L 310.473669 200.968437 
L 310.45997 201.588981 
L 310.452764 201.913666 
L 310.450181 202.070603 
L 310.442125 202.578161 
L 310.434817 202.867495 
L 310.437774 203.065358 
L 310.432132 203.384332 
L 310.422819 203.774394 
L 310.417651 203.990872 
L 310.416836 204.253352 
L 310.402831 204.86873 
L 310.373633 206.448848 
L 310.370675 207.919412 
L 310.364999 208.1754 
L 310.370777 209.263052 
L 310.376012 209.348268 
L 310.374788 209.382871 
L 310.368058 209.533759 
L 310.373191 209.842637 
L 310.373197 209.843373 
L 310.378561 210.503971 
L 310.378581 210.507181 
L 310.381927 211.064861 
L 310.387943 211.971578 
L 310.383592 212.004651 
L 310.388521 213.283607 
L 310.387433 213.297101 
L 310.395387 213.449586 
L 310.392702 213.779471 
L 310.391818 213.90942 
L 310.401268 214.782349 
L 310.405313 214.99629 
L 310.397359 216.27929 
L 310.39192 216.758567 
L 310.392022 216.910236 
L 310.390594 217.070913 
L 310.391172 217.074414 
L 310.391308 217.264255 
L 310.393654 217.773104 
L 310.389133 218.258567 
L 310.380771 218.755758 
L 310.379207 219.249787 
L 310.376896 220.228701 
L 310.376862 220.233154 
L 310.379887 220.338187 
L 310.379863 220.344574 
L 310.376522 221.219852 
L 310.374516 221.273388 
L 310.376114 221.723875 
L 310.3616 224.55035 
L 310.358778 224.646851 
L 310.359968 224.927721 
L 310.35905 224.968952 
L 310.358116 225.244439 
L 310.356705 225.66064 
L 310.353782 225.675427 
L 310.353457 226.105416 
L 310.353306 226.306406 
L 310.346984 226.5644 
L 310.348071 226.782012 
L 310.352218 227.277299 
L 310.352228 227.278253 
L 310.361702 228.224499 
L 310.3616 228.312537 
L 310.356943 228.876316 
L 310.359016 229.189069 
L 310.362144 229.436933 
L 310.361158 229.539077 
L 310.36109 229.545094 
L 310.361362 229.78514 
L 310.36007 229.802068 
L 310.364761 230.171111 
L 310.368398 230.792437 
L 310.365339 231.345169 
L 310.364319 232.416607 
L 310.365373 232.760293 
L 310.118596 232.768213 
L 307.585873 232.763692 
L 307.515783 232.763386 
L 307.142797 232.764066 
L 306.312969 232.768451 
L 306.240193 232.767703 
L 304.950803 232.765086 
L 303.114493 232.763454 
L 302.786613 232.76274 
L 302.484941 232.761279 
L 302.369507 232.761347 
L 297.539484 232.739082 
L 297.120474 232.739592 
L 296.990865 232.738879 
L 296.348736 232.73949 
L 296.09268 232.74017 
L 295.696954 232.737349 
L 294.880824 232.739762 
L 293.227794 232.739155 
L 292.104486 232.738743 
L 292.098197 232.738709 
L 291.975933 232.73882 
L 291.352803 232.739388 
L 290.740756 232.737859 
L 286.415096 232.744895 
L 286.228382 232.744657 
L 286.219239 232.744623 
L 286.121242 232.744147 
L 283.525603 232.748865 
L 283.521828 232.748872 
L 279.990306 232.749076 
L 279.621943 232.74751 
L 279.214524 232.745779 
L 277.882168 232.746527 
L 276.572077 232.746153 
L 276.443114 232.744657 
L 276.157044 232.744827 
L 275.962308 232.746187 
L 274.799059 232.746119 
L 274.467953 232.745715 
L 274.046119 232.745201 
L 273.69917 232.749756 
L 273.232776 232.744453 
L 273.079577 232.74758 
L 272.971927 232.748396 
L 272.161099 232.74877 
L 272.006026 232.748537 
L 271.549358 232.747852 
L 271.249759 232.750096 
L 270.636455 232.746527 
L 269.915229 232.752849 
L 267.912497 232.748192 
L 267.673029 232.746866 
L 267.628399 232.746798 
L 267.564019 232.746731 
L 266.441322 232.745643 
L 265.831451 232.748736 
L 265.529948 232.747954 
L 264.602737 232.753882 
L 263.360694 232.761823 
L 258.588321 232.757982 
L 258.52044 232.752509 
L 258.386651 232.756316 
L 258.299429 232.755704 
L 258.208502 232.75533 
L 258.152995 232.751591 
L 257.109598 232.749895 
L 257.107729 232.749892 
L 256.589023 232.756112 
L 255.992714 232.754684 
L 253.99413 232.747852 
L 253.90198 232.747818 
L 249.986424 232.749552 
L 249.267849 232.753223 
L 246.382807 232.769199 
L 245.523179 232.766852 
L 239.409738 232.750164 
L 239.238048 232.747852 
L 238.350604 232.747342 
L 238.191525 232.74894 
L 237.900288 232.757472 
L 236.465109 232.750945 
L 236.35841 232.761823 
L 235.420523 232.750877 
L 233.90023 232.749688 
L 233.602025 232.749144 
L 232.725288 232.751795 
L 232.676783 232.752577 
L 232.215079 232.750877 
L 232.051174 232.751931 
L 231.936317 232.752662 
L 231.618567 232.754684 
L 230.506067 232.754786 
L 230.227644 232.756418 
L 228.374441 232.759477 
L 228.044658 232.757064 
L 225.975678 232.757132 
L 225.852493 232.756384 
L 225.308327 232.756588 
L 225.229739 232.75584 
L 224.375743 232.753291 
L 219.172732 232.75908 
L 216.737907 232.761789 
L 216.31288 232.7624 
L 213.683486 232.767771 
L 213.681232 232.767763 
L 213.323824 232.766547 
L 211.473646 232.765562 
L 210.841137 232.766955 
L 210.82081 232.765664 
L 210.207676 232.766887 
L 208.779601 232.767873 
L 207.739876 232.754005 
L 207.286806 232.756928 
L 205.701522 232.762978 
L 203.267748 232.765562 
L 202.767124 232.75839 
L 202.765187 232.762265 
L 202.125845 232.766819 
L 202.125336 232.76682 
L 194.251532 232.778614 
L 194.049794 232.779192 
L 193.864473 232.77994 
L 191.599194 232.786534 
L 190.393626 232.785549 
L 189.368993 232.790749 
L 188.328113 232.791157 
L 187.944657 232.797038 
L 187.325575 232.792007 
L 183.638339 232.792347 
L 183.605674 232.792351 
L 183.370317 232.792381 
L 181.503585 232.773618 
L 181.188248 232.772768 
L 181.122271 232.773516 
L 176.892022 232.757194 
L 176.884819 232.757166 
L 171.118541 232.755024 
L 170.984174 232.750945 
L 169.518063 232.742618 
L 168.486802 232.748396 
L 168.426468 232.749348 
L 168.299306 232.74928 
L 165.852037 232.747342 
L 165.49309 232.748124 
L 165.473681 232.746561 
L 161.605781 232.740306 
L 161.404148 232.739718 
L 160.417243 232.736839 
L 159.725249 232.749552 
L 157.169514 232.742788 
L 157.01431 232.74272 
L 152.980533 232.737859 
L 151.981666 232.737383 
L 148.654431 232.717056 
L 147.579491 232.737383 
L 145.907529 232.741054 
L 144.951355 232.735785 
L 144.405387 232.737485 
L 144.405387 232.735411 
L 144.328227 232.735139 
L 144.279688 232.735038 
L 144.127373 232.734698 
L 143.021233 232.737603 
L 142.445009 232.739116 
L 140.156344 232.734256 
L 139.365945 232.736533 
L 139.05982 232.716376 
L 135.096541 232.694622 
L 135.077472 232.694486 
L 134.696769 232.691427 
L 131.658189 232.666681 
L 127.586308 232.667633 
L 127.379471 232.665321 
L 127.336064 232.665083 
L 127.229229 232.664404 
L 124.381518 232.651979 
L 123.489647 232.648088 
L 121.048225 232.652303 
L 120.884251 232.653866 
L 120.837241 232.650569 
L 120.567962 232.652337 
L 108.673672 232.701998 
L 108.636792 232.698089 
L 107.323199 232.710292 
L 107.32031 232.70951 
L 106.016507 232.722223 
L 105.8956 232.725248 
L 104.460319 232.733678 
L 102.456025 232.755058 
L 101.695402 232.744929 
L 101.403417 232.751047 
L 100.022284 232.753971 
L 99.744882 232.754175 
L 98.339105 232.769777 
L 97.114536 232.770524 
L 96.68577 232.765732 
L 96.675097 232.771986 
L 95.285504 232.785855 
L 95.282203 232.785888 
L 93.550824 232.789559 
L 93.002239 232.785073 
L 91.610365 232.792177 
L 91.173169 232.793706 
L 91.163278 232.79374 
L 86.243247 232.820831 
L 86.194877 232.823551 
L 81.269952 232.849826 
L 81.20615 232.851152 
L 80.577108 232.853463 
L 79.364028 232.858766 
L 79.32538 232.860193 
L 76.93508 232.87226 
L 75.788215 232.87447 
L 74.558649 232.878957 
L 74.557925 232.878961 
L 73.023706 232.887828 
L 72.983018 232.8898 
L 62.756849 232.93715 
L 59.425468 232.952548 
L 59.425468 232.951766 
L 58.48187 232.956763 
L 58.004871 232.95819 
L 58.014661 231.882061 
L 58.014729 231.675972 
L 58.015714 231.629302 
L 58.021561 231.553875 
L 58.015748 231.530557 
L 58.013607 229.10127 
L 58.019521 228.916969 
L 58.009902 228.473451 
L 58.00844 228.473451 
L 58.012961 227.905015 
L 58.014287 223.947753 
L 58.02445 222.605574 
L 58.019249 222.203117 
L 58.013913 220.737312 
L 58.010004 220.73031 
L 58.029209 219.975738 
L 58.02711 219.493999 
L 58.024042 218.790123 
L 58.02428 217.945712 
L 58.021357 217.941803 
L 58.019793 216.764584 
L 58.020303 215.521251 
L 58.012485 214.528876 
L 58.016462 214.327478 
L 58.016632 213.756731 
L 58.026014 212.060873 
L 58.027135 210.823115 
L 58.027237 210.475962 
L 58.02343 210.095736 
L 58.027509 209.594195 
L 58.017244 208.117649 
L 58.01337 207.619145 
L 58.007658 206.88414 
L 57.990323 205.912194 
L 57.980635 205.409905 
L 57.977916 204.709311 
L 57.971594 203.221072 
L 57.950315 201.242576 
L 57.950349 201.175715 
L 57.923156 197.184122 
L 57.936379 194.890425 
L 57.925026 194.482462 
L 57.936515 193.912599 
L 57.931518 190.233487 
L 57.927708 189.812111 
L 57.925761 189.59669 
L 57.925739 189.594315 
L 57.92421 188.115525 
L 57.912959 185.664925 
L 57.930022 184.598178 
L 57.913231 184.466359 
L 57.900042 183.311778 
L 57.902116 181.552799 
L 57.90215 181.548142 
L 57.907248 180.927733 
L 57.903475 180.247466 
L 57.904631 179.739807 
L 57.903883 178.962189 
L 57.901272 177.821461 
L 57.901266 177.818723 
L 57.90854 175.970686 
L 57.907588 175.789546 
L 57.905617 175.780199 
L 57.906738 175.389163 
L 57.905753 175.326959 
L 57.903849 175.02063 
L 57.898309 173.090878 
L 57.9013 173.050463 
L 57.898444 172.556366 
L 57.895827 172.101257 
L 57.899702 171.557056 
L 57.897867 171.083592 
L 57.857655 163.14167 
L 57.838518 160.33185 
L 57.836662 160.214731 
L 57.834575 160.083068 
L 57.793819 154.436508 
L 57.77645 152.037609 
L 57.769414 151.02178 
L 57.762513 150.525066 
L 57.762547 150.350929 
L 57.75201 147.534753 
L 57.752214 146.497747 
L 57.756259 146.421573 
L 57.749127 145.427396 
L 57.747693 145.227596 
L 57.742663 144.606474 
L 57.726755 142.780565 
L 57.737734 142.516657 
L 57.720908 141.776259 
L 57.698474 136.90198 
L 57.696298 136.415259 
L 57.694769 136.069908 
L 57.687767 135.854608 
L 57.681818 130.644665 
" clip-path="url(#p7f58dc85c8)" style="fill: #00aaa1"/>
   </g>
   <g id="PathCollection_1">
    <defs>
     <path id="m90f2c739c0" d="M 0 1.581139 
C 0.419323 1.581139 0.821528 1.41454 1.118034 1.118034 
C 1.41454 0.821528 1.581139 0.419323 1.581139 0 
C 1.581139 -0.419323 1.41454 -0.821528 1.118034 -1.118034 
C 0.821528 -1.41454 0.419323 -1.581139 0 -1.581139 
C -0.419323 -1.581139 -0.821528 -1.41454 -1.118034 -1.118034 
C -1.41454 -0.821528 -1.581139 -0.419323 -1.581139 0 
C -1.581139 0.419323 -1.41454 0.821528 -1.118034 1.118034 
C -0.821528 1.41454 -0.419323 1.581139 0 1.581139 
z
" style="stroke: #000000"/>
    </defs>
    <g clip-path="url(#p7f58dc85c8)">
     <use xlink:href="#m90f2c739c0" x="274.334908" y="163.102478" style="stroke: #000000"/>
    </g>
   </g>
   <g id="text_1">
    <!-- Topeka -->
    <g transform="translate(277.334908 160.102478) scale(0.1 -0.1)">
     <defs>
      <path id="DejaVuSans-54" d="M -19 4666 
L 3928 4666 
L 3928 4134 
L 2272 4134 
L 2272 0 
L 1638 0 
L 1638 4134 
L -19 4134 
L -19 4666 
z
" transform="scale(0.015625)"/>
      <path id="DejaVuSans-6f" d="M 1959 3097 
Q 1497 3097 1228 2736 
Q 959 2375 959 1747 
Q 959 1119 1226 758 
Q 1494 397 1959 397 
Q 2419 397 2687 759 
Q 2956 1122 2956 1747 
Q 2956 2369 2687 2733 
Q 2419 3097 1959 3097 
z
M 1959 3584 
Q 2709 3584 3137 3096 
Q 3566 2609 3566 1747 
Q 3566 888 3137 398 
Q 2709 -91 1959 -91 
Q 1206 -91 779 398 
Q 353 888 353 1747 
Q 353 2609 779 3096 
Q 1206 3584 1959 3584 
z
" transform="scale(0.015625)"/>
      <path id="DejaVuSans-70" d="M 1159 525 
L 1159 -1331 
L 581 -1331 
L 581 3500 
L 1159 3500 
L 1159 2969 
Q 1341 3281 1617 3432 
Q 1894 3584 2278 3584 
Q 2916 3584 3314 3078 
Q 3713 2572 3713 1747 
Q 3713 922 3314 415 
Q 2916 -91 2278 -91 
Q 1894 -91 1617 61 
Q 1341 213 1159 525 
z
M 3116 1747 
Q 3116 2381 2855 2742 
Q 2594 3103 2138 3103 
Q 1681 3103 1420 2742 
Q 1159 2381 1159 1747 
Q 1159 1113 1420 752 
Q 1681 391 2138 391 
Q 2594 391 2855 752 
Q 3116 1113 3116 1747 
z
" transform="scale(0.015625)"/>
      <path id="DejaVuSans-65" d="M 3597 1894 
L 3597 1613 
L 953 1613 
Q 991 1019 1311 708 
Q 1631 397 2203 397 
Q 2534 397 2845 478 
Q 3156 559 3463 722 
L 3463 178 
Q 3153 47 2828 -22 
Q 2503 -91 2169 -91 
Q 1331 -91 842 396 
Q 353 884 353 1716 
Q 353 2575 817 3079 
Q 1281 3584 2069 3584 
Q 2775 3584 3186 3129 
Q 3597 2675 3597 1894 
z
M 3022 2063 
Q 3016 2534 2758 2815 
Q 2500 3097 2075 3097 
Q 1594 3097 1305 2825 
Q 1016 2553 972 2059 
L 3022 2063 
z
" transform="scale(0.015625)"/>
      <path id="DejaVuSans-6b" d="M 581 4863 
L 1159 4863 
L 1159 1991 
L 2875 3500 
L 3609 3500 
L 1753 1863 
L 3688 0 
L 2938 0 
L 1159 1709 
L 1159 0 
L 581 0 
L 581 4863 
z
" transform="scale(0.015625)"/>
      <path id="DejaVuSans-61" d="M 2194 1759 
Q 1497 1759 1228 1600 
Q 959 1441 959 1056 
Q 959 750 1161 570 
Q 1363 391 1709 391 
Q 2188 391 2477 730 
Q 2766 1069 2766 1631 
L 2766 1759 
L 2194 1759 
z
M 3341 1997 
L 3341 0 
L 2766 0 
L 2766 531 
Q 2569 213 2275 61 
Q 1981 -91 1556 -91 
Q 1019 -91 701 211 
Q 384 513 384 1019 
Q 384 1609 779 1909 
Q 1175 2209 1959 2209 
L 2766 2209 
L 2766 2266 
Q 2766 2663 2505 2880 
Q 2244 3097 1772 3097 
Q 1472 3097 1187 3025 
Q 903 2953 641 2809 
L 641 3341 
Q 956 3463 1253 3523 
Q 1550 3584 1831 3584 
Q 2591 3584 2966 3190 
Q 3341 2797 3341 1997 
z
" transform="scale(0.015625)"/>
     </defs>
     <use xlink:href="#DejaVuSans-54"/>
     <use xlink:href="#DejaVuSans-6f" x="44.083984"/>
     <use xlink:href="#DejaVuSans-70" x="105.265625"/>
     <use xlink:href="#DejaVuSans-65" x="168.742188"/>
     <use xlink:href="#DejaVuSans-6b" x="230.265625"/>
     <use xlink:href="#DejaVuSans-61" x="286.425781"/>
    </g>
   </g>
   <g id="text_2">
    <!-- Kansas -->
    <g transform="translate(163.262812 119.525991) scale(0.12 -0.12)">
     <defs>
      <path id="DejaVuSans-4b" d="M 628 4666 
L 1259 4666 
L 1259 2694 
L 3353 4666 
L 4166 4666 
L 1850 2491 
L 4331 0 
L 3500 0 
L 1259 2247 
L 1259 0 
L 628 0 
L 628 4666 
z
" transform="scale(0.015625)"/>
      <path id="DejaVuSans-6e" d="M 3513 2113 
L 3513 0 
L 2938 0 
L 2938 2094 
Q 2938 2591 2744 2837 
Q 2550 3084 2163 3084 
Q 1697 3084 1428 2787 
Q 1159 2491 1159 1978 
L 1159 0 
L 581 0 
L 581 3500 
L 1159 3500 
L 1159 2956 
Q 1366 3272 1645 3428 
Q 1925 3584 2291 3584 
Q 2894 3584 3203 3211 
Q 3513 2838 3513 2113 
z
" transform="scale(0.015625)"/>
      <path id="DejaVuSans-73" d="M 2834 3397 
L 2834 2853 
Q 2591 2978 2328 3040 
Q 2066 3103 1784 3103 
Q 1356 3103 1142 2972 
Q 928 2841 928 2578 
Q 928 2378 1081 2264 
Q 1234 2150 1697 2047 
L 1894 2003 
Q 2506 1872 2764 1633 
Q 3022 1394 3022 966 
Q 3022 478 2636 193 
Q 2250 -91 1575 -91 
Q 1294 -91 989 -36 
Q 684 19 347 128 
L 347 722 
Q 666 556 975 473 
Q 1284 391 1588 391 
Q 1994 391 2212 530 
Q 2431 669 2431 922 
Q 2431 1156 2273 1281 
Q 2116 1406 1581 1522 
L 1381 1569 
Q 847 1681 609 1914 
Q 372 2147 372 2553 
Q 372 3047 722 3315 
Q 1072 3584 1716 3584 
Q 2034 3584 2315 3537 
Q 2597 3491 2834 3397 
z
" transform="scale(0.015625)"/>
     </defs>
     <use xlink:href="#DejaVuSans-4b"/>
     <use xlink:href="#DejaVuSans-61" x="63.826172"/>
     <use xlink:href="#DejaVuSans-6e" x="125.105469"/>
     <use xlink:href="#DejaVuSans-73" x="188.484375"/>
     <use xlink:href="#DejaVuSans-61" x="240.583984"/>
     <use xlink:href="#DejaVuSans-73" x="301.863281"/>
    </g>
   </g>
  </g>
 </g>
 <defs>
  <clipPath id="p7f58dc85c8">
   <rect x="45" y="125.525991" width="279" height="112.548018"/>
  </clipPath>
 </defs>
</svg>
