<?xml version="1.0" encoding="utf-8" standalone="no"?>
<!DOCTYPE svg PUBLIC "-//W3C//DTD SVG 1.1//EN"
  "http://www.w3.org/Graphics/SVG/1.1/DTD/svg11.dtd">
<svg xmlns:xlink="http://www.w3.org/1999/xlink" width="360pt" height="360pt" viewBox="0 0 360 360" xmlns="http://www.w3.org/2000/svg" version="1.1">
 <metadata>
  <rdf:RDF xmlns:dc="http://purl.org/dc/elements/1.1/" xmlns:cc="http://creativecommons.org/ns#" xmlns:rdf="http://www.w3.org/1999/02/22-rdf-syntax-ns#">
   <cc:Work>
    <dc:type rdf:resource="http://purl.org/dc/dcmitype/StillImage"/>
    <dc:date>2023-06-19T15:20:25.897437</dc:date>
    <dc:format>image/svg+xml</dc:format>
    <dc:creator>
     <cc:Agent>
      <dc:title>Matplotlib v3.7.1, https://matplotlib.org/</dc:title>
     </cc:Agent>
    </dc:creator>
   </cc:Work>
  </rdf:RDF>
 </metadata>
 <defs>
  <style type="text/css">*{stroke-linejoin: round; stroke-linecap: butt}</style>
 </defs>
 <g id="figure_1">
  <g id="patch_1">
   <path d="M 0 360 
L 360 360 
L 360 0 
L 0 0 
z
" style="fill: #ffffff"/>
  </g>
  <g id="axes_1">
   <g id="PatchCollection_1">
    <path d="M 63.212174 224.952095 
L 63.444552 224.479803 
L 63.507039 224.158161 
L 63.513175 224.009645 
L 63.537116 223.902276 
L 63.975496 223.103541 
L 64.046153 222.852557 
L 64.133883 222.286834 
L 64.188735 222.094369 
L 64.219212 222.032648 
L 64.367628 221.861891 
L 64.549489 221.721211 
L 64.850857 221.608506 
L 65.276233 221.523411 
L 65.599908 221.48143 
L 65.815223 221.483314 
L 65.843823 221.483564 
L 66.129819 221.721211 
L 66.288172 221.885899 
L 66.685072 222.418811 
L 66.913982 222.765894 
L 67.437558 223.300407 
L 67.678472 223.510878 
L 67.80028 223.593539 
L 68.069137 223.718881 
L 68.125022 223.725583 
L 68.851132 223.663029 
L 69.158669 223.577967 
L 69.487846 223.351758 
L 69.617356 223.219713 
L 69.982679 222.50424 
L 70.039531 221.950688 
L 70.098417 221.701537 
L 70.147834 221.591934 
L 70.318291 221.356488 
L 70.478111 221.185831 
L 70.625761 221.066491 
L 70.911857 220.875694 
L 70.913828 220.873804 
L 71.24997 220.551718 
L 71.434066 220.344315 
L 71.112524 220.159587 
L 71.007189 220.138446 
L 71.087716 220.069423 
L 71.137933 219.949616 
L 71.136099 219.705368 
L 71.085882 219.593197 
L 70.908689 219.42374 
L 70.591249 219.181058 
L 70.201652 218.821638 
L 70.086947 218.687326 
L 70.0452 218.550747 
L 70.034696 218.362984 
L 70.076343 218.081389 
L 70.142699 217.908165 
L 70.351269 217.647911 
L 70.585681 217.433805 
L 70.75167 217.350644 
L 71.099753 217.23924 
L 71.173711 217.233905 
L 71.503756 217.356113 
L 71.678281 217.346243 
L 71.993153 217.376086 
L 72.219729 217.489891 
L 72.39042 217.49836 
L 72.532634 217.49726 
L 72.656142 217.393592 
L 72.763912 217.22827 
L 72.851774 216.969683 
L 72.868313 216.807429 
L 72.842305 216.70126 
L 72.722598 216.485721 
L 72.621098 216.379462 
L 72.619463 216.377751 
L 72.439636 216.298791 
L 72.296688 216.280418 
L 71.929965 216.27625 
L 71.540401 216.250475 
L 71.374145 216.190855 
L 71.121361 216.03557 
L 71.034298 215.950608 
L 70.901238 215.758815 
L 70.822627 215.645505 
L 70.778212 215.556842 
L 70.762207 215.457242 
L 70.784047 215.335902 
L 70.773577 214.841936 
L 70.798085 214.734633 
L 70.83063 214.694853 
L 70.955938 214.560575 
L 71.056606 214.503356 
L 71.175279 214.469778 
L 71.421195 214.470578 
L 71.492418 214.443902 
L 71.619694 214.334032 
L 71.814393 214.315759 
L 72.138002 214.309057 
L 72.338902 213.972678 
L 72.513694 213.484647 
L 72.743405 213.127227 
L 72.818297 212.975043 
L 73.091388 211.884344 
L 73.332803 211.247863 
L 73.378518 211.087176 
L 73.378651 211.086215 
L 73.442639 210.624454 
L 73.437171 210.506448 
L 73.417598 210.401279 
L 73.308061 210.229322 
L 73.087354 210.000478 
L 72.902892 209.874703 
L 72.793855 209.823219 
L 72.568146 209.769201 
L 72.44147 209.777003 
L 72.306525 209.817283 
L 72.122396 209.716183 
L 71.381148 209.217282 
L 71.188416 209.107712 
L 71.032597 208.949826 
L 70.95007 208.838555 
L 70.770676 208.521148 
L 70.708189 208.323916 
L 70.652837 207.976066 
L 70.690849 207.674965 
L 70.757038 207.451323 
L 70.879046 207.149322 
L 71.007237 206.945421 
L 71.133731 206.744219 
L 71.58665 206.254421 
L 71.693686 206.201737 
L 71.743603 206.223711 
L 71.850338 206.194168 
L 72.026264 206.089099 
L 72.129265 205.987698 
L 72.208759 205.811273 
L 72.239302 205.775227 
L 72.568046 205.590665 
L 72.669813 205.506337 
L 72.721664 205.434813 
L 72.884585 205.358321 
L 73.030968 205.249251 
L 73.435837 204.518506 
L 73.51513 204.344014 
L 73.545674 204.204267 
L 73.639672 204.002599 
L 73.853344 203.697063 
L 74.196959 203.379523 
L 74.803329 202.924637 
L 75.362617 202.454013 
L 75.485825 202.418968 
L 75.73881 202.178487 
L 76.271589 202.013565 
L 76.541112 201.843241 
L 76.454016 201.863748 
L 76.706234 201.736439 
L 77.296699 201.593591 
L 77.844516 201.553377 
L 78.668793 201.589389 
L 78.970031 201.624785 
L 79.014442 201.630003 
L 79.138684 201.66229 
L 79.376797 201.724168 
L 79.508308 201.740107 
L 79.978232 201.906563 
L 81.088971 202.22627 
L 82.238657 202.667251 
L 82.709348 202.810066 
L 83.216685 202.930373 
L 83.495012 203.055115 
L 83.842662 203.264185 
L 84.092112 203.46722 
L 84.209352 203.591094 
L 84.56257 203.795096 
L 84.972341 204.060552 
L 85.205853 204.165154 
L 85.476877 204.333577 
L 85.671342 204.418839 
L 85.960272 204.510936 
L 86.067508 204.529376 
L 86.656739 204.46252 
L 86.942502 204.512237 
L 87.149772 204.57149 
L 88.580085 205.122808 
L 88.809995 205.173992 
L 89.055811 205.184196 
L 89.213064 205.235713 
L 89.694859 205.459555 
L 90.038174 205.648418 
L 90.278988 205.825811 
L 90.436208 205.896034 
L 90.688692 206.199069 
L 90.852647 206.356289 
L 91.097496 206.47763 
L 91.281888 206.600051 
L 91.409034 206.684466 
L 91.896831 206.884766 
L 92.357886 206.978498 
L 92.695999 207.032116 
L 92.932078 207.043886 
L 93.262823 207.042752 
L 93.73501 206.957017 
L 93.74195 206.955757 
L 93.982431 206.981098 
L 94.206806 206.944119 
L 94.779631 206.75829 
L 95.257892 205.93118 
L 95.319979 205.623043 
L 95.293471 205.600535 
L 95.293471 205.578028 
L 95.550523 205.049084 
L 95.588136 205.003435 
L 95.91908 204.220606 
L 95.931518 204.136344 
L 95.808343 203.958618 
L 95.748023 203.928274 
L 95.695272 203.873923 
L 95.61878 203.748147 
L 95.629717 203.688094 
L 95.485435 203.216735 
L 95.427215 203.158949 
L 95.346222 202.915668 
L 95.152557 202.432472 
L 95.056224 202.315133 
L 94.7858 202.098727 
L 94.511775 201.982355 
L 94.352655 201.87802 
L 94.138383 201.641407 
L 94.086666 201.562881 
L 93.91154 201.190489 
L 93.835015 201.080352 
L 93.664757 200.934703 
L 93.384863 200.763512 
L 93.142982 200.540704 
L 93.099735 200.478383 
L 93.179295 200.327466 
L 93.091098 200.102657 
L 92.879294 199.747705 
L 92.921908 199.517461 
L 93.02741 199.264743 
L 93.122109 199.103822 
L 93.241149 198.953605 
L 93.391899 198.62136 
L 93.606271 198.29235 
L 93.733881 198.047168 
L 93.846018 197.895317 
L 93.928879 197.694816 
L 93.990567 197.384512 
L 94.007206 197.06107 
L 94.126912 196.713053 
L 94.191301 196.318821 
L 94.403639 196.00605 
L 94.549121 195.862935 
L 94.877931 195.598346 
L 95.073763 195.490477 
L 95.433684 195.333791 
L 95.638786 195.275338 
L 95.8789 195.232924 
L 96.125216 195.148028 
L 96.248982 195.092056 
L 96.308144 195.065301 
L 96.451526 195.040359 
L 96.607611 195.076038 
L 96.833921 195.159466 
L 97.156396 195.33159 
L 97.495243 195.553564 
L 97.630688 195.736392 
L 97.70508 195.790144 
L 97.896577 195.825722 
L 98.027088 195.783442 
L 98.128822 195.720563 
L 98.131156 195.71912 
L 98.465635 195.523521 
L 98.973205 194.97387 
L 99.0586 194.903646 
L 99.372806 194.723953 
L 99.495314 194.674836 
L 99.660036 194.527687 
L 100.152334 194.320117 
L 100.690981 194.127386 
L 101.573744 193.988939 
L 102.154239 193.986839 
L 102.580115 193.967532 
L 103.183284 193.874234 
L 103.793756 193.817282 
L 104.238305 193.754127 
L 104.355644 193.693374 
L 104.845909 193.649192 
L 105.576787 193.49284 
L 105.660615 193.495207 
L 105.8146 193.530152 
L 106.434575 193.468065 
L 106.888027 193.446191 
L 107.043479 193.457061 
L 107.043479 193.489872 
L 107.069355 193.511746 
L 107.159918 193.511746 
L 107.276391 193.457061 
L 107.482593 193.208744 
L 107.669356 193.094806 
L 107.798799 193.149558 
L 107.824675 193.160495 
L 107.941181 193.061962 
L 108.005869 192.952292 
L 108.00987 192.911611 
L 107.983995 192.900674 
L 107.945149 192.813045 
L 107.996899 192.681734 
L 108.03928 192.372264 
L 108.037605 192.369111 
L 107.988063 192.275865 
L 107.996733 192.094471 
L 107.971958 192.021379 
L 107.78166 191.703206 
L 107.674158 191.585533 
L 107.480626 191.478731 
L 107.208935 191.406806 
L 107.147081 191.375529 
L 106.988194 191.225046 
L 106.709434 190.835148 
L 106.562351 190.673427 
L 106.270753 190.47306 
L 106.031106 190.27376 
L 105.69416 190.113639 
L 105.635107 190.071392 
L 105.542709 189.869657 
L 105.4157 189.664055 
L 105.383456 189.516872 
L 105.407264 189.370223 
L 105.389725 189.240346 
L 105.340608 189.087662 
L 104.991624 188.451115 
L 104.853711 188.118537 
L 104.802127 187.880223 
L 104.793258 187.575154 
L 104.745842 187.400596 
L 104.741674 187.291893 
L 104.76885 187.150012 
L 104.807696 187.060148 
L 105.026469 186.708163 
L 105.233606 186.458346 
L 105.605464 186.161313 
L 105.670185 185.973117 
L 105.913867 185.641272 
L 106.001263 185.554876 
L 106.154948 185.458244 
L 106.512234 185.34714 
L 106.687093 185.276416 
L 106.889995 185.104059 
L 107.218705 184.924598 
L 107.351283 184.864512 
L 107.664288 184.767912 
L 107.955585 184.589219 
L 108.096099 184.457075 
L 108.41774 184.074613 
L 108.662489 183.639734 
L 108.720142 183.474278 
L 108.790299 183.066642 
L 108.888398 182.81289 
L 109.001403 182.664707 
L 109.148386 182.569241 
L 109.382097 182.496384 
L 109.578063 182.479011 
L 109.926113 182.538531 
L 110.179665 182.620992 
L 110.313143 182.68488 
L 110.377531 182.741799 
L 110.511276 182.803387 
L 110.604608 182.816791 
L 110.87033 182.943367 
L 111.023181 183.055271 
L 111.074632 183.148369 
L 111.415813 183.436232 
L 111.663896 183.485616 
L 111.797141 183.465542 
L 111.868198 183.427763 
L 111.933453 183.368443 
L 112.130453 182.946368 
L 112.221717 182.886715 
L 112.260496 182.815891 
L 112.25256 182.702753 
L 112.331987 182.620992 
L 112.499076 182.548334 
L 112.779337 182.472409 
L 113.047794 182.371375 
L 113.190408 182.289147 
L 113.264267 182.125693 
L 113.290642 181.951101 
L 113.158298 181.289245 
L 113.074836 181.09568 
L 112.920918 180.888878 
L 112.507079 180.585743 
L 112.209479 180.278039 
L 112.146125 180.187542 
L 112.083537 180.04106 
L 112.049659 179.903547 
L 112.055728 179.7645 
L 112.081403 179.620052 
L 112.138222 179.515617 
L 112.19094 179.456097 
L 112.346158 179.298277 
L 112.491541 179.178104 
L 112.514108 179.15203 
L 112.692441 178.945992 
L 113.257798 178.378902 
L 113.482106 178.291473 
L 113.668535 178.277602 
L 113.973638 178.33402 
L 114.173572 178.407512 
L 114.333125 178.508712 
L 114.565937 178.706879 
L 114.647997 178.813515 
L 114.793346 179.11625 
L 114.843196 179.187273 
L 115.23176 179.437291 
L 115.261737 179.47407 
L 115.361704 179.619552 
L 115.364304 179.762666 
L 115.378376 179.798278 
L 115.481444 179.883507 
L 115.622124 179.965034 
L 115.732328 179.991977 
L 116.484747 180.036158 
L 116.912491 180.033424 
L 117.055372 180.018719 
L 117.076249 180.014807 
L 117.205189 179.990643 
L 117.297353 179.950529 
L 117.651739 179.724287 
L 117.718794 179.667034 
L 118.010359 179.512149 
L 118.747673 179.387307 
L 118.976016 179.397444 
L 119.298291 179.473736 
L 119.487154 179.456664 
L 119.730436 179.412382 
L 120.055878 179.299811 
L 120.063556 179.296637 
L 120.475253 179.12642 
L 120.619301 179.092275 
L 120.742009 179.099744 
L 120.89566 179.144559 
L 121.038141 179.225653 
L 121.204064 179.349428 
L 121.252613 179.425187 
L 121.324638 179.689809 
L 121.326138 179.827488 
L 121.283424 179.969969 
L 121.214267 180.071003 
L 121.124104 180.159333 
L 120.980489 180.262201 
L 120.906664 180.344428 
L 120.698828 180.678841 
L 120.689925 180.995847 
L 120.730305 181.188912 
L 120.780355 181.33226 
L 120.902062 181.485278 
L 121.006798 181.57214 
L 121.202697 181.627892 
L 121.58119 181.675175 
L 121.891728 181.679776 
L 122.226907 181.642564 
L 122.586761 181.573807 
L 122.907369 181.477208 
L 123.006502 181.414987 
L 123.2008 181.253967 
L 123.704136 180.654666 
L 123.796667 180.509884 
L 123.80677 180.249563 
L 123.701535 179.635924 
L 123.51694 179.462532 
L 123.355252 179.351562 
L 123.138113 179.249127 
L 122.744881 178.978103 
L 122.644047 178.850594 
L 122.545347 178.6708 
L 122.473323 178.493674 
L 122.455183 178.318148 
L 122.566688 178.093807 
L 122.771023 177.923883 
L 123.060186 177.721682 
L 123.213571 177.553625 
L 123.303601 177.243521 
L 123.246916 177.16016 
L 123.246916 177.036785 
L 123.293598 176.910076 
L 123.373625 176.790036 
L 123.530344 176.713343 
L 123.657053 176.679999 
L 123.760421 176.67333 
L 123.824392 176.683172 
L 123.890465 176.693337 
L 124.050552 176.760026 
L 124.157255 176.82338 
L 124.263957 176.950089 
L 124.307305 177.120147 
L 124.278228 177.380234 
L 124.353487 177.626183 
L 124.474594 177.834253 
L 124.558889 177.944156 
L 124.776562 178.170366 
L 125.045486 178.361363 
L 125.137984 178.408713 
L 125.224746 178.453127 
L 125.703873 178.665465 
L 126.078933 178.788173 
L 126.371864 178.994642 
L 126.505776 178.984505 
L 126.71758 178.903412 
L 127.075033 178.652661 
L 127.210546 178.534754 
L 127.905212 178.085537 
L 128.383297 177.839096 
L 128.407247 177.82675 
L 128.496344 177.794206 
L 128.860699 177.735353 
L 129.138726 177.714713 
L 129.470037 177.716313 
L 130.001982 177.799541 
L 130.051065 177.834219 
L 130.382037 177.923336 
L 130.748399 178.021982 
L 130.995891 178.134571 
L 131.008753 178.140422 
L 131.022091 178.151626 
L 130.999684 178.190039 
L 131.012488 178.207645 
L 131.302752 178.463731 
L 131.368907 178.508546 
L 131.480412 178.524018 
L 131.599918 178.60031 
L 131.669808 178.671267 
L 131.925928 178.836656 
L 132.243901 178.956663 
L 132.284981 178.935322 
L 132.365008 178.933722 
L 132.756106 179.017483 
L 133.337533 179.256987 
L 133.346704 179.260765 
L 134.278817 179.777705 
L 134.428201 179.880673 
L 134.468091 179.920838 
L 134.660278 180.114351 
L 134.916364 180.298413 
L 136.060281 180.905016 
L 136.344644 181.002082 
L 136.683957 181.083176 
L 137.423439 181.163737 
L 137.731275 181.132259 
L 137.930275 181.169072 
L 138.015104 181.204283 
L 138.129842 181.280576 
L 138.309636 181.463537 
L 138.694298 182.003985 
L 138.842615 182.301151 
L 138.842728 182.301542 
L 138.987764 182.803187 
L 139.105136 182.989916 
L 139.175026 183.0422 
L 139.451919 183.115291 
L 139.721877 183.126495 
L 140.096436 183.055538 
L 140.405339 182.949902 
L 140.846554 182.669775 
L 140.874093 182.646132 
L 141.069029 182.478778 
L 141.165594 182.341132 
L 141.247222 182.193882 
L 141.49904 181.627826 
L 141.580133 181.366405 
L 141.711911 180.753399 
L 141.785002 180.551198 
L 141.965263 180.182707 
L 141.992105 180.040893 
L 141.980168 179.877805 
L 141.955593 179.741593 
L 141.89724 179.623253 
L 141.885803 179.546827 
L 141.923682 179.416484 
L 142.018781 179.2659 
L 142.312379 178.989074 
L 143.083604 178.553094 
L 143.317483 178.462163 
L 144.129222 178.201909 
L 144.133313 178.200812 
L 144.459766 178.11328 
L 144.601781 178.129085 
L 145.273739 178.090739 
L 145.649732 178.04389 
L 145.836795 178.043323 
L 146.117489 177.98637 
L 146.51968 177.776702 
L 146.524225 177.774333 
L 146.681545 177.669698 
L 147.025961 177.343988 
L 147.263474 177.062427 
L 147.384281 176.957392 
L 147.566475 176.849122 
L 147.749403 176.698872 
L 147.864509 176.564894 
L 147.988283 176.458158 
L 148.230831 176.298204 
L 148.461676 176.20724 
L 148.924031 176.082865 
L 149.313161 175.90984 
L 149.427199 175.894735 
L 149.587387 175.911908 
L 149.604432 175.918669 
L 149.732569 175.969494 
L 150.26368 176.241852 
L 150.409996 176.539285 
L 150.495124 176.780099 
L 150.763581 177.324215 
L 151.261715 178.124884 
L 151.730672 178.779003 
L 152.273254 179.322719 
L 152.381891 179.397644 
L 152.689094 179.454063 
L 152.815303 179.438224 
L 152.892796 179.406547 
L 153.170289 179.263366 
L 153.697866 178.924519 
L 153.897233 178.772634 
L 154.066823 178.708413 
L 154.329944 178.711981 
L 154.73508 178.773468 
L 155.095234 178.854929 
L 155.195468 178.921451 
L 155.247752 178.991208 
L 155.293434 179.130021 
L 155.296902 179.268867 
L 155.273061 179.382105 
L 155.140583 179.674537 
L 154.818908 180.230057 
L 154.723576 180.450631 
L 154.681496 180.644362 
L 154.710105 180.885677 
L 154.822443 181.071406 
L 154.921543 181.125957 
L 155.014241 181.155034 
L 155.163891 181.162069 
L 155.489433 181.118955 
L 155.622611 181.081376 
L 155.906307 180.967304 
L 156.258025 180.780875 
L 156.459826 180.695813 
L 156.611176 180.600314 
L 156.828449 180.296546 
L 156.854725 180.203848 
L 156.849523 180.159966 
L 156.785702 180.050763 
L 156.82148 179.8618 
L 156.827015 179.723987 
L 156.76216 179.1683 
L 156.77043 178.983705 
L 156.816979 178.843291 
L 156.894571 178.732454 
L 157.146123 178.503377 
L 157.214112 178.465831 
L 157.421515 178.437155 
L 157.890539 178.469866 
L 158.482371 178.613981 
L 158.741958 178.646359 
L 158.960898 178.641824 
L 159.156864 178.588106 
L 159.458265 178.469899 
L 159.732857 178.337955 
L 159.838693 178.247625 
L 159.879073 178.184604 
L 159.864968 177.993873 
L 159.786708 177.792039 
L 159.680073 177.643389 
L 159.480439 177.481735 
L 159.416151 177.393705 
L 159.30518 177.135918 
L 159.260399 176.933884 
L 159.269935 176.480198 
L 159.238058 175.928313 
L 159.243826 175.636215 
L 159.277671 175.444518 
L 159.286707 175.253954 
L 159.267234 174.94485 
L 159.372069 174.596466 
L 159.452796 174.499301 
L 159.52332 174.452852 
L 159.707682 174.392365 
L 160.098113 174.348717 
L 160.407604 174.351535 
L 160.7536 174.354685 
L 161.036695 174.333345 
L 161.693948 174.190897 
L 162.159305 173.859586 
L 162.340932 173.634677 
L 162.430896 173.252316 
L 162.299018 172.981391 
L 161.473775 172.659917 
L 161.304951 172.500763 
L 161.226291 172.313901 
L 161.230826 172.058615 
L 161.325291 171.897194 
L 161.39912 171.833959 
L 161.529793 171.722035 
L 161.773942 171.632272 
L 162.37561 171.669018 
L 162.808722 171.950045 
L 163.265276 172.346578 
L 163.379147 172.360083 
L 163.560475 172.280289 
L 163.860542 171.718668 
L 164.108659 171.563882 
L 164.257075 171.518701 
L 165.019264 171.591058 
L 165.596825 171.564949 
L 165.8218 171.443742 
L 165.986689 171.238507 
L 166.059346 170.958879 
L 165.903727 170.728836 
L 164.980618 170.553377 
L 164.376582 170.399858 
L 164.186718 170.159911 
L 164.16281 169.677549 
L 164.259651 169.510426 
L 164.307859 169.427232 
L 164.755476 169.245705 
L 165.176984 169.360176 
L 165.674684 169.774482 
L 165.767765 169.834063 
L 166.197226 170.108961 
L 166.630171 170.276851 
L 167.176421 170.60436 
L 167.708966 171.277119 
L 167.728273 171.53594 
L 167.480423 172.589727 
L 167.478289 172.896696 
L 167.649547 173.625607 
L 167.85875 173.951984 
L 167.872721 173.969656 
L 168.060051 174.116505 
L 168.436877 174.346283 
L 169.0009 174.563856 
L 169.252251 174.764756 
L 169.423909 174.943416 
L 169.888464 175.145017 
L 170.405705 175.326345 
L 170.803972 175.497402 
L 171.030614 175.543684 
L 171.193202 175.545051 
L 172.068396 175.358622 
L 172.518313 175.340583 
L 172.830485 175.364991 
L 173.165664 175.427112 
L 173.578803 175.576695 
L 173.853595 175.703505 
L 174.103379 175.846186 
L 174.25813 175.976229 
L 174.305246 176.026213 
L 174.274069 176.09637 
L 174.383139 176.301272 
L 174.609382 176.687468 
L 174.713683 176.830583 
L 174.974404 177.089169 
L 175.156265 177.229283 
L 175.264635 177.266329 
L 175.3598 177.274332 
L 175.498713 177.229917 
L 175.571238 177.151457 
L 175.626523 177.054158 
L 175.658834 176.86206 
L 175.595713 176.500405 
L 175.604616 176.380832 
L 175.689444 176.204573 
L 175.78811 176.119878 
L 176.083343 176.003972 
L 176.467738 175.923512 
L 176.806504 175.881817 
L 176.886045 175.872028 
L 177.571409 175.755755 
L 178.162574 175.720544 
L 178.390384 175.687466 
L 178.504978 175.636374 
L 178.585061 175.60067 
L 178.789984 175.509306 
L 178.951638 175.393534 
L 179.098354 175.26389 
L 179.258975 175.092333 
L 179.309444 175.005134 
L 179.359775 174.918174 
L 179.39392 174.802936 
L 179.454207 174.504702 
L 179.493687 174.066722 
L 179.540103 173.812237 
L 179.584918 173.658052 
L 179.667612 173.427974 
L 179.901024 173.001165 
L 179.954342 172.531007 
L 179.934335 172.170886 
L 179.934178 172.169827 
L 179.790953 171.203895 
L 179.814295 170.500359 
L 180.121518 169.861002 
L 180.184419 169.7301 
L 180.281118 169.590053 
L 180.764613 169.09322 
L 180.95545 168.952947 
L 180.998861 168.921038 
L 181.044531 168.887469 
L 181.154744 168.806457 
L 181.725869 168.432332 
L 181.915627 168.207336 
L 181.925003 168.196219 
L 182.118401 167.879446 
L 182.118617 167.877996 
L 182.175087 167.499319 
L 182.171752 167.292616 
L 182.278455 166.93583 
L 182.46185 166.645732 
L 182.648579 166.519023 
L 182.901997 166.438996 
L 183.355516 166.372307 
L 183.572255 166.315622 
L 183.638944 166.275608 
L 183.721887 166.252384 
L 183.722306 166.252267 
L 184.075758 166.255601 
L 184.329176 166.332294 
L 184.575925 166.522358 
L 184.582594 166.549033 
L 184.555919 166.615689 
L 184.739347 166.785746 
L 185.076127 166.942465 
L 185.279528 166.965806 
L 185.483463 166.892582 
L 185.659872 166.809139 
L 186.33944 166.487697 
L 187.241104 166.061202 
L 187.323581 166.02219 
L 187.582685 165.844844 
L 187.608476 165.827191 
L 187.81918 165.520421 
L 188.112645 165.224355 
L 188.321249 164.967202 
L 188.569332 164.440092 
L 188.816882 163.822318 
L 188.84249 163.666533 
L 188.825418 163.31018 
L 188.841199 163.193929 
L 188.841423 163.192274 
L 188.986341 162.757065 
L 189.011614 162.681169 
L 189.110847 162.459761 
L 189.388807 161.966829 
L 189.432021 161.813178 
L 189.425619 161.766229 
L 189.855497 161.226381 
L 189.982073 161.133049 
L 190.518086 160.852922 
L 190.935026 160.759657 
L 191.666938 160.740051 
L 192.225859 160.666593 
L 192.538564 160.593002 
L 192.879511 160.490734 
L 193.482147 160.261157 
L 193.730364 160.045751 
L 194.014626 159.678995 
L 194.069677 159.589865 
L 194.128831 159.384496 
L 194.188917 159.25822 
L 194.299488 159.066356 
L 194.370612 158.992831 
L 194.555007 158.85942 
L 194.694154 158.781994 
L 194.828265 158.72204 
L 195.387486 158.528942 
L 195.673882 158.404801 
L 195.681216 158.399995 
L 195.918931 158.244214 
L 196.009295 158.149148 
L 196.201193 157.842979 
L 196.258612 157.656983 
L 196.269549 157.354382 
L 196.251243 157.082891 
L 196.115797 156.749445 
L 195.835457 156.323712 
L 195.572715 155.924702 
L 195.530167 155.810264 
L 195.491888 155.687522 
L 195.466646 155.521367 
L 195.463078 154.788521 
L 195.520431 154.237269 
L 195.486953 153.889786 
L 195.284452 153.530865 
L 194.928632 153.130498 
L 194.895454 153.031164 
L 194.878882 152.895586 
L 194.912594 152.678179 
L 195.04107 152.221593 
L 195.149506 152.087548 
L 195.36928 151.871409 
L 195.519497 151.652835 
L 195.642905 151.551135 
L 196.044507 151.371774 
L 196.224234 151.323825 
L 196.414497 151.296883 
L 196.762748 151.333562 
L 197.702963 151.513755 
L 197.984958 151.517057 
L 198.001159 151.515496 
L 198.386792 151.478344 
L 198.74768 151.403152 
L 199.01114 151.330133 
L 199.085994 151.309387 
L 199.911537 151.144532 
L 200.472492 151.119156 
L 200.931713 151.160437 
L 201.1923 151.202884 
L 201.485499 151.274408 
L 201.897003 151.472241 
L 202.032749 151.658504 
L 202.158425 151.783246 
L 202.578666 152.35137 
L 202.743321 152.501387 
L 203.005642 152.685148 
L 203.29764 152.810324 
L 203.394919 152.836338 
L 203.76423 152.935099 
L 203.871899 152.946469 
L 204.21088 152.919927 
L 204.363731 152.930697 
L 204.909581 152.791684 
L 205.219585 152.685782 
L 205.492376 152.56104 
L 205.680139 152.454104 
L 206.070004 152.158772 
L 206.551999 151.840098 
L 206.549431 151.812055 
L 206.671672 151.688914 
L 206.750032 151.639664 
L 207.376342 151.351601 
L 207.570107 151.216322 
L 207.71819 151.147266 
L 208.10712 151.034528 
L 208.517158 150.837762 
L 208.751537 150.693914 
L 209.330191 150.464781 
L 209.724063 150.308818 
L 210.118295 150.041962 
L 210.252007 149.973905 
L 210.44984 149.919654 
L 210.826066 149.889744 
L 211.365847 149.931258 
L 211.86238 150.023355 
L 212.081554 150.011551 
L 212.351444 149.948464 
L 212.943076 149.72949 
L 213.388559 149.512151 
L 213.653448 149.408782 
L 213.853882 149.377172 
L 214.888062 149.524821 
L 215.187696 149.595445 
L 215.596033 149.722721 
L 215.828044 149.758767 
L 216.07266 149.762001 
L 216.297302 149.716086 
L 216.356121 149.662768 
L 216.393634 149.56 
L 216.397202 149.44006 
L 216.320709 149.191876 
L 216.235114 149.021453 
L 215.881929 148.577504 
L 215.788964 148.351728 
L 215.786564 148.177436 
L 215.868925 148.034822 
L 216.006471 147.891874 
L 216.213007 147.751026 
L 216.677229 147.507511 
L 216.965006 147.294237 
L 216.995102 147.271932 
L 217.085533 147.179101 
L 217.175563 147.053959 
L 217.259024 146.881535 
L 217.299705 146.687336 
L 217.277864 146.516645 
L 217.238784 146.457259 
L 217.180865 146.406975 
L 216.777263 146.16216 
L 216.360489 146.026714 
L 216.149519 146.015477 
L 215.769424 145.955891 
L 214.759519 145.94262 
L 214.525474 145.893303 
L 214.447248 145.851422 
L 214.430716 145.830768 
L 214.217004 145.563759 
L 214.157384 145.41741 
L 214.142345 145.327013 
L 214.192562 145.185599 
L 214.426074 144.8897 
L 214.627075 144.700903 
L 215.613105 143.931712 
L 215.6979 143.815039 
L 215.789931 143.550784 
L 215.764523 143.366955 
L 215.669358 143.146081 
L 215.54775 142.928108 
L 215.457386 142.820372 
L 215.215172 142.619671 
L 215.136779 142.499164 
L 215.106469 142.421572 
L 214.886228 142.145546 
L 214.629945 141.873469 
L 214.44578 141.677955 
L 214.182943 141.502289 
L 214.022705 141.395194 
L 213.815669 141.168818 
L 213.641744 140.876987 
L 213.545378 140.782455 
L 213.538943 140.616699 
L 213.655349 140.447042 
L 213.822071 140.316665 
L 214.419514 140.067293 
L 214.761853 139.9244 
L 215.132477 139.58682 
L 215.46789 139.352475 
L 215.74525 139.131468 
L 215.910338 139.056443 
L 216.113373 139.012761 
L 216.326445 138.979017 
L 216.377328 138.958676 
L 216.426945 138.890654 
L 216.991568 138.764044 
L 217.196303 138.685418 
L 217.319311 138.593287 
L 217.894237 137.909791 
L 218.304375 137.639701 
L 218.42775 137.616359 
L 218.647824 137.613025 
L 219.051326 137.713058 
L 219.248058 137.79642 
L 219.501477 137.959775 
L 219.651527 138.10649 
L 220.055029 138.56331 
L 220.370551 138.946075 
L 220.461832 139.056809 
L 220.62522 139.180184 
L 220.878639 139.253509 
L 221.248763 139.263512 
L 221.545562 139.346873 
L 221.77564 139.473582 
L 222.372507 139.970416 
L 222.671866 140.050583 
L 222.783778 140.080553 
L 223.190047 140.087855 
L 223.398317 140.058612 
L 223.707554 139.926134 
L 224.383248 139.79369 
L 224.393409 139.787122 
L 224.656673 139.616964 
L 224.870078 139.36688 
L 224.973446 139.273515 
L 225.093486 139.21683 
L 225.336901 139.206826 
L 225.410259 139.223499 
L 225.967113 139.45691 
L 226.137203 139.460245 
L 226.463979 139.406893 
L 226.586046 139.359519 
L 226.720099 139.307493 
L 226.904127 139.18682 
L 226.92763 139.168353 
L 226.997492 139.113462 
L 227.197559 138.836702 
L 227.424301 138.636635 
L 227.581021 138.556608 
L 227.747927 138.489272 
L 227.771118 138.479916 
L 228.054546 138.469912 
L 228.277955 138.516595 
L 228.462983 138.603491 
L 228.614734 138.713294 
L 228.768119 138.873348 
L 228.938209 139.120097 
L 229.02824 139.386853 
L 228.991561 139.446874 
L 228.968219 139.633603 
L 229.024905 139.730302 
L 229.034908 139.920366 
L 229.018236 140.097092 
L 229.044912 140.277152 
L 229.128273 140.587223 
L 229.192561 140.69726 
L 229.265352 140.760714 
L 229.4075 140.831438 
L 229.891863 141.007364 
L 230.038612 141.007364 
L 230.091963 140.984023 
L 230.318706 141.020702 
L 230.562121 141.024036 
L 231.44245 141.150745 
L 231.922611 141.297428 
L 232.246053 141.43414 
L 232.476644 141.561201 
L 232.572829 141.614201 
L 232.792987 141.793662 
L 233.001606 141.963718 
L 233.301106 142.314702 
L 233.479033 142.66382 
L 233.54929 142.87359 
L 233.575599 143.019906 
L 233.621947 143.587129 
L 233.852425 144.004136 
L 234.12745 144.358288 
L 234.294373 144.480229 
L 234.764964 144.977662 
L 234.89124 145.090534 
L 235.270134 145.629815 
L 235.368767 145.758124 
L 235.453262 145.833983 
L 235.643392 146.090269 
L 235.713749 146.387069 
L 235.720785 146.515178 
L 235.728042 146.702471 
L 235.730622 146.76903 
L 235.6676 147.412379 
L 235.683006 147.776001 
L 235.748328 148.180104 
L 235.77764 148.284457 
L 235.78584 148.313648 
L 235.948595 148.609814 
L 236.056664 148.740258 
L 236.361933 149.008548 
L 236.605749 149.11255 
L 236.846963 149.168168 
L 238.262304 149.368602 
L 238.956671 149.549463 
L 239.604655 149.775005 
L 239.832031 149.890844 
L 240.315593 150.024256 
L 241.077282 150.183342 
L 241.346739 150.160801 
L 241.704363 150.153326 
L 241.739138 150.152599 
L 241.977751 150.180108 
L 242.690423 150.030424 
L 243.25758 149.860534 
L 243.612933 149.801981 
L 244.167552 149.628856 
L 244.724106 149.61952 
L 245.010102 149.659933 
L 245.329142 149.745162 
L 245.846782 150.046363 
L 245.842214 150.125723 
L 245.895732 150.147097 
L 246.221475 150.210351 
L 246.364689 150.207084 
L 246.663156 150.260535 
L 246.664959 150.260809 
L 247.225478 150.345897 
L 247.690267 150.451999 
L 247.911608 150.525957 
L 248.161759 150.639562 
L 248.39327 150.818289 
L 248.505008 150.96017 
L 248.589269 151.123158 
L 248.64032 151.284912 
L 248.704875 151.520791 
L 248.712677 151.632362 
L 248.73992 151.724226 
L 248.776399 151.802652 
L 248.906409 151.937864 
L 248.995806 151.999518 
L 249.401308 152.214024 
L 249.667197 152.285014 
L 249.919382 152.31279 
L 250.178402 152.377645 
L 250.440924 152.477412 
L 250.55973 152.550337 
L 250.676203 152.678646 
L 250.79821 153.036566 
L 250.892242 153.493453 
L 250.938257 153.642069 
L 251.058331 153.928766 
L 251.152129 154.026465 
L 251.294077 154.104458 
L 251.382273 154.1304 
L 251.799913 154.213428 
L 252.190477 154.26948 
L 252.771606 154.310427 
L 252.867104 154.35901 
L 252.899849 154.412028 
L 253.017488 154.480918 
L 253.192247 154.539204 
L 253.287291 154.541924 
L 253.330893 154.543172 
L 253.9473 154.804393 
L 254.148568 154.866214 
L 254.527795 154.931836 
L 254.667842 154.936437 
L 254.82146 154.914363 
L 254.950803 154.87625 
L 255.034465 154.847274 
L 255.140467 154.775616 
L 255.267943 154.633769 
L 255.365309 154.424832 
L 255.466677 154.118229 
L 255.485283 153.894721 
L 255.552605 153.602656 
L 255.591585 153.51416 
L 255.66461 153.421896 
L 255.901222 153.220628 
L 256.274214 153.061975 
L 257.640739 152.777679 
L 257.628502 152.808523 
L 257.829336 152.771978 
L 258.07035 152.687649 
L 258.489557 152.573744 
L 259.021703 152.463107 
L 259.434708 152.431763 
L 259.714202 152.476078 
L 259.987827 152.558106 
L 260.355383 152.727129 
L 260.584294 152.863442 
L 260.919639 153.124796 
L 261.061787 153.262776 
L 261.198433 153.351239 
L 261.473525 153.413026 
L 261.565356 153.401422 
L 261.901002 153.528865 
L 262.120576 153.55494 
L 262.794468 153.586051 
L 263.066393 153.650372 
L 263.976165 153.761343 
L 264.258026 153.817962 
L 264.579501 153.915861 
L 264.920148 154.066845 
L 265.468366 154.344772 
L 265.880771 154.617697 
L 266.055929 154.846907 
L 266.117683 155.110395 
L 266.132088 155.332803 
L 266.165366 155.459846 
L 266.21735 155.559579 
L 266.420552 155.757246 
L 266.541125 155.840274 
L 266.737225 155.928503 
L 266.995911 155.981521 
L 267.172904 155.935205 
L 267.251964 155.893058 
L 267.852299 155.364114 
L 267.879508 155.260179 
L 267.8843 155.255867 
L 268.002316 155.149675 
L 268.098515 155.110062 
L 268.317521 155.087388 
L 268.432727 154.993323 
L 268.617155 154.936237 
L 268.819123 154.914496 
L 269.056236 154.948474 
L 269.367274 155.062213 
L 269.769042 155.248275 
L 270.054938 155.30236 
L 270.423495 155.280953 
L 271.048804 155.192456 
L 271.312326 155.198592 
L 271.573014 155.18262 
L 272.042838 155.031602 
L 272.185019 154.924566 
L 272.302592 154.810095 
L 272.505093 154.526266 
L 272.593856 154.35911 
L 272.719365 153.893754 
L 272.875651 153.664577 
L 273.058645 153.477448 
L 273.223234 153.359575 
L 273.37962 153.289685 
L 273.99716 153.163842 
L 274.66095 152.900887 
L 275.034908 152.672311 
L 275.314089 152.348476 
L 275.393896 152.255904 
L 275.523806 151.987214 
L 275.606434 151.861339 
L 275.7048 151.739531 
L 275.775597 151.680891 
L 275.781892 151.675676 
L 275.874757 151.628227 
L 276.080326 151.573309 
L 276.411637 151.531061 
L 276.82911 151.553769 
L 277.005836 151.580444 
L 277.269291 151.657137 
L 277.4927 151.66714 
L 277.849486 151.573776 
L 278.176262 151.36704 
L 278.701372 151.090147 
L 279.350023 150.863537 
L 280.33372 150.646798 
L 280.500442 150.66347 
L 280.823917 150.816855 
L 280.957296 150.956902 
L 280.995687 151.019123 
L 281.053995 151.113621 
L 281.097342 151.220324 
L 281.144025 151.593749 
L 281.127353 151.79715 
L 281.100677 151.920525 
L 280.963964 152.367342 
L 280.910613 152.62076 
L 280.887272 152.860841 
L 280.977302 153.105923 
L 281.154028 153.260975 
L 281.364132 153.557741 
L 281.494176 153.854474 
L 281.597544 154.331301 
L 281.580871 154.771448 
L 281.614083 155.173717 
L 281.664233 155.419132 
L 281.763499 155.723234 
L 281.901146 156.028937 
L 281.997178 156.172452 
L 282.156164 156.329271 
L 282.802281 156.777955 
L 282.940633 156.843649 
L 283.470805 157.095395 
L 283.815454 157.203164 
L 284.159036 157.234108 
L 284.685113 157.188226 
L 285.489149 157.235175 
L 285.776712 157.226072 
L 285.980514 157.281557 
L 286.153372 157.412801 
L 286.337434 157.516836 
L 286.807492 157.723839 
L 286.921663 157.797997 
L 287.143604 158.004466 
L 287.618464 158.685228 
L 287.957778 159.008537 
L 287.960012 159.010901 
L 288.241106 159.308371 
L 288.529736 159.523376 
L 288.886122 159.720742 
L 289.151728 159.813541 
L 289.339641 159.879195 
L 289.527438 159.966158 
L 289.683223 160.05152 
L 289.794727 160.153954 
L 289.869952 160.267592 
L 290.007098 160.541284 
L 290.118069 161.288735 
L 290.246112 161.646188 
L 290.354415 161.809443 
L 290.267452 161.947089 
L 290.23971 162.107143 
L 290.242377 162.205309 
L 290.310133 162.492305 
L 290.216769 162.698241 
L 290.168753 162.764397 
L 290.152214 162.857761 
L 290.167686 162.91218 
L 290.297863 163.11278 
L 290.297429 163.113114 
L 290.313335 163.164236 
L 290.376589 163.367532 
L 290.345112 163.475402 
L 290.255015 163.625752 
L 290.226005 163.708947 
L 290.203831 163.940958 
L 290.210833 164.373637 
L 290.259316 164.442326 
L 290.392094 164.481973 
L 290.486092 164.528489 
L 290.545212 164.584174 
L 290.631508 164.735258 
L 290.912502 164.928289 
L 290.944821 165.000418 
L 291.05405 165.244195 
L 291.081192 165.344896 
L 291.078291 165.41742 
L 291.047314 165.471605 
L 290.865286 165.689111 
L 290.761652 165.856267 
L 290.708434 165.976841 
L 290.716203 166.02189 
L 290.818904 166.146998 
L 290.827674 166.373674 
L 290.850948 166.479743 
L 290.919705 166.620924 
L 290.990395 166.714022 
L 290.988528 167.075743 
L 290.868554 167.377978 
L 290.750448 167.585281 
L 290.676923 167.659339 
L 290.608233 167.684514 
L 290.311167 167.689949 
L 290.002397 167.628262 
L 289.989226 167.628262 
L 289.965618 167.628262 
L 289.905664 167.672543 
L 289.73464 168.002254 
L 289.725971 168.053405 
L 289.797762 168.312858 
L 289.845211 168.416626 
L 289.951713 168.500521 
L 290.131674 168.573712 
L 290.195562 168.625597 
L 290.181324 169.17198 
L 290.165918 169.297889 
L 290.00173 169.617729 
L 289.765217 170.154276 
L 289.693727 170.197824 
L 289.495594 170.238338 
L 289.294593 170.189521 
L 288.841207 170.168748 
L 288.70973 170.220565 
L 288.651644 170.356377 
L 288.844775 170.647975 
L 288.863081 170.80086 
L 288.866749 171.089823 
L 288.899494 171.237906 
L 288.927503 171.277586 
L 289.000894 171.3173 
L 289.270418 171.378453 
L 289.405697 171.425836 
L 289.437641 171.473119 
L 289.437741 171.765117 
L 289.46485 171.82387 
L 289.494827 171.848278 
L 289.604964 171.86575 
L 289.923737 171.84501 
L 290.056148 171.928138 
L 290.139209 171.960182 
L 290.209766 172.008998 
L 290.356682 172.177588 
L 290.417536 172.209632 
L 290.550848 172.243944 
L 290.620404 172.306498 
L 290.638877 172.604865 
L 290.62734 172.731541 
L 290.675656 172.851348 
L 291.007901 173.136743 
L 291.285961 173.18556 
L 291.49063 173.445747 
L 291.768689 173.513703 
L 291.824675 173.587728 
L 291.830444 173.771656 
L 291.901234 173.837312 
L 291.982395 173.923107 
L 291.984762 174.065122 
L 292.013538 174.136112 
L 292.102602 174.25912 
L 292.234379 174.367156 
L 292.228477 174.450618 
L 292.175092 174.54775 
L 292.189497 174.62801 
L 292.311638 174.799101 
L 292.46519 174.914406 
L 292.575327 174.95462 
L 292.617041 174.993967 
L 292.616574 175.22211 
L 292.72461 175.44205 
L 292.822176 175.589766 
L 292.890833 175.633648 
L 292.899335 175.703371 
L 292.88403 175.791801 
L 292.899335 175.834315 
L 292.945251 175.876829 
L 293.035381 175.885332 
L 293.15072 175.832815 
L 293.237916 175.824045 
L 293.482098 175.902571 
L 293.818677 175.912175 
L 293.886967 175.930147 
L 293.94582 176.017677 
L 294.423914 176.313743 
L 294.577765 176.355357 
L 294.629183 176.381966 
L 294.669729 176.427581 
L 294.676065 176.531516 
L 294.645388 176.646087 
L 294.498905 176.772797 
L 294.389235 177.184201 
L 294.42298 177.208643 
L 294.418178 177.237619 
L 294.308308 177.3781 
L 294.112776 177.570498 
L 293.974063 177.673599 
L 293.883499 177.698807 
L 293.634816 177.654659 
L 293.588567 177.661562 
L 293.567926 177.691505 
L 293.56793 177.692043 
L 293.568427 177.778334 
L 293.465025 177.991239 
L 293.412941 178.049992 
L 293.415809 178.101876 
L 293.539917 178.265264 
L 293.619944 178.307178 
L 293.868727 178.604711 
L 293.892835 178.642891 
L 294.325714 179.199077 
L 294.394104 179.234156 
L 294.437452 179.230321 
L 295.225283 179.063799 
L 295.52585 179.200378 
L 295.620248 179.308014 
L 295.741556 179.54536 
L 295.84459 179.599545 
L 296.095975 179.687341 
L 296.15276 179.748395 
L 296.172 179.806414 
L 296.167565 180.039359 
L 296.189139 180.130056 
L 296.222851 180.187309 
L 296.074534 180.410917 
L 296.009079 180.441428 
L 296.003277 180.485709 
L 296.028319 180.532258 
L 296.079336 180.562802 
L 296.099173 180.720295 
L 296.129319 180.959635 
L 296.129319 180.982542 
L 296.233254 181.020722 
L 296.373768 181.031425 
L 296.406479 181.049765 
L 296.514215 181.321489 
L 296.549794 181.359669 
L 296.823019 181.545198 
L 297.220185 181.936096 
L 297.259632 181.936096 
L 297.30388 181.962838 
L 297.493243 182.179677 
L 297.528789 182.26594 
L 297.566168 182.443032 
L 297.650396 182.471342 
L 297.813584 182.485047 
L 297.886709 182.522426 
L 297.960834 182.599452 
L 297.980107 182.650602 
L 298.019587 182.695584 
L 298.106149 182.729128 
L 298.275439 182.748135 
L 298.337027 182.77331 
L 298.517954 182.97091 
L 298.797848 183.008255 
L 298.822856 183.026562 
L 298.867138 183.195985 
L 298.84313 183.267742 
L 298.849865 183.315058 
L 298.89318 183.364675 
L 298.947031 183.393651 
L 299.016321 183.666876 
L 299.019222 183.697387 
L 299.107718 183.772945 
L 299.164471 183.797353 
L 299.234628 183.802689 
L 299.446165 184.029365 
L 299.432727 184.168278 
L 299.205785 184.261276 
L 299.027058 184.434567 
L 299.034794 184.504024 
L 299.044953 184.511732 
L 299.252034 184.668846 
L 299.49038 184.730633 
L 299.517289 184.752007 
L 299.536529 184.775682 
L 299.550967 184.953508 
L 299.606719 185.159544 
L 299.756603 185.251908 
L 299.776776 185.299991 
L 299.791181 185.434336 
L 299.905553 185.622099 
L 299.957437 185.654143 
L 300.11499 185.67325 
L 300.211022 185.739672 
L 300.259038 185.797691 
L 300.235997 185.88392 
L 300.081312 186.00376 
L 300.050568 186.088455 
L 300.09665 186.185421 
L 300.220558 186.286188 
L 300.271442 186.309063 
L 300.276244 186.338839 
L 300.322293 186.602161 
L 300.333796 186.612831 
L 300.342399 186.765516 
L 300.323193 186.802895 
L 300.333763 186.863215 
L 300.421126 186.90673 
L 300.541133 186.937274 
L 300.598752 186.873919 
L 300.884515 186.87822 
L 301.079747 187.08549 
L 301.215092 187.131339 
L 301.576914 187.320002 
L 301.738234 187.314734 
L 302.017061 187.179622 
L 302.121696 187.152079 
L 302.167812 187.162749 
L 302.610594 187.441943 
L 302.6298 187.480122 
L 302.649107 187.644978 
L 302.694255 187.726638 
L 302.836369 187.780757 
L 302.924699 187.834175 
L 302.924732 187.879957 
L 302.845106 188.015102 
L 302.805793 188.052514 
L 302.807693 188.081491 
L 302.987253 188.292895 
L 302.959444 188.337177 
L 303.031435 188.365053 
L 303.158111 188.375223 
L 303.336637 188.351615 
L 303.368281 188.340911 
L 303.398992 188.295863 
L 303.441206 188.282125 
L 303.734871 188.35845 
L 303.904795 188.314136 
L 303.924935 188.292762 
L 303.95176 188.296702 
L 304.101527 188.318704 
L 304.066849 188.412969 
L 304.10046 188.483959 
L 304.25878 188.605333 
L 304.508264 188.777858 
L 304.513032 188.883193 
L 304.543709 188.929009 
L 304.666517 188.945047 
L 304.89476 189.319873 
L 304.92447 189.452684 
L 305.200696 189.515372 
L 305.267885 189.457352 
L 305.430073 189.373458 
L 305.749447 189.427776 
L 305.809867 189.494231 
L 305.904699 189.656853 
L 305.962051 189.911805 
L 306.005199 189.952318 
L 306.003032 189.998867 
L 306.262719 190.559789 
L 306.711436 190.542817 
L 306.740246 190.56419 
L 306.750816 190.609206 
L 307.176559 190.679296 
L 307.329043 190.699102 
L 307.648317 190.685298 
L 307.707804 190.712007 
L 308.002169 191.062358 
L 308.027078 191.14862 
L 307.989698 191.245586 
L 308.002169 191.31731 
L 308.038581 191.339451 
L 308.107605 191.346286 
L 308.23418 191.316543 
L 308.32331 191.321111 
L 308.655989 191.152454 
L 308.644485 191.062358 
L 308.656989 190.9891 
L 308.722178 190.934148 
L 308.850654 190.948653 
L 308.882265 190.982264 
L 308.918677 191.121944 
L 309.188967 191.290734 
L 309.307841 191.270928 
L 309.449722 191.195402 
L 309.520679 191.193868 
L 309.585801 191.261091 
L 309.619312 191.402305 
L 309.684467 191.427547 
L 309.843587 191.43825 
L 309.903007 191.423779 
L 310.349123 191.292568 
L 310.397006 191.26886 
L 310.513879 191.129113 
L 310.566596 191.11841 
L 310.734386 191.152688 
L 310.789004 191.134348 
L 310.937554 191.032014 
L 311.145591 190.996069 
L 311.318182 191.112041 
L 311.303844 191.173895 
L 311.207278 191.286366 
L 308.453321 193.19604 
L 308.055821 193.516681 
L 305.98696 194.971803 
L 303.423066 196.711186 
L 303.391622 196.746765 
L 301.668911 197.957037 
L 300.416624 198.82743 
L 299.832862 199.213426 
L 299.669561 199.341513 
L 299.612354 199.386384 
L 299.577176 199.427864 
L 299.566772 199.516561 
L 299.514688 199.631633 
L 299.325892 199.776481 
L 299.094114 199.808792 
L 298.914987 199.891286 
L 298.751366 199.852974 
L 298.744063 200.078949 
L 298.447964 200.313428 
L 298.301415 200.375349 
L 297.994912 200.402191 
L 297.592777 200.552742 
L 297.369702 200.544272 
L 297.290409 200.561711 
L 296.209313 200.838471 
L 295.777935 200.990455 
L 295.621015 200.999858 
L 295.172998 201.085987 
L 295.0785 201.130969 
L 294.911177 201.273383 
L 294.709209 201.27325 
L 294.369029 201.364047 
L 293.930081 201.509596 
L 293.900805 201.53047 
L 293.601004 201.631037 
L 293.515976 201.648309 
L 293.214641 201.792258 
L 293.199736 201.803661 
L 292.927683 201.929006 
L 292.662156 202.051344 
L 292.519375 202.091858 
L 292.417974 202.14671 
L 291.798266 202.401429 
L 291.682794 202.455347 
L 291.681816 202.456075 
L 291.537979 202.563216 
L 291.299532 202.679522 
L 291.297991 202.680382 
L 290.844079 202.933607 
L 290.586326 203.029473 
L 290.395162 203.122037 
L 290.36912 203.148279 
L 290.384658 203.203931 
L 290.228573 203.314068 
L 289.867018 203.448813 
L 289.562483 203.612802 
L 289.313899 203.786093 
L 289.026636 204.075123 
L 288.421333 204.153683 
L 288.367248 204.17349 
L 288.317498 204.197264 
L 288.227201 204.383227 
L 288.061112 204.421873 
L 287.885453 204.485761 
L 287.758311 204.602634 
L 287.583752 204.718639 
L 287.494956 204.698299 
L 287.322464 204.68963 
L 286.953474 204.833711 
L 286.546571 205.034645 
L 286.264343 205.14785 
L 286.197654 205.142048 
L 286.072178 205.212038 
L 285.935332 205.354953 
L 285.927063 205.384863 
L 285.932231 205.489331 
L 286.07738 205.694834 
L 286.088184 205.841983 
L 286.069444 206.074294 
L 285.996786 206.118276 
L 285.976913 206.154454 
L 286.040734 206.384965 
L 286.122195 206.4903 
L 286.202689 206.52878 
L 286.235333 206.566626 
L 286.250805 206.644119 
L 286.19702 206.694602 
L 286.086216 206.711808 
L 286.01716 206.700638 
L 285.907956 206.784199 
L 285.931631 206.989235 
L 286.011925 207.13355 
L 286.066943 207.286734 
L 286.0378 207.470529 
L 286.032765 207.63125 
L 286.059674 207.715111 
L 285.984916 207.793238 
L 285.972206 207.798598 
L 285.932731 207.815245 
L 285.751237 207.770263 
L 285.688516 207.734318 
L 285.393384 207.785835 
L 285.35237 207.838619 
L 285.289749 208.224015 
L 285.209089 208.378234 
L 285.117925 208.415146 
L 285.080012 208.364563 
L 285.006687 208.332452 
L 284.83583 208.307577 
L 284.594649 208.448524 
L 284.572142 208.520915 
L 284.415022 208.69494 
L 284.229193 208.709512 
L 284.195249 208.801476 
L 284.06994 208.944157 
L 283.844764 208.946891 
L 283.838262 208.952393 
L 283.79258 208.976801 
L 283.778309 208.993574 
L 283.693247 209.035888 
L 283.647131 209.022283 
L 283.618088 208.995508 
L 283.601683 208.935488 
L 283.558335 208.897075 
L 283.456834 208.954094 
L 283.021755 209.04159 
L 282.949431 208.979035 
L 282.874139 209.013547 
L 282.817153 209.011846 
L 282.747696 209.072934 
L 282.718153 209.081336 
L 282.633458 209.009612 
L 282.521154 209.028685 
L 282.475505 209.100443 
L 282.454598 209.187472 
L 282.503381 209.300977 
L 282.447462 209.437556 
L 282.346061 209.486639 
L 282.273871 209.591207 
L 282.189142 209.651561 
L 282.139059 209.648693 
L 282.099012 209.657196 
L 281.97397 209.758764 
L 281.826354 209.769867 
L 281.760732 209.735923 
L 281.720151 209.720384 
L 281.682972 209.713215 
L 281.593342 209.811982 
L 281.581638 209.91605 
L 281.542692 209.943359 
L 281.455163 209.943726 
L 281.376303 209.886707 
L 281.310181 209.918884 
L 281.273168 209.943492 
L 281.250827 209.950828 
L 281.222618 209.968634 
L 281.191941 210.003212 
L 281.167666 210.079871 
L 281.158327 210.149972 
L 281.131287 210.35293 
L 281.132754 210.369435 
L 281.22852 210.446661 
L 281.293675 210.616652 
L 281.333455 210.620019 
L 281.378303 210.627288 
L 281.456063 210.685641 
L 281.525786 210.75163 
L 281.617084 210.759233 
L 281.603946 210.803814 
L 281.474902 210.917086 
L 281.452762 211.024922 
L 281.431121 211.058 
L 281.417717 211.242462 
L 281.455963 211.305049 
L 281.514416 211.450898 
L 281.525186 211.462502 
L 281.541725 211.568804 
L 281.519384 211.626957 
L 281.472802 211.711786 
L 281.40908 211.745297 
L 281.35823 211.809585 
L 281.300744 211.855767 
L 281.236589 211.9544 
L 281.0692 212.104751 
L 281.014481 212.14333 
L 280.933187 212.21272 
L 280.89124 212.288012 
L 281.055028 212.440864 
L 281.138156 212.495582 
L 281.033288 212.644699 
L 280.925752 212.678877 
L 280.85236 212.754135 
L 280.866726 212.793665 
L 280.878269 212.825426 
L 280.854694 212.900718 
L 280.823917 212.91739 
L 280.652727 212.937664 
L 280.55266 212.990581 
L 280.4726 213.077377 
L 280.291972 213.148801 
L 279.929184 213.228995 
L 279.873965 213.262039 
L 279.873198 213.312589 
L 279.897473 213.365607 
L 279.880868 213.396851 
L 279.796139 213.418558 
L 279.750291 213.412123 
L 279.745822 213.41229 
L 279.392837 213.422893 
L 278.887234 213.644634 
L 278.416676 213.68208 
L 278.107573 213.802654 
L 277.797535 213.964375 
L 277.741483 213.961674 
L 277.692767 213.917326 
L 277.498302 213.897452 
L 277.182196 213.915992 
L 276.859787 213.999587 
L 276.679394 214.161007 
L 276.602701 214.291051 
L 276.498133 214.310858 
L 276.385928 214.311058 
L 276.075824 214.221028 
L 275.992463 214.164342 
L 275.942446 214.044302 
L 275.909102 214.037633 
L 275.398897 214.074312 
L 275.328874 214.120994 
L 275.218804 214.161007 
L 275.055415 214.154338 
L 274.788659 214.094318 
L 274.671953 214.164342 
L 274.598595 214.157673 
L 274.495194 214.100987 
L 274.385157 214.067643 
L 274.285124 214.201021 
L 274.345144 214.391085 
L 274.298461 214.524463 
L 274.148411 214.534466 
L 273.904963 214.614493 
L 273.838274 214.687851 
L 273.761581 214.741202 
L 273.50813 214.827898 
L 273.41143 214.917928 
L 273.401427 214.947938 
L 273.414765 214.997955 
L 273.47812 215.057975 
L 273.50813 215.12133 
L 273.521467 215.411427 
L 273.368083 215.664845 
L 273.203461 215.815162 
L 273.111296 215.874949 
L 272.981253 216.018331 
L 272.832836 216.236971 
L 272.692889 216.332903 
L 272.511062 216.375117 
L 272.414363 216.505161 
L 272.521065 216.701893 
L 272.507727 216.891957 
L 272.429334 216.984755 
L 272.394623 217.034605 
L 272.388254 217.075018 
L 272.61573 217.174752 
L 272.613296 217.17912 
L 272.580252 217.188323 
L 272.510428 217.292891 
L 272.528468 217.342708 
L 272.543106 217.527504 
L 272.437704 217.562182 
L 272.327667 217.668884 
L 272.25761 217.78559 
L 271.934168 217.828938 
L 271.580683 217.815634 
L 271.420629 217.892326 
L 271.223897 217.915667 
L 270.947137 217.902329 
L 270.316892 217.905664 
L 270.146802 217.972353 
L 269.469875 218.179089 
L 268.923025 218.325805 
L 268.853001 218.319136 
L 268.59288 218.379156 
L 268.286111 218.495862 
L 268.015987 218.522537 
L 267.825923 218.605899 
L 267.719221 218.62924 
L 267.619187 218.622571 
L 267.27904 218.715936 
L 267.239026 218.755949 
L 267.209016 218.762618 
L 266.565434 218.842645 
L 266.422052 218.879324 
L 266.368701 218.919337 
L 266.278671 218.949347 
L 265.375001 219.179458 
L 265.14489 219.276157 
L 265.108211 219.309501 
L 265.01458 219.332409 
L 264.981469 219.350615 
L 264.921482 219.399532 
L 264.828117 219.436211 
L 264.794773 219.436211 
L 264.731418 219.396197 
L 264.668064 219.402866 
L 264.551358 219.466221 
L 263.93135 219.669522 
L 263.824414 219.722973 
L 263.624347 219.906368 
L 263.61431 219.923007 
L 263.637685 219.969723 
L 263.607675 219.996399 
L 263.074129 220.196466 
L 262.817376 220.273158 
L 262.677329 220.30987 
L 262.41054 220.33988 
L 262.250486 220.349884 
L 262.107104 220.326543 
L 261.863689 220.379894 
L 261.643582 220.396566 
L 261.533545 220.363222 
L 261.440214 220.393232 
L 261.433308 220.393457 
L 261.250984 220.3994 
L 260.713237 220.349884 
L 260.503166 220.299867 
L 260.33641 220.21984 
L 260.199698 220.206502 
L 260.136343 220.216506 
L 260.086326 220.253185 
L 259.902932 220.266522 
L 259.742878 220.253185 
L 259.599496 220.303201 
L 259.229339 220.356553 
L 259.145978 220.349917 
L 259.069285 220.389931 
L 259.032606 220.446616 
L 259.029272 220.493299 
L 258.739174 220.670025 
L 258.55578 220.740048 
L 258.329037 220.763389 
L 258.045608 220.84675 
L 257.94224 220.94345 
L 257.805528 221.03348 
L 257.555444 221.163523 
L 257.315363 221.176861 
L 256.775149 221.320243 
L 256.698456 221.326945 
L 256.655109 221.300269 
L 256.611761 221.296935 
L 256.535068 221.320276 
L 256.314994 221.423644 
L 256.25164 221.51034 
L 256.134934 221.623711 
L 255.964877 221.717076 
L 255.834833 221.753755 
L 255.631432 221.793768 
L 255.471378 221.730414 
L 255.291318 221.75042 
L 255.187916 221.800437 
L 255.147936 222.000504 
L 254.874478 222.163926 
L 254.677745 222.330648 
L 254.611056 222.363993 
L 254.360972 222.400672 
L 254.310955 222.454023 
L 254.284313 222.529648 
L 254.277611 222.604073 
L 254.227594 222.670762 
L 254.147567 222.754124 
L 254.030861 222.817478 
L 253.880811 222.984201 
L 253.837463 223.077566 
L 253.774109 223.137619 
L 250.496242 223.094271 
L 246.981596 223.007575 
L 245.769864 222.96712 
L 243.874222 222.903831 
L 243.866518 222.903574 
L 239.209589 222.84312 
L 235.885452 222.817547 
L 235.880839 222.817512 
L 234.747092 222.824181 
L 234.418882 222.827482 
L 228.694928 222.687535 
L 226.790922 222.667561 
L 225.350439 222.680933 
L 222.622824 222.570962 
L 217.503876 222.449788 
L 217.274296 222.444353 
L 217.272343 222.444258 
L 216.660657 222.414577 
L 215.34865 222.385834 
L 214.792863 222.342452 
L 214.793564 222.340218 
L 211.985622 222.137684 
L 210.954374 222.038223 
L 210.56848 222.001004 
L 209.295419 221.911441 
L 207.235128 221.826112 
L 206.911252 221.807106 
L 203.602009 221.706572 
L 200.90387 221.672794 
L 200.425777 221.674828 
L 200.248321 221.695226 
L 200.244182 221.695702 
L 200.099834 221.741951 
L 199.291163 221.738183 
L 198.97539 221.791501 
L 195.774349 221.924846 
L 195.563944 221.939147 
L 193.832698 222.056823 
L 191.727658 222.032382 
L 191.709852 222.030548 
L 187.516045 221.951354 
L 185.713007 221.875596 
L 183.820672 221.828373 
L 183.819605 221.828346 
L 183.391295 221.809273 
L 182.368218 221.821678 
L 180.978252 221.76846 
L 178.106488 221.61911 
L 177.57749 221.602787 
L 175.679374 221.544218 
L 175.66707 221.542684 
L 175.492778 221.529646 
L 174.082305 221.425078 
L 174.03969 221.428146 
L 170.184097 221.244251 
L 169.941149 221.231646 
L 169.920822 221.230235 
L 169.563555 221.205437 
L 169.555986 221.20317 
L 169.466923 221.195534 
L 169.364555 221.1933 
L 166.990225 221.044417 
L 165.666648 220.930312 
L 164.798957 220.894733 
L 164.308426 220.885363 
L 164.268179 220.896134 
L 163.0546 220.869683 
L 161.150266 220.828178 
L 161.027125 220.830778 
L 160.986344 220.833679 
L 160.983543 220.833846 
L 159.840693 220.808037 
L 158.64009 221.205137 
L 158.653061 221.0933 
L 158.430787 221.06239 
L 158.389506 221.290199 
L 157.968574 221.438022 
L 157.960996 221.440683 
L 157.101941 220.80667 
L 156.597238 220.818708 
L 156.552157 220.819308 
L 152.971222 220.911539 
L 151.46625 220.922309 
L 151.320374 220.926005 
L 149.661745 220.968025 
L 149.556743 220.965524 
L 149.482751 220.968291 
L 148.99092 220.982596 
L 148.286917 220.993466 
L 146.561171 221.012873 
L 146.542498 221.01444 
L 143.043358 221.091333 
L 141.398679 221.115735 
L 139.593734 221.142516 
L 135.740641 221.159822 
L 135.723735 221.160056 
L 135.169616 221.161623 
L 134.144505 221.165724 
L 134.040871 221.16429 
L 132.925722 221.16876 
L 132.224477 221.17157 
L 131.95267 221.17266 
L 131.830462 221.174994 
L 130.566823 221.18246 
L 129.613072 221.188096 
L 129.612618 221.188098 
L 129.255832 221.188098 
L 128.87237 221.198102 
L 128.575651 221.201933 
L 124.652854 221.252587 
L 124.5903 221.252587 
L 122.048714 221.288499 
L 120.280076 221.320673 
L 118.593621 221.351353 
L 114.977875 221.448186 
L 115.099149 220.432712 
L 114.349064 220.386429 
L 109.689834 219.988429 
L 108.590132 219.956485 
L 107.731177 219.951984 
L 107.808669 220.564556 
L 107.935612 220.861089 
L 108.129711 221.112473 
L 108.180994 221.205004 
L 108.228944 221.366058 
L 108.224476 221.540617 
L 108.578294 222.458791 
L 108.709372 223.086202 
L 108.761756 223.464329 
L 108.895134 223.832686 
L 108.955921 224.166231 
L 108.999702 224.535388 
L 108.944917 224.853561 
L 108.887498 225.02722 
L 108.840282 225.09821 
L 108.821609 225.190508 
L 108.838315 225.29671 
L 108.821876 225.429421 
L 108.766558 225.544193 
L 108.572392 225.755164 
L 108.400268 225.889476 
L 108.308937 225.986975 
L 108.306049 225.98692 
L 105.835674 225.939926 
L 99.38631 225.876838 
L 99.21622 225.875138 
L 99.052698 225.873537 
L 96.199708 225.866034 
L 95.07263 225.854531 
L 94.993203 225.862167 
L 94.325612 225.856965 
L 93.775054 225.855642 
L 93.77056 225.855631 
L 93.013306 225.84266 
L 93.001635 225.841026 
L 92.865733 225.843511 
L 92.863022 225.84356 
L 91.903867 225.830756 
L 90.833808 225.826555 
L 88.03787 225.816451 
L 86.233197 225.80248 
L 85.157236 225.796745 
L 83.420954 225.799312 
L 82.848389 225.79737 
L 82.506714 225.796211 
L 82.497072 225.79613 
L 82.252829 225.794077 
L 82.244833 225.79417 
L 80.915747 225.809682 
L 80.587903 225.834424 
L 80.089303 225.817285 
L 77.923209 225.818185 
L 76.736411 225.803447 
L 76.510935 225.801746 
L 76.390428 225.800879 
L 76.386517 225.800838 
L 75.583158 225.79241 
L 74.775487 225.785974 
L 74.333772 225.782907 
L 73.732637 225.778138 
L 72.819297 225.771103 
L 72.743672 225.769635 
L 71.295886 225.740459 
L 71.28905 225.740326 
L 69.68918 225.703513 
L 67.432356 225.674137 
L 67.32542 225.6651 
L 66.725686 225.65293 
L 65.19954 225.784207 
L 64.848089 225.818052 
L 64.06476 225.877372 
L 64.007841 225.889176 
L 63.699337 225.921953 
L 63.270226 225.919886 
L 62.824077 225.923487 
L 63.212174 224.952095 
" clip-path="url(#pd95647a567)" style="fill: #6f009c"/>
    <path d="M 57.681818 224.138355 
L 57.738571 223.953293 
L 57.838271 223.749991 
L 57.959378 223.598841 
L 58.129302 223.439954 
L 58.310996 223.31778 
L 58.528636 223.224048 
L 58.650477 223.204808 
L 59.14651 223.185435 
L 59.321402 223.217679 
L 59.442642 223.267096 
L 59.583823 223.296939 
L 60.063717 223.346889 
L 60.571888 223.496406 
L 60.703365 223.564762 
L 60.763385 223.616947 
L 60.955183 223.893306 
L 61.141246 224.329152 
L 61.218471 224.685405 
L 61.2037 224.892708 
L 61.111002 225.181305 
L 60.98456 225.433056 
L 60.826973 225.655497 
L 60.650648 225.820186 
L 60.552181 225.974904 
L 60.315102 225.965435 
L 60.13174 225.9617 
L 58.758079 225.960133 
L 58.633938 225.725954 
L 58.254944 225.323653 
L 58.120632 225.154362 
L 58.05411 225.043092 
L 57.872049 224.657896 
L 57.729768 224.41118 
L 57.690755 224.312613 
L 57.681818 224.138355 
" clip-path="url(#pd95647a567)" style="fill: #6f009c"/>
   </g>
   <g id="PathCollection_1">
    <defs>
     <path id="m52330312d1" d="M 0 1.581139 
C 0.419323 1.581139 0.821528 1.41454 1.118034 1.118034 
C 1.41454 0.821528 1.581139 0.419323 1.581139 0 
C 1.581139 -0.419323 1.41454 -0.821528 1.118034 -1.118034 
C 0.821528 -1.41454 0.419323 -1.581139 0 -1.581139 
C -0.419323 -1.581139 -0.821528 -1.41454 -1.118034 -1.118034 
C -1.41454 -0.821528 -1.581139 -0.419323 -1.581139 0 
C -1.581139 0.419323 -1.41454 0.821528 -1.118034 1.118034 
C -0.821528 1.41454 -0.419323 1.581139 0 1.581139 
z
" style="stroke: #000000"/>
    </defs>
    <g clip-path="url(#pd95647a567)">
     <use xlink:href="#m52330312d1" x="214.272189" y="169.648306" style="stroke: #000000"/>
    </g>
   </g>
   <g id="text_1">
    <!-- Frankfort -->
    <g transform="translate(217.272189 166.648306) scale(0.1 -0.1)">
     <defs>
      <path id="DejaVuSans-46" d="M 628 4666 
L 3309 4666 
L 3309 4134 
L 1259 4134 
L 1259 2759 
L 3109 2759 
L 3109 2228 
L 1259 2228 
L 1259 0 
L 628 0 
L 628 4666 
z
" transform="scale(0.015625)"/>
      <path id="DejaVuSans-72" d="M 2631 2963 
Q 2534 3019 2420 3045 
Q 2306 3072 2169 3072 
Q 1681 3072 1420 2755 
Q 1159 2438 1159 1844 
L 1159 0 
L 581 0 
L 581 3500 
L 1159 3500 
L 1159 2956 
Q 1341 3275 1631 3429 
Q 1922 3584 2338 3584 
Q 2397 3584 2469 3576 
Q 2541 3569 2628 3553 
L 2631 2963 
z
" transform="scale(0.015625)"/>
      <path id="DejaVuSans-61" d="M 2194 1759 
Q 1497 1759 1228 1600 
Q 959 1441 959 1056 
Q 959 750 1161 570 
Q 1363 391 1709 391 
Q 2188 391 2477 730 
Q 2766 1069 2766 1631 
L 2766 1759 
L 2194 1759 
z
M 3341 1997 
L 3341 0 
L 2766 0 
L 2766 531 
Q 2569 213 2275 61 
Q 1981 -91 1556 -91 
Q 1019 -91 701 211 
Q 384 513 384 1019 
Q 384 1609 779 1909 
Q 1175 2209 1959 2209 
L 2766 2209 
L 2766 2266 
Q 2766 2663 2505 2880 
Q 2244 3097 1772 3097 
Q 1472 3097 1187 3025 
Q 903 2953 641 2809 
L 641 3341 
Q 956 3463 1253 3523 
Q 1550 3584 1831 3584 
Q 2591 3584 2966 3190 
Q 3341 2797 3341 1997 
z
" transform="scale(0.015625)"/>
      <path id="DejaVuSans-6e" d="M 3513 2113 
L 3513 0 
L 2938 0 
L 2938 2094 
Q 2938 2591 2744 2837 
Q 2550 3084 2163 3084 
Q 1697 3084 1428 2787 
Q 1159 2491 1159 1978 
L 1159 0 
L 581 0 
L 581 3500 
L 1159 3500 
L 1159 2956 
Q 1366 3272 1645 3428 
Q 1925 3584 2291 3584 
Q 2894 3584 3203 3211 
Q 3513 2838 3513 2113 
z
" transform="scale(0.015625)"/>
      <path id="DejaVuSans-6b" d="M 581 4863 
L 1159 4863 
L 1159 1991 
L 2875 3500 
L 3609 3500 
L 1753 1863 
L 3688 0 
L 2938 0 
L 1159 1709 
L 1159 0 
L 581 0 
L 581 4863 
z
" transform="scale(0.015625)"/>
      <path id="DejaVuSans-66" d="M 2375 4863 
L 2375 4384 
L 1825 4384 
Q 1516 4384 1395 4259 
Q 1275 4134 1275 3809 
L 1275 3500 
L 2222 3500 
L 2222 3053 
L 1275 3053 
L 1275 0 
L 697 0 
L 697 3053 
L 147 3053 
L 147 3500 
L 697 3500 
L 697 3744 
Q 697 4328 969 4595 
Q 1241 4863 1831 4863 
L 2375 4863 
z
" transform="scale(0.015625)"/>
      <path id="DejaVuSans-6f" d="M 1959 3097 
Q 1497 3097 1228 2736 
Q 959 2375 959 1747 
Q 959 1119 1226 758 
Q 1494 397 1959 397 
Q 2419 397 2687 759 
Q 2956 1122 2956 1747 
Q 2956 2369 2687 2733 
Q 2419 3097 1959 3097 
z
M 1959 3584 
Q 2709 3584 3137 3096 
Q 3566 2609 3566 1747 
Q 3566 888 3137 398 
Q 2709 -91 1959 -91 
Q 1206 -91 779 398 
Q 353 888 353 1747 
Q 353 2609 779 3096 
Q 1206 3584 1959 3584 
z
" transform="scale(0.015625)"/>
      <path id="DejaVuSans-74" d="M 1172 4494 
L 1172 3500 
L 2356 3500 
L 2356 3053 
L 1172 3053 
L 1172 1153 
Q 1172 725 1289 603 
Q 1406 481 1766 481 
L 2356 481 
L 2356 0 
L 1766 0 
Q 1100 0 847 248 
Q 594 497 594 1153 
L 594 3053 
L 172 3053 
L 172 3500 
L 594 3500 
L 594 4494 
L 1172 4494 
z
" transform="scale(0.015625)"/>
     </defs>
     <use xlink:href="#DejaVuSans-46"/>
     <use xlink:href="#DejaVuSans-72" x="50.269531"/>
     <use xlink:href="#DejaVuSans-61" x="91.382812"/>
     <use xlink:href="#DejaVuSans-6e" x="152.662109"/>
     <use xlink:href="#DejaVuSans-6b" x="216.041016"/>
     <use xlink:href="#DejaVuSans-66" x="273.951172"/>
     <use xlink:href="#DejaVuSans-6f" x="309.15625"/>
     <use xlink:href="#DejaVuSans-72" x="370.337891"/>
     <use xlink:href="#DejaVuSans-74" x="411.451172"/>
    </g>
   </g>
   <g id="text_2">
    <!-- Kentucky -->
    <g transform="translate(157.109062 127.194327) scale(0.12 -0.12)">
     <defs>
      <path id="DejaVuSans-4b" d="M 628 4666 
L 1259 4666 
L 1259 2694 
L 3353 4666 
L 4166 4666 
L 1850 2491 
L 4331 0 
L 3500 0 
L 1259 2247 
L 1259 0 
L 628 0 
L 628 4666 
z
" transform="scale(0.015625)"/>
      <path id="DejaVuSans-65" d="M 3597 1894 
L 3597 1613 
L 953 1613 
Q 991 1019 1311 708 
Q 1631 397 2203 397 
Q 2534 397 2845 478 
Q 3156 559 3463 722 
L 3463 178 
Q 3153 47 2828 -22 
Q 2503 -91 2169 -91 
Q 1331 -91 842 396 
Q 353 884 353 1716 
Q 353 2575 817 3079 
Q 1281 3584 2069 3584 
Q 2775 3584 3186 3129 
Q 3597 2675 3597 1894 
z
M 3022 2063 
Q 3016 2534 2758 2815 
Q 2500 3097 2075 3097 
Q 1594 3097 1305 2825 
Q 1016 2553 972 2059 
L 3022 2063 
z
" transform="scale(0.015625)"/>
      <path id="DejaVuSans-75" d="M 544 1381 
L 544 3500 
L 1119 3500 
L 1119 1403 
Q 1119 906 1312 657 
Q 1506 409 1894 409 
Q 2359 409 2629 706 
Q 2900 1003 2900 1516 
L 2900 3500 
L 3475 3500 
L 3475 0 
L 2900 0 
L 2900 538 
Q 2691 219 2414 64 
Q 2138 -91 1772 -91 
Q 1169 -91 856 284 
Q 544 659 544 1381 
z
M 1991 3584 
L 1991 3584 
z
" transform="scale(0.015625)"/>
      <path id="DejaVuSans-63" d="M 3122 3366 
L 3122 2828 
Q 2878 2963 2633 3030 
Q 2388 3097 2138 3097 
Q 1578 3097 1268 2742 
Q 959 2388 959 1747 
Q 959 1106 1268 751 
Q 1578 397 2138 397 
Q 2388 397 2633 464 
Q 2878 531 3122 666 
L 3122 134 
Q 2881 22 2623 -34 
Q 2366 -91 2075 -91 
Q 1284 -91 818 406 
Q 353 903 353 1747 
Q 353 2603 823 3093 
Q 1294 3584 2113 3584 
Q 2378 3584 2631 3529 
Q 2884 3475 3122 3366 
z
" transform="scale(0.015625)"/>
      <path id="DejaVuSans-79" d="M 2059 -325 
Q 1816 -950 1584 -1140 
Q 1353 -1331 966 -1331 
L 506 -1331 
L 506 -850 
L 844 -850 
Q 1081 -850 1212 -737 
Q 1344 -625 1503 -206 
L 1606 56 
L 191 3500 
L 800 3500 
L 1894 763 
L 2988 3500 
L 3597 3500 
L 2059 -325 
z
" transform="scale(0.015625)"/>
     </defs>
     <use xlink:href="#DejaVuSans-4b"/>
     <use xlink:href="#DejaVuSans-65" x="60.576172"/>
     <use xlink:href="#DejaVuSans-6e" x="122.099609"/>
     <use xlink:href="#DejaVuSans-74" x="185.478516"/>
     <use xlink:href="#DejaVuSans-75" x="224.6875"/>
     <use xlink:href="#DejaVuSans-63" x="288.066406"/>
     <use xlink:href="#DejaVuSans-6b" x="343.046875"/>
     <use xlink:href="#DejaVuSans-79" x="397.332031"/>
    </g>
   </g>
  </g>
 </g>
 <defs>
  <clipPath id="pd95647a567">
   <rect x="45" y="133.194327" width="279" height="97.211345"/>
  </clipPath>
 </defs>
</svg>
