<?xml version="1.0" encoding="utf-8" standalone="no"?>
<!DOCTYPE svg PUBLIC "-//W3C//DTD SVG 1.1//EN"
  "http://www.w3.org/Graphics/SVG/1.1/DTD/svg11.dtd">
<svg xmlns:xlink="http://www.w3.org/1999/xlink" width="460.8pt" height="345.6pt" viewBox="0 0 460.8 345.6" xmlns="http://www.w3.org/2000/svg" version="1.1">
 <metadata>
  <rdf:RDF xmlns:dc="http://purl.org/dc/elements/1.1/" xmlns:cc="http://creativecommons.org/ns#" xmlns:rdf="http://www.w3.org/1999/02/22-rdf-syntax-ns#">
   <cc:Work>
    <dc:type rdf:resource="http://purl.org/dc/dcmitype/StillImage"/>
    <dc:date>2023-06-19T14:47:44.481416</dc:date>
    <dc:format>image/svg+xml</dc:format>
    <dc:creator>
     <cc:Agent>
      <dc:title>Matplotlib v3.7.1, https://matplotlib.org/</dc:title>
     </cc:Agent>
    </dc:creator>
   </cc:Work>
  </rdf:RDF>
 </metadata>
 <defs>
  <style type="text/css">*{stroke-linejoin: round; stroke-linecap: butt}</style>
 </defs>
 <g id="figure_1">
  <g id="patch_1">
   <path d="M 0 345.6 
L 460.8 345.6 
L 460.8 0 
L 0 0 
z
" style="fill: #ffffff"/>
  </g>
  <g id="axes_1">
   <g id="PatchCollection_1">
    <path d="M 73.832727 90.862731 
L 79.708506 90.859173 
L 80.253236 90.858061 
L 83.000861 90.879075 
L 83.386523 90.870792 
L 84.451358 90.878297 
L 84.57427 90.880854 
L 92.309746 90.888193 
L 92.364654 90.883134 
L 95.999206 90.888804 
L 101.440592 90.899089 
L 101.708887 90.902396 
L 101.756292 90.90298 
L 103.306381 90.893696 
L 104.675473 90.890416 
L 105.430137 90.884474 
L 105.494439 90.883968 
L 106.801661 90.891584 
L 107.125193 90.891584 
L 108.773394 90.892473 
L 110.23703 90.891806 
L 111.22964 90.895364 
L 111.813268 90.896643 
L 112.25275 90.892251 
L 113.897253 90.898922 
L 116.96854 90.905593 
L 118.388276 90.908429 
L 122.315338 90.914599 
L 130.085882 90.905871 
L 130.375085 90.915544 
L 130.956239 90.909962 
L 131.196836 90.90765 
L 131.344418 90.91649 
L 131.726251 90.918824 
L 133.366229 90.909652 
L 134.375851 90.913654 
L 135.019129 90.929165 
L 136.955271 90.927886 
L 137.224503 90.923939 
L 138.421822 90.928831 
L 139.08977 90.928831 
L 140.865843 90.931555 
L 141.905965 90.935614 
L 142.347188 90.936448 
L 142.397832 90.935558 
L 142.705918 90.938004 
L 143.650103 90.934057 
L 143.997781 90.935224 
L 146.129757 90.933279 
L 153.022771 90.943619 
L 153.117316 90.939728 
L 153.729615 90.943285 
L 154.532222 90.950791 
L 154.678804 90.946399 
L 154.820947 90.945676 
L 154.914143 90.948178 
L 155.364807 90.945287 
L 155.36603 90.945288 
L 163.496474 90.95029 
L 163.684214 90.947677 
L 165.356867 90.933056 
L 165.520025 90.945787 
L 166.128453 90.949568 
L 167.162875 90.94979 
L 171.220376 90.956016 
L 172.863312 90.942285 
L 173.01642 90.933557 
L 173.360444 90.947622 
L 173.681496 90.959241 
L 174.12559 90.932667 
L 174.763821 90.932278 
L 175.299849 90.933334 
L 179.2719 90.93011 
L 179.275879 90.930112 
L 179.374841 90.930165 
L 179.403383 90.930118 
L 184.778114 90.921215 
L 184.899634 90.925051 
L 184.957892 90.927553 
L 185.140412 90.926163 
L 185.694584 90.925885 
L 188.181678 90.90765 
L 188.656794 90.929999 
L 189.059512 90.924384 
L 193.962346 90.925496 
L 194.138426 90.921715 
L 194.29893 90.929387 
L 195.558728 90.918547 
L 195.717187 90.925051 
L 197.196226 90.921771 
L 198.013495 90.920826 
L 198.391456 90.921382 
L 198.475994 90.923939 
L 198.816581 90.923939 
L 198.823934 90.923939 
L 199.221996 90.92683 
L 201.257469 90.913488 
L 201.671803 90.911931 
L 202.886265 90.915267 
L 203.694442 90.913194 
L 205.725606 90.907984 
L 205.79683 90.904148 
L 206.952686 90.911987 
L 207.816249 90.90904 
L 207.840874 90.907761 
L 208.306941 90.905037 
L 208.310857 90.907595 
L 209.447611 90.911264 
L 213.813112 90.90248 
L 214.416405 90.904926 
L 216.304122 90.902702 
L 216.402539 90.903981 
L 218.515657 90.910309 
L 218.519069 90.910319 
L 219.210467 90.912654 
L 219.963518 90.901924 
L 220.035438 90.894586 
L 220.085734 90.892195 
L 220.845746 90.902425 
L 220.980406 90.899867 
L 221.671804 90.907706 
L 221.730063 90.90904 
L 222.24277 90.895253 
L 223.415551 90.900423 
L 224.303696 90.896198 
L 225.092206 90.895976 
L 225.729219 90.907428 
L 226.485924 90.906816 
L 227.361887 90.903981 
L 228.171065 90.904394 
L 228.776794 90.904704 
L 238.197235 90.893974 
L 238.449456 90.89542 
L 239.241751 90.905593 
L 241.701087 90.888526 
L 242.31752 90.895809 
L 242.624083 90.898311 
L 243.295202 90.897914 
L 243.939702 90.897532 
L 245.783258 90.910041 
L 246.811153 90.905927 
L 247.130204 90.902925 
L 247.941382 90.907206 
L 248.053983 90.91232 
L 249.492254 90.910263 
L 249.677384 90.914155 
L 251.329457 90.916323 
L 253.085492 90.919879 
L 253.086125 90.919881 
L 255.50304 90.91699 
L 256.321484 90.919047 
L 257.151241 90.927664 
L 257.881362 90.922438 
L 257.885802 90.922558 
L 257.975863 90.924995 
L 259.815024 90.913376 
L 260.092567 90.923939 
L 260.160963 90.922938 
L 260.224399 90.922994 
L 271.207677 90.928164 
L 271.378536 90.928275 
L 271.427135 90.931833 
L 273.471136 90.920048 
L 274.2814 90.924995 
L 275.117596 90.919992 
L 275.449003 90.921326 
L 275.535716 90.922605 
L 277.564701 90.919332 
L 277.564727 90.919332 
L 277.568883 90.919325 
L 278.361048 90.926552 
L 278.388197 90.923995 
L 282.961104 90.949734 
L 282.964976 90.952292 
L 284.825848 90.953681 
L 284.918087 90.947733 
L 285.719302 90.947677 
L 287.430373 90.950735 
L 287.62973 90.933001 
L 291.467338 90.960297 
L 292.287914 90.959241 
L 293.229358 90.952514 
L 297.265149 90.950132 
L 297.27881 90.950123 
L 298.829203 90.953348 
L 298.925184 90.952347 
L 299.064238 90.953348 
L 299.118407 90.953237 
L 302.07892 90.95763 
L 310.057001 90.96947 
L 310.581369 90.984869 
L 310.819145 90.984313 
L 311.824024 90.980306 
L 311.864749 90.980144 
L 312.29975 90.973195 
L 312.864973 90.980033 
L 313.68668 90.986537 
L 314.202956 90.97653 
L 316.690181 90.980144 
L 316.794993 90.976308 
L 316.96133 90.980017 
L 316.964504 90.980088 
L 323.886103 90.998879 
L 324.037906 90.998712 
L 326.729279 90.995434 
L 326.73084 90.995432 
L 327.397961 90.993319 
L 327.557551 90.99382 
L 330.420692 91.006328 
L 330.42587 91.00883 
L 330.733869 91.007218 
L 331.657561 91.009831 
L 331.664043 91.007885 
L 333.230665 91.004994 
L 333.59553 91.000324 
L 334.887916 90.993431 
L 336.088803 90.993875 
L 336.672343 90.998378 
L 338.958253 91.004883 
L 342.248172 91.007718 
L 346.355951 91.008718 
L 346.359754 91.008719 
L 346.509816 91.008107 
L 364.318757 91.033847 
L 365.857272 91.033902 
L 367.232412 91.033958 
L 367.227452 91.380859 
L 367.254601 91.555422 
L 367.283709 91.639034 
L 367.484023 91.903491 
L 368.040588 92.273241 
L 368.691393 92.584063 
L 368.903324 92.735221 
L 369.252787 93.223218 
L 369.435611 93.541878 
L 369.757489 93.88889 
L 370.143456 94.094307 
L 370.344554 94.150901 
L 370.590248 94.159073 
L 371.064581 94.122993 
L 371.228696 94.149678 
L 371.346301 94.191206 
L 371.751324 94.427866 
L 371.88842 94.692212 
L 371.91396 95.027939 
L 371.856528 95.345765 
L 371.694023 95.749872 
L 371.668744 95.91932 
L 371.674401 96.061861 
L 371.694545 96.133132 
L 371.859792 96.367846 
L 371.972392 96.442563 
L 372.21304 96.554806 
L 372.397996 96.595445 
L 372.837957 96.589718 
L 373.149349 96.480533 
L 373.691556 96.204902 
L 373.857325 96.190504 
L 374.134345 96.262497 
L 374.291064 96.360619 
L 374.38909 96.486538 
L 374.442997 96.704796 
L 374.448131 96.847782 
L 374.40645 97.184899 
L 374.436253 97.377641 
L 374.528361 97.611188 
L 374.681034 97.796702 
L 374.783062 97.880036 
L 375.069393 98.029415 
L 376.037638 98.307437 
L 376.723076 98.64233 
L 376.947364 98.712211 
L 377.098296 98.721384 
L 378.360008 98.573728 
L 378.812196 98.549767 
L 379.002547 98.508795 
L 379.251156 98.353412 
L 379.430499 98.176348 
L 379.539663 97.887875 
L 379.552846 97.769906 
L 379.516821 97.329942 
L 379.547582 97.165775 
L 379.584608 97.082274 
L 379.830258 96.739264 
L 380.073516 96.595778 
L 380.27853 96.560032 
L 380.479584 96.570872 
L 380.932456 96.715846 
L 381.068476 96.759389 
L 381.212446 96.778291 
L 381.613859 96.733705 
L 382.24056 96.530011 
L 382.417597 96.500269 
L 382.754181 96.563534 
L 383.088024 96.697125 
L 383.495876 96.96197 
L 383.709896 97.218366 
L 383.78286 97.365243 
L 383.806268 97.484546 
L 383.810923 97.690686 
L 383.758103 97.908278 
L 383.627708 98.116307 
L 383.308875 98.430298 
L 383.223946 98.571727 
L 383.151547 98.75763 
L 383.144586 99.005798 
L 383.26641 99.26553 
L 383.358301 99.384721 
L 383.85887 99.855262 
L 384.260543 100.143457 
L 384.564061 100.238633 
L 384.859268 100.270654 
L 385.31524 100.241301 
L 385.453772 100.26087 
L 385.565155 100.31246 
L 385.822727 100.544618 
L 385.924364 100.678041 
L 385.995414 100.831923 
L 386.015212 100.991804 
L 386.017168 101.007598 
L 386.043273 101.413428 
L 386.02587 101.769224 
L 385.826251 102.300473 
L 385.689112 102.473034 
L 385.419009 102.618021 
L 385.30271 102.647374 
L 383.882582 102.722091 
L 383.706415 102.803925 
L 383.572756 102.915111 
L 383.464854 103.090341 
L 383.439793 103.325166 
L 383.460677 103.508401 
L 383.505926 103.617809 
L 383.706459 103.870424 
L 383.855433 104.015411 
L 384.266156 104.324065 
L 384.461772 104.413014 
L 384.724956 104.408566 
L 385.033347 104.306275 
L 385.202509 104.197757 
L 385.212386 104.189974 
L 385.254589 104.15684 
L 385.261202 104.151615 
L 385.269687 104.144943 
L 385.27308 104.142275 
L 385.696073 103.809939 
L 385.803279 103.750343 
L 385.804932 103.750343 
L 386.252116 103.653833 
L 386.317379 103.659393 
L 386.426194 103.726104 
L 386.508861 103.815054 
L 386.60023 103.970714 
L 386.704651 104.204206 
L 386.761212 104.726782 
L 386.759691 104.735506 
L 386.720836 104.958272 
L 386.608931 105.321629 
L 386.295668 105.788612 
L 386.05637 106.016544 
L 385.686545 106.222238 
L 385.355834 106.327865 
L 385.026385 106.375231 
L 384.88298 106.366336 
L 384.558579 106.278276 
L 384.19937 106.111052 
L 383.691143 105.745471 
L 383.290166 105.400349 
L 383.049998 105.244743 
L 382.876615 105.177142 
L 382.706756 105.156684 
L 382.591197 105.171805 
L 382.382355 105.317682 
L 382.154717 105.540054 
L 381.932648 105.926094 
L 381.898537 106.082644 
L 381.904106 106.425042 
L 382.018317 107.300301 
L 381.995344 108.103512 
L 381.954968 108.320548 
L 381.893707 108.467314 
L 381.675815 108.747503 
L 381.448177 108.899606 
L 381.335402 108.943191 
L 380.926071 109.014351 
L 380.585745 109.019409 
L 380.253164 109.059103 
L 379.979624 109.14266 
L 379.84875 109.220101 
L 379.575645 109.463821 
L 379.442986 109.632324 
L 379.01573 110.329963 
L 378.946768 110.511531 
L 378.707252 110.804451 
L 378.491275 111.165473 
L 378.323809 111.584034 
L 378.256022 111.881569 
L 378.246146 112.067139 
L 378.32281 112.419236 
L 378.339255 112.494762 
L 378.561193 112.921551 
L 378.624977 113.181838 
L 378.628632 113.295748 
L 378.593651 113.542582 
L 378.50176 113.850235 
L 378.261287 114.244669 
L 378.170223 114.351463 
L 378.056143 114.431239 
L 377.838599 114.543371 
L 377.629931 114.593238 
L 377.506148 114.598575 
L 377.30914 114.562884 
L 376.751053 114.325835 
L 376.480384 114.348628 
L 376.334238 114.400163 
L 376.154416 114.506234 
L 376.016145 114.646941 
L 375.970548 114.725272 
L 375.725898 115.543047 
L 375.705014 115.831687 
L 375.890057 116.479681 
L 376.007878 116.736967 
L 376.169209 116.976573 
L 376.612303 117.482805 
L 377.046956 117.901366 
L 377.276378 118.07704 
L 378.058666 118.48893 
L 378.192717 118.609623 
L 378.375585 118.830661 
L 378.446286 118.968644 
L 378.477047 119.140927 
L 378.541223 119.918954 
L 378.595043 120.221881 
L 378.656695 120.361531 
L 378.871455 120.699093 
L 379.014163 120.849083 
L 379.192202 121.005467 
L 379.40583 121.149398 
L 379.957217 121.453937 
L 380.829873 121.711612 
L 381.073349 121.821797 
L 381.422637 122.135343 
L 381.568218 122.375005 
L 381.663589 122.905364 
L 381.82257 123.183108 
L 382.001103 123.329434 
L 382.122172 123.428663 
L 382.611603 123.620126 
L 382.768583 123.738928 
L 382.914119 123.911434 
L 382.982472 124.075878 
L 382.966417 124.40549 
L 382.985343 124.631699 
L 383.013624 124.7316 
L 383.167558 124.973542 
L 383.269456 125.059655 
L 383.349488 125.116807 
L 383.379925 125.138542 
L 383.532467 125.193301 
L 383.991137 125.251897 
L 384.160168 125.213982 
L 384.306619 125.148716 
L 384.579767 125.008788 
L 384.917309 124.79014 
L 385.215083 124.7475 
L 385.35144 124.761509 
L 385.476441 124.810487 
L 385.648126 124.956752 
L 385.824207 125.284863 
L 385.898084 125.513852 
L 385.906482 125.740505 
L 385.80763 126.036261 
L 385.63986 126.22928 
L 385.391337 126.389389 
L 385.134461 126.4392 
L 385.03909 126.478338 
L 384.887984 126.592193 
L 384.679142 126.794997 
L 384.587251 126.932868 
L 384.560798 127.028043 
L 384.554394 127.083218 
L 384.533648 127.261979 
L 384.645727 128.633575 
L 384.709366 128.981627 
L 384.764767 129.284626 
L 384.860138 129.600396 
L 384.994493 129.938402 
L 385.204728 130.271072 
L 385.559803 130.700696 
L 385.754723 130.875926 
L 385.939896 130.997786 
L 386.407703 131.180965 
L 386.864372 131.404228 
L 387.332178 131.701318 
L 387.700481 132.038435 
L 387.978241 132.379999 
L 388.15158 132.734906 
L 388.23094 133.188547 
L 388.211448 133.379787 
L 388.138353 133.618171 
L 387.829223 134.182942 
L 387.822262 134.359951 
L 387.887699 134.519169 
L 387.969191 134.62235 
L 388.312389 134.959467 
L 388.44744 135.028848 
L 388.840063 135.141813 
L 389.362169 135.173835 
L 389.898198 135.082217 
L 390.050696 135.110681 
L 390.151637 135.166719 
L 390.311749 135.312595 
L 390.411819 135.474927 
L 390.638065 136.064215 
L 390.951329 136.625651 
L 391.421224 136.998125 
L 391.873715 137.164905 
L 391.874256 137.165032 
L 392.108707 137.220498 
L 392.66997 137.231616 
L 393.083304 137.153786 
L 393.857978 136.700146 
L 394.253735 136.425515 
L 394.553945 136.381041 
L 395.041288 136.508905 
L 395.271884 136.670125 
L 395.344692 136.962217 
L 395.425035 137.284541 
L 395.332797 137.865379 
L 395.84185 138.059955 
L 396.307394 138.115548 
L 397.00793 137.920972 
L 397.360351 137.731955 
L 397.664913 137.704159 
L 397.973869 137.754192 
L 398.221869 137.859819 
L 398.400255 138.009921 
L 398.487273 138.821582 
L 398.37415 139.071751 
L 398.030387 139.48314 
L 397.79979 139.833322 
L 397.743229 139.988983 
L 397.729306 140.320318 
L 397.734503 141.639666 
L 397.734527 141.64566 
L 397.730176 142.084846 
L 397.734527 142.974337 
L 397.722512 144.14525 
L 397.722195 144.176164 
L 397.701531 146.189912 
L 397.686667 147.638494 
L 397.687341 147.809799 
L 397.692149 149.032499 
L 397.695369 149.851103 
L 397.695369 149.962289 
L 397.707029 150.107276 
L 397.702156 150.136629 
L 397.702155 150.137908 
L 397.702078 150.233139 
L 397.700433 152.260287 
L 397.700085 152.689909 
L 397.699981 152.817928 
L 397.699763 153.08657 
L 397.699763 153.898231 
L 397.699763 153.959383 
L 397.701504 154.005859 
L 397.701378 154.030265 
L 397.699763 154.342976 
L 397.699763 154.687654 
L 397.699763 155.121281 
L 397.717515 156.21352 
L 397.715408 156.320264 
L 397.699415 157.130585 
L 397.64033 160.945612 
L 397.63785 161.042344 
L 397.635547 161.186784 
L 397.54448 166.897196 
L 397.550441 167.473864 
L 397.533342 167.725479 
L 397.531167 168.348845 
L 397.53208 169.968442 
L 397.531428 169.970054 
L 397.519506 170.168188 
L 397.520333 171.654138 
L 397.515329 171.759765 
L 397.51524 171.776994 
L 397.506943 173.380788 
L 397.499144 174.88816 
L 397.495576 175.292712 
L 397.496882 175.360147 
L 397.489527 175.66878 
L 397.489485 175.670523 
L 397.476783 178.08216 
L 397.467774 179.792702 
L 397.472125 180.404005 
L 397.471672 180.610124 
L 397.469341 181.671974 
L 397.47008 181.96167 
L 397.483655 183.551969 
L 397.491269 184.18651 
L 397.492879 184.422503 
L 397.497882 184.717703 
L 397.497882 185.401777 
L 397.490442 186.019083 
L 397.490225 186.102974 
L 397.497056 187.188153 
L 397.500449 189.002047 
L 397.499536 189.601286 
L 397.498491 190.031355 
L 397.498535 190.120415 
L 397.491399 190.883765 
L 397.490268 191.061886 
L 397.480479 191.626824 
L 397.465294 192.885676 
L 397.45111 193.290116 
L 397.446411 193.89408 
L 397.437492 198.476404 
L 397.436274 198.55657 
L 397.437753 198.879733 
L 397.437758 198.88152 
L 397.440958 200.16008 
L 397.440973 200.166104 
L 397.430922 202.639278 
L 397.419915 202.898509 
L 397.415912 203.830362 
L 397.415694 204.915541 
L 397.414302 205.001098 
L 397.413519 205.31331 
L 397.40734 205.513056 
L 397.403816 205.739265 
L 397.406296 205.878248 
L 397.388762 206.893157 
L 397.379538 207.424183 
L 397.376232 207.680857 
L 397.36592 208.510974 
L 397.356566 208.984183 
L 397.360351 209.307791 
L 397.353128 209.829478 
L 397.341209 210.46743 
L 397.334594 210.821482 
L 397.33355 211.250773 
L 397.315624 212.257232 
L 397.27825 214.841537 
L 397.274465 217.246665 
L 397.267199 217.665337 
L 397.274595 219.444208 
L 397.281295 219.58358 
L 397.279729 219.640174 
L 397.271114 219.886952 
L 397.277684 220.392127 
L 397.277692 220.39333 
L 397.284559 221.473748 
L 397.284583 221.478997 
L 397.288866 222.391091 
L 397.296567 223.87404 
L 397.290998 223.928132 
L 397.297307 226.019881 
L 397.295914 226.041951 
L 397.306095 226.291342 
L 397.302658 226.830874 
L 397.301527 227.043407 
L 397.313622 228.471096 
L 397.3188 228.820999 
L 397.308619 230.919364 
L 397.301658 231.703228 
L 397.301788 231.951285 
L 397.299961 232.214073 
L 397.3007 232.2198 
L 397.300874 232.530288 
L 397.303877 233.362518 
L 397.29809 234.156499 
L 397.287387 234.969661 
L 397.285385 235.777652 
L 397.282427 237.37868 
L 397.282383 237.385963 
L 397.286255 237.557746 
L 397.286224 237.568192 
L 397.281948 238.999722 
L 397.279381 239.087281 
L 397.281426 239.824058 
L 397.262848 244.446798 
L 397.259236 244.604627 
L 397.260759 245.063993 
L 397.259585 245.131428 
L 397.258389 245.581991 
L 397.256582 246.262694 
L 397.252841 246.286877 
L 397.252426 246.99013 
L 397.252232 247.318853 
L 397.244139 247.740805 
L 397.245531 248.096713 
L 397.250839 248.906761 
L 397.250851 248.908322 
L 397.262978 250.455921 
L 397.262848 250.599907 
L 397.256887 251.521976 
L 397.259541 252.033489 
L 397.263544 252.438874 
L 397.262282 252.605932 
L 397.262195 252.615772 
L 397.262543 253.008371 
L 397.26089 253.036056 
L 397.266894 253.639631 
L 397.271549 254.655819 
L 397.267634 255.55982 
L 397.266328 257.312173 
L 397.267677 257.874275 
L 396.951803 257.887229 
L 393.709918 257.879835 
L 393.620203 257.879334 
L 393.142781 257.880446 
L 392.0806 257.887618 
L 391.987448 257.886395 
L 390.337028 257.882114 
L 387.986551 257.879446 
L 387.566865 257.878278 
L 387.180724 257.875888 
L 387.032968 257.875999 
L 380.85054 257.839585 
L 380.314207 257.840419 
L 380.148308 257.839252 
L 379.326383 257.840252 
L 378.998631 257.841364 
L 378.492101 257.83675 
L 377.447455 257.840697 
L 375.331577 257.839704 
L 373.893742 257.839029 
L 373.885693 257.838974 
L 373.729194 257.839156 
L 372.931588 257.840086 
L 372.148168 257.837584 
L 366.611323 257.849092 
L 366.37233 257.848702 
L 366.360626 257.848647 
L 366.23519 257.847869 
L 362.912772 257.855585 
L 362.90794 257.855596 
L 358.387592 257.85593 
L 357.916088 257.853369 
L 357.39459 257.850537 
L 355.689175 257.85176 
L 354.012259 257.851149 
L 353.847186 257.848702 
L 353.481016 257.84898 
L 353.231754 257.851204 
L 351.742795 257.851093 
L 351.318979 257.850433 
L 350.779032 257.849592 
L 350.334937 257.857041 
L 349.737953 257.848369 
L 349.541859 257.853483 
L 349.404066 257.854818 
L 348.366207 257.855429 
L 348.167713 257.855049 
L 347.583179 257.853928 
L 347.199692 257.857597 
L 346.414663 257.85176 
L 345.491493 257.8621 
L 342.927997 257.854484 
L 342.621477 257.852316 
L 342.56435 257.852205 
L 342.481944 257.852094 
L 341.044892 257.850315 
L 340.264257 257.855374 
L 339.878334 257.854095 
L 338.691503 257.86379 
L 337.101688 257.876777 
L 330.993051 257.870495 
L 330.906163 257.861545 
L 330.734913 257.867771 
L 330.623269 257.86677 
L 330.506883 257.866159 
L 330.435833 257.860043 
L 329.100286 257.857269 
L 329.097894 257.857264 
L 328.433949 257.867437 
L 327.670674 257.865102 
L 325.112486 257.853928 
L 324.994534 257.853873 
L 319.982623 257.856708 
L 319.062847 257.862712 
L 315.369993 257.888841 
L 314.269669 257.885003 
L 306.444464 257.857709 
L 306.224701 257.853928 
L 305.088773 257.853094 
L 304.885152 257.855707 
L 304.512368 257.869661 
L 302.675339 257.858987 
L 302.538765 257.876777 
L 301.33827 257.858876 
L 299.392295 257.85693 
L 299.010592 257.856041 
L 297.888369 257.860377 
L 297.826282 257.861656 
L 297.235302 257.858876 
L 297.025502 257.860599 
L 296.878486 257.861795 
L 296.471765 257.865102 
L 295.047765 257.865269 
L 294.691385 257.867938 
L 292.319284 257.872941 
L 291.897162 257.868994 
L 289.248867 257.869105 
L 289.091191 257.867882 
L 288.394659 257.868216 
L 288.294066 257.866993 
L 287.200951 257.862823 
L 280.541097 257.872291 
L 277.42452 257.876721 
L 276.880486 257.877722 
L 273.514862 257.886506 
L 273.511976 257.886493 
L 273.054495 257.884504 
L 270.686267 257.882892 
L 269.876655 257.885172 
L 269.850637 257.883059 
L 269.065825 257.88506 
L 267.237889 257.886673 
L 265.907041 257.863991 
L 265.327112 257.868772 
L 263.297948 257.878667 
L 260.182717 257.882892 
L 259.541919 257.871162 
L 259.539439 257.8775 
L 258.721082 257.884949 
L 258.72043 257.88495 
L 248.641961 257.90424 
L 248.383736 257.905185 
L 248.146526 257.906408 
L 245.246968 257.917193 
L 243.703841 257.915581 
L 242.392311 257.924087 
L 241.059984 257.924754 
L 240.569161 257.934372 
L 239.776735 257.926144 
L 235.057073 257.9267 
L 235.015262 257.926706 
L 234.714006 257.926755 
L 232.324589 257.896068 
L 231.920958 257.894678 
L 231.836507 257.895901 
L 226.421788 257.869206 
L 226.412568 257.869161 
L 219.031733 257.865658 
L 218.859743 257.858987 
L 216.98312 257.845367 
L 215.663107 257.854818 
L 215.585878 257.856374 
L 215.423112 257.856263 
L 212.290608 257.853094 
L 211.831155 257.854373 
L 211.806311 257.851816 
L 206.8554 257.841587 
L 206.597309 257.840625 
L 205.334071 257.835916 
L 204.448318 257.856708 
L 201.176978 257.845645 
L 200.978316 257.845534 
L 195.815082 257.837584 
L 194.536532 257.836806 
L 190.277672 257.803561 
L 188.901749 257.836806 
L 186.761637 257.84281 
L 185.537734 257.834193 
L 184.838896 257.836972 
L 184.838896 257.833581 
L 184.740131 257.833136 
L 184.678 257.83297 
L 184.483037 257.832414 
L 183.067178 257.837165 
L 182.329612 257.839641 
L 179.40012 257.831691 
L 178.38841 257.835416 
L 177.996569 257.802449 
L 172.923572 257.766869 
L 172.899164 257.766647 
L 172.411865 257.761644 
L 168.522482 257.721172 
L 163.310474 257.722728 
L 163.045723 257.718948 
L 162.990162 257.718559 
L 162.853414 257.717447 
L 159.208344 257.697126 
L 158.066748 257.690762 
L 154.941727 257.697656 
L 154.731841 257.700213 
L 154.671668 257.694821 
L 154.326991 257.697711 
L 139.1023 257.778933 
L 139.055093 257.77254 
L 137.373695 257.792498 
L 137.369997 257.791219 
L 135.701129 257.812011 
L 135.546368 257.816959 
L 133.709209 257.830746 
L 131.143712 257.865714 
L 130.170115 257.849147 
L 129.796374 257.859154 
L 128.028524 257.863935 
L 127.673449 257.864269 
L 125.874055 257.889786 
L 124.306606 257.891009 
L 123.757786 257.88317 
L 123.744124 257.893399 
L 121.965445 257.916083 
L 121.96122 257.916137 
L 119.745055 257.922141 
L 119.042866 257.914803 
L 117.261267 257.926422 
L 116.701657 257.928922 
L 116.688996 257.928979 
L 110.391356 257.973287 
L 110.329443 257.977734 
L 104.025538 258.020708 
L 103.943872 258.022876 
L 103.138698 258.026656 
L 101.585955 258.035329 
L 101.536486 258.037664 
L 98.476903 258.057399 
L 97.008915 258.061013 
L 95.435071 258.068351 
L 95.434144 258.068358 
L 93.470343 258.082861 
L 93.418263 258.086085 
L 80.328767 258.163527 
L 76.064599 258.18871 
L 76.064599 258.187432 
L 74.856794 258.195604 
L 74.246235 258.197939 
L 74.258766 256.437914 
L 74.258853 256.100853 
L 74.260114 256.024523 
L 74.267598 255.901162 
L 74.260158 255.863025 
L 74.257417 251.889891 
L 74.264987 251.588465 
L 74.252674 250.863085 
L 74.250803 250.863085 
L 74.25659 249.9334 
L 74.258287 243.461242 
L 74.271296 241.266089 
L 74.264639 240.607866 
L 74.257808 238.210521 
L 74.252805 238.199069 
L 74.277387 236.964956 
L 74.2747 236.177065 
L 74.270774 235.025866 
L 74.271079 233.64482 
L 74.267337 233.638426 
L 74.265335 231.713068 
L 74.265988 229.67958 
L 74.255981 228.056537 
L 74.261072 227.727148 
L 74.261289 226.793682 
L 74.273298 224.020083 
L 74.274733 221.995713 
L 74.274864 221.427939 
L 74.269991 220.806074 
L 74.275212 219.985797 
L 74.262072 217.570884 
L 74.257114 216.755575 
L 74.249803 215.553463 
L 74.227613 213.963832 
L 74.215213 213.142331 
L 74.211733 211.9965 
L 74.20364 209.562464 
L 74.176403 206.326607 
L 74.176447 206.217255 
L 74.14164 199.688947 
L 74.158565 195.937575 
L 74.144033 195.270345 
L 74.158739 194.338326 
L 74.152343 188.321086 
L 74.147467 187.631921 
L 74.144974 187.279597 
L 74.144947 187.275712 
L 74.142989 184.85713 
L 74.128587 180.84914 
L 74.150429 179.104459 
L 74.128935 178.888868 
L 74.112054 177.000535 
L 74.114708 174.123699 
L 74.114751 174.116082 
L 74.121278 173.101395 
L 74.116448 171.988809 
L 74.117928 171.158525 
L 74.11697 169.88672 
L 74.113628 168.021043 
L 74.11362 168.016565 
L 74.122931 164.994075 
L 74.121713 164.697819 
L 74.119189 164.68253 
L 74.120625 164.042986 
L 74.119363 163.941251 
L 74.116927 163.440245 
L 74.109835 160.284109 
L 74.113664 160.218009 
L 74.110009 159.409906 
L 74.106659 158.665569 
L 74.111619 157.775522 
L 74.109269 157.001164 
L 74.057798 144.012039 
L 74.033303 139.41654 
L 74.030927 139.22499 
L 74.028256 139.009653 
L 73.976089 129.774625 
L 73.953856 125.851191 
L 73.944849 124.189789 
L 73.936017 123.377406 
L 73.936061 123.092602 
L 73.922573 118.486706 
L 73.922834 116.79067 
L 73.928012 116.666085 
L 73.918882 115.040096 
L 73.917047 114.713319 
L 73.910608 113.697465 
L 73.890246 110.711166 
L 73.904299 110.27954 
L 73.882762 109.068609 
L 73.854047 101.096658 
L 73.851262 100.300619 
L 73.849304 99.735792 
L 73.840341 99.383665 
L 73.832727 90.862731 
" clip-path="url(#pcb3cc9700e)" style="fill: #ff5733"/>
   </g>
   <g id="text_1">
    <!-- KS -->
    <g transform="translate(228.41625 76.491067) scale(0.12 -0.12)">
     <defs>
      <path id="DejaVuSans-4b" d="M 628 4666 
L 1259 4666 
L 1259 2694 
L 3353 4666 
L 4166 4666 
L 1850 2491 
L 4331 0 
L 3500 0 
L 1259 2247 
L 1259 0 
L 628 0 
L 628 4666 
z
" transform="scale(0.015625)"/>
      <path id="DejaVuSans-53" d="M 3425 4513 
L 3425 3897 
Q 3066 4069 2747 4153 
Q 2428 4238 2131 4238 
Q 1616 4238 1336 4038 
Q 1056 3838 1056 3469 
Q 1056 3159 1242 3001 
Q 1428 2844 1947 2747 
L 2328 2669 
Q 3034 2534 3370 2195 
Q 3706 1856 3706 1288 
Q 3706 609 3251 259 
Q 2797 -91 1919 -91 
Q 1588 -91 1214 -16 
Q 841 59 441 206 
L 441 856 
Q 825 641 1194 531 
Q 1563 422 1919 422 
Q 2459 422 2753 634 
Q 3047 847 3047 1241 
Q 3047 1584 2836 1778 
Q 2625 1972 2144 2069 
L 1759 2144 
Q 1053 2284 737 2584 
Q 422 2884 422 3419 
Q 422 4038 858 4394 
Q 1294 4750 2059 4750 
Q 2388 4750 2728 4690 
Q 3069 4631 3425 4513 
z
" transform="scale(0.015625)"/>
     </defs>
     <use xlink:href="#DejaVuSans-4b"/>
     <use xlink:href="#DejaVuSans-53" x="65.576172"/>
    </g>
   </g>
  </g>
 </g>
 <defs>
  <clipPath id="pcb3cc9700e">
   <rect x="57.6" y="82.491067" width="357.12" height="184.073865"/>
  </clipPath>
 </defs>
</svg>
