<?xml version="1.0" encoding="utf-8" standalone="no"?>
<!DOCTYPE svg PUBLIC "-//W3C//DTD SVG 1.1//EN"
  "http://www.w3.org/Graphics/SVG/1.1/DTD/svg11.dtd">
<svg xmlns:xlink="http://www.w3.org/1999/xlink" width="460.8pt" height="345.6pt" viewBox="0 0 460.8 345.6" xmlns="http://www.w3.org/2000/svg" version="1.1">
 <metadata>
  <rdf:RDF xmlns:dc="http://purl.org/dc/elements/1.1/" xmlns:cc="http://creativecommons.org/ns#" xmlns:rdf="http://www.w3.org/1999/02/22-rdf-syntax-ns#">
   <cc:Work>
    <dc:type rdf:resource="http://purl.org/dc/dcmitype/StillImage"/>
    <dc:date>2023-06-19T14:47:40.861560</dc:date>
    <dc:format>image/svg+xml</dc:format>
    <dc:creator>
     <cc:Agent>
      <dc:title>Matplotlib v3.7.1, https://matplotlib.org/</dc:title>
     </cc:Agent>
    </dc:creator>
   </cc:Work>
  </rdf:RDF>
 </metadata>
 <defs>
  <style type="text/css">*{stroke-linejoin: round; stroke-linecap: butt}</style>
 </defs>
 <g id="figure_1">
  <g id="patch_1">
   <path d="M 0 345.6 
L 460.8 345.6 
L 460.8 0 
L 0 0 
z
" style="fill: #ffffff"/>
  </g>
  <g id="axes_1">
   <g id="PatchCollection_1">
    <path d="M 80.911582 244.452711 
L 81.209026 243.687398 
L 81.28901 243.166202 
L 81.296864 242.925543 
L 81.327508 242.751559 
L 81.888635 241.457269 
L 81.979076 241.050568 
L 82.09137 240.133857 
L 82.16158 239.821983 
L 82.200591 239.721969 
L 82.390564 239.445269 
L 82.623346 239.217307 
L 83.009097 239.034678 
L 83.553578 238.896788 
L 83.967882 238.828761 
L 84.243485 238.831814 
L 84.280094 238.832219 
L 84.646169 239.217307 
L 84.848861 239.484173 
L 85.356892 240.347717 
L 85.649897 240.910139 
L 86.320074 241.776276 
L 86.628444 242.117328 
L 86.784358 242.251274 
L 87.128495 242.454381 
L 87.200028 242.465242 
L 88.129449 242.363877 
L 88.523096 242.226041 
L 88.944443 241.859486 
L 89.110216 241.645518 
L 89.577829 240.486147 
L 89.6506 239.589157 
L 89.725974 239.185428 
L 89.789227 239.007824 
L 90.007413 238.626302 
L 90.211983 238.349765 
L 90.400974 238.156384 
L 90.767177 237.847211 
L 90.7697 237.84415 
L 91.199962 237.322233 
L 91.435604 236.986152 
L 91.024031 236.686814 
L 90.889202 236.652557 
L 90.992276 236.54071 
L 91.056554 236.346572 
L 91.054207 235.950786 
L 90.989929 235.769021 
L 90.763122 235.494429 
L 90.356799 235.101182 
L 89.858115 234.518768 
L 89.711292 234.301126 
L 89.657855 234.07981 
L 89.644411 233.775554 
L 89.697719 233.319252 
L 89.782655 233.038554 
L 90.049624 232.616832 
L 90.349672 232.269891 
L 90.562137 232.135135 
L 91.007684 231.954613 
L 91.102351 231.945968 
L 91.524807 232.143996 
L 91.748199 232.128002 
L 92.151236 232.176361 
L 92.441253 232.360773 
L 92.659737 232.374498 
L 92.841772 232.372714 
L 92.999862 232.204728 
L 93.137807 231.936836 
L 93.250271 231.517816 
L 93.271441 231.254895 
L 93.23815 231.082856 
L 93.084925 230.733591 
L 92.955005 230.561408 
L 92.952913 230.558635 
L 92.722734 230.430686 
L 92.539761 230.400915 
L 92.070355 230.39416 
L 91.571714 230.352394 
L 91.358906 230.255784 
L 91.035342 230.004156 
L 90.923901 229.866481 
L 90.753585 229.555696 
L 90.652963 229.372086 
L 90.596112 229.228414 
L 90.575625 229.06702 
L 90.603581 228.870396 
L 90.590179 228.069962 
L 90.621549 227.896086 
L 90.663206 227.831626 
L 90.823601 227.614038 
L 90.952455 227.521318 
L 91.104357 227.466908 
L 91.419129 227.468205 
L 91.510296 227.424979 
L 91.673209 227.246942 
L 91.922423 227.217333 
L 92.336642 227.206472 
L 92.593795 226.661395 
L 92.817529 225.870578 
L 93.111558 225.291406 
L 93.20742 225.044803 
L 93.556977 223.277407 
L 93.865987 222.246039 
L 93.924503 221.985657 
L 93.924673 221.9841 
L 94.006578 221.235851 
L 93.999579 221.044631 
L 93.974525 220.874213 
L 93.834318 220.595569 
L 93.551813 220.224745 
L 93.315701 220.020936 
L 93.176134 219.93751 
L 92.887227 219.849978 
L 92.725082 219.862621 
L 92.552352 219.927892 
L 92.316667 219.764066 
L 91.367869 218.955635 
L 91.121173 218.778085 
L 90.921725 218.522242 
L 90.816089 218.341937 
L 90.586466 217.827603 
L 90.506481 217.508003 
L 90.435631 216.944338 
L 90.484287 216.456426 
L 90.569009 216.094032 
L 90.725179 215.604662 
L 90.889264 215.274255 
L 91.051176 214.948223 
L 91.630912 214.154543 
L 91.767918 214.069172 
L 91.831811 214.104779 
L 91.968433 214.056907 
L 92.193618 213.886651 
L 92.32546 213.722339 
L 92.427211 213.436454 
L 92.466307 213.378045 
L 92.887099 213.078977 
L 93.017361 212.942329 
L 93.08373 212.82643 
L 93.292269 212.70248 
L 93.479639 212.52574 
L 93.997872 211.341623 
L 94.099367 211.058872 
L 94.138463 210.832423 
L 94.25878 210.505635 
L 94.53228 210.010538 
L 94.972108 209.495988 
L 95.748261 208.75888 
L 96.46415 207.996268 
L 96.621856 207.93948 
L 96.945677 207.5498 
L 97.627633 207.282556 
L 97.972624 207.006559 
L 97.861141 207.039789 
L 98.18398 206.833494 
L 98.939775 206.602019 
L 99.640981 206.536857 
L 100.696055 206.595211 
L 101.08164 206.652567 
L 101.138486 206.661023 
L 101.297516 206.713341 
L 101.6023 206.81361 
L 101.770634 206.839437 
L 102.372137 207.109166 
L 103.793883 207.627228 
L 105.265481 208.341805 
L 105.867966 208.573225 
L 106.517357 208.768174 
L 106.873615 208.970308 
L 107.318607 209.309091 
L 107.637904 209.638093 
L 107.78797 209.838823 
L 108.24009 210.169393 
L 108.764597 210.599544 
L 109.063491 210.769043 
L 109.410403 211.04196 
L 109.659318 211.18012 
L 110.029149 211.329358 
L 110.166411 211.359237 
L 110.920627 211.250903 
L 111.286403 211.331465 
L 111.551708 211.42748 
L 113.382509 212.32085 
L 113.676794 212.403789 
L 113.991438 212.420323 
L 114.192722 212.503803 
L 114.809419 212.866522 
L 115.248863 213.172561 
L 115.557105 213.460012 
L 115.758346 213.573804 
L 116.081526 214.06485 
L 116.291388 214.319612 
L 116.604795 214.516235 
L 116.840816 214.71461 
L 117.003563 214.851398 
L 117.627944 215.175969 
L 118.218094 215.327854 
L 118.650879 215.414738 
L 118.95306 215.433811 
L 119.376413 215.431974 
L 119.980813 215.293046 
L 119.989696 215.291004 
L 120.297511 215.332069 
L 120.584712 215.272147 
L 121.317928 214.971025 
L 121.930102 213.630754 
L 122.009574 213.131442 
L 121.975642 213.09497 
L 121.975642 213.058498 
L 122.30467 212.201384 
L 122.352814 212.127414 
L 122.776423 210.858898 
L 122.792343 210.722359 
L 122.634679 210.434367 
L 122.557469 210.385197 
L 122.489948 210.297125 
L 122.392038 210.093315 
L 122.406037 209.996003 
L 122.221357 209.232203 
L 122.146836 209.138565 
L 122.043164 208.744345 
L 121.795272 207.961364 
L 121.671967 207.771224 
L 121.325824 207.420554 
L 120.975072 207.231982 
L 120.771398 207.062915 
L 120.49713 206.679502 
L 120.430932 206.552256 
L 120.206771 205.948823 
L 120.108819 205.770355 
L 119.890889 205.534342 
L 119.532625 205.25694 
L 119.223017 204.895896 
L 119.16766 204.79491 
L 119.269497 204.55036 
L 119.156606 204.186074 
L 118.885496 203.610901 
L 118.940042 203.237808 
L 119.075085 202.828297 
L 119.196299 202.567537 
L 119.34867 202.324122 
L 119.541631 201.785744 
L 119.816027 201.252608 
L 119.979367 200.855308 
L 120.122903 200.609245 
L 120.228966 200.284349 
L 120.307925 199.781525 
L 120.329223 199.257412 
L 120.482448 198.693477 
L 120.564865 198.054653 
L 120.836657 197.547831 
L 121.022875 197.315924 
L 121.443752 196.887178 
L 121.694417 196.712384 
L 122.155116 196.458486 
L 122.417647 196.363767 
L 122.724992 196.295038 
L 123.040277 196.157472 
L 123.198697 196.066774 
L 123.274425 196.023418 
L 123.457953 195.983002 
L 123.657743 196.040816 
L 123.947418 196.176005 
L 124.360186 196.45492 
L 124.79391 196.814613 
L 124.967281 197.110872 
L 125.062502 197.197972 
L 125.307619 197.255624 
L 125.474672 197.187111 
L 125.604892 197.085221 
L 125.60788 197.082883 
L 126.036013 196.76593 
L 126.685703 195.875261 
L 126.795009 195.76147 
L 127.197191 195.47029 
L 127.354001 195.3907 
L 127.564845 195.152256 
L 128.194988 194.815905 
L 128.884456 194.503598 
L 130.014393 194.279256 
L 130.757426 194.275852 
L 131.302548 194.244567 
L 132.074604 194.093385 
L 132.856007 194.001098 
L 133.42503 193.898761 
L 133.575225 193.800314 
L 134.202763 193.728721 
L 135.138288 193.475364 
L 135.245588 193.4792 
L 135.442689 193.535826 
L 136.236256 193.435218 
L 136.816675 193.399773 
L 137.015654 193.417387 
L 137.015654 193.470555 
L 137.048774 193.506 
L 137.164696 193.506 
L 137.31378 193.417387 
L 137.57772 193.015009 
L 137.816776 192.830381 
L 137.982463 192.919102 
L 138.015584 192.936824 
L 138.164711 192.777159 
L 138.247512 192.599447 
L 138.252634 192.533527 
L 138.219514 192.515805 
L 138.16979 192.373808 
L 138.236031 192.161029 
L 138.290279 191.659555 
L 138.288134 191.654446 
L 138.224721 191.503348 
L 138.235818 191.209412 
L 138.204106 191.090973 
L 137.960525 190.575397 
L 137.822922 190.384718 
L 137.575201 190.211652 
L 137.227437 190.095105 
L 137.148263 190.044422 
L 136.944889 189.800575 
L 136.588076 189.168775 
L 136.39981 188.906719 
L 136.026564 188.582039 
L 135.719816 188.259088 
L 135.288525 187.999625 
L 135.212937 187.931166 
L 135.094668 187.604271 
L 134.932096 187.271108 
L 134.890823 187.032609 
L 134.921298 186.794975 
L 134.898847 186.584519 
L 134.835978 186.337106 
L 134.389279 185.305629 
L 134.212751 184.766711 
L 134.146723 184.380543 
L 134.13537 183.886201 
L 134.074678 183.603342 
L 134.069342 183.427197 
L 134.104127 183.19729 
L 134.153851 183.051673 
L 134.433881 182.481308 
L 134.699015 182.076498 
L 135.174993 181.595179 
L 135.257837 181.290221 
L 135.56975 180.752491 
L 135.681617 180.612494 
L 135.878333 180.455908 
L 136.33566 180.275873 
L 136.559479 180.16127 
L 136.819193 179.881977 
L 137.239942 179.591176 
L 137.409642 179.493809 
L 137.810288 179.337278 
L 138.183149 179.047719 
L 138.363007 178.833589 
L 138.774708 178.213839 
L 139.087986 177.50915 
L 139.161782 177.241042 
L 139.251582 176.580497 
L 139.37715 176.169311 
L 139.521796 175.929192 
L 139.709934 175.774498 
L 140.009085 175.656437 
L 140.259921 175.628286 
L 140.705425 175.724734 
L 141.029971 175.858356 
L 141.200823 175.961882 
L 141.28324 176.054115 
L 141.454434 176.153912 
L 141.573898 176.175633 
L 141.914022 176.38074 
L 142.109672 176.562072 
L 142.175529 176.71293 
L 142.612241 177.179391 
L 142.929787 177.259413 
L 143.10034 177.226885 
L 143.191294 177.165667 
L 143.27482 177.069543 
L 143.52698 176.385603 
L 143.643797 176.288939 
L 143.693435 176.174174 
L 143.683277 175.990843 
L 143.784943 175.858356 
L 143.998818 175.740619 
L 144.357552 175.617588 
L 144.701176 175.45387 
L 144.883723 175.320627 
L 144.978261 175.05576 
L 145.012022 174.772847 
L 144.842621 173.700361 
L 144.73579 173.386703 
L 144.538775 173.051595 
L 144.009061 172.560388 
L 143.628134 172.061778 
L 143.54704 171.915134 
L 143.466927 171.67777 
L 143.423564 171.454941 
L 143.431331 171.229627 
L 143.464196 170.995559 
L 143.536924 170.82633 
L 143.604403 170.729882 
L 143.803083 170.474147 
L 143.989172 170.279415 
L 144.018059 170.237165 
L 144.246325 169.903296 
L 144.969981 168.984369 
L 145.257096 168.842697 
L 145.495725 168.820219 
L 145.886256 168.911642 
L 146.142172 169.030729 
L 146.3464 169.194717 
L 146.644399 169.515831 
L 146.749437 169.688626 
L 146.935483 170.179185 
L 146.999291 170.294274 
L 147.496653 170.699408 
L 147.535023 170.759005 
L 147.662981 170.994748 
L 147.66631 171.226655 
L 147.684321 171.284361 
L 147.816248 171.422468 
L 147.996319 171.554577 
L 148.13738 171.598235 
L 149.100476 171.669828 
L 149.647988 171.665397 
L 149.830876 171.641569 
L 149.857599 171.635229 
L 150.022642 171.596074 
L 150.140612 171.531073 
L 150.594225 171.164464 
L 150.680057 171.07169 
L 151.053259 170.82071 
L 151.997021 170.618413 
L 152.289301 170.634839 
L 152.701812 170.758465 
L 152.943558 170.730801 
L 153.254958 170.659046 
L 153.671524 170.476633 
L 153.681351 170.471489 
L 154.208323 170.195665 
L 154.392705 170.140336 
L 154.549771 170.152439 
L 154.746445 170.225058 
L 154.928821 170.356465 
L 155.141202 170.557033 
L 155.203345 170.679794 
L 155.295536 171.108594 
L 155.297457 171.331694 
L 155.242782 171.562574 
L 155.154262 171.726291 
L 155.038853 171.869423 
L 154.855026 172.036112 
L 154.76053 172.169356 
L 154.494499 172.711246 
L 154.483103 173.224931 
L 154.53479 173.537777 
L 154.598854 173.770062 
L 154.75464 174.018016 
L 154.888701 174.15877 
L 155.139452 174.249112 
L 155.623924 174.32573 
L 156.021412 174.333187 
L 156.450441 174.272887 
L 156.911054 174.161472 
L 157.321432 174.004941 
L 157.448322 173.904116 
L 157.697024 173.643194 
L 158.341294 172.672072 
L 158.459734 172.437464 
L 158.472666 172.015634 
L 158.337965 171.021278 
L 158.101683 170.74031 
L 157.894723 170.560491 
L 157.616784 170.394504 
L 157.113447 169.955329 
L 156.98438 169.74871 
L 156.858044 169.457368 
L 156.765853 169.170348 
L 156.742635 168.885923 
L 156.88536 168.522393 
L 157.146909 168.247045 
L 157.517039 167.919393 
L 157.713371 167.64707 
L 157.82861 167.14457 
L 157.756052 167.00949 
L 157.756052 166.80957 
L 157.815806 166.604247 
L 157.91824 166.409731 
L 158.118841 166.285457 
L 158.281028 166.231425 
L 158.413339 166.220618 
L 158.495221 166.236566 
L 158.579795 166.253038 
L 158.784707 166.361102 
L 158.921286 166.463764 
L 159.057865 166.669086 
L 159.11335 166.944651 
L 159.076132 167.366103 
L 159.172463 167.764645 
L 159.327481 168.101806 
L 159.435378 168.279896 
L 159.714 168.646451 
L 160.058222 168.955948 
L 160.176619 169.032675 
L 160.287675 169.104645 
L 160.900958 169.448723 
L 161.381034 169.647562 
L 161.755986 169.982129 
L 161.927393 169.965704 
L 162.198503 169.834297 
L 162.656043 169.427974 
L 162.829498 169.236916 
L 163.718671 168.508993 
L 164.33062 168.109654 
L 164.361276 168.089649 
L 164.47532 168.036913 
L 164.941695 167.941546 
L 165.297569 167.9081 
L 165.721647 167.910694 
L 166.402537 168.045558 
L 166.465364 168.101752 
L 166.889008 168.246159 
L 167.357951 168.406008 
L 167.674741 168.588449 
L 167.691204 168.59793 
L 167.708277 168.616085 
L 167.679595 168.678331 
L 167.695984 168.70686 
L 168.067522 169.121827 
L 168.152202 169.194447 
L 168.294927 169.219518 
L 168.447895 169.343144 
L 168.537355 169.458124 
L 168.865187 169.726124 
L 169.272193 169.920587 
L 169.324776 169.886006 
L 169.427211 169.883412 
L 169.927816 170.019141 
L 170.672042 170.407239 
L 170.683782 170.413361 
L 171.876886 171.251023 
L 172.068097 171.417875 
L 172.119156 171.48296 
L 172.365156 171.796533 
L 172.692946 172.094791 
L 174.15716 173.077747 
L 174.521144 173.235035 
L 174.955465 173.366441 
L 175.902002 173.496983 
L 176.296033 173.445977 
L 176.550753 173.505628 
L 176.659333 173.562686 
L 176.806198 173.686312 
L 177.036334 173.982787 
L 177.528702 174.858542 
L 177.718547 175.340078 
L 177.718692 175.340711 
L 177.904337 176.153588 
L 178.054575 176.456169 
L 178.144034 176.540891 
L 178.498457 176.65933 
L 178.844002 176.677485 
L 179.323438 176.562504 
L 179.718834 176.39133 
L 180.283589 175.937405 
L 180.318839 175.899093 
L 180.568357 175.627908 
L 180.691961 175.404863 
L 180.796444 175.166256 
L 181.118771 174.249004 
L 181.222571 173.825391 
L 181.391246 172.832062 
L 181.484803 172.50441 
L 181.715536 171.907299 
L 181.749894 171.6775 
L 181.734615 171.413228 
L 181.703159 171.192506 
L 181.628467 171.000746 
L 181.613827 170.876904 
L 181.662313 170.665692 
L 181.784039 170.421682 
L 182.159845 169.973106 
L 183.147014 169.266634 
L 183.446378 169.119288 
L 184.485404 168.697566 
L 184.490641 168.695788 
L 184.908501 168.553948 
L 185.090279 168.57956 
L 185.950386 168.517422 
L 186.431657 168.441507 
L 186.671097 168.440588 
L 187.030386 168.348301 
L 187.54519 168.00855 
L 187.551009 168.00471 
L 187.752378 167.835157 
L 188.193229 167.30737 
L 188.497246 166.851121 
L 188.651879 166.680919 
L 188.885088 166.505476 
L 189.119236 166.262007 
L 189.266571 166.044905 
L 189.425003 165.871948 
L 189.735464 165.612755 
L 190.030945 165.465355 
L 190.622759 165.263815 
L 191.120846 164.983441 
L 191.266815 164.958965 
L 191.471855 164.986791 
L 191.493673 164.997747 
L 191.657688 165.080105 
L 192.337511 165.521441 
L 192.524795 166.003409 
L 192.633759 166.39363 
L 192.977384 167.275328 
L 193.614995 168.572751 
L 194.215261 169.632703 
L 194.909766 170.513753 
L 195.04882 170.635163 
L 195.44204 170.726586 
L 195.603588 170.700921 
L 195.702778 170.64959 
L 196.057969 170.417576 
L 196.733268 169.868499 
L 196.988458 169.622382 
L 197.205533 169.518316 
L 197.542329 169.524098 
L 198.060903 169.623733 
L 198.5219 169.755734 
L 198.650199 169.863529 
L 198.717123 169.976564 
L 198.775596 170.2015 
L 198.780035 170.426491 
L 198.749518 170.609984 
L 198.579946 171.083848 
L 198.168203 171.984025 
L 198.046178 172.341449 
L 197.992314 172.655376 
L 198.028935 173.046408 
L 198.172727 173.347368 
L 198.299575 173.435765 
L 198.418228 173.482881 
L 198.60978 173.494281 
L 199.026475 173.424418 
L 199.196943 173.363523 
L 199.560072 173.178679 
L 200.010271 172.876584 
L 200.268577 172.738748 
L 200.462306 172.584 
L 200.740415 172.091766 
L 200.774048 171.941556 
L 200.76739 171.870449 
L 200.685698 171.693494 
L 200.731495 171.387293 
L 200.73858 171.163977 
L 200.655565 170.263529 
L 200.66615 169.964407 
L 200.725733 169.736877 
L 200.825052 169.557274 
L 201.147037 169.186072 
L 201.234063 169.125231 
L 201.499539 169.078764 
L 202.09989 169.131769 
L 202.857435 169.365297 
L 203.189706 169.417762 
L 203.46995 169.410414 
L 203.720786 169.323368 
L 204.106579 169.131823 
L 204.458057 168.918018 
L 204.593527 168.771644 
L 204.645213 168.669523 
L 204.627159 168.360459 
L 204.526987 168.033401 
L 204.390493 167.792525 
L 204.134962 167.530577 
L 204.052673 167.387932 
L 203.910631 166.970208 
L 203.85331 166.642827 
L 203.865517 165.907663 
L 203.824714 165.013375 
L 203.832098 164.540052 
L 203.875419 164.229421 
L 203.886985 163.920626 
L 203.86206 163.419747 
L 203.996249 162.855218 
L 204.099579 162.697768 
L 204.18985 162.622501 
L 204.425833 162.524486 
L 204.925585 162.453758 
L 205.321733 162.458325 
L 205.764607 162.46343 
L 206.126969 162.428849 
L 206.968254 162.198023 
L 207.56391 161.661159 
L 207.796393 161.296711 
L 207.911546 160.677123 
L 207.742743 160.23811 
L 206.686431 159.717185 
L 206.470338 159.459289 
L 206.369653 159.156492 
L 206.375458 158.742821 
L 206.496373 158.481251 
L 206.590873 158.378784 
L 206.758135 158.197419 
L 207.070646 158.051964 
L 207.840781 158.111508 
L 208.395165 158.566892 
L 208.979553 159.209444 
L 209.125308 159.231327 
L 209.357408 159.102028 
L 209.741494 158.191962 
L 210.059083 157.941144 
L 210.249056 157.867931 
L 211.224658 157.985181 
L 211.963935 157.942873 
L 212.251904 157.746466 
L 212.462961 157.413897 
L 212.555963 156.960783 
L 212.356771 156.588014 
L 211.175191 156.303696 
L 210.402025 156.054932 
L 210.158999 155.666115 
L 210.128397 154.884484 
L 210.252354 154.613673 
L 210.314059 154.478864 
L 210.887009 154.184712 
L 211.426539 154.370205 
L 212.063595 155.041556 
L 212.182739 155.138103 
L 212.732449 155.583554 
L 213.286619 155.855606 
L 213.985819 156.386311 
L 214.667477 157.476467 
L 214.692189 157.895865 
L 214.374942 159.603447 
L 214.37221 160.100868 
L 214.59142 161.282014 
L 214.8592 161.810882 
L 214.877083 161.839519 
L 215.116865 162.077477 
L 215.599203 162.449814 
L 216.321152 162.802374 
L 216.642881 163.127919 
L 216.862603 163.417424 
L 217.457234 163.744103 
L 218.119302 164.03793 
L 218.629084 164.315116 
L 218.919186 164.390113 
L 219.127299 164.392328 
L 220.247547 164.090234 
L 220.823441 164.061002 
L 221.223021 164.100554 
L 221.65205 164.201216 
L 222.180867 164.443605 
L 222.532601 164.64909 
L 222.852325 164.880294 
L 223.050407 165.09102 
L 223.110715 165.172014 
L 223.070808 165.285698 
L 223.210418 165.617726 
L 223.500008 166.243528 
L 223.633515 166.475435 
L 223.967237 166.894455 
L 224.200019 167.121498 
L 224.338733 167.181528 
L 224.460544 167.194496 
L 224.638353 167.122525 
L 224.731184 166.995387 
L 224.801949 166.837721 
L 224.843307 166.526441 
L 224.762512 165.940407 
L 224.773908 165.746647 
L 224.882488 165.461033 
L 225.008781 165.323791 
L 225.386679 165.135974 
L 225.878705 165.005594 
L 226.312325 164.938032 
L 226.414138 164.922169 
L 227.291403 164.733758 
L 228.048094 164.6767 
L 228.339691 164.6231 
L 228.486372 164.54031 
L 228.588878 164.482454 
L 228.85118 164.334406 
L 229.058097 164.146805 
L 229.245894 163.936728 
L 229.451488 163.658732 
L 229.516089 163.517433 
L 229.580513 163.376521 
L 229.624218 163.189786 
L 229.701385 162.706521 
L 229.751919 161.996807 
L 229.811331 161.584433 
L 229.868695 161.334587 
L 229.974543 160.961765 
L 230.27331 160.270152 
L 230.341557 159.508296 
L 230.315949 158.924748 
L 230.315748 158.923032 
L 230.13242 157.357812 
L 230.162297 156.217785 
L 230.555543 155.181755 
L 230.636056 154.969639 
L 230.759831 154.742704 
L 231.378705 153.937623 
L 231.622976 153.710321 
L 231.678541 153.658615 
L 231.737 153.604218 
L 231.878073 153.472945 
L 232.609113 152.866703 
L 232.852002 152.502114 
L 232.864004 152.4841 
L 233.111553 151.970794 
L 233.11183 151.968444 
L 233.184111 151.354826 
L 233.179843 151.01988 
L 233.316422 150.441734 
L 233.551167 149.971653 
L 233.790181 149.766331 
L 234.114556 149.636653 
L 234.695061 149.528589 
L 234.972487 149.436734 
L 235.057849 149.371895 
L 235.164015 149.334263 
L 235.164551 149.334073 
L 235.61697 149.339476 
L 235.941345 149.46375 
L 236.257185 149.771734 
L 236.265721 149.81496 
L 236.231576 149.92297 
L 236.466364 150.198535 
L 236.897442 150.452487 
L 237.157796 150.490309 
L 237.418833 150.371654 
L 237.644637 150.236441 
L 238.514483 149.71557 
L 239.668613 149.024467 
L 239.774183 148.96125 
L 240.105837 148.673874 
L 240.13885 148.645269 
L 240.408551 148.148172 
L 240.784186 147.66842 
L 241.051198 147.251723 
L 241.368745 146.39758 
L 241.685609 145.396524 
L 241.718388 145.144086 
L 241.696535 144.566643 
L 241.716734 144.378267 
L 241.717022 144.375584 
L 241.902517 143.670362 
L 241.934866 143.547378 
L 242.061884 143.188603 
L 242.417673 142.389844 
L 242.472987 142.140863 
L 242.464793 142.064786 
L 243.015036 141.190003 
L 243.177053 141.038767 
L 243.86315 140.584842 
L 244.396833 140.433714 
L 245.333681 140.401943 
L 246.049099 140.28291 
L 246.449361 140.16366 
L 246.885775 139.997943 
L 247.657148 139.625931 
L 247.974865 139.276883 
L 248.338721 138.682582 
L 248.409187 138.538153 
L 248.484903 138.205368 
L 248.561814 138.000748 
L 248.703344 137.689847 
L 248.794383 137.570705 
L 249.030409 137.354522 
L 249.208517 137.229059 
L 249.380179 137.131909 
L 250.095982 136.819008 
L 250.462569 136.617846 
L 250.471957 136.610058 
L 250.776232 136.357627 
L 250.891897 136.203581 
L 251.137526 135.707456 
L 251.211023 135.406064 
L 251.225022 134.915721 
L 251.201591 134.47579 
L 251.02822 133.935468 
L 250.669385 133.245598 
L 250.333075 132.599033 
L 250.278614 132.413595 
L 250.229616 132.214702 
L 250.197307 131.945459 
L 250.19274 130.757938 
L 250.266151 129.864676 
L 250.2233 129.301606 
L 249.964098 128.720002 
L 249.508649 128.071237 
L 249.466182 127.910274 
L 249.444969 127.690579 
L 249.48812 127.338289 
L 249.65257 126.598425 
L 249.791368 126.381215 
L 250.072678 126.030978 
L 250.264956 125.676796 
L 250.422919 125.511998 
L 250.936968 125.221358 
L 251.167019 125.14366 
L 251.410557 125.100002 
L 251.856317 125.159437 
L 253.059793 125.451427 
L 253.420746 125.456777 
L 253.441484 125.454247 
L 253.935094 125.394045 
L 254.397031 125.272202 
L 254.734259 125.153881 
L 254.830072 125.120264 
L 255.886768 124.853128 
L 256.60479 124.81201 
L 257.192593 124.878901 
L 257.526145 124.947685 
L 257.901438 125.063584 
L 258.428164 125.384157 
L 258.601919 125.685982 
L 258.762783 125.888116 
L 259.300692 126.808718 
L 259.511451 127.05181 
L 259.847222 127.349581 
L 260.220979 127.552419 
L 260.345496 127.594573 
L 260.818214 127.754607 
L 260.956031 127.773032 
L 261.389926 127.730023 
L 261.585576 127.747475 
L 262.284264 127.522215 
L 262.681069 127.350608 
L 263.030242 127.148473 
L 263.270578 126.975192 
L 263.769605 126.496628 
L 264.386558 125.980241 
L 264.383272 125.9348 
L 264.53974 125.735259 
L 264.640041 125.655453 
L 265.441718 125.188669 
L 265.689737 124.96946 
L 265.879283 124.857559 
L 266.377114 124.674876 
L 266.901962 124.356031 
L 267.201967 124.122936 
L 267.942644 123.751644 
L 268.4468 123.498917 
L 268.951418 123.066497 
L 269.122569 122.956217 
L 269.375795 122.868306 
L 269.857364 122.819839 
L 270.548284 122.88711 
L 271.183847 123.036347 
L 271.464389 123.017219 
L 271.809849 122.91499 
L 272.567138 122.56016 
L 273.137356 122.207978 
L 273.476413 122.040478 
L 273.732969 121.989255 
L 275.056719 122.22851 
L 275.440251 122.342951 
L 275.962922 122.549192 
L 276.259896 122.607601 
L 276.573004 122.612842 
L 276.860546 122.538439 
L 276.935835 122.452042 
L 276.983851 122.285514 
L 276.988418 122.09116 
L 276.890508 121.688998 
L 276.780946 121.412839 
L 276.328869 120.693453 
L 276.209874 120.327601 
L 276.206801 120.045174 
L 276.312223 119.814078 
L 276.488282 119.582441 
L 276.752648 119.354209 
L 277.346853 118.959611 
L 277.715207 118.614017 
L 277.753731 118.577873 
L 277.869482 118.427447 
L 277.984721 118.224664 
L 278.091551 117.945263 
L 278.143622 117.630579 
L 278.115666 117.353988 
L 278.065644 117.257757 
L 277.991507 117.176276 
L 277.474896 116.779571 
L 276.941426 116.560092 
L 276.671384 116.541883 
L 276.184863 116.445327 
L 274.892184 116.423823 
L 274.592606 116.343909 
L 274.492477 116.276044 
L 274.471316 116.242575 
L 274.197765 115.809908 
L 274.121451 115.57276 
L 274.102202 115.426279 
L 274.166479 115.197128 
L 274.465374 114.717645 
L 274.722655 114.411715 
L 275.984775 113.165298 
L 276.093313 112.976239 
L 276.211112 112.548033 
L 276.178589 112.250153 
L 276.056778 111.892243 
L 275.90112 111.539034 
L 275.785455 111.364456 
L 275.47542 111.039236 
L 275.375077 110.843963 
L 275.33628 110.71823 
L 275.054372 110.270951 
L 274.72633 109.830072 
L 274.490599 109.513256 
L 274.154167 109.228601 
L 273.949063 109.055063 
L 273.684056 108.688237 
L 273.461432 108.215347 
L 273.338084 108.062165 
L 273.329847 107.793571 
L 273.478846 107.518655 
L 273.692251 107.307389 
L 274.456978 106.903299 
L 274.895172 106.671753 
L 275.369571 106.12473 
L 275.798899 105.744991 
L 276.15392 105.386865 
L 276.365233 105.265293 
L 276.625118 105.19451 
L 276.897849 105.13983 
L 276.96298 105.10687 
L 277.02649 104.996644 
L 277.749207 104.791484 
L 278.011268 104.664075 
L 278.168718 104.514784 
L 278.904624 103.407231 
L 279.4296 102.969569 
L 279.58752 102.931747 
L 279.869214 102.926343 
L 280.385697 103.08844 
L 280.637515 103.223521 
L 280.96189 103.488225 
L 281.153954 103.725967 
L 281.670437 104.466209 
L 282.074305 105.08645 
L 282.191145 105.265887 
L 282.400282 105.465806 
L 282.724657 105.584623 
L 283.198416 105.600833 
L 283.57832 105.735914 
L 283.872819 105.941236 
L 284.636808 106.746317 
L 285.019988 106.876222 
L 285.163236 106.924786 
L 285.683261 106.936619 
L 285.949846 106.889233 
L 286.34567 106.674563 
L 287.210557 106.459946 
L 287.223563 106.449304 
L 287.560541 106.173575 
L 287.8337 105.768333 
L 287.966011 105.617043 
L 288.119662 105.525188 
L 288.431233 105.508978 
L 288.525132 105.535994 
L 289.237904 105.91422 
L 289.45562 105.919624 
L 289.873893 105.833172 
L 290.030139 105.756406 
L 290.201726 105.672102 
L 290.437282 105.476559 
L 290.467366 105.446635 
L 290.556789 105.357688 
L 290.812875 104.90922 
L 291.103106 104.585026 
L 291.303706 104.455349 
L 291.517347 104.346235 
L 291.547031 104.331075 
L 291.909819 104.314865 
L 292.195782 104.39051 
L 292.432619 104.531318 
L 292.62686 104.709246 
L 292.823192 104.968601 
L 293.040908 105.36844 
L 293.156147 105.800698 
L 293.109198 105.897957 
L 293.079321 106.200537 
L 293.151879 106.357231 
L 293.164683 106.665215 
L 293.143342 106.951586 
L 293.177487 107.24336 
L 293.28419 107.745806 
L 293.366479 107.924113 
L 293.459651 108.026936 
L 293.6416 108.141539 
L 294.261584 108.426613 
L 294.449423 108.426613 
L 294.517713 108.388791 
L 294.807944 108.448226 
L 295.119515 108.453629 
L 296.246335 108.658952 
L 296.860942 108.89664 
L 297.274947 109.118172 
L 297.570105 109.324065 
L 297.693221 109.409947 
L 297.975023 109.700751 
L 298.242056 109.976313 
L 298.625416 110.545057 
L 298.853162 111.110775 
L 298.943091 111.450692 
L 298.976766 111.687785 
L 299.036093 112.606928 
L 299.331104 113.282656 
L 299.683137 113.856533 
L 299.896798 114.054129 
L 300.499154 114.860182 
L 300.660787 115.043082 
L 301.145771 115.916946 
L 301.272022 116.124862 
L 301.380175 116.247785 
L 301.623542 116.663077 
L 301.713599 117.144019 
L 301.722605 117.351611 
L 301.731894 117.655105 
L 301.735196 117.762959 
L 301.654529 118.805457 
L 301.674247 119.394679 
L 301.757859 120.049496 
L 301.79538 120.218593 
L 301.805875 120.265896 
L 302.014201 120.74581 
L 302.15253 120.957185 
L 302.543275 121.391928 
L 302.855358 121.560455 
L 303.164112 121.650581 
L 304.97575 121.975369 
L 305.864538 122.26844 
L 306.693958 122.633914 
L 306.985 122.821622 
L 307.603959 123.037806 
L 308.578921 123.295594 
L 308.923826 123.259068 
L 309.381585 123.246954 
L 309.426096 123.245776 
L 309.731521 123.290352 
L 310.643742 123.047802 
L 311.369703 122.772507 
L 311.824554 122.677626 
L 312.534467 122.397091 
L 313.246855 122.381962 
L 313.61293 122.447449 
L 314.021302 122.585555 
L 314.683881 123.073629 
L 314.678034 123.202226 
L 314.746537 123.236861 
L 315.163488 123.33936 
L 315.346802 123.334065 
L 315.72884 123.420678 
L 315.731147 123.421122 
L 316.448612 123.559001 
L 317.043542 123.730932 
L 317.326859 123.850775 
L 317.647052 124.034863 
L 317.943386 124.324476 
L 318.08641 124.554384 
L 318.194264 124.818493 
L 318.259609 125.080604 
L 318.342239 125.462828 
L 318.352227 125.64362 
L 318.387097 125.792479 
L 318.43379 125.919563 
L 318.600203 126.138664 
L 318.714631 126.23857 
L 319.233675 126.586159 
L 319.574013 126.701194 
L 319.896809 126.746203 
L 320.228355 126.851296 
L 320.564382 127.01296 
L 320.716455 127.131129 
L 320.865539 127.339045 
L 321.021709 127.919028 
L 321.142069 128.659378 
L 321.200969 128.9002 
L 321.354663 129.364769 
L 321.474725 129.523084 
L 321.656418 129.649465 
L 321.769309 129.691502 
L 322.303889 129.826043 
L 322.803811 129.916871 
L 323.547655 129.983223 
L 323.669894 130.061948 
L 323.711806 130.147859 
L 323.862385 130.25949 
L 324.086076 130.353938 
L 324.207733 130.358346 
L 324.263543 130.360368 
L 325.052544 130.783657 
L 325.310167 130.883833 
L 325.795577 130.990168 
L 325.974838 130.997625 
L 326.171469 130.961855 
L 326.337028 130.900096 
L 326.444115 130.853142 
L 326.579798 130.737027 
L 326.742967 130.507174 
L 326.867596 130.168607 
L 326.997346 129.671781 
L 327.021162 129.309602 
L 327.107335 128.836334 
L 327.157229 128.692932 
L 327.2507 128.543425 
L 327.553565 128.217286 
L 328.030994 127.9602 
L 329.780146 127.499521 
L 329.764482 127.549501 
L 330.02155 127.490281 
L 330.330048 127.353634 
L 330.866633 127.16906 
L 331.547779 126.98978 
L 332.076426 126.93899 
L 332.434178 127.010799 
L 332.784418 127.143718 
L 333.254891 127.417608 
L 333.547896 127.638492 
L 333.977138 128.061997 
L 334.159087 128.285583 
L 334.333994 128.42893 
L 334.686112 128.529052 
L 334.803656 128.510249 
L 335.233283 128.71676 
L 335.514337 128.759013 
L 336.37692 128.809425 
L 336.724983 128.913654 
L 337.889491 129.093473 
L 338.250273 129.18522 
L 338.661761 129.343859 
L 339.09779 129.588517 
L 339.799508 130.038876 
L 340.327386 130.48113 
L 340.55159 130.852548 
L 340.630635 131.279511 
L 340.649073 131.639906 
L 340.691669 131.845769 
L 340.758208 132.00738 
L 341.018306 132.327683 
L 341.172641 132.462224 
L 341.423647 132.605193 
L 341.754767 132.691104 
L 341.981317 132.616054 
L 342.082514 132.547757 
L 342.850942 131.690643 
L 342.88577 131.522224 
L 342.891904 131.515237 
L 343.042964 131.343161 
L 343.166099 131.278971 
L 343.446427 131.242229 
L 343.59389 131.089804 
L 343.829959 130.9973 
L 344.088478 130.962071 
L 344.391982 131.01713 
L 344.79011 131.201434 
L 345.304373 131.502935 
L 345.67032 131.590575 
L 346.142073 131.555886 
L 346.94247 131.412485 
L 347.279778 131.422426 
L 347.613458 131.396545 
L 348.214833 131.151833 
L 348.396824 130.978389 
L 348.547317 130.792896 
L 348.806519 130.332974 
L 348.920136 130.06211 
L 349.080787 129.308035 
L 349.280833 128.936672 
L 349.515066 128.633442 
L 349.72574 128.442438 
L 349.925913 128.329187 
L 350.716365 128.125269 
L 351.566016 127.69917 
L 352.044683 127.328779 
L 352.402034 126.804029 
L 352.504186 126.654024 
L 352.670472 126.218632 
L 352.776235 126.01466 
L 352.902144 125.81728 
L 352.992764 125.722258 
L 353.000822 125.713808 
L 353.119689 125.63692 
L 353.382817 125.547929 
L 353.806895 125.47947 
L 354.341261 125.516266 
L 354.567471 125.559492 
L 354.904693 125.683766 
L 355.190656 125.699976 
L 355.647342 125.548686 
L 356.065616 125.213685 
L 356.737756 124.765001 
L 357.568029 124.397798 
L 358.827161 124.046588 
L 359.040566 124.073604 
L 359.454614 124.322153 
L 359.625338 124.549088 
L 359.674479 124.649912 
L 359.749113 124.80304 
L 359.804598 124.975943 
L 359.864352 125.581051 
L 359.843011 125.910648 
L 359.808866 126.110567 
L 359.633874 126.8346 
L 359.565585 127.245245 
L 359.535708 127.634277 
L 359.650947 128.031415 
L 359.877156 128.282665 
L 360.146089 128.763552 
L 360.312545 129.244385 
L 360.444856 130.017047 
L 360.423515 130.730273 
L 360.466026 131.382118 
L 360.530218 131.779796 
L 360.657279 132.27257 
L 360.833466 132.767938 
L 360.956387 133.000493 
L 361.15989 133.254607 
L 361.98692 133.981665 
L 362.16401 134.088118 
L 362.842631 134.496053 
L 363.283782 134.670685 
L 363.723567 134.720827 
L 364.396944 134.646478 
L 365.426111 134.722556 
L 365.794192 134.707805 
L 366.055058 134.797715 
L 366.276316 135.010386 
L 366.511915 135.178967 
L 367.113589 135.514399 
L 367.259729 135.634567 
L 367.543814 135.969135 
L 368.151634 137.072258 
L 368.585955 137.596155 
L 368.588815 137.599986 
L 368.948616 138.082013 
L 369.318062 138.430413 
L 369.774237 138.75023 
L 370.114212 138.900604 
L 370.354741 139.006991 
L 370.59512 139.147908 
L 370.794526 139.28623 
L 370.937251 139.452217 
L 371.033539 139.636359 
L 371.209086 140.079856 
L 371.351128 141.291044 
L 371.515023 141.87027 
L 371.653651 142.134812 
L 371.542339 142.357857 
L 371.506829 142.617212 
L 371.510243 142.776283 
L 371.596971 143.241339 
L 371.477464 143.575042 
L 371.416003 143.682242 
L 371.394834 143.833533 
L 371.414638 143.921713 
L 371.581264 144.246772 
L 371.580709 144.247312 
L 371.601069 144.330151 
L 371.682034 144.659578 
L 371.641743 144.834373 
L 371.526419 145.078004 
L 371.489287 145.212815 
L 371.460904 145.588771 
L 371.469867 146.289894 
L 371.531925 146.401201 
L 371.701881 146.465445 
L 371.822198 146.54082 
L 371.897872 146.631054 
L 372.00833 146.875874 
L 372.368003 147.188667 
L 372.409371 147.305546 
L 372.549184 147.700569 
L 372.583926 147.863746 
L 372.580213 147.981266 
L 372.540562 148.069069 
L 372.307567 148.421521 
L 372.174914 148.692385 
L 372.106795 148.887766 
L 372.11674 148.960764 
L 372.248197 149.163493 
L 372.259422 149.530804 
L 372.289214 149.702681 
L 372.377222 149.931453 
L 372.467706 150.082312 
L 372.465315 150.668454 
L 372.311749 151.158202 
L 372.160573 151.494121 
L 372.066462 151.614127 
L 371.978539 151.654921 
L 371.598294 151.663728 
L 371.203068 151.563769 
L 371.186209 151.563769 
L 371.155991 151.563769 
L 371.07925 151.635523 
L 370.86034 152.169795 
L 370.849243 152.25268 
L 370.941135 152.673105 
L 371.00187 152.841254 
L 371.138193 152.977199 
L 371.368542 153.0958 
L 371.450319 153.179874 
L 371.432094 154.065247 
L 371.412376 154.269273 
L 371.202214 154.78755 
L 370.899478 155.656984 
L 370.80797 155.72755 
L 370.55436 155.793199 
L 370.297079 155.714096 
L 369.716745 155.680434 
L 369.548454 155.7644 
L 369.474104 155.984473 
L 369.721312 156.456986 
L 369.744744 156.704724 
L 369.749439 157.172967 
L 369.791352 157.412925 
L 369.827204 157.477223 
L 369.921145 157.541576 
L 370.266135 157.640671 
L 370.439292 157.717451 
L 370.48018 157.794068 
L 370.480308 158.267229 
L 370.515008 158.362434 
L 370.553378 158.401986 
L 370.694353 158.430299 
L 371.102384 158.39669 
L 371.27187 158.531393 
L 371.378188 158.583318 
L 371.468501 158.662421 
L 371.656553 158.935608 
L 371.734446 158.987533 
L 371.905085 159.043133 
L 371.994117 159.144497 
L 372.017763 159.627978 
L 372.002995 159.833247 
L 372.06484 160.027385 
L 372.490113 160.489847 
L 372.84603 160.56895 
L 373.108006 160.990564 
L 373.463923 161.100682 
L 373.535584 161.220633 
L 373.542968 161.518675 
L 373.633579 161.625065 
L 373.737465 161.76409 
L 373.740495 161.994214 
L 373.777329 162.109248 
L 373.89133 162.308573 
L 374.060005 162.483638 
L 374.052451 162.618881 
L 373.984118 162.776277 
L 374.002557 162.906332 
L 374.158897 163.183572 
L 374.355443 163.370416 
L 374.496418 163.435579 
L 374.549812 163.499337 
L 374.549215 163.869026 
L 374.687501 164.225422 
L 374.812386 164.464785 
L 374.900266 164.535892 
L 374.911149 164.648873 
L 374.891559 164.792167 
L 374.911149 164.861058 
L 374.969921 164.929949 
L 375.085288 164.943728 
L 375.232921 164.858627 
L 375.344532 164.844416 
L 375.657085 164.971662 
L 376.087907 164.987224 
L 376.175318 165.016347 
L 376.25065 165.158182 
L 376.862609 165.637934 
L 377.05954 165.705367 
L 377.125354 165.748484 
L 377.177254 165.8224 
L 377.185363 165.990819 
L 377.146097 166.176474 
L 376.958599 166.381797 
L 376.818221 167.048447 
L 376.861414 167.088053 
L 376.855268 167.135007 
L 376.714635 167.362645 
L 376.464353 167.674411 
L 376.2868 167.841479 
L 376.170879 167.882327 
L 375.852564 167.810788 
L 375.793365 167.821973 
L 375.766946 167.870494 
L 375.76695 167.871366 
L 375.767586 168.011194 
L 375.635232 168.35619 
L 375.568565 168.451395 
L 375.572235 168.535469 
L 375.731094 168.800227 
L 375.833528 168.868146 
L 376.151971 169.350276 
L 376.182829 169.412143 
L 376.736914 170.313401 
L 376.824453 170.370243 
L 376.879938 170.36403 
L 377.888362 170.094192 
L 378.273088 170.315509 
L 378.393918 170.489925 
L 378.549191 170.874526 
L 378.681076 170.962329 
L 379.002848 171.104596 
L 379.075533 171.203529 
L 379.10016 171.297545 
L 379.094484 171.675015 
L 379.122098 171.821982 
L 379.165249 171.914756 
L 378.975404 172.277096 
L 378.891621 172.326536 
L 378.884194 172.398291 
L 378.916248 172.47372 
L 378.98155 172.523213 
L 379.006941 172.77842 
L 379.045529 173.166252 
L 379.045529 173.203372 
L 379.178565 173.265239 
L 379.358423 173.282583 
L 379.400293 173.312301 
L 379.538195 173.75261 
L 379.583736 173.814477 
L 379.933464 174.115112 
L 380.441837 174.748533 
L 380.492329 174.748533 
L 380.548966 174.791867 
L 380.791352 175.143239 
L 380.83685 175.28302 
L 380.884695 175.569985 
L 380.992507 175.615859 
L 381.201388 175.638066 
L 381.294987 175.698636 
L 381.389867 175.823451 
L 381.414537 175.906336 
L 381.465071 175.979226 
L 381.575871 176.033582 
L 381.792562 176.064381 
L 381.871394 176.105175 
L 382.102981 176.42537 
L 382.461245 176.485887 
L 382.493256 176.51555 
L 382.549936 176.790088 
L 382.519206 176.906366 
L 382.527828 176.983038 
L 382.58327 177.063438 
L 382.6522 177.110392 
L 382.740891 177.553132 
L 382.744604 177.602572 
L 382.85788 177.725009 
L 382.930523 177.76456 
L 383.020323 177.773206 
L 383.291092 178.140517 
L 383.273891 178.365616 
L 382.983404 178.516312 
L 382.754634 178.797117 
L 382.764536 178.909667 
L 382.77754 178.922157 
L 383.042603 179.176748 
L 383.347687 179.27687 
L 383.38213 179.311505 
L 383.406757 179.349868 
L 383.425238 179.638022 
L 383.496601 179.971887 
L 383.688452 180.121556 
L 383.714274 180.199471 
L 383.732712 180.417167 
L 383.879108 180.721423 
L 383.945519 180.773348 
L 384.147187 180.804308 
L 384.270108 180.911941 
L 384.331569 181.005957 
L 384.302076 181.145684 
L 384.104079 181.339876 
L 384.064727 181.477118 
L 384.123712 181.634244 
L 384.282315 181.79753 
L 384.347446 181.834596 
L 384.353592 181.882847 
L 384.412535 182.30954 
L 384.427259 182.32683 
L 384.438271 182.574244 
L 384.413687 182.634814 
L 384.427217 182.732558 
L 384.539041 182.80307 
L 384.69265 182.852564 
L 384.766403 182.749903 
L 385.132179 182.756873 
L 385.382076 183.092737 
L 385.555318 183.167032 
L 386.018449 183.472746 
L 386.22494 183.464209 
L 386.581838 183.245271 
L 386.715771 183.20064 
L 386.774799 183.21793 
L 387.34156 183.670342 
L 387.366144 183.732209 
L 387.390856 183.999345 
L 387.448647 184.13167 
L 387.630553 184.219364 
L 387.743615 184.305924 
L 387.743657 184.38011 
L 387.641735 184.599103 
L 387.591414 184.659728 
L 387.593847 184.706682 
L 387.823684 185.049246 
L 387.788088 185.121001 
L 387.880237 185.166172 
L 388.042382 185.182652 
L 388.270896 185.144397 
L 388.3114 185.127053 
L 388.350709 185.054055 
L 388.404743 185.031794 
L 388.780635 185.155474 
L 388.998137 185.083665 
L 389.023916 185.04903 
L 389.058252 185.055416 
L 389.249955 185.091067 
L 389.205567 185.243816 
L 389.248589 185.358851 
L 389.451238 185.555529 
L 389.770578 185.835092 
L 389.776681 186.00578 
L 389.815947 186.08002 
L 389.973142 186.10601 
L 390.265293 186.713386 
L 390.303322 186.928597 
L 390.656891 187.030178 
L 390.742893 186.936161 
L 390.950493 186.800216 
L 391.359292 186.888235 
L 391.43663 186.995921 
L 391.558015 187.259437 
L 391.631426 187.672567 
L 391.686655 187.738217 
L 391.683881 187.813646 
L 392.01628 188.722577 
L 392.590638 188.695074 
L 392.627515 188.729709 
L 392.641045 188.802652 
L 393.185995 188.916228 
L 393.381176 188.948323 
L 393.789846 188.925954 
L 393.865989 188.969234 
L 394.242777 189.536951 
L 394.274659 189.676733 
L 394.226814 189.833858 
L 394.242777 189.950082 
L 394.289384 189.985959 
L 394.377734 189.997036 
L 394.539751 189.948839 
L 394.653837 189.956242 
L 395.079665 189.682946 
L 395.064941 189.536951 
L 395.080946 189.418242 
L 395.164387 189.329197 
L 395.328837 189.352701 
L 395.369299 189.407166 
L 395.415906 189.633507 
L 395.761878 189.907018 
L 395.914036 189.874923 
L 396.095644 189.75254 
L 396.186469 189.750054 
L 396.269825 189.858983 
L 396.312719 190.08781 
L 396.396118 190.128713 
L 396.599791 190.146057 
L 396.675849 190.122607 
L 397.246878 189.90999 
L 397.308168 189.871573 
L 397.457765 189.645124 
L 397.525243 189.627779 
L 397.740014 189.683325 
L 397.809925 189.653607 
L 398.000069 189.487782 
L 398.266356 189.429535 
L 398.487273 189.617459 
L 398.46892 189.717689 
L 398.345316 189.89994 
L 394.82025 192.994423 
L 394.31145 193.513997 
L 391.663309 195.871911 
L 388.381525 198.690451 
L 388.341277 198.748104 
L 386.136206 200.709259 
L 384.533279 202.119664 
L 383.786063 202.745141 
L 383.577038 202.952698 
L 383.503814 203.025407 
L 383.458785 203.092623 
L 383.445469 203.236349 
L 383.378801 203.422814 
L 383.137141 203.65753 
L 382.840466 203.709888 
L 382.611184 203.843564 
L 382.401748 203.781481 
L 382.392401 204.147657 
L 382.013394 204.527612 
L 381.825811 204.62795 
L 381.433487 204.671446 
L 380.918754 204.915402 
L 380.633219 204.901678 
L 380.531723 204.929937 
L 379.14792 205.378405 
L 378.595756 205.624684 
L 378.3949 205.639921 
L 377.821438 205.779486 
L 377.70048 205.852376 
L 377.486307 206.083148 
L 377.227788 206.082931 
L 376.792357 206.230061 
L 376.230504 206.465912 
L 376.19303 206.499736 
L 375.809285 206.662698 
L 375.700449 206.690686 
L 375.314741 206.923944 
L 375.295662 206.942423 
L 374.947434 207.145535 
L 374.60756 207.343775 
L 374.4248 207.409424 
L 374.295007 207.498307 
L 373.501781 207.911059 
L 373.353976 207.99843 
L 373.352725 207.99961 
L 373.168613 208.173224 
L 372.863401 208.361689 
L 372.861429 208.363082 
L 372.280421 208.773415 
L 371.950497 208.928757 
L 371.705807 209.078751 
L 371.672473 209.121274 
L 371.692363 209.211454 
L 371.492573 209.389923 
L 371.029783 209.608267 
L 370.639978 209.873998 
L 370.321791 210.154804 
L 369.954094 210.623156 
L 369.179306 210.750456 
L 369.110078 210.782551 
L 369.046398 210.821076 
L 368.930818 211.122414 
L 368.718224 211.185037 
L 368.49338 211.288563 
L 368.330638 211.477946 
L 368.107203 211.665925 
L 367.993543 211.632965 
L 367.772754 211.618916 
L 367.300447 211.85239 
L 366.779611 212.177988 
L 366.418359 212.361428 
L 366.332997 212.352026 
L 366.172388 212.46544 
L 365.997225 212.697023 
L 365.986641 212.745489 
L 365.993256 212.914773 
L 366.179046 213.247774 
L 366.192875 213.486218 
L 366.168888 213.862661 
L 366.075886 213.933929 
L 366.050449 213.992554 
L 366.13214 214.36608 
L 366.23641 214.536768 
L 366.339442 214.599121 
L 366.381226 214.660447 
L 366.40103 214.786018 
L 366.332186 214.867823 
L 366.190357 214.895704 
L 366.101965 214.877603 
L 365.962184 215.013008 
L 365.992488 215.345253 
L 366.095264 215.579104 
L 366.165687 215.827329 
L 366.128384 216.125154 
L 366.121939 216.38559 
L 366.156383 216.521481 
L 366.060692 216.648079 
L 366.044423 216.656765 
L 365.993896 216.68374 
L 365.761584 216.610851 
L 365.681301 216.552604 
L 365.303531 216.636084 
L 365.251034 216.721617 
L 365.170879 217.346122 
L 365.067634 217.596021 
L 364.950944 217.655835 
L 364.902415 217.573868 
L 364.80856 217.521835 
L 364.589863 217.481527 
L 364.281151 217.709921 
L 364.252341 217.827225 
L 364.051229 218.10922 
L 363.813367 218.132832 
L 363.769918 218.281853 
L 363.609523 218.513057 
L 363.321298 218.517488 
L 363.312975 218.526403 
L 363.254503 218.565955 
L 363.236235 218.593133 
L 363.127356 218.6617 
L 363.068328 218.639655 
L 363.031153 218.596267 
L 363.010154 218.499009 
L 362.954669 218.436763 
L 362.824748 218.529159 
L 362.267846 218.670939 
L 362.175271 218.569575 
L 362.078897 218.625498 
L 362.005956 218.622742 
L 361.917051 218.72173 
L 361.879236 218.735346 
L 361.770826 218.619122 
L 361.627077 218.650029 
L 361.568646 218.766306 
L 361.541885 218.90733 
L 361.604328 219.091256 
L 361.532752 219.312573 
L 361.402959 219.392108 
L 361.310554 219.561553 
L 361.202102 219.659352 
L 361.137995 219.654705 
L 361.086735 219.668483 
L 360.926682 219.833065 
L 360.737733 219.851058 
L 360.653737 219.796053 
L 360.601794 219.770874 
L 360.554205 219.759257 
L 360.439478 219.919301 
L 360.424497 220.087936 
L 360.374646 220.132188 
L 360.262608 220.132783 
L 360.161668 220.040387 
L 360.077031 220.092528 
L 360.029655 220.132404 
L 360.001059 220.144291 
L 359.964951 220.173145 
L 359.925684 220.229176 
L 359.894613 220.353396 
L 359.882658 220.466989 
L 359.848048 220.795867 
L 359.849926 220.822613 
L 359.972505 220.947751 
L 360.055904 221.223208 
L 360.106822 221.228665 
L 360.164228 221.240444 
L 360.26376 221.335001 
L 360.353006 221.441931 
L 360.469867 221.45425 
L 360.453051 221.526491 
L 360.287875 221.710039 
L 360.259535 221.884779 
L 360.231835 221.938379 
L 360.214677 222.237286 
L 360.263632 222.338704 
L 360.338452 222.575041 
L 360.352238 222.593845 
L 360.373408 222.7661 
L 360.344812 222.860332 
L 360.285186 222.99779 
L 360.203623 223.052092 
L 360.138534 223.156267 
L 360.064952 223.231101 
L 359.982834 223.390929 
L 359.768576 223.63456 
L 359.698536 223.697076 
L 359.59448 223.809517 
L 359.540787 223.931522 
L 359.750436 224.179206 
L 359.85684 224.267873 
L 359.722608 224.509505 
L 359.584962 224.564888 
L 359.491021 224.686839 
L 359.50941 224.750894 
L 359.524184 224.80236 
L 359.494009 224.924365 
L 359.454614 224.951381 
L 359.23549 224.984233 
L 359.107404 225.069982 
L 359.004927 225.210628 
L 358.773725 225.326365 
L 358.309355 225.456313 
L 358.238676 225.509859 
L 358.237694 225.591772 
L 358.268766 225.677683 
L 358.247511 225.728311 
L 358.139058 225.763486 
L 358.080372 225.753058 
L 358.074653 225.753328 
L 357.622832 225.77051 
L 356.97566 226.129825 
L 356.373346 226.190503 
L 355.977693 226.385884 
L 355.580845 226.647941 
L 355.509099 226.643564 
L 355.446742 226.571701 
L 355.197826 226.539498 
L 354.79321 226.56954 
L 354.380528 226.704999 
L 354.149624 226.966569 
L 354.051457 227.177295 
L 353.91761 227.20939 
L 353.773988 227.209714 
L 353.377055 227.063827 
L 353.270353 226.971972 
L 353.206331 226.777456 
L 353.16365 226.766649 
L 352.510589 226.826085 
L 352.420958 226.90173 
L 352.280069 226.966569 
L 352.070932 226.955762 
L 351.729484 226.858504 
L 351.5801 226.971972 
L 351.486202 226.961166 
L 351.353848 226.869311 
L 351.213001 226.815279 
L 351.084958 227.031408 
L 351.161784 227.339392 
L 351.102031 227.555521 
L 350.909966 227.57173 
L 350.598352 227.701408 
L 350.51299 227.820279 
L 350.414824 227.906731 
L 350.090406 228.047214 
L 349.966631 228.193102 
L 349.953827 228.241731 
L 349.970899 228.322779 
L 350.051993 228.420037 
L 350.090406 228.522699 
L 350.107478 228.992779 
L 349.911146 229.403425 
L 349.70043 229.647002 
L 349.582459 229.743882 
L 349.416004 229.976221 
L 349.226031 230.33051 
L 349.046898 230.485961 
L 348.814159 230.554366 
L 348.690384 230.765092 
L 348.826963 231.083883 
L 348.809891 231.391867 
L 348.709548 231.542238 
L 348.665117 231.623017 
L 348.656965 231.688504 
L 348.948135 231.850114 
L 348.945019 231.857192 
L 348.902722 231.872105 
L 348.813348 232.041551 
L 348.836438 232.122275 
L 348.855175 232.421722 
L 348.720261 232.477915 
L 348.579414 232.650819 
L 348.489741 232.839932 
L 348.075735 232.910174 
L 347.623274 232.888615 
L 347.418405 233.012889 
L 347.166588 233.050711 
L 346.812335 233.029099 
L 346.005622 233.034502 
L 345.787906 233.142566 
L 344.92144 233.477566 
L 344.221471 233.715308 
L 344.131841 233.704502 
L 343.798887 233.80176 
L 343.406222 233.990873 
L 343.060463 234.034099 
L 342.817182 234.16918 
L 342.680602 234.207002 
L 342.55256 234.196196 
L 342.117171 234.347486 
L 342.065954 234.412325 
L 342.027541 234.423131 
L 341.203755 234.552809 
L 341.020227 234.612244 
L 340.951937 234.677083 
L 340.836699 234.725712 
L 339.680001 235.098589 
L 339.38546 235.255282 
L 339.338511 235.309315 
L 339.218662 235.346435 
L 339.17628 235.375937 
L 339.099497 235.455202 
L 338.97999 235.514637 
L 338.937309 235.514637 
L 338.856215 235.449799 
L 338.775122 235.460605 
L 338.625738 235.563266 
L 337.832128 235.892701 
L 337.69525 235.979315 
L 337.439164 236.276493 
L 337.426317 236.303455 
L 337.456236 236.379154 
L 337.417823 236.42238 
L 336.734885 236.746573 
L 336.406241 236.870848 
L 336.226981 236.930337 
L 335.885491 236.978966 
L 335.680622 236.995176 
L 335.497094 236.957353 
L 335.185522 237.043805 
L 334.903785 237.070821 
L 334.762938 237.016789 
L 334.643474 237.065418 
L 334.634634 237.065783 
L 334.401259 237.075414 
L 333.712943 236.995176 
L 333.444053 236.914127 
L 333.230605 236.78445 
L 333.055613 236.762837 
L 332.974519 236.779047 
L 332.910498 236.838482 
L 332.675752 236.860095 
L 332.470884 236.838482 
L 332.287355 236.919531 
L 331.813554 237.005982 
L 331.706851 236.99523 
L 331.608685 237.060069 
L 331.561736 237.151923 
L 331.557468 237.227569 
L 331.186143 237.51394 
L 330.951398 237.627408 
L 330.661167 237.66523 
L 330.298379 237.800311 
L 330.166068 237.957004 
L 329.991076 238.102892 
L 329.670968 238.313617 
L 329.363665 238.33523 
L 328.672191 238.567569 
L 328.574024 238.57843 
L 328.518539 238.535204 
L 328.463054 238.529801 
L 328.364887 238.567623 
L 328.083193 238.735123 
L 328.002099 238.875607 
L 327.852716 239.059317 
L 327.635043 239.210607 
L 327.468587 239.270043 
L 327.208233 239.334882 
L 327.003364 239.23222 
L 326.772887 239.26464 
L 326.640533 239.345688 
L 326.589358 239.669882 
L 326.239332 239.934694 
L 325.987514 240.204855 
L 325.902152 240.258888 
L 325.582044 240.318323 
L 325.518023 240.404775 
L 325.483921 240.52732 
L 325.475342 240.64792 
L 325.411321 240.755984 
L 325.308886 240.891065 
L 325.159503 240.993727 
L 324.967438 241.263888 
L 324.911953 241.415178 
L 324.830859 241.51249 
L 320.63519 241.442248 
L 316.136443 241.301765 
L 314.585426 241.236209 
L 312.159004 241.133655 
L 312.149143 241.133238 
L 306.188274 241.035277 
L 301.933378 240.993838 
L 301.927473 240.993781 
L 300.476277 241.004587 
L 300.056168 241.009936 
L 292.729508 240.783163 
L 290.292381 240.750797 
L 288.448562 240.772464 
L 284.957215 240.594266 
L 278.404961 240.397912 
L 278.111099 240.389105 
L 278.1086 240.388952 
L 277.325641 240.340854 
L 275.646272 240.294279 
L 274.934865 240.223983 
L 274.935762 240.220363 
L 271.341596 239.89217 
L 270.021598 239.731002 
L 269.527654 239.670692 
L 267.898136 239.525561 
L 265.260964 239.387293 
L 264.846403 239.356494 
L 260.610571 239.193587 
L 257.156954 239.138852 
L 256.544994 239.142148 
L 256.317851 239.175202 
L 256.312553 239.175973 
L 256.127787 239.250915 
L 255.092688 239.24481 
L 254.688499 239.331207 
L 250.591167 239.547282 
L 250.321849 239.570457 
L 248.105853 239.761142 
L 245.411403 239.721537 
L 245.388611 239.718565 
L 240.020538 239.590238 
L 237.712649 239.467477 
L 235.29046 239.390956 
L 235.289094 239.390913 
L 234.740857 239.360007 
L 233.431319 239.380107 
L 231.652162 239.293871 
L 227.976305 239.05186 
L 227.299187 239.02541 
L 224.869599 238.930504 
L 224.853849 238.928018 
L 224.630756 238.906892 
L 222.82535 238.737447 
L 222.770804 238.742418 
L 217.835644 238.44443 
L 217.52467 238.424005 
L 217.498652 238.421719 
L 217.041351 238.381536 
L 217.031662 238.377862 
L 216.917661 238.365488 
L 216.786631 238.361868 
L 213.747488 238.120614 
L 212.053309 237.935716 
L 210.942665 237.878063 
L 210.314785 237.86288 
L 210.263269 237.880333 
L 208.709888 237.837472 
L 206.27234 237.770215 
L 206.11472 237.774429 
L 206.062521 237.77913 
L 206.058936 237.7794 
L 204.596087 237.737579 
L 203.059316 238.38105 
L 203.075919 238.199825 
L 202.791407 238.149738 
L 202.738568 238.518886 
L 202.199774 238.758422 
L 202.190075 238.762734 
L 201.090485 237.735364 
L 200.444465 237.75487 
L 200.38676 237.755842 
L 195.803164 237.905296 
L 193.8768 237.922748 
L 193.690079 237.928736 
L 191.567033 237.996826 
L 191.432631 237.992774 
L 191.337922 237.997258 
L 190.708377 238.020438 
L 189.807254 238.038053 
L 187.598299 238.0695 
L 187.574398 238.072039 
L 183.095498 238.196638 
L 180.990309 238.236181 
L 178.679979 238.279577 
L 173.74802 238.30762 
L 173.726381 238.307998 
L 173.017108 238.310538 
L 171.704967 238.317184 
L 171.572314 238.31486 
L 170.144924 238.322103 
L 169.24733 238.326657 
L 168.899418 238.328422 
L 168.742992 238.332205 
L 167.125533 238.344303 
L 165.904732 238.353435 
L 165.904151 238.353439 
L 165.447465 238.353439 
L 164.956633 238.369649 
L 164.576833 238.375857 
L 159.555653 238.457938 
L 159.475584 238.457938 
L 156.222354 238.51613 
L 153.958497 238.568267 
L 151.799835 238.617981 
L 147.17168 238.774891 
L 147.32691 237.129392 
L 146.366802 237.054395 
L 140.402987 236.409466 
L 138.995369 236.357703 
L 137.895906 236.350409 
L 137.995097 237.343036 
L 138.157583 237.823545 
L 138.406029 238.230894 
L 138.471673 238.380834 
L 138.533048 238.64181 
L 138.527329 238.924668 
L 138.980217 240.412501 
L 139.147996 241.429173 
L 139.215048 242.041899 
L 139.385771 242.638793 
L 139.463579 243.179278 
L 139.519619 243.777469 
L 139.449494 244.293045 
L 139.375998 244.574446 
L 139.315561 244.68948 
L 139.29166 244.839042 
L 139.313043 245.011134 
L 139.292001 245.226183 
L 139.221194 245.412162 
L 138.972662 245.754024 
L 138.752343 245.971666 
L 138.63544 246.129657 
L 138.631743 246.129568 
L 135.469663 246.053417 
L 127.214477 245.951188 
L 126.996762 245.948432 
L 126.787454 245.945839 
L 123.135626 245.933682 
L 121.692966 245.91504 
L 121.5913 245.927414 
L 120.736784 245.918985 
L 120.032069 245.916841 
L 120.026316 245.916823 
L 119.057031 245.895805 
L 119.042093 245.893157 
L 118.868138 245.897183 
L 118.864668 245.897264 
L 117.636949 245.876515 
L 116.267274 245.869707 
L 112.688473 245.853336 
L 110.378493 245.830696 
L 109.001263 245.821402 
L 106.778821 245.825563 
L 106.045938 245.822416 
L 105.608594 245.820538 
L 105.596252 245.820407 
L 105.283621 245.81708 
L 105.273386 245.817231 
L 103.572156 245.842367 
L 103.152516 245.882459 
L 102.514307 245.854686 
L 99.741708 245.856145 
L 98.222606 245.832263 
L 97.933997 245.829507 
L 97.779748 245.828102 
L 97.774741 245.828036 
L 96.746442 245.814378 
L 95.712623 245.80395 
L 95.147228 245.798979 
L 94.377775 245.791252 
L 93.2087 245.779852 
L 93.1119 245.777474 
L 91.258734 245.730196 
L 91.249984 245.72998 
L 89.202151 245.670328 
L 86.313416 245.622726 
L 86.176538 245.608083 
L 85.408878 245.588361 
L 83.455412 245.801086 
L 83.005554 245.855929 
L 82.002892 245.952053 
L 81.930036 245.97118 
L 81.535151 246.024294 
L 80.98589 246.020944 
L 80.414818 246.026779 
L 80.911582 244.452711 
" clip-path="url(#pf67974245e)" style="fill: #33ff57"/>
    <path d="M 73.832727 243.134107 
L 73.90537 242.834228 
L 74.032986 242.504793 
L 74.188004 242.259865 
L 74.405506 242.002401 
L 74.638075 241.804427 
L 74.916654 241.652542 
L 75.07261 241.621365 
L 75.707532 241.589973 
L 75.931394 241.642222 
L 76.086582 241.722298 
L 76.267293 241.770657 
L 76.881558 241.851597 
L 77.532016 242.093878 
L 77.700308 242.204644 
L 77.777133 242.289204 
L 78.022634 242.737024 
L 78.260794 243.44328 
L 78.359643 244.020561 
L 78.340736 244.356479 
L 78.222083 244.824129 
L 78.060236 245.232072 
L 77.858526 245.592522 
L 77.632829 245.859387 
L 77.506792 246.110097 
L 77.20333 246.094752 
L 76.968627 246.0887 
L 75.210341 246.086161 
L 75.05144 245.706692 
L 74.566328 245.054793 
L 74.394409 244.780471 
L 74.30926 244.600165 
L 74.076222 243.975984 
L 73.894103 243.576199 
L 73.844166 243.41648 
L 73.832727 243.134107 
" clip-path="url(#pf67974245e)" style="fill: #33ff57"/>
   </g>
   <g id="text_1">
    <!-- KY -->
    <g transform="translate(228.778125 89.766178) scale(0.12 -0.12)">
     <defs>
      <path id="DejaVuSans-4b" d="M 628 4666 
L 1259 4666 
L 1259 2694 
L 3353 4666 
L 4166 4666 
L 1850 2491 
L 4331 0 
L 3500 0 
L 1259 2247 
L 1259 0 
L 628 0 
L 628 4666 
z
" transform="scale(0.015625)"/>
      <path id="DejaVuSans-59" d="M -13 4666 
L 666 4666 
L 1959 2747 
L 3244 4666 
L 3922 4666 
L 2272 2222 
L 2272 0 
L 1638 0 
L 1638 2222 
L -13 4666 
z
" transform="scale(0.015625)"/>
     </defs>
     <use xlink:href="#DejaVuSans-4b"/>
     <use xlink:href="#DejaVuSans-59" x="61.951172"/>
    </g>
   </g>
  </g>
 </g>
 <defs>
  <clipPath id="pf67974245e">
   <rect x="57.6" y="95.766178" width="357.12" height="157.523645"/>
  </clipPath>
 </defs>
</svg>
