<?xml version="1.0" encoding="utf-8" standalone="no"?>
<!DOCTYPE svg PUBLIC "-//W3C//DTD SVG 1.1//EN"
  "http://www.w3.org/Graphics/SVG/1.1/DTD/svg11.dtd">
<svg xmlns:xlink="http://www.w3.org/1999/xlink" width="460.8pt" height="345.6pt" viewBox="0 0 460.8 345.6" xmlns="http://www.w3.org/2000/svg" version="1.1">
 <metadata>
  <rdf:RDF xmlns:dc="http://purl.org/dc/elements/1.1/" xmlns:cc="http://creativecommons.org/ns#" xmlns:rdf="http://www.w3.org/1999/02/22-rdf-syntax-ns#">
   <cc:Work>
    <dc:type rdf:resource="http://purl.org/dc/dcmitype/StillImage"/>
    <dc:date>2023-06-19T14:47:49.197230</dc:date>
    <dc:format>image/svg+xml</dc:format>
    <dc:creator>
     <cc:Agent>
      <dc:title>Matplotlib v3.7.1, https://matplotlib.org/</dc:title>
     </cc:Agent>
    </dc:creator>
   </cc:Work>
  </rdf:RDF>
 </metadata>
 <defs>
  <style type="text/css">*{stroke-linejoin: round; stroke-linecap: butt}</style>
 </defs>
 <g id="figure_1">
  <g id="patch_1">
   <path d="M 0 345.6 
L 460.8 345.6 
L 460.8 0 
L 0 0 
z
" style="fill: #ffffff"/>
  </g>
  <g id="axes_1">
   <g id="PatchCollection_1">
    <path d="M 365.419649 229.030256 
L 365.976424 229.266275 
L 366.731758 230.141618 
L 367.459957 231.420797 
L 367.840337 232.247044 
L 368.32555 233.924617 
L 368.687723 236.066598 
L 368.630463 238.736814 
L 368.204843 241.222237 
L 367.891815 242.584526 
L 367.315261 244.261448 
L 366.358123 246.548354 
L 365.742364 246.384738 
L 365.811187 245.461481 
L 366.10337 244.520715 
L 366.44348 243.663236 
L 366.833395 242.745717 
L 367.174114 241.840739 
L 367.355885 240.233321 
L 367.685193 238.911315 
L 367.770398 236.758213 
L 367.655016 235.437922 
L 367.587258 234.405825 
L 367.046357 232.497437 
L 366.790793 231.464985 
L 366.109304 230.64773 
L 365.598225 229.744585 
L 365.419649 229.030256 
" clip-path="url(#p58fd40b844)" style="fill: #ff5733"/>
    <path d="M 342.053711 228.677114 
L 343.35877 228.08316 
L 344.038636 226.760682 
L 347.581648 224.19422 
L 349.746924 222.608747 
L 350.113053 223.343188 
L 348.60624 225.349473 
L 347.890162 226.550334 
L 348.20892 227.951131 
L 349.984078 228.395428 
L 350.612872 229.612438 
L 350.077398 230.238984 
L 349.113008 230.129433 
L 348.638192 231.019268 
L 349.183505 232.092773 
L 348.468847 232.560435 
L 347.76768 232.151689 
L 347.883467 230.920661 
L 347.271207 229.763573 
L 346.232009 229.253203 
L 345.400245 230.299852 
L 345.142448 230.231531 
L 343.760806 229.82521 
L 342.736214 229.91039 
L 342.316021 229.811664 
L 342.053711 228.677114 
" clip-path="url(#p58fd40b844)" style="fill: #ff5733"/>
    <path d="M 336.985527 223.637473 
L 337.877746 223.100011 
L 338.222979 223.678111 
L 337.647997 224.572679 
L 337.142243 224.633725 
L 336.431237 223.951042 
L 336.985527 223.637473 
" clip-path="url(#p58fd40b844)" style="fill: #ff5733"/>
    <path d="M 327.61925 259.671223 
L 328.426924 259.591722 
L 329.535909 258.937314 
L 330.235099 258.802801 
L 330.771536 259.163633 
L 330.072347 259.842529 
L 329.463586 260.637661 
L 328.993487 261.304491 
L 328.077329 260.539822 
L 327.61925 259.671223 
" clip-path="url(#p58fd40b844)" style="fill: #ff5733"/>
    <path d="M 289.611468 284.902076 
L 290.443384 283.922861 
L 290.86515 283.575634 
L 291.293255 283.729727 
L 293.276151 286.871154 
L 292.582896 287.347038 
L 291.70295 287.555966 
L 290.346109 285.232858 
L 289.611468 284.902076 
" clip-path="url(#p58fd40b844)" style="fill: #ff5733"/>
    <path d="M 280.377868 285.765352 
L 282.12579 285.949672 
L 284.476387 286.871154 
L 286.465369 287.055474 
L 287.42976 287.485574 
L 286.235671 288.0144 
L 283.933965 287.854273 
L 281.462762 286.932614 
L 280.377868 285.765352 
" clip-path="url(#p58fd40b844)" style="fill: #ff5733"/>
    <path d="M 270.613713 288.038594 
L 271.819163 287.608494 
L 273.265724 287.178394 
L 275.134151 287.055474 
L 275.616371 287.915733 
L 274.049256 288.345892 
L 270.734269 288.960431 
L 269.890484 288.653132 
L 270.613713 288.038594 
" clip-path="url(#p58fd40b844)" style="fill: #ff5733"/>
    <path d="M 206.351133 256.373041 
L 206.785445 255.882283 
L 206.984035 255.657884 
L 208.135217 254.997857 
L 209.238979 255.30977 
L 210.303232 255.229677 
L 210.913767 253.916189 
L 212.300024 253.800131 
L 213.023304 254.154516 
L 214.029841 254.081166 
L 214.952034 254.233958 
L 215.829292 255.151181 
L 217.062434 255.826765 
L 217.260434 256.507554 
L 218.176593 256.189667 
L 218.586439 256.794859 
L 219.165074 257.314517 
L 220.121096 257.356456 
L 220.78037 256.97214 
L 220.870799 258.054341 
L 221.908476 257.652752 
L 221.798978 258.470126 
L 220.677921 259.381315 
L 219.153003 260.286589 
L 218.706995 261.461127 
L 219.008357 262.323811 
L 218.098539 262.752906 
L 217.218288 262.470688 
L 216.657963 262.814839 
L 216.304311 263.296106 
L 215.042261 262.977686 
L 214.493955 261.748669 
L 213.824943 261.528443 
L 213.139143 261.653019 
L 212.283541 260.928634 
L 211.549966 260.658601 
L 209.828872 259.607634 
L 209.101535 259.627923 
L 208.67769 259.185638 
L 206.487461 258.125975 
L 205.724318 257.455123 
L 206.351133 256.373041 
" clip-path="url(#p58fd40b844)" style="fill: #ff5733"/>
    <path d="M 103.632277 72.877008 
L 103.642421 68.442915 
L 103.638363 67.918112 
L 103.642877 67.699542 
L 103.648405 67.4204 
L 103.652564 67.320077 
L 103.638414 66.698795 
L 103.650637 62.320897 
L 103.638465 61.790888 
L 103.645514 61.760188 
L 103.645529 61.752879 
L 103.646884 61.06183 
L 103.645565 60.698632 
L 103.635067 60.041445 
L 103.636335 58.392147 
L 103.63527 57.345793 
L 103.641559 53.582078 
L 103.718649 53.583912 
L 104.00292 53.586456 
L 104.401355 53.586811 
L 104.579272 53.582788 
L 115.225958 53.573028 
L 115.7147 53.572497 
L 119.855438 53.568 
L 129.581706 53.61615 
L 129.915578 53.616505 
L 130.114492 53.61774 
L 130.115658 53.617747 
L 131.641135 53.62804 
L 131.660053 53.628024 
L 131.71148 53.627981 
L 132.847987 53.618068 
L 132.850794 53.618043 
L 137.410689 53.640344 
L 139.276124 53.634251 
L 140.896797 53.643597 
L 140.907802 53.644958 
L 144.436411 53.654659 
L 145.600577 53.630939 
L 146.526219 53.657084 
L 148.709652 53.662704 
L 150.465544 53.667194 
L 151.393005 53.669565 
L 151.416437 53.666844 
L 152.408113 53.658445 
L 152.827089 53.660219 
L 152.952919 53.666489 
L 157.110635 53.695717 
L 158.00178 53.701981 
L 159.248615 53.724755 
L 163.257466 53.768824 
L 163.934188 53.764683 
L 164.435326 53.76835 
L 164.446129 53.77048 
L 165.119401 53.792544 
L 166.857231 53.841345 
L 170.069465 53.870271 
L 170.4855 53.870034 
L 170.498238 53.870271 
L 170.558583 53.871395 
L 170.947535 53.867254 
L 171.180581 53.872637 
L 180.386142 53.98367 
L 181.705089 53.999579 
L 181.826456 53.999638 
L 183.430189 54.008511 
L 188.475145 54.084995 
L 188.851721 54.09026 
L 190.21967 54.106764 
L 192.41213 54.121315 
L 195.954179 54.181828 
L 203.750449 54.236072 
L 209.691834 54.279549 
L 209.791088 54.274107 
L 213.588448 54.261803 
L 219.677572 54.304275 
L 220.668437 54.271208 
L 226.140435 54.325731 
L 226.189578 54.32622 
L 226.648824 54.321607 
L 227.085703 54.33113 
L 228.566599 54.333378 
L 228.574866 54.336099 
L 228.945762 54.310308 
L 229.596567 54.314331 
L 232.60796 54.317643 
L 233.162909 54.353253 
L 234.622349 54.369369 
L 234.978945 54.373306 
L 235.870911 54.358163 
L 236.394111 54.363073 
L 238.902084 54.376205 
L 241.083184 54.39188 
L 241.247711 54.398269 
L 241.418679 54.40093 
L 241.487604 54.40164 
L 241.615969 54.403001 
L 242.147994 54.407674 
L 243.548706 54.422758 
L 244.531608 54.418203 
L 249.549836 54.476054 
L 249.543648 54.586552 
L 249.402756 55.18435 
L 249.182896 55.541869 
L 248.734047 55.982499 
L 248.489336 56.127127 
L 247.95934 56.799931 
L 247.847102 56.874404 
L 247.735727 57.013354 
L 247.726192 57.242867 
L 247.768795 57.381876 
L 247.858818 57.539696 
L 247.451811 58.008245 
L 247.286219 58.277272 
L 247.178952 58.500219 
L 247.117736 58.840702 
L 247.120526 59.025377 
L 247.17809 59.326701 
L 247.240979 59.4734 
L 247.410071 59.725983 
L 247.84056 60.130706 
L 247.992205 60.232922 
L 248.760775 60.54868 
L 249.076542 60.634333 
L 249.33875 60.670239 
L 249.85911 60.641372 
L 250.279303 60.519754 
L 250.614748 60.309229 
L 251.174414 59.58863 
L 251.272096 59.266484 
L 251.313227 59.041881 
L 251.313988 58.856733 
L 251.100062 57.903485 
L 250.980572 57.51355 
L 251.015872 57.290899 
L 251.043208 57.241861 
L 251.21022 57.140888 
L 251.316321 57.030154 
L 251.342796 56.95154 
L 251.331333 56.859379 
L 251.224675 56.698129 
L 250.997765 56.520138 
L 250.943954 56.413545 
L 251.099555 55.922281 
L 251.155496 55.870463 
L 251.627523 55.625807 
L 252.304599 55.407415 
L 252.567112 55.373284 
L 253.056585 55.522704 
L 253.191747 55.643435 
L 253.36307 55.832546 
L 253.570251 56.122868 
L 253.897225 56.919774 
L 253.970816 57.569035 
L 253.889516 57.669299 
L 253.819273 57.709997 
L 253.758818 57.800264 
L 253.818208 57.986063 
L 253.893371 58.078459 
L 254.317165 58.396346 
L 254.394661 58.502585 
L 254.685931 59.068795 
L 254.733047 59.29192 
L 254.683395 59.657011 
L 254.742734 60.257766 
L 254.736923 60.401718 
L 254.736395 60.414817 
L 254.703936 60.571276 
L 254.514405 61.111637 
L 254.391872 61.305066 
L 253.576286 62.208152 
L 252.615294 63.095207 
L 252.08479 63.258173 
L 251.646897 63.304312 
L 251.486579 63.2926 
L 250.979203 63.652486 
L 250.691686 63.903057 
L 250.618501 64.013614 
L 250.380028 64.702744 
L 250.254756 64.971711 
L 250.002133 65.140297 
L 249.942236 65.23015 
L 249.773195 65.812154 
L 249.786229 66.549257 
L 249.634838 67.388221 
L 249.929709 67.667718 
L 250.014153 67.71226 
L 249.978854 67.967208 
L 249.605879 68.798246 
L 249.562972 69.043257 
L 249.58762 69.430175 
L 249.685961 69.684059 
L 249.928339 69.894643 
L 250.138766 69.960303 
L 250.352641 69.993014 
L 251.2936 69.914873 
L 251.726675 69.933151 
L 252.20849 70.100436 
L 253.378996 70.329357 
L 254.058456 70.540296 
L 254.890727 70.838426 
L 255.08178 70.951644 
L 255.209486 71.148091 
L 255.195894 71.327323 
L 255.079548 71.720867 
L 254.729446 72.291691 
L 254.115006 72.834418 
L 253.857159 72.989635 
L 252.963671 73.334851 
L 252.675546 73.50385 
L 251.974886 73.998309 
L 251.494846 74.514831 
L 251.332297 74.897727 
L 250.991984 75.385678 
L 250.937513 75.43578 
L 250.768827 75.465889 
L 250.651721 75.539002 
L 250.377543 75.774903 
L 250.259473 75.924737 
L 250.22813 75.969161 
L 250.17513 76.296217 
L 250.171225 76.529634 
L 250.184665 76.831372 
L 250.29817 77.438398 
L 250.557539 78.134922 
L 250.665567 78.343791 
L 250.813966 78.545147 
L 251.111575 78.873918 
L 251.485261 79.179028 
L 251.627472 79.256282 
L 251.893941 79.27947 
L 251.955461 79.259121 
L 252.253527 78.960577 
L 252.611591 78.919584 
L 253.520446 78.553369 
L 253.940284 78.339827 
L 254.860906 78.062283 
L 255.447097 77.954861 
L 255.49254 77.578176 
L 255.778433 77.150916 
L 255.870485 76.893246 
L 255.923586 76.456344 
L 256.024311 76.224346 
L 256.441918 75.774253 
L 256.665682 75.625129 
L 257.003156 75.786497 
L 257.24807 75.985428 
L 257.626725 76.530876 
L 257.795107 76.9104 
L 257.822393 77.04586 
L 257.820618 77.511807 
L 257.739369 77.801537 
L 257.453881 78.266064 
L 257.276624 78.473572 
L 257.149425 78.56029 
L 256.80901 78.862265 
L 256.400836 79.365123 
L 256.138171 79.589371 
L 255.768902 79.783773 
L 255.471644 79.940265 
L 254.455167 80.565629 
L 254.433162 80.580772 
L 254.092183 80.815431 
L 254.379344 81.425237 
L 255.081526 82.030607 
L 256.367566 82.815446 
L 257.613793 83.32694 
L 258.23295 83.785966 
L 258.545774 84.281725 
L 258.621698 84.551876 
L 258.444137 85.020011 
L 258.155809 85.246211 
L 257.759301 85.351799 
L 256.750025 85.168425 
L 256.039983 84.860831 
L 255.649408 84.559211 
L 255.39075 84.287108 
L 254.553964 82.921921 
L 253.008505 81.648184 
L 252.834748 82.781078 
L 252.546622 83.411943 
L 252.053498 84.287108 
L 252.023067 84.588787 
L 252.089 85.292646 
L 252.286797 85.706716 
L 252.454165 85.949242 
L 253.138849 86.735915 
L 253.823584 87.226883 
L 254.411905 87.540393 
L 255.289315 87.936658 
L 256.47108 88.226506 
L 256.638447 88.173269 
L 257.135477 87.824267 
L 257.72887 87.504901 
L 258.024654 87.243209 
L 258.28387 87.20269 
L 258.813359 87.307568 
L 259.060657 87.428535 
L 259.514932 87.874666 
L 259.567171 87.957834 
L 259.652934 88.110744 
L 259.67383 88.207222 
L 259.697718 88.743265 
L 259.684075 88.966803 
L 259.60739 89.129355 
L 259.43627 89.344849 
L 259.267888 89.500717 
L 258.950296 89.723013 
L 258.272864 89.982161 
L 258.28808 90.401199 
L 258.24213 90.667446 
L 258.163467 90.916834 
L 257.941883 91.296418 
L 257.744085 92.09498 
L 257.744085 92.2961 
L 257.794803 92.449838 
L 257.967242 92.713068 
L 258.295941 92.928857 
L 258.648579 93.06414 
L 260.276047 93.4132 
L 260.86447 93.407462 
L 261.274469 93.465965 
L 261.970666 93.637153 
L 262.417334 93.792074 
L 262.650989 93.546176 
L 263.157858 92.910342 
L 263.447048 91.950943 
L 263.604931 91.793183 
L 264.145477 91.716166 
L 264.280283 91.841215 
L 264.256497 92.709578 
L 263.366255 94.46399 
L 262.914617 94.967262 
L 262.781992 95.209197 
L 262.224912 95.914003 
L 261.916855 96.206395 
L 261.320419 96.697127 
L 260.618339 97.102737 
L 260.439966 97.119714 
L 260.355927 97.069789 
L 260.234358 96.939771 
L 259.941922 96.522922 
L 259.845153 96.345641 
L 259.790885 96.310918 
L 259.41081 96.273947 
L 259.260737 96.29613 
L 259.179741 96.33588 
L 259.013591 96.498432 
L 258.949079 96.63401 
L 258.78019 97.311665 
L 258.835573 97.883081 
L 258.934827 98.093724 
L 259.004056 98.181329 
L 259.425974 98.625567 
L 259.524416 98.934462 
L 259.493327 98.984151 
L 259.182784 99.196391 
L 258.972257 99.462046 
L 258.827966 100.185485 
L 258.821474 100.491305 
L 258.815489 101.345116 
L 258.464373 102.0207 
L 258.409243 102.074115 
L 258.279661 102.142141 
L 258.260694 102.148591 
L 258.124161 102.195023 
L 257.968662 102.187452 
L 257.858504 102.142141 
L 257.793281 101.995856 
L 257.718727 101.281054 
L 257.825233 100.677695 
L 257.662938 100.618542 
L 257.485427 100.494321 
L 256.88184 99.902853 
L 256.623181 99.749055 
L 256.232658 99.583428 
L 255.994286 99.536105 
L 255.613906 99.607089 
L 255.42118 99.796378 
L 255.345104 100.003412 
L 255.279172 100.387846 
L 255.177737 100.577135 
L 254.858167 100.937967 
L 254.366209 100.500237 
L 254.163339 100.441084 
L 253.72717 100.476576 
L 253.301144 100.630373 
L 252.88014 100.98529 
L 252.469329 101.559072 
L 252.241101 101.653716 
L 252.18658 101.645021 
L 252.024995 101.646736 
L 251.681486 101.384334 
L 251.455692 101.262184 
L 251.369371 101.232785 
L 251.19744 101.246627 
L 249.957958 101.925464 
L 249.753263 102.098249 
L 249.6463 102.22525 
L 249.448401 102.831744 
L 249.297619 103.429719 
L 249.164841 104.157003 
L 249.119804 104.704344 
L 249.173412 105.057427 
L 249.264348 105.338935 
L 249.581331 105.928097 
L 249.714718 106.022505 
L 250.109248 106.049182 
L 250.649033 106.158793 
L 251.046353 106.337375 
L 251.308206 106.405874 
L 252.197636 106.434385 
L 252.328081 106.475497 
L 252.713432 106.181448 
L 252.840986 106.114665 
L 253.324069 105.968675 
L 253.832561 105.945724 
L 254.065201 105.975241 
L 254.469013 106.094434 
L 254.850712 106.364822 
L 255.275723 106.52276 
L 255.375535 105.344732 
L 255.426252 105.279664 
L 255.512471 104.989815 
L 255.451611 104.563915 
L 255.147307 104.185337 
L 254.985011 103.74175 
L 255.048915 103.380741 
L 255.426252 103.31585 
L 255.852278 103.546546 
L 256.354379 103.94287 
L 256.704329 104.256321 
L 257.130406 104.35688 
L 257.658677 104.58728 
L 257.764372 105.226426 
L 257.718727 105.42163 
L 257.647722 105.593174 
L 257.373849 106.113659 
L 257.079688 106.468576 
L 256.957967 106.56322 
L 256.602894 106.711102 
L 256.410565 106.739918 
L 256.405097 106.740738 
L 256.415266 107.108379 
L 256.425384 107.474173 
L 256.212371 107.894158 
L 256.014573 108.059727 
L 254.590836 108.824217 
L 253.914824 109.189545 
L 253.838748 109.272359 
L 253.828605 109.390664 
L 253.96047 110.899001 
L 253.904681 111.011392 
L 253.798174 111.058714 
L 252.96641 111.011392 
L 252.712823 110.899001 
L 252.175169 110.425779 
L 251.678139 109.62136 
L 251.449911 109.343342 
L 251.130391 109.118561 
L 250.907235 109.035748 
L 250.613024 109.059409 
L 250.425369 109.130392 
L 250.070348 109.402495 
L 249.84212 109.710089 
L 249.776187 109.863887 
L 249.7559 110.005853 
L 249.7559 110.183253 
L 249.791403 110.33705 
L 249.908053 110.56183 
L 250.044989 110.757035 
L 250.293504 110.958154 
L 250.613024 111.117867 
L 251.627421 111.336732 
L 253.128705 111.656157 
L 253.504014 111.833615 
L 253.691668 112.011015 
L 253.782959 112.176642 
L 253.87425 112.484237 
L 253.918882 112.788282 
L 254.122765 112.876302 
L 253.402731 113.862438 
L 253.098275 114.175947 
L 252.692536 114.442135 
L 252.017945 114.637339 
L 249.634179 114.903527 
L 249.340018 115.110562 
L 248.974853 115.453648 
L 248.599545 115.909124 
L 248.422034 116.181168 
L 248.38146 116.388203 
L 248.396676 116.64256 
L 248.361173 117.044799 
L 248.173519 117.677733 
L 248.188734 117.71914 
L 248.280026 117.766463 
L 248.604617 117.713225 
L 248.655334 117.825615 
L 248.594473 118.381592 
L 248.787199 118.600458 
L 248.812558 118.724679 
L 248.680693 118.831154 
L 248.376389 118.943544 
L 248.295241 119.020443 
L 248.20395 119.18607 
L 248.143089 119.221562 
L 247.955435 119.2748 
L 247.777924 119.245223 
L 247.686633 119.316207 
L 247.569983 119.540987 
L 247.382329 119.759852 
L 246.462265 120.668084 
L 246.059164 121.155622 
L 245.387413 121.570578 
L 244.562343 121.830141 
L 244.455836 121.901124 
L 244.394976 121.995769 
L 244.329043 122.232321 
L 244.339186 122.439355 
L 244.374689 122.563576 
L 244.450765 122.675967 
L 244.728087 122.974215 
L 245.51522 123.74048 
L 245.544484 123.842105 
L 245.42682 124.381815 
L 245.287652 124.651611 
L 245.008706 124.95329 
L 244.684115 125.148494 
L 244.3189 125.160325 
L 243.938519 125.030188 
L 243.761009 124.923713 
L 243.659574 124.829069 
L 243.522637 124.616119 
L 243.375557 124.273092 
L 243.294409 124.006904 
L 243.25774 123.711318 
L 243.299481 122.930324 
L 243.091489 122.143651 
L 243.025556 122.125905 
L 241.392407 122.451186 
L 241.042458 122.551746 
L 240.809158 122.670051 
L 240.575858 122.930324 
L 240.438921 123.166935 
L 239.739022 125.740022 
L 239.526009 126.863866 
L 239.476762 127.456458 
L 240.294478 127.723119 
L 241.629866 127.612799 
L 241.947363 127.629688 
L 242.690721 127.669231 
L 243.465174 127.354893 
L 244.082455 127.407184 
L 244.631775 127.65462 
L 244.805837 127.992087 
L 244.613364 128.395627 
L 243.997707 128.925222 
L 243.177201 128.940306 
L 241.91651 128.937295 
L 241.815288 128.937053 
L 240.999246 129.010639 
L 239.960657 129.157811 
L 238.696029 129.679723 
L 238.65362 129.697225 
L 237.831999 130.945349 
L 237.791425 131.063655 
L 237.684918 131.743912 
L 237.679847 132.317694 
L 237.786353 133.826031 
L 237.903003 134.920357 
L 237.882716 135.210206 
L 237.771138 135.979192 
L 237.634201 136.328194 
L 236.848944 136.755987 
L 236.614732 136.848738 
L 236.183634 136.860569 
L 235.823541 136.78367 
L 234.44905 136.328194 
L 233.916467 136.03243 
L 233.637522 135.81948 
L 233.495513 135.665682 
L 233.246998 135.340342 
L 233.119749 135.107576 
L 232.981747 134.913614 
L 232.894006 134.870196 
L 232.73237 134.849019 
L 232.650562 134.891195 
L 232.243201 135.221859 
L 231.988295 135.478937 
L 231.829753 135.736252 
L 231.769044 135.916076 
L 231.705039 136.430114 
L 231.739933 136.736644 
L 231.77371 136.833773 
L 231.86254 136.977455 
L 231.954112 137.125573 
L 232.472798 137.7856 
L 232.912264 138.114608 
L 233.191209 138.274261 
L 233.363648 138.35116 
L 233.657809 138.392567 
L 234.322257 138.357075 
L 234.76857 138.268346 
L 235.843828 137.830675 
L 236.127845 137.741945 
L 236.533584 137.706454 
L 236.817652 137.753776 
L 237.025593 137.807013 
L 237.487121 138.13821 
L 237.411045 138.924942 
L 237.350184 139.19113 
L 237.291433 139.328175 
L 237.284251 139.344927 
L 236.92923 139.770827 
L 236.34593 140.220388 
L 235.777896 140.717271 
L 235.458376 140.936137 
L 235.14895 141.101765 
L 233.642594 141.651886 
L 233.561446 141.63414 
L 233.429581 141.521749 
L 233.140492 141.42119 
L 232.60796 141.518792 
L 232.273175 141.498088 
L 232.045048 141.519028 
L 231.905778 141.550261 
L 231.812103 141.620653 
L 231.526311 142.033658 
L 231.470978 142.142144 
L 231.451503 142.274469 
L 231.454445 142.413359 
L 231.570232 142.666888 
L 231.763973 142.751772 
L 231.857394 142.849907 
L 231.845222 143.248183 
L 231.744649 143.543119 
L 231.693526 144.425146 
L 231.7518 145.780277 
L 231.846591 146.452726 
L 231.936057 146.737251 
L 232.088716 147.060698 
L 232.288187 147.502451 
L 232.611612 148.149583 
L 233.119089 148.611211 
L 233.616627 149.103658 
L 233.784197 149.493771 
L 234.030734 149.604446 
L 234.026473 149.870101 
L 234.034436 150.419689 
L 234.079777 150.728822 
L 234.010447 151.059545 
L 233.685602 151.436408 
L 232.402808 151.436703 
L 232.204402 151.358267 
L 231.803583 151.121064 
L 231.506481 150.832162 
L 231.247112 150.495878 
L 230.973948 149.938659 
L 230.61274 148.534017 
L 230.610407 148.303972 
L 230.737301 147.992 
L 230.730454 147.934207 
L 230.552437 147.543977 
L 230.502784 147.4879 
L 230.331005 147.409818 
L 230.155928 147.430995 
L 229.938605 147.547881 
L 229.83438 147.673403 
L 229.308239 147.976443 
L 229.059064 148.210688 
L 228.745986 148.742412 
L 228.645515 149.135127 
L 228.641052 149.418588 
L 228.86436 149.902517 
L 229.001145 150.270565 
L 229.116831 150.686705 
L 229.441321 150.356041 
L 229.544328 150.276776 
L 229.790003 150.167107 
L 229.954733 150.211767 
L 230.270448 150.399755 
L 230.250161 150.475589 
L 230.082388 150.764432 
L 230.027258 151.513898 
L 230.034004 151.695556 
L 230.134171 152.084545 
L 230.130468 152.483412 
L 230.300371 152.690033 
L 230.785026 153.009872 
L 230.929824 153.313325 
L 231.008386 153.397559 
L 231.675217 153.898524 
L 232.104286 154.283609 
L 232.174732 154.383636 
L 232.209372 154.513062 
L 232.193193 155.525403 
L 232.16469 155.772958 
L 232.001025 156.214651 
L 231.822044 156.567616 
L 231.671718 156.740756 
L 230.700176 157.208892 
L 229.880026 157.464372 
L 229.358297 157.548192 
L 228.835857 157.568541 
L 228.163548 157.49318 
L 227.203824 157.295787 
L 226.458989 157.182746 
L 225.631586 157.190495 
L 225.449967 157.235629 
L 225.073847 157.512405 
L 224.936911 157.672709 
L 224.802104 157.89601 
L 224.752299 158.128954 
L 224.757473 158.225965 
L 224.903944 158.668664 
L 225.292591 159.158272 
L 226.268241 159.651783 
L 227.460251 160.686839 
L 227.794326 161.077484 
L 228.046797 161.567032 
L 228.077212 161.718054 
L 228.103195 161.847062 
L 228.11557 162.31638 
L 228.097768 162.460654 
L 227.973206 162.784101 
L 227.691218 163.353506 
L 227.555802 163.584202 
L 227.329349 163.882746 
L 226.443114 164.928271 
L 226.313988 165.11407 
L 226.268292 165.223503 
L 226.238419 165.407823 
L 226.199417 165.977938 
L 226.223863 166.109789 
L 226.450012 166.502505 
L 226.600389 166.675763 
L 226.79347 166.851506 
L 227.059229 167.017134 
L 227.811367 167.615346 
L 229.183018 168.872816 
L 229.360427 169.071333 
L 229.505833 169.421754 
L 229.575621 169.823224 
L 229.552392 170.095977 
L 229.50842 170.290176 
L 229.3479 170.719625 
L 228.977764 171.262825 
L 228.637045 171.603072 
L 228.025901 172.002945 
L 227.213054 172.361056 
L 226.268292 172.706626 
L 225.66861 173.059059 
L 226.268292 173.073788 
L 230.649814 173.060715 
L 232.608061 173.101945 
L 232.746317 173.083311 
L 236.379758 173.083252 
L 236.487685 173.084613 
L 237.862427 173.080177 
L 245.471299 173.055628 
L 246.56938 173.072841 
L 246.608483 173.072841 
L 249.035765 173.075148 
L 249.039277 173.075164 
L 252.480386 173.090765 
L 252.489363 173.092125 
L 253.873946 173.089049 
L 254.510145 173.088399 
L 254.918777 173.086449 
L 255.833747 173.082083 
L 263.311633 173.0464 
L 266.796067 173.062371 
L 266.80609 173.062347 
L 268.940498 173.057225 
L 269.137636 173.056634 
L 269.334267 173.054622 
L 269.671436 173.061543 
L 270.20691 173.04918 
L 271.435436 173.070534 
L 271.439443 173.071008 
L 275.663183 173.053498 
L 275.788556 173.054918 
L 278.83388 173.045217 
L 278.899964 173.047938 
L 279.048312 173.042378 
L 279.09548 173.042378 
L 279.923339 173.040307 
L 280.91636 173.040883 
L 284.003347 173.042673 
L 284.047623 173.039893 
L 284.483386 173.041254 
L 284.552159 173.039893 
L 284.645175 173.036462 
L 285.531065 173.038946 
L 286.248603 173.040958 
L 286.286844 173.040544 
L 286.508682 173.040485 
L 287.041316 173.037764 
L 287.28131 173.035753 
L 289.390188 173.032085 
L 289.956447 173.004697 
L 291.078824 173.003278 
L 291.07938 173.003278 
L 291.141407 173.003041 
L 295.526027 172.985641 
L 298.830896 172.972525 
L 300.338034 172.966544 
L 300.35822 172.963882 
L 302.025958 172.969856 
L 302.177553 172.962581 
L 306.11829 172.952643 
L 307.190049 172.954122 
L 307.5648 172.947497 
L 308.419539 172.943829 
L 309.936089 172.924427 
L 310.069375 172.942173 
L 312.384165 172.939511 
L 312.589164 172.938979 
L 313.887681 172.911354 
L 314.13153 172.920464 
L 315.949544 172.901772 
L 317.012277 172.902702 
L 317.030838 172.902718 
L 317.584925 172.902659 
L 318.000198 172.901239 
L 321.235306 172.914903 
L 321.261121 173.013689 
L 321.294188 173.042851 
L 321.410433 173.050837 
L 321.509839 173.013629 
L 321.611983 172.891301 
L 321.784118 172.820969 
L 322.256651 172.738746 
L 322.403123 172.792221 
L 322.477627 172.880713 
L 322.477722 172.888484 
L 322.478692 172.967963 
L 322.383648 173.039361 
L 322.102674 173.041372 
L 322.169265 173.284668 
L 322.280438 173.355237 
L 322.456529 173.356006 
L 322.500399 173.419122 
L 322.387198 174.08394 
L 322.358238 174.224901 
L 322.273692 174.320669 
L 322.083807 174.333861 
L 322.03456 174.377811 
L 322.021069 174.439389 
L 322.074982 174.536104 
L 322.465708 174.731604 
L 322.531438 174.816429 
L 322.532148 174.95319 
L 322.483003 175.005067 
L 322.41778 175.021393 
L 322.312998 175.028019 
L 322.184176 174.981347 
L 322.095269 175.001814 
L 321.717526 175.391039 
L 321.694298 175.480419 
L 321.308643 175.897032 
L 321.048108 176.366764 
L 321.036899 176.458392 
L 321.073365 176.600714 
L 321.365598 176.824311 
L 321.425242 176.935223 
L 321.427575 176.998635 
L 321.365598 177.176152 
L 321.460186 177.557451 
L 321.614722 177.613824 
L 321.650883 177.722606 
L 321.633589 177.819853 
L 321.535755 178.004883 
L 321.365598 178.174947 
L 321.16207 178.182637 
L 320.99313 178.052915 
L 320.892406 178.044574 
L 320.730262 178.12727 
L 320.649013 178.235519 
L 320.636384 178.331938 
L 320.678429 178.482423 
L 320.781335 178.549916 
L 320.872119 178.572099 
L 321.030965 178.876558 
L 321.013062 179.00208 
L 320.927096 179.098381 
L 320.826574 179.158303 
L 320.603418 179.122042 
L 320.341311 178.975876 
L 320.254229 178.991433 
L 320.197781 179.038104 
L 320.174755 179.125414 
L 320.252961 179.517124 
L 320.353584 179.989518 
L 320.078139 180.034297 
L 319.994353 180.05849 
L 319.919647 180.187739 
L 319.888659 180.407669 
L 319.948961 180.512606 
L 320.444369 180.927799 
L 320.46709 180.976009 
L 320.458671 181.077693 
L 320.267619 181.620774 
L 320.223748 181.680933 
L 320.114604 181.704949 
L 319.910923 181.554346 
L 319.764452 181.506255 
L 319.676153 181.541214 
L 319.641209 181.585697 
L 319.623813 181.675964 
L 319.655511 181.771377 
L 319.799751 181.983677 
L 319.836217 182.120142 
L 319.81735 182.163146 
L 319.71343 182.17758 
L 319.4674 182.245724 
L 319.33447 182.608271 
L 319.299779 182.954433 
L 319.318697 183.022222 
L 319.369719 183.052686 
L 319.501026 183.042512 
L 319.645672 183.235172 
L 319.788542 183.66474 
L 319.725856 183.7918 
L 319.548852 183.910875 
L 319.252105 183.649123 
L 319.004148 183.574532 
L 318.960683 183.584588 
L 318.901699 183.62144 
L 318.830948 183.726554 
L 318.850018 183.957605 
L 318.812031 184.238404 
L 318.627267 184.663002 
L 318.598511 184.706539 
L 318.418768 184.821827 
L 318.319007 184.864181 
L 318.26687 184.918897 
L 318.251249 184.973614 
L 318.282491 185.010111 
L 318.397214 185.155982 
L 318.474811 185.21543 
L 318.517109 185.247195 
L 318.584868 185.295819 
L 318.595265 185.350535 
L 318.57442 185.411344 
L 318.490432 185.50167 
L 318.292939 185.563367 
L 318.219956 185.539055 
L 318.193888 185.453934 
L 318.146974 185.326223 
L 318.126129 185.222883 
L 318.000756 185.088488 
L 317.942888 185.088488 
L 317.861486 185.137289 
L 317.764413 185.297357 
L 317.743721 185.376621 
L 317.761776 185.528881 
L 317.596184 186.060073 
L 317.23396 186.77103 
L 317.41913 187.314703 
L 317.526245 187.972128 
L 317.512094 188.266886 
L 317.641982 188.345796 
L 317.842011 188.364547 
L 317.983208 188.399743 
L 318.018152 188.441742 
L 317.996648 188.525739 
L 317.946894 188.563655 
L 317.741235 188.604293 
L 317.505907 188.605713 
L 317.118274 188.583353 
L 317.036163 188.62547 
L 317.017719 188.649474 
L 316.963485 188.720055 
L 316.959681 189.102182 
L 316.990822 189.161572 
L 317.156464 189.187481 
L 317.410254 189.290466 
L 317.30887 189.805568 
L 317.212456 189.860344 
L 316.994575 189.812962 
L 316.510528 190.337707 
L 316.471222 190.403071 
L 316.504189 190.524452 
L 316.621904 190.621818 
L 316.716999 190.609869 
L 316.839633 190.52528 
L 316.902878 190.53161 
L 317.015318 190.796673 
L 317.034083 191.292906 
L 316.967187 191.327984 
L 316.552928 192.267448 
L 316.439524 192.542686 
L 316.368009 192.783071 
L 316.35442 192.828749 
L 316.269672 192.853652 
L 316.182793 192.962908 
L 316.201761 193.065538 
L 316.754631 193.224304 
L 317.005225 193.296293 
L 317.146524 193.283397 
L 317.56621 193.762121 
L 317.724347 194.081487 
L 317.916413 194.67331 
L 317.653697 195.336768 
L 317.746865 195.513517 
L 317.775064 195.605854 
L 317.697923 195.830161 
L 317.652835 196.198802 
L 317.753864 196.26387 
L 317.976057 196.175732 
L 318.053401 196.178926 
L 318.127448 196.22891 
L 318.094837 196.321721 
L 317.960994 196.632924 
L 317.834505 196.875805 
L 317.827303 196.961281 
L 317.893793 197.118154 
L 318.001872 197.179792 
L 318.219297 197.190025 
L 318.472427 197.434681 
L 318.439765 197.52412 
L 318.39406 197.554077 
L 318.339497 197.589839 
L 318.486375 198.3396 
L 318.418363 198.531492 
L 318.426325 198.578637 
L 318.519899 198.605551 
L 318.643091 198.569764 
L 318.836121 198.498603 
L 319.112632 198.480739 
L 319.324479 198.606675 
L 319.356076 198.662515 
L 319.336651 198.736279 
L 319.217364 198.869136 
L 319.000953 198.950116 
L 318.819385 198.833171 
L 318.757662 198.832698 
L 318.689751 198.88144 
L 318.636295 199.017373 
L 318.639135 199.117519 
L 318.691983 199.175784 
L 319.110756 199.255581 
L 319.256213 199.55312 
L 319.241201 199.714962 
L 319.138295 199.744834 
L 319.075304 199.753766 
L 319.067342 199.79399 
L 319.07003 199.846577 
L 319.146968 199.883725 
L 319.287557 199.936311 
L 319.414553 199.970738 
L 319.645215 199.993749 
L 319.835304 199.96228 
L 319.869842 199.977778 
L 320.083362 200.30294 
L 320.271625 200.811595 
L 320.31722 200.955337 
L 320.355157 201.305699 
L 320.449643 201.712433 
L 320.833218 201.668601 
L 320.919844 201.828254 
L 320.9344 202.249422 
L 320.956817 202.281246 
L 321.220648 202.45344 
L 321.550108 202.445987 
L 321.733654 202.67757 
L 321.754955 202.759674 
L 322.149587 202.913057 
L 322.578707 203.041005 
L 322.656811 203.079927 
L 322.830924 203.274777 
L 322.908471 203.596686 
L 323.099472 203.914277 
L 323.271556 203.931254 
L 323.389677 203.88405 
L 323.420767 203.910965 
L 323.624295 204.236483 
L 323.813928 204.664453 
L 324.114935 204.773649 
L 324.407168 204.987309 
L 324.423526 205.009729 
L 324.746569 205.452486 
L 324.776036 205.806398 
L 324.67526 206.179001 
L 324.740939 206.448265 
L 324.820819 206.500674 
L 324.893396 206.805252 
L 324.994881 207.687338 
L 324.912719 207.841845 
L 324.860429 207.836403 
L 324.801851 207.747733 
L 324.710661 207.768141 
L 324.732571 208.168783 
L 324.841396 208.33348 
L 324.962473 208.516719 
L 325.286607 209.150541 
L 325.419892 209.555561 
L 325.822081 210.215824 
L 325.919965 210.676033 
L 326.076327 211.088446 
L 326.304454 211.146356 
L 326.608403 211.325944 
L 326.66333 211.3961 
L 326.684529 211.584679 
L 327.135914 211.830518 
L 327.469228 212.10753 
L 327.435146 212.483387 
L 327.461621 213.188252 
L 327.627517 213.517141 
L 327.647043 213.588243 
L 327.372054 213.879452 
L 327.241964 213.9431 
L 326.954701 214.000774 
L 326.927871 214.031889 
L 326.861736 214.206744 
L 326.773741 215.16011 
L 327.067547 215.316865 
L 327.38382 215.634515 
L 327.429009 215.817889 
L 327.467707 216.371973 
L 327.422467 216.674303 
L 327.393761 216.696781 
L 327.342536 216.789473 
L 327.364649 216.979531 
L 327.61149 217.285884 
L 327.76699 217.395316 
L 328.157513 217.543198 
L 328.258948 217.708826 
L 328.26402 217.8922 
L 328.172728 218.258947 
L 328.111868 218.720339 
L 328.116939 218.832729 
L 328.172728 218.974696 
L 328.340096 219.193502 
L 328.436509 219.276316 
L 328.588661 219.335469 
L 328.913252 219.394621 
L 329.146552 219.648978 
L 329.542198 220.329235 
L 329.618274 220.630915 
L 329.699422 220.814288 
L 329.953009 221.163231 
L 330.272528 221.429418 
L 330.490613 221.512232 
L 330.89133 221.388011 
L 331.276782 221.186892 
L 331.469508 220.985772 
L 331.560799 220.843806 
L 331.667306 220.755076 
L 331.946251 220.619025 
L 332.08831 220.595364 
L 332.357112 220.654517 
L 332.504193 220.808314 
L 332.630986 221.015349 
L 332.805859 221.485258 
L 332.465597 221.701403 
L 332.147092 222.018107 
L 331.258524 222.074124 
L 330.86232 222.200179 
L 330.586164 222.480267 
L 330.392272 222.691443 
L 329.633084 223.266053 
L 329.229424 223.310832 
L 329.076968 223.161885 
L 328.087219 222.924505 
L 327.816505 223.164337 
L 327.623138 223.335645 
L 326.898049 223.978016 
L 326.086724 225.174736 
L 325.468175 225.631041 
L 325.191715 225.64648 
L 325.012683 225.771884 
L 324.8089 226.762693 
L 324.731252 227.680626 
L 323.981447 228.007563 
L 323.248784 228.090555 
L 322.512825 228.47073 
L 322.332981 228.771226 
L 322.305289 229.237941 
L 323.078475 230.514518 
L 323.07457 230.626198 
L 322.655036 230.849086 
L 322.215114 230.872747 
L 321.546558 230.248981 
L 320.69902 229.686497 
L 319.719263 229.493422 
L 317.892069 229.61433 
L 316.808138 230.748999 
L 315.914244 231.914723 
L 315.987452 232.350742 
L 316.062314 232.796611 
L 316.180308 233.499367 
L 316.591625 234.801024 
L 316.880816 235.382437 
L 317.175194 235.621112 
L 317.361464 235.772136 
L 317.919 236.072809 
L 318.607082 236.16491 
L 320.078088 235.879321 
L 321.445783 235.38155 
L 322.48848 234.61558 
L 322.93814 234.916136 
L 323.250407 235.350909 
L 322.063571 235.947524 
L 321.738168 235.969351 
L 321.558324 236.42323 
L 321.750746 237.609303 
L 323.339264 239.317813 
L 324.310704 239.942762 
L 325.347823 240.012977 
L 325.905054 240.286617 
L 327.048832 240.218237 
L 328.309513 239.739395 
L 329.071795 239.192291 
L 329.42352 238.268975 
L 329.365093 237.072018 
L 329.834077 236.217142 
L 329.834077 235.396338 
L 330.244989 234.575652 
L 330.273999 233.139245 
L 329.922274 232.489511 
L 330.420673 232.18168 
L 331.447243 231.839599 
L 333.968149 230.163919 
L 334.349696 229.753694 
L 334.320634 229.172341 
L 334.085407 228.693617 
L 334.379112 227.907003 
L 334.965303 227.496661 
L 336.130787 228.424058 
L 336.857465 228.571408 
L 337.647185 229.087161 
L 338.183876 229.234629 
L 340.521439 228.939929 
L 340.71102 229.381978 
L 340.521439 230.008111 
L 340.079133 230.376632 
L 339.447245 230.413485 
L 338.310416 230.966031 
L 337.963357 231.26073 
L 337.457604 231.702779 
L 337.425855 232.697551 
L 337.457604 233.434181 
L 338.847513 234.207899 
L 339.447245 234.171047 
L 340.173923 234.318397 
L 340.205672 236.933897 
L 340.742363 237.412857 
L 342.574528 237.15501 
L 343.408371 236.719763 
L 345.025798 233.755499 
L 345.545499 232.542867 
L 346.700891 232.037643 
L 347.047189 232.340801 
L 346.729546 233.620808 
L 348.347328 233.789216 
L 348.05829 234.429308 
L 347.682576 236.585132 
L 346.989523 236.315632 
L 346.065504 236.34923 
L 345.19915 236.61879 
L 343.263675 238.202073 
L 343.061668 238.84187 
L 343.610784 239.178863 
L 344.737166 239.24612 
L 345.603114 238.875587 
L 347.162875 238.707179 
L 347.422903 238.875587 
L 347.422903 239.448304 
L 346.498884 240.189429 
L 345.718851 240.45887 
L 344.448128 240.627337 
L 343.293091 240.997871 
L 340.982256 241.301029 
L 339.942551 241.70516 
L 339.971561 242.210503 
L 340.491211 242.513661 
L 341.877671 242.816819 
L 342.022368 244.096826 
L 342.570673 244.568392 
L 343.263675 244.669484 
L 344.534398 243.827267 
L 345.343492 243.557826 
L 345.343492 244.029451 
L 344.996788 244.265234 
L 344.967778 245.781202 
L 345.747861 246.320024 
L 345.661185 246.589584 
L 343.928427 246.555807 
L 343.379361 246.320024 
L 342.917377 245.646333 
L 342.28199 245.242083 
L 341.444292 245.107392 
L 340.7803 245.477925 
L 339.82722 244.669484 
L 339.39384 244.905326 
L 339.162873 245.747425 
L 338.383145 246.825248 
L 337.689788 247.465341 
L 337.586172 249.177459 
L 339.318677 250.176313 
L 339.739428 251.106727 
L 338.919734 250.999247 
L 337.892505 250.062858 
L 337.767893 251.18753 
L 337.40572 252.504271 
L 335.795241 252.777971 
L 335.51021 251.510918 
L 335.69193 249.981168 
L 334.709941 248.389899 
L 332.786435 248.351686 
L 333.056454 250.383644 
L 332.33642 251.685656 
L 333.504187 252.43873 
L 334.661556 254.039877 
L 334.790784 254.397634 
L 334.722735 254.596051 
L 334.711462 254.628921 
L 333.808339 253.974632 
L 332.881225 253.506201 
L 332.788696 253.425244 
L 332.263285 252.965544 
L 329.822057 252.71314 
L 328.427786 253.557486 
L 326.885928 253.001391 
L 325.645331 253.286271 
L 328.86994 255.22944 
L 328.845798 256.892047 
L 327.061765 256.036284 
L 326.486275 255.068426 
L 325.186491 254.263002 
L 324.691997 254.371192 
L 324.506625 254.947873 
L 324.691997 255.668827 
L 325.371812 256.533877 
L 326.422879 256.610835 
L 326.856816 257.283343 
L 325.747831 257.943666 
L 324.691997 258.011514 
L 324.691997 258.732586 
L 324.864132 259.713695 
L 326.076276 259.842529 
L 326.938167 261.543113 
L 328.547834 262.319257 
L 330.518355 262.106011 
L 330.391815 263.21968 
L 331.45759 263.915968 
L 332.606794 264.4332 
L 332.418075 265.624241 
L 332.428573 266.149991 
L 333.117061 267.655371 
L 333.614953 268.487177 
L 333.793123 268.494749 
L 334.692342 268.062578 
L 334.842161 267.818573 
L 334.945421 267.300927 
L 335.208036 267.004039 
L 335.562956 267.581962 
L 336.214116 268.074291 
L 337.985318 268.223356 
L 340.134668 268.154916 
L 340.484212 268.42761 
L 341.375874 268.759221 
L 342.147995 268.768508 
L 342.33641 268.95685 
L 341.7772 269.739323 
L 342.23533 270.304528 
L 343.181716 269.876558 
L 343.579187 268.376561 
L 345.584653 270.555928 
L 345.951999 270.901557 
L 346.329741 271.403173 
L 346.548181 272.235453 
L 347.191023 272.987935 
L 348.036887 272.768419 
L 348.074824 272.5156 
L 348.262985 272.140217 
L 349.025318 271.29658 
L 349.244112 270.956806 
L 349.233462 270.764323 
L 349.803778 270.918771 
L 350.301163 271.241331 
L 350.412538 271.501485 
L 350.368414 271.988904 
L 351.038188 273.404489 
L 351.414612 273.779991 
L 352.292935 274.111602 
L 352.594094 274.806351 
L 352.460099 275.048937 
L 352.829879 275.617218 
L 353.569541 276.370292 
L 353.49098 278.344161 
L 353.690096 279.364074 
L 354.774991 280.026822 
L 356.040744 279.646351 
L 356.510031 278.876418 
L 358.089978 278.603191 
L 359.211085 280.689629 
L 358.683067 281.456722 
L 357.758692 280.639112 
L 356.811952 281.245546 
L 354.871455 281.4876 
L 353.810651 282.297875 
L 354.485699 283.120631 
L 357.40291 283.317077 
L 356.028673 285.964105 
L 355.052263 284.723375 
L 354.401306 284.367157 
L 354.0156 284.735679 
L 353.786561 286.52931 
L 353.497218 286.947047 
L 352.773989 287.143671 
L 351.954244 288.274317 
L 351.860975 289.575028 
L 352.421351 290.213405 
L 352.161526 291.825614 
L 348.316796 289.998266 
L 348.375578 288.03676 
L 347.947371 287.224651 
L 346.640385 286.410236 
L 346.253564 287.878053 
L 344.543781 288.88578 
L 340.927431 293.416943 
L 339.071379 295.245296 
L 338.736889 295.329992 
L 338.112872 295.488 
L 339.474836 292.094759 
L 341.041951 290.612982 
L 341.973172 288.200554 
L 342.684381 288.016175 
L 343.684882 287.131367 
L 343.540237 286.16067 
L 344.058568 285.546427 
L 343.564327 284.379461 
L 344.384021 283.851345 
L 344.408163 283.421482 
L 345.276088 283.188183 
L 345.131443 281.874341 
L 345.091782 280.597705 
L 344.444324 279.566554 
L 343.250945 279.407019 
L 342.744634 280.057522 
L 342.889279 280.855375 
L 342.575846 282.537325 
L 341.62657 283.664008 
L 339.601426 284.020226 
L 338.6451 283.767111 
L 338.221762 283.126191 
L 337.651344 282.781922 
L 337.450148 282.514965 
L 336.712718 280.766823 
L 336.288873 280.032441 
L 335.453001 279.05293 
L 334.918744 278.609107 
L 332.192382 277.357493 
L 328.639582 276.422228 
L 328.556507 275.701806 
L 327.760904 275.407462 
L 326.965301 274.144372 
L 325.336361 274.233279 
L 324.044235 273.780701 
L 322.578301 273.346106 
L 319.738789 272.925766 
L 318.401677 272.765284 
L 316.670795 272.470822 
L 314.600412 273.164092 
L 313.540032 273.884383 
L 311.518927 275.257273 
L 311.360874 275.565194 
L 311.187489 275.902985 
L 310.898197 276.320426 
L 307.572712 278.549244 
L 305.722391 280.464493 
L 304.669296 281.275892 
L 304.140927 281.63994 
L 302.464258 282.795172 
L 300.038599 284.515158 
L 297.350225 286.297668 
L 296.924351 286.140617 
L 296.217351 285.805043 
L 296.008396 284.937627 
L 296.855883 284.784539 
L 296.801565 283.709792 
L 296.080161 283.14512 
L 294.602055 282.881772 
L 294.222334 280.800717 
L 295.325284 280.647275 
L 295.542304 279.5242 
L 294.852649 279.556793 
L 293.257944 275.585926 
L 292.353856 275.181202 
L 291.226765 274.21855 
L 290.97967 273.317357 
L 290.605188 273.567477 
L 289.575306 274.255343 
L 289.624111 274.572576 
L 289.792275 275.665664 
L 289.361171 276.174079 
L 288.237281 277.499519 
L 288.415117 275.867448 
L 288.544679 274.678404 
L 288.70738 273.642284 
L 288.273443 272.863715 
L 287.405517 272.152757 
L 286.76663 270.81064 
L 286.001154 270.767754 
L 285.452696 271.466348 
L 285.784185 272.312115 
L 284.880097 273.691321 
L 284.391892 274.046889 
L 283.514583 273.848549 
L 282.65604 273.46447 
L 281.949091 273.344627 
L 280.576629 274.457646 
L 279.973904 273.35415 
L 279.292821 272.894415 
L 278.382749 273.390943 
L 278.256158 274.261495 
L 278.870954 275.279337 
L 278.780525 276.346394 
L 280.196908 277.432084 
L 279.533931 277.877801 
L 277.991617 277.235638 
L 277.628582 277.571803 
L 277.94876 278.057803 
L 277.659469 278.622239 
L 276.610735 278.646787 
L 276.068263 279.929219 
L 275.887455 281.353145 
L 274.410769 281.033957 
L 273.946655 281.537288 
L 274.133497 282.102079 
L 273.476556 283.931793 
L 272.60863 284.447605 
L 272.01194 283.287027 
L 271.511002 283.349595 
L 271.373054 283.366825 
L 270.914975 284.373901 
L 269.805938 284.61347 
L 269.510611 285.227653 
L 268.727079 284.963536 
L 268.196677 285.651483 
L 267.815181 287.517103 
L 267.694842 287.990576 
L 267.479584 288.837511 
L 266.057622 288.593151 
L 264.674763 288.013749 
L 265.10745 287.450176 
L 265.502724 286.935335 
L 265.074568 285.712883 
L 264.181283 285.125496 
L 263.787311 284.408269 
L 263.134883 283.560846 
L 261.735997 282.272853 
L 260.920462 281.725276 
L 260.605305 281.031354 
L 259.936495 280.634261 
L 258.913019 281.202483 
L 257.967749 281.304818 
L 256.757684 280.99113 
L 256.360516 280.553163 
L 254.99906 280.580018 
L 253.204426 280.226462 
L 252.152295 279.031162 
L 251.422929 278.561193 
L 247.847052 278.240348 
L 246.863896 277.958544 
L 243.833027 276.67345 
L 242.621644 275.597934 
L 240.988139 273.656717 
L 241.096421 273.240222 
L 242.285032 273.247202 
L 243.172231 272.912456 
L 243.941816 271.820023 
L 244.060444 270.929596 
L 244.509597 269.977354 
L 245.953266 269.364176 
L 245.889869 270.590059 
L 246.703528 272.04853 
L 248.041603 273.256075 
L 249.265109 272.097568 
L 249.753314 272.508206 
L 249.379628 273.35415 
L 249.451951 274.279832 
L 249.228947 275.561377 
L 250.13907 276.24826 
L 251.055228 276.530418 
L 251.802599 276.456773 
L 251.917119 275.567529 
L 251.476537 275.150739 
L 251.272197 274.427004 
L 251.874922 273.556453 
L 251.700099 272.404038 
L 251.223965 271.153785 
L 250.337983 270.927052 
L 250.38018 270.418516 
L 248.192285 269.376953 
L 247.824736 268.287122 
L 246.92501 267.879737 
L 246.805368 267.391727 
L 247.08934 266.73458 
L 247.220591 266.430849 
L 246.944232 265.743612 
L 245.959809 265.429392 
L 245.888126 265.428805 
L 244.927305 265.420933 
L 243.969863 267.116725 
L 243.395184 267.484951 
L 242.662471 266.892773 
L 242.25445 267.63727 
L 241.030437 268.170296 
L 241.254963 266.094624 
L 239.513177 266.446643 
L 239.498317 265.573192 
L 240.34763 265.040344 
L 240.064526 264.431484 
L 241.080394 263.941049 
L 241.721563 263.036366 
L 240.705694 262.436143 
L 239.835435 260.985243 
L 238.732435 261.021918 
L 237.974413 261.924353 
L 236.808675 262.634423 
L 235.917723 262.795023 
L 234.593798 263.530588 
L 233.344782 261.805988 
L 233.303143 260.470673 
L 232.809916 259.45082 
L 231.737853 259.994493 
L 231.040642 259.88784 
L 231.017819 259.661226 
L 231.303408 259.035863 
L 231.319486 258.683431 
L 231.132136 258.287462 
L 230.714834 257.856238 
L 230.485135 256.172454 
L 229.89869 253.900218 
L 229.524852 253.629061 
L 229.033858 253.572156 
L 228.463085 253.640005 
L 227.533132 253.995454 
L 226.268494 254.288911 
L 225.319167 254.026864 
L 225.060052 253.848814 
L 225.074456 253.666742 
L 225.184969 253.506201 
L 225.351322 253.456099 
L 225.648221 253.045401 
L 226.158336 252.163137 
L 226.268494 251.598405 
L 226.181666 250.825042 
L 226.333666 249.968095 
L 226.605004 249.283343 
L 226.624733 248.699031 
L 226.451178 247.827415 
L 225.87721 247.40465 
L 224.137656 247.21264 
L 221.915881 247.616594 
L 220.581102 247.002766 
L 219.820037 247.068189 
L 218.226752 247.516271 
L 215.851912 248.804087 
L 214.660663 249.472513 
L 213.290686 249.134159 
L 214.398404 248.280584 
L 214.429077 247.789614 
L 214.458656 247.316157 
L 213.702815 247.091022 
L 213.379797 246.577694 
L 214.293723 245.593214 
L 214.778125 244.490902 
L 215.212062 245.235221 
L 215.937929 245.313421 
L 216.141762 244.640973 
L 216.134864 243.502755 
L 215.836241 242.276458 
L 214.380349 242.465865 
L 212.878912 241.876999 
L 212.274108 242.029377 
L 211.553566 242.862248 
L 210.424751 243.016164 
L 208.726784 241.977973 
L 208.669692 242.02847 
L 208.129892 242.505912 
L 208.168843 243.299032 
L 208.359489 244.011291 
L 206.978862 244.545796 
L 204.064592 245.831955 
L 201.379565 247.584711 
L 200.987774 246.760772 
L 200.330984 245.940027 
L 199.659284 246.193674 
L 198.382779 246.405027 
L 198.577229 247.569923 
L 197.118345 246.775087 
L 196.697543 247.309532 
L 197.107948 248.402321 
L 198.679374 249.910717 
L 199.716036 250.209971 
L 201.276964 250.011868 
L 202.022306 250.329519 
L 200.324797 251.846729 
L 200.843128 253.28846 
L 201.765322 255.029977 
L 202.616916 254.666956 
L 204.26944 254.516353 
L 205.502176 253.972739 
L 206.400278 254.901615 
L 204.778946 254.981057 
L 203.941146 255.610561 
L 204.803037 256.282951 
L 205.131939 256.621069 
L 203.983343 256.686373 
L 201.883138 256.646741 
L 199.210283 256.925883 
L 196.473271 258.05789 
L 194.481601 259.425798 
L 193.034533 259.775983 
L 190.849985 259.890561 
L 188.758503 259.419587 
L 186.46826 258.9453 
L 183.236297 258.140585 
L 180.025027 257.389463 
L 178.445891 257.175448 
L 176.059133 256.692525 
L 175.945307 256.65748 
L 174.033939 256.068996 
L 169.658198 254.528834 
L 167.367854 253.404517 
L 162.624412 251.089336 
L 159.200941 249.403955 
L 156.886455 248.512582 
L 154.957725 247.773941 
L 152.065568 247.017258 
L 147.564505 245.753636 
L 145.028435 245.337674 
L 142.973266 245.302537 
L 141.547247 245.48248 
L 138.967458 246.217631 
L 137.23678 246.042361 
L 134.274379 245.844613 
L 132.434405 245.827282 
L 129.228561 246.178827 
L 126.574827 246.631346 
L 124.316992 246.799517 
L 121.865518 247.133908 
L 118.908291 247.773349 
L 117.686003 248.178132 
L 116.002086 249.020468 
L 115.000672 249.682032 
L 114.03826 250.478051 
L 112.758509 248.499982 
L 112.412819 247.82428 
L 112.213957 247.688938 
L 111.459282 247.42488 
L 111.316462 247.28386 
L 111.20529 246.786089 
L 111.357848 246.275009 
L 111.203616 245.942807 
L 110.969911 245.68916 
L 109.75589 244.892313 
L 109.548101 244.625415 
L 109.431248 244.180586 
L 109.410961 243.833241 
L 109.472633 243.437627 
L 109.738798 242.895315 
L 110.062577 242.530933 
L 110.855391 241.821159 
L 111.36505 241.454885 
L 112.289779 240.952619 
L 112.739946 240.625681 
L 113.167493 240.216226 
L 113.207933 240.163461 
L 114.01782 239.106756 
L 114.423559 238.426262 
L 115.00052 237.215819 
L 115.124676 236.866581 
L 115.267445 236.01478 
L 115.567692 234.865856 
L 116.50008 232.898257 
L 116.62667 232.734522 
L 118.952415 230.901318 
L 119.020579 230.758404 
L 119.049793 230.247324 
L 119.136621 229.971909 
L 119.879863 229.150942 
L 119.980608 229.039661 
L 120.835956 228.965838 
L 120.994194 228.848538 
L 121.066416 228.6725 
L 121.006366 228.411281 
L 120.925219 228.304333 
L 120.203764 228.088543 
L 119.432861 227.369245 
L 119.307082 227.082473 
L 119.38823 226.917791 
L 119.830485 226.60925 
L 120.912235 225.509541 
L 120.972284 224.051129 
L 121.123219 223.978253 
L 121.290384 224.180733 
L 121.397499 224.17884 
L 121.633639 223.814518 
L 121.149998 223.130238 
L 120.959785 222.356123 
L 120.844882 221.888503 
L 120.504873 221.490109 
L 120.153453 220.734846 
L 119.973457 219.763971 
L 120.060995 219.249934 
L 120.358249 218.852486 
L 120.777986 217.817845 
L 120.755858 217.733092 
L 120.667017 217.392832 
L 120.572632 216.097977 
L 120.671125 215.87994 
L 120.700642 215.544307 
L 120.597331 215.122548 
L 120.471907 214.941836 
L 120.309561 214.769701 
L 120.08818 214.726638 
L 119.807408 214.719303 
L 119.073072 214.20704 
L 117.976106 212.661378 
L 117.776432 212.643691 
L 117.697465 212.460613 
L 118.177759 211.10909 
L 118.200987 210.248831 
L 118.066079 209.280618 
L 118.111725 209.082693 
L 118.427034 208.735762 
L 118.736613 208.692344 
L 118.994686 208.382351 
L 119.904076 207.290009 
L 120.900621 206.744738 
L 121.147361 206.115589 
L 121.145941 205.923047 
L 120.73934 205.100232 
L 120.189919 202.95547 
L 120.522675 202.22233 
L 120.309409 201.502914 
L 119.629847 201.082397 
L 119.372609 200.82869 
L 118.994257 200.260291 
L 119.55509 199.948379 
L 119.724891 199.2305 
L 119.628579 198.668017 
L 119.623609 198.219461 
L 120.404149 197.367128 
L 121.397448 197.017949 
L 121.56659 197.113954 
L 121.680806 197.182453 
L 121.830574 197.124188 
L 121.987494 196.916207 
L 122.058853 196.699944 
L 122.008896 196.508585 
L 121.877843 196.209982 
L 121.790406 195.19492 
L 121.892906 194.274384 
L 122.539349 193.252756 
L 123.319534 192.53405 
L 124.169455 192.364045 
L 124.590866 191.956955 
L 125.037736 191.056709 
L 125.053915 190.526522 
L 125.286708 189.943394 
L 125.539889 189.702465 
L 125.623471 189.401614 
L 125.614595 189.044154 
L 125.210429 188.49421 
L 125.137345 188.285815 
L 125.714103 187.359778 
L 126.471262 186.9854 
L 126.619965 186.170629 
L 126.646085 185.642927 
L 126.905555 185.052464 
L 127.203265 184.733986 
L 127.664388 184.679447 
L 127.971735 184.487259 
L 128.051716 184.397288 
L 128.437624 183.379742 
L 128.459483 182.776442 
L 128.228922 182.490498 
L 128.206815 180.784069 
L 128.206353 180.748448 
L 127.860917 180.459428 
L 127.758316 180.210158 
L 127.741224 179.631762 
L 127.920764 179.232895 
L 128.314077 178.853962 
L 128.356831 178.275625 
L 128.544891 177.83683 
L 128.681727 177.697229 
L 128.80142 177.667357 
L 128.89545 177.707226 
L 129.024322 177.752951 
L 129.61026 177.488538 
L 129.853145 177.163138 
L 129.848175 176.608522 
L 129.528453 175.940983 
L 128.651449 174.969576 
L 128.109179 174.723027 
L 127.731892 174.326999 
L 127.53237 173.75718 
L 127.641007 173.21883 
L 127.731487 172.933773 
L 127.831045 172.754363 
L 128.003027 172.669893 
L 128.360331 172.792694 
L 129.174598 172.521833 
L 130.319948 171.62484 
L 130.347132 171.276549 
L 130.319948 171.097079 
L 130.000175 170.786054 
L 129.595907 169.967616 
L 129.552797 169.755494 
L 129.695465 169.619265 
L 129.894581 169.439795 
L 130.012246 169.165326 
L 129.858369 168.838093 
L 129.604985 168.605859 
L 129.144015 168.410419 
L 128.813592 168.115483 
L 128.590943 167.635044 
L 128.55752 167.271432 
L 128.657737 166.804006 
L 129.080822 166.310554 
L 129.169881 165.817101 
L 129.136459 165.401612 
L 128.912085 164.9863 
L 128.902652 164.557561 
L 128.902652 164.219976 
L 128.947181 163.97325 
L 129.137726 163.762429 
L 129.311332 163.641698 
L 129.56928 162.328684 
L 129.490009 162.113013 
L 129.399225 162.044928 
L 128.697601 161.986544 
L 128.514565 162.045455 
L 128.509034 162.047235 
L 128.088385 162.230194 
L 127.651201 162.520516 
L 127.161677 163.121035 
L 126.690614 163.229936 
L 126.166958 162.691764 
L 126.091896 162.604277 
L 125.983615 162.226704 
L 125.737889 160.874353 
L 125.888469 160.289746 
L 125.888469 159.963933 
L 125.840744 159.765238 
L 125.731752 159.582456 
L 125.609067 159.439425 
L 125.295685 159.185127 
L 125.280419 158.556037 
L 125.382868 158.139838 
L 125.400416 157.681759 
L 125.075774 156.992629 
L 123.951218 157.082364 
L 123.216426 156.359043 
L 122.611672 155.398461 
L 122.281401 155.217158 
L 121.845282 155.173917 
L 121.701194 154.973094 
L 121.651948 154.696909 
L 122.188233 153.475522 
L 122.636473 152.142869 
L 122.769048 152.014389 
L 122.82788 151.865679 
L 122.876924 151.728386 
L 122.867084 151.613984 
L 122.808252 151.499642 
L 122.612078 151.350932 
L 122.572873 151.030619 
L 122.651333 150.836125 
L 122.631705 150.584489 
L 122.548072 150.1215 
L 122.473924 149.756646 
L 122.3485 149.500573 
L 121.245448 148.807835 
L 120.954077 148.811266 
L 120.788333 148.719757 
L 120.798527 148.24541 
L 121.157352 147.682926 
L 120.988615 147.128369 
L 120.558228 146.820124 
L 118.526491 145.300193 
L 118.506508 144.910613 
L 118.506508 144.694528 
L 118.609414 144.574507 
L 118.722666 144.514466 
L 118.911486 144.42207 
L 119.15072 144.357771 
L 119.463646 143.914302 
L 119.576847 143.638236 
L 119.720935 143.206066 
L 119.679804 142.761947 
L 119.340149 142.665942 
L 119.041678 142.55787 
L 118.990251 142.437849 
L 118.950742 142.259089 
L 118.928477 142.113751 
L 118.835867 141.957705 
L 118.660892 141.909673 
L 118.506508 141.897665 
L 118.403603 141.933689 
L 118.304146 141.94972 
L 117.989597 142.032415 
L 116.936046 141.946585 
L 116.588531 141.830645 
L 116.06107 141.434322 
L 115.021618 140.205008 
L 114.910953 140.004185 
L 114.799679 139.41804 
L 114.192795 138.348498 
L 113.966647 137.587557 
L 114.033898 137.130897 
L 114.551468 136.553802 
L 114.747998 136.691214 
L 115.014771 136.671812 
L 115.108858 136.207352 
L 115.110069 136.20137 
L 115.049259 134.699895 
L 114.66259 133.923219 
L 114.621965 133.574395 
L 114.84568 133.157486 
L 115.080298 133.265203 
L 115.736885 132.465576 
L 115.839689 132.020628 
L 115.827415 131.748703 
L 115.790645 131.576983 
L 115.595333 131.367227 
L 115.441456 131.293345 
L 115.224234 131.177228 
L 115.160888 130.913347 
L 115.169966 130.491115 
L 114.997984 129.91053 
L 114.717466 129.582883 
L 114.409713 128.907713 
L 114.436847 128.390481 
L 114.577283 128.10566 
L 114.817937 127.266341 
L 114.775081 127.175305 
L 114.571806 127.018964 
L 114.381819 126.871911 
L 114.206743 126.689602 
L 114.094201 126.368698 
L 114.094201 126.047794 
L 113.937839 125.785274 
L 113.621515 125.582735 
L 113.256249 125.378894 
L 112.367326 124.706327 
L 112.172368 124.420974 
L 112.169275 123.300029 
L 111.942443 123.100934 
L 111.697857 122.886255 
L 111.493365 122.335661 
L 111.440213 121.698053 
L 111.045429 121.361533 
L 110.796559 120.966333 
L 110.832822 120.617627 
L 110.650594 120.343099 
L 110.407608 120.192555 
L 110.083422 120.209295 
L 109.898862 120.334285 
L 109.678698 120.387404 
L 109.488863 120.28998 
L 109.245876 120.050884 
L 109.1168 119.56382 
L 108.964953 119.377844 
L 108.684029 119.280419 
L 108.176602 119.162173 
L 107.255271 118.581233 
L 106.963697 118.224246 
L 105.171586 114.956093 
L 104.87399 114.413387 
L 104.335423 114.116321 
L 103.872424 114.319097 
L 103.69892 114.321168 
L 103.653934 113.915202 
L 103.654948 110.558459 
L 103.673358 106.778477 
L 103.652311 106.467984 
L 103.655912 105.711243 
L 103.660476 104.519846 
L 103.663113 104.003502 
L 103.661744 103.999479 
L 103.658979 102.277485 
L 103.656875 100.96778 
L 103.653325 97.92295 
L 103.653274 97.918454 
L 103.65297 92.366196 
L 103.651753 91.788096 
L 103.644754 90.667091 
L 103.643638 90.21546 
L 103.644855 90.171627 
L 103.640443 88.110271 
L 103.644399 87.850945 
L 103.644652 86.047081 
L 103.646072 85.990176 
L 103.644703 85.898016 
L 103.639986 85.596455 
L 103.642015 85.462947 
L 103.636081 85.224029 
L 103.635219 85.090285 
L 103.644247 84.718154 
L 103.645565 83.990989 
L 103.635625 83.490083 
L 103.635432 83.321379 
L 103.632531 80.775621 
L 103.635523 80.494113 
L 103.643841 77.780124 
L 103.643334 77.299921 
L 103.643486 77.077803 
L 103.648659 75.995898 
L 103.650891 75.808916 
L 103.644145 75.119136 
L 103.632278 72.877067 
L 103.632277 72.877008 
" clip-path="url(#p58fd40b844)" style="fill: #ff5733"/>
   </g>
   <g id="text_1">
    <!-- LA -->
    <g transform="translate(228.5775 35.472) scale(0.12 -0.12)">
     <defs>
      <path id="DejaVuSans-4c" d="M 628 4666 
L 1259 4666 
L 1259 531 
L 3531 531 
L 3531 0 
L 628 0 
L 628 4666 
z
" transform="scale(0.015625)"/>
      <path id="DejaVuSans-41" d="M 2188 4044 
L 1331 1722 
L 3047 1722 
L 2188 4044 
z
M 1831 4666 
L 2547 4666 
L 4325 0 
L 3669 0 
L 3244 1197 
L 1141 1197 
L 716 0 
L 50 0 
L 1831 4666 
z
" transform="scale(0.015625)"/>
     </defs>
     <use xlink:href="#DejaVuSans-4c"/>
     <use xlink:href="#DejaVuSans-41" x="57.962891"/>
    </g>
   </g>
  </g>
 </g>
 <defs>
  <clipPath id="p58fd40b844">
   <rect x="90.379505" y="41.472" width="291.56099" height="266.112"/>
  </clipPath>
 </defs>
</svg>
