<?xml version="1.0" encoding="utf-8" standalone="no"?>
<!DOCTYPE svg PUBLIC "-//W3C//DTD SVG 1.1//EN"
  "http://www.w3.org/Graphics/SVG/1.1/DTD/svg11.dtd">
<svg xmlns:xlink="http://www.w3.org/1999/xlink" width="360pt" height="360pt" viewBox="0 0 360 360" xmlns="http://www.w3.org/2000/svg" version="1.1">
 <metadata>
  <rdf:RDF xmlns:dc="http://purl.org/dc/elements/1.1/" xmlns:cc="http://creativecommons.org/ns#" xmlns:rdf="http://www.w3.org/1999/02/22-rdf-syntax-ns#">
   <cc:Work>
    <dc:type rdf:resource="http://purl.org/dc/dcmitype/StillImage"/>
    <dc:date>2023-06-19T15:20:28.072062</dc:date>
    <dc:format>image/svg+xml</dc:format>
    <dc:creator>
     <cc:Agent>
      <dc:title>Matplotlib v3.7.1, https://matplotlib.org/</dc:title>
     </cc:Agent>
    </dc:creator>
   </cc:Work>
  </rdf:RDF>
 </metadata>
 <defs>
  <style type="text/css">*{stroke-linejoin: round; stroke-linecap: butt}</style>
 </defs>
 <g id="figure_1">
  <g id="patch_1">
   <path d="M 0 360 
L 360 360 
L 360 0 
L 0 0 
z
" style="fill: #ffffff"/>
  </g>
  <g id="axes_1">
   <g id="PatchCollection_1">
    <path d="M 308.190903 226.516784 
L 308.723691 226.710428 
L 309.446483 227.42861 
L 310.143311 228.478122 
L 310.507303 229.156022 
L 310.971612 230.532399 
L 311.318182 232.289804 
L 311.263389 234.480603 
L 310.856105 236.519786 
L 310.556564 237.637486 
L 310.004848 239.01333 
L 309.088945 240.889639 
L 308.499714 240.755399 
L 308.565573 239.997906 
L 308.845167 239.226047 
L 309.170625 238.522522 
L 309.543742 237.769737 
L 309.869782 237.027241 
L 310.043722 235.708423 
L 310.358843 234.623773 
L 310.440377 232.857244 
L 310.329966 231.774002 
L 310.265127 230.92721 
L 309.747529 229.361459 
L 309.502975 228.514375 
L 308.850846 227.843853 
L 308.361785 227.102861 
L 308.190903 226.516784 
" clip-path="url(#pe77b6dd494)" style="fill: #88ff00"/>
    <path d="M 285.831613 226.227046 
L 287.080447 225.739733 
L 287.731024 224.654695 
L 291.121396 222.549022 
L 293.193388 221.248209 
L 293.543743 221.850787 
L 292.101847 223.496859 
L 291.416619 224.482114 
L 291.721644 225.631408 
L 293.420325 225.995935 
L 294.022029 226.994439 
L 293.509625 227.508494 
L 292.586782 227.418612 
L 292.132422 228.148684 
L 292.654242 229.029449 
L 291.970373 229.413146 
L 291.299413 229.077788 
L 291.410212 228.067781 
L 290.82433 227.11844 
L 289.829902 226.699702 
L 289.033972 227.558434 
L 288.787282 227.502379 
L 287.465163 227.16901 
L 286.484713 227.238897 
L 286.082622 227.157896 
L 285.831613 226.227046 
" clip-path="url(#pe77b6dd494)" style="fill: #88ff00"/>
    <path d="M 280.981775 222.092235 
L 281.835556 221.65127 
L 282.165916 222.125577 
L 281.615705 222.859532 
L 281.13174 222.909617 
L 280.451365 222.349505 
L 280.981775 222.092235 
" clip-path="url(#pe77b6dd494)" style="fill: #88ff00"/>
    <path d="M 272.019015 251.656395 
L 272.791893 251.591168 
L 273.853101 251.054254 
L 274.522168 250.943892 
L 275.035495 251.239939 
L 274.366428 251.796945 
L 273.783894 252.449317 
L 273.334048 252.996422 
L 272.45736 252.369044 
L 272.019015 251.656395 
" clip-path="url(#pe77b6dd494)" style="fill: #88ff00"/>
    <path d="M 235.648679 272.357237 
L 236.444755 271.553833 
L 236.84835 271.268948 
L 237.258012 271.395375 
L 239.155481 273.972782 
L 238.492092 274.363225 
L 237.650056 274.534641 
L 236.35167 272.62863 
L 235.648679 272.357237 
" clip-path="url(#pe77b6dd494)" style="fill: #88ff00"/>
    <path d="M 226.81288 273.065519 
L 228.485499 273.216745 
L 230.734827 273.972782 
L 232.63812 274.124009 
L 233.560963 274.476888 
L 232.418317 274.910767 
L 230.215774 274.77939 
L 227.851035 274.023207 
L 226.81288 273.065519 
" clip-path="url(#pe77b6dd494)" style="fill: #88ff00"/>
    <path d="M 217.469383 274.930617 
L 218.6229 274.577738 
L 220.00714 274.224859 
L 221.795072 274.124009 
L 222.256517 274.829815 
L 220.756916 275.182742 
L 217.584745 275.686945 
L 216.777312 275.434819 
L 217.469383 274.930617 
" clip-path="url(#pe77b6dd494)" style="fill: #88ff00"/>
    <path d="M 155.975355 248.950377 
L 156.390956 248.547731 
L 156.58099 248.363621 
L 157.682577 247.822097 
L 158.738787 248.078008 
L 159.757189 248.012295 
L 160.341422 246.934634 
L 161.667957 246.839414 
L 162.360076 247.130171 
L 163.323249 247.069991 
L 164.205713 247.19535 
L 165.045177 247.947893 
L 166.225193 248.502181 
L 166.414663 249.060739 
L 167.291351 248.799927 
L 167.683541 249.296461 
L 168.237247 249.722818 
L 169.152082 249.757227 
L 169.782954 249.441913 
L 169.869487 250.329812 
L 170.862459 250.000326 
L 170.757677 250.670946 
L 169.684918 251.418538 
L 168.225696 252.161277 
L 167.798903 253.124935 
L 168.087282 253.832731 
L 167.21666 254.184785 
L 166.374333 253.953237 
L 165.838147 254.235598 
L 165.499731 254.630457 
L 164.292052 254.369208 
L 163.767369 253.360851 
L 163.127179 253.180165 
L 162.470924 253.282374 
L 161.652184 252.688047 
L 160.950212 252.466497 
L 159.303266 251.604223 
L 158.607264 251.620869 
L 158.201679 251.257993 
L 156.10581 250.388584 
L 155.375543 249.838179 
L 155.975355 248.950377 
" clip-path="url(#pe77b6dd494)" style="fill: #88ff00"/>
    <path d="M 57.681818 98.399682 
L 57.691525 94.761698 
L 57.687642 94.331119 
L 57.691961 94.151792 
L 57.697251 93.922767 
L 57.701231 93.840456 
L 57.687691 93.330721 
L 57.699387 89.738842 
L 57.687739 89.303992 
L 57.694485 89.278804 
L 57.694499 89.272807 
L 57.695795 88.705831 
L 57.694534 88.407842 
L 57.684487 87.868648 
L 57.685701 86.515469 
L 57.684682 85.65698 
L 57.6907 82.569013 
L 57.764469 82.570517 
L 58.036493 82.572604 
L 58.417763 82.572895 
L 58.588014 82.569595 
L 68.776022 82.561587 
L 69.243708 82.561152 
L 73.206055 82.557462 
L 82.513297 82.596967 
L 82.832786 82.597258 
L 83.02313 82.598272 
L 83.024246 82.598278 
L 84.484002 82.606722 
L 84.502106 82.606709 
L 84.551316 82.606674 
L 85.63886 82.59854 
L 85.641547 82.59852 
L 90.004993 82.616817 
L 91.790062 82.611818 
L 93.340913 82.619486 
L 93.351444 82.620603 
L 96.728034 82.628562 
L 97.842046 82.6091 
L 98.727809 82.630552 
L 100.817176 82.635162 
L 102.497421 82.638846 
L 103.384925 82.640792 
L 103.407347 82.638559 
L 104.3563 82.631668 
L 104.757226 82.633124 
L 104.877635 82.638268 
L 108.856228 82.662248 
L 109.708981 82.667388 
L 110.902101 82.686073 
L 114.738243 82.722229 
L 115.38581 82.718832 
L 115.865358 82.721841 
L 115.875696 82.723588 
L 116.519963 82.741691 
L 118.182924 82.78173 
L 121.256768 82.805462 
L 121.654879 82.805268 
L 121.667069 82.805463 
L 121.724814 82.806384 
L 122.097009 82.802987 
L 122.320015 82.807404 
L 131.128984 82.898502 
L 132.391108 82.911554 
L 132.507246 82.911602 
L 134.041888 82.918882 
L 138.869497 82.981635 
L 139.22985 82.985954 
L 140.538865 82.999495 
L 142.63687 83.011434 
L 146.02632 83.061082 
L 153.486713 83.105586 
L 159.172132 83.141258 
L 159.26711 83.136793 
L 162.900872 83.126698 
L 168.727666 83.161544 
L 169.675843 83.134414 
L 174.912096 83.179148 
L 174.959123 83.17955 
L 175.398583 83.175764 
L 175.816641 83.183578 
L 177.233737 83.185422 
L 177.241648 83.187654 
L 177.596565 83.166494 
L 178.219332 83.169795 
L 181.100988 83.172512 
L 181.632029 83.201729 
L 183.028594 83.214951 
L 183.369827 83.218181 
L 184.223366 83.205757 
L 184.724025 83.209785 
L 187.12395 83.220559 
L 189.211084 83.23342 
L 189.368523 83.238662 
L 189.532125 83.240846 
L 189.598081 83.241428 
L 189.720916 83.242545 
L 190.23002 83.246379 
L 191.570387 83.258754 
L 192.510944 83.255017 
L 197.312977 83.302482 
L 197.307056 83.39314 
L 197.172233 83.883608 
L 196.961845 84.176938 
L 196.532334 84.538455 
L 196.298165 84.657117 
L 195.791002 85.209124 
L 195.6836 85.270226 
L 195.577023 85.384229 
L 195.567899 85.572534 
L 195.608666 85.686585 
L 195.694811 85.816069 
L 195.305339 86.200494 
L 195.146881 86.421219 
L 195.044235 86.604138 
L 194.985657 86.88349 
L 194.988326 87.035008 
L 195.04341 87.282232 
L 195.10359 87.402592 
L 195.265397 87.609825 
L 195.67734 87.941883 
L 195.822451 88.025747 
L 196.557911 88.284813 
L 196.860073 88.355088 
L 197.110985 88.384547 
L 197.608927 88.360863 
L 198.011018 88.261081 
L 198.332011 88.088354 
L 198.867565 87.497133 
L 198.961038 87.232826 
L 199.000398 87.048548 
L 199.001126 86.896642 
L 198.796417 86.114543 
L 198.682074 85.794618 
L 198.715853 85.611942 
L 198.742012 85.571709 
L 198.901829 85.488864 
L 199.003359 85.398012 
L 199.028692 85.333512 
L 199.017724 85.257899 
L 198.915661 85.1256 
L 198.698527 84.979566 
L 198.647034 84.892111 
L 198.795931 84.489049 
L 198.849462 84.446535 
L 199.301153 84.245805 
L 199.94906 84.066624 
L 200.200263 84.038621 
L 200.668649 84.161213 
L 200.797988 84.260268 
L 200.96193 84.415426 
L 201.160185 84.653623 
L 201.473073 85.30745 
L 201.543493 85.840141 
L 201.465696 85.922404 
L 201.398479 85.955794 
L 201.340628 86.029854 
L 201.397459 86.182295 
L 201.469384 86.258102 
L 201.874921 86.518915 
L 201.949078 86.606079 
L 202.227799 87.070631 
L 202.272886 87.253695 
L 202.225373 87.553236 
L 202.282156 88.046131 
L 202.276595 88.164237 
L 202.276089 88.174984 
L 202.245028 88.303352 
L 202.063663 88.746695 
L 201.946409 88.905396 
L 201.16596 89.646339 
L 200.246369 90.374131 
L 199.738721 90.507837 
L 199.319692 90.545692 
L 199.166282 90.536083 
L 198.680764 90.831354 
L 198.405634 91.036937 
L 198.335602 91.127644 
L 198.107403 91.693046 
L 197.987528 91.913722 
L 197.745788 92.052039 
L 197.688472 92.12576 
L 197.526713 92.60327 
L 197.539186 93.208031 
L 197.394317 93.896366 
L 197.676484 94.125681 
L 197.757291 94.162226 
L 197.723512 94.3714 
L 197.366605 95.053231 
L 197.325547 95.254252 
L 197.349133 95.571702 
L 197.443238 95.780003 
L 197.675174 95.952778 
L 197.876534 96.006649 
L 198.081195 96.033488 
L 198.981616 95.969377 
L 199.396034 95.984373 
L 199.857091 96.121622 
L 200.977169 96.309443 
L 201.627357 96.482509 
L 202.423773 96.727112 
L 202.606594 96.820003 
L 202.728799 96.981179 
L 202.715792 97.128232 
L 202.604459 97.451118 
L 202.26944 97.919455 
L 201.681471 98.364739 
L 201.434732 98.492088 
L 200.579738 98.775323 
L 200.304026 98.91398 
L 199.633551 99.319662 
L 199.174192 99.743446 
L 199.018646 100.057596 
L 198.692994 100.457939 
L 198.64087 100.499046 
L 198.479452 100.523749 
L 198.367391 100.583735 
L 198.105025 100.777282 
L 197.992041 100.900215 
L 197.962048 100.936662 
L 197.911332 101.204998 
L 197.907595 101.396506 
L 197.920456 101.64407 
L 198.029072 102.142109 
L 198.277266 102.713577 
L 198.38064 102.884945 
L 198.522646 103.050149 
L 198.807433 103.319892 
L 199.16502 103.570222 
L 199.301105 103.633605 
L 199.556093 103.65263 
L 199.614963 103.635935 
L 199.900188 103.390992 
L 200.242826 103.357359 
L 201.112526 103.056895 
L 201.514277 102.881693 
L 202.395236 102.65398 
L 202.956173 102.565845 
L 202.999658 102.256791 
L 203.273235 101.906242 
L 203.361321 101.694835 
L 203.412134 101.336375 
L 203.508519 101.146031 
L 203.908135 100.776748 
L 204.12226 100.654398 
L 204.445194 100.786795 
L 204.679556 100.950009 
L 205.041899 101.397526 
L 205.203026 101.708909 
L 205.229137 101.820048 
L 205.227438 102.202338 
L 205.149689 102.440049 
L 204.876501 102.821173 
L 204.70688 102.991425 
L 204.585161 103.062573 
L 204.259412 103.310331 
L 203.868824 103.722905 
L 203.617475 103.906891 
L 203.264114 104.06639 
L 202.979662 104.194785 
L 202.006977 104.707869 
L 201.98592 104.720293 
L 201.659631 104.912821 
L 201.934421 105.413141 
L 202.606352 105.909821 
L 203.836986 106.553748 
L 205.029523 106.973407 
L 205.622006 107.350018 
L 205.921354 107.756768 
L 205.994007 107.978415 
L 205.824095 108.3625 
L 205.548188 108.548088 
L 205.168763 108.634718 
L 204.202969 108.484268 
L 203.523516 108.231899 
L 203.149768 107.984433 
L 202.902253 107.761184 
L 202.101518 106.641106 
L 200.62264 105.596059 
L 200.456369 106.525551 
L 200.180656 107.043148 
L 199.708776 107.761184 
L 199.679657 108.008699 
L 199.742749 108.586186 
L 199.932025 108.925912 
L 200.092182 109.124895 
L 200.747369 109.770326 
L 201.402604 110.173145 
L 201.965579 110.430366 
L 202.805189 110.755485 
L 203.936041 110.993293 
L 204.096198 110.949614 
L 204.571815 110.663273 
L 205.139643 110.401247 
L 205.422684 110.18654 
L 205.670733 110.153295 
L 206.17741 110.239343 
L 206.414054 110.338592 
L 206.848758 110.704623 
L 206.898747 110.772859 
L 206.980815 110.898315 
L 207.00081 110.977471 
L 207.023669 111.417272 
L 207.010614 111.600675 
L 206.937233 111.734042 
L 206.773485 111.910846 
L 206.612357 112.038728 
L 206.308448 112.221113 
L 205.660201 112.433733 
L 205.674761 112.777536 
L 205.630791 112.99598 
L 205.555517 113.200593 
L 205.343479 113.512025 
L 205.154203 114.167212 
L 205.154203 114.332222 
L 205.202735 114.458357 
L 205.367745 114.674326 
L 205.682283 114.851372 
L 206.019729 114.962366 
L 207.577083 115.248755 
L 208.140156 115.244047 
L 208.532491 115.292046 
L 209.198695 115.432498 
L 209.626119 115.559605 
L 209.849708 115.357856 
L 210.33474 114.836181 
L 210.611471 114.049035 
L 210.762553 113.9196 
L 211.27981 113.85641 
L 211.408809 113.959008 
L 211.386048 114.671463 
L 210.534159 116.110884 
L 210.101979 116.523797 
L 209.975067 116.722294 
L 209.441987 117.300557 
L 209.147202 117.540452 
L 208.576461 117.943077 
L 207.904628 118.275863 
L 207.73394 118.289792 
L 207.653522 118.248831 
L 207.53719 118.142157 
L 207.257352 117.800149 
L 207.164752 117.654698 
L 207.112823 117.626209 
L 206.749121 117.595876 
L 206.605514 117.614076 
L 206.528008 117.64669 
L 206.369016 117.780057 
L 206.307283 117.891293 
L 206.14567 118.447279 
L 206.198668 118.916102 
L 206.293645 119.088926 
L 206.359892 119.160802 
L 206.763633 119.52528 
L 206.857834 119.778716 
L 206.828084 119.819483 
L 206.53092 119.993617 
L 206.329462 120.211576 
L 206.191388 120.805127 
L 206.185176 121.056039 
L 206.179449 121.756555 
L 205.843459 122.310843 
L 205.790705 122.354667 
L 205.666704 122.41048 
L 205.648555 122.415772 
L 205.517904 122.453867 
L 205.369104 122.447655 
L 205.263692 122.41048 
L 205.201279 122.290459 
L 205.129937 121.703994 
L 205.231855 121.208964 
L 205.076551 121.160432 
L 204.906688 121.058514 
L 204.329104 120.573239 
L 204.081589 120.447055 
L 203.70789 120.311164 
L 203.479788 120.272338 
L 203.115796 120.330577 
L 202.931373 120.485881 
L 202.858574 120.655744 
L 202.795482 120.971156 
L 202.698417 121.126459 
L 202.392615 121.422507 
L 201.921851 121.063367 
L 201.727722 121.014835 
L 201.310344 121.043954 
L 200.902672 121.170138 
L 200.499805 121.461332 
L 200.106693 121.932096 
L 199.888297 122.009748 
L 199.836125 122.002614 
L 199.681501 122.004021 
L 199.352791 121.788732 
L 199.136725 121.688512 
L 199.054123 121.664392 
L 198.889599 121.675748 
L 197.703517 122.232706 
L 197.50764 122.374469 
L 197.405285 122.478667 
L 197.215912 122.97627 
L 197.071625 123.466883 
L 196.944568 124.063588 
L 196.901471 124.512658 
L 196.95277 124.802348 
L 197.039788 125.033313 
L 197.343115 125.516695 
L 197.470756 125.594153 
L 197.848289 125.616041 
L 198.364818 125.705972 
L 198.745021 125.852491 
L 198.995593 125.908691 
L 199.846705 125.932084 
L 199.97153 125.965814 
L 200.340279 125.72456 
L 200.462338 125.669766 
L 200.924609 125.549989 
L 201.411194 125.531158 
L 201.633812 125.555376 
L 202.020226 125.653168 
L 202.385481 125.87501 
L 202.792182 126.004591 
L 202.887694 125.038069 
L 202.936226 124.984684 
L 203.018731 124.746875 
L 202.960492 124.397442 
L 202.669298 124.086835 
L 202.513995 123.722891 
L 202.575145 123.426698 
L 202.936226 123.373458 
L 203.343898 123.562735 
L 203.824368 123.887901 
L 204.159241 124.145074 
L 204.566961 124.227579 
L 205.072474 124.416613 
L 205.173616 124.941005 
L 205.129937 125.101161 
L 205.061991 125.241905 
L 204.799917 125.668941 
L 204.518429 125.960136 
L 204.401951 126.037787 
L 204.062176 126.159118 
L 203.878133 126.182761 
L 203.8729 126.183433 
L 203.882631 126.485067 
L 203.892313 126.785185 
L 203.688477 127.129765 
L 203.499201 127.265607 
L 202.136801 127.892839 
L 201.489913 128.192575 
L 201.417115 128.26052 
L 201.407408 128.357585 
L 201.533593 129.595111 
L 201.480207 129.687323 
L 201.378289 129.726149 
L 200.582359 129.687323 
L 200.339697 129.595111 
L 199.825205 129.206853 
L 199.349588 128.546861 
L 199.131193 128.318759 
L 198.825439 128.134336 
L 198.611897 128.066391 
L 198.33036 128.085804 
L 198.150791 128.144043 
L 197.811064 128.367291 
L 197.592669 128.61966 
L 197.529577 128.745844 
L 197.510164 128.862321 
L 197.510164 129.00787 
L 197.544136 129.134054 
L 197.655761 129.318477 
L 197.786798 129.478634 
L 198.024607 129.643644 
L 198.33036 129.774681 
L 199.301056 129.954251 
L 200.737662 130.216325 
L 201.096801 130.361922 
L 201.276371 130.507471 
L 201.363729 130.643362 
L 201.451088 130.89573 
L 201.493796 131.145186 
L 201.688896 131.217402 
L 200.999882 132.026485 
L 200.708543 132.283706 
L 200.320284 132.502102 
L 199.674755 132.662259 
L 197.393686 132.880654 
L 197.112199 133.050518 
L 196.762766 133.332005 
L 196.403626 133.705704 
L 196.233763 133.928905 
L 196.194937 134.098768 
L 196.209497 134.307457 
L 196.175524 134.637477 
L 195.995955 135.156773 
L 196.010514 135.190746 
L 196.097872 135.229571 
L 196.408479 135.185892 
L 196.457012 135.278104 
L 196.398773 135.734259 
L 196.583196 135.913829 
L 196.607462 136.015747 
L 196.481278 136.103105 
L 196.190084 136.195317 
L 196.112432 136.258409 
L 196.025074 136.394299 
L 195.966835 136.423419 
L 195.787265 136.467098 
L 195.617402 136.442832 
L 195.530044 136.50107 
L 195.41842 136.685493 
L 195.23885 136.865063 
L 194.358425 137.610229 
L 193.972689 138.010232 
L 193.329878 138.350687 
L 192.540354 138.563647 
L 192.438436 138.621886 
L 192.380197 138.699537 
L 192.317105 138.893618 
L 192.326812 139.063481 
L 192.360785 139.165399 
L 192.433583 139.257611 
L 192.698958 139.502311 
L 193.45218 140.130999 
L 193.480183 140.214378 
L 193.367588 140.657187 
L 193.234415 140.878543 
L 192.967487 141.126058 
L 192.65688 141.286214 
L 192.307399 141.295921 
L 191.943406 141.18915 
L 191.773543 141.101792 
L 191.676478 141.02414 
L 191.545441 140.849423 
L 191.404697 140.567984 
L 191.327045 140.349589 
L 191.291957 140.107073 
L 191.331899 139.4663 
L 191.132868 138.820868 
L 191.069776 138.806309 
L 189.506985 139.073188 
L 189.172112 139.155693 
L 188.948863 139.252758 
L 188.725615 139.4663 
L 188.594577 139.660429 
L 187.924831 141.771538 
L 187.720995 142.693604 
L 187.67387 143.179801 
L 188.456357 143.398585 
L 189.734214 143.308072 
L 190.038033 143.321929 
L 190.749365 143.354372 
L 191.490454 143.096471 
L 192.081141 143.139374 
L 192.606795 143.342384 
L 192.773358 143.619262 
L 192.589178 143.950349 
L 192.000044 144.384859 
L 191.214887 144.397235 
L 190.008509 144.394764 
L 189.911648 144.394566 
L 189.130763 144.45494 
L 188.136917 144.575689 
L 186.926772 145.003895 
L 186.88619 145.018255 
L 186.099966 146.042288 
L 186.06114 146.139352 
L 185.959222 146.697474 
L 185.954369 147.168238 
L 186.056287 148.405764 
L 186.167911 149.303613 
L 186.148498 149.541421 
L 186.041727 150.172342 
L 185.91069 150.458683 
L 185.159263 150.809669 
L 184.935141 150.885767 
L 184.522616 150.895474 
L 184.178036 150.832382 
L 182.862761 150.458683 
L 182.353123 150.216021 
L 182.086195 150.041305 
L 181.950305 149.91512 
L 181.712496 149.648193 
L 181.590728 149.457218 
L 181.458672 149.29808 
L 181.374711 149.262457 
L 181.220038 149.245083 
L 181.141756 149.279686 
L 180.751944 149.550982 
L 180.50802 149.761904 
L 180.356308 149.97302 
L 180.298215 150.120558 
L 180.236967 150.542304 
L 180.270357 150.793799 
L 180.30268 150.873489 
L 180.387683 150.991374 
L 180.475309 151.112899 
L 180.97165 151.654423 
L 181.392183 151.92436 
L 181.65911 152.055349 
L 181.82412 152.118441 
L 182.105608 152.152413 
L 182.74143 152.123294 
L 183.168515 152.050495 
L 184.197449 151.691404 
L 184.46923 151.618606 
L 184.857489 151.589487 
L 185.129319 151.628312 
L 185.328302 151.671991 
L 185.769946 151.943724 
L 185.697147 152.589204 
L 185.638909 152.8076 
L 185.582689 152.92004 
L 185.575817 152.933784 
L 185.23609 153.283217 
L 184.67792 153.652063 
L 184.134357 154.059735 
L 183.828603 154.239304 
L 183.532508 154.375195 
L 182.091048 154.826546 
L 182.013397 154.811986 
L 181.887212 154.719774 
L 181.610578 154.637269 
L 181.100988 154.717348 
L 180.780626 154.700362 
L 180.562328 154.717542 
L 180.429058 154.743167 
L 180.339419 154.800921 
L 180.065939 155.139773 
L 180.01299 155.228782 
L 179.994354 155.337349 
L 179.997169 155.451303 
L 180.107968 155.659312 
L 180.293362 155.728956 
L 180.382758 155.809471 
L 180.37111 156.13624 
L 180.274871 156.378222 
L 180.22595 157.101888 
L 180.281714 158.213715 
L 180.372421 158.765431 
L 180.458032 158.998872 
L 180.604114 159.264247 
L 180.794992 159.626686 
L 181.104483 160.15763 
L 181.590097 160.536376 
L 182.0662 160.940408 
L 182.226551 161.260479 
L 182.462466 161.351283 
L 182.45839 161.569242 
L 182.466009 162.020156 
L 182.509397 162.273786 
L 182.443053 162.54513 
L 182.132204 162.85433 
L 180.904675 162.854573 
L 180.714817 162.790219 
L 180.331265 162.595604 
L 180.046963 162.358572 
L 179.798768 162.082666 
L 179.537373 161.625491 
L 179.191726 160.473042 
L 179.189493 160.284299 
L 179.310921 160.02834 
L 179.304369 159.980924 
L 179.134021 159.660756 
L 179.086508 159.614747 
L 178.922129 159.550684 
L 178.754595 159.568059 
L 178.546634 159.663959 
L 178.4469 159.766945 
L 177.943425 160.015576 
L 177.704986 160.207764 
L 177.405396 160.644021 
L 177.309253 160.966227 
L 177.304982 161.198794 
L 177.51867 161.595838 
L 177.649562 161.897806 
L 177.760264 162.239231 
L 178.070774 161.967935 
L 178.169343 161.902902 
L 178.404434 161.812923 
L 178.562067 161.849565 
L 178.864181 162.003801 
L 178.844768 162.066019 
L 178.684223 162.303002 
L 178.631468 162.917907 
L 178.637923 163.06695 
L 178.733775 163.386099 
L 178.730232 163.713353 
L 178.892815 163.882876 
L 179.35659 164.14529 
L 179.49515 164.394261 
L 179.570327 164.463371 
L 180.20843 164.874392 
L 180.619014 165.190338 
L 180.686425 165.272406 
L 180.719573 165.378594 
L 180.704091 166.209177 
L 180.676816 166.412285 
L 180.520202 166.774676 
L 180.348931 167.064269 
L 180.205081 167.206323 
L 179.275396 167.590408 
L 178.490579 167.800019 
L 177.991327 167.868789 
L 177.491395 167.885484 
L 176.84805 167.823654 
L 175.929673 167.661702 
L 175.216926 167.568956 
L 174.42517 167.575314 
L 174.251375 167.612344 
L 173.891459 167.839427 
L 173.760422 167.97095 
L 173.631423 168.15416 
L 173.583764 168.34528 
L 173.588715 168.424873 
L 173.728876 168.788089 
L 174.10078 169.189791 
L 175.034396 169.594697 
L 176.175052 170.443916 
L 176.494735 170.764423 
L 176.736329 171.166077 
L 176.765434 171.289983 
L 176.790297 171.395829 
L 176.802139 171.780885 
L 176.785104 171.899255 
L 176.665908 172.16463 
L 176.396068 172.631803 
L 176.266487 172.821079 
L 176.04979 173.066021 
L 175.201736 173.923831 
L 175.078172 174.076271 
L 175.034445 174.166056 
L 175.005859 174.317282 
L 174.968538 174.785037 
L 174.99193 174.893216 
L 175.208336 175.215422 
L 175.352235 175.357573 
L 175.536997 175.501763 
L 175.791307 175.637654 
L 176.511042 176.128461 
L 177.823599 177.160162 
L 177.993365 177.323036 
L 178.132507 177.610542 
L 178.199288 177.939931 
L 178.17706 178.163714 
L 178.134982 178.323045 
L 177.981378 178.67539 
L 177.627189 179.121063 
L 177.301148 179.400221 
L 176.716333 179.7283 
L 175.938505 180.022114 
L 175.034445 180.30564 
L 174.460598 180.594796 
L 175.034445 180.606881 
L 179.227203 180.596155 
L 181.101085 180.629982 
L 181.233385 180.614694 
L 184.710291 180.614646 
L 184.813568 180.615762 
L 186.129083 180.612123 
L 193.410151 180.591981 
L 194.460925 180.606104 
L 194.498343 180.606104 
L 196.821053 180.607997 
L 196.824414 180.60801 
L 200.117273 180.62081 
L 200.125863 180.621926 
L 201.450796 180.619402 
L 202.059586 180.618868 
L 202.450614 180.617268 
L 203.326166 180.613686 
L 210.48189 180.58441 
L 213.816208 180.597514 
L 213.8258 180.597494 
L 215.868253 180.593292 
L 216.056898 180.592806 
L 216.245058 180.591156 
L 216.567701 180.596835 
L 217.080105 180.586691 
L 218.255705 180.604211 
L 218.259539 180.6046 
L 222.301313 180.590234 
L 222.421285 180.591399 
L 225.335409 180.58344 
L 225.398647 180.585672 
L 225.540604 180.58111 
L 225.585739 180.58111 
L 226.377933 180.579411 
L 227.328173 180.579884 
L 230.282166 180.581353 
L 230.324535 180.579072 
L 230.741525 180.580188 
L 230.807335 180.579072 
L 230.896343 180.576257 
L 231.744068 180.578295 
L 232.430693 180.579945 
L 232.467287 180.579606 
L 232.679567 180.579557 
L 233.189254 180.577325 
L 233.418909 180.575674 
L 235.436932 180.572665 
L 235.978796 180.550195 
L 237.052819 180.549031 
L 237.053351 180.54903 
L 237.112706 180.548836 
L 241.308428 180.53456 
L 244.470917 180.523799 
L 245.913125 180.518892 
L 245.932441 180.516708 
L 247.52833 180.521609 
L 247.673394 180.51564 
L 251.444357 180.507486 
L 252.469943 180.5087 
L 252.828548 180.503264 
L 253.646464 180.500255 
L 255.097678 180.484337 
L 255.225221 180.498896 
L 257.440286 180.496712 
L 257.636454 180.496276 
L 258.879028 180.473611 
L 259.112371 180.481085 
L 260.852062 180.465749 
L 261.86901 180.466512 
L 261.886771 180.466525 
L 262.416987 180.466477 
L 262.81437 180.465312 
L 265.910103 180.476523 
L 265.934806 180.557572 
L 265.966449 180.581498 
L 266.077685 180.58805 
L 266.172809 180.557523 
L 266.270553 180.457158 
L 266.435272 180.399453 
L 266.887447 180.331994 
L 267.027609 180.375867 
L 267.098903 180.448471 
L 267.098994 180.454847 
L 267.099922 180.520056 
L 267.008972 180.578635 
L 266.740103 180.580285 
L 266.803826 180.779899 
L 266.910209 180.837798 
L 267.078713 180.838429 
L 267.120694 180.890213 
L 267.01237 181.435668 
L 266.984658 181.55132 
L 266.903754 181.629894 
L 266.722049 181.640717 
L 266.674924 181.676776 
L 266.662015 181.727299 
L 266.713605 181.806649 
L 267.087498 181.967048 
L 267.150396 182.036644 
L 267.151075 182.148851 
L 267.104047 182.191413 
L 267.041635 182.204808 
L 266.941367 182.210244 
L 266.818095 182.171952 
L 266.733018 182.188744 
L 266.371549 182.508087 
L 266.349321 182.581419 
L 265.980281 182.923233 
L 265.73097 183.308628 
L 265.720244 183.383805 
L 265.755139 183.500573 
L 266.034783 183.684026 
L 266.091857 183.775024 
L 266.094089 183.827051 
L 266.034783 183.972696 
L 266.125295 184.285536 
L 266.273174 184.331787 
L 266.307777 184.421038 
L 266.291228 184.500825 
L 266.197609 184.652634 
L 266.034783 184.792165 
L 265.840022 184.798474 
L 265.678361 184.692043 
L 265.581976 184.6852 
L 265.426818 184.753048 
L 265.349069 184.841862 
L 265.336985 184.92097 
L 265.377218 185.044436 
L 265.47569 185.099811 
L 265.562563 185.118011 
L 265.714566 185.367807 
L 265.697434 185.470793 
L 265.615172 185.549803 
L 265.518981 185.598967 
L 265.305439 185.569216 
L 265.054623 185.449293 
L 264.971293 185.462057 
L 264.917277 185.500349 
L 264.895243 185.571983 
L 264.97008 185.893364 
L 265.066368 186.280943 
L 264.802789 186.317682 
L 264.722614 186.337532 
L 264.651125 186.443575 
L 264.621472 186.624018 
L 264.679177 186.710115 
L 265.153241 187.050763 
L 265.174984 187.090317 
L 265.166927 187.173744 
L 264.984106 187.61932 
L 264.942125 187.668677 
L 264.837684 187.688381 
L 264.642778 187.564818 
L 264.502616 187.525361 
L 264.418122 187.554044 
L 264.384683 187.59054 
L 264.368036 187.6646 
L 264.398369 187.742883 
L 264.536395 187.917066 
L 264.57129 188.02903 
L 264.553236 188.064313 
L 264.453793 188.076155 
L 264.218362 188.132064 
L 264.091159 188.429519 
L 264.057963 188.71353 
L 264.076066 188.769148 
L 264.124889 188.794142 
L 264.250539 188.785795 
L 264.388954 188.943865 
L 264.525669 189.296307 
L 264.465683 189.400554 
L 264.296305 189.49825 
L 264.012343 189.283494 
L 263.775068 189.222295 
L 263.733476 189.230545 
L 263.677033 189.260781 
L 263.60933 189.347023 
L 263.627578 189.53659 
L 263.591227 189.766973 
L 263.414424 190.115339 
L 263.386906 190.151058 
L 263.214908 190.245648 
L 263.119444 190.280397 
L 263.069553 190.325289 
L 263.054605 190.370182 
L 263.084501 190.400126 
L 263.194281 190.519807 
L 263.268536 190.568582 
L 263.309012 190.594644 
L 263.373851 190.634538 
L 263.3838 190.67943 
L 263.363853 190.729321 
L 263.283484 190.80343 
L 263.094499 190.854049 
L 263.024661 190.834103 
L 262.999715 190.764265 
L 262.954823 190.659483 
L 262.934876 190.574697 
L 262.814904 190.464432 
L 262.759529 190.464432 
L 262.681634 190.504471 
L 262.588743 190.635799 
L 262.568942 190.700833 
L 262.58622 190.825755 
L 262.427761 191.261576 
L 262.081143 191.844886 
L 262.258335 192.290947 
L 262.360835 192.830335 
L 262.347295 193.072172 
L 262.471586 193.136914 
L 262.662998 193.152299 
L 262.798112 193.181176 
L 262.831551 193.215633 
L 262.810973 193.284549 
L 262.763363 193.315659 
L 262.566564 193.349 
L 262.341374 193.350165 
L 261.970441 193.33182 
L 261.891867 193.366375 
L 261.874218 193.386069 
L 261.82232 193.443978 
L 261.81868 193.757497 
L 261.848479 193.806224 
L 262.006986 193.827481 
L 262.249842 193.911976 
L 262.152826 194.334595 
L 262.060566 194.379536 
L 261.852071 194.340662 
L 261.388878 194.771192 
L 261.351265 194.824821 
L 261.382811 194.924409 
L 261.495455 195.004293 
L 261.586453 194.99449 
L 261.703804 194.925088 
L 261.764324 194.930281 
L 261.87192 195.147755 
L 261.889877 195.554893 
L 261.825863 195.583672 
L 261.429451 196.354463 
L 261.320933 196.580284 
L 261.252499 196.77751 
L 261.239495 196.814987 
L 261.158398 196.835419 
L 261.075262 196.925058 
L 261.093413 197.009262 
L 261.622464 197.139522 
L 261.862262 197.198586 
L 261.997474 197.188006 
L 262.399079 197.580779 
L 262.550403 197.842805 
L 262.734195 198.328371 
L 262.482797 198.87271 
L 262.571951 199.017724 
L 262.598935 199.093483 
L 262.525117 199.277518 
L 262.481972 199.579972 
L 262.578648 199.633357 
L 262.791269 199.561044 
L 262.865281 199.563665 
L 262.936138 199.604675 
L 262.904931 199.680822 
L 262.776855 199.93615 
L 262.655815 200.135424 
L 262.648923 200.205554 
L 262.712549 200.334261 
L 262.815972 200.384832 
L 263.02403 200.393228 
L 263.266255 200.593958 
L 263.235 200.667339 
L 263.191264 200.691917 
L 263.139052 200.721258 
L 263.279601 201.336406 
L 263.214519 201.493845 
L 263.222139 201.532525 
L 263.311681 201.554607 
L 263.429566 201.525245 
L 263.61428 201.466861 
L 263.878879 201.452204 
L 264.081598 201.555529 
L 264.111834 201.601344 
L 264.093246 201.661864 
L 263.979098 201.770867 
L 263.77201 201.837308 
L 263.598265 201.74136 
L 263.539201 201.740971 
L 263.474216 201.780962 
L 263.423063 201.892489 
L 263.425781 201.974655 
L 263.476351 202.022459 
L 263.877083 202.087929 
L 264.016274 202.332047 
L 264.001908 202.464831 
L 263.903436 202.48934 
L 263.843159 202.496669 
L 263.835539 202.529671 
L 263.838111 202.572816 
L 263.911735 202.603294 
L 264.046267 202.646439 
L 264.167792 202.674685 
L 264.388517 202.693564 
L 264.570416 202.667745 
L 264.603467 202.680461 
L 264.807788 202.947243 
L 264.98794 203.364573 
L 265.03157 203.482506 
L 265.067873 203.769963 
L 265.158288 204.103672 
L 265.525339 204.067709 
L 265.608232 204.198698 
L 265.622161 204.544248 
L 265.643612 204.570359 
L 265.896077 204.711637 
L 266.211343 204.705521 
L 266.386982 204.895526 
L 266.407365 204.962888 
L 266.784996 205.088733 
L 267.195628 205.193708 
L 267.270368 205.225643 
L 267.436979 205.385508 
L 267.511185 205.649621 
L 267.693958 205.910191 
L 267.858628 205.92412 
L 267.97166 205.885391 
L 268.00141 205.907474 
L 268.196171 206.174547 
L 268.377633 206.525679 
L 268.665673 206.615269 
L 268.945316 206.790568 
L 268.960969 206.808963 
L 269.270095 207.172227 
L 269.298292 207.462596 
L 269.201858 207.768301 
L 269.264708 207.98922 
L 269.341146 208.03222 
L 269.410596 208.282113 
L 269.507709 209.005827 
L 269.429087 209.132594 
L 269.37905 209.128129 
L 269.322995 209.055379 
L 269.235734 209.072122 
L 269.2567 209.400832 
L 269.360836 209.535959 
L 269.476697 209.686299 
L 269.786867 210.206323 
L 269.91441 210.538624 
L 270.299272 211.080343 
L 270.392939 211.457924 
L 270.542564 211.796292 
L 270.760863 211.843805 
L 271.051717 211.991149 
L 271.104278 212.048708 
L 271.124564 212.20343 
L 271.556502 212.40513 
L 271.875457 212.632407 
L 271.842843 212.940782 
L 271.868177 213.519093 
L 272.026926 213.788933 
L 272.045611 213.847269 
L 271.782469 214.086194 
L 271.657983 214.138414 
L 271.383096 214.185733 
L 271.357422 214.211261 
L 271.294136 214.354723 
L 271.209933 215.136919 
L 271.49108 215.26553 
L 271.793728 215.526148 
L 271.836971 215.676599 
L 271.874001 216.131201 
L 271.83071 216.37925 
L 271.803241 216.397692 
L 271.754223 216.473742 
L 271.775383 216.629677 
L 272.01159 216.881026 
L 272.16039 216.970811 
L 272.534089 217.092142 
L 272.631154 217.228032 
L 272.636007 217.378482 
L 272.548649 217.679383 
L 272.49041 218.057935 
L 272.495263 218.150147 
L 272.548649 218.266624 
L 272.708806 218.446146 
L 272.801066 218.514091 
L 272.946663 218.562623 
L 273.25727 218.611156 
L 273.480519 218.819845 
L 273.859119 219.377967 
L 273.931918 219.625482 
L 274.00957 219.775932 
L 274.252231 220.062224 
L 274.557985 220.28062 
L 274.766674 220.348565 
L 275.150128 220.246647 
L 275.518974 220.081637 
L 275.703397 219.916627 
L 275.790755 219.80015 
L 275.892673 219.727351 
L 276.159601 219.615727 
L 276.29554 219.596314 
L 276.552762 219.644846 
L 276.693506 219.77103 
L 276.814836 219.940893 
L 276.982176 220.326434 
L 276.656572 220.503772 
L 276.351789 220.763614 
L 275.501503 220.809574 
L 275.122368 220.912996 
L 274.858109 221.142797 
L 274.67257 221.316058 
L 273.946089 221.787501 
L 273.55982 221.82424 
L 273.413932 221.702035 
L 272.466823 221.507275 
L 272.207772 221.704047 
L 272.022736 221.844598 
L 271.328885 222.371636 
L 270.552513 223.353494 
L 269.960613 223.727873 
L 269.696063 223.74054 
L 269.524744 223.843428 
L 269.329741 224.656345 
L 269.255438 225.40947 
L 268.537936 225.677708 
L 267.836837 225.745799 
L 267.132584 226.057717 
L 266.960489 226.304261 
L 266.93399 226.687181 
L 267.673866 227.734558 
L 267.670129 227.826187 
L 267.268669 228.009057 
L 266.847699 228.02847 
L 266.207946 227.516696 
L 265.396922 227.055202 
L 264.459374 226.896792 
L 262.710899 226.995992 
L 261.673666 227.92694 
L 260.818283 228.883367 
L 260.888337 229.241102 
L 260.959974 229.606919 
L 261.072884 230.1835 
L 261.466481 231.251454 
L 261.743213 231.728479 
L 262.024909 231.924302 
L 262.203154 232.04821 
L 262.73667 232.2949 
L 263.395108 232.370465 
L 264.80274 232.136151 
L 266.111512 231.727751 
L 267.109289 231.099305 
L 267.539577 231.345898 
L 267.83839 231.702611 
L 266.702685 232.192108 
L 266.391301 232.210017 
L 266.219206 232.582405 
L 266.403337 233.555528 
L 267.923419 234.957287 
L 268.853008 235.470032 
L 269.845446 235.52764 
L 270.378671 235.75215 
L 271.473172 235.696047 
L 272.679541 235.303177 
L 273.408982 234.854302 
L 273.745554 234.09676 
L 273.689644 233.114708 
L 274.138423 232.413319 
L 274.138423 231.739884 
L 274.531632 231.066546 
L 274.559393 229.888035 
L 274.222821 229.354956 
L 274.699748 229.102393 
L 275.682091 228.821731 
L 278.094392 227.446906 
L 278.459501 227.110335 
L 278.431692 226.633359 
L 278.206599 226.240586 
L 278.487649 225.595203 
L 279.048586 225.258534 
L 280.16386 226.019424 
L 280.859231 226.140319 
L 281.614928 226.563472 
L 282.128498 226.684463 
L 284.365354 226.442675 
L 284.546768 226.805357 
L 284.365354 227.319072 
L 283.942103 227.621429 
L 283.337439 227.651664 
L 282.249586 228.105005 
L 281.917479 228.346793 
L 281.433515 228.709476 
L 281.403133 229.525644 
L 281.433515 230.130017 
L 282.763544 230.76482 
L 283.337439 230.734585 
L 284.03281 230.855479 
L 284.063191 233.001385 
L 284.576761 233.394352 
L 286.329992 233.182799 
L 287.127912 232.825698 
L 288.675657 230.393645 
L 289.172968 229.398732 
L 290.278584 228.984217 
L 290.609962 229.232945 
L 290.306004 230.283137 
L 291.854089 230.421309 
L 291.577503 230.946477 
L 291.217976 232.715239 
L 290.554781 232.494125 
L 289.67057 232.521692 
L 288.841541 232.742853 
L 286.989449 234.04187 
L 286.796145 234.566796 
L 287.321605 234.843285 
L 288.39946 234.898466 
L 289.228101 234.59446 
L 290.720665 234.456288 
L 290.96949 234.59446 
L 290.96949 235.06435 
L 290.085279 235.672412 
L 289.338852 235.893476 
L 288.122874 236.031697 
L 287.017598 236.335703 
L 284.806319 236.584431 
L 283.811405 236.916004 
L 283.839166 237.330616 
L 284.336428 237.579345 
L 285.663157 237.828073 
L 285.80162 238.878264 
L 286.326303 239.265164 
L 286.989449 239.348106 
L 288.205427 238.657103 
L 288.979664 238.436038 
L 288.979664 238.822986 
L 288.647897 239.016436 
L 288.620136 240.260223 
L 289.366612 240.702304 
L 289.28367 240.923466 
L 287.625563 240.895754 
L 287.100152 240.702304 
L 286.65807 240.149569 
L 286.050057 239.817899 
L 285.248448 239.707391 
L 284.613063 240.011398 
L 283.701043 239.348106 
L 283.286334 239.541605 
L 283.065318 240.232511 
L 282.319181 241.116819 
L 281.655696 241.641988 
L 281.556544 243.046708 
L 283.214409 243.866225 
L 283.617033 244.62959 
L 282.832654 244.541407 
L 281.849679 243.77314 
L 281.730435 244.695886 
L 281.383866 245.776216 
L 279.84277 246.000775 
L 279.570018 244.961212 
L 279.743909 243.706117 
L 278.804226 242.400548 
L 276.963588 242.369196 
L 277.221974 244.036331 
L 276.532961 245.104576 
L 277.650418 245.722442 
L 278.757926 247.036115 
L 278.881587 247.329639 
L 278.816469 247.492433 
L 278.805682 247.519401 
L 277.941466 246.982584 
L 277.054295 246.598257 
L 276.965752 246.531835 
L 276.462977 246.154671 
L 274.126921 245.947583 
L 272.792718 246.640334 
L 271.317286 246.184082 
L 270.130136 246.417813 
L 273.215823 248.012101 
L 273.192722 249.3762 
L 271.485548 248.674082 
L 270.934851 247.879996 
L 269.691064 247.219179 
L 269.217874 247.307945 
L 269.040488 247.781087 
L 269.217874 248.372599 
L 269.868401 249.082336 
L 270.874186 249.145477 
L 271.289429 249.697241 
L 270.22822 250.239008 
L 269.217874 250.294674 
L 269.217874 250.886284 
L 269.382593 251.691241 
L 270.542516 251.796945 
L 271.367274 253.192201 
L 272.907594 253.828994 
L 274.793221 253.654035 
L 274.672133 254.567754 
L 275.691992 255.139028 
L 276.791687 255.563395 
L 276.611098 256.540594 
L 276.621144 256.971949 
L 277.279971 258.207049 
L 277.756413 258.889511 
L 277.926907 258.895723 
L 278.787385 258.541145 
L 278.93075 258.34095 
L 279.029562 257.916243 
L 279.280862 257.672659 
L 279.620492 258.14682 
L 280.243598 258.550755 
L 281.938494 258.673056 
L 283.995246 258.616904 
L 284.329731 258.840639 
L 285.182978 259.112711 
L 285.921835 259.120331 
L 286.102132 259.274858 
L 285.567015 259.916843 
L 286.005407 260.38057 
L 286.911021 260.029439 
L 287.291369 258.798755 
L 289.210435 260.586833 
L 289.561955 260.870407 
L 289.923424 261.281961 
L 290.132453 261.964812 
L 290.7476 262.582192 
L 291.557023 262.402088 
L 291.593325 262.194661 
L 291.77338 261.886674 
L 292.50287 261.194506 
L 292.712238 260.915736 
L 292.702046 260.757812 
L 293.247793 260.88453 
L 293.723749 261.149177 
L 293.830326 261.362622 
L 293.788103 261.762529 
L 294.429022 262.923956 
L 294.789229 263.23204 
L 295.629712 263.504112 
L 295.917897 264.074124 
L 295.789674 264.273156 
L 296.143524 264.739406 
L 296.85132 265.357271 
L 296.776143 266.976747 
L 296.966681 267.813542 
L 298.004836 268.357298 
L 299.216058 268.045138 
L 299.665128 267.413441 
L 301.177008 267.18927 
L 302.249815 268.901103 
L 301.744545 269.530471 
L 300.859995 268.859657 
L 299.954041 269.35721 
L 298.097145 269.555805 
L 297.082042 270.220601 
L 297.728008 270.895637 
L 300.51954 271.056813 
L 299.204508 273.228587 
L 298.270163 272.210621 
L 297.64725 271.918359 
L 297.278162 272.220716 
L 297.05899 273.692314 
L 296.782112 274.035049 
L 296.090041 274.196371 
L 295.305613 275.124018 
L 295.216362 276.191196 
L 295.752596 276.714957 
L 295.503965 278.037706 
L 291.824873 276.538445 
L 291.881122 274.929112 
L 291.471363 274.262812 
L 290.220685 273.594618 
L 289.850528 274.7989 
L 288.214406 275.625697 
L 284.753855 279.343323 
L 282.977765 280.84341 
L 282.657686 280.9129 
L 282.060552 281.042538 
L 283.36384 278.258528 
L 284.863441 277.042793 
L 285.754544 275.063498 
L 286.435113 274.912223 
L 287.39251 274.186276 
L 287.254096 273.38986 
L 287.750097 272.8859 
L 287.277149 271.928454 
L 288.061529 271.495157 
L 288.08463 271.142473 
L 288.915164 270.951061 
L 288.77675 269.873109 
L 288.738798 268.825684 
L 288.119234 267.979668 
L 286.977268 267.848776 
L 286.492769 268.382487 
L 286.631183 269.037091 
L 286.331254 270.41706 
L 285.422874 271.341455 
L 283.484977 271.633717 
L 282.569851 271.426047 
L 282.164751 270.900199 
L 281.618908 270.617741 
L 281.42638 270.398715 
L 280.72072 268.964438 
L 280.315135 268.361909 
L 279.515273 267.558262 
L 279.004034 267.194124 
L 276.395129 266.167228 
L 272.995389 265.399883 
L 272.915893 264.808807 
L 272.154566 264.56731 
L 271.393239 263.530999 
L 269.834477 263.603943 
L 268.598019 263.232622 
L 267.19524 262.876055 
L 264.478059 262.531184 
L 263.198552 262.399516 
L 261.54224 262.157922 
L 259.561053 262.726721 
L 258.546356 263.317689 
L 256.612324 264.444087 
L 256.461081 264.696722 
L 256.295165 264.973866 
L 256.018337 265.316358 
L 252.836119 267.145009 
L 251.065514 268.716389 
L 250.057788 269.382107 
L 249.552182 269.680794 
L 247.947747 270.628612 
L 245.62659 272.039787 
L 243.054036 273.502261 
L 242.64651 273.373408 
L 241.969969 273.098084 
L 241.770016 272.386405 
L 242.580991 272.260804 
L 242.529013 271.379019 
L 241.838689 270.91573 
L 240.424262 270.699664 
L 240.060901 268.992247 
L 241.116334 268.866354 
L 241.324003 267.944919 
L 240.664061 267.97166 
L 239.138058 264.713732 
L 238.27292 264.381674 
L 237.194386 263.591858 
L 236.957936 262.852468 
L 236.599588 263.057681 
L 235.614076 263.622046 
L 235.660777 263.882322 
L 235.821697 264.779154 
L 235.409165 265.196287 
L 234.333695 266.283754 
L 234.503869 264.944709 
L 234.62785 263.969149 
L 234.783541 263.119056 
L 234.368299 262.480274 
L 233.537765 261.896963 
L 232.926403 260.795813 
L 232.193904 260.760627 
L 231.669075 261.333794 
L 231.986282 262.027709 
L 231.121145 263.15929 
L 230.653972 263.451018 
L 229.81446 263.288289 
L 228.992904 262.973168 
L 228.316412 262.874842 
L 227.003078 263.788026 
L 226.42632 262.882655 
L 225.774579 262.505462 
L 224.903714 262.912842 
L 224.782577 263.627093 
L 225.370887 264.462189 
L 225.284353 265.337664 
L 226.639716 266.228427 
L 226.005301 266.594118 
L 224.529433 266.067251 
L 224.182038 266.34306 
L 224.488423 266.741802 
L 224.211594 267.204898 
L 223.208042 267.225039 
L 222.68894 268.27722 
L 222.515923 269.445491 
L 221.102855 269.18361 
L 220.658735 269.596572 
L 220.837528 270.059959 
L 220.208889 271.561161 
L 219.378355 271.984363 
L 218.807372 271.032159 
L 218.328015 271.083493 
L 218.19601 271.097629 
L 217.757666 271.923892 
L 216.696409 272.120448 
L 216.413805 272.62436 
L 215.664029 272.407663 
L 215.156477 272.972094 
L 214.791417 274.502756 
L 214.676263 274.891221 
L 214.470278 275.586095 
L 213.109577 275.385607 
L 211.786294 274.910233 
L 212.20034 274.447846 
L 212.578584 274.02544 
L 212.168874 273.02247 
L 211.314074 272.540544 
L 210.937075 271.952089 
L 210.312755 271.256815 
L 208.974135 270.200072 
L 208.193735 269.750808 
L 207.892155 269.181475 
L 207.252159 268.855677 
L 206.272776 269.321879 
L 205.36823 269.40584 
L 204.210297 269.148473 
L 203.83024 268.789139 
L 202.527438 268.811173 
L 200.810121 268.521095 
L 199.803317 267.540402 
L 199.105374 267.154812 
L 195.683552 266.891573 
L 194.742752 266.660365 
L 191.842459 265.606 
L 190.683264 264.723584 
L 189.120134 263.130898 
L 189.223751 262.789182 
L 190.361155 262.794909 
L 191.210131 262.520264 
L 191.946561 261.623969 
L 192.060078 260.893411 
L 192.489881 260.112138 
L 193.871354 259.609051 
L 193.810688 260.614836 
L 194.589293 261.811449 
L 195.869722 262.802189 
L 197.040516 261.851683 
L 197.507689 262.188594 
L 197.150102 262.882655 
L 197.219309 263.642138 
L 197.005913 264.693591 
L 197.876826 265.257149 
L 198.753514 265.488648 
L 199.468687 265.428226 
L 199.578273 264.698639 
L 199.156672 264.35668 
L 198.961135 263.762886 
L 199.537894 263.048636 
L 199.370603 262.103129 
L 198.914981 261.077349 
L 198.06717 260.891324 
L 198.107548 260.474092 
L 196.013911 259.619534 
L 195.662198 258.725374 
L 194.801234 258.391132 
L 194.686746 257.99074 
L 194.958484 257.451579 
L 195.08408 257.202381 
L 194.819627 256.638532 
L 193.877615 256.380728 
L 193.80902 256.380246 
L 192.889593 256.373788 
L 191.973399 257.765113 
L 191.423479 258.067227 
L 190.722332 257.58137 
L 190.33189 258.192198 
L 189.16061 258.629523 
L 189.375463 256.926523 
L 187.708716 257.215339 
L 187.694496 256.49871 
L 188.507219 256.061531 
L 188.236311 255.561987 
L 189.208414 255.159606 
L 189.82196 254.417352 
L 188.849857 253.924894 
L 188.017091 252.734493 
L 186.961609 252.764583 
L 186.236245 253.504992 
L 185.120729 254.087575 
L 184.268161 254.21934 
L 183.001273 254.82284 
L 181.806066 253.407879 
L 181.766221 252.31231 
L 181.294244 251.475564 
L 180.268367 251.921624 
L 179.601193 251.834121 
L 179.579354 251.648193 
L 179.852639 251.135109 
L 179.868024 250.845953 
L 179.688746 250.521078 
L 179.289421 250.167277 
L 179.069618 248.785804 
L 178.508439 246.921531 
L 178.150707 246.699058 
L 177.680865 246.65237 
L 177.134682 246.708037 
L 176.244793 246.999668 
L 175.034639 247.240437 
L 174.12621 247.025438 
L 173.878259 246.879356 
L 173.892042 246.729973 
L 173.997794 246.598257 
L 174.15698 246.55715 
L 174.441088 246.22019 
L 174.929227 245.49633 
L 175.034639 245.032991 
L 174.951552 244.398479 
L 175.097003 243.695391 
L 175.356651 243.133581 
L 175.37553 242.654178 
L 175.209452 241.939054 
L 174.660212 241.592193 
L 172.995601 241.434657 
L 170.869544 241.766085 
L 169.59227 241.262465 
L 168.863993 241.316141 
L 167.33935 241.683774 
L 165.066823 242.740372 
L 163.926895 243.288787 
L 162.615939 243.011182 
L 163.675934 242.31086 
L 163.705286 241.90804 
L 163.73359 241.519589 
L 163.010313 241.334875 
L 162.70121 240.913711 
L 163.575763 240.105987 
L 164.039296 239.201587 
L 164.454538 239.812269 
L 165.149133 239.876429 
L 165.344185 239.324713 
L 165.337584 238.390854 
L 165.051826 237.38473 
L 163.658656 237.54013 
L 162.221905 237.056991 
L 161.643157 237.18201 
L 160.953657 237.865346 
L 159.873473 237.991627 
L 158.248658 237.139836 
L 158.194026 237.181266 
L 157.677481 237.572987 
L 157.714754 238.223709 
L 157.897187 238.808087 
L 156.57604 239.246625 
L 153.787322 240.301864 
L 151.217971 241.739926 
L 150.843059 241.063919 
L 150.214565 240.390532 
L 149.571802 240.598639 
L 148.350292 240.772045 
L 148.536365 241.727793 
L 147.140332 241.075664 
L 146.737659 241.514153 
L 147.130383 242.41074 
L 148.634109 243.648315 
L 149.62611 243.89384 
L 151.11979 243.731305 
L 151.833022 243.991924 
L 150.208644 245.23673 
L 150.704645 246.419609 
L 151.587108 247.84845 
L 152.402015 247.550607 
L 153.983344 247.427044 
L 155.162972 246.981031 
L 156.022383 247.743135 
L 154.4709 247.808314 
L 153.669195 248.324795 
L 154.493953 248.876462 
L 154.808686 249.153873 
L 153.709573 249.207453 
L 151.699849 249.174936 
L 149.142146 249.40396 
L 146.523049 250.332724 
L 144.617184 251.455034 
L 143.232459 251.742346 
L 141.142025 251.836353 
L 139.140648 251.449938 
L 136.949072 251.060806 
L 133.856349 250.400572 
L 130.783426 249.784308 
L 129.272323 249.608718 
L 126.98839 249.2125 
L 126.879468 249.183747 
L 125.050445 248.700921 
L 120.86322 247.437284 
L 118.671547 246.514829 
L 114.132462 244.615322 
L 110.85648 243.232538 
L 108.641706 242.501204 
L 106.79607 241.895181 
L 104.028513 241.274355 
L 99.721364 240.237607 
L 97.294552 239.896327 
L 95.327924 239.867499 
L 93.96334 240.015135 
L 91.494694 240.618295 
L 89.838576 240.474493 
L 87.003801 240.31225 
L 85.243096 240.29803 
L 82.175367 240.586457 
L 79.63596 240.95773 
L 77.475397 241.095707 
L 75.129537 241.370061 
L 72.299713 241.894695 
L 71.130083 242.226802 
L 69.518712 242.917903 
L 68.560441 243.460689 
L 67.639491 244.113789 
L 66.414875 242.490867 
L 66.084078 241.936482 
L 65.893783 241.82544 
L 65.171621 241.608791 
L 65.034954 241.49309 
L 64.928571 241.084691 
L 65.074557 240.665371 
L 64.92697 240.392813 
L 64.703333 240.184707 
L 63.541614 239.530927 
L 63.342777 239.311949 
L 63.230958 238.946986 
L 63.211545 238.662004 
L 63.270561 238.33742 
L 63.525259 237.892475 
L 63.835089 237.593516 
L 64.593747 237.011176 
L 65.081448 236.710664 
L 65.966339 236.298576 
L 66.397112 236.030338 
L 66.806239 235.694397 
L 66.844937 235.651106 
L 67.619933 234.784124 
L 68.008192 234.225808 
L 68.560296 233.23269 
L 68.679103 232.946155 
L 68.815721 232.24729 
L 69.103033 231.304646 
L 69.995252 229.690314 
L 70.116388 229.555977 
L 72.341936 228.051911 
L 72.407164 227.934657 
L 72.435118 227.515337 
L 72.518206 227.28937 
L 73.229427 226.615802 
L 73.325833 226.524501 
L 74.144331 226.463932 
L 74.295752 226.367693 
L 74.364862 226.22326 
L 74.307399 226.008942 
L 74.229748 225.921195 
L 73.539375 225.744149 
L 72.801683 225.153996 
L 72.681323 224.918711 
L 72.758975 224.783597 
L 73.182177 224.530452 
L 74.217323 223.628187 
L 74.274786 222.431622 
L 74.419218 222.37183 
L 74.57918 222.537956 
L 74.681681 222.536403 
L 74.907647 222.237493 
L 74.444843 221.67607 
L 74.262824 221.040942 
L 74.152872 220.657279 
L 73.827511 220.330414 
L 73.491231 219.710753 
L 73.318989 218.914192 
L 73.402756 218.492445 
L 73.687204 218.166357 
L 74.088858 217.317477 
L 74.067683 217.247941 
L 73.982669 216.968772 
L 73.892351 215.906399 
L 73.9866 215.727509 
L 74.014846 215.452136 
L 73.915986 215.106101 
L 73.795965 214.957835 
L 73.640613 214.816605 
L 73.42877 214.781274 
L 73.160095 214.775256 
L 72.457395 214.354966 
L 71.407689 213.086815 
L 71.216617 213.072304 
L 71.141052 212.922097 
L 71.600653 211.81323 
L 71.622881 211.107424 
L 71.493785 210.313046 
L 71.537464 210.150657 
L 71.83919 209.866015 
L 72.135431 209.830392 
L 72.382386 209.576056 
L 73.252597 208.679835 
L 74.206209 208.232464 
L 74.442319 207.716274 
L 74.44096 207.558301 
L 74.051876 206.883216 
L 73.526126 205.123531 
L 73.844546 204.522021 
L 73.640468 203.93177 
L 72.990183 203.586754 
L 72.744027 203.378598 
L 72.381975 202.912251 
L 72.918646 202.65634 
L 73.081132 202.067351 
L 72.98897 201.605857 
L 72.984213 201.237837 
L 73.731126 200.538534 
L 74.681632 200.252048 
L 74.843488 200.330816 
L 74.952782 200.387016 
L 75.096098 200.339212 
L 75.246258 200.168572 
L 75.314543 199.991138 
L 75.266738 199.834135 
L 75.141331 199.589144 
L 75.057661 198.756329 
L 75.155745 198.001069 
L 75.774338 197.162866 
L 76.520911 196.573198 
L 77.334216 196.433716 
L 77.737472 196.099717 
L 78.16509 195.361103 
L 78.180572 194.926108 
L 78.403335 194.447676 
L 78.645609 194.250003 
L 78.72559 194.003168 
L 78.717097 193.709887 
L 78.330343 193.258682 
L 78.260408 193.087702 
L 78.812317 192.327928 
L 79.536857 192.020767 
L 79.679154 191.352282 
L 79.704148 190.919325 
L 79.952439 190.434875 
L 80.237324 190.173577 
L 80.67858 190.12883 
L 80.972686 189.971149 
L 81.049222 189.897331 
L 81.418505 189.062478 
L 81.439422 188.567496 
L 81.218794 188.332891 
L 81.197639 186.932838 
L 81.197197 186.903613 
L 80.866643 186.666484 
L 80.768462 186.461969 
L 80.752107 185.98742 
L 80.923911 185.660166 
L 81.30028 185.349268 
L 81.341193 184.874767 
L 81.521151 184.514754 
L 81.652091 184.400218 
L 81.766627 184.375709 
L 81.856606 184.40842 
L 81.979927 184.445935 
L 82.540621 184.228996 
L 82.773042 183.962019 
L 82.768286 183.50698 
L 82.462338 182.959292 
L 81.623117 182.162294 
L 81.104209 181.960011 
L 80.743177 181.635087 
L 80.552251 181.167575 
L 80.656207 180.725882 
L 80.742789 180.492005 
L 80.838058 180.344806 
L 81.002631 180.275502 
L 81.344541 180.376255 
L 82.123728 180.154025 
L 83.219734 179.418081 
L 83.245748 179.132322 
L 83.219734 178.985075 
L 82.913738 178.729892 
L 82.526886 178.058399 
L 82.485634 177.884362 
L 82.622155 177.772592 
L 82.812693 177.625344 
L 82.925288 177.400154 
L 82.778041 177.131673 
L 82.535574 176.941135 
L 82.094463 176.780784 
L 81.778275 176.538802 
L 81.565218 176.144622 
L 81.533235 175.846294 
L 81.629135 175.462792 
L 82.033992 175.057935 
L 82.119215 174.653078 
L 82.087232 174.312187 
L 81.872525 173.971441 
L 81.863498 173.619678 
L 81.863498 173.342704 
L 81.906109 173.140276 
L 82.088445 172.967307 
L 82.254571 172.868252 
L 82.501407 171.79098 
L 82.425551 171.614031 
L 82.338678 171.55817 
L 81.667281 171.510268 
L 81.492131 171.558602 
L 81.486838 171.560063 
L 81.084311 171.710173 
L 80.665962 171.94837 
L 80.197528 172.44107 
L 79.746759 172.530418 
L 79.245663 172.088871 
L 79.173835 172.017092 
L 79.070218 171.70731 
L 78.835079 170.597763 
L 78.979172 170.118118 
L 78.979172 169.850802 
L 78.933503 169.687782 
L 78.829207 169.537817 
L 78.711807 169.420466 
L 78.411926 169.211825 
L 78.397317 168.695683 
L 78.495353 168.35421 
L 78.512145 167.978375 
L 78.201489 167.412973 
L 77.125382 167.486597 
L 76.422245 166.893143 
L 75.843545 166.105027 
L 75.527503 165.956275 
L 75.110173 165.920798 
L 74.972292 165.756031 
L 74.925168 165.529433 
L 75.438349 164.527337 
L 75.867278 163.433952 
L 75.994141 163.32854 
L 76.050439 163.206529 
L 76.097369 163.093886 
L 76.087954 163.000024 
L 76.031657 162.906211 
L 75.843933 162.784201 
L 75.806418 162.521398 
L 75.881497 162.361824 
L 75.862715 162.155367 
L 75.782686 161.775504 
L 75.711731 161.476157 
L 75.591711 161.26606 
L 74.536181 160.697698 
L 74.257362 160.700513 
L 74.098759 160.625433 
L 74.108514 160.236252 
L 74.45188 159.774758 
L 74.290413 159.319768 
L 73.878567 159.066865 
L 71.934362 157.819827 
L 71.91524 157.500193 
L 71.91524 157.322904 
L 72.013712 157.224432 
L 72.122085 157.175172 
L 72.302771 157.099364 
L 72.531698 157.046609 
L 72.831142 156.682762 
L 72.939467 156.456262 
L 73.077347 156.101685 
L 73.037987 155.737304 
L 72.712966 155.658536 
L 72.427353 155.569867 
L 72.378141 155.471395 
L 72.340335 155.32473 
L 72.319029 155.205486 
L 72.230409 155.077458 
L 72.062972 155.03805 
L 71.91524 155.028198 
L 71.816768 155.057754 
L 71.721596 155.070906 
L 71.420598 155.138754 
L 70.412436 155.068334 
L 70.079892 154.97321 
L 69.575156 154.648044 
L 68.580485 153.639444 
L 68.474587 153.474677 
L 68.368108 152.99377 
L 67.787369 152.116257 
L 67.570964 151.491936 
L 67.635318 151.117267 
L 68.13059 150.643785 
L 68.318653 150.756526 
L 68.573933 150.740607 
L 68.663966 150.359537 
L 68.665125 150.354629 
L 68.606935 149.122733 
L 68.236925 148.485503 
L 68.19805 148.199308 
L 68.412126 147.857252 
L 68.636637 147.945629 
L 69.264937 147.289569 
L 69.363312 146.924509 
L 69.351567 146.701405 
L 69.316381 146.560516 
L 69.129483 146.38842 
L 68.982236 146.327803 
L 68.774372 146.232534 
L 68.713755 146.016032 
L 68.722442 145.669608 
L 68.557869 145.193263 
L 68.289437 144.924442 
L 67.994942 144.370494 
L 68.020907 143.946127 
L 68.155293 143.712444 
L 68.385579 143.023818 
L 68.344569 142.949127 
L 68.150052 142.820856 
L 67.968249 142.700204 
L 67.800716 142.550628 
L 67.693023 142.28734 
L 67.693023 142.024052 
L 67.543397 141.808665 
L 67.240701 141.64249 
L 66.891171 141.475248 
L 66.040545 140.923435 
L 65.853986 140.689315 
L 65.851026 139.769627 
L 65.633967 139.606278 
L 65.399918 139.430143 
L 65.204235 138.978404 
L 65.153373 138.455274 
L 64.775597 138.179173 
L 64.537449 137.854929 
L 64.57215 137.568831 
L 64.397773 137.343592 
L 64.165255 137.220077 
L 63.855036 137.233812 
L 63.678427 137.336361 
L 63.467748 137.379943 
L 63.286091 137.30001 
L 63.053573 137.103842 
L 62.930058 136.704227 
L 62.784752 136.551641 
L 62.515931 136.471708 
L 62.030365 136.374692 
L 61.148727 135.898056 
L 60.869714 135.605163 
L 59.154811 132.923783 
L 58.870036 132.478515 
L 58.354671 132.234786 
L 57.911619 132.401155 
L 57.74559 132.402853 
L 57.702541 132.069776 
L 57.703512 129.315711 
L 57.721129 126.214397 
L 57.700988 125.95965 
L 57.704434 125.338776 
L 57.708802 124.361286 
L 57.711326 123.937647 
L 57.710015 123.934347 
L 57.707369 122.521524 
L 57.705356 121.446967 
L 57.701959 118.948813 
L 57.701911 118.945124 
L 57.701619 114.389732 
L 57.700455 113.915426 
L 57.693757 112.995689 
L 57.692689 112.625145 
L 57.693854 112.589182 
L 57.689632 110.897927 
L 57.693417 110.685161 
L 57.69366 109.205167 
L 57.695019 109.158479 
L 57.693709 109.082866 
L 57.689195 108.835448 
L 57.691136 108.72591 
L 57.685458 108.529888 
L 57.684633 108.420156 
L 57.693272 108.114839 
L 57.694534 107.518231 
L 57.685021 107.107259 
L 57.684837 106.968845 
L 57.682061 104.880158 
L 57.684924 104.649193 
L 57.692884 102.42248 
L 57.692398 102.028495 
L 57.692544 101.846256 
L 57.697494 100.958599 
L 57.69963 100.805188 
L 57.693175 100.239253 
L 57.681818 98.399731 
L 57.681818 98.399682 
" clip-path="url(#pe77b6dd494)" style="fill: #88ff00"/>
   </g>
   <g id="PathCollection_1">
    <defs>
     <path id="mc9c1099cbf" d="M 0 1.581139 
C 0.419323 1.581139 0.821528 1.41454 1.118034 1.118034 
C 1.41454 0.821528 1.581139 0.419323 1.581139 0 
C 1.581139 -0.419323 1.41454 -0.821528 1.118034 -1.118034 
C 0.821528 -1.41454 0.419323 -1.581139 0 -1.581139 
C -0.419323 -1.581139 -0.821528 -1.41454 -1.118034 -1.118034 
C -1.41454 -0.821528 -1.581139 -0.419323 -1.581139 0 
C -1.581139 0.419323 -1.41454 0.821528 -1.118034 1.118034 
C -0.821528 1.41454 -0.419323 1.581139 0 1.581139 
z
" style="stroke: #000000"/>
    </defs>
    <g clip-path="url(#pe77b6dd494)">
     <use xlink:href="#mc9c1099cbf" x="196.278267" y="206.91617" style="stroke: #000000"/>
    </g>
   </g>
   <g id="text_1">
    <!-- Baton Rouge -->
    <g transform="translate(199.278267 203.91617) scale(0.1 -0.1)">
     <defs>
      <path id="DejaVuSans-42" d="M 1259 2228 
L 1259 519 
L 2272 519 
Q 2781 519 3026 730 
Q 3272 941 3272 1375 
Q 3272 1813 3026 2020 
Q 2781 2228 2272 2228 
L 1259 2228 
z
M 1259 4147 
L 1259 2741 
L 2194 2741 
Q 2656 2741 2882 2914 
Q 3109 3088 3109 3444 
Q 3109 3797 2882 3972 
Q 2656 4147 2194 4147 
L 1259 4147 
z
M 628 4666 
L 2241 4666 
Q 2963 4666 3353 4366 
Q 3744 4066 3744 3513 
Q 3744 3084 3544 2831 
Q 3344 2578 2956 2516 
Q 3422 2416 3680 2098 
Q 3938 1781 3938 1306 
Q 3938 681 3513 340 
Q 3088 0 2303 0 
L 628 0 
L 628 4666 
z
" transform="scale(0.015625)"/>
      <path id="DejaVuSans-61" d="M 2194 1759 
Q 1497 1759 1228 1600 
Q 959 1441 959 1056 
Q 959 750 1161 570 
Q 1363 391 1709 391 
Q 2188 391 2477 730 
Q 2766 1069 2766 1631 
L 2766 1759 
L 2194 1759 
z
M 3341 1997 
L 3341 0 
L 2766 0 
L 2766 531 
Q 2569 213 2275 61 
Q 1981 -91 1556 -91 
Q 1019 -91 701 211 
Q 384 513 384 1019 
Q 384 1609 779 1909 
Q 1175 2209 1959 2209 
L 2766 2209 
L 2766 2266 
Q 2766 2663 2505 2880 
Q 2244 3097 1772 3097 
Q 1472 3097 1187 3025 
Q 903 2953 641 2809 
L 641 3341 
Q 956 3463 1253 3523 
Q 1550 3584 1831 3584 
Q 2591 3584 2966 3190 
Q 3341 2797 3341 1997 
z
" transform="scale(0.015625)"/>
      <path id="DejaVuSans-74" d="M 1172 4494 
L 1172 3500 
L 2356 3500 
L 2356 3053 
L 1172 3053 
L 1172 1153 
Q 1172 725 1289 603 
Q 1406 481 1766 481 
L 2356 481 
L 2356 0 
L 1766 0 
Q 1100 0 847 248 
Q 594 497 594 1153 
L 594 3053 
L 172 3053 
L 172 3500 
L 594 3500 
L 594 4494 
L 1172 4494 
z
" transform="scale(0.015625)"/>
      <path id="DejaVuSans-6f" d="M 1959 3097 
Q 1497 3097 1228 2736 
Q 959 2375 959 1747 
Q 959 1119 1226 758 
Q 1494 397 1959 397 
Q 2419 397 2687 759 
Q 2956 1122 2956 1747 
Q 2956 2369 2687 2733 
Q 2419 3097 1959 3097 
z
M 1959 3584 
Q 2709 3584 3137 3096 
Q 3566 2609 3566 1747 
Q 3566 888 3137 398 
Q 2709 -91 1959 -91 
Q 1206 -91 779 398 
Q 353 888 353 1747 
Q 353 2609 779 3096 
Q 1206 3584 1959 3584 
z
" transform="scale(0.015625)"/>
      <path id="DejaVuSans-6e" d="M 3513 2113 
L 3513 0 
L 2938 0 
L 2938 2094 
Q 2938 2591 2744 2837 
Q 2550 3084 2163 3084 
Q 1697 3084 1428 2787 
Q 1159 2491 1159 1978 
L 1159 0 
L 581 0 
L 581 3500 
L 1159 3500 
L 1159 2956 
Q 1366 3272 1645 3428 
Q 1925 3584 2291 3584 
Q 2894 3584 3203 3211 
Q 3513 2838 3513 2113 
z
" transform="scale(0.015625)"/>
      <path id="DejaVuSans-20" transform="scale(0.015625)"/>
      <path id="DejaVuSans-52" d="M 2841 2188 
Q 3044 2119 3236 1894 
Q 3428 1669 3622 1275 
L 4263 0 
L 3584 0 
L 2988 1197 
Q 2756 1666 2539 1819 
Q 2322 1972 1947 1972 
L 1259 1972 
L 1259 0 
L 628 0 
L 628 4666 
L 2053 4666 
Q 2853 4666 3247 4331 
Q 3641 3997 3641 3322 
Q 3641 2881 3436 2590 
Q 3231 2300 2841 2188 
z
M 1259 4147 
L 1259 2491 
L 2053 2491 
Q 2509 2491 2742 2702 
Q 2975 2913 2975 3322 
Q 2975 3731 2742 3939 
Q 2509 4147 2053 4147 
L 1259 4147 
z
" transform="scale(0.015625)"/>
      <path id="DejaVuSans-75" d="M 544 1381 
L 544 3500 
L 1119 3500 
L 1119 1403 
Q 1119 906 1312 657 
Q 1506 409 1894 409 
Q 2359 409 2629 706 
Q 2900 1003 2900 1516 
L 2900 3500 
L 3475 3500 
L 3475 0 
L 2900 0 
L 2900 538 
Q 2691 219 2414 64 
Q 2138 -91 1772 -91 
Q 1169 -91 856 284 
Q 544 659 544 1381 
z
M 1991 3584 
L 1991 3584 
z
" transform="scale(0.015625)"/>
      <path id="DejaVuSans-67" d="M 2906 1791 
Q 2906 2416 2648 2759 
Q 2391 3103 1925 3103 
Q 1463 3103 1205 2759 
Q 947 2416 947 1791 
Q 947 1169 1205 825 
Q 1463 481 1925 481 
Q 2391 481 2648 825 
Q 2906 1169 2906 1791 
z
M 3481 434 
Q 3481 -459 3084 -895 
Q 2688 -1331 1869 -1331 
Q 1566 -1331 1297 -1286 
Q 1028 -1241 775 -1147 
L 775 -588 
Q 1028 -725 1275 -790 
Q 1522 -856 1778 -856 
Q 2344 -856 2625 -561 
Q 2906 -266 2906 331 
L 2906 616 
Q 2728 306 2450 153 
Q 2172 0 1784 0 
Q 1141 0 747 490 
Q 353 981 353 1791 
Q 353 2603 747 3093 
Q 1141 3584 1784 3584 
Q 2172 3584 2450 3431 
Q 2728 3278 2906 2969 
L 2906 3500 
L 3481 3500 
L 3481 434 
z
" transform="scale(0.015625)"/>
      <path id="DejaVuSans-65" d="M 3597 1894 
L 3597 1613 
L 953 1613 
Q 991 1019 1311 708 
Q 1631 397 2203 397 
Q 2534 397 2845 478 
Q 3156 559 3463 722 
L 3463 178 
Q 3153 47 2828 -22 
Q 2503 -91 2169 -91 
Q 1331 -91 842 396 
Q 353 884 353 1716 
Q 353 2575 817 3079 
Q 1281 3584 2069 3584 
Q 2775 3584 3186 3129 
Q 3597 2675 3597 1894 
z
M 3022 2063 
Q 3016 2534 2758 2815 
Q 2500 3097 2075 3097 
Q 1594 3097 1305 2825 
Q 1016 2553 972 2059 
L 3022 2063 
z
" transform="scale(0.015625)"/>
     </defs>
     <use xlink:href="#DejaVuSans-42"/>
     <use xlink:href="#DejaVuSans-61" x="68.603516"/>
     <use xlink:href="#DejaVuSans-74" x="129.882812"/>
     <use xlink:href="#DejaVuSans-6f" x="169.091797"/>
     <use xlink:href="#DejaVuSans-6e" x="230.273438"/>
     <use xlink:href="#DejaVuSans-20" x="293.652344"/>
     <use xlink:href="#DejaVuSans-52" x="325.439453"/>
     <use xlink:href="#DejaVuSans-6f" x="390.421875"/>
     <use xlink:href="#DejaVuSans-75" x="451.603516"/>
     <use xlink:href="#DejaVuSans-67" x="514.982422"/>
     <use xlink:href="#DejaVuSans-65" x="578.458984"/>
    </g>
   </g>
   <g id="text_2">
    <!-- Louisiana -->
    <g transform="translate(156.1725 66.633208) scale(0.12 -0.12)">
     <defs>
      <path id="DejaVuSans-4c" d="M 628 4666 
L 1259 4666 
L 1259 531 
L 3531 531 
L 3531 0 
L 628 0 
L 628 4666 
z
" transform="scale(0.015625)"/>
      <path id="DejaVuSans-69" d="M 603 3500 
L 1178 3500 
L 1178 0 
L 603 0 
L 603 3500 
z
M 603 4863 
L 1178 4863 
L 1178 4134 
L 603 4134 
L 603 4863 
z
" transform="scale(0.015625)"/>
      <path id="DejaVuSans-73" d="M 2834 3397 
L 2834 2853 
Q 2591 2978 2328 3040 
Q 2066 3103 1784 3103 
Q 1356 3103 1142 2972 
Q 928 2841 928 2578 
Q 928 2378 1081 2264 
Q 1234 2150 1697 2047 
L 1894 2003 
Q 2506 1872 2764 1633 
Q 3022 1394 3022 966 
Q 3022 478 2636 193 
Q 2250 -91 1575 -91 
Q 1294 -91 989 -36 
Q 684 19 347 128 
L 347 722 
Q 666 556 975 473 
Q 1284 391 1588 391 
Q 1994 391 2212 530 
Q 2431 669 2431 922 
Q 2431 1156 2273 1281 
Q 2116 1406 1581 1522 
L 1381 1569 
Q 847 1681 609 1914 
Q 372 2147 372 2553 
Q 372 3047 722 3315 
Q 1072 3584 1716 3584 
Q 2034 3584 2315 3537 
Q 2597 3491 2834 3397 
z
" transform="scale(0.015625)"/>
     </defs>
     <use xlink:href="#DejaVuSans-4c"/>
     <use xlink:href="#DejaVuSans-6f" x="53.962891"/>
     <use xlink:href="#DejaVuSans-75" x="115.144531"/>
     <use xlink:href="#DejaVuSans-69" x="178.523438"/>
     <use xlink:href="#DejaVuSans-73" x="206.306641"/>
     <use xlink:href="#DejaVuSans-69" x="258.40625"/>
     <use xlink:href="#DejaVuSans-61" x="286.189453"/>
     <use xlink:href="#DejaVuSans-6e" x="347.46875"/>
     <use xlink:href="#DejaVuSans-61" x="410.847656"/>
    </g>
   </g>
  </g>
 </g>
 <defs>
  <clipPath id="pe77b6dd494">
   <rect x="45" y="72.633208" width="279" height="218.333584"/>
  </clipPath>
 </defs>
</svg>
