<?xml version="1.0" encoding="utf-8" standalone="no"?>
<!DOCTYPE svg PUBLIC "-//W3C//DTD SVG 1.1//EN"
  "http://www.w3.org/Graphics/SVG/1.1/DTD/svg11.dtd">
<svg xmlns:xlink="http://www.w3.org/1999/xlink" width="460.8pt" height="345.6pt" viewBox="0 0 460.8 345.6" xmlns="http://www.w3.org/2000/svg" version="1.1">
 <metadata>
  <rdf:RDF xmlns:dc="http://purl.org/dc/elements/1.1/" xmlns:cc="http://creativecommons.org/ns#" xmlns:rdf="http://www.w3.org/1999/02/22-rdf-syntax-ns#">
   <cc:Work>
    <dc:type rdf:resource="http://purl.org/dc/dcmitype/StillImage"/>
    <dc:date>2023-06-19T14:47:49.841661</dc:date>
    <dc:format>image/svg+xml</dc:format>
    <dc:creator>
     <cc:Agent>
      <dc:title>Matplotlib v3.7.1, https://matplotlib.org/</dc:title>
     </cc:Agent>
    </dc:creator>
   </cc:Work>
  </rdf:RDF>
 </metadata>
 <defs>
  <style type="text/css">*{stroke-linejoin: round; stroke-linecap: butt}</style>
 </defs>
 <g id="figure_1">
  <g id="patch_1">
   <path d="M 0 345.6 
L 460.8 345.6 
L 460.8 0 
L 0 0 
z
" style="fill: #ffffff"/>
  </g>
  <g id="axes_1">
   <g id="PatchCollection_1">
    <path d="M 366.994282 266.364322 
L 368.344998 266.409763 
L 369.374858 266.955665 
L 369.813882 267.251276 
L 370.202211 268.206392 
L 370.214445 268.214487 
L 371.164599 268.843177 
L 373.055548 268.843177 
L 373.376271 268.688284 
L 374.178817 268.300694 
L 380.694252 268.393653 
L 382.597843 268.085028 
L 383.591364 267.923951 
L 383.625127 267.918477 
L 384.538362 267.753326 
L 386.307425 266.576624 
L 387.801702 264.997793 
L 389.139904 262.838002 
L 389.182693 262.368465 
L 389.369074 260.323234 
L 389.176905 259.402931 
L 388.792566 258.827834 
L 388.493656 258.310149 
L 387.847228 257.430768 
L 387.665051 257.165397 
L 387.486468 256.905264 
L 387.532027 256.448686 
L 387.53281 256.440838 
L 388.942021 257.159832 
L 390.308518 259.259157 
L 394.179075 267.316443 
L 395.583785 270.24061 
L 395.592491 271.973353 
L 395.207881 273.191954 
L 395.089713 273.448964 
L 394.248576 274.06877 
L 391.837528 275.05076 
L 390.600626 275.22043 
L 387.192365 274.643745 
L 384.432528 274.434252 
L 383.187555 274.867896 
L 381.455368 274.706524 
L 381.21943 274.684544 
L 376.502532 273.031811 
L 370.472282 269.752852 
L 368.750195 269.093347 
L 367.787807 268.320117 
L 367.180012 267.455883 
L 367.066636 266.789561 
L 366.994282 266.364322 
" clip-path="url(#p91ee14b7e4)" style="fill: #33a1ff"/>
    <path d="M 317.026926 272.578256 
L 317.864889 272.328453 
L 318.345357 271.937562 
L 318.842784 272.275194 
L 319.288882 272.722886 
L 319.04629 273.816401 
L 318.32205 273.822509 
L 317.50023 273.626331 
L 316.498211 272.728749 
L 317.026926 272.578256 
" clip-path="url(#p91ee14b7e4)" style="fill: #33a1ff"/>
    <path d="M 316.52442 230.202081 
L 317.277952 231.171367 
L 317.533422 232.502348 
L 317.461891 232.97166 
L 317.443459 233.092593 
L 316.701898 232.781835 
L 315.943287 231.428988 
L 316.52442 230.202081 
" clip-path="url(#p91ee14b7e4)" style="fill: #33a1ff"/>
    <path d="M 316.364989 261.121261 
L 318.31416 260.833101 
L 319.404238 261.070689 
L 320.945763 261.800066 
L 321.700021 261.635526 
L 322.250773 261.138362 
L 325.848935 255.704743 
L 326.289592 255.556448 
L 327.37187 254.346154 
L 327.457026 253.538722 
L 328.374342 251.649622 
L 329.689055 250.378129 
L 333.094505 247.967557 
L 337.245777 245.363739 
L 337.709287 245.514354 
L 337.905537 246.643783 
L 339.848995 247.089153 
L 340.528615 246.728924 
L 340.898262 246.983124 
L 341.805421 248.958586 
L 341.835711 250.126493 
L 341.595839 251.654874 
L 341.821835 252.501396 
L 342.323253 253.493403 
L 343.163574 254.298392 
L 344.045067 254.804229 
L 345.04237 254.966815 
L 346.00367 255.397649 
L 346.421926 256.403825 
L 346.5186 257.211747 
L 346.731446 257.340252 
L 347.475184 257.42637 
L 348.042441 257.101931 
L 349.121545 255.533728 
L 349.082459 254.357515 
L 349.286236 253.854488 
L 349.916975 253.088587 
L 351.132385 252.898272 
L 351.513096 255.85719 
L 351.237856 257.818726 
L 351.329088 261.08889 
L 351.073165 261.759511 
L 346.985102 261.968271 
L 343.164209 261.662155 
L 337.644626 261.623799 
L 327.608204 262.545934 
L 325.483642 263.21741 
L 324.187882 263.983799 
L 322.678189 265.357535 
L 322.331123 266.181702 
L 322.498806 266.547796 
L 322.27018 267.190322 
L 321.637355 267.522578 
L 319.241542 265.907102 
L 317.669727 264.318499 
L 315.913813 261.875801 
L 316.364989 261.121261 
" clip-path="url(#p91ee14b7e4)" style="fill: #33a1ff"/>
    <path d="M 73.832727 171.598705 
L 76.755074 160.880133 
L 85.135828 130.141238 
L 87.94524 119.836886 
L 95.886845 91.016299 
L 106.992901 91.313379 
L 117.828236 91.603217 
L 117.838393 91.603489 
L 126.239986 91.84444 
L 130.54483 91.967899 
L 137.226718 92.159531 
L 138.86243 92.220664 
L 148.375936 92.576223 
L 163.744241 93.1506 
L 169.021611 93.347837 
L 169.685748 93.374908 
L 173.237342 93.519671 
L 181.013963 93.836648 
L 184.671297 93.985721 
L 184.93621 93.994552 
L 192.14263 94.234772 
L 199.310983 94.473723 
L 200.532346 94.523632 
L 203.224873 94.633656 
L 203.473501 94.643816 
L 212.290704 95.004113 
L 217.041211 95.133082 
L 217.060111 95.133595 
L 219.784485 95.232798 
L 228.252987 95.541162 
L 231.230584 95.649585 
L 233.655588 95.737887 
L 242.175159 95.989063 
L 243.595335 96.030933 
L 243.994365 96.043148 
L 244.102437 96.046598 
L 252.076934 96.301144 
L 256.340112 96.437224 
L 258.89095 96.518647 
L 259.785637 96.547205 
L 260.557723 96.57185 
L 262.08312 96.620541 
L 266.201381 96.751996 
L 267.762857 96.801838 
L 269.381743 96.853513 
L 271.346785 96.971268 
L 274.611667 96.995699 
L 275.997026 95.252817 
L 276.996778 93.465471 
L 278.112248 92.182984 
L 278.149089 92.152526 
L 279.025097 91.428278 
L 279.028294 91.425634 
L 280.125627 91.07139 
L 280.987169 90.924806 
L 282.402093 91.337073 
L 282.408895 91.339516 
L 282.417057 91.342081 
L 284.805251 92.036278 
L 284.4152 85.550064 
L 284.76211 85.11478 
L 285.476347 84.218594 
L 286.083961 83.510105 
L 286.213752 83.401882 
L 286.274407 83.351306 
L 287.716357 82.520664 
L 289.276201 81.79996 
L 290.795188 82.252284 
L 295.470417 83.644474 
L 296.431717 80.370767 
L 296.434957 80.362897 
L 296.984917 79.027082 
L 297.266052 78.452962 
L 298.463142 77.194783 
L 300.872037 76.698312 
L 301.340358 76.601792 
L 304.330788 75.985466 
L 305.899792 75.118178 
L 307.486843 74.128737 
L 307.568463 74.079876 
L 307.855946 73.989849 
L 309.010413 73.83557 
L 309.011592 73.838623 
L 309.044309 73.838747 
L 310.110557 73.842777 
L 311.61889 74.321617 
L 315.020712 76.9688 
L 316.040868 76.473224 
L 316.63769 75.994139 
L 317.456246 75.632321 
L 317.861896 75.582239 
L 317.822447 78.230154 
L 318.48231 83.118897 
L 318.957052 86.636128 
L 319.881695 90.132623 
L 320.077329 90.872402 
L 321.945515 95.276514 
L 322.110024 96.038751 
L 321.375537 96.808805 
L 321.364745 97.407111 
L 322.657058 98.380917 
L 324.078058 98.597372 
L 324.470287 98.815538 
L 325.794976 100.341231 
L 325.883397 101.040559 
L 326.118715 101.125402 
L 329.460429 102.330252 
L 330.077838 102.182936 
L 330.168526 101.228064 
L 331.805093 99.363884 
L 333.478027 97.920032 
L 334.840533 97.519858 
L 335.751591 98.093124 
L 335.49467 99.560917 
L 335.408425 100.844625 
L 335.50129 101.407507 
L 336.22417 101.801207 
L 337.978632 101.473103 
L 337.979724 101.477765 
L 338.296266 102.829068 
L 338.317082 102.917932 
L 338.34184 103.979077 
L 338.111037 104.564313 
L 337.059321 104.580437 
L 335.89769 105.344872 
L 334.336485 108.813657 
L 332.605058 111.013514 
L 331.683661 111.233146 
L 331.399352 111.074835 
L 331.390918 110.631541 
L 331.357092 110.108481 
L 331.179886 109.79015 
L 330.985722 109.540102 
L 330.698783 109.494539 
L 330.420187 109.528742 
L 330.18358 109.67728 
L 329.904804 110.204371 
L 328.628633 111.604858 
L 327.04253 112.008807 
L 325.806947 112.323486 
L 325.139841 111.669599 
L 323.304394 112.452357 
L 320.005098 113.293533 
L 319.05944 113.534635 
L 318.034658 114.438569 
L 317.318218 114.768382 
L 315.032773 114.927182 
L 312.95691 115.390265 
L 312.868489 115.811937 
L 312.948281 116.171516 
L 313.408166 118.243972 
L 313.419694 118.295923 
L 314.01171 118.561729 
L 314.249858 118.433346 
L 315.613271 118.677286 
L 316.610846 120.6194 
L 316.166472 122.219607 
L 315.658616 122.573851 
L 315.132621 122.097454 
L 314.18946 122.244038 
L 312.203288 123.6488 
L 311.586514 124.699195 
L 311.450572 125.077992 
L 311.514054 125.34673 
L 310.879233 125.835342 
L 309.62773 125.102423 
L 308.757029 124.968055 
L 308.367067 125.126854 
L 307.87761 125.795812 
L 307.848328 125.835831 
L 307.864483 126.923198 
L 307.895849 129.034535 
L 309.165218 129.890707 
L 309.600524 130.19609 
L 310.180931 130.794641 
L 309.845383 131.295469 
L 307.061151 131.063378 
L 306.435218 128.846175 
L 306.40647 126.910779 
L 305.659649 126.846038 
L 304.877641 127.634659 
L 304.86155 127.925254 
L 304.844539 128.232477 
L 302.83497 130.342796 
L 302.408733 131.234515 
L 302.145645 132.406942 
L 302.270661 132.948196 
L 302.272609 132.956631 
L 302.646881 133.024671 
L 302.795792 133.732548 
L 303.07602 134.3107 
L 303.767974 134.499426 
L 303.995693 134.735426 
L 303.85558 134.853304 
L 303.785477 135.101153 
L 303.767974 135.502182 
L 303.811777 136.044909 
L 305.528604 139.418537 
L 305.55309 140.117864 
L 304.59578 139.765208 
L 303.569275 138.667905 
L 303.113112 138.602065 
L 302.89952 138.658486 
L 301.451152 139.041083 
L 300.669053 139.743342 
L 300.506139 140.267318 
L 299.972756 141.982828 
L 299.870721 142.311003 
L 300.018362 143.148974 
L 301.488787 142.899049 
L 302.038421 143.889159 
L 302.50187 144.724018 
L 300.969776 146.06636 
L 300.734258 146.94171 
L 300.796993 147.303761 
L 300.848344 147.600116 
L 301.646676 149.004633 
L 302.282132 149.465517 
L 304.253612 149.377689 
L 305.263158 149.056915 
L 305.153153 147.923944 
L 305.476864 147.350249 
L 305.950487 146.510875 
L 307.162813 145.232664 
L 308.775438 144.794745 
L 309.676339 144.525641 
L 311.924692 144.40703 
L 312.06272 145.40832 
L 313.003071 147.240008 
L 313.825254 148.425261 
L 314.796892 149.36523 
L 316.612297 149.468571 
L 317.193999 149.650501 
L 318.365581 150.016917 
L 320.453052 151.118128 
L 321.178702 151.378057 
L 322.063682 151.695058 
L 322.626587 152.322315 
L 323.557868 154.202131 
L 324.216086 155.039736 
L 324.393955 155.196044 
L 325.727866 156.368274 
L 326.479766 156.732413 
L 326.802799 159.554885 
L 327.202373 161.517888 
L 327.931237 162.207565 
L 329.831074 165.885843 
L 330.36161 166.710895 
L 331.77036 168.901684 
L 333.925303 171.308469 
L 334.078476 172.170137 
L 333.274159 172.811197 
L 333.241984 173.217777 
L 333.19789 173.774986 
L 333.6497 175.927326 
L 333.547313 176.529053 
L 332.954481 176.486055 
L 331.278011 177.601436 
L 331.106758 179.174512 
L 331.068883 179.522418 
L 331.445604 180.630348 
L 331.135267 181.18419 
L 330.422092 181.462211 
L 329.696582 180.576112 
L 328.879387 180.505018 
L 327.392547 181.208621 
L 327.499848 181.744243 
L 327.589341 182.190977 
L 328.591723 183.710685 
L 330.885407 185.954358 
L 331.902312 186.94909 
L 332.882021 187.180081 
L 333.182019 186.817164 
L 334.734064 188.184914 
L 335.435813 189.064661 
L 336.072629 189.43955 
L 336.827612 189.378839 
L 337.742479 188.515094 
L 339.058008 188.242082 
L 341.835892 190.729854 
L 342.430356 192.304409 
L 342.337491 192.892821 
L 342.469987 193.476225 
L 343.727385 195.6249 
L 344.318403 199.391861 
L 343.418772 201.755404 
L 342.822222 202.747044 
L 342.722192 203.579763 
L 342.916084 204.641518 
L 343.25532 205.239451 
L 343.675511 205.980073 
L 345.058059 207.671041 
L 347.176818 209.756196 
L 349.21695 211.261124 
L 354.574472 213.358006 
L 357.213895 213.895854 
L 357.942195 214.044263 
L 365.594865 214.589921 
L 367.023574 215.587791 
L 367.162232 215.895243 
L 367.287841 216.17376 
L 368.070937 217.05705 
L 368.474411 217.076717 
L 370.683133 214.660648 
L 372.385993 213.530975 
L 374.818172 212.431474 
L 375.469135 212.565476 
L 379.145925 211.443254 
L 380.919341 211.593625 
L 383.269719 210.652068 
L 386.148811 209.882991 
L 388.966699 208.490679 
L 389.738267 208.109448 
L 391.213953 206.469908 
L 391.632934 205.525175 
L 391.574531 201.823199 
L 391.163984 197.205929 
L 391.964311 195.946163 
L 391.716368 195.533652 
L 390.879131 195.369844 
L 389.774452 194.494739 
L 389.663993 192.921527 
L 389.212001 190.789343 
L 387.900825 190.680016 
L 387.042094 191.007753 
L 387.065764 191.79161 
L 386.420151 193.140059 
L 386.214288 195.27261 
L 385.722937 196.19218 
L 384.979109 194.103115 
L 385.269857 189.629376 
L 384.960155 183.906864 
L 384.383919 180.664428 
L 383.857653 179.094149 
L 383.31198 178.124741 
L 382.181546 176.809273 
L 380.822758 175.823862 
L 378.532779 174.567883 
L 377.886985 174.511815 
L 376.584152 174.83833 
L 375.79634 175.24339 
L 375.039271 175.972645 
L 374.34641 177.313888 
L 374.265788 177.962155 
L 374.471741 178.766778 
L 375.08652 179.532434 
L 375.049065 179.703938 
L 374.674884 179.688791 
L 374.143539 179.395501 
L 373.116672 178.381507 
L 372.147664 176.534794 
L 370.82769 175.085324 
L 370.318111 174.74757 
L 369.895048 174.736577 
L 369.727728 174.350084 
L 370.389574 173.232993 
L 371.519645 172.53391 
L 373.217971 172.130926 
L 374.813547 172.077545 
L 377.456123 172.530612 
L 381.46438 173.873075 
L 384.488302 175.458746 
L 386.673263 177.204805 
L 388.9432 179.968766 
L 390.902347 183.39101 
L 393.243293 188.292164 
L 394.829165 192.921405 
L 396.940759 201.041907 
L 397.789786 205.414993 
L 398.451813 213.742422 
L 398.487273 219.795115 
L 397.471288 222.360455 
L 396.733536 225.451542 
L 396.409777 226.012836 
L 395.810688 228.509037 
L 394.956673 229.536101 
L 393.419138 233.343373 
L 393.050126 236.529618 
L 392.801548 237.907628 
L 391.703672 238.599504 
L 390.963017 237.845575 
L 390.747451 236.976454 
L 391.200078 236.1292 
L 392.27111 234.639052 
L 392.687371 230.591139 
L 393.290904 228.594056 
L 394.02385 227.235956 
L 394.416078 225.259883 
L 394.183371 224.432295 
L 392.311558 222.789823 
L 391.345542 222.25296 
L 390.692584 222.205076 
L 389.320011 222.721417 
L 386.946055 223.075784 
L 383.888487 223.323755 
L 381.302055 224.15964 
L 379.205416 224.837233 
L 377.596237 224.835401 
L 374.654298 225.468033 
L 370.629284 227.127938 
L 369.684016 227.517764 
L 368.746023 228.468238 
L 368.817667 228.853876 
L 368.438498 229.669615 
L 367.910418 229.856509 
L 367.714259 229.663629 
L 367.523813 228.825292 
L 367.574326 227.852097 
L 367.085333 226.974426 
L 366.468832 226.705933 
L 365.625427 226.69726 
L 364.715548 227.391824 
L 363.71489 227.64859 
L 362.816981 227.269915 
L 362.061001 226.772751 
L 361.322523 226.557761 
L 360.09215 226.759436 
L 359.301527 227.201387 
L 358.8898 227.732509 
L 358.903222 228.105076 
L 358.439803 229.055795 
L 357.596671 229.608783 
L 355.653213 230.216983 
L 354.931876 230.09935 
L 352.328114 230.345611 
L 351.598706 231.99639 
L 351.136786 232.77446 
L 350.148685 234.438843 
L 348.790351 236.06568 
L 347.945586 236.585808 
L 347.249732 236.854545 
L 344.612234 237.230655 
L 344.117242 237.241987 
L 343.767635 237.24999 
L 343.690885 237.251747 
L 341.326146 237.305882 
L 341.242686 237.307793 
L 341.223925 237.308223 
L 338.582951 237.677917 
L 336.563254 237.960643 
L 334.520402 238.539038 
L 333.611702 239.259376 
L 332.661557 240.887923 
L 331.777161 241.497956 
L 331.263668 241.582469 
L 330.732156 241.669948 
L 328.029453 243.617803 
L 325.388147 244.881112 
L 323.314551 246.886623 
L 323.377126 247.367907 
L 322.979728 247.982338 
L 320.312847 249.766752 
L 317.845391 249.861665 
L 316.177717 250.3118 
L 314.213311 252.279688 
L 313.359205 252.693666 
L 310.11101 252.854541 
L 307.804435 253.49951 
L 306.980529 254.008034 
L 305.969441 254.304256 
L 305.732381 253.988612 
L 305.839756 253.555457 
L 307.807337 251.60809 
L 308.212443 251.675152 
L 310.269896 251.218665 
L 312.148149 250.789175 
L 314.418539 249.454895 
L 316.841649 248.531905 
L 319.232202 247.992476 
L 320.53966 246.31348 
L 321.673358 245.964611 
L 323.61074 244.157842 
L 324.413516 243.093888 
L 328.970911 240.079872 
L 332.24847 237.91227 
L 332.643601 237.113266 
L 332.547199 236.188322 
L 332.680148 235.252384 
L 333.144383 234.677042 
L 333.691417 234.369827 
L 333.854657 233.76639 
L 333.755625 233.065108 
L 332.811647 230.360147 
L 332.853635 229.752557 
L 333.940357 227.989642 
L 333.464423 226.898691 
L 332.796683 226.375631 
L 332.995745 225.597149 
L 334.058978 224.958898 
L 334.15538 224.330297 
L 334.03099 223.869523 
L 333.368566 221.415721 
L 333.098586 221.109117 
L 331.993091 221.009806 
L 333.399944 219.539326 
L 335.261056 218.941141 
L 335.423207 217.877553 
L 335.162296 217.193862 
L 333.676333 216.532471 
L 333.519744 216.462775 
L 332.93462 216.861605 
L 332.435561 216.899961 
L 331.178888 216.104621 
L 327.756299 214.999501 
L 326.799897 214.415487 
L 326.111388 214.783046 
L 325.940047 215.607747 
L 325.875417 215.918826 
L 326.567462 217.19716 
L 326.916704 219.516605 
L 326.724081 220.613297 
L 325.833518 220.22998 
L 324.473098 219.151734 
L 323.479967 219.47434 
L 322.923683 221.61422 
L 322.922216 221.634618 
L 322.843967 222.722517 
L 323.221413 223.517734 
L 323.27365 224.367921 
L 322.56256 225.918045 
L 322.212956 225.970571 
L 321.81973 225.495639 
L 321.625293 224.993345 
L 321.542676 224.796556 
L 318.603548 224.102604 
L 318.225558 224.196295 
L 318.004005 224.547364 
L 317.947597 225.378128 
L 319.007475 225.969105 
L 319.410949 227.117834 
L 319.334045 227.391457 
L 318.498258 227.958248 
L 316.229501 227.999902 
L 315.514846 227.516809 
L 315.425183 227.456198 
L 314.667661 227.708323 
L 314.42788 228.047176 
L 315.510249 231.416162 
L 314.8796 231.787019 
L 314.612976 232.545346 
L 314.583411 233.171504 
L 314.088716 232.27244 
L 313.354761 230.938543 
L 313.18589 229.247891 
L 313.181637 229.20531 
L 313.230971 228.228085 
L 313.116341 227.868466 
L 312.840557 227.598751 
L 311.340204 226.977236 
L 310.854385 228.051451 
L 309.901701 228.078569 
L 309.838781 228.126745 
L 309.164311 228.643161 
L 309.951489 229.730936 
L 310.363306 231.790073 
L 310.236342 231.912226 
L 309.380876 231.545522 
L 308.857874 230.082493 
L 308.541099 229.676089 
L 307.897391 229.621975 
L 307.666135 229.838675 
L 307.663511 229.953591 
L 307.640923 230.942696 
L 307.877349 231.721667 
L 307.519582 232.926586 
L 306.917409 233.755274 
L 306.590023 233.313323 
L 306.107288 233.306605 
L 305.936249 233.557141 
L 306.07201 234.214203 
L 306.930831 235.242734 
L 307.500809 238.305115 
L 306.572158 238.310978 
L 306.014967 239.571477 
L 305.527969 241.378368 
L 304.797472 239.584181 
L 303.176775 239.495132 
L 302.802322 240.693577 
L 302.951595 241.981805 
L 300.995713 241.756799 
L 299.537531 242.129977 
L 299.159475 242.439102 
L 298.072002 243.3283 
L 297.565869 243.863575 
L 295.994869 242.483 
L 293.524057 242.07684 
L 290.358389 243.523623 
L 290.192429 240.505461 
L 289.384212 231.936168 
L 289.356461 231.739501 
L 288.823756 230.683731 
L 288.542984 230.37334 
L 288.513782 230.092021 
L 288.45946 229.03283 
L 288.553866 228.077958 
L 288.987358 227.527169 
L 288.988469 227.511265 
L 289.076852 226.246036 
L 289.096547 225.964097 
L 289.097091 225.956279 
L 289.261056 223.820796 
L 289.241286 223.654912 
L 289.078047 223.606051 
L 289.032702 223.606051 
L 288.063966 223.325954 
L 287.327665 223.166299 
L 286.587711 222.985912 
L 285.323356 222.677686 
L 285.323356 222.628825 
L 285.332424 222.274581 
L 284.851775 222.140212 
L 283.955317 221.921558 
L 283.955045 221.930842 
L 283.664298 221.859138 
L 283.550393 221.82408 
L 283.044565 220.996713 
L 280.906093 217.498878 
L 280.823476 217.363899 
L 280.775417 217.290069 
L 277.587433 212.392507 
L 275.500708 211.206487 
L 272.599935 209.557791 
L 272.472322 209.48526 
L 272.460587 209.478375 
L 271.556276 208.947786 
L 271.420243 208.691386 
L 271.429312 208.178343 
L 271.166314 207.5065 
L 271.012144 207.237763 
L 270.839745 207.201117 
L 270.522334 207.017887 
L 270.39537 206.773581 
L 270.386301 206.54149 
L 270.442853 206.328209 
L 270.522334 206.028446 
L 270.522334 205.771924 
L 270.55861 205.552049 
L 270.531403 205.466541 
L 269.805894 203.744181 
L 270.014478 203.14563 
L 270.495128 202.657017 
L 270.676505 202.449357 
L 270.894158 202.229481 
L 270.295613 201.227824 
L 270.259247 201.093456 
L 270.957913 199.08532 
L 271.002984 198.955774 
L 270.693195 197.771634 
L 270.655478 197.627463 
L 270.386211 196.598217 
L 270.522244 195.156931 
L 270.522244 195.132501 
L 270.576657 194.546165 
L 270.570808 194.547122 
L 270.488956 194.560508 
L 269.306925 194.753826 
L 269.141888 194.776055 
L 269.125548 194.778256 
L 268.418177 194.888194 
L 268.218662 194.912625 
L 268.15518 194.92484 
L 267.647323 195.010347 
L 267.393395 195.034778 
L 267.139376 195.083639 
L 266.69234 195.178092 
L 266.676864 195.181362 
L 266.676864 195.113842 
L 266.676864 192.559874 
L 266.676864 192.540776 
L 266.676864 191.577842 
L 266.685933 191.553411 
L 266.70398 186.435191 
L 266.694911 186.2031 
L 266.698111 183.957274 
L 266.70398 179.839039 
L 262.808366 179.909885 
L 259.747933 179.965542 
L 256.10635 180.031768 
L 255.957013 180.034484 
L 255.866324 180.046699 
L 255.761987 180.057346 
L 253.472054 180.291006 
L 253.444847 180.303221 
L 253.307794 180.307025 
L 250.557955 180.383354 
L 248.973716 180.413159 
L 248.070829 180.441154 
L 246.268834 180.497026 
L 242.768302 180.605564 
L 239.545016 180.705505 
L 231.824312 180.944892 
L 228.810547 181.15011 
L 228.682858 179.256246 
L 221.128696 179.166044 
L 220.50909 179.158646 
L 213.957805 178.92905 
L 211.753465 178.851797 
L 204.845711 178.794751 
L 201.560128 178.617095 
L 201.338529 178.605113 
L 198.298807 178.440751 
L 198.296268 178.44071 
L 192.005579 178.337916 
L 187.975175 178.272057 
L 186.058639 178.261331 
L 181.842355 178.237732 
L 177.322093 178.146446 
L 174.561384 178.090694 
L 169.188388 177.982188 
L 164.425053 177.955608 
L 162.708594 177.94603 
L 160.466117 178.224239 
L 158.618536 178.453455 
L 157.793179 179.118701 
L 157.076648 179.118701 
L 155.562147 179.082055 
L 155.560056 179.06572 
L 155.471459 178.373567 
L 155.466201 178.373245 
L 152.279128 178.178122 
L 147.491402 177.641502 
L 142.058155 177.713939 
L 141.903985 178.068184 
L 142.266739 178.214768 
L 142.429979 178.446859 
L 142.221395 179.033194 
L 141.910423 179.576532 
L 141.848392 179.586548 
L 141.630105 179.466716 
L 141.485638 179.505683 
L 141.471218 179.719695 
L 141.557917 179.914163 
L 141.70447 180.059281 
L 141.568437 180.352449 
L 141.387059 180.572325 
L 141.384611 180.945259 
L 141.123972 181.195306 
L 141.069558 181.769426 
L 140.3422 181.875232 
L 136.534945 182.429054 
L 136.825149 177.677416 
L 133.777919 177.628554 
L 132.283643 177.528999 
L 132.281882 177.528979 
L 132.273304 177.528877 
L 121.821834 177.431133 
L 119.956336 177.413687 
L 119.120612 177.388367 
L 115.085902 177.266126 
L 115.082811 177.266007 
L 108.372811 177.009217 
L 99.075367 176.653405 
L 98.96128 176.645099 
L 98.788683 176.637623 
L 93.334866 176.401403 
L 93.214885 176.396028 
L 80.664303 175.95591 
L 75.72159 176.071834 
L 74.854153 176.067314 
L 73.832727 171.598705 
" clip-path="url(#p91ee14b7e4)" style="fill: #33a1ff"/>
   </g>
   <g id="text_1">
    <!-- MA -->
    <g transform="translate(226.87875 57.766327) scale(0.12 -0.12)">
     <defs>
      <path id="DejaVuSans-4d" d="M 628 4666 
L 1569 4666 
L 2759 1491 
L 3956 4666 
L 4897 4666 
L 4897 0 
L 4281 0 
L 4281 4097 
L 3078 897 
L 2444 897 
L 1241 4097 
L 1241 0 
L 628 0 
L 628 4666 
z
" transform="scale(0.015625)"/>
      <path id="DejaVuSans-41" d="M 2188 4044 
L 1331 1722 
L 3047 1722 
L 2188 4044 
z
M 1831 4666 
L 2547 4666 
L 4325 0 
L 3669 0 
L 3244 1197 
L 1141 1197 
L 716 0 
L 50 0 
L 1831 4666 
z
" transform="scale(0.015625)"/>
     </defs>
     <use xlink:href="#DejaVuSans-4d"/>
     <use xlink:href="#DejaVuSans-41" x="86.279297"/>
    </g>
   </g>
  </g>
 </g>
 <defs>
  <clipPath id="p91ee14b7e4">
   <rect x="57.6" y="63.766327" width="357.12" height="221.523347"/>
  </clipPath>
 </defs>
</svg>
