<?xml version="1.0" encoding="utf-8" standalone="no"?>
<!DOCTYPE svg PUBLIC "-//W3C//DTD SVG 1.1//EN"
  "http://www.w3.org/Graphics/SVG/1.1/DTD/svg11.dtd">
<svg xmlns:xlink="http://www.w3.org/1999/xlink" width="360pt" height="360pt" viewBox="0 0 360 360" xmlns="http://www.w3.org/2000/svg" version="1.1">
 <metadata>
  <rdf:RDF xmlns:dc="http://purl.org/dc/elements/1.1/" xmlns:cc="http://creativecommons.org/ns#" xmlns:rdf="http://www.w3.org/1999/02/22-rdf-syntax-ns#">
   <cc:Work>
    <dc:type rdf:resource="http://purl.org/dc/dcmitype/StillImage"/>
    <dc:date>2023-06-19T15:20:28.681293</dc:date>
    <dc:format>image/svg+xml</dc:format>
    <dc:creator>
     <cc:Agent>
      <dc:title>Matplotlib v3.7.1, https://matplotlib.org/</dc:title>
     </cc:Agent>
    </dc:creator>
   </cc:Work>
  </rdf:RDF>
 </metadata>
 <defs>
  <style type="text/css">*{stroke-linejoin: round; stroke-linecap: butt}</style>
 </defs>
 <g id="figure_1">
  <g id="patch_1">
   <path d="M 0 360 
L 360 360 
L 360 0 
L 0 0 
z
" style="fill: #ffffff"/>
  </g>
  <g id="axes_1">
   <g id="PatchCollection_1">
    <path d="M 221.173945 247.436247 
L 221.24319 247.28172 
L 221.808375 246.845345 
L 222.216514 246.787899 
L 222.524536 246.627416 
L 222.884564 246.635148 
L 223.801415 247.617463 
L 223.783316 247.790318 
L 223.38354 248.140093 
L 221.827734 248.140609 
L 221.173831 247.525309 
L 221.173945 247.436247 
" clip-path="url(#p1bbd660f7c)" style="fill: #ff9900"/>
    <path d="M 221.480708 242.897755 
L 221.868227 242.638244 
L 222.39458 242.548781 
L 223.657598 242.078443 
L 224.172897 242.168708 
L 224.64083 242.48303 
L 224.713626 242.659837 
L 224.502455 242.69128 
L 224.347699 242.552447 
L 223.691276 242.947699 
L 223.325292 244.109913 
L 222.84493 244.246227 
L 221.043302 243.400683 
L 221.480708 242.897755 
" clip-path="url(#p1bbd660f7c)" style="fill: #ff9900"/>
    <path d="M 214.058959 244.786498 
L 214.362857 244.648867 
L 214.638405 242.34139 
L 214.900837 241.727923 
L 215.04683 241.092519 
L 215.48246 240.712044 
L 215.95887 241.082725 
L 216.749373 242.400612 
L 218.433359 243.026623 
L 218.891956 243.238882 
L 219.363154 243.854526 
L 220.697879 245.076937 
L 220.025992 245.893958 
L 218.256209 247.121008 
L 217.627105 247.297757 
L 217.047029 246.759319 
L 217.112379 246.306163 
L 216.579268 245.631755 
L 215.255023 245.486736 
L 214.982282 245.561479 
L 214.298252 245.54086 
L 213.985705 245.22396 
L 214.058959 244.786498 
" clip-path="url(#p1bbd660f7c)" style="fill: #ff9900"/>
    <path d="M 213.034546 247.467175 
L 213.460497 246.787899 
L 213.706033 246.664472 
L 214.136394 246.838988 
L 214.512859 247.255316 
L 214.591383 247.661278 
L 213.93725 248.240381 
L 213.128648 248.029153 
L 213.034546 247.467175 
" clip-path="url(#p1bbd660f7c)" style="fill: #ff9900"/>
    <path d="M 212.465696 234.214821 
L 212.92183 233.427181 
L 212.849722 232.898308 
L 213.041992 232.129054 
L 213.378537 231.912728 
L 213.667029 231.888673 
L 214.02763 232.056945 
L 214.183817 232.778318 
L 215.320831 235.64909 
L 214.699059 235.984604 
L 213.236726 235.349315 
L 212.36495 234.846101 
L 212.465696 234.214821 
" clip-path="url(#p1bbd660f7c)" style="fill: #ff9900"/>
    <path d="M 194.665514 240.403793 
L 195.00332 240.15608 
L 195.341067 240.043479 
L 195.455387 240.05963 
L 197.373626 240.33094 
L 198.651192 241.19189 
L 198.69621 241.732333 
L 198.065732 242.317793 
L 197.50278 242.272775 
L 196.849793 242.002554 
L 196.399386 241.777351 
L 196.03913 241.687315 
L 195.611289 241.552204 
L 195.228466 241.529638 
L 194.755607 240.944178 
L 194.665514 240.403793 
" clip-path="url(#p1bbd660f7c)" style="fill: #ff9900"/>
    <path d="M 190.426912 262.367833 
L 190.617006 261.476756 
L 191.425093 260.757216 
L 192.185584 260.517407 
L 192.851057 261.373948 
L 192.946133 262.470641 
L 192.946133 263.259139 
L 192.233122 264.219232 
L 191.292216 264.204799 
L 190.426912 263.533427 
L 190.426912 262.367833 
" clip-path="url(#p1bbd660f7c)" style="fill: #ff9900"/>
    <path d="M 188.641665 247.489054 
L 189.1726 246.484458 
L 190.20589 245.461592 
L 191.849039 244.81376 
L 192.417031 244.409287 
L 194.217227 243.469699 
L 195.48769 243.27949 
L 195.82624 243.616035 
L 195.651553 243.710366 
L 195.615241 244.003726 
L 195.868222 244.731972 
L 196.451449 244.713644 
L 197.36893 245.589945 
L 197.674489 245.706613 
L 197.932855 245.62935 
L 198.029191 245.745961 
L 197.377865 246.119104 
L 196.799564 246.056217 
L 195.890216 246.113778 
L 195.797431 246.194993 
L 195.748404 246.494882 
L 195.804819 246.961212 
L 196.032085 247.317459 
L 196.532091 247.28865 
L 197.466067 248.629963 
L 197.967391 249.125158 
L 198.49048 249.459355 
L 198.625018 249.967552 
L 198.088928 250.644079 
L 197.748087 250.887553 
L 197.462058 250.86871 
L 196.504428 251.901713 
L 195.867191 252.116493 
L 195.293071 252.112369 
L 193.323973 252.51793 
L 192.677114 252.499488 
L 191.784891 252.089574 
L 190.162247 251.331488 
L 190.706756 250.627068 
L 191.196109 250.11681 
L 190.903952 249.522071 
L 190.428115 249.072695 
L 190.748509 247.908418 
L 190.681383 247.651656 
L 188.727119 247.667178 
L 188.641665 247.489054 
" clip-path="url(#p1bbd660f7c)" style="fill: #ff9900"/>
    <path d="M 187.354305 239.520562 
L 187.457972 239.098792 
L 188.121097 238.353422 
L 188.743098 237.853587 
L 190.090482 236.204137 
L 190.089107 234.742491 
L 190.529605 233.04516 
L 190.993758 232.267028 
L 192.402139 231.810493 
L 193.003293 232.105113 
L 193.449748 233.07964 
L 193.238462 233.619337 
L 192.81738 234.211556 
L 192.165882 234.582065 
L 191.842796 234.581893 
L 191.60545 234.784817 
L 191.391415 235.510314 
L 191.91416 236.592344 
L 191.227725 237.698831 
L 190.952234 237.9214 
L 190.229601 240.041875 
L 189.679308 240.604941 
L 188.562683 241.30432 
L 188.223962 241.424883 
L 188.49888 240.962506 
L 188.026823 239.984199 
L 187.789935 239.779958 
L 187.421775 239.647368 
L 187.354305 239.520562 
" clip-path="url(#p1bbd660f7c)" style="fill: #ff9900"/>
    <path d="M 166.426132 267.244874 
L 167.106783 266.802486 
L 167.855533 266.655061 
L 168.672268 267.048251 
L 168.400042 267.687263 
L 167.719391 268.129709 
L 166.35809 267.834745 
L 166.426132 267.244874 
" clip-path="url(#p1bbd660f7c)" style="fill: #ff9900"/>
    <path d="M 66.428686 179.13808 
L 66.695814 179.05297 
L 67.128008 178.844777 
L 67.525035 178.707318 
L 68.486102 178.747983 
L 68.73095 178.812188 
L 69.168814 178.770377 
L 69.673518 178.669746 
L 70.102217 178.535036 
L 70.401076 178.405539 
L 70.772616 177.901695 
L 70.781952 177.863722 
L 70.628055 177.68829 
L 70.281143 177.508791 
L 70.179424 177.015199 
L 70.188759 176.931407 
L 70.300273 176.788793 
L 70.641744 176.893663 
L 70.817977 176.994523 
L 71.335796 177.308674 
L 71.478811 177.417267 
L 71.530873 177.510166 
L 71.74445 177.651462 
L 72.798703 177.639263 
L 73.735943 177.517325 
L 73.819507 177.688805 
L 74.133257 178.101182 
L 74.40239 178.339387 
L 74.933038 178.437612 
L 75.419184 178.700789 
L 75.621421 178.812073 
L 75.953212 179.71283 
L 75.86037 179.910484 
L 75.572795 180.237694 
L 75.50418 180.356825 
L 75.404007 180.672293 
L 75.416951 180.705054 
L 75.776635 180.942056 
L 76.189928 181.252427 
L 76.729053 181.871794 
L 76.840051 182.18079 
L 76.733807 182.697349 
L 76.82453 182.815163 
L 77.057981 182.97891 
L 77.504321 183.225134 
L 77.878553 183.316945 
L 79.107264 183.552343 
L 79.82961 183.245752 
L 80.153784 183.071523 
L 80.020334 182.993 
L 79.60687 182.661896 
L 79.552917 181.992299 
L 79.59341 181.595559 
L 79.895476 181.461937 
L 80.02148 181.376827 
L 80.138205 181.262965 
L 80.386086 180.918733 
L 80.568165 180.665878 
L 80.668109 180.242963 
L 80.675498 180.046626 
L 81.394981 179.622336 
L 81.445096 179.602691 
L 81.667665 179.380122 
L 81.881012 178.830287 
L 81.970074 178.2084 
L 81.897679 178.015957 
L 81.786337 177.90599 
L 81.628546 177.890297 
L 81.42442 177.745049 
L 81.3353 177.628495 
L 81.283295 177.487141 
L 81.238678 177.197791 
L 81.259125 177.121844 
L 81.546701 176.256484 
L 81.875342 175.906937 
L 81.940349 175.862377 
L 82.153925 175.815298 
L 82.222655 175.776007 
L 82.217099 175.683051 
L 82.016696 175.110191 
L 81.935366 175.020843 
L 81.66377 174.721411 
L 81.098928 174.310409 
L 80.996693 174.277648 
L 80.93352 174.153305 
L 80.88329 173.858742 
L 80.907402 173.750093 
L 81.641376 173.116407 
L 82.247397 172.738051 
L 82.450092 172.38461 
L 82.487263 172.237987 
L 82.660175 172.155569 
L 83.435558 171.982944 
L 84.919197 172.143198 
L 85.010264 172.175959 
L 85.577282 172.559584 
L 85.536617 172.78347 
L 85.594579 173.084562 
L 86.385139 173.804274 
L 86.799692 174.03847 
L 87.398097 174.305312 
L 88.531502 174.192596 
L 88.828757 174.154565 
L 88.982998 174.049867 
L 89.044339 174.042021 
L 89.362098 174.090475 
L 90.326315 174.567171 
L 90.348365 175.017521 
L 90.391092 175.033271 
L 90.898201 175.077831 
L 91.197346 174.988941 
L 91.844032 174.706405 
L 92.033439 172.831695 
L 91.796094 172.174355 
L 90.980447 171.317872 
L 90.223564 171.101661 
L 89.539191 170.766433 
L 89.185749 170.422156 
L 88.573599 169.687724 
L 87.83659 169.20994 
L 87.646725 169.135369 
L 87.125412 168.742752 
L 86.774892 167.604477 
L 86.761776 167.444796 
L 86.793335 167.308597 
L 86.864011 167.177668 
L 87.150671 166.981216 
L 87.962423 166.347416 
L 88.066662 166.233497 
L 88.811689 165.227985 
L 88.776809 164.375625 
L 88.921599 164.293265 
L 89.33535 163.992115 
L 90.433647 163.064096 
L 90.989668 162.418784 
L 90.941214 162.354636 
L 91.269798 161.906978 
L 91.80709 161.727824 
L 92.844218 161.374554 
L 93.474524 160.801408 
L 93.7562 160.756791 
L 94.272988 160.60215 
L 94.328946 160.56286 
L 95.845919 159.153963 
L 96.004569 158.842332 
L 95.905599 158.765126 
L 95.903766 158.721941 
L 96.211846 158.494103 
L 96.530813 158.42783 
L 96.532984 158.427378 
L 97.184654 158.491583 
L 98.07722 158.500976 
L 98.437706 158.303379 
L 98.441544 158.203893 
L 98.471441 158.172507 
L 98.97414 157.769466 
L 99.75124 157.328566 
L 101.282418 156.491327 
L 102.334322 156.33136 
L 102.597785 156.353582 
L 103.057413 156.333937 
L 103.520821 156.171564 
L 105.260994 155.449217 
L 105.835171 154.950642 
L 106.226184 154.588094 
L 105.942732 153.737682 
L 105.505613 153.363221 
L 105.183959 153.27015 
L 104.909099 153.044889 
L 104.385839 151.650541 
L 104.273752 151.214567 
L 104.271862 151.168747 
L 104.314933 151.12814 
L 104.825936 150.996007 
L 104.921356 151.001277 
L 105.039284 151.072011 
L 105.177774 151.091713 
L 105.305095 151.073385 
L 105.518557 150.921608 
L 105.492497 150.702934 
L 105.389575 150.621776 
L 105.47772 150.371715 
L 105.976238 149.767068 
L 106.386553 149.446559 
L 107.173047 148.853539 
L 108.580855 147.868474 
L 109.307783 147.776663 
L 110.029099 147.624714 
L 110.65866 147.436166 
L 111.916295 146.732033 
L 113.150504 145.826007 
L 113.353141 145.659796 
L 113.663168 144.959558 
L 113.652114 144.756634 
L 113.42399 144.091447 
L 113.242143 143.96699 
L 113.140824 143.994424 
L 113.112703 143.976096 
L 113.112817 143.765326 
L 113.176678 143.686803 
L 113.730638 143.230153 
L 114.395366 142.891145 
L 114.43878 142.785244 
L 114.437921 142.625735 
L 113.705609 141.966791 
L 112.992712 141.539638 
L 112.48211 141.447827 
L 112.110455 141.395363 
L 111.605409 141.510485 
L 110.268735 141.587519 
L 110.079157 141.515525 
L 110.041585 141.49588 
L 110.045365 141.471023 
L 110.321142 141.032643 
L 110.454591 140.536302 
L 110.584146 140.402795 
L 110.937244 140.241739 
L 111.241486 140.206458 
L 111.71297 139.871345 
L 111.895275 139.667219 
L 111.874599 139.654103 
L 111.420068 139.551925 
L 110.837815 139.461488 
L 110.803966 139.432679 
L 110.001893 138.310041 
L 110.003783 138.286444 
L 111.375909 137.006186 
L 112.177123 136.413338 
L 112.252496 136.137102 
L 112.261947 135.98521 
L 112.220652 135.92891 
L 111.917898 135.808404 
L 111.739259 135.818828 
L 111.421385 135.927478 
L 110.625899 135.88939 
L 110.498005 135.825243 
L 110.403961 135.706112 
L 111.596932 134.000419 
L 111.896249 133.749098 
L 112.575811 133.543769 
L 112.938932 133.618512 
L 113.645012 133.698295 
L 113.73711 133.639589 
L 113.737224 133.319081 
L 113.586764 133.197258 
L 113.584988 133.091185 
L 113.801887 132.647479 
L 114.240209 132.026223 
L 114.472916 131.226212 
L 114.565643 130.961833 
L 114.432938 130.807306 
L 112.944029 129.703396 
L 112.661551 129.547495 
L 112.523978 129.523841 
L 112.269679 129.379738 
L 111.533014 128.759054 
L 111.427628 128.429095 
L 111.840578 128.120271 
L 112.61218 127.384751 
L 113.265626 126.146533 
L 113.382809 125.909646 
L 113.560761 125.287873 
L 113.612366 124.841877 
L 113.708873 124.564439 
L 113.965749 124.106414 
L 114.867193 123.112357 
L 115.912969 122.488867 
L 116.411487 122.22821 
L 116.560401 121.39687 
L 116.488578 121.275162 
L 116.335483 121.118115 
L 116.238861 120.56175 
L 116.314349 120.426869 
L 117.230914 119.467177 
L 117.384008 119.357152 
L 118.18757 118.871522 
L 118.344502 118.824442 
L 118.953445 118.727648 
L 119.687017 118.845691 
L 120.108844 118.63114 
L 120.555414 118.273919 
L 120.763492 118.246542 
L 120.888465 118.099976 
L 120.889038 117.71028 
L 121.008341 117.56108 
L 121.401359 117.396072 
L 121.868547 117.288568 
L 122.456356 116.582659 
L 122.431728 116.532945 
L 122.442839 116.205678 
L 122.679211 115.952926 
L 123.082309 115.882134 
L 123.59526 115.889866 
L 123.833751 115.955274 
L 124.925805 115.631845 
L 124.961773 115.601776 
L 124.961773 115.54284 
L 126.674969 107.488494 
L 126.855861 106.55522 
L 127.062947 105.486806 
L 128.360845 99.583863 
L 128.52339 99.39291 
L 131.057674 96.875179 
L 131.451666 96.444989 
L 135.381157 92.550722 
L 138.586297 89.285901 
L 153.02916 74.967153 
L 160.313622 67.807778 
L 172.614932 55.8 
L 172.868315 55.944733 
L 173.791008 56.228585 
L 175.047325 56.033451 
L 175.250019 55.97589 
L 176.054726 56.295367 
L 176.529418 56.295482 
L 177.081258 56.420054 
L 178.457851 56.819773 
L 179.27052 57.166284 
L 179.826312 57.430549 
L 179.892006 57.48158 
L 179.926829 57.671331 
L 180.742876 57.845274 
L 180.848949 57.840004 
L 181.647413 57.486506 
L 181.96374 57.32545 
L 182.291752 57.37001 
L 182.95144 57.635763 
L 183.022747 57.692064 
L 183.217537 57.948712 
L 183.356084 58.761609 
L 183.226873 58.985495 
L 183.041704 59.153023 
L 183.062839 59.260356 
L 183.132255 59.328455 
L 183.078246 59.37164 
L 182.991475 59.379487 
L 182.868048 59.681839 
L 182.93357 59.833674 
L 183.012552 59.914889 
L 183.187926 60.002634 
L 183.21874 60.074628 
L 182.95081 60.153094 
L 182.808196 60.138661 
L 182.382245 60.485515 
L 182.416667 63.366997 
L 182.33969 64.034647 
L 182.655273 64.575318 
L 182.528181 64.958886 
L 182.455041 65.043938 
L 182.447367 65.266507 
L 182.474286 65.342396 
L 182.564722 65.372522 
L 182.599373 65.432775 
L 182.639694 65.822872 
L 182.578124 66.0585 
L 182.628068 66.274482 
L 182.728126 66.421162 
L 182.772228 66.830904 
L 182.714552 67.062579 
L 182.64336 67.116246 
L 182.583737 67.247175 
L 182.562546 67.389846 
L 182.585627 67.430454 
L 183.166047 68.090314 
L 183.552307 68.326056 
L 183.74641 68.35097 
L 184.103861 68.476745 
L 185.233544 68.945881 
L 185.889967 69.266504 
L 186.551202 69.534548 
L 186.89525 69.717655 
L 187.062491 69.853797 
L 187.391018 69.945321 
L 187.694745 70.353689 
L 187.850303 70.358901 
L 188.140341 70.286849 
L 188.188394 70.324765 
L 188.230892 70.506154 
L 188.309473 70.531584 
L 188.393895 70.511938 
L 188.762686 70.30764 
L 189.150664 70.544585 
L 189.488698 70.829984 
L 189.59626 70.846994 
L 189.682687 70.795963 
L 189.784406 70.799915 
L 190.035956 70.957019 
L 190.064651 71.254216 
L 190.229773 71.284343 
L 190.638713 71.458515 
L 190.895819 71.766251 
L 191.057047 71.885382 
L 191.139522 71.90371 
L 191.266385 71.741394 
L 191.443077 71.653764 
L 191.585175 71.648552 
L 191.759863 71.690534 
L 192.203397 71.626615 
L 192.460903 71.440817 
L 192.657183 71.337494 
L 192.851401 71.288982 
L 193.323801 71.27306 
L 193.629017 71.19173 
L 193.863213 71.048944 
L 194.14529 70.81326 
L 195.149599 70.390173 
L 196.227105 69.787874 
L 196.720811 69.755113 
L 198.03698 69.435979 
L 198.657607 69.450584 
L 198.957382 69.394398 
L 199.666612 69.147315 
L 200.059687 68.893303 
L 200.624472 68.623368 
L 201.627521 68.329779 
L 201.869735 68.325769 
L 202.025464 68.363685 
L 202.160002 68.456584 
L 202.346488 68.493183 
L 203.026909 68.206466 
L 203.199878 68.15406 
L 203.357498 68.141002 
L 204.030417 68.232011 
L 204.708662 68.567869 
L 204.82974 68.592783 
L 205.029628 68.545704 
L 205.291086 68.412254 
L 205.62746 68.399253 
L 206.144591 68.302573 
L 206.948497 68.245413 
L 207.247184 68.198104 
L 207.925486 67.953027 
L 208.102292 67.843002 
L 208.640215 67.368769 
L 208.717077 67.278447 
L 208.71891 67.167163 
L 208.663067 67.055878 
L 208.455218 66.786287 
L 208.451266 66.671108 
L 208.556995 66.565036 
L 208.806941 66.393498 
L 208.916393 66.088454 
L 209.024069 65.992863 
L 209.352882 65.776823 
L 209.60678 65.658952 
L 210.033876 65.687704 
L 210.64763 65.880089 
L 211.018884 65.962565 
L 211.141967 65.963939 
L 211.43441 65.920754 
L 211.838425 65.795151 
L 212.440781 65.367253 
L 212.760259 65.245602 
L 213.075841 65.169771 
L 213.680088 65.138613 
L 213.87631 65.155738 
L 214.29367 65.263128 
L 214.616927 65.283919 
L 214.865098 65.25236 
L 215.309491 65.123894 
L 215.546149 65.087181 
L 215.807837 65.128991 
L 216.037049 65.239588 
L 216.169697 65.388101 
L 216.28763 65.576038 
L 216.393068 65.744062 
L 216.496964 65.826538 
L 217.035688 65.945554 
L 217.356941 65.891888 
L 217.968633 65.980893 
L 218.180205 65.979518 
L 218.387997 65.908841 
L 218.924774 65.644519 
L 219.080618 65.605286 
L 220.413798 65.710442 
L 220.798511 65.709297 
L 221.054413 65.65838 
L 221.160314 65.603453 
L 221.2165 65.514964 
L 221.229845 65.388788 
L 221.189524 65.274869 
L 221.153097 65.196346 
L 221.055043 65.094168 
L 220.743585 64.859686 
L 220.695588 64.778528 
L 220.709163 64.654185 
L 220.878695 64.498456 
L 220.903781 64.42125 
L 220.713974 63.668548 
L 220.733504 63.402794 
L 220.959567 62.6411 
L 221.057964 62.474889 
L 221.294451 62.224943 
L 221.536264 62.021962 
L 221.796119 61.864743 
L 222.034896 61.761191 
L 222.400766 61.677284 
L 223.485259 61.521211 
L 223.849354 61.496296 
L 224.232692 61.515884 
L 224.991751 61.725223 
L 225.344276 61.76583 
L 225.519536 61.733127 
L 225.979966 61.539481 
L 226.172638 61.497614 
L 226.471267 61.48719 
L 226.804433 61.589425 
L 227.135652 61.800252 
L 227.295505 61.868409 
L 227.557364 61.936566 
L 228.53968 61.938227 
L 228.987509 61.840688 
L 229.306185 61.793838 
L 229.706935 61.907585 
L 229.876525 62.03714 
L 229.903558 62.092123 
L 229.905563 62.27145 
L 229.976927 62.395736 
L 230.273666 62.606449 
L 230.454711 62.675751 
L 230.645378 62.70582 
L 231.043952 62.670424 
L 231.153747 62.688752 
L 232.659552 63.271234 
L 233.502748 63.356459 
L 233.856876 63.490023 
L 233.94737 63.562074 
L 234.01083 63.712592 
L 233.950864 64.141922 
L 233.964266 64.274169 
L 234.019994 64.380184 
L 234.412325 64.711517 
L 234.89303 65.171145 
L 235.398936 65.278707 
L 235.560393 65.39526 
L 235.786283 65.617657 
L 235.888289 65.673901 
L 237.445068 66.280667 
L 237.99519 66.554153 
L 238.151034 66.669332 
L 238.303041 66.855131 
L 238.38964 67.116933 
L 238.501211 67.25044 
L 239.201049 67.44019 
L 240.604676 68.057209 
L 240.800497 68.173935 
L 241.613337 68.494901 
L 241.820729 68.700517 
L 242.381389 69.158827 
L 242.847776 69.651503 
L 243.208605 69.983695 
L 243.305972 70.04097 
L 243.540797 70.138337 
L 244.38279 70.264341 
L 244.514522 70.31016 
L 244.835259 70.510621 
L 245.282058 70.699627 
L 245.476791 70.89436 
L 245.534066 71.106276 
L 245.574158 71.52438 
L 245.642887 71.673294 
L 245.912078 71.988304 
L 246.003717 72.039851 
L 246.227145 72.309042 
L 246.416151 72.686996 
L 246.92504 73.221077 
L 246.994624 73.294106 
L 247.338328 73.46593 
L 247.876709 73.643481 
L 248.277688 74.244864 
L 248.403692 74.38805 
L 248.856161 74.685878 
L 248.919163 74.760334 
L 249.04173 74.987428 
L 249.091616 75.325691 
L 249.08944 75.633313 
L 249.120082 75.732799 
L 249.292364 75.981599 
L 249.395801 76.066709 
L 249.541393 76.176734 
L 249.723412 76.261901 
L 250.16769 76.349531 
L 250.499482 76.446268 
L 251.391017 76.775711 
L 252.08507 77.143356 
L 252.343779 77.228409 
L 252.863202 77.299028 
L 253.005014 77.344848 
L 253.261775 77.478298 
L 253.584174 77.770283 
L 253.939505 77.924924 
L 254.516031 78.126473 
L 254.741177 78.238159 
L 254.784362 78.362846 
L 254.801544 78.546124 
L 254.790146 79.806164 
L 254.830239 80.6481 
L 254.795874 81.243755 
L 254.813056 81.919594 
L 254.784075 82.125783 
L 254.814774 88.944373 
L 254.81144 89.449152 
L 254.782185 93.877143 
L 254.806183 95.557578 
L 254.811682 95.976197 
L 254.861969 104.93531 
L 254.864537 105.043534 
L 255.045722 112.678662 
L 255.085168 114.340877 
L 255.22234 123.401422 
L 255.259478 128.740093 
L 255.318332 137.200519 
L 255.316958 139.148139 
L 255.264494 141.467701 
L 255.280703 142.665655 
L 255.344335 142.944525 
L 255.479388 143.171103 
L 255.522516 143.178949 
L 255.635118 143.125283 
L 255.712037 143.135822 
L 256.63095 143.645393 
L 257.037485 144.105193 
L 256.95478 144.272721 
L 256.735132 144.461097 
L 256.508096 144.561843 
L 256.275562 144.53292 
L 256.202422 144.569518 
L 255.990105 145.015916 
L 256.040621 145.21231 
L 255.988043 145.247648 
L 255.391701 145.409793 
L 255.153611 145.407101 
L 255.037343 145.379552 
L 254.007891 146.062837 
L 253.974099 146.109974 
L 253.927363 146.616968 
L 253.987272 146.884097 
L 254.397587 147.423508 
L 254.789001 147.89356 
L 255.165409 148.193507 
L 255.459399 148.35462 
L 255.798407 148.489559 
L 255.963186 148.604853 
L 256.200818 148.908694 
L 256.262388 149.140484 
L 256.327853 149.224277 
L 256.771387 149.502058 
L 256.273156 149.694214 
L 256.171952 149.780584 
L 256.097037 149.796278 
L 255.758201 149.747766 
L 255.479159 149.756815 
L 255.338722 149.815694 
L 255.31438 149.848455 
L 255.318046 149.929555 
L 254.084009 150.654651 
L 253.82003 151.159984 
L 253.99025 151.910223 
L 253.885381 152.589729 
L 253.677703 152.719341 
L 253.83664 153.411905 
L 254.594096 153.689457 
L 255.235055 154.798865 
L 253.634747 154.908545 
L 254.017627 156.807025 
L 253.173172 156.945743 
L 253.883883 157.716904 
L 254.008177 157.851769 
L 255.993599 157.869238 
L 256.818524 158.429956 
L 258.187099 158.69067 
L 258.756924 158.731735 
L 258.799879 158.714725 
L 258.895012 158.575891 
L 258.891232 158.418787 
L 258.573702 158.281443 
L 258.158748 157.832468 
L 257.994084 157.488248 
L 257.943396 157.215965 
L 258.212415 157.214533 
L 258.341855 157.24569 
L 259.326061 157.766659 
L 259.576465 158.095243 
L 260.041649 158.891188 
L 260.347896 159.427965 
L 261.333361 160.539492 
L 261.846598 160.911661 
L 263.029089 161.533892 
L 263.348222 161.386066 
L 263.120957 160.982739 
L 263.376688 160.893906 
L 263.833681 161.086463 
L 265.299337 161.938479 
L 266.606972 162.169869 
L 267.86598 162.60441 
L 268.119592 162.595246 
L 268.153155 162.469586 
L 268.738787 162.423824 
L 269.380319 162.574513 
L 270.316128 163.004244 
L 271.412133 163.056421 
L 271.90017 162.800175 
L 272.041695 162.619474 
L 272.009278 162.487685 
L 271.892266 162.374682 
L 271.96489 162.24507 
L 272.714556 162.074564 
L 273.934389 162.045468 
L 274.262687 162.148849 
L 275.405772 163.242048 
L 275.649991 163.510494 
L 275.753429 163.907578 
L 275.906352 165.17472 
L 275.653026 165.703593 
L 275.484697 165.713272 
L 275.443516 165.679996 
L 275.351132 165.669515 
L 275.26144 165.690534 
L 275.128392 165.983264 
L 275.087383 166.27714 
L 275.100614 166.391575 
L 275.263101 166.894846 
L 275.931152 167.403616 
L 276.167524 167.838788 
L 276.164889 167.917139 
L 276.110192 167.926418 
L 275.906924 167.750642 
L 275.810531 167.704307 
L 275.719293 167.701787 
L 275.637276 167.873038 
L 275.520493 167.963589 
L 275.407777 167.948927 
L 274.245848 167.757572 
L 273.506205 167.542335 
L 273.074699 167.736152 
L 273.046405 167.79503 
L 273.0566 168.03627 
L 272.705908 168.198185 
L 272.067526 168.397386 
L 271.412076 168.554834 
L 271.203425 168.630723 
L 271.164306 168.697505 
L 271.199473 168.878206 
L 271.393634 169.297284 
L 271.703833 169.583771 
L 272.130184 169.871518 
L 272.391012 170.283838 
L 272.415297 170.429143 
L 272.247941 170.56013 
L 272.277895 170.791863 
L 272.686148 171.958259 
L 272.905739 172.316912 
L 273.026645 172.422927 
L 273.757468 172.85346 
L 274.352494 173.319503 
L 275.389449 174.170488 
L 276.034017 175.069984 
L 276.019125 175.140661 
L 275.876283 175.252232 
L 275.746155 175.28757 
L 275.547412 175.274454 
L 275.383951 175.379152 
L 275.318944 175.440722 
L 275.144314 175.747084 
L 275.186984 175.982711 
L 275.515682 176.317939 
L 275.361499 176.702824 
L 275.103363 177.196416 
L 274.700551 177.513259 
L 274.04533 177.877238 
L 273.883873 177.980676 
L 273.861651 178.026496 
L 273.878375 178.124722 
L 274.114117 178.37083 
L 274.114174 178.530569 
L 274.052948 178.678509 
L 273.63954 179.473308 
L 273.337188 179.654066 
L 273.322411 179.829498 
L 273.300188 179.849143 
L 272.543535 180.081105 
L 272.393189 179.986889 
L 272.281904 179.960771 
L 272.200288 179.985686 
L 272.15212 180.031505 
L 271.983733 180.488556 
L 271.991236 180.56708 
L 272.086481 180.704551 
L 273.4668 182.696833 
L 273.552082 182.774097 
L 273.657753 182.821176 
L 274.045101 182.866939 
L 274.817906 183.673364 
L 274.9828 183.924742 
L 275.308749 184.64749 
L 275.442027 185.275963 
L 275.453138 185.611191 
L 276.698859 186.400892 
L 276.840958 187.115736 
L 276.800178 187.234867 
L 276.800178 187.350103 
L 276.842619 187.517688 
L 277.647326 187.850568 
L 278.04504 187.956812 
L 279.563846 189.129623 
L 279.774788 189.261755 
L 280.224336 189.438333 
L 280.498051 189.493144 
L 280.551718 189.484038 
L 281.126754 189.136954 
L 281.777794 188.693134 
L 282.52179 188.382534 
L 282.937775 188.276805 
L 283.054328 188.203494 
L 283.128384 188.105325 
L 283.158053 187.885391 
L 283.008222 187.78453 
L 282.736168 187.678458 
L 282.688115 187.436244 
L 282.878839 187.001588 
L 283.069449 186.917795 
L 283.326783 186.857657 
L 283.310174 186.683485 
L 283.208397 186.590528 
L 283.19362 186.484456 
L 283.373405 185.933303 
L 283.41974 185.87179 
L 283.77341 185.679405 
L 284.491805 185.7333 
L 285.03786 185.922077 
L 285.252468 186.074026 
L 285.888101 186.324144 
L 286.041883 186.466815 
L 286.140338 186.81241 
L 286.234841 186.873865 
L 286.669898 187.021634 
L 286.832901 187.195634 
L 286.99768 187.304283 
L 287.236401 187.301534 
L 288.337389 186.860119 
L 289.068556 187.176905 
L 290.402881 187.250274 
L 290.78221 187.348557 
L 290.887652 187.387847 
L 290.972819 187.455946 
L 291.675406 188.277091 
L 292.632865 189.107515 
L 293.579097 190.244128 
L 294.591654 192.355554 
L 294.817831 192.741412 
L 293.952241 192.909513 
L 293.277031 193.428191 
L 294.304479 194.099449 
L 295.316807 194.981591 
L 295.726892 195.574612 
L 295.850663 196.200336 
L 296.107195 196.6193 
L 296.889795 197.435462 
L 297.768225 199.661347 
L 297.824 199.802676 
L 298.100349 200.118258 
L 299.89625 201.326006 
L 300.536636 201.383338 
L 300.90726 201.685633 
L 300.959265 202.217141 
L 300.825071 202.568062 
L 300.634117 202.606436 
L 300.570199 203.404213 
L 301.105315 204.534698 
L 301.269464 204.869754 
L 300.42077 205.315464 
L 300.216701 205.574746 
L 300.801187 206.949163 
L 301.025417 207.475573 
L 301.447416 207.388688 
L 301.448905 207.244814 
L 301.938087 207.040459 
L 302.76032 206.982783 
L 302.887298 207.134618 
L 302.848695 207.299569 
L 302.247369 207.715955 
L 301.734304 207.805074 
L 301.567807 207.792531 
L 301.11299 207.921914 
L 300.807545 208.03211 
L 300.627474 208.202158 
L 300.295109 208.643573 
L 298.87493 209.768789 
L 298.519828 209.953671 
L 297.534706 210.132826 
L 296.858294 209.767929 
L 296.452847 209.876694 
L 296.391621 210.524182 
L 295.811372 211.456669 
L 295.236451 211.57454 
L 294.717257 211.414515 
L 294.35133 211.493669 
L 294.063468 212.86064 
L 292.641055 214.121997 
L 292.044426 214.212033 
L 291.537432 214.7696 
L 291.133188 215.610047 
L 291.169844 215.685993 
L 290.289076 216.030155 
L 289.605905 215.93886 
L 289.329441 215.998941 
L 289.016951 216.407595 
L 289.053034 216.852331 
L 289.168213 216.979309 
L 287.816649 217.340883 
L 286.599565 217.456521 
L 285.906658 218.076059 
L 284.258984 218.245076 
L 285.030644 219.323842 
L 283.213036 219.629287 
L 282.696191 219.740514 
L 281.979629 219.689426 
L 281.5196 219.049154 
L 281.547034 218.873664 
L 282.219781 218.830479 
L 283.19803 217.621758 
L 283.266932 216.811953 
L 282.924029 216.472773 
L 282.283814 216.189894 
L 282.382212 214.358312 
L 282.826949 214.045765 
L 282.88239 213.532986 
L 282.346186 213.432812 
L 280.098504 213.88952 
L 279.629769 213.913575 
L 278.672884 214.339468 
L 277.311582 214.242732 
L 276.821484 214.910496 
L 278.187425 215.608328 
L 278.307644 215.836682 
L 278.596078 215.980899 
L 278.980734 216.581881 
L 279.217851 217.764428 
L 278.925121 218.174113 
L 278.393327 218.455618 
L 277.874935 218.042267 
L 277.754716 218.066323 
L 277.346062 218.847547 
L 277.165761 219.436501 
L 276.793191 219.917321 
L 276.431044 219.761649 
L 276.023936 219.388448 
L 275.927772 219.136039 
L 275.483036 219.06393 
L 274.605647 219.256201 
L 274.389264 219.400476 
L 274.329183 219.568748 
L 273.80031 219.700938 
L 273.20655 220.140353 
L 272.438207 220.70897 
L 271.907214 221.004277 
L 271.852746 222.100225 
L 270.325864 222.208016 
L 269.474249 221.628799 
L 269.223731 221.217338 
L 267.081491 221.840428 
L 267.380464 222.062138 
L 267.810882 223.056023 
L 267.476514 223.532432 
L 270.167901 224.747054 
L 270.852905 225.48727 
L 269.579348 226.79164 
L 268.674468 227.430022 
L 266.35588 228.32465 
L 265.922827 227.479908 
L 263.659338 226.05612 
L 262.854917 224.931478 
L 262.61024 223.835644 
L 262.393857 223.258717 
L 262.177531 223.162553 
L 260.735186 223.186609 
L 260.134204 223.378879 
L 259.773661 223.715425 
L 259.989987 224.41257 
L 259.725551 225.037607 
L 259.112656 225.587386 
L 258.615169 225.399181 
L 257.978849 225.529309 
L 257.442358 225.462527 
L 257.474661 224.960917 
L 257.630047 224.802381 
L 257.465898 223.799561 
L 256.840918 222.813981 
L 256.552427 222.645708 
L 256.071664 222.549544 
L 255.627157 222.841358 
L 255.29296 223.530485 
L 255.545483 224.50083 
L 254.565115 225.613675 
L 255.205158 226.74393 
L 254.429603 226.679095 
L 253.843857 226.12233 
L 252.754839 226.297132 
L 252.025046 227.338154 
L 252.44338 227.797209 
L 251.233169 229.398605 
L 251.237006 229.651358 
L 251.041643 229.929025 
L 250.254232 229.629021 
L 249.701361 229.003983 
L 249.565183 229.042902 
L 249.196543 229.148258 
L 249.196543 229.532857 
L 248.92678 230.488368 
L 248.495045 231.381278 
L 247.802252 229.94151 
L 247.706088 229.316531 
L 247.249381 229.148258 
L 246.960889 229.220367 
L 246.720508 229.388639 
L 246.88878 229.821348 
L 246.669018 230.363509 
L 246.378178 230.401368 
L 245.758983 230.133838 
L 245.278163 230.109783 
L 245.200709 230.159583 
L 244.941618 230.326166 
L 244.941618 231.095363 
L 243.952888 231.78472 
L 243.563879 231.791421 
L 242.898349 231.04731 
L 242.706021 230.662711 
L 242.393531 230.494439 
L 242.129095 230.614601 
L 241.624277 231.215582 
L 241.94175 231.600238 
L 240.782914 233.306962 
L 240.470424 233.282907 
L 240.205988 233.451179 
L 240.181932 233.835835 
L 240.278096 234.268544 
L 239.917438 235.009505 
L 239.286158 234.937454 
L 238.902935 234.725309 
L 238.386376 234.024669 
L 237.31769 233.822948 
L 236.827592 233.433596 
L 236.800386 233.083248 
L 236.936528 232.207463 
L 236.691507 231.293018 
L 235.547964 231.779393 
L 234.693142 232.370638 
L 234.200294 231.78913 
L 232.321689 231.886382 
L 232.120393 232.205783 
L 231.909255 232.540801 
L 232.280853 233.51149 
L 232.737903 234.272153 
L 232.799703 235.143127 
L 231.750662 236.387244 
L 229.898576 237.329066 
L 229.847006 237.558985 
L 229.599087 238.664308 
L 230.880204 238.859156 
L 231.68514 240.262726 
L 231.346247 240.395144 
L 228.486644 240.467024 
L 227.469677 240.547781 
L 227.025341 240.372177 
L 225.692162 240.058599 
L 224.553315 241.059357 
L 223.29843 241.185819 
L 223.090294 240.80712 
L 221.816967 240.327961 
L 221.565245 240.016388 
L 221.094277 239.772856 
L 220.414657 239.801322 
L 219.760582 239.504754 
L 218.707761 238.223637 
L 218.613144 237.65914 
L 218.337939 237.050082 
L 218.060788 236.848361 
L 218.066114 236.047377 
L 217.778463 235.809225 
L 217.214385 235.342213 
L 216.847942 234.697874 
L 216.575487 234.232977 
L 217.157511 233.326607 
L 217.805687 232.776485 
L 218.560165 232.542977 
L 219.94575 232.405747 
L 221.690905 231.574178 
L 221.911126 231.675841 
L 222.105974 231.633515 
L 222.233009 231.480993 
L 222.176765 230.879037 
L 221.48188 229.795186 
L 221.411406 229.685264 
L 221.030244 229.321055 
L 220.538943 229.270253 
L 220.352571 229.47352 
L 220.259386 230.007147 
L 218.893216 231.158193 
L 218.585595 231.247656 
L 218.236735 231.225376 
L 217.891542 230.954239 
L 217.968576 229.518939 
L 218.13513 228.800602 
L 217.583405 228.290457 
L 217.380369 228.256622 
L 217.083684 228.20718 
L 216.677665 228.321672 
L 216.396562 228.561137 
L 216.177945 228.946308 
L 216.462657 230.346728 
L 216.161564 231.15218 
L 216.152629 231.552929 
L 216.335335 231.864617 
L 216.335335 232.273271 
L 216.046843 232.34538 
L 215.349755 232.297327 
L 215.061263 231.7204 
L 215.205538 231.191527 
L 215.662245 230.806929 
L 215.229536 229.172256 
L 214.941101 229.076092 
L 214.412228 229.340529 
L 214.123736 230.230002 
L 213.787191 230.37422 
L 213.274126 230.278056 
L 212.392957 231.095363 
L 212.128521 231.167472 
L 210.950612 230.830927 
L 210.614067 230.879037 
L 210.373686 231.095363 
L 210.301577 231.3598 
L 210.397741 231.888673 
L 210.710231 232.513653 
L 211.239104 232.657927 
L 211.503541 233.619452 
L 211.020201 234.120261 
L 210.485486 234.877258 
L 210.272024 235.761348 
L 210.314006 236.024582 
L 210.439895 236.310095 
L 210.884861 236.722644 
L 211.895241 236.775164 
L 212.299771 237.320074 
L 212.257732 237.551922 
L 212.46707 238.137439 
L 212.987982 238.771526 
L 212.970628 239.048563 
L 212.398856 239.656532 
L 212.493302 240.133686 
L 212.760946 240.445489 
L 212.656592 240.918863 
L 212.438891 241.249909 
L 211.085818 241.625448 
L 210.404786 241.814465 
L 210.431991 242.975763 
L 209.555577 243.34106 
L 208.456535 243.951664 
L 207.705724 245.06027 
L 209.587994 245.587768 
L 208.063346 246.193447 
L 207.754693 246.811267 
L 207.055314 247.112989 
L 207.143747 247.487036 
L 207.35549 248.382651 
L 208.30241 249.007975 
L 209.288906 249.851686 
L 208.10676 251.726396 
L 208.281161 253.235179 
L 207.399763 253.373612 
L 206.410632 252.943709 
L 205.111874 253.732952 
L 204.838675 252.727039 
L 204.894575 251.20892 
L 204.404419 249.578486 
L 205.719958 249.374875 
L 205.442005 248.143014 
L 205.010899 247.639571 
L 205.049619 247.076651 
L 205.077281 246.674495 
L 203.687571 246.035884 
L 201.58949 244.465302 
L 201.629697 243.236419 
L 200.837189 242.368367 
L 200.716455 241.293896 
L 202.007652 240.675961 
L 202.804913 239.800749 
L 203.870563 238.791056 
L 202.636984 238.43057 
L 201.244182 237.819967 
L 199.845309 236.803515 
L 200.235864 236.189189 
L 200.725584 235.84928 
L 201.181352 235.532937 
L 200.006823 234.985564 
L 199.098621 235.074397 
L 198.859442 235.22228 
L 198.556345 235.594106 
L 197.206155 236.319374 
L 195.365696 236.073093 
L 195.298112 235.821715 
L 195.46753 234.790888 
L 195.702813 233.929078 
L 195.912667 233.728675 
L 195.958144 233.582736 
L 196.075098 233.207419 
L 195.852185 232.469551 
L 195.848162 232.425082 
L 195.676696 230.530064 
L 196.045659 229.433829 
L 196.829805 229.048772 
L 196.951227 228.24017 
L 197.88085 228.342233 
L 197.880676 228.341207 
L 197.731077 227.456082 
L 197.858169 226.810712 
L 198.141735 225.893919 
L 197.744708 224.622195 
L 197.077689 223.835988 
L 196.789323 223.887379 
L 196.58759 223.923331 
L 196.424244 224.79694 
L 196.615426 225.227873 
L 196.09755 225.505712 
L 194.940432 226.175767 
L 195.416899 226.943074 
L 195.253667 227.477216 
L 193.544594 228.469154 
L 193.2164 228.728448 
L 192.325907 229.431996 
L 191.969659 229.285144 
L 191.721374 228.865952 
L 191.608314 228.555524 
L 191.649953 228.460448 
L 191.361804 228.141544 
L 191.142443 228.060271 
L 189.958063 227.798068 
L 189.623637 228.290686 
L 189.366932 228.826146 
L 188.527975 229.374951 
L 187.889194 229.42683 
L 186.473709 229.541791 
L 185.561039 229.576672 
L 185.9973 230.18109 
L 186.361737 231.220852 
L 186.681845 231.824468 
L 187.341361 232.124243 
L 187.695833 232.469608 
L 188.437367 233.568936 
L 188.07648 235.392099 
L 187.823097 235.94749 
L 186.670963 236.979921 
L 185.807598 237.040973 
L 185.257599 237.079865 
L 185.178045 238.254623 
L 184.491896 239.227431 
L 183.831001 239.68258 
L 183.782665 239.715868 
L 183.166448 240.5684 
L 182.971371 241.063481 
L 183.016733 241.627979 
L 182.50109 242.730685 
L 182.344387 244.126924 
L 181.960991 244.473091 
L 181.013899 244.499151 
L 180.895971 244.733404 
L 180.830506 244.973098 
L 180.908972 245.706556 
L 181.134691 246.506738 
L 180.867563 247.203598 
L 180.722613 247.297457 
L 179.691602 247.965062 
L 179.677627 248.590959 
L 180.199226 249.041537 
L 180.366583 249.064905 
L 181.089731 248.760892 
L 182.243756 248.501553 
L 182.558135 248.517246 
L 182.982597 248.673262 
L 183.642686 249.425162 
L 182.666785 250.37191 
L 182.57234 250.334911 
L 182.569132 250.05627 
L 182.255783 249.971905 
L 181.785788 249.947792 
L 181.580917 250.080383 
L 180.897689 250.787151 
L 181.243513 251.309552 
L 181.567401 251.674219 
L 181.676635 251.808317 
L 182.779215 253.161868 
L 182.953444 253.589021 
L 182.584883 254.03267 
L 181.622155 254.49436 
L 181.056741 255.460867 
L 180.02746 255.132283 
L 177.93482 255.321404 
L 177.093801 255.007654 
L 175.446585 255.272148 
L 174.888502 256.261737 
L 173.803493 257.284947 
L 173.272501 258.453462 
L 172.856917 258.823856 
L 171.561539 258.601574 
L 169.778182 258.865209 
L 169.28837 261.708088 
L 167.081582 262.158895 
L 167.057985 261.602301 
L 167.412972 260.662484 
L 166.972531 259.585207 
L 167.446134 258.689376 
L 168.510811 257.800532 
L 167.840756 257.19073 
L 167.405699 257.34583 
L 167.020292 257.187249 
L 166.700248 257.055562 
L 165.962151 257.740852 
L 165.946229 258.511195 
L 164.181829 258.84963 
L 163.501179 259.92851 
L 163.433996 259.153414 
L 163.977646 258.2711 
L 164.689167 257.034772 
L 164.465797 255.970554 
L 163.924578 256.140231 
L 162.943096 256.447937 
L 160.941981 256.39891 
L 161.404816 257.624069 
L 161.29588 258.35936 
L 160.996392 258.977123 
L 160.378457 259.133024 
L 157.77636 260.80882 
L 157.619141 261.448118 
L 156.642782 263.249116 
L 155.978455 263.614241 
L 155.902681 263.274947 
L 156.071354 262.841493 
L 155.668485 261.483629 
L 155.418081 261.074631 
L 154.323044 260.734492 
L 154.316176 260.732359 
L 153.99899 260.82417 
L 153.915483 260.941067 
L 153.932208 261.249891 
L 154.252258 261.89927 
L 153.818231 263.03869 
L 153.502305 263.078037 
L 152.917933 262.861024 
L 152.667528 262.886053 
L 152.508935 263.002893 
L 152.333618 264.071407 
L 151.759498 264.355259 
L 150.864412 264.630693 
L 150.764238 264.555606 
L 150.839383 263.929538 
L 151.18996 263.946205 
L 151.540595 263.637323 
L 151.724217 262.468693 
L 151.40703 262.03461 
L 150.839383 262.084668 
L 150.346879 262.827633 
L 150.355241 263.261717 
L 150.238344 263.595627 
L 149.896071 263.87106 
L 149.370176 263.286746 
L 149.403567 262.919444 
L 149.103048 262.777518 
L 148.251604 263.328499 
L 148.05962 264.422041 
L 148.193184 265.190036 
L 148.319303 265.910492 
L 147.771014 266.600249 
L 147.385384 265.920401 
L 146.208335 264.471641 
L 146.202264 264.230057 
L 145.809934 264.012987 
L 145.534443 263.971234 
L 145.499006 263.979645 
L 145.041939 264.088131 
L 144.524464 264.818954 
L 144.356592 265.346853 
L 144.398403 265.841935 
L 144.246682 266.16943 
L 143.769986 266.763195 
L 143.02725 267.165835 
L 142.278271 268.621869 
L 141.325624 269.004634 
L 137.625746 269.924349 
L 137.99047 270.745952 
L 137.731818 271.060905 
L 136.710843 270.929173 
L 136.494116 270.862449 
L 136.331112 269.764553 
L 136.464677 269.263687 
L 136.272692 268.812879 
L 135.71564 268.688594 
L 136.088956 267.757252 
L 135.654986 266.801111 
L 134.834013 266.664855 
L 134.643616 266.721133 
L 133.740184 266.98817 
L 133.028319 266.832269 
L 132.374358 266.542345 
L 131.141352 267.357132 
L 130.871761 267.193442 
L 130.59627 267.251862 
L 129.806798 268.233776 
L 129.128381 268.59157 
L 128.61692 269.714266 
L 128.121037 270.539306 
L 126.119922 270.411412 
L 125.520945 269.978473 
L 124.559855 270.22848 
L 124.110044 270.345489 
L 123.652936 270.733982 
L 123.298354 270.982951 
L 122.928756 271.242465 
L 123.127728 272.196487 
L 122.693358 272.722153 
L 121.55537 272.109201 
L 120.65049 272.141767 
L 119.504025 272.183028 
L 118.558824 272.558348 
L 118.324416 272.985322 
L 118.075598 273.438543 
L 117.271464 274.251039 
L 116.399173 274.935413 
L 116.360414 275.188079 
L 116.309996 275.516749 
L 115.76039 277.049759 
L 115.916062 277.408985 
L 116.674892 277.634074 
L 116.915961 278.857974 
L 116.388348 279.288621 
L 115.777859 279.331749 
L 115.144402 280.3978 
L 114.133106 280.319105 
L 114.200002 279.619553 
L 113.192772 279.514283 
L 112.672669 279.075341 
L 112.586808 279.002878 
L 112.313873 279.144512 
L 110.566907 280.05106 
L 110.587468 280.926386 
L 110.510818 280.936281 
L 109.802177 281.027762 
L 109.362309 280.255301 
L 107.986001 280.535602 
L 107.953588 280.561358 
L 107.505583 280.917337 
L 106.479853 282.17669 
L 106.170364 282.776223 
L 106.149837 282.815988 
L 106.108027 283.331974 
L 106.261923 284.326088 
L 106.416278 284.637891 
L 106.60296 284.811474 
L 107.153344 285.323238 
L 107.715494 285.004276 
L 109.447819 284.964871 
L 109.130919 285.657263 
L 108.502217 286.019124 
L 107.459706 286.078517 
L 106.972929 286.361683 
L 106.146172 287.23764 
L 106.201613 287.575502 
L 105.805904 288.16732 
L 105.282128 288.320816 
L 105.188713 288.244354 
L 104.916659 288.262682 
L 104.065216 288.558505 
L 103.699232 288.932107 
L 103.885431 289.481828 
L 104.226787 289.889508 
L 104.349928 290.546962 
L 103.649861 290.904413 
L 102.853516 290.808821 
L 101.806594 291.566964 
L 101.505445 291.739017 
L 101.106929 291.525612 
L 100.946567 291.494276 
L 100.397927 291.387065 
L 99.481535 291.744859 
L 98.675867 291.553413 
L 98.543206 291.521889 
L 97.538095 291.938046 
L 97.45457 292.004853 
L 96.472216 292.790578 
L 95.961041 293.436176 
L 95.545113 294.870789 
L 94.677805 295.755852 
L 94.616417 295.902357 
L 94.178199 296.948194 
L 94.343436 297.603643 
L 94.747651 298.027943 
L 95.216014 298.519578 
L 95.16418 298.760589 
L 94.527173 299.779675 
L 93.64967 300.799906 
L 94.377743 301.686631 
L 94.047728 301.86401 
L 93.193191 301.579642 
L 92.478749 302.468772 
L 92.539975 303.518843 
L 91.855831 303.918046 
L 91.864079 304.229677 
L 91.63246 304.686728 
L 90.724203 305.552535 
L 90.660683 305.613086 
L 90.609079 305.890524 
L 90.051511 306.860182 
L 89.641655 307.199247 
L 87.883097 307.8 
L 87.83281 307.160587 
L 87.758353 307.040311 
L 87.592257 306.931489 
L 86.939328 306.948729 
L 86.183246 307.028913 
L 85.937147 307.017727 
L 85.931238 307.017458 
L 85.70214 306.794087 
L 85.086578 306.683711 
L 84.871659 306.645174 
L 84.80293 306.593626 
L 84.493648 306.101065 
L 84.298857 305.917787 
L 84.216183 305.871283 
L 84.207218 305.86624 
L 83.57147 305.734566 
L 83.365341 305.519901 
L 83.297583 305.449338 
L 82.723349 305.114569 
L 81.875571 304.521606 
L 81.228827 304.205393 
L 80.83936 303.947657 
L 80.764903 303.833108 
L 80.696174 303.638375 
L 80.656082 303.300455 
L 80.489986 303.01981 
L 80.438439 302.813622 
L 80.707572 302.183602 
L 80.782028 301.696825 
L 80.753391 301.547912 
L 80.873668 301.370361 
L 80.941585 301.333314 
L 80.999672 301.301631 
L 81.028309 301.227174 
L 80.953852 300.935074 
L 80.753391 300.534152 
L 80.776301 300.419603 
L 80.816393 300.373784 
L 81.013819 300.282717 
L 81.18862 300.24904 
L 81.266399 300.170402 
L 81.27774 300.048922 
L 81.230132 299.952459 
L 81.207865 299.90734 
L 81.185127 299.784142 
L 81.406206 298.935104 
L 81.456035 298.873477 
L 81.622933 298.783442 
L 81.820473 298.364822 
L 81.822191 298.316368 
L 81.734701 298.201705 
L 81.6955 298.150329 
L 81.571386 298.107545 
L 81.489254 298.109263 
L 81.444638 297.767105 
L 81.356378 297.629016 
L 81.353413 297.612807 
L 81.351108 297.600207 
L 81.059352 297.46985 
L 81.039306 297.460915 
L 80.938388 297.427295 
L 80.844458 297.406046 
L 80.769371 297.389093 
L 80.44703 297.316297 
L 80.239467 297.347626 
L 80.159053 297.312689 
L 80.010426 296.984964 
L 80.022683 296.925055 
L 80.099545 296.885306 
L 80.128411 296.837711 
L 79.894216 296.660332 
L 79.395183 296.51789 
L 79.219522 296.610503 
L 79.040539 296.547787 
L 78.960355 296.487305 
L 78.946265 296.348644 
L 78.858578 296.155056 
L 78.752792 296.043084 
L 78.752849 296.042454 
L 78.723088 296.026411 
L 78.217046 295.753619 
L 77.694759 295.620112 
L 77.631757 295.580019 
L 77.58021 295.333739 
L 77.419841 295.030184 
L 77.207926 294.950057 
L 76.858551 294.887055 
L 76.714415 294.791965 
L 76.302931 294.520498 
L 76.222746 294.411676 
L 76.423207 294.22267 
L 76.567253 294.114879 
L 76.624756 293.966309 
L 76.51456 293.765047 
L 76.389988 293.741106 
L 76.222746 293.770201 
L 76.085287 293.66138 
L 75.933223 293.56934 
L 75.981048 293.474092 
L 75.959341 292.90885 
L 75.764493 292.90673 
L 75.706359 292.882618 
L 75.29552 292.637632 
L 75.275196 292.625512 
L 74.883782 292.350537 
L 74.834641 292.267489 
L 74.802739 292.06468 
L 74.771982 291.938676 
L 74.521406 291.903911 
L 73.695794 292.058265 
L 73.609366 292.139309 
L 73.409249 292.057177 
L 73.332959 291.880485 
L 73.185248 291.693083 
L 72.97969 291.644972 
L 72.796354 291.536781 
L 72.449191 290.891386 
L 72.359121 290.723941 
L 72.399614 290.440088 
L 72.270631 290.191116 
L 71.958428 289.813676 
L 71.816616 289.683892 
L 71.818334 289.644602 
L 71.747851 289.508348 
L 71.723259 289.460808 
L 71.72366 289.219281 
L 71.766787 289.075808 
L 71.626808 288.916814 
L 71.621997 288.802723 
L 71.641642 288.691382 
L 71.90018 288.614004 
L 71.917992 288.443784 
L 71.903559 288.356039 
L 71.734599 288.22385 
L 71.682479 288.113825 
L 71.649718 287.637187 
L 71.674747 287.499671 
L 71.89892 287.209403 
L 72.176472 287.059229 
L 72.373038 286.99806 
L 72.578138 286.850063 
L 72.731634 286.639464 
L 72.674188 286.441982 
L 72.707407 286.318269 
L 73.144526 286.121817 
L 73.150483 285.998448 
L 73.116462 285.851596 
L 72.877627 285.592829 
L 72.815198 285.426676 
L 72.85151 285.245173 
L 72.981867 285.06619 
L 73.184618 284.502609 
L 73.128604 284.324828 
L 72.956494 284.119786 
L 72.950251 284.120587 
L 72.865771 284.14029 
L 72.583465 284.084046 
L 72.468343 284.019899 
L 72.394516 283.88244 
L 72.754028 283.689826 
L 72.786331 283.583753 
L 72.696353 283.507807 
L 72.66216 283.379512 
L 72.825622 283.088729 
L 73.098821 282.718049 
L 73.257071 282.626352 
L 73.327347 282.128636 
L 73.510797 282.027776 
L 73.474657 281.938714 
L 73.390463 281.860706 
L 73.551462 281.512591 
L 73.550259 281.294204 
L 73.394415 281.202221 
L 73.369959 281.157661 
L 73.379581 280.942939 
L 73.312341 280.780107 
L 73.063998 280.624091 
L 73.01898 280.570425 
L 73.008156 280.483998 
L 73.022474 280.35954 
L 73.085419 280.239092 
L 73.087431 280.238805 
L 73.443614 280.187946 
L 73.477463 280.24207 
L 73.482331 280.247397 
L 73.735141 279.66669 
L 73.67569 279.597274 
L 73.592871 279.569782 
L 73.495791 279.482667 
L 73.447509 279.164908 
L 73.368813 279.07493 
L 73.104549 278.982947 
L 72.720924 278.645485 
L 72.630545 278.663355 
L 72.482089 278.565358 
L 72.34421 276.036443 
L 72.310895 275.425396 
L 71.953445 271.07929 
L 71.951612 271.021729 
L 71.936721 270.454711 
L 71.945598 270.272693 
L 71.784199 268.099697 
L 71.547705 265.859821 
L 71.547325 265.856218 
L 71.545593 265.839815 
L 71.496222 263.159424 
L 71.391984 260.978193 
L 71.340207 259.894718 
L 71.329382 258.747567 
L 71.00853 251.597986 
L 70.841116 248.629333 
L 70.842949 248.613639 
L 70.795583 247.616244 
L 70.42874 239.891529 
L 70.417456 239.149709 
L 70.41906 239.127831 
L 70.331134 237.635066 
L 70.273926 236.663823 
L 70.189217 234.433667 
L 70.039502 232.295666 
L 69.729647 226.818845 
L 69.602554 225.311322 
L 69.392758 221.984187 
L 69.255737 218.942925 
L 69.141666 216.411031 
L 68.817149 211.769331 
L 68.770584 210.674872 
L 68.362332 205.552695 
L 67.900642 200.638483 
L 67.605449 196.674569 
L 67.539984 196.3957 
L 66.945302 188.427723 
L 66.761279 186.314408 
L 66.514197 182.535606 
L 66.112702 179.182811 
L 66.428686 179.13808 
" clip-path="url(#p1bbd660f7c)" style="fill: #ff9900"/>
   </g>
   <g id="PathCollection_1">
    <defs>
     <path id="m9396f11659" d="M 0 1.581139 
C 0.419323 1.581139 0.821528 1.41454 1.118034 1.118034 
C 1.41454 0.821528 1.581139 0.419323 1.581139 0 
C 1.581139 -0.419323 1.41454 -0.821528 1.118034 -1.118034 
C 0.821528 -1.41454 0.419323 -1.581139 0 -1.581139 
C -0.419323 -1.581139 -0.821528 -1.41454 -1.118034 -1.118034 
C -1.41454 -0.821528 -1.581139 -0.419323 -1.581139 0 
C -1.581139 0.419323 -1.41454 0.821528 -1.118034 1.118034 
C -0.821528 1.41454 -0.419323 1.581139 0 1.581139 
z
" style="stroke: #000000"/>
    </defs>
    <g clip-path="url(#p1bbd660f7c)">
     <use xlink:href="#m9396f11659" x="140.697379" y="236.359065" style="stroke: #000000"/>
    </g>
   </g>
   <g id="text_1">
    <!-- Augusta -->
    <g transform="translate(143.697379 233.359065) scale(0.1 -0.1)">
     <defs>
      <path id="DejaVuSans-41" d="M 2188 4044 
L 1331 1722 
L 3047 1722 
L 2188 4044 
z
M 1831 4666 
L 2547 4666 
L 4325 0 
L 3669 0 
L 3244 1197 
L 1141 1197 
L 716 0 
L 50 0 
L 1831 4666 
z
" transform="scale(0.015625)"/>
      <path id="DejaVuSans-75" d="M 544 1381 
L 544 3500 
L 1119 3500 
L 1119 1403 
Q 1119 906 1312 657 
Q 1506 409 1894 409 
Q 2359 409 2629 706 
Q 2900 1003 2900 1516 
L 2900 3500 
L 3475 3500 
L 3475 0 
L 2900 0 
L 2900 538 
Q 2691 219 2414 64 
Q 2138 -91 1772 -91 
Q 1169 -91 856 284 
Q 544 659 544 1381 
z
M 1991 3584 
L 1991 3584 
z
" transform="scale(0.015625)"/>
      <path id="DejaVuSans-67" d="M 2906 1791 
Q 2906 2416 2648 2759 
Q 2391 3103 1925 3103 
Q 1463 3103 1205 2759 
Q 947 2416 947 1791 
Q 947 1169 1205 825 
Q 1463 481 1925 481 
Q 2391 481 2648 825 
Q 2906 1169 2906 1791 
z
M 3481 434 
Q 3481 -459 3084 -895 
Q 2688 -1331 1869 -1331 
Q 1566 -1331 1297 -1286 
Q 1028 -1241 775 -1147 
L 775 -588 
Q 1028 -725 1275 -790 
Q 1522 -856 1778 -856 
Q 2344 -856 2625 -561 
Q 2906 -266 2906 331 
L 2906 616 
Q 2728 306 2450 153 
Q 2172 0 1784 0 
Q 1141 0 747 490 
Q 353 981 353 1791 
Q 353 2603 747 3093 
Q 1141 3584 1784 3584 
Q 2172 3584 2450 3431 
Q 2728 3278 2906 2969 
L 2906 3500 
L 3481 3500 
L 3481 434 
z
" transform="scale(0.015625)"/>
      <path id="DejaVuSans-73" d="M 2834 3397 
L 2834 2853 
Q 2591 2978 2328 3040 
Q 2066 3103 1784 3103 
Q 1356 3103 1142 2972 
Q 928 2841 928 2578 
Q 928 2378 1081 2264 
Q 1234 2150 1697 2047 
L 1894 2003 
Q 2506 1872 2764 1633 
Q 3022 1394 3022 966 
Q 3022 478 2636 193 
Q 2250 -91 1575 -91 
Q 1294 -91 989 -36 
Q 684 19 347 128 
L 347 722 
Q 666 556 975 473 
Q 1284 391 1588 391 
Q 1994 391 2212 530 
Q 2431 669 2431 922 
Q 2431 1156 2273 1281 
Q 2116 1406 1581 1522 
L 1381 1569 
Q 847 1681 609 1914 
Q 372 2147 372 2553 
Q 372 3047 722 3315 
Q 1072 3584 1716 3584 
Q 2034 3584 2315 3537 
Q 2597 3491 2834 3397 
z
" transform="scale(0.015625)"/>
      <path id="DejaVuSans-74" d="M 1172 4494 
L 1172 3500 
L 2356 3500 
L 2356 3053 
L 1172 3053 
L 1172 1153 
Q 1172 725 1289 603 
Q 1406 481 1766 481 
L 2356 481 
L 2356 0 
L 1766 0 
Q 1100 0 847 248 
Q 594 497 594 1153 
L 594 3053 
L 172 3053 
L 172 3500 
L 594 3500 
L 594 4494 
L 1172 4494 
z
" transform="scale(0.015625)"/>
      <path id="DejaVuSans-61" d="M 2194 1759 
Q 1497 1759 1228 1600 
Q 959 1441 959 1056 
Q 959 750 1161 570 
Q 1363 391 1709 391 
Q 2188 391 2477 730 
Q 2766 1069 2766 1631 
L 2766 1759 
L 2194 1759 
z
M 3341 1997 
L 3341 0 
L 2766 0 
L 2766 531 
Q 2569 213 2275 61 
Q 1981 -91 1556 -91 
Q 1019 -91 701 211 
Q 384 513 384 1019 
Q 384 1609 779 1909 
Q 1175 2209 1959 2209 
L 2766 2209 
L 2766 2266 
Q 2766 2663 2505 2880 
Q 2244 3097 1772 3097 
Q 1472 3097 1187 3025 
Q 903 2953 641 2809 
L 641 3341 
Q 956 3463 1253 3523 
Q 1550 3584 1831 3584 
Q 2591 3584 2966 3190 
Q 3341 2797 3341 1997 
z
" transform="scale(0.015625)"/>
     </defs>
     <use xlink:href="#DejaVuSans-41"/>
     <use xlink:href="#DejaVuSans-75" x="68.408203"/>
     <use xlink:href="#DejaVuSans-67" x="131.787109"/>
     <use xlink:href="#DejaVuSans-75" x="195.263672"/>
     <use xlink:href="#DejaVuSans-73" x="258.642578"/>
     <use xlink:href="#DejaVuSans-74" x="310.742188"/>
     <use xlink:href="#DejaVuSans-61" x="349.951172"/>
    </g>
   </g>
   <g id="text_2">
    <!-- Maine -->
    <g transform="translate(166.485 37.2) scale(0.12 -0.12)">
     <defs>
      <path id="DejaVuSans-4d" d="M 628 4666 
L 1569 4666 
L 2759 1491 
L 3956 4666 
L 4897 4666 
L 4897 0 
L 4281 0 
L 4281 4097 
L 3078 897 
L 2444 897 
L 1241 4097 
L 1241 0 
L 628 0 
L 628 4666 
z
" transform="scale(0.015625)"/>
      <path id="DejaVuSans-69" d="M 603 3500 
L 1178 3500 
L 1178 0 
L 603 0 
L 603 3500 
z
M 603 4863 
L 1178 4863 
L 1178 4134 
L 603 4134 
L 603 4863 
z
" transform="scale(0.015625)"/>
      <path id="DejaVuSans-6e" d="M 3513 2113 
L 3513 0 
L 2938 0 
L 2938 2094 
Q 2938 2591 2744 2837 
Q 2550 3084 2163 3084 
Q 1697 3084 1428 2787 
Q 1159 2491 1159 1978 
L 1159 0 
L 581 0 
L 581 3500 
L 1159 3500 
L 1159 2956 
Q 1366 3272 1645 3428 
Q 1925 3584 2291 3584 
Q 2894 3584 3203 3211 
Q 3513 2838 3513 2113 
z
" transform="scale(0.015625)"/>
      <path id="DejaVuSans-65" d="M 3597 1894 
L 3597 1613 
L 953 1613 
Q 991 1019 1311 708 
Q 1631 397 2203 397 
Q 2534 397 2845 478 
Q 3156 559 3463 722 
L 3463 178 
Q 3153 47 2828 -22 
Q 2503 -91 2169 -91 
Q 1331 -91 842 396 
Q 353 884 353 1716 
Q 353 2575 817 3079 
Q 1281 3584 2069 3584 
Q 2775 3584 3186 3129 
Q 3597 2675 3597 1894 
z
M 3022 2063 
Q 3016 2534 2758 2815 
Q 2500 3097 2075 3097 
Q 1594 3097 1305 2825 
Q 1016 2553 972 2059 
L 3022 2063 
z
" transform="scale(0.015625)"/>
     </defs>
     <use xlink:href="#DejaVuSans-4d"/>
     <use xlink:href="#DejaVuSans-61" x="86.279297"/>
     <use xlink:href="#DejaVuSans-69" x="147.558594"/>
     <use xlink:href="#DejaVuSans-6e" x="175.341797"/>
     <use xlink:href="#DejaVuSans-65" x="238.720703"/>
    </g>
   </g>
  </g>
 </g>
 <defs>
  <clipPath id="p1bbd660f7c">
   <rect x="54.273973" y="43.2" width="260.452055" height="277.2"/>
  </clipPath>
 </defs>
</svg>
