<?xml version="1.0" encoding="utf-8" standalone="no"?>
<!DOCTYPE svg PUBLIC "-//W3C//DTD SVG 1.1//EN"
  "http://www.w3.org/Graphics/SVG/1.1/DTD/svg11.dtd">
<svg xmlns:xlink="http://www.w3.org/1999/xlink" width="360pt" height="360pt" viewBox="0 0 360 360" xmlns="http://www.w3.org/2000/svg" version="1.1">
 <metadata>
  <rdf:RDF xmlns:dc="http://purl.org/dc/elements/1.1/" xmlns:cc="http://creativecommons.org/ns#" xmlns:rdf="http://www.w3.org/1999/02/22-rdf-syntax-ns#">
   <cc:Work>
    <dc:type rdf:resource="http://purl.org/dc/dcmitype/StillImage"/>
    <dc:date>2023-06-19T15:20:28.540699</dc:date>
    <dc:format>image/svg+xml</dc:format>
    <dc:creator>
     <cc:Agent>
      <dc:title>Matplotlib v3.7.1, https://matplotlib.org/</dc:title>
     </cc:Agent>
    </dc:creator>
   </cc:Work>
  </rdf:RDF>
 </metadata>
 <defs>
  <style type="text/css">*{stroke-linejoin: round; stroke-linecap: butt}</style>
 </defs>
 <g id="figure_1">
  <g id="patch_1">
   <path d="M 0 360 
L 360 360 
L 360 0 
L 0 0 
z
" style="fill: #ffffff"/>
  </g>
  <g id="axes_1">
   <g id="PatchCollection_1">
    <path d="M 254.150201 229.062325 
L 254.183658 228.008483 
L 254.194698 227.660733 
L 254.332067 227.049886 
L 254.591777 226.671893 
L 255.782671 226.273271 
L 255.843516 226.284177 
L 256.553515 226.41144 
L 256.815968 227.083943 
L 257.755609 227.254854 
L 258.110517 228.229409 
L 257.994405 229.163279 
L 257.273903 229.954922 
L 257.60824 230.775308 
L 257.321045 231.166616 
L 256.636325 231.156735 
L 255.776671 231.144331 
L 255.731986 231.143873 
L 255.697093 231.144378 
L 255.289194 231.150273 
L 255.251537 231.15713 
L 254.606977 231.137074 
L 254.590463 231.137416 
L 254.313953 231.161073 
L 254.13807 229.444417 
L 254.150201 229.062325 
" clip-path="url(#p5eb3581b04)" style="fill: #ffbe00"/>
    <path d="M 251.512972 221.359126 
L 251.79291 221.012732 
L 251.799863 220.970779 
L 251.886166 220.449999 
L 251.696626 219.86018 
L 251.907766 217.500563 
L 252.888835 216.880402 
L 253.098741 216.878283 
L 254.185041 216.867317 
L 255.705929 218.344377 
L 255.719015 218.681857 
L 255.097597 218.843854 
L 255.02777 219.486072 
L 255.147341 220.015822 
L 255.151767 220.035434 
L 255.176113 220.07405 
L 255.686216 220.883134 
L 255.773805 220.921803 
L 255.956211 221.002332 
L 256.259234 220.981532 
L 256.291862 221.525352 
L 255.801585 221.820775 
L 255.751643 222.341338 
L 256.50603 223.058411 
L 256.635399 224.099251 
L 256.313119 224.376846 
L 255.641359 224.46553 
L 254.877029 224.137021 
L 253.64082 223.085795 
L 253.584023 223.037497 
L 254.106757 222.351395 
L 254.270448 222.308733 
L 254.568063 222.231168 
L 254.708804 222.10957 
L 254.649069 222.017244 
L 254.491493 221.77369 
L 254.208653 221.620419 
L 253.726477 221.359126 
L 253.48711 221.251756 
L 252.337038 221.651072 
L 252.097934 221.734091 
L 252.061592 221.842832 
L 251.780168 221.96843 
L 251.512972 221.359126 
" clip-path="url(#p5eb3581b04)" style="fill: #ffbe00"/>
    <path d="M 234.255152 184.468955 
L 235.273763 183.463143 
L 235.836725 184.016048 
L 235.826967 184.149681 
L 235.782498 184.758664 
L 236.258204 185.74339 
L 236.215347 185.846131 
L 235.187479 186.006928 
L 234.667431 185.252255 
L 234.662276 185.242461 
L 234.255152 184.468955 
" clip-path="url(#p5eb3581b04)" style="fill: #ffbe00"/>
    <path d="M 57.72976 154.432038 
L 57.772045 151.693056 
L 57.869186 151.693056 
L 57.967699 141.575285 
L 57.984499 141.385689 
L 57.983813 140.985296 
L 58.18381 140.985296 
L 58.239658 135.380588 
L 58.24678 134.665803 
L 58.292265 134.625575 
L 58.314779 134.555862 
L 58.30975 130.163251 
L 63.121302 130.142603 
L 82.316808 130.060225 
L 82.942816 130.057539 
L 89.477848 130.063024 
L 89.637555 130.062801 
L 96.499137 130.053218 
L 101.342388 130.046453 
L 105.077455 130.058243 
L 107.814239 130.066882 
L 109.778073 130.073081 
L 111.462387 130.05531 
L 111.960208 130.07691 
L 116.318705 130.054796 
L 117.609083 130.076853 
L 120.942988 130.074499 
L 123.098802 130.072977 
L 123.112589 130.072967 
L 123.22813 130.074396 
L 123.282929 130.072167 
L 123.421669 130.077367 
L 123.787092 130.064339 
L 127.312232 130.068282 
L 127.316346 130.069596 
L 128.793121 130.075653 
L 128.951289 130.074681 
L 131.001654 130.073196 
L 131.09051 130.079138 
L 137.03365 130.083907 
L 138.354158 130.084967 
L 138.470442 130.084167 
L 149.841905 130.088453 
L 154.67739 130.127117 
L 154.71206 130.127394 
L 155.909116 130.136966 
L 157.356463 130.145595 
L 157.961481 130.15188 
L 158.44713 130.163251 
L 161.280796 130.165594 
L 161.410679 130.169537 
L 161.571449 130.170274 
L 169.26666 130.205536 
L 169.345915 130.203708 
L 173.015681 130.211765 
L 173.023053 130.211765 
L 173.577991 130.211755 
L 185.91969 130.211536 
L 186.119687 130.211536 
L 187.429719 130.211365 
L 187.433893 130.211365 
L 196.456139 130.204622 
L 196.496138 130.198851 
L 197.130356 130.210222 
L 199.869849 130.219679 
L 200.341616 130.221307 
L 203.444306 130.169537 
L 205.674668 130.186451 
L 206.101289 130.186394 
L 206.616536 130.184419 
L 210.723953 130.16868 
L 210.88395 130.174394 
L 211.986674 130.162851 
L 211.996547 130.162809 
L 216.072262 130.145252 
L 216.28363 130.145195 
L 217.107258 130.14453 
L 222.129275 130.140477 
L 224.42612 130.138623 
L 224.433338 130.138609 
L 227.414583 130.132566 
L 228.854444 130.132395 
L 231.690763 130.135964 
L 233.031459 130.137652 
L 233.037173 130.131938 
L 233.856145 130.135412 
L 234.357093 130.137537 
L 235.214164 130.131709 
L 235.242735 130.131709 
L 243.27686 130.130833 
L 243.630992 130.130795 
L 243.642721 130.130763 
L 249.21496 130.11586 
L 249.885236 130.114068 
L 255.381935 130.099367 
L 256.213349 130.094338 
L 257.037221 130.113881 
L 267.706721 130.094077 
L 267.812352 130.093881 
L 268.412627 130.095195 
L 269.052788 130.099195 
L 269.050731 131.329517 
L 269.050731 131.344146 
L 269.035702 132.379842 
L 269.038102 132.446698 
L 269.037069 133.001231 
L 269.035702 133.734505 
L 269.069744 134.31912 
L 269.104787 134.920942 
L 269.136786 135.314192 
L 269.177064 135.844124 
L 269.223037 136.449002 
L 269.485695 139.9048 
L 269.551472 140.710884 
L 269.555997 140.766343 
L 269.559749 140.812326 
L 269.810594 143.88637 
L 270.113428 147.597541 
L 270.292103 149.787176 
L 270.292824 149.796003 
L 270.669249 154.407299 
L 270.905173 157.297418 
L 270.90527 157.298618 
L 271.186809 161.196665 
L 271.28235 161.93671 
L 271.378862 163.166175 
L 271.379777 163.179755 
L 271.467318 164.480152 
L 271.486061 164.787861 
L 271.599373 165.945956 
L 271.692018 167.107035 
L 272.508504 177.339639 
L 272.627298 178.828422 
L 272.642384 178.893792 
L 272.728325 180.05823 
L 272.731696 180.121029 
L 272.795753 180.894158 
L 272.811295 181.074098 
L 272.812437 181.089658 
L 272.844552 181.527405 
L 272.935856 182.688947 
L 273.099086 184.765495 
L 273.368177 188.188763 
L 273.683616 192.201651 
L 273.683625 192.201774 
L 273.683852 192.204651 
L 273.727337 192.727957 
L 273.747336 193.004009 
L 273.768765 193.291376 
L 273.773679 193.378746 
L 273.876191 194.674781 
L 273.906819 195.071802 
L 274.014303 196.46555 
L 274.01451 196.468237 
L 274.093502 197.495533 
L 274.094033 197.503382 
L 274.173672 198.679627 
L 274.293098 200.139145 
L 274.311327 200.373198 
L 274.474124 202.216309 
L 276.070954 202.286479 
L 276.227637 202.294536 
L 277.082047 202.317085 
L 278.078863 202.343393 
L 279.930145 202.403335 
L 280.215169 202.429106 
L 280.430937 202.435848 
L 280.757103 202.427963 
L 281.299608 202.452705 
L 282.10988 202.476305 
L 282.151193 202.477219 
L 283.605854 202.51179 
L 284.236472 202.52899 
L 284.317956 202.52899 
L 285.366453 202.553961 
L 285.527593 202.558303 
L 286.727515 202.583732 
L 286.827157 202.585762 
L 289.60958 202.642473 
L 289.621091 202.642654 
L 289.832319 202.645959 
L 290.629563 202.657959 
L 291.549719 202.671673 
L 291.619603 202.674301 
L 292.90621 202.674701 
L 293.778309 202.680358 
L 294.609781 202.68253 
L 294.615226 202.682562 
L 298.511305 202.705575 
L 299.233988 202.709844 
L 299.66998 202.715272 
L 302.392933 202.730802 
L 303.5174 202.737215 
L 306.004901 202.726701 
L 308.991934 202.723382 
L 310.119517 202.722129 
L 310.324313 202.721272 
L 310.416486 202.721394 
L 311.058472 202.722243 
L 311.114071 202.722301 
L 311.318182 202.722872 
L 310.995216 204.804722 
L 310.607851 206.254069 
L 309.973233 208.207636 
L 309.23085 209.97269 
L 309.227989 209.979491 
L 309.116676 210.065261 
L 308.849461 210.037674 
L 308.749711 210.027376 
L 308.232063 210.707765 
L 307.438362 212.838928 
L 305.930274 215.910533 
L 305.030803 217.980955 
L 304.985952 218.112967 
L 303.978021 221.079645 
L 303.04078 223.022526 
L 301.765316 224.978321 
L 300.259513 226.964459 
L 299.577582 227.004573 
L 299.220855 227.036041 
L 297.92321 227.150513 
L 292.679299 227.628105 
L 292.525242 227.64085 
L 288.476285 227.975813 
L 281.928854 228.532147 
L 278.438514 228.839856 
L 278.432456 228.840598 
L 278.396171 229.047338 
L 278.306401 229.143622 
L 278.065606 229.204992 
L 277.970579 229.269277 
L 277.887894 229.448702 
L 277.690001 229.642583 
L 277.645498 229.686184 
L 277.439673 229.882181 
L 277.273848 230.235775 
L 277.073623 230.407429 
L 277.109222 231.535867 
L 276.647801 231.626951 
L 276.099696 231.394955 
L 275.839301 231.333756 
L 276.112039 231.007019 
L 276.224151 230.726281 
L 276.114175 230.657356 
L 275.733531 230.4188 
L 274.915602 230.359887 
L 273.363914 229.844696 
L 272.853352 230.02795 
L 272.820381 230.14829 
L 272.5181 230.379944 
L 271.971699 230.582838 
L 271.94411 230.593083 
L 271.244293 230.287545 
L 270.922467 230.222431 
L 270.738759 230.185261 
L 269.728376 230.106348 
L 269.325983 230.07492 
L 267.957982 231.085292 
L 267.310405 231.563577 
L 266.692542 232.019916 
L 266.548945 232.319511 
L 265.59531 232.82484 
L 265.278954 232.992476 
L 264.931087 233.17681 
L 263.720456 233.505207 
L 263.542253 233.553547 
L 263.104889 233.260352 
L 262.78318 232.788017 
L 263.02609 232.46368 
L 263.097779 231.923725 
L 263.208602 231.089017 
L 262.746609 229.965208 
L 263.671622 228.33775 
L 264.098529 227.825187 
L 264.092701 226.895146 
L 264.218927 226.544638 
L 264.429064 226.485642 
L 265.115083 226.293042 
L 265.513705 226.411954 
L 265.54519 226.549266 
L 265.662788 226.544923 
L 265.674577 226.539341 
L 266.269542 226.257626 
L 266.685557 226.060643 
L 266.722599 226.043103 
L 266.916198 225.857525 
L 267.663269 225.141404 
L 267.291728 224.702877 
L 267.281675 224.691012 
L 265.871756 224.379132 
L 265.032971 224.661927 
L 264.968514 224.752211 
L 265.03657 225.072663 
L 264.464144 225.130032 
L 264.315326 225.144947 
L 264.161843 225.06392 
L 263.800363 224.22262 
L 264.321535 223.412799 
L 264.678599 222.857977 
L 264.754918 222.739388 
L 265.966669 222.045514 
L 266.254721 222.008829 
L 266.275246 221.967972 
L 266.819797 220.883991 
L 266.817618 220.882489 
L 265.894784 220.246231 
L 265.548676 220.256802 
L 265.286499 220.362316 
L 264.998914 220.478055 
L 264.629777 220.80125 
L 264.479151 220.830106 
L 263.773917 220.679606 
L 262.666668 220.443313 
L 262.315709 220.605168 
L 262.271865 220.625388 
L 261.327145 221.061074 
L 260.567618 221.411354 
L 260.591961 222.225797 
L 260.487905 222.224654 
L 260.098597 222.046657 
L 259.855173 221.758891 
L 259.280383 220.672395 
L 259.757118 219.258362 
L 259.970771 218.893396 
L 259.973435 218.866986 
L 259.977484 218.826846 
L 259.985285 218.749513 
L 259.717175 218.438261 
L 259.740375 218.33232 
L 260.265566 217.819586 
L 263.368485 216.862631 
L 263.47454 216.891431 
L 263.566767 217.094741 
L 263.958303 217.178111 
L 264.738118 217.031485 
L 265.731875 216.492254 
L 265.751073 216.481838 
L 265.464277 215.570139 
L 265.456748 215.563374 
L 265.02065 215.171573 
L 264.708161 214.890825 
L 264.383472 214.599116 
L 264.383039 214.598727 
L 264.135329 214.536899 
L 263.633509 214.540842 
L 263.343342 214.713525 
L 263.295172 214.823409 
L 263.505454 215.308772 
L 263.220144 215.480026 
L 262.933292 215.448484 
L 262.684668 215.244373 
L 262.204104 214.414959 
L 262.214276 214.106564 
L 262.050221 213.769084 
L 261.69857 213.473375 
L 262.248561 212.932184 
L 262.608498 212.16454 
L 262.506614 211.487637 
L 263.083804 210.842848 
L 263.688193 209.702696 
L 264.306983 209.522985 
L 264.869773 208.648085 
L 264.830824 208.38735 
L 264.768684 207.971378 
L 264.767946 207.96644 
L 263.267172 208.413746 
L 261.854682 209.122077 
L 261.128123 210.14486 
L 260.353965 211.455695 
L 260.482591 212.947498 
L 259.744318 213.254921 
L 259.549407 213.423547 
L 259.570321 214.05805 
L 259.898658 214.291875 
L 260.14414 214.272275 
L 260.36145 214.400444 
L 260.03477 214.858265 
L 258.602045 215.168713 
L 258.560624 215.177688 
L 258.758506 214.457244 
L 258.550167 214.015422 
L 257.871378 213.357434 
L 257.783323 212.711102 
L 257.669072 212.549876 
L 257.522184 212.342594 
L 256.551344 211.119586 
L 256.041867 210.95456 
L 255.980553 210.845991 
L 256.478659 210.665708 
L 258.038747 210.500797 
L 258.727592 210.214116 
L 259.01633 209.978634 
L 259.147357 209.505099 
L 259.147128 208.998879 
L 258.46554 207.603532 
L 256.842367 207.110569 
L 256.575686 207.35405 
L 256.294548 207.904555 
L 256.278548 208.104837 
L 256.388946 208.325748 
L 256.019524 209.513271 
L 255.03297 210.040004 
L 254.594634 210.101375 
L 254.367152 210.323714 
L 254.13967 210.818106 
L 254.1031 211.131986 
L 255.228109 212.054313 
L 255.402106 212.502991 
L 254.747946 213.941595 
L 254.44418 214.259247 
L 254.452351 214.698725 
L 254.933086 215.334486 
L 255.141711 216.127158 
L 253.657964 215.533168 
L 253.00129 214.883122 
L 252.693009 214.098792 
L 251.562078 214.032002 
L 251.274576 214.015022 
L 249.789059 214.851008 
L 249.229297 215.241402 
L 248.413654 215.109518 
L 248.345434 215.07344 
L 247.533596 214.6441 
L 247.516412 214.635012 
L 246.542086 213.590858 
L 246.157121 212.942584 
L 246.081189 212.842429 
L 245.559017 212.153683 
L 245.462038 212.048058 
L 244.537948 211.041587 
L 244.136758 210.589097 
L 243.923896 210.349016 
L 243.823846 210.236173 
L 242.249187 209.946063 
L 241.798852 209.027507 
L 242.687294 207.806157 
L 241.533314 207.104055 
L 240.843268 206.045387 
L 240.941552 205.472539 
L 240.800469 204.880035 
L 239.745173 203.379775 
L 238.639192 202.231509 
L 238.026859 201.449465 
L 238.002236 201.353622 
L 237.752521 200.381655 
L 238.272684 199.931034 
L 238.79856 200.040861 
L 240.42979 199.714752 
L 240.767613 199.700409 
L 240.872411 199.814236 
L 240.876047 199.813973 
L 241.889136 199.740694 
L 241.993997 199.659455 
L 242.095876 199.580526 
L 242.807661 198.622587 
L 242.841577 198.576943 
L 242.903746 198.295469 
L 243.007517 197.825641 
L 242.751007 197.7081 
L 242.672148 197.701943 
L 242.62825 197.698516 
L 242.480212 197.686958 
L 241.312632 198.154721 
L 241.081264 198.082665 
L 240.91321 197.873412 
L 241.118121 197.546503 
L 241.206577 197.14891 
L 240.993609 196.667661 
L 240.790833 196.435179 
L 240.399162 195.98613 
L 239.354722 195.836932 
L 239.534662 195.635564 
L 240.350458 195.220996 
L 241.344688 194.715751 
L 241.622569 194.352158 
L 241.396781 194.109655 
L 240.996523 193.679769 
L 241.440058 193.328861 
L 241.878451 193.360403 
L 242.886719 192.721957 
L 243.450138 192.589616 
L 243.762304 193.423202 
L 244.834286 193.838738 
L 245.369248 193.609999 
L 245.395934 193.480287 
L 246.064265 193.018523 
L 246.974707 192.578588 
L 247.254873 192.553788 
L 247.519498 193.640913 
L 247.492298 194.298958 
L 248.339826 194.525983 
L 249.047357 194.123819 
L 249.719689 194.712951 
L 250.622816 195.137573 
L 251.89268 194.781922 
L 252.49027 195.195972 
L 253.726192 196.0507 
L 254.627319 196.664347 
L 255.365002 196.180595 
L 255.457819 196.119727 
L 255.308508 195.80845 
L 254.998291 195.161723 
L 254.989256 195.142887 
L 253.957102 194.086676 
L 252.103191 192.818527 
L 250.385163 192.887497 
L 249.678946 192.20848 
L 248.56388 192.118653 
L 248.080859 190.904788 
L 246.96385 190.038917 
L 245.732042 190.060402 
L 245.525303 190.1796 
L 244.812515 189.544297 
L 243.331569 187.775584 
L 243.291468 187.527255 
L 243.267799 187.380676 
L 243.427853 187.108567 
L 243.333855 186.484806 
L 242.396271 186.425264 
L 242.381692 186.436873 
L 241.528628 187.116167 
L 241.453258 187.754384 
L 241.25789 187.783069 
L 239.91597 187.480732 
L 239.877571 187.407476 
L 240.061225 187.128909 
L 239.867365 186.946927 
L 239.864428 186.944169 
L 239.101298 186.754858 
L 238.907587 186.818972 
L 238.457221 187.388542 
L 238.370453 187.498274 
L 238.239313 188.296604 
L 238.580793 189.108875 
L 238.549193 189.69218 
L 237.525039 190.152686 
L 237.087504 189.296187 
L 237.513497 186.776001 
L 237.470126 185.54385 
L 237.852005 184.3433 
L 238.472052 183.978963 
L 239.254153 182.975609 
L 239.32038 182.032767 
L 239.779401 181.298837 
L 239.955912 181.177468 
L 240.489903 181.232724 
L 241.120978 181.000042 
L 241.078693 180.767189 
L 241.454458 179.837091 
L 241.874679 179.848462 
L 241.783995 180.080458 
L 242.666495 181.341808 
L 242.922376 181.525005 
L 244.335169 182.049576 
L 244.43995 182.088481 
L 245.650787 181.970254 
L 245.691113 181.907323 
L 245.919811 181.550433 
L 246.053523 181.100555 
L 245.675529 180.297597 
L 245.673828 180.291026 
L 245.59807 179.998338 
L 245.570447 179.891614 
L 245.502817 179.630327 
L 245.395934 179.217387 
L 245.539703 178.059178 
L 245.255079 177.496845 
L 245.336506 175.459394 
L 244.75343 174.946031 
L 243.713677 174.651636 
L 243.562678 174.683729 
L 242.678323 174.871689 
L 242.637695 175.466936 
L 242.639387 175.469589 
L 242.800264 175.721789 
L 242.705922 175.886529 
L 242.321758 176.00527 
L 241.988678 175.939728 
L 241.84828 175.676876 
L 241.833423 175.349967 
L 241.368288 174.685407 
L 240.063853 175.443337 
L 239.862714 176.02167 
L 240.180651 176.502862 
L 240.215616 176.933677 
L 240.215679 176.934454 
L 239.34878 177.172393 
L 238.804675 176.434806 
L 238.802958 176.434844 
L 238.453252 176.442691 
L 237.767149 176.739658 
L 237.766444 176.743632 
L 237.63018 177.511245 
L 237.809434 177.879981 
L 238.057087 179.120017 
L 237.88629 179.35327 
L 237.510982 179.610294 
L 236.950821 179.515496 
L 236.336488 179.824462 
L 235.933409 180.731132 
L 235.539645 180.539764 
L 235.475874 179.911946 
L 236.134377 178.576541 
L 236.078378 176.653945 
L 236.303003 174.842661 
L 236.754367 173.810736 
L 238.534279 171.389749 
L 238.556165 171.002727 
L 238.484109 170.854958 
L 238.671705 170.052 
L 239.157869 169.352355 
L 239.724659 169.101274 
L 239.771515 169.561609 
L 239.667574 169.891146 
L 240.175223 171.14141 
L 241.11715 172.367446 
L 241.768285 172.326561 
L 242.183703 172.300476 
L 243.830525 172.639698 
L 243.871445 172.648127 
L 244.46275 173.050521 
L 245.409534 172.905323 
L 247.602182 171.393234 
L 247.623439 170.79233 
L 247.397271 170.322853 
L 246.785453 169.557723 
L 246.44683 168.723394 
L 246.956707 168.006778 
L 247.312358 167.779239 
L 247.889491 167.625013 
L 248.203552 167.105987 
L 248.371312 166.828741 
L 248.677249 166.062868 
L 247.939178 165.995795 
L 247.410237 165.947727 
L 246.463916 165.861729 
L 245.351077 166.474175 
L 244.970627 167.686498 
L 244.922939 168.117117 
L 244.867947 168.613686 
L 244.823486 169.015161 
L 245.058568 169.948859 
L 245.506332 170.537306 
L 245.023597 170.795016 
L 243.729276 170.308853 
L 243.105173 169.71412 
L 243.207 169.092874 
L 243.401553 168.802919 
L 243.426424 168.765851 
L 243.760872 167.894532 
L 243.766304 167.88038 
L 243.730248 166.634173 
L 243.632592 166.145095 
L 242.517697 163.731365 
L 242.06479 163.172746 
L 241.057208 163.037777 
L 241.27949 161.910596 
L 241.738625 161.051582 
L 242.3541 160.418907 
L 242.628324 159.983543 
L 243.712934 158.033462 
L 244.439379 156.396004 
L 244.901371 155.949441 
L 245.371191 155.946069 
L 246.363003 155.060599 
L 246.601742 154.693176 
L 246.818424 154.298669 
L 246.871337 153.856048 
L 246.739111 153.647423 
L 246.343003 153.512339 
L 246.307404 153.340171 
L 246.368317 153.11966 
L 247.234531 152.39053 
L 247.848749 152.172533 
L 248.65725 152.258818 
L 249.360038 151.910709 
L 249.145984 151.686542 
L 249.261468 151.306205 
L 250.323964 150.743072 
L 250.657044 150.09554 
L 254.124471 150.18771 
L 255.091483 150.372278 
L 255.659073 150.687587 
L 256.598696 150.431704 
L 256.835167 150.367307 
L 256.832048 149.856535 
L 256.829129 149.378502 
L 256.829053 149.36601 
L 254.940343 149.299954 
L 254.690975 149.191384 
L 254.632119 148.839562 
L 254.972685 148.396312 
L 256.028153 148.026547 
L 256.579629 147.680153 
L 257.121562 146.778054 
L 257.967891 146.493887 
L 258.301485 145.960182 
L 258.304273 145.899434 
L 258.309828 145.778414 
L 257.543898 145.15911 
L 257.536879 145.160353 
L 257.071278 145.242766 
L 256.829167 145.641502 
L 256.43266 145.698815 
L 256.269234 145.475162 
L 256.805568 144.530778 
L 257.168762 144.12987 
L 257.307902 143.439311 
L 257.755723 142.201903 
L 258.340913 141.083637 
L 258.861019 140.587531 
L 258.84782 140.017427 
L 258.845819 139.930971 
L 258.667765 139.502578 
L 258.083074 139.359368 
L 257.393729 139.190526 
L 256.991679 139.339666 
L 256.961895 139.384914 
L 256.610428 139.918857 
L 255.234529 140.008444 
L 254.294161 140.069674 
L 253.351147 140.131076 
L 253.326484 140.132681 
L 252.646302 140.337151 
L 251.48303 140.686843 
L 250.272708 143.020747 
L 250.462647 143.555995 
L 250.99201 144.00793 
L 251.354861 144.160841 
L 252.213646 144.061186 
L 252.859978 144.221926 
L 253.491053 145.52699 
L 253.487739 145.783328 
L 252.334216 146.41246 
L 252.214618 146.320519 
L 251.131036 146.472631 
L 250.29745 146.932337 
L 250.007798 147.297359 
L 248.608736 148.20683 
L 247.90012 148.149688 
L 247.174418 148.955388 
L 246.682998 149.789717 
L 246.071979 149.886001 
L 245.667129 150.361764 
L 244.163783 151.208493 
L 243.265741 150.715473 
L 242.657295 149.693604 
L 243.1666 148.281857 
L 244.137669 147.043707 
L 243.77099 145.286879 
L 242.59621 145.674873 
L 242.657295 146.734226 
L 242.412842 147.830607 
L 241.597941 148.334313 
L 241.611541 149.158242 
L 240.647272 150.355022 
L 241.720168 151.016553 
L 242.310958 152.003793 
L 241.197148 152.915435 
L 240.873211 154.24387 
L 240.023968 154.159471 
L 240.423161 153.243487 
L 239.900027 152.555441 
L 240.077167 151.36689 
L 238.688112 150.915354 
L 238.643992 150.901012 
L 239.492834 150.54399 
L 239.601461 149.567606 
L 238.956329 149.1215 
L 238.881234 149.130428 
L 238.161828 149.215955 
L 236.937005 148.933992 
L 236.566027 148.84859 
L 236.525091 149.091163 
L 236.443801 149.572863 
L 236.462204 149.580509 
L 237.442012 149.987542 
L 237.353728 150.869527 
L 237.798063 151.80854 
L 237.106875 151.764426 
L 237.047744 151.978744 
L 236.965001 152.278643 
L 236.919107 152.444986 
L 238.162571 153.365256 
L 237.739836 153.932389 
L 237.531915 153.882076 
L 236.150834 153.547881 
L 236.074895 153.611595 
L 235.261263 154.294233 
L 235.248621 154.30484 
L 235.167958 155.105599 
L 235.166222 155.122826 
L 234.978797 155.599961 
L 235.003062 155.612888 
L 236.595455 156.461203 
L 237.3259 156.666914 
L 236.973449 157.148849 
L 235.74587 157.770038 
L 234.372636 158.127118 
L 234.187887 158.226225 
L 233.105686 158.806763 
L 232.671408 159.612464 
L 231.68851 160.201025 
L 231.394846 160.0542 
L 230.598332 159.655962 
L 230.488473 159.601035 
L 229.539918 159.646749 
L 229.03707 159.81246 
L 228.494165 159.663891 
L 228.345596 159.402867 
L 228.627648 158.842534 
L 228.467836 158.55364 
L 228.221754 158.108793 
L 228.220226 158.106032 
L 227.683721 158.311229 
L 227.208358 157.590613 
L 226.715639 157.577883 
L 226.347973 157.568384 
L 225.813239 156.895767 
L 225.811118 156.895021 
L 224.324036 156.372101 
L 223.976013 156.249721 
L 223.967319 156.25282 
L 223.459908 156.433718 
L 223.462348 156.437554 
L 223.869786 157.077982 
L 223.914871 157.148849 
L 225.013252 158.033005 
L 224.716172 158.532139 
L 224.719341 158.534786 
L 225.239077 158.968818 
L 225.276788 158.975556 
L 226.442714 159.1839 
L 226.4443 159.542456 
L 226.448428 160.475306 
L 226.92842 161.201008 
L 227.299462 161.382254 
L 227.725604 161.590415 
L 227.922746 161.686714 
L 228.34891 162.150821 
L 228.372581 162.14645 
L 229.314779 161.972481 
L 229.324965 161.976659 
L 229.7742 162.160935 
L 230.031338 162.526643 
L 231.099949 163.166632 
L 231.824037 163.52115 
L 232.347696 163.777536 
L 232.477125 163.840906 
L 232.259986 164.126615 
L 232.231415 164.898031 
L 232.766956 166.427795 
L 232.854326 166.677369 
L 232.86689 166.713257 
L 232.79712 167.126507 
L 232.266126 167.844305 
L 231.896347 168.344173 
L 231.891592 168.350601 
L 233.825674 169.469267 
L 234.242867 170.074971 
L 234.454292 170.720675 
L 232.848548 171.994939 
L 232.555988 172.06262 
L 231.320198 172.348512 
L 231.317145 172.349218 
L 231.231432 172.646299 
L 231.167536 172.694611 
L 230.997151 172.823439 
L 230.318798 172.88793 
L 229.876198 172.930008 
L 229.837113 173.23486 
L 230.042881 173.851993 
L 230.511445 174.303413 
L 230.814296 174.314842 
L 231.242918 174.73192 
L 230.580072 175.709047 
L 230.797211 176.263323 
L 230.71727 176.674744 
L 230.385788 176.658005 
L 230.151508 176.646174 
L 230.145794 176.42332 
L 229.786885 176.254409 
L 228.982275 176.454495 
L 228.76296 176.509033 
L 228.755739 176.884472 
L 228.751532 177.103251 
L 228.814388 177.331819 
L 228.922957 177.394675 
L 229.00867 177.800382 
L 228.934386 177.948951 
L 227.765563 178.829937 
L 227.290871 179.18773 
L 227.433611 179.872176 
L 227.454287 179.879651 
L 227.871261 180.030402 
L 228.597306 179.760292 
L 228.980213 180.348853 
L 228.980213 180.583135 
L 228.465937 181.794486 
L 227.825947 182.725899 
L 226.991619 183.080178 
L 226.831622 183.263032 
L 226.860192 183.537313 
L 226.380201 184.045876 
L 224.979939 184.660437 
L 225.114165 185.956072 
L 225.387989 186.489606 
L 225.860438 186.926456 
L 226.69511 186.884742 
L 226.848707 186.963198 
L 226.878706 187.113595 
L 226.731173 187.734655 
L 226.542598 188.528485 
L 226.550541 189.74595 
L 226.99499 191.597747 
L 227.513038 192.546017 
L 227.757377 193.324061 
L 227.468125 194.782093 
L 227.538638 196.751545 
L 227.401498 197.7009 
L 227.504353 198.281519 
L 228.057658 199.674524 
L 228.819016 200.917989 
L 230.927552 202.724586 
L 230.915952 202.915554 
L 230.993148 202.998908 
L 231.205376 203.228063 
L 232.043418 203.74194 
L 233.236941 204.813179 
L 233.961157 205.880533 
L 234.494405 206.25344 
L 234.781829 206.350353 
L 234.902913 206.679947 
L 234.858742 207.865413 
L 233.833731 209.018422 
L 233.017688 210.056861 
L 232.251286 209.965829 
L 232.233529 209.96372 
L 232.171536 209.975039 
L 231.153776 210.16086 
L 230.854355 210.017877 
L 230.22743 209.718502 
L 230.216707 209.713381 
L 230.067311 209.997736 
L 229.754886 210.592395 
L 229.788702 210.631058 
L 230.419398 211.352172 
L 230.46796 211.407695 
L 231.099492 211.754147 
L 231.968677 211.786089 
L 232.749635 211.327754 
L 233.605278 211.109301 
L 233.950643 210.714793 
L 235.173537 211.187471 
L 235.543244 211.399524 
L 235.574215 211.575007 
L 234.449092 212.610132 
L 234.181611 213.252178 
L 234.154868 213.692914 
L 234.959197 216.066188 
L 236.294432 217.534905 
L 236.772195 218.32992 
L 238.1328 219.641384 
L 238.679591 220.603939 
L 237.649631 221.660097 
L 237.628238 221.682035 
L 237.692467 222.172518 
L 237.692979 222.176426 
L 238.070573 222.832929 
L 238.155486 224.414102 
L 238.717305 226.033789 
L 238.567764 226.42304 
L 238.287712 225.931505 
L 237.955261 225.655338 
L 237.464297 225.440542 
L 236.815966 225.46997 
L 236.331002 225.106548 
L 235.727984 223.962396 
L 234.554004 222.629219 
L 233.809274 222.396194 
L 233.774774 222.396592 
L 233.364024 222.401337 
L 233.288885 222.455087 
L 233.170313 222.539906 
L 232.903804 222.449622 
L 232.37747 221.68712 
L 232.425698 221.299584 
L 231.839422 220.569996 
L 232.090903 220.130233 
L 232.001398 219.761277 
L 231.893992 219.318532 
L 230.765044 219.592737 
L 230.135165 219.745725 
L 230.630928 220.771136 
L 230.383208 221.225318 
L 230.127622 221.69392 
L 230.127809 221.705539 
L 230.131051 221.907059 
L 230.321562 222.143741 
L 230.382932 222.461564 
L 229.929454 222.621276 
L 229.760543 222.52562 
L 229.485462 221.887688 
L 228.808412 221.120274 
L 228.410852 220.669652 
L 228.406287 220.667861 
L 227.897546 220.468284 
L 227.554752 220.43937 
L 227.120817 220.543826 
L 226.69511 220.847135 
L 226.094434 219.766696 
L 225.811296 219.059165 
L 225.697127 218.470604 
L 225.375761 217.811415 
L 224.613488 217.166683 
L 224.312332 216.972181 
L 223.222654 216.268413 
L 220.82801 215.614424 
L 220.177449 215.647395 
L 218.489878 215.114775 
L 217.711984 215.135984 
L 216.253786 215.17574 
L 216.037691 215.181631 
L 215.853338 215.166091 
L 214.684628 215.067576 
L 214.444087 215.325326 
L 213.985726 215.816477 
L 212.480666 215.453684 
L 212.409802 215.421886 
L 211.404856 214.970949 
L 210.593727 214.216048 
L 210.577727 214.102564 
L 210.919321 214.093421 
L 210.960749 214.014965 
L 210.96516 213.973423 
L 211.125146 212.466706 
L 210.206076 211.599578 
L 209.818997 210.714964 
L 209.391176 209.644126 
L 209.384707 209.639322 
L 208.88187 209.265903 
L 209.71037 208.658714 
L 209.124206 208.432653 
L 209.071221 208.412219 
L 208.523042 208.200808 
L 208.053427 208.019696 
L 207.885892 208.339044 
L 207.612006 208.86111 
L 207.265669 209.548241 
L 207.904001 209.947777 
L 208.182454 210.549824 
L 208.589875 211.349125 
L 208.951698 211.984371 
L 209.270549 212.851328 
L 209.251509 212.930417 
L 209.099924 213.560059 
L 208.851356 213.966795 
L 208.569361 213.871425 
L 207.585492 213.140866 
L 207.470643 213.099254 
L 206.314485 212.680359 
L 205.059021 212.027456 
L 204.348976 211.848145 
L 204.278743 210.732827 
L 204.277834 210.718393 
L 204.194864 210.513082 
L 204.135496 210.451399 
L 203.856299 210.161317 
L 203.137568 209.674868 
L 202.463522 209.464529 
L 201.231315 208.661971 
L 200.769037 207.766443 
L 200.500584 205.939274 
L 199.911737 205.12106 
L 199.737283 204.397758 
L 198.895412 203.048066 
L 198.878087 203.048748 
L 197.50875 203.10258 
L 197.428289 203.138889 
L 197.305896 203.194121 
L 195.517298 204.24016 
L 194.894223 204.809008 
L 194.626799 205.220944 
L 193.741214 205.295742 
L 193.511789 205.12586 
L 193.509648 205.125618 
L 192.783859 205.043804 
L 192.634832 205.375263 
L 192.531749 205.604537 
L 192.017986 206.120757 
L 189.163635 207.61576 
L 187.984683 207.945412 
L 187.446578 207.757301 
L 185.535582 206.636062 
L 184.731825 204.836036 
L 184.976163 204.057764 
L 184.976163 203.605257 
L 184.161434 200.979645 
L 184.768338 199.232589 
L 185.266456 198.471677 
L 185.768919 197.704127 
L 186.246885 196.973999 
L 186.890246 196.844334 
L 187.19584 196.782745 
L 187.836527 196.002564 
L 189.330089 194.183818 
L 190.135561 193.831195 
L 191.336683 193.903765 
L 192.454779 193.402974 
L 192.709289 193.093608 
L 193.514475 192.691214 
L 193.765728 192.266822 
L 193.498609 192.258272 
L 192.391008 192.222822 
L 192.276667 191.868543 
L 192.29381 191.697117 
L 192.065243 191.377123 
L 192.147418 190.797082 
L 192.259525 190.005774 
L 192.859515 189.320072 
L 193.779556 188.691568 
L 193.96241 188.605855 
L 194.173835 188.588713 
L 194.585257 188.314432 
L 194.897885 188.159401 
L 195.288159 187.965866 
L 195.618723 187.866529 
L 195.670553 187.850954 
L 195.724609 187.904953 
L 196.09826 187.963066 
L 196.790991 187.94301 
L 197.23104 187.691585 
L 197.413894 187.451589 
L 197.465322 187.108738 
L 197.488179 186.343094 
L 197.436751 186.137383 
L 197.444229 185.840159 
L 197.475618 184.592477 
L 197.482464 184.320328 
L 197.523918 183.632203 
L 197.539606 183.371773 
L 197.573892 183.303203 
L 197.602005 183.272803 
L 198.435268 182.61105 
L 199.751054 181.56609 
L 199.831053 181.543233 
L 200.248189 181.183239 
L 201.002462 180.634734 
L 202.005617 179.829908 
L 202.222835 179.655635 
L 202.476779 179.451897 
L 202.705347 179.2919 
L 204.39109 177.971922 
L 204.442517 177.931923 
L 204.928223 177.554787 
L 205.008336 177.489645 
L 203.970872 176.663847 
L 203.539618 176.320579 
L 203.149621 176.019127 
L 200.294158 173.811971 
L 199.688141 173.343544 
L 199.682929 173.33932 
L 199.356718 173.074977 
L 199.042438 172.829267 
L 198.939583 172.743554 
L 197.756688 171.840713 
L 197.487036 171.621402 
L 197.401309 171.688778 
L 196.728134 172.217849 
L 195.737181 172.979691 
L 194.929244 173.60083 
L 194.602399 173.852107 
L 194.076694 174.286385 
L 193.859555 174.42924 
L 192.987627 175.118771 
L 192.985473 175.117215 
L 192.53952 174.794948 
L 192.29381 174.372098 
L 191.962387 173.920677 
L 191.453824 173.412114 
L 191.363654 173.366858 
L 191.197657 173.31943 
L 190.385271 173.194975 
L 190.293844 173.189261 
L 190.230988 173.22926 
L 190.008135 173.223546 
L 189.373803 173.149262 
L 189.070951 173.223546 
L 188.545245 173.263545 
L 188.259536 173.200689 
L 188.19668 173.143548 
L 187.870971 173.057835 
L 187.745259 173.114977 
L 187.17384 173.006407 
L 186.975729 172.889895 
L 186.779961 172.601042 
L 186.688706 172.517958 
L 186.596764 172.514587 
L 186.558651 172.538301 
L 186.413796 172.720698 
L 185.556668 172.172193 
L 185.642381 171.806485 
L 185.590953 171.726486 
L 185.373814 171.612202 
L 185.219531 171.229352 
L 185.442384 170.715075 
L 185.722379 170.520792 
L 185.853806 170.21794 
L 185.773807 169.943659 
L 185.637807 169.830326 
L 185.636666 169.829375 
L 185.242387 169.652236 
L 184.630912 169.543666 
L 184.133663 169.418982 
L 183.08231 168.709452 
L 182.630889 168.538026 
L 182.076613 168.395171 
L 181.836617 168.383743 
L 181.30514 168.138033 
L 181.072282 168.064499 
L 180.762292 167.966607 
L 180.744921 167.88198 
L 180.659151 167.837295 
L 180.386242 167.767582 
L 179.813451 167.81661 
L 179.276832 167.823981 
L 178.829582 167.87638 
L 178.398161 167.86438 
L 178.110795 167.778039 
L 177.7924 167.824952 
L 177.019613 167.665127 
L 176.864785 167.673401 
L 176.711676 167.681583 
L 176.092429 167.570785 
L 175.649579 167.545471 
L 174.837022 167.332161 
L 173.955494 167.226048 
L 173.648356 167.154335 
L 173.46276 167.072737 
L 173.396075 167.010052 
L 173.022907 166.455767 
L 173.006024 166.43069 
L 172.836256 166.080011 
L 172.573632 165.633904 
L 172.329693 165.329509 
L 172.071355 165.121227 
L 171.548221 164.907802 
L 171.276454 164.855689 
L 170.384526 164.590493 
L 170.121159 164.457124 
L 170.060767 164.367174 
L 169.856592 164.063074 
L 169.732652 163.520569 
L 169.706583 163.100787 
L 169.700995 163.010806 
L 169.838707 162.884008 
L 170.047275 162.163906 
L 170.321327 161.601973 
L 170.652465 161.168094 
L 170.964974 160.964326 
L 172.061583 160.757759 
L 172.483005 160.557591 
L 172.553518 160.481763 
L 172.687744 160.22811 
L 172.635402 159.822974 
L 172.767914 159.458238 
L 172.967739 159.26207 
L 173.552301 158.871105 
L 173.607194 158.77657 
L 173.663156 158.680194 
L 173.678184 158.50894 
L 173.653042 158.444941 
L 173.533615 158.318143 
L 172.904883 157.96672 
L 172.356664 157.55787 
L 172.136268 157.303075 
L 172.01347 157.219476 
L 171.453879 157.021822 
L 170.778405 156.931252 
L 170.138016 156.668285 
L 170.06076 156.596344 
L 169.975048 156.562344 
L 169.290773 156.375205 
L 168.941065 156.227436 
L 168.789811 156.113723 
L 168.730954 155.958126 
L 168.640213 155.850985 
L 168.342618 155.602589 
L 168.224906 155.409107 
L 167.782628 155.015742 
L 167.673258 154.538665 
L 167.727086 154.115129 
L 167.648001 154.001417 
L 167.498231 153.903309 
L 167.454519 153.874676 
L 167.257665 153.86159 
L 166.774816 153.925704 
L 166.218026 154.112729 
L 165.960659 154.150728 
L 165.609065 154.116843 
L 165.208614 154.013702 
L 164.634967 154.068901 
L 163.482872 153.779763 
L 163.243962 153.753535 
L 162.631687 153.608223 
L 161.766959 153.252572 
L 161.469192 152.985891 
L 161.211768 152.842065 
L 161.138797 152.848615 
L 160.876917 152.872122 
L 160.567322 153.086518 
L 160.232471 153.170174 
L 159.976646 153.159717 
L 159.391056 152.992519 
L 158.925007 153.044976 
L 158.716211 153.006519 
L 158.341874 152.987262 
L 157.934224 152.719838 
L 156.798586 152.318417 
L 156.539905 152.202304 
L 156.389679 152.017508 
L 156.342023 151.793968 
L 156.478877 151.625228 
L 156.952355 151.398775 
L 157.207037 151.183293 
L 157.32452 150.798957 
L 157.309092 150.502276 
L 156.787387 149.749089 
L 156.757101 149.674576 
L 156.780815 149.533436 
L 156.848243 149.462922 
L 156.990754 149.414752 
L 157.502174 149.34401 
L 157.655372 149.298182 
L 157.756341 149.210584 
L 157.779884 149.100814 
L 157.751084 148.928303 
L 157.545202 148.413455 
L 157.118581 147.885692 
L 156.821329 147.357473 
L 156.797901 147.181018 
L 156.706988 147.101248 
L 156.476192 146.978279 
L 156.213396 146.885366 
L 155.554493 146.919137 
L 154.817477 146.84451 
L 154.373942 146.624171 
L 154.12846 146.39926 
L 154.259544 146.195664 
L 154.519597 146.104237 
L 154.729707 145.924697 
L 154.716279 145.674244 
L 154.336057 145.416706 
L 154.177488 145.197795 
L 154.316686 144.991684 
L 154.828563 145.01437 
L 155.036731 144.996484 
L 155.120101 144.889572 
L 155.093644 144.772888 
L 154.709079 144.63449 
L 154.366856 144.43838 
L 154.220173 144.183527 
L 154.393656 143.88216 
L 155.177928 143.57908 
L 155.733176 143.412797 
L 155.998086 143.291313 
L 156.085856 143.194629 
L 156.060599 143.040403 
L 155.777347 142.848235 
L 155.581693 142.824636 
L 155.168328 142.849378 
L 155.006388 142.906863 
L 154.764278 143.058689 
L 154.439141 143.310742 
L 153.670468 143.353712 
L 152.700485 143.159887 
L 152.661494 143.152244 
L 151.879927 142.999033 
L 151.450677 142.820407 
L 151.4072 142.714138 
L 151.386621 142.663838 
L 151.540105 142.46207 
L 152.457689 141.971793 
L 152.680771 141.774082 
L 152.771398 141.42026 
L 152.759569 141.31569 
L 152.668428 141.128836 
L 152.563801 141.055637 
L 152.202608 140.931639 
L 152.006839 140.95781 
L 151.885356 141.017981 
L 151.801071 141.12775 
L 151.767815 141.679055 
L 151.292452 141.904937 
L 150.677719 141.977507 
L 150.47858 141.937108 
L 150.406593 141.859925 
L 150.338468 141.786882 
L 150.338125 141.383117 
L 150.398695 141.183178 
L 150.442295 140.806784 
L 150.435495 140.711357 
L 150.383096 140.602902 
L 150.030016 140.265936 
L 149.178259 139.827715 
L 149.03489 139.598976 
L 149.051861 139.47875 
L 149.090718 139.413379 
L 149.195459 139.342866 
L 149.634537 139.167955 
L 149.961846 139.144984 
L 150.36121 139.164869 
L 150.926172 139.104299 
L 151.707473 139.119956 
L 152.04141 139.003558 
L 152.132672 138.867354 
L 152.219293 138.738077 
L 152.358833 138.157401 
L 152.413747 137.808264 
L 152.417232 137.593296 
L 152.29952 137.018735 
L 152.199236 136.914108 
L 151.945526 136.731882 
L 151.672559 136.667312 
L 151.063941 136.675198 
L 150.814574 136.631598 
L 150.192927 136.44543 
L 149.847848 136.265147 
L 149.253229 136.180463 
L 149.14506 136.25229 
L 149.148374 136.320232 
L 149.435398 136.618341 
L 149.482597 136.726797 
L 149.457511 137.076734 
L 149.317571 137.18176 
L 148.95592 137.222045 
L 148.864418 137.199663 
L 148.208847 137.039306 
L 147.567544 136.920965 
L 147.098409 136.802681 
L 146.918183 136.645198 
L 146.761043 136.287147 
L 146.52539 136.071836 
L 146.260823 135.987609 
L 146.006656 136.00818 
L 145.866144 136.102064 
L 145.851973 136.210577 
L 146.374307 136.597542 
L 146.324879 137.3957 
L 146.171796 137.816778 
L 145.76426 137.949633 
L 145.472894 137.630096 
L 145.501007 136.818109 
L 145.258097 136.620284 
L 144.855133 136.584628 
L 144.504396 136.707997 
L 144.221601 137.00662 
L 144.039661 137.089819 
L 143.178304 137.070791 
L 142.555858 137.053991 
L 142.304205 137.005478 
L 142.118436 136.916565 
L 142.040838 136.848566 
L 141.408914 135.961869 
L 141.323536 135.842069 
L 140.966742 135.512646 
L 140.632348 135.040768 
L 140.468465 134.903571 
L 140.078507 134.682925 
L 139.96493 134.618661 
L 139.834761 134.490549 
L 139.721506 134.327238 
L 138.786722 133.592793 
L 138.746891 133.557246 
L 138.426499 133.271313 
L 138.259074 133.145943 
L 137.988507 133.015317 
L 137.626684 133.012746 
L 137.555657 132.986632 
L 137.139493 132.61561 
L 136.875554 132.494183 
L 136.52716 132.388413 
L 136.298821 132.362357 
L 135.60689 132.18756 
L 135.105927 132.111847 
L 134.962216 132.035962 
L 134.490395 131.915564 
L 133.879777 131.908764 
L 133.424813 131.730939 
L 132.897108 131.618427 
L 132.596313 131.598141 
L 132.245805 131.647112 
L 131.768784 131.924136 
L 131.692671 131.989506 
L 131.449133 132.392013 
L 131.198851 132.632466 
L 131.092339 132.70178 
L 130.874171 132.739665 
L 129.698762 132.732179 
L 129.456995 132.831549 
L 129.367054 132.917662 
L 129.374254 133.055031 
L 129.896988 133.504394 
L 129.912244 133.590679 
L 129.827789 133.717476 
L 129.679106 133.836446 
L 129.085859 134.10587 
L 128.590838 134.52432 
L 128.17056 134.791115 
L 127.707025 135.341106 
L 127.641026 135.572359 
L 127.639483 135.843326 
L 127.541371 135.980524 
L 127.441658 136.00658 
L 127.196576 135.959495 
L 126.515617 135.912182 
L 125.080613 135.390134 
L 124.801703 135.310421 
L 123.721664 135.021683 
L 123.610451 134.997002 
L 122.580484 134.76843 
L 122.391173 134.763287 
L 122.217118 134.815629 
L 122.146148 134.905856 
L 122.190205 135.048254 
L 122.37123 135.169737 
L 122.479457 135.322649 
L 122.491342 135.42979 
L 122.467743 135.497789 
L 122.35963 135.581445 
L 122.212604 135.62013 
L 121.975923 135.593387 
L 121.762955 135.508532 
L 121.663128 135.428819 
L 121.36559 135.341392 
L 120.946283 135.404248 
L 120.832971 135.469561 
L 120.778114 135.648129 
L 120.777314 135.74927 
L 120.806 135.810698 
L 121.025482 136.046065 
L 121.409132 136.379203 
L 121.417646 136.441887 
L 121.363647 136.537314 
L 121.276106 136.588456 
L 121.079024 136.61457 
L 120.769886 136.572628 
L 120.359436 136.389488 
L 120.070641 136.163263 
L 119.0974 135.876697 
L 118.658036 135.709271 
L 118.352156 135.679157 
L 118.103703 135.751042 
L 117.929592 135.906525 
L 117.910963 136.038523 
L 117.946448 136.137892 
L 118.030904 136.254233 
L 118.370498 136.647655 
L 118.652608 136.899994 
L 119.096829 137.178389 
L 119.677847 137.447813 
L 119.976757 137.640038 
L 120.091498 137.803464 
L 120.09984 137.983861 
L 119.978185 138.113173 
L 119.77876 138.212486 
L 119.373338 138.305113 
L 118.765406 138.161229 
L 118.686036 138.12723 
L 118.518839 137.989918 
L 118.218215 137.840892 
L 117.365144 137.587296 
L 117.20469 137.583411 
L 116.90738 137.642267 
L 116.716469 137.712837 
L 116.564472 137.803064 
L 116.515044 137.925233 
L 116.498702 138.200372 
L 116.725098 138.549337 
L 116.963322 138.745334 
L 117.650625 139.166184 
L 118.315871 139.415837 
L 118.501582 139.577891 
L 118.688321 139.839258 
L 118.759292 139.998798 
L 118.723807 140.087482 
L 118.626265 140.122967 
L 118.457811 140.149538 
L 118.2921 140.133367 
L 118.094332 139.972227 
L 117.899249 139.998798 
L 117.84605 140.122967 
L 117.84605 140.282507 
L 117.826165 140.415648 
L 117.753537 140.550274 
L 117.640454 140.581645 
L 117.434514 140.440505 
L 117.243203 140.317993 
L 117.136805 140.317993 
L 117.003779 140.380049 
L 116.977208 140.450962 
L 116.994922 140.530789 
L 117.003779 140.619416 
L 116.915152 140.699243 
L 116.445217 140.743585 
L 116.329962 140.814498 
L 116.294534 140.91204 
L 116.342533 141.121579 
L 116.34939 141.311119 
L 116.238077 141.605228 
L 115.910083 141.83671 
L 115.765686 141.875909 
L 115.593574 141.86808 
L 115.222209 141.712655 
L 115.029812 141.681398 
L 114.935357 141.687969 
L 114.704218 141.779568 
L 114.174227 141.71574 
L 113.935202 141.730254 
L 113.33967 141.507801 
L 112.895906 141.379517 
L 112.524598 141.387289 
L 111.456159 141.596199 
L 111.253648 141.613113 
L 111.103479 141.573914 
L 110.853712 141.566028 
L 110.350749 141.684998 
L 110.294643 141.672201 
L 110.236008 141.658827 
L 109.964299 141.517686 
L 109.606362 141.270662 
L 109.142198 141.194949 
L 109.127785 141.186192 
L 108.937916 141.070837 
L 108.853518 140.978038 
L 108.797347 140.830327 
L 108.754091 140.78707 
L 108.655121 140.768499 
L 108.537637 140.793242 
L 108.374669 140.885583 
L 108.06856 140.835869 
L 108.011132 140.791413 
L 107.573825 140.647816 
L 107.087491 140.538275 
L 106.771553 140.556674 
L 106.761382 140.632502 
L 106.641498 140.675586 
L 105.204837 140.813527 
L 105.122978 140.792229 
L 104.747359 140.6945 
L 104.475649 140.501018 
L 104.082285 140.48919 
L 103.694063 140.290507 
L 103.292241 140.180681 
L 103.175729 140.073482 
L 103.147043 139.8944 
L 103.09973 139.826401 
L 102.99676 139.753202 
L 102.284087 139.60429 
L 102.194603 139.550691 
L 101.927693 139.251439 
L 101.844894 139.221383 
L 101.284526 139.143843 
L 101.260561 139.140527 
L 101.184448 138.934016 
L 100.861597 138.489624 
L 100.795484 138.01386 
L 100.748056 137.846549 
L 100.489603 137.863634 
L 100.389948 137.901577 
L 100.214408 138.184029 
L 100.037096 138.250771 
L 99.447049 138.185286 
L 99.249967 138.10163 
L 98.833174 137.796893 
L 98.786089 137.687923 
L 98.776546 137.56284 
L 98.660548 137.367929 
L 98.56815 137.282044 
L 98.445124 137.234559 
L 98.224556 137.003935 
L 98.227127 136.96205 
L 98.297755 136.851766 
L 98.79746 136.584513 
L 99.232767 136.511372 
L 99.746073 136.513486 
L 99.869728 136.592056 
L 99.877042 136.708397 
L 100.000411 136.756739 
L 100.458289 136.527771 
L 100.760627 136.285833 
L 100.772398 136.194291 
L 100.621772 135.84144 
L 100.239436 135.648301 
L 99.918356 135.581216 
L 99.450535 135.76927 
L 99.07997 136.002066 
L 98.714605 135.971552 
L 98.26027 135.841212 
L 98.205356 135.787613 
L 98.205356 135.687329 
L 98.538893 134.974084 
L 98.624606 134.888371 
L 98.796032 134.836943 
L 98.956029 134.568376 
L 98.973172 134.448378 
L 98.927458 134.311238 
L 98.390267 134.471235 
L 97.49314 134.894085 
L 97.284223 134.935868 
L 97.20743 134.951227 
L 96.876007 135.51116 
L 97.206116 136.270176 
L 97.240173 136.469887 
L 97.21223 136.685654 
L 97.098918 136.802052 
L 96.950692 136.78291 
L 96.873093 136.692626 
L 96.441386 136.621141 
L 96.280989 137.05102 
L 96.277503 137.212331 
L 95.895567 137.632153 
L 95.559058 137.639981 
L 95.489288 137.720208 
L 95.469231 138.377111 
L 95.826711 138.436882 
L 96.111849 138.718934 
L 96.20339 138.926416 
L 96.017565 139.270925 
L 95.752427 139.332352 
L 95.466546 139.219611 
L 95.244207 139.061557 
L 94.7725 138.950416 
L 94.686619 139.00052 
L 94.050056 139.371894 
L 94.060341 139.707889 
L 94.008056 139.833372 
L 93.037959 140.939696 
L 93.034644 141.003752 
L 92.704479 141.50403 
L 92.586423 141.5818 
L 92.456483 141.584371 
L 92.061518 141.505744 
L 91.764323 141.716083 
L 91.52947 142.105505 
L 90.763083 142.98469 
L 90.319148 143.564966 
L 90.224635 143.604165 
L 89.718529 143.538738 
L 89.340593 143.585765 
L 89.046998 143.725649 
L 88.844601 143.882503 
L 88.82603 143.960959 
L 88.888429 144.117814 
L 89.023398 144.209355 
L 89.040255 144.276039 
L 88.863115 144.512664 
L 88.59832 144.730889 
L 88.213755 144.873458 
L 88.0909 146.094466 
L 88.018444 146.209492 
L 87.949429 146.223788 
L 87.519424 146.312862 
L 87.406455 146.235777 
L 87.254629 146.034467 
L 86.757037 145.7287 
L 85.721398 145.369678 
L 84.970153 145.021855 
L 84.567303 144.683061 
L 84.373306 144.681633 
L 83.938056 144.792602 
L 83.813259 144.773002 
L 83.610919 144.638262 
L 83.506464 144.434265 
L 83.511549 144.319239 
L 83.437722 144.122042 
L 82.902817 143.721706 
L 82.65985 143.750391 
L 82.550194 143.806619 
L 82.46831 143.933531 
L 82.436898 144.131746 
L 82.40494 144.33341 
L 82.313856 144.452379 
L 81.625639 144.252326 
L 80.78891 144.431522 
L 80.328404 144.372781 
L 80.135664 144.324439 
L 80.031952 144.350381 
L 79.943839 144.391866 
L 79.897211 144.428151 
L 79.886811 144.495521 
L 79.933496 144.599177 
L 80.052694 144.76506 
L 80.094179 144.936142 
L 79.591959 145.746986 
L 79.37962 145.896126 
L 79.02894 146.034809 
L 78.897571 146.197035 
L 78.885857 146.335547 
L 78.8654 146.465259 
L 78.808258 146.543886 
L 78.722488 146.615371 
L 78.600947 146.636799 
L 78.459464 146.612914 
L 78.173126 146.822167 
L 78.152726 146.988165 
L 78.179183 147.180047 
L 78.129184 147.373072 
L 77.993358 147.465985 
L 77.736048 147.501756 
L 77.507309 147.558898 
L 77.435824 147.694724 
L 77.392911 147.909178 
L 77.328569 148.023576 
L 77.235656 148.066432 
L 77.121258 148.066432 
L 76.999775 148.066432 
L 76.885377 148.009233 
L 76.771036 147.823408 
L 76.563725 147.766209 
L 76.449384 147.766209 
L 76.327843 147.83055 
L 76.033163 148.459511 
L 76.084819 148.674022 
L 75.991849 148.895618 
L 75.804767 148.965902 
L 75.570142 148.924189 
L 75.434316 148.95996 
L 75.299575 149.176413 
L 74.720728 149.281668 
L 74.49976 149.197441 
L 74.373419 149.207955 
L 74.236622 149.302697 
L 73.95057 149.774689 
L 73.32098 150.491934 
L 72.955501 150.615531 
L 72.447509 150.586675 
L 72.068602 150.870841 
L 71.131932 150.986611 
L 71.037191 151.133923 
L 71.039305 152.097506 
L 70.958449 152.174533 
L 70.155091 152.468357 
L 69.988506 152.56937 
L 69.430989 152.907435 
L 69.334648 153.673594 
L 68.962483 154.263126 
L 68.821114 154.297069 
L 68.272495 154.249927 
L 67.560678 153.974103 
L 66.554296 154.22907 
L 65.87065 154.593921 
L 65.798937 154.811117 
L 65.911735 154.958829 
L 65.901678 155.018942 
L 65.333174 155.479334 
L 64.899295 155.657331 
L 64.052967 155.758472 
L 63.431892 156.193551 
L 62.001745 157.621755 
L 61.527524 157.716953 
L 61.258443 158.013748 
L 61.295357 158.328886 
L 60.4144 158.962989 
L 59.679841 159.268984 
L 58.738657 159.521494 
L 58.345464 159.725605 
L 57.726275 159.598007 
L 57.783359 156.229836 
L 57.765931 156.226122 
L 57.703361 156.212693 
L 57.734046 155.473049 
L 57.681818 155.371108 
L 57.72976 154.432038 
" clip-path="url(#p5eb3581b04)" style="fill: #ffbe00"/>
   </g>
   <g id="PathCollection_1">
    <defs>
     <path id="m246a6749df" d="M 0 1.581139 
C 0.419323 1.581139 0.821528 1.41454 1.118034 1.118034 
C 1.41454 0.821528 1.581139 0.419323 1.581139 0 
C 1.581139 -0.419323 1.41454 -0.821528 1.118034 -1.118034 
C 0.821528 -1.41454 0.419323 -1.581139 0 -1.581139 
C -0.419323 -1.581139 -0.821528 -1.41454 -1.118034 -1.118034 
C -1.41454 -0.821528 -1.581139 -0.419323 -1.581139 0 
C -1.581139 0.419323 -1.41454 0.821528 -1.118034 1.118034 
C -0.821528 1.41454 -0.419323 1.581139 0 1.581139 
z
" style="stroke: #000000"/>
    </defs>
    <g clip-path="url(#p5eb3581b04)">
     <use xlink:href="#m246a6749df" x="228.919757" y="172.580471" style="stroke: #000000"/>
    </g>
   </g>
   <g id="text_1">
    <!-- Annapolis -->
    <g transform="translate(231.919757 169.580471) scale(0.1 -0.1)">
     <defs>
      <path id="DejaVuSans-41" d="M 2188 4044 
L 1331 1722 
L 3047 1722 
L 2188 4044 
z
M 1831 4666 
L 2547 4666 
L 4325 0 
L 3669 0 
L 3244 1197 
L 1141 1197 
L 716 0 
L 50 0 
L 1831 4666 
z
" transform="scale(0.015625)"/>
      <path id="DejaVuSans-6e" d="M 3513 2113 
L 3513 0 
L 2938 0 
L 2938 2094 
Q 2938 2591 2744 2837 
Q 2550 3084 2163 3084 
Q 1697 3084 1428 2787 
Q 1159 2491 1159 1978 
L 1159 0 
L 581 0 
L 581 3500 
L 1159 3500 
L 1159 2956 
Q 1366 3272 1645 3428 
Q 1925 3584 2291 3584 
Q 2894 3584 3203 3211 
Q 3513 2838 3513 2113 
z
" transform="scale(0.015625)"/>
      <path id="DejaVuSans-61" d="M 2194 1759 
Q 1497 1759 1228 1600 
Q 959 1441 959 1056 
Q 959 750 1161 570 
Q 1363 391 1709 391 
Q 2188 391 2477 730 
Q 2766 1069 2766 1631 
L 2766 1759 
L 2194 1759 
z
M 3341 1997 
L 3341 0 
L 2766 0 
L 2766 531 
Q 2569 213 2275 61 
Q 1981 -91 1556 -91 
Q 1019 -91 701 211 
Q 384 513 384 1019 
Q 384 1609 779 1909 
Q 1175 2209 1959 2209 
L 2766 2209 
L 2766 2266 
Q 2766 2663 2505 2880 
Q 2244 3097 1772 3097 
Q 1472 3097 1187 3025 
Q 903 2953 641 2809 
L 641 3341 
Q 956 3463 1253 3523 
Q 1550 3584 1831 3584 
Q 2591 3584 2966 3190 
Q 3341 2797 3341 1997 
z
" transform="scale(0.015625)"/>
      <path id="DejaVuSans-70" d="M 1159 525 
L 1159 -1331 
L 581 -1331 
L 581 3500 
L 1159 3500 
L 1159 2969 
Q 1341 3281 1617 3432 
Q 1894 3584 2278 3584 
Q 2916 3584 3314 3078 
Q 3713 2572 3713 1747 
Q 3713 922 3314 415 
Q 2916 -91 2278 -91 
Q 1894 -91 1617 61 
Q 1341 213 1159 525 
z
M 3116 1747 
Q 3116 2381 2855 2742 
Q 2594 3103 2138 3103 
Q 1681 3103 1420 2742 
Q 1159 2381 1159 1747 
Q 1159 1113 1420 752 
Q 1681 391 2138 391 
Q 2594 391 2855 752 
Q 3116 1113 3116 1747 
z
" transform="scale(0.015625)"/>
      <path id="DejaVuSans-6f" d="M 1959 3097 
Q 1497 3097 1228 2736 
Q 959 2375 959 1747 
Q 959 1119 1226 758 
Q 1494 397 1959 397 
Q 2419 397 2687 759 
Q 2956 1122 2956 1747 
Q 2956 2369 2687 2733 
Q 2419 3097 1959 3097 
z
M 1959 3584 
Q 2709 3584 3137 3096 
Q 3566 2609 3566 1747 
Q 3566 888 3137 398 
Q 2709 -91 1959 -91 
Q 1206 -91 779 398 
Q 353 888 353 1747 
Q 353 2609 779 3096 
Q 1206 3584 1959 3584 
z
" transform="scale(0.015625)"/>
      <path id="DejaVuSans-6c" d="M 603 4863 
L 1178 4863 
L 1178 0 
L 603 0 
L 603 4863 
z
" transform="scale(0.015625)"/>
      <path id="DejaVuSans-69" d="M 603 3500 
L 1178 3500 
L 1178 0 
L 603 0 
L 603 3500 
z
M 603 4863 
L 1178 4863 
L 1178 4134 
L 603 4134 
L 603 4863 
z
" transform="scale(0.015625)"/>
      <path id="DejaVuSans-73" d="M 2834 3397 
L 2834 2853 
Q 2591 2978 2328 3040 
Q 2066 3103 1784 3103 
Q 1356 3103 1142 2972 
Q 928 2841 928 2578 
Q 928 2378 1081 2264 
Q 1234 2150 1697 2047 
L 1894 2003 
Q 2506 1872 2764 1633 
Q 3022 1394 3022 966 
Q 3022 478 2636 193 
Q 2250 -91 1575 -91 
Q 1294 -91 989 -36 
Q 684 19 347 128 
L 347 722 
Q 666 556 975 473 
Q 1284 391 1588 391 
Q 1994 391 2212 530 
Q 2431 669 2431 922 
Q 2431 1156 2273 1281 
Q 2116 1406 1581 1522 
L 1381 1569 
Q 847 1681 609 1914 
Q 372 2147 372 2553 
Q 372 3047 722 3315 
Q 1072 3584 1716 3584 
Q 2034 3584 2315 3537 
Q 2597 3491 2834 3397 
z
" transform="scale(0.015625)"/>
     </defs>
     <use xlink:href="#DejaVuSans-41"/>
     <use xlink:href="#DejaVuSans-6e" x="68.408203"/>
     <use xlink:href="#DejaVuSans-6e" x="131.787109"/>
     <use xlink:href="#DejaVuSans-61" x="195.166016"/>
     <use xlink:href="#DejaVuSans-70" x="256.445312"/>
     <use xlink:href="#DejaVuSans-6f" x="319.921875"/>
     <use xlink:href="#DejaVuSans-6c" x="381.103516"/>
     <use xlink:href="#DejaVuSans-69" x="408.886719"/>
     <use xlink:href="#DejaVuSans-73" x="436.669922"/>
    </g>
   </g>
   <g id="text_2">
    <!-- Maryland -->
    <g transform="translate(156.673125 118.871099) scale(0.12 -0.12)">
     <defs>
      <path id="DejaVuSans-4d" d="M 628 4666 
L 1569 4666 
L 2759 1491 
L 3956 4666 
L 4897 4666 
L 4897 0 
L 4281 0 
L 4281 4097 
L 3078 897 
L 2444 897 
L 1241 4097 
L 1241 0 
L 628 0 
L 628 4666 
z
" transform="scale(0.015625)"/>
      <path id="DejaVuSans-72" d="M 2631 2963 
Q 2534 3019 2420 3045 
Q 2306 3072 2169 3072 
Q 1681 3072 1420 2755 
Q 1159 2438 1159 1844 
L 1159 0 
L 581 0 
L 581 3500 
L 1159 3500 
L 1159 2956 
Q 1341 3275 1631 3429 
Q 1922 3584 2338 3584 
Q 2397 3584 2469 3576 
Q 2541 3569 2628 3553 
L 2631 2963 
z
" transform="scale(0.015625)"/>
      <path id="DejaVuSans-79" d="M 2059 -325 
Q 1816 -950 1584 -1140 
Q 1353 -1331 966 -1331 
L 506 -1331 
L 506 -850 
L 844 -850 
Q 1081 -850 1212 -737 
Q 1344 -625 1503 -206 
L 1606 56 
L 191 3500 
L 800 3500 
L 1894 763 
L 2988 3500 
L 3597 3500 
L 2059 -325 
z
" transform="scale(0.015625)"/>
      <path id="DejaVuSans-64" d="M 2906 2969 
L 2906 4863 
L 3481 4863 
L 3481 0 
L 2906 0 
L 2906 525 
Q 2725 213 2448 61 
Q 2172 -91 1784 -91 
Q 1150 -91 751 415 
Q 353 922 353 1747 
Q 353 2572 751 3078 
Q 1150 3584 1784 3584 
Q 2172 3584 2448 3432 
Q 2725 3281 2906 2969 
z
M 947 1747 
Q 947 1113 1208 752 
Q 1469 391 1925 391 
Q 2381 391 2643 752 
Q 2906 1113 2906 1747 
Q 2906 2381 2643 2742 
Q 2381 3103 1925 3103 
Q 1469 3103 1208 2742 
Q 947 2381 947 1747 
z
" transform="scale(0.015625)"/>
     </defs>
     <use xlink:href="#DejaVuSans-4d"/>
     <use xlink:href="#DejaVuSans-61" x="86.279297"/>
     <use xlink:href="#DejaVuSans-72" x="147.558594"/>
     <use xlink:href="#DejaVuSans-79" x="188.671875"/>
     <use xlink:href="#DejaVuSans-6c" x="247.851562"/>
     <use xlink:href="#DejaVuSans-61" x="275.634766"/>
     <use xlink:href="#DejaVuSans-6e" x="336.914062"/>
     <use xlink:href="#DejaVuSans-64" x="400.292969"/>
    </g>
   </g>
  </g>
 </g>
 <defs>
  <clipPath id="p5eb3581b04">
   <rect x="45" y="124.871099" width="279" height="113.857803"/>
  </clipPath>
 </defs>
</svg>
