<?xml version="1.0" encoding="utf-8" standalone="no"?>
<!DOCTYPE svg PUBLIC "-//W3C//DTD SVG 1.1//EN"
  "http://www.w3.org/Graphics/SVG/1.1/DTD/svg11.dtd">
<svg xmlns:xlink="http://www.w3.org/1999/xlink" width="360pt" height="360pt" viewBox="0 0 360 360" xmlns="http://www.w3.org/2000/svg" version="1.1">
 <metadata>
  <rdf:RDF xmlns:dc="http://purl.org/dc/elements/1.1/" xmlns:cc="http://creativecommons.org/ns#" xmlns:rdf="http://www.w3.org/1999/02/22-rdf-syntax-ns#">
   <cc:Work>
    <dc:type rdf:resource="http://purl.org/dc/dcmitype/StillImage"/>
    <dc:date>2023-06-19T15:20:28.212698</dc:date>
    <dc:format>image/svg+xml</dc:format>
    <dc:creator>
     <cc:Agent>
      <dc:title>Matplotlib v3.7.1, https://matplotlib.org/</dc:title>
     </cc:Agent>
    </dc:creator>
   </cc:Work>
  </rdf:RDF>
 </metadata>
 <defs>
  <style type="text/css">*{stroke-linejoin: round; stroke-linecap: butt}</style>
 </defs>
 <g id="figure_1">
  <g id="patch_1">
   <path d="M 0 360 
L 360 360 
L 360 0 
L 0 0 
z
" style="fill: #ffffff"/>
  </g>
  <g id="axes_1">
   <g id="PatchCollection_1">
    <path d="M 286.714282 235.066293 
L 287.76953 235.092649 
L 288.574108 235.40928 
L 288.917095 235.580738 
L 289.220477 236.134718 
L 289.230036 236.139413 
L 289.972343 236.504062 
L 291.449647 236.504062 
L 291.700212 236.414222 
L 292.327201 236.189415 
L 297.417384 236.243332 
L 298.904565 236.064325 
L 299.680753 235.970898 
L 299.707131 235.967723 
L 300.420595 235.871934 
L 301.802676 235.189431 
L 302.97008 234.273688 
L 304.01555 233.02098 
L 304.048979 232.748643 
L 304.194589 231.562381 
L 304.044457 231.028593 
L 303.744192 230.695029 
L 303.510669 230.394765 
L 303.005647 229.884712 
L 302.863321 229.730794 
L 302.723803 229.579913 
L 302.759396 229.315091 
L 302.760008 229.31054 
L 303.860954 229.727566 
L 304.928529 230.945202 
L 307.952402 235.618536 
L 309.049832 237.314592 
L 309.056634 238.319606 
L 308.756157 239.02641 
L 308.663839 239.17548 
L 308.0067 239.534975 
L 306.123069 240.104543 
L 305.156739 240.202954 
L 302.494035 239.868469 
L 300.337913 239.74696 
L 299.365277 239.998479 
L 298.012006 239.904882 
L 297.82768 239.892133 
L 294.142603 238.933525 
L 289.43147 237.031685 
L 288.08609 236.649164 
L 287.334224 236.20068 
L 286.859384 235.699413 
L 286.77081 235.312937 
L 286.714282 235.066293 
" clip-path="url(#p9849e8ee9c)" style="fill: #d2f700"/>
    <path d="M 247.677286 238.670458 
L 248.331944 238.525568 
L 248.70731 238.298847 
L 249.095925 238.494677 
L 249.444439 238.754345 
L 249.254914 239.388598 
L 248.689102 239.392141 
L 248.047055 239.278355 
L 247.264227 238.757745 
L 247.677286 238.670458 
" clip-path="url(#p9849e8ee9c)" style="fill: #d2f700"/>
    <path d="M 247.284703 214.09171 
L 247.8734 214.653909 
L 248.072986 215.425896 
L 248.017102 215.698103 
L 248.002702 215.768246 
L 247.423358 215.588002 
L 246.830693 214.803333 
L 247.284703 214.09171 
" clip-path="url(#p9849e8ee9c)" style="fill: #d2f700"/>
    <path d="M 247.160148 232.025247 
L 248.682938 231.858111 
L 249.534561 231.995915 
L 250.738878 232.418964 
L 251.328141 232.323528 
L 251.758416 232.035166 
L 254.569481 228.883594 
L 254.913743 228.797582 
L 255.759273 228.095595 
L 255.825802 227.627273 
L 256.542455 226.53157 
L 257.569574 225.794087 
L 260.230082 224.395924 
L 263.473263 222.885674 
L 263.83538 222.973033 
L 263.988701 223.628117 
L 265.507027 223.886438 
L 266.037981 223.6775 
L 266.326767 223.824939 
L 267.035485 224.970734 
L 267.059149 225.648135 
L 266.871749 226.534617 
L 267.048309 227.025611 
L 267.440041 227.600988 
L 268.096542 228.067893 
L 268.785209 228.361285 
L 269.564352 228.455587 
L 270.315367 228.705476 
L 270.64213 229.289072 
L 270.717656 229.757677 
L 270.883942 229.832212 
L 271.464987 229.882161 
L 271.908157 229.693982 
L 272.751207 228.784404 
L 272.720671 228.102184 
L 272.879872 227.810422 
L 273.372637 227.366189 
L 274.322176 227.255804 
L 274.619606 228.972016 
L 274.404575 230.109733 
L 274.47585 232.006472 
L 274.27591 232.395441 
L 271.082111 232.516525 
L 268.097038 232.338973 
L 263.784864 232.316726 
L 255.94391 232.851577 
L 254.284095 233.241042 
L 253.271783 233.685558 
L 252.092335 234.482343 
L 251.82119 234.960371 
L 251.952192 235.17271 
L 251.773578 235.545384 
L 251.279184 235.738097 
L 249.407455 234.801099 
L 248.179474 233.879688 
L 246.807667 232.462891 
L 247.160148 232.025247 
" clip-path="url(#p9849e8ee9c)" style="fill: #d2f700"/>
    <path d="M 57.681818 180.10097 
L 59.964902 173.884055 
L 66.512366 156.055085 
L 68.707219 150.078424 
L 74.911597 133.362098 
L 83.588204 133.534409 
L 92.05331 133.702519 
L 92.061245 133.702677 
L 98.624989 133.842431 
L 101.988149 133.914039 
L 107.208373 134.025188 
L 108.486273 134.060646 
L 115.9187 134.266875 
L 127.925189 134.600022 
L 132.048134 134.714422 
L 132.56699 134.730123 
L 135.341674 134.814088 
L 141.417158 134.997938 
L 144.274451 135.084403 
L 144.481414 135.089525 
L 150.11143 135.228856 
L 155.711705 135.367451 
L 156.665895 135.396398 
L 158.769432 135.460214 
L 158.963673 135.466107 
L 165.852113 135.675084 
L 169.563446 135.749888 
L 169.578211 135.750185 
L 171.706629 135.807724 
L 178.322646 135.986579 
L 180.648894 136.049466 
L 182.543428 136.100683 
L 189.199343 136.246368 
L 190.308855 136.270653 
L 190.620598 136.277738 
L 190.705029 136.279739 
L 196.935105 136.427379 
L 200.265713 136.506307 
L 202.258554 136.553534 
L 202.957529 136.570098 
L 203.560721 136.584392 
L 204.752438 136.612634 
L 207.969829 136.688879 
L 209.189732 136.717788 
L 210.454487 136.74776 
L 211.989676 136.81606 
L 214.540365 136.83023 
L 215.622677 135.819335 
L 216.403733 134.782651 
L 217.275194 134.038791 
L 217.303976 134.021125 
L 217.988357 133.601052 
L 217.990855 133.599518 
L 218.848146 133.394052 
L 219.521226 133.309031 
L 220.626635 133.548152 
L 220.631949 133.549569 
L 220.638326 133.551057 
L 222.504103 133.9537 
L 222.199375 130.191609 
L 222.470398 129.939139 
L 223.028396 129.419339 
L 223.503095 129.008406 
L 223.604494 128.945635 
L 223.651881 128.9163 
L 224.778404 128.434517 
L 225.997032 128.016499 
L 227.183741 128.278853 
L 230.836263 129.086341 
L 231.587279 127.187548 
L 231.58981 127.182983 
L 232.019467 126.408192 
L 232.239103 126.075195 
L 233.17433 125.345435 
L 235.056279 125.057475 
L 235.422154 125.001492 
L 237.758428 124.644015 
L 238.984213 124.140976 
L 240.224096 123.567087 
L 240.287862 123.538747 
L 240.512458 123.48653 
L 241.414385 123.397046 
L 241.415306 123.398817 
L 241.440866 123.398889 
L 242.273872 123.401226 
L 243.452258 123.67896 
L 246.109931 125.214361 
L 246.906928 124.926921 
L 247.373195 124.649045 
L 248.012692 124.439186 
L 248.329606 124.410137 
L 248.298786 125.945964 
L 248.814305 128.7815 
L 249.185197 130.821541 
L 249.907575 132.849555 
L 250.060413 133.278636 
L 251.519934 135.83308 
L 251.648456 136.275187 
L 251.074638 136.721829 
L 251.066207 137.068855 
L 252.075827 137.633675 
L 253.185983 137.759222 
L 253.492412 137.885761 
L 254.527325 138.770684 
L 254.596404 139.176303 
L 254.780246 139.225513 
L 257.39096 139.924343 
L 257.873311 139.838897 
L 257.944161 139.285058 
L 259.222729 138.203809 
L 260.529708 137.366356 
L 261.594166 137.13425 
L 262.30593 137.466751 
L 262.105211 138.318091 
L 262.037832 139.062659 
L 262.110383 139.389138 
L 262.675132 139.617489 
L 264.045806 139.427185 
L 264.046659 139.429888 
L 264.293958 140.213663 
L 264.31022 140.265204 
L 264.329563 140.880683 
L 264.149248 141.220127 
L 263.327595 141.22948 
L 262.420071 141.672862 
L 261.200379 143.684804 
L 259.847702 144.96075 
L 259.12786 145.08814 
L 258.905744 144.996317 
L 258.899155 144.739201 
L 258.872728 144.435819 
L 258.734286 144.251183 
L 258.582595 144.106152 
L 258.358424 144.079724 
L 258.140771 144.099563 
L 257.955922 144.185717 
L 257.738128 144.491437 
L 256.74112 145.303738 
L 255.501977 145.538033 
L 254.536677 145.720551 
L 254.015501 145.341288 
L 252.581557 145.795298 
L 250.003983 146.283192 
L 249.265187 146.423034 
L 248.464577 146.947328 
L 247.904858 147.138624 
L 246.119354 147.23073 
L 244.497586 147.499324 
L 244.428507 147.7439 
L 244.490844 147.95246 
L 244.85013 149.154512 
L 244.859136 149.184645 
L 245.321648 149.338815 
L 245.507702 149.264352 
L 246.572868 149.40584 
L 247.352224 150.532292 
L 247.005056 151.460434 
L 246.608293 151.6659 
L 246.197361 151.389583 
L 245.460515 151.474604 
L 243.908818 152.289385 
L 243.426964 152.898628 
L 243.320759 153.118335 
L 243.370355 153.274207 
L 242.874401 153.557609 
L 241.896664 153.132506 
L 241.216429 153.05457 
L 240.911771 153.146676 
L 240.529382 153.53468 
L 240.506507 153.557892 
L 240.519127 154.188579 
L 240.543632 155.413183 
L 241.535327 155.909774 
L 241.875409 156.086901 
L 242.328852 156.434068 
L 242.066705 156.724555 
L 239.891524 156.589939 
L 239.402514 155.303932 
L 239.380054 154.181376 
L 238.796601 154.143826 
L 238.185657 154.601236 
L 238.173086 154.769785 
L 238.159796 154.947979 
L 236.58982 156.171992 
L 236.256823 156.689201 
L 236.051285 157.369224 
L 236.148954 157.683159 
L 236.150476 157.688051 
L 236.442876 157.727515 
L 236.559213 158.138093 
L 236.778141 158.473429 
L 237.31873 158.582893 
L 237.496636 158.719776 
L 237.387172 158.788147 
L 237.332404 158.931903 
L 237.31873 159.164505 
L 237.352951 159.479293 
L 238.694222 161.436043 
L 238.713351 161.841662 
L 237.965453 161.637116 
L 237.163496 161.000666 
L 236.807118 160.962478 
L 236.64025 160.995203 
L 235.508712 161.217115 
L 234.897697 161.624434 
L 234.770421 161.928347 
L 234.353716 162.923365 
L 234.274 163.113712 
L 234.389345 163.599746 
L 235.538115 163.454786 
L 235.967516 164.029063 
L 236.329586 164.513292 
L 235.132638 165.291869 
L 234.948639 165.799583 
L 234.997651 166.009578 
L 235.037769 166.181468 
L 235.661466 166.996107 
L 236.157915 167.263426 
L 237.698134 167.212484 
L 238.486842 167.026431 
L 238.4009 166.369292 
L 238.6538 166.036541 
L 239.023818 165.549694 
L 239.970948 164.808314 
L 241.230811 164.554315 
L 241.93464 164.398231 
L 243.691166 164.329435 
L 243.799 164.910197 
L 244.533649 165.9726 
L 245.17598 166.660063 
L 245.935072 167.205257 
L 247.353357 167.265197 
L 247.807812 167.370718 
L 248.72311 167.583245 
L 250.353947 168.221962 
L 250.920861 168.372724 
L 251.612252 168.556589 
L 252.052021 168.920406 
L 252.779585 170.010725 
L 253.293818 170.496546 
L 253.432777 170.587208 
L 254.474895 171.267116 
L 255.062317 171.478322 
L 255.314686 173.115394 
L 255.626854 174.253961 
L 256.196279 174.653983 
L 257.680526 176.787433 
L 258.095008 177.265975 
L 259.195593 178.536661 
L 260.879143 179.932629 
L 260.99881 180.432408 
L 260.370437 180.804232 
L 260.3453 181.040053 
L 260.310851 181.363242 
L 260.663828 182.611628 
L 260.583838 182.960637 
L 260.120688 182.935698 
L 258.810946 183.582634 
L 258.677155 184.495039 
L 258.647565 184.696829 
L 258.941878 185.339443 
L 258.699427 185.660679 
L 258.142259 185.821935 
L 257.575455 185.307985 
L 256.937021 185.26675 
L 255.775427 185.674849 
L 255.859256 185.985518 
L 255.929173 186.244629 
L 256.712283 187.12608 
L 258.504224 188.42744 
L 259.298681 189.004398 
L 260.064079 189.138376 
L 260.298452 188.927879 
L 261.510988 189.721192 
L 262.059229 190.231458 
L 262.556741 190.448898 
L 263.146572 190.413685 
L 263.861312 189.912701 
L 264.889069 189.75435 
L 267.059291 191.197292 
L 267.523716 192.110555 
L 267.451165 192.451841 
L 267.554677 192.790223 
L 268.53702 194.036484 
L 268.998752 196.221372 
L 268.295915 197.592258 
L 267.829861 198.167422 
L 267.751713 198.65041 
L 267.903191 199.266243 
L 268.168219 199.613052 
L 268.496493 200.042623 
L 269.576609 201.023406 
L 271.231889 202.232824 
L 272.825742 203.105702 
L 277.011306 204.321922 
L 279.073356 204.633881 
L 279.64234 204.71996 
L 285.620988 205.036449 
L 286.737167 205.615227 
L 286.845494 205.793553 
L 286.943626 205.955097 
L 287.55542 206.467417 
L 287.870633 206.478824 
L 289.596197 205.077472 
L 290.926557 204.422246 
L 292.826697 203.784521 
L 293.335262 203.862244 
L 296.207754 203.21134 
L 297.593235 203.298557 
L 299.429468 202.752442 
L 301.678759 202.306367 
L 303.880233 201.498807 
L 304.483021 201.277688 
L 305.635901 200.326733 
L 305.96323 199.778775 
L 305.917602 197.63158 
L 305.596862 194.953502 
L 306.222118 194.222821 
L 306.028413 193.983558 
L 305.374321 193.888548 
L 304.511291 193.380975 
L 304.424995 192.468491 
L 304.071876 191.231796 
L 303.047519 191.168385 
L 302.376636 191.358477 
L 302.395128 191.813124 
L 301.890743 192.595243 
L 301.729913 193.832151 
L 301.346045 194.365514 
L 300.764929 193.153828 
L 300.992075 190.559 
L 300.750121 187.239866 
L 300.299937 185.35921 
L 299.888791 184.448427 
L 299.462484 183.886158 
L 298.579333 183.123169 
L 297.517779 182.551618 
L 295.728733 181.823133 
L 295.224207 181.790612 
L 294.206369 181.979996 
L 293.59089 182.214936 
L 292.99943 182.637913 
L 292.458133 183.415852 
L 292.395147 183.791856 
L 292.556048 184.258548 
L 293.036344 184.702639 
L 293.007082 184.802113 
L 292.714753 184.793327 
L 292.29964 184.623215 
L 291.4974 184.035085 
L 290.740362 182.963967 
L 289.709133 182.123255 
L 289.311024 181.927354 
L 288.980507 181.920977 
L 288.849787 181.696806 
L 289.366854 181.048878 
L 290.249722 180.643401 
L 291.57654 180.409665 
L 292.823084 180.378704 
L 294.887596 180.641488 
L 298.019047 181.420135 
L 300.381486 182.339845 
L 302.088487 183.352582 
L 303.861875 184.955717 
L 305.392458 186.940664 
L 307.221322 189.783399 
L 308.460285 192.468421 
L 310.109968 197.17842 
L 310.773271 199.714868 
L 311.290479 204.544888 
L 311.318182 208.055531 
L 310.524444 209.543462 
L 309.948075 211.336334 
L 309.695139 211.661892 
L 309.2271 213.109722 
L 308.559901 213.705433 
L 307.358702 215.913702 
L 307.070411 217.761766 
L 306.87621 218.561031 
L 306.018493 218.962328 
L 305.439857 218.525039 
L 305.271446 218.020937 
L 305.625061 217.529518 
L 306.461805 216.665213 
L 306.787009 214.317369 
L 307.258519 213.159034 
L 307.831133 212.371318 
L 308.137561 211.22517 
L 307.955759 210.745158 
L 306.493404 209.792502 
L 305.738705 209.481114 
L 305.228581 209.45334 
L 304.156259 209.752825 
L 302.301605 209.958363 
L 299.912881 210.102189 
L 297.89223 210.587014 
L 296.254232 210.980027 
L 294.99706 210.978964 
L 292.69867 211.345899 
L 289.554128 212.308666 
L 288.815637 212.53477 
L 288.082831 213.086058 
L 288.138803 213.309733 
L 287.842577 213.782873 
L 287.430014 213.891274 
L 287.276765 213.779401 
L 287.127979 213.293154 
L 287.167442 212.728688 
L 286.785416 212.219627 
L 286.303775 212.063898 
L 285.644865 212.058868 
L 284.934022 212.461723 
L 284.152257 212.610651 
L 283.450767 212.391015 
L 282.860157 212.102653 
L 282.283221 211.977956 
L 281.321993 212.09493 
L 280.704318 212.351268 
L 280.382657 212.659326 
L 280.393142 212.87542 
L 280.031096 213.426849 
L 279.372399 213.747589 
L 277.854073 214.100354 
L 277.290528 214.032125 
L 275.256339 214.174959 
L 274.686489 215.132433 
L 274.325614 215.583725 
L 273.55366 216.549089 
L 272.492461 217.492676 
L 271.832489 217.794357 
L 271.288853 217.950228 
L 269.228308 218.168377 
L 268.841595 218.17495 
L 268.568464 218.179592 
L 268.508504 218.180611 
L 266.661052 218.21201 
L 266.595848 218.213118 
L 266.581191 218.213367 
L 264.517931 218.427795 
L 262.940042 218.59178 
L 261.344064 218.927257 
L 260.634142 219.345062 
L 259.891841 220.289641 
L 259.200907 220.643469 
L 258.799741 220.692487 
L 258.384497 220.743226 
L 256.27301 221.873008 
L 254.209489 222.605744 
L 252.589493 223.768968 
L 252.63838 224.048119 
L 252.327913 224.404497 
L 250.244412 225.439481 
L 248.316712 225.494532 
L 247.013842 225.755616 
L 245.479149 226.897017 
L 244.811879 227.13713 
L 242.274227 227.23044 
L 240.472215 227.60453 
L 239.828538 227.899481 
L 239.038626 228.071293 
L 238.853423 227.888216 
L 238.93731 227.63698 
L 240.474482 226.507481 
L 240.790971 226.546378 
L 242.398357 226.28161 
L 243.865741 226.032499 
L 245.639484 225.258599 
L 247.532538 224.723253 
L 249.400157 224.410377 
L 250.421609 223.436537 
L 251.307311 223.234188 
L 252.82089 222.186238 
L 253.448059 221.56913 
L 257.008524 219.820961 
L 259.569117 218.563723 
L 259.877813 218.10029 
L 259.802499 217.56381 
L 259.906366 217.020953 
L 260.269049 216.687247 
L 260.69642 216.509058 
L 260.823951 216.159057 
L 260.746582 215.752304 
L 260.009099 214.183391 
L 260.041903 213.83098 
L 260.890904 212.808466 
L 260.519081 212.1757 
L 259.997409 211.872318 
L 260.152925 211.420788 
L 260.983577 211.050594 
L 261.058891 210.685997 
L 260.961711 210.418742 
L 260.444192 208.995504 
L 260.23327 208.81767 
L 259.369602 208.760068 
L 260.468706 207.90717 
L 261.9227 207.560215 
L 262.049381 206.94332 
L 261.845544 206.546769 
L 260.684635 206.163154 
L 260.5623 206.122729 
L 260.105172 206.354056 
L 259.715282 206.376303 
L 258.733507 205.914995 
L 256.059609 205.274011 
L 255.312419 204.935275 
L 254.774522 205.148464 
L 254.640662 205.626802 
L 254.590169 205.807232 
L 255.130829 206.548682 
L 255.403675 207.893992 
L 255.253188 208.530087 
L 254.557436 208.307759 
L 253.494608 207.682361 
L 252.718724 207.869477 
L 252.284127 209.110636 
L 252.282981 209.122467 
L 252.221849 209.753463 
L 252.516729 210.2147 
L 252.557539 210.707819 
L 252.002 211.606912 
L 251.728872 211.637378 
L 251.421664 211.361911 
L 251.26976 211.070574 
L 251.205216 210.956434 
L 248.909022 210.553932 
L 248.613717 210.608274 
L 248.440629 210.811899 
L 248.39656 211.293753 
L 249.22459 211.636528 
L 249.539804 212.302806 
L 249.479723 212.461511 
L 248.826764 212.790257 
L 247.054297 212.814417 
L 246.495973 212.534217 
L 246.425924 212.499062 
L 245.83411 212.645297 
L 245.646781 212.841836 
L 246.492382 214.795893 
L 245.999688 215.010995 
L 245.791387 215.450835 
L 245.76829 215.814015 
L 245.381809 215.292546 
L 244.808407 214.518868 
L 244.676476 213.538267 
L 244.673154 213.51357 
L 244.711696 212.946766 
L 244.622141 212.738182 
L 244.406685 212.581744 
L 243.234534 212.221257 
L 242.854988 212.844316 
L 242.110704 212.860045 
L 242.061547 212.887987 
L 241.534618 213.187516 
L 242.149601 213.81844 
L 242.471333 215.012767 
L 242.372142 215.083617 
L 241.703809 214.870924 
L 241.295214 214.022347 
L 241.047734 213.786628 
L 240.544837 213.755241 
L 240.364168 213.88093 
L 240.362118 213.947583 
L 240.344471 214.521277 
L 240.529179 214.97309 
L 240.249673 215.67196 
L 239.779226 216.15261 
L 239.523456 215.896272 
L 239.146319 215.892376 
L 239.012695 216.03769 
L 239.118758 216.418795 
L 239.789712 217.015356 
L 240.235007 218.791578 
L 239.509498 218.794979 
L 239.074193 219.526085 
L 238.693726 220.574106 
L 238.123025 219.533454 
L 236.856856 219.481804 
L 236.564314 220.176918 
L 236.680934 220.924107 
L 235.152901 220.793601 
L 234.013696 221.010049 
L 233.71834 221.189346 
L 232.868752 221.705092 
L 232.473335 222.015559 
L 231.245992 221.214807 
L 229.31567 220.979229 
L 226.842491 221.818382 
L 226.712835 220.067808 
L 226.081415 215.097504 
L 226.059735 214.983435 
L 225.643559 214.371074 
L 225.424206 214.191043 
L 225.401392 214.027874 
L 225.358953 213.413529 
L 225.432708 212.859691 
L 225.771374 212.540226 
L 225.772241 212.531001 
L 225.841291 211.797151 
L 225.856678 211.633623 
L 225.857103 211.629088 
L 225.9852 210.39048 
L 225.969755 210.294265 
L 225.842224 210.265925 
L 225.806799 210.265925 
L 225.049974 210.103465 
L 224.474738 210.010863 
L 223.896649 209.906236 
L 222.908872 209.727461 
L 222.908872 209.699121 
L 222.915957 209.493654 
L 222.540449 209.415719 
L 221.840092 209.288896 
L 221.839879 209.294281 
L 221.612732 209.252692 
L 221.523744 209.232358 
L 221.128566 208.752474 
L 219.457885 206.723683 
L 219.393341 206.645393 
L 219.355795 206.602571 
L 216.865182 203.76192 
L 215.234928 203.074012 
L 212.968699 202.117746 
L 212.869001 202.075678 
L 212.859834 202.071684 
L 212.15334 201.763935 
L 212.047065 201.61522 
L 212.05415 201.317648 
L 211.848683 200.92797 
L 211.728237 200.772099 
L 211.593551 200.750844 
L 211.345574 200.644568 
L 211.246383 200.502867 
L 211.239298 200.368251 
L 211.283479 200.244546 
L 211.345574 200.070679 
L 211.345574 199.921893 
L 211.373914 199.794362 
L 211.352659 199.744767 
L 210.785855 198.745775 
L 210.948811 198.398607 
L 211.324319 198.115205 
L 211.46602 197.99476 
L 211.636061 197.867229 
L 211.168448 197.286255 
L 211.140036 197.208319 
L 211.68587 196.043573 
L 211.721081 195.968435 
L 211.479058 195.281618 
L 211.449592 195.197997 
L 211.239227 194.601021 
L 211.345503 193.765056 
L 211.345503 193.750885 
L 211.388013 193.410803 
L 211.383444 193.411358 
L 211.319497 193.419122 
L 210.396035 193.531249 
L 210.2671 193.544142 
L 210.254334 193.545419 
L 209.7017 193.609184 
L 209.545829 193.623355 
L 209.496234 193.63044 
L 209.099471 193.680035 
L 208.90109 193.694205 
L 208.702638 193.722545 
L 208.35339 193.777329 
L 208.3413 193.779226 
L 208.3413 193.740063 
L 208.3413 192.258728 
L 208.3413 192.24765 
L 208.3413 191.689136 
L 208.348385 191.674966 
L 208.362484 188.70633 
L 208.355399 188.571714 
L 208.357899 187.269105 
L 208.362484 184.880474 
L 205.319036 184.921565 
L 202.928072 184.953847 
L 200.083086 184.992259 
L 199.966416 184.993834 
L 199.895566 185.000919 
L 199.814052 185.007094 
L 198.025042 185.14262 
L 198.003787 185.149705 
L 197.896714 185.151912 
L 195.748403 185.196183 
L 194.510715 185.213471 
L 193.805335 185.229708 
L 192.397526 185.262115 
L 189.662736 185.325068 
L 187.144543 185.383035 
L 181.112744 185.521883 
L 178.75824 185.640912 
L 178.658482 184.542446 
L 172.756794 184.490127 
L 172.272727 184.485836 
L 167.154536 184.352668 
L 165.432394 184.30786 
L 160.035712 184.274773 
L 157.46885 184.17173 
L 157.295726 184.16478 
L 154.920943 184.069448 
L 154.918959 184.069424 
L 150.004359 184.009802 
L 146.855605 183.971603 
L 145.358312 183.965382 
L 142.06434 183.951694 
L 138.532885 183.898747 
L 136.376081 183.86641 
L 132.178428 183.803475 
L 128.457073 183.788059 
L 127.116089 183.782503 
L 125.364154 183.943868 
L 123.920731 184.076816 
L 123.275921 184.462668 
L 122.716131 184.462668 
L 121.532928 184.441413 
L 121.531294 184.431938 
L 121.462077 184.03048 
L 121.45797 184.030293 
L 118.968069 183.917119 
L 115.227658 183.605873 
L 110.982934 183.647887 
L 110.862488 183.853354 
L 111.14589 183.938374 
L 111.273421 184.07299 
L 111.110465 184.413073 
L 110.867518 184.728216 
L 110.819057 184.734026 
L 110.648519 184.664521 
L 110.535655 184.687123 
L 110.524389 184.811253 
L 110.592122 184.924047 
L 110.706617 185.008217 
L 110.600341 185.178258 
L 110.45864 185.305789 
L 110.456727 185.522096 
L 110.253103 185.667127 
L 110.210592 186.000124 
L 109.642344 186.061492 
L 106.667926 186.382717 
L 106.894647 183.626703 
L 104.514 183.598363 
L 103.346596 183.54062 
L 103.345221 183.540608 
L 103.338519 183.540549 
L 95.173308 183.483856 
L 93.715887 183.473737 
L 93.062978 183.459051 
L 89.910861 183.388149 
L 89.908446 183.388081 
L 84.666259 183.239139 
L 77.40263 183.032763 
L 77.3135 183.027945 
L 77.178658 183.023609 
L 72.917864 182.886599 
L 72.824129 182.883481 
L 63.018986 182.628207 
L 59.157492 182.695444 
L 58.479807 182.692823 
L 57.681818 180.10097 
" clip-path="url(#p9849e8ee9c)" style="fill: #d2f700"/>
   </g>
   <g id="PathCollection_1">
    <defs>
     <path id="m9711b7714b" d="M 0 1.581139 
C 0.419323 1.581139 0.821528 1.41454 1.118034 1.118034 
C 1.41454 0.821528 1.581139 0.419323 1.581139 0 
C 1.581139 -0.419323 1.41454 -0.821528 1.118034 -1.118034 
C 0.821528 -1.41454 0.419323 -1.581139 0 -1.581139 
C -0.419323 -1.581139 -0.821528 -1.41454 -1.118034 -1.118034 
C -1.41454 -0.821528 -1.581139 -0.419323 -1.581139 0 
C -1.581139 0.419323 -1.41454 0.821528 -1.118034 1.118034 
C -0.821528 1.41454 -0.419323 1.581139 0 1.581139 
z
" style="stroke: #000000"/>
    </defs>
    <g clip-path="url(#p9849e8ee9c)">
     <use xlink:href="#m9711b7714b" x="230.871901" y="160.836364" style="stroke: #000000"/>
    </g>
   </g>
   <g id="text_1">
    <!-- Boston -->
    <g transform="translate(233.871901 157.836364) scale(0.1 -0.1)">
     <defs>
      <path id="DejaVuSans-42" d="M 1259 2228 
L 1259 519 
L 2272 519 
Q 2781 519 3026 730 
Q 3272 941 3272 1375 
Q 3272 1813 3026 2020 
Q 2781 2228 2272 2228 
L 1259 2228 
z
M 1259 4147 
L 1259 2741 
L 2194 2741 
Q 2656 2741 2882 2914 
Q 3109 3088 3109 3444 
Q 3109 3797 2882 3972 
Q 2656 4147 2194 4147 
L 1259 4147 
z
M 628 4666 
L 2241 4666 
Q 2963 4666 3353 4366 
Q 3744 4066 3744 3513 
Q 3744 3084 3544 2831 
Q 3344 2578 2956 2516 
Q 3422 2416 3680 2098 
Q 3938 1781 3938 1306 
Q 3938 681 3513 340 
Q 3088 0 2303 0 
L 628 0 
L 628 4666 
z
" transform="scale(0.015625)"/>
      <path id="DejaVuSans-6f" d="M 1959 3097 
Q 1497 3097 1228 2736 
Q 959 2375 959 1747 
Q 959 1119 1226 758 
Q 1494 397 1959 397 
Q 2419 397 2687 759 
Q 2956 1122 2956 1747 
Q 2956 2369 2687 2733 
Q 2419 3097 1959 3097 
z
M 1959 3584 
Q 2709 3584 3137 3096 
Q 3566 2609 3566 1747 
Q 3566 888 3137 398 
Q 2709 -91 1959 -91 
Q 1206 -91 779 398 
Q 353 888 353 1747 
Q 353 2609 779 3096 
Q 1206 3584 1959 3584 
z
" transform="scale(0.015625)"/>
      <path id="DejaVuSans-73" d="M 2834 3397 
L 2834 2853 
Q 2591 2978 2328 3040 
Q 2066 3103 1784 3103 
Q 1356 3103 1142 2972 
Q 928 2841 928 2578 
Q 928 2378 1081 2264 
Q 1234 2150 1697 2047 
L 1894 2003 
Q 2506 1872 2764 1633 
Q 3022 1394 3022 966 
Q 3022 478 2636 193 
Q 2250 -91 1575 -91 
Q 1294 -91 989 -36 
Q 684 19 347 128 
L 347 722 
Q 666 556 975 473 
Q 1284 391 1588 391 
Q 1994 391 2212 530 
Q 2431 669 2431 922 
Q 2431 1156 2273 1281 
Q 2116 1406 1581 1522 
L 1381 1569 
Q 847 1681 609 1914 
Q 372 2147 372 2553 
Q 372 3047 722 3315 
Q 1072 3584 1716 3584 
Q 2034 3584 2315 3537 
Q 2597 3491 2834 3397 
z
" transform="scale(0.015625)"/>
      <path id="DejaVuSans-74" d="M 1172 4494 
L 1172 3500 
L 2356 3500 
L 2356 3053 
L 1172 3053 
L 1172 1153 
Q 1172 725 1289 603 
Q 1406 481 1766 481 
L 2356 481 
L 2356 0 
L 1766 0 
Q 1100 0 847 248 
Q 594 497 594 1153 
L 594 3053 
L 172 3053 
L 172 3500 
L 594 3500 
L 594 4494 
L 1172 4494 
z
" transform="scale(0.015625)"/>
      <path id="DejaVuSans-6e" d="M 3513 2113 
L 3513 0 
L 2938 0 
L 2938 2094 
Q 2938 2591 2744 2837 
Q 2550 3084 2163 3084 
Q 1697 3084 1428 2787 
Q 1159 2491 1159 1978 
L 1159 0 
L 581 0 
L 581 3500 
L 1159 3500 
L 1159 2956 
Q 1366 3272 1645 3428 
Q 1925 3584 2291 3584 
Q 2894 3584 3203 3211 
Q 3513 2838 3513 2113 
z
" transform="scale(0.015625)"/>
     </defs>
     <use xlink:href="#DejaVuSans-42"/>
     <use xlink:href="#DejaVuSans-6f" x="68.603516"/>
     <use xlink:href="#DejaVuSans-73" x="129.785156"/>
     <use xlink:href="#DejaVuSans-74" x="181.884766"/>
     <use xlink:href="#DejaVuSans-6f" x="221.09375"/>
     <use xlink:href="#DejaVuSans-6e" x="282.275391"/>
    </g>
   </g>
   <g id="text_2">
    <!-- Massachusetts -->
    <g transform="translate(140.166562 111.556751) scale(0.12 -0.12)">
     <defs>
      <path id="DejaVuSans-4d" d="M 628 4666 
L 1569 4666 
L 2759 1491 
L 3956 4666 
L 4897 4666 
L 4897 0 
L 4281 0 
L 4281 4097 
L 3078 897 
L 2444 897 
L 1241 4097 
L 1241 0 
L 628 0 
L 628 4666 
z
" transform="scale(0.015625)"/>
      <path id="DejaVuSans-61" d="M 2194 1759 
Q 1497 1759 1228 1600 
Q 959 1441 959 1056 
Q 959 750 1161 570 
Q 1363 391 1709 391 
Q 2188 391 2477 730 
Q 2766 1069 2766 1631 
L 2766 1759 
L 2194 1759 
z
M 3341 1997 
L 3341 0 
L 2766 0 
L 2766 531 
Q 2569 213 2275 61 
Q 1981 -91 1556 -91 
Q 1019 -91 701 211 
Q 384 513 384 1019 
Q 384 1609 779 1909 
Q 1175 2209 1959 2209 
L 2766 2209 
L 2766 2266 
Q 2766 2663 2505 2880 
Q 2244 3097 1772 3097 
Q 1472 3097 1187 3025 
Q 903 2953 641 2809 
L 641 3341 
Q 956 3463 1253 3523 
Q 1550 3584 1831 3584 
Q 2591 3584 2966 3190 
Q 3341 2797 3341 1997 
z
" transform="scale(0.015625)"/>
      <path id="DejaVuSans-63" d="M 3122 3366 
L 3122 2828 
Q 2878 2963 2633 3030 
Q 2388 3097 2138 3097 
Q 1578 3097 1268 2742 
Q 959 2388 959 1747 
Q 959 1106 1268 751 
Q 1578 397 2138 397 
Q 2388 397 2633 464 
Q 2878 531 3122 666 
L 3122 134 
Q 2881 22 2623 -34 
Q 2366 -91 2075 -91 
Q 1284 -91 818 406 
Q 353 903 353 1747 
Q 353 2603 823 3093 
Q 1294 3584 2113 3584 
Q 2378 3584 2631 3529 
Q 2884 3475 3122 3366 
z
" transform="scale(0.015625)"/>
      <path id="DejaVuSans-68" d="M 3513 2113 
L 3513 0 
L 2938 0 
L 2938 2094 
Q 2938 2591 2744 2837 
Q 2550 3084 2163 3084 
Q 1697 3084 1428 2787 
Q 1159 2491 1159 1978 
L 1159 0 
L 581 0 
L 581 4863 
L 1159 4863 
L 1159 2956 
Q 1366 3272 1645 3428 
Q 1925 3584 2291 3584 
Q 2894 3584 3203 3211 
Q 3513 2838 3513 2113 
z
" transform="scale(0.015625)"/>
      <path id="DejaVuSans-75" d="M 544 1381 
L 544 3500 
L 1119 3500 
L 1119 1403 
Q 1119 906 1312 657 
Q 1506 409 1894 409 
Q 2359 409 2629 706 
Q 2900 1003 2900 1516 
L 2900 3500 
L 3475 3500 
L 3475 0 
L 2900 0 
L 2900 538 
Q 2691 219 2414 64 
Q 2138 -91 1772 -91 
Q 1169 -91 856 284 
Q 544 659 544 1381 
z
M 1991 3584 
L 1991 3584 
z
" transform="scale(0.015625)"/>
      <path id="DejaVuSans-65" d="M 3597 1894 
L 3597 1613 
L 953 1613 
Q 991 1019 1311 708 
Q 1631 397 2203 397 
Q 2534 397 2845 478 
Q 3156 559 3463 722 
L 3463 178 
Q 3153 47 2828 -22 
Q 2503 -91 2169 -91 
Q 1331 -91 842 396 
Q 353 884 353 1716 
Q 353 2575 817 3079 
Q 1281 3584 2069 3584 
Q 2775 3584 3186 3129 
Q 3597 2675 3597 1894 
z
M 3022 2063 
Q 3016 2534 2758 2815 
Q 2500 3097 2075 3097 
Q 1594 3097 1305 2825 
Q 1016 2553 972 2059 
L 3022 2063 
z
" transform="scale(0.015625)"/>
     </defs>
     <use xlink:href="#DejaVuSans-4d"/>
     <use xlink:href="#DejaVuSans-61" x="86.279297"/>
     <use xlink:href="#DejaVuSans-73" x="147.558594"/>
     <use xlink:href="#DejaVuSans-73" x="199.658203"/>
     <use xlink:href="#DejaVuSans-61" x="251.757812"/>
     <use xlink:href="#DejaVuSans-63" x="313.037109"/>
     <use xlink:href="#DejaVuSans-68" x="368.017578"/>
     <use xlink:href="#DejaVuSans-75" x="431.396484"/>
     <use xlink:href="#DejaVuSans-73" x="494.775391"/>
     <use xlink:href="#DejaVuSans-65" x="546.875"/>
     <use xlink:href="#DejaVuSans-74" x="608.398438"/>
     <use xlink:href="#DejaVuSans-74" x="647.607422"/>
     <use xlink:href="#DejaVuSans-73" x="686.816406"/>
    </g>
   </g>
  </g>
 </g>
 <defs>
  <clipPath id="p9849e8ee9c">
   <rect x="45" y="117.556751" width="279" height="128.486499"/>
  </clipPath>
 </defs>
</svg>
