<?xml version="1.0" encoding="utf-8" standalone="no"?>
<!DOCTYPE svg PUBLIC "-//W3C//DTD SVG 1.1//EN"
  "http://www.w3.org/Graphics/SVG/1.1/DTD/svg11.dtd">
<svg xmlns:xlink="http://www.w3.org/1999/xlink" width="460.8pt" height="345.6pt" viewBox="0 0 460.8 345.6" xmlns="http://www.w3.org/2000/svg" version="1.1">
 <metadata>
  <rdf:RDF xmlns:dc="http://purl.org/dc/elements/1.1/" xmlns:cc="http://creativecommons.org/ns#" xmlns:rdf="http://www.w3.org/1999/02/22-rdf-syntax-ns#">
   <cc:Work>
    <dc:type rdf:resource="http://purl.org/dc/dcmitype/StillImage"/>
    <dc:date>2023-06-19T14:47:49.604813</dc:date>
    <dc:format>image/svg+xml</dc:format>
    <dc:creator>
     <cc:Agent>
      <dc:title>Matplotlib v3.7.1, https://matplotlib.org/</dc:title>
     </cc:Agent>
    </dc:creator>
   </cc:Work>
  </rdf:RDF>
 </metadata>
 <defs>
  <style type="text/css">*{stroke-linejoin: round; stroke-linecap: butt}</style>
 </defs>
 <g id="figure_1">
  <g id="patch_1">
   <path d="M 0 345.6 
L 460.8 345.6 
L 460.8 0 
L 0 0 
z
" style="fill: #ffffff"/>
  </g>
  <g id="axes_1">
   <g id="PatchCollection_1">
    <path d="M 299.589016 131.402535 
L 300.168499 131.515769 
L 300.275037 131.874912 
L 300.528949 132.139296 
L 300.543766 132.745206 
L 299.954686 132.34591 
L 299.510715 131.925941 
L 299.589016 131.402535 
" clip-path="url(#pab1de45021)" style="fill: #33ff57"/>
    <path d="M 284.481653 136.550624 
L 284.685632 136.269999 
L 284.976217 136.428153 
L 285.031687 136.701217 
L 284.882361 137.12491 
L 284.662484 136.842125 
L 284.481653 136.550624 
" clip-path="url(#pab1de45021)" style="fill: #33ff57"/>
    <path d="M 282.974391 135.983527 
L 283.159151 135.740373 
L 283.566239 136.183733 
L 283.744038 136.460372 
L 283.513431 136.728072 
L 283.159151 137.001806 
L 282.96606 136.727588 
L 282.974391 135.983527 
" clip-path="url(#pab1de45021)" style="fill: #33ff57"/>
    <path d="M 282.671916 140.285681 
L 282.7895 139.473754 
L 282.923218 139.442317 
L 283.249263 139.550633 
L 283.431755 139.73866 
L 283.809157 140.330862 
L 283.948307 140.703005 
L 284.308177 141.665673 
L 284.596706 141.878097 
L 285.649503 142.334345 
L 286.281028 142.249532 
L 286.847593 142.427465 
L 288.442067 143.120683 
L 288.593608 143.066227 
L 288.737476 142.898612 
L 288.778894 142.633072 
L 288.728961 142.415992 
L 288.788412 142.375169 
L 289.010529 142.73014 
L 289.213586 143.207768 
L 290.457654 143.673328 
L 290.449956 143.762723 
L 290.082731 144.258304 
L 290.029818 144.645904 
L 289.448648 145.036373 
L 289.414164 145.124874 
L 289.455344 145.322361 
L 289.143879 145.516273 
L 288.799828 145.542533 
L 288.506553 145.371379 
L 287.952538 145.310107 
L 287.474215 145.150165 
L 287.080203 145.207377 
L 286.638236 144.963442 
L 286.464654 144.688367 
L 286.41654 144.327362 
L 286.001068 143.961142 
L 285.346131 143.004209 
L 285.038726 142.767537 
L 284.501215 142.528406 
L 284.352996 142.37692 
L 284.283764 142.134176 
L 284.103302 141.7836 
L 283.713192 141.381324 
L 283.396217 140.891516 
L 283.254483 140.76357 
L 282.978688 140.666353 
L 282.686495 140.421039 
L 282.671916 140.285681 
" clip-path="url(#pab1de45021)" style="fill: #33ff57"/>
    <path d="M 263.085293 143.426152 
L 263.536962 142.149894 
L 263.963533 141.972632 
L 264.214467 142.788023 
L 264.013731 143.497072 
L 263.536962 143.780676 
L 263.085293 143.426152 
" clip-path="url(#pab1de45021)" style="fill: #33ff57"/>
    <path d="M 259.65311 141.51672 
L 260.378043 141.798387 
L 261.610433 142.750254 
L 261.610433 143.50359 
L 261.284177 143.897969 
L 260.106176 143.437103 
L 259.453771 142.694568 
L 259.65311 141.51672 
" clip-path="url(#pab1de45021)" style="fill: #33ff57"/>
    <path d="M 256.869905 150.144345 
L 257.137922 149.161712 
L 257.433121 148.883806 
L 257.542058 148.613835 
L 257.530721 148.303076 
L 257.416195 147.913167 
L 257.532566 147.024249 
L 257.639051 146.766196 
L 257.904617 146.423852 
L 258.090352 146.321607 
L 258.391298 145.924807 
L 258.580513 145.207042 
L 258.589951 144.657898 
L 258.52789 144.473261 
L 258.510674 144.203736 
L 258.546002 144.108121 
L 258.991054 144.218226 
L 259.14423 144.436237 
L 259.35857 144.474192 
L 259.632308 144.471659 
L 260.135968 144.313245 
L 260.264256 144.324419 
L 260.359456 144.628696 
L 260.198583 144.758132 
L 260.06518 144.773515 
L 259.884323 145.018457 
L 260.010422 145.069412 
L 260.329902 145.371975 
L 260.451783 146.150938 
L 260.455422 146.408022 
L 260.223839 146.686561 
L 260.136732 147.053451 
L 260.198345 147.451108 
L 260.285769 147.681076 
L 260.554656 148.134605 
L 260.639707 149.285971 
L 260.525787 149.716033 
L 260.053106 150.207331 
L 259.822103 150.340045 
L 259.588597 150.389287 
L 259.499539 150.476335 
L 259.399592 150.888109 
L 259.21333 151.005551 
L 258.672734 151.111037 
L 257.185404 150.722393 
L 257.061704 150.596459 
L 256.869905 150.144345 
" clip-path="url(#pab1de45021)" style="fill: #33ff57"/>
    <path d="M 254.977148 145.005532 
L 255.318826 144.591746 
L 256.293849 144.744425 
L 256.360102 145.511245 
L 255.758105 146.476669 
L 255.107307 146.453688 
L 254.977148 145.005532 
" clip-path="url(#pab1de45021)" style="fill: #33ff57"/>
    <path d="M 252.574008 154.472163 
L 252.845953 154.11384 
L 253.037647 154.167551 
L 253.203714 154.533771 
L 253.212704 154.997357 
L 253.137909 155.269452 
L 252.736701 154.836186 
L 252.574008 154.472163 
" clip-path="url(#pab1de45021)" style="fill: #33ff57"/>
    <path d="M 250.199947 155.906091 
L 250.85238 156.034111 
L 251.468561 156.469389 
L 251.704151 157.36557 
L 251.504812 158.338519 
L 250.453676 156.72543 
L 250.199947 155.906091 
" clip-path="url(#pab1de45021)" style="fill: #33ff57"/>
    <path d="M 245.401524 167.200098 
L 245.54977 166.752193 
L 245.784937 166.523976 
L 245.944256 166.48062 
L 246.24101 166.523902 
L 246.958851 166.623316 
L 247.295046 166.733048 
L 247.394755 166.79771 
L 247.72718 167.27098 
L 247.736908 167.928664 
L 247.631478 168.213982 
L 247.534933 169.181418 
L 247.569101 169.415558 
L 247.719824 169.705867 
L 247.725071 170.090748 
L 247.185213 170.341463 
L 246.770954 170.049254 
L 246.591652 169.755332 
L 246.13674 169.19993 
L 245.733501 168.874571 
L 245.569279 168.671012 
L 245.523326 168.527943 
L 245.401524 167.200098 
" clip-path="url(#pab1de45021)" style="fill: #33ff57"/>
    <path d="M 242.984649 172.032288 
L 243.040857 171.750434 
L 243.381297 170.925433 
L 243.474863 170.821624 
L 244.007075 170.618996 
L 244.659375 170.879209 
L 245.030133 171.277648 
L 244.651861 171.245429 
L 244.555817 171.302492 
L 244.470898 171.447312 
L 244.429269 171.575034 
L 244.447197 171.750471 
L 244.64962 172.132745 
L 244.065313 172.458477 
L 243.591919 172.54113 
L 243.033818 172.335522 
L 242.984649 172.032288 
" clip-path="url(#pab1de45021)" style="fill: #33ff57"/>
    <path d="M 228.861298 149.438128 
L 229.260003 149.566148 
L 229.563822 149.843644 
L 230.136266 150.616908 
L 230.60676 151.060082 
L 230.763573 151.481056 
L 230.71654 151.702643 
L 230.324453 152.234429 
L 230.010799 152.190104 
L 229.681459 151.037919 
L 228.879437 150.231878 
L 228.33573 149.66858 
L 228.861298 149.438128 
" clip-path="url(#pab1de45021)" style="fill: #33ff57"/>
    <path d="M 226.376298 153.258408 
L 226.821377 153.195459 
L 227.143546 153.647237 
L 227.330019 154.391745 
L 226.980326 154.769661 
L 226.477642 154.293151 
L 226.280913 153.73056 
L 226.376298 153.258408 
" clip-path="url(#pab1de45021)" style="fill: #33ff57"/>
    <path d="M 225.36977 293.098519 
L 226.624727 292.185948 
L 228.211582 290.89684 
L 229.205034 289.949108 
L 230.784585 288.122701 
L 230.874566 287.978338 
L 231.352547 287.211472 
L 231.766516 286.319388 
L 231.784428 286.262639 
L 232.227228 284.859779 
L 232.446077 284.166429 
L 233.085665 282.780663 
L 233.700077 281.449441 
L 233.898712 281.019068 
L 234.19399 280.251801 
L 234.323148 279.763855 
L 234.823037 279.161671 
L 235.590608 278.079726 
L 236.460669 276.853315 
L 236.512427 276.772738 
L 236.960717 276.074836 
L 237.495878 275.111824 
L 237.724248 274.700878 
L 238.631568 272.593511 
L 239.281047 270.825583 
L 239.616399 269.471403 
L 239.602663 269.20132 
L 239.815975 268.772859 
L 239.894664 268.55075 
L 240.219477 267.633934 
L 240.532234 266.281169 
L 240.771304 264.0542 
L 240.912668 263.12457 
L 241.102437 262.437758 
L 241.16753 262.014326 
L 241.076917 260.415354 
L 241.140507 260.14609 
L 241.420441 259.420093 
L 241.596237 258.48687 
L 241.614639 258.389187 
L 241.662621 257.371056 
L 241.635265 256.23477 
L 241.623734 255.755807 
L 241.608533 255.578856 
L 241.5564 254.972002 
L 241.531302 253.131814 
L 241.559722 252.167394 
L 241.470058 251.257543 
L 241.435908 250.431623 
L 241.415458 249.937035 
L 241.149286 247.356622 
L 241.098939 247.051318 
L 240.980503 246.333128 
L 240.675471 245.069721 
L 240.52277 244.77889 
L 240.510959 244.424887 
L 240.402101 243.813428 
L 239.944689 242.511391 
L 239.713735 241.853972 
L 239.542683 241.45169 
L 238.907511 239.957885 
L 238.77773 239.652666 
L 238.419773 238.882145 
L 236.682022 235.141552 
L 236.363491 234.314242 
L 235.905162 232.931805 
L 235.643962 232.143963 
L 235.28491 230.828707 
L 234.930258 229.327082 
L 234.757523 228.595704 
L 234.479935 227.725149 
L 233.400879 225.438769 
L 233.15564 224.815093 
L 232.918627 223.919694 
L 232.854852 223.336505 
L 232.858253 222.910577 
L 232.919022 222.381584 
L 233.164288 221.670375 
L 233.661514 220.898006 
L 234.411968 219.910567 
L 234.947159 219.107878 
L 235.380348 218.181191 
L 235.584195 217.519298 
L 235.751554 216.52698 
L 235.750988 216.399175 
L 235.747468 215.605284 
L 235.675837 215.05074 
L 235.371595 213.77992 
L 235.306739 212.723462 
L 234.905451 210.753539 
L 234.903242 210.748871 
L 234.530299 209.960853 
L 234.418512 209.724649 
L 234.373029 209.628545 
L 233.887745 208.856287 
L 233.70085 208.452409 
L 233.544906 207.887547 
L 233.545961 207.507657 
L 233.702511 207.144044 
L 233.921623 206.856268 
L 235.333947 205.725314 
L 235.782453 205.210848 
L 236.001138 204.868919 
L 236.013482 204.849619 
L 236.55297 203.830222 
L 236.626012 203.666658 
L 236.916341 203.01652 
L 237.095622 202.615051 
L 237.54948 201.920716 
L 237.844995 201.126742 
L 238.051821 200.375119 
L 238.486987 199.874174 
L 238.7839 199.086272 
L 239.199424 198.19281 
L 240.031317 196.809912 
L 240.473812 194.736701 
L 240.575129 193.993162 
L 240.568881 193.478695 
L 240.476 192.850177 
L 240.482274 192.335748 
L 240.55322 191.68164 
L 240.689496 191.460947 
L 240.821369 190.985926 
L 240.959526 190.367776 
L 241.215644 189.221834 
L 241.297136 188.562586 
L 241.171827 187.52531 
L 241.003677 186.984584 
L 240.420451 185.532927 
L 240.286547 184.952831 
L 240.345418 184.091848 
L 240.392874 183.899426 
L 240.56482 183.634558 
L 240.986435 183.373674 
L 242.575689 182.830862 
L 242.890292 182.549046 
L 243.922261 182.557129 
L 244.31622 182.441065 
L 244.764304 182.05339 
L 245.060979 181.429937 
L 245.177693 180.999017 
L 245.188753 180.689035 
L 245.224094 179.698549 
L 245.376478 179.0726 
L 245.374765 178.576087 
L 245.240809 177.437498 
L 245.205059 176.716083 
L 245.244025 176.30308 
L 245.355941 175.937716 
L 245.563769 175.739297 
L 246.105024 175.564829 
L 246.293211 175.875736 
L 246.548441 176.046144 
L 246.868976 176.169807 
L 247.31242 176.148501 
L 247.63712 175.920917 
L 247.832083 175.598911 
L 247.981172 175.051257 
L 248.127914 174.824678 
L 248.36208 174.631325 
L 248.64212 174.126283 
L 248.734658 173.744791 
L 248.918916 173.58727 
L 249.334124 173.605187 
L 249.81461 173.839587 
L 249.974983 173.997182 
L 250.281043 174.536455 
L 250.546846 174.695652 
L 250.956755 174.728579 
L 251.435369 174.650024 
L 251.981079 174.449817 
L 252.193258 174.29401 
L 252.904139 173.246677 
L 252.961112 173.055112 
L 253.015712 172.403313 
L 253.142576 171.859235 
L 253.391769 171.551084 
L 253.800386 170.516527 
L 253.948236 170.354648 
L 254.701564 169.98042 
L 255.13781 169.576692 
L 255.523227 168.972086 
L 255.666252 168.493564 
L 255.687607 168.095907 
L 256.184228 166.994416 
L 257.169849 165.46789 
L 257.313929 165.547861 
L 257.353212 165.678974 
L 257.477676 165.776823 
L 257.844111 165.774961 
L 258.030716 165.705904 
L 258.593115 165.252785 
L 258.668121 164.955622 
L 258.951192 164.575024 
L 259.229992 164.596367 
L 259.592841 165.373095 
L 259.468218 165.822638 
L 259.325035 165.966489 
L 258.922007 166.191205 
L 258.671522 166.504533 
L 258.660343 166.578507 
L 258.634032 166.637955 
L 258.612993 166.675091 
L 258.586708 166.689952 
L 258.544631 166.697402 
L 258.492009 166.697402 
L 258.44748 166.645888 
L 258.349537 166.633112 
L 257.913448 166.719266 
L 257.666496 166.864123 
L 257.283742 167.673293 
L 257.41696 168.196699 
L 258.104219 169.768778 
L 258.363774 169.877616 
L 258.555889 170.219588 
L 258.554201 170.799461 
L 258.447954 170.88718 
L 258.347349 170.809593 
L 258.193883 170.370665 
L 257.923467 170.482446 
L 257.73557 170.914408 
L 257.670424 171.614591 
L 257.42073 171.936636 
L 257.084456 172.255998 
L 256.874835 172.332207 
L 256.721317 172.676525 
L 256.361025 173.390379 
L 256.567799 173.609582 
L 256.77771 173.659717 
L 257.112956 173.384121 
L 257.487563 172.772513 
L 257.547858 172.760556 
L 257.599136 173.383004 
L 257.607625 175.153353 
L 257.096979 175.28819 
L 256.989044 175.363281 
L 256.610851 176.512449 
L 256.462843 176.758657 
L 256.371202 177.117539 
L 256.280957 178.045679 
L 256.305212 178.696323 
L 256.563132 179.471375 
L 256.685778 180.243819 
L 256.586095 180.784545 
L 256.601 180.80357 
L 256.709585 180.942177 
L 256.92353 181.084501 
L 257.37715 181.171959 
L 257.680864 181.143688 
L 257.830744 181.03701 
L 257.898922 180.473414 
L 258.143264 179.58431 
L 259.087784 177.489495 
L 259.429463 177.148082 
L 259.489626 176.530775 
L 258.886943 176.487531 
L 258.728363 176.592234 
L 258.596938 176.326546 
L 259.250925 175.52449 
L 259.413064 175.189893 
L 259.764972 173.901679 
L 259.715012 173.664038 
L 259.769481 173.393284 
L 260.492753 172.803354 
L 260.951383 172.757949 
L 261.076402 173.141899 
L 261.221879 173.875047 
L 261.176901 173.957662 
L 261.029052 173.937288 
L 260.673611 174.152021 
L 260.527396 175.12199 
L 260.495653 175.843293 
L 260.597577 176.085888 
L 260.350203 177.436343 
L 260.240132 177.795747 
L 260.07048 178.091121 
L 259.79421 178.18547 
L 259.245099 178.601639 
L 258.824064 179.194251 
L 258.709723 179.499087 
L 258.702948 180.258681 
L 258.279066 181.35641 
L 258.417873 181.539482 
L 258.865403 181.783418 
L 259.28831 181.855045 
L 259.580134 181.802377 
L 260.17177 181.063121 
L 260.193916 180.881761 
L 260.159406 180.559829 
L 260.053765 180.346027 
L 260.308442 179.73129 
L 260.96214 179.317057 
L 261.275345 178.940557 
L 261.340491 178.54573 
L 261.820178 177.646201 
L 262.253769 176.833115 
L 262.327615 176.335001 
L 262.771323 175.710952 
L 263.044797 174.994119 
L 263.506538 172.477324 
L 263.417744 171.739073 
L 263.443976 170.699414 
L 263.524993 170.349508 
L 263.819585 169.85374 
L 263.806509 168.069014 
L 263.657209 167.722498 
L 263.541813 167.102695 
L 263.449117 165.687466 
L 263.284025 165.366353 
L 263.26436 164.685629 
L 263.234803 163.662528 
L 263.682993 162.336731 
L 264.10785 161.891993 
L 264.647312 161.472844 
L 264.939295 161.125397 
L 265.368898 160.760927 
L 265.706305 160.639202 
L 265.845508 160.726957 
L 266.261507 160.675146 
L 266.546055 160.523771 
L 266.755544 160.294027 
L 266.830866 160.100785 
L 267.267561 159.783769 
L 267.951867 159.129587 
L 268.293783 158.991621 
L 268.669023 158.984805 
L 269.692477 158.629275 
L 270.949145 158.754731 
L 272.034821 158.863116 
L 272.343387 158.959402 
L 272.614621 158.9689 
L 272.893526 158.7659 
L 274.557496 158.420538 
L 275.698244 157.782037 
L 275.785588 157.42025 
L 275.774542 157.161452 
L 275.689939 156.868573 
L 275.535947 156.709339 
L 273.981863 156.431172 
L 273.742266 156.496877 
L 273.722651 156.584559 
L 273.612185 156.653989 
L 272.400465 156.158556 
L 271.645477 155.319066 
L 271.149489 154.66019 
L 270.599376 152.995289 
L 270.435206 152.333024 
L 270.322948 151.229745 
L 270.351949 151.000709 
L 270.529326 150.603871 
L 271.014004 150.071526 
L 271.383022 149.439729 
L 271.484313 149.193708 
L 271.504771 148.986834 
L 271.85863 148.60456 
L 273.075254 148.155389 
L 273.294471 147.976749 
L 273.449281 147.795538 
L 273.576304 147.480422 
L 274.245583 146.860284 
L 274.962528 145.967977 
L 275.047684 145.538063 
L 275.005528 145.291185 
L 274.775764 144.977074 
L 273.945612 144.415862 
L 273.402881 144.342112 
L 273.178285 144.192301 
L 273.097189 144.104136 
L 273.284348 143.998389 
L 273.608758 144.121791 
L 275.106054 144.120413 
L 275.465871 144.23197 
L 275.841981 144.488495 
L 276.986763 144.411914 
L 277.672097 144.684381 
L 278.577414 144.63149 
L 278.764177 144.595769 
L 279.047249 144.403831 
L 279.243608 144.076163 
L 279.285079 143.756949 
L 278.954552 143.427418 
L 278.933039 143.354189 
L 279.271554 143.102357 
L 279.47055 143.024993 
L 280.029311 143.269637 
L 280.281642 143.217453 
L 280.490841 143.065817 
L 280.534929 143.076102 
L 280.698405 143.114239 
L 280.890547 143.460867 
L 280.967214 143.886423 
L 281.864357 144.258043 
L 281.928185 144.522577 
L 282.843652 144.861718 
L 283.901115 145.544172 
L 284.720538 145.964587 
L 285.198651 146.266778 
L 285.256256 146.40467 
L 285.633605 146.709468 
L 286.710528 147.456836 
L 287.308901 147.872099 
L 287.672024 148.124101 
L 288.181695 148.035935 
L 288.184804 148.030022 
L 288.364477 147.688228 
L 288.573281 147.49845 
L 288.938503 147.490032 
L 289.290701 147.716573 
L 289.920275 148.006361 
L 291.155855 147.678022 
L 292.206517 148.090876 
L 292.719219 148.407705 
L 294.168453 148.78104 
L 294.459784 149.066022 
L 294.675303 149.276845 
L 295.084711 149.903241 
L 295.701446 150.623389 
L 296.16701 151.055128 
L 296.446337 151.48087 
L 296.507898 151.69199 
L 296.496324 152.220461 
L 296.619233 152.91476 
L 296.767452 153.314726 
L 296.963838 153.608201 
L 297.315351 153.901453 
L 297.845612 154.153285 
L 298.363772 154.197536 
L 298.790343 154.034241 
L 298.887152 153.940675 
L 299.08417 153.904172 
L 299.591178 153.984478 
L 299.8873 154.130154 
L 300.423361 154.019156 
L 301.445128 154.054504 
L 302.230488 154.330324 
L 302.959692 154.996202 
L 303.572736 155.77997 
L 304.021374 156.211224 
L 304.942035 156.811956 
L 305.412502 156.914164 
L 305.82394 156.881125 
L 306.288001 157.114594 
L 306.769093 157.117984 
L 307.177894 157.030042 
L 307.823788 157.665675 
L 308.598418 158.096408 
L 309.234953 158.579326 
L 310.408603 159.292583 
L 311.170842 159.492343 
L 311.700575 159.356985 
L 311.792033 159.289752 
L 311.820242 159.075205 
L 312.015943 159.083772 
L 312.491762 159.490816 
L 312.637845 159.519832 
L 313.112742 159.107275 
L 313.320438 159.169256 
L 313.611287 159.690017 
L 314.458154 160.85509 
L 314.791185 161.112993 
L 314.999462 161.369258 
L 315.071989 161.593974 
L 315.633492 162.01126 
L 315.9714 162.11019 
L 316.054975 162.211542 
L 316.143584 162.405677 
L 315.977728 162.927406 
L 315.330885 163.268931 
L 315.335077 163.526015 
L 315.506338 163.963602 
L 315.989501 164.710423 
L 316.077094 164.845815 
L 316.146115 164.850099 
L 316.482284 165.639342 
L 316.504693 166.000273 
L 316.619852 166.224095 
L 316.719587 166.352562 
L 317.015155 166.408583 
L 317.301522 166.944802 
L 317.873728 167.137075 
L 317.878843 167.210304 
L 317.789442 167.296272 
L 317.812458 167.622339 
L 318.090915 168.7337 
L 318.344142 169.054403 
L 318.540502 169.848749 
L 318.526819 170.093095 
L 318.818775 170.712711 
L 318.904063 170.757222 
L 319.05099 171.005032 
L 319.197785 171.424814 
L 319.049883 171.552462 
L 318.615719 171.439043 
L 318.241903 171.221032 
L 317.237325 170.877235 
L 316.779855 170.539472 
L 316.519879 170.105349 
L 315.681896 169.803791 
L 314.771201 170.278626 
L 314.553592 170.522971 
L 314.255388 171.108692 
L 314.234165 171.237234 
L 314.44049 171.804332 
L 314.732947 171.982078 
L 314.838272 172.126785 
L 314.717841 172.424246 
L 314.635426 172.424283 
L 314.343708 172.789014 
L 314.50967 174.203386 
L 314.637852 174.628159 
L 314.791396 174.924391 
L 314.994954 175.153427 
L 315.541086 175.450664 
L 315.691809 175.910451 
L 315.821494 176.035641 
L 316.906245 176.66483 
L 317.758121 176.873157 
L 317.742563 177.695465 
L 317.738665 177.90153 
L 317.918257 178.301646 
L 318.28158 178.763108 
L 318.416828 180.120193 
L 318.378521 181.420215 
L 318.343826 181.55386 
L 318.369847 181.880635 
L 318.544773 182.508967 
L 318.717115 182.788288 
L 319.000134 183.081242 
L 318.909362 183.995563 
L 318.577017 185.35086 
L 318.100828 186.21322 
L 317.915937 186.998813 
L 317.887305 187.507096 
L 317.938821 188.642818 
L 318.063549 189.247275 
L 318.075334 189.562316 
L 317.816755 190.511613 
L 317.818472 190.614445 
L 317.834393 191.567885 
L 317.591474 193.119143 
L 317.582326 193.684452 
L 317.649686 194.213184 
L 317.730439 194.433691 
L 317.727935 194.605664 
L 317.408692 195.798188 
L 317.369383 196.337946 
L 317.440961 196.990936 
L 317.323509 197.271971 
L 317.145552 197.389525 
L 316.9247 197.292569 
L 316.603137 197.284225 
L 316.358083 197.463238 
L 315.61422 198.429929 
L 315.285222 198.701391 
L 315.155115 198.952553 
L 314.983063 199.522928 
L 314.879532 199.626439 
L 314.535691 199.788355 
L 314.454648 199.48974 
L 314.000025 199.286367 
L 313.565492 199.239733 
L 313.015511 199.369355 
L 312.792814 199.477336 
L 312.371568 199.930009 
L 312.031656 200.428644 
L 311.731474 201.206713 
L 311.631923 201.823685 
L 311.606561 202.299041 
L 311.30626 203.581832 
L 311.239837 203.86557 
L 311.208964 204.951902 
L 311.240628 205.21569 
L 311.099395 205.899336 
L 310.7057 206.440918 
L 310.617196 206.721059 
L 310.641556 207.08117 
L 310.808889 207.558724 
L 310.358511 207.635529 
L 309.833734 207.579657 
L 309.068173 207.720528 
L 308.289431 208.317945 
L 308.072244 208.901096 
L 308.277462 209.888646 
L 307.931934 210.090752 
L 307.017047 209.61629 
L 306.598122 209.987986 
L 306.519741 210.089374 
L 306.071683 210.225291 
L 305.436599 210.220784 
L 304.350029 210.078647 
L 303.843865 210.358042 
L 303.668438 210.526663 
L 303.636854 210.691857 
L 303.286791 211.13559 
L 303.068286 211.190865 
L 302.867022 211.658101 
L 302.740027 212.105782 
L 302.719805 212.528842 
L 302.28543 212.724468 
L 302.259372 213.008056 
L 302.200406 213.649777 
L 302.00895 215.017179 
L 301.785646 217.59141 
L 301.705763 217.975323 
L 301.282593 218.613935 
L 301.035667 218.577209 
L 301.003266 218.638519 
L 301.047399 218.960302 
L 301.182398 219.407384 
L 301.444179 220.274329 
L 302.230303 221.866559 
L 302.557244 222.18689 
L 303.743681 222.898323 
L 304.323111 221.895724 
L 304.644859 221.823091 
L 305.10217 223.030031 
L 306.268254 223.403142 
L 306.935608 223.701124 
L 307.768395 224.510587 
L 308.191963 224.922292 
L 309.12802 224.412891 
L 310.19392 223.071227 
L 310.887691 222.039873 
L 310.912767 222.004748 
L 311.141382 221.684506 
L 311.392221 221.333134 
L 311.975316 220.524969 
L 312.107795 220.574993 
L 312.276235 220.31478 
L 312.423505 220.194805 
L 312.584194 220.165528 
L 312.624136 220.184488 
L 312.689677 220.339289 
L 313.079628 220.56948 
L 313.553233 220.250379 
L 313.756368 219.766493 
L 313.731767 219.678865 
L 313.68595 219.515667 
L 313.333409 219.219584 
L 313.136891 218.157948 
L 313.564543 217.359468 
L 313.963142 216.726628 
L 313.997626 216.12936 
L 314.379853 215.465233 
L 314.362822 214.914785 
L 314.802522 213.945785 
L 315.291919 214.252967 
L 315.044202 215.053757 
L 315.201332 215.558836 
L 315.850521 215.293297 
L 316.388164 214.935309 
L 317.03564 214.567003 
L 317.460603 213.624411 
L 317.009065 213.424837 
L 316.351122 213.233496 
L 315.632859 213.056382 
L 315.473857 212.65947 
L 316.319881 212.689008 
L 317.806816 212.740931 
L 318.148653 212.559572 
L 318.765045 211.980667 
L 319.116479 211.306445 
L 319.304455 210.826359 
L 319.312891 210.658595 
L 320.220791 210.380056 
L 321.048756 210.300569 
L 321.446063 210.33886 
L 322.374369 210.065759 
L 322.651877 209.927719 
L 323.026827 209.637075 
L 323.365316 209.551591 
L 324.117299 209.63227 
L 324.467177 209.547084 
L 324.659239 209.44063 
L 324.979932 209.087298 
L 325.42045 208.138783 
L 325.55923 207.989829 
L 326.226796 207.940066 
L 326.45234 207.853056 
L 327.066334 207.208967 
L 327.297046 207.222525 
L 327.350565 207.314453 
L 327.595487 207.356133 
L 328.082801 207.087875 
L 328.423109 207.046381 
L 329.112398 207.774612 
L 329.479966 207.994597 
L 330.607981 208.299843 
L 331.659855 208.806561 
L 331.789224 209.161719 
L 331.923681 209.323597 
L 332.40298 209.417499 
L 332.897649 209.820073 
L 333.089132 210.063338 
L 333.365006 210.69249 
L 333.794556 211.549375 
L 333.857724 211.600926 
L 334.288355 212.727522 
L 334.680205 214.003258 
L 335.291641 214.593523 
L 335.615497 215.167698 
L 335.622537 215.393009 
L 335.502105 215.46486 
L 335.493748 215.53213 
L 335.584414 215.723769 
L 335.866615 215.958989 
L 336.280163 218.291742 
L 336.250529 218.757637 
L 336.299725 219.104042 
L 336.431255 219.365409 
L 336.589202 221.202978 
L 336.626191 221.633314 
L 336.601066 221.983257 
L 336.740348 224.462245 
L 336.808604 224.943449 
L 336.917383 225.26188 
L 337.131749 226.658596 
L 337.658056 228.188176 
L 337.662959 228.40574 
L 337.978406 229.633129 
L 338.348109 230.622876 
L 338.372865 230.844314 
L 338.337221 231.18759 
L 338.450666 233.210739 
L 338.419899 233.939008 
L 338.595642 234.486736 
L 338.614413 235.140881 
L 338.535848 235.530977 
L 338.781298 238.526033 
L 338.885779 238.996249 
L 339.1558 239.591803 
L 339.306712 240.627382 
L 339.34628 240.898902 
L 339.543009 241.566382 
L 339.637393 242.518584 
L 339.741007 243.020827 
L 339.757929 243.102852 
L 340.153101 243.65803 
L 340.515198 244.630592 
L 340.517769 244.637498 
L 341.426091 246.623884 
L 341.606184 246.713316 
L 341.430889 246.919147 
L 341.388179 247.03428 
L 341.37911 247.166323 
L 341.417707 247.340084 
L 341.489945 247.499392 
L 341.684538 247.775398 
L 341.585093 248.163818 
L 341.272256 248.708083 
L 340.783492 249.238826 
L 340.770755 249.26367 
L 340.575612 249.644305 
L 340.337992 250.590771 
L 340.183182 251.112128 
L 340.180018 251.33703 
L 340.22779 252.168177 
L 340.208254 252.421201 
L 340.11018 252.999658 
L 339.953076 253.431621 
L 339.863306 254.048369 
L 339.875671 254.16421 
L 339.906834 254.285153 
L 340.150306 254.96567 
L 340.249567 255.513361 
L 340.24722 255.788548 
L 339.822205 256.842138 
L 339.815192 257.424842 
L 339.535179 258.063902 
L 339.112246 259.391822 
L 339.128012 260.430216 
L 338.894769 261.302037 
L 338.77468 261.540497 
L 338.120007 262.122978 
L 338.079196 262.179222 
L 337.960056 262.416006 
L 337.915185 262.473963 
L 337.549699 262.8045 
L 337.349886 263.045605 
L 337.301771 263.110341 
L 337.175461 263.531204 
L 337.022997 263.656468 
L 336.629988 263.734167 
L 336.567188 263.724818 
L 336.461969 263.666115 
L 336.309348 263.510345 
L 336.096879 263.412458 
L 335.87057 263.419088 
L 335.674817 263.496489 
L 335.62831 263.520328 
L 335.467595 263.666786 
L 335.127472 263.98436 
L 334.997787 264.23731 
L 334.669211 264.716838 
L 334.475224 264.851414 
L 334.557058 263.47712 
L 334.309552 263.385826 
L 334.617089 262.761888 
L 334.393574 262.237999 
L 334.050736 262.331751 
L 333.823134 262.158884 
L 333.77328 261.897405 
L 334.095555 261.570258 
L 334.456795 261.580203 
L 334.660458 261.361894 
L 334.602404 261.123843 
L 334.377492 260.88691 
L 334.385085 260.808131 
L 334.766969 260.824446 
L 335.049671 260.78839 
L 334.957713 260.359519 
L 335.359133 259.935453 
L 335.688658 260.262079 
L 335.938299 260.25083 
L 336.125511 259.809295 
L 336.080474 259.402581 
L 336.068142 259.291216 
L 335.659974 259.022213 
L 335.349879 259.128853 
L 335.177458 258.890989 
L 334.79502 258.576953 
L 334.4994 258.465694 
L 334.091705 258.483871 
L 333.955377 258.70624 
L 333.910401 258.708784 
L 333.422005 258.736411 
L 332.711466 259.221972 
L 332.624417 259.362413 
L 332.388084 259.743702 
L 331.986454 259.873808 
L 331.680604 259.76579 
L 331.55142 259.806762 
L 331.124321 260.298396 
L 331.006798 260.663179 
L 330.950318 260.838488 
L 330.979345 261.210966 
L 331.190258 261.412104 
L 331.770268 261.691425 
L 331.808338 261.882655 
L 331.771323 262.092695 
L 331.794022 262.458692 
L 331.968078 262.875904 
L 331.94435 263.129189 
L 331.888985 263.173886 
L 331.767711 262.995097 
L 331.567317 262.898253 
L 330.926643 262.909427 
L 330.578637 263.016887 
L 330.270177 263.285629 
L 330.18054 263.468143 
L 330.135721 263.721391 
L 329.916899 263.982125 
L 329.893244 264.022848 
L 329.518801 264.667484 
L 329.310524 265.505559 
L 329.268368 266.593157 
L 329.623991 267.368875 
L 329.626076 267.373423 
L 329.282638 268.689136 
L 329.21042 268.965802 
L 329.149783 269.334555 
L 329.002144 269.662335 
L 328.886142 269.811326 
L 328.445835 270.083235 
L 328.340379 270.221052 
L 328.08462 270.779768 
L 328.211076 271.0515 
L 328.212354 271.054247 
L 327.646976 271.230466 
L 327.277853 271.517237 
L 326.507942 271.785384 
L 325.724902 271.885952 
L 324.5174 272.332963 
L 324.106121 272.671918 
L 323.663204 273.361001 
L 323.609916 273.515222 
L 323.283534 274.45981 
L 322.832708 275.271774 
L 322.822835 275.423295 
L 322.745142 276.615627 
L 322.677134 277.659319 
L 323.009322 279.484385 
L 322.687996 280.884864 
L 322.052279 280.981745 
L 321.758714 281.426521 
L 321.710465 281.451157 
L 321.235677 281.693587 
L 321.222047 281.864108 
L 321.28105 281.888207 
L 321.316668 282.222059 
L 321.245116 283.001059 
L 321.307915 283.07101 
L 321.308866 283.074121 
L 321.423469 283.449075 
L 321.271321 283.885917 
L 321.18461 283.938101 
L 320.707103 283.980265 
L 320.687805 284.326818 
L 320.4896 284.594071 
L 320.319367 284.570605 
L 320.183644 284.641376 
L 319.637855 285.195958 
L 319.432083 285.6696 
L 319.424622 286.002633 
L 319.102216 286.438543 
L 318.63797 286.239081 
L 318.404595 286.226231 
L 318.222103 286.288398 
L 317.880556 286.555836 
L 317.612565 286.963029 
L 317.411724 287.622315 
L 317.358561 288.19041 
L 317.350585 288.27564 
L 317.203052 288.639365 
L 317.043628 288.791623 
L 316.730871 289.090324 
L 316.553704 289.177632 
L 316.395238 288.856652 
L 316.388718 288.843445 
L 316.137995 288.977537 
L 315.761911 289.644719 
L 315.409265 290.488009 
L 315.073914 290.787742 
L 314.760498 290.926154 
L 314.617921 291.127292 
L 314.563716 291.295503 
L 314.519003 292.022877 
L 314.67318 292.746378 
L 314.942304 293.471965 
L 315.027513 293.824924 
L 314.756385 293.961996 
L 314.294038 294.057797 
L 314.243023 294.126296 
L 313.085613 294.156094 
L 313.032885 294.163544 
L 312.935338 294.167269 
L 312.911584 294.167269 
L 310.778702 294.249177 
L 310.770545 294.249445 
L 310.551971 294.256626 
L 310.515061 294.256626 
L 309.423561 294.305011 
L 309.344469 294.308736 
L 309.082905 294.319976 
L 308.651067 294.338534 
L 308.139604 294.357158 
L 307.517411 294.405543 
L 306.091087 294.465139 
L 306.088137 294.465238 
L 303.546873 294.550809 
L 302.997281 294.594037 
L 302.99328 294.594352 
L 302.48643 294.598821 
L 299.874144 294.715742 
L 299.333047 294.721478 
L 296.300017 294.860673 
L 290.34175 295.095572 
L 290.338331 295.095707 
L 289.389197 295.121258 
L 289.310102 295.124036 
L 288.29456 295.159698 
L 280.071915 295.407694 
L 278.592178 295.488 
L 278.593865 295.063524 
L 278.593232 294.577106 
L 278.592626 294.116537 
L 278.592389 293.941696 
L 278.590807 293.736387 
L 278.597424 293.099412 
L 278.254955 293.10526 
L 278.089997 293.107804 
L 278.088255 293.10783 
L 275.259704 293.118968 
L 274.511596 293.128391 
L 274.493089 293.124145 
L 274.229738 293.125076 
L 274.19673 293.131073 
L 272.482695 293.11487 
L 272.440011 293.108017 
L 270.388067 293.118632 
L 270.234233 293.117031 
L 268.939018 293.121687 
L 268.295549 293.117329 
L 268.291944 293.117314 
L 267.341222 293.113455 
L 266.302978 293.107495 
L 266.2836 293.110773 
L 266.263511 293.116025 
L 265.77878 293.108873 
L 265.776701 293.108842 
L 265.613583 293.106415 
L 265.355874 293.103845 
L 265.092523 293.108091 
L 264.76313 293.108128 
L 264.247686 293.110885 
L 263.484208 293.112114 
L 262.207658 293.118409 
L 262.078 293.119228 
L 259.876914 293.131595 
L 259.816488 293.125598 
L 257.462253 293.141763 
L 257.442111 293.137517 
L 257.06521 293.142881 
L 257.00249 293.141242 
L 256.798775 293.138597 
L 256.404131 293.14005 
L 256.323588 293.140869 
L 256.085995 293.140951 
L 254.378024 293.14154 
L 253.706846 293.141316 
L 253.694271 293.141353 
L 253.073031 293.139317 
L 253.046505 293.13923 
L 252.61688 293.1428 
L 252.616138 293.142806 
L 250.489135 293.13111 
L 250.411203 293.132004 
L 250.048115 293.128999 
L 250.04664 293.128987 
L 247.777325 293.113082 
L 247.775242 293.113082 
L 247.344927 293.109358 
L 247.342886 293.109325 
L 246.033973 293.088387 
L 245.465879 293.087776 
L 244.836077 293.087098 
L 243.818519 293.086003 
L 243.807973 293.086599 
L 243.745121 293.085407 
L 242.402933 293.097578 
L 241.379049 293.106862 
L 241.155482 293.106862 
L 241.154773 293.106857 
L 240.116051 293.099748 
L 239.933327 293.100462 
L 233.886822 293.124108 
L 233.424264 293.128056 
L 233.294952 293.127717 
L 230.241432 293.119712 
L 230.211325 293.121128 
L 230.206637 293.121106 
L 227.434263 293.108128 
L 227.392739 293.108687 
L 227.316183 293.108102 
L 226.008229 293.098109 
L 226.005698 293.098519 
L 225.982735 293.098519 
L 225.907624 293.098519 
L 225.600666 293.098519 
L 225.401407 293.098519 
L 225.36977 293.098519 
" clip-path="url(#pab1de45021)" style="fill: #33ff57"/>
    <path d="M 203.554142 82.426266 
L 203.934285 82.268373 
L 204.308946 82.051069 
L 205.15721 82.131897 
L 205.296254 82.347077 
L 204.924046 82.742835 
L 204.470874 82.742835 
L 203.903967 82.641074 
L 203.554142 82.426266 
" clip-path="url(#pab1de45021)" style="fill: #33ff57"/>
    <path d="M 161.295163 65.296316 
L 161.508053 64.834407 
L 162.056426 64.576093 
L 162.204513 64.374508 
L 162.188114 64.105617 
L 162.36826 63.888611 
L 163.300099 63.10138 
L 165.513286 61.876226 
L 167.54079 60.959819 
L 168.177219 60.596095 
L 169.581819 59.951709 
L 169.829615 59.875462 
L 169.933964 59.950777 
L 170.263436 59.911071 
L 170.789743 59.599009 
L 170.756577 59.496876 
L 170.825809 59.386287 
L 172.354583 58.567507 
L 172.872111 58.558046 
L 173.020356 58.623565 
L 173.624225 58.333479 
L 174.032315 58.05535 
L 174.038827 57.721796 
L 174.238509 57.508292 
L 174.760465 57.225954 
L 175.189145 56.885323 
L 175.78529 56.546406 
L 176.055074 56.563689 
L 176.342943 56.36866 
L 176.575106 56.195122 
L 176.554884 56.03004 
L 176.612964 55.94478 
L 177.068457 55.495572 
L 178.199187 54.91555 
L 179.138091 54.633472 
L 179.965396 54.167093 
L 180.552788 54.524672 
L 181.176695 54.417026 
L 181.41732 54.145676 
L 181.678904 53.97996 
L 182.266929 53.834992 
L 182.596454 53.86818 
L 183.245933 53.568 
L 183.360801 53.963013 
L 183.317802 54.322044 
L 183.120124 54.469806 
L 182.536713 54.598385 
L 182.267931 54.775722 
L 182.007559 54.986991 
L 181.582385 55.553008 
L 180.891593 56.148376 
L 179.440619 57.190569 
L 179.147582 57.538686 
L 179.138566 57.775955 
L 179.205161 57.881627 
L 179.256439 58.116474 
L 179.226806 58.291799 
L 179.101946 58.496103 
L 176.721558 60.255054 
L 175.443374 60.86264 
L 174.024933 61.384407 
L 173.508144 61.465905 
L 172.450839 61.97713 
L 171.900884 61.97307 
L 170.681254 62.420863 
L 170.184423 62.707485 
L 170.038261 62.991648 
L 169.007662 63.530399 
L 167.942262 64.088185 
L 167.895255 64.539255 
L 168.164723 64.720317 
L 168.775473 64.589875 
L 169.250053 64.759874 
L 170.667703 64.315098 
L 170.686474 64.380654 
L 170.352204 64.728586 
L 168.051304 65.617094 
L 167.423918 65.950759 
L 166.851105 66.054383 
L 166.536081 66.171788 
L 165.176247 66.801014 
L 164.750652 67.065064 
L 163.864713 67.236441 
L 163.009672 66.953804 
L 162.943472 66.885753 
L 162.955969 66.601552 
L 162.702742 66.259506 
L 161.840082 66.204566 
L 161.813217 66.127984 
L 161.840029 66.068425 
L 161.998952 65.969123 
L 161.517359 65.485758 
L 161.407632 65.50956 
L 161.295163 65.296316 
" clip-path="url(#pab1de45021)" style="fill: #33ff57"/>
    <path d="M 130.635462 114.091189 
L 132.473804 112.804614 
L 133.021676 112.539819 
L 133.57577 112.72617 
L 134.665003 112.138586 
L 135.394893 111.916254 
L 137.334842 111.132934 
L 139.004506 110.774722 
L 140.461781 110.285286 
L 140.910709 110.057405 
L 141.763799 109.355843 
L 142.03316 108.984669 
L 142.349899 108.719018 
L 142.790232 108.472922 
L 143.808809 107.60151 
L 144.497201 106.753602 
L 144.582512 106.663631 
L 145.649391 105.538468 
L 146.089566 105.227747 
L 147.178219 104.690784 
L 149.033882 104.245896 
L 150.270411 104.141007 
L 150.606553 104.221946 
L 151.090861 104.434854 
L 151.283767 104.652828 
L 151.695284 104.675102 
L 153.000861 104.192036 
L 153.900535 104.042337 
L 154.473823 103.820452 
L 154.86554 103.828423 
L 155.071918 103.94661 
L 155.591607 103.987173 
L 156.500984 103.906979 
L 157.078173 103.740444 
L 158.215046 103.241212 
L 161.454903 101.53005 
L 162.014586 101.171428 
L 162.710677 100.493705 
L 163.587731 99.212866 
L 164.263944 98.493128 
L 164.630326 98.20483 
L 164.903431 98.144451 
L 165.040024 98.325624 
L 165.221435 98.432749 
L 165.736458 98.476776 
L 166.359679 98.356689 
L 166.982214 97.9508 
L 167.260619 97.886697 
L 167.417116 98.110928 
L 168.065066 98.103702 
L 168.360871 98.032 
L 168.740383 97.851088 
L 169.093477 97.612702 
L 169.498535 97.179399 
L 169.781043 96.729763 
L 170.014032 96.358942 
L 170.285661 95.722378 
L 170.562036 94.719854 
L 170.946055 94.182965 
L 171.836318 93.673118 
L 172.026034 93.643245 
L 172.905066 92.662362 
L 173.564722 92.30754 
L 173.875581 92.324674 
L 174.236004 92.127373 
L 175.149863 91.007258 
L 175.941524 90.299662 
L 176.660341 89.766795 
L 177.083115 89.525169 
L 177.50589 89.481962 
L 177.94733 89.274566 
L 178.30981 89.030891 
L 178.966751 88.901753 
L 179.254515 88.766618 
L 180.877904 87.278218 
L 181.184815 86.996828 
L 181.792428 86.253474 
L 181.983541 85.724817 
L 182.279399 85.268532 
L 183.349491 84.103235 
L 184.119692 83.609963 
L 185.843271 82.898121 
L 186.38732 82.575481 
L 186.868518 82.196 
L 188.082162 81.913774 
L 188.391018 81.722917 
L 188.628875 81.481104 
L 188.667023 81.33554 
L 188.644746 81.214671 
L 189.593906 80.882458 
L 190.417757 80.791722 
L 190.705653 80.694878 
L 192.139834 80.461409 
L 192.373525 80.506442 
L 193.08699 80.430717 
L 193.115991 80.422411 
L 193.119919 80.237476 
L 193.32519 80.199259 
L 194.942811 80.071835 
L 196.252184 80.097275 
L 196.960139 80.160298 
L 197.075614 80.241238 
L 199.213162 80.348288 
L 199.629029 80.299754 
L 200.800781 80.76848 
L 201.484534 81.20074 
L 201.876357 81.546995 
L 202.020595 82.799116 
L 201.969185 82.977906 
L 201.735784 82.991613 
L 201.178368 82.813159 
L 200.942066 82.841355 
L 200.739669 82.917825 
L 200.582486 83.080262 
L 199.652493 83.322522 
L 199.255002 83.596591 
L 198.945382 83.545562 
L 198.742194 83.384726 
L 198.388124 83.221357 
L 198.1654 83.201876 
L 197.491929 83.19439 
L 195.926746 83.399811 
L 195.519552 83.504589 
L 195.308508 83.982478 
L 195.294403 84.197956 
L 195.374312 84.425242 
L 195.579188 84.638821 
L 195.774256 84.689031 
L 196.001251 85.01249 
L 196.015408 85.179286 
L 195.880688 85.417672 
L 195.801806 85.478944 
L 195.484541 85.472202 
L 195.215152 85.541222 
L 194.673924 85.9118 
L 193.952998 86.521099 
L 192.941381 86.820385 
L 192.803207 86.911419 
L 192.503025 87.247692 
L 191.834037 88.194418 
L 191.518142 88.277108 
L 191.290804 88.424498 
L 190.908868 89.006308 
L 190.088523 89.873287 
L 189.267044 90.135362 
L 188.986767 90.088579 
L 188.78872 90.12862 
L 188.388216 90.481922 
L 188.350391 90.515289 
L 188.141983 90.880541 
L 188.007157 91.419479 
L 187.989914 92.028145 
L 188.074016 92.299643 
L 188.146491 92.368552 
L 188.276308 92.356558 
L 188.266632 92.491916 
L 188.062811 92.73548 
L 187.858938 92.864171 
L 187.807712 92.854859 
L 187.775706 92.706687 
L 187.656593 92.57889 
L 187.454407 92.521752 
L 187.215944 92.583695 
L 186.960634 92.781071 
L 186.767148 93.098534 
L 186.753887 93.213443 
L 186.797994 93.259258 
L 186.81637 93.443783 
L 186.785418 93.662539 
L 186.540812 94.260068 
L 185.422263 94.930937 
L 185.246757 94.972729 
L 185.161258 95.084287 
L 185.075865 95.356717 
L 185.055802 95.767038 
L 184.921292 96.44897 
L 184.695352 97.213518 
L 184.528151 97.472427 
L 184.221273 97.760725 
L 183.723202 98.549223 
L 183.54796 98.749206 
L 182.684378 98.962748 
L 182.561284 99.911895 
L 182.501877 100.199869 
L 182.381112 100.785281 
L 181.841834 102.17384 
L 181.787102 103.495466 
L 181.633848 104.196953 
L 181.664668 104.402933 
L 181.908193 105.146808 
L 182.198013 105.873698 
L 181.677322 106.026004 
L 181.282546 106.692963 
L 181.298207 106.999214 
L 181.827703 107.26006 
L 182.391657 106.893095 
L 182.828695 105.873586 
L 182.949759 105.620749 
L 183.440395 104.942355 
L 184.225069 104.098619 
L 184.314971 103.686286 
L 183.735172 103.598344 
L 184.112626 102.879387 
L 184.562029 102.686556 
L 184.665218 103.243931 
L 185.173043 103.121498 
L 186.206911 102.0358 
L 186.972682 101.406909 
L 187.490763 101.076 
L 187.943065 100.550955 
L 189.978637 99.461719 
L 190.291131 99.230261 
L 190.599222 99.170814 
L 190.88427 99.336976 
L 190.429806 100.028816 
L 189.443578 100.946266 
L 188.798238 101.317514 
L 188.354345 101.716736 
L 187.989888 102.209784 
L 187.764317 102.727193 
L 186.930895 104.186337 
L 186.915235 104.522498 
L 187.329837 104.570399 
L 187.754905 103.756349 
L 188.008686 103.141798 
L 188.817035 102.246101 
L 189.768515 101.483341 
L 190.118736 101.469895 
L 191.04111 101.287418 
L 191.716347 101.013014 
L 192.228997 100.891921 
L 192.668697 100.962506 
L 193.212884 101.189353 
L 193.533018 101.322803 
L 194.274112 101.393872 
L 194.753544 101.432051 
L 195.547445 101.316806 
L 197.014897 101.293154 
L 197.695117 101.930389 
L 198.442355 102.253439 
L 198.573305 102.236379 
L 198.944143 102.037104 
L 199.217485 101.98343 
L 199.311553 102.100052 
L 199.839678 102.368274 
L 199.971719 102.385011 
L 200.122644 102.404143 
L 200.268464 102.52084 
L 200.28473 102.67486 
L 200.220428 102.75565 
L 200.271786 102.889705 
L 200.556913 103.094829 
L 200.823744 103.126973 
L 201.066874 102.941703 
L 201.215356 102.948408 
L 201.377337 103.511855 
L 201.328248 103.620022 
L 201.391706 104.002221 
L 201.465604 104.216731 
L 201.575385 104.348588 
L 201.93449 104.427628 
L 202.439283 104.366244 
L 202.673713 104.167043 
L 202.614868 103.920127 
L 202.635063 103.823916 
L 202.806324 103.795832 
L 202.967857 104.001886 
L 203.003817 104.350935 
L 202.973024 104.482904 
L 203.034453 104.618299 
L 203.291608 104.814148 
L 203.575048 104.916431 
L 203.82875 104.867189 
L 204.055138 104.927754 
L 204.192733 105.186626 
L 204.722466 105.810489 
L 205.056789 106.013787 
L 205.176482 107.129022 
L 205.387975 107.966427 
L 205.639541 108.34099 
L 206.954978 109.532286 
L 206.928681 109.888838 
L 206.925028 109.938361 
L 207.489721 111.059109 
L 207.757712 111.242964 
L 208.414046 111.501389 
L 208.451694 111.652913 
L 208.424644 111.851332 
L 208.515732 112.276589 
L 208.851611 112.607647 
L 209.082455 112.724866 
L 209.911474 112.766099 
L 210.119539 113.006497 
L 210.628735 113.086393 
L 210.689689 113.571024 
L 210.391116 113.851723 
L 210.394965 113.913964 
L 210.675004 114.553545 
L 210.848823 114.797183 
L 210.461613 114.967145 
L 210.364461 115.31705 
L 210.488241 115.641515 
L 210.697598 115.908954 
L 211.082039 116.281022 
L 211.49585 116.525144 
L 212.558745 116.850392 
L 213.930284 116.990518 
L 215.415321 116.894716 
L 216.136089 116.644374 
L 217.391679 116.776008 
L 217.676994 116.733226 
L 217.915823 116.697415 
L 218.147801 116.418616 
L 218.714128 115.981699 
L 219.53819 115.809726 
L 219.963443 115.599537 
L 220.299744 115.30338 
L 220.521518 115.334184 
L 221.359 115.56296 
L 221.686548 115.936629 
L 221.731156 116.193751 
L 222.149343 117.127887 
L 222.169432 117.333048 
L 222.08222 117.435256 
L 222.146786 117.593596 
L 222.656984 117.87288 
L 223.289274 117.814327 
L 223.675455 118.098862 
L 223.810386 118.379077 
L 223.811889 118.731516 
L 224.043049 118.889223 
L 224.703206 119.007149 
L 225.037055 119.004467 
L 225.601827 118.866427 
L 225.735202 118.427984 
L 225.791885 118.020195 
L 225.93056 117.794548 
L 226.343211 117.382588 
L 226.854385 117.332564 
L 227.338403 117.331186 
L 227.713511 117.475633 
L 227.840929 117.60492 
L 227.847968 117.742848 
L 228.381999 118.605097 
L 228.575591 118.811077 
L 228.70981 118.839162 
L 229.018982 118.230496 
L 228.955603 117.925548 
L 229.017506 117.608831 
L 229.087344 116.624596 
L 228.766177 116.43534 
L 228.60989 116.122049 
L 228.414902 114.917344 
L 228.775562 114.503447 
L 229.235959 114.279476 
L 229.299707 114.427648 
L 229.42723 114.448954 
L 229.808139 114.375799 
L 229.903418 114.297504 
L 230.575307 115.29742 
L 230.53033 115.877219 
L 230.450631 116.222841 
L 230.386804 116.384571 
L 230.213908 116.536728 
L 230.096852 116.849572 
L 230.074047 117.082855 
L 230.330358 117.361394 
L 230.573699 117.389628 
L 230.753977 117.153737 
L 230.820994 116.945932 
L 230.976226 116.802789 
L 231.049518 116.814671 
L 231.1144 117.352715 
L 231.058851 117.661573 
L 231.661824 117.919142 
L 232.41154 117.021098 
L 233.275544 116.352612 
L 234.063962 115.626542 
L 234.355312 115.213427 
L 234.409279 114.962228 
L 234.742785 114.637688 
L 234.989975 114.618841 
L 235.399673 114.760047 
L 235.590101 114.729392 
L 236.822833 114.199207 
L 237.89108 113.646413 
L 242.15853 110.816589 
L 242.853039 110.240477 
L 243.46959 110.1116 
L 243.955559 110.695608 
L 244.159512 110.778 
L 244.483342 110.793979 
L 245.158896 110.675382 
L 246.140958 110.309311 
L 247.246273 110.084 
L 248.337061 109.965067 
L 249.118044 109.672151 
L 250.334457 109.441923 
L 250.686648 109.469171 
L 251.306 109.517089 
L 252.522281 109.808105 
L 253.690659 109.946481 
L 254.644802 109.954377 
L 255.848639 109.833397 
L 257.013405 109.890833 
L 257.994887 110.048577 
L 259.176737 110.062135 
L 260.046936 110.005407 
L 260.769682 109.832354 
L 263.730132 108.591184 
L 265.838179 107.4406 
L 266.707825 107.115204 
L 267.208395 107.028685 
L 268.91761 106.733265 
L 271.804109 106.948483 
L 272.523058 106.852421 
L 273.236101 106.52505 
L 273.756608 106.406639 
L 274.411624 106.390176 
L 274.692217 106.445414 
L 274.756255 106.515216 
L 273.808229 107.409349 
L 273.278917 108.047925 
L 272.948232 108.63927 
L 272.75435 109.198434 
L 272.686726 109.67081 
L 272.733839 110.030028 
L 272.543675 111.89629 
L 272.502758 112.791204 
L 272.544413 113.515599 
L 272.649052 113.994009 
L 272.699487 114.526056 
L 272.758015 114.550752 
L 272.807659 114.824858 
L 272.765687 114.949973 
L 272.279243 115.149025 
L 272.083621 115.33031 
L 271.99981 115.565232 
L 272.031183 116.003638 
L 272.165535 116.40543 
L 272.589496 117.012308 
L 272.804838 117.185212 
L 273.078681 117.308725 
L 274.28476 117.436187 
L 274.657996 117.287978 
L 274.869911 117.022402 
L 275.136821 116.953382 
L 275.208346 117.286265 
L 275.537924 117.671891 
L 275.715803 117.763036 
L 276.289512 117.841592 
L 276.773372 117.790376 
L 277.132503 117.673083 
L 277.440462 118.033828 
L 277.594956 118.465306 
L 277.975021 118.636273 
L 278.749862 118.556265 
L 279.56583 118.284207 
L 280.773648 117.735063 
L 281.661222 117.151875 
L 281.957792 117.011414 
L 282.604846 117.214191 
L 283.207529 117.116676 
L 283.590625 117.600822 
L 283.81588 118.16412 
L 284.239578 118.589602 
L 284.048227 118.780012 
L 283.913955 119.094309 
L 283.99687 119.367335 
L 284.123866 119.713739 
L 284.465386 119.774788 
L 285.304107 119.587916 
L 286.563704 118.818079 
L 286.835729 118.77625 
L 287.201874 119.064548 
L 287.403954 119.000631 
L 287.647849 118.752896 
L 287.834243 118.270276 
L 287.841387 117.939218 
L 287.628735 117.766016 
L 288.107849 116.962172 
L 288.763656 116.512927 
L 289.437232 116.581277 
L 289.956209 116.230142 
L 289.984472 116.214163 
L 290.785123 116.265751 
L 290.939801 116.345312 
L 291.265688 116.55226 
L 292.118698 116.821115 
L 292.572213 116.820444 
L 292.847006 116.761891 
L 292.876666 116.737233 
L 293.135877 116.522462 
L 293.88206 115.289598 
L 294.73631 115.066112 
L 295.166071 115.550333 
L 295.466621 115.576406 
L 295.809381 115.498186 
L 295.980774 115.393929 
L 296.167959 115.352957 
L 296.444808 115.431177 
L 296.592447 115.773857 
L 296.734813 115.896774 
L 296.911453 116.399619 
L 296.547602 117.665149 
L 295.990107 119.587991 
L 296.181668 121.312525 
L 296.703256 122.623907 
L 297.042693 123.184523 
L 296.689889 123.443395 
L 296.797085 125.186144 
L 297.266287 125.622427 
L 296.994131 126.191349 
L 296.728222 126.462141 
L 296.547655 126.50248 
L 296.293821 126.53023 
L 295.99596 126.796365 
L 295.964323 126.826573 
L 295.909749 126.840578 
L 295.870071 126.840578 
L 295.845262 126.826573 
L 295.83535 126.798525 
L 295.830393 126.74947 
L 295.823301 126.689091 
L 295.639122 126.489518 
L 295.026236 126.406939 
L 294.057039 126.535742 
L 293.697881 126.832048 
L 293.274816 127.486715 
L 293.378453 128.004086 
L 293.313756 128.476425 
L 293.215233 128.625491 
L 294.017308 129.103231 
L 294.658799 128.98821 
L 295.169498 128.323598 
L 295.318666 128.407852 
L 296.547707 128.464543 
L 296.813484 128.691568 
L 296.857828 128.887268 
L 297.204068 129.56108 
L 297.317644 129.674202 
L 297.489248 129.722661 
L 298.251856 129.733612 
L 299.144201 130.273332 
L 299.025563 130.588523 
L 298.823614 130.497862 
L 298.475503 130.714271 
L 298.226916 130.949975 
L 298.020801 131.303978 
L 297.935091 131.57544 
L 297.952413 131.733705 
L 298.096993 131.920056 
L 298.480459 132.227313 
L 299.109269 133.136344 
L 299.683453 133.516197 
L 300.119937 133.954343 
L 300.797968 134.140209 
L 301.12483 134.095177 
L 301.321955 134.004925 
L 301.451692 134.088323 
L 301.545074 134.41763 
L 301.658308 134.511271 
L 302.253925 134.749657 
L 302.466104 135.217228 
L 303.188163 135.421793 
L 303.317717 135.360371 
L 303.919714 134.220441 
L 304.321846 134.345407 
L 304.636738 135.0866 
L 305.273352 135.33333 
L 305.737861 135.020411 
L 306.032058 134.492945 
L 306.033218 133.987419 
L 305.807752 133.259746 
L 305.207442 133.065425 
L 304.786539 132.44037 
L 304.48293 131.316642 
L 304.69938 131.134463 
L 304.789439 131.131893 
L 305.304673 131.378734 
L 305.644005 131.693701 
L 305.859532 131.787417 
L 306.276875 131.744209 
L 307.010482 131.788981 
L 307.138744 131.682713 
L 307.231255 131.413747 
L 307.651235 131.326773 
L 308.776982 131.44254 
L 309.46722 131.304909 
L 309.715728 131.369757 
L 309.984932 131.602034 
L 310.42603 131.821461 
L 310.882049 131.839042 
L 311.019802 132.066253 
L 311.110758 132.386249 
L 311.112498 132.573493 
L 311.302926 132.871364 
L 311.600629 132.983703 
L 311.781408 133.39395 
L 311.88254 133.791458 
L 311.949004 134.385523 
L 312.158124 134.754983 
L 313.161884 135.194023 
L 313.33304 135.193948 
L 313.536281 135.319809 
L 313.712736 135.603115 
L 313.73185 135.757172 
L 313.506595 136.224594 
L 313.320886 136.341291 
L 312.74578 137.809449 
L 312.571276 138.022134 
L 312.331231 138.207553 
L 311.395543 138.433796 
L 310.836255 138.308756 
L 309.540143 137.699084 
L 308.869283 137.208308 
L 308.077437 137.583542 
L 307.240694 137.632373 
L 306.883381 137.49966 
L 306.625224 137.486213 
L 306.006854 137.589799 
L 305.937754 137.707204 
L 305.482815 137.658559 
L 305.089199 137.501857 
L 305.028773 137.286565 
L 304.901829 137.199741 
L 304.515253 137.26336 
L 304.389865 137.365754 
L 304.180561 137.343145 
L 304.039144 136.937777 
L 303.892348 136.920829 
L 303.406669 136.686764 
L 303.017614 136.43605 
L 302.979676 136.361964 
L 302.194474 136.457765 
L 301.919787 136.738539 
L 301.104451 136.462049 
L 300.235543 136.401149 
L 299.936838 136.612418 
L 299.380714 136.702371 
L 297.7328 136.263742 
L 297.460722 136.396567 
L 297.065815 136.184553 
L 297.017463 136.027628 
L 296.912797 135.971235 
L 296.830808 135.984392 
L 296.131313 136.096648 
L 295.302584 136.440668 
L 295.149409 136.325089 
L 293.564557 136.38394 
L 293.122221 136.813295 
L 291.143095 136.806628 
L 290.530103 137.349849 
L 289.91959 137.71119 
L 288.541802 136.727513 
L 288.306002 136.15468 
L 288.160867 136.00148 
L 287.633849 136.334401 
L 287.177539 136.005168 
L 287.108307 135.838372 
L 287.124653 135.719216 
L 287.083341 135.614587 
L 286.471904 135.505861 
L 286.289412 135.652133 
L 286.290783 136.246235 
L 286.001279 136.347325 
L 285.807767 136.31492 
L 285.754248 136.191481 
L 285.748289 135.99146 
L 285.859124 135.497816 
L 285.780506 134.963869 
L 285.580956 134.450557 
L 285.491055 134.325442 
L 284.977324 133.967901 
L 284.524125 134.020718 
L 284.378833 134.186732 
L 283.786405 134.192915 
L 282.770175 133.325563 
L 282.534005 133.215682 
L 282.266594 133.296435 
L 282.026022 133.463194 
L 281.723178 133.877724 
L 281.580469 134.170529 
L 281.581392 134.545092 
L 281.750939 135.953766 
L 281.801057 136.015038 
L 281.777699 136.165705 
L 281.712896 136.247427 
L 281.284848 136.260799 
L 280.781531 136.39571 
L 280.593292 136.622214 
L 280.364715 137.196053 
L 280.350979 137.34415 
L 280.517838 137.678598 
L 280.889202 137.879289 
L 281.030013 138.143115 
L 281.039583 138.303988 
L 280.492502 138.64 
L 280.828011 139.873572 
L 280.980791 140.170585 
L 281.357745 140.648921 
L 281.328428 140.746808 
L 281.220652 140.814078 
L 280.839611 140.834601 
L 280.788781 140.889951 
L 280.71048 141.246636 
L 280.150217 141.300571 
L 278.943321 140.440371 
L 277.924797 139.943225 
L 277.738245 139.59034 
L 277.760602 139.309417 
L 277.638826 138.968972 
L 277.357442 138.897568 
L 276.821249 138.536116 
L 276.647747 138.311437 
L 276.039316 138.019936 
L 275.655165 137.759314 
L 275.137111 136.817728 
L 274.176878 135.693404 
L 273.384874 134.948597 
L 273.110872 134.775619 
L 272.014363 134.314715 
L 271.1381 134.119909 
L 270.766867 133.966821 
L 270.040958 133.460698 
L 269.766719 133.3294 
L 269.471652 133.287533 
L 268.453918 133.403113 
L 268.272191 133.505321 
L 267.613405 132.916396 
L 266.456707 132.726805 
L 265.89494 132.484807 
L 265.141692 131.950972 
L 264.623717 131.727969 
L 264.088446 131.746928 
L 263.814049 131.944639 
L 263.424599 132.12097 
L 263.096682 131.621068 
L 262.616012 131.398624 
L 262.224452 131.378995 
L 261.828569 131.608851 
L 261.819052 131.677834 
L 261.874469 131.728044 
L 261.69522 132.004757 
L 260.809043 131.587024 
L 260.295023 131.566128 
L 259.96294 131.648557 
L 259.728985 131.777807 
L 259.220475 132.212712 
L 257.561461 134.045972 
L 257.194368 134.861885 
L 256.380456 135.784251 
L 256.219503 136.157064 
L 255.974844 136.405618 
L 255.098581 136.660952 
L 254.385616 136.465364 
L 253.874891 136.474154 
L 253.154624 136.244112 
L 252.635225 136.0115 
L 252.113137 135.918641 
L 251.92553 135.94248 
L 251.707736 136.059996 
L 251.528882 136.378465 
L 251.270488 136.471398 
L 250.776082 136.362634 
L 250.664167 136.359269 
L 250.214922 136.345761 
L 249.931403 136.396679 
L 249.512108 136.701328 
L 249.152581 137.10312 
L 249.06094 137.482824 
L 249.066107 137.705901 
L 249.297557 137.866885 
L 249.48142 138.07808 
L 249.389014 138.177644 
L 249.209422 138.119723 
L 248.3267 137.537354 
L 247.145456 137.003259 
L 245.772203 136.584706 
L 245.215631 136.468939 
L 244.617535 136.417128 
L 243.85788 136.489984 
L 243.273995 136.764724 
L 243.156437 136.871923 
L 242.91278 136.899077 
L 241.931957 136.548203 
L 241.625158 136.555913 
L 241.301117 136.708443 
L 241.076653 137.092579 
L 240.956617 137.195681 
L 240.577106 137.231178 
L 240.398885 137.089971 
L 239.78621 137.335174 
L 238.78506 138.333786 
L 238.567529 138.675236 
L 238.346256 140.696561 
L 237.911011 141.354096 
L 237.754724 142.427018 
L 237.844468 142.696058 
L 237.524144 142.996834 
L 237.363059 143.026744 
L 236.680467 143.008642 
L 236.526316 142.797372 
L 236.148914 142.857676 
L 235.915407 143.008381 
L 235.820628 143.163332 
L 235.80684 143.277422 
L 235.85332 143.40682 
L 235.824029 143.53458 
L 235.728407 143.827497 
L 235.524349 144.091471 
L 235.105871 144.233721 
L 234.991658 144.189313 
L 234.828916 144.126037 
L 234.485893 144.212638 
L 234.301925 144.615212 
L 234.032404 144.516617 
L 233.822414 144.33131 
L 233.549441 144.40182 
L 233.451604 144.574985 
L 233.321998 144.991787 
L 233.270087 145.576614 
L 233.056168 145.947155 
L 232.951292 146.039828 
L 232.841301 146.049177 
L 232.071549 145.739946 
L 231.799761 145.907263 
L 231.670287 146.167923 
L 231.698655 147.021455 
L 231.625969 147.600695 
L 231.465544 147.631648 
L 230.999084 147.478634 
L 230.758538 147.576782 
L 230.634574 147.698918 
L 230.560596 147.867501 
L 230.849705 149.309437 
L 230.851788 149.822897 
L 230.667845 149.582053 
L 230.421236 149.396298 
L 230.020106 149.480367 
L 229.553778 149.268166 
L 228.997996 148.800185 
L 228.956763 148.587277 
L 228.785317 148.281622 
L 228.448832 148.243368 
L 228.190728 147.539237 
L 228.181158 147.196036 
L 228.244695 146.94912 
L 228.524075 146.690174 
L 228.948063 146.80337 
L 229.288634 146.654379 
L 229.565642 146.268678 
L 229.570018 146.014909 
L 229.4711 145.946745 
L 229.412651 145.58656 
L 229.642493 145.272412 
L 230.049634 145.136309 
L 230.423503 144.576251 
L 230.376997 143.984682 
L 230.479395 143.296232 
L 230.840108 143.239652 
L 230.977175 143.395422 
L 231.358822 143.543333 
L 231.735037 143.436916 
L 231.906984 143.054754 
L 231.796202 142.931837 
L 231.778064 142.82028 
L 231.907274 142.571614 
L 232.05718 142.423405 
L 232.262293 142.460019 
L 232.425144 142.322091 
L 232.469119 142.123672 
L 232.376924 141.794998 
L 232.478637 141.445874 
L 232.622664 141.284107 
L 232.73131 141.267122 
L 232.909821 141.133477 
L 233.163523 140.650746 
L 233.189465 140.504325 
L 233.1539 139.833865 
L 233.06384 139.547393 
L 232.840405 139.265465 
L 232.520239 139.032964 
L 232.148215 138.883079 
L 231.737331 138.946996 
L 231.476854 139.456322 
L 231.210339 139.772332 
L 230.940292 139.79632 
L 230.61865 140.082643 
L 230.422712 140.389081 
L 230.440903 141.013316 
L 230.084461 141.364227 
L 228.104122 140.934276 
L 227.908843 140.810316 
L 227.541169 140.215841 
L 227.352086 140.10123 
L 227.119792 140.120673 
L 226.496782 140.38435 
L 226.441497 140.591224 
L 226.492063 141.510909 
L 226.62478 141.613973 
L 226.693669 141.818352 
L 226.728812 142.202414 
L 226.400764 142.830709 
L 225.985424 143.370429 
L 225.456903 143.730652 
L 225.398375 143.912049 
L 225.474172 144.087486 
L 225.449231 144.222025 
L 225.005154 144.793145 
L 224.921844 145.269171 
L 225.002834 145.52037 
L 224.168516 145.975538 
L 223.996833 145.908343 
L 223.510732 145.924248 
L 223.280125 145.995689 
L 222.8327 146.430668 
L 222.223742 146.506468 
L 221.693376 147.365848 
L 221.624566 147.282413 
L 221.613229 146.912841 
L 221.548637 146.653149 
L 221.243235 146.483002 
L 221.157842 146.134772 
L 221.215184 145.611031 
L 221.340624 145.279712 
L 221.404716 144.372282 
L 221.243446 143.886944 
L 221.235985 142.91623 
L 221.05634 142.230871 
L 220.617589 141.445055 
L 220.253185 141.178063 
L 219.922764 141.239447 
L 219.701121 141.35093 
L 219.379452 141.811536 
L 219.237192 142.161516 
L 219.20015 142.570235 
L 219.219053 143.403021 
L 219.064876 143.873907 
L 219.056255 144.160045 
L 219.106241 144.366099 
L 219.286993 144.431693 
L 219.356647 144.563997 
L 219.23706 144.979719 
L 219.124301 145.128747 
L 218.894379 145.65178 
L 219.181985 146.034762 
L 218.234934 146.312556 
L 218.130902 146.402882 
L 218.12236 146.528891 
L 217.808284 146.876264 
L 217.339689 147.032518 
L 216.210541 147.774568 
L 215.561694 148.72487 
L 214.855268 150.100691 
L 214.566186 150.492575 
L 213.804897 151.862734 
L 213.785309 151.918025 
L 213.13952 153.74099 
L 212.68089 154.712896 
L 212.322839 155.107126 
L 211.9684 155.767194 
L 211.939347 155.949447 
L 211.965948 156.151255 
L 212.052475 156.336004 
L 212.161201 156.406663 
L 212.110714 156.582957 
L 211.889176 156.953461 
L 211.501624 157.237177 
L 211.273311 157.531956 
L 211.145287 157.952744 
L 210.403612 158.679224 
L 210.206593 159.413229 
L 209.370561 160.640133 
L 209.223634 161.0455 
L 209.180107 161.496012 
L 208.486916 162.242979 
L 207.244245 164.071807 
L 206.278581 165.288356 
L 205.89754 165.568497 
L 205.311361 166.226888 
L 204.912077 166.955157 
L 204.688404 167.496069 
L 204.616193 167.829175 
L 204.667497 168.173196 
L 204.929899 168.587763 
L 205.189585 168.833785 
L 205.19122 168.876322 
L 205.147139 168.897739 
L 204.540317 168.697533 
L 204.363361 168.610559 
L 204.204359 168.575956 
L 204.173012 168.549473 
L 204.15345 168.501609 
L 204.101671 168.468086 
L 203.981055 168.479484 
L 203.662551 168.462723 
L 203.548631 168.378356 
L 203.42675 168.418025 
L 203.352483 168.420111 
L 203.31929 168.391542 
L 203.317049 168.231861 
L 203.296169 168.203698 
L 203.163979 168.025397 
L 203.061212 167.952391 
L 203.023063 167.906762 
L 202.871153 167.579355 
L 202.863191 167.537637 
L 202.928759 167.430177 
L 202.934243 167.394047 
L 202.721063 167.055986 
L 202.601818 166.933143 
L 202.49768 166.855966 
L 202.427024 166.818085 
L 202.28036 166.793278 
L 202.20459 166.755359 
L 202.101796 166.663246 
L 202.082208 166.613892 
L 201.998159 166.50431 
L 201.82355 166.421992 
L 201.687089 166.27356 
L 201.64807 166.18748 
L 201.564575 166.107621 
L 201.482899 166.058566 
L 201.370351 166.035286 
L 201.344804 166.008989 
L 201.334127 165.96634 
L 201.368374 165.807925 
L 201.194502 165.084983 
L 201.196427 165.042148 
L 201.255483 164.895951 
L 201.338609 164.801826 
L 201.559513 164.678796 
L 201.605967 164.625346 
L 201.606573 164.504328 
L 201.577546 164.37437 
L 201.586088 164.269332 
L 201.704173 164.106932 
L 201.733675 163.975149 
L 201.718357 163.915664 
L 201.63966 163.858563 
L 201.632146 163.800382 
L 201.659802 163.737173 
L 201.81514 163.547321 
L 201.847119 163.532049 
L 201.943427 163.538717 
L 201.975433 163.521955 
L 201.997711 163.486533 
L 201.993994 163.290647 
L 202.055554 162.939586 
L 202.091567 162.801993 
L 202.055765 162.727572 
L 202.216164 162.478012 
L 202.328818 162.3894 
L 202.33736 162.290619 
L 202.310046 162.119763 
L 202.342843 161.939 
L 202.468864 161.709442 
L 202.550698 161.612784 
L 202.624148 161.388813 
L 202.626257 161.32281 
L 202.848058 161.032799 
L 202.947108 160.955845 
L 203.155516 160.64099 
L 203.21299 160.612867 
L 203.254566 160.570331 
L 203.311671 160.453782 
L 203.297724 160.265756 
L 203.308955 160.222027 
L 203.355699 160.164814 
L 203.462605 160.101381 
L 203.664264 159.78295 
L 203.681981 159.565572 
L 203.674731 159.361119 
L 203.655037 159.304428 
L 203.597431 159.246508 
L 203.520791 159.231385 
L 203.440011 159.067011 
L 203.461762 158.914705 
L 203.440222 158.743775 
L 203.421108 158.689505 
L 202.994959 158.384296 
L 202.971495 158.342616 
L 202.96762 158.20912 
L 202.955308 158.179136 
L 202.748376 158.086165 
L 202.667491 157.946076 
L 202.552886 157.904694 
L 202.455998 157.90205 
L 202.302005 157.975279 
L 202.182312 158.067094 
L 202.118248 158.127994 
L 202.077067 158.225174 
L 201.798609 158.365076 
L 201.415855 158.850415 
L 201.300064 159.029092 
L 201.285538 159.080941 
L 200.953983 159.200358 
L 200.935581 159.232689 
L 200.940168 159.322605 
L 200.87025 159.408759 
L 200.658705 159.447534 
L 200.472996 159.343464 
L 200.414679 159.342905 
L 200.348321 159.342309 
L 200.10643 159.398218 
L 199.977483 159.290684 
L 199.915343 159.259693 
L 199.648011 159.253585 
L 199.394599 159.340707 
L 199.053132 159.289268 
L 199.039264 159.327 
L 199.004965 159.361417 
L 198.950575 159.367935 
L 198.875253 159.313293 
L 198.800458 159.304204 
L 198.729512 159.351472 
L 198.69052 159.520167 
L 198.654691 159.570451 
L 198.385066 159.735273 
L 198.338533 159.74425 
L 198.307292 159.710317 
L 198.303152 159.673479 
L 198.344702 159.587213 
L 198.331019 159.481392 
L 198.268642 159.40671 
L 198.11486 159.373895 
L 198.055435 159.343575 
L 197.986414 159.275486 
L 197.949926 159.210415 
L 197.939354 159.165643 
L 197.928782 159.082059 
L 197.892874 159.010394 
L 197.852722 158.995495 
L 197.775607 158.585434 
L 197.767592 158.510529 
L 197.664693 158.380348 
L 197.671759 158.293896 
L 197.72069 158.219996 
L 197.790898 158.154478 
L 197.955094 158.075661 
L 198.093742 157.964104 
L 198.161973 157.782372 
L 198.088865 157.659343 
L 198.084383 157.626975 
L 198.101309 157.564063 
L 198.316493 157.453884 
L 198.359914 157.381363 
L 198.350792 157.171062 
L 198.327987 157.090346 
L 198.29432 157.037529 
L 198.17816 156.92586 
L 198.067009 156.650115 
L 198.07505 156.423648 
L 198.026988 156.293728 
L 198.033659 156.241544 
L 198.202362 155.984311 
L 198.409821 155.880092 
L 198.478737 155.722385 
L 198.710926 155.630532 
L 198.789122 155.529255 
L 198.804571 155.476214 
L 198.937077 155.362385 
L 199.105095 155.292396 
L 199.318144 155.135807 
L 199.318275 155.063509 
L 199.357874 154.993073 
L 199.508044 154.801322 
L 199.505408 154.755097 
L 199.465466 154.656354 
L 199.478569 154.579586 
L 199.687663 154.354051 
L 199.703428 154.301271 
L 199.717612 154.118608 
L 199.754918 153.999005 
L 199.833008 153.861449 
L 199.850883 153.802039 
L 199.839124 153.613528 
L 199.692039 153.566633 
L 199.600477 153.270662 
L 199.549436 152.881684 
L 199.535806 152.63704 
L 199.540867 152.520492 
L 199.571555 152.422046 
L 199.57087 152.375263 
L 199.471504 152.179675 
L 199.29808 151.989972 
L 199.164836 151.860201 
L 198.942745 151.729089 
L 198.808789 151.61187 
L 198.791073 151.58602 
L 198.774648 151.471744 
L 198.824792 151.266658 
L 198.886563 151.239057 
L 199.29787 151.373186 
L 199.499318 151.459303 
L 199.725205 151.486829 
L 199.861349 151.452152 
L 199.900843 151.413377 
L 199.955575 151.344431 
L 199.968018 151.270159 
L 199.995279 151.010728 
L 199.988899 150.769735 
L 200.00912 150.715577 
L 200.038648 150.673487 
L 200.154439 150.609346 
L 200.261372 150.50442 
L 200.286708 150.15809 
L 200.248928 149.733204 
L 200.165248 149.532253 
L 199.870735 149.451909 
L 199.768864 149.374062 
L 199.760981 149.253826 
L 199.739785 149.196501 
L 199.542107 148.998343 
L 199.391488 148.633352 
L 199.204752 148.439888 
L 199.085032 148.377944 
L 199.024817 148.320248 
L 199.009684 148.094042 
L 199.061964 147.98729 
L 199.069029 147.915215 
L 199.036153 147.847983 
L 199.030986 147.769651 
L 199.049546 147.739406 
L 199.573506 147.59928 
L 199.689165 147.463475 
L 199.782705 147.419001 
L 200.144737 147.346517 
L 200.160977 147.322157 
L 200.168096 147.265391 
L 200.166224 147.083212 
L 200.128839 146.982494 
L 199.983811 146.828773 
L 199.61068 146.579883 
L 199.528608 146.507846 
L 199.42099 146.361797 
L 199.418195 146.338704 
L 199.52642 146.218803 
L 199.526288 146.165986 
L 199.505566 146.096444 
L 199.392807 145.970212 
L 199.334964 145.930245 
L 198.831304 145.794849 
L 198.67573 145.721061 
L 198.425958 145.526029 
L 198.197564 145.34769 
L 197.964506 144.967911 
L 197.976264 144.762267 
L 197.997988 144.74625 
L 197.969225 144.649145 
L 197.864559 144.508348 
L 197.726728 144.472516 
L 197.661503 144.344049 
L 197.556073 144.308477 
L 197.491507 144.310861 
L 197.237252 144.337828 
L 197.128447 144.403757 
L 197.066993 144.395637 
L 197.023703 144.358612 
L 196.989588 144.244783 
L 196.952467 144.193419 
L 196.901057 144.147567 
L 196.868998 144.14008 
L 196.818959 144.143209 
L 196.788324 144.179823 
L 196.443851 144.228543 
L 196.32226 144.131662 
L 196.255849 144.102832 
L 196.112033 144.187384 
L 195.860835 144.212415 
L 195.588073 144.175465 
L 195.46105 144.214464 
L 195.35098 144.182691 
L 195.317419 144.136467 
L 195.336638 144.086815 
L 195.258231 143.966617 
L 195.11373 143.881022 
L 194.99815 143.855097 
L 194.745212 143.758961 
L 194.82528 143.568997 
L 194.867542 143.554657 
L 194.89177 143.484035 
L 194.845712 143.261777 
L 194.705324 142.88442 
L 194.655522 142.819162 
L 194.612917 142.79808 
L 194.496151 142.796516 
L 194.345427 142.846577 
L 194.201743 142.91731 
L 193.923734 142.907514 
L 193.765233 142.995456 
L 193.669584 143.029128 
L 193.566869 143.027526 
L 193.502435 143.005811 
L 193.340006 143.012888 
L 193.327035 143.027415 
L 193.309345 143.131112 
L 193.209029 143.232948 
L 193.108398 143.27649 
L 193.052506 143.33523 
L 192.851559 143.344637 
L 192.486812 143.361713 
L 192.373868 143.311615 
L 192.321509 143.213169 
L 192.28452 143.187058 
L 192.05183 143.196482 
L 191.907961 143.160687 
L 191.76114 142.992029 
L 191.665412 142.948263 
L 191.583578 142.71688 
L 191.605539 142.669724 
L 191.609836 142.622606 
L 191.553127 142.527103 
L 191.500399 142.492984 
L 191.328558 142.474546 
L 190.974303 142.280522 
L 190.911741 142.205133 
L 190.799009 141.917692 
L 190.826506 141.818426 
L 190.864128 141.765013 
L 191.017883 141.614346 
L 191.146039 141.525249 
L 191.204673 141.397489 
L 191.37488 141.215124 
L 191.441871 141.166516 
L 191.511393 141.155491 
L 191.576433 141.096639 
L 191.79515 140.758802 
L 192.045635 140.545819 
L 192.082703 140.48626 
L 192.146873 140.300617 
L 192.210015 140.207461 
L 192.235034 140.202134 
L 192.343312 140.249141 
L 192.406269 140.211632 
L 192.459314 139.946428 
L 192.437959 139.810809 
L 192.231343 139.627438 
L 192.173764 139.602482 
L 191.860664 139.645094 
L 191.745269 139.601775 
L 191.703192 139.516142 
L 191.607411 139.028606 
L 191.593332 139.010057 
L 191.589246 138.871495 
L 191.601347 138.738297 
L 191.630374 138.646667 
L 191.699 138.508739 
L 191.772845 138.441246 
L 191.873504 138.384145 
L 191.872054 138.336468 
L 191.843396 138.258322 
L 191.674349 138.087131 
L 191.627474 138.077745 
L 191.346433 138.074393 
L 191.306893 138.09332 
L 191.263096 138.114285 
L 191.174591 138.128812 
L 191.055479 138.100913 
L 191.023525 138.066831 
L 191.027849 138.037033 
L 191.062333 137.983955 
L 191.027902 137.927562 
L 190.670062 137.761623 
L 190.540166 137.648464 
L 190.527221 137.628053 
L 190.528988 137.586335 
L 190.203338 137.446656 
L 190.08731 137.447438 
L 190.064795 137.473623 
L 189.902999 137.431533 
L 189.836245 137.373986 
L 189.759683 137.22939 
L 189.694406 137.146923 
L 189.38381 136.957071 
L 189.325757 136.937256 
L 189.211732 136.915987 
L 189.177169 136.924517 
L 189.05882 137.045423 
L 189.06578 137.219109 
L 188.861907 137.252372 
L 188.820436 137.243023 
L 188.718486 137.151952 
L 188.530194 137.094702 
L 188.487853 137.08729 
L 188.376728 137.125431 
L 188.240901 137.135972 
L 188.06869 137.077233 
L 187.993658 137.025794 
L 187.94267 136.95953 
L 187.908397 136.884848 
L 187.886594 136.793591 
L 187.903519 136.71429 
L 187.893765 136.555727 
L 187.819682 136.530398 
L 187.792896 136.533788 
L 187.792896 136.549618 
L 187.669433 136.535054 
L 187.626222 136.564815 
L 187.550082 136.685684 
L 187.311566 136.760478 
L 186.917555 136.849686 
L 186.679065 136.997783 
L 186.603058 136.992643 
L 186.558133 136.899002 
L 186.452756 136.80957 
L 186.227211 136.69034 
L 186.032802 136.630744 
L 185.936916 136.668215 
L 185.731223 136.515834 
L 185.683663 136.445175 
L 185.565262 136.338759 
L 184.364245 135.487796 
L 184.23108 135.540502 
L 184.25523 135.61969 
L 184.135827 135.822244 
L 183.965488 135.907318 
L 183.866939 135.911527 
L 183.766703 135.877408 
L 183.581733 135.933503 
L 183.549753 135.953952 
L 183.450308 136.09013 
L 183.395866 136.096089 
L 183.305121 136.042415 
L 183.234254 135.976003 
L 183.253289 135.915549 
L 183.223893 135.849993 
L 183.153026 135.769091 
L 182.943827 135.690759 
L 182.898006 135.619243 
L 182.794263 135.532419 
L 182.706076 135.523889 
L 182.556512 135.557971 
L 182.515015 135.542662 
L 182.411246 135.421793 
L 182.421607 135.319622 
L 182.40861 135.269375 
L 182.295323 135.19961 
L 182.113833 135.151411 
L 181.97376 135.139529 
L 181.872522 135.222741 
L 181.860474 135.303643 
L 181.889896 135.376015 
L 181.838064 135.444142 
L 181.759446 135.48247 
L 181.554571 135.514056 
L 181.403241 135.46906 
L 181.273477 135.357615 
L 181.25526 135.312508 
L 181.287186 135.240955 
L 181.28716 135.213727 
L 181.237938 135.162288 
L 181.201872 135.159904 
L 181.048618 134.678365 
L 181.041789 134.538723 
L 181.015874 134.495292 
L 180.954498 134.462924 
L 180.820437 134.434727 
L 180.595551 134.449924 
L 180.502169 134.401353 
L 180.350813 134.386827 
L 180.313613 134.397889 
L 180.321391 134.434504 
L 180.285905 134.502593 
L 180.176889 134.625994 
L 180.122394 134.664285 
L 179.867243 134.696579 
L 179.755696 134.619066 
L 179.478926 134.591838 
L 179.318949 134.662497 
L 179.280932 134.73744 
L 179.078587 134.917123 
L 178.858974 134.987819 
L 178.839069 134.968264 
L 178.75684 134.745225 
L 178.745556 134.638808 
L 178.730845 134.613293 
L 178.619246 134.520509 
L 178.531005 134.521403 
L 178.464436 134.57422 
L 178.372873 134.767536 
L 178.266679 135.052817 
L 178.264121 135.221251 
L 178.224575 135.526049 
L 178.195232 135.595032 
L 178.136466 135.635074 
L 177.937628 135.600322 
L 177.67114 135.623937 
L 177.650392 135.640102 
L 177.63046 135.73121 
L 177.580316 135.737133 
L 177.046179 135.575961 
L 176.952534 135.593393 
L 176.910615 135.596708 
L 176.889656 135.583523 
L 176.860523 135.55555 
L 176.872176 135.499604 
L 176.891976 135.460121 
L 176.883697 135.428647 
L 176.790342 135.361377 
L 176.690079 135.213205 
L 176.698727 135.178528 
L 176.720451 135.178528 
L 176.685044 134.986814 
L 176.60205 134.783329 
L 176.482726 134.672666 
L 176.37275 134.649142 
L 176.152384 134.602007 
L 175.966411 134.510079 
L 175.808991 134.50073 
L 175.660272 134.569676 
L 175.588535 134.705071 
L 175.44754 134.682127 
L 175.370504 134.48382 
L 175.375619 134.356991 
L 175.278704 134.264244 
L 175.123841 134.188557 
L 174.878154 134.159764 
L 174.708686 134.216008 
L 174.556987 134.298475 
L 174.508029 134.340341 
L 174.448393 134.425527 
L 174.38715 134.44903 
L 174.349554 134.438862 
L 174.251401 134.359598 
L 174.21341 134.354272 
L 174.188417 134.351925 
L 174.163424 134.361349 
L 174.150084 134.370773 
L 174.131761 134.387236 
L 174.121558 134.410702 
L 174.094666 134.470411 
L 173.923959 134.583532 
L 173.825673 134.60197 
L 173.767962 134.560178 
L 173.72085 134.397181 
L 173.717792 134.320823 
L 173.727599 134.269682 
L 173.856809 134.101397 
L 173.859604 134.012151 
L 173.84397 133.989877 
L 173.70714 133.958589 
L 173.512442 133.982874 
L 173.396809 133.921229 
L 173.278487 134.058152 
L 173.395227 134.176712 
L 173.407143 134.250798 
L 173.38948 134.297693 
L 173.249723 134.292776 
L 172.981152 134.372039 
L 172.884106 134.345556 
L 172.889432 134.321941 
L 172.861433 134.285811 
L 172.753261 134.198763 
L 172.464522 134.073647 
L 172.366843 134.047201 
L 172.294552 134.052938 
L 172.22619 134.018074 
L 172.138688 133.945887 
L 172.041246 133.792762 
L 172.018441 133.729552 
L 171.970828 133.67681 
L 169.796257 132.432524 
L 169.51873 132.273723 
L 169.375863 132.189469 
L 168.265697 131.552793 
L 168.263643 131.551607 
L 165.60759 130.017924 
L 164.724235 129.793469 
L 163.758755 129.522119 
L 163.623507 129.482935 
L 162.895305 129.293939 
L 162.716688 129.238664 
L 162.663802 129.216538 
L 162.601372 129.202086 
L 162.271847 129.105987 
L 162.224181 129.093658 
L 160.73395 128.694064 
L 160.723563 128.691494 
L 154.954044 127.120197 
L 153.950153 126.828994 
L 151.192073 126.095772 
L 150.422215 125.872546 
L 147.867824 125.19147 
L 144.079568 124.150209 
L 144.03438 124.136614 
L 143.800056 124.086739 
L 143.526933 124.011912 
L 138.482655 122.629941 
L 138.462645 122.616346 
L 138.459165 122.582301 
L 138.466969 122.562746 
L 138.509573 122.52386 
L 138.527422 122.428766 
L 138.506831 122.35699 
L 138.490327 122.323988 
L 138.47936 122.273555 
L 138.502692 122.19593 
L 138.562354 122.159316 
L 138.581468 122.115922 
L 138.578752 121.94827 
L 138.526472 121.796001 
L 138.503694 121.776856 
L 138.501954 121.777117 
L 138.469895 121.778159 
L 138.435253 121.762553 
L 138.422123 121.720835 
L 138.422862 121.670104 
L 138.418485 121.633526 
L 138.323733 121.51113 
L 138.204593 121.425088 
L 138.129851 121.327163 
L 138.108971 121.210988 
L 138.109155 121.209796 
L 138.172587 120.976252 
L 138.127346 120.943884 
L 138.093416 120.940457 
L 137.98382 120.836573 
L 137.853344 120.640799 
L 137.788568 120.381927 
L 137.748204 120.305457 
L 137.62722 120.229658 
L 137.49764 119.93175 
L 137.468086 119.764955 
L 137.487358 119.514799 
L 137.477814 119.433934 
L 137.350766 118.98886 
L 137.268932 118.878197 
L 137.258834 118.813572 
L 137.25857 118.793459 
L 137.057228 118.800722 
L 136.970121 118.767497 
L 136.934477 118.300335 
L 136.904843 118.164158 
L 136.672154 118.07819 
L 136.630314 118.03651 
L 136.563217 117.925884 
L 136.597201 117.833956 
L 136.665194 117.78207 
L 136.6861 117.741209 
L 136.67653 117.707165 
L 136.560581 117.577841 
L 136.340889 117.444233 
L 136.280726 117.365975 
L 136.076563 116.912446 
L 135.995098 116.620796 
L 135.994491 116.555017 
L 135.948934 116.487524 
L 135.845112 116.426289 
L 135.797156 116.427145 
L 135.628848 116.494452 
L 135.586955 116.48853 
L 135.568606 116.428114 
L 135.571216 116.379617 
L 135.611263 116.255359 
L 135.585927 116.191553 
L 135.553657 116.18645 
L 135.429851 116.287801 
L 135.24235 116.357678 
L 135.172538 116.373061 
L 135.115829 116.353506 
L 134.879448 116.377382 
L 134.840166 116.423309 
L 134.791287 116.447929 
L 134.725007 116.449606 
L 134.665662 116.410421 
L 134.668984 116.363489 
L 134.668984 116.321287 
L 134.632469 116.279048 
L 134.581007 116.286088 
L 134.536188 116.279048 
L 134.5229 116.246233 
L 134.526222 116.196954 
L 134.529544 116.152406 
L 134.529808 116.117616 
L 134.416468 115.978831 
L 134.48897 115.817176 
L 134.472413 115.766109 
L 134.352931 115.640957 
L 134.320635 115.664795 
L 134.305766 115.723498 
L 134.187048 115.850252 
L 134.126832 115.851071 
L 133.938408 115.771883 
L 133.899996 115.812706 
L 133.897359 115.850997 
L 133.795251 115.889287 
L 133.656523 115.90374 
L 133.577115 115.864555 
L 133.546585 115.867982 
L 133.418324 115.915622 
L 133.385158 115.949666 
L 133.383708 115.949666 
L 133.302269 115.907949 
L 133.281336 115.747113 
L 133.369471 115.667142 
L 133.436647 115.484218 
L 133.477696 115.180388 
L 133.463723 115.086784 
L 133.211445 114.828955 
L 133.098844 114.85447 
L 133.046458 114.834058 
L 133.010656 114.763436 
L 133.023732 114.680895 
L 132.909339 114.568556 
L 132.776622 114.538832 
L 132.581079 114.612918 
L 132.497347 114.799306 
L 132.44599 115.134648 
L 132.428616 115.162323 
L 132.390151 115.172119 
L 132.338635 115.154277 
L 132.281821 115.051324 
L 132.246888 115.041119 
L 132.229435 115.053038 
L 132.125982 115.009719 
L 131.905473 115.042683 
L 131.786914 115.092483 
L 131.450323 115.299171 
L 131.289713 115.338207 
L 131.238251 115.288816 
L 131.230447 115.200316 
L 131.146767 114.961148 
L 131.11252 114.899838 
L 131.102291 114.899838 
L 131.060372 114.899838 
L 130.966147 114.780645 
L 130.90862 114.606996 
L 130.732271 114.418001 
L 130.728791 114.418001 
L 130.701794 114.200139 
L 130.635462 114.091189 
" clip-path="url(#pab1de45021)" style="fill: #33ff57"/>
   </g>
   <g id="text_1">
    <!-- MI -->
    <g transform="translate(229.213125 35.472) scale(0.12 -0.12)">
     <defs>
      <path id="DejaVuSans-4d" d="M 628 4666 
L 1569 4666 
L 2759 1491 
L 3956 4666 
L 4897 4666 
L 4897 0 
L 4281 0 
L 4281 4097 
L 3078 897 
L 2444 897 
L 1241 4097 
L 1241 0 
L 628 0 
L 628 4666 
z
" transform="scale(0.015625)"/>
      <path id="DejaVuSans-49" d="M 628 4666 
L 1259 4666 
L 1259 0 
L 628 0 
L 628 4666 
z
" transform="scale(0.015625)"/>
     </defs>
     <use xlink:href="#DejaVuSans-4d"/>
     <use xlink:href="#DejaVuSans-49" x="86.279297"/>
    </g>
   </g>
  </g>
 </g>
 <defs>
  <clipPath id="pab1de45021">
   <rect x="120.083008" y="41.472" width="232.153984" height="266.112"/>
  </clipPath>
 </defs>
</svg>
