<?xml version="1.0" encoding="utf-8" standalone="no"?>
<!DOCTYPE svg PUBLIC "-//W3C//DTD SVG 1.1//EN"
  "http://www.w3.org/Graphics/SVG/1.1/DTD/svg11.dtd">
<svg xmlns:xlink="http://www.w3.org/1999/xlink" width="360pt" height="360pt" viewBox="0 0 360 360" xmlns="http://www.w3.org/2000/svg" version="1.1">
 <metadata>
  <rdf:RDF xmlns:dc="http://purl.org/dc/elements/1.1/" xmlns:cc="http://creativecommons.org/ns#" xmlns:rdf="http://www.w3.org/1999/02/22-rdf-syntax-ns#">
   <cc:Work>
    <dc:type rdf:resource="http://purl.org/dc/dcmitype/StillImage"/>
    <dc:date>2023-06-19T15:20:28.134590</dc:date>
    <dc:format>image/svg+xml</dc:format>
    <dc:creator>
     <cc:Agent>
      <dc:title>Matplotlib v3.7.1, https://matplotlib.org/</dc:title>
     </cc:Agent>
    </dc:creator>
   </cc:Work>
  </rdf:RDF>
 </metadata>
 <defs>
  <style type="text/css">*{stroke-linejoin: round; stroke-linecap: butt}</style>
 </defs>
 <g id="figure_1">
  <g id="patch_1">
   <path d="M 0 360 
L 360 360 
L 360 0 
L 0 0 
z
" style="fill: #ffffff"/>
  </g>
  <g id="axes_1">
   <g id="PatchCollection_1">
    <path d="M 260.728266 145.116189 
L 261.424682 145.212508 
L 261.552717 145.518006 
L 261.857866 145.7429 
L 261.875673 146.258304 
L 261.167724 145.918651 
L 260.634164 145.561413 
L 260.728266 145.116189 
" clip-path="url(#p60a32e3fdb)" style="fill: #c0fd00"/>
    <path d="M 242.572409 149.495307 
L 242.817549 149.256599 
L 243.16677 149.39113 
L 243.233434 149.623406 
L 243.053975 149.983812 
L 242.78973 149.743266 
L 242.572409 149.495307 
" clip-path="url(#p60a32e3fdb)" style="fill: #c0fd00"/>
    <path d="M 240.760999 149.012917 
L 240.983041 148.806083 
L 241.472275 149.183219 
L 241.685952 149.418536 
L 241.408812 149.64625 
L 240.983041 149.879096 
L 240.750987 149.645838 
L 240.760999 149.012917 
" clip-path="url(#p60a32e3fdb)" style="fill: #c0fd00"/>
    <path d="M 240.397488 152.672458 
L 240.538799 151.981809 
L 240.699501 151.955068 
L 241.091337 152.047205 
L 241.310655 152.207146 
L 241.764212 152.710891 
L 241.93144 153.027446 
L 242.363928 153.846321 
L 242.710678 154.027015 
L 243.975918 154.415114 
L 244.734878 154.342969 
L 245.415769 154.494324 
L 247.331989 155.083996 
L 247.514109 155.037674 
L 247.687009 154.895095 
L 247.736785 154.66922 
L 247.676775 154.484565 
L 247.748223 154.449839 
L 248.015161 154.751788 
L 248.259192 155.158073 
L 249.7543 155.554092 
L 249.745048 155.630134 
L 249.303721 156.051691 
L 249.240131 156.381395 
L 248.541687 156.713539 
L 248.500244 156.78882 
L 248.549735 156.956809 
L 248.175419 157.121757 
L 247.761942 157.144094 
L 247.409489 156.998505 
L 246.74368 156.946385 
L 246.168836 156.810334 
L 245.695317 156.859001 
L 245.164166 156.651502 
L 244.955558 156.417515 
L 244.897734 156.110433 
L 244.398425 155.798915 
L 243.61133 154.98492 
L 243.241893 154.783599 
L 242.595919 154.580188 
L 242.417791 154.451328 
L 242.334588 154.244843 
L 242.117711 153.946633 
L 241.648882 153.604445 
L 241.267944 153.1878 
L 241.097611 153.078965 
L 240.766164 152.996269 
L 240.415009 152.787598 
L 240.397488 152.672458 
" clip-path="url(#p60a32e3fdb)" style="fill: #c0fd00"/>
    <path d="M 216.858509 155.343837 
L 217.40132 154.258214 
L 217.913968 154.10743 
L 218.215537 154.801025 
L 217.974295 155.404163 
L 217.40132 155.645406 
L 216.858509 155.343837 
" clip-path="url(#p60a32e3fdb)" style="fill: #c0fd00"/>
    <path d="M 212.73375 153.719617 
L 213.604967 153.959211 
L 215.086039 154.768898 
L 215.086039 155.409708 
L 214.693948 155.745179 
L 213.278241 155.353152 
L 212.494187 154.72153 
L 212.73375 153.719617 
" clip-path="url(#p60a32e3fdb)" style="fill: #c0fd00"/>
    <path d="M 209.388927 161.058533 
L 209.711027 160.222676 
L 210.065793 159.986281 
L 210.196712 159.756635 
L 210.183088 159.492295 
L 210.045452 159.160626 
L 210.185306 158.404486 
L 210.313278 158.184979 
L 210.632431 157.89377 
L 210.855645 157.806798 
L 211.217319 157.469267 
L 211.444716 156.858715 
L 211.456058 156.391597 
L 211.381474 156.234539 
L 211.360785 156.005273 
L 211.403241 155.92394 
L 211.9381 156.017599 
L 212.122184 156.203045 
L 212.379776 156.235331 
L 212.708751 156.233177 
L 213.314044 156.098425 
L 213.468218 156.10793 
L 213.58263 156.366757 
L 213.389293 156.476859 
L 213.228972 156.489945 
L 213.011619 156.698299 
L 213.163164 156.741643 
L 213.547112 156.999012 
L 213.693587 157.661621 
L 213.69796 157.880305 
L 213.419647 158.117238 
L 213.314963 158.429326 
L 213.389008 158.767585 
L 213.494073 158.963203 
L 213.817218 159.348988 
L 213.919431 160.328374 
L 213.782524 160.694198 
L 213.214461 161.112111 
L 212.936845 161.225001 
L 212.656219 161.266888 
L 212.54919 161.340933 
L 212.429076 161.691201 
L 212.205228 161.791101 
L 211.555546 161.88083 
L 209.76809 161.550238 
L 209.619428 161.443115 
L 209.388927 161.058533 
" clip-path="url(#p60a32e3fdb)" style="fill: #c0fd00"/>
    <path d="M 207.114233 156.687305 
L 207.524858 156.335326 
L 208.69663 156.465199 
L 208.776252 157.117479 
L 208.052778 157.938698 
L 207.270657 157.919149 
L 207.114233 156.687305 
" clip-path="url(#p60a32e3fdb)" style="fill: #c0fd00"/>
    <path d="M 204.226167 164.739905 
L 204.552988 164.435104 
L 204.783363 164.480793 
L 204.982941 164.79231 
L 204.993745 165.18665 
L 204.903857 165.418102 
L 204.421689 165.049553 
L 204.226167 164.739905 
" clip-path="url(#p60a32e3fdb)" style="fill: #c0fd00"/>
    <path d="M 201.373048 165.959646 
L 202.157134 166.068545 
L 202.897654 166.438805 
L 203.180783 167.201123 
L 202.941219 168.028743 
L 201.677976 166.656601 
L 201.373048 165.959646 
" clip-path="url(#p60a32e3fdb)" style="fill: #c0fd00"/>
    <path d="M 195.606358 175.566667 
L 195.784518 175.185666 
L 196.067139 174.991538 
L 196.258606 174.954658 
L 196.615242 174.991474 
L 197.477936 175.076039 
L 197.881971 175.169381 
L 198.0018 175.224384 
L 198.401305 175.626962 
L 198.412996 176.186407 
L 198.286291 176.429107 
L 198.170264 177.252038 
L 198.211327 177.451204 
L 198.392465 177.698149 
L 198.39877 178.025541 
L 197.749975 178.238806 
L 197.252124 177.990245 
L 197.03664 177.740226 
L 196.489932 177.267785 
L 196.005324 176.991024 
L 195.807964 176.817871 
L 195.752738 176.696172 
L 195.606358 175.566667 
" clip-path="url(#p60a32e3fdb)" style="fill: #c0fd00"/>
    <path d="M 192.701785 179.677073 
L 192.769335 179.437319 
L 193.178472 178.735549 
L 193.290918 178.647245 
L 193.930525 178.474884 
L 194.714452 178.696229 
L 195.160025 179.035153 
L 194.705422 179.007747 
L 194.589997 179.056287 
L 194.487942 179.179474 
L 194.437913 179.288119 
L 194.459458 179.437351 
L 194.702729 179.762524 
L 194.000515 180.039602 
L 193.431596 180.109909 
L 192.760876 179.935013 
L 192.701785 179.677073 
" clip-path="url(#p60a32e3fdb)" style="fill: #c0fd00"/>
    <path d="M 175.728504 160.457803 
L 176.207662 160.566702 
L 176.572789 160.802748 
L 177.260745 161.460509 
L 177.826179 161.837486 
L 178.014636 162.195579 
L 177.958112 162.384068 
L 177.486906 162.836421 
L 177.109961 162.798717 
L 176.714164 161.818634 
L 175.750303 161.132991 
L 175.096882 160.653833 
L 175.728504 160.457803 
" clip-path="url(#p60a32e3fdb)" style="fill: #c0fd00"/>
    <path d="M 172.742059 163.707448 
L 173.276949 163.653902 
L 173.664129 164.038198 
L 173.88823 164.671499 
L 173.467973 164.992966 
L 172.863853 164.587631 
L 172.627426 164.109075 
L 172.742059 163.707448 
" clip-path="url(#p60a32e3fdb)" style="fill: #c0fd00"/>
    <path d="M 171.532425 282.659633 
L 173.040618 281.883373 
L 174.947682 280.786819 
L 176.141601 279.98065 
L 178.039888 278.427053 
L 178.148025 278.304254 
L 178.722458 277.651935 
L 179.219961 276.893101 
L 179.241488 276.844829 
L 179.773639 275.651514 
L 180.03665 275.06173 
L 180.805299 273.882956 
L 181.543693 272.750579 
L 181.78241 272.38449 
L 182.137272 271.73183 
L 182.292492 271.316769 
L 182.893254 270.804533 
L 183.815711 269.884199 
L 184.861341 268.840976 
L 184.923543 268.772435 
L 185.462293 268.178779 
L 186.105443 267.359612 
L 186.379895 267.010049 
L 187.470302 265.21746 
L 188.250839 263.713607 
L 188.65386 262.561701 
L 188.637353 262.33196 
L 188.893709 261.967498 
L 188.988277 261.778566 
L 189.378633 260.998695 
L 189.754501 259.847993 
L 190.041812 257.953666 
L 190.211702 257.162895 
L 190.439764 256.578672 
L 190.517992 256.218488 
L 190.409094 254.858354 
L 190.485516 254.62931 
L 190.821937 254.011756 
L 191.033208 253.217929 
L 191.055322 253.134836 
L 191.112987 252.268784 
L 191.080111 251.302225 
L 191.066253 250.894804 
L 191.047985 250.744285 
L 190.985332 250.228077 
L 190.955169 248.662757 
L 190.989324 247.842393 
L 190.881567 247.068447 
L 190.840526 246.365894 
L 190.815949 245.945183 
L 190.496067 243.750206 
L 190.43556 243.490506 
L 190.293225 242.879591 
L 189.926641 241.804899 
L 189.743127 241.55751 
L 189.728932 241.256385 
L 189.598109 240.736259 
L 189.048396 239.628707 
L 188.770838 239.069487 
L 188.565269 238.727294 
L 187.801927 237.456619 
L 187.645958 237.196991 
L 187.215769 236.541563 
L 185.12736 233.359702 
L 184.744553 232.655967 
L 184.193738 231.480025 
L 183.879832 230.809863 
L 183.448327 229.691067 
L 183.02211 228.41374 
L 182.814519 227.791608 
L 182.480917 227.051088 
L 181.18412 225.106225 
L 180.889395 224.575707 
L 180.604555 223.814053 
L 180.527911 223.317976 
L 180.531999 222.955669 
L 180.60503 222.505691 
L 180.899787 221.900716 
L 181.497349 221.243715 
L 182.399236 220.403771 
L 183.042422 219.720979 
L 183.563023 218.932711 
L 183.808004 218.369685 
L 184.009135 217.52559 
L 184.008454 217.416875 
L 184.004224 216.741568 
L 183.918138 216.269855 
L 183.552504 215.188859 
L 183.474561 214.290203 
L 182.992298 212.614528 
L 182.989643 212.610557 
L 182.541444 211.940245 
L 182.407099 211.739324 
L 182.352438 211.657574 
L 181.76923 211.000669 
L 181.544621 210.657118 
L 181.35721 210.176629 
L 181.358477 209.853484 
L 181.546617 209.544184 
L 181.809944 209.299393 
L 183.507259 208.337369 
L 184.046268 207.899749 
L 184.309082 207.608894 
L 184.323916 207.592477 
L 184.972267 206.725348 
L 185.060048 206.586215 
L 185.408962 206.033188 
L 185.62442 205.691687 
L 186.169861 205.101064 
L 186.525008 204.425686 
L 186.773569 203.786334 
L 187.296547 203.360215 
L 187.653372 202.690002 
L 188.152745 201.929996 
L 189.152504 200.753662 
L 189.684289 198.990126 
L 189.806051 198.357649 
L 189.798542 197.920029 
L 189.686919 197.385392 
L 189.69446 196.947803 
L 189.779722 196.391399 
L 189.943497 196.203671 
L 190.10198 195.799604 
L 190.268016 195.273787 
L 190.575816 194.299015 
L 190.673751 193.738239 
L 190.523157 192.855901 
L 190.321076 192.395944 
L 189.620161 191.161121 
L 189.459237 190.667673 
L 189.529988 189.935296 
L 189.587019 189.771616 
L 189.793663 189.54631 
L 190.300354 189.324395 
L 192.210302 188.862663 
L 192.588387 188.622942 
L 193.828597 188.629817 
L 194.302052 188.53109 
L 194.840554 188.201322 
L 195.197095 187.670994 
L 195.33736 187.304441 
L 195.350652 187.040761 
L 195.393124 186.198224 
L 195.576258 185.665773 
L 195.574199 185.243424 
L 195.413212 184.274906 
L 195.370248 183.661249 
L 195.417078 183.309936 
L 195.551576 182.999147 
L 195.801342 182.830366 
L 196.451816 182.681958 
L 196.677977 182.946425 
L 196.98471 183.091379 
L 197.369925 183.19657 
L 197.902851 183.178447 
L 198.293072 182.984857 
L 198.527375 182.710949 
L 198.706549 182.245098 
L 198.882902 182.052364 
L 199.16432 181.887892 
L 199.500868 181.458287 
L 199.612079 181.133779 
L 199.833519 180.999787 
L 200.332512 181.015027 
L 200.909954 181.214415 
L 201.102688 181.34847 
L 201.470508 181.807192 
L 201.789947 181.94261 
L 202.282571 181.970619 
L 202.857763 181.903797 
L 203.513592 181.733495 
L 203.768585 181.600961 
L 204.622914 180.710068 
L 204.691384 180.547117 
L 204.757001 179.992678 
L 204.909465 179.529868 
L 205.208943 179.267746 
L 205.700014 178.387721 
L 205.877699 178.250022 
L 206.783039 177.931692 
L 207.307315 177.588269 
L 207.770505 177.073973 
L 207.942391 176.666928 
L 207.968055 176.328669 
L 208.564888 175.391708 
L 209.749396 174.0932 
L 209.92255 174.161225 
L 209.969759 174.272753 
L 210.119339 174.355987 
L 210.559716 174.354403 
L 210.783976 174.295661 
L 211.459861 173.910224 
L 211.550002 173.657449 
L 211.890194 173.333701 
L 212.225253 173.351856 
L 212.66132 174.012564 
L 212.51155 174.394959 
L 212.339474 174.517322 
L 211.855119 174.708472 
L 211.554089 174.974999 
L 211.540655 175.037923 
L 211.509034 175.088491 
L 211.48375 175.12008 
L 211.452161 175.132722 
L 211.401594 175.139059 
L 211.338352 175.139059 
L 211.284838 175.09524 
L 211.167131 175.084372 
L 210.643045 175.157657 
L 210.346261 175.280877 
L 209.886271 175.969181 
L 210.046371 176.414406 
L 210.872311 177.751664 
L 211.184241 177.844244 
L 211.415123 178.135136 
L 211.413095 178.628393 
L 211.285408 178.703009 
L 211.164502 178.637011 
L 210.980069 178.263646 
L 210.655085 178.35873 
L 210.429273 178.72617 
L 210.350982 179.321767 
L 210.050902 179.595708 
L 209.646772 179.867367 
L 209.394852 179.932193 
L 209.210355 180.22508 
L 208.777361 180.832305 
L 209.025859 181.018766 
L 209.278128 181.061413 
L 209.681022 180.826982 
L 210.131221 180.30673 
L 210.203682 180.296559 
L 210.265308 180.826032 
L 210.27551 182.331944 
L 209.661822 182.44664 
L 209.532107 182.510515 
L 209.077599 183.488032 
L 208.899725 183.697464 
L 208.789591 184.00274 
L 208.681136 184.792243 
L 208.710286 185.3457 
L 209.020251 186.004982 
L 209.167645 186.662047 
L 209.047848 187.122004 
L 209.065759 187.138187 
L 209.196256 187.256091 
L 209.453372 187.377156 
L 209.998528 187.45155 
L 210.363529 187.427502 
L 210.543652 187.336759 
L 210.625587 186.857347 
L 210.919235 186.101049 
L 212.054349 184.319137 
L 212.464974 184.028721 
L 212.537277 183.503621 
L 211.812979 183.466835 
L 211.6224 183.555899 
L 211.464455 183.329897 
L 212.25041 182.647644 
L 212.445267 182.363026 
L 212.868186 181.267232 
L 212.808144 181.065088 
L 212.873604 180.834777 
L 213.742824 180.332964 
L 214.294 180.294342 
L 214.444246 180.620941 
L 214.619079 181.244578 
L 214.565026 181.314854 
L 214.387342 181.297522 
L 213.960177 181.480181 
L 213.784457 182.305266 
L 213.746309 182.918828 
L 213.8688 183.125186 
L 213.571509 184.273924 
L 213.439228 184.579643 
L 213.235341 184.830898 
L 212.903323 184.911153 
L 212.243408 185.26516 
L 211.737413 185.769253 
L 211.599999 186.028555 
L 211.591856 186.674689 
L 211.08244 187.60845 
L 211.249257 187.764177 
L 211.787094 187.971676 
L 212.295338 188.032604 
L 212.646049 187.987803 
L 213.357071 187.358969 
L 213.383685 187.2047 
L 213.342211 186.930854 
L 213.215253 186.748988 
L 213.521321 186.226074 
L 214.306927 185.873715 
L 214.683334 185.553453 
L 214.761625 185.217602 
L 215.338109 184.452435 
L 215.859193 183.7608 
L 215.94794 183.337089 
L 216.481183 182.806254 
L 216.809842 182.196494 
L 217.364757 180.055634 
L 217.258045 179.427656 
L 217.28957 178.54329 
L 217.386935 178.24565 
L 217.740973 177.823935 
L 217.725258 176.305793 
L 217.545831 176.011036 
L 217.40715 175.483813 
L 217.295749 174.279977 
L 217.097343 174.006829 
L 217.073709 173.427784 
L 217.038189 172.557505 
L 217.576818 171.429742 
L 218.087407 171.051434 
L 218.735726 170.694893 
L 219.086627 170.399344 
L 219.602919 170.089316 
L 220.008412 169.985772 
L 220.175703 170.06042 
L 220.675646 170.016347 
L 221.017612 169.887583 
L 221.269374 169.692156 
L 221.359895 169.527779 
L 221.88471 169.258116 
L 222.707102 168.701649 
L 223.118013 168.584291 
L 223.568972 168.578493 
L 224.798947 168.276068 
L 226.309196 168.382785 
L 227.61395 168.474981 
L 227.98478 168.556884 
L 228.310746 168.564964 
L 228.645931 168.392286 
L 230.645671 168.098511 
L 232.016609 167.555383 
L 232.121578 167.247635 
L 232.108303 167.027494 
L 232.006629 166.778363 
L 231.821562 166.642913 
L 229.953881 166.406297 
L 229.665937 166.462187 
L 229.642364 166.536772 
L 229.509607 166.595831 
L 228.053376 166.174401 
L 227.146039 165.460306 
L 226.549967 164.899846 
L 225.888847 163.483632 
L 225.691551 162.920289 
L 225.55664 161.981807 
L 225.591492 161.786982 
L 225.804663 161.44942 
L 226.387143 160.996591 
L 226.830625 160.459166 
L 226.952355 160.249893 
L 226.976942 160.073919 
L 227.402205 159.748746 
L 228.86433 159.366668 
L 229.127783 159.214711 
L 229.313832 159.060568 
L 229.466485 158.792521 
L 230.270817 158.265013 
L 231.132434 157.505989 
L 231.234773 157.140292 
L 231.18411 156.93029 
L 230.907984 156.663098 
L 229.910316 156.185714 
L 229.258068 156.12298 
L 228.988151 155.995546 
L 228.890691 155.92055 
L 229.115616 155.830599 
L 229.505488 155.935568 
L 231.304922 155.934396 
L 231.737346 156.02929 
L 232.189351 156.247498 
L 233.565136 156.182356 
L 234.388763 156.414125 
L 235.476763 156.369133 
L 235.701212 156.338748 
L 236.041404 156.17548 
L 236.277387 155.896755 
L 236.327226 155.625223 
L 235.930003 155.344914 
L 235.904149 155.282623 
L 236.310972 155.068407 
L 236.550124 155.002599 
L 237.221636 155.2107 
L 237.524884 155.166311 
L 237.776297 155.037325 
L 237.829281 155.046074 
L 238.025746 155.078514 
L 238.256659 155.373366 
L 238.348796 155.735357 
L 239.426973 156.051469 
L 239.503681 156.276489 
L 240.603878 156.564972 
L 241.874726 157.145488 
L 242.859498 157.503106 
L 243.434089 157.760159 
L 243.503319 157.877453 
L 243.956813 158.136724 
L 245.251046 158.772458 
L 245.970164 159.125692 
L 246.406561 159.340053 
L 247.019078 159.265057 
L 247.022813 159.260027 
L 247.238743 158.969286 
L 247.489681 158.807856 
L 247.9286 158.800695 
L 248.351868 158.993398 
L 249.108483 159.2399 
L 250.593389 158.960605 
L 251.856062 159.311791 
L 252.472222 159.581295 
L 254.213895 159.898865 
L 254.564013 160.14128 
L 254.823021 160.320611 
L 255.315043 160.853442 
L 256.056229 161.466022 
L 256.615737 161.833272 
L 256.95143 162.195421 
L 257.025412 162.375006 
L 257.011503 162.82454 
L 257.159214 163.415131 
L 257.337342 163.755354 
L 257.573357 164.004993 
L 257.9958 164.254442 
L 258.633062 164.468658 
L 259.255781 164.506298 
L 259.768429 164.367395 
L 259.884773 164.287805 
L 260.121548 164.256755 
L 260.730864 164.325065 
L 261.086739 164.448982 
L 261.730971 164.354563 
L 262.958919 164.384632 
L 263.902756 164.619252 
L 264.779105 165.185668 
L 265.515855 165.852364 
L 266.055023 166.219202 
L 267.161462 166.730203 
L 267.726864 166.817144 
L 268.221326 166.78904 
L 268.779029 166.987636 
L 269.357199 166.990519 
L 269.848492 166.915713 
L 270.62472 167.456402 
L 271.555662 167.822796 
L 272.320642 168.23358 
L 273.731121 168.840298 
L 274.647171 169.01022 
L 275.283799 168.89508 
L 275.393711 168.83789 
L 275.427613 168.65539 
L 275.662804 168.662677 
L 276.234638 169.008921 
L 276.410199 169.033603 
L 276.980924 168.68267 
L 277.230531 168.735392 
L 277.58007 169.178367 
L 278.597825 170.169413 
L 278.998059 170.388794 
L 279.248363 170.60678 
L 279.335526 170.79793 
L 280.010333 171.152887 
L 280.416427 171.237039 
L 280.516866 171.323252 
L 280.623356 171.488389 
L 280.424032 171.932188 
L 279.646663 172.222699 
L 279.651701 172.441382 
L 279.85752 172.813607 
L 280.43818 173.448875 
L 280.543449 173.564044 
L 280.626398 173.567688 
L 281.030401 174.239041 
L 281.057333 174.54606 
L 281.195729 174.736449 
L 281.31559 174.845728 
L 281.6708 174.893381 
L 282.014952 175.349504 
L 282.702623 175.513058 
L 282.70877 175.575348 
L 282.601329 175.648475 
L 282.628989 175.925838 
L 282.963636 176.871195 
L 283.267962 177.143995 
L 283.503945 177.819689 
L 283.487501 178.027537 
L 283.83837 178.554601 
L 283.940868 178.592464 
L 284.117443 178.803258 
L 284.29386 179.160337 
L 284.116112 179.268918 
L 283.594339 179.17244 
L 283.145091 178.986994 
L 281.937801 178.69455 
L 281.388019 178.407239 
L 281.075583 178.037961 
L 280.068505 177.781447 
L 278.974042 178.185355 
L 278.712522 178.393203 
L 278.354143 178.891434 
L 278.328638 179.000776 
L 278.576597 179.483166 
L 278.928068 179.634362 
L 279.054646 179.757455 
L 278.909913 180.010484 
L 278.810869 180.010516 
L 278.460285 180.320766 
L 278.659736 181.523873 
L 278.813784 181.885198 
L 278.998312 182.137182 
L 279.242945 182.332007 
L 279.89928 182.584846 
L 280.080418 182.975954 
L 280.236272 183.082444 
L 281.539913 183.617651 
L 282.563688 183.79486 
L 282.544991 184.494341 
L 282.540305 184.669626 
L 282.756137 185.009976 
L 283.192775 185.40251 
L 283.355315 186.556887 
L 283.309278 187.662724 
L 283.267581 187.776407 
L 283.298854 188.054371 
L 283.509077 188.58885 
L 283.716196 188.826449 
L 284.056325 189.075644 
L 283.947236 189.853392 
L 283.547827 191.006249 
L 282.975549 191.739798 
L 282.753349 192.408047 
L 282.71894 192.840408 
L 282.780851 193.806487 
L 282.930748 194.320656 
L 282.944911 194.588639 
L 282.634154 195.39614 
L 282.636217 195.483612 
L 282.65535 196.294636 
L 282.363413 197.614183 
L 282.352419 198.095052 
L 282.433372 198.544807 
L 282.53042 198.732377 
L 282.52741 198.878662 
L 282.143748 199.893059 
L 282.096507 200.352193 
L 282.182529 200.907646 
L 282.041376 201.146702 
L 281.827509 201.246697 
L 281.562092 201.164224 
L 281.175641 201.157126 
L 280.881138 201.3094 
L 279.987172 202.131697 
L 279.591786 202.36261 
L 279.435425 202.576256 
L 279.228655 203.061434 
L 279.104232 203.149484 
L 278.691008 203.287214 
L 278.593611 203.033203 
L 278.047251 202.860208 
L 277.525035 202.82054 
L 276.864073 202.9308 
L 276.596438 203.022653 
L 276.09019 203.407709 
L 275.681687 203.831864 
L 275.320933 204.493712 
L 275.201294 205.018527 
L 275.170814 205.422879 
L 274.809915 206.514059 
L 274.730088 206.755416 
L 274.692986 207.679481 
L 274.731039 207.903868 
L 274.561307 208.485397 
L 274.088169 208.946084 
L 273.981806 209.18438 
L 274.011082 209.490701 
L 274.21218 209.896922 
L 273.670922 209.962255 
L 273.04025 209.914729 
L 272.120208 210.034558 
L 271.184324 210.542739 
L 270.923311 211.038785 
L 271.16994 211.878824 
L 270.754688 212.050742 
L 269.655188 211.64715 
L 269.151728 211.963326 
L 269.057531 212.04957 
L 268.519061 212.165185 
L 267.755823 212.161351 
L 266.449996 212.040445 
L 265.841694 212.278107 
L 265.630868 212.421541 
L 265.592911 212.562059 
L 265.17221 212.939512 
L 264.909612 212.986531 
L 264.667736 213.383976 
L 264.515114 213.764786 
L 264.490812 214.124654 
L 263.968785 214.291059 
L 263.937469 214.532288 
L 263.866604 215.078154 
L 263.636515 216.241308 
L 263.368151 218.431026 
L 263.272148 218.757593 
L 262.763587 219.300817 
L 262.466834 219.269576 
L 262.427894 219.321728 
L 262.480933 219.595447 
L 262.643174 219.975748 
L 262.957779 220.713197 
L 263.902534 222.067596 
L 264.295448 222.340079 
L 265.721294 222.945245 
L 266.417647 222.092405 
L 266.804319 222.030621 
L 267.353911 223.057279 
L 268.755297 223.374659 
L 269.557316 223.628131 
L 270.558149 224.316685 
L 271.067188 224.666893 
L 272.192131 224.233582 
L 273.473118 223.092322 
L 274.306884 222.215022 
L 274.337019 222.185144 
L 274.611767 221.912736 
L 274.913222 221.613848 
L 275.613979 220.926399 
L 275.773191 220.968951 
L 275.97562 220.747606 
L 276.152608 220.645552 
L 276.345722 220.620648 
L 276.393723 220.636775 
L 276.47249 220.768454 
L 276.941129 220.964262 
L 277.510302 220.692824 
L 277.754427 220.281217 
L 277.724862 220.206678 
L 277.669799 220.067856 
L 277.24612 219.815999 
L 277.009947 218.91294 
L 277.523894 218.233729 
L 278.002925 217.695417 
L 278.044368 217.187363 
L 278.503724 216.622436 
L 278.483256 216.154209 
L 279.011683 215.329948 
L 279.599834 215.591246 
L 279.302131 216.272422 
L 279.490968 216.702058 
L 280.271156 216.476182 
L 280.917289 216.171667 
L 281.695418 215.858374 
L 282.206134 215.056578 
L 281.663481 214.886814 
L 280.872773 214.724053 
L 280.009572 214.573396 
L 279.818486 214.23577 
L 280.835227 214.260896 
L 282.622209 214.305063 
L 283.033024 214.150793 
L 283.773798 213.65836 
L 284.196146 213.084846 
L 284.422054 212.676471 
L 284.432193 212.533765 
L 285.523297 212.296832 
L 286.518335 212.229218 
L 286.995814 212.261789 
L 288.111441 212.029482 
L 288.444948 211.912061 
L 288.895559 211.66483 
L 289.30235 211.592115 
L 290.206075 211.660743 
L 290.626554 211.588281 
L 290.857373 211.497728 
L 291.242778 211.197173 
L 291.772187 210.390338 
L 291.938972 210.263634 
L 292.741244 210.221304 
L 293.012301 210.14729 
L 293.750191 209.599409 
L 294.027458 209.610942 
L 294.091777 209.689138 
L 294.386122 209.724593 
L 294.97177 209.496404 
L 295.380748 209.461108 
L 296.209128 210.080563 
L 296.650867 210.267689 
L 298.006502 210.52734 
L 299.270633 210.95837 
L 299.426106 211.260478 
L 299.587695 211.398177 
L 300.163711 211.478052 
L 300.7582 211.820494 
L 300.988321 212.027422 
L 301.319863 212.562598 
L 301.836091 213.29149 
L 301.912007 213.335341 
L 302.429534 214.293657 
L 302.900454 215.378836 
L 303.635271 215.880934 
L 304.024478 216.369343 
L 304.032938 216.561 
L 303.888205 216.622119 
L 303.878161 216.67934 
L 303.987123 216.842355 
L 304.326269 217.04244 
L 304.823265 219.026749 
L 304.787652 219.423054 
L 304.846775 219.717715 
L 305.004847 219.940043 
L 305.194665 221.503133 
L 305.239119 221.86919 
L 305.208924 222.166862 
L 305.376311 224.275563 
L 305.458341 224.68489 
L 305.589069 224.955757 
L 305.846692 226.143846 
L 306.479201 227.444952 
L 306.485094 227.630019 
L 306.864194 228.674072 
L 307.3085 229.515981 
L 307.338251 229.704343 
L 307.295414 229.996343 
L 307.431751 231.717295 
L 307.394776 232.336782 
L 307.605982 232.802696 
L 307.628541 233.359132 
L 307.534122 233.690959 
L 307.829101 236.238643 
L 307.954665 236.638622 
L 308.279173 237.145219 
L 308.460538 238.026113 
L 308.50809 238.257076 
L 308.744517 238.824855 
L 308.857946 239.634826 
L 308.982468 240.062049 
L 309.002805 240.131822 
L 309.477718 240.604073 
L 309.912882 241.431363 
L 309.915972 241.437238 
L 311.007583 243.126917 
L 311.224017 243.202991 
L 311.013349 243.378077 
L 310.962021 243.476012 
L 310.951122 243.588332 
L 310.997507 243.736138 
L 311.084322 243.871651 
L 311.318182 244.10643 
L 311.19867 244.436831 
L 310.822706 244.899799 
L 310.235316 245.351265 
L 310.220008 245.372398 
L 309.985487 245.696178 
L 309.699918 246.50127 
L 309.513869 246.944752 
L 309.510067 247.13606 
L 309.567479 247.843059 
L 309.544001 248.058288 
L 309.426136 248.550342 
L 309.237331 248.917782 
L 309.129447 249.442407 
L 309.144306 249.540944 
L 309.181757 249.643822 
L 309.474359 250.22269 
L 309.59365 250.688573 
L 309.59083 250.922655 
L 309.080051 251.81887 
L 309.071623 252.314536 
L 308.735107 252.858139 
L 308.226831 253.987708 
L 308.245778 254.870996 
L 307.965469 255.612593 
L 307.821148 255.815435 
L 307.034369 256.31091 
L 306.985322 256.358753 
L 306.842142 256.560169 
L 306.788216 256.609469 
L 306.34898 256.890634 
L 306.108846 257.095725 
L 306.051023 257.150791 
L 305.899224 257.50879 
L 305.715995 257.615343 
L 305.243681 257.681436 
L 305.16821 257.673484 
L 305.041759 257.623549 
L 304.858339 257.491047 
L 304.602998 257.407781 
L 304.331022 257.413421 
L 304.095767 257.47926 
L 304.039877 257.499538 
L 303.846731 257.62412 
L 303.437974 257.894258 
L 303.282121 258.109425 
L 302.887242 258.517325 
L 302.654111 258.6318 
L 302.752458 257.462784 
L 302.455008 257.385127 
L 302.824603 256.854387 
L 302.555985 256.408751 
L 302.143966 256.488499 
L 301.870437 256.341454 
L 301.810522 256.119032 
L 302.197828 255.84075 
L 302.631964 255.84921 
L 302.876723 255.66351 
L 302.806955 255.461017 
L 302.536658 255.259475 
L 302.545783 255.192463 
L 303.004727 255.20634 
L 303.344475 255.17567 
L 303.233961 254.81086 
L 303.716382 254.450137 
L 304.112401 254.727974 
L 304.412418 254.718406 
L 304.637406 254.342823 
L 304.583282 253.99686 
L 304.568462 253.902129 
L 304.077929 253.673307 
L 303.705261 253.764018 
L 303.498047 253.561684 
L 303.038438 253.294556 
L 302.683165 253.199915 
L 302.193203 253.215377 
L 302.029364 253.404531 
L 301.975313 253.406695 
L 301.388364 253.430195 
L 300.534447 253.843229 
L 300.429832 253.962692 
L 300.14581 254.287027 
L 299.663135 254.3977 
L 299.295568 254.305816 
L 299.140316 254.340668 
L 298.627034 254.758866 
L 298.485796 255.069162 
L 298.417919 255.218285 
L 298.452804 255.535126 
L 298.706276 255.70622 
L 299.403326 255.943819 
L 299.449077 256.106485 
L 299.404593 256.285151 
L 299.431873 256.596479 
L 299.641051 256.951372 
L 299.612535 257.166824 
L 299.545999 257.204845 
L 299.400252 257.052761 
L 299.159422 256.970382 
L 298.389467 256.979888 
L 297.971237 257.071296 
L 297.600534 257.299897 
L 297.492808 257.455149 
L 297.438945 257.670569 
L 297.175967 257.892357 
L 297.14754 257.926997 
L 296.697538 258.475344 
L 296.447234 259.188235 
L 296.396571 260.113378 
L 296.823955 260.773228 
L 296.82646 260.777096 
L 296.41372 261.896281 
L 296.32693 262.131622 
L 296.254056 262.445294 
L 296.076625 262.724114 
L 295.937216 262.85085 
L 295.40806 263.082144 
L 295.281324 263.199375 
L 294.973957 263.674636 
L 295.12593 263.905779 
L 295.127466 263.908116 
L 294.448001 264.058013 
L 294.004392 264.301948 
L 293.079123 264.530042 
L 292.138074 264.615589 
L 290.686912 264.99583 
L 290.192641 265.284155 
L 289.660349 265.87031 
L 289.596308 266.001495 
L 289.204066 266.80499 
L 288.662269 267.495671 
L 288.650403 267.624558 
L 288.557032 268.638792 
L 288.475301 269.526588 
L 288.87452 271.079043 
L 288.488355 272.270333 
L 287.724357 272.352743 
L 287.371555 272.731082 
L 287.31357 272.752039 
L 286.742975 272.958257 
L 286.726594 273.103307 
L 286.797503 273.123806 
L 286.840308 273.407791 
L 286.754318 274.070431 
L 286.829789 274.129934 
L 286.830932 274.13258 
L 286.968661 274.451527 
L 286.785812 274.823118 
L 286.681603 274.867507 
L 286.107741 274.903373 
L 286.084548 275.198162 
L 285.846348 275.425495 
L 285.641764 275.405534 
L 285.478654 275.465734 
L 284.82273 275.937478 
L 284.575436 276.340373 
L 284.56647 276.62366 
L 284.179005 276.994458 
L 283.621081 276.82479 
L 283.340613 276.813859 
L 283.121296 276.86674 
L 282.710829 277.094232 
L 282.388761 277.440602 
L 282.147391 278.00141 
L 282.083501 278.484649 
L 282.073916 278.557148 
L 281.896612 278.866543 
L 281.705019 278.996059 
L 281.32915 279.250142 
L 281.116233 279.32441 
L 280.92579 279.051374 
L 280.917954 279.04014 
L 280.616639 279.154203 
L 280.164666 279.721728 
L 279.74086 280.439055 
L 279.337838 280.694017 
L 278.961178 280.811755 
L 278.789831 280.982849 
L 278.724688 281.125934 
L 278.670952 281.74466 
L 278.856241 282.360092 
L 279.179672 282.977297 
L 279.282074 283.277535 
L 278.956236 283.394133 
L 278.400592 283.475624 
L 278.339283 283.533891 
L 276.948321 283.559238 
L 276.884953 283.565575 
L 276.767722 283.568744 
L 276.739175 283.568744 
L 274.175902 283.638417 
L 274.166099 283.638645 
L 273.903419 283.644754 
L 273.859062 283.644754 
L 272.547309 283.685911 
L 272.452257 283.68908 
L 272.137912 283.698641 
L 271.618935 283.714427 
L 271.004264 283.730269 
L 270.25652 283.771427 
L 268.54238 283.822121 
L 268.538835 283.822206 
L 265.484773 283.894994 
L 264.824279 283.931765 
L 264.819471 283.932033 
L 264.210345 283.935835 
L 261.070929 284.035292 
L 260.420645 284.040171 
L 256.775584 284.158574 
L 249.615007 284.358386 
L 249.610898 284.358501 
L 248.470239 284.380236 
L 248.375184 284.382599 
L 247.154717 284.412934 
L 237.272837 284.623886 
L 235.494506 284.692197 
L 235.496533 284.331126 
L 235.495773 283.917363 
L 235.495044 283.52559 
L 235.494759 283.376865 
L 235.492858 283.202222 
L 235.500811 282.660393 
L 235.089235 282.665368 
L 234.89099 282.667531 
L 234.888896 282.667554 
L 231.489576 282.677027 
L 230.590509 282.685043 
L 230.568267 282.681431 
L 230.251775 282.682224 
L 230.212107 282.687325 
L 228.152199 282.673542 
L 228.100902 282.667712 
L 225.6349 282.676742 
L 225.450023 282.67538 
L 223.893448 282.67934 
L 223.120135 282.675633 
L 223.115803 282.675621 
L 221.973236 282.672338 
L 220.725485 282.667269 
L 220.702198 282.670057 
L 220.678054 282.674524 
L 220.095511 282.668441 
L 220.093012 282.668415 
L 219.896979 282.66635 
L 219.587267 282.664164 
L 219.270775 282.667776 
L 218.874914 282.667807 
L 218.255459 282.670152 
L 217.33792 282.671197 
L 215.803778 282.676552 
L 215.647955 282.677249 
L 213.002716 282.687768 
L 212.930096 282.682667 
L 210.100804 282.696418 
L 210.076598 282.692806 
L 209.623642 282.697368 
L 209.548266 282.695974 
L 209.303443 282.693725 
L 208.829164 282.69496 
L 208.732369 282.695658 
L 208.446832 282.695727 
L 206.394212 282.696228 
L 205.587599 282.696038 
L 205.572486 282.696069 
L 204.825887 282.694337 
L 204.794008 282.694263 
L 204.27769 282.6973 
L 204.276798 282.697305 
L 201.720591 282.687356 
L 201.626933 282.688117 
L 201.190577 282.685561 
L 201.188805 282.68555 
L 198.461568 282.672021 
L 198.459065 282.672021 
L 197.941917 282.668853 
L 197.939465 282.668825 
L 196.366427 282.651015 
L 195.683699 282.650495 
L 194.92681 282.649918 
L 193.70392 282.648987 
L 193.691246 282.649494 
L 193.615712 282.64848 
L 192.002686 282.658833 
L 190.772193 282.66673 
L 190.503513 282.66673 
L 190.502661 282.666726 
L 189.254337 282.660678 
L 189.034741 282.661286 
L 181.768121 282.6814 
L 181.212224 282.684758 
L 181.056818 282.68447 
L 177.387133 282.677661 
L 177.35095 282.678865 
L 177.345316 282.678846 
L 174.013509 282.667807 
L 173.963607 282.668283 
L 173.871602 282.667785 
L 172.299718 282.659284 
L 172.296676 282.659633 
L 172.269079 282.659633 
L 172.178811 282.659633 
L 171.809914 282.659633 
L 171.570446 282.659633 
L 171.532425 282.659633 
" clip-path="url(#p60a32e3fdb)" style="fill: #c0fd00"/>
    <path d="M 145.314653 103.455508 
L 145.771505 103.321199 
L 146.221767 103.136354 
L 147.241202 103.205109 
L 147.408304 103.388148 
L 146.960988 103.724791 
L 146.416371 103.724791 
L 145.735068 103.63823 
L 145.314653 103.455508 
" clip-path="url(#p60a32e3fdb)" style="fill: #c0fd00"/>
    <path d="M 94.528295 88.88426 
L 94.784144 88.491345 
L 95.443173 88.271616 
L 95.621142 88.100142 
L 95.601435 87.871415 
L 95.817932 87.686824 
L 96.937805 87.017181 
L 99.597587 85.975029 
L 102.034219 85.195506 
L 102.799072 84.886111 
L 104.487104 84.337976 
L 104.784903 84.273119 
L 104.910308 84.337184 
L 105.306264 84.303409 
L 105.938773 84.03796 
L 105.898914 83.951082 
L 105.982117 83.857012 
L 107.819381 83.160533 
L 108.441339 83.152485 
L 108.619498 83.208218 
L 109.345222 82.961462 
L 109.83566 82.724877 
L 109.843486 82.441146 
L 110.083461 82.259533 
L 110.710742 82.019368 
L 111.225925 81.729617 
L 111.942365 81.441324 
L 112.266588 81.456025 
L 112.612546 81.290128 
L 112.891556 81.142512 
L 112.867254 81.002088 
L 112.937054 80.929563 
L 113.48446 80.547453 
L 114.843358 80.054069 
L 115.971723 79.814125 
L 116.965969 79.417409 
L 117.671889 79.721576 
L 118.421693 79.630009 
L 118.710873 79.399191 
L 119.025243 79.258229 
L 119.731924 79.134914 
L 120.127943 79.163145 
L 120.90848 78.907803 
L 121.046528 79.243812 
L 120.994851 79.549215 
L 120.757284 79.674906 
L 120.056147 79.784279 
L 119.733128 79.935127 
L 119.420216 80.114839 
L 118.909247 80.59631 
L 118.079061 81.102748 
L 116.335297 81.989268 
L 115.983129 82.285388 
L 115.972293 82.487215 
L 116.052327 82.577103 
L 116.113952 82.776871 
L 116.078339 82.926008 
L 115.928284 83.099795 
L 113.067561 84.596011 
L 111.531454 85.112842 
L 109.826788 85.556672 
L 109.205717 85.625997 
L 107.935059 86.060861 
L 107.27413 86.057407 
L 105.808393 86.438313 
L 105.211307 86.682122 
L 105.03565 86.92384 
L 103.797089 87.382118 
L 102.516704 87.856587 
L 102.460211 88.240281 
L 102.784054 88.394297 
L 103.518047 88.28334 
L 104.088392 88.427946 
L 105.792107 88.049606 
L 105.814667 88.10537 
L 105.412944 88.401331 
L 102.647749 89.157123 
L 101.893763 89.440949 
L 101.205364 89.529094 
L 100.826771 89.628962 
L 99.192538 90.164201 
L 98.681063 90.388809 
L 97.616351 90.534587 
L 96.588774 90.294169 
L 96.509215 90.236282 
L 96.524233 89.994533 
L 96.219908 89.703578 
L 95.183173 89.656844 
L 95.150887 89.591701 
L 95.18311 89.541039 
L 95.374102 89.456569 
L 94.795329 89.045405 
L 94.66346 89.065651 
L 94.528295 88.88426 
" clip-path="url(#p60a32e3fdb)" style="fill: #c0fd00"/>
    <path d="M 57.681818 130.390639 
L 59.891116 129.29624 
L 60.549543 129.070998 
L 61.215447 129.229513 
L 62.524474 128.729697 
L 63.401648 128.540575 
L 65.733056 127.874259 
L 67.73964 127.569553 
L 69.490976 127.153225 
L 70.030493 126.959381 
L 71.055726 126.362612 
L 71.379442 126.04688 
L 71.760094 125.82091 
L 72.289281 125.611573 
L 73.513395 124.870324 
L 74.340698 124.149068 
L 74.443223 124.072536 
L 75.725387 123.115439 
L 76.254384 122.85113 
L 77.562714 122.394373 
L 79.792829 122.015938 
L 81.278875 121.926716 
L 81.682846 121.995566 
L 82.264883 122.176672 
L 82.496715 122.362087 
L 82.991272 122.381034 
L 84.560298 121.970123 
L 85.641517 121.842785 
L 86.330487 121.654043 
L 86.801249 121.660823 
L 87.049272 121.761357 
L 87.673828 121.795861 
L 88.766706 121.727645 
L 89.460366 121.585986 
L 90.826646 121.161324 
L 94.720269 119.705758 
L 95.39289 119.400704 
L 96.229445 118.824212 
L 97.283478 117.734692 
L 98.096143 117.122461 
L 98.536456 116.877227 
L 98.864672 116.825867 
L 99.028827 116.979978 
L 99.246845 117.071101 
L 99.865793 117.108552 
L 100.614773 117.006403 
L 101.362929 116.661141 
L 101.697512 116.606613 
L 101.885589 116.797351 
L 102.664288 116.791204 
L 103.019783 116.730213 
L 103.475876 116.576323 
L 103.90022 116.373545 
L 104.387014 116.004964 
L 104.72653 115.622491 
L 105.006533 115.307059 
L 105.332974 114.765579 
L 105.665118 113.912802 
L 106.126628 113.456108 
L 107.196535 113.022416 
L 107.424534 112.997006 
L 108.480944 112.162638 
L 109.273711 111.860815 
L 109.647298 111.87539 
L 110.080451 111.707559 
L 111.178715 110.754756 
L 112.130125 110.152854 
L 112.993991 109.699582 
L 113.502076 109.494047 
L 114.010162 109.457294 
L 114.54068 109.280877 
L 114.976304 109.0736 
L 115.765808 108.963751 
L 116.111639 108.848801 
L 118.06261 107.582723 
L 118.431452 107.343365 
L 119.161674 106.711046 
L 119.391352 106.261354 
L 119.746911 105.873224 
L 121.032935 104.881988 
L 121.958553 104.462396 
L 124.029931 103.856882 
L 124.683763 103.582434 
L 125.262061 103.259637 
L 126.720605 103.019567 
L 127.091784 102.857218 
L 127.377638 102.651525 
L 127.423484 102.527703 
L 127.396711 102.424889 
L 128.537401 102.142298 
L 129.527497 102.065116 
L 129.873487 101.982737 
L 131.597068 101.784142 
L 131.877916 101.822448 
L 132.73535 101.758034 
L 132.770202 101.750969 
L 132.774923 101.593657 
L 133.021615 101.561149 
L 134.965655 101.452758 
L 136.539244 101.474398 
L 137.390056 101.528008 
L 137.528832 101.596857 
L 140.097713 101.687917 
L 140.597497 101.646633 
L 142.005695 102.045345 
L 142.827422 102.413039 
L 143.29831 102.707574 
L 143.471654 103.772665 
L 143.40987 103.924749 
L 143.129371 103.936409 
L 142.459475 103.78461 
L 142.17549 103.808595 
L 141.932252 103.873642 
L 141.743351 104.011817 
L 140.625696 104.21789 
L 140.147995 104.451021 
L 139.775898 104.407614 
L 139.531709 104.270802 
L 139.106192 104.131836 
L 138.838525 104.115265 
L 138.029155 104.108897 
L 136.148136 104.283634 
L 135.658775 104.372762 
L 135.405144 104.779268 
L 135.388193 104.96256 
L 135.484228 105.155897 
L 135.730445 105.337573 
L 135.964875 105.380283 
L 136.237675 105.655428 
L 136.254689 105.797309 
L 136.092783 106.000087 
L 135.997985 106.052207 
L 135.616699 106.046472 
L 135.292951 106.105183 
L 134.642509 106.420408 
L 133.776108 106.938696 
L 132.560359 107.193277 
L 132.394302 107.270713 
L 132.033548 107.556757 
L 131.229565 108.362071 
L 130.849926 108.432409 
L 130.576714 108.557783 
L 130.117707 109.052688 
L 129.131826 109.790166 
L 128.144582 110.013096 
L 127.807749 109.9733 
L 127.569738 110.007361 
L 127.088417 110.30789 
L 127.042959 110.336273 
L 126.792496 110.646967 
L 126.630464 111.105404 
L 126.609743 111.623153 
L 126.710815 111.854098 
L 126.797914 111.912714 
L 126.953927 111.902511 
L 126.942299 112.017651 
L 126.697349 112.224833 
L 126.452336 112.334302 
L 126.390774 112.326381 
L 126.35231 112.200342 
L 126.209161 112.091634 
L 125.966176 112.04303 
L 125.679594 112.095721 
L 125.372765 112.263615 
L 125.140236 112.533658 
L 125.124299 112.631403 
L 125.177306 112.670375 
L 125.19939 112.827338 
L 125.162193 113.013418 
L 124.868228 113.521694 
L 123.523968 114.092356 
L 123.313047 114.127905 
L 123.210296 114.222799 
L 123.107671 114.454536 
L 123.08356 114.803568 
L 122.921907 115.38364 
L 122.650375 116.033987 
L 122.449435 116.254223 
L 122.080632 116.499458 
L 121.482057 117.170177 
L 121.271453 117.340289 
L 120.23361 117.521934 
L 120.085677 118.329307 
L 120.014282 118.574267 
L 119.869148 119.072235 
L 119.22105 120.253386 
L 119.155274 121.3776 
L 118.971095 121.974306 
L 119.008133 122.149519 
L 119.300799 122.782281 
L 119.649102 123.400596 
L 119.023342 123.530152 
L 118.548904 124.097487 
L 118.567725 124.357993 
L 119.204068 124.579876 
L 119.881821 124.267725 
L 120.407048 123.4005 
L 120.552541 123.185429 
L 121.142182 122.608367 
L 122.085195 121.89066 
L 122.193237 121.539917 
L 121.496441 121.465111 
L 121.950062 120.853545 
L 122.490149 120.689517 
L 122.61416 121.163637 
L 123.224459 121.059492 
L 124.466949 120.135964 
L 125.387245 119.601011 
L 126.009868 119.319529 
L 126.55344 118.872911 
L 128.999767 117.946374 
L 129.375318 117.749489 
L 129.745578 117.698921 
L 130.088146 117.840264 
L 129.541976 118.428764 
L 128.356739 119.209174 
L 127.581176 119.524969 
L 127.047711 119.864559 
L 126.609711 120.283961 
L 126.338622 120.724084 
L 125.337025 121.965276 
L 125.318205 122.251224 
L 125.816469 122.29197 
L 126.327311 121.599515 
L 126.632302 121.076759 
L 127.603767 120.314853 
L 128.747245 119.666026 
L 129.168136 119.654588 
L 130.276635 119.499368 
L 131.088127 119.265952 
L 131.704224 119.162947 
L 132.23265 119.222988 
L 132.886647 119.415952 
L 133.271381 119.529468 
L 134.16202 119.589921 
L 134.738195 119.622397 
L 135.692297 119.524367 
L 137.455864 119.504248 
L 138.273344 120.046299 
L 139.171366 120.321094 
L 139.32874 120.306583 
L 139.774409 120.137073 
L 140.102909 120.091417 
L 140.215958 120.190619 
L 140.850653 120.418776 
L 141.009338 120.433014 
L 141.190718 120.449288 
L 141.365963 120.548554 
L 141.385512 120.679568 
L 141.308234 120.748291 
L 141.369955 120.862322 
L 141.712618 121.036806 
L 142.033292 121.064149 
L 142.325483 120.906553 
L 142.503927 120.912256 
L 142.698594 121.391541 
L 142.639599 121.483551 
L 142.715862 121.808661 
L 142.804673 121.99113 
L 142.936605 122.103291 
L 143.368174 122.170525 
L 143.974828 122.11831 
L 144.256563 121.948863 
L 144.185844 121.73883 
L 144.210114 121.65699 
L 144.415934 121.6331 
L 144.610062 121.808376 
L 144.653279 122.105288 
L 144.616272 122.217544 
L 144.690096 122.332716 
L 144.999143 122.499311 
L 145.339778 122.586315 
L 145.644674 122.544429 
L 145.916745 122.595947 
L 146.082104 122.816151 
L 146.718732 123.346828 
L 147.120518 123.519759 
L 147.264363 124.468412 
L 147.518533 125.180733 
L 147.820862 125.499348 
L 149.401739 126.5127 
L 149.370135 126.815993 
L 149.365746 126.858119 
L 150.044387 127.811461 
L 150.366455 127.967854 
L 151.15523 128.187678 
L 151.200475 128.316568 
L 151.167967 128.485349 
L 151.277435 128.847086 
L 151.68109 129.128694 
L 151.958516 129.228404 
L 152.954821 129.263478 
L 153.204872 129.467967 
L 153.816818 129.53593 
L 153.890072 129.948171 
L 153.53125 130.186942 
L 153.535876 130.239886 
L 153.872424 130.783933 
L 154.081317 130.991179 
L 153.615973 131.135753 
L 153.499217 131.433393 
L 153.647974 131.709393 
L 153.899577 131.936885 
L 154.361594 132.253377 
L 154.858907 132.461034 
L 156.136282 132.7377 
L 157.784582 132.856895 
L 159.569282 132.775404 
L 160.435493 132.562455 
L 161.944446 132.674426 
L 162.287335 132.638035 
L 162.574357 132.607573 
L 162.853145 132.370418 
L 163.533751 131.998764 
L 164.5241 131.852478 
L 165.035164 131.673685 
L 165.439326 131.421765 
L 165.705852 131.447968 
L 166.712328 131.642572 
L 167.105971 131.960426 
L 167.15958 132.179141 
L 167.662153 132.973746 
L 167.686296 133.148262 
L 167.581485 133.235203 
L 167.659079 133.369892 
L 168.27223 133.607459 
L 169.032108 133.557652 
L 169.496217 133.799686 
L 169.658376 134.038045 
L 169.660182 134.33784 
L 169.937988 134.47199 
L 170.731357 134.572302 
L 171.132572 134.570021 
L 171.811308 134.4526 
L 171.971598 134.079646 
L 172.039718 133.732769 
L 172.206377 133.540827 
L 172.702296 133.190402 
L 173.316618 133.14785 
L 173.898306 133.146677 
L 174.349107 133.269548 
L 174.502236 133.379524 
L 174.510695 133.49685 
L 175.152488 134.230304 
L 175.385144 134.405517 
L 175.546447 134.429407 
L 175.918006 133.911658 
L 175.841838 133.65226 
L 175.916232 133.382851 
L 176.000163 132.545631 
L 175.614188 132.384644 
L 175.426365 132.118149 
L 175.192029 131.093392 
L 175.625467 130.741318 
L 176.178766 130.550802 
L 176.255378 130.676841 
L 176.408634 130.694964 
L 176.866406 130.632737 
L 176.980912 130.566137 
L 177.78838 131.416696 
L 177.734327 131.90989 
L 177.638546 132.203886 
L 177.561839 132.341459 
L 177.354055 132.470888 
L 177.213378 132.737003 
L 177.185971 132.93544 
L 177.494004 133.172373 
L 177.786447 133.19639 
L 178.003103 132.995735 
L 178.083644 132.818969 
L 178.2702 132.697207 
L 178.358282 132.707315 
L 178.436256 133.164991 
L 178.369498 133.427715 
L 179.094144 133.64681 
L 179.995144 132.882908 
L 181.033494 132.314274 
L 181.981006 131.696656 
L 182.331146 131.345248 
L 182.396004 131.131571 
L 182.796807 130.855508 
L 183.093877 130.839476 
L 183.586247 130.95959 
L 183.815101 130.933514 
L 185.296585 130.482523 
L 186.580392 130.0123 
L 191.708965 127.605166 
L 192.543618 127.115109 
L 193.284581 127.005482 
L 193.868614 127.502256 
L 194.113722 127.572341 
L 194.502897 127.585934 
L 195.31477 127.485052 
L 196.495001 127.173661 
L 197.823356 126.982004 
L 199.134252 126.880837 
L 200.072829 126.631673 
L 201.5347 126.435834 
L 201.957959 126.459012 
L 202.70229 126.499772 
L 204.164002 126.74732 
L 205.568145 126.865026 
L 206.714823 126.871743 
L 208.161581 126.768833 
L 209.561383 126.81769 
L 210.740917 126.951872 
L 212.161251 126.963405 
L 213.207047 126.915151 
L 214.075634 126.767946 
L 217.633469 125.71217 
L 220.166895 124.733449 
L 221.212026 124.456657 
L 221.813606 124.383062 
L 223.867721 124.131769 
L 227.336683 124.314839 
L 228.200707 124.233126 
L 229.057634 123.954655 
L 229.683173 123.853931 
L 230.470363 123.839927 
L 230.807577 123.886914 
L 230.884537 123.94629 
L 229.74521 124.706866 
L 229.109089 125.250058 
L 228.711676 125.753074 
L 228.478671 126.228715 
L 228.397402 126.630533 
L 228.454021 126.936094 
L 228.225484 128.523592 
L 228.17631 129.284833 
L 228.226371 129.901025 
L 228.352125 130.307975 
L 228.412737 130.760551 
L 228.483075 130.781557 
L 228.542736 131.01472 
L 228.492295 131.121147 
L 227.907693 131.290467 
L 227.672597 131.444673 
L 227.571873 131.644504 
L 227.609577 132.017426 
L 227.771039 132.359202 
L 228.280551 132.87543 
L 228.539346 133.022508 
L 228.868449 133.127572 
L 230.3179 133.235995 
L 230.766451 133.109924 
L 231.021127 132.884017 
L 231.341897 132.825306 
L 231.427856 133.108467 
L 231.823938 133.436492 
L 232.037711 133.514023 
L 232.727188 133.580844 
L 233.308685 133.537279 
L 233.740286 133.437506 
L 234.110387 133.744366 
L 234.296056 134.111394 
L 234.752813 134.256824 
L 235.684008 134.188766 
L 236.66463 133.957346 
L 238.116172 133.490228 
L 239.182848 132.99415 
L 239.539262 132.87467 
L 240.316884 133.047158 
L 241.041182 132.964209 
L 241.501583 133.376038 
L 241.772291 133.855197 
L 242.281486 134.217124 
L 242.051523 134.379093 
L 241.890156 134.646443 
L 241.989802 134.878687 
L 242.142425 135.173349 
L 242.55286 135.225279 
L 243.560825 135.06632 
L 245.074595 134.411474 
L 245.401511 134.375893 
L 245.841539 134.621127 
L 246.084398 134.566757 
L 246.377507 134.356027 
L 246.601513 133.945496 
L 246.6101 133.663888 
L 246.354536 133.516557 
L 246.930331 132.832783 
L 247.718472 132.450642 
L 248.527968 132.508782 
L 249.151669 132.210097 
L 249.185634 132.196504 
L 250.147847 132.240386 
L 250.333738 132.308064 
L 250.725385 132.4841 
L 251.750522 132.712796 
L 252.295552 132.712226 
L 252.625795 132.662418 
L 252.661439 132.641443 
L 252.972957 132.458753 
L 253.869711 131.410042 
L 254.896338 131.219938 
L 255.41282 131.631831 
L 255.774019 131.654009 
L 256.185943 131.587473 
L 256.391921 131.498789 
L 256.616878 131.463937 
L 256.949592 131.530473 
L 257.127023 131.821967 
L 257.298117 131.926524 
L 257.5104 132.354259 
L 257.073129 133.430757 
L 256.403137 135.066383 
L 256.633354 136.533324 
L 257.260191 137.648825 
L 257.668124 138.125702 
L 257.244128 138.345906 
L 257.372955 139.82834 
L 257.936836 140.199455 
L 257.609762 140.683398 
L 257.290196 140.913741 
L 257.073192 140.948055 
L 256.768138 140.97166 
L 256.410171 141.198042 
L 256.37215 141.223738 
L 256.306564 141.235651 
L 256.25888 141.235651 
L 256.229065 141.223738 
L 256.217152 141.19988 
L 256.211195 141.158152 
L 256.202672 141.106792 
L 255.981327 140.937029 
L 255.244768 140.866785 
L 254.079998 140.976349 
L 253.648366 141.228395 
L 253.139932 141.785275 
L 253.264482 142.225366 
L 253.186729 142.627152 
L 253.068326 142.753952 
L 254.03225 143.160331 
L 254.803187 143.062491 
L 255.416939 142.497152 
L 255.596208 142.568822 
L 257.073255 142.617045 
L 257.392662 142.810159 
L 257.445955 142.976627 
L 257.862062 143.549792 
L 257.998557 143.646016 
L 258.204788 143.687237 
L 259.121282 143.696553 
L 260.193692 144.155655 
L 260.051114 144.423765 
L 259.808414 144.346646 
L 259.390058 144.530731 
L 259.091309 144.731227 
L 258.843603 145.032353 
L 258.740598 145.263266 
L 258.761414 145.397892 
L 258.93517 145.556407 
L 259.396014 145.817769 
L 260.151711 146.591019 
L 260.841758 146.914133 
L 261.36632 147.286832 
L 262.18117 147.444936 
L 262.573989 147.40663 
L 262.810891 147.329859 
L 262.966808 147.4008 
L 263.079033 147.680919 
L 263.215116 147.760573 
L 263.930923 147.963351 
L 264.185916 148.361081 
L 265.053679 148.53509 
L 265.209375 148.482843 
L 265.932849 147.513183 
L 266.416126 147.619483 
L 266.79456 148.249965 
L 267.559636 148.45984 
L 268.117877 148.193662 
L 268.47144 147.744984 
L 268.472834 147.314968 
L 268.201872 146.695988 
L 267.480425 146.530692 
L 266.974589 145.999002 
L 266.609716 145.043125 
L 266.869842 144.888159 
L 266.978075 144.885972 
L 267.597276 145.095943 
L 268.005082 145.363863 
L 268.264099 145.44358 
L 268.765658 145.406827 
L 269.647299 145.444911 
L 269.801442 145.354516 
L 269.912621 145.125726 
L 270.417348 145.051743 
L 271.770258 145.150217 
L 272.599778 145.033145 
L 272.898432 145.088307 
L 273.221958 145.285889 
L 273.752064 145.472539 
L 274.300104 145.487494 
L 274.465653 145.680767 
L 274.574963 145.952965 
L 274.577054 146.112241 
L 274.805908 146.365618 
L 275.163685 146.461177 
L 275.380942 146.810146 
L 275.502482 147.148278 
L 275.582358 147.653607 
L 275.833676 147.967881 
L 277.039983 148.341341 
L 277.245676 148.341278 
L 277.489929 148.448339 
L 277.70199 148.689328 
L 277.724961 148.820373 
L 277.454252 149.217976 
L 277.23107 149.317242 
L 276.539914 150.566102 
L 276.330197 150.747018 
L 276.041713 150.904741 
L 274.917214 151.09719 
L 274.245068 150.990826 
L 272.687416 150.472222 
L 271.881184 150.054752 
L 270.929553 150.373938 
L 269.923964 150.415475 
L 269.49455 150.302585 
L 269.184299 150.291147 
L 268.44115 150.379261 
L 268.358106 150.479129 
L 267.811365 150.437749 
L 267.338322 150.304455 
L 267.265702 150.121321 
L 267.113144 150.047465 
L 266.64856 150.101581 
L 266.497871 150.188681 
L 266.246331 150.169449 
L 266.076378 149.824631 
L 265.899961 149.810215 
L 265.316277 149.611112 
L 264.848715 149.397847 
L 264.803122 149.334827 
L 263.859475 149.416318 
L 263.529359 149.655153 
L 262.549498 149.419962 
L 261.505254 149.368159 
L 261.146274 149.547871 
L 260.47793 149.624388 
L 258.497486 149.251276 
L 258.170506 149.364262 
L 257.695911 149.183916 
L 257.637802 149.050431 
L 257.512016 149.002461 
L 257.413483 149.013654 
L 256.572837 149.109141 
L 255.57688 149.401775 
L 255.392796 149.30346 
L 253.48814 149.353521 
L 252.956545 149.718743 
L 250.578054 149.713071 
L 249.841367 150.175152 
L 249.10766 150.482519 
L 247.45185 149.645774 
L 247.168468 149.158505 
L 246.994047 149.028189 
L 246.360683 149.311381 
L 245.812295 149.031325 
L 245.729093 148.889444 
L 245.748737 148.788087 
L 245.699088 148.699086 
L 244.964271 148.6066 
L 244.744954 148.731024 
L 244.746601 149.236385 
L 244.398679 149.322375 
L 244.166118 149.29481 
L 244.101799 149.189809 
L 244.094638 149.019666 
L 244.227838 148.599757 
L 244.133356 148.145566 
L 243.89354 147.708928 
L 243.785497 147.602501 
L 243.168101 147.298365 
L 242.623452 147.343293 
L 242.448841 147.484509 
L 241.736869 147.489769 
L 240.515575 146.751974 
L 240.231749 146.658506 
L 239.910377 146.727197 
L 239.62126 146.869046 
L 239.257305 147.221658 
L 239.085799 147.470727 
L 239.086908 147.789342 
L 239.290669 148.987601 
L 239.3509 149.039722 
L 239.322828 149.167884 
L 239.244948 149.237399 
L 238.730526 149.248773 
L 238.125646 149.363533 
L 237.899421 149.556204 
L 237.62472 150.044328 
L 237.608213 150.170304 
L 237.808741 150.454795 
L 238.255043 150.625509 
L 238.424268 150.849927 
L 238.435769 150.986771 
L 237.778293 151.272593 
L 238.181505 152.321906 
L 238.365114 152.574554 
L 238.818132 152.981441 
L 238.7829 153.064707 
L 238.653375 153.121928 
L 238.195446 153.139386 
L 238.134359 153.186469 
L 238.040257 153.489875 
L 237.366939 153.535754 
L 235.916506 152.804042 
L 234.692455 152.381155 
L 234.468259 152.08098 
L 234.495127 151.842019 
L 234.348778 151.552427 
L 234.010614 151.491688 
L 233.366224 151.184226 
L 233.157711 150.993108 
L 232.426506 150.745148 
L 231.964837 150.523455 
L 231.342245 149.722513 
L 230.188248 148.76613 
L 229.236427 148.132575 
L 228.907135 147.985434 
L 227.589363 147.593376 
L 226.53628 147.427668 
L 226.090136 147.297447 
L 225.217747 146.866924 
L 224.88817 146.755237 
L 224.533562 146.719624 
L 223.310462 146.81794 
L 223.092063 146.904881 
L 222.300342 146.403924 
L 220.910235 146.242652 
L 220.235111 146.036801 
L 219.329866 145.582705 
L 218.707369 145.393012 
L 218.064087 145.40914 
L 217.734319 145.577319 
L 217.266282 145.727311 
L 216.872196 145.302079 
L 216.294532 145.112862 
L 215.82396 145.096164 
L 215.348192 145.291687 
L 215.336755 145.350366 
L 215.403354 145.393076 
L 215.187934 145.628457 
L 214.122938 145.27312 
L 213.505194 145.255345 
L 213.106101 145.325462 
L 212.824937 145.435406 
L 212.213815 145.805349 
L 210.220031 147.364775 
L 209.778862 148.058815 
L 208.800712 148.843407 
L 208.607281 149.160533 
L 208.313253 149.371961 
L 207.260169 149.589155 
L 206.403337 149.422782 
L 205.789553 149.430259 
L 204.923945 149.234579 
L 204.299737 149.036712 
L 203.672297 148.957723 
L 203.446834 148.978001 
L 203.185092 149.077964 
L 202.970147 149.348863 
L 202.659611 149.427915 
L 202.06544 149.335397 
L 201.930942 149.332535 
L 201.391045 149.321044 
L 201.050314 149.364357 
L 200.546411 149.623501 
L 200.114335 149.965277 
L 200.004201 150.288264 
L 200.010412 150.47802 
L 200.288566 150.614958 
L 200.509531 150.794607 
L 200.398478 150.879299 
L 200.182646 150.83003 
L 199.1218 150.334649 
L 197.702196 149.880332 
L 196.051836 149.524298 
L 195.382954 149.425824 
L 194.664169 149.381751 
L 193.751224 149.443725 
L 193.049517 149.677427 
L 192.908238 149.768614 
L 192.615414 149.791711 
L 191.436672 149.493247 
L 191.067964 149.499806 
L 190.678535 149.629552 
L 190.408777 149.95631 
L 190.26452 150.044012 
L 189.808428 150.074206 
L 189.594243 149.954092 
L 188.857937 150.162668 
L 187.654767 151.012118 
L 187.393341 151.302566 
L 187.127417 153.021965 
L 186.604345 153.581284 
L 186.416522 154.493943 
L 186.524374 154.722797 
L 186.139413 154.978646 
L 185.945823 155.004089 
L 185.125491 154.98869 
L 184.940234 154.808978 
L 184.486677 154.860275 
L 184.206051 154.988468 
L 184.092147 155.120274 
L 184.075576 155.217322 
L 184.131435 155.327393 
L 184.096234 155.436069 
L 183.981316 155.685233 
L 183.736081 155.909778 
L 183.23316 156.030779 
L 183.0959 155.993005 
L 182.900319 155.93918 
L 182.488078 156.012846 
L 182.266986 156.355287 
L 181.94308 156.27142 
L 181.690716 156.113791 
L 181.36266 156.173769 
L 181.24508 156.321068 
L 181.089321 156.675613 
L 181.026935 157.173085 
L 180.769851 157.488278 
L 180.643812 157.567108 
L 180.511626 157.57506 
L 179.586546 157.312019 
L 179.259915 157.454344 
L 179.104315 157.676069 
L 179.138407 158.40211 
L 179.051054 158.894829 
L 178.858256 158.921158 
L 178.29767 158.791 
L 178.008584 158.874487 
L 177.859606 158.978379 
L 177.770701 159.121781 
L 178.118148 160.348335 
L 178.120651 160.7851 
L 177.899591 160.580231 
L 177.603219 160.422222 
L 177.121145 160.493733 
L 176.560718 160.313229 
L 175.892786 159.91515 
L 175.843232 159.734044 
L 175.637191 159.474045 
L 175.232807 159.441505 
L 174.92262 158.84255 
L 174.911119 158.550613 
L 174.987477 158.340579 
L 175.323233 158.120312 
L 175.832776 158.216599 
L 176.242071 158.089863 
L 176.574976 157.761775 
L 176.580235 157.545911 
L 176.461356 157.487929 
L 176.391113 157.181544 
L 176.667335 156.914321 
L 177.156632 156.798547 
L 177.605943 156.322146 
L 177.550053 155.818939 
L 177.673114 155.233323 
L 178.106615 155.185195 
L 178.27134 155.317697 
L 178.729999 155.443515 
L 179.182131 155.352994 
L 179.388774 155.027915 
L 179.255638 154.923358 
L 179.233839 154.828464 
L 179.389123 154.616941 
L 179.569278 154.49087 
L 179.81578 154.522016 
L 180.011493 154.404689 
L 180.064342 154.235908 
L 179.953543 153.956328 
L 180.07578 153.659354 
L 180.24887 153.52175 
L 180.37944 153.507302 
L 180.593973 153.393619 
L 180.898868 152.982994 
L 180.930045 152.858444 
L 180.887304 152.288131 
L 180.779071 152.044448 
L 180.510548 151.804632 
L 180.125777 151.60686 
L 179.678683 151.479363 
L 179.184887 151.533733 
L 178.871849 151.966981 
L 178.551554 152.235788 
L 178.227014 152.256193 
L 177.840469 152.499748 
L 177.604993 152.760413 
L 177.626855 153.291406 
L 177.198486 153.589902 
L 174.818538 153.224173 
L 174.583854 153.118728 
L 174.141988 152.613051 
L 173.91475 152.515559 
L 173.635581 152.532098 
L 172.886855 152.756389 
L 172.820414 152.932363 
L 172.881184 153.714674 
L 173.040681 153.802344 
L 173.123472 153.976194 
L 173.165707 154.302889 
L 172.771462 154.837335 
L 172.272311 155.296437 
L 171.637141 155.602854 
L 171.566802 155.757155 
L 171.657894 155.906387 
L 171.627921 156.02083 
L 171.094234 156.506642 
L 170.994113 156.911564 
L 171.091446 157.125242 
L 170.088772 157.512421 
L 169.882445 157.455263 
L 169.298255 157.468792 
L 169.021114 157.529562 
L 168.483404 157.899569 
L 167.751565 157.964046 
L 167.114177 158.69506 
L 167.031481 158.624088 
L 167.017857 158.309719 
L 166.940231 158.088818 
L 166.573203 157.944085 
L 166.470578 157.64787 
L 166.539491 157.202361 
L 166.690244 156.920531 
L 166.767268 156.148644 
L 166.573457 155.7358 
L 166.56449 154.910082 
L 166.348595 154.327095 
L 165.821309 153.658656 
L 165.383371 153.431545 
L 164.986275 153.48376 
L 164.719907 153.578591 
L 164.33333 153.970396 
L 164.162363 154.268099 
L 164.117847 154.615769 
L 164.140564 155.324161 
L 163.955276 155.724711 
L 163.944915 155.968108 
L 164.004988 156.143384 
L 164.222214 156.19918 
L 164.305923 156.311722 
L 164.162204 156.665348 
L 164.026691 156.792115 
L 163.750375 157.237023 
L 164.096016 157.562799 
L 162.957861 157.799098 
L 162.832836 157.875932 
L 162.82257 157.98312 
L 162.445118 158.278605 
L 161.881965 158.41152 
L 160.524969 159.04273 
L 159.745192 159.851085 
L 158.896217 161.0214 
L 158.548802 161.354748 
L 157.633893 162.520246 
L 157.610353 162.567279 
L 156.83425 164.117947 
L 156.283074 164.944679 
L 155.852773 165.280023 
L 155.426812 165.841497 
L 155.391896 165.996527 
L 155.423866 166.168191 
L 155.527853 166.325344 
L 155.658518 166.385449 
L 155.597843 166.535409 
L 155.331602 166.850571 
L 154.865846 167.091908 
L 154.591462 167.342656 
L 154.437604 167.700591 
L 153.546268 168.318557 
L 153.309493 168.942923 
L 152.304759 169.986564 
L 152.128184 170.331382 
L 152.075874 170.714601 
L 151.242805 171.349993 
L 149.749376 172.905649 
L 148.588852 173.940482 
L 148.130922 174.178778 
L 147.426459 174.738826 
L 146.946604 175.358313 
L 146.677796 175.818429 
L 146.591013 176.101779 
L 146.652671 176.394413 
L 146.968022 176.747057 
L 147.28011 176.95633 
L 147.282075 176.992513 
L 147.229099 177.010732 
L 146.499827 176.84043 
L 146.287163 176.766448 
L 146.096077 176.737013 
L 146.058404 176.714486 
L 146.034895 176.673772 
L 145.972667 176.645256 
L 145.827713 176.654951 
L 145.444937 176.640693 
L 145.308031 176.568929 
L 145.161555 176.602673 
L 145.072301 176.604447 
L 145.032411 176.580145 
L 145.029718 176.444316 
L 145.004624 176.420359 
L 144.84576 176.268691 
L 144.722256 176.20659 
L 144.676409 176.167777 
L 144.493845 175.889274 
L 144.484277 175.853788 
L 144.563075 175.762379 
L 144.569665 175.731646 
L 144.313468 175.444081 
L 144.170161 175.339587 
L 144.045009 175.273938 
L 143.960095 175.241715 
L 143.783837 175.220614 
L 143.692777 175.188359 
L 143.569241 175.110005 
L 143.5457 175.068023 
L 143.444691 174.974809 
L 143.234847 174.904787 
L 143.07085 174.778526 
L 143.023958 174.705304 
L 142.923615 174.637373 
L 142.825457 174.595645 
L 142.690198 174.575843 
L 142.659496 174.553474 
L 142.646664 174.517196 
L 142.687822 174.382443 
L 142.478865 173.767487 
L 142.481178 173.731051 
L 142.552151 173.606691 
L 142.65205 173.526625 
L 142.917531 173.421973 
L 142.973359 173.376506 
L 142.974087 173.273564 
L 142.939203 173.163019 
L 142.949469 173.07367 
L 143.091382 172.935527 
L 143.126836 172.823429 
L 143.108428 172.772829 
L 143.013851 172.724258 
L 143.004821 172.674767 
L 143.038057 172.620999 
L 143.22474 172.459506 
L 143.263173 172.446515 
L 143.378915 172.452187 
L 143.417379 172.437929 
L 143.444152 172.407797 
L 143.439685 172.241171 
L 143.513667 171.942549 
L 143.556947 171.825508 
L 143.51392 171.762203 
L 143.706686 171.54992 
L 143.842072 171.474543 
L 143.852338 171.390517 
L 143.819513 171.245182 
L 143.858928 171.091419 
L 144.010378 170.896151 
L 144.108725 170.81393 
L 144.196997 170.623414 
L 144.199532 170.56727 
L 144.46609 170.320578 
L 144.585127 170.255119 
L 144.83559 169.987293 
L 144.904661 169.963372 
L 144.954627 169.927188 
L 145.023254 169.828049 
L 145.006493 169.668108 
L 145.019991 169.630911 
L 145.076167 169.582244 
L 145.204646 169.528286 
L 145.446997 169.257419 
L 145.468289 169.072511 
L 145.459575 168.898597 
L 145.435907 168.850374 
L 145.366678 168.801105 
L 145.274572 168.788241 
L 145.177492 168.64842 
L 145.203632 168.518863 
L 145.177746 168.373465 
L 145.154775 168.327302 
L 144.642634 168.067682 
L 144.614435 168.032228 
L 144.609777 167.918672 
L 144.594981 167.893167 
L 144.346292 167.814083 
L 144.249086 167.694919 
L 144.111355 167.659718 
L 143.994916 167.657469 
L 143.80985 167.71976 
L 143.666004 167.797861 
L 143.589012 167.849664 
L 143.539521 167.932328 
L 143.204874 168.051333 
L 142.744885 168.464177 
L 142.605728 168.616165 
L 142.58827 168.660269 
L 142.189812 168.761849 
L 142.167696 168.78935 
L 142.173209 168.865836 
L 142.089183 168.939121 
L 141.83495 168.972104 
L 141.611768 168.883579 
L 141.541682 168.883103 
L 141.461934 168.882597 
L 141.171232 168.930154 
L 141.016265 168.838682 
L 140.941586 168.812321 
L 140.62031 168.807125 
L 140.315762 168.881234 
L 139.90539 168.837478 
L 139.888725 168.869574 
L 139.847504 168.89885 
L 139.782139 168.904395 
L 139.691618 168.857915 
L 139.60173 168.850184 
L 139.516469 168.890391 
L 139.469608 169.033888 
L 139.426549 169.076661 
L 139.102516 169.216863 
L 139.046594 169.224499 
L 139.009048 169.195635 
L 139.004074 169.1643 
L 139.054008 169.090919 
L 139.037564 169.000905 
L 138.962599 168.937378 
L 138.777786 168.909465 
L 138.70637 168.883674 
L 138.623421 168.825755 
L 138.579571 168.770403 
L 138.566865 168.732319 
L 138.55416 168.66122 
L 138.511006 168.60026 
L 138.462752 168.587586 
L 138.370076 168.238776 
L 138.360444 168.17506 
L 138.236781 168.064324 
L 138.245272 167.990785 
L 138.304078 167.927924 
L 138.388452 167.872192 
L 138.585781 167.805148 
L 138.752407 167.710254 
L 138.834406 167.555668 
L 138.746546 167.451015 
L 138.741159 167.423482 
L 138.761501 167.369968 
L 139.020106 167.276246 
L 139.07229 167.214557 
L 139.061327 167.035669 
L 139.03392 166.96701 
L 138.99346 166.922082 
L 138.85386 166.827093 
L 138.72028 166.592536 
L 138.729943 166.399897 
L 138.672183 166.289382 
L 138.680199 166.244993 
L 138.882946 166.026183 
L 139.132268 165.937531 
L 139.21509 165.803381 
L 139.494131 165.725248 
L 139.588106 165.639099 
L 139.606673 165.593981 
L 139.765917 165.497154 
L 139.96784 165.43762 
L 140.223879 165.30442 
L 140.224037 165.242921 
L 140.271627 165.183007 
L 140.452099 165.019897 
L 140.448931 164.980577 
L 140.400929 164.896583 
L 140.416676 164.831282 
L 140.667963 164.639435 
L 140.68691 164.594538 
L 140.703956 164.43916 
L 140.748789 164.337422 
L 140.842637 164.220413 
L 140.864119 164.169877 
L 140.849988 164.009524 
L 140.673222 163.969634 
L 140.563183 163.717872 
L 140.501843 163.386995 
L 140.485462 163.178894 
L 140.491546 163.079755 
L 140.528426 162.996014 
L 140.527602 162.956219 
L 140.408185 162.789846 
L 140.199767 162.628479 
L 140.039636 162.518092 
L 139.772729 162.406564 
L 139.611743 162.306854 
L 139.590451 162.284865 
L 139.570712 162.187658 
L 139.630975 162.013206 
L 139.705211 161.989728 
L 140.199514 162.103822 
L 140.441612 162.177076 
L 140.713081 162.20049 
L 140.876697 162.170993 
L 140.92416 162.138009 
L 140.989936 162.079362 
L 141.004891 162.016184 
L 141.037652 161.795505 
L 141.029985 161.590509 
L 141.054286 161.54444 
L 141.089773 161.508637 
L 141.228929 161.454077 
L 141.35744 161.364823 
L 141.387888 161.070225 
L 141.342485 160.708805 
L 141.241919 160.537869 
L 140.887977 160.469527 
L 140.765549 160.403307 
L 140.756076 160.301031 
L 140.730602 160.252269 
L 140.493035 160.08371 
L 140.312024 159.773238 
L 140.087606 159.608671 
L 139.943728 159.55598 
L 139.871362 159.506901 
L 139.853175 159.314484 
L 139.916005 159.223677 
L 139.924496 159.162369 
L 139.884986 159.105179 
L 139.878776 159.038547 
L 139.901081 159.01282 
L 140.530771 158.893625 
L 140.669769 158.778104 
L 140.782184 158.740274 
L 141.217269 158.678616 
L 141.236787 158.657895 
L 141.245341 158.609609 
L 141.243092 158.454642 
L 141.198164 158.368968 
L 141.02387 158.238208 
L 140.575445 158.026495 
L 140.476813 157.965218 
L 140.347478 157.840985 
L 140.34412 157.821341 
L 140.474183 157.71935 
L 140.474024 157.674422 
L 140.449121 157.615268 
L 140.313608 157.50789 
L 140.244093 157.473893 
L 139.638801 157.358722 
L 139.451833 157.295956 
L 139.15166 157.130055 
L 138.877179 156.978354 
L 138.597092 156.655304 
L 138.611223 156.480376 
L 138.637331 156.466752 
L 138.602763 156.384151 
L 138.476978 156.264386 
L 138.311333 156.233906 
L 138.232947 156.124627 
L 138.106242 156.094369 
L 138.028648 156.096397 
L 137.723087 156.119336 
L 137.592327 156.175417 
L 137.518471 156.16851 
L 137.466446 156.137016 
L 137.425447 156.040189 
L 137.380836 155.996497 
L 137.319052 155.957494 
L 137.280524 155.951125 
L 137.220388 155.953787 
L 137.183571 155.984932 
L 136.769587 156.026375 
L 136.62346 155.943965 
L 136.543648 155.919441 
L 136.370811 155.991364 
L 136.068925 156.012656 
L 135.741122 155.981225 
L 135.588468 156.014398 
L 135.456187 155.987372 
L 135.415853 155.948052 
L 135.438951 155.905817 
L 135.344723 155.803573 
L 135.171062 155.730763 
L 135.032159 155.708711 
L 134.728182 155.626934 
L 134.824407 155.465345 
L 134.875197 155.453147 
L 134.904314 155.393074 
L 134.848962 155.204015 
L 134.680244 154.883024 
L 134.620393 154.827513 
L 134.569192 154.80958 
L 134.428863 154.808249 
L 134.247725 154.850833 
L 134.075047 154.911001 
L 133.740939 154.902668 
L 133.550454 154.977474 
L 133.435504 155.006116 
L 133.312063 155.004754 
L 133.234627 154.986282 
L 133.039422 154.992302 
L 133.023833 155.004659 
L 133.002573 155.092867 
L 132.882015 155.179492 
L 132.761077 155.21653 
L 132.693907 155.266496 
L 132.452411 155.274498 
L 132.014062 155.289023 
L 131.878327 155.246408 
L 131.815403 155.162667 
L 131.77095 155.140457 
L 131.491307 155.148473 
L 131.318407 155.118025 
L 131.141958 154.974559 
L 131.026913 154.93733 
L 130.928566 154.740509 
L 130.954959 154.700397 
L 130.960123 154.660317 
L 130.891971 154.579079 
L 130.828603 154.550056 
L 130.622086 154.534372 
L 130.196347 154.36933 
L 130.121161 154.305201 
L 129.98568 154.060696 
L 130.018726 153.976258 
L 130.063939 153.930823 
L 130.248721 153.802661 
L 130.402737 153.726872 
L 130.473203 153.618196 
L 130.677755 153.463071 
L 130.758264 153.421723 
L 130.841815 153.412345 
L 130.91998 153.362284 
L 131.182831 153.074909 
L 131.483861 152.89374 
L 131.528409 152.843077 
L 131.605528 152.685164 
L 131.681411 152.605922 
L 131.711479 152.601391 
L 131.841606 152.641376 
L 131.917267 152.60947 
L 131.981016 152.38388 
L 131.955351 152.268518 
L 131.707043 152.112537 
L 131.637845 152.091309 
L 131.261565 152.127556 
L 131.122884 152.090707 
L 131.072317 152.017865 
L 130.957208 151.603153 
L 130.940289 151.587374 
L 130.935378 151.469509 
L 130.949921 151.356207 
L 130.984805 151.278264 
L 131.067279 151.160938 
L 131.156026 151.103527 
L 131.276996 151.054955 
L 131.275253 151.014399 
L 131.240812 150.947926 
L 131.037654 150.802306 
L 130.98132 150.794322 
L 130.643568 150.79147 
L 130.59605 150.80757 
L 130.543414 150.825404 
L 130.437051 150.837761 
L 130.293902 150.814029 
L 130.255501 150.785038 
L 130.260698 150.759691 
L 130.30214 150.714541 
L 130.260761 150.666572 
L 129.830713 150.525419 
L 129.674606 150.429163 
L 129.659049 150.4118 
L 129.661172 150.376314 
L 129.26981 150.257499 
L 129.130368 150.258164 
L 129.10331 150.280438 
L 128.908865 150.244635 
L 128.828641 150.195683 
L 128.736631 150.072686 
L 128.658181 150.002537 
L 128.284911 149.841043 
L 128.215143 149.824187 
L 128.078109 149.806096 
L 128.036571 149.813352 
L 127.894341 149.916198 
L 127.902706 150.063941 
L 127.657693 150.092235 
L 127.607854 150.084282 
L 127.485332 150.006814 
L 127.259044 149.958116 
L 127.20816 149.951811 
L 127.074611 149.984255 
L 126.911375 149.993222 
L 126.704415 149.943256 
L 126.614242 149.8995 
L 126.552965 149.843135 
L 126.511775 149.779608 
L 126.485573 149.701982 
L 126.505914 149.634527 
L 126.494191 149.499648 
L 126.405159 149.478102 
L 126.372968 149.480986 
L 126.372968 149.494451 
L 126.224591 149.482063 
L 126.172661 149.507378 
L 126.081157 149.610193 
L 125.794512 149.673815 
L 125.320993 149.749698 
L 125.034379 149.875674 
L 124.943034 149.871302 
L 124.889044 149.791648 
L 124.762403 149.715574 
L 124.491346 149.614154 
L 124.257708 149.563459 
L 124.142473 149.595333 
L 123.895274 149.465714 
L 123.838116 149.405609 
L 123.695822 149.315088 
L 122.252455 148.591234 
L 122.092419 148.636067 
L 122.121441 148.703427 
L 121.977944 148.875725 
L 121.773233 148.948091 
L 121.654798 148.951672 
L 121.534336 148.922649 
L 121.31204 148.970365 
L 121.273607 148.98776 
L 121.154095 149.103597 
L 121.088667 149.108666 
L 120.979611 149.063009 
L 120.894444 149.006517 
L 120.91732 148.955094 
L 120.881992 148.89933 
L 120.796826 148.830512 
L 120.545412 148.76388 
L 120.490346 148.703047 
L 120.365669 148.629191 
L 120.259686 148.621936 
L 120.079942 148.650927 
L 120.030071 148.637904 
L 119.905363 148.53509 
L 119.917814 148.44818 
L 119.902194 148.405438 
L 119.766048 148.346094 
L 119.547935 148.305095 
L 119.379597 148.294988 
L 119.25793 148.36577 
L 119.243451 148.434588 
L 119.27881 148.49615 
L 119.216519 148.5541 
L 119.122037 148.586703 
L 118.875821 148.613571 
L 118.693954 148.575297 
L 118.538005 148.480498 
L 118.516111 148.442129 
L 118.554481 148.381263 
L 118.554449 148.358102 
L 118.495295 148.314347 
L 118.451951 148.312319 
L 118.267772 147.902707 
L 118.259566 147.783924 
L 118.22842 147.74698 
L 118.15466 147.719447 
L 117.993546 147.695462 
L 117.723281 147.708389 
L 117.611056 147.667073 
L 117.429158 147.654716 
L 117.384452 147.664126 
L 117.393798 147.695272 
L 117.351152 147.75319 
L 117.220138 147.858159 
L 117.154647 147.890731 
L 116.848009 147.918201 
L 116.713953 147.852266 
L 116.381334 147.829105 
L 116.189075 147.88921 
L 116.143387 147.952958 
L 115.900212 148.105802 
L 115.636283 148.165939 
L 115.612362 148.149304 
L 115.513539 147.95958 
L 115.499978 147.869059 
L 115.482299 147.847355 
L 115.34818 147.76843 
L 115.242134 147.769191 
L 115.162131 147.814119 
L 115.052093 147.978559 
L 114.924469 148.221227 
L 114.921396 148.364503 
L 114.87387 148.623773 
L 114.838605 148.682452 
L 114.767981 148.716513 
L 114.52902 148.686951 
L 114.208758 148.707039 
L 114.183822 148.72079 
L 114.159869 148.798289 
L 114.099606 148.803327 
L 113.457687 148.66623 
L 113.345145 148.681058 
L 113.294767 148.683878 
L 113.269579 148.672662 
L 113.234568 148.648867 
L 113.248572 148.601278 
L 113.272367 148.567692 
L 113.262418 148.540919 
L 113.150225 148.483698 
L 113.02973 148.357659 
L 113.040123 148.328161 
L 113.06623 148.328161 
L 113.023679 148.165083 
L 112.923937 147.991993 
L 112.780535 147.89786 
L 112.648367 147.87785 
L 112.383534 147.837755 
L 112.160034 147.759559 
L 111.970849 147.751606 
L 111.792119 147.810253 
L 111.705907 147.925425 
L 111.53646 147.905907 
L 111.443879 147.737221 
L 111.450026 147.629337 
L 111.333556 147.550444 
L 111.147443 147.486062 
L 110.85218 147.46157 
L 110.648514 147.509413 
L 110.466204 147.579562 
L 110.407367 147.615174 
L 110.335698 147.687636 
L 110.262095 147.707629 
L 110.216914 147.698979 
L 110.098954 147.631555 
L 110.053297 147.627024 
L 110.023261 147.625028 
L 109.993224 147.633044 
L 109.977192 147.64106 
L 109.955172 147.655065 
L 109.94291 147.675026 
L 109.910592 147.725815 
L 109.705438 147.82204 
L 109.58732 147.837723 
L 109.517964 147.802174 
L 109.461344 147.663524 
L 109.457669 147.598572 
L 109.469455 147.55507 
L 109.624739 147.411921 
L 109.628097 147.336006 
L 109.609309 147.317059 
L 109.444868 147.290444 
L 109.210882 147.311102 
L 109.071915 147.258665 
L 108.929717 147.375136 
L 109.070014 147.475986 
L 109.084335 147.539006 
L 109.063107 147.578896 
L 108.89515 147.574714 
L 108.572384 147.642138 
L 108.455755 147.61961 
L 108.462155 147.599522 
L 108.428507 147.568789 
L 108.298507 147.494743 
L 107.951503 147.388316 
L 107.834114 147.365821 
L 107.747236 147.3707 
L 107.665079 147.341044 
L 107.55992 147.27964 
L 107.442816 147.149387 
L 107.415409 147.095619 
L 107.358187 147.050754 
L 104.744813 145.992328 
L 104.411284 145.857247 
L 104.239588 145.785578 
L 102.905404 145.244002 
L 102.902935 145.242993 
L 99.710921 143.938397 
L 98.649315 143.747469 
L 97.489013 143.51665 
L 97.326474 143.483319 
L 96.451328 143.322554 
L 96.236669 143.275535 
L 96.17311 143.256714 
L 96.098082 143.244421 
L 95.702063 143.162676 
L 95.644779 143.152189 
L 93.853837 142.812282 
L 93.841353 142.810096 
L 86.907612 141.473503 
L 85.701146 141.225797 
L 82.386518 140.602097 
L 81.461311 140.412214 
L 78.391474 139.832871 
L 73.838791 138.947143 
L 73.784484 138.935578 
L 73.502876 138.893153 
L 73.174641 138.829503 
L 67.112485 137.653958 
L 67.088437 137.642393 
L 67.084255 137.613434 
L 67.093633 137.5968 
L 67.144835 137.563721 
L 67.166285 137.482832 
L 67.14154 137.421777 
L 67.121705 137.393705 
L 67.108525 137.350804 
L 67.136565 137.284775 
L 67.208266 137.253629 
L 67.231237 137.216718 
L 67.227974 137.074108 
L 67.165144 136.944583 
L 67.137769 136.928297 
L 67.135678 136.928519 
L 67.09715 136.929406 
L 67.055517 136.916131 
L 67.039739 136.880645 
L 67.040626 136.837491 
L 67.035366 136.806377 
L 66.921494 136.702263 
L 66.778313 136.629073 
L 66.688489 136.545776 
L 66.663395 136.446953 
L 66.663617 136.445939 
L 66.739849 136.24728 
L 66.685479 136.219747 
L 66.644702 136.216832 
L 66.512991 136.128465 
L 66.356187 135.961933 
L 66.278339 135.741729 
L 66.229831 135.676682 
L 66.084432 135.612205 
L 65.928705 135.358796 
L 65.893187 135.216914 
L 65.916348 135.004124 
L 65.904879 134.935338 
L 65.752193 134.556745 
L 65.653846 134.462612 
L 65.641711 134.40764 
L 65.641394 134.390531 
L 65.399423 134.396709 
L 65.294739 134.368447 
L 65.251902 133.971065 
L 65.216289 133.855228 
L 64.936645 133.782101 
L 64.886363 133.746647 
L 64.805727 133.652545 
L 64.846568 133.574349 
L 64.928281 133.530213 
L 64.953406 133.495456 
L 64.941905 133.466496 
L 64.802558 133.356489 
L 64.538535 133.242839 
L 64.466232 133.17627 
L 64.220871 132.790485 
L 64.122967 132.542399 
L 64.122238 132.486445 
L 64.067488 132.429033 
L 63.942716 132.376945 
L 63.885083 132.377674 
L 63.682812 132.434927 
L 63.632466 132.429889 
L 63.610414 132.378497 
L 63.613551 132.337245 
L 63.661679 132.231547 
L 63.63123 132.177272 
L 63.592449 132.172931 
L 63.443661 132.259143 
L 63.218324 132.318583 
L 63.134424 132.331668 
L 63.066272 132.315034 
L 62.782192 132.335344 
L 62.734983 132.37441 
L 62.676241 132.395353 
L 62.596587 132.396779 
L 62.525266 132.363447 
L 62.529258 132.323525 
L 62.529258 132.287627 
L 62.485376 132.251698 
L 62.423529 132.257686 
L 62.369666 132.251698 
L 62.353697 132.223784 
L 62.357689 132.181866 
L 62.361681 132.143972 
L 62.361998 132.114379 
L 62.225788 131.996324 
L 62.31292 131.858815 
L 62.293022 131.815376 
L 62.14943 131.708918 
L 62.110617 131.729196 
L 62.092747 131.77913 
L 61.950074 131.886951 
L 61.877707 131.887648 
L 61.651261 131.820287 
L 61.605098 131.855013 
L 61.601929 131.887584 
L 61.479217 131.920156 
L 61.312495 131.932449 
L 61.217063 131.899117 
L 61.180373 131.902032 
L 61.02623 131.942556 
L 60.986371 131.971516 
L 60.984629 131.971516 
L 60.886756 131.936029 
L 60.861599 131.799218 
L 60.967519 131.731192 
L 61.04825 131.575591 
L 61.097582 131.317144 
L 61.08079 131.237522 
L 60.777605 131.018205 
L 60.642282 131.039909 
L 60.579326 131.022546 
L 60.536299 130.962473 
L 60.552014 130.892261 
L 60.414537 130.796702 
L 60.25504 130.771418 
L 60.020039 130.834438 
L 59.91941 130.992985 
L 59.85769 131.278236 
L 59.83681 131.301778 
L 59.790583 131.310111 
L 59.728672 131.294934 
L 59.660393 131.207359 
L 59.618412 131.198678 
L 59.597437 131.208817 
L 59.473109 131.171968 
L 59.208103 131.200009 
L 59.06562 131.24237 
L 58.661109 131.418185 
L 58.46809 131.45139 
L 58.406243 131.409377 
L 58.396864 131.334095 
L 58.296299 131.130652 
L 58.255141 131.0785 
L 58.242848 131.0785 
L 58.19247 131.0785 
L 58.079231 130.977111 
L 58.010097 130.8294 
L 57.798162 130.668635 
L 57.79398 130.668635 
L 57.761535 130.483315 
L 57.681818 130.390639 
" clip-path="url(#p60a32e3fdb)" style="fill: #c0fd00"/>
   </g>
   <g id="PathCollection_1">
    <defs>
     <path id="m063a6a214b" d="M 0 1.581139 
C 0.419323 1.581139 0.821528 1.41454 1.118034 1.118034 
C 1.41454 0.821528 1.581139 0.419323 1.581139 0 
C 1.581139 -0.419323 1.41454 -0.821528 1.118034 -1.118034 
C 0.821528 -1.41454 0.419323 -1.581139 0 -1.581139 
C -0.419323 -1.581139 -0.821528 -1.41454 -1.118034 -1.118034 
C -1.41454 -0.821528 -1.581139 -0.419323 -1.581139 0 
C -1.581139 0.419323 -1.41454 0.821528 -1.118034 1.118034 
C -0.821528 1.41454 -0.419323 1.581139 0 1.581139 
z
" style="stroke: #000000"/>
    </defs>
    <g clip-path="url(#p60a32e3fdb)">
     <use xlink:href="#m063a6a214b" x="243.439412" y="251.818522" style="stroke: #000000"/>
    </g>
   </g>
   <g id="text_1">
    <!-- Lansing -->
    <g transform="translate(246.439412 248.818522) scale(0.1 -0.1)">
     <defs>
      <path id="DejaVuSans-4c" d="M 628 4666 
L 1259 4666 
L 1259 531 
L 3531 531 
L 3531 0 
L 628 0 
L 628 4666 
z
" transform="scale(0.015625)"/>
      <path id="DejaVuSans-61" d="M 2194 1759 
Q 1497 1759 1228 1600 
Q 959 1441 959 1056 
Q 959 750 1161 570 
Q 1363 391 1709 391 
Q 2188 391 2477 730 
Q 2766 1069 2766 1631 
L 2766 1759 
L 2194 1759 
z
M 3341 1997 
L 3341 0 
L 2766 0 
L 2766 531 
Q 2569 213 2275 61 
Q 1981 -91 1556 -91 
Q 1019 -91 701 211 
Q 384 513 384 1019 
Q 384 1609 779 1909 
Q 1175 2209 1959 2209 
L 2766 2209 
L 2766 2266 
Q 2766 2663 2505 2880 
Q 2244 3097 1772 3097 
Q 1472 3097 1187 3025 
Q 903 2953 641 2809 
L 641 3341 
Q 956 3463 1253 3523 
Q 1550 3584 1831 3584 
Q 2591 3584 2966 3190 
Q 3341 2797 3341 1997 
z
" transform="scale(0.015625)"/>
      <path id="DejaVuSans-6e" d="M 3513 2113 
L 3513 0 
L 2938 0 
L 2938 2094 
Q 2938 2591 2744 2837 
Q 2550 3084 2163 3084 
Q 1697 3084 1428 2787 
Q 1159 2491 1159 1978 
L 1159 0 
L 581 0 
L 581 3500 
L 1159 3500 
L 1159 2956 
Q 1366 3272 1645 3428 
Q 1925 3584 2291 3584 
Q 2894 3584 3203 3211 
Q 3513 2838 3513 2113 
z
" transform="scale(0.015625)"/>
      <path id="DejaVuSans-73" d="M 2834 3397 
L 2834 2853 
Q 2591 2978 2328 3040 
Q 2066 3103 1784 3103 
Q 1356 3103 1142 2972 
Q 928 2841 928 2578 
Q 928 2378 1081 2264 
Q 1234 2150 1697 2047 
L 1894 2003 
Q 2506 1872 2764 1633 
Q 3022 1394 3022 966 
Q 3022 478 2636 193 
Q 2250 -91 1575 -91 
Q 1294 -91 989 -36 
Q 684 19 347 128 
L 347 722 
Q 666 556 975 473 
Q 1284 391 1588 391 
Q 1994 391 2212 530 
Q 2431 669 2431 922 
Q 2431 1156 2273 1281 
Q 2116 1406 1581 1522 
L 1381 1569 
Q 847 1681 609 1914 
Q 372 2147 372 2553 
Q 372 3047 722 3315 
Q 1072 3584 1716 3584 
Q 2034 3584 2315 3537 
Q 2597 3491 2834 3397 
z
" transform="scale(0.015625)"/>
      <path id="DejaVuSans-69" d="M 603 3500 
L 1178 3500 
L 1178 0 
L 603 0 
L 603 3500 
z
M 603 4863 
L 1178 4863 
L 1178 4134 
L 603 4134 
L 603 4863 
z
" transform="scale(0.015625)"/>
      <path id="DejaVuSans-67" d="M 2906 1791 
Q 2906 2416 2648 2759 
Q 2391 3103 1925 3103 
Q 1463 3103 1205 2759 
Q 947 2416 947 1791 
Q 947 1169 1205 825 
Q 1463 481 1925 481 
Q 2391 481 2648 825 
Q 2906 1169 2906 1791 
z
M 3481 434 
Q 3481 -459 3084 -895 
Q 2688 -1331 1869 -1331 
Q 1566 -1331 1297 -1286 
Q 1028 -1241 775 -1147 
L 775 -588 
Q 1028 -725 1275 -790 
Q 1522 -856 1778 -856 
Q 2344 -856 2625 -561 
Q 2906 -266 2906 331 
L 2906 616 
Q 2728 306 2450 153 
Q 2172 0 1784 0 
Q 1141 0 747 490 
Q 353 981 353 1791 
Q 353 2603 747 3093 
Q 1141 3584 1784 3584 
Q 2172 3584 2450 3431 
Q 2728 3278 2906 2969 
L 2906 3500 
L 3481 3500 
L 3481 434 
z
" transform="scale(0.015625)"/>
     </defs>
     <use xlink:href="#DejaVuSans-4c"/>
     <use xlink:href="#DejaVuSans-61" x="55.712891"/>
     <use xlink:href="#DejaVuSans-6e" x="116.992188"/>
     <use xlink:href="#DejaVuSans-73" x="180.371094"/>
     <use xlink:href="#DejaVuSans-69" x="232.470703"/>
     <use xlink:href="#DejaVuSans-6e" x="260.253906"/>
     <use xlink:href="#DejaVuSans-67" x="323.632812"/>
    </g>
   </g>
   <g id="text_2">
    <!-- Michigan -->
    <g transform="translate(157.599375 62.618583) scale(0.12 -0.12)">
     <defs>
      <path id="DejaVuSans-4d" d="M 628 4666 
L 1569 4666 
L 2759 1491 
L 3956 4666 
L 4897 4666 
L 4897 0 
L 4281 0 
L 4281 4097 
L 3078 897 
L 2444 897 
L 1241 4097 
L 1241 0 
L 628 0 
L 628 4666 
z
" transform="scale(0.015625)"/>
      <path id="DejaVuSans-63" d="M 3122 3366 
L 3122 2828 
Q 2878 2963 2633 3030 
Q 2388 3097 2138 3097 
Q 1578 3097 1268 2742 
Q 959 2388 959 1747 
Q 959 1106 1268 751 
Q 1578 397 2138 397 
Q 2388 397 2633 464 
Q 2878 531 3122 666 
L 3122 134 
Q 2881 22 2623 -34 
Q 2366 -91 2075 -91 
Q 1284 -91 818 406 
Q 353 903 353 1747 
Q 353 2603 823 3093 
Q 1294 3584 2113 3584 
Q 2378 3584 2631 3529 
Q 2884 3475 3122 3366 
z
" transform="scale(0.015625)"/>
      <path id="DejaVuSans-68" d="M 3513 2113 
L 3513 0 
L 2938 0 
L 2938 2094 
Q 2938 2591 2744 2837 
Q 2550 3084 2163 3084 
Q 1697 3084 1428 2787 
Q 1159 2491 1159 1978 
L 1159 0 
L 581 0 
L 581 4863 
L 1159 4863 
L 1159 2956 
Q 1366 3272 1645 3428 
Q 1925 3584 2291 3584 
Q 2894 3584 3203 3211 
Q 3513 2838 3513 2113 
z
" transform="scale(0.015625)"/>
     </defs>
     <use xlink:href="#DejaVuSans-4d"/>
     <use xlink:href="#DejaVuSans-69" x="86.279297"/>
     <use xlink:href="#DejaVuSans-63" x="114.0625"/>
     <use xlink:href="#DejaVuSans-68" x="169.042969"/>
     <use xlink:href="#DejaVuSans-69" x="232.421875"/>
     <use xlink:href="#DejaVuSans-67" x="260.205078"/>
     <use xlink:href="#DejaVuSans-61" x="323.681641"/>
     <use xlink:href="#DejaVuSans-6e" x="384.960938"/>
    </g>
   </g>
  </g>
 </g>
 <defs>
  <clipPath id="p60a32e3fdb">
   <rect x="45" y="68.618583" width="279" height="226.362834"/>
  </clipPath>
 </defs>
</svg>
