<?xml version="1.0" encoding="utf-8" standalone="no"?>
<!DOCTYPE svg PUBLIC "-//W3C//DTD SVG 1.1//EN"
  "http://www.w3.org/Graphics/SVG/1.1/DTD/svg11.dtd">
<svg xmlns:xlink="http://www.w3.org/1999/xlink" width="360pt" height="360pt" viewBox="0 0 360 360" xmlns="http://www.w3.org/2000/svg" version="1.1">
 <metadata>
  <rdf:RDF xmlns:dc="http://purl.org/dc/elements/1.1/" xmlns:cc="http://creativecommons.org/ns#" xmlns:rdf="http://www.w3.org/1999/02/22-rdf-syntax-ns#">
   <cc:Work>
    <dc:type rdf:resource="http://purl.org/dc/dcmitype/StillImage"/>
    <dc:date>2023-06-19T15:20:27.289795</dc:date>
    <dc:format>image/svg+xml</dc:format>
    <dc:creator>
     <cc:Agent>
      <dc:title>Matplotlib v3.7.1, https://matplotlib.org/</dc:title>
     </cc:Agent>
    </dc:creator>
   </cc:Work>
  </rdf:RDF>
 </metadata>
 <defs>
  <style type="text/css">*{stroke-linejoin: round; stroke-linecap: butt}</style>
 </defs>
 <g id="figure_1">
  <g id="patch_1">
   <path d="M 0 360 
L 360 360 
L 360 0 
L 0 0 
z
" style="fill: #ffffff"/>
  </g>
  <g id="axes_1">
   <g id="PatchCollection_1">
    <path d="M 57.681818 99.103662 
L 57.720567 98.892276 
L 57.70872 98.647214 
L 57.744393 98.546905 
L 57.845291 98.439886 
L 57.955942 98.363402 
L 57.970015 98.295886 
L 57.934441 98.209846 
L 57.937484 98.170017 
L 58.02503 98.06038 
L 70.662007 98.079329 
L 84.969813 98.08342 
L 94.662605 98.079362 
L 106.484769 98.095202 
L 114.061182 98.102107 
L 120.495869 98.119027 
L 125.93463 98.114675 
L 125.947786 92.028141 
L 125.944022 89.8971 
L 125.947001 88.075496 
L 125.947459 88.007914 
L 125.947066 87.984285 
L 125.947099 87.956631 
L 125.948604 86.839908 
L 125.946641 86.831628 
L 125.944579 86.4803 
L 125.947099 86.104296 
L 125.949422 86.045223 
L 125.94831 85.998881 
L 125.946444 85.541614 
L 125.947622 85.499756 
L 126.04839 85.545378 
L 126.064361 85.623891 
L 126.209703 85.698673 
L 126.324183 85.697986 
L 126.826253 85.988015 
L 127.173196 86.083612 
L 127.380393 86.090256 
L 127.526946 86.134536 
L 127.600222 86.180616 
L 128.026071 86.26047 
L 129.053775 86.520456 
L 129.349041 86.524187 
L 130.493418 86.414583 
L 131.328194 86.005754 
L 131.806734 86.043684 
L 132.35724 85.963568 
L 132.532462 86.012888 
L 133.934436 86.618442 
L 134.007647 86.673031 
L 134.94306 87.174251 
L 135.735357 87.470073 
L 136.303798 87.472888 
L 136.979748 87.573721 
L 136.715672 87.971456 
L 136.687231 88.447672 
L 137.600848 91.065826 
L 137.591586 91.605599 
L 138.354101 93.988051 
L 138.386992 94.127502 
L 139.139786 94.813795 
L 140.163792 98.079067 
L 141.337493 101.877468 
L 141.335594 101.895567 
L 141.299922 102.254815 
L 141.027957 102.367691 
L 141.100776 102.53915 
L 141.102608 102.550539 
L 141.011037 102.876863 
L 141.252009 103.311253 
L 140.879768 103.454861 
L 140.718979 103.584232 
L 140.643182 103.829491 
L 140.947874 104.322954 
L 140.915113 104.631736 
L 140.969539 104.972722 
L 141.081565 105.342083 
L 141.082416 105.342705 
L 141.177718 105.413102 
L 141.673177 105.62848 
L 141.859788 105.733208 
L 142.090418 105.92391 
L 142.361989 106.067092 
L 142.578023 106.261427 
L 142.542284 106.261427 
L 142.578481 106.293631 
L 142.580674 106.452293 
L 142.720747 106.549559 
L 143.433974 106.673824 
L 143.711207 106.853203 
L 144.010826 106.968959 
L 144.191775 107.104254 
L 144.350077 107.258989 
L 144.476667 107.321008 
L 145.091352 107.388982 
L 145.501524 107.366564 
L 145.722957 107.417422 
L 145.839302 107.498193 
L 146.073041 107.80403 
L 146.246987 107.855674 
L 146.523762 107.846052 
L 147.038825 107.885129 
L 147.322211 107.956703 
L 147.770576 107.960663 
L 148.214522 108.0001 
L 148.491297 108.044151 
L 148.888902 108.144264 
L 149.076364 108.12934 
L 149.335008 108.064246 
L 149.609866 107.865885 
L 149.809489 107.721819 
L 149.90106 107.610415 
L 149.982421 107.564074 
L 150.071701 107.538677 
L 150.394818 107.552193 
L 150.966565 107.506048 
L 151.117994 107.510597 
L 151.314522 107.560801 
L 151.629784 107.686408 
L 152.138269 107.761747 
L 152.474968 107.786292 
L 152.943754 107.750325 
L 153.597909 107.561881 
L 154.177477 107.643437 
L 154.47006 107.724994 
L 154.713944 107.900838 
L 155.037028 107.932354 
L 155.165712 108.015416 
L 155.244618 108.164228 
L 155.420593 108.344523 
L 155.472433 108.436519 
L 155.490302 108.609254 
L 155.358738 109.078826 
L 155.360898 109.16107 
L 155.494425 109.315576 
L 155.50444 109.326408 
L 155.614077 109.395103 
L 155.69416 109.420696 
L 156.048238 109.456892 
L 156.352569 109.548823 
L 156.674214 109.553569 
L 157.162865 109.500747 
L 157.520772 109.520187 
L 158.203333 109.595394 
L 158.541669 109.671911 
L 159.153833 109.673613 
L 159.557885 109.715078 
L 160.091505 109.723424 
L 160.423131 109.668736 
L 160.706353 109.74054 
L 161.183158 109.723064 
L 161.357202 109.667689 
L 161.539886 109.660849 
L 161.590024 109.738969 
L 161.720148 109.758671 
L 161.975912 109.729053 
L 162.279131 109.74882 
L 162.52691 109.8273 
L 162.727365 109.832438 
L 163.465628 109.756118 
L 163.670436 109.769733 
L 164.017117 109.869191 
L 164.460474 109.940046 
L 164.891166 109.953857 
L 164.980937 109.975293 
L 165.184469 110.065359 
L 165.518026 110.112814 
L 166.081492 110.147963 
L 166.420384 110.11733 
L 166.458184 110.100606 
L 166.495395 110.046508 
L 166.587915 110.034955 
L 167.392877 110.162396 
L 168.548676 110.184356 
L 168.797731 110.20769 
L 168.904226 110.23541 
L 169.014255 110.282865 
L 169.114695 110.353032 
L 169.322972 110.744222 
L 169.447827 110.818742 
L 169.496918 110.872972 
L 169.581256 111.046819 
L 169.631951 111.323071 
L 169.844057 111.662453 
L 169.976701 111.814537 
L 170.016661 111.902279 
L 170.065523 112.141745 
L 170.062283 112.204124 
L 170.017152 112.420582 
L 169.944334 112.613085 
L 169.842061 112.784347 
L 169.83617 112.835172 
L 169.868079 112.951944 
L 169.871417 113.055296 
L 169.83797 113.116693 
L 169.662911 113.269726 
L 169.636631 113.31525 
L 169.620987 113.373275 
L 169.640624 113.459119 
L 169.74126 113.574909 
L 169.840391 113.631527 
L 170.18825 113.769865 
L 170.321909 113.841702 
L 170.419502 113.91812 
L 170.740132 113.935498 
L 171.162838 113.924535 
L 171.443148 113.914946 
L 171.662192 113.939557 
L 171.778079 113.947608 
L 172.14132 113.874724 
L 172.458906 113.853516 
L 172.735747 113.875313 
L 173.211373 113.852404 
L 173.402632 113.881171 
L 173.684971 113.958931 
L 173.808517 113.965018 
L 174.343052 113.909087 
L 174.929395 113.927611 
L 175.297742 113.876884 
L 175.373211 113.843731 
L 175.427244 113.812836 
L 175.533313 113.705 
L 175.62243 113.535832 
L 175.725488 113.457614 
L 175.83879 113.421025 
L 175.917925 113.428388 
L 176.052565 113.574843 
L 176.183867 113.657971 
L 176.363115 113.726502 
L 176.435966 113.733538 
L 176.591355 113.706996 
L 176.660672 113.679047 
L 176.841981 113.553767 
L 176.967425 113.500127 
L 177.1776 113.497247 
L 177.414743 113.569705 
L 177.492568 113.574516 
L 178.025075 113.496723 
L 178.511763 113.503694 
L 178.735029 113.46465 
L 179.006077 113.380344 
L 179.444493 113.329813 
L 179.550333 113.303795 
L 180.051192 113.094013 
L 180.662604 113.030391 
L 181.119707 112.947984 
L 181.188827 112.915125 
L 181.339177 112.788012 
L 181.422697 112.632917 
L 181.474112 112.418782 
L 181.46197 112.2432 
L 181.308642 112.01964 
L 181.1687 111.585642 
L 181.195144 111.475417 
L 181.224304 111.438337 
L 182.069127 111.386366 
L 182.21159 111.328831 
L 182.401834 111.177009 
L 182.494943 111.127165 
L 182.8699 110.986274 
L 183.048788 110.89431 
L 183.156493 110.863906 
L 183.191315 110.863677 
L 183.209152 110.921212 
L 183.362512 111.04191 
L 183.491851 111.061612 
L 183.858888 111.001197 
L 184.272921 111.003292 
L 184.38714 110.939965 
L 184.408118 110.89863 
L 184.568253 110.717026 
L 184.755519 110.784248 
L 184.788246 110.790237 
L 184.829973 110.765528 
L 184.859264 110.731884 
L 184.862603 110.655597 
L 184.994919 110.353654 
L 185.024767 110.30525 
L 185.046203 110.298509 
L 188.079177 109.769504 
L 189.632286 109.779649 
L 190.395062 110.241072 
L 190.529277 110.353949 
L 190.591295 110.405887 
L 191.758843 110.354014 
L 193.525531 110.266534 
L 196.911993 110.393058 
L 197.89666 110.139028 
L 198.052312 110.174177 
L 198.061508 110.899088 
L 198.723418 110.944743 
L 199.367067 111.290376 
L 199.866486 111.336129 
L 205.320204 113.156588 
L 207.616518 112.92838 
L 208.367611 113.039326 
L 208.599909 113.716978 
L 208.66844 113.847167 
L 208.67492 113.868113 
L 208.638986 113.972022 
L 208.647953 113.996699 
L 208.687684 114.015419 
L 208.680386 114.019739 
L 208.492433 114.172379 
L 208.491778 114.178106 
L 208.481109 114.220226 
L 208.557593 114.268892 
L 208.619415 114.331728 
L 208.507913 114.412434 
L 208.309847 114.461165 
L 207.968893 114.445554 
L 207.742256 114.388936 
L 207.500761 114.555125 
L 206.733371 114.520631 
L 206.276562 114.609616 
L 206.195595 114.946904 
L 205.934791 115.323105 
L 205.955082 115.412843 
L 205.826954 115.652931 
L 206.630869 116.278809 
L 207.440118 116.400064 
L 207.677194 116.513791 
L 210.308178 116.37902 
L 211.566021 116.153987 
L 212.295579 116.134023 
L 212.545125 116.148358 
L 213.04281 116.611973 
L 213.137326 116.722625 
L 213.30476 116.748741 
L 213.369952 116.777148 
L 213.410469 116.845188 
L 213.400389 116.885574 
L 213.582582 117.100134 
L 214.212911 117.25032 
L 214.210816 117.678067 
L 213.544455 118.6394 
L 213.767066 119.291459 
L 214.299114 120.021999 
L 214.705097 120.477465 
L 214.818367 120.66591 
L 215.008905 120.822215 
L 215.109836 120.799044 
L 215.202847 120.840935 
L 215.523314 121.136398 
L 215.836809 121.663701 
L 216.133351 122.115502 
L 216.25981 122.278615 
L 216.406297 122.515757 
L 216.48013 122.648238 
L 216.445341 122.731234 
L 216.475483 122.800812 
L 216.500127 122.814296 
L 216.582992 122.797867 
L 216.56725 122.856187 
L 216.568298 122.927991 
L 216.607374 123.004998 
L 216.746105 123.089598 
L 216.765054 123.168111 
L 216.761585 123.252613 
L 216.779454 123.290773 
L 216.946397 123.484454 
L 217.065131 123.597331 
L 217.296743 123.511978 
L 217.588671 123.268093 
L 217.71958 123.232879 
L 217.980417 123.197664 
L 218.038574 123.130344 
L 218.123632 123.102657 
L 218.170661 123.108646 
L 218.22777 123.151257 
L 218.273654 123.151977 
L 218.50088 123.048755 
L 218.617324 123.039787 
L 218.849066 122.934307 
L 219.959767 122.811842 
L 220.319277 122.681849 
L 220.189546 122.40347 
L 219.644243 122.116124 
L 219.507671 121.91868 
L 219.558137 121.760148 
L 219.490915 121.754159 
L 219.470788 121.704054 
L 219.281525 121.360744 
L 219.50813 120.776692 
L 219.122536 120.449811 
L 219.179743 120.235938 
L 219.479166 120.203865 
L 219.68921 119.580933 
L 220.563488 119.190103 
L 221.855138 119.37763 
L 221.958393 119.412747 
L 222.045939 119.511452 
L 222.379103 119.495678 
L 222.372361 119.453296 
L 222.348798 119.423154 
L 222.48118 119.28403 
L 222.769508 119.338587 
L 222.791959 119.393176 
L 222.812151 119.396939 
L 223.308069 119.289987 
L 223.292392 119.178583 
L 223.342891 119.114993 
L 223.840117 118.91696 
L 224.400148 118.839331 
L 224.448126 119.151223 
L 226.127922 119.200445 
L 226.414057 119.225055 
L 226.59576 119.081448 
L 226.978408 119.037299 
L 227.33975 119.05003 
L 227.555096 119.388823 
L 227.650464 119.420241 
L 227.669511 119.489787 
L 227.587595 119.555569 
L 227.623366 119.850966 
L 227.912708 119.901922 
L 228.136858 120.142763 
L 229.142863 120.289021 
L 228.722415 121.0733 
L 228.752328 121.404598 
L 228.910074 121.629763 
L 228.931968 122.119593 
L 229.489381 122.290004 
L 229.776497 122.696249 
L 229.881781 122.717881 
L 229.88404 122.744063 
L 229.876218 122.764256 
L 229.90312 122.800158 
L 229.938923 122.803136 
L 230.094476 122.700634 
L 230.116895 122.645292 
L 230.045091 122.611321 
L 230.070815 122.526852 
L 230.121182 122.506659 
L 230.470546 122.508066 
L 230.638536 122.569365 
L 230.639681 122.585041 
L 230.659023 122.643525 
L 230.71502 122.718176 
L 230.711289 122.807751 
L 230.532139 122.863747 
L 230.528376 122.968245 
L 230.483605 123.072777 
L 230.528376 123.181006 
L 230.672376 123.181366 
L 230.741136 123.192199 
L 230.942147 123.264363 
L 231.050704 123.259126 
L 231.087653 123.212751 
L 231.197388 123.140948 
L 231.469385 123.087897 
L 231.739156 123.058017 
L 231.903775 122.988504 
L 232.171321 123.01102 
L 232.191939 123.024537 
L 232.223881 123.045417 
L 232.296667 123.048427 
L 232.63366 123.02686 
L 232.920973 123.366505 
L 233.471087 123.63572 
L 233.585633 124.030542 
L 234.193085 123.978015 
L 234.401166 123.945059 
L 234.566733 123.939789 
L 234.646228 123.956219 
L 235.176509 123.876167 
L 235.219022 123.977099 
L 235.396895 124.063859 
L 235.749892 124.167122 
L 235.7549 124.168586 
L 235.960722 124.179092 
L 236.052326 124.37359 
L 236.146286 124.378074 
L 236.308548 124.24651 
L 236.848877 124.24147 
L 236.895873 124.21159 
L 236.973175 124.103917 
L 237.111841 124.096292 
L 237.200139 124.221441 
L 237.359325 124.298481 
L 237.493573 124.311114 
L 237.593096 124.289383 
L 237.580627 124.11367 
L 237.693602 124.124077 
L 238.476767 124.289121 
L 238.621161 124.460351 
L 238.585422 124.617376 
L 238.558619 124.66974 
L 238.264629 124.90685 
L 238.226632 124.969686 
L 238.16085 125.220967 
L 238.203363 125.266589 
L 238.39112 125.183527 
L 238.658339 125.153548 
L 238.791375 125.217105 
L 238.798215 125.579037 
L 238.727819 125.777201 
L 238.686484 125.808619 
L 238.848616 126.047889 
L 238.910078 126.068081 
L 238.98715 126.069554 
L 239.016212 126.10022 
L 239.02518 126.170518 
L 238.966041 126.491344 
L 238.82983 126.718668 
L 238.700361 126.781145 
L 238.565295 126.980847 
L 238.556393 127.018974 
L 238.57315 127.051865 
L 238.850088 127.089993 
L 239.199649 126.997963 
L 239.243209 126.956825 
L 239.21526 126.900763 
L 239.526857 126.809519 
L 239.49557 126.953094 
L 239.370486 127.150538 
L 239.590446 127.267931 
L 239.722207 127.295651 
L 239.897527 127.259782 
L 240.028175 127.259815 
L 240.104069 127.303931 
L 240.17332 127.243386 
L 240.187884 127.157378 
L 240.495063 127.070716 
L 240.529656 127.0842 
L 240.548637 127.116371 
L 240.484917 127.22028 
L 240.923333 127.633987 
L 241.738898 127.471004 
L 242.599693 127.462495 
L 243.028421 127.32036 
L 243.571073 127.262793 
L 243.777583 127.434808 
L 243.228287 127.751085 
L 243.040923 128.636491 
L 243.121301 128.931102 
L 243.034345 129.209317 
L 243.309844 129.37531 
L 244.119584 129.062797 
L 245.882475 128.578531 
L 246.640014 128.620912 
L 247.136456 128.55428 
L 247.259183 128.600621 
L 247.241347 128.738207 
L 247.53694 129.100892 
L 247.511282 129.170437 
L 247.553664 129.194361 
L 247.813519 129.215306 
L 248.329956 129.054615 
L 249.07398 128.938204 
L 249.455744 128.669185 
L 249.736905 128.534512 
L 249.9244 128.614432 
L 250.402939 128.460221 
L 250.74206 128.409297 
L 250.854773 128.486272 
L 250.859256 128.52741 
L 250.989806 128.537098 
L 251.073457 128.521389 
L 251.115839 128.495959 
L 251.143723 128.469778 
L 251.245243 128.430145 
L 251.575494 128.40321 
L 251.669226 128.418919 
L 251.970448 128.415941 
L 252.376594 128.386094 
L 252.84309 128.237413 
L 253.156651 128.23005 
L 253.689059 128.054173 
L 254.18586 127.666812 
L 254.471537 127.54415 
L 254.856902 127.437164 
L 255.641278 126.718766 
L 255.878682 126.80569 
L 256.108624 126.688657 
L 256.765593 126.208744 
L 257.366925 125.924834 
L 257.348009 125.863503 
L 257.342413 125.849299 
L 257.312303 125.792746 
L 257.312303 125.741953 
L 257.339205 125.705757 
L 257.945741 125.556258 
L 258.013879 125.501637 
L 258.115432 125.371513 
L 258.310978 125.293654 
L 258.670815 125.204603 
L 258.855201 125.140981 
L 258.971383 125.00189 
L 259.166995 124.890453 
L 259.218409 124.901646 
L 259.24302 124.939021 
L 259.39841 124.941246 
L 259.729316 124.875431 
L 259.815422 124.744588 
L 260.023437 124.66758 
L 260.447223 124.615315 
L 260.701024 124.60638 
L 260.711104 124.605627 
L 260.735649 124.622089 
L 260.835117 124.637702 
L 260.840737 124.638584 
L 261.082297 124.585565 
L 261.13273 124.507085 
L 261.468382 124.324074 
L 261.764826 124.254659 
L 261.735829 124.174641 
L 262.628762 123.624036 
L 264.326101 123.282199 
L 264.657334 123.259093 
L 264.9238 123.038642 
L 265.622496 122.76226 
L 265.754355 122.936533 
L 265.961977 123.024078 
L 266.224712 123.011216 
L 266.870324 122.806147 
L 266.992332 122.834522 
L 267.137903 122.967558 
L 267.183852 123.124551 
L 267.116827 123.334661 
L 267.123536 123.354101 
L 267.186209 123.392981 
L 267.198547 123.422141 
L 267.279351 124.189925 
L 267.301867 124.631776 
L 267.231601 125.014588 
L 267.353478 125.11925 
L 267.5647 125.008566 
L 267.588166 124.874711 
L 267.578086 124.798457 
L 267.728992 124.761082 
L 267.788261 124.826864 
L 267.840821 124.929301 
L 268.072203 124.92629 
L 268.282346 124.986115 
L 268.397349 125.463869 
L 268.531433 125.590262 
L 268.882336 125.540222 
L 268.963958 125.440829 
L 269.033242 125.416153 
L 269.142747 125.445345 
L 269.196355 125.506677 
L 269.156002 125.677873 
L 269.139017 125.938808 
L 268.88538 126.044158 
L 268.524462 126.239965 
L 268.486466 126.32594 
L 268.573586 126.370809 
L 268.621597 126.369304 
L 268.737092 126.362137 
L 268.809452 126.385275 
L 268.835503 126.414239 
L 268.835503 126.431617 
L 268.82706 126.45757 
L 268.749954 126.55477 
L 268.841492 126.626541 
L 268.96098 126.653508 
L 269.178846 126.744556 
L 269.201133 126.797639 
L 269.206729 126.805887 
L 269.263577 126.915032 
L 269.26469 126.925472 
L 269.303733 126.959902 
L 269.430977 126.9906 
L 269.479905 127.196226 
L 269.678232 127.52903 
L 269.675941 127.589576 
L 270.003771 127.828976 
L 270.333925 127.710667 
L 271.571607 127.663998 
L 272.130754 127.516692 
L 273.604172 127.418346 
L 274.085591 127.145695 
L 274.299497 127.144091 
L 274.436821 127.124586 
L 274.755978 127.010858 
L 275.24499 126.959149 
L 275.273986 126.886625 
L 275.547489 126.754996 
L 275.623416 126.750479 
L 275.7161 126.837207 
L 275.754064 126.849152 
L 275.931577 126.829712 
L 276.07453 126.79309 
L 276.297829 126.823756 
L 276.410574 126.97476 
L 275.955075 127.305895 
L 276.029726 127.49483 
L 276.132523 127.573539 
L 276.378076 127.66403 
L 277.679413 127.552954 
L 277.882454 127.618834 
L 277.9718 127.558321 
L 278.058723 127.545034 
L 278.364299 127.573277 
L 278.381022 127.551579 
L 278.388844 127.540354 
L 278.441241 127.490248 
L 278.569663 127.565717 
L 278.661168 127.563426 
L 278.782783 127.521503 
L 278.883158 127.464688 
L 278.97018 127.354757 
L 279.186704 127.334531 
L 279.294933 127.244793 
L 279.36749 127.249997 
L 279.442272 127.292608 
L 279.808425 127.36955 
L 279.960215 127.421128 
L 280.088571 127.514565 
L 280.252634 127.57439 
L 281.172338 127.368175 
L 281.405618 127.366015 
L 281.72471 127.521634 
L 281.832939 127.531386 
L 281.955634 127.591997 
L 281.982339 127.669758 
L 282.015787 127.710143 
L 282.091616 127.756518 
L 282.34414 127.829827 
L 282.393231 127.820827 
L 282.418791 127.741561 
L 282.569435 127.710863 
L 283.025818 127.696496 
L 283.255695 127.726343 
L 283.33604 127.715118 
L 283.360586 127.694925 
L 283.378422 127.67771 
L 283.525728 127.657518 
L 283.566997 127.540877 
L 283.80018 127.45487 
L 284.21981 127.409248 
L 284.378341 127.359928 
L 284.599316 127.365917 
L 284.845916 127.451172 
L 285.002124 127.561823 
L 285.132673 127.566339 
L 285.613798 127.426692 
L 285.929617 127.42535 
L 286.293414 127.45991 
L 286.95035 127.301968 
L 287.248333 127.26672 
L 287.519577 127.320491 
L 287.682494 127.327921 
L 288.217128 127.259095 
L 288.426943 127.273299 
L 288.822092 127.126091 
L 289.227192 127.215109 
L 289.669207 127.197306 
L 289.848913 127.152535 
L 289.896957 127.119676 
L 290.144735 127.136204 
L 290.260787 127.148247 
L 290.39163 127.257295 
L 290.508042 127.281317 
L 290.546987 127.300004 
L 290.589435 127.350044 
L 290.797057 127.392557 
L 291.602804 127.381855 
L 292.184238 127.496139 
L 292.71537 127.652379 
L 292.997611 127.805642 
L 293.110291 127.816147 
L 293.632325 127.939595 
L 293.829703 128.033849 
L 293.985486 128.448701 
L 294.10913 128.607232 
L 294.24629 128.583374 
L 294.274206 128.552741 
L 294.32549 128.567698 
L 294.672203 128.922102 
L 294.804095 129.201594 
L 294.733011 129.443056 
L 294.70984 129.647864 
L 294.775786 129.800308 
L 294.82936 129.87653 
L 294.965375 129.966137 
L 295.017772 129.972094 
L 295.085713 129.94817 
L 295.114677 129.952621 
L 295.348743 130.036992 
L 295.471373 130.140116 
L 295.640835 130.33216 
L 295.79678 130.326891 
L 296.087563 130.429229 
L 296.218963 130.28572 
L 296.745906 130.294654 
L 296.794932 130.375393 
L 296.807172 130.465818 
L 296.868437 130.539062 
L 297.166649 130.809848 
L 297.372569 130.974139 
L 297.506195 131.02647 
L 297.716632 131.059394 
L 297.760061 131.078834 
L 297.866883 131.173809 
L 297.959273 131.211969 
L 298.315542 131.254318 
L 298.50595 131.251045 
L 298.748918 131.283315 
L 298.815714 131.2661 
L 298.916907 131.136729 
L 299.590502 131.053471 
L 299.633931 131.04447 
L 299.749622 130.890488 
L 299.754236 130.761346 
L 299.75224 130.742463 
L 299.75224 130.727866 
L 299.766836 130.715364 
L 299.783527 130.711208 
L 299.881186 130.733659 
L 300.033041 130.821957 
L 300.105826 130.825754 
L 300.152954 130.796823 
L 300.407932 130.454724 
L 300.47702 130.326171 
L 300.499307 130.311967 
L 300.903719 130.242421 
L 300.950486 130.347083 
L 300.986159 130.355298 
L 301.221207 130.331407 
L 301.271345 130.319462 
L 301.30368 130.244712 
L 301.335982 130.228283 
L 301.414004 130.210349 
L 301.713688 130.22236 
L 301.820674 130.20521 
L 302.000118 130.09613 
L 302.326638 130.054403 
L 302.806192 130.042752 
L 302.973364 130.080028 
L 303.011327 130.152519 
L 303.026938 130.157003 
L 303.139455 130.139003 
L 303.214073 130.108338 
L 303.395743 130.15985 
L 303.400226 130.191236 
L 303.633081 130.184429 
L 303.648692 130.179192 
L 303.630823 130.144796 
L 303.662012 130.135828 
L 303.693234 130.146269 
L 303.731591 130.21817 
L 303.714212 130.233421 
L 303.666758 130.231654 
L 303.624245 130.266607 
L 303.633212 130.358571 
L 303.723442 130.333862 
L 303.790271 130.271058 
L 303.860405 130.244123 
L 303.89274 130.268047 
L 303.882824 130.470629 
L 303.899547 130.50352 
L 303.988664 130.478058 
L 304.153544 130.473542 
L 304.188072 130.494487 
L 304.221519 130.54456 
L 304.337374 130.599117 
L 304.373047 130.602848 
L 304.784069 130.453316 
L 304.862091 130.4578 
L 304.87875 130.485455 
L 304.913277 130.484702 
L 305.081528 130.469746 
L 305.176241 130.43836 
L 305.27763 130.429425 
L 305.340009 130.448113 
L 305.348911 130.473542 
L 305.422416 130.534088 
L 305.495922 130.563248 
L 305.571686 130.547571 
L 305.624082 130.458618 
L 305.825715 130.480349 
L 305.866886 130.559615 
L 305.951486 130.65531 
L 306.021621 130.687481 
L 306.087338 130.680019 
L 306.127494 130.638161 
L 306.205483 130.603077 
L 306.335804 130.61283 
L 306.389215 130.676386 
L 306.449368 130.682408 
L 306.472768 130.671935 
L 306.476138 130.644281 
L 306.460593 130.588219 
L 306.423873 130.538866 
L 306.476269 130.501491 
L 306.871812 130.429196 
L 307.023438 130.454626 
L 307.108103 130.447851 
L 307.164853 130.401476 
L 307.229391 130.299007 
L 307.310653 130.23244 
L 307.354082 130.224225 
L 307.385337 130.260094 
L 307.414431 130.397615 
L 307.374406 130.498546 
L 307.436882 130.591229 
L 307.638548 130.650204 
L 307.864694 130.664342 
L 308.052975 130.746521 
L 308.151026 130.809881 
L 308.278106 130.92675 
L 308.314433 130.940332 
L 308.652703 130.870917 
L 308.861602 130.710226 
L 311.318182 130.330654 
L 311.235938 130.635542 
L 311.117956 130.729012 
L 309.606705 131.040412 
L 309.278319 131.221591 
L 309.233025 131.43674 
L 309.165083 131.629243 
L 308.598899 131.87833 
L 308.078044 131.912301 
L 307.827352 131.753705 
L 307.319359 131.43674 
L 306.889092 131.357475 
L 306.651295 131.459388 
L 306.48144 131.674537 
L 306.379527 131.855683 
L 306.388855 132.120906 
L 306.439877 132.302575 
L 306.39864 132.324993 
L 305.709042 132.402688 
L 304.498032 132.727605 
L 303.447125 133.25265 
L 303.191557 133.48377 
L 302.498555 133.849989 
L 301.358825 134.361681 
L 299.381407 134.929861 
L 298.804751 134.923414 
L 297.100671 135.320462 
L 296.865197 135.462466 
L 296.973983 135.688219 
L 296.765215 135.821256 
L 295.443129 136.352944 
L 294.152559 136.652105 
L 293.202451 136.776632 
L 292.244718 136.988149 
L 292.237649 137.098702 
L 292.12906 137.243488 
L 291.906677 137.233146 
L 291.716662 137.252062 
L 290.779351 137.502786 
L 290.279343 137.491659 
L 289.339675 137.586994 
L 288.751729 137.79622 
L 288.461077 138.067333 
L 287.102598 138.130562 
L 286.459538 138.242981 
L 284.916182 138.69164 
L 284.57621 138.771069 
L 284.326894 138.769302 
L 284.016376 138.864539 
L 283.793569 138.958761 
L 283.713976 139.106197 
L 281.961492 139.279227 
L 281.713124 139.371812 
L 280.810929 139.473954 
L 280.276754 139.589744 
L 280.139299 139.760188 
L 279.600836 139.923955 
L 277.023885 140.524339 
L 276.559615 140.942889 
L 275.457914 141.254649 
L 273.39992 142.058564 
L 272.138445 142.470339 
L 270.516969 143.100373 
L 266.185734 145.307604 
L 264.902036 146.093943 
L 264.815865 146.182144 
L 264.826534 146.311842 
L 264.681029 146.428875 
L 264.513203 146.522312 
L 264.231748 146.547708 
L 263.868572 146.694196 
L 261.117774 148.316425 
L 260.796358 148.536614 
L 260.380688 148.592611 
L 259.331253 149.501056 
L 258.681386 149.988007 
L 258.398328 150.056145 
L 257.681173 150.454993 
L 257.578508 150.653059 
L 257.065016 151.049158 
L 256.752306 151.13582 
L 256.309701 151.546548 
L 255.696554 152.403481 
L 255.124611 152.760209 
L 254.063918 153.552407 
L 253.68739 154.026495 
L 253.28324 154.393042 
L 253.170723 154.386856 
L 253.015367 154.463602 
L 252.433442 154.829297 
L 251.204825 155.711856 
L 250.29399 156.572814 
L 250.164619 156.767312 
L 249.628283 157.059993 
L 249.208391 157.403859 
L 248.834187 157.514379 
L 248.168185 157.899384 
L 247.080786 158.782826 
L 246.91931 158.979255 
L 246.25213 159.420715 
L 245.57955 159.521777 
L 245.281862 159.655631 
L 244.895843 159.994949 
L 243.095054 160.590717 
L 242.516075 161.285617 
L 242.206441 161.45773 
L 242.076186 161.461526 
L 241.807037 161.596265 
L 241.360276 161.898633 
L 241.021875 162.210328 
L 240.959488 162.327835 
L 240.779693 162.666482 
L 240.269843 162.900634 
L 240.266397 162.902217 
L 240.062538 163.065559 
L 238.81327 163.361774 
L 237.7513 164.094638 
L 236.435596 165.110952 
L 236.325141 165.304633 
L 235.887763 165.507715 
L 235.46847 165.702401 
L 234.839549 165.916045 
L 234.552072 165.91814 
L 234.339442 165.980976 
L 233.359684 166.532857 
L 232.968526 166.618734 
L 232.207779 167.093019 
L 231.929564 167.335201 
L 231.671433 167.449312 
L 230.685892 167.884988 
L 229.635312 168.454443 
L 229.213096 168.811172 
L 228.708506 168.975136 
L 227.219968 169.753686 
L 227.115241 169.946778 
L 226.329752 170.2642 
L 226.110689 170.442189 
L 226.067933 170.476928 
L 226.257752 170.941656 
L 227.03663 171.864567 
L 228.303211 172.996933 
L 228.646815 173.139952 
L 228.483211 173.219479 
L 228.034814 173.059115 
L 226.218446 171.740171 
L 225.606445 171.743443 
L 225.331535 171.759807 
L 224.634443 172.057626 
L 224.457715 172.21799 
L 224.454409 172.430718 
L 224.523137 172.525627 
L 224.3595 172.829991 
L 224.280955 172.856173 
L 224.068227 172.829991 
L 223.672226 172.699049 
L 223.443135 172.787413 
L 223.292589 172.803777 
L 222.95877 172.777595 
L 222.880224 172.82014 
L 222.821315 172.983777 
L 222.687133 173.101595 
L 222.549678 173.157232 
L 222.448223 173.219414 
L 222.415463 173.268505 
L 222.431827 173.40596 
L 222.651133 173.47796 
L 223.155134 173.507415 
L 223.325316 173.618688 
L 223.371134 173.671051 
L 223.384225 173.798688 
L 223.335134 173.893597 
L 223.21077 173.998325 
L 223.007828 174.04087 
L 222.847464 174.11287 
L 222.618373 174.325598 
L 222.467827 174.433598 
L 222.422009 174.505599 
L 222.530009 174.695417 
L 222.549645 174.77069 
L 222.526736 174.823054 
L 222.369645 174.924509 
L 222.19619 174.989963 
L 222.065281 174.993236 
L 221.832916 174.901599 
L 221.66928 174.891781 
L 221.436916 174.986691 
L 221.211064 175.012872 
L 220.749641 174.701963 
L 220.648187 174.754326 
L 220.441972 174.953963 
L 220.291459 174.963781 
L 220.219458 174.895054 
L 220.167095 174.744508 
L 220.032912 174.705235 
L 219.86273 174.69869 
L 219.780912 174.649566 
L 219.751457 174.567748 
L 219.741639 174.420475 
L 219.614002 174.394293 
L 219.584548 174.46302 
L 219.584548 174.55217 
L 219.584548 174.554657 
L 219.604021 175.808147 
L 219.602384 176.47225 
L 219.591617 179.766323 
L 219.57869 180.041625 
L 219.574141 180.59223 
L 219.567039 182.122823 
L 219.563111 182.486652 
L 219.562686 182.606304 
L 219.558137 185.72607 
L 219.565239 185.810572 
L 219.564551 185.963867 
L 219.562031 185.992536 
L 219.563373 186.21001 
L 219.563341 186.301254 
L 219.557875 186.508483 
L 219.555682 186.602018 
L 219.537846 188.273927 
L 219.539842 188.910965 
L 219.530057 190.367495 
L 219.533755 190.800642 
L 219.535012 191.112108 
L 219.540759 192.535649 
L 219.523119 193.69675 
L 219.524297 193.826645 
L 219.373587 193.87207 
L 219.107907 193.891019 
L 218.696426 193.993161 
L 218.416967 194.094911 
L 218.353542 194.12646 
L 218.25189 194.2089 
L 218.172592 194.316082 
L 218.077552 194.554108 
L 218.066065 194.620806 
L 217.978093 194.774199 
L 217.906715 194.853858 
L 217.90197 194.921702 
L 217.940424 195.130371 
L 217.897355 195.327259 
L 217.881024 195.363095 
L 217.812264 195.428583 
L 217.716176 195.487655 
L 217.692515 195.54447 
L 217.682206 195.639641 
L 217.693398 195.705031 
L 217.635045 195.747478 
L 217.431972 195.821834 
L 217.295303 195.83198 
L 216.949178 195.796143 
L 216.65496 195.703329 
L 216.29581 195.621314 
L 215.785983 195.389277 
L 215.707765 195.368692 
L 215.378953 195.384728 
L 215.121749 195.467463 
L 214.890301 195.565939 
L 214.673253 195.731376 
L 214.604624 195.875376 
L 214.606653 195.960991 
L 214.43202 196.187104 
L 214.366664 196.246374 
L 214.3233 196.333396 
L 214.300947 196.386119 
L 214.309522 196.492745 
L 214.20738 196.580127 
L 214.011572 196.658444 
L 213.944972 196.750473 
L 213.956066 196.836055 
L 213.980416 196.866033 
L 214.055394 196.908284 
L 214.051401 196.934106 
L 213.945986 197.037524 
L 213.786506 197.117903 
L 213.675004 197.146015 
L 213.455174 197.111979 
L 213.286465 197.050452 
L 213.078221 197.060663 
L 212.70058 196.915517 
L 212.145753 196.78716 
L 212.062495 196.7778 
L 211.898204 196.809153 
L 211.784836 196.852582 
L 211.549428 196.986764 
L 211.288493 197.238765 
L 211.197609 197.273521 
L 211.153526 197.308539 
L 211.125184 197.54506 
L 211.151824 197.666806 
L 211.108362 197.823864 
L 211.083915 197.843141 
L 210.778798 197.86425 
L 210.500353 197.95785 
L 210.332528 197.959257 
L 210.146865 198.019901 
L 209.833566 198.166421 
L 209.4303 198.197774 
L 209.238223 198.286236 
L 209.156214 198.335332 
L 209.04235 198.403498 
L 208.767244 198.381996 
L 208.603509 198.463946 
L 208.553207 198.473044 
L 208.322283 198.400062 
L 208.240203 198.415378 
L 208.20381 198.435833 
L 208.197952 198.470622 
L 208.251658 198.683579 
L 208.230647 198.729921 
L 207.673987 198.733619 
L 207.561929 198.782874 
L 207.208375 199.00182 
L 207.018066 199.138456 
L 206.99712 199.175831 
L 207.032139 199.288806 
L 207.003666 199.325068 
L 206.7642 199.404628 
L 206.271359 199.64969 
L 206.13122 199.659377 
L 205.986009 199.700417 
L 205.828885 199.805014 
L 205.546612 200.06356 
L 205.124069 200.577281 
L 205.044051 200.732802 
L 205.056061 200.87114 
L 204.95261 201.249108 
L 204.929276 201.291555 
L 204.747115 201.449563 
L 204.628544 201.473716 
L 204.292173 201.649658 
L 204.218405 201.698095 
L 204.106019 201.818466 
L 204.08851 201.91439 
L 204.113874 201.992706 
L 204.212612 202.219539 
L 204.273682 202.29982 
L 204.341624 202.439205 
L 204.345944 202.591126 
L 204.306834 202.676511 
L 204.214445 202.765104 
L 203.998543 202.871403 
L 203.879579 202.962385 
L 203.734564 203.13309 
L 203.632422 203.376942 
L 203.574953 203.687884 
L 203.468654 203.978045 
L 203.009686 204.323057 
L 202.879268 204.380853 
L 202.83538 204.449024 
L 202.790315 204.52469 
L 202.643402 204.633377 
L 202.541881 204.681257 
L 202.423408 204.70325 
L 202.114004 204.879552 
L 202.016869 204.97564 
L 201.961102 204.99508 
L 201.789872 205.005487 
L 201.62185 205.096404 
L 201.555479 205.124582 
L 201.366577 205.138066 
L 201.316275 205.17652 
L 201.311399 205.281248 
L 201.298439 205.299084 
L 201.217537 205.321306 
L 200.916674 205.351121 
L 200.815547 205.404074 
L 200.700837 205.504056 
L 200.684605 205.583452 
L 200.71167 205.686511 
L 200.616335 206.086406 
L 200.673608 206.16829 
L 200.669681 206.185144 
L 200.494819 206.438552 
L 200.448902 206.887735 
L 200.382106 207.204634 
L 200.265204 207.405416 
L 200.216669 207.555995 
L 200.160247 207.84573 
L 200.115869 207.906897 
L 200.087658 208.075181 
L 200.119272 208.148131 
L 200.123723 208.258553 
L 200.081603 208.42304 
L 200.084189 208.534902 
L 200.128894 208.705052 
L 200.249953 208.902136 
L 200.264385 209.017402 
L 200.186789 209.188075 
L 200.136323 209.394977 
L 200.137011 209.519275 
L 200.239905 209.684548 
L 200.185022 210.044975 
L 200.224458 210.15412 
L 200.309975 210.221997 
L 200.639015 210.412732 
L 201.445254 210.447619 
L 201.532439 210.460056 
L 201.847505 210.559514 
L 202.202499 210.630271 
L 202.569896 210.624118 
L 202.916151 210.567434 
L 203.287934 210.434528 
L 203.432 210.402685 
L 203.75119 210.383375 
L 203.835495 210.391328 
L 203.939863 210.433743 
L 204.124739 210.543281 
L 204.375693 210.742689 
L 204.746003 210.889406 
L 205.38448 211.278992 
L 205.42768 211.360647 
L 205.431346 211.421945 
L 205.320957 211.784957 
L 205.330088 212.008844 
L 205.365008 212.151176 
L 205.44159 212.224452 
L 205.720525 212.405991 
L 205.848947 212.5171 
L 206.165289 212.852064 
L 206.394773 213.184705 
L 206.512363 213.401 
L 206.670305 213.531975 
L 206.884964 213.791405 
L 206.983637 213.839841 
L 207.510154 213.989929 
L 207.758293 214.085885 
L 207.786144 214.112689 
L 207.98565 214.53461 
L 207.980217 214.655898 
L 207.902195 214.927894 
L 207.865639 215.269895 
L 207.891886 215.360223 
L 207.97449 215.430357 
L 207.983228 215.464328 
L 207.934759 215.654278 
L 207.855788 215.788951 
L 207.860631 215.946075 
L 207.596718 216.026224 
L 207.412921 216.116192 
L 207.236095 216.253581 
L 207.066269 216.457983 
L 206.99208 216.547276 
L 206.933335 216.676091 
L 206.950778 216.761084 
L 206.919033 216.790342 
L 206.352653 217.090812 
L 206.149057 217.256314 
L 206.11682 217.326416 
L 206.105398 217.413798 
L 206.253653 217.781621 
L 206.27342 217.881668 
L 206.271882 217.979523 
L 206.239515 218.066512 
L 206.08118 218.301822 
L 205.911849 218.47279 
L 205.330317 218.865976 
L 205.17136 219.031707 
L 205.02317 219.154926 
L 204.746537 219.305976 
L 204.574904 219.399693 
L 204.316653 219.465639 
L 204.241281 219.529032 
L 204.2133 219.594977 
L 204.2133 219.662887 
L 204.254307 219.862883 
L 204.339169 219.993957 
L 204.514457 220.166004 
L 204.547413 220.285623 
L 204.545777 220.424517 
L 204.431558 220.585961 
L 204.310205 220.694813 
L 204.266285 220.819406 
L 204.356154 221.188963 
L 204.357693 221.443647 
L 204.414115 221.59344 
L 204.473057 221.693062 
L 204.529969 221.753739 
L 204.545809 221.831793 
L 204.470537 222.024885 
L 204.339627 222.129612 
L 204.205445 222.208158 
L 204.146536 222.283431 
L 204.047568 222.602686 
L 204.03199 222.764523 
L 204.051627 222.918341 
L 204.114987 223.005199 
L 204.523031 223.296342 
L 204.518515 223.366509 
L 204.37566 223.582706 
L 204.347253 223.73479 
L 204.349478 223.900161 
L 204.378933 224.01798 
L 204.62046 224.467948 
L 204.742632 224.959022 
L 204.743671 224.96022 
L 204.833254 225.063553 
L 204.908985 225.111466 
L 204.944428 225.174924 
L 204.942596 225.204935 
L 204.912323 225.277001 
L 204.767374 225.443485 
L 204.708104 225.484656 
L 204.458133 225.612456 
L 204.091096 225.855162 
L 203.815924 226.070901 
L 203.242607 226.381516 
L 203.226478 226.39911 
L 203.217015 226.409432 
L 202.93749 226.714353 
L 202.894551 226.777255 
L 202.870071 226.847684 
L 202.864573 226.992503 
L 202.898053 227.108848 
L 203.060872 227.330576 
L 203.185203 227.44414 
L 203.361014 227.563988 
L 203.658669 227.701083 
L 203.935314 227.881868 
L 204.123758 228.046683 
L 204.207016 228.192222 
L 204.212121 228.252866 
L 204.191536 228.315571 
L 204.008754 228.689841 
L 203.906873 228.943053 
L 203.919866 229.180228 
L 203.978285 229.374497 
L 203.935837 229.533814 
L 203.937212 229.676505 
L 203.965325 229.899607 
L 203.994779 229.97524 
L 204.038208 230.032677 
L 204.251492 230.134295 
L 204.451064 230.435779 
L 204.57546 230.900508 
L 204.580599 231.040188 
L 204.418702 231.651165 
L 204.354387 231.893881 
L 204.316947 231.967026 
L 204.288965 232.003746 
L 204.230547 232.034936 
L 203.845608 232.216147 
L 203.815531 232.258169 
L 203.797564 232.323591 
L 203.786568 232.49662 
L 203.818019 232.588257 
L 203.960154 232.81833 
L 204.139172 233.049451 
L 204.163096 233.106331 
L 204.153147 233.173029 
L 204.042005 233.348513 
L 203.97655 233.499059 
L 203.976857 233.503587 
L 203.976927 233.504628 
L 203.99383 233.754299 
L 204.101699 234.189508 
L 204.101699 234.316621 
L 204.074732 234.389275 
L 203.967877 234.49289 
L 203.873001 234.615749 
L 203.860008 234.67168 
L 203.884913 234.778698 
L 203.860008 234.832469 
L 203.605815 235.121615 
L 203.570862 235.225721 
L 203.522916 235.594787 
L 203.449509 235.785522 
L 203.332672 235.93309 
L 203.094974 236.120879 
L 202.955097 236.273945 
L 202.792311 236.56908 
L 202.724402 236.878419 
L 202.703914 237.121878 
L 202.725875 237.158074 
L 202.833286 237.221271 
L 202.871249 237.273176 
L 202.880923 237.307536 
L 202.886729 237.328158 
L 203.361145 237.581304 
L 204.076303 237.837494 
L 204.372944 238.026494 
L 204.464253 238.061251 
L 204.595162 238.082425 
L 205.018687 238.244917 
L 205.189425 238.35895 
L 205.806139 238.770845 
L 206.207049 239.010867 
L 206.352915 239.152086 
L 206.679534 239.392305 
L 207.393383 240.004829 
L 207.514834 240.086517 
L 207.684394 240.179594 
L 208.460098 240.474565 
L 208.799546 240.803279 
L 208.863495 240.959977 
L 208.863659 241.122992 
L 208.772121 241.309407 
L 208.746691 241.401207 
L 208.752746 241.482665 
L 208.808612 241.587622 
L 208.920899 241.657888 
L 209.034005 241.695197 
L 209.277103 241.67219 
L 209.461195 241.684659 
L 209.822799 241.884819 
L 209.877454 242.023518 
L 209.961923 242.076209 
L 210.011178 242.083638 
L 210.113287 242.050845 
L 210.202993 241.950176 
L 210.258695 241.913685 
L 210.396313 241.926939 
L 210.511153 241.963267 
L 210.583415 242.021161 
L 210.793852 242.244165 
L 211.154475 242.696654 
L 211.17074 242.808777 
L 211.157486 242.864545 
L 211.108493 242.948032 
L 211.097758 243.008316 
L 211.148584 243.094029 
L 211.210668 243.133171 
L 211.332217 243.159549 
L 211.456417 243.150647 
L 211.888876 242.944596 
L 212.100262 242.890727 
L 212.182735 242.891283 
L 212.372358 243.001967 
L 212.496885 243.050273 
L 212.986192 243.189756 
L 213.09537 243.185109 
L 213.282963 243.124171 
L 213.405331 243.117331 
L 213.758524 243.223367 
L 214.252838 243.326459 
L 214.722803 243.295466 
L 214.967898 243.208182 
L 215.038425 243.198822 
L 215.212764 243.237571 
L 215.378757 243.321386 
L 215.562455 243.376433 
L 216.079809 243.444081 
L 216.41497 243.463553 
L 217.093801 243.414953 
L 217.315692 243.423037 
L 217.772271 243.481488 
L 218.147097 243.584416 
L 218.379494 243.686165 
L 218.676495 243.881056 
L 218.760964 243.960518 
L 218.797924 244.01111 
L 218.868506 244.107726 
L 218.974674 244.410716 
L 219.068601 244.550821 
L 219.213583 244.703102 
L 219.229325 244.741589 
L 219.248307 244.812247 
L 219.232107 245.233972 
L 219.256522 245.34207 
L 219.423202 245.589685 
L 219.623395 245.827548 
L 219.906192 246.081414 
L 220.088811 246.214221 
L 220.557074 246.492404 
L 220.995784 246.676495 
L 221.132813 246.76427 
L 221.226871 246.848968 
L 221.380199 247.00727 
L 221.539025 247.137623 
L 221.911757 247.302831 
L 222.105502 247.364457 
L 222.753013 247.518635 
L 223.574404 247.688621 
L 223.830528 247.734112 
L 224.579493 247.817076 
L 225.072236 247.900792 
L 225.183738 247.951291 
L 225.373884 248.099087 
L 225.511699 248.168076 
L 225.959082 248.249371 
L 226.29205 248.334986 
L 226.409907 248.389288 
L 226.574683 248.465208 
L 226.782109 248.493092 
L 227.130001 248.48959 
L 227.298579 248.535245 
L 227.3947 248.579557 
L 227.632431 248.807896 
L 227.898766 248.993362 
L 228.515153 249.239275 
L 228.866121 249.291344 
L 228.944994 249.317559 
L 229.054336 249.373425 
L 229.107987 249.416618 
L 229.141816 249.443854 
L 229.344104 249.547469 
L 229.563213 249.635211 
L 229.671705 249.657171 
L 229.848432 249.659658 
L 229.967952 249.687673 
L 230.120331 249.742458 
L 230.121558 249.743145 
L 230.338491 249.864531 
L 230.471921 249.953157 
L 230.691292 250.163332 
L 230.796707 250.300328 
L 231.067951 250.556191 
L 231.496254 250.736355 
L 231.582458 250.799355 
L 231.810404 251.15533 
L 231.890062 251.305123 
L 231.977019 251.524462 
L 231.97571 251.557189 
L 231.949986 251.627946 
L 231.73176 251.862306 
L 231.631156 251.992365 
L 231.602585 252.066852 
L 231.614432 252.165165 
L 231.69324 252.296206 
L 231.756175 252.339242 
L 232.230492 252.499017 
L 232.462594 252.644392 
L 232.538162 252.725621 
L 232.562249 252.780668 
L 232.525987 253.02812 
L 232.550598 253.112426 
L 232.775631 253.335331 
L 232.818439 253.397153 
L 232.844097 253.475666 
L 232.815788 253.651543 
L 232.650253 254.019693 
L 232.658926 254.152042 
L 232.754097 254.309755 
L 233.065825 254.628225 
L 233.158639 254.747156 
L 233.193756 254.856662 
L 233.203574 255.080746 
L 233.232963 255.151208 
L 233.32424 255.197288 
L 233.585469 255.28215 
L 233.781639 255.399015 
L 234.228005 255.664929 
L 234.629734 255.814493 
L 234.738127 255.878573 
L 235.126437 256.34052 
L 235.428772 256.503273 
L 235.8017 256.664521 
L 236.52769 256.886936 
L 236.721175 257.01886 
L 237.109157 257.238264 
L 237.271878 257.304307 
L 237.962392 257.366031 
L 238.26008 257.449748 
L 238.319938 257.486053 
L 238.340425 257.498479 
L 238.618608 257.772505 
L 238.655295 257.867905 
L 238.700917 258.085084 
L 238.696826 258.273037 
L 238.720259 258.314928 
L 239.118911 258.489561 
L 239.250769 258.512863 
L 239.43185 258.494503 
L 239.569894 258.527852 
L 240.045225 258.869395 
L 240.102269 258.932329 
L 240.161866 259.067526 
L 240.290517 259.287028 
L 240.372695 259.378468 
L 240.528248 259.469287 
L 240.671398 259.617378 
L 240.774685 259.660807 
L 240.817787 259.663131 
L 240.911551 259.631451 
L 240.990751 259.644345 
L 241.146206 259.739942 
L 241.325061 259.88908 
L 241.459767 259.94475 
L 241.734971 260.02683 
L 241.894942 260.10171 
L 241.997968 260.165626 
L 242.121972 260.285932 
L 242.316143 260.571184 
L 242.497682 260.688773 
L 242.807479 260.819388 
L 242.892079 260.834312 
L 243.11253 260.835097 
L 243.579844 260.887003 
L 243.971787 260.988097 
L 244.405424 261.01405 
L 244.715123 261.01405 
L 245.277837 261.09433 
L 245.440099 261.163843 
L 245.674918 261.305225 
L 246.136962 261.448931 
L 246.214592 261.452695 
L 246.542716 261.40524 
L 246.704946 261.419607 
L 246.905793 261.50928 
L 247.456987 261.666372 
L 247.560275 261.716739 
L 247.719264 261.819339 
L 247.805795 261.915525 
L 247.909148 262.09186 
L 247.943152 262.202707 
L 247.959287 262.228595 
L 247.993781 262.283937 
L 248.374826 262.585683 
L 248.438186 262.668123 
L 248.541604 262.856109 
L 248.586899 262.896003 
L 248.944445 263.043931 
L 249.248842 263.213131 
L 249.597159 263.538768 
L 249.875342 263.762165 
L 249.93772 263.846569 
L 249.986615 264.118893 
L 250.176957 264.424305 
L 250.199375 264.446134 
L 250.364746 264.512211 
L 250.493921 264.59668 
L 250.54203 264.658534 
L 250.670845 264.899964 
L 250.808104 265.064681 
L 251.135312 265.203085 
L 251.38201 265.364889 
L 251.555302 265.583606 
L 251.629691 265.781639 
L 251.696651 266.055763 
L 252.013746 266.313196 
L 252.095139 266.410069 
L 252.163081 266.45556 
L 252.350838 266.535153 
L 252.575478 266.720652 
L 252.646497 266.862263 
L 252.786341 267.025801 
L 252.850421 267.447166 
L 252.938785 267.653348 
L 252.971512 267.81044 
L 253.122091 268.124622 
L 253.220273 268.248986 
L 253.285727 268.51735 
L 253.586532 268.804973 
L 253.88467 269.090046 
L 253.890561 269.143097 
L 253.514982 270.065026 
L 253.532262 270.436253 
L 253.498586 270.55682 
L 253.438321 270.693888 
L 253.406164 270.767028 
L 253.322382 270.895843 
L 253.15148 271.07725 
L 253.088741 271.212185 
L 253.11044 271.675997 
L 252.948472 272.299224 
L 252.931748 272.626039 
L 252.980937 273.008753 
L 253.013076 273.069266 
L 253.200145 273.198179 
L 253.239254 273.246582 
L 253.287004 273.439739 
L 253.261444 273.55615 
L 253.088676 273.911275 
L 253.079152 274.304134 
L 253.198836 274.479912 
L 253.312073 274.604342 
L 253.422168 274.692411 
L 253.596964 274.794553 
L 254.049158 275.141561 
L 254.200031 275.280031 
L 254.258678 275.345354 
L 254.286235 275.401351 
L 254.298508 275.605144 
L 254.255242 275.957061 
L 254.202224 276.057239 
L 253.998758 276.279327 
L 253.914812 276.419171 
L 253.894979 276.471273 
L 253.886045 276.586146 
L 253.915827 276.759961 
L 254.12718 277.001456 
L 254.25102 277.294791 
L 254.346388 277.372421 
L 254.589028 277.49361 
L 254.730443 277.606781 
L 254.761174 277.670927 
L 254.744058 277.813945 
L 254.749621 278.061168 
L 253.800234 278.063197 
L 253.307164 278.046669 
L 249.787534 278.052102 
L 249.712818 278.04824 
L 249.537988 278.063393 
L 248.871365 278.050138 
L 247.416078 278.064833 
L 247.28039 278.059924 
L 246.774066 278.058157 
L 246.654284 278.059269 
L 245.80406 278.056586 
L 244.404508 278.06084 
L 244.161867 278.062313 
L 243.841107 278.061528 
L 242.530311 278.061626 
L 241.883665 278.061821 
L 241.88159 278.061822 
L 241.737655 278.061168 
L 241.685225 278.057469 
L 241.668469 278.056684 
L 241.557916 278.057011 
L 241.399974 278.055375 
L 241.117439 278.063491 
L 241.109224 278.0648 
L 241.07221 278.064015 
L 240.936522 278.060415 
L 240.767911 278.061855 
L 240.556099 278.064309 
L 240.326844 278.061724 
L 239.918702 278.062378 
L 238.940907 278.060153 
L 237.976483 278.056928 
L 237.97185 278.056913 
L 237.874617 278.058778 
L 237.768973 278.060808 
L 237.707184 278.061986 
L 236.955502 278.05832 
L 236.422898 278.055898 
L 236.370468 278.052887 
L 235.531503 278.055735 
L 235.458488 278.05796 
L 234.879476 278.056782 
L 234.025549 278.057731 
L 231.050737 278.061037 
L 230.787543 278.063295 
L 226.53551 278.057999 
L 226.530534 278.057993 
L 226.202737 278.056782 
L 225.747303 278.055113 
L 223.293505 278.055833 
L 222.641413 278.06192 
L 220.067833 278.063917 
L 220.013538 278.064898 
L 217.073837 278.064309 
L 216.439254 278.06336 
L 215.85566 278.063589 
L 215.76723 278.059073 
L 214.454346 278.065417 
L 213.945201 278.067877 
L 211.044804 278.069349 
L 211.043725 278.069349 
L 207.90082 278.077564 
L 207.765853 278.077531 
L 207.135459 278.077368 
L 206.596996 278.077138 
L 206.47417 278.077106 
L 205.998773 278.076909 
L 204.533373 278.076418 
L 203.282239 278.093338 
L 200.665361 278.09396 
L 196.162275 278.092128 
L 195.623038 278.09317 
L 195.620375 278.093175 
L 194.809948 278.093195 
L 190.883289 278.093291 
L 188.929859 278.093338 
L 187.524579 278.100244 
L 183.360516 278.096022 
L 182.39591 278.096251 
L 181.085049 278.096415 
L 180.946252 278.098804 
L 180.644997 278.09612 
L 180.440386 278.098248 
L 180.142928 278.096979 
L 180.141127 278.096971 
L 179.124059 278.09648 
L 179.003099 278.096448 
L 178.137362 278.094844 
L 177.545096 278.094877 
L 176.222813 278.09396 
L 175.195107 278.09361 
L 173.532167 278.093044 
L 173.349843 278.093306 
L 173.223679 278.093437 
L 172.979991 278.093469 
L 171.268974 278.09393 
L 170.425033 278.094157 
L 170.37568 278.094877 
L 164.649475 278.092095 
L 160.652353 278.069284 
L 160.605062 278.069284 
L 160.155748 278.069349 
L 160.096446 278.069906 
L 155.577279 278.068284 
L 151.339067 278.066764 
L 150.909324 278.063818 
L 149.199713 278.060088 
L 149.199293 278.060082 
L 149.061833 278.058255 
L 148.29693 278.06804 
L 145.337789 278.066829 
L 145.179814 278.068368 
L 143.535232 278.061364 
L 135.725208 278.059072 
L 135.616818 278.05904 
L 135.540727 278.061298 
L 135.130555 278.060709 
L 135.081137 278.060938 
L 134.653849 278.062738 
L 133.762618 278.06444 
L 133.758993 278.06444 
L 133.750116 278.06444 
L 133.74848 278.06444 
L 133.104733 278.063131 
L 132.455029 278.063884 
L 131.804344 278.062542 
L 131.146492 278.062051 
L 130.498982 278.050629 
L 129.852453 278.052626 
L 129.214139 278.054 
L 129.188448 278.051022 
L 127.205662 278.057338 
L 126.95173 278.054458 
L 125.894539 278.064473 
L 125.490094 278.053935 
L 125.470556 278.050204 
L 125.060417 278.053837 
L 123.930833 278.050204 
L 122.952089 278.040026 
L 122.758408 278.06588 
L 122.751634 278.063982 
L 118.701036 278.068891 
L 118.683625 278.068629 
L 118.273941 278.071308 
L 118.273126 278.071313 
L 118.271849 278.071313 
L 116.755002 278.068891 
L 116.751926 278.067386 
L 116.092796 278.058086 
L 116.083863 278.05796 
L 116.083863 278.060742 
L 115.417567 278.068204 
L 115.035573 278.0702 
L 115.033413 278.071117 
L 114.117997 278.083586 
L 106.72034 278.082637 
L 106.695598 278.082735 
L 104.086967 278.080313 
L 103.656799 278.08028 
L 102.788716 278.08028 
L 102.781964 278.08028 
L 96.497969 278.073406 
L 91.741984 278.068204 
L 91.732755 278.068957 
L 91.40391 278.066371 
L 87.370331 278.065586 
L 86.748609 278.068269 
L 83.403842 278.066404 
L 83.400831 275.230579 
L 83.399816 275.193172 
L 83.4007 274.559538 
L 83.399686 274.480992 
L 83.398998 272.35162 
L 83.399915 271.872852 
L 83.403155 268.541274 
L 83.409471 268.093302 
L 83.403724 266.640922 
L 83.403724 266.640767 
L 83.403711 266.637557 
L 83.401387 265.74001 
L 83.402402 265.689151 
L 83.406362 265.686959 
L 83.400831 263.380597 
L 83.402893 263.325222 
L 83.406951 262.810552 
L 83.402795 262.789607 
L 83.39962 262.433533 
L 83.403744 262.360977 
L 83.401616 261.948809 
L 83.402631 261.888197 
L 83.408555 261.490462 
L 83.410616 261.424647 
L 83.400144 260.938417 
L 83.399096 260.883795 
L 83.402107 260.523238 
L 83.406231 260.460402 
L 83.419738 255.275409 
L 83.419747 255.271645 
L 83.423053 253.383506 
L 83.431366 253.361055 
L 83.433002 252.91292 
L 83.433133 252.814574 
L 83.424886 252.46341 
L 83.428715 252.365718 
L 83.434147 251.995179 
L 83.437256 251.94131 
L 83.433002 251.50224 
L 83.436962 251.459989 
L 83.432904 251.046676 
L 83.434966 250.97785 
L 83.436962 250.567187 
L 83.440104 250.515576 
L 83.435096 250.413696 
L 83.435849 250.101968 
L 83.438107 249.928775 
L 83.440693 249.1587 
L 83.442689 248.961976 
L 83.447566 247.264769 
L 83.4511 246.64776 
L 83.437944 246.305072 
L 83.441086 246.234054 
L 83.445929 245.127673 
L 83.444751 244.797782 
L 83.437355 244.472407 
L 83.444555 243.927104 
L 83.445399 243.923642 
L 83.448744 243.909922 
L 83.454242 241.074097 
L 83.4529 241.058192 
L 83.452916 241.0531 
L 83.460035 238.703754 
L 83.470213 238.204989 
L 83.459053 236.826023 
L 83.465369 236.784197 
L 83.457515 236.312825 
L 83.450871 235.845479 
L 83.448744 235.785653 
L 83.450675 235.609187 
L 83.459511 235.354667 
L 83.459493 235.351345 
L 83.444784 232.58554 
L 83.449889 232.042528 
L 83.44354 231.910866 
L 83.433722 230.207768 
L 83.442067 229.725334 
L 83.442066 229.724726 
L 83.437224 227.602246 
L 83.439286 227.345729 
L 83.438206 227.299354 
L 83.437911 225.917148 
L 83.444227 225.874537 
L 83.431398 224.973258 
L 83.433526 224.927636 
L 83.435129 223.144258 
L 83.439777 222.340933 
L 83.440104 222.283987 
L 83.434769 222.148594 
L 83.414066 220.18695 
L 83.41402 220.182564 
L 83.419191 219.684421 
L 83.410158 219.231638 
L 83.376547 219.119351 
L 83.283373 219.050427 
L 83.255882 218.920892 
L 83.12075 218.715561 
L 82.965819 218.608281 
L 82.920557 218.560597 
L 82.896699 218.496942 
L 82.880663 218.353695 
L 82.843328 218.299221 
L 82.550869 217.872505 
L 82.445062 217.655555 
L 82.232039 217.302165 
L 81.808515 217.02719 
L 81.608027 216.949986 
L 81.161135 216.694287 
L 80.861451 216.601015 
L 80.57417 216.540698 
L 80.369592 216.517396 
L 79.840423 216.35245 
L 79.538612 216.228708 
L 79.292666 216.149377 
L 79.100065 216.037777 
L 78.562813 215.793107 
L 78.021306 215.632383 
L 77.580207 215.594878 
L 77.271916 215.595238 
L 77.034184 215.565816 
L 76.563892 215.602307 
L 76.300666 215.552103 
L 76.132251 215.56287 
L 75.968386 215.553609 
L 75.860418 215.519016 
L 75.57281 215.329786 
L 75.263046 215.038218 
L 74.9757 214.688592 
L 74.535059 214.212344 
L 74.301189 214.0311 
L 74.257236 213.974907 
L 74.12312 213.711845 
L 74.070461 213.491786 
L 73.93749 213.320818 
L 73.905516 213.257785 
L 73.899068 213.133749 
L 73.840028 212.993905 
L 73.598566 212.553689 
L 73.345714 212.137005 
L 73.192256 211.923655 
L 72.676604 211.44721 
L 72.551356 211.272839 
L 72.257563 210.964417 
L 72.085352 210.849838 
L 71.990933 210.810925 
L 70.895745 209.805705 
L 70.617367 209.54801 
L 70.605028 209.535835 
L 70.437792 209.386304 
L 70.300271 209.276242 
L 70.165926 209.156624 
L 70.201729 209.055856 
L 70.341311 208.86607 
L 70.366544 208.716441 
L 70.609054 208.056298 
L 70.722454 207.869392 
L 70.885338 207.726897 
L 70.98712 207.659217 
L 71.158317 207.615002 
L 71.199815 207.5791 
L 72.050857 207.114666 
L 73.336714 206.487512 
L 73.457544 206.374963 
L 73.680875 206.118872 
L 73.853152 206.027431 
L 74.963558 205.504285 
L 75.746821 205.230357 
L 76.223299 205.020738 
L 76.552863 204.81305 
L 76.892213 204.547075 
L 77.228814 204.119591 
L 77.302647 203.938641 
L 77.334032 203.782499 
L 77.402105 203.666939 
L 77.602855 203.422957 
L 77.638397 203.323007 
L 77.692331 203.256636 
L 77.771891 203.201491 
L 78.005957 203.098759 
L 78.191947 202.988174 
L 78.352016 202.836712 
L 78.54046 202.598686 
L 78.709301 202.42006 
L 78.823454 202.352249 
L 79.023843 202.268074 
L 79.155014 202.150943 
L 79.264487 201.961255 
L 79.33832 201.722738 
L 79.336684 201.564927 
L 79.369084 201.498981 
L 79.435422 201.395792 
L 79.485593 200.790205 
L 79.438695 200.678671 
L 79.430513 200.619565 
L 79.522019 200.454946 
L 79.496491 200.303484 
L 79.538939 199.969698 
L 79.623441 199.923912 
L 79.63951 199.821443 
L 79.646972 199.576184 
L 79.638397 199.438566 
L 79.672663 199.357042 
L 79.76587 199.225413 
L 79.729183 199.177369 
L 79.696685 199.144871 
L 79.680452 199.020311 
L 79.695768 198.979434 
L 79.77955 198.893394 
L 79.769241 198.843845 
L 79.762663 198.674252 
L 79.79035 198.380065 
L 79.827889 198.319782 
L 79.866867 198.039374 
L 79.840652 197.971857 
L 79.753336 197.885752 
L 79.571797 197.452245 
L 79.50523 196.907793 
L 79.50199 196.601923 
L 79.46527 196.185239 
L 79.450248 196.115693 
L 79.391175 195.99902 
L 79.443702 195.719332 
L 79.368253 195.545856 
L 79.343851 195.48975 
L 79.323397 195.381292 
L 79.463993 195.02008 
L 79.704506 194.578097 
L 79.879598 194.44722 
L 79.934383 194.353718 
L 80.011751 194.139093 
L 80.021438 194.005238 
L 79.97418 193.931961 
L 79.9731 193.901296 
L 80.090296 193.512429 
L 80.030144 193.417455 
L 80.019442 193.078661 
L 79.977551 192.908152 
L 79.937787 192.82365 
L 79.806616 192.726417 
L 79.723227 192.596555 
L 79.684052 192.505343 
L 79.818529 192.456252 
L 79.810936 192.349496 
L 79.582499 192.210601 
L 79.536157 192.146325 
L 79.580601 192.103223 
L 79.60747 191.885618 
L 79.426684 191.576018 
L 79.341691 191.516945 
L 79.27388 191.430217 
L 79.242625 191.311319 
L 79.33076 190.932893 
L 79.323004 190.833205 
L 79.301142 190.758194 
L 79.2386 190.723798 
L 79.163589 190.667539 
L 79.132302 190.58055 
L 79.147193 190.561208 
L 79.108869 190.464041 
L 79.071167 190.457954 
L 79.035429 190.458084 
L 79.013534 190.429972 
L 79.007283 190.404968 
L 79.007283 190.36743 
L 79.013534 190.329924 
L 79.019785 190.279917 
L 79.010425 190.251771 
L 78.976029 190.198622 
L 78.97521 190.052789 
L 79.003192 189.982458 
L 79.004174 189.8704 
L 79.094665 189.805959 
L 79.116167 189.779058 
L 79.138749 189.681072 
L 79.112894 189.579355 
L 79.095647 189.571893 
L 79.035265 189.390944 
L 78.874639 189.120256 
L 78.743141 189.0657 
L 78.681613 188.80771 
L 78.645777 188.353029 
L 78.662991 188.304396 
L 78.790137 188.23184 
L 78.850977 188.207392 
L 78.894767 188.169887 
L 78.916628 188.147992 
L 78.926021 188.122988 
L 78.916628 188.094843 
L 78.897876 188.072981 
L 78.847868 188.054196 
L 78.79161 188.022941 
L 78.779108 187.969824 
L 78.807221 187.916675 
L 78.810363 187.860384 
L 78.779108 187.807268 
L 78.735319 187.754119 
L 78.638413 187.729115 
L 78.6103 187.682217 
L 78.631311 187.630573 
L 78.705439 187.492725 
L 78.76461 187.256368 
L 78.74841 187.20551 
L 78.654057 187.094532 
L 78.641555 187.050775 
L 78.660308 186.994517 
L 78.729068 186.897611 
L 78.729821 186.752334 
L 78.700661 186.709723 
L 78.622802 186.675654 
L 78.591548 186.625647 
L 78.644664 186.516239 
L 78.629053 186.469341 
L 78.592595 186.429316 
L 78.556922 186.307439 
L 78.659261 186.031449 
L 78.653828 185.968646 
L 78.567395 185.802652 
L 78.609253 185.44815 
L 78.567133 185.423506 
L 78.337158 185.376477 
L 78.121125 185.218011 
L 77.947179 185.129091 
L 77.932026 185.089458 
L 78.007528 184.992945 
L 77.92103 184.884552 
L 77.667982 184.820341 
L 77.639967 184.788923 
L 77.645433 184.719377 
L 77.567705 184.683443 
L 77.283599 184.754363 
L 77.150465 184.743792 
L 77.097315 184.690643 
L 77.053559 184.528086 
L 77.084813 184.446824 
L 77.078563 184.396817 
L 76.941566 184.359344 
L 76.794686 184.283776 
L 76.702951 184.134932 
L 76.688976 184.04071 
L 76.44051 184.002256 
L 76.402514 183.973063 
L 76.317259 183.67243 
L 76.338925 183.495931 
L 76.032106 183.012024 
L 75.96076 182.928242 
L 75.917527 182.913286 
L 75.82504 182.94009 
L 75.718741 182.911977 
L 75.693738 182.861937 
L 75.711018 182.811569 
L 75.690629 182.740028 
L 75.51557 182.702522 
L 75.440526 182.658766 
L 75.431166 182.618118 
L 75.446777 182.564969 
L 75.431166 182.514962 
L 75.39677 182.493067 
L 75.284253 182.496209 
L 75.252966 182.427449 
L 75.252966 182.38991 
L 75.290504 182.302397 
L 75.27486 182.233637 
L 75.227962 182.205492 
L 75.127947 182.196099 
L 75.099802 182.180488 
L 75.084191 182.099193 
L 75.031042 182.01479 
L 74.943496 181.986677 
L 74.821587 181.986677 
L 74.737183 181.917884 
L 74.71843 181.861626 
L 74.740685 181.794633 
L 74.790725 181.711309 
L 74.784081 181.624058 
L 74.768437 181.595912 
L 74.734074 181.57716 
L 74.70907 181.499007 
L 74.721572 181.470894 
L 74.818379 181.406945 
L 74.842336 181.234635 
L 74.819558 181.100453 
L 74.757507 181.059806 
L 74.660601 180.944147 
L 74.632455 180.878496 
L 74.64499 180.831631 
L 74.623095 180.809736 
L 74.59495 180.787841 
L 74.519939 180.77534 
L 74.454288 180.744085 
L 74.447873 180.668452 
L 74.179214 180.587779 
L 74.138567 180.547165 
L 74.141676 180.506517 
L 74.182323 180.425255 
L 74.166713 180.390859 
L 74.113563 180.356462 
L 74.085418 180.293953 
L 74.091669 180.231444 
L 74.197313 180.085185 
L 74.228665 179.987985 
L 74.166909 179.964814 
L 74.094811 179.871934 
L 74.154178 179.734381 
L 74.154178 179.690624 
L 74.066665 179.59061 
L 74.145702 179.456035 
L 74.104432 179.319955 
L 74.069512 179.052998 
L 73.953494 178.946863 
L 73.877534 178.816935 
L 73.877534 178.763786 
L 73.946327 178.691884 
L 73.943185 178.635626 
L 73.855672 178.573084 
L 73.85253 178.551222 
L 73.855672 178.532469 
L 73.921323 178.491822 
L 73.927574 178.469927 
L 73.902537 178.429313 
L 73.811883 178.382414 
L 73.877534 178.257363 
L 73.871283 178.216716 
L 73.796272 178.094806 
L 73.752515 178.05105 
L 73.730621 177.994792 
L 73.752515 177.938501 
L 73.802523 177.910388 
L 73.874425 177.738438 
L 73.808774 177.472758 
L 73.752515 177.416467 
L 73.639966 177.397714 
L 73.60246 177.360208 
L 73.593068 177.31331 
L 73.624322 177.207044 
L 73.60246 177.188292 
L 73.514915 177.18515 
L 73.464907 177.163288 
L 73.4743 177.088244 
L 73.430544 177.053848 
L 73.305492 177.000731 
L 73.28674 176.960084 
L 73.305492 176.853786 
L 73.280489 176.822531 
L 73.238565 176.801291 
L 73.149187 176.691262 
L 73.030386 176.685011 
L 72.957732 176.620178 
L 72.957372 176.575603 
L 72.95675 176.502785 
L 72.978808 176.436479 
L 72.969448 176.417726 
L 72.881902 176.380221 
L 72.85379 176.320821 
L 72.903797 176.189519 
L 72.875652 176.145762 
L 72.759993 176.095755 
L 72.744382 176.039464 
L 72.769386 175.992598 
L 72.74124 175.942558 
L 72.581825 175.917554 
L 72.563073 175.792536 
L 72.584935 175.729994 
L 72.575574 175.686237 
L 72.55368 175.661234 
L 72.552937 175.660931 
L 72.384872 175.592474 
L 72.347367 175.539324 
L 72.366119 175.417415 
L 72.397243 175.345448 
L 72.402709 175.261666 
L 72.361538 175.017094 
L 72.16177 174.87797 
L 72.094483 174.72389 
L 72.109733 174.486846 
L 72.255141 174.359275 
L 72.29893 174.262369 
L 72.261392 174.171714 
L 72.273927 174.109172 
L 72.286428 174.090419 
L 72.417698 174.059165 
L 72.455203 174.012267 
L 72.443487 173.944717 
L 72.568505 173.840808 
L 72.572891 173.784713 
L 72.544647 173.756306 
L 72.483349 173.737193 
L 72.455203 173.640288 
L 72.486491 173.587138 
L 72.492742 173.487124 
L 72.455203 173.337069 
L 72.353585 173.254465 
L 72.343832 173.229036 
L 72.508123 172.931446 
L 72.529848 172.815393 
L 72.555022 172.680918 
L 72.713815 172.601718 
L 72.734989 172.453987 
L 72.713128 172.397696 
L 72.659978 172.366441 
L 72.570469 172.271892 
L 72.657589 172.134306 
L 72.670713 172.011677 
L 72.559931 171.941313 
L 72.538069 171.838156 
L 72.561011 171.758858 
L 72.597436 171.703745 
L 72.591185 171.61309 
L 72.466167 171.49429 
L 72.466167 171.438032 
L 72.509923 171.356737 
L 72.559931 171.344235 
L 72.591185 171.303621 
L 72.528676 171.24422 
L 72.525567 171.187962 
L 72.569324 171.159817 
L 72.569324 171.141064 
L 72.547429 171.100417 
L 72.428661 171.019155 
L 72.413018 170.950362 
L 72.444272 170.856598 
L 72.422411 170.812841 
L 72.316112 170.787838 
L 72.30361 170.769052 
L 72.297359 170.712794 
L 72.347367 170.612779 
L 72.334865 170.547128 
L 72.281716 170.481477 
L 72.220271 170.43815 
L 72.18049 170.410099 
L 72.154406 170.354757 
L 72.194857 169.823821 
L 72.170901 169.793908 
L 72.008639 169.738534 
L 71.972704 169.701879 
L 71.990082 169.671017 
L 72.044181 169.637112 
L 72.077693 169.573751 
L 72.059768 169.481777 
L 72.050726 169.43538 
L 72.122726 169.347016 
L 72.332214 169.167016 
L 72.403625 169.181056 
L 72.459916 169.168554 
L 72.472418 169.127907 
L 72.394265 169.021641 
L 72.403625 168.993496 
L 72.534927 168.965383 
L 72.594327 168.902841 
L 72.603687 168.852833 
L 72.578684 168.805935 
L 72.584935 168.762179 
L 72.600578 168.743426 
L 72.697484 168.730924 
L 72.73188 168.699669 
L 72.73188 168.649662 
L 72.703735 168.593371 
L 72.719378 168.530862 
L 72.778746 168.455851 
L 72.778746 168.418312 
L 72.74124 168.387058 
L 72.68184 168.368305 
L 72.644335 168.3308 
L 72.647476 168.230752 
L 72.67248 168.186996 
L 72.675589 168.143239 
L 72.666229 168.099483 
L 72.618376 168.033653 
L 72.616222 168.03069 
L 72.616222 167.965071 
L 72.685702 167.880864 
L 72.733353 167.699685 
L 72.734793 167.592863 
L 72.698793 167.556863 
L 72.666066 167.48159 
L 72.698793 167.455409 
L 72.854819 167.487914 
L 72.855884 167.488136 
L 72.996612 167.543772 
L 73.045703 167.5405 
L 73.088248 167.475045 
L 73.124248 167.340863 
L 73.101339 167.304863 
L 73.045703 167.304863 
L 72.976975 167.327772 
L 72.921339 167.304863 
L 72.823157 166.948135 
L 72.921339 166.689589 
L 73.022794 166.584861 
L 73.120976 166.637225 
L 73.179918 166.640498 
L 73.248645 166.496497 
L 73.23503 166.396875 
L 73.271096 166.253562 
L 73.389896 166.209806 
L 73.386754 166.166049 
L 73.351154 166.134899 
L 73.336747 166.122293 
L 73.321103 166.078536 
L 73.333605 166.025387 
L 73.380504 165.962845 
L 73.308602 165.912838 
L 73.299242 165.878474 
L 73.299242 165.847187 
L 73.3555 165.756532 
L 73.3555 165.712776 
L 73.307554 165.671768 
L 73.258463 165.658677 
L 72.869008 165.796132 
L 72.702066 165.881223 
L 72.6084 165.972238 
L 72.542749 165.962845 
L 72.486491 165.859689 
L 72.370799 165.844078 
L 72.348938 165.828434 
L 72.330185 165.784678 
L 72.332247 165.684826 
L 72.381338 165.573553 
L 72.332247 165.351008 
L 72.289537 165.300149 
L 72.130123 165.287647 
L 72.076973 165.256393 
L 72.09661 165.07204 
L 72.068857 165.028578 
L 72.058908 164.867821 
L 72.097297 164.764043 
L 72.078544 164.707784 
L 72.012893 164.648384 
L 71.965995 164.648384 
L 71.734776 164.714919 
L 71.415881 164.598639 
L 71.340805 164.535835 
L 71.334554 164.479577 
L 71.398979 164.291727 
L 71.404885 164.274507 
L 71.317437 163.856121 
L 71.250935 163.75244 
L 71.255124 163.658709 
L 71.297048 163.598066 
L 71.297343 163.534607 
L 71.198571 163.471443 
L 71.15632 163.480738 
L 71.015298 163.391 
L 70.936 163.315138 
L 70.923498 163.280774 
L 70.926607 163.243268 
L 70.959465 163.202588 
L 70.998771 163.03653 
L 70.974716 163.008875 
L 71.090539 162.828613 
L 71.193335 162.774024 
L 71.420528 162.718093 
L 71.467394 162.664943 
L 71.448641 162.624296 
L 71.361128 162.552394 
L 71.348626 162.502387 
L 71.354877 162.45863 
L 71.439281 162.414874 
L 71.448641 162.371117 
L 71.44239 162.302325 
L 71.38299 162.239815 
L 71.37363 162.177306 
L 71.439281 161.992855 
L 71.423637 161.802185 
L 71.317372 161.70528 
L 71.25483 161.580228 
L 71.267332 161.520828 
L 71.329874 161.502075 
L 71.357986 161.47393 
L 71.342375 161.427064 
L 71.287164 161.37637 
L 71.267332 161.220751 
L 71.279833 161.186355 
L 71.361128 161.139456 
L 71.37363 161.117595 
L 71.348626 161.0363 
L 71.418466 160.974805 
L 71.43159 160.877572 
L 71.394346 160.846187 
L 71.380143 160.796834 
L 71.43303 160.66743 
L 71.38299 160.595528 
L 71.398634 160.542412 
L 71.454892 160.47987 
L 71.448641 160.329847 
L 71.404885 160.282949 
L 71.401743 160.232942 
L 71.461143 160.123502 
L 71.467394 160.064134 
L 71.439281 160.026596 
L 71.349379 159.983952 
L 71.313248 159.945825 
L 71.329677 159.878505 
L 71.381157 159.81197 
L 71.362503 159.746155 
L 71.161066 159.601468 
L 71.148564 159.557711 
L 71.18175 159.512842 
L 71.223379 159.496413 
L 71.244095 159.443591 
L 71.254928 159.370936 
L 71.151673 159.29514 
L 71.114168 159.229489 
L 71.151673 159.12319 
L 71.151673 159.063823 
L 71.120059 158.958179 
L 71.023513 158.885622 
L 70.995367 158.829364 
L 71.070411 158.729317 
L 71.070411 158.673058 
L 71.039157 158.641804 
L 71.034555 158.607277 
L 71.032906 158.594905 
L 71.139171 158.494891 
L 71.312855 158.420501 
L 71.322706 158.398083 
L 71.312823 158.373407 
L 71.248579 158.329192 
L 71.242328 158.304188 
L 71.261081 158.260432 
L 71.323623 158.207283 
L 71.332983 158.132272 
L 71.25483 158.066621 
L 71.261081 157.941569 
L 71.232968 157.894704 
L 71.086022 157.807158 
L 71.079771 157.763402 
L 71.092273 157.732147 
L 71.173568 157.638351 
L 71.182928 157.591452 
L 71.173568 157.550838 
L 71.129811 157.513332 
L 71.061018 157.491438 
L 71.026655 157.460183 
L 70.995367 157.397641 
L 70.992258 157.369528 
L 71.036015 157.288234 
L 71.032906 157.256979 
L 70.973506 157.197579 
L 70.851596 157.150713 
L 70.804698 157.106924 
L 70.785945 157.056917 
L 70.792196 157.000658 
L 70.823451 156.950651 
L 70.982866 156.859996 
L 71.00476 156.828742 
L 70.961004 156.775592 
L 70.904713 156.744338 
L 70.895353 156.71305 
L 70.954753 156.647432 
L 70.964113 156.613036 
L 70.957862 156.569279 
L 70.860956 156.459872 
L 70.889102 156.356715 
L 70.879709 156.300424 
L 70.801556 156.26606 
L 70.770301 156.20666 
L 70.785945 156.169155 
L 70.889102 156.119115 
L 70.889102 156.097253 
L 70.832811 156.030587 
L 70.826592 155.947198 
L 70.8766 155.875296 
L 70.964113 155.840899 
L 70.986007 155.803394 
L 70.977727 155.757837 
L 70.95668 155.743157 
L 70.823451 155.65023 
L 70.804698 155.618975 
L 70.804698 155.584579 
L 70.835952 155.540822 
L 70.914105 155.46892 
L 70.920356 155.412662 
L 70.898462 155.337618 
L 70.742189 155.250105 
L 70.729687 155.225102 
L 70.751549 155.171952 
L 70.745298 155.150058 
L 70.692149 155.08444 
L 70.714043 155.050043 
L 70.723403 154.984392 
L 70.70465 154.943745 
L 70.664036 154.931243 
L 70.660894 154.893737 
L 70.679647 154.849981 
L 70.751549 154.828086 
L 70.779694 154.771828 
L 70.75469 154.737432 
L 70.664036 154.712428 
L 70.642141 154.681173 
L 70.673396 154.587409 
L 70.735316 154.517209 
L 70.739669 154.468609 
L 70.698923 154.237554 
L 70.613079 154.043154 
L 70.618512 153.943695 
L 70.979756 153.568313 
L 70.979756 153.483909 
L 70.886451 153.360396 
L 70.843578 153.342461 
L 70.714043 153.336996 
L 70.664036 153.30885 
L 70.682789 153.161937 
L 70.707792 153.140075 
L 70.845345 153.099428 
L 70.8766 153.058781 
L 70.882851 153.027526 
L 70.857847 152.93062 
L 70.904713 152.855609 
L 70.904713 152.780565 
L 70.8766 152.74306 
L 70.801556 152.699303 
L 70.795305 152.655547 
L 70.882851 152.539889 
L 70.857847 152.449234 
L 70.72769 152.374877 
L 70.615567 152.203844 
L 70.578061 152.097546 
L 70.634319 151.934989 
L 70.606207 151.88184 
L 70.521803 151.856836 
L 70.481155 151.816222 
L 70.44365 151.756821 
L 70.437399 151.63177 
L 70.340493 151.547366 
L 70.346744 151.513003 
L 70.434257 151.481715 
L 70.465512 151.437959 
L 70.455366 151.405853 
L 70.352995 151.362948 
L 70.296737 151.312908 
L 70.332017 151.261591 
L 70.454581 151.248828 
L 70.520232 151.19882 
L 70.563988 151.045656 
L 70.710901 150.961252 
L 70.726545 150.773692 
L 70.723403 150.726794 
L 70.689039 150.689288 
L 70.56713 150.63303 
L 70.554628 150.567379 
L 70.585883 150.448579 
L 70.579632 150.426717 
L 70.482726 150.339171 
L 70.329955 150.249138 
L 70.332671 150.192258 
L 70.310777 150.151611 
L 70.1547 150.104876 
L 70.032333 149.973312 
L 70.024576 149.94641 
L 70.056485 149.884326 
L 70.052034 149.85965 
L 69.974732 149.828068 
L 69.952871 149.803064 
L 69.952871 149.756166 
L 69.996627 149.71241 
L 70.106035 149.656151 
L 70.13418 149.587391 
L 70.071638 149.537351 
L 70.059136 149.493595 
L 70.065387 149.452947 
L 70.140431 149.349791 
L 70.090391 149.27478 
L 70.099784 149.224772 
L 70.174795 149.118474 
L 70.174795 149.080968 
L 70.107475 148.948128 
L 70.117227 148.7552 
L 70.149791 148.696487 
L 70.152933 148.658949 
L 70.102893 148.608942 
L 70.093533 148.565185 
L 70.106035 148.521429 
L 70.174795 148.471389 
L 70.196689 148.374483 
L 70.106885 148.25421 
L 70.096642 148.121304 
L 70.121678 148.058762 
L 70.227944 147.964999 
L 70.265449 147.880595 
L 70.256089 147.836838 
L 70.152933 147.771187 
L 70.140431 147.743042 
L 70.140431 147.696143 
L 70.159184 147.67114 
L 70.218584 147.643027 
L 70.234195 147.586736 
L 70.227944 147.552372 
L 70.140431 147.499223 
L 70.140431 147.467968 
L 70.159184 147.414819 
L 70.190438 147.383565 
L 70.365497 147.264764 
L 70.360986 147.210633 
L 70.359246 147.189753 
L 70.311039 147.126524 
L 70.312053 147.042775 
L 70.319711 146.946327 
L 70.362355 146.911538 
L 70.374857 146.874032 
L 70.362355 146.839636 
L 70.31549 146.79588 
L 70.306097 146.717727 
L 70.282009 146.699563 
L 70.142918 146.682414 
L 70.045783 146.650308 
L 69.986122 146.604719 
L 69.976107 146.505293 
L 69.884078 146.355108 
L 69.884078 146.320711 
L 69.937227 146.264453 
L 70.014463 146.218896 
L 70.075173 146.203155 
L 70.265449 145.992489 
L 70.252948 145.948732 
L 70.209191 145.911227 
L 70.199798 145.851827 
L 70.268591 145.767423 
L 70.281093 145.708023 
L 70.274842 145.686161 
L 70.209191 145.633012 
L 70.20294 145.595506 
L 70.215442 145.567361 
L 70.277951 145.517353 
L 70.296704 145.451702 
L 70.252948 145.382942 
L 70.157711 145.318142 
L 70.123184 145.252262 
L 70.120042 145.214625 
L 70.176529 145.151887 
L 70.195347 145.098541 
L 70.18278 145.073439 
L 70.135751 145.057763 
L 70.120042 144.998167 
L 70.132609 144.963639 
L 70.201598 144.947963 
L 70.298864 144.866406 
L 70.286297 144.813093 
L 70.2267 144.769173 
L 70.211024 144.690726 
L 70.312479 144.568522 
L 70.377279 144.248416 
L 70.355319 144.176252 
L 70.264369 144.069594 
L 70.273762 144.019423 
L 70.317682 144.000604 
L 70.327108 143.966077 
L 70.295722 143.903339 
L 70.235733 143.867928 
L 70.193678 143.820833 
L 70.262111 143.689956 
L 70.24218 143.610691 
L 70.186838 143.544909 
L 70.083976 143.4986 
L 69.644906 143.450196 
L 69.631586 143.413541 
L 69.732157 143.346188 
L 69.745412 143.322265 
L 69.736543 143.306588 
L 69.557066 143.269312 
L 69.454269 143.223657 
L 69.359458 142.801049 
L 69.157203 142.638689 
L 69.170523 142.596798 
L 69.290011 142.563252 
L 69.344273 142.531867 
L 69.360015 142.292597 
L 69.343455 142.25519 
L 69.209665 142.160902 
L 69.188818 141.970953 
L 69.250902 141.882785 
L 69.255385 141.820734 
L 69.20456 141.724974 
L 69.122709 141.652385 
L 69.119469 141.585097 
L 69.07641 141.535804 
L 69.047599 141.502821 
L 68.937996 141.489304 
L 68.890443 141.450424 
L 68.804435 140.968841 
L 68.774588 140.92623 
L 68.72697 140.898543 
L 68.685995 140.900016 
L 68.610657 140.97627 
L 68.546413 141.000914 
L 68.491038 140.99342 
L 68.458933 140.967238 
L 68.451242 140.911176 
L 68.545431 140.82147 
L 68.534369 140.784063 
L 68.463515 140.712259 
L 68.40598 140.607564 
L 68.362813 140.567179 
L 68.332834 140.576277 
L 68.284398 140.54679 
L 68.284398 140.508891 
L 68.311791 140.466771 
L 68.297031 140.395131 
L 68.275954 140.363549 
L 68.124787 140.284513 
L 68.118176 140.218698 
L 68.134867 140.155043 
L 68.115885 140.083436 
L 68.012695 140.02865 
L 68.01479 139.976025 
L 68.145994 139.887464 
L 68.175939 139.843348 
L 68.157121 139.814941 
L 67.962132 139.673559 
L 67.782622 139.500071 
L 67.709477 139.40886 
L 67.692884 139.357249 
L 67.702866 139.316896 
L 67.823695 139.217438 
L 67.850302 139.155386 
L 67.850335 139.052197 
L 67.832466 138.977121 
L 67.664836 138.909015 
L 67.655346 138.891211 
L 67.663658 138.840124 
L 67.714746 138.814008 
L 67.713567 138.765277 
L 67.619607 138.717102 
L 67.544203 138.654298 
L 67.525353 138.581774 
L 67.575294 138.512229 
L 67.501003 138.385868 
L 67.160443 138.162308 
L 66.929715 138.13089 
L 66.9341 138.012744 
L 66.756554 137.898395 
L 66.675587 137.908115 
L 66.645609 137.892438 
L 66.644496 137.844558 
L 66.704354 137.767551 
L 66.768729 137.721176 
L 66.908508 137.674049 
L 66.9107 137.647114 
L 66.889624 137.612718 
L 66.704289 137.528281 
L 66.620998 137.440048 
L 66.436743 137.408695 
L 66.374986 137.420837 
L 66.32439 137.406372 
L 66.29307 137.36543 
L 66.29019 137.301055 
L 66.146091 137.167855 
L 66.126815 137.129302 
L 66.134048 137.078738 
L 66.201237 137.028175 
L 66.232262 136.971327 
L 66.152244 136.83901 
L 66.14128 136.683588 
L 66.160557 136.649879 
L 66.187066 136.637835 
L 66.187066 136.548686 
L 66.10996 136.507712 
L 66.090684 136.478813 
L 66.108586 136.355988 
L 65.946258 136.119762 
L 65.740796 136.11086 
L 65.566294 135.98607 
L 65.579548 135.938976 
L 65.62949 135.898557 
L 65.627157 135.84691 
L 65.614697 135.571055 
L 65.571235 135.424535 
L 65.498843 135.358 
L 65.452926 135.346513 
L 65.328628 135.257789 
L 65.318809 135.215243 
L 65.400661 135.195607 
L 65.45957 135.146516 
L 65.430115 135.10397 
L 65.335206 135.054879 
L 64.942478 135.009028 
L 64.814841 134.976301 
L 64.752659 134.930483 
L 64.752659 134.897755 
L 64.890147 134.835573 
L 64.922874 134.78321 
L 64.877056 134.7243 
L 64.746146 134.665391 
L 64.680692 134.593391 
L 64.693783 134.5083 
L 64.883601 134.413391 
L 64.890147 134.370845 
L 64.693783 134.243208 
L 64.72651 134.141754 
L 64.850874 134.063208 
L 64.847601 134.007572 
L 64.719965 133.906117 
L 64.693783 133.811207 
L 64.739601 133.801389 
L 64.844328 133.870117 
L 64.945816 133.893026 
L 65.017816 133.843935 
L 65.007998 133.74248 
L 64.945816 133.650843 
L 64.812358 133.593354 
L 64.733088 133.559207 
L 64.919634 133.487207 
L 64.929452 133.43157 
L 64.539997 133.176297 
L 64.34036 133.091173 
L 64.287996 132.989718 
L 64.346906 132.881718 
L 64.330542 132.790082 
L 64.229087 132.754082 
L 64.039268 132.734445 
L 63.839632 132.659172 
L 63.725086 132.564263 
L 63.692359 132.472626 
L 63.70545 132.41699 
L 63.790541 132.28608 
L 63.793813 132.207535 
L 63.74145 132.125716 
L 63.577813 132.047138 
L 63.499267 131.998047 
L 63.486176 131.968593 
L 63.495995 131.922774 
L 63.617086 131.821319 
L 63.640028 131.772228 
L 63.568027 131.657683 
L 63.574573 131.611864 
L 63.66202 131.442468 
L 63.75837 131.200547 
L 63.773032 131.125143 
L 63.757846 131.080634 
L 63.71229 131.037696 
L 63.472987 130.938728 
L 63.406485 130.854946 
L 63.325551 130.493309 
L 63.369765 130.435087 
L 63.448278 130.374804 
L 63.439213 130.315567 
L 63.385605 130.293672 
L 63.243012 130.27672 
L 63.198176 130.252436 
L 63.146303 130.180796 
L 63.148115 130.168153 
L 63.157037 130.105916 
L 63.252732 129.946468 
L 63.261765 129.899766 
L 63.206128 129.43926 
L 63.145714 129.232979 
L 63.088179 129.130084 
L 63.034964 129.080568 
L 62.79756 128.980128 
L 62.663673 128.900666 
L 62.310676 128.479858 
L 62.137875 128.460581 
L 62.091042 128.435741 
L 62.084039 128.413945 
L 62.10181 128.365377 
L 62.212526 128.271319 
L 62.256381 128.119006 
L 62.24437 127.995362 
L 62.166904 127.889391 
L 62.066726 127.846256 
L 62.053962 127.816082 
L 62.058577 127.769674 
L 62.11081 127.712827 
L 62.108486 127.65827 
L 62.078311 127.603714 
L 61.961933 127.539143 
L 61.925704 127.378812 
L 61.862376 127.339866 
L 61.805955 127.330866 
L 61.590641 127.357277 
L 61.478321 127.315811 
L 61.463234 127.271433 
L 61.480612 127.222571 
L 61.549176 127.131458 
L 61.563838 127.095982 
L 61.560238 127.042898 
L 61.531307 126.979472 
L 61.358637 126.738861 
L 61.312263 126.64369 
L 61.273841 126.449028 
L 61.184724 126.360795 
L 61.173466 126.301493 
L 61.191924 126.238591 
L 61.115244 126.1643 
L 60.882814 126.106798 
L 60.858858 126.061274 
L 60.85408 125.960638 
L 60.919011 125.867757 
L 60.945127 125.795299 
L 60.964305 125.72343 
L 60.964305 125.641971 
L 60.940349 125.598837 
L 60.864847 125.563131 
L 60.789836 125.488251 
L 60.707919 125.289727 
L 60.710308 125.193901 
L 60.742057 125.136981 
L 60.757076 125.110054 
L 60.851691 125.026174 
L 60.875647 124.987817 
L 60.880425 124.944683 
L 60.868447 124.858446 
L 60.832512 124.82729 
L 60.7774 124.8105 
L 60.731876 124.764977 
L 60.724676 124.717064 
L 60.878985 124.505514 
L 60.888312 124.470038 
L 60.993891 124.339619 
L 60.957105 124.168357 
L 60.969084 124.108466 
L 61.002629 124.058132 
L 61.100877 124.014997 
L 61.112855 123.919171 
L 61.026651 123.850346 
L 61.013527 123.76172 
L 61.086509 123.696331 
L 61.085724 123.633723 
L 61.072109 123.576516 
L 61.009764 123.550039 
L 60.98908 123.504516 
L 61.004265 123.438341 
L 61.049626 123.403977 
L 61.059476 123.341599 
L 61.049626 123.312079 
L 60.951214 123.272708 
L 60.901993 123.212326 
L 60.887625 123.126057 
L 60.935538 123.085311 
L 61.067331 123.030231 
L 61.072109 122.984675 
L 60.973894 122.87206 
L 60.969084 122.788212 
L 60.99304 122.747467 
L 61.143553 122.628437 
L 61.276099 122.610241 
L 61.322473 122.576041 
L 61.345088 122.515528 
L 61.334681 122.480837 
L 61.280975 122.414892 
L 61.271222 122.368517 
L 61.276099 122.336771 
L 61.349343 122.268404 
L 61.349343 122.202458 
L 61.303361 122.139393 
L 61.224815 122.124338 
L 61.19307 122.099891 
L 61.195524 122.04864 
L 61.246775 121.99248 
L 61.408186 121.954941 
L 61.449685 121.928825 
L 61.695467 121.653555 
L 61.690656 121.601682 
L 61.657634 121.528308 
L 61.512521 121.313355 
L 61.408186 121.254478 
L 61.346397 121.255394 
L 61.293182 121.220867 
L 61.285852 121.125631 
L 61.300513 121.064594 
L 61.344466 121.037725 
L 61.47387 121.032849 
L 61.500739 121.010856 
L 61.515401 120.959605 
L 61.50807 120.942488 
L 61.381088 120.86679 
L 61.381088 120.688557 
L 61.349343 120.654357 
L 61.224815 120.607982 
L 61.19307 120.57136 
L 61.175986 120.481 
L 61.2004 120.388218 
L 61.21503 120.348323 
L 61.261633 120.31648 
L 61.334452 120.224745 
L 61.339852 120.146527 
L 61.329052 120.111443 
L 61.215782 120.073676 
L 61.133178 120.076556 
L 61.099764 120.049392 
L 61.09708 119.96309 
L 61.191499 119.825504 
L 61.218466 119.687918 
L 61.199582 119.642067 
L 60.997262 119.528765 
L 60.978378 119.434347 
L 61.010745 119.331845 
L 60.999945 119.285994 
L 60.933542 119.239455 
L 60.802305 119.204175 
L 60.675094 119.027382 
L 60.675094 118.796524 
L 60.687923 118.738793 
L 60.719996 118.687509 
L 60.790523 118.655436 
L 60.861051 118.55925 
L 60.925196 118.35405 
L 60.925196 118.296352 
L 60.899538 118.238621 
L 60.809767 118.168093 
L 60.75845 118.078322 
L 60.745654 117.905162 
L 60.75845 117.860292 
L 60.803352 117.808976 
L 60.925196 117.738449 
L 61.066284 117.57815 
L 61.091909 117.494761 
L 61.072666 117.328048 
L 60.982895 117.193375 
L 60.848254 117.167749 
L 60.835425 117.077945 
L 60.861051 117.045905 
L 61.027796 116.994589 
L 61.072666 116.917647 
L 61.072666 116.847119 
L 61.00024 116.796981 
L 60.955731 116.716079 
L 60.951705 116.667544 
L 61.052833 116.582617 
L 61.093284 116.525966 
L 61.117535 116.412729 
L 61.089226 116.331827 
L 61.016407 116.291376 
L 61.004298 116.267093 
L 61.004298 116.157914 
L 61.024491 116.109347 
L 61.13776 116.004194 
L 61.170128 115.866674 
L 61.166069 115.753437 
L 61.117535 115.712986 
L 60.870803 115.619942 
L 60.826327 115.547124 
L 60.79396 115.450054 
L 60.806101 115.304451 
L 60.86272 115.272083 
L 60.882945 115.219523 
L 60.838436 115.162872 
L 60.77776 115.130537 
L 60.76565 115.045577 
L 60.802043 115.001101 
L 60.919142 114.942453 
L 60.95236 114.890482 
L 60.965844 114.626962 
L 60.917309 114.54606 
L 60.72317 114.453016 
L 60.678694 114.392339 
L 60.662494 114.331696 
L 60.500723 113.652145 
L 60.537115 113.486316 
L 60.630126 113.385188 
L 60.638243 113.320486 
L 60.58565 113.235559 
L 60.472381 113.16274 
L 60.284035 113.089529 
L 60.232331 113.051358 
L 60.1725 113.007187 
L 60.172975 113.003622 
L 60.185198 112.911951 
L 60.205424 112.867474 
L 60.245875 112.831081 
L 60.411868 112.767689 
L 60.488581 112.766347 
L 60.520915 112.729954 
L 60.529032 112.677361 
L 60.472381 112.608601 
L 60.391511 112.572208 
L 60.330835 112.519615 
L 60.314635 112.475139 
L 60.318693 112.345702 
L 60.359144 112.285026 
L 60.547784 112.229095 
L 60.613959 112.155589 
L 60.634185 112.086829 
L 60.638243 111.985701 
L 60.613959 111.925025 
L 60.609901 111.840097 
L 60.652807 111.790614 
L 60.767581 111.776737 
L 60.80908 111.747086 
L 60.833265 111.702086 
L 60.876792 111.470148 
L 60.855454 111.412057 
L 60.800014 111.346635 
L 60.808098 111.265733 
L 60.83644 111.221256 
L 60.901142 111.168663 
L 60.986069 111.031143 
L 61.014411 110.930015 
L 60.986069 110.865313 
L 61.010353 110.768211 
L 61.054829 110.735877 
L 61.160015 110.731819 
L 61.20855 110.711593 
L 61.232801 110.626666 
L 61.212575 110.545764 
L 61.253026 110.477004 
L 61.398663 110.485087 
L 61.426972 110.464862 
L 61.451223 110.408243 
L 61.446576 110.338861 
L 61.390546 110.28689 
L 61.390546 110.21813 
L 61.410772 110.197905 
L 61.556408 110.153428 
L 61.745442 110.193748 
L 61.859464 110.179185 
L 61.926358 110.140337 
L 61.960689 110.100901 
L 61.966908 110.044021 
L 61.921907 109.89701 
L 61.847616 109.765118 
L 61.8719 109.712526 
L 61.982028 109.6077 
L 62.04434 109.447205 
L 62.088326 109.388819 
L 62.179177 109.327357 
L 62.219726 109.25143 
L 62.215701 109.142219 
L 62.150966 109.049208 
L 62.187392 108.984473 
L 62.237465 108.946673 
L 62.243945 108.833731 
L 62.215701 108.563828 
L 62.235926 108.507177 
L 62.31277 108.42225 
L 62.324912 108.381799 
L 62.316828 108.345406 
L 62.280403 108.304955 
L 61.954504 108.175682 
L 61.639307 107.878223 
L 61.615056 107.789238 
L 61.683816 107.732619 
L 61.708067 107.591041 
L 61.542205 107.452113 
L 61.441568 107.269724 
L 61.373823 107.206396 
L 61.117535 107.073327 
L 61.073058 107.032876 
L 61.056858 106.988367 
L 61.089226 106.923665 
L 61.097309 106.80637 
L 61.081142 106.765919 
L 60.961524 106.697388 
L 60.941396 106.649115 
L 60.945422 106.371522 
L 60.824723 106.230729 
L 60.599428 106.106005 
L 60.567257 106.073834 
L 60.559206 106.01751 
L 60.68393 105.81231 
L 60.68393 105.735891 
L 60.516693 105.520905 
L 60.474704 105.49852 
L 60.442533 105.458298 
L 60.430457 105.426094 
L 60.442533 105.385872 
L 60.474704 105.353669 
L 60.494832 105.245047 
L 60.466686 105.216901 
L 60.370108 105.176679 
L 60.345988 105.144475 
L 60.346217 105.027443 
L 60.369257 104.95073 
L 60.336235 104.914042 
L 60.233831 104.893326 
L 60.177278 104.855624 
L 60.158427 104.785587 
L 60.15306 104.64018 
L 60.08034 104.50014 
L 60.08034 104.45167 
L 60.114605 104.390928 
L 60.114605 104.354143 
L 60.09006 104.309175 
L 59.996034 104.264175 
L 59.814463 104.227979 
L 59.716281 104.162001 
L 59.66503 104.105873 
L 59.618655 104.020422 
L 59.693306 103.812113 
L 59.587139 103.67541 
L 59.583048 103.552716 
L 59.607593 103.499566 
L 59.759415 103.440886 
L 59.806936 103.404788 
L 59.822121 103.37049 
L 59.804317 103.229435 
L 59.709801 103.102976 
L 59.717983 103.062067 
L 59.762983 102.992554 
L 59.762983 102.886256 
L 59.649975 102.763168 
L 59.615775 102.608204 
L 59.542171 102.538692 
L 59.439964 102.501906 
L 59.386782 102.46103 
L 59.378633 102.411939 
L 59.431782 102.260673 
L 59.415418 102.219764 
L 59.36636 102.182978 
L 59.276393 102.150251 
L 59.031068 101.994894 
L 59.002432 101.933563 
L 59.031068 101.847686 
L 59.035159 101.782264 
L 58.965646 101.643239 
L 59.026977 101.549213 
L 59.031068 101.406096 
L 59.002432 101.357038 
L 58.713417 101.265467 
L 58.620046 101.207834 
L 58.549191 101.085008 
L 58.554198 101.028816 
L 58.611275 100.894961 
L 58.599755 100.80663 
L 58.541991 100.761335 
L 58.376194 100.705633 
L 58.340096 100.628953 
L 58.337151 100.537905 
L 58.393507 100.446302 
L 58.390692 100.373221 
L 58.354136 100.311399 
L 58.163041 100.235505 
L 58.101219 100.086563 
L 58.087179 99.926395 
L 58.053437 99.8505 
L 57.912939 99.74934 
L 57.90731 99.698744 
L 57.955092 99.445827 
L 57.955092 99.358706 
L 57.935422 99.30811 
L 57.90168 99.260328 
L 57.736407 99.21307 
L 57.69252 99.17275 
L 57.681818 99.103662 
" clip-path="url(#p3bc314336e)" style="fill: #009c00"/>
   </g>
   <g id="PathCollection_1">
    <defs>
     <path id="mba850f2218" d="M 0 1.581139 
C 0.419323 1.581139 0.821528 1.41454 1.118034 1.118034 
C 1.41454 0.821528 1.581139 0.419323 1.581139 0 
C 1.581139 -0.419323 1.41454 -0.821528 1.118034 -1.118034 
C 0.821528 -1.41454 0.419323 -1.581139 0 -1.581139 
C -0.419323 -1.581139 -0.821528 -1.41454 -1.118034 -1.118034 
C -1.41454 -0.821528 -1.581139 -0.419323 -1.581139 0 
C -1.581139 0.419323 -1.41454 0.821528 -1.118034 1.118034 
C -0.821528 1.41454 -0.419323 1.581139 0 1.581139 
z
" style="stroke: #000000"/>
    </defs>
    <g clip-path="url(#p3bc314336e)">
     <use xlink:href="#mba850f2218" x="193.074777" y="230.457707" style="stroke: #000000"/>
    </g>
   </g>
   <g id="text_1">
    <!-- St. Paul -->
    <g transform="translate(196.074777 227.457707) scale(0.1 -0.1)">
     <defs>
      <path id="DejaVuSans-53" d="M 3425 4513 
L 3425 3897 
Q 3066 4069 2747 4153 
Q 2428 4238 2131 4238 
Q 1616 4238 1336 4038 
Q 1056 3838 1056 3469 
Q 1056 3159 1242 3001 
Q 1428 2844 1947 2747 
L 2328 2669 
Q 3034 2534 3370 2195 
Q 3706 1856 3706 1288 
Q 3706 609 3251 259 
Q 2797 -91 1919 -91 
Q 1588 -91 1214 -16 
Q 841 59 441 206 
L 441 856 
Q 825 641 1194 531 
Q 1563 422 1919 422 
Q 2459 422 2753 634 
Q 3047 847 3047 1241 
Q 3047 1584 2836 1778 
Q 2625 1972 2144 2069 
L 1759 2144 
Q 1053 2284 737 2584 
Q 422 2884 422 3419 
Q 422 4038 858 4394 
Q 1294 4750 2059 4750 
Q 2388 4750 2728 4690 
Q 3069 4631 3425 4513 
z
" transform="scale(0.015625)"/>
      <path id="DejaVuSans-74" d="M 1172 4494 
L 1172 3500 
L 2356 3500 
L 2356 3053 
L 1172 3053 
L 1172 1153 
Q 1172 725 1289 603 
Q 1406 481 1766 481 
L 2356 481 
L 2356 0 
L 1766 0 
Q 1100 0 847 248 
Q 594 497 594 1153 
L 594 3053 
L 172 3053 
L 172 3500 
L 594 3500 
L 594 4494 
L 1172 4494 
z
" transform="scale(0.015625)"/>
      <path id="DejaVuSans-2e" d="M 684 794 
L 1344 794 
L 1344 0 
L 684 0 
L 684 794 
z
" transform="scale(0.015625)"/>
      <path id="DejaVuSans-20" transform="scale(0.015625)"/>
      <path id="DejaVuSans-50" d="M 1259 4147 
L 1259 2394 
L 2053 2394 
Q 2494 2394 2734 2622 
Q 2975 2850 2975 3272 
Q 2975 3691 2734 3919 
Q 2494 4147 2053 4147 
L 1259 4147 
z
M 628 4666 
L 2053 4666 
Q 2838 4666 3239 4311 
Q 3641 3956 3641 3272 
Q 3641 2581 3239 2228 
Q 2838 1875 2053 1875 
L 1259 1875 
L 1259 0 
L 628 0 
L 628 4666 
z
" transform="scale(0.015625)"/>
      <path id="DejaVuSans-61" d="M 2194 1759 
Q 1497 1759 1228 1600 
Q 959 1441 959 1056 
Q 959 750 1161 570 
Q 1363 391 1709 391 
Q 2188 391 2477 730 
Q 2766 1069 2766 1631 
L 2766 1759 
L 2194 1759 
z
M 3341 1997 
L 3341 0 
L 2766 0 
L 2766 531 
Q 2569 213 2275 61 
Q 1981 -91 1556 -91 
Q 1019 -91 701 211 
Q 384 513 384 1019 
Q 384 1609 779 1909 
Q 1175 2209 1959 2209 
L 2766 2209 
L 2766 2266 
Q 2766 2663 2505 2880 
Q 2244 3097 1772 3097 
Q 1472 3097 1187 3025 
Q 903 2953 641 2809 
L 641 3341 
Q 956 3463 1253 3523 
Q 1550 3584 1831 3584 
Q 2591 3584 2966 3190 
Q 3341 2797 3341 1997 
z
" transform="scale(0.015625)"/>
      <path id="DejaVuSans-75" d="M 544 1381 
L 544 3500 
L 1119 3500 
L 1119 1403 
Q 1119 906 1312 657 
Q 1506 409 1894 409 
Q 2359 409 2629 706 
Q 2900 1003 2900 1516 
L 2900 3500 
L 3475 3500 
L 3475 0 
L 2900 0 
L 2900 538 
Q 2691 219 2414 64 
Q 2138 -91 1772 -91 
Q 1169 -91 856 284 
Q 544 659 544 1381 
z
M 1991 3584 
L 1991 3584 
z
" transform="scale(0.015625)"/>
      <path id="DejaVuSans-6c" d="M 603 4863 
L 1178 4863 
L 1178 0 
L 603 0 
L 603 4863 
z
" transform="scale(0.015625)"/>
     </defs>
     <use xlink:href="#DejaVuSans-53"/>
     <use xlink:href="#DejaVuSans-74" x="63.476562"/>
     <use xlink:href="#DejaVuSans-2e" x="102.685547"/>
     <use xlink:href="#DejaVuSans-20" x="134.472656"/>
     <use xlink:href="#DejaVuSans-50" x="166.259766"/>
     <use xlink:href="#DejaVuSans-61" x="222.0625"/>
     <use xlink:href="#DejaVuSans-75" x="283.341797"/>
     <use xlink:href="#DejaVuSans-6c" x="346.720703"/>
    </g>
   </g>
   <g id="text_2">
    <!-- Minnesota -->
    <g transform="translate(153.533437 69.869732) scale(0.12 -0.12)">
     <defs>
      <path id="DejaVuSans-4d" d="M 628 4666 
L 1569 4666 
L 2759 1491 
L 3956 4666 
L 4897 4666 
L 4897 0 
L 4281 0 
L 4281 4097 
L 3078 897 
L 2444 897 
L 1241 4097 
L 1241 0 
L 628 0 
L 628 4666 
z
" transform="scale(0.015625)"/>
      <path id="DejaVuSans-69" d="M 603 3500 
L 1178 3500 
L 1178 0 
L 603 0 
L 603 3500 
z
M 603 4863 
L 1178 4863 
L 1178 4134 
L 603 4134 
L 603 4863 
z
" transform="scale(0.015625)"/>
      <path id="DejaVuSans-6e" d="M 3513 2113 
L 3513 0 
L 2938 0 
L 2938 2094 
Q 2938 2591 2744 2837 
Q 2550 3084 2163 3084 
Q 1697 3084 1428 2787 
Q 1159 2491 1159 1978 
L 1159 0 
L 581 0 
L 581 3500 
L 1159 3500 
L 1159 2956 
Q 1366 3272 1645 3428 
Q 1925 3584 2291 3584 
Q 2894 3584 3203 3211 
Q 3513 2838 3513 2113 
z
" transform="scale(0.015625)"/>
      <path id="DejaVuSans-65" d="M 3597 1894 
L 3597 1613 
L 953 1613 
Q 991 1019 1311 708 
Q 1631 397 2203 397 
Q 2534 397 2845 478 
Q 3156 559 3463 722 
L 3463 178 
Q 3153 47 2828 -22 
Q 2503 -91 2169 -91 
Q 1331 -91 842 396 
Q 353 884 353 1716 
Q 353 2575 817 3079 
Q 1281 3584 2069 3584 
Q 2775 3584 3186 3129 
Q 3597 2675 3597 1894 
z
M 3022 2063 
Q 3016 2534 2758 2815 
Q 2500 3097 2075 3097 
Q 1594 3097 1305 2825 
Q 1016 2553 972 2059 
L 3022 2063 
z
" transform="scale(0.015625)"/>
      <path id="DejaVuSans-73" d="M 2834 3397 
L 2834 2853 
Q 2591 2978 2328 3040 
Q 2066 3103 1784 3103 
Q 1356 3103 1142 2972 
Q 928 2841 928 2578 
Q 928 2378 1081 2264 
Q 1234 2150 1697 2047 
L 1894 2003 
Q 2506 1872 2764 1633 
Q 3022 1394 3022 966 
Q 3022 478 2636 193 
Q 2250 -91 1575 -91 
Q 1294 -91 989 -36 
Q 684 19 347 128 
L 347 722 
Q 666 556 975 473 
Q 1284 391 1588 391 
Q 1994 391 2212 530 
Q 2431 669 2431 922 
Q 2431 1156 2273 1281 
Q 2116 1406 1581 1522 
L 1381 1569 
Q 847 1681 609 1914 
Q 372 2147 372 2553 
Q 372 3047 722 3315 
Q 1072 3584 1716 3584 
Q 2034 3584 2315 3537 
Q 2597 3491 2834 3397 
z
" transform="scale(0.015625)"/>
      <path id="DejaVuSans-6f" d="M 1959 3097 
Q 1497 3097 1228 2736 
Q 959 2375 959 1747 
Q 959 1119 1226 758 
Q 1494 397 1959 397 
Q 2419 397 2687 759 
Q 2956 1122 2956 1747 
Q 2956 2369 2687 2733 
Q 2419 3097 1959 3097 
z
M 1959 3584 
Q 2709 3584 3137 3096 
Q 3566 2609 3566 1747 
Q 3566 888 3137 398 
Q 2709 -91 1959 -91 
Q 1206 -91 779 398 
Q 353 888 353 1747 
Q 353 2609 779 3096 
Q 1206 3584 1959 3584 
z
" transform="scale(0.015625)"/>
     </defs>
     <use xlink:href="#DejaVuSans-4d"/>
     <use xlink:href="#DejaVuSans-69" x="86.279297"/>
     <use xlink:href="#DejaVuSans-6e" x="114.0625"/>
     <use xlink:href="#DejaVuSans-6e" x="177.441406"/>
     <use xlink:href="#DejaVuSans-65" x="240.820312"/>
     <use xlink:href="#DejaVuSans-73" x="302.34375"/>
     <use xlink:href="#DejaVuSans-6f" x="354.443359"/>
     <use xlink:href="#DejaVuSans-74" x="415.625"/>
     <use xlink:href="#DejaVuSans-61" x="454.833984"/>
    </g>
   </g>
  </g>
 </g>
 <defs>
  <clipPath id="p3bc314336e">
   <rect x="45" y="75.869732" width="279" height="211.860537"/>
  </clipPath>
 </defs>
</svg>
