<?xml version="1.0" encoding="utf-8" standalone="no"?>
<!DOCTYPE svg PUBLIC "-//W3C//DTD SVG 1.1//EN"
  "http://www.w3.org/Graphics/SVG/1.1/DTD/svg11.dtd">
<svg xmlns:xlink="http://www.w3.org/1999/xlink" width="360pt" height="360pt" viewBox="0 0 360 360" xmlns="http://www.w3.org/2000/svg" version="1.1">
 <metadata>
  <rdf:RDF xmlns:dc="http://purl.org/dc/elements/1.1/" xmlns:cc="http://creativecommons.org/ns#" xmlns:rdf="http://www.w3.org/1999/02/22-rdf-syntax-ns#">
   <cc:Work>
    <dc:type rdf:resource="http://purl.org/dc/dcmitype/StillImage"/>
    <dc:date>2023-06-19T15:20:26.459805</dc:date>
    <dc:format>image/svg+xml</dc:format>
    <dc:creator>
     <cc:Agent>
      <dc:title>Matplotlib v3.7.1, https://matplotlib.org/</dc:title>
     </cc:Agent>
    </dc:creator>
   </cc:Work>
  </rdf:RDF>
 </metadata>
 <defs>
  <style type="text/css">*{stroke-linejoin: round; stroke-linecap: butt}</style>
 </defs>
 <g id="figure_1">
  <g id="patch_1">
   <path d="M 0 360 
L 360 360 
L 360 0 
L 0 0 
z
" style="fill: #ffffff"/>
  </g>
  <g id="axes_1">
   <g id="PatchCollection_1">
    <path d="M 57.7257 95.421134 
L 57.916501 95.227711 
L 58.025997 95.155068 
L 58.75554 95.16544 
L 60.994965 95.186488 
L 60.997168 95.186526 
L 62.729728 95.192073 
L 63.898812 95.22015 
L 65.305429 95.240363 
L 66.030602 95.253052 
L 66.857977 95.26749 
L 67.104932 95.271783 
L 67.153943 95.273531 
L 69.284328 95.294427 
L 71.332647 95.314411 
L 72.908713 95.333887 
L 72.909853 95.333901 
L 73.521199 95.349137 
L 74.365177 95.357837 
L 78.698779 95.397502 
L 78.802956 95.39925 
L 78.853411 95.400085 
L 79.010246 95.402745 
L 79.033498 95.403125 
L 79.07624 95.404075 
L 79.083155 95.404227 
L 79.430546 95.408871 
L 80.882126 95.428276 
L 81.245302 95.434241 
L 82.524528 95.451224 
L 82.851534 95.458253 
L 82.910765 95.459089 
L 82.924443 95.460836 
L 83.041841 95.462508 
L 83.406803 95.460532 
L 84.085549 95.466649 
L 84.496672 95.471474 
L 87.432015 95.51661 
L 88.3883 95.511025 
L 88.819787 95.517484 
L 90.348552 95.540318 
L 90.859369 95.547574 
L 91.036036 95.552855 
L 93.811163 95.583098 
L 93.954777 95.59176 
L 94.288736 95.598675 
L 95.702078 95.619761 
L 97.879954 95.649244 
L 97.946062 95.649244 
L 99.174149 95.664973 
L 101.09542 95.687807 
L 102.540334 95.696165 
L 104.51016 95.70213 
L 104.522546 95.70213 
L 104.655901 95.703878 
L 104.703772 95.703878 
L 104.82459 95.70479 
L 106.519005 95.706005 
L 107.205425 95.701522 
L 107.226891 95.701332 
L 107.628098 95.696887 
L 108.781681 95.693316 
L 111.495069 95.681082 
L 112.315757 95.677701 
L 112.321456 95.676827 
L 112.769432 95.676751 
L 113.302893 95.674965 
L 113.9074 95.681918 
L 114.190943 95.675079 
L 116.284738 95.6604 
L 121.64765 95.622801 
L 121.719495 95.626258 
L 122.051212 95.622725 
L 122.06033 95.622725 
L 123.811392 95.596661 
L 124.519659 95.584162 
L 125.990978 95.556769 
L 126.481202 95.552248 
L 127.393264 95.535607 
L 127.439995 95.532111 
L 127.498125 95.526906 
L 127.527759 95.532111 
L 127.551695 95.530364 
L 128.377132 95.51737 
L 128.874233 95.509695 
L 128.933502 95.507112 
L 128.971115 95.50449 
L 130.668303 95.481884 
L 131.151803 95.474856 
L 131.995439 95.463648 
L 132.118536 95.456353 
L 133.681598 95.444713 
L 133.837874 95.443549 
L 134.598039 95.43956 
L 134.881619 95.447235 
L 135.090581 95.446323 
L 135.428871 95.446133 
L 135.653486 95.442562 
L 136.873443 95.433671 
L 137.376243 95.424097 
L 137.689838 95.419766 
L 137.953206 95.415473 
L 138.053546 95.416384 
L 138.169842 95.415549 
L 140.406076 95.372084 
L 141.590053 95.348491 
L 141.604453 95.350087 
L 141.626109 95.347503 
L 141.794874 95.341386 
L 141.865541 95.345755 
L 141.943009 95.344008 
L 142.053682 95.341424 
L 142.270319 95.337093 
L 143.034245 95.338993 
L 143.055901 95.336371 
L 143.188231 95.334661 
L 145.36284 95.3502 
L 145.423249 95.346705 
L 146.317225 95.356127 
L 148.877235 95.340234 
L 149.976906 95.333408 
L 151.034519 95.327443 
L 153.199857 95.322656 
L 157.941771 95.244504 
L 159.358722 95.20199 
L 159.404731 95.200432 
L 159.852252 95.185653 
L 164.706624 95.070648 
L 165.320288 95.058756 
L 166.765962 95.054311 
L 167.288291 95.04751 
L 167.691701 95.036036 
L 168.305061 95.042343 
L 168.519456 95.035314 
L 169.367347 95.030603 
L 169.636413 95.029425 
L 169.633792 95.026462 
L 172.318153 95.014494 
L 172.894698 95.003134 
L 173.944607 94.989564 
L 174.884698 94.977413 
L 175.004794 94.980262 
L 176.808325 94.941661 
L 176.858666 94.940597 
L 179.047825 94.891282 
L 182.683381 94.785928 
L 182.766738 94.787067 
L 182.793409 94.785282 
L 183.556423 94.769553 
L 183.855201 94.772098 
L 186.668739 94.725709 
L 187.766141 94.696675 
L 187.767308 94.696644 
L 188.501752 94.679927 
L 188.51087 94.67647 
L 189.743783 94.651242 
L 192.10961 94.610894 
L 192.826957 94.599458 
L 193.432339 94.593835 
L 193.641566 94.590453 
L 194.263969 94.572977 
L 197.432323 94.523548 
L 197.565755 94.513973 
L 197.933338 94.507818 
L 197.96605 94.510402 
L 198.453045 94.487758 
L 198.51448 94.492469 
L 199.967904 94.452007 
L 201.144397 94.424652 
L 202.196615 94.398854 
L 203.081093 94.385215 
L 203.255664 94.371131 
L 203.400843 94.359418 
L 206.094208 94.286889 
L 207.458919 94.220857 
L 207.749756 94.205888 
L 208.162285 94.19316 
L 208.687918 94.176937 
L 208.868727 94.171314 
L 209.228066 94.156611 
L 211.386109 94.07485 
L 211.730212 94.535059 
L 211.855172 94.648925 
L 212.035411 94.781292 
L 212.63061 95.043369 
L 212.91704 95.223418 
L 213.010616 95.319692 
L 213.047698 95.395032 
L 213.034704 95.475084 
L 212.813053 95.927885 
L 212.811761 96.028377 
L 212.841661 96.116862 
L 212.921599 96.211959 
L 213.187018 96.377419 
L 213.594342 96.457128 
L 214.22685 96.52354 
L 214.844731 96.662139 
L 215.33564 96.739683 
L 215.459535 96.785578 
L 215.529024 96.841618 
L 215.569753 96.90746 
L 215.606644 97.099477 
L 215.577579 97.393695 
L 215.448289 97.744979 
L 215.441982 97.846724 
L 215.480317 98.009714 
L 215.55125 98.121338 
L 215.647676 98.210242 
L 215.804474 98.302071 
L 215.974455 98.390861 
L 216.495074 98.58246 
L 216.640473 98.685231 
L 216.7899 98.877438 
L 216.925497 99.185752 
L 216.958855 99.353491 
L 216.993391 99.422904 
L 217.037956 99.493609 
L 217.251059 99.69691 
L 217.517125 99.825099 
L 217.66526 99.874566 
L 218.088996 99.958872 
L 218.427362 99.982428 
L 219.004287 99.95002 
L 219.09718 99.964343 
L 219.137643 99.993978 
L 219.184222 100.051499 
L 219.214313 100.206397 
L 219.206752 100.289716 
L 219.177041 100.351416 
L 219.098966 100.419918 
L 218.878454 100.568243 
L 218.816297 100.641417 
L 218.813448 100.735792 
L 218.84445 100.79415 
L 218.984075 100.889588 
L 219.141062 100.919565 
L 219.333497 100.912346 
L 219.363929 100.944678 
L 219.368564 101.002579 
L 219.278293 101.185326 
L 219.081983 101.436688 
L 219.06291 101.55762 
L 219.086922 101.682427 
L 219.155803 101.782691 
L 219.24239 101.825129 
L 219.39212 101.86183 
L 219.559252 101.867339 
L 219.746557 101.934283 
L 219.808714 101.981813 
L 219.834625 102.026986 
L 219.890589 102.058255 
L 220.163341 102.118512 
L 220.332372 102.099249 
L 220.47781 102.02767 
L 220.52853 102.02767 
L 220.553302 102.044805 
L 220.548515 102.098033 
L 220.524123 102.191344 
L 220.679515 102.803374 
L 221.416238 102.751818 
L 222.323246 102.713901 
L 222.915216 102.856907 
L 223.042037 102.915872 
L 223.152293 103.017503 
L 222.878363 103.255948 
L 222.771603 103.316813 
L 222.395471 103.461832 
L 222.186851 103.59097 
L 222.130812 103.642147 
L 222.072796 103.7445 
L 221.905551 103.951904 
L 221.529306 104.379554 
L 221.359743 104.681713 
L 221.24375 105.139605 
L 221.161305 105.332192 
L 220.619828 106.240758 
L 220.475834 106.521071 
L 220.367212 106.818595 
L 220.354522 106.930864 
L 220.360981 107.133709 
L 220.450873 107.327815 
L 220.471997 107.42181 
L 220.450911 107.529787 
L 220.194863 107.937706 
L 220.162923 107.988591 
L 220.058404 108.053179 
L 219.968133 108.138587 
L 219.869465 108.314685 
L 219.843896 108.410998 
L 219.864146 108.486946 
L 219.927936 108.585462 
L 219.928202 108.867104 
L 219.826951 109.199505 
L 219.814717 109.435518 
L 219.837703 109.609526 
L 219.899521 109.793143 
L 219.920794 109.856329 
L 219.882117 109.957239 
L 219.728017 110.119393 
L 219.670191 110.216048 
L 219.597967 110.50981 
L 219.593977 110.605742 
L 219.636643 110.913334 
L 219.778434 111.398733 
L 219.774634 111.449606 
L 219.650549 111.717723 
L 219.644508 111.800472 
L 219.698724 112.526025 
L 219.739643 112.758467 
L 219.862702 113.280871 
L 220.05962 113.933212 
L 220.179678 114.415686 
L 220.266986 114.693263 
L 220.485788 115.206778 
L 220.285489 116.003948 
L 220.571463 116.507432 
L 220.696346 116.654427 
L 220.953407 117.047237 
L 221.259289 117.56645 
L 221.333489 117.744866 
L 221.356741 117.873206 
L 221.408678 117.996988 
L 221.470682 118.078673 
L 221.628353 118.152873 
L 221.654227 118.186193 
L 221.813988 118.479081 
L 221.997912 118.708104 
L 222.095554 118.927552 
L 222.311203 119.239209 
L 222.481032 119.424691 
L 222.542295 119.467968 
L 222.786306 119.640339 
L 222.910657 119.753407 
L 223.06073 119.935469 
L 223.154649 120.135161 
L 223.175659 120.34758 
L 223.134892 120.560075 
L 223.096975 120.623448 
L 222.790067 120.894566 
L 222.237002 121.432016 
L 222.107484 121.832805 
L 222.072454 122.025923 
L 222.127886 122.313037 
L 222.520506 123.258456 
L 222.639501 123.44675 
L 222.768677 123.551344 
L 223.338801 123.848336 
L 223.653763 123.981768 
L 223.971765 124.185031 
L 224.430721 124.396614 
L 224.727143 124.559224 
L 224.834398 124.650902 
L 225.107264 124.972209 
L 225.279068 125.260918 
L 225.350229 125.46061 
L 225.343656 125.554414 
L 225.225726 125.770633 
L 225.193584 125.940766 
L 225.185529 126.318949 
L 225.215202 126.555759 
L 225.180172 126.660924 
L 225.12854 126.73976 
L 225.031771 127.075542 
L 225.029644 127.551139 
L 225.115356 127.683925 
L 225.685404 128.20633 
L 225.968414 128.429615 
L 226.488805 128.770375 
L 227.012691 129.068316 
L 227.435631 129.361246 
L 227.486313 129.396348 
L 227.595087 129.560706 
L 227.925513 129.745542 
L 228.322882 129.921526 
L 228.596014 130.087746 
L 228.952199 130.420793 
L 229.191175 130.72356 
L 229.635542 131.032975 
L 229.744392 131.168572 
L 229.833828 131.329929 
L 229.922542 131.443794 
L 230.374963 131.793862 
L 230.602503 131.91734 
L 230.856601 132.011524 
L 232.02371 132.391645 
L 232.175112 132.484424 
L 232.324197 132.654671 
L 232.451891 132.840191 
L 232.46781 132.891026 
L 232.56625 133.273844 
L 232.635436 133.74283 
L 232.688664 133.918624 
L 232.870461 134.160336 
L 233.06149 134.369981 
L 233.250619 134.552348 
L 233.453996 134.645431 
L 234.276052 134.781104 
L 234.74462 134.823998 
L 235.276447 134.915296 
L 235.559039 135.27319 
L 235.80892 135.734198 
L 236.056749 136.091827 
L 236.226198 136.277347 
L 236.644273 136.588966 
L 236.716118 137.368621 
L 236.829147 137.568541 
L 237.071581 137.824538 
L 237.633422 138.344511 
L 238.190401 138.714639 
L 238.633248 138.943851 
L 238.947146 139.13602 
L 239.323392 139.31246 
L 239.732539 139.407329 
L 239.937777 139.48985 
L 240.133555 139.647369 
L 240.322951 139.730802 
L 240.703679 139.842957 
L 241.051696 139.899719 
L 241.337897 140.033378 
L 241.404043 140.08049 
L 241.46506 140.154234 
L 241.489405 140.20425 
L 241.529268 140.286146 
L 241.594692 140.483862 
L 241.794612 140.657984 
L 241.952055 140.749471 
L 242.08978 140.804523 
L 242.32982 140.870289 
L 242.582816 140.913753 
L 242.702 140.967286 
L 242.776352 141.038295 
L 242.785813 141.120664 
L 242.883113 141.235099 
L 243.123153 141.425482 
L 244.440144 142.032345 
L 244.881358 142.264027 
L 245.162278 142.447685 
L 245.876548 143.08517 
L 246.045807 143.205343 
L 246.710875 143.486833 
L 246.934465 143.62319 
L 247.001788 143.719731 
L 247.040313 143.873564 
L 247.301933 144.091797 
L 247.610285 144.25718 
L 247.678141 144.343311 
L 247.915179 144.74296 
L 248.52493 145.297392 
L 248.628347 145.347011 
L 249.000299 145.43185 
L 249.194481 145.53804 
L 249.347062 145.65977 
L 249.460243 145.839135 
L 249.66495 146.539841 
L 249.680337 146.636875 
L 249.655755 146.867417 
L 249.835158 147.254794 
L 249.854763 147.387694 
L 249.851723 147.527927 
L 249.823229 147.677315 
L 249.824102 147.881604 
L 249.939373 148.341548 
L 250.087166 148.681282 
L 250.107189 148.812054 
L 250.137849 149.488824 
L 250.185112 149.650333 
L 250.288985 149.943183 
L 250.37428 150.110467 
L 250.467705 150.236224 
L 250.677388 150.455026 
L 250.954224 150.825271 
L 251.015299 150.906953 
L 251.073542 151.067208 
L 251.203934 151.560244 
L 251.169437 151.960083 
L 251.140942 152.025355 
L 250.469225 152.654558 
L 250.440236 152.70695 
L 250.40418 152.890836 
L 250.008863 153.213929 
L 249.969198 153.270805 
L 249.967526 153.331214 
L 250.045374 153.603966 
L 250.185758 153.776303 
L 250.462728 154.277355 
L 250.773967 154.749153 
L 250.865264 154.919628 
L 250.910362 155.10302 
L 250.951926 155.17779 
L 251.05603 155.315142 
L 251.105266 155.380103 
L 251.166625 155.428393 
L 251.313848 155.691571 
L 251.382084 155.986207 
L 251.381324 156.680872 
L 251.399105 156.820382 
L 251.555066 157.194386 
L 251.654418 157.350917 
L 251.793431 157.881969 
L 251.793624 157.882706 
L 251.876943 158.115869 
L 251.951866 158.231862 
L 252.109385 158.411152 
L 252.264776 158.568025 
L 252.461428 158.721327 
L 252.76807 158.866992 
L 252.92084 159.03154 
L 253.202407 159.499767 
L 253.330178 159.61234 
L 254.461155 160.129198 
L 254.91578 160.357916 
L 255.169156 160.384283 
L 255.555241 160.364868 
L 255.628554 160.35179 
L 255.967998 160.291238 
L 256.341127 160.168786 
L 256.411111 160.129198 
L 256.901677 159.672217 
L 257.439469 159.226179 
L 257.800859 159.076144 
L 258.0795 158.785839 
L 258.578842 158.194135 
L 258.740275 157.862456 
L 258.712654 157.644984 
L 258.716947 157.580509 
L 258.751901 157.492099 
L 259.143115 156.945835 
L 259.307929 156.832958 
L 259.512066 156.737481 
L 259.952825 156.606911 
L 259.953507 156.606709 
L 260.360565 156.621907 
L 260.601175 156.691738 
L 260.943834 156.757884 
L 261.385238 156.775171 
L 261.641349 156.804653 
L 262.042213 156.900282 
L 262.423953 157.038177 
L 262.524345 157.074442 
L 263.918083 157.631534 
L 264.408535 157.908921 
L 264.763922 158.048052 
L 265.014942 158.120809 
L 265.32337 158.264878 
L 265.450305 158.287484 
L 265.731529 158.292423 
L 266.301387 158.267614 
L 266.538502 158.280227 
L 266.601049 158.289775 
L 266.827211 158.324299 
L 267.096202 158.40834 
L 267.316524 158.392421 
L 267.428983 158.402831 
L 267.572787 158.446333 
L 267.897437 158.61791 
L 268.329304 158.768666 
L 268.606464 158.90054 
L 268.968234 159.164022 
L 269.131522 159.295461 
L 269.572665 159.650561 
L 269.663849 159.684755 
L 269.850052 159.703751 
L 269.979229 159.749343 
L 270.758087 160.079883 
L 271.324221 160.429419 
L 272.774834 161.107291 
L 272.923767 161.326055 
L 272.935165 161.557812 
L 272.722404 162.408857 
L 272.608424 162.762192 
L 272.403262 163.054739 
L 271.506588 163.624597 
L 270.758087 164.019725 
L 270.751899 164.027427 
L 270.571921 164.251482 
L 270.427547 164.490838 
L 270.381955 164.711198 
L 270.112205 164.999945 
L 269.812059 165.148118 
L 269.283918 165.558405 
L 269.105351 165.790163 
L 269.057141 165.941219 
L 269.048361 165.96873 
L 269.029364 166.097907 
L 269.025565 166.333464 
L 269.131946 166.675401 
L 269.396092 167.026338 
L 269.397897 167.028737 
L 269.568876 167.172847 
L 269.663849 167.252896 
L 269.998187 167.739207 
L 270.142561 168.096341 
L 270.191381 168.285113 
L 270.199551 168.316701 
L 270.201852 168.328072 
L 270.328727 168.954985 
L 270.328602 168.958724 
L 270.317329 169.296922 
L 270.286935 169.47169 
L 270.070374 170.14033 
L 269.989149 170.280508 
L 269.792987 170.619042 
L 269.633416 170.790011 
L 269.386461 171.010371 
L 269.271393 171.081532 
L 269.097714 171.188938 
L 268.846922 171.386502 
L 268.641759 171.473886 
L 268.561974 171.527076 
L 267.623507 172.678228 
L 267.571479 172.753069 
L 267.286905 173.162421 
L 267.190349 173.301314 
L 267.057373 173.59766 
L 267.056828 173.599229 
L 266.867408 174.14476 
L 266.822758 174.325145 
L 266.772425 174.52849 
L 266.63565 174.900784 
L 266.597619 175.155337 
L 266.472242 175.425088 
L 266.420106 175.657529 
L 266.289875 176.238139 
L 266.244283 176.526887 
L 266.107508 176.716852 
L 265.860516 177.161371 
L 264.834665 178.111197 
L 264.599108 178.247972 
L 264.134059 178.652473 
L 264.044372 178.730484 
L 264.030517 178.74711 
L 263.930392 178.867259 
L 263.792668 179.028502 
L 263.542863 179.684072 
L 263.090708 180.447732 
L 262.991926 180.702286 
L 262.927338 181.089815 
L 262.957732 181.811683 
L 262.877947 182.187814 
L 262.873767 182.666565 
L 262.952033 182.967736 
L 262.989152 183.214121 
L 263.107995 183.656132 
L 263.136527 183.874706 
L 263.253812 184.395173 
L 263.419728 184.844631 
L 263.548258 185.111494 
L 263.576579 185.156902 
L 263.634654 185.250016 
L 264.38099 186.158924 
L 264.483723 186.248284 
L 264.833297 186.475748 
L 265.042791 186.55694 
L 265.27869 186.590525 
L 265.66394 186.71689 
L 266.033422 186.898991 
L 266.324981 187.127177 
L 266.635118 187.386746 
L 267.480967 188.519017 
L 267.487834 188.528209 
L 267.577726 188.623838 
L 267.843753 189.094382 
L 268.771088 189.789807 
L 269.211049 190.023841 
L 269.295979 190.06902 
L 270.537309 190.729337 
L 270.87199 190.550352 
L 270.942239 190.529722 
L 271.05732 190.53561 
L 271.588463 190.752627 
L 272.111437 191.006496 
L 272.211321 191.108964 
L 272.278303 191.289317 
L 272.29312 191.453713 
L 272.270096 191.704049 
L 272.285977 191.828628 
L 272.619214 192.170338 
L 272.88148 192.36642 
L 273.517712 192.697491 
L 273.727206 192.775795 
L 274.004593 192.788865 
L 274.334221 192.729102 
L 274.609215 192.733889 
L 274.824939 192.784495 
L 274.904649 192.829365 
L 274.975696 192.920891 
L 275.046287 193.05436 
L 275.071286 193.150597 
L 275.129264 193.238854 
L 275.214786 193.309863 
L 275.336288 193.373046 
L 275.849118 193.555185 
L 276.763117 194.508012 
L 277.076294 194.721381 
L 277.190539 194.772216 
L 277.60113 194.811235 
L 277.881405 194.788705 
L 278.79358 194.642204 
L 279.280309 194.510216 
L 279.445921 194.705006 
L 279.476695 194.855155 
L 279.51636 194.910663 
L 279.595727 194.927304 
L 279.926723 194.893946 
L 279.937133 195.053441 
L 279.915173 195.117763 
L 279.646258 195.369771 
L 279.438816 195.419314 
L 279.077806 195.641839 
L 278.613645 195.647158 
L 278.513837 195.868772 
L 278.282383 195.979218 
L 278.033415 196.159191 
L 278.059896 196.444215 
L 278.081894 196.503332 
L 278.157614 196.594553 
L 278.885181 197.811927 
L 278.957558 197.876211 
L 279.428796 198.119945 
L 279.459484 198.135817 
L 279.99891 198.288588 
L 280.373825 198.327758 
L 280.810175 198.320882 
L 280.982322 198.25314 
L 281.5836 197.949727 
L 281.769044 197.809039 
L 282.134005 197.42056 
L 282.287459 197.291878 
L 282.739615 197.023115 
L 282.977527 196.96263 
L 283.058718 196.976915 
L 283.301684 197.105864 
L 284.160593 197.641262 
L 284.530418 197.820779 
L 284.704426 197.876553 
L 284.753513 197.947296 
L 284.767304 198.154472 
L 284.685353 198.262182 
L 284.665407 198.366359 
L 284.827751 198.712856 
L 284.917757 198.805977 
L 285.196968 199.0081 
L 285.36163 198.880519 
L 285.44548 198.925959 
L 285.655278 198.993321 
L 286.000407 199.006276 
L 286.123124 199.049019 
L 286.298994 199.164669 
L 286.422814 199.212351 
L 286.580219 199.188567 
L 286.963493 199.190619 
L 287.093961 199.321163 
L 287.234611 199.510634 
L 287.360406 199.640798 
L 287.814271 199.996299 
L 288.370338 200.334894 
L 288.609124 200.428926 
L 289.129971 200.677705 
L 289.329244 200.78116 
L 289.451397 200.860089 
L 289.631707 200.976596 
L 289.846824 201.323131 
L 289.947961 201.421799 
L 289.983675 201.49429 
L 289.989488 201.694285 
L 289.952901 201.895648 
L 289.841201 202.170034 
L 289.752145 202.333974 
L 289.694434 202.51296 
L 289.768815 202.737564 
L 289.787403 202.79369 
L 289.87076 202.87131 
L 290.056812 202.96029 
L 290.3959 203.04433 
L 290.551709 203.021155 
L 291.009867 203.03354 
L 291.21351 202.944143 
L 291.364988 202.90672 
L 291.621252 202.883924 
L 291.655027 202.904934 
L 291.672352 202.942281 
L 291.662436 203.090492 
L 291.685536 203.163933 
L 291.803618 203.251848 
L 291.94499 203.265222 
L 292.186284 203.386496 
L 292.408164 203.523499 
L 292.608653 203.87634 
L 292.763513 204.10768 
L 292.911572 204.269113 
L 293.283904 204.428531 
L 293.542712 204.499806 
L 294.608494 204.732894 
L 294.882993 204.760249 
L 295.09944 204.83217 
L 295.24313 204.906864 
L 295.443087 205.047932 
L 295.53541 205.155795 
L 295.620743 205.322888 
L 295.619565 205.495376 
L 295.547872 205.662926 
L 295.463565 205.989666 
L 295.437692 206.441252 
L 295.472798 206.642083 
L 295.474431 206.84147 
L 295.425952 206.908566 
L 295.40384 207.006284 
L 295.482448 207.187549 
L 295.677086 207.365775 
L 295.827653 207.620518 
L 296.616807 208.300328 
L 296.897689 208.615214 
L 296.969306 208.741161 
L 296.991418 208.838272 
L 296.987695 208.943588 
L 296.930021 209.108516 
L 296.794386 209.219152 
L 296.606549 209.299697 
L 296.303022 209.327698 
L 295.714472 209.174548 
L 295.547264 209.149169 
L 295.448672 209.160985 
L 295.324435 209.2277 
L 295.286594 209.288223 
L 295.268737 209.3712 
L 295.259489 209.630271 
L 295.257625 209.682461 
L 295.251429 209.856048 
L 295.244004 210.064041 
L 295.275614 210.327333 
L 295.429182 210.955245 
L 295.452129 211.020593 
L 295.605887 211.238977 
L 295.793611 211.447483 
L 295.966176 211.692614 
L 296.068225 211.879388 
L 296.164803 212.18356 
L 296.379008 212.599204 
L 297.006881 213.458607 
L 297.171163 213.645343 
L 297.939839 214.268581 
L 298.223875 214.570246 
L 298.365361 214.757514 
L 298.579604 215.150856 
L 298.890767 215.887009 
L 299.022793 216.279819 
L 299.066295 216.471874 
L 299.076401 216.639386 
L 299.039054 216.91058 
L 298.805473 217.836547 
L 298.746469 217.996194 
L 298.628767 218.18236 
L 298.507037 218.281712 
L 298.069509 218.432392 
L 297.797213 218.47768 
L 297.043203 218.520156 
L 296.676874 218.615861 
L 296.611574 218.64689 
L 296.494735 218.702409 
L 296.482772 218.713377 
L 296.411568 218.778661 
L 296.260888 219.028123 
L 296.111575 219.15369 
L 295.766446 219.375114 
L 295.708507 219.42838 
L 295.627088 219.558886 
L 295.543503 219.826699 
L 295.522113 219.995882 
L 295.478953 220.146373 
L 295.404828 220.272586 
L 295.378195 220.374635 
L 295.380209 220.521174 
L 295.429904 220.657076 
L 295.548708 220.83777 
L 295.819674 221.165537 
L 295.989503 221.347865 
L 296.214308 221.547861 
L 296.460161 221.819853 
L 296.505252 221.81254 
L 296.867067 221.753859 
L 297.196847 221.742271 
L 297.495662 221.812064 
L 297.570432 221.847892 
L 297.641289 221.920687 
L 297.663363 221.981286 
L 297.679092 222.15119 
L 297.661236 222.235763 
L 297.311776 222.939546 
L 297.306799 223.077993 
L 297.495054 223.642152 
L 297.52598 223.787817 
L 297.744706 224.220824 
L 298.422123 225.240292 
L 298.538875 225.589714 
L 298.904445 226.116108 
L 299.326509 226.617046 
L 299.430648 226.713663 
L 299.593221 226.83524 
L 300.126035 227.143364 
L 300.330324 227.284546 
L 300.477547 227.444649 
L 300.685179 227.774467 
L 300.802768 228.103107 
L 300.799082 228.309447 
L 300.678378 228.689605 
L 300.439136 229.174055 
L 300.429714 229.273521 
L 300.458323 229.534875 
L 300.486589 229.603642 
L 300.573707 229.733997 
L 300.70163 229.863363 
L 301.30496 230.222359 
L 301.928084 230.398457 
L 302.491597 230.610648 
L 302.802456 230.75677 
L 303.023348 230.883021 
L 303.195319 231.024359 
L 303.974618 231.664842 
L 304.4876 231.798539 
L 304.655909 231.729202 
L 304.831969 231.618794 
L 304.958182 231.508576 
L 305.061333 231.366178 
L 305.286214 230.779338 
L 305.195221 230.483296 
L 304.95651 230.278323 
L 304.522288 229.995009 
L 304.010521 229.832855 
L 303.623638 229.659074 
L 303.49507 229.560938 
L 303.394578 229.452012 
L 303.31844 229.325229 
L 303.264566 229.168394 
L 303.36065 228.770455 
L 303.382078 228.72171 
L 303.902203 228.809436 
L 304.295469 228.832573 
L 304.302954 228.867717 
L 304.421226 228.890019 
L 305.024974 228.905596 
L 305.197766 228.933825 
L 305.38796 228.632046 
L 305.740611 229.172725 
L 306.02157 229.739962 
L 306.181141 229.951811 
L 306.506779 230.187368 
L 307.283509 230.606431 
L 307.44479 230.753958 
L 307.532364 230.922685 
L 307.663782 231.36614 
L 307.663402 231.756823 
L 307.775177 232.128129 
L 308.026159 232.37421 
L 308.33983 232.474246 
L 308.614406 232.496548 
L 308.927507 232.402705 
L 309.379054 232.217755 
L 309.59835 232.160879 
L 309.723575 232.150127 
L 310.023682 232.049787 
L 310.17744 232.003892 
L 310.321776 231.995001 
L 310.578951 232.05655 
L 310.703188 232.115211 
L 310.913366 232.258521 
L 311.164842 232.519268 
L 311.289649 232.715198 
L 311.311951 232.835028 
L 311.318182 232.969485 
L 311.245273 233.49562 
L 311.245121 233.496715 
L 311.193033 233.679803 
L 310.917963 234.405015 
L 310.6068 235.647768 
L 310.521467 235.821168 
L 310.259733 236.228416 
L 310.060574 236.784482 
L 309.831665 237.167756 
L 309.462943 237.175393 
L 309.241101 237.196213 
L 309.096082 237.3214 
L 309.014929 237.351794 
L 308.73473 237.350883 
L 308.599513 237.389142 
L 308.484812 237.454338 
L 308.342034 237.607336 
L 308.304953 237.652661 
L 308.277028 237.774923 
L 308.288957 238.337752 
L 308.264072 238.476009 
L 308.282309 238.589494 
L 308.332915 238.690518 
L 308.422485 238.819624 
L 308.574095 239.038154 
L 308.673295 239.134961 
L 308.961321 239.311894 
L 309.150754 239.379826 
L 309.594627 239.409194 
L 310.012474 239.413944 
L 310.175351 239.434878 
L 310.380247 239.524845 
L 310.38211 239.526795 
L 310.49776 239.647867 
L 310.634155 239.893454 
L 310.663789 240.014424 
L 310.644945 240.199298 
L 310.544833 240.493934 
L 310.42204 240.682304 
L 310.281313 240.800424 
L 310.119273 240.801678 
L 309.924786 240.792028 
L 309.666624 240.662357 
L 309.307855 240.628354 
L 309.109 240.6396 
L 308.732944 240.500355 
L 308.648676 240.506434 
L 308.252066 240.633369 
L 308.062937 240.728123 
L 307.795846 240.972077 
L 307.558199 241.268613 
L 307.482593 241.465986 
L 307.435139 241.786838 
L 307.447107 242.000777 
L 307.494675 242.156396 
L 307.625371 242.309432 
L 308.069282 242.71896 
L 308.430975 242.995473 
L 308.632871 243.188554 
L 308.690088 243.316362 
L 308.692178 243.594661 
L 308.63496 243.731171 
L 308.543207 243.809816 
L 308.663227 243.833904 
L 309.029594 244.044385 
L 308.819834 244.280702 
L 308.436831 244.64769 
L 308.434585 244.649843 
L 308.108604 244.867239 
L 307.940371 245.003216 
L 307.75827 245.197664 
L 307.56405 245.465933 
L 307.507744 245.590817 
L 307.440648 245.874701 
L 307.37587 246.505423 
L 306.959618 247.320641 
L 306.812053 247.471093 
L 306.436986 247.728838 
L 306.086576 247.825758 
L 305.259239 247.897033 
L 305.195563 247.889397 
L 304.889225 247.746581 
L 304.750436 247.652396 
L 304.475936 247.412584 
L 303.879369 246.803555 
L 303.618547 246.408085 
L 303.166316 245.80088 
L 302.985887 245.613233 
L 302.66002 245.342456 
L 302.627433 245.342171 
L 302.382101 245.340024 
L 302.013302 245.387858 
L 301.528625 245.484816 
L 301.185244 245.613233 
L 300.97803 245.773525 
L 300.808922 245.968088 
L 300.774197 246.038413 
L 300.711698 246.257709 
L 300.611739 246.902299 
L 300.531231 247.188273 
L 300.031737 248.098358 
L 300.004458 248.220696 
L 299.997467 248.389917 
L 299.926268 248.756398 
L 299.661494 249.294532 
L 299.219293 250.401345 
L 299.125184 250.596516 
L 299.00467 250.768054 
L 298.762692 251.05323 
L 298.479568 251.336013 
L 298.034859 251.716399 
L 297.859597 251.835507 
L 297.580159 251.954996 
L 297.438938 251.991127 
L 297.151521 251.99827 
L 296.968622 251.966165 
L 296.600736 251.82278 
L 296.431476 251.674303 
L 296.33543 251.499687 
L 296.302148 251.38187 
L 296.295537 251.277503 
L 296.324146 251.173858 
L 296.581929 250.556319 
L 296.630674 250.459931 
L 296.742868 250.283643 
L 296.943775 250.095995 
L 297.12333 249.842544 
L 297.2674 249.555696 
L 297.37302 249.226866 
L 297.389851 248.990663 
L 297.301859 248.584745 
L 297.089858 248.088138 
L 296.871322 247.773252 
L 296.802935 247.713793 
L 296.653128 247.635907 
L 296.074114 247.465546 
L 295.527318 247.408632 
L 295.366455 247.374629 
L 295.228312 247.318323 
L 295.029039 247.281584 
L 294.463854 247.303658 
L 294.325027 247.32558 
L 294.077047 247.432378 
L 293.870023 247.571585 
L 293.67641 247.752622 
L 293.538419 247.924844 
L 293.42482 248.156488 
L 293.360156 248.367349 
L 293.370338 248.565901 
L 293.41479 248.678208 
L 293.576906 248.959319 
L 293.784348 249.398215 
L 293.860144 249.524998 
L 294.01318 249.717888 
L 294.44501 250.176275 
L 294.586458 250.4431 
L 294.765329 250.690131 
L 295.215547 251.074886 
L 295.292749 251.175074 
L 295.336099 251.298514 
L 295.327778 251.618301 
L 295.278349 251.81085 
L 295.186938 252.014569 
L 295.119956 252.112629 
L 295.040779 252.20556 
L 294.524301 252.584958 
L 294.427875 252.690921 
L 294.364996 252.837384 
L 294.348203 252.997525 
L 294.357626 253.135098 
L 294.39691 253.264084 
L 294.468489 253.400137 
L 295.116043 254.146967 
L 295.54677 254.737949 
L 295.682633 254.986234 
L 295.713864 255.111269 
L 295.707633 255.165941 
L 295.576329 255.687547 
L 295.355133 256.116755 
L 295.214749 256.261546 
L 295.050087 256.379705 
L 294.867986 256.472142 
L 294.630264 256.53863 
L 294.367086 256.564731 
L 293.780739 256.529132 
L 292.9754 256.353946 
L 292.257027 256.330086 
L 292.062351 256.358619 
L 291.871588 256.426702 
L 291.675848 256.592238 
L 291.525433 256.840675 
L 291.508146 257.089149 
L 291.546633 257.175773 
L 291.828656 257.617937 
L 292.664465 258.084263 
L 292.872781 258.216251 
L 293.09485 258.40709 
L 294.014396 258.808525 
L 294.207021 258.77057 
L 294.307399 258.7064 
L 294.375026 258.705678 
L 294.576769 258.823076 
L 294.645613 258.902444 
L 294.727146 259.082455 
L 294.765975 259.414476 
L 294.756933 259.765 
L 294.586572 259.907664 
L 294.495692 259.942998 
L 294.377078 259.958461 
L 294.217165 259.931258 
L 294.041979 259.849915 
L 293.873746 259.823471 
L 293.713605 259.828335 
L 293.607567 259.860325 
L 293.268251 260.096794 
L 293.130868 260.156861 
L 292.75922 260.262405 
L 292.1875 260.31476 
L 292.030361 260.306325 
L 291.854263 260.270498 
L 291.350057 260.117234 
L 290.879931 259.935855 
L 290.675073 259.882399 
L 290.282376 259.836579 
L 289.31249 259.928066 
L 289.001592 259.881601 
L 288.808626 259.783883 
L 288.659427 259.757782 
L 288.532796 259.840416 
L 288.485343 259.924267 
L 288.344996 260.113169 
L 288.275963 260.246676 
L 288.267719 260.31362 
L 288.278926 260.373193 
L 288.308979 260.414985 
L 288.490662 260.591539 
L 288.758399 260.814254 
L 289.04476 261.012313 
L 289.255424 261.158016 
L 289.840669 261.514808 
L 290.192789 261.704394 
L 290.575987 261.986644 
L 290.876018 262.182308 
L 291.158724 262.317906 
L 291.373309 262.403542 
L 291.585158 262.523676 
L 292.011592 262.857521 
L 292.244604 263.109073 
L 292.490571 263.454848 
L 292.573814 263.657617 
L 292.596647 263.886487 
L 292.577765 264.20787 
L 292.540988 264.433473 
L 292.505654 264.528798 
L 292.31774 264.734416 
L 292.204141 264.822104 
L 291.702937 265.036917 
L 291.324906 265.252907 
L 291.202302 265.301462 
L 290.643234 265.424294 
L 290.085154 265.594959 
L 289.747434 265.721324 
L 289.524605 265.871966 
L 289.283045 266.145554 
L 289.237149 266.226935 
L 289.164317 266.612869 
L 289.0696 267.396172 
L 288.962649 268.067547 
L 288.912385 268.250293 
L 288.765731 268.582011 
L 288.342717 269.05567 
L 288.262703 269.170485 
L 288.215022 269.323863 
L 287.22101 269.338035 
L 287.051219 269.341302 
L 287.048027 269.339592 
L 285.819902 269.34077 
L 285.809188 269.341226 
L 282.057184 269.374812 
L 281.845182 269.377281 
L 281.826376 269.377167 
L 281.807341 269.377775 
L 281.01245 269.382714 
L 280.834833 269.38526 
L 280.826103 269.385312 
L 278.623865 269.398368 
L 278.604261 269.398368 
L 278.559353 269.393998 
L 278.397806 269.406232 
L 278.122889 269.399355 
L 273.135198 269.431688 
L 272.28005 269.45247 
L 272.242779 269.450988 
L 271.04672 269.460866 
L 266.108078 269.497188 
L 266.102492 269.497222 
L 265.972215 269.498023 
L 264.184338 269.511853 
L 264.063444 269.517096 
L 263.071749 269.520249 
L 262.723277 269.52515 
L 263.733132 268.339881 
L 264.187795 267.571206 
L 264.418869 266.796451 
L 264.980027 266.492127 
L 264.954305 265.942671 
L 265.685976 265.628849 
L 265.891822 265.069857 
L 266.490896 264.900522 
L 267.3696 264.532749 
L 268.129879 264.062091 
L 268.138047 263.314425 
L 268.705854 262.341385 
L 269.110442 262.446246 
L 269.45975 262.059591 
L 269.88314 261.750878 
L 270.133329 261.568455 
L 271.156292 261.227809 
L 271.676341 260.716878 
L 272.279443 260.646781 
L 272.294944 260.113017 
L 272.714235 259.270369 
L 273.899276 259.014409 
L 274.086354 258.398352 
L 274.649677 257.847795 
L 274.04175 257.255825 
L 274.139773 256.405388 
L 274.666926 255.800995 
L 274.567764 254.685481 
L 274.024844 254.134923 
L 272.920423 254.009166 
L 272.101939 253.591394 
L 271.619237 253.235627 
L 271.984236 252.77329 
L 271.708293 251.889116 
L 271.675239 251.423169 
L 271.025326 251.08888 
L 270.995239 251.073405 
L 271.234443 250.541502 
L 271.214003 250.484968 
L 271.287254 250.442416 
L 269.711986 250.447317 
L 268.823708 250.448305 
L 268.69533 250.445987 
L 268.69419 250.445999 
L 268.382229 250.449293 
L 264.166937 250.4325 
L 258.290057 250.426611 
L 258.272884 250.426497 
L 258.077866 250.425433 
L 255.192217 250.423647 
L 255.189651 250.423633 
L 254.841541 250.42171 
L 254.5012 250.423153 
L 254.077577 250.423153 
L 253.807674 250.419354 
L 252.442204 250.423609 
L 252.261661 250.422052 
L 250.751095 250.421216 
L 250.058824 250.428511 
L 247.990254 250.421824 
L 247.352654 250.420722 
L 247.278787 250.420695 
L 244.769886 250.419772 
L 243.88309 250.437781 
L 243.777014 250.4287 
L 243.765616 250.424521 
L 243.676218 250.426231 
L 240.582519 250.424407 
L 240.490766 250.424711 
L 239.799632 250.42696 
L 238.762272 250.430334 
L 238.404529 250.438237 
L 235.444642 250.445531 
L 235.429559 250.444658 
L 234.280193 250.451534 
L 230.829246 250.459171 
L 230.780425 250.457157 
L 230.447872 250.455144 
L 223.703458 250.474026 
L 223.694872 250.472317 
L 223.619038 250.47433 
L 223.614326 250.473912 
L 222.625101 250.468631 
L 222.503372 250.464262 
L 222.131723 250.460767 
L 221.990376 250.457242 
L 220.085569 250.409742 
L 218.959683 250.401763 
L 218.690084 250.396672 
L 218.59552 250.398192 
L 218.223036 250.396482 
L 216.435463 250.396444 
L 216.241546 250.389568 
L 215.619313 250.392563 
L 215.097119 250.395077 
L 214.673459 250.389872 
L 213.543051 250.385008 
L 213.023192 250.38839 
L 212.962821 250.387516 
L 211.479268 250.394659 
L 209.980518 250.398268 
L 209.273771 250.399788 
L 208.711968 250.404423 
L 208.615466 250.404005 
L 208.465735 250.403093 
L 206.246789 250.410616 
L 206.18562 250.410844 
L 201.633786 250.424217 
L 201.521744 250.421672 
L 200.358245 250.420684 
L 199.998375 250.416201 
L 198.974766 250.415137 
L 198.921993 250.415137 
L 198.247389 250.41168 
L 197.357515 250.410084 
L 196.523568 250.407766 
L 196.519427 250.407804 
L 195.861159 250.413769 
L 195.384189 250.416516 
L 193.518697 250.427257 
L 193.060766 250.425585 
L 192.958413 250.426459 
L 192.872207 250.424749 
L 189.338397 250.44462 
L 188.996801 250.451572 
L 187.786266 250.448685 
L 186.840923 250.471025 
L 186.469807 250.446481 
L 185.122725 250.44386 
L 184.220542 250.420608 
L 181.458181 250.412553 
L 180.991166 250.41746 
L 179.657234 250.431474 
L 171.751069 250.449255 
L 169.232585 250.437591 
L 169.222897 250.439339 
L 168.646411 250.441252 
L 167.12853 250.446291 
L 167.115802 250.445645 
L 160.500489 250.431094 
L 160.46033 250.431398 
L 159.771782 250.431512 
L 159.720378 250.433602 
L 158.315356 250.446253 
L 157.358605 250.443439 
L 152.052584 250.427832 
L 151.951603 250.427535 
L 151.121166 250.425093 
L 151.120687 250.425091 
L 148.104761 250.420874 
L 148.053052 250.415175 
L 146.878687 250.418366 
L 143.823323 250.405981 
L 143.55342 250.40712 
L 140.902683 250.406551 
L 137.295474 250.399111 
L 136.499667 250.39747 
L 136.127905 250.395798 
L 135.788361 250.395836 
L 135.45938 250.40051 
L 135.441523 250.401194 
L 130.170515 250.410634 
L 128.674732 250.413313 
L 128.077785 250.413313 
L 126.658744 250.413351 
L 126.479037 250.413351 
L 122.318697 250.412873 
L 122.179401 250.412857 
L 121.362588 250.414909 
L 121.299367 250.415137 
L 120.903442 250.41829 
L 120.873047 250.41791 
L 118.215823 250.407238 
L 114.877485 250.39383 
L 111.385041 250.379803 
L 105.37169 250.394469 
L 103.859111 250.383755 
L 101.631616 250.38687 
L 101.633212 249.794748 
L 101.632984 249.688368 
L 101.628652 249.062204 
L 101.633554 248.993437 
L 101.632452 248.959509 
L 101.634907 247.754186 
L 101.635605 247.41133 
L 101.634123 246.598734 
L 101.633668 246.30501 
L 101.635567 246.086436 
L 101.627801 243.984766 
L 101.627589 243.927443 
L 101.623599 242.711931 
L 101.616875 240.237177 
L 101.614101 237.168858 
L 101.603539 235.924813 
L 101.619306 235.280337 
L 101.617824 234.731527 
L 101.620654 234.174537 
L 101.620674 234.170598 
L 101.617331 234.041003 
L 101.622232 233.739453 
L 101.624397 233.398275 
L 101.627551 233.261728 
L 101.627361 231.569289 
L 101.626677 231.512148 
L 101.629906 231.40968 
L 101.628728 231.025533 
L 101.629868 229.827953 
L 101.633288 229.210148 
L 101.629222 228.515673 
L 101.623979 228.103183 
L 101.625423 228.084262 
L 101.625119 227.815955 
L 101.625195 227.80923 
L 101.626297 227.695061 
L 101.622802 227.418016 
L 101.620484 227.068442 
L 101.625689 226.438289 
L 101.625803 226.339887 
L 101.615214 225.282239 
L 101.615203 225.281172 
L 101.610568 224.727576 
L 101.609352 224.484344 
L 101.616419 224.195977 
L 101.616588 223.971324 
L 101.616951 223.490712 
L 101.620218 223.474185 
L 101.621795 223.008984 
L 101.62284 222.701064 
L 101.623865 222.654978 
L 101.622536 222.341042 
L 101.625689 222.233179 
L 101.641912 219.073943 
L 101.640126 218.570421 
L 101.642368 218.510582 
L 101.646102 217.532257 
L 101.646129 217.525118 
L 101.642748 217.407719 
L 101.642786 217.402742 
L 101.645369 216.30858 
L 101.647117 215.756389 
L 101.656463 215.200665 
L 101.661516 214.658048 
L 101.658895 214.089292 
L 101.658743 213.877101 
L 101.658097 213.873187 
L 101.659693 213.693594 
L 101.659579 213.524069 
L 101.665658 212.988367 
L 101.674548 211.554319 
L 101.670027 211.315191 
L 101.659465 210.339491 
L 101.660453 210.194244 
L 101.663454 209.825521 
L 101.654564 209.655084 
L 101.65578 209.640001 
L 101.650271 208.210474 
L 101.655134 208.173507 
L 101.648409 207.160042 
L 101.644669 206.536706 
L 101.644648 206.533119 
L 101.638651 205.794748 
L 101.638645 205.793926 
L 101.632908 205.448683 
L 101.64043 205.280032 
L 101.641798 205.241355 
L 101.635947 205.146106 
L 101.629488 203.930404 
L 101.635833 203.644279 
L 101.639139 202.000585 
L 101.671775 200.23444 
L 101.687428 199.546614 
L 101.68834 199.253231 
L 101.694116 199.011267 
L 101.704525 198.575283 
L 101.710831 198.218756 
L 101.707526 197.997599 
L 101.715695 197.674202 
L 101.724699 197.10689 
L 101.727586 196.931476 
L 101.735641 196.568566 
L 101.750952 195.874965 
L 101.748787 195.779982 
L 101.751864 195.625388 
L 101.757259 195.488879 
L 101.757943 195.27551 
L 101.759159 195.217039 
L 101.759349 194.475414 
L 101.762844 193.838575 
L 101.772456 193.661413 
L 101.781233 191.971216 
L 101.781219 191.9671 
L 101.778425 191.093316 
L 101.778421 191.092095 
L 101.777129 190.871241 
L 101.778193 190.816455 
L 101.785982 187.684839 
L 101.790085 187.272083 
L 101.802471 186.995683 
L 101.81573 186.135369 
L 101.824279 185.749283 
L 101.825267 185.627553 
L 101.831497 185.105871 
L 101.831459 185.045006 
L 101.832371 184.751092 
L 101.833169 184.341565 
L 101.830206 183.101927 
L 101.824241 182.360303 
L 101.824431 182.302971 
L 101.830928 181.881096 
L 101.830928 181.413592 
L 101.826558 181.211848 
L 101.825153 181.050568 
L 101.818504 180.616915 
L 101.80665 179.530086 
L 101.806004 179.332104 
L 101.80804 178.606423 
L 101.808436 178.465558 
L 101.804636 178.047787 
L 101.812503 176.878781 
L 101.823595 175.23064 
L 101.823631 175.229448 
L 101.830054 175.018524 
L 101.828914 174.972439 
L 101.832029 174.695963 
L 101.838839 173.665807 
L 101.846085 172.569754 
L 101.846163 172.55798 
L 101.850532 172.485793 
L 101.84981 171.470277 
L 101.86022 171.33487 
L 101.86079 171.333768 
L 101.859992 170.226916 
L 101.861892 169.8009 
L 101.876823 169.628943 
L 101.871618 169.234841 
L 101.95114 165.332277 
L 101.953151 165.233565 
L 101.955317 165.167457 
L 102.006911 162.560221 
L 102.020877 162.006438 
L 102.022716 161.933488 
L 102.007215 161.187038 
L 102.007215 160.890692 
L 102.007215 160.655135 
L 102.008625 160.441425 
L 102.008735 160.424746 
L 102.007215 160.392983 
L 102.007215 160.351191 
L 102.007215 159.796492 
L 102.007406 159.612899 
L 102.007496 159.525409 
L 102.007801 159.2318 
L 102.009237 157.846422 
L 102.009304 157.781341 
L 102.009305 157.780467 
L 102.01356 157.760406 
L 102.003378 157.661321 
L 102.003378 157.585334 
L 102.000567 157.025891 
L 101.996368 156.190283 
L 101.995779 156.073211 
L 102.008759 155.083232 
L 102.026803 153.707013 
L 102.02708 153.685886 
L 102.037572 152.885669 
L 102.033772 152.27778 
L 102.037572 151.977635 
L 102.037551 151.973539 
L 102.033013 151.071881 
L 102.04517 150.845442 
L 102.094561 150.739062 
L 102.295925 150.499743 
L 102.596108 150.218595 
L 102.69489 150.047626 
L 102.618904 149.492927 
L 102.463132 149.390346 
L 102.246572 149.318159 
L 101.976783 149.283966 
L 101.710831 149.302962 
L 101.403088 149.432139 
L 100.791362 149.565114 
L 100.384836 149.527121 
L 99.940317 149.394145 
L 100.020862 148.997194 
L 99.950704 148.776914 
L 99.887127 148.577295 
L 99.685764 148.467115 
L 99.260203 148.379731 
L 98.998051 148.410125 
L 98.652466 148.597811 
L 97.976 148.907834 
L 97.615066 148.961025 
L 97.124956 148.953426 
L 96.920227 148.91552 
L 96.919755 148.915433 
L 96.524627 148.801454 
L 96.114302 148.5469 
L 95.840752 148.163208 
L 95.643188 147.760482 
L 95.555804 147.649542 
L 95.41599 147.549849 
L 95.327846 147.511552 
L 95.19468 147.492099 
L 94.726606 147.554712 
L 94.270689 147.532828 
L 93.92784 147.455626 
L 93.809909 147.40821 
L 93.51022 147.177821 
L 93.439059 147.107305 
L 93.381918 146.998493 
L 93.387997 146.877523 
L 93.657937 146.491552 
L 93.721766 146.328638 
L 93.738786 146.197942 
L 93.669487 145.887918 
L 93.518123 145.645371 
L 93.275575 145.411941 
L 92.953964 145.181551 
L 92.545463 144.978516 
L 92.146687 144.825936 
L 91.738186 144.700749 
L 91.576488 144.617468 
L 91.406279 144.497714 
L 91.096217 144.204104 
L 90.912635 143.976754 
L 90.795312 143.745756 
L 90.712032 143.529955 
L 90.663654 143.322882 
L 90.608083 143.085019 
L 90.510212 142.147654 
L 90.528329 142.025486 
L 90.53392 141.987779 
L 90.55702 141.922735 
L 90.637261 141.828512 
L 90.819628 141.689913 
L 90.951578 141.612104 
L 91.034859 141.585357 
L 91.25917 141.551315 
L 91.476186 141.441895 
L 91.622687 141.309983 
L 91.709007 141.10786 
L 91.701675 140.952962 
L 91.637163 140.796469 
L 91.483405 140.572234 
L 91.333484 140.472274 
L 91.22433 140.438802 
L 91.10526 140.429228 
L 90.845235 140.458369 
L 90.550485 140.607795 
L 90.311965 140.703424 
L 90.18408 140.748028 
L 90.036477 140.773939 
L 89.635954 140.733894 
L 89.502751 140.696471 
L 89.476172 140.681617 
L 89.406286 140.642559 
L 89.317307 140.583708 
L 89.182887 140.418362 
L 89.158192 140.350088 
L 89.141665 140.195495 
L 89.155684 139.970234 
L 89.095997 139.85785 
L 88.96891 139.739958 
L 88.831831 139.658767 
L 88.404447 139.527919 
L 88.298727 139.460105 
L 88.142827 139.360103 
L 88.004001 139.17029 
L 87.92072 138.807836 
L 87.793595 138.644048 
L 87.488587 138.429767 
L 87.275978 138.354465 
L 86.513951 138.178367 
L 86.032465 137.970241 
L 85.845919 137.871877 
L 85.690451 137.765003 
L 85.565834 137.662498 
L 85.3783 137.431804 
L 85.324464 137.336365 
L 85.277467 137.129341 
L 85.221427 136.597628 
L 85.194566 136.479888 
L 85.132827 136.385589 
L 84.973142 136.234529 
L 84.856086 136.152046 
L 84.172971 135.870555 
L 83.972633 135.750497 
L 83.593083 135.464447 
L 83.206161 135.118482 
L 83.065283 134.954732 
L 82.962398 134.778901 
L 82.800813 134.336053 
L 82.81905 134.138794 
L 83.032685 133.579916 
L 83.072502 133.526383 
L 83.193244 133.430223 
L 83.350269 133.357732 
L 83.477888 133.322513 
L 83.714243 133.306936 
L 84.201579 133.468938 
L 84.373612 133.493329 
L 84.481702 133.489682 
L 84.663917 133.455602 
L 84.853882 133.37897 
L 84.9535 133.32445 
L 85.033019 133.251466 
L 85.243007 132.981905 
L 85.323248 132.771651 
L 85.353795 132.602962 
L 85.350603 132.525114 
L 85.294906 132.347231 
L 85.101103 132.055558 
L 85.086743 132.003943 
L 85.019798 131.763316 
L 85.028422 131.636495 
L 85.087616 131.433156 
L 85.233851 131.147106 
L 85.422448 130.900379 
L 85.6316 130.700194 
L 85.691819 130.576109 
L 86.064911 130.099334 
L 86.180752 129.984177 
L 86.419234 129.817615 
L 86.533517 129.764691 
L 86.77238 129.707587 
L 87.062799 129.68046 
L 87.35998 129.677003 
L 87.717419 129.628372 
L 87.815897 129.598585 
L 88.014677 129.494636 
L 88.204946 129.303151 
L 88.25844 129.20285 
L 88.293698 129.054525 
L 88.313758 128.505601 
L 88.214026 127.907438 
L 88.209163 127.673439 
L 88.23895 127.566451 
L 88.432866 127.302627 
L 88.631646 127.150655 
L 88.814012 127.050961 
L 88.914922 127.040627 
L 89.063247 127.054608 
L 89.214649 127.100808 
L 89.424371 127.20715 
L 89.774515 127.443011 
L 90.218312 127.692854 
L 90.531983 127.807137 
L 90.815259 127.867318 
L 90.940484 127.873397 
L 91.228167 127.841026 
L 91.516953 127.76884 
L 91.839893 127.628265 
L 92.048855 127.472494 
L 92.322405 127.153352 
L 92.420123 126.90503 
L 92.454052 126.752789 
L 92.455381 126.746826 
L 92.40599 126.389692 
L 92.314807 126.230121 
L 92.235021 126.12374 
L 92.162834 126.062951 
L 92.067814 126.01736 
L 92.010824 126.01356 
L 91.620332 126.079516 
L 91.618888 126.079516 
L 91.525273 126.120245 
L 91.155904 126.347367 
L 91.152941 126.349191 
L 91.145532 126.35375 
L 91.139757 126.357322 
L 91.102904 126.379966 
L 91.09428 126.385285 
L 90.946563 126.459447 
L 90.677268 126.529354 
L 90.447448 126.532394 
L 90.276631 126.471605 
L 89.917977 126.260667 
L 89.787889 126.161581 
L 89.612779 125.988941 
L 89.573266 125.914171 
L 89.555029 125.788946 
L 89.576913 125.628463 
L 89.671136 125.508709 
L 89.787851 125.432723 
L 89.941684 125.376797 
L 91.181778 125.325734 
L 91.283333 125.305674 
L 91.519194 125.206588 
L 91.638948 125.088658 
L 91.81326 124.725596 
L 91.828458 124.48244 
L 91.805662 124.205091 
L 91.803954 124.194297 
L 91.786665 124.085033 
L 91.724623 123.979868 
L 91.635871 123.888685 
L 91.410952 123.730026 
L 91.31369 123.694768 
L 91.19272 123.681395 
L 90.794553 123.701455 
L 90.53677 123.679571 
L 90.27173 123.614527 
L 89.920978 123.417571 
L 89.483868 123.095998 
L 89.403627 123.014541 
L 89.297246 122.837037 
L 89.303325 122.667436 
L 89.366546 122.540387 
L 89.440708 122.443733 
L 89.719121 122.229148 
L 89.832986 122.086978 
L 89.87911 121.938273 
L 89.875045 121.797395 
L 89.854604 121.715862 
L 89.79089 121.615484 
L 89.604002 121.44026 
L 89.247855 121.259261 
L 88.956334 121.167964 
L 88.66242 121.124728 
L 88.507826 121.145054 
L 87.960574 121.284261 
L 87.610051 121.314731 
L 87.484332 121.301814 
L 87.365556 121.272056 
L 86.970095 121.172979 
L 86.79453 121.16557 
L 86.615506 121.19 
L 86.403087 121.28806 
L 86.188578 121.522477 
L 86.156246 121.579543 
L 86.129385 121.691736 
L 86.160843 121.992413 
L 86.149331 122.073035 
L 86.054007 122.270181 
L 85.8974 122.391189 
L 85.680307 122.497379 
L 85.514088 122.52538 
L 85.119226 122.541755 
L 84.017465 122.642665 
L 83.885667 122.636396 
L 83.689813 122.588638 
L 83.09127 122.359768 
L 82.245773 122.169765 
L 81.995741 122.067678 
L 81.906647 122.010726 
L 81.773329 121.883943 
L 81.692898 121.724334 
L 81.666873 121.592612 
L 81.70327 121.362223 
L 81.698787 121.264504 
L 81.651713 121.115344 
L 81.566115 121.029289 
L 81.429264 120.962232 
L 81.187362 120.913031 
L 81.042609 120.922871 
L 80.569139 121.11124 
L 80.297223 121.185859 
L 79.913037 121.189772 
L 79.751529 121.161999 
L 79.541389 121.085291 
L 79.443063 121.034229 
L 79.298765 120.873822 
L 79.281175 120.825115 
L 79.276236 120.727701 
L 79.29831 120.611898 
L 79.440214 120.335726 
L 79.490364 120.11852 
L 79.468063 119.88908 
L 79.348346 119.708423 
L 78.994669 119.546686 
L 78.891974 119.518306 
L 78.748664 119.500069 
L 78.334464 119.524726 
L 78.119917 119.519141 
L 77.944313 119.480464 
L 77.607277 119.34008 
L 77.326204 119.102927 
L 77.166557 118.885151 
L 76.861397 118.551648 
L 76.676333 118.448345 
L 76.108033 118.235926 
L 75.622025 117.983234 
L 75.447105 117.802501 
L 75.421688 117.74536 
L 75.39798 117.626061 
L 75.402312 117.388985 
L 75.395511 117.305552 
L 75.293158 117.092335 
L 75.253341 117.031964 
L 75.137082 116.930333 
L 75.032829 116.886792 
L 74.634434 116.794051 
L 74.34033 116.663089 
L 73.947823 116.314769 
L 73.864087 116.275826 
L 73.556381 116.191292 
L 73.286364 116.192203 
L 72.565484 116.358841 
L 72.404469 116.371835 
L 72.239884 116.360893 
L 72.075336 116.323659 
L 71.816717 116.227575 
L 71.642139 116.130883 
L 71.401719 115.929064 
L 71.278773 115.746279 
L 71.183943 115.548449 
L 71.095799 115.149142 
L 71.133678 115.010581 
L 71.220986 114.862029 
L 71.358179 114.736234 
L 71.543509 114.565265 
L 71.596737 114.381454 
L 71.566799 114.191185 
L 71.513608 113.911366 
L 71.629563 113.664449 
L 71.912687 113.466582 
L 72.026401 113.392685 
L 72.13772 113.275666 
L 72.181564 113.165031 
L 72.189999 112.986007 
L 72.170736 112.85968 
L 72.093914 112.722943 
L 71.968613 112.585865 
L 71.750989 112.487121 
L 71.557756 112.447836 
L 71.189034 112.427547 
L 70.9765 112.344761 
L 70.825706 112.237924 
L 70.739348 112.130252 
L 70.695922 112.030938 
L 70.649988 111.837591 
L 70.632967 111.578441 
L 70.595164 111.461346 
L 70.536997 111.358651 
L 70.371879 111.22332 
L 70.291182 111.186124 
L 69.831428 111.060139 
L 69.610042 110.961509 
L 69.21841 110.667557 
L 69.01906 110.474628 
L 68.909184 110.335422 
L 68.839771 110.226306 
L 68.782022 110.08349 
L 68.773777 109.891131 
L 68.790418 109.764956 
L 68.956486 109.461923 
L 69.126657 109.278075 
L 69.20553 109.131764 
L 69.256137 108.973181 
L 69.269168 108.729987 
L 69.245195 108.619389 
L 69.161648 108.419584 
L 68.973469 108.167234 
L 68.772979 108.032245 
L 68.650794 107.97328 
L 68.485942 107.929929 
L 68.108785 107.90474 
L 67.53148 107.947444 
L 67.285665 107.910781 
L 66.32691 107.5462 
L 66.125053 107.438375 
L 66.054728 107.381728 
L 66.035984 107.341271 
L 65.978704 107.217636 
L 65.980604 107.101871 
L 66.162476 106.710542 
L 66.182309 106.524908 
L 66.157461 106.421605 
L 66.093937 106.326926 
L 65.887255 106.15155 
L 65.757128 106.091331 
L 65.529816 106.024084 
L 65.011325 106.006949 
L 64.799171 105.928341 
L 64.693019 105.869452 
L 64.370382 105.618318 
L 64.125213 105.513837 
L 63.922748 105.460229 
L 63.807249 105.450237 
L 63.638104 105.469423 
L 63.437424 105.517256 
L 62.939829 105.699395 
L 62.713695 105.762084 
L 62.59717 105.774697 
L 62.362449 105.737046 
L 62.256562 105.690619 
L 62.141291 105.578539 
L 62.11481 105.50848 
L 62.124726 105.391157 
L 62.168494 105.251457 
L 62.278028 105.133033 
L 62.498312 105.020041 
L 63.034926 104.877909 
L 63.181997 104.813435 
L 63.36178 104.688286 
L 63.438602 104.533312 
L 63.456763 104.438747 
L 63.417858 104.221769 
L 63.376559 104.121202 
L 63.288833 103.984958 
L 63.123298 103.81361 
L 62.913956 103.659738 
L 62.760616 103.468291 
L 62.70792 103.337975 
L 62.697851 103.141475 
L 62.718064 103.018301 
L 62.65017 102.691333 
L 62.441816 102.337997 
L 62.072676 101.861526 
L 61.98419 101.585811 
L 62.012381 101.475859 
L 62.103982 101.259413 
L 62.180804 101.098816 
L 62.205803 100.871959 
L 62.108541 100.600537 
L 61.834117 100.247126 
L 61.593659 100.03767 
L 61.387281 99.9061 
L 61.114149 99.784218 
L 60.78095 99.55512 
L 60.723276 99.477006 
L 60.658156 99.308127 
L 60.643301 99.195972 
L 60.664197 99.071962 
L 60.700632 98.901981 
L 60.720427 98.63546 
L 60.674113 98.428436 
L 60.521229 98.191967 
L 60.687069 98.146451 
L 60.820842 98.083383 
L 61.736551 97.824004 
L 61.975679 97.734759 
L 62.204132 97.497378 
L 62.333764 96.944313 
L 62.290148 96.800737 
L 62.197521 96.621562 
L 61.960102 96.494285 
L 61.831344 96.238706 
L 61.593203 96.013027 
L 61.32862 96.015535 
L 61.00982 96.08757 
L 60.742425 96.22898 
L 60.714538 96.465373 
L 60.646454 96.677488 
L 60.623355 96.987207 
L 60.708117 97.133899 
L 60.626052 97.310452 
L 60.193653 97.573592 
L 60.141109 97.488222 
L 59.977093 97.358665 
L 59.667335 97.324092 
L 59.562095 97.337199 
L 59.335466 97.425989 
L 59.10481 97.483207 
L 58.670549 97.470099 
L 58.350268 97.404941 
L 58.131922 97.31448 
L 57.977556 97.193206 
L 57.910194 97.096589 
L 57.887855 96.999707 
L 57.92087 96.859475 
L 58.062053 96.6553 
L 58.102781 96.557392 
L 58.112583 96.462447 
L 58.094841 96.345581 
L 58.049363 96.229778 
L 57.793062 95.879786 
L 57.681818 95.597079 
L 57.7257 95.421134 
" clip-path="url(#p64f04dae1e)" style="fill: #007add"/>
   </g>
   <g id="PathCollection_1">
    <defs>
     <path id="mc5560758ed" d="M 0 1.581139 
C 0.419323 1.581139 0.821528 1.41454 1.118034 1.118034 
C 1.41454 0.821528 1.581139 0.419323 1.581139 0 
C 1.581139 -0.419323 1.41454 -0.821528 1.118034 -1.118034 
C 0.821528 -1.41454 0.419323 -1.581139 0 -1.581139 
C -0.419323 -1.581139 -0.821528 -1.41454 -1.118034 -1.118034 
C -1.41454 -0.821528 -1.581139 -0.419323 -1.581139 0 
C -1.581139 0.419323 -1.41454 0.821528 -1.118034 1.118034 
C -0.821528 1.41454 -0.419323 1.581139 0 1.581139 
z
" style="stroke: #000000"/>
    </defs>
    <g clip-path="url(#p64f04dae1e)">
     <use xlink:href="#mc5560758ed" x="194.524031" y="171.369405" style="stroke: #000000"/>
    </g>
   </g>
   <g id="text_1">
    <!-- Jefferson City -->
    <g transform="translate(197.524031 168.369405) scale(0.1 -0.1)">
     <defs>
      <path id="DejaVuSans-4a" d="M 628 4666 
L 1259 4666 
L 1259 325 
Q 1259 -519 939 -900 
Q 619 -1281 -91 -1281 
L -331 -1281 
L -331 -750 
L -134 -750 
Q 284 -750 456 -515 
Q 628 -281 628 325 
L 628 4666 
z
" transform="scale(0.015625)"/>
      <path id="DejaVuSans-65" d="M 3597 1894 
L 3597 1613 
L 953 1613 
Q 991 1019 1311 708 
Q 1631 397 2203 397 
Q 2534 397 2845 478 
Q 3156 559 3463 722 
L 3463 178 
Q 3153 47 2828 -22 
Q 2503 -91 2169 -91 
Q 1331 -91 842 396 
Q 353 884 353 1716 
Q 353 2575 817 3079 
Q 1281 3584 2069 3584 
Q 2775 3584 3186 3129 
Q 3597 2675 3597 1894 
z
M 3022 2063 
Q 3016 2534 2758 2815 
Q 2500 3097 2075 3097 
Q 1594 3097 1305 2825 
Q 1016 2553 972 2059 
L 3022 2063 
z
" transform="scale(0.015625)"/>
      <path id="DejaVuSans-66" d="M 2375 4863 
L 2375 4384 
L 1825 4384 
Q 1516 4384 1395 4259 
Q 1275 4134 1275 3809 
L 1275 3500 
L 2222 3500 
L 2222 3053 
L 1275 3053 
L 1275 0 
L 697 0 
L 697 3053 
L 147 3053 
L 147 3500 
L 697 3500 
L 697 3744 
Q 697 4328 969 4595 
Q 1241 4863 1831 4863 
L 2375 4863 
z
" transform="scale(0.015625)"/>
      <path id="DejaVuSans-72" d="M 2631 2963 
Q 2534 3019 2420 3045 
Q 2306 3072 2169 3072 
Q 1681 3072 1420 2755 
Q 1159 2438 1159 1844 
L 1159 0 
L 581 0 
L 581 3500 
L 1159 3500 
L 1159 2956 
Q 1341 3275 1631 3429 
Q 1922 3584 2338 3584 
Q 2397 3584 2469 3576 
Q 2541 3569 2628 3553 
L 2631 2963 
z
" transform="scale(0.015625)"/>
      <path id="DejaVuSans-73" d="M 2834 3397 
L 2834 2853 
Q 2591 2978 2328 3040 
Q 2066 3103 1784 3103 
Q 1356 3103 1142 2972 
Q 928 2841 928 2578 
Q 928 2378 1081 2264 
Q 1234 2150 1697 2047 
L 1894 2003 
Q 2506 1872 2764 1633 
Q 3022 1394 3022 966 
Q 3022 478 2636 193 
Q 2250 -91 1575 -91 
Q 1294 -91 989 -36 
Q 684 19 347 128 
L 347 722 
Q 666 556 975 473 
Q 1284 391 1588 391 
Q 1994 391 2212 530 
Q 2431 669 2431 922 
Q 2431 1156 2273 1281 
Q 2116 1406 1581 1522 
L 1381 1569 
Q 847 1681 609 1914 
Q 372 2147 372 2553 
Q 372 3047 722 3315 
Q 1072 3584 1716 3584 
Q 2034 3584 2315 3537 
Q 2597 3491 2834 3397 
z
" transform="scale(0.015625)"/>
      <path id="DejaVuSans-6f" d="M 1959 3097 
Q 1497 3097 1228 2736 
Q 959 2375 959 1747 
Q 959 1119 1226 758 
Q 1494 397 1959 397 
Q 2419 397 2687 759 
Q 2956 1122 2956 1747 
Q 2956 2369 2687 2733 
Q 2419 3097 1959 3097 
z
M 1959 3584 
Q 2709 3584 3137 3096 
Q 3566 2609 3566 1747 
Q 3566 888 3137 398 
Q 2709 -91 1959 -91 
Q 1206 -91 779 398 
Q 353 888 353 1747 
Q 353 2609 779 3096 
Q 1206 3584 1959 3584 
z
" transform="scale(0.015625)"/>
      <path id="DejaVuSans-6e" d="M 3513 2113 
L 3513 0 
L 2938 0 
L 2938 2094 
Q 2938 2591 2744 2837 
Q 2550 3084 2163 3084 
Q 1697 3084 1428 2787 
Q 1159 2491 1159 1978 
L 1159 0 
L 581 0 
L 581 3500 
L 1159 3500 
L 1159 2956 
Q 1366 3272 1645 3428 
Q 1925 3584 2291 3584 
Q 2894 3584 3203 3211 
Q 3513 2838 3513 2113 
z
" transform="scale(0.015625)"/>
      <path id="DejaVuSans-20" transform="scale(0.015625)"/>
      <path id="DejaVuSans-43" d="M 4122 4306 
L 4122 3641 
Q 3803 3938 3442 4084 
Q 3081 4231 2675 4231 
Q 1875 4231 1450 3742 
Q 1025 3253 1025 2328 
Q 1025 1406 1450 917 
Q 1875 428 2675 428 
Q 3081 428 3442 575 
Q 3803 722 4122 1019 
L 4122 359 
Q 3791 134 3420 21 
Q 3050 -91 2638 -91 
Q 1578 -91 968 557 
Q 359 1206 359 2328 
Q 359 3453 968 4101 
Q 1578 4750 2638 4750 
Q 3056 4750 3426 4639 
Q 3797 4528 4122 4306 
z
" transform="scale(0.015625)"/>
      <path id="DejaVuSans-69" d="M 603 3500 
L 1178 3500 
L 1178 0 
L 603 0 
L 603 3500 
z
M 603 4863 
L 1178 4863 
L 1178 4134 
L 603 4134 
L 603 4863 
z
" transform="scale(0.015625)"/>
      <path id="DejaVuSans-74" d="M 1172 4494 
L 1172 3500 
L 2356 3500 
L 2356 3053 
L 1172 3053 
L 1172 1153 
Q 1172 725 1289 603 
Q 1406 481 1766 481 
L 2356 481 
L 2356 0 
L 1766 0 
Q 1100 0 847 248 
Q 594 497 594 1153 
L 594 3053 
L 172 3053 
L 172 3500 
L 594 3500 
L 594 4494 
L 1172 4494 
z
" transform="scale(0.015625)"/>
      <path id="DejaVuSans-79" d="M 2059 -325 
Q 1816 -950 1584 -1140 
Q 1353 -1331 966 -1331 
L 506 -1331 
L 506 -850 
L 844 -850 
Q 1081 -850 1212 -737 
Q 1344 -625 1503 -206 
L 1606 56 
L 191 3500 
L 800 3500 
L 1894 763 
L 2988 3500 
L 3597 3500 
L 2059 -325 
z
" transform="scale(0.015625)"/>
     </defs>
     <use xlink:href="#DejaVuSans-4a"/>
     <use xlink:href="#DejaVuSans-65" x="29.492188"/>
     <use xlink:href="#DejaVuSans-66" x="91.015625"/>
     <use xlink:href="#DejaVuSans-66" x="126.220703"/>
     <use xlink:href="#DejaVuSans-65" x="161.425781"/>
     <use xlink:href="#DejaVuSans-72" x="222.949219"/>
     <use xlink:href="#DejaVuSans-73" x="264.0625"/>
     <use xlink:href="#DejaVuSans-6f" x="316.162109"/>
     <use xlink:href="#DejaVuSans-6e" x="377.34375"/>
     <use xlink:href="#DejaVuSans-20" x="440.722656"/>
     <use xlink:href="#DejaVuSans-43" x="472.509766"/>
     <use xlink:href="#DejaVuSans-69" x="542.333984"/>
     <use xlink:href="#DejaVuSans-74" x="570.117188"/>
     <use xlink:href="#DejaVuSans-79" x="609.326172"/>
    </g>
   </g>
   <g id="text_2">
    <!-- Missouri -->
    <g transform="translate(159.797812 79.302335) scale(0.12 -0.12)">
     <defs>
      <path id="DejaVuSans-4d" d="M 628 4666 
L 1569 4666 
L 2759 1491 
L 3956 4666 
L 4897 4666 
L 4897 0 
L 4281 0 
L 4281 4097 
L 3078 897 
L 2444 897 
L 1241 4097 
L 1241 0 
L 628 0 
L 628 4666 
z
" transform="scale(0.015625)"/>
      <path id="DejaVuSans-75" d="M 544 1381 
L 544 3500 
L 1119 3500 
L 1119 1403 
Q 1119 906 1312 657 
Q 1506 409 1894 409 
Q 2359 409 2629 706 
Q 2900 1003 2900 1516 
L 2900 3500 
L 3475 3500 
L 3475 0 
L 2900 0 
L 2900 538 
Q 2691 219 2414 64 
Q 2138 -91 1772 -91 
Q 1169 -91 856 284 
Q 544 659 544 1381 
z
M 1991 3584 
L 1991 3584 
z
" transform="scale(0.015625)"/>
     </defs>
     <use xlink:href="#DejaVuSans-4d"/>
     <use xlink:href="#DejaVuSans-69" x="86.279297"/>
     <use xlink:href="#DejaVuSans-73" x="114.0625"/>
     <use xlink:href="#DejaVuSans-73" x="166.162109"/>
     <use xlink:href="#DejaVuSans-6f" x="218.261719"/>
     <use xlink:href="#DejaVuSans-75" x="279.443359"/>
     <use xlink:href="#DejaVuSans-72" x="342.822266"/>
     <use xlink:href="#DejaVuSans-69" x="383.935547"/>
    </g>
   </g>
  </g>
 </g>
 <defs>
  <clipPath id="p64f04dae1e">
   <rect x="45" y="85.302335" width="279" height="192.995331"/>
  </clipPath>
 </defs>
</svg>
