<?xml version="1.0" encoding="utf-8" standalone="no"?>
<!DOCTYPE svg PUBLIC "-//W3C//DTD SVG 1.1//EN"
  "http://www.w3.org/Graphics/SVG/1.1/DTD/svg11.dtd">
<svg xmlns:xlink="http://www.w3.org/1999/xlink" width="360pt" height="360pt" viewBox="0 0 360 360" xmlns="http://www.w3.org/2000/svg" version="1.1">
 <metadata>
  <rdf:RDF xmlns:dc="http://purl.org/dc/elements/1.1/" xmlns:cc="http://creativecommons.org/ns#" xmlns:rdf="http://www.w3.org/1999/02/22-rdf-syntax-ns#">
   <cc:Work>
    <dc:type rdf:resource="http://purl.org/dc/dcmitype/StillImage"/>
    <dc:date>2023-06-19T15:20:26.381775</dc:date>
    <dc:format>image/svg+xml</dc:format>
    <dc:creator>
     <cc:Agent>
      <dc:title>Matplotlib v3.7.1, https://matplotlib.org/</dc:title>
     </cc:Agent>
    </dc:creator>
   </cc:Work>
  </rdf:RDF>
 </metadata>
 <defs>
  <style type="text/css">*{stroke-linejoin: round; stroke-linecap: butt}</style>
 </defs>
 <g id="figure_1">
  <g id="patch_1">
   <path d="M 0 360 
L 360 360 
L 360 0 
L 0 0 
z
" style="fill: #ffffff"/>
  </g>
  <g id="axes_1">
   <g id="PatchCollection_1">
    <path d="M 255.874408 305.548774 
L 256.830544 305.434013 
L 258.238252 306.00782 
L 258.875659 306.099587 
L 259.094834 306.061725 
L 259.406875 306.00782 
L 260.177124 305.663483 
L 261.212956 305.456955 
L 261.418753 306.116258 
L 260.124029 306.811202 
L 259.129361 306.954515 
L 258.849111 306.994893 
L 256.724301 306.604621 
L 255.980599 306.145523 
L 255.874408 305.548774 
" clip-path="url(#p456ecc1b9d)" style="fill: #0057dd"/>
    <path d="M 242.218166 304.05928 
L 244.055133 303.667074 
L 245.197207 303.460597 
L 246.578316 303.827667 
L 247.667829 304.180644 
L 248.278154 304.378375 
L 250.748294 304.768491 
L 251.863507 305.437305 
L 250.615451 305.548774 
L 248.889065 305.365135 
L 247.638398 305.245058 
L 247.454809 305.227432 
L 245.197207 304.470142 
L 243.816047 304.699613 
L 242.992701 304.699613 
L 242.40839 304.516026 
L 242.218166 304.05928 
" clip-path="url(#p456ecc1b9d)" style="fill: #0057dd"/>
    <path d="M 230.896818 305.586819 
L 232.511578 305.372138 
L 233.629456 305.318468 
L 233.778846 305.244152 
L 235.678909 304.298941 
L 236.486263 303.869735 
L 236.983092 304.084364 
L 236.734704 304.56724 
L 235.865213 305.157509 
L 233.78176 305.877667 
L 233.070491 306.123522 
L 231.828392 306.391873 
L 230.64843 306.016181 
L 230.896818 305.586819 
" clip-path="url(#p456ecc1b9d)" style="fill: #0057dd"/>
    <path d="M 221.953738 304.406282 
L 225.169851 304.450398 
L 225.866339 304.459952 
L 226.611608 303.386964 
L 227.356826 303.869735 
L 227.046301 304.88921 
L 226.425252 305.8015 
L 225.683692 305.910931 
L 225.150501 306.017922 
L 224.62424 306.123522 
L 223.630582 305.425808 
L 221.394772 304.942828 
L 221.953738 304.406282 
" clip-path="url(#p456ecc1b9d)" style="fill: #0057dd"/>
    <path d="M 91.553688 251.471173 
L 91.605007 251.265376 
L 91.743912 251.068097 
L 91.885012 250.926474 
L 92.272567 250.681953 
L 92.459708 250.642079 
L 93.312266 250.635233 
L 94.079746 250.735101 
L 95.068648 250.90949 
L 95.761397 250.976068 
L 96.29972 250.958091 
L 96.837312 250.88404 
L 97.682397 250.658332 
L 98.683476 250.244752 
L 98.838372 250.091789 
L 99.022795 249.779958 
L 99.191436 249.389738 
L 99.220806 249.171032 
L 99.237476 248.276667 
L 99.201783 248.162324 
L 99.129195 248.073953 
L 98.687082 247.733745 
L 97.999976 247.291161 
L 97.919027 247.216744 
L 97.769827 246.948654 
L 97.270437 246.666088 
L 97.095368 246.483546 
L 97.099183 246.131162 
L 96.995971 245.787505 
L 96.98902 245.627016 
L 97.045826 244.964891 
L 97.2187 244.709709 
L 97.239604 244.642713 
L 96.91429 244.476633 
L 96.744552 244.437177 
L 96.491407 244.534066 
L 96.385269 244.604093 
L 96.050914 244.896222 
L 95.93171 244.528578 
L 95.790767 244.203421 
L 95.56067 243.775888 
L 95.565268 243.525461 
L 95.668794 243.178512 
L 95.991391 242.708753 
L 96.24814 242.501806 
L 96.790278 242.234082 
L 96.897671 242.123188 
L 97.121602 242.019923 
L 97.302001 242.001214 
L 97.479004 242.070197 
L 97.530165 242.119739 
L 97.713596 242.464493 
L 97.720651 242.51555 
L 97.589898 242.791166 
L 97.592302 242.994402 
L 97.964492 244.235351 
L 98.245961 244.727634 
L 98.513215 245.024728 
L 98.81935 245.279962 
L 99.232355 245.489522 
L 99.436793 245.558818 
L 100.758588 245.558557 
L 101.093308 245.225613 
L 101.164747 244.933431 
L 101.118027 244.660324 
L 101.109822 244.174783 
L 101.114212 243.940086 
L 100.86018 243.842309 
L 100.687515 243.497659 
L 100.174851 243.062601 
L 99.651945 242.654769 
L 99.318687 242.083052 
L 99.113152 241.69278 
L 98.955851 241.407026 
L 98.863666 241.155659 
L 98.765993 240.561575 
L 98.705947 239.364367 
L 98.758625 238.585129 
L 98.862255 238.324564 
L 98.874797 237.972702 
L 98.778535 237.886004 
L 98.578905 237.811012 
L 98.459597 237.587029 
L 98.456566 237.464324 
L 98.476633 237.34742 
L 98.533648 237.251576 
L 98.828129 236.886702 
L 98.924652 236.824514 
L 99.068156 236.796921 
L 99.303219 236.778421 
L 99.648182 236.796712 
L 100.196905 236.710484 
L 100.494783 236.799325 
L 100.630657 236.898617 
L 100.714272 236.914295 
L 102.266425 236.428284 
L 102.585259 236.281958 
L 102.914492 236.088598 
L 103.499797 235.64962 
L 104.100831 235.25245 
L 104.466646 234.876183 
L 104.474046 234.861383 
L 104.534583 234.740308 
L 104.597294 234.505142 
L 104.675683 233.810093 
L 104.200123 233.517493 
L 103.98586 233.47046 
L 103.693156 233.428653 
L 103.275082 233.460008 
L 102.98243 233.538397 
L 101.87448 233.925064 
L 101.414599 234.003452 
L 100.72995 234.034808 
L 100.426846 233.998227 
L 100.249164 233.930289 
L 99.961738 233.789242 
L 99.508911 233.498575 
L 98.974455 232.915466 
L 98.8801 232.78461 
L 98.788569 232.657671 
L 98.753764 232.571861 
L 98.71781 232.301054 
L 98.783761 231.846921 
L 98.846316 231.688052 
L 99.009678 231.460724 
L 99.272333 231.233606 
L 99.69208 230.941476 
L 99.776374 230.904215 
L 99.942925 230.922924 
L 100.033333 230.961282 
L 100.175531 231.132641 
L 100.306649 231.338281 
L 100.56272 231.625707 
L 100.709046 231.761581 
L 100.996472 231.949715 
L 101.545247 232.211011 
L 102.961526 232.613408 
L 103.332567 232.681345 
L 103.776771 232.670893 
L 104.018104 232.58895 
L 104.827235 232.211011 
L 104.968335 231.902681 
L 105.083305 231.22331 
L 105.104209 230.96724 
L 104.984013 230.000443 
L 104.874268 228.667883 
L 104.879494 228.160968 
L 104.989239 227.559986 
L 105.031046 227.455468 
L 105.877647 226.352797 
L 105.921346 226.337334 
L 107.224421 225.876244 
L 108.294587 225.746223 
L 109.135439 225.681213 
L 109.239738 225.681426 
L 110.538757 225.684087 
L 111.384208 225.670761 
L 112.018584 225.202883 
L 112.216908 224.84637 
L 112.037554 224.548231 
L 111.471533 224.32963 
L 110.835486 224.283433 
L 110.037486 224.561139 
L 109.271528 224.526205 
L 108.944379 224.511284 
L 107.568391 224.608747 
L 106.725815 224.373162 
L 106.776559 223.849629 
L 106.996048 222.856755 
L 107.717226 220.583528 
L 107.858326 220.374491 
L 108.098719 220.14455 
L 108.339111 220.040031 
L 108.699701 219.95119 
L 110.382502 219.663816 
L 110.450439 219.679494 
L 110.664754 220.374491 
L 110.621745 221.06447 
L 110.659529 221.32561 
L 110.743143 221.560776 
L 110.894695 221.863828 
L 111.035795 222.051962 
L 111.140314 222.135576 
L 111.323222 222.229643 
L 111.715166 222.344614 
L 112.091485 222.334162 
L 112.425945 222.161706 
L 112.713371 221.895184 
L 112.85677 221.656829 
L 112.978012 221.180015 
L 112.947858 221.090234 
L 112.136794 220.413267 
L 111.85104 220.149776 
L 111.772651 220.050483 
L 111.73607 219.940738 
L 111.725618 219.757831 
L 111.793555 219.548846 
L 111.856266 219.465231 
L 111.966011 219.40252 
L 112.816165 219.173206 
L 113.508339 218.806607 
L 113.923696 218.375886 
L 114.871732 217.573497 
L 115.065091 217.380138 
L 115.185288 217.181552 
L 115.279354 217.118841 
L 115.462262 217.144971 
L 115.655621 217.097937 
L 115.718332 217.066582 
L 115.812399 216.920256 
L 115.896014 216.852319 
L 116.20957 216.753026 
L 116.345444 216.658959 
L 116.319314 216.549215 
L 116.120729 216.355856 
L 116.18344 215.86467 
L 116.131181 215.765378 
L 115.796721 215.812411 
L 115.702655 215.770604 
L 115.686977 215.734022 
L 115.880336 215.174848 
L 115.916918 214.819485 
L 115.90124 214.59477 
L 115.943047 214.411862 
L 116.125955 214.171522 
L 116.512674 213.769125 
L 116.888941 213.466021 
L 117.192044 213.283114 
L 119.648283 213.047947 
L 120.343384 212.875491 
L 120.761459 212.640324 
L 121.075171 212.36335 
L 121.817096 211.492136 
L 121.607014 211.414374 
L 121.561026 211.145761 
L 121.466959 210.874013 
L 121.372892 210.727687 
L 121.179533 210.570961 
L 120.792814 210.414183 
L 119.245887 210.131983 
L 118.200649 209.938624 
L 117.871415 209.797523 
L 117.615345 209.619842 
L 117.474245 209.447386 
L 117.354048 209.248801 
L 117.317467 209.112927 
L 117.317467 208.956201 
L 117.338371 208.830779 
L 117.406308 208.694905 
L 117.641474 208.423156 
L 118.007289 208.182764 
L 118.200649 208.120052 
L 118.503805 208.099149 
L 118.733746 208.172312 
L 119.062979 208.370897 
L 119.298146 208.616516 
L 119.810287 209.32719 
L 120.364288 209.745264 
L 120.625584 209.844557 
L 121.482637 209.886364 
L 121.592381 209.844557 
L 121.649867 209.745264 
L 121.513992 208.412705 
L 121.524444 208.308186 
L 121.602833 208.235023 
L 122.299397 207.91227 
L 123.76642 207.23687 
L 123.970231 207.090597 
L 124.18972 206.719556 
L 124.179295 206.39639 
L 124.168817 206.071593 
L 124.174451 206.070869 
L 124.372628 206.045411 
L 124.738495 205.914763 
L 124.863918 205.831148 
L 125.167021 205.517592 
L 125.449222 205.057763 
L 125.522385 204.906211 
L 125.569418 204.733755 
L 125.46051 204.169093 
L 124.916177 203.965543 
L 124.477147 203.876703 
L 124.116557 203.599781 
L 123.59919 203.249643 
L 123.160212 203.045832 
L 122.771403 203.103161 
L 122.705557 203.422099 
L 122.872786 203.813991 
L 123.186342 204.148451 
L 123.249053 204.524718 
L 123.160212 204.780788 
L 123.107953 204.838274 
L 123.005107 205.879017 
L 122.567174 205.739485 
L 122.17387 205.500608 
L 121.757782 205.395305 
L 121.518069 205.369228 
L 120.994117 205.389505 
L 120.496347 205.51848 
L 120.364915 205.577481 
L 119.967849 205.837262 
L 119.833438 205.800942 
L 118.916967 205.775753 
L 118.647152 205.715237 
L 118.237753 205.557466 
L 117.681557 205.460629 
L 117.275032 205.43706 
L 117.13759 205.353655 
L 116.81097 204.833152 
L 116.717269 204.58445 
L 116.662031 204.272514 
L 116.708437 203.788959 
L 116.845252 203.146431 
L 117.000619 202.618142 
L 117.204534 202.082328 
L 117.314749 201.970127 
L 117.525668 201.817477 
L 118.802833 201.21775 
L 118.979992 201.205521 
L 119.068937 201.231494 
L 119.301595 201.339409 
L 119.655548 201.571232 
L 119.822046 201.569716 
L 119.878224 201.577398 
L 120.113391 201.493783 
L 120.536691 200.986868 
L 120.970496 200.673312 
L 121.409474 200.537438 
L 121.858904 200.506083 
L 122.067941 200.558342 
L 122.574856 200.945061 
L 122.904142 200.626279 
L 123.00866 200.459049 
L 123.076598 200.119416 
L 123.154986 199.936509 
L 123.353572 199.769279 
L 123.745516 199.706568 
L 123.991135 199.748375 
L 124.393532 199.894701 
L 124.660054 200.030575 
L 125.281992 200.553116 
L 125.464899 200.662861 
L 125.632129 200.71512 
L 125.522385 201.248165 
L 125.599206 201.879666 
L 125.666411 202.008903 
L 125.779918 202.048934 
L 125.940145 202.055623 
L 126.08083 202.014602 
L 126.100372 202.008903 
L 126.233895 201.948805 
L 126.290701 201.901615 
L 126.652492 201.304762 
L 126.658658 200.550451 
L 126.665348 200.28027 
L 126.814025 199.641139 
L 127.030954 199.406443 
L 127.350937 199.218936 
L 127.382972 199.175039 
L 127.281537 198.902141 
L 126.846792 198.509673 
L 126.775458 198.432277 
L 126.673186 198.246182 
L 126.616119 197.741357 
L 126.790143 197.142675 
L 126.856617 197.022896 
L 127.027818 196.879288 
L 127.111276 196.84417 
L 127.265911 196.824572 
L 127.657542 196.857235 
L 127.71346 196.887911 
L 127.813171 197.044532 
L 128.114498 197.412803 
L 128.239763 197.527669 
L 128.326357 197.571776 
L 128.510153 197.556777 
L 129.233578 197.198435 
L 129.848147 196.764892 
L 130.16557 196.506575 
L 130.739586 195.883905 
L 130.876245 195.670165 
L 131.341613 195.225543 
L 132.258921 193.675584 
L 132.28343 192.908418 
L 132.144525 192.797942 
L 131.587546 192.865983 
L 131.424863 193.005359 
L 131.12688 193.852952 
L 130.604601 194.414687 
L 130.363842 194.631929 
L 129.903595 194.495062 
L 129.186231 194.343824 
L 128.763767 194.292139 
L 128.157455 194.297209 
L 126.480506 193.988827 
L 126.117148 193.86931 
L 125.778455 193.678668 
L 125.600774 193.446114 
L 125.548514 193.310292 
L 125.548514 193.13261 
L 125.752325 192.42711 
L 125.980646 192.091762 
L 126.0617 191.871437 
L 126.109047 191.636218 
L 126.09337 191.266013 
L 126.791397 191.037065 
L 127.118645 190.840675 
L 127.292146 190.702971 
L 127.468468 190.512591 
L 127.547484 190.368982 
L 127.561542 190.171494 
L 127.536928 189.697921 
L 127.515397 189.612686 
L 127.427027 189.477595 
L 127.3732 189.404119 
L 126.905113 189.009979 
L 126.650297 188.903109 
L 126.10471 188.810453 
L 125.837613 188.846251 
L 125.532836 189.077446 
L 124.921403 189.359594 
L 124.409262 189.667924 
L 124.236806 189.714957 
L 123.019112 189.458887 
L 122.115027 189.108802 
L 121.508819 188.831827 
L 120.803266 188.398075 
L 120.097766 187.703079 
L 119.92531 187.488816 
L 119.721499 187.123001 
L 119.653562 186.501167 
L 119.684917 186.234645 
L 120.193034 185.461469 
L 120.489919 184.904124 
L 120.66896 183.903254 
L 122.261405 185.028553 
L 123.123631 186.234645 
L 123.390153 186.475038 
L 123.792602 186.741508 
L 124.524232 187.013256 
L 125.564192 187.17526 
L 125.972755 187.081977 
L 126.269849 186.882138 
L 126.452809 186.468558 
L 126.374577 186.229889 
L 126.052242 185.791904 
L 125.41426 185.386372 
L 124.130145 184.934486 
L 122.805006 184.24111 
L 122.081476 183.706288 
L 121.785584 183.167547 
L 122.13693 182.960235 
L 122.159604 182.946856 
L 123.206984 182.394371 
L 123.51328 182.256116 
L 123.893776 182.084369 
L 124.164427 181.886254 
L 124.58501 181.441998 
L 124.935774 181.175214 
L 125.06684 181.098602 
L 125.249487 180.915276 
L 125.543654 180.504884 
L 125.627374 180.248918 
L 125.629203 179.837272 
L 125.601087 179.717598 
L 125.427586 179.382302 
L 125.037418 178.900419 
L 124.785058 178.724671 
L 124.437325 178.582108 
L 124.206757 178.713854 
L 123.776454 179.111495 
L 123.672667 179.316456 
L 123.617952 179.702443 
L 123.523101 179.930084 
L 123.228515 180.307553 
L 123.181691 180.64034 
L 122.577678 180.735243 
L 121.629067 180.980444 
L 121.196465 181.1691 
L 120.259978 181.492637 
L 119.891028 181.528853 
L 119.5839 181.792605 
L 119.520509 181.810583 
L 119.245939 181.790097 
L 119.099404 181.721846 
L 118.714358 181.452293 
L 118.4077 181.161836 
L 118.254789 180.983945 
L 118.143477 180.799417 
L 117.876223 180.184064 
L 117.759267 179.647779 
L 117.745418 179.381205 
L 117.749442 179.17499 
L 117.804053 178.886048 
L 117.836349 178.846801 
L 117.958009 178.714429 
L 118.240523 178.506018 
L 118.361189 178.441426 
L 118.535004 178.414826 
L 118.59113 178.370562 
L 118.94179 177.939475 
L 119.109281 177.601201 
L 119.603915 177.144873 
L 120.325877 176.708038 
L 120.622762 176.558733 
L 121.543414 176.253748 
L 121.809101 176.116619 
L 122.442222 175.63714 
L 122.802968 175.132838 
L 122.922851 174.785157 
L 122.936856 174.626811 
L 122.805267 174.453258 
L 122.608407 174.353234 
L 121.750832 174.089847 
L 121.050714 173.90349 
L 119.844622 173.701247 
L 119.348158 173.553458 
L 118.901916 173.53731 
L 117.93235 173.606344 
L 117.711972 173.577445 
L 117.495148 173.519437 
L 117.245401 173.333394 
L 117.14407 173.109097 
L 117.118672 172.767269 
L 117.162884 172.550811 
L 117.547199 171.81662 
L 117.583571 171.591383 
L 117.496559 171.552031 
L 117.192724 171.305106 
L 117.348718 170.563913 
L 117.335287 169.91271 
L 117.509467 169.39853 
L 117.571186 169.319149 
L 117.831489 169.17021 
L 117.96057 168.932587 
L 118.206293 168.323766 
L 118.281703 168.226093 
L 118.577961 168.004723 
L 119.100763 167.686777 
L 119.265954 167.697125 
L 119.717161 167.656362 
L 120.263793 167.512388 
L 121.254002 166.728708 
L 122.094384 165.930865 
L 122.220643 165.759977 
L 122.415936 165.282589 
L 122.449381 165.144363 
L 122.449926 165.13279 
L 122.455914 165.005614 
L 122.394771 164.474869 
L 122.445932 164.152325 
L 122.397383 163.955203 
L 122.097258 163.454977 
L 122.017406 163.361119 
L 121.580728 163.080278 
L 121.503279 162.998649 
L 121.442084 162.834502 
L 121.504377 162.754754 
L 121.576756 162.7188 
L 121.660527 162.630221 
L 121.584699 162.056623 
L 121.247784 161.352585 
L 121.034304 161.096097 
L 120.857773 160.929024 
L 120.718501 160.822363 
L 120.214147 160.690356 
L 119.943653 160.720509 
L 119.245991 160.913451 
L 118.759614 161.129595 
L 118.701972 161.175374 
L 118.541641 161.609388 
L 118.597088 161.703559 
L 118.830896 161.860807 
L 118.940797 162.003266 
L 118.952608 162.084686 
L 118.925328 162.154138 
L 118.816002 162.251968 
L 118.643912 162.341174 
L 118.615744 162.384497 
L 118.579372 162.581201 
L 118.702495 162.925695 
L 118.922924 163.767853 
L 118.922141 163.931425 
L 118.879758 164.129853 
L 118.779107 164.414457 
L 118.202426 165.05108 
L 117.856783 165.237071 
L 117.423814 165.344516 
L 116.887634 165.370018 
L 116.617454 165.338297 
L 116.292087 165.262626 
L 115.50015 164.983665 
L 115.343895 164.893361 
L 114.900318 164.535803 
L 114.726085 164.312656 
L 114.661284 164.183053 
L 114.601969 163.916844 
L 114.599095 163.753691 
L 114.662172 163.452886 
L 114.772701 163.255921 
L 114.943327 163.018246 
L 115.362708 162.6043 
L 115.269948 162.464872 
L 115.22605 162.342063 
L 115.235875 162.139297 
L 115.350636 162.01654 
L 115.466286 161.950745 
L 116.012396 161.356348 
L 116.264547 161.228574 
L 116.727041 160.839295 
L 116.953585 160.523439 
L 117.098762 159.995307 
L 117.105137 159.897687 
L 117.094215 159.520113 
L 117.299019 159.083591 
L 117.623184 158.879989 
L 117.957748 158.737217 
L 118.341017 158.689191 
L 118.60153 158.61054 
L 119.037947 158.358755 
L 119.217301 158.111987 
L 119.333055 157.678182 
L 119.493073 157.262564 
L 119.497568 157.189872 
L 119.45043 157.02029 
L 119.270449 156.761032 
L 117.954351 155.847748 
L 117.388226 155.639077 
L 117.113237 155.608871 
L 116.820794 155.522957 
L 116.714604 155.444568 
L 116.653094 155.323222 
L 116.333633 154.97183 
L 115.54363 154.64798 
L 115.323409 154.524177 
L 115.273345 154.458592 
L 115.255733 154.382659 
L 115.222967 153.775877 
L 115.239115 153.573529 
L 115.577964 153.071317 
L 115.688858 152.966641 
L 115.921726 152.80584 
L 116.185949 152.707592 
L 116.930957 152.65805 
L 117.336228 152.702889 
L 117.406935 152.732415 
L 117.787539 153.052399 
L 117.848264 153.224384 
L 117.926183 153.282235 
L 118.293461 153.329791 
L 118.903589 153.365537 
L 119.821889 153.327231 
L 120.332462 153.235045 
L 120.913376 152.967059 
L 121.08787 152.813992 
L 121.206656 152.525416 
L 121.242047 152.339552 
L 121.312585 151.969116 
L 121.347756 151.65671 
L 121.375087 150.660857 
L 121.23937 149.738324 
L 121.085414 149.127674 
L 120.991243 148.572732 
L 121.290532 148.529305 
L 121.452849 148.530507 
L 121.622326 148.446683 
L 121.643648 148.411983 
L 121.643648 148.275534 
L 121.724859 148.224058 
L 121.911424 148.258759 
L 122.089419 148.233622 
L 122.069456 148.087609 
L 122.193363 147.939193 
L 122.35427 147.936789 
L 122.443999 147.708207 
L 122.955408 147.25099 
L 123.149761 146.984625 
L 123.293944 146.525422 
L 123.422345 146.242438 
L 123.48537 146.010877 
L 123.504235 145.759981 
L 123.424958 145.531137 
L 123.26771 145.333545 
L 123.047228 145.196678 
L 122.714806 145.11902 
L 122.280793 145.10444 
L 121.991695 145.172116 
L 121.680072 145.306893 
L 121.538241 145.414338 
L 121.410205 145.555072 
L 121.282536 145.811404 
L 121.062786 146.664641 
L 121.002844 146.79461 
L 120.832531 147.021363 
L 120.718449 147.484955 
L 120.605465 147.665511 
L 120.55284 147.66802 
L 120.237089 147.476019 
L 120.006155 147.260136 
L 119.809451 146.893119 
L 119.658004 146.48905 
L 119.606528 146.416619 
L 119.090729 146.080539 
L 119.22399 145.754964 
L 119.223415 145.466336 
L 118.464715 144.611217 
L 118.383295 144.458567 
L 118.390611 143.686227 
L 118.276059 142.950417 
L 118.292468 142.839522 
L 118.368767 142.711853 
L 118.417107 142.527378 
L 118.35173 141.874345 
L 118.373993 141.81754 
L 118.45766 141.745631 
L 119.245939 141.293745 
L 119.491506 141.099863 
L 120.204897 140.194105 
L 120.481976 139.877988 
L 121.036133 139.429029 
L 121.849236 138.896768 
L 122.529234 138.098664 
L 122.745012 137.708444 
L 122.772762 136.839058 
L 122.75226 136.793391 
L 122.657426 136.582152 
L 122.402766 136.398303 
L 122.250065 136.328851 
L 121.887803 136.291903 
L 121.71749 136.300422 
L 121.507408 136.37672 
L 121.26367 136.513222 
L 120.99882 136.787949 
L 120.857041 136.978591 
L 120.729319 137.243441 
L 120.687094 137.446102 
L 120.690072 137.550203 
L 120.801855 137.866319 
L 120.808335 138.294636 
L 120.595849 138.777721 
L 120.183366 139.25673 
L 119.838769 139.567882 
L 119.323544 139.860429 
L 118.418675 140.228805 
L 117.735175 140.310486 
L 117.093065 140.26894 
L 116.797069 140.199906 
L 116.537131 140.105264 
L 115.795833 139.750267 
L 115.083487 139.270056 
L 114.908157 139.103662 
L 114.86013 139.018689 
L 114.850306 138.879836 
L 114.877376 138.752898 
L 115.056625 138.464845 
L 115.197307 138.328918 
L 115.365896 138.251104 
L 115.751622 138.282094 
L 116.14597 138.185519 
L 116.41035 138.312248 
L 116.571727 138.321236 
L 117.245506 138.050638 
L 118.067231 137.788557 
L 118.212825 137.760651 
L 118.512114 137.799898 
L 118.891778 137.637476 
L 118.960969 137.541475 
L 118.96144 137.470246 
L 119.064025 137.312371 
L 119.455394 136.931975 
L 119.59153 136.641779 
L 119.618705 136.396631 
L 119.530282 136.06097 
L 119.245887 135.401875 
L 118.642449 134.958664 
L 117.562615 134.352457 
L 117.415087 134.25285 
L 117.212478 134.115983 
L 117.035632 134.071249 
L 116.784265 134.155544 
L 116.613116 134.464971 
L 116.526366 134.705364 
L 116.534936 135.085341 
L 116.605434 135.458368 
L 116.805901 135.950598 
L 116.933361 136.458193 
L 116.518788 136.928056 
L 116.283935 137.077413 
L 116.012605 137.191756 
L 115.611305 137.308503 
L 114.976407 137.439779 
L 114.795172 137.442392 
L 114.424183 137.395202 
L 113.493602 137.171898 
L 113.454564 137.086245 
L 113.53912 136.997979 
L 113.585526 136.907152 
L 113.629163 136.38874 
L 113.677555 136.224541 
L 114.112509 135.928545 
L 114.276917 135.91386 
L 114.521699 135.82319 
L 114.886103 135.623246 
L 114.979229 135.5343 
L 115.036296 135.364719 
L 115.353406 134.864493 
L 115.5603 134.585272 
L 115.887391 134.348171 
L 116.082737 134.170803 
L 116.216886 134.055101 
L 116.225718 133.858293 
L 116.136302 133.59778 
L 115.992328 133.431178 
L 114.513181 132.444992 
L 114.323689 132.291298 
L 113.95641 131.829535 
L 113.773033 131.523975 
L 113.644422 131.223954 
L 113.631776 130.980112 
L 113.690254 130.81607 
L 113.71952 130.775363 
L 113.843321 130.603166 
L 114.07159 130.461961 
L 114.210338 130.420311 
L 115.167467 130.284855 
L 115.421761 130.216761 
L 115.91002 129.999153 
L 116.321509 129.72244 
L 116.470344 129.665634 
L 116.587457 129.646769 
L 117.383052 129.73122 
L 117.556867 129.730175 
L 117.832848 129.659677 
L 118.550368 129.232457 
L 118.779002 129.044689 
L 118.862251 128.914041 
L 118.907299 128.785431 
L 118.967031 128.441356 
L 118.943149 128.186069 
L 118.835569 127.92096 
L 118.760921 127.737005 
L 118.509031 127.41582 
L 117.919024 127.031452 
L 117.202392 126.495011 
L 116.838876 126.260471 
L 116.465588 126.085768 
L 116.092248 125.955381 
L 114.742442 125.698161 
L 114.336701 125.542585 
L 114.13012 125.3706 
L 113.945331 125.168304 
L 113.856961 125.029242 
L 113.815833 124.704346 
L 113.876349 124.415352 
L 114.011074 124.170988 
L 114.257163 123.900598 
L 114.701001 123.622265 
L 115.051138 123.487959 
L 115.294928 123.450541 
L 115.848824 123.433557 
L 116.600469 123.367919 
L 117.117 123.262512 
L 117.293741 123.173306 
L 117.377251 123.159927 
L 118.248832 124.074465 
L 118.811769 124.743697 
L 118.96677 124.862222 
L 120.506851 125.592336 
L 120.869531 125.707307 
L 121.174621 125.757684 
L 121.387629 125.761081 
L 121.681274 125.71086 
L 122.276874 125.480606 
L 122.691185 125.286671 
L 123.143698 125.199712 
L 123.358536 125.188842 
L 123.858762 125.029765 
L 123.977652 124.94082 
L 124.139917 124.673043 
L 124.198866 124.491181 
L 124.195208 124.170099 
L 124.040311 124.117474 
L 123.896389 124.099706 
L 123.842562 123.901434 
L 123.744576 123.708702 
L 123.627724 123.534261 
L 123.339409 123.200846 
L 122.880364 122.87825 
L 122.654133 122.756486 
L 122.45236 122.700255 
L 122.215208 122.669683 
L 121.844219 122.778069 
L 121.087295 123.145922 
L 120.500528 123.269097 
L 120.158491 123.286238 
L 119.631351 123.25159 
L 119.224043 123.071923 
L 118.868104 122.786273 
L 118.220403 122.130054 
L 118.165008 122.019212 
L 118.121842 121.834632 
L 118.126806 121.623138 
L 118.295918 121.067204 
L 118.230489 120.95239 
L 118.228817 120.833814 
L 118.386535 120.606486 
L 118.428186 120.409051 
L 118.399548 120.351565 
L 118.277784 120.285719 
L 118.216222 120.186374 
L 118.200544 120.011619 
L 118.362653 119.672978 
L 118.47454 119.50068 
L 118.606129 119.35404 
L 118.788879 119.202958 
L 118.8761 119.171289 
L 119.083204 119.169878 
L 119.331749 119.239958 
L 119.625969 119.400917 
L 119.957397 119.633888 
L 120.175632 119.84026 
L 121.133127 119.569453 
L 121.315303 119.537627 
L 122.621053 119.473348 
L 122.96795 119.417901 
L 124.384386 120.204873 
L 124.567137 120.238894 
L 125.116643 120.15089 
L 125.778455 119.916245 
L 126.105807 119.684423 
L 126.242831 119.517716 
L 126.335644 119.319915 
L 126.386753 119.113281 
L 126.343221 118.931105 
L 126.215291 118.691706 
L 125.778403 118.328399 
L 125.378097 118.169426 
L 124.733687 118.072433 
L 124.468471 117.993731 
L 123.565692 117.633037 
L 123.335699 117.501866 
L 123.187805 117.326066 
L 123.023711 117.041148 
L 122.821311 116.792708 
L 122.388343 116.364652 
L 122.255918 116.191308 
L 122.063394 115.715957 
L 121.968491 115.302586 
L 121.979623 115.044059 
L 122.079699 114.818404 
L 122.58327 114.254474 
L 122.893585 113.96548 
L 123.867437 113.15567 
L 124.40529 112.661872 
L 124.87045 112.081637 
L 125.217974 111.743572 
L 125.259311 111.667743 
L 125.244783 111.544986 
L 125.104937 111.39218 
L 124.73374 111.13867 
L 123.904698 110.792139 
L 123.342179 110.601497 
L 121.681849 110.253764 
L 121.655258 110.2437 
L 121.389249 110.143026 
L 121.250083 110.033752 
L 121.148804 109.87363 
L 121.09179 109.629579 
L 121.09341 109.435331 
L 121.126699 109.282107 
L 121.189305 109.141947 
L 121.436701 108.905213 
L 121.642237 108.788361 
L 121.844794 108.710756 
L 122.062976 108.664402 
L 122.530122 108.632524 
L 123.256369 108.632785 
L 123.549858 108.54222 
L 123.715102 108.412303 
L 124.01946 108.097389 
L 124.796817 107.688303 
L 125.072746 108.140659 
L 125.523691 109.054361 
L 125.627948 109.373613 
L 125.778351 109.607421 
L 126.052816 109.780399 
L 126.42924 109.901902 
L 126.653641 109.933623 
L 126.993066 109.917057 
L 127.307039 109.845723 
L 127.475523 109.769634 
L 127.603297 109.657956 
L 127.679962 109.541574 
L 127.810505 109.099304 
L 127.793469 108.901032 
L 127.302284 108.277056 
L 126.960404 108.033057 
L 126.832055 107.847432 
L 126.413824 106.858059 
L 126.685885 106.783276 
L 126.990244 106.73802 
L 127.313833 106.723126 
L 127.955055 106.794512 
L 128.380707 106.921607 
L 128.780438 106.909692 
L 129.186284 106.846353 
L 129.769027 106.643535 
L 129.859331 106.63972 
L 130.244743 106.709277 
L 131.037778 106.60941 
L 131.406049 106.449287 
L 131.587075 106.296272 
L 131.667711 106.154284 
L 131.689765 106.018984 
L 131.668704 105.7707 
L 131.581745 105.430127 
L 131.604269 105.113592 
L 131.645554 104.95765 
L 131.723211 104.792459 
L 131.944581 104.513446 
L 132.340393 104.08816 
L 132.476319 103.862348 
L 132.55011 103.645263 
L 132.553611 103.52909 
L 132.477208 103.3246 
L 132.232478 102.997509 
L 132.111968 102.910654 
L 131.917772 102.80394 
L 131.632593 102.741491 
L 131.34825 102.742274 
L 130.950871 102.905741 
L 130.274845 103.005609 
L 130.048614 102.990036 
L 129.898212 102.942793 
L 128.589117 102.137164 
L 128.474617 102.038133 
L 128.13547 101.635522 
L 128.084762 101.575324 
L 127.95448 101.315073 
L 127.910059 101.040973 
L 128.172244 100.615164 
L 129.020726 100.079193 
L 130.486808 99.203641 
L 130.822992 99.265098 
L 131.30336 99.441682 
L 131.894517 99.935585 
L 132.220458 100.111803 
L 132.688492 100.424523 
L 132.860948 100.507667 
L 133.441496 100.666744 
L 133.770887 100.699511 
L 134.349345 100.64767 
L 134.65318 100.546444 
L 134.892371 100.431578 
L 135.055159 100.324812 
L 135.40608 100.020401 
L 135.667063 99.705592 
L 135.827551 99.414455 
L 135.861467 99.101631 
L 135.781981 98.661712 
L 135.712424 98.527981 
L 135.589196 98.406216 
L 135.369812 98.28832 
L 134.752316 98.196291 
L 134.239287 98.247505 
L 133.774022 98.129974 
L 133.330236 98.086755 
L 133.148008 98.117693 
L 132.86168 98.243429 
L 132.595941 98.291351 
L 132.377549 98.278024 
L 132.187064 98.151923 
L 131.913957 98.21824 
L 131.643097 98.342826 
L 131.43474 98.197232 
L 130.393264 97.720052 
L 130.171267 97.562281 
L 129.30209 96.626422 
L 129.169352 96.405574 
L 129.076957 95.98797 
L 129.068387 95.618549 
L 129.107477 95.483302 
L 129.258663 95.299349 
L 129.49362 95.073432 
L 129.800017 94.969489 
L 130.362118 95.00074 
L 130.639823 95.075993 
L 130.699817 95.126319 
L 130.786306 95.260573 
L 131.005848 95.853141 
L 131.099496 95.976891 
L 131.294214 96.127032 
L 132.101098 96.593707 
L 132.731136 96.766633 
L 133.272333 96.79501 
L 133.478444 96.909719 
L 133.737441 97.05986 
L 133.893382 96.826314 
L 134.033072 96.518977 
L 134.145011 96.195126 
L 134.171141 96.031868 
L 134.138792 95.8279 
L 134.146474 95.513821 
L 134.303722 94.782714 
L 134.542286 93.874082 
L 134.636091 93.6779 
L 134.75864 93.552217 
L 134.95665 93.416865 
L 135.142641 93.33325 
L 135.565418 93.24974 
L 136.082838 93.091551 
L 136.362895 93.094843 
L 137.685212 93.223349 
L 138.056305 93.192986 
L 138.573359 92.862499 
L 138.70871 92.736136 
L 139.210347 92.057235 
L 139.324952 91.833513 
L 139.339532 91.471304 
L 139.230624 91.116254 
L 139.125112 90.875391 
L 138.904108 90.552795 
L 138.055835 89.937546 
L 137.954766 89.80972 
L 137.922156 89.725687 
L 137.884895 89.380932 
L 137.957222 89.025465 
L 138.025002 88.929412 
L 138.217264 88.791186 
L 138.524967 88.660433 
L 138.843226 88.625786 
L 139.286959 88.662054 
L 139.939417 88.819824 
L 140.160055 88.84841 
L 140.830072 88.84078 
L 141.4541 88.733649 
L 141.958402 88.589883 
L 142.338588 88.578857 
L 142.406578 88.726176 
L 142.480211 88.907463 
L 142.422308 89.410145 
L 141.903321 90.157035 
L 141.791747 90.624129 
L 141.820856 90.995692 
L 141.984114 91.203998 
L 142.193255 91.351003 
L 142.606417 91.494194 
L 143.063895 91.494768 
L 143.479252 91.370496 
L 143.611785 91.138708 
L 143.683429 91.013408 
L 143.689543 90.749185 
L 143.531041 90.306392 
L 143.506458 90.257633 
L 143.19355 89.637003 
L 143.197418 89.258071 
L 143.795368 88.420563 
L 143.628348 88.218895 
L 144.524281 87.79225 
L 144.861772 87.661915 
L 145.037049 87.61854 
L 145.72196 87.536284 
L 145.959008 87.434065 
L 147.697518 86.397711 
L 147.976634 86.157422 
L 148.195653 85.887399 
L 148.339262 85.652964 
L 148.438136 85.406143 
L 148.47362 85.152633 
L 148.395022 84.838868 
L 148.048595 84.238304 
L 147.895267 84.10891 
L 147.538649 83.874893 
L 147.446673 83.74853 
L 147.296741 83.261735 
L 147.214433 82.518033 
L 147.265594 82.188591 
L 147.341451 81.905941 
L 147.391905 81.717943 
L 147.548422 81.509847 
L 147.677398 81.053466 
L 147.811652 80.871709 
L 148.289615 80.423794 
L 149.024956 80.102661 
L 149.523927 79.750538 
L 149.633411 79.6132 
L 149.756272 79.35436 
L 149.784806 79.210438 
L 149.77357 79.065784 
L 149.515409 78.41756 
L 149.340184 78.164416 
L 148.900056 77.703071 
L 148.523789 77.406604 
L 148.248539 77.152885 
L 148.005325 76.745994 
L 147.644422 76.276497 
L 147.355376 75.675254 
L 147.301497 75.106464 
L 147.553108 74.334424 
L 147.575074 74.267023 
L 147.57152 74.218369 
L 147.469981 74.037448 
L 147.401782 73.796166 
L 147.350202 73.079273 
L 147.286812 72.910006 
L 147.292926 72.788921 
L 147.628065 72.304373 
L 147.798482 72.115769 
L 148.093173 71.980888 
L 149.158687 71.879191 
L 149.854154 72.792109 
L 149.292419 73.181806 
L 149.162607 73.377151 
L 149.093624 73.622195 
L 149.033944 74.081136 
L 149.084897 74.361507 
L 149.208647 74.590769 
L 149.425366 74.843077 
L 149.630118 74.952665 
L 149.971424 75.046313 
L 150.231518 75.060946 
L 150.634281 75.007798 
L 151.016453 74.881122 
L 151.49034 74.580422 
L 151.753675 74.36574 
L 152.089284 73.982837 
L 152.5465 73.629355 
L 152.973563 73.365289 
L 153.490774 72.868721 
L 153.688314 72.613904 
L 153.85685 72.103749 
L 153.870646 71.920737 
L 153.808876 71.736941 
L 153.634852 71.499162 
L 153.419492 71.320278 
L 153.209984 71.228302 
L 152.956684 71.192295 
L 152.594788 71.194281 
L 152.09383 71.241262 
L 151.399043 71.37583 
L 150.759546 71.448888 
L 150.387094 71.437705 
L 149.876887 71.335067 
L 149.506943 71.162977 
L 148.483027 70.171253 
L 148.387079 70.054244 
L 148.355776 69.975333 
L 148.35102 69.840399 
L 148.399726 69.522715 
L 148.493949 69.362122 
L 148.592876 69.250549 
L 148.78357 69.139916 
L 148.971024 69.100565 
L 149.134178 69.081176 
L 149.285834 69.034561 
L 149.425785 68.95288 
L 149.51912 68.871251 
L 149.624109 68.696287 
L 149.68243 68.52127 
L 149.685775 67.906178 
L 149.497955 67.433389 
L 149.412563 67.132845 
L 149.39631 66.991954 
L 149.425471 66.850907 
L 149.61073 66.507563 
L 149.811667 66.2667 
L 150.005654 66.120165 
L 150.276357 66.015019 
L 150.717321 65.927171 
L 151.145115 65.953144 
L 151.24676 66.229073 
L 151.721378 67.083617 
L 151.834049 67.362734 
L 151.861695 67.551286 
L 151.844397 67.616923 
L 151.626528 67.89719 
L 151.050212 68.223027 
L 150.839398 68.481449 
L 150.769162 68.738826 
L 150.769162 68.996255 
L 150.815986 69.253632 
L 150.956407 69.557886 
L 151.1436 69.721666 
L 151.826524 70.004912 
L 152.495548 70.031303 
L 152.974295 69.975803 
L 153.486802 69.858899 
L 154.111144 69.549733 
L 154.266981 69.413284 
L 154.397054 69.186427 
L 154.460915 68.946713 
L 154.465462 68.774153 
L 154.367841 68.48333 
L 154.062386 67.91292 
L 153.459941 67.044893 
L 153.297101 66.629014 
L 153.241549 66.400902 
L 153.27881 66.129206 
L 153.362268 65.916719 
L 153.45299 65.782361 
L 153.723536 65.492008 
L 154.055017 65.290914 
L 154.17328 64.97971 
L 154.164187 64.82356 
L 153.805688 64.220487 
L 153.251321 63.458965 
L 152.856659 63.02469 
L 152.756269 62.840319 
L 152.695544 62.426478 
L 152.720628 62.121075 
L 152.751409 62.012376 
L 152.965515 61.694221 
L 153.184273 61.535039 
L 153.682408 61.290518 
L 154.013471 61.240506 
L 154.321958 61.283567 
L 154.79804 61.447035 
L 154.983665 61.534882 
L 155.137359 61.625395 
L 155.228918 61.722075 
L 155.566774 62.32405 
L 155.625095 62.535387 
L 155.61804 62.644138 
L 155.4818 62.966787 
L 155.480807 63.168612 
L 155.52852 63.485774 
L 155.636906 63.882004 
L 155.89167 64.237054 
L 155.971313 64.285707 
L 156.362787 64.381289 
L 156.582172 64.371778 
L 156.721972 64.321061 
L 157.05423 64.200524 
L 158.193274 63.645217 
L 159.638922 63.265553 
L 159.84566 63.165372 
L 160.255268 62.891325 
L 160.677628 63.300358 
L 161.160034 63.621178 
L 161.362225 63.7015 
L 161.774342 63.734476 
L 161.979616 63.631421 
L 162.159388 63.405556 
L 162.226019 63.20441 
L 162.233648 63.094404 
L 162.172244 62.92545 
L 162.134544 62.879206 
L 161.661252 62.298652 
L 161.842644 62.121023 
L 162.263227 61.862026 
L 163.443921 61.338178 
L 164.973499 60.437071 
L 165.066886 60.310656 
L 165.158967 60.0792 
L 165.254131 59.720544 
L 165.267144 58.854869 
L 165.181438 58.503687 
L 165.091761 58.315553 
L 164.975537 58.144143 
L 164.771046 57.945976 
L 164.473482 57.799388 
L 163.502661 57.418732 
L 163.293937 57.283694 
L 163.03238 57.029191 
L 162.726976 56.922425 
L 162.552482 56.829822 
L 162.236366 56.530324 
L 162.134251 56.380758 
L 161.879644 55.818709 
L 173.008772 55.854513 
L 174.866742 55.86049 
L 176.735924 55.866504 
L 178.57072 55.872407 
L 183.192885 55.887277 
L 183.614022 55.888632 
L 184.11854 55.893407 
L 184.138549 55.893596 
L 185.961196 55.89715 
L 187.809046 55.893683 
L 188.746668 55.891924 
L 190.605775 55.860557 
L 191.537419 55.844838 
L 192.449896 55.843912 
L 196.632857 55.839665 
L 196.644982 55.839714 
L 200.772968 55.856396 
L 203.590084 55.86778 
L 204.500127 55.88837 
L 204.857685 55.908543 
L 207.57219 55.920092 
L 209.099929 55.913244 
L 211.871762 55.90082 
L 218.939683 55.869139 
L 219.940187 55.881943 
L 222.10691 55.911103 
L 223.031429 55.891192 
L 223.038693 55.889991 
L 228.915616 55.857276 
L 229.407528 55.85783 
L 234.20943 55.863234 
L 236.208975 55.809616 
L 238.087279 55.850535 
L 239.549925 55.846743 
L 241.454083 55.841807 
L 255.689401 55.806706 
L 258.00643 55.800993 
L 258.010402 55.8 
L 262.676791 55.823099 
L 263.564004 55.824164 
L 269.073171 55.830781 
L 269.297155 55.826077 
L 272.106666 55.821844 
L 272.172147 56.05398 
L 272.766962 56.904918 
L 273.156608 57.293884 
L 273.358694 57.552411 
L 273.567941 57.934217 
L 274.117081 59.071223 
L 274.481694 59.649419 
L 274.914506 60.068434 
L 275.260149 60.3163 
L 275.418442 60.422857 
L 276.027472 60.703228 
L 277.335992 61.128201 
L 277.446312 61.227127 
L 276.94086 65.437868 
L 276.477947 68.851706 
L 276.374003 70.001985 
L 276.138008 71.514638 
L 275.54538 75.313201 
L 275.312513 77.061013 
L 275.284972 77.135222 
L 275.246195 77.453585 
L 274.39416 83.645736 
L 273.905954 87.832333 
L 273.89153 87.946049 
L 273.487984 91.074917 
L 273.371184 92.061729 
L 273.317775 92.496161 
L 273.306426 92.580782 
L 272.806784 96.306177 
L 272.756981 97.151419 
L 272.597172 97.917279 
L 272.521396 98.689253 
L 272.099768 101.793612 
L 271.912258 103.329708 
L 271.732228 104.804531 
L 271.548694 106.327053 
L 271.416529 107.307096 
L 270.728902 112.406063 
L 270.724251 112.469296 
L 270.724251 112.475254 
L 270.581475 113.498914 
L 270.255224 115.838035 
L 270.016817 117.736301 
L 269.861555 118.53059 
L 269.803181 119.262586 
L 269.55258 121.180467 
L 269.379097 122.508149 
L 269.264754 123.594568 
L 269.255504 123.751294 
L 269.176645 124.426484 
L 269.165566 124.468657 
L 268.869823 126.90472 
L 268.608377 129.058277 
L 268.600904 129.175338 
L 268.548018 129.538487 
L 268.500148 129.962363 
L 268.476318 130.173229 
L 268.449248 130.281667 
L 268.210475 132.205384 
L 268.096236 133.122273 
L 268.064044 133.332721 
L 267.350326 139.25794 
L 266.740696 144.319027 
L 266.653253 145.044972 
L 266.229012 148.566984 
L 266.087911 149.486747 
L 265.988619 150.490126 
L 265.267493 156.290803 
L 265.263644 156.324002 
L 264.771134 160.572197 
L 264.383473 163.818619 
L 264.04682 166.637881 
L 263.312211 173.299582 
L 263.05149 175.172085 
L 262.547344 179.607383 
L 262.544522 179.621754 
L 262.240465 182.159261 
L 261.659929 187.004111 
L 261.659704 187.006205 
L 261.460142 188.860884 
L 261.460142 188.866893 
L 261.130535 191.505906 
L 261.004911 192.511718 
L 260.935981 192.830656 
L 260.537034 196.240157 
L 260.180364 199.299259 
L 260.022749 200.474487 
L 259.638331 203.340836 
L 259.635195 203.378881 
L 259.408403 205.214294 
L 258.866582 209.599214 
L 258.786034 210.251082 
L 258.781853 210.295868 
L 258.07003 215.863887 
L 258.058585 216.016013 
L 257.831361 217.918565 
L 257.861933 218.895971 
L 257.936559 220.13807 
L 257.942203 220.160855 
L 258.069559 223.308275 
L 258.255707 226.883333 
L 258.291244 228.156374 
L 258.291348 228.16008 
L 258.537123 232.020944 
L 258.549874 232.143753 
L 258.887731 238.49263 
L 258.96288 239.466273 
L 258.990577 240.620419 
L 259.067681 241.854432 
L 259.115215 242.615209 
L 259.113857 242.635538 
L 259.295562 246.028159 
L 259.296973 246.034116 
L 259.583008 250.645023 
L 259.631537 251.427327 
L 259.621085 251.728236 
L 259.661273 252.545781 
L 259.666865 252.608074 
L 259.985489 258.657714 
L 260.309497 264.572159 
L 260.313573 264.621283 
L 260.318425 264.719628 
L 260.507246 268.546779 
L 260.635856 271.153538 
L 260.684562 271.605999 
L 261.007493 278.448328 
L 261.016931 278.648304 
L 261.020119 278.720213 
L 261.054558 279.631562 
L 261.065584 279.977624 
L 261.157979 281.94273 
L 261.23642 283.602537 
L 261.268194 283.8804 
L 261.267044 284.346396 
L 261.344049 286.069646 
L 261.413753 287.629522 
L 261.448436 288.405689 
L 261.452721 288.494582 
L 261.472789 289.03071 
L 261.538845 290.193374 
L 261.918247 297.584249 
L 261.802597 297.674971 
L 261.707172 298.037912 
L 261.810645 298.349325 
L 261.963869 298.469103 
L 261.972754 298.635602 
L 261.596434 298.892979 
L 261.139375 299.01145 
L 260.675103 298.395 
L 259.887033 298.356276 
L 259.228357 298.716813 
L 259.221563 299.243691 
L 258.84608 299.664117 
L 257.902016 300.166119 
L 257.471295 300.253654 
L 256.181274 300.090239 
L 256.106857 300.042108 
L 256.101213 299.78055 
L 255.256703 299.117171 
L 254.539705 298.949575 
L 252.89082 299.667775 
L 252.150672 299.58902 
L 251.205772 298.255781 
L 250.52661 298.39223 
L 249.247633 298.087443 
L 249.236276 298.084736 
L 247.871106 297.967101 
L 245.949689 298.929194 
L 244.470437 298.982394 
L 243.527053 298.723659 
L 243.416901 298.644673 
L 242.231179 297.794436 
L 240.147444 296.775171 
L 240.006593 297.254404 
L 239.773947 298.04596 
L 236.546204 296.686696 
L 236.375682 296.552285 
L 236.321333 296.4046 
L 235.845721 296.331437 
L 234.377182 296.310533 
L 233.73586 296.349637 
L 232.354722 296.433849 
L 231.805921 296.467311 
L 231.723372 296.479941 
L 229.448974 296.8279 
L 227.523129 297.282742 
L 227.307985 297.333555 
L 225.952671 297.65365 
L 225.207845 297.918932 
L 225.155004 297.937753 
L 223.742251 298.440929 
L 220.538452 299.582017 
L 218.782435 300.036673 
L 217.421276 300.4871 
L 216.096778 300.925395 
L 215.369799 301.050503 
L 215.071921 301.040104 
L 214.915143 300.815389 
L 215.051017 299.744073 
L 215.260054 299.477551 
L 215.588243 299.541098 
L 215.679487 298.61036 
L 215.016787 297.782312 
L 213.837399 297.271582 
L 212.746487 297.344327 
L 212.484929 297.402836 
L 212.040725 297.502202 
L 211.842087 297.617173 
L 211.288139 298.212928 
L 211.169615 298.486036 
L 211.797822 298.753604 
L 212.224312 298.935256 
L 212.594674 298.965462 
L 212.923959 299.231985 
L 213.457056 300.203955 
L 213.446604 300.433896 
L 213.059833 301.061008 
L 212.286396 301.567923 
L 211.565218 301.792638 
L 211.188899 302.001675 
L 210.46772 302.759435 
L 210.248231 302.895309 
L 208.387748 303.599555 
L 208.112028 304.066178 
L 208.118874 304.395359 
L 207.808715 305.224923 
L 206.918374 306.171862 
L 206.895118 307.203774 
L 206.196673 307.758088 
L 206.075431 307.8 
L 205.751581 307.677975 
L 205.436353 306.879296 
L 205.206934 306.764848 
L 204.690351 307.082271 
L 204.004082 307.324022 
L 202.980688 307.322716 
L 202.89237 307.444114 
L 202.71218 307.028966 
L 202.581532 306.846059 
L 202.42998 306.710185 
L 202.153006 306.657925 
L 202.006627 306.678829 
L 201.719201 306.799026 
L 201.609457 306.877414 
L 201.51539 307.002837 
L 201.316805 307.180518 
L 200.919634 307.3582 
L 200.506734 307.467944 
L 200.282019 307.394781 
L 199.952785 307.159615 
L 199.691489 306.851337 
L 199.607874 306.689333 
L 199.529485 306.422811 
L 199.12181 305.821829 
L 198.881417 305.597114 
L 198.546958 305.544855 
L 198.39018 305.492596 
L 198.290835 305.419432 
L 198.118379 305.226125 
L 198.060894 305.100703 
L 198.055668 305.00141 
L 198.118379 304.593788 
L 198.212446 304.26978 
L 198.20722 304.107777 
L 198.102702 303.961451 
L 197.700305 303.830802 
L 197.540078 303.734123 
L 197.285732 303.463472 
L 197.262947 303.295563 
L 197.315729 303.213672 
L 197.345308 303.193814 
L 197.391923 302.926717 
L 197.352049 302.437204 
L 197.305486 302.2752 
L 196.979597 301.994568 
L 196.676859 301.85608 
L 196.767529 301.013817 
L 196.835675 300.859339 
L 196.86332 300.831851 
L 197.159317 300.780898 
L 197.293362 300.724667 
L 197.576712 300.467394 
L 197.556592 300.404579 
L 197.385652 300.114017 
L 197.358373 299.491295 
L 197.393491 299.15924 
L 197.050043 298.914509 
L 196.584935 298.69732 
L 196.563091 298.530717 
L 196.506494 298.468738 
L 196.193304 298.310078 
L 195.958242 298.258917 
L 195.797126 297.894565 
L 195.696266 297.487988 
L 195.28185 296.904669 
L 195.144512 296.54685 
L 194.810523 295.986892 
L 194.685765 295.825006 
L 194.573632 295.679503 
L 194.551056 295.32555 
L 194.645018 295.307521 
L 194.705377 295.385858 
L 194.759257 295.390665 
L 194.843917 295.254164 
L 194.739346 294.474874 
L 194.664563 294.20579 
L 194.582254 294.159489 
L 194.514579 293.921604 
L 194.618418 293.592423 
L 194.588055 293.279756 
L 194.255191 292.888596 
L 194.238336 292.868789 
L 193.937218 292.680028 
L 193.627059 292.583558 
L 193.431662 292.205462 
L 193.221945 291.917879 
L 193.18991 291.894101 
L 193.068198 291.935804 
L 192.890882 291.920805 
L 192.694074 291.640225 
L 192.61417 291.35583 
L 192.434763 291.183688 
L 192.354284 291.149301 
L 191.912118 291.036264 
L 191.505489 290.900756 
L 191.48354 290.82822 
L 191.294413 290.623625 
L 190.954937 290.63021 
L 190.683084 290.478083 
L 190.659986 290.449967 
L 190.644987 290.077881 
L 190.555728 289.936833 
L 190.160491 289.975558 
L 190.063132 289.616223 
L 190.024042 289.306691 
L 189.977061 289.179701 
L 189.783075 288.730323 
L 189.563063 288.443054 
L 189.527474 288.429362 
L 189.331607 288.457164 
L 189.093931 288.436835 
L 188.963074 288.40642 
L 188.818211 288.359962 
L 188.738934 288.327143 
L 188.736164 288.280684 
L 188.744369 288.245148 
L 188.809275 288.237257 
L 188.915309 288.210866 
L 188.930778 288.067884 
L 188.780898 287.80502 
L 188.349393 287.734522 
L 188.294939 287.683047 
L 188.292013 287.594572 
L 188.347094 287.47448 
L 188.417069 287.431419 
L 188.480669 287.431837 
L 188.667757 287.535153 
L 188.890747 287.46361 
L 189.013661 287.346236 
L 189.033676 287.281069 
L 189.001119 287.231736 
L 188.782832 287.120476 
L 188.497914 287.136258 
L 188.299015 287.199126 
L 188.172078 287.230743 
L 188.075659 287.206965 
L 188.067454 287.165314 
L 188.137534 286.995785 
L 187.986191 286.333399 
L 188.042413 286.301804 
L 188.089508 286.275338 
L 188.123163 286.196322 
L 187.862337 285.980178 
L 187.638301 285.971137 
L 187.526937 285.916683 
L 187.458425 285.778091 
L 187.465845 285.702577 
L 187.59618 285.488 
L 187.734092 285.213064 
L 187.767695 285.131069 
L 187.691397 285.08691 
L 187.611701 285.084088 
L 187.382753 285.161954 
L 187.278653 285.104469 
L 187.325111 284.778789 
L 187.404598 284.580622 
L 187.375541 284.499045 
L 187.279541 284.342894 
L 187.550244 283.756754 
L 187.352338 283.2339 
L 187.189394 282.951752 
L 186.756948 282.528818 
L 186.611354 282.54021 
L 186.353141 282.476611 
L 185.783462 282.336347 
L 185.763917 282.245677 
L 185.853437 282.149154 
L 185.940763 282.127153 
L 185.954765 282.086798 
L 186.028454 281.874427 
L 186.145305 281.631264 
L 186.572159 280.801282 
L 186.641089 280.770292 
L 186.621753 280.331889 
L 186.505895 280.097715 
L 186.440727 280.092124 
L 186.314364 280.166854 
L 186.216378 280.177411 
L 186.095084 280.091392 
L 186.061116 279.984156 
L 186.101617 279.926409 
L 186.600379 279.462817 
L 186.824885 279.504677 
L 186.92423 279.456285 
L 187.028696 279.001211 
L 186.767191 278.910227 
L 186.596512 278.887338 
L 186.564425 278.83487 
L 186.568344 278.497275 
L 186.624227 278.434918 
L 186.643232 278.413712 
L 186.72784 278.376503 
L 187.127257 278.396257 
L 187.369741 278.395003 
L 187.581652 278.359101 
L 187.632918 278.325603 
L 187.655076 278.251395 
L 187.61907 278.214291 
L 187.47358 278.183196 
L 187.267469 278.16663 
L 187.133633 278.096916 
L 187.148213 277.836508 
L 187.037842 277.255698 
L 186.847043 276.775383 
L 187.220279 276.147279 
L 187.390906 275.67799 
L 187.372301 275.543475 
L 187.393623 275.473447 
L 187.493647 275.332034 
L 187.577524 275.28892 
L 187.637151 275.28892 
L 187.766336 275.407653 
L 187.787815 275.49895 
L 187.836155 275.611778 
L 187.863016 275.686979 
L 187.938217 275.708457 
L 188.141715 275.653951 
L 188.228256 275.574151 
L 188.249735 275.520429 
L 188.239022 275.472089 
L 188.169203 275.429132 
L 188.125619 275.401068 
L 188.045662 275.348548 
L 187.927452 275.219676 
L 187.89526 275.187432 
L 187.911356 275.139093 
L 187.965078 275.090753 
L 188.067872 275.053335 
L 188.253079 274.951482 
L 188.28271 274.913019 
L 188.473091 274.537902 
L 188.512233 274.289827 
L 188.492584 274.085702 
L 188.565485 273.992837 
L 188.626263 273.96028 
L 188.671049 273.951396 
L 188.926545 274.017295 
L 189.232314 274.248542 
L 189.414699 274.143344 
L 189.479291 274.031091 
L 189.332077 273.651584 
L 189.183034 273.481376 
L 189.047734 273.490364 
L 188.995161 273.463451 
L 188.975669 273.403561 
L 189.011414 273.09774 
L 189.148386 272.777443 
L 189.401895 272.71724 
L 189.508975 272.704489 
L 189.528415 272.666496 
L 189.490841 272.545934 
L 189.342215 272.358376 
L 189.309553 272.274081 
L 189.327478 272.194334 
L 189.363485 272.155035 
L 189.454468 272.124149 
L 189.605393 272.166636 
L 189.815266 272.299688 
L 189.927728 272.278471 
L 189.972933 272.225323 
L 190.169793 271.745531 
L 190.178468 271.655697 
L 190.155056 271.613106 
L 189.644588 271.246298 
L 189.582451 271.15359 
L 189.614382 270.95929 
L 189.69136 270.845103 
L 189.777692 270.823729 
L 190.061512 270.784169 
L 189.95783 270.366826 
L 189.877246 270.020765 
L 189.900972 269.943631 
L 189.959136 269.902398 
L 190.048865 269.888654 
L 190.318941 270.017786 
L 190.548882 270.049821 
L 190.65246 269.996883 
L 190.74104 269.911805 
L 190.759487 269.80091 
L 190.595811 269.531932 
L 190.502267 269.512335 
L 190.396233 269.452707 
L 190.35291 269.319759 
L 190.365923 269.234576 
L 190.449642 269.138942 
L 190.616715 269.065883 
L 190.720502 269.073252 
L 190.894578 269.187857 
L 191.104294 269.181063 
L 191.279624 269.030817 
L 191.380432 268.86735 
L 191.398253 268.781436 
L 191.360992 268.685331 
L 191.201758 268.635528 
L 191.104294 268.298665 
L 191.168155 268.141835 
L 191.165751 268.085813 
L 191.104294 267.987827 
L 190.803176 267.790286 
L 190.765602 267.664551 
L 190.777151 267.583601 
L 191.045607 267.16861 
L 191.442987 266.800548 
L 191.466921 266.721584 
L 191.856149 266.377718 
L 191.947759 266.359636 
L 192.080498 266.400869 
L 192.188465 266.395016 
L 192.255671 266.380592 
L 192.30631 266.334761 
L 192.305578 266.213937 
L 192.23785 266.138997 
L 191.835245 265.96628 
L 191.779693 265.880836 
L 191.793594 265.826434 
L 191.844338 265.787606 
L 192.039997 265.775952 
L 192.127113 265.691344 
L 192.156953 265.56681 
L 192.273596 264.979468 
L 192.228391 264.923707 
L 192.046947 264.923028 
L 191.932395 264.860683 
L 191.863778 264.64574 
L 192.153295 264.643964 
L 192.251229 264.580887 
L 192.250229 264.510669 
L 192.250131 264.503804 
L 192.173362 264.425624 
L 192.022438 264.378382 
L 191.535538 264.451022 
L 191.35817 264.513158 
L 191.25292 264.621231 
L 191.150491 264.654102 
L 191.030713 264.647047 
L 190.99664 264.621283 
L 190.97004 264.53401 
L 187.636577 264.521938 
L 187.208677 264.523192 
L 186.637745 264.523245 
L 186.61862 264.52323 
L 185.523577 264.522408 
L 183.65029 264.538922 
L 183.399027 264.530874 
L 182.061033 264.555279 
L 181.849801 264.55575 
L 179.464634 264.558101 
L 179.327297 264.542424 
L 177.76464 264.559565 
L 176.883914 264.562805 
L 176.49777 264.568658 
L 175.393427 264.567351 
L 171.33288 264.576131 
L 171.176677 264.582559 
L 169.458234 264.577281 
L 169.437435 264.579632 
L 167.884476 264.584916 
L 164.47913 264.596504 
L 159.961205 264.611876 
L 159.897292 264.612085 
L 159.89672 264.612086 
L 158.740219 264.61334 
L 158.156744 264.637536 
L 155.983751 264.640776 
L 155.73646 264.642553 
L 155.187633 264.644956 
L 154.959051 264.645009 
L 154.919647 264.645375 
L 154.180294 264.643597 
L 153.26747 264.641403 
L 153.171626 264.644434 
L 153.100762 264.645636 
L 152.651751 264.644434 
L 152.606128 264.64689 
L 149.425289 264.645308 
L 148.402077 264.6448 
L 147.549049 264.646629 
L 147.500448 264.646629 
L 147.347589 264.651541 
L 147.279495 264.649137 
L 144.141586 264.657708 
L 144.012401 264.656453 
L 139.660248 264.671922 
L 139.656119 264.671504 
L 138.390242 264.652639 
L 137.838489 264.663561 
L 137.491069 264.657446 
L 137.28846 264.659223 
L 137.085328 264.659746 
L 134.886029 264.664271 
L 134.8757 264.664292 
L 131.28533 264.650182 
L 123.580097 264.681707 
L 122.637308 264.685564 
L 122.216253 264.687286 
L 121.560712 264.687861 
L 120.134034 264.690579 
L 120.124784 264.689377 
L 116.579056 264.675594 
L 116.575437 264.67558 
L 114.07436 264.673542 
L 114.034068 264.673542 
L 112.902602 264.658335 
L 105.062399 264.680023 
L 103.645861 264.683942 
L 103.534654 264.68274 
L 99.790746 264.682792 
L 99.648287 264.699254 
L 97.630503 264.662829 
L 93.115771 264.674378 
L 92.497857 264.661366 
L 93.115771 264.350005 
L 94.089257 264.044706 
L 94.926817 263.728328 
L 95.556541 263.375056 
L 95.907619 263.07446 
L 96.289007 262.594563 
L 96.454408 262.215161 
L 96.499717 262.043593 
L 96.523651 261.802626 
L 96.451743 261.447942 
L 96.301915 261.138358 
L 96.119112 260.962976 
L 94.70576 259.852048 
L 93.930754 259.32355 
L 93.656916 259.177224 
L 93.457965 259.021961 
L 93.303016 258.868894 
L 93.069992 258.521944 
L 93.044803 258.405458 
L 93.08499 257.901783 
L 93.115771 257.738943 
L 93.162856 257.642264 
L 93.295909 257.478117 
L 94.209087 256.554434 
L 94.442425 256.290682 
L 94.581958 256.08687 
L 94.872519 255.583822 
L 95.000868 255.298069 
L 95.019211 255.170608 
L 95.00646 254.755983 
L 94.979688 254.642009 
L 94.948347 254.508587 
L 94.688201 254.07609 
L 94.343969 253.730969 
L 93.115719 252.816536 
L 92.110407 252.380537 
L 91.709944 251.947987 
L 91.559019 251.556878 
L 91.553688 251.471173 
" clip-path="url(#p456ecc1b9d)" style="fill: #0057dd"/>
   </g>
   <g id="PathCollection_1">
    <defs>
     <path id="m662349e587" d="M 0 1.581139 
C 0.419323 1.581139 0.821528 1.41454 1.118034 1.118034 
C 1.41454 0.821528 1.581139 0.419323 1.581139 0 
C 1.581139 -0.419323 1.41454 -0.821528 1.118034 -1.118034 
C 0.821528 -1.41454 0.419323 -1.581139 0 -1.581139 
C -0.419323 -1.581139 -0.821528 -1.41454 -1.118034 -1.118034 
C -1.41454 -0.821528 -1.581139 -0.419323 -1.581139 0 
C -1.581139 0.419323 -1.41454 0.821528 -1.118034 1.118034 
C -0.821528 1.41454 -0.419323 1.581139 0 1.581139 
z
" style="stroke: #000000"/>
    </defs>
    <g clip-path="url(#p456ecc1b9d)">
     <use xlink:href="#m662349e587" x="168.526556" y="196.492674" style="stroke: #000000"/>
    </g>
   </g>
   <g id="text_1">
    <!-- Jackson -->
    <g transform="translate(171.526556 193.492674) scale(0.1 -0.1)">
     <defs>
      <path id="DejaVuSans-4a" d="M 628 4666 
L 1259 4666 
L 1259 325 
Q 1259 -519 939 -900 
Q 619 -1281 -91 -1281 
L -331 -1281 
L -331 -750 
L -134 -750 
Q 284 -750 456 -515 
Q 628 -281 628 325 
L 628 4666 
z
" transform="scale(0.015625)"/>
      <path id="DejaVuSans-61" d="M 2194 1759 
Q 1497 1759 1228 1600 
Q 959 1441 959 1056 
Q 959 750 1161 570 
Q 1363 391 1709 391 
Q 2188 391 2477 730 
Q 2766 1069 2766 1631 
L 2766 1759 
L 2194 1759 
z
M 3341 1997 
L 3341 0 
L 2766 0 
L 2766 531 
Q 2569 213 2275 61 
Q 1981 -91 1556 -91 
Q 1019 -91 701 211 
Q 384 513 384 1019 
Q 384 1609 779 1909 
Q 1175 2209 1959 2209 
L 2766 2209 
L 2766 2266 
Q 2766 2663 2505 2880 
Q 2244 3097 1772 3097 
Q 1472 3097 1187 3025 
Q 903 2953 641 2809 
L 641 3341 
Q 956 3463 1253 3523 
Q 1550 3584 1831 3584 
Q 2591 3584 2966 3190 
Q 3341 2797 3341 1997 
z
" transform="scale(0.015625)"/>
      <path id="DejaVuSans-63" d="M 3122 3366 
L 3122 2828 
Q 2878 2963 2633 3030 
Q 2388 3097 2138 3097 
Q 1578 3097 1268 2742 
Q 959 2388 959 1747 
Q 959 1106 1268 751 
Q 1578 397 2138 397 
Q 2388 397 2633 464 
Q 2878 531 3122 666 
L 3122 134 
Q 2881 22 2623 -34 
Q 2366 -91 2075 -91 
Q 1284 -91 818 406 
Q 353 903 353 1747 
Q 353 2603 823 3093 
Q 1294 3584 2113 3584 
Q 2378 3584 2631 3529 
Q 2884 3475 3122 3366 
z
" transform="scale(0.015625)"/>
      <path id="DejaVuSans-6b" d="M 581 4863 
L 1159 4863 
L 1159 1991 
L 2875 3500 
L 3609 3500 
L 1753 1863 
L 3688 0 
L 2938 0 
L 1159 1709 
L 1159 0 
L 581 0 
L 581 4863 
z
" transform="scale(0.015625)"/>
      <path id="DejaVuSans-73" d="M 2834 3397 
L 2834 2853 
Q 2591 2978 2328 3040 
Q 2066 3103 1784 3103 
Q 1356 3103 1142 2972 
Q 928 2841 928 2578 
Q 928 2378 1081 2264 
Q 1234 2150 1697 2047 
L 1894 2003 
Q 2506 1872 2764 1633 
Q 3022 1394 3022 966 
Q 3022 478 2636 193 
Q 2250 -91 1575 -91 
Q 1294 -91 989 -36 
Q 684 19 347 128 
L 347 722 
Q 666 556 975 473 
Q 1284 391 1588 391 
Q 1994 391 2212 530 
Q 2431 669 2431 922 
Q 2431 1156 2273 1281 
Q 2116 1406 1581 1522 
L 1381 1569 
Q 847 1681 609 1914 
Q 372 2147 372 2553 
Q 372 3047 722 3315 
Q 1072 3584 1716 3584 
Q 2034 3584 2315 3537 
Q 2597 3491 2834 3397 
z
" transform="scale(0.015625)"/>
      <path id="DejaVuSans-6f" d="M 1959 3097 
Q 1497 3097 1228 2736 
Q 959 2375 959 1747 
Q 959 1119 1226 758 
Q 1494 397 1959 397 
Q 2419 397 2687 759 
Q 2956 1122 2956 1747 
Q 2956 2369 2687 2733 
Q 2419 3097 1959 3097 
z
M 1959 3584 
Q 2709 3584 3137 3096 
Q 3566 2609 3566 1747 
Q 3566 888 3137 398 
Q 2709 -91 1959 -91 
Q 1206 -91 779 398 
Q 353 888 353 1747 
Q 353 2609 779 3096 
Q 1206 3584 1959 3584 
z
" transform="scale(0.015625)"/>
      <path id="DejaVuSans-6e" d="M 3513 2113 
L 3513 0 
L 2938 0 
L 2938 2094 
Q 2938 2591 2744 2837 
Q 2550 3084 2163 3084 
Q 1697 3084 1428 2787 
Q 1159 2491 1159 1978 
L 1159 0 
L 581 0 
L 581 3500 
L 1159 3500 
L 1159 2956 
Q 1366 3272 1645 3428 
Q 1925 3584 2291 3584 
Q 2894 3584 3203 3211 
Q 3513 2838 3513 2113 
z
" transform="scale(0.015625)"/>
     </defs>
     <use xlink:href="#DejaVuSans-4a"/>
     <use xlink:href="#DejaVuSans-61" x="29.492188"/>
     <use xlink:href="#DejaVuSans-63" x="90.771484"/>
     <use xlink:href="#DejaVuSans-6b" x="145.751953"/>
     <use xlink:href="#DejaVuSans-73" x="203.662109"/>
     <use xlink:href="#DejaVuSans-6f" x="255.761719"/>
     <use xlink:href="#DejaVuSans-6e" x="316.943359"/>
    </g>
   </g>
   <g id="text_2">
    <!-- Mississippi -->
    <g transform="translate(152.535 37.2) scale(0.12 -0.12)">
     <defs>
      <path id="DejaVuSans-4d" d="M 628 4666 
L 1569 4666 
L 2759 1491 
L 3956 4666 
L 4897 4666 
L 4897 0 
L 4281 0 
L 4281 4097 
L 3078 897 
L 2444 897 
L 1241 4097 
L 1241 0 
L 628 0 
L 628 4666 
z
" transform="scale(0.015625)"/>
      <path id="DejaVuSans-69" d="M 603 3500 
L 1178 3500 
L 1178 0 
L 603 0 
L 603 3500 
z
M 603 4863 
L 1178 4863 
L 1178 4134 
L 603 4134 
L 603 4863 
z
" transform="scale(0.015625)"/>
      <path id="DejaVuSans-70" d="M 1159 525 
L 1159 -1331 
L 581 -1331 
L 581 3500 
L 1159 3500 
L 1159 2969 
Q 1341 3281 1617 3432 
Q 1894 3584 2278 3584 
Q 2916 3584 3314 3078 
Q 3713 2572 3713 1747 
Q 3713 922 3314 415 
Q 2916 -91 2278 -91 
Q 1894 -91 1617 61 
Q 1341 213 1159 525 
z
M 3116 1747 
Q 3116 2381 2855 2742 
Q 2594 3103 2138 3103 
Q 1681 3103 1420 2742 
Q 1159 2381 1159 1747 
Q 1159 1113 1420 752 
Q 1681 391 2138 391 
Q 2594 391 2855 752 
Q 3116 1113 3116 1747 
z
" transform="scale(0.015625)"/>
     </defs>
     <use xlink:href="#DejaVuSans-4d"/>
     <use xlink:href="#DejaVuSans-69" x="86.279297"/>
     <use xlink:href="#DejaVuSans-73" x="114.0625"/>
     <use xlink:href="#DejaVuSans-73" x="166.162109"/>
     <use xlink:href="#DejaVuSans-69" x="218.261719"/>
     <use xlink:href="#DejaVuSans-73" x="246.044922"/>
     <use xlink:href="#DejaVuSans-73" x="298.144531"/>
     <use xlink:href="#DejaVuSans-69" x="350.244141"/>
     <use xlink:href="#DejaVuSans-70" x="378.027344"/>
     <use xlink:href="#DejaVuSans-70" x="441.503906"/>
     <use xlink:href="#DejaVuSans-69" x="504.980469"/>
    </g>
   </g>
  </g>
 </g>
 <defs>
  <clipPath id="p456ecc1b9d">
   <rect x="82.259057" y="43.2" width="204.481886" height="277.2"/>
  </clipPath>
 </defs>
</svg>
