<?xml version="1.0" encoding="utf-8" standalone="no"?>
<!DOCTYPE svg PUBLIC "-//W3C//DTD SVG 1.1//EN"
  "http://www.w3.org/Graphics/SVG/1.1/DTD/svg11.dtd">
<svg xmlns:xlink="http://www.w3.org/1999/xlink" width="460.8pt" height="345.6pt" viewBox="0 0 460.8 345.6" xmlns="http://www.w3.org/2000/svg" version="1.1">
 <metadata>
  <rdf:RDF xmlns:dc="http://purl.org/dc/elements/1.1/" xmlns:cc="http://creativecommons.org/ns#" xmlns:rdf="http://www.w3.org/1999/02/22-rdf-syntax-ns#">
   <cc:Work>
    <dc:type rdf:resource="http://purl.org/dc/dcmitype/StillImage"/>
    <dc:date>2023-06-19T14:47:45.978529</dc:date>
    <dc:format>image/svg+xml</dc:format>
    <dc:creator>
     <cc:Agent>
      <dc:title>Matplotlib v3.7.1, https://matplotlib.org/</dc:title>
     </cc:Agent>
    </dc:creator>
   </cc:Work>
  </rdf:RDF>
 </metadata>
 <defs>
  <style type="text/css">*{stroke-linejoin: round; stroke-linecap: butt}</style>
 </defs>
 <g id="figure_1">
  <g id="patch_1">
   <path d="M 0 345.6 
L 460.8 345.6 
L 460.8 0 
L 0 0 
z
" style="fill: #ffffff"/>
  </g>
  <g id="axes_1">
   <g id="PatchCollection_1">
    <path d="M 126.392932 70.65548 
L 126.426471 70.389964 
L 126.416217 70.082148 
L 126.447093 69.956153 
L 126.534426 69.82173 
L 126.630199 69.725661 
L 126.64238 69.640855 
L 126.611589 69.532783 
L 126.614223 69.482754 
L 126.689998 69.345043 
L 137.627892 69.368844 
L 150.011968 69.373983 
L 158.401533 69.368885 
L 168.634169 69.388782 
L 175.191908 69.397455 
L 180.761431 69.418708 
L 185.468933 69.413241 
L 185.48032 61.768119 
L 185.477063 59.091379 
L 185.47964 56.803314 
L 185.480037 56.718426 
L 185.479697 56.688746 
L 185.479725 56.65401 
L 185.481028 55.251327 
L 185.479329 55.240927 
L 185.477544 54.799633 
L 185.479725 54.327345 
L 185.481737 54.253145 
L 185.480774 54.194936 
L 185.479159 53.620577 
L 185.480179 53.568 
L 185.567398 53.625304 
L 185.581221 53.723922 
L 185.707022 53.817854 
L 185.80611 53.81699 
L 186.240675 54.181289 
L 186.54097 54.301365 
L 186.720308 54.30971 
L 186.847157 54.365329 
L 186.910581 54.423208 
L 187.279173 54.523512 
L 188.168699 54.850073 
L 188.424265 54.854759 
L 189.414777 54.717089 
L 190.137315 54.203569 
L 190.551513 54.251213 
L 191.028003 54.150581 
L 191.179666 54.212531 
L 192.39314 54.97315 
L 192.456507 55.041718 
L 193.266151 55.671285 
L 193.95192 56.042859 
L 194.443933 56.046395 
L 195.029 56.173048 
L 194.800429 56.672632 
L 194.775813 57.270793 
L 195.56659 60.559383 
L 195.558574 61.237375 
L 196.218566 64.229906 
L 196.247034 64.405067 
L 196.898613 65.267099 
L 197.784938 69.368515 
L 198.800831 74.139579 
L 198.799188 74.162312 
L 198.768312 74.613553 
L 198.532914 74.755334 
L 198.595942 74.970698 
L 198.597528 74.985004 
L 198.518269 75.394891 
L 198.726841 75.940516 
L 198.404649 76.120897 
L 198.265478 76.283396 
L 198.199873 76.591459 
L 198.463598 77.211284 
L 198.435242 77.599137 
L 198.48235 78.02744 
L 198.579314 78.491383 
L 198.58005 78.492164 
L 198.662538 78.580587 
L 199.091382 78.851118 
L 199.252902 78.982664 
L 199.452523 79.222199 
L 199.687581 79.402046 
L 199.874568 79.646145 
L 199.843635 79.646145 
L 199.874964 79.686595 
L 199.876862 79.885886 
L 199.998102 80.008059 
L 200.615433 80.164145 
L 200.855392 80.389458 
L 201.114726 80.534856 
L 201.271346 80.704796 
L 201.408364 80.899154 
L 201.517933 80.977054 
L 202.049972 81.062435 
L 202.404995 81.034276 
L 202.596655 81.098158 
L 202.697358 81.199612 
L 202.89967 81.583765 
L 203.050228 81.648634 
L 203.28979 81.636548 
L 203.735601 81.685631 
L 203.980885 81.775534 
L 204.368965 81.780508 
L 204.753222 81.830043 
L 204.992784 81.885374 
L 205.336929 82.011123 
L 205.499186 81.992378 
L 205.723055 81.910614 
L 205.960957 81.661459 
L 206.133741 81.480502 
L 206.213 81.340571 
L 206.283421 81.282362 
L 206.360697 81.250463 
L 206.64037 81.26744 
L 207.135243 81.209478 
L 207.266313 81.215192 
L 207.436416 81.278251 
L 207.709291 81.436024 
L 208.149408 81.530654 
L 208.440837 81.561485 
L 208.846594 81.516307 
L 209.412795 81.279608 
L 209.914438 81.382049 
L 210.167682 81.48449 
L 210.378775 81.705362 
L 210.65842 81.744949 
L 210.769802 81.849281 
L 210.838098 82.036199 
L 210.990413 82.262662 
L 211.035283 82.378216 
L 211.050749 82.595184 
L 210.936875 83.185 
L 210.938744 83.288304 
L 211.054319 83.482374 
L 211.062987 83.495981 
L 211.157882 83.582266 
L 211.227199 83.614413 
L 211.533669 83.659878 
L 211.797082 83.77535 
L 212.07548 83.781311 
L 212.498431 83.714963 
L 212.808216 83.739381 
L 213.399005 83.833847 
L 213.69185 83.929957 
L 214.221707 83.932094 
L 214.571433 83.984178 
L 215.033306 83.994661 
L 215.320344 83.925969 
L 215.565486 84.01616 
L 215.978183 83.994208 
L 216.128826 83.924654 
L 216.286947 83.916062 
L 216.330344 84.014187 
L 216.442973 84.038934 
L 216.664349 84.001731 
L 216.926799 84.02656 
L 217.141263 84.125137 
L 217.314766 84.131591 
L 217.953768 84.035727 
L 218.131038 84.052828 
L 218.431107 84.177755 
L 218.814853 84.266754 
L 219.187637 84.284101 
L 219.265338 84.311027 
L 219.441504 84.424156 
L 219.730213 84.483762 
L 220.21792 84.527912 
L 220.511247 84.489435 
L 220.543964 84.468429 
L 220.576172 84.400478 
L 220.656253 84.385967 
L 221.352985 84.546041 
L 222.353383 84.573624 
L 222.568952 84.602934 
L 222.661128 84.637752 
L 222.756364 84.697359 
L 222.843299 84.785494 
L 223.023573 85.276857 
L 223.13164 85.370459 
L 223.174131 85.438575 
L 223.24713 85.65694 
L 223.291008 86.003932 
L 223.474596 86.430221 
L 223.589405 86.621249 
L 223.623993 86.731459 
L 223.666285 87.032246 
L 223.663481 87.110597 
L 223.624418 87.382485 
L 223.56139 87.624282 
L 223.472868 87.839399 
L 223.467769 87.90324 
L 223.495388 88.049913 
L 223.498277 88.179731 
L 223.469327 88.25685 
L 223.317806 88.44907 
L 223.295059 88.506251 
L 223.281519 88.579136 
L 223.298515 88.686962 
L 223.385621 88.832401 
L 223.471423 88.903518 
L 223.772511 89.077281 
L 223.888199 89.167513 
L 223.97267 89.2635 
L 224.25019 89.285328 
L 224.616063 89.271557 
L 224.858684 89.259512 
L 225.048277 89.290425 
L 225.148583 89.300538 
L 225.462985 89.208991 
L 225.73787 89.182353 
L 225.977489 89.209731 
L 226.389166 89.180955 
L 226.554709 89.217089 
L 226.799086 89.314761 
L 226.906021 89.322407 
L 227.368687 89.252154 
L 227.876194 89.275421 
L 228.195015 89.211704 
L 228.260337 89.170061 
L 228.307105 89.131256 
L 228.398913 88.995805 
L 228.476048 88.783318 
L 228.565249 88.685071 
L 228.663318 88.639112 
L 228.731813 88.648361 
L 228.84835 88.832319 
L 228.961998 88.936733 
L 229.117145 89.022813 
L 229.180201 89.031651 
L 229.314698 88.998313 
L 229.374695 88.963207 
L 229.531627 88.805846 
L 229.640204 88.73847 
L 229.822121 88.734852 
L 230.027378 88.825865 
L 230.09474 88.831908 
L 230.555649 88.734195 
L 230.976901 88.742951 
L 231.170148 88.693909 
L 231.404753 88.588015 
L 231.784222 88.524544 
L 231.875832 88.491864 
L 232.309349 88.228362 
L 232.838555 88.148448 
L 233.234198 88.044939 
L 233.294025 88.003666 
L 233.42416 87.844003 
L 233.49645 87.649193 
L 233.540952 87.380224 
L 233.530443 87.15968 
L 233.39773 86.878872 
L 233.276604 86.333741 
L 233.299492 86.195289 
L 233.324732 86.148714 
L 234.055966 86.083435 
L 234.179274 86.011167 
L 234.343939 85.820467 
L 234.424529 85.75786 
L 234.749072 85.580891 
L 234.903908 85.465378 
L 234.997132 85.427188 
L 235.027272 85.426901 
L 235.04271 85.499168 
L 235.175451 85.650774 
L 235.287399 85.675521 
L 235.605087 85.599636 
L 235.963453 85.602267 
L 236.062314 85.522723 
L 236.080472 85.470804 
L 236.219076 85.242696 
L 236.381163 85.327132 
L 236.40949 85.334654 
L 236.445607 85.303618 
L 236.47096 85.261359 
L 236.47385 85.165537 
L 236.588376 84.786275 
L 236.61421 84.725477 
L 236.632764 84.717008 
L 239.257945 84.052541 
L 240.602233 84.065284 
L 241.262452 84.644864 
L 241.378621 84.786645 
L 241.432301 84.851883 
L 242.442868 84.786727 
L 243.972019 84.676846 
L 246.90316 84.835769 
L 247.755436 84.51669 
L 247.89016 84.56084 
L 247.898119 85.471379 
L 248.471034 85.528725 
L 249.028142 85.962865 
L 249.460413 86.020334 
L 254.18086 88.30696 
L 256.168428 88.020315 
L 256.818533 88.159671 
L 257.019599 89.010851 
L 257.078915 89.174378 
L 257.084524 89.200687 
L 257.053421 89.331204 
L 257.061183 89.3622 
L 257.095572 89.385713 
L 257.089255 89.39114 
L 256.926573 89.582867 
L 256.926006 89.590061 
L 256.916771 89.642967 
L 256.982972 89.704094 
L 257.036482 89.783021 
L 256.939971 89.884393 
L 256.768536 89.945603 
L 256.473425 89.925994 
L 256.27726 89.854878 
L 256.068235 90.063624 
L 255.404022 90.020296 
L 255.008633 90.132068 
L 254.938552 90.555726 
L 254.712814 91.028261 
L 254.730377 91.140979 
L 254.619476 91.442547 
L 255.315302 92.228694 
L 256.015745 92.380999 
L 256.220946 92.523848 
L 258.498186 92.354566 
L 259.586907 92.071908 
L 260.218374 92.046833 
L 260.434368 92.064838 
L 260.865137 92.647172 
L 260.946945 92.786158 
L 261.091867 92.818962 
L 261.148294 92.854644 
L 261.183363 92.940107 
L 261.174638 92.990834 
L 261.332335 93.260337 
L 261.877914 93.448981 
L 261.876101 93.986262 
L 261.299334 95.193765 
L 261.492015 96.012798 
L 261.952527 96.930408 
L 262.303924 97.502507 
L 262.401964 97.739206 
L 262.566884 97.935537 
L 262.654245 97.906433 
L 262.73475 97.959051 
L 263.012129 98.330173 
L 263.283474 98.992503 
L 263.540145 99.559998 
L 263.649601 99.76488 
L 263.776393 100.062747 
L 263.840298 100.229152 
L 263.810187 100.333402 
L 263.836276 100.420797 
L 263.857606 100.437733 
L 263.92933 100.417097 
L 263.915705 100.490352 
L 263.916611 100.580542 
L 263.950434 100.677269 
L 264.070512 100.783533 
L 264.086914 100.882151 
L 264.083911 100.988291 
L 264.099378 101.036223 
L 264.243874 101.2795 
L 264.346644 101.421281 
L 264.547115 101.314071 
L 264.799792 101.007735 
L 264.9131 100.963503 
L 265.138867 100.919271 
L 265.189204 100.834712 
L 265.262826 100.799935 
L 265.303532 100.807458 
L 265.352963 100.86098 
L 265.392677 100.861885 
L 265.589352 100.73223 
L 265.69014 100.720967 
L 265.890723 100.588476 
L 266.852087 100.43465 
L 267.163259 100.27137 
L 267.050971 99.921706 
L 266.578986 99.560779 
L 266.460777 99.312775 
L 266.504457 99.113648 
L 266.446273 99.106126 
L 266.428852 99.043189 
L 266.265037 98.611968 
L 266.461173 97.878356 
L 266.127424 97.467771 
L 266.17694 97.199131 
L 266.436104 97.158845 
L 266.617907 96.376397 
L 267.374636 95.885487 
L 268.492619 96.121035 
L 268.581991 96.165144 
L 268.657766 96.289125 
L 268.946135 96.269311 
L 268.9403 96.216077 
L 268.919905 96.178216 
L 269.034487 96.003467 
L 269.284049 96.071994 
L 269.303481 96.140562 
L 269.320959 96.145289 
L 269.750199 96.010948 
L 269.73663 95.871017 
L 269.780339 95.791144 
L 270.210711 95.542401 
L 270.695444 95.444893 
L 270.736971 95.836651 
L 272.190914 95.898477 
L 272.438577 95.92939 
L 272.595849 95.749009 
L 272.927049 95.693554 
L 273.239808 95.709545 
L 273.4262 96.135094 
L 273.508745 96.174558 
L 273.525231 96.261912 
L 273.454328 96.344539 
L 273.48529 96.715579 
L 273.735729 96.779584 
L 273.929741 97.082097 
L 274.800486 97.265808 
L 274.436569 98.250917 
L 274.46246 98.667052 
L 274.598996 98.949875 
L 274.617947 99.565136 
L 275.100413 99.779185 
L 275.348926 100.289457 
L 275.440054 100.31663 
L 275.442009 100.349516 
L 275.435239 100.374879 
L 275.458524 100.419975 
L 275.489513 100.423716 
L 275.624152 100.294966 
L 275.643556 100.225452 
L 275.581406 100.182782 
L 275.603671 100.076683 
L 275.647267 100.051319 
L 275.949658 100.053087 
L 276.095061 100.130082 
L 276.096052 100.149773 
L 276.112793 100.223232 
L 276.161261 100.317 
L 276.158032 100.429512 
L 276.002969 100.499847 
L 275.999712 100.631105 
L 275.96096 100.762404 
L 275.999712 100.898347 
L 276.124351 100.898799 
L 276.183866 100.912406 
L 276.357851 101.003049 
L 276.451812 100.996472 
L 276.483793 100.938222 
L 276.578773 100.848031 
L 276.814199 100.781395 
L 277.047699 100.743864 
L 277.190184 100.656551 
L 277.421758 100.684833 
L 277.439604 100.70181 
L 277.467251 100.728037 
L 277.530251 100.731819 
L 277.821934 100.704729 
L 278.070617 101.131347 
L 278.546767 101.4695 
L 278.645911 101.965426 
L 279.17169 101.899448 
L 279.351793 101.858052 
L 279.4951 101.851434 
L 279.563906 101.87207 
L 280.022889 101.77152 
L 280.059686 101.898297 
L 280.213643 102.007274 
L 280.519179 102.136979 
L 280.523513 102.138819 
L 280.701662 102.152015 
L 280.780949 102.396319 
L 280.862276 102.40195 
L 281.002722 102.236697 
L 281.470401 102.230366 
L 281.511079 102.192835 
L 281.577987 102.05759 
L 281.698009 102.048012 
L 281.774435 102.205208 
L 281.912218 102.301976 
L 282.028416 102.317844 
L 282.114558 102.290548 
L 282.103766 102.06984 
L 282.201551 102.082912 
L 282.879417 102.290219 
L 283.004396 102.505296 
L 282.973463 102.702531 
L 282.950263 102.768304 
L 282.695801 103.066131 
L 282.662913 103.145058 
L 282.605976 103.460684 
L 282.642773 103.517989 
L 282.805285 103.413657 
L 283.036575 103.376002 
L 283.151725 103.455833 
L 283.157645 103.910446 
L 283.096714 104.159354 
L 283.060937 104.198817 
L 283.201269 104.499357 
L 283.254467 104.524721 
L 283.321177 104.526571 
L 283.346332 104.565089 
L 283.354093 104.653388 
L 283.302906 105.056369 
L 283.185009 105.341904 
L 283.072947 105.420379 
L 282.956042 105.67122 
L 282.948337 105.71911 
L 282.96284 105.760424 
L 283.202543 105.808314 
L 283.505105 105.692719 
L 283.542808 105.641046 
L 283.518617 105.570629 
L 283.788318 105.45602 
L 283.761238 105.63636 
L 283.652972 105.884364 
L 283.843358 106.031818 
L 283.957403 106.066636 
L 284.109151 106.021582 
L 284.222232 106.021623 
L 284.287923 106.077037 
L 284.347863 106.000987 
L 284.360468 105.892956 
L 284.626346 105.784102 
L 284.656288 105.801038 
L 284.672717 105.841447 
L 284.617564 105.971965 
L 284.997034 106.49161 
L 285.702944 106.286893 
L 286.448002 106.276204 
L 286.819086 106.097673 
L 287.288777 106.025364 
L 287.46752 106.241427 
L 286.992079 106.638694 
L 286.829907 107.750827 
L 286.899478 108.12088 
L 286.824213 108.470338 
L 287.06267 108.678837 
L 287.763538 108.286298 
L 289.289403 107.678025 
L 289.945089 107.731259 
L 290.374782 107.647564 
L 290.481008 107.705772 
L 290.46557 107.87859 
L 290.72142 108.334148 
L 290.699212 108.421502 
L 290.735895 108.451552 
L 290.960812 108.477861 
L 291.407813 108.276021 
L 292.0518 108.1298 
L 292.382235 107.791893 
L 292.625592 107.622734 
L 292.787878 107.72312 
L 293.202076 107.52942 
L 293.495601 107.465456 
L 293.593159 107.562141 
L 293.59704 107.613814 
L 293.710037 107.625982 
L 293.782441 107.60625 
L 293.819124 107.574309 
L 293.843259 107.541423 
L 293.931129 107.491641 
L 294.216978 107.45781 
L 294.298106 107.477541 
L 294.558828 107.473801 
L 294.910367 107.43631 
L 295.314141 107.249557 
L 295.585542 107.240308 
L 296.046367 107.019394 
L 296.476371 106.532841 
L 296.723638 106.378769 
L 297.057189 106.244387 
L 297.736103 105.342028 
L 297.941588 105.45121 
L 298.140614 105.304208 
L 298.709251 104.701402 
L 299.229732 104.344791 
L 299.213359 104.267755 
L 299.208515 104.249914 
L 299.182454 104.17888 
L 299.182454 104.115081 
L 299.205739 104.069615 
L 299.730724 103.881834 
L 299.789701 103.813225 
L 299.8776 103.64978 
L 300.046854 103.551985 
L 300.35831 103.44013 
L 300.517904 103.360216 
L 300.618465 103.185508 
L 300.787776 103.045536 
L 300.832278 103.059594 
L 300.85358 103.10654 
L 300.988077 103.109335 
L 301.274492 103.026667 
L 301.34902 102.862318 
L 301.529067 102.765591 
L 301.895874 102.699942 
L 302.11555 102.688719 
L 302.124275 102.687774 
L 302.14552 102.708451 
L 302.231614 102.728061 
L 302.236478 102.729169 
L 302.44556 102.662574 
L 302.489212 102.563998 
L 302.779734 102.334122 
L 303.036321 102.246933 
L 303.011223 102.146424 
L 303.784098 101.454825 
L 305.253224 101.025453 
L 305.539922 100.996431 
L 305.770561 100.719528 
L 306.375315 100.372372 
L 306.489444 100.591271 
L 306.669151 100.701235 
L 306.896561 100.68508 
L 307.455368 100.427498 
L 307.560972 100.463138 
L 307.68697 100.630242 
L 307.726741 100.827436 
L 307.668728 101.091349 
L 307.674535 101.115767 
L 307.728781 101.164603 
L 307.73946 101.20123 
L 307.8094 102.165621 
L 307.828889 102.720619 
L 307.768071 103.201458 
L 307.873561 103.332921 
L 308.056383 103.193894 
L 308.076694 103.025763 
L 308.067969 102.929981 
L 308.198585 102.883036 
L 308.249885 102.965663 
L 308.295379 103.094331 
L 308.495651 103.090549 
L 308.677539 103.165694 
L 308.77708 103.765787 
L 308.893136 103.924546 
L 309.196859 103.861692 
L 309.267506 103.736847 
L 309.327475 103.705852 
L 309.422257 103.74252 
L 309.468657 103.819556 
L 309.433729 104.034591 
L 309.419028 104.362345 
L 309.199493 104.494671 
L 308.887102 104.740619 
L 308.854215 104.84861 
L 308.929621 104.904969 
L 308.971177 104.903078 
L 309.071143 104.894075 
L 309.133774 104.923138 
L 309.156323 104.959519 
L 309.156323 104.981347 
L 309.149014 105.013946 
L 309.082276 105.136036 
L 309.161506 105.226186 
L 309.264928 105.260059 
L 309.453502 105.374421 
L 309.472792 105.441098 
L 309.477636 105.451457 
L 309.52684 105.588552 
L 309.527803 105.601665 
L 309.561598 105.644911 
L 309.671733 105.68347 
L 309.714082 105.941751 
L 309.885744 106.359777 
L 309.883761 106.435826 
L 310.167513 106.736531 
L 310.453276 106.587926 
L 311.524549 106.529306 
L 312.008516 106.344279 
L 313.283828 106.22075 
L 313.700519 105.87828 
L 313.885665 105.876266 
L 314.004525 105.851766 
L 314.28077 105.708916 
L 314.704033 105.643965 
L 314.729131 105.55287 
L 314.96586 105.387534 
L 315.031579 105.381861 
L 315.111801 105.490797 
L 315.14466 105.505802 
L 315.298306 105.481383 
L 315.422039 105.435384 
L 315.615314 105.473902 
L 315.712901 105.663574 
L 315.318645 106.079503 
L 315.383259 106.316819 
L 315.472234 106.415684 
L 315.684772 106.529347 
L 316.811141 106.389827 
L 316.986882 106.472577 
L 317.064214 106.396568 
L 317.139451 106.379879 
L 317.403941 106.415355 
L 317.418416 106.3881 
L 317.425186 106.374 
L 317.470538 106.311064 
L 317.581693 106.405859 
L 317.660895 106.402981 
L 317.766159 106.350322 
L 317.853038 106.278959 
L 317.928359 106.140877 
L 318.115771 106.115473 
L 318.209449 106.002755 
L 318.27225 106.009291 
L 318.336977 106.062813 
L 318.6539 106.159458 
L 318.785281 106.224244 
L 318.896379 106.341607 
L 319.038383 106.416752 
L 319.83443 106.157732 
L 320.036345 106.155018 
L 320.312534 106.350486 
L 320.406211 106.362737 
L 320.512409 106.438868 
L 320.535524 106.536541 
L 320.564474 106.587268 
L 320.630108 106.645518 
L 320.84868 106.737599 
L 320.89117 106.726295 
L 320.913294 106.626731 
L 321.043683 106.588172 
L 321.438704 106.570126 
L 321.637673 106.607616 
L 321.707216 106.593516 
L 321.728461 106.568153 
L 321.743899 106.54653 
L 321.871399 106.521166 
L 321.90712 106.374658 
L 322.10895 106.266626 
L 322.472159 106.209322 
L 322.609376 106.147372 
L 322.80064 106.154895 
L 323.014084 106.261981 
L 323.149289 106.400967 
L 323.262286 106.40664 
L 323.678722 106.231232 
L 323.952078 106.229547 
L 324.266961 106.272957 
L 324.83557 106.07457 
L 325.093488 106.030297 
L 325.328262 106.097837 
L 325.469274 106.107169 
L 325.932025 106.020719 
L 326.11363 106.03856 
L 326.45565 105.853656 
L 326.806283 105.96547 
L 327.188868 105.943107 
L 327.344411 105.886872 
L 327.385996 105.845599 
L 327.60046 105.866359 
L 327.700907 105.881487 
L 327.814159 106.018458 
L 327.914918 106.048631 
L 327.948627 106.072104 
L 327.985368 106.134958 
L 328.165074 106.188357 
L 328.862486 106.174915 
L 329.365745 106.318463 
L 329.825464 106.514712 
L 330.069757 106.707221 
L 330.167287 106.720416 
L 330.619131 106.875475 
L 330.789972 106.993866 
L 330.924809 107.51495 
L 331.031828 107.714076 
L 331.150547 107.684108 
L 331.17471 107.645632 
L 331.219098 107.664418 
L 331.519195 108.109575 
L 331.633353 108.460636 
L 331.571827 108.76393 
L 331.551771 109.021184 
L 331.60885 109.212664 
L 331.655222 109.308404 
L 331.772949 109.420958 
L 331.8183 109.428439 
L 331.877107 109.39839 
L 331.902177 109.40398 
L 332.104772 109.509956 
L 332.210913 109.639487 
L 332.357591 109.880708 
L 332.492569 109.87409 
L 332.744255 110.002634 
L 332.857988 109.822376 
L 333.314082 109.833599 
L 333.356516 109.935012 
L 333.36711 110.048593 
L 333.420138 110.140593 
L 333.678254 110.480719 
L 333.856488 110.687081 
L 333.972147 110.752812 
L 334.15429 110.794167 
L 334.19188 110.818585 
L 334.28434 110.93788 
L 334.364307 110.985812 
L 334.672675 111.039005 
L 334.837482 111.034895 
L 335.047782 111.075427 
L 335.105598 111.053804 
L 335.193185 110.891305 
L 335.776212 110.786726 
L 335.813802 110.775422 
L 335.913938 110.582009 
L 335.917932 110.419797 
L 335.916204 110.396078 
L 335.916204 110.377744 
L 335.928838 110.362041 
L 335.943285 110.35682 
L 336.027813 110.38502 
L 336.15925 110.495929 
L 336.22225 110.500698 
L 336.263041 110.464358 
L 336.483737 110.034657 
L 336.543535 109.873186 
L 336.562826 109.855345 
L 336.912863 109.767991 
L 336.953343 109.899454 
L 336.984219 109.909772 
L 337.187664 109.879763 
L 337.231061 109.864759 
L 337.259048 109.770868 
L 337.287007 109.750232 
L 337.354539 109.727705 
L 337.613929 109.742791 
L 337.70653 109.721251 
L 337.861848 109.584238 
L 338.144467 109.531826 
L 338.559543 109.517191 
L 338.704237 109.564013 
L 338.737097 109.655067 
L 338.750609 109.660699 
L 338.847997 109.63809 
L 338.912583 109.599572 
L 339.069826 109.664275 
L 339.073707 109.703698 
L 339.275254 109.695147 
L 339.288766 109.68857 
L 339.273299 109.645366 
L 339.300295 109.634102 
L 339.327319 109.647216 
L 339.360518 109.73753 
L 339.345477 109.756686 
L 339.304402 109.754466 
L 339.267606 109.798369 
L 339.275367 109.913883 
L 339.353465 109.882846 
L 339.411309 109.80396 
L 339.472014 109.770128 
L 339.500001 109.800178 
L 339.491418 110.054636 
L 339.505893 110.095949 
L 339.583027 110.063967 
L 339.725739 110.058295 
L 339.755624 110.084604 
L 339.784574 110.147499 
L 339.884852 110.216025 
L 339.915728 110.220712 
L 340.271488 110.03289 
L 340.33902 110.038522 
L 340.353438 110.073258 
L 340.383323 110.072312 
L 340.528952 110.053526 
L 340.610931 110.014104 
L 340.698688 110.002881 
L 340.752679 110.026354 
L 340.760384 110.058295 
L 340.824007 110.134344 
L 340.887629 110.170971 
L 340.953207 110.151281 
L 340.998558 110.039549 
L 341.173081 110.066845 
L 341.208717 110.166408 
L 341.281942 110.286608 
L 341.342647 110.327017 
L 341.399528 110.317644 
L 341.434285 110.265067 
L 341.501788 110.221 
L 341.614587 110.23325 
L 341.660816 110.313081 
L 341.712881 110.320645 
L 341.733135 110.307491 
L 341.736053 110.272754 
L 341.722598 110.202337 
L 341.690815 110.140346 
L 341.736166 110.093401 
L 342.078527 110.002593 
L 342.209766 110.034534 
L 342.283048 110.026025 
L 342.332167 109.967775 
L 342.388028 109.839066 
L 342.458364 109.755453 
L 342.495954 109.745135 
L 342.523007 109.790189 
L 342.548189 109.962924 
L 342.513545 110.089701 
L 342.567622 110.206118 
L 342.742173 110.280195 
L 342.937913 110.297954 
L 343.100878 110.401175 
L 343.185746 110.48076 
L 343.29574 110.627557 
L 343.327183 110.644616 
L 343.619971 110.557427 
L 343.800783 110.355587 
L 345.927068 109.878817 
L 345.855882 110.261779 
L 345.753763 110.379183 
L 344.445705 110.770324 
L 344.161471 110.997898 
L 344.122267 111.268141 
L 344.06346 111.509937 
L 343.573402 111.822809 
L 343.122577 111.865479 
L 342.905592 111.666271 
L 342.465899 111.268141 
L 342.093484 111.168577 
L 341.887659 111.296587 
L 341.740642 111.566831 
L 341.652431 111.794363 
L 341.660505 112.127501 
L 341.704667 112.355691 
L 341.668974 112.38385 
L 341.072095 112.48144 
L 340.023909 112.889559 
L 339.1143 113.549053 
L 338.893094 113.839357 
L 338.293269 114.299354 
L 337.306779 114.942076 
L 335.595231 115.65575 
L 335.096108 115.647652 
L 333.621147 116.146373 
L 333.417334 116.32474 
L 333.511493 116.608302 
L 333.330795 116.775406 
L 332.186467 117.443244 
L 331.069418 117.819012 
L 330.247056 117.975427 
L 329.418093 118.241107 
L 329.411974 118.37997 
L 329.317985 118.561831 
L 329.125503 118.548841 
L 328.961036 118.572601 
L 328.149749 118.887529 
L 327.716969 118.873552 
L 326.903643 118.993299 
L 326.394747 119.256102 
L 326.143175 119.59664 
L 324.967347 119.67606 
L 324.410749 119.817266 
L 323.074902 120.380814 
L 322.780641 120.480583 
L 322.564845 120.478363 
L 322.296078 120.597987 
L 322.103228 120.716337 
L 322.034336 120.901528 
L 320.51748 121.118865 
L 320.302506 121.235159 
L 319.521614 121.363457 
L 319.05926 121.508897 
L 318.940286 121.722986 
L 318.474221 121.92869 
L 316.24375 122.682815 
L 315.841902 123.208543 
L 314.888329 123.600137 
L 313.107039 124.609911 
L 312.015173 125.127131 
L 310.61171 125.918499 
L 306.862823 128.690938 
L 305.751723 129.678637 
L 305.677138 129.789423 
L 305.686373 129.952333 
L 305.56043 130.099335 
L 305.415169 130.216698 
L 305.171557 130.248598 
L 304.857212 130.432597 
L 302.476267 132.470233 
L 302.198067 132.746806 
L 301.838285 132.817142 
L 300.92995 133.958215 
L 300.367459 134.569859 
L 300.122459 134.655446 
L 299.501728 135.156427 
L 299.412866 135.405212 
L 298.968415 135.902741 
L 298.69775 136.011595 
L 298.314655 136.527499 
L 297.783948 137.603868 
L 297.288904 138.051944 
L 296.370825 139.047001 
L 296.044922 139.64249 
L 295.695111 140.102898 
L 295.597723 140.095129 
L 295.463254 140.191527 
L 294.959571 140.650867 
L 293.896146 141.759423 
L 293.107775 142.840848 
L 292.995799 143.085152 
L 292.531575 143.45278 
L 292.168139 143.884701 
L 291.844248 144.023522 
L 291.267792 144.507115 
L 290.326598 145.616782 
L 290.186832 145.863511 
L 289.609357 146.418015 
L 289.027208 146.544957 
L 288.769545 146.713088 
L 288.435427 147.139294 
L 286.87676 147.887622 
L 286.375626 148.760466 
L 286.107624 148.976653 
L 285.994882 148.981421 
L 285.761921 149.150662 
L 285.375228 149.530458 
L 285.082326 149.92197 
L 285.028327 150.069567 
L 284.872706 150.494931 
L 284.431407 150.789044 
L 284.428425 150.791031 
L 284.251976 150.996201 
L 283.170676 151.368268 
L 282.251491 152.288797 
L 281.112687 153.565362 
L 281.017083 153.808638 
L 280.638513 154.063724 
L 280.275595 154.308263 
L 279.731234 154.576616 
L 279.482409 154.579247 
L 279.298368 154.658174 
L 278.450341 155.351376 
L 278.111776 155.459243 
L 277.453314 156.054979 
L 277.212506 156.359177 
L 276.989082 156.502509 
L 276.13605 157.049748 
L 275.226723 157.765026 
L 274.861276 158.213102 
L 274.42453 158.419052 
L 273.136131 159.396968 
L 273.045484 159.639504 
L 272.365607 160.03821 
L 272.175997 160.261776 
L 272.13899 160.305411 
L 272.303287 160.889143 
L 272.977442 162.048385 
L 274.073728 163.470718 
L 274.371133 163.65036 
L 274.229526 163.750252 
L 273.841417 163.548823 
L 272.269266 161.892134 
L 271.739551 161.896245 
L 271.501603 161.916799 
L 270.898237 162.290881 
L 270.745271 162.492309 
L 270.74241 162.759511 
L 270.801897 162.878724 
L 270.660262 163.261027 
L 270.592277 163.293913 
L 270.408151 163.261027 
L 270.065394 163.096554 
L 269.867104 163.207546 
L 269.7368 163.228099 
L 269.447864 163.195213 
L 269.379879 163.248653 
L 269.32889 163.454193 
L 269.21275 163.602181 
L 269.093776 163.672065 
L 269.005962 163.75017 
L 268.977607 163.811831 
L 268.99177 163.984485 
L 269.18159 164.074922 
L 269.617826 164.111919 
L 269.765127 164.251686 
L 269.804785 164.317458 
L 269.816116 164.477779 
L 269.773625 164.596992 
L 269.665982 164.728537 
L 269.490326 164.781978 
L 269.351524 164.872415 
L 269.153234 165.139616 
L 269.02293 165.275272 
L 268.983272 165.36571 
L 269.076751 165.604135 
L 269.093748 165.698683 
L 269.073919 165.764456 
L 268.937949 165.891891 
L 268.787816 165.974106 
L 268.674507 165.978217 
L 268.473385 165.863115 
L 268.33175 165.850783 
L 268.130628 165.969996 
L 267.935143 166.002882 
L 267.53576 165.612357 
L 267.447946 165.67813 
L 267.269457 165.928888 
L 267.139181 165.94122 
L 267.076862 165.854893 
L 267.031539 165.665797 
L 266.915398 165.616468 
L 266.768097 165.608246 
L 266.697279 165.546543 
L 266.671785 165.443773 
L 266.663287 165.258788 
L 266.552811 165.225902 
L 266.527317 165.312228 
L 266.527317 165.424206 
L 266.527317 165.42733 
L 266.544172 167.001804 
L 266.542755 167.835965 
L 266.533436 171.973556 
L 266.522247 172.319355 
L 266.518309 173.010955 
L 266.512162 174.933488 
L 266.508763 175.390485 
L 266.508395 175.540775 
L 266.504457 179.459426 
L 266.510604 179.565566 
L 266.510009 179.758115 
L 266.507828 179.794126 
L 266.50899 180.067288 
L 266.508961 180.181897 
L 266.504231 180.442192 
L 266.502333 180.559678 
L 266.486894 182.659716 
L 266.488622 183.459881 
L 266.480153 185.289387 
L 266.483354 185.83345 
L 266.484442 186.224674 
L 266.489416 188.012744 
L 266.474147 189.471169 
L 266.475167 189.634326 
L 266.344721 189.691384 
L 266.114762 189.715186 
L 265.758606 189.843483 
L 265.516721 189.971288 
L 265.461824 190.010916 
L 265.37384 190.114467 
L 265.305203 190.249095 
L 265.222942 190.548073 
L 265.212999 190.63185 
L 265.136856 190.824523 
L 265.075074 190.92458 
L 265.070967 191.009796 
L 265.104251 191.2719 
L 265.066973 191.519205 
L 265.052838 191.564218 
L 264.993323 191.646475 
L 264.910154 191.720675 
L 264.889674 191.792038 
L 264.880751 191.91158 
L 264.890439 191.993714 
L 264.839932 192.047031 
L 264.664162 192.140428 
L 264.545869 192.153171 
L 264.246282 192.108158 
L 263.991621 191.991576 
L 263.68076 191.88856 
L 263.239482 191.597105 
L 263.17178 191.571248 
L 262.887178 191.591391 
L 262.664556 191.695312 
L 262.464227 191.819005 
L 262.276362 192.026806 
L 262.21696 192.20768 
L 262.218717 192.315218 
L 262.067563 192.599233 
L 262.010994 192.673679 
L 261.973461 192.782985 
L 261.954114 192.84921 
L 261.961535 192.983139 
L 261.873127 193.092897 
L 261.703646 193.191269 
L 261.646 193.306864 
L 261.655603 193.414361 
L 261.676679 193.452016 
L 261.741576 193.505086 
L 261.73812 193.53752 
L 261.646878 193.667421 
L 261.508841 193.768382 
L 261.412331 193.803694 
L 261.222058 193.760942 
L 261.076032 193.683659 
L 260.895787 193.696485 
L 260.568921 193.514171 
L 260.088693 193.352946 
L 260.016629 193.341189 
L 259.874427 193.38057 
L 259.776302 193.435121 
L 259.572545 193.603663 
L 259.346694 193.920194 
L 259.26803 193.96385 
L 259.229873 194.007836 
L 259.205342 194.304922 
L 259.2284 194.457844 
L 259.190782 194.655121 
L 259.169622 194.679333 
L 258.905528 194.705848 
L 258.664522 194.823416 
L 258.519261 194.825184 
L 258.358562 194.901357 
L 258.087387 195.085397 
L 257.738341 195.124778 
L 257.572089 195.235893 
L 257.501107 195.297561 
L 257.402552 195.383182 
L 257.164435 195.356174 
L 257.022715 195.459109 
L 256.979176 195.470537 
L 256.7793 195.378866 
L 256.708256 195.398104 
L 256.676756 195.423797 
L 256.671686 195.467495 
L 256.718171 195.734984 
L 256.699985 195.793192 
L 256.21817 195.797838 
L 256.121178 195.859705 
L 255.815161 196.134717 
L 255.650439 196.306342 
L 255.63231 196.353287 
L 255.66262 196.495192 
L 255.637975 196.540739 
L 255.430706 196.640673 
L 255.004129 196.948488 
L 254.882833 196.960656 
L 254.757146 197.012206 
L 254.621148 197.143587 
L 254.376827 197.468339 
L 254.011096 198.113609 
L 253.941837 198.308954 
L 253.952233 198.482717 
L 253.862691 198.957472 
L 253.842494 199.010789 
L 253.684825 199.209258 
L 253.582196 199.239595 
L 253.291051 199.460591 
L 253.227202 199.521431 
L 253.129927 199.672626 
L 253.114772 199.793113 
L 253.136725 199.891484 
L 253.222188 200.176403 
L 253.275046 200.277241 
L 253.333853 200.452319 
L 253.337592 200.643142 
L 253.303742 200.750393 
L 253.223774 200.861672 
L 253.036901 200.99519 
L 252.933932 201.10947 
L 252.808415 201.323889 
L 252.720006 201.630184 
L 252.670264 202.02075 
L 252.578258 202.385212 
L 252.180999 202.818571 
L 252.068116 202.891168 
L 252.030129 202.976796 
L 251.991123 203.071837 
L 251.863963 203.208356 
L 251.776092 203.268497 
L 251.673548 203.296122 
L 251.405744 203.51757 
L 251.32167 203.638263 
L 251.2734 203.662681 
L 251.125193 203.675753 
L 250.979762 203.789951 
L 250.922315 203.825345 
L 250.758811 203.842281 
L 250.715273 203.890583 
L 250.711052 204.022128 
L 250.699834 204.044532 
L 250.62981 204.072444 
L 250.369399 204.109894 
L 250.281869 204.176406 
L 250.182582 204.301991 
L 250.168532 204.401718 
L 250.191959 204.531167 
L 250.109442 205.033464 
L 250.159014 205.136316 
L 250.155615 205.157487 
L 250.004264 205.475785 
L 249.964521 206.039991 
L 249.906705 206.438039 
L 249.805521 206.690236 
L 249.763512 206.879373 
L 249.714676 207.243301 
L 249.676265 207.320132 
L 249.651847 207.531509 
L 249.679211 207.623138 
L 249.683063 207.761836 
L 249.646606 207.968444 
L 249.648844 208.108951 
L 249.687539 208.322671 
L 249.792321 208.570223 
L 249.804813 208.715005 
L 249.73765 208.929382 
L 249.693969 209.189266 
L 249.694564 209.345394 
L 249.783624 209.552989 
L 249.73612 210.00571 
L 249.770254 210.142805 
L 249.844273 210.228063 
L 250.129073 210.467639 
L 250.826909 210.51146 
L 250.902373 210.527081 
L 251.175077 210.652008 
L 251.482341 210.740884 
L 251.80034 210.733155 
L 252.10004 210.661956 
L 252.421836 210.495017 
L 252.546531 210.455019 
L 252.822805 210.430766 
L 252.895775 210.440755 
L 252.98611 210.494031 
L 253.14613 210.631619 
L 253.363342 210.882089 
L 253.683862 211.066376 
L 254.236495 211.555724 
L 254.273886 211.658288 
L 254.277059 211.735283 
L 254.181512 212.191252 
L 254.189415 212.472471 
L 254.21964 212.651249 
L 254.285925 212.74329 
L 254.527357 212.971315 
L 254.638512 213.110877 
L 254.912321 213.531616 
L 255.110951 213.949436 
L 255.21273 214.221118 
L 255.349436 214.385632 
L 255.535233 214.711494 
L 255.620639 214.772334 
L 256.076365 214.960855 
L 256.29114 215.081383 
L 256.315247 215.115051 
L 256.487928 215.645013 
L 256.483226 215.797359 
L 256.415694 216.139007 
L 256.384053 216.568584 
L 256.406771 216.682042 
L 256.478269 216.770136 
L 256.485832 216.812806 
L 256.44388 217.051396 
L 256.375527 217.220555 
L 256.379719 217.417914 
L 256.15129 217.518588 
L 255.992205 217.631593 
L 255.839154 217.804164 
L 255.692162 218.060907 
L 255.627947 218.173066 
L 255.5771 218.334867 
L 255.592199 218.441624 
L 255.564721 218.478375 
L 255.074494 218.855786 
L 254.898271 219.063669 
L 254.870369 219.151722 
L 254.860483 219.26148 
L 254.988804 219.723491 
L 255.005914 219.849158 
L 255.004582 219.972071 
L 254.976567 220.081336 
L 254.839521 220.376901 
L 254.692957 220.591649 
L 254.189613 221.085519 
L 254.052029 221.293689 
L 253.923764 221.448461 
L 253.684325 221.638191 
L 253.535768 221.755906 
L 253.31224 221.838739 
L 253.247002 221.918365 
L 253.222783 222.001197 
L 253.222783 222.086496 
L 253.258277 222.337706 
L 253.331729 222.502343 
L 253.483448 222.718448 
L 253.511974 222.868697 
L 253.510557 223.043159 
L 253.411696 223.245944 
L 253.306659 223.382669 
L 253.268644 223.539167 
L 253.34643 224.003357 
L 253.347762 224.323258 
L 253.396598 224.511409 
L 253.447615 224.636542 
L 253.496875 224.712756 
L 253.510586 224.810798 
L 253.445433 225.053335 
L 253.332125 225.18488 
L 253.215984 225.283539 
L 253.164996 225.378087 
L 253.079335 225.779094 
L 253.065851 225.982373 
L 253.082847 226.17558 
L 253.137688 226.28468 
L 253.49087 226.650376 
L 253.486961 226.738511 
L 253.363313 227.01007 
L 253.338725 227.201098 
L 253.340652 227.408816 
L 253.366146 227.556805 
L 253.5752 228.121997 
L 253.680944 228.738821 
L 253.681844 228.740326 
L 253.759382 228.87012 
L 253.824931 228.930302 
L 253.855609 229.01001 
L 253.854023 229.047706 
L 253.82782 229.138225 
L 253.70236 229.347341 
L 253.651059 229.399055 
L 253.434697 229.559581 
L 253.11701 229.864437 
L 252.878836 230.13542 
L 252.382603 230.525575 
L 252.368643 230.547675 
L 252.360452 230.56064 
L 252.11851 230.943643 
L 252.081344 231.022652 
L 252.060156 231.111116 
L 252.055397 231.293019 
L 252.084375 231.439157 
L 252.225303 231.717663 
L 252.332917 231.860307 
L 252.48509 232.010844 
L 252.742724 232.183045 
L 252.982173 232.410125 
L 253.14528 232.617145 
L 253.217344 232.799951 
L 253.221763 232.876124 
L 253.203945 232.954887 
L 253.045739 233.424997 
L 252.957557 233.743049 
L 252.968803 234.040958 
L 253.019366 234.284974 
L 252.982626 234.485087 
L 252.983816 234.664318 
L 253.008149 234.94455 
L 253.033643 235.03955 
L 253.071233 235.111695 
L 253.25584 235.239335 
L 253.428579 235.61802 
L 253.53625 236.201752 
L 253.540697 236.377201 
L 253.400568 237.144632 
L 253.344901 237.4495 
L 253.312495 237.541376 
L 253.288275 237.587499 
L 253.237711 237.626675 
L 252.904528 237.85429 
L 252.878496 237.907072 
L 252.862944 237.989247 
L 252.853426 238.206584 
L 252.880649 238.321686 
L 253.003673 238.610675 
L 253.158622 238.900979 
L 253.179329 238.972424 
L 253.170718 239.056202 
L 253.074519 239.276622 
L 253.017865 239.465719 
L 253.01813 239.471406 
L 253.018191 239.472714 
L 253.032822 239.786319 
L 253.126188 240.332972 
L 253.126188 240.492635 
L 253.102846 240.583894 
L 253.010358 240.714042 
L 252.928238 240.868361 
L 252.916992 240.938614 
L 252.938549 241.073037 
L 252.916992 241.140577 
L 252.696976 241.503766 
L 252.666723 241.63453 
L 252.625224 242.098103 
L 252.561686 242.33768 
L 252.460559 242.523036 
L 252.254819 242.758913 
L 252.133749 242.951174 
L 251.992851 243.321885 
L 251.934072 243.710437 
L 251.916339 244.016239 
L 251.935347 244.061704 
L 252.028316 244.141083 
L 252.061176 244.20628 
L 252.069549 244.249439 
L 252.074574 244.275342 
L 252.485203 244.593311 
L 253.104206 244.915104 
L 253.360962 245.152502 
L 253.439995 245.196158 
L 253.553303 245.222755 
L 253.919883 245.426856 
L 254.067665 245.57009 
L 254.60146 246.087459 
L 254.948467 246.388945 
L 255.07472 246.566325 
L 255.357424 246.868057 
L 255.975294 247.637432 
L 256.080415 247.740038 
L 256.227178 247.856949 
L 256.898585 248.227454 
L 257.192394 248.640342 
L 257.247745 248.837166 
L 257.247886 249.041924 
L 257.168656 249.276075 
L 257.146645 249.391383 
L 257.151886 249.4937 
L 257.20024 249.625533 
L 257.29743 249.713792 
L 257.395329 249.760655 
L 257.605742 249.731756 
L 257.765082 249.747418 
L 258.078067 249.998834 
L 258.125373 250.173049 
L 258.198485 250.239233 
L 258.241118 250.248564 
L 258.329498 250.207374 
L 258.407142 250.080926 
L 258.455355 250.035091 
L 258.57447 250.05174 
L 258.67387 250.097369 
L 258.736416 250.170089 
L 258.918559 250.450198 
L 259.230695 251.018556 
L 259.244773 251.159392 
L 259.233301 251.22944 
L 259.190895 251.334306 
L 259.181604 251.410027 
L 259.225596 251.517688 
L 259.279332 251.566853 
L 259.384539 251.599986 
L 259.49204 251.588805 
L 259.866354 251.329989 
L 260.049318 251.262326 
L 260.120702 251.263025 
L 260.284829 251.402052 
L 260.392613 251.462727 
L 260.816131 251.637929 
L 260.91063 251.632091 
L 261.073001 251.555548 
L 261.178916 251.546957 
L 261.484621 251.680146 
L 261.912473 251.809636 
L 262.319249 251.770707 
L 262.531391 251.661072 
L 262.592435 251.649316 
L 262.743334 251.697987 
L 262.887008 251.803265 
L 263.046008 251.872408 
L 263.493802 251.957378 
L 263.783899 251.981837 
L 264.371459 251.920792 
L 264.563516 251.930946 
L 264.958707 252.004364 
L 265.283137 252.133649 
L 265.484287 252.261453 
L 265.741355 252.506251 
L 265.814467 252.606061 
L 265.846457 252.669608 
L 265.90755 252.790964 
L 265.999443 253.171541 
L 266.080741 253.347524 
L 266.20623 253.538799 
L 266.219855 253.587141 
L 266.236285 253.675893 
L 266.222263 254.20561 
L 266.243395 254.341389 
L 266.387665 254.652411 
L 266.560941 254.951183 
L 266.805715 255.270057 
L 266.96378 255.436873 
L 267.369084 255.78629 
L 267.748808 256.017522 
L 267.867413 256.127773 
L 267.948825 256.23416 
L 268.081537 256.432999 
L 268.219008 256.596732 
L 268.541625 256.804245 
L 268.709321 256.881651 
L 269.269772 257.07531 
L 269.980724 257.288824 
L 270.202412 257.345964 
L 270.850676 257.450173 
L 271.277168 257.555327 
L 271.373678 257.618756 
L 271.538259 257.8044 
L 271.657544 257.891055 
L 272.044774 257.993167 
L 272.332974 258.100705 
L 272.434984 258.168912 
L 272.577606 258.264273 
L 272.757143 258.299297 
L 273.05826 258.294899 
L 273.204172 258.352244 
L 273.287369 258.407904 
L 273.493136 258.694714 
L 273.723662 258.927673 
L 274.257174 259.236557 
L 274.560953 259.30196 
L 274.629221 259.334887 
L 274.723862 259.405058 
L 274.770299 259.459313 
L 274.79958 259.493523 
L 274.974669 259.62367 
L 275.164319 259.73388 
L 275.258223 259.761464 
L 275.411189 259.764588 
L 275.514639 259.799776 
L 275.64653 259.868591 
L 275.647592 259.869453 
L 275.835358 260.021923 
L 275.950848 260.133244 
L 276.140724 260.397238 
L 276.231965 260.569316 
L 276.46674 260.890698 
L 276.837456 261.116996 
L 276.912069 261.196129 
L 277.109367 261.64326 
L 277.178315 261.83141 
L 277.25358 262.106915 
L 277.252447 262.148023 
L 277.230182 262.236899 
L 277.041297 262.531272 
L 276.95422 262.694635 
L 276.929491 262.788197 
L 276.939745 262.911685 
L 277.007956 263.076281 
L 277.062429 263.130337 
L 277.472973 263.331026 
L 277.673869 263.513627 
L 277.739276 263.615657 
L 277.760125 263.684801 
L 277.728738 263.995617 
L 277.75004 264.101511 
L 277.944817 264.381497 
L 277.981869 264.45915 
L 278.004077 264.557768 
L 277.979574 264.778682 
L 277.836296 265.241104 
L 277.843803 265.407344 
L 277.926178 265.605443 
L 278.195993 266.005464 
L 278.276328 266.15485 
L 278.306723 266.292397 
L 278.315221 266.573863 
L 278.340659 266.662368 
L 278.419663 266.720248 
L 278.64577 266.826841 
L 278.815564 266.973631 
L 279.201915 267.307639 
L 279.549629 267.495502 
L 279.643448 267.575991 
L 279.979549 268.156229 
L 280.241234 268.360658 
L 280.564021 268.563197 
L 281.1924 268.842566 
L 281.359869 269.008272 
L 281.695686 269.283859 
L 281.836528 269.366815 
L 282.434201 269.444345 
L 282.691863 269.549499 
L 282.743674 269.5951 
L 282.761406 269.610708 
L 283.002186 269.954905 
L 283.033941 270.074734 
L 283.073429 270.347526 
L 283.069888 270.583609 
L 283.09017 270.636227 
L 283.435222 270.855578 
L 283.549352 270.884847 
L 283.706085 270.861786 
L 283.825569 270.903675 
L 284.236991 271.332676 
L 284.286365 271.411727 
L 284.337948 271.581544 
L 284.449302 271.857254 
L 284.520431 271.97211 
L 284.655069 272.086184 
L 284.778972 272.272197 
L 284.868372 272.326747 
L 284.905679 272.329666 
L 284.986836 272.289874 
L 285.055387 272.30607 
L 285.189941 272.426146 
L 285.344748 272.613475 
L 285.461342 272.683399 
L 285.699544 272.786498 
L 285.838007 272.880553 
L 285.927181 272.960837 
L 286.034512 273.111949 
L 286.202576 273.470245 
L 286.359706 273.617946 
L 286.62785 273.782008 
L 286.701075 273.800753 
L 286.891886 273.80174 
L 287.296368 273.866937 
L 287.635613 273.993919 
L 288.010946 274.026517 
L 288.279005 274.026517 
L 288.766061 274.127355 
L 288.906506 274.214668 
L 289.109753 274.392254 
L 289.509674 274.572759 
L 289.576866 274.577486 
L 289.860873 274.51788 
L 290.00129 274.535926 
L 290.175133 274.648562 
L 290.652217 274.84588 
L 290.741617 274.909145 
L 290.87923 275.038018 
L 290.954127 275.158834 
L 291.043584 275.380323 
L 291.073015 275.519556 
L 291.086981 275.552072 
L 291.116837 275.621586 
L 291.446649 276.0006 
L 291.50149 276.104151 
L 291.591004 276.340275 
L 291.630208 276.390385 
L 291.939681 276.576193 
L 292.203151 276.788721 
L 292.504636 277.197744 
L 292.745416 277.478347 
L 292.799407 277.584364 
L 292.841728 277.926423 
L 293.006478 278.310042 
L 293.025882 278.33746 
L 293.169019 278.420457 
L 293.280825 278.526557 
L 293.322466 278.604251 
L 293.433961 278.907504 
L 293.552765 279.1144 
L 293.835979 279.288245 
L 294.049508 279.491482 
L 294.1995 279.766206 
L 294.263887 280.01495 
L 294.321844 280.35927 
L 294.596305 280.682624 
L 294.666755 280.804304 
L 294.725561 280.861444 
L 294.888074 280.961418 
L 295.082511 281.194418 
L 295.14398 281.372291 
L 295.265022 281.577707 
L 295.320486 282.106972 
L 295.396969 282.365951 
L 295.425296 282.563269 
L 295.555629 282.957905 
L 295.64061 283.114115 
L 295.697264 283.451199 
L 295.957624 283.812474 
L 296.215677 284.170546 
L 296.220776 284.237182 
L 295.895695 285.395191 
L 295.910652 285.861478 
L 295.881503 286.01292 
L 295.829341 286.185087 
L 295.801508 286.276956 
L 295.72899 286.438756 
L 295.581067 286.666617 
L 295.526764 286.836105 
L 295.545544 287.418686 
L 295.405354 288.201504 
L 295.390879 288.612007 
L 295.433454 289.092723 
L 295.461272 289.168731 
L 295.623189 289.330655 
L 295.65704 289.391454 
L 295.698369 289.634072 
L 295.676245 289.780293 
L 295.526707 290.226355 
L 295.518464 290.719814 
L 295.622056 290.940604 
L 295.720067 291.096897 
L 295.81536 291.207518 
L 295.966654 291.335816 
L 296.358049 291.771683 
L 296.488637 291.94561 
L 296.539399 292.027661 
L 296.56325 292.097997 
L 296.573873 292.353976 
L 296.536425 292.796009 
L 296.490535 292.92184 
L 296.314426 293.200798 
L 296.241767 293.376452 
L 296.2246 293.441896 
L 296.216867 293.586185 
L 296.242645 293.804509 
L 296.425581 294.107844 
L 296.53277 294.476294 
L 296.615315 294.573802 
L 296.825332 294.726024 
L 296.947733 294.868175 
L 296.974332 294.948747 
L 296.959517 295.128388 
L 296.964333 295.438917 
L 296.142594 295.441466 
L 295.715818 295.420706 
L 292.669414 295.42753 
L 292.604744 295.42268 
L 292.453421 295.441713 
L 291.876427 295.425064 
L 290.616808 295.443521 
L 290.499364 295.437355 
L 290.061117 295.435135 
L 289.95744 295.436533 
L 289.221531 295.433162 
L 288.010153 295.438506 
L 287.800137 295.440356 
L 287.522503 295.439369 
L 286.387948 295.439493 
L 285.828246 295.439739 
L 285.82645 295.439739 
L 285.701867 295.438917 
L 285.656487 295.434272 
L 285.641984 295.433285 
L 285.546295 295.433696 
L 285.409589 295.431641 
L 285.165041 295.441836 
L 285.157931 295.44348 
L 285.125893 295.442494 
L 285.008449 295.437972 
L 284.862508 295.43978 
L 284.679176 295.442864 
L 284.480745 295.439616 
L 284.127478 295.440438 
L 283.281151 295.437643 
L 282.446398 295.433593 
L 282.442387 295.433573 
L 282.358228 295.435916 
L 282.266788 295.438465 
L 282.213306 295.439945 
L 281.562691 295.435341 
L 281.101696 295.432299 
L 281.056316 295.428517 
L 280.330153 295.432093 
L 280.266955 295.434889 
L 279.765793 295.433409 
L 279.026679 295.434601 
L 276.45184 295.438753 
L 276.224034 295.441589 
L 272.5437 295.434938 
L 272.539393 295.43493 
L 272.255669 295.433409 
L 271.86147 295.431312 
L 269.737593 295.432217 
L 269.173177 295.439863 
L 266.945623 295.44237 
L 266.898628 295.443603 
L 264.354179 295.442864 
L 263.804918 295.441671 
L 263.29979 295.441959 
L 263.22325 295.436286 
L 262.086888 295.444254 
L 261.646199 295.447344 
L 259.13577 295.449193 
L 259.134836 295.449194 
L 256.414505 295.459512 
L 256.297684 295.459471 
L 255.752048 295.459266 
L 255.285983 295.458978 
L 255.179672 295.458937 
L 254.768193 295.45869 
L 253.499821 295.458073 
L 252.416907 295.479326 
L 250.151876 295.480107 
L 246.254244 295.477805 
L 245.78751 295.479114 
L 245.785205 295.479121 
L 245.083742 295.479146 
L 241.685035 295.479266 
L 239.99425 295.479326 
L 238.777915 295.488 
L 235.173723 295.482697 
L 234.338812 295.482985 
L 233.2042 295.48319 
L 233.084065 295.486191 
L 232.823315 295.48282 
L 232.646214 295.485492 
L 232.388751 295.483899 
L 232.387191 295.483889 
L 231.506872 295.483273 
L 231.402175 295.483231 
L 230.65284 295.481217 
L 230.140205 295.481258 
L 228.995707 295.480107 
L 228.10618 295.479668 
L 226.666827 295.478956 
L 226.509017 295.479285 
L 226.399817 295.47945 
L 226.188893 295.479491 
L 224.707928 295.480069 
L 223.977458 295.480354 
L 223.93474 295.481258 
L 218.978442 295.477764 
L 215.518746 295.449112 
L 215.477814 295.449112 
L 215.088912 295.449194 
L 215.037583 295.449893 
L 211.126032 295.447857 
L 207.457662 295.445947 
L 207.085699 295.442247 
L 205.605951 295.437561 
L 205.605587 295.437554 
L 205.486609 295.435259 
L 204.824549 295.44755 
L 202.263274 295.446029 
L 202.12654 295.447961 
L 200.703077 295.439164 
L 193.943136 295.436285 
L 193.84932 295.436245 
L 193.783459 295.439082 
L 193.428437 295.438342 
L 193.385663 295.438629 
L 193.015825 295.44089 
L 192.244423 295.443028 
L 192.241285 295.443028 
L 192.233602 295.443028 
L 192.232185 295.443028 
L 191.674992 295.441384 
L 191.112644 295.442329 
L 190.549445 295.440644 
L 189.980043 295.440027 
L 189.419593 295.42568 
L 188.859992 295.428188 
L 188.307501 295.429915 
L 188.285265 295.426174 
L 186.56907 295.434108 
L 186.349281 295.43049 
L 185.434232 295.443069 
L 185.084167 295.429832 
L 185.067255 295.425146 
L 184.712261 295.429709 
L 183.734553 295.425146 
L 182.887404 295.412361 
L 182.719765 295.444837 
L 182.713901 295.442452 
L 179.207919 295.448619 
L 179.192849 295.44829 
L 178.838248 295.451654 
L 178.837543 295.451661 
L 178.836438 295.451661 
L 177.523536 295.448619 
L 177.520873 295.446728 
L 176.950366 295.435047 
L 176.942633 295.434889 
L 176.942633 295.438383 
L 176.365923 295.447755 
L 176.03529 295.450263 
L 176.03342 295.451414 
L 175.241084 295.467076 
L 168.838067 295.465884 
L 168.816651 295.466007 
L 166.558759 295.462965 
L 166.186428 295.462924 
L 165.435062 295.462924 
L 165.429218 295.462924 
L 159.990127 295.45429 
L 155.873599 295.447755 
L 155.86561 295.448701 
L 155.58098 295.445453 
L 152.089728 295.444467 
L 151.551599 295.447838 
L 148.656547 295.445494 
L 148.653941 291.883496 
L 148.653062 291.83651 
L 148.653827 291.04062 
L 148.652949 290.941961 
L 148.652354 288.267317 
L 148.653147 287.66595 
L 148.655952 283.481249 
L 148.661419 282.918565 
L 148.656445 281.094272 
L 148.656444 281.094077 
L 148.656433 281.090045 
L 148.654422 279.962661 
L 148.6553 279.898779 
L 148.658728 279.896025 
L 148.653941 276.99907 
L 148.655725 276.929515 
L 148.659238 276.283053 
L 148.65564 276.256744 
L 148.652893 275.80949 
L 148.656462 275.718354 
L 148.65462 275.200641 
L 148.655499 275.124509 
L 148.660626 274.624925 
L 148.66241 274.542257 
L 148.653346 273.931517 
L 148.652439 273.862908 
L 148.655045 273.410022 
L 148.658615 273.331095 
L 148.670305 266.818373 
L 148.670314 266.813645 
L 148.673175 264.442008 
L 148.68037 264.413808 
L 148.681786 263.850918 
L 148.681899 263.727388 
L 148.674761 263.286301 
L 148.678075 263.163594 
L 148.682778 262.69817 
L 148.685469 262.630507 
L 148.681786 262.079003 
L 148.685214 262.025933 
L 148.681701 261.506781 
L 148.683486 261.420332 
L 148.685214 260.90451 
L 148.687933 260.839683 
L 148.683599 260.711714 
L 148.684251 260.320161 
L 148.686205 260.102618 
L 148.688443 259.13535 
L 148.690171 258.88825 
L 148.694392 256.756436 
L 148.697451 255.981429 
L 148.686063 255.550988 
L 148.688783 255.461784 
L 148.692975 254.072091 
L 148.691956 253.657724 
L 148.685554 253.249029 
L 148.691786 252.564089 
L 148.692516 252.559741 
L 148.695411 252.542508 
L 148.70017 248.980509 
L 148.699009 248.960531 
L 148.699022 248.954135 
L 148.705184 246.003188 
L 148.713994 245.376704 
L 148.704334 243.644623 
L 148.709802 243.592087 
L 148.703003 243.00001 
L 148.697253 242.41299 
L 148.695411 242.337845 
L 148.697083 242.116191 
L 148.704731 241.796495 
L 148.704716 241.792323 
L 148.691984 238.318274 
L 148.696403 237.636212 
L 148.690907 237.470835 
L 148.682409 235.331622 
L 148.689633 234.72565 
L 148.689631 234.724887 
L 148.68544 232.0589 
L 148.687225 231.736696 
L 148.68629 231.678446 
L 148.686035 229.942296 
L 148.691502 229.888773 
L 148.680398 228.756703 
L 148.682239 228.699399 
L 148.683627 226.459348 
L 148.68765 225.450313 
L 148.687933 225.378786 
L 148.683316 225.208722 
L 148.665396 222.744757 
L 148.665356 222.739248 
L 148.669832 222.113545 
L 148.662014 221.544817 
L 148.632922 221.403776 
L 148.552275 221.317203 
L 148.52848 221.154498 
L 148.411518 220.896587 
L 148.277417 220.761836 
L 148.238241 220.701941 
L 148.217591 220.621986 
L 148.203711 220.442057 
L 148.171396 220.373635 
L 147.918259 219.837648 
L 147.826678 219.565144 
L 147.642297 219.121261 
L 147.275716 218.775872 
L 147.102185 218.678899 
L 146.715379 218.357723 
L 146.455988 218.240565 
L 146.207334 218.164804 
L 146.030261 218.135535 
L 145.572241 217.928351 
L 145.311009 217.772922 
L 145.098131 217.673277 
L 144.931427 217.533099 
L 144.46641 217.225776 
L 143.997711 217.023895 
L 143.615919 216.976786 
L 143.349078 216.977238 
L 143.14331 216.940282 
L 142.73625 216.986117 
L 142.508416 216.923058 
L 142.362645 216.936582 
L 142.220811 216.924949 
L 142.127361 216.881498 
L 141.878422 216.643812 
L 141.610307 216.277582 
L 141.361595 215.838426 
L 140.9802 215.240224 
L 140.777775 215.012569 
L 140.739732 214.941986 
L 140.623648 214.611561 
L 140.578069 214.335152 
L 140.462977 214.120404 
L 140.435301 214.04123 
L 140.429721 213.885431 
L 140.378619 213.709777 
L 140.169622 213.156835 
L 139.950767 212.63345 
L 139.817941 212.365467 
L 139.37162 211.767019 
L 139.263213 211.547996 
L 139.008921 211.160595 
L 138.859864 211.016676 
L 138.77814 210.967799 
L 137.830204 209.70517 
L 137.589254 209.381487 
L 137.578575 209.366195 
L 137.433824 209.178373 
L 137.314794 209.040127 
L 137.198511 208.889878 
L 137.229501 208.763306 
L 137.350316 208.524922 
L 137.372156 208.336977 
L 137.582059 207.507789 
L 137.680212 207.273022 
L 137.821196 207.094038 
L 137.909293 207.009027 
L 138.057472 206.953491 
L 138.093391 206.908395 
L 138.830007 206.325033 
L 139.942977 205.537283 
L 140.04756 205.395913 
L 140.240864 205.074243 
L 140.389978 204.959388 
L 141.351086 204.302278 
L 142.029037 203.958205 
L 142.441451 203.694909 
L 142.726704 203.434039 
L 143.020427 203.099955 
L 143.311771 202.563004 
L 143.375677 202.335718 
L 143.402843 202.139593 
L 143.461763 201.994441 
L 143.635521 201.687981 
L 143.666284 201.562438 
L 143.712967 201.479071 
L 143.78183 201.409804 
L 143.984425 201.280767 
L 144.145408 201.141863 
L 144.283955 200.951616 
L 144.447062 200.652638 
L 144.593202 200.428271 
L 144.692006 200.343096 
L 144.865453 200.237366 
L 144.978988 200.090241 
L 145.073742 199.85198 
L 145.137648 199.552385 
L 145.136231 199.354163 
L 145.164275 199.271331 
L 145.221694 199.141718 
L 145.265119 198.381057 
L 145.224527 198.240962 
L 145.217445 198.166721 
L 145.296647 197.959948 
L 145.274552 197.769701 
L 145.311292 197.350441 
L 145.384433 197.292931 
L 145.398341 197.164223 
L 145.4048 196.85616 
L 145.397378 196.683301 
L 145.427037 196.580902 
L 145.507712 196.415566 
L 145.475957 196.355219 
L 145.447829 196.314399 
L 145.433779 196.157943 
L 145.447036 196.106599 
L 145.519553 195.998526 
L 145.51063 195.936289 
L 145.504936 195.723268 
L 145.528901 195.353749 
L 145.561392 195.278028 
L 145.595129 194.925816 
L 145.572439 194.84101 
L 145.496863 194.732856 
L 145.339733 194.18834 
L 145.282116 193.50447 
L 145.279311 193.120275 
L 145.247528 192.59689 
L 145.234526 192.509535 
L 145.183396 192.362986 
L 145.228861 192.011678 
L 145.163556 191.793779 
L 145.142435 191.723306 
L 145.12473 191.587074 
L 145.246423 191.133367 
L 145.454599 190.578205 
L 145.606149 190.413814 
L 145.653568 190.296369 
L 145.720533 190.026783 
L 145.728918 189.858652 
L 145.688014 189.766612 
L 145.687079 189.728094 
L 145.788518 189.23965 
L 145.736453 189.120355 
L 145.72719 188.694806 
L 145.690931 188.480634 
L 145.656514 188.374493 
L 145.542979 188.252362 
L 145.470802 188.089245 
L 145.436894 187.974678 
L 145.55329 187.913016 
L 145.546718 187.778922 
L 145.348996 187.60446 
L 145.308885 187.523724 
L 145.347353 187.469585 
L 145.370609 187.196259 
L 145.214131 186.807378 
L 145.140565 186.733178 
L 145.081872 186.624243 
L 145.054819 186.474898 
L 145.131104 185.999567 
L 145.124391 185.874352 
L 145.105468 185.780133 
L 145.051335 185.736929 
L 144.986409 185.666264 
L 144.959329 185.557 
L 144.972218 185.532705 
L 144.939047 185.410655 
L 144.906414 185.403009 
L 144.875481 185.403174 
L 144.85653 185.367862 
L 144.851119 185.336456 
L 144.851119 185.289305 
L 144.85653 185.242195 
L 144.86194 185.179383 
L 144.853839 185.14403 
L 144.824067 185.077271 
L 144.823359 184.894094 
L 144.847579 184.805753 
L 144.848428 184.665 
L 144.926753 184.584058 
L 144.945364 184.550267 
L 144.964909 184.42719 
L 144.942531 184.299427 
L 144.927603 184.290054 
L 144.875339 184.062769 
L 144.73631 183.722766 
L 144.622492 183.654239 
L 144.569237 183.330185 
L 144.538219 182.759073 
L 144.553119 182.697987 
L 144.66317 182.606851 
L 144.71583 182.576143 
L 144.753731 182.529034 
L 144.772654 182.501533 
L 144.780783 182.470126 
L 144.772654 182.434773 
L 144.756422 182.407313 
L 144.713138 182.383717 
L 144.664444 182.344459 
L 144.653623 182.277741 
L 144.677956 182.210982 
L 144.680676 182.140276 
L 144.653623 182.073558 
L 144.615722 182.006799 
L 144.531845 181.975393 
L 144.507512 181.916485 
L 144.525698 181.851617 
L 144.589859 181.67847 
L 144.641074 181.381589 
L 144.627053 181.317708 
L 144.545386 181.178311 
L 144.534565 181.123349 
L 144.550796 181.052685 
L 144.610311 180.930965 
L 144.610963 180.748487 
L 144.585723 180.694964 
L 144.518333 180.652171 
L 144.491281 180.589358 
L 144.537256 180.451934 
L 144.523744 180.393027 
L 144.492187 180.342752 
L 144.461311 180.189666 
L 144.54989 179.843003 
L 144.545187 179.764117 
L 144.470376 179.555618 
L 144.506606 179.110337 
L 144.470149 179.079383 
L 144.271095 179.020311 
L 144.084108 178.821267 
L 143.93355 178.709577 
L 143.920434 178.659795 
L 143.985785 178.538568 
L 143.910916 178.402418 
L 143.691892 178.321765 
L 143.667644 178.282301 
L 143.672374 178.194947 
L 143.605098 178.14981 
L 143.359191 178.238891 
L 143.243956 178.225613 
L 143.197953 178.158854 
L 143.16008 177.954671 
L 143.187132 177.8526 
L 143.181722 177.789788 
L 143.063145 177.742719 
L 142.936013 177.647801 
L 142.856612 177.460842 
L 142.844516 177.342493 
L 142.629457 177.294191 
L 142.59657 177.257523 
L 142.522778 176.879906 
L 142.54153 176.658211 
L 142.275964 176.05039 
L 142.214211 175.945153 
L 142.176791 175.926367 
L 142.096739 175.960034 
L 142.004733 175.924723 
L 141.983091 175.861869 
L 141.998048 175.798604 
L 141.9804 175.708742 
L 141.828878 175.661632 
L 141.763925 175.606671 
L 141.755823 175.555615 
L 141.769335 175.488856 
L 141.755823 175.426043 
L 141.726051 175.398542 
L 141.628663 175.402488 
L 141.601582 175.31612 
L 141.601582 175.26897 
L 141.634073 175.159047 
L 141.620533 175.07268 
L 141.57994 175.037327 
L 141.493373 175.025529 
L 141.469012 175.00592 
L 141.4555 174.903808 
L 141.409497 174.797791 
L 141.333722 174.762479 
L 141.228203 174.762479 
L 141.155148 174.676071 
L 141.138917 174.605406 
L 141.158179 174.521258 
L 141.201491 174.416598 
L 141.195741 174.307004 
L 141.1822 174.271651 
L 141.152457 174.248096 
L 141.130815 174.149931 
L 141.141636 174.114619 
L 141.225427 174.034294 
L 141.246163 173.817861 
L 141.226447 173.649319 
L 141.172739 173.598263 
L 141.088863 173.452988 
L 141.064501 173.370525 
L 141.075351 173.311659 
L 141.0564 173.284158 
L 141.032039 173.256656 
L 140.967113 173.240953 
L 140.910289 173.201695 
L 140.904737 173.106695 
L 140.6722 173.005364 
L 140.637018 172.954349 
L 140.639709 172.903293 
L 140.674891 172.801222 
L 140.661379 172.758018 
L 140.615376 172.714813 
L 140.591015 172.636297 
L 140.596425 172.557781 
L 140.687865 172.37407 
L 140.715002 172.25198 
L 140.661549 172.222875 
L 140.599145 172.106211 
L 140.65053 171.933435 
L 140.65053 171.878473 
L 140.574783 171.752848 
L 140.643193 171.583812 
L 140.607473 171.412885 
L 140.577248 171.077568 
L 140.476828 170.944255 
L 140.411081 170.781057 
L 140.411081 170.714298 
L 140.470625 170.623984 
L 140.467905 170.553319 
L 140.392159 170.474762 
L 140.38944 170.447302 
L 140.392159 170.423747 
L 140.448983 170.372691 
L 140.454393 170.34519 
L 140.432723 170.294175 
L 140.354257 170.235268 
L 140.411081 170.078195 
L 140.405671 170.027139 
L 140.340745 169.874012 
L 140.302872 169.81905 
L 140.283921 169.748386 
L 140.302872 169.67768 
L 140.346156 169.642369 
L 140.40839 169.426388 
L 140.351566 169.092674 
L 140.302872 169.021968 
L 140.205455 168.998414 
L 140.172993 168.951304 
L 140.164863 168.892396 
L 140.191915 168.758919 
L 140.172993 168.735364 
L 140.097218 168.731418 
L 140.053934 168.703958 
L 140.062064 168.609697 
L 140.024191 168.566493 
L 139.915953 168.499775 
L 139.899722 168.448719 
L 139.915953 168.315201 
L 139.894311 168.275943 
L 139.858024 168.249263 
L 139.780663 168.111059 
L 139.677836 168.103207 
L 139.61495 168.021772 
L 139.614638 167.965783 
L 139.6141 167.874318 
L 139.633192 167.791034 
L 139.625091 167.767479 
L 139.549316 167.720369 
L 139.524983 167.645759 
L 139.568267 167.480834 
L 139.543906 167.425872 
L 139.443798 167.36306 
L 139.430286 167.292354 
L 139.451928 167.233488 
L 139.427566 167.170634 
L 139.289585 167.139227 
L 139.273354 166.982195 
L 139.292276 166.903638 
L 139.284175 166.848677 
L 139.265224 166.81727 
L 139.264581 166.81689 
L 139.119113 166.730903 
L 139.08665 166.664143 
L 139.102882 166.511016 
L 139.129821 166.42062 
L 139.134551 166.315384 
L 139.098916 166.008185 
L 138.926008 165.833435 
L 138.867767 165.639899 
L 138.880968 165.342155 
L 139.006825 165.181916 
L 139.044726 165.060196 
L 139.012235 164.946327 
L 139.023084 164.86777 
L 139.033905 164.844215 
L 139.147525 164.804957 
L 139.179988 164.746049 
L 139.169847 164.661203 
L 139.278056 164.530685 
L 139.281852 164.460226 
L 139.257406 164.424545 
L 139.204349 164.400538 
L 139.179988 164.278817 
L 139.207069 164.212058 
L 139.212479 164.086432 
L 139.179988 163.897952 
L 139.092032 163.794196 
L 139.083591 163.762255 
L 139.225793 163.388461 
L 139.244597 163.24269 
L 139.266385 163.07378 
L 139.403828 162.974299 
L 139.422156 162.788738 
L 139.403233 162.718033 
L 139.35723 162.678775 
L 139.279756 162.560014 
L 139.355162 162.387197 
L 139.366522 162.233165 
L 139.270634 162.144783 
L 139.251712 162.015211 
L 139.271569 161.915607 
L 139.303097 161.846381 
L 139.297687 161.732512 
L 139.189477 161.583291 
L 139.189477 161.512626 
L 139.227351 161.410514 
L 139.270634 161.394811 
L 139.297687 161.343796 
L 139.243582 161.269185 
L 139.240891 161.198521 
L 139.278764 161.163168 
L 139.278764 161.139613 
L 139.259814 161.088557 
L 139.157015 160.986486 
L 139.143474 160.900078 
L 139.170527 160.782303 
L 139.151604 160.727342 
L 139.059598 160.695936 
L 139.048777 160.67234 
L 139.043367 160.601675 
L 139.08665 160.47605 
L 139.075829 160.393587 
L 139.029826 160.311125 
L 138.976643 160.256703 
L 138.942211 160.221469 
L 138.919634 160.151955 
L 138.954646 159.485062 
L 138.933911 159.447489 
L 138.793465 159.377935 
L 138.762362 159.331894 
L 138.777404 159.293129 
L 138.824229 159.250541 
L 138.853235 159.170957 
L 138.837721 159.05543 
L 138.829894 158.997152 
L 138.892213 158.886161 
L 139.073535 158.660068 
L 139.135345 158.677703 
L 139.184067 158.662 
L 139.194888 158.610944 
L 139.127243 158.477466 
L 139.135345 158.442114 
L 139.248993 158.406802 
L 139.300406 158.328245 
L 139.308508 158.265432 
L 139.286866 158.206524 
L 139.292276 158.151563 
L 139.305817 158.128008 
L 139.389693 158.112305 
L 139.419465 158.073047 
L 139.419465 158.010234 
L 139.395104 157.939529 
L 139.408644 157.861013 
L 139.460029 157.766793 
L 139.460029 157.719643 
L 139.427566 157.680385 
L 139.376153 157.65683 
L 139.34369 157.60972 
L 139.346409 157.484053 
L 139.368051 157.429092 
L 139.370742 157.374131 
L 139.362641 157.319169 
L 139.321221 157.236482 
L 139.319357 157.232761 
L 139.319357 157.150339 
L 139.379495 157.044569 
L 139.42074 156.816996 
L 139.421986 156.682819 
L 139.390826 156.637601 
L 139.362499 156.543053 
L 139.390826 156.510166 
L 139.525874 156.550996 
L 139.526796 156.551274 
L 139.648602 156.621158 
L 139.691093 156.617047 
L 139.727918 156.534831 
L 139.759078 156.366289 
L 139.739249 156.32107 
L 139.691093 156.32107 
L 139.631606 156.349846 
L 139.58345 156.32107 
L 139.498469 155.872994 
L 139.58345 155.548242 
L 139.671264 155.416696 
L 139.756245 155.482469 
L 139.807262 155.48658 
L 139.866749 155.305705 
L 139.854965 155.180573 
L 139.886181 155.000561 
L 139.989008 154.9456 
L 139.986289 154.890639 
L 139.955475 154.851512 
L 139.943005 154.835678 
L 139.929465 154.780716 
L 139.940286 154.713957 
L 139.980879 154.6354 
L 139.918644 154.572587 
L 139.910542 154.529424 
L 139.910542 154.490125 
L 139.959237 154.376256 
L 139.959237 154.321295 
L 139.917738 154.269786 
L 139.875247 154.253343 
L 139.538155 154.425996 
L 139.393659 154.532877 
L 139.312587 154.647198 
L 139.255763 154.6354 
L 139.207069 154.505828 
L 139.106932 154.486219 
L 139.08801 154.46657 
L 139.071779 154.411609 
L 139.073563 154.286188 
L 139.116054 154.146422 
L 139.073563 153.866888 
L 139.036596 153.803006 
L 138.898615 153.787303 
L 138.852612 153.748045 
L 138.869608 153.516484 
L 138.845587 153.461893 
L 138.836976 153.259971 
L 138.870203 153.129618 
L 138.853972 153.058954 
L 138.797148 152.984343 
L 138.756555 152.984343 
L 138.556425 153.067915 
L 138.280406 152.921859 
L 138.215424 152.842973 
L 138.210013 152.772308 
L 138.265776 152.536355 
L 138.270888 152.514726 
L 138.195198 151.989203 
L 138.137638 151.858973 
L 138.141263 151.74124 
L 138.17755 151.665067 
L 138.177805 151.585359 
L 138.092314 151.506021 
L 138.055744 151.517696 
L 137.933683 151.404978 
L 137.865046 151.30969 
L 137.854225 151.266526 
L 137.856917 151.219417 
L 137.885357 151.16832 
L 137.919378 150.959738 
L 137.898557 150.925002 
L 137.998807 150.69858 
L 138.087782 150.630012 
L 138.284428 150.559758 
L 138.324993 150.492999 
L 138.308761 150.441943 
L 138.233015 150.351629 
L 138.222194 150.288816 
L 138.227604 150.233855 
L 138.30066 150.178894 
L 138.308761 150.123933 
L 138.303351 150.037524 
L 138.251937 149.959008 
L 138.243836 149.880492 
L 138.30066 149.648808 
L 138.287119 149.409313 
L 138.195141 149.287593 
L 138.141008 149.130519 
L 138.151829 149.055909 
L 138.205962 149.032354 
L 138.230295 148.997001 
L 138.216783 148.938135 
L 138.168996 148.874458 
L 138.151829 148.67899 
L 138.16265 148.635786 
L 138.233015 148.576878 
L 138.243836 148.549418 
L 138.222194 148.447306 
L 138.282644 148.370065 
L 138.294003 148.247933 
L 138.261767 148.208511 
L 138.249473 148.14652 
L 138.295249 147.983979 
L 138.251937 147.893665 
L 138.265478 147.826947 
L 138.314172 147.74839 
L 138.308761 147.559951 
L 138.270888 147.501044 
L 138.268169 147.438231 
L 138.319582 147.300766 
L 138.324993 147.226197 
L 138.30066 147.179046 
L 138.222845 147.125482 
L 138.191572 147.077592 
L 138.205792 146.993033 
L 138.250351 146.90946 
L 138.234204 146.826792 
L 138.059852 146.645054 
L 138.049031 146.590093 
L 138.077754 146.533734 
L 138.113786 146.513098 
L 138.131717 146.44675 
L 138.141093 146.35549 
L 138.051722 146.260285 
L 138.019259 146.177822 
L 138.051722 146.044304 
L 138.051722 145.969734 
L 138.024358 145.837038 
L 137.940793 145.745902 
L 137.916432 145.675237 
L 137.981386 145.54957 
L 137.981386 145.478906 
L 137.954333 145.439648 
L 137.95035 145.396279 
L 137.948923 145.38074 
L 138.040901 145.255114 
L 138.191232 145.161676 
L 138.199759 145.133517 
L 138.191204 145.102522 
L 138.135598 145.046985 
L 138.130188 145.015579 
L 138.146419 144.960618 
L 138.200552 144.893858 
L 138.208653 144.799639 
L 138.141008 144.717177 
L 138.146419 144.560103 
L 138.122086 144.501237 
L 137.994898 144.391273 
L 137.989487 144.336312 
L 138.000308 144.297054 
L 138.070672 144.179239 
L 138.078774 144.120331 
L 138.070672 144.069316 
L 138.032799 144.022207 
L 137.973256 143.994705 
L 137.943512 143.955447 
L 137.916432 143.87689 
L 137.913741 143.841579 
L 137.951614 143.739467 
L 137.948923 143.700209 
L 137.897509 143.625598 
L 137.791991 143.566731 
L 137.751398 143.511729 
L 137.735167 143.448916 
L 137.740577 143.378252 
L 137.76763 143.315439 
L 137.905611 143.20157 
L 137.924562 143.162312 
L 137.886688 143.095553 
L 137.837966 143.056295 
L 137.829864 143.016996 
L 137.881278 142.934574 
L 137.889379 142.89137 
L 137.883969 142.836409 
L 137.800092 142.698985 
L 137.824454 142.569413 
L 137.816324 142.498707 
L 137.748679 142.455544 
L 137.721627 142.380933 
L 137.735167 142.333824 
L 137.824454 142.27097 
L 137.824454 142.243509 
L 137.775731 142.159773 
L 137.770349 142.05503 
L 137.813633 141.964716 
L 137.889379 141.921511 
L 137.90833 141.874402 
L 137.901163 141.81718 
L 137.882946 141.79874 
L 137.76763 141.682017 
L 137.751398 141.642759 
L 137.751398 141.599554 
L 137.778451 141.544593 
L 137.846096 141.454279 
L 137.851506 141.383615 
L 137.832555 141.289354 
L 137.697294 141.179432 
L 137.686473 141.148025 
L 137.705395 141.081266 
L 137.699985 141.053765 
L 137.653982 140.971344 
L 137.672932 140.928139 
L 137.681034 140.845677 
L 137.664802 140.794621 
L 137.629649 140.778918 
L 137.626929 140.731808 
L 137.643161 140.676847 
L 137.705395 140.649346 
L 137.729756 140.578681 
L 137.708115 140.535477 
L 137.629649 140.50407 
L 137.610698 140.464812 
L 137.63775 140.347038 
L 137.691345 140.258862 
L 137.695112 140.197817 
L 137.659845 139.907595 
L 137.585543 139.663414 
L 137.590246 139.538487 
L 137.90292 139.06698 
L 137.90292 138.960962 
L 137.822159 138.805821 
L 137.785051 138.783294 
L 137.672932 138.776429 
L 137.629649 138.741076 
L 137.64588 138.556543 
L 137.667522 138.529083 
L 137.78658 138.478027 
L 137.813633 138.426971 
L 137.819043 138.387713 
L 137.797401 138.265993 
L 137.837966 138.171773 
L 137.837966 138.077513 
L 137.813633 138.030403 
L 137.748679 137.975442 
L 137.743268 137.920481 
L 137.819043 137.775205 
L 137.797401 137.661337 
L 137.684745 137.567939 
L 137.587696 137.35311 
L 137.555233 137.219591 
L 137.603928 137.015408 
L 137.579595 136.948649 
L 137.506539 136.917243 
L 137.471357 136.866228 
L 137.438894 136.791617 
L 137.433484 136.634544 
L 137.349607 136.528527 
L 137.355018 136.485363 
L 137.430764 136.446064 
L 137.457817 136.391103 
L 137.449035 136.350776 
L 137.360428 136.296884 
L 137.311734 136.23403 
L 137.342271 136.169572 
L 137.448356 136.15354 
L 137.50518 136.090728 
L 137.543053 135.898343 
L 137.670213 135.792325 
L 137.683753 135.556736 
L 137.681034 135.497828 
L 137.65129 135.450719 
L 137.545772 135.380054 
L 137.534951 135.297592 
L 137.562004 135.14837 
L 137.556593 135.12091 
L 137.472717 135.010947 
L 137.340486 134.897859 
L 137.342837 134.826413 
L 137.323886 134.775357 
L 137.188795 134.716655 
L 137.08288 134.551402 
L 137.076166 134.517611 
L 137.103785 134.439629 
L 137.099933 134.408634 
L 137.033024 134.368965 
L 137.014102 134.337558 
L 137.014102 134.278651 
L 137.051975 134.22369 
L 137.146672 134.153025 
L 137.171034 134.066657 
L 137.116901 134.003803 
L 137.10608 133.948842 
L 137.11149 133.897786 
L 137.176444 133.768214 
L 137.133132 133.673995 
L 137.141262 133.611182 
L 137.206188 133.477664 
L 137.206188 133.430554 
L 137.147919 133.263697 
L 137.15636 133.021366 
L 137.184546 132.947618 
L 137.187265 132.900468 
L 137.143953 132.837655 
L 137.135852 132.782694 
L 137.146672 132.727732 
L 137.206188 132.664878 
L 137.225138 132.543158 
L 137.147409 132.392086 
L 137.138543 132.225147 
L 137.160213 132.14659 
L 137.252191 132.028816 
L 137.284654 131.922799 
L 137.276552 131.867838 
L 137.187265 131.785375 
L 137.176444 131.750022 
L 137.176444 131.691115 
L 137.192676 131.659708 
L 137.244089 131.624397 
L 137.257601 131.553691 
L 137.252191 131.510528 
L 137.176444 131.443769 
L 137.176444 131.404511 
L 137.192676 131.337751 
L 137.219728 131.298493 
L 137.371249 131.149272 
L 137.367345 131.081279 
L 137.365839 131.055052 
L 137.324113 130.975632 
L 137.324991 130.870437 
L 137.33162 130.749292 
L 137.36853 130.705594 
L 137.379351 130.658485 
L 137.36853 130.61528 
L 137.327966 130.560319 
L 137.319836 130.462153 
L 137.298987 130.439338 
L 137.178597 130.417798 
L 137.094522 130.377471 
L 137.042882 130.320208 
L 137.034214 130.195322 
L 136.954558 130.006678 
L 136.954558 129.963474 
L 137.000562 129.892809 
L 137.067413 129.835587 
L 137.11996 129.815814 
L 137.284654 129.551203 
L 137.273833 129.496241 
L 137.235959 129.449132 
L 137.227829 129.374521 
L 137.287373 129.268504 
L 137.298194 129.193893 
L 137.292783 129.166433 
L 137.235959 129.099674 
L 137.230549 129.052564 
L 137.24137 129.017211 
L 137.295474 128.954398 
L 137.311706 128.871936 
L 137.273833 128.785568 
L 137.191401 128.704175 
L 137.161516 128.621424 
L 137.158796 128.57415 
L 137.207689 128.495346 
L 137.223977 128.428341 
L 137.213099 128.396811 
L 137.172393 128.37712 
L 137.158796 128.302263 
L 137.169674 128.258894 
L 137.229387 128.239203 
L 137.313575 128.136762 
L 137.302698 128.069798 
L 137.251114 128.014631 
L 137.237546 127.916095 
L 137.325359 127.762598 
L 137.381447 127.360522 
L 137.36244 127.269879 
L 137.283719 127.135909 
L 137.291849 127.07289 
L 137.329863 127.049253 
L 137.338022 127.005884 
L 137.310856 126.927081 
L 137.258933 126.882602 
L 137.222532 126.823448 
L 137.281764 126.659057 
L 137.264513 126.559494 
L 137.216612 126.476867 
L 137.12758 126.418699 
L 136.747544 126.357901 
L 136.736015 126.31186 
L 136.823064 126.22726 
L 136.834537 126.19721 
L 136.82686 126.177519 
L 136.671515 126.130697 
L 136.582539 126.073352 
L 136.500476 125.542526 
L 136.325415 125.33859 
L 136.336944 125.285972 
L 136.440366 125.243836 
L 136.487332 125.204413 
L 136.500957 124.903874 
L 136.486624 124.856887 
L 136.370823 124.738456 
L 136.352779 124.499865 
L 136.406515 124.389121 
L 136.410396 124.31118 
L 136.366404 124.190898 
L 136.295558 124.099721 
L 136.292754 124.015203 
L 136.255485 123.953287 
L 136.230547 123.911858 
L 136.13568 123.894881 
L 136.094521 123.846044 
L 136.020077 123.241142 
L 135.994243 123.187619 
L 135.953027 123.152842 
L 135.917562 123.154692 
L 135.852353 123.250473 
L 135.796747 123.281428 
L 135.748818 123.272014 
L 135.721029 123.239128 
L 135.714372 123.16871 
L 135.795897 123.056033 
L 135.786323 123.009047 
L 135.724995 122.918856 
L 135.675196 122.787352 
L 135.637832 122.736625 
L 135.611885 122.748053 
L 135.569961 122.711015 
L 135.569961 122.663412 
L 135.59367 122.610506 
L 135.580895 122.520521 
L 135.562652 122.480851 
L 135.43181 122.381576 
L 135.426088 122.298908 
L 135.440534 122.218953 
L 135.424105 122.129009 
L 135.33479 122.060194 
L 135.336602 121.994093 
L 135.450166 121.882855 
L 135.476085 121.827442 
L 135.459797 121.79176 
L 135.291024 121.614174 
L 135.13565 121.396261 
L 135.072339 121.281693 
L 135.057978 121.216866 
L 135.066617 121.16618 
L 135.171201 121.041253 
L 135.194231 120.963313 
L 135.194259 120.8337 
L 135.178792 120.739398 
L 135.033701 120.653853 
L 135.025487 120.63149 
L 135.032682 120.56732 
L 135.0769 120.534516 
L 135.07588 120.473307 
L 134.994553 120.412796 
L 134.929288 120.33391 
L 134.912971 120.242815 
L 134.956199 120.155461 
L 134.891896 119.996743 
L 134.597125 119.715935 
L 134.397419 119.676471 
L 134.401215 119.528072 
L 134.247541 119.384441 
L 134.17746 119.39665 
L 134.151512 119.376959 
L 134.150549 119.316818 
L 134.202359 119.220092 
L 134.258078 119.161842 
L 134.379063 119.102646 
L 134.380961 119.068815 
L 134.362719 119.02561 
L 134.202303 118.919552 
L 134.13021 118.808725 
L 133.970729 118.769344 
L 133.917276 118.784595 
L 133.873482 118.766425 
L 133.846373 118.714999 
L 133.84388 118.63414 
L 133.719156 118.466831 
L 133.702472 118.418406 
L 133.708732 118.354894 
L 133.766887 118.291382 
L 133.793742 118.219978 
L 133.724482 118.053779 
L 133.714992 117.858557 
L 133.731677 117.816216 
L 133.754622 117.801088 
L 133.754622 117.689111 
L 133.687883 117.637644 
L 133.671199 117.601345 
L 133.686694 117.447067 
L 133.546191 117.150351 
L 133.368354 117.139169 
L 133.217314 116.982425 
L 133.228787 116.923271 
L 133.272014 116.872502 
L 133.269995 116.80763 
L 133.25921 116.461136 
L 133.221592 116.277096 
L 133.158932 116.193523 
L 133.11919 116.179095 
L 133.011603 116.067651 
L 133.003105 116.014211 
L 133.073951 115.989546 
L 133.12494 115.927884 
L 133.099446 115.874444 
L 133.017297 115.812782 
L 132.677373 115.75519 
L 132.566897 115.714082 
L 132.513076 115.656531 
L 132.513076 115.615423 
L 132.632078 115.537318 
L 132.660405 115.471546 
L 132.620747 115.397551 
L 132.507439 115.323557 
L 132.450785 115.23312 
L 132.462115 115.126239 
L 132.626412 115.007026 
L 132.632078 114.953586 
L 132.462115 114.793265 
L 132.490442 114.665831 
L 132.598085 114.567172 
L 132.595252 114.497289 
L 132.484777 114.369854 
L 132.462115 114.250641 
L 132.501773 114.238309 
L 132.59242 114.324636 
L 132.680262 114.353411 
L 132.742581 114.291749 
L 132.734083 114.164315 
L 132.680262 114.049213 
L 132.564748 113.977002 
L 132.496136 113.934111 
L 132.6576 113.843673 
L 132.666098 113.77379 
L 132.329007 113.453148 
L 132.156212 113.346227 
L 132.110888 113.218792 
L 132.161877 113.083136 
L 132.147713 112.968034 
L 132.0599 112.922815 
L 131.895603 112.898151 
L 131.722808 112.803603 
L 131.623663 112.68439 
L 131.595336 112.569288 
L 131.606667 112.499404 
L 131.680317 112.334973 
L 131.68315 112.236314 
L 131.637827 112.133544 
L 131.496191 112.034844 
L 131.428206 111.973182 
L 131.416876 111.936185 
L 131.425374 111.878634 
L 131.530184 111.7512 
L 131.550041 111.689538 
L 131.487722 111.54566 
L 131.493387 111.488109 
L 131.569077 111.275335 
L 131.652472 110.971465 
L 131.665162 110.876753 
L 131.652018 110.820846 
L 131.612587 110.766912 
L 131.40546 110.642602 
L 131.347899 110.537366 
L 131.277846 110.083124 
L 131.316116 110.009993 
L 131.384073 109.934272 
L 131.376226 109.859867 
L 131.329827 109.832366 
L 131.206406 109.811072 
L 131.167598 109.78057 
L 131.122699 109.690584 
L 131.124268 109.674704 
L 131.131991 109.59653 
L 131.214819 109.396252 
L 131.222637 109.337591 
L 131.174481 108.759162 
L 131.122189 108.500059 
L 131.07239 108.370816 
L 131.026331 108.30862 
L 130.820846 108.182459 
L 130.70496 108.082649 
L 130.399425 107.554084 
L 130.249858 107.529872 
L 130.209322 107.498671 
L 130.20326 107.471293 
L 130.218642 107.410289 
L 130.314472 107.292145 
L 130.35243 107.100829 
L 130.342034 106.945523 
L 130.274984 106.812416 
L 130.188275 106.758236 
L 130.177227 106.720334 
L 130.181221 106.662043 
L 130.226431 106.590639 
L 130.22442 106.522112 
L 130.198303 106.453585 
L 130.097572 106.372479 
L 130.066214 106.171092 
L 130.011401 106.122173 
L 129.962565 106.110869 
L 129.776201 106.144043 
L 129.678983 106.091959 
L 129.665924 106.036217 
L 129.680966 105.974843 
L 129.740311 105.860398 
L 129.753002 105.815837 
L 129.749886 105.74916 
L 129.724844 105.669493 
L 129.575391 105.367268 
L 129.535251 105.247726 
L 129.501996 105.003217 
L 129.424861 104.89239 
L 129.415116 104.817902 
L 129.431093 104.738893 
L 129.364723 104.645578 
L 129.163544 104.573351 
L 129.142809 104.51617 
L 129.138673 104.389763 
L 129.194874 104.273099 
L 129.217479 104.182086 
L 129.234078 104.091814 
L 129.234078 103.989496 
L 129.213343 103.935316 
L 129.147992 103.890467 
L 129.083067 103.796412 
L 129.012164 103.547052 
L 129.014232 103.426688 
L 129.041712 103.355192 
L 129.054711 103.32137 
L 129.136605 103.21601 
L 129.15734 103.167832 
L 129.161476 103.113651 
L 129.151108 103.005332 
L 129.120005 102.966197 
L 129.072303 102.945109 
L 129.0329 102.887928 
L 129.026668 102.827746 
L 129.16023 102.562025 
L 129.168303 102.517464 
L 129.259686 102.353649 
L 129.227846 102.138531 
L 129.238214 102.063304 
L 129.267249 102.00008 
L 129.352287 101.9459 
L 129.362655 101.825536 
L 129.288041 101.739086 
L 129.276682 101.627766 
L 129.339852 101.545632 
L 129.339172 101.466993 
L 129.327388 101.395136 
L 129.273425 101.36188 
L 129.255522 101.304699 
L 129.268666 101.221579 
L 129.307927 101.178415 
L 129.316453 101.100064 
L 129.307927 101.062984 
L 129.222748 101.013532 
L 129.180144 100.937688 
L 129.167708 100.829327 
L 129.209179 100.778148 
L 129.323252 100.708963 
L 129.327388 100.651741 
L 129.242378 100.510289 
L 129.238214 100.40497 
L 129.258949 100.353791 
L 129.389226 100.204282 
L 129.50395 100.181426 
L 129.54409 100.138468 
L 129.563664 100.06246 
L 129.554656 100.018885 
L 129.508171 99.936053 
L 129.499729 99.877803 
L 129.50395 99.837928 
L 129.567346 99.752054 
L 129.567346 99.669221 
L 129.527547 99.590007 
L 129.459562 99.571097 
L 129.432084 99.540389 
L 129.434209 99.476014 
L 129.478569 99.405473 
L 129.618278 99.358323 
L 129.654197 99.325518 
L 129.866933 98.97976 
L 129.862769 98.914604 
L 129.834187 98.82244 
L 129.708585 98.552443 
L 129.618278 98.47849 
L 129.564797 98.479641 
L 129.518737 98.436273 
L 129.512392 98.316649 
L 129.525082 98.239982 
L 129.563125 98.206233 
L 129.67513 98.200108 
L 129.698387 98.172483 
L 129.711077 98.108108 
L 129.704732 98.086609 
L 129.594823 97.991526 
L 129.594823 97.767653 
L 129.567346 97.724695 
L 129.459562 97.666445 
L 129.432084 97.620445 
L 129.417298 97.506947 
L 129.43843 97.390406 
L 129.451092 97.340295 
L 129.49143 97.300297 
L 129.554457 97.185072 
L 129.559131 97.086824 
L 129.549783 97.042756 
L 129.451743 96.995318 
L 129.380246 96.998935 
L 129.351324 96.964816 
L 129.349001 96.856414 
L 129.430725 96.683597 
L 129.454066 96.510779 
L 129.437721 96.453187 
L 129.262604 96.310871 
L 129.246259 96.192275 
L 129.274274 96.063525 
L 129.264926 96.005933 
L 129.207451 95.947478 
L 129.093859 95.903163 
L 128.983752 95.681099 
L 128.983752 95.391124 
L 128.994856 95.318609 
L 129.022617 95.254193 
L 129.083662 95.213908 
L 129.144706 95.093091 
L 129.200228 94.835345 
L 129.200228 94.762872 
L 129.178019 94.690357 
L 129.100318 94.60177 
L 129.055901 94.489011 
L 129.044825 94.271509 
L 129.055901 94.21515 
L 129.094766 94.150693 
L 129.200228 94.062106 
L 129.322345 93.860759 
L 129.344525 93.756016 
L 129.327869 93.546613 
L 129.250168 93.377454 
L 129.133631 93.345266 
L 129.122526 93.232466 
L 129.144706 93.192222 
L 129.289033 93.127764 
L 129.327869 93.03112 
L 129.327869 92.942532 
L 129.265181 92.879555 
L 129.226657 92.777936 
L 129.223172 92.716973 
L 129.310703 92.610298 
L 129.345715 92.539141 
L 129.366706 92.396907 
L 129.342203 92.295289 
L 129.279175 92.244479 
L 129.268694 92.213977 
L 129.268694 92.076841 
L 129.286172 92.015837 
L 129.384212 91.883758 
L 129.412227 91.711022 
L 129.408715 91.568789 
L 129.366706 91.51798 
L 129.153148 91.40111 
L 129.114651 91.309645 
L 129.086636 91.187719 
L 129.097145 91.00483 
L 129.146151 90.964174 
L 129.163657 90.898155 
L 129.125133 90.826997 
L 129.072614 90.786382 
L 129.062133 90.679666 
L 129.093633 90.623801 
L 129.194987 90.550135 
L 129.223739 90.484856 
L 129.23541 90.153855 
L 129.193401 90.052237 
L 129.025365 89.935367 
L 128.986868 89.859153 
L 128.972846 89.78298 
L 128.832826 88.929416 
L 128.864325 88.721122 
L 128.944831 88.594099 
L 128.951856 88.512829 
L 128.906334 88.406154 
L 128.808294 88.314689 
L 128.645272 88.22273 
L 128.60052 88.174784 
L 128.548734 88.119303 
L 128.549145 88.114825 
L 128.559725 87.999679 
L 128.577231 87.943813 
L 128.612243 87.898101 
L 128.755918 87.818475 
L 128.822316 87.81679 
L 128.850303 87.771078 
L 128.857329 87.705017 
L 128.808294 87.61865 
L 128.738298 87.572938 
L 128.68578 87.506877 
L 128.671758 87.451012 
L 128.675271 87.28843 
L 128.710283 87.212216 
L 128.87356 87.141963 
L 128.930837 87.049634 
L 128.948343 86.963267 
L 128.951856 86.836243 
L 128.930837 86.760029 
L 128.927325 86.653354 
L 128.964461 86.591199 
L 129.063804 86.57377 
L 129.099723 86.536526 
L 129.120657 86.480002 
L 129.158332 86.188671 
L 129.139863 86.115704 
L 129.091877 86.03353 
L 129.098873 85.931911 
L 129.123405 85.876045 
L 129.179407 85.809985 
L 129.252916 85.63725 
L 129.277447 85.510226 
L 129.252916 85.428956 
L 129.273934 85.306989 
L 129.312431 85.266374 
L 129.403474 85.261277 
L 129.445483 85.235872 
L 129.466473 85.129197 
L 129.448967 85.027579 
L 129.48398 84.941211 
L 129.610035 84.951365 
L 129.634538 84.92596 
L 129.655528 84.854843 
L 129.651506 84.767694 
L 129.60301 84.702415 
L 129.60301 84.616047 
L 129.620516 84.590643 
L 129.746571 84.534777 
L 129.910188 84.585422 
L 130.00888 84.567129 
L 130.06678 84.518334 
L 130.096495 84.468799 
L 130.101877 84.397354 
L 130.062928 84.212697 
L 129.998625 84.047032 
L 130.019644 83.980972 
L 130.114965 83.849303 
L 130.168899 83.64771 
L 130.206971 83.574374 
L 130.285607 83.497173 
L 130.320704 83.401803 
L 130.31722 83.264626 
L 130.261189 83.147797 
L 130.292717 83.066486 
L 130.336057 83.019006 
L 130.341666 82.877143 
L 130.31722 82.538126 
L 130.334726 82.466968 
L 130.401238 82.360293 
L 130.411747 82.309484 
L 130.40475 82.263772 
L 130.373222 82.212963 
L 130.091141 82.050586 
L 129.818324 81.676957 
L 129.797333 81.565184 
L 129.856848 81.494068 
L 129.877839 81.316235 
L 129.734277 81.141732 
L 129.647172 80.912638 
L 129.588535 80.833094 
L 129.366706 80.665949 
L 129.328209 80.61514 
L 129.314187 80.559233 
L 129.342203 80.477963 
L 129.349199 80.330632 
L 129.335206 80.279823 
L 129.231671 80.193743 
L 129.214249 80.133109 
L 129.217734 79.784432 
L 129.113263 79.607586 
L 128.91826 79.450924 
L 128.890415 79.410515 
L 128.883446 79.339768 
L 128.991401 79.082021 
L 128.991401 78.986035 
L 128.846649 78.715997 
L 128.810306 78.687879 
L 128.78246 78.637357 
L 128.772008 78.596907 
L 128.78246 78.546386 
L 128.810306 78.505936 
L 128.827727 78.369498 
L 128.803366 78.334146 
L 128.719772 78.283624 
L 128.698895 78.243174 
L 128.699094 78.096172 
L 128.719036 77.999815 
L 128.690454 77.953733 
L 128.601819 77.927712 
L 128.552869 77.880356 
L 128.536553 77.792385 
L 128.531907 77.609742 
L 128.468965 77.433842 
L 128.468965 77.372961 
L 128.498623 77.296665 
L 128.498623 77.25046 
L 128.477378 77.193977 
L 128.395994 77.137454 
L 128.238836 77.091989 
L 128.153855 77.009115 
L 128.109495 76.938615 
L 128.069355 76.831282 
L 128.133969 76.569631 
L 128.042076 76.397923 
L 128.038535 76.24381 
L 128.059781 76.17705 
L 128.19119 76.103344 
L 128.232321 76.058002 
L 128.245464 76.014921 
L 128.230054 75.837746 
L 128.148246 75.678905 
L 128.155328 75.62752 
L 128.194277 75.540207 
L 128.194277 75.406689 
L 128.096464 75.252082 
L 128.066862 75.057436 
L 128.003155 74.970123 
L 127.914689 74.923918 
L 127.868658 74.872574 
L 127.861605 74.810912 
L 127.907608 74.620911 
L 127.893444 74.569526 
L 127.850982 74.523321 
L 127.773111 74.482213 
L 127.560771 74.287074 
L 127.535985 74.210038 
L 127.560771 74.102171 
L 127.564312 74.019996 
L 127.504146 73.84537 
L 127.55723 73.727267 
L 127.560771 73.547502 
L 127.535985 73.485881 
L 127.285829 73.370862 
L 127.205012 73.298471 
L 127.143684 73.144193 
L 127.148018 73.07361 
L 127.19742 72.905479 
L 127.187449 72.794529 
L 127.137452 72.737636 
L 126.993947 72.66767 
L 126.962702 72.571354 
L 126.960153 72.456992 
L 127.008932 72.341931 
L 127.006496 72.250137 
L 126.974855 72.172484 
L 126.809453 72.077155 
L 126.755943 71.890073 
L 126.743791 71.688891 
L 126.714586 71.593562 
L 126.592978 71.466498 
L 126.588105 71.402945 
L 126.629463 71.085263 
L 126.629463 70.975834 
L 126.612438 70.912281 
L 126.583233 70.852263 
L 126.440182 70.792904 
L 126.402195 70.742259 
L 126.392932 70.65548 
" clip-path="url(#p9ffab5dc73)" style="fill: #ff5733"/>
   </g>
   <g id="text_1">
    <!-- MN -->
    <g transform="translate(226.494375 35.472) scale(0.12 -0.12)">
     <defs>
      <path id="DejaVuSans-4d" d="M 628 4666 
L 1569 4666 
L 2759 1491 
L 3956 4666 
L 4897 4666 
L 4897 0 
L 4281 0 
L 4281 4097 
L 3078 897 
L 2444 897 
L 1241 4097 
L 1241 0 
L 628 0 
L 628 4666 
z
" transform="scale(0.015625)"/>
      <path id="DejaVuSans-4e" d="M 628 4666 
L 1478 4666 
L 3547 763 
L 3547 4666 
L 4159 4666 
L 4159 0 
L 3309 0 
L 1241 3903 
L 1241 0 
L 628 0 
L 628 4666 
z
" transform="scale(0.015625)"/>
     </defs>
     <use xlink:href="#DejaVuSans-4d"/>
     <use xlink:href="#DejaVuSans-4e" x="86.279297"/>
    </g>
   </g>
  </g>
 </g>
 <defs>
  <clipPath id="p9ffab5dc73">
   <rect x="115.416225" y="41.472" width="241.487549" height="266.112"/>
  </clipPath>
 </defs>
</svg>
