<?xml version="1.0" encoding="utf-8" standalone="no"?>
<!DOCTYPE svg PUBLIC "-//W3C//DTD SVG 1.1//EN"
  "http://www.w3.org/Graphics/SVG/1.1/DTD/svg11.dtd">
<svg xmlns:xlink="http://www.w3.org/1999/xlink" width="460.8pt" height="345.6pt" viewBox="0 0 460.8 345.6" xmlns="http://www.w3.org/2000/svg" version="1.1">
 <metadata>
  <rdf:RDF xmlns:dc="http://purl.org/dc/elements/1.1/" xmlns:cc="http://creativecommons.org/ns#" xmlns:rdf="http://www.w3.org/1999/02/22-rdf-syntax-ns#">
   <cc:Work>
    <dc:type rdf:resource="http://purl.org/dc/dcmitype/StillImage"/>
    <dc:date>2023-06-19T14:47:42.780856</dc:date>
    <dc:format>image/svg+xml</dc:format>
    <dc:creator>
     <cc:Agent>
      <dc:title>Matplotlib v3.7.1, https://matplotlib.org/</dc:title>
     </cc:Agent>
    </dc:creator>
   </cc:Work>
  </rdf:RDF>
 </metadata>
 <defs>
  <style type="text/css">*{stroke-linejoin: round; stroke-linecap: butt}</style>
 </defs>
 <g id="figure_1">
  <g id="patch_1">
   <path d="M 0 345.6 
L 460.8 345.6 
L 460.8 0 
L 0 0 
z
" style="fill: #ffffff"/>
  </g>
  <g id="axes_1">
   <g id="PatchCollection_1">
    <path d="M 98.987552 55.424326 
L 99.194003 55.157625 
L 99.31248 55.057462 
L 100.101861 55.071763 
L 102.524965 55.100785 
L 102.527349 55.100838 
L 104.402015 55.108486 
L 105.666989 55.1472 
L 107.188978 55.17507 
L 107.97363 55.192567 
L 108.868867 55.212474 
L 109.136078 55.218394 
L 109.189109 55.220804 
L 111.494229 55.249616 
L 113.710554 55.277172 
L 115.41589 55.304027 
L 115.417124 55.304046 
L 116.078613 55.325053 
L 116.991815 55.33705 
L 121.680863 55.391742 
L 121.793585 55.394152 
L 121.848178 55.395304 
L 122.017877 55.398971 
L 122.043036 55.399495 
L 122.089284 55.400805 
L 122.096766 55.401014 
L 122.47265 55.407418 
L 124.04329 55.434175 
L 124.436254 55.4424 
L 125.820403 55.465817 
L 126.174231 55.475508 
L 126.23832 55.476661 
L 126.25312 55.479071 
L 126.380147 55.481376 
L 126.775043 55.478651 
L 127.50946 55.487086 
L 127.954304 55.493739 
L 131.130407 55.555974 
L 132.165128 55.548274 
L 132.632006 55.557179 
L 134.286161 55.588664 
L 134.838876 55.59867 
L 135.030034 55.605951 
L 138.032779 55.647651 
L 138.188172 55.659595 
L 138.549523 55.66913 
L 140.078788 55.698205 
L 142.435296 55.738857 
L 142.506826 55.738857 
L 143.835642 55.760545 
L 145.914497 55.792029 
L 147.477925 55.803554 
L 149.609318 55.811779 
L 149.622719 55.811779 
L 149.767013 55.814189 
L 149.818811 55.814189 
L 149.949538 55.815446 
L 151.78293 55.817123 
L 152.525651 55.810941 
L 152.548878 55.810679 
L 152.982992 55.80455 
L 154.231193 55.799625 
L 157.167136 55.782757 
L 158.055138 55.778094 
L 158.061304 55.77689 
L 158.546023 55.776785 
L 159.123239 55.774323 
L 159.777329 55.783909 
L 160.084127 55.77448 
L 162.349658 55.754239 
L 168.152441 55.702395 
L 168.230178 55.707163 
L 168.589104 55.702291 
L 168.59897 55.702291 
L 170.493655 55.666353 
L 171.260015 55.649118 
L 172.852013 55.611347 
L 173.382446 55.605113 
L 174.369315 55.582168 
L 174.41988 55.577348 
L 174.482777 55.570171 
L 174.514842 55.577348 
L 174.540741 55.574938 
L 175.433881 55.557022 
L 175.971755 55.54644 
L 176.035886 55.542878 
L 176.076584 55.539263 
L 177.912977 55.508093 
L 178.436133 55.498401 
L 179.348965 55.482947 
L 179.482159 55.472889 
L 181.173425 55.456839 
L 181.342519 55.455235 
L 182.165033 55.449734 
L 182.471873 55.460316 
L 182.697974 55.459059 
L 183.064011 55.458797 
L 183.307049 55.453872 
L 184.627068 55.441614 
L 185.171108 55.428413 
L 185.510424 55.42244 
L 185.795394 55.416521 
L 185.903963 55.417778 
L 186.029799 55.416625 
L 188.44945 55.356695 
L 189.730539 55.324163 
L 189.746119 55.326363 
L 189.769552 55.322801 
L 189.952159 55.314366 
L 190.028622 55.320391 
L 190.112444 55.317981 
L 190.232195 55.314419 
L 190.466601 55.308447 
L 191.293185 55.311066 
L 191.316617 55.307451 
L 191.459801 55.305094 
L 193.812773 55.32652 
L 193.878137 55.321701 
L 194.845438 55.334693 
L 197.615422 55.312779 
L 198.80529 55.303365 
L 199.949649 55.29514 
L 202.29259 55.28854 
L 207.42344 55.18078 
L 208.95661 55.122159 
L 209.006394 55.120011 
L 209.49062 55.099633 
L 214.743153 54.941058 
L 215.40715 54.924661 
L 216.9714 54.918532 
L 217.53657 54.909155 
L 217.973068 54.893334 
L 218.636737 54.90203 
L 218.868716 54.892338 
L 219.786152 54.885842 
L 220.077288 54.884218 
L 220.074452 54.880132 
L 222.978987 54.86363 
L 223.60282 54.847967 
L 224.738843 54.829255 
L 225.756042 54.812501 
L 225.885989 54.81643 
L 227.837446 54.763205 
L 227.891916 54.761738 
L 230.260633 54.69374 
L 234.19438 54.548471 
L 234.284574 54.550043 
L 234.313433 54.547581 
L 235.13903 54.525893 
L 235.462314 54.529403 
L 238.506621 54.465438 
L 239.694033 54.425405 
L 239.695296 54.425362 
L 240.489979 54.402312 
L 240.499845 54.397545 
L 241.833883 54.36276 
L 244.393758 54.307125 
L 245.169942 54.291357 
L 245.824977 54.283604 
L 246.051366 54.278941 
L 246.724818 54.254843 
L 250.153045 54.186688 
L 250.297421 54.173487 
L 250.695153 54.165 
L 250.730548 54.168562 
L 251.257487 54.13734 
L 251.323961 54.143836 
L 252.896596 54.088044 
L 254.169586 54.050325 
L 255.308108 54.014755 
L 256.265132 53.995948 
L 256.454021 53.976528 
L 256.611108 53.960377 
L 259.525386 53.860371 
L 261.002031 53.769322 
L 261.316723 53.748682 
L 261.763087 53.731133 
L 262.331834 53.708763 
L 262.527473 53.70101 
L 262.916285 53.680736 
L 265.251333 53.568 
L 265.62366 54.202561 
L 265.758869 54.359565 
L 265.953891 54.54208 
L 266.597909 54.903444 
L 266.907832 55.151705 
L 267.009084 55.284454 
L 267.049207 55.388337 
L 267.035147 55.498716 
L 266.795316 56.123062 
L 266.793918 56.261625 
L 266.826271 56.383633 
L 266.912765 56.514758 
L 267.199955 56.742902 
L 267.640687 56.85281 
L 268.325074 56.944382 
L 268.993635 57.135489 
L 269.524808 57.24241 
L 269.658865 57.305694 
L 269.734054 57.382964 
L 269.778123 57.47375 
L 269.81804 57.738513 
L 269.786592 58.144197 
L 269.646697 58.628565 
L 269.639873 58.768857 
L 269.681352 58.993596 
L 269.758103 59.147509 
L 269.862438 59.270094 
L 270.032096 59.396713 
L 270.216019 59.519141 
L 270.77934 59.783327 
L 270.936665 59.925034 
L 271.098348 60.190059 
L 271.245067 60.615177 
L 271.281161 60.846465 
L 271.318529 60.942176 
L 271.36675 61.039668 
L 271.597332 61.319989 
L 271.885221 61.496743 
L 272.045506 61.56495 
L 272.503998 61.681196 
L 272.870117 61.713676 
L 273.494361 61.66899 
L 273.594873 61.68874 
L 273.638655 61.729602 
L 273.689055 61.808915 
L 273.721613 62.022496 
L 273.713433 62.137381 
L 273.681285 62.222457 
L 273.596806 62.31691 
L 273.358207 62.521428 
L 273.290953 62.622325 
L 273.287869 62.752454 
L 273.321414 62.83292 
L 273.472491 62.964516 
L 273.642355 63.005849 
L 273.850573 62.995896 
L 273.883502 63.040477 
L 273.888517 63.120314 
L 273.790841 63.372295 
L 273.57843 63.718886 
L 273.557793 63.885633 
L 273.583774 64.057724 
L 273.658305 64.195972 
L 273.751993 64.254489 
L 273.914005 64.305094 
L 274.094845 64.31269 
L 274.297513 64.404996 
L 274.364768 64.470532 
L 274.392805 64.53282 
L 274.453359 64.575934 
L 274.748482 64.659019 
L 274.931377 64.632459 
L 275.088744 64.533763 
L 275.143625 64.533763 
L 275.170428 64.557389 
L 275.165248 64.630783 
L 275.138856 64.759445 
L 275.306993 65.603344 
L 276.104143 65.532255 
L 277.085545 65.479973 
L 277.726069 65.677157 
L 277.863291 65.758461 
L 277.982591 65.898596 
L 277.686193 66.227376 
L 277.570676 66.311299 
L 277.163694 66.51126 
L 276.937963 66.689322 
L 276.877326 66.759887 
L 276.814552 66.901017 
L 276.633589 67.186997 
L 276.226484 67.776663 
L 276.043013 68.193295 
L 275.917507 68.824661 
L 275.8283 69.090209 
L 275.24241 70.342987 
L 275.086606 70.729497 
L 274.969075 71.139738 
L 274.955344 71.294541 
L 274.962333 71.574234 
L 275.059597 71.841879 
L 275.082454 71.971484 
L 275.059638 72.120367 
L 274.78259 72.682827 
L 274.74803 72.75299 
L 274.634938 72.842047 
L 274.537263 72.959813 
L 274.430502 73.202626 
L 274.402835 73.335426 
L 274.424747 73.440148 
L 274.493769 73.575987 
L 274.494057 73.96433 
L 274.384501 74.422662 
L 274.371263 74.748089 
L 274.396134 74.98802 
L 274.463023 75.241201 
L 274.48604 75.328325 
L 274.444191 75.467464 
L 274.277452 75.691051 
L 274.214884 75.824323 
L 274.136735 76.229378 
L 274.132418 76.361655 
L 274.178584 76.785778 
L 274.332004 77.455072 
L 274.327893 77.525218 
L 274.19363 77.894912 
L 274.187094 78.00901 
L 274.245757 79.009441 
L 274.290031 79.329943 
L 274.423184 80.050262 
L 274.636254 80.949743 
L 274.766159 81.615003 
L 274.860628 81.997741 
L 275.097377 82.705801 
L 274.880648 83.804981 
L 275.190078 84.499211 
L 275.325204 84.701896 
L 275.60335 85.243523 
L 275.934321 85.959441 
L 276.014607 86.205449 
L 276.039766 86.382412 
L 276.095962 86.553088 
L 276.163053 86.66572 
L 276.333656 86.768031 
L 276.361652 86.813974 
L 276.534516 87.217824 
L 276.733526 87.533612 
L 276.839177 87.836198 
L 277.072513 88.265927 
L 277.256272 88.521679 
L 277.32256 88.581352 
L 277.586585 88.819027 
L 277.721135 88.97493 
L 277.883517 89.225968 
L 277.985139 89.501313 
L 278.007873 89.794207 
L 277.963762 90.087207 
L 277.922735 90.174588 
L 277.590655 90.54842 
L 276.992227 91.289484 
L 276.852085 91.842112 
L 276.814182 92.108394 
L 276.874161 92.504281 
L 277.298984 93.807874 
L 277.427739 94.067503 
L 277.56751 94.211724 
L 278.184396 94.621232 
L 278.525192 94.805214 
L 278.869277 95.085484 
L 279.365877 95.377226 
L 279.686611 95.601441 
L 279.802663 95.727851 
L 280.09791 96.170886 
L 280.283806 96.568973 
L 280.360804 96.844318 
L 280.353692 96.973661 
L 280.226089 97.271795 
L 280.19131 97.506383 
L 280.182595 98.027841 
L 280.214701 98.354368 
L 280.176798 98.499374 
L 280.120931 98.608077 
L 280.016226 99.071072 
L 280.013924 99.72685 
L 280.106666 99.909941 
L 280.72347 100.63026 
L 281.029693 100.938137 
L 281.592767 101.407994 
L 282.159623 101.818812 
L 282.617252 102.222718 
L 282.672091 102.271119 
L 282.789787 102.497745 
L 283.147314 102.752607 
L 283.577276 102.995262 
L 283.872811 103.224454 
L 284.25821 103.683677 
L 284.516788 104.101148 
L 284.997602 104.527786 
L 285.11538 104.714754 
L 285.212151 104.937241 
L 285.308141 105.094244 
L 285.797671 105.576936 
L 286.043874 105.747193 
L 286.318813 105.87706 
L 287.581649 106.40119 
L 287.74547 106.529119 
L 287.906782 106.763864 
L 288.044951 107.019669 
L 288.062176 107.089762 
L 288.16869 107.617612 
L 288.24355 108.264274 
L 288.301144 108.506668 
L 288.497852 108.839953 
L 288.704549 109.129023 
L 288.909191 109.38048 
L 289.129249 109.508828 
L 290.018731 109.695901 
L 290.525732 109.755046 
L 291.101179 109.880931 
L 291.40695 110.374415 
L 291.677326 111.010076 
L 291.945482 111.503193 
L 292.128829 111.758998 
L 292.581196 112.188675 
L 292.658933 113.263704 
L 292.781233 113.539363 
L 293.043552 113.892346 
L 293.651476 114.609311 
L 294.254138 115.119664 
L 294.733308 115.435713 
L 295.072953 115.700686 
L 295.480058 115.94397 
L 295.922764 116.07478 
L 296.144836 116.188564 
L 296.356672 116.40576 
L 296.561602 116.520801 
L 296.973558 116.675447 
L 297.350119 116.753713 
L 297.659795 116.93801 
L 297.731367 117.002969 
L 297.797388 117.104652 
L 297.82373 117.173616 
L 297.866863 117.286539 
L 297.937653 117.55916 
L 298.15397 117.799249 
L 298.324327 117.925396 
L 298.473348 118.001305 
L 298.733077 118.091986 
L 299.006823 118.151917 
L 299.135783 118.22573 
L 299.216234 118.323641 
L 299.22647 118.437215 
L 299.331751 118.595004 
L 299.591479 118.857514 
L 301.016492 119.694289 
L 301.493894 120.013744 
L 301.797856 120.266981 
L 302.57071 121.14598 
L 302.753852 121.311679 
L 303.47347 121.699813 
L 303.715398 121.887829 
L 303.788244 122.020944 
L 303.829929 122.233058 
L 304.113007 122.533968 
L 304.44665 122.762008 
L 304.520071 122.880768 
L 304.776552 123.431825 
L 305.436315 124.196306 
L 305.548215 124.264723 
L 305.950674 124.381703 
L 306.160784 124.528124 
L 306.325879 124.695971 
L 306.448343 124.943289 
L 306.66984 125.909459 
L 306.686489 126.043255 
L 306.659892 126.361138 
L 306.85401 126.895274 
L 306.875222 127.078523 
L 306.871933 127.271883 
L 306.841102 127.477868 
L 306.842047 127.759551 
L 306.966773 128.393746 
L 307.126688 128.862189 
L 307.148352 129.042504 
L 307.181527 129.97567 
L 307.232667 130.198367 
L 307.34506 130.602164 
L 307.437351 130.832823 
L 307.538438 131.006223 
L 307.76532 131.307919 
L 308.064862 131.818432 
L 308.130946 131.93106 
L 308.193967 132.152028 
L 308.335054 132.831851 
L 308.297727 133.38317 
L 308.266895 133.47317 
L 307.540083 134.340748 
L 307.508716 134.41299 
L 307.469704 134.666542 
L 307.041961 135.112039 
L 306.999043 135.190462 
L 306.997235 135.273757 
L 307.081467 135.649842 
L 307.233366 135.887468 
L 307.533053 136.578346 
L 307.86982 137.228885 
L 307.968606 137.463945 
L 308.017403 137.716816 
L 308.062376 137.819913 
L 308.175018 138.0093 
L 308.228293 138.098873 
L 308.294685 138.165456 
L 308.453983 138.52834 
L 308.527815 138.934599 
L 308.526993 139.89244 
L 308.546232 140.084804 
L 308.714986 140.6005 
L 308.822487 140.816333 
L 308.972902 141.548574 
L 308.973111 141.549591 
L 309.063264 141.871089 
L 309.144331 142.031026 
L 309.31477 142.278239 
L 309.482907 142.494544 
L 309.695689 142.705925 
L 310.027482 142.906776 
L 310.192782 143.133663 
L 310.497443 143.779278 
L 310.635694 143.9345 
L 311.859435 144.64717 
L 312.351349 144.962539 
L 312.625506 144.998895 
L 313.043259 144.972126 
L 313.122585 144.954093 
L 313.48987 144.8706 
L 313.893605 144.701758 
L 313.969328 144.64717 
L 314.500131 144.017062 
L 315.082033 143.402041 
L 315.473064 143.195165 
L 315.77456 142.794878 
L 316.314859 141.979006 
L 316.489532 141.521669 
L 316.459646 141.221807 
L 316.464291 141.132907 
L 316.502112 141.011003 
L 316.925414 140.257785 
L 317.103746 140.102144 
L 317.324626 139.970496 
L 317.801537 139.790459 
L 317.802275 139.79018 
L 318.24272 139.811135 
L 318.503065 139.907422 
L 318.87383 139.998628 
L 319.351437 140.022464 
L 319.628555 140.063116 
L 320.062299 140.194973 
L 320.47535 140.385111 
L 320.583976 140.435114 
L 322.092029 141.203262 
L 322.622709 141.585738 
L 323.007245 141.777579 
L 323.278854 141.877899 
L 323.612579 142.07655 
L 323.749925 142.10772 
L 324.054216 142.114531 
L 324.670814 142.080322 
L 324.927377 142.097714 
L 324.995055 142.11088 
L 325.239767 142.158483 
L 325.53082 142.274363 
L 325.769213 142.252413 
L 325.890896 142.266767 
L 326.046495 142.326749 
L 326.397774 142.563328 
L 326.865063 142.771199 
L 327.164955 142.953034 
L 327.556398 143.316336 
L 327.733079 143.497572 
L 328.210406 143.987202 
L 328.309068 144.03435 
L 328.510544 144.060543 
L 328.650316 144.123407 
L 329.493056 144.579172 
L 330.105626 145.061131 
L 331.675219 145.995816 
L 331.836368 146.29746 
L 331.8487 146.617019 
L 331.618488 147.790483 
L 331.495161 148.277681 
L 331.27317 148.681059 
L 330.30295 149.466809 
L 329.493056 150.011631 
L 329.486362 150.022252 
L 329.291621 150.331191 
L 329.135406 150.661228 
L 329.086074 150.965071 
L 328.794198 151.363211 
L 328.469435 151.567519 
L 327.897975 152.133245 
L 327.704761 152.452804 
L 327.652598 152.661089 
L 327.643097 152.699022 
L 327.622543 152.877137 
L 327.618432 153.201935 
L 327.733538 153.673416 
L 328.01935 154.157307 
L 328.021303 154.160614 
L 328.206306 154.359321 
L 328.309068 154.469696 
L 328.67083 155.140247 
L 328.827045 155.632683 
L 328.879869 155.89297 
L 328.888709 155.936526 
L 328.891199 155.952205 
L 329.02848 156.816625 
L 329.028345 156.821781 
L 329.016148 157.288106 
L 328.98326 157.529085 
L 328.748937 158.45104 
L 328.661049 158.644326 
L 328.448798 159.111114 
L 328.276139 159.346855 
L 328.008929 159.650698 
L 327.884422 159.748819 
L 327.696498 159.896916 
L 327.425136 160.169328 
L 327.203146 160.289817 
L 327.116816 160.363159 
L 326.101376 161.950426 
L 326.04508 162.053621 
L 325.737165 162.618057 
L 325.632689 162.80957 
L 325.488807 163.218187 
L 325.488217 163.220351 
L 325.28326 163.972557 
L 325.234948 164.221281 
L 325.180487 164.501664 
L 325.032494 165.015002 
L 324.991343 165.365994 
L 324.855683 165.73794 
L 324.79927 166.058441 
L 324.658358 166.859017 
L 324.609027 167.257157 
L 324.461033 167.519091 
L 324.193782 168.132017 
L 323.08379 169.441687 
L 322.828913 169.630279 
L 322.32572 170.188026 
L 322.228676 170.295592 
L 322.213685 170.318516 
L 322.105348 170.484184 
L 321.956327 170.706514 
L 321.686034 171.610448 
L 321.196792 172.663423 
L 321.089908 173.014414 
L 321.020022 173.54876 
L 321.052909 174.544109 
L 320.96658 175.062738 
L 320.962058 175.722864 
L 321.046743 176.138135 
L 321.086907 176.477863 
L 321.215497 177.087331 
L 321.24637 177.388712 
L 321.373274 178.106359 
L 321.552798 178.726095 
L 321.691871 179.09406 
L 321.722515 179.156671 
L 321.785354 179.285062 
L 322.592904 180.538312 
L 322.704064 180.661525 
L 323.08231 180.975165 
L 323.308987 181.087116 
L 323.564234 181.133426 
L 323.981083 181.307664 
L 324.38087 181.558754 
L 324.696343 181.873389 
L 325.031918 182.231296 
L 325.947145 183.79253 
L 325.954575 183.805205 
L 326.051839 183.937063 
L 326.339687 184.585873 
L 327.343082 185.544761 
L 327.819129 185.86746 
L 327.911026 185.929754 
L 329.25417 186.840234 
L 329.616302 186.59344 
L 329.692313 186.564994 
L 329.816833 186.573114 
L 330.391541 186.872347 
L 330.95741 187.222396 
L 331.065486 187.363683 
L 331.137962 187.612363 
L 331.153995 187.839041 
L 331.129082 188.184218 
L 331.146266 188.355994 
L 331.506836 188.827161 
L 331.790613 189.097529 
L 332.479029 189.554028 
L 332.705706 189.661997 
L 333.005845 189.680018 
L 333.362509 189.597614 
L 333.660058 189.604214 
L 333.893476 189.673994 
L 333.979723 189.735862 
L 334.056598 189.862062 
L 334.132979 190.046097 
L 334.160029 190.178793 
L 334.222762 190.300487 
L 334.315298 190.398398 
L 334.446766 190.485518 
L 335.001659 190.73666 
L 335.990625 192.050469 
L 336.329489 192.344673 
L 336.453105 192.414766 
L 336.897373 192.468568 
L 337.200636 192.437502 
L 338.187628 192.235499 
L 338.71428 192.053507 
L 338.893475 192.322094 
L 338.926773 192.529127 
L 338.969691 192.605664 
L 339.055569 192.628609 
L 339.413713 192.582614 
L 339.424977 192.802534 
L 339.401216 192.891224 
L 339.110244 193.238706 
L 338.885787 193.307018 
L 338.495167 193.613848 
L 337.992935 193.621182 
L 337.884941 193.926754 
L 337.634503 194.079043 
L 337.365114 194.327199 
L 337.393767 194.720205 
L 337.417569 194.801719 
L 337.4995 194.927499 
L 338.286743 196.606077 
L 338.365056 196.694716 
L 338.874946 197.030789 
L 338.908151 197.052675 
L 339.49182 197.263322 
L 339.897487 197.317333 
L 340.369627 197.307851 
L 340.555893 197.214445 
L 341.206489 196.796084 
L 341.407143 196.602096 
L 341.802039 196.066441 
L 341.968079 195.889007 
L 342.457321 195.518422 
L 342.714747 195.435023 
L 342.802598 195.45472 
L 343.065492 195.632521 
L 343.994849 196.370756 
L 344.395007 196.618283 
L 344.583287 196.695187 
L 344.636401 196.792731 
L 344.651323 197.078397 
L 344.562651 197.226913 
L 344.541068 197.370558 
L 344.716728 197.848326 
L 344.814116 197.976726 
L 345.116228 198.255423 
L 345.294396 198.079508 
L 345.385124 198.142163 
L 345.612129 198.235045 
L 345.985566 198.252909 
L 346.118349 198.311844 
L 346.308644 198.471309 
L 346.442619 198.537055 
L 346.612935 198.504261 
L 347.027645 198.50709 
L 347.168815 198.687091 
L 347.321001 198.948344 
L 347.457114 199.127821 
L 347.948206 199.618004 
L 348.549881 200.084875 
L 348.808253 200.214533 
L 349.37182 200.557561 
L 349.587438 200.700211 
L 349.71961 200.809042 
L 349.914709 200.969688 
L 350.14747 201.447508 
L 350.256903 201.583557 
L 350.295546 201.683511 
L 350.301835 201.959275 
L 350.262247 202.236925 
L 350.141386 202.615263 
L 350.045026 202.841312 
L 349.982581 203.088106 
L 350.063063 203.397802 
L 350.083175 203.475192 
L 350.173369 203.582218 
L 350.374681 203.704908 
L 350.741581 203.820788 
L 350.91017 203.788832 
L 351.405907 203.80591 
L 351.626253 203.682644 
L 351.790156 203.631043 
L 352.067438 203.599611 
L 352.103984 203.628581 
L 352.12273 203.680077 
L 352.112 203.884438 
L 352.136995 203.985701 
L 352.264762 204.106924 
L 352.41773 204.125365 
L 352.678815 204.292583 
L 352.918893 204.48149 
L 353.135827 204.968006 
L 353.303388 205.28699 
L 353.463591 205.509581 
L 353.866462 205.729396 
L 354.146499 205.827674 
L 355.299696 206.149067 
L 355.596711 206.186785 
L 355.83091 206.285953 
L 355.986386 206.388946 
L 356.202744 206.583458 
L 356.30264 206.732184 
L 356.394971 206.962581 
L 356.393697 207.200417 
L 356.316123 207.431443 
L 356.224902 207.88197 
L 356.196906 208.504639 
L 356.234891 208.781556 
L 356.236659 209.056482 
L 356.184204 209.148997 
L 356.160278 209.283736 
L 356.245333 209.533673 
L 356.455936 209.77942 
L 356.618852 210.130673 
L 357.472733 211.06803 
L 357.776654 211.502212 
L 357.854145 211.675874 
L 357.878071 211.809775 
L 357.874042 211.954991 
L 357.811638 212.182402 
L 357.664878 212.334953 
L 357.461634 212.446013 
L 357.133211 212.484622 
L 356.496388 212.273451 
L 356.315466 212.238456 
L 356.208787 212.254749 
L 356.07436 212.34674 
L 356.033415 212.430192 
L 356.014093 212.544605 
L 356.004086 212.901826 
L 356.00207 212.973787 
L 355.995365 213.213138 
L 355.987331 213.49993 
L 356.021534 213.862971 
L 356.187698 214.728768 
L 356.212528 214.818873 
L 356.378897 215.119992 
L 356.582018 215.407491 
L 356.768737 215.745491 
L 356.879156 216.003024 
L 356.983656 216.422433 
L 357.21543 216.995545 
L 357.894802 218.180534 
L 358.072559 218.438015 
L 358.904282 219.297368 
L 359.211615 219.713319 
L 359.364706 219.971534 
L 359.596521 220.513895 
L 359.933206 221.528941 
L 360.076061 222.070568 
L 360.123131 222.335384 
L 360.134066 222.566357 
L 360.093655 222.940294 
L 359.840915 224.217065 
L 359.777073 224.437195 
L 359.649716 224.69389 
L 359.518002 224.830881 
L 359.044588 225.038647 
L 358.749957 225.101093 
L 357.934103 225.159661 
L 357.537727 225.291623 
L 357.467071 225.334408 
L 357.340649 225.41096 
L 357.327704 225.426085 
L 357.250661 225.516101 
L 357.087621 225.860073 
L 356.926062 226.033211 
L 356.552625 226.338521 
L 356.489933 226.411967 
L 356.401836 226.591916 
L 356.311396 226.961191 
L 356.288251 227.194469 
L 356.241551 227.401973 
L 356.161347 227.576002 
L 356.132529 227.716713 
L 356.134708 227.918769 
L 356.188479 228.106157 
L 356.317028 228.355308 
L 356.610219 228.807249 
L 356.793978 229.058654 
L 357.037221 229.334418 
L 357.303239 229.709455 
L 357.352028 229.699371 
L 357.74352 229.618459 
L 358.100348 229.602481 
L 358.423673 229.698715 
L 358.504576 229.748116 
L 358.581245 229.848489 
L 358.605129 229.932046 
L 358.622149 230.16632 
L 358.602827 230.282933 
L 358.224704 231.253346 
L 358.219319 231.444244 
L 358.423015 232.222135 
L 358.456478 232.422986 
L 358.693144 233.020039 
L 359.426123 234.425734 
L 359.552452 234.907535 
L 359.948005 235.633354 
L 360.404688 236.324074 
L 360.517369 236.457294 
L 360.693275 236.624932 
L 361.269792 237.049789 
L 361.490837 237.244458 
L 361.650135 237.465216 
L 361.874797 237.919986 
L 362.00203 238.373132 
L 361.998043 238.657644 
L 361.867439 239.181827 
L 361.608574 239.849811 
L 361.598378 239.98696 
L 361.629334 240.347328 
L 361.659919 240.442148 
L 361.754183 240.621888 
L 361.892598 240.800265 
L 362.545413 241.295268 
L 363.219646 241.53808 
L 363.829379 241.830661 
L 364.165735 242.03214 
L 364.404745 242.206222 
L 364.590821 242.401106 
L 365.434039 243.284237 
L 365.989096 243.468586 
L 366.171211 243.372981 
L 366.361711 243.220744 
L 366.498276 243.06877 
L 366.609888 242.872425 
L 366.853214 242.063258 
L 366.754757 241.65506 
L 366.496467 241.372433 
L 366.026629 240.981785 
L 365.472887 240.758198 
L 365.054271 240.518581 
L 364.915158 240.383266 
L 364.806424 240.233073 
L 364.724041 240.058258 
L 364.665748 239.842005 
L 364.769713 239.293306 
L 364.792899 239.226094 
L 365.355685 239.347055 
L 365.781207 239.378958 
L 365.789305 239.427416 
L 365.917279 239.458167 
L 366.570546 239.479646 
L 366.757511 239.518569 
L 366.963304 239.102461 
L 367.344881 239.847977 
L 367.648884 240.630112 
L 367.821543 240.922221 
L 368.17389 241.247019 
L 369.014329 241.824846 
L 369.188838 242.028264 
L 369.283594 242.260913 
L 369.425791 242.872372 
L 369.42538 243.411066 
L 369.546324 243.923042 
L 369.817892 244.262351 
L 370.15729 244.400286 
L 370.454387 244.431037 
L 370.793168 244.301641 
L 371.281752 244.046622 
L 371.519035 243.968199 
L 371.654531 243.953374 
L 371.979253 243.81502 
L 372.145623 243.751737 
L 372.301797 243.739479 
L 372.580066 243.824345 
L 372.714493 243.90523 
L 372.941909 244.102833 
L 373.214012 244.462364 
L 373.349056 244.732523 
L 373.373187 244.897751 
L 373.379929 245.083148 
L 373.30104 245.80861 
L 373.300876 245.810119 
L 373.244515 246.062571 
L 372.946884 247.062531 
L 372.610199 248.776103 
L 372.517867 249.015196 
L 372.234665 249.57673 
L 372.019171 250.343464 
L 371.771487 250.871942 
L 371.372522 250.882471 
L 371.132484 250.911179 
L 370.97557 251.083794 
L 370.887761 251.125703 
L 370.58458 251.124446 
L 370.438272 251.1772 
L 370.314163 251.267095 
L 370.159674 251.478057 
L 370.119552 251.540554 
L 370.089336 251.709135 
L 370.102245 252.485193 
L 370.075318 252.675829 
L 370.095051 252.832308 
L 370.149808 252.971605 
L 370.246725 253.149623 
L 370.41077 253.450944 
L 370.518106 253.584426 
L 370.829756 253.828391 
L 371.034727 253.922058 
L 371.515006 253.962553 
L 371.967126 253.969102 
L 372.143362 253.997967 
L 372.365064 254.122019 
L 372.367079 254.124707 
L 372.492215 254.291647 
L 372.639797 254.630276 
L 372.671863 254.797075 
L 372.651472 255.051989 
L 372.543149 255.458249 
L 372.410284 255.717983 
L 372.258015 255.880853 
L 372.082684 255.882582 
L 371.872246 255.869276 
L 371.592908 255.69048 
L 371.204713 255.643594 
L 370.989547 255.6591 
L 370.582648 255.467102 
L 370.491467 255.475484 
L 370.062328 255.650509 
L 369.857686 255.781161 
L 369.568687 256.117537 
L 369.311549 256.526416 
L 369.229741 256.798565 
L 369.178396 257.240972 
L 369.191345 257.535962 
L 369.242814 257.750538 
L 369.38423 257.961552 
L 369.864551 258.52623 
L 370.255911 258.907501 
L 370.474366 259.173731 
L 370.536276 259.34996 
L 370.538537 259.733693 
L 370.476627 259.921919 
L 370.377348 260.03036 
L 370.507212 260.063573 
L 370.903629 260.353796 
L 370.676665 260.679642 
L 370.262247 261.185664 
L 370.259817 261.188632 
L 369.907099 261.488389 
L 369.725067 261.675881 
L 369.52803 261.943997 
L 369.31788 262.3139 
L 369.256956 262.486096 
L 369.184357 262.87753 
L 369.114265 263.747203 
L 368.663872 264.871267 
L 368.504204 265.078719 
L 368.098373 265.434111 
L 367.719222 265.567749 
L 366.824026 265.666027 
L 366.755127 265.655497 
L 366.423663 265.458575 
L 366.273491 265.328708 
L 365.976476 264.998043 
L 365.330978 264.158282 
L 365.048763 263.612988 
L 364.559439 262.775742 
L 364.364211 262.517004 
L 364.011617 262.143643 
L 363.976356 262.14325 
L 363.710902 262.14029 
L 363.311854 262.206245 
L 362.787423 262.339937 
L 362.415878 262.517004 
L 362.191668 262.738024 
L 362.00869 263.006297 
L 361.971116 263.103265 
L 361.903492 263.405641 
L 361.795333 264.294436 
L 361.708222 264.688751 
L 361.167759 265.943625 
L 361.138242 266.11231 
L 361.130678 266.345641 
L 361.053639 266.850964 
L 360.767149 267.592971 
L 360.288678 269.119103 
L 360.18685 269.388214 
L 360.056451 269.624741 
L 359.794626 270.017956 
L 359.48828 270.407871 
L 359.007096 270.932367 
L 358.817459 271.0966 
L 358.5151 271.261357 
L 358.362297 271.311176 
L 358.051305 271.321025 
L 357.853405 271.276758 
L 357.455344 271.079051 
L 357.272202 270.874323 
L 357.168278 270.633553 
L 357.132266 270.471102 
L 357.125113 270.327195 
L 357.156068 270.184284 
L 357.434995 269.332789 
L 357.487738 269.199884 
L 357.609134 268.956809 
L 357.82652 268.69807 
L 358.020802 268.348598 
L 358.176688 267.953078 
L 358.290972 267.49967 
L 358.309184 267.173981 
L 358.213975 266.614281 
L 357.984585 265.929533 
L 357.748124 265.495351 
L 357.674127 265.413365 
L 357.512034 265.305973 
L 356.885528 265.07107 
L 356.293883 264.992595 
L 356.119827 264.945709 
L 355.970353 264.868071 
L 355.754735 264.817413 
L 355.143193 264.84785 
L 354.99298 264.878077 
L 354.72466 265.025336 
L 354.500655 265.217282 
L 354.291162 265.466905 
L 354.141853 265.704374 
L 354.018937 266.023777 
L 353.948969 266.314523 
L 353.959986 266.588297 
L 354.008084 266.743152 
L 354.183497 267.130762 
L 354.407954 267.735934 
L 354.489967 267.910749 
L 354.655555 268.176717 
L 355.122803 268.808764 
L 355.275853 269.176676 
L 355.469395 269.517295 
L 355.95654 270.047816 
L 356.040075 270.18596 
L 356.08698 270.356165 
L 356.077977 270.797105 
L 356.024494 271.062601 
L 355.925585 271.343499 
L 355.85311 271.478709 
L 355.767438 271.606848 
L 355.208598 272.129982 
L 355.104263 272.276089 
L 355.036227 272.47804 
L 355.018057 272.69885 
L 355.028252 272.888543 
L 355.070759 273.066396 
L 355.148209 273.253993 
L 355.848875 274.283761 
L 356.314931 275.098637 
L 356.461938 275.440985 
L 356.49573 275.61339 
L 356.488988 275.688775 
L 356.346914 276.407993 
L 356.107576 276.999807 
L 355.955677 277.199453 
L 355.77751 277.362376 
L 355.580473 277.489833 
L 355.323252 277.58151 
L 355.038488 277.6175 
L 354.404048 277.568413 
L 353.532655 277.326858 
L 352.755361 277.293959 
L 352.544717 277.333301 
L 352.338307 277.427178 
L 352.126512 277.655428 
L 351.96376 277.997985 
L 351.945056 278.340595 
L 351.986699 278.460037 
L 352.291853 279.069714 
L 353.196217 279.71271 
L 353.421619 279.894702 
L 353.661903 280.157841 
L 354.65687 280.711359 
L 354.865295 280.659025 
L 354.973905 280.570544 
L 355.04708 280.569548 
L 355.26537 280.731424 
L 355.33986 280.84086 
L 355.428081 281.089068 
L 355.470094 281.546877 
L 355.46031 282.030197 
L 355.275976 282.22691 
L 355.177643 282.275629 
L 355.0493 282.296951 
L 354.876271 282.259442 
L 354.686716 282.147282 
L 354.504684 282.110821 
L 354.331408 282.117526 
L 354.216672 282.161636 
L 353.849525 282.487691 
L 353.700874 282.570515 
L 353.298743 282.716045 
L 352.680131 282.788234 
L 352.510103 282.776604 
L 352.319561 282.727204 
L 351.774 282.515875 
L 351.265314 282.265781 
L 351.043652 282.192072 
L 350.618747 282.128894 
L 349.569309 282.255041 
L 349.232912 282.190972 
L 349.024118 282.056233 
L 348.862682 282.020244 
L 348.725664 282.134185 
L 348.674319 282.249803 
L 348.522461 282.51027 
L 348.447766 282.694357 
L 348.438845 282.786663 
L 348.450972 282.868805 
L 348.483489 282.926431 
L 348.680074 283.169872 
L 348.969771 283.476964 
L 349.27962 283.750056 
L 349.507563 283.950959 
L 350.14081 284.442924 
L 350.521811 284.704334 
L 350.936439 285.093515 
L 351.261079 285.363308 
L 351.566973 285.550276 
L 351.799159 285.668356 
L 352.028384 285.834003 
L 352.489795 286.294326 
L 352.741918 286.641179 
L 353.008059 287.117951 
L 353.09813 287.397539 
L 353.122836 287.713118 
L 353.102405 288.156257 
L 353.062611 288.46733 
L 353.02438 288.598769 
L 352.821053 288.882286 
L 352.698136 289.003195 
L 352.155823 289.29939 
L 351.746785 289.597209 
L 351.614126 289.664159 
L 351.009203 289.833526 
L 350.405348 290.068847 
L 350.039928 290.243086 
L 349.798822 290.450799 
L 349.537449 290.828037 
L 349.487789 290.940249 
L 349.408983 291.472394 
L 349.306497 292.552453 
L 349.190775 293.47818 
L 349.136387 293.730161 
L 348.977705 294.18755 
L 348.519995 294.840656 
L 348.433418 294.998969 
L 348.381826 295.210455 
L 347.306284 295.229995 
L 347.122567 295.2345 
L 347.119113 295.232143 
L 345.790256 295.233767 
L 345.778663 295.234395 
L 341.718916 295.280705 
L 341.489526 295.284111 
L 341.469177 295.283953 
L 341.448581 295.284792 
L 340.588493 295.291602 
L 340.396307 295.295112 
L 340.386861 295.295183 
L 338.003993 295.313185 
L 337.982781 295.313185 
L 337.93419 295.307161 
L 337.759393 295.324029 
L 337.461926 295.314547 
L 332.065141 295.359128 
L 331.139853 295.387784 
L 331.099525 295.385741 
L 329.805364 295.399362 
L 324.46165 295.449443 
L 324.455605 295.449491 
L 324.314643 295.450596 
L 322.380123 295.469665 
L 322.249313 295.476894 
L 321.176278 295.481242 
L 320.799224 295.488 
L 321.891909 293.853689 
L 322.383864 292.793799 
L 322.63389 291.725527 
L 323.241074 291.305909 
L 323.213243 290.548291 
L 324.004926 290.115576 
L 324.227656 289.344809 
L 324.875867 289.111321 
L 325.826643 288.604217 
L 326.649281 287.955249 
L 326.658119 286.924329 
L 327.272497 285.582651 
L 327.71027 285.727239 
L 328.088229 285.194098 
L 328.546346 284.768429 
L 328.817055 284.516894 
L 329.923923 284.047194 
L 330.486627 283.342696 
L 331.139195 283.246043 
L 331.155968 282.51006 
L 331.60965 281.348173 
L 332.89189 280.995244 
L 333.094312 280.145792 
L 333.703839 279.386654 
L 333.046049 278.570416 
L 333.152111 277.397789 
L 333.722503 276.56442 
L 333.615207 275.026291 
L 333.027756 274.267154 
L 331.83275 274.093754 
L 330.947133 273.517709 
L 330.424839 273.027159 
L 330.819776 272.389664 
L 330.521199 271.170518 
L 330.485434 270.528046 
L 329.782215 270.067112 
L 329.74966 270.045773 
L 330.008484 269.312358 
L 329.986368 269.234406 
L 330.065626 269.175733 
L 328.361153 269.182491 
L 327.400018 269.183853 
L 327.26111 269.180658 
L 327.259877 269.180674 
L 326.922328 269.185215 
L 322.361295 269.16206 
L 316.002387 269.15394 
L 315.983806 269.153783 
L 315.772792 269.152316 
L 312.65046 269.149854 
L 312.647683 269.149835 
L 312.271021 269.147182 
L 311.902764 269.149173 
L 311.444396 269.149173 
L 311.152355 269.143934 
L 309.674888 269.149802 
L 309.479536 269.147654 
L 307.845072 269.146501 
L 307.09602 269.15656 
L 304.857784 269.14734 
L 304.167888 269.14582 
L 304.087962 269.145783 
L 301.373279 269.144511 
L 300.413747 269.169342 
L 300.29897 269.156822 
L 300.286637 269.151059 
L 300.189907 269.153416 
L 296.842461 269.150902 
L 296.743182 269.151321 
L 295.99536 269.154421 
L 294.872915 269.159074 
L 294.48583 269.169971 
L 291.28317 269.180029 
L 291.26685 269.178824 
L 290.023212 269.188306 
L 286.289214 269.198836 
L 286.236389 269.196059 
L 285.876559 269.193283 
L 278.578963 269.219319 
L 278.569672 269.216962 
L 278.487618 269.219738 
L 278.482521 269.219162 
L 277.412158 269.21188 
L 277.280444 269.205856 
L 276.878313 269.201036 
L 276.725372 269.196176 
L 274.664331 269.130681 
L 273.446099 269.119679 
L 273.154387 269.11266 
L 273.052066 269.114755 
L 272.649031 269.112398 
L 270.714839 269.112345 
L 270.505018 269.102863 
L 269.831748 269.106993 
L 269.266724 269.110459 
L 268.808314 269.103282 
L 267.58519 269.096577 
L 267.022691 269.101239 
L 266.957369 269.100034 
L 265.352133 269.109883 
L 263.730454 269.11486 
L 262.965739 269.116955 
L 262.357857 269.123346 
L 262.253439 269.12277 
L 262.091427 269.121513 
L 259.690481 269.131885 
L 259.624295 269.1322 
L 254.699115 269.15064 
L 254.577884 269.14713 
L 253.318953 269.145768 
L 252.929566 269.139586 
L 251.822 269.13812 
L 251.764899 269.13812 
L 251.034962 269.133352 
L 250.072101 269.131152 
L 249.169752 269.127956 
L 249.165272 269.128008 
L 248.453012 269.136234 
L 247.93692 269.14002 
L 245.918419 269.154831 
L 245.422929 269.152526 
L 245.31218 269.153731 
L 245.218903 269.151373 
L 241.395247 269.178772 
L 241.025633 269.188358 
L 239.715809 269.184377 
L 238.692928 269.21518 
L 238.291372 269.181339 
L 236.833802 269.177724 
L 235.857621 269.145663 
L 232.868688 269.134557 
L 232.363368 269.141322 
L 230.920026 269.160646 
L 222.36539 269.185163 
L 219.640337 269.16908 
L 219.629855 269.17149 
L 219.006084 269.174129 
L 217.363705 269.181077 
L 217.349934 269.180186 
L 210.192027 269.160122 
L 210.148574 269.160541 
L 209.403551 269.160698 
L 209.34793 269.163579 
L 207.827667 269.181024 
L 206.792442 269.177144 
L 201.051216 269.155624 
L 200.941953 269.155215 
L 200.043402 269.151847 
L 200.042885 269.151845 
L 196.779589 269.14603 
L 196.723639 269.138172 
L 195.452951 269.142572 
L 192.146984 269.125494 
L 191.854943 269.127066 
L 188.98679 269.12628 
L 185.083714 269.116023 
L 184.222635 269.11376 
L 183.820381 269.111455 
L 183.452987 269.111507 
L 183.097022 269.117951 
L 183.0777 269.118894 
L 177.374359 269.131911 
L 175.75589 269.135605 
L 175.109981 269.135605 
L 173.57455 269.135657 
L 173.380103 269.135657 
L 168.878528 269.134998 
L 168.727806 269.134976 
L 167.843998 269.137805 
L 167.775592 269.13812 
L 167.347192 269.142468 
L 167.314305 269.141944 
L 164.439132 269.127228 
L 160.82698 269.108741 
L 157.048083 269.0894 
L 150.541512 269.109621 
L 148.904869 269.094848 
L 146.494673 269.099144 
L 146.496399 268.282695 
L 146.496153 268.136012 
L 146.491466 267.272625 
L 146.496769 267.177805 
L 146.495577 267.131024 
L 146.498234 265.469062 
L 146.498989 264.996314 
L 146.497386 263.875865 
L 146.496893 263.470863 
L 146.498948 263.169482 
L 146.490544 260.27159 
L 146.490315 260.192549 
L 146.485999 258.516538 
L 146.478722 255.104219 
L 146.475721 250.873461 
L 146.464293 249.158107 
L 146.481353 248.26947 
L 146.47975 247.512743 
L 146.482812 246.744735 
L 146.482833 246.739304 
L 146.479216 246.560613 
L 146.484519 246.144819 
L 146.486862 245.674385 
L 146.490274 245.486107 
L 146.490069 243.152484 
L 146.489329 243.073695 
L 146.492823 242.932408 
L 146.491549 242.402725 
L 146.492782 240.75144 
L 146.496482 239.899578 
L 146.492083 238.942 
L 146.48641 238.373236 
L 146.487972 238.347148 
L 146.487643 237.977192 
L 146.487725 237.96792 
L 146.488918 237.810497 
L 146.485135 237.428493 
L 146.482628 236.946482 
L 146.48826 236.077594 
L 146.488383 235.941913 
L 146.476925 234.483572 
L 146.476914 234.482102 
L 146.471898 233.718774 
L 146.470583 233.383394 
L 146.478229 232.985778 
L 146.478412 232.676015 
L 146.478805 232.013322 
L 146.48234 231.990533 
L 146.484047 231.349091 
L 146.485177 230.924514 
L 146.486287 230.860969 
L 146.484848 230.428097 
L 146.48826 230.279371 
L 146.505813 225.923251 
L 146.503881 225.228969 
L 146.506307 225.14646 
L 146.510347 223.797494 
L 146.510377 223.787651 
L 146.506718 223.625775 
L 146.506759 223.618913 
L 146.509554 222.110225 
L 146.511445 221.348835 
L 146.521558 220.582574 
L 146.527026 219.834385 
L 146.524189 219.050155 
L 146.524025 218.757575 
L 146.523326 218.752179 
L 146.525053 218.504546 
L 146.524929 218.270796 
L 146.531507 217.532143 
L 146.541126 215.554803 
L 146.536234 215.22508 
L 146.524806 213.879735 
L 146.525875 213.67946 
L 146.529122 213.171046 
L 146.519503 212.936039 
L 146.520818 212.915241 
L 146.514857 210.944135 
L 146.520119 210.893163 
L 146.512843 209.495745 
L 146.508797 208.636257 
L 146.508773 208.631311 
L 146.502285 207.613206 
L 146.502278 207.612073 
L 146.496071 207.136034 
L 146.50421 206.903489 
L 146.50569 206.850159 
L 146.499359 206.718826 
L 146.492371 205.042553 
L 146.499236 204.648028 
L 146.502812 202.381617 
L 146.538125 199.946365 
L 146.555062 198.997954 
L 146.556049 198.593423 
L 146.562299 198.259791 
L 146.573562 197.658633 
L 146.580386 197.167035 
L 146.576809 196.862092 
L 146.585648 196.416175 
L 146.595391 195.633935 
L 146.598515 195.392066 
L 146.60723 194.891667 
L 146.623797 193.935293 
L 146.621454 193.804326 
L 146.624784 193.591164 
L 146.630621 193.402939 
L 146.631361 193.108734 
L 146.632677 193.028111 
L 146.632882 192.005521 
L 146.636664 191.127413 
L 146.647065 190.883133 
L 146.656561 188.552602 
L 146.656547 188.546926 
L 146.653523 187.342107 
L 146.653519 187.340424 
L 146.652121 187.035899 
L 146.653272 186.960357 
L 146.6617 182.642323 
L 146.66614 182.073193 
L 146.679541 181.692079 
L 146.693888 180.505832 
L 146.703138 179.973477 
L 146.704207 179.80563 
L 146.710949 179.086307 
L 146.710908 179.002383 
L 146.711894 178.597119 
L 146.712758 178.032441 
L 146.709551 176.323165 
L 146.703097 175.300574 
L 146.703302 175.221523 
L 146.710332 174.63982 
L 146.710332 173.9952 
L 146.705605 173.717026 
L 146.704083 173.494644 
L 146.696889 172.896701 
L 146.684063 171.398124 
L 146.683364 171.125137 
L 146.685568 170.124529 
L 146.685995 169.930298 
L 146.681884 169.354253 
L 146.690397 167.742368 
L 146.702398 165.469824 
L 146.702437 165.468182 
L 146.709387 165.177349 
L 146.708153 165.113804 
L 146.711524 164.732585 
L 146.718893 163.312152 
L 146.726733 161.800857 
L 146.726817 161.784622 
L 146.731544 161.685087 
L 146.730763 160.28484 
L 146.742027 160.098134 
L 146.742644 160.096615 
L 146.741781 158.57043 
L 146.743836 157.983017 
L 146.759992 157.745914 
L 146.75436 157.202506 
L 146.840404 151.821447 
L 146.842581 151.685337 
L 146.844924 151.594184 
L 146.90075 147.999192 
L 146.915861 147.235607 
L 146.917852 147.13502 
L 146.901079 146.105776 
L 146.901079 145.697159 
L 146.901079 145.372361 
L 146.902605 145.077685 
L 146.902724 145.054687 
L 146.901079 145.010892 
L 146.901079 144.953267 
L 146.901079 144.188419 
L 146.901285 143.935271 
L 146.901383 143.814636 
L 146.901712 143.409792 
L 146.903266 141.499561 
L 146.903339 141.409823 
L 146.90334 141.408618 
L 146.907944 141.380958 
L 146.896927 141.244333 
L 146.896927 141.13956 
L 146.893885 140.36817 
L 146.889342 139.21599 
L 146.888705 139.054565 
L 146.90275 137.689531 
L 146.922273 135.791928 
L 146.922573 135.762797 
L 146.933925 134.659417 
L 146.929815 133.821228 
L 146.933925 133.407373 
L 146.933903 133.401724 
L 146.928992 132.158471 
L 146.942147 131.846246 
L 146.995589 131.699563 
L 147.213469 131.369578 
L 147.538273 130.981916 
L 147.645157 130.746175 
L 147.562939 129.981328 
L 147.394391 129.839884 
L 147.160068 129.740349 
L 146.868151 129.693201 
L 146.580386 129.719394 
L 146.2474 129.897509 
L 145.5855 130.080863 
L 145.145631 130.028476 
L 144.664652 129.845122 
L 144.751804 129.297785 
L 144.675891 128.994051 
L 144.607099 128.718806 
L 144.38922 128.566884 
L 143.928755 128.446395 
L 143.645101 128.488304 
L 143.271171 128.747095 
L 142.53922 129.174571 
L 142.148682 129.247913 
L 141.618372 129.237435 
L 141.396851 129.185169 
L 141.396341 129.185049 
L 140.968804 129.027888 
L 140.524824 128.676897 
L 140.228837 128.147842 
L 140.015069 127.592542 
L 139.920517 127.439573 
L 139.769235 127.30211 
L 139.673862 127.249304 
L 139.529774 127.222482 
L 139.023307 127.308815 
L 138.529996 127.278641 
L 138.159026 127.172191 
L 138.031423 127.106812 
L 137.707153 126.789138 
L 137.630155 126.691908 
L 137.568326 126.541873 
L 137.574904 126.375073 
L 137.866985 125.842875 
L 137.936049 125.618241 
L 137.954466 125.43803 
L 137.879483 125.010554 
L 137.715703 124.676117 
L 137.453262 124.354252 
L 137.105272 124.036578 
L 136.663264 123.756623 
L 136.231781 123.546238 
L 135.789774 123.373623 
L 135.614813 123.258792 
L 135.430644 123.093668 
L 135.095151 122.688823 
L 134.896511 122.375341 
L 134.769565 122.056829 
L 134.679454 121.759272 
L 134.627108 121.473748 
L 134.566979 121.14577 
L 134.461081 119.853283 
L 134.480683 119.684831 
L 134.486734 119.632839 
L 134.511728 119.543153 
L 134.598551 119.413234 
L 134.795875 119.222127 
L 134.938648 119.114838 
L 135.028759 119.077958 
L 135.271469 119.03102 
L 135.506285 118.880146 
L 135.664802 118.698259 
L 135.758203 118.419561 
L 135.750268 118.20598 
L 135.680465 117.990199 
L 135.514096 117.681012 
L 135.351878 117.543182 
L 135.233771 117.497029 
L 135.104935 117.483828 
L 134.823583 117.524008 
L 134.504657 117.730046 
L 134.246573 117.861903 
L 134.108199 117.923405 
L 133.94849 117.959133 
L 133.515116 117.903917 
L 133.370986 117.852316 
L 133.342228 117.831835 
L 133.26661 117.77798 
L 133.170332 117.696832 
L 133.024887 117.468845 
L 132.998166 117.374706 
L 132.980284 117.161544 
L 132.995453 116.850943 
L 132.93087 116.695983 
L 132.79336 116.533426 
L 132.645038 116.421476 
L 132.182599 116.241056 
L 132.068208 116.14755 
L 131.899521 116.009663 
L 131.749307 115.747939 
L 131.659196 115.248169 
L 131.521644 115.022329 
L 131.191619 114.726867 
L 130.961571 114.623037 
L 130.137043 114.380224 
L 129.616065 114.093249 
L 129.414218 113.95762 
L 129.245999 113.810256 
L 129.11116 113.668916 
L 128.908245 113.350823 
L 128.849993 113.219228 
L 128.799141 112.933772 
L 128.738505 112.200619 
L 128.70944 112.038272 
L 128.642638 111.908248 
L 128.469856 111.699958 
L 128.343198 111.586226 
L 127.604053 111.198092 
L 127.387284 111.03255 
L 126.976602 110.63813 
L 126.557945 110.161096 
L 126.405512 109.935309 
L 126.294188 109.692862 
L 126.11935 109.082242 
L 126.139083 108.81025 
L 126.37024 108.03964 
L 126.413323 107.965827 
L 126.543968 107.833236 
L 126.713873 107.733282 
L 126.851959 107.684719 
L 127.107699 107.663241 
L 127.635008 107.886618 
L 127.821151 107.92025 
L 127.938107 107.915221 
L 128.135267 107.86823 
L 128.340814 107.762566 
L 128.448602 107.687391 
L 128.534644 107.586756 
L 128.761855 107.215072 
L 128.848678 106.925163 
L 128.881729 106.692566 
L 128.878276 106.585225 
L 128.81801 106.33995 
L 128.608312 105.937777 
L 128.592774 105.866607 
L 128.520338 105.534817 
L 128.52967 105.35995 
L 128.593718 105.079576 
L 128.751947 104.685156 
L 128.956014 104.344956 
L 129.182321 104.06893 
L 129.247479 103.897834 
L 129.651172 103.240432 
L 129.776514 103.081648 
L 130.034557 102.851984 
L 130.158214 102.779009 
L 130.416668 102.700272 
L 130.730907 102.662868 
L 131.052464 102.658101 
L 131.43922 102.591046 
L 131.545775 102.549974 
L 131.760859 102.406644 
L 131.966734 102.142615 
L 132.024616 102.004313 
L 132.062766 101.799795 
L 132.084471 101.042911 
L 131.97656 100.218133 
L 131.971298 99.895483 
L 132.003527 99.747962 
L 132.213349 99.384188 
L 132.428433 99.17464 
L 132.625757 99.037177 
L 132.734944 99.022928 
L 132.895434 99.042207 
L 133.059255 99.105909 
L 133.286178 99.25254 
L 133.665041 99.577757 
L 134.145239 99.922252 
L 134.484637 100.079832 
L 134.791148 100.162813 
L 134.926644 100.171194 
L 135.237923 100.126561 
L 135.550395 100.027026 
L 135.899824 99.833195 
L 136.125925 99.618409 
L 136.421912 99.17836 
L 136.527645 98.83596 
L 136.564357 98.626042 
L 136.565794 98.617821 
L 136.512352 98.125385 
L 136.41369 97.905361 
L 136.327361 97.758677 
L 136.249253 97.674859 
L 136.146439 97.611994 
L 136.084775 97.606756 
L 135.662253 97.697699 
L 135.660691 97.697699 
L 135.559398 97.753858 
L 135.159734 98.067026 
L 135.156527 98.069541 
L 135.148511 98.075827 
L 135.142262 98.080752 
L 135.102386 98.111974 
L 135.093054 98.119308 
L 134.933221 98.221567 
L 134.641839 98.317959 
L 134.393169 98.32215 
L 134.208341 98.238331 
L 133.82027 97.947479 
L 133.679512 97.810855 
L 133.490039 97.572809 
L 133.447285 97.469712 
L 133.427553 97.297045 
L 133.451232 97.075763 
L 133.553183 96.91064 
L 133.679471 96.805866 
L 133.845922 96.728753 
L 135.187729 96.658345 
L 135.297614 96.630685 
L 135.552821 96.49406 
L 135.682397 96.331451 
L 135.871006 95.830843 
L 135.88745 95.495568 
L 135.862785 95.113144 
L 135.860937 95.098261 
L 135.84223 94.947602 
L 135.775098 94.802595 
L 135.679067 94.676867 
L 135.4357 94.458099 
L 135.33046 94.409484 
L 135.199568 94.391044 
L 134.768743 94.418704 
L 134.489817 94.38853 
L 134.203038 94.298843 
L 133.823517 94.02727 
L 133.350555 93.583868 
L 133.263732 93.471551 
L 133.148626 93.2268 
L 133.155204 92.992945 
L 133.22361 92.817764 
L 133.303855 92.684492 
L 133.605104 92.388611 
L 133.728308 92.19258 
L 133.778215 91.987538 
L 133.773816 91.793288 
L 133.7517 91.680865 
L 133.682759 91.54246 
L 133.480543 91.300852 
L 133.095184 91.051281 
L 132.779753 90.925395 
L 132.461731 90.865779 
L 132.294458 90.893806 
L 131.70232 91.085751 
L 131.323045 91.127766 
L 131.187015 91.109954 
L 131.058497 91.068923 
L 130.630601 90.93231 
L 130.440635 90.922095 
L 130.246928 90.95578 
L 130.017086 91.09099 
L 129.784983 91.414217 
L 129.749999 91.492902 
L 129.720934 91.6476 
L 129.754973 92.062189 
L 129.742517 92.173354 
L 129.639374 92.445189 
L 129.469921 92.612041 
L 129.235023 92.758462 
L 129.05517 92.797071 
L 128.627921 92.81965 
L 127.435793 92.958789 
L 127.293185 92.950145 
L 127.081266 92.884295 
L 126.433631 92.568717 
L 125.518785 92.306731 
L 125.248244 92.165967 
L 125.151843 92.087439 
L 125.007591 91.912625 
L 124.920562 91.692548 
L 124.892402 91.510923 
L 124.931785 91.193249 
L 124.926934 91.05851 
L 124.876 90.85284 
L 124.783381 90.734184 
L 124.635305 90.641721 
L 124.373562 90.57388 
L 124.216936 90.587448 
L 123.704632 90.847182 
L 123.410413 90.95007 
L 122.994716 90.955465 
L 122.81996 90.917171 
L 122.592585 90.811402 
L 122.486194 90.740994 
L 122.330061 90.519817 
L 122.311027 90.452657 
L 122.305683 90.318337 
L 122.329568 90.158662 
L 122.483111 89.777862 
L 122.537375 89.478367 
L 122.513244 89.162003 
L 122.383708 88.912904 
L 122.001022 88.689893 
L 121.889904 88.65076 
L 121.73484 88.625615 
L 121.286666 88.659614 
L 121.054522 88.651913 
L 120.864515 88.598583 
L 120.499834 88.405014 
L 120.195708 88.078016 
L 120.022967 87.777734 
L 119.692777 87.317883 
L 119.492534 87.175443 
L 118.877621 86.882549 
L 118.351751 86.534124 
L 118.162484 86.28492 
L 118.134982 86.20613 
L 118.10933 86.041636 
L 118.114016 85.714742 
L 118.106658 85.599701 
L 117.995909 85.305706 
L 117.952827 85.222463 
L 117.827032 85.082329 
L 117.714228 85.022293 
L 117.283156 84.894417 
L 116.964929 84.71384 
L 116.540229 84.233558 
L 116.449625 84.179861 
L 116.116681 84.063301 
L 115.824517 84.064558 
L 115.044509 84.294326 
L 114.870288 84.312243 
L 114.692203 84.297155 
L 114.514158 84.245816 
L 114.234328 84.11333 
L 114.04543 83.980006 
L 113.785291 83.701727 
L 113.652261 83.449694 
L 113.549652 83.176916 
L 113.454279 82.626331 
L 113.495265 82.435276 
L 113.589734 82.230443 
L 113.73818 82.056991 
L 113.938711 81.82125 
L 113.996305 81.567803 
L 113.963911 81.30545 
L 113.906358 80.919621 
L 114.031823 80.579159 
L 114.33817 80.306329 
L 114.46121 80.204436 
L 114.58166 80.043085 
L 114.6291 79.890535 
L 114.638226 79.643688 
L 114.617384 79.469502 
L 114.534261 79.280962 
L 114.398682 79.09195 
L 114.163209 78.955797 
L 113.954127 78.901629 
L 113.555161 78.873654 
L 113.325196 78.759504 
L 113.162033 78.612192 
L 113.068592 78.463728 
L 113.021604 78.326789 
L 112.971903 78.060192 
L 112.953486 77.702862 
L 112.912582 77.541406 
L 112.849644 77.399804 
L 112.670983 77.213202 
L 112.583667 77.161916 
L 112.086203 76.988201 
L 111.846659 76.852205 
L 111.422905 76.446888 
L 111.207204 76.180868 
L 111.088316 75.988923 
L 111.01321 75.838468 
L 110.950724 75.641546 
L 110.941803 75.376311 
L 110.959809 75.202335 
L 111.139497 74.784498 
L 111.323626 74.530998 
L 111.408969 74.329256 
L 111.463726 74.110594 
L 111.477827 73.775266 
L 111.451887 73.622768 
L 111.361488 73.347266 
L 111.157873 72.999313 
L 110.94094 72.813182 
L 110.808732 72.731878 
L 110.630359 72.672105 
L 110.222267 72.637372 
L 109.597612 72.696255 
L 109.331634 72.645702 
L 108.294242 72.142998 
L 108.075828 71.994324 
L 107.999735 71.916216 
L 107.979454 71.860432 
L 107.917475 71.689957 
L 107.919531 71.530334 
L 108.116321 70.99075 
L 108.13778 70.734788 
L 108.110894 70.592349 
L 108.04216 70.461801 
L 107.818525 70.219983 
L 107.677726 70.13695 
L 107.431769 70.044226 
L 106.870751 70.020599 
L 106.641196 69.912211 
L 106.526337 69.831011 
L 106.177237 69.484735 
L 105.911959 69.340671 
L 105.692887 69.266753 
L 105.567915 69.252975 
L 105.384897 69.279431 
L 105.167757 69.345386 
L 104.629349 69.596528 
L 104.384667 69.682966 
L 104.258585 69.700359 
L 104.004611 69.648443 
L 103.89004 69.584427 
L 103.765314 69.429886 
L 103.736661 69.333284 
L 103.747391 69.171514 
L 103.794749 68.978888 
L 103.913267 68.815598 
L 104.151618 68.6598 
L 104.732246 68.463821 
L 104.89138 68.37492 
L 105.085909 68.202358 
L 105.169032 67.988672 
L 105.188682 67.858281 
L 105.146586 67.5591 
L 105.1019 67.420433 
L 105.006979 67.232573 
L 104.827866 66.996309 
L 104.601354 66.784142 
L 104.435437 66.520165 
L 104.378418 66.340479 
L 104.367524 66.069534 
L 104.389394 65.899696 
L 104.315932 65.448855 
L 104.090489 64.961658 
L 103.691071 64.304675 
L 103.595327 63.924504 
L 103.62583 63.772897 
L 103.724945 63.474449 
L 103.808068 63.25301 
L 103.835118 62.940208 
L 103.729878 62.565957 
L 103.432946 62.078655 
L 103.172765 61.789847 
L 102.949459 61.608431 
L 102.653925 61.440374 
L 102.293396 61.124482 
L 102.230993 61.016775 
L 102.160531 60.783915 
L 102.144457 60.629269 
L 102.167068 60.458279 
L 102.206491 60.2239 
L 102.227909 59.856407 
L 102.177797 59.570951 
L 102.012373 59.244896 
L 102.191815 59.182136 
L 102.336561 59.095174 
L 103.327377 58.73753 
L 103.586119 58.614473 
L 103.833309 58.28716 
L 103.973574 57.524566 
L 103.92638 57.326596 
L 103.826156 57.07954 
L 103.569264 56.904044 
L 103.429945 56.551638 
L 103.172272 56.24046 
L 102.885987 56.243918 
L 102.541039 56.343243 
L 102.251712 56.538227 
L 102.221537 56.864178 
L 102.14787 57.156653 
L 102.122875 57.58371 
L 102.21459 57.785976 
L 102.125794 58.029417 
L 101.657929 58.392248 
L 101.601075 58.274535 
L 101.423606 58.095896 
L 101.088442 58.048224 
L 100.97457 58.066298 
L 100.729353 58.188726 
L 100.479778 58.26762 
L 100.009899 58.249547 
L 99.663348 58.159703 
L 99.427093 58.03497 
L 99.260066 57.867752 
L 99.187179 57.734532 
L 99.163007 57.600946 
L 99.198731 57.407586 
L 99.351493 57.126059 
L 99.395562 56.991058 
L 99.406168 56.860144 
L 99.38697 56.699002 
L 99.337762 56.539327 
L 99.060439 56.05674 
L 98.940071 55.66693 
L 98.987552 55.424326 
" clip-path="url(#p68c4688914)" style="fill: #ffc733"/>
   </g>
   <g id="text_1">
    <!-- MO -->
    <g transform="translate(226.26 35.472) scale(0.12 -0.12)">
     <defs>
      <path id="DejaVuSans-4d" d="M 628 4666 
L 1569 4666 
L 2759 1491 
L 3956 4666 
L 4897 4666 
L 4897 0 
L 4281 0 
L 4281 4097 
L 3078 897 
L 2444 897 
L 1241 4097 
L 1241 0 
L 628 0 
L 628 4666 
z
" transform="scale(0.015625)"/>
      <path id="DejaVuSans-4f" d="M 2522 4238 
Q 1834 4238 1429 3725 
Q 1025 3213 1025 2328 
Q 1025 1447 1429 934 
Q 1834 422 2522 422 
Q 3209 422 3611 934 
Q 4013 1447 4013 2328 
Q 4013 3213 3611 3725 
Q 3209 4238 2522 4238 
z
M 2522 4750 
Q 3503 4750 4090 4092 
Q 4678 3434 4678 2328 
Q 4678 1225 4090 567 
Q 3503 -91 2522 -91 
Q 1538 -91 948 565 
Q 359 1222 359 2328 
Q 359 3434 948 4092 
Q 1538 4750 2522 4750 
z
" transform="scale(0.015625)"/>
     </defs>
     <use xlink:href="#DejaVuSans-4d"/>
     <use xlink:href="#DejaVuSans-4f" x="86.279297"/>
    </g>
   </g>
  </g>
 </g>
 <defs>
  <clipPath id="p68c4688914">
   <rect x="85.218078" y="41.472" width="301.883844" height="266.112"/>
  </clipPath>
 </defs>
</svg>
