<?xml version="1.0" encoding="utf-8" standalone="no"?>
<!DOCTYPE svg PUBLIC "-//W3C//DTD SVG 1.1//EN"
  "http://www.w3.org/Graphics/SVG/1.1/DTD/svg11.dtd">
<svg xmlns:xlink="http://www.w3.org/1999/xlink" width="360pt" height="360pt" viewBox="0 0 360 360" xmlns="http://www.w3.org/2000/svg" version="1.1">
 <metadata>
  <rdf:RDF xmlns:dc="http://purl.org/dc/elements/1.1/" xmlns:cc="http://creativecommons.org/ns#" xmlns:rdf="http://www.w3.org/1999/02/22-rdf-syntax-ns#">
   <cc:Work>
    <dc:type rdf:resource="http://purl.org/dc/dcmitype/StillImage"/>
    <dc:date>2023-06-19T15:20:27.226926</dc:date>
    <dc:format>image/svg+xml</dc:format>
    <dc:creator>
     <cc:Agent>
      <dc:title>Matplotlib v3.7.1, https://matplotlib.org/</dc:title>
     </cc:Agent>
    </dc:creator>
   </cc:Work>
  </rdf:RDF>
 </metadata>
 <defs>
  <style type="text/css">*{stroke-linejoin: round; stroke-linecap: butt}</style>
 </defs>
 <g id="figure_1">
  <g id="patch_1">
   <path d="M 0 360 
L 360 360 
L 360 0 
L 0 0 
z
" style="fill: #ffffff"/>
  </g>
  <g id="axes_1">
   <g id="PatchCollection_1">
    <path d="M 57.699726 143.75731 
L 57.699692 143.312893 
L 57.69967 143.032623 
L 57.698881 132.779854 
L 61.353063 132.775927 
L 66.130608 132.781312 
L 77.111654 132.806146 
L 81.296728 132.797107 
L 85.616996 132.786992 
L 88.230659 132.779453 
L 91.710559 132.774955 
L 94.426472 132.781755 
L 96.067889 132.793539 
L 99.530536 132.821857 
L 105.827987 132.841538 
L 111.379444 132.844791 
L 114.553373 132.843777 
L 119.649011 132.833155 
L 123.773584 132.827136 
L 127.183859 132.827664 
L 131.19784 132.824792 
L 134.545946 132.826271 
L 139.12087 132.829924 
L 143.129867 132.827179 
L 146.666594 132.839237 
L 149.105679 132.854568 
L 152.591302 132.86745 
L 156.358547 132.860481 
L 158.623835 132.856215 
L 164.239933 132.849732 
L 166.699206 132.838117 
L 166.715107 132.837336 
L 169.748458 132.827157 
L 173.256782 132.822216 
L 174.225966 132.82089 
L 175.323331 132.819388 
L 177.762883 132.81605 
L 184.778729 132.806758 
L 192.403644 132.79715 
L 196.219459 132.791555 
L 196.220536 132.791553 
L 201.481079 132.796537 
L 206.594919 132.816282 
L 209.195299 132.814867 
L 214.46184 132.816451 
L 219.459555 132.812924 
L 222.682921 132.806779 
L 226.050518 132.805449 
L 233.061971 132.802302 
L 240.015964 132.809208 
L 241.283263 132.793792 
L 244.995202 132.795545 
L 249.581655 132.797255 
L 256.01939 132.800655 
L 259.890723 132.804646 
L 261.929071 132.806453 
L 264.726341 132.808933 
L 267.543428 132.809123 
L 268.847028 132.810644 
L 273.750264 132.80604 
L 277.648268 132.804055 
L 282.130191 132.808004 
L 286.147276 132.81398 
L 289.809989 132.818584 
L 293.518232 132.822385 
L 299.314461 132.824391 
L 304.416666 132.816282 
L 311.116489 132.806315 
L 311.120945 133.072099 
L 311.118031 133.50017 
L 311.119319 133.562762 
L 311.114145 133.663598 
L 311.117798 133.703151 
L 311.116299 133.815094 
L 311.112625 133.861405 
L 311.114779 133.995057 
L 311.116236 134.057776 
L 311.113997 134.199157 
L 311.115328 134.653668 
L 311.115285 134.76464 
L 311.117461 134.854368 
L 311.115856 135.33348 
L 311.112181 135.421793 
L 311.112392 135.458348 
L 311.113638 135.594956 
L 311.117271 135.633073 
L 311.112033 136.020515 
L 311.119023 137.083461 
L 311.119699 137.262959 
L 311.126119 137.746886 
L 311.119467 138.048443 
L 311.123859 138.137622 
L 311.13351 139.889145 
L 311.134228 139.910853 
L 311.133974 140.001806 
L 311.13389 140.031497 
L 311.133425 140.190702 
L 311.134861 140.217732 
L 311.139866 140.527039 
L 311.139064 140.674206 
L 311.139782 140.703158 
L 311.132517 140.818333 
L 311.126562 141.26465 
L 311.131588 141.421954 
L 311.13503 142.030896 
L 311.135622 142.517294 
L 311.138472 142.691471 
L 311.133658 142.706063 
L 311.141323 142.809221 
L 311.137902 142.979449 
L 311.129899 143.35591 
L 311.140436 143.480186 
L 311.143879 144.051497 
L 311.146687 144.350203 
L 311.145948 144.358903 
L 311.148102 144.470361 
L 311.150256 144.498827 
L 311.153001 145.023342 
L 311.149327 145.234686 
L 311.152811 145.665101 
L 311.153994 145.691329 
L 311.154043 145.694119 
L 311.159463 146.000911 
L 311.165439 146.013982 
L 311.166263 146.686868 
L 311.17245 148.493021 
L 311.176209 148.528161 
L 311.180771 148.716486 
L 311.178997 148.750126 
L 311.179778 148.817089 
L 311.182566 149.82021 
L 311.185438 149.850619 
L 311.183875 150.193228 
L 311.185966 150.44366 
L 311.212975 153.997365 
L 311.212088 154.06644 
L 311.216924 154.516685 
L 311.226131 154.87621 
L 311.229679 154.980445 
L 311.252887 156.216301 
L 311.264881 156.823406 
L 311.26051 157.258066 
L 311.24577 157.964698 
L 311.248621 158.025495 
L 311.249635 158.069884 
L 311.232424 159.2517 
L 311.231516 159.255628 
L 311.220957 161.833856 
L 311.21042 162.102638 
L 311.217367 162.293941 
L 311.213207 163.975607 
L 311.202395 165.331663 
L 311.198678 165.773757 
L 311.192934 166.639234 
L 311.193009 166.647419 
L 311.197285 167.113235 
L 311.187359 167.779765 
L 311.187782 168.022552 
L 311.187916 168.061137 
L 311.191836 169.183716 
L 311.191118 169.247891 
L 311.192533 169.301192 
L 311.193188 169.397023 
L 311.19247 169.416345 
L 311.191034 169.460248 
L 311.183474 170.478278 
L 311.198868 172.341596 
L 311.192681 173.072618 
L 311.194011 173.317813 
L 311.186916 173.373309 
L 311.188922 173.683165 
L 311.189598 173.818296 
L 311.190274 173.899872 
L 311.193293 174.169669 
L 311.192786 174.238807 
L 311.182439 176.273641 
L 311.183094 176.426151 
L 311.182946 176.428728 
L 311.175365 178.605872 
L 311.185902 180.830953 
L 311.185881 180.8995 
L 311.186578 180.917344 
L 311.182312 181.07469 
L 311.184382 181.183297 
L 311.188665 182.603161 
L 311.188669 182.604268 
L 311.192312 184.726974 
L 311.193441 185.384611 
L 311.171099 188.042705 
L 311.184234 188.402651 
L 311.184635 188.93008 
L 311.184487 189.296468 
L 311.185576 190.233172 
L 311.189387 193.510304 
L 311.178363 193.532604 
L 311.155915 196.145824 
L 311.185036 197.304938 
L 311.214875 198.642411 
L 311.215319 198.853607 
L 311.219437 198.929397 
L 311.245137 201.429427 
L 311.259074 205.485727 
L 311.265198 205.63828 
L 311.26372 205.882587 
L 311.275799 206.637641 
L 311.273075 206.70887 
L 311.262727 206.903256 
L 311.282747 207.496255 
L 311.29132 208.958299 
L 311.297571 209.365021 
L 311.294382 209.974428 
L 311.292419 210.173143 
L 311.297112 212.771754 
L 311.300464 214.628035 
L 311.309207 214.648076 
L 311.306462 217.255804 
L 311.318182 217.298715 
L 311.08437 217.318756 
L 310.926242 217.321712 
L 306.862255 217.30505 
L 302.217011 217.30013 
L 302.21057 217.30013 
L 298.125191 217.291345 
L 298.09797 217.296646 
L 296.805604 217.27764 
L 296.098487 217.287185 
L 295.988508 217.284714 
L 290.642059 217.258233 
L 290.620012 217.260514 
L 290.493688 217.261337 
L 290.219435 217.260189 
L 290.216226 217.260176 
L 289.409625 217.260125 
L 283.186056 217.259733 
L 273.118283 217.259099 
L 271.738955 217.24759 
L 271.720456 217.267757 
L 271.426375 217.40162 
L 269.385778 217.400762 
L 264.343545 217.398643 
L 264.340819 217.398634 
L 257.941713 217.37717 
L 251.141199 217.35436 
L 251.054575 217.35305 
L 249.054956 217.347011 
L 247.719583 217.342977 
L 247.208647 217.330729 
L 246.998676 217.339282 
L 246.560574 217.294196 
L 246.139323 217.280385 
L 245.958832 217.265159 
L 241.370837 217.237749 
L 238.401536 217.236207 
L 236.791479 217.24387 
L 235.956686 217.247843 
L 235.934935 217.2493 
L 232.940483 217.251032 
L 229.543383 217.240195 
L 227.730832 217.234412 
L 227.660934 217.241635 
L 224.520201 217.245035 
L 223.061218 217.256037 
L 222.64605 217.263111 
L 222.409408 217.278907 
L 222.407653 217.278843 
L 221.947865 217.262161 
L 217.101878 217.273987 
L 215.724134 217.255255 
L 215.458836 217.25724 
L 214.554353 217.25885 
L 213.250522 217.261171 
L 207.608359 217.271212 
L 205.242685 217.275423 
L 204.804541 217.275697 
L 204.373006 217.142784 
L 200.994512 217.154589 
L 200.8707 217.155898 
L 198.623404 217.17011 
L 198.397046 217.16426 
L 194.429313 217.211901 
L 192.542427 217.213907 
L 190.704007 217.233568 
L 189.695548 217.221308 
L 189.691278 217.221256 
L 188.064222 217.198302 
L 185.544595 217.200435 
L 185.408283 217.198521 
L 184.90064 217.191396 
L 184.883683 217.190066 
L 183.114971 217.184998 
L 181.227072 217.347961 
L 179.384217 217.333981 
L 178.588702 217.285284 
L 178.215134 217.287459 
L 177.780812 217.254939 
L 176.931279 217.398178 
L 175.133277 217.428777 
L 173.885342 217.426708 
L 173.774096 217.431396 
L 170.546528 217.429559 
L 169.58579 217.310794 
L 169.357996 217.268855 
L 168.862708 217.205123 
L 163.387654 217.239058 
L 163.370956 217.239095 
L 163.156967 217.239565 
L 163.135681 218.621068 
L 163.147887 218.670124 
L 163.1213 220.083302 
L 163.131267 222.548341 
L 163.150378 223.067513 
L 163.154143 224.315145 
L 163.156777 225.188041 
L 163.215357 228.282083 
L 162.888987 228.23326 
L 162.027142 228.082439 
L 161.611635 227.831923 
L 161.395372 227.470266 
L 161.527461 227.133844 
L 161.047019 226.930757 
L 160.653368 226.784393 
L 160.505715 226.667191 
L 160.507806 226.468096 
L 160.380806 226.326968 
L 160.070633 226.232531 
L 159.579336 226.215932 
L 159.442579 226.004188 
L 159.305358 225.528982 
L 159.591225 225.225102 
L 158.988977 224.64036 
L 158.63811 224.721156 
L 158.47633 224.544614 
L 158.649619 224.277415 
L 157.868697 223.447056 
L 157.489871 223.090721 
L 157.233442 222.913123 
L 156.992661 223.047768 
L 156.812022 223.024665 
L 156.580681 222.797463 
L 156.590247 222.715675 
L 156.41096 222.545447 
L 156.358897 222.520887 
L 156.194612 222.443387 
L 156.007744 222.497849 
L 155.924309 222.620562 
L 155.994968 222.666176 
L 155.908048 223.114605 
L 155.576589 223.380727 
L 155.366618 223.311398 
L 155.252795 223.182054 
L 155.058747 223.17367 
L 154.159956 223.419027 
L 154.061455 223.445916 
L 153.991345 223.503102 
L 153.972572 223.602882 
L 154.085128 223.86987 
L 154.231218 223.979364 
L 154.405733 224.070401 
L 154.332624 224.336544 
L 153.871377 224.76829 
L 153.680666 224.769557 
L 153.496965 224.887688 
L 153.648462 225.181833 
L 153.317699 225.391423 
L 153.251918 225.628128 
L 153.267714 225.738847 
L 153.387725 226.091044 
L 153.665884 226.247482 
L 153.599976 226.393403 
L 153.652368 226.51751 
L 153.934645 226.546885 
L 154.416946 226.732 
L 154.447545 226.890867 
L 154.364216 226.968938 
L 153.749487 226.985029 
L 153.425715 227.033599 
L 153.259267 226.809269 
L 152.781359 226.625252 
L 152.571451 226.680241 
L 152.439742 226.665163 
L 151.955118 226.503953 
L 151.828308 226.532271 
L 151.628093 226.68626 
L 151.350272 226.796472 
L 151.286944 226.78622 
L 149.931899 226.566862 
L 149.453652 226.559661 
L 149.340991 226.770814 
L 149.215954 226.911519 
L 148.757347 226.921719 
L 148.562855 226.970163 
L 148.297515 227.117985 
L 148.235472 227.200871 
L 147.296168 227.359822 
L 147.263858 227.583624 
L 146.97721 227.634939 
L 146.532604 227.280526 
L 146.39004 226.989781 
L 145.942118 226.478823 
L 145.575773 226.491916 
L 145.243934 226.622485 
L 144.306847 226.632072 
L 144.231226 226.773855 
L 143.612253 227.056406 
L 143.308204 227.08255 
L 142.915018 226.936755 
L 142.516807 226.846077 
L 142.467857 226.929512 
L 142.486693 227.034571 
L 142.427353 227.190692 
L 142.079106 227.090046 
L 141.750159 227.047495 
L 141.237154 227.197471 
L 141.173907 227.340858 
L 141.062724 227.390801 
L 140.953103 227.391181 
L 140.565683 227.228619 
L 140.481698 227.064473 
L 140.325936 226.988218 
L 139.731628 226.951157 
L 139.412628 227.133717 
L 139.323217 227.132746 
L 138.525802 226.912026 
L 138.361529 226.78585 
L 138.417195 226.66453 
L 138.348014 226.505727 
L 138.080498 226.393129 
L 137.745153 226.363036 
L 137.163959 226.385083 
L 136.710885 226.613595 
L 136.59987 226.700493 
L 136.55451 226.774129 
L 136.555334 226.946215 
L 136.466852 227.005133 
L 135.84186 227.013981 
L 135.727488 227.078453 
L 135.628088 227.221861 
L 135.677017 227.976176 
L 135.627898 228.120767 
L 135.420145 228.52468 
L 135.026833 228.927918 
L 134.014188 228.628937 
L 133.486147 228.343978 
L 133.214577 228.252814 
L 132.642231 228.611304 
L 132.401429 228.539632 
L 132.394608 228.45569 
L 132.25027 228.342416 
L 131.762077 228.169527 
L 131.581143 228.149318 
L 131.096371 228.232626 
L 130.870752 228.224496 
L 130.497692 228.020776 
L 129.366938 228.098467 
L 129.175276 228.117177 
L 129.034127 228.015497 
L 128.260257 227.767198 
L 128.021736 227.739302 
L 127.684406 227.848796 
L 127.390303 228.016173 
L 126.817493 228.161651 
L 126.376371 228.575721 
L 125.718225 229.04588 
L 125.552601 229.464406 
L 125.851159 229.78575 
L 126.047298 230.105912 
L 126.033952 230.405188 
L 126.011773 230.427085 
L 125.880871 230.556325 
L 125.366239 230.825045 
L 125.143746 230.788005 
L 124.586795 230.358476 
L 124.522577 229.977307 
L 123.82625 229.828851 
L 123.113326 229.558527 
L 122.476889 229.218895 
L 122.015219 228.869718 
L 121.945489 228.428343 
L 121.69643 228.218055 
L 121.537881 227.89405 
L 121.730071 227.746989 
L 121.94587 227.441652 
L 121.938141 227.282827 
L 121.195736 226.940936 
L 121.116503 226.754638 
L 121.276574 226.594589 
L 121.297902 226.471876 
L 120.800397 226.198046 
L 120.604321 225.927679 
L 120.34823 225.810309 
L 120.320017 225.672412 
L 120.532437 225.425169 
L 120.704903 225.352039 
L 120.891223 225.325304 
L 120.959664 225.271877 
L 121.047935 225.098862 
L 121.002427 224.939003 
L 120.704988 224.676704 
L 120.647612 224.528818 
L 120.60297 224.286601 
L 120.659226 224.181795 
L 120.599527 224.037099 
L 120.360415 223.789328 
L 120.019199 223.660828 
L 119.953946 223.426404 
L 119.933167 222.994573 
L 119.62198 222.80289 
L 119.242922 222.49333 
L 119.182104 222.338201 
L 119.315503 222.240448 
L 119.314109 222.069418 
L 119.120568 221.987884 
L 118.749154 221.900268 
L 118.630897 221.94094 
L 118.30231 221.767333 
L 118.217227 221.631696 
L 117.985675 221.450382 
L 117.663338 221.30427 
L 117.048715 221.19712 
L 116.870547 221.01116 
L 116.211346 221.227487 
L 115.821771 221.424893 
L 115.722984 221.51724 
L 114.874147 221.815671 
L 114.613769 221.67013 
L 114.598375 221.59151 
L 114.768814 221.519077 
L 114.781315 221.482903 
L 114.570943 221.077722 
L 114.127561 220.790546 
L 113.719805 220.69537 
L 113.172124 220.643273 
L 112.435801 219.92942 
L 112.058095 219.280164 
L 111.718843 218.802319 
L 111.557844 218.490499 
L 111.648628 218.357818 
L 111.936036 218.321644 
L 112.063902 218.353637 
L 112.218355 218.369137 
L 112.609218 218.25335 
L 112.718522 218.119339 
L 112.695715 217.776159 
L 112.650291 217.596745 
L 112.653015 217.303044 
L 112.846409 217.125193 
L 112.589135 216.529681 
L 112.559529 216.328242 
L 112.545612 216.021174 
L 112.363833 215.90224 
L 112.237424 215.946545 
L 111.975568 215.952479 
L 111.765281 215.751356 
L 111.100546 215.37101 
L 111.265431 215.176413 
L 111.403032 214.98606 
L 111.322892 214.844468 
L 110.922378 214.811102 
L 110.485986 214.883852 
L 109.954503 214.560607 
L 110.063786 214.294992 
L 109.532957 213.766106 
L 109.633074 213.534828 
L 109.43003 213.236481 
L 108.640597 212.774664 
L 108.418653 212.451588 
L 108.362375 212.315845 
L 108.215334 212.173809 
L 108.033598 212.071833 
L 107.848271 212.005398 
L 107.756621 212.008375 
L 107.625757 211.914698 
L 107.475971 211.672164 
L 107.486149 211.551352 
L 107.559638 211.435311 
L 107.532565 211.284469 
L 106.556053 210.403556 
L 106.489998 210.309034 
L 106.458934 209.974344 
L 106.557552 209.569987 
L 106.623861 209.140881 
L 106.609036 209.032865 
L 106.581373 208.986829 
L 106.021296 208.68806 
L 105.739632 208.682231 
L 105.680904 208.495236 
L 105.949286 208.350519 
L 105.943858 208.162193 
L 105.549364 207.730637 
L 105.530611 207.665026 
L 105.942338 207.18435 
L 106.035571 206.997271 
L 105.892627 206.670732 
L 105.872144 206.307723 
L 105.831302 206.245153 
L 105.653071 206.219136 
L 105.268354 206.218143 
L 105.135948 206.224542 
L 105.003013 206.293195 
L 104.466398 206.275857 
L 104.77655 205.312966 
L 105.113563 205.024016 
L 105.162809 204.923307 
L 105.133709 204.757471 
L 105.054012 204.556539 
L 104.708974 204.338185 
L 103.899416 204.102219 
L 103.379885 204.242438 
L 102.985306 204.137126 
L 103.040127 203.882872 
L 103.143412 203.725758 
L 103.071951 203.582751 
L 102.847916 203.473933 
L 102.41845 203.054667 
L 102.272805 202.576677 
L 102.271916 202.57376 
L 101.798252 202.697339 
L 101.606548 202.541112 
L 101.254415 202.393734 
L 100.642495 202.571901 
L 100.564741 202.639266 
L 100.53902 202.886636 
L 100.548797 203.116626 
L 100.681499 203.37202 
L 100.656433 203.461347 
L 100.577073 203.575212 
L 100.266119 203.574937 
L 99.544684 204.016777 
L 99.245429 204.362618 
L 99.21673 204.517472 
L 99.238883 204.666096 
L 99.144192 204.788113 
L 98.854376 204.890026 
L 98.389497 204.934245 
L 98.196336 205.141534 
L 98.177541 205.181932 
L 98.256901 205.256582 
L 98.246384 205.330599 
L 98.116512 205.500087 
L 97.702864 205.59615 
L 97.170578 205.627489 
L 97.034856 205.751934 
L 96.90114 205.940787 
L 96.671742 205.962453 
L 96.159074 205.733266 
L 95.732945 205.744796 
L 95.654494 205.915108 
L 95.731636 206.011953 
L 95.739217 206.200806 
L 95.447965 206.801956 
L 95.255775 207.006795 
L 95.076277 207.122941 
L 93.935914 207.572742 
L 93.686708 207.560072 
L 93.355164 207.260204 
L 93.251667 206.91599 
L 93.190427 206.86742 
L 92.766009 206.652297 
L 92.19191 206.507642 
L 91.70226 205.951768 
L 91.451554 205.815476 
L 91.32694 205.784792 
L 91.247158 205.419461 
L 90.968049 205.377332 
L 90.452425 205.542153 
L 90.280001 205.463111 
L 90.03884 205.274891 
L 89.863269 205.219099 
L 89.368424 205.434095 
L 89.167175 205.326058 
L 89.183752 204.916422 
L 89.273586 204.786022 
L 89.608656 204.45754 
L 89.465628 204.249766 
L 89.274895 204.194312 
L 89.077067 203.934293 
L 89.069739 203.811812 
L 89.124771 203.759145 
L 89.658536 203.53304 
L 89.787183 203.496993 
L 89.946324 203.559923 
L 90.252464 203.357005 
L 90.421572 203.144015 
L 90.427781 202.920804 
L 90.23407 202.83304 
L 90.249845 202.701077 
L 90.510603 202.419983 
L 90.3794 202.156015 
L 90.181889 201.957511 
L 89.895748 201.911285 
L 89.468563 201.594945 
L 89.440878 201.296007 
L 89.016523 200.930295 
L 89.242163 200.668756 
L 89.470126 200.558987 
L 89.788345 199.966664 
L 90.107513 199.800576 
L 90.054065 199.678369 
L 90.099468 199.512048 
L 90.365547 199.353668 
L 90.633338 199.30873 
L 90.846603 199.355779 
L 91.022405 199.320091 
L 91.286986 199.218453 
L 91.610103 199.068582 
L 91.969987 199.154805 
L 92.261513 199.272851 
L 92.329406 199.253106 
L 92.396475 199.004406 
L 92.773928 198.63956 
L 92.796671 198.495455 
L 92.629991 198.235837 
L 92.434549 198.192779 
L 92.247576 198.024219 
L 91.867652 197.511953 
L 91.864083 197.463678 
L 91.940338 197.429848 
L 92.025568 197.335348 
L 92.188257 197.255291 
L 92.273656 197.16096 
L 92.426229 197.086162 
L 92.477903 196.968136 
L 92.447262 196.850724 
L 92.328139 196.75863 
L 92.274521 196.621937 
L 91.872023 196.427952 
L 91.49324 196.404744 
L 91.338554 196.257767 
L 91.13986 196.226682 
L 90.995607 196.300086 
L 90.867889 196.307836 
L 90.693438 196.142402 
L 90.752567 195.977518 
L 90.966951 195.804038 
L 90.831166 195.514497 
L 90.553345 195.560089 
L 90.280402 195.503706 
L 90.311782 195.30328 
L 90.527075 195.153663 
L 91.098956 194.752939 
L 91.219241 194.495665 
L 91.257569 194.104295 
L 90.954196 193.778855 
L 90.567493 193.709125 
L 89.975002 193.458862 
L 89.887111 193.150695 
L 90.186408 192.641596 
L 90.640834 192.613827 
L 90.871458 192.757594 
L 91.187924 192.605992 
L 91.422517 192.589605 
L 91.555768 192.481864 
L 91.61306 191.869247 
L 91.48606 191.577003 
L 91.553509 191.483242 
L 91.429402 191.060238 
L 91.0843 190.900949 
L 91.037314 190.50977 
L 91.15251 190.387141 
L 91.400999 190.433346 
L 91.652951 190.372929 
L 91.777248 190.313589 
L 91.948954 190.165471 
L 91.985318 190.075194 
L 91.81868 189.703464 
L 91.856058 189.592767 
L 92.235116 189.060586 
L 92.250315 188.938401 
L 92.300073 188.538394 
L 92.280857 188.411373 
L 92.051395 187.980387 
L 92.360849 187.681744 
L 92.789111 187.494644 
L 92.854174 187.382383 
L 92.87886 187.03591 
L 93.098165 186.944894 
L 93.06161 186.791285 
L 92.879473 186.635945 
L 92.956995 186.434105 
L 92.883569 186.305669 
L 92.642915 186.239212 
L 92.524214 186.078065 
L 92.453808 185.629721 
L 92.509601 185.550847 
L 92.851598 185.487706 
L 93.046237 185.556992 
L 93.528158 185.433075 
L 93.748941 185.180595 
L 93.598247 184.972905 
L 93.698787 184.729126 
L 93.640904 184.52228 
L 93.802558 184.243826 
L 93.966915 184.077526 
L 93.970187 184.030931 
L 93.975615 183.95363 
L 93.742183 183.721169 
L 94.16185 183.250736 
L 94.153551 182.577681 
L 94.118749 182.352971 
L 93.966556 182.201052 
L 93.964011 182.200292 
L 93.379027 182.025714 
L 92.6415 182.11504 
L 92.45421 182.225126 
L 92.295322 182.270887 
L 92.009878 182.203691 
L 91.401379 182.44405 
L 91.411747 182.601903 
L 91.161823 182.767274 
L 90.8201 182.803215 
L 90.429744 182.651212 
L 90.03677 182.639344 
L 89.481741 182.4741 
L 89.012743 182.593921 
L 88.715832 182.748817 
L 88.49184 182.77175 
L 88.416637 182.756342 
L 88.074834 182.686309 
L 87.961201 182.550376 
L 88.055596 182.477036 
L 87.991399 182.317557 
L 87.832068 182.250403 
L 87.5443 182.223584 
L 87.474972 182.065858 
L 87.424691 181.800897 
L 87.620006 181.710747 
L 87.802693 181.559293 
L 87.832659 181.193877 
L 87.585564 181.034546 
L 87.314838 180.729061 
L 86.998816 180.603138 
L 86.717312 180.57111 
L 86.277719 180.521096 
L 86.211368 180.523272 
L 86.008957 180.893312 
L 85.848063 181.066581 
L 85.636213 181.06014 
L 85.331658 181.121655 
L 85.130197 181.411935 
L 84.794198 181.430857 
L 84.72489 181.325945 
L 84.395226 181.156351 
L 84.341144 181.052263 
L 84.501341 180.738247 
L 84.634803 180.692422 
L 84.77175 180.55273 
L 84.808178 180.145016 
L 84.445021 179.914329 
L 84.362093 179.714579 
L 84.308961 179.687781 
L 84.156135 179.736668 
L 83.908279 179.631672 
L 83.706587 179.650741 
L 83.451023 179.615771 
L 83.302441 179.414691 
L 83.132741 179.381198 
L 82.810004 179.154123 
L 82.785465 179.016184 
L 82.708323 178.956801 
L 82.403007 179.017261 
L 82.163282 179.178112 
L 82.007098 179.090559 
L 82.060335 178.92012 
L 81.97369 178.778887 
L 81.642062 178.719505 
L 81.398704 178.549974 
L 81.366141 178.347774 
L 81.452385 178.252408 
L 81.332015 178.090459 
L 81.097886 178.062415 
L 80.945482 177.988841 
L 81.023405 177.823091 
L 81.137545 177.783538 
L 81.269085 177.66528 
L 81.311067 177.527024 
L 81.189705 177.204561 
L 81.376742 176.939115 
L 81.503679 176.876079 
L 81.449344 176.767324 
L 81.297657 176.728743 
L 80.684977 176.5106 
L 80.712008 176.449613 
L 80.505944 176.325379 
L 80.13945 176.048994 
L 79.864713 175.749908 
L 79.825983 175.625969 
L 79.253447 175.54661 
L 79.177805 175.632875 
L 78.84227 175.675997 
L 78.601869 175.258209 
L 78.462177 175.01462 
L 78.268277 174.487064 
L 77.993623 174.063659 
L 77.824916 174.019587 
L 77.649029 174.023663 
L 77.138515 173.61768 
L 76.863904 173.198161 
L 76.878559 173.000608 
L 76.818797 172.898779 
L 76.500135 172.862183 
L 76.216992 172.769836 
L 76.083045 172.557078 
L 75.911106 172.292392 
L 75.568307 172.081281 
L 75.175945 171.891414 
L 74.719112 171.849581 
L 74.484793 171.610658 
L 74.446127 171.376064 
L 74.311207 171.195827 
L 73.771868 171.132454 
L 73.509315 171.064434 
L 73.491745 170.961424 
L 73.604723 170.694478 
L 73.686575 170.605721 
L 73.543335 170.270524 
L 73.370088 170.183521 
L 73.267795 170.172582 
L 73.145356 170.064967 
L 73.001736 169.843065 
L 73.11009 169.66023 
L 72.691014 169.494353 
L 72.267103 169.549596 
L 71.73809 169.391574 
L 71.250932 169.454694 
L 71.001831 169.321739 
L 70.970302 169.205234 
L 70.751505 169.127226 
L 70.288251 169.17398 
L 70.190309 169.135863 
L 70.186888 169.069027 
L 69.955145 168.986838 
L 69.708409 169.085055 
L 69.588525 169.023857 
L 69.118071 168.846006 
L 68.687001 168.640829 
L 68.454054 168.113758 
L 68.228309 167.973813 
L 68.261252 167.704122 
L 68.107179 167.581388 
L 67.909985 167.590384 
L 67.6801 167.491829 
L 67.66838 167.29096 
L 66.820515 166.959585 
L 66.286814 167.057697 
L 65.972312 166.581224 
L 65.626936 166.532759 
L 65.591586 166.397566 
L 65.10673 166.248413 
L 64.794445 166.248836 
L 64.625674 166.061651 
L 64.288154 166.046319 
L 64.043952 166.105702 
L 63.820108 166.083824 
L 64.066316 165.70012 
L 64.449471 165.612926 
L 64.688752 165.489727 
L 65.452865 165.389145 
L 65.63608 165.452835 
L 66.147439 165.398436 
L 66.351497 165.29532 
L 66.559715 164.904457 
L 66.451699 164.862096 
L 66.163573 164.944221 
L 65.914936 164.937337 
L 65.761349 164.722488 
L 65.438569 164.81247 
L 65.378258 164.799018 
L 65.211958 164.435693 
L 64.842909 164.130144 
L 64.862042 163.976599 
L 65.156926 163.883809 
L 64.946385 163.738965 
L 64.715677 163.757253 
L 64.224084 163.661232 
L 63.96453 163.55763 
L 63.906351 163.38567 
L 64.422461 163.004416 
L 64.604325 162.916568 
L 64.964208 162.773222 
L 65.221862 162.375011 
L 65.188011 161.860358 
L 64.903305 161.626588 
L 64.793157 161.613622 
L 64.440031 161.476886 
L 64.307055 161.210553 
L 64.497935 160.719404 
L 64.589901 160.34949 
L 64.423327 160.161777 
L 64.153784 159.999468 
L 63.828576 159.849112 
L 63.707172 159.882816 
L 63.514644 159.876438 
L 63.42253 159.794819 
L 63.309594 159.636396 
L 63.350097 159.323077 
L 63.024888 159.058159 
L 62.886654 159.019218 
L 62.431151 159.144402 
L 62.290656 159.077207 
L 62.214422 158.967987 
L 62.216386 158.785343 
L 62.103133 158.556641 
L 61.958437 158.455467 
L 61.942451 157.982711 
L 61.986861 157.850326 
L 61.865816 157.569802 
L 61.458819 157.395076 
L 61.3719 157.229706 
L 61.239705 157.094554 
L 60.81761 157.228544 
L 60.698423 157.144539 
L 60.668584 157.038867 
L 60.509886 157.010021 
L 60.018906 156.409694 
L 59.516522 156.066072 
L 59.473633 155.817815 
L 59.390789 155.730706 
L 59.09185 155.664017 
L 58.963731 155.523016 
L 58.840785 155.317416 
L 58.583343 155.048908 
L 58.577409 154.954492 
L 58.093756 154.493372 
L 57.922325 154.520275 
L 57.698416 154.404193 
L 57.698396 154.393776 
L 57.697466 153.916781 
L 57.708511 152.651002 
L 57.696241 152.512662 
L 57.694235 152.289324 
L 57.696781 152.04831 
L 57.704878 151.281811 
L 57.686614 149.351285 
L 57.682367 148.902425 
L 57.695545 148.642005 
L 57.687478 148.119728 
L 57.704097 147.376838 
L 57.681818 145.188122 
L 57.699726 143.75731 
" clip-path="url(#pa0d506902a)" style="fill: #009e25"/>
   </g>
   <g id="PathCollection_1">
    <defs>
     <path id="mbecc77f583" d="M 0 1.581139 
C 0.419323 1.581139 0.821528 1.41454 1.118034 1.118034 
C 1.41454 0.821528 1.581139 0.419323 1.581139 0 
C 1.581139 -0.419323 1.41454 -0.821528 1.118034 -1.118034 
C 0.821528 -1.41454 0.419323 -1.581139 0 -1.581139 
C -0.419323 -1.581139 -0.821528 -1.41454 -1.118034 -1.118034 
C -1.41454 -0.821528 -1.581139 -0.419323 -1.581139 0 
C -1.581139 0.419323 -1.41454 0.821528 -1.118034 1.118034 
C -0.821528 1.41454 -0.419323 1.581139 0 1.581139 
z
" style="stroke: #000000"/>
    </defs>
    <g clip-path="url(#pa0d506902a)">
     <use xlink:href="#mbecc77f583" x="142.816273" y="183.781354" style="stroke: #000000"/>
    </g>
   </g>
   <g id="text_1">
    <!-- Helena -->
    <g transform="translate(145.816273 180.781354) scale(0.1 -0.1)">
     <defs>
      <path id="DejaVuSans-48" d="M 628 4666 
L 1259 4666 
L 1259 2753 
L 3553 2753 
L 3553 4666 
L 4184 4666 
L 4184 0 
L 3553 0 
L 3553 2222 
L 1259 2222 
L 1259 0 
L 628 0 
L 628 4666 
z
" transform="scale(0.015625)"/>
      <path id="DejaVuSans-65" d="M 3597 1894 
L 3597 1613 
L 953 1613 
Q 991 1019 1311 708 
Q 1631 397 2203 397 
Q 2534 397 2845 478 
Q 3156 559 3463 722 
L 3463 178 
Q 3153 47 2828 -22 
Q 2503 -91 2169 -91 
Q 1331 -91 842 396 
Q 353 884 353 1716 
Q 353 2575 817 3079 
Q 1281 3584 2069 3584 
Q 2775 3584 3186 3129 
Q 3597 2675 3597 1894 
z
M 3022 2063 
Q 3016 2534 2758 2815 
Q 2500 3097 2075 3097 
Q 1594 3097 1305 2825 
Q 1016 2553 972 2059 
L 3022 2063 
z
" transform="scale(0.015625)"/>
      <path id="DejaVuSans-6c" d="M 603 4863 
L 1178 4863 
L 1178 0 
L 603 0 
L 603 4863 
z
" transform="scale(0.015625)"/>
      <path id="DejaVuSans-6e" d="M 3513 2113 
L 3513 0 
L 2938 0 
L 2938 2094 
Q 2938 2591 2744 2837 
Q 2550 3084 2163 3084 
Q 1697 3084 1428 2787 
Q 1159 2491 1159 1978 
L 1159 0 
L 581 0 
L 581 3500 
L 1159 3500 
L 1159 2956 
Q 1366 3272 1645 3428 
Q 1925 3584 2291 3584 
Q 2894 3584 3203 3211 
Q 3513 2838 3513 2113 
z
" transform="scale(0.015625)"/>
      <path id="DejaVuSans-61" d="M 2194 1759 
Q 1497 1759 1228 1600 
Q 959 1441 959 1056 
Q 959 750 1161 570 
Q 1363 391 1709 391 
Q 2188 391 2477 730 
Q 2766 1069 2766 1631 
L 2766 1759 
L 2194 1759 
z
M 3341 1997 
L 3341 0 
L 2766 0 
L 2766 531 
Q 2569 213 2275 61 
Q 1981 -91 1556 -91 
Q 1019 -91 701 211 
Q 384 513 384 1019 
Q 384 1609 779 1909 
Q 1175 2209 1959 2209 
L 2766 2209 
L 2766 2266 
Q 2766 2663 2505 2880 
Q 2244 3097 1772 3097 
Q 1472 3097 1187 3025 
Q 903 2953 641 2809 
L 641 3341 
Q 956 3463 1253 3523 
Q 1550 3584 1831 3584 
Q 2591 3584 2966 3190 
Q 3341 2797 3341 1997 
z
" transform="scale(0.015625)"/>
     </defs>
     <use xlink:href="#DejaVuSans-48"/>
     <use xlink:href="#DejaVuSans-65" x="75.195312"/>
     <use xlink:href="#DejaVuSans-6c" x="136.71875"/>
     <use xlink:href="#DejaVuSans-65" x="164.501953"/>
     <use xlink:href="#DejaVuSans-6e" x="226.025391"/>
     <use xlink:href="#DejaVuSans-61" x="289.404297"/>
    </g>
   </g>
   <g id="text_2">
    <!-- Montana -->
    <g transform="translate(158.340937 121.872451) scale(0.12 -0.12)">
     <defs>
      <path id="DejaVuSans-4d" d="M 628 4666 
L 1569 4666 
L 2759 1491 
L 3956 4666 
L 4897 4666 
L 4897 0 
L 4281 0 
L 4281 4097 
L 3078 897 
L 2444 897 
L 1241 4097 
L 1241 0 
L 628 0 
L 628 4666 
z
" transform="scale(0.015625)"/>
      <path id="DejaVuSans-6f" d="M 1959 3097 
Q 1497 3097 1228 2736 
Q 959 2375 959 1747 
Q 959 1119 1226 758 
Q 1494 397 1959 397 
Q 2419 397 2687 759 
Q 2956 1122 2956 1747 
Q 2956 2369 2687 2733 
Q 2419 3097 1959 3097 
z
M 1959 3584 
Q 2709 3584 3137 3096 
Q 3566 2609 3566 1747 
Q 3566 888 3137 398 
Q 2709 -91 1959 -91 
Q 1206 -91 779 398 
Q 353 888 353 1747 
Q 353 2609 779 3096 
Q 1206 3584 1959 3584 
z
" transform="scale(0.015625)"/>
      <path id="DejaVuSans-74" d="M 1172 4494 
L 1172 3500 
L 2356 3500 
L 2356 3053 
L 1172 3053 
L 1172 1153 
Q 1172 725 1289 603 
Q 1406 481 1766 481 
L 2356 481 
L 2356 0 
L 1766 0 
Q 1100 0 847 248 
Q 594 497 594 1153 
L 594 3053 
L 172 3053 
L 172 3500 
L 594 3500 
L 594 4494 
L 1172 4494 
z
" transform="scale(0.015625)"/>
     </defs>
     <use xlink:href="#DejaVuSans-4d"/>
     <use xlink:href="#DejaVuSans-6f" x="86.279297"/>
     <use xlink:href="#DejaVuSans-6e" x="147.460938"/>
     <use xlink:href="#DejaVuSans-74" x="210.839844"/>
     <use xlink:href="#DejaVuSans-61" x="250.048828"/>
     <use xlink:href="#DejaVuSans-6e" x="311.328125"/>
     <use xlink:href="#DejaVuSans-61" x="374.707031"/>
    </g>
   </g>
  </g>
 </g>
 <defs>
  <clipPath id="pa0d506902a">
   <rect x="45" y="127.872451" width="279" height="107.855099"/>
  </clipPath>
 </defs>
</svg>
