<?xml version="1.0" encoding="utf-8" standalone="no"?>
<!DOCTYPE svg PUBLIC "-//W3C//DTD SVG 1.1//EN"
  "http://www.w3.org/Graphics/SVG/1.1/DTD/svg11.dtd">
<svg xmlns:xlink="http://www.w3.org/1999/xlink" width="460.8pt" height="345.6pt" viewBox="0 0 460.8 345.6" xmlns="http://www.w3.org/2000/svg" version="1.1">
 <metadata>
  <rdf:RDF xmlns:dc="http://purl.org/dc/elements/1.1/" xmlns:cc="http://creativecommons.org/ns#" xmlns:rdf="http://www.w3.org/1999/02/22-rdf-syntax-ns#">
   <cc:Work>
    <dc:type rdf:resource="http://purl.org/dc/dcmitype/StillImage"/>
    <dc:date>2023-06-19T14:47:52.933562</dc:date>
    <dc:format>image/svg+xml</dc:format>
    <dc:creator>
     <cc:Agent>
      <dc:title>Matplotlib v3.7.1, https://matplotlib.org/</dc:title>
     </cc:Agent>
    </dc:creator>
   </cc:Work>
  </rdf:RDF>
 </metadata>
 <defs>
  <style type="text/css">*{stroke-linejoin: round; stroke-linecap: butt}</style>
 </defs>
 <g id="figure_1">
  <g id="patch_1">
   <path d="M 0 345.6 
L 460.8 345.6 
L 460.8 0 
L 0 0 
z
" style="fill: #ffffff"/>
  </g>
  <g id="axes_1">
   <g id="PatchCollection_1">
    <path d="M 255.864279 224.415228 
L 256.619873 223.341151 
L 257.108772 223.027919 
L 257.597671 223.56492 
L 256.575418 224.997073 
L 255.95319 224.997073 
L 255.864279 224.415228 
" clip-path="url(#pb1feb23b5f)" style="fill: #c733ff"/>
    <path d="M 248.682859 175.18745 
L 248.925339 175.001432 
L 249.220226 175.087142 
L 249.502682 175.457977 
L 249.11104 175.928369 
L 248.646106 175.555733 
L 248.682859 175.18745 
" clip-path="url(#pb1feb23b5f)" style="fill: #c733ff"/>
    <path d="M 248.047377 164.390835 
L 248.311528 163.866893 
L 248.762349 163.763583 
L 249.234304 164.217388 
L 249.355454 164.800134 
L 248.868274 165.327491 
L 248.470256 165.30385 
L 248.075533 164.852033 
L 248.047377 164.390835 
" clip-path="url(#pb1feb23b5f)" style="fill: #c733ff"/>
    <path d="M 246.342678 198.029404 
L 246.73561 197.547529 
L 247.161319 197.889243 
L 247.203876 198.273662 
L 246.9485 198.678346 
L 246.395014 198.444519 
L 246.342678 198.029404 
" clip-path="url(#pb1feb23b5f)" style="fill: #c733ff"/>
    <path d="M 244.309062 146.948989 
L 244.606564 146.601646 
L 245.032775 146.185892 
L 245.50104 145.761958 
L 246.008065 145.267324 
L 245.916504 144.797344 
L 246.152499 144.367068 
L 245.905757 143.923207 
L 246.097047 143.34624 
L 246.582184 143.197448 
L 247.434534 143.337647 
L 247.744466 143.636506 
L 247.889366 144.440807 
L 247.449794 145.463511 
L 246.9696 145.433378 
L 246.352458 145.889134 
L 245.799043 146.694599 
L 245.586189 147.160975 
L 244.976104 147.661914 
L 244.285778 147.861141 
L 244.309062 146.948989 
" clip-path="url(#pb1feb23b5f)" style="fill: #c733ff"/>
    <path d="M 243.454385 257.142921 
L 243.933576 256.233772 
L 244.30831 253.921589 
L 244.304799 252.997429 
L 245.357895 253.382524 
L 246.495746 252.696693 
L 247.91351 251.223899 
L 248.247264 251.304318 
L 248.593555 251.927217 
L 248.455927 252.370703 
L 247.802247 252.84571 
L 247.836528 253.126482 
L 247.484326 253.482381 
L 246.874528 254.495929 
L 246.916762 255.237561 
L 247.42042 255.84635 
L 247.228342 256.210168 
L 247.28949 256.54479 
L 246.790848 256.449548 
L 246.461858 256.32436 
L 245.677858 256.29569 
L 245.514975 257.207842 
L 245.969341 257.584155 
L 245.676998 258.661535 
L 245.091594 258.124384 
L 244.180103 258.097027 
L 243.563893 257.577663 
L 243.454385 257.142921 
" clip-path="url(#pb1feb23b5f)" style="fill: #c733ff"/>
    <path d="M 241.647737 120.306785 
L 241.834405 119.705389 
L 242.387354 119.030178 
L 243.210222 119.298266 
L 243.80236 119.940941 
L 243.912369 120.982634 
L 243.669209 121.578401 
L 243.412294 121.856471 
L 242.757181 122.321347 
L 241.797365 121.518209 
L 241.647737 120.306785 
" clip-path="url(#pb1feb23b5f)" style="fill: #c733ff"/>
    <path d="M 241.545608 210.775171 
L 241.951615 210.71922 
L 243.486266 210.762412 
L 244.054547 210.712915 
L 244.739894 211.069903 
L 244.797245 211.536692 
L 244.461879 211.895144 
L 244.025137 212.064875 
L 243.151653 212.053805 
L 242.0109 212.12942 
L 241.527984 211.412781 
L 241.545608 210.775171 
" clip-path="url(#pb1feb23b5f)" style="fill: #c733ff"/>
    <path d="M 239.702673 261.513458 
L 240.280446 260.049558 
L 241.299045 258.96411 
L 241.964726 258.314717 
L 242.387354 258.956717 
L 242.530463 260.034134 
L 242.087989 260.838435 
L 242.792394 261.502576 
L 242.936828 262.096617 
L 242.695209 263.137334 
L 242.650216 264.079506 
L 241.968236 264.84174 
L 241.608977 265.011434 
L 241.365961 264.343616 
L 240.78482 263.258844 
L 240.254511 262.480811 
L 239.730399 262.37251 
L 239.702673 261.513458 
" clip-path="url(#pb1feb23b5f)" style="fill: #c733ff"/>
    <path d="M 238.352541 267.411353 
L 239.375976 267.12195 
L 239.580806 267.363807 
L 239.463704 267.77138 
L 239.013206 267.97057 
L 238.393306 268.099698 
L 237.996971 267.9064 
L 238.352541 267.411353 
" clip-path="url(#pb1feb23b5f)" style="fill: #c733ff"/>
    <path d="M 232.810766 85.853408 
L 233.138359 85.498597 
L 233.642016 85.609262 
L 233.828685 86.066783 
L 233.670208 86.428386 
L 233.307439 86.653431 
L 232.828427 86.398853 
L 232.810766 85.853408 
" clip-path="url(#pb1feb23b5f)" style="fill: #c733ff"/>
    <path d="M 226.381466 73.341879 
L 226.711637 73.163479 
L 227.090957 73.27527 
L 227.40791 73.711889 
L 227.025725 74.052965 
L 226.526581 74.076269 
L 226.276794 73.631432 
L 226.381466 73.341879 
" clip-path="url(#pb1feb23b5f)" style="fill: #c733ff"/>
    <path d="M 223.107584 294.954526 
L 224.62547 293.314815 
L 226.12609 292.991113 
L 227.295214 292.196832 
L 227.953837 292.145195 
L 229.222582 292.472087 
L 229.038636 293.056521 
L 229.003244 293.607783 
L 228.5209 293.927281 
L 227.425964 294.018583 
L 227.103602 294.658819 
L 226.383687 295.278979 
L 224.938949 295.488 
L 224.680958 294.853618 
L 224.314213 294.737174 
L 223.741203 295.179609 
L 223.250513 295.230307 
L 223.107584 294.954526 
" clip-path="url(#pb1feb23b5f)" style="fill: #c733ff"/>
    <path d="M 214.722329 53.776796 
L 215.020332 53.568 
L 215.403449 53.73503 
L 215.488598 54.110855 
L 215.105445 54.444952 
L 214.78122 54.217655 
L 214.722329 53.776796 
" clip-path="url(#pb1feb23b5f)" style="fill: #c733ff"/>
   </g>
   <g id="text_1">
    <!-- MP -->
    <g transform="translate(227.365312 35.472) scale(0.12 -0.12)">
     <defs>
      <path id="DejaVuSans-4d" d="M 628 4666 
L 1569 4666 
L 2759 1491 
L 3956 4666 
L 4897 4666 
L 4897 0 
L 4281 0 
L 4281 4097 
L 3078 897 
L 2444 897 
L 1241 4097 
L 1241 0 
L 628 0 
L 628 4666 
z
" transform="scale(0.015625)"/>
      <path id="DejaVuSans-50" d="M 1259 4147 
L 1259 2394 
L 2053 2394 
Q 2494 2394 2734 2622 
Q 2975 2850 2975 3272 
Q 2975 3691 2734 3919 
Q 2494 4147 2053 4147 
L 1259 4147 
z
M 628 4666 
L 2053 4666 
Q 2838 4666 3239 4311 
Q 3641 3956 3641 3272 
Q 3641 2581 3239 2228 
Q 2838 1875 2053 1875 
L 1259 1875 
L 1259 0 
L 628 0 
L 628 4666 
z
" transform="scale(0.015625)"/>
     </defs>
     <use xlink:href="#DejaVuSans-4d"/>
     <use xlink:href="#DejaVuSans-50" x="86.279297"/>
    </g>
   </g>
  </g>
 </g>
 <defs>
  <clipPath id="pb1feb23b5f">
   <rect x="212.578562" y="41.472" width="47.162877" height="266.112"/>
  </clipPath>
 </defs>
</svg>
