<?xml version="1.0" encoding="utf-8" standalone="no"?>
<!DOCTYPE svg PUBLIC "-//W3C//DTD SVG 1.1//EN"
  "http://www.w3.org/Graphics/SVG/1.1/DTD/svg11.dtd">
<svg xmlns:xlink="http://www.w3.org/1999/xlink" width="460.8pt" height="345.6pt" viewBox="0 0 460.8 345.6" xmlns="http://www.w3.org/2000/svg" version="1.1">
 <metadata>
  <rdf:RDF xmlns:dc="http://purl.org/dc/elements/1.1/" xmlns:cc="http://creativecommons.org/ns#" xmlns:rdf="http://www.w3.org/1999/02/22-rdf-syntax-ns#">
   <cc:Work>
    <dc:type rdf:resource="http://purl.org/dc/dcmitype/StillImage"/>
    <dc:date>2023-06-19T14:47:42.515882</dc:date>
    <dc:format>image/svg+xml</dc:format>
    <dc:creator>
     <cc:Agent>
      <dc:title>Matplotlib v3.7.1, https://matplotlib.org/</dc:title>
     </cc:Agent>
    </dc:creator>
   </cc:Work>
  </rdf:RDF>
 </metadata>
 <defs>
  <style type="text/css">*{stroke-linejoin: round; stroke-linecap: butt}</style>
 </defs>
 <g id="figure_1">
  <g id="patch_1">
   <path d="M 0 345.6 
L 460.8 345.6 
L 460.8 0 
L 0 0 
z
" style="fill: #ffffff"/>
  </g>
  <g id="axes_1">
   <g id="PatchCollection_1">
    <path d="M 293.894024 293.326823 
L 294.667432 293.216652 
L 295.806113 293.767507 
L 296.321705 293.855604 
L 296.498993 293.819256 
L 296.7514 293.767507 
L 297.374447 293.436944 
L 298.21232 293.238676 
L 298.378787 293.871608 
L 297.331498 294.538754 
L 296.526922 294.676334 
L 296.30023 294.715098 
L 294.581493 294.340436 
L 293.97992 293.899702 
L 293.894024 293.326823 
" clip-path="url(#p4f85171eca)" style="fill: #c733ff"/>
    <path d="M 282.847631 291.896909 
L 284.333534 291.520391 
L 285.257346 291.322174 
L 286.374511 291.67456 
L 287.255807 292.013418 
L 287.749492 292.20324 
L 289.747563 292.577751 
L 290.649647 293.219813 
L 289.640107 293.326823 
L 288.243652 293.15053 
L 287.232 293.035256 
L 287.083497 293.018335 
L 285.257346 292.291337 
L 284.140139 292.511628 
L 283.474144 292.511628 
L 283.001501 292.335385 
L 282.847631 291.896909 
" clip-path="url(#p4f85171eca)" style="fill: #c733ff"/>
    <path d="M 273.689908 293.363346 
L 274.996071 293.157252 
L 275.900311 293.105729 
L 276.021151 293.034386 
L 277.558093 292.126983 
L 278.211153 291.714946 
L 278.613033 291.92099 
L 278.412114 292.384551 
L 277.708792 292.951209 
L 276.023508 293.642561 
L 275.44817 293.878581 
L 274.443449 294.136198 
L 273.48899 293.775534 
L 273.689908 293.363346 
" clip-path="url(#p4f85171eca)" style="fill: #c733ff"/>
    <path d="M 266.455943 292.23003 
L 269.057424 292.272382 
L 269.620805 292.281554 
L 270.223646 291.251486 
L 270.826445 291.714946 
L 270.575265 292.693641 
L 270.072905 293.56944 
L 269.473065 293.674494 
L 269.041772 293.777205 
L 268.616084 293.878581 
L 267.812325 293.208776 
L 266.003802 292.745115 
L 266.455943 292.23003 
" clip-path="url(#p4f85171eca)" style="fill: #c733ff"/>
    <path d="M 160.976685 241.412326 
L 161.018197 241.214761 
L 161.130556 241.025373 
L 161.24469 240.889415 
L 161.558179 240.654675 
L 161.709555 240.616396 
L 162.399181 240.609824 
L 163.019987 240.705697 
L 163.8199 240.87311 
L 164.380258 240.937026 
L 164.815702 240.919768 
L 165.250554 240.848678 
L 165.934135 240.631999 
L 166.743897 240.234962 
L 166.869191 240.088117 
L 167.018369 239.788759 
L 167.154781 239.414148 
L 167.178538 239.204191 
L 167.192023 238.3456 
L 167.163151 238.235831 
L 167.104435 238.150995 
L 166.746814 237.824395 
L 166.191022 237.399515 
L 166.125542 237.328074 
L 166.004856 237.070708 
L 165.600904 236.799444 
L 165.459293 236.624204 
L 165.462379 236.285915 
L 165.378892 235.956004 
L 165.37327 235.801936 
L 165.419219 235.166295 
L 165.559055 234.921321 
L 165.575964 234.857004 
L 165.312821 234.697567 
L 165.175521 234.65969 
L 164.970756 234.752703 
L 164.884901 234.819929 
L 164.614445 235.100374 
L 164.518023 234.747435 
L 164.404015 234.435284 
L 164.217891 234.024852 
L 164.221611 233.784443 
L 164.305352 233.451371 
L 164.566297 233.000403 
L 164.773979 232.801734 
L 165.212509 232.544719 
L 165.299378 232.43826 
L 165.480514 232.339126 
L 165.626437 232.321166 
L 165.769612 232.387389 
L 165.810996 232.434949 
L 165.959371 232.765913 
L 165.965078 232.814928 
L 165.859313 233.079519 
L 165.861258 233.274626 
L 166.162319 234.465937 
L 166.389996 234.938529 
L 166.606175 235.223739 
L 166.853804 235.468764 
L 167.18788 235.669941 
L 167.353248 235.736465 
L 168.422434 235.736214 
L 168.693186 235.416588 
L 168.750972 235.136094 
L 168.713181 234.873911 
L 168.706544 234.407792 
L 168.710095 234.182483 
L 168.504611 234.088617 
L 168.364944 233.757753 
L 167.950256 233.340097 
L 167.527282 232.948578 
L 167.257713 232.39973 
L 167.091458 232.025069 
L 166.964219 231.750745 
L 166.889651 231.509433 
L 166.810645 230.939112 
L 166.762074 229.789793 
L 166.804684 229.041724 
L 166.88851 228.791582 
L 166.898655 228.453794 
L 166.82079 228.370564 
L 166.659311 228.298572 
L 166.562804 228.083548 
L 166.560352 227.965751 
L 166.576585 227.853523 
L 166.622703 227.761513 
L 166.860906 227.411234 
L 166.938982 227.351533 
L 167.055061 227.325044 
L 167.245201 227.307284 
L 167.524238 227.324843 
L 167.968094 227.242064 
L 168.209045 227.327352 
L 168.318952 227.422673 
L 168.386587 227.437723 
L 169.642108 226.971152 
L 169.900009 226.830679 
L 170.166323 226.645054 
L 170.639769 226.223635 
L 171.12594 225.842352 
L 171.421844 225.481135 
L 171.427829 225.466927 
L 171.476797 225.350696 
L 171.527524 225.124936 
L 171.590932 224.457689 
L 171.206257 224.176794 
L 171.032941 224.131642 
L 170.796176 224.091506 
L 170.458 224.121608 
L 170.221277 224.196861 
L 169.325068 224.568061 
L 168.953074 224.643314 
L 168.399269 224.673416 
L 168.154091 224.638297 
L 168.010366 224.573078 
L 167.77787 224.437672 
L 167.411583 224.158632 
L 166.979268 223.598848 
L 166.902944 223.473225 
L 166.828906 223.351364 
L 166.800753 223.268987 
L 166.77167 223.009012 
L 166.825017 222.573044 
L 166.875617 222.42053 
L 167.007759 222.202295 
L 167.220218 221.984261 
L 167.559747 221.703817 
L 167.627931 221.668047 
L 167.762652 221.686007 
L 167.835783 221.722831 
L 167.950805 221.887335 
L 168.056866 222.08475 
L 168.263998 222.360679 
L 168.38236 222.491118 
L 168.614856 222.671726 
L 169.058754 222.922571 
L 170.204368 223.308871 
L 170.504499 223.374091 
L 170.863811 223.364057 
L 171.059023 223.285392 
L 171.713521 222.922571 
L 171.827655 222.626574 
L 171.920653 221.974378 
L 171.937562 221.72855 
L 171.840337 220.800425 
L 171.751565 219.521168 
L 171.755793 219.034529 
L 171.844564 218.457587 
L 171.878381 218.357249 
L 172.563188 217.298685 
L 172.598535 217.283841 
L 173.65258 216.841194 
L 174.518226 216.716374 
L 175.198382 216.653964 
L 175.282749 216.654169 
L 176.333512 216.656723 
L 177.017389 216.64393 
L 177.530529 216.194768 
L 177.690951 215.852516 
L 177.545873 215.566302 
L 177.088025 215.356445 
L 176.573533 215.312096 
L 175.928039 215.578694 
L 175.308464 215.545157 
L 175.043836 215.530832 
L 173.930814 215.624397 
L 173.249262 215.398236 
L 173.290309 214.895644 
L 173.467851 213.942484 
L 174.051205 211.760187 
L 174.165339 211.559511 
L 174.35979 211.338768 
L 174.554241 211.23843 
L 174.845918 211.153143 
L 176.207119 210.877264 
L 176.262073 210.892314 
L 176.43543 211.559511 
L 176.40064 212.221891 
L 176.431203 212.472585 
L 176.498838 212.698345 
L 176.621427 212.989275 
L 176.735561 213.169883 
L 176.820105 213.250153 
L 176.968057 213.340457 
L 177.285097 213.450829 
L 177.589498 213.440795 
L 177.860039 213.275238 
L 178.092535 213.019376 
L 178.208529 212.790556 
L 178.3066 212.332815 
L 178.282209 212.246624 
L 177.626148 211.596736 
L 177.395005 211.343785 
L 177.331597 211.248464 
L 177.302006 211.143109 
L 177.293552 210.967518 
L 177.348505 210.766892 
L 177.399232 210.686622 
L 177.488003 210.626419 
L 178.175684 210.406278 
L 178.735577 210.054343 
L 179.071554 209.640851 
L 179.838411 208.870557 
L 179.994817 208.684932 
L 180.092043 208.49429 
L 180.168133 208.434088 
L 180.316085 208.459172 
L 180.472491 208.41402 
L 180.523217 208.383919 
L 180.599307 208.243446 
L 180.666942 208.178226 
L 180.920574 208.082905 
L 181.030481 207.992601 
L 181.009345 207.887246 
L 180.848712 207.701621 
L 180.899438 207.230084 
L 180.857166 207.134763 
L 180.586625 207.179915 
L 180.510536 207.13978 
L 180.497854 207.104661 
L 180.654261 206.567854 
L 180.683851 206.226705 
L 180.671169 206.010979 
L 180.704987 205.835388 
L 180.852939 205.604661 
L 181.165752 205.21836 
L 181.47011 204.92738 
L 181.715288 204.751789 
L 183.702114 204.526029 
L 184.264374 204.360472 
L 184.60255 204.134711 
L 184.856309 203.868816 
L 185.456445 203.03245 
L 185.286511 202.957799 
L 185.249312 202.699931 
L 185.173222 202.439052 
L 185.097133 202.298579 
L 184.940726 202.148123 
L 184.627913 201.997616 
L 183.37662 201.726704 
L 182.531137 201.541079 
L 182.264824 201.405623 
L 182.057691 201.235048 
L 181.943557 201.069491 
L 181.846331 200.878849 
L 181.816741 200.74841 
L 181.816741 200.597953 
L 181.833649 200.477548 
L 181.888603 200.347109 
L 182.078827 200.08623 
L 182.374731 199.855453 
L 182.531137 199.79525 
L 182.776357 199.775183 
L 182.962354 199.845419 
L 183.228668 200.036061 
L 183.418892 200.271855 
L 183.833157 200.954102 
L 184.281283 201.355454 
L 184.492643 201.450775 
L 185.185904 201.49091 
L 185.274675 201.450775 
L 185.321174 201.355454 
L 185.211267 200.076196 
L 185.219721 199.975859 
L 185.283129 199.905622 
L 185.846573 199.595779 
L 187.033233 198.947396 
L 187.198093 198.806973 
L 187.375636 198.450774 
L 187.367203 198.140535 
L 187.358727 197.828729 
L 187.363284 197.828034 
L 187.523588 197.803594 
L 187.819534 197.678172 
L 187.920987 197.597902 
L 188.166165 197.296888 
L 188.394433 196.855452 
L 188.453614 196.709962 
L 188.491659 196.544405 
L 188.403564 196.00233 
L 187.963259 195.806922 
L 187.608132 195.721634 
L 187.316455 195.455789 
L 186.897962 195.119658 
L 186.542877 194.923999 
L 186.228374 194.979034 
L 186.175111 195.285215 
L 186.310381 195.661432 
L 186.564013 195.982513 
L 186.61474 196.343729 
L 186.542877 196.589557 
L 186.500605 196.644743 
L 186.417414 197.643857 
L 186.063175 197.509906 
L 185.745036 197.280583 
L 185.408466 197.179493 
L 185.214564 197.154459 
L 184.790745 197.173924 
L 184.388104 197.297741 
L 184.28179 197.354382 
L 183.960608 197.603772 
L 183.851884 197.568904 
L 183.11056 197.544723 
L 182.892309 197.486627 
L 182.561151 197.335167 
L 182.11125 197.242204 
L 181.782416 197.219578 
L 181.67124 197.139508 
L 181.40704 196.639826 
L 181.331247 196.401072 
L 181.286565 196.101614 
L 181.324103 195.637401 
L 181.434771 195.020574 
L 181.560445 194.513416 
L 181.725391 193.999034 
L 181.814542 193.891322 
L 181.985152 193.744778 
L 183.018238 193.16904 
L 183.16154 193.1573 
L 183.233487 193.182234 
L 183.421682 193.285833 
L 183.70799 193.508382 
L 183.842669 193.506927 
L 183.888111 193.514302 
L 184.078335 193.434032 
L 184.420738 192.947394 
L 184.771638 192.64638 
L 185.126723 192.515941 
L 185.490262 192.485839 
L 185.65935 192.536008 
L 186.069389 192.907258 
L 186.335745 192.601228 
L 186.420289 192.440687 
L 186.475242 192.11464 
L 186.53865 191.939048 
L 186.699284 191.778508 
L 187.016324 191.718305 
L 187.215002 191.75844 
L 187.540497 191.898913 
L 187.756084 192.029352 
L 188.259163 192.530991 
L 188.407115 192.636346 
L 188.542385 192.686515 
L 188.453614 193.198238 
L 188.515754 193.804479 
L 188.570116 193.928547 
L 188.661931 193.966976 
L 188.791537 193.973398 
L 188.905335 193.934018 
L 188.921143 193.928547 
L 189.029147 193.870853 
L 189.075097 193.82555 
L 189.367746 193.252571 
L 189.372734 192.528433 
L 189.378145 192.26906 
L 189.498409 191.655494 
L 189.67388 191.430185 
L 189.932712 191.250179 
L 189.958624 191.208037 
L 189.876574 190.946055 
L 189.524914 190.569286 
L 189.467212 190.494986 
L 189.384486 190.316335 
L 189.338325 189.831703 
L 189.479091 189.256968 
L 189.532861 189.141981 
L 189.671344 189.004116 
L 189.738852 188.970403 
L 189.863935 188.95159 
L 190.180721 188.982945 
L 190.225952 189.012394 
L 190.306607 189.162751 
L 190.550348 189.516291 
L 190.651674 189.626562 
L 190.721718 189.668905 
L 190.870389 189.654506 
L 191.45556 189.310498 
L 191.952679 188.894297 
L 192.209439 188.646312 
L 192.673755 188.048549 
L 192.784296 187.843358 
L 193.160728 187.416521 
L 193.902729 185.928561 
L 193.922555 185.192081 
L 193.810196 185.086024 
L 193.359661 185.151344 
L 193.228068 185.285145 
L 192.987033 186.098834 
L 192.564566 186.6381 
L 192.369819 186.846652 
L 191.99753 186.71526 
L 191.417262 186.570071 
L 191.075535 186.520454 
L 190.585095 186.52532 
L 189.228629 186.229273 
L 188.934712 186.114537 
L 188.660747 185.931521 
L 188.517022 185.708269 
L 188.47475 185.57788 
L 188.47475 185.407306 
L 188.639611 184.730025 
L 188.824297 184.408091 
L 188.889861 184.196579 
L 188.92816 183.970769 
L 188.915478 183.615372 
L 189.480105 183.395582 
L 189.744812 183.207048 
L 189.885156 183.074852 
L 190.027781 182.892087 
L 190.091697 182.754223 
L 190.103068 182.564635 
L 190.083158 182.110004 
L 190.065742 182.028178 
L 189.99426 181.898492 
L 189.950719 181.827954 
L 189.572089 181.44958 
L 189.365971 181.346985 
L 188.924651 181.258035 
L 188.708599 181.292401 
L 188.462069 181.514348 
L 187.967486 181.78521 
L 187.55322 182.081207 
L 187.413723 182.126359 
L 186.428743 181.880531 
L 185.697437 181.54445 
L 185.207082 181.278554 
L 184.636368 180.862152 
L 184.065696 180.194956 
L 183.926198 179.989263 
L 183.761337 179.638081 
L 183.706384 179.041121 
L 183.731747 178.785259 
L 184.142758 178.04301 
L 184.382905 177.507959 
L 184.527729 176.547123 
L 185.815841 177.627411 
L 186.513287 178.785259 
L 186.728874 179.016036 
L 187.054411 179.271848 
L 187.646219 179.532726 
L 188.487432 179.68825 
L 188.817914 179.598698 
L 189.058231 179.406852 
L 189.206225 179.009815 
L 189.142944 178.780694 
L 188.88221 178.360228 
L 188.366153 177.970917 
L 187.327446 177.537107 
L 186.255555 176.871466 
L 185.670299 176.358037 
L 185.430955 175.840845 
L 185.715155 175.641825 
L 185.733495 175.628982 
L 186.580711 175.098596 
L 186.82847 174.965872 
L 187.136249 174.800994 
L 187.355176 174.610804 
L 187.695381 174.184318 
L 187.979111 173.928205 
L 188.085129 173.854658 
L 188.23287 173.678665 
L 188.470819 173.284689 
L 188.538539 173.038961 
L 188.540018 172.643781 
L 188.517276 172.528894 
L 188.376933 172.20701 
L 188.06133 171.744403 
L 187.857198 171.575684 
L 187.575921 171.438824 
L 187.389416 171.5653 
L 187.041349 171.947035 
L 186.957397 172.143797 
L 186.913138 172.514345 
L 186.836414 172.732881 
L 186.598127 173.095251 
L 186.560251 173.414727 
L 186.071671 173.505833 
L 185.30435 173.741226 
L 184.954422 173.922336 
L 184.196908 174.232931 
L 183.898468 174.267699 
L 183.650035 174.520901 
L 183.598759 174.538159 
L 183.376662 174.518493 
L 183.258131 174.452972 
L 182.946671 174.194201 
L 182.698619 173.915362 
L 182.574931 173.744587 
L 182.484892 173.567441 
L 182.268713 172.976702 
L 182.174108 172.461868 
L 182.162906 172.205957 
L 182.166161 172.00799 
L 182.210335 171.730606 
L 182.236459 171.692929 
L 182.334869 171.565851 
L 182.563391 171.365778 
L 182.660997 171.303769 
L 182.801594 171.278233 
L 182.846994 171.23574 
L 183.130639 170.821896 
L 183.266121 170.497153 
L 183.666225 170.059078 
L 184.250213 169.639716 
L 184.49036 169.496383 
L 185.235066 169.203598 
L 185.449977 169.071954 
L 185.962102 168.611655 
L 186.253906 168.127524 
L 186.350878 167.793751 
L 186.362207 167.641739 
L 186.255766 167.475128 
L 186.096527 167.379105 
L 185.402844 167.126253 
L 184.836526 166.947351 
L 183.86093 166.753197 
L 183.459346 166.611319 
L 183.098385 166.595817 
L 182.314113 166.66209 
L 182.135852 166.634347 
L 181.960465 166.578659 
L 181.758448 166.400058 
L 181.676482 166.184733 
L 181.655938 165.856578 
L 181.6917 165.648778 
L 182.002568 164.943955 
L 182.03199 164.727727 
L 181.961607 164.68995 
L 181.715837 164.452902 
L 181.842019 163.741356 
L 181.831155 163.116201 
L 181.972048 162.622589 
L 182.021971 162.546383 
L 182.232528 162.403401 
L 182.33694 162.175283 
L 182.535703 161.590815 
L 182.596701 161.49705 
L 182.836341 161.284534 
L 183.25923 160.979306 
L 183.392852 160.98924 
L 183.757829 160.950108 
L 184.199994 160.811893 
L 185.000964 160.059559 
L 185.68074 159.293631 
L 185.782869 159.129578 
L 185.940839 158.671285 
L 185.967894 158.538588 
L 185.968334 158.527478 
L 185.973178 158.40539 
L 185.923719 157.895874 
L 185.965104 157.586232 
L 185.925833 157.396995 
L 185.683065 156.916778 
L 185.618473 156.826674 
L 185.265248 156.557066 
L 185.202601 156.478703 
L 185.153101 156.321122 
L 185.203489 156.244564 
L 185.262036 156.210048 
L 185.329798 156.125012 
L 185.268461 155.574358 
L 184.995933 154.898482 
L 184.823252 154.652253 
L 184.680457 154.491863 
L 184.567803 154.389468 
L 184.159835 154.262741 
L 183.941036 154.291689 
L 183.376704 154.476913 
L 182.983279 154.684411 
L 182.936653 154.728359 
L 182.806962 155.145012 
L 182.851813 155.235416 
L 183.040938 155.386375 
L 183.129836 155.523135 
L 183.139389 155.601298 
L 183.117323 155.667973 
L 183.02889 155.761889 
L 182.889689 155.847527 
L 182.866904 155.889117 
L 182.837483 156.077953 
L 182.937076 156.408667 
L 183.115379 157.217139 
L 183.114745 157.374168 
L 183.080462 157.564659 
L 182.999046 157.837879 
L 182.532575 158.449037 
L 182.252988 158.627588 
L 181.902764 158.730735 
L 181.469053 158.755218 
L 181.250507 158.724765 
L 180.987322 158.652121 
L 180.346732 158.384319 
L 180.220338 158.297627 
L 179.861534 157.954371 
L 179.720599 157.74015 
L 179.668182 157.615731 
L 179.620203 157.360171 
L 179.617878 157.203543 
L 179.6689 156.914771 
L 179.758305 156.725684 
L 179.896324 156.497516 
L 180.235556 156.100128 
L 180.160524 155.966277 
L 180.125015 155.84838 
L 180.132962 155.653725 
L 180.225792 155.535878 
L 180.319339 155.472715 
L 180.761082 154.902094 
L 180.965044 154.779431 
L 181.339152 154.405723 
L 181.522401 154.102502 
L 181.639832 153.595495 
L 181.644989 153.501779 
L 181.636155 153.139309 
L 181.801819 152.720248 
L 182.064032 152.52479 
L 182.334657 152.387728 
L 182.64468 152.341623 
L 182.855406 152.266119 
L 183.208419 152.024405 
L 183.353497 151.787507 
L 183.447129 151.371055 
L 183.576566 150.972062 
L 183.580202 150.902277 
L 183.542072 150.739479 
L 183.396488 150.490591 
L 182.33191 149.613838 
L 181.873977 149.413514 
L 181.651542 149.384516 
L 181.414987 149.302039 
L 181.329091 149.226785 
L 181.279337 149.110293 
L 181.020928 148.772957 
L 180.381902 148.46206 
L 180.203768 148.34321 
L 180.163271 148.280248 
L 180.149026 148.207353 
L 180.122521 147.624841 
L 180.135583 147.430587 
L 180.409675 146.948464 
L 180.499376 146.847976 
L 180.68774 146.693606 
L 180.901467 146.599288 
L 181.504097 146.551728 
L 181.831916 146.594773 
L 181.88911 146.623119 
L 182.196977 146.930303 
L 182.246097 147.095409 
L 182.309125 147.150946 
L 182.606213 147.1966 
L 183.099738 147.230915 
L 183.842542 147.194141 
L 184.255539 147.105643 
L 184.725435 146.848377 
L 184.866581 146.701432 
L 184.962665 146.4244 
L 184.991293 146.24597 
L 185.048351 145.890351 
L 185.0768 145.590442 
L 185.098908 144.634423 
L 184.989128 143.748791 
L 184.864594 143.162567 
L 184.78842 142.629823 
L 185.030512 142.588133 
L 185.161809 142.589287 
L 185.298897 142.508816 
L 185.316144 142.475504 
L 185.316144 142.344512 
L 185.381835 142.295096 
L 185.532746 142.328408 
L 185.676724 142.304277 
L 185.660576 142.164105 
L 185.760803 142.021625 
L 185.890959 142.019318 
L 185.96354 141.799879 
L 186.377213 141.360951 
L 186.534423 141.10524 
L 186.651051 140.664406 
L 186.754914 140.392741 
L 186.805894 140.170442 
L 186.821154 139.929581 
L 186.757027 139.709892 
L 186.629831 139.520203 
L 186.451485 139.388811 
L 186.182593 139.31426 
L 185.831524 139.300262 
L 185.597675 139.365231 
L 185.345607 139.494617 
L 185.230881 139.597764 
L 185.127315 139.732869 
L 185.024044 139.978948 
L 184.846291 140.798056 
L 184.797805 140.922826 
L 184.66004 141.140509 
L 184.56776 141.585557 
L 184.476368 141.758891 
L 184.4338 141.761299 
L 184.178393 141.576978 
L 183.991593 141.36973 
L 183.832481 141.017394 
L 183.709977 140.629488 
L 183.668339 140.559954 
L 183.251114 140.237318 
L 183.358908 139.924765 
L 183.358443 139.647682 
L 182.744738 138.826768 
L 182.678878 138.680225 
L 182.684796 137.938778 
L 182.592136 137.2324 
L 182.605409 137.125941 
L 182.667126 137.003379 
L 182.706228 136.826282 
L 182.653346 136.199372 
L 182.671354 136.144838 
L 182.739031 136.075806 
L 183.376662 135.641995 
L 183.575298 135.455868 
L 184.152353 134.586341 
L 184.376479 134.282869 
L 184.824732 133.851868 
L 185.482442 133.340897 
L 186.032485 132.574717 
L 186.207026 132.200106 
L 186.229473 131.365496 
L 186.212889 131.321655 
L 186.136178 131.118865 
L 185.930187 130.942371 
L 185.806668 130.875697 
L 185.513639 130.840227 
L 185.375874 130.848405 
L 185.205941 130.921651 
L 185.008784 131.052693 
L 184.79455 131.316431 
L 184.679866 131.499447 
L 184.576553 131.753703 
L 184.542397 131.948258 
L 184.544807 132.048195 
L 184.635226 132.351666 
L 184.640468 132.762851 
L 184.46859 133.226612 
L 184.134937 133.686461 
L 183.856196 133.985166 
L 183.439436 134.266012 
L 182.707496 134.619653 
L 182.154621 134.698067 
L 181.635225 134.658182 
L 181.395796 134.591909 
L 181.185535 134.501053 
L 180.585907 134.160256 
L 180.009697 133.699254 
L 179.867874 133.539516 
L 179.829026 133.457941 
L 179.821079 133.324642 
L 179.842976 133.202782 
L 179.987969 132.926251 
L 180.101765 132.795762 
L 180.238135 132.72106 
L 180.550145 132.75081 
L 180.869129 132.658098 
L 181.082983 132.779758 
L 181.213519 132.788387 
L 181.758532 132.528612 
L 182.423217 132.277015 
L 182.540987 132.250225 
L 182.783079 132.287902 
L 183.090185 132.131977 
L 183.146153 132.039816 
L 183.146533 131.971436 
L 183.229513 131.819876 
L 183.546088 131.454696 
L 183.656207 131.176108 
L 183.678188 130.940766 
L 183.606664 130.618531 
L 183.37662 129.9858 
L 182.888505 129.560318 
L 182.015039 128.978358 
L 181.895705 128.882736 
L 181.731816 128.751344 
L 181.588768 128.708399 
L 181.385439 128.789322 
L 181.246999 129.086372 
L 181.176827 129.317149 
L 181.18376 129.681927 
L 181.240785 130.040033 
L 181.40294 130.512574 
L 181.506041 130.999865 
L 181.170698 131.450934 
L 180.980727 131.594316 
L 180.761251 131.704086 
L 180.436644 131.816163 
L 179.923082 131.942188 
L 179.776482 131.944696 
L 179.476393 131.899394 
L 178.723656 131.685022 
L 178.692079 131.602795 
L 178.760475 131.51806 
L 178.798012 131.430866 
L 178.833309 130.93319 
L 178.872453 130.77556 
L 179.224283 130.491403 
L 179.357271 130.477305 
L 179.555273 130.390262 
L 179.850036 130.198316 
L 179.925364 130.112928 
L 179.971525 129.95013 
L 180.228032 129.469913 
L 180.395387 129.201861 
L 180.659967 128.974244 
L 180.81798 128.803971 
L 180.926492 128.692897 
L 180.933636 128.503961 
L 180.861309 128.253869 
L 180.744849 128.09393 
L 179.548383 127.147193 
L 179.395104 126.999646 
L 179.098017 126.556353 
L 178.949684 126.263016 
L 178.845653 125.974996 
L 178.835423 125.740908 
L 178.882725 125.583428 
L 178.906399 125.544349 
L 179.00654 125.379039 
L 179.191184 125.243483 
L 179.303416 125.203498 
L 180.077628 125.07346 
L 180.283324 125.00809 
L 180.678271 124.799187 
L 181.011121 124.533543 
L 181.131511 124.479009 
L 181.226243 124.460898 
L 181.869792 124.541971 
L 182.010389 124.540968 
L 182.233627 124.47329 
L 182.814022 124.063159 
L 182.998962 123.882902 
L 183.066301 123.75748 
L 183.102739 123.634014 
L 183.151056 123.303702 
L 183.131738 123.058626 
L 183.044718 122.804121 
L 182.984336 122.627525 
L 182.780585 122.319187 
L 182.303334 121.950194 
L 181.723658 121.43521 
L 181.429614 121.210052 
L 181.127665 121.042338 
L 180.825674 120.917166 
L 179.73383 120.670235 
L 179.40563 120.520882 
L 179.238529 120.355776 
L 179.089055 120.161572 
L 179.017573 120.028073 
L 178.984305 119.716172 
L 179.033256 119.438738 
L 179.142233 119.204148 
L 179.341292 118.944574 
L 179.700308 118.677375 
L 179.983531 118.548441 
L 180.18073 118.51252 
L 180.628771 118.496215 
L 181.236769 118.433203 
L 181.654585 118.332012 
L 181.797549 118.246374 
L 181.8651 118.23353 
L 182.570112 119.111486 
L 183.025466 119.75395 
L 183.150845 119.867733 
L 184.396601 120.568643 
L 184.689969 120.679014 
L 184.936753 120.727377 
L 185.109053 120.730638 
L 185.34658 120.682426 
L 185.828354 120.461381 
L 186.163486 120.275205 
L 186.529519 120.191724 
L 186.7033 120.181288 
L 187.107927 120.028574 
L 187.204096 119.943187 
L 187.335351 119.686121 
L 187.383033 119.511533 
L 187.380074 119.203295 
L 187.25478 119.152775 
L 187.138363 119.135718 
L 187.094823 118.945377 
L 187.015563 118.760354 
L 186.921043 118.59289 
L 186.687828 118.272813 
L 186.316511 117.96312 
L 186.133515 117.846226 
L 185.970303 117.792244 
L 185.778473 117.762896 
L 185.478384 117.866946 
L 184.866116 118.220085 
L 184.391486 118.338333 
L 184.114816 118.354789 
L 183.688418 118.321527 
L 183.35895 118.149046 
L 183.071035 117.874822 
L 182.547116 117.244851 
L 182.502308 117.138443 
L 182.467391 116.961246 
L 182.471407 116.758213 
L 182.608199 116.224516 
L 182.555275 116.114295 
L 182.553922 116.000461 
L 182.681499 115.782227 
L 182.71519 115.592689 
L 182.692025 115.537503 
L 182.593531 115.47429 
L 182.543735 115.378919 
L 182.531053 115.211154 
L 182.662181 114.886059 
L 182.752685 114.720652 
L 182.859126 114.579878 
L 183.006951 114.43484 
L 183.077503 114.404438 
L 183.245027 114.403083 
L 183.446073 114.47036 
L 183.684064 114.62488 
L 183.952153 114.848533 
L 184.128681 115.04665 
L 184.903189 114.786675 
L 185.050549 114.756122 
L 186.106757 114.694414 
L 186.387359 114.641185 
L 187.533099 115.396679 
L 187.680924 115.429338 
L 188.125414 115.344854 
L 188.660747 115.119596 
L 188.925539 114.897046 
L 189.036376 114.737007 
L 189.111451 114.547118 
L 189.152793 114.34875 
L 189.11758 114.173861 
L 189.014099 113.944037 
L 188.660705 113.595263 
L 188.336901 113.442649 
L 187.815645 113.349536 
L 187.601115 113.273981 
L 186.870866 112.927715 
L 186.684827 112.801791 
L 186.565197 112.633023 
L 186.432463 112.359502 
L 186.268743 112.120999 
L 185.91852 111.710066 
L 185.811403 111.543655 
L 185.655673 111.087319 
L 185.578907 110.690483 
L 185.587911 110.442297 
L 185.668861 110.225668 
L 186.076194 109.684295 
L 186.327206 109.406861 
L 187.114944 108.629443 
L 187.550008 108.155397 
L 187.926271 107.598371 
L 188.20738 107.273829 
L 188.240817 107.201034 
L 188.229065 107.083187 
L 188.115945 106.936493 
L 187.815687 106.693123 
L 187.145084 106.360453 
L 186.690068 106.177437 
L 185.347045 105.843613 
L 185.325535 105.833952 
L 185.110364 105.737305 
L 184.997793 105.632402 
L 184.91587 105.478684 
L 184.869751 105.244396 
L 184.871062 105.057918 
L 184.897989 104.910822 
L 184.948631 104.776269 
L 185.148747 104.549004 
L 185.315002 104.436826 
L 185.478849 104.362326 
L 185.655334 104.317826 
L 186.033204 104.287223 
L 186.620658 104.287474 
L 186.858057 104.200531 
L 186.991721 104.075811 
L 187.237914 103.773493 
L 187.86671 103.380771 
L 188.089906 103.815033 
L 188.454671 104.692186 
L 188.539004 104.998668 
L 188.660662 105.223124 
L 188.882675 105.389183 
L 189.18716 105.505826 
L 189.368676 105.536278 
L 189.643233 105.520375 
L 189.897203 105.451894 
L 190.033488 105.378848 
L 190.136843 105.271637 
L 190.198856 105.159911 
L 190.304452 104.735332 
L 190.290671 104.544991 
L 189.893356 103.945974 
L 189.616813 103.711735 
L 189.512993 103.533535 
L 189.17469 102.583737 
L 189.394758 102.511945 
L 189.64095 102.468499 
L 189.902698 102.454201 
L 190.421376 102.522732 
L 190.765681 102.644742 
L 191.08902 102.633304 
L 191.417304 102.572499 
L 191.888679 102.377794 
L 191.961725 102.374131 
L 192.273481 102.440906 
L 192.914959 102.345033 
L 193.21285 102.191316 
L 193.35928 102.044421 
L 193.424506 101.908112 
L 193.442345 101.778225 
L 193.425309 101.539872 
L 193.354968 101.212922 
L 193.373188 100.909048 
L 193.406582 100.759344 
L 193.469399 100.60076 
L 193.648463 100.332908 
L 193.968631 99.924634 
L 194.07858 99.707854 
L 194.138269 99.499452 
L 194.141101 99.387927 
L 194.079299 99.191616 
L 193.881339 98.877608 
L 193.78386 98.794228 
L 193.626777 98.691783 
L 193.396099 98.631831 
L 193.166097 98.632583 
L 192.844661 98.789512 
L 192.29783 98.885385 
L 192.114835 98.870434 
L 191.993176 98.825082 
L 190.934262 98.051678 
L 190.841644 97.956607 
L 190.567312 97.570101 
L 190.526295 97.512311 
L 190.420911 97.26247 
L 190.38498 96.999334 
L 190.597058 96.590558 
L 191.283387 96.076025 
L 192.469285 95.235495 
L 192.741221 95.294494 
L 193.129785 95.464015 
L 193.607966 95.938161 
L 193.871617 96.107331 
L 194.250205 96.407542 
L 194.389702 96.48736 
L 194.859302 96.640075 
L 195.125743 96.671531 
L 195.593651 96.621763 
L 195.839421 96.524586 
L 196.0329 96.414314 
L 196.164577 96.311819 
L 196.448434 96.019585 
L 196.65954 95.717368 
L 196.789357 95.437877 
L 196.816792 95.137566 
L 196.752496 94.715244 
L 196.696232 94.586861 
L 196.596555 94.469968 
L 196.419097 94.356787 
L 195.919611 94.268439 
L 195.504626 94.317605 
L 195.128279 94.204775 
L 194.769305 94.163285 
L 194.621903 94.192985 
L 194.390294 94.313692 
L 194.175341 94.359697 
L 193.998686 94.346903 
L 193.844605 94.225846 
L 193.623691 94.28951 
L 193.404596 94.409113 
L 193.236057 94.269342 
L 192.393618 93.81125 
L 192.214047 93.65979 
L 191.510979 92.761365 
L 191.403608 92.549351 
L 191.328871 92.148451 
L 191.321939 91.793807 
L 191.353558 91.66397 
L 191.475851 91.487375 
L 191.665906 91.270495 
L 191.913747 91.170709 
L 192.368424 91.20071 
L 192.593058 91.272953 
L 192.641586 91.321266 
L 192.711546 91.45015 
L 192.889131 92.019015 
L 192.964882 92.137815 
L 193.122388 92.281951 
L 193.775067 92.729959 
L 194.284699 92.895968 
L 194.722468 92.92321 
L 194.889188 93.033331 
L 195.098688 93.177466 
L 195.224828 92.953261 
L 195.337821 92.658218 
L 195.428368 92.347321 
L 195.449504 92.190593 
L 195.423337 91.994784 
L 195.429551 91.693269 
L 195.556748 90.991405 
L 195.74972 90.119118 
L 195.825598 89.930784 
L 195.924726 89.810128 
L 196.084894 89.680191 
L 196.23534 89.59992 
L 196.577321 89.51975 
L 196.995856 89.367889 
L 197.222392 89.37105 
L 198.292 89.494415 
L 198.592174 89.465267 
L 199.010413 89.147999 
L 199.119897 89.02669 
L 199.525666 88.374946 
L 199.618369 88.160173 
L 199.630163 87.812452 
L 199.542068 87.471604 
L 199.456721 87.240376 
L 199.277952 86.930683 
L 198.591793 86.340044 
L 198.510039 86.217331 
L 198.483661 86.136659 
L 198.453521 85.805695 
L 198.512026 85.464446 
L 198.566853 85.372236 
L 198.722371 85.239539 
L 198.971269 85.114016 
L 199.228705 85.080754 
L 199.587637 85.115571 
L 200.115403 85.267031 
L 200.293875 85.294474 
L 200.835845 85.287149 
L 201.340615 85.184303 
L 201.748539 85.046288 
L 202.056068 85.035702 
L 202.111064 85.177129 
L 202.170625 85.351165 
L 202.123788 85.833739 
L 201.703985 86.550754 
L 201.613734 86.999163 
L 201.63728 87.355864 
L 201.769337 87.555838 
L 201.93851 87.696963 
L 202.272712 87.834426 
L 202.642761 87.834978 
L 202.978739 87.715676 
L 203.085944 87.49316 
L 203.143896 87.372872 
L 203.148842 87.119218 
L 203.020631 86.694136 
L 203.000746 86.647328 
L 202.747638 86.051523 
L 202.750766 85.687748 
L 203.234443 84.883741 
L 203.099341 84.690139 
L 203.824053 84.28056 
L 204.097045 84.155439 
L 204.238825 84.113798 
L 204.792842 84.034833 
L 204.984588 83.936702 
L 206.390851 82.941802 
L 206.616626 82.711126 
L 206.793788 82.451903 
L 206.909951 82.226845 
L 206.98993 81.989897 
L 207.018632 81.746528 
L 206.955055 81.445314 
L 206.674834 80.868772 
L 206.550808 80.744554 
L 206.262344 80.519898 
L 206.187945 80.398589 
L 206.066667 79.931266 
L 206.000088 79.217312 
L 206.041473 78.901047 
L 206.102832 78.629703 
L 206.143644 78.449226 
L 206.270249 78.249453 
L 206.374576 77.811328 
L 206.483173 77.63684 
L 206.869793 77.206843 
L 207.464602 76.898554 
L 207.868215 76.560516 
L 207.956775 76.428672 
L 208.056156 76.180186 
L 208.079237 76.042021 
L 208.070148 75.903153 
L 207.861325 75.280858 
L 207.719587 75.037839 
L 207.363572 74.594948 
L 207.059213 74.31034 
L 206.836567 74.06677 
L 206.639833 73.676155 
L 206.347902 73.225437 
L 206.114096 72.648244 
L 206.070514 72.102205 
L 206.274039 71.361047 
L 206.291808 71.296342 
L 206.288933 71.249634 
L 206.206799 71.07595 
L 206.151634 70.84432 
L 206.109911 70.156103 
L 206.058635 69.993605 
L 206.063581 69.877364 
L 206.334671 69.412198 
L 206.47252 69.231138 
L 206.710892 69.101652 
L 207.572776 69.004023 
L 208.135332 69.880424 
L 207.68095 70.254534 
L 207.575946 70.442065 
L 207.520147 70.677307 
L 207.471873 71.117891 
L 207.513088 71.387047 
L 207.613188 71.607138 
L 207.78849 71.849354 
L 207.954112 71.954558 
L 208.23019 72.044461 
L 208.440578 72.058508 
L 208.766368 72.007486 
L 209.075503 71.885877 
L 209.458826 71.597205 
L 209.671835 71.391111 
L 209.943305 71.023523 
L 210.313143 70.684181 
L 210.65859 70.430677 
L 211.076956 69.953972 
L 211.236744 69.709348 
L 211.373071 69.219599 
L 211.384231 69.043908 
L 211.334266 68.867464 
L 211.1935 68.639195 
L 211.019297 68.467467 
L 210.849829 68.37917 
L 210.644936 68.344603 
L 210.352203 68.34651 
L 209.946983 68.391611 
L 209.384977 68.520796 
L 208.867694 68.590933 
L 208.566422 68.580196 
L 208.15372 68.481665 
L 207.854477 68.316458 
L 207.026241 67.364403 
L 206.94863 67.252075 
L 206.923309 67.17632 
L 206.919462 67.046783 
L 206.95886 66.741806 
L 207.035076 66.587637 
L 207.115097 66.480527 
L 207.269348 66.374319 
L 207.420977 66.336542 
L 207.55295 66.317929 
L 207.675624 66.273179 
L 207.788828 66.194765 
L 207.864326 66.116401 
L 207.949251 65.948435 
L 207.996426 65.780419 
L 207.999131 65.189931 
L 207.847206 64.736053 
L 207.778133 64.447532 
L 207.764987 64.312276 
L 207.788575 64.17687 
L 207.938429 63.84726 
L 208.100965 63.616032 
L 208.257878 63.475358 
L 208.476847 63.374418 
L 208.833539 63.290084 
L 209.179577 63.315018 
L 209.261796 63.57991 
L 209.645711 64.400273 
L 209.736849 64.668225 
L 209.759211 64.849234 
L 209.745219 64.912246 
L 209.568987 65.181302 
L 209.102811 65.494105 
L 208.932286 65.742191 
L 208.875472 65.989273 
L 208.875472 66.236405 
L 208.913348 66.483487 
L 209.026933 66.77557 
L 209.178351 66.9328 
L 209.730762 67.204715 
L 210.271928 67.23005 
L 210.659182 67.176771 
L 211.073743 67.064543 
L 211.578767 66.767744 
L 211.704822 66.636753 
L 211.810037 66.418969 
L 211.861693 66.188845 
L 211.865371 66.023187 
L 211.786407 65.743997 
L 211.539327 65.196403 
L 211.052016 64.363097 
L 210.920296 63.963853 
L 210.875361 63.744866 
L 210.905501 63.484038 
L 210.973009 63.280051 
L 211.046393 63.151066 
L 211.265235 62.872328 
L 211.533367 62.679278 
L 211.629028 62.380522 
L 211.621673 62.230617 
L 211.331687 61.651668 
L 210.883266 60.920606 
L 210.564028 60.503703 
L 210.482823 60.326707 
L 210.433703 59.929419 
L 210.453993 59.636232 
L 210.478892 59.531881 
L 210.65208 59.226452 
L 210.829031 59.073638 
L 211.231967 58.838897 
L 211.499761 58.790886 
L 211.749292 58.832225 
L 212.13439 58.989153 
L 212.28454 59.073487 
L 212.408862 59.16038 
L 212.482923 59.253192 
L 212.756211 59.831088 
L 212.803387 60.033971 
L 212.79768 60.138373 
L 212.687477 60.448116 
L 212.686674 60.641868 
L 212.725268 60.946343 
L 212.81294 61.326724 
L 213.019016 61.667571 
L 213.083439 61.714279 
L 213.400098 61.806038 
L 213.577556 61.796907 
L 213.690639 61.748219 
L 213.959399 61.632503 
L 214.88076 61.099408 
L 216.05013 60.734931 
L 216.217358 60.638757 
L 216.548686 60.375672 
L 216.890329 60.768344 
L 217.280541 61.076331 
L 217.444092 61.15344 
L 217.777449 61.185097 
L 217.943493 61.086164 
L 218.088909 60.869334 
L 218.142806 60.676234 
L 218.148978 60.570628 
L 218.099308 60.408432 
L 218.068813 60.364038 
L 217.685972 59.806706 
L 217.832698 59.636182 
L 218.172903 59.387545 
L 219.127955 58.884651 
L 220.365214 58.019589 
L 220.440754 57.89823 
L 220.515237 57.676032 
L 220.592215 57.331723 
L 220.60274 56.500674 
L 220.533414 56.163539 
L 220.460876 55.982931 
L 220.366863 55.818377 
L 220.201452 55.628137 
L 219.960756 55.487413 
L 219.175469 55.121982 
L 219.006634 54.992346 
L 218.795063 54.748023 
L 218.548025 54.645528 
L 218.406879 54.556629 
L 218.151176 54.269111 
L 218.068576 54.125527 
L 217.862627 53.58596 
L 226.864864 53.620332 
L 228.367757 53.626071 
L 229.879719 53.631844 
L 231.363867 53.63751 
L 235.102688 53.651786 
L 235.443342 53.653086 
L 235.851441 53.657671 
L 235.867626 53.657853 
L 237.341946 53.661264 
L 238.836653 53.657936 
L 239.595086 53.656247 
L 241.098899 53.626135 
L 241.852496 53.611045 
L 242.590589 53.610156 
L 245.974143 53.606078 
L 245.983951 53.606125 
L 249.323036 53.62214 
L 251.601772 53.633069 
L 252.337897 53.652836 
L 252.627122 53.672201 
L 254.822857 53.683288 
L 256.058629 53.676714 
L 258.300737 53.664787 
L 264.017905 53.634373 
L 264.827203 53.646665 
L 266.579842 53.674659 
L 267.327676 53.655545 
L 267.333552 53.654391 
L 272.087335 53.622985 
L 272.485237 53.623517 
L 276.369446 53.628704 
L 277.986858 53.577231 
L 279.506198 53.616513 
L 280.689318 53.612874 
L 282.229572 53.608135 
L 293.744373 53.574438 
L 295.618594 53.568953 
L 295.621807 53.568 
L 299.396401 53.590175 
L 300.114059 53.591198 
L 304.570367 53.597549 
L 304.751545 53.593034 
L 307.02413 53.588971 
L 307.077097 53.811821 
L 307.558237 54.628721 
L 307.873417 55.002129 
L 308.036883 55.250314 
L 308.20614 55.616849 
L 308.650334 56.708374 
L 308.945266 57.263443 
L 309.295363 57.665697 
L 309.57495 57.903648 
L 309.702992 58.005943 
L 310.19563 58.275099 
L 311.254078 58.683073 
L 311.343315 58.778042 
L 310.93446 62.820353 
L 310.560014 66.097638 
L 310.475935 67.201906 
L 310.285042 68.654053 
L 309.80567 72.300673 
L 309.617306 73.978573 
L 309.595029 74.049813 
L 309.563663 74.355442 
L 308.87446 80.299907 
L 308.479555 84.319039 
L 308.467888 84.428207 
L 308.141464 87.431921 
L 308.046986 88.37926 
L 308.003784 88.796315 
L 307.994604 88.877551 
L 307.590448 92.45393 
L 307.550163 93.265362 
L 307.420895 94.000587 
L 307.359601 94.741683 
L 307.01855 97.721867 
L 306.866876 99.19652 
L 306.721251 100.612349 
L 306.572792 102.073971 
L 306.465885 103.014812 
L 305.909671 107.90982 
L 305.905909 107.970525 
L 305.905909 107.976244 
L 305.790419 108.958957 
L 305.526518 111.204513 
L 305.333673 113.026849 
L 305.208083 113.789367 
L 305.160865 114.492083 
L 304.958156 116.333248 
L 304.817828 117.607824 
L 304.725337 118.650785 
L 304.717854 118.801242 
L 304.654066 119.449424 
L 304.645104 119.489911 
L 304.405881 121.828531 
L 304.1944 123.895946 
L 304.188355 124.008324 
L 304.145576 124.356948 
L 304.106855 124.763868 
L 304.087579 124.9663 
L 304.065682 125.0704 
L 303.872541 126.917168 
L 303.780135 127.797382 
L 303.754095 127.999412 
L 303.176776 133.687623 
L 302.683652 138.546266 
L 302.612921 139.243173 
L 302.269756 142.624305 
L 302.155622 143.507278 
L 302.075305 144.470521 
L 301.491993 150.039171 
L 301.48888 150.071042 
L 301.090494 154.149309 
L 300.776919 157.265874 
L 300.504604 159.972366 
L 299.910386 166.367599 
L 299.699491 168.165201 
L 299.291693 172.423088 
L 299.289411 172.436884 
L 299.043462 174.87289 
L 298.573872 179.523946 
L 298.57369 179.525957 
L 298.412267 181.306448 
L 298.412267 181.312218 
L 298.145651 183.84567 
L 298.044035 184.811249 
L 297.988278 185.11743 
L 297.665574 188.390551 
L 297.377067 191.327289 
L 297.249574 192.455507 
L 296.938622 195.207202 
L 296.936086 195.243725 
L 296.752636 197.005723 
L 296.314362 201.215246 
L 296.249208 201.841039 
L 296.245826 201.884033 
L 295.670039 207.229331 
L 295.660782 207.375373 
L 295.476983 209.201823 
L 295.501712 210.140132 
L 295.562077 211.332547 
L 295.566642 211.35442 
L 295.669659 214.375944 
L 295.820232 217.808 
L 295.848978 219.030119 
L 295.849061 219.033677 
L 296.047867 222.740106 
L 296.058181 222.858003 
L 296.33147 228.952925 
L 296.392257 229.887622 
L 296.414661 230.995603 
L 296.477029 232.180255 
L 296.51548 232.910601 
L 296.51438 232.930116 
L 296.66136 236.187032 
L 296.662502 236.192752 
L 296.893872 240.619222 
L 296.933127 241.370234 
L 296.924673 241.659107 
L 296.95718 242.44395 
L 296.961703 242.503751 
L 297.219435 248.311405 
L 297.481522 253.989273 
L 297.484819 254.036432 
L 297.488744 254.130843 
L 297.641479 257.804907 
L 297.74551 260.307396 
L 297.784908 260.741759 
L 298.046123 267.310395 
L 298.053758 267.502372 
L 298.056336 267.571404 
L 298.084194 268.4463 
L 298.093113 268.778519 
L 298.16785 270.66502 
L 298.2313 272.258436 
L 298.257002 272.525184 
L 298.256072 272.97254 
L 298.31836 274.62686 
L 298.374743 276.124342 
L 298.402798 276.869461 
L 298.406264 276.954798 
L 298.422496 277.469481 
L 298.475928 278.585639 
L 298.782823 285.680879 
L 298.689275 285.767972 
L 298.612086 286.116396 
L 298.695785 286.415352 
L 298.819726 286.530339 
L 298.826913 286.690178 
L 298.522512 286.937259 
L 298.152801 287.050992 
L 297.777257 286.4592 
L 297.139795 286.422025 
L 296.606998 286.76814 
L 296.601503 287.273943 
L 296.297779 287.677552 
L 295.534135 288.159475 
L 295.185729 288.243508 
L 294.142245 288.086629 
L 294.082049 288.040424 
L 294.077484 287.789328 
L 293.394368 287.152484 
L 292.814397 286.991592 
L 291.48063 287.681064 
L 290.881932 287.605459 
L 290.117612 286.32555 
L 289.568245 286.456541 
L 288.533693 286.163945 
L 288.524507 286.161347 
L 287.420235 286.048417 
L 285.866021 286.972027 
L 284.669469 287.023098 
L 283.906375 286.774712 
L 283.817275 286.698886 
L 282.858156 285.882659 
L 281.172645 284.904164 
L 281.058712 285.364227 
L 280.870527 286.124122 
L 278.259639 284.819228 
L 278.121705 284.690194 
L 278.077742 284.548416 
L 277.693025 284.47818 
L 276.505139 284.458112 
L 275.98638 284.495651 
L 274.869192 284.576495 
L 274.425272 284.608619 
L 274.358499 284.620743 
L 272.518763 284.954784 
L 270.960966 285.391433 
L 270.786938 285.440212 
L 269.690639 285.747504 
L 269.088157 286.002175 
L 269.045414 286.020242 
L 267.902653 286.503292 
L 265.311132 287.598737 
L 263.890709 288.035206 
L 262.789681 288.467616 
L 261.718308 288.888379 
L 261.130262 289.008483 
L 260.889312 288.9985 
L 260.762496 288.782773 
L 260.872403 287.75431 
L 261.041491 287.498449 
L 261.306959 287.559454 
L 261.380766 286.665946 
L 260.844715 285.871019 
L 259.89072 285.380719 
L 259.008292 285.450554 
L 258.796721 285.506722 
L 258.437409 285.602114 
L 258.276733 285.712486 
L 257.82865 286.284411 
L 257.732777 286.546594 
L 258.240928 286.80346 
L 258.58591 286.977846 
L 258.885492 287.006844 
L 259.151848 287.262705 
L 259.583065 288.195797 
L 259.57461 288.41654 
L 259.261755 289.018567 
L 258.63613 289.505206 
L 258.052776 289.720932 
L 257.748375 289.921608 
L 257.165022 290.649057 
L 256.987479 290.779496 
L 255.482554 291.455573 
L 255.259527 291.903531 
L 255.265064 292.219545 
L 255.01418 293.015926 
L 254.293992 293.924987 
L 254.275181 294.915623 
L 253.710215 295.447765 
L 253.612144 295.488 
L 253.350185 295.370856 
L 253.0952 294.604124 
L 252.909626 294.494254 
L 252.491767 294.79898 
L 251.936651 295.031061 
L 251.108839 295.029807 
L 251.037399 295.14635 
L 250.891645 294.747808 
L 250.785965 294.572217 
L 250.663376 294.441777 
L 250.439335 294.391608 
L 250.320931 294.411676 
L 250.088435 294.527065 
L 249.999664 294.602318 
L 249.923574 294.722723 
L 249.76294 294.893298 
L 249.441673 295.063872 
L 249.107682 295.169227 
L 248.925912 295.09899 
L 248.659599 294.87323 
L 248.448239 294.577284 
L 248.380604 294.42176 
L 248.317196 294.165898 
L 247.987432 293.588956 
L 247.79298 293.37323 
L 247.52244 293.323061 
L 247.395624 293.272892 
L 247.315265 293.202655 
L 247.175767 293.01708 
L 247.129268 292.896675 
L 247.12504 292.801354 
L 247.175767 292.410036 
L 247.251857 292.098989 
L 247.247629 291.943465 
L 247.163085 291.802992 
L 246.837591 291.67757 
L 246.707985 291.584758 
L 246.502247 291.324933 
L 246.483816 291.16374 
L 246.526511 291.085125 
L 246.550437 291.066061 
L 246.588144 290.809648 
L 246.55589 290.339716 
L 246.518226 290.184192 
L 246.254618 289.914785 
L 246.009736 289.781837 
L 246.083078 288.973265 
L 246.138201 288.824965 
L 246.160562 288.798577 
L 246.399991 288.749662 
L 246.508419 288.69568 
L 246.737618 288.448699 
L 246.721343 288.388395 
L 246.583071 288.109456 
L 246.561005 287.511643 
L 246.589412 287.19287 
L 246.3116 286.957929 
L 245.93538 286.749427 
L 245.91771 286.589489 
L 245.871929 286.529988 
L 245.618593 286.377675 
L 245.428454 286.32856 
L 245.298129 285.978782 
L 245.216544 285.588468 
L 244.881327 285.028483 
L 244.770236 284.684976 
L 244.500076 284.147416 
L 244.39916 283.992006 
L 244.308457 283.852322 
L 244.290195 283.512528 
L 244.366201 283.49522 
L 244.415025 283.570423 
L 244.458607 283.575039 
L 244.527088 283.443998 
L 244.442501 282.695879 
L 244.38201 282.437559 
L 244.315432 282.393109 
L 244.26069 282.16474 
L 244.344684 281.848726 
L 244.320124 281.548566 
L 244.050874 281.173052 
L 244.03724 281.154037 
L 243.793668 280.972827 
L 243.542784 280.880215 
L 243.384729 280.517243 
L 243.215092 280.241164 
L 243.189179 280.218337 
L 243.090727 280.258372 
L 242.947298 280.243973 
L 242.788102 279.974616 
L 242.723468 279.701597 
L 242.578348 279.53634 
L 242.51325 279.503329 
L 242.155586 279.394814 
L 241.826668 279.264726 
L 241.808913 279.195091 
L 241.655931 278.99868 
L 241.381332 279.005001 
L 241.161433 278.85896 
L 241.142749 278.831969 
L 241.130617 278.474766 
L 241.058416 278.33936 
L 240.738713 278.376535 
L 240.65996 278.031574 
L 240.628341 277.734423 
L 240.590338 277.612513 
L 240.433425 277.18111 
L 240.25546 276.905332 
L 240.226672 276.892187 
L 240.068237 276.918877 
L 239.875984 276.899362 
L 239.770135 276.870163 
L 239.652957 276.825563 
L 239.58883 276.794057 
L 239.58659 276.749457 
L 239.593226 276.715342 
L 239.645728 276.707767 
L 239.731498 276.682431 
L 239.744011 276.545169 
L 239.622775 276.292819 
L 239.273735 276.225142 
L 239.229687 276.175725 
L 239.22732 276.090789 
L 239.271875 275.975501 
L 239.328477 275.934162 
L 239.379922 275.934563 
L 239.531256 276.033747 
L 239.71163 275.965066 
L 239.811054 275.852386 
L 239.827244 275.789826 
L 239.800909 275.742466 
L 239.624339 275.635657 
L 239.393872 275.650808 
L 239.232984 275.711161 
L 239.130306 275.741513 
L 239.052314 275.718686 
L 239.045677 275.678702 
L 239.102364 275.515954 
L 238.979944 274.880063 
L 239.025421 274.849732 
L 239.063516 274.824325 
L 239.090739 274.74847 
L 238.87976 274.540971 
L 238.698539 274.532292 
L 238.608458 274.480016 
L 238.553039 274.346968 
L 238.559042 274.274474 
L 238.664468 274.06848 
L 238.776024 273.804541 
L 238.803205 273.725826 
L 238.741488 273.683434 
L 238.677023 273.680724 
L 238.491829 273.755476 
L 238.407624 273.70029 
L 238.445203 273.387638 
L 238.509499 273.197397 
L 238.485996 273.119083 
L 238.408342 272.969179 
L 238.627311 272.406484 
L 238.467227 271.904544 
L 238.335423 271.633682 
L 237.985622 271.227665 
L 237.867852 271.238602 
L 237.658986 271.177546 
L 237.198179 271.042893 
L 237.18237 270.95585 
L 237.254781 270.863188 
L 237.325418 270.842067 
L 237.336744 270.803326 
L 237.39635 270.59945 
L 237.490871 270.366014 
L 237.836148 269.569231 
L 237.891905 269.539481 
L 237.876264 269.118614 
L 237.782547 268.893807 
L 237.729834 268.888439 
L 237.627621 268.96018 
L 237.548361 268.970314 
L 237.450247 268.887736 
L 237.42277 268.78479 
L 237.455531 268.729353 
L 237.858975 268.284305 
L 238.040576 268.32449 
L 238.120935 268.278033 
L 238.205437 267.841162 
L 237.993907 267.753818 
L 237.855847 267.731844 
L 237.829892 267.681475 
L 237.833062 267.357384 
L 237.878265 267.297522 
L 237.893638 267.277163 
L 237.962077 267.241443 
L 238.285162 267.260407 
L 238.481304 267.259203 
L 238.652717 267.224737 
L 238.694185 267.192579 
L 238.712109 267.121339 
L 238.682983 267.085719 
L 238.565298 267.055868 
L 238.398577 267.039965 
L 238.290319 266.973039 
L 238.302113 266.723048 
L 238.212834 266.16547 
L 238.058499 265.704368 
L 238.360406 265.101388 
L 238.498424 264.650871 
L 238.483375 264.521736 
L 238.500622 264.45451 
L 238.581531 264.318752 
L 238.649377 264.277363 
L 238.697609 264.277363 
L 238.802106 264.391347 
L 238.81948 264.478992 
L 238.858581 264.587307 
L 238.880309 264.6595 
L 238.941138 264.680119 
L 239.105746 264.627793 
L 239.175748 264.551185 
L 239.193122 264.499611 
L 239.184456 264.453205 
L 239.127981 264.411966 
L 239.092726 264.385026 
L 239.02805 264.334606 
L 238.93243 264.210889 
L 238.906391 264.179935 
L 238.919411 264.133529 
L 238.962866 264.087123 
L 239.046015 264.051202 
L 239.195827 263.953422 
L 239.219796 263.916498 
L 239.373792 263.556386 
L 239.405454 263.318234 
L 239.38956 263.122274 
L 239.448529 263.033124 
L 239.497692 263.001868 
L 239.533919 262.99334 
L 239.740587 263.056603 
L 239.98792 263.2786 
L 240.135449 263.17761 
L 240.187698 263.069847 
L 240.068617 262.705521 
L 239.948058 262.54212 
L 239.838615 262.55075 
L 239.79609 262.524913 
L 239.780322 262.467419 
L 239.809236 262.17383 
L 239.920031 261.866345 
L 240.125093 261.808551 
L 240.211708 261.796309 
L 240.227433 261.759837 
L 240.19704 261.644097 
L 240.076818 261.464041 
L 240.050398 261.383118 
L 240.064897 261.30656 
L 240.094023 261.268833 
L 240.167618 261.239183 
L 240.2897 261.279971 
L 240.459464 261.407701 
L 240.550434 261.387332 
L 240.586999 261.336311 
L 240.746238 260.87571 
L 240.753255 260.789469 
L 240.734317 260.748582 
L 240.321404 260.396446 
L 240.271143 260.307446 
L 240.296971 260.120918 
L 240.359237 260.011299 
L 240.429071 259.99078 
L 240.65865 259.952802 
L 240.574782 259.552153 
L 240.509599 259.219935 
L 240.52879 259.145885 
L 240.575839 259.106302 
L 240.64842 259.093108 
L 240.866882 259.217075 
L 241.052879 259.247829 
L 241.136662 259.197007 
L 241.208313 259.115332 
L 241.223235 259.008874 
L 241.090839 258.750655 
L 241.015172 258.731841 
L 240.929402 258.674598 
L 240.894359 258.546969 
L 240.904884 258.465193 
L 240.972604 258.373384 
L 241.107748 258.303248 
L 241.1917 258.310322 
L 241.332508 258.420342 
L 241.502145 258.41382 
L 241.643968 258.269585 
L 241.725511 258.112656 
L 241.739926 258.030179 
L 241.709786 257.937918 
L 241.580983 257.890107 
L 241.502145 257.566718 
L 241.553802 257.416161 
L 241.551857 257.36238 
L 241.502145 257.268313 
L 241.258574 257.078675 
L 241.228181 256.957969 
L 241.237523 256.880257 
L 241.454674 256.481865 
L 241.77611 256.128526 
L 241.795471 256.052721 
L 242.110313 255.722609 
L 242.184416 255.705251 
L 242.291787 255.744834 
L 242.37912 255.739215 
L 242.433482 255.725368 
L 242.474444 255.68137 
L 242.473852 255.56538 
L 242.419068 255.493437 
L 242.093404 255.327629 
L 242.048469 255.245603 
L 242.059713 255.193377 
L 242.100759 255.156102 
L 242.259026 255.144914 
L 242.329493 255.06369 
L 242.35363 254.944138 
L 242.447982 254.380289 
L 242.411416 254.326759 
L 242.264648 254.326107 
L 242.171988 254.266255 
L 242.116485 254.059911 
L 242.350671 254.058205 
L 242.429889 253.997651 
L 242.42908 253.930243 
L 242.429001 253.923652 
L 242.366904 253.848599 
L 242.244822 253.803247 
L 241.850974 253.872981 
L 241.707503 253.932632 
L 241.622367 254.036381 
L 241.539514 254.067938 
L 241.442627 254.061165 
L 241.415065 254.036432 
L 241.393549 253.95265 
L 238.697144 253.941061 
L 238.351021 253.942265 
L 237.8892 253.942315 
L 237.87373 253.942301 
L 236.987961 253.941512 
L 235.472678 253.957365 
L 235.269435 253.949639 
L 234.187144 253.973068 
L 234.016281 253.97352 
L 232.086945 253.975777 
L 231.975854 253.960727 
L 230.711836 253.977182 
L 229.999426 253.980293 
L 229.687078 253.985912 
L 228.793786 253.984657 
L 225.509252 253.993086 
L 225.382901 253.999256 
L 223.992871 253.994189 
L 223.976046 253.996447 
L 222.719873 254.00152 
L 219.965324 254.012643 
L 216.310822 254.027401 
L 216.259123 254.027602 
L 216.25866 254.027603 
L 215.323179 254.028806 
L 214.851212 254.052034 
L 213.0935 254.055145 
L 212.893468 254.05685 
L 212.449528 254.059158 
L 212.26463 254.059208 
L 212.232757 254.05956 
L 211.634702 254.057853 
L 210.896328 254.055747 
L 210.818801 254.058656 
L 210.76148 254.05981 
L 210.398279 254.058656 
L 210.361376 254.061014 
L 207.788427 254.059496 
L 206.960762 254.059008 
L 206.270756 254.060764 
L 206.231443 254.060764 
L 206.107798 254.065479 
L 206.052717 254.063172 
L 203.514495 254.071399 
L 203.409998 254.070195 
L 199.889586 254.085045 
L 199.886246 254.084644 
L 198.862292 254.066533 
L 198.415984 254.077018 
L 198.13496 254.071149 
L 197.971071 254.072854 
L 197.80676 254.073356 
L 196.027769 254.0777 
L 196.019415 254.077721 
L 193.115202 254.064175 
L 186.882517 254.094438 
L 186.119906 254.098141 
L 185.779318 254.099795 
L 185.249058 254.100347 
L 184.095032 254.102956 
L 184.08755 254.101802 
L 181.219448 254.088571 
L 181.21652 254.088557 
L 179.193425 254.086601 
L 179.160833 254.086601 
L 178.245602 254.072001 
L 171.903743 254.092822 
L 170.75792 254.096584 
L 170.667965 254.09543 
L 167.639556 254.09548 
L 167.524323 254.111284 
L 165.892159 254.076316 
L 162.240238 254.087403 
L 161.740414 254.074911 
L 162.240238 253.776005 
L 163.027681 253.482918 
L 163.705174 253.179195 
L 164.214552 252.840053 
L 164.498535 252.551482 
L 164.807036 252.090781 
L 164.940827 251.726554 
L 164.977477 251.56185 
L 164.996837 251.330521 
L 164.938671 250.990024 
L 164.817477 250.692824 
L 164.66961 250.524457 
L 163.526364 249.457966 
L 162.89947 248.950608 
L 162.677965 248.810135 
L 162.517035 248.661083 
L 162.391699 248.514138 
L 162.203208 248.181067 
L 162.182833 248.06924 
L 162.21534 247.585712 
L 162.240238 247.429386 
L 162.278325 247.336573 
L 162.38595 247.178993 
L 163.12461 246.292257 
L 163.313355 246.039054 
L 163.426221 245.843396 
L 163.661254 245.360469 
L 163.765074 245.086146 
L 163.779911 244.963784 
L 163.769597 244.565744 
L 163.747941 244.456329 
L 163.72259 244.328244 
L 163.51216 243.913046 
L 163.233715 243.58173 
L 162.240196 242.703875 
L 161.427009 242.285315 
L 161.103079 241.870067 
L 160.980997 241.494603 
L 160.976685 241.412326 
" clip-path="url(#p4f85171eca)" style="fill: #c733ff"/>
   </g>
   <g id="text_1">
    <!-- MS -->
    <g transform="translate(227.174063 35.472) scale(0.12 -0.12)">
     <defs>
      <path id="DejaVuSans-4d" d="M 628 4666 
L 1569 4666 
L 2759 1491 
L 3956 4666 
L 4897 4666 
L 4897 0 
L 4281 0 
L 4281 4097 
L 3078 897 
L 2444 897 
L 1241 4097 
L 1241 0 
L 628 0 
L 628 4666 
z
" transform="scale(0.015625)"/>
      <path id="DejaVuSans-53" d="M 3425 4513 
L 3425 3897 
Q 3066 4069 2747 4153 
Q 2428 4238 2131 4238 
Q 1616 4238 1336 4038 
Q 1056 3838 1056 3469 
Q 1056 3159 1242 3001 
Q 1428 2844 1947 2747 
L 2328 2669 
Q 3034 2534 3370 2195 
Q 3706 1856 3706 1288 
Q 3706 609 3251 259 
Q 2797 -91 1919 -91 
Q 1588 -91 1214 -16 
Q 841 59 441 206 
L 441 856 
Q 825 641 1194 531 
Q 1563 422 1919 422 
Q 2459 422 2753 634 
Q 3047 847 3047 1241 
Q 3047 1584 2836 1778 
Q 2625 1972 2144 2069 
L 1759 2144 
Q 1053 2284 737 2584 
Q 422 2884 422 3419 
Q 422 4038 858 4394 
Q 1294 4750 2059 4750 
Q 2388 4750 2728 4690 
Q 3069 4631 3425 4513 
z
" transform="scale(0.015625)"/>
     </defs>
     <use xlink:href="#DejaVuSans-4d"/>
     <use xlink:href="#DejaVuSans-53" x="86.279297"/>
    </g>
   </g>
  </g>
 </g>
 <defs>
  <clipPath id="p4f85171eca">
   <rect x="153.458354" y="41.472" width="165.403292" height="266.112"/>
  </clipPath>
 </defs>
</svg>
