<?xml version="1.0" encoding="utf-8" standalone="no"?>
<!DOCTYPE svg PUBLIC "-//W3C//DTD SVG 1.1//EN"
  "http://www.w3.org/Graphics/SVG/1.1/DTD/svg11.dtd">
<svg xmlns:xlink="http://www.w3.org/1999/xlink" width="460.8pt" height="345.6pt" viewBox="0 0 460.8 345.6" xmlns="http://www.w3.org/2000/svg" version="1.1">
 <metadata>
  <rdf:RDF xmlns:dc="http://purl.org/dc/elements/1.1/" xmlns:cc="http://creativecommons.org/ns#" xmlns:rdf="http://www.w3.org/1999/02/22-rdf-syntax-ns#">
   <cc:Work>
    <dc:type rdf:resource="http://purl.org/dc/dcmitype/StillImage"/>
    <dc:date>2023-06-19T14:47:45.602834</dc:date>
    <dc:format>image/svg+xml</dc:format>
    <dc:creator>
     <cc:Agent>
      <dc:title>Matplotlib v3.7.1, https://matplotlib.org/</dc:title>
     </cc:Agent>
    </dc:creator>
   </cc:Work>
  </rdf:RDF>
 </metadata>
 <defs>
  <style type="text/css">*{stroke-linejoin: round; stroke-linecap: butt}</style>
 </defs>
 <g id="figure_1">
  <g id="patch_1">
   <path d="M 0 345.6 
L 460.8 345.6 
L 460.8 0 
L 0 0 
z
" style="fill: #ffffff"/>
  </g>
  <g id="axes_1">
   <g id="PatchCollection_1">
    <path d="M 73.855649 103.552652 
L 73.855605 102.723515 
L 73.855578 102.20062 
L 73.854568 83.072273 
L 78.531921 83.064945 
L 84.647179 83.074991 
L 98.702917 83.121324 
L 104.059812 83.104461 
L 109.589755 83.08559 
L 112.935244 83.071524 
L 117.389516 83.063132 
L 120.865885 83.075819 
L 122.966897 83.097803 
L 127.399085 83.150636 
L 135.459823 83.187355 
L 142.565688 83.193423 
L 146.628318 83.191532 
L 153.150734 83.171714 
L 158.430187 83.160486 
L 162.79534 83.161471 
L 167.933236 83.156112 
L 172.218811 83.15887 
L 178.074713 83.165686 
L 183.20623 83.160564 
L 187.73324 83.183061 
L 190.855269 83.211664 
L 195.316866 83.235697 
L 200.13894 83.222696 
L 203.038509 83.214737 
L 210.227114 83.202642 
L 213.374983 83.180973 
L 213.395337 83.179515 
L 217.278026 83.160525 
L 221.768681 83.151306 
L 223.009237 83.148832 
L 224.413863 83.14603 
L 227.536491 83.139802 
L 236.516773 83.122466 
L 246.276664 83.10454 
L 251.160907 83.094103 
L 251.162286 83.0941 
L 257.895781 83.103398 
L 264.441497 83.140235 
L 267.769983 83.137595 
L 274.511155 83.14055 
L 280.908231 83.133971 
L 285.034138 83.122506 
L 289.344663 83.120024 
L 298.319323 83.114153 
L 307.220434 83.127037 
L 308.842577 83.098276 
L 313.593858 83.101546 
L 319.464519 83.104737 
L 327.704819 83.11108 
L 332.660125 83.118527 
L 335.269211 83.121898 
L 338.849716 83.126524 
L 342.455587 83.126879 
L 344.124196 83.129716 
L 350.400338 83.121127 
L 355.389783 83.117423 
L 361.126644 83.124791 
L 366.268513 83.135941 
L 370.956786 83.144529 
L 375.703337 83.151621 
L 383.122511 83.155364 
L 389.653333 83.140235 
L 398.229106 83.121639 
L 398.23481 83.617506 
L 398.231079 84.416149 
L 398.232728 84.532925 
L 398.226106 84.721052 
L 398.230782 84.794845 
L 398.228863 85.003696 
L 398.22416 85.090096 
L 398.226917 85.339448 
L 398.228782 85.456461 
L 398.225917 85.720233 
L 398.227619 86.568202 
L 398.227565 86.77524 
L 398.23035 86.942644 
L 398.228295 87.836512 
L 398.223592 88.001276 
L 398.223862 88.069474 
L 398.225457 88.324342 
L 398.230106 88.395456 
L 398.223403 89.118297 
L 398.23235 91.10141 
L 398.233215 91.436296 
L 398.241432 92.339147 
L 398.232917 92.901755 
L 398.23854 93.068134 
L 398.250893 96.335908 
L 398.251812 96.376409 
L 398.251487 96.546098 
L 398.251379 96.601492 
L 398.250784 96.898515 
L 398.252623 96.948945 
L 398.259029 97.526012 
L 398.258002 97.800579 
L 398.258921 97.854594 
L 398.249622 98.069472 
L 398.242 98.902155 
L 398.248433 99.195633 
L 398.252839 100.331723 
L 398.253596 101.239184 
L 398.257245 101.564141 
L 398.251082 101.591365 
L 398.260894 101.783826 
L 398.256515 102.101415 
L 398.24627 102.803769 
L 398.259759 103.035628 
L 398.264164 104.10151 
L 398.26776 104.658799 
L 398.266813 104.675031 
L 398.269571 104.882975 
L 398.272328 104.936084 
L 398.275842 105.914659 
L 398.271138 106.308957 
L 398.275598 107.111973 
L 398.277112 107.160906 
L 398.277175 107.166111 
L 398.284113 107.738485 
L 398.291762 107.762872 
L 398.292817 109.01826 
L 398.300737 112.387957 
L 398.305548 112.453516 
L 398.311386 112.80487 
L 398.309116 112.867631 
L 398.310116 112.992563 
L 398.313684 114.864061 
L 398.31736 114.920795 
L 398.31536 115.559993 
L 398.318036 116.027217 
L 398.352608 122.657282 
L 398.351472 122.786153 
L 398.357662 123.626165 
L 398.369448 124.296921 
L 398.373989 124.491391 
L 398.403695 126.797097 
L 398.419048 127.929759 
L 398.413453 128.740694 
L 398.394586 130.05904 
L 398.398235 130.172468 
L 398.399532 130.255283 
L 398.377503 132.46017 
L 398.37634 132.467498 
L 398.362825 137.277636 
L 398.349337 137.779098 
L 398.35823 138.136007 
L 398.352905 141.273451 
L 398.339065 143.803413 
L 398.334308 144.628216 
L 398.326956 146.242916 
L 398.327052 146.258188 
L 398.332524 147.127251 
L 398.31982 148.370779 
L 398.320361 148.823741 
L 398.320533 148.895728 
L 398.32555 150.990096 
L 398.324631 151.109828 
L 398.326442 151.209269 
L 398.32728 151.388059 
L 398.326361 151.424108 
L 398.324523 151.506017 
L 398.314846 153.40533 
L 398.334551 156.881679 
L 398.326632 158.24553 
L 398.328334 158.702983 
L 398.319252 158.806522 
L 398.32182 159.384613 
L 398.322685 159.636723 
L 398.32355 159.788919 
L 398.327415 160.292271 
L 398.326767 160.421261 
L 398.313522 164.217603 
L 398.31436 164.502137 
L 398.314171 164.506944 
L 398.304467 168.56879 
L 398.317955 172.720071 
L 398.317928 172.847958 
L 398.31882 172.88125 
L 398.31336 173.174806 
L 398.316009 173.377432 
L 398.321492 176.026439 
L 398.321496 176.028504 
L 398.32616 179.988785 
L 398.327605 181.215724 
L 398.299007 186.174866 
L 398.315819 186.84641 
L 398.316333 187.830422 
L 398.316144 188.513983 
L 398.317538 190.26157 
L 398.322415 196.375638 
L 398.308305 196.417242 
L 398.279572 201.292664 
L 398.316847 203.455197 
L 398.35504 205.950489 
L 398.355608 206.344511 
L 398.360879 206.485911 
L 398.393775 211.150158 
L 398.411615 218.717902 
L 398.419454 219.002515 
L 398.417562 219.458314 
L 398.433023 220.867 
L 398.429536 220.999891 
L 398.416291 221.362552 
L 398.441916 222.468896 
L 398.45289 225.196598 
L 398.460891 225.955409 
L 398.45681 227.092365 
L 398.454296 227.463103 
L 398.460303 232.31127 
L 398.464594 235.77449 
L 398.475785 235.811879 
L 398.472271 240.677056 
L 398.487273 240.757114 
L 398.187993 240.794503 
L 397.98559 240.800018 
L 392.783687 240.768933 
L 386.837774 240.759753 
L 386.829529 240.759753 
L 381.600244 240.743364 
L 381.565402 240.753253 
L 379.911174 240.717794 
L 379.006064 240.735602 
L 378.86529 240.730993 
L 372.021835 240.681587 
L 371.993615 240.685842 
L 371.83192 240.687379 
L 371.480877 240.685237 
L 371.476769 240.685212 
L 370.444319 240.685117 
L 362.478152 240.684386 
L 349.591402 240.683203 
L 347.825863 240.66173 
L 347.802184 240.699356 
L 347.42576 240.949102 
L 344.813796 240.947501 
L 338.359738 240.943546 
L 338.356248 240.943529 
L 330.165393 240.903485 
L 321.460735 240.860928 
L 321.349856 240.858486 
L 318.790343 240.847218 
L 317.081066 240.839693 
L 316.427068 240.816842 
L 316.158305 240.832798 
L 315.597534 240.748683 
L 315.058334 240.722916 
L 314.827305 240.69451 
L 308.954672 240.643371 
L 305.153966 240.640495 
L 303.093093 240.654791 
L 302.024558 240.662203 
L 301.996717 240.664922 
L 298.163818 240.668152 
L 293.81553 240.647934 
L 291.495465 240.637146 
L 291.405995 240.65062 
L 287.385857 240.656963 
L 285.518359 240.67749 
L 284.986943 240.690688 
L 284.684042 240.720158 
L 284.681796 240.720039 
L 284.093267 240.688915 
L 277.890404 240.710978 
L 276.126892 240.676032 
L 275.78731 240.679735 
L 274.629572 240.682739 
L 272.960668 240.687068 
L 265.738699 240.705802 
L 262.710637 240.713657 
L 262.149812 240.71417 
L 261.597448 240.466197 
L 257.272975 240.48822 
L 257.114497 240.490663 
L 254.237957 240.517178 
L 253.948219 240.506265 
L 248.86952 240.595147 
L 246.454307 240.59889 
L 244.101129 240.63557 
L 242.810302 240.612698 
L 242.804836 240.612601 
L 240.722204 240.569775 
L 237.497082 240.573754 
L 237.322602 240.570185 
L 236.672819 240.556892 
L 236.651114 240.554409 
L 234.387163 240.544954 
L 231.970652 240.848991 
L 229.611798 240.822909 
L 228.593538 240.732056 
L 228.115372 240.736114 
L 227.55944 240.675441 
L 226.472037 240.94268 
L 224.170595 240.999768 
L 222.573238 240.995907 
L 222.430842 241.004653 
L 218.299556 241.001226 
L 217.069811 240.77965 
L 216.778235 240.701405 
L 216.144266 240.5825 
L 209.136197 240.645814 
L 209.114824 240.645882 
L 208.840918 240.646759 
L 208.813671 243.224196 
L 208.829295 243.315718 
L 208.795264 245.952252 
L 208.808022 250.551216 
L 208.832484 251.519823 
L 208.837303 253.847502 
L 208.840675 255.476043 
L 208.915657 261.248524 
L 208.497903 261.157435 
L 207.394742 260.876053 
L 206.862893 260.408671 
L 206.586076 259.733935 
L 206.75515 259.106281 
L 206.140184 258.727388 
L 205.636312 258.454318 
L 205.447316 258.235657 
L 205.449992 257.86421 
L 205.287431 257.600911 
L 204.89041 257.424722 
L 204.26155 257.393755 
L 204.086501 256.998708 
L 203.910858 256.112128 
L 204.276768 255.545187 
L 203.50589 254.454248 
L 203.056781 254.604986 
L 202.849702 254.275616 
L 203.071513 253.777109 
L 202.071932 252.227929 
L 201.587035 251.563122 
L 201.258806 251.231782 
L 200.950606 251.482986 
L 200.719389 251.439884 
L 200.423272 251.015998 
L 200.435516 250.863408 
L 200.206029 250.545818 
L 200.139388 250.499997 
L 199.929103 250.355406 
L 199.689912 250.457015 
L 199.583115 250.685958 
L 199.673559 250.771058 
L 199.562302 251.607681 
L 199.138034 252.104179 
L 198.869272 251.974834 
L 198.723578 251.73352 
L 198.475197 251.717878 
L 197.324744 252.175635 
L 197.198663 252.225801 
L 197.108922 252.332492 
L 197.084892 252.518649 
L 197.228964 253.016762 
L 197.41596 253.221042 
L 197.639338 253.390888 
L 197.545759 253.887425 
L 196.955363 254.692923 
L 196.711252 254.695287 
L 196.476115 254.915681 
L 196.670031 255.46446 
L 196.246655 255.855488 
L 196.162456 256.297103 
L 196.182674 256.503669 
L 196.336288 257.160754 
L 196.692331 257.452616 
L 196.607969 257.724858 
L 196.675032 257.956402 
L 197.036346 258.011205 
L 197.653691 258.356571 
L 197.692858 258.652964 
L 197.586197 258.79862 
L 196.799344 258.828641 
L 196.384915 258.919257 
L 196.171862 258.500729 
L 195.560139 258.157412 
L 195.291458 258.260006 
L 195.12287 258.231875 
L 194.502551 257.931109 
L 194.340234 257.983942 
L 194.083959 258.271234 
L 193.728349 258.476854 
L 193.647289 258.457727 
L 191.91283 258.048476 
L 191.300675 258.035041 
L 191.156468 258.428985 
L 190.996421 258.691496 
L 190.409404 258.710525 
L 190.160455 258.800905 
L 189.820819 259.076693 
L 189.741404 259.231331 
L 188.539095 259.527882 
L 188.497739 259.945425 
L 188.130829 260.041163 
L 187.561733 259.379942 
L 187.379251 258.837506 
L 186.805911 257.884225 
L 186.336989 257.908652 
L 185.912235 258.152251 
L 184.712765 258.170138 
L 184.615969 258.434658 
L 183.823683 258.961807 
L 183.434501 259.010583 
L 182.931223 258.738577 
L 182.421513 258.5694 
L 182.358856 258.725063 
L 182.382968 258.92107 
L 182.307012 259.212341 
L 181.861255 259.024569 
L 181.440204 258.945181 
L 180.783557 259.224988 
L 180.702601 259.492503 
L 180.560286 259.58568 
L 180.419972 259.586389 
L 179.924074 259.283101 
L 179.816574 258.976858 
L 179.617198 258.83459 
L 178.856484 258.765446 
L 178.448164 259.106045 
L 178.333718 259.104232 
L 177.313026 258.692441 
L 177.102757 258.457036 
L 177.174009 258.230693 
L 177.085458 257.934418 
L 176.743038 257.724346 
L 176.313796 257.668204 
L 175.569868 257.709336 
L 174.989932 258.135665 
L 174.847834 258.297789 
L 174.789773 258.43517 
L 174.790827 258.756227 
L 174.67757 258.866148 
L 173.877581 258.882656 
L 173.731185 259.002939 
L 173.603953 259.270493 
L 173.666582 260.6778 
L 173.60371 260.947561 
L 173.337785 261.701132 
L 172.834346 262.453442 
L 171.538161 261.895641 
L 170.862268 261.364001 
L 170.514658 261.193918 
L 169.782055 261.862744 
L 169.473829 261.729026 
L 169.465098 261.572418 
L 169.280346 261.361085 
L 168.655459 261.038531 
L 168.423863 261.000827 
L 167.803355 261.156253 
L 167.514563 261.141085 
L 167.037045 260.76101 
L 165.58968 260.905956 
L 165.344353 260.940863 
L 165.163682 260.75116 
L 164.173129 260.287915 
L 163.867822 260.23587 
L 163.43604 260.44015 
L 163.059588 260.752421 
L 162.326391 261.023836 
L 161.761755 261.796358 
L 160.919328 262.673521 
L 160.707329 263.454356 
L 161.089484 264.05388 
L 161.340541 264.651198 
L 161.323458 265.209551 
L 161.29507 265.250403 
L 161.127515 265.491524 
L 160.468787 265.992868 
L 160.183995 265.923763 
L 159.471098 265.122401 
L 159.388898 264.411262 
L 158.497601 264.134292 
L 157.585057 263.629954 
L 156.770417 262.996312 
L 156.179481 262.344861 
L 156.090227 261.521397 
L 155.771431 261.129069 
L 155.568487 260.52458 
L 155.81449 260.250211 
L 156.090713 259.680551 
L 156.08082 259.384236 
L 155.130542 258.746378 
L 155.029124 258.398806 
L 155.234014 258.100206 
L 155.261315 257.871263 
L 154.624508 257.360385 
L 154.373531 256.855968 
L 154.045734 256.636993 
L 154.009622 256.379722 
L 154.28152 255.918446 
L 154.502276 255.78201 
L 154.740765 255.732132 
L 154.82837 255.632454 
L 154.941357 255.309664 
L 154.883107 255.011419 
L 154.502385 254.522052 
L 154.428943 254.246146 
L 154.371801 253.794248 
L 154.44381 253.598714 
L 154.367395 253.328757 
L 154.061331 252.866496 
L 153.624575 252.626758 
L 153.541051 252.189397 
L 153.514454 251.383741 
L 153.116135 251.026123 
L 152.630941 250.448583 
L 152.553093 250.159163 
L 152.723844 249.976789 
L 152.72206 249.657702 
L 152.474327 249.505585 
L 151.998918 249.342122 
L 151.847548 249.418003 
L 151.426956 249.094109 
L 151.318051 248.841054 
L 151.021664 248.50278 
L 150.609073 248.230183 
L 149.822355 248.030276 
L 149.594301 247.683335 
L 148.750522 248.086931 
L 148.251867 248.455226 
L 148.125419 248.627515 
L 147.038909 249.184292 
L 146.705625 248.912759 
L 146.68592 248.766079 
L 146.904081 248.630943 
L 146.920083 248.563454 
L 146.650807 247.807518 
L 146.083279 247.271741 
L 145.56135 247.094173 
L 144.860319 246.996977 
L 143.917826 245.665157 
L 143.434362 244.453856 
L 143.00012 243.562352 
L 142.79404 242.980596 
L 142.910244 242.733057 
L 143.278126 242.665567 
L 143.441795 242.725256 
L 143.639495 242.754174 
L 144.139799 242.538153 
L 144.279708 242.288132 
L 144.250515 241.64787 
L 144.192373 241.313142 
L 144.19586 240.76519 
L 144.443403 240.433378 
L 144.114093 239.322346 
L 144.076197 238.946525 
L 144.058384 238.373635 
L 143.825707 238.151744 
L 143.663903 238.234401 
L 143.328727 238.245472 
L 143.059559 237.870243 
L 142.208699 237.16064 
L 142.419752 236.797585 
L 142.595881 236.442448 
L 142.493301 236.178283 
L 141.980644 236.116033 
L 141.422063 236.251761 
L 140.741764 235.648691 
L 140.881646 235.153139 
L 140.202184 234.166409 
L 140.330335 233.734918 
L 140.070439 233.178299 
L 139.059964 232.316698 
L 138.775876 231.713943 
L 138.70384 231.460691 
L 138.515628 231.195698 
L 138.283005 231.005443 
L 138.045787 230.881496 
L 137.928475 230.887052 
L 137.760968 230.712281 
L 137.569242 230.259791 
L 137.582271 230.034394 
L 137.676336 229.8179 
L 137.641684 229.536478 
L 136.391748 227.892978 
L 136.307197 227.716631 
L 136.267435 227.092207 
L 136.393667 226.337809 
L 136.478542 225.537235 
L 136.459567 225.335713 
L 136.424157 225.249825 
L 135.707259 224.692417 
L 135.346729 224.681544 
L 135.271557 224.332672 
L 135.615086 224.062675 
L 135.608139 223.711321 
L 135.103185 222.906177 
L 135.079182 222.783767 
L 135.606193 221.886983 
L 135.725531 221.537953 
L 135.542563 220.928737 
L 135.516344 220.25148 
L 135.464067 220.134743 
L 135.235931 220.086205 
L 134.743493 220.084353 
L 134.574013 220.096291 
L 134.403857 220.224374 
L 133.71699 220.192028 
L 134.113984 218.395584 
L 134.545361 217.856497 
L 134.608395 217.668607 
L 134.571148 217.359212 
L 134.469135 216.984337 
L 134.027487 216.576959 
L 132.991253 216.136722 
L 132.326253 216.398327 
L 131.821191 216.201847 
L 131.891362 215.727492 
L 132.023567 215.434369 
L 131.932097 215.167563 
L 131.645332 214.964544 
L 131.095616 214.18233 
L 130.909191 213.290555 
L 130.908053 213.285112 
L 130.301763 213.515671 
L 130.056382 213.224203 
L 129.605651 212.949242 
L 128.822394 213.281645 
L 128.722868 213.407326 
L 128.689945 213.868838 
L 128.70246 214.297925 
L 128.872319 214.774408 
L 128.840234 214.941062 
L 128.738654 215.153498 
L 128.340632 215.152986 
L 127.417196 215.977317 
L 127.034149 216.622542 
L 126.997415 216.91145 
L 127.02577 217.188735 
L 126.904566 217.416379 
L 126.533602 217.606515 
L 125.938556 217.689015 
L 125.69131 218.075749 
L 125.667253 218.151118 
L 125.768833 218.290391 
L 125.755372 218.428482 
L 125.589135 218.744693 
L 125.059666 218.923915 
L 124.378339 218.982382 
L 124.204616 219.214557 
L 124.03346 219.566896 
L 123.739829 219.607318 
L 123.083614 219.179729 
L 122.538169 219.20124 
L 122.437752 219.518987 
L 122.536494 219.699668 
L 122.546197 220.052007 
L 122.173395 221.173558 
L 121.927392 221.555722 
L 121.697635 221.772412 
L 120.237971 222.611596 
L 119.918986 222.587957 
L 119.49461 222.028501 
L 119.362134 221.386309 
L 119.283746 221.295693 
L 118.740491 220.894343 
L 118.005645 220.624464 
L 117.378893 219.587383 
L 117.057989 219.333106 
L 116.898483 219.27586 
L 116.796362 218.59427 
L 116.439103 218.51567 
L 115.779103 218.823174 
L 115.558401 218.675706 
L 115.249715 218.324549 
L 115.024985 218.220459 
L 114.391583 218.621573 
L 114.133984 218.420011 
L 114.155203 217.655763 
L 114.27019 217.412478 
L 114.69908 216.799638 
L 114.516004 216.411998 
L 114.271866 216.308538 
L 114.018646 215.823427 
L 114.009266 215.594917 
L 114.079707 215.496657 
L 114.762926 215.07482 
L 114.927594 215.007567 
L 115.131295 215.124974 
L 115.523153 214.746395 
L 115.739612 214.349024 
L 115.747559 213.932584 
L 115.49961 213.768845 
L 115.519802 213.522645 
L 115.853572 212.998214 
L 115.685633 212.505735 
L 115.432818 212.135391 
L 115.066557 212.049148 
L 114.519761 211.458962 
L 114.484324 210.90124 
L 113.94115 210.21894 
L 114.229969 209.730992 
L 114.521761 209.526199 
L 114.929081 208.421117 
L 115.337617 208.111249 
L 115.269204 207.883251 
L 115.327319 207.57295 
L 115.667901 207.277463 
L 116.010672 207.193623 
L 116.283651 207.281403 
L 116.508679 207.214819 
L 116.847342 207.025195 
L 117.260932 206.745586 
L 117.721583 206.906449 
L 118.094737 207.126685 
L 118.181639 207.089848 
L 118.267487 206.625854 
L 118.750627 205.94517 
L 118.779739 205.676316 
L 118.566389 205.191953 
L 118.316223 205.11162 
L 118.076897 204.797143 
L 117.590594 203.841419 
L 117.586026 203.751354 
L 117.683633 203.688238 
L 117.792727 203.511931 
L 118.000968 203.362572 
L 118.110279 203.18658 
L 118.305573 203.047031 
L 118.371716 202.826834 
L 118.332495 202.607779 
L 118.180017 202.435963 
L 118.111387 202.180938 
L 117.596189 201.819025 
L 117.111347 201.775726 
L 116.91335 201.501514 
L 116.659021 201.44352 
L 116.474377 201.580468 
L 116.310898 201.594928 
L 116.0876 201.286281 
L 116.163285 200.978659 
L 116.437697 200.655002 
L 116.263892 200.114812 
L 115.908281 200.199873 
L 115.558914 200.09468 
L 115.599082 199.720751 
L 115.874656 199.441614 
L 116.606664 198.693991 
L 116.760628 198.214002 
L 116.809688 197.483833 
L 116.421371 196.876666 
L 115.926392 196.746573 
L 115.168002 196.279664 
L 115.055502 195.704724 
L 115.438603 194.75491 
L 116.020268 194.703101 
L 116.315466 194.971325 
L 116.720542 194.688484 
L 117.020822 194.657911 
L 117.191383 194.456901 
L 117.264717 193.313957 
L 117.102156 192.768723 
L 117.188491 192.593795 
L 117.029634 191.804608 
L 116.587905 191.507426 
L 116.527762 190.777612 
L 116.675213 190.548826 
L 116.993278 190.63503 
L 117.315777 190.522311 
L 117.474877 190.411602 
L 117.694661 190.135262 
L 117.741207 189.966835 
L 117.527911 189.273306 
L 117.575755 189.06678 
L 118.060949 188.073904 
L 118.080404 187.845945 
L 118.144094 187.099663 
L 118.119496 186.862682 
L 117.825785 186.058602 
L 118.221887 185.501431 
L 118.770062 185.152362 
L 118.853343 184.942921 
L 118.884941 184.296513 
L 119.165651 184.126706 
L 119.118861 183.840123 
L 118.885725 183.550309 
L 118.984953 183.17374 
L 118.890969 182.93412 
L 118.582931 182.810133 
L 118.430994 182.509485 
L 118.340875 181.67302 
L 118.412289 181.525867 
L 118.850045 181.408066 
L 119.099183 181.537332 
L 119.716042 181.306143 
L 119.998644 180.835097 
L 119.805756 180.447614 
L 119.934447 179.9928 
L 119.860357 179.606894 
L 120.067274 179.087388 
L 120.277651 178.777126 
L 120.281839 178.690196 
L 120.288788 178.545977 
L 119.989994 178.11228 
L 120.527168 177.234604 
L 120.516545 175.978901 
L 120.471999 175.559664 
L 120.277192 175.276233 
L 120.273934 175.274816 
L 119.525154 174.949109 
L 118.58112 175.115764 
L 118.341388 175.321147 
L 118.138012 175.406523 
L 117.772643 175.281158 
L 116.993765 175.729589 
L 117.007037 176.024091 
L 116.687133 176.332619 
L 116.249728 176.399675 
L 115.750073 176.116086 
L 115.247066 176.093945 
L 114.536628 175.785653 
L 113.936312 176.009199 
L 113.556265 176.298185 
L 113.269555 176.340972 
L 113.173296 176.312225 
L 112.735787 176.181566 
L 112.590337 175.927959 
L 112.711162 175.791129 
L 112.62899 175.493593 
L 112.425047 175.368307 
L 112.056704 175.318271 
L 111.967964 175.024005 
L 111.903605 174.529674 
L 112.153608 174.361483 
L 112.387447 174.078918 
L 112.425803 173.39717 
L 112.109522 173.09991 
L 111.762993 172.529974 
L 111.358484 172.295042 
L 110.99816 172.235289 
L 110.43548 172.14198 
L 110.350551 172.146038 
L 110.091465 172.836414 
L 109.885521 173.159677 
L 109.614353 173.147661 
L 109.224522 173.262428 
L 108.966653 173.803997 
L 108.536573 173.839298 
L 108.44786 173.643567 
L 108.025889 173.32716 
L 107.956665 173.132965 
L 108.161717 172.547113 
L 108.332548 172.461618 
L 108.50784 172.200999 
L 108.554467 171.440336 
L 108.089627 171.009948 
L 107.983479 170.63728 
L 107.915471 170.587284 
L 107.719852 170.678491 
L 107.402597 170.482602 
L 107.144431 170.518179 
L 106.81731 170.452935 
L 106.627125 170.077785 
L 106.409909 170.015299 
L 105.996805 169.591649 
L 105.965395 169.334299 
L 105.866654 169.223511 
L 105.475849 169.336309 
L 105.169001 169.636406 
L 104.969085 169.47306 
L 105.037228 169.155077 
L 104.926323 168.891581 
L 104.501839 168.780793 
L 104.190341 168.464503 
L 104.148661 168.087264 
L 104.259053 167.909342 
L 104.10498 167.607196 
L 103.805295 167.554875 
L 103.610217 167.417611 
L 103.709959 167.108374 
L 103.856058 167.034581 
L 104.024429 166.813951 
L 104.078166 166.55601 
L 103.922822 165.954398 
L 104.16223 165.459161 
L 104.324709 165.341557 
L 104.25516 165.138656 
L 104.061001 165.066676 
L 103.276771 164.659691 
L 103.31137 164.545909 
L 103.047608 164.314129 
L 102.578497 163.798484 
L 102.226832 163.240486 
L 102.177259 163.009257 
L 101.444413 162.861198 
L 101.34759 163.02214 
L 100.918105 163.102591 
L 100.610392 162.323135 
L 100.431587 161.868676 
L 100.183394 160.884428 
L 99.831838 160.094492 
L 99.615893 160.012268 
L 99.390757 160.019871 
L 98.737299 159.262439 
L 98.385797 158.479753 
L 98.404556 158.111181 
L 98.32806 157.921203 
L 97.920173 157.852926 
L 97.55775 157.680637 
L 97.386297 157.283699 
L 97.166216 156.789881 
L 96.727433 156.396016 
L 96.22521 156.041786 
L 95.640463 155.963738 
L 95.340534 155.517985 
L 95.291042 155.08031 
L 95.118345 154.744045 
L 94.427991 154.625811 
L 94.091923 154.498909 
L 94.069434 154.306724 
L 94.214046 153.80869 
L 94.318816 153.643099 
L 94.135469 153.01773 
L 93.913712 152.855409 
L 93.782777 152.835 
L 93.626056 152.634227 
L 93.442222 152.220229 
L 93.580915 151.879119 
L 93.044498 151.569645 
L 92.501892 151.672711 
L 91.824755 151.377894 
L 91.201193 151.495655 
L 90.882343 151.247604 
L 90.841987 151.030243 
L 90.561926 150.884706 
L 89.968962 150.971934 
L 89.843595 150.90082 
L 89.839216 150.776124 
L 89.542585 150.622786 
L 89.226763 150.806027 
L 89.073312 150.691851 
L 88.471131 150.360039 
L 87.919361 149.977245 
L 87.621189 148.993903 
L 87.332235 148.73281 
L 87.374403 148.229654 
L 87.177189 148.000671 
L 86.92478 148.017455 
L 86.630528 147.833583 
L 86.615526 147.458827 
L 85.530259 146.840589 
L 84.847122 147.023633 
L 84.44456 146.134689 
L 84.002479 146.04427 
L 83.95723 145.792042 
L 83.336614 145.513772 
L 82.93689 145.51456 
L 82.720863 145.165333 
L 82.288838 145.13673 
L 81.976259 145.247518 
L 81.689738 145.206702 
L 82.004884 144.490835 
L 82.495322 144.328159 
L 82.801603 144.098309 
L 83.779668 143.910655 
L 84.014183 144.02948 
L 84.668722 143.92799 
L 84.929916 143.735608 
L 85.196435 143.006385 
L 85.058175 142.927352 
L 84.689373 143.080572 
L 84.371118 143.067729 
L 84.174527 142.66689 
L 83.761368 142.834766 
L 83.68417 142.80967 
L 83.471306 142.131822 
L 82.998924 141.561768 
L 83.023414 141.275303 
L 83.400865 141.102187 
L 83.131373 140.831954 
L 82.836066 140.866073 
L 82.206828 140.686929 
L 81.874598 140.493641 
L 81.80013 140.17282 
L 82.46075 139.461523 
L 82.693536 139.297626 
L 83.154186 139.030191 
L 83.483983 138.287257 
L 83.440654 137.327081 
L 83.076231 136.890942 
L 82.935241 136.866751 
L 82.48324 136.611647 
L 82.31303 136.114756 
L 82.557357 135.19843 
L 82.675074 134.50829 
L 82.461859 134.158079 
L 82.116844 133.855263 
L 81.700577 133.574747 
L 81.54518 133.637627 
L 81.298744 133.625729 
L 81.180838 133.473454 
L 81.03628 133.177888 
L 81.088124 132.593336 
L 80.671857 132.099084 
L 80.494917 132.026434 
L 79.911873 132.259987 
L 79.73204 132.134621 
L 79.634461 131.930853 
L 79.636974 131.590098 
L 79.492011 131.163414 
L 79.306799 130.974657 
L 79.286337 130.092647 
L 79.343182 129.845659 
L 79.188244 129.322292 
L 78.667289 128.99631 
L 78.556032 128.687782 
L 78.386822 128.435633 
L 77.84654 128.685615 
L 77.693981 128.528889 
L 77.655787 128.33174 
L 77.452654 128.277922 
L 76.8242 127.157907 
L 76.181148 126.516818 
L 76.12625 126.053651 
L 76.02021 125.891133 
L 75.637569 125.766714 
L 75.473576 125.503651 
L 75.316205 125.120069 
L 74.986679 124.61912 
L 74.979083 124.44297 
L 74.360008 123.582669 
L 74.140576 123.632862 
L 73.853973 123.41629 
L 73.853947 123.396856 
L 73.852757 122.506938 
L 73.866894 120.145404 
L 73.851189 119.887305 
L 73.848621 119.470629 
L 73.85188 119.020975 
L 73.862244 117.590936 
L 73.838866 113.9892 
L 73.83343 113.151772 
L 73.850297 112.665912 
L 73.839971 111.691513 
L 73.861244 110.30552 
L 73.832727 106.222084 
L 73.855649 103.552652 
" clip-path="url(#pdd929e1bd9)" style="fill: #ffc733"/>
   </g>
   <g id="text_1">
    <!-- MT -->
    <g transform="translate(227.318437 67.916646) scale(0.12 -0.12)">
     <defs>
      <path id="DejaVuSans-4d" d="M 628 4666 
L 1569 4666 
L 2759 1491 
L 3956 4666 
L 4897 4666 
L 4897 0 
L 4281 0 
L 4281 4097 
L 3078 897 
L 2444 897 
L 1241 4097 
L 1241 0 
L 628 0 
L 628 4666 
z
" transform="scale(0.015625)"/>
      <path id="DejaVuSans-54" d="M -19 4666 
L 3928 4666 
L 3928 4134 
L 2272 4134 
L 2272 0 
L 1638 0 
L 1638 4134 
L -19 4134 
L -19 4666 
z
" transform="scale(0.015625)"/>
     </defs>
     <use xlink:href="#DejaVuSans-4d"/>
     <use xlink:href="#DejaVuSans-54" x="86.279297"/>
    </g>
   </g>
  </g>
 </g>
 <defs>
  <clipPath id="pdd929e1bd9">
   <rect x="57.6" y="73.916646" width="357.12" height="201.222709"/>
  </clipPath>
 </defs>
</svg>
