<?xml version="1.0" encoding="utf-8" standalone="no"?>
<!DOCTYPE svg PUBLIC "-//W3C//DTD SVG 1.1//EN"
  "http://www.w3.org/Graphics/SVG/1.1/DTD/svg11.dtd">
<svg xmlns:xlink="http://www.w3.org/1999/xlink" width="460.8pt" height="345.6pt" viewBox="0 0 460.8 345.6" xmlns="http://www.w3.org/2000/svg" version="1.1">
 <metadata>
  <rdf:RDF xmlns:dc="http://purl.org/dc/elements/1.1/" xmlns:cc="http://creativecommons.org/ns#" xmlns:rdf="http://www.w3.org/1999/02/22-rdf-syntax-ns#">
   <cc:Work>
    <dc:type rdf:resource="http://purl.org/dc/dcmitype/StillImage"/>
    <dc:date>2023-06-19T14:47:42.998756</dc:date>
    <dc:format>image/svg+xml</dc:format>
    <dc:creator>
     <cc:Agent>
      <dc:title>Matplotlib v3.7.1, https://matplotlib.org/</dc:title>
     </cc:Agent>
    </dc:creator>
   </cc:Work>
  </rdf:RDF>
 </metadata>
 <defs>
  <style type="text/css">*{stroke-linejoin: round; stroke-linecap: butt}</style>
 </defs>
 <g id="figure_1">
  <g id="patch_1">
   <path d="M 0 345.6 
L 460.8 345.6 
L 460.8 0 
L 0 0 
z
" style="fill: #ffffff"/>
  </g>
  <g id="axes_1">
   <g id="PatchCollection_1">
    <path d="M 388.665158 142.267897 
L 388.97801 142.094385 
L 389.452105 142.108329 
L 389.971254 142.219117 
L 390.146783 142.396619 
L 390.553846 142.573673 
L 391.129111 142.997814 
L 391.004644 143.150164 
L 391.038307 143.582554 
L 391.351159 143.664871 
L 391.971406 144.52046 
L 392.693445 145.832875 
L 392.585791 146.224062 
L 392.783993 147.65641 
L 392.56081 147.943624 
L 392.422314 147.937616 
L 391.882213 147.522801 
L 390.823219 147.303064 
L 390.560842 147.004283 
L 391.109112 146.627399 
L 391.090357 145.554449 
L 390.989333 145.227421 
L 390.642306 144.663036 
L 390.327842 144.593228 
L 389.732357 143.801484 
L 389.761697 143.446524 
L 389.567781 143.183252 
L 388.775962 142.728579 
L 388.648894 142.367611 
L 388.665158 142.267897 
" clip-path="url(#pc7c403f71c)" style="fill: #ff5733"/>
    <path d="M 378.161515 181.140512 
L 378.623486 180.449961 
L 378.955678 180.084062 
L 379.054761 179.703546 
L 379.0037 179.359929 
L 379.054761 179.063165 
L 379.24615 178.844504 
L 379.628964 178.797652 
L 379.885737 178.945608 
L 380.317562 178.864321 
L 381.446958 178.173098 
L 381.945191 177.847864 
L 382.543094 177.481919 
L 384.536139 176.506127 
L 385.281878 176.298585 
L 385.511545 176.220482 
L 385.931245 176.018231 
L 386.230178 175.774283 
L 386.506877 175.517646 
L 387.658507 175.286387 
L 387.677695 175.276991 
L 387.9907 175.123725 
L 388.395419 175.064677 
L 388.987204 174.839156 
L 389.31936 174.635829 
L 389.684739 174.310594 
L 389.850853 174.229263 
L 390.105318 173.862019 
L 390.232935 173.783916 
L 390.309491 173.783916 
L 390.548388 173.985315 
L 390.94699 174.025981 
L 391.810639 173.741367 
L 392.198032 173.534005 
L 392.746741 173.065433 
L 393.346475 172.737463 
L 393.37186 172.521627 
L 393.384753 172.268891 
L 393.423031 172.143936 
L 393.844123 172.284494 
L 393.97174 172.393847 
L 394.737369 172.300096 
L 395.663801 171.993065 
L 395.896325 171.301887 
L 396.095626 169.96015 
L 396.294927 169.146975 
L 396.511077 167.958036 
L 396.726751 166.870111 
L 396.959275 165.20314 
L 397.158576 163.861403 
L 397.424323 162.479046 
L 397.3911 161.909819 
L 397.353261 161.429231 
L 397.429817 160.648292 
L 397.623623 160.080186 
L 397.756478 159.429673 
L 397.756478 157.356092 
L 397.563331 156.374561 
L 397.360294 155.411098 
L 397.021508 154.353796 
L 396.702466 153.713415 
L 396.396244 151.870376 
L 396.331812 151.229906 
L 395.913944 149.638662 
L 396.11416 149.543567 
L 396.276649 149.744473 
L 396.884075 150.917988 
L 397.116342 151.563525 
L 397.737504 153.799947 
L 398.487273 157.478088 
L 398.435918 158.163304 
L 398.346909 159.407838 
L 398.022225 162.722994 
L 397.457546 166.666829 
L 396.892829 169.878819 
L 396.023539 173.742398 
L 395.741236 174.101707 
L 395.331645 173.985315 
L 394.766966 173.822698 
L 394.036171 173.863319 
L 392.940035 174.025981 
L 392.00994 174.351215 
L 390.648057 174.879777 
L 388.588602 175.692952 
L 387.837357 175.922844 
L 387.525652 176.018231 
L 387.093827 176.140182 
L 386.36307 176.506127 
L 384.502916 177.441254 
L 381.845559 178.864321 
L 380.68294 179.514835 
L 379.985406 180.084062 
L 379.287834 180.571958 
L 378.602937 181.212338 
L 378.176753 181.453327 
L 378.11049 181.296673 
L 378.161515 181.140512 
" clip-path="url(#pc7c403f71c)" style="fill: #ff5733"/>
    <path d="M 74.266676 180.689874 
L 74.319643 180.067652 
L 74.324734 180.04918 
L 74.457626 178.770078 
L 74.706816 176.718152 
L 74.808206 176.046791 
L 74.915054 174.960211 
L 74.915103 174.959672 
L 74.99128 174.113051 
L 75.013954 174.153178 
L 75.07399 174.162549 
L 75.248419 174.067991 
L 75.27406 174.009706 
L 75.534129 173.700343 
L 76.08727 173.382014 
L 76.182507 173.189222 
L 76.361991 173.041266 
L 76.72096 172.875331 
L 76.823522 172.785661 
L 77.131246 172.355244 
L 77.277764 172.216255 
L 77.427945 172.162453 
L 77.699003 172.211771 
L 77.863835 172.296958 
L 78.094638 172.583858 
L 78.101963 172.646627 
L 78.191266 172.759029 
L 78.233829 173.117396 
L 78.292437 173.256385 
L 78.329066 173.301221 
L 78.581809 173.328122 
L 78.721001 173.467111 
L 79.083669 173.435726 
L 79.138614 173.359506 
L 79.380368 173.207067 
L 79.446301 173.207022 
L 79.713696 173.310143 
L 79.746663 173.292209 
L 79.801607 173.202538 
L 79.933473 173.175637 
L 80.380059 173.157748 
L 80.504929 173.189088 
L 80.625806 173.251857 
L 80.739943 173.301221 
L 80.839905 173.315344 
L 80.901443 173.301221 
L 80.959134 173.268267 
L 80.977449 173.175592 
L 81.021404 173.045571 
L 81.047045 173.02544 
L 81.184955 172.988944 
L 81.400006 172.99818 
L 81.408468 173.028354 
L 81.431691 173.059021 
L 81.471983 173.063505 
L 81.650185 173.003022 
L 81.844834 173.072472 
L 81.876519 173.102332 
L 82.050948 173.135196 
L 82.244901 173.018669 
L 82.585555 172.700295 
L 82.589218 172.619592 
L 82.651342 172.518085 
L 82.885917 172.426801 
L 83.036134 172.3999 
L 83.288877 172.269878 
L 83.581913 172.202625 
L 83.695464 172.121922 
L 84.058132 171.745261 
L 84.30355 171.283459 
L 84.557247 171.126297 
L 84.600285 171.099635 
L 84.761455 170.96513 
L 84.838376 170.714053 
L 84.651566 170.359855 
L 84.570981 170.310537 
L 84.340216 170.2388 
L 84.314575 170.198449 
L 84.321901 169.978756 
L 84.432925 169.640924 
L 84.433987 169.586583 
L 84.442815 169.494537 
L 84.508748 169.40935 
L 84.54655 169.287667 
L 84.477137 169.142357 
L 84.43472 169.124109 
L 84.227727 168.607697 
L 84.249228 168.541028 
L 84.328018 168.496955 
L 84.715814 168.359625 
L 84.763433 168.345233 
L 84.883138 168.197904 
L 84.919584 168.105275 
L 85.068739 167.867693 
L 85.344742 167.563128 
L 85.318332 167.239329 
L 85.263388 167.068955 
L 85.212107 166.992735 
L 85.234084 166.912032 
L 85.321995 166.755109 
L 85.321995 166.723724 
L 85.105881 166.391944 
L 85.065589 166.36056 
L 84.959364 166.333659 
L 84.933723 166.302274 
L 84.834823 166.104999 
L 84.82475 165.959958 
L 84.866838 165.851232 
L 84.977678 165.791153 
L 85.083904 165.755285 
L 85.193829 165.602846 
L 85.428257 165.356252 
L 85.540197 165.281602 
L 85.626056 165.162654 
L 85.650378 165.120554 
L 85.690231 164.91225 
L 85.746457 164.778865 
L 85.894843 164.585895 
L 86.236779 164.393776 
L 86.417985 164.148528 
L 86.60952 164.099164 
L 86.605345 163.935023 
L 86.668787 163.82011 
L 86.727174 163.806749 
L 86.843986 163.829257 
L 86.896256 163.808722 
L 87.03651 163.625033 
L 87.049184 163.475193 
L 87.049111 163.434842 
L 87.049115 163.43414 
L 87.04922 163.416684 
L 87.167607 163.413635 
L 87.255701 163.447485 
L 87.34852 163.573965 
L 87.476466 163.550247 
L 87.710968 163.374494 
L 87.740821 163.277201 
L 87.929719 163.086338 
L 88.196089 163.004783 
L 88.373668 162.979944 
L 88.56894 163.003124 
L 88.670147 162.99214 
L 88.85432 162.883818 
L 88.946187 162.718555 
L 88.991058 162.508592 
L 89.079994 162.299526 
L 89.229625 162.21138 
L 89.273178 162.118616 
L 89.278233 162.069477 
L 89.234167 162.020741 
L 89.234973 161.963576 
L 89.444201 161.725277 
L 89.540829 161.708016 
L 89.575884 161.670534 
L 89.862033 161.237202 
L 89.924266 161.038672 
L 90.015437 160.968595 
L 90.288107 160.86099 
L 90.515832 160.871526 
L 90.777806 160.829337 
L 90.97425 160.864846 
L 91.171902 160.945549 
L 91.47589 160.842384 
L 91.780208 160.698642 
L 91.943831 160.703709 
L 92.011156 160.740653 
L 92.589609 160.270735 
L 92.629352 160.176357 
L 92.859348 159.944425 
L 93.431939 159.69281 
L 93.676368 159.549921 
L 93.934129 159.232577 
L 93.983799 159.02396 
L 94.244967 159.049964 
L 94.425587 159.007191 
L 94.526611 158.957335 
L 94.783859 159.067539 
L 95.304913 158.874345 
L 95.404619 158.977734 
L 95.752159 159.034899 
L 95.850033 158.968857 
L 96.347754 158.736342 
L 96.470572 158.738898 
L 96.534564 158.776649 
L 96.587164 158.777232 
L 96.691045 158.744457 
L 97.19188 158.722219 
L 97.48074 158.657612 
L 97.597038 158.71657 
L 97.846888 158.697963 
L 97.965875 158.708991 
L 97.968314 158.709217 
L 98.042745 158.750958 
L 98.152341 158.705944 
L 98.32721 158.746385 
L 98.608451 158.857756 
L 98.790975 158.846547 
L 98.912438 158.80077 
L 98.961888 158.752662 
L 99.089139 158.711234 
L 99.185255 158.765216 
L 99.713525 158.490063 
L 99.948796 158.246832 
L 100.098354 158.251809 
L 100.206484 158.301665 
L 100.484282 158.540009 
L 100.720285 158.806733 
L 100.74545 158.938818 
L 100.802225 158.98706 
L 100.933725 158.998583 
L 101.140865 158.938728 
L 101.284489 158.87152 
L 101.5165 158.850223 
L 101.766532 158.903891 
L 102.026491 158.924067 
L 102.441906 158.86327 
L 102.685748 158.90963 
L 103.187572 158.867754 
L 103.29398 158.990199 
L 103.998328 158.985267 
L 104.243306 158.811037 
L 104.467478 158.751093 
L 104.647329 158.373177 
L 104.724031 158.257996 
L 104.694947 158.098293 
L 104.703555 158.073544 
L 104.839634 158.008129 
L 104.93791 157.928457 
L 104.938496 157.813097 
L 104.986335 157.760236 
L 105.304425 157.657294 
L 105.559219 157.413167 
L 105.679767 157.194685 
L 105.873683 156.937063 
L 105.922583 156.796325 
L 106.091262 156.799194 
L 106.417228 156.879808 
L 106.809969 156.823988 
L 106.832386 156.805606 
L 106.854144 156.721719 
L 107.166153 156.566904 
L 107.378275 156.420517 
L 107.469555 156.369943 
L 107.723873 156.30686 
L 107.869439 156.200376 
L 108.017788 155.875007 
L 108.013393 155.819771 
L 108.323681 155.76951 
L 108.40672 155.778881 
L 108.450638 155.682844 
L 108.563201 155.579858 
L 108.619537 155.563044 
L 108.685653 155.612632 
L 108.766494 155.612722 
L 108.811219 155.589139 
L 109.131067 155.205843 
L 109.204582 155.082905 
L 109.235168 154.978932 
L 109.228941 154.87608 
L 109.293446 154.748479 
L 109.374616 154.641772 
L 109.459047 154.597116 
L 109.53205 154.614153 
L 109.882923 154.497582 
L 109.982482 154.390112 
L 110.490313 154.509194 
L 110.607381 154.679568 
L 110.795949 154.868144 
L 110.878988 154.884151 
L 111.179753 154.811876 
L 111.367479 154.736284 
L 111.494876 154.549367 
L 111.590149 154.315686 
L 111.604544 154.068779 
L 111.660111 153.984892 
L 111.952671 153.83725 
L 112.161385 153.762779 
L 112.311639 153.672525 
L 112.388598 153.496458 
L 112.530976 153.400869 
L 112.682549 153.327788 
L 112.797383 153.204088 
L 112.889213 153.018605 
L 112.906941 152.77506 
L 112.870861 152.664407 
L 112.907601 152.523849 
L 112.939761 152.417052 
L 112.930567 152.287747 
L 112.893645 152.170638 
L 112.894114 152.165406 
L 112.8987 152.114325 
L 113.049027 151.949062 
L 113.332759 151.831729 
L 113.382904 151.782186 
L 113.436493 151.64221 
L 113.752496 151.671891 
L 114.097362 151.670098 
L 114.194283 151.649339 
L 114.304501 151.687404 
L 114.395013 151.746497 
L 114.788743 151.651491 
L 114.921561 151.70628 
L 114.989655 151.698972 
L 115.352177 151.506001 
L 115.450527 151.501876 
L 115.581954 151.25071 
L 115.628143 151.098719 
L 115.750376 150.873153 
L 115.956673 150.780568 
L 116.018723 150.774785 
L 116.216632 150.393193 
L 116.192567 150.210176 
L 116.211541 150.153459 
L 116.335055 150.001109 
L 116.420365 149.932556 
L 116.608201 149.959995 
L 116.827978 149.959323 
L 116.868636 149.922155 
L 117.57423 149.789039 
L 117.84983 149.872388 
L 118.08869 149.694078 
L 118.204842 149.662604 
L 118.413117 149.547512 
L 118.421213 149.513886 
L 118.504142 149.476179 
L 118.580587 149.490796 
L 118.577071 149.48815 
L 118.58088 149.489899 
L 118.691941 149.431524 
L 119.099956 149.09257 
L 119.131055 148.995412 
L 119.368157 148.830508 
L 119.540389 148.806118 
L 119.606652 148.882607 
L 119.908698 148.957347 
L 119.9991 148.951474 
L 120.115105 148.8857 
L 120.322538 148.827101 
L 120.47444 148.909687 
L 120.555867 148.992767 
L 120.636415 149.015453 
L 120.689235 149.012763 
L 120.804838 148.951339 
L 120.925751 148.923183 
L 121.798705 149.263347 
L 122.029836 149.326744 
L 122.198112 149.535317 
L 122.405801 149.563294 
L 122.543162 149.526529 
L 122.839238 149.344409 
L 123.042751 149.138167 
L 123.187474 148.950756 
L 123.363845 148.821945 
L 123.567504 148.807732 
L 123.611097 148.729056 
L 123.636441 148.683315 
L 123.613145 148.57701 
L 123.654096 148.33647 
L 123.755706 148.209497 
L 123.859111 148.005452 
L 123.872884 147.91901 
L 124.009329 147.632917 
L 124.247823 147.252759 
L 124.309544 147.209 
L 124.543716 147.133588 
L 124.698146 146.882735 
L 124.748035 146.728681 
L 124.905175 146.628475 
L 125.059422 146.597673 
L 125.17616 146.490472 
L 125.215097 146.347582 
L 125.146747 146.068618 
L 125.205354 145.644926 
L 125.244254 145.490065 
L 125.312385 145.394791 
L 125.867358 145.103766 
L 125.925342 145.013692 
L 125.944829 144.882684 
L 125.925342 144.775528 
L 125.876698 144.668327 
L 125.769667 144.525437 
L 125.779411 144.430162 
L 125.847505 144.311035 
L 125.847505 144.191953 
L 125.748605 144.008981 
L 125.661647 143.543323 
L 125.48751 143.215399 
L 125.477804 142.905722 
L 125.497254 142.715173 
L 125.526448 142.667558 
L 125.682123 142.655632 
L 125.789154 142.596091 
L 125.828054 142.53655 
L 125.857248 142.465082 
L 125.852267 142.184101 
L 125.969774 141.852858 
L 125.971317 141.853437 
L 126.026843 141.874245 
L 126.18391 141.849227 
L 126.503538 141.669438 
L 126.861555 141.512246 
L 126.989501 141.543989 
L 127.038988 141.607879 
L 127.353671 141.748437 
L 127.652934 141.674056 
L 127.752017 141.733104 
L 128.066664 142.004401 
L 128.113 142.07412 
L 128.35937 142.306052 
L 128.474972 142.396664 
L 128.518158 142.398457 
L 128.623944 142.542423 
L 128.751231 142.864788 
L 128.777202 142.895814 
L 128.987125 142.799553 
L 129.17258 142.673342 
L 129.246901 142.653614 
L 129.394921 142.656887 
L 129.472026 142.574166 
L 129.476531 142.52413 
L 129.36657 142.29157 
L 129.351808 142.220193 
L 129.363639 142.174013 
L 129.562171 141.895272 
L 130.037108 141.536233 
L 130.120404 141.219338 
L 130.11436 141.071427 
L 130.144396 141.009778 
L 130.197545 140.961491 
L 130.392927 140.874959 
L 130.497174 140.647824 
L 130.441168 140.562279 
L 130.360913 140.521658 
L 130.298863 140.540803 
L 130.244285 140.53197 
L 130.106961 140.387018 
L 130.116709 139.971554 
L 130.11762 139.932748 
L 130.332635 139.727224 
L 130.362231 139.525914 
L 130.41007 139.444762 
L 130.457028 139.386835 
L 130.846619 139.256813 
L 131.073722 139.203011 
L 131.24588 139.198483 
L 131.40705 139.122263 
L 132.073706 138.602175 
L 132.220224 138.561824 
L 132.322786 138.575274 
L 132.656114 138.369033 
L 132.678092 138.304066 
L 132.670766 138.185208 
L 132.685418 138.108989 
L 132.967465 138.041736 
L 133.124971 137.938615 
L 133.201893 137.848945 
L 133.648773 137.660637 
L 133.76965 137.508198 
L 133.798953 137.373692 
L 133.842909 137.324374 
L 134.231181 137.131538 
L 134.399676 137.01945 
L 134.608464 136.925296 
L 134.806849 136.85217 
L 134.896006 136.870597 
L 135.066333 136.799757 
L 135.308087 136.575582 
L 135.542515 136.441076 
L 135.722 136.44556 
L 135.864855 136.606966 
L 136.220197 136.875977 
L 136.271478 136.961164 
L 136.242175 137.095669 
L 136.238512 137.283977 
L 136.407044 137.310833 
L 136.549899 137.378086 
L 136.678102 137.552943 
L 136.798466 137.605535 
L 136.876707 137.713632 
L 136.948354 137.859795 
L 137.043883 137.962109 
L 137.091648 138.064423 
L 137.067766 138.225201 
L 136.900589 138.415213 
L 136.745353 138.576037 
L 136.46935 139.113206 
L 136.396092 139.180459 
L 136.377777 139.234261 
L 136.352136 139.377734 
L 136.426641 139.660464 
L 136.442171 139.68342 
L 136.649494 139.742513 
L 136.748577 139.960008 
L 136.656967 140.088819 
L 136.505137 140.53735 
L 136.478874 140.672932 
L 136.504991 140.852676 
L 136.619568 140.914817 
L 136.890296 140.977452 
L 137.092124 140.945126 
L 137.197727 140.898587 
L 137.599699 140.935711 
L 137.71999 140.996731 
L 137.758121 141.218262 
L 137.813358 141.257313 
L 138.094196 141.384286 
L 138.446901 141.458309 
L 138.618401 141.156748 
L 138.74697 140.993189 
L 139.011398 140.826447 
L 139.128246 140.776187 
L 139.293445 140.741574 
L 139.420586 140.638409 
L 139.735233 140.582454 
L 139.81003 140.528787 
L 139.96446 140.46938 
L 140.105337 140.482562 
L 140.307898 140.401365 
L 140.367012 140.392557 
L 140.369582 140.392174 
L 140.559249 140.173334 
L 141.026458 139.769997 
L 141.027923 139.766544 
L 141.128031 139.71207 
L 141.1651 139.666472 
L 141.171254 139.558061 
L 141.215429 139.48906 
L 141.512201 139.386611 
L 141.865016 139.099666 
L 142.00787 139.041336 
L 143.619465 136.128635 
L 143.883299 135.651798 
L 144.066446 135.463491 
L 144.597573 135.046524 
L 144.945553 134.938919 
L 145.007823 134.781996 
L 145.125037 134.656458 
L 145.277965 134.621531 
L 145.454409 134.564949 
L 145.661256 134.432058 
L 145.681841 134.387447 
L 145.872315 134.208106 
L 146.062788 134.140854 
L 146.119014 134.193759 
L 146.176339 134.22604 
L 146.546333 134.239491 
L 146.709957 134.148655 
L 146.823948 134.126596 
L 146.970759 134.039795 
L 147.107057 134.031366 
L 147.227641 133.970435 
L 147.575657 133.719358 
L 147.626939 133.629688 
L 147.788108 133.50415 
L 147.978581 133.405512 
L 148.278943 133.306875 
L 148.315572 133.320325 
L 148.612308 133.616237 
L 148.674578 133.629688 
L 148.843073 133.589336 
L 148.956624 133.67004 
L 149.037356 133.695596 
L 149.149442 133.66986 
L 149.235008 133.557952 
L 149.344933 133.396545 
L 149.492697 133.386906 
L 149.605002 133.396545 
L 149.656284 133.463798 
L 149.814962 133.524101 
L 149.927049 133.438376 
L 149.967634 133.369599 
L 150.033567 133.244061 
L 150.173345 133.150893 
L 150.221769 133.11785 
L 150.256054 133.080995 
L 150.280669 133.037416 
L 150.519457 132.817634 
L 150.645316 132.665687 
L 150.704655 132.452227 
L 150.747878 132.356325 
L 150.879781 132.315032 
L 151.04824 132.257643 
L 151.143513 132.262126 
L 151.377172 132.349331 
L 151.489258 132.443664 
L 151.583066 132.544543 
L 151.725958 132.665598 
L 151.850498 132.7194 
L 152.000679 132.760962 
L 152.11423 132.871795 
L 152.154522 132.91663 
L 152.194851 132.948014 
L 152.329941 132.966755 
L 152.449023 132.94102 
L 152.513528 132.876278 
L 152.575798 132.826959 
L 152.682023 132.817992 
L 152.988465 132.820952 
L 153.169232 132.750695 
L 153.462267 132.687881 
L 153.601496 132.925507 
L 153.722373 133.284188 
L 153.87988 133.615924 
L 153.879916 133.844583 
L 153.827609 134.030245 
L 154.09603 134.620231 
L 154.224233 134.709901 
L 154.66016 134.700889 
L 154.8836 134.584318 
L 155.019165 134.543922 
L 155.158357 134.629108 
L 155.271909 134.651526 
L 155.733476 134.638031 
L 155.916552 134.649621 
L 155.945927 134.651481 
L 155.960579 134.615613 
L 156.422147 134.36902 
L 156.634598 134.319656 
L 156.828734 133.978909 
L 156.828734 133.835437 
L 156.89833 133.705415 
L 157.271987 133.768184 
L 157.491764 133.96093 
L 157.667585 133.992315 
L 157.828791 133.817458 
L 157.916702 133.597765 
L 157.905713 133.55293 
L 160.343 129.163165 
L 161.119691 127.910651 
L 161.334974 127.517193 
L 161.335915 127.515473 
L 161.881062 126.518689 
L 162.246413 125.850655 
L 162.628678 125.607065 
L 162.743402 125.618857 
L 163.011749 125.528738 
L 163.299693 125.323662 
L 163.416907 125.220183 
L 163.484525 125.080521 
L 163.894336 124.586483 
L 164.107336 124.381227 
L 164.343376 124.25959 
L 164.535717 124.131361 
L 164.695788 123.998604 
L 164.991241 123.818456 
L 165.383506 123.7521 
L 165.734746 123.651356 
L 165.905036 123.514384 
L 166.177669 123.337196 
L 166.380706 123.347239 
L 166.504954 123.484076 
L 166.567077 123.620958 
L 166.666453 123.757795 
L 166.790663 123.803437 
L 166.891724 123.804244 
L 167.014286 123.864233 
L 167.343768 124.100783 
L 167.449078 124.213992 
L 167.585742 124.198793 
L 167.647866 124.229191 
L 167.747242 124.25959 
L 167.876983 124.280034 
L 168.117932 124.266046 
L 168.241776 124.247125 
L 168.423568 124.158397 
L 168.59199 124.107554 
L 168.735724 124.094282 
L 168.920263 124.131182 
L 169.10059 124.208253 
L 169.240844 124.319265 
L 169.387069 124.41167 
L 169.597908 124.364011 
L 169.651827 124.214934 
L 169.676258 124.064467 
L 169.585198 123.878177 
L 169.362198 123.727396 
L 169.200698 123.681754 
L 169.088905 123.560116 
L 169.039199 123.484076 
L 169.001947 123.316841 
L 168.989529 123.210402 
L 168.989529 123.058321 
L 168.914989 122.85208 
L 168.728325 122.620327 
L 168.666531 122.510929 
L 168.691366 122.358848 
L 168.744478 122.222146 
L 168.778324 121.993935 
L 168.753489 121.887496 
L 168.7162 121.811456 
L 168.629462 121.700847 
L 168.480197 121.583379 
L 168.418073 121.385701 
L 168.418073 121.157625 
L 168.467743 120.975146 
L 168.613528 120.859202 
L 168.774258 120.765945 
L 169.110883 120.446943 
L 169.213262 120.167844 
L 169.250404 119.971556 
L 169.312528 119.819475 
L 169.312528 119.728235 
L 169.300074 119.606597 
L 169.312528 119.469761 
L 169.34978 119.348123 
L 169.347399 119.171786 
L 169.317913 119.064765 
L 169.324945 118.891925 
L 169.568275 118.667884 
L 169.830945 118.578438 
L 169.898819 118.589781 
L 169.944533 118.55472 
L 170.042113 118.412548 
L 170.070611 118.171738 
L 170.059769 118.118833 
L 170.006583 118.072383 
L 169.969734 117.658151 
L 170.020282 117.351389 
L 169.98629 117.270103 
L 169.970686 117.146896 
L 169.93391 117.098474 
L 169.872995 117.062741 
L 169.86164 116.952581 
L 169.873178 116.935095 
L 169.944716 116.791712 
L 169.969624 116.754768 
L 169.94988 116.635641 
L 169.952994 116.59511 
L 169.890651 116.458094 
L 169.884973 116.396266 
L 169.866951 116.339101 
L 169.850102 116.292831 
L 169.777209 116.062962 
L 169.592963 115.803635 
L 169.567725 115.534086 
L 169.578678 115.350441 
L 169.87175 115.322644 
L 169.87175 115.193294 
L 169.960503 114.985035 
L 170.095849 114.773234 
L 170.235554 114.635545 
L 170.26907 114.467054 
L 170.231817 114.299774 
L 170.157276 114.162937 
L 170.144859 114.026056 
L 170.228008 113.892895 
L 170.3672 113.928763 
L 170.605291 113.897379 
L 170.711517 113.803225 
L 170.704191 113.637873 
L 170.638258 113.435577 
L 170.597929 113.139665 
L 170.693239 113.023138 
L 173.499091 113.072367 
L 176.425858 113.363751 
L 177.202439 113.395135 
L 177.584997 113.430735 
L 178.059605 113.36819 
L 179.312406 113.529551 
L 181.781377 113.625902 
L 182.568984 113.62366 
L 182.571284 113.623642 
L 184.247016 113.610165 
L 185.90296 113.659484 
L 186.360352 113.690823 
L 189.038112 113.749064 
L 189.239574 113.789416 
L 190.316553 113.856624 
L 190.93929 113.870074 
L 192.463186 113.955216 
L 193.244858 113.969025 
L 193.355552 113.970998 
L 195.093327 114.085193 
L 195.371711 114.121061 
L 197.489406 114.140475 
L 197.549845 114.146662 
L 199.110699 114.205262 
L 199.112941 114.205375 
L 201.446614 114.322735 
L 201.458097 114.323313 
L 201.478317 114.321699 
L 202.693279 114.247317 
L 203.801577 114.270004 
L 205.388072 114.17845 
L 206.322855 114.179795 
L 207.82913 114.290743 
L 208.208613 114.318695 
L 209.254787 114.355146 
L 209.721076 114.379182 
L 213.425217 114.570126 
L 216.019807 114.703874 
L 216.293503 114.71858 
L 216.330975 114.722301 
L 221.32584 115.002341 
L 223.779281 115.007094 
L 223.883858 115.012429 
L 225.853497 115.036147 
L 225.930456 115.037447 
L 227.664934 115.061837 
L 230.182273 115.066739 
L 231.139018 115.068603 
L 231.141582 115.068608 
L 232.425041 115.068424 
L 233.330485 115.068294 
L 233.349971 115.069504 
L 235.067851 115.070753 
L 235.632609 115.071163 
L 236.112122 115.05767 
L 236.269962 115.053229 
L 242.585678 115.090695 
L 244.32672 115.101023 
L 244.344375 115.101023 
L 249.955273 115.146492 
L 250.065164 115.147383 
L 251.552859 115.134518 
L 252.434576 115.126893 
L 252.444613 115.125862 
L 256.20169 115.127716 
L 259.622045 115.129404 
L 260.768027 115.113551 
L 261.096746 115.109004 
L 261.12583 115.110035 
L 263.702889 115.102545 
L 263.717364 115.102503 
L 264.151716 115.111739 
L 264.200873 115.11017 
L 269.532703 115.086484 
L 269.802322 115.085286 
L 269.847633 115.083896 
L 270.885089 115.087259 
L 270.894063 115.085735 
L 271.868004 115.091967 
L 271.900128 115.092056 
L 276.231304 115.103669 
L 276.232367 115.103668 
L 277.362056 115.103041 
L 277.619854 115.097437 
L 278.508853 115.095182 
L 280.855736 115.089232 
L 281.102399 115.090308 
L 281.411934 115.09631 
L 283.227384 115.131511 
L 285.875363 115.135457 
L 285.995911 115.136488 
L 286.719599 115.132722 
L 288.14606 115.077037 
L 288.154485 115.076633 
L 288.660777 115.069549 
L 288.660887 115.069547 
L 289.23846 115.059999 
L 289.416699 115.060941 
L 293.531823 115.009729 
L 293.534619 115.009694 
L 296.363548 114.985842 
L 296.4082 114.982703 
L 300.51579 115.00799 
L 300.530881 115.009604 
L 303.706647 114.993597 
L 303.955406 114.992343 
L 303.973061 114.993374 
L 309.070672 114.971405 
L 309.708538 114.968087 
L 309.967764 114.967325 
L 310.232714 114.965347 
L 313.929487 114.937745 
L 314.567471 114.932981 
L 331.154416 114.96799 
L 334.514041 114.975081 
L 335.062787 114.904107 
L 335.81424 114.852502 
L 336.003248 114.896665 
L 336.008007 114.897776 
L 336.435805 114.997633 
L 337.456998 115.001758 
L 338.546724 114.973064 
L 345.103909 115.009425 
L 345.103459 115.008457 
L 345.05739 114.909398 
L 345.069441 114.698852 
L 345.10944 114.63828 
L 349.095421 114.70495 
L 350.039801 114.702573 
L 351.197951 114.715038 
L 351.613659 114.687957 
L 357.578143 114.698762 
L 358.221281 114.708821 
L 358.816548 114.718131 
L 358.822062 114.718075 
L 360.655502 114.699309 
L 361.615734 114.689481 
L 364.860198 114.699929 
L 367.182132 114.707405 
L 367.185353 114.707416 
L 374.176554 114.704281 
L 377.385337 114.702842 
L 377.678409 114.707326 
L 380.209578 114.707326 
L 380.279174 114.707326 
L 380.363458 114.707326 
L 380.385436 114.707326 
L 381.51366 114.702798 
L 381.901932 114.702798 
L 381.989843 114.702798 
L 382.147386 114.702798 
L 382.195004 114.702798 
L 382.283559 114.701632 
L 382.535658 114.698314 
L 382.568625 114.702798 
L 382.616243 114.698314 
L 382.814042 114.698314 
L 382.83602 114.698314 
L 383.030192 114.698314 
L 383.063159 114.698314 
L 383.528353 114.698314 
L 383.899886 116.966928 
L 384.703023 120.441876 
L 385.297885 123.359345 
L 386.115638 126.373522 
L 386.961065 129.010838 
L 386.991082 129.104476 
L 387.462613 130.213474 
L 388.239377 132.474196 
L 388.976398 134.294862 
L 389.766422 135.916864 
L 391.165851 138.475471 
L 394.416458 145.520374 
L 395.057291 147.364354 
L 395.553986 148.475235 
L 395.763763 148.924438 
L 395.638637 149.249896 
L 395.388421 149.269041 
L 395.20271 149.015409 
L 395.06762 148.581315 
L 394.663084 148.391438 
L 394.433235 147.69313 
L 394.189466 147.323285 
L 393.717422 146.34422 
L 393.264242 145.340988 
L 392.470885 144.219258 
L 392.455647 143.467283 
L 392.221328 142.7705 
L 391.971406 142.259648 
L 391.580936 141.439299 
L 391.104057 140.753949 
L 390.853292 140.674591 
L 390.805344 140.360162 
L 390.679998 140.05331 
L 390.419635 139.663827 
L 388.780357 139.250716 
L 388.655011 138.920236 
L 388.674279 138.448122 
L 388.838232 137.940588 
L 388.818928 137.716322 
L 388.664645 137.574688 
L 388.28857 137.562897 
L 388.163224 137.29142 
L 388.124654 136.901937 
L 388.201795 136.394403 
L 388.192162 136.016712 
L 387.806454 133.962993 
L 387.660339 133.570461 
L 387.61349 133.107224 
L 387.48851 132.566871 
L 386.832476 130.899989 
L 386.488855 129.958855 
L 386.230068 129.23934 
L 386.190705 129.199192 
L 386.038057 129.0435 
L 385.848975 128.816948 
L 385.559676 128.451049 
L 385.550043 128.285831 
L 385.685059 127.754714 
L 385.453634 126.598012 
L 385.145067 126.314743 
L 384.740055 126.29116 
L 384.595406 126.184901 
L 384.32541 125.689203 
L 384.47006 124.662344 
L 384.817197 124.19023 
L 384.826831 123.85975 
L 384.658115 123.11024 
L 384.407387 122.756177 
L 384.253103 122.708966 
L 384.09882 122.378486 
L 384.060249 122.142429 
L 384.09882 120.74967 
L 383.63597 120.08871 
L 383.038104 119.852653 
L 382.748842 119.593012 
L 382.633129 118.743207 
L 382.324563 117.775351 
L 382.054567 117.610133 
L 381.842409 117.586505 
L 381.688126 117.610133 
L 381.437434 117.775351 
L 381.32 117.744369 
L 381.021836 117.395283 
L 380.120898 117.196932 
L 379.663909 117.212804 
L 379.563251 117.622418 
L 379.032197 117.245444 
L 379.371056 116.400884 
L 379.162781 115.823631 
L 378.797146 115.712306 
L 377.835 115.759293 
L 377.69145 116.234725 
L 377.099444 116.500194 
L 377.487973 117.758672 
L 377.917746 118.829156 
L 378.20635 119.329427 
L 378.514953 119.580414 
L 379.02934 119.8071 
L 379.389005 119.867359 
L 380.039727 120.684435 
L 380.831253 120.61225 
L 380.986196 120.422642 
L 381.123629 120.218732 
L 381.282052 120.175645 
L 381.456701 120.301184 
L 381.72014 121.950131 
L 381.70036 122.212103 
L 381.459998 122.901264 
L 381.466591 123.167271 
L 381.670727 123.538057 
L 381.759627 123.59446 
L 382.493901 125.061466 
L 382.753017 126.236192 
L 382.974882 126.628051 
L 383.320408 126.713417 
L 383.605678 126.628051 
L 383.767324 126.810396 
L 383.719779 127.446696 
L 383.516925 128.07134 
L 383.634212 128.831789 
L 383.833879 129.409893 
L 384.195229 129.681505 
L 384.578776 130.418639 
L 384.474199 130.701863 
L 384.521744 131.4507 
L 385.108145 132.292614 
L 385.15884 132.847449 
L 385.491692 133.254821 
L 385.970292 134.337276 
L 386.29047 135.703 
L 386.204867 136.176325 
L 385.992233 136.134628 
L 384.662401 135.239001 
L 384.2338 134.818716 
L 383.500954 133.685642 
L 383.554763 133.051315 
L 383.643003 132.252531 
L 382.94437 131.015933 
L 381.930796 129.879362 
L 381.502744 128.446206 
L 380.495581 127.829813 
L 380.146073 127.929296 
L 379.954197 127.983911 
L 380.231189 128.276685 
L 380.659241 129.417067 
L 380.268954 130.511179 
L 380.986562 131.281671 
L 381.691606 131.651516 
L 382.138082 132.030059 
L 381.587578 132.000244 
L 381.41813 132.056826 
L 380.890922 131.970429 
L 378.834398 131.407568 
L 378.036133 131.035661 
L 377.964632 130.948187 
L 377.592843 130.333139 
L 377.052485 129.970422 
L 376.668975 129.11694 
L 375.673679 128.723601 
L 373.822976 126.489107 
L 372.746839 126.343169 
L 371.892714 126.023135 
L 371.84698 126.259097 
L 371.745647 126.781926 
L 372.380765 127.474001 
L 373.182657 127.559367 
L 374.414688 129.786912 
L 375.724008 130.449531 
L 376.26085 131.98361 
L 376.46341 132.435728 
L 376.48722 132.698238 
L 376.305757 132.945279 
L 376.032941 133.106327 
L 375.268008 133.303109 
L 372.103553 133.85772 
L 371.080602 133.225678 
L 370.300029 132.285665 
L 369.979557 131.752037 
L 369.578648 131.538666 
L 369.352022 131.133267 
L 368.814411 130.883356 
L 368.646828 130.914839 
L 368.619909 130.919896 
L 368.512255 131.099102 
L 369.003383 131.688012 
L 369.596084 132.136095 
L 370.287428 133.533875 
L 371.635831 134.58526 
L 370.724344 135.113776 
L 369.914357 134.972142 
L 368.950087 134.688874 
L 366.573421 133.410623 
L 364.974545 133.194877 
L 364.244557 132.07207 
L 362.255138 130.760059 
L 362.01331 130.877213 
L 361.952982 131.160751 
L 364.889528 133.992404 
L 365.969145 133.965369 
L 366.388662 134.419101 
L 367.715821 134.854136 
L 367.522966 135.231827 
L 366.809425 135.585891 
L 366.500858 135.633102 
L 366.307967 135.515096 
L 365.652264 135.515096 
L 363.60801 135.892787 
L 363.572052 136.013816 
L 363.530869 136.152428 
L 363.241606 136.671753 
L 362.431619 137.474392 
L 362.123052 137.63961 
L 361.853057 138.135352 
L 361.833753 138.300569 
L 360.638058 138.583838 
L 359.818437 139.138583 
L 358.603438 138.949738 
L 358.024876 138.949738 
L 357.562026 139.114955 
L 357.388476 139.067744 
L 357.060605 138.690052 
L 356.539918 137.911086 
L 356.115639 137.698613 
L 355.517773 137.675029 
L 354.727053 137.816664 
L 353.879008 137.436103 
L 352.232111 132.763114 
L 352.306981 130.449486 
L 353.916443 127.425758 
L 353.323854 126.957922 
L 353.264768 126.911275 
L 352.27778 128.460413 
L 351.389963 129.853896 
L 351.109235 132.78598 
L 352.175298 136.406105 
L 353.608499 139.37464 
L 353.762782 139.752332 
L 353.569928 140.153606 
L 353.18422 140.578509 
L 353.01067 140.979828 
L 353.107078 141.546365 
L 353.313838 141.868437 
L 353.319236 141.876845 
L 353.97494 142.301748 
L 354.206365 142.372588 
L 354.592073 142.301748 
L 356.385634 142.230953 
L 356.539918 142.089319 
L 357.157051 141.994896 
L 359.297713 141.900473 
L 360.069129 141.640788 
L 360.454837 141.404731 
L 361.303395 141.145046 
L 361.785549 140.720143 
L 364.07086 140.094603 
L 364.379427 140.283449 
L 364.668726 140.66114 
L 364.687993 141.06246 
L 365.280801 141.870953 
L 365.363001 141.98306 
L 366.192255 141.935848 
L 367.021546 141.770631 
L 368.680091 140.613929 
L 370.82079 139.929386 
L 372.190035 139.693329 
L 375.226177 139.705255 
L 375.613204 139.846754 
L 376.38462 139.70512 
L 377.773206 140.69656 
L 378.120344 141.168674 
L 378.139611 141.310308 
L 377.92749 142.348959 
L 378.132505 142.944819 
L 377.298708 144.327355 
L 376.343156 145.962807 
L 376.809009 148.058582 
L 376.943513 152.037881 
L 377.325192 153.274927 
L 377.030237 154.407747 
L 376.960069 154.677236 
L 377.187575 155.025023 
L 377.564382 155.10873 
L 378.145394 154.237946 
L 378.181295 154.184139 
L 379.138093 149.784511 
L 379.129009 146.701063 
L 379.470322 144.001359 
L 379.894601 143.906936 
L 380.029581 143.812513 
L 380.569572 142.962708 
L 381.070993 142.608645 
L 381.225276 142.585016 
L 381.321721 142.443382 
L 381.340989 142.065691 
L 380.936013 141.593577 
L 380.723856 141.522737 
L 380.608143 141.381103 
L 380.588876 141.192257 
L 380.91671 140.9562 
L 382.34383 140.413291 
L 383.076712 140.342452 
L 383.770987 140.36608 
L 384.156695 140.460503 
L 385.641653 141.215885 
L 385.795936 141.451943 
L 385.950219 141.876845 
L 386.625227 142.278165 
L 386.625227 142.608645 
L 386.760206 143.057131 
L 387.126647 143.812513 
L 387.743781 144.851164 
L 387.70521 145.158061 
L 387.87876 146.007867 
L 388.380181 146.597987 
L 388.650176 147.340591 
L 388.66948 147.849112 
L 388.452524 148.776975 
L 388.24663 149.331362 
L 388.205458 149.658972 
L 388.349595 149.810156 
L 388.740761 150.91893 
L 388.946619 152.204129 
L 389.090755 152.4813 
L 389.173098 152.9097 
L 389.152513 153.111324 
L 388.123115 154.09411 
L 388.102529 154.850076 
L 388.287801 155.606086 
L 388.555453 156.034486 
L 388.555453 156.160473 
L 387.917258 156.866044 
L 387.340783 157.168457 
L 386.784931 157.672449 
L 386.88786 158.252033 
L 386.084942 158.478854 
L 384.623207 158.630038 
L 384.087941 158.27723 
L 383.799704 157.924467 
L 383.424861 158.099252 
L 382.502692 158.529248 
L 382.070354 159.159227 
L 382.008597 159.335654 
L 382.008597 159.738811 
L 381.72036 160.091619 
L 380.649791 160.268045 
L 380.485105 160.419229 
L 380.320382 160.620808 
L 379.970388 161.301227 
L 379.949802 161.603595 
L 380.052767 161.956403 
L 380.011596 162.082389 
L 379.126298 162.510789 
L 378.817512 162.913992 
L 378.858684 163.443181 
L 378.735133 163.896778 
L 378.302795 164.40077 
L 378.199866 164.82917 
L 378.241038 165.25757 
L 378.117523 165.534741 
L 377.891043 165.811957 
L 377.726357 165.912746 
L 377.29402 165.660773 
L 376.820511 165.585136 
L 376.470517 165.837154 
L 376.32638 166.06393 
L 376.32638 166.366343 
L 376.429345 166.618362 
L 376.470517 167.021519 
L 376.120522 167.601148 
L 375.255847 168.029503 
L 374.144107 168.483101 
L 373.794112 168.558738 
L 373.423532 169.037532 
L 373.423532 169.491084 
L 373.176466 169.591919 
L 372.600029 169.491129 
L 372.476514 169.3399 
L 371.982383 169.138322 
L 371.117708 169.138322 
L 370.047139 168.53354 
L 369.388358 168.53354 
L 369.223635 168.785514 
L 368.935435 168.835908 
L 368.317789 168.735119 
L 367.494286 168.281522 
L 366.670782 168.231127 
L 366.382545 168.281522 
L 366.176688 168.684724 
L 365.847279 168.735119 
L 365.270804 168.583935 
L 364.941432 168.281522 
L 364.653195 168.231127 
L 364.447301 168.231127 
L 364.035549 168.583935 
L 363.706141 168.53354 
L 363.664969 168.382311 
L 363.253218 168.130338 
L 362.841466 167.979109 
L 362.67678 167.273538 
L 362.223857 167.021519 
L 361.976791 167.021519 
L 361.729725 167.172748 
L 361.359145 167.575951 
L 360.86505 167.575951 
L 360.370956 167.122354 
L 358.867646 165.814737 
L 357.180603 161.407441 
L 361.196767 161.284144 
L 361.939575 159.542792 
L 361.524334 159.306405 
L 361.398192 159.234595 
L 360.944976 160.097582 
L 358.263333 160.513652 
L 356.664421 160.082159 
L 355.418031 161.345793 
L 356.626656 163.564864 
L 357.406314 166.870335 
L 356.459296 166.870335 
L 352.648295 165.075046 
L 350.84792 165.444891 
L 348.222944 164.142744 
L 344.152496 162.995861 
L 341.127965 161.130001 
L 341.053058 162.23187 
L 343.249982 164.597328 
L 345.987045 164.783887 
L 354.335301 168.727273 
L 356.433194 169.110958 
L 356.582811 169.138322 
L 357.118114 169.289506 
L 358.353369 169.3399 
L 358.559226 169.491129 
L 360.329784 169.793498 
L 360.988601 170.146305 
L 361.359145 171.003105 
L 361.523868 171.809465 
L 361.523868 172.515081 
L 361.153288 173.321441 
L 360.947393 173.422275 
L 360.700364 173.775038 
L 360.659193 174.32947 
L 360.535642 174.682233 
L 360.165061 174.934251 
L 359.547452 175.589427 
L 359.012186 176.395832 
L 358.888635 176.74864 
L 359.012186 177.504606 
L 359.012186 177.857414 
L 358.641606 178.714213 
L 358.229854 179.016582 
L 358.106303 179.369389 
L 357.818102 179.873381 
L 357.571037 180.07496 
L 356.66519 181.183778 
L 356.171059 181.486147 
L 355.841687 181.486147 
L 355.512278 181.68777 
L 355.224041 181.939744 
L 349.30245 185.824127 
L 343.550188 182.09034 
L 342.65501 181.509282 
L 342.562692 181.757884 
L 342.403219 182.187324 
L 342.856472 184.005748 
L 345.928365 186.132324 
L 350.712501 187.796649 
L 353.613127 185.887804 
L 355.395907 184.714591 
L 357.118114 184.610933 
L 357.900445 184.308519 
L 358.888635 184.20773 
L 360.247441 183.905317 
L 360.49447 183.703738 
L 360.659193 183.45172 
L 360.700364 182.695754 
L 361.070945 181.889349 
L 361.276802 181.082944 
L 361.486506 180.848501 
L 361.681667 180.800707 
L 362.696523 181.628812 
L 362.813627 182.026948 
L 362.839634 182.839182 
L 363.073843 184.160967 
L 363.776396 184.797985 
L 364.062655 185.275748 
L 364.166719 185.339459 
L 366.495657 185.530546 
L 366.703822 185.291665 
L 366.586754 184.813901 
L 365.832114 183.4762 
L 365.441791 183.062102 
L 365.311683 182.823221 
L 365.311683 182.663966 
L 365.754057 182.743593 
L 366.990081 183.300984 
L 367.900836 183.794709 
L 368.095998 183.96988 
L 368.082994 184.352099 
L 368.00164 184.482839 
L 367.894646 184.587618 
L 367.809043 184.823361 
L 367.796735 185.291665 
L 368.010395 185.61385 
L 368.564378 185.976477 
L 368.590422 186.294986 
L 368.486321 186.916087 
L 368.252112 187.059425 
L 367.250297 188.253833 
L 366.938031 188.811224 
L 366.430603 189.511953 
L 365.923175 189.957838 
L 365.168572 189.926005 
L 364.843302 190.164887 
L 364.752205 190.387852 
L 364.65847 190.639333 
L 364.501732 190.709275 
L 364.257963 190.613104 
L 364.058663 190.210888 
L 363.639841 190.438202 
L 363.581234 191.343379 
L 363.561491 191.750034 
L 363.448306 191.951209 
L 363.32644 191.994968 
L 363.126187 191.732548 
L 362.930439 191.838225 
L 362.656048 192.353605 
L 362.194626 192.528596 
L 361.698224 193.862756 
L 361.349768 194.507979 
L 360.880032 195.215477 
L 360.273008 195.763228 
L 360.401175 196.240005 
L 360.349088 196.361464 
L 359.878839 196.765518 
L 359.628477 197.358463 
L 359.438333 198.485798 
L 357.184743 197.730729 
L 357.324484 194.639256 
L 356.5049 193.754882 
L 355.925788 193.893558 
L 356.073735 197.046814 
L 353.983951 197.008659 
L 353.986955 197.337749 
L 359.489944 199.817088 
L 362.402975 195.59541 
L 362.551104 195.055192 
L 362.822712 194.757531 
L 363.519294 194.135443 
L 363.912731 193.581146 
L 364.598874 192.839169 
L 364.986413 192.426282 
L 365.376737 192.107774 
L 366.157384 191.279668 
L 366.833966 190.451518 
L 368.62229 188.831265 
L 370.098969 187.547725 
L 371.517848 185.89685 
L 372.792883 184.622814 
L 374.562342 182.679927 
L 375.238924 182.04291 
L 376.097629 180.83254 
L 376.279787 180.768874 
L 377.060434 181.087383 
L 377.242592 181.310303 
L 377.342041 181.581914 
L 375.984297 182.85873 
L 373.630159 184.770994 
L 370.120361 188.464559 
L 367.295424 190.848354 
L 364.489828 193.885039 
L 362.158363 197.029283 
L 360.560806 199.382232 
L 359.457124 201.469488 
L 359.026838 202.672818 
L 358.321721 201.443618 
L 358.372636 200.893984 
L 358.496553 200.780237 
L 358.536113 200.116856 
L 357.432687 199.462756 
L 355.994908 198.907876 
L 355.107743 198.680652 
L 354.385923 198.326185 
L 353.885308 197.984227 
L 353.246527 198.013011 
L 352.02977 197.825556 
L 350.451956 197.816185 
L 348.71539 197.958626 
L 345.462548 198.447419 
L 342.385491 199.039109 
L 340.889434 199.417473 
L 338.066727 200.340818 
L 337.016309 200.684424 
L 335.812738 201.173262 
L 335.580597 201.295611 
L 334.36734 201.935056 
L 333.201424 202.720792 
L 330.214915 205.049216 
L 325.072213 207.928529 
L 324.014574 208.612535 
L 323.05619 209.312633 
L 321.628275 210.355725 
L 320.698619 211.10501 
L 318.767844 212.941055 
L 317.792072 213.734054 
L 316.85608 214.694602 
L 315.900197 215.840813 
L 315.80519 215.93767 
L 314.918015 216.842116 
L 314.043084 218.048406 
L 314.023169 218.079453 
L 311.65532 221.770755 
L 311.194668 222.751345 
L 310.14919 225.509872 
L 310.000584 225.669037 
L 309.862235 226.014626 
L 308.493209 230.329561 
L 308.03937 231.51581 
L 307.701152 232.248734 
L 307.356524 232.995549 
L 306.978764 234.541062 
L 306.858217 235.638402 
L 306.476025 236.032862 
L 305.151541 235.396785 
L 305.034033 235.275641 
L 305.05407 234.987934 
L 304.714771 234.070337 
L 301.903827 233.274872 
L 300.382862 232.999271 
L 298.889552 232.905386 
L 295.284225 232.990931 
L 291.334947 233.458024 
L 286.753408 235.091413 
L 285.579617 235.737174 
L 284.140409 234.221163 
L 282.838086 232.849297 
L 282.638931 232.645297 
L 281.577872 231.558392 
L 281.576854 231.55735 
L 281.530524 231.509892 
L 281.131226 231.100861 
L 279.657221 229.542929 
L 279.387261 229.299922 
L 279.311622 229.208279 
L 277.213596 227.033326 
L 276.30528 226.091693 
L 275.666844 225.429841 
L 274.067053 223.771389 
L 273.357834 223.036138 
L 272.81044 222.473827 
L 272.070894 221.714128 
L 270.099827 219.689373 
L 268.925193 218.482724 
L 266.163003 215.645287 
L 266.160261 215.642466 
L 266.159848 215.642041 
L 263.523008 212.929308 
L 263.221072 212.618331 
L 261.783219 211.138861 
L 261.735527 211.081068 
L 261.731371 211.07692 
L 261.481282 210.827346 
L 260.883567 210.206736 
L 260.858179 210.180375 
L 259.799844 209.081555 
L 259.621202 208.896072 
L 258.26811 207.421444 
L 257.537352 206.625082 
L 256.92945 205.988064 
L 256.87066 205.914176 
L 256.633521 205.663682 
L 255.644928 204.610549 
L 252.285385 201.217514 
L 251.928907 200.859237 
L 251.872058 200.809963 
L 251.863088 200.802251 
L 251.601037 200.576954 
L 251.49547 200.492799 
L 251.214191 200.160391 
L 251.213204 200.159225 
L 250.814089 199.747683 
L 249.757623 198.693968 
L 249.712715 198.648864 
L 249.264992 198.199417 
L 248.460537 197.391865 
L 248.19545 197.139309 
L 245.635564 194.590924 
L 245.538899 194.493317 
L 244.034051 192.980938 
L 243.565597 192.974078 
L 243.488199 192.972285 
L 243.387636 192.970655 
L 241.513321 192.940273 
L 241.483688 192.938703 
L 240.46158 192.926688 
L 240.433082 192.927719 
L 236.876875 192.952513 
L 236.116814 192.933278 
L 234.79915 192.899929 
L 234.791743 192.899742 
L 234.777403 192.89936 
L 232.120614 192.828633 
L 231.654223 192.816229 
L 231.134439 192.802405 
L 230.574008 192.785771 
L 229.469703 192.757121 
L 229.311794 192.758018 
L 228.549938 192.738694 
L 228.514334 192.738694 
L 227.335781 192.708923 
L 226.307116 192.682964 
L 223.726461 192.617818 
L 223.570603 192.613873 
L 221.751328 192.584371 
L 220.979802 192.571862 
L 220.389432 192.562292 
L 219.31763 192.544916 
L 217.493374 192.51537 
L 216.865435 192.498333 
L 216.813458 192.493221 
L 216.771224 192.49506 
L 216.539872 192.484792 
L 216.212368 192.477708 
L 215.702377 192.461388 
L 215.596371 192.458519 
L 214.366574 192.443454 
L 214.125552 192.440495 
L 213.833469 192.419736 
L 211.567241 192.409873 
L 211.565322 192.409845 
L 209.385407 192.378802 
L 209.210648 192.375888 
L 209.207571 192.376874 
L 208.527033 192.361137 
L 208.455788 192.360061 
L 207.560572 192.35085 
L 207.083173 192.345938 
L 205.512777 192.329744 
L 203.87011 192.312805 
L 203.653264 192.310518 
L 202.926865 192.306528 
L 202.946865 192.123242 
L 203.016021 191.489945 
L 203.330729 188.607356 
L 203.494659 187.105829 
L 202.600204 185.890259 
L 202.588373 185.874342 
L 202.047136 185.136983 
L 201.357609 184.153209 
L 200.252745 182.576859 
L 199.741816 181.847899 
L 199.727502 181.827477 
L 198.945627 180.800345 
L 198.933889 180.784925 
L 197.893722 179.410907 
L 197.054175 180.073122 
L 196.091186 180.748833 
L 195.907597 180.877656 
L 195.630642 181.071994 
L 194.656223 181.755737 
L 193.991256 182.22234 
L 193.678844 181.749643 
L 193.470898 181.531071 
L 193.399361 181.427413 
L 193.385405 180.945121 
L 193.414452 180.364999 
L 193.603387 179.910057 
L 193.676609 179.79613 
L 193.806827 179.715427 
L 194.039043 179.655692 
L 194.14217 179.629164 
L 194.230483 179.559042 
L 194.30931 179.382212 
L 194.321581 179.293259 
L 194.302021 179.126742 
L 194.164514 178.731968 
L 194.083599 178.563971 
L 193.664119 178.351049 
L 193.641518 178.323878 
L 193.635401 178.252904 
L 193.759136 177.781866 
L 193.786058 177.718469 
L 193.884958 177.59468 
L 193.921001 177.573517 
L 193.940671 177.535049 
L 193.913016 177.506848 
L 192.681241 177.409555 
L 191.50756 177.316836 
L 191.450967 177.313698 
L 190.448529 177.258461 
L 186.743423 177.054147 
L 186.65815 177.04935 
L 185.795432 177.008693 
L 185.641313 177.00143 
L 184.863819 176.964791 
L 183.495073 176.900305 
L 182.082627 176.83376 
L 182.079285 176.833603 
L 179.187902 176.693224 
L 178.939884 176.681163 
L 178.609853 176.664843 
L 177.437967 176.606827 
L 177.406319 176.60992 
L 175.542429 176.526437 
L 174.204318 176.466537 
L 172.988367 176.402692 
L 171.822451 176.341492 
L 170.573607 176.275943 
L 169.2748 176.207749 
L 168.460417 176.178203 
L 167.375577 176.138867 
L 167.22018 176.133233 
L 166.131187 176.093733 
L 163.480972 175.971871 
L 163.471679 175.971562 
L 161.606313 175.909461 
L 160.004367 175.832177 
L 158.829435 175.775493 
L 157.429127 175.732631 
L 157.108464 175.722814 
L 155.600035 175.676632 
L 154.995696 175.640306 
L 153.791969 175.567951 
L 152.739641 175.542081 
L 152.402724 175.538001 
L 152.086282 175.51267 
L 151.721086 175.485948 
L 150.971757 175.437598 
L 150.961611 175.436943 
L 150.43781 175.404662 
L 150.423231 175.403765 
L 149.448888 175.32073 
L 148.811352 175.256392 
L 148.593824 175.263858 
L 148.533115 175.265942 
L 148.315646 175.32212 
L 148.062866 175.48532 
L 147.630199 175.572883 
L 147.348262 175.659101 
L 147.311339 175.677528 
L 147.23808 175.803964 
L 147.037388 175.941563 
L 146.90673 175.929592 
L 146.773692 175.852879 
L 146.765267 175.751327 
L 146.684829 175.679008 
L 146.649701 175.678291 
L 146.50029 175.752314 
L 146.445529 175.7559 
L 146.422635 175.744333 
L 146.383772 175.640226 
L 146.260697 175.568265 
L 146.058063 175.579788 
L 145.927357 175.608277 
L 145.641109 175.670669 
L 145.575653 175.724112 
L 145.564737 175.797552 
L 145.567484 175.877673 
L 145.537448 175.944432 
L 145.365619 176.077951 
L 145.281079 176.091312 
L 145.21075 176.057596 
L 145.07925 175.957793 
L 144.972878 175.847633 
L 144.929253 175.72743 
L 144.918337 175.65399 
L 144.940168 175.547148 
L 144.991962 175.443668 
L 145.008336 175.346869 
L 144.943135 175.15753 
L 144.824016 174.916766 
L 144.814749 174.786923 
L 144.579954 174.569338 
L 144.48871 174.569024 
L 144.387356 174.667123 
L 144.107105 175.059028 
L 143.81579 175.148249 
L 143.585171 175.253702 
L 143.506528 175.321762 
L 143.333747 175.569296 
L 143.204115 176.01173 
L 142.979723 176.569479 
L 142.922471 176.707078 
L 142.779397 176.790113 
L 142.436032 176.827147 
L 142.354275 176.817148 
L 142.290906 176.64951 
L 142.297023 176.486893 
L 142.288855 176.394353 
L 142.192813 176.271729 
L 142.028603 176.239537 
L 141.739267 176.396908 
L 141.580954 176.397536 
L 141.44092 176.358664 
L 141.155173 176.434346 
L 141.029901 176.492811 
L 140.905031 176.617408 
L 140.731407 176.859652 
L 140.572545 176.888212 
L 140.342 176.878393 
L 139.979112 176.898659 
L 139.94739 176.917176 
L 139.933691 176.934482 
L 139.863143 177.006173 
L 139.782814 177.104497 
L 139.616993 177.19874 
L 139.4689 177.249494 
L 139.374139 177.249494 
L 139.297144 177.191477 
L 139.249343 177.112881 
L 139.240149 177.086204 
L 139.083924 177.039262 
L 138.935868 177.039262 
L 138.82924 177.039262 
L 138.716714 177.075489 
L 138.627851 177.140768 
L 138.580489 177.191477 
L 138.5569 177.293343 
L 138.55679 177.372746 
L 138.509391 177.423499 
L 138.420565 177.459726 
L 138.339467 177.427624 
L 138.231044 177.430717 
L 138.142181 177.495997 
L 138.094819 177.604723 
L 138.005956 177.713493 
L 137.847798 177.786376 
L 137.698122 177.855351 
L 137.611274 177.871581 
L 137.569186 177.844232 
L 137.415379 177.808812 
L 137.337615 177.818407 
L 137.181134 177.99443 
L 136.97198 178.051505 
L 136.817477 177.992905 
L 136.548324 177.992771 
L 136.448032 178.028863 
L 136.395945 178.060472 
L 136.376312 178.097595 
L 136.244775 178.161755 
L 136.127854 178.190225 
L 135.993717 178.378667 
L 135.935513 178.492055 
L 135.840459 178.570427 
L 135.710681 178.584864 
L 135.633979 178.563164 
L 135.504238 178.483761 
L 135.356731 178.433231 
L 135.244681 178.469324 
L 135.120214 178.542853 
L 135.020509 178.628175 
L 134.943807 178.758152 
L 134.784542 178.873647 
L 134.618867 178.930543 
L 134.353926 178.93144 
L 134.247737 178.873647 
L 134.218251 178.801463 
L 134.15338 178.700359 
L 134.088473 178.606519 
L 133.941002 178.570427 
L 133.840711 178.584864 
L 133.752251 178.642612 
L 133.735548 178.764698 
L 133.726683 178.855803 
L 133.693607 178.878355 
L 133.646062 178.93144 
L 133.587089 179.018061 
L 133.563463 179.083072 
L 133.557565 179.148038 
L 133.581155 179.227441 
L 133.651959 179.357418 
L 133.663754 179.458522 
L 133.620605 179.558504 
L 133.427787 179.812316 
L 133.292112 179.870064 
L 133.203651 179.855627 
L 133.097463 179.848408 
L 132.97893 179.89813 
L 132.680583 180.059492 
L 132.492124 180.045055 
L 132.381503 179.996813 
L 132.251542 180.005735 
L 132.180078 180.102758 
L 132.159712 180.164989 
L 132.153632 180.288869 
L 132.106453 180.353835 
L 131.92576 180.518694 
L 131.835102 180.664318 
L 131.711221 180.714847 
L 131.540161 180.678755 
L 131.428075 180.707629 
L 131.369065 180.830388 
L 131.363095 180.932881 
L 131.256979 181.104779 
L 131.127238 181.176963 
L 130.879623 181.169879 
L 130.675157 181.290979 
L 130.406663 181.350744 
L 130.238277 181.230855 
L 130.290548 181.131052 
L 130.313185 181.068642 
L 130.313185 180.989239 
L 130.342928 180.923421 
L 130.405527 180.779455 
L 130.443988 180.579311 
L 130.35996 180.479508 
L 130.271647 180.438394 
L 130.269156 180.434224 
L 130.190293 180.388717 
L 130.022383 180.414542 
L 129.220235 180.695927 
L 126.006623 181.714896 
L 122.256939 182.883793 
L 121.934627 182.990064 
L 118.273889 184.197059 
L 118.273633 184.197064 
L 115.277453 184.250996 
L 110.429252 184.411595 
L 104.561783 184.518779 
L 102.128541 184.563228 
L 99.535029 184.581207 
L 99.542355 184.827755 
L 94.783896 184.778482 
L 91.809438 184.796505 
L 87.951248 184.787736 
L 87.943236 184.787718 
L 85.429966 184.789715 
L 84.840318 184.790183 
L 84.525414 184.795071 
L 80.880854 184.786874 
L 80.877084 184.786866 
L 73.832727 184.746335 
L 74.266676 180.689874 
" clip-path="url(#pc7c403f71c)" style="fill: #ff5733"/>
   </g>
   <g id="text_1">
    <!-- NC -->
    <g transform="translate(227.481562 100.872652) scale(0.12 -0.12)">
     <defs>
      <path id="DejaVuSans-4e" d="M 628 4666 
L 1478 4666 
L 3547 763 
L 3547 4666 
L 4159 4666 
L 4159 0 
L 3309 0 
L 1241 3903 
L 1241 0 
L 628 0 
L 628 4666 
z
" transform="scale(0.015625)"/>
      <path id="DejaVuSans-43" d="M 4122 4306 
L 4122 3641 
Q 3803 3938 3442 4084 
Q 3081 4231 2675 4231 
Q 1875 4231 1450 3742 
Q 1025 3253 1025 2328 
Q 1025 1406 1450 917 
Q 1875 428 2675 428 
Q 3081 428 3442 575 
Q 3803 722 4122 1019 
L 4122 359 
Q 3791 134 3420 21 
Q 3050 -91 2638 -91 
Q 1578 -91 968 557 
Q 359 1206 359 2328 
Q 359 3453 968 4101 
Q 1578 4750 2638 4750 
Q 3056 4750 3426 4639 
Q 3797 4528 4122 4306 
z
" transform="scale(0.015625)"/>
     </defs>
     <use xlink:href="#DejaVuSans-4e"/>
     <use xlink:href="#DejaVuSans-43" x="74.804688"/>
    </g>
   </g>
  </g>
 </g>
 <defs>
  <clipPath id="pc7c403f71c">
   <rect x="57.6" y="106.872652" width="357.12" height="135.310696"/>
  </clipPath>
 </defs>
</svg>
