<?xml version="1.0" encoding="utf-8" standalone="no"?>
<!DOCTYPE svg PUBLIC "-//W3C//DTD SVG 1.1//EN"
  "http://www.w3.org/Graphics/SVG/1.1/DTD/svg11.dtd">
<svg xmlns:xlink="http://www.w3.org/1999/xlink" width="460.8pt" height="345.6pt" viewBox="0 0 460.8 345.6" xmlns="http://www.w3.org/2000/svg" version="1.1">
 <metadata>
  <rdf:RDF xmlns:dc="http://purl.org/dc/elements/1.1/" xmlns:cc="http://creativecommons.org/ns#" xmlns:rdf="http://www.w3.org/1999/02/22-rdf-syntax-ns#">
   <cc:Work>
    <dc:type rdf:resource="http://purl.org/dc/dcmitype/StillImage"/>
    <dc:date>2023-06-19T14:47:46.347140</dc:date>
    <dc:format>image/svg+xml</dc:format>
    <dc:creator>
     <cc:Agent>
      <dc:title>Matplotlib v3.7.1, https://matplotlib.org/</dc:title>
     </cc:Agent>
    </dc:creator>
   </cc:Work>
  </rdf:RDF>
 </metadata>
 <defs>
  <style type="text/css">*{stroke-linejoin: round; stroke-linecap: butt}</style>
 </defs>
 <g id="figure_1">
  <g id="patch_1">
   <path d="M 0 345.6 
L 460.8 345.6 
L 460.8 0 
L 0 0 
z
" style="fill: #ffffff"/>
  </g>
  <g id="axes_1">
   <g id="PatchCollection_1">
    <path d="M 73.843471 84.946213 
L 73.83602 84.830546 
L 73.833464 84.416 
L 73.833031 84.305074 
L 73.840568 84.037083 
L 73.84386 82.583193 
L 73.839399 82.310908 
L 73.839485 81.974158 
L 73.836756 80.594923 
L 73.841348 80.165894 
L 73.838359 79.975571 
L 73.83394 79.569996 
L 73.841478 79.429465 
L 73.844554 79.089766 
L 73.837059 78.969741 
L 73.847673 78.66375 
L 73.84503 78.473811 
L 73.851008 77.174806 
L 73.841868 76.368271 
L 75.064608 76.372308 
L 76.77985 76.36904 
L 77.275774 76.372501 
L 82.349935 76.370322 
L 84.315955 76.385381 
L 91.397896 76.381729 
L 97.610195 76.388585 
L 102.95883 76.412552 
L 103.824183 76.371988 
L 121.876091 76.388329 
L 121.922774 76.388383 
L 133.234809 76.401594 
L 146.453586 76.423766 
L 153.143528 76.438057 
L 154.069096 76.435878 
L 161.627639 76.408451 
L 161.674381 76.408424 
L 172.979426 76.402042 
L 184.344772 76.382497 
L 184.391557 76.382671 
L 186.077558 76.388906 
L 195.01449 76.38897 
L 196.957897 76.391725 
L 200.429491 76.404414 
L 209.418103 76.372821 
L 213.688685 76.383971 
L 230.429784 76.379998 
L 230.529636 76.380767 
L 241.314889 76.389909 
L 242.020998 76.390508 
L 261.194756 76.402491 
L 269.729421 76.389739 
L 269.776203 76.389686 
L 281.122795 76.376858 
L 292.098913 76.35443 
L 292.531893 76.341805 
L 292.557928 76.34178 
L 314.698519 76.320274 
L 337.979327 76.314507 
L 338.02614 76.314503 
L 361.328146 76.312648 
L 369.280509 76.306176 
L 369.164629 76.52085 
L 369.1606 76.598838 
L 369.207689 76.767309 
L 369.189061 76.89951 
L 369.042598 77.04927 
L 368.909043 77.258818 
L 368.861825 77.455229 
L 368.877506 77.935074 
L 368.826216 78.348979 
L 368.840381 78.484256 
L 368.898473 78.563205 
L 369.117237 78.65574 
L 369.1619 78.749299 
L 369.187935 78.84837 
L 369.187935 79.018956 
L 369.124688 79.514181 
L 369.132139 79.613252 
L 369.318111 79.811329 
L 369.362773 79.959935 
L 369.381357 80.273552 
L 369.463188 80.565189 
L 369.716132 80.713795 
L 369.76452 80.834845 
L 369.768245 80.97794 
L 369.693649 81.157306 
L 369.697548 81.335582 
L 369.745329 81.485726 
L 369.964786 81.594793 
L 370.041246 81.683482 
L 370.056494 81.856439 
L 369.980945 82.118535 
L 369.974317 82.228563 
L 370.068104 82.469063 
L 370.191695 82.581911 
L 370.574251 82.761212 
L 370.612155 82.857271 
L 370.606741 83.137501 
L 370.525559 83.321609 
L 370.61757 83.593829 
L 370.612155 83.721928 
L 370.574251 83.890079 
L 370.612155 84.010169 
L 370.93688 84.314366 
L 371.055965 84.378448 
L 371.120902 84.450476 
L 371.142561 84.530578 
L 371.07221 84.826765 
L 371.082997 84.922888 
L 371.153391 85.002926 
L 371.288679 85.074954 
L 371.386104 85.211064 
L 371.431374 85.514492 
L 371.580956 85.755504 
L 371.580956 85.963642 
L 371.521392 86.099752 
L 371.510562 86.179855 
L 371.635669 86.427467 
L 371.659235 86.70366 
L 371.639135 86.770818 
L 371.576234 86.8415 
L 371.375275 86.956399 
L 371.342785 87.060468 
L 371.3482 87.300711 
L 371.488729 87.568382 
L 371.389917 87.976263 
L 371.451301 88.143581 
L 371.519139 88.253482 
L 371.649098 88.382671 
L 371.889436 88.453545 
L 372.013893 88.541658 
L 372.046383 88.629706 
L 372.046383 88.701735 
L 372.001027 88.820671 
L 372.001027 88.915576 
L 372.097283 89.189782 
L 372.104388 89.474498 
L 372.12934 89.611634 
L 372.204196 89.685456 
L 372.339743 89.72602 
L 372.383453 89.797856 
L 372.352956 89.948064 
L 372.352653 90.177221 
L 372.384579 90.240277 
L 372.512416 90.319034 
L 372.549671 90.374145 
L 372.523029 90.586832 
L 372.480446 90.649889 
L 372.464461 90.728646 
L 372.480446 90.791702 
L 372.523029 90.870459 
L 372.578608 90.914291 
L 372.799972 91.335245 
L 372.799972 91.484877 
L 372.63488 91.88667 
L 372.645537 91.996955 
L 372.68812 92.059948 
L 372.986333 92.304164 
L 373.146096 92.579844 
L 373.140767 93.123387 
L 373.167409 93.217908 
L 373.325742 93.352096 
L 373.347142 93.431301 
L 373.336442 93.660971 
L 373.293599 93.78766 
L 373.315042 93.874812 
L 373.373914 93.954017 
L 373.71315 94.214574 
L 373.802822 94.338573 
L 373.93603 94.695701 
L 374.155574 94.967729 
L 374.123474 95.244947 
L 374.032459 95.355809 
L 374.064559 95.530048 
L 374.481771 96.112489 
L 374.913148 96.365612 
L 374.961363 96.444817 
L 374.972063 96.516077 
L 374.955991 96.595282 
L 374.854276 96.761574 
L 374.827505 96.8725 
L 374.86489 97.400984 
L 374.856312 97.622131 
L 374.790033 97.696145 
L 374.741819 97.822899 
L 374.827505 98.00502 
L 374.832833 98.218861 
L 374.77916 98.367531 
L 374.658905 98.487877 
L 374.600683 98.602199 
L 374.518202 98.916457 
L 374.372432 99.121712 
L 374.340289 99.224691 
L 374.438624 99.482941 
L 374.498189 99.770797 
L 374.489958 99.882172 
L 374.444516 99.95939 
L 374.35597 100.035456 
L 374.205045 100.063972 
L 373.95483 99.985023 
L 373.762058 100.072111 
L 373.735286 100.111713 
L 373.735286 100.246349 
L 373.80945 100.348111 
L 373.815601 100.483965 
L 373.783501 100.594827 
L 373.74603 100.634429 
L 373.553257 100.618601 
L 373.499714 100.753237 
L 373.526485 100.911648 
L 373.494386 101.07794 
L 373.430143 101.117543 
L 373.290913 101.125489 
L 373.232042 101.188802 
L 373.199899 101.378933 
L 373.237413 101.505623 
L 373.199899 101.703636 
L 373.087484 101.972909 
L 373.001841 102.075888 
L 372.964326 102.162976 
L 372.953626 102.321386 
L 373.02701 102.449486 
L 373.055254 102.563231 
L 372.997639 103.01738 
L 372.965626 103.105493 
L 372.910697 103.163551 
L 372.758775 103.190721 
L 372.701982 103.287613 
L 372.707354 103.453906 
L 372.739497 103.572714 
L 372.734126 103.770727 
L 372.707354 103.905363 
L 372.619762 104.049291 
L 372.370067 104.158807 
L 372.316524 104.277615 
L 372.311152 104.531059 
L 372.332596 104.618146 
L 372.41291 104.721126 
L 372.519953 104.792385 
L 372.59494 104.927021 
L 372.584196 105.030001 
L 372.541396 105.10126 
L 372.439855 105.103887 
L 372.220138 105.228014 
L 372.166595 105.299273 
L 372.139823 105.38636 
L 372.123644 105.565859 
L 372.123015 105.572839 
L 372.20221 105.659328 
L 372.270649 105.734069 
L 372.519953 105.87742 
L 372.669883 106.020002 
L 372.739497 106.186295 
L 372.728754 106.312985 
L 372.60564 106.510998 
L 372.557468 106.835701 
L 372.771597 108.166298 
L 372.79304 108.285042 
L 372.851912 108.40385 
L 373.108884 108.586035 
L 373.173127 108.744445 
L 373.155279 109.260433 
L 373.11131 109.362195 
L 372.956312 109.47703 
L 372.908141 109.564117 
L 372.924169 109.730474 
L 373.004484 109.793787 
L 373.063398 109.904713 
L 373.036627 110.007628 
L 372.961684 110.071005 
L 372.945612 110.356106 
L 372.988455 110.546173 
L 373.047327 110.688755 
L 373.373914 110.87094 
L 373.438157 110.950145 
L 373.443528 111.171869 
L 373.400685 111.441141 
L 373.250756 111.647036 
L 373.224028 111.742134 
L 373.224028 111.955911 
L 373.240056 112.00346 
L 373.336442 112.082665 
L 373.373914 112.241076 
L 373.341814 112.462799 
L 373.288271 112.573725 
L 373.154413 112.740017 
L 373.159741 112.835051 
L 373.218656 112.993461 
L 373.314522 113.091635 
L 373.314522 113.229731 
L 373.255131 113.380388 
L 373.034417 113.480869 
L 373.000498 113.543605 
L 373.01748 113.719446 
L 373.195697 113.769622 
L 373.314522 114.033319 
L 373.339994 114.359752 
L 373.306075 114.523033 
L 373.119324 114.836906 
L 372.958045 114.975003 
L 372.89861 115.075483 
L 372.881672 115.163339 
L 372.89861 115.502397 
L 372.966536 115.678174 
L 373.085361 115.81627 
L 373.119324 115.929311 
L 373.119324 116.042287 
L 373.034417 116.444081 
L 372.941064 116.632418 
L 372.84771 116.695218 
L 372.805257 116.795634 
L 372.788275 116.908675 
L 372.788275 117.360709 
L 372.956659 117.706879 
L 373.130371 117.775959 
L 373.218266 117.867084 
L 373.232562 117.956863 
L 373.189718 118.157567 
L 373.214714 118.342444 
L 373.482516 118.564295 
L 373.507511 118.654074 
L 373.471816 118.923474 
L 373.346839 119.192875 
L 373.350391 119.361859 
L 373.39462 119.415047 
L 373.503959 119.409408 
L 373.653889 119.483358 
L 373.668184 119.552054 
L 373.661036 119.70521 
L 373.56465 119.884831 
L 373.502963 119.947183 
L 373.483599 120.025299 
L 373.451283 120.206971 
L 373.473895 120.383901 
L 373.515916 120.455609 
L 373.680747 120.546413 
L 373.722767 120.613379 
L 373.722767 120.962369 
L 373.890847 121.11059 
L 373.900551 121.144105 
L 373.881144 121.244458 
L 373.845578 121.287521 
L 373.674292 121.297069 
L 373.616114 121.34968 
L 373.596707 121.469193 
L 373.60641 121.655671 
L 373.676848 121.723278 
L 373.758636 121.721483 
L 373.896739 121.836767 
L 374.088818 122.257657 
L 374.132528 122.401329 
L 374.138896 122.502898 
L 373.813565 123.041891 
L 373.758636 123.093029 
L 373.544983 123.166531 
L 373.477144 123.276495 
L 373.473895 123.376848 
L 373.515916 123.424717 
L 373.619883 123.454195 
L 373.680747 123.57768 
L 373.680747 123.706806 
L 373.583797 123.840673 
L 373.577343 123.902832 
L 373.590252 123.993636 
L 373.66134 124.122761 
L 373.675115 124.190688 
L 373.645181 124.309176 
L 373.583797 124.376141 
L 373.408353 124.411771 
L 373.209126 124.644837 
L 373.177416 124.724619 
L 373.183784 124.888797 
L 373.313786 125.109302 
L 373.307461 125.198505 
L 373.133013 125.306354 
L 373.069593 125.386136 
L 373.08861 125.555056 
L 373.153763 125.673287 
L 373.284025 125.750378 
L 373.297065 125.80818 
L 373.284025 125.93032 
L 373.223984 125.997606 
L 373.203884 126.12718 
L 373.231262 126.216318 
L 373.313786 126.26816 
L 373.331807 126.380175 
L 373.332847 126.502764 
L 373.236244 126.6308 
L 373.253615 126.804333 
L 373.367719 126.939098 
L 373.351864 127.12673 
L 373.221818 127.21119 
L 373.177416 127.309748 
L 373.161561 127.427017 
L 373.210252 127.762358 
L 373.070503 128.017725 
L 373.058157 128.087189 
L 372.853904 128.501415 
L 372.863435 128.595231 
L 372.923692 128.684369 
L 372.996643 128.717243 
L 373.044208 128.778249 
L 373.060063 128.947105 
L 373.053738 129.031565 
L 373.022028 129.106669 
L 372.896791 129.270911 
L 372.876911 129.323635 
L 372.834887 129.435089 
L 372.831725 129.62272 
L 372.940154 130.011441 
L 373.039443 130.158061 
L 373.139381 130.227974 
L 373.171091 130.312434 
L 373.171091 130.471934 
L 373.145706 130.612658 
L 373.111137 130.754535 
L 373.02519 130.9364 
L 373.031515 131.133452 
L 373.063225 131.22259 
L 373.370881 131.335182 
L 373.472379 131.480648 
L 373.447947 131.603813 
L 373.462849 131.71993 
L 373.580808 131.892694 
L 373.631666 132.273854 
L 373.69305 132.460204 
L 373.921604 132.931334 
L 373.959899 133.055525 
L 373.964664 133.159466 
L 373.945257 133.228931 
L 373.854502 133.407335 
L 373.831499 133.503009 
L 373.85147 133.589904 
L 374.000143 133.671096 
L 374.285143 133.619382 
L 374.359826 133.637004 
L 374.443649 133.713262 
L 374.491604 134.027199 
L 374.645649 134.153633 
L 374.68559 134.260457 
L 374.688665 134.367282 
L 374.619527 134.478592 
L 374.613419 134.56946 
L 374.630314 134.628544 
L 374.762915 134.713004 
L 374.865453 134.920501 
L 374.881351 135.162603 
L 374.823303 135.46084 
L 374.676752 135.645011 
L 374.65323 135.740109 
L 374.6625 135.782788 
L 374.724491 135.831426 
L 374.953218 135.86917 
L 375.420464 136.693135 
L 375.597685 136.848726 
L 375.911926 137.045394 
L 375.982364 137.14235 
L 376.05852 137.343823 
L 376.138488 137.747732 
L 376.212131 138.649428 
L 376.200175 138.740873 
L 376.073508 139.05308 
L 376.061698 139.174944 
L 376.059299 139.1997 
L 376.127961 139.339975 
L 376.187309 139.387524 
L 376.376053 139.420718 
L 376.44701 139.463589 
L 376.45901 139.579577 
L 376.355086 139.697616 
L 376.296561 139.811618 
L 376.403691 140.519723 
L 376.491716 140.683773 
L 376.808469 140.877557 
L 376.86877 140.961632 
L 376.888871 141.048784 
L 376.869464 141.196428 
L 376.74193 141.670122 
L 376.62618 142.00181 
L 376.617516 142.091525 
L 376.71282 142.315812 
L 376.682453 142.411934 
L 376.52217 142.610588 
L 376.509174 142.700303 
L 376.526502 142.757977 
L 376.630469 142.8541 
L 376.847067 143.00796 
L 376.916379 143.168165 
L 376.912047 143.321962 
L 376.799416 143.578289 
L 376.782088 143.687229 
L 376.825407 143.866658 
L 376.977026 144.052496 
L 377.241276 144.199884 
L 377.49253 144.238333 
L 377.626821 144.308823 
L 377.648481 144.488253 
L 377.570506 144.699723 
L 377.639817 144.898377 
L 377.904067 145.065054 
L 378.419571 145.564893 
L 378.406575 145.673832 
L 378.159653 145.814813 
L 378.264579 145.881674 
L 378.441231 145.994242 
L 378.523538 146.173671 
L 378.536534 146.372325 
L 378.441231 146.468448 
L 378.306896 146.423591 
L 378.168274 146.289019 
L 378.107626 146.308243 
L 378.142282 146.494081 
L 378.311228 146.692735 
L 378.31556 146.801674 
L 378.150946 146.955471 
L 378.107626 147.154125 
L 378.367544 147.404044 
L 378.35888 147.487351 
L 378.107626 147.673188 
L 378.090298 147.839801 
L 378.176937 147.980782 
L 378.350216 148.096129 
L 378.410864 148.211477 
L 378.367544 148.314008 
L 378.185558 148.435763 
L 378.185558 148.499845 
L 378.267865 148.58956 
L 378.436812 148.653642 
L 378.956648 148.743421 
L 379.082275 148.839544 
L 379.121263 148.92285 
L 379.043287 149.018973 
L 378.934945 149.057422 
L 378.947941 149.140729 
L 379.112469 149.314455 
L 379.173246 149.336947 
L 379.269069 149.467226 
L 379.326598 149.754121 
L 379.343091 150.29426 
L 379.346178 150.395389 
L 379.280073 150.47453 
L 379.262528 150.566744 
L 379.493509 150.811088 
L 379.765469 150.828518 
L 379.980335 151.291062 
L 379.956639 151.531561 
L 379.982154 151.588145 
L 380.084215 151.668376 
L 380.084215 151.842935 
L 380.049126 151.866517 
L 380.023611 151.932522 
L 380.038123 152.236847 
L 380.14404 152.49593 
L 380.102973 152.60724 
L 380.014038 152.706247 
L 380.004464 152.805253 
L 380.029979 152.880742 
L 380.220716 153.141555 
L 380.224528 153.267604 
L 380.265985 153.347771 
L 380.332957 153.376095 
L 380.414701 153.352321 
L 380.658591 153.413711 
L 380.768839 153.586476 
L 381.014159 153.751807 
L 381.042056 153.819158 
L 381.039154 153.871897 
L 380.854136 153.964175 
L 380.768926 154.054979 
L 380.689694 154.205764 
L 380.691167 154.299516 
L 380.730848 154.330211 
L 380.838021 154.311179 
L 381.07303 154.535081 
L 381.067225 154.766417 
L 381.372629 154.827935 
L 381.823413 155.265679 
L 381.921749 155.513099 
L 381.855643 155.649273 
L 381.880595 155.791279 
L 381.980403 155.914252 
L 382.104774 156.008581 
L 382.106334 156.103999 
L 382.038712 156.155136 
L 382.027709 156.255168 
L 382.040271 156.290028 
L 382.262155 156.423383 
L 382.285807 156.570387 
L 382.285764 156.772437 
L 382.250545 156.893936 
L 382.090609 157.088681 
L 382.077396 157.167694 
L 382.099359 157.268752 
L 382.196179 157.447348 
L 382.433787 157.787046 
L 382.691886 158.06388 
L 382.716794 158.119503 
L 382.677157 158.205886 
L 382.503488 158.379291 
L 382.500716 158.482335 
L 382.637303 158.589608 
L 382.662428 158.729819 
L 382.640335 158.854459 
L 382.649086 158.983327 
L 382.849179 159.138085 
L 382.877077 159.199924 
L 382.896614 159.3402 
L 382.860356 159.422673 
L 382.860356 159.49688 
L 382.924469 159.554618 
L 382.96415 159.536803 
L 383.021288 159.61588 
L 383.097444 159.820878 
L 383.191231 159.961474 
L 383.205873 160.03472 
L 383.081199 160.210368 
L 383.091379 160.32014 
L 383.133876 160.371406 
L 383.207173 160.386081 
L 383.292209 160.337827 
L 383.391931 160.188516 
L 383.446167 160.185633 
L 383.509198 160.239846 
L 383.548705 160.32328 
L 383.662549 161.266246 
L 383.725493 161.342375 
L 383.87057 161.368841 
L 383.908706 161.433423 
L 383.9657 161.529943 
L 383.969989 161.661696 
L 384.078331 161.803829 
L 384.145607 161.991333 
L 384.139672 162.112832 
L 384.057494 162.285469 
L 384.085089 162.6574 
L 384.26218 162.84202 
L 384.2841 162.915266 
L 384.263263 163.383769 
L 384.191439 163.445224 
L 384.033279 163.510908 
L 384.015648 163.592932 
L 384.283363 163.910843 
L 384.40886 164.738333 
L 384.544927 164.827727 
L 384.782492 164.900716 
L 384.794232 164.931412 
L 384.776687 164.978255 
L 384.643566 165.110136 
L 384.661197 165.181908 
L 385.242374 165.276685 
L 385.378527 165.367361 
L 385.451781 165.496166 
L 385.478163 165.651372 
L 385.387581 165.907636 
L 385.443247 165.999849 
L 385.522652 166.069186 
L 385.564196 166.192031 
L 385.551719 166.259638 
L 385.493584 166.296485 
L 385.481152 166.394722 
L 385.601537 166.603565 
L 385.630605 166.744866 
L 385.544832 167.371651 
L 385.410541 167.610933 
L 385.431291 167.764537 
L 385.510176 167.850535 
L 385.526811 167.954925 
L 385.398065 168.114617 
L 385.306747 168.145312 
L 385.290112 168.212919 
L 385.310905 168.329612 
L 385.373156 168.360307 
L 385.389791 168.409458 
L 385.364882 168.513912 
L 385.290112 168.636757 
L 385.294271 168.710451 
L 385.339973 168.839448 
L 385.466033 168.96633 
L 385.523952 169.100966 
L 385.499129 169.229514 
L 385.416389 169.327432 
L 385.399841 169.382542 
L 385.408115 169.45598 
L 385.495014 169.560049 
L 385.503288 169.602856 
L 385.48674 169.719164 
L 385.395682 169.884432 
L 385.408115 170.00074 
L 385.466033 170.074178 
L 385.482581 170.159856 
L 385.230721 170.572351 
L 385.150363 170.603174 
L 385.048128 170.692376 
L 384.977777 170.802533 
L 384.977777 170.869883 
L 385.099592 171.163955 
L 385.112848 171.358636 
L 385.19182 171.447902 
L 385.320392 171.510767 
L 385.504501 171.544346 
L 385.536384 171.579911 
L 385.548817 171.732939 
L 385.610851 171.818616 
L 385.627399 171.885966 
L 385.610851 171.959404 
L 385.554405 172.027523 
L 385.544268 172.216373 
L 385.542926 172.380358 
L 385.606735 172.504165 
L 385.609039 172.545048 
L 385.615009 172.65104 
L 385.383293 172.883658 
L 385.341922 172.944856 
L 385.3171 173.048925 
L 385.3171 173.110123 
L 385.432937 173.214192 
L 385.441211 173.281478 
L 385.420548 173.391699 
L 385.341922 173.446746 
L 385.3171 173.495704 
L 385.3171 173.587534 
L 385.333648 173.642644 
L 385.470192 173.771192 
L 385.482581 173.85687 
L 385.432937 174.022137 
L 385.292278 174.205732 
L 385.259138 174.328193 
L 385.272698 174.588429 
L 385.391567 174.82393 
L 385.362586 175.013677 
L 385.271571 175.111658 
L 385.255023 175.197336 
L 385.267413 175.283013 
L 385.333648 175.38093 
L 385.32949 175.454432 
L 385.286387 175.569395 
L 385.273477 175.947158 
L 385.362586 176.207267 
L 385.362586 176.280705 
L 385.263297 176.488843 
L 385.250864 176.58676 
L 385.3171 176.733636 
L 385.217768 176.935622 
L 385.209494 177.015212 
L 385.226042 177.100889 
L 385.308826 177.19887 
L 385.271571 177.333507 
L 385.126754 177.443663 
L 385.068835 177.529341 
L 385.068835 177.62117 
L 385.097773 177.670129 
L 385.200094 177.731968 
L 385.205985 177.780286 
L 385.163749 177.901849 
L 385.174015 177.954525 
L 385.335988 178.212134 
L 385.542579 178.303643 
L 385.57156 178.383233 
L 385.567964 178.494607 
L 385.77018 178.670896 
L 385.89845 178.842315 
L 385.906724 178.885122 
L 385.865354 179.11774 
L 385.881902 179.246288 
L 386.043268 179.356445 
L 386.088753 179.429883 
L 386.092912 179.521712 
L 386.072205 179.888966 
L 385.877743 180.054233 
L 385.819825 180.354136 
L 385.732926 180.452053 
L 385.570693 180.477045 
L 385.523995 180.577526 
L 385.598461 180.675507 
L 385.733965 180.759518 
L 385.747394 180.822383 
L 385.706024 180.90806 
L 385.590187 180.969323 
L 385.581913 181.036609 
L 385.710183 181.201876 
L 385.718457 181.446733 
L 385.768101 181.563042 
L 385.821904 181.642567 
L 385.933626 181.691526 
L 385.970837 181.795595 
L 385.896371 182.11389 
L 385.946015 182.322028 
L 386.094428 182.65692 
L 386.26671 182.802514 
L 386.299807 182.980021 
L 386.183927 183.206487 
L 386.192201 183.292164 
L 386.291533 183.377842 
L 386.328744 183.45128 
L 386.328744 183.598219 
L 386.26671 183.745095 
L 386.299807 183.934842 
L 386.291533 183.99604 
L 386.250162 184.07563 
L 386.06809 184.15522 
L 386.034994 184.198026 
L 386.010171 184.48569 
L 386.076364 184.5408 
L 386.247823 184.551502 
L 386.304572 184.586619 
L 386.428076 184.828464 
L 386.428076 184.993732 
L 385.949914 185.728751 
L 385.942723 185.923496 
L 386.05635 186.304143 
L 386.110283 186.756561 
L 386.104522 186.851723 
L 386.022561 186.989179 
L 385.981191 187.172773 
L 386.010171 187.233971 
L 386.130167 187.28293 
L 386.163263 187.35028 
L 386.126008 187.460437 
L 386.030835 187.503308 
L 386.006013 187.588985 
L 386.010171 187.662423 
L 386.063931 187.686903 
L 386.088753 187.766492 
L 386.076364 187.895041 
L 386.047383 187.962391 
L 386.117734 188.090875 
L 386.126008 188.133746 
L 386.097071 188.237815 
L 386.113619 188.286773 
L 386.32047 188.458128 
L 386.349451 188.605068 
L 386.341177 188.715225 
L 386.23773 188.856013 
L 386.196359 188.941691 
L 386.196359 189.009041 
L 386.221181 189.070239 
L 386.397531 189.252195 
L 386.42539 189.28094 
L 386.43635 189.370142 
L 386.407369 189.44358 
L 386.291533 189.51093 
L 386.22534 189.651718 
L 386.233571 189.814999 
L 386.308081 189.945534 
L 386.308081 189.988341 
L 386.171537 190.086322 
L 386.15083 190.15976 
L 386.192201 190.276069 
L 386.295648 190.343355 
L 386.308081 190.453575 
L 386.270826 190.655562 
L 386.399095 190.869788 
L 386.407369 190.955465 
L 386.39498 191.022815 
L 386.316355 191.151299 
L 386.328744 191.212562 
L 386.403254 191.27376 
L 386.461172 191.377829 
L 386.432192 191.439027 
L 386.221181 191.616534 
L 386.179811 191.714451 
L 386.171537 191.824608 
L 386.196359 191.922525 
L 386.258436 192.008267 
L 386.419802 192.100032 
L 386.498427 192.216341 
L 386.502543 192.277539 
L 386.444624 192.436719 
L 386.44874 192.491765 
L 386.490153 192.614226 
L 386.535639 192.675424 
L 386.626697 192.718295 
L 386.684615 192.791733 
L 386.697005 192.871258 
L 386.684615 192.963088 
L 386.577009 193.146746 
L 386.560461 193.207945 
L 386.568735 193.293622 
L 386.76324 193.465041 
L 386.800452 193.556807 
L 386.792178 193.801664 
L 386.895625 193.930212 
L 386.883236 194.077088 
L 386.800452 194.181157 
L 386.77563 194.266834 
L 386.783904 194.315793 
L 386.86894 194.402368 
L 386.882023 194.450685 
L 386.868984 194.494582 
L 386.639086 194.64024 
L 386.498427 194.836074 
L 386.50061 194.860298 
L 386.506701 194.927904 
L 386.548072 194.989102 
L 386.548072 195.099259 
L 386.44874 195.295157 
L 386.485995 195.405314 
L 386.613788 195.547383 
L 386.655634 195.75424 
L 386.655634 195.870485 
L 386.60599 196.078623 
L 386.655634 196.207171 
L 386.792308 196.355585 
L 386.777969 196.497847 
L 386.750548 196.601275 
L 386.695445 196.633444 
L 386.651519 196.7213 
L 386.668067 196.806978 
L 386.9347 197.090284 
L 386.959392 197.219153 
L 386.89125 197.349431 
L 386.869503 197.481248 
L 386.917328 197.555903 
L 387.036327 197.639402 
L 387.073539 197.712904 
L 387.065265 197.829148 
L 386.98664 198.043438 
L 386.990799 198.141356 
L 387.048717 198.233185 
L 387.056991 198.526937 
L 386.982524 198.649397 
L 386.961818 198.753402 
L 387.028053 198.89419 
L 386.958049 199.14757 
L 386.97685 199.244206 
L 387.026147 199.30566 
L 387.008776 199.496047 
L 386.916332 199.616457 
L 386.949428 199.775637 
L 386.93288 199.818444 
L 386.825274 199.910273 
L 386.808726 199.977623 
L 386.834978 200.282333 
L 386.908058 200.381596 
L 386.928721 200.473361 
L 386.89151 200.528471 
L 386.808726 200.56519 
L 386.792178 200.681499 
L 386.874962 200.926356 
L 387.015621 201.116103 
L 387.036327 201.489444 
L 386.949428 201.85061 
L 386.961818 201.973006 
L 387.040443 202.095403 
L 387.048717 202.230103 
L 387.036327 202.31578 
L 386.924606 202.401458 
L 386.916332 202.487135 
L 386.93288 202.585053 
L 387.048717 202.72584 
L 387.073539 202.80543 
L 387.011505 202.909499 
L 386.71078 203.019015 
L 386.574713 203.125904 
L 386.421405 203.478867 
L 386.453245 203.533016 
L 386.401218 203.858168 
L 386.357725 203.937822 
L 386.35361 204.01126 
L 386.370158 204.078546 
L 386.475121 204.227088 
L 386.661786 204.4028 
L 386.717711 204.384601 
L 386.84845 204.508279 
L 386.84806 204.632534 
L 386.792568 204.751278 
L 386.787023 204.934808 
L 386.875048 205.13782 
L 386.990799 205.957043 
L 386.982981 205.99076 
L 386.897705 206.358581 
L 386.905979 206.468737 
L 387.005354 206.591711 
L 387.427461 206.819394 
L 387.733514 206.689115 
L 387.795591 206.689115 
L 387.88249 206.805424 
L 387.907313 206.915581 
L 387.856499 207.118784 
L 387.869668 207.433555 
L 387.906403 207.518656 
L 387.880411 207.879629 
L 387.950762 207.940827 
L 388.161772 207.965307 
L 388.218304 208.06489 
L 388.283284 208.500647 
L 388.218304 208.718526 
L 388.215575 208.91404 
L 388.240397 208.999717 
L 388.269335 209.030348 
L 388.42247 209.060915 
L 388.496936 209.262902 
L 388.583836 209.281293 
L 388.707817 209.103081 
L 388.92879 208.936468 
L 389.444294 208.667324 
L 389.509274 208.692957 
L 389.572737 208.773252 
L 389.572737 208.858929 
L 389.49827 209.036436 
L 389.49827 209.097698 
L 389.51066 209.164984 
L 389.605833 209.262902 
L 389.543756 209.385362 
L 389.527208 209.489431 
L 389.547915 209.575109 
L 389.566984 209.599792 
L 389.614107 209.660786 
L 389.618266 209.746464 
L 389.461015 209.832141 
L 389.413277 210.112756 
L 389.431298 210.307821 
L 389.340327 210.589782 
L 389.262308 210.583374 
L 389.132349 210.480843 
L 388.998058 210.685905 
L 388.868099 211.192152 
L 388.998058 211.890645 
L 389.071702 211.935502 
L 389.162673 211.890645 
L 389.236316 211.890645 
L 389.26664 211.961135 
L 389.218988 212.223871 
L 389.162673 212.352035 
L 389.097693 212.358443 
L 388.911419 212.249504 
L 388.910009 212.249069 
L 388.703485 212.185422 
L 388.660165 212.236687 
L 388.703485 212.384076 
L 388.751136 212.454566 
L 388.74923 212.663729 
L 388.686157 213.018487 
L 388.594189 213.18337 
L 388.594189 213.311854 
L 388.59704 213.317655 
L 388.660381 213.446554 
L 388.672771 213.532232 
L 388.668656 213.617909 
L 388.635559 213.703587 
L 388.631401 213.899485 
L 388.681045 213.972923 
L 388.75967 214.009642 
L 388.809314 214.07084 
L 388.809314 214.144342 
L 388.730733 214.291218 
L 388.710026 214.413614 
L 388.747281 214.523835 
L 388.747281 214.621752 
L 388.701752 214.682951 
L 388.573482 214.70743 
L 388.552775 214.744149 
L 388.544501 214.829826 
L 388.577598 214.921656 
L 388.565208 215.019573 
L 388.486583 215.142034 
L 388.312785 215.19708 
L 388.300395 215.25219 
L 388.403842 215.460264 
L 388.387294 215.539854 
L 388.312785 215.564333 
L 388.218261 215.536842 
L 387.940972 215.889293 
L 387.845669 216.062314 
L 387.857638 216.153162 
L 387.881364 216.333252 
L 387.837005 216.457315 
L 387.765397 216.523704 
L 387.742395 216.584133 
L 387.78996 216.655905 
L 388.004738 216.764331 
L 388.036448 216.822902 
L 387.982905 217.862503 
L 388.017431 217.970866 
L 388.070088 218.025792 
L 388.151419 218.110629 
L 388.22177 218.239177 
L 388.238318 218.367725 
L 388.172126 218.56356 
L 388.1804 218.673716 
L 388.196948 218.710499 
L 388.33765 218.759458 
L 388.366588 218.845136 
L 388.325217 219.02873 
L 388.345924 219.163431 
L 388.503131 219.322546 
L 388.532112 219.402136 
L 388.532112 219.438855 
L 388.474194 219.493965 
L 388.478309 219.604122 
L 388.561049 219.720431 
L 388.519679 219.799956 
L 388.453487 219.824436 
L 388.395568 219.983615 
L 388.395568 220.093772 
L 388.561049 220.326389 
L 388.569324 220.503896 
L 388.521109 220.61181 
L 388.490742 220.767081 
L 388.519679 220.969067 
L 388.666316 221.106843 
L 388.648945 221.346958 
L 388.533628 221.616358 
L 388.652107 221.801491 
L 388.722459 221.862689 
L 388.751396 221.97291 
L 388.723368 222.262176 
L 388.513181 222.417254 
L 388.47986 222.680563 
L 388.451104 222.907801 
L 388.23364 223.490498 
L 388.246549 223.54029 
L 388.381056 223.702033 
L 388.430744 223.995848 
L 388.42247 224.191683 
L 388.381056 224.295752 
L 388.418311 224.485498 
L 388.499449 224.522922 
L 388.536834 224.578545 
L 388.531029 224.688382 
L 388.365548 224.891842 
L 388.381056 225.024107 
L 388.331412 225.115936 
L 388.157657 225.177135 
L 388.141109 225.213853 
L 388.124517 225.336314 
L 388.174205 225.513821 
L 388.116243 225.703568 
L 387.923774 225.953359 
L 387.903587 226.417504 
L 387.992652 226.719202 
L 388.257075 226.991614 
L 388.311572 227.470498 
L 388.304337 227.634548 
L 388.26314 227.775464 
L 388.238318 228.014169 
L 388.287962 228.118238 
L 388.510422 228.252282 
L 388.511405 228.252875 
L 388.540386 228.301833 
L 388.552775 228.387511 
L 388.523838 228.509971 
L 388.54866 228.754764 
L 388.75967 228.803723 
L 388.796925 228.901704 
L 388.763829 228.993469 
L 388.784492 229.10369 
L 388.937584 229.201607 
L 388.974839 229.287285 
L 388.908646 229.544382 
L 388.945858 229.66069 
L 389.061738 229.734128 
L 389.074128 229.770847 
L 389.04493 229.900677 
L 389.045753 230.043259 
L 389.04623 230.130539 
L 389.142399 230.257485 
L 389.29965 230.269725 
L 389.417956 230.485168 
L 389.473448 230.526758 
L 389.506544 230.587956 
L 389.481722 230.796094 
L 389.506544 230.875684 
L 389.672069 230.979689 
L 389.729987 231.047039 
L 389.717554 231.193979 
L 389.783747 231.236785 
L 389.899627 231.242937 
L 389.928564 231.279656 
L 389.887194 231.48773 
L 389.899627 231.579559 
L 389.949271 231.652997 
L 390.098248 231.689716 
L 390.172714 231.799937 
L 390.259613 232.320154 
L 390.16444 232.656841 
L 390.098248 232.711887 
L 390.069267 232.822108 
L 390.098248 232.932265 
L 390.156166 233.017942 
L 390.255455 233.256647 
L 390.263729 233.336237 
L 390.176829 233.581094 
L 390.296825 233.672924 
L 390.329964 233.752449 
L 390.32169 233.79532 
L 390.234791 233.87491 
L 390.230632 233.911629 
L 390.234791 233.954436 
L 390.350628 234.076896 
L 390.354787 234.187053 
L 390.263729 234.327841 
L 390.263729 234.43191 
L 390.364274 234.686315 
L 390.517842 234.894133 
L 390.564064 235.416849 
L 390.61869 235.683302 
L 390.514073 235.946807 
L 390.62991 236.142641 
L 390.62991 236.228319 
L 390.551328 236.497655 
L 390.646761 236.679519 
L 390.728505 236.724889 
L 390.687005 236.915213 
L 390.547169 237.201595 
L 390.538895 237.323991 
L 390.57615 237.446388 
L 390.646501 237.513738 
L 390.667165 237.581088 
L 390.613362 237.740203 
L 390.609246 237.819793 
L 390.663049 237.899319 
L 391.01866 238.057281 
L 391.027151 238.205374 
L 391.11405 238.266572 
L 391.213339 238.291052 
L 391.250594 238.333922 
L 391.279575 238.376793 
L 391.262983 238.468558 
L 391.300238 238.597107 
L 391.428508 238.823572 
L 391.510642 238.903162 
L 391.540792 239.165898 
L 391.509082 239.503289 
L 391.380943 239.628505 
L 391.364395 239.683552 
L 391.397491 239.836579 
L 391.442976 239.873298 
L 391.463683 239.928409 
L 391.472477 240.099251 
L 391.406241 240.262404 
L 391.376784 240.393579 
L 391.401606 240.503736 
L 391.513328 240.638436 
L 391.674693 240.638436 
L 391.790573 240.693483 
L 391.860924 240.85875 
L 391.881588 241.01793 
L 391.918843 241.048497 
L 392.051228 241.066888 
L 392.113305 241.121999 
L 392.134012 241.256635 
L 392.084324 241.42799 
L 392.084324 241.501492 
L 392.125738 241.636128 
L 392.274671 241.629976 
L 392.3202 241.672847 
L 392.340863 241.770764 
L 392.3202 241.874833 
L 392.332589 241.954423 
L 392.431921 242.0401 
L 392.663638 242.113538 
L 392.690626 242.253621 
L 392.667753 242.352243 
L 392.700849 242.450225 
L 392.841552 242.505271 
L 392.963973 242.452788 
L 393.021198 242.482073 
L 393.115635 242.646123 
L 393.521757 243.593638 
L 393.493079 243.939232 
L 393.605927 244.527889 
L 393.656221 244.58505 
L 393.985104 244.660346 
L 394.003601 244.844838 
L 394.125026 245.136283 
L 394.319445 245.284248 
L 394.500781 245.357622 
L 394.509055 245.455539 
L 394.467685 245.614654 
L 394.525603 245.932949 
L 394.595954 246.037018 
L 394.772179 246.057717 
L 395.148237 245.918851 
L 395.251121 245.989213 
L 395.243887 246.125387 
L 395.280968 246.186906 
L 395.615916 246.312634 
L 395.73041 246.524874 
L 395.630471 246.713851 
L 395.650528 246.791455 
L 395.880772 246.965565 
L 396.166725 247.27585 
L 396.471133 247.367936 
L 396.526885 247.416189 
L 396.471479 248.110325 
L 396.585886 248.435348 
L 396.593077 248.558321 
L 396.457617 249.098724 
L 396.504835 249.337365 
L 396.553093 249.415737 
L 396.573757 249.507567 
L 396.503449 249.721793 
L 396.544819 249.81971 
L 396.647877 249.886419 
L 396.686475 249.969854 
L 396.685478 250.254314 
L 396.594464 250.44406 
L 396.569641 250.554217 
L 396.58619 250.639894 
L 396.71108 250.857196 
L 396.732523 250.95678 
L 396.654201 251.419579 
L 396.556082 251.689492 
L 396.528271 251.790614 
L 396.565483 251.882443 
L 396.693752 251.931402 
L 396.751714 252.035471 
L 396.793084 252.139476 
L 396.788926 252.249696 
L 396.751714 252.353765 
L 396.768262 252.45777 
L 396.842729 252.518969 
L 396.908921 252.555752 
L 396.933743 252.598558 
L 396.946176 252.653669 
L 396.933743 252.702627 
L 396.904806 252.745498 
L 396.846844 252.818936 
L 396.766313 252.866805 
L 396.598016 253.008875 
L 396.57523 253.104101 
L 396.622665 253.994391 
L 396.704106 254.499549 
L 396.878164 254.606373 
L 397.090777 255.136395 
L 397.170702 255.490704 
L 397.193531 255.505314 
L 397.227754 255.704481 
L 397.197863 255.896342 
L 397.169402 255.949018 
L 397.049623 256.075195 
L 397.048324 256.294612 
L 397.011285 256.432324 
L 397.012368 256.717873 
L 397.057897 256.821942 
L 397.070287 256.877052 
L 397.062013 256.974969 
L 397.053739 257.048407 
L 397.053739 257.121909 
L 397.062013 257.170868 
L 397.090993 257.225914 
L 397.138299 257.225658 
L 397.188203 257.237577 
L 397.23893 257.427836 
L 397.21922 257.465709 
L 397.260633 257.636038 
L 397.359922 257.746195 
L 397.442706 257.813545 
L 397.471643 257.960421 
L 397.48191 258.155615 
L 397.36525 258.896594 
L 397.406621 259.129404 
L 397.496379 259.299221 
L 397.60888 259.414889 
L 397.848178 260.021104 
L 397.812612 260.447184 
L 397.753784 260.53158 
L 397.815125 260.657437 
L 398.117496 260.929401 
L 398.127546 261.138436 
L 397.949546 261.234559 
L 398.001399 261.413155 
L 398.111778 261.667432 
L 398.285403 261.85782 
L 398.338037 262.023279 
L 398.393486 262.357146 
L 398.407651 263.020522 
L 398.487273 263.206488 
L 398.332145 263.967909 
L 398.333575 264.027954 
L 398.396128 264.171433 
L 398.383306 264.433528 
L 398.280898 264.853778 
L 398.208381 265.03686 
L 397.976621 265.293123 
L 397.658264 266.15855 
L 397.472163 266.865822 
L 397.499238 267.078189 
L 397.531538 267.188048 
L 397.631406 267.527724 
L 397.561878 268.075368 
L 397.64007 268.30382 
L 397.659954 268.439994 
L 397.708559 269.255885 
L 397.712847 269.854795 
L 397.800959 270.920862 
L 398.041254 271.769691 
L 398.15683 271.938291 
L 398.191529 272.070492 
L 398.139936 272.619546 
L 398.090248 272.737584 
L 397.517346 272.736687 
L 396.627776 272.739891 
L 396.207143 272.733996 
L 395.723998 272.727203 
L 394.824206 272.732906 
L 393.921901 272.717399 
L 393.022974 272.707402 
L 392.127687 272.70157 
L 388.2206 272.698366 
L 387.629287 272.725665 
L 383.777242 272.717743 
L 379.247063 272.708427 
L 379.17303 272.738353 
L 378.339776 272.728805 
L 374.7173 272.689779 
L 374.074652 272.722205 
L 372.907881 272.73547 
L 369.299197 272.744246 
L 369.298622 272.744247 
L 369.297794 272.744249 
L 365.664964 272.74835 
L 365.374072 272.749824 
L 358.310022 272.744441 
L 357.880075 272.746171 
L 356.708191 272.733804 
L 356.704249 272.733804 
L 355.683508 272.736751 
L 349.008252 272.730728 
L 345.527561 272.7281 
L 345.201147 272.73233 
L 337.657332 272.697021 
L 336.788349 272.693234 
L 336.4368 272.691702 
L 335.518049 272.683091 
L 335.513702 272.683051 
L 332.814324 272.677668 
L 327.870598 272.677476 
L 327.827581 272.677347 
L 317.912231 272.656905 
L 313.905702 272.608448 
L 308.777805 272.546428 
L 304.489352 272.517056 
L 296.689454 272.463634 
L 296.644055 272.463634 
L 292.304942 272.436463 
L 292.300075 272.436444 
L 288.526341 272.421084 
L 288.114631 272.42275 
L 283.340848 272.425954 
L 283.294366 272.425441 
L 282.946596 272.428453 
L 282.920734 272.428325 
L 281.383926 272.42903 
L 280.581602 272.420827 
L 280.247954 272.420379 
L 279.67163 272.422301 
L 278.779115 272.416021 
L 277.613859 272.413714 
L 277.605802 272.413714 
L 276.153467 272.40705 
L 275.846807 272.406794 
L 275.166905 272.409357 
L 271.311715 272.409677 
L 271.186695 272.408332 
L 267.043603 272.362128 
L 266.074109 272.362513 
L 263.441226 272.36482 
L 262.529911 272.372061 
L 261.442674 272.374753 
L 260.151878 272.373086 
L 260.088848 272.372958 
L 260.081527 272.371613 
L 260.042453 272.372958 
L 256.21802 272.350017 
L 254.425362 272.325864 
L 254.415402 272.32573 
L 250.712308 272.316118 
L 248.992041 272.307915 
L 246.23977 272.293817 
L 245.58378 272.285422 
L 244.530766 272.279655 
L 244.449845 272.281193 
L 243.089997 272.272286 
L 242.641466 272.273567 
L 241.829569 272.271773 
L 237.327097 272.244154 
L 237.290188 272.245628 
L 236.921105 272.243769 
L 236.868645 272.232298 
L 236.488255 272.223391 
L 231.451911 272.2116 
L 231.028418 272.206473 
L 230.843183 272.204167 
L 230.576378 272.199745 
L 229.179708 272.204359 
L 227.597851 272.200152 
L 227.058995 272.19872 
L 227.052237 272.198721 
L 222.038766 272.199489 
L 221.036392 272.197053 
L 218.002067 272.175009 
L 216.722318 272.19904 
L 216.216994 272.189171 
L 216.215348 272.191478 
L 215.884342 272.191542 
L 210.667572 272.185455 
L 208.7006 272.192119 
L 208.55301 272.186288 
L 207.451737 272.187954 
L 206.92523 272.185262 
L 206.746407 272.17219 
L 201.52028 272.186736 
L 201.282368 272.177573 
L 199.733907 272.186736 
L 199.582072 272.186672 
L 198.83849 272.181994 
L 198.499167 272.179175 
L 198.299073 272.177637 
L 198.151353 272.183212 
L 197.082051 272.183276 
L 196.206171 272.174945 
L 194.147707 272.163154 
L 193.467632 272.16969 
L 192.339198 272.166038 
L 191.446856 272.16591 
L 190.086099 272.170652 
L 189.85187 272.163859 
L 189.718489 272.159565 
L 187.720543 272.191735 
L 181.769028 272.170139 
L 181.557628 272.16136 
L 178.679427 272.157771 
L 177.421684 272.151747 
L 176.427801 272.155464 
L 176.373868 272.148095 
L 175.20571 272.154247 
L 174.57346 272.164564 
L 174.283694 272.153734 
L 173.047265 272.145916 
L 172.801815 272.150145 
L 172.757803 272.153029 
L 172.719508 272.155913 
L 171.685165 272.148223 
L 171.487974 272.151107 
L 169.825148 272.146813 
L 168.973874 272.147262 
L 167.492515 272.140725 
L 164.434104 272.145532 
L 163.72756 272.147326 
L 163.045189 272.146301 
L 162.928832 272.146365 
L 162.650232 272.140925 
L 162.646561 272.140854 
L 162.571965 272.139316 
L 162.561958 272.143545 
L 162.560966 272.143542 
L 159.950909 272.136688 
L 158.90292 272.135407 
L 158.797523 272.138226 
L 157.191533 272.124449 
L 157.156834 272.134766 
L 156.730569 272.138995 
L 156.293603 272.134317 
L 155.815484 272.134061 
L 155.747386 272.135471 
L 155.683533 272.135471 
L 154.935879 272.136688 
L 154.923099 272.136688 
L 153.152452 272.130985 
L 148.371564 272.124897 
L 147.281901 272.113491 
L 147.242957 272.118809 
L 145.578919 272.115605 
L 145.575843 272.113811 
L 145.420239 272.117848 
L 145.324243 272.120924 
L 144.99497 272.112658 
L 144.814327 272.107403 
L 144.388625 272.10798 
L 144.164012 272.113106 
L 144.162323 272.109838 
L 143.251657 272.107146 
L 142.681267 272.107275 
L 142.335706 272.102276 
L 141.969178 272.100738 
L 138.72354 272.111504 
L 138.392924 272.104199 
L 134.755112 272.086576 
L 134.36242 272.083628 
L 133.709852 272.092792 
L 133.459032 272.096829 
L 133.38959 272.094907 
L 132.055605 272.107851 
L 124.45816 272.108044 
L 122.71541 272.11003 
L 121.780235 272.106583 
L 119.708159 272.098944 
L 119.47237 272.101828 
L 119.458382 272.101733 
L 118.141893 272.092792 
L 117.200947 272.090998 
L 115.87112 272.093946 
L 115.030935 272.095676 
L 113.165288 272.095996 
L 112.285379 272.092664 
L 110.146124 272.098239 
L 109.809877 272.099136 
L 106.963949 272.102917 
L 106.963212 272.102725 
L 103.279352 272.102725 
L 103.005918 272.125474 
L 101.452259 272.095548 
L 101.161367 272.100546 
L 100.5396 272.092408 
L 100.43312 272.093817 
L 95.067591 272.104071 
L 94.271679 272.09433 
L 90.645996 272.097662 
L 90.645996 272.097022 
L 90.312435 272.096957 
L 73.982483 272.0926 
L 73.922746 268.575207 
L 73.968794 260.645261 
L 73.991407 260.577591 
L 73.983591 250.632969 
L 73.981357 247.790492 
L 73.98166 246.67867 
L 73.980837 245.07816 
L 73.953892 243.985884 
L 73.999725 235.919764 
L 73.997409 233.924131 
L 73.989934 227.482674 
L 73.989927 227.479315 
L 73.98114 223.170665 
L 73.976895 222.841092 
L 73.985646 222.363618 
L 73.984216 222.309468 
L 73.984259 222.101459 
L 73.962643 215.349339 
L 73.978195 208.742685 
L 73.978498 208.734867 
L 73.977155 208.272067 
L 73.998382 202.097261 
L 73.999421 201.887457 
L 73.993227 201.068746 
L 73.99184 200.821198 
L 73.990454 200.411137 
L 73.986339 199.470863 
L 74.000894 199.302456 
L 73.998165 198.558401 
L 74.010858 196.340077 
L 73.979278 190.685744 
L 73.994786 187.596483 
L 73.997732 187.463257 
L 73.999205 187.404622 
L 73.997862 187.113818 
L 73.994959 186.952075 
L 73.996432 186.75733 
L 73.988391 183.350808 
L 73.988115 183.233722 
L 73.987248 182.496972 
L 74.007609 180.474354 
L 73.998839 179.06081 
L 73.998685 179.035971 
L 74.010468 176.409638 
L 74.018092 175.068082 
L 74.040272 170.953062 
L 74.048806 165.849962 
L 74.034554 165.269444 
L 74.05617 164.453809 
L 74.07783 156.630047 
L 74.079693 156.618128 
L 74.114998 153.031847 
L 74.112919 152.897147 
L 74.107071 152.712655 
L 74.137308 150.568346 
L 74.146275 149.249347 
L 74.121669 147.407056 
L 74.074061 143.65679 
L 74.066783 143.340481 
L 74.047896 142.249487 
L 74.037976 140.883196 
L 74.039795 140.673584 
L 73.984389 129.889686 
L 73.980101 129.129738 
L 73.983306 128.090073 
L 73.977415 127.997795 
L 73.971697 124.953776 
L 73.970094 124.750572 
L 73.973733 124.648489 
L 73.964376 124.077007 
L 73.956665 123.970374 
L 73.943972 118.489512 
L 73.942283 116.447605 
L 73.930023 116.407939 
L 73.918905 115.476964 
L 73.918803 115.468498 
L 73.916378 115.388908 
L 73.90923 114.08279 
L 73.916767 113.441458 
L 73.911136 111.849791 
L 73.906717 111.763409 
L 73.902299 111.425185 
L 73.903815 111.398783 
L 73.898053 110.492344 
L 73.890992 108.758672 
L 73.869376 108.381549 
L 73.885794 107.239161 
L 73.892812 106.722597 
L 73.877087 106.409556 
L 73.886963 106.365276 
L 73.881115 105.836728 
L 73.879902 104.360729 
L 73.872841 102.512863 
L 73.862531 102.035517 
L 73.874747 100.681145 
L 73.889649 100.331642 
L 73.888176 100.243786 
L 73.889823 99.797199 
L 73.879556 98.858591 
L 73.87661 98.776566 
L 73.877563 98.293453 
L 73.877736 98.203354 
L 73.878256 97.927353 
L 73.876783 97.861476 
L 73.856986 92.546394 
L 73.847976 92.275776 
L 73.861621 91.360686 
L 73.848452 89.892184 
L 73.847066 89.347488 
L 73.832727 86.121924 
L 73.843471 84.946213 
" clip-path="url(#pfc209e4511)" style="fill: #33ff57"/>
   </g>
   <g id="text_1">
    <!-- ND -->
    <g transform="translate(227.05125 60.483994) scale(0.12 -0.12)">
     <defs>
      <path id="DejaVuSans-4e" d="M 628 4666 
L 1478 4666 
L 3547 763 
L 3547 4666 
L 4159 4666 
L 4159 0 
L 3309 0 
L 1241 3903 
L 1241 0 
L 628 0 
L 628 4666 
z
" transform="scale(0.015625)"/>
      <path id="DejaVuSans-44" d="M 1259 4147 
L 1259 519 
L 2022 519 
Q 2988 519 3436 956 
Q 3884 1394 3884 2338 
Q 3884 3275 3436 3711 
Q 2988 4147 2022 4147 
L 1259 4147 
z
M 628 4666 
L 1925 4666 
Q 3281 4666 3915 4102 
Q 4550 3538 4550 2338 
Q 4550 1131 3912 565 
Q 3275 0 1925 0 
L 628 0 
L 628 4666 
z
" transform="scale(0.015625)"/>
     </defs>
     <use xlink:href="#DejaVuSans-4e"/>
     <use xlink:href="#DejaVuSans-44" x="74.804688"/>
    </g>
   </g>
  </g>
 </g>
 <defs>
  <clipPath id="pfc209e4511">
   <rect x="57.6" y="66.483994" width="357.12" height="216.088013"/>
  </clipPath>
 </defs>
</svg>
