<?xml version="1.0" encoding="utf-8" standalone="no"?>
<!DOCTYPE svg PUBLIC "-//W3C//DTD SVG 1.1//EN"
  "http://www.w3.org/Graphics/SVG/1.1/DTD/svg11.dtd">
<svg xmlns:xlink="http://www.w3.org/1999/xlink" width="460.8pt" height="345.6pt" viewBox="0 0 460.8 345.6" xmlns="http://www.w3.org/2000/svg" version="1.1">
 <metadata>
  <rdf:RDF xmlns:dc="http://purl.org/dc/elements/1.1/" xmlns:cc="http://creativecommons.org/ns#" xmlns:rdf="http://www.w3.org/1999/02/22-rdf-syntax-ns#">
   <cc:Work>
    <dc:type rdf:resource="http://purl.org/dc/dcmitype/StillImage"/>
    <dc:date>2023-06-19T14:47:39.063159</dc:date>
    <dc:format>image/svg+xml</dc:format>
    <dc:creator>
     <cc:Agent>
      <dc:title>Matplotlib v3.7.1, https://matplotlib.org/</dc:title>
     </cc:Agent>
    </dc:creator>
   </cc:Work>
  </rdf:RDF>
 </metadata>
 <defs>
  <style type="text/css">*{stroke-linejoin: round; stroke-linecap: butt}</style>
 </defs>
 <g id="figure_1">
  <g id="patch_1">
   <path d="M 0 345.6 
L 460.8 345.6 
L 460.8 0 
L 0 0 
z
" style="fill: #ffffff"/>
  </g>
  <g id="axes_1">
   <g id="PatchCollection_1">
    <path d="M 73.832727 191.559317 
L 73.864208 185.710607 
L 73.867623 185.573403 
L 73.872115 185.564333 
L 73.867846 183.680754 
L 73.871262 183.444861 
L 73.876904 183.43579 
L 73.863429 182.968613 
L 73.878256 179.863434 
L 73.878278 179.858825 
L 73.882993 179.147278 
L 73.87631 178.641537 
L 73.871187 173.789389 
L 73.871262 173.462787 
L 73.863466 172.631633 
L 73.863243 172.530366 
L 73.867252 171.960534 
L 73.86922 171.956915 
L 73.868886 171.384357 
L 73.857043 169.997448 
L 73.861647 168.935606 
L 73.852737 168.476855 
L 73.853851 167.72164 
L 73.855039 167.373524 
L 73.858125 164.758115 
L 73.860199 163.001094 
L 73.850844 155.463658 
L 73.85437 154.438644 
L 73.852143 154.00096 
L 73.861684 151.124339 
L 73.857155 150.978064 
L 73.85812 150.05402 
L 73.860681 150.035829 
L 73.862983 149.85213 
L 73.862791 149.701201 
L 73.861869 148.977505 
L 73.856264 148.707708 
L 73.853034 146.068566 
L 73.853037 146.064601 
L 73.853517 145.370998 
L 73.866658 143.592206 
L 73.861535 143.155711 
L 73.851772 142.982967 
L 73.868626 141.518386 
L 73.860681 141.346039 
L 73.847168 137.396274 
L 73.859493 137.396274 
L 73.860125 136.986942 
L 73.847837 125.004211 
L 73.860162 119.509663 
L 73.860162 119.471149 
L 73.860226 119.462407 
L 73.867178 118.513151 
L 73.861424 118.361226 
L 73.867289 117.564175 
L 73.858899 112.612148 
L 73.856895 112.383987 
L 73.847094 100.189501 
L 76.150616 100.134679 
L 77.071542 100.133837 
L 78.606567 100.172995 
L 82.665963 100.155101 
L 82.726623 100.150194 
L 86.396481 100.169773 
L 88.704272 100.148657 
L 89.988193 100.184842 
L 91.523924 100.181521 
L 91.547571 100.178497 
L 94.137799 100.180282 
L 94.152834 100.180282 
L 94.187433 100.180331 
L 94.191851 100.180333 
L 97.923556 100.181967 
L 100.290188 100.174928 
L 108.007228 100.179637 
L 108.052333 100.179687 
L 112.920369 100.195055 
L 120.660598 100.21949 
L 131.975215 100.240358 
L 133.711933 100.23788 
L 147.002233 100.25042 
L 147.004459 100.250421 
L 155.635855 100.251759 
L 160.699854 100.386038 
L 163.972266 100.404973 
L 168.612721 100.361502 
L 178.639779 100.322641 
L 178.681431 100.324871 
L 178.725781 100.323813 
L 178.768672 100.322789 
L 178.781999 100.322541 
L 185.588507 100.319617 
L 187.174355 100.340931 
L 188.519679 100.323285 
L 188.735924 100.327746 
L 190.653397 100.322095 
L 191.351915 100.323533 
L 192.110166 100.304449 
L 200.861878 100.313074 
L 201.096277 100.288687 
L 203.779685 100.281896 
L 204.117993 100.278228 
L 204.477461 100.267224 
L 206.764017 100.253791 
L 211.119956 100.279963 
L 211.337427 100.280954 
L 213.781462 100.279616 
L 214.001234 100.284225 
L 216.947328 100.290768 
L 216.94812 100.290766 
L 216.948144 100.290766 
L 219.603079 100.282391 
L 219.62049 100.282441 
L 219.885182 100.283482 
L 223.037276 100.296568 
L 223.281327 100.296617 
L 224.137324 100.298204 
L 225.75417 100.301029 
L 226.135912 100.30321 
L 226.154845 100.303458 
L 227.000002 100.312033 
L 227.343173 100.314809 
L 228.854253 100.312975 
L 229.144263 100.312975 
L 229.513272 100.319518 
L 229.881093 100.309158 
L 230.926829 100.317882 
L 231.390689 100.308811 
L 231.615101 100.314462 
L 231.727289 100.319022 
L 232.174963 100.316841 
L 232.907152 100.311438 
L 233.849573 100.321996 
L 234.456545 100.322988 
L 234.739093 100.322641 
L 235.397332 100.317932 
L 235.479449 100.323582 
L 240.303926 100.317882 
L 241.562492 100.315751 
L 241.611708 100.315623 
L 243.087828 100.311785 
L 243.217352 100.310546 
L 243.821243 100.313619 
L 243.939222 100.31927 
L 246.752637 100.309208 
L 247.54337 100.315305 
L 247.660198 100.313024 
L 247.752747 100.310695 
L 248.545152 100.306878 
L 250.744282 100.3101 
L 251.684809 100.306035 
L 251.991293 100.310705 
L 251.99713 100.310794 
L 252.733478 100.303706 
L 254.191063 100.31233 
L 255.446251 100.294585 
L 255.826582 100.300583 
L 256.275704 100.292454 
L 256.390193 100.302714 
L 258.397877 100.303359 
L 258.467261 100.299939 
L 260.609703 100.305887 
L 260.624219 100.299542 
L 261.423825 100.304102 
L 262.845252 100.303458 
L 264.435888 100.305688 
L 264.439527 100.305639 
L 265.032837 100.302466 
L 265.152003 100.311587 
L 267.97173 100.302268 
L 268.813879 100.305688 
L 270.184707 100.301624 
L 271.000833 100.300632 
L 273.851223 100.291066 
L 273.921795 100.295626 
L 277.440225 100.291016 
L 277.583671 100.297807 
L 280.05321 100.289876 
L 280.157267 100.811727 
L 280.352686 101.311569 
L 280.781984 102.025792 
L 281.211245 102.818035 
L 281.422218 102.973133 
L 281.539455 103.025328 
L 281.773148 103.272424 
L 281.918339 103.369626 
L 281.965189 103.43461 
L 282.009217 103.657516 
L 282.072921 103.725821 
L 282.23634 103.777718 
L 282.32759 103.767904 
L 282.430867 103.726564 
L 282.563362 103.613698 
L 282.735875 103.584156 
L 282.9418 103.59288 
L 283.421289 103.898912 
L 283.737805 104.061742 
L 284.214955 104.262889 
L 284.626545 104.524359 
L 285.269192 104.802732 
L 285.707883 105.039121 
L 285.849769 105.1333 
L 286.013781 105.286316 
L 286.093374 105.390706 
L 286.180578 105.595025 
L 286.220449 105.646129 
L 286.32291 105.748239 
L 286.463943 105.84445 
L 286.699715 105.941603 
L 287.061444 106.039764 
L 287.518217 106.163717 
L 288.166321 106.414679 
L 288.598589 106.456514 
L 288.973055 106.444717 
L 289.213097 106.52234 
L 289.286973 106.570966 
L 289.397972 106.741777 
L 289.951412 107.101491 
L 290.15225 107.269922 
L 290.236929 107.380013 
L 290.400459 107.497191 
L 290.969193 107.810063 
L 291.516433 108.068659 
L 292.208863 108.292408 
L 292.342137 108.301777 
L 292.500321 108.290971 
L 292.878349 108.195679 
L 293.064674 108.148711 
L 293.106513 108.158129 
L 293.441405 108.509813 
L 293.77084 109.079843 
L 293.828345 109.134417 
L 294.56343 109.605015 
L 294.674355 109.711982 
L 295.050269 110.166321 
L 295.301039 110.3408 
L 295.488031 110.412524 
L 296.059512 110.887533 
L 296.225641 111.06796 
L 296.287229 111.224843 
L 296.339796 111.481703 
L 296.459074 111.580393 
L 296.64473 111.680123 
L 296.902219 111.716803 
L 297.001599 111.752145 
L 297.183394 111.831057 
L 297.260611 111.906351 
L 297.921634 111.995276 
L 298.076885 112.000827 
L 298.348148 111.908235 
L 298.467203 111.952994 
L 298.548281 111.953391 
L 298.839368 111.861442 
L 299.393215 111.622922 
L 299.970265 111.683147 
L 300.287747 111.66669 
L 300.411925 111.637991 
L 300.910533 111.333892 
L 301.049895 111.2125 
L 301.477856 110.709436 
L 301.681554 110.632655 
L 301.940083 110.38442 
L 302.087909 110.187982 
L 302.481828 109.553018 
L 302.635854 109.382951 
L 302.698184 109.276974 
L 302.835468 108.831855 
L 303.020566 108.377615 
L 303.054052 107.967293 
L 303.170137 107.766444 
L 303.177488 107.638459 
L 303.131603 107.521678 
L 303.127297 107.435876 
L 303.188848 107.221247 
L 303.547091 107.016234 
L 303.834353 106.905549 
L 304.305341 106.77464 
L 304.717339 106.722099 
L 304.928053 106.72195 
L 305.02799 106.784653 
L 305.352042 107.069718 
L 305.806313 107.215388 
L 305.936034 107.256985 
L 306.414261 107.486385 
L 306.934215 107.664879 
L 307.295279 107.698288 
L 307.701003 107.70265 
L 307.829377 107.678808 
L 308.939114 107.78062 
L 309.660055 107.961146 
L 310.199239 108.028658 
L 310.875334 107.999115 
L 311.263202 107.920054 
L 311.676277 107.772541 
L 312.096045 107.581864 
L 312.657937 107.326628 
L 312.972189 107.238943 
L 313.270997 107.240826 
L 313.438128 107.344919 
L 313.710764 107.463485 
L 314.355416 107.670877 
L 314.824027 107.775019 
L 315.36065 107.751425 
L 315.940001 107.648472 
L 316.530972 107.467698 
L 316.943082 107.23349 
L 317.110361 107.295797 
L 317.156877 107.396073 
L 317.262976 107.493523 
L 317.438942 107.573129 
L 317.682808 107.635436 
L 318.217091 107.631123 
L 318.546118 107.694521 
L 318.653554 107.736852 
L 318.742242 107.805503 
L 318.898384 107.849569 
L 319.265834 107.840845 
L 319.38333 107.796928 
L 319.649247 107.577243 
L 319.887135 107.323654 
L 319.904063 107.246179 
L 319.974487 107.100103 
L 320.201832 106.864656 
L 320.337111 106.793625 
L 320.526701 106.7449 
L 320.670481 106.773847 
L 320.861259 106.918338 
L 321.059388 106.947335 
L 321.700551 106.900493 
L 321.750965 107.009741 
L 321.99947 107.236365 
L 322.254101 107.399741 
L 322.33633 107.414958 
L 323.01896 107.362119 
L 323.205506 107.316516 
L 323.406233 107.237009 
L 323.489316 107.182733 
L 323.569615 107.094105 
L 323.639815 107.058962 
L 323.877072 106.997051 
L 324.13601 106.869464 
L 324.219093 106.795806 
L 324.299874 106.781084 
L 324.470717 106.877444 
L 324.924219 107.381103 
L 325.737709 107.525643 
L 326.153271 107.459718 
L 326.338444 107.384424 
L 326.457537 107.386704 
L 326.854314 107.498083 
L 327.074791 107.587504 
L 327.56126 107.859483 
L 327.613752 107.974926 
L 327.5819 108.666794 
L 327.598198 108.755768 
L 327.701067 108.993149 
L 327.741978 109.133624 
L 327.774386 109.48734 
L 327.827473 109.602487 
L 327.884198 109.671287 
L 328.084666 109.809631 
L 328.244112 109.86019 
L 328.720445 109.892409 
L 329.058716 109.971965 
L 329.296493 109.987084 
L 329.486009 110.028621 
L 329.601872 110.069763 
L 329.732009 110.145283 
L 330.087969 110.351853 
L 330.316947 110.622147 
L 330.553759 110.953508 
L 330.597862 111.075693 
L 330.595152 111.176365 
L 330.693158 111.396347 
L 330.809355 111.523489 
L 331.541025 111.649342 
L 331.925515 111.634124 
L 332.116219 111.65182 
L 332.512142 111.616082 
L 332.738857 111.549413 
L 333.017544 111.504851 
L 333.249826 111.510601 
L 333.747729 111.609836 
L 334.451259 111.822135 
L 334.564115 111.930788 
L 334.762318 111.994334 
L 335.09736 112.035522 
L 335.951388 112.140509 
L 336.345752 112.087323 
L 336.459982 112.110323 
L 336.600346 112.198008 
L 336.840128 112.398411 
L 337.124124 113.07526 
L 337.137637 113.151297 
L 337.121859 113.276208 
L 336.953243 113.745764 
L 336.958961 113.872856 
L 336.992483 113.975809 
L 337.038702 114.065626 
L 337.111279 114.105379 
L 337.323403 114.138243 
L 337.581784 114.124017 
L 337.871014 114.019726 
L 338.032056 113.927579 
L 338.274325 113.778231 
L 338.500445 113.585611 
L 338.636392 113.530838 
L 339.144875 113.413462 
L 339.885566 113.838655 
L 340.407375 113.894468 
L 340.865964 114.057992 
L 341.25502 114.343652 
L 341.497697 114.492851 
L 342.012416 114.670453 
L 342.387439 114.703515 
L 342.621466 114.77177 
L 342.878548 114.88295 
L 343.04824 115.149625 
L 343.091563 115.462299 
L 343.102403 115.86479 
L 343.028713 116.465007 
L 343.072964 116.587886 
L 343.156158 116.662981 
L 343.360598 116.772973 
L 343.919532 116.923213 
L 344.443792 116.973177 
L 344.919754 116.855453 
L 344.989064 116.787397 
L 345.079014 116.763109 
L 345.505528 116.716465 
L 345.781579 116.730443 
L 346.909581 117.114049 
L 347.146059 117.259927 
L 347.279704 117.412299 
L 347.301495 117.463502 
L 347.305208 117.578004 
L 347.275286 117.765916 
L 347.227211 117.86064 
L 347.096684 117.961808 
L 346.938797 118.182088 
L 346.551301 118.790731 
L 346.469814 118.958518 
L 346.401989 119.184399 
L 346.393302 119.314118 
L 346.413758 119.642753 
L 346.476682 119.859612 
L 346.583747 120.074737 
L 346.921683 120.520897 
L 347.351092 121.138909 
L 347.513583 121.310315 
L 347.714681 121.453368 
L 348.353134 121.709832 
L 348.74735 121.984884 
L 348.916114 122.147119 
L 349.122373 122.42688 
L 349.222718 122.641014 
L 349.297299 123.009253 
L 349.296482 123.417048 
L 349.313596 123.565603 
L 349.365124 123.796985 
L 349.488189 124.161607 
L 349.570641 124.329493 
L 350.107783 124.700657 
L 350.204527 124.743781 
L 350.405551 124.781354 
L 350.683088 124.773373 
L 350.863917 124.734264 
L 351.115355 124.614112 
L 351.554825 124.222377 
L 351.726113 124.116302 
L 352.101842 123.992233 
L 352.43536 123.983955 
L 352.834625 124.103711 
L 353.072959 124.250482 
L 353.179244 124.344512 
L 353.313297 124.495149 
L 353.478832 124.766434 
L 353.550517 124.960839 
L 353.59488 125.155987 
L 353.656728 125.28645 
L 353.927879 125.662125 
L 354.034907 125.759674 
L 354.19762 125.857521 
L 354.63657 125.988232 
L 355.033978 126.011876 
L 355.153776 125.991999 
L 355.521077 125.838537 
L 355.742409 125.694542 
L 356.269601 125.466877 
L 357.072066 125.548664 
L 357.458002 125.597939 
L 357.609765 125.617315 
L 358.100526 125.789742 
L 358.103546 125.790803 
L 358.478495 126.266654 
L 358.500769 126.336099 
L 358.652976 126.901172 
L 358.697525 127.406765 
L 358.67525 127.659561 
L 358.541605 128.110628 
L 358.41906 128.348554 
L 357.520668 129.419219 
L 357.453808 129.567923 
L 357.383273 129.944639 
L 357.402912 130.284278 
L 357.619231 130.876663 
L 357.645849 131.14428 
L 357.439516 131.647889 
L 357.32447 131.870399 
L 357.293843 132.006364 
L 357.284562 132.205726 
L 357.298743 132.365781 
L 357.443191 132.765099 
L 357.662109 133.061763 
L 357.849249 133.222958 
L 358.097532 133.386482 
L 358.546728 133.633479 
L 358.875718 134.006972 
L 359.006282 134.213522 
L 359.073884 134.376798 
L 359.101987 134.502403 
L 359.128159 134.736462 
L 359.130126 135.320074 
L 359.228949 135.616143 
L 359.414271 135.913947 
L 359.577389 136.081184 
L 359.578023 136.081833 
L 360.132613 136.4469 
L 360.334826 136.660488 
L 360.508267 136.926965 
L 360.598329 137.159736 
L 360.64284 137.394786 
L 360.596473 137.796633 
L 360.55753 137.878965 
L 360.822445 138.205469 
L 360.823967 138.313328 
L 360.790704 138.391348 
L 360.481798 138.802861 
L 360.322946 138.93486 
L 360.220373 138.976249 
L 359.998782 139.005841 
L 359.570524 139.120244 
L 359.568144 139.122486 
L 359.512982 139.174471 
L 359.448796 139.35009 
L 359.477863 139.486203 
L 359.758964 139.848742 
L 359.846167 140.008946 
L 359.887003 140.133163 
L 359.917556 140.530994 
L 359.803215 140.991034 
L 359.826789 141.258551 
L 359.89866 141.518138 
L 360.097531 141.831159 
L 360.261432 141.994436 
L 360.710925 142.277468 
L 360.946437 142.517376 
L 361.041066 142.689674 
L 361.158376 143.028372 
L 361.296996 143.217473 
L 361.452952 143.351157 
L 361.63341 143.439586 
L 362.20337 143.559689 
L 362.443448 143.665715 
L 362.599405 143.799598 
L 362.69975 143.917718 
L 362.825933 144.155941 
L 362.884663 144.320754 
L 362.91154 144.667878 
L 362.872857 145.019066 
L 362.719128 145.389834 
L 362.631591 145.52679 
L 362.534216 145.750737 
L 362.448052 146.117044 
L 362.438288 146.302725 
L 362.471588 146.792505 
L 362.579135 147.210015 
L 362.677387 147.442724 
L 362.678292 147.444867 
L 362.732122 147.556395 
L 362.835697 147.68894 
L 363.012071 147.810678 
L 363.11431 147.854496 
L 363.301598 147.89881 
L 363.358954 147.830704 
L 363.645178 147.723538 
L 363.958501 147.74971 
L 364.191155 147.84602 
L 364.431308 148.040723 
L 364.499393 148.133464 
L 364.570707 148.321227 
L 364.577055 148.487428 
L 364.507226 148.663543 
L 364.349227 148.861864 
L 363.941164 149.175926 
L 363.827083 149.441114 
L 363.810452 149.642657 
L 363.82326 149.741197 
L 363.872337 149.818523 
L 364.029222 149.96341 
L 364.279732 150.063438 
L 364.438473 150.047378 
L 364.496645 150.01159 
L 364.573974 149.916122 
L 364.729002 149.594923 
L 364.818544 149.4542 
L 365.157929 149.327008 
L 365.585853 149.356997 
L 365.826748 149.472936 
L 365.953823 149.655842 
L 365.993768 149.786998 
L 365.985118 149.897386 
L 365.948625 150.011392 
L 365.772956 150.316036 
L 365.675507 150.556589 
L 365.697484 150.676989 
L 365.73264 150.741972 
L 365.893645 150.905745 
L 365.968709 150.941483 
L 366.23006 150.959873 
L 366.34325 150.933156 
L 366.569073 150.827477 
L 366.843453 150.77206 
L 366.99722 150.77092 
L 367.565582 150.873724 
L 367.888224 151.044138 
L 368.000783 151.190462 
L 368.023243 151.286921 
L 368.012625 151.514487 
L 367.85923 151.980624 
L 367.782199 152.154557 
L 367.51476 152.467578 
L 367.477414 152.536775 
L 367.441033 152.683892 
L 367.481497 152.889946 
L 367.736908 153.396529 
L 367.754727 153.576808 
L 367.732082 153.710839 
L 367.624052 153.908516 
L 367.527085 153.980835 
L 367.080265 154.127457 
L 366.902183 154.244635 
L 366.840224 154.344415 
L 366.794896 154.467889 
L 366.803508 154.652926 
L 366.935372 154.883268 
L 367.159041 155.135469 
L 367.283517 155.331411 
L 367.338312 155.496025 
L 367.360326 155.856532 
L 367.385347 155.98293 
L 367.444745 156.138276 
L 367.535252 156.286434 
L 367.647941 156.413526 
L 367.787396 156.570805 
L 367.95939 156.685753 
L 368.234291 156.79624 
L 368.494639 156.980186 
L 368.577796 157.067773 
L 368.715747 157.278535 
L 368.79805 157.499261 
L 368.802431 157.700407 
L 368.691208 158.172343 
L 368.694809 158.303499 
L 368.749121 158.523432 
L 368.814273 158.674614 
L 368.956939 158.849787 
L 369.16034 158.995764 
L 369.324983 159.0662 
L 369.8005 159.197108 
L 370.003863 159.31275 
L 370.222373 159.525991 
L 370.308982 159.668796 
L 370.399935 159.886796 
L 370.412632 160.046801 
L 370.342988 160.249484 
L 370.091141 160.542132 
L 369.929801 160.799142 
L 369.877977 161.119895 
L 369.901699 161.60343 
L 369.841744 161.786979 
L 369.66511 162.01405 
L 369.404725 162.157549 
L 369.188517 162.224118 
L 368.993209 162.359785 
L 368.92453 162.465266 
L 368.857597 162.778584 
L 368.861272 162.942109 
L 368.888892 163.088036 
L 368.999223 163.268017 
L 369.556449 163.557295 
L 369.850394 163.766373 
L 370.018601 163.999193 
L 370.084496 164.127623 
L 370.117239 164.220811 
L 370.123661 164.316774 
L 370.096115 164.408673 
L 369.988754 164.574378 
L 369.748415 164.747965 
L 369.445858 164.784348 
L 368.90608 164.660824 
L 368.65182 164.767098 
L 368.437134 164.943163 
L 368.347815 165.095386 
L 368.301633 165.22565 
L 368.290089 165.499867 
L 368.289568 165.512252 
L 368.317151 165.754093 
L 368.423436 165.925697 
L 368.540078 166.083273 
L 368.669825 166.215719 
L 369.102167 166.58837 
L 369.17285 166.704755 
L 369.266328 166.999485 
L 369.280026 167.265714 
L 369.180461 167.648973 
L 369.070092 167.85349 
L 368.570965 168.425107 
L 368.493488 168.544119 
L 368.429747 168.753196 
L 368.423992 168.944578 
L 368.444299 169.117867 
L 368.508449 169.327985 
L 368.582585 169.50063 
L 368.747636 169.768594 
L 368.930359 169.952094 
L 369.040579 170.030857 
L 369.516244 170.232103 
L 369.624348 170.320036 
L 369.711737 170.439346 
L 369.77017 170.584679 
L 369.795822 170.739231 
L 369.794857 170.888679 
L 369.749269 171.039613 
L 369.660915 171.208044 
L 369.399787 171.542379 
L 369.333225 171.681913 
L 369.250142 172.048269 
L 369.237705 172.231075 
L 369.315517 172.624 
L 369.47797 172.995114 
L 369.533432 173.053753 
L 369.820287 173.172517 
L 370.095856 173.328507 
L 370.301632 173.562071 
L 370.446006 173.769166 
L 370.657722 174.000747 
L 370.815312 174.13116 
L 371.022165 174.209874 
L 371.297511 174.219539 
L 371.394032 174.174234 
L 371.449643 174.121841 
L 371.534953 173.933186 
L 371.672756 173.217475 
L 371.752721 172.606601 
L 371.795413 172.533984 
L 371.94788 172.371253 
L 372.077664 172.302899 
L 372.196905 172.285947 
L 372.436204 172.313308 
L 372.619929 172.389097 
L 372.765379 172.530762 
L 372.825965 172.653046 
L 373.035268 173.409799 
L 373.080596 173.713253 
L 373.083232 173.867707 
L 373.074545 173.975368 
L 373.033338 174.08645 
L 372.950496 174.225327 
L 372.886328 174.332901 
L 372.536215 174.687708 
L 372.215021 174.934159 
L 372.094815 175.100856 
L 372.072801 175.163609 
L 372.08301 175.233648 
L 372.200061 175.484511 
L 372.372017 175.749402 
L 372.480567 175.857112 
L 372.633702 175.941229 
L 373.141924 176.038779 
L 373.440992 176.068321 
L 373.79415 176.190258 
L 374.089951 176.379012 
L 374.206964 176.41371 
L 374.404165 176.413512 
L 374.795894 176.24736 
L 374.962802 176.242602 
L 375.154657 176.295738 
L 375.298696 176.364737 
L 375.566284 176.583629 
L 375.684485 176.762866 
L 375.767939 176.971051 
L 375.783383 177.151676 
L 375.756951 177.331112 
L 375.710323 177.442144 
L 375.633403 177.557141 
L 375.380962 177.847014 
L 375.325723 177.945158 
L 375.28949 178.068285 
L 375.321862 178.430477 
L 375.411255 178.775866 
L 375.417492 178.965414 
L 375.378252 179.220787 
L 375.151353 179.706156 
L 375.129079 179.869333 
L 375.149841 179.974197 
L 375.214463 180.300573 
L 375.433492 180.771418 
L 375.452054 181.009344 
L 375.370382 181.27701 
L 375.203326 181.480239 
L 374.999146 181.633899 
L 374.583324 181.83217 
L 374.48309 181.916436 
L 374.412555 182.045312 
L 374.416268 182.228713 
L 374.549913 182.506293 
L 374.780079 182.793787 
L 375.062219 183.05149 
L 375.567138 183.383595 
L 375.700783 183.438119 
L 376.008909 183.48273 
L 376.547202 183.433163 
L 376.940712 183.537255 
L 377.148642 183.656218 
L 377.330548 183.864403 
L 377.46048 184.132069 
L 377.579276 184.692186 
L 377.531928 184.976674 
L 377.527303 185.004464 
L 377.378771 185.222562 
L 377.174591 185.405963 
L 376.886437 185.559078 
L 376.555406 185.283828 
L 376.361583 184.806192 
L 376.361583 184.503828 
L 376.302186 184.43939 
L 375.767568 184.429476 
L 375.500278 184.56331 
L 375.422318 184.865674 
L 375.422318 184.957275 
L 375.422318 185.222562 
L 375.455729 185.405914 
L 375.593644 185.744264 
L 375.612351 185.82502 
L 375.70817 186.238654 
L 375.730444 186.541018 
L 375.886506 186.9725 
L 376.097968 187.557159 
L 376.11653 187.75543 
L 376.11653 187.864479 
L 376.05342 188.102405 
L 375.960611 188.300676 
L 375.596799 188.885577 
L 375.500278 189.331688 
L 375.556 189.653879 
L 375.658881 189.88446 
L 375.659947 189.886848 
L 375.841852 190.09999 
L 375.97921 190.179298 
L 376.161116 190.213996 
L 377.828004 190.020681 
L 378.125031 190.080162 
L 378.370047 190.194168 
L 378.596501 190.402353 
L 378.700447 190.679933 
L 378.699859 190.685039 
L 378.678173 190.873248 
L 378.518541 191.091347 
L 378.273525 191.155785 
L 377.817498 191.036624 
L 377.733153 190.990427 
L 377.647918 190.985668 
L 377.563573 191.020762 
L 377.401082 191.168276 
L 377.228585 191.41002 
L 377.215464 191.428408 
L 377.133792 191.676247 
L 377.137505 191.874519 
L 377.185802 192.216537 
L 377.304598 192.508987 
L 377.683259 193.173197 
L 377.787205 193.510258 
L 377.803466 194.334671 
L 377.884469 194.706479 
L 377.909751 194.97246 
L 377.863272 195.214946 
L 377.802983 195.370589 
L 377.611128 195.62517 
L 377.33374 195.904931 
L 377.212272 196.122236 
L 377.173663 196.359765 
L 377.194452 196.518382 
L 377.282361 196.712292 
L 377.641718 197.113792 
L 377.939635 197.399897 
L 377.988638 197.476232 
L 378.018634 197.584884 
L 378.039126 197.787914 
L 378.008834 198.095037 
L 377.787577 198.49158 
L 377.694916 198.724549 
L 377.653635 198.888321 
L 377.664326 199.059231 
L 377.735307 199.27495 
L 377.876154 199.486059 
L 378.001483 199.590053 
L 378.282472 199.763739 
L 378.586737 199.873482 
L 378.788801 200.024168 
L 378.988192 200.213716 
L 379.108473 200.428245 
L 379.153875 200.559303 
L 379.181532 200.723372 
L 379.125847 201.14574 
L 378.824329 201.801969 
L 378.738053 202.331155 
L 378.757803 202.68616 
L 378.830899 203.086074 
L 378.880497 203.238247 
L 379.006606 203.456296 
L 379.093549 203.567278 
L 379.538662 203.973041 
L 379.702266 204.165463 
L 379.733607 204.227071 
L 379.82908 204.41474 
L 379.870324 204.536677 
L 379.881498 204.745804 
L 379.835651 204.971189 
L 379.784643 205.092233 
L 379.641717 205.309985 
L 379.505956 205.429295 
L 379.305525 205.550191 
L 378.795224 205.689427 
L 378.654674 205.784845 
L 378.597058 205.835305 
L 378.490698 206.008941 
L 378.459255 206.079179 
L 378.42937 206.241117 
L 378.433083 206.362757 
L 378.485278 206.582491 
L 378.699667 207.007288 
L 378.852728 207.515705 
L 378.848385 207.723047 
L 378.800198 207.970341 
L 378.6027 208.391123 
L 378.568138 208.509045 
L 378.549948 208.706474 
L 378.609234 209.080265 
L 378.903625 209.732231 
L 378.951588 209.873598 
L 378.963015 210.071569 
L 378.965213 210.109641 
L 378.925268 210.30122 
L 378.863234 210.433765 
L 378.789878 210.52953 
L 378.643425 210.700638 
L 378.502504 210.823269 
L 378.273971 210.971378 
L 377.942865 211.108185 
L 377.635221 211.268091 
L 377.510746 211.368664 
L 377.299438 211.593454 
L 377.128075 211.853685 
L 377.014959 212.137709 
L 376.940452 212.425649 
L 376.932656 212.645582 
L 377.064742 213.179031 
L 377.145338 213.353212 
L 377.374131 213.51639 
L 377.43854 213.524667 
L 377.616697 213.605959 
L 378.02888 213.825297 
L 378.279948 214.112443 
L 378.383411 214.316415 
L 378.453835 214.512208 
L 378.524258 215.086798 
L 378.569066 215.222515 
L 378.644279 215.340041 
L 379.03868 215.65212 
L 379.088711 215.680675 
L 379.382594 215.848409 
L 379.707908 215.931187 
L 380.073316 215.965091 
L 380.400673 216.08911 
L 380.623563 216.237615 
L 380.731853 216.343443 
L 380.904812 216.540772 
L 381.114857 216.828712 
L 381.241783 217.074916 
L 381.297728 217.228725 
L 381.330508 217.432349 
L 381.343836 217.970656 
L 381.386788 218.12734 
L 381.464859 218.250467 
L 381.554364 218.334236 
L 381.79073 218.499347 
L 382.042206 218.732415 
L 382.101084 218.842208 
L 382.140398 219.015051 
L 382.131785 219.183086 
L 382.087422 219.327477 
L 381.972525 219.536257 
L 381.759175 219.727936 
L 381.50859 219.914559 
L 381.4016 220.009333 
L 381.215165 220.261683 
L 381.172287 220.491231 
L 381.280985 220.860066 
L 381.531422 221.316685 
L 381.575858 221.467768 
L 381.593195 221.620238 
L 381.583617 221.744108 
L 381.543821 221.871845 
L 381.405869 222.138222 
L 381.373609 222.321177 
L 381.395438 222.447575 
L 381.461258 222.573626 
L 381.612091 222.731847 
L 381.825441 222.849868 
L 382.138393 222.934877 
L 382.562716 222.951978 
L 382.788094 222.877329 
L 383.009536 222.761489 
L 383.112369 222.744388 
L 383.415038 222.789494 
L 383.575301 222.958521 
L 383.626643 223.0699 
L 384.049147 222.726593 
L 384.129334 222.496251 
L 384.046511 222.304869 
L 384.069082 221.900792 
L 384.135608 221.624055 
L 384.162856 221.315644 
L 384.424133 221.131152 
L 384.735637 221.037172 
L 384.994166 221.0339 
L 385.226857 221.328333 
L 385.352669 221.661776 
L 385.584655 221.827828 
L 385.675162 222.06159 
L 385.71778 222.248907 
L 385.591114 222.970467 
L 385.36789 223.280167 
L 385.134234 223.396602 
L 384.23948 223.735001 
L 384.108767 223.817284 
L 383.946723 223.876666 
L 384.096108 224.185177 
L 384.141362 224.455272 
L 384.12202 224.80299 
L 384.086419 225.024757 
L 384.066001 225.186546 
L 384.080516 225.332871 
L 384.144146 225.5532 
L 384.2005 225.655111 
L 384.526074 225.954005 
L 384.792956 226.113019 
L 384.994612 226.284673 
L 385.229567 226.55794 
L 385.497711 227.01902 
L 385.592748 227.373133 
L 385.56832 227.669103 
L 385.493256 227.878626 
L 385.403751 228.161014 
L 385.376205 228.304464 
L 385.462666 228.664177 
L 385.82336 229.285808 
L 386.026946 229.746789 
L 386.093286 230.17337 
L 386.073536 230.334069 
L 386.083374 230.590434 
L 386.134864 230.760452 
L 386.284695 231.010224 
L 386.489246 231.210974 
L 386.650994 231.434525 
L 386.736713 231.612275 
L 386.777066 231.743481 
L 386.815081 232.026563 
L 386.797336 232.149938 
L 386.722272 232.352125 
L 386.546602 232.515402 
L 386.402897 232.599518 
L 385.878563 232.784952 
L 385.66332 232.932366 
L 385.556292 233.086869 
L 385.513526 233.26913 
L 385.503837 233.422196 
L 385.529712 233.513599 
L 385.642345 233.659824 
L 385.745808 233.720396 
L 385.975158 233.769518 
L 386.089017 233.753061 
L 386.309976 233.671274 
L 386.796185 233.433646 
L 386.992272 233.37124 
L 387.157546 233.346208 
L 387.270402 233.359245 
L 387.468234 233.429185 
L 387.707793 233.565497 
L 388.023047 233.89314 
L 388.12677 233.96997 
L 388.334069 234.072526 
L 388.840695 234.094881 
L 389.062806 234.182616 
L 389.189954 234.261181 
L 389.391907 234.489987 
L 389.453977 234.61351 
L 389.478256 234.748285 
L 389.458878 234.990473 
L 389.281167 235.501022 
L 389.279311 235.652055 
L 389.33528 235.813357 
L 389.353595 235.866139 
L 389.422311 235.940045 
L 389.619549 236.080718 
L 390.556364 236.556371 
L 390.796554 236.604204 
L 391.360648 236.54849 
L 391.729174 236.581354 
L 391.890253 236.637911 
L 392.009643 236.71484 
L 392.205545 236.890954 
L 392.389418 237.220184 
L 392.471053 237.480861 
L 392.494478 237.625153 
L 392.481744 237.942437 
L 392.432296 238.149334 
L 392.355227 238.340219 
L 392.18895 238.580078 
L 392.026683 238.975431 
L 392.010423 239.140046 
L 392.018478 239.391008 
L 392.074906 239.577334 
L 392.142731 239.719693 
L 392.250093 239.901309 
L 392.444881 240.153015 
L 392.827551 240.536521 
L 393.043871 240.6652 
L 393.493104 240.829567 
L 393.571954 240.878094 
L 393.733294 241.054654 
L 393.79013 241.188636 
L 393.827068 241.341404 
L 393.843699 241.679507 
L 393.888582 241.931757 
L 393.931014 242.061328 
L 394.015396 242.201803 
L 394.16274 242.341188 
L 394.37041 242.449196 
L 394.730694 242.475666 
L 394.919505 242.526919 
L 395.13215 242.655746 
L 395.254583 242.834586 
L 395.329647 243.012981 
L 395.348469 243.177794 
L 395.340228 243.411358 
L 395.297387 243.5557 
L 395.188615 243.708369 
L 395.077504 243.804778 
L 394.800858 244.062927 
L 394.687557 244.385069 
L 394.73953 244.750136 
L 394.768783 244.998372 
L 394.716773 245.238181 
L 394.535684 245.461237 
L 394.401631 245.625356 
L 394.31632 245.819166 
L 394.279308 245.99994 
L 394.365435 246.520898 
L 394.458096 246.778998 
L 394.578228 247.017469 
L 394.813146 247.280773 
L 394.983729 247.406924 
L 395.23643 247.532281 
L 395.397212 247.580857 
L 395.558032 247.595133 
L 395.715362 247.578181 
L 396.419746 247.360776 
L 396.683584 247.359586 
L 396.984248 247.469875 
L 397.066068 247.520682 
L 397.449593 247.97512 
L 397.736967 248.14598 
L 398.126245 248.266975 
L 398.228113 248.32378 
L 398.341711 248.456374 
L 398.380617 248.535138 
L 398.480628 248.813312 
L 398.487273 248.922163 
L 397.313943 248.922114 
L 396.001214 248.922064 
L 380.80584 248.899114 
L 380.677801 248.89966 
L 380.674556 248.899659 
L 377.169617 248.898767 
L 374.362513 248.896239 
L 372.412074 248.89044 
L 371.914171 248.886425 
L 370.889522 248.886028 
L 369.786801 248.892175 
L 369.475482 248.896339 
L 368.138771 248.898916 
L 368.13324 248.900651 
L 367.345105 248.898321 
L 367.082307 248.899759 
L 367.077889 248.897528 
L 364.634931 248.886375 
L 364.498761 248.885929 
L 363.929545 248.887813 
L 363.928213 248.887815 
L 361.631814 248.890737 
L 361.50229 248.890886 
L 355.596476 248.874132 
L 355.593767 248.874069 
L 355.451842 248.870762 
L 355.362411 248.874182 
L 353.240201 248.87096 
L 352.799692 248.879882 
L 352.098575 248.874083 
L 351.616302 248.867986 
L 351.245139 248.874182 
L 351.210392 248.874326 
L 350.352984 248.877899 
L 350.150103 248.878395 
L 349.702689 248.864665 
L 342.895439 248.854108 
L 340.369398 248.850191 
L 340.323179 248.85029 
L 340.204532 248.849398 
L 340.122637 248.85029 
L 338.799773 248.847415 
L 338.788117 248.847422 
L 335.344602 248.849546 
L 334.541321 248.855544 
L 333.841169 248.856486 
L 330.566752 248.832148 
L 330.396652 248.84796 
L 328.93669 248.845234 
L 328.253059 248.845284 
L 328.174357 248.850587 
L 326.586578 248.849348 
L 326.583274 248.847068 
L 322.681469 248.824118 
L 322.658303 248.826398 
L 321.982393 248.819954 
L 321.978848 248.81996 
L 321.978825 248.81996 
L 320.247606 248.822879 
L 320.173618 248.821739 
L 319.890847 248.820549 
L 319.177368 248.82501 
L 318.486015 248.820599 
L 316.741983 248.831107 
L 316.700516 248.827935 
L 316.554732 248.827836 
L 307.183314 248.823226 
L 307.129188 248.823176 
L 307.07083 248.824069 
L 306.834018 248.814651 
L 305.264764 248.82501 
L 305.18792 248.822837 
L 305.184132 248.82273 
L 304.56116 248.82739 
L 303.853175 248.819707 
L 303.154842 248.817873 
L 301.092624 248.82045 
L 301.092084 248.820449 
L 299.593757 248.817278 
L 298.184136 248.815345 
L 298.026174 248.811875 
L 296.798978 248.813709 
L 296.702902 248.809149 
L 296.010769 248.805332 
L 295.738542 248.808009 
L 294.861496 248.811677 
L 293.288493 248.800524 
L 292.738577 248.800864 
L 292.165948 248.801218 
L 291.904375 248.798987 
L 291.378407 248.792494 
L 289.279993 248.807711 
L 288.603972 248.79864 
L 288.388766 248.797352 
L 280.35083 248.806918 
L 279.833995 248.806642 
L 279.143569 248.806274 
L 278.396159 248.808802 
L 277.750505 248.809347 
L 277.206977 248.799136 
L 276.534186 248.799334 
L 275.776381 248.803101 
L 274.775713 248.798492 
L 274.338248 248.810784 
L 274.28854 248.809595 
L 273.698608 248.802606 
L 273.58371 248.804886 
L 272.935234 248.795765 
L 272.892319 248.797897 
L 272.830954 248.80444 
L 272.188418 248.814006 
L 271.598486 248.811924 
L 271.595575 248.811915 
L 269.79257 248.806274 
L 269.708596 248.805134 
L 268.097913 248.807116 
L 267.583156 248.804935 
L 263.858319 248.812767 
L 262.88839 248.809496 
L 262.885048 248.807216 
L 262.48738 248.809644 
L 262.466368 248.810784 
L 261.729538 248.813412 
L 260.743311 248.806422 
L 260.68254 248.809843 
L 258.949461 248.814488 
L 258.259888 248.816336 
L 257.223656 248.813362 
L 256.870128 248.81475 
L 255.133373 248.826646 
L 254.793728 248.824069 
L 254.787454 248.824069 
L 254.496851 248.824069 
L 254.424719 248.821788 
L 254.102226 248.821293 
L 253.404896 248.822135 
L 252.142915 248.82506 
L 252.007711 248.819261 
L 250.932796 248.828926 
L 250.795846 248.822086 
L 250.645607 248.825456 
L 246.462293 248.824465 
L 246.118676 248.829471 
L 245.713286 248.809545 
L 243.591187 248.825803 
L 243.118344 248.826051 
L 242.96261 248.827291 
L 242.912901 248.82506 
L 242.809215 248.82164 
L 238.223257 248.829578 
L 238.198905 248.82962 
L 238.114465 248.829573 
L 238.11107 248.829571 
L 234.721942 248.832446 
L 234.264578 248.831504 
L 233.720012 248.831851 
L 233.341091 248.855544 
L 233.067155 248.845185 
L 232.773619 248.832644 
L 232.642981 248.840426 
L 231.241155 248.852669 
L 227.779116 248.847118 
L 226.896501 248.846919 
L 226.377364 248.843549 
L 226.23815 248.832198 
L 224.810969 248.845234 
L 224.650781 248.847564 
L 217.713528 248.843103 
L 217.712484 248.843103 
L 217.327957 248.84568 
L 217.248438 248.84345 
L 217.127155 248.844094 
L 217.002086 248.84801 
L 216.317266 248.841318 
L 215.794825 248.838146 
L 215.714155 248.841616 
L 209.832731 248.832396 
L 208.013636 248.834131 
L 207.716981 248.83309 
L 206.911361 248.836609 
L 206.648488 248.834428 
L 206.605276 248.835221 
L 206.228806 248.834478 
L 205.341328 248.830859 
L 203.825904 248.828431 
L 203.255982 248.828431 
L 202.234376 248.824069 
L 202.004655 248.827588 
L 200.352653 248.828728 
L 199.80378 248.814899 
L 198.942326 248.81133 
L 197.543025 248.819508 
L 197.217228 248.817427 
L 197.091304 248.809545 
L 196.886016 248.811606 
L 196.39015 248.816584 
L 196.143389 248.807959 
L 189.513219 248.815741 
L 186.162476 248.810239 
L 184.951094 248.807711 
L 182.330537 248.801763 
L 180.927375 248.795815 
L 180.552389 248.799731 
L 180.054412 248.798591 
L 179.207473 248.795418 
L 177.958634 248.796013 
L 176.552316 248.79522 
L 176.276265 248.79522 
L 175.160885 248.788429 
L 175.10602 248.788881 
L 174.462107 248.794179 
L 173.293937 248.797104 
L 171.971334 248.805382 
L 171.930885 248.80486 
L 171.701964 248.801912 
L 167.059134 248.792742 
L 163.957973 248.787686 
L 163.911123 248.792196 
L 157.310874 248.785654 
L 157.206 248.783373 
L 156.297436 248.776682 
L 155.968372 248.784067 
L 153.623977 248.765331 
L 153.159189 248.766322 
L 148.145716 248.769494 
L 148.136175 241.568227 
L 148.13959 240.858663 
L 148.140147 237.561459 
L 148.139108 237.256567 
L 148.161864 232.149244 
L 148.152797 231.612276 
L 148.143711 231.074216 
L 148.152101 229.437932 
L 148.142152 229.273565 
L 148.156073 227.111811 
L 148.154068 223.14212 
L 148.146421 222.262539 
L 148.158544 214.346412 
L 148.162496 211.766446 
L 148.150542 199.236386 
L 148.146699 199.236374 
L 147.445787 199.234106 
L 145.427226 199.238319 
L 142.96823 199.238914 
L 142.294399 199.233164 
L 142.189005 199.232173 
L 141.456518 199.238865 
L 140.124485 199.236089 
L 139.965299 199.242929 
L 139.25052 199.244813 
L 139.206009 199.244813 
L 139.203448 199.243673 
L 139.195614 199.244813 
L 136.551186 199.246448 
L 135.974767 199.240153 
L 132.647376 199.234057 
L 132.598595 199.236138 
L 131.951976 199.233016 
L 129.396607 199.244218 
L 129.052879 199.24516 
L 128.702135 199.24516 
L 128.693151 199.241789 
L 128.583339 199.240649 
L 127.011636 199.225481 
L 125.807716 199.238617 
L 122.609106 199.243673 
L 122.052512 199.237179 
L 121.603093 199.241442 
L 121.349798 199.234552 
L 119.354997 199.247985 
L 119.242772 199.237675 
L 118.643151 199.242384 
L 118.538908 199.240153 
L 117.925588 199.255668 
L 117.84993 199.246002 
L 117.184526 199.24858 
L 117.122863 199.24625 
L 116.47732 199.244813 
L 116.412317 199.241393 
L 115.763322 199.248035 
L 115.706188 199.241194 
L 115.055002 199.252545 
L 114.991113 199.240054 
L 114.441906 199.250364 
L 114.401738 199.252149 
L 114.334321 199.251504 
L 114.29174 199.245854 
L 113.63042 199.249522 
L 113.585612 199.247291 
L 112.939215 199.235246 
L 112.867789 199.230983 
L 111.506168 199.242632 
L 111.330202 199.238022 
L 110.789905 199.236832 
L 110.732734 199.236832 
L 110.101707 199.242533 
L 110.054634 199.240302 
L 99.4679 199.262806 
L 99.381216 199.262707 
L 98.74349 199.243568 
L 98.205251 199.227414 
L 97.27961 199.25661 
L 97.277754 199.254726 
L 94.875037 199.259336 
L 94.475958 199.273166 
L 91.642422 199.268944 
L 91.614654 199.268903 
L 85.081784 199.252397 
L 81.07425 199.270885 
L 80.349671 199.271282 
L 79.672536 199.267465 
L 79.296956 199.285458 
L 77.544683 199.275099 
L 76.8821 199.278668 
L 76.83499 199.274157 
L 75.142858 199.274058 
L 74.9513 199.260674 
L 74.362704 199.279758 
L 73.842565 199.284517 
L 73.845943 198.521023 
L 73.848208 198.459757 
L 73.845238 194.906733 
L 73.850881 194.87952 
L 73.848728 194.150328 
L 73.846537 193.680821 
L 73.832727 191.559317 
" clip-path="url(#p603212ab59)" style="fill: #ff5733"/>
   </g>
   <g id="text_1">
    <!-- NE -->
    <g transform="translate(227.88 86.69442) scale(0.12 -0.12)">
     <defs>
      <path id="DejaVuSans-4e" d="M 628 4666 
L 1478 4666 
L 3547 763 
L 3547 4666 
L 4159 4666 
L 4159 0 
L 3309 0 
L 1241 3903 
L 1241 0 
L 628 0 
L 628 4666 
z
" transform="scale(0.015625)"/>
      <path id="DejaVuSans-45" d="M 628 4666 
L 3578 4666 
L 3578 4134 
L 1259 4134 
L 1259 2753 
L 3481 2753 
L 3481 2222 
L 1259 2222 
L 1259 531 
L 3634 531 
L 3634 0 
L 628 0 
L 628 4666 
z
" transform="scale(0.015625)"/>
     </defs>
     <use xlink:href="#DejaVuSans-4e"/>
     <use xlink:href="#DejaVuSans-45" x="74.804688"/>
    </g>
   </g>
  </g>
 </g>
 <defs>
  <clipPath id="p603212ab59">
   <rect x="57.6" y="92.69442" width="357.12" height="163.667159"/>
  </clipPath>
 </defs>
</svg>
