<?xml version="1.0" encoding="utf-8" standalone="no"?>
<!DOCTYPE svg PUBLIC "-//W3C//DTD SVG 1.1//EN"
  "http://www.w3.org/Graphics/SVG/1.1/DTD/svg11.dtd">
<svg xmlns:xlink="http://www.w3.org/1999/xlink" width="360pt" height="360pt" viewBox="0 0 360 360" xmlns="http://www.w3.org/2000/svg" version="1.1">
 <metadata>
  <rdf:RDF xmlns:dc="http://purl.org/dc/elements/1.1/" xmlns:cc="http://creativecommons.org/ns#" xmlns:rdf="http://www.w3.org/1999/02/22-rdf-syntax-ns#">
   <cc:Work>
    <dc:type rdf:resource="http://purl.org/dc/dcmitype/StillImage"/>
    <dc:date>2023-06-19T15:20:25.412662</dc:date>
    <dc:format>image/svg+xml</dc:format>
    <dc:creator>
     <cc:Agent>
      <dc:title>Matplotlib v3.7.1, https://matplotlib.org/</dc:title>
     </cc:Agent>
    </dc:creator>
   </cc:Work>
  </rdf:RDF>
 </metadata>
 <defs>
  <style type="text/css">*{stroke-linejoin: round; stroke-linecap: butt}</style>
 </defs>
 <g id="figure_1">
  <g id="patch_1">
   <path d="M 0 360 
L 360 360 
L 360 0 
L 0 0 
z
" style="fill: #ffffff"/>
  </g>
  <g id="axes_1">
   <g id="PatchCollection_1">
    <path d="M 57.681818 191.765261 
L 57.706413 188.3431 
L 57.709081 188.26282 
L 57.71259 188.257512 
L 57.709255 187.155404 
L 57.711923 187.01738 
L 57.716332 187.012072 
L 57.705804 186.73872 
L 57.717387 184.921837 
L 57.717405 184.91914 
L 57.721088 184.502804 
L 57.715868 184.206888 
L 57.711865 181.367829 
L 57.711923 181.176729 
L 57.705833 180.690409 
L 57.705659 180.631156 
L 57.708791 180.29774 
L 57.710328 180.295623 
L 57.710067 179.960611 
L 57.700815 179.149111 
L 57.704411 178.527812 
L 57.697451 178.259391 
L 57.698321 177.817504 
L 57.699249 177.613817 
L 57.70166 176.083504 
L 57.70328 175.055447 
L 57.695972 170.645187 
L 57.698727 170.045438 
L 57.696987 169.789342 
L 57.70444 168.106191 
L 57.700902 168.020604 
L 57.701656 167.479933 
L 57.703657 167.469289 
L 57.705455 167.361804 
L 57.705305 167.273494 
L 57.704585 166.850049 
L 57.700206 166.692187 
L 57.697683 165.147988 
L 57.697685 165.145668 
L 57.69806 164.739831 
L 57.708327 163.699035 
L 57.704324 163.443636 
L 57.696697 163.342561 
L 57.709864 162.485614 
L 57.703657 162.384771 
L 57.6931 160.073709 
L 57.702729 160.073709 
L 57.703222 159.834203 
L 57.693622 152.82294 
L 57.703251 149.608004 
L 57.703251 149.585469 
L 57.703301 149.580353 
L 57.708733 149.024931 
L 57.704237 148.936037 
L 57.70882 148.469671 
L 57.702265 145.572171 
L 57.700699 145.438671 
L 57.693042 138.303507 
L 59.492669 138.27143 
L 60.212142 138.270937 
L 61.411381 138.293849 
L 64.582784 138.283379 
L 64.630174 138.280508 
L 67.497251 138.291964 
L 69.300212 138.279609 
L 70.303276 138.300781 
L 71.503065 138.298838 
L 71.52154 138.297069 
L 73.545155 138.298113 
L 73.556902 138.298113 
L 73.583932 138.298142 
L 73.587384 138.298143 
L 76.502778 138.299099 
L 78.35171 138.294981 
L 84.380647 138.297736 
L 84.415885 138.297765 
L 88.219038 138.306757 
L 94.266092 138.321054 
L 103.105637 138.333264 
L 104.462448 138.331814 
L 114.845495 138.339152 
L 114.847234 138.339152 
L 121.590512 138.339935 
L 125.546761 138.418504 
L 128.103333 138.429583 
L 131.728688 138.404147 
L 139.562327 138.381409 
L 139.594868 138.382714 
L 139.629517 138.382095 
L 139.663025 138.381496 
L 139.673437 138.381351 
L 144.991021 138.37964 
L 146.229965 138.392111 
L 147.280999 138.381786 
L 147.44994 138.384396 
L 148.947966 138.38109 
L 149.493684 138.381931 
L 150.086067 138.370765 
L 156.923342 138.375811 
L 157.106466 138.361542 
L 159.202879 138.357569 
L 159.467182 138.355423 
L 159.748016 138.348984 
L 161.534388 138.341124 
L 164.937466 138.356438 
L 165.107365 138.357018 
L 167.016767 138.356235 
L 167.188464 138.358932 
L 169.4901 138.36276 
L 169.490718 138.362759 
L 169.490737 138.362759 
L 171.564906 138.357859 
L 171.578508 138.357888 
L 171.785298 138.358497 
L 174.247872 138.366154 
L 174.438537 138.366183 
L 175.107284 138.367111 
L 176.370445 138.368764 
L 176.668681 138.37004 
L 176.683473 138.370185 
L 177.343751 138.375202 
L 177.611854 138.376827 
L 178.792385 138.375753 
L 179.018956 138.375753 
L 179.307244 138.379582 
L 179.594604 138.37352 
L 180.411585 138.378625 
L 180.773976 138.373317 
L 180.949298 138.376624 
L 181.036944 138.379292 
L 181.38669 138.378016 
L 181.958713 138.374854 
L 182.694979 138.381032 
L 183.169176 138.381612 
L 183.389916 138.381409 
L 183.904166 138.378654 
L 183.96832 138.38196 
L 187.737442 138.378625 
L 188.720697 138.377378 
L 188.759147 138.377303 
L 189.912366 138.375057 
L 190.013557 138.374332 
L 190.485346 138.376131 
L 190.577517 138.379437 
L 192.775497 138.373549 
L 193.393258 138.377117 
L 193.48453 138.375782 
L 193.556834 138.374419 
L 194.1759 138.372186 
L 195.89397 138.374071 
L 196.628757 138.371693 
L 196.868197 138.374425 
L 196.872758 138.374477 
L 197.448029 138.37033 
L 198.586768 138.375376 
L 199.567383 138.364993 
L 199.864517 138.368503 
L 200.215394 138.363746 
L 200.304839 138.36975 
L 201.873341 138.370127 
L 201.927548 138.368126 
L 203.601331 138.371606 
L 203.612671 138.367894 
L 204.237363 138.370562 
L 205.347853 138.370185 
L 206.590538 138.37149 
L 206.59338 138.371461 
L 207.056904 138.369605 
L 207.150003 138.374941 
L 209.352914 138.369489 
L 210.010843 138.37149 
L 211.081802 138.369112 
L 211.719401 138.368532 
L 213.946268 138.362934 
L 214.001402 138.365602 
L 216.750176 138.362905 
L 216.862243 138.366879 
L 218.79157 138.362238 
L 218.872865 138.66758 
L 219.025536 138.960045 
L 219.360925 139.377947 
L 219.696285 139.841499 
L 219.861108 139.932249 
L 219.952699 139.962789 
L 220.135272 140.107368 
L 220.248702 140.164243 
L 220.285304 140.202266 
L 220.319701 140.332691 
L 220.36947 140.372657 
L 220.49714 140.403023 
L 220.568429 140.397281 
L 220.649115 140.373092 
L 220.752626 140.307053 
L 220.887403 140.289767 
L 221.048281 140.294872 
L 221.422882 140.473935 
L 221.67016 140.56921 
L 222.042934 140.686903 
L 222.364488 140.839893 
L 222.866557 141.002773 
L 223.209283 141.141088 
L 223.320132 141.196193 
L 223.448267 141.285725 
L 223.510449 141.346805 
L 223.578576 141.466355 
L 223.609725 141.496256 
L 223.689773 141.556002 
L 223.799955 141.612297 
L 223.984152 141.669142 
L 224.266753 141.726578 
L 224.623607 141.799104 
L 225.129939 141.945946 
L 225.467648 141.970424 
L 225.760199 141.963521 
L 225.947732 142.00894 
L 226.005447 142.037391 
L 226.092166 142.137335 
L 226.52454 142.347809 
L 226.681446 142.446361 
L 226.747601 142.510776 
L 226.875359 142.579339 
L 227.319682 142.762405 
L 227.747213 142.913712 
L 228.288174 143.044631 
L 228.392294 143.050113 
L 228.515876 143.04379 
L 228.81121 142.988034 
L 228.956777 142.960552 
L 228.989463 142.966063 
L 229.251098 143.171838 
L 229.508469 143.50537 
L 229.553394 143.537303 
L 230.12768 143.812656 
L 230.21434 143.875244 
L 230.508023 144.141084 
L 230.703937 144.243174 
L 230.850024 144.285141 
L 231.296494 144.563075 
L 231.426282 144.668645 
L 231.474398 144.760439 
L 231.515466 144.910732 
L 231.608652 144.968477 
L 231.753695 145.026831 
L 231.954859 145.048293 
L 232.032499 145.068972 
L 232.174526 145.115144 
L 232.234852 145.1592 
L 232.751277 145.211231 
L 232.872567 145.214479 
L 233.08449 145.160302 
L 233.177503 145.186491 
L 233.240845 145.186723 
L 233.468256 145.132923 
L 233.900949 144.993361 
L 234.35177 145.0286 
L 234.599802 145.018971 
L 234.696817 145.002178 
L 235.086354 144.824246 
L 235.19523 144.753218 
L 235.529575 144.458868 
L 235.688714 144.413943 
L 235.89069 144.268696 
L 236.006179 144.153758 
L 236.313928 143.782232 
L 236.434261 143.682723 
L 236.482957 143.620715 
L 236.590209 143.360269 
L 236.734817 143.094487 
L 236.760978 142.854402 
L 236.85167 142.736882 
L 236.857412 142.661997 
L 236.821565 142.593666 
L 236.818201 142.543462 
L 236.866287 142.41788 
L 237.146165 142.297924 
L 237.370589 142.233161 
L 237.738548 142.156564 
L 238.060421 142.125821 
L 238.225041 142.125734 
L 238.303117 142.162423 
L 238.556283 142.329218 
L 238.911182 142.414452 
L 239.012527 142.438791 
L 239.386141 142.573016 
L 239.792355 142.677455 
L 240.074437 142.697003 
L 240.391409 142.699555 
L 240.491701 142.685605 
L 241.358683 142.745177 
L 241.921918 142.850805 
L 242.343155 142.890307 
L 242.871355 142.873021 
L 243.174377 142.826762 
L 243.497091 142.740449 
L 243.825035 142.628882 
L 244.264014 142.47954 
L 244.509523 142.428234 
L 244.742966 142.429336 
L 244.873537 142.490242 
L 245.086534 142.559617 
L 245.590169 142.680965 
L 245.956271 142.7419 
L 246.375508 142.728094 
L 246.828126 142.667855 
L 247.289822 142.562082 
L 247.611783 142.425044 
L 247.74247 142.4615 
L 247.77881 142.520173 
L 247.8617 142.577192 
L 247.999174 142.623771 
L 248.189693 142.660228 
L 248.607102 142.657704 
L 248.864155 142.694799 
L 248.948089 142.719567 
L 249.017377 142.759736 
L 249.139363 142.78552 
L 249.426433 142.780415 
L 249.518227 142.754719 
L 249.725974 142.626178 
L 249.911824 142.4778 
L 249.92505 142.432468 
L 249.980068 142.346997 
L 250.157681 142.209233 
L 250.263368 142.167672 
L 250.411485 142.139162 
L 250.523813 142.1561 
L 250.672859 142.240643 
L 250.827647 142.25761 
L 251.328555 142.230202 
L 251.367941 142.294125 
L 251.562086 142.426726 
L 251.761017 142.522319 
L 251.825258 142.531223 
L 252.358562 142.500306 
L 252.504301 142.473623 
L 252.66112 142.427103 
L 252.726028 142.395345 
L 252.788761 142.343488 
L 252.843606 142.322924 
L 253.028963 142.2867 
L 253.231258 142.212047 
L 253.296166 142.168948 
L 253.359276 142.160335 
L 253.492747 142.216716 
L 253.847046 142.511414 
L 254.482585 142.595986 
L 254.807243 142.557412 
L 254.951909 142.513357 
L 255.044951 142.514691 
L 255.354933 142.579861 
L 255.527181 142.632182 
L 255.907234 142.79132 
L 255.948244 142.858868 
L 255.92336 143.26369 
L 255.936092 143.31575 
L 256.016459 143.454644 
L 256.04842 143.536839 
L 256.073739 143.743803 
L 256.115213 143.811176 
L 256.15953 143.851432 
L 256.316145 143.932379 
L 256.440712 143.961962 
L 256.812848 143.980814 
L 257.077122 144.027364 
L 257.262885 144.036209 
L 257.410945 144.060514 
L 257.501462 144.084586 
L 257.603132 144.128774 
L 257.881226 144.249641 
L 258.060115 144.407794 
L 258.245124 144.601678 
L 258.27958 144.67317 
L 258.277462 144.732075 
L 258.35403 144.860789 
L 258.444809 144.935182 
L 259.016426 145.00882 
L 259.316808 144.999916 
L 259.465796 145.01027 
L 259.775111 144.989359 
L 259.952232 144.95035 
L 260.169956 144.924277 
L 260.351427 144.927641 
L 260.740413 144.985705 
L 261.290046 145.109924 
L 261.378214 145.173498 
L 261.533061 145.21068 
L 261.794812 145.234779 
L 262.462022 145.296209 
L 262.770119 145.265089 
L 262.859361 145.278546 
L 262.96902 145.329852 
L 263.15635 145.447111 
L 263.378222 145.843145 
L 263.388779 145.887635 
L 263.376452 145.960722 
L 263.244721 146.235466 
L 263.249188 146.309829 
L 263.275377 146.370068 
L 263.311486 146.422621 
L 263.368187 146.445882 
L 263.533909 146.465111 
L 263.735769 146.456787 
L 263.96173 146.395765 
L 264.087544 146.341849 
L 264.276817 146.254463 
L 264.453473 146.141758 
L 264.559681 146.10971 
L 264.956933 146.041031 
L 265.535598 146.289817 
L 265.943262 146.322475 
L 266.301534 146.418155 
L 266.605484 146.585298 
L 266.795076 146.672597 
L 267.1972 146.776514 
L 267.490187 146.795859 
L 267.673021 146.835796 
L 267.873865 146.900849 
L 268.006437 147.056885 
L 268.040284 147.239835 
L 268.048752 147.475338 
L 267.991182 147.826533 
L 268.025753 147.898431 
L 268.090749 147.94237 
L 268.250467 148.006728 
L 268.687134 148.094635 
L 269.096712 148.12387 
L 269.468558 148.054988 
L 269.522706 148.015168 
L 269.59298 148.000956 
L 269.926194 147.973665 
L 270.141859 147.981843 
L 271.02311 148.206296 
L 271.207858 148.291652 
L 271.312268 148.380806 
L 271.329293 148.410766 
L 271.332193 148.477763 
L 271.308817 148.587713 
L 271.271258 148.643137 
L 271.169284 148.702332 
L 271.045935 148.831221 
L 270.743204 149.187347 
L 270.679542 149.285521 
L 270.626554 149.417687 
L 270.619768 149.493588 
L 270.635748 149.685876 
L 270.684908 149.812764 
L 270.768552 149.938636 
L 271.032565 150.199691 
L 271.368041 150.561298 
L 271.494986 150.66159 
L 271.652095 150.745292 
L 272.150886 150.895353 
L 272.458867 151.05629 
L 272.590714 151.151216 
L 272.751854 151.314908 
L 272.830248 151.4402 
L 272.888515 151.655663 
L 272.887877 151.894269 
L 272.901247 151.98119 
L 272.941503 152.116576 
L 273.037648 152.329921 
L 273.102063 152.428153 
L 273.521705 152.645327 
L 273.597286 152.670559 
L 273.754337 152.692543 
L 273.971162 152.687874 
L 274.112435 152.66499 
L 274.308871 152.594688 
L 274.652207 152.365478 
L 274.786026 152.303412 
L 275.079564 152.230818 
L 275.340125 152.225974 
L 275.652051 152.296045 
L 275.838249 152.381923 
L 275.921284 152.436941 
L 276.026014 152.525081 
L 276.155337 152.683813 
L 276.211342 152.797562 
L 276.246 152.911747 
L 276.294319 152.988082 
L 276.506156 153.207895 
L 276.589771 153.264972 
L 276.71689 153.322224 
L 277.05982 153.398704 
L 277.370295 153.412539 
L 277.463888 153.400909 
L 277.750842 153.311116 
L 277.923757 153.226863 
L 278.335626 153.093653 
L 278.962552 153.141507 
L 279.264064 153.170339 
L 279.382629 153.181676 
L 279.766036 153.282565 
L 279.768396 153.283186 
L 280.061324 153.561613 
L 280.078726 153.602246 
L 280.197638 153.932879 
L 280.232441 154.228708 
L 280.215039 154.376622 
L 280.110629 154.640548 
L 280.014891 154.779762 
L 279.313022 155.406223 
L 279.260788 155.493232 
L 279.205682 155.713653 
L 279.221025 155.912381 
L 279.390024 156.258994 
L 279.410819 156.41558 
L 279.249622 156.710249 
L 279.159742 156.840443 
L 279.135815 156.919998 
L 279.128564 157.036647 
L 279.139643 157.130297 
L 279.252493 157.363944 
L 279.423523 157.537526 
L 279.569726 157.631843 
L 279.763697 157.727524 
L 280.114631 157.872045 
L 280.371655 158.090581 
L 280.473658 158.211436 
L 280.526472 158.306972 
L 280.548427 158.380465 
L 280.568874 158.517416 
L 280.570411 158.858896 
L 280.647617 159.03213 
L 280.792399 159.206379 
L 280.919835 159.304231 
L 280.92033 159.304611 
L 281.353604 159.518217 
L 281.511582 159.643191 
L 281.647084 159.79911 
L 281.717445 159.935307 
L 281.752219 160.072839 
L 281.715994 160.307965 
L 281.685571 160.356139 
L 281.892535 160.54718 
L 281.893724 160.61029 
L 281.867737 160.655941 
L 281.626405 160.896723 
L 281.502302 160.973957 
L 281.422167 160.998174 
L 281.249049 161.015489 
L 280.914472 161.082428 
L 280.912613 161.08374 
L 280.869517 161.114157 
L 280.819372 161.216914 
L 280.842081 161.296556 
L 281.06169 161.508683 
L 281.129818 161.60242 
L 281.161721 161.675101 
L 281.18559 161.907878 
L 281.096262 162.177053 
L 281.114679 162.333581 
L 281.170828 162.485469 
L 281.326196 162.668622 
L 281.454244 162.764158 
L 281.80541 162.929764 
L 281.989404 163.070138 
L 282.063333 163.170952 
L 282.154982 163.369128 
L 282.263278 163.479774 
L 282.385119 163.557994 
L 282.526102 163.609736 
L 282.971383 163.680009 
L 283.158944 163.742047 
L 283.280785 163.820383 
L 283.35918 163.889497 
L 283.45776 164.028885 
L 283.503643 164.125319 
L 283.524641 164.328426 
L 283.49442 164.533911 
L 283.374319 164.750852 
L 283.30593 164.830987 
L 283.229856 164.962022 
L 283.16254 165.176353 
L 283.154913 165.284998 
L 283.180928 165.571575 
L 283.264949 165.815866 
L 283.341709 165.952027 
L 283.342416 165.953281 
L 283.38447 166.018538 
L 283.465388 166.096091 
L 283.603181 166.167322 
L 283.683054 166.192961 
L 283.829374 166.218889 
L 283.874183 166.179039 
L 284.097795 166.116335 
L 284.342579 166.131649 
L 284.52434 166.188001 
L 284.711959 166.301924 
L 284.76515 166.356189 
L 284.820865 166.466052 
L 284.825824 166.563298 
L 284.77127 166.666345 
L 284.647834 166.782386 
L 284.329035 166.966148 
L 284.239909 167.121313 
L 284.226916 167.239238 
L 284.236922 167.296896 
L 284.275263 167.34214 
L 284.397829 167.426916 
L 284.593541 167.485444 
L 284.717557 167.476047 
L 284.763004 167.455107 
L 284.823417 167.399247 
L 284.944533 167.211309 
L 285.014488 167.12897 
L 285.279632 167.054548 
L 285.613948 167.072095 
L 285.802147 167.139933 
L 285.901424 167.246953 
L 285.932631 167.323695 
L 285.925873 167.388284 
L 285.897363 167.454991 
L 285.760122 167.633242 
L 285.68399 167.773993 
L 285.701159 167.844441 
L 285.728625 167.882463 
L 285.85441 167.978289 
L 285.913054 167.9992 
L 286.117234 168.00996 
L 286.205664 167.994327 
L 286.382088 167.932493 
L 286.596448 167.900068 
L 286.716578 167.899401 
L 287.160611 167.959553 
L 287.412675 168.059265 
L 287.500612 168.144881 
L 287.518158 168.201321 
L 287.509864 168.334473 
L 287.390024 168.607216 
L 287.329843 168.708986 
L 287.120906 168.892139 
L 287.09173 168.932627 
L 287.063307 169.018708 
L 287.09492 169.139273 
L 287.294459 169.435682 
L 287.308381 169.541165 
L 287.290689 169.619589 
L 287.206291 169.735252 
L 287.130535 169.777567 
L 286.781457 169.863358 
L 286.64233 169.93192 
L 286.593925 169.990303 
L 286.558512 170.062549 
L 286.565241 170.170817 
L 286.668259 170.305593 
L 286.843001 170.45316 
L 286.940248 170.567808 
L 286.983056 170.664126 
L 287.000255 170.875064 
L 287.019802 170.949021 
L 287.066207 171.039916 
L 287.136916 171.126606 
L 287.224954 171.200969 
L 287.333903 171.292995 
L 287.468273 171.360252 
L 287.68304 171.4249 
L 287.886436 171.532529 
L 287.951403 171.583777 
L 288.059177 171.707097 
L 288.123477 171.836247 
L 288.126899 171.953941 
L 288.040007 172.230077 
L 288.04282 172.306818 
L 288.085251 172.435504 
L 288.136151 172.523963 
L 288.247609 172.626459 
L 288.406515 172.711872 
L 288.535143 172.753085 
L 288.90664 172.829682 
L 289.065518 172.897345 
L 289.236229 173.022115 
L 289.303892 173.105673 
L 289.374949 173.233227 
L 289.384868 173.326848 
L 289.330459 173.445441 
L 289.133704 173.616674 
L 289.007657 173.767053 
L 288.967169 173.954731 
L 288.985702 174.237654 
L 288.938863 174.345051 
L 288.800867 174.477913 
L 288.597441 174.561876 
L 288.428529 174.600827 
L 288.275945 174.680208 
L 288.222289 174.741926 
L 288.169997 174.925253 
L 288.172869 175.020933 
L 288.194447 175.106318 
L 288.280643 175.211627 
L 288.715976 175.380888 
L 288.94562 175.503222 
L 289.077032 175.639448 
L 289.128512 175.714594 
L 289.154093 175.76912 
L 289.15911 175.825269 
L 289.13759 175.87904 
L 289.053714 175.975997 
L 288.86595 176.077565 
L 288.629576 176.098853 
L 288.207875 176.026578 
L 288.009235 176.08876 
L 287.841511 176.191778 
L 287.77173 176.280846 
L 287.735651 176.357065 
L 287.726632 176.517513 
L 287.726225 176.52476 
L 287.747774 176.666265 
L 287.830809 176.766673 
L 287.921936 176.858873 
L 288.023301 176.936368 
L 288.361068 177.154412 
L 288.416289 177.22251 
L 288.489319 177.394961 
L 288.500021 177.550735 
L 288.422235 177.774985 
L 288.33601 177.894651 
L 287.946066 178.229112 
L 287.885537 178.298748 
L 287.835739 178.421082 
L 287.831244 178.533062 
L 287.847109 178.634456 
L 287.897226 178.757399 
L 287.955144 178.858416 
L 288.084091 179.015205 
L 288.226843 179.122573 
L 288.312952 179.168659 
L 288.684566 179.286411 
L 288.769022 179.337862 
L 288.837295 179.407671 
L 288.882945 179.492708 
L 288.902986 179.583139 
L 288.902232 179.670582 
L 288.866617 179.758896 
L 288.79759 179.857448 
L 288.593584 180.053072 
L 288.541582 180.134715 
L 288.476673 180.349075 
L 288.466957 180.456037 
L 288.527747 180.685943 
L 288.654664 180.903087 
L 288.697994 180.937397 
L 288.922099 181.006888 
L 289.137387 181.09816 
L 289.29815 181.234822 
L 289.410942 181.355995 
L 289.576345 181.491497 
L 289.699462 181.567803 
L 289.861066 181.61386 
L 290.07618 181.619515 
L 290.151588 181.593007 
L 290.195034 181.562351 
L 290.261682 181.451966 
L 290.369341 181.033194 
L 290.431813 180.675763 
L 290.465166 180.633274 
L 290.584281 180.538057 
L 290.685675 180.498062 
L 290.778832 180.488143 
L 290.965784 180.504153 
L 291.109319 180.548498 
L 291.222953 180.631388 
L 291.270285 180.702938 
L 291.433803 181.145725 
L 291.469216 181.32328 
L 291.471275 181.413653 
L 291.464488 181.476647 
L 291.432295 181.541643 
L 291.367575 181.622902 
L 291.317444 181.685845 
L 291.043918 181.893447 
L 290.792985 182.037649 
L 290.699074 182.135186 
L 290.681876 182.171903 
L 290.689851 182.212884 
L 290.781297 182.359668 
L 290.915638 182.514659 
L 291.000443 182.577682 
L 291.12008 182.6269 
L 291.517128 182.683978 
L 291.750775 182.701263 
L 292.026679 182.77261 
L 292.257774 182.883053 
L 292.349191 182.903355 
L 292.503254 182.903239 
L 292.809292 182.806022 
L 292.939689 182.803237 
L 293.089576 182.834328 
L 293.202107 182.8747 
L 293.411159 183.002777 
L 293.503504 183.107651 
L 293.568703 183.229463 
L 293.580768 183.33515 
L 293.560118 183.44014 
L 293.52369 183.505106 
L 293.463596 183.572393 
L 293.266377 183.742001 
L 293.223221 183.799427 
L 293.194914 183.87147 
L 293.220204 184.083394 
L 293.290043 184.285486 
L 293.294916 184.396393 
L 293.26426 184.545815 
L 293.086994 184.829811 
L 293.069593 184.925288 
L 293.085814 184.986646 
L 293.136299 185.177613 
L 293.307416 185.453111 
L 293.321917 185.592325 
L 293.258111 185.74894 
L 293.127598 185.867852 
L 292.968083 185.957761 
L 292.643222 186.073772 
L 292.564914 186.123077 
L 292.509809 186.198484 
L 292.512709 186.305795 
L 292.617119 186.468211 
L 292.796937 186.636427 
L 293.017359 186.787213 
L 293.411826 186.981532 
L 293.516236 187.013435 
L 293.75696 187.039538 
L 294.177501 187.010535 
L 294.484931 187.071441 
L 294.647376 187.141048 
L 294.78949 187.26286 
L 294.891 187.419475 
L 294.983809 187.747207 
L 294.946819 187.913665 
L 294.943205 187.929925 
L 294.827165 188.057538 
L 294.667649 188.164848 
L 294.442529 188.254438 
L 294.183911 188.093385 
L 294.032487 187.813914 
L 294.032487 187.636996 
L 293.986083 187.599293 
L 293.568413 187.593492 
L 293.359592 187.6718 
L 293.298686 187.848717 
L 293.298686 187.902314 
L 293.298686 188.057538 
L 293.324789 188.164819 
L 293.432534 188.362792 
L 293.447149 188.410044 
L 293.522008 188.652067 
L 293.53941 188.828984 
L 293.661332 189.08145 
L 293.826538 189.423542 
L 293.841039 189.539554 
L 293.841039 189.60336 
L 293.791734 189.742574 
L 293.719227 189.858585 
L 293.434999 190.200819 
L 293.359592 190.461844 
L 293.403125 190.650363 
L 293.483501 190.785279 
L 293.484333 190.786676 
L 293.626447 190.911388 
L 293.733758 190.957793 
L 293.875872 190.978095 
L 295.178128 190.864984 
L 295.41018 190.899787 
L 295.601599 190.966494 
L 295.778516 191.088306 
L 295.859724 191.250722 
L 295.859265 191.253709 
L 295.842322 191.363833 
L 295.71761 191.491445 
L 295.526192 191.529149 
L 295.169921 191.459426 
L 295.104026 191.432395 
L 295.037436 191.429611 
L 294.971541 191.450145 
L 294.844596 191.536458 
L 294.709832 191.677905 
L 294.699581 191.688665 
L 294.635775 191.833679 
L 294.638675 191.94969 
L 294.676408 192.14981 
L 294.769217 192.320927 
L 295.065046 192.709565 
L 295.146254 192.906784 
L 295.158957 193.389159 
L 295.222242 193.60671 
L 295.241993 193.762339 
L 295.205681 193.904221 
L 295.15858 193.99529 
L 295.008694 194.144248 
L 294.791985 194.30794 
L 294.697087 194.435089 
L 294.666924 194.57407 
L 294.683166 194.66688 
L 294.751845 194.780339 
L 295.032592 195.015262 
L 295.26534 195.182666 
L 295.303624 195.22733 
L 295.327058 195.290905 
L 295.343068 195.4097 
L 295.319401 195.589402 
L 295.146544 195.821425 
L 295.074153 195.957738 
L 295.041902 196.053563 
L 295.050255 196.153565 
L 295.105708 196.279786 
L 295.215745 196.403309 
L 295.313659 196.464157 
L 295.533181 196.565783 
L 295.770888 196.629995 
L 295.928751 196.718164 
L 296.084525 196.829071 
L 296.178494 196.954595 
L 296.213965 197.031278 
L 296.235572 197.127278 
L 296.192068 197.374411 
L 295.956507 197.75838 
L 295.889104 198.068014 
L 295.904534 198.275732 
L 295.96164 198.509727 
L 296.000388 198.598766 
L 296.098911 198.72635 
L 296.166835 198.791287 
L 296.514579 199.028704 
L 296.642395 199.141293 
L 296.666881 199.177341 
L 296.741469 199.287149 
L 296.773691 199.358496 
L 296.782421 199.480859 
L 296.746602 199.612734 
L 296.706752 199.683559 
L 296.595091 199.810969 
L 296.489028 199.880779 
L 296.332442 199.951517 
L 295.933768 200.032986 
L 295.823964 200.088816 
L 295.778951 200.118341 
L 295.695858 200.219938 
L 295.671293 200.261035 
L 295.647945 200.355787 
L 295.650846 200.42696 
L 295.691624 200.55553 
L 295.859115 200.804084 
L 295.978694 201.101566 
L 295.975301 201.222885 
L 295.937655 201.36758 
L 295.78336 201.613786 
L 295.756358 201.682783 
L 295.742147 201.798302 
L 295.788464 202.017012 
L 296.018457 202.398487 
L 296.055928 202.481203 
L 296.064856 202.597038 
L 296.066572 202.619314 
L 296.035365 202.73141 
L 295.986902 202.808964 
L 295.929592 202.864997 
L 295.815176 202.965115 
L 295.705081 203.036868 
L 295.52654 203.123529 
L 295.267863 203.203577 
L 295.027517 203.29714 
L 294.93027 203.355986 
L 294.765186 203.487514 
L 294.631309 203.639779 
L 294.542937 203.805966 
L 294.484728 203.974443 
L 294.478638 204.103129 
L 294.58183 204.415257 
L 294.644795 204.517173 
L 294.82354 204.612651 
L 294.87386 204.617494 
L 295.013044 204.665059 
L 295.335063 204.793396 
L 295.531209 204.96141 
L 295.61204 205.080757 
L 295.667058 205.195318 
L 295.722077 205.531519 
L 295.757083 205.610929 
L 295.815843 205.679694 
L 296.123969 205.862296 
L 296.163055 205.879004 
L 296.392651 205.977147 
L 296.646803 206.025582 
L 296.932278 206.04542 
L 297.188025 206.117985 
L 297.362159 206.204878 
L 297.44676 206.266799 
L 297.581884 206.382259 
L 297.745982 206.550737 
L 297.845143 206.694794 
L 297.88885 206.78479 
L 297.91446 206.903933 
L 297.924872 207.218904 
L 297.958428 207.310582 
L 298.019421 207.382625 
L 298.089347 207.43164 
L 298.274008 207.528249 
L 298.470473 207.66462 
L 298.516472 207.728861 
L 298.547186 207.829994 
L 298.540457 207.928314 
L 298.505799 208.012799 
L 298.416035 208.134959 
L 298.249355 208.247113 
L 298.053586 208.356309 
L 297.97 208.411762 
L 297.824348 208.559416 
L 297.79085 208.693728 
L 297.87577 208.909538 
L 298.071423 209.176712 
L 298.106139 209.265113 
L 298.119684 209.354326 
L 298.112201 209.426804 
L 298.08111 209.501544 
L 297.973335 209.657405 
L 297.948132 209.764455 
L 297.965186 209.838412 
L 298.016608 209.912166 
L 298.134446 210.004743 
L 298.301126 210.073799 
L 298.54562 210.123539 
L 298.877122 210.133545 
L 299.053198 210.089867 
L 299.2262 210.022087 
L 299.306538 210.012081 
L 299.542998 210.038474 
L 299.668204 210.137373 
L 299.708315 210.202543 
L 300.038396 210.001669 
L 300.101042 209.866893 
L 300.036337 209.754913 
L 300.05397 209.518482 
L 300.105944 209.356559 
L 300.127232 209.176103 
L 300.331354 209.068154 
L 300.574716 209.013165 
L 300.776692 209.011251 
L 300.958482 209.183528 
L 301.056773 209.37863 
L 301.238012 209.475789 
L 301.30872 209.612567 
L 301.342016 209.722169 
L 301.243058 210.144363 
L 301.068664 210.325573 
L 300.88612 210.3937 
L 300.187093 210.591703 
L 300.084974 210.639848 
L 299.958377 210.674593 
L 300.075084 210.855107 
L 300.110439 211.013143 
L 300.095328 211.216598 
L 300.067515 211.346357 
L 300.051563 211.441022 
L 300.062903 211.526639 
L 300.112614 211.655556 
L 300.15664 211.715186 
L 300.410995 211.890073 
L 300.619497 211.983114 
L 300.77704 212.083551 
L 300.960599 212.243444 
L 301.170087 212.513228 
L 301.244334 212.720425 
L 301.22525 212.893601 
L 301.166607 213.016196 
L 301.096681 213.181425 
L 301.075161 213.265359 
L 301.142708 213.475833 
L 301.4245 213.839557 
L 301.583551 214.109284 
L 301.635379 214.358882 
L 301.61995 214.452909 
L 301.627636 214.602912 
L 301.667863 214.702392 
L 301.784918 214.848537 
L 301.944724 214.965999 
L 302.071089 215.096802 
L 302.138057 215.200806 
L 302.169583 215.277576 
L 302.199282 215.443212 
L 302.185418 215.5154 
L 302.126775 215.633702 
L 301.989533 215.729238 
L 301.877263 215.778455 
L 301.467627 215.886955 
L 301.299469 215.973209 
L 301.215853 216.063611 
L 301.182442 216.170255 
L 301.174872 216.259816 
L 301.195087 216.313297 
L 301.283082 216.398855 
L 301.363913 216.434297 
L 301.543092 216.463039 
L 301.632044 216.45341 
L 301.804669 216.405555 
L 302.184519 216.266515 
L 302.337712 216.230001 
L 302.466833 216.215354 
L 302.555002 216.222982 
L 302.709558 216.263905 
L 302.896713 216.343663 
L 303.143005 216.535372 
L 303.224039 216.580326 
L 303.385991 216.640333 
L 303.781793 216.653413 
L 303.955317 216.704748 
L 304.054652 216.750718 
L 304.212427 216.884595 
L 304.26092 216.95687 
L 304.279888 217.035729 
L 304.264748 217.177437 
L 304.125912 217.476166 
L 304.124462 217.564538 
L 304.168188 217.658917 
L 304.182496 217.689801 
L 304.23618 217.733044 
L 304.390273 217.815354 
L 305.122159 218.093665 
L 305.309808 218.121653 
L 305.750506 218.089054 
L 306.038417 218.108283 
L 306.164261 218.141375 
L 306.257534 218.186387 
L 306.410582 218.289435 
L 306.554233 218.482071 
L 306.61801 218.634597 
L 306.636311 218.719025 
L 306.626363 218.904672 
L 306.587731 219.02573 
L 306.527521 219.13742 
L 306.397617 219.277764 
L 306.270846 219.509091 
L 306.258143 219.60541 
L 306.264436 219.752251 
L 306.308521 219.861273 
L 306.361509 219.944569 
L 306.445385 220.050835 
L 306.597563 220.198112 
L 306.896524 220.422507 
L 307.065524 220.497798 
L 307.416487 220.593972 
L 307.478089 220.622365 
L 307.604136 220.725673 
L 307.648539 220.804068 
L 307.677397 220.893455 
L 307.69039 221.091283 
L 307.725455 221.238879 
L 307.758605 221.314692 
L 307.824528 221.396886 
L 307.939641 221.478442 
L 308.101882 221.541639 
L 308.383355 221.557127 
L 308.530864 221.587116 
L 308.696992 221.662494 
L 308.792643 221.767137 
L 308.851287 221.871518 
L 308.865991 221.967952 
L 308.859553 222.104614 
L 308.826083 222.18907 
L 308.741105 222.278399 
L 308.6543 222.334809 
L 308.43817 222.485856 
L 308.349654 222.674346 
L 308.390258 222.887951 
L 308.413112 223.033198 
L 308.372479 223.173513 
L 308.231003 223.304026 
L 308.126274 223.400055 
L 308.059625 223.513456 
L 308.030709 223.619229 
L 308.097996 223.924049 
L 308.170387 224.075067 
L 308.26424 224.2146 
L 308.44777 224.368663 
L 308.581038 224.442475 
L 308.778461 224.515823 
L 308.904072 224.544246 
L 309.029712 224.552599 
L 309.152626 224.54268 
L 309.702926 224.415473 
L 309.90905 224.414777 
L 310.143944 224.479308 
L 310.207866 224.509036 
L 310.507494 224.774934 
L 310.732005 224.874907 
L 311.036129 224.945703 
L 311.115713 224.97894 
L 311.204462 225.056523 
L 311.234857 225.102609 
L 311.31299 225.265373 
L 311.318182 225.329063 
L 310.401518 225.329034 
L 309.375948 225.329005 
L 297.504562 225.315576 
L 297.404532 225.315895 
L 297.401997 225.315895 
L 294.663763 225.315373 
L 292.470713 225.313894 
L 290.946933 225.310501 
L 290.557946 225.308152 
L 289.757439 225.30792 
L 288.895938 225.311516 
L 288.652721 225.313952 
L 287.608415 225.31546 
L 287.604094 225.316476 
L 286.988363 225.315112 
L 286.783052 225.315953 
L 286.779601 225.314648 
L 284.87104 225.308123 
L 284.764657 225.307862 
L 284.319957 225.308964 
L 284.318916 225.308965 
L 282.524855 225.310675 
L 282.423664 225.310762 
L 277.809747 225.300959 
L 277.807631 225.300922 
L 277.696751 225.298987 
L 277.626884 225.300988 
L 275.968907 225.299103 
L 275.624759 225.304323 
L 275.077012 225.30093 
L 274.700236 225.297363 
L 274.410265 225.300988 
L 274.383119 225.301073 
L 273.713269 225.303163 
L 273.554768 225.303453 
L 273.205226 225.295419 
L 267.887062 225.289243 
L 265.913592 225.286951 
L 265.877484 225.287009 
L 265.784791 225.286487 
L 265.72081 225.287009 
L 264.687323 225.285326 
L 264.678216 225.285331 
L 261.98797 225.286574 
L 261.360407 225.290083 
L 260.813413 225.290634 
L 258.255275 225.276394 
L 258.122384 225.285646 
L 256.981789 225.28405 
L 256.447702 225.284079 
L 256.386216 225.287183 
L 255.145764 225.286458 
L 255.143183 225.285123 
L 252.094897 225.271695 
L 252.0768 225.273029 
L 251.548745 225.269259 
L 251.545975 225.269262 
L 251.545957 225.269262 
L 250.193442 225.27097 
L 250.135639 225.270303 
L 249.914725 225.269607 
L 249.357319 225.272217 
L 248.817199 225.269636 
L 247.454674 225.275785 
L 247.422278 225.273928 
L 247.308384 225.27387 
L 239.986964 225.271173 
L 239.944678 225.271144 
L 239.899086 225.271666 
L 239.714076 225.266156 
L 238.488097 225.272217 
L 238.428063 225.270946 
L 238.425103 225.270883 
L 237.938406 225.273609 
L 237.385293 225.269114 
L 236.839721 225.268041 
L 235.228613 225.269549 
L 235.228191 225.269548 
L 234.057623 225.267693 
L 232.956356 225.266562 
L 232.832949 225.264531 
L 231.874202 225.265605 
L 231.799142 225.262936 
L 231.258413 225.260703 
L 231.045736 225.262269 
L 230.360543 225.264415 
L 229.131635 225.25789 
L 228.702013 225.258089 
L 228.254647 225.258296 
L 228.050293 225.256991 
L 227.639381 225.253191 
L 225.999995 225.262095 
L 225.471853 225.256788 
L 225.303724 225.256034 
L 219.024086 225.261631 
L 218.620309 225.26147 
L 218.080913 225.261254 
L 217.496999 225.262733 
L 216.992582 225.263052 
L 216.567951 225.257078 
L 216.042333 225.257194 
L 215.450298 225.259398 
L 214.668526 225.256701 
L 214.326756 225.263893 
L 214.287922 225.263197 
L 213.827037 225.259108 
L 213.737274 225.260442 
L 213.230652 225.255106 
L 213.197125 225.256353 
L 213.149183 225.260181 
L 212.647202 225.265779 
L 212.186317 225.26456 
L 212.184043 225.264555 
L 210.775445 225.261254 
L 210.709841 225.260587 
L 209.451494 225.261747 
L 209.049341 225.260471 
L 206.139312 225.265054 
L 205.381554 225.263139 
L 205.378944 225.261805 
L 205.068266 225.263226 
L 205.05185 225.263893 
L 204.476202 225.265431 
L 203.705712 225.261341 
L 203.658234 225.263342 
L 202.304266 225.26606 
L 201.765538 225.267142 
L 200.955981 225.265402 
L 200.679787 225.266214 
L 199.322947 225.273174 
L 199.0576 225.271666 
L 199.052699 225.271666 
L 198.825665 225.271666 
L 198.769312 225.270332 
L 198.517364 225.270042 
L 197.972575 225.270535 
L 196.986652 225.272246 
L 196.881024 225.268853 
L 196.041247 225.274508 
L 195.934255 225.270506 
L 195.816881 225.272478 
L 192.548666 225.271898 
L 192.280216 225.274827 
L 191.963505 225.263168 
L 190.305615 225.272681 
L 189.936206 225.272826 
L 189.814539 225.273551 
L 189.775704 225.272246 
L 189.694699 225.270245 
L 186.11192 225.27489 
L 186.092894 225.274914 
L 186.026926 225.274887 
L 186.024273 225.274885 
L 183.376517 225.276568 
L 183.019202 225.276017 
L 182.593759 225.27622 
L 182.297727 225.290083 
L 182.083715 225.284021 
L 181.85439 225.276684 
L 181.752329 225.281237 
L 180.657152 225.288401 
L 177.952434 225.285152 
L 177.262891 225.285036 
L 176.857316 225.283064 
L 176.748555 225.276423 
L 175.63357 225.28405 
L 175.508422 225.285414 
L 170.088693 225.282804 
L 170.087878 225.282803 
L 169.787467 225.284311 
L 169.725342 225.283006 
L 169.63059 225.283383 
L 169.53288 225.285675 
L 168.997864 225.281759 
L 168.589707 225.279903 
L 168.526684 225.281933 
L 163.931821 225.276539 
L 162.510653 225.277554 
L 162.278891 225.276945 
L 161.649501 225.279004 
L 161.444132 225.277728 
L 161.410372 225.278192 
L 161.116254 225.277757 
L 160.422912 225.27564 
L 159.238987 225.274218 
L 158.793736 225.274218 
L 157.995606 225.271666 
L 157.816137 225.273725 
L 156.52551 225.274392 
L 156.096703 225.266301 
L 155.423692 225.264212 
L 154.330488 225.268998 
L 154.075959 225.26778 
L 153.977581 225.263168 
L 153.8172 225.264374 
L 153.429805 225.267287 
L 153.237023 225.26224 
L 148.057202 225.266794 
L 145.439434 225.263574 
L 144.493043 225.262095 
L 142.445732 225.258615 
L 141.349511 225.255135 
L 141.056554 225.257426 
L 140.667509 225.256759 
L 140.005839 225.254903 
L 139.030183 225.255251 
L 137.931497 225.254787 
L 137.715832 225.254787 
L 136.844442 225.250813 
L 136.801578 225.251077 
L 136.298521 225.254177 
L 135.385889 225.255889 
L 134.352604 225.260732 
L 134.321004 225.260427 
L 134.14216 225.258702 
L 130.514948 225.253336 
L 128.092167 225.250378 
L 128.055565 225.253017 
L 122.89912 225.249189 
L 122.817187 225.247855 
L 122.107372 225.243939 
L 121.850291 225.248261 
L 120.018732 225.237298 
L 119.655616 225.237878 
L 115.73884 225.239734 
L 115.731387 221.026172 
L 115.734055 220.610996 
L 115.73449 218.681756 
L 115.733678 218.50336 
L 115.751457 215.514994 
L 115.744373 215.200806 
L 115.737274 214.88598 
L 115.743829 213.928567 
L 115.736056 213.832394 
L 115.746932 212.567522 
L 115.745366 210.2448 
L 115.739391 209.730144 
L 115.748863 205.098309 
L 115.75195 203.588734 
L 115.742611 196.257221 
L 115.739608 196.257214 
L 115.192021 196.255887 
L 113.61502 196.258353 
L 111.69393 196.258701 
L 111.167499 196.255336 
L 111.08516 196.254756 
L 110.512905 196.258672 
L 109.472254 196.257047 
L 109.34789 196.26105 
L 108.789469 196.262152 
L 108.754695 196.262152 
L 108.752693 196.261485 
L 108.746574 196.262152 
L 106.680614 196.263109 
L 106.230287 196.259426 
L 103.630762 196.255858 
L 103.592652 196.257076 
L 103.087481 196.255249 
L 101.091099 196.261804 
L 100.822562 196.262355 
L 100.548543 196.262355 
L 100.541524 196.260383 
L 100.455734 196.259716 
L 99.227841 196.250841 
L 98.287278 196.258527 
L 95.788364 196.261485 
L 95.353525 196.257685 
L 95.002416 196.26018 
L 94.80453 196.256148 
L 93.246091 196.264008 
L 93.158415 196.257976 
L 92.689962 196.260731 
L 92.608522 196.259426 
L 92.129366 196.268504 
L 92.070258 196.262848 
L 91.550411 196.264356 
L 91.502237 196.262993 
L 90.997907 196.262152 
L 90.947123 196.260151 
L 90.440095 196.264037 
L 90.39546 196.260035 
L 89.886721 196.266676 
L 89.836807 196.259368 
L 89.407739 196.2654 
L 89.376358 196.266444 
L 89.323688 196.266067 
L 89.290422 196.262761 
L 88.773766 196.264907 
L 88.738759 196.263602 
L 88.233762 196.256554 
L 88.17796 196.25406 
L 87.114194 196.260876 
L 86.97672 196.258179 
L 86.554613 196.257482 
L 86.509949 196.257482 
L 86.016958 196.260818 
L 85.980183 196.259513 
L 77.709297 196.27268 
L 77.641575 196.272622 
L 77.143351 196.261423 
L 76.722852 196.251972 
L 75.999695 196.269055 
L 75.998245 196.267953 
L 74.121123 196.27065 
L 73.809342 196.278742 
L 71.595642 196.276272 
L 71.573948 196.276247 
L 66.470144 196.266589 
L 63.339258 196.277407 
L 62.77318 196.277639 
L 62.244168 196.275406 
L 61.950747 196.285934 
L 60.581784 196.279873 
L 60.064141 196.281961 
L 60.027336 196.279322 
L 58.705358 196.279264 
L 58.555703 196.271433 
L 58.095863 196.282599 
L 57.689504 196.285383 
L 57.692143 195.838652 
L 57.693912 195.802805 
L 57.691592 193.723881 
L 57.696001 193.707959 
L 57.694318 193.281298 
L 57.692607 193.006583 
L 57.681818 191.765261 
" clip-path="url(#p50ba7cbc48)"/>
   </g>
   <g id="PathCollection_1">
    <defs>
     <path id="me466abb7f3" d="M 0 1.581139 
C 0.419323 1.581139 0.821528 1.41454 1.118034 1.118034 
C 1.41454 0.821528 1.581139 0.419323 1.581139 0 
C 1.581139 -0.419323 1.41454 -0.821528 1.118034 -1.118034 
C 0.821528 -1.41454 0.419323 -1.581139 0 -1.581139 
C -0.419323 -1.581139 -0.821528 -1.41454 -1.118034 -1.118034 
C -1.41454 -0.821528 -1.581139 -0.419323 -1.581139 0 
C -1.581139 0.419323 -1.41454 0.821528 -1.118034 1.118034 
C -0.821528 1.41454 -0.419323 1.581139 0 1.581139 
z
" style="stroke: #000000"/>
    </defs>
    <g clip-path="url(#p50ba7cbc48)">
     <use xlink:href="#me466abb7f3" x="270.964669" y="201.892532" style="stroke: #000000"/>
    </g>
   </g>
   <g id="text_1">
    <!-- Lincoln -->
    <g transform="translate(273.964669 198.892532) scale(0.1 -0.1)">
     <defs>
      <path id="DejaVuSans-4c" d="M 628 4666 
L 1259 4666 
L 1259 531 
L 3531 531 
L 3531 0 
L 628 0 
L 628 4666 
z
" transform="scale(0.015625)"/>
      <path id="DejaVuSans-69" d="M 603 3500 
L 1178 3500 
L 1178 0 
L 603 0 
L 603 3500 
z
M 603 4863 
L 1178 4863 
L 1178 4134 
L 603 4134 
L 603 4863 
z
" transform="scale(0.015625)"/>
      <path id="DejaVuSans-6e" d="M 3513 2113 
L 3513 0 
L 2938 0 
L 2938 2094 
Q 2938 2591 2744 2837 
Q 2550 3084 2163 3084 
Q 1697 3084 1428 2787 
Q 1159 2491 1159 1978 
L 1159 0 
L 581 0 
L 581 3500 
L 1159 3500 
L 1159 2956 
Q 1366 3272 1645 3428 
Q 1925 3584 2291 3584 
Q 2894 3584 3203 3211 
Q 3513 2838 3513 2113 
z
" transform="scale(0.015625)"/>
      <path id="DejaVuSans-63" d="M 3122 3366 
L 3122 2828 
Q 2878 2963 2633 3030 
Q 2388 3097 2138 3097 
Q 1578 3097 1268 2742 
Q 959 2388 959 1747 
Q 959 1106 1268 751 
Q 1578 397 2138 397 
Q 2388 397 2633 464 
Q 2878 531 3122 666 
L 3122 134 
Q 2881 22 2623 -34 
Q 2366 -91 2075 -91 
Q 1284 -91 818 406 
Q 353 903 353 1747 
Q 353 2603 823 3093 
Q 1294 3584 2113 3584 
Q 2378 3584 2631 3529 
Q 2884 3475 3122 3366 
z
" transform="scale(0.015625)"/>
      <path id="DejaVuSans-6f" d="M 1959 3097 
Q 1497 3097 1228 2736 
Q 959 2375 959 1747 
Q 959 1119 1226 758 
Q 1494 397 1959 397 
Q 2419 397 2687 759 
Q 2956 1122 2956 1747 
Q 2956 2369 2687 2733 
Q 2419 3097 1959 3097 
z
M 1959 3584 
Q 2709 3584 3137 3096 
Q 3566 2609 3566 1747 
Q 3566 888 3137 398 
Q 2709 -91 1959 -91 
Q 1206 -91 779 398 
Q 353 888 353 1747 
Q 353 2609 779 3096 
Q 1206 3584 1959 3584 
z
" transform="scale(0.015625)"/>
      <path id="DejaVuSans-6c" d="M 603 4863 
L 1178 4863 
L 1178 0 
L 603 0 
L 603 4863 
z
" transform="scale(0.015625)"/>
     </defs>
     <use xlink:href="#DejaVuSans-4c"/>
     <use xlink:href="#DejaVuSans-69" x="55.712891"/>
     <use xlink:href="#DejaVuSans-6e" x="83.496094"/>
     <use xlink:href="#DejaVuSans-63" x="146.875"/>
     <use xlink:href="#DejaVuSans-6f" x="201.855469"/>
     <use xlink:href="#DejaVuSans-6c" x="263.037109"/>
     <use xlink:href="#DejaVuSans-6e" x="290.820312"/>
    </g>
   </g>
   <g id="text_2">
    <!-- Nebraska -->
    <g transform="translate(156.195 127.918031) scale(0.12 -0.12)">
     <defs>
      <path id="DejaVuSans-4e" d="M 628 4666 
L 1478 4666 
L 3547 763 
L 3547 4666 
L 4159 4666 
L 4159 0 
L 3309 0 
L 1241 3903 
L 1241 0 
L 628 0 
L 628 4666 
z
" transform="scale(0.015625)"/>
      <path id="DejaVuSans-65" d="M 3597 1894 
L 3597 1613 
L 953 1613 
Q 991 1019 1311 708 
Q 1631 397 2203 397 
Q 2534 397 2845 478 
Q 3156 559 3463 722 
L 3463 178 
Q 3153 47 2828 -22 
Q 2503 -91 2169 -91 
Q 1331 -91 842 396 
Q 353 884 353 1716 
Q 353 2575 817 3079 
Q 1281 3584 2069 3584 
Q 2775 3584 3186 3129 
Q 3597 2675 3597 1894 
z
M 3022 2063 
Q 3016 2534 2758 2815 
Q 2500 3097 2075 3097 
Q 1594 3097 1305 2825 
Q 1016 2553 972 2059 
L 3022 2063 
z
" transform="scale(0.015625)"/>
      <path id="DejaVuSans-62" d="M 3116 1747 
Q 3116 2381 2855 2742 
Q 2594 3103 2138 3103 
Q 1681 3103 1420 2742 
Q 1159 2381 1159 1747 
Q 1159 1113 1420 752 
Q 1681 391 2138 391 
Q 2594 391 2855 752 
Q 3116 1113 3116 1747 
z
M 1159 2969 
Q 1341 3281 1617 3432 
Q 1894 3584 2278 3584 
Q 2916 3584 3314 3078 
Q 3713 2572 3713 1747 
Q 3713 922 3314 415 
Q 2916 -91 2278 -91 
Q 1894 -91 1617 61 
Q 1341 213 1159 525 
L 1159 0 
L 581 0 
L 581 4863 
L 1159 4863 
L 1159 2969 
z
" transform="scale(0.015625)"/>
      <path id="DejaVuSans-72" d="M 2631 2963 
Q 2534 3019 2420 3045 
Q 2306 3072 2169 3072 
Q 1681 3072 1420 2755 
Q 1159 2438 1159 1844 
L 1159 0 
L 581 0 
L 581 3500 
L 1159 3500 
L 1159 2956 
Q 1341 3275 1631 3429 
Q 1922 3584 2338 3584 
Q 2397 3584 2469 3576 
Q 2541 3569 2628 3553 
L 2631 2963 
z
" transform="scale(0.015625)"/>
      <path id="DejaVuSans-61" d="M 2194 1759 
Q 1497 1759 1228 1600 
Q 959 1441 959 1056 
Q 959 750 1161 570 
Q 1363 391 1709 391 
Q 2188 391 2477 730 
Q 2766 1069 2766 1631 
L 2766 1759 
L 2194 1759 
z
M 3341 1997 
L 3341 0 
L 2766 0 
L 2766 531 
Q 2569 213 2275 61 
Q 1981 -91 1556 -91 
Q 1019 -91 701 211 
Q 384 513 384 1019 
Q 384 1609 779 1909 
Q 1175 2209 1959 2209 
L 2766 2209 
L 2766 2266 
Q 2766 2663 2505 2880 
Q 2244 3097 1772 3097 
Q 1472 3097 1187 3025 
Q 903 2953 641 2809 
L 641 3341 
Q 956 3463 1253 3523 
Q 1550 3584 1831 3584 
Q 2591 3584 2966 3190 
Q 3341 2797 3341 1997 
z
" transform="scale(0.015625)"/>
      <path id="DejaVuSans-73" d="M 2834 3397 
L 2834 2853 
Q 2591 2978 2328 3040 
Q 2066 3103 1784 3103 
Q 1356 3103 1142 2972 
Q 928 2841 928 2578 
Q 928 2378 1081 2264 
Q 1234 2150 1697 2047 
L 1894 2003 
Q 2506 1872 2764 1633 
Q 3022 1394 3022 966 
Q 3022 478 2636 193 
Q 2250 -91 1575 -91 
Q 1294 -91 989 -36 
Q 684 19 347 128 
L 347 722 
Q 666 556 975 473 
Q 1284 391 1588 391 
Q 1994 391 2212 530 
Q 2431 669 2431 922 
Q 2431 1156 2273 1281 
Q 2116 1406 1581 1522 
L 1381 1569 
Q 847 1681 609 1914 
Q 372 2147 372 2553 
Q 372 3047 722 3315 
Q 1072 3584 1716 3584 
Q 2034 3584 2315 3537 
Q 2597 3491 2834 3397 
z
" transform="scale(0.015625)"/>
      <path id="DejaVuSans-6b" d="M 581 4863 
L 1159 4863 
L 1159 1991 
L 2875 3500 
L 3609 3500 
L 1753 1863 
L 3688 0 
L 2938 0 
L 1159 1709 
L 1159 0 
L 581 0 
L 581 4863 
z
" transform="scale(0.015625)"/>
     </defs>
     <use xlink:href="#DejaVuSans-4e"/>
     <use xlink:href="#DejaVuSans-65" x="74.804688"/>
     <use xlink:href="#DejaVuSans-62" x="136.328125"/>
     <use xlink:href="#DejaVuSans-72" x="199.804688"/>
     <use xlink:href="#DejaVuSans-61" x="240.917969"/>
     <use xlink:href="#DejaVuSans-73" x="302.197266"/>
     <use xlink:href="#DejaVuSans-6b" x="354.296875"/>
     <use xlink:href="#DejaVuSans-61" x="410.457031"/>
    </g>
   </g>
  </g>
 </g>
 <defs>
  <clipPath id="p50ba7cbc48">
   <rect x="45" y="133.918031" width="279" height="95.763938"/>
  </clipPath>
 </defs>
</svg>
