<?xml version="1.0" encoding="utf-8" standalone="no"?>
<!DOCTYPE svg PUBLIC "-//W3C//DTD SVG 1.1//EN"
  "http://www.w3.org/Graphics/SVG/1.1/DTD/svg11.dtd">
<svg xmlns:xlink="http://www.w3.org/1999/xlink" width="360pt" height="360pt" viewBox="0 0 360 360" xmlns="http://www.w3.org/2000/svg" version="1.1">
 <metadata>
  <rdf:RDF xmlns:dc="http://purl.org/dc/elements/1.1/" xmlns:cc="http://creativecommons.org/ns#" xmlns:rdf="http://www.w3.org/1999/02/22-rdf-syntax-ns#">
   <cc:Work>
    <dc:type rdf:resource="http://purl.org/dc/dcmitype/StillImage"/>
    <dc:date>2023-06-19T15:20:27.007136</dc:date>
    <dc:format>image/svg+xml</dc:format>
    <dc:creator>
     <cc:Agent>
      <dc:title>Matplotlib v3.7.1, https://matplotlib.org/</dc:title>
     </cc:Agent>
    </dc:creator>
   </cc:Work>
  </rdf:RDF>
 </metadata>
 <defs>
  <style type="text/css">*{stroke-linejoin: round; stroke-linecap: butt}</style>
 </defs>
 <g id="figure_1">
  <g id="patch_1">
   <path d="M 0 360 
L 360 360 
L 360 0 
L 0 0 
z
" style="fill: #ffffff"/>
  </g>
  <g id="axes_1">
   <g id="PatchCollection_1">
    <path d="M 77.115713 155.642556 
L 77.132958 153.846486 
L 77.137348 153.389285 
L 77.127557 152.594192 
L 77.127593 152.576085 
L 77.13094 152.486018 
L 77.1311 152.482327 
L 77.152899 151.977075 
L 77.162979 150.378035 
L 77.210234 147.853275 
L 77.21028 147.850781 
L 77.259814 144.476346 
L 77.274969 137.868229 
L 77.280986 137.444495 
L 77.30438 135.797036 
L 77.3006 135.76741 
L 77.332062 133.224965 
L 77.407623 129.44159 
L 77.41997 125.291069 
L 77.424146 125.095167 
L 77.422022 124.578737 
L 77.425982 123.327008 
L 77.459856 118.427725 
L 77.459892 118.389171 
L 77.460864 116.311426 
L 77.460864 116.290259 
L 77.469108 109.880312 
L 77.411258 101.921434 
L 77.377204 100.880834 
L 77.350133 96.705043 
L 77.350097 96.649066 
L 77.345562 96.445784 
L 77.327275 85.254915 
L 77.341494 73.882364 
L 77.384368 69.603222 
L 77.363669 69.382625 
L 77.384116 64.882886 
L 77.348514 60.383147 
L 77.352401 56.075998 
L 77.352293 56.065343 
L 77.794423 56.020669 
L 81.407851 55.970415 
L 81.918125 55.970271 
L 82.761527 55.977327 
L 84.878941 55.96786 
L 87.195677 56.012785 
L 97.315923 56.042232 
L 100.354927 56.081614 
L 100.356926 56.081624 
L 101.650661 56.088037 
L 104.283915 56.101089 
L 104.973532 56.087806 
L 105.822946 56.125064 
L 113.283861 56.102889 
L 120.678251 56.15325 
L 121.340042 56.143279 
L 121.388964 56.142523 
L 124.249381 56.174849 
L 127.654918 56.099217 
L 131.283681 56.043384 
L 142.213915 55.987656 
L 142.220402 55.987623 
L 153.873811 55.939385 
L 162.78315 55.947773 
L 162.863858 55.934633 
L 169.367617 55.891723 
L 170.78771 55.905007 
L 177.485607 55.883516 
L 178.196679 55.865769 
L 182.847107 55.878188 
L 183.322679 55.883408 
L 183.844509 55.883408 
L 184.374006 55.883408 
L 184.6585 55.902559 
L 184.661577 55.902978 
L 184.983888 55.946873 
L 186.42738 55.91577 
L 198.752659 55.960444 
L 198.782286 55.973799 
L 200.186576 55.974123 
L 200.356487 55.95742 
L 202.404713 55.967356 
L 202.939898 55.983987 
L 203.253478 55.975419 
L 203.324179 55.996802 
L 203.826498 55.992446 
L 203.924737 55.991582 
L 204.629078 56.00375 
L 208.050706 56.013325 
L 209.336382 55.977255 
L 215.41403 55.967464 
L 215.525553 55.969156 
L 219.925649 55.970883 
L 219.926801 55.972575 
L 220.208163 55.973079 
L 220.208019 55.973655 
L 220.632725 55.960012 
L 220.633265 55.961452 
L 220.875389 55.949717 
L 220.875641 55.950184 
L 221.787548 55.932221 
L 225.361017 55.949717 
L 225.649579 55.955368 
L 225.988502 55.995866 
L 234.781674 55.972503 
L 236.187944 55.991618 
L 246.014444 56.019733 
L 248.157921 55.997486 
L 248.285283 56.017825 
L 255.939862 56.022998 
L 256.169321 56.023153 
L 260.402565 55.882724 
L 260.94171 55.882724 
L 261.781656 55.831966 
L 263.394375 55.8 
L 264.283279 55.813859 
L 267.367209 55.943129 
L 271.775116 56.077042 
L 275.375224 56.073874 
L 275.3758 56.072542 
L 276.479577 56.041728 
L 283.165379 56.087734 
L 283.167383 56.087736 
L 289.444437 56.096697 
L 289.45052 56.101521 
L 291.088295 56.097633 
L 291.087899 56.102745 
L 291.574486 56.102133 
L 291.574882 56.105481 
L 291.809699 56.105517 
L 291.884395 60.025865 
L 291.831873 61.258551 
L 291.830253 61.257759 
L 291.875287 64.742889 
L 291.872875 69.381653 
L 291.855992 69.725184 
L 291.837813 73.881392 
L 291.863408 74.177693 
L 291.82147 83.959556 
L 291.77982 84.2848 
L 291.819634 84.39895 
L 291.794507 91.880312 
L 291.794502 91.881373 
L 291.757393 100.096937 
L 291.734822 100.545835 
L 291.733814 100.565238 
L 291.74555 101.730643 
L 291.681617 109.639664 
L 291.670961 110.027905 
L 291.673085 110.075674 
L 291.683885 112.386471 
L 291.661998 112.582985 
L 291.649327 113.537297 
L 291.650226 119.52531 
L 291.631165 123.666384 
L 291.62906 124.12372 
L 291.641839 124.351768 
L 291.625676 126.791186 
L 291.635755 127.987479 
L 291.614926 131.256163 
L 291.614912 131.258347 
L 291.612032 134.318662 
L 291.591549 135.285718 
L 291.609909 136.536547 
L 291.593529 144.336313 
L 291.616892 145.877 
L 291.543996 163.675734 
L 291.581794 168.240882 
L 291.564983 168.330733 
L 291.531 168.375659 
L 291.541692 172.875362 
L 291.520777 173.622001 
L 291.515941 175.488328 
L 291.506203 179.246199 
L 291.506198 179.24816 
L 291.516709 180.15373 
L 291.517717 180.297003 
L 291.494282 181.874768 
L 291.508466 185.304749 
L 291.507422 185.309681 
L 291.532728 190.343525 
L 291.506774 190.874138 
L 291.51522 194.517047 
L 291.515233 194.52288 
L 291.496514 199.873652 
L 291.524053 204.142787 
L 291.514333 205.181695 
L 291.523369 206.220711 
L 291.566711 206.71691 
L 291.514657 208.31073 
L 291.471819 208.645874 
L 291.451624 208.981305 
L 291.447485 209.006828 
L 291.449537 209.015899 
L 291.428736 212.964202 
L 291.422754 214.099601 
L 291.405115 214.531327 
L 291.414942 217.228457 
L 291.413898 217.249876 
L 291.415086 217.780885 
L 291.41451 218.15883 
L 291.41748 218.869821 
L 291.423618 220.339385 
L 291.448205 220.820213 
L 291.442373 222.524692 
L 291.442373 222.534591 
L 291.446945 225.303249 
L 291.446945 225.321392 
L 291.440681 225.628565 
L 291.440681 225.652431 
L 291.461164 227.452125 
L 291.451516 229.665511 
L 291.433301 230.574753 
L 291.444533 231.036178 
L 291.409975 232.12804 
L 291.446153 232.595476 
L 291.448781 232.686984 
L 291.490142 235.856193 
L 291.511921 237.390688 
L 291.489461 241.517082 
L 291.489459 241.517558 
L 291.49151 248.244506 
L 291.50573 249.370565 
L 291.523981 249.509699 
L 291.566603 253.870268 
L 291.638167 254.825337 
L 291.66189 255.922418 
L 291.662718 257.790796 
L 291.598713 260.148607 
L 291.622076 260.513052 
L 291.565199 261.443642 
L 291.575602 262.189669 
L 291.61592 262.847824 
L 291.628988 263.040234 
L 291.625568 264.882514 
L 291.140888 265.051921 
L 290.862802 265.365106 
L 290.109468 266.671192 
L 289.716511 267.489324 
L 289.595845 267.542529 
L 289.315455 267.553364 
L 288.960837 267.743399 
L 288.878689 267.852113 
L 288.848775 268.0343 
L 288.875917 268.097981 
L 289.083339 268.236682 
L 289.201917 268.377471 
L 289.188742 268.441008 
L 288.383642 269.727944 
L 288.336592 269.954948 
L 288.37313 270.184473 
L 288.336628 270.382499 
L 287.977042 270.860231 
L 287.849825 270.984425 
L 287.763249 271.00966 
L 287.319211 270.87013 
L 286.946306 270.873262 
L 286.386318 271.112938 
L 285.619196 271.306609 
L 284.913667 271.35427 
L 284.715317 271.344479 
L 284.21667 271.141737 
L 283.838869 270.934963 
L 283.710175 270.816133 
L 283.568919 270.582793 
L 283.224884 270.1997 
L 282.007209 269.774813 
L 281.952167 269.726972 
L 281.932296 269.596838 
L 282.000801 269.470484 
L 282.228562 269.302301 
L 282.305634 269.173031 
L 282.208727 268.900849 
L 281.476271 268.070802 
L 281.17043 267.980123 
L 280.240381 267.180027 
L 279.916505 266.716802 
L 278.715281 266.563558 
L 278.466966 266.56777 
L 278.302202 266.621515 
L 277.934336 266.961914 
L 277.234675 267.333955 
L 277.160915 267.318116 
L 276.992767 267.162748 
L 276.811192 266.879802 
L 276.621554 266.83988 
L 276.387026 266.872062 
L 275.779304 267.210625 
L 275.452224 267.266279 
L 275.234363 267.232224 
L 275.152647 267.198206 
L 275.104986 267.136901 
L 275.091378 267.021167 
L 275.118629 266.91904 
L 275.13904 266.742001 
L 275.145844 266.626267 
L 275.070967 266.530943 
L 274.890616 266.434504 
L 273.66423 266.387995 
L 272.719565 266.410961 
L 271.813094 266.753196 
L 271.415242 267.046726 
L 271.111777 267.185247 
L 270.924983 267.112206 
L 270.710001 266.79247 
L 270.571012 266.745889 
L 269.554639 267.399652 
L 269.448805 267.551312 
L 269.317483 267.644512 
L 267.761173 267.99013 
L 267.490394 267.992146 
L 266.811036 268.111624 
L 266.418152 268.376643 
L 266.18204 268.603432 
L 266.110763 268.730829 
L 266.115335 268.931159 
L 266.165445 269.008952 
L 266.552677 269.329516 
L 266.653011 269.500277 
L 266.807869 269.763834 
L 266.790409 269.912182 
L 266.659484 270.095449 
L 266.659484 270.296175 
L 266.650772 270.392182 
L 266.694402 270.505649 
L 266.877669 270.584197 
L 267.017306 270.741293 
L 267.043513 270.854723 
L 266.991135 271.081656 
L 266.768488 271.284465 
L 266.654192 271.388577 
L 266.572944 271.509999 
L 266.556241 271.63358 
L 266.537774 272.405202 
L 266.651564 272.744989 
L 267.035089 273.229993 
L 267.093514 273.44213 
L 266.991243 273.887572 
L 267.056148 273.977675 
L 267.548028 274.219007 
L 267.841989 274.458359 
L 267.806351 275.025223 
L 268.103156 275.40468 
L 269.293868 276.376091 
L 269.204125 276.725382 
L 268.760519 276.790178 
L 268.193295 277.094003 
L 268.118383 277.327056 
L 268.118383 277.510178 
L 268.242145 277.852125 
L 268.267344 277.966708 
L 267.979358 278.543255 
L 267.756169 278.701647 
L 267.676973 278.84564 
L 268.152149 279.421611 
L 268.06219 280.181137 
L 268.26738 280.652713 
L 268.209783 281.455473 
L 267.921797 282.250997 
L 267.918197 282.369792 
L 268.069426 282.625379 
L 268.325013 282.841368 
L 268.717393 283.050157 
L 268.811024 283.190514 
L 268.753427 283.453301 
L 268.472605 283.939277 
L 268.49424 284.417189 
L 268.937018 284.774399 
L 269.61742 285.580759 
L 269.790211 285.879544 
L 269.757813 286.354684 
L 269.567023 286.718266 
L 269.349486 286.972485 
L 269.330226 287.075152 
L 269.444665 287.575023 
L 269.480663 288.230154 
L 269.54546 288.453343 
L 269.646255 288.557738 
L 269.664254 288.629735 
L 269.624656 288.770127 
L 269.441065 288.986117 
L 269.055884 289.223705 
L 268.93349 289.382097 
L 268.861494 289.868037 
L 268.917723 290.237018 
L 269.088427 290.526228 
L 269.323279 291.060873 
L 269.390847 291.685766 
L 269.476343 291.874972 
L 269.840645 292.417681 
L 270.735848 293.125442 
L 271.301092 294.581497 
L 271.557435 295.138461 
L 271.859208 296.15901 
L 271.802619 297.177039 
L 272.176064 298.421785 
L 272.320705 299.296037 
L 272.304578 299.589783 
L 272.434027 300.320186 
L 272.618626 300.454891 
L 272.716397 300.645934 
L 272.820108 301.261899 
L 272.808193 301.997234 
L 272.69379 302.872998 
L 272.485829 303.23208 
L 272.154069 303.412827 
L 271.74441 303.509267 
L 270.996187 303.488316 
L 270.635161 303.60927 
L 270.116139 304.054495 
L 270.029492 304.19964 
L 270.170892 304.392914 
L 270.90216 304.6737 
L 271.240003 304.875506 
L 271.542244 305.173103 
L 271.608049 305.397804 
L 271.582454 305.554828 
L 271.471759 305.745079 
L 270.736316 306.256973 
L 270.545346 306.51382 
L 270.38465 306.845688 
L 270.343972 307.12687 
L 270.392533 307.549813 
L 270.50726 307.8 
L 264.360135 302.838296 
L 264.33202 302.816877 
L 259.999601 299.333871 
L 259.996037 299.333331 
L 259.393571 298.867515 
L 255.736298 295.915014 
L 253.78498 294.367884 
L 253.609921 294.210175 
L 252.784302 293.577723 
L 252.064446 292.99304 
L 252.029348 292.975761 
L 251.551291 292.598968 
L 251.532176 292.592344 
L 247.545628 289.412011 
L 246.37925 288.492365 
L 244.108398 286.705937 
L 243.218896 286.006186 
L 243.130304 285.931561 
L 242.750847 285.63418 
L 242.695338 285.597894 
L 242.449507 285.368658 
L 239.284401 282.906345 
L 234.78441 279.355806 
L 234.728685 279.289822 
L 234.015344 278.744485 
L 233.998029 278.731417 
L 233.985886 278.721647 
L 233.230475 278.113796 
L 232.49982 277.556256 
L 230.284419 275.854117 
L 226.859553 273.157116 
L 226.610298 272.960834 
L 225.167959 271.869837 
L 224.452206 271.315752 
L 217.945784 266.259949 
L 217.81565 266.168478 
L 212.284419 261.897903 
L 207.784428 258.457087 
L 207.623696 258.370943 
L 203.739742 255.341983 
L 203.284401 255.013463 
L 201.804839 253.871276 
L 185.284833 241.35319 
L 182.914963 239.601518 
L 180.566189 237.822379 
L 179.341332 236.906334 
L 176.50048 234.781719 
L 175.739874 234.253769 
L 171.785148 231.304329 
L 167.313739 227.937165 
L 167.285229 227.940693 
L 165.846165 226.873382 
L 164.38705 225.829255 
L 160.816316 223.148721 
L 159.673445 222.373607 
L 155.340414 219.133841 
L 153.785256 217.969732 
L 152.752179 217.301281 
L 150.190871 215.376925 
L 147.884359 213.722736 
L 147.886195 213.721728 
L 147.440141 213.374093 
L 140.285211 208.201656 
L 133.918808 203.607785 
L 131.285265 201.707473 
L 128.729393 199.874768 
L 126.94273 198.634306 
L 123.604905 196.193772 
L 122.442667 195.375137 
L 121.533028 194.765148 
L 118.393265 192.499529 
L 116.109864 190.875614 
L 115.132332 190.190892 
L 113.285553 188.940495 
L 112.237897 188.166318 
L 110.355911 186.867287 
L 109.82303 186.450211 
L 108.785526 185.718836 
L 107.669554 184.942385 
L 104.862298 182.989201 
L 104.285535 182.565034 
L 103.267722 181.876244 
L 101.498438 180.62137 
L 101.318023 180.493409 
L 99.997105 179.595146 
L 99.785544 179.468721 
L 97.099034 177.554624 
L 97.09943 177.55466 
L 95.536748 176.482994 
L 95.530952 176.478746 
L 92.245973 174.1979 
L 92.187332 174.157114 
L 92.165265 174.143111 
L 80.766939 166.274264 
L 77.285949 163.889384 
L 77.233859 161.444566 
L 77.199971 159.817517 
L 77.1603 157.912794 
L 77.115605 155.766894 
L 77.115713 155.642556 
" clip-path="url(#pc4e9750f6c)" style="fill: #00aa88"/>
   </g>
   <g id="PathCollection_1">
    <defs>
     <path id="m328a27090d" d="M 0 1.581139 
C 0.419323 1.581139 0.821528 1.41454 1.118034 1.118034 
C 1.41454 0.821528 1.581139 0.419323 1.581139 0 
C 1.581139 -0.419323 1.41454 -0.821528 1.118034 -1.118034 
C 0.821528 -1.41454 0.419323 -1.581139 0 -1.581139 
C -0.419323 -1.581139 -0.821528 -1.41454 -1.118034 -1.118034 
C -1.41454 -0.821528 -1.581139 -0.419323 -1.581139 0 
C -1.581139 0.419323 -1.41454 0.821528 -1.118034 1.118034 
C -0.821528 1.41454 -0.419323 1.581139 0 1.581139 
z
" style="stroke: #000000"/>
    </defs>
    <g clip-path="url(#pc4e9750f6c)">
     <use xlink:href="#m328a27090d" x="85.741674" y="157.973439" style="stroke: #000000"/>
    </g>
   </g>
   <g id="text_1">
    <!-- Carson City -->
    <g transform="translate(88.741674 154.973439) scale(0.1 -0.1)">
     <defs>
      <path id="DejaVuSans-43" d="M 4122 4306 
L 4122 3641 
Q 3803 3938 3442 4084 
Q 3081 4231 2675 4231 
Q 1875 4231 1450 3742 
Q 1025 3253 1025 2328 
Q 1025 1406 1450 917 
Q 1875 428 2675 428 
Q 3081 428 3442 575 
Q 3803 722 4122 1019 
L 4122 359 
Q 3791 134 3420 21 
Q 3050 -91 2638 -91 
Q 1578 -91 968 557 
Q 359 1206 359 2328 
Q 359 3453 968 4101 
Q 1578 4750 2638 4750 
Q 3056 4750 3426 4639 
Q 3797 4528 4122 4306 
z
" transform="scale(0.015625)"/>
      <path id="DejaVuSans-61" d="M 2194 1759 
Q 1497 1759 1228 1600 
Q 959 1441 959 1056 
Q 959 750 1161 570 
Q 1363 391 1709 391 
Q 2188 391 2477 730 
Q 2766 1069 2766 1631 
L 2766 1759 
L 2194 1759 
z
M 3341 1997 
L 3341 0 
L 2766 0 
L 2766 531 
Q 2569 213 2275 61 
Q 1981 -91 1556 -91 
Q 1019 -91 701 211 
Q 384 513 384 1019 
Q 384 1609 779 1909 
Q 1175 2209 1959 2209 
L 2766 2209 
L 2766 2266 
Q 2766 2663 2505 2880 
Q 2244 3097 1772 3097 
Q 1472 3097 1187 3025 
Q 903 2953 641 2809 
L 641 3341 
Q 956 3463 1253 3523 
Q 1550 3584 1831 3584 
Q 2591 3584 2966 3190 
Q 3341 2797 3341 1997 
z
" transform="scale(0.015625)"/>
      <path id="DejaVuSans-72" d="M 2631 2963 
Q 2534 3019 2420 3045 
Q 2306 3072 2169 3072 
Q 1681 3072 1420 2755 
Q 1159 2438 1159 1844 
L 1159 0 
L 581 0 
L 581 3500 
L 1159 3500 
L 1159 2956 
Q 1341 3275 1631 3429 
Q 1922 3584 2338 3584 
Q 2397 3584 2469 3576 
Q 2541 3569 2628 3553 
L 2631 2963 
z
" transform="scale(0.015625)"/>
      <path id="DejaVuSans-73" d="M 2834 3397 
L 2834 2853 
Q 2591 2978 2328 3040 
Q 2066 3103 1784 3103 
Q 1356 3103 1142 2972 
Q 928 2841 928 2578 
Q 928 2378 1081 2264 
Q 1234 2150 1697 2047 
L 1894 2003 
Q 2506 1872 2764 1633 
Q 3022 1394 3022 966 
Q 3022 478 2636 193 
Q 2250 -91 1575 -91 
Q 1294 -91 989 -36 
Q 684 19 347 128 
L 347 722 
Q 666 556 975 473 
Q 1284 391 1588 391 
Q 1994 391 2212 530 
Q 2431 669 2431 922 
Q 2431 1156 2273 1281 
Q 2116 1406 1581 1522 
L 1381 1569 
Q 847 1681 609 1914 
Q 372 2147 372 2553 
Q 372 3047 722 3315 
Q 1072 3584 1716 3584 
Q 2034 3584 2315 3537 
Q 2597 3491 2834 3397 
z
" transform="scale(0.015625)"/>
      <path id="DejaVuSans-6f" d="M 1959 3097 
Q 1497 3097 1228 2736 
Q 959 2375 959 1747 
Q 959 1119 1226 758 
Q 1494 397 1959 397 
Q 2419 397 2687 759 
Q 2956 1122 2956 1747 
Q 2956 2369 2687 2733 
Q 2419 3097 1959 3097 
z
M 1959 3584 
Q 2709 3584 3137 3096 
Q 3566 2609 3566 1747 
Q 3566 888 3137 398 
Q 2709 -91 1959 -91 
Q 1206 -91 779 398 
Q 353 888 353 1747 
Q 353 2609 779 3096 
Q 1206 3584 1959 3584 
z
" transform="scale(0.015625)"/>
      <path id="DejaVuSans-6e" d="M 3513 2113 
L 3513 0 
L 2938 0 
L 2938 2094 
Q 2938 2591 2744 2837 
Q 2550 3084 2163 3084 
Q 1697 3084 1428 2787 
Q 1159 2491 1159 1978 
L 1159 0 
L 581 0 
L 581 3500 
L 1159 3500 
L 1159 2956 
Q 1366 3272 1645 3428 
Q 1925 3584 2291 3584 
Q 2894 3584 3203 3211 
Q 3513 2838 3513 2113 
z
" transform="scale(0.015625)"/>
      <path id="DejaVuSans-20" transform="scale(0.015625)"/>
      <path id="DejaVuSans-69" d="M 603 3500 
L 1178 3500 
L 1178 0 
L 603 0 
L 603 3500 
z
M 603 4863 
L 1178 4863 
L 1178 4134 
L 603 4134 
L 603 4863 
z
" transform="scale(0.015625)"/>
      <path id="DejaVuSans-74" d="M 1172 4494 
L 1172 3500 
L 2356 3500 
L 2356 3053 
L 1172 3053 
L 1172 1153 
Q 1172 725 1289 603 
Q 1406 481 1766 481 
L 2356 481 
L 2356 0 
L 1766 0 
Q 1100 0 847 248 
Q 594 497 594 1153 
L 594 3053 
L 172 3053 
L 172 3500 
L 594 3500 
L 594 4494 
L 1172 4494 
z
" transform="scale(0.015625)"/>
      <path id="DejaVuSans-79" d="M 2059 -325 
Q 1816 -950 1584 -1140 
Q 1353 -1331 966 -1331 
L 506 -1331 
L 506 -850 
L 844 -850 
Q 1081 -850 1212 -737 
Q 1344 -625 1503 -206 
L 1606 56 
L 191 3500 
L 800 3500 
L 1894 763 
L 2988 3500 
L 3597 3500 
L 2059 -325 
z
" transform="scale(0.015625)"/>
     </defs>
     <use xlink:href="#DejaVuSans-43"/>
     <use xlink:href="#DejaVuSans-61" x="69.824219"/>
     <use xlink:href="#DejaVuSans-72" x="131.103516"/>
     <use xlink:href="#DejaVuSans-73" x="172.216797"/>
     <use xlink:href="#DejaVuSans-6f" x="224.316406"/>
     <use xlink:href="#DejaVuSans-6e" x="285.498047"/>
     <use xlink:href="#DejaVuSans-20" x="348.876953"/>
     <use xlink:href="#DejaVuSans-43" x="380.664062"/>
     <use xlink:href="#DejaVuSans-69" x="450.488281"/>
     <use xlink:href="#DejaVuSans-74" x="478.271484"/>
     <use xlink:href="#DejaVuSans-79" x="517.480469"/>
    </g>
   </g>
   <g id="text_2">
    <!-- Nevada -->
    <g transform="translate(161.605312 37.2) scale(0.12 -0.12)">
     <defs>
      <path id="DejaVuSans-4e" d="M 628 4666 
L 1478 4666 
L 3547 763 
L 3547 4666 
L 4159 4666 
L 4159 0 
L 3309 0 
L 1241 3903 
L 1241 0 
L 628 0 
L 628 4666 
z
" transform="scale(0.015625)"/>
      <path id="DejaVuSans-65" d="M 3597 1894 
L 3597 1613 
L 953 1613 
Q 991 1019 1311 708 
Q 1631 397 2203 397 
Q 2534 397 2845 478 
Q 3156 559 3463 722 
L 3463 178 
Q 3153 47 2828 -22 
Q 2503 -91 2169 -91 
Q 1331 -91 842 396 
Q 353 884 353 1716 
Q 353 2575 817 3079 
Q 1281 3584 2069 3584 
Q 2775 3584 3186 3129 
Q 3597 2675 3597 1894 
z
M 3022 2063 
Q 3016 2534 2758 2815 
Q 2500 3097 2075 3097 
Q 1594 3097 1305 2825 
Q 1016 2553 972 2059 
L 3022 2063 
z
" transform="scale(0.015625)"/>
      <path id="DejaVuSans-76" d="M 191 3500 
L 800 3500 
L 1894 563 
L 2988 3500 
L 3597 3500 
L 2284 0 
L 1503 0 
L 191 3500 
z
" transform="scale(0.015625)"/>
      <path id="DejaVuSans-64" d="M 2906 2969 
L 2906 4863 
L 3481 4863 
L 3481 0 
L 2906 0 
L 2906 525 
Q 2725 213 2448 61 
Q 2172 -91 1784 -91 
Q 1150 -91 751 415 
Q 353 922 353 1747 
Q 353 2572 751 3078 
Q 1150 3584 1784 3584 
Q 2172 3584 2448 3432 
Q 2725 3281 2906 2969 
z
M 947 1747 
Q 947 1113 1208 752 
Q 1469 391 1925 391 
Q 2381 391 2643 752 
Q 2906 1113 2906 1747 
Q 2906 2381 2643 2742 
Q 2381 3103 1925 3103 
Q 1469 3103 1208 2742 
Q 947 2381 947 1747 
z
" transform="scale(0.015625)"/>
     </defs>
     <use xlink:href="#DejaVuSans-4e"/>
     <use xlink:href="#DejaVuSans-65" x="74.804688"/>
     <use xlink:href="#DejaVuSans-76" x="136.328125"/>
     <use xlink:href="#DejaVuSans-61" x="195.507812"/>
     <use xlink:href="#DejaVuSans-64" x="256.787109"/>
     <use xlink:href="#DejaVuSans-61" x="320.263672"/>
    </g>
   </g>
  </g>
 </g>
 <defs>
  <clipPath id="pc4e9750f6c">
   <rect x="66.377166" y="43.2" width="236.245669" height="277.2"/>
  </clipPath>
 </defs>
</svg>
