<?xml version="1.0" encoding="utf-8" standalone="no"?>
<!DOCTYPE svg PUBLIC "-//W3C//DTD SVG 1.1//EN"
  "http://www.w3.org/Graphics/SVG/1.1/DTD/svg11.dtd">
<svg xmlns:xlink="http://www.w3.org/1999/xlink" width="360pt" height="360pt" viewBox="0 0 360 360" xmlns="http://www.w3.org/2000/svg" version="1.1">
 <metadata>
  <rdf:RDF xmlns:dc="http://purl.org/dc/elements/1.1/" xmlns:cc="http://creativecommons.org/ns#" xmlns:rdf="http://www.w3.org/1999/02/22-rdf-syntax-ns#">
   <cc:Work>
    <dc:type rdf:resource="http://purl.org/dc/dcmitype/StillImage"/>
    <dc:date>2023-06-19T15:20:28.744339</dc:date>
    <dc:format>image/svg+xml</dc:format>
    <dc:creator>
     <cc:Agent>
      <dc:title>Matplotlib v3.7.1, https://matplotlib.org/</dc:title>
     </cc:Agent>
    </dc:creator>
   </cc:Work>
  </rdf:RDF>
 </metadata>
 <defs>
  <style type="text/css">*{stroke-linejoin: round; stroke-linecap: butt}</style>
 </defs>
 <g id="figure_1">
  <g id="patch_1">
   <path d="M 0 360 
L 360 360 
L 360 0 
L 0 0 
z
" style="fill: #ffffff"/>
  </g>
  <g id="axes_1">
   <g id="PatchCollection_1">
    <path d="M 94.971266 292.726387 
L 95.262539 292.048297 
L 95.175592 291.498309 
L 95.080916 291.447977 
L 95.071062 291.380544 
L 95.175689 290.98368 
L 95.148252 290.561504 
L 95.397597 289.639866 
L 95.475752 289.575815 
L 96.01038 289.430034 
L 96.569062 289.213729 
L 96.899557 288.973079 
L 97.335258 288.566747 
L 97.337837 288.563053 
L 97.461621 288.385704 
L 97.450125 287.49556 
L 97.582478 287.069326 
L 97.681694 286.958904 
L 98.060396 286.800081 
L 98.141643 286.682992 
L 98.159806 286.400318 
L 97.883991 285.426221 
L 97.956543 284.737118 
L 97.929686 284.332911 
L 97.851724 284.019226 
L 97.743619 283.809394 
L 97.626434 283.732108 
L 97.439981 283.694431 
L 97.226671 283.49339 
L 97.163586 283.36751 
L 97.205804 283.151205 
L 97.392354 282.879544 
L 98.722063 282.084945 
L 99.738473 281.988241 
L 100.093507 281.829418 
L 101.216958 281.652336 
L 101.770038 281.252283 
L 102.269114 281.040132 
L 102.506865 281.077616 
L 102.750607 281.256437 
L 103.030286 281.227551 
L 103.787884 280.606847 
L 104.208901 280.178295 
L 104.211799 280.067872 
L 103.977139 279.869053 
L 103.850679 279.53566 
L 103.910673 279.14691 
L 104.082055 278.822211 
L 104.370815 278.519153 
L 104.662088 278.400712 
L 105.158555 278.471139 
L 105.456397 278.413947 
L 105.81742 278.100262 
L 105.934799 277.923566 
L 105.928712 277.660793 
L 105.85046 277.506124 
L 105.043882 277.007145 
L 104.652524 276.857016 
L 104.462883 276.65385 
L 104.134513 276.057587 
L 104.077224 275.770565 
L 104.278652 275.05277 
L 104.341737 274.597747 
L 104.148907 274.255466 
L 103.796482 273.93753 
L 103.706057 273.774069 
L 103.654759 273.440676 
L 103.739001 273.239635 
L 103.997813 272.981209 
L 104.877137 272.393544 
L 105.795683 271.633724 
L 106.310796 271.083929 
L 106.666313 270.631129 
L 106.750748 270.456655 
L 106.762824 270.158524 
L 106.374171 269.363442 
L 106.003487 268.784858 
L 106.06377 268.515419 
L 106.241528 268.27245 
L 106.79625 267.908046 
L 106.962029 267.645273 
L 107.007241 267.506158 
L 106.977196 266.967279 
L 106.690851 266.607319 
L 106.496261 266.443826 
L 106.204817 266.198958 
L 106.014886 265.949323 
L 106.032952 265.85658 
L 106.222883 265.825665 
L 106.237954 265.755045 
L 106.210807 265.408223 
L 106.114296 265.328812 
L 105.891132 265.255873 
L 105.496103 265.273552 
L 105.140296 265.105744 
L 104.666532 264.368241 
L 104.64238 264.181305 
L 104.700634 264.081316 
L 105.061561 263.844723 
L 105.158072 263.698942 
L 105.182127 263.537704 
L 105.129887 262.939951 
L 105.129283 262.933036 
L 105.151696 262.086752 
L 105.08523 261.899043 
L 105.824473 261.333694 
L 105.969288 261.163665 
L 105.936054 260.922918 
L 105.386743 260.251591 
L 105.305109 259.931336 
L 106.39784 259.10534 
L 106.518599 258.939657 
L 106.434068 258.334603 
L 106.243847 257.731674 
L 106.249933 257.365047 
L 106.524686 256.764437 
L 106.832864 256.265361 
L 106.899747 256.009206 
L 106.908412 255.976021 
L 106.857016 255.828114 
L 106.621487 255.503416 
L 106.400931 254.931401 
L 106.424503 254.094295 
L 106.64815 253.654826 
L 106.759925 253.555417 
L 108.077462 253.076339 
L 108.669958 252.310046 
L 109.404949 251.197318 
L 110.001599 249.216569 
L 110.600954 248.289231 
L 110.567817 248.132437 
L 110.392571 247.896037 
L 109.917937 247.575686 
L 109.322446 246.871029 
L 109.177438 246.608159 
L 109.162367 246.484501 
L 109.289503 246.221728 
L 109.51536 245.902681 
L 109.522566 245.892501 
L 110.067775 245.122332 
L 110.231236 244.947858 
L 110.606653 244.674168 
L 111.039746 244.232671 
L 111.118675 244.045059 
L 110.918986 243.954344 
L 110.119944 243.971733 
L 109.781043 243.931834 
L 108.870225 243.483284 
L 108.743186 243.335281 
L 108.703867 243.178487 
L 108.618949 242.151063 
L 108.676624 241.795547 
L 108.891769 241.400324 
L 109.655067 240.850626 
L 109.794375 240.662917 
L 110.005588 239.568861 
L 110.149892 238.82138 
L 110.165253 238.410604 
L 110.504847 237.094004 
L 110.506497 237.087607 
L 110.557094 236.891447 
L 110.581922 236.160416 
L 110.742967 235.568693 
L 111.013082 235.12053 
L 111.073849 234.935043 
L 110.87474 233.596736 
L 110.887106 233.37589 
L 110.981202 233.239094 
L 111.660837 232.715963 
L 111.809613 232.541586 
L 111.928248 232.146363 
L 112.053355 231.331573 
L 112.059731 231.03122 
L 112.008335 230.86119 
L 111.633594 230.197978 
L 111.171519 229.846326 
L 110.519513 229.444148 
L 110.319439 229.176834 
L 110.301373 228.925074 
L 110.565885 228.236744 
L 110.553906 227.916006 
L 110.721134 227.575947 
L 111.061 227.589375 
L 111.215862 227.492284 
L 111.774931 226.823372 
L 112.057702 226.273674 
L 111.980029 224.917784 
L 111.825843 224.188975 
L 111.841107 224.027833 
L 112.148803 223.067359 
L 112.758785 222.550507 
L 113.648542 222.141567 
L 115.000085 221.747987 
L 116.694971 220.623666 
L 116.956268 220.544482 
L 116.961802 220.542805 
L 117.06865 220.484454 
L 117.15067 220.303411 
L 117.102397 219.94924 
L 117.095894 219.901522 
L 116.97127 219.751394 
L 116.66425 219.565907 
L 116.466687 219.159575 
L 116.49992 218.702524 
L 116.697097 218.140266 
L 117.024983 217.954683 
L 117.192115 217.612402 
L 117.179942 217.550573 
L 116.976197 217.389334 
L 116.957938 217.214957 
L 117.009526 217.126561 
L 117.176754 217.009569 
L 117.648007 216.804084 
L 118.350345 216.585461 
L 118.462797 216.426445 
L 118.484051 216.064359 
L 118.368508 215.78835 
L 118.468883 215.136924 
L 118.57834 214.916079 
L 118.775999 214.792421 
L 119.265801 214.134425 
L 119.405785 213.847307 
L 119.494085 213.407935 
L 119.524613 213.019282 
L 119.402984 212.723372 
L 119.241745 212.537886 
L 119.291555 211.625738 
L 119.291575 211.625361 
L 119.308791 211.310097 
L 119.546349 210.638867 
L 119.850857 210.267893 
L 120.316603 210.031687 
L 120.575415 209.806591 
L 121.084055 209.234769 
L 121.291279 208.934513 
L 121.769487 208.521708 
L 122.134955 208.28782 
L 122.60756 207.603451 
L 123.277535 207.601519 
L 125.130182 206.738328 
L 126.323771 206.236644 
L 127.19981 205.31346 
L 127.352064 205.121307 
L 127.540739 204.754681 
L 127.735596 204.551515 
L 127.890942 204.476354 
L 128.439287 204.361487 
L 128.756161 204.20904 
L 128.981276 204.047687 
L 129.024247 204.016887 
L 128.950729 202.952656 
L 128.972079 202.740602 
L 129.090907 202.583808 
L 129.770446 202.206168 
L 129.913812 202.062609 
L 130.142579 201.752981 
L 130.377336 201.162708 
L 130.947998 200.786807 
L 131.094262 200.450708 
L 131.012049 200.030755 
L 130.795647 199.708761 
L 130.588327 199.197126 
L 130.618759 199.029512 
L 130.813616 198.638926 
L 131.093876 198.274908 
L 131.203429 197.952915 
L 131.139571 196.882791 
L 130.703387 196.061335 
L 130.651509 195.818463 
L 130.953698 195.116414 
L 131.130683 194.928802 
L 131.475573 194.847072 
L 131.921128 194.827267 
L 132.626171 194.560243 
L 132.5131 194.350444 
L 132.447318 194.228386 
L 132.403587 194.147245 
L 132.198392 193.884086 
L 132.036864 193.54393 
L 132.113281 193.153055 
L 132.223124 192.994135 
L 132.323982 192.894919 
L 132.650516 192.921486 
L 133.269289 192.814251 
L 133.424151 192.708949 
L 133.485111 192.279141 
L 133.761506 191.858124 
L 134.18658 191.415274 
L 134.793566 191.069032 
L 135.752302 190.611498 
L 137.11592 189.748597 
L 137.290974 189.555768 
L 137.404681 189.329706 
L 137.525054 188.302669 
L 137.525151 188.171765 
L 137.310778 187.404023 
L 137.338505 187.197766 
L 137.421491 187.055945 
L 137.669869 186.978563 
L 138.094557 186.976147 
L 138.577306 186.810368 
L 138.717774 186.697724 
L 139.27153 186.00949 
L 139.245832 185.891725 
L 139.058509 185.701215 
L 138.087505 185.111135 
L 137.765994 185.057614 
L 137.722231 184.978492 
L 137.724549 184.86778 
L 137.88144 184.547815 
L 137.938246 184.27113 
L 138.009156 183.37374 
L 137.907041 183.076478 
L 137.530947 182.696423 
L 137.503994 182.452392 
L 138.273571 181.867432 
L 138.781149 181.645041 
L 138.799407 181.51037 
L 138.667538 181.011487 
L 138.633628 180.695773 
L 138.905773 180.481401 
L 139.251435 180.423919 
L 139.563285 180.017587 
L 139.618255 179.810073 
L 139.719113 179.679846 
L 139.914841 179.556188 
L 140.064776 179.571645 
L 140.569165 179.555415 
L 140.896955 179.315345 
L 140.945935 179.162994 
L 141.077418 179.043684 
L 141.111582 179.028833 
L 141.143786 179.014835 
L 141.497469 178.861095 
L 141.559684 178.751445 
L 141.513119 178.575136 
L 141.135287 178.100116 
L 141.116158 177.916754 
L 141.174702 177.775997 
L 141.330917 177.611281 
L 141.571567 177.485594 
L 142.388772 177.156451 
L 142.74709 176.932418 
L 142.809306 176.552846 
L 143.11903 176.323499 
L 143.282297 176.253458 
L 143.362675 176.163034 
L 143.638877 175.665697 
L 144.140561 175.240043 
L 144.113414 175.025284 
L 144.699437 174.70841 
L 144.962306 174.067708 
L 144.235623 173.670553 
L 144.09303 173.50062 
L 144.199009 173.333296 
L 144.338993 173.269051 
L 144.940183 173.344019 
L 145.299661 173.298227 
L 145.492973 173.211087 
L 145.627837 173.085303 
L 145.725991 172.899913 
L 145.808977 172.453972 
L 145.787627 172.248584 
L 145.619239 172.098455 
L 145.242469 171.957021 
L 144.972837 171.932676 
L 143.508553 171.279028 
L 143.523624 171.084846 
L 143.74901 170.336716 
L 144.320155 169.948353 
L 144.753151 169.780062 
L 144.871012 169.778613 
L 145.053504 169.879085 
L 145.182282 169.871356 
L 145.549682 169.211235 
L 145.49761 169.11627 
L 145.14818 168.994737 
L 144.749769 168.667913 
L 144.664368 167.303522 
L 144.679729 167.208653 
L 144.933421 166.872555 
L 144.925209 166.749476 
L 144.878637 166.669885 
L 144.71074 166.382947 
L 144.2078 166.287885 
L 143.683413 165.698384 
L 143.251093 164.583434 
L 142.879926 164.051415 
L 142.413504 163.585572 
L 142.567014 162.892315 
L 142.665167 162.74663 
L 143.002715 162.554478 
L 143.107051 162.393336 
L 143.196027 162.011445 
L 143.143955 161.803932 
L 143.662932 160.967212 
L 143.690958 160.870767 
L 143.718095 160.777378 
L 143.598495 160.404278 
L 143.629216 160.081898 
L 143.91189 159.353379 
L 144.179204 158.878842 
L 144.124041 158.616165 
L 143.964445 158.342379 
L 143.5898 158.064149 
L 143.030248 157.185791 
L 142.89577 156.474854 
L 142.570202 156.028526 
L 142.384715 155.996259 
L 142.258159 155.740732 
L 142.484221 155.136064 
L 143.117388 154.266111 
L 143.651146 153.854465 
L 144.33252 153.711293 
L 145.037564 153.27849 
L 145.228268 153.146041 
L 145.572674 152.755359 
L 145.66194 152.574316 
L 145.68358 152.291738 
L 145.681261 151.415023 
L 145.539731 151.26074 
L 145.604458 150.969371 
L 145.998135 150.772967 
L 146.314815 150.806201 
L 146.957547 150.967632 
L 147.400686 150.904934 
L 147.841798 150.816151 
L 148.582103 150.534056 
L 149.935384 150.060968 
L 150.111404 149.920887 
L 150.289 149.44289 
L 150.29177 149.435433 
L 150.629608 149.313997 
L 152.367292 149.405195 
L 152.851683 149.309746 
L 154.103333 149.290425 
L 154.693993 149.473979 
L 155.046998 149.481128 
L 155.654178 149.306558 
L 156.042734 148.876943 
L 156.78217 148.441146 
L 157.798967 148.272179 
L 158.24114 148.348016 
L 160.215513 149.052287 
L 160.798251 149.326556 
L 161.125848 149.398239 
L 161.373357 149.365972 
L 162.143224 149.061947 
L 163.042933 148.988139 
L 163.845646 148.666339 
L 164.483204 148.324324 
L 164.913935 148.093261 
L 165.591639 147.912605 
L 166.307309 147.82247 
L 166.740788 147.667704 
L 166.880773 147.570517 
L 166.948012 147.395753 
L 166.922217 147.287456 
L 166.678959 146.784226 
L 166.566314 146.410064 
L 166.630752 146.286696 
L 166.887535 146.130964 
L 166.94521 146.030106 
L 166.926951 145.929634 
L 166.653841 145.730429 
L 166.603412 145.64638 
L 166.737213 145.021521 
L 166.858746 144.937569 
L 167.274353 144.835068 
L 167.792847 144.88598 
L 168.096678 144.795072 
L 168.136963 144.633254 
L 167.790141 144.204992 
L 167.790238 144.059501 
L 167.899888 143.915555 
L 168.714195 143.346439 
L 169.026817 143.250894 
L 170.193356 143.29543 
L 170.503854 143.167231 
L 170.754841 142.976818 
L 171.229474 142.749982 
L 171.441917 142.66664 
L 171.5107 142.639656 
L 171.801586 142.597149 
L 172.369156 142.657625 
L 172.538316 142.73723 
L 173.00271 143.087144 
L 173.43957 143.144722 
L 173.623801 143.115933 
L 173.700701 143.047438 
L 173.931304 142.621204 
L 174.132731 142.414174 
L 174.317542 142.303944 
L 174.742906 142.211877 
L 175.256956 142.176132 
L 176.330461 142.262596 
L 177.011159 142.118941 
L 177.842662 141.723622 
L 178.665181 141.224642 
L 179.154982 141.014907 
L 179.724968 140.579882 
L 179.801481 140.167754 
L 179.72661 139.985358 
L 179.791338 139.893001 
L 179.972864 139.826921 
L 180.788233 139.747606 
L 181.24741 139.571007 
L 181.475501 139.383395 
L 181.746872 138.935232 
L 181.911878 138.058903 
L 182.294928 137.431339 
L 182.394241 137.371635 
L 183.09484 137.426895 
L 183.309019 137.312028 
L 183.545419 137.075146 
L 183.502621 136.906179 
L 182.951571 136.622732 
L 182.824725 136.515787 
L 182.79439 136.318031 
L 182.841245 136.211569 
L 183.015428 136.016808 
L 183.283901 135.871123 
L 183.650914 135.75645 
L 184.280507 135.171586 
L 184.453242 135.129755 
L 185.74711 134.995277 
L 185.910473 134.973154 
L 186.524416 135.12734 
L 187.498995 134.923788 
L 187.649993 134.738301 
L 187.885039 134.15392 
L 187.908998 133.931143 
L 188.269732 133.648565 
L 188.568443 133.56867 
L 188.874593 133.488776 
L 189.383426 133.443467 
L 189.500708 133.430231 
L 189.608619 133.355167 
L 189.664168 133.224843 
L 189.596253 133.14321 
L 189.068581 132.816482 
L 188.901836 132.635536 
L 188.806098 132.3176 
L 188.713451 132.198386 
L 188.210318 131.898226 
L 188.031207 131.708391 
L 188.003384 131.520779 
L 188.139021 131.392677 
L 188.694613 131.447744 
L 188.827255 131.42562 
L 189.138912 131.257716 
L 189.681944 130.685798 
L 189.916508 130.363418 
L 190.055333 130.107214 
L 190.04915 129.946072 
L 189.845308 129.667939 
L 188.60071 128.992554 
L 187.757517 128.454062 
L 187.630768 128.262006 
L 187.661586 128.091976 
L 187.821955 127.732016 
L 188.035844 127.450404 
L 188.21283 127.324331 
L 188.398413 127.268685 
L 189.813813 127.357467 
L 190.385731 127.55049 
L 190.9847 127.507886 
L 191.327947 127.420842 
L 191.451701 127.280471 
L 191.411126 126.97065 
L 191.444939 126.781395 
L 191.749447 126.06331 
L 191.970002 125.820631 
L 192.168531 125.847488 
L 192.349671 125.967378 
L 192.52569 126.026985 
L 192.769721 125.956365 
L 193.233342 125.642969 
L 193.465104 125.424346 
L 193.607407 125.071148 
L 193.187163 124.876773 
L 192.349864 124.613904 
L 191.94614 124.587143 
L 191.833399 124.361757 
L 191.849339 124.108259 
L 191.698148 123.82085 
L 191.720658 123.617974 
L 191.812242 123.454804 
L 191.904985 123.271539 
L 191.883345 123.028667 
L 191.6454 122.313286 
L 191.722686 121.624376 
L 191.828375 121.501878 
L 191.90257 121.499656 
L 191.974253 121.380345 
L 192.112788 121.288278 
L 191.831467 120.843979 
L 191.107874 120.420547 
L 191.058411 120.354274 
L 191.058411 120.137969 
L 191.423299 120.078362 
L 191.503773 119.917124 
L 191.501446 119.906101 
L 191.451122 119.667683 
L 191.14188 119.102431 
L 190.886932 118.850961 
L 190.719511 118.750875 
L 190.574503 118.780147 
L 190.474804 118.975585 
L 190.324289 119.077409 
L 190.138029 119.088036 
L 189.849945 119.064947 
L 189.759713 118.929696 
L 189.737203 118.816955 
L 189.795361 118.682187 
L 189.766089 118.574276 
L 189.094472 118.484431 
L 188.91256 118.368984 
L 188.745428 118.208422 
L 188.745428 118.050662 
L 188.87411 117.817644 
L 188.93903 117.641045 
L 188.835563 117.419523 
L 188.835563 117.261763 
L 188.948304 117.171531 
L 189.136786 116.974258 
L 189.189341 116.8506 
L 189.090221 116.72472 
L 188.669398 116.716026 
L 188.412518 116.656419 
L 187.805821 116.314427 
L 187.796547 116.257042 
L 187.963582 116.067111 
L 188.006765 115.857279 
L 187.792972 115.543884 
L 187.637917 114.98752 
L 187.7523 114.784353 
L 187.5786 114.486415 
L 187.433108 114.398116 
L 187.374178 114.303247 
L 187.374178 114.214947 
L 187.525562 113.919038 
L 187.472911 113.779922 
L 186.974221 113.506329 
L 186.183777 112.464608 
L 185.675523 112.109381 
L 185.659969 111.983501 
L 185.764789 111.583835 
L 185.743052 111.499979 
L 185.606739 111.464717 
L 185.2661 111.610595 
L 185.201083 111.60847 
L 185.0411 111.488966 
L 184.974537 111.365308 
L 184.971929 110.906131 
L 185.027865 110.709631 
L 185.016175 110.045066 
L 184.84914 109.731477 
L 184.443388 109.589947 
L 184.372686 109.454476 
L 184.360498 109.431124 
L 184.368613 109.225349 
L 184.429283 109.149029 
L 185.137515 108.967213 
L 185.715519 108.894951 
L 186.073257 108.626285 
L 186.070456 108.437127 
L 186.311975 108.077456 
L 186.65329 107.95061 
L 187.002914 107.749666 
L 187.306649 107.331451 
L 187.831809 107.007332 
L 187.843595 106.925215 
L 187.769497 106.814696 
L 187.743509 106.662925 
L 188.128298 106.296878 
L 188.956613 106.011209 
L 189.380431 106.035651 
L 189.483512 105.978652 
L 190.033306 105.417168 
L 190.182179 105.132368 
L 190.044706 104.831242 
L 190.308155 104.123204 
L 190.434132 103.952401 
L 190.422732 103.781502 
L 190.070307 103.629828 
L 189.850524 103.322422 
L 189.815649 103.081579 
L 189.930226 102.886334 
L 190.549192 102.33055 
L 190.815926 102.24882 
L 190.853216 102.323884 
L 190.955524 102.323884 
L 191.095122 102.253264 
L 191.537972 101.30757 
L 191.920539 101.148747 
L 192.064871 100.983548 
L 192.085448 100.845109 
L 192.02275 100.570646 
L 191.79263 100.214743 
L 191.627045 100.105673 
L 191.621731 99.917674 
L 191.738144 99.749673 
L 191.925949 99.59742 
L 192.439033 99.268277 
L 192.435941 99.124718 
L 192.249778 98.879721 
L 192.262144 98.680998 
L 192.324263 98.586033 
L 192.675142 98.243848 
L 193.234018 98.003198 
L 193.768066 97.899538 
L 194.293032 97.526536 
L 194.318633 97.201064 
L 194.371478 97.114987 
L 194.536098 96.991425 
L 194.946198 96.825936 
L 195.922033 95.914442 
L 195.978065 95.786437 
L 195.748332 95.63399 
L 195.723214 95.555254 
L 195.769585 95.489174 
L 196.274651 95.194038 
L 196.870624 94.709357 
L 197.004426 94.543868 
L 197.155134 94.510924 
L 197.40245 94.563962 
L 197.511037 94.491023 
L 197.69691 93.916883 
L 197.650249 93.828584 
L 197.033408 93.567936 
L 196.676443 93.130593 
L 196.220068 92.708706 
L 195.64216 92.333095 
L 195.47213 91.136415 
L 195.549899 91.026089 
L 195.612308 90.76776 
L 195.485172 90.374759 
L 195.675586 89.297293 
L 195.542267 88.734263 
L 194.94842 88.566262 
L 194.485378 87.855229 
L 194.056247 87.627718 
L 193.459307 86.828288 
L 193.381248 86.453064 
L 193.53698 85.8739 
L 194.202511 85.344586 
L 194.692795 85.129634 
L 195.175255 85.090025 
L 195.698192 84.929076 
L 197.359556 84.936708 
L 198.310853 85.220928 
L 199.079271 85.030708 
L 200.370337 84.156021 
L 200.487039 83.993817 
L 197.004426 84.019031 
L 197.102869 83.938364 
L 197.093692 83.825816 
L 197.015922 83.761765 
L 197.114849 82.768347 
L 197.688312 81.99336 
L 197.964707 81.275661 
L 197.970793 81.092396 
L 197.771298 80.889423 
L 197.382066 81.004386 
L 197.155231 80.995691 
L 197.0251 80.953377 
L 196.605049 80.597764 
L 196.617705 80.339435 
L 196.670743 80.251135 
L 196.842125 80.226887 
L 197.056884 80.293256 
L 197.328062 80.021982 
L 197.485822 79.023927 
L 197.264204 78.584651 
L 197.310769 78.491908 
L 198.158212 78.325839 
L 198.158116 78.204403 
L 198.428714 77.727354 
L 198.765199 77.665428 
L 199.020533 77.455596 
L 199.04855 77.376088 
L 198.955033 77.290011 
L 198.967399 77.239195 
L 199.497099 77.155146 
L 199.874256 77.177076 
L 200.254408 76.920872 
L 200.506554 76.324609 
L 200.774544 76.276016 
L 200.973942 76.128012 
L 201.135857 75.76583 
L 201.413218 75.509723 
L 201.703138 75.430118 
L 202.011703 75.213717 
L 202.098843 74.889115 
L 202.067639 74.78101 
L 202.363742 74.359221 
L 202.850258 74.253242 
L 203.635969 73.674658 
L 203.985303 73.343487 
L 204.141808 73.007002 
L 204.185571 72.784031 
L 203.574237 71.989239 
L 203.312237 71.81921 
L 203.174957 71.56088 
L 203.564963 70.90076 
L 203.873914 70.677789 
L 204.095436 70.602725 
L 204.186054 70.505537 
L 204.451339 69.922703 
L 204.488823 69.748229 
L 204.392215 69.28683 
L 204.641946 69.130036 
L 204.929161 68.840889 
L 205.207101 68.178546 
L 205.275983 67.602281 
L 205.335396 67.447805 
L 205.519627 67.315356 
L 205.922385 67.151992 
L 206.253846 66.372657 
L 206.22583 66.169588 
L 206.981883 65.646553 
L 206.963334 65.414695 
L 206.857259 65.156269 
L 206.454694 64.507065 
L 206.054931 64.365631 
L 205.889345 64.385532 
L 205.267771 64.250764 
L 205.217825 64.219753 
L 205.208454 64.102761 
L 205.10547 63.932731 
L 204.70561 63.667736 
L 203.702725 63.213004 
L 203.046565 62.824447 
L 202.849679 62.610268 
L 202.627771 62.627947 
L 202.53097 62.563896 
L 202.530873 62.40942 
L 202.580916 62.345369 
L 202.683996 62.265861 
L 203.046469 62.221711 
L 203.580903 62.351939 
L 205.115227 62.552979 
L 205.618361 62.239487 
L 206.096666 61.979033 
L 206.51546 61.875372 
L 207.30919 62.008015 
L 207.552738 62.394446 
L 207.793195 62.6065 
L 208.158662 62.78107 
L 208.227446 62.767835 
L 208.39622 62.617803 
L 208.687203 62.235913 
L 208.7186 62.06598 
L 208.931427 61.719448 
L 209.022142 61.651049 
L 209.481125 61.512127 
L 209.824952 61.489907 
L 210.343543 61.332823 
L 210.70959 61.071306 
L 210.900004 60.837129 
L 210.94995 60.698014 
L 210.940386 60.466252 
L 210.677323 59.934233 
L 210.417738 59.735607 
L 210.323738 59.572243 
L 210.361126 59.457473 
L 210.570475 59.243197 
L 211.117758 59.359996 
L 211.267789 59.35333 
L 211.439751 59.30464 
L 211.830433 59.021966 
L 212.177545 59.114516 
L 212.915338 58.931058 
L 213.149805 58.714656 
L 213.177918 58.573319 
L 213.365434 58.264174 
L 213.681245 58.15153 
L 214.40986 58.036663 
L 214.653795 57.81147 
L 215.047858 57.581737 
L 215.560845 57.561932 
L 215.767199 57.405138 
L 215.958096 57.058509 
L 216.324143 56.661065 
L 216.768346 56.407276 
L 217.938556 56.093881 
L 218.00734 56.138031 
L 218.1167 56.398678 
L 218.097862 56.570833 
L 218.291754 56.793901 
L 218.438694 56.813802 
L 219.105191 56.648409 
L 219.661941 56.851769 
L 219.818253 56.962191 
L 219.64291 57.176274 
L 219.92684 57.997827 
L 220.001518 58.512263 
L 220.089044 58.638143 
L 220.332689 58.914248 
L 220.639226 58.905553 
L 221.223509 59.305413 
L 221.695921 59.336424 
L 221.792916 59.407044 
L 222.290735 60.007365 
L 222.587804 60.084554 
L 222.675427 60.159619 
L 223.041764 60.82399 
L 222.9012 61.009574 
L 223.085238 61.187235 
L 223.38221 61.189361 
L 223.598321 60.996049 
L 223.967073 60.817131 
L 224.09846 61.051115 
L 224.951893 61.115263 
L 225.798853 60.743806 
L 226.258416 60.748153 
L 226.414728 60.812204 
L 226.586689 61.109659 
L 226.889458 61.188974 
L 227.305161 61.3819 
L 227.658359 61.64902 
L 227.755257 61.8632 
L 227.774095 62.022216 
L 227.93659 62.139208 
L 228.03967 62.108294 
L 228.161589 61.991302 
L 228.264766 61.7749 
L 228.664819 61.512224 
L 228.867985 61.532028 
L 229.236834 61.401801 
L 229.681326 61.127339 
L 230.130842 61.280558 
L 230.368304 61.501404 
L 231.099528 61.892472 
L 231.424516 61.908026 
L 231.943397 61.839724 
L 232.468556 61.722925 
L 232.665733 61.601586 
L 233.051295 60.804669 
L 233.384108 60.650289 
L 233.828794 59.972393 
L 233.809665 59.638999 
L 234.174843 59.002934 
L 234.481089 58.757647 
L 234.715556 58.700165 
L 235.043636 58.395271 
L 235.202846 58.019853 
L 234.849455 58.046517 
L 234.771203 57.971453 
L 234.714784 57.819102 
L 234.914568 57.395091 
L 235.255014 56.847325 
L 235.967883 56.14489 
L 236.768665 55.886174 
L 237.14727 55.8 
L 237.305707 55.802415 
L 237.982928 61.457737 
L 238.399694 67.831628 
L 238.710094 71.396261 
L 239.713173 84.836236 
L 239.823595 85.30662 
L 240.321512 91.992746 
L 241.100267 100.281789 
L 241.788887 108.921615 
L 241.867429 110.767692 
L 242.414809 118.597075 
L 242.607218 122.867745 
L 242.838337 127.99759 
L 243.192211 133.609632 
L 243.406584 136.152445 
L 243.929232 145.390466 
L 244.181765 148.996737 
L 244.324648 152.75845 
L 244.421143 154.396694 
L 244.569452 156.914613 
L 244.566747 156.951517 
L 244.585778 158.202781 
L 245.204551 171.232435 
L 245.284446 172.914791 
L 245.281354 172.941261 
L 245.563739 177.948635 
L 246.104936 190.008182 
L 246.123194 191.943139 
L 246.210531 193.770688 
L 246.386354 197.449878 
L 246.46963 201.971025 
L 246.472551 201.998692 
L 246.473193 202.00477 
L 246.872098 205.782877 
L 247.144339 209.448176 
L 247.129364 209.755195 
L 247.154482 210.711612 
L 247.157574 210.808703 
L 247.760503 218.139493 
L 247.816697 219.170176 
L 248.049263 223.435821 
L 248.299671 223.601117 
L 248.452118 223.570975 
L 249.099197 224.140188 
L 249.544945 224.29534 
L 249.677684 224.447111 
L 249.759124 224.983091 
L 249.922874 225.130031 
L 250.062569 225.176403 
L 250.162848 225.293492 
L 249.736421 226.272998 
L 249.72821 226.264013 
L 249.671115 226.172719 
L 249.070324 226.258505 
L 249.06693 226.25899 
L 248.960758 226.462156 
L 248.936606 226.672084 
L 248.954865 226.817866 
L 249.030798 226.908387 
L 249.44969 227.171547 
L 249.563107 227.446202 
L 249.546877 227.808385 
L 249.588129 227.883546 
L 249.850998 228.038698 
L 249.853027 228.407063 
L 249.581463 228.994245 
L 249.723476 229.125825 
L 249.784435 229.27605 
L 249.475001 229.446176 
L 249.356463 230.285698 
L 249.089536 230.440367 
L 248.628717 231.065612 
L 248.352998 231.55609 
L 248.410673 231.772491 
L 248.562444 231.900593 
L 248.507957 232.079511 
L 247.90155 232.404403 
L 248.026078 232.636261 
L 248.220259 232.744462 
L 248.696439 232.839331 
L 248.838935 232.806098 
L 248.849466 232.804745 
L 249.139772 233.150601 
L 249.234254 233.450472 
L 248.892263 234.401092 
L 248.672384 234.702991 
L 248.611134 235.009141 
L 248.716437 235.2894 
L 249.119291 235.725874 
L 249.176676 235.973577 
L 249.166629 236.18167 
L 248.429318 236.513034 
L 248.373286 236.721707 
L 248.470183 237.054811 
L 248.211275 237.410037 
L 247.865322 237.659672 
L 247.533764 237.762849 
L 247.065603 238.016155 
L 246.68748 238.505763 
L 246.645263 238.737718 
L 246.700522 239.541688 
L 246.788436 239.727271 
L 247.073428 239.950242 
L 247.097774 240.098245 
L 247.067729 240.385363 
L 246.631641 240.51588 
L 246.598505 240.703686 
L 246.60662 240.896129 
L 246.842729 241.164312 
L 246.769983 241.406314 
L 246.769307 241.813709 
L 246.810788 241.893898 
L 246.929676 242.123723 
L 246.926778 242.189996 
L 247.165979 242.40891 
L 247.692588 243.045555 
L 247.910148 243.465509 
L 247.841847 243.944297 
L 247.993773 244.226735 
L 248.57935 245.315354 
L 248.888592 245.497846 
L 249.235317 245.578997 
L 249.484468 245.895097 
L 249.61315 246.193132 
L 249.950697 246.331668 
L 250.096479 246.194968 
L 251.489079 245.93461 
L 251.911738 245.993251 
L 251.963617 246.205788 
L 252.017427 246.547876 
L 252.100317 246.687957 
L 252.760534 247.151771 
L 252.794815 247.172213 
L 253.487798 247.585443 
L 253.585854 247.626115 
L 253.914514 247.62969 
L 253.951128 248.583112 
L 253.870461 248.74377 
L 254.126954 248.899019 
L 254.358813 249.082574 
L 254.640908 249.033497 
L 254.85103 249.073879 
L 255.036903 249.413359 
L 254.939909 249.663959 
L 254.69694 249.845775 
L 254.358813 250.164581 
L 254.494064 250.348136 
L 255.188135 250.806032 
L 255.431256 250.966425 
L 256.020563 251.072694 
L 256.378012 251.207848 
L 256.648514 251.719869 
L 256.735461 252.135283 
L 256.841729 252.202908 
L 257.722695 252.428101 
L 258.576262 252.888233 
L 258.626461 252.915294 
L 258.626364 252.916356 
L 258.804799 253.105225 
L 258.952706 253.431759 
L 258.976471 253.665646 
L 259.111722 253.767664 
L 259.413621 253.87345 
L 259.709917 253.717235 
L 260.551661 253.957498 
L 260.94669 254.256693 
L 260.897999 254.336974 
L 260.768352 254.404019 
L 260.747678 254.505071 
L 260.998375 255.057861 
L 261.134012 255.116791 
L 261.484119 255.063947 
L 262.027827 255.186735 
L 262.15448 255.215331 
L 262.312917 255.251173 
L 262.48314 255.307882 
L 262.516952 255.322952 
L 263.009072 255.542832 
L 263.012959 255.564084 
L 263.01796 255.591425 
L 263.166833 255.824347 
L 263.24209 256.401481 
L 263.380626 256.398583 
L 263.589975 256.470749 
L 263.656098 256.557408 
L 263.803671 256.750815 
L 263.800773 256.832545 
L 263.467573 257.538651 
L 263.186058 257.690519 
L 263.102009 257.794469 
L 262.729103 259.226582 
L 262.767456 259.434386 
L 262.805016 259.51049 
L 262.885318 259.6732 
L 262.866189 259.878105 
L 262.734996 260.010748 
L 262.440149 260.067553 
L 262.107142 260.221159 
L 262.039517 260.298445 
L 262.000874 260.491661 
L 262.339001 261.167915 
L 262.464591 261.660615 
L 262.416287 261.786205 
L 262.31831 261.839647 
L 262.20375 261.902134 
L 262.000874 262.201618 
L 262.049178 262.452799 
L 261.923587 263.273868 
L 261.469628 264.336553 
L 261.556575 264.684341 
L 261.836737 265.157719 
L 261.904363 265.727705 
L 262.020292 266.056172 
L 262.145882 266.249387 
L 262.802815 266.684122 
L 263.89371 267.217494 
L 265.323698 268.217674 
L 266.292287 268.782346 
L 266.406577 268.901368 
L 266.754266 269.263453 
L 267.826612 269.485554 
L 267.841734 269.49406 
L 267.981184 269.572501 
L 268.309747 269.881646 
L 268.831429 270.712473 
L 268.947358 270.79942 
L 269.309871 270.864422 
L 270.348171 271.0506 
L 270.734602 271.42737 
L 270.744568 271.427823 
L 271.159676 271.446692 
L 272.434995 271.311441 
L 273.536324 271.282362 
L 273.816486 271.465917 
L 273.942076 271.668793 
L 274.026898 272.747322 
L 274.028734 272.77157 
L 273.078983 273.116267 
L 273.026235 274.057227 
L 273.086711 274.461917 
L 272.566382 275.40162 
L 272.156572 275.696467 
L 271.647932 275.860797 
L 271.456359 276.073817 
L 271.291256 276.361322 
L 271.238218 276.892664 
L 271.076014 277.241322 
L 270.968393 277.34817 
L 270.496657 277.447676 
L 270.165003 277.751411 
L 269.659647 278.964804 
L 269.643224 279.23434 
L 269.568353 279.329789 
L 269.29447 279.371716 
L 269.068988 279.320128 
L 268.91799 279.363794 
L 268.678982 279.543678 
L 268.456881 279.8136 
L 268.158073 280.439619 
L 268.094795 280.908359 
L 267.587115 281.470604 
L 267.459309 281.612147 
L 267.448392 281.767396 
L 267.664794 281.964282 
L 267.466168 282.263573 
L 267.092489 282.660438 
L 266.757164 282.700144 
L 266.630125 282.797138 
L 266.290748 283.155031 
L 266.171527 283.280756 
L 266.032992 283.610575 
L 265.635161 284.055551 
L 265.315003 284.333974 
L 264.946927 285.28585 
L 264.866743 285.841248 
L 264.913405 286.166044 
L 264.158125 286.588896 
L 263.893323 286.952334 
L 263.762226 287.26515 
L 263.703102 287.52232 
L 263.672381 288.924292 
L 263.430246 289.136567 
L 263.384877 289.176342 
L 263.202771 289.516015 
L 263.093701 290.132952 
L 263.064042 290.864659 
L 262.631916 290.904268 
L 261.759934 291.19042 
L 261.124158 291.569316 
L 260.037417 291.961254 
L 256.413564 289.867667 
L 254.806783 289.488964 
L 253.670943 289.485778 
L 253.63609 289.48568 
L 253.634835 289.483265 
L 252.405018 289.60528 
L 252.098771 289.67648 
L 252.011824 289.715123 
L 250.321188 290.497646 
L 248.649777 291.183561 
L 245.464166 291.670997 
L 244.965278 291.747332 
L 242.399158 292.139978 
L 241.123936 293.135038 
L 240.824452 293.589095 
L 240.238596 294.645555 
L 240.235144 294.65178 
L 239.211102 297.240868 
L 234.230727 296.139822 
L 232.612599 295.782091 
L 230.950945 296.352077 
L 229.414882 297.009009 
L 229.350267 297.049009 
L 229.212005 297.134599 
L 228.564733 297.694924 
L 227.803879 298.403694 
L 227.434326 298.747949 
L 227.849836 303.877725 
L 225.305767 303.328703 
L 225.297072 303.326674 
L 225.289827 303.324742 
L 223.782552 302.998691 
L 222.864779 303.11462 
L 221.695825 303.394783 
L 221.692418 303.396873 
L 220.759235 303.969662 
L 220.71999 303.993751 
L 219.531714 305.008036 
L 218.46671 306.4216 
L 216.99093 307.8 
L 213.512954 307.780678 
L 211.419657 307.687549 
L 209.695108 307.64668 
L 208.031717 307.607261 
L 203.644663 307.503297 
L 202.019705 307.464789 
L 201.197226 307.445298 
L 200.244143 307.422712 
L 197.526816 307.358317 
L 192.985387 307.250694 
L 184.490405 307.049381 
L 184.375279 307.046653 
L 183.950205 307.036992 
L 182.437336 307.003878 
L 173.361704 306.80523 
L 170.778425 306.735394 
L 167.606484 306.649645 
L 158.585254 306.405768 
L 155.683063 306.327311 
L 155.66293 306.326905 
L 150.602364 306.224907 
L 141.209675 305.939958 
L 140.944819 305.931923 
L 138.076554 305.844907 
L 136.775475 305.805436 
L 129.139254 305.616456 
L 121.46248 305.426472 
L 121.180277 305.419488 
L 117.284233 305.30159 
L 109.000043 305.050901 
L 105.216641 304.936412 
L 104.509158 304.915002 
L 104.512153 304.698504 
L 104.269377 304.300963 
L 103.609933 303.528101 
L 103.103322 303.073369 
L 102.943726 302.608395 
L 102.826347 301.934749 
L 102.664336 301.592468 
L 102.496335 301.411425 
L 101.962674 301.177538 
L 101.815637 301.038423 
L 101.683574 300.806564 
L 101.359455 300.508529 
L 100.951673 300.429214 
L 100.699914 300.464766 
L 100.619053 300.555287 
L 100.574324 300.838058 
L 100.435112 300.973019 
L 99.730358 301.286318 
L 99.451548 301.350272 
L 99.235726 301.34351 
L 98.948125 301.138025 
L 98.885427 300.875155 
L 99.068498 300.607938 
L 99.520816 300.435494 
L 99.692971 300.301305 
L 99.724272 300.081523 
L 99.64602 299.788415 
L 99.367016 299.383145 
L 98.971697 298.953627 
L 98.728632 298.75162 
L 96.676104 297.381626 
L 96.368505 297.029007 
L 96.046284 295.541923 
L 96.044965 295.535838 
L 95.919278 294.698731 
L 95.92237 294.217238 
L 95.811464 293.788879 
L 95.340405 293.335982 
L 95.036029 292.833336 
L 94.971266 292.726387 
" clip-path="url(#p2d4be3c5f6)" style="fill: #ff6100"/>
   </g>
   <g id="PathCollection_1">
    <defs>
     <path id="mc769fafe94" d="M 0 1.581139 
C 0.419323 1.581139 0.821528 1.41454 1.118034 1.118034 
C 1.41454 0.821528 1.581139 0.419323 1.581139 0 
C 1.581139 -0.419323 1.41454 -0.821528 1.118034 -1.118034 
C 0.821528 -1.41454 0.419323 -1.581139 0 -1.581139 
C -0.419323 -1.581139 -0.821528 -1.41454 -1.118034 -1.118034 
C -1.41454 -0.821528 -1.581139 -0.419323 -1.581139 0 
C -1.581139 0.419323 -1.41454 0.821528 -1.118034 1.118034 
C -0.821528 1.41454 -0.419323 1.581139 0 1.581139 
z
" style="stroke: #000000"/>
    </defs>
    <g clip-path="url(#p2d4be3c5f6)">
     <use xlink:href="#mc769fafe94" x="193.43902" y="258.538928" style="stroke: #000000"/>
    </g>
   </g>
   <g id="text_1">
    <!-- Concord -->
    <g transform="translate(196.43902 255.538928) scale(0.1 -0.1)">
     <defs>
      <path id="DejaVuSans-43" d="M 4122 4306 
L 4122 3641 
Q 3803 3938 3442 4084 
Q 3081 4231 2675 4231 
Q 1875 4231 1450 3742 
Q 1025 3253 1025 2328 
Q 1025 1406 1450 917 
Q 1875 428 2675 428 
Q 3081 428 3442 575 
Q 3803 722 4122 1019 
L 4122 359 
Q 3791 134 3420 21 
Q 3050 -91 2638 -91 
Q 1578 -91 968 557 
Q 359 1206 359 2328 
Q 359 3453 968 4101 
Q 1578 4750 2638 4750 
Q 3056 4750 3426 4639 
Q 3797 4528 4122 4306 
z
" transform="scale(0.015625)"/>
      <path id="DejaVuSans-6f" d="M 1959 3097 
Q 1497 3097 1228 2736 
Q 959 2375 959 1747 
Q 959 1119 1226 758 
Q 1494 397 1959 397 
Q 2419 397 2687 759 
Q 2956 1122 2956 1747 
Q 2956 2369 2687 2733 
Q 2419 3097 1959 3097 
z
M 1959 3584 
Q 2709 3584 3137 3096 
Q 3566 2609 3566 1747 
Q 3566 888 3137 398 
Q 2709 -91 1959 -91 
Q 1206 -91 779 398 
Q 353 888 353 1747 
Q 353 2609 779 3096 
Q 1206 3584 1959 3584 
z
" transform="scale(0.015625)"/>
      <path id="DejaVuSans-6e" d="M 3513 2113 
L 3513 0 
L 2938 0 
L 2938 2094 
Q 2938 2591 2744 2837 
Q 2550 3084 2163 3084 
Q 1697 3084 1428 2787 
Q 1159 2491 1159 1978 
L 1159 0 
L 581 0 
L 581 3500 
L 1159 3500 
L 1159 2956 
Q 1366 3272 1645 3428 
Q 1925 3584 2291 3584 
Q 2894 3584 3203 3211 
Q 3513 2838 3513 2113 
z
" transform="scale(0.015625)"/>
      <path id="DejaVuSans-63" d="M 3122 3366 
L 3122 2828 
Q 2878 2963 2633 3030 
Q 2388 3097 2138 3097 
Q 1578 3097 1268 2742 
Q 959 2388 959 1747 
Q 959 1106 1268 751 
Q 1578 397 2138 397 
Q 2388 397 2633 464 
Q 2878 531 3122 666 
L 3122 134 
Q 2881 22 2623 -34 
Q 2366 -91 2075 -91 
Q 1284 -91 818 406 
Q 353 903 353 1747 
Q 353 2603 823 3093 
Q 1294 3584 2113 3584 
Q 2378 3584 2631 3529 
Q 2884 3475 3122 3366 
z
" transform="scale(0.015625)"/>
      <path id="DejaVuSans-72" d="M 2631 2963 
Q 2534 3019 2420 3045 
Q 2306 3072 2169 3072 
Q 1681 3072 1420 2755 
Q 1159 2438 1159 1844 
L 1159 0 
L 581 0 
L 581 3500 
L 1159 3500 
L 1159 2956 
Q 1341 3275 1631 3429 
Q 1922 3584 2338 3584 
Q 2397 3584 2469 3576 
Q 2541 3569 2628 3553 
L 2631 2963 
z
" transform="scale(0.015625)"/>
      <path id="DejaVuSans-64" d="M 2906 2969 
L 2906 4863 
L 3481 4863 
L 3481 0 
L 2906 0 
L 2906 525 
Q 2725 213 2448 61 
Q 2172 -91 1784 -91 
Q 1150 -91 751 415 
Q 353 922 353 1747 
Q 353 2572 751 3078 
Q 1150 3584 1784 3584 
Q 2172 3584 2448 3432 
Q 2725 3281 2906 2969 
z
M 947 1747 
Q 947 1113 1208 752 
Q 1469 391 1925 391 
Q 2381 391 2643 752 
Q 2906 1113 2906 1747 
Q 2906 2381 2643 2742 
Q 2381 3103 1925 3103 
Q 1469 3103 1208 2742 
Q 947 2381 947 1747 
z
" transform="scale(0.015625)"/>
     </defs>
     <use xlink:href="#DejaVuSans-43"/>
     <use xlink:href="#DejaVuSans-6f" x="69.824219"/>
     <use xlink:href="#DejaVuSans-6e" x="131.005859"/>
     <use xlink:href="#DejaVuSans-63" x="194.384766"/>
     <use xlink:href="#DejaVuSans-6f" x="249.365234"/>
     <use xlink:href="#DejaVuSans-72" x="310.546875"/>
     <use xlink:href="#DejaVuSans-64" x="349.910156"/>
    </g>
   </g>
   <g id="text_2">
    <!-- New Hampshire -->
    <g transform="translate(137.044688 37.2) scale(0.12 -0.12)">
     <defs>
      <path id="DejaVuSans-4e" d="M 628 4666 
L 1478 4666 
L 3547 763 
L 3547 4666 
L 4159 4666 
L 4159 0 
L 3309 0 
L 1241 3903 
L 1241 0 
L 628 0 
L 628 4666 
z
" transform="scale(0.015625)"/>
      <path id="DejaVuSans-65" d="M 3597 1894 
L 3597 1613 
L 953 1613 
Q 991 1019 1311 708 
Q 1631 397 2203 397 
Q 2534 397 2845 478 
Q 3156 559 3463 722 
L 3463 178 
Q 3153 47 2828 -22 
Q 2503 -91 2169 -91 
Q 1331 -91 842 396 
Q 353 884 353 1716 
Q 353 2575 817 3079 
Q 1281 3584 2069 3584 
Q 2775 3584 3186 3129 
Q 3597 2675 3597 1894 
z
M 3022 2063 
Q 3016 2534 2758 2815 
Q 2500 3097 2075 3097 
Q 1594 3097 1305 2825 
Q 1016 2553 972 2059 
L 3022 2063 
z
" transform="scale(0.015625)"/>
      <path id="DejaVuSans-77" d="M 269 3500 
L 844 3500 
L 1563 769 
L 2278 3500 
L 2956 3500 
L 3675 769 
L 4391 3500 
L 4966 3500 
L 4050 0 
L 3372 0 
L 2619 2869 
L 1863 0 
L 1184 0 
L 269 3500 
z
" transform="scale(0.015625)"/>
      <path id="DejaVuSans-20" transform="scale(0.015625)"/>
      <path id="DejaVuSans-48" d="M 628 4666 
L 1259 4666 
L 1259 2753 
L 3553 2753 
L 3553 4666 
L 4184 4666 
L 4184 0 
L 3553 0 
L 3553 2222 
L 1259 2222 
L 1259 0 
L 628 0 
L 628 4666 
z
" transform="scale(0.015625)"/>
      <path id="DejaVuSans-61" d="M 2194 1759 
Q 1497 1759 1228 1600 
Q 959 1441 959 1056 
Q 959 750 1161 570 
Q 1363 391 1709 391 
Q 2188 391 2477 730 
Q 2766 1069 2766 1631 
L 2766 1759 
L 2194 1759 
z
M 3341 1997 
L 3341 0 
L 2766 0 
L 2766 531 
Q 2569 213 2275 61 
Q 1981 -91 1556 -91 
Q 1019 -91 701 211 
Q 384 513 384 1019 
Q 384 1609 779 1909 
Q 1175 2209 1959 2209 
L 2766 2209 
L 2766 2266 
Q 2766 2663 2505 2880 
Q 2244 3097 1772 3097 
Q 1472 3097 1187 3025 
Q 903 2953 641 2809 
L 641 3341 
Q 956 3463 1253 3523 
Q 1550 3584 1831 3584 
Q 2591 3584 2966 3190 
Q 3341 2797 3341 1997 
z
" transform="scale(0.015625)"/>
      <path id="DejaVuSans-6d" d="M 3328 2828 
Q 3544 3216 3844 3400 
Q 4144 3584 4550 3584 
Q 5097 3584 5394 3201 
Q 5691 2819 5691 2113 
L 5691 0 
L 5113 0 
L 5113 2094 
Q 5113 2597 4934 2840 
Q 4756 3084 4391 3084 
Q 3944 3084 3684 2787 
Q 3425 2491 3425 1978 
L 3425 0 
L 2847 0 
L 2847 2094 
Q 2847 2600 2669 2842 
Q 2491 3084 2119 3084 
Q 1678 3084 1418 2786 
Q 1159 2488 1159 1978 
L 1159 0 
L 581 0 
L 581 3500 
L 1159 3500 
L 1159 2956 
Q 1356 3278 1631 3431 
Q 1906 3584 2284 3584 
Q 2666 3584 2933 3390 
Q 3200 3197 3328 2828 
z
" transform="scale(0.015625)"/>
      <path id="DejaVuSans-70" d="M 1159 525 
L 1159 -1331 
L 581 -1331 
L 581 3500 
L 1159 3500 
L 1159 2969 
Q 1341 3281 1617 3432 
Q 1894 3584 2278 3584 
Q 2916 3584 3314 3078 
Q 3713 2572 3713 1747 
Q 3713 922 3314 415 
Q 2916 -91 2278 -91 
Q 1894 -91 1617 61 
Q 1341 213 1159 525 
z
M 3116 1747 
Q 3116 2381 2855 2742 
Q 2594 3103 2138 3103 
Q 1681 3103 1420 2742 
Q 1159 2381 1159 1747 
Q 1159 1113 1420 752 
Q 1681 391 2138 391 
Q 2594 391 2855 752 
Q 3116 1113 3116 1747 
z
" transform="scale(0.015625)"/>
      <path id="DejaVuSans-73" d="M 2834 3397 
L 2834 2853 
Q 2591 2978 2328 3040 
Q 2066 3103 1784 3103 
Q 1356 3103 1142 2972 
Q 928 2841 928 2578 
Q 928 2378 1081 2264 
Q 1234 2150 1697 2047 
L 1894 2003 
Q 2506 1872 2764 1633 
Q 3022 1394 3022 966 
Q 3022 478 2636 193 
Q 2250 -91 1575 -91 
Q 1294 -91 989 -36 
Q 684 19 347 128 
L 347 722 
Q 666 556 975 473 
Q 1284 391 1588 391 
Q 1994 391 2212 530 
Q 2431 669 2431 922 
Q 2431 1156 2273 1281 
Q 2116 1406 1581 1522 
L 1381 1569 
Q 847 1681 609 1914 
Q 372 2147 372 2553 
Q 372 3047 722 3315 
Q 1072 3584 1716 3584 
Q 2034 3584 2315 3537 
Q 2597 3491 2834 3397 
z
" transform="scale(0.015625)"/>
      <path id="DejaVuSans-68" d="M 3513 2113 
L 3513 0 
L 2938 0 
L 2938 2094 
Q 2938 2591 2744 2837 
Q 2550 3084 2163 3084 
Q 1697 3084 1428 2787 
Q 1159 2491 1159 1978 
L 1159 0 
L 581 0 
L 581 4863 
L 1159 4863 
L 1159 2956 
Q 1366 3272 1645 3428 
Q 1925 3584 2291 3584 
Q 2894 3584 3203 3211 
Q 3513 2838 3513 2113 
z
" transform="scale(0.015625)"/>
      <path id="DejaVuSans-69" d="M 603 3500 
L 1178 3500 
L 1178 0 
L 603 0 
L 603 3500 
z
M 603 4863 
L 1178 4863 
L 1178 4134 
L 603 4134 
L 603 4863 
z
" transform="scale(0.015625)"/>
     </defs>
     <use xlink:href="#DejaVuSans-4e"/>
     <use xlink:href="#DejaVuSans-65" x="74.804688"/>
     <use xlink:href="#DejaVuSans-77" x="136.328125"/>
     <use xlink:href="#DejaVuSans-20" x="218.115234"/>
     <use xlink:href="#DejaVuSans-48" x="249.902344"/>
     <use xlink:href="#DejaVuSans-61" x="325.097656"/>
     <use xlink:href="#DejaVuSans-6d" x="386.376953"/>
     <use xlink:href="#DejaVuSans-70" x="483.789062"/>
     <use xlink:href="#DejaVuSans-73" x="547.265625"/>
     <use xlink:href="#DejaVuSans-68" x="599.365234"/>
     <use xlink:href="#DejaVuSans-69" x="662.744141"/>
     <use xlink:href="#DejaVuSans-72" x="690.527344"/>
     <use xlink:href="#DejaVuSans-65" x="729.390625"/>
    </g>
   </g>
  </g>
 </g>
 <defs>
  <clipPath id="p2d4be3c5f6">
   <rect x="86.018393" y="43.2" width="196.963214" height="277.2"/>
  </clipPath>
 </defs>
</svg>
