<?xml version="1.0" encoding="utf-8" standalone="no"?>
<!DOCTYPE svg PUBLIC "-//W3C//DTD SVG 1.1//EN"
  "http://www.w3.org/Graphics/SVG/1.1/DTD/svg11.dtd">
<svg xmlns:xlink="http://www.w3.org/1999/xlink" width="360pt" height="360pt" viewBox="0 0 360 360" xmlns="http://www.w3.org/2000/svg" version="1.1">
 <metadata>
  <rdf:RDF xmlns:dc="http://purl.org/dc/elements/1.1/" xmlns:cc="http://creativecommons.org/ns#" xmlns:rdf="http://www.w3.org/1999/02/22-rdf-syntax-ns#">
   <cc:Work>
    <dc:type rdf:resource="http://purl.org/dc/dcmitype/StillImage"/>
    <dc:date>2023-06-19T15:20:26.725367</dc:date>
    <dc:format>image/svg+xml</dc:format>
    <dc:creator>
     <cc:Agent>
      <dc:title>Matplotlib v3.7.1, https://matplotlib.org/</dc:title>
     </cc:Agent>
    </dc:creator>
   </cc:Work>
  </rdf:RDF>
 </metadata>
 <defs>
  <style type="text/css">*{stroke-linejoin: round; stroke-linecap: butt}</style>
 </defs>
 <g id="figure_1">
  <g id="patch_1">
   <path d="M 0 360 
L 360 360 
L 360 0 
L 0 0 
z
" style="fill: #ffffff"/>
  </g>
  <g id="axes_1">
   <g id="PatchCollection_1">
    <path d="M 305.583761 229.939266 
L 305.760852 229.694418 
L 305.953856 229.440844 
L 306.098095 229.340749 
L 306.484809 229.361089 
L 306.990257 229.109215 
L 307.344953 229.14258 
L 308.21748 228.988363 
L 308.515873 228.93777 
L 309.053595 228.827185 
L 308.78228 229.133341 
L 308.429027 229.270426 
L 307.905196 229.441678 
L 307.381366 229.633078 
L 306.874763 229.907409 
L 306.626321 230.02239 
L 305.52319 230.120978 
L 305.583761 229.939266 
" clip-path="url(#p9dd6a05889)" style="fill: #00a2c1"/>
    <path d="M 302.119862 234.996859 
L 302.190185 234.899844 
L 302.463265 234.785889 
L 302.587517 234.665775 
L 302.640388 234.440946 
L 304.003766 234.877739 
L 304.101295 235.121047 
L 303.914964 236.264698 
L 303.634698 236.401751 
L 303.586928 236.374032 
L 303.588981 235.701599 
L 303.395977 235.360249 
L 303.291776 235.283285 
L 302.837498 235.145718 
L 302.238436 235.168817 
L 302.1522 235.10722 
L 302.119862 234.996859 
" clip-path="url(#p9dd6a05889)" style="fill: #00a2c1"/>
    <path d="M 299.835929 232.269717 
L 300.636594 231.925416 
L 301.627856 231.810659 
L 301.539021 232.081911 
L 300.865337 232.413187 
L 300.674707 232.700158 
L 300.293447 232.987194 
L 299.759671 232.671477 
L 299.835929 232.269717 
" clip-path="url(#p9dd6a05889)" style="fill: #00a2c1"/>
    <path d="M 234.246835 253.975751 
L 234.468071 253.615922 
L 234.636564 253.394269 
L 234.560242 253.115928 
L 234.546639 252.729953 
L 234.867457 252.450841 
L 235.246374 252.313852 
L 235.58519 252.295116 
L 235.585618 252.294202 
L 235.757084 251.927973 
L 235.884192 251.521208 
L 236.007097 251.201995 
L 236.14399 250.971359 
L 236.004819 250.755641 
L 236.047327 250.436556 
L 236.013609 250.163605 
L 236.053327 249.976087 
L 236.111054 249.921406 
L 236.216572 249.821458 
L 236.518287 249.535668 
L 236.722456 249.47651 
L 237.068265 249.514559 
L 237.359735 249.548014 
L 237.363529 249.54845 
L 237.945893 249.615295 
L 238.430456 249.559056 
L 239.013542 249.427232 
L 239.534229 249.419917 
L 239.756876 249.312219 
L 240.107273 249.424345 
L 240.305667 249.645228 
L 240.373103 250.201878 
L 240.515978 250.43561 
L 240.528892 250.456736 
L 240.837422 250.849513 
L 240.626879 251.157593 
L 240.542687 251.280788 
L 239.785558 251.921171 
L 238.929841 252.648497 
L 238.458111 252.952087 
L 238.138833 253.210794 
L 237.908262 253.04769 
L 237.8998 253.05147 
L 237.55841 253.20396 
L 237.075644 253.444381 
L 236.697849 253.51371 
L 236.127885 253.799398 
L 235.78939 253.872576 
L 235.490613 254.092176 
L 235.059017 254.13401 
L 234.627581 254.300707 
L 234.430279 254.237025 
L 234.180907 254.097534 
L 234.246835 253.975751 
" clip-path="url(#p9dd6a05889)" style="fill: #00a2c1"/>
    <path d="M 166.386994 145.906692 
L 167.253073 145.070481 
L 168.129964 144.521145 
L 168.712023 144.528235 
L 168.513533 144.925247 
L 167.653421 145.785327 
L 166.795555 145.97724 
L 166.386994 145.906692 
" clip-path="url(#p9dd6a05889)" style="fill: #00a2c1"/>
    <path d="M 163.821737 145.400185 
L 165.156146 144.273988 
L 166.253117 144.41797 
L 165.91119 144.83699 
L 164.889322 145.287194 
L 164.202997 145.647472 
L 163.821737 145.400185 
" clip-path="url(#p9dd6a05889)" style="fill: #00a2c1"/>
    <path d="M 57.68785 197.989175 
L 57.688267 197.39547 
L 59.103906 196.919024 
L 61.428775 195.927056 
L 63.076686 195.09261 
L 64.607948 194.393998 
L 65.739247 193.785856 
L 66.900767 193.082688 
L 67.582857 192.862415 
L 68.366101 192.309871 
L 69.125188 191.511003 
L 69.87959 191.087203 
L 70.515226 190.647554 
L 70.840567 190.367641 
L 71.150894 190.343772 
L 71.381465 190.386858 
L 71.498435 190.362636 
L 71.76805 190.179161 
L 71.939335 190.015897 
L 73.042177 189.651961 
L 73.643389 189.269194 
L 74.340686 188.993355 
L 74.972504 188.854441 
L 75.93377 188.540232 
L 77.361697 188.290283 
L 77.687455 187.944121 
L 77.746609 187.776289 
L 77.974234 187.130464 
L 78.082317 187.094757 
L 78.221552 186.988983 
L 78.484879 186.611702 
L 78.560335 186.375452 
L 79.606201 185.518869 
L 79.78265 185.522077 
L 80.087459 185.368085 
L 80.13555 184.610955 
L 80.565477 183.943655 
L 81.52793 183.545841 
L 81.935368 183.449596 
L 82.416626 183.42393 
L 83.102436 183.0358 
L 83.924501 182.570556 
L 84.758659 182.400522 
L 86.349946 181.341824 
L 86.834412 180.902304 
L 86.901784 180.652067 
L 86.738135 180.379372 
L 86.645098 180.366539 
L 86.592819 180.215781 
L 86.507146 179.968725 
L 86.442983 179.529205 
L 86.610161 179.261258 
L 86.64189 179.060812 
L 86.445036 178.707912 
L 86.232174 178.677499 
L 85.900769 178.229894 
L 85.608889 177.665672 
L 84.941493 177.610748 
L 85.15644 177.180853 
L 85.159617 176.43014 
L 85.04733 176.11253 
L 84.944465 175.968308 
L 84.736137 175.676219 
L 84.303002 175.387483 
L 83.359766 175.32656 
L 82.933046 174.97366 
L 81.76203 174.444311 
L 81.492512 174.139535 
L 81.461841 173.512946 
L 81.755582 173.042339 
L 81.967322 172.461659 
L 81.958146 172.135227 
L 81.795171 171.905586 
L 81.504885 171.844448 
L 79.74396 171.473573 
L 79.73719 171.303989 
L 79.897952 171.136714 
L 80.05557 170.981118 
L 80.199071 170.599955 
L 80.163172 170.407143 
L 80.144982 170.270507 
L 80.127305 170.115648 
L 80.201478 169.967527 
L 80.311807 169.901567 
L 80.461495 169.733424 
L 80.546004 169.638497 
L 80.719277 169.542251 
L 80.773816 169.362593 
L 80.757743 169.186144 
L 80.703204 169.054609 
L 80.639041 168.762665 
L 80.578085 168.688877 
L 80.430509 168.400141 
L 80.44655 168.079323 
L 80.505035 167.637814 
L 80.429162 167.243209 
L 80.434628 166.963367 
L 80.436893 166.847416 
L 80.340648 166.318067 
L 80.163557 165.907581 
L 79.872223 165.551313 
L 81.496233 165.190971 
L 83.03558 164.948176 
L 84.354204 164.563195 
L 86.644906 163.995316 
L 87.386026 163.754703 
L 87.456606 163.783576 
L 89.262873 163.4788 
L 90.244607 163.238186 
L 91.858383 163.023239 
L 93.863814 162.498092 
L 96.653354 162.115774 
L 98.531356 161.948243 
L 98.734466 161.959087 
L 99.0369 162.074998 
L 99.280622 162.061511 
L 102.337407 161.892357 
L 102.706668 161.973107 
L 106.173743 162.073266 
L 106.72016 162.130885 
L 109.556636 161.924278 
L 110.861914 161.920493 
L 113.457328 162.210929 
L 114.356185 162.252043 
L 114.380352 162.253148 
L 114.970657 162.128029 
L 115.329972 162.163319 
L 115.72461 162.310863 
L 116.693511 162.519395 
L 117.267775 162.519395 
L 118.214218 162.753592 
L 120.10069 162.94929 
L 120.346557 162.996828 
L 120.715119 163.068089 
L 121.108089 163.08721 
L 121.906957 163.026254 
L 122.012826 163.148165 
L 122.856609 163.379154 
L 123.38599 163.590893 
L 123.793428 164.081744 
L 125.111026 164.892226 
L 125.322765 165.004961 
L 126.139053 165.267422 
L 126.336287 165.375666 
L 126.978114 165.72791 
L 127.778174 166.166994 
L 128.618748 166.407607 
L 129.156777 166.445759 
L 129.158941 166.445913 
L 130.226109 165.939214 
L 131.004989 165.805786 
L 132.282196 165.447144 
L 132.9981 165.332868 
L 133.752054 165.105088 
L 134.232546 165.063721 
L 135.353671 164.967201 
L 136.202972 164.955362 
L 136.544321 165.047758 
L 137.821239 165.073006 
L 139.429145 164.856422 
L 140.743534 164.939995 
L 141.695464 164.745836 
L 142.11211 164.807626 
L 142.707644 164.733517 
L 144.137559 164.958346 
L 145.209732 165.270149 
L 146.306414 165.262513 
L 146.667206 165.164856 
L 147.631038 165.309064 
L 147.830843 165.287024 
L 148.787617 164.827805 
L 149.36711 164.609329 
L 149.924531 164.542759 
L 150.22982 164.573718 
L 150.949126 164.396723 
L 151.375845 164.173562 
L 152.882629 164.03776 
L 153.706584 163.754799 
L 154.411036 163.336934 
L 154.925242 162.95375 
L 155.199146 162.945242 
L 155.973642 162.921187 
L 156.406874 162.656352 
L 156.895543 162.212501 
L 157.76021 161.098783 
L 158.141919 160.710112 
L 158.580306 160.524657 
L 158.901647 160.388717 
L 160.32181 159.581444 
L 161.139336 159.271419 
L 161.316858 159.204098 
L 161.631612 158.937242 
L 161.827856 158.856428 
L 162.117362 158.920881 
L 162.75566 158.721236 
L 163.219691 158.162019 
L 164.343354 157.634851 
L 164.981525 157.24756 
L 165.204332 157.187439 
L 166.478561 157.106235 
L 166.544933 157.102006 
L 167.294266 157.499338 
L 167.76205 157.546145 
L 168.84667 157.517528 
L 170.041555 157.137103 
L 170.812287 156.991837 
L 171.041126 156.87214 
L 171.385781 156.481737 
L 171.645803 156.001152 
L 171.850485 155.524995 
L 171.989559 154.70768 
L 172.071111 153.125825 
L 171.945857 152.148301 
L 171.787508 150.912505 
L 171.538265 149.797279 
L 171.022936 148.173236 
L 170.838038 148.082191 
L 168.783758 147.07065 
L 168.857738 146.4747 
L 169.202746 146.12164 
L 170.027728 145.678944 
L 171.055242 145.526171 
L 171.520428 145.090212 
L 171.675671 145.400185 
L 171.304614 146.238129 
L 171.876503 146.287631 
L 173.464775 145.402142 
L 173.710168 145.460852 
L 174.29473 145.165443 
L 174.285609 144.976304 
L 174.265503 144.559355 
L 173.993867 143.987947 
L 173.65287 143.769021 
L 172.938698 143.214103 
L 171.953917 142.918373 
L 171.711058 142.681738 
L 170.211685 142.973489 
L 169.652243 143.148239 
L 169.278619 143.087861 
L 169.417373 142.773011 
L 169.757824 142.297687 
L 169.726705 141.852713 
L 169.333511 141.595129 
L 168.866433 141.617201 
L 168.693159 141.458525 
L 168.507534 141.078613 
L 168.070484 140.888336 
L 166.772745 140.83107 
L 166.329632 140.877813 
L 166.0801 140.690937 
L 166.14266 140.378172 
L 166.505472 140.220362 
L 166.769922 139.556526 
L 166.803223 139.07777 
L 166.485357 138.665359 
L 166.967449 137.614393 
L 167.072645 137.487092 
L 168.347991 135.503862 
L 169.185325 135.352148 
L 170.368693 135.339379 
L 170.502602 135.355484 
L 171.744487 135.006627 
L 172.240118 134.791647 
L 173.108346 134.202659 
L 173.186369 132.881724 
L 174.179267 132.372972 
L 174.317829 132.438868 
L 174.588246 132.430238 
L 174.787313 132.328186 
L 175.255065 132.27955 
L 176.927262 131.247255 
L 178.11002 130.858039 
L 178.346238 130.740043 
L 178.943151 130.744213 
L 179.075039 130.761024 
L 179.185465 130.783738 
L 179.242763 130.865162 
L 179.334773 130.890795 
L 179.997101 130.688872 
L 180.313941 130.487848 
L 180.641142 130.352848 
L 180.872708 130.157887 
L 181.16985 130.080763 
L 182.50089 129.222415 
L 182.867779 128.951553 
L 184.126344 128.022397 
L 184.545075 126.758376 
L 185.878008 125.340138 
L 187.134907 124.475182 
L 188.112309 123.680485 
L 189.209666 122.899262 
L 190.621808 122.010501 
L 191.823334 121.083852 
L 194.229755 119.269308 
L 195.136417 118.783494 
L 196.859175 117.625182 
L 197.181853 117.222203 
L 197.723329 117.075236 
L 198.032469 116.864812 
L 198.514465 116.766 
L 198.706539 116.561896 
L 199.342816 116.045669 
L 199.752917 116.019522 
L 200.62737 115.385394 
L 200.5907 115.043114 
L 201.376511 114.647129 
L 201.85408 114.455825 
L 202.262577 114.374594 
L 202.718587 114.076009 
L 203.124999 114.045788 
L 203.448607 113.800684 
L 203.947029 113.736264 
L 204.164704 113.613711 
L 204.419561 113.554296 
L 205.162575 113.230142 
L 205.873667 113.008361 
L 206.161793 112.63618 
L 206.617996 112.444107 
L 207.086229 112.336055 
L 207.35902 112.147607 
L 208.334755 112.047929 
L 208.536196 111.906898 
L 209.589793 111.521981 
L 210.294629 111.142325 
L 210.471079 110.901103 
L 210.48343 110.717691 
L 210.692411 110.531264 
L 211.343446 110.340281 
L 212.170417 110.299762 
L 212.402661 110.307594 
L 213.412944 110.341661 
L 213.64467 110.040253 
L 214.058396 109.806313 
L 214.398623 109.764093 
L 214.673532 109.766916 
L 214.889635 109.71889 
L 215.129734 109.634868 
L 215.394986 109.477667 
L 215.764119 109.336732 
L 216.023693 109.299293 
L 216.246244 109.394768 
L 216.450861 109.373305 
L 216.702446 109.454793 
L 216.89452 109.514818 
L 217.096186 109.658705 
L 217.878948 109.682894 
L 218.152734 109.96993 
L 218.652407 110.110095 
L 219.080346 110.115068 
L 219.243095 109.97259 
L 219.360323 109.869963 
L 220.019796 109.701213 
L 220.598711 109.817734 
L 220.776605 109.806281 
L 220.949236 109.777568 
L 221.132391 109.754918 
L 221.32039 109.820878 
L 224.92824 109.849527 
L 227.8634 109.903007 
L 231.788474 110.06749 
L 235.030272 110.059694 
L 237.831714 110.080483 
L 241.662986 109.943639 
L 246.564914 109.768553 
L 250.145622 109.703908 
L 252.953642 109.714527 
L 254.100244 109.696657 
L 260.591891 109.512701 
L 263.6155 109.460022 
L 263.388874 109.990526 
L 263.284897 110.123313 
L 263.246271 110.213559 
L 263.262986 110.319108 
L 263.302318 110.428763 
L 263.387912 110.570628 
L 263.563656 110.755227 
L 263.756339 110.902225 
L 263.772091 110.93867 
L 263.782903 111.073702 
L 263.72846 111.624578 
L 263.764423 112.242409 
L 263.748479 112.448726 
L 263.680241 112.546544 
L 263.626324 112.573162 
L 263.464299 112.653151 
L 263.277583 112.780291 
L 263.195421 112.871853 
L 263.135685 112.973456 
L 263.063598 113.104638 
L 263.002578 113.289846 
L 262.866872 113.816725 
L 262.782048 114.084928 
L 262.690166 114.221789 
L 262.570116 114.275333 
L 262.438164 114.394292 
L 262.387635 114.658389 
L 262.388854 114.779787 
L 262.450034 115.004712 
L 262.473614 115.025629 
L 262.581794 115.059347 
L 262.710634 115.237882 
L 262.764596 115.289405 
L 262.891928 115.375545 
L 263.135685 115.476314 
L 263.236262 115.534382 
L 263.283518 115.570121 
L 263.388489 115.698191 
L 263.86192 116.076499 
L 263.894419 116.153945 
L 263.910363 116.249805 
L 263.935355 116.58477 
L 263.915561 116.699206 
L 263.853258 116.798852 
L 263.579248 116.985055 
L 263.488841 117.090732 
L 263.436805 117.242863 
L 263.254997 117.658322 
L 263.148807 117.795568 
L 262.952466 117.980487 
L 262.895682 118.091747 
L 262.911498 118.609546 
L 262.895714 119.422787 
L 263.031644 119.580886 
L 263.032125 119.608027 
L 262.904151 119.831861 
L 262.748715 119.918257 
L 262.763376 119.953387 
L 262.836234 120.0325 
L 262.842811 120.121656 
L 262.718334 120.153192 
L 262.694144 120.171607 
L 262.666008 120.435223 
L 262.751185 120.520817 
L 262.76389 120.604005 
L 262.734342 120.634803 
L 262.655004 120.628547 
L 262.620645 120.640514 
L 262.462161 120.819145 
L 262.465562 120.870219 
L 262.496168 120.913016 
L 262.497483 120.942788 
L 262.331171 121.172301 
L 262.478619 121.3099 
L 262.440538 121.345671 
L 262.214843 121.473709 
L 262.202459 121.500241 
L 262.243203 121.644544 
L 262.224018 121.776721 
L 262.196781 121.881051 
L 262.112726 122.011046 
L 262.104225 122.051694 
L 262.11741 122.088363 
L 262.338389 122.249606 
L 262.409162 122.472414 
L 262.533543 122.653387 
L 262.550129 122.729742 
L 262.534922 122.786302 
L 262.499921 122.837857 
L 262.379839 122.942604 
L 262.373166 122.983252 
L 262.503225 123.11761 
L 262.571495 123.216743 
L 262.612464 123.427937 
L 262.840693 123.681704 
L 263.026414 123.810884 
L 263.071265 123.84208 
L 263.177135 123.990555 
L 263.22853 124.022637 
L 263.39404 124.071593 
L 263.62166 124.183398 
L 263.755793 124.307266 
L 263.759675 124.345828 
L 263.738181 124.421766 
L 263.747965 124.459462 
L 263.98537 124.696161 
L 264.007892 124.749256 
L 264.017677 124.853041 
L 264.053929 124.911782 
L 264.084279 124.935042 
L 264.231117 124.978609 
L 264.292361 125.03735 
L 264.319186 125.1966 
L 264.321716 125.211618 
L 264.311931 125.320793 
L 264.330538 125.411359 
L 264.380939 125.464968 
L 264.586069 125.616201 
L 264.783821 125.837951 
L 264.841119 126.098615 
L 264.857256 126.306184 
L 265.002683 126.597711 
L 265.033032 126.769284 
L 265.039898 127.004989 
L 264.995336 127.301616 
L 265.152473 127.584802 
L 265.2039 127.755637 
L 265.197717 127.832364 
L 265.196136 127.851979 
L 265.126326 128.147676 
L 264.662424 128.973397 
L 264.600602 129.226554 
L 264.517254 129.425364 
L 264.452673 129.506692 
L 264.326752 129.61285 
L 264.024703 129.827221 
L 263.921849 129.945891 
L 263.878089 130.197636 
L 263.887778 130.440303 
L 264.122039 130.841581 
L 264.134227 130.87379 
L 264.192875 131.028778 
L 264.229128 131.179306 
L 264.234325 131.449563 
L 264.211547 131.647539 
L 264.221685 131.943461 
L 264.284629 132.216156 
L 264.458801 132.660168 
L 264.60442 132.90585 
L 264.645292 133.091443 
L 264.586679 133.376778 
L 264.568391 133.413572 
L 264.465859 133.619861 
L 264.363711 133.883638 
L 264.241992 134.064899 
L 264.207184 134.073979 
L 264.058292 134.045426 
L 264.0205 134.053446 
L 263.906866 134.158771 
L 263.819091 134.204134 
L 263.612099 134.252514 
L 263.64155 134.365377 
L 263.398467 134.499319 
L 263.369048 134.640895 
L 263.242614 134.716095 
L 263.226412 134.739483 
L 263.225642 134.845866 
L 263.141203 134.953692 
L 263.026736 135.140376 
L 263.009508 135.199054 
L 262.731519 135.327349 
L 262.676114 135.403735 
L 262.58359 135.477427 
L 262.506466 135.490741 
L 262.360205 135.563727 
L 262.304543 135.692696 
L 262.261586 135.710694 
L 262.159694 135.719644 
L 262.092932 135.765585 
L 262.08581 135.823782 
L 262.122608 136.074757 
L 262.099348 136.131317 
L 261.923572 136.250052 
L 261.890528 136.312258 
L 261.874712 136.384442 
L 261.897843 136.473148 
L 261.938426 136.535002 
L 261.934159 136.560058 
L 261.831626 136.684343 
L 261.80256 136.906413 
L 261.714431 137.210227 
L 261.685975 137.260306 
L 261.530378 137.418213 
L 261.41482 137.467875 
L 261.285178 137.628252 
L 261.284568 137.670055 
L 261.349662 137.845061 
L 261.414756 138.118654 
L 261.427781 138.274379 
L 261.267276 138.699911 
L 260.85278 139.341803 
L 260.821724 139.588768 
L 260.764491 139.853956 
L 260.580053 140.445672 
L 260.607643 140.523566 
L 260.803598 140.646504 
L 260.892946 140.679804 
L 261.049088 140.838577 
L 261.14405 140.862799 
L 261.329996 140.942297 
L 261.445105 141.025132 
L 261.542537 141.205817 
L 261.553925 141.239084 
L 261.59836 141.368888 
L 261.599065 141.521084 
L 261.430732 142.332207 
L 261.387197 142.443916 
L 261.386171 142.53182 
L 261.429962 142.672466 
L 261.571924 142.938071 
L 261.613566 143.531712 
L 261.515268 144.04117 
L 261.542441 144.138891 
L 261.76111 144.550789 
L 261.87885 144.915879 
L 261.923059 145.000062 
L 262.320456 145.388026 
L 262.550771 145.729986 
L 262.623308 145.881701 
L 262.620131 145.926615 
L 262.45382 146.231873 
L 262.384298 146.405531 
L 262.366814 146.541141 
L 262.400788 146.617335 
L 262.633221 146.775819 
L 262.674285 146.8216 
L 262.681183 146.851404 
L 262.634953 146.938891 
L 262.541595 147.043253 
L 262.372621 147.108763 
L 262.163319 147.266317 
L 262.105412 147.363846 
L 262.023379 147.593808 
L 262.031688 147.639267 
L 262.101947 147.748602 
L 262.327899 147.878886 
L 262.406659 147.954567 
L 262.453953 148.033959 
L 262.455584 148.036696 
L 262.487955 148.113564 
L 262.521255 148.287768 
L 262.549199 148.345483 
L 262.811531 148.519366 
L 262.993948 148.619942 
L 263.152785 148.757188 
L 263.217012 148.996679 
L 263.242261 149.052725 
L 263.375881 149.20614 
L 263.372224 149.253493 
L 263.247426 149.45548 
L 262.97941 149.807915 
L 262.762093 150.093682 
L 262.744063 150.158006 
L 262.730043 150.37289 
L 262.755966 150.590468 
L 262.733637 150.701471 
L 262.504445 150.945838 
L 262.337331 151.063064 
L 262.243716 151.150391 
L 262.054209 151.402393 
L 261.992195 151.539735 
L 261.934641 151.615737 
L 261.84433 151.686509 
L 261.724152 151.735241 
L 261.638783 151.828054 
L 261.622613 151.887277 
L 261.679366 152.005113 
L 261.658449 152.112747 
L 261.553428 152.366523 
L 261.54135 152.395708 
L 261.532207 152.494552 
L 261.324157 152.854798 
L 261.293134 153.039557 
L 261.188868 153.186171 
L 261.035646 153.256879 
L 260.981812 153.301344 
L 260.941839 153.355627 
L 260.873825 153.549882 
L 260.895416 153.617734 
L 261.203112 153.973938 
L 261.223998 154.026488 
L 261.218897 154.06181 
L 261.030224 154.325843 
L 261.026791 154.369699 
L 261.080079 154.513361 
L 261.097339 154.625262 
L 260.989512 154.761545 
L 260.817939 155.025995 
L 260.788937 155.098083 
L 260.797984 155.138153 
L 260.872125 155.235746 
L 260.935422 155.268469 
L 261.137056 155.31611 
L 261.246583 155.436706 
L 261.61023 155.646873 
L 261.781354 155.720341 
L 261.850971 155.746776 
L 261.92662 155.74607 
L 262.048755 155.687425 
L 262.298095 155.507863 
L 262.32437 155.467504 
L 262.350677 155.38977 
L 262.322541 155.21223 
L 262.321899 154.825613 
L 262.504701 154.733281 
L 262.642813 154.616632 
L 262.674061 154.566713 
L 262.677077 154.529305 
L 262.559625 154.318143 
L 262.607074 154.251381 
L 262.75542 154.109708 
L 262.757441 154.089882 
L 262.673515 153.992353 
L 262.692668 153.936595 
L 262.788593 153.929505 
L 262.844158 153.96441 
L 262.89565 153.970249 
L 263.102641 153.933098 
L 263.119227 153.918116 
L 263.471228 154.000117 
L 263.645753 153.885874 
L 264.110265 153.890911 
L 264.232464 153.835858 
L 264.435445 153.844649 
L 264.588058 153.93297 
L 264.658734 153.948626 
L 264.752541 153.840254 
L 264.798996 153.823379 
L 264.866656 153.854209 
L 264.917121 153.897487 
L 264.932392 153.940605 
L 264.98985 154.37557 
L 265.062515 154.400529 
L 265.199793 154.555324 
L 265.248205 154.640437 
L 265.249167 154.781276 
L 265.22995 154.919195 
L 265.215802 154.960998 
L 265.097677 155.128946 
L 265.24397 155.200135 
L 265.252022 155.219224 
L 265.177368 155.283868 
L 265.148366 155.356341 
L 265.171561 155.396924 
L 265.20637 155.411425 
L 265.483043 155.387236 
L 265.599051 155.44155 
L 265.610087 155.511232 
L 265.649419 155.548639 
L 265.981337 155.6214 
L 266.150761 155.720501 
L 266.326184 155.846743 
L 266.519605 156.106541 
L 266.64668 156.202594 
L 266.65377 156.243658 
L 266.589992 156.312698 
L 266.598846 156.537142 
L 266.673276 156.556872 
L 266.71264 156.587639 
L 266.744582 156.636363 
L 266.858388 156.809965 
L 266.872921 156.808425 
L 266.879305 156.892736 
L 266.863232 156.98664 
L 266.815912 157.040922 
L 266.705069 157.103353 
L 266.676933 157.18699 
L 266.679083 157.313168 
L 266.708309 157.324877 
L 266.69737 157.451793 
L 266.65438 158.878661 
L 266.642739 159.155552 
L 266.520246 162.069063 
L 266.517295 162.091905 
L 266.512226 162.309805 
L 266.504141 162.59145 
L 266.458266 163.876128 
L 266.394774 165.654135 
L 266.324995 166.574759 
L 266.323393 166.595895 
L 266.301945 167.014059 
L 266.10344 170.884295 
L 266.083152 171.175154 
L 265.968504 172.818825 
L 265.960331 172.985885 
L 265.823687 175.779041 
L 265.820511 175.816576 
L 265.818169 175.884622 
L 265.812273 176.07461 
L 265.775244 177.26773 
L 265.689193 179.182462 
L 265.683201 179.315797 
L 265.502324 179.266263 
L 265.467772 179.293886 
L 265.414035 179.741522 
L 265.520322 179.942867 
L 265.437327 180.129776 
L 265.289526 180.326052 
L 265.755449 182.119454 
L 266.123234 182.121989 
L 263.313835 189.691294 
L 262.319986 192.39758 
L 259.355234 200.470701 
L 258.321433 203.285777 
L 258.68277 204.459391 
L 258.989632 204.460578 
L 258.915812 206.050101 
L 258.808017 207.383675 
L 258.694063 208.543238 
L 258.637053 209.501585 
L 258.518992 210.585659 
L 258.42403 211.690298 
L 258.421977 211.706724 
L 258.230994 213.792808 
L 258.229146 213.827106 
L 258.200196 214.36412 
L 258.04415 216.076002 
L 257.997548 216.744811 
L 257.940462 217.564082 
L 257.907696 218.249606 
L 257.90761 218.251402 
L 257.61804 221.221499 
L 257.492857 222.745414 
L 257.490098 222.768673 
L 257.487051 222.797804 
L 257.483233 222.834666 
L 257.483233 222.851252 
L 257.480025 222.867293 
L 257.450302 223.265043 
L 257.43511 223.468344 
L 257.432287 223.514863 
L 257.431389 223.530038 
L 257.428149 223.599848 
L 257.42555 223.655317 
L 257.396612 223.983738 
L 257.380571 224.150691 
L 257.374027 224.214374 
L 257.261869 225.109807 
L 257.189818 226.047876 
L 257.189492 226.052113 
L 257.14769 226.380854 
L 257.131184 226.536693 
L 257.011503 227.666627 
L 256.992222 227.999186 
L 257.012914 228.266524 
L 256.947724 228.657151 
L 257.992852 229.898811 
L 258.500753 230.524651 
L 259.137368 231.309093 
L 259.066718 231.340611 
L 258.713025 231.498398 
L 258.278283 231.692342 
L 258.113704 231.768696 
L 256.829372 232.362423 
L 256.505071 232.512342 
L 256.499221 232.515046 
L 254.912776 233.229032 
L 254.342942 233.485487 
L 254.10172 233.595399 
L 252.296258 234.431478 
L 251.275221 234.904303 
L 251.442046 235.132083 
L 251.624912 235.324574 
L 251.96857 235.754868 
L 252.350024 236.232488 
L 252.577804 236.508359 
L 252.808793 236.793886 
L 253.113602 237.169243 
L 253.363839 237.477228 
L 253.598068 237.724257 
L 253.598446 237.72485 
L 253.620525 237.759547 
L 253.591652 237.887874 
L 253.469709 238.150944 
L 253.488958 238.343435 
L 253.460117 238.522708 
L 253.526048 238.600019 
L 253.535028 238.610548 
L 253.578787 238.789371 
L 253.45046 239.148655 
L 253.383088 239.219235 
L 253.306092 239.187153 
L 252.869748 239.328313 
L 252.702923 239.771041 
L 252.600262 239.892952 
L 252.231289 240.072609 
L 251.468866 240.31518 
L 251.146894 240.540971 
L 250.344818 240.938785 
L 249.747873 241.598642 
L 249.90209 241.715163 
L 250.011168 241.782535 
L 250.040041 241.94936 
L 250.011624 242.087384 
L 249.90286 242.615666 
L 250.038213 242.712328 
L 250.076871 242.811429 
L 250.047869 243.108731 
L 249.931862 243.118387 
L 249.7446 243.060865 
L 249.589806 243.121595 
L 249.561061 243.303467 
L 249.517077 243.344852 
L 249.475691 243.37071 
L 249.426542 243.331923 
L 249.336007 243.20257 
L 249.24544 243.057688 
L 249.29459 242.902477 
L 249.206654 242.760194 
L 249.157504 242.767958 
L 249.046277 242.876619 
L 248.972778 243.010368 
L 248.736303 242.963079 
L 248.547149 243.051753 
L 248.458475 243.424158 
L 248.470313 243.554218 
L 248.576696 243.737469 
L 248.813171 243.95617 
L 249.04371 244.050779 
L 249.3937 244.504408 
L 249.555831 244.714551 
L 249.727052 244.702745 
L 249.947852 244.545034 
L 249.975076 244.525589 
L 250.43285 243.879334 
L 250.421044 243.69018 
L 251.25918 242.854033 
L 251.310511 242.728915 
L 251.182184 242.453012 
L 251.217474 242.417722 
L 251.727606 242.302259 
L 252.949953 242.72253 
L 253.106539 242.667688 
L 253.581995 242.501166 
L 253.630118 242.042397 
L 254.056805 241.58042 
L 254.291034 241.400794 
L 254.509158 241.362328 
L 254.810759 241.410419 
L 255.314474 241.253218 
L 255.529422 241.10885 
L 256.337914 240.848988 
L 256.459825 240.836155 
L 257.040537 241.063936 
L 257.964523 240.884278 
L 258.101448 240.931663 
L 258.584535 240.760186 
L 258.676916 240.611492 
L 258.690373 240.589832 
L 258.846836 239.992437 
L 259.052159 239.854486 
L 259.276731 239.986021 
L 259.746954 240.133597 
L 260.614573 240.223426 
L 260.832761 240.387043 
L 260.850283 240.528498 
L 260.865709 240.653033 
L 261.595953 240.693809 
L 261.69576 240.537827 
L 261.679751 239.989229 
L 261.763164 239.610664 
L 261.798454 239.572166 
L 262.019818 239.568958 
L 262.610122 240.136805 
L 262.882849 240.326087 
L 263.306328 240.486496 
L 263.537317 240.531411 
L 263.582231 240.467247 
L 263.99291 240.393459 
L 265.157509 240.557076 
L 267.02214 241.106367 
L 267.267655 241.178692 
L 269.843531 240.415884 
L 269.859731 240.379528 
L 269.93182 240.217747 
L 269.982156 239.551473 
L 270.10689 239.219876 
L 271.082721 239.035086 
L 271.571001 239.016088 
L 272.006226 238.999154 
L 273.030339 239.293106 
L 273.221515 239.347979 
L 273.325973 239.273774 
L 274.754061 239.20961 
L 276.06197 239.220903 
L 277.387876 239.338964 
L 278.208656 239.323051 
L 280.203917 239.103869 
L 281.87066 239.247595 
L 282.783322 239.147147 
L 283.989179 238.845386 
L 284.704858 238.767203 
L 285.412389 238.786805 
L 286.31533 238.713658 
L 287.926957 238.212221 
L 288.566058 237.829774 
L 288.708244 237.639337 
L 289.065026 237.498177 
L 289.9731 236.926865 
L 291.392461 236.459755 
L 291.922708 235.984945 
L 292.42113 235.372055 
L 293.296866 235.313057 
L 293.788358 235.025155 
L 295.344387 233.644902 
L 296.099592 233.417795 
L 296.670904 233.386643 
L 297.365987 233.134096 
L 297.761234 233.042727 
L 297.947052 233.161815 
L 298.104156 233.189533 
L 298.83408 232.962683 
L 299.063048 233.018088 
L 299.078447 233.11613 
L 298.57024 233.73518 
L 298.199632 234.012879 
L 297.06875 234.53286 
L 297.079337 233.898123 
L 296.876035 233.712658 
L 296.672219 233.690009 
L 296.498593 233.735308 
L 296.226411 233.894818 
L 295.949193 234.276206 
L 295.951025 234.536599 
L 295.952208 234.704722 
L 296.527723 235.290471 
L 297.153959 235.534838 
L 297.710417 235.55537 
L 297.827964 235.673431 
L 297.623154 235.95729 
L 297.925878 236.481538 
L 298.347496 236.785288 
L 298.965487 236.698507 
L 299.346875 236.711821 
L 299.728263 236.831935 
L 300.229284 237.099369 
L 300.591679 237.089616 
L 300.82578 236.992087 
L 300.94692 236.901745 
L 301.094753 236.654331 
L 301.479221 236.428475 
L 301.560324 236.407943 
L 301.769272 236.47108 
L 302.300546 236.861675 
L 302.369843 237.131162 
L 302.296953 237.367797 
L 302.971985 238.141352 
L 303.208107 238.324603 
L 303.427803 238.407214 
L 303.642879 238.412347 
L 304.041238 238.248601 
L 304.140306 238.024799 
L 304.164143 237.928297 
L 304.261447 237.843088 
L 304.733915 237.831891 
L 304.84665 237.981168 
L 304.874208 237.977831 
L 304.934747 237.966827 
L 305.050337 237.928297 
L 305.116394 237.823711 
L 305.051492 237.629808 
L 305.039333 237.476939 
L 305.182418 237.410883 
L 305.557004 237.468822 
L 306.223631 237.225354 
L 306.729015 236.862156 
L 307.762689 236.602198 
L 307.953961 236.393506 
L 307.977156 236.213816 
L 307.938401 236.080901 
L 308.001538 235.849399 
L 308.686323 235.651262 
L 309.291545 235.551681 
L 309.937319 235.541415 
L 310.057946 235.652289 
L 310.248929 235.706186 
L 310.890083 235.7272 
L 311.053315 235.667143 
L 311.277117 235.774938 
L 311.318182 235.8699 
L 310.750463 236.457637 
L 309.793593 236.846212 
L 308.768484 237.038189 
L 305.763451 238.137727 
L 303.033582 239.03037 
L 294.005712 242.412589 
L 291.626978 243.179984 
L 288.308281 244.126043 
L 283.347285 245.459242 
L 282.797694 245.606937 
L 282.54412 245.719865 
L 282.41374 245.694199 
L 282.061611 245.783515 
L 279.013459 246.701855 
L 278.702121 246.803889 
L 277.08695 247.333224 
L 274.221054 248.412165 
L 272.86021 248.838211 
L 269.963121 249.508077 
L 267.936399 249.976696 
L 266.951489 250.162257 
L 266.2147 250.278521 
L 266.138114 250.279766 
L 264.793799 250.30162 
L 264.156462 249.905603 
L 263.347906 249.989016 
L 261.235451 250.610503 
L 261.027112 250.65151 
L 259.06703 251.037303 
L 258.347644 251.178896 
L 256.686835 251.544115 
L 256.334257 251.480432 
L 256.195319 251.46786 
L 255.025642 251.362019 
L 254.062259 251.518578 
L 250.79685 251.391277 
L 250.550796 251.303661 
L 250.341866 251.229264 
L 249.76247 251.263977 
L 247.854247 251.698941 
L 245.585008 252.366242 
L 244.44771 252.799506 
L 244.657211 252.032528 
L 244.678571 251.954327 
L 244.737473 251.73869 
L 244.526331 251.75851 
L 244.409959 251.769433 
L 244.070305 251.801315 
L 243.843859 251.822571 
L 243.641193 251.841594 
L 243.205183 251.882521 
L 242.819401 251.918733 
L 242.156078 251.784696 
L 242.473317 251.521879 
L 242.526173 251.47809 
L 242.436505 251.103728 
L 242.26278 251.052818 
L 242.236137 251.04501 
L 241.487687 250.825676 
L 241.380589 250.690284 
L 241.368511 250.675016 
L 241.271649 250.552564 
L 241.181114 250.170374 
L 241.22519 250.038157 
L 241.311879 249.77811 
L 241.391342 249.658916 
L 241.403213 249.641109 
L 241.421757 249.613294 
L 241.437205 249.590121 
L 241.442442 249.582266 
L 241.458433 249.558279 
L 241.466486 249.546199 
L 241.513032 249.476381 
L 241.599018 249.398212 
L 241.666867 249.336531 
L 241.700988 249.305512 
L 241.955567 249.074076 
L 241.885148 248.440429 
L 241.834241 248.384959 
L 241.725541 248.266514 
L 241.117464 248.126926 
L 241.061385 248.103571 
L 241.024779 248.064014 
L 241.230905 247.75558 
L 241.754383 247.45661 
L 241.852241 246.943009 
L 241.864295 246.879748 
L 241.865624 246.874458 
L 241.907294 246.708619 
L 241.998835 246.344302 
L 242.09955 245.943474 
L 242.225704 245.751501 
L 242.247126 245.718902 
L 242.276088 245.678668 
L 242.468589 245.411246 
L 242.497023 245.371745 
L 242.739935 245.034291 
L 242.924997 244.777203 
L 243.032694 244.62759 
L 243.060621 244.588793 
L 243.464836 244.027256 
L 243.50268 243.974684 
L 243.565751 243.887066 
L 243.56894 243.88303 
L 243.569234 243.882658 
L 243.722951 243.688159 
L 244.018103 243.011234 
L 244.201001 242.677616 
L 244.525909 242.158401 
L 244.528235 242.154683 
L 244.678218 241.917952 
L 244.819377 241.677339 
L 245.11777 240.910585 
L 245.118366 240.908749 
L 245.159476 240.78229 
L 245.175517 240.779082 
L 245.182735 240.717453 
L 245.250107 240.544211 
L 245.516386 239.690837 
L 245.592231 239.478777 
L 245.784345 238.941638 
L 245.862901 238.722 
L 245.943105 238.224733 
L 245.663962 238.221524 
L 245.589211 238.212092 
L 245.523636 238.1837 
L 245.368809 238.093197 
L 243.859868 237.418111 
L 241.224841 236.239225 
L 241.224681 236.239161 
L 239.574652 235.50744 
L 239.436701 235.446485 
L 236.690374 234.233826 
L 236.275005 234.064052 
L 235.760614 233.853803 
L 235.023141 233.552375 
L 235.01946 233.55087 
L 233.556013 232.906915 
L 232.853268 232.597689 
L 232.243682 232.283288 
L 230.757746 231.600665 
L 230.386053 231.429913 
L 227.861668 230.171314 
L 226.513624 229.557943 
L 223.056976 227.94006 
L 221.959908 227.455465 
L 220.247705 226.66805 
L 220.200095 226.670745 
L 220.370835 226.574468 
L 220.41283 226.535392 
L 220.420882 226.462085 
L 220.369134 226.350409 
L 220.245972 226.250731 
L 219.979245 226.101166 
L 219.813189 225.978998 
L 219.751175 225.876305 
L 219.654289 225.62889 
L 219.571903 225.540024 
L 219.414317 225.47246 
L 219.109765 225.44134 
L 219.005307 225.399153 
L 218.926289 225.3535 
L 218.847657 225.263896 
L 218.770372 225.137847 
L 218.746182 225.049301 
L 218.766426 224.935956 
L 218.843486 224.870189 
L 218.970306 224.573882 
L 218.965108 224.473819 
L 218.945025 224.42098 
L 218.907522 224.36442 
L 218.850833 224.319088 
L 218.771367 224.302438 
L 218.678682 224.319281 
L 218.458634 224.40433 
L 218.340605 224.495346 
L 218.329388 224.50028 
L 218.204963 224.555018 
L 218.040897 224.544591 
L 217.817961 224.460601 
L 217.734901 224.456687 
L 217.58123 224.496725 
L 217.378794 224.58357 
L 217.183801 224.607215 
L 217.073472 224.57478 
L 217.024066 224.532785 
L 216.890927 224.298267 
L 216.873314 224.254283 
L 216.864491 224.145237 
L 216.837061 224.079791 
L 216.694939 223.951432 
L 216.633118 223.927499 
L 216.487434 223.923167 
L 216.29905 224.002634 
L 216.142331 224.121754 
L 216.041241 224.283959 
L 215.95908 224.31726 
L 215.892382 224.323516 
L 215.76521 224.314116 
L 215.692063 224.28752 
L 215.414332 224.096569 
L 215.317124 224.013093 
L 215.13753 223.917264 
L 214.997076 223.876809 
L 214.801057 223.890733 
L 214.415017 224.007992 
L 214.030999 224.07469 
L 213.863468 224.053163 
L 213.795711 224.019252 
L 213.783712 223.948929 
L 213.830808 223.823169 
L 214.018679 223.658076 
L 214.017364 223.616723 
L 213.977518 223.527214 
L 213.921183 223.474761 
L 213.826381 223.435268 
L 213.533443 223.383424 
L 213.447239 223.340916 
L 213.408228 223.228373 
L 213.407265 223.116793 
L 213.373643 222.978231 
L 213.266619 222.876564 
L 213.113749 222.830495 
L 212.895272 222.827383 
L 212.807272 222.789238 
L 212.622802 222.661039 
L 212.327233 222.621932 
L 212.204167 222.632486 
L 212.125695 222.715514 
L 211.858422 222.840312 
L 211.799103 222.851188 
L 211.426088 222.817759 
L 211.048647 222.73733 
L 210.99446 222.706884 
L 210.941109 222.616766 
L 210.922148 222.54747 
L 210.933313 222.443204 
L 211.022628 222.207275 
L 211.032092 222.142502 
L 211.025131 222.062458 
L 210.961384 221.881838 
L 210.920287 221.83965 
L 210.856381 221.8136 
L 210.655934 221.813086 
L 210.472458 221.856525 
L 210.358921 221.834036 
L 210.341501 221.79573 
L 210.341116 221.737245 
L 210.376855 221.62682 
L 210.430014 221.528072 
L 210.430784 221.475009 
L 210.4184 221.431442 
L 210.336496 221.3223 
L 210.153566 221.180851 
L 209.981383 221.086595 
L 209.92694 221.063785 
L 209.721553 221.030516 
L 209.68344 221.002573 
L 209.665763 220.967892 
L 209.664447 220.817044 
L 209.727648 220.763949 
L 209.894538 220.722948 
L 209.942083 220.674441 
L 209.93618 220.602096 
L 209.865728 220.432031 
L 209.582799 220.055423 
L 209.52287 220.020262 
L 209.396115 220.005664 
L 209.273338 219.94288 
L 209.16102 219.858217 
L 209.052295 219.684783 
L 208.959868 219.422867 
L 208.764233 219.27805 
L 208.53472 219.18049 
L 208.417141 219.054537 
L 208.311977 218.904105 
L 208.223523 218.831533 
L 208.066295 218.702536 
L 208.065877 218.632148 
L 208.160807 218.580946 
L 208.285028 218.560349 
L 208.447971 218.576518 
L 208.543928 218.539239 
L 208.536517 218.490956 
L 208.481368 218.389514 
L 208.485058 218.358683 
L 208.531961 218.324901 
L 208.732408 218.287269 
L 208.796379 218.303246 
L 208.907735 218.372896 
L 208.942608 218.379152 
L 209.000034 218.365934 
L 209.041227 218.308989 
L 209.062465 218.127342 
L 208.913702 217.858785 
L 208.898976 217.802001 
L 208.87899 217.542748 
L 208.898174 217.079006 
L 208.858489 216.878848 
L 208.727884 216.697971 
L 208.623298 216.674263 
L 208.585474 216.651164 
L 208.556536 216.565602 
L 208.574726 216.498487 
L 208.77081 216.36939 
L 208.814698 216.320465 
L 208.816334 216.240967 
L 208.768147 216.049952 
L 208.639531 215.815434 
L 208.540591 215.68669 
L 208.301614 215.503247 
L 208.251823 215.41576 
L 208.257855 215.352078 
L 208.322403 215.273734 
L 208.497441 215.262602 
L 208.784509 215.311975 
L 208.833818 215.293593 
L 208.86035 215.250603 
L 208.865579 215.193369 
L 208.74277 214.806559 
L 208.701353 214.549328 
L 208.765837 214.242723 
L 208.74585 213.992068 
L 208.510755 213.603879 
L 208.377873 213.538175 
L 208.260261 213.518541 
L 208.128822 213.47013 
L 208.07855 213.415238 
L 208.023658 213.383156 
L 207.910217 213.393198 
L 207.482503 213.484438 
L 207.397775 213.484278 
L 207.220074 213.460056 
L 207.139806 213.392139 
L 207.112793 213.34546 
L 207.102976 213.297017 
L 207.123712 213.148806 
L 207.138009 213.046619 
L 207.177117 212.902411 
L 207.204899 212.856277 
L 207.480385 212.585347 
L 207.626293 212.548517 
L 207.848074 212.582235 
L 207.948972 212.550667 
L 207.993276 212.517237 
L 208.072743 212.399112 
L 208.144734 212.202259 
L 208.158113 212.087599 
L 208.144606 212.028857 
L 208.072839 211.985354 
L 207.955613 211.984584 
L 207.899309 211.994112 
L 207.707749 212.096421 
L 207.589207 212.098025 
L 207.459179 212.04031 
L 207.251065 211.8808 
L 206.824057 211.738517 
L 206.775838 211.645865 
L 206.765893 211.594053 
L 206.770673 211.497326 
L 206.820624 211.3049 
L 206.822934 211.16374 
L 206.78989 211.071184 
L 206.751424 211.037338 
L 206.649051 210.99945 
L 206.356337 211.028837 
L 206.257846 211.021073 
L 205.960833 210.79865 
L 205.845884 210.80959 
L 205.761766 210.836474 
L 205.554774 210.911385 
L 205.438831 210.918989 
L 205.277492 210.870577 
L 205.193213 210.814434 
L 205.127477 210.741416 
L 205.04676 210.568303 
L 205.068575 210.318546 
L 205.033638 210.214377 
L 204.987986 210.172093 
L 204.85937 210.138343 
L 204.793314 210.147615 
L 204.713077 210.225766 
L 204.66935 210.362274 
L 204.612437 210.473983 
L 204.558989 210.527976 
L 204.516737 210.546744 
L 204.460947 210.541001 
L 204.400152 210.503947 
L 204.357965 210.46577 
L 204.318247 210.382068 
L 204.223895 210.310719 
L 204.113084 210.261954 
L 203.915268 210.227948 
L 203.731151 210.247742 
L 203.563396 210.305521 
L 203.398014 210.527367 
L 203.282231 210.626114 
L 203.218517 210.625312 
L 203.029491 210.561855 
L 202.934754 210.494162 
L 202.800716 210.361664 
L 202.724009 210.31614 
L 202.653076 210.323936 
L 202.502292 210.438629 
L 202.40117 210.479052 
L 202.188532 210.475394 
L 202.101847 210.422588 
L 202.028861 210.345174 
L 202.000918 210.284476 
L 201.996362 210.199395 
L 202.071017 210.118549 
L 202.168834 210.060481 
L 202.196905 209.995644 
L 202.098767 209.781498 
L 202.022349 209.738958 
L 201.86887 209.71095 
L 201.756487 209.666741 
L 201.715134 209.480411 
L 201.708814 209.35388 
L 201.869383 209.197995 
L 201.876152 209.034923 
L 201.806406 208.896683 
L 201.625722 208.633581 
L 201.587737 208.548756 
L 201.589373 208.405319 
L 201.565569 208.183345 
L 201.506185 208.012702 
L 201.176096 207.88521 
L 201.125311 207.816298 
L 201.099774 207.750434 
L 201.110425 207.577674 
L 201.037182 207.509789 
L 200.88104 207.512099 
L 200.822363 207.532952 
L 200.784378 207.566959 
L 200.795927 207.69243 
L 200.7821 207.709113 
L 200.708248 207.714374 
L 200.503181 207.688837 
L 200.424292 207.651301 
L 200.252623 207.521242 
L 200.192566 207.308508 
L 200.117366 207.282008 
L 199.894911 207.072226 
L 199.687888 207.0054 
L 199.56864 206.990289 
L 199.481506 206.923366 
L 199.473293 206.877457 
L 199.623083 206.553977 
L 199.629146 206.47974 
L 199.516122 206.28494 
L 199.341501 206.203067 
L 199.118982 206.145769 
L 198.924085 206.070858 
L 197.555888 206.072408 
L 196.601944 206.073489 
L 196.465436 206.07381 
L 195.152394 206.072077 
L 194.959707 206.07684 
L 194.940847 206.077306 
L 192.716363 206.082297 
L 190.880002 206.086418 
L 186.648387 206.121579 
L 185.649798 206.114086 
L 182.527165 206.090652 
L 179.712619 206.085335 
L 179.01187 206.084012 
L 178.921015 206.084012 
L 176.450556 206.087574 
L 174.982723 206.08969 
L 174.409871 206.08661 
L 174.169098 206.08661 
L 173.709744 206.087924 
L 167.351051 206.106116 
L 167.152914 206.104063 
L 163.551512 206.087252 
L 163.410834 206.084332 
L 163.202609 206.081763 
L 160.488695 206.048275 
L 160.472851 206.04808 
L 157.906775 206.027531 
L 154.327366 205.998867 
L 152.203458 205.99938 
L 151.587456 205.996172 
L 148.837889 205.99614 
L 148.802599 205.999348 
L 148.635774 205.999348 
L 148.314957 205.999348 
L 148.138475 206.002556 
L 147.397354 206.01218 
L 147.396008 206.012195 
L 146.054733 206.026778 
L 146.051557 206.025847 
L 144.253663 206.038263 
L 142.296131 206.072462 
L 131.648673 206.053579 
L 130.085334 206.050807 
L 126.725739 206.068496 
L 122.237399 206.092128 
L 119.899665 206.099667 
L 119.603519 206.100405 
L 114.294694 206.092898 
L 113.221399 206.072558 
L 113.214534 206.07182 
L 110.213189 206.038552 
L 107.586519 206.065164 
L 105.514046 206.086161 
L 104.329459 206.07182 
L 95.073167 206.056999 
L 90.161322 206.113719 
L 86.150943 206.131364 
L 84.736268 206.113208 
L 82.676296 206.086771 
L 80.167503 206.076825 
L 76.404153 206.070441 
L 74.119868 206.091326 
L 66.975261 206.109035 
L 65.739481 206.10394 
L 64.858731 206.100309 
L 64.443593 206.09585 
L 62.536209 206.085476 
L 62.072238 206.082953 
L 62.072688 206.085038 
L 60.63411 206.074387 
L 57.708735 206.091294 
L 57.698886 206.051128 
L 57.693175 205.442152 
L 57.69603 202.235645 
L 57.682781 201.842451 
L 57.691154 201.217947 
L 57.694426 200.834153 
L 57.689229 200.492675 
L 57.688972 200.288186 
L 57.692052 200.161976 
L 57.681818 198.255454 
L 57.68785 197.989175 
" clip-path="url(#p9dd6a05889)" style="fill: #00a2c1"/>
   </g>
   <g id="PathCollection_1">
    <defs>
     <path id="mb77fae0962" d="M 0 1.581139 
C 0.419323 1.581139 0.821528 1.41454 1.118034 1.118034 
C 1.41454 0.821528 1.581139 0.419323 1.581139 0 
C 1.581139 -0.419323 1.41454 -0.821528 1.118034 -1.118034 
C 0.821528 -1.41454 0.419323 -1.581139 0 -1.581139 
C -0.419323 -1.581139 -0.821528 -1.41454 -1.118034 -1.118034 
C -1.41454 -0.821528 -1.581139 -0.419323 -1.581139 0 
C -1.581139 0.419323 -1.41454 0.821528 -1.118034 1.118034 
C -0.821528 1.41454 -0.419323 1.581139 0 1.581139 
z
" style="stroke: #000000"/>
    </defs>
    <g clip-path="url(#p9dd6a05889)">
     <use xlink:href="#mb77fae0962" x="250.309592" y="185.108704" style="stroke: #000000"/>
    </g>
   </g>
   <g id="text_1">
    <!-- Albany -->
    <g transform="translate(253.309592 182.108704) scale(0.1 -0.1)">
     <defs>
      <path id="DejaVuSans-41" d="M 2188 4044 
L 1331 1722 
L 3047 1722 
L 2188 4044 
z
M 1831 4666 
L 2547 4666 
L 4325 0 
L 3669 0 
L 3244 1197 
L 1141 1197 
L 716 0 
L 50 0 
L 1831 4666 
z
" transform="scale(0.015625)"/>
      <path id="DejaVuSans-6c" d="M 603 4863 
L 1178 4863 
L 1178 0 
L 603 0 
L 603 4863 
z
" transform="scale(0.015625)"/>
      <path id="DejaVuSans-62" d="M 3116 1747 
Q 3116 2381 2855 2742 
Q 2594 3103 2138 3103 
Q 1681 3103 1420 2742 
Q 1159 2381 1159 1747 
Q 1159 1113 1420 752 
Q 1681 391 2138 391 
Q 2594 391 2855 752 
Q 3116 1113 3116 1747 
z
M 1159 2969 
Q 1341 3281 1617 3432 
Q 1894 3584 2278 3584 
Q 2916 3584 3314 3078 
Q 3713 2572 3713 1747 
Q 3713 922 3314 415 
Q 2916 -91 2278 -91 
Q 1894 -91 1617 61 
Q 1341 213 1159 525 
L 1159 0 
L 581 0 
L 581 4863 
L 1159 4863 
L 1159 2969 
z
" transform="scale(0.015625)"/>
      <path id="DejaVuSans-61" d="M 2194 1759 
Q 1497 1759 1228 1600 
Q 959 1441 959 1056 
Q 959 750 1161 570 
Q 1363 391 1709 391 
Q 2188 391 2477 730 
Q 2766 1069 2766 1631 
L 2766 1759 
L 2194 1759 
z
M 3341 1997 
L 3341 0 
L 2766 0 
L 2766 531 
Q 2569 213 2275 61 
Q 1981 -91 1556 -91 
Q 1019 -91 701 211 
Q 384 513 384 1019 
Q 384 1609 779 1909 
Q 1175 2209 1959 2209 
L 2766 2209 
L 2766 2266 
Q 2766 2663 2505 2880 
Q 2244 3097 1772 3097 
Q 1472 3097 1187 3025 
Q 903 2953 641 2809 
L 641 3341 
Q 956 3463 1253 3523 
Q 1550 3584 1831 3584 
Q 2591 3584 2966 3190 
Q 3341 2797 3341 1997 
z
" transform="scale(0.015625)"/>
      <path id="DejaVuSans-6e" d="M 3513 2113 
L 3513 0 
L 2938 0 
L 2938 2094 
Q 2938 2591 2744 2837 
Q 2550 3084 2163 3084 
Q 1697 3084 1428 2787 
Q 1159 2491 1159 1978 
L 1159 0 
L 581 0 
L 581 3500 
L 1159 3500 
L 1159 2956 
Q 1366 3272 1645 3428 
Q 1925 3584 2291 3584 
Q 2894 3584 3203 3211 
Q 3513 2838 3513 2113 
z
" transform="scale(0.015625)"/>
      <path id="DejaVuSans-79" d="M 2059 -325 
Q 1816 -950 1584 -1140 
Q 1353 -1331 966 -1331 
L 506 -1331 
L 506 -850 
L 844 -850 
Q 1081 -850 1212 -737 
Q 1344 -625 1503 -206 
L 1606 56 
L 191 3500 
L 800 3500 
L 1894 763 
L 2988 3500 
L 3597 3500 
L 2059 -325 
z
" transform="scale(0.015625)"/>
     </defs>
     <use xlink:href="#DejaVuSans-41"/>
     <use xlink:href="#DejaVuSans-6c" x="68.408203"/>
     <use xlink:href="#DejaVuSans-62" x="96.191406"/>
     <use xlink:href="#DejaVuSans-61" x="159.667969"/>
     <use xlink:href="#DejaVuSans-6e" x="220.947266"/>
     <use xlink:href="#DejaVuSans-79" x="284.326172"/>
    </g>
   </g>
   <g id="text_2">
    <!-- New York -->
    <g transform="translate(157.02375 96.049222) scale(0.12 -0.12)">
     <defs>
      <path id="DejaVuSans-4e" d="M 628 4666 
L 1478 4666 
L 3547 763 
L 3547 4666 
L 4159 4666 
L 4159 0 
L 3309 0 
L 1241 3903 
L 1241 0 
L 628 0 
L 628 4666 
z
" transform="scale(0.015625)"/>
      <path id="DejaVuSans-65" d="M 3597 1894 
L 3597 1613 
L 953 1613 
Q 991 1019 1311 708 
Q 1631 397 2203 397 
Q 2534 397 2845 478 
Q 3156 559 3463 722 
L 3463 178 
Q 3153 47 2828 -22 
Q 2503 -91 2169 -91 
Q 1331 -91 842 396 
Q 353 884 353 1716 
Q 353 2575 817 3079 
Q 1281 3584 2069 3584 
Q 2775 3584 3186 3129 
Q 3597 2675 3597 1894 
z
M 3022 2063 
Q 3016 2534 2758 2815 
Q 2500 3097 2075 3097 
Q 1594 3097 1305 2825 
Q 1016 2553 972 2059 
L 3022 2063 
z
" transform="scale(0.015625)"/>
      <path id="DejaVuSans-77" d="M 269 3500 
L 844 3500 
L 1563 769 
L 2278 3500 
L 2956 3500 
L 3675 769 
L 4391 3500 
L 4966 3500 
L 4050 0 
L 3372 0 
L 2619 2869 
L 1863 0 
L 1184 0 
L 269 3500 
z
" transform="scale(0.015625)"/>
      <path id="DejaVuSans-20" transform="scale(0.015625)"/>
      <path id="DejaVuSans-59" d="M -13 4666 
L 666 4666 
L 1959 2747 
L 3244 4666 
L 3922 4666 
L 2272 2222 
L 2272 0 
L 1638 0 
L 1638 2222 
L -13 4666 
z
" transform="scale(0.015625)"/>
      <path id="DejaVuSans-6f" d="M 1959 3097 
Q 1497 3097 1228 2736 
Q 959 2375 959 1747 
Q 959 1119 1226 758 
Q 1494 397 1959 397 
Q 2419 397 2687 759 
Q 2956 1122 2956 1747 
Q 2956 2369 2687 2733 
Q 2419 3097 1959 3097 
z
M 1959 3584 
Q 2709 3584 3137 3096 
Q 3566 2609 3566 1747 
Q 3566 888 3137 398 
Q 2709 -91 1959 -91 
Q 1206 -91 779 398 
Q 353 888 353 1747 
Q 353 2609 779 3096 
Q 1206 3584 1959 3584 
z
" transform="scale(0.015625)"/>
      <path id="DejaVuSans-72" d="M 2631 2963 
Q 2534 3019 2420 3045 
Q 2306 3072 2169 3072 
Q 1681 3072 1420 2755 
Q 1159 2438 1159 1844 
L 1159 0 
L 581 0 
L 581 3500 
L 1159 3500 
L 1159 2956 
Q 1341 3275 1631 3429 
Q 1922 3584 2338 3584 
Q 2397 3584 2469 3576 
Q 2541 3569 2628 3553 
L 2631 2963 
z
" transform="scale(0.015625)"/>
      <path id="DejaVuSans-6b" d="M 581 4863 
L 1159 4863 
L 1159 1991 
L 2875 3500 
L 3609 3500 
L 1753 1863 
L 3688 0 
L 2938 0 
L 1159 1709 
L 1159 0 
L 581 0 
L 581 4863 
z
" transform="scale(0.015625)"/>
     </defs>
     <use xlink:href="#DejaVuSans-4e"/>
     <use xlink:href="#DejaVuSans-65" x="74.804688"/>
     <use xlink:href="#DejaVuSans-77" x="136.328125"/>
     <use xlink:href="#DejaVuSans-20" x="218.115234"/>
     <use xlink:href="#DejaVuSans-59" x="249.902344"/>
     <use xlink:href="#DejaVuSans-6f" x="297.736328"/>
     <use xlink:href="#DejaVuSans-72" x="358.917969"/>
     <use xlink:href="#DejaVuSans-6b" x="400.03125"/>
    </g>
   </g>
  </g>
 </g>
 <defs>
  <clipPath id="p9dd6a05889">
   <rect x="45" y="102.049222" width="279" height="159.501556"/>
  </clipPath>
 </defs>
</svg>
