<?xml version="1.0" encoding="utf-8" standalone="no"?>
<!DOCTYPE svg PUBLIC "-//W3C//DTD SVG 1.1//EN"
  "http://www.w3.org/Graphics/SVG/1.1/DTD/svg11.dtd">
<svg xmlns:xlink="http://www.w3.org/1999/xlink" width="360pt" height="360pt" viewBox="0 0 360 360" xmlns="http://www.w3.org/2000/svg" version="1.1">
 <metadata>
  <rdf:RDF xmlns:dc="http://purl.org/dc/elements/1.1/" xmlns:cc="http://creativecommons.org/ns#" xmlns:rdf="http://www.w3.org/1999/02/22-rdf-syntax-ns#">
   <cc:Work>
    <dc:type rdf:resource="http://purl.org/dc/dcmitype/StillImage"/>
    <dc:date>2023-06-19T15:20:25.584501</dc:date>
    <dc:format>image/svg+xml</dc:format>
    <dc:creator>
     <cc:Agent>
      <dc:title>Matplotlib v3.7.1, https://matplotlib.org/</dc:title>
     </cc:Agent>
    </dc:creator>
   </cc:Work>
  </rdf:RDF>
 </metadata>
 <defs>
  <style type="text/css">*{stroke-linejoin: round; stroke-linecap: butt}</style>
 </defs>
 <g id="figure_1">
  <g id="patch_1">
   <path d="M 0 360 
L 360 360 
L 360 0 
L 0 0 
z
" style="fill: #ffffff"/>
  </g>
  <g id="axes_1">
   <g id="PatchCollection_1">
    <path d="M 57.681818 294.450514 
L 57.695657 293.632305 
L 57.696915 293.63176 
L 57.726312 287.883622 
L 57.722831 281.175869 
L 57.740948 280.579332 
L 57.726564 279.198009 
L 57.740696 278.457088 
L 57.748203 278.062556 
L 57.747825 272.071611 
L 57.74229 271.462577 
L 57.760532 269.11757 
L 57.760951 268.907011 
L 57.789216 254.763624 
L 57.787728 245.509629 
L 57.787496 244.069916 
L 57.787496 243.862418 
L 57.787832 243.708891 
L 57.788125 243.56417 
L 57.809974 240.036071 
L 57.809962 240.026677 
L 57.794751 227.83905 
L 57.795884 227.79682 
L 57.818864 226.853097 
L 57.814335 226.811749 
L 57.809974 224.939652 
L 57.810016 224.921368 
L 57.804947 221.94812 
L 57.804942 221.945185 
L 57.795171 220.221709 
L 57.822135 215.390329 
L 57.818697 215.377832 
L 57.812993 215.222251 
L 57.820332 215.080759 
L 57.833164 214.979862 
L 57.802384 213.523726 
L 57.829055 204.496127 
L 57.8088 199.675399 
L 57.817332 198.072793 
L 57.838952 194.012307 
L 57.814629 188.770419 
L 57.849184 166.865557 
L 57.849184 166.858848 
L 57.850274 164.479495 
L 57.85321 156.439358 
L 57.883529 155.835902 
L 57.852455 155.224688 
L 57.872584 154.627313 
L 57.853797 154.025954 
L 57.863065 148.525992 
L 57.863061 148.521777 
L 57.855802 139.476671 
L 57.853294 136.351742 
L 57.835663 133.539193 
L 57.828917 132.463172 
L 57.823435 131.588634 
L 57.836645 123.926128 
L 57.835471 123.921347 
L 57.844403 121.07764 
L 57.844445 120.982614 
L 57.85581 109.941636 
L 57.85451 109.567527 
L 57.854552 108.010074 
L 57.856355 108.008564 
L 57.857948 104.802909 
L 57.857981 104.787674 
L 57.868181 99.993294 
L 57.849142 97.279085 
L 57.862338 91.694614 
L 57.880678 83.933023 
L 57.880672 82.785506 
L 57.880594 68.224383 
L 57.881684 68.207231 
L 57.887345 64.270594 
L 57.88852 64.244677 
L 57.8894 63.003588 
L 61.510765 63.010759 
L 61.697966 63.011052 
L 75.7085 62.995075 
L 75.734501 62.996668 
L 79.226774 62.99362 
L 85.815281 62.987868 
L 88.271957 62.985723 
L 88.282734 62.986184 
L 89.627363 62.985304 
L 89.640531 62.983836 
L 91.211068 62.983584 
L 91.26462 63.006481 
L 100.318451 62.970591 
L 101.695516 62.965133 
L 123.455406 62.964983 
L 126.006108 62.964965 
L 144.264904 62.960464 
L 148.803278 62.959346 
L 149.117629 63.282796 
L 154.116584 63.281328 
L 157.260299 63.253567 
L 157.859226 63.248535 
L 159.226794 63.251973 
L 159.230191 63.251386 
L 159.713584 63.258557 
L 159.712159 63.260109 
L 164.600613 63.226518 
L 165.620238 63.223527 
L 171.203401 63.207144 
L 173.294319 63.221402 
L 175.164823 63.204712 
L 175.2055 63.205634 
L 177.144443 63.211673 
L 185.315001 63.16047 
L 185.32831 63.160362 
L 185.699217 63.157366 
L 185.754278 63.157324 
L 197.399397 63.139379 
L 197.399676 63.139379 
L 197.483213 63.13925 
L 199.653431 63.138202 
L 201.215539 63.146379 
L 205.138547 63.13816 
L 206.037525 63.142269 
L 206.190548 63.137321 
L 208.021213 63.133295 
L 208.772996 63.132205 
L 208.97412 63.133169 
L 209.929966 63.138868 
L 209.944891 63.138956 
L 216.990689 63.149482 
L 218.277405 63.167766 
L 218.281871 63.167755 
L 221.027165 63.160631 
L 221.806948 63.158608 
L 222.463141 63.156905 
L 226.303284 63.27009 
L 227.505751 63.247654 
L 238.76274 63.238428 
L 238.766472 63.23998 
L 242.414969 63.242873 
L 243.232046 63.233606 
L 243.27352 63.200979 
L 247.689316 63.226602 
L 255.255537 63.236289 
L 258.958341 63.189783 
L 269.135358 63.122895 
L 280.604416 63.047327 
L 280.651259 63.048375 
L 304.861833 62.955446 
L 307.789789 62.957884 
L 311.308327 62.960813 
L 311.306314 66.672843 
L 311.318182 66.757301 
L 311.308369 74.731222 
L 311.294949 76.586503 
L 311.306104 79.01903 
L 311.308788 79.625589 
L 311.292978 82.818076 
L 311.298472 83.916416 
L 309.642428 83.914655 
L 309.649935 91.55418 
L 309.652912 91.584919 
L 309.688557 102.5848 
L 309.668386 111.707384 
L 309.631441 112.230616 
L 309.651151 112.697991 
L 309.642722 113.43736 
L 309.675054 113.641084 
L 309.669777 115.828043 
L 309.657944 120.732257 
L 309.623892 136.350442 
L 309.606741 136.720273 
L 309.618399 137.952137 
L 309.623431 139.156239 
L 309.623892 139.171462 
L 309.625025 139.207694 
L 309.622676 139.348137 
L 309.615421 140.155611 
L 309.609425 140.76716 
L 309.614079 140.849732 
L 309.617434 141.150411 
L 309.58636 141.59233 
L 309.612318 142.227448 
L 309.616075 148.759823 
L 309.617392 151.049352 
L 309.606489 153.116912 
L 309.60695 155.549984 
L 309.606992 157.431349 
L 309.60456 160.625723 
L 309.585312 161.384299 
L 309.594286 162.781474 
L 309.572395 169.370507 
L 309.572605 169.491534 
L 309.572647 169.496231 
L 309.572899 169.664184 
L 309.574744 171.769108 
L 309.572857 171.969771 
L 309.571682 172.119607 
L 309.572773 172.261728 
L 309.571599 172.399025 
L 309.571599 172.472958 
L 309.571557 172.62854 
L 309.570886 172.64024 
L 309.568244 172.686873 
L 309.558766 172.798506 
L 309.557718 172.851177 
L 309.557634 172.85558 
L 309.55625 175.656513 
L 309.556253 175.657139 
L 309.558042 176.080735 
L 309.558053 176.083377 
L 309.567153 176.634581 
L 309.570298 177.999088 
L 309.57298 184.040729 
L 309.573444 185.084389 
L 309.575666 185.443569 
L 309.568537 186.12729 
L 309.566105 186.676313 
L 309.56514 186.946422 
L 309.567069 186.997793 
L 309.564973 187.030587 
L 309.566021 187.208562 
L 309.574031 187.400628 
L 309.575037 188.017084 
L 309.573323 188.30374 
L 309.571431 188.620163 
L 309.557466 189.836468 
L 309.517921 191.053109 
L 309.484162 192.70194 
L 309.486427 192.901638 
L 309.433462 195.050302 
L 309.415052 196.124906 
L 309.341665 199.412881 
L 309.320194 199.769503 
L 309.297548 201.270594 
L 309.281445 202.510342 
L 309.25817 203.106752 
L 309.239383 203.429616 
L 309.246596 203.787622 
L 309.233974 204.310183 
L 309.194302 206.779781 
L 309.19428 206.780798 
L 309.024672 214.418845 
L 309.024659 214.419751 
L 308.989781 216.891421 
L 308.974307 217.488712 
L 308.916184 219.789435 
L 308.896139 219.961749 
L 308.880077 221.514924 
L 308.809576 224.800215 
L 308.720638 228.944686 
L 308.717492 229.085675 
L 308.697699 230.276776 
L 308.690444 230.712531 
L 308.688179 232.202342 
L 308.689102 232.423595 
L 308.692792 234.901287 
L 308.687257 235.767638 
L 308.680505 236.229309 
L 308.682812 236.675925 
L 308.678241 236.694209 
L 308.679373 237.025544 
L 308.688473 237.90154 
L 308.688405 237.90391 
L 308.687341 237.940918 
L 308.686837 239.741556 
L 308.687383 239.783115 
L 308.682812 240.047268 
L 308.681973 242.172364 
L 308.683147 242.92444 
L 308.683189 243.676474 
L 308.680421 244.016741 
L 308.690108 245.535949 
L 308.682476 246.45363 
L 308.684741 247.404481 
L 308.683608 247.465959 
L 308.684741 247.98655 
L 308.687466 250.745505 
L 308.698957 266.563136 
L 308.70206 267.484256 
L 308.702228 268.993524 
L 308.698915 272.622353 
L 307.799267 272.624576 
L 307.680924 272.625079 
L 302.35747 272.622563 
L 300.177145 272.624156 
L 300.174 272.630489 
L 300.061822 272.630405 
L 299.720548 272.626505 
L 297.708469 272.62856 
L 281.085922 272.635338 
L 280.019286 272.635773 
L 274.686775 272.620844 
L 270.295973 272.638834 
L 268.436456 272.643657 
L 255.641136 272.640957 
L 247.165161 272.639169 
L 247.15757 272.631034 
L 242.587367 272.627469 
L 242.477998 272.625498 
L 233.914125 272.623846 
L 230.956311 272.623276 
L 230.952748 272.623274 
L 224.297999 272.619795 
L 224.232621 272.621724 
L 222.578884 272.623737 
L 222.019586 272.622102 
L 221.955047 272.622353 
L 221.312423 272.623737 
L 221.225616 272.623234 
L 221.071125 272.623234 
L 211.157422 272.618621 
L 209.62035 272.617321 
L 209.556063 272.618914 
L 209.526749 272.619879 
L 196.858747 272.578488 
L 196.055048 272.551566 
L 191.713269 272.545527 
L 190.367214 272.561462 
L 189.761619 272.556011 
L 185.676949 272.546449 
L 183.4775 272.542914 
L 180.328837 272.537853 
L 177.967601 272.558108 
L 177.176734 272.569221 
L 176.957997 272.570185 
L 172.454429 272.580669 
L 172.028264 272.582949 
L 171.918571 272.583536 
L 169.789243 272.594927 
L 169.775873 272.594688 
L 169.058009 272.581843 
L 165.416054 272.600085 
L 161.9288 272.612414 
L 161.158146 272.613831 
L 160.560268 272.614931 
L 159.65651 272.623318 
L 159.616168 272.864952 
L 159.443392 273.02154 
L 159.124093 273.071443 
L 158.901414 273.242961 
L 158.774055 273.468198 
L 158.830375 273.616147 
L 159.168881 273.849394 
L 159.459412 273.779781 
L 159.619397 274.12118 
L 159.503864 274.279739 
L 159.536154 274.430247 
L 159.689178 274.488915 
L 159.828908 274.625374 
L 159.792088 274.784268 
L 159.491954 275.118161 
L 159.511454 275.32243 
L 159.426408 275.537603 
L 159.547309 275.701614 
L 159.909928 275.957128 
L 159.925863 276.055258 
L 159.343627 276.324905 
L 159.019841 276.427103 
L 158.719077 276.644833 
L 158.524537 276.893429 
L 158.532212 277.053246 
L 158.63269 277.134014 
L 158.831717 277.187273 
L 159.144642 277.407519 
L 159.207336 277.520494 
L 158.969308 277.907939 
L 158.927079 278.032237 
L 158.92515 278.253616 
L 159.265585 278.490217 
L 159.351343 278.671254 
L 159.515144 278.814758 
L 159.817921 279.081638 
L 160.18662 279.089396 
L 160.211782 279.10617 
L 160.345976 279.169074 
L 160.35017 279.370365 
L 160.210859 279.86072 
L 160.317376 279.981831 
L 160.690646 279.986989 
L 160.891141 280.079038 
L 160.933077 280.1042 
L 161.18054 280.380976 
L 161.214089 280.448073 
L 161.386025 280.594848 
L 161.650221 280.603235 
L 161.822157 280.473235 
L 161.964739 280.50259 
L 161.985665 280.565577 
L 162.174418 280.594848 
L 162.648292 280.724891 
L 162.67209 280.755273 
L 162.723777 280.82126 
L 162.750196 280.851453 
L 162.857971 280.942873 
L 162.859942 280.941238 
L 163.122209 281.089649 
L 163.143176 281.135778 
L 163.151102 281.153307 
L 163.168338 281.194488 
L 163.239629 281.370618 
L 163.241432 281.373889 
L 163.263239 281.370325 
L 163.345642 281.362399 
L 163.453501 281.429328 
L 163.462098 281.460612 
L 163.466921 281.487535 
L 163.451237 281.578704 
L 163.445911 281.660898 
L 163.440962 281.737934 
L 163.294649 281.705979 
L 154.118429 281.714534 
L 154.118429 281.706482 
L 143.92816 281.715247 
L 143.731439 281.716001 
L 143.633939 281.715666 
L 143.633939 281.722627 
L 142.27517 281.721485 
L 131.211145 281.712186 
L 131.209877 281.712185 
L 125.950207 281.719021 
L 125.939765 281.719021 
L 116.771136 281.714114 
L 108.081036 281.717637 
L 99.56824 281.719566 
L 92.982477 281.719021 
L 92.995352 288.852716 
L 92.977152 293.620437 
L 92.975013 293.622786 
L 92.974971 300.598677 
L 81.787343 300.596915 
L 72.045494 300.607232 
L 68.646431 300.641871 
L 66.02989 300.644554 
L 65.613761 300.643967 
L 57.687228 300.636125 
L 57.681818 294.450514 
" clip-path="url(#p3389cab179)" style="fill: #570063"/>
   </g>
   <g id="PathCollection_1">
    <defs>
     <path id="m942b12ef5d" d="M 0 1.581139 
C 0.419323 1.581139 0.821528 1.41454 1.118034 1.118034 
C 1.41454 0.821528 1.581139 0.419323 1.581139 0 
C 1.581139 -0.419323 1.41454 -0.821528 1.118034 -1.118034 
C 0.821528 -1.41454 0.419323 -1.581139 0 -1.581139 
C -0.419323 -1.581139 -0.821528 -1.41454 -1.118034 -1.118034 
C -1.41454 -0.821528 -1.581139 -0.419323 -1.581139 0 
C -1.581139 0.419323 -1.41454 0.821528 -1.118034 1.118034 
C -0.821528 1.41454 -0.419323 1.581139 0 1.581139 
z
" style="stroke: #000000"/>
    </defs>
    <g clip-path="url(#p3389cab179)">
     <use xlink:href="#m942b12ef5d" x="188.120756" y="118.226468" style="stroke: #000000"/>
    </g>
   </g>
   <g id="text_1">
    <!-- Santa Fe -->
    <g transform="translate(191.120756 115.226468) scale(0.1 -0.1)">
     <defs>
      <path id="DejaVuSans-53" d="M 3425 4513 
L 3425 3897 
Q 3066 4069 2747 4153 
Q 2428 4238 2131 4238 
Q 1616 4238 1336 4038 
Q 1056 3838 1056 3469 
Q 1056 3159 1242 3001 
Q 1428 2844 1947 2747 
L 2328 2669 
Q 3034 2534 3370 2195 
Q 3706 1856 3706 1288 
Q 3706 609 3251 259 
Q 2797 -91 1919 -91 
Q 1588 -91 1214 -16 
Q 841 59 441 206 
L 441 856 
Q 825 641 1194 531 
Q 1563 422 1919 422 
Q 2459 422 2753 634 
Q 3047 847 3047 1241 
Q 3047 1584 2836 1778 
Q 2625 1972 2144 2069 
L 1759 2144 
Q 1053 2284 737 2584 
Q 422 2884 422 3419 
Q 422 4038 858 4394 
Q 1294 4750 2059 4750 
Q 2388 4750 2728 4690 
Q 3069 4631 3425 4513 
z
" transform="scale(0.015625)"/>
      <path id="DejaVuSans-61" d="M 2194 1759 
Q 1497 1759 1228 1600 
Q 959 1441 959 1056 
Q 959 750 1161 570 
Q 1363 391 1709 391 
Q 2188 391 2477 730 
Q 2766 1069 2766 1631 
L 2766 1759 
L 2194 1759 
z
M 3341 1997 
L 3341 0 
L 2766 0 
L 2766 531 
Q 2569 213 2275 61 
Q 1981 -91 1556 -91 
Q 1019 -91 701 211 
Q 384 513 384 1019 
Q 384 1609 779 1909 
Q 1175 2209 1959 2209 
L 2766 2209 
L 2766 2266 
Q 2766 2663 2505 2880 
Q 2244 3097 1772 3097 
Q 1472 3097 1187 3025 
Q 903 2953 641 2809 
L 641 3341 
Q 956 3463 1253 3523 
Q 1550 3584 1831 3584 
Q 2591 3584 2966 3190 
Q 3341 2797 3341 1997 
z
" transform="scale(0.015625)"/>
      <path id="DejaVuSans-6e" d="M 3513 2113 
L 3513 0 
L 2938 0 
L 2938 2094 
Q 2938 2591 2744 2837 
Q 2550 3084 2163 3084 
Q 1697 3084 1428 2787 
Q 1159 2491 1159 1978 
L 1159 0 
L 581 0 
L 581 3500 
L 1159 3500 
L 1159 2956 
Q 1366 3272 1645 3428 
Q 1925 3584 2291 3584 
Q 2894 3584 3203 3211 
Q 3513 2838 3513 2113 
z
" transform="scale(0.015625)"/>
      <path id="DejaVuSans-74" d="M 1172 4494 
L 1172 3500 
L 2356 3500 
L 2356 3053 
L 1172 3053 
L 1172 1153 
Q 1172 725 1289 603 
Q 1406 481 1766 481 
L 2356 481 
L 2356 0 
L 1766 0 
Q 1100 0 847 248 
Q 594 497 594 1153 
L 594 3053 
L 172 3053 
L 172 3500 
L 594 3500 
L 594 4494 
L 1172 4494 
z
" transform="scale(0.015625)"/>
      <path id="DejaVuSans-20" transform="scale(0.015625)"/>
      <path id="DejaVuSans-46" d="M 628 4666 
L 3309 4666 
L 3309 4134 
L 1259 4134 
L 1259 2759 
L 3109 2759 
L 3109 2228 
L 1259 2228 
L 1259 0 
L 628 0 
L 628 4666 
z
" transform="scale(0.015625)"/>
      <path id="DejaVuSans-65" d="M 3597 1894 
L 3597 1613 
L 953 1613 
Q 991 1019 1311 708 
Q 1631 397 2203 397 
Q 2534 397 2845 478 
Q 3156 559 3463 722 
L 3463 178 
Q 3153 47 2828 -22 
Q 2503 -91 2169 -91 
Q 1331 -91 842 396 
Q 353 884 353 1716 
Q 353 2575 817 3079 
Q 1281 3584 2069 3584 
Q 2775 3584 3186 3129 
Q 3597 2675 3597 1894 
z
M 3022 2063 
Q 3016 2534 2758 2815 
Q 2500 3097 2075 3097 
Q 1594 3097 1305 2825 
Q 1016 2553 972 2059 
L 3022 2063 
z
" transform="scale(0.015625)"/>
     </defs>
     <use xlink:href="#DejaVuSans-53"/>
     <use xlink:href="#DejaVuSans-61" x="63.476562"/>
     <use xlink:href="#DejaVuSans-6e" x="124.755859"/>
     <use xlink:href="#DejaVuSans-74" x="188.134766"/>
     <use xlink:href="#DejaVuSans-61" x="227.34375"/>
     <use xlink:href="#DejaVuSans-20" x="288.623047"/>
     <use xlink:href="#DejaVuSans-46" x="320.410156"/>
     <use xlink:href="#DejaVuSans-65" x="372.429688"/>
    </g>
   </g>
   <g id="text_2">
    <!-- New Mexico -->
    <g transform="translate(148.553438 45.07099) scale(0.12 -0.12)">
     <defs>
      <path id="DejaVuSans-4e" d="M 628 4666 
L 1478 4666 
L 3547 763 
L 3547 4666 
L 4159 4666 
L 4159 0 
L 3309 0 
L 1241 3903 
L 1241 0 
L 628 0 
L 628 4666 
z
" transform="scale(0.015625)"/>
      <path id="DejaVuSans-77" d="M 269 3500 
L 844 3500 
L 1563 769 
L 2278 3500 
L 2956 3500 
L 3675 769 
L 4391 3500 
L 4966 3500 
L 4050 0 
L 3372 0 
L 2619 2869 
L 1863 0 
L 1184 0 
L 269 3500 
z
" transform="scale(0.015625)"/>
      <path id="DejaVuSans-4d" d="M 628 4666 
L 1569 4666 
L 2759 1491 
L 3956 4666 
L 4897 4666 
L 4897 0 
L 4281 0 
L 4281 4097 
L 3078 897 
L 2444 897 
L 1241 4097 
L 1241 0 
L 628 0 
L 628 4666 
z
" transform="scale(0.015625)"/>
      <path id="DejaVuSans-78" d="M 3513 3500 
L 2247 1797 
L 3578 0 
L 2900 0 
L 1881 1375 
L 863 0 
L 184 0 
L 1544 1831 
L 300 3500 
L 978 3500 
L 1906 2253 
L 2834 3500 
L 3513 3500 
z
" transform="scale(0.015625)"/>
      <path id="DejaVuSans-69" d="M 603 3500 
L 1178 3500 
L 1178 0 
L 603 0 
L 603 3500 
z
M 603 4863 
L 1178 4863 
L 1178 4134 
L 603 4134 
L 603 4863 
z
" transform="scale(0.015625)"/>
      <path id="DejaVuSans-63" d="M 3122 3366 
L 3122 2828 
Q 2878 2963 2633 3030 
Q 2388 3097 2138 3097 
Q 1578 3097 1268 2742 
Q 959 2388 959 1747 
Q 959 1106 1268 751 
Q 1578 397 2138 397 
Q 2388 397 2633 464 
Q 2878 531 3122 666 
L 3122 134 
Q 2881 22 2623 -34 
Q 2366 -91 2075 -91 
Q 1284 -91 818 406 
Q 353 903 353 1747 
Q 353 2603 823 3093 
Q 1294 3584 2113 3584 
Q 2378 3584 2631 3529 
Q 2884 3475 3122 3366 
z
" transform="scale(0.015625)"/>
      <path id="DejaVuSans-6f" d="M 1959 3097 
Q 1497 3097 1228 2736 
Q 959 2375 959 1747 
Q 959 1119 1226 758 
Q 1494 397 1959 397 
Q 2419 397 2687 759 
Q 2956 1122 2956 1747 
Q 2956 2369 2687 2733 
Q 2419 3097 1959 3097 
z
M 1959 3584 
Q 2709 3584 3137 3096 
Q 3566 2609 3566 1747 
Q 3566 888 3137 398 
Q 2709 -91 1959 -91 
Q 1206 -91 779 398 
Q 353 888 353 1747 
Q 353 2609 779 3096 
Q 1206 3584 1959 3584 
z
" transform="scale(0.015625)"/>
     </defs>
     <use xlink:href="#DejaVuSans-4e"/>
     <use xlink:href="#DejaVuSans-65" x="74.804688"/>
     <use xlink:href="#DejaVuSans-77" x="136.328125"/>
     <use xlink:href="#DejaVuSans-20" x="218.115234"/>
     <use xlink:href="#DejaVuSans-4d" x="249.902344"/>
     <use xlink:href="#DejaVuSans-65" x="336.181641"/>
     <use xlink:href="#DejaVuSans-78" x="395.955078"/>
     <use xlink:href="#DejaVuSans-69" x="455.134766"/>
     <use xlink:href="#DejaVuSans-63" x="482.917969"/>
     <use xlink:href="#DejaVuSans-6f" x="537.898438"/>
    </g>
   </g>
  </g>
 </g>
 <defs>
  <clipPath id="p3389cab179">
   <rect x="45" y="51.07099" width="279" height="261.45802"/>
  </clipPath>
 </defs>
</svg>
