<?xml version="1.0" encoding="utf-8" standalone="no"?>
<!DOCTYPE svg PUBLIC "-//W3C//DTD SVG 1.1//EN"
  "http://www.w3.org/Graphics/SVG/1.1/DTD/svg11.dtd">
<svg xmlns:xlink="http://www.w3.org/1999/xlink" width="360pt" height="360pt" viewBox="0 0 360 360" xmlns="http://www.w3.org/2000/svg" version="1.1">
 <metadata>
  <rdf:RDF xmlns:dc="http://purl.org/dc/elements/1.1/" xmlns:cc="http://creativecommons.org/ns#" xmlns:rdf="http://www.w3.org/1999/02/22-rdf-syntax-ns#">
   <cc:Work>
    <dc:type rdf:resource="http://purl.org/dc/dcmitype/StillImage"/>
    <dc:date>2023-06-19T15:20:28.462638</dc:date>
    <dc:format>image/svg+xml</dc:format>
    <dc:creator>
     <cc:Agent>
      <dc:title>Matplotlib v3.7.1, https://matplotlib.org/</dc:title>
     </cc:Agent>
    </dc:creator>
   </cc:Work>
  </rdf:RDF>
 </metadata>
 <defs>
  <style type="text/css">*{stroke-linejoin: round; stroke-linecap: butt}</style>
 </defs>
 <g id="figure_1">
  <g id="patch_1">
   <path d="M 0 360 
L 360 360 
L 360 0 
L 0 0 
z
" style="fill: #ffffff"/>
  </g>
  <g id="axes_1">
   <g id="PatchCollection_1">
    <path d="M 98.14789 235.118937 
L 98.1122 235.040502 
L 98.444201 234.511374 
L 99.025308 234.200123 
L 99.383039 233.928712 
L 99.917562 233.359744 
L 100.208063 233.349369 
L 100.633544 233.235243 
L 101.505048 232.415511 
L 101.494673 232.35326 
L 101.546549 232.280635 
L 101.961654 231.824133 
L 102.376656 231.502506 
L 102.760533 231.014879 
L 103.06141 230.423501 
L 103.310515 229.282245 
L 103.269014 229.199245 
L 103.34164 228.327741 
L 103.536691 228.07376 
L 103.860392 227.933489 
L 104.66975 227.611862 
L 105.068087 226.823318 
L 105.178127 226.605483 
L 105.467384 226.219531 
L 105.811005 226.117855 
L 106.028881 226.14898 
L 106.174132 226.249307 
L 106.464737 226.325356 
L 106.599613 226.200856 
L 106.677633 225.855989 
L 106.621193 225.625248 
L 106.641113 225.194476 
L 106.827864 224.779474 
L 106.833674 224.536283 
L 106.959835 224.078121 
L 107.356643 223.422811 
L 107.471221 223.233591 
L 108.114474 221.708459 
L 108.083349 221.407583 
L 108.487976 220.93033 
L 109.224604 220.598329 
L 109.540421 220.03569 
L 109.445281 220.001971 
L 109.395896 219.970535 
L 109.430357 219.944558 
L 110.681157 219.001712 
L 110.889901 218.92558 
L 113.460192 217.988158 
L 114.085293 217.760175 
L 114.093096 217.757329 
L 113.092112 217.184315 
L 114.267086 216.604038 
L 115.636696 215.794784 
L 117.576934 214.518653 
L 119.385824 213.242003 
L 120.696712 212.602382 
L 121.872412 212.298393 
L 122.61952 212.215392 
L 123.10613 212.20222 
L 124.026169 212.177316 
L 125.717095 212.322255 
L 128.022119 212.253987 
L 130.898913 211.718946 
L 131.770936 211.509785 
L 133.223547 211.042908 
L 134.276469 210.566113 
L 134.323302 210.544906 
L 135.890038 209.393275 
L 136.512645 209.009398 
L 137.166273 208.874523 
L 138.046859 208.85544 
L 140.517622 208.801897 
L 141.0675 208.646271 
L 141.077582 208.638877 
L 141.378751 208.41802 
L 141.607002 208.231269 
L 141.629258 208.20509 
L 142.312609 207.401265 
L 142.582361 206.986263 
L 142.883237 205.782758 
L 142.654986 205.243255 
L 142.37486 204.766107 
L 142.3633 204.736157 
L 142.146609 204.174729 
L 142.056595 203.634648 
L 142.032483 203.489975 
L 142.073983 202.120469 
L 142.250181 201.535812 
L 142.302234 201.36309 
L 142.654986 200.916963 
L 142.986988 200.667962 
L 143.304155 200.490842 
L 143.785866 200.221835 
L 144.937601 199.713457 
L 144.997575 199.696382 
L 146.431712 199.28808 
L 146.920087 199.211472 
L 146.960839 199.20508 
L 148.683201 198.644827 
L 149.930584 197.502992 
L 150.031958 197.410196 
L 150.841212 196.16519 
L 151.277067 195.708688 
L 151.311863 195.69016 
L 152.075946 195.283311 
L 153.047162 195.018115 
L 154.545312 194.609037 
L 155.001814 194.422286 
L 155.333919 194.235535 
L 157.201428 192.762278 
L 157.824035 192.202025 
L 158.77854 191.579522 
L 158.819329 191.560003 
L 161.922283 190.07514 
L 163.188143 189.535637 
L 163.904022 189.297115 
L 164.370899 189.255615 
L 165.294278 189.380115 
L 165.588844 189.349643 
L 165.595155 189.34899 
L 167.794769 188.767987 
L 168.583377 188.456736 
L 170.284885 188.103984 
L 170.585761 187.948358 
L 170.699887 187.823858 
L 170.865888 187.419231 
L 170.950073 187.295428 
L 171.042264 187.159854 
L 171.26014 186.973104 
L 171.60262 186.786353 
L 172.401499 186.495851 
L 172.961751 186.16385 
L 173.262628 185.852598 
L 173.501254 185.043344 
L 173.957756 184.15109 
L 174.217236 183.777588 
L 174.590738 183.487087 
L 174.933115 183.404086 
L 175.213241 183.393711 
L 175.279382 183.40694 
L 175.576368 183.466337 
L 176.842124 183.891714 
L 178.076859 184.140715 
L 178.45036 184.15109 
L 178.761612 184.099215 
L 180.070736 183.234454 
L 180.757979 182.882118 
L 181.171113 182.727011 
L 181.542229 182.657083 
L 182.517484 182.708958 
L 182.828735 182.688208 
L 183.067361 182.605208 
L 184.617601 181.538134 
L 184.758598 181.380952 
L 184.934974 181.0697 
L 184.946396 181.026297 
L 185.038724 180.675448 
L 185.0491 180.1983 
L 184.966099 179.970049 
L 183.772968 178.527917 
L 183.420113 178.20629 
L 182.704235 177.853539 
L 181.915731 177.614912 
L 181.885816 177.593052 
L 181.645979 177.417786 
L 181.511104 177.262161 
L 181.376228 176.982034 
L 180.992351 175.996405 
L 180.967841 175.962168 
L 180.338723 175.0834 
L 179.975493 174.378001 
L 179.876515 174.285559 
L 178.854987 173.651747 
L 177.392105 172.832118 
L 174.881239 171.887989 
L 174.424737 171.576737 
L 173.138231 171.08911 
L 172.515624 170.642983 
L 172.069497 169.781854 
L 171.395119 168.651077 
L 171.394066 168.648692 
L 171.042367 167.852198 
L 170.629025 167.107581 
L 170.193273 166.474703 
L 169.828383 166.005439 
L 168.541877 164.926434 
L 167.867498 164.438807 
L 167.400621 164.15868 
L 166.902619 163.940804 
L 166.186636 163.888929 
L 165.667884 163.754053 
L 164.723754 163.183529 
L 163.7485 162.457276 
L 163.094768 162.073399 
L 162.410015 161.565022 
L 162.073523 161.18772 
L 161.988269 161.092127 
L 161.852148 160.597444 
L 161.756905 159.562637 
L 161.475119 158.788451 
L 160.95896 157.614721 
L 160.927332 157.555872 
L 159.89033 155.626343 
L 159.733563 155.409401 
L 159.309327 155.156976 
L 157.946253 154.673291 
L 157.662807 154.517354 
L 157.306528 154.22291 
L 156.530785 154.040828 
L 156.29496 154.085959 
L 155.807333 154.318672 
L 154.368313 154.651918 
L 153.584582 154.774655 
L 153.217305 154.73025 
L 152.356073 154.428025 
L 151.833689 154.106606 
L 151.822323 154.092926 
L 151.686363 153.929296 
L 151.547622 153.840024 
L 151.333404 153.702186 
L 150.33439 153.466258 
L 150.049491 153.25886 
L 149.86127 152.917981 
L 149.775486 152.762622 
L 149.626708 151.66712 
L 149.159623 150.119578 
L 148.833536 149.409717 
L 148.833536 149.28698 
L 149.172385 148.394103 
L 149.094779 148.018112 
L 149.123207 147.577276 
L 149.481042 147.165594 
L 149.698919 146.688756 
L 149.729006 146.173013 
L 149.683771 145.620334 
L 149.382687 144.272304 
L 149.307364 143.646273 
L 149.322719 142.735447 
L 149.401881 142.045195 
L 149.26576 140.96785 
L 149.177054 140.651204 
L 149.03616 140.377406 
L 148.010275 139.747329 
L 146.226078 138.076428 
L 145.746232 137.722638 
L 144.648759 137.425912 
L 143.985897 137.162386 
L 141.967328 136.900934 
L 141.432183 136.948452 
L 140.865497 137.168507 
L 139.716149 137.984608 
L 139.257053 138.108071 
L 138.661733 138.106515 
L 137.966812 138.014696 
L 137.152993 137.770052 
L 136.780944 137.557156 
L 136.198385 137.053863 
L 136.022632 136.846465 
L 135.937141 136.604208 
L 135.911826 136.49029 
L 135.959344 136.256748 
L 136.359821 135.748578 
L 136.427259 135.383272 
L 136.404077 135.25016 
L 136.204714 134.105377 
L 135.736591 133.492834 
L 135.560631 133.190713 
L 135.265045 132.865351 
L 135.216905 132.59975 
L 135.331446 132.478569 
L 135.623711 132.377309 
L 136.370715 132.312569 
L 136.516795 132.153208 
L 136.589836 131.827846 
L 136.28844 130.582114 
L 135.899895 129.98005 
L 135.356346 129.517219 
L 135.358006 129.276518 
L 135.749768 128.663975 
L 136.354011 127.956811 
L 136.656132 127.762591 
L 137.193975 127.538489 
L 137.740221 126.851246 
L 137.811601 126.527545 
L 137.730261 126.318384 
L 137.421396 126.149063 
L 137.011374 126.085982 
L 136.382231 126.147403 
L 135.724453 125.948202 
L 135.309451 125.512553 
L 134.998199 124.89005 
L 135.537702 123.458294 
L 135.983829 122.553589 
L 136.146 122.387113 
L 136.17141 122.361028 
L 136.503411 122.143567 
L 136.818813 121.521064 
L 137.220535 120.903541 
L 137.263695 120.737541 
L 137.188995 120.516759 
L 136.880233 120.141598 
L 135.887445 119.290117 
L 135.786184 119.117477 
L 135.730574 118.810375 
L 135.764604 118.651222 
L 136.25607 118.215573 
L 137.164821 117.850994 
L 137.579512 117.586119 
L 137.741674 117.344588 
L 137.806206 116.878126 
L 137.934338 116.442166 
L 138.169956 116.109542 
L 138.352764 115.941881 
L 138.566905 115.866351 
L 139.176232 115.875377 
L 140.656959 116.248879 
L 141.722684 116.371305 
L 142.210934 116.354808 
L 142.324748 116.317562 
L 142.515442 116.128113 
L 143.096237 115.290224 
L 143.384559 115.008023 
L 144.032585 114.737857 
L 144.603109 114.681209 
L 144.604661 114.680554 
L 144.897553 114.556916 
L 145.696951 113.653975 
L 145.762832 113.321662 
L 145.703279 113.063531 
L 145.751212 112.846693 
L 145.958506 112.565736 
L 146.179702 112.366017 
L 147.296057 111.353308 
L 147.447325 111.094035 
L 147.458427 110.748131 
L 147.282569 110.51158 
L 146.304928 109.783459 
L 146.09058 109.551784 
L 146.068274 108.998172 
L 146.217363 108.748133 
L 146.717648 108.529738 
L 148.198998 108.458358 
L 148.524774 108.555365 
L 148.806353 108.71597 
L 149.306015 108.695324 
L 149.592574 108.425469 
L 149.482184 108.019493 
L 150.404733 107.165212 
L 150.831874 106.920464 
L 150.880429 106.570929 
L 150.81102 106.347139 
L 150.587334 105.990652 
L 149.365776 104.743364 
L 148.485764 104.069608 
L 148.274424 103.704614 
L 148.354208 103.241887 
L 148.260418 102.527253 
L 148.170777 102.232809 
L 147.929765 101.81677 
L 146.244131 100.752082 
L 146.016502 100.489905 
L 145.206833 99.492344 
L 145.141574 99.141978 
L 144.567834 98.266324 
L 143.936927 97.756701 
L 143.818652 97.410382 
L 143.716042 96.862061 
L 143.672156 96.75997 
L 143.637503 96.614927 
L 143.728804 96.357418 
L 143.65981 96.171498 
L 143.651187 96.164139 
L 143.434878 95.979559 
L 142.763509 96.10157 
L 142.52592 96.070341 
L 142.275259 95.89438 
L 142.094111 95.600351 
L 142.09463 95.283082 
L 142.347262 94.939253 
L 142.448937 94.6916 
L 142.508698 94.447994 
L 142.499464 94.034445 
L 142.607779 93.80692 
L 142.958352 93.51009 
L 143.349803 93.284432 
L 144.680714 92.657261 
L 144.834369 92.45723 
L 145.709193 92.186026 
L 146.241018 91.962132 
L 146.785086 91.502725 
L 146.839555 91.373348 
L 147.740732 91.135863 
L 148.373817 91.105568 
L 148.837271 90.95098 
L 151.584933 89.742483 
L 151.935676 89.588217 
L 152.576024 89.069465 
L 152.969757 88.897135 
L 153.480624 88.752922 
L 153.516626 88.659132 
L 153.418478 88.272142 
L 153.488405 88.060284 
L 154.164444 87.387358 
L 154.366446 87.125595 
L 154.508792 86.843498 
L 154.570627 86.531728 
L 154.850857 86.006128 
L 154.999946 85.877477 
L 155.493488 85.874883 
L 156.194737 85.211191 
L 156.689627 84.940091 
L 157.261811 84.757179 
L 157.961297 84.66868 
L 159.165114 84.033623 
L 159.434658 83.773832 
L 159.603771 83.189924 
L 159.568625 83.095104 
L 159.530627 82.992591 
L 159.326239 82.915089 
L 159.05628 82.968209 
L 158.717846 83.122694 
L 158.093683 83.559795 
L 157.733876 83.696226 
L 157.37272 83.729738 
L 157.087407 83.692803 
L 157.004199 83.635325 
L 157.014262 83.308303 
L 158.000515 81.652342 
L 158.243187 81.426373 
L 158.964876 81.125082 
L 159.338896 81.068849 
L 159.6516 81.089599 
L 159.859516 81.030669 
L 161.559157 80.063403 
L 161.619125 79.972206 
L 161.579699 79.779956 
L 161.854327 79.493605 
L 163.299156 79.043847 
L 164.126255 78.550098 
L 165.984738 76.732182 
L 166.345375 76.138106 
L 166.408455 75.88122 
L 166.561072 75.641453 
L 167.627316 74.871728 
L 168.383138 74.120989 
L 168.761516 73.429181 
L 168.78403 73.119486 
L 169.224036 72.283879 
L 169.924041 71.224483 
L 170.638778 70.321853 
L 170.718251 70.153466 
L 170.75031 70.005103 
L 170.593231 69.817315 
L 169.970521 69.345458 
L 169.911798 69.251563 
L 170.038685 68.799004 
L 170.467486 68.230762 
L 170.505977 67.819288 
L 170.975656 67.051534 
L 171.094761 66.935437 
L 171.233164 66.892277 
L 171.822675 66.821519 
L 172.035882 66.600946 
L 172.144716 66.432144 
L 172.233112 66.10948 
L 172.08008 65.744174 
L 172.099481 65.588445 
L 172.637116 64.768504 
L 172.886855 64.20017 
L 172.924609 64.114254 
L 173.370632 63.717408 
L 173.786672 63.085671 
L 174.634625 62.396975 
L 175.275906 62.157001 
L 175.656671 61.948877 
L 176.193579 61.430332 
L 177.677212 60.655005 
L 177.736038 60.550113 
L 177.69599 60.296028 
L 177.33857 59.836621 
L 177.419703 59.640428 
L 177.723069 59.42691 
L 178.0365 59.34225 
L 178.81577 59.243894 
L 179.510587 59.23383 
L 179.85286 59.155706 
L 180.358539 58.794758 
L 180.692097 58.482469 
L 181.021401 57.573926 
L 181.473131 57.093769 
L 181.756577 56.972484 
L 183.58435 56.931399 
L 184.128936 56.986906 
L 185.109379 56.841551 
L 186.396818 56.286486 
L 186.820639 56.150677 
L 187.218419 56.097764 
L 187.807825 55.8 
L 193.344989 58.346452 
L 196.892841 59.913604 
L 208.071439 65.145741 
L 212.430931 67.129347 
L 220.594643 71.199583 
L 221.796677 71.751784 
L 226.602108 73.959346 
L 228.573471 74.976101 
L 230.846106 75.976119 
L 235.578808 78.058632 
L 235.590713 78.063498 
L 237.975655 79.0383 
L 239.639168 79.718232 
L 240.982446 80.267272 
L 249.863903 84.188938 
L 250.31003 84.386064 
L 255.646126 86.752405 
L 255.646645 86.752612 
L 264.168164 90.56506 
L 269.047993 92.74825 
L 269.548693 93.04093 
L 269.760759 93.132749 
L 270.002497 93.163252 
L 270.905231 93.173627 
L 270.645854 94.78176 
L 270.391809 95.492057 
L 269.770525 97.229133 
L 269.525245 97.914921 
L 268.664116 100.674684 
L 268.44624 101.234937 
L 268.422896 101.434242 
L 268.371021 101.444617 
L 268.238075 101.853579 
L 268.236145 101.859515 
L 267.271162 104.339152 
L 266.81466 105.117281 
L 266.329626 105.882855 
L 266.322102 105.894879 
L 265.271371 107.573989 
L 264.679889 108.65289 
L 263.725385 110.842026 
L 263.228273 111.471024 
L 263.227323 111.472227 
L 263.217007 111.485279 
L 263.01304 111.768631 
L 262.890656 111.938646 
L 261.583448 113.754623 
L 261.493133 113.88009 
L 261.144846 114.36393 
L 260.546368 115.195338 
L 259.760805 116.286643 
L 259.66885 116.414388 
L 259.046315 117.279215 
L 258.952654 117.409328 
L 258.883377 117.51475 
L 258.475402 118.135582 
L 258.149695 119.431835 
L 257.853656 120.610016 
L 257.718898 121.146329 
L 257.7146 121.163436 
L 257.67562 121.368019 
L 257.35915 123.028974 
L 255.666254 123.995825 
L 254.999657 124.993282 
L 252.951207 124.934767 
L 252.477275 126.742308 
L 253.252706 127.145275 
L 252.48516 128.109532 
L 251.587095 127.842271 
L 250.899333 129.029903 
L 250.179305 129.378193 
L 248.495434 129.401848 
L 246.609769 129.828159 
L 245.042721 130.010034 
L 243.159388 129.793859 
L 243.14712 129.792451 
L 242.204523 129.684257 
L 241.086196 129.561209 
L 240.425928 129.752525 
L 239.450198 130.676752 
L 239.10896 130.999978 
L 238.922272 131.176812 
L 238.793829 131.783234 
L 238.902871 132.665943 
L 238.765401 133.697845 
L 239.215471 134.395464 
L 238.772767 135.141326 
L 238.375299 136.173643 
L 237.96424 137.489096 
L 237.40973 138.673458 
L 237.408345 138.676417 
L 236.312636 138.737007 
L 235.087239 139.180022 
L 234.049734 140.082651 
L 234.093724 141.330873 
L 234.340546 142.231013 
L 233.795649 142.947825 
L 233.080185 144.11149 
L 232.866978 144.505327 
L 231.80727 145.876909 
L 232.258066 147.15221 
L 232.734385 148.419833 
L 233.14182 148.531393 
L 235.348897 149.135712 
L 236.567257 149.606688 
L 238.139889 150.214613 
L 238.513391 150.909742 
L 238.934618 151.093069 
L 239.787447 150.879862 
L 240.30952 150.356337 
L 240.653764 149.642948 
L 241.160585 149.117971 
L 241.698324 149.111019 
L 241.827493 149.415527 
L 242.348632 149.818494 
L 242.96159 150.109099 
L 243.606918 150.197598 
L 244.140403 150.146657 
L 244.9287 149.711527 
L 245.347955 149.336262 
L 245.59457 149.223589 
L 246.038415 149.242367 
L 247.246693 149.974223 
L 248.669839 150.590086 
L 250.766636 151.148368 
L 252.001267 151.635995 
L 253.78588 152.777147 
L 254.93751 153.171399 
L 259.24326 153.980653 
L 260.060606 154.001092 
L 260.373829 153.112884 
L 260.768496 150.681387 
L 259.52432 150.102355 
L 259.349085 148.947301 
L 257.899587 147.741513 
L 257.998254 147.047422 
L 260.118914 147.17877 
L 261.684301 150.094055 
L 261.746448 152.977282 
L 262.293628 154.250404 
L 262.874734 158.068319 
L 262.874734 160.527102 
L 262.540639 163.20808 
L 262.245903 165.573215 
L 261.806104 167.644282 
L 260.601457 171.975035 
L 259.909052 174.13086 
L 259.632184 174.992895 
L 256.774205 183.891299 
L 256.369682 185.93508 
L 256.599949 186.149673 
L 256.656241 186.202134 
L 256.425085 186.30827 
L 255.815551 188.184183 
L 255.22019 190.648108 
L 253.251461 198.795784 
L 252.408618 203.17751 
L 251.891084 205.868041 
L 250.46991 217.385695 
L 249.834334 220.719302 
L 249.851453 221.219068 
L 249.804474 221.300524 
L 249.6425 221.581365 
L 249.380737 221.930485 
L 248.113736 223.533845 
L 245.20063 228.854586 
L 240.091851 235.527507 
L 234.952882 242.811518 
L 234.067164 243.52916 
L 231.128223 247.049415 
L 229.65341 247.709164 
L 227.635255 247.811877 
L 227.488573 248.522116 
L 227.360109 249.144137 
L 227.914655 250.174276 
L 228.28463 250.278026 
L 228.553758 250.694066 
L 228.329761 251.471157 
L 225.844202 254.689712 
L 225.169417 255.563492 
L 221.830104 258.674347 
L 217.711001 261.216338 
L 217.700626 261.589839 
L 217.550707 262.507513 
L 217.088498 262.948971 
L 212.191267 264.588229 
L 205.7688 267.825244 
L 203.757744 269.214431 
L 202.723308 269.928993 
L 202.485927 270.616236 
L 201.705931 271.470933 
L 199.62563 272.286204 
L 197.870897 273.52789 
L 196.152789 275.000318 
L 193.888434 277.472173 
L 192.820946 278.388498 
L 192.317963 279.781244 
L 190.244302 281.729264 
L 185.792264 287.954086 
L 185.690693 288.256104 
L 185.813637 288.490787 
L 186.822714 289.193489 
L 186.670512 289.704046 
L 183.304846 292.630847 
L 179.106997 297.989975 
L 178.320672 300.372087 
L 177.660093 301.214748 
L 176.083708 301.841713 
L 174.897113 302.520863 
L 171.63997 305.100516 
L 170.217551 306.566303 
L 170.140775 306.459544 
L 169.591002 306.241253 
L 168.365501 306.426343 
L 165.79861 307.439467 
L 164.412088 307.735986 
L 163.047043 307.8 
L 159.945733 307.522467 
L 159.55034 307.292245 
L 159.060533 306.570453 
L 160.786112 300.252878 
L 161.397513 298.761464 
L 162.554332 296.733349 
L 166.149909 291.312178 
L 166.759962 290.13212 
L 167.303303 288.641018 
L 167.99148 285.482438 
L 167.861481 283.905638 
L 165.992519 282.23318 
L 164.980405 281.962586 
L 160.057887 280.646523 
L 158.617415 280.435599 
L 156.362294 280.541217 
L 153.438916 280.295535 
L 153.7234 279.136642 
L 153.417751 278.264619 
L 152.258755 277.385749 
L 151.12445 278.054421 
L 146.735078 278.512998 
L 144.639007 278.341084 
L 143.282676 279.678635 
L 142.971425 280.695494 
L 141.975731 281.513359 
L 140.446657 280.671631 
L 138.688501 279.368628 
L 139.142617 278.459255 
L 138.863216 277.291336 
L 137.738665 275.198792 
L 136.249119 274.892313 
L 134.797234 273.136959 
L 134.106982 273.122848 
L 131.084834 271.94611 
L 130.834069 271.573335 
L 130.955976 271.274118 
L 130.80284 270.742293 
L 130.030003 269.267687 
L 127.973357 268.839405 
L 126.833035 269.356705 
L 126.55156 270.06667 
L 126.181689 270.342128 
L 124.406311 269.08104 
L 123.45274 268.159632 
L 122.25411 265.889571 
L 122.180551 265.184379 
L 121.528998 264.555132 
L 120.675547 264.206323 
L 119.265681 264.297001 
L 118.284409 264.964636 
L 115.689194 263.214261 
L 115.242963 262.644256 
L 115.154775 261.851083 
L 114.727012 261.011534 
L 113.898055 260.755847 
L 112.362019 260.282064 
L 111.355224 259.752522 
L 110.256507 258.645919 
L 107.889024 254.844604 
L 106.740817 254.92802 
L 105.984165 254.648101 
L 103.691279 253.392409 
L 103.410011 252.748741 
L 100.500017 252.600585 
L 99.829478 251.5747 
L 99.67655 250.624864 
L 99.850332 248.864633 
L 101.365608 248.704235 
L 101.463859 248.496942 
L 101.232807 248.381052 
L 101.152712 247.95111 
L 101.169519 247.386292 
L 101.514386 245.744856 
L 101.500587 245.246646 
L 101.408353 244.848451 
L 101.00383 244.687949 
L 100.750782 244.285709 
L 100.924253 244.01824 
L 101.581927 243.477907 
L 102.305795 242.76068 
L 102.748809 242.012535 
L 103.041801 241.493368 
L 102.9588 240.416023 
L 102.699839 240.130501 
L 102.243337 239.87154 
L 102.039156 239.88814 
L 101.61575 239.78854 
L 101.049687 239.380178 
L 100.702746 239.131177 
L 100.418884 238.865575 
L 100.177457 238.729973 
L 100.135023 238.716175 
L 99.718361 238.548514 
L 99.56896 238.467173 
L 98.728893 237.926011 
L 98.483211 237.529269 
L 98.393571 237.439628 
L 98.313891 237.180667 
L 98.378631 236.873566 
L 98.21595 236.339043 
L 98.094769 235.62192 
L 98.14789 235.118937 
" clip-path="url(#pd20dd27c98)" style="fill: #fdcf00"/>
   </g>
   <g id="PathCollection_1">
    <defs>
     <path id="m393e53326e" d="M 0 1.581139 
C 0.419323 1.581139 0.821528 1.41454 1.118034 1.118034 
C 1.41454 0.821528 1.581139 0.419323 1.581139 0 
C 1.581139 -0.419323 1.41454 -0.821528 1.118034 -1.118034 
C 0.821528 -1.41454 0.419323 -1.581139 0 -1.581139 
C -0.419323 -1.581139 -0.821528 -1.41454 -1.118034 -1.118034 
C -1.41454 -0.821528 -1.581139 -0.419323 -1.581139 0 
C -1.581139 0.419323 -1.41454 0.821528 -1.118034 1.118034 
C -0.821528 1.41454 -0.419323 1.581139 0 1.581139 
z
" style="stroke: #000000"/>
    </defs>
    <g clip-path="url(#pd20dd27c98)">
     <use xlink:href="#m393e53326e" x="180.026642" y="173.746368" style="stroke: #000000"/>
    </g>
   </g>
   <g id="text_1">
    <!-- Trenton -->
    <g transform="translate(183.026642 170.746368) scale(0.1 -0.1)">
     <defs>
      <path id="DejaVuSans-54" d="M -19 4666 
L 3928 4666 
L 3928 4134 
L 2272 4134 
L 2272 0 
L 1638 0 
L 1638 4134 
L -19 4134 
L -19 4666 
z
" transform="scale(0.015625)"/>
      <path id="DejaVuSans-72" d="M 2631 2963 
Q 2534 3019 2420 3045 
Q 2306 3072 2169 3072 
Q 1681 3072 1420 2755 
Q 1159 2438 1159 1844 
L 1159 0 
L 581 0 
L 581 3500 
L 1159 3500 
L 1159 2956 
Q 1341 3275 1631 3429 
Q 1922 3584 2338 3584 
Q 2397 3584 2469 3576 
Q 2541 3569 2628 3553 
L 2631 2963 
z
" transform="scale(0.015625)"/>
      <path id="DejaVuSans-65" d="M 3597 1894 
L 3597 1613 
L 953 1613 
Q 991 1019 1311 708 
Q 1631 397 2203 397 
Q 2534 397 2845 478 
Q 3156 559 3463 722 
L 3463 178 
Q 3153 47 2828 -22 
Q 2503 -91 2169 -91 
Q 1331 -91 842 396 
Q 353 884 353 1716 
Q 353 2575 817 3079 
Q 1281 3584 2069 3584 
Q 2775 3584 3186 3129 
Q 3597 2675 3597 1894 
z
M 3022 2063 
Q 3016 2534 2758 2815 
Q 2500 3097 2075 3097 
Q 1594 3097 1305 2825 
Q 1016 2553 972 2059 
L 3022 2063 
z
" transform="scale(0.015625)"/>
      <path id="DejaVuSans-6e" d="M 3513 2113 
L 3513 0 
L 2938 0 
L 2938 2094 
Q 2938 2591 2744 2837 
Q 2550 3084 2163 3084 
Q 1697 3084 1428 2787 
Q 1159 2491 1159 1978 
L 1159 0 
L 581 0 
L 581 3500 
L 1159 3500 
L 1159 2956 
Q 1366 3272 1645 3428 
Q 1925 3584 2291 3584 
Q 2894 3584 3203 3211 
Q 3513 2838 3513 2113 
z
" transform="scale(0.015625)"/>
      <path id="DejaVuSans-74" d="M 1172 4494 
L 1172 3500 
L 2356 3500 
L 2356 3053 
L 1172 3053 
L 1172 1153 
Q 1172 725 1289 603 
Q 1406 481 1766 481 
L 2356 481 
L 2356 0 
L 1766 0 
Q 1100 0 847 248 
Q 594 497 594 1153 
L 594 3053 
L 172 3053 
L 172 3500 
L 594 3500 
L 594 4494 
L 1172 4494 
z
" transform="scale(0.015625)"/>
      <path id="DejaVuSans-6f" d="M 1959 3097 
Q 1497 3097 1228 2736 
Q 959 2375 959 1747 
Q 959 1119 1226 758 
Q 1494 397 1959 397 
Q 2419 397 2687 759 
Q 2956 1122 2956 1747 
Q 2956 2369 2687 2733 
Q 2419 3097 1959 3097 
z
M 1959 3584 
Q 2709 3584 3137 3096 
Q 3566 2609 3566 1747 
Q 3566 888 3137 398 
Q 2709 -91 1959 -91 
Q 1206 -91 779 398 
Q 353 888 353 1747 
Q 353 2609 779 3096 
Q 1206 3584 1959 3584 
z
" transform="scale(0.015625)"/>
     </defs>
     <use xlink:href="#DejaVuSans-54"/>
     <use xlink:href="#DejaVuSans-72" x="46.333984"/>
     <use xlink:href="#DejaVuSans-65" x="85.197266"/>
     <use xlink:href="#DejaVuSans-6e" x="146.720703"/>
     <use xlink:href="#DejaVuSans-74" x="210.099609"/>
     <use xlink:href="#DejaVuSans-6f" x="249.308594"/>
     <use xlink:href="#DejaVuSans-6e" x="310.490234"/>
    </g>
   </g>
   <g id="text_2">
    <!-- New Jersey -->
    <g transform="translate(151.208438 37.2) scale(0.12 -0.12)">
     <defs>
      <path id="DejaVuSans-4e" d="M 628 4666 
L 1478 4666 
L 3547 763 
L 3547 4666 
L 4159 4666 
L 4159 0 
L 3309 0 
L 1241 3903 
L 1241 0 
L 628 0 
L 628 4666 
z
" transform="scale(0.015625)"/>
      <path id="DejaVuSans-77" d="M 269 3500 
L 844 3500 
L 1563 769 
L 2278 3500 
L 2956 3500 
L 3675 769 
L 4391 3500 
L 4966 3500 
L 4050 0 
L 3372 0 
L 2619 2869 
L 1863 0 
L 1184 0 
L 269 3500 
z
" transform="scale(0.015625)"/>
      <path id="DejaVuSans-20" transform="scale(0.015625)"/>
      <path id="DejaVuSans-4a" d="M 628 4666 
L 1259 4666 
L 1259 325 
Q 1259 -519 939 -900 
Q 619 -1281 -91 -1281 
L -331 -1281 
L -331 -750 
L -134 -750 
Q 284 -750 456 -515 
Q 628 -281 628 325 
L 628 4666 
z
" transform="scale(0.015625)"/>
      <path id="DejaVuSans-73" d="M 2834 3397 
L 2834 2853 
Q 2591 2978 2328 3040 
Q 2066 3103 1784 3103 
Q 1356 3103 1142 2972 
Q 928 2841 928 2578 
Q 928 2378 1081 2264 
Q 1234 2150 1697 2047 
L 1894 2003 
Q 2506 1872 2764 1633 
Q 3022 1394 3022 966 
Q 3022 478 2636 193 
Q 2250 -91 1575 -91 
Q 1294 -91 989 -36 
Q 684 19 347 128 
L 347 722 
Q 666 556 975 473 
Q 1284 391 1588 391 
Q 1994 391 2212 530 
Q 2431 669 2431 922 
Q 2431 1156 2273 1281 
Q 2116 1406 1581 1522 
L 1381 1569 
Q 847 1681 609 1914 
Q 372 2147 372 2553 
Q 372 3047 722 3315 
Q 1072 3584 1716 3584 
Q 2034 3584 2315 3537 
Q 2597 3491 2834 3397 
z
" transform="scale(0.015625)"/>
      <path id="DejaVuSans-79" d="M 2059 -325 
Q 1816 -950 1584 -1140 
Q 1353 -1331 966 -1331 
L 506 -1331 
L 506 -850 
L 844 -850 
Q 1081 -850 1212 -737 
Q 1344 -625 1503 -206 
L 1606 56 
L 191 3500 
L 800 3500 
L 1894 763 
L 2988 3500 
L 3597 3500 
L 2059 -325 
z
" transform="scale(0.015625)"/>
     </defs>
     <use xlink:href="#DejaVuSans-4e"/>
     <use xlink:href="#DejaVuSans-65" x="74.804688"/>
     <use xlink:href="#DejaVuSans-77" x="136.328125"/>
     <use xlink:href="#DejaVuSans-20" x="218.115234"/>
     <use xlink:href="#DejaVuSans-4a" x="249.902344"/>
     <use xlink:href="#DejaVuSans-65" x="279.394531"/>
     <use xlink:href="#DejaVuSans-72" x="340.917969"/>
     <use xlink:href="#DejaVuSans-73" x="382.03125"/>
     <use xlink:href="#DejaVuSans-65" x="434.130859"/>
     <use xlink:href="#DejaVuSans-79" x="495.654297"/>
    </g>
   </g>
  </g>
 </g>
 <defs>
  <clipPath id="pd20dd27c98">
   <rect x="89.454246" y="43.2" width="190.091507" height="277.2"/>
  </clipPath>
 </defs>
</svg>
