<?xml version="1.0" encoding="utf-8" standalone="no"?>
<!DOCTYPE svg PUBLIC "-//W3C//DTD SVG 1.1//EN"
  "http://www.w3.org/Graphics/SVG/1.1/DTD/svg11.dtd">
<svg xmlns:xlink="http://www.w3.org/1999/xlink" width="460.8pt" height="345.6pt" viewBox="0 0 460.8 345.6" xmlns="http://www.w3.org/2000/svg" version="1.1">
 <metadata>
  <rdf:RDF xmlns:dc="http://purl.org/dc/elements/1.1/" xmlns:cc="http://creativecommons.org/ns#" xmlns:rdf="http://www.w3.org/1999/02/22-rdf-syntax-ns#">
   <cc:Work>
    <dc:type rdf:resource="http://purl.org/dc/dcmitype/StillImage"/>
    <dc:date>2023-06-19T14:47:52.099023</dc:date>
    <dc:format>image/svg+xml</dc:format>
    <dc:creator>
     <cc:Agent>
      <dc:title>Matplotlib v3.7.1, https://matplotlib.org/</dc:title>
     </cc:Agent>
    </dc:creator>
   </cc:Work>
  </rdf:RDF>
 </metadata>
 <defs>
  <style type="text/css">*{stroke-linejoin: round; stroke-linecap: butt}</style>
 </defs>
 <g id="figure_1">
  <g id="patch_1">
   <path d="M 0 345.6 
L 460.8 345.6 
L 460.8 0 
L 0 0 
z
" style="fill: #ffffff"/>
  </g>
  <g id="axes_1">
   <g id="PatchCollection_1">
    <path d="M 174.335767 281.017332 
L 174.536905 280.366365 
L 174.476864 279.838377 
L 174.411486 279.790058 
L 174.404681 279.725323 
L 174.476931 279.344333 
L 174.457984 278.939044 
L 174.63017 278.054271 
L 174.68414 277.992782 
L 175.053328 277.852832 
L 175.439128 277.64518 
L 175.667352 277.414156 
L 175.968226 277.024077 
L 175.970006 277.020531 
L 176.055486 276.850276 
L 176.047547 275.995737 
L 176.138944 275.586553 
L 176.207457 275.480548 
L 176.468971 275.328077 
L 176.525077 275.215672 
L 176.537618 274.944305 
L 176.347154 274.009173 
L 176.397255 273.347634 
L 176.378709 272.959595 
L 176.324872 272.658457 
L 176.25022 272.457018 
L 176.169298 272.382823 
L 176.040542 272.346653 
L 175.893241 272.153654 
L 175.849677 272.03281 
L 175.878831 271.825157 
L 176.007653 271.564362 
L 176.925886 270.801548 
L 177.62777 270.708711 
L 177.872939 270.556241 
L 178.648741 270.386242 
L 179.030671 270.002192 
L 179.375309 269.798527 
L 179.539489 269.834512 
L 179.707805 270.00618 
L 179.900938 269.978449 
L 180.424099 269.382573 
L 180.714832 268.971163 
L 180.716834 268.865157 
L 180.554789 268.674291 
L 180.467462 268.354233 
L 180.50889 267.981034 
L 180.627239 267.669323 
L 180.826643 267.378387 
L 181.027782 267.264683 
L 181.370618 267.332293 
L 181.576293 267.277389 
L 181.825598 266.976251 
L 181.906654 266.806623 
L 181.902451 266.554361 
L 181.848414 266.405879 
L 181.29143 265.926859 
L 181.021177 265.782736 
L 180.89022 265.587696 
L 180.663464 265.015283 
L 180.623903 264.739743 
L 180.762999 264.050659 
L 180.806562 263.613837 
L 180.673404 263.285247 
L 180.430036 262.980028 
L 180.367593 262.823106 
L 180.332169 262.503049 
L 180.390342 262.31005 
L 180.569065 262.061961 
L 181.176284 261.497803 
L 181.810588 260.768375 
L 182.1663 260.240572 
L 182.411803 259.805884 
L 182.470109 259.638389 
L 182.478449 259.352183 
L 182.210063 258.588904 
L 181.954087 258.033464 
L 181.995716 257.774802 
L 182.118467 257.541552 
L 182.501531 257.191724 
L 182.61601 256.939462 
L 182.647232 256.805911 
L 182.626484 256.288588 
L 182.428748 255.943026 
L 182.294373 255.786073 
L 182.093116 255.551 
L 181.961959 255.31135 
L 181.974434 255.222317 
L 182.105591 255.192639 
L 182.115999 255.124843 
L 182.097252 254.791894 
L 182.030606 254.715659 
L 181.8765 254.645638 
L 181.603712 254.66261 
L 181.358009 254.501515 
L 181.03085 253.793511 
L 181.014172 253.614053 
L 181.0544 253.518063 
L 181.303638 253.290934 
L 181.370284 253.150984 
L 181.386896 252.996196 
L 181.350821 252.422353 
L 181.350404 252.415714 
L 181.365881 251.603282 
L 181.319983 251.423081 
L 181.830468 250.880346 
L 181.930471 250.717118 
L 181.907522 250.486001 
L 181.528193 249.841527 
L 181.471821 249.534083 
L 182.226408 248.741126 
L 182.309799 248.582071 
L 182.251425 248.001219 
L 182.120068 247.422407 
L 182.124271 247.070445 
L 182.314002 246.493859 
L 182.526815 246.014747 
L 182.573001 245.768838 
L 182.578985 245.73698 
L 182.543493 245.59499 
L 182.380848 245.283279 
L 182.228543 244.734145 
L 182.244821 243.930523 
L 182.399261 243.508633 
L 182.476447 243.4132 
L 183.386275 242.953285 
L 183.795423 242.217644 
L 184.302973 241.149425 
L 184.714991 239.247906 
L 185.128876 238.357662 
L 185.105994 238.207139 
L 184.984977 237.980196 
L 184.657218 237.672659 
L 184.246001 236.996188 
L 184.145865 236.743833 
L 184.135458 236.625121 
L 184.223252 236.372859 
L 184.379217 236.066573 
L 184.384194 236.056801 
L 184.760689 235.317439 
L 184.873567 235.149944 
L 185.132812 234.887202 
L 185.431885 234.463364 
L 185.486389 234.283256 
L 185.348494 234.19617 
L 184.796714 234.212864 
L 184.562686 234.174561 
L 183.933719 233.743953 
L 183.845992 233.60187 
L 183.81884 233.451348 
L 183.760199 232.465021 
L 183.800027 232.123725 
L 183.948596 231.744312 
L 184.475692 231.216601 
L 184.571892 231.036401 
L 184.717745 229.986107 
L 184.817395 229.268525 
L 184.828002 228.87418 
L 185.06251 227.610244 
L 185.063649 227.604103 
L 185.098589 227.415789 
L 185.115734 226.713999 
L 185.226944 226.145946 
L 185.413473 225.715709 
L 185.455435 225.537641 
L 185.31794 224.252866 
L 185.326479 224.040855 
L 185.391457 223.90953 
L 185.860781 223.407324 
L 185.963518 223.239922 
L 186.045442 222.860509 
L 186.131835 222.078311 
L 186.136238 221.789971 
L 186.100746 221.626743 
L 185.841968 220.990059 
L 185.522881 220.652473 
L 185.072637 220.266382 
L 184.934476 220.009761 
L 184.922 219.768071 
L 185.10466 219.107274 
L 185.096387 218.799366 
L 185.211867 218.472909 
L 185.446562 218.4858 
L 185.553502 218.392593 
L 185.939569 217.750437 
L 186.134837 217.222727 
L 186.0812 215.921073 
L 185.974726 215.221416 
L 185.985267 215.06672 
L 186.197747 214.144665 
L 186.61897 213.648487 
L 187.233394 213.255904 
L 188.166704 212.878067 
L 189.337112 211.798719 
L 189.51755 211.722703 
L 189.521372 211.721093 
L 189.595156 211.665076 
L 189.651795 211.491274 
L 189.61846 211.15127 
L 189.613969 211.105462 
L 189.52791 210.961338 
L 189.315897 210.783271 
L 189.179469 210.393192 
L 189.202419 209.954423 
L 189.338579 209.414656 
L 189.565002 209.236496 
L 189.680415 208.907905 
L 189.672009 208.84855 
L 189.531312 208.693761 
L 189.518703 208.526359 
L 189.554328 208.441499 
L 189.669808 208.329186 
L 189.995232 208.131921 
L 190.480233 207.922043 
L 190.557887 207.769387 
L 190.572563 207.421784 
L 190.492775 207.156816 
L 190.56209 206.531447 
L 190.637675 206.319436 
L 190.774169 206.200724 
L 191.112402 205.569048 
L 191.209069 205.293415 
L 191.270044 204.871618 
L 191.291126 204.498511 
L 191.207134 204.214438 
L 191.095791 204.03637 
L 191.130187 203.160708 
L 191.130201 203.160346 
L 191.14209 202.857694 
L 191.306136 202.213312 
L 191.516414 201.857177 
L 191.838036 201.630419 
L 192.016759 201.414327 
L 192.368002 200.865379 
L 192.5111 200.577132 
L 192.841328 200.180839 
L 193.093702 199.956307 
L 193.42006 199.299313 
L 193.882713 199.297458 
L 195.162062 198.468795 
L 195.986297 197.987178 
L 196.591247 197.100922 
L 196.696386 196.916455 
L 196.826676 196.564494 
L 196.961236 196.369454 
L 197.06851 196.2973 
L 197.447171 196.187028 
L 197.665988 196.040679 
L 197.821442 195.88578 
L 197.851116 195.856212 
L 197.800348 194.83455 
L 197.815091 194.630978 
L 197.897148 194.480456 
L 198.366405 194.117921 
L 198.465406 193.980105 
L 198.623382 193.682862 
L 198.785494 193.116199 
L 199.179565 192.755335 
L 199.280568 192.43268 
L 199.223796 192.029524 
L 199.07436 191.72041 
L 198.931194 191.229241 
L 198.952209 191.068331 
L 199.086768 190.693369 
L 199.280302 190.343912 
L 199.355954 190.034798 
L 199.311857 189.007479 
L 199.010649 188.218881 
L 198.974824 187.985724 
L 199.183501 187.311758 
L 199.305719 187.13165 
L 199.543883 187.053189 
L 199.851562 187.034176 
L 200.338431 186.777834 
L 200.26035 186.576426 
L 200.214924 186.459251 
L 200.184725 186.381355 
L 200.043028 186.128722 
L 199.931484 185.802172 
L 199.984254 185.426932 
L 200.060106 185.274369 
L 200.129754 185.179122 
L 200.355243 185.204626 
L 200.782537 185.101681 
L 200.889478 185.000591 
L 200.931574 184.587975 
L 201.122439 184.183799 
L 201.415974 183.758663 
L 201.83513 183.426271 
L 202.497187 182.987038 
L 203.438836 182.158653 
L 203.559719 181.973537 
L 203.63824 181.756518 
L 203.721364 180.770562 
L 203.721431 180.644894 
L 203.573395 179.907862 
L 203.592542 179.709855 
L 203.649848 179.573708 
L 203.821366 179.49942 
L 204.114635 179.497101 
L 204.447998 179.337954 
L 204.544999 179.229815 
L 204.927396 178.56911 
L 204.90965 178.456056 
L 204.780294 178.273166 
L 204.109765 177.706689 
L 203.887745 177.655309 
L 203.857525 177.579352 
L 203.859126 177.473068 
L 203.967467 177.165902 
L 204.006694 176.900285 
L 204.055661 176.038791 
L 203.985146 175.753419 
L 203.725434 175.388567 
L 203.706821 175.154297 
L 204.238254 174.592735 
L 204.588762 174.37924 
L 204.601371 174.249955 
L 204.510308 173.771028 
L 204.486892 173.467942 
L 204.674822 173.262145 
L 204.913519 173.206962 
L 205.128868 172.816883 
L 205.166828 172.61767 
L 205.236476 172.492652 
L 205.371635 172.373941 
L 205.475173 172.38878 
L 205.82348 172.373199 
L 206.049836 172.142731 
L 206.08366 171.996475 
L 206.174456 171.881937 
L 206.198048 171.86768 
L 206.220286 171.854242 
L 206.464522 171.706651 
L 206.507485 171.601388 
L 206.47533 171.432131 
L 206.214417 170.976111 
L 206.201207 170.800084 
L 206.241635 170.664957 
L 206.34951 170.506829 
L 206.515691 170.38617 
L 207.080013 170.070193 
L 207.327451 169.855121 
L 207.370414 169.490732 
L 207.584295 169.270559 
L 207.697039 169.20332 
L 207.752544 169.116512 
L 207.943275 168.639069 
L 208.289714 168.230441 
L 208.270968 168.024273 
L 208.675647 167.720074 
L 208.857172 167.104999 
L 208.35536 166.723731 
L 208.256892 166.560595 
L 208.330076 166.399964 
L 208.426742 166.338289 
L 208.841895 166.410258 
L 209.090133 166.366298 
L 209.223625 166.282643 
L 209.316756 166.161891 
L 209.384536 165.983917 
L 209.441842 165.555813 
L 209.427099 165.35864 
L 209.310818 165.214517 
L 209.050639 165.07874 
L 208.864444 165.055369 
L 207.85328 164.427867 
L 207.863687 164.241453 
L 208.019328 163.523247 
L 208.413733 163.150419 
L 208.712739 162.98886 
L 208.794129 162.987468 
L 208.920149 163.083922 
L 209.009077 163.076502 
L 209.262785 162.442786 
L 209.226827 162.351619 
L 208.985527 162.234948 
L 208.710404 161.921197 
L 208.65143 160.611381 
L 208.662038 160.520307 
L 208.837225 160.197653 
L 208.831555 160.079497 
L 208.799394 160.003089 
L 208.683453 159.727629 
L 208.336146 159.636369 
L 207.97403 159.070449 
L 207.675491 158.000096 
L 207.419181 157.489358 
L 207.097092 157.042149 
L 207.203098 156.376622 
L 207.270878 156.236765 
L 207.503973 156.052298 
L 207.576022 155.897602 
L 207.637465 155.530987 
L 207.601506 155.331775 
L 207.959887 154.528523 
L 207.97924 154.435936 
L 207.99798 154.346283 
L 207.91539 153.988107 
L 207.936604 153.678622 
L 208.131805 152.979244 
L 208.316399 152.523688 
L 208.278306 152.271519 
L 208.168097 152.008684 
L 207.909385 151.741583 
L 207.522986 150.898359 
L 207.430122 150.21586 
L 207.2053 149.787385 
L 207.077212 149.756409 
L 206.989818 149.511103 
L 207.145926 148.930621 
L 207.58316 148.095467 
L 207.951748 147.700287 
L 208.422272 147.562841 
L 208.909141 147.14735 
L 209.040832 147.020199 
L 209.278663 146.645144 
L 209.340305 146.471343 
L 209.355249 146.200069 
L 209.353648 145.358422 
L 209.255914 145.21031 
L 209.300611 144.930596 
L 209.572466 144.742049 
L 209.79115 144.773953 
L 210.234989 144.928927 
L 210.541 144.868736 
L 210.84561 144.783505 
L 211.356829 144.512694 
L 212.29134 144.05853 
L 212.412891 143.924052 
L 212.53553 143.465175 
L 212.537444 143.458016 
L 212.770738 143.341437 
L 213.970699 143.428987 
L 214.305196 143.337356 
L 215.169525 143.318808 
L 215.577407 143.49502 
L 215.821175 143.501883 
L 216.240464 143.334296 
L 216.508782 142.921866 
L 217.019401 142.5035 
L 217.721552 142.341292 
L 218.026896 142.414095 
L 219.390302 143.090195 
L 219.792713 143.353494 
L 220.018936 143.422309 
L 220.189854 143.391333 
L 220.721487 143.099469 
L 221.342782 143.028613 
L 221.897098 142.719685 
L 222.337365 142.391351 
L 222.634807 142.169531 
L 223.102796 141.996101 
L 223.597003 141.909571 
L 223.896343 141.760996 
L 223.99301 141.667696 
L 224.039442 141.499923 
L 224.02163 141.395958 
L 223.853647 140.912857 
L 223.77586 140.553662 
L 223.820357 140.435228 
L 223.99768 140.285726 
L 224.037507 140.188902 
L 224.024898 140.092448 
L 223.836302 139.901211 
L 223.801478 139.820525 
L 223.893875 139.22066 
L 223.977799 139.140066 
L 224.264797 139.041665 
L 224.622844 139.090541 
L 224.832655 139.003269 
L 224.860475 138.847924 
L 224.620976 138.436792 
L 224.621043 138.297121 
L 224.696762 138.158933 
L 225.259083 137.612581 
L 225.474965 137.520858 
L 226.280521 137.563613 
L 226.494935 137.440542 
L 226.668255 137.257745 
L 226.996014 137.039983 
L 227.142717 136.959975 
L 227.190215 136.93407 
L 227.391086 136.893263 
L 227.783023 136.95132 
L 227.899837 137.027741 
L 228.220525 137.363658 
L 228.5222 137.418933 
L 228.649421 137.391295 
L 228.702524 137.32554 
L 228.861767 136.916356 
L 229.000863 136.717607 
L 229.128484 136.611787 
L 229.42222 136.523402 
L 229.777199 136.489087 
L 230.51851 136.572092 
L 230.988567 136.434183 
L 231.562763 136.054677 
L 232.130755 135.575657 
L 232.468988 135.374311 
L 232.862593 134.956687 
L 232.915429 134.561043 
L 232.863727 134.385944 
L 232.908424 134.297281 
L 233.033778 134.233845 
L 233.596832 134.157702 
L 233.913918 133.988167 
L 234.071426 133.808059 
L 234.258822 133.377822 
L 234.372768 132.536547 
L 234.637283 131.934085 
L 234.705864 131.87677 
L 235.189664 131.929819 
L 235.337566 131.819547 
L 235.500812 131.59214 
L 235.471258 131.429932 
L 235.090729 131.157822 
L 235.003136 131.055155 
L 234.982188 130.86531 
L 235.014543 130.763106 
L 235.134826 130.576135 
L 235.320221 130.436278 
L 235.573662 130.326192 
L 236.008429 129.764723 
L 236.127711 129.724565 
L 237.021194 129.595466 
L 237.134005 129.574228 
L 237.557964 129.722246 
L 238.230961 129.526836 
L 238.335233 129.348769 
L 238.497545 128.787763 
L 238.51409 128.573897 
L 238.763195 128.302622 
L 238.969471 128.225924 
L 239.180883 128.149225 
L 239.532259 128.105728 
L 239.613248 128.093022 
L 239.687766 128.020961 
L 239.726126 127.89585 
L 239.679227 127.817481 
L 239.314842 127.503823 
L 239.199696 127.330115 
L 239.133584 127.024896 
L 239.069606 126.91045 
L 238.722167 126.622297 
L 238.598482 126.440056 
L 238.579268 126.259948 
L 238.672933 126.13697 
L 239.056597 126.189834 
L 239.148194 126.168596 
L 239.363409 126.007407 
L 239.738401 125.458366 
L 239.900379 125.148881 
L 239.996245 124.902926 
L 239.991976 124.74823 
L 239.851212 124.481221 
L 238.991753 123.832852 
L 238.409485 123.3159 
L 238.321958 123.131526 
L 238.343239 122.968297 
L 238.453982 122.622735 
L 238.601684 122.352388 
L 238.723901 122.231358 
L 238.852056 122.177938 
L 239.829464 122.263169 
L 240.224403 122.44847 
L 240.638021 122.40757 
L 240.875051 122.324008 
L 240.96051 122.189252 
L 240.932491 121.891824 
L 240.95584 121.71014 
L 241.166119 121.020777 
L 241.318424 120.787806 
L 241.455518 120.813589 
L 241.580605 120.928683 
L 241.702155 120.985906 
L 241.870671 120.91811 
L 242.190825 120.617251 
L 242.350869 120.407372 
L 242.449137 120.068302 
L 242.158937 119.881702 
L 241.580738 119.629347 
L 241.301946 119.603657 
L 241.224092 119.387287 
L 241.2351 119.143928 
L 241.130694 118.868016 
L 241.146238 118.673255 
L 241.209482 118.516611 
L 241.273526 118.340677 
L 241.258583 118.10752 
L 241.094269 117.420755 
L 241.147639 116.759401 
L 241.220623 116.641803 
L 241.271858 116.639669 
L 241.321359 116.525131 
L 241.417025 116.436747 
L 241.222758 116.01022 
L 240.72308 115.603725 
L 240.688923 115.540103 
L 240.688923 115.33245 
L 240.940897 115.275228 
L 240.996469 115.120439 
L 240.994862 115.109857 
L 240.96011 114.880975 
L 240.746563 114.338333 
L 240.570508 114.096922 
L 240.454895 114.00084 
L 240.354759 114.028941 
L 240.285912 114.216561 
L 240.181974 114.314313 
L 240.053351 114.324515 
L 239.854414 114.302349 
L 239.792105 114.172508 
L 239.776561 114.064276 
L 239.816722 113.934899 
L 239.796508 113.831305 
L 239.332721 113.745054 
L 239.207101 113.634225 
L 239.091688 113.480085 
L 239.091688 113.328635 
L 239.18055 113.104938 
L 239.225381 112.935403 
L 239.153931 112.722742 
L 239.153931 112.571292 
L 239.231785 112.48467 
L 239.361941 112.295288 
L 239.398233 112.176576 
L 239.329786 112.055732 
L 239.039185 112.047385 
L 238.861796 111.990162 
L 238.442841 111.66185 
L 238.436436 111.60676 
L 238.551783 111.424427 
L 238.581603 111.222988 
L 238.433968 110.922128 
L 238.326894 110.388019 
L 238.405882 110.192979 
L 238.285933 109.906958 
L 238.185463 109.822191 
L 238.144769 109.731117 
L 238.144769 109.646349 
L 238.249307 109.362276 
L 238.212949 109.228726 
L 237.868578 108.966076 
L 237.322735 107.966023 
L 236.97176 107.625006 
L 236.961019 107.504161 
L 237.033402 107.120481 
L 237.018392 107.03998 
L 236.92426 107.006129 
L 236.689031 107.146171 
L 236.644134 107.144131 
L 236.533658 107.029407 
L 236.487693 106.910696 
L 236.485891 106.469886 
L 236.524518 106.281246 
L 236.516446 105.643264 
L 236.4011 105.342218 
L 236.120906 105.206349 
L 236.072083 105.076297 
L 236.063667 105.053879 
L 236.069271 104.856335 
L 236.111166 104.783068 
L 236.600237 104.608525 
L 236.999379 104.539153 
L 237.246416 104.281233 
L 237.244481 104.099642 
L 237.411263 103.754358 
L 237.646959 103.632586 
L 237.888392 103.439679 
L 238.098137 103.038193 
L 238.460787 102.727038 
L 238.468926 102.648207 
L 238.417757 102.542108 
L 238.399811 102.396408 
L 238.665528 102.045003 
L 239.237522 101.770761 
L 239.530191 101.794225 
L 239.601373 101.739506 
L 239.981035 101.200481 
L 240.083839 100.927074 
L 239.988907 100.637992 
L 240.170832 99.958275 
L 240.257826 99.794305 
L 240.249954 99.630242 
L 240.006586 99.484635 
L 239.854815 99.189525 
L 239.830731 98.958316 
L 239.909853 98.770881 
L 240.337281 98.237328 
L 240.521474 98.158867 
L 240.547225 98.230929 
L 240.617874 98.230929 
L 240.714274 98.163133 
L 241.020085 97.255267 
L 241.284267 97.102797 
L 241.383936 96.944206 
L 241.398145 96.811305 
L 241.354849 96.54782 
L 241.195939 96.206154 
L 241.081594 96.101446 
L 241.077925 95.920967 
L 241.158313 95.759687 
L 241.288003 95.613523 
L 241.642314 95.297546 
L 241.640179 95.159729 
L 241.511624 94.924532 
L 241.520163 94.733758 
L 241.563059 94.642592 
L 241.80536 94.314094 
L 242.191292 94.08307 
L 242.56008 93.983557 
L 242.922597 93.625474 
L 242.940276 93.313022 
L 242.976767 93.230387 
L 243.090446 93.111768 
L 243.373641 92.952899 
L 244.047506 92.077864 
L 244.086199 91.954979 
L 243.927556 91.80863 
L 243.910211 91.733044 
L 243.942233 91.669608 
L 244.291007 91.386276 
L 244.702558 90.920982 
L 244.794955 90.762113 
L 244.899026 90.730487 
L 245.069811 90.781403 
L 245.144796 90.711382 
L 245.273151 90.160208 
L 245.240929 90.07544 
L 244.814968 89.825218 
L 244.568465 89.405369 
L 244.253314 89.000358 
L 243.854239 88.639772 
L 243.736825 87.490958 
L 243.790529 87.385045 
L 243.833625 87.137049 
L 243.745831 86.759769 
L 243.877322 85.725401 
L 243.785258 85.184892 
L 243.375175 85.023612 
L 243.055422 84.34102 
L 242.759084 84.122609 
L 242.346866 83.355157 
L 242.292963 82.994941 
L 242.400503 82.438944 
L 242.860087 81.930803 
L 243.198654 81.724449 
L 243.531817 81.686424 
L 243.892933 81.531913 
L 245.04019 81.53924 
L 245.69711 81.812091 
L 246.227743 81.629479 
L 247.119291 80.78978 
L 247.19988 80.634064 
L 244.794955 80.65827 
L 244.862935 80.580829 
L 244.856597 80.472783 
L 244.802893 80.411294 
L 244.871207 79.457613 
L 245.267214 78.713625 
L 245.458079 78.024634 
L 245.462281 77.8487 
L 245.32452 77.653846 
L 245.055734 77.764211 
L 244.899093 77.755864 
L 244.809231 77.715242 
L 244.519164 77.373853 
L 244.527904 77.125857 
L 244.564529 77.04109 
L 244.682877 77.017811 
L 244.83118 77.081526 
L 245.018442 76.821102 
L 245.127384 75.86297 
L 244.974345 75.441265 
L 245.0065 75.352232 
L 245.591704 75.192806 
L 245.591637 75.076227 
L 245.778499 74.61826 
L 246.01086 74.558811 
L 246.187181 74.357373 
L 246.206528 74.281045 
L 246.14195 74.19841 
L 246.150489 74.149627 
L 246.516275 74.06894 
L 246.776721 74.089993 
L 247.039236 73.844038 
L 247.213356 73.271625 
L 247.398417 73.224975 
L 247.536111 73.082892 
L 247.647922 72.735197 
L 247.839454 72.489334 
L 248.039659 72.412913 
L 248.252739 72.205168 
L 248.312914 71.89355 
L 248.291366 71.78977 
L 248.49584 71.384852 
L 248.831805 71.283113 
L 249.374379 70.727672 
L 249.615612 70.409747 
L 249.723687 70.086722 
L 249.753908 69.87267 
L 249.33175 69.10967 
L 249.150825 68.946441 
L 249.056026 68.698445 
L 249.325345 68.064729 
L 249.538692 67.850677 
L 249.691665 67.778616 
L 249.754241 67.685316 
L 249.937434 67.125794 
L 249.963319 66.9583 
L 249.896606 66.515357 
L 250.069058 66.364834 
L 250.267395 66.087253 
L 250.459327 65.451404 
L 250.506893 64.898189 
L 250.547922 64.749893 
L 250.675143 64.622741 
L 250.953268 64.465912 
L 251.182159 63.717751 
L 251.162812 63.522804 
L 251.684906 63.020691 
L 251.672097 62.798107 
L 251.598846 62.550018 
L 251.320855 61.926782 
L 251.044798 61.791006 
L 250.930452 61.810111 
L 250.501223 61.680734 
L 250.466732 61.650963 
L 250.460261 61.538651 
L 250.389146 61.375422 
L 250.113022 61.121027 
L 249.420478 60.684483 
L 248.967365 60.311469 
L 248.831405 60.105857 
L 248.678166 60.122829 
L 248.61132 60.06134 
L 248.611253 59.913043 
L 248.64581 59.851554 
L 248.716992 59.775227 
L 248.967298 59.732843 
L 249.336353 59.857861 
L 250.395884 60.05086 
L 250.743323 59.749908 
L 251.073618 59.499871 
L 251.362817 59.400358 
L 251.910928 59.527694 
L 252.079111 59.898668 
L 252.245159 60.10224 
L 252.497533 60.269827 
L 252.545032 60.257122 
L 252.661579 60.113091 
L 252.862518 59.746476 
L 252.884199 59.58334 
L 253.031167 59.25067 
L 253.093811 59.185007 
L 253.410763 59.051642 
L 253.648193 59.030311 
L 254.006307 58.87951 
L 254.259081 58.628454 
L 254.390572 58.403644 
L 254.425062 58.270093 
L 254.418457 58.047602 
L 254.236799 57.536863 
L 254.057542 57.346183 
L 253.99263 57.189354 
L 254.018448 57.079174 
L 254.163015 56.873469 
L 254.540942 56.985596 
L 254.644547 56.979197 
L 254.763295 56.932454 
L 255.033081 56.661087 
L 255.27278 56.749935 
L 255.782265 56.573815 
L 255.944176 56.36607 
L 255.96359 56.230386 
L 256.093079 55.933607 
L 256.311163 55.825468 
L 256.81431 55.715196 
L 256.982759 55.499011 
L 257.25488 55.278468 
L 257.609124 55.259455 
L 257.751623 55.108932 
L 257.883447 54.776169 
L 258.136221 54.394622 
L 258.442966 54.150985 
L 259.251057 53.850126 
L 259.298556 53.892509 
L 259.374075 54.142731 
L 259.361066 54.308 
L 259.494958 54.522145 
L 259.596428 54.54125 
L 260.056679 54.382473 
L 260.441144 54.577698 
L 260.549085 54.683704 
L 260.428002 54.889223 
L 260.62407 55.677914 
L 260.675639 56.171772 
L 260.736081 56.292617 
L 260.90433 56.557678 
L 261.116009 56.549331 
L 261.519488 56.933196 
L 261.845713 56.962967 
L 261.912692 57.030762 
L 262.256462 57.60707 
L 262.461604 57.681172 
L 262.522112 57.753234 
L 262.775087 58.391031 
L 262.67802 58.569191 
L 262.805107 58.739746 
L 263.010182 58.741786 
L 263.159418 58.556207 
L 263.414061 58.384446 
L 263.50479 58.60907 
L 264.09413 58.670652 
L 264.679 58.314053 
L 264.996352 58.318227 
L 265.104293 58.379716 
L 265.223042 58.665273 
L 265.432119 58.741415 
L 265.719184 58.926624 
L 265.963085 59.18306 
L 266.029998 59.388672 
L 266.043007 59.541328 
L 266.155218 59.65364 
L 266.2264 59.623962 
L 266.310591 59.51165 
L 266.381841 59.303904 
L 266.658098 59.051735 
L 266.798395 59.070747 
L 267.053103 58.945729 
L 267.360048 58.682245 
L 267.670463 58.829336 
L 267.834442 59.041348 
L 268.33939 59.416773 
L 268.563812 59.431705 
L 268.922126 59.366135 
L 269.284776 59.254008 
L 269.420936 59.137523 
L 269.687187 58.372482 
L 269.917012 58.224278 
L 270.22409 57.573497 
L 270.210881 57.253439 
L 270.463055 56.642816 
L 270.674534 56.407341 
L 270.836446 56.352158 
L 271.063002 56.05946 
L 271.172944 55.699059 
L 270.92891 55.724656 
L 270.874872 55.652595 
L 270.835912 55.506338 
L 270.973874 55.099287 
L 271.208969 54.573432 
L 271.701242 53.899094 
L 272.254223 53.650727 
L 272.51567 53.568 
L 272.625079 53.570319 
L 273.092735 58.999428 
L 273.380533 65.118362 
L 273.594881 68.54041 
L 274.287559 81.442787 
L 274.363812 81.894355 
L 274.707649 88.313036 
L 275.245419 96.270517 
L 275.720947 104.56475 
L 275.775185 106.336985 
L 276.153179 113.853192 
L 276.286048 117.953035 
L 276.445647 122.877687 
L 276.690016 128.265247 
L 276.838051 130.706347 
L 277.198967 139.574847 
L 277.373354 143.036868 
L 277.472022 146.648112 
L 277.538656 148.220826 
L 277.641071 150.638028 
L 277.639204 150.673456 
L 277.652346 151.87467 
L 278.079641 164.383137 
L 278.134812 165.998199 
L 278.132677 166.023611 
L 278.327678 170.830689 
L 278.701403 182.407855 
L 278.714011 184.265413 
L 278.774321 186.01986 
L 278.895737 189.551883 
L 278.953243 193.892184 
L 278.95526 193.918745 
L 278.955703 193.924579 
L 279.231168 197.551562 
L 279.419164 201.070249 
L 279.408824 201.364988 
L 279.426169 202.283148 
L 279.428304 202.376355 
L 279.844658 209.413914 
L 279.883462 210.403369 
L 280.044062 214.498388 
L 280.216981 214.657072 
L 280.322254 214.628136 
L 280.769095 215.174581 
L 281.076907 215.323527 
L 281.168571 215.469227 
L 281.224809 215.983767 
L 281.337887 216.12483 
L 281.434354 216.169347 
L 281.503602 216.281752 
L 281.209132 217.222078 
L 281.203461 217.213453 
L 281.164034 217.12581 
L 280.749157 217.208165 
L 280.746813 217.20863 
L 280.673496 217.40367 
L 280.656818 217.605201 
L 280.669426 217.745151 
L 280.721863 217.832052 
L 281.011129 218.084685 
L 281.089449 218.348354 
L 281.078242 218.69605 
L 281.106728 218.768204 
L 281.288253 218.91715 
L 281.289654 219.270781 
L 281.102125 219.834475 
L 281.200192 219.960792 
L 281.242288 220.105008 
L 281.028607 220.268329 
L 280.946751 221.07427 
L 280.762424 221.222752 
L 280.444204 221.822988 
L 280.253807 222.293846 
L 280.293634 222.501592 
L 280.39844 222.624569 
L 280.360814 222.79633 
L 279.942058 223.108227 
L 280.028051 223.330811 
L 280.162143 223.434684 
L 280.49097 223.525758 
L 280.589371 223.493854 
L 280.596643 223.492555 
L 280.797115 223.824577 
L 280.86236 224.112453 
L 280.626197 225.025048 
L 280.474359 225.314872 
L 280.432063 225.608776 
L 280.50478 225.877824 
L 280.782971 226.296839 
L 280.822599 226.534633 
L 280.815661 226.734403 
L 280.30651 227.052513 
L 280.267816 227.252839 
L 280.334729 227.572618 
L 280.155939 227.913636 
L 279.917041 228.153285 
L 279.688083 228.252335 
L 279.364793 228.495508 
L 279.10368 228.965532 
L 279.074527 229.188209 
L 279.112686 229.96002 
L 279.173395 230.13818 
L 279.370197 230.352232 
L 279.387009 230.494315 
L 279.366261 230.769949 
L 279.06512 230.895245 
L 279.042238 231.075538 
L 279.047842 231.260283 
L 279.210887 231.517739 
L 279.160653 231.750062 
L 279.160186 232.141161 
L 279.188831 232.218142 
L 279.270929 232.438774 
L 279.268927 232.502396 
L 279.434108 232.712553 
L 279.797759 233.323733 
L 279.947996 233.726888 
L 279.90083 234.186525 
L 280.005743 234.457666 
L 280.410114 235.50274 
L 280.623662 235.677932 
L 280.863093 235.755837 
L 281.035145 236.059293 
L 281.124007 236.345407 
L 281.357101 236.478401 
L 281.45777 236.347169 
L 282.419433 236.097225 
L 282.711301 236.153521 
L 282.747126 236.357556 
L 282.784285 236.685961 
L 282.841524 236.820439 
L 283.297439 237.2657 
L 283.321112 237.285325 
L 283.799652 237.682026 
L 283.867365 237.721071 
L 284.094322 237.724502 
L 284.119606 238.639787 
L 284.063901 238.79402 
L 284.241023 238.943058 
L 284.401133 239.119271 
L 284.595934 239.072157 
L 284.741034 239.110924 
L 284.869389 239.436825 
L 284.80241 239.677401 
L 284.634627 239.851944 
L 284.401133 240.157998 
L 284.494531 240.33421 
L 284.973823 240.773791 
L 285.14171 240.927768 
L 285.548658 241.029786 
L 285.795495 241.159534 
L 285.98229 241.651074 
L 286.042332 242.049871 
L 286.115715 242.114792 
L 286.724068 242.330977 
L 287.313501 242.772704 
L 287.348165 242.798682 
L 287.348099 242.799702 
L 287.471317 242.981016 
L 287.573454 243.294488 
L 287.589865 243.51902 
L 287.683263 243.616957 
L 287.89174 243.718512 
L 288.096348 243.568545 
L 288.677615 243.799198 
L 288.950404 244.086425 
L 288.91678 244.163495 
L 288.827252 244.227859 
L 288.812975 244.324868 
L 288.986095 244.855546 
L 289.079759 244.91212 
L 289.321526 244.861389 
L 289.696985 244.979266 
L 289.784445 245.006718 
L 289.893854 245.041126 
L 290.011402 245.095566 
L 290.034751 245.110034 
L 290.374586 245.321118 
L 290.37727 245.341521 
L 290.380723 245.367768 
L 290.483527 245.591373 
L 290.535497 246.145422 
L 290.631163 246.14264 
L 290.775729 246.211919 
L 290.82139 246.295112 
L 290.923297 246.480783 
L 290.921296 246.559244 
L 290.691204 247.237105 
L 290.496803 247.382898 
L 290.438763 247.48269 
L 290.181252 248.857519 
L 290.207737 249.05701 
L 290.233674 249.13007 
L 290.289127 249.286272 
L 290.275918 249.482981 
L 290.185322 249.610318 
L 289.981715 249.664851 
L 289.751756 249.812313 
L 289.705057 249.886508 
L 289.678372 250.071995 
L 289.911867 250.721199 
L 289.998593 251.19419 
L 289.965237 251.314757 
L 289.897579 251.366061 
L 289.818469 251.426049 
L 289.678372 251.713554 
L 289.711729 251.954687 
L 289.625002 252.742913 
L 289.311519 253.763091 
L 289.371561 254.096968 
L 289.565027 254.551411 
L 289.611726 255.098597 
L 289.691782 255.413925 
L 289.778508 255.599412 
L 290.232154 256.016757 
L 290.985474 256.528794 
L 291.972955 257.488967 
L 292.641816 258.031052 
L 292.720739 258.145313 
L 292.960836 258.492915 
L 293.701346 258.706132 
L 293.711789 258.714298 
L 293.808087 258.789601 
L 294.034977 259.08638 
L 294.395225 259.883974 
L 294.47528 259.967443 
L 294.725614 260.029845 
L 295.442614 260.208576 
L 295.709465 260.570275 
L 295.716347 260.57071 
L 296.003 260.588824 
L 296.883674 260.458983 
L 297.644199 260.431067 
L 297.837665 260.60728 
L 297.924392 260.802041 
L 297.982966 261.837429 
L 297.984233 261.860708 
L 297.328381 262.191616 
L 297.291956 263.094938 
L 297.333718 263.48344 
L 296.974404 264.385555 
L 296.691408 264.668608 
L 296.340166 264.826365 
L 296.207875 265.030864 
L 296.093863 265.306869 
L 296.057238 265.816958 
L 295.945227 266.151669 
L 295.870909 266.254243 
L 295.545151 266.349769 
L 295.316127 266.641354 
L 294.967153 267.806212 
L 294.955812 268.064966 
L 294.904109 268.156597 
L 294.714979 268.196848 
L 294.559271 268.147323 
L 294.454999 268.189243 
L 294.289952 268.361931 
L 294.13658 268.621056 
L 293.930238 269.222034 
L 293.886541 269.672025 
L 293.535962 270.21178 
L 293.447705 270.347661 
L 293.440166 270.4967 
L 293.589603 270.685711 
L 293.452441 270.97303 
L 293.194397 271.35402 
L 292.962837 271.392138 
L 292.87511 271.485252 
L 292.640753 271.828829 
L 292.558425 271.949526 
L 292.462759 272.266152 
L 292.188036 272.693329 
L 291.96695 272.960615 
L 291.712775 273.874416 
L 291.657404 274.407599 
L 291.689626 274.719402 
L 291.168066 275.12534 
L 290.985207 275.474241 
L 290.894678 275.774544 
L 290.85385 276.021427 
L 290.832635 277.36732 
L 290.665428 277.571104 
L 290.634098 277.609288 
L 290.508345 277.935374 
L 290.433026 278.527634 
L 290.412545 279.230073 
L 290.114139 279.268097 
L 289.511991 279.542804 
L 289.072955 279.906543 
L 288.322504 280.282804 
L 285.820045 278.27296 
L 284.71048 277.909406 
L 283.926123 277.906346 
L 283.902056 277.906253 
L 283.901188 277.903934 
L 283.051936 278.021069 
L 282.840457 278.089421 
L 282.780416 278.126518 
L 281.612944 278.87774 
L 280.458748 279.536219 
L 278.258918 280.004157 
L 277.91441 280.077439 
L 276.142371 280.454379 
L 275.261764 281.409637 
L 275.054955 281.845531 
L 274.650391 282.859733 
L 274.648008 282.865709 
L 273.940853 285.351233 
L 270.501646 284.294229 
L 269.384244 283.950807 
L 268.236786 284.497994 
L 267.176055 285.128649 
L 267.131435 285.167048 
L 267.035958 285.249215 
L 266.588983 285.787128 
L 266.063574 286.467547 
L 265.808378 286.798031 
L 266.09531 291.722616 
L 264.338498 291.195555 
L 264.332494 291.193607 
L 264.327491 291.191752 
L 263.28664 290.878743 
L 262.652869 290.990035 
L 261.845646 291.258991 
L 261.843294 291.260998 
L 261.198882 291.810876 
L 261.171781 291.834001 
L 260.351215 292.807714 
L 259.615775 294.164736 
L 258.596672 295.488 
L 256.194949 295.469451 
L 254.749419 295.380047 
L 253.558528 295.340813 
L 252.409871 295.302971 
L 249.380382 295.203165 
L 248.258265 295.166198 
L 247.6903 295.147486 
L 247.032148 295.125803 
L 245.155692 295.063984 
L 242.019599 294.960667 
L 236.153374 294.767406 
L 236.073874 294.764787 
L 235.780338 294.755512 
L 234.735623 294.723723 
L 228.468429 294.533021 
L 226.684541 294.465979 
L 224.494151 294.383659 
L 218.264524 294.149537 
L 216.260411 294.074219 
L 216.246508 294.073829 
L 212.751925 293.975911 
L 206.265786 293.70236 
L 206.082889 293.694646 
L 204.102203 293.611111 
L 203.20374 293.573219 
L 197.930534 293.391798 
L 192.629323 293.209413 
L 192.434447 293.202709 
L 189.744027 293.089526 
L 184.023365 292.848865 
L 181.410729 292.738955 
L 180.922175 292.718402 
L 180.924243 292.510564 
L 180.756595 292.128925 
L 180.301214 291.386977 
L 179.951373 290.950434 
L 179.841163 290.50406 
L 179.760107 289.857359 
L 179.64823 289.528769 
L 179.532217 289.354968 
L 179.163696 289.130436 
L 179.062159 288.996886 
L 178.970963 288.774301 
L 178.747142 288.488188 
L 178.465548 288.412045 
L 178.291695 288.446175 
L 178.235856 288.533076 
L 178.204968 288.804536 
L 178.108835 288.934098 
L 177.622166 289.234865 
L 177.429634 289.296262 
L 177.280598 289.28977 
L 177.081994 289.092504 
L 177.038697 288.840149 
L 177.165118 288.583621 
L 177.477467 288.418074 
L 177.596349 288.289253 
L 177.617963 288.078262 
L 177.563926 287.796878 
L 177.37126 287.407819 
L 177.098272 286.995482 
L 176.930423 286.801555 
L 175.513045 285.48636 
L 175.300632 285.147847 
L 175.078122 283.720246 
L 175.077211 283.714404 
L 174.990418 282.910782 
L 174.992553 282.448549 
L 174.915967 282.037324 
L 174.590676 281.602543 
L 174.380489 281.120003 
L 174.335767 281.017332 
" clip-path="url(#pfbed64001e)" style="fill: #ff5733"/>
   </g>
   <g id="text_1">
    <!-- NH -->
    <g transform="translate(227.159062 35.472) scale(0.12 -0.12)">
     <defs>
      <path id="DejaVuSans-4e" d="M 628 4666 
L 1478 4666 
L 3547 763 
L 3547 4666 
L 4159 4666 
L 4159 0 
L 3309 0 
L 1241 3903 
L 1241 0 
L 628 0 
L 628 4666 
z
" transform="scale(0.015625)"/>
      <path id="DejaVuSans-48" d="M 628 4666 
L 1259 4666 
L 1259 2753 
L 3553 2753 
L 3553 4666 
L 4184 4666 
L 4184 0 
L 3553 0 
L 3553 2222 
L 1259 2222 
L 1259 0 
L 628 0 
L 628 4666 
z
" transform="scale(0.015625)"/>
     </defs>
     <use xlink:href="#DejaVuSans-4e"/>
     <use xlink:href="#DejaVuSans-48" x="74.804688"/>
    </g>
   </g>
  </g>
 </g>
 <defs>
  <clipPath id="pfbed64001e">
   <rect x="168.153343" y="41.472" width="136.013313" height="266.112"/>
  </clipPath>
 </defs>
</svg>
