<?xml version="1.0" encoding="utf-8" standalone="no"?>
<!DOCTYPE svg PUBLIC "-//W3C//DTD SVG 1.1//EN"
  "http://www.w3.org/Graphics/SVG/1.1/DTD/svg11.dtd">
<svg xmlns:xlink="http://www.w3.org/1999/xlink" width="460.8pt" height="345.6pt" viewBox="0 0 460.8 345.6" xmlns="http://www.w3.org/2000/svg" version="1.1">
 <metadata>
  <rdf:RDF xmlns:dc="http://purl.org/dc/elements/1.1/" xmlns:cc="http://creativecommons.org/ns#" xmlns:rdf="http://www.w3.org/1999/02/22-rdf-syntax-ns#">
   <cc:Work>
    <dc:type rdf:resource="http://purl.org/dc/dcmitype/StillImage"/>
    <dc:date>2023-06-19T14:47:50.977697</dc:date>
    <dc:format>image/svg+xml</dc:format>
    <dc:creator>
     <cc:Agent>
      <dc:title>Matplotlib v3.7.1, https://matplotlib.org/</dc:title>
     </cc:Agent>
    </dc:creator>
   </cc:Work>
  </rdf:RDF>
 </metadata>
 <defs>
  <style type="text/css">*{stroke-linejoin: round; stroke-linecap: butt}</style>
 </defs>
 <g id="figure_1">
  <g id="patch_1">
   <path d="M 0 345.6 
L 460.8 345.6 
L 460.8 0 
L 0 0 
z
" style="fill: #ffffff"/>
  </g>
  <g id="axes_1">
   <g id="PatchCollection_1">
    <path d="M 172.78959 225.71418 
L 172.763399 225.638882 
L 173.007042 225.130919 
L 173.433493 224.832118 
L 173.696018 224.571563 
L 174.088283 224.025354 
L 174.301471 224.015394 
L 174.613714 223.905833 
L 175.253277 223.11889 
L 175.245663 223.05913 
L 175.283732 222.989409 
L 175.588362 222.551167 
L 175.892915 222.242406 
L 176.174628 221.774284 
L 176.395429 221.206561 
L 176.578237 220.110956 
L 176.547782 220.031275 
L 176.601079 219.194631 
L 176.744219 218.950809 
L 176.981771 218.816149 
L 177.575726 218.507388 
L 177.86805 217.750385 
L 177.948805 217.541263 
L 178.161078 217.17075 
L 178.413249 217.073141 
L 178.573139 217.103021 
L 178.679733 217.199335 
L 178.892997 217.272342 
L 178.991977 217.152821 
L 179.049233 216.821749 
L 179.007814 216.600238 
L 179.022432 216.186697 
L 179.159481 215.788295 
L 179.163745 215.554831 
L 179.256329 215.114996 
L 179.547531 214.485899 
L 179.631616 214.304248 
L 180.103674 212.840121 
L 180.080832 212.551279 
L 180.377772 212.093117 
L 180.918354 211.774396 
L 181.15012 211.234262 
L 181.080301 211.201892 
L 181.044059 211.171713 
L 181.069348 211.146776 
L 181.987261 210.241644 
L 182.14045 210.168557 
L 184.026686 209.268632 
L 184.485423 209.049768 
L 184.491149 209.047036 
L 183.756566 208.496942 
L 184.618833 207.939877 
L 185.623936 207.162993 
L 187.0478 205.937907 
L 188.375273 204.712323 
L 189.337282 204.098286 
L 190.200082 203.806457 
L 190.748355 203.726777 
L 191.105459 203.714131 
L 191.780639 203.690223 
L 193.021543 203.829365 
L 194.71311 203.763828 
L 196.824275 203.250188 
L 197.464219 203.049394 
L 198.530232 202.601192 
L 199.302931 202.143468 
L 199.3373 202.123109 
L 200.487066 201.017544 
L 200.943972 200.649022 
L 201.423644 200.519542 
L 202.069871 200.501222 
L 203.883067 200.449821 
L 204.2866 200.300421 
L 204.293999 200.293322 
L 204.515015 200.081299 
L 204.68252 199.902019 
L 204.698853 199.876886 
L 205.200337 199.105215 
L 205.398297 198.706813 
L 205.619098 197.551447 
L 205.451594 197.033525 
L 205.24602 196.575462 
L 205.237537 196.546711 
L 205.078516 196.00774 
L 205.012458 195.489263 
L 204.994763 195.350376 
L 205.025219 194.03565 
L 205.154523 193.47438 
L 205.192723 193.308567 
L 205.451594 192.880285 
L 205.695237 192.641243 
L 205.927993 192.471209 
L 206.281502 192.212961 
L 207.126715 191.724919 
L 207.170728 191.708527 
L 208.223184 191.316557 
L 208.581584 191.243013 
L 208.61149 191.236877 
L 209.875463 190.699034 
L 210.790868 189.602872 
L 210.865262 189.513788 
L 211.459142 188.318583 
L 211.778999 187.880341 
L 211.804535 187.862554 
L 212.365265 187.471979 
L 213.078002 187.21739 
L 214.177435 186.824675 
L 214.512444 186.645394 
L 214.756163 186.466113 
L 216.126654 185.051787 
L 216.583561 184.513944 
L 217.284034 183.916341 
L 217.313968 183.897603 
L 219.591104 182.472134 
L 220.520069 181.954212 
L 221.045423 181.72523 
L 221.388046 181.68539 
L 222.065678 181.804911 
L 222.281848 181.775657 
L 222.286479 181.77503 
L 223.90069 181.217268 
L 224.479418 180.918466 
L 225.728087 180.579825 
L 225.948889 180.430424 
L 226.032641 180.310903 
L 226.154462 179.922462 
L 226.216243 179.803611 
L 226.283898 179.67346 
L 226.443788 179.494179 
L 226.695121 179.314899 
L 227.281387 179.036017 
L 227.692534 178.717296 
L 227.913336 178.418494 
L 228.088454 177.641611 
L 228.423463 176.785046 
L 228.613885 176.426485 
L 228.887983 176.147603 
L 229.13924 176.067923 
L 229.344814 176.057963 
L 229.393352 176.070662 
L 229.611298 176.127683 
L 230.540187 176.536045 
L 231.44631 176.775086 
L 231.720408 176.785046 
L 231.948823 176.735246 
L 232.909537 175.905076 
L 233.413878 175.566833 
L 233.717061 175.41793 
L 233.989408 175.3508 
L 234.705109 175.4006 
L 234.933525 175.38068 
L 235.108643 175.300999 
L 236.246303 174.276608 
L 236.349775 174.125714 
L 236.47921 173.826912 
L 236.487592 173.785245 
L 236.555349 173.44843 
L 236.562962 172.990368 
L 236.502052 172.771247 
L 235.62646 171.3868 
L 235.367513 171.078039 
L 234.842158 170.739397 
L 234.263507 170.510316 
L 234.241554 170.48933 
L 234.065547 170.321075 
L 233.966567 170.171674 
L 233.867587 169.902753 
L 233.585875 168.956548 
L 233.567888 168.923682 
L 233.106203 168.080064 
L 232.839642 167.402881 
L 232.767006 167.314137 
L 232.017348 166.705677 
L 230.943796 165.918833 
L 229.101171 165.012469 
L 228.766162 164.713668 
L 227.822046 164.245545 
L 227.365139 163.817263 
L 227.037744 162.990579 
L 226.542844 161.905034 
L 226.542072 161.902745 
L 226.283974 161.13811 
L 225.980638 160.423277 
L 225.660857 159.815715 
L 225.393078 159.365222 
L 224.448962 158.329377 
L 223.954063 157.861254 
L 223.61144 157.592333 
L 223.245976 157.383172 
L 222.720544 157.333372 
L 222.339852 157.203891 
L 221.646993 156.656188 
L 220.931292 155.958985 
L 220.451544 155.590463 
L 219.949031 155.102421 
L 219.702093 154.740212 
L 219.639528 154.648442 
L 219.539634 154.173547 
L 219.469739 153.180131 
L 219.262947 152.436913 
L 218.884159 151.310133 
L 218.860948 151.253637 
L 218.099933 149.401289 
L 217.984888 149.193025 
L 217.673558 148.950697 
L 216.673252 148.486359 
L 216.465242 148.33666 
L 216.203783 148.053994 
L 215.634496 147.879195 
L 215.461433 147.922521 
L 215.103583 148.145925 
L 214.047543 148.465842 
L 213.472394 148.583669 
L 213.202864 148.54104 
L 212.570839 148.250904 
L 212.187482 147.942342 
L 212.179141 147.929209 
L 212.079365 147.772124 
L 211.977549 147.686423 
L 211.820343 147.554099 
L 211.087206 147.327607 
L 210.87813 147.128506 
L 210.740002 146.801261 
L 210.677048 146.652117 
L 210.567866 145.600436 
L 210.225091 144.114795 
L 209.985788 143.433328 
L 209.985788 143.315501 
L 210.234456 142.458339 
L 210.177504 142.097387 
L 210.198366 141.674185 
L 210.460968 141.27897 
L 210.620858 140.821206 
L 210.642938 140.326092 
L 210.609742 139.79552 
L 210.388788 138.501411 
L 210.333512 137.900422 
L 210.34478 137.02603 
L 210.402874 136.363388 
L 210.30298 135.329136 
L 210.237882 135.025156 
L 210.134486 134.76231 
L 209.38163 134.157436 
L 208.072278 132.55337 
L 207.720137 132.213733 
L 206.914745 131.928875 
L 206.428297 131.67589 
L 204.946948 131.424897 
L 204.554227 131.470514 
L 204.138359 131.681767 
L 203.294897 132.465224 
L 202.957985 132.583749 
L 202.521103 132.582255 
L 202.011128 132.494108 
L 201.413898 132.25925 
L 201.140866 132.05487 
L 200.713349 131.571708 
L 200.58437 131.372607 
L 200.521632 131.14004 
L 200.503055 131.030678 
L 200.537926 130.806478 
L 200.83182 130.318635 
L 200.88131 129.967941 
L 200.864298 129.840153 
L 200.717993 128.741162 
L 200.374457 128.153121 
L 200.245326 127.863084 
L 200.028408 127.550737 
L 199.99308 127.29576 
L 200.077136 127.179427 
L 200.291618 127.082217 
L 200.839815 127.020066 
L 200.947018 126.86708 
L 201.000619 126.554732 
L 200.779437 125.35883 
L 200.494299 124.780848 
L 200.09541 124.33653 
L 200.096628 124.105457 
L 200.384126 123.517416 
L 200.827556 122.838539 
L 201.049271 122.652087 
L 201.443973 122.43695 
L 201.844842 121.777196 
L 201.897225 121.466443 
L 201.837532 121.265648 
L 201.610868 121.1031 
L 201.309969 121.042543 
L 200.848266 121.101507 
L 200.365549 120.910274 
L 200.060995 120.492051 
L 199.83258 119.894448 
L 200.2285 118.519962 
L 200.555895 117.651446 
L 200.674906 117.491628 
L 200.693553 117.466587 
L 200.937196 117.257825 
L 201.168656 116.660222 
L 201.463464 116.0674 
L 201.495138 115.908039 
L 201.440318 115.696089 
L 201.21373 115.335934 
L 200.485162 114.518513 
L 200.410851 114.352777 
L 200.370041 114.05796 
L 200.395014 113.905173 
L 200.755682 113.486951 
L 201.422578 113.136954 
L 201.726903 112.882674 
L 201.845908 112.650804 
L 201.893266 112.203001 
L 201.987297 111.78448 
L 202.160207 111.46516 
L 202.294363 111.304206 
L 202.451512 111.231697 
L 202.898673 111.240362 
L 203.98532 111.598924 
L 204.767414 111.716452 
L 205.125721 111.700616 
L 205.209245 111.664859 
L 205.349188 111.482989 
L 205.77541 110.678615 
L 205.986999 110.407702 
L 206.462559 110.148342 
L 206.881245 110.093961 
L 206.882383 110.093332 
L 207.097325 109.974639 
L 207.683972 109.107816 
L 207.73232 108.788796 
L 207.688616 108.54099 
L 207.723792 108.332825 
L 207.875917 108.063107 
L 208.038244 107.871376 
L 208.857493 106.899176 
L 208.968503 106.650274 
L 208.976649 106.318206 
L 208.847595 106.091117 
L 208.130143 105.392121 
L 207.972841 105.169713 
L 207.956471 104.638245 
L 208.065882 104.398208 
L 208.433021 104.188549 
L 209.520125 104.120024 
L 209.7592 104.21315 
L 209.96584 104.367332 
L 210.332522 104.347511 
L 210.542816 104.08845 
L 210.461805 103.698714 
L 211.138828 102.878603 
L 211.45229 102.643646 
L 211.487922 102.308092 
L 211.436986 102.093253 
L 211.272831 101.751026 
L 210.376378 100.553629 
L 209.730572 99.906824 
L 209.575478 99.556429 
L 209.634028 99.112211 
L 209.565199 98.426163 
L 209.499416 98.143497 
L 209.322546 97.744099 
L 208.085526 96.721999 
L 207.918478 96.470308 
L 207.324294 95.51265 
L 207.276403 95.176299 
L 206.855357 94.335671 
L 206.39236 93.846433 
L 206.305562 93.513967 
L 206.230261 92.987578 
L 206.198055 92.889572 
L 206.172624 92.75033 
L 206.239626 92.503122 
L 206.188994 92.324638 
L 206.182666 92.317574 
L 206.023926 92.140377 
L 205.531235 92.257507 
L 205.356878 92.227527 
L 205.172927 92.058605 
L 205.03999 91.776337 
L 205.04037 91.471759 
L 205.225767 91.141683 
L 205.300383 90.903936 
L 205.344239 90.670075 
L 205.337462 90.273067 
L 205.416951 90.054643 
L 205.674222 89.769686 
L 205.961493 89.553055 
L 206.938196 88.95097 
L 207.050957 88.758941 
L 207.692956 88.498585 
L 208.083241 88.283647 
L 208.482511 87.842616 
L 208.522484 87.718414 
L 209.183822 87.490429 
L 209.648419 87.461346 
L 209.988529 87.312941 
L 212.00493 86.152784 
L 212.262326 86.004689 
L 212.732252 85.506686 
L 213.021197 85.34125 
L 213.396103 85.202805 
L 213.422523 85.112766 
L 213.350496 84.741256 
L 213.401813 84.537872 
L 213.897931 83.891864 
L 214.046173 83.640572 
L 214.150634 83.369758 
L 214.196013 83.070458 
L 214.401663 82.565882 
L 214.511074 82.442378 
L 214.873264 82.439888 
L 215.387883 81.802744 
L 215.751064 81.542488 
L 216.170967 81.366892 
L 216.684292 81.281933 
L 217.567726 80.672278 
L 217.765533 80.422879 
L 217.889639 79.862327 
L 217.863847 79.7713 
L 217.835961 79.672887 
L 217.685969 79.598485 
L 217.487857 79.649481 
L 217.239493 79.797786 
L 216.781445 80.217403 
L 216.517397 80.348377 
L 216.252359 80.380548 
L 216.042978 80.345091 
L 215.981915 80.289912 
L 215.989301 79.975971 
L 216.713072 78.386248 
L 216.89116 78.169318 
L 217.420779 77.880078 
L 217.695258 77.826095 
L 217.924739 77.846015 
L 218.07732 77.789442 
L 219.324619 76.860867 
L 219.368627 76.773318 
L 219.339695 76.588758 
L 219.541233 76.313861 
L 220.601537 75.882093 
L 221.208512 75.408094 
L 222.572379 73.662894 
L 222.837036 73.092582 
L 222.883328 72.845971 
L 222.995328 72.615795 
L 223.777802 71.876859 
L 224.332471 71.15615 
L 224.610147 70.492014 
L 224.626669 70.194706 
L 224.949572 69.392524 
L 225.463278 68.375503 
L 225.987795 67.508979 
L 226.046117 67.347328 
L 226.069644 67.204899 
L 225.954371 67.024622 
L 225.497388 66.571639 
L 225.454294 66.481501 
L 225.547411 66.047044 
L 225.862091 65.501532 
L 225.890338 65.106516 
L 226.235017 64.369473 
L 226.322424 64.25802 
L 226.423992 64.216586 
L 226.856611 64.148658 
L 227.013075 63.936908 
L 227.092944 63.774858 
L 227.157814 63.4651 
L 227.04551 63.114407 
L 227.059748 62.964907 
L 227.454297 62.177764 
L 227.637571 61.632164 
L 227.665277 61.549684 
L 227.992596 61.168712 
L 228.297911 60.562244 
L 228.92019 59.901096 
L 229.390801 59.670721 
L 229.670229 59.470922 
L 230.064245 58.973119 
L 231.153025 58.228804 
L 231.196195 58.128108 
L 231.166806 57.884187 
L 230.904509 57.443156 
L 230.964049 57.254811 
L 231.186678 57.049834 
L 231.416692 56.96856 
L 231.988567 56.874138 
L 232.498466 56.864477 
L 232.749647 56.789478 
L 233.120745 56.442968 
L 233.36553 56.14317 
L 233.607194 55.270969 
L 233.9387 54.810018 
L 234.14671 54.693585 
L 235.488041 54.654143 
L 235.887691 54.707429 
L 236.607199 54.567889 
L 237.552 54.035027 
L 237.863026 53.90465 
L 238.15494 53.853853 
L 238.587483 53.568 
L 242.650989 56.012594 
L 245.254618 57.517059 
L 253.45815 62.539911 
L 256.657409 64.444173 
L 262.648435 68.351599 
L 263.530561 68.881713 
L 267.057077 71.000972 
L 268.503783 71.977057 
L 270.17158 72.937075 
L 273.644724 74.936287 
L 273.65346 74.940958 
L 275.403675 75.876768 
L 276.624462 76.529502 
L 277.61024 77.056582 
L 284.127992 80.82138 
L 284.455387 81.010621 
L 288.371337 83.282309 
L 288.371718 83.282508 
L 294.625325 86.942458 
L 298.206439 89.03832 
L 298.573883 89.319293 
L 298.72951 89.407439 
L 298.906912 89.436722 
L 299.569392 89.446682 
L 299.379046 90.990489 
L 299.192613 91.672374 
L 298.736677 93.339967 
L 298.556676 93.998324 
L 297.924727 96.647697 
L 297.764836 97.185539 
L 297.747705 97.376872 
L 297.709636 97.386832 
L 297.612072 97.779436 
L 297.610656 97.785134 
L 296.902493 100.165586 
L 296.567484 100.912589 
L 296.211537 101.647541 
L 296.206015 101.659084 
L 295.434925 103.271029 
L 295.00086 104.306774 
L 294.300387 106.408345 
L 293.935576 107.012183 
L 293.934879 107.013337 
L 293.927309 107.025867 
L 293.777625 107.297886 
L 293.687812 107.461101 
L 292.728504 109.204438 
L 292.662225 109.324886 
L 292.406631 109.789373 
L 291.967432 110.587524 
L 291.390938 111.635178 
L 291.323456 111.757812 
L 290.866602 112.588046 
L 290.797868 112.712955 
L 290.747028 112.81416 
L 290.447631 113.410159 
L 290.208608 114.654562 
L 289.991357 115.785615 
L 289.892463 116.300476 
L 289.889308 116.316899 
L 289.860703 116.513299 
L 289.628458 118.107815 
L 288.386108 119.035992 
L 287.896919 119.993551 
L 286.393642 119.937376 
L 286.045842 121.672616 
L 286.6149 122.059464 
L 286.051629 122.985151 
L 285.392575 122.72858 
L 284.887853 123.868707 
L 284.359453 124.203066 
L 283.123726 124.225774 
L 281.739911 124.635033 
L 280.589916 124.809632 
L 279.207812 124.602105 
L 279.19881 124.600753 
L 278.507074 124.496887 
L 277.686379 124.378761 
L 277.201834 124.562424 
L 276.485784 125.449682 
L 276.235363 125.759979 
L 276.09836 125.929739 
L 276.004101 126.511904 
L 276.084122 127.359305 
L 275.983239 128.349931 
L 276.313527 129.019645 
L 275.988645 129.735673 
L 275.696958 130.726698 
L 275.395298 131.989532 
L 274.988365 133.12652 
L 274.987348 133.12936 
L 274.183251 133.187527 
L 273.28398 133.612821 
L 272.522596 134.479345 
L 272.554879 135.677638 
L 272.736012 136.541772 
L 272.336133 137.229912 
L 271.811083 138.347031 
L 271.654618 138.725114 
L 270.876941 140.041832 
L 271.207762 141.266121 
L 271.557313 142.48304 
L 271.856314 142.590137 
L 273.476001 143.170283 
L 274.370108 143.62242 
L 275.5242 144.206029 
L 275.798299 144.873352 
L 276.10742 145.049346 
L 276.733278 144.844667 
L 277.116407 144.342083 
L 277.369034 143.65723 
L 277.74097 143.153252 
L 278.135595 143.146579 
L 278.230387 143.438906 
L 278.612831 143.825754 
L 279.062656 144.104735 
L 279.536237 144.189694 
L 279.927741 144.14079 
L 280.50624 143.723066 
L 280.813916 143.362811 
L 280.994897 143.254645 
L 281.320617 143.272673 
L 282.207325 143.975254 
L 283.251715 144.566483 
L 284.790472 145.102433 
L 285.696519 145.570555 
L 287.006176 146.666061 
L 287.851312 147.044543 
L 291.011132 147.821427 
L 291.61095 147.841048 
L 291.840812 146.988368 
L 292.130442 144.654131 
L 291.217391 144.098261 
L 291.088793 142.989409 
L 290.025063 141.831852 
L 290.097471 141.165525 
L 291.65374 141.291619 
L 292.802516 144.090293 
L 292.848123 146.85819 
L 293.249677 148.080388 
L 293.676128 151.745586 
L 293.676128 154.106018 
L 293.430948 156.679757 
L 293.214653 158.950286 
L 292.891902 160.938511 
L 292.007859 165.096034 
L 291.49973 167.165626 
L 291.296548 167.99318 
L 289.19919 176.535647 
L 288.902326 178.497677 
L 289.07131 178.703686 
L 289.112621 178.754048 
L 288.942984 178.85594 
L 288.495671 180.656816 
L 288.05876 183.022183 
L 286.613987 190.843953 
L 285.995458 195.05041 
L 285.61566 197.633319 
L 284.572716 208.690267 
L 284.106292 211.89053 
L 284.118855 212.370305 
L 284.084379 212.448503 
L 283.965512 212.71811 
L 283.773415 213.053266 
L 282.843613 214.592492 
L 280.705799 219.700402 
L 276.956668 226.106406 
L 273.185381 233.099057 
L 272.535387 233.787994 
L 270.378615 237.167438 
L 269.296308 237.800797 
L 267.815263 237.899402 
L 267.707619 238.581231 
L 267.613344 239.178372 
L 268.020304 240.167305 
L 268.291814 240.266905 
L 268.489317 240.666303 
L 268.324934 241.412311 
L 266.50088 244.502123 
L 266.005682 245.340952 
L 263.555091 248.327373 
L 260.532245 250.767684 
L 260.524631 251.126246 
L 260.414611 252.007212 
L 260.075414 252.431012 
L 256.481529 254.0047 
L 251.768334 257.112235 
L 250.292499 258.445854 
L 249.533367 259.131833 
L 249.359163 259.791587 
L 248.786754 260.612096 
L 247.260103 261.394756 
L 245.972374 262.586775 
L 244.711523 264.000305 
L 243.049802 266.373286 
L 242.266414 267.252958 
L 241.897295 268.589994 
L 240.375517 270.460093 
L 237.108342 276.435923 
L 237.033802 276.72586 
L 237.124026 276.951156 
L 237.864548 277.62575 
L 237.752853 278.115884 
L 235.282924 280.925613 
L 232.202288 286.070376 
L 231.625235 288.357203 
L 231.140462 289.166158 
L 229.983615 289.768044 
L 229.11282 290.420029 
L 226.722531 292.896495 
L 225.678674 294.303651 
L 225.622331 294.201162 
L 225.218874 293.991602 
L 224.319527 294.16929 
L 222.435787 295.141888 
L 221.418273 295.426547 
L 220.41652 295.488 
L 218.140591 295.221569 
L 217.850428 295.000555 
L 217.490978 294.307635 
L 218.757312 288.242762 
L 219.205996 286.811006 
L 220.054939 284.864015 
L 222.693591 279.659691 
L 223.141285 278.526835 
L 223.540022 277.095377 
L 224.045048 274.06314 
L 223.949647 272.549412 
L 222.578089 270.943853 
L 221.835339 270.684082 
L 218.222897 269.420662 
L 217.165791 269.218175 
L 215.510847 269.319568 
L 213.365495 269.083714 
L 213.574267 267.971177 
L 213.349963 267.134035 
L 212.499421 266.290319 
L 211.667 266.932244 
L 208.445813 267.372478 
L 206.907588 267.20744 
L 205.912231 268.49149 
L 205.683816 269.467674 
L 204.953116 270.252824 
L 203.830988 269.444766 
L 202.540747 268.193883 
L 202.874004 267.320885 
L 202.668964 266.199683 
L 201.8437 264.190841 
L 200.750581 263.896621 
L 199.6851 262.21148 
L 199.178551 262.197935 
L 196.960715 261.068266 
L 196.776689 260.710401 
L 196.866152 260.423154 
L 196.753771 259.912602 
L 196.186616 258.49698 
L 194.677325 258.085829 
L 193.840488 258.582437 
L 193.633924 259.264003 
L 193.362491 259.528443 
L 192.059611 258.317799 
L 191.359822 257.433247 
L 190.480196 255.253988 
L 190.426213 254.577004 
L 189.948064 253.972927 
L 189.32175 253.63807 
L 188.287105 253.725121 
L 187.566988 254.36605 
L 185.662462 252.68569 
L 185.334991 252.138485 
L 185.270273 251.37704 
L 184.956355 250.571073 
L 184.348016 250.325613 
L 183.22078 249.870782 
L 182.481933 249.362421 
L 181.675627 248.300082 
L 179.938225 244.65082 
L 179.095601 244.730899 
L 178.540324 244.462177 
L 176.857665 243.256712 
L 176.651254 242.638791 
L 174.515724 242.496562 
L 174.023642 241.511712 
L 173.911414 240.59987 
L 174.038945 238.910048 
L 175.150947 238.756066 
L 175.22305 238.557064 
L 175.05349 238.44581 
L 174.994711 238.033066 
L 175.007045 237.490841 
L 175.260129 235.915062 
L 175.250003 235.43678 
L 175.182316 235.054513 
L 174.885452 234.900431 
L 174.699751 234.51428 
L 174.827054 234.25751 
L 175.309695 233.738791 
L 175.840913 233.050253 
L 176.166024 232.332034 
L 176.381039 231.833633 
L 176.320128 230.799382 
L 176.130087 230.525281 
L 175.795078 230.276678 
L 175.645237 230.292615 
L 175.334516 230.196998 
L 174.919105 229.804971 
L 174.664499 229.565929 
L 174.456184 229.310952 
L 174.27901 229.180774 
L 174.247869 229.167528 
L 173.942097 229.006573 
L 173.832458 228.928486 
L 173.215965 228.40897 
L 173.03567 228.028098 
L 172.969886 227.942043 
L 172.911412 227.69344 
L 172.958922 227.398623 
L 172.839537 226.885481 
L 172.750608 226.197043 
L 172.78959 225.71418 
" clip-path="url(#p332ab9407b)" style="fill: #33ff57"/>
   </g>
   <g id="text_1">
    <!-- NJ -->
    <g transform="translate(229.90125 35.472) scale(0.12 -0.12)">
     <defs>
      <path id="DejaVuSans-4e" d="M 628 4666 
L 1478 4666 
L 3547 763 
L 3547 4666 
L 4159 4666 
L 4159 0 
L 3309 0 
L 1241 3903 
L 1241 0 
L 628 0 
L 628 4666 
z
" transform="scale(0.015625)"/>
      <path id="DejaVuSans-4a" d="M 628 4666 
L 1259 4666 
L 1259 325 
Q 1259 -519 939 -900 
Q 619 -1281 -91 -1281 
L -331 -1281 
L -331 -750 
L -134 -750 
Q 284 -750 456 -515 
Q 628 -281 628 325 
L 628 4666 
z
" transform="scale(0.015625)"/>
     </defs>
     <use xlink:href="#DejaVuSans-4e"/>
     <use xlink:href="#DejaVuSans-4a" x="74.804688"/>
    </g>
   </g>
  </g>
 </g>
 <defs>
  <clipPath id="p332ab9407b">
   <rect x="166.409668" y="41.472" width="139.500663" height="266.112"/>
  </clipPath>
 </defs>
</svg>
