<?xml version="1.0" encoding="utf-8" standalone="no"?>
<!DOCTYPE svg PUBLIC "-//W3C//DTD SVG 1.1//EN"
  "http://www.w3.org/Graphics/SVG/1.1/DTD/svg11.dtd">
<svg xmlns:xlink="http://www.w3.org/1999/xlink" width="460.8pt" height="345.6pt" viewBox="0 0 460.8 345.6" xmlns="http://www.w3.org/2000/svg" version="1.1">
 <metadata>
  <rdf:RDF xmlns:dc="http://purl.org/dc/elements/1.1/" xmlns:cc="http://creativecommons.org/ns#" xmlns:rdf="http://www.w3.org/1999/02/22-rdf-syntax-ns#">
   <cc:Work>
    <dc:type rdf:resource="http://purl.org/dc/dcmitype/StillImage"/>
    <dc:date>2023-06-19T14:47:39.800138</dc:date>
    <dc:format>image/svg+xml</dc:format>
    <dc:creator>
     <cc:Agent>
      <dc:title>Matplotlib v3.7.1, https://matplotlib.org/</dc:title>
     </cc:Agent>
    </dc:creator>
   </cc:Work>
  </rdf:RDF>
 </metadata>
 <defs>
  <style type="text/css">*{stroke-linejoin: round; stroke-linecap: butt}</style>
 </defs>
 <g id="figure_1">
  <g id="patch_1">
   <path d="M 0 345.6 
L 460.8 345.6 
L 460.8 0 
L 0 0 
z
" style="fill: #ffffff"/>
  </g>
  <g id="axes_1">
   <g id="PatchCollection_1">
    <path d="M 129.361416 289.183705 
L 129.37307 288.350932 
L 129.37413 288.350377 
L 129.398886 282.499922 
L 129.395955 275.672769 
L 129.411211 275.065614 
L 129.399098 273.659704 
L 129.410999 272.905594 
L 129.417321 272.50404 
L 129.417003 266.406455 
L 129.412341 265.786581 
L 129.427704 263.399832 
L 129.428057 263.185525 
L 129.45186 248.790384 
L 129.450607 239.371667 
L 129.450412 237.906327 
L 129.450412 237.695135 
L 129.450694 237.538876 
L 129.450941 237.391579 
L 129.469341 233.800679 
L 129.469331 233.791118 
L 129.456521 221.386549 
L 129.457475 221.343568 
L 129.476828 220.383047 
L 129.473014 220.340963 
L 129.469341 218.435542 
L 129.469376 218.416933 
L 129.465107 215.39076 
L 129.465103 215.387774 
L 129.456874 213.633619 
L 129.479583 208.716241 
L 129.476687 208.703521 
L 129.471884 208.54517 
L 129.478064 208.40116 
L 129.488871 208.298467 
L 129.462949 206.816411 
L 129.48541 197.62812 
L 129.468352 192.721583 
L 129.475538 191.09045 
L 129.493744 186.957688 
L 129.473261 181.622493 
L 129.502361 159.327723 
L 129.502361 159.320894 
L 129.503279 156.899189 
L 129.505752 148.715936 
L 129.531285 148.101738 
L 129.505116 147.479645 
L 129.522067 146.871636 
L 129.506246 146.259573 
L 129.514051 140.661711 
L 129.514048 140.657421 
L 129.507934 131.451311 
L 129.505822 128.270758 
L 129.490974 125.408146 
L 129.485294 124.312971 
L 129.480677 123.422866 
L 129.491802 115.623967 
L 129.490813 115.619101 
L 129.498335 112.724776 
L 129.498371 112.628058 
L 129.507941 101.390549 
L 129.506846 101.009781 
L 129.506882 99.424605 
L 129.5084 99.423069 
L 129.509742 96.160353 
L 129.50977 96.144846 
L 129.518359 91.265126 
L 129.502326 88.502604 
L 129.513438 82.818729 
L 129.528883 74.91898 
L 129.528878 73.751037 
L 129.528813 58.930725 
L 129.529731 58.913268 
L 129.534499 54.906558 
L 129.535487 54.88018 
L 129.536229 53.616999 
L 132.585922 53.624298 
L 132.743572 53.624597 
L 144.542395 53.608335 
L 144.564291 53.609957 
L 147.505271 53.606854 
L 153.053712 53.600999 
L 155.122576 53.598817 
L 155.131652 53.599286 
L 156.264017 53.59839 
L 156.275106 53.596896 
L 157.597717 53.59664 
L 157.642816 53.619944 
L 165.267403 53.583416 
L 166.427084 53.57786 
L 184.751944 53.577707 
L 186.89999 53.577689 
L 202.276442 53.573108 
L 206.098385 53.571969 
L 206.363112 53.901178 
L 210.572929 53.899684 
L 213.220376 53.871428 
L 213.724755 53.866306 
L 214.876438 53.869806 
L 214.879299 53.869209 
L 215.286384 53.876507 
L 215.285183 53.878086 
L 219.401942 53.843898 
L 220.260609 53.840853 
L 224.962411 53.824179 
L 226.723255 53.838691 
L 228.29848 53.821703 
L 228.332736 53.822642 
L 229.965596 53.828788 
L 236.846344 53.776673 
L 236.857552 53.776564 
L 237.169907 53.773515 
L 237.216277 53.773472 
L 247.02309 53.755208 
L 247.023325 53.755207 
L 247.093675 53.755076 
L 248.921301 53.754009 
L 250.236814 53.762332 
L 253.540533 53.753967 
L 254.297598 53.758149 
L 254.426465 53.753113 
L 255.96814 53.749015 
L 256.601245 53.747906 
L 256.77062 53.748887 
L 257.575576 53.754687 
L 257.588145 53.754777 
L 263.521689 53.765491 
L 264.605283 53.7841 
L 264.609043 53.784088 
L 266.920963 53.776838 
L 267.57765 53.774779 
L 268.130256 53.773045 
L 271.364191 53.888245 
L 272.376836 53.86541 
L 281.85679 53.85602 
L 281.859933 53.857599 
L 284.932476 53.860544 
L 285.620568 53.851111 
L 285.655495 53.817905 
L 289.374211 53.843983 
L 295.746024 53.853843 
L 298.8643 53.806508 
L 307.434767 53.73843 
L 317.093313 53.661517 
L 317.132761 53.662584 
L 337.521438 53.568 
L 339.987185 53.570481 
L 342.950285 53.573463 
L 342.94859 57.351567 
L 342.958584 57.437529 
L 342.95032 65.553387 
L 342.939019 67.441692 
L 342.948413 69.917518 
L 342.950673 70.534874 
L 342.937359 73.784188 
L 342.941986 74.902078 
L 341.547366 74.900286 
L 341.553687 82.675795 
L 341.556195 82.707081 
L 341.586213 93.902761 
L 341.569226 103.187728 
L 341.538113 103.720274 
L 341.554711 104.195968 
L 341.547613 104.948498 
L 341.574841 105.155849 
L 341.570398 107.381735 
L 341.560433 112.373245 
L 341.531756 128.269435 
L 341.517312 128.645849 
L 341.52713 129.89964 
L 341.531368 131.125176 
L 341.531756 131.140669 
L 341.53271 131.177547 
L 341.530732 131.320489 
L 341.524622 132.142336 
L 341.519572 132.764771 
L 341.523492 132.848812 
L 341.526318 133.154844 
L 341.500149 133.60463 
L 341.522009 134.251052 
L 341.525173 140.899704 
L 341.526282 143.229987 
L 341.5171 145.33435 
L 341.517489 147.810731 
L 341.517524 149.725584 
L 341.515476 152.976819 
L 341.499266 153.748898 
L 341.506823 155.170942 
L 341.488388 161.877261 
L 341.488565 162.000442 
L 341.4886 162.005222 
L 341.488812 162.176165 
L 341.490366 164.318557 
L 341.488777 164.522792 
L 341.487788 164.675295 
L 341.488706 164.819946 
L 341.487717 164.959687 
L 341.487717 165.034936 
L 341.487682 165.193287 
L 341.487117 165.205195 
L 341.484892 165.252658 
L 341.476911 165.366278 
L 341.476028 165.419887 
L 341.475957 165.424369 
L 341.474792 168.275158 
L 341.474794 168.275795 
L 341.476301 168.706932 
L 341.47631 168.709621 
L 341.483974 169.270636 
L 341.486623 170.659431 
L 341.488881 176.808614 
L 341.489271 177.870852 
L 341.491143 178.236425 
L 341.485139 178.932316 
L 341.483091 179.491112 
L 341.482279 179.766029 
L 341.483903 179.818314 
L 341.482138 179.851692 
L 341.48302 180.032835 
L 341.489766 180.22832 
L 341.490613 180.855749 
L 341.48917 181.147508 
L 341.487576 181.469562 
L 341.475816 182.707518 
L 341.442513 183.945815 
L 341.414084 185.623996 
L 341.415991 185.827248 
L 341.371387 188.014158 
L 341.355884 189.107891 
L 341.294081 192.454392 
L 341.275999 192.817362 
L 341.256929 194.345173 
L 341.243368 195.606988 
L 341.223767 196.214015 
L 341.207946 196.542625 
L 341.21402 196.907003 
L 341.20339 197.438867 
L 341.169981 199.952424 
L 341.169962 199.953458 
L 341.027129 207.727464 
L 341.027118 207.728386 
L 340.997746 210.244052 
L 340.984715 210.851975 
L 340.935767 213.193651 
L 340.918886 213.369032 
L 340.90536 214.949854 
L 340.845989 218.293624 
L 340.77109 222.511867 
L 340.768441 222.655364 
L 340.751772 223.867668 
L 340.745662 224.311179 
L 340.743755 225.827509 
L 340.744532 226.0527 
L 340.74764 228.574495 
L 340.742978 229.456267 
L 340.737293 229.926156 
L 340.739235 230.380722 
L 340.735386 230.399332 
L 340.736339 230.736564 
L 340.744003 231.628153 
L 340.743945 231.630566 
L 340.743049 231.668232 
L 340.742625 233.500922 
L 340.743084 233.54322 
L 340.739235 233.812076 
L 340.738529 235.974998 
L 340.739518 236.740462 
L 340.739553 237.505882 
L 340.737222 237.852206 
L 340.74538 239.398455 
L 340.738952 240.332471 
L 340.74086 241.300248 
L 340.739906 241.36282 
L 340.74086 241.892678 
L 340.743155 244.700742 
L 340.752832 260.799929 
L 340.755445 261.737444 
L 340.755586 263.273578 
L 340.752796 266.967001 
L 339.995167 266.969263 
L 339.895506 266.969775 
L 335.412416 266.967214 
L 333.576278 266.968836 
L 333.57363 266.975281 
L 333.47916 266.975196 
L 333.19176 266.971226 
L 331.497309 266.973318 
L 317.498808 266.980216 
L 316.600552 266.980659 
L 312.109834 266.965464 
L 308.412166 266.983775 
L 306.846195 266.988683 
L 296.070751 266.985936 
L 288.932799 266.984116 
L 288.926407 266.975836 
L 285.077659 266.972208 
L 284.985555 266.970202 
L 277.77358 266.96852 
L 275.282688 266.96794 
L 275.279688 266.967938 
L 269.675462 266.964397 
L 269.620405 266.96636 
L 268.227727 266.968409 
L 267.756721 266.966745 
L 267.70237 266.967001 
L 267.161191 266.968409 
L 267.088087 266.967897 
L 266.957984 266.967897 
L 258.609265 266.963202 
L 257.314836 266.961879 
L 257.260697 266.963501 
L 257.236011 266.964482 
L 246.567787 266.922355 
L 245.890961 266.894953 
L 242.234578 266.888807 
L 241.101012 266.905026 
L 240.591017 266.899477 
L 237.151155 266.889746 
L 235.298912 266.886147 
L 232.647299 266.880996 
L 230.658809 266.901611 
L 229.992789 266.912922 
L 229.808582 266.913904 
L 226.015951 266.924574 
L 225.65706 266.926895 
L 225.564683 266.927492 
L 223.771492 266.939086 
L 223.760233 266.938843 
L 223.155691 266.92577 
L 220.088658 266.944336 
L 217.151904 266.956885 
L 216.502906 266.958327 
L 215.999409 266.959446 
L 215.238319 266.967982 
L 215.204345 267.213917 
L 215.058844 267.373293 
L 214.78995 267.424085 
L 214.602423 267.598655 
L 214.495169 267.827901 
L 214.542598 267.978484 
L 214.827667 268.215883 
L 215.072335 268.14503 
L 215.207064 268.492507 
L 215.109769 268.653888 
L 215.136963 268.807075 
L 215.26583 268.866787 
L 215.383502 269.005675 
L 215.352495 269.167398 
L 215.09974 269.507234 
L 215.116162 269.715139 
L 215.044541 269.934142 
L 215.146357 270.101072 
L 215.451732 270.361135 
L 215.465152 270.461012 
L 214.974828 270.735458 
L 214.702155 270.839475 
L 214.44887 271.061081 
L 214.28504 271.314102 
L 214.291503 271.476764 
L 214.37612 271.55897 
L 214.543728 271.613176 
L 214.807255 271.837343 
L 214.860052 271.952329 
L 214.659599 272.34667 
L 214.624036 272.47318 
L 214.622412 272.6985 
L 214.909105 272.939313 
L 214.981326 273.123572 
L 215.119269 273.269631 
L 215.374249 273.541261 
L 215.684746 273.549157 
L 215.705935 273.56623 
L 215.818945 273.630253 
L 215.822477 273.835128 
L 215.705158 274.334212 
L 215.79486 274.457478 
L 216.109206 274.462728 
L 216.27805 274.556415 
L 216.313366 274.582025 
L 216.521765 274.863727 
L 216.550017 274.932019 
L 216.694812 275.081407 
L 216.917301 275.089943 
L 217.062096 274.957628 
L 217.18217 274.987506 
L 217.199792 275.051615 
L 217.358748 275.081407 
L 217.757817 275.213765 
L 217.777857 275.244687 
L 217.821385 275.311848 
L 217.843634 275.34258 
L 217.934395 275.435627 
L 217.936055 275.433962 
L 218.15692 275.585015 
L 218.174578 275.631965 
L 218.181253 275.649806 
L 218.195768 275.69172 
L 218.255804 275.870986 
L 218.257323 275.874315 
L 218.275687 275.870687 
L 218.345083 275.86262 
L 218.435915 275.930741 
L 218.443154 275.962582 
L 218.447216 275.989984 
L 218.434008 276.082775 
L 218.429523 276.166432 
L 218.425355 276.244839 
L 218.302139 276.212316 
L 210.574483 276.221023 
L 210.574483 276.212828 
L 201.992856 276.221748 
L 201.82719 276.222517 
L 201.745081 276.222175 
L 201.745081 276.22926 
L 200.600809 276.228098 
L 191.283357 276.218634 
L 191.282289 276.218633 
L 186.852914 276.22559 
L 186.844121 276.22559 
L 179.122857 276.220596 
L 171.804581 276.224181 
L 164.635621 276.226145 
L 159.089491 276.22559 
L 159.100333 283.486266 
L 159.085006 288.338853 
L 159.083205 288.341243 
L 159.083169 295.441306 
L 149.661628 295.439513 
L 141.457633 295.450013 
L 138.595148 295.485268 
L 136.391656 295.488 
L 136.041218 295.487402 
L 129.365972 295.479421 
L 129.361416 289.183705 
" clip-path="url(#pa1149c0723)" style="fill: #33a1ff"/>
   </g>
   <g id="text_1">
    <!-- NM -->
    <g transform="translate(226.494375 35.472) scale(0.12 -0.12)">
     <defs>
      <path id="DejaVuSans-4e" d="M 628 4666 
L 1478 4666 
L 3547 763 
L 3547 4666 
L 4159 4666 
L 4159 0 
L 3309 0 
L 1241 3903 
L 1241 0 
L 628 0 
L 628 4666 
z
" transform="scale(0.015625)"/>
      <path id="DejaVuSans-4d" d="M 628 4666 
L 1569 4666 
L 2759 1491 
L 3956 4666 
L 4897 4666 
L 4897 0 
L 4281 0 
L 4281 4097 
L 3078 897 
L 2444 897 
L 1241 4097 
L 1241 0 
L 628 0 
L 628 4666 
z
" transform="scale(0.015625)"/>
     </defs>
     <use xlink:href="#DejaVuSans-4e"/>
     <use xlink:href="#DejaVuSans-4d" x="74.804688"/>
    </g>
   </g>
  </g>
 </g>
 <defs>
  <clipPath id="pa1149c0723">
   <rect x="118.681558" y="41.472" width="234.956885" height="266.112"/>
  </clipPath>
 </defs>
</svg>
