<?xml version="1.0" encoding="utf-8" standalone="no"?>
<!DOCTYPE svg PUBLIC "-//W3C//DTD SVG 1.1//EN"
  "http://www.w3.org/Graphics/SVG/1.1/DTD/svg11.dtd">
<svg xmlns:xlink="http://www.w3.org/1999/xlink" width="360pt" height="360pt" viewBox="0 0 360 360" xmlns="http://www.w3.org/2000/svg" version="1.1">
 <metadata>
  <rdf:RDF xmlns:dc="http://purl.org/dc/elements/1.1/" xmlns:cc="http://creativecommons.org/ns#" xmlns:rdf="http://www.w3.org/1999/02/22-rdf-syntax-ns#">
   <cc:Work>
    <dc:type rdf:resource="http://purl.org/dc/dcmitype/StillImage"/>
    <dc:date>2023-06-19T15:20:26.522289</dc:date>
    <dc:format>image/svg+xml</dc:format>
    <dc:creator>
     <cc:Agent>
      <dc:title>Matplotlib v3.7.1, https://matplotlib.org/</dc:title>
     </cc:Agent>
    </dc:creator>
   </cc:Work>
  </rdf:RDF>
 </metadata>
 <defs>
  <style type="text/css">*{stroke-linejoin: round; stroke-linecap: butt}</style>
 </defs>
 <g id="figure_1">
  <g id="patch_1">
   <path d="M 0 360 
L 360 360 
L 360 0 
L 0 0 
z
" style="fill: #ffffff"/>
  </g>
  <g id="axes_1">
   <g id="PatchCollection_1">
    <path d="M 303.644655 161.209468 
L 303.88907 161.098721 
L 304.259457 161.107621 
L 304.665042 161.178333 
L 304.802174 161.291626 
L 305.120192 161.404634 
L 305.569618 161.675349 
L 305.472378 161.772588 
L 305.498677 162.048568 
L 305.743093 162.101109 
L 306.227661 162.647202 
L 306.791754 163.484872 
L 306.70765 163.734553 
L 306.862495 164.648773 
L 306.688133 164.832092 
L 306.579933 164.828257 
L 306.157979 164.563495 
L 305.33064 164.423244 
L 305.125658 164.232542 
L 305.553993 163.99199 
L 305.539342 163.307162 
L 305.460417 163.098431 
L 305.189301 162.738204 
L 304.943627 162.693647 
L 304.478404 162.188304 
L 304.501326 161.961745 
L 304.349829 161.793707 
L 303.73122 161.503505 
L 303.631949 161.273111 
L 303.644655 161.209468 
" clip-path="url(#p7395ef7831)" style="fill: #0086dd"/>
    <path d="M 295.438684 186.020543 
L 295.799598 185.579788 
L 296.059124 185.346246 
L 296.136532 185.103376 
L 296.09664 184.884057 
L 296.136532 184.694643 
L 296.286055 184.555079 
L 296.585129 184.525174 
L 296.785732 184.619609 
L 297.123095 184.567727 
L 298.005436 184.126543 
L 298.394681 183.918957 
L 298.861792 183.685387 
L 300.418859 183.062572 
L 301.001467 182.930105 
L 301.180894 182.880254 
L 301.508785 182.751164 
L 301.742327 182.59546 
L 301.958498 182.431658 
L 302.858209 182.284053 
L 302.873199 182.278056 
L 303.117734 182.180231 
L 303.433921 182.142543 
L 303.896253 181.9986 
L 304.15575 181.868823 
L 304.441202 181.661237 
L 304.570979 181.609327 
L 304.76978 181.374927 
L 304.869481 181.325076 
L 304.92929 181.325076 
L 305.115928 181.453623 
L 305.427336 181.479578 
L 306.102062 181.297919 
L 306.404713 181.165566 
L 306.833392 180.866493 
L 307.301934 180.657161 
L 307.321765 180.5194 
L 307.331838 180.358087 
L 307.361743 180.278332 
L 307.690721 180.368046 
L 307.790422 180.437842 
L 308.38857 180.378005 
L 309.112345 180.182037 
L 309.294004 179.740881 
L 309.449708 178.884496 
L 309.605411 178.365474 
L 309.774279 177.606614 
L 309.942774 176.912229 
L 310.124434 175.848257 
L 310.280137 174.991872 
L 310.487752 174.10956 
L 310.461797 173.746242 
L 310.432236 173.439499 
L 310.492045 172.941052 
L 310.643456 172.578449 
L 310.747249 172.163248 
L 310.747249 170.839752 
L 310.596353 170.213274 
L 310.43773 169.598328 
L 310.173054 168.923488 
L 309.923802 168.514754 
L 309.684565 167.338405 
L 309.634229 166.929615 
L 309.307768 165.913977 
L 309.464188 165.853281 
L 309.591132 165.981513 
L 310.065683 166.730528 
L 310.247142 167.142552 
L 310.732425 168.569985 
L 311.318182 170.917618 
L 311.278061 171.354968 
L 311.208522 172.149312 
L 310.954863 174.265264 
L 310.513707 176.78248 
L 310.072523 178.832585 
L 309.39339 181.298577 
L 309.17284 181.527912 
L 308.852848 181.453623 
L 308.411692 181.34983 
L 307.840759 181.375757 
L 306.984402 181.479578 
L 306.257765 181.687164 
L 305.193794 182.024527 
L 303.584846 182.543549 
L 302.997935 182.690282 
L 302.754416 182.751164 
L 302.417053 182.829001 
L 301.846148 183.062572 
L 300.392903 183.659431 
L 298.316843 184.567727 
L 297.408547 184.982928 
L 296.863598 185.346246 
L 296.318621 185.657654 
L 295.783544 186.066387 
L 295.450588 186.220202 
L 295.398821 186.120215 
L 295.438684 186.020543 
" clip-path="url(#p7395ef7831)" style="fill: #0086dd"/>
    <path d="M 58.020841 185.732916 
L 58.062221 185.335773 
L 58.066199 185.323982 
L 58.17002 184.507575 
L 58.3647 183.1979 
L 58.443911 182.769393 
L 58.527386 182.075866 
L 58.527424 182.075522 
L 58.586938 181.535152 
L 58.604651 181.560764 
L 58.651554 181.566745 
L 58.787827 181.506392 
L 58.807859 181.46919 
L 59.011038 181.271735 
L 59.44318 181.068556 
L 59.517583 180.945504 
L 59.657806 180.851068 
L 59.93825 180.745158 
L 60.018377 180.687924 
L 60.258786 180.413203 
L 60.373253 180.324491 
L 60.490582 180.290151 
L 60.702346 180.32163 
L 60.831121 180.376001 
L 61.011436 180.55912 
L 61.017159 180.599183 
L 61.086927 180.670926 
L 61.120179 180.899659 
L 61.165966 180.988371 
L 61.194583 181.016988 
L 61.392038 181.034158 
L 61.500782 181.12287 
L 61.784117 181.102838 
L 61.827042 181.05419 
L 62.015913 180.956893 
L 62.067423 180.956864 
L 62.276325 181.022683 
L 62.30208 181.011236 
L 62.345005 180.954003 
L 62.448026 180.936833 
L 62.796921 180.925415 
L 62.894476 180.945418 
L 62.988911 180.985481 
L 63.078081 181.016988 
L 63.156176 181.026002 
L 63.204252 181.016988 
L 63.249324 180.995955 
L 63.263632 180.936804 
L 63.297972 180.853815 
L 63.318004 180.840966 
L 63.425746 180.817672 
L 63.593755 180.823567 
L 63.600365 180.842827 
L 63.618508 180.8624 
L 63.649987 180.865262 
L 63.789207 180.826658 
L 63.941277 180.870985 
L 63.96603 180.890044 
L 64.102303 180.91102 
L 64.253829 180.836645 
L 64.519965 180.633438 
L 64.522827 180.581928 
L 64.571361 180.517139 
L 64.754622 180.458875 
L 64.87198 180.441705 
L 65.069435 180.358717 
L 65.298369 180.315792 
L 65.387081 180.264282 
L 65.670416 180.023872 
L 65.862148 179.729119 
L 66.060349 179.628808 
L 66.093973 179.611791 
L 66.219886 179.52594 
L 66.279982 179.365687 
L 66.134036 179.139614 
L 66.071079 179.108136 
L 65.890794 179.062349 
L 65.870762 179.036594 
L 65.876485 178.896372 
L 65.963223 178.680744 
L 65.964053 178.646061 
L 65.970949 178.587311 
L 66.022459 178.532939 
L 66.051992 178.455273 
L 65.997763 178.362526 
L 65.964625 178.350879 
L 65.802912 178.021271 
L 65.81971 177.978718 
L 65.881264 177.950588 
L 66.18423 177.862935 
L 66.221432 177.853749 
L 66.314951 177.759714 
L 66.343425 177.700592 
L 66.459952 177.548952 
L 66.67558 177.354558 
L 66.654947 177.147888 
L 66.612022 177.039144 
L 66.571958 176.990495 
L 66.589128 176.938985 
L 66.657809 176.838827 
L 66.657809 176.818795 
L 66.48897 176.607031 
L 66.457491 176.586999 
L 66.374503 176.569829 
L 66.354471 176.549797 
L 66.277206 176.423884 
L 66.269336 176.331308 
L 66.302217 176.261913 
L 66.388811 176.223566 
L 66.4718 176.200673 
L 66.557679 176.103376 
L 66.740826 175.945984 
L 66.828279 175.898337 
L 66.895356 175.822416 
L 66.914358 175.795545 
L 66.945493 175.662592 
L 66.98942 175.577457 
L 67.105346 175.45429 
L 67.372484 175.331668 
L 67.514051 175.175134 
L 67.663688 175.143627 
L 67.660426 175.038861 
L 67.70999 174.965516 
L 67.755605 174.956988 
L 67.846864 174.971354 
L 67.8877 174.958248 
L 67.997273 174.841005 
L 68.007175 174.745367 
L 68.007118 174.719612 
L 68.007121 174.719164 
L 68.007203 174.708023 
L 68.099693 174.706077 
L 68.168516 174.727682 
L 68.241031 174.80841 
L 68.340989 174.793272 
L 68.524194 174.681094 
L 68.547517 174.618996 
L 68.695093 174.497174 
L 68.903194 174.44512 
L 69.041928 174.429267 
L 69.194484 174.444062 
L 69.273552 174.43705 
L 69.417437 174.367912 
L 69.489208 174.262431 
L 69.524264 174.128419 
L 69.593745 173.994979 
L 69.710645 173.938718 
L 69.74467 173.87951 
L 69.748619 173.848146 
L 69.714193 173.81704 
L 69.714823 173.780553 
L 69.878282 173.628455 
L 69.953773 173.617438 
L 69.981159 173.593514 
L 70.204713 173.316933 
L 70.253333 173.190218 
L 70.32456 173.14549 
L 70.537583 173.07681 
L 70.715494 173.083535 
L 70.920161 173.056606 
L 71.073633 173.079271 
L 71.228049 173.130781 
L 71.465539 173.064934 
L 71.703287 172.973189 
L 71.831118 172.976422 
L 71.883716 173.000003 
L 72.335632 172.70007 
L 72.366681 172.639832 
L 72.546366 172.491797 
L 72.993703 172.3312 
L 73.184662 172.239999 
L 73.386039 172.037449 
L 73.424843 171.904295 
L 73.62888 171.920893 
L 73.76999 171.893593 
L 73.848915 171.861771 
L 74.04989 171.932111 
L 74.456964 171.808801 
L 74.534858 171.874791 
L 74.806374 171.911278 
L 74.882838 171.869125 
L 75.271683 171.720719 
L 75.367635 171.72235 
L 75.417628 171.746445 
L 75.458722 171.746817 
L 75.539879 171.725898 
L 75.931156 171.711705 
L 76.156828 171.670468 
L 76.247686 171.708099 
L 76.442881 171.696223 
L 76.53584 171.703261 
L 76.537746 171.703406 
L 76.595895 171.730048 
L 76.681516 171.701317 
L 76.818133 171.727129 
L 77.037852 171.798213 
L 77.180449 171.791059 
L 77.275343 171.761841 
L 77.313975 171.731135 
L 77.41339 171.704693 
L 77.48848 171.739148 
L 77.901191 171.563527 
L 78.084997 171.408281 
L 78.201839 171.411458 
L 78.286315 171.443279 
L 78.503345 171.595406 
L 78.687723 171.765647 
L 78.707382 171.849952 
L 78.751738 171.880744 
L 78.854473 171.888098 
L 79.0163 171.849895 
L 79.128507 171.806998 
L 79.309765 171.793405 
L 79.505103 171.82766 
L 79.708196 171.840537 
L 80.032739 171.801733 
L 80.223241 171.831323 
L 80.615291 171.804595 
L 80.698422 171.882747 
L 81.248694 171.879599 
L 81.440083 171.768394 
L 81.615217 171.730134 
L 81.755726 171.488923 
L 81.815649 171.415407 
L 81.792928 171.313474 
L 81.799652 171.297677 
L 81.905964 171.255925 
L 81.982743 171.205073 
L 81.9832 171.131443 
L 82.020574 171.097703 
L 82.269082 171.031999 
L 82.46814 170.876181 
L 82.562318 170.736732 
L 82.713815 170.5723 
L 82.752018 170.482472 
L 82.883798 170.484303 
L 83.138459 170.535756 
L 83.445288 170.500128 
L 83.462801 170.488395 
L 83.4798 170.434853 
L 83.723557 170.33604 
L 83.889277 170.242606 
L 83.96059 170.210326 
L 84.159276 170.170062 
L 84.272999 170.102098 
L 84.388897 169.894426 
L 84.385463 169.85917 
L 84.627876 169.827091 
L 84.69275 169.833071 
L 84.727061 169.771774 
L 84.815001 169.706042 
L 84.859013 169.69531 
L 84.910666 169.72696 
L 84.973824 169.727018 
L 85.008765 169.711965 
L 85.258646 169.467321 
L 85.31608 169.388853 
L 85.339975 169.322491 
L 85.33511 169.256844 
L 85.385504 169.175401 
L 85.448919 169.107293 
L 85.514881 169.078791 
L 85.571914 169.089665 
L 85.846034 169.015262 
L 85.923814 168.946667 
L 86.320557 169.022673 
L 86.412016 169.131417 
L 86.559335 169.251779 
L 86.624209 169.261995 
L 86.859182 169.215865 
L 87.005843 169.167617 
L 87.105372 169.048314 
L 87.179804 168.899163 
L 87.19105 168.741571 
L 87.234462 168.688029 
L 87.463024 168.593794 
L 87.626082 168.546262 
L 87.743468 168.488656 
L 87.803592 168.376278 
L 87.914825 168.315267 
L 88.033242 168.268622 
L 88.122955 168.189668 
L 88.194697 168.071281 
L 88.208548 167.915834 
L 88.18036 167.845208 
L 88.209063 167.755495 
L 88.234188 167.687329 
L 88.227006 167.604799 
L 88.19816 167.530052 
L 88.198527 167.526713 
L 88.202109 167.494109 
L 88.319552 167.388628 
L 88.541218 167.313738 
L 88.580394 167.282116 
L 88.62226 167.192775 
L 88.869137 167.211719 
L 89.138564 167.210574 
L 89.214284 167.197325 
L 89.300392 167.22162 
L 89.371104 167.259337 
L 89.678705 167.198698 
L 89.78247 167.233668 
L 89.835668 167.229003 
L 90.118888 167.105837 
L 90.195724 167.103204 
L 90.298401 166.942893 
L 90.334487 166.845882 
L 90.429981 166.701911 
L 90.591151 166.642818 
L 90.639628 166.639126 
L 90.794244 166.395569 
L 90.775443 166.278755 
L 90.790266 166.242555 
L 90.886762 166.145315 
L 90.95341 166.10156 
L 91.100157 166.119074 
L 91.271858 166.118644 
L 91.303622 166.094921 
L 91.854867 166.009958 
L 92.070179 166.063157 
L 92.256789 165.949348 
L 92.347533 165.929259 
L 92.510248 165.8558 
L 92.516572 165.834337 
L 92.581361 165.81027 
L 92.641084 165.819599 
L 92.638337 165.817911 
L 92.641313 165.819027 
L 92.728079 165.781768 
L 93.046841 165.565425 
L 93.071136 165.503413 
L 93.256373 165.39816 
L 93.390929 165.382593 
L 93.442697 165.431413 
L 93.67867 165.479117 
L 93.749297 165.475368 
L 93.839926 165.433387 
L 94.001983 165.395985 
L 94.120656 165.448697 
L 94.184271 165.501724 
L 94.2472 165.516204 
L 94.288465 165.514487 
L 94.378779 165.475282 
L 94.473243 165.457311 
L 95.155238 165.674426 
L 95.33581 165.714891 
L 95.467275 165.848016 
L 95.629532 165.865873 
L 95.736845 165.842407 
L 95.968154 165.726166 
L 96.127149 165.594528 
L 96.240214 165.47491 
L 96.378004 165.392694 
L 96.537113 165.383623 
L 96.571169 165.333406 
L 96.59097 165.304211 
L 96.572769 165.236361 
L 96.604763 165.082832 
L 96.684146 165.00179 
L 96.764931 164.871555 
L 96.775691 164.816382 
L 96.882288 164.633778 
L 97.068612 164.391136 
L 97.116831 164.363206 
L 97.299778 164.315073 
L 97.420426 164.154962 
L 97.459402 164.056635 
L 97.582168 163.992677 
L 97.702673 163.973017 
L 97.793875 163.904594 
L 97.824295 163.813393 
L 97.770896 163.635339 
L 97.816683 163.364911 
L 97.847074 163.266068 
L 97.900301 163.205258 
L 98.333873 163.019506 
L 98.379174 162.962015 
L 98.394398 162.878397 
L 98.379174 162.810003 
L 98.341171 162.74158 
L 98.257552 162.650379 
L 98.265164 162.589568 
L 98.318363 162.513534 
L 98.318363 162.437527 
L 98.241098 162.320742 
L 98.173162 162.023529 
L 98.037118 161.814226 
L 98.029534 161.61657 
L 98.04473 161.494949 
L 98.067537 161.464558 
L 98.189158 161.456945 
L 98.272777 161.418942 
L 98.303168 161.380939 
L 98.325975 161.335324 
L 98.322083 161.155983 
L 98.413886 160.944562 
L 98.415092 160.944932 
L 98.458471 160.958213 
L 98.581179 160.942244 
L 98.830889 160.827491 
L 99.110589 160.727161 
L 99.210548 160.747421 
L 99.249209 160.7882 
L 99.495056 160.877914 
L 99.728855 160.830439 
L 99.806263 160.868127 
L 100.052081 161.041287 
L 100.088281 161.085786 
L 100.280757 161.233821 
L 100.371072 161.291655 
L 100.404811 161.2928 
L 100.487456 161.384688 
L 100.5869 161.590443 
L 100.607189 161.610245 
L 100.771192 161.548805 
L 100.916078 161.468249 
L 100.974142 161.455658 
L 101.089782 161.457747 
L 101.15002 161.404949 
L 101.15354 161.373012 
L 101.067633 161.224577 
L 101.0561 161.179019 
L 101.065343 161.149544 
L 101.220446 160.971634 
L 101.591491 160.742471 
L 101.656565 160.540208 
L 101.651844 160.445801 
L 101.675309 160.406453 
L 101.716832 160.375633 
L 101.869474 160.320402 
L 101.950917 160.17543 
L 101.907162 160.120829 
L 101.844463 160.094902 
L 101.795986 160.107121 
L 101.753347 160.101484 
L 101.646063 160.008966 
L 101.653679 159.743789 
L 101.654391 159.719021 
L 101.822371 159.587842 
L 101.845493 159.459352 
L 101.882867 159.407556 
L 101.919554 159.370583 
L 102.223921 159.287595 
L 102.401345 159.253255 
L 102.535844 159.250364 
L 102.661758 159.201716 
L 103.182583 158.869761 
L 103.29705 158.844006 
L 103.377177 158.852591 
L 103.637589 158.720954 
L 103.654759 158.679488 
L 103.649036 158.603625 
L 103.660483 158.554977 
L 103.880832 158.512052 
L 104.003884 158.446233 
L 104.063979 158.389 
L 104.413104 158.268809 
L 104.507539 158.171512 
L 104.530432 158.085662 
L 104.564772 158.054184 
L 104.86811 157.931103 
L 104.999747 157.859561 
L 105.162863 157.799466 
L 105.317851 157.752792 
L 105.387504 157.764553 
L 105.520572 157.719339 
L 105.709443 157.576255 
L 105.89259 157.490405 
L 106.032812 157.493266 
L 106.144418 157.596287 
L 106.422029 157.767987 
L 106.462092 157.822359 
L 106.439199 157.90821 
L 106.436337 158.0284 
L 106.568003 158.045541 
L 106.679608 158.088466 
L 106.779767 158.200072 
L 106.873802 158.233639 
L 106.934927 158.302634 
L 106.990901 158.395925 
L 107.065534 158.461228 
L 107.10285 158.526532 
L 107.084192 158.629152 
L 106.953585 158.750429 
L 106.832307 158.853078 
L 106.61668 159.195935 
L 106.559447 159.23886 
L 106.545138 159.2732 
L 106.525106 159.364774 
L 106.583313 159.545231 
L 106.595446 159.559883 
L 106.757417 159.5976 
L 106.834826 159.73642 
L 106.763255 159.818636 
L 106.644639 160.104918 
L 106.62412 160.191455 
L 106.644524 160.30618 
L 106.734037 160.345842 
L 106.945544 160.38582 
L 107.103222 160.365187 
L 107.185724 160.335483 
L 107.499765 160.359178 
L 107.593742 160.398125 
L 107.623532 160.539521 
L 107.666686 160.564446 
L 107.886091 160.645489 
L 108.161642 160.692735 
L 108.295625 160.500259 
L 108.39607 160.395865 
L 108.602655 160.289439 
L 108.693942 160.257359 
L 108.823004 160.235267 
L 108.922333 160.16942 
L 109.16815 160.133706 
L 109.226586 160.099452 
L 109.347234 160.061535 
L 109.457294 160.069948 
L 109.615545 160.018123 
L 109.661728 160.012501 
L 109.663736 160.012257 
L 109.811913 159.872578 
L 110.17692 159.615142 
L 110.178065 159.612939 
L 110.256274 159.578169 
L 110.285234 159.549066 
L 110.290042 159.479871 
L 110.324554 159.435829 
L 110.556407 159.37044 
L 110.832043 159.187293 
L 110.943649 159.150062 
L 112.202707 157.290984 
L 112.408827 156.986635 
L 112.551911 156.866445 
L 112.966854 156.600309 
L 113.238713 156.531629 
L 113.287362 156.43147 
L 113.378935 156.351343 
L 113.49841 156.329051 
L 113.636257 156.292936 
L 113.797856 156.208116 
L 113.813939 156.179643 
L 113.962746 156.065176 
L 114.111553 156.02225 
L 114.15548 156.056018 
L 114.200265 156.076622 
L 114.489323 156.085207 
L 114.617154 156.02723 
L 114.706209 156.01315 
L 114.820905 155.957748 
L 114.927388 155.952368 
L 115.021595 155.913478 
L 115.293482 155.753224 
L 115.333546 155.695991 
L 115.45946 155.615864 
L 115.608267 155.552907 
L 115.842924 155.48995 
L 115.871541 155.498535 
L 116.103365 155.687406 
L 116.152014 155.695991 
L 116.283651 155.670236 
L 116.372363 155.721746 
L 116.435434 155.738057 
L 116.523002 155.721631 
L 116.58985 155.650204 
L 116.675729 155.547184 
L 116.791169 155.541031 
L 116.878908 155.547184 
L 116.918972 155.590109 
L 117.042939 155.628598 
L 117.130507 155.573883 
L 117.162214 155.529985 
L 117.213724 155.449858 
L 117.322926 155.390392 
L 117.360757 155.369302 
L 117.387542 155.345779 
L 117.406773 155.317963 
L 117.593326 155.177684 
L 117.691653 155.080702 
L 117.738012 154.944457 
L 117.77178 154.883246 
L 117.874829 154.85689 
L 118.006437 154.820261 
L 118.080869 154.823122 
L 118.263416 154.878782 
L 118.350983 154.938992 
L 118.424271 155.003379 
L 118.535904 155.080645 
L 118.633201 155.114985 
L 118.75053 155.141512 
L 118.839242 155.212253 
L 118.870721 155.24087 
L 118.902228 155.260902 
L 119.007766 155.272863 
L 119.100799 155.256437 
L 119.151193 155.215115 
L 119.199842 155.183636 
L 119.282831 155.177913 
L 119.522238 155.179802 
L 119.663462 155.134959 
L 119.892396 155.094867 
L 120.001169 155.246536 
L 120.095604 155.47547 
L 120.218656 155.687205 
L 120.218685 155.833151 
L 120.17782 155.951653 
L 120.387523 156.328221 
L 120.487682 156.385454 
L 120.82825 156.379702 
L 121.002812 156.305299 
L 121.108723 156.279515 
L 121.217467 156.333887 
L 121.306179 156.348195 
L 121.666778 156.339582 
L 121.809806 156.34698 
L 121.832756 156.348167 
L 121.844202 156.325273 
L 122.204802 156.167881 
L 122.370779 156.136374 
L 122.522448 155.918887 
L 122.522448 155.827313 
L 122.57682 155.744325 
L 122.86874 155.784388 
L 123.04044 155.907411 
L 123.177801 155.927443 
L 123.303743 155.815838 
L 123.372423 155.675616 
L 123.363838 155.646999 
L 125.267969 152.84516 
L 125.874759 152.045723 
L 126.042948 151.794592 
L 126.043683 151.793494 
L 126.469579 151.157281 
L 126.75501 150.730897 
L 127.053655 150.575422 
L 127.143283 150.582948 
L 127.352929 150.525429 
L 127.577885 150.394535 
L 127.669459 150.328488 
L 127.722285 150.239347 
L 128.04245 149.924019 
L 128.208856 149.793011 
L 128.393263 149.715374 
L 128.543529 149.63353 
L 128.668585 149.548796 
L 128.899407 149.433814 
L 129.205864 149.391461 
L 129.48027 149.327159 
L 129.61331 149.239735 
L 129.826304 149.126641 
L 129.984927 149.133051 
L 130.081995 149.22039 
L 130.130529 149.307757 
L 130.208166 149.395095 
L 130.305206 149.424227 
L 130.384159 149.424742 
L 130.479911 149.463031 
L 130.737319 149.614013 
L 130.819592 149.686271 
L 130.926361 149.67657 
L 130.974895 149.695972 
L 131.052532 149.715374 
L 131.153893 149.728423 
L 131.342134 149.719495 
L 131.438887 149.707418 
L 131.580912 149.650786 
L 131.712492 149.618334 
L 131.824784 149.609864 
L 131.968956 149.633415 
L 132.109836 149.682608 
L 132.219409 149.753463 
L 132.333648 149.812442 
L 132.498366 149.782022 
L 132.54049 149.686872 
L 132.559577 149.590834 
L 132.488436 149.471931 
L 132.314217 149.375693 
L 132.188046 149.346561 
L 132.100707 149.268924 
L 132.061874 149.22039 
L 132.032771 149.113649 
L 132.02307 149.045713 
L 132.02307 148.948645 
L 131.964835 148.817008 
L 131.819004 148.669088 
L 131.770727 148.599263 
L 131.790129 148.502195 
L 131.831624 148.414942 
L 131.858066 148.269283 
L 131.838663 148.201347 
L 131.809532 148.152813 
L 131.741767 148.082215 
L 131.625154 148.007239 
L 131.57662 147.881068 
L 131.57662 147.735495 
L 131.615424 147.619024 
L 131.729319 147.545021 
L 131.854889 147.485499 
L 132.117877 147.28189 
L 132.197861 147.103751 
L 132.226878 146.978467 
L 132.275412 146.881399 
L 132.275412 146.823164 
L 132.265683 146.745526 
L 132.275412 146.658188 
L 132.304516 146.580551 
L 132.302656 146.468001 
L 132.279619 146.399693 
L 132.285114 146.289375 
L 132.475215 146.146377 
L 132.680425 146.089287 
L 132.733452 146.096527 
L 132.769166 146.074149 
L 132.845401 145.983405 
L 132.867665 145.829704 
L 132.859194 145.795936 
L 132.817643 145.766289 
L 132.788854 145.501899 
L 132.828346 145.306103 
L 132.801789 145.254221 
L 132.789598 145.175582 
L 132.760867 145.144676 
L 132.713278 145.121869 
L 132.704406 145.051557 
L 132.713421 145.040397 
L 132.769309 144.94888 
L 132.788769 144.9253 
L 132.773344 144.849265 
L 132.775777 144.823396 
L 132.727071 144.735943 
L 132.722635 144.69648 
L 132.708556 144.659994 
L 132.695392 144.630462 
L 132.638445 144.483743 
L 132.494502 144.318224 
L 132.474785 144.14618 
L 132.483342 144.028966 
L 132.712305 144.011223 
L 132.712305 143.928664 
L 132.781643 143.795739 
L 132.887382 143.660554 
L 132.996526 143.572672 
L 133.022711 143.46513 
L 132.993607 143.358361 
L 132.935372 143.271022 
L 132.925671 143.183655 
L 132.990631 143.098664 
L 133.099375 143.121557 
L 133.285384 143.101525 
L 133.368372 143.04143 
L 133.362649 142.935891 
L 133.311139 142.806773 
L 133.279632 142.617902 
L 133.354093 142.543527 
L 135.546165 142.574948 
L 137.832702 142.760929 
L 138.439406 142.78096 
L 138.738279 142.803682 
L 139.109066 142.763762 
L 140.087817 142.866753 
L 142.016701 142.928251 
L 142.632019 142.92682 
L 142.633816 142.926808 
L 143.942981 142.918206 
L 145.236688 142.949685 
L 145.594025 142.969688 
L 147.686025 143.006861 
L 147.843417 143.032616 
L 148.684807 143.075513 
L 149.171321 143.084098 
L 150.361864 143.138441 
L 150.972545 143.147255 
L 151.059025 143.148514 
L 152.416662 143.221401 
L 152.634149 143.244294 
L 154.288598 143.256685 
L 154.335816 143.260634 
L 155.555234 143.298037 
L 155.556985 143.298109 
L 157.380167 143.373016 
L 157.389139 143.373385 
L 157.404935 143.372354 
L 158.354124 143.324879 
L 159.219982 143.339359 
L 160.459431 143.280924 
L 161.189731 143.281782 
L 162.366508 143.352596 
L 162.662979 143.370437 
L 163.480302 143.393702 
L 163.844591 143.409044 
L 166.738451 143.530917 
L 168.765475 143.616284 
L 168.979299 143.62567 
L 169.008574 143.628045 
L 172.910813 143.806785 
L 174.827563 143.809819 
L 174.909264 143.813224 
L 176.448045 143.828362 
L 176.508168 143.829192 
L 177.863229 143.84476 
L 179.829901 143.847889 
L 180.577358 143.849078 
L 180.579361 143.849081 
L 181.582063 143.848963 
L 182.289441 143.848881 
L 182.304665 143.849653 
L 183.646759 143.85045 
L 184.087976 143.850712 
L 184.462595 143.8421 
L 184.585908 143.839265 
L 189.520061 143.863179 
L 190.88025 143.869771 
L 190.894043 143.869771 
L 195.277557 143.898792 
L 195.363409 143.899361 
L 196.525671 143.891149 
L 197.214513 143.886283 
L 197.222354 143.885625 
L 200.15757 143.886808 
L 202.829722 143.887885 
L 203.725021 143.877767 
L 203.981833 143.874865 
L 204.004555 143.875523 
L 206.017882 143.870742 
L 206.029191 143.870715 
L 206.368528 143.87661 
L 206.406932 143.875609 
L 210.572424 143.860491 
L 210.783064 143.859726 
L 210.818463 143.858839 
L 211.628976 143.860985 
L 211.635987 143.860013 
L 212.396878 143.86399 
L 212.421975 143.864047 
L 215.805707 143.871459 
L 215.806536 143.871459 
L 216.689106 143.871059 
L 216.890511 143.867482 
L 217.585042 143.866043 
L 219.418544 143.862245 
L 219.611249 143.862931 
L 219.853073 143.866762 
L 221.271393 143.88923 
L 223.340128 143.891749 
L 223.434305 143.892407 
L 223.999687 143.890003 
L 225.114109 143.854461 
L 225.120691 143.854203 
L 225.516232 143.849682 
L 225.516318 143.849681 
L 225.967547 143.843587 
L 226.106796 143.844187 
L 229.321737 143.811501 
L 229.323921 143.811479 
L 231.534022 143.796254 
L 231.568906 143.794251 
L 234.777961 143.810391 
L 234.789751 143.811421 
L 237.270818 143.801204 
L 237.465161 143.800404 
L 237.478954 143.801062 
L 241.461463 143.78704 
L 241.959795 143.784922 
L 242.162316 143.784436 
L 242.369308 143.783173 
L 245.257412 143.765556 
L 245.755837 143.762515 
L 258.714388 143.78486 
L 261.339094 143.789386 
L 261.767802 143.744086 
L 262.354875 143.711148 
L 262.502537 143.739336 
L 262.506256 143.740045 
L 262.840473 143.803781 
L 263.638279 143.806413 
L 264.489628 143.788099 
L 269.612429 143.811307 
L 269.612077 143.810689 
L 269.576086 143.747463 
L 269.585501 143.613078 
L 269.61675 143.574417 
L 272.730797 143.61697 
L 273.468595 143.615454 
L 274.373399 143.623409 
L 274.698171 143.606125 
L 279.357924 143.613021 
L 279.860376 143.619441 
L 280.325428 143.625384 
L 280.329736 143.625348 
L 281.762111 143.61337 
L 282.512292 143.607098 
L 285.04703 143.613766 
L 286.861041 143.618538 
L 286.863557 143.618544 
L 292.325433 143.616544 
L 294.832295 143.615625 
L 295.061257 143.618487 
L 297.038733 143.618487 
L 297.093105 143.618487 
L 297.158952 143.618487 
L 297.176122 143.618487 
L 298.057547 143.615597 
L 298.360884 143.615597 
L 298.429565 143.615597 
L 298.552645 143.615597 
L 298.589847 143.615597 
L 298.65903 143.614853 
L 298.855983 143.612735 
L 298.881738 143.615597 
L 298.91894 143.612735 
L 299.07347 143.612735 
L 299.09064 143.612735 
L 299.242338 143.612735 
L 299.268093 143.612735 
L 299.631526 143.612735 
L 299.921786 145.060715 
L 300.549237 147.278657 
L 301.013973 149.140778 
L 301.652842 151.064626 
L 302.313332 152.747935 
L 302.336783 152.807701 
L 302.705166 153.515537 
L 303.312013 154.95848 
L 303.887811 156.120549 
L 304.505017 157.155818 
L 305.598321 158.78889 
L 308.137858 163.285413 
L 308.638508 164.462364 
L 309.026552 165.171401 
L 309.19044 165.458112 
L 309.092685 165.665841 
L 308.897204 165.678061 
L 308.752117 165.516176 
L 308.646578 165.239108 
L 308.330535 165.117916 
L 308.150965 164.67221 
L 307.96052 164.436151 
L 307.591736 163.811246 
L 307.237689 163.170918 
L 306.617879 162.454955 
L 306.605974 161.974995 
L 306.422913 161.530262 
L 306.227661 161.204202 
L 305.922606 160.680601 
L 305.550044 160.243166 
L 305.354134 160.192514 
L 305.316675 159.991825 
L 305.218748 159.795971 
L 305.01534 159.547378 
L 303.734654 159.283703 
L 303.636728 159.072769 
L 303.65178 158.771434 
L 303.779869 158.447492 
L 303.764788 158.304351 
L 303.644254 158.213951 
L 303.350446 158.206425 
L 303.252519 158.03315 
L 303.222386 157.784556 
L 303.282653 157.460615 
L 303.275126 157.219547 
L 302.973792 155.908728 
L 302.85964 155.658188 
L 302.823039 155.36252 
L 302.725398 155.01763 
L 302.212872 153.953717 
L 301.944418 153.353022 
L 301.742241 152.89378 
L 301.711488 152.868155 
L 301.592232 152.768782 
L 301.444512 152.624182 
L 301.218497 152.39064 
L 301.210971 152.285188 
L 301.316452 151.946193 
L 301.135651 151.20791 
L 300.894584 151.027109 
L 300.578168 151.012057 
L 300.465161 150.944235 
L 300.254227 150.627848 
L 300.367234 149.972438 
L 300.638435 149.671104 
L 300.645961 149.46017 
L 300.514153 148.981783 
L 300.318271 148.755797 
L 300.197737 148.725663 
L 300.077203 148.514729 
L 300.04707 148.364062 
L 300.077203 147.475111 
L 299.715602 147.053242 
L 299.248519 146.902575 
L 299.022533 146.736856 
L 298.932132 146.194453 
L 298.691065 145.576703 
L 298.48013 145.471251 
L 298.314382 145.45617 
L 298.193848 145.471251 
L 297.997995 145.576703 
L 297.90625 145.556929 
L 297.673309 145.334119 
L 296.969452 145.207519 
L 296.612429 145.217649 
L 296.53379 145.479092 
L 296.118904 145.238482 
L 296.383638 144.699428 
L 296.220923 144.330987 
L 295.93527 144.259932 
L 295.183594 144.289922 
L 295.071445 144.593374 
L 294.608941 144.762814 
L 294.912479 145.566058 
L 295.248239 146.249312 
L 295.473711 146.568618 
L 295.714807 146.728814 
L 296.116672 146.873501 
L 296.39766 146.911961 
L 296.906037 147.433473 
L 297.524416 147.3874 
L 297.645465 147.26638 
L 297.752835 147.136231 
L 297.876603 147.10873 
L 298.013048 147.188857 
L 298.218859 148.241325 
L 298.203406 148.408532 
L 298.015623 148.8484 
L 298.020774 149.018184 
L 298.180255 149.254844 
L 298.249708 149.290844 
L 298.82336 150.227185 
L 299.025795 150.976972 
L 299.199127 151.227083 
L 299.469068 151.281569 
L 299.691936 151.227083 
L 299.818222 151.343467 
L 299.781077 151.749596 
L 299.622597 152.148285 
L 299.714228 152.633654 
L 299.870218 153.002638 
L 300.152523 153.175999 
L 300.452169 153.646487 
L 300.370468 153.827259 
L 300.407612 154.305216 
L 300.865738 154.842582 
L 300.905344 155.196714 
L 301.165384 155.456726 
L 301.539291 156.147621 
L 301.78943 157.019316 
L 301.722553 157.321423 
L 301.556432 157.294809 
L 300.517501 156.723161 
L 300.182656 156.454907 
L 299.61012 155.731705 
L 299.652158 155.326835 
L 299.721096 154.816998 
L 299.175289 154.027719 
L 298.383434 153.302285 
L 298.049019 152.38755 
L 297.262172 151.994127 
L 296.989119 152.057623 
L 296.839217 152.092482 
L 297.055617 152.27935 
L 297.390032 153.007217 
L 297.085121 153.705552 
L 297.645752 154.197331 
L 298.196567 154.433391 
L 298.545377 154.675002 
L 298.115295 154.655972 
L 297.982914 154.692086 
L 297.571033 154.636942 
L 295.964374 154.277687 
L 295.340729 154.040311 
L 295.284869 153.98448 
L 294.994409 153.591915 
L 294.572254 153.360405 
L 294.272637 152.815657 
L 293.495062 152.564602 
L 292.0492 151.1384 
L 291.208468 151.045252 
L 290.541183 150.840986 
L 290.505453 150.991592 
L 290.426286 151.325296 
L 290.922472 151.767024 
L 291.548951 151.82151 
L 292.511475 153.243277 
L 293.534381 153.666204 
L 293.953789 154.645355 
L 294.112039 154.933926 
L 294.13064 155.101478 
L 293.988873 155.259156 
L 293.775735 155.361947 
L 293.178131 155.487546 
L 290.705901 155.841536 
L 289.90672 155.438125 
L 289.296897 154.838146 
L 289.046529 154.497549 
L 288.733319 154.361362 
L 288.556267 154.10261 
L 288.136259 153.9431 
L 288.005334 153.963194 
L 287.984304 153.966422 
L 287.900199 154.080804 
L 288.283893 154.456685 
L 288.74694 154.742681 
L 289.287053 155.634837 
L 290.340493 156.3059 
L 289.628394 156.643234 
L 288.995591 156.552834 
L 288.242255 156.372033 
L 286.385485 155.556169 
L 285.136364 155.418465 
L 284.56606 154.701816 
L 283.011827 153.864404 
L 282.822899 153.939179 
L 282.775767 154.120152 
L 285.069944 155.9275 
L 285.913395 155.910244 
L 286.241142 156.199846 
L 287.277985 156.477515 
L 287.127318 156.718582 
L 286.569863 156.944569 
L 286.328795 156.974702 
L 286.1781 156.899383 
L 285.665831 156.899383 
L 284.068758 157.14045 
L 284.040665 157.217699 
L 284.008491 157.30617 
L 283.782505 157.637638 
L 283.149702 158.149935 
L 282.908635 158.255388 
L 282.6977 158.571804 
L 282.682619 158.677256 
L 281.748483 158.858057 
L 281.108154 159.212132 
L 280.158936 159.091598 
L 279.706934 159.091598 
L 279.345333 159.197051 
L 279.209747 159.166918 
L 278.953598 158.92585 
L 278.546811 158.428663 
L 278.215343 158.293048 
L 277.74826 158.277995 
L 277.13051 158.368396 
L 276.467975 158.125497 
L 275.181336 155.142886 
L 275.239829 153.666175 
L 276.497221 151.736232 
L 276.034261 151.437628 
L 275.9881 151.407855 
L 275.217015 152.396618 
L 274.523409 153.28603 
L 274.30409 155.157481 
L 275.136952 157.468084 
L 276.25664 159.362799 
L 276.377174 159.603867 
L 276.226506 159.859987 
L 275.925172 160.131188 
L 275.789586 160.387337 
L 275.864905 160.748938 
L 276.026436 160.954505 
L 276.030653 160.959872 
L 276.542922 161.231073 
L 276.723723 161.276288 
L 277.025057 161.231073 
L 278.426277 161.185887 
L 278.546811 161.095487 
L 279.028946 161.03522 
L 280.701338 160.974953 
L 281.304007 160.809205 
L 281.605341 160.658538 
L 282.268277 160.49279 
L 282.64496 160.221588 
L 284.43036 159.822327 
L 284.671427 159.942861 
L 284.897442 160.183929 
L 284.912495 160.440077 
L 285.375626 160.956111 
L 285.439844 161.027665 
L 286.087699 160.997532 
L 286.735583 160.892079 
L 288.031321 160.153795 
L 289.703742 159.716875 
L 290.773465 159.566207 
L 293.145451 159.573819 
L 293.447816 159.664134 
L 294.050485 159.573734 
L 295.135318 160.206536 
L 295.406519 160.507871 
L 295.421571 160.598271 
L 295.255851 161.261207 
L 295.416019 161.641524 
L 294.764616 162.52395 
L 294.018091 163.567804 
L 294.382039 164.905465 
L 294.487119 167.445318 
L 294.785306 168.234883 
L 294.554872 168.957923 
L 294.500054 169.129929 
L 294.677793 169.351909 
L 294.972173 169.405337 
L 295.426089 168.849545 
L 295.454137 168.815202 
L 296.201635 166.007068 
L 296.194538 164.039007 
L 296.461189 162.315878 
L 296.792657 162.255611 
L 296.89811 162.195344 
L 297.319978 161.652942 
L 297.711713 161.426955 
L 297.832247 161.411874 
L 297.907595 161.321474 
L 297.922647 161.080406 
L 297.60626 160.779072 
L 297.440512 160.733857 
L 297.350112 160.643457 
L 297.335059 160.522923 
L 297.591179 160.372256 
L 298.706117 160.025735 
L 299.278681 159.980521 
L 299.821083 159.995602 
L 300.122418 160.055869 
L 301.282541 160.538004 
L 301.403075 160.688671 
L 301.523609 160.959872 
L 302.050959 161.216021 
L 302.050959 161.426955 
L 302.156411 161.713209 
L 302.442693 162.195344 
L 302.924829 162.85828 
L 302.894695 163.054161 
L 303.030281 163.596563 
L 303.422016 163.973217 
L 303.63295 164.447197 
L 303.648031 164.771768 
L 303.478534 165.363992 
L 303.317679 165.717838 
L 303.285514 165.926941 
L 303.398121 166.023436 
L 303.70372 166.731129 
L 303.864546 167.551428 
L 303.977153 167.728337 
L 304.041483 168.00177 
L 304.025401 168.13046 
L 303.221184 168.757739 
L 303.205101 169.240247 
L 303.349845 169.722782 
L 303.558947 169.996216 
L 303.558947 170.076629 
L 303.060358 170.526971 
L 302.609987 170.719991 
L 302.175728 171.041672 
L 302.256141 171.411601 
L 301.628861 171.556373 
L 300.486881 171.652869 
L 300.068704 171.427683 
L 299.843519 171.202527 
L 299.550672 171.314086 
L 298.830228 171.588538 
L 298.492464 171.990632 
L 298.444216 172.103239 
L 298.444216 172.360561 
L 298.219031 172.585746 
L 297.382649 172.698353 
L 297.253988 172.794849 
L 297.125298 172.92351 
L 296.851865 173.357798 
L 296.835783 173.550789 
L 296.916224 173.775975 
L 296.884059 173.856388 
L 296.192421 174.129821 
L 295.951181 174.387171 
L 295.983347 174.724935 
L 295.886822 175.014451 
L 295.549059 175.336132 
L 295.468646 175.609565 
L 295.500811 175.882998 
L 295.404315 176.059907 
L 295.227378 176.236844 
L 295.098717 176.301175 
L 294.760953 176.140349 
L 294.391024 176.092072 
L 294.117591 176.252927 
L 294.004984 176.397671 
L 294.004984 176.590691 
L 294.085426 176.751545 
L 294.117591 177.008867 
L 293.844158 177.378825 
L 293.168631 177.652229 
L 292.300083 177.941745 
L 292.02665 177.990022 
L 291.737134 178.29562 
L 291.737134 178.585107 
L 291.544114 178.649466 
L 291.093772 178.585136 
L 290.997277 178.488611 
L 290.611237 178.359951 
L 289.935709 178.359951 
L 289.099327 177.973939 
L 288.584655 177.973939 
L 288.455965 178.134765 
L 288.230808 178.16693 
L 287.748273 178.1026 
L 287.104911 177.813084 
L 286.461549 177.780919 
L 286.236363 177.813084 
L 286.075537 178.070435 
L 285.818187 178.1026 
L 285.367816 178.006104 
L 285.110494 177.813084 
L 284.885309 177.780919 
L 284.724454 177.780919 
L 284.402773 178.006104 
L 284.145422 177.973939 
L 284.113257 177.877415 
L 283.791576 177.716589 
L 283.469895 177.620064 
L 283.341234 177.169722 
L 282.987388 177.008867 
L 282.794368 177.008867 
L 282.601348 177.105392 
L 282.311832 177.362742 
L 281.925821 177.362742 
L 281.539809 177.073226 
L 280.365349 176.238619 
L 279.047346 173.425591 
L 282.184974 173.346895 
L 282.765293 172.235449 
L 282.440886 172.084571 
L 282.342338 172.038737 
L 281.988262 172.589552 
L 279.893229 172.855116 
L 278.644079 172.579708 
L 277.670337 173.386243 
L 278.614575 174.802601 
L 279.223683 176.912372 
L 278.483825 176.912372 
L 275.50648 175.766499 
L 274.099938 176.002559 
L 272.049175 175.171442 
L 268.869137 174.439426 
L 266.506223 173.24851 
L 266.447701 173.951796 
L 268.164049 175.461588 
L 270.302379 175.580662 
L 276.824454 178.097592 
L 278.463432 178.342485 
L 278.580321 178.359951 
L 278.998526 178.456446 
L 279.963569 178.488611 
L 280.124395 178.585136 
L 281.507644 178.778127 
L 282.022345 179.003313 
L 282.311832 179.550179 
L 282.440522 180.064851 
L 282.440522 180.515222 
L 282.151006 181.029894 
L 281.990151 181.094253 
L 281.79716 181.31941 
L 281.764994 181.673285 
L 281.66847 181.898442 
L 281.378954 182.059296 
L 280.896447 182.477473 
L 280.47827 182.992174 
L 280.381746 183.21736 
L 280.47827 183.699867 
L 280.47827 183.925052 
L 280.188755 184.471918 
L 279.867074 184.66491 
L 279.770549 184.890095 
L 279.545393 185.211776 
L 279.352372 185.340437 
L 278.64468 186.048158 
L 278.25864 186.24115 
L 278.001318 186.24115 
L 277.743967 186.369839 
L 277.518782 186.530665 
L 272.892539 189.009936 
L 268.398584 186.626786 
L 267.699227 186.255916 
L 267.627103 186.414591 
L 267.502515 186.688687 
L 267.856619 187.849326 
L 270.256535 189.206647 
L 273.994142 190.26893 
L 276.260255 189.050579 
L 277.653052 188.301757 
L 278.998526 188.235595 
L 279.609723 188.042575 
L 280.381746 187.978244 
L 281.443313 187.785224 
L 281.636305 187.656563 
L 281.764994 187.495708 
L 281.79716 187.013201 
L 282.086675 186.4985 
L 282.247502 185.983799 
L 282.411333 185.834162 
L 282.563803 185.803657 
L 283.356659 186.332208 
L 283.448146 186.586325 
L 283.468464 187.104746 
L 283.65144 187.948397 
L 284.200309 188.354984 
L 284.423949 188.659924 
L 284.50525 188.700589 
L 286.324732 188.822553 
L 286.487361 188.670083 
L 286.395902 188.365143 
L 285.806339 187.511333 
L 285.501399 187.247029 
L 285.399752 187.094559 
L 285.399752 186.992912 
L 285.745357 187.043735 
L 286.711001 187.399499 
L 287.422528 187.714627 
L 287.574998 187.826432 
L 287.564839 188.07039 
L 287.501281 188.153837 
L 287.417692 188.220714 
L 287.350814 188.371181 
L 287.341199 188.670083 
L 287.508121 188.875723 
L 287.940921 189.107175 
L 287.961267 189.310469 
L 287.879938 189.706897 
L 287.696963 189.798385 
L 286.914294 190.560735 
L 286.670337 190.916499 
L 286.273909 191.36375 
L 285.877481 191.648344 
L 285.287947 191.628026 
L 285.03383 191.780496 
L 284.96266 191.922807 
L 284.88943 192.083319 
L 284.766978 192.127961 
L 284.576534 192.066578 
L 284.42083 191.809857 
L 284.093626 191.954944 
L 284.047839 192.532688 
L 284.032415 192.792242 
L 283.943989 192.920645 
L 283.848781 192.948575 
L 283.692333 192.781081 
L 283.539405 192.848531 
L 283.325037 193.177481 
L 282.964552 193.289172 
L 282.576737 194.140721 
L 282.304506 194.552545 
L 281.937525 195.004117 
L 281.463288 195.353728 
L 281.563418 195.658039 
L 281.522725 195.735561 
L 281.155343 195.993456 
L 280.959747 196.371912 
L 280.811198 197.091452 
L 279.05058 196.609517 
L 279.159753 194.636334 
L 278.519453 194.071869 
L 278.067022 194.16038 
L 278.182605 196.172997 
L 276.549962 196.148644 
L 276.552308 196.358691 
L 280.851519 197.94117 
L 283.127324 195.246615 
L 283.24305 194.901812 
L 283.455243 194.711825 
L 283.999448 194.314768 
L 284.306821 193.960979 
L 284.84287 193.4874 
L 285.145635 193.223868 
L 285.450576 193.020575 
L 286.060456 192.492023 
L 286.589036 191.963443 
L 287.986164 190.929291 
L 289.13982 190.11005 
L 290.248319 189.056352 
L 291.24444 188.243178 
L 292.626829 187.0031 
L 293.15541 186.596513 
L 293.826272 185.823974 
L 293.968584 185.783339 
L 294.578464 185.986632 
L 294.720775 186.128915 
L 294.79847 186.302275 
L 293.737732 187.117223 
L 291.898562 188.337757 
L 289.156532 190.695234 
L 286.94955 192.21673 
L 284.757678 194.154943 
L 282.936221 196.161808 
L 281.68813 197.663616 
L 280.825878 198.99584 
L 280.489717 199.763886 
L 279.938844 198.979329 
L 279.978622 198.628516 
L 280.075432 198.555915 
L 280.106338 198.132501 
L 279.244287 197.715011 
L 278.121022 197.36085 
L 277.427924 197.215821 
L 276.864002 196.989577 
L 276.472897 196.771316 
L 275.973849 196.789688 
L 275.023257 196.670042 
L 273.79059 196.664061 
L 272.433898 196.754976 
L 269.892616 197.066956 
L 267.488665 197.444612 
L 266.31987 197.686108 
L 264.11463 198.275449 
L 263.293991 198.494761 
L 262.353702 198.806769 
L 262.172342 198.884861 
L 261.224484 199.292997 
L 260.313613 199.794506 
L 257.980402 201.28066 
L 253.962666 203.118428 
L 253.136386 203.555006 
L 252.387649 204.001855 
L 251.27209 204.667625 
L 250.545796 205.145869 
L 249.037378 206.317754 
L 248.275056 206.823898 
L 247.543812 207.436984 
L 246.797029 208.168571 
L 246.722805 208.230392 
L 246.029699 208.807669 
L 245.346159 209.577603 
L 245.3306 209.597419 
L 243.480719 211.953453 
L 243.120834 212.57933 
L 242.304055 214.340005 
L 242.187956 214.441594 
L 242.079871 214.662172 
L 241.01032 217.416249 
L 240.655758 218.173391 
L 240.391525 218.641192 
L 240.122284 219.117859 
L 239.82716 220.104307 
L 239.732982 220.804703 
L 239.434394 221.056473 
L 238.399641 220.650487 
L 238.307838 220.573164 
L 238.323492 220.389531 
L 238.058415 219.80386 
L 235.862365 219.296142 
L 234.674111 219.120234 
L 233.507463 219.060311 
L 230.690801 219.114912 
L 227.605427 219.413041 
L 224.0261 220.455578 
L 223.109076 220.867745 
L 221.984695 219.900127 
L 220.967254 219.024511 
L 220.811665 218.894305 
L 219.982712 218.20057 
L 219.981917 218.199905 
L 219.945722 218.169614 
L 219.633771 217.908543 
L 218.482204 216.914168 
L 218.271298 216.759065 
L 218.212204 216.700573 
L 216.573122 215.312374 
L 215.8635 214.711361 
L 215.364722 214.288924 
L 214.114885 213.23039 
L 213.560807 212.761103 
L 213.133156 212.4022 
L 212.555386 211.91731 
L 211.01549 210.624977 
L 210.097807 209.854814 
L 207.939846 208.043773 
L 207.937704 208.041973 
L 207.937381 208.041702 
L 205.87735 206.310256 
L 205.641462 206.11177 
L 204.51814 205.167474 
L 204.480881 205.130587 
L 204.477633 205.127939 
L 204.282252 204.968645 
L 203.815287 204.57253 
L 203.795452 204.555705 
L 202.968628 203.854365 
L 202.829064 203.735978 
L 201.771961 202.794773 
L 201.201057 202.286482 
L 200.726133 201.879895 
L 200.680203 201.832734 
L 200.494938 201.672853 
L 199.7226 201.000673 
L 197.097957 198.835014 
L 196.819458 198.606338 
L 196.775045 198.574888 
L 196.768037 198.569966 
L 196.56331 198.426167 
L 196.480836 198.372453 
L 196.261086 198.160288 
L 196.260316 198.159544 
L 195.948507 197.896871 
L 195.123143 197.22432 
L 195.088059 197.195531 
L 194.738275 196.908665 
L 194.109795 196.393232 
L 193.902695 196.232034 
L 191.902784 194.605486 
L 191.827264 194.543187 
L 190.651602 193.577886 
L 190.285622 193.573508 
L 190.225155 193.572363 
L 190.14659 193.571323 
L 188.682282 193.551931 
L 188.659131 193.550929 
L 187.860609 193.54326 
L 187.838346 193.543918 
L 185.060059 193.559743 
L 184.466261 193.547467 
L 183.436836 193.526181 
L 183.43105 193.526061 
L 183.419846 193.525818 
L 181.344229 193.480675 
L 180.979861 193.472758 
L 180.57378 193.463934 
L 180.135944 193.453317 
L 179.273206 193.435031 
L 179.149839 193.435604 
L 178.554639 193.42327 
L 178.526823 193.42327 
L 177.606079 193.404268 
L 176.802435 193.387699 
L 174.786298 193.346119 
L 174.664534 193.343601 
L 173.243225 193.324771 
L 172.64047 193.316787 
L 172.179243 193.310678 
L 171.341899 193.299588 
L 169.916698 193.28073 
L 169.426121 193.269855 
L 169.385514 193.266593 
L 169.352519 193.267766 
L 169.171775 193.261213 
L 168.915913 193.256692 
L 168.517482 193.246275 
L 168.434665 193.244444 
L 167.473886 193.234829 
L 167.285587 193.23294 
L 167.057397 193.21969 
L 165.286907 193.213395 
L 165.285408 193.213377 
L 163.582349 193.193563 
L 163.445819 193.191703 
L 163.443415 193.192333 
L 162.911744 193.182288 
L 162.856085 193.181601 
L 162.156697 193.175722 
L 161.783729 193.172587 
L 160.556857 193.162251 
L 159.273524 193.151439 
L 159.104113 193.14998 
L 158.536614 193.147433 
L 158.552238 193.030448 
L 158.606267 192.626236 
L 158.852132 190.786377 
L 158.980202 189.828003 
L 158.281409 189.052145 
L 158.272166 189.041987 
L 157.849325 188.571355 
L 157.310632 187.943446 
L 156.447457 186.937315 
L 156.048294 186.472044 
L 156.037111 186.459009 
L 155.426271 185.803426 
L 155.4171 185.793583 
L 154.60447 184.916594 
L 153.948574 185.339264 
L 153.196239 185.770547 
L 153.05281 185.852771 
L 152.836439 185.97681 
L 152.075174 186.41322 
L 151.555669 186.711037 
L 151.311597 186.40933 
L 151.149139 186.269824 
L 151.093251 186.203662 
L 151.082348 185.895831 
L 151.105041 185.525559 
L 151.252646 185.235185 
L 151.309851 185.162469 
L 151.411584 185.110959 
L 151.593002 185.072833 
L 151.67357 185.055901 
L 151.742565 185.011144 
L 151.804148 184.898279 
L 151.813735 184.841504 
L 151.798454 184.735221 
L 151.691026 184.483251 
L 151.627812 184.376024 
L 151.300093 184.240123 
L 151.282436 184.222781 
L 151.277657 184.177481 
L 151.374325 183.876833 
L 151.395358 183.836369 
L 151.472623 183.757358 
L 151.500782 183.743851 
L 151.516149 183.719298 
L 151.494544 183.701298 
L 150.532219 183.639199 
L 149.615281 183.58002 
L 149.571068 183.578017 
L 148.787913 183.542761 
L 145.893299 183.412354 
L 145.826679 183.409292 
L 145.152681 183.383343 
L 145.032276 183.378707 
L 144.424859 183.355321 
L 143.355525 183.314162 
L 142.252052 183.271689 
L 142.249441 183.271588 
L 139.990549 183.181989 
L 139.796784 183.174291 
L 139.538947 183.163875 
L 138.623411 183.126845 
L 138.598686 183.128819 
L 137.142523 183.075535 
L 136.097124 183.037303 
L 135.147162 182.996553 
L 134.23629 182.957491 
L 133.26063 182.915653 
L 132.245937 182.872127 
L 131.609701 182.853269 
L 130.76217 182.828162 
L 130.640766 182.824566 
L 129.78999 182.799355 
L 127.71951 182.721574 
L 127.712249 182.721377 
L 126.254932 182.68174 
L 125.003412 182.632412 
L 124.085496 182.596233 
L 122.991506 182.568875 
L 122.740988 182.562609 
L 121.562528 182.533133 
L 121.090388 182.509947 
L 120.149976 182.463766 
L 119.327845 182.447254 
L 119.064628 182.44465 
L 118.817408 182.428481 
L 118.532098 182.411426 
L 117.946685 182.380565 
L 117.938759 182.380148 
L 117.529539 182.359544 
L 117.518149 182.358971 
L 116.756944 182.305973 
L 116.258869 182.264908 
L 116.088925 182.269673 
L 116.041496 182.271003 
L 115.871598 182.30686 
L 115.674114 182.411025 
L 115.336093 182.466914 
L 115.11583 182.521944 
L 115.086984 182.533705 
L 115.02975 182.614404 
L 114.872959 182.702229 
L 114.770883 182.694589 
L 114.666947 182.645625 
L 114.660365 182.580808 
L 114.597523 182.534649 
L 114.570079 182.534192 
L 114.453351 182.581438 
L 114.410569 182.583727 
L 114.392684 182.576344 
L 114.362322 182.509896 
L 114.266169 182.463966 
L 114.107861 182.471321 
L 114.005748 182.489504 
L 113.782117 182.529327 
L 113.730979 182.563438 
L 113.722451 182.610312 
L 113.724597 182.66145 
L 113.701131 182.704061 
L 113.56689 182.789281 
L 113.500843 182.797809 
L 113.445898 182.776289 
L 113.343164 182.712589 
L 113.260061 182.642277 
L 113.225979 182.565556 
L 113.217451 182.518681 
L 113.234506 182.450488 
L 113.274971 182.38444 
L 113.287762 182.322657 
L 113.236824 182.201808 
L 113.143763 182.048136 
L 113.136523 181.965262 
L 112.953089 181.826385 
L 112.881805 181.826184 
L 112.802622 181.888798 
L 112.583675 182.138937 
L 112.356086 182.195884 
L 112.175915 182.263191 
L 112.114475 182.306631 
L 111.97949 182.464624 
L 111.878215 182.747014 
L 111.702909 183.103007 
L 111.658181 183.190832 
L 111.546404 183.24383 
L 111.27815 183.267468 
L 111.214278 183.261086 
L 111.164771 183.154088 
L 111.16955 183.050295 
L 111.163168 182.99123 
L 111.088135 182.912963 
L 110.959846 182.892416 
L 110.733802 182.992861 
L 110.61012 182.993262 
L 110.500719 182.968451 
L 110.277479 183.016756 
L 110.17961 183.054072 
L 110.082055 183.133598 
L 109.946412 183.288215 
L 109.822301 183.306444 
L 109.642187 183.300176 
L 109.358681 183.313111 
L 109.333899 183.32493 
L 109.323196 183.335976 
L 109.26808 183.381734 
L 109.205324 183.444491 
L 109.075776 183.504643 
L 108.960078 183.537037 
L 108.886046 183.537037 
L 108.825894 183.500007 
L 108.788549 183.449842 
L 108.781366 183.432815 
L 108.659316 183.402853 
L 108.543647 183.402853 
L 108.460344 183.402853 
L 108.372433 183.425976 
L 108.303009 183.467642 
L 108.266007 183.500007 
L 108.247578 183.565025 
L 108.247492 183.615705 
L 108.210462 183.648099 
L 108.141066 183.671221 
L 108.077709 183.650732 
L 107.993003 183.652706 
L 107.923579 183.694372 
L 107.886577 183.763768 
L 107.817153 183.833192 
L 107.693592 183.879712 
L 107.576658 183.923736 
L 107.508808 183.934095 
L 107.475927 183.916639 
L 107.355765 183.894031 
L 107.295012 183.900155 
L 107.172761 184.012505 
L 107.009359 184.048934 
L 106.888654 184.011532 
L 106.678378 184.011446 
L 106.600025 184.034483 
L 106.559332 184.054657 
L 106.543994 184.078352 
L 106.441231 184.119303 
L 106.349886 184.137474 
L 106.245091 184.257751 
L 106.199619 184.330122 
L 106.125359 184.380144 
L 106.02397 184.389359 
L 105.964046 184.375509 
L 105.862686 184.324828 
L 105.747446 184.292577 
L 105.659907 184.315614 
L 105.562668 184.362545 
L 105.484773 184.417003 
L 105.424849 184.499963 
L 105.300424 184.57368 
L 105.17099 184.609994 
L 104.964005 184.610567 
L 104.881045 184.57368 
L 104.858008 184.527607 
L 104.807328 184.463076 
L 104.756619 184.403181 
L 104.641408 184.380144 
L 104.563055 184.389359 
L 104.493946 184.426217 
L 104.480897 184.504141 
L 104.473971 184.56229 
L 104.448131 184.576684 
L 104.410986 184.610567 
L 104.364913 184.665854 
L 104.346455 184.707348 
L 104.341848 184.748814 
L 104.360277 184.799494 
L 104.415593 184.882454 
L 104.424808 184.946985 
L 104.391097 185.010801 
L 104.240459 185.1728 
L 104.134462 185.209658 
L 104.065353 185.200444 
L 103.982393 185.195837 
L 103.889789 185.227573 
L 103.656705 185.330564 
L 103.509472 185.32135 
L 103.42305 185.290558 
L 103.321517 185.296253 
L 103.265686 185.358179 
L 103.249775 185.3979 
L 103.245025 185.476968 
L 103.208166 185.518433 
L 103.067 185.623657 
L 102.996173 185.716604 
L 102.899391 185.748855 
L 102.765751 185.725819 
L 102.678184 185.744248 
L 102.632082 185.822601 
L 102.627418 185.888019 
L 102.544515 185.997735 
L 102.443154 186.043808 
L 102.249705 186.039287 
L 102.089966 186.116581 
L 101.880205 186.154727 
L 101.748654 186.078206 
L 101.78949 186.014505 
L 101.807175 185.97467 
L 101.807175 185.92399 
L 101.830412 185.881981 
L 101.879318 185.790092 
L 101.909366 185.662347 
L 101.843719 185.598646 
L 101.774724 185.572405 
L 101.772778 185.569743 
L 101.711166 185.540697 
L 101.579987 185.55718 
L 100.953309 185.736779 
L 98.442674 186.387152 
L 95.513234 187.13322 
L 95.261427 187.201049 
L 92.401476 187.971433 
L 92.401275 187.971436 
L 90.06051 188.005859 
L 86.272853 188.108365 
L 81.688893 188.176776 
L 79.787923 188.205147 
L 77.761742 188.216622 
L 77.767465 188.373985 
L 74.049919 188.342536 
L 71.726123 188.35404 
L 68.711912 188.348442 
L 68.705653 188.348431 
L 66.742161 188.349706 
L 66.281498 188.350005 
L 66.03548 188.353124 
L 63.188167 188.347892 
L 63.185222 188.347887 
L 57.681818 188.322017 
L 58.020841 185.732916 
" clip-path="url(#p7395ef7831)" style="fill: #0086dd"/>
   </g>
   <g id="PathCollection_1">
    <defs>
     <path id="m5c62dcebd8" d="M 0 1.581139 
C 0.419323 1.581139 0.821528 1.41454 1.118034 1.118034 
C 1.41454 0.821528 1.581139 0.419323 1.581139 0 
C 1.581139 -0.419323 1.41454 -0.821528 1.118034 -1.118034 
C 0.821528 -1.41454 0.419323 -1.581139 0 -1.581139 
C -0.419323 -1.581139 -0.821528 -1.41454 -1.118034 -1.118034 
C -1.41454 -0.821528 -1.581139 -0.419323 -1.581139 0 
C -1.581139 0.419323 -1.41454 0.821528 -1.118034 1.118034 
C -0.821528 1.41454 -0.419323 1.581139 0 1.581139 
z
" style="stroke: #000000"/>
    </defs>
    <g clip-path="url(#p7395ef7831)">
     <use xlink:href="#m5c62dcebd8" x="220.30429" y="165.656913" style="stroke: #000000"/>
    </g>
   </g>
   <g id="text_1">
    <!-- Raleigh -->
    <g transform="translate(223.30429 162.656913) scale(0.1 -0.1)">
     <defs>
      <path id="DejaVuSans-52" d="M 2841 2188 
Q 3044 2119 3236 1894 
Q 3428 1669 3622 1275 
L 4263 0 
L 3584 0 
L 2988 1197 
Q 2756 1666 2539 1819 
Q 2322 1972 1947 1972 
L 1259 1972 
L 1259 0 
L 628 0 
L 628 4666 
L 2053 4666 
Q 2853 4666 3247 4331 
Q 3641 3997 3641 3322 
Q 3641 2881 3436 2590 
Q 3231 2300 2841 2188 
z
M 1259 4147 
L 1259 2491 
L 2053 2491 
Q 2509 2491 2742 2702 
Q 2975 2913 2975 3322 
Q 2975 3731 2742 3939 
Q 2509 4147 2053 4147 
L 1259 4147 
z
" transform="scale(0.015625)"/>
      <path id="DejaVuSans-61" d="M 2194 1759 
Q 1497 1759 1228 1600 
Q 959 1441 959 1056 
Q 959 750 1161 570 
Q 1363 391 1709 391 
Q 2188 391 2477 730 
Q 2766 1069 2766 1631 
L 2766 1759 
L 2194 1759 
z
M 3341 1997 
L 3341 0 
L 2766 0 
L 2766 531 
Q 2569 213 2275 61 
Q 1981 -91 1556 -91 
Q 1019 -91 701 211 
Q 384 513 384 1019 
Q 384 1609 779 1909 
Q 1175 2209 1959 2209 
L 2766 2209 
L 2766 2266 
Q 2766 2663 2505 2880 
Q 2244 3097 1772 3097 
Q 1472 3097 1187 3025 
Q 903 2953 641 2809 
L 641 3341 
Q 956 3463 1253 3523 
Q 1550 3584 1831 3584 
Q 2591 3584 2966 3190 
Q 3341 2797 3341 1997 
z
" transform="scale(0.015625)"/>
      <path id="DejaVuSans-6c" d="M 603 4863 
L 1178 4863 
L 1178 0 
L 603 0 
L 603 4863 
z
" transform="scale(0.015625)"/>
      <path id="DejaVuSans-65" d="M 3597 1894 
L 3597 1613 
L 953 1613 
Q 991 1019 1311 708 
Q 1631 397 2203 397 
Q 2534 397 2845 478 
Q 3156 559 3463 722 
L 3463 178 
Q 3153 47 2828 -22 
Q 2503 -91 2169 -91 
Q 1331 -91 842 396 
Q 353 884 353 1716 
Q 353 2575 817 3079 
Q 1281 3584 2069 3584 
Q 2775 3584 3186 3129 
Q 3597 2675 3597 1894 
z
M 3022 2063 
Q 3016 2534 2758 2815 
Q 2500 3097 2075 3097 
Q 1594 3097 1305 2825 
Q 1016 2553 972 2059 
L 3022 2063 
z
" transform="scale(0.015625)"/>
      <path id="DejaVuSans-69" d="M 603 3500 
L 1178 3500 
L 1178 0 
L 603 0 
L 603 3500 
z
M 603 4863 
L 1178 4863 
L 1178 4134 
L 603 4134 
L 603 4863 
z
" transform="scale(0.015625)"/>
      <path id="DejaVuSans-67" d="M 2906 1791 
Q 2906 2416 2648 2759 
Q 2391 3103 1925 3103 
Q 1463 3103 1205 2759 
Q 947 2416 947 1791 
Q 947 1169 1205 825 
Q 1463 481 1925 481 
Q 2391 481 2648 825 
Q 2906 1169 2906 1791 
z
M 3481 434 
Q 3481 -459 3084 -895 
Q 2688 -1331 1869 -1331 
Q 1566 -1331 1297 -1286 
Q 1028 -1241 775 -1147 
L 775 -588 
Q 1028 -725 1275 -790 
Q 1522 -856 1778 -856 
Q 2344 -856 2625 -561 
Q 2906 -266 2906 331 
L 2906 616 
Q 2728 306 2450 153 
Q 2172 0 1784 0 
Q 1141 0 747 490 
Q 353 981 353 1791 
Q 353 2603 747 3093 
Q 1141 3584 1784 3584 
Q 2172 3584 2450 3431 
Q 2728 3278 2906 2969 
L 2906 3500 
L 3481 3500 
L 3481 434 
z
" transform="scale(0.015625)"/>
      <path id="DejaVuSans-68" d="M 3513 2113 
L 3513 0 
L 2938 0 
L 2938 2094 
Q 2938 2591 2744 2837 
Q 2550 3084 2163 3084 
Q 1697 3084 1428 2787 
Q 1159 2491 1159 1978 
L 1159 0 
L 581 0 
L 581 4863 
L 1159 4863 
L 1159 2956 
Q 1366 3272 1645 3428 
Q 1925 3584 2291 3584 
Q 2894 3584 3203 3211 
Q 3513 2838 3513 2113 
z
" transform="scale(0.015625)"/>
     </defs>
     <use xlink:href="#DejaVuSans-52"/>
     <use xlink:href="#DejaVuSans-61" x="67.232422"/>
     <use xlink:href="#DejaVuSans-6c" x="128.511719"/>
     <use xlink:href="#DejaVuSans-65" x="156.294922"/>
     <use xlink:href="#DejaVuSans-69" x="217.818359"/>
     <use xlink:href="#DejaVuSans-67" x="245.601562"/>
     <use xlink:href="#DejaVuSans-68" x="309.078125"/>
    </g>
   </g>
   <g id="text_2">
    <!-- North Carolina -->
    <g transform="translate(141.129375 132.61788) scale(0.12 -0.12)">
     <defs>
      <path id="DejaVuSans-4e" d="M 628 4666 
L 1478 4666 
L 3547 763 
L 3547 4666 
L 4159 4666 
L 4159 0 
L 3309 0 
L 1241 3903 
L 1241 0 
L 628 0 
L 628 4666 
z
" transform="scale(0.015625)"/>
      <path id="DejaVuSans-6f" d="M 1959 3097 
Q 1497 3097 1228 2736 
Q 959 2375 959 1747 
Q 959 1119 1226 758 
Q 1494 397 1959 397 
Q 2419 397 2687 759 
Q 2956 1122 2956 1747 
Q 2956 2369 2687 2733 
Q 2419 3097 1959 3097 
z
M 1959 3584 
Q 2709 3584 3137 3096 
Q 3566 2609 3566 1747 
Q 3566 888 3137 398 
Q 2709 -91 1959 -91 
Q 1206 -91 779 398 
Q 353 888 353 1747 
Q 353 2609 779 3096 
Q 1206 3584 1959 3584 
z
" transform="scale(0.015625)"/>
      <path id="DejaVuSans-72" d="M 2631 2963 
Q 2534 3019 2420 3045 
Q 2306 3072 2169 3072 
Q 1681 3072 1420 2755 
Q 1159 2438 1159 1844 
L 1159 0 
L 581 0 
L 581 3500 
L 1159 3500 
L 1159 2956 
Q 1341 3275 1631 3429 
Q 1922 3584 2338 3584 
Q 2397 3584 2469 3576 
Q 2541 3569 2628 3553 
L 2631 2963 
z
" transform="scale(0.015625)"/>
      <path id="DejaVuSans-74" d="M 1172 4494 
L 1172 3500 
L 2356 3500 
L 2356 3053 
L 1172 3053 
L 1172 1153 
Q 1172 725 1289 603 
Q 1406 481 1766 481 
L 2356 481 
L 2356 0 
L 1766 0 
Q 1100 0 847 248 
Q 594 497 594 1153 
L 594 3053 
L 172 3053 
L 172 3500 
L 594 3500 
L 594 4494 
L 1172 4494 
z
" transform="scale(0.015625)"/>
      <path id="DejaVuSans-20" transform="scale(0.015625)"/>
      <path id="DejaVuSans-43" d="M 4122 4306 
L 4122 3641 
Q 3803 3938 3442 4084 
Q 3081 4231 2675 4231 
Q 1875 4231 1450 3742 
Q 1025 3253 1025 2328 
Q 1025 1406 1450 917 
Q 1875 428 2675 428 
Q 3081 428 3442 575 
Q 3803 722 4122 1019 
L 4122 359 
Q 3791 134 3420 21 
Q 3050 -91 2638 -91 
Q 1578 -91 968 557 
Q 359 1206 359 2328 
Q 359 3453 968 4101 
Q 1578 4750 2638 4750 
Q 3056 4750 3426 4639 
Q 3797 4528 4122 4306 
z
" transform="scale(0.015625)"/>
      <path id="DejaVuSans-6e" d="M 3513 2113 
L 3513 0 
L 2938 0 
L 2938 2094 
Q 2938 2591 2744 2837 
Q 2550 3084 2163 3084 
Q 1697 3084 1428 2787 
Q 1159 2491 1159 1978 
L 1159 0 
L 581 0 
L 581 3500 
L 1159 3500 
L 1159 2956 
Q 1366 3272 1645 3428 
Q 1925 3584 2291 3584 
Q 2894 3584 3203 3211 
Q 3513 2838 3513 2113 
z
" transform="scale(0.015625)"/>
     </defs>
     <use xlink:href="#DejaVuSans-4e"/>
     <use xlink:href="#DejaVuSans-6f" x="74.804688"/>
     <use xlink:href="#DejaVuSans-72" x="135.986328"/>
     <use xlink:href="#DejaVuSans-74" x="177.099609"/>
     <use xlink:href="#DejaVuSans-68" x="216.308594"/>
     <use xlink:href="#DejaVuSans-20" x="279.6875"/>
     <use xlink:href="#DejaVuSans-43" x="311.474609"/>
     <use xlink:href="#DejaVuSans-61" x="381.298828"/>
     <use xlink:href="#DejaVuSans-72" x="442.578125"/>
     <use xlink:href="#DejaVuSans-6f" x="481.441406"/>
     <use xlink:href="#DejaVuSans-6c" x="542.623047"/>
     <use xlink:href="#DejaVuSans-69" x="570.40625"/>
     <use xlink:href="#DejaVuSans-6e" x="598.189453"/>
     <use xlink:href="#DejaVuSans-61" x="661.568359"/>
    </g>
   </g>
  </g>
 </g>
 <defs>
  <clipPath id="p7395ef7831">
   <rect x="45" y="138.61788" width="279" height="86.36424"/>
  </clipPath>
 </defs>
</svg>
