<?xml version="1.0" encoding="utf-8" standalone="no"?>
<!DOCTYPE svg PUBLIC "-//W3C//DTD SVG 1.1//EN"
  "http://www.w3.org/Graphics/SVG/1.1/DTD/svg11.dtd">
<svg xmlns:xlink="http://www.w3.org/1999/xlink" width="360pt" height="360pt" viewBox="0 0 360 360" xmlns="http://www.w3.org/2000/svg" version="1.1">
 <metadata>
  <rdf:RDF xmlns:dc="http://purl.org/dc/elements/1.1/" xmlns:cc="http://creativecommons.org/ns#" xmlns:rdf="http://www.w3.org/1999/02/22-rdf-syntax-ns#">
   <cc:Work>
    <dc:type rdf:resource="http://purl.org/dc/dcmitype/StillImage"/>
    <dc:date>2023-06-19T15:20:27.445994</dc:date>
    <dc:format>image/svg+xml</dc:format>
    <dc:creator>
     <cc:Agent>
      <dc:title>Matplotlib v3.7.1, https://matplotlib.org/</dc:title>
     </cc:Agent>
    </dc:creator>
   </cc:Work>
  </rdf:RDF>
 </metadata>
 <defs>
  <style type="text/css">*{stroke-linejoin: round; stroke-linecap: butt}</style>
 </defs>
 <g id="figure_1">
  <g id="patch_1">
   <path d="M 0 360 
L 360 360 
L 360 0 
L 0 0 
z
" style="fill: #ffffff"/>
  </g>
  <g id="axes_1">
   <g id="PatchCollection_1">
    <path d="M 57.690211 134.489315 
L 57.68439 134.428227 
L 57.682394 134.209294 
L 57.682055 134.150711 
L 57.687944 134.009177 
L 57.690516 133.241336 
L 57.68703 133.097535 
L 57.687098 132.919688 
L 57.684966 132.191275 
L 57.688553 131.964693 
L 57.686218 131.864177 
L 57.682766 131.649982 
L 57.688655 131.575763 
L 57.691057 131.396359 
L 57.685203 131.33297 
L 57.693494 131.171367 
L 57.69143 131.071055 
L 57.6961 130.385014 
L 57.688959 129.95906 
L 58.644225 129.961192 
L 59.984258 129.959466 
L 60.371698 129.961294 
L 64.335887 129.960143 
L 65.87184 129.968096 
L 71.404606 129.966167 
L 76.257965 129.969788 
L 80.436586 129.982446 
L 81.112643 129.961023 
L 95.215696 129.969653 
L 95.252167 129.969682 
L 104.089695 129.976659 
L 114.416864 129.988369 
L 119.643381 129.995916 
L 120.366481 129.994765 
L 126.271593 129.98028 
L 126.30811 129.980266 
L 135.140177 129.976896 
L 144.019353 129.966573 
L 144.055904 129.966665 
L 145.373092 129.969958 
L 152.35507 129.969992 
L 153.873357 129.971447 
L 156.58554 129.978148 
L 163.607893 129.961463 
L 166.944285 129.967352 
L 180.023269 129.965253 
L 180.101278 129.96566 
L 188.527257 129.970488 
L 189.078905 129.970804 
L 204.058403 129.977132 
L 210.72611 129.970398 
L 210.762659 129.97037 
L 219.627183 129.963595 
L 228.202276 129.95175 
L 228.540542 129.945083 
L 228.560882 129.945069 
L 245.858218 129.933711 
L 264.046349 129.930665 
L 264.082922 129.930663 
L 282.287614 129.929684 
L 288.500398 129.926266 
L 288.409866 130.039641 
L 288.406719 130.080829 
L 288.443507 130.169803 
L 288.428954 130.239623 
L 288.314529 130.318715 
L 288.21019 130.429383 
L 288.173301 130.533113 
L 288.185552 130.786533 
L 288.145481 131.005128 
L 288.156548 131.076572 
L 288.201932 131.118267 
L 288.372842 131.167137 
L 288.407734 131.216549 
L 288.428074 131.268871 
L 288.428074 131.358962 
L 288.378663 131.620504 
L 288.384484 131.672826 
L 288.529774 131.777437 
L 288.564667 131.85592 
L 288.579185 132.02155 
L 288.643116 132.175571 
L 288.840728 132.254054 
L 288.878531 132.317985 
L 288.881442 132.393557 
L 288.823163 132.488285 
L 288.826209 132.582438 
L 288.863538 132.661733 
L 289.034989 132.719335 
L 289.094723 132.766174 
L 289.106636 132.857518 
L 289.047613 132.995937 
L 289.042435 133.054047 
L 289.115706 133.181061 
L 289.212262 133.24066 
L 289.511133 133.335354 
L 289.540746 133.386085 
L 289.536516 133.534083 
L 289.473093 133.631315 
L 289.544977 133.775082 
L 289.540746 133.842735 
L 289.511133 133.93154 
L 289.540746 133.994963 
L 289.794437 134.155618 
L 289.887473 134.189462 
L 289.938204 134.227502 
L 289.955126 134.269806 
L 289.900164 134.426231 
L 289.908591 134.476996 
L 289.963587 134.519266 
L 290.06928 134.557306 
L 290.145394 134.62919 
L 290.180761 134.789439 
L 290.297622 134.916724 
L 290.297622 135.026648 
L 290.251087 135.098531 
L 290.242626 135.140836 
L 290.340366 135.271607 
L 290.358777 135.417472 
L 290.343074 135.45294 
L 290.293933 135.49027 
L 290.136933 135.550951 
L 290.111551 135.605913 
L 290.115781 135.732792 
L 290.225569 135.874156 
L 290.148372 136.08957 
L 290.196329 136.177935 
L 290.249327 136.235977 
L 290.350858 136.304206 
L 290.538622 136.341636 
L 290.635854 136.388171 
L 290.661237 136.434672 
L 290.661237 136.472712 
L 290.625802 136.535526 
L 290.625802 136.585648 
L 290.701003 136.730464 
L 290.706553 136.880831 
L 290.726047 136.953256 
L 290.784528 136.992244 
L 290.890425 137.013666 
L 290.924573 137.051605 
L 290.900747 137.130934 
L 290.90051 137.251958 
L 290.925453 137.28526 
L 291.025325 137.326854 
L 291.05443 137.355959 
L 291.033616 137.468286 
L 291.000348 137.501588 
L 290.98786 137.543182 
L 291.000348 137.576484 
L 291.033616 137.618077 
L 291.077038 137.641226 
L 291.249978 137.863544 
L 291.249978 137.942569 
L 291.121 138.154767 
L 291.129326 138.213012 
L 291.162594 138.24628 
L 291.395572 138.375257 
L 291.520387 138.520852 
L 291.516224 138.807913 
L 291.537038 138.857832 
L 291.660736 138.9287 
L 291.677455 138.970531 
L 291.669095 139.091826 
L 291.635624 139.158734 
L 291.652377 139.204761 
L 291.69837 139.246592 
L 291.963398 139.384199 
L 292.033454 139.449687 
L 292.137523 139.638296 
L 292.309042 139.781962 
L 292.283964 139.928369 
L 292.212859 139.986918 
L 292.237937 140.078938 
L 292.563883 140.386542 
L 292.900897 140.520224 
L 292.938564 140.562054 
L 292.946924 140.599688 
L 292.934368 140.641519 
L 292.854903 140.729342 
L 292.833988 140.787926 
L 292.863195 141.067033 
L 292.856494 141.183827 
L 292.804714 141.222916 
L 292.767046 141.289858 
L 292.833988 141.386041 
L 292.838151 141.498977 
L 292.796219 141.577494 
L 292.702269 141.641052 
L 292.656784 141.701429 
L 292.592346 141.867397 
L 292.478462 141.975798 
L 292.45335 142.030184 
L 292.530175 142.166574 
L 292.57671 142.318599 
L 292.57028 142.377419 
L 292.534778 142.4182 
L 292.465602 142.458372 
L 292.347691 142.473433 
L 292.152211 142.431737 
L 292.001608 142.477731 
L 291.980692 142.498646 
L 291.980692 142.569751 
L 292.038632 142.623495 
L 292.043438 142.695243 
L 292.01836 142.753792 
L 291.989086 142.774707 
L 291.838482 142.766348 
L 291.796652 142.837453 
L 291.817567 142.921114 
L 291.792489 143.008938 
L 291.742299 143.029853 
L 291.633526 143.03405 
L 291.587533 143.067487 
L 291.562421 143.167901 
L 291.591729 143.234809 
L 291.562421 143.339386 
L 291.474597 143.481596 
L 291.407688 143.535983 
L 291.37838 143.581976 
L 291.370021 143.665637 
L 291.427351 143.73329 
L 291.449417 143.793362 
L 291.404406 144.033211 
L 291.379395 144.079746 
L 291.336482 144.110408 
L 291.217793 144.124758 
L 291.173424 144.175929 
L 291.17762 144.263753 
L 291.202732 144.326499 
L 291.198536 144.431075 
L 291.17762 144.50218 
L 291.109189 144.578193 
L 290.914115 144.636031 
L 290.872284 144.698777 
L 290.868088 144.832628 
L 290.88484 144.878621 
L 290.947586 144.933008 
L 291.031213 144.970642 
L 291.089797 145.041747 
L 291.081403 145.096133 
L 291.047966 145.133767 
L 290.968637 145.135155 
L 290.796983 145.20071 
L 290.755152 145.238344 
L 290.734237 145.284337 
L 290.721597 145.379135 
L 290.721106 145.382821 
L 290.782977 145.428499 
L 290.836444 145.467972 
L 291.031213 145.54368 
L 291.148346 145.618981 
L 291.202732 145.706805 
L 291.194339 145.773714 
L 291.098156 145.87829 
L 291.060522 146.049775 
L 291.22781 146.752501 
L 291.244563 146.815213 
L 291.290556 146.877959 
L 291.491316 146.974176 
L 291.541506 147.057837 
L 291.527562 147.330345 
L 291.493211 147.384088 
L 291.372119 147.444736 
L 291.334485 147.490729 
L 291.347007 147.578587 
L 291.409753 147.612024 
L 291.45578 147.670607 
L 291.434865 147.72496 
L 291.376315 147.758431 
L 291.36376 147.909001 
L 291.397231 148.00938 
L 291.443224 148.084682 
L 291.69837 148.180899 
L 291.74856 148.22273 
L 291.752757 148.339828 
L 291.719285 148.482038 
L 291.602153 148.590778 
L 291.581272 148.641001 
L 291.581272 148.753903 
L 291.593794 148.779015 
L 291.669095 148.820846 
L 291.69837 148.904507 
L 291.673292 149.021605 
L 291.631461 149.080188 
L 291.526885 149.168012 
L 291.531048 149.218202 
L 291.577075 149.301863 
L 291.651971 149.353711 
L 291.651971 149.426644 
L 291.605571 149.50621 
L 291.433139 149.559276 
L 291.406639 149.592409 
L 291.419906 149.685276 
L 291.559138 149.711775 
L 291.651971 149.851041 
L 291.671871 150.02344 
L 291.645371 150.109673 
L 291.499472 150.275438 
L 291.373473 150.348371 
L 291.327039 150.401438 
L 291.313807 150.447837 
L 291.327039 150.626903 
L 291.380106 150.719736 
L 291.472939 150.792668 
L 291.499472 150.852368 
L 291.499472 150.912034 
L 291.433139 151.124233 
L 291.360206 151.223699 
L 291.287273 151.256866 
L 291.254107 151.309898 
L 291.24084 151.369598 
L 291.24084 151.60833 
L 291.37239 151.791153 
L 291.508102 151.827636 
L 291.57677 151.875761 
L 291.587939 151.923176 
L 291.554468 152.029174 
L 291.573995 152.126812 
L 291.783216 152.243978 
L 291.802743 152.291393 
L 291.774856 152.433671 
L 291.677218 152.575949 
L 291.679993 152.665194 
L 291.714547 152.693285 
L 291.799968 152.690306 
L 291.9171 152.729362 
L 291.928269 152.765642 
L 291.922685 152.846528 
L 291.847383 152.941391 
L 291.79919 152.974321 
L 291.784062 153.015576 
L 291.758815 153.111522 
L 291.776481 153.204964 
L 291.809309 153.242835 
L 291.938083 153.290791 
L 291.970912 153.326158 
L 291.970912 153.510469 
L 292.102224 153.588749 
L 292.109805 153.606449 
L 292.094643 153.659448 
L 292.066858 153.682191 
L 291.933041 153.687234 
L 291.887589 153.715019 
L 291.872427 153.778137 
L 291.880008 153.876622 
L 291.935038 153.912327 
L 291.998934 153.911379 
L 292.106827 153.972264 
L 292.256889 154.194548 
L 292.291037 154.270425 
L 292.296012 154.324067 
L 292.041848 154.608724 
L 291.998934 154.635731 
L 291.832018 154.67455 
L 291.779019 154.732625 
L 291.776481 154.785624 
L 291.809309 154.810905 
L 291.890533 154.826473 
L 291.938083 154.89169 
L 291.938083 154.959884 
L 291.862342 155.030583 
L 291.857299 155.063411 
L 291.867384 155.111368 
L 291.922922 155.179562 
L 291.933684 155.215436 
L 291.910298 155.278013 
L 291.862342 155.313379 
L 291.725276 155.332196 
L 291.569629 155.455285 
L 291.544856 155.49742 
L 291.549831 155.584127 
L 291.651395 155.700583 
L 291.646454 155.747693 
L 291.510166 155.804651 
L 291.46062 155.846786 
L 291.475477 155.935998 
L 291.526377 155.998439 
L 291.628145 156.039153 
L 291.638332 156.06968 
L 291.628145 156.134185 
L 291.581238 156.169721 
L 291.565534 156.238153 
L 291.586923 156.285229 
L 291.651395 156.312608 
L 291.665474 156.371767 
L 291.666286 156.436509 
L 291.590815 156.504128 
L 291.604387 156.595777 
L 291.69353 156.666949 
L 291.681144 156.766043 
L 291.579546 156.810649 
L 291.544856 156.8627 
L 291.532469 156.924634 
L 291.570509 157.101737 
L 291.46133 157.236603 
L 291.451685 157.273289 
L 291.292113 157.492054 
L 291.299558 157.5416 
L 291.346635 157.588677 
L 291.403627 157.606038 
L 291.440787 157.638257 
L 291.453174 157.727435 
L 291.448233 157.772041 
L 291.423459 157.811705 
L 291.325618 157.898446 
L 291.310087 157.926291 
L 291.277256 157.985153 
L 291.274785 158.084247 
L 291.359495 158.289541 
L 291.437065 158.366975 
L 291.515141 158.403899 
L 291.539915 158.448504 
L 291.539915 158.532741 
L 291.520083 158.607061 
L 291.493075 158.68199 
L 291.42593 158.778038 
L 291.430871 158.882107 
L 291.455645 158.929183 
L 291.696001 158.988646 
L 291.775296 159.065471 
L 291.756209 159.130518 
L 291.767851 159.191843 
L 291.860007 159.283085 
L 291.899739 159.484386 
L 291.947695 159.582802 
L 292.126253 159.83162 
L 292.156171 159.897208 
L 292.159894 159.952103 
L 292.144732 159.988789 
L 292.07383 160.083009 
L 292.055859 160.133537 
L 292.071461 160.179429 
L 292.187611 160.222309 
L 292.410268 160.194997 
L 292.468614 160.204304 
L 292.534101 160.244578 
L 292.571566 160.410377 
L 292.691913 160.47715 
L 292.723117 160.533567 
L 292.72552 160.589984 
L 292.671506 160.648771 
L 292.666734 160.696761 
L 292.679933 160.727964 
L 292.783527 160.77257 
L 292.863635 160.882155 
L 292.876056 161.010016 
L 292.830705 161.167524 
L 292.716213 161.26479 
L 292.697836 161.315013 
L 292.705078 161.337553 
L 292.753508 161.36324 
L 292.932202 161.383174 
L 293.297238 161.818334 
L 293.435691 161.900506 
L 293.681192 162.004371 
L 293.736222 162.055577 
L 293.795718 162.16198 
L 293.858193 162.375296 
L 293.915727 162.851508 
L 293.906387 162.899802 
L 293.807428 163.064688 
L 293.798202 163.129047 
L 293.796328 163.142122 
L 293.849969 163.216205 
L 293.896335 163.241317 
L 294.043791 163.258848 
L 294.099227 163.281489 
L 294.108601 163.342746 
L 294.027411 163.405085 
L 293.981688 163.465293 
L 294.065383 163.839263 
L 294.134153 163.925903 
L 294.381617 164.028245 
L 294.428727 164.072648 
L 294.44443 164.118675 
L 294.429268 164.196651 
L 294.329633 164.446822 
L 294.239203 164.621996 
L 294.232435 164.669376 
L 294.30689 164.787829 
L 294.283166 164.838594 
L 294.157945 164.943509 
L 294.147792 164.99089 
L 294.16133 165.021349 
L 294.242554 165.072114 
L 294.411771 165.153372 
L 294.465921 165.237981 
L 294.462537 165.319205 
L 294.374543 165.454579 
L 294.361006 165.512113 
L 294.39485 165.606875 
L 294.513302 165.705021 
L 294.719747 165.782861 
L 294.916039 165.803167 
L 295.020954 165.840395 
L 295.037876 165.935157 
L 294.976957 166.04684 
L 295.031107 166.151755 
L 295.237552 166.239782 
L 295.64029 166.503761 
L 295.630137 166.561295 
L 295.437229 166.63575 
L 295.519202 166.671062 
L 295.657211 166.730512 
L 295.721514 166.825274 
L 295.731667 166.930189 
L 295.657211 166.980954 
L 295.552263 166.957264 
L 295.443964 166.886192 
L 295.396583 166.896345 
L 295.423658 166.994491 
L 295.555647 167.099406 
L 295.559032 167.15694 
L 295.430426 167.238164 
L 295.396583 167.343079 
L 295.599644 167.475069 
L 295.592875 167.519065 
L 295.396583 167.617211 
L 295.383045 167.705205 
L 295.450732 167.77966 
L 295.586106 167.840578 
L 295.633487 167.901497 
L 295.599644 167.955646 
L 295.457467 168.019949 
L 295.457467 168.053792 
L 295.52177 168.101173 
L 295.653759 168.135017 
L 296.059881 168.182432 
L 296.158027 168.233197 
L 296.188486 168.277193 
L 296.127568 168.327958 
L 296.042926 168.348265 
L 296.053079 168.392261 
L 296.181616 168.484011 
L 296.229099 168.49589 
L 296.30396 168.564694 
L 296.348905 168.716211 
L 296.361789 169.001474 
L 296.364202 169.054883 
L 296.312557 169.096679 
L 296.29885 169.14538 
L 296.479304 169.274425 
L 296.691773 169.283631 
L 296.859637 169.527913 
L 296.841124 169.654928 
L 296.861058 169.684811 
L 296.940793 169.727183 
L 296.940793 169.819373 
L 296.91338 169.831828 
L 296.893446 169.866686 
L 296.904784 170.027409 
L 296.987531 170.164238 
L 296.955448 170.223024 
L 296.885967 170.275313 
L 296.878487 170.327601 
L 296.898421 170.367468 
L 297.047434 170.505211 
L 297.050412 170.571781 
L 297.082801 170.61412 
L 297.135123 170.629078 
L 297.198985 170.616523 
L 297.389524 170.648945 
L 297.475656 170.740187 
L 297.667311 170.827503 
L 297.689107 170.863072 
L 297.686839 170.890925 
L 297.542294 170.93966 
L 297.475723 170.987616 
L 297.413824 171.06725 
L 297.414974 171.116763 
L 297.445975 171.132974 
L 297.529704 171.122923 
L 297.713305 171.241172 
L 297.70877 171.363347 
L 297.947366 171.395836 
L 298.299541 171.627021 
L 298.376366 171.757691 
L 298.324721 171.829608 
L 298.344215 171.904605 
L 298.42219 171.969551 
L 298.519355 172.019369 
L 298.520573 172.069762 
L 298.467744 172.096769 
L 298.459147 172.149598 
L 298.468962 172.168009 
L 298.642308 172.238438 
L 298.660787 172.316075 
L 298.660753 172.422783 
L 298.633238 172.48695 
L 298.508288 172.589801 
L 298.497966 172.63153 
L 298.515124 172.684901 
L 298.590765 172.779223 
L 298.776396 172.958627 
L 298.978036 173.104831 
L 298.997496 173.134207 
L 298.966529 173.179828 
L 298.83085 173.271408 
L 298.828684 173.325829 
L 298.935393 173.382483 
L 298.955022 173.456532 
L 298.937762 173.522358 
L 298.944598 173.590417 
L 299.100921 173.672149 
L 299.122716 173.704808 
L 299.13798 173.778891 
L 299.109653 173.822448 
L 299.109653 173.861639 
L 299.159741 173.892132 
L 299.190742 173.882723 
L 299.235381 173.924486 
L 299.294878 174.032751 
L 299.368149 174.107004 
L 299.379589 174.145687 
L 299.282187 174.238452 
L 299.29014 174.296426 
L 299.323341 174.323501 
L 299.380604 174.331251 
L 299.447039 174.305767 
L 299.524946 174.226911 
L 299.567318 174.225388 
L 299.616561 174.25402 
L 299.647426 174.298084 
L 299.736367 174.796091 
L 299.785541 174.836297 
L 299.898883 174.850275 
L 299.928676 174.884382 
L 299.973203 174.935357 
L 299.976554 175.004939 
L 300.061196 175.080004 
L 300.113755 175.17903 
L 300.109119 175.243197 
L 300.044918 175.334372 
L 300.066476 175.530799 
L 300.204828 175.628302 
L 300.221953 175.666986 
L 300.205674 175.914415 
L 300.149562 175.946871 
L 300.025999 175.981561 
L 300.012225 176.02488 
L 300.221377 176.192778 
L 300.319422 176.629799 
L 300.425724 176.67701 
L 300.611322 176.715558 
L 300.620494 176.731769 
L 300.606787 176.756509 
L 300.502786 176.826159 
L 300.51656 176.864063 
L 300.970605 176.914118 
L 301.076975 176.962006 
L 301.134204 177.030032 
L 301.154815 177.112001 
L 301.084048 177.247341 
L 301.127537 177.296042 
L 301.189572 177.33266 
L 301.222028 177.397538 
L 301.212281 177.433243 
L 301.166863 177.452703 
L 301.15715 177.504585 
L 301.251201 177.614881 
L 301.27391 177.689506 
L 301.2069 178.020529 
L 301.101985 178.146901 
L 301.118196 178.228023 
L 301.179825 178.273441 
L 301.192821 178.328572 
L 301.092238 178.41291 
L 301.020896 178.429121 
L 301.0079 178.464826 
L 301.024145 178.526455 
L 301.072778 178.542666 
L 301.085774 178.568624 
L 301.066314 178.623789 
L 301.0079 178.688667 
L 301.011149 178.727587 
L 301.046854 178.795714 
L 301.145338 178.862724 
L 301.190587 178.933829 
L 301.171195 179.001719 
L 301.106554 179.053432 
L 301.093626 179.082538 
L 301.10009 179.121322 
L 301.16798 179.176284 
L 301.174444 179.198891 
L 301.161516 179.260317 
L 301.090377 179.3476 
L 301.10009 179.409026 
L 301.145338 179.44781 
L 301.158267 179.493059 
L 300.961501 179.710909 
L 300.898721 179.727188 
L 300.81885 179.774298 
L 300.763889 179.832475 
L 300.763889 179.868045 
L 300.859056 180.023353 
L 300.869413 180.126169 
L 300.931109 180.173313 
L 301.031557 180.206513 
L 301.175391 180.224247 
L 301.2003 180.243031 
L 301.210013 180.323849 
L 301.258477 180.369098 
L 301.271405 180.404667 
L 301.258477 180.443452 
L 301.214379 180.479427 
L 301.20646 180.579164 
L 301.205411 180.66577 
L 301.255262 180.731155 
L 301.257061 180.752747 
L 301.261726 180.808724 
L 301.080697 180.931576 
L 301.048377 180.963897 
L 301.028985 181.018859 
L 301.028985 181.051179 
L 301.119482 181.106141 
L 301.125946 181.141677 
L 301.109803 181.199887 
L 301.048377 181.228959 
L 301.028985 181.254815 
L 301.028985 181.303313 
L 301.041913 181.332418 
L 301.148587 181.400308 
L 301.158267 181.445557 
L 301.119482 181.53284 
L 301.009592 181.629801 
L 300.983702 181.694476 
L 300.994295 181.831914 
L 301.087161 181.956289 
L 301.06452 182.0565 
L 300.993415 182.108246 
L 300.980487 182.153495 
L 300.990166 182.198744 
L 301.041913 182.250457 
L 301.038664 182.289275 
L 301.004989 182.34999 
L 300.994904 182.549498 
L 301.06452 182.686868 
L 301.06452 182.725653 
L 300.986951 182.835577 
L 300.977238 182.88729 
L 301.028985 182.964859 
L 300.951381 183.071534 
L 300.944917 183.113567 
L 300.957846 183.158816 
L 301.02252 183.210563 
L 300.993415 183.281668 
L 300.880276 183.339845 
L 300.835028 183.385093 
L 300.835028 183.433591 
L 300.857635 183.459448 
L 300.937573 183.492106 
L 300.942176 183.517624 
L 300.909179 183.581826 
L 300.917199 183.609645 
L 301.04374 183.745696 
L 301.20514 183.794024 
L 301.227781 183.836058 
L 301.224972 183.894878 
L 301.382954 183.987981 
L 301.483164 184.078513 
L 301.489628 184.10112 
L 301.457308 184.223972 
L 301.470236 184.291862 
L 301.596303 184.350039 
L 301.631838 184.388823 
L 301.635087 184.437321 
L 301.61891 184.631278 
L 301.466987 184.71856 
L 301.421738 184.876948 
L 301.353848 184.928661 
L 301.227104 184.94186 
L 301.190621 184.994926 
L 301.248798 185.046673 
L 301.35466 185.091042 
L 301.365152 185.124242 
L 301.332831 185.169491 
L 301.242334 185.201845 
L 301.23587 185.237381 
L 301.33608 185.324663 
L 301.342544 185.453979 
L 301.381329 185.515405 
L 301.423363 185.557405 
L 301.510645 185.583261 
L 301.539717 185.638223 
L 301.48154 185.806324 
L 301.520324 185.916247 
L 301.636272 186.093114 
L 301.770868 186.170006 
L 301.796724 186.263752 
L 301.706193 186.383355 
L 301.712657 186.428604 
L 301.79026 186.473853 
L 301.819331 186.512637 
L 301.819331 186.59024 
L 301.770868 186.66781 
L 301.796724 186.76802 
L 301.79026 186.800341 
L 301.757939 186.842374 
L 301.615695 186.884408 
L 301.589839 186.907015 
L 301.570446 187.058939 
L 301.622159 187.088044 
L 301.756112 187.093696 
L 301.800447 187.112242 
L 301.896934 187.239968 
L 301.896934 187.32725 
L 301.52337 187.715435 
L 301.517752 187.818285 
L 301.606524 188.019315 
L 301.648659 188.25825 
L 301.644158 188.308508 
L 301.580126 188.381102 
L 301.547805 188.478064 
L 301.570446 188.510384 
L 301.664193 188.536241 
L 301.690049 188.57181 
L 301.660944 188.629987 
L 301.58659 188.652628 
L 301.567197 188.697877 
L 301.570446 188.736662 
L 301.612446 188.74959 
L 301.631838 188.791624 
L 301.622159 188.859514 
L 301.599518 188.895083 
L 301.65448 188.962939 
L 301.660944 188.985581 
L 301.638336 189.040542 
L 301.651265 189.066399 
L 301.812867 189.156896 
L 301.835509 189.234499 
L 301.829044 189.292676 
L 301.748226 189.367031 
L 301.715906 189.412279 
L 301.715906 189.447849 
L 301.735298 189.480169 
L 301.873071 189.576266 
L 301.894836 189.591447 
L 301.903399 189.638557 
L 301.880757 189.677341 
L 301.79026 189.712911 
L 301.738547 189.787265 
L 301.744977 189.873498 
L 301.803188 189.942437 
L 301.803188 189.965045 
L 301.696513 190.016792 
L 301.680336 190.055576 
L 301.712657 190.117002 
L 301.793475 190.152538 
L 301.803188 190.210749 
L 301.774083 190.317423 
L 301.874293 190.430562 
L 301.880757 190.475811 
L 301.871078 190.51138 
L 301.809652 190.579236 
L 301.819331 190.611591 
L 301.877542 190.643911 
L 301.922791 190.698873 
L 301.90015 190.731194 
L 301.735298 190.82494 
L 301.702977 190.876653 
L 301.696513 190.93483 
L 301.715906 190.986543 
L 301.764403 191.031825 
L 301.89047 191.080289 
L 301.951896 191.141715 
L 301.955111 191.174036 
L 301.909863 191.258103 
L 301.913078 191.287174 
L 301.945432 191.351849 
L 301.980968 191.38417 
L 302.052107 191.406811 
L 302.097356 191.445596 
L 302.107035 191.487596 
L 302.097356 191.536093 
L 302.013288 191.633089 
L 302.00036 191.665409 
L 302.006824 191.710658 
L 302.158782 191.801189 
L 302.187853 191.849653 
L 302.181389 191.978969 
L 302.262207 192.046859 
L 302.252528 192.124428 
L 302.187853 192.17939 
L 302.168461 192.224639 
L 302.174925 192.250495 
L 302.24136 192.296218 
L 302.25158 192.321736 
L 302.241393 192.344919 
L 302.061786 192.421845 
L 301.951896 192.525271 
L 301.953601 192.538064 
L 301.95836 192.573768 
L 301.990681 192.606089 
L 301.990681 192.664266 
L 301.913078 192.767725 
L 301.942183 192.825902 
L 302.042022 192.900933 
L 302.074714 193.01018 
L 302.074714 193.071572 
L 302.03593 193.181496 
L 302.074714 193.249386 
L 302.181491 193.327767 
L 302.170288 193.4029 
L 302.148865 193.457523 
L 302.105816 193.474513 
L 302.071499 193.520912 
L 302.084427 193.566161 
L 302.292734 193.715783 
L 302.312025 193.783842 
L 302.258789 193.852646 
L 302.2418 193.922262 
L 302.279163 193.96169 
L 302.372131 194.005788 
L 302.401202 194.044606 
L 302.394738 194.105998 
L 302.333312 194.219171 
L 302.336561 194.270884 
L 302.38181 194.319381 
L 302.388274 194.47452 
L 302.330097 194.539195 
L 302.31392 194.594123 
L 302.365667 194.668477 
L 302.310976 194.802294 
L 302.325664 194.85333 
L 302.364178 194.885786 
L 302.350606 194.986335 
L 302.278384 195.049927 
L 302.304241 195.133994 
L 302.291313 195.156601 
L 302.207245 195.205099 
L 302.194317 195.240669 
L 302.214826 195.401594 
L 302.27192 195.454018 
L 302.288064 195.502482 
L 302.258992 195.531587 
L 302.194317 195.55098 
L 302.181389 195.612405 
L 302.246064 195.741721 
L 302.355954 195.841932 
L 302.372131 196.039104 
L 302.304241 196.229846 
L 302.31392 196.294487 
L 302.375346 196.359128 
L 302.38181 196.430267 
L 302.372131 196.475516 
L 302.284848 196.520765 
L 302.278384 196.566013 
L 302.291313 196.617726 
L 302.38181 196.69208 
L 302.401202 196.734114 
L 302.352739 196.789076 
L 302.117797 196.846914 
L 302.011495 196.903365 
L 301.891723 197.089775 
L 301.916598 197.118373 
L 301.875952 197.290095 
L 301.841973 197.332162 
L 301.838758 197.370947 
L 301.851686 197.406482 
L 301.933689 197.484932 
L 302.07952 197.57773 
L 302.123212 197.568119 
L 302.225352 197.633437 
L 302.225047 197.699059 
L 302.181694 197.761771 
L 302.177362 197.858699 
L 302.246132 197.965915 
L 302.336561 198.39857 
L 302.330454 198.416377 
L 302.263832 198.610633 
L 302.270296 198.66881 
L 302.347933 198.733756 
L 302.677704 198.854002 
L 302.916808 198.785198 
L 302.965306 198.785198 
L 303.033196 198.846624 
L 303.052588 198.904801 
L 303.01289 199.012119 
L 303.023178 199.178358 
L 303.051877 199.223302 
L 303.031571 199.413942 
L 303.086533 199.446263 
L 303.251385 199.459191 
L 303.29555 199.511784 
L 303.346316 199.74192 
L 303.29555 199.856987 
L 303.293418 199.960244 
L 303.31281 200.005493 
L 303.335418 200.02167 
L 303.455055 200.037813 
L 303.513232 200.144488 
L 303.581122 200.154201 
L 303.677982 200.060082 
L 303.850617 199.972089 
L 304.253355 199.829946 
L 304.30412 199.843484 
L 304.353701 199.88589 
L 304.353701 199.931138 
L 304.295524 200.024885 
L 304.295524 200.057239 
L 304.305203 200.092775 
L 304.379557 200.144488 
L 304.331059 200.209163 
L 304.318131 200.264125 
L 304.334308 200.309373 
L 304.349207 200.322409 
L 304.386021 200.354622 
L 304.38927 200.399871 
L 304.266418 200.445119 
L 304.229123 200.59332 
L 304.243202 200.69634 
L 304.17213 200.845251 
L 304.111178 200.841867 
L 304.009648 200.787717 
L 303.904733 200.896016 
L 303.803203 201.16338 
L 303.904733 201.532274 
L 303.962267 201.555964 
L 304.033338 201.532274 
L 304.090872 201.532274 
L 304.114563 201.569501 
L 304.077335 201.70826 
L 304.033338 201.775947 
L 303.982573 201.779331 
L 303.837046 201.721797 
L 303.835945 201.721568 
L 303.674597 201.687954 
L 303.640754 201.715028 
L 303.674597 201.792868 
L 303.711825 201.830096 
L 303.710336 201.940561 
L 303.66106 202.127919 
L 303.58921 202.214998 
L 303.58921 202.282854 
L 303.591437 202.285918 
L 303.640923 202.353993 
L 303.650602 202.399242 
L 303.647387 202.444491 
L 303.621531 202.48974 
L 303.618282 202.593199 
L 303.657066 202.631984 
L 303.718492 202.651376 
L 303.757277 202.683697 
L 303.757277 202.722515 
L 303.695885 202.800084 
L 303.679708 202.864725 
L 303.708813 202.922936 
L 303.708813 202.974649 
L 303.673244 203.00697 
L 303.573033 203.019898 
L 303.556856 203.03929 
L 303.550392 203.084539 
L 303.576248 203.133037 
L 303.566569 203.184749 
L 303.505143 203.249424 
L 303.369363 203.278496 
L 303.359684 203.307601 
L 303.440502 203.417491 
L 303.427574 203.459525 
L 303.369363 203.472453 
L 303.295516 203.457934 
L 303.078884 203.644073 
L 303.004429 203.735451 
L 303.013779 203.78343 
L 303.032316 203.878541 
L 302.99766 203.944062 
L 302.941717 203.979124 
L 302.923746 204.011038 
L 302.960906 204.048943 
L 303.128702 204.106206 
L 303.153475 204.137139 
L 303.111645 204.686182 
L 303.138618 204.743411 
L 303.179756 204.772419 
L 303.243296 204.817224 
L 303.298258 204.885114 
L 303.311186 204.953004 
L 303.259473 205.056429 
L 303.265937 205.114606 
L 303.278865 205.134033 
L 303.388789 205.159889 
L 303.411397 205.205138 
L 303.379076 205.302099 
L 303.395253 205.373238 
L 303.518071 205.457272 
L 303.540712 205.499305 
L 303.540712 205.518698 
L 303.495464 205.547803 
L 303.498679 205.60598 
L 303.56332 205.667406 
L 303.530999 205.709406 
L 303.479287 205.722334 
L 303.434038 205.806401 
L 303.434038 205.864578 
L 303.56332 205.98743 
L 303.569784 206.081176 
L 303.532116 206.138169 
L 303.508392 206.220171 
L 303.530999 206.326846 
L 303.64556 206.39961 
L 303.631988 206.526421 
L 303.541897 206.668699 
L 303.634459 206.766473 
L 303.689421 206.798793 
L 303.712028 206.857004 
L 303.690131 207.009774 
L 303.525923 207.091675 
L 303.499891 207.230736 
L 303.477425 207.350747 
L 303.307531 207.658486 
L 303.317616 207.684782 
L 303.4227 207.770203 
L 303.461519 207.925375 
L 303.455055 208.028801 
L 303.4227 208.083763 
L 303.451806 208.183973 
L 303.515194 208.203738 
L 303.544401 208.233114 
L 303.539866 208.291122 
L 303.410584 208.398575 
L 303.4227 208.468428 
L 303.383916 208.516926 
L 303.248169 208.549246 
L 303.235241 208.568638 
L 303.222279 208.633313 
L 303.261098 208.72706 
L 303.215815 208.82727 
L 303.065448 208.959192 
L 303.049677 209.204321 
L 303.11926 209.363656 
L 303.32584 209.507524 
L 303.368415 209.760437 
L 303.362763 209.847076 
L 303.330578 209.921498 
L 303.311186 210.047565 
L 303.349971 210.102527 
L 303.523767 210.173319 
L 303.524535 210.173632 
L 303.547177 210.199488 
L 303.556856 210.244737 
L 303.534248 210.309412 
L 303.553641 210.438694 
L 303.718492 210.46455 
L 303.747598 210.516297 
L 303.721741 210.564761 
L 303.737885 210.622972 
L 303.857487 210.674685 
L 303.886593 210.719933 
L 303.83488 210.855713 
L 303.863952 210.917139 
L 303.954483 210.955924 
L 303.964162 210.975316 
L 303.941352 211.043883 
L 303.941995 211.119185 
L 303.942367 211.16528 
L 304.017499 211.232324 
L 304.140351 211.238788 
L 304.232778 211.35257 
L 304.276131 211.374534 
L 304.301988 211.406854 
L 304.282595 211.516778 
L 304.301988 211.558812 
L 304.431304 211.61374 
L 304.476552 211.649309 
L 304.466839 211.726912 
L 304.518552 211.74952 
L 304.609084 211.752769 
L 304.631691 211.772161 
L 304.59937 211.882051 
L 304.609084 211.930549 
L 304.647868 211.969333 
L 304.764256 211.988725 
L 304.822433 212.046936 
L 304.890323 212.321678 
L 304.815969 212.499491 
L 304.764256 212.528563 
L 304.741615 212.586774 
L 304.764256 212.644951 
L 304.809505 212.690199 
L 304.887074 212.816266 
L 304.893538 212.8583 
L 304.825648 212.987616 
L 304.919394 213.036114 
L 304.945285 213.078113 
L 304.938821 213.100755 
L 304.870931 213.142788 
L 304.867682 213.162181 
L 304.870931 213.184788 
L 304.961428 213.249463 
L 304.964677 213.30764 
L 304.893538 213.381994 
L 304.893538 213.436956 
L 304.972089 213.571314 
L 305.092064 213.681069 
L 305.128175 213.95713 
L 305.170852 214.097851 
L 305.08912 214.237016 
L 305.179617 214.340441 
L 305.179617 214.38569 
L 305.118225 214.527934 
L 305.192782 214.623982 
L 305.256645 214.647943 
L 305.224223 214.748458 
L 305.114976 214.899705 
L 305.108512 214.964346 
L 305.137617 215.028987 
L 305.192579 215.064557 
L 305.208722 215.100126 
L 305.166689 215.184159 
L 305.163474 215.226193 
L 305.205507 215.268193 
L 305.483328 215.351617 
L 305.489962 215.429829 
L 305.557852 215.46215 
L 305.635421 215.475078 
L 305.664526 215.497719 
L 305.687168 215.520361 
L 305.674206 215.568824 
L 305.703311 215.636715 
L 305.803522 215.756317 
L 305.867689 215.798351 
L 305.891244 215.937109 
L 305.86647 216.115295 
L 305.766361 216.181425 
L 305.753433 216.210497 
L 305.77929 216.291315 
L 305.814825 216.310707 
L 305.831003 216.339813 
L 305.837873 216.43004 
L 305.786126 216.516205 
L 305.763112 216.585483 
L 305.782505 216.64366 
L 305.869787 216.714799 
L 305.995854 216.714799 
L 306.086385 216.74387 
L 306.141347 216.831153 
L 306.157491 216.91522 
L 306.186596 216.931363 
L 306.290022 216.941076 
L 306.338519 216.970182 
L 306.354697 217.041287 
L 306.315878 217.131784 
L 306.315878 217.170603 
L 306.348232 217.241708 
L 306.464586 217.238459 
L 306.500156 217.2611 
L 306.516299 217.312813 
L 306.500156 217.367775 
L 306.509835 217.409808 
L 306.587438 217.455057 
L 306.768467 217.493842 
L 306.789551 217.567824 
L 306.771682 217.619909 
L 306.797539 217.671655 
L 306.907462 217.700727 
L 307.003104 217.673009 
L 307.047811 217.688476 
L 307.12159 217.775115 
L 307.438873 218.275525 
L 307.416468 218.458043 
L 307.50463 218.768929 
L 307.543923 218.799117 
L 307.800862 218.838883 
L 307.815314 218.936319 
L 307.910177 219.090239 
L 308.062066 219.168384 
L 308.203735 219.207134 
L 308.210199 219.258847 
L 308.177879 219.342881 
L 308.223128 219.510981 
L 308.278089 219.565943 
L 308.415765 219.576874 
L 308.70956 219.503536 
L 308.789938 219.540696 
L 308.784286 219.612613 
L 308.813256 219.645103 
L 309.074934 219.711504 
L 309.164383 219.823593 
L 309.086306 219.923398 
L 309.101975 219.964382 
L 309.281853 220.056335 
L 309.505254 220.220205 
L 309.743072 220.268838 
L 309.786629 220.294322 
L 309.743343 220.660915 
L 309.832724 220.832569 
L 309.838342 220.897515 
L 309.732513 221.182917 
L 309.769402 221.30895 
L 309.807104 221.350341 
L 309.823247 221.398838 
L 309.76832 221.511977 
L 309.80064 221.56369 
L 309.881154 221.598921 
L 309.911308 221.642985 
L 309.91053 221.793216 
L 309.839425 221.893427 
L 309.820032 221.951604 
L 309.832961 221.996853 
L 309.930531 222.111616 
L 309.947284 222.164209 
L 309.886095 222.408626 
L 309.809439 222.551175 
L 309.787712 222.60458 
L 309.816783 222.653078 
L 309.916994 222.678934 
L 309.962277 222.733896 
L 309.994597 222.788824 
L 309.991348 222.847035 
L 309.962277 222.901997 
L 309.975205 222.956925 
L 310.033382 222.989245 
L 310.085095 223.008671 
L 310.104487 223.031279 
L 310.1142 223.060384 
L 310.104487 223.086241 
L 310.081879 223.108882 
L 310.036597 223.147666 
L 309.973682 223.172948 
L 309.8422 223.247979 
L 309.824398 223.29827 
L 309.861457 223.768457 
L 309.925083 224.035246 
L 310.061066 224.091663 
L 310.227169 224.371582 
L 310.289611 224.558703 
L 310.307446 224.566419 
L 310.334183 224.671605 
L 310.310831 224.772932 
L 310.288595 224.800751 
L 310.195018 224.867389 
L 310.194003 224.983269 
L 310.165067 225.055999 
L 310.165913 225.206805 
L 310.201482 225.261767 
L 310.211161 225.290873 
L 310.204697 225.342586 
L 310.198233 225.38137 
L 310.198233 225.420189 
L 310.204697 225.446045 
L 310.227339 225.475117 
L 310.264296 225.474981 
L 310.303283 225.481276 
L 310.342914 225.581757 
L 310.327515 225.601759 
L 310.35987 225.691715 
L 310.437439 225.749892 
L 310.502114 225.785461 
L 310.524721 225.863031 
L 310.532742 225.966118 
L 310.441602 226.35745 
L 310.473922 226.480403 
L 310.544046 226.570089 
L 310.631938 226.631176 
L 310.818889 226.951336 
L 310.791103 227.176361 
L 310.745144 227.220933 
L 310.793066 227.287401 
L 311.029294 227.431033 
L 311.037146 227.54143 
L 310.898083 227.592196 
L 310.938593 227.686517 
L 311.024827 227.820808 
L 311.160471 227.921357 
L 311.201591 228.008741 
L 311.244911 228.185066 
L 311.255977 228.535414 
L 311.318182 228.633627 
L 311.196988 229.035756 
L 311.198105 229.067467 
L 311.246975 229.143243 
L 311.236957 229.281662 
L 311.156951 229.503608 
L 311.100297 229.600299 
L 310.919235 229.735639 
L 310.670519 230.192695 
L 310.525127 230.566226 
L 310.54628 230.678383 
L 310.571514 230.736402 
L 310.649536 230.915795 
L 310.595217 231.205021 
L 310.656305 231.325673 
L 310.671839 231.397591 
L 310.709811 231.828486 
L 310.713162 232.144787 
L 310.782 232.707807 
L 310.969729 233.156098 
L 311.060024 233.24514 
L 311.087132 233.314959 
L 311.046825 233.60493 
L 311.008006 233.66727 
L 310.560426 233.666796 
L 309.86545 233.668489 
L 309.53683 233.665375 
L 309.159374 233.661788 
L 308.456411 233.6648 
L 307.751485 233.656609 
L 307.049199 233.65133 
L 306.349755 233.64825 
L 303.297344 233.646558 
L 302.83538 233.660975 
L 299.82597 233.656792 
L 296.286768 233.651871 
L 296.228929 233.667676 
L 295.57795 233.662634 
L 292.74789 233.642023 
L 292.245822 233.659148 
L 291.334282 233.666153 
L 288.514998 233.670788 
L 288.514548 233.670789 
L 288.513901 233.67079 
L 285.675753 233.672956 
L 285.448494 233.673734 
L 279.929705 233.670891 
L 279.593808 233.671805 
L 278.678274 233.665273 
L 278.675195 233.665273 
L 277.877741 233.66683 
L 272.662697 233.663649 
L 269.943407 233.662261 
L 269.688396 233.664495 
L 263.79479 233.645847 
L 263.115898 233.643847 
L 262.84125 233.643038 
L 262.123476 233.638491 
L 262.120079 233.638469 
L 260.011191 233.635626 
L 256.148905 233.635525 
L 256.115298 233.635457 
L 248.368931 233.624661 
L 245.23883 233.599069 
L 241.23266 233.566315 
L 237.882306 233.550803 
L 231.788636 233.522589 
L 231.753168 233.522589 
L 228.363236 233.50824 
L 228.359433 233.508229 
L 225.411204 233.500117 
L 225.089555 233.500997 
L 221.360037 233.502689 
L 221.323723 233.502419 
L 221.052028 233.504009 
L 221.031823 233.503942 
L 219.831192 233.504314 
L 219.204377 233.499982 
L 218.943714 233.499745 
L 218.493461 233.50076 
L 217.796183 233.497444 
L 216.885827 233.496225 
L 216.879533 233.496225 
L 215.744896 233.492705 
L 215.505318 233.49257 
L 214.974144 233.493924 
L 211.962278 233.494093 
L 211.864605 233.493382 
L 208.627814 233.468981 
L 207.870397 233.469184 
L 205.813458 233.470403 
L 205.101493 233.474227 
L 204.252089 233.475648 
L 203.243655 233.474768 
L 203.194412 233.474701 
L 203.188693 233.47399 
L 203.158166 233.474701 
L 200.170328 233.462585 
L 198.769814 233.449829 
L 198.762033 233.449758 
L 195.868991 233.444682 
L 194.525032 233.44035 
L 192.37482 233.432904 
L 191.862328 233.428471 
L 191.039661 233.425425 
L 190.976441 233.426237 
L 189.91406 233.421533 
L 189.563645 233.422209 
L 188.92935 233.421262 
L 185.411794 233.406675 
L 185.38296 233.407454 
L 185.094613 233.406472 
L 185.053629 233.400414 
L 184.756449 233.39571 
L 180.821806 233.389483 
L 180.490952 233.386775 
L 180.346237 233.385557 
L 180.137795 233.383222 
L 179.046647 233.385659 
L 177.810821 233.383437 
L 177.38984 233.38268 
L 177.38456 233.382681 
L 173.467786 233.383086 
L 172.684682 233.3818 
L 170.314115 233.370158 
L 169.314311 233.38285 
L 168.919526 233.377638 
L 168.91824 233.378856 
L 168.659642 233.37889 
L 164.584041 233.375675 
L 163.047344 233.379194 
L 162.932039 233.376115 
L 162.07167 233.376995 
L 161.660336 233.375573 
L 161.52063 233.368669 
L 157.437719 233.376352 
L 157.25185 233.371512 
L 156.042115 233.376352 
L 155.923493 233.376318 
L 155.34257 233.373847 
L 155.077474 233.372358 
L 154.921151 233.371546 
L 154.805745 233.37449 
L 153.970352 233.374524 
L 153.286071 233.370124 
L 151.677896 233.363897 
L 151.146587 233.367349 
L 150.264998 233.36542 
L 149.567857 233.365352 
L 148.504765 233.367857 
L 148.321773 233.364269 
L 148.217569 233.362002 
L 146.656674 233.378991 
L 142.007053 233.367586 
L 141.841897 233.36295 
L 139.593302 233.361054 
L 138.61069 233.357873 
L 137.834219 233.359836 
L 137.792084 233.355944 
L 136.879461 233.359193 
L 136.385515 233.364642 
L 136.159136 233.358922 
L 135.193175 233.354793 
L 135.001418 233.357027 
L 134.967033 233.35855 
L 134.937116 233.360073 
L 134.129035 233.356012 
L 133.974979 233.357535 
L 132.675897 233.355267 
L 132.010839 233.355504 
L 130.853527 233.352052 
L 128.464143 233.35459 
L 127.912156 233.355538 
L 127.379054 233.354996 
L 127.28815 233.35503 
L 127.070494 233.352157 
L 127.067626 233.35212 
L 127.009347 233.351307 
L 127.00153 233.353541 
L 127.000755 233.35354 
L 124.961647 233.34992 
L 124.142906 233.349243 
L 124.060565 233.350732 
L 122.805885 233.343456 
L 122.778777 233.348905 
L 122.445757 233.351138 
L 122.104378 233.348668 
L 121.730847 233.348532 
L 121.677645 233.349277 
L 121.62776 233.349277 
L 121.043655 233.34992 
L 121.033671 233.34992 
L 119.650353 233.346908 
L 115.915284 233.343693 
L 115.063985 233.337668 
L 115.03356 233.340477 
L 113.73353 233.338785 
L 113.731128 233.337838 
L 113.609562 233.33997 
L 113.534565 233.341594 
L 113.27732 233.337229 
L 113.136193 233.334453 
L 112.803613 233.334758 
L 112.628135 233.337465 
L 112.626815 233.335739 
L 111.915357 233.334318 
L 111.46974 233.334386 
L 111.19977 233.331746 
L 110.913421 233.330934 
L 108.377765 233.336619 
L 108.119472 233.332761 
L 105.277432 233.323454 
L 104.97064 233.321897 
L 104.460822 233.326737 
L 104.264868 233.328869 
L 104.210617 233.327854 
L 103.168441 233.33469 
L 97.232937 233.334792 
L 95.871414 233.335841 
L 95.140808 233.33402 
L 93.521999 233.329986 
L 93.337789 233.331509 
L 93.326861 233.331459 
L 92.298354 233.326737 
L 91.56324 233.325789 
L 90.524313 233.327346 
L 89.867918 233.32826 
L 88.410381 233.328429 
L 87.722952 233.326669 
L 86.051659 233.329614 
L 85.788966 233.330088 
L 83.565585 233.332084 
L 83.56501 233.331983 
L 80.686994 233.331983 
L 80.473374 233.343997 
L 79.259577 233.328192 
L 79.032318 233.330832 
L 78.546562 233.326534 
L 78.463375 233.327279 
L 74.271555 233.332693 
L 73.649749 233.327549 
L 70.817185 233.329309 
L 70.817185 233.328971 
L 70.55659 233.328937 
L 57.798815 233.326635 
L 57.752145 231.469001 
L 57.788121 227.280971 
L 57.805787 227.245232 
L 57.799681 221.993195 
L 57.797935 220.492002 
L 57.798172 219.904818 
L 57.797529 219.059543 
L 57.776478 218.482681 
L 57.812285 214.222734 
L 57.810476 213.168783 
L 57.804636 209.766867 
L 57.804631 209.765093 
L 57.797766 207.489573 
L 57.794449 207.315516 
L 57.801286 207.063348 
L 57.800169 207.03475 
L 57.800203 206.924894 
L 57.783315 203.358908 
L 57.795465 199.869746 
L 57.795702 199.865617 
L 57.794652 199.6212 
L 57.811236 196.36011 
L 57.812048 196.249306 
L 57.807208 195.816922 
L 57.806125 195.686184 
L 57.805042 195.46962 
L 57.801827 194.973034 
L 57.813199 194.884094 
L 57.811066 194.491137 
L 57.820983 193.319577 
L 57.796311 190.333364 
L 57.808427 188.701837 
L 57.810728 188.631476 
L 57.811879 188.60051 
L 57.81083 188.446928 
L 57.808562 188.361507 
L 57.809713 188.258656 
L 57.803431 186.459576 
L 57.803215 186.397739 
L 57.802538 186.00864 
L 57.818444 184.940438 
L 57.811593 184.193906 
L 57.811473 184.180788 
L 57.820678 182.793746 
L 57.826634 182.085233 
L 57.843962 179.911974 
L 57.850629 177.216882 
L 57.839495 176.910294 
L 57.856383 176.479534 
L 57.873305 172.347583 
L 57.87476 172.341288 
L 57.902342 170.447271 
L 57.900718 170.376132 
L 57.896149 170.278697 
L 57.919772 169.146226 
L 57.926777 168.449626 
L 57.907554 167.47666 
L 57.87036 165.496037 
L 57.864675 165.328986 
L 57.849919 164.752801 
L 57.842169 164.031224 
L 57.84359 163.920522 
L 57.800304 158.225239 
L 57.796954 157.823889 
L 57.799458 157.274812 
L 57.794855 157.226078 
L 57.790388 155.618444 
L 57.789136 155.511127 
L 57.791979 155.457214 
L 57.784669 155.155398 
L 57.778644 155.099082 
L 57.768728 152.204483 
L 57.767408 151.126094 
L 57.757831 151.105145 
L 57.749144 150.613471 
L 57.749065 150.609 
L 57.74717 150.566966 
L 57.741586 149.877168 
L 57.747475 149.538463 
L 57.743075 148.697858 
L 57.739623 148.652237 
L 57.736171 148.473611 
L 57.737355 148.459668 
L 57.732854 147.980952 
L 57.727338 147.06535 
L 57.71045 146.866181 
L 57.723276 146.262854 
L 57.728759 145.990041 
L 57.716474 145.824716 
L 57.72419 145.80133 
L 57.719621 145.522189 
L 57.718674 144.742672 
L 57.713157 143.766761 
L 57.705102 143.514661 
L 57.714646 142.799379 
L 57.726289 142.614797 
L 57.725138 142.568397 
L 57.726424 142.332542 
L 57.718403 141.836837 
L 57.716102 141.793517 
L 57.716846 141.538371 
L 57.716982 141.490787 
L 57.717388 141.345023 
L 57.716237 141.310232 
L 57.700771 138.503186 
L 57.693731 138.360265 
L 57.704392 137.87698 
L 57.694103 137.101423 
L 57.69302 136.813753 
L 57.681818 135.110241 
L 57.690211 134.489315 
" clip-path="url(#p89276f0d7f)" style="fill: #00a800"/>
   </g>
   <g id="PathCollection_1">
    <defs>
     <path id="md702d458bd" d="M 0 1.581139 
C 0.419323 1.581139 0.821528 1.41454 1.118034 1.118034 
C 1.41454 0.821528 1.581139 0.419323 1.581139 0 
C 1.581139 -0.419323 1.41454 -0.821528 1.118034 -1.118034 
C 0.821528 -1.41454 0.419323 -1.581139 0 -1.581139 
C -0.419323 -1.581139 -0.821528 -1.41454 -1.118034 -1.118034 
C -1.41454 -0.821528 -1.581139 -0.419323 -1.581139 0 
C -1.581139 0.419323 -1.41454 0.821528 -1.118034 1.118034 
C -0.821528 1.41454 -0.419323 1.581139 0 1.581139 
z
" style="stroke: #000000"/>
    </defs>
    <g clip-path="url(#p89276f0d7f)">
     <use xlink:href="#md702d458bd" x="168.200488" y="203.695312" style="stroke: #000000"/>
    </g>
   </g>
   <g id="text_1">
    <!-- Bismarck -->
    <g transform="translate(171.200488 200.695312) scale(0.1 -0.1)">
     <defs>
      <path id="DejaVuSans-42" d="M 1259 2228 
L 1259 519 
L 2272 519 
Q 2781 519 3026 730 
Q 3272 941 3272 1375 
Q 3272 1813 3026 2020 
Q 2781 2228 2272 2228 
L 1259 2228 
z
M 1259 4147 
L 1259 2741 
L 2194 2741 
Q 2656 2741 2882 2914 
Q 3109 3088 3109 3444 
Q 3109 3797 2882 3972 
Q 2656 4147 2194 4147 
L 1259 4147 
z
M 628 4666 
L 2241 4666 
Q 2963 4666 3353 4366 
Q 3744 4066 3744 3513 
Q 3744 3084 3544 2831 
Q 3344 2578 2956 2516 
Q 3422 2416 3680 2098 
Q 3938 1781 3938 1306 
Q 3938 681 3513 340 
Q 3088 0 2303 0 
L 628 0 
L 628 4666 
z
" transform="scale(0.015625)"/>
      <path id="DejaVuSans-69" d="M 603 3500 
L 1178 3500 
L 1178 0 
L 603 0 
L 603 3500 
z
M 603 4863 
L 1178 4863 
L 1178 4134 
L 603 4134 
L 603 4863 
z
" transform="scale(0.015625)"/>
      <path id="DejaVuSans-73" d="M 2834 3397 
L 2834 2853 
Q 2591 2978 2328 3040 
Q 2066 3103 1784 3103 
Q 1356 3103 1142 2972 
Q 928 2841 928 2578 
Q 928 2378 1081 2264 
Q 1234 2150 1697 2047 
L 1894 2003 
Q 2506 1872 2764 1633 
Q 3022 1394 3022 966 
Q 3022 478 2636 193 
Q 2250 -91 1575 -91 
Q 1294 -91 989 -36 
Q 684 19 347 128 
L 347 722 
Q 666 556 975 473 
Q 1284 391 1588 391 
Q 1994 391 2212 530 
Q 2431 669 2431 922 
Q 2431 1156 2273 1281 
Q 2116 1406 1581 1522 
L 1381 1569 
Q 847 1681 609 1914 
Q 372 2147 372 2553 
Q 372 3047 722 3315 
Q 1072 3584 1716 3584 
Q 2034 3584 2315 3537 
Q 2597 3491 2834 3397 
z
" transform="scale(0.015625)"/>
      <path id="DejaVuSans-6d" d="M 3328 2828 
Q 3544 3216 3844 3400 
Q 4144 3584 4550 3584 
Q 5097 3584 5394 3201 
Q 5691 2819 5691 2113 
L 5691 0 
L 5113 0 
L 5113 2094 
Q 5113 2597 4934 2840 
Q 4756 3084 4391 3084 
Q 3944 3084 3684 2787 
Q 3425 2491 3425 1978 
L 3425 0 
L 2847 0 
L 2847 2094 
Q 2847 2600 2669 2842 
Q 2491 3084 2119 3084 
Q 1678 3084 1418 2786 
Q 1159 2488 1159 1978 
L 1159 0 
L 581 0 
L 581 3500 
L 1159 3500 
L 1159 2956 
Q 1356 3278 1631 3431 
Q 1906 3584 2284 3584 
Q 2666 3584 2933 3390 
Q 3200 3197 3328 2828 
z
" transform="scale(0.015625)"/>
      <path id="DejaVuSans-61" d="M 2194 1759 
Q 1497 1759 1228 1600 
Q 959 1441 959 1056 
Q 959 750 1161 570 
Q 1363 391 1709 391 
Q 2188 391 2477 730 
Q 2766 1069 2766 1631 
L 2766 1759 
L 2194 1759 
z
M 3341 1997 
L 3341 0 
L 2766 0 
L 2766 531 
Q 2569 213 2275 61 
Q 1981 -91 1556 -91 
Q 1019 -91 701 211 
Q 384 513 384 1019 
Q 384 1609 779 1909 
Q 1175 2209 1959 2209 
L 2766 2209 
L 2766 2266 
Q 2766 2663 2505 2880 
Q 2244 3097 1772 3097 
Q 1472 3097 1187 3025 
Q 903 2953 641 2809 
L 641 3341 
Q 956 3463 1253 3523 
Q 1550 3584 1831 3584 
Q 2591 3584 2966 3190 
Q 3341 2797 3341 1997 
z
" transform="scale(0.015625)"/>
      <path id="DejaVuSans-72" d="M 2631 2963 
Q 2534 3019 2420 3045 
Q 2306 3072 2169 3072 
Q 1681 3072 1420 2755 
Q 1159 2438 1159 1844 
L 1159 0 
L 581 0 
L 581 3500 
L 1159 3500 
L 1159 2956 
Q 1341 3275 1631 3429 
Q 1922 3584 2338 3584 
Q 2397 3584 2469 3576 
Q 2541 3569 2628 3553 
L 2631 2963 
z
" transform="scale(0.015625)"/>
      <path id="DejaVuSans-63" d="M 3122 3366 
L 3122 2828 
Q 2878 2963 2633 3030 
Q 2388 3097 2138 3097 
Q 1578 3097 1268 2742 
Q 959 2388 959 1747 
Q 959 1106 1268 751 
Q 1578 397 2138 397 
Q 2388 397 2633 464 
Q 2878 531 3122 666 
L 3122 134 
Q 2881 22 2623 -34 
Q 2366 -91 2075 -91 
Q 1284 -91 818 406 
Q 353 903 353 1747 
Q 353 2603 823 3093 
Q 1294 3584 2113 3584 
Q 2378 3584 2631 3529 
Q 2884 3475 3122 3366 
z
" transform="scale(0.015625)"/>
      <path id="DejaVuSans-6b" d="M 581 4863 
L 1159 4863 
L 1159 1991 
L 2875 3500 
L 3609 3500 
L 1753 1863 
L 3688 0 
L 2938 0 
L 1159 1709 
L 1159 0 
L 581 0 
L 581 4863 
z
" transform="scale(0.015625)"/>
     </defs>
     <use xlink:href="#DejaVuSans-42"/>
     <use xlink:href="#DejaVuSans-69" x="68.603516"/>
     <use xlink:href="#DejaVuSans-73" x="96.386719"/>
     <use xlink:href="#DejaVuSans-6d" x="148.486328"/>
     <use xlink:href="#DejaVuSans-61" x="245.898438"/>
     <use xlink:href="#DejaVuSans-72" x="307.177734"/>
     <use xlink:href="#DejaVuSans-63" x="346.041016"/>
     <use xlink:href="#DejaVuSans-6b" x="401.021484"/>
    </g>
   </g>
   <g id="text_2">
    <!-- North Dakota -->
    <g transform="translate(144.557813 118.738892) scale(0.12 -0.12)">
     <defs>
      <path id="DejaVuSans-4e" d="M 628 4666 
L 1478 4666 
L 3547 763 
L 3547 4666 
L 4159 4666 
L 4159 0 
L 3309 0 
L 1241 3903 
L 1241 0 
L 628 0 
L 628 4666 
z
" transform="scale(0.015625)"/>
      <path id="DejaVuSans-6f" d="M 1959 3097 
Q 1497 3097 1228 2736 
Q 959 2375 959 1747 
Q 959 1119 1226 758 
Q 1494 397 1959 397 
Q 2419 397 2687 759 
Q 2956 1122 2956 1747 
Q 2956 2369 2687 2733 
Q 2419 3097 1959 3097 
z
M 1959 3584 
Q 2709 3584 3137 3096 
Q 3566 2609 3566 1747 
Q 3566 888 3137 398 
Q 2709 -91 1959 -91 
Q 1206 -91 779 398 
Q 353 888 353 1747 
Q 353 2609 779 3096 
Q 1206 3584 1959 3584 
z
" transform="scale(0.015625)"/>
      <path id="DejaVuSans-74" d="M 1172 4494 
L 1172 3500 
L 2356 3500 
L 2356 3053 
L 1172 3053 
L 1172 1153 
Q 1172 725 1289 603 
Q 1406 481 1766 481 
L 2356 481 
L 2356 0 
L 1766 0 
Q 1100 0 847 248 
Q 594 497 594 1153 
L 594 3053 
L 172 3053 
L 172 3500 
L 594 3500 
L 594 4494 
L 1172 4494 
z
" transform="scale(0.015625)"/>
      <path id="DejaVuSans-68" d="M 3513 2113 
L 3513 0 
L 2938 0 
L 2938 2094 
Q 2938 2591 2744 2837 
Q 2550 3084 2163 3084 
Q 1697 3084 1428 2787 
Q 1159 2491 1159 1978 
L 1159 0 
L 581 0 
L 581 4863 
L 1159 4863 
L 1159 2956 
Q 1366 3272 1645 3428 
Q 1925 3584 2291 3584 
Q 2894 3584 3203 3211 
Q 3513 2838 3513 2113 
z
" transform="scale(0.015625)"/>
      <path id="DejaVuSans-20" transform="scale(0.015625)"/>
      <path id="DejaVuSans-44" d="M 1259 4147 
L 1259 519 
L 2022 519 
Q 2988 519 3436 956 
Q 3884 1394 3884 2338 
Q 3884 3275 3436 3711 
Q 2988 4147 2022 4147 
L 1259 4147 
z
M 628 4666 
L 1925 4666 
Q 3281 4666 3915 4102 
Q 4550 3538 4550 2338 
Q 4550 1131 3912 565 
Q 3275 0 1925 0 
L 628 0 
L 628 4666 
z
" transform="scale(0.015625)"/>
     </defs>
     <use xlink:href="#DejaVuSans-4e"/>
     <use xlink:href="#DejaVuSans-6f" x="74.804688"/>
     <use xlink:href="#DejaVuSans-72" x="135.986328"/>
     <use xlink:href="#DejaVuSans-74" x="177.099609"/>
     <use xlink:href="#DejaVuSans-68" x="216.308594"/>
     <use xlink:href="#DejaVuSans-20" x="279.6875"/>
     <use xlink:href="#DejaVuSans-44" x="311.474609"/>
     <use xlink:href="#DejaVuSans-61" x="388.476562"/>
     <use xlink:href="#DejaVuSans-6b" x="449.755859"/>
     <use xlink:href="#DejaVuSans-6f" x="504.041016"/>
     <use xlink:href="#DejaVuSans-74" x="565.222656"/>
     <use xlink:href="#DejaVuSans-61" x="604.431641"/>
    </g>
   </g>
  </g>
 </g>
 <defs>
  <clipPath id="p89276f0d7f">
   <rect x="45" y="124.738892" width="279" height="114.122215"/>
  </clipPath>
 </defs>
</svg>
