<?xml version="1.0" encoding="utf-8" standalone="no"?>
<!DOCTYPE svg PUBLIC "-//W3C//DTD SVG 1.1//EN"
  "http://www.w3.org/Graphics/SVG/1.1/DTD/svg11.dtd">
<svg xmlns:xlink="http://www.w3.org/1999/xlink" width="460.8pt" height="345.6pt" viewBox="0 0 460.8 345.6" xmlns="http://www.w3.org/2000/svg" version="1.1">
 <metadata>
  <rdf:RDF xmlns:dc="http://purl.org/dc/elements/1.1/" xmlns:cc="http://creativecommons.org/ns#" xmlns:rdf="http://www.w3.org/1999/02/22-rdf-syntax-ns#">
   <cc:Work>
    <dc:type rdf:resource="http://purl.org/dc/dcmitype/StillImage"/>
    <dc:date>2023-06-19T14:47:45.030285</dc:date>
    <dc:format>image/svg+xml</dc:format>
    <dc:creator>
     <cc:Agent>
      <dc:title>Matplotlib v3.7.1, https://matplotlib.org/</dc:title>
     </cc:Agent>
    </dc:creator>
   </cc:Work>
  </rdf:RDF>
 </metadata>
 <defs>
  <style type="text/css">*{stroke-linejoin: round; stroke-linecap: butt}</style>
 </defs>
 <g id="figure_1">
  <g id="patch_1">
   <path d="M 0 345.6 
L 460.8 345.6 
L 460.8 0 
L 0 0 
z
" style="fill: #ffffff"/>
  </g>
  <g id="axes_1">
   <g id="PatchCollection_1">
    <path d="M 155.48405 149.416854 
L 155.497006 147.692627 
L 155.500304 147.253713 
L 155.492948 146.490425 
L 155.492975 146.473042 
L 155.49549 146.386577 
L 155.49561 146.383034 
L 155.511987 145.897992 
L 155.51956 144.362914 
L 155.555062 141.939144 
L 155.555097 141.93675 
L 155.59231 138.697292 
L 155.603696 132.353499 
L 155.608217 131.946715 
L 155.625792 130.365155 
L 155.622952 130.336713 
L 155.646589 127.895966 
L 155.703356 124.263926 
L 155.712633 120.279427 
L 155.71577 120.091361 
L 155.714174 119.595588 
L 155.717149 118.393927 
L 155.742598 113.690616 
L 155.742626 113.653604 
L 155.743356 111.658969 
L 155.743356 111.638649 
L 155.749549 105.4851 
L 155.706088 97.844577 
L 155.680504 96.845601 
L 155.660166 92.836841 
L 155.660139 92.783103 
L 155.656731 92.587952 
L 155.642992 81.844719 
L 155.653675 70.927069 
L 155.685886 66.819093 
L 155.670335 66.60732 
L 155.685696 62.28757 
L 155.658949 57.967821 
L 155.66187 53.832958 
L 155.661789 53.822729 
L 155.993953 53.779842 
L 158.708658 53.731599 
L 159.092019 53.731461 
L 159.725652 53.738234 
L 161.316428 53.729145 
L 163.056952 53.772274 
L 170.660117 53.800543 
L 172.943268 53.838349 
L 172.944769 53.838359 
L 173.91673 53.844515 
L 175.895048 53.857045 
L 176.413146 53.844293 
L 177.051295 53.880061 
L 182.656551 53.858773 
L 188.211828 53.90712 
L 188.70902 53.897548 
L 188.745774 53.896822 
L 190.894756 53.927855 
L 193.453277 53.855248 
L 196.179503 53.801648 
L 204.391198 53.748149 
L 204.396072 53.748118 
L 213.151076 53.70181 
L 219.844508 53.709862 
L 219.905142 53.697248 
L 224.791303 53.656054 
L 225.858194 53.668806 
L 230.890208 53.648175 
L 231.424425 53.631138 
L 234.91821 53.643061 
L 235.275499 53.648072 
L 235.667541 53.648072 
L 236.065343 53.648072 
L 236.279078 53.666457 
L 236.28139 53.666859 
L 236.523537 53.708998 
L 237.608007 53.679139 
L 246.867775 53.722026 
L 246.890033 53.734847 
L 247.945052 53.735158 
L 248.072703 53.719123 
L 249.6115 53.728661 
L 250.013575 53.744627 
L 250.249163 53.736402 
L 250.302279 53.75693 
L 250.679662 53.752749 
L 250.753467 53.751919 
L 251.282626 53.7636 
L 253.853237 53.772792 
L 254.819143 53.738165 
L 259.385174 53.728765 
L 259.468959 53.730389 
L 262.774675 53.732048 
L 262.77554 53.733672 
L 262.986923 53.734156 
L 262.986814 53.734709 
L 263.305889 53.721612 
L 263.306295 53.722994 
L 263.488198 53.711728 
L 263.488388 53.712177 
L 264.173487 53.694933 
L 266.858173 53.711728 
L 267.074964 53.717154 
L 267.329591 53.756032 
L 273.935749 53.733603 
L 274.992255 53.751954 
L 282.374734 53.778944 
L 283.985091 53.757587 
L 284.080775 53.777112 
L 289.831527 53.782078 
L 290.003916 53.782227 
L 293.184279 53.647415 
L 293.589329 53.647415 
L 294.220366 53.598688 
L 295.431974 53.568 
L 296.099792 53.581305 
L 298.416695 53.705404 
L 301.728279 53.83396 
L 304.432978 53.830919 
L 304.433411 53.829641 
L 305.262659 53.800059 
L 310.285586 53.844224 
L 310.287092 53.844227 
L 315.002933 53.852829 
L 315.007504 53.85746 
L 316.237935 53.853728 
L 316.237637 53.858635 
L 316.603202 53.858048 
L 316.6035 53.861261 
L 316.779913 53.861296 
L 316.836031 57.62483 
L 316.796573 58.808209 
L 316.795356 58.807449 
L 316.829189 62.153173 
L 316.827377 66.606387 
L 316.814693 66.936176 
L 316.801035 70.926136 
L 316.820264 71.210585 
L 316.788757 80.601174 
L 316.757466 80.913408 
L 316.787378 81.022992 
L 316.7685 88.2051 
L 316.768497 88.206118 
L 316.740617 96.09306 
L 316.72366 96.524001 
L 316.722903 96.542628 
L 316.731719 97.661418 
L 316.683688 105.254077 
L 316.675682 105.626788 
L 316.677278 105.672647 
L 316.685391 107.891012 
L 316.668948 108.079665 
L 316.659428 108.995805 
L 316.660105 114.744297 
L 316.645784 118.719729 
L 316.644202 119.158771 
L 316.653803 119.377698 
L 316.64166 121.719539 
L 316.649233 122.867979 
L 316.633584 126.005916 
L 316.633574 126.008013 
L 316.63141 128.945916 
L 316.616022 129.874289 
L 316.629814 131.075085 
L 316.617509 138.562861 
L 316.635061 140.04192 
L 316.580295 157.128705 
L 316.608692 161.511247 
L 316.596062 161.597504 
L 316.570532 161.640633 
L 316.578564 165.960348 
L 316.562851 166.677121 
L 316.559218 168.468794 
L 316.551902 172.076351 
L 316.551898 172.078233 
L 316.559795 172.947581 
L 316.560553 173.085123 
L 316.542946 174.599778 
L 316.553602 177.892559 
L 316.552818 177.897293 
L 316.57183 182.729784 
L 316.552331 183.239173 
L 316.558676 186.736365 
L 316.558686 186.741965 
L 316.544623 191.878706 
L 316.565312 195.977075 
L 316.55801 196.974427 
L 316.564799 197.971883 
L 316.597361 198.448234 
L 316.558254 199.978301 
L 316.52607 200.300039 
L 316.510898 200.622053 
L 316.507788 200.646555 
L 316.50933 200.655263 
L 316.493702 204.445634 
L 316.489208 205.535617 
L 316.475956 205.950074 
L 316.48334 208.539318 
L 316.482555 208.55988 
L 316.483448 209.06965 
L 316.483015 209.432477 
L 316.485246 210.115029 
L 316.489857 211.52581 
L 316.508329 211.987404 
L 316.503948 213.623704 
L 316.503948 213.633208 
L 316.507382 216.291119 
L 316.507382 216.308536 
L 316.502677 216.603422 
L 316.502677 216.626334 
L 316.518065 218.35404 
L 316.510817 220.47889 
L 316.497132 221.351763 
L 316.50557 221.794731 
L 316.479607 222.842918 
L 316.506787 223.291657 
L 316.508762 223.379504 
L 316.539836 226.421945 
L 316.556198 227.895061 
L 316.539324 231.856399 
L 316.539322 231.856856 
L 316.540864 238.314726 
L 316.551547 239.395743 
L 316.565258 239.529311 
L 316.597279 243.715458 
L 316.651045 244.632323 
L 316.668867 245.685521 
L 316.669489 247.479165 
L 316.621403 249.742662 
L 316.638956 250.09253 
L 316.596225 250.985896 
L 316.604041 251.702082 
L 316.634331 252.333911 
L 316.644148 252.518625 
L 316.641579 254.287213 
L 316.277447 254.449845 
L 316.068526 254.750502 
L 315.502559 256.004345 
L 315.207338 256.789751 
L 315.116684 256.840828 
L 314.906031 256.85123 
L 314.639613 257.033663 
L 314.577897 257.138029 
L 314.555422 257.312928 
L 314.575814 257.374062 
L 314.731646 257.507215 
L 314.820732 257.642372 
L 314.810834 257.703368 
L 314.205976 258.938826 
L 314.170629 259.15675 
L 314.198079 259.377094 
L 314.170656 259.567199 
L 313.900505 260.025822 
L 313.804929 260.145048 
L 313.739886 260.169273 
L 313.406288 260.035325 
L 313.126131 260.038332 
L 312.705421 260.268421 
L 312.129096 260.454344 
L 311.599045 260.500099 
L 311.450028 260.4907 
L 311.075403 260.296067 
L 310.791567 260.097565 
L 310.694882 259.983488 
L 310.588758 259.759481 
L 310.330291 259.391712 
L 309.415473 258.983821 
L 309.374121 258.937893 
L 309.359192 258.812965 
L 309.410659 258.691665 
L 309.581771 258.530209 
L 309.639674 258.40611 
L 309.56687 258.144815 
L 309.016589 257.34797 
L 308.786816 257.260918 
L 308.088086 256.492826 
L 307.844763 256.04813 
L 306.942305 255.901016 
L 306.75575 255.905059 
L 306.631965 255.956654 
L 306.355594 256.283437 
L 305.829951 256.640597 
L 305.774536 256.625391 
L 305.64821 256.476238 
L 305.511796 256.20461 
L 305.369324 256.166285 
L 305.193127 256.19718 
L 304.736556 256.5222 
L 304.490827 256.575628 
L 304.327152 256.542935 
L 304.26576 256.510278 
L 304.229952 256.451425 
L 304.21973 256.34032 
L 304.240202 256.242278 
L 304.255537 256.072321 
L 304.260648 255.961216 
L 304.204395 255.869706 
L 304.068901 255.777124 
L 303.147538 255.732475 
L 302.437827 255.754523 
L 301.756812 256.083068 
L 301.457912 256.364857 
L 301.229924 256.497837 
L 301.089589 256.427718 
L 300.928077 256.120772 
L 300.823657 256.076053 
L 300.060074 256.703666 
L 299.980562 256.84926 
L 299.881902 256.938731 
L 298.712673 257.270525 
L 298.509242 257.272461 
L 297.998852 257.387159 
L 297.703685 257.641577 
L 297.526298 257.859295 
L 297.472749 257.981596 
L 297.476184 258.173913 
L 297.513831 258.248593 
L 297.804752 258.556335 
L 297.880131 258.720266 
L 297.996472 258.97328 
L 297.983356 259.115695 
L 297.884994 259.291631 
L 297.884994 259.484328 
L 297.878449 259.576495 
L 297.911227 259.685423 
L 298.048912 259.760829 
L 298.153819 259.911641 
L 298.173508 260.020534 
L 298.134158 260.23839 
L 297.966887 260.433086 
L 297.881018 260.533034 
L 297.819978 260.649599 
L 297.807429 260.768237 
L 297.793555 261.508994 
L 297.879044 261.835189 
L 298.167179 262.300793 
L 298.211073 262.504445 
L 298.134239 262.932069 
L 298.183001 263.018568 
L 298.552541 263.250247 
L 298.773389 263.480025 
L 298.746615 264.024214 
L 298.969599 264.388493 
L 299.864161 265.321048 
L 299.796738 265.656366 
L 299.463465 265.718571 
L 299.03732 266.010243 
L 298.981039 266.233973 
L 298.981039 266.409771 
L 299.074019 266.73804 
L 299.092951 266.848039 
L 298.876592 267.401525 
L 298.708914 267.553581 
L 298.649416 267.691814 
L 299.006407 268.244746 
L 298.938822 268.973891 
L 299.092978 269.426605 
L 299.049706 270.197254 
L 298.833347 270.960958 
L 298.830643 271.075 
L 298.944258 271.320364 
L 299.136277 271.527713 
L 299.431065 271.728151 
L 299.501409 271.862894 
L 299.458137 272.115169 
L 299.24716 272.581706 
L 299.263414 273.040502 
L 299.596066 273.383423 
L 300.10724 274.157529 
L 300.237055 274.444362 
L 300.212715 274.900497 
L 300.069377 275.249535 
L 299.905945 275.493586 
L 299.891476 275.592146 
L 299.977452 276.072022 
L 300.004496 276.700948 
L 300.053177 276.91521 
L 300.128903 277.015429 
L 300.142425 277.084545 
L 300.112676 277.219322 
L 299.974747 277.426672 
L 299.685368 277.654757 
L 299.593415 277.806813 
L 299.539326 278.273315 
L 299.58157 278.627537 
L 299.709816 278.905179 
L 299.886256 279.418438 
L 299.93702 280.018335 
L 300.001251 280.199973 
L 300.274945 280.720974 
L 300.947495 281.400424 
L 301.372153 282.798237 
L 301.564739 283.332923 
L 301.791456 284.31265 
L 301.748942 285.289958 
L 302.029505 286.484914 
L 302.138171 287.324196 
L 302.126055 287.606191 
L 302.223308 288.307379 
L 302.361994 288.436696 
L 302.435447 288.620096 
L 302.513364 289.211423 
L 302.504412 289.917345 
L 302.418463 290.758078 
L 302.262225 291.102797 
L 302.01298 291.276314 
L 301.70521 291.368896 
L 301.143083 291.348783 
L 300.871851 291.464899 
L 300.481919 291.892315 
L 300.416822 292.031654 
L 300.523054 292.217198 
L 301.072442 292.486752 
L 301.326258 292.680486 
L 301.553326 292.966179 
L 301.602764 293.181892 
L 301.583535 293.332635 
L 301.500373 293.515276 
L 300.947847 294.006694 
L 300.804374 294.253267 
L 300.683646 294.57186 
L 300.653085 294.841795 
L 300.689569 295.24782 
L 300.775761 295.488 
L 296.157533 290.724764 
L 296.136411 290.704202 
L 292.881539 287.360516 
L 292.878862 287.359998 
L 292.42624 286.912814 
L 289.678594 284.078414 
L 288.212602 282.593168 
L 288.081083 282.441768 
L 287.46081 281.834614 
L 286.919995 281.273319 
L 286.893626 281.256731 
L 286.534471 280.895009 
L 286.52011 280.888651 
L 283.525085 277.835531 
L 282.648806 276.952671 
L 280.942755 275.2377 
L 280.274487 274.565938 
L 280.20793 274.494299 
L 279.92285 274.208813 
L 279.881147 274.173978 
L 279.696458 273.953911 
L 277.318569 271.590091 
L 273.937804 268.181574 
L 273.895939 268.118229 
L 273.360018 267.594705 
L 273.34701 267.582161 
L 273.337887 267.572781 
L 272.77036 266.989244 
L 272.221431 266.454006 
L 270.557039 264.819953 
L 267.983996 262.230831 
L 267.796736 262.042401 
L 266.713131 260.995043 
L 266.175399 260.463122 
L 261.287237 255.609551 
L 261.18947 255.521738 
L 257.033951 251.421987 
L 253.653186 248.118804 
L 253.532431 248.036106 
L 250.614484 245.128304 
L 250.272394 244.812925 
L 249.160825 243.716425 
L 236.749631 231.699063 
L 234.969189 230.017457 
L 233.204596 228.309484 
L 232.284383 227.430081 
L 230.1501 225.39045 
L 229.578669 224.883619 
L 226.607552 222.052156 
L 223.248261 218.819679 
L 223.226841 218.823065 
L 222.145697 217.798447 
L 221.04949 216.796084 
L 218.36686 214.222772 
L 217.508241 213.478663 
L 214.252909 210.368488 
L 213.084546 209.250942 
L 212.308414 208.60923 
L 210.384147 206.761848 
L 208.651305 205.173826 
L 208.652684 205.172859 
L 208.317571 204.83913 
L 202.942197 199.87359 
L 198.159229 195.463474 
L 196.180693 193.639174 
L 194.260511 191.879778 
L 192.918222 190.688934 
L 190.410572 188.346021 
L 189.537403 187.560132 
L 188.854008 186.974542 
L 186.495158 184.799548 
L 184.779678 183.24059 
L 184.045276 182.583257 
L 182.657822 181.382875 
L 181.870737 180.639665 
L 180.456834 179.392595 
L 180.056489 178.992203 
L 179.27703 178.290083 
L 178.43862 177.544689 
L 176.329577 175.669633 
L 175.896265 175.262432 
L 175.1316 174.601194 
L 173.802368 173.396515 
L 173.666825 173.273673 
L 172.674442 172.41134 
L 172.5155 172.289972 
L 170.497172 170.452439 
L 170.497469 170.452474 
L 169.323454 169.423674 
L 169.319099 169.419596 
L 166.851151 167.229984 
L 166.807095 167.19083 
L 166.790517 167.177386 
L 158.227152 159.623294 
L 155.611945 157.333808 
L 155.572811 154.986783 
L 155.547352 153.424816 
L 155.517547 151.596282 
L 155.483969 149.536218 
L 155.48405 149.416854 
" clip-path="url(#p764ad79eaa)" style="fill: #33a1ff"/>
   </g>
   <g id="text_1">
    <!-- NV -->
    <g transform="translate(227.566875 35.472) scale(0.12 -0.12)">
     <defs>
      <path id="DejaVuSans-4e" d="M 628 4666 
L 1478 4666 
L 3547 763 
L 3547 4666 
L 4159 4666 
L 4159 0 
L 3309 0 
L 1241 3903 
L 1241 0 
L 628 0 
L 628 4666 
z
" transform="scale(0.015625)"/>
      <path id="DejaVuSans-56" d="M 1831 0 
L 50 4666 
L 709 4666 
L 2188 738 
L 3669 4666 
L 4325 4666 
L 2547 0 
L 1831 0 
z
" transform="scale(0.015625)"/>
     </defs>
     <use xlink:href="#DejaVuSans-4e"/>
     <use xlink:href="#DejaVuSans-56" x="74.804688"/>
    </g>
   </g>
  </g>
 </g>
 <defs>
  <clipPath id="p764ad79eaa">
   <rect x="147.416366" y="41.472" width="177.487269" height="266.112"/>
  </clipPath>
 </defs>
</svg>
