<?xml version="1.0" encoding="utf-8" standalone="no"?>
<!DOCTYPE svg PUBLIC "-//W3C//DTD SVG 1.1//EN"
  "http://www.w3.org/Graphics/SVG/1.1/DTD/svg11.dtd">
<svg xmlns:xlink="http://www.w3.org/1999/xlink" width="460.8pt" height="345.6pt" viewBox="0 0 460.8 345.6" xmlns="http://www.w3.org/2000/svg" version="1.1">
 <metadata>
  <rdf:RDF xmlns:dc="http://purl.org/dc/elements/1.1/" xmlns:cc="http://creativecommons.org/ns#" xmlns:rdf="http://www.w3.org/1999/02/22-rdf-syntax-ns#">
   <cc:Work>
    <dc:type rdf:resource="http://purl.org/dc/dcmitype/StillImage"/>
    <dc:date>2023-06-19T14:47:43.914705</dc:date>
    <dc:format>image/svg+xml</dc:format>
    <dc:creator>
     <cc:Agent>
      <dc:title>Matplotlib v3.7.1, https://matplotlib.org/</dc:title>
     </cc:Agent>
    </dc:creator>
   </cc:Work>
  </rdf:RDF>
 </metadata>
 <defs>
  <style type="text/css">*{stroke-linejoin: round; stroke-linecap: butt}</style>
 </defs>
 <g id="figure_1">
  <g id="patch_1">
   <path d="M 0 345.6 
L 460.8 345.6 
L 460.8 0 
L 0 0 
z
" style="fill: #ffffff"/>
  </g>
  <g id="axes_1">
   <g id="PatchCollection_1">
    <path d="M 384.490478 254.843433 
L 384.707419 254.434929 
L 384.943853 254.011866 
L 385.12055 253.844868 
L 385.594283 253.878803 
L 386.213469 253.458577 
L 386.64798 253.514243 
L 387.716847 253.256948 
L 388.082385 253.172539 
L 388.741107 252.988038 
L 388.408739 253.498828 
L 387.975997 253.727541 
L 387.334292 254.013258 
L 386.692587 254.332589 
L 386.071986 254.790282 
L 385.76764 254.982116 
L 384.416278 255.146599 
L 384.490478 254.843433 
" clip-path="url(#p8480aca9ab)" style="fill: #c733ff"/>
    <path d="M 380.247119 263.281507 
L 380.333267 263.119647 
L 380.667796 262.929526 
L 380.820009 262.729128 
L 380.884777 262.354024 
L 382.554948 263.082768 
L 382.674422 263.488703 
L 382.446163 265.396766 
L 382.10283 265.625426 
L 382.044311 265.57918 
L 382.046826 264.457293 
L 381.810392 263.887786 
L 381.682742 263.759379 
L 381.126242 263.529864 
L 380.392376 263.568402 
L 380.286735 263.465634 
L 380.247119 263.281507 
" clip-path="url(#p8480aca9ab)" style="fill: #c733ff"/>
    <path d="M 377.449248 258.731551 
L 378.430081 258.157119 
L 379.644401 257.96566 
L 379.535576 258.418215 
L 378.710297 258.970915 
L 378.476771 259.449697 
L 378.009719 259.928587 
L 377.35583 259.401846 
L 377.449248 258.731551 
" clip-path="url(#p8480aca9ab)" style="fill: #c733ff"/>
    <path d="M 297.101053 294.945844 
L 297.372072 294.345506 
L 297.57848 293.975701 
L 297.484983 293.511317 
L 297.46832 292.867357 
L 297.861329 292.401688 
L 298.325512 292.173136 
L 298.740569 292.141877 
L 298.741093 292.140351 
L 298.951143 291.529336 
L 299.106853 290.850691 
L 299.257415 290.318116 
L 299.425112 289.933324 
L 299.254625 289.573421 
L 299.306698 289.04106 
L 299.265393 288.585668 
L 299.314048 288.272814 
L 299.384765 288.181585 
L 299.514027 288.014832 
L 299.883636 287.538021 
L 300.133747 287.439321 
L 300.557371 287.502801 
L 300.914429 287.558619 
L 300.919076 287.559345 
L 301.632487 287.67087 
L 302.226088 287.577041 
L 302.940382 287.357106 
L 303.578236 287.344902 
L 303.850984 287.165219 
L 304.280228 287.352289 
L 304.523265 287.720809 
L 304.605876 288.649524 
L 304.780901 289.03948 
L 304.796721 289.074727 
L 305.174678 289.730035 
L 304.916757 290.244036 
L 304.81362 290.449573 
L 303.886119 291.517988 
L 302.837846 292.731456 
L 302.259965 293.237965 
L 301.868843 293.669591 
L 301.586387 293.397469 
L 301.576021 293.403775 
L 301.15781 293.65819 
L 300.56641 294.059308 
L 300.103603 294.174975 
L 299.405383 294.651616 
L 298.990719 294.773707 
L 298.62471 295.140087 
L 298.095994 295.209883 
L 297.567476 295.488 
L 297.325775 295.381753 
L 297.020289 295.149025 
L 297.101053 294.945844 
" clip-path="url(#p8480aca9ab)" style="fill: #c733ff"/>
    <path d="M 213.971138 114.643694 
L 215.032106 113.248562 
L 216.106318 112.332052 
L 216.819354 112.343881 
L 216.576199 113.006254 
L 215.522542 114.441209 
L 214.471635 114.761396 
L 213.971138 114.643694 
" clip-path="url(#p8480aca9ab)" style="fill: #c733ff"/>
    <path d="M 210.828638 113.79864 
L 212.46332 111.919694 
L 213.807136 112.159915 
L 213.388267 112.859006 
L 212.136454 113.610124 
L 211.29569 114.211211 
L 210.828638 113.79864 
" clip-path="url(#p8480aca9ab)" style="fill: #c733ff"/>
    <path d="M 80.812109 201.53798 
L 80.81262 200.547444 
L 82.546812 199.752542 
L 85.394831 198.097546 
L 87.413561 196.705357 
L 89.289394 195.539794 
L 90.675262 194.525172 
L 92.098151 193.352009 
L 92.933728 192.984505 
L 93.89322 192.062642 
L 94.823119 190.729813 
L 95.74728 190.022746 
L 96.525949 189.289238 
L 96.924499 188.822231 
L 97.304657 188.782408 
L 97.587113 188.854293 
L 97.730404 188.813881 
L 98.060689 188.507771 
L 98.270516 188.235382 
L 99.621524 187.628193 
L 100.358023 186.989585 
L 101.212229 186.529376 
L 101.986221 186.297612 
L 103.163794 185.773387 
L 104.913038 185.356373 
L 105.3121 184.778837 
L 105.384564 184.498825 
L 105.66341 183.421332 
L 105.795815 183.361759 
L 105.966381 183.185287 
L 106.288963 182.555831 
L 106.381399 182.161672 
L 107.662608 180.732552 
L 107.878763 180.737904 
L 108.252161 180.480984 
L 108.311073 179.217791 
L 108.837745 178.104468 
L 110.016772 177.440757 
L 110.515894 177.280181 
L 111.105447 177.237361 
L 111.945579 176.589805 
L 112.952629 175.813593 
L 113.974492 175.52991 
L 115.923856 173.763581 
L 116.517339 173.030287 
L 116.599871 172.612791 
L 116.399397 172.157827 
L 116.285425 172.136417 
L 116.221381 171.884892 
L 116.116431 171.472706 
L 116.037829 170.739412 
L 116.242626 170.29237 
L 116.281495 169.957945 
L 116.040344 169.369169 
L 115.779583 169.318427 
L 115.373604 168.571644 
L 115.016045 167.630298 
L 114.198468 167.538663 
L 114.461784 166.821426 
L 114.465675 165.568939 
L 114.328121 165.03904 
L 114.202109 164.798419 
L 113.946903 164.311098 
L 113.416301 163.829372 
L 112.260815 163.727728 
L 111.738074 163.138952 
L 110.303551 162.255787 
L 109.973384 161.747299 
L 109.935812 160.7019 
L 110.295652 159.91674 
L 110.555038 158.947935 
L 110.543797 158.403317 
L 110.344149 158.020184 
L 109.988542 157.918181 
L 107.831367 157.299415 
L 107.823074 157.016481 
L 108.020011 156.737401 
L 108.213096 156.477804 
L 108.388889 155.841872 
L 108.344912 155.520186 
L 108.322628 155.292223 
L 108.300973 155.033857 
L 108.391837 154.786731 
L 108.526993 154.676684 
L 108.710365 154.396154 
L 108.813889 154.237778 
L 109.026154 154.077202 
L 109.092965 153.777462 
L 109.073275 153.483074 
L 109.006464 153.263621 
L 108.927862 152.776542 
L 108.85319 152.653434 
L 108.672406 152.171708 
L 108.692056 151.636457 
L 108.763702 150.899844 
L 108.670755 150.241485 
L 108.677452 149.774598 
L 108.680227 149.581146 
L 108.562324 148.697981 
L 108.345383 148.013128 
L 107.988492 147.418731 
L 109.977943 146.817537 
L 111.863679 146.412459 
L 113.479025 145.770157 
L 116.285189 144.822709 
L 117.193079 144.421271 
L 117.279541 144.469443 
L 119.492261 143.960955 
L 120.694908 143.559516 
L 122.671823 143.200898 
L 125.128522 142.324745 
L 128.545776 141.686887 
L 130.846373 141.407378 
L 131.095187 141.42547 
L 131.465676 141.618856 
L 131.764241 141.596355 
L 135.508875 141.314138 
L 135.961229 141.44886 
L 140.208478 141.615966 
L 140.877851 141.712097 
L 144.352602 141.367395 
L 145.951599 141.361079 
L 149.131042 141.845642 
L 150.232163 141.914237 
L 150.261769 141.916081 
L 150.984906 141.707333 
L 151.425076 141.766211 
L 151.908516 142.012373 
L 153.095443 142.360286 
L 153.79893 142.360286 
L 154.958346 142.751019 
L 157.269318 143.077523 
L 157.570511 143.156835 
L 158.022009 143.275726 
L 158.503406 143.307627 
L 159.482038 143.205929 
L 159.611731 143.409325 
L 160.645384 143.794706 
L 161.293888 144.147972 
L 161.79301 144.966906 
L 163.407098 146.319111 
L 163.666484 146.507198 
L 164.666457 146.945087 
L 164.908072 147.125682 
L 165.694326 147.713365 
L 166.674419 148.445932 
L 167.704142 148.84737 
L 168.36324 148.911023 
L 168.36589 148.911279 
L 169.673196 148.065903 
L 170.627343 147.843292 
L 172.191952 147.244935 
L 173.068952 147.054279 
L 173.992563 146.67425 
L 174.581177 146.605234 
L 175.954582 146.444199 
L 176.994995 146.424448 
L 177.413157 146.578601 
L 178.977411 146.620725 
L 180.947134 146.259377 
L 182.557292 146.39881 
L 183.723429 146.074876 
L 184.23383 146.177965 
L 184.963372 146.054322 
L 186.715053 146.429426 
L 188.02849 146.949637 
L 189.371952 146.936898 
L 189.81393 146.773968 
L 190.994647 147.014563 
L 191.239413 146.977791 
L 192.411484 146.211633 
L 193.121377 145.847127 
L 193.80423 145.736062 
L 194.178217 145.787714 
L 195.059383 145.492416 
L 195.582125 145.120095 
L 197.42797 144.893523 
L 198.437336 144.421431 
L 199.300305 143.724267 
L 199.93022 143.084963 
L 200.265759 143.070769 
L 201.214535 143.030635 
L 201.745254 142.588785 
L 202.343885 141.848265 
L 203.403124 139.99014 
L 203.870726 139.341683 
L 204.407761 139.032271 
L 204.801411 138.805469 
L 206.541144 137.458616 
L 207.542632 136.941371 
L 207.760101 136.829054 
L 208.145682 136.383832 
L 208.386086 136.249002 
L 208.740737 136.356534 
L 209.522668 136.023447 
L 210.091117 135.090451 
L 211.467631 134.210926 
L 212.249405 133.564771 
L 212.52235 133.464465 
L 214.08331 133.328984 
L 214.164617 133.321927 
L 215.082568 133.984836 
L 215.655615 134.062929 
L 216.9843 134.015185 
L 218.448062 133.380484 
L 219.392227 133.138122 
L 219.672561 132.93842 
L 220.09477 132.287073 
L 220.413304 131.485266 
L 220.664044 130.690847 
L 220.834414 129.327241 
L 220.934316 126.688077 
L 220.780877 125.05718 
L 220.586896 122.995379 
L 220.281568 121.134739 
L 219.650277 118.425191 
L 219.423773 118.273292 
L 216.907231 116.585639 
L 216.997859 115.591357 
L 217.420501 115.002313 
L 218.431124 114.26372 
L 219.689853 114.008833 
L 220.259716 113.28148 
L 220.449893 113.79864 
L 219.995339 115.196662 
L 220.695917 115.279252 
L 222.641587 113.801905 
L 222.9422 113.899856 
L 223.658302 113.406997 
L 223.647129 113.091436 
L 223.622499 112.3958 
L 223.289738 111.442464 
L 222.872009 111.077209 
L 221.997131 110.151385 
L 220.79075 109.65799 
L 220.493242 109.263189 
L 218.656475 109.749946 
L 217.971146 110.041498 
L 217.513447 109.940763 
L 217.683424 109.415468 
L 218.100485 108.62244 
L 218.062363 107.880046 
L 217.580691 107.450293 
L 217.008509 107.487118 
L 216.796245 107.222383 
L 216.56885 106.588539 
L 216.033454 106.271081 
L 214.443693 106.175539 
L 213.900868 106.253525 
L 213.595186 105.941741 
L 213.671823 105.419925 
L 214.116277 105.156635 
L 214.440234 104.049093 
L 214.481028 103.250337 
L 214.091635 102.562272 
L 214.68221 100.808843 
L 214.811077 100.596455 
L 216.373407 97.287639 
L 217.39916 97.034519 
L 218.848814 97.013216 
L 219.012856 97.040085 
L 220.534194 96.458053 
L 221.141354 96.099381 
L 222.204954 95.116714 
L 222.300534 92.91287 
L 223.516858 92.064069 
L 223.686598 92.17401 
L 224.017866 92.159611 
L 224.261728 91.989348 
L 224.834735 91.908204 
L 226.883217 90.185926 
L 228.332123 89.536559 
L 228.621496 89.339694 
L 229.352729 89.346652 
L 229.514295 89.374699 
L 229.649568 89.412595 
L 229.71976 89.548442 
L 229.832475 89.591209 
L 230.643842 89.254321 
L 231.031978 88.918933 
L 231.432808 88.693699 
L 231.716482 88.368427 
L 232.080487 88.239753 
L 233.711042 86.807688 
L 234.16049 86.355783 
L 235.702262 84.805581 
L 236.215218 82.696691 
L 237.848092 80.330506 
L 239.387823 78.887416 
L 240.585165 77.561545 
L 241.929452 76.258155 
L 243.65936 74.775348 
L 245.131258 73.229329 
L 248.07918 70.201948 
L 249.189863 69.391417 
L 251.300283 67.458893 
L 251.695571 66.786564 
L 252.358892 66.541365 
L 252.737596 66.190294 
L 253.328052 66.025436 
L 253.563347 65.68491 
L 254.342802 64.823637 
L 254.845185 64.780014 
L 255.91641 63.722036 
L 255.871489 63.150977 
L 256.834126 62.490316 
L 257.419159 62.171146 
L 257.919578 62.03562 
L 258.478201 61.537462 
L 258.976065 61.487041 
L 259.372493 61.07811 
L 259.983072 60.970631 
L 260.249729 60.766165 
L 260.561935 60.667037 
L 261.472144 60.126219 
L 262.343249 59.7562 
L 262.69621 59.135255 
L 263.255069 58.8148 
L 263.828666 58.634527 
L 264.162842 58.320121 
L 265.35814 58.153818 
L 265.60491 57.918522 
L 266.895591 57.276327 
L 267.759032 56.642911 
L 267.975187 56.240456 
L 267.990318 55.934453 
L 268.246324 55.623418 
L 269.043858 55.304783 
L 270.056917 55.237181 
L 270.341422 55.250247 
L 271.579041 55.307085 
L 271.862912 54.804216 
L 272.369736 54.413911 
L 272.786523 54.343472 
L 273.123292 54.348182 
L 273.388023 54.268055 
L 273.682151 54.127873 
L 274.007091 53.8656 
L 274.459287 53.630464 
L 274.777271 53.568 
L 275.049901 53.727291 
L 275.300563 53.691482 
L 275.60876 53.827436 
L 275.844055 53.927582 
L 276.0911 54.167642 
L 277.050003 54.208 
L 277.385397 54.686889 
L 277.997509 54.92074 
L 278.521744 54.929037 
L 278.721115 54.691328 
L 278.864723 54.520105 
L 279.672592 54.238563 
L 280.381777 54.432966 
L 280.599701 54.413857 
L 280.811179 54.365952 
L 281.035548 54.328164 
L 281.265851 54.438211 
L 285.685553 54.486009 
L 289.281193 54.575236 
L 294.089502 54.849659 
L 298.060781 54.836652 
L 301.492615 54.871337 
L 306.186013 54.643025 
L 312.190991 54.350912 
L 316.577444 54.243059 
L 320.017335 54.260776 
L 321.421949 54.230962 
L 329.374371 53.924049 
L 333.078363 53.836161 
L 332.800742 54.721252 
L 332.673368 54.942793 
L 332.626049 55.093359 
L 332.646525 55.269457 
L 332.694708 55.452405 
L 332.799563 55.689093 
L 333.014853 55.997077 
L 333.250894 56.242329 
L 333.270191 56.303134 
L 333.283436 56.528421 
L 333.216742 57.447501 
L 333.260798 58.478287 
L 333.241266 58.822507 
L 333.157673 58.985706 
L 333.091623 59.030115 
L 332.893138 59.16357 
L 332.664407 59.37569 
L 332.563757 59.52845 
L 332.490579 59.697964 
L 332.40227 59.916829 
L 332.32752 60.225829 
L 332.161277 61.104872 
L 332.057365 61.552342 
L 331.944807 61.78068 
L 331.797743 61.870014 
L 331.636099 62.068485 
L 331.5742 62.509104 
L 331.575693 62.711643 
L 331.65064 63.086907 
L 331.679526 63.121806 
L 331.812049 63.178061 
L 331.969881 63.475928 
L 332.035985 63.561889 
L 332.191971 63.705604 
L 332.490579 63.873727 
L 332.613787 63.970607 
L 332.671678 64.030234 
L 332.80027 64.243906 
L 333.380234 64.875075 
L 333.420046 65.004284 
L 333.439578 65.164217 
L 333.470194 65.723073 
L 333.445945 65.913997 
L 333.369623 66.080246 
L 333.033953 66.390906 
L 332.923203 66.567218 
L 332.859457 66.821034 
L 332.636739 67.514184 
L 332.506653 67.743165 
L 332.266132 68.051683 
L 332.196569 68.237308 
L 332.215944 69.101204 
L 332.196608 70.458012 
L 332.363126 70.721784 
L 332.363716 70.767066 
L 332.206944 71.140511 
L 332.016531 71.284654 
L 332.034492 71.343264 
L 332.123744 71.475257 
L 332.131801 71.624003 
L 331.979314 71.676619 
L 331.949681 71.707342 
L 331.915214 72.147158 
L 332.019558 72.289963 
L 332.035121 72.428754 
L 331.998925 72.480138 
L 331.901734 72.4697 
L 331.859642 72.489665 
L 331.665496 72.787693 
L 331.669662 72.872905 
L 331.707155 72.944307 
L 331.708766 72.993979 
L 331.50503 73.376898 
L 331.685657 73.606467 
L 331.639007 73.666147 
L 331.362525 73.879766 
L 331.347355 73.924031 
L 331.397267 74.164787 
L 331.373765 74.385311 
L 331.340399 74.559374 
L 331.23743 74.776258 
L 331.227015 74.844075 
L 331.243168 74.905254 
L 331.513873 75.174271 
L 331.600571 75.546003 
L 331.75294 75.847938 
L 331.773259 75.975328 
L 331.75463 76.069693 
L 331.711753 76.155708 
L 331.56465 76.330467 
L 331.556475 76.398283 
L 331.715801 76.622447 
L 331.799433 76.787839 
L 331.849621 77.140195 
L 332.129207 77.563579 
L 332.356719 77.779103 
L 332.411663 77.831151 
L 332.541356 78.078865 
L 332.604316 78.13239 
L 332.807069 78.21407 
L 333.085909 78.400605 
L 333.250226 78.607265 
L 333.254982 78.671602 
L 333.22865 78.798296 
L 333.240637 78.861188 
L 333.531464 79.256097 
L 333.559053 79.344681 
L 333.57104 79.517835 
L 333.61545 79.615839 
L 333.652628 79.654645 
L 333.832509 79.727332 
L 333.907534 79.825336 
L 333.940395 80.091028 
L 333.943494 80.116085 
L 333.931508 80.298231 
L 333.954302 80.449332 
L 334.016044 80.538773 
L 334.267334 80.79109 
L 334.509585 81.161056 
L 334.579776 81.595947 
L 334.599544 81.942255 
L 334.777696 82.428638 
L 334.814874 82.71489 
L 334.823285 83.108139 
L 334.768696 83.603032 
L 334.961191 84.075498 
L 335.024191 84.36052 
L 335.016616 84.48853 
L 335.01468 84.521256 
L 334.929161 85.014597 
L 334.36087 86.392226 
L 334.285137 86.814593 
L 334.183033 87.146288 
L 334.103921 87.281974 
L 333.949665 87.459089 
L 333.579647 87.816744 
L 333.453648 88.014733 
L 333.400041 88.434745 
L 333.41191 88.839609 
L 333.698886 89.509101 
L 333.713816 89.562837 
L 333.785662 89.82142 
L 333.830072 90.07256 
L 333.836439 90.523456 
L 333.808535 90.853759 
L 333.820954 91.347475 
L 333.898063 91.802438 
L 334.111427 92.543226 
L 334.289814 92.953121 
L 334.339883 93.262764 
L 334.268081 93.738817 
L 334.245678 93.800204 
L 334.120073 94.144376 
L 333.994939 94.58446 
L 333.845832 94.886877 
L 333.80319 94.902024 
L 333.620795 94.854387 
L 333.574498 94.867768 
L 333.435294 95.043491 
L 333.327767 95.119176 
L 333.074198 95.199892 
L 333.110276 95.388193 
L 332.812493 95.611661 
L 332.776454 95.847867 
L 332.621569 95.97333 
L 332.601722 96.01235 
L 332.600779 96.189839 
L 332.497339 96.369737 
L 332.357113 96.681199 
L 332.336009 96.779097 
L 331.995466 96.993144 
L 331.927594 97.120587 
L 331.81425 97.243534 
L 331.71977 97.265747 
L 331.540597 97.387517 
L 331.47241 97.602688 
L 331.419786 97.632716 
L 331.294967 97.647649 
L 331.213182 97.724297 
L 331.204457 97.821392 
L 331.249535 98.240119 
L 331.221042 98.334483 
L 331.005712 98.53258 
L 330.965232 98.636365 
L 330.945857 98.756797 
L 330.974193 98.904794 
L 331.023908 99.00799 
L 331.018681 99.049793 
L 330.893076 99.257149 
L 330.857469 99.62765 
L 330.749509 100.134533 
L 330.71465 100.218086 
L 330.52404 100.481536 
L 330.382478 100.564393 
L 330.223663 100.831965 
L 330.222917 100.901709 
L 330.302658 101.193688 
L 330.3824 101.65015 
L 330.398356 101.909961 
L 330.201733 102.619919 
L 329.693966 103.690849 
L 329.655922 104.102886 
L 329.585809 104.545324 
L 329.359869 105.532541 
L 329.393667 105.6625 
L 329.633717 105.867609 
L 329.74317 105.923168 
L 329.934448 106.188064 
L 330.050779 106.228475 
L 330.278567 106.36111 
L 330.419578 106.499312 
L 330.538935 106.800766 
L 330.552886 106.856268 
L 330.607319 107.072834 
L 330.608183 107.326757 
L 330.401971 108.680033 
L 330.34864 108.866407 
L 330.347383 109.013066 
L 330.401028 109.24772 
L 330.574935 109.690855 
L 330.625947 110.681283 
L 330.505529 111.531262 
L 330.538817 111.6943 
L 330.806692 112.381509 
L 330.950927 112.990625 
L 331.005083 113.131075 
L 331.491904 113.778354 
L 331.774045 114.348878 
L 331.862904 114.601998 
L 331.859013 114.676934 
L 331.655278 115.186225 
L 331.570112 115.475957 
L 331.548693 115.702207 
L 331.590313 115.829329 
L 331.875048 116.093743 
L 331.925353 116.170124 
L 331.933803 116.219849 
L 331.87717 116.365812 
L 331.762805 116.539929 
L 331.555807 116.649227 
L 331.299408 116.912089 
L 331.22847 117.074805 
L 331.127977 117.458473 
L 331.138156 117.534319 
L 331.224225 117.716732 
L 331.501021 117.934098 
L 331.597505 118.060363 
L 331.655442 118.192821 
L 331.657439 118.197388 
L 331.697094 118.325634 
L 331.737888 118.616275 
L 331.772119 118.712567 
L 332.093483 119.002673 
L 332.316948 119.170474 
L 332.511526 119.399455 
L 332.590207 119.79902 
L 332.621137 119.892528 
L 332.784825 120.148485 
L 332.780345 120.227488 
L 332.627464 120.564483 
L 332.299138 121.152485 
L 332.03292 121.629258 
L 332.010833 121.736576 
L 331.993658 122.095087 
L 332.025413 122.458094 
L 331.99806 122.643291 
L 331.717294 123.050992 
L 331.512576 123.246573 
L 331.397896 123.392268 
L 331.165745 123.812708 
L 331.089777 124.041849 
L 331.019271 124.16865 
L 330.908639 124.286727 
L 330.761418 124.368031 
L 330.656838 124.522879 
L 330.63703 124.621687 
L 330.706554 124.818284 
L 330.680929 124.997861 
L 330.552277 125.421259 
L 330.537481 125.469953 
L 330.52628 125.634864 
L 330.271414 126.235897 
L 330.23341 126.544148 
L 330.105682 126.788758 
L 329.917981 126.906728 
L 329.852034 126.980913 
L 329.803065 127.071478 
L 329.719747 127.395573 
L 329.746196 127.508778 
L 330.123132 128.103068 
L 330.148716 128.190742 
L 330.142468 128.249673 
L 329.911339 128.690185 
L 329.907134 128.763353 
L 329.972413 129.003039 
L 329.993556 129.189735 
L 329.861466 129.417109 
L 329.651285 129.858317 
L 329.615757 129.978588 
L 329.62684 130.045441 
L 329.717664 130.208264 
L 329.795205 130.26286 
L 330.042211 130.342344 
L 330.176384 130.543545 
L 330.62186 130.894188 
L 330.831491 131.016761 
L 330.916774 131.060866 
L 331.009446 131.059688 
L 331.159064 130.961844 
L 331.464511 130.662264 
L 331.496698 130.59493 
L 331.528925 130.465238 
L 331.494458 130.16903 
L 331.493672 129.523999 
L 331.717609 129.369954 
L 331.886799 129.175336 
L 331.925078 129.092051 
L 331.928773 129.029641 
L 331.784892 128.677339 
L 331.843018 128.565953 
L 332.024745 128.329586 
L 332.027221 128.296507 
L 331.92441 128.133791 
L 331.947873 128.040764 
L 332.065383 128.028935 
L 332.133452 128.087171 
L 332.19653 128.096912 
L 332.450099 128.03493 
L 332.470418 128.009934 
L 332.901627 128.146744 
L 333.115424 127.956141 
L 333.684462 127.964545 
L 333.834159 127.872695 
L 334.082816 127.887361 
L 334.269771 128.034716 
L 334.35635 128.060836 
L 334.471266 127.880028 
L 334.528174 127.851874 
L 334.61106 127.903312 
L 334.67288 127.975517 
L 334.691587 128.047455 
L 334.761975 128.773149 
L 334.850992 128.814791 
L 335.01916 129.07305 
L 335.078465 129.215052 
L 335.079644 129.450027 
L 335.056103 129.680132 
L 335.038771 129.749875 
L 334.894066 130.030079 
L 335.073278 130.148851 
L 335.083142 130.180699 
L 334.991689 130.288552 
L 334.956161 130.409465 
L 334.984576 130.477174 
L 335.027217 130.501368 
L 335.366148 130.46101 
L 335.50826 130.551628 
L 335.52178 130.667884 
L 335.569963 130.730295 
L 335.97657 130.85169 
L 336.184118 131.017029 
L 336.399015 131.22765 
L 336.63596 131.661096 
L 336.791631 131.821351 
L 336.800317 131.889863 
L 336.722187 132.005049 
L 336.733034 132.379511 
L 336.824212 132.412428 
L 336.872434 132.463759 
L 336.911563 132.545051 
L 337.050978 132.834688 
L 337.068781 132.832119 
L 337.076602 132.972783 
L 337.056913 133.129451 
L 336.998944 133.220015 
L 336.863159 133.324175 
L 336.828692 133.463715 
L 336.831325 133.67423 
L 336.867128 133.693766 
L 336.853727 133.905512 
L 336.801064 136.286095 
L 336.786803 136.748059 
L 336.636746 141.608954 
L 336.633131 141.647064 
L 336.626921 142.010607 
L 336.617017 142.480504 
L 336.560819 144.623857 
L 336.483041 147.590279 
L 336.397559 149.126246 
L 336.395596 149.161509 
L 336.369322 149.859173 
L 336.126149 156.316265 
L 336.101296 156.801533 
L 335.960849 159.54383 
L 335.950838 159.822553 
L 335.783445 164.482646 
L 335.779554 164.545271 
L 335.776685 164.658798 
L 335.769462 164.975773 
L 335.724101 166.966373 
L 335.618687 170.160907 
L 335.611346 170.383363 
L 335.389768 170.30072 
L 335.347441 170.346805 
L 335.281612 171.093641 
L 335.411816 171.429565 
L 335.310144 171.741402 
L 335.129085 172.068869 
L 335.699852 175.060976 
L 336.150398 175.065205 
L 332.708817 187.693815 
L 331.491328 192.208977 
L 327.859437 205.678151 
L 326.593006 210.374817 
L 327.035652 212.332872 
L 327.411565 212.334853 
L 327.321134 214.986808 
L 327.189083 217.211741 
L 327.049486 219.146353 
L 326.979648 220.745255 
L 326.835021 222.553922 
L 326.71869 224.396899 
L 326.716175 224.424304 
L 326.482217 227.904721 
L 326.479952 227.961944 
L 326.444488 228.857897 
L 326.253328 231.713997 
L 326.196239 232.829836 
L 326.126308 234.196706 
L 326.086169 235.340433 
L 326.086063 235.343429 
L 325.731333 240.298731 
L 325.577981 242.841227 
L 325.574601 242.880033 
L 325.570868 242.928634 
L 325.566191 242.990134 
L 325.566191 243.017807 
L 325.562261 243.044569 
L 325.52585 243.708175 
L 325.50724 244.047362 
L 325.503781 244.124974 
L 325.502681 244.150291 
L 325.498711 244.266762 
L 325.495528 244.359307 
L 325.460079 244.907243 
L 325.440428 245.185788 
L 325.432411 245.292036 
L 325.295015 246.785975 
L 325.206751 248.351046 
L 325.206352 248.358115 
L 325.155143 248.906587 
L 325.134922 249.166588 
L 324.98831 251.051767 
L 324.964691 251.606608 
L 324.99004 252.052633 
L 324.91018 252.704355 
L 326.190486 254.775937 
L 326.812677 255.820087 
L 327.592546 257.128848 
L 327.505998 257.181433 
L 327.072715 257.444684 
L 326.540146 257.768259 
L 326.338532 257.895649 
L 324.765196 258.886221 
L 324.367919 259.136346 
L 324.360753 259.140857 
L 322.41732 260.332069 
L 321.719261 260.759939 
L 321.423757 260.943316 
L 319.212024 262.338227 
L 317.961229 263.127087 
L 318.165594 263.507116 
L 318.389609 263.828266 
L 318.810598 264.546169 
L 319.277888 265.343027 
L 319.556925 265.80329 
L 319.839891 266.279663 
L 320.213289 266.905907 
L 320.519836 267.419748 
L 320.806772 267.831892 
L 320.807234 267.832881 
L 320.834283 267.890769 
L 320.798912 268.10487 
L 320.649529 268.543776 
L 320.67311 268.864927 
L 320.637778 269.164025 
L 320.718546 269.29301 
L 320.729546 269.310577 
L 320.783152 269.608926 
L 320.625949 270.208354 
L 320.543417 270.326109 
L 320.449095 270.272584 
L 319.914563 270.508094 
L 319.710198 271.246741 
L 319.584435 271.450136 
L 319.132435 271.749877 
L 318.198449 272.15458 
L 317.804025 272.53129 
L 316.821463 273.195002 
L 316.090191 274.295906 
L 316.279111 274.49031 
L 316.412734 274.602712 
L 316.448105 274.881043 
L 316.413293 275.111323 
L 316.280054 275.992706 
L 316.445865 276.153977 
L 316.493222 276.319316 
L 316.457694 276.815334 
L 316.315582 276.831445 
L 316.086183 276.735474 
L 315.896556 276.836797 
L 315.861342 277.140231 
L 315.807461 277.209279 
L 315.756762 277.25242 
L 315.696553 277.187708 
L 315.585646 276.971895 
L 315.4747 276.730175 
L 315.534909 276.471221 
L 315.427185 276.233837 
L 315.366976 276.24679 
L 315.23072 276.428079 
L 315.140681 276.651226 
L 314.850994 276.57233 
L 314.619276 276.720273 
L 314.510648 277.341593 
L 314.52515 277.558584 
L 314.655472 277.864319 
L 314.945159 278.2292 
L 315.227576 278.387045 
L 315.656321 279.143879 
L 315.854936 279.49448 
L 316.064685 279.474783 
L 316.335171 279.211659 
L 316.36852 279.179217 
L 316.929305 278.101007 
L 316.914842 277.785423 
L 317.941579 276.390398 
L 318.00446 276.18165 
L 317.847256 275.721334 
L 317.890487 275.662456 
L 318.515411 275.469819 
L 320.012815 276.170998 
L 320.204637 276.0795 
L 320.787082 275.801675 
L 320.846034 275.036266 
L 321.368736 274.265504 
L 321.655672 273.965817 
L 321.922879 273.90164 
L 322.292347 273.981874 
L 322.90941 273.719601 
L 323.172726 273.478738 
L 324.163148 273.045185 
L 324.312492 273.023775 
L 325.023878 273.403803 
L 326.155783 273.104062 
L 326.32352 273.183119 
L 326.915313 272.897027 
L 327.028481 272.648948 
L 327.044966 272.612809 
L 327.236637 271.616118 
L 327.488163 271.38596 
L 327.763269 271.605413 
L 328.339303 271.851628 
L 329.402156 272.001499 
L 329.669442 272.274477 
L 329.690907 272.51048 
L 329.709804 272.718253 
L 330.604371 272.786284 
L 330.726636 272.526045 
L 330.707025 271.610765 
L 330.809208 270.979169 
L 330.852439 270.914939 
L 331.123615 270.909586 
L 331.846752 271.856981 
L 332.180849 272.172779 
L 332.699621 272.440405 
L 332.982587 272.51534 
L 333.037608 272.408289 
L 333.540699 272.285182 
L 334.967362 272.55816 
L 337.251578 273.474596 
L 337.55234 273.595263 
L 340.707849 272.322596 
L 340.727695 272.261939 
L 340.816005 271.992025 
L 340.877668 270.880415 
L 341.03047 270.327179 
L 342.225886 270.018875 
L 342.824041 269.987179 
L 343.357202 269.958926 
L 344.611765 270.449355 
L 344.84596 270.540905 
L 344.973924 270.417101 
L 346.723364 270.310051 
L 348.325584 270.328892 
L 349.949851 270.525865 
L 350.955326 270.499316 
L 353.399567 270.133632 
L 355.441367 270.373425 
L 356.5594 270.205838 
L 358.036603 269.702381 
L 358.913328 269.57194 
L 359.78007 269.604644 
L 360.886194 269.482606 
L 362.860475 268.646009 
L 363.643389 268.007936 
L 363.81757 267.690211 
L 364.254636 267.4547 
L 365.367048 266.501525 
L 367.105799 265.722199 
L 367.755364 264.930027 
L 368.365943 263.907483 
L 369.43874 263.809051 
L 370.04083 263.328716 
L 371.947003 261.025905 
L 372.872146 260.647001 
L 373.572017 260.595028 
L 374.423511 260.173678 
L 374.907698 260.021239 
L 375.135329 260.219924 
L 375.327785 260.26617 
L 376.22196 259.887693 
L 376.50245 259.980131 
L 376.521315 260.143704 
L 375.898749 261.176525 
L 375.444745 261.639838 
L 374.059388 262.507373 
L 374.072357 261.448379 
L 373.823307 261.13895 
L 373.573628 261.101161 
L 373.360932 261.176739 
L 373.027503 261.442866 
L 372.687904 262.079172 
L 372.690149 262.513611 
L 372.691598 262.794107 
L 373.396617 263.771369 
L 374.163771 264.17907 
L 374.845445 264.213326 
L 374.989444 264.410298 
L 374.738547 264.883889 
L 375.10939 265.758543 
L 375.625883 266.265319 
L 376.382936 266.120533 
L 376.850145 266.142746 
L 377.317355 266.343144 
L 377.931117 266.789329 
L 378.37506 266.773058 
L 378.661839 266.610341 
L 378.810239 266.459615 
L 378.991337 266.046829 
L 379.46232 265.670012 
L 379.561672 265.635756 
L 379.817639 265.741093 
L 380.468462 266.392762 
L 380.553352 266.842373 
L 380.46406 267.237174 
L 381.290991 268.527772 
L 381.580246 268.833507 
L 381.849378 268.971334 
L 382.112852 268.979898 
L 382.600851 268.706706 
L 382.722212 268.333315 
L 382.751413 268.172311 
L 382.870612 268.030149 
L 383.449397 268.011468 
L 383.5875 268.260521 
L 383.62126 268.254954 
L 383.695421 268.236595 
L 383.837022 268.172311 
L 383.917942 267.99782 
L 383.838437 267.674314 
L 383.823542 267.419267 
L 383.998824 267.309058 
L 384.457701 267.405725 
L 385.274335 266.999523 
L 385.893442 266.393565 
L 387.159717 265.959851 
L 387.394029 265.61167 
L 387.422444 265.311876 
L 387.374968 265.090121 
L 387.452313 264.703884 
L 388.29119 264.373313 
L 389.032602 264.207171 
L 389.82369 264.190043 
L 389.971462 264.375025 
L 390.20542 264.464948 
L 390.990849 264.500007 
L 391.190812 264.399807 
L 391.464975 264.579652 
L 391.51528 264.738086 
L 390.819811 265.718666 
L 389.647622 266.366963 
L 388.39184 266.687257 
L 384.710602 268.521723 
L 381.366449 270.011006 
L 370.307094 275.653892 
L 367.393089 276.934213 
L 363.327606 278.512615 
L 357.250268 280.736921 
L 356.577007 280.983335 
L 356.266372 281.171743 
L 356.106653 281.128923 
L 355.675286 281.277937 
L 351.941228 282.810094 
L 351.559831 282.980327 
L 349.581209 283.863468 
L 346.070419 285.663571 
L 344.403353 286.374385 
L 340.85435 287.491987 
L 338.371567 288.273831 
L 337.165029 288.58342 
L 336.262445 288.777395 
L 336.168625 288.779472 
L 334.521807 288.815933 
L 333.741055 288.155219 
L 332.750555 288.294384 
L 330.162747 289.331273 
L 329.907526 289.399688 
L 327.50638 290.043344 
L 326.625115 290.279578 
L 324.590585 290.888908 
L 324.158668 290.78266 
L 323.988466 290.761685 
L 322.555584 290.585099 
L 321.375417 290.846302 
L 317.375213 290.633914 
L 317.073791 290.487735 
L 316.817848 290.363612 
L 316.108073 290.421526 
L 313.770455 291.14722 
L 310.990584 292.260542 
L 309.597367 292.983399 
L 309.854009 291.703776 
L 309.880177 291.573305 
L 309.952332 291.213537 
L 309.693678 291.246604 
L 309.551121 291.264828 
L 309.135037 291.31802 
L 308.857634 291.353483 
L 308.609364 291.385222 
L 308.075241 291.453504 
L 307.602649 291.51392 
L 306.790063 291.290292 
L 307.178688 290.85181 
L 307.243438 290.778753 
L 307.133592 290.154168 
L 306.920775 290.06923 
L 306.888137 290.056203 
L 305.971268 289.690266 
L 305.84007 289.464379 
L 305.825275 289.438905 
L 305.706616 289.234607 
L 305.595709 288.596962 
L 305.649702 288.376372 
L 305.755899 287.94251 
L 305.853243 287.743646 
L 305.867786 287.713937 
L 305.890502 287.667531 
L 305.909427 287.62887 
L 305.915842 287.615764 
L 305.935432 287.575744 
L 305.945297 287.55559 
L 306.002316 287.439107 
L 306.107651 287.308689 
L 306.190768 287.205781 
L 306.232567 287.154028 
L 306.544433 286.767902 
L 306.458167 285.710727 
L 306.395805 285.61818 
L 306.262645 285.420567 
L 305.517736 285.187679 
L 305.449038 285.148713 
L 305.404195 285.082717 
L 305.656704 284.568126 
L 306.297976 284.069326 
L 306.417856 283.212435 
L 306.432621 283.10689 
L 306.43425 283.098065 
L 306.485296 282.821379 
L 306.597437 282.213553 
L 306.720815 281.544813 
L 306.875357 281.224525 
L 306.901599 281.170137 
L 306.937078 281.103012 
L 307.172896 280.656845 
L 307.207728 280.590942 
L 307.505301 280.027935 
L 307.732006 279.599009 
L 307.863938 279.349395 
L 307.89815 279.284666 
L 308.393323 278.3478 
L 308.439682 278.260089 
L 308.516945 278.113907 
L 308.520853 278.107173 
L 308.521213 278.106553 
L 308.70952 277.782051 
L 309.071088 276.652671 
L 309.295143 276.096063 
L 309.693162 275.229807 
L 309.696012 275.223604 
L 309.879744 274.828642 
L 310.052668 274.427203 
L 310.418205 273.147953 
L 310.418936 273.144891 
L 310.469297 272.933906 
L 310.488947 272.928554 
L 310.49779 272.825732 
L 310.580322 272.536696 
L 310.906519 271.112928 
L 310.999432 270.759128 
L 311.234775 269.862967 
L 311.331008 269.496523 
L 311.429261 268.666884 
L 311.087303 268.661531 
L 310.995732 268.645795 
L 310.915401 268.598425 
L 310.725735 268.447431 
L 308.877245 267.321118 
L 305.649276 265.354267 
L 305.649079 265.35416 
L 303.627755 264.133359 
L 303.458761 264.031662 
L 300.094446 262.008466 
L 299.585609 261.725214 
L 298.955467 261.374436 
L 298.052046 260.871533 
L 298.047536 260.869023 
L 296.254779 259.79465 
L 295.3939 259.278738 
L 294.647143 258.754192 
L 292.826836 257.615306 
L 292.371502 257.330424 
L 289.279071 255.23058 
L 287.627686 254.207233 
L 283.393209 251.507961 
L 282.049276 250.699464 
L 279.951786 249.385744 
L 279.893463 249.39024 
L 280.102623 249.229611 
L 280.154068 249.164417 
L 280.163932 249.042112 
L 280.10054 248.855792 
L 279.949664 248.689489 
L 279.622916 248.439955 
L 279.419494 248.236131 
L 279.343526 248.064797 
L 279.224837 247.652012 
L 279.123912 247.503747 
L 278.930866 247.391023 
L 278.557783 247.339104 
L 278.429819 247.268718 
L 278.333021 247.192552 
L 278.236694 247.043056 
L 278.142018 246.832756 
L 278.112385 246.685027 
L 278.137184 246.495923 
L 278.231585 246.386196 
L 278.386942 245.891838 
L 278.380575 245.724893 
L 278.355973 245.636737 
L 278.31003 245.542373 
L 278.240585 245.466742 
L 278.143237 245.438962 
L 278.029696 245.467063 
L 277.760131 245.608958 
L 277.615543 245.760809 
L 277.601802 245.769042 
L 277.449379 245.860365 
L 277.248394 245.84297 
L 276.975292 245.702841 
L 276.873542 245.696311 
L 276.685291 245.76311 
L 276.437302 245.908003 
L 276.198431 245.947451 
L 276.063275 245.893337 
L 276.002752 245.823272 
L 275.839653 245.432004 
L 275.818077 245.358621 
L 275.807269 245.176689 
L 275.773667 245.067498 
L 275.599564 244.853344 
L 275.523831 244.813414 
L 275.345366 244.806188 
L 275.114591 244.93877 
L 274.922606 245.137509 
L 274.798769 245.408132 
L 274.698119 245.463691 
L 274.616412 245.474128 
L 274.460623 245.458445 
L 274.371017 245.414073 
L 274.030789 245.095491 
L 273.911708 244.956219 
L 273.691701 244.796339 
L 273.519642 244.728844 
L 273.279513 244.752074 
L 272.806605 244.947708 
L 272.336173 245.058987 
L 272.130944 245.023072 
L 272.047941 244.966496 
L 272.033242 244.849169 
L 272.090936 244.63935 
L 272.321082 244.36391 
L 272.319471 244.294916 
L 272.270659 244.145581 
L 272.201646 244.058067 
L 272.085512 243.992178 
L 271.726656 243.905681 
L 271.621054 243.834761 
L 271.573264 243.646994 
L 271.572085 243.460834 
L 271.530898 243.229659 
L 271.39979 243.060038 
L 271.212521 242.983176 
L 270.944882 242.977984 
L 270.83708 242.914343 
L 270.611099 242.700456 
L 270.24902 242.635209 
L 270.098262 242.652819 
L 270.002132 242.791342 
L 269.674716 242.999555 
L 269.602048 243.0177 
L 269.145097 242.961926 
L 268.682722 242.827739 
L 268.616342 242.776944 
L 268.550985 242.626592 
L 268.527758 242.510977 
L 268.541435 242.337021 
L 268.650849 241.943397 
L 268.662442 241.83533 
L 268.653914 241.701785 
L 268.575823 241.400438 
L 268.525479 241.330053 
L 268.447191 241.28659 
L 268.201639 241.285734 
L 267.976877 241.358207 
L 267.837791 241.320686 
L 267.816451 241.256777 
L 267.815979 241.1592 
L 267.859761 240.974967 
L 267.924882 240.810217 
L 267.925825 240.721686 
L 267.910655 240.648999 
L 267.81032 240.466907 
L 267.586226 240.230914 
L 267.375298 240.073657 
L 267.308605 240.035601 
L 267.057 239.980096 
L 267.010311 239.933475 
L 266.988656 239.875615 
L 266.987044 239.623939 
L 267.064467 239.535355 
L 267.268911 239.46695 
L 267.327155 239.38602 
L 267.319923 239.265321 
L 267.233618 238.981584 
L 266.887024 238.353253 
L 266.81361 238.29459 
L 266.658332 238.270236 
L 266.507927 238.165487 
L 266.370335 238.024234 
L 266.237144 237.734877 
L 266.123918 237.297898 
L 265.884261 237.056286 
L 265.603102 236.893516 
L 265.459064 236.683376 
L 265.330236 236.432397 
L 265.221878 236.311318 
L 265.02927 236.096099 
L 265.028759 235.978665 
L 265.14505 235.893239 
L 265.297223 235.858875 
L 265.496833 235.885852 
L 265.614382 235.823656 
L 265.605303 235.743101 
L 265.537745 235.573854 
L 265.542264 235.522417 
L 265.599722 235.466055 
L 265.845274 235.40327 
L 265.92364 235.429925 
L 266.060054 235.546128 
L 266.102774 235.556566 
L 266.173123 235.534513 
L 266.223585 235.439506 
L 266.249602 235.136447 
L 266.067364 234.688388 
L 266.049325 234.593649 
L 266.02484 234.161112 
L 266.048342 233.387407 
L 265.999727 233.053463 
L 265.839733 232.751689 
L 265.711612 232.712134 
L 265.665276 232.673596 
L 265.629827 232.530844 
L 265.65211 232.41887 
L 265.892318 232.203484 
L 265.946081 232.121859 
L 265.948086 231.989223 
L 265.889056 231.670535 
L 265.731498 231.279266 
L 265.610294 231.06447 
L 265.317542 230.758413 
L 265.256547 230.61245 
L 265.263935 230.506203 
L 265.343009 230.375495 
L 265.557435 230.356921 
L 265.909099 230.439296 
L 265.969505 230.408627 
L 266.002006 230.336903 
L 266.008413 230.241414 
L 265.857969 229.596062 
L 265.807231 229.166897 
L 265.886226 228.655358 
L 265.861742 228.237166 
L 265.573744 227.589512 
L 265.41096 227.479893 
L 265.266883 227.447135 
L 265.105867 227.366366 
L 265.044283 227.274784 
L 264.977039 227.221259 
L 264.838071 227.238013 
L 264.314111 227.390238 
L 264.210317 227.38997 
L 263.99263 227.349559 
L 263.894299 227.236246 
L 263.861207 227.158367 
L 263.849181 227.077544 
L 263.874584 226.83027 
L 263.892098 226.659781 
L 263.940006 226.419185 
L 263.97404 226.342216 
L 264.311517 225.890197 
L 264.490258 225.82875 
L 264.761945 225.885005 
L 264.885546 225.832336 
L 264.939821 225.776563 
L 265.037169 225.579483 
L 265.12536 225.251053 
L 265.141749 225.059754 
L 265.125203 224.96175 
L 265.037287 224.88917 
L 264.893682 224.887885 
L 264.824708 224.903782 
L 264.590043 225.074474 
L 264.444826 225.07715 
L 264.285539 224.980858 
L 264.030594 224.714731 
L 263.507499 224.477347 
L 263.44843 224.322767 
L 263.436247 224.236324 
L 263.442102 224.074946 
L 263.503294 223.753902 
L 263.506124 223.518391 
L 263.465644 223.363971 
L 263.418522 223.307502 
L 263.293113 223.244289 
L 262.934531 223.293318 
L 262.813877 223.280365 
L 262.45003 222.909276 
L 262.309214 222.927528 
L 262.206167 222.972382 
L 261.952598 223.097363 
L 261.810564 223.110048 
L 261.61292 223.029279 
L 261.509677 222.93561 
L 261.429149 222.813787 
L 261.330268 222.524965 
L 261.356993 222.108272 
L 261.314194 221.934476 
L 261.258269 221.86393 
L 261.100711 221.807622 
L 261.019791 221.82309 
L 260.921499 221.953478 
L 260.867932 222.181227 
L 260.798212 222.367601 
L 260.732737 222.457684 
L 260.680978 222.488996 
L 260.612633 222.479415 
L 260.538158 222.417594 
L 260.486477 222.353899 
L 260.437823 222.214252 
L 260.322239 222.095212 
L 260.186494 222.013854 
L 259.944164 221.957117 
L 259.718616 221.990142 
L 259.513112 222.086541 
L 259.310516 222.456667 
L 259.168679 222.621417 
L 259.090627 222.620079 
L 258.859066 222.514207 
L 258.74301 222.401269 
L 258.578811 222.18021 
L 258.484843 222.104258 
L 258.397948 222.117264 
L 258.213234 222.308617 
L 258.089358 222.376058 
L 257.828871 222.369956 
L 257.72268 222.281854 
L 257.633271 222.152698 
L 257.59904 222.051428 
L 257.593459 221.90948 
L 257.684912 221.774597 
L 257.804741 221.677716 
L 257.839129 221.569542 
L 257.718907 221.212262 
L 257.625293 221.141287 
L 257.437277 221.09456 
L 257.299606 221.020802 
L 257.248947 220.709928 
L 257.241205 220.498825 
L 257.437906 220.238747 
L 257.446198 219.966679 
L 257.360758 219.736039 
L 257.139415 219.297079 
L 257.092883 219.155559 
L 257.094887 218.916248 
L 257.065726 218.545908 
L 256.99298 218.261208 
L 256.588613 218.048499 
L 256.5264 217.933527 
L 256.495116 217.82364 
L 256.508164 217.535407 
L 256.41844 217.422148 
L 256.227163 217.426002 
L 256.155281 217.460793 
L 256.108749 217.51753 
L 256.122897 217.726866 
L 256.105959 217.754699 
L 256.015488 217.763478 
L 255.764277 217.720872 
L 255.667636 217.658247 
L 255.457336 217.441256 
L 255.383765 217.086331 
L 255.291644 217.04212 
L 255.019131 216.692119 
L 254.765523 216.580626 
L 254.619441 216.555416 
L 254.5127 216.443762 
L 254.502639 216.367168 
L 254.686135 215.827474 
L 254.693563 215.703617 
L 254.555105 215.378612 
L 254.341191 215.242016 
L 254.068599 215.14642 
L 253.829846 215.021439 
L 252.153773 215.024025 
L 250.985168 215.025828 
L 250.817943 215.026364 
L 249.209435 215.023473 
L 248.97339 215.03142 
L 248.950285 215.032198 
L 246.225239 215.040525 
L 243.975654 215.047399 
L 238.791825 215.106062 
L 237.56853 215.09356 
L 233.74323 215.054464 
L 230.295344 215.045593 
L 229.436911 215.043385 
L 229.325611 215.043385 
L 226.29924 215.049327 
L 224.50111 215.052858 
L 223.799353 215.04772 
L 223.504399 215.04772 
L 222.941681 215.049913 
L 215.152131 215.080263 
L 214.909408 215.076838 
L 210.497606 215.048791 
L 210.325272 215.04392 
L 210.070191 215.039633 
L 206.745582 214.983763 
L 206.726173 214.983436 
L 203.582668 214.949152 
L 199.197808 214.901329 
L 196.59597 214.902185 
L 195.841353 214.896833 
L 192.473069 214.896779 
L 192.429838 214.902132 
L 192.225473 214.902132 
L 191.832464 214.902132 
L 191.61627 214.907484 
L 190.708379 214.923542 
L 190.70673 214.923566 
L 189.063636 214.947896 
L 189.059745 214.946343 
L 186.857283 214.967058 
L 184.45926 215.024115 
L 171.415871 214.992612 
L 169.500744 214.987986 
L 165.38516 215.017498 
L 159.886837 215.056926 
L 157.023058 215.069505 
L 156.660272 215.070736 
L 150.156836 215.058211 
L 148.842024 215.024276 
L 148.833613 215.023045 
L 145.156895 214.967539 
L 141.939161 215.011939 
L 139.400334 215.046971 
L 137.949187 215.023045 
L 126.61001 214.998316 
L 120.592883 215.092949 
L 115.680073 215.122388 
L 113.947063 215.092096 
L 111.423548 215.047988 
L 108.350217 215.031395 
L 103.740024 215.020743 
L 100.94172 215.055588 
L 92.189408 215.085134 
L 90.675548 215.076634 
L 89.596609 215.070575 
L 89.088055 215.063135 
L 86.751464 215.045828 
L 86.183089 215.041618 
L 86.183639 215.045097 
L 84.421347 215.027327 
L 80.837694 215.055535 
L 80.825628 214.988521 
L 80.818633 213.972507 
L 80.82213 208.622779 
L 80.805899 207.966775 
L 80.816157 206.924855 
L 80.820165 206.284534 
L 80.813799 205.714813 
L 80.813484 205.373643 
L 80.817257 205.163076 
L 80.80472 201.982238 
L 80.812109 201.53798 
" clip-path="url(#p8480aca9ab)" style="fill: #c733ff"/>
   </g>
   <g id="text_1">
    <!-- NY -->
    <g transform="translate(228.006563 35.472) scale(0.12 -0.12)">
     <defs>
      <path id="DejaVuSans-4e" d="M 628 4666 
L 1478 4666 
L 3547 763 
L 3547 4666 
L 4159 4666 
L 4159 0 
L 3309 0 
L 1241 3903 
L 1241 0 
L 628 0 
L 628 4666 
z
" transform="scale(0.015625)"/>
      <path id="DejaVuSans-59" d="M -13 4666 
L 666 4666 
L 1959 2747 
L 3244 4666 
L 3922 4666 
L 2272 2222 
L 2272 0 
L 1638 0 
L 1638 2222 
L -13 4666 
z
" transform="scale(0.015625)"/>
     </defs>
     <use xlink:href="#DejaVuSans-4e"/>
     <use xlink:href="#DejaVuSans-59" x="74.804688"/>
    </g>
   </g>
  </g>
 </g>
 <defs>
  <clipPath id="p8480aca9ab">
   <rect x="65.269192" y="41.472" width="341.781616" height="266.112"/>
  </clipPath>
 </defs>
</svg>
