<?xml version="1.0" encoding="utf-8" standalone="no"?>
<!DOCTYPE svg PUBLIC "-//W3C//DTD SVG 1.1//EN"
  "http://www.w3.org/Graphics/SVG/1.1/DTD/svg11.dtd">
<svg xmlns:xlink="http://www.w3.org/1999/xlink" width="460.8pt" height="345.6pt" viewBox="0 0 460.8 345.6" xmlns="http://www.w3.org/2000/svg" version="1.1">
 <metadata>
  <rdf:RDF xmlns:dc="http://purl.org/dc/elements/1.1/" xmlns:cc="http://creativecommons.org/ns#" xmlns:rdf="http://www.w3.org/1999/02/22-rdf-syntax-ns#">
   <cc:Work>
    <dc:type rdf:resource="http://purl.org/dc/dcmitype/StillImage"/>
    <dc:date>2023-06-19T14:47:41.098917</dc:date>
    <dc:format>image/svg+xml</dc:format>
    <dc:creator>
     <cc:Agent>
      <dc:title>Matplotlib v3.7.1, https://matplotlib.org/</dc:title>
     </cc:Agent>
    </dc:creator>
   </cc:Work>
  </rdf:RDF>
 </metadata>
 <defs>
  <style type="text/css">*{stroke-linejoin: round; stroke-linecap: butt}</style>
 </defs>
 <g id="figure_1">
  <g id="patch_1">
   <path d="M 0 345.6 
L 460.8 345.6 
L 460.8 0 
L 0 0 
z
" style="fill: #ffffff"/>
  </g>
  <g id="axes_1">
   <g id="PatchCollection_1">
    <path d="M 232.733061 78.892326 
L 233.607103 77.791263 
L 234.201276 77.792616 
L 234.401471 77.919522 
L 234.568472 78.294755 
L 235.038196 78.352894 
L 235.605535 77.835866 
L 235.728485 77.902465 
L 235.578701 79.484551 
L 235.304967 79.97656 
L 235.301365 79.983034 
L 235.161198 80.074406 
L 234.474424 80.105472 
L 233.243888 79.444753 
L 232.73001 79.053344 
L 232.733061 78.892326 
" clip-path="url(#pe98754ebf9)" style="fill: #33a1ff"/>
    <path d="M 227.156048 75.923743 
L 227.593195 71.744347 
L 228.079102 70.807685 
L 228.353697 70.689985 
L 228.865094 70.961557 
L 228.866696 70.962408 
L 230.12482 72.535411 
L 230.266249 72.712237 
L 230.30239 72.757423 
L 229.767262 74.741273 
L 228.717294 75.996249 
L 228.012353 76.838831 
L 227.232255 77.202829 
L 227.154545 75.938108 
L 227.156048 75.923743 
" clip-path="url(#pe98754ebf9)" style="fill: #33a1ff"/>
    <path d="M 124.960243 239.715828 
L 124.978132 238.557844 
L 124.978753 238.322849 
L 124.975754 238.105452 
L 124.987439 237.371974 
L 124.988008 236.713082 
L 124.996849 234.441512 
L 125.001967 234.150341 
L 125.100152 228.580115 
L 125.187996 222.786536 
L 125.198284 220.512395 
L 125.198284 220.505627 
L 125.208625 219.767952 
L 125.218966 218.001431 
L 125.229306 216.769605 
L 125.229306 216.701922 
L 125.225109 216.671848 
L 125.218914 216.627471 
L 125.242232 212.532459 
L 125.261983 210.707731 
L 125.246679 209.803489 
L 125.25128 209.041719 
L 125.272013 205.919716 
L 125.27201 205.915367 
L 125.268911 201.925551 
L 125.269428 201.838647 
L 125.267877 200.965403 
L 125.272479 200.177373 
L 125.269428 199.986913 
L 125.286335 199.282403 
L 125.289386 199.136885 
L 125.294039 198.034468 
L 125.295538 198.026752 
L 125.302001 197.512363 
L 125.306396 197.343968 
L 125.327801 196.010821 
L 125.341399 194.801194 
L 125.346001 194.750093 
L 125.360839 193.035621 
L 125.363631 192.707495 
L 125.372111 192.330095 
L 125.422831 187.728275 
L 125.437258 187.068509 
L 125.480377 185.096565 
L 125.499094 184.100613 
L 125.539074 181.141803 
L 125.5524 180.155587 
L 125.573133 178.815332 
L 125.573856 178.679357 
L 125.652704 175.220699 
L 125.674367 174.400113 
L 125.674729 174.395037 
L 125.68326 174.011411 
L 125.711594 172.2744 
L 125.790648 166.938357 
L 125.79998 166.424267 
L 125.800006 166.422817 
L 125.789583 163.536692 
L 125.789562 163.5308 
L 125.769656 159.557076 
L 125.799437 156.104644 
L 125.804603 155.912484 
L 125.87084 153.448366 
L 125.874149 151.67264 
L 125.88542 148.683159 
L 125.892141 143.766411 
L 125.889143 142.721457 
L 125.887747 141.741545 
L 125.891004 140.756896 
L 125.892555 140.616048 
L 125.894261 139.866732 
L 125.889763 138.775279 
L 125.892963 138.129319 
L 125.892969 138.128164 
L 125.885368 137.171468 
L 125.871305 135.600077 
L 125.890332 133.225359 
L 125.850779 124.98322 
L 125.850723 124.970321 
L 125.831235 120.459844 
L 125.831229 120.447325 
L 125.830593 119.0814 
L 125.828081 113.685271 
L 125.83532 111.511841 
L 125.80709 110.218694 
L 125.826065 108.585576 
L 125.816706 108.006618 
L 125.823014 107.960187 
L 125.82198 102.637478 
L 125.821972 102.63539 
L 125.81743 101.39137 
L 125.817378 101.382097 
L 125.817343 101.368965 
L 125.799541 94.824989 
L 125.788838 92.095139 
L 125.793337 92.090469 
L 125.794939 91.867522 
L 125.797972 90.893602 
L 125.79799 90.887949 
L 125.799903 90.251528 
L 125.772087 86.685119 
L 125.767226 85.86345 
L 125.758023 83.851376 
L 125.758023 83.848494 
L 125.758023 83.841968 
L 125.702029 78.237225 
L 125.703139 78.007172 
L 125.708026 76.994704 
L 125.709215 76.930811 
L 125.681451 74.074056 
L 125.688069 72.616237 
L 128.590014 72.470313 
L 144.715618 72.019681 
L 146.70722 71.954879 
L 146.862335 71.949832 
L 148.723701 71.903402 
L 148.730407 71.903157 
L 160.415292 71.476323 
L 166.363434 71.223393 
L 167.42459 71.21297 
L 172.547601 71.000513 
L 173.541594 70.992392 
L 173.54944 70.99182 
L 174.627258 70.91327 
L 179.610986 70.75778 
L 179.616771 70.7576 
L 182.413965 70.649308 
L 183.634161 70.561388 
L 184.637202 70.527546 
L 185.484089 70.493825 
L 185.997048 70.4734 
L 186.152158 70.466632 
L 188.292721 70.378712 
L 188.365106 70.378712 
L 188.793756 70.365662 
L 188.809753 70.365175 
L 192.992593 70.216341 
L 193.039178 70.216341 
L 193.230479 70.209572 
L 193.333886 70.196036 
L 195.603708 70.14189 
L 195.512307 70.488833 
L 195.510952 70.493976 
L 195.853486 71.626038 
L 196.006992 71.888106 
L 196.033765 71.903084 
L 196.183157 71.986665 
L 197.894211 72.943957 
L 198.768046 72.896579 
L 199.64183 73.255298 
L 200.606456 73.179764 
L 201.39524 72.790249 
L 201.593367 72.440735 
L 201.593781 72.120731 
L 202.170375 72.245809 
L 203.871254 73.647926 
L 204.039186 73.922176 
L 204.671258 74.241368 
L 206.753035 75.656683 
L 207.045865 76.06455 
L 207.090709 76.127011 
L 207.913874 76.510325 
L 209.010758 77.0211 
L 210.500395 77.546486 
L 211.525446 77.908015 
L 213.694861 78.202165 
L 214.619934 78.667687 
L 215.625199 79.43521 
L 216.840948 81.288161 
L 217.616858 82.121133 
L 219.072613 83.279998 
L 220.637875 84.2482 
L 222.461602 84.916636 
L 224.356058 84.585802 
L 224.848686 84.364682 
L 225.519328 83.878991 
L 225.819569 83.589444 
L 226.473718 82.62158 
L 226.555047 81.548672 
L 226.330965 80.719085 
L 226.670862 80.248283 
L 226.944889 80.091801 
L 227.645777 79.959954 
L 228.364141 81.10535 
L 229.702375 82.741785 
L 230.158811 83.135089 
L 230.218685 83.135641 
L 230.85608 83.141519 
L 231.998876 82.742868 
L 233.654877 83.050147 
L 234.013852 83.407648 
L 233.977815 84.047047 
L 233.446203 84.759341 
L 233.480061 84.893827 
L 233.554935 85.191225 
L 233.860346 85.773229 
L 234.061523 86.051202 
L 234.852113 86.297896 
L 235.167815 86.396407 
L 235.20375 86.40762 
L 235.358196 86.615445 
L 236.735146 88.46829 
L 238.832073 90.501819 
L 238.873073 90.732482 
L 239.648856 91.22273 
L 241.916943 92.656027 
L 244.204965 93.721895 
L 244.966449 93.905722 
L 245.891161 93.91919 
L 246.957022 93.582536 
L 248.471098 92.868483 
L 250.189144 91.712529 
L 252.066073 90.853025 
L 252.774838 90.732047 
L 253.493184 90.609435 
L 255.695844 90.731331 
L 256.890239 90.568893 
L 257.603795 90.325302 
L 260.773355 88.288118 
L 261.007312 88.04737 
L 261.14567 87.685741 
L 261.218054 87.645132 
L 261.382264 87.807976 
L 262.221148 87.618059 
L 265.902622 86.223861 
L 267.576181 85.674849 
L 270.152779 84.829595 
L 271.052467 84.910747 
L 271.366644 85.035491 
L 272.419225 85.453419 
L 272.585621 85.519486 
L 272.70185 85.797324 
L 272.919055 85.98 
L 273.984193 86.467248 
L 277.112339 87.008575 
L 277.99636 86.981773 
L 278.131971 86.939432 
L 279.232242 86.595906 
L 280.555875 86.182642 
L 281.39911 86.116149 
L 281.414199 86.114959 
L 282.029416 86.155434 
L 282.722342 86.453306 
L 282.736831 86.456846 
L 283.96844 86.75781 
L 284.27866 86.663054 
L 285.716112 85.769642 
L 285.752401 85.721753 
L 285.927526 85.490653 
L 288.098045 83.760807 
L 288.099732 83.759463 
L 288.87419 83.466747 
L 289.71282 83.149776 
L 291.465817 81.783193 
L 293.373819 79.962526 
L 294.039726 79.251529 
L 295.085298 78.135159 
L 296.600305 77.532782 
L 297.210403 76.998088 
L 298.378998 75.793335 
L 299.588491 74.161706 
L 302.381136 71.868004 
L 304.211584 70.473806 
L 306.879623 68.930639 
L 307.639712 68.274116 
L 308.001634 68.294353 
L 308.813426 68.416249 
L 308.837885 68.409768 
L 309.617514 68.203184 
L 312.942236 66.485395 
L 316.638135 64.393997 
L 317.532244 64.079638 
L 317.680937 64.027359 
L 319.79022 62.905923 
L 321.206629 62.4381 
L 321.932283 61.930953 
L 322.336944 61.871092 
L 322.365209 61.866911 
L 322.898651 61.788 
L 323.835778 61.649373 
L 325.771038 61.363094 
L 327.627286 60.919095 
L 332.042687 58.971049 
L 332.365625 58.706274 
L 332.774235 58.162849 
L 333.607277 58.034928 
L 333.743257 58.365897 
L 334.989665 57.911272 
L 336.909353 57.478644 
L 344.092684 54.915767 
L 345.542752 54.225064 
L 347.32191 53.568 
L 347.322944 53.660387 
L 347.328166 55.837471 
L 347.326047 56.840801 
L 347.328706 62.228687 
L 347.331527 67.942808 
L 347.324806 68.799063 
L 347.322789 69.687603 
L 347.324599 72.251833 
L 347.321962 74.298899 
L 347.325426 74.397783 
L 347.325608 76.122476 
L 347.326357 83.228356 
L 347.335767 83.940921 
L 347.332251 85.89323 
L 347.333097 86.631726 
L 347.335146 88.420709 
L 347.342474 89.899296 
L 347.344246 90.25674 
L 347.344246 91.035092 
L 347.344246 91.543863 
L 347.342592 91.543795 
L 347.33101 94.083254 
L 347.332665 94.551077 
L 347.33101 95.293963 
L 347.326047 96.667247 
L 347.326047 96.707518 
L 347.328735 96.74075 
L 347.328735 96.78136 
L 347.327804 96.781495 
L 347.329356 96.908604 
L 347.329356 96.910567 
L 347.329356 96.990906 
L 347.330179 97.156758 
L 347.330183 97.157609 
L 347.337214 98.584836 
L 347.354535 99.051779 
L 347.344091 101.570188 
L 347.344246 101.580002 
L 347.349416 101.78305 
L 347.359757 102.88628 
L 347.349416 103.989441 
L 347.349416 104.882854 
L 347.352674 105.569361 
L 347.336439 108.141983 
L 347.337938 109.88028 
L 347.33526 110.701407 
L 347.33525 110.704453 
L 347.343264 111.26128 
L 347.343264 111.26284 
L 347.343264 111.265273 
L 347.340989 111.265273 
L 347.344298 111.881119 
L 347.333957 112.598556 
L 347.337421 112.905768 
L 347.339127 113.593493 
L 347.339334 114.174482 
L 347.343936 114.652323 
L 347.345952 114.865388 
L 347.347607 114.927115 
L 347.345952 115.563874 
L 347.347658 118.688044 
L 347.344453 120.037774 
L 347.343881 120.583636 
L 347.339179 125.07229 
L 347.297817 126.046923 
L 347.301552 126.332601 
L 347.303039 126.446251 
L 347.303689 126.475815 
L 347.304383 126.507369 
L 347.343781 128.01771 
L 347.342893 129.791243 
L 347.34285 129.876956 
L 347.339696 129.938953 
L 347.344298 133.183395 
L 347.340885 133.787329 
L 347.344349 144.176433 
L 347.193066 144.298872 
L 346.999541 144.36141 
L 346.770341 144.348754 
L 346.633637 144.393763 
L 346.281849 144.628487 
L 345.953482 144.792279 
L 345.682867 144.850148 
L 345.186827 145.199865 
L 344.8187 145.614625 
L 344.606924 145.756488 
L 344.358749 145.839873 
L 344.197435 145.834459 
L 344.002152 145.752156 
L 343.567018 145.280001 
L 343.462784 145.200948 
L 343.219831 145.092723 
L 342.955524 145.106192 
L 342.328571 145.334147 
L 341.751098 145.453269 
L 341.379663 145.713239 
L 341.119906 146.039131 
L 340.831195 146.555686 
L 340.482044 146.955285 
L 340.365401 147.040837 
L 340.30253 147.036505 
L 339.921167 147.371129 
L 339.749099 147.633196 
L 339.642332 147.987313 
L 339.651432 148.285117 
L 339.696103 148.585087 
L 339.913722 148.821165 
L 340.295912 149.159037 
L 340.444817 149.33772 
L 341.016448 150.293874 
L 341.444188 150.951209 
L 341.579857 151.004273 
L 341.733726 151.148302 
L 342.008373 152.183578 
L 342.076208 152.741284 
L 342.225113 153.43219 
L 342.687598 154.281135 
L 343.029253 154.6385 
L 343.197598 154.750853 
L 343.3889 155.244938 
L 343.425093 155.508901 
L 343.357878 156.050363 
L 343.244131 156.388777 
L 342.92869 156.970781 
L 342.902839 157.180598 
L 342.577109 157.782974 
L 342.520235 157.979254 
L 342.484043 158.35151 
L 342.520235 159.082484 
L 342.499554 159.820226 
L 342.546087 160.077421 
L 342.525405 160.15864 
L 342.370296 160.348152 
L 341.703273 160.618883 
L 341.620373 160.677114 
L 341.49129 160.767785 
L 341.418905 160.98437 
L 341.522312 161.322716 
L 341.56657 161.36116 
L 342.163431 161.573143 
L 342.411607 161.776191 
L 342.654663 162.033386 
L 342.76324 162.398873 
L 342.706366 162.913262 
L 342.546035 163.373505 
L 342.494332 163.881126 
L 342.495905 163.888128 
L 342.597738 164.341369 
L 343.006245 165.221177 
L 343.130333 165.674652 
L 343.161355 165.911542 
L 343.006245 166.628979 
L 342.814891 166.845564 
L 342.385755 167.650989 
L 342.287519 168.104464 
L 342.318541 168.984272 
L 342.158209 169.46482 
L 341.992759 169.694942 
L 341.237841 170.202562 
L 341.23267 170.148416 
L 340.850067 170.405611 
L 340.462293 170.832012 
L 339.973956 171.858896 
L 339.831462 172.578228 
L 339.728056 173.451268 
L 339.634938 173.897975 
L 339.402274 174.392059 
L 339.040352 174.798156 
L 338.925975 174.852624 
L 338.915851 174.857446 
L 338.82811 174.94408 
L 338.702368 175.120597 
L 337.834416 176.768694 
L 337.747669 176.933412 
L 337.675698 177.152163 
L 337.607036 177.598328 
L 337.466403 178.05099 
L 337.439931 178.933574 
L 337.530102 179.419739 
L 337.566501 179.476052 
L 337.623581 179.7457 
L 337.639092 179.908138 
L 337.587389 180.280394 
L 337.515004 180.544357 
L 337.458079 180.672954 
L 337.31331 180.855697 
L 336.398112 181.559598 
L 336.082723 181.992768 
L 335.989657 182.290572 
L 335.994827 182.57484 
L 336.067212 183.014778 
L 336.21198 183.373497 
L 336.274024 183.434412 
L 336.387771 184.084166 
L 336.387771 184.253373 
L 336.362316 184.764316 
L 336.356749 184.876055 
L 336.265577 185.15454 
L 336.263684 185.160323 
L 336.108781 185.386586 
L 336.052476 185.544693 
L 336.054958 185.857658 
L 336.030968 186.007102 
L 335.891162 186.381794 
L 335.819191 186.875607 
L 335.811746 187.030466 
L 335.861381 187.624991 
L 335.915152 187.823166 
L 335.983814 188.419858 
L 335.910965 189.389075 
L 335.753787 189.502782 
L 335.5933 189.697709 
L 335.134951 190.013923 
L 334.959574 190.170947 
L 334.708917 190.558566 
L 334.651837 190.779483 
L 334.650182 191.02639 
L 334.815581 192.211109 
L 335.049693 192.787225 
L 335.093537 193.060122 
L 335.067892 193.237721 
L 334.971104 193.474882 
L 334.919814 193.539857 
L 334.849498 193.57776 
L 334.749401 193.57776 
L 334.455727 193.527945 
L 334.229835 193.415321 
L 333.702049 193.018971 
L 333.036888 192.847869 
L 332.787885 192.865195 
L 332.639807 192.910678 
L 332.504138 193.021137 
L 332.421413 193.169497 
L 332.335327 193.482462 
L 332.314646 193.767272 
L 332.34939 193.962198 
L 332.495814 194.36288 
L 332.694354 194.748401 
L 333.013725 195.159913 
L 333.126076 195.345566 
L 333.324254 196.058605 
L 333.292973 196.395123 
L 333.170437 196.633976 
L 332.820561 196.961493 
L 331.965804 197.359468 
L 331.715096 197.5659 
L 331.560141 197.756969 
L 331.464594 197.95467 
L 331.421163 198.129427 
L 331.459216 198.525642 
L 331.624563 199.088628 
L 331.653 199.258714 
L 331.668459 200.156391 
L 331.524311 200.874912 
L 331.46692 201.04466 
L 330.989596 201.578948 
L 329.555505 202.627557 
L 329.385867 202.861672 
L 329.243011 203.225399 
L 329.199529 203.41552 
L 329.320359 203.85133 
L 329.437053 204.112924 
L 329.986244 204.834355 
L 330.088565 204.939398 
L 330.432236 205.157878 
L 330.923106 206.097789 
L 331.02827 206.25637 
L 331.085156 206.308462 
L 331.184 206.398977 
L 331.278514 206.766766 
L 331.276394 206.915803 
L 331.167455 207.334354 
L 331.06348 207.480413 
L 330.793073 207.647183 
L 330.503069 207.755002 
L 330.126722 207.814563 
L 329.992345 207.888134 
L 329.62427 208.148577 
L 329.521898 208.277242 
L 329.412959 208.6319 
L 329.385815 208.856404 
L 329.368236 209.173159 
L 329.424851 210.238216 
L 329.369425 210.924181 
L 329.206302 211.311326 
L 329.156201 211.582802 
L 329.171609 211.658674 
L 329.143327 211.848254 
L 328.885742 212.652258 
L 328.660419 213.083938 
L 328.04784 213.351285 
L 327.825206 213.351218 
L 327.321979 213.237917 
L 326.733959 213.219507 
L 326.308907 213.307968 
L 325.923666 213.482861 
L 325.736811 213.631492 
L 325.3813 214.016607 
L 324.003203 215.15361 
L 323.577789 215.600994 
L 323.108944 216.024349 
L 322.800638 216.431055 
L 322.639893 216.575423 
L 322.0269 217.003313 
L 321.437742 217.503354 
L 321.238943 217.712967 
L 321.096139 217.967861 
L 320.914816 218.19365 
L 320.473425 218.543128 
L 320.153073 218.796772 
L 319.891817 219.09505 
L 319.787014 219.269874 
L 319.352863 219.714279 
L 318.824715 220.171341 
L 318.547792 220.599841 
L 317.747272 221.458397 
L 317.261262 222.121688 
L 316.558099 223.536259 
L 316.521906 223.536259 
L 316.194153 224.112796 
L 316.025556 224.409367 
L 315.829084 224.680098 
L 315.622219 224.889914 
L 315.523983 224.971134 
L 315.332681 225.059121 
L 314.588155 225.099731 
L 314.020144 225.234352 
L 313.652328 225.370462 
L 313.171488 225.644848 
L 313.048796 225.752328 
L 312.860648 225.941976 
L 312.614128 226.427193 
L 312.11271 226.986186 
L 311.863966 227.291909 
L 311.708443 227.538206 
L 311.573911 227.780781 
L 311.542889 227.884471 
L 311.571998 228.217403 
L 311.531463 228.497271 
L 311.458561 228.654363 
L 311.238771 228.861879 
L 311.029011 228.957853 
L 310.914799 228.965298 
L 309.97075 228.680083 
L 309.596006 228.699305 
L 309.042781 228.922252 
L 308.477769 228.975315 
L 308.221269 229.119344 
L 307.925114 229.425812 
L 307.092072 229.756104 
L 306.715621 230.016005 
L 305.950414 230.641936 
L 305.610413 230.852023 
L 305.123111 231.216969 
L 304.759948 231.538597 
L 304.504327 231.692373 
L 304.021212 231.867806 
L 303.27877 231.943365 
L 303.036267 231.968045 
L 302.844293 231.942054 
L 302.591878 231.849464 
L 302.245828 231.486346 
L 302.114244 231.290608 
L 302.006236 231.030232 
L 301.754907 230.105144 
L 301.650156 229.58446 
L 301.447531 228.828037 
L 301.136433 228.386204 
L 300.886361 228.146672 
L 300.729425 227.996351 
L 300.312491 227.658208 
L 299.950569 227.448391 
L 299.386952 227.319794 
L 298.890602 227.394245 
L 298.290793 227.7665 
L 298.009321 228.010429 
L 297.507179 228.720828 
L 297.189515 229.099851 
L 296.458173 229.832991 
L 295.925424 230.252083 
L 295.366202 230.620277 
L 294.840846 230.848774 
L 294.433631 231.211554 
L 293.647691 232.165881 
L 293.539115 232.707344 
L 293.513263 233.580452 
L 293.259917 235.204838 
L 293.249577 236.402756 
L 293.141 236.775011 
L 292.991061 236.97806 
L 292.199381 236.905504 
L 292.043031 236.835114 
L 291.702979 236.591456 
L 291.279427 236.446344 
L 291.018015 236.41169 
L 290.734268 236.459339 
L 290.351199 236.574129 
L 289.220295 236.33372 
L 288.550222 236.32289 
L 287.823844 236.417105 
L 287.402773 236.566548 
L 287.128953 236.757143 
L 286.826179 237.088518 
L 286.69294 237.279113 
L 286.469582 237.698205 
L 286.438147 238.25916 
L 286.456346 238.436759 
L 286.5035 238.657676 
L 286.685546 239.115753 
L 286.744281 239.518601 
L 286.730218 239.666961 
L 286.675619 239.768756 
L 286.561459 239.926863 
L 286.23547 240.147712 
L 285.681212 240.257088 
L 285.296051 240.36476 
L 285.022668 240.441185 
L 284.95967 240.48672 
L 284.887827 240.538648 
L 284.733958 240.75415 
L 284.557753 241.16133 
L 284.431184 241.811084 
L 284.365004 241.975689 
L 284.135028 242.262664 
L 283.704858 242.472954 
L 283.554867 242.595663 
L 283.399757 242.84609 
L 283.3966 242.876669 
L 283.373905 243.096516 
L 283.477312 243.489076 
L 283.975369 245.050044 
L 284.029967 245.488629 
L 283.980332 245.698716 
L 283.964149 246.235508 
L 283.978109 246.511789 
L 284.102972 247.191257 
L 284.06161 247.881553 
L 284.015077 248.165821 
L 283.932352 248.456857 
L 283.839301 248.63957 
L 283.839286 248.639601 
L 283.5756 249.011856 
L 283.141293 249.404416 
L 282.929258 249.54655 
L 282.376034 249.790208 
L 282.070985 249.810513 
L 281.859002 249.776671 
L 281.590145 249.695452 
L 281.20749 249.485635 
L 280.954144 249.417953 
L 280.705969 249.411184 
L 280.5612 249.458562 
L 280.473305 249.539782 
L 280.39575 249.729293 
L 280.380239 250.121854 
L 280.421602 250.636243 
L 280.509497 251.062644 
L 280.649096 251.360449 
L 280.938633 251.868069 
L 281.093743 252.050813 
L 281.458302 252.363846 
L 281.807299 252.619281 
L 282.515632 253.323182 
L 282.805222 253.742815 
L 282.960332 254.060924 
L 282.960332 254.649764 
L 282.913799 254.920495 
L 282.808583 255.087266 
L 282.56108 255.308588 
L 282.453175 255.522669 
L 282.376189 255.764635 
L 282.315593 256.10068 
L 282.328881 256.310091 
L 282.366727 256.398823 
L 282.152211 256.937848 
L 282.052062 257.468346 
L 282.06453 257.55809 
L 282.108108 257.871735 
L 282.205879 258.080402 
L 282.458449 258.36785 
L 282.678549 258.566702 
L 283.336627 259.348777 
L 283.380265 259.592909 
L 283.25747 259.972135 
L 283.180484 260.115217 
L 283.042747 260.230751 
L 282.85827 260.310279 
L 282.675602 260.324898 
L 282.4509 260.308993 
L 282.081636 260.184524 
L 281.854194 260.090513 
L 281.454786 259.819037 
L 281.29947 259.663773 
L 280.794795 259.01307 
L 280.376103 258.738549 
L 280.093958 258.681154 
L 279.818174 258.709107 
L 279.697809 258.756823 
L 279.48262 258.905793 
L 279.143912 259.349928 
L 278.81203 259.917718 
L 278.730132 260.970456 
L 278.769323 261.180544 
L 278.596582 261.768098 
L 278.218218 262.355111 
L 278.065694 262.527296 
L 277.241752 263.137524 
L 276.498467 263.604197 
L 276.312129 263.631947 
L 276.017214 263.583689 
L 275.494805 263.321215 
L 275.408615 263.264767 
L 275.119801 262.927978 
L 274.547499 262.431728 
L 274.494089 262.303807 
L 274.47589 262.176631 
L 274.562803 261.774596 
L 274.954351 261.280241 
L 275.023685 261.145619 
L 275.324649 260.809913 
L 275.510522 260.685444 
L 275.894729 260.216064 
L 275.944209 260.143847 
L 276.020885 259.859714 
L 275.911015 259.31365 
L 275.600538 258.79987 
L 275.298436 258.185242 
L 275.000057 257.355993 
L 274.56849 256.61737 
L 274.225957 255.930322 
L 274.037654 255.743856 
L 273.779086 255.548862 
L 273.281805 255.363615 
L 272.877848 255.418099 
L 272.79657 255.482533 
L 272.437905 255.571874 
L 272.122412 255.608559 
L 271.937108 255.590555 
L 271.838045 255.555766 
L 271.745651 255.477389 
L 271.700463 255.386288 
L 271.662771 254.961173 
L 271.611068 254.724283 
L 271.440447 254.284345 
L 271.218124 253.851175 
L 271.031992 253.573676 
L 270.654559 253.208189 
L 270.406332 253.093128 
L 269.863448 253.059286 
L 269.361927 253.174347 
L 268.912058 253.370627 
L 268.767289 253.560139 
L 268.62252 253.885016 
L 268.410537 254.839344 
L 268.229576 255.279282 
L 268.105488 255.475562 
L 267.733173 255.766598 
L 267.210971 256.118548 
L 266.668088 256.375743 
L 266.166515 256.720925 
L 266.037257 256.869827 
L 265.954532 257.059204 
L 265.866637 257.492509 
L 265.659391 257.916114 
L 265.571928 258.094886 
L 265.132451 258.778414 
L 265.039334 259.130365 
L 265.054896 259.475547 
L 264.997971 259.65829 
L 264.517132 260.436642 
L 264.108676 261.187921 
L 263.803628 261.485725 
L 263.369269 261.993346 
L 263.296885 262.426516 
L 263.260692 262.981515 
L 263.420972 263.414617 
L 263.477628 263.643854 
L 263.533634 263.870461 
L 263.573135 264.230872 
L 263.449461 265.153117 
L 263.281374 265.891807 
L 263.136605 266.128697 
L 262.417775 266.964444 
L 262.194004 267.113008 
L 261.491875 267.45555 
L 260.887257 267.607092 
L 260.468048 268.043578 
L 259.950499 268.450758 
L 259.681436 268.720203 
L 259.537959 268.923996 
L 259.315791 269.498826 
L 259.318272 269.998122 
L 259.373543 270.409024 
L 259.571825 270.773766 
L 260.061609 271.072044 
L 260.351354 271.31374 
L 260.488626 271.492896 
L 260.658005 271.850532 
L 260.778888 272.612572 
L 260.965019 272.869767 
L 261.037404 273.09312 
L 261.125299 273.87824 
L 261.228757 274.324947 
L 261.337334 274.805495 
L 261.316652 275.028848 
L 261.202905 275.455249 
L 260.939219 276.253906 
L 260.903027 276.727618 
L 261.068477 277.248775 
L 261.151202 277.648104 
L 261.177054 278.13542 
L 261.513125 278.859626 
L 261.632042 279.272491 
L 261.7613 279.922245 
L 261.844025 280.159067 
L 261.875099 280.409494 
L 261.875099 280.862968 
L 261.714767 281.593943 
L 261.60619 281.912052 
L 261.363185 282.209856 
L 261.011604 282.50766 
L 260.750141 282.635445 
L 260.163464 282.728644 
L 259.450167 282.731081 
L 259.284665 282.751318 
L 258.054078 282.270838 
L 257.718007 282.250533 
L 257.221605 282.291143 
L 256.735595 282.480655 
L 256.590826 282.595715 
L 255.927395 283.346645 
L 255.71182 283.590652 
L 255.598073 283.83431 
L 255.577392 284.017054 
L 255.608413 284.85632 
L 255.484326 286.331805 
L 255.375749 286.683756 
L 255.246491 286.947718 
L 255.112063 287.367352 
L 255.055189 287.739607 
L 255.101722 288.63972 
L 255.04216 289.186327 
L 254.932136 289.566433 
L 254.710432 290.075408 
L 254.613644 290.552977 
L 254.540019 291.096606 
L 254.324106 291.787511 
L 254.019678 292.370125 
L 253.692086 292.692836 
L 253.159285 292.933246 
L 252.150814 293.092436 
L 251.032578 293.35051 
L 250.620348 293.379478 
L 249.837769 293.041606 
L 248.312887 293.668687 
L 248.227898 293.695842 
L 247.656204 293.878503 
L 247.004744 294.034174 
L 245.613877 294.48088 
L 244.522888 294.974964 
L 243.403457 295.349663 
L 243.390536 295.353988 
L 242.841448 295.456595 
L 242.345098 295.488 
L 242.15196 295.461565 
L 241.783342 295.411112 
L 241.333318 295.281161 
L 240.929619 295.111142 
L 240.78485 295.019094 
L 240.35711 294.656382 
L 240.076672 294.228626 
L 239.90874 293.897252 
L 239.7102 293.171692 
L 239.538131 291.654515 
L 239.325476 291.098974 
L 239.208834 290.868312 
L 239.035938 290.66039 
L 238.794381 290.487122 
L 238.503189 290.310605 
L 238.211815 290.17734 
L 237.799973 289.988977 
L 237.24737 289.588362 
L 236.799827 289.151944 
L 236.36397 288.54814 
L 236.360505 288.54334 
L 235.834373 287.887088 
L 235.098068 286.505276 
L 234.753932 286.086184 
L 234.5769 285.935658 
L 233.84804 285.515483 
L 233.562639 285.304313 
L 233.294609 285.037913 
L 232.978599 284.925289 
L 232.532711 284.943767 
L 231.285992 284.848469 
L 230.470271 284.941601 
L 229.937521 284.878791 
L 229.403117 284.66004 
L 228.581044 284.149047 
L 228.36652 284.0157 
L 227.364667 283.104961 
L 227.118146 282.786649 
L 226.969241 282.495342 
L 226.75581 281.874826 
L 226.60189 281.257559 
L 226.524128 280.759414 
L 226.472632 279.942889 
L 226.498483 279.049476 
L 226.338204 278.081612 
L 226.136561 277.479303 
L 225.810779 276.876926 
L 225.536752 276.562201 
L 225.397154 276.064733 
L 225.433346 275.577417 
L 225.516071 275.063028 
L 225.728054 274.156078 
L 225.769417 273.905652 
L 225.795268 273.492787 
L 225.722884 272.734807 
L 225.65567 272.518223 
L 225.565259 272.326409 
L 225.50573 272.200113 
L 225.298918 271.915846 
L 224.797345 271.604505 
L 224.538829 271.570664 
L 223.013533 272.010602 
L 222.007751 272.470574 
L 221.193529 273.032612 
L 220.686838 273.452245 
L 220.133614 273.641757 
L 219.787203 273.621452 
L 219.378696 273.465781 
L 219.104669 273.411635 
L 218.457345 273.365543 
L 217.943622 273.451297 
L 217.624872 273.562771 
L 217.480878 273.659084 
L 217.471116 273.669668 
L 217.361341 273.788696 
L 217.208816 274.035941 
L 217.080696 274.291444 
L 216.87926 274.836832 
L 216.755513 275.024734 
L 216.322623 275.682054 
L 215.742772 276.14602 
L 214.713517 276.679766 
L 213.755974 276.935201 
L 213.513486 277.077064 
L 213.258279 277.316323 
L 212.974532 277.696159 
L 212.732199 278.161342 
L 212.537588 279.105923 
L 212.399954 279.445217 
L 212.085961 280.021333 
L 211.903655 280.253688 
L 211.683193 280.47095 
L 210.954695 280.777485 
L 210.550479 280.809905 
L 210.141869 280.797452 
L 209.172279 280.977082 
L 208.600804 281.020534 
L 208.157501 280.910752 
L 207.534529 280.533083 
L 207.052241 280.302217 
L 206.68458 280.233248 
L 206.371414 280.277377 
L 206.085444 280.39325 
L 205.906809 280.584183 
L 205.567222 280.630207 
L 205.418059 280.710614 
L 205.235066 280.926163 
L 205.227636 280.934915 
L 205.185446 281.145882 
L 204.254582 282.219534 
L 204.131994 282.305086 
L 203.857553 282.399097 
L 203.45644 282.291481 
L 203.152373 282.112393 
L 202.965415 281.943863 
L 202.650335 281.542639 
L 202.56973 281.3402 
L 202.51813 281.082328 
L 202.495794 280.630884 
L 202.40004 280.096055 
L 202.128443 279.630803 
L 201.488978 279.07682 
L 200.638926 278.512684 
L 200.110726 278.206216 
L 199.612256 278.007499 
L 199.175209 277.892574 
L 197.764539 277.667326 
L 197.342899 277.536766 
L 196.297978 277.473618 
L 195.957512 277.42069 
L 195.437068 277.162006 
L 195.294678 277.18556 
L 194.868126 277.060143 
L 194.656247 276.880581 
L 194.435836 276.60051 
L 193.915857 276.070012 
L 193.560914 275.793325 
L 192.99099 275.450241 
L 192.566714 275.283741 
L 192.133338 275.193791 
L 191.492942 275.257412 
L 190.667811 275.481984 
L 190.017798 275.713188 
L 189.644088 275.884358 
L 189.332679 275.958538 
L 189.351654 275.895932 
L 187.232754 276.472995 
L 186.654402 276.79503 
L 186.287517 277.203563 
L 186.174287 277.390842 
L 186.113846 277.570472 
L 186.009457 278.163305 
L 185.980606 278.616983 
L 185.823429 279.239326 
L 185.672455 279.663426 
L 185.474794 279.951349 
L 185.31043 280.096799 
L 185.180706 280.155616 
L 184.98015 280.232977 
L 184.741953 280.277783 
L 184.5248 280.268443 
L 183.936779 280.135243 
L 183.624699 280.009759 
L 182.668914 279.479532 
L 182.601305 279.476999 
L 182.453932 279.471478 
L 182.182955 279.353169 
L 182.000547 279.213336 
L 181.949774 279.10572 
L 181.801696 279.007106 
L 180.900613 278.923992 
L 180.295013 278.810217 
L 179.647431 278.641687 
L 179.510676 278.58903 
L 179.290576 278.43072 
L 179.145134 278.232409 
L 178.958951 277.650473 
L 178.887601 277.348811 
L 178.741798 276.421421 
L 178.552616 275.694914 
L 178.372017 275.434471 
L 178.187798 275.286448 
L 177.780739 275.083942 
L 177.379109 274.952299 
L 176.988077 274.895919 
L 176.575796 274.751822 
L 175.947034 274.316419 
L 175.808417 274.191273 
L 175.606827 273.91682 
L 175.550263 273.75763 
L 175.508022 273.571164 
L 175.495923 273.344697 
L 175.395826 272.865909 
L 175.316668 272.53758 
L 175.186014 272.206746 
L 175.012757 271.918756 
L 174.653782 271.555976 
L 174.265904 271.325381 
L 173.922699 271.175261 
L 173.202008 270.959894 
L 172.33288 270.787182 
L 172.330085 270.786626 
L 171.86729 270.678131 
L 171.645225 270.684764 
L 171.140136 270.556369 
L 171.057153 270.512985 
L 171.064236 270.3519 
L 170.261596 269.740521 
L 169.7669 269.567524 
L 169.323441 269.485492 
L 168.460463 269.504443 
L 167.600484 269.855852 
L 167.049483 269.974703 
L 166.170064 270.319547 
L 165.065012 270.623375 
L 164.695023 270.567537 
L 164.641103 270.569012 
L 164.08658 270.584187 
L 163.668767 270.62994 
L 162.487711 270.307026 
L 161.737911 270.036227 
L 161.385347 269.801097 
L 160.380599 269.343291 
L 159.303932 268.976179 
L 157.109338 268.569338 
L 156.735317 268.456443 
L 156.357264 268.245341 
L 155.883921 267.700765 
L 155.716351 267.43599 
L 155.463988 266.834831 
L 155.451273 266.775579 
L 155.405822 266.563762 
L 155.304535 265.743514 
L 155.280648 265.005433 
L 155.378367 263.699562 
L 155.374368 263.56446 
L 155.363115 263.184293 
L 155.352205 262.924255 
L 155.243112 262.321811 
L 154.9483 261.801601 
L 154.817284 261.647623 
L 154.664346 261.387179 
L 154.076843 260.292546 
L 153.881043 260.063439 
L 153.151356 259.053748 
L 152.892529 258.806232 
L 152.466082 258.087373 
L 152.108709 257.240932 
L 152.036842 256.08958 
L 151.996048 255.792588 
L 151.887109 255.366796 
L 151.611221 254.658157 
L 151.146823 253.945728 
L 150.823343 253.600549 
L 150.481972 253.236277 
L 150.33283 253.128698 
L 149.97528 252.87079 
L 149.473759 252.59329 
L 148.729234 252.295554 
L 147.364218 252.038359 
L 146.986784 252.031591 
L 146.635203 251.95714 
L 146.552478 252.004518 
L 146.324932 252.004518 
L 145.573891 251.647424 
L 145.353481 251.503868 
L 145.240612 251.375068 
L 145.140929 251.151715 
L 145.011671 250.522333 
L 144.970308 250.156846 
L 144.99616 249.798127 
L 144.980649 249.412335 
L 144.892753 249.216055 
L 144.928946 248.837031 
L 144.985819 248.715202 
L 144.846221 248.17374 
L 144.582483 247.672887 
L 144.344648 247.34801 
L 144.109347 247.125131 
L 143.822446 246.948749 
L 143.476034 246.853993 
L 143.036557 246.874298 
L 143.000599 246.893289 
L 142.741797 247.029969 
L 142.498792 247.192407 
L 142.147211 247.598504 
L 141.836991 248.160271 
L 141.728666 248.271689 
L 141.692223 248.309173 
L 141.406873 248.554117 
L 141.199014 248.65972 
L 141.00974 248.75588 
L 140.503049 248.864172 
L 140.239311 248.857404 
L 139.375868 248.383624 
L 139.262121 248.349783 
L 138.884688 248.370088 
L 138.698556 248.485148 
L 138.538276 248.67466 
L 138.207376 249.182281 
L 137.799165 249.527669 
L 137.78341 249.541 
L 136.735696 249.809836 
L 136.256201 250.07874 
L 135.933263 250.138097 
L 135.303311 250.123275 
L 135.129783 250.062442 
L 134.665604 249.899719 
L 133.740117 248.891245 
L 133.383365 248.634051 
L 132.923155 248.464844 
L 132.349249 248.444539 
L 131.956305 248.295704 
L 131.702959 248.045278 
L 131.561421 247.820509 
L 131.072181 247.043573 
L 130.44652 246.116319 
L 130.213856 245.818514 
L 129.820912 245.486936 
L 129.515863 245.317729 
L 128.890202 245.114681 
L 128.548961 245.121449 
L 128.35766 245.168827 
L 127.72171 245.717058 
L 126.830244 247.10442 
L 126.639511 247.291427 
L 126.322053 247.451023 
L 125.446563 247.708015 
L 125.369629 247.846088 
L 125.29073 247.887374 
L 124.960346 247.955869 
L 124.969239 245.004832 
L 124.978701 244.427362 
L 124.962501 240.292136 
L 124.960243 239.715828 
" clip-path="url(#pe98754ebf9)" style="fill: #33a1ff"/>
   </g>
   <g id="text_1">
    <!-- OH -->
    <g transform="translate(226.924688 35.472) scale(0.12 -0.12)">
     <defs>
      <path id="DejaVuSans-4f" d="M 2522 4238 
Q 1834 4238 1429 3725 
Q 1025 3213 1025 2328 
Q 1025 1447 1429 934 
Q 1834 422 2522 422 
Q 3209 422 3611 934 
Q 4013 1447 4013 2328 
Q 4013 3213 3611 3725 
Q 3209 4238 2522 4238 
z
M 2522 4750 
Q 3503 4750 4090 4092 
Q 4678 3434 4678 2328 
Q 4678 1225 4090 567 
Q 3503 -91 2522 -91 
Q 1538 -91 948 565 
Q 359 1222 359 2328 
Q 359 3434 948 4092 
Q 1538 4750 2522 4750 
z
" transform="scale(0.015625)"/>
      <path id="DejaVuSans-48" d="M 628 4666 
L 1259 4666 
L 1259 2753 
L 3553 2753 
L 3553 4666 
L 4184 4666 
L 4184 0 
L 3553 0 
L 3553 2222 
L 1259 2222 
L 1259 0 
L 628 0 
L 628 4666 
z
" transform="scale(0.015625)"/>
     </defs>
     <use xlink:href="#DejaVuSans-4f"/>
     <use xlink:href="#DejaVuSans-48" x="78.710938"/>
    </g>
   </g>
  </g>
 </g>
 <defs>
  <clipPath id="pe98754ebf9">
   <rect x="113.840267" y="41.472" width="244.639465" height="266.112"/>
  </clipPath>
 </defs>
</svg>
