<?xml version="1.0" encoding="utf-8" standalone="no"?>
<!DOCTYPE svg PUBLIC "-//W3C//DTD SVG 1.1//EN"
  "http://www.w3.org/Graphics/SVG/1.1/DTD/svg11.dtd">
<svg xmlns:xlink="http://www.w3.org/1999/xlink" width="360pt" height="360pt" viewBox="0 0 360 360" xmlns="http://www.w3.org/2000/svg" version="1.1">
 <metadata>
  <rdf:RDF xmlns:dc="http://purl.org/dc/elements/1.1/" xmlns:cc="http://creativecommons.org/ns#" xmlns:rdf="http://www.w3.org/1999/02/22-rdf-syntax-ns#">
   <cc:Work>
    <dc:type rdf:resource="http://purl.org/dc/dcmitype/StillImage"/>
    <dc:date>2023-06-19T15:20:25.959925</dc:date>
    <dc:format>image/svg+xml</dc:format>
    <dc:creator>
     <cc:Agent>
      <dc:title>Matplotlib v3.7.1, https://matplotlib.org/</dc:title>
     </cc:Agent>
    </dc:creator>
   </cc:Work>
  </rdf:RDF>
 </metadata>
 <defs>
  <style type="text/css">*{stroke-linejoin: round; stroke-linecap: butt}</style>
 </defs>
 <g id="figure_1">
  <g id="patch_1">
   <path d="M 0 360 
L 360 360 
L 360 0 
L 0 0 
z
" style="fill: #ffffff"/>
  </g>
  <g id="axes_1">
   <g id="PatchCollection_1">
    <path d="M 180.591734 98.482405 
L 181.588539 97.523161 
L 182.266166 97.52434 
L 182.494479 97.6349 
L 182.684936 97.961802 
L 183.220634 98.012453 
L 183.867658 97.562019 
L 184.007877 97.620041 
L 183.837055 98.99835 
L 183.524874 99.426988 
L 183.520767 99.432628 
L 183.360912 99.512231 
L 182.577679 99.539296 
L 181.17431 98.963678 
L 180.588255 98.622683 
L 180.591734 98.482405 
" clip-path="url(#p700ca371b7)" style="fill: #3e00a2"/>
    <path d="M 174.231409 95.896182 
L 174.729955 92.255101 
L 175.284109 91.439083 
L 175.597273 91.336543 
L 176.180496 91.573136 
L 176.182324 91.573877 
L 177.617157 92.944275 
L 177.77845 93.098324 
L 177.819667 93.137691 
L 177.209378 94.866017 
L 176.011938 95.959349 
L 175.207985 96.693404 
L 174.31832 97.010518 
L 174.229695 95.908697 
L 174.231409 95.896182 
" clip-path="url(#p700ca371b7)" style="fill: #3e00a2"/>
    <path d="M 57.681818 238.591497 
L 57.70222 237.582663 
L 57.702928 237.377936 
L 57.699508 237.18854 
L 57.712834 236.549536 
L 57.713482 235.97551 
L 57.723565 233.996524 
L 57.729403 233.742856 
L 57.841378 228.890087 
L 57.941559 223.842734 
L 57.953293 221.861507 
L 57.953293 221.85561 
L 57.965087 221.21295 
L 57.97688 219.67396 
L 57.988673 218.600796 
L 57.988673 218.541831 
L 57.983885 218.515631 
L 57.976821 218.476969 
L 58.003414 214.909404 
L 58.025938 213.319705 
L 58.008485 212.531931 
L 58.013733 211.868279 
L 58.037378 209.148396 
L 58.037374 209.144607 
L 58.03384 205.668688 
L 58.034429 205.592977 
L 58.032661 204.832209 
L 58.037908 204.145679 
L 58.034429 203.979751 
L 58.053711 203.365983 
L 58.05719 203.239208 
L 58.062497 202.278785 
L 58.064207 202.272063 
L 58.071577 201.823928 
L 58.07659 201.677223 
L 58.101001 200.515787 
L 58.116509 199.461963 
L 58.121757 199.417445 
L 58.13868 197.9238 
L 58.141864 197.637937 
L 58.151534 197.309147 
L 58.209379 193.300051 
L 58.225832 192.725265 
L 58.275007 191.007312 
L 58.296352 190.13964 
L 58.341948 187.561931 
L 58.357145 186.702742 
L 58.38079 185.535115 
L 58.381616 185.416654 
L 58.471538 182.403478 
L 58.496244 181.688585 
L 58.496657 181.684163 
L 58.506386 181.349949 
L 58.538699 179.836669 
L 58.628857 175.187919 
L 58.639499 174.740045 
L 58.639529 174.738782 
L 58.627643 172.224396 
L 58.627618 172.219262 
L 58.604917 168.757363 
L 58.638881 165.749612 
L 58.644772 165.582202 
L 58.720311 163.435468 
L 58.724085 161.888459 
L 58.73694 159.28403 
L 58.744605 155.000569 
L 58.741185 154.090207 
L 58.739593 153.236511 
L 58.743308 152.378686 
L 58.745077 152.25598 
L 58.747023 151.603177 
L 58.741893 150.652306 
L 58.745542 150.089547 
L 58.745549 150.088541 
L 58.736881 149.255069 
L 58.720842 147.886077 
L 58.742541 145.817227 
L 58.697433 138.636693 
L 58.697369 138.625456 
L 58.675144 134.695938 
L 58.675138 134.685032 
L 58.674412 133.49504 
L 58.671547 128.793944 
L 58.679802 126.900457 
L 58.647608 125.77387 
L 58.669248 124.351101 
L 58.658575 123.846714 
L 58.665769 123.806264 
L 58.664589 119.16913 
L 58.664581 119.167312 
L 58.659401 118.083524 
L 58.659342 118.075446 
L 58.659301 118.064005 
L 58.638999 112.362907 
L 58.626793 109.984668 
L 58.631923 109.980599 
L 58.633751 109.786368 
L 58.63721 108.937891 
L 58.63723 108.932966 
L 58.639411 108.378518 
L 58.607688 105.27147 
L 58.602145 104.555633 
L 58.59165 102.802719 
L 58.59165 102.800208 
L 58.59165 102.794523 
L 58.52779 97.911682 
L 58.529057 97.711261 
L 58.53463 96.829201 
L 58.535987 96.773538 
L 58.504322 94.284739 
L 58.51187 93.01469 
L 61.821404 92.887561 
L 80.21191 92.494971 
L 82.48324 92.438516 
L 82.660141 92.434119 
L 84.782944 92.393669 
L 84.790592 92.393456 
L 98.116662 92.021599 
L 104.900243 91.801247 
L 106.110443 91.792166 
L 111.952999 91.607075 
L 113.086603 91.599999 
L 113.095551 91.599501 
L 114.324753 91.531069 
L 120.008464 91.395606 
L 120.015061 91.395449 
L 123.205132 91.301105 
L 124.596708 91.224509 
L 125.740631 91.195027 
L 126.706466 91.165649 
L 127.291472 91.147855 
L 127.468368 91.141958 
L 129.909582 91.065362 
L 129.992133 91.065362 
L 130.480988 91.053994 
L 130.499233 91.053569 
L 135.269568 90.923905 
L 135.322696 90.923905 
L 135.540866 90.918009 
L 135.658797 90.906216 
L 138.247423 90.859044 
L 138.143185 91.161299 
L 138.14164 91.16578 
L 138.532284 92.15203 
L 138.707351 92.380343 
L 138.737884 92.393392 
L 138.908259 92.466208 
L 140.859636 93.300199 
L 141.856205 93.258923 
L 142.852716 93.571438 
L 143.952827 93.505633 
L 144.852399 93.166289 
L 145.078353 92.861793 
L 145.078825 92.583006 
L 145.736404 92.691974 
L 147.676178 93.913495 
L 147.867697 94.152421 
L 148.588545 94.430501 
L 150.962716 95.66352 
L 151.296675 96.018853 
L 151.347817 96.073268 
L 152.286599 96.407211 
L 153.537545 96.852197 
L 155.236406 97.309912 
L 156.405431 97.624876 
L 158.879547 97.881138 
L 159.934551 98.2867 
L 161.081009 98.955364 
L 162.467514 100.569652 
L 163.352404 101.295335 
L 165.012625 102.304936 
L 166.797734 103.148431 
L 168.87761 103.730771 
L 171.03815 103.442549 
L 171.59997 103.24991 
L 172.364806 102.826777 
L 172.707216 102.574524 
L 173.453243 101.731323 
L 173.545995 100.796608 
L 173.29044 100.073873 
L 173.678077 99.663712 
L 173.990592 99.527385 
L 174.789923 99.412521 
L 175.609184 100.410387 
L 177.135377 101.836045 
L 177.655921 102.178691 
L 177.724205 102.179172 
L 178.451124 102.184293 
L 179.75443 101.836989 
L 181.643023 102.10469 
L 182.052418 102.416144 
L 182.011319 102.973187 
L 181.40504 103.593736 
L 181.443654 103.7109 
L 181.529044 103.969992 
L 181.87735 104.477033 
L 182.106784 104.719203 
L 183.008416 104.934122 
L 183.368459 105.019944 
L 183.409441 105.029713 
L 183.58558 105.21077 
L 185.155928 106.824964 
L 187.547375 108.59657 
L 187.594135 108.797524 
L 188.478879 109.224627 
L 191.065528 110.473312 
L 193.67491 111.401894 
L 194.543348 111.562043 
L 195.597939 111.573777 
L 196.813504 111.280485 
L 198.540238 110.658403 
L 200.49959 109.651338 
L 202.640141 108.90254 
L 203.448455 108.797145 
L 204.267695 108.690325 
L 206.779726 108.796521 
L 208.141879 108.655005 
L 208.955656 108.44279 
L 212.570394 106.667999 
L 212.837211 106.45826 
L 212.995001 106.14321 
L 213.077553 106.107831 
L 213.264826 106.249701 
L 214.221534 106.084245 
L 218.420085 104.869623 
L 220.328702 104.391325 
L 223.267193 103.654941 
L 224.293245 103.725641 
L 224.65155 103.834318 
L 225.85197 104.198415 
L 226.041737 104.255973 
L 226.17429 104.498024 
L 226.422003 104.657171 
L 227.636743 105.081661 
L 231.204249 105.553264 
L 232.212434 105.529914 
L 232.367093 105.493027 
L 233.621901 105.193748 
L 235.131443 104.833713 
L 236.093113 104.775784 
L 236.110322 104.774748 
L 236.811948 104.810009 
L 237.602198 105.069514 
L 237.618722 105.072599 
L 239.023316 105.334798 
L 239.377107 105.252247 
L 241.016454 104.473908 
L 241.057841 104.432187 
L 241.257563 104.230854 
L 243.732939 102.723816 
L 243.734863 102.722644 
L 244.618097 102.467631 
L 245.574515 102.191487 
L 247.573727 101.000922 
L 249.749716 99.414761 
L 250.509152 98.795342 
L 251.701579 97.822763 
L 253.429374 97.297973 
L 254.125162 96.832149 
L 255.457891 95.78257 
L 256.837262 94.361099 
L 260.022144 92.36283 
L 262.109685 91.148208 
L 265.152461 89.803804 
L 266.019307 89.231843 
L 266.432062 89.249473 
L 267.357873 89.355669 
L 267.385768 89.350023 
L 268.274899 89.170047 
L 272.06659 87.673513 
L 276.281592 85.851492 
L 277.301283 85.577623 
L 277.470859 85.532078 
L 279.8764 84.555085 
L 281.491748 84.147518 
L 282.319324 83.705693 
L 282.780821 83.653542 
L 282.813056 83.6499 
L 283.421421 83.581153 
L 284.490171 83.460381 
L 286.697246 83.210976 
L 288.814211 82.824164 
L 293.849772 81.127031 
L 294.218068 80.89636 
L 294.684069 80.422929 
L 295.634114 80.311485 
L 295.789193 80.599824 
L 297.210664 80.203756 
L 299.399979 79.826851 
L 307.592236 77.594078 
L 309.245971 76.992339 
L 311.275019 76.419906 
L 311.276199 76.500394 
L 311.282154 78.397065 
L 311.279737 79.271164 
L 311.28277 83.965078 
L 311.285987 88.943209 
L 311.278321 89.689176 
L 311.276022 90.46327 
L 311.278086 92.697221 
L 311.275078 94.480621 
L 311.279029 94.566769 
L 311.279236 96.069317 
L 311.28009 102.259945 
L 311.290822 102.88073 
L 311.286812 104.581578 
L 311.287777 105.224954 
L 311.290114 106.783512 
L 311.298472 108.071654 
L 311.300492 108.383058 
L 311.300492 109.061156 
L 311.300492 109.504397 
L 311.298605 109.504338 
L 311.285397 111.716709 
L 311.287284 112.124275 
L 311.285397 112.771476 
L 311.279737 113.967878 
L 311.279737 114.002962 
L 311.282803 114.031914 
L 311.282803 114.067293 
L 311.281741 114.067411 
L 311.28351 114.178148 
L 311.28351 114.179858 
L 311.28351 114.249849 
L 311.284449 114.39434 
L 311.284454 114.39508 
L 311.292473 115.638477 
L 311.312226 116.045277 
L 311.300315 118.23931 
L 311.300492 118.24786 
L 311.306389 118.424755 
L 311.318182 119.385886 
L 311.306389 120.346958 
L 311.306389 121.125298 
L 311.310104 121.723381 
L 311.291589 123.964644 
L 311.293299 125.479045 
L 311.290244 126.194409 
L 311.290232 126.197063 
L 311.299372 126.682168 
L 311.299372 126.683528 
L 311.299372 126.685647 
L 311.296777 126.685647 
L 311.300551 127.222171 
L 311.288758 127.847201 
L 311.292709 128.114843 
L 311.294655 128.713988 
L 311.294891 129.220144 
L 311.300138 129.636438 
L 311.302438 129.82206 
L 311.304325 129.875836 
L 311.302438 130.43058 
L 311.304384 133.15235 
L 311.300728 134.328232 
L 311.300076 134.803785 
L 311.294714 138.714291 
L 311.247542 139.563389 
L 311.251802 139.812272 
L 311.253497 139.911283 
L 311.254239 139.937039 
L 311.25503 139.964528 
L 311.299962 141.280335 
L 311.298949 142.825433 
L 311.2989 142.900106 
L 311.295303 142.954118 
L 311.300551 145.780669 
L 311.29666 146.306814 
L 311.30061 155.35778 
L 311.128078 155.464448 
L 310.907372 155.518932 
L 310.64598 155.507905 
L 310.490076 155.547117 
L 310.088877 155.751608 
L 309.71439 155.894303 
L 309.405767 155.944719 
L 308.840056 156.249391 
L 308.420224 156.610729 
L 308.178703 156.73432 
L 307.895671 156.806965 
L 307.7117 156.802248 
L 307.488988 156.730546 
L 306.992738 156.319206 
L 306.873864 156.250335 
L 306.596787 156.156049 
L 306.295358 156.167784 
L 305.580347 156.366378 
L 304.921766 156.470157 
L 304.498161 156.696641 
L 304.20192 156.980558 
L 303.872659 157.43058 
L 303.474468 157.77871 
L 303.341442 157.853242 
L 303.269741 157.849468 
L 302.834814 158.140992 
L 302.638578 158.369304 
L 302.516815 158.67781 
L 302.527193 158.937256 
L 302.578139 159.19859 
L 302.826323 159.40426 
L 303.262193 159.698614 
L 303.432013 159.854281 
L 304.083931 160.687281 
L 304.571749 161.25995 
L 304.726474 161.306179 
L 304.901954 161.431657 
L 305.215176 162.333587 
L 305.292538 162.819459 
L 305.462358 163.421375 
L 305.989801 164.160974 
L 306.379442 164.47231 
L 306.571432 164.570192 
L 306.789603 165.000637 
L 306.830879 165.230601 
L 306.754224 165.702322 
L 306.624501 165.997147 
L 306.264755 166.504188 
L 306.235272 166.68698 
L 305.863792 167.211769 
L 305.798931 167.382768 
L 305.757655 167.707076 
L 305.798931 168.343899 
L 305.775345 168.986619 
L 305.828413 169.210686 
L 305.804827 169.281444 
L 305.627932 169.446547 
L 304.867223 169.682407 
L 304.77268 169.733138 
L 304.625466 169.81213 
L 304.542915 170.000819 
L 304.660845 170.295585 
L 304.711319 170.329077 
L 305.392013 170.513756 
L 305.675045 170.690651 
L 305.95224 170.914719 
L 306.076067 171.23313 
L 306.011205 171.681265 
L 305.828354 172.082228 
L 305.769389 172.524466 
L 305.771184 172.530566 
L 305.887319 172.925428 
L 306.353203 173.691916 
L 306.494719 174.086982 
L 306.530098 174.29336 
L 306.353203 174.91839 
L 306.134973 175.107078 
L 305.645563 175.808763 
L 305.533529 176.203829 
L 305.568908 176.970316 
L 305.386057 177.388968 
L 305.197369 177.58945 
L 304.336419 178.031688 
L 304.330523 177.984516 
L 303.894181 178.208583 
L 303.451943 178.580063 
L 302.895018 179.474682 
L 302.73251 180.101363 
L 302.61458 180.861954 
L 302.508383 181.251123 
L 302.243041 181.681569 
L 301.830285 182.035359 
L 301.699844 182.082812 
L 301.688297 182.087013 
L 301.588233 182.162488 
L 301.44483 182.316269 
L 300.454971 183.752088 
L 300.356039 183.89559 
L 300.27396 184.086165 
L 300.195654 184.474863 
L 300.035269 184.869222 
L 300.005079 185.638127 
L 300.107914 186.061673 
L 300.149426 186.110732 
L 300.214523 186.345649 
L 300.232213 186.487165 
L 300.173248 186.811473 
L 300.090696 187.041437 
L 300.025776 187.153471 
L 299.860674 187.312676 
L 298.816932 187.925913 
L 298.457245 188.30329 
L 298.351108 188.562737 
L 298.357005 188.81039 
L 298.439556 189.193663 
L 298.604658 189.506178 
L 298.675416 189.559247 
L 298.805139 190.125312 
L 298.805139 190.272724 
L 298.776109 190.717857 
L 298.76976 190.815203 
L 298.665782 191.057819 
L 298.663623 191.062857 
L 298.486964 191.259977 
L 298.422751 191.397719 
L 298.425581 191.670374 
L 298.398221 191.800569 
L 298.23878 192.127 
L 298.1567 192.557209 
L 298.148209 192.692121 
L 298.204816 193.210071 
L 298.266139 193.382721 
L 298.344445 193.902557 
L 298.261363 194.746937 
L 298.082109 194.845998 
L 297.899082 195.015818 
L 297.376356 195.291303 
L 297.176347 195.428102 
L 296.890484 195.765795 
L 296.825386 195.958257 
L 296.823499 196.173362 
L 297.012129 197.205487 
L 297.279123 197.707398 
L 297.329125 197.945145 
L 297.299878 198.099869 
L 297.189496 198.306483 
L 297.131002 198.36309 
L 297.05081 198.39611 
L 296.936653 198.39611 
L 296.601732 198.352712 
L 296.344113 198.254594 
L 295.742197 197.909294 
L 294.983611 197.76023 
L 294.699636 197.775326 
L 294.530759 197.81495 
L 294.376035 197.911181 
L 294.281691 198.040433 
L 294.183514 198.313087 
L 294.159928 198.561212 
L 294.199553 198.731032 
L 294.366542 199.080105 
L 294.592968 199.41597 
L 294.957195 199.774478 
L 295.085326 199.936219 
L 295.311339 200.557417 
L 295.275666 200.850591 
L 295.135918 201.058679 
L 294.736901 201.344011 
L 293.76209 201.690726 
L 293.476169 201.870569 
L 293.29945 202.037028 
L 293.190483 202.209265 
L 293.140952 202.361513 
L 293.18435 202.706695 
L 293.372921 203.197166 
L 293.405352 203.345346 
L 293.422982 204.1274 
L 293.258588 204.753373 
L 293.193136 204.901258 
L 292.64877 205.366728 
L 291.013256 206.280274 
L 290.819791 206.484235 
L 290.65687 206.801113 
L 290.607281 206.966746 
L 290.745082 207.346422 
L 290.878167 207.574322 
L 291.504494 208.202831 
L 291.621186 208.294345 
L 292.013127 208.484685 
L 292.572941 209.303533 
L 292.692876 209.441688 
L 292.757752 209.487071 
L 292.870479 209.565928 
L 292.978267 209.886344 
L 292.97585 210.016185 
L 292.85161 210.380825 
L 292.733032 210.508072 
L 292.424644 210.653362 
L 292.093909 210.747293 
L 291.664702 210.799183 
L 291.511452 210.863278 
L 291.091679 211.090175 
L 290.974928 211.202268 
L 290.850689 211.511245 
L 290.819732 211.706832 
L 290.799684 211.982789 
L 290.864251 212.910664 
L 290.80104 213.508275 
L 290.615005 213.845555 
L 290.557868 214.082064 
L 290.57544 214.148164 
L 290.543186 214.313325 
L 290.249422 215.013772 
L 289.992452 215.389851 
L 289.293833 215.622763 
L 289.03993 215.622704 
L 288.466022 215.523997 
L 287.795412 215.507958 
L 287.31066 215.585026 
L 286.871311 215.737392 
L 286.658211 215.866879 
L 286.252767 216.20239 
L 284.681112 217.192945 
L 284.195947 217.582704 
L 283.661251 217.951531 
L 283.309642 218.305852 
L 283.12632 218.431625 
L 282.42723 218.804402 
L 281.755322 219.240036 
L 281.528602 219.422651 
L 281.36574 219.644714 
L 281.158949 219.841421 
L 280.655563 220.145886 
L 280.290217 220.366859 
L 279.992266 220.626719 
L 279.872744 220.779025 
L 279.377614 221.16619 
L 278.775285 221.564381 
L 278.459468 221.93769 
L 277.546512 222.685662 
L 276.99224 223.26352 
L 276.190314 224.49589 
L 276.149039 224.49589 
L 275.775251 224.998168 
L 275.582974 225.25654 
L 275.358907 225.4924 
L 275.122987 225.675192 
L 275.010953 225.74595 
L 274.792783 225.822605 
L 273.943685 225.857984 
L 273.295895 225.975266 
L 272.876417 226.093844 
L 272.328042 226.332889 
L 272.188117 226.426526 
L 271.973543 226.591746 
L 271.692398 227.014467 
L 271.120554 227.501459 
L 270.836873 227.767805 
L 270.659506 227.982379 
L 270.506079 228.19371 
L 270.4707 228.284044 
L 270.503897 228.574093 
L 270.457669 228.817914 
L 270.374528 228.954772 
L 270.123867 229.135559 
L 269.884646 229.219172 
L 269.754392 229.225658 
L 268.677748 228.977179 
L 268.250369 228.993925 
L 267.619443 229.188156 
L 266.975072 229.234385 
L 266.682546 229.359862 
L 266.344794 229.626856 
L 265.394748 229.914606 
L 264.965424 230.141032 
L 264.09274 230.686341 
L 263.704986 230.869369 
L 263.14924 231.187309 
L 262.735069 231.467511 
L 262.443545 231.601479 
L 261.892575 231.754317 
L 261.045854 231.820143 
L 260.76929 231.841644 
L 260.550353 231.819002 
L 260.262485 231.738337 
L 259.867832 231.42199 
L 259.717766 231.251463 
L 259.594588 231.024624 
L 259.307958 230.218689 
L 259.188495 229.76507 
L 258.957411 229.106076 
L 258.602618 228.721152 
L 258.317422 228.512473 
L 258.138445 228.381513 
L 257.66295 228.086924 
L 257.250194 227.904132 
L 256.607416 227.792098 
L 256.041351 227.85696 
L 255.357297 228.181268 
L 255.036291 228.393778 
L 254.463622 229.012676 
L 254.10134 229.34288 
L 253.267279 229.98159 
L 252.659702 230.346702 
L 252.021936 230.667472 
L 251.422792 230.866538 
L 250.958382 231.182591 
L 250.062054 232.013999 
L 249.938227 232.48572 
L 249.908745 233.24637 
L 249.619816 234.661532 
L 249.608023 235.705155 
L 249.484196 236.029463 
L 249.313197 236.206359 
L 248.410324 236.143148 
L 248.232013 236.081824 
L 247.8442 235.86955 
L 247.361158 235.743129 
L 247.06303 235.712939 
L 246.73943 235.75445 
L 246.302557 235.854455 
L 245.012814 235.645011 
L 244.248626 235.635577 
L 243.420225 235.717656 
L 242.940014 235.847851 
L 242.627735 236.013897 
L 242.282435 236.30259 
L 242.130482 236.468635 
L 241.875753 236.833747 
L 241.839902 237.32245 
L 241.860658 237.477175 
L 241.914434 237.669637 
L 242.12205 238.068712 
L 242.189034 238.419673 
L 242.172996 238.548924 
L 242.110729 238.637608 
L 241.980534 238.77535 
L 241.608759 238.967753 
L 240.976653 239.063041 
L 240.537395 239.156845 
L 240.225614 239.223426 
L 240.153767 239.263096 
L 240.071833 239.308336 
L 239.896353 239.496081 
L 239.6954 239.850815 
L 239.551054 240.416879 
L 239.475578 240.560283 
L 239.213302 240.810295 
L 238.722712 240.993499 
L 238.551654 241.100403 
L 238.374759 241.318574 
L 238.371159 241.345214 
L 238.345276 241.536745 
L 238.463207 241.878742 
L 239.031217 243.238654 
L 239.093484 243.620748 
L 239.036878 243.803776 
L 239.018422 244.271428 
L 239.034342 244.512123 
L 239.176743 245.104074 
L 239.129571 245.705459 
L 239.076503 245.953113 
L 238.982158 246.206662 
L 238.876039 246.365842 
L 238.876021 246.365868 
L 238.575299 246.690176 
L 238.079992 247.032174 
L 237.838177 247.156001 
L 237.20725 247.368275 
L 236.859356 247.385964 
L 236.617599 247.356482 
L 236.31098 247.285724 
L 235.87458 247.102932 
L 235.585651 247.043967 
L 235.302618 247.03807 
L 235.137516 247.079346 
L 235.037275 247.150104 
L 234.948828 247.315206 
L 234.931138 247.657204 
L 234.97831 248.105339 
L 235.078551 248.476819 
L 235.237757 248.736265 
L 235.567961 249.178503 
L 235.744857 249.337709 
L 236.160619 249.610423 
L 236.558634 249.832957 
L 237.366456 250.446194 
L 237.696719 250.811778 
L 237.873615 251.088914 
L 237.873615 251.60191 
L 237.820546 251.83777 
L 237.700552 251.98306 
L 237.418286 252.175876 
L 237.295226 252.362383 
L 237.207427 252.573183 
L 237.13832 252.865945 
L 237.153474 253.048383 
L 237.196636 253.125686 
L 236.95199 253.595284 
L 236.837775 254.057452 
L 236.851995 254.135637 
L 236.901693 254.408884 
L 237.013196 254.590674 
L 237.30124 254.841099 
L 237.552255 255.014338 
L 238.302763 255.69568 
L 238.352529 255.908367 
L 238.212487 256.238748 
L 238.124688 256.363401 
L 237.967605 256.464054 
L 237.757217 256.533338 
L 237.548894 256.546074 
L 237.292631 256.532218 
L 236.871503 256.423781 
L 236.612115 256.341878 
L 236.15661 256.105369 
L 235.979479 255.970103 
L 235.40392 255.403213 
L 234.926421 255.16405 
L 234.604648 255.114048 
L 234.290129 255.138401 
L 234.152858 255.179971 
L 233.907445 255.309753 
L 233.521165 255.696682 
L 233.142668 256.19134 
L 233.049267 257.108484 
L 233.093963 257.291511 
L 232.89696 257.803387 
L 232.465454 258.314791 
L 232.291507 258.464799 
L 231.351839 258.996428 
L 230.504157 259.402992 
L 230.291646 259.427168 
L 229.955309 259.385126 
L 229.359526 259.156459 
L 229.261231 259.107282 
L 228.931852 258.813872 
L 228.279168 258.38154 
L 228.218257 258.270096 
L 228.197501 258.159301 
L 228.296621 257.809048 
L 228.743164 257.378367 
L 228.822236 257.261085 
L 229.165472 256.968618 
L 229.377452 256.860181 
L 229.815621 256.451259 
L 229.872051 256.388343 
L 229.959496 256.140807 
L 229.834195 255.665077 
L 229.48011 255.217473 
L 229.135577 254.682011 
L 228.795289 253.95957 
L 228.303107 253.316084 
L 227.912464 252.71753 
L 227.697713 252.555081 
L 227.402828 252.385202 
L 226.835702 252.223815 
L 226.375008 252.271282 
L 226.282315 252.327416 
L 225.873274 252.40525 
L 225.513469 252.43721 
L 225.302138 252.421525 
L 225.189161 252.391217 
L 225.08379 252.322935 
L 225.032254 252.243568 
L 224.989269 251.873208 
L 224.930304 251.66683 
L 224.735719 251.283557 
L 224.482169 250.906181 
L 224.269895 250.664424 
L 223.83945 250.346012 
L 223.556358 250.245772 
L 222.937225 250.216289 
L 222.365263 250.31653 
L 221.852208 250.487529 
L 221.687106 250.652631 
L 221.522003 250.935663 
L 221.280246 251.767071 
L 221.073868 252.150344 
L 220.932352 252.321343 
L 220.507745 252.574893 
L 219.912197 252.881512 
L 219.293064 253.105579 
L 218.721043 253.406301 
L 218.57363 253.536024 
L 218.479286 253.701008 
L 218.379046 254.078503 
L 218.142692 254.447547 
L 218.042945 254.603292 
L 217.541741 255.198781 
L 217.435545 255.505399 
L 217.453294 255.806121 
L 217.388373 255.965327 
L 216.839998 256.643426 
L 216.374173 257.297938 
L 216.026279 257.557385 
L 215.530913 257.999623 
L 215.448362 258.377 
L 215.407087 258.860513 
L 215.589879 259.237831 
L 215.654492 259.437541 
L 215.718363 259.634961 
L 215.763413 259.94895 
L 215.622368 260.752409 
L 215.430673 261.395954 
L 215.26557 261.602332 
L 214.445779 262.330433 
L 214.190578 262.459861 
L 213.389832 262.758283 
L 212.700294 262.890306 
L 212.222205 263.270572 
L 211.631964 263.625306 
L 211.32511 263.860046 
L 211.161482 264.03759 
L 210.908109 264.538381 
L 210.910939 264.973366 
L 210.973973 265.331343 
L 211.200104 265.649106 
L 211.75868 265.908965 
L 212.089121 266.11953 
L 212.245673 266.27561 
L 212.438843 266.587182 
L 212.576703 267.25107 
L 212.788977 267.475137 
L 212.871529 267.669722 
L 212.971769 268.353717 
L 213.089758 268.742887 
L 213.213585 269.161539 
L 213.189999 269.356124 
L 213.060276 269.727604 
L 212.759554 270.423392 
L 212.718278 270.836089 
L 212.906967 271.29012 
L 213.001311 271.638014 
L 213.030793 272.062563 
L 213.414066 272.69349 
L 213.549686 273.053177 
L 213.697099 273.619242 
L 213.791443 273.82556 
L 213.826881 274.043731 
L 213.826881 274.438798 
L 213.64403 275.075621 
L 213.520204 275.352757 
L 213.243068 275.612203 
L 212.842105 275.871649 
L 212.543918 275.982975 
L 211.874842 276.06417 
L 211.061359 276.066293 
L 210.872612 276.083924 
L 209.469183 275.665331 
L 209.08591 275.647641 
L 208.519786 275.68302 
L 207.965514 275.848122 
L 207.800412 275.948363 
L 207.0438 276.602572 
L 206.797947 276.81515 
L 206.668223 277.027424 
L 206.644637 277.18663 
L 206.680016 277.917797 
L 206.5385 279.203236 
L 206.414673 279.509855 
L 206.267261 279.739819 
L 206.113951 280.105402 
L 206.04909 280.42971 
L 206.102158 281.213887 
L 206.034231 281.690089 
L 205.908753 282.021237 
L 205.655911 282.464655 
L 205.545528 282.880713 
L 205.461562 283.35432 
L 205.215323 283.956236 
L 204.868137 284.463808 
L 204.494534 284.744953 
L 203.886899 284.954397 
L 202.736784 285.093083 
L 201.461487 285.317917 
L 200.991359 285.343154 
L 200.098863 285.0488 
L 198.359805 285.595112 
L 198.262879 285.618769 
L 197.61089 285.777904 
L 196.867929 285.913523 
L 195.281709 286.302693 
L 194.037487 286.733138 
L 192.760828 287.059575 
L 192.746092 287.063343 
L 192.119883 287.152734 
L 191.553818 287.180094 
L 191.333554 287.157064 
L 190.913162 287.113109 
L 190.39993 286.999896 
L 189.93953 286.851776 
L 189.774428 286.771584 
L 189.28661 286.45559 
L 188.966783 286.08293 
L 188.775264 285.794237 
L 188.548838 285.162131 
L 188.352603 283.84037 
L 188.110079 283.356384 
L 187.977054 283.155431 
L 187.779875 282.97429 
L 187.50439 282.82334 
L 187.172298 282.669559 
L 186.840001 282.553458 
L 186.370314 282.389356 
L 185.740095 282.040342 
L 185.229693 281.660135 
L 184.732618 281.134103 
L 184.728667 281.129921 
L 184.128638 280.558195 
L 183.288916 279.354364 
L 182.896444 278.989252 
L 182.694548 278.858114 
L 181.863317 278.492058 
L 181.537829 278.308087 
L 181.232154 278.076001 
L 180.87176 277.977883 
L 180.363245 277.99398 
L 178.941419 277.910957 
L 178.011127 277.992093 
L 177.40355 277.937374 
L 176.794087 277.746798 
L 175.856551 277.301622 
L 175.611896 277.185451 
L 174.469329 276.392016 
L 174.188184 276.114704 
L 174.018364 275.860918 
L 173.774956 275.320326 
L 173.599417 274.782564 
L 173.510734 274.348581 
L 173.452004 273.637226 
L 173.481487 272.858887 
L 173.298695 272.015686 
L 173.068731 271.490955 
L 172.697192 270.966166 
L 172.384677 270.691978 
L 172.225471 270.258585 
L 172.266747 269.834036 
L 172.361091 269.385901 
L 172.602848 268.595769 
L 172.65002 268.377598 
L 172.679503 268.017911 
L 172.596952 267.357561 
L 172.520297 267.168873 
L 172.417188 267.001765 
L 172.349298 266.891737 
L 172.113438 266.644083 
L 171.541417 266.372844 
L 171.246592 266.343361 
L 169.507062 266.726634 
L 168.360014 267.127361 
L 167.431432 267.617007 
L 166.853574 267.982591 
L 166.222648 268.147693 
L 165.827581 268.130004 
L 165.361698 267.994384 
L 165.049183 267.947212 
L 164.31094 267.907057 
L 163.725063 267.981765 
L 163.361543 268.078881 
L 163.197325 268.162788 
L 163.186192 268.17201 
L 163.060998 268.275707 
L 162.887051 268.491106 
L 162.740935 268.713699 
L 162.511207 269.18884 
L 162.37008 269.35254 
L 161.876389 269.925196 
L 161.215096 270.329402 
L 160.041277 270.794401 
L 158.949244 271.016935 
L 158.672697 271.140526 
L 158.381646 271.348967 
L 158.058045 271.67988 
L 157.781676 272.085147 
L 157.559731 272.908064 
L 157.402766 273.203656 
L 157.044671 273.705567 
L 156.83676 273.907994 
L 156.585333 274.097272 
L 155.754515 274.364325 
L 155.293526 274.392569 
L 154.827524 274.381719 
L 153.721752 274.538213 
L 153.070011 274.576068 
L 152.564444 274.480427 
L 151.853974 274.151402 
L 151.303947 273.950272 
L 150.884646 273.890186 
L 150.527495 273.928631 
L 150.201359 274.02958 
L 149.997634 274.19592 
L 149.610352 274.236017 
L 149.440237 274.306067 
L 149.231543 274.493853 
L 149.223069 274.501477 
L 149.174953 274.685272 
L 148.113346 275.620635 
L 147.973539 275.695167 
L 147.660553 275.777069 
L 147.203101 275.683315 
L 146.856328 275.527293 
L 146.64311 275.38047 
L 146.283777 275.030925 
L 146.19185 274.85456 
L 146.133003 274.629903 
L 146.10753 274.236606 
L 145.998327 273.770664 
L 145.688583 273.365338 
L 144.959303 272.882709 
L 143.989857 272.391234 
L 143.38747 272.124241 
L 142.818987 271.951119 
L 142.320556 271.850996 
L 140.711752 271.65476 
L 140.230891 271.541017 
L 139.039207 271.486002 
L 138.650922 271.439892 
L 138.057379 271.214527 
L 137.894989 271.235047 
L 137.408527 271.125785 
L 137.166888 270.96935 
L 136.91552 270.725353 
L 136.322508 270.263184 
L 135.917712 270.022135 
L 135.26774 269.723241 
L 134.783873 269.578187 
L 134.289627 269.499822 
L 133.559285 269.555249 
L 132.618261 269.750895 
L 131.876952 269.95232 
L 131.450752 270.101443 
L 131.095606 270.166069 
L 131.117246 270.111526 
L 128.700738 270.614262 
L 128.041155 270.894818 
L 127.622738 271.250732 
L 127.493605 271.413888 
L 127.424675 271.570381 
L 127.305624 272.086857 
L 127.272722 272.4821 
L 127.093468 273.024284 
L 126.92129 273.393759 
L 126.695866 273.644597 
L 126.508416 273.771313 
L 126.360472 273.822553 
L 126.131747 273.88995 
L 125.860095 273.928985 
L 125.612441 273.920848 
L 124.941831 273.804805 
L 124.585918 273.695483 
L 123.495889 273.233551 
L 123.418785 273.231344 
L 123.250712 273.226534 
L 122.941676 273.123463 
L 122.733647 273.001641 
L 122.675744 272.907887 
L 122.506867 272.821975 
L 121.479224 272.749565 
L 120.788566 272.650445 
L 120.050028 272.503622 
L 119.894065 272.457747 
L 119.643051 272.319828 
L 119.477182 272.14706 
L 119.264848 271.640078 
L 119.183477 271.377271 
L 119.017195 270.569331 
L 118.801442 269.9364 
L 118.595477 269.709502 
L 118.385384 269.580545 
L 117.921152 269.404122 
L 117.463111 269.289434 
L 117.017158 269.240317 
L 116.54697 269.11478 
L 115.829896 268.735457 
L 115.67181 268.626431 
L 115.441905 268.387327 
L 115.377397 268.248642 
L 115.329223 268.086193 
L 115.315425 267.888895 
L 115.201269 267.471776 
L 115.110993 267.185737 
L 114.961988 266.897515 
L 114.764396 266.646619 
L 114.355002 266.330566 
L 113.912645 266.129672 
L 113.521235 265.998887 
L 112.699321 265.81126 
L 111.708121 265.660793 
L 111.704933 265.66031 
L 111.177137 265.565789 
L 110.923882 265.571567 
L 110.347852 265.45971 
L 110.253213 265.421914 
L 110.261291 265.281577 
L 109.345917 264.748945 
L 108.781739 264.59823 
L 108.275995 264.526765 
L 107.291808 264.543275 
L 106.311042 264.849422 
L 105.682651 264.952964 
L 104.679714 265.253391 
L 103.419453 265.518086 
L 102.997498 265.46944 
L 102.936005 265.470725 
L 102.303597 265.483945 
L 101.8271 265.523805 
L 100.48016 265.242483 
L 99.625048 265.006564 
L 99.222965 264.801719 
L 98.077097 264.402879 
L 96.849208 264.083052 
L 94.346375 263.728613 
L 93.919821 263.630259 
L 93.488669 263.446347 
L 92.948843 262.971914 
L 92.757737 262.741242 
L 92.469929 262.217514 
L 92.455428 262.165894 
L 92.403593 261.981359 
L 92.28808 261.266761 
L 92.260838 260.623747 
L 92.372282 259.486074 
L 92.367722 259.368374 
L 92.354888 259.037173 
L 92.342446 258.810629 
L 92.21803 258.285781 
L 91.881811 257.832575 
L 91.732393 257.698429 
L 91.557974 257.471532 
L 90.887954 256.517889 
L 90.664653 256.318292 
L 89.832479 255.438651 
L 89.5373 255.223016 
L 89.050955 254.596747 
L 88.643389 253.85933 
L 88.561427 252.856274 
L 88.514904 252.597536 
L 88.390664 252.226586 
L 88.076026 251.609222 
L 87.546402 250.988555 
L 87.177489 250.687836 
L 86.78817 250.370483 
L 86.618081 250.27676 
L 86.210312 250.052071 
L 85.63835 249.810314 
L 84.789253 249.550927 
L 83.232515 249.32686 
L 82.80207 249.320963 
L 82.401108 249.256101 
L 82.306763 249.297377 
L 82.047258 249.297377 
L 81.190731 248.986277 
L 80.939363 248.861212 
L 80.810642 248.749002 
L 80.696957 248.554417 
L 80.549545 248.0061 
L 80.502372 247.687689 
L 80.531855 247.375174 
L 80.514165 247.039073 
L 80.413925 246.868074 
L 80.4552 246.537869 
L 80.520062 246.431732 
L 80.360856 245.960011 
L 80.060075 245.52367 
L 79.788836 245.240637 
L 79.520486 245.046465 
L 79.193288 244.892802 
L 78.798222 244.810251 
L 78.297019 244.827941 
L 78.25601 244.844485 
L 77.960859 244.96356 
L 77.683723 245.105076 
L 77.28276 245.458867 
L 76.92897 245.948277 
L 76.805429 246.045345 
L 76.763867 246.078001 
L 76.438439 246.291395 
L 76.201386 246.383396 
L 75.985528 246.46717 
L 75.40767 246.561514 
L 75.106889 246.555618 
L 74.122172 246.142862 
L 73.992449 246.11338 
L 73.562004 246.131069 
L 73.349729 246.23131 
L 73.166937 246.396412 
L 72.789561 246.83865 
L 72.324015 247.139552 
L 72.306047 247.151165 
L 71.111178 247.385375 
L 70.564336 247.619643 
L 70.19604 247.671355 
L 69.477609 247.658442 
L 69.279708 247.605445 
L 68.750334 247.46368 
L 67.694858 246.5851 
L 67.287999 246.361033 
L 66.763151 246.21362 
L 66.108638 246.195931 
L 65.660504 246.066267 
L 65.371575 245.848096 
L 65.210157 245.652278 
L 64.6522 244.975412 
L 63.938664 244.16759 
L 63.673321 243.908144 
L 63.225186 243.619274 
L 62.877292 243.471861 
L 62.163755 243.294966 
L 61.774586 243.300862 
L 61.556415 243.342138 
L 60.831144 243.819755 
L 59.814468 245.028422 
L 59.596946 245.191342 
L 59.2349 245.330382 
L 58.236444 245.554273 
L 58.148704 245.674561 
L 58.058723 245.71053 
L 57.681936 245.770203 
L 57.692078 243.199266 
L 57.702869 242.696175 
L 57.684393 239.093575 
L 57.681818 238.591497 
" clip-path="url(#p700ca371b7)" style="fill: #3e00a2"/>
   </g>
   <g id="PathCollection_1">
    <defs>
     <path id="mf7ba613c33" d="M 0 1.581139 
C 0.419323 1.581139 0.821528 1.41454 1.118034 1.118034 
C 1.41454 0.821528 1.581139 0.419323 1.581139 0 
C 1.581139 -0.419323 1.41454 -0.821528 1.118034 -1.118034 
C 0.821528 -1.41454 0.419323 -1.581139 0 -1.581139 
C -0.419323 -1.581139 -0.821528 -1.41454 -1.118034 -1.118034 
C -1.41454 -0.821528 -1.581139 -0.419323 -1.581139 0 
C -1.581139 0.419323 -1.41454 0.821528 -1.118034 1.118034 
C -0.821528 1.41454 -0.419323 1.581139 0 1.581139 
z
" style="stroke: #000000"/>
    </defs>
    <g clip-path="url(#p700ca371b7)">
     <use xlink:href="#mf7ba613c33" x="165.062568" y="195.30398" style="stroke: #000000"/>
    </g>
   </g>
   <g id="text_1">
    <!-- Columbus -->
    <g transform="translate(168.062568 192.30398) scale(0.1 -0.1)">
     <defs>
      <path id="DejaVuSans-43" d="M 4122 4306 
L 4122 3641 
Q 3803 3938 3442 4084 
Q 3081 4231 2675 4231 
Q 1875 4231 1450 3742 
Q 1025 3253 1025 2328 
Q 1025 1406 1450 917 
Q 1875 428 2675 428 
Q 3081 428 3442 575 
Q 3803 722 4122 1019 
L 4122 359 
Q 3791 134 3420 21 
Q 3050 -91 2638 -91 
Q 1578 -91 968 557 
Q 359 1206 359 2328 
Q 359 3453 968 4101 
Q 1578 4750 2638 4750 
Q 3056 4750 3426 4639 
Q 3797 4528 4122 4306 
z
" transform="scale(0.015625)"/>
      <path id="DejaVuSans-6f" d="M 1959 3097 
Q 1497 3097 1228 2736 
Q 959 2375 959 1747 
Q 959 1119 1226 758 
Q 1494 397 1959 397 
Q 2419 397 2687 759 
Q 2956 1122 2956 1747 
Q 2956 2369 2687 2733 
Q 2419 3097 1959 3097 
z
M 1959 3584 
Q 2709 3584 3137 3096 
Q 3566 2609 3566 1747 
Q 3566 888 3137 398 
Q 2709 -91 1959 -91 
Q 1206 -91 779 398 
Q 353 888 353 1747 
Q 353 2609 779 3096 
Q 1206 3584 1959 3584 
z
" transform="scale(0.015625)"/>
      <path id="DejaVuSans-6c" d="M 603 4863 
L 1178 4863 
L 1178 0 
L 603 0 
L 603 4863 
z
" transform="scale(0.015625)"/>
      <path id="DejaVuSans-75" d="M 544 1381 
L 544 3500 
L 1119 3500 
L 1119 1403 
Q 1119 906 1312 657 
Q 1506 409 1894 409 
Q 2359 409 2629 706 
Q 2900 1003 2900 1516 
L 2900 3500 
L 3475 3500 
L 3475 0 
L 2900 0 
L 2900 538 
Q 2691 219 2414 64 
Q 2138 -91 1772 -91 
Q 1169 -91 856 284 
Q 544 659 544 1381 
z
M 1991 3584 
L 1991 3584 
z
" transform="scale(0.015625)"/>
      <path id="DejaVuSans-6d" d="M 3328 2828 
Q 3544 3216 3844 3400 
Q 4144 3584 4550 3584 
Q 5097 3584 5394 3201 
Q 5691 2819 5691 2113 
L 5691 0 
L 5113 0 
L 5113 2094 
Q 5113 2597 4934 2840 
Q 4756 3084 4391 3084 
Q 3944 3084 3684 2787 
Q 3425 2491 3425 1978 
L 3425 0 
L 2847 0 
L 2847 2094 
Q 2847 2600 2669 2842 
Q 2491 3084 2119 3084 
Q 1678 3084 1418 2786 
Q 1159 2488 1159 1978 
L 1159 0 
L 581 0 
L 581 3500 
L 1159 3500 
L 1159 2956 
Q 1356 3278 1631 3431 
Q 1906 3584 2284 3584 
Q 2666 3584 2933 3390 
Q 3200 3197 3328 2828 
z
" transform="scale(0.015625)"/>
      <path id="DejaVuSans-62" d="M 3116 1747 
Q 3116 2381 2855 2742 
Q 2594 3103 2138 3103 
Q 1681 3103 1420 2742 
Q 1159 2381 1159 1747 
Q 1159 1113 1420 752 
Q 1681 391 2138 391 
Q 2594 391 2855 752 
Q 3116 1113 3116 1747 
z
M 1159 2969 
Q 1341 3281 1617 3432 
Q 1894 3584 2278 3584 
Q 2916 3584 3314 3078 
Q 3713 2572 3713 1747 
Q 3713 922 3314 415 
Q 2916 -91 2278 -91 
Q 1894 -91 1617 61 
Q 1341 213 1159 525 
L 1159 0 
L 581 0 
L 581 4863 
L 1159 4863 
L 1159 2969 
z
" transform="scale(0.015625)"/>
      <path id="DejaVuSans-73" d="M 2834 3397 
L 2834 2853 
Q 2591 2978 2328 3040 
Q 2066 3103 1784 3103 
Q 1356 3103 1142 2972 
Q 928 2841 928 2578 
Q 928 2378 1081 2264 
Q 1234 2150 1697 2047 
L 1894 2003 
Q 2506 1872 2764 1633 
Q 3022 1394 3022 966 
Q 3022 478 2636 193 
Q 2250 -91 1575 -91 
Q 1294 -91 989 -36 
Q 684 19 347 128 
L 347 722 
Q 666 556 975 473 
Q 1284 391 1588 391 
Q 1994 391 2212 530 
Q 2431 669 2431 922 
Q 2431 1156 2273 1281 
Q 2116 1406 1581 1522 
L 1381 1569 
Q 847 1681 609 1914 
Q 372 2147 372 2553 
Q 372 3047 722 3315 
Q 1072 3584 1716 3584 
Q 2034 3584 2315 3537 
Q 2597 3491 2834 3397 
z
" transform="scale(0.015625)"/>
     </defs>
     <use xlink:href="#DejaVuSans-43"/>
     <use xlink:href="#DejaVuSans-6f" x="69.824219"/>
     <use xlink:href="#DejaVuSans-6c" x="131.005859"/>
     <use xlink:href="#DejaVuSans-75" x="158.789062"/>
     <use xlink:href="#DejaVuSans-6d" x="222.167969"/>
     <use xlink:href="#DejaVuSans-62" x="319.580078"/>
     <use xlink:href="#DejaVuSans-75" x="383.056641"/>
     <use xlink:href="#DejaVuSans-73" x="446.435547"/>
    </g>
   </g>
   <g id="text_2">
    <!-- Ohio -->
    <g transform="translate(170.63625 59.881897) scale(0.12 -0.12)">
     <defs>
      <path id="DejaVuSans-4f" d="M 2522 4238 
Q 1834 4238 1429 3725 
Q 1025 3213 1025 2328 
Q 1025 1447 1429 934 
Q 1834 422 2522 422 
Q 3209 422 3611 934 
Q 4013 1447 4013 2328 
Q 4013 3213 3611 3725 
Q 3209 4238 2522 4238 
z
M 2522 4750 
Q 3503 4750 4090 4092 
Q 4678 3434 4678 2328 
Q 4678 1225 4090 567 
Q 3503 -91 2522 -91 
Q 1538 -91 948 565 
Q 359 1222 359 2328 
Q 359 3434 948 4092 
Q 1538 4750 2522 4750 
z
" transform="scale(0.015625)"/>
      <path id="DejaVuSans-68" d="M 3513 2113 
L 3513 0 
L 2938 0 
L 2938 2094 
Q 2938 2591 2744 2837 
Q 2550 3084 2163 3084 
Q 1697 3084 1428 2787 
Q 1159 2491 1159 1978 
L 1159 0 
L 581 0 
L 581 4863 
L 1159 4863 
L 1159 2956 
Q 1366 3272 1645 3428 
Q 1925 3584 2291 3584 
Q 2894 3584 3203 3211 
Q 3513 2838 3513 2113 
z
" transform="scale(0.015625)"/>
      <path id="DejaVuSans-69" d="M 603 3500 
L 1178 3500 
L 1178 0 
L 603 0 
L 603 3500 
z
M 603 4863 
L 1178 4863 
L 1178 4134 
L 603 4134 
L 603 4863 
z
" transform="scale(0.015625)"/>
     </defs>
     <use xlink:href="#DejaVuSans-4f"/>
     <use xlink:href="#DejaVuSans-68" x="78.710938"/>
     <use xlink:href="#DejaVuSans-69" x="142.089844"/>
     <use xlink:href="#DejaVuSans-6f" x="169.873047"/>
    </g>
   </g>
  </g>
 </g>
 <defs>
  <clipPath id="p700ca371b7">
   <rect x="45" y="65.881897" width="279" height="231.836206"/>
  </clipPath>
 </defs>
</svg>
