<?xml version="1.0" encoding="utf-8" standalone="no"?>
<!DOCTYPE svg PUBLIC "-//W3C//DTD SVG 1.1//EN"
  "http://www.w3.org/Graphics/SVG/1.1/DTD/svg11.dtd">
<svg xmlns:xlink="http://www.w3.org/1999/xlink" width="460.8pt" height="345.6pt" viewBox="0 0 460.8 345.6" xmlns="http://www.w3.org/2000/svg" version="1.1">
 <metadata>
  <rdf:RDF xmlns:dc="http://purl.org/dc/elements/1.1/" xmlns:cc="http://creativecommons.org/ns#" xmlns:rdf="http://www.w3.org/1999/02/22-rdf-syntax-ns#">
   <cc:Work>
    <dc:type rdf:resource="http://purl.org/dc/dcmitype/StillImage"/>
    <dc:date>2023-06-19T14:47:43.231497</dc:date>
    <dc:format>image/svg+xml</dc:format>
    <dc:creator>
     <cc:Agent>
      <dc:title>Matplotlib v3.7.1, https://matplotlib.org/</dc:title>
     </cc:Agent>
    </dc:creator>
   </cc:Work>
  </rdf:RDF>
 </metadata>
 <defs>
  <style type="text/css">*{stroke-linejoin: round; stroke-linecap: butt}</style>
 </defs>
 <g id="figure_1">
  <g id="patch_1">
   <path d="M 0 345.6 
L 460.8 345.6 
L 460.8 0 
L 0 0 
z
" style="fill: #ffffff"/>
  </g>
  <g id="axes_1">
   <g id="PatchCollection_1">
    <path d="M 73.832727 118.031474 
L 73.847007 114.497986 
L 73.844583 113.826638 
L 73.834507 111.134284 
L 73.846628 109.080834 
L 73.855491 100.255188 
L 73.844772 100.161708 
L 73.84659 96.053183 
L 74.423187 96.126519 
L 74.467465 96.124338 
L 74.702074 96.125359 
L 79.914818 96.076669 
L 80.855941 96.068779 
L 81.512723 96.081729 
L 82.316959 96.093193 
L 83.024761 96.126287 
L 83.6998 96.165276 
L 85.363269 96.28317 
L 98.346459 96.309812 
L 98.349451 96.313015 
L 101.928762 96.318492 
L 103.916267 96.349033 
L 104.827012 96.355392 
L 109.742198 96.377857 
L 110.20668 96.379064 
L 110.738203 96.377114 
L 111.789661 96.370291 
L 111.789661 96.371359 
L 115.501844 96.350333 
L 126.896939 96.285677 
L 126.942277 96.282984 
L 128.651869 96.270876 
L 128.652676 96.27087 
L 130.02279 96.264743 
L 131.30075 96.261726 
L 133.964278 96.245249 
L 134.007344 96.2433 
L 135.359088 96.236059 
L 136.060035 96.232903 
L 136.131129 96.231092 
L 141.61901 96.195214 
L 141.672909 96.1915 
L 147.155335 96.154507 
L 147.166357 96.15446 
L 147.653528 96.152372 
L 149.204503 96.142672 
L 149.815795 96.148798 
L 151.745084 96.143786 
L 151.748762 96.143741 
L 153.297195 96.124802 
L 153.309089 96.116261 
L 153.786866 96.122806 
L 155.151412 96.121785 
L 156.717879 96.10048 
L 157.026991 96.100202 
L 158.565997 96.09621 
L 158.891358 96.087855 
L 159.738926 96.101687 
L 161.972326 96.072492 
L 163.57167 96.060981 
L 163.706397 96.05685 
L 165.159234 96.039491 
L 165.162454 96.040558 
L 166.626199 96.023895 
L 166.667296 96.029233 
L 179.92119 95.961421 
L 180.221249 95.959007 
L 180.273633 95.963509 
L 180.45635 95.961374 
L 183.176845 95.955619 
L 184.170664 95.960932 
L 187.343889 95.977898 
L 187.462936 95.978826 
L 187.511304 95.979151 
L 187.741784 95.982307 
L 192.279111 95.981008 
L 195.665024 96.014798 
L 196.089243 96.018975 
L 196.110492 96.019161 
L 200.526802 96.048867 
L 200.86792 96.076391 
L 201.748667 96.073281 
L 204.298944 96.079918 
L 204.941034 96.077852 
L 206.173614 96.073884 
L 206.34334 96.074349 
L 206.397428 96.074488 
L 206.483408 96.074859 
L 206.483408 96.077691 
L 207.091783 96.07537 
L 208.157255 96.082564 
L 210.020335 96.077551 
L 211.218148 96.049795 
L 214.92571 96.077551 
L 216.038755 96.078201 
L 220.533622 96.084838 
L 220.706567 96.084931 
L 223.554441 96.094168 
L 224.325535 96.076809 
L 225.425251 96.08074 
L 225.649932 96.081543 
L 229.959961 96.090083 
L 229.981589 96.092218 
L 230.381567 96.091151 
L 233.108576 96.093797 
L 233.250273 96.093889 
L 233.317504 96.09259 
L 234.466646 96.084699 
L 236.100344 96.096071 
L 236.250071 96.101641 
L 242.675476 96.104565 
L 242.683503 96.104603 
L 247.3973 96.126891 
L 247.470819 96.125869 
L 247.822201 96.12703 
L 249.902315 96.152651 
L 250.164574 96.15261 
L 250.200972 96.152604 
L 254.309687 96.15214 
L 254.999535 96.15901 
L 255.426822 96.15098 
L 256.586683 96.150423 
L 257.728438 96.143321 
L 259.071812 96.144667 
L 261.596029 96.135663 
L 261.802533 96.134642 
L 262.027332 96.133853 
L 270.801169 96.117748 
L 270.801737 96.117747 
L 271.51416 96.111527 
L 271.516319 96.106236 
L 272.074167 96.116029 
L 274.786139 96.112502 
L 276.552633 96.10424 
L 277.057492 96.100248 
L 278.216065 96.119186 
L 279.807379 96.11784 
L 280.490599 96.116169 
L 280.51325 96.117932 
L 281.218059 96.116029 
L 283.279727 96.117375 
L 283.677988 96.119036 
L 283.6805 96.119046 
L 286.610453 96.111713 
L 287.084064 96.110877 
L 289.797207 96.107178 
L 295.59496 96.099274 
L 296.546575 96.102755 
L 296.634146 96.103776 
L 297.240514 96.103497 
L 297.377779 96.104518 
L 299.683259 96.104426 
L 300.050739 96.107721 
L 302.115777 96.103544 
L 302.426025 96.101316 
L 303.665692 96.101177 
L 304.019764 96.098415 
L 304.147749 96.097417 
L 304.330391 96.095978 
L 304.84487 96.098299 
L 304.89892 96.097231 
L 305.875874 96.093611 
L 306.208166 96.094354 
L 307.90224 96.095978 
L 308.947334 96.110924 
L 309.066229 96.096071 
L 310.66546 96.104983 
L 310.989987 96.093332 
L 311.16725 96.091151 
L 312.156136 96.091847 
L 312.347451 96.095003 
L 319.159703 96.117791 
L 320.117593 96.120996 
L 323.332417 96.099181 
L 324.13313 96.094168 
L 328.496262 96.091801 
L 328.598946 96.091847 
L 330.825983 96.101177 
L 331.490454 96.103126 
L 332.068453 96.094632 
L 332.070535 96.094636 
L 333.2332 96.096953 
L 333.295052 96.102058 
L 333.396372 96.102569 
L 333.493564 96.103404 
L 333.642647 96.098206 
L 333.718287 96.105679 
L 339.036177 96.110924 
L 340.420194 96.100081 
L 341.453393 96.091986 
L 341.789359 96.093054 
L 342.468943 96.08883 
L 343.719973 96.090315 
L 343.791711 96.090408 
L 343.841444 96.090501 
L 344.108285 96.092311 
L 346.339943 96.09867 
L 347.143611 96.090037 
L 347.82702 96.094911 
L 348.160866 96.091847 
L 348.669734 96.092783 
L 348.842533 96.0931 
L 349.746044 96.09259 
L 349.866 96.091476 
L 350.03671 96.087206 
L 350.556416 96.094446 
L 350.943024 96.088227 
L 351.413077 96.088929 
L 351.782031 96.08948 
L 353.078248 96.089573 
L 353.295243 96.087716 
L 353.614014 96.087484 
L 353.757718 96.089526 
L 355.217562 96.090037 
L 356.702216 96.089016 
L 357.156206 96.09138 
L 357.566676 96.093518 
L 361.501877 96.09324 
L 361.506083 96.09323 
L 364.398422 96.086788 
L 364.507621 96.087438 
L 364.51781 96.087484 
L 364.725867 96.087809 
L 369.545981 96.078201 
L 370.227989 96.08029 
L 370.922347 96.079514 
L 371.058587 96.079361 
L 371.065595 96.079408 
L 372.317306 96.079971 
L 374.159289 96.0808 
L 375.068708 96.077505 
L 375.509669 96.081357 
L 375.794994 96.080429 
L 376.510523 96.079594 
L 376.654947 96.080568 
L 377.121853 96.079872 
L 382.503983 96.110274 
L 382.632612 96.110181 
L 382.968768 96.112177 
L 383.334126 96.113152 
L 385.38034 96.11538 
L 386.817117 96.118954 
L 386.898211 96.119975 
L 387.822895 96.113987 
L 388.238517 96.113059 
L 388.316618 96.113477 
L 391.13885 96.11965 
L 391.413835 96.108835 
L 391.410615 96.234017 
L 391.411297 96.303825 
L 391.411486 98.371432 
L 391.408343 98.538248 
L 391.406184 98.955055 
L 391.401298 99.323452 
L 391.404631 99.481774 
L 391.404611 99.486586 
L 391.40179 100.167046 
L 391.403267 100.837512 
L 391.387548 101.624852 
L 391.398078 103.144668 
L 391.400843 106.893151 
L 391.407547 109.916491 
L 391.411524 111.401449 
L 391.411736 111.47148 
L 391.419478 114.039033 
L 391.417585 114.306059 
L 391.418039 114.664895 
L 391.419516 115.657621 
L 391.41882 116.076479 
L 391.416373 117.548989 
L 391.417471 117.590438 
L 391.412585 117.674449 
L 391.416903 118.439417 
L 391.41713 118.569379 
L 391.415539 119.292758 
L 391.514322 119.962157 
L 391.570417 120.36801 
L 391.654541 121.051241 
L 391.889415 122.888304 
L 391.994901 123.661858 
L 392.019105 123.808669 
L 392.104744 124.483219 
L 392.344352 126.425459 
L 392.423095 127.039164 
L 392.616951 128.550017 
L 392.672595 128.959042 
L 392.931971 130.86562 
L 392.931365 130.890313 
L 393.00318 131.330235 
L 393.038481 131.626735 
L 393.045715 131.670411 
L 393.064085 131.797821 
L 393.162148 132.551973 
L 393.182558 132.680739 
L 393.183094 132.684117 
L 393.359789 133.943219 
L 393.395128 134.190844 
L 393.502217 134.958805 
L 393.503152 134.965512 
L 393.565194 135.412907 
L 393.905353 137.72785 
L 394.068727 138.839687 
L 394.074636 138.886566 
L 394.528816 142.110745 
L 394.561844 142.348808 
L 394.607523 142.62145 
L 394.667179 143.036958 
L 394.809823 144.048714 
L 394.815239 144.06677 
L 394.948641 144.992194 
L 394.959853 145.070032 
L 395.014168 145.437779 
L 395.024622 145.495102 
L 395.023713 145.499418 
L 395.023713 145.5249 
L 395.216391 147.028007 
L 395.592886 149.625627 
L 395.668223 150.19528 
L 395.713826 150.532207 
L 395.767876 150.957323 
L 395.83791 151.457678 
L 395.852985 151.578821 
L 395.862 151.633498 
L 395.895294 151.899549 
L 395.918095 152.059682 
L 396.088389 153.227346 
L 396.133349 153.524913 
L 396.149641 153.651448 
L 396.32849 155.040459 
L 396.352163 155.184021 
L 396.917965 159.249566 
L 397.197306 161.315919 
L 397.228175 161.553936 
L 397.241811 161.630242 
L 397.271317 161.843984 
L 397.525147 163.806392 
L 397.787273 165.832944 
L 397.79017 165.852615 
L 398.25598 169.016303 
L 398.487273 170.587196 
L 398.480994 170.606857 
L 398.45067 170.701807 
L 398.385006 170.907414 
L 398.391542 170.950296 
L 398.431594 171.213057 
L 398.403944 171.422621 
L 398.47591 171.733602 
L 398.456971 171.835716 
L 398.464547 172.044583 
L 398.37743 174.662302 
L 398.33747 175.358482 
L 398.333304 175.54456 
L 398.33194 176.082604 
L 398.317168 176.158075 
L 398.313872 176.271142 
L 398.313153 176.295789 
L 398.283496 177.280067 
L 398.246263 177.646375 
L 398.238839 177.782418 
L 398.246263 178.169288 
L 398.220924 179.09499 
L 398.212477 179.206619 
L 398.189221 179.730599 
L 398.190281 179.902799 
L 398.197705 180.200087 
L 398.173123 180.913766 
L 398.17157 181.042336 
L 398.165228 181.302028 
L 398.125967 182.909661 
L 398.107862 183.331203 
L 398.030219 185.986579 
L 397.915829 189.898706 
L 397.855723 191.954334 
L 397.804053 193.721455 
L 397.810378 193.80115 
L 397.811439 193.968058 
L 397.789773 194.678348 
L 397.773297 195.324354 
L 397.770456 195.446936 
L 397.766933 195.599224 
L 397.730738 196.890624 
L 397.602429 201.46844 
L 397.556276 203.11511 
L 397.490547 205.460204 
L 397.491683 205.832268 
L 397.395022 209.873909 
L 397.394795 209.99482 
L 397.353471 211.749635 
L 397.257946 215.828223 
L 397.252454 216.065868 
L 397.238818 216.611338 
L 397.19151 218.614846 
L 397.175526 218.961799 
L 397.007152 226.490745 
L 396.83278 234.287878 
L 396.83278 234.289688 
L 396.832782 234.29573 
L 396.832818 234.391013 
L 396.754716 237.282209 
L 396.751648 237.445915 
L 396.741038 238.044929 
L 396.738429 238.192223 
L 396.683319 240.804187 
L 396.677561 240.817554 
L 396.6412 242.203834 
L 396.617716 243.186163 
L 396.588134 244.45232 
L 396.587907 244.463367 
L 396.581014 244.785024 
L 396.569688 245.096515 
L 396.537872 246.61531 
L 396.534274 246.738217 
L 396.531054 246.870872 
L 396.530751 246.880897 
L 396.492723 248.451167 
L 396.494011 248.701855 
L 396.464618 249.618089 
L 396.468255 249.789035 
L 396.430075 250.92718 
L 396.428219 251.394951 
L 396.416932 252.11174 
L 396.354852 252.526134 
L 396.203762 252.703625 
L 395.707122 252.909383 
L 395.096928 253.100381 
L 394.886107 252.978031 
L 394.786226 252.855634 
L 394.752932 252.597288 
L 394.808421 252.488491 
L 394.775128 252.270943 
L 394.619795 252.121348 
L 394.408936 252.107748 
L 394.22031 252.202945 
L 394.020586 252.202945 
L 393.887411 252.094148 
L 393.854118 251.9174 
L 393.938393 251.800619 
L 393.942901 251.536657 
L 393.909607 251.387061 
L 393.720981 251.237511 
L 393.432474 251.278264 
L 393.277104 251.332662 
L 393.199457 251.319063 
L 393.143967 251.223912 
L 393.155065 251.101515 
L 393.254908 250.92472 
L 393.232712 250.78877 
L 393.121771 250.625575 
L 392.966401 250.462426 
L 392.866179 250.266461 
L 392.600247 250.204033 
L 392.455975 250.272031 
L 392.333898 250.435226 
L 392.211859 250.557577 
L 391.978842 250.557577 
L 391.812374 250.516778 
L 391.657041 250.394427 
L 391.457279 250.176833 
L 391.290849 250.108882 
L 391.046734 250.258431 
L 390.935755 250.462426 
L 390.758227 250.625575 
L 390.46972 250.693573 
L 390.347643 250.652774 
L 390.25886 250.462426 
L 390.281056 250.136081 
L 390.25886 249.945686 
L 390.214507 249.782537 
L 390.114626 249.646541 
L 389.853201 249.592746 
L 388.88261 249.954087 
L 388.008946 249.836982 
L 387.924481 249.777849 
L 387.900353 249.615211 
L 387.900353 249.408246 
L 387.948608 249.245607 
L 387.888308 248.964703 
L 387.743544 248.89081 
L 387.586696 248.846438 
L 387.478104 248.89081 
L 387.393677 248.964703 
L 387.333339 249.112582 
L 387.236829 249.245607 
L 387.079982 249.216041 
L 386.899045 249.009076 
L 386.881735 248.94897 
L 386.826662 248.757738 
L 386.886962 248.476881 
L 386.814579 248.18117 
L 386.693942 247.974205 
L 386.29582 247.855939 
L 386.06659 247.855939 
L 385.921825 247.752434 
L 385.74085 247.486336 
L 385.728806 247.249805 
L 385.801188 246.998467 
L 385.789105 246.865441 
L 385.728806 246.747129 
L 385.620213 246.702803 
L 385.463404 246.673236 
L 384.908434 247.087166 
L 384.57065 247.161105 
L 384.172527 246.939334 
L 384.063935 246.821068 
L 383.858832 246.806262 
L 383.68994 246.865441 
L 383.581348 246.939334 
L 383.533093 247.190672 
L 383.46071 247.308937 
L 383.352156 247.36807 
L 382.941951 247.397637 
L 382.65174 247.390489 
L 381.894054 247.098723 
L 381.690732 246.945879 
L 381.599373 246.804034 
L 381.659332 246.652582 
L 381.63903 246.407139 
L 381.518393 246.214934 
L 381.433928 246.185367 
L 381.252953 246.229694 
L 381.171821 246.106879 
L 380.645031 245.686869 
L 380.494699 245.598541 
L 380.298422 245.589676 
L 379.988325 245.221975 
L 379.969765 245.070198 
L 379.988325 244.85771 
L 380.087411 244.516234 
L 380.093622 244.372022 
L 380.056465 244.182324 
L 379.994537 244.114001 
L 379.901663 244.038112 
L 379.802578 243.992579 
L 379.653949 244.000191 
L 379.505321 244.07608 
L 379.375253 244.106435 
L 379.232836 244.098823 
L 379.053225 244.022934 
L 378.886037 243.749781 
L 378.855092 243.393081 
L 378.546662 242.961607 
L 378.291941 242.867987 
L 378.235618 242.338809 
L 378.121723 241.758899 
L 378.025516 241.702876 
L 377.950672 241.72107 
L 377.84473 241.808516 
L 377.638605 242.159554 
L 377.575995 242.20272 
L 377.379642 242.219151 
L 377.221166 242.151617 
L 377.113104 241.92033 
L 376.935121 241.685145 
L 376.626312 241.518793 
L 376.321556 241.736805 
L 376.09797 241.810095 
L 375.534289 241.789811 
L 375.179725 241.68236 
L 375.086662 241.611577 
L 374.715129 240.556887 
L 374.630626 240.163333 
L 374.462946 239.964073 
L 374.244473 239.870686 
L 373.954906 240.020143 
L 373.761848 240.25672 
L 373.51796 240.25672 
L 373.385846 240.132189 
L 373.335054 239.976559 
L 373.345204 239.721276 
L 373.213128 239.484698 
L 373.126732 239.378872 
L 373.030222 239.310363 
L 372.740616 239.341508 
L 372.400218 239.210756 
L 372.308784 239.080005 
L 372.303671 238.936814 
L 372.353516 238.491694 
L 372.220342 238.335368 
L 371.979598 238.230934 
L 371.282439 238.258272 
L 371.039027 238.225952 
L 370.841289 238.199696 
L 370.63005 238.100832 
L 370.552024 238.013664 
L 369.971412 237.607672 
L 368.635008 237.087173 
L 368.368546 237.06921 
L 368.213327 237.124444 
L 367.36432 238.383036 
L 367.337163 238.565818 
L 367.360002 238.680603 
L 367.424128 238.823654 
L 367.446475 239.151902 
L 367.440869 239.336541 
L 367.357162 239.692127 
L 367.256713 239.808397 
L 367.055815 239.945136 
L 366.949798 239.979344 
L 366.620573 239.849428 
L 366.514518 239.863074 
L 366.419675 239.904105 
L 366.347103 239.986167 
L 366.324794 240.095614 
L 366.280137 240.519569 
L 366.274569 240.738416 
L 366.207603 240.977733 
L 366.040188 241.107695 
L 365.77793 241.087179 
L 365.222311 240.859006 
L 364.611971 240.608361 
L 364.313503 240.581348 
L 364.272937 240.604462 
L 364.2604 241.020202 
L 364.098742 241.389574 
L 363.598163 241.439888 
L 362.730976 241.418815 
L 361.497634 241.508628 
L 359.998664 241.390641 
L 359.393545 241.229906 
L 359.360782 241.180752 
L 359.463504 240.702027 
L 359.41006 240.599125 
L 359.333738 240.561714 
L 359.142953 240.589749 
L 358.816721 240.905557 
L 358.307165 241.11345 
L 357.917944 241.117164 
L 357.774733 241.040671 
L 357.759203 240.938605 
L 357.769089 240.580419 
L 357.624059 240.402696 
L 357.425623 240.355956 
L 357.242451 240.440107 
L 357.046098 240.618433 
L 356.744562 240.819179 
L 356.498098 240.877569 
L 356.293299 240.859467 
L 356.17482 240.74575 
L 356.032404 240.482205 
L 356.023086 240.203807 
L 356.131262 239.883961 
L 356.143761 239.575811 
L 356.067894 239.268729 
L 355.849459 238.690675 
L 355.754805 238.54405 
L 355.694468 238.480322 
L 355.60292 238.45057 
L 354.749898 238.344418 
L 354.229738 238.355233 
L 354.079026 238.682552 
L 352.816936 239.637868 
L 352.426995 239.667434 
L 351.951832 239.522805 
L 351.742753 239.567363 
L 351.567005 239.673561 
L 351.303875 240.073056 
L 351.004422 240.398194 
L 350.54494 240.630919 
L 350.017847 240.661831 
L 349.917019 240.635282 
L 349.352316 240.23704 
L 349.00919 240.132003 
L 348.636976 240.141797 
L 348.294874 240.287122 
L 348.219991 240.380602 
L 348.084696 240.715209 
L 348.060341 241.134569 
L 348.087584 241.200349 
L 348.126777 241.29498 
L 348.25355 241.43209 
L 348.402974 241.965539 
L 348.372786 242.080277 
L 348.232415 242.261853 
L 348.020078 242.360531 
L 347.700209 242.55255 
L 347.654189 242.551761 
L 347.541582 242.490911 
L 347.100848 241.97148 
L 347.026004 241.908819 
L 346.610307 241.74516 
L 346.447172 241.74089 
L 345.86209 241.872662 
L 345.821562 241.957695 
L 345.821562 242.012928 
L 345.859022 242.230708 
L 345.902656 242.33802 
L 345.923451 242.522891 
L 345.908982 242.600451 
L 345.85497 242.703539 
L 345.779102 242.787457 
L 345.572371 242.912871 
L 345.432114 242.954319 
L 345.221216 242.932087 
L 345.126676 242.892819 
L 344.984222 242.778499 
L 344.913977 242.693663 
L 344.753515 242.499869 
L 344.389709 242.15157 
L 343.563126 241.772313 
L 343.328328 241.622438 
L 343.108075 241.422621 
L 342.652153 241.075993 
L 342.249978 240.819828 
L 341.994272 240.698685 
L 341.521344 240.543519 
L 341.485967 240.556284 
L 341.445439 240.65719 
L 341.460021 240.762367 
L 341.504716 240.855893 
L 341.517177 240.932339 
L 341.516533 241.100593 
L 341.467066 241.308719 
L 341.29147 241.726269 
L 341.177196 241.810187 
L 340.899749 241.939871 
L 340.121496 241.969855 
L 339.787802 241.833581 
L 339.663264 241.597049 
L 339.488917 241.48259 
L 339.389301 241.48259 
L 339.308359 241.513131 
L 339.190032 241.597049 
L 339.152686 241.757274 
L 339.165147 242.009076 
L 339.153632 242.164288 
L 339.129316 242.216876 
L 338.866262 242.474202 
L 338.324511 242.703446 
L 338.25603 242.64241 
L 338.231107 242.581374 
L 338.214366 242.445192 
L 338.237357 242.30669 
L 338.224896 242.222725 
L 338.112818 242.169347 
L 337.950895 242.154077 
L 337.882414 242.230383 
L 337.658184 242.67193 
L 337.217186 242.893655 
L 336.970078 242.810386 
L 336.645626 242.659027 
L 335.861502 242.420778 
L 335.275588 242.359742 
L 335.223393 242.418318 
L 335.22809 242.464176 
L 335.249453 242.533381 
L 335.311267 242.617903 
L 335.368651 242.825564 
L 335.375847 243.067387 
L 335.303427 243.172053 
L 335.124838 243.159985 
L 334.900684 243.082657 
L 334.591004 242.827931 
L 334.409877 242.731388 
L 333.805592 242.768752 
L 333.458452 242.831876 
L 333.379782 242.922061 
L 333.323611 243.103544 
L 333.431105 243.69529 
L 333.356375 243.797867 
L 332.846857 243.797218 
L 332.404722 243.907407 
L 332.366088 243.939573 
L 332.288289 244.096502 
L 332.349801 244.348815 
L 332.432751 244.495765 
L 332.513239 244.560328 
L 332.613688 244.615005 
L 332.74762 244.683421 
L 332.926171 244.765483 
L 332.902157 245.107609 
L 332.648573 245.972693 
L 332.452333 246.271235 
L 332.322568 246.418882 
L 332.000805 246.611179 
L 331.628616 246.756693 
L 331.495302 246.808815 
L 330.714247 247.028219 
L 330.392219 246.998931 
L 329.664645 246.48999 
L 328.844084 246.052806 
L 328.564819 245.991074 
L 327.988601 246.144986 
L 327.898265 246.221478 
L 327.639226 246.73274 
L 327.589873 246.866323 
L 327.472796 247.324719 
L 327.423973 247.60307 
L 327.454009 247.984556 
L 327.437381 248.300132 
L 327.32644 248.740982 
L 327.06278 249.274385 
L 326.993277 249.37854 
L 326.904531 249.455264 
L 326.087834 249.832387 
L 325.874171 249.86005 
L 325.584793 249.824032 
L 325.347988 249.607599 
L 325.312498 249.496342 
L 325.308028 249.179095 
L 325.168187 248.70696 
L 325.068003 248.447639 
L 324.696282 248.029564 
L 324.517806 247.828833 
L 323.783339 247.079322 
L 323.595395 246.851749 
L 323.408322 246.54903 
L 323.304615 246.159839 
L 323.250982 246.023425 
L 323.160116 245.83795 
L 323.05853 245.69838 
L 322.771766 245.577097 
L 322.535377 245.512302 
L 322.096386 245.466769 
L 322.00302 245.487331 
L 321.785456 245.698659 
L 321.675614 245.73593 
L 320.656503 245.839064 
L 320.118351 245.858883 
L 320.041915 245.818177 
L 319.677238 245.446021 
L 319.525807 245.152817 
L 319.524027 244.635799 
L 319.500354 244.439278 
L 319.374338 244.059649 
L 319.22465 243.745558 
L 319.118898 243.616663 
L 319.021214 243.559294 
L 318.883683 243.518541 
L 318.188343 243.698446 
L 317.617351 243.727131 
L 317.365888 243.699885 
L 316.83069 243.28628 
L 316.60877 243.151352 
L 316.293182 242.99303 
L 315.463795 242.660883 
L 315.231422 242.474991 
L 315.203696 242.379701 
L 315.214112 242.22537 
L 315.24358 242.153845 
L 315.3788 241.961918 
L 315.887446 241.382936 
L 316.27697 241.206234 
L 316.441279 241.100501 
L 316.715355 240.842247 
L 316.814517 240.675802 
L 316.895345 240.457791 
L 316.891861 240.349504 
L 316.797851 240.186912 
L 316.775696 240.182407 
L 316.607937 240.148295 
L 316.054407 240.189187 
L 315.269147 240.201162 
L 315.200098 240.157299 
L 314.672361 239.668084 
L 314.072167 239.171257 
L 313.901191 239.143362 
L 313.796008 239.158539 
L 313.666053 239.252576 
L 313.558824 239.374926 
L 313.488487 239.521784 
L 313.274824 240.121003 
L 313.179489 240.67738 
L 313.231039 241.028836 
L 313.227024 241.157359 
L 313.13165 241.666579 
L 313.000445 242.051453 
L 312.90511 242.267469 
L 312.569295 242.773858 
L 312.384343 242.960818 
L 312.24507 243.051838 
L 312.082655 243.118072 
L 310.809391 243.393499 
L 310.506264 243.441817 
L 310.220408 243.453514 
L 310.044395 243.404685 
L 309.925349 243.310973 
L 309.876185 243.211459 
L 309.645516 242.638001 
L 309.629001 242.350877 
L 309.538628 241.897076 
L 309.501471 241.796866 
L 309.391022 241.637384 
L 308.982295 241.38897 
L 308.2815 241.21445 
L 307.547487 241.112847 
L 307.348407 241.27465 
L 307.258828 241.411714 
L 307.219399 241.632232 
L 307.19012 242.131241 
L 307.027099 242.313141 
L 306.849192 242.395018 
L 306.640984 242.382068 
L 306.249035 242.119405 
L 305.914092 241.777975 
L 305.621342 241.429212 
L 305.139626 240.111256 
L 305.084099 239.807701 
L 305.11156 239.326655 
L 304.998952 238.379323 
L 304.885625 237.994541 
L 304.778851 237.753137 
L 304.698022 237.622896 
L 304.548447 237.440252 
L 304.360427 237.262111 
L 304.272629 237.209755 
L 304.140212 237.179446 
L 304.058625 237.19894 
L 303.756217 237.360047 
L 303.660061 237.421743 
L 303.288099 237.660399 
L 302.996373 237.875533 
L 302.230165 238.283383 
L 302.182251 238.287931 
L 302.063015 238.206426 
L 301.954574 238.0145 
L 301.908629 237.663045 
L 301.922076 237.539859 
L 301.972414 237.385947 
L 301.969838 237.337304 
L 301.897039 237.328021 
L 301.648757 237.407251 
L 301.537286 237.498689 
L 301.406498 237.66091 
L 301.365591 237.749284 
L 301.334721 238.008002 
L 301.378658 238.457903 
L 301.41752 238.599748 
L 301.616448 239.087617 
L 301.760607 239.718955 
L 301.797272 240.312279 
L 301.736821 240.570394 
L 300.513782 242.258975 
L 300.284931 242.53417 
L 299.718333 242.810293 
L 299.627921 242.83364 
L 299.260252 242.424862 
L 299.075186 241.999097 
L 298.61184 241.779832 
L 297.885517 242.105527 
L 297.763099 242.505021 
L 298.029335 242.708552 
L 299.000077 242.984072 
L 299.338695 243.416196 
L 299.366534 243.776099 
L 298.615401 243.914416 
L 298.213415 243.99425 
L 297.857033 244.180328 
L 297.701246 244.396158 
L 297.600532 244.654458 
L 297.58292 244.858499 
L 297.632879 245.094473 
L 297.862601 245.788518 
L 297.962369 246.187085 
L 297.985284 246.443249 
L 297.982254 246.761007 
L 297.925363 247.188676 
L 297.740638 247.597964 
L 297.626516 247.789334 
L 297.510272 247.937073 
L 297.231083 248.178478 
L 297.064009 248.285882 
L 296.90004 248.355041 
L 296.603201 248.430698 
L 296.413817 248.441512 
L 295.980962 248.361539 
L 295.531593 248.20823 
L 295.316756 248.093353 
L 295.010599 247.866847 
L 294.668079 247.485176 
L 294.302531 246.634619 
L 294.077203 245.992605 
L 293.978534 245.461106 
L 293.812293 245.26658 
L 293.492235 244.709646 
L 293.409095 244.517255 
L 293.400725 244.130339 
L 293.42561 243.710468 
L 293.481705 243.573311 
L 293.626167 243.318167 
L 293.710367 243.203383 
L 293.772712 243.156596 
L 293.853806 243.133203 
L 294.135457 243.152373 
L 294.320447 243.130047 
L 294.68948 242.946243 
L 294.871402 242.711383 
L 294.878788 242.390376 
L 294.387148 240.304528 
L 294.340332 240.167418 
L 294.165607 239.91232 
L 293.382203 239.282003 
L 293.201152 239.199199 
L 292.610238 239.265201 
L 292.020497 239.653463 
L 291.912397 239.801296 
L 291.865657 239.928844 
L 291.750929 241.100501 
L 291.56056 241.554347 
L 291.507495 241.629772 
L 291.470035 241.648895 
L 290.905407 241.682592 
L 290.760869 241.651726 
L 290.618453 241.589994 
L 290.358051 241.40568 
L 290.045795 241.03965 
L 289.85573 240.86499 
L 289.733539 240.86499 
L 289.543436 240.956474 
L 289.281216 241.47702 
L 289.224401 241.530444 
L 289.136148 241.563723 
L 288.98002 241.572078 
L 288.912107 241.522135 
L 288.823892 241.214357 
L 288.783137 241.156106 
L 288.722042 241.131181 
L 288.579474 241.131181 
L 288.443724 241.206048 
L 288.335093 241.447268 
L 288.277975 241.790461 
L 287.996248 242.549812 
L 287.610853 243.193032 
L 287.345943 243.483359 
L 287.223336 243.589742 
L 287.064368 243.683361 
L 285.646036 243.711628 
L 285.035994 243.685961 
L 284.365576 243.482895 
L 284.029837 243.26182 
L 283.80216 242.98124 
L 283.658645 242.647469 
L 283.710574 242.285989 
L 283.783298 242.111653 
L 283.857119 242.027642 
L 284.089985 241.294098 
L 284.109492 240.344074 
L 283.839999 239.868922 
L 283.752617 239.761564 
L 282.856407 239.213222 
L 282.762937 239.156033 
L 282.446553 239.050949 
L 282.215429 239.033079 
L 281.525656 239.311802 
L 281.294381 239.399387 
L 281.012351 239.639539 
L 280.613774 239.884982 
L 280.299587 240.040101 
L 280.168496 240.070967 
L 280.044715 240.079461 
L 279.934662 240.05915 
L 279.11772 239.908375 
L 278.939813 239.829748 
L 278.871143 239.762771 
L 278.60468 239.305722 
L 278.573394 239.115466 
L 278.578545 239.005926 
L 278.609756 238.918759 
L 278.650321 238.879399 
L 278.785541 238.635905 
L 278.887278 237.536703 
L 278.858113 237.459097 
L 278.119782 236.784268 
L 277.18472 236.173259 
L 276.33507 235.791217 
L 276.135118 235.729485 
L 275.745632 235.703864 
L 275.130098 235.924939 
L 274.937419 236.059914 
L 274.755194 236.355485 
L 274.518919 237.005064 
L 274.30965 237.39212 
L 274.04118 237.732389 
L 273.718584 238.039703 
L 273.454281 238.241795 
L 273.399132 238.255673 
L 273.291903 238.247179 
L 273.219028 238.207912 
L 272.670612 238.225178 
L 272.299003 238.348317 
L 272.303056 238.513091 
L 272.410133 238.774686 
L 272.42661 239.071279 
L 272.395361 239.14675 
L 272.261051 239.283814 
L 272.197569 239.316722 
L 271.923872 239.277269 
L 271.505524 239.454668 
L 271.633434 239.720487 
L 271.658319 239.979947 
L 271.622904 240.152147 
L 271.46992 240.379628 
L 270.829008 240.634632 
L 270.757232 240.864294 
L 270.683372 241.004607 
L 269.588356 241.909516 
L 268.397816 242.29374 
L 268.1826 242.311935 
L 267.957612 242.254612 
L 267.22466 241.894941 
L 266.894034 241.637523 
L 265.709402 240.910059 
L 265.631414 240.878172 
L 265.482634 240.880307 
L 265.341203 240.924959 
L 265.161251 240.946263 
L 264.887667 240.91122 
L 264.533936 240.760324 
L 264.291488 240.564777 
L 264.153999 240.414375 
L 264.152063 240.412257 
L 263.928212 240.074773 
L 263.898024 239.987652 
L 263.899009 239.912181 
L 263.936431 239.759058 
L 264.071538 239.415586 
L 264.11627 239.362394 
L 264.186001 239.362348 
L 264.33069 239.57284 
L 264.454547 239.666367 
L 264.659536 239.601432 
L 264.805209 239.464229 
L 264.936263 239.273927 
L 265.067316 238.813536 
L 265.105799 238.576401 
L 265.078679 238.253213 
L 265.038076 238.191527 
L 264.998532 238.172404 
L 264.698776 238.262867 
L 264.603024 238.265002 
L 264.405231 238.221465 
L 264.355272 238.185354 
L 264.295881 238.074793 
L 264.291677 237.95676 
L 264.348909 237.878086 
L 264.611205 237.745107 
L 264.815209 237.534568 
L 264.945278 237.229435 
L 265.360671 235.841902 
L 265.369004 235.774925 
L 265.340862 235.733476 
L 265.299235 235.718577 
L 265.105458 235.762161 
L 264.985692 235.76114 
L 264.891947 235.728185 
L 264.713813 235.570884 
L 264.512612 235.278701 
L 264.386482 235.051082 
L 264.291677 234.991578 
L 264.137519 235.053263 
L 263.964687 235.212838 
L 263.791136 235.311517 
L 263.098788 235.490633 
L 262.575408 235.590889 
L 262.265311 235.611637 
L 261.756059 235.607042 
L 261.222754 235.496342 
L 260.175766 235.191348 
L 260.084067 235.152035 
L 259.972596 235.0489 
L 259.388764 233.947656 
L 259.318124 233.850184 
L 259.318124 233.73164 
L 259.373424 233.621543 
L 259.449443 233.570765 
L 259.60148 233.528388 
L 259.629092 233.494551 
L 259.656742 233.401396 
L 259.670567 233.232028 
L 259.560005 233.045717 
L 258.973257 232.412569 
L 258.842847 232.190473 
L 258.760352 231.95552 
L 258.728876 231.531332 
L 258.790312 231.382432 
L 259.362553 230.745339 
L 259.551217 230.462439 
L 259.710678 230.142407 
L 259.812832 229.876587 
L 259.879533 229.641588 
L 259.913811 229.352375 
L 259.896047 229.260938 
L 259.452397 228.488173 
L 259.258165 228.22356 
L 259.167375 228.150224 
L 258.976325 228.121633 
L 258.64032 228.130312 
L 258.358555 228.316344 
L 258.133037 228.573484 
L 258.049375 228.72139 
L 257.906383 228.974185 
L 257.467013 229.606591 
L 257.351186 229.711814 
L 256.907726 230.004043 
L 256.06175 229.930615 
L 255.735252 229.882807 
L 255.597533 229.841358 
L 255.114529 229.648968 
L 254.844203 229.497098 
L 254.780494 229.397212 
L 254.184656 229.125313 
L 253.921753 229.236059 
L 253.599309 229.293428 
L 252.695798 229.234527 
L 252.181432 229.129165 
L 251.942506 229.056804 
L 251.240234 228.507156 
L 251.095166 228.354033 
L 250.986649 228.293461 
L 249.525441 228.011072 
L 249.393971 228.053681 
L 248.873394 228.366379 
L 248.754347 228.511984 
L 248.221801 229.341004 
L 248.126124 229.629706 
L 248.14404 229.650964 
L 248.232444 229.668694 
L 248.22377 230.44986 
L 248.171197 230.663045 
L 247.616341 231.354583 
L 247.488053 231.449502 
L 247.405406 231.474613 
L 247.31988 231.449131 
L 247.287197 231.425426 
L 247.207121 231.367348 
L 247.084022 231.333743 
L 246.945886 231.329148 
L 246.644198 231.389998 
L 246.541325 231.444165 
L 246.50663 231.490208 
L 246.436141 231.622677 
L 246.428604 231.737369 
L 246.406067 231.802211 
L 246.305504 231.893555 
L 245.319498 232.320249 
L 245.055346 232.413033 
L 244.89293 232.397809 
L 244.216679 231.944194 
L 243.306957 230.895677 
L 243.215636 230.669079 
L 243.001784 230.320966 
L 242.446511 229.764402 
L 242.15577 229.350379 
L 242.095243 229.120718 
L 241.630874 228.568888 
L 241.453422 228.389216 
L 240.595401 227.850383 
L 240.436735 227.865328 
L 240.252086 227.991949 
L 240.202657 228.011549 
L 240.139365 228.036647 
L 239.953618 228.043145 
L 239.766772 228.00708 
L 239.234074 227.801786 
L 238.950264 227.666579 
L 238.766562 227.670756 
L 238.671491 227.732396 
L 238.47938 227.957741 
L 237.175778 229.122899 
L 236.931624 229.105911 
L 236.189771 228.993308 
L 236.135494 228.969961 
L 235.501059 229.002081 
L 235.456213 229.027609 
L 235.405117 229.112734 
L 235.389512 229.223295 
L 235.305085 229.390296 
L 235.210204 229.476814 
L 234.932757 229.536783 
L 234.639364 229.518449 
L 234.540278 229.412669 
L 234.546604 229.321231 
L 234.506 229.158499 
L 234.459071 229.093658 
L 234.316162 228.973396 
L 233.314512 228.631781 
L 232.754126 228.067141 
L 232.521412 227.949108 
L 231.833533 227.776908 
L 230.90669 227.801647 
L 230.840898 227.826108 
L 230.819005 227.894199 
L 230.799347 228.214231 
L 230.734729 228.345075 
L 230.642878 228.3823 
L 230.432057 228.357978 
L 230.236802 228.174128 
L 230.176161 228.078467 
L 230.173018 228.014692 
L 230.27627 227.856185 
L 230.314828 227.737084 
L 230.302253 227.643557 
L 230.250021 227.571289 
L 228.870286 227.064668 
L 228.530002 226.863598 
L 228.440196 226.789148 
L 228.348345 226.671114 
L 228.184453 226.430823 
L 228.158355 226.359623 
L 227.700994 225.849196 
L 227.315561 225.478154 
L 227.241264 225.436437 
L 227.235376 225.433131 
L 227.009555 225.377201 
L 226.921832 225.415493 
L 226.864411 225.495234 
L 226.87282 225.723875 
L 226.858237 225.803616 
L 226.713094 225.958875 
L 226.610789 225.959989 
L 226.416519 225.854766 
L 226.323532 225.728285 
L 226.244066 225.545409 
L 226.142595 225.204165 
L 225.917986 225.035214 
L 225.783221 225.016184 
L 225.4079 225.20138 
L 225.306694 225.348841 
L 225.326276 225.612665 
L 225.217418 225.711761 
L 224.941486 225.870732 
L 224.062822 225.699461 
L 224.017901 225.720719 
L 223.959381 225.803663 
L 223.885219 225.9812 
L 223.790186 226.103458 
L 223.588644 226.103411 
L 223.236694 225.993872 
L 223.209574 225.961985 
L 223.195976 225.884332 
L 223.151092 225.7993 
L 222.919249 225.630209 
L 222.558928 225.499458 
L 222.4242 225.485673 
L 221.944833 225.587879 
L 221.317329 225.862424 
L 220.921669 225.939195 
L 220.642783 225.880851 
L 220.52063 225.815916 
L 220.441354 225.677646 
L 220.453929 225.586208 
L 220.509343 225.454389 
L 220.606497 225.3811 
L 220.641003 225.308785 
L 220.605588 225.18546 
L 220.569037 225.149256 
L 220.489685 225.119458 
L 220.201405 225.131015 
L 219.983046 225.335056 
L 219.413721 225.608116 
L 218.258671 225.355989 
L 218.160457 225.245428 
L 218.138526 225.146518 
L 218.161517 224.990238 
L 218.238786 224.758441 
L 218.234619 224.64361 
L 218.197008 224.519218 
L 218.02982 224.160893 
L 217.969217 223.964186 
L 217.977815 223.192256 
L 218.067053 222.658715 
L 218.02785 222.268132 
L 218.003041 222.239169 
L 217.852974 222.253604 
L 217.721958 222.217679 
L 217.574996 222.144389 
L 217.492387 222.01257 
L 217.420194 221.739325 
L 217.350956 220.88343 
L 217.422012 220.730353 
L 217.493069 220.221412 
L 217.455495 219.693719 
L 217.363872 219.505041 
L 217.204789 219.451617 
L 217.112598 219.458255 
L 217.029042 219.52124 
L 216.870793 219.534886 
L 216.725308 219.497197 
L 216.626374 219.4117 
L 216.601073 219.33182 
L 216.564029 218.897468 
L 216.451119 218.467757 
L 216.234767 218.00588 
L 216.006598 217.851968 
L 215.914216 217.893927 
L 215.788693 218.018087 
L 215.638171 218.007458 
L 215.161492 217.591115 
L 215.023432 217.437945 
L 215.007751 217.359271 
L 215.060096 217.314666 
L 215.418031 217.290298 
L 215.543668 217.222393 
L 215.627414 217.14372 
L 215.538744 216.574856 
L 215.430947 216.498271 
L 214.455433 216.053522 
L 214.276427 216.023723 
L 214.107876 216.076869 
L 213.760319 216.272462 
L 213.453556 216.356427 
L 213.378181 216.352203 
L 213.3311 216.325607 
L 213.156261 216.066193 
L 212.987634 215.698353 
L 212.784502 215.459176 
L 212.508002 215.295563 
L 212.16446 215.016052 
L 211.925609 214.781145 
L 211.910875 214.652528 
L 211.923412 214.577011 
L 211.996666 214.432382 
L 212.002916 214.330315 
L 211.84675 214.144376 
L 211.437113 214.012743 
L 211.219133 214.005966 
L 211.005281 214.094573 
L 210.47709 214.783233 
L 210.399291 215.623161 
L 210.403382 215.869857 
L 210.419063 215.934699 
L 210.516368 216.028318 
L 210.608295 216.475899 
L 210.390087 217.764382 
L 210.301077 217.893973 
L 210.173925 217.968145 
L 210.01454 218.008804 
L 209.950907 218.000867 
L 209.512143 217.644028 
L 209.112051 217.971254 
L 208.742185 217.938346 
L 208.580793 217.670577 
L 208.291907 217.282547 
L 207.597968 216.901061 
L 207.440619 216.904462 
L 207.348815 216.906446 
L 206.982471 216.832181 
L 206.861001 216.751466 
L 206.72169 216.516559 
L 206.608552 216.378427 
L 206.503104 216.291306 
L 205.95749 216.085827 
L 205.83083 216.064522 
L 205.602585 216.17072 
L 205.370173 216.205717 
L 204.633244 216.147095 
L 204.377803 216.057746 
L 204.142286 215.933399 
L 203.858514 215.882389 
L 203.681592 215.888748 
L 203.46596 215.964312 
L 203.298544 216.38112 
L 203.267258 216.82443 
L 203.296613 217.145483 
L 203.262107 217.25182 
L 203.180521 217.393247 
L 202.849971 217.798451 
L 202.709713 217.912121 
L 201.794195 217.963689 
L 201.540118 217.8509 
L 200.829665 217.670902 
L 200.658007 217.827135 
L 200.462261 217.925953 
L 200.335639 217.958908 
L 200.211138 217.935468 
L 200.007172 217.771669 
L 199.745595 217.674894 
L 199.057035 217.617478 
L 198.623763 217.315641 
L 198.442674 217.15834 
L 198.361012 216.991432 
L 198.383965 216.838355 
L 198.351505 216.702266 
L 198.301243 216.606604 
L 198.155683 216.44508 
L 197.773544 216.215557 
L 197.373604 216.052036 
L 196.868291 215.749132 
L 196.376424 215.321509 
L 196.360743 215.258756 
L 196.46551 215.100388 
L 196.467631 215.046175 
L 196.438352 214.997253 
L 196.054131 214.684555 
L 195.77979 214.678103 
L 195.374585 214.235767 
L 194.593226 213.200247 
L 194.425584 212.793093 
L 194.44653 212.66016 
L 194.176128 212.207335 
L 193.88906 212.092597 
L 193.44385 211.780737 
L 193.12539 211.557663 
L 192.523643 210.814 
L 192.394711 210.606014 
L 192.360735 210.454933 
L 192.317215 210.373985 
L 191.834514 209.819232 
L 191.584035 209.579173 
L 191.498926 209.518323 
L 191.38772 209.505605 
L 190.750331 209.033517 
L 190.521934 208.834953 
L 190.468528 208.635415 
L 190.236609 208.535065 
L 189.615961 208.416289 
L 189.280866 208.466324 
L 189.199431 208.543884 
L 189.167766 208.653192 
L 189.168221 208.720958 
L 189.116822 208.787702 
L 188.862669 209.039597 
L 188.637417 209.209709 
L 188.515946 209.249672 
L 188.096613 209.30718 
L 187.654652 209.291172 
L 187.545583 209.287222 
L 187.545583 200.661022 
L 187.545583 200.656242 
L 187.545484 187.477882 
L 187.545431 180.408073 
L 187.545285 169.284139 
L 187.545166 160.151922 
L 187.545007 147.998918 
L 187.544901 139.888854 
L 187.544636 119.279391 
L 187.417526 119.279509 
L 184.150314 119.282547 
L 180.695958 119.282593 
L 175.793878 119.282176 
L 175.779675 119.28004 
L 175.771077 119.282686 
L 175.282278 119.280458 
L 174.892489 119.291551 
L 174.891617 119.29248 
L 174.233396 119.29002 
L 174.233017 119.28937 
L 173.220194 119.291319 
L 173.218603 119.287977 
L 171.8961 119.290205 
L 171.892918 119.291366 
L 171.602517 119.289324 
L 171.601495 119.291227 
L 171.123074 119.290809 
L 170.85396 119.29053 
L 170.853922 119.289231 
L 167.779772 119.298467 
L 167.473464 119.295404 
L 167.467252 119.300834 
L 167.439337 119.298514 
L 167.439337 119.296147 
L 166.873837 119.296054 
L 165.662957 119.291598 
L 165.662957 119.290484 
L 165.463536 119.291412 
L 165.457476 119.289556 
L 165.116131 119.292062 
L 165.115941 119.290205 
L 165.113744 119.290205 
L 163.002875 119.290484 
L 163.002913 119.288999 
L 162.646115 119.288767 
L 162.646115 119.289556 
L 160.719516 119.287792 
L 160.719591 119.286307 
L 160.123601 119.286074 
L 160.123564 119.285053 
L 158.705119 119.285053 
L 158.705119 119.28329 
L 157.149333 119.28315 
L 157.148462 119.28315 
L 157.02487 119.282547 
L 157.024188 119.28069 
L 156.341347 119.28329 
L 156.340665 119.28329 
L 155.332993 119.279484 
L 154.999034 119.280087 
L 154.073971 119.280319 
L 154.070411 119.280319 
L 152.769762 119.28315 
L 152.105215 119.284032 
L 151.419838 119.284175 
L 150.551134 119.284357 
L 147.966314 119.28691 
L 147.697881 119.285842 
L 146.457874 119.300649 
L 126.051455 119.287467 
L 125.064728 119.285378 
L 124.922994 119.285378 
L 123.219413 119.288395 
L 122.816821 119.278462 
L 120.160869 119.277905 
L 120.116363 119.27823 
L 120.064207 119.278648 
L 120.01224 119.279066 
L 119.832288 119.280505 
L 118.378277 119.287142 
L 118.375739 119.281619 
L 114.448682 119.241145 
L 110.581696 119.237241 
L 107.183133 119.233811 
L 107.054959 119.25052 
L 105.653028 119.250428 
L 102.527176 119.232883 
L 102.320256 119.248432 
L 73.837689 119.247132 
L 73.832727 118.031474 
" clip-path="url(#pf910d4acb7)" style="fill: #33ff57"/>
   </g>
   <g id="text_1">
    <!-- OK -->
    <g transform="translate(227.502187 82.098381) scale(0.12 -0.12)">
     <defs>
      <path id="DejaVuSans-4f" d="M 2522 4238 
Q 1834 4238 1429 3725 
Q 1025 3213 1025 2328 
Q 1025 1447 1429 934 
Q 1834 422 2522 422 
Q 3209 422 3611 934 
Q 4013 1447 4013 2328 
Q 4013 3213 3611 3725 
Q 3209 4238 2522 4238 
z
M 2522 4750 
Q 3503 4750 4090 4092 
Q 4678 3434 4678 2328 
Q 4678 1225 4090 567 
Q 3503 -91 2522 -91 
Q 1538 -91 948 565 
Q 359 1222 359 2328 
Q 359 3434 948 4092 
Q 1538 4750 2522 4750 
z
" transform="scale(0.015625)"/>
      <path id="DejaVuSans-4b" d="M 628 4666 
L 1259 4666 
L 1259 2694 
L 3353 4666 
L 4166 4666 
L 1850 2491 
L 4331 0 
L 3500 0 
L 1259 2247 
L 1259 0 
L 628 0 
L 628 4666 
z
" transform="scale(0.015625)"/>
     </defs>
     <use xlink:href="#DejaVuSans-4f"/>
     <use xlink:href="#DejaVuSans-4b" x="78.710938"/>
    </g>
   </g>
  </g>
 </g>
 <defs>
  <clipPath id="pf910d4acb7">
   <rect x="57.6" y="88.098381" width="357.12" height="172.859239"/>
  </clipPath>
 </defs>
</svg>
