<?xml version="1.0" encoding="utf-8" standalone="no"?>
<!DOCTYPE svg PUBLIC "-//W3C//DTD SVG 1.1//EN"
  "http://www.w3.org/Graphics/SVG/1.1/DTD/svg11.dtd">
<svg xmlns:xlink="http://www.w3.org/1999/xlink" width="360pt" height="360pt" viewBox="0 0 360 360" xmlns="http://www.w3.org/2000/svg" version="1.1">
 <metadata>
  <rdf:RDF xmlns:dc="http://purl.org/dc/elements/1.1/" xmlns:cc="http://creativecommons.org/ns#" xmlns:rdf="http://www.w3.org/1999/02/22-rdf-syntax-ns#">
   <cc:Work>
    <dc:type rdf:resource="http://purl.org/dc/dcmitype/StillImage"/>
    <dc:date>2023-06-19T15:20:26.600453</dc:date>
    <dc:format>image/svg+xml</dc:format>
    <dc:creator>
     <cc:Agent>
      <dc:title>Matplotlib v3.7.1, https://matplotlib.org/</dc:title>
     </cc:Agent>
    </dc:creator>
   </cc:Work>
  </rdf:RDF>
 </metadata>
 <defs>
  <style type="text/css">*{stroke-linejoin: round; stroke-linecap: butt}</style>
 </defs>
 <g id="figure_1">
  <g id="patch_1">
   <path d="M 0 360 
L 360 360 
L 360 0 
L 0 0 
z
" style="fill: #ffffff"/>
  </g>
  <g id="axes_1">
   <g id="PatchCollection_1">
    <path d="M 57.681818 145.781571 
L 57.692974 143.528854 
L 57.69108 143.100847 
L 57.683209 141.384381 
L 57.692678 140.075237 
L 57.699602 134.448593 
L 57.691228 134.388996 
L 57.692649 131.769674 
L 58.143115 131.816428 
L 58.177707 131.815037 
L 58.360995 131.815688 
L 62.433452 131.784647 
L 63.168704 131.779616 
L 63.681815 131.787872 
L 64.310124 131.795181 
L 64.863095 131.81628 
L 65.390469 131.841136 
L 66.690054 131.916298 
L 76.833171 131.933283 
L 76.835509 131.935325 
L 79.631846 131.938817 
L 81.184584 131.958288 
L 81.896104 131.962342 
L 85.736092 131.976664 
L 86.098968 131.977433 
L 86.514221 131.97619 
L 87.335673 131.97184 
L 87.335673 131.972521 
L 90.235815 131.959116 
L 99.138233 131.917896 
L 99.173654 131.916179 
L 100.509272 131.90846 
L 100.509903 131.908456 
L 101.580305 131.90455 
L 102.578711 131.902627 
L 104.659592 131.892122 
L 104.693238 131.890879 
L 105.749288 131.886263 
L 106.296902 131.884251 
L 106.352445 131.883097 
L 110.639852 131.860223 
L 110.68196 131.857855 
L 114.965106 131.834271 
L 114.973717 131.834241 
L 115.354318 131.83291 
L 116.566018 131.826725 
L 117.04359 131.830631 
L 118.550847 131.827436 
L 118.55372 131.827407 
L 119.763434 131.815333 
L 119.772726 131.809888 
L 120.145989 131.81406 
L 121.212041 131.813409 
L 122.435843 131.799827 
L 122.677337 131.799649 
L 123.879685 131.797105 
L 124.133874 131.791778 
L 124.796036 131.800596 
L 126.54088 131.781983 
L 127.790367 131.774645 
L 127.895623 131.772011 
L 129.030652 131.760944 
L 129.033167 131.761625 
L 130.176718 131.751002 
L 130.208825 131.754404 
L 140.56343 131.711172 
L 140.797851 131.709633 
L 140.838776 131.712503 
L 140.981523 131.711142 
L 143.10691 131.707473 
L 143.883331 131.71086 
L 146.362413 131.721677 
L 146.455418 131.722268 
L 146.493206 131.722476 
L 146.673269 131.724488 
L 150.218055 131.723659 
L 152.8633 131.745202 
L 153.194721 131.747865 
L 153.211322 131.747983 
L 156.661564 131.766922 
L 156.928063 131.784469 
L 157.616146 131.782487 
L 159.60855 131.786718 
L 160.110183 131.7854 
L 161.073136 131.782871 
L 161.205734 131.783167 
L 161.24799 131.783256 
L 161.315162 131.783493 
L 161.315162 131.785298 
L 161.790456 131.783818 
L 162.622856 131.788405 
L 164.078387 131.785209 
L 165.014178 131.767513 
L 167.910711 131.785209 
L 168.780277 131.785623 
L 172.291892 131.789855 
L 172.427006 131.789914 
L 174.651907 131.795803 
L 175.254324 131.784735 
L 176.113477 131.787242 
L 176.28901 131.787754 
L 179.65622 131.793199 
L 179.673116 131.79456 
L 179.985599 131.793879 
L 182.116075 131.795566 
L 182.226776 131.795625 
L 182.2793 131.794796 
L 183.177067 131.789766 
L 184.453394 131.797016 
L 184.570368 131.800567 
L 189.590216 131.802431 
L 189.596486 131.802455 
L 193.279141 131.816664 
L 193.336577 131.816013 
L 193.611095 131.816753 
L 195.236183 131.833087 
L 195.441073 131.833061 
L 195.46951 131.833058 
L 198.679443 131.832762 
L 199.218387 131.837141 
L 199.552205 131.832022 
L 200.458346 131.831667 
L 201.350343 131.82714 
L 202.399853 131.827998 
L 204.371898 131.822257 
L 204.533229 131.821606 
L 204.708853 131.821103 
L 211.563413 131.810836 
L 211.563857 131.810835 
L 212.120437 131.80687 
L 212.122124 131.803496 
L 212.557943 131.80974 
L 214.676671 131.807491 
L 216.056745 131.802224 
L 216.451166 131.799679 
L 217.356301 131.811752 
L 218.599515 131.810894 
L 219.133281 131.809829 
L 219.150976 131.810953 
L 219.701609 131.80974 
L 221.312286 131.810598 
L 221.623428 131.811657 
L 221.625391 131.811663 
L 223.914417 131.806988 
L 224.284425 131.806455 
L 226.404068 131.804097 
L 230.933563 131.799058 
L 231.677012 131.801277 
L 231.745426 131.801928 
L 232.219152 131.80175 
L 232.32639 131.802401 
L 234.127546 131.802342 
L 234.41464 131.804443 
L 236.027951 131.80178 
L 236.270332 131.80036 
L 237.238822 131.800271 
L 237.51544 131.79851 
L 237.615429 131.797874 
L 237.758118 131.796957 
L 238.160055 131.798436 
L 238.202281 131.797756 
L 238.965527 131.795447 
L 239.22513 131.795921 
L 240.548625 131.796957 
L 241.365105 131.806485 
L 241.457992 131.797016 
L 242.70739 131.802697 
L 242.960928 131.79527 
L 243.099414 131.793879 
L 243.871981 131.794323 
L 244.021446 131.796335 
L 249.343518 131.810863 
L 250.09187 131.812906 
L 252.603451 131.798998 
L 253.229008 131.795803 
L 256.637705 131.794293 
L 256.717927 131.794323 
L 258.457799 131.800271 
L 258.976917 131.801514 
L 259.428479 131.796098 
L 259.430106 131.796101 
L 260.338437 131.797578 
L 260.38676 131.800833 
L 260.465916 131.801159 
L 260.541847 131.801691 
L 260.658318 131.798377 
L 260.717411 131.803141 
L 264.872013 131.806485 
L 265.953277 131.799572 
L 266.760463 131.794412 
L 267.022937 131.795092 
L 267.553862 131.7924 
L 268.531229 131.793346 
L 268.587275 131.793406 
L 268.626128 131.793465 
L 268.834598 131.794619 
L 270.57808 131.798673 
L 271.205946 131.793169 
L 271.73986 131.796276 
L 272.000676 131.794323 
L 272.398229 131.794919 
L 272.533229 131.795122 
L 273.239097 131.794796 
L 273.332812 131.794086 
L 273.46618 131.791364 
L 273.8722 131.79598 
L 274.174237 131.792015 
L 274.541466 131.792463 
L 274.829712 131.792814 
L 275.842381 131.792873 
L 276.011909 131.791689 
L 276.260948 131.791541 
L 276.373217 131.792843 
L 277.51372 131.793169 
L 278.673606 131.792518 
L 279.028286 131.794025 
L 279.348965 131.795388 
L 282.423341 131.795211 
L 282.426627 131.795205 
L 284.686267 131.791098 
L 284.771579 131.791512 
L 284.779539 131.791541 
L 284.942083 131.791749 
L 288.707798 131.785623 
L 289.240616 131.786955 
L 289.783084 131.78646 
L 289.889521 131.786363 
L 289.894996 131.786393 
L 290.872895 131.786752 
L 292.311944 131.78728 
L 293.022428 131.785179 
L 293.366929 131.787635 
L 293.589839 131.787044 
L 294.148846 131.786511 
L 294.261678 131.787132 
L 294.626448 131.786688 
L 298.831236 131.806071 
L 298.931728 131.806012 
L 299.19435 131.807284 
L 299.479786 131.807905 
L 301.078391 131.809326 
L 302.200873 131.811604 
L 302.264228 131.812255 
L 302.986637 131.808438 
L 303.311341 131.807846 
L 303.372358 131.808112 
L 305.577227 131.812048 
L 305.792058 131.805153 
L 305.789543 131.884961 
L 305.790076 131.929466 
L 305.790224 133.247635 
L 305.787768 133.353985 
L 305.786081 133.619714 
L 305.782264 133.854579 
L 305.784868 133.955515 
L 305.784852 133.958583 
L 305.782648 134.392399 
L 305.783803 134.819844 
L 305.771522 135.321799 
L 305.779749 136.290732 
L 305.781909 138.680516 
L 305.787146 140.607997 
L 305.790253 141.554708 
L 305.790418 141.599354 
L 305.796468 143.236256 
L 305.794988 143.406494 
L 305.795343 143.635263 
L 305.796497 144.26816 
L 305.795953 144.535196 
L 305.794041 145.473971 
L 305.794899 145.500396 
L 305.791082 145.553956 
L 305.794455 146.041648 
L 305.794633 146.124503 
L 305.79339 146.585682 
L 305.870564 147.012446 
L 305.914388 147.271191 
L 305.98011 147.706773 
L 306.163605 148.877962 
L 306.246017 149.371129 
L 306.264926 149.464726 
L 306.331831 149.894775 
L 306.519025 151.133017 
L 306.580543 151.524275 
L 306.731993 152.487495 
L 306.775465 152.748262 
L 306.978103 153.963769 
L 306.977629 153.979512 
L 307.033734 154.259977 
L 307.061313 154.449005 
L 307.066965 154.47685 
L 307.081317 154.558078 
L 307.157928 155.038876 
L 307.173874 155.120968 
L 307.174292 155.123122 
L 307.312335 155.925842 
L 307.339944 156.083711 
L 307.423607 156.573312 
L 307.424338 156.577588 
L 307.472808 156.862817 
L 307.738557 158.33867 
L 307.866193 159.047504 
L 307.870809 159.077391 
L 308.225637 161.132913 
L 308.251441 161.284686 
L 308.287128 161.458505 
L 308.333734 161.723405 
L 308.445174 162.368434 
L 308.449406 162.379945 
L 308.553626 162.969934 
L 308.562385 163.019558 
L 308.604819 163.254009 
L 308.612986 163.290554 
L 308.612276 163.293306 
L 308.612276 163.309551 
L 308.762806 164.267832 
L 309.056942 165.923903 
L 309.115799 166.287075 
L 309.151427 166.501878 
L 309.193653 166.772903 
L 309.248368 167.091896 
L 309.260145 167.169129 
L 309.267188 167.203988 
L 309.293198 167.373604 
L 309.311012 167.475694 
L 309.444054 168.220119 
L 309.479179 168.409828 
L 309.491907 168.490498 
L 309.631632 169.376039 
L 309.650127 169.467565 
L 310.09216 172.059486 
L 310.310395 173.376856 
L 310.334512 173.528599 
L 310.345165 173.577247 
L 310.368216 173.713515 
L 310.566521 174.964615 
L 310.771307 176.25661 
L 310.77357 176.269151 
L 311.137484 178.286108 
L 311.318182 179.287605 
L 311.313276 179.30014 
L 311.289586 179.360674 
L 311.238286 179.491755 
L 311.243392 179.519094 
L 311.274683 179.686613 
L 311.253081 179.820217 
L 311.309304 180.018478 
L 311.294509 180.083578 
L 311.300427 180.216739 
L 311.232367 181.885622 
L 311.201149 182.32946 
L 311.197894 182.448091 
L 311.196828 182.791112 
L 311.185288 182.839227 
L 311.182713 182.911312 
L 311.182151 182.927024 
L 311.158981 183.554535 
L 311.129893 183.788069 
L 311.124093 183.8748 
L 311.129893 184.121443 
L 311.110097 184.711609 
L 311.103498 184.782776 
L 311.085329 185.116831 
L 311.086157 185.226614 
L 311.091957 185.416146 
L 311.072753 185.87114 
L 311.071539 185.953107 
L 311.066585 186.11867 
L 311.035912 187.14359 
L 311.021767 187.412337 
L 310.961109 189.105228 
L 310.871741 191.599341 
L 310.824784 192.909872 
L 310.784416 194.036471 
L 310.789358 194.087279 
L 310.790186 194.193689 
L 310.77326 194.646523 
L 310.760388 195.058373 
L 310.758169 195.136523 
L 310.755417 195.233612 
L 310.727139 196.056923 
L 310.626898 198.975434 
L 310.590841 200.025241 
L 310.53949 201.520317 
L 310.540378 201.75752 
L 310.464861 204.334202 
L 310.464683 204.411287 
L 310.432399 205.53004 
L 310.35777 208.130277 
L 310.35348 208.281783 
L 310.342827 208.629539 
L 310.305868 209.906842 
L 310.29338 210.128036 
L 310.161838 214.927992 
L 310.025609 219.898926 
L 310.025609 219.90008 
L 310.025611 219.903932 
L 310.025639 219.964677 
L 309.964622 221.807912 
L 309.962225 221.91228 
L 309.953936 222.294172 
L 309.951898 222.388077 
L 309.908843 224.053291 
L 309.904345 224.061813 
L 309.875937 224.945613 
L 309.857591 225.571881 
L 309.83448 226.379098 
L 309.834302 226.386141 
L 309.828917 226.591208 
L 309.820069 226.789794 
L 309.795213 227.758077 
L 309.792401 227.836434 
L 309.789886 227.921006 
L 309.789649 227.927398 
L 309.75994 228.928497 
L 309.760946 229.088319 
L 309.737983 229.672449 
L 309.740824 229.781433 
L 309.710996 230.507038 
L 309.709546 230.805258 
L 309.700728 231.262235 
L 309.652228 231.526425 
L 309.534189 231.639582 
L 309.146189 231.770759 
L 308.669475 231.892527 
L 308.504771 231.814525 
L 308.426739 231.736493 
L 308.400728 231.571788 
L 308.444079 231.502427 
L 308.418069 231.363733 
L 308.296715 231.26836 
L 308.131981 231.25969 
L 307.984617 231.320382 
L 307.828583 231.320382 
L 307.72454 231.25102 
L 307.698529 231.138337 
L 307.76437 231.063885 
L 307.767891 230.8956 
L 307.741881 230.800228 
L 307.594516 230.704885 
L 307.36912 230.730866 
L 307.247737 230.765547 
L 307.187075 230.756877 
L 307.143724 230.696215 
L 307.152395 230.618183 
L 307.230397 230.50547 
L 307.213057 230.418798 
L 307.126384 230.314755 
L 307.005001 230.210742 
L 306.926703 230.085808 
L 306.718943 230.046008 
L 306.60623 230.089359 
L 306.510858 230.193402 
L 306.415515 230.271404 
L 306.23347 230.271404 
L 306.103417 230.245393 
L 305.982063 230.167391 
L 305.826 230.028667 
L 305.695976 229.985346 
L 305.505261 230.080689 
L 305.418559 230.210742 
L 305.279865 230.314755 
L 305.054469 230.358106 
L 304.959096 230.332095 
L 304.889735 230.210742 
L 304.907075 230.002686 
L 304.889735 229.881303 
L 304.855083 229.77729 
L 304.777051 229.690588 
L 304.572813 229.656292 
L 303.814539 229.886659 
L 303.131989 229.812001 
L 303.066001 229.774302 
L 303.047151 229.670614 
L 303.047151 229.538667 
L 303.08485 229.43498 
L 303.037741 229.255894 
L 302.924644 229.208785 
L 302.802106 229.180495 
L 302.717269 229.208785 
L 302.65131 229.255894 
L 302.604171 229.350171 
L 302.528773 229.43498 
L 302.406236 229.41613 
L 302.264879 229.284183 
L 302.251355 229.245864 
L 302.20833 229.123947 
L 302.255439 228.94489 
L 302.19889 228.756365 
L 302.104642 228.624418 
L 301.793609 228.54902 
L 301.614524 228.54902 
L 301.501426 228.483031 
L 301.360039 228.313385 
L 301.350629 228.162588 
L 301.407178 228.002352 
L 301.397739 227.917544 
L 301.350629 227.842116 
L 301.265792 227.813856 
L 301.143284 227.795007 
L 300.709714 228.058901 
L 300.44582 228.10604 
L 300.134787 227.964653 
L 300.049949 227.889255 
L 299.889713 227.879815 
L 299.757766 227.917544 
L 299.672928 227.964653 
L 299.635229 228.124889 
L 299.57868 228.200288 
L 299.493872 228.237987 
L 299.173399 228.256836 
L 298.946672 228.252279 
L 298.35473 228.066269 
L 298.195884 227.968825 
L 298.12451 227.878395 
L 298.171353 227.781839 
L 298.155492 227.625361 
L 298.061244 227.502823 
L 297.995256 227.483974 
L 297.853869 227.512233 
L 297.790485 227.433935 
L 297.378931 227.166165 
L 297.261483 227.109853 
L 297.108142 227.104201 
L 296.865879 226.869779 
L 296.851379 226.773016 
L 296.865879 226.637548 
L 296.943289 226.419845 
L 296.948142 226.327906 
L 296.919113 226.206966 
L 296.870732 226.163408 
L 296.798174 226.115027 
L 296.720764 226.085998 
L 296.604648 226.090851 
L 296.488532 226.139232 
L 296.386916 226.158585 
L 296.275653 226.153732 
L 296.135332 226.10535 
L 296.004716 225.931206 
L 295.98054 225.703798 
L 295.739579 225.428718 
L 295.540579 225.369033 
L 295.496577 225.031664 
L 295.407596 224.661952 
L 295.332434 224.626235 
L 295.273962 224.637835 
L 295.191196 224.693585 
L 295.03016 224.917383 
L 294.981246 224.944903 
L 294.827846 224.955378 
L 294.704036 224.912323 
L 294.619612 224.76487 
L 294.480563 224.614931 
L 294.239307 224.508877 
L 294.001216 224.647866 
L 293.826539 224.694591 
L 293.386163 224.68166 
L 293.10916 224.613156 
L 293.036455 224.568029 
L 292.746195 223.895629 
L 292.680177 223.644725 
L 292.549177 223.51769 
L 292.378495 223.458153 
L 292.15227 223.553437 
L 292.001444 223.704263 
L 291.810906 223.704263 
L 291.707692 223.62487 
L 291.668011 223.52565 
L 291.675941 223.362899 
L 291.572757 223.212073 
L 291.505259 223.144605 
L 291.429861 223.100928 
L 291.203607 223.120784 
L 290.937671 223.037426 
L 290.866238 222.954067 
L 290.862243 222.862778 
L 290.901185 222.578999 
L 290.797142 222.479336 
L 290.609061 222.412756 
L 290.064405 222.430185 
L 289.87424 222.40958 
L 289.719757 222.392841 
L 289.554727 222.329812 
L 289.493769 222.274239 
L 289.040166 222.015405 
L 287.9961 221.68357 
L 287.787926 221.672118 
L 287.666662 221.707332 
L 287.003375 222.509726 
L 286.982158 222.626256 
L 287.000002 222.699435 
L 287.0501 222.790635 
L 287.067559 222.999904 
L 287.063179 223.117618 
L 286.997783 223.344316 
L 286.919307 223.418442 
L 286.762355 223.505617 
L 286.679529 223.527426 
L 286.422323 223.4446 
L 286.339468 223.4533 
L 286.265371 223.479459 
L 286.208675 223.531776 
L 286.191245 223.601552 
L 286.156357 223.871838 
L 286.152007 224.01136 
L 286.09969 224.163932 
L 285.968897 224.246788 
L 285.764008 224.233708 
L 285.32993 224.08824 
L 284.853103 223.928446 
L 284.619924 223.911224 
L 284.588232 223.92596 
L 284.578437 224.191008 
L 284.452142 224.426495 
L 284.061065 224.458572 
L 283.383575 224.445137 
L 282.420027 224.502396 
L 281.248956 224.427175 
L 280.776207 224.324701 
L 280.750611 224.293364 
L 280.830862 223.988161 
L 280.789109 223.922557 
L 280.729483 223.898706 
L 280.580432 223.91658 
L 280.325563 224.117918 
L 279.927473 224.250457 
L 279.623394 224.252824 
L 279.51151 224.204058 
L 279.499377 224.138987 
L 279.507101 223.910632 
L 279.393796 223.797327 
L 279.238768 223.767529 
L 279.095665 223.821178 
L 278.942264 223.934867 
L 278.706689 224.062849 
L 278.514139 224.100074 
L 278.35414 224.088534 
L 278.261578 224.016036 
L 278.150316 223.848017 
L 278.143036 223.670529 
L 278.227548 223.466616 
L 278.237314 223.27016 
L 278.178042 223.074385 
L 278.00739 222.705856 
L 277.933442 222.612378 
L 277.886303 222.571749 
L 277.814781 222.552781 
L 277.148358 222.485106 
L 276.741982 222.492001 
L 276.624239 222.700678 
L 275.638231 223.309724 
L 275.33359 223.328573 
L 274.962369 223.236367 
L 274.799026 223.264775 
L 274.661722 223.332479 
L 274.456153 223.587171 
L 274.222205 223.794457 
L 273.863234 223.942827 
L 273.451443 223.962535 
L 273.372671 223.945608 
L 272.931497 223.691716 
L 272.66343 223.624751 
L 272.372638 223.630995 
L 272.10537 223.723645 
L 272.046868 223.783242 
L 271.941169 223.996565 
L 271.922141 224.263921 
L 271.943425 224.305857 
L 271.974044 224.366188 
L 272.073086 224.4536 
L 272.189823 224.793692 
L 272.166239 224.866841 
L 272.056574 224.982602 
L 271.890686 225.045513 
L 271.640788 225.167931 
L 271.604835 225.167428 
L 271.516861 225.128634 
L 271.172538 224.797479 
L 271.114065 224.757531 
L 270.789302 224.653193 
L 270.661853 224.65047 
L 270.204758 224.73448 
L 270.173096 224.788691 
L 270.173096 224.823904 
L 270.202361 224.962746 
L 270.23645 225.031161 
L 270.252696 225.149023 
L 270.241392 225.198469 
L 270.199195 225.264191 
L 270.139924 225.317692 
L 269.978415 225.397648 
L 269.868839 225.424073 
L 269.704075 225.409898 
L 269.630216 225.384864 
L 269.518923 225.311981 
L 269.464045 225.257896 
L 269.338683 225.134345 
L 269.05446 224.912293 
L 268.408692 224.670504 
L 268.225256 224.574954 
L 268.053183 224.447564 
L 267.696994 224.226577 
L 267.382795 224.063263 
L 267.183025 223.98603 
L 266.81355 223.887107 
L 266.785911 223.895244 
L 266.754249 223.959576 
L 266.765642 224.026629 
L 266.800559 224.086255 
L 266.810295 224.134992 
L 266.809792 224.24226 
L 266.771145 224.374947 
L 266.633961 224.641149 
L 266.544684 224.69465 
L 266.327929 224.777328 
L 265.719919 224.796444 
L 265.45922 224.709564 
L 265.361925 224.558767 
L 265.225716 224.485795 
L 265.147892 224.485795 
L 265.084655 224.505266 
L 264.992212 224.558767 
L 264.963036 224.660916 
L 264.972771 224.821448 
L 264.963775 224.920401 
L 264.944778 224.953928 
L 264.739267 225.117981 
L 264.316024 225.264132 
L 264.262524 225.22522 
L 264.243053 225.186308 
L 264.229973 225.099487 
L 264.247935 225.011187 
L 264.2382 224.957656 
L 264.150639 224.923627 
L 264.024137 224.913891 
L 263.970636 224.962539 
L 263.795456 225.24404 
L 263.450926 225.385397 
L 263.257873 225.33231 
L 263.004395 225.235814 
L 262.391799 225.083922 
L 261.934053 225.04501 
L 261.893276 225.082354 
L 261.896945 225.11159 
L 261.913635 225.15571 
L 261.961928 225.209596 
L 262.006758 225.341987 
L 262.012381 225.496157 
L 261.955802 225.562885 
L 261.81628 225.555191 
L 261.641159 225.505892 
L 261.399222 225.343496 
L 261.257717 225.281946 
L 260.785619 225.305767 
L 260.514416 225.346011 
L 260.452955 225.403507 
L 260.409071 225.519208 
L 260.493051 225.896466 
L 260.434668 225.961863 
L 260.036607 225.961448 
L 259.691189 226.031698 
L 259.661006 226.052205 
L 259.600226 226.152252 
L 259.648282 226.31311 
L 259.713087 226.406796 
L 259.775968 226.447957 
L 259.854444 226.482815 
L 259.959078 226.526433 
L 260.098571 226.57875 
L 260.07981 226.796867 
L 259.881697 227.348387 
L 259.728385 227.538718 
L 259.627006 227.632847 
L 259.375629 227.755443 
L 259.084856 227.848213 
L 258.980705 227.881443 
L 258.370505 228.02132 
L 258.118921 228.002648 
L 257.550504 227.678181 
L 256.909441 227.399461 
L 256.691265 227.360105 
L 256.241094 227.45823 
L 256.170519 227.506996 
L 255.968145 227.832943 
L 255.929588 227.918106 
L 255.838122 228.210349 
L 255.799979 228.387807 
L 255.823444 228.631017 
L 255.810454 228.832207 
L 255.723781 229.113264 
L 255.517797 229.453326 
L 255.463497 229.519729 
L 255.394165 229.568643 
L 254.75612 229.809071 
L 254.589196 229.826708 
L 254.36312 229.803745 
L 254.178116 229.665761 
L 254.150389 229.594831 
L 254.146897 229.392575 
L 254.037646 229.091574 
L 253.959378 228.926248 
L 253.66897 228.659711 
L 253.529536 228.531738 
L 252.955734 228.0539 
L 252.808902 227.908814 
L 252.662751 227.715821 
L 252.581731 227.467699 
L 252.53983 227.38073 
L 252.46884 227.262484 
L 252.389477 227.173503 
L 252.165442 227.096181 
L 251.980763 227.054872 
L 251.637802 227.025843 
L 251.564859 227.038952 
L 251.394888 227.173681 
L 251.309073 227.197442 
L 250.512893 227.263194 
L 250.092461 227.27583 
L 250.032746 227.249878 
L 249.747842 227.012616 
L 249.629537 226.825688 
L 249.628146 226.496072 
L 249.609652 226.370783 
L 249.511202 226.128757 
L 249.394257 225.928513 
L 249.311639 225.846339 
L 249.235323 225.809764 
L 249.127878 225.783783 
L 248.584643 225.898478 
L 248.138556 225.916766 
L 247.9421 225.899396 
L 247.523976 225.635709 
L 247.350602 225.549687 
L 247.104048 225.448752 
L 246.45609 225.236997 
L 246.274548 225.118485 
L 246.252887 225.057734 
L 246.261025 224.959343 
L 246.284047 224.913743 
L 246.389687 224.791384 
L 246.787067 224.422263 
L 247.091383 224.30961 
L 247.21975 224.242201 
L 247.433871 224.077556 
L 247.511341 223.971442 
L 247.574489 223.832452 
L 247.571766 223.763416 
L 247.498321 223.659758 
L 247.481013 223.656886 
L 247.349951 223.635138 
L 246.917505 223.661208 
L 246.304021 223.668842 
L 246.250076 223.640879 
L 245.837782 223.328987 
L 245.36888 223.012243 
L 245.235306 222.994459 
L 245.153131 223.004136 
L 245.051604 223.064087 
L 244.967831 223.14209 
L 244.91288 223.235716 
L 244.745956 223.617738 
L 244.671475 223.972448 
L 244.711749 224.196512 
L 244.708612 224.27845 
L 244.634102 224.603095 
L 244.531598 224.848465 
L 244.457117 224.986182 
L 244.194762 225.309022 
L 244.050268 225.428215 
L 243.941461 225.486244 
L 243.814574 225.52847 
L 242.819837 225.704064 
L 242.583019 225.734869 
L 242.359694 225.742326 
L 242.222184 225.711196 
L 242.129179 225.651451 
L 242.090769 225.588008 
L 241.910559 225.222409 
L 241.897657 225.039358 
L 241.827053 224.750045 
L 241.798024 224.686157 
L 241.711736 224.584482 
L 241.392418 224.42611 
L 240.844922 224.314847 
L 240.271474 224.250072 
L 240.115943 224.353227 
L 240.04596 224.44061 
L 240.015155 224.581197 
L 239.992281 224.899332 
L 239.864921 225.0153 
L 239.725931 225.067499 
L 239.563268 225.059243 
L 239.257059 224.891786 
L 238.995384 224.674114 
L 238.766674 224.451766 
L 238.390333 223.611524 
L 238.346953 223.417998 
L 238.368406 223.111315 
L 238.280432 222.507359 
L 238.191895 222.262048 
L 238.108477 222.108144 
L 238.04533 222.025111 
L 237.928474 221.90867 
L 237.781583 221.795099 
L 237.712991 221.76172 
L 237.60954 221.742397 
L 237.545801 221.754825 
L 237.309545 221.857536 
L 237.234423 221.896869 
L 236.943828 222.049021 
L 236.715916 222.186176 
L 236.117316 222.446194 
L 236.079883 222.449094 
L 235.98673 222.397132 
L 235.902011 222.274772 
L 235.866117 222.050708 
L 235.876622 221.972173 
L 235.915948 221.874048 
L 235.913936 221.843037 
L 235.857062 221.837119 
L 235.663092 221.887631 
L 235.576005 221.945925 
L 235.473826 222.049346 
L 235.441868 222.105688 
L 235.417751 222.270629 
L 235.452077 222.557457 
L 235.482437 222.647887 
L 235.63785 222.95892 
L 235.750474 223.361419 
L 235.779119 223.739683 
L 235.731891 223.90424 
L 234.776392 224.980767 
L 234.597602 225.156213 
L 234.154948 225.332251 
L 234.084313 225.347136 
L 233.797072 225.086526 
L 233.652489 224.815086 
L 233.2905 224.675297 
L 232.72306 224.882939 
L 232.627421 225.13763 
L 232.835418 225.267387 
L 233.59381 225.443041 
L 233.858355 225.718534 
L 233.880105 225.947984 
L 233.293282 226.036166 
L 232.979231 226.087063 
L 232.700807 226.205694 
L 232.579099 226.343293 
L 232.500416 226.507968 
L 232.486656 226.638051 
L 232.525687 226.788492 
L 232.705157 227.230969 
L 232.7831 227.485069 
L 232.801003 227.648382 
L 232.798636 227.850964 
L 232.75419 228.123617 
L 232.609874 228.384552 
L 232.520715 228.506556 
L 232.4299 228.600745 
L 232.211783 228.754649 
L 232.081257 228.823123 
L 231.953157 228.867214 
L 231.72125 228.915447 
L 231.573295 228.922342 
L 231.235127 228.871356 
L 230.884057 228.773617 
L 230.716216 228.700379 
L 230.47703 228.555974 
L 230.209437 228.312645 
L 229.923853 227.770387 
L 229.747815 227.361082 
L 229.67073 227.022233 
L 229.540854 226.898216 
L 229.290808 226.543152 
L 229.225856 226.420496 
L 229.219316 226.173824 
L 229.238758 225.906143 
L 229.282582 225.818701 
L 229.395443 225.656038 
L 229.461224 225.582859 
L 229.509931 225.553031 
L 229.573286 225.538117 
L 229.793326 225.550338 
L 229.937849 225.536105 
L 230.226156 225.418924 
L 230.368283 225.269192 
L 230.374053 225.06454 
L 229.989959 223.734742 
L 229.953385 223.647329 
L 229.81688 223.484696 
L 229.204846 223.082848 
L 229.0634 223.030057 
L 228.601748 223.072136 
L 228.141014 223.319666 
L 228.05656 223.413914 
L 228.020045 223.495231 
L 227.930413 224.242201 
L 227.781688 224.531543 
L 227.740231 224.579629 
L 227.710965 224.591821 
L 227.269849 224.613304 
L 227.156929 224.593626 
L 227.045666 224.554269 
L 226.842227 224.436763 
L 226.598277 224.203407 
L 226.449789 224.092055 
L 226.354328 224.092055 
L 226.20581 224.150379 
L 226.00095 224.482245 
L 225.956563 224.516304 
L 225.887616 224.537521 
L 225.765641 224.542847 
L 225.712584 224.511007 
L 225.643666 224.314788 
L 225.611826 224.277651 
L 225.564095 224.261761 
L 225.452714 224.261761 
L 225.346659 224.309491 
L 225.261792 224.463277 
L 225.217168 224.682074 
L 224.997069 225.166186 
L 224.695979 225.57626 
L 224.489018 225.761353 
L 224.393231 225.829176 
L 224.269037 225.888861 
L 223.160966 225.906882 
L 222.68437 225.890518 
L 222.160606 225.761057 
L 221.89831 225.620114 
L 221.720438 225.441236 
L 221.608317 225.228445 
L 221.648886 224.997989 
L 221.705701 224.886845 
L 221.763374 224.833285 
L 221.945301 224.365626 
L 221.96054 223.759953 
L 221.749999 223.457029 
L 221.681732 223.388584 
L 220.981568 223.038998 
L 220.908544 223.002538 
L 220.661369 222.935543 
L 220.480804 222.924151 
L 219.941919 223.101846 
L 219.761235 223.157684 
L 219.540899 223.310789 
L 219.229511 223.467267 
L 218.984052 223.566161 
L 218.881637 223.585839 
L 218.784933 223.591254 
L 218.698955 223.578305 
L 218.060719 223.482181 
L 217.921729 223.432054 
L 217.86808 223.389353 
L 217.659906 223.097969 
L 217.635464 222.976675 
L 217.639488 222.90684 
L 217.663872 222.851267 
L 217.695564 222.826174 
L 217.801204 222.670939 
L 217.880686 221.97016 
L 217.857901 221.920684 
L 217.28108 221.490458 
L 216.550563 221.10092 
L 215.886773 220.857355 
L 215.730561 220.817998 
L 215.426275 220.801664 
L 214.945389 220.942607 
L 214.794859 221.028658 
L 214.652495 221.217095 
L 214.467906 221.631223 
L 214.304414 221.877984 
L 214.094672 222.094917 
L 213.842644 222.29084 
L 213.636157 222.41968 
L 213.593072 222.428528 
L 213.509299 222.423113 
L 213.452366 222.398079 
L 213.023915 222.409086 
L 212.733596 222.487592 
L 212.736762 222.592641 
L 212.820417 222.759416 
L 212.833289 222.948504 
L 212.808876 222.996619 
L 212.703946 223.084002 
L 212.654351 223.104982 
L 212.440525 223.07983 
L 212.113691 223.192927 
L 212.21362 223.362396 
L 212.233061 223.527811 
L 212.205394 223.637594 
L 212.085875 223.78262 
L 211.585162 223.945194 
L 211.529087 224.091611 
L 211.471384 224.181066 
L 210.615903 224.757975 
L 209.685793 225.002931 
L 209.517656 225.014531 
L 209.341885 224.977986 
L 208.769266 224.748684 
L 208.510964 224.584571 
L 207.585471 224.120788 
L 207.524542 224.100459 
L 207.408308 224.10182 
L 207.297815 224.130287 
L 207.157227 224.143869 
L 206.94349 224.121528 
L 206.667138 224.025327 
L 206.477725 223.900659 
L 206.370312 223.804773 
L 206.3688 223.803423 
L 206.193916 223.588265 
L 206.170332 223.532723 
L 206.171101 223.484607 
L 206.200337 223.386986 
L 206.305889 223.168011 
L 206.340836 223.1341 
L 206.395313 223.13407 
L 206.508352 223.268266 
L 206.605115 223.327893 
L 206.765262 223.286495 
L 206.87907 223.199023 
L 206.981455 223.077699 
L 207.083841 222.784184 
L 207.113906 222.633003 
L 207.092718 222.42696 
L 207.060996 222.387633 
L 207.030103 222.375441 
L 206.795919 222.433114 
L 206.721112 222.434476 
L 206.566587 222.406719 
L 206.527556 222.383697 
L 206.481157 222.313211 
L 206.477873 222.237961 
L 206.522585 222.187804 
L 206.727504 222.103025 
L 206.886882 221.968799 
L 206.988498 221.774267 
L 207.313025 220.889668 
L 207.319535 220.846968 
L 207.297548 220.820543 
L 207.265028 220.811044 
L 207.113639 220.83883 
L 207.020072 220.838179 
L 206.946834 220.81717 
L 206.807666 220.716885 
L 206.650478 220.530609 
L 206.551939 220.385494 
L 206.477873 220.347558 
L 206.357437 220.386884 
L 206.222412 220.488619 
L 206.086825 220.55153 
L 205.545928 220.665722 
L 205.137037 220.729639 
L 204.894774 220.742866 
L 204.496921 220.739937 
L 204.080277 220.669362 
L 203.262317 220.474918 
L 203.190677 220.449854 
L 203.10359 220.384103 
L 202.647472 219.682022 
L 202.592284 219.619881 
L 202.592284 219.544305 
L 202.635488 219.474115 
L 202.694877 219.441742 
L 202.813656 219.414725 
L 202.835228 219.393153 
L 202.85683 219.333764 
L 202.86763 219.225786 
L 202.781254 219.107007 
L 202.322857 218.703353 
L 202.220974 218.56176 
L 202.156525 218.411969 
L 202.131934 218.141535 
L 202.179931 218.046607 
L 202.626995 217.640438 
L 202.774389 217.46008 
L 202.898967 217.256049 
L 202.978775 217.08658 
L 203.030885 216.93676 
L 203.057665 216.752377 
L 203.043787 216.694083 
L 202.697185 216.201419 
L 202.545442 216.03272 
L 202.474511 215.985966 
L 202.325254 215.967737 
L 202.06275 215.973271 
L 201.842621 216.091873 
L 201.666436 216.255808 
L 201.601074 216.350103 
L 201.489362 216.511268 
L 201.146104 216.914448 
L 201.055614 216.981531 
L 200.709161 217.167837 
L 200.048242 217.121024 
L 199.793166 217.090545 
L 199.685572 217.06412 
L 199.308226 216.941465 
L 199.097033 216.844643 
L 199.047261 216.780962 
L 198.581762 216.607617 
L 198.37637 216.678222 
L 198.12446 216.714796 
L 197.418592 216.677245 
L 197.016744 216.610073 
L 196.830083 216.563941 
L 196.281433 216.213522 
L 196.168098 216.115901 
L 196.08332 216.077284 
L 194.941751 215.897251 
L 194.83904 215.924416 
L 194.432339 216.123772 
L 194.339334 216.216599 
L 193.923282 216.745127 
L 193.848534 216.929185 
L 193.862531 216.942737 
L 193.931597 216.954041 
L 193.924821 217.452061 
L 193.883748 217.587973 
L 193.450267 218.028852 
L 193.350041 218.089366 
L 193.285473 218.105375 
L 193.218657 218.089129 
L 193.193123 218.074016 
L 193.130564 218.03699 
L 193.034392 218.015566 
L 192.926473 218.012636 
L 192.69078 218.05143 
L 192.61041 218.085963 
L 192.583304 218.115317 
L 192.528235 218.199771 
L 192.522347 218.27289 
L 192.50474 218.314229 
L 192.426175 218.372465 
L 191.655858 218.644496 
L 191.449489 218.703649 
L 191.322602 218.693943 
L 190.794281 218.404749 
L 190.08356 217.736284 
L 190.012215 217.59182 
L 189.845144 217.369886 
L 189.411337 217.015058 
L 189.184195 216.751105 
L 189.136908 216.604688 
L 188.77412 216.252878 
L 188.635486 216.138331 
L 187.965157 215.794807 
L 187.841199 215.804335 
L 187.696942 215.88506 
L 187.658326 215.897556 
L 187.608879 215.913556 
L 187.463764 215.917699 
L 187.317791 215.894706 
L 186.90162 215.763825 
L 186.679893 215.677626 
L 186.536376 215.680289 
L 186.462102 215.719586 
L 186.312016 215.863251 
L 185.293576 216.606078 
L 185.102832 216.595248 
L 184.523259 216.52346 
L 184.480855 216.508576 
L 183.985202 216.529053 
L 183.950166 216.545328 
L 183.910248 216.599598 
L 183.898056 216.670084 
L 183.832097 216.776553 
L 183.757972 216.831711 
L 183.541216 216.869943 
L 183.312003 216.858254 
L 183.234592 216.790816 
L 183.239534 216.732522 
L 183.207812 216.628775 
L 183.171149 216.587436 
L 183.059501 216.510765 
L 182.276963 216.292974 
L 181.839161 215.932997 
L 181.657353 215.857747 
L 181.119947 215.747964 
L 180.395851 215.763736 
L 180.344451 215.77933 
L 180.327348 215.822741 
L 180.31199 216.026772 
L 180.261507 216.110189 
L 180.189749 216.133922 
L 180.025044 216.118416 
L 179.872502 216.001205 
L 179.825126 215.940218 
L 179.82267 215.899559 
L 179.903336 215.798506 
L 179.933459 215.722575 
L 179.923635 215.662948 
L 179.882829 215.616875 
L 178.804911 215.293887 
L 178.539064 215.165698 
L 178.468903 215.118234 
L 178.397145 215.042984 
L 178.269104 214.88979 
L 178.248715 214.844397 
L 177.891402 214.518983 
L 177.590282 214.282431 
L 177.532238 214.255835 
L 177.527637 214.253728 
L 177.351215 214.21807 
L 177.282682 214.242483 
L 177.237821 214.293321 
L 177.244391 214.439087 
L 177.232998 214.489924 
L 177.119605 214.588907 
L 177.039679 214.589617 
L 176.887906 214.522534 
L 176.815259 214.441898 
L 176.753177 214.325309 
L 176.673902 214.107754 
L 176.498426 214.000042 
L 176.393141 213.98791 
L 176.099922 214.105979 
L 176.020854 214.19999 
L 176.036153 214.368186 
L 175.951108 214.431363 
L 175.735536 214.532713 
L 175.04908 214.423522 
L 175.013985 214.437075 
L 174.968267 214.489954 
L 174.910327 214.60314 
L 174.836083 214.681083 
L 174.678628 214.681054 
L 174.403667 214.611219 
L 174.38248 214.590889 
L 174.371856 214.541383 
L 174.336791 214.487172 
L 174.155663 214.379372 
L 173.874162 214.296013 
L 173.768906 214.287225 
L 173.3944 214.352385 
L 172.904163 214.527416 
L 172.595054 214.57636 
L 172.377174 214.539164 
L 172.281742 214.497766 
L 172.219808 214.409614 
L 172.229632 214.351319 
L 172.272924 214.26728 
L 172.348826 214.220556 
L 172.375783 214.174453 
L 172.348115 214.095829 
L 172.31956 214.072748 
L 172.257566 214.05375 
L 172.032348 214.061119 
L 171.861755 214.191201 
L 171.41697 214.365286 
L 170.514587 214.204547 
L 170.437857 214.134061 
L 170.420724 214.071002 
L 170.438685 213.971369 
L 170.499051 213.82359 
L 170.495796 213.750382 
L 170.466412 213.671077 
L 170.335797 213.442633 
L 170.288451 213.317226 
L 170.295168 212.825095 
L 170.364885 212.484944 
L 170.334258 212.235935 
L 170.314876 212.21747 
L 170.197636 212.226673 
L 170.09528 212.203769 
L 169.980466 212.157044 
L 169.915928 212.073006 
L 169.859527 211.898802 
L 169.805434 211.353141 
L 169.860947 211.255549 
L 169.91646 210.931082 
L 169.887106 210.59466 
L 169.815525 210.474372 
L 169.691242 210.440312 
L 169.619217 210.444544 
L 169.553939 210.484699 
L 169.430307 210.493399 
L 169.316647 210.469371 
L 169.239355 210.414864 
L 169.219588 210.363937 
L 169.190648 210.087023 
L 169.102436 209.813068 
L 168.933412 209.518606 
L 168.755154 209.420482 
L 168.682981 209.447232 
L 168.584916 209.526389 
L 168.467321 209.519612 
L 168.094916 209.254179 
L 167.987056 209.156528 
L 167.974805 209.106371 
L 168.0157 209.077934 
L 168.295337 209.062399 
L 168.393491 209.019107 
L 168.458917 208.96895 
L 168.389644 208.60628 
L 168.305428 208.557455 
L 167.543307 208.273912 
L 167.403459 208.254915 
L 167.271778 208.288797 
L 167.000249 208.413494 
L 166.76059 208.467024 
L 166.701704 208.464331 
L 166.664922 208.447376 
L 166.528329 208.281991 
L 166.396589 208.047481 
L 166.237892 207.894997 
L 166.021876 207.790688 
L 165.753484 207.61249 
L 165.566882 207.462729 
L 165.555371 207.380732 
L 165.565166 207.332587 
L 165.622395 207.240381 
L 165.627278 207.17531 
L 165.505273 207.056768 
L 165.185245 206.972847 
L 165.014948 206.968527 
L 164.847876 207.025016 
L 164.435227 207.464061 
L 164.374446 207.999543 
L 164.377642 208.15682 
L 164.389893 208.198159 
L 164.465913 208.257844 
L 164.537731 208.543192 
L 164.367256 209.364643 
L 164.297716 209.447262 
L 164.198379 209.494548 
L 164.073859 209.52047 
L 164.024146 209.51541 
L 163.681362 209.287913 
L 163.36879 209.496531 
L 163.079832 209.475551 
L 162.953744 209.304839 
L 162.728052 209.057457 
L 162.185912 208.814247 
L 162.062983 208.816415 
L 161.991262 208.81768 
L 161.705056 208.770334 
L 161.610157 208.718875 
L 161.50132 208.569114 
L 161.412932 208.481051 
L 161.33055 208.425508 
L 160.904289 208.294508 
L 160.805336 208.280925 
L 160.627019 208.34863 
L 160.445448 208.370942 
L 159.869722 208.333568 
L 159.670159 208.276605 
L 159.486161 208.19733 
L 159.264464 208.16481 
L 159.126243 208.168864 
L 158.957781 208.217038 
L 158.826988 208.482767 
L 158.802546 208.765392 
L 158.825479 208.970074 
L 158.798521 209.037868 
L 158.734782 209.128032 
L 158.476539 209.386363 
L 158.366963 209.458832 
L 157.651715 209.491708 
L 157.453217 209.419801 
L 156.898176 209.305047 
L 156.764068 209.40465 
L 156.611141 209.46765 
L 156.512218 209.48866 
L 156.414952 209.473716 
L 156.255603 209.369289 
L 156.051246 209.307591 
L 155.513308 209.270987 
L 155.174815 209.078556 
L 155.033339 208.978271 
L 154.969541 208.871861 
L 154.987473 208.77427 
L 154.962113 208.687508 
L 154.922846 208.626521 
L 154.809127 208.523543 
L 154.510582 208.377215 
L 154.198128 208.272965 
L 153.803352 208.079853 
L 153.419081 207.80723 
L 153.406831 207.767222 
L 153.48868 207.666257 
L 153.490337 207.631695 
L 153.467463 207.600506 
L 153.16729 207.40115 
L 152.952961 207.397037 
L 152.636395 207.115033 
L 152.025958 206.454854 
L 151.894988 206.19528 
L 151.911351 206.110531 
L 151.7001 205.821839 
L 151.475828 205.74869 
L 151.128008 205.549868 
L 150.879211 205.407651 
L 150.409096 204.933541 
L 150.308368 204.800943 
L 150.281824 204.704624 
L 150.247824 204.653017 
L 149.870714 204.299343 
L 149.675028 204.146298 
L 149.608536 204.107504 
L 149.521657 204.099396 
L 149.023696 203.798424 
L 148.845261 203.671833 
L 148.803538 203.54462 
L 148.622351 203.480644 
L 148.13747 203.40492 
L 147.875677 203.43682 
L 147.812056 203.486266 
L 147.787317 203.555954 
L 147.787673 203.599157 
L 147.747517 203.641709 
L 147.54896 203.8023 
L 147.372982 203.910752 
L 147.278083 203.93623 
L 146.950479 203.972893 
L 146.605197 203.962688 
L 146.519986 203.960169 
L 146.519986 198.460678 
L 146.519986 198.45763 
L 146.519909 190.055984 
L 146.519868 185.548744 
L 146.519754 178.456863 
L 146.519661 172.634768 
L 146.519537 164.886821 
L 146.519454 159.716383 
L 146.519247 146.577159 
L 146.419942 146.577235 
L 143.867433 146.579172 
L 141.168717 146.579201 
L 137.338968 146.578935 
L 137.327871 146.577574 
L 137.321154 146.57926 
L 136.939279 146.57784 
L 136.634757 146.584912 
L 136.634076 146.585504 
L 136.119841 146.583936 
L 136.119545 146.583521 
L 135.328276 146.584764 
L 135.327034 146.582634 
L 134.293828 146.584054 
L 134.291342 146.584794 
L 134.064467 146.583492 
L 134.063668 146.584705 
L 133.689902 146.584439 
L 133.479656 146.584261 
L 133.479627 146.583433 
L 131.077947 146.589321 
L 130.838643 146.587368 
L 130.83379 146.59083 
L 130.811982 146.589351 
L 130.811982 146.587842 
L 130.370185 146.587783 
L 129.424185 146.584942 
L 129.424185 146.584232 
L 129.268387 146.584823 
L 129.263653 146.58364 
L 128.996977 146.585238 
L 128.996829 146.584054 
L 128.995113 146.584054 
L 127.345996 146.584232 
L 127.346026 146.583285 
L 127.067277 146.583137 
L 127.067277 146.58364 
L 125.562122 146.582515 
L 125.562181 146.581568 
L 125.096564 146.581421 
L 125.096534 146.580769 
L 123.988374 146.580769 
L 123.988374 146.579645 
L 122.772916 146.579556 
L 122.772236 146.579556 
L 122.67568 146.579172 
L 122.675147 146.577988 
L 122.141677 146.579645 
L 122.141144 146.579645 
L 121.353901 146.577219 
L 121.092995 146.577603 
L 120.37029 146.577751 
L 120.367508 146.577751 
L 119.351377 146.579556 
L 118.832199 146.580118 
L 118.296749 146.58021 
L 117.618073 146.580326 
L 115.598682 146.581953 
L 115.38897 146.581273 
L 114.420214 146.590712 
L 98.477699 146.582308 
L 97.706819 146.580977 
L 97.596089 146.580977 
L 96.265166 146.5829 
L 95.950642 146.576568 
L 93.875679 146.576212 
L 93.840909 146.57642 
L 93.800162 146.576686 
L 93.759563 146.576952 
L 93.618975 146.57787 
L 92.483029 146.582101 
L 92.481046 146.57858 
L 89.413033 146.552776 
L 86.39195 146.550288 
L 83.736823 146.548101 
L 83.636686 146.558754 
L 82.541428 146.558694 
L 80.099357 146.547509 
L 79.9377 146.557422 
L 57.685695 146.556594 
L 57.681818 145.781571 
" clip-path="url(#pbe80d7b237)" style="fill: #0093dd"/>
   </g>
   <g id="PathCollection_1">
    <defs>
     <path id="m56ebfb5ab5" d="M 0 1.581139 
C 0.419323 1.581139 0.821528 1.41454 1.118034 1.118034 
C 1.41454 0.821528 1.581139 0.419323 1.581139 0 
C 1.581139 -0.419323 1.41454 -0.821528 1.118034 -1.118034 
C 0.821528 -1.41454 0.419323 -1.581139 0 -1.581139 
C -0.419323 -1.581139 -0.821528 -1.41454 -1.118034 -1.118034 
C -1.41454 -0.821528 -1.581139 -0.419323 -1.581139 0 
C -1.581139 0.419323 -1.41454 0.821528 -1.118034 1.118034 
C -0.821528 1.41454 -0.419323 1.581139 0 1.581139 
z
" style="stroke: #000000"/>
    </defs>
    <g clip-path="url(#pbe80d7b237)">
     <use xlink:href="#m56ebfb5ab5" x="220.410318" y="176.390126" style="stroke: #000000"/>
    </g>
   </g>
   <g id="text_1">
    <!-- Oklahoma City -->
    <g transform="translate(223.410318 173.390126) scale(0.1 -0.1)">
     <defs>
      <path id="DejaVuSans-4f" d="M 2522 4238 
Q 1834 4238 1429 3725 
Q 1025 3213 1025 2328 
Q 1025 1447 1429 934 
Q 1834 422 2522 422 
Q 3209 422 3611 934 
Q 4013 1447 4013 2328 
Q 4013 3213 3611 3725 
Q 3209 4238 2522 4238 
z
M 2522 4750 
Q 3503 4750 4090 4092 
Q 4678 3434 4678 2328 
Q 4678 1225 4090 567 
Q 3503 -91 2522 -91 
Q 1538 -91 948 565 
Q 359 1222 359 2328 
Q 359 3434 948 4092 
Q 1538 4750 2522 4750 
z
" transform="scale(0.015625)"/>
      <path id="DejaVuSans-6b" d="M 581 4863 
L 1159 4863 
L 1159 1991 
L 2875 3500 
L 3609 3500 
L 1753 1863 
L 3688 0 
L 2938 0 
L 1159 1709 
L 1159 0 
L 581 0 
L 581 4863 
z
" transform="scale(0.015625)"/>
      <path id="DejaVuSans-6c" d="M 603 4863 
L 1178 4863 
L 1178 0 
L 603 0 
L 603 4863 
z
" transform="scale(0.015625)"/>
      <path id="DejaVuSans-61" d="M 2194 1759 
Q 1497 1759 1228 1600 
Q 959 1441 959 1056 
Q 959 750 1161 570 
Q 1363 391 1709 391 
Q 2188 391 2477 730 
Q 2766 1069 2766 1631 
L 2766 1759 
L 2194 1759 
z
M 3341 1997 
L 3341 0 
L 2766 0 
L 2766 531 
Q 2569 213 2275 61 
Q 1981 -91 1556 -91 
Q 1019 -91 701 211 
Q 384 513 384 1019 
Q 384 1609 779 1909 
Q 1175 2209 1959 2209 
L 2766 2209 
L 2766 2266 
Q 2766 2663 2505 2880 
Q 2244 3097 1772 3097 
Q 1472 3097 1187 3025 
Q 903 2953 641 2809 
L 641 3341 
Q 956 3463 1253 3523 
Q 1550 3584 1831 3584 
Q 2591 3584 2966 3190 
Q 3341 2797 3341 1997 
z
" transform="scale(0.015625)"/>
      <path id="DejaVuSans-68" d="M 3513 2113 
L 3513 0 
L 2938 0 
L 2938 2094 
Q 2938 2591 2744 2837 
Q 2550 3084 2163 3084 
Q 1697 3084 1428 2787 
Q 1159 2491 1159 1978 
L 1159 0 
L 581 0 
L 581 4863 
L 1159 4863 
L 1159 2956 
Q 1366 3272 1645 3428 
Q 1925 3584 2291 3584 
Q 2894 3584 3203 3211 
Q 3513 2838 3513 2113 
z
" transform="scale(0.015625)"/>
      <path id="DejaVuSans-6f" d="M 1959 3097 
Q 1497 3097 1228 2736 
Q 959 2375 959 1747 
Q 959 1119 1226 758 
Q 1494 397 1959 397 
Q 2419 397 2687 759 
Q 2956 1122 2956 1747 
Q 2956 2369 2687 2733 
Q 2419 3097 1959 3097 
z
M 1959 3584 
Q 2709 3584 3137 3096 
Q 3566 2609 3566 1747 
Q 3566 888 3137 398 
Q 2709 -91 1959 -91 
Q 1206 -91 779 398 
Q 353 888 353 1747 
Q 353 2609 779 3096 
Q 1206 3584 1959 3584 
z
" transform="scale(0.015625)"/>
      <path id="DejaVuSans-6d" d="M 3328 2828 
Q 3544 3216 3844 3400 
Q 4144 3584 4550 3584 
Q 5097 3584 5394 3201 
Q 5691 2819 5691 2113 
L 5691 0 
L 5113 0 
L 5113 2094 
Q 5113 2597 4934 2840 
Q 4756 3084 4391 3084 
Q 3944 3084 3684 2787 
Q 3425 2491 3425 1978 
L 3425 0 
L 2847 0 
L 2847 2094 
Q 2847 2600 2669 2842 
Q 2491 3084 2119 3084 
Q 1678 3084 1418 2786 
Q 1159 2488 1159 1978 
L 1159 0 
L 581 0 
L 581 3500 
L 1159 3500 
L 1159 2956 
Q 1356 3278 1631 3431 
Q 1906 3584 2284 3584 
Q 2666 3584 2933 3390 
Q 3200 3197 3328 2828 
z
" transform="scale(0.015625)"/>
      <path id="DejaVuSans-20" transform="scale(0.015625)"/>
      <path id="DejaVuSans-43" d="M 4122 4306 
L 4122 3641 
Q 3803 3938 3442 4084 
Q 3081 4231 2675 4231 
Q 1875 4231 1450 3742 
Q 1025 3253 1025 2328 
Q 1025 1406 1450 917 
Q 1875 428 2675 428 
Q 3081 428 3442 575 
Q 3803 722 4122 1019 
L 4122 359 
Q 3791 134 3420 21 
Q 3050 -91 2638 -91 
Q 1578 -91 968 557 
Q 359 1206 359 2328 
Q 359 3453 968 4101 
Q 1578 4750 2638 4750 
Q 3056 4750 3426 4639 
Q 3797 4528 4122 4306 
z
" transform="scale(0.015625)"/>
      <path id="DejaVuSans-69" d="M 603 3500 
L 1178 3500 
L 1178 0 
L 603 0 
L 603 3500 
z
M 603 4863 
L 1178 4863 
L 1178 4134 
L 603 4134 
L 603 4863 
z
" transform="scale(0.015625)"/>
      <path id="DejaVuSans-74" d="M 1172 4494 
L 1172 3500 
L 2356 3500 
L 2356 3053 
L 1172 3053 
L 1172 1153 
Q 1172 725 1289 603 
Q 1406 481 1766 481 
L 2356 481 
L 2356 0 
L 1766 0 
Q 1100 0 847 248 
Q 594 497 594 1153 
L 594 3053 
L 172 3053 
L 172 3500 
L 594 3500 
L 594 4494 
L 1172 4494 
z
" transform="scale(0.015625)"/>
      <path id="DejaVuSans-79" d="M 2059 -325 
Q 1816 -950 1584 -1140 
Q 1353 -1331 966 -1331 
L 506 -1331 
L 506 -850 
L 844 -850 
Q 1081 -850 1212 -737 
Q 1344 -625 1503 -206 
L 1606 56 
L 191 3500 
L 800 3500 
L 1894 763 
L 2988 3500 
L 3597 3500 
L 2059 -325 
z
" transform="scale(0.015625)"/>
     </defs>
     <use xlink:href="#DejaVuSans-4f"/>
     <use xlink:href="#DejaVuSans-6b" x="78.710938"/>
     <use xlink:href="#DejaVuSans-6c" x="136.621094"/>
     <use xlink:href="#DejaVuSans-61" x="164.404297"/>
     <use xlink:href="#DejaVuSans-68" x="225.683594"/>
     <use xlink:href="#DejaVuSans-6f" x="289.0625"/>
     <use xlink:href="#DejaVuSans-6d" x="350.244141"/>
     <use xlink:href="#DejaVuSans-61" x="447.65625"/>
     <use xlink:href="#DejaVuSans-20" x="508.935547"/>
     <use xlink:href="#DejaVuSans-43" x="540.722656"/>
     <use xlink:href="#DejaVuSans-69" x="610.546875"/>
     <use xlink:href="#DejaVuSans-74" x="638.330078"/>
     <use xlink:href="#DejaVuSans-79" x="677.539062"/>
    </g>
   </g>
   <g id="text_2">
    <!-- Oklahoma -->
    <g transform="translate(153.96375 120.69822) scale(0.12 -0.12)">
     <use xlink:href="#DejaVuSans-4f"/>
     <use xlink:href="#DejaVuSans-6b" x="78.710938"/>
     <use xlink:href="#DejaVuSans-6c" x="136.621094"/>
     <use xlink:href="#DejaVuSans-61" x="164.404297"/>
     <use xlink:href="#DejaVuSans-68" x="225.683594"/>
     <use xlink:href="#DejaVuSans-6f" x="289.0625"/>
     <use xlink:href="#DejaVuSans-6d" x="350.244141"/>
     <use xlink:href="#DejaVuSans-61" x="447.65625"/>
    </g>
   </g>
  </g>
 </g>
 <defs>
  <clipPath id="pbe80d7b237">
   <rect x="45" y="126.69822" width="279" height="110.20356"/>
  </clipPath>
 </defs>
</svg>
