<?xml version="1.0" encoding="utf-8" standalone="no"?>
<!DOCTYPE svg PUBLIC "-//W3C//DTD SVG 1.1//EN"
  "http://www.w3.org/Graphics/SVG/1.1/DTD/svg11.dtd">
<svg xmlns:xlink="http://www.w3.org/1999/xlink" width="460.8pt" height="345.6pt" viewBox="0 0 460.8 345.6" xmlns="http://www.w3.org/2000/svg" version="1.1">
 <metadata>
  <rdf:RDF xmlns:dc="http://purl.org/dc/elements/1.1/" xmlns:cc="http://creativecommons.org/ns#" xmlns:rdf="http://www.w3.org/1999/02/22-rdf-syntax-ns#">
   <cc:Work>
    <dc:type rdf:resource="http://purl.org/dc/dcmitype/StillImage"/>
    <dc:date>2023-06-19T14:47:41.978183</dc:date>
    <dc:format>image/svg+xml</dc:format>
    <dc:creator>
     <cc:Agent>
      <dc:title>Matplotlib v3.7.1, https://matplotlib.org/</dc:title>
     </cc:Agent>
    </dc:creator>
   </cc:Work>
  </rdf:RDF>
 </metadata>
 <defs>
  <style type="text/css">*{stroke-linejoin: round; stroke-linecap: butt}</style>
 </defs>
 <g id="figure_1">
  <g id="patch_1">
   <path d="M 0 345.6 
L 460.8 345.6 
L 460.8 0 
L 0 0 
z
" style="fill: #ffffff"/>
  </g>
  <g id="axes_1">
   <g id="PatchCollection_1">
    <path d="M 73.832727 246.710074 
L 75.93182 242.407996 
L 76.702545 240.507139 
L 76.754787 240.348466 
L 77.437789 238.274011 
L 77.666603 237.77717 
L 78.498213 233.807083 
L 78.65723 232.349217 
L 78.56833 231.308954 
L 78.983252 230.700946 
L 79.881768 227.455571 
L 80.139599 225.990212 
L 80.127358 225.274056 
L 80.655021 222.687296 
L 80.396909 221.549007 
L 80.192338 221.060442 
L 79.934827 220.900458 
L 79.8381 220.690705 
L 80.447038 219.566955 
L 81.033219 218.840846 
L 81.824092 218.633163 
L 82.292555 218.151357 
L 82.295484 218.148344 
L 83.362089 216.076431 
L 84.490542 213.397516 
L 85.746265 209.713791 
L 86.632259 206.640591 
L 87.227353 203.632036 
L 87.856637 200.450629 
L 87.781984 200.10667 
L 88.047401 199.239645 
L 88.240855 198.311165 
L 89.246774 192.561678 
L 89.637929 189.496361 
L 89.974232 186.860896 
L 90.277778 184.214134 
L 90.6453 179.871291 
L 91.092451 176.03541 
L 90.955267 174.822638 
L 91.309183 172.262495 
L 91.412814 170.794563 
L 91.362764 170.325402 
L 91.548071 168.730758 
L 91.632717 167.030594 
L 91.600648 166.744177 
L 91.394953 166.625405 
L 91.351446 166.51804 
L 91.355509 166.428999 
L 91.381668 165.855679 
L 91.6277 164.892696 
L 91.667113 164.544936 
L 91.608194 164.286645 
L 91.82864 163.691444 
L 91.96817 163.314716 
L 92.308761 161.163956 
L 92.617805 158.635128 
L 92.709636 157.186433 
L 92.711723 155.136831 
L 92.616682 154.647204 
L 92.649914 153.853376 
L 92.939452 152.170716 
L 93.306131 147.874677 
L 93.230315 147.598492 
L 93.388369 147.069163 
L 93.396156 146.506673 
L 93.666148 145.032534 
L 93.595429 144.445663 
L 93.179985 143.654241 
L 93.460453 142.554704 
L 93.6342 140.62667 
L 93.343297 139.227855 
L 92.976136 138.739569 
L 93.032607 137.246306 
L 93.3264 135.39628 
L 93.470527 135.164663 
L 93.831908 135.002497 
L 94.046112 134.344106 
L 94.709072 131.503305 
L 94.996443 129.973024 
L 94.97469 129.505149 
L 95.0487 128.762376 
L 95.393505 126.912629 
L 95.820788 123.442132 
L 95.829257 123.373343 
L 95.817939 123.263183 
L 95.613167 123.313566 
L 95.283212 123.171419 
L 95.369103 122.335373 
L 95.517123 121.655286 
L 95.762191 121.218278 
L 95.810113 121.246461 
L 96.425552 120.697727 
L 96.991625 117.821753 
L 97.282127 114.704768 
L 97.092205 113.834276 
L 97.494846 110.287106 
L 97.443392 108.228836 
L 97.093008 107.11806 
L 96.861345 107.008235 
L 95.694 107.122366 
L 95.704516 106.958691 
L 96.819443 106.512233 
L 97.07298 106.117053 
L 97.38082 104.358342 
L 97.588362 101.86793 
L 97.447205 100.84271 
L 97.090841 99.813743 
L 96.946714 98.571221 
L 97.177493 98.360182 
L 97.356257 98.365215 
L 97.708327 97.415597 
L 98.110165 94.369182 
L 98.072199 94.332059 
L 97.742723 94.009902 
L 97.962065 93.200641 
L 98.453365 88.942516 
L 98.435585 86.321477 
L 98.288167 85.301737 
L 98.171532 84.954032 
L 97.267036 83.624835 
L 96.704535 83.356648 
L 96.733192 82.994851 
L 97.231074 82.207175 
L 97.235294 82.166522 
L 97.548748 79.146724 
L 97.500906 77.308496 
L 97.304483 75.19291 
L 96.828032 73.930146 
L 96.284636 73.457462 
L 96.258026 73.033092 
L 97.209722 71.763281 
L 97.713545 71.465233 
L 98.339942 71.398633 
L 98.514933 71.30659 
L 98.899432 69.502753 
L 98.841677 67.690192 
L 98.67969 66.029731 
L 98.111168 63.543625 
L 97.643227 62.115228 
L 97.043842 60.598535 
L 96.135091 58.630631 
L 95.590129 57.538867 
L 95.029796 57.21778 
L 95.549552 56.828192 
L 95.925101 56.767072 
L 96.083477 56.878295 
L 96.452162 57.335545 
L 97.091282 58.144806 
L 98.006134 58.624648 
L 98.933668 59.322518 
L 99.520972 60.002885 
L 99.850285 60.570855 
L 100.37261 60.82333 
L 101.832945 61.239144 
L 102.312646 61.06093 
L 102.365946 60.541162 
L 101.489946 59.84072 
L 101.357659 59.543007 
L 101.455349 59.439389 
L 102.475115 59.289302 
L 103.156096 59.396555 
L 104.2758 59.061599 
L 104.706535 58.93539 
L 105.161232 58.661387 
L 105.36199 58.503527 
L 105.505074 58.236793 
L 105.734609 58.126744 
L 106.208972 58.58584 
L 106.611814 58.783458 
L 106.930571 59.045998 
L 107.317558 59.469473 
L 108.309671 59.423452 
L 109.082362 58.954235 
L 109.034119 58.160296 
L 109.096289 57.991588 
L 109.380449 57.834455 
L 109.616567 57.942491 
L 110.284304 58.117182 
L 110.761275 58.117182 
L 111.276416 57.997627 
L 111.980877 57.469807 
L 112.613213 57.251443 
L 114.138809 56.155932 
L 114.160281 55.548428 
L 114.544259 55.464493 
L 115.013886 55.308255 
L 115.42339 55.154534 
L 116.023136 54.88327 
L 116.890106 54.988007 
L 117.082757 55.060702 
L 117.327624 55.245234 
L 118.176533 56.067189 
L 118.97776 57.212635 
L 118.848604 59.869966 
L 121.233222 61.852576 
L 121.541859 61.855216 
L 122.802445 61.865997 
L 124.05873 61.949875 
L 124.89628 61.938077 
L 126.057524 61.288912 
L 126.861722 60.746609 
L 127.589862 60.38923 
L 129.461788 59.470368 
L 131.489038 59.677548 
L 131.925834 60.102086 
L 134.091432 61.448449 
L 134.483437 61.853751 
L 134.783531 61.966428 
L 135.252034 62.258661 
L 135.762198 62.430164 
L 135.971024 62.554305 
L 137.638739 64.176293 
L 139.989162 65.355235 
L 140.777465 66.666761 
L 140.818211 66.924548 
L 141.033772 68.288358 
L 141.914106 69.22847 
L 142.657418 71.110091 
L 143.606224 72.219302 
L 143.919483 73.816798 
L 143.706082 74.9179 
L 144.244662 76.505554 
L 144.769034 77.435712 
L 144.749407 78.395451 
L 144.742143 78.74886 
L 144.33007 79.822059 
L 144.344439 80.662187 
L 145.390895 82.307158 
L 145.715231 83.504945 
L 145.73437 83.996364 
L 145.769133 84.888942 
L 145.68559 85.2153 
L 145.271331 86.833584 
L 145.19106 87.90723 
L 145.620551 89.210088 
L 145.676576 89.249571 
L 146.652077 89.937036 
L 147.64744 90.311694 
L 148.542505 91.02181 
L 149.184675 91.396468 
L 150.432933 91.860597 
L 152.090574 91.978027 
L 152.756844 92.139994 
L 152.94145 92.184871 
L 154.203744 92.564141 
L 154.27624 92.585923 
L 155.2588 92.984961 
L 155.993881 93.192048 
L 156.51942 93.340103 
L 157.038936 93.536939 
L 157.225807 93.618357 
L 158.059344 94.233019 
L 158.670088 94.441486 
L 159.792601 94.215125 
L 160.173209 94.021346 
L 160.551325 93.828836 
L 161.012885 93.750549 
L 162.116614 94.114023 
L 162.971503 95.299508 
L 164.440507 95.562327 
L 165.572332 95.545552 
L 165.735925 95.518711 
L 166.283053 95.327244 
L 166.286306 95.325672 
L 168.181188 94.410394 
L 168.903829 93.652411 
L 170.627454 93.271491 
L 171.077053 93.358892 
L 171.079381 93.357662 
L 171.211548 93.379694 
L 171.211548 93.377234 
L 171.767065 93.444784 
L 172.195753 93.326962 
L 174.495565 91.873067 
L 175.370642 91.557963 
L 176.128443 91.514402 
L 176.957324 91.129567 
L 177.087403 91.016219 
L 177.739607 90.571942 
L 178.053187 89.969414 
L 178.209555 89.891574 
L 178.879379 89.935303 
L 179.405964 89.656105 
L 179.958304 89.363251 
L 180.255669 88.937707 
L 180.215654 88.450819 
L 181.607879 87.189229 
L 183.849975 86.435216 
L 186.90831 87.146619 
L 188.021913 87.103561 
L 189.587042 86.529104 
L 191.079886 86.55287 
L 195.015626 85.329137 
L 195.393709 85.420783 
L 195.445639 85.43337 
L 196.378351 85.647596 
L 197.835434 86.736844 
L 198.703343 86.964074 
L 199.411039 87.149359 
L 200.288123 87.211037 
L 201.458678 86.639321 
L 202.855558 86.536542 
L 203.881907 86.817479 
L 204.88028 87.539171 
L 206.330782 88.021696 
L 207.751743 88.421629 
L 208.370314 89.618801 
L 208.57637 90.754853 
L 208.523271 91.471959 
L 209.033595 92.045018 
L 209.675324 92.064198 
L 210.57107 91.964215 
L 210.813931 91.736288 
L 211.116152 91.85931 
L 211.285867 91.70645 
L 211.507595 91.506741 
L 211.714213 91.392107 
L 211.593325 91.111561 
L 213.003329 89.72706 
L 213.828638 89.466701 
L 215.064334 89.553432 
L 216.113198 89.429347 
L 217.075289 89.701841 
L 217.296035 89.645866 
L 218.295453 89.232065 
L 218.660687 89.24884 
L 219.788538 90.093218 
L 219.791782 90.095667 
L 219.884863 90.165913 
L 220.603331 90.003748 
L 221.628114 88.980597 
L 222.204783 88.404462 
L 224.885923 87.582396 
L 227.482738 86.452831 
L 228.879498 85.927136 
L 229.702318 85.127493 
L 230.317784 84.730373 
L 231.062956 84.249563 
L 232.820977 84.21042 
L 234.093316 84.6689 
L 235.598442 86.262594 
L 236.244666 86.810601 
L 237.187893 87.123692 
L 240.334607 86.85528 
L 243.340885 86.195379 
L 244.962405 85.686516 
L 245.223286 85.625005 
L 248.08905 85.362129 
L 249.706556 83.349043 
L 250.874543 82.722693 
L 253.73228 82.051664 
L 256.501718 80.555829 
L 256.567815 80.523412 
L 257.92268 79.858909 
L 260.261905 79.648095 
L 261.518832 79.279979 
L 261.834778 79.211606 
L 261.840278 79.210416 
L 264.468359 78.563544 
L 265.661511 78.672698 
L 269.797487 78.041428 
L 271.663151 75.314143 
L 272.58001 74.534519 
L 273.742538 74.205994 
L 275.626986 75.148287 
L 277.104097 75.276789 
L 278.612113 74.659051 
L 279.338811 74.608922 
L 282.058158 74.421339 
L 283.739319 73.773908 
L 286.362543 73.396845 
L 287.623003 73.799519 
L 288.835701 74.071006 
L 289.880591 74.085936 
L 291.621514 73.792025 
L 292.941936 73.23921 
L 294.216604 72.356695 
L 295.59751 71.763561 
L 296.339939 71.196765 
L 297.197312 70.049275 
L 297.200005 70.045671 
L 299.041708 70.005465 
L 309.612308 69.985279 
L 310.381026 69.98416 
L 311.159055 69.981979 
L 311.223553 69.983321 
L 312.465175 69.987869 
L 313.544155 69.991821 
L 313.712564 69.997413 
L 313.966141 69.994338 
L 315.261438 69.990591 
L 316.870555 70.002893 
L 317.924958 70.002222 
L 320.612759 70.004573 
L 321.63333 70.005465 
L 322.057563 70.002781 
L 324.177045 70.012232 
L 325.439551 69.993555 
L 326.529555 70.013014 
L 326.683595 70.011896 
L 327.323598 70.014189 
L 327.630355 70.014021 
L 330.95812 69.998364 
L 331.560515 70.021906 
L 331.754049 70.021794 
L 336.94147 69.993563 
L 336.943024 69.993555 
L 337.715541 69.997107 
L 348.143231 70.045056 
L 352.73585 70.099676 
L 352.746346 70.099801 
L 356.692882 70.131675 
L 357.685436 70.156671 
L 357.692174 70.1567 
L 357.875799 70.157509 
L 357.884308 70.155384 
L 359.297283 70.114004 
L 361.272156 70.115961 
L 362.749549 70.241723 
L 363.402154 70.112383 
L 368.256036 70.129494 
L 368.344214 70.131507 
L 368.421194 70.131451 
L 374.14329 70.176801 
L 374.895552 70.213764 
L 377.521305 70.206774 
L 379.335475 70.245917 
L 380.326504 70.294064 
L 380.510325 70.657594 
L 381.251791 71.469315 
L 381.496297 72.351662 
L 381.943288 73.112665 
L 382.186148 74.298652 
L 382.31101 74.681195 
L 382.581886 75.223274 
L 382.68387 75.396903 
L 383.233889 76.061557 
L 383.777606 76.38969 
L 384.211914 76.6954 
L 384.414197 76.884798 
L 385.140291 77.951622 
L 385.204348 78.082045 
L 385.377091 78.433756 
L 385.471771 78.746008 
L 385.482688 78.973207 
L 385.426378 79.166855 
L 385.420638 79.34971 
L 385.450218 79.435994 
L 385.677105 79.802375 
L 386.450759 80.294239 
L 386.595769 80.317334 
L 386.776339 80.267342 
L 386.949324 80.184806 
L 387.180465 80.025045 
L 387.370427 79.853597 
L 387.539719 79.757472 
L 388.372172 79.724256 
L 388.520874 79.752551 
L 388.656212 79.816858 
L 389.072458 80.055353 
L 389.108059 80.095447 
L 389.51684 80.868025 
L 389.792492 81.579819 
L 390.386298 82.228033 
L 390.615673 82.338864 
L 391.148955 82.350104 
L 391.417904 82.268518 
L 391.571503 82.136102 
L 391.723296 82.061338 
L 392.806637 82.282834 
L 393.289709 82.421345 
L 393.915103 83.03707 
L 394.636661 83.727167 
L 394.8733 83.827878 
L 395.052426 83.864393 
L 395.150437 83.962978 
L 395.530521 84.728175 
L 395.589721 84.899119 
L 395.496767 85.978469 
L 395.561747 87.000614 
L 395.601842 87.275512 
L 395.887769 87.849298 
L 396.060793 88.063691 
L 396.527771 88.478331 
L 397.242828 89.291674 
L 397.508365 89.622156 
L 397.725057 90.173127 
L 397.927461 90.656771 
L 398.110881 91.013702 
L 398.234057 91.253036 
L 398.420407 91.399432 
L 398.487273 91.52251 
L 398.482015 92.249458 
L 397.747212 93.641116 
L 397.705993 93.690884 
L 397.412641 93.831185 
L 396.911869 94.272442 
L 396.073757 95.390712 
L 395.598391 96.594705 
L 395.263058 97.20344 
L 395.068841 97.41638 
L 394.876311 98.047036 
L 394.662348 99.049049 
L 394.662388 99.111231 
L 394.815826 99.518043 
L 394.821887 100.07002 
L 394.544349 100.166033 
L 394.454405 100.224412 
L 393.974222 100.652026 
L 393.756165 100.849867 
L 393.482721 101.188961 
L 393.313309 102.059285 
L 393.111387 102.874921 
L 392.244056 103.689102 
L 391.939988 104.257967 
L 390.871618 106.324345 
L 390.047192 107.978039 
L 390.012876 108.378923 
L 390.095315 109.291467 
L 390.112613 109.799491 
L 390.089736 110.121306 
L 390.019097 110.503457 
L 389.975189 110.586329 
L 389.757413 110.818225 
L 389.516037 110.978321 
L 389.508567 110.988149 
L 389.341006 111.208596 
L 389.154014 111.715223 
L 388.850589 112.549647 
L 388.619167 113.684469 
L 388.604036 113.808609 
L 388.652359 114.361481 
L 388.612625 114.604226 
L 388.023875 116.36646 
L 388.024557 116.846077 
L 387.841178 117.882985 
L 387.807062 118.01104 
L 387.742484 118.131657 
L 386.802227 119.583428 
L 385.991327 120.055161 
L 385.68449 120.600149 
L 385.642548 120.722332 
L 385.614172 121.028601 
L 385.633119 121.580089 
L 385.635605 121.652434 
L 385.088998 122.586562 
L 384.637592 123.124224 
L 383.973067 123.840659 
L 383.773111 123.981743 
L 383.323632 124.228346 
L 383.057533 124.692754 
L 383.0538 124.741627 
L 383.141697 124.923811 
L 383.18388 125.100404 
L 383.190743 125.876393 
L 383.131423 125.963459 
L 382.703938 126.834678 
L 382.641367 127.144302 
L 382.918583 128.202291 
L 382.945434 128.298919 
L 383.117054 128.667537 
L 383.548873 129.276384 
L 383.697857 129.702823 
L 383.690391 129.794195 
L 383.631954 129.928233 
L 383.437898 130.228798 
L 383.291764 130.71412 
L 383.133108 131.255025 
L 382.954465 131.910732 
L 382.877605 132.243227 
L 382.69254 132.623924 
L 382.359414 133.192621 
L 381.626537 133.882159 
L 381.118782 134.437883 
L 380.926955 134.81781 
L 380.73661 135.194803 
L 380.145533 136.336335 
L 379.840462 136.671794 
L 379.720055 136.873102 
L 379.615702 137.208617 
L 379.611689 137.320455 
L 379.639784 137.449069 
L 379.732056 137.644786 
L 379.736069 137.706297 
L 379.69192 137.857278 
L 379.575527 138.041811 
L 379.491242 138.09773 
L 379.001547 138.371733 
L 378.287133 138.528307 
L 378.122537 138.601002 
L 378.042265 138.673696 
L 377.845601 138.930924 
L 377.496421 139.244071 
L 377.275635 139.422956 
L 376.998699 139.57953 
L 376.71205 139.599549 
L 376.400718 139.553863 
L 375.41868 140.038234 
L 375.179993 140.208172 
L 374.455304 141.214547 
L 374.528311 141.520704 
L 374.474329 142.360273 
L 374.393054 142.529764 
L 374.056035 142.703449 
L 373.77914 143.169926 
L 373.721545 143.4753 
L 373.712835 143.618061 
L 373.293378 144.476642 
L 373.106948 144.704233 
L 373.069903 145.11535 
L 373.14307 145.415859 
L 373.012509 146.048975 
L 372.610751 146.8083 
L 372.348947 146.932832 
L 372.226332 147.198112 
L 372.117444 147.504604 
L 371.927001 148.669958 
L 371.94759 149.228254 
L 371.89722 149.355805 
L 371.577981 149.708822 
L 371.413305 149.834305 
L 371.236146 149.921874 
L 371.093585 150.079957 
L 371.004363 150.316607 
L 371.017247 150.441195 
L 371.218085 150.715589 
L 371.168678 151.363636 
L 370.964749 151.894643 
L 370.83776 152.137835 
L 370.49151 152.508914 
L 370.244515 152.605934 
L 369.666723 152.632272 
L 369.514087 152.839116 
L 369.338574 153.167697 
L 369.26348 153.363358 
L 369.275561 153.536819 
L 369.228803 153.733206 
L 369.155636 153.92266 
L 368.918033 154.362016 
L 368.568893 154.717997 
L 368.480113 154.734885 
L 368.270445 154.690093 
L 367.960116 154.825753 
L 367.921104 154.903369 
L 367.886748 155.068722 
L 367.893732 155.189842 
L 367.94643 155.376556 
L 368.062703 155.585582 
L 368.244637 156.206507 
L 368.302513 156.502654 
L 368.34008 156.822288 
L 368.322621 157.989207 
L 368.193665 158.352569 
L 367.905652 159.075882 
L 367.844686 159.195885 
L 367.529421 159.52659 
L 367.214757 159.701114 
L 367.20063 160.012806 
L 367.518102 160.970197 
L 367.806236 161.298889 
L 368.248812 161.735729 
L 368.502629 161.87329 
L 368.648121 162.01292 
L 369.034346 162.449089 
L 369.082107 162.507468 
L 369.338173 163.054189 
L 369.335243 163.142429 
L 369.266852 163.443609 
L 369.240483 163.499025 
L 368.794174 164.371698 
L 368.706799 164.440758 
L 368.317082 164.59023 
L 368.253467 164.639439 
L 368.211405 164.698489 
L 368.122402 165.021478 
L 368.122063 165.022708 
L 368.02646 165.157976 
L 368.018594 165.235424 
L 368.246283 165.751054 
L 369.001916 166.563502 
L 369.203317 166.72371 
L 370.117888 167.398821 
L 370.650969 167.477108 
L 371.199462 167.433939 
L 371.394963 167.37198 
L 371.577139 167.17056 
L 371.612458 167.099878 
L 371.635496 166.942801 
L 371.700756 166.808148 
L 372.096775 166.353414 
L 372.217944 166.277364 
L 372.474852 166.181072 
L 372.633147 166.175703 
L 372.772217 166.221725 
L 372.851124 166.285529 
L 373.000067 166.46816 
L 373.159044 166.722872 
L 373.198859 166.812063 
L 373.305017 167.31936 
L 373.362411 167.435504 
L 373.810044 167.902373 
L 374.254185 168.230897 
L 374.572541 168.609246 
L 374.686606 168.96545 
L 374.826278 169.065993 
L 374.945601 169.079749 
L 375.065807 169.028751 
L 375.127978 168.902206 
L 375.257616 168.299957 
L 375.515808 168.074603 
L 375.675869 167.972271 
L 375.848613 167.958515 
L 375.940162 167.979541 
L 376.142686 168.116095 
L 376.275535 168.153673 
L 376.914535 168.153953 
L 377.481651 168.148864 
L 377.921738 168.296099 
L 378.016579 168.456251 
L 378.080153 168.696871 
L 378.000404 169.241802 
L 378.010197 170.243592 
L 378.091512 170.845338 
L 378.268751 170.994921 
L 378.33943 171.020364 
L 379.058138 171.180405 
L 379.151855 171.15731 
L 379.341375 171.043627 
L 379.545706 171.029535 
L 379.949109 171.164747 
L 380.85778 171.840082 
L 380.964099 171.986366 
L 381.138528 172.298618 
L 381.205715 172.917978 
L 381.196645 173.034122 
L 381.131545 173.247677 
L 381.083301 173.342619 
L 379.856958 175.756039 
L 379.832154 175.87414 
L 379.615502 176.281622 
L 379.449701 176.454748 
L 379.237103 176.615962 
L 378.680141 176.745527 
L 378.270998 176.790653 
L 377.988042 176.938336 
L 377.863702 177.102235 
L 377.997554 178.874925 
L 378.030907 179.11191 
L 378.058239 179.148481 
L 378.710764 179.477453 
L 379.227912 179.882475 
L 379.469488 180.233032 
L 379.574443 180.544501 
L 379.584156 180.687486 
L 379.492647 181.282521 
L 379.236019 181.789819 
L 379.507938 182.346884 
L 379.435253 182.737423 
L 378.565273 182.830529 
L 378.209189 183.135176 
L 377.923705 183.334471 
L 378.16508 183.688159 
L 378.417534 183.639566 
L 378.591963 183.756828 
L 378.567801 183.899142 
L 378.509203 184.157656 
L 378.500614 184.522752 
L 378.352193 185.021662 
L 378.198714 185.275199 
L 378.253419 185.522081 
L 378.560376 185.753698 
L 378.555961 186.280512 
L 378.326185 186.509109 
L 377.77424 186.614684 
L 377.864465 187.142616 
L 377.900707 187.395314 
L 377.916962 187.716569 
L 377.770449 188.578804 
L 377.663184 189.210056 
L 377.639384 189.273245 
L 377.372161 189.463873 
L 377.299235 189.488309 
L 377.059384 189.431831 
L 376.992358 189.445084 
L 376.52241 189.5775 
L 376.108812 189.762313 
L 376.043311 190.017751 
L 376.174273 190.14547 
L 376.525179 190.277328 
L 376.645746 190.473883 
L 376.593369 190.692862 
L 376.43969 190.822706 
L 376.213566 190.747607 
L 375.945018 190.748166 
L 375.768301 190.875326 
L 375.634971 191.380555 
L 376.008393 191.728036 
L 376.076342 192.043867 
L 376.062357 192.085131 
L 375.885698 192.606357 
L 375.885016 196.753819 
L 375.87739 196.811415 
L 375.882046 197.822991 
L 375.878032 198.305126 
L 375.887624 199.602001 
L 375.886079 199.724882 
L 375.882367 200.020164 
L 375.884614 200.64299 
L 375.882848 202.472998 
L 375.874821 202.852073 
L 375.870968 203.06725 
L 375.873537 203.258381 
L 375.879477 203.646739 
L 375.880641 204.136423 
L 375.878072 204.223377 
L 375.875463 204.465171 
L 375.874139 204.599433 
L 375.880079 205.43587 
L 375.881203 205.500065 
L 375.884976 236.38965 
L 375.883731 236.403741 
L 375.90099 248.562169 
L 375.898983 248.577659 
L 375.897859 248.586327 
L 375.884454 258.771259 
L 375.889029 272.545301 
L 375.905966 273.739956 
L 375.903318 284.4087 
L 375.887464 286.262194 
L 375.907211 287.135147 
L 375.903237 293.720009 
L 375.312882 293.720009 
L 374.731076 293.720009 
L 374.200845 293.711901 
L 369.015924 293.692609 
L 368.223125 293.720177 
L 360.75541 293.75356 
L 359.1721 293.732926 
L 351.920836 293.799582 
L 351.830852 293.819992 
L 341.897526 293.806963 
L 328.904741 293.881895 
L 328.897508 293.881946 
L 316.711016 293.968513 
L 312.665185 294.055244 
L 308.868234 294.17273 
L 305.679057 294.122514 
L 305.624513 294.123689 
L 304.88666 294.139178 
L 296.642401 294.060947 
L 288.323971 294.095394 
L 287.376931 294.037517 
L 286.608053 294.058152 
L 283.672148 294.037876 
L 282.229719 294.027915 
L 282.22749 294.027899 
L 278.839201 293.966724 
L 267.555792 293.920982 
L 264.972784 293.851195 
L 262.612006 293.865902 
L 261.671668 293.854942 
L 261.102746 293.855165 
L 257.074012 293.933228 
L 256.581066 294.002624 
L 256.581187 294.019176 
L 256.50533 293.98568 
L 249.260649 294.016492 
L 245.051988 294.102048 
L 243.463379 294.098469 
L 243.361603 294.097932 
L 236.437076 294.061395 
L 230.573101 294.100594 
L 228.765151 294.067434 
L 228.696038 294.06749 
L 223.946468 294.039139 
L 221.249274 294.061619 
L 221.231455 294.061692 
L 214.999595 294.087229 
L 212.602254 294.012577 
L 211.351347 293.936975 
L 206.473946 293.878595 
L 206.334153 293.849741 
L 203.970887 293.847393 
L 202.991417 293.900907 
L 202.937275 293.908568 
L 202.745306 293.925232 
L 201.953189 293.899509 
L 201.31712 293.880161 
L 198.954095 293.880385 
L 198.768146 293.877141 
L 198.449865 293.872176 
L 195.531609 293.826647 
L 193.098789 293.788342 
L 189.306654 293.69423 
L 188.752341 293.681201 
L 188.114747 293.671024 
L 187.988159 293.668284 
L 182.428853 293.542186 
L 176.26374 293.492027 
L 172.18584 293.391428 
L 170.039146 293.298435 
L 169.988655 293.300951 
L 169.837264 293.286804 
L 169.801543 293.286804 
L 165.796048 293.30207 
L 164.656196 293.279702 
L 164.647064 293.27945 
L 161.097531 293.18162 
L 160.303206 293.224119 
L 156.163177 293.240782 
L 150.800896 293.442203 
L 147.66217 293.481402 
L 144.164832 293.486211 
L 141.111795 293.532289 
L 140.396859 293.568189 
L 138.484959 293.541347 
L 134.32462 293.543361 
L 133.505813 293.43717 
L 132.771291 293.409211 
L 130.282762 293.196774 
L 129.923588 293.264492 
L 128.420389 293.409323 
L 126.879141 293.498849 
L 126.865235 293.499635 
L 122.191299 293.763738 
L 120.818099 293.754791 
L 118.691152 293.622095 
L 116.120064 293.6845 
L 116.117415 293.687352 
L 115.992954 293.684388 
L 115.35435 293.664487 
L 115.059881 293.655311 
L 113.963577 293.700102 
L 111.074052 293.722973 
L 109.771892 293.985792 
L 107.185903 293.891109 
L 106.915921 293.881224 
L 104.462069 293.931327 
L 103.47084 293.988085 
L 103.170625 293.967003 
L 103.14763 293.965386 
L 102.659458 293.931047 
L 95.957611 293.92937 
L 92.527099 293.88894 
L 92.480301 293.88771 
L 91.98306 293.89045 
L 91.954765 293.884075 
L 90.940417 293.882062 
L 87.512393 293.799973 
L 87.40772 293.381754 
L 85.150051 291.166576 
L 84.471357 291.140686 
L 83.978692 290.820829 
L 83.391107 289.918966 
L 82.318643 288.517354 
L 81.707819 287.285848 
L 81.671977 287.114512 
L 81.896215 286.455786 
L 81.886221 286.16674 
L 81.729211 285.775362 
L 81.493735 285.67454 
L 81.31453 285.194978 
L 81.282261 284.853481 
L 81.420448 284.845764 
L 81.543704 284.639758 
L 81.51597 283.606373 
L 81.245376 283.183122 
L 81.02768 283.077043 
L 80.95648 282.914263 
L 80.905668 282.732414 
L 80.932238 282.036837 
L 80.843578 281.478261 
L 80.607942 281.011281 
L 79.510273 279.703502 
L 79.488118 279.503982 
L 79.609327 279.142018 
L 79.744424 278.162372 
L 79.52737 276.522601 
L 78.77555 275.162929 
L 78.85847 274.987678 
L 78.925416 274.03739 
L 78.985138 272.618835 
L 78.95315 271.602002 
L 78.824515 270.209226 
L 78.551031 269.393758 
L 78.542081 269.100351 
L 79.066533 267.922527 
L 79.024551 266.931306 
L 79.092902 266.21638 
L 79.988569 263.521584 
L 80.325748 262.030502 
L 80.353322 261.573923 
L 79.914198 260.301205 
L 79.974281 259.151453 
L 79.903803 258.641862 
L 79.424503 256.922798 
L 79.277807 256.718134 
L 77.914561 255.92386 
L 77.8847 255.812637 
L 78.045122 255.423831 
L 78.007755 255.134786 
L 76.986464 252.743574 
L 76.271448 252.233704 
L 75.998767 252.273518 
L 75.972719 252.411694 
L 75.535441 252.627542 
L 75.400947 252.609536 
L 75.34873 252.512349 
L 75.285838 251.571454 
L 74.956605 249.549365 
L 74.489667 248.185946 
L 74.164328 247.694809 
L 73.832727 246.710074 
" clip-path="url(#p89e1e6b1e1)" style="fill: #33ff57"/>
   </g>
   <g id="text_1">
    <!-- OR -->
    <g transform="translate(227.267812 36.918797) scale(0.12 -0.12)">
     <defs>
      <path id="DejaVuSans-4f" d="M 2522 4238 
Q 1834 4238 1429 3725 
Q 1025 3213 1025 2328 
Q 1025 1447 1429 934 
Q 1834 422 2522 422 
Q 3209 422 3611 934 
Q 4013 1447 4013 2328 
Q 4013 3213 3611 3725 
Q 3209 4238 2522 4238 
z
M 2522 4750 
Q 3503 4750 4090 4092 
Q 4678 3434 4678 2328 
Q 4678 1225 4090 567 
Q 3503 -91 2522 -91 
Q 1538 -91 948 565 
Q 359 1222 359 2328 
Q 359 3434 948 4092 
Q 1538 4750 2522 4750 
z
" transform="scale(0.015625)"/>
      <path id="DejaVuSans-52" d="M 2841 2188 
Q 3044 2119 3236 1894 
Q 3428 1669 3622 1275 
L 4263 0 
L 3584 0 
L 2988 1197 
Q 2756 1666 2539 1819 
Q 2322 1972 1947 1972 
L 1259 1972 
L 1259 0 
L 628 0 
L 628 4666 
L 2053 4666 
Q 2853 4666 3247 4331 
Q 3641 3997 3641 3322 
Q 3641 2881 3436 2590 
Q 3231 2300 2841 2188 
z
M 1259 4147 
L 1259 2491 
L 2053 2491 
Q 2509 2491 2742 2702 
Q 2975 2913 2975 3322 
Q 2975 3731 2742 3939 
Q 2509 4147 2053 4147 
L 1259 4147 
z
" transform="scale(0.015625)"/>
     </defs>
     <use xlink:href="#DejaVuSans-4f"/>
     <use xlink:href="#DejaVuSans-52" x="78.710938"/>
    </g>
   </g>
  </g>
 </g>
 <defs>
  <clipPath id="p89e1e6b1e1">
   <rect x="57.6" y="42.918797" width="357.12" height="263.218405"/>
  </clipPath>
 </defs>
</svg>
