<?xml version="1.0" encoding="utf-8" standalone="no"?>
<!DOCTYPE svg PUBLIC "-//W3C//DTD SVG 1.1//EN"
  "http://www.w3.org/Graphics/SVG/1.1/DTD/svg11.dtd">
<svg xmlns:xlink="http://www.w3.org/1999/xlink" width="360pt" height="360pt" viewBox="0 0 360 360" xmlns="http://www.w3.org/2000/svg" version="1.1">
 <metadata>
  <rdf:RDF xmlns:dc="http://purl.org/dc/elements/1.1/" xmlns:cc="http://creativecommons.org/ns#" xmlns:rdf="http://www.w3.org/1999/02/22-rdf-syntax-ns#">
   <cc:Work>
    <dc:type rdf:resource="http://purl.org/dc/dcmitype/StillImage"/>
    <dc:date>2023-06-19T15:20:26.225503</dc:date>
    <dc:format>image/svg+xml</dc:format>
    <dc:creator>
     <cc:Agent>
      <dc:title>Matplotlib v3.7.1, https://matplotlib.org/</dc:title>
     </cc:Agent>
    </dc:creator>
   </cc:Work>
  </rdf:RDF>
 </metadata>
 <defs>
  <style type="text/css">*{stroke-linejoin: round; stroke-linecap: butt}</style>
 </defs>
 <g id="figure_1">
  <g id="patch_1">
   <path d="M 0 360 
L 360 360 
L 360 0 
L 0 0 
z
" style="fill: #ffffff"/>
  </g>
  <g id="axes_1">
   <g id="PatchCollection_1">
    <path d="M 57.681818 222.275242 
L 59.321735 219.862903 
L 59.923863 218.79702 
L 59.964677 218.708046 
L 60.498273 217.544819 
L 60.677033 217.266222 
L 61.326729 215.040043 
L 61.450961 214.222562 
L 61.381508 213.639247 
L 61.705665 213.298313 
L 62.407631 211.478508 
L 62.609062 210.656825 
L 62.599498 210.255249 
L 63.011735 208.804754 
L 62.810085 208.166472 
L 62.650264 207.892515 
L 62.449084 207.802806 
L 62.373516 207.685189 
L 62.849249 207.05506 
L 63.307202 206.647903 
L 63.925071 206.531447 
L 64.291059 206.26128 
L 64.293347 206.259591 
L 65.126632 205.09779 
L 66.008236 203.59562 
L 66.98927 201.530015 
L 67.681452 199.806754 
L 68.146369 198.119743 
L 68.637997 196.335807 
L 68.579675 196.142936 
L 68.787032 195.656762 
L 68.938168 195.136128 
L 69.724042 191.912171 
L 70.029632 190.193331 
L 70.292369 188.715525 
L 70.529514 187.231385 
L 70.816641 184.796187 
L 71.165977 182.645263 
L 71.058803 181.965215 
L 71.335299 180.529645 
L 71.416261 179.70652 
L 71.37716 179.443443 
L 71.52193 178.549265 
L 71.58806 177.595919 
L 71.563006 177.435313 
L 71.402307 177.368713 
L 71.368317 177.30851 
L 71.371491 177.258581 
L 71.391928 176.937099 
L 71.58414 176.397118 
L 71.614932 176.202115 
L 71.568901 176.057282 
L 71.741125 175.72353 
L 71.850133 175.512284 
L 72.11622 174.306271 
L 72.35766 172.888261 
L 72.429403 172.075922 
L 72.431033 170.926632 
L 72.356782 170.652079 
L 72.382745 170.20695 
L 72.608947 169.263418 
L 72.895415 166.854465 
L 72.836184 166.699598 
L 72.959663 166.402783 
L 72.965747 166.087373 
L 73.176678 165.260767 
L 73.121429 164.931686 
L 72.796863 164.487906 
L 73.015979 163.871353 
L 73.151719 162.790231 
L 72.924451 162.005862 
L 72.637606 161.732062 
L 72.681724 160.894732 
L 72.91125 159.857352 
L 73.023849 159.727476 
L 73.306178 159.636543 
L 73.473525 159.267358 
L 73.991463 157.674413 
L 74.215971 156.816326 
L 74.198976 156.55397 
L 74.256797 156.137469 
L 74.526176 155.100246 
L 74.859991 153.154205 
L 74.866607 153.115633 
L 74.857765 153.053862 
L 74.697787 153.082113 
L 74.44001 153.002407 
L 74.507111 152.533604 
L 74.622752 152.152252 
L 74.814212 151.907206 
L 74.851651 151.923009 
L 75.332463 151.615313 
L 75.774707 150.002645 
L 76.001662 148.254832 
L 75.853285 147.766714 
L 76.167848 145.77768 
L 76.12765 144.62353 
L 75.853912 144.000676 
L 75.672926 143.939093 
L 74.760938 144.00309 
L 74.769153 143.911311 
L 75.64019 143.660965 
L 75.838266 143.439373 
L 76.078766 142.453196 
L 76.240908 141.056727 
L 76.130629 140.481847 
L 75.852219 139.904866 
L 75.73962 139.208137 
L 75.919917 139.0898 
L 76.059576 139.092622 
L 76.334631 138.560135 
L 76.648566 136.851894 
L 76.618905 136.831077 
L 76.361503 136.650432 
L 76.532863 136.196648 
L 76.916691 133.808955 
L 76.902801 132.339238 
L 76.78763 131.767431 
L 76.69651 131.57246 
L 75.989872 130.827129 
L 75.550418 130.676745 
L 75.572806 130.473872 
L 75.961777 130.032192 
L 75.965074 130.009397 
L 76.209959 128.316081 
L 76.172583 127.285316 
L 76.019127 126.099027 
L 75.6469 125.390946 
L 75.222372 125.125894 
L 75.201583 124.887934 
L 75.945096 124.175903 
L 76.338707 124.008776 
L 76.828079 123.971431 
L 76.964791 123.919819 
L 77.265181 122.908338 
L 77.22006 121.891966 
L 77.093507 120.960883 
L 76.64935 119.566828 
L 76.283771 118.765871 
L 75.815501 117.915404 
L 75.10554 116.811925 
L 74.679789 116.199731 
L 74.242028 116.019685 
L 74.648088 115.801228 
L 74.941485 115.766956 
L 75.065216 115.829323 
L 75.353252 116.085721 
L 75.852564 116.539504 
L 76.567292 116.80857 
L 77.291928 117.199892 
L 77.75076 117.5814 
L 78.008035 117.899883 
L 78.416102 118.041455 
L 79.556988 118.274618 
L 79.931755 118.174686 
L 79.973395 117.883233 
L 79.28902 117.490468 
L 79.185671 117.323529 
L 79.261991 117.265426 
L 80.058684 117.181267 
L 80.5907 117.241408 
L 81.465469 117.053585 
L 81.801981 116.982815 
L 82.157212 116.829171 
L 82.314055 116.740653 
L 82.425839 116.591085 
L 82.605164 116.529376 
L 82.97576 116.786809 
L 83.290479 116.897621 
L 83.539508 117.044837 
L 83.841843 117.282296 
L 84.61693 117.25649 
L 85.220595 116.993382 
L 85.182905 116.54819 
L 85.231476 116.453589 
L 85.453476 116.365479 
L 85.637943 116.426059 
L 86.159612 116.524015 
L 86.532246 116.524015 
L 86.9347 116.456976 
L 87.48506 116.161007 
L 87.979073 116.038562 
L 89.170944 115.424267 
L 89.18772 115.083616 
L 89.487702 115.036551 
L 89.854598 114.948942 
L 90.174523 114.862745 
L 90.643075 114.710637 
L 91.320395 114.769367 
L 91.470904 114.810129 
L 91.662206 114.913604 
L 92.325416 115.374505 
L 92.951375 116.016801 
L 92.850472 117.506867 
L 94.713455 118.618593 
L 94.954578 118.620073 
L 95.93941 118.626118 
L 96.920883 118.673152 
L 97.575219 118.666536 
L 98.482441 118.302524 
L 99.11072 117.998434 
L 99.67958 117.798038 
L 101.142022 117.282797 
L 102.725811 117.398971 
L 103.067058 117.637026 
L 104.758931 118.391983 
L 105.065185 118.619251 
L 105.299633 118.682433 
L 105.665652 118.846299 
L 106.064217 118.942468 
L 106.227362 119.012078 
L 107.530265 119.921589 
L 109.366533 120.582667 
L 109.982395 121.31809 
L 110.014227 121.462641 
L 110.182634 122.227381 
L 110.870396 122.754537 
L 111.451108 123.809634 
L 112.192363 124.431611 
L 112.437096 125.327388 
L 112.270376 125.944818 
L 112.691142 126.835076 
L 113.100808 127.356651 
L 113.085474 127.894814 
L 113.079799 128.092983 
L 112.757867 128.694767 
L 112.769093 129.165859 
L 113.586637 130.088257 
L 113.840024 130.759901 
L 113.854977 131.035459 
L 113.882135 131.535961 
L 113.816867 131.718963 
L 113.493227 132.626396 
L 113.430515 133.228431 
L 113.766056 133.958993 
L 113.809825 133.981132 
L 114.571935 134.36662 
L 115.349563 134.576705 
L 116.048832 134.974895 
L 116.550527 135.18498 
L 117.525729 135.445234 
L 118.820761 135.511082 
L 119.341284 135.601903 
L 119.485508 135.627067 
L 120.471675 135.839738 
L 120.528313 135.851952 
L 121.295938 136.075708 
L 121.870219 136.19183 
L 122.280797 136.27485 
L 122.686669 136.385223 
L 122.832662 136.430877 
L 123.483862 136.775542 
L 123.961006 136.892437 
L 124.83797 136.765508 
L 125.135319 136.656849 
L 125.430723 136.548901 
L 125.791316 136.505003 
L 126.653605 136.708816 
L 127.321487 137.373563 
L 128.469146 137.520936 
L 129.353384 137.511529 
L 129.481191 137.496478 
L 129.908635 137.389115 
L 129.911177 137.388234 
L 131.391553 136.875003 
L 131.956117 136.449973 
L 133.302698 136.236376 
L 133.653948 136.285386 
L 133.655766 136.284696 
L 133.759022 136.29705 
L 133.759022 136.29567 
L 134.193019 136.333548 
L 134.527932 136.267481 
L 136.32466 135.452226 
L 137.008314 135.275536 
L 137.600346 135.251109 
L 138.247909 135.035318 
L 138.349534 134.971759 
L 138.859068 134.722636 
L 139.104052 134.384776 
L 139.226215 134.341128 
L 139.749515 134.365648 
L 140.160909 134.209091 
L 140.592425 134.044877 
L 140.824742 133.806258 
L 140.79348 133.533242 
L 141.881155 132.82582 
L 143.632793 132.403016 
L 146.022117 132.801927 
L 146.892119 132.777783 
L 148.114876 132.455663 
L 149.281161 132.468989 
L 152.355958 131.782795 
L 152.651335 131.834185 
L 152.691905 131.841243 
L 153.420587 131.961368 
L 154.558933 132.57215 
L 155.236987 132.699567 
L 155.789874 132.803463 
L 156.475096 132.838049 
L 157.389592 132.517466 
L 158.480905 132.459833 
L 159.28274 132.617366 
L 160.062719 133.022046 
L 161.195923 133.292616 
L 162.30605 133.516874 
L 162.789308 134.188174 
L 162.950289 134.825201 
L 162.908805 135.22731 
L 163.307496 135.548646 
L 163.808847 135.559401 
L 164.508649 135.503337 
L 164.698384 135.37553 
L 164.934494 135.444513 
L 165.067084 135.358798 
L 165.240309 135.246814 
L 165.401729 135.182534 
L 165.307285 135.025221 
L 166.408851 134.248879 
L 167.053624 134.102885 
L 168.019011 134.151519 
L 168.838436 134.08194 
L 169.59007 134.234737 
L 169.762528 134.20335 
L 170.543322 133.971316 
L 170.828661 133.980723 
L 171.709795 134.454198 
L 171.71233 134.45557 
L 171.78505 134.49496 
L 172.346353 134.404028 
L 173.146964 133.830308 
L 173.597487 133.507248 
L 175.692127 133.046284 
L 177.720889 132.412893 
L 178.812108 132.118116 
L 179.454936 131.669726 
L 179.935769 131.447046 
L 180.517935 131.177437 
L 181.891388 131.155488 
L 182.885403 131.412576 
L 184.061283 132.30622 
L 184.566145 132.613509 
L 185.303042 132.789071 
L 187.761412 132.638562 
L 190.110067 132.268531 
L 191.376879 131.983191 
L 191.580693 131.9487 
L 193.819571 131.801295 
L 195.083247 130.672481 
L 195.995737 130.321263 
L 198.228344 129.944991 
L 200.391967 129.10622 
L 200.443605 129.088042 
L 201.502094 128.71543 
L 203.329613 128.597218 
L 204.311588 128.390802 
L 204.55842 128.352463 
L 204.562717 128.351795 
L 206.615905 127.98907 
L 207.548055 128.050276 
L 210.779287 127.696299 
L 212.236837 126.167006 
L 212.953133 125.729841 
L 213.861358 125.545625 
L 215.333583 126.074004 
L 216.487576 126.14606 
L 217.665713 125.799671 
L 218.233446 125.771562 
L 220.357936 125.666377 
L 221.671343 125.303338 
L 223.720737 125.091905 
L 224.705471 125.317699 
L 225.652891 125.469932 
L 226.469212 125.478304 
L 227.829308 125.313497 
L 228.860888 125.003512 
L 229.856722 124.508652 
L 230.935555 124.17606 
L 231.515577 123.858236 
L 232.1854 123.214794 
L 232.187504 123.212773 
L 233.626335 123.190228 
L 241.884616 123.178909 
L 242.485177 123.178282 
L 243.093012 123.177059 
L 243.143401 123.177811 
L 244.113418 123.180362 
L 244.956371 123.182578 
L 245.087941 123.185713 
L 245.286047 123.183989 
L 246.297998 123.181888 
L 247.555121 123.188786 
L 248.378874 123.18841 
L 250.478718 123.189728 
L 251.276039 123.190228 
L 251.607471 123.188723 
L 253.263317 123.194022 
L 254.24965 123.18355 
L 255.101215 123.194461 
L 255.221559 123.193834 
L 255.721561 123.19512 
L 255.961215 123.195026 
L 258.561031 123.186246 
L 259.031653 123.199447 
L 259.182851 123.199384 
L 263.235523 123.183554 
L 263.236737 123.18355 
L 263.840266 123.185541 
L 271.986899 123.212428 
L 275.574883 123.243056 
L 275.583083 123.243126 
L 278.666314 123.260999 
L 279.441747 123.275015 
L 279.447011 123.275032 
L 279.590468 123.275485 
L 279.597116 123.274294 
L 280.701002 123.25109 
L 282.243872 123.252188 
L 283.398085 123.322707 
L 283.907933 123.250181 
L 287.700028 123.259776 
L 287.768917 123.260905 
L 287.829058 123.260873 
L 292.299445 123.286303 
L 292.88715 123.307029 
L 294.93852 123.30311 
L 296.35584 123.325059 
L 297.130081 123.352057 
L 297.273692 123.555902 
L 297.852962 124.011065 
L 298.043982 124.50583 
L 298.393193 124.932554 
L 298.582928 125.597582 
L 298.680477 125.812088 
L 298.892098 126.116053 
L 298.971774 126.213413 
L 299.401476 126.58611 
L 299.826255 126.770107 
L 300.165558 126.94153 
L 300.323592 127.047732 
L 300.890852 127.645941 
L 300.940897 127.719075 
L 301.075852 127.916292 
L 301.149821 128.091384 
L 301.15835 128.218783 
L 301.114358 128.327369 
L 301.109874 128.429903 
L 301.132983 128.478285 
L 301.310238 128.683729 
L 301.914656 128.959536 
L 302.027945 128.972486 
L 302.169015 128.944454 
L 302.304159 128.898173 
L 302.484738 128.808589 
L 302.633146 128.712451 
L 302.765405 128.658551 
L 303.415759 128.639925 
L 303.531933 128.655791 
L 303.637665 128.691851 
L 303.962858 128.825584 
L 303.990671 128.848066 
L 304.310031 129.28128 
L 304.525384 129.68041 
L 304.989295 130.043888 
L 305.168495 130.106036 
L 305.585121 130.112338 
L 305.795238 130.06659 
L 305.915237 129.992339 
L 306.033825 129.950416 
L 306.880185 130.074617 
L 307.257585 130.152286 
L 307.746174 130.497546 
L 308.309891 130.88451 
L 308.494766 130.940982 
L 308.634708 130.961458 
L 308.711279 131.016738 
L 309.00822 131.445813 
L 309.05447 131.541668 
L 308.981849 132.146901 
L 309.032615 132.720056 
L 309.063939 132.874202 
L 309.287319 133.195946 
L 309.422495 133.316164 
L 309.787321 133.548669 
L 310.345959 134.004741 
L 310.55341 134.190055 
L 310.722701 134.499005 
L 310.880829 134.770203 
L 311.024126 134.970348 
L 311.120357 135.104552 
L 311.265943 135.186641 
L 311.318182 135.255656 
L 311.314074 135.663283 
L 310.740009 136.443639 
L 310.707807 136.471546 
L 310.478626 136.550218 
L 310.087398 136.797648 
L 309.432623 137.424704 
L 309.061243 138.099829 
L 308.799264 138.44117 
L 308.647532 138.560574 
L 308.497118 138.914206 
L 308.329959 139.476074 
L 308.32999 139.510941 
L 308.449864 139.739056 
L 308.454599 140.048571 
L 308.237773 140.102409 
L 308.167504 140.135145 
L 307.792361 140.374924 
L 307.622004 140.485861 
L 307.408376 140.676003 
L 307.276023 141.164028 
L 307.118271 141.621386 
L 306.440669 142.077928 
L 306.203116 142.396912 
L 305.368452 143.555609 
L 304.724369 144.482899 
L 304.69756 144.70769 
L 304.761965 145.219388 
L 304.775479 145.504256 
L 304.757606 145.68471 
L 304.70242 145.898997 
L 304.668116 145.945466 
L 304.497979 146.075499 
L 304.309404 146.165271 
L 304.303568 146.170782 
L 304.172661 146.294395 
L 304.026573 146.57848 
L 303.789522 147.046374 
L 303.608724 147.682712 
L 303.596903 147.752322 
L 303.634655 148.062338 
L 303.603613 148.198454 
L 303.143652 149.186606 
L 303.144185 149.455546 
L 303.00092 150.03698 
L 302.974267 150.108785 
L 302.923816 150.17642 
L 302.18924 150.990483 
L 301.555724 151.255002 
L 301.316008 151.560597 
L 301.283241 151.62911 
L 301.261072 151.800846 
L 301.275874 152.110087 
L 301.277816 152.150653 
L 300.850779 152.674455 
L 300.498119 152.975942 
L 299.978958 153.377675 
L 299.822743 153.456786 
L 299.471588 153.595066 
L 299.263698 153.855477 
L 299.260781 153.882882 
L 299.329451 153.98504 
L 299.362406 154.084062 
L 299.367768 154.519188 
L 299.321424 154.56801 
L 298.987452 155.056535 
L 298.938568 155.230153 
L 299.155143 155.823408 
L 299.17612 155.877591 
L 299.310198 156.08429 
L 299.647557 156.425693 
L 299.763951 156.664814 
L 299.758118 156.716049 
L 299.712464 156.79121 
L 299.560858 156.959748 
L 299.446691 157.231886 
L 299.322741 157.535192 
L 299.183175 157.902872 
L 299.123129 158.089315 
L 298.978546 158.302786 
L 298.718292 158.621676 
L 298.145732 159.008327 
L 297.749048 159.319942 
L 297.599184 159.532982 
L 297.450477 159.744376 
L 296.988697 160.384477 
L 296.750361 160.572581 
L 296.656293 160.685463 
L 296.574767 160.873598 
L 296.571632 160.93631 
L 296.593581 161.008429 
L 296.665668 161.118175 
L 296.668804 161.152666 
L 296.634312 161.237328 
L 296.54338 161.340802 
L 296.477533 161.372158 
L 296.094959 161.525802 
L 295.536823 161.613599 
L 295.408232 161.654362 
L 295.34552 161.695125 
L 295.191876 161.839362 
L 294.919079 162.014955 
L 294.74659 162.115263 
L 294.530234 162.20306 
L 294.306289 162.214285 
L 294.063061 162.188667 
L 293.295844 162.460273 
L 293.10937 162.555563 
L 292.543207 163.119877 
L 292.600243 163.29155 
L 292.558069 163.762329 
L 292.494573 163.857369 
L 292.231278 163.95476 
L 292.014953 164.216332 
L 291.969957 164.387567 
L 291.963153 164.467618 
L 291.635452 164.949058 
L 291.489803 165.076676 
L 291.460862 165.307205 
L 291.518024 165.475712 
L 291.416023 165.830724 
L 291.102149 166.256507 
L 290.897615 166.326337 
L 290.801822 166.475089 
L 290.716753 166.646951 
L 290.567969 167.30041 
L 290.584055 167.613467 
L 290.544703 167.68499 
L 290.295298 167.882941 
L 290.166645 167.953303 
L 290.028239 168.002407 
L 289.916863 168.09105 
L 289.847159 168.223748 
L 289.857224 168.29361 
L 290.014129 168.447473 
L 289.97553 168.810857 
L 289.81621 169.108614 
L 289.717 169.244981 
L 289.446492 169.453059 
L 289.253528 169.507461 
L 288.802127 169.52223 
L 288.682881 169.638216 
L 288.545761 169.822463 
L 288.487094 169.932178 
L 288.496532 170.029444 
L 288.460002 170.139566 
L 288.402841 170.2458 
L 288.217213 170.492164 
L 287.944448 170.691776 
L 287.875088 170.701245 
L 287.711285 170.676129 
L 287.468841 170.752199 
L 287.438363 170.795721 
L 287.411522 170.88844 
L 287.416978 170.956357 
L 287.458148 171.061055 
L 287.548986 171.178264 
L 287.691123 171.52644 
L 287.736338 171.692501 
L 287.765688 171.871732 
L 287.752048 172.526068 
L 287.651301 172.729819 
L 287.426291 173.135408 
L 287.378661 173.202698 
L 287.13236 173.388137 
L 286.886529 173.485999 
L 286.875492 173.660777 
L 287.123517 174.197623 
L 287.348622 174.381933 
L 287.694384 174.626886 
L 287.892679 174.704021 
L 288.006344 174.782317 
L 288.308083 175.026894 
L 288.345396 175.059629 
L 288.545447 175.366197 
L 288.543158 175.415676 
L 288.489728 175.584559 
L 288.469127 175.615633 
L 288.120449 176.104974 
L 288.052187 176.143699 
L 287.747721 176.227513 
L 287.698021 176.255107 
L 287.66516 176.288218 
L 287.595627 176.46933 
L 287.595362 176.47002 
L 287.520672 176.54587 
L 287.514526 176.589298 
L 287.692409 176.878432 
L 288.282747 177.334002 
L 288.440091 177.423837 
L 289.1546 177.802398 
L 289.571069 177.846296 
L 289.99958 177.822089 
L 290.152315 177.787347 
L 290.29464 177.674403 
L 290.322233 177.634769 
L 290.340231 177.54669 
L 290.391216 177.471185 
L 290.700605 177.216198 
L 290.795269 177.173554 
L 290.995978 177.119559 
L 291.119646 177.116549 
L 291.228295 177.142355 
L 291.28994 177.178132 
L 291.406302 177.28054 
L 291.530503 177.423367 
L 291.561608 177.47338 
L 291.644545 177.757841 
L 291.689384 177.822967 
L 292.039097 178.084758 
L 292.386082 178.268974 
L 292.634797 178.481129 
L 292.723911 178.680866 
L 292.83303 178.737244 
L 292.926251 178.744958 
L 293.020162 178.716361 
L 293.068732 178.645403 
L 293.170012 178.307699 
L 293.371725 178.181334 
L 293.496773 178.123953 
L 293.631729 178.116239 
L 293.703252 178.128029 
L 293.861474 178.204601 
L 293.965262 178.225672 
L 294.46448 178.225828 
L 294.90754 178.222975 
L 295.251358 178.305535 
L 295.325452 178.395339 
L 295.37512 178.530263 
L 295.312816 178.835827 
L 295.320466 179.397569 
L 295.383994 179.734991 
L 295.522462 179.818868 
L 295.577679 179.833135 
L 296.13917 179.922876 
L 296.212387 179.909926 
L 296.360449 179.846179 
L 296.520083 179.838277 
L 296.835241 179.914096 
L 297.54514 180.292782 
L 297.628202 180.374809 
L 297.764475 180.549901 
L 297.816965 180.897199 
L 297.809879 180.962326 
L 297.759019 181.082074 
L 297.721329 181.135312 
L 296.763248 182.488608 
L 296.74387 182.554832 
L 296.574611 182.783323 
L 296.445079 182.880401 
L 296.278987 182.9708 
L 295.84386 183.043452 
L 295.524217 183.068756 
L 295.303158 183.151567 
L 295.206017 183.243471 
L 295.310589 184.237487 
L 295.336646 184.370373 
L 295.358 184.39088 
L 295.867785 184.575347 
L 296.271806 184.802458 
L 296.460538 184.999029 
L 296.542534 185.173682 
L 296.550122 185.253859 
L 296.47863 185.587517 
L 296.27814 185.871979 
L 296.490577 186.184347 
L 296.433791 186.403337 
L 295.754119 186.455544 
L 295.475929 186.626372 
L 295.252894 186.738124 
L 295.441469 186.936451 
L 295.638698 186.909202 
L 295.774971 186.974956 
L 295.756095 187.054757 
L 295.710315 187.199715 
L 295.703605 187.404438 
L 295.587651 187.684196 
L 295.467745 187.826364 
L 295.510484 187.964801 
L 295.750294 188.094677 
L 295.746845 188.390082 
L 295.567332 188.518265 
L 295.136125 188.577465 
L 295.206613 188.873496 
L 295.234927 189.015194 
L 295.247627 189.195334 
L 295.133163 189.678822 
L 295.049363 190.032789 
L 295.030769 190.068221 
L 294.822001 190.175113 
L 294.765027 190.188816 
L 294.577644 190.157147 
L 294.525279 190.164578 
L 294.158132 190.238829 
L 293.835009 190.34246 
L 293.783836 190.485694 
L 293.886151 190.557311 
L 294.160296 190.631249 
L 294.254489 190.741465 
L 294.21357 190.864255 
L 294.093508 190.937063 
L 293.916848 190.894952 
L 293.707046 190.895266 
L 293.568985 190.966569 
L 293.464821 191.24987 
L 293.756557 191.444716 
L 293.809642 191.621815 
L 293.798716 191.644953 
L 293.660702 191.937224 
L 293.660169 194.262864 
L 293.654211 194.295161 
L 293.657848 194.86239 
L 293.654713 195.132741 
L 293.662207 195.859949 
L 293.661 195.928853 
L 293.658099 196.094428 
L 293.659855 196.443671 
L 293.658475 197.469826 
L 293.652204 197.682388 
L 293.649194 197.803046 
L 293.651201 197.910221 
L 293.655841 198.127988 
L 293.656751 198.402572 
L 293.654744 198.45133 
L 293.652706 198.586913 
L 293.651671 198.662199 
L 293.656312 199.131222 
L 293.65719 199.167218 
L 293.660137 216.488186 
L 293.659165 216.496088 
L 293.672648 223.313782 
L 293.67108 223.322468 
L 293.670202 223.327328 
L 293.65973 229.038408 
L 293.663304 236.762039 
L 293.676536 237.431928 
L 293.674467 243.414299 
L 293.662081 244.453624 
L 293.677508 244.943122 
L 293.674404 248.635505 
L 293.213189 248.635505 
L 292.758653 248.635505 
L 292.34441 248.630959 
L 288.29369 248.620141 
L 287.674316 248.635599 
L 281.840164 248.654319 
L 280.603203 248.642749 
L 274.938153 248.680125 
L 274.867853 248.69157 
L 267.107442 248.684264 
L 256.956829 248.726281 
L 256.951178 248.72631 
L 247.430481 248.774851 
L 244.269675 248.823484 
L 241.303308 248.889363 
L 238.811763 248.861205 
L 238.769151 248.861864 
L 238.192703 248.87055 
L 231.751876 248.826683 
L 225.253103 248.845998 
L 224.513227 248.813544 
L 223.912541 248.825115 
L 221.618866 248.813746 
L 220.491968 248.80816 
L 220.490227 248.808151 
L 217.843125 248.773848 
L 209.027962 248.748199 
L 207.009987 248.709066 
L 205.16563 248.717313 
L 204.430991 248.711167 
L 203.98652 248.711293 
L 200.839072 248.755066 
L 200.453958 248.793978 
L 200.454052 248.80326 
L 200.394789 248.784477 
L 194.734882 248.801755 
L 191.446865 248.849729 
L 190.205765 248.847722 
L 190.126252 248.847421 
L 184.716466 248.826933 
L 180.135235 248.848914 
L 178.722775 248.83032 
L 178.66878 248.830351 
L 174.958178 248.814454 
L 172.850995 248.827059 
L 172.837074 248.8271 
L 167.968434 248.84142 
L 166.095511 248.79956 
L 165.11824 248.757166 
L 161.30777 248.724431 
L 161.198557 248.708251 
L 159.352256 248.706934 
L 158.587045 248.736942 
L 158.544746 248.741238 
L 158.39477 248.750582 
L 157.775929 248.736158 
L 157.279 248.725309 
L 155.432886 248.725434 
L 155.287614 248.723616 
L 155.038957 248.720831 
L 152.75907 248.695301 
L 150.858429 248.673822 
L 147.895824 248.62105 
L 147.462766 248.613744 
L 146.964646 248.608037 
L 146.865749 248.606501 
L 142.522541 248.535793 
L 137.706047 248.507667 
L 134.520187 248.451258 
L 132.843083 248.399113 
L 132.803637 248.400524 
L 132.685362 248.392591 
L 132.657455 248.392591 
L 129.528162 248.401151 
L 128.637653 248.388609 
L 128.630519 248.388467 
L 125.857446 248.33361 
L 125.23688 248.357441 
L 122.002482 248.366785 
L 117.8132 248.479729 
L 115.36107 248.501709 
L 112.628775 248.504406 
L 110.24359 248.530243 
L 109.685046 248.550374 
L 108.191374 248.535323 
L 104.941109 248.536452 
L 104.301417 248.476907 
L 103.727571 248.461229 
L 101.783408 248.342108 
L 101.502803 248.38008 
L 100.328429 248.461292 
L 99.124329 248.511492 
L 99.113465 248.511933 
L 95.461953 248.660026 
L 94.38914 248.655009 
L 92.727462 248.580601 
L 90.7188 248.615594 
L 90.71673 248.617193 
L 90.619495 248.615532 
L 90.120586 248.604372 
L 89.890532 248.599226 
L 89.034044 248.624343 
L 86.776603 248.637167 
L 85.759291 248.78454 
L 83.738987 248.731448 
L 83.528063 248.725905 
L 81.610992 248.753999 
L 80.836594 248.785826 
L 80.602051 248.774005 
L 80.584086 248.773098 
L 80.202702 248.753843 
L 74.966884 248.752902 
L 72.286796 248.730232 
L 72.250235 248.729542 
L 71.861766 248.731078 
L 71.83966 248.727504 
L 71.047201 248.726375 
L 68.369057 248.680344 
L 68.287281 248.445833 
L 66.523477 247.203698 
L 65.993248 247.18918 
L 65.608353 247.009824 
L 65.149302 246.504115 
L 64.31144 245.718178 
L 63.834233 245.027626 
L 63.806232 244.931551 
L 63.981418 244.562178 
L 63.973611 244.400099 
L 63.850946 244.180639 
L 63.666981 244.124104 
L 63.526976 243.855196 
L 63.501766 243.663705 
L 63.609725 243.659378 
L 63.706019 243.543862 
L 63.684352 242.964404 
L 63.47295 242.727071 
L 63.302875 242.667589 
L 63.24725 242.576311 
L 63.207553 242.474342 
L 63.228311 242.084305 
L 63.159045 241.77109 
L 62.974955 241.509237 
L 62.117401 240.775915 
L 62.100092 240.664037 
L 62.194787 240.46107 
L 62.300331 239.911745 
L 62.130758 238.992263 
L 61.543398 238.229843 
L 61.60818 238.131573 
L 61.660482 237.59871 
L 61.707139 236.803272 
L 61.682149 236.233095 
L 61.581653 235.452113 
L 61.367993 234.994849 
L 61.361001 234.830324 
L 61.770729 234.169873 
L 61.737931 233.614058 
L 61.79133 233.213172 
L 62.491069 231.702097 
L 62.754491 230.86599 
L 62.776032 230.609969 
L 62.432967 229.896307 
L 62.479907 229.251597 
L 62.424846 228.965851 
L 62.050393 228.001906 
L 61.935787 227.887143 
L 60.87075 227.441763 
L 60.847422 227.379396 
L 60.972751 227.161378 
L 60.943559 226.999299 
L 60.145675 225.658456 
L 59.587069 225.372552 
L 59.374036 225.394877 
L 59.353686 225.472358 
L 59.012063 225.593392 
L 58.90699 225.583295 
L 58.866195 225.528799 
L 58.817061 225.001203 
L 58.559848 223.867341 
L 58.195052 223.10282 
L 57.940881 222.82742 
L 57.681818 222.275242 
" clip-path="url(#p7f20b20da3)" style="fill: #0000dd"/>
   </g>
   <g id="PathCollection_1">
    <defs>
     <path id="m1bff9089b7" d="M 0 1.581139 
C 0.419323 1.581139 0.821528 1.41454 1.118034 1.118034 
C 1.41454 0.821528 1.581139 0.419323 1.581139 0 
C 1.581139 -0.419323 1.41454 -0.821528 1.118034 -1.118034 
C 0.821528 -1.41454 0.419323 -1.581139 0 -1.581139 
C -0.419323 -1.581139 -0.821528 -1.41454 -1.118034 -1.118034 
C -1.41454 -0.821528 -1.581139 -0.419323 -1.581139 0 
C -1.581139 0.419323 -1.41454 0.821528 -1.118034 1.118034 
C -0.821528 1.41454 -0.419323 1.581139 0 1.581139 
z
" style="stroke: #000000"/>
    </defs>
    <g clip-path="url(#p7f20b20da3)">
     <use xlink:href="#m1bff9089b7" x="105.406777" y="156.493798" style="stroke: #000000"/>
    </g>
   </g>
   <g id="text_1">
    <!-- Salem -->
    <g transform="translate(108.406777 153.493798) scale(0.1 -0.1)">
     <defs>
      <path id="DejaVuSans-53" d="M 3425 4513 
L 3425 3897 
Q 3066 4069 2747 4153 
Q 2428 4238 2131 4238 
Q 1616 4238 1336 4038 
Q 1056 3838 1056 3469 
Q 1056 3159 1242 3001 
Q 1428 2844 1947 2747 
L 2328 2669 
Q 3034 2534 3370 2195 
Q 3706 1856 3706 1288 
Q 3706 609 3251 259 
Q 2797 -91 1919 -91 
Q 1588 -91 1214 -16 
Q 841 59 441 206 
L 441 856 
Q 825 641 1194 531 
Q 1563 422 1919 422 
Q 2459 422 2753 634 
Q 3047 847 3047 1241 
Q 3047 1584 2836 1778 
Q 2625 1972 2144 2069 
L 1759 2144 
Q 1053 2284 737 2584 
Q 422 2884 422 3419 
Q 422 4038 858 4394 
Q 1294 4750 2059 4750 
Q 2388 4750 2728 4690 
Q 3069 4631 3425 4513 
z
" transform="scale(0.015625)"/>
      <path id="DejaVuSans-61" d="M 2194 1759 
Q 1497 1759 1228 1600 
Q 959 1441 959 1056 
Q 959 750 1161 570 
Q 1363 391 1709 391 
Q 2188 391 2477 730 
Q 2766 1069 2766 1631 
L 2766 1759 
L 2194 1759 
z
M 3341 1997 
L 3341 0 
L 2766 0 
L 2766 531 
Q 2569 213 2275 61 
Q 1981 -91 1556 -91 
Q 1019 -91 701 211 
Q 384 513 384 1019 
Q 384 1609 779 1909 
Q 1175 2209 1959 2209 
L 2766 2209 
L 2766 2266 
Q 2766 2663 2505 2880 
Q 2244 3097 1772 3097 
Q 1472 3097 1187 3025 
Q 903 2953 641 2809 
L 641 3341 
Q 956 3463 1253 3523 
Q 1550 3584 1831 3584 
Q 2591 3584 2966 3190 
Q 3341 2797 3341 1997 
z
" transform="scale(0.015625)"/>
      <path id="DejaVuSans-6c" d="M 603 4863 
L 1178 4863 
L 1178 0 
L 603 0 
L 603 4863 
z
" transform="scale(0.015625)"/>
      <path id="DejaVuSans-65" d="M 3597 1894 
L 3597 1613 
L 953 1613 
Q 991 1019 1311 708 
Q 1631 397 2203 397 
Q 2534 397 2845 478 
Q 3156 559 3463 722 
L 3463 178 
Q 3153 47 2828 -22 
Q 2503 -91 2169 -91 
Q 1331 -91 842 396 
Q 353 884 353 1716 
Q 353 2575 817 3079 
Q 1281 3584 2069 3584 
Q 2775 3584 3186 3129 
Q 3597 2675 3597 1894 
z
M 3022 2063 
Q 3016 2534 2758 2815 
Q 2500 3097 2075 3097 
Q 1594 3097 1305 2825 
Q 1016 2553 972 2059 
L 3022 2063 
z
" transform="scale(0.015625)"/>
      <path id="DejaVuSans-6d" d="M 3328 2828 
Q 3544 3216 3844 3400 
Q 4144 3584 4550 3584 
Q 5097 3584 5394 3201 
Q 5691 2819 5691 2113 
L 5691 0 
L 5113 0 
L 5113 2094 
Q 5113 2597 4934 2840 
Q 4756 3084 4391 3084 
Q 3944 3084 3684 2787 
Q 3425 2491 3425 1978 
L 3425 0 
L 2847 0 
L 2847 2094 
Q 2847 2600 2669 2842 
Q 2491 3084 2119 3084 
Q 1678 3084 1418 2786 
Q 1159 2488 1159 1978 
L 1159 0 
L 581 0 
L 581 3500 
L 1159 3500 
L 1159 2956 
Q 1356 3278 1631 3431 
Q 1906 3584 2284 3584 
Q 2666 3584 2933 3390 
Q 3200 3197 3328 2828 
z
" transform="scale(0.015625)"/>
     </defs>
     <use xlink:href="#DejaVuSans-53"/>
     <use xlink:href="#DejaVuSans-61" x="63.476562"/>
     <use xlink:href="#DejaVuSans-6c" x="124.755859"/>
     <use xlink:href="#DejaVuSans-65" x="152.539062"/>
     <use xlink:href="#DejaVuSans-6d" x="214.0625"/>
    </g>
   </g>
   <g id="text_2">
    <!-- Oregon -->
    <g transform="translate(162.470625 102.001701) scale(0.12 -0.12)">
     <defs>
      <path id="DejaVuSans-4f" d="M 2522 4238 
Q 1834 4238 1429 3725 
Q 1025 3213 1025 2328 
Q 1025 1447 1429 934 
Q 1834 422 2522 422 
Q 3209 422 3611 934 
Q 4013 1447 4013 2328 
Q 4013 3213 3611 3725 
Q 3209 4238 2522 4238 
z
M 2522 4750 
Q 3503 4750 4090 4092 
Q 4678 3434 4678 2328 
Q 4678 1225 4090 567 
Q 3503 -91 2522 -91 
Q 1538 -91 948 565 
Q 359 1222 359 2328 
Q 359 3434 948 4092 
Q 1538 4750 2522 4750 
z
" transform="scale(0.015625)"/>
      <path id="DejaVuSans-72" d="M 2631 2963 
Q 2534 3019 2420 3045 
Q 2306 3072 2169 3072 
Q 1681 3072 1420 2755 
Q 1159 2438 1159 1844 
L 1159 0 
L 581 0 
L 581 3500 
L 1159 3500 
L 1159 2956 
Q 1341 3275 1631 3429 
Q 1922 3584 2338 3584 
Q 2397 3584 2469 3576 
Q 2541 3569 2628 3553 
L 2631 2963 
z
" transform="scale(0.015625)"/>
      <path id="DejaVuSans-67" d="M 2906 1791 
Q 2906 2416 2648 2759 
Q 2391 3103 1925 3103 
Q 1463 3103 1205 2759 
Q 947 2416 947 1791 
Q 947 1169 1205 825 
Q 1463 481 1925 481 
Q 2391 481 2648 825 
Q 2906 1169 2906 1791 
z
M 3481 434 
Q 3481 -459 3084 -895 
Q 2688 -1331 1869 -1331 
Q 1566 -1331 1297 -1286 
Q 1028 -1241 775 -1147 
L 775 -588 
Q 1028 -725 1275 -790 
Q 1522 -856 1778 -856 
Q 2344 -856 2625 -561 
Q 2906 -266 2906 331 
L 2906 616 
Q 2728 306 2450 153 
Q 2172 0 1784 0 
Q 1141 0 747 490 
Q 353 981 353 1791 
Q 353 2603 747 3093 
Q 1141 3584 1784 3584 
Q 2172 3584 2450 3431 
Q 2728 3278 2906 2969 
L 2906 3500 
L 3481 3500 
L 3481 434 
z
" transform="scale(0.015625)"/>
      <path id="DejaVuSans-6f" d="M 1959 3097 
Q 1497 3097 1228 2736 
Q 959 2375 959 1747 
Q 959 1119 1226 758 
Q 1494 397 1959 397 
Q 2419 397 2687 759 
Q 2956 1122 2956 1747 
Q 2956 2369 2687 2733 
Q 2419 3097 1959 3097 
z
M 1959 3584 
Q 2709 3584 3137 3096 
Q 3566 2609 3566 1747 
Q 3566 888 3137 398 
Q 2709 -91 1959 -91 
Q 1206 -91 779 398 
Q 353 888 353 1747 
Q 353 2609 779 3096 
Q 1206 3584 1959 3584 
z
" transform="scale(0.015625)"/>
      <path id="DejaVuSans-6e" d="M 3513 2113 
L 3513 0 
L 2938 0 
L 2938 2094 
Q 2938 2591 2744 2837 
Q 2550 3084 2163 3084 
Q 1697 3084 1428 2787 
Q 1159 2491 1159 1978 
L 1159 0 
L 581 0 
L 581 3500 
L 1159 3500 
L 1159 2956 
Q 1366 3272 1645 3428 
Q 1925 3584 2291 3584 
Q 2894 3584 3203 3211 
Q 3513 2838 3513 2113 
z
" transform="scale(0.015625)"/>
     </defs>
     <use xlink:href="#DejaVuSans-4f"/>
     <use xlink:href="#DejaVuSans-72" x="78.710938"/>
     <use xlink:href="#DejaVuSans-65" x="117.574219"/>
     <use xlink:href="#DejaVuSans-67" x="179.097656"/>
     <use xlink:href="#DejaVuSans-6f" x="242.574219"/>
     <use xlink:href="#DejaVuSans-6e" x="303.755859"/>
    </g>
   </g>
  </g>
 </g>
 <defs>
  <clipPath id="p7f20b20da3">
   <rect x="45" y="108.001701" width="279" height="147.596599"/>
  </clipPath>
 </defs>
</svg>
