<?xml version="1.0" encoding="utf-8" standalone="no"?>
<!DOCTYPE svg PUBLIC "-//W3C//DTD SVG 1.1//EN"
  "http://www.w3.org/Graphics/SVG/1.1/DTD/svg11.dtd">
<svg xmlns:xlink="http://www.w3.org/1999/xlink" width="460.8pt" height="345.6pt" viewBox="0 0 460.8 345.6" xmlns="http://www.w3.org/2000/svg" version="1.1">
 <metadata>
  <rdf:RDF xmlns:dc="http://purl.org/dc/elements/1.1/" xmlns:cc="http://creativecommons.org/ns#" xmlns:rdf="http://www.w3.org/1999/02/22-rdf-syntax-ns#">
   <cc:Work>
    <dc:type rdf:resource="http://purl.org/dc/dcmitype/StillImage"/>
    <dc:date>2023-06-19T14:47:42.246411</dc:date>
    <dc:format>image/svg+xml</dc:format>
    <dc:creator>
     <cc:Agent>
      <dc:title>Matplotlib v3.7.1, https://matplotlib.org/</dc:title>
     </cc:Agent>
    </dc:creator>
   </cc:Work>
  </rdf:RDF>
 </metadata>
 <defs>
  <style type="text/css">*{stroke-linejoin: round; stroke-linecap: butt}</style>
 </defs>
 <g id="figure_1">
  <g id="patch_1">
   <path d="M 0 345.6 
L 460.8 345.6 
L 460.8 0 
L 0 0 
z
" style="fill: #ffffff"/>
  </g>
  <g id="axes_1">
   <g id="PatchCollection_1">
    <path d="M 73.832727 181.042373 
L 73.877274 179.980007 
L 73.882338 175.087292 
L 73.882954 174.492293 
L 73.886406 173.021062 
L 73.884568 169.615661 
L 73.88635 168.921581 
L 73.884568 168.854298 
L 73.882397 168.622053 
L 73.877441 168.101198 
L 73.877218 167.46791 
L 73.875381 166.718277 
L 73.87165 166.38341 
L 73.882787 165.60139 
L 73.879223 164.930108 
L 73.881673 164.930108 
L 73.881673 164.927455 
L 73.881673 164.925755 
L 73.873042 164.318804 
L 73.873053 164.315483 
L 73.875938 163.42044 
L 73.874323 161.525665 
L 73.891807 158.72146 
L 73.888299 157.973155 
L 73.888299 156.999319 
L 73.899436 155.796853 
L 73.888299 154.594313 
L 73.882731 154.372986 
L 73.882564 154.362289 
L 73.893812 151.617178 
L 73.875158 151.108201 
L 73.867585 149.552498 
L 73.86758 149.551571 
L 73.866694 149.370789 
L 73.866694 149.283217 
L 73.866694 149.281078 
L 73.865024 149.142528 
L 73.866026 149.14238 
L 73.866026 149.098115 
L 73.86313 149.061891 
L 73.86313 149.017995 
L 73.868476 147.52109 
L 73.870258 146.711331 
L 73.868476 146.201395 
L 73.880949 143.43334 
L 73.882731 143.433413 
L 73.882731 142.878843 
L 73.882731 142.030426 
L 73.880823 141.640806 
L 73.872931 140.029119 
L 73.870723 138.079095 
L 73.869812 137.274121 
L 73.873599 135.146068 
L 73.863464 134.36936 
L 73.862658 126.623822 
L 73.862462 124.743876 
L 73.858731 124.63609 
L 73.861571 122.404751 
L 73.859622 119.609694 
L 73.861794 118.64117 
L 73.869033 117.707836 
L 73.865995 111.479341 
L 73.86313 105.606447 
L 73.865413 104.5128 
L 73.859789 102.139738 
L 73.858676 102.039035 
L 78.534625 99.96683 
L 79.964294 99.526611 
L 82.008428 98.602647 
L 82.075081 98.612681 
L 82.55496 98.317063 
L 83.339092 98.149592 
L 84.407822 97.712473 
L 86.140024 96.820666 
L 86.25751 96.760179 
L 89.947754 94.62947 
L 90.166675 94.517967 
L 92.308782 93.42693 
L 93.545007 92.571135 
L 94.20207 91.914533 
L 95.197186 89.319112 
L 95.519203 88.847392 
L 96.246538 88.1089 
L 97.853335 87.604054 
L 98.472756 87.745851 
L 98.695879 87.937962 
L 98.325753 88.309274 
L 98.773836 88.919249 
L 98.415122 89.191827 
L 98.39519 89.206974 
L 98.534398 89.472565 
L 98.773892 89.605361 
L 99.38084 89.693892 
L 101.607109 88.373062 
L 103.384135 87.318764 
L 106.606083 85.128666 
L 107.018139 85.068982 
L 108.291839 84.393567 
L 109.11946 83.786248 
L 110.133342 83.338726 
L 111.431765 83.007695 
L 114.005113 81.498766 
L 116.037331 80.471738 
L 116.036607 81.837026 
L 116.026139 82.449363 
L 116.043902 86.833617 
L 116.038556 87.12385 
L 116.039001 87.594094 
L 116.048022 88.37936 
L 116.042342 89.261936 
L 116.027809 90.698049 
L 116.050806 91.602241 
L 116.04585 98.975951 
L 116.055762 100.376357 
L 116.072857 100.468724 
L 121.150339 100.429844 
L 123.647234 100.454338 
L 123.646454 100.449542 
L 124.451755 100.455345 
L 127.762342 100.4792 
L 128.482884 100.489455 
L 130.011573 100.497805 
L 132.156478 100.509522 
L 144.55715 100.468798 
L 148.521913 100.42077 
L 155.053843 100.435451 
L 159.408277 100.458322 
L 162.983706 100.519118 
L 165.439113 100.56087 
L 172.399805 100.520293 
L 180.925141 100.389858 
L 196.990999 100.423942 
L 199.04705 100.45692 
L 202.644176 100.408635 
L 207.203206 100.347437 
L 212.412546 100.423942 
L 212.424463 100.425639 
L 214.287347 100.472413 
L 223.501709 100.489676 
L 224.015722 100.487979 
L 228.073253 100.470642 
L 235.863526 100.416297 
L 241.69467 100.375619 
L 244.408109 100.381995 
L 262.888571 100.425418 
L 266.286199 100.346773 
L 269.406747 100.318222 
L 269.41226 100.320362 
L 271.740269 100.286827 
L 271.742606 100.286794 
L 273.028946 100.264661 
L 273.33526 100.257284 
L 273.892093 100.257284 
L 274.181646 100.257284 
L 274.242898 100.249906 
L 279.015235 100.24998 
L 280.08441 100.257357 
L 283.770812 100.256177 
L 289.98348 100.322093 
L 294.437339 100.369348 
L 294.464839 100.369798 
L 299.175295 100.446806 
L 299.536705 100.452715 
L 299.780876 100.459428 
L 306.031717 100.498087 
L 306.375617 100.502808 
L 317.412203 100.460975 
L 318.209488 100.457953 
L 318.627391 100.457953 
L 319.621672 100.465035 
L 322.169344 100.460168 
L 326.457243 100.451977 
L 326.614939 100.451977 
L 327.831205 100.455021 
L 332.716325 100.467248 
L 338.136184 100.521135 
L 339.869403 100.538368 
L 347.214086 100.45751 
L 350.4014 100.448035 
L 354.262367 100.436558 
L 354.295104 100.435486 
L 354.629543 100.424532 
L 356.908549 100.428516 
L 357.145482 100.427779 
L 358.801214 100.425293 
L 361.175951 100.421729 
L 361.514227 100.593995 
L 361.900446 100.725758 
L 362.20353 100.914033 
L 362.399703 101.361997 
L 362.389179 101.532714 
L 362.129193 102.276592 
L 362.143448 102.382164 
L 362.294684 102.53606 
L 362.501659 102.570808 
L 362.860983 102.724483 
L 363.247091 103.2069 
L 363.377613 103.267839 
L 363.481852 103.757044 
L 363.779813 104.05613 
L 363.916739 104.142447 
L 364.272666 104.201172 
L 364.400849 104.189073 
L 364.424849 104.15071 
L 364.404803 103.862174 
L 364.470732 103.783972 
L 364.572577 103.736018 
L 364.843587 103.730706 
L 364.970712 103.886815 
L 364.952225 104.284096 
L 364.996549 104.435557 
L 365.084696 104.594026 
L 365.657622 104.88721 
L 365.760691 105.279622 
L 365.802008 105.790074 
L 365.799168 106.119924 
L 365.865098 106.314987 
L 366.178706 106.920019 
L 366.299761 107.237918 
L 366.288012 107.612918 
L 366.009317 107.971393 
L 366.020287 108.262364 
L 366.092063 108.690852 
L 366.287121 108.792514 
L 366.55351 108.85692 
L 366.686148 108.954746 
L 366.856483 109.447198 
L 366.80776 109.596298 
L 366.637982 109.729831 
L 366.508407 109.915746 
L 366.516314 110.111398 
L 366.564814 110.250981 
L 366.691493 110.429002 
L 366.84195 110.550436 
L 367.211019 110.558846 
L 367.386532 110.465889 
L 367.648244 110.202142 
L 367.77136 110.184215 
L 367.904499 110.288902 
L 368.137143 110.593595 
L 368.301576 110.749261 
L 368.629662 110.895189 
L 368.740249 110.897033 
L 368.94121 110.669952 
L 369.228258 110.159795 
L 369.519426 110.026925 
L 369.838992 109.981406 
L 370.182335 110.059608 
L 370.374666 110.171747 
L 370.53843 110.335823 
L 370.607366 110.528303 
L 370.68059 110.616096 
L 370.78611 110.701307 
L 370.882943 110.714513 
L 370.956278 110.671354 
L 371.049046 110.54719 
L 371.147828 110.290304 
L 371.223725 109.976389 
L 371.362989 109.796672 
L 371.47764 109.775351 
L 371.700875 109.852963 
L 371.780112 109.950199 
L 371.840751 110.189748 
L 371.802887 110.76409 
L 371.942986 111.162182 
L 372.057081 111.330095 
L 372.203361 111.459202 
L 372.483392 111.570529 
L 372.684632 111.553044 
L 373.0439 111.380779 
L 373.189902 111.318955 
L 373.389415 111.293798 
L 373.904931 111.805283 
L 374.075879 111.823136 
L 374.583934 111.755558 
L 374.761619 111.842687 
L 374.828383 111.92052 
L 374.885737 112.133362 
L 374.881728 112.457974 
L 374.795029 112.90048 
L 374.786732 113.122913 
L 374.803994 113.24206 
L 374.887686 113.455123 
L 375.628831 113.782318 
L 375.990048 114.149129 
L 376.215733 114.281851 
L 376.421483 114.278162 
L 376.753968 114.042893 
L 376.851692 114.020981 
L 377.055159 114.022752 
L 377.179722 114.122791 
L 377.203165 114.257874 
L 377.179945 114.521548 
L 377.054992 114.974234 
L 376.917064 115.245875 
L 376.840165 115.322749 
L 376.665041 115.395344 
L 376.280103 115.317806 
L 376.026855 115.402501 
L 375.548703 116.025534 
L 375.500481 116.131623 
L 375.432603 116.463244 
L 375.407788 116.698235 
L 375.371797 117.039062 
L 375.388836 117.150463 
L 375.435721 117.257806 
L 375.575041 117.413988 
L 375.883471 117.469689 
L 376.03053 117.470058 
L 376.7729 117.26024 
L 376.969796 117.237149 
L 377.06507 117.310924 
L 377.152326 117.437154 
L 377.380461 117.548481 
L 377.584596 117.593632 
L 377.815236 117.744724 
L 378.223283 118.637407 
L 378.257974 119.213815 
L 378.14605 119.918887 
L 378.217937 120.510418 
L 378.431093 121.399929 
L 378.422017 121.531545 
L 378.375967 121.630404 
L 378.290381 121.672677 
L 377.792127 121.559137 
L 377.488319 121.584737 
L 377.376284 121.764896 
L 377.365816 121.911341 
L 377.452236 122.112526 
L 377.867021 122.534374 
L 378.038749 122.830435 
L 378.261983 123.369734 
L 378.345619 123.808993 
L 378.342779 123.991809 
L 378.266605 124.104316 
L 377.926268 124.401189 
L 377.894696 124.555527 
L 377.944922 124.752286 
L 378.010573 124.805404 
L 378.1921 124.859925 
L 378.418787 125.275871 
L 378.487667 125.736156 
L 378.454369 126.80258 
L 378.489059 127.398759 
L 378.514618 127.529342 
L 378.772822 128.146916 
L 378.735959 128.564633 
L 378.664462 128.695585 
L 378.564789 128.72598 
L 378.504261 128.711594 
L 378.310984 128.551427 
L 378.199952 128.514687 
L 377.852042 128.601226 
L 377.770633 128.678911 
L 377.76423 128.74981 
L 377.859949 128.983088 
L 377.872812 129.09412 
L 377.706264 129.179847 
L 377.423448 129.142664 
L 377.207842 129.190028 
L 377.043075 129.307773 
L 377.043799 129.469637 
L 377.316695 129.766281 
L 377.470222 129.933168 
L 377.652752 130.279101 
L 377.856831 130.568744 
L 378.25519 130.793095 
L 378.594746 131.126117 
L 378.75517 131.72842 
L 378.943881 132.12725 
L 379.138828 132.321944 
L 379.351928 132.466322 
L 379.571933 132.49989 
L 379.675949 132.580748 
L 380.16702 133.446798 
L 380.289301 133.837882 
L 380.299546 134.004245 
L 380.217024 134.115794 
L 379.927359 134.210079 
L 379.817663 134.332177 
L 379.819946 134.67907 
L 379.850628 134.758821 
L 379.916779 134.823079 
L 380.273264 134.899584 
L 380.367758 134.952039 
L 380.666611 135.168791 
L 380.984117 135.494067 
L 381.126276 135.745051 
L 381.14777 135.845238 
L 381.146434 135.967263 
L 381.054167 136.194344 
L 380.992135 136.448279 
L 380.992804 136.582772 
L 381.02304 136.67086 
L 381.220103 136.722576 
L 381.538556 136.622684 
L 381.886465 136.623865 
L 381.997386 136.68377 
L 382.068716 136.780785 
L 382.179359 137.196141 
L 382.191442 137.380211 
L 382.175016 137.529163 
L 382.019993 138.071708 
L 382.000616 138.311478 
L 382.033524 138.470833 
L 382.126126 138.678069 
L 382.220175 138.748081 
L 382.875289 138.933037 
L 383.522719 139.009911 
L 383.625677 138.984901 
L 384.089575 138.697914 
L 384.225776 138.506983 
L 384.439377 138.482711 
L 384.952388 138.572643 
L 385.272567 138.86745 
L 385.425306 138.955169 
L 385.804509 138.962325 
L 386.06984 139.068267 
L 386.2556 139.302061 
L 386.313956 139.620698 
L 386.315626 139.877289 
L 386.383337 140.136093 
L 386.532958 140.233845 
L 387.041402 140.353067 
L 387.205947 140.443884 
L 387.303727 140.564507 
L 387.372885 140.770341 
L 387.375168 140.865437 
L 387.049087 141.245086 
L 386.967344 141.534286 
L 386.988169 141.696001 
L 387.105772 141.773982 
L 387.396551 141.823485 
L 388.06308 141.670106 
L 388.733117 141.400457 
L 389.073342 141.368438 
L 389.317123 141.461469 
L 389.628839 141.681836 
L 389.797559 141.8738 
L 390.279609 142.312912 
L 390.406567 142.374072 
L 390.627296 142.395688 
L 390.743061 142.381302 
L 390.885666 142.304723 
L 391.061125 141.931714 
L 391.333137 141.657786 
L 391.66011 141.475044 
L 391.912968 141.485004 
L 392.020269 141.54004 
L 392.266946 141.835216 
L 392.314556 141.985718 
L 392.329869 142.23648 
L 392.360439 142.337627 
L 392.591524 142.876925 
L 392.677277 142.973497 
L 392.868772 143.048084 
L 393.207215 142.993712 
L 393.558576 142.794002 
L 393.825299 142.70193 
L 393.969464 142.71093 
L 394.356407 142.904075 
L 394.641171 142.928052 
L 394.857131 142.802177 
L 394.8766 142.790829 
L 395.081459 142.581528 
L 395.463391 142.385949 
L 395.62426 142.347217 
L 395.762187 142.385507 
L 395.86058 142.489752 
L 395.925674 142.619818 
L 395.960531 142.741326 
L 395.969552 142.971432 
L 395.749436 143.652822 
L 395.615685 143.804061 
L 395.580549 144.06471 
L 395.622534 144.26833 
L 395.756675 144.558194 
L 395.893155 144.764249 
L 396.030303 144.869231 
L 396.211607 144.966246 
L 396.740209 145.037808 
L 397.013725 145.19318 
L 397.15672 145.397538 
L 397.324884 145.966494 
L 397.43252 146.202649 
L 397.720736 146.483586 
L 398.183687 146.827527 
L 398.397456 147.056748 
L 398.487273 147.31356 
L 398.473296 147.482137 
L 398.400407 147.571996 
L 398.10406 147.793396 
L 398.186694 147.787199 
L 397.870357 147.998934 
L 397.656868 148.03656 
L 397.429401 148.133132 
L 396.738427 148.52783 
L 396.21222 148.63119 
L 395.919938 148.59172 
L 394.938966 148.620935 
L 394.786839 148.707179 
L 394.544394 149.048611 
L 394.367655 149.694663 
L 394.188633 149.916727 
L 393.917233 150.173392 
L 393.733533 150.228945 
L 393.360622 150.236101 
L 392.942385 150.30604 
L 392.774166 150.366241 
L 392.611348 150.518071 
L 392.567803 150.65758 
L 392.759632 150.984258 
L 392.781126 151.164934 
L 392.749554 151.239521 
L 391.953282 151.790845 
L 391.665121 152.159575 
L 391.460764 152.307569 
L 391.116585 152.478211 
L 390.661485 152.967933 
L 390.438195 153.417152 
L 390.198813 153.699343 
L 390.17855 153.760437 
L 390.044514 154.164571 
L 389.755964 154.747618 
L 389.745551 154.858355 
L 389.827684 155.118119 
L 389.780241 155.34756 
L 389.72183 155.467593 
L 389.607401 155.62444 
L 389.291008 155.674755 
L 389.216726 155.705445 
L 389.152802 155.788 
L 388.900724 156.333938 
L 388.880065 156.626532 
L 388.649926 157.0306 
L 388.581825 157.352409 
L 388.613342 157.419175 
L 388.947553 157.754706 
L 389.031858 157.88824 
L 389.014652 157.993739 
L 388.971998 158.113476 
L 388.588396 158.755323 
L 388.212701 159.508644 
L 387.976548 160.102832 
L 387.964465 160.323051 
L 387.761388 160.814986 
L 387.355735 161.348825 
L 386.783477 161.896165 
L 386.701567 162.066661 
L 386.667712 162.249329 
L 386.474157 162.671767 
L 385.476702 163.964461 
L 385.032794 164.315558 
L 384.257349 164.635375 
L 384.109955 164.838995 
L 384.131115 164.975701 
L 384.09893 165.040549 
L 383.186726 165.728358 
L 383.075136 165.770262 
L 382.907307 165.755507 
L 382.706569 165.795494 
L 382.319236 166.009738 
L 382.188992 166.170421 
L 381.659667 167.347951 
L 381.654266 167.580491 
L 381.698924 167.621363 
L 381.852053 167.647627 
L 382.045886 167.623797 
L 382.238996 167.526782 
L 382.573987 167.215966 
L 382.755626 167.106115 
L 382.900514 167.068342 
L 383.01021 167.123452 
L 383.030603 167.196348 
L 383.049466 167.263773 
L 382.958703 167.678981 
L 382.814037 167.863715 
L 382.167944 168.315295 
L 381.792527 168.378225 
L 381.485434 168.508291 
L 381.219824 168.701066 
L 380.843461 169.173008 
L 380.578575 169.174852 
L 380.498559 169.266334 
L 380.348158 169.640081 
L 380.314971 169.861776 
L 380.238573 170.062371 
L 380.130158 170.248507 
L 379.767325 170.727014 
L 379.729795 170.877664 
L 379.782471 171.152846 
L 379.763149 171.219539 
L 379.488965 171.322087 
L 379.277646 171.444628 
L 378.933969 171.813506 
L 378.745724 171.923202 
L 377.271043 172.782546 
L 377.022306 172.892472 
L 376.682526 172.914014 
L 376.198861 173.082886 
L 376.169627 173.174884 
L 375.877624 173.501562 
L 375.592191 173.660769 
L 375.12267 173.853619 
L 375.040203 173.995858 
L 374.325897 174.44183 
L 374.115804 174.602292 
L 373.92765 174.813363 
L 373.869517 174.975153 
L 373.874473 175.269222 
L 373.842399 175.442447 
L 373.787829 175.618549 
L 373.652241 175.863041 
L 373.651962 176.088646 
L 373.749185 176.297726 
L 373.883716 176.422849 
L 374.011231 176.445055 
L 374.371558 176.358295 
L 374.487651 176.489548 
L 374.492279 176.49478 
L 374.529308 176.626986 
L 374.480307 176.810096 
L 374.498905 176.913234 
L 374.522459 176.98583 
L 374.57753 177.375733 
L 374.641009 177.621995 
L 374.979619 177.98438 
L 375.287548 178.607045 
L 375.322573 178.856185 
L 375.757125 179.565536 
L 375.879294 179.751967 
L 376.783981 180.50905 
L 376.913333 180.80489 
L 376.961444 181.014265 
L 377.011781 181.52243 
L 376.968961 181.851469 
L 377.082388 182.111011 
L 377.554694 182.590109 
L 378.210309 183.477037 
L 378.330362 183.73053 
L 378.367614 183.889663 
L 378.341554 184.138213 
L 378.112306 184.312249 
L 377.61717 184.919716 
L 377.676417 185.2084 
L 377.52262 185.40029 
L 377.254449 185.414971 
L 377.103325 185.300767 
L 376.928479 185.231787 
L 376.133433 185.282544 
L 375.864928 185.437842 
L 375.784911 185.61564 
L 375.796883 186.009306 
L 375.911925 186.174047 
L 376.436629 186.691803 
L 376.531012 186.860011 
L 376.525054 187.105978 
L 376.443867 187.290343 
L 375.844715 188.010466 
L 375.725998 188.152483 
L 375.614743 188.352267 
L 375.589017 188.506458 
L 375.620979 188.690011 
L 375.585621 188.926314 
L 375.156581 189.568382 
L 374.999384 189.656299 
L 374.998552 189.656765 
L 374.692349 189.697046 
L 374.344551 189.889158 
L 374.189807 190.089827 
L 373.878092 190.685638 
L 373.775746 190.820352 
L 373.714662 190.846837 
L 373.452616 190.858567 
L 372.880637 190.771512 
L 372.085925 190.505921 
L 371.758897 190.499502 
L 371.643967 190.553211 
L 371.545853 190.672432 
L 371.419396 190.908956 
L 371.350627 191.21896 
L 371.315992 191.550655 
L 371.228959 191.722404 
L 371.006393 191.910753 
L 370.518663 192.17 
L 370.254891 192.479783 
L 370.236627 192.592955 
L 370.266473 192.81133 
L 370.32082 192.934092 
L 370.853653 193.539568 
L 371.019367 193.80634 
L 371.059459 193.963334 
L 371.036295 194.081375 
L 370.820689 194.520486 
L 370.651412 194.963139 
L 370.473225 195.117772 
L 370.459588 195.13632 
L 370.37255 195.2547 
L 370.133111 195.898022 
L 369.843558 196.916123 
L 370.010608 197.358776 
L 370.233341 197.668559 
L 370.586374 197.810208 
L 370.924037 197.766533 
L 371.144098 197.811388 
L 371.309867 197.93179 
L 371.353522 198.080521 
L 371.315212 198.310701 
L 371.02204 198.799389 
L 370.733377 198.958744 
L 370.571228 199.096852 
L 370.246928 199.599705 
L 370.036668 200.035276 
L 370.035777 200.206435 
L 370.327502 200.535547 
L 370.536036 200.963666 
L 370.697796 201.849488 
L 370.658595 202.080848 
L 370.580193 202.194167 
L 370.179273 202.240203 
L 370.022413 202.312208 
L 369.960939 202.398378 
L 369.986776 202.587243 
L 370.145417 202.818603 
L 370.239856 203.033437 
L 370.491099 203.469007 
L 370.598099 204.283045 
L 370.61054 204.377699 
L 370.574346 204.637463 
L 370.359408 204.998815 
L 370.333905 205.164884 
L 370.347492 205.245889 
L 370.393375 205.418155 
L 370.487703 205.565632 
L 370.800364 205.923517 
L 371.000045 206.074904 
L 371.436825 206.248866 
L 371.809791 206.314158 
L 372.129302 206.315264 
L 372.375701 206.227472 
L 372.99256 205.647154 
L 373.296703 205.490676 
L 373.583917 205.456887 
L 374.667292 205.642801 
L 375.023052 205.830191 
L 375.61207 206.041189 
L 375.869605 206.292763 
L 376.827191 207.480917 
L 377.377788 207.928955 
L 377.453406 208.123648 
L 377.501015 208.348811 
L 377.574071 209.114896 
L 377.531585 209.605724 
L 377.523344 210.253398 
L 377.56377 210.69856 
L 377.725363 211.657124 
L 377.749641 212.050126 
L 377.733493 212.416864 
L 377.616558 212.755936 
L 377.424506 213.048677 
L 377.409249 213.362149 
L 377.4509 213.629511 
L 377.269038 214.264423 
L 377.269038 214.351699 
L 377.444051 214.856471 
L 377.694737 215.956906 
L 377.774587 216.735901 
L 377.820627 216.846374 
L 377.921647 217.088769 
L 378.074553 217.236246 
L 378.610727 217.404011 
L 378.725699 217.502026 
L 378.800162 217.565506 
L 378.873132 217.681861 
L 378.879232 217.691588 
L 379.159598 217.920144 
L 379.621825 218.135052 
L 379.818944 218.166628 
L 380.239575 218.079352 
L 381.011903 217.842385 
L 381.273614 217.676907 
L 381.400183 217.644814 
L 381.816527 217.77429 
L 382.007743 217.983665 
L 382.15987 218.09455 
L 382.891437 218.438491 
L 383.119126 218.617987 
L 383.203264 218.772251 
L 383.759827 220.144311 
L 383.776802 220.186158 
L 384.053826 221.02078 
L 384.205062 221.571292 
L 384.256179 222.307129 
L 384.329236 222.65889 
L 384.374992 222.726865 
L 384.555588 222.995159 
L 384.923098 223.356658 
L 385.273959 223.629627 
L 385.797382 224.146056 
L 386.3041 224.551747 
L 386.582516 224.647655 
L 386.966787 224.684543 
L 387.234067 224.839471 
L 387.484642 225.038665 
L 387.846583 225.38541 
L 388.537056 226.152674 
L 388.732894 226.486361 
L 388.966764 226.936391 
L 389.188606 227.465878 
L 389.377364 228.032253 
L 389.37793 228.033949 
L 389.739871 228.838028 
L 389.979309 229.450364 
L 390.313465 229.767598 
L 391.003938 230.114343 
L 391.248944 230.335669 
L 392.596536 231.007026 
L 393.381671 231.589852 
L 393.929928 232.040547 
L 393.98305 232.10628 
L 394.177997 232.60788 
L 394.515648 233.232759 
L 394.528802 233.257104 
L 394.734831 233.957971 
L 394.807219 234.157165 
L 394.879607 234.267828 
L 395.008328 234.392456 
L 395.024384 234.408001 
L 395.447577 234.577685 
L 395.831792 234.828521 
L 396.021171 235.057225 
L 396.661529 236.082704 
L 396.706075 236.24501 
L 396.700507 236.584303 
L 396.650954 236.833787 
L 396.644824 236.86465 
L 396.550162 237.085977 
L 396.474488 237.197746 
L 395.642468 237.956527 
L 395.514397 238.015547 
L 395.347347 238.030303 
L 394.823924 237.993415 
L 394.624745 238.043139 
L 394.403014 238.153434 
L 394.034168 238.403975 
L 393.331556 239.018894 
L 393.164506 239.055781 
L 392.964046 239.048404 
L 392.301359 238.871343 
L 391.622022 238.568863 
L 391.462629 238.526627 
L 391.427131 238.517221 
L 391.276786 238.524598 
L 391.093031 238.583618 
L 390.892571 238.79019 
L 390.753307 239.055781 
L 390.508301 239.69025 
L 390.380229 240.265699 
L 390.218748 240.487025 
L 389.918058 240.723107 
L 389.489296 240.929678 
L 389.305486 241.062474 
L 389.188551 241.19527 
L 389.139072 241.291674 
L 389.093889 241.379708 
L 389.004796 241.667433 
L 388.943544 241.755963 
L 388.782063 241.866627 
L 387.868856 242.117463 
L 387.445608 242.338789 
L 386.265066 242.751932 
L 386.261679 242.752396 
L 386.103584 242.774065 
L 385.608003 242.685534 
L 385.357428 242.715044 
L 384.973213 242.884654 
L 384.293821 243.268287 
L 382.628453 244.324151 
L 382.606561 244.338031 
L 382.094275 244.780683 
L 381.760119 245.179071 
L 380.75782 246.226683 
L 380.579578 246.359478 
L 380.334571 246.492274 
L 379.530508 246.783164 
L 379.009253 246.971741 
L 378.599166 247.261046 
L 378.580491 247.27422 
L 378.346566 247.598832 
L 377.912236 248.484138 
L 377.857828 248.550124 
L 377.188353 249.362066 
L 376.263955 249.760453 
L 376.242083 249.764999 
L 375.97997 249.819474 
L 375.210263 250.109811 
L 375.178074 250.121953 
L 374.559934 250.483453 
L 374.301398 250.67474 
L 374.131173 250.800687 
L 373.952986 250.977749 
L 373.763663 251.294983 
L 373.735726 251.417803 
L 373.64116 251.833544 
L 373.618886 252.80738 
L 373.631827 252.910255 
L 373.680138 253.294298 
L 373.796437 253.693522 
L 373.802641 253.714818 
L 373.952986 254.054111 
L 374.075489 254.437744 
L 373.914008 255.293539 
L 373.769231 255.588641 
L 373.402474 256.160229 
L 373.390529 256.178845 
L 373.268026 256.311641 
L 373.106387 256.468689 
L 373.100976 256.473947 
L 372.805854 256.58461 
L 371.479786 256.622683 
L 371.007172 256.636253 
L 370.656367 256.732161 
L 370.322212 257.00513 
L 369.481338 257.824038 
L 369.456203 257.839118 
L 368.891095 258.17816 
L 368.111473 258.510149 
L 367.643455 258.658881 
L 366.099469 259.039341 
L 364.862353 259.087885 
L 363.954826 258.984821 
L 363.461038 259.00253 
L 363.199872 259.011896 
L 362.798896 259.070917 
L 362.167893 259.287079 
L 361.464335 259.741904 
L 360.493496 260.649712 
L 359.452163 261.55715 
L 358.717087 262.132598 
L 358.086474 262.545224 
L 357.36454 262.006 
L 355.934147 261.184805 
L 355.591015 261.018485 
L 355.448632 260.949471 
L 355.399755 260.925779 
L 355.392693 260.922997 
L 354.403302 260.53322 
L 353.423387 260.221888 
L 353.374482 260.211901 
L 352.331994 259.999012 
L 351.16799 259.857142 
L 351.132642 259.855893 
L 349.434903 259.795908 
L 348.912148 259.830656 
L 348.906962 259.831181 
L 348.172885 259.905487 
L 348.142494 259.908563 
L 348.073945 259.921463 
L 348.02606 259.930475 
L 346.828535 260.161687 
L 345.85597 260.443288 
L 345.476377 260.575641 
L 344.289042 261.10616 
L 344.048678 261.244486 
L 342.997579 261.849374 
L 342.149188 262.471523 
L 341.657289 262.90891 
L 341.270283 263.253026 
L 341.133866 263.393778 
L 340.888823 263.646605 
L 340.708049 263.833123 
L 340.181396 264.449812 
L 339.740273 265.032417 
L 339.256274 265.786181 
L 338.90448 266.449797 
L 338.84973 266.553076 
L 338.530609 267.247746 
L 338.111536 268.426531 
L 337.286867 268.426604 
L 336.663047 268.42144 
L 336.078093 268.419743 
L 335.975159 268.419996 
L 325.578004 268.445565 
L 324.775162 268.420333 
L 323.96497 268.426826 
L 318.608577 268.445806 
L 317.95541 268.44812 
L 312.525406 268.467362 
L 312.513977 268.467402 
L 312.168884 268.467452 
L 304.339835 268.468583 
L 304.311993 268.468583 
L 303.476799 268.476108 
L 302.988638 268.473364 
L 302.190571 268.468878 
L 302.185002 268.476255 
L 300.878529 268.474077 
L 298.114609 268.469468 
L 296.711501 268.469689 
L 293.806354 268.47749 
L 293.79932 268.477509 
L 291.561103 268.479903 
L 286.667276 268.485135 
L 285.864671 268.485994 
L 285.658699 268.486067 
L 281.687019 268.508735 
L 281.677398 268.50879 
L 280.602822 268.523693 
L 280.446909 268.516315 
L 276.444336 268.536637 
L 275.942241 268.539186 
L 275.526509 268.539259 
L 273.353078 268.517422 
L 270.329586 268.584262 
L 269.869862 268.58216 
L 267.200296 268.56995 
L 266.582267 268.555269 
L 266.543289 268.56272 
L 257.75134 268.571426 
L 257.747273 268.571426 
L 256.47068 268.571647 
L 256.275789 268.571647 
L 244.249118 268.571929 
L 243.708345 268.571942 
L 243.701162 268.571942 
L 240.125069 268.56154 
L 240.047836 268.5639 
L 232.54905 268.518373 
L 232.392384 268.517422 
L 232.265816 268.512331 
L 229.504481 268.509307 
L 229.031228 268.494625 
L 228.441654 268.48651 
L 227.031251 268.47537 
L 225.864751 268.463012 
L 225.830966 268.462654 
L 221.118909 268.412735 
L 210.037709 268.407201 
L 209.924394 268.408234 
L 208.637592 268.406866 
L 202.846155 268.400709 
L 202.759567 268.393036 
L 200.761539 268.394955 
L 200.607407 268.396209 
L 199.168328 268.388389 
L 199.164319 268.386692 
L 195.72916 268.381601 
L 195.373065 268.398422 
L 195.237866 268.391709 
L 195.184466 268.394586 
L 195.071874 268.392741 
L 195.058439 268.392754 
L 192.957654 268.394719 
L 189.708848 268.397758 
L 188.451408 268.369281 
L 184.204164 268.397832 
L 183.719051 268.369945 
L 182.07773 268.392889 
L 180.164024 268.384885 
L 177.497097 268.373732 
L 173.857371 268.35851 
L 169.137746 268.367243 
L 162.45131 268.379616 
L 162.295679 268.379904 
L 155.927458 268.372822 
L 155.317429 268.376291 
L 136.6119 268.482647 
L 131.923165 268.509307 
L 127.924937 268.531439 
L 124.597414 268.5037 
L 124.463774 268.496986 
L 115.93582 268.531587 
L 113.467129 268.533899 
L 110.972767 268.536235 
L 110.960127 268.536235 
L 107.449876 268.522939 
L 98.552996 268.48924 
L 89.345202 268.492752 
L 85.595268 268.494183 
L 85.550388 268.495584 
L 79.3177 268.501118 
L 73.863297 268.48533 
L 73.860166 264.143625 
L 73.858787 262.230793 
L 73.888411 255.975889 
L 73.868532 252.581996 
L 73.875938 252.418141 
L 73.872597 251.130021 
L 73.871037 250.927434 
L 73.870264 250.720466 
L 73.870202 250.703894 
L 73.870815 250.633291 
L 73.875659 246.721052 
L 73.881896 242.250923 
L 73.884568 242.170655 
L 73.882824 240.86148 
L 73.87655 236.151832 
L 73.879223 235.187439 
L 73.879223 235.185447 
L 73.880106 223.529063 
L 73.880169 222.693048 
L 73.938526 220.784698 
L 73.938526 218.505036 
L 73.93873 218.447788 
L 73.955286 213.812991 
L 73.882898 212.986706 
L 73.8826 212.714009 
L 73.879334 209.721773 
L 73.879167 209.721773 
L 73.879231 206.645999 
L 73.879279 204.391422 
L 73.877552 204.392307 
L 73.877552 202.457619 
L 73.880169 202.457177 
L 73.882842 200.803868 
L 73.879111 189.479556 
L 73.882787 188.821258 
L 73.877831 185.284757 
L 73.881227 185.217179 
L 73.881274 185.12375 
L 73.88223 183.190567 
L 73.839799 181.544268 
L 73.839052 181.509874 
L 73.838351 181.477649 
L 73.836751 181.353768 
L 73.832727 181.042373 
" clip-path="url(#pac9df73387)" style="fill: #33a1ff"/>
   </g>
   <g id="text_1">
    <!-- PA -->
    <g transform="translate(228.820312 65.066111) scale(0.12 -0.12)">
     <defs>
      <path id="DejaVuSans-50" d="M 1259 4147 
L 1259 2394 
L 2053 2394 
Q 2494 2394 2734 2622 
Q 2975 2850 2975 3272 
Q 2975 3691 2734 3919 
Q 2494 4147 2053 4147 
L 1259 4147 
z
M 628 4666 
L 2053 4666 
Q 2838 4666 3239 4311 
Q 3641 3956 3641 3272 
Q 3641 2581 3239 2228 
Q 2838 1875 2053 1875 
L 1259 1875 
L 1259 0 
L 628 0 
L 628 4666 
z
" transform="scale(0.015625)"/>
      <path id="DejaVuSans-41" d="M 2188 4044 
L 1331 1722 
L 3047 1722 
L 2188 4044 
z
M 1831 4666 
L 2547 4666 
L 4325 0 
L 3669 0 
L 3244 1197 
L 1141 1197 
L 716 0 
L 50 0 
L 1831 4666 
z
" transform="scale(0.015625)"/>
     </defs>
     <use xlink:href="#DejaVuSans-50"/>
     <use xlink:href="#DejaVuSans-41" x="53.927734"/>
    </g>
   </g>
  </g>
 </g>
 <defs>
  <clipPath id="pac9df73387">
   <rect x="57.6" y="71.066111" width="357.12" height="206.923777"/>
  </clipPath>
 </defs>
</svg>
