<?xml version="1.0" encoding="utf-8" standalone="no"?>
<!DOCTYPE svg PUBLIC "-//W3C//DTD SVG 1.1//EN"
  "http://www.w3.org/Graphics/SVG/1.1/DTD/svg11.dtd">
<svg xmlns:xlink="http://www.w3.org/1999/xlink" width="360pt" height="360pt" viewBox="0 0 360 360" xmlns="http://www.w3.org/2000/svg" version="1.1">
 <metadata>
  <rdf:RDF xmlns:dc="http://purl.org/dc/elements/1.1/" xmlns:cc="http://creativecommons.org/ns#" xmlns:rdf="http://www.w3.org/1999/02/22-rdf-syntax-ns#">
   <cc:Work>
    <dc:type rdf:resource="http://purl.org/dc/dcmitype/StillImage"/>
    <dc:date>2023-06-19T15:20:26.303591</dc:date>
    <dc:format>image/svg+xml</dc:format>
    <dc:creator>
     <cc:Agent>
      <dc:title>Matplotlib v3.7.1, https://matplotlib.org/</dc:title>
     </cc:Agent>
    </dc:creator>
   </cc:Work>
  </rdf:RDF>
 </metadata>
 <defs>
  <style type="text/css">*{stroke-linejoin: round; stroke-linecap: butt}</style>
 </defs>
 <g id="figure_1">
  <g id="patch_1">
   <path d="M 0 360 
L 360 360 
L 360 0 
L 0 0 
z
" style="fill: #ffffff"/>
  </g>
  <g id="axes_1">
   <g id="PatchCollection_1">
    <path d="M 57.681818 185.641278 
L 57.71662 185.014841 
L 57.720576 182.129793 
L 57.721058 181.778945 
L 57.723755 180.911416 
L 57.722319 178.903381 
L 57.723711 178.494108 
L 57.722319 178.454434 
L 57.720622 178.317488 
L 57.716751 178.01036 
L 57.716577 177.636933 
L 57.715141 177.194904 
L 57.712226 176.997446 
L 57.720927 176.536318 
L 57.718143 176.140488 
L 57.720057 176.140488 
L 57.720057 176.138924 
L 57.720057 176.137922 
L 57.713314 175.780026 
L 57.713322 175.778068 
L 57.715576 175.250295 
L 57.714315 174.133018 
L 57.727974 172.479485 
L 57.725234 172.038238 
L 57.725234 171.464004 
L 57.733934 170.754956 
L 57.725234 170.045863 
L 57.720884 169.915356 
L 57.720753 169.909048 
L 57.729541 168.29036 
L 57.714967 167.990236 
L 57.709051 167.072897 
L 57.709047 167.072351 
L 57.708355 166.96575 
L 57.708355 166.914113 
L 57.708355 166.912851 
L 57.70705 166.831153 
L 57.707833 166.831066 
L 57.707833 166.804965 
L 57.705571 166.783605 
L 57.705571 166.757721 
L 57.709747 165.875053 
L 57.711139 165.397569 
L 57.709747 165.096879 
L 57.719491 163.464662 
L 57.720884 163.464706 
L 57.720884 163.137697 
L 57.720884 162.637417 
L 57.719393 162.407673 
L 57.713227 161.457323 
L 57.711503 160.307468 
L 57.710791 159.832806 
L 57.713749 158.577974 
L 57.705832 158.119979 
L 57.705201 153.55273 
L 57.705049 152.444197 
L 57.702134 152.38064 
L 57.704353 151.064904 
L 57.70283 149.416765 
L 57.704527 148.845663 
L 57.710182 148.295312 
L 57.707808 144.622605 
L 57.705571 141.159584 
L 57.707354 140.514702 
L 57.70296 139.115398 
L 57.70209 139.056017 
L 61.355176 137.834116 
L 62.472105 137.574536 
L 64.069085 137.02971 
L 64.121157 137.035626 
L 64.496063 136.861311 
L 65.108666 136.76256 
L 65.943611 136.504808 
L 67.296894 135.978943 
L 67.38868 135.943276 
L 70.271683 134.686878 
L 70.442715 134.621129 
L 72.116236 133.977786 
L 73.082037 133.473156 
L 73.595367 133.085983 
L 74.372802 131.555562 
L 74.624377 131.277407 
L 75.192608 130.841946 
L 76.447918 130.544258 
L 76.931841 130.62787 
L 77.106156 130.741151 
L 76.816994 130.960099 
L 77.167059 131.319778 
L 76.886814 131.480507 
L 76.871242 131.489439 
L 76.979998 131.646048 
L 77.167103 131.724352 
L 77.641281 131.776556 
L 79.380554 130.997712 
L 80.768856 130.376033 
L 83.286002 129.084616 
L 83.607921 129.049422 
L 84.602999 128.651156 
L 85.249578 128.293043 
L 86.041673 128.029156 
L 87.056066 127.83396 
L 89.066495 126.944202 
L 90.654165 126.338602 
L 90.653599 127.143661 
L 90.645421 127.504733 
L 90.659298 130.08996 
L 90.655122 130.2611 
L 90.65547 130.538385 
L 90.662517 131.001427 
L 90.65808 131.521848 
L 90.646726 132.368669 
L 90.664692 132.901837 
L 90.660821 137.249833 
L 90.668564 138.075599 
L 90.681919 138.130064 
L 94.648702 138.107138 
L 96.599402 138.121581 
L 96.598793 138.118753 
L 97.227933 138.122175 
L 99.814329 138.136241 
L 100.377253 138.142288 
L 101.571541 138.147212 
L 103.247249 138.154121 
L 112.935273 138.130108 
L 116.032744 138.101787 
L 121.135815 138.110444 
L 124.537717 138.12393 
L 127.331021 138.159779 
L 129.249307 138.184399 
L 134.687347 138.160472 
L 141.347767 138.08356 
L 153.899218 138.103658 
L 155.505508 138.123104 
L 158.315762 138.094632 
L 161.877505 138.058546 
L 165.947302 138.103658 
L 165.956611 138.104659 
L 167.41199 138.132239 
L 174.61071 138.142419 
L 175.012283 138.141418 
L 178.182229 138.131195 
L 184.26838 138.09915 
L 188.823961 138.075164 
L 190.943835 138.078923 
L 205.381696 138.104528 
L 208.036093 138.058154 
L 210.474021 138.041319 
L 210.478328 138.04258 
L 212.297085 138.022807 
L 212.298911 138.022787 
L 213.303864 138.009736 
L 213.543172 138.005386 
L 213.978198 138.005386 
L 214.204411 138.005386 
L 214.252264 138.001035 
L 217.980653 138.001079 
L 218.815946 138.005429 
L 221.695947 138.004733 
L 226.549594 138.043601 
L 230.029171 138.071466 
L 230.050655 138.071731 
L 233.730699 138.11714 
L 234.01305 138.120624 
L 234.203809 138.124583 
L 239.087279 138.147378 
L 239.35595 138.150162 
L 247.978284 138.125495 
L 248.601163 138.123713 
L 248.927649 138.123713 
L 249.704432 138.127889 
L 251.6948 138.125019 
L 255.044721 138.120189 
L 255.167921 138.120189 
L 256.118129 138.121984 
L 259.934629 138.129194 
L 264.168894 138.160969 
L 265.522971 138.171131 
L 271.261005 138.123452 
L 273.751094 138.117865 
L 276.767475 138.111097 
L 276.79305 138.110465 
L 277.054331 138.104006 
L 278.834804 138.106355 
L 279.019908 138.10592 
L 280.313448 138.104455 
L 282.168712 138.102353 
L 282.43299 138.203931 
L 282.734724 138.281627 
L 282.971508 138.392646 
L 283.124768 138.656793 
L 283.116546 138.757458 
L 282.913432 139.196095 
L 282.924569 139.258347 
L 283.042722 139.349093 
L 283.204421 139.369583 
L 283.485143 139.460199 
L 283.78679 139.744662 
L 283.88876 139.780596 
L 283.970197 140.069061 
L 284.202979 140.245421 
L 284.309952 140.296319 
L 284.588021 140.330947 
L 284.688164 140.323812 
L 284.706913 140.301191 
L 284.691252 140.131052 
L 284.742759 140.08494 
L 284.822326 140.056663 
L 285.034053 140.053531 
L 285.133369 140.145582 
L 285.118926 140.379844 
L 285.153554 140.469154 
L 285.222419 140.562598 
L 285.670017 140.735477 
L 285.75054 140.966867 
L 285.782819 141.267862 
L 285.7806 141.462362 
L 285.832107 141.577383 
L 286.077114 141.934147 
L 286.171689 142.1216 
L 286.16251 142.342724 
L 285.944779 142.554103 
L 285.953349 142.725677 
L 286.009424 142.97834 
L 286.161814 143.038286 
L 286.36993 143.076264 
L 286.473553 143.133949 
L 286.606627 143.424328 
L 286.568563 143.512247 
L 286.435923 143.590987 
L 286.334693 143.700613 
L 286.34087 143.815982 
L 286.378761 143.898289 
L 286.477729 144.003261 
L 286.595273 144.074866 
L 286.883608 144.079825 
L 287.020728 144.025012 
L 287.225191 143.86949 
L 287.321375 143.858919 
L 287.425389 143.920649 
L 287.607143 144.100315 
L 287.735606 144.192105 
L 287.991924 144.278153 
L 288.07832 144.279241 
L 288.235321 144.14534 
L 288.459576 143.84452 
L 288.687051 143.766172 
L 288.936713 143.73933 
L 289.20495 143.785443 
L 289.355208 143.851567 
L 289.483149 143.948317 
L 289.537005 144.061815 
L 289.594211 144.113583 
L 289.676648 144.163829 
L 289.752299 144.171616 
L 289.809592 144.146167 
L 289.882067 144.072952 
L 289.959241 143.921476 
L 290.018535 143.736372 
L 290.127335 143.6304 
L 290.216907 143.617828 
L 290.391308 143.663592 
L 290.453213 143.720929 
L 290.500587 143.862182 
L 290.471005 144.200849 
L 290.580458 144.435589 
L 290.669595 144.534601 
L 290.783876 144.610731 
L 291.00265 144.676376 
L 291.159869 144.666066 
L 291.440547 144.564487 
L 291.554611 144.528032 
L 291.710481 144.513198 
L 292.113228 144.814801 
L 292.246781 144.825329 
L 292.643698 144.785481 
L 292.782515 144.836857 
L 292.834674 144.882752 
L 292.879482 145.008257 
L 292.87635 145.199669 
L 292.808616 145.460597 
L 292.802135 145.591757 
L 292.81562 145.662014 
L 292.881005 145.787649 
L 293.460024 145.980583 
L 293.742225 146.196878 
L 293.918541 146.275139 
L 294.079283 146.272964 
L 294.339037 146.134235 
L 294.415384 146.121314 
L 294.574343 146.122358 
L 294.671658 146.181348 
L 294.689973 146.261001 
L 294.671832 146.416479 
L 294.574212 146.683411 
L 294.466456 146.843588 
L 294.406379 146.888917 
L 294.269564 146.931724 
L 293.96883 146.886003 
L 293.770981 146.935944 
L 293.397424 147.303323 
L 293.359751 147.36588 
L 293.306721 147.561424 
L 293.287334 147.699989 
L 293.259216 147.900961 
L 293.272528 147.96665 
L 293.309157 148.029947 
L 293.418001 148.122042 
L 293.658961 148.154886 
L 293.773852 148.155103 
L 294.353828 148.031382 
L 294.507653 148.017766 
L 294.582086 148.061268 
L 294.650255 148.135701 
L 294.828485 148.201347 
L 294.987965 148.22797 
L 295.168153 148.317064 
L 295.48694 148.843445 
L 295.514042 149.18333 
L 295.426602 149.599085 
L 295.482764 149.947888 
L 295.649292 150.472399 
L 295.642201 150.550008 
L 295.606224 150.608301 
L 295.53936 150.633228 
L 295.150099 150.566278 
L 294.912749 150.581373 
L 294.825222 150.687606 
L 294.817044 150.773959 
L 294.88456 150.89259 
L 295.20861 151.141338 
L 295.342772 151.315914 
L 295.517174 151.633918 
L 295.582515 151.892932 
L 295.580296 152.000732 
L 295.520785 152.067073 
L 295.254897 152.242127 
L 295.230231 152.333135 
L 295.26947 152.449156 
L 295.32076 152.480478 
L 295.462578 152.512627 
L 295.639677 152.757894 
L 295.69349 153.029307 
L 295.667476 153.658137 
L 295.694578 154.009681 
L 295.714545 154.08668 
L 295.916267 154.450841 
L 295.887468 154.697152 
L 295.831611 154.774369 
L 295.753741 154.792292 
L 295.706454 154.783809 
L 295.555456 154.689365 
L 295.468712 154.667701 
L 295.196908 154.718729 
L 295.133307 154.764538 
L 295.128305 154.806344 
L 295.203086 154.943899 
L 295.213135 155.00937 
L 295.083018 155.05992 
L 294.862069 155.037995 
L 294.693627 155.065924 
L 294.564903 155.135354 
L 294.565468 155.230798 
L 294.778668 155.405718 
L 294.898611 155.504125 
L 295.041212 155.708109 
L 295.200649 155.8789 
L 295.511867 156.011191 
L 295.777146 156.207562 
L 295.902477 156.562717 
L 296.049907 156.797892 
L 296.202209 156.912695 
L 296.368694 156.99783 
L 296.540572 157.017623 
L 296.621835 157.065302 
L 297.005484 157.575979 
L 297.101016 157.806586 
L 297.109021 157.904685 
L 297.04455 157.97046 
L 296.818249 158.026057 
L 296.732549 158.098053 
L 296.734333 158.302603 
L 296.758303 158.349629 
L 296.809984 158.38752 
L 297.088487 158.432632 
L 297.162311 158.463562 
L 297.39579 158.591373 
L 297.643841 158.783176 
L 297.754903 158.931171 
L 297.771695 158.990248 
L 297.770651 159.062201 
L 297.698568 159.196102 
L 297.650106 159.345838 
L 297.650628 159.425143 
L 297.67425 159.477085 
L 297.828205 159.507581 
L 298.076997 159.448678 
L 298.348801 159.449374 
L 298.435458 159.484698 
L 298.491185 159.541904 
L 298.577624 159.786824 
L 298.587064 159.895363 
L 298.574231 159.983194 
L 298.45312 160.303112 
L 298.437981 160.444496 
L 298.463691 160.538461 
L 298.536036 160.66066 
L 298.609512 160.701944 
L 299.12132 160.811005 
L 299.627124 160.856335 
L 299.70756 160.841587 
L 300.06998 160.672362 
L 300.176388 160.559778 
L 300.343264 160.545465 
L 300.744053 160.598495 
L 300.994193 160.772331 
L 301.11352 160.824056 
L 301.409773 160.828276 
L 301.617063 160.890745 
L 301.762187 161.028605 
L 301.807778 161.216493 
L 301.809083 161.367795 
L 301.861982 161.520402 
L 301.978874 161.578043 
L 302.376096 161.648343 
L 302.504646 161.701894 
L 302.581036 161.773021 
L 302.635067 161.894393 
L 302.63685 161.950468 
L 302.382099 162.174332 
L 302.318237 162.344863 
L 302.334507 162.44022 
L 302.426385 162.486202 
L 302.653555 162.515393 
L 303.174281 162.424951 
L 303.697748 162.265949 
L 303.963548 162.247069 
L 304.154003 162.301925 
L 304.39753 162.431868 
L 304.529343 162.545061 
L 304.905945 162.803989 
L 305.005131 162.840052 
L 305.177575 162.852799 
L 305.268017 162.844316 
L 305.379427 162.79916 
L 305.516504 162.579211 
L 305.729014 162.417686 
L 305.984461 162.30993 
L 306.182006 162.315803 
L 306.265836 162.348256 
L 306.458552 162.52231 
L 306.495747 162.611055 
L 306.50771 162.75892 
L 306.531593 162.818562 
L 306.712128 163.136566 
L 306.779122 163.193511 
L 306.928728 163.237492 
L 307.193137 163.205431 
L 307.467638 163.087669 
L 307.676015 163.033378 
L 307.788643 163.038685 
L 308.090943 163.152575 
L 308.313415 163.166713 
L 308.482133 163.09249 
L 308.497344 163.085798 
L 308.65739 162.962382 
L 308.955774 162.847056 
L 309.081453 162.824217 
L 309.189209 162.846795 
L 309.266078 162.908264 
L 309.316933 162.984959 
L 309.344165 163.056608 
L 309.351213 163.192293 
L 309.179247 163.594083 
L 309.074754 163.683263 
L 309.047304 163.836958 
L 309.080105 163.957025 
L 309.184902 164.127946 
L 309.291527 164.249449 
L 309.398674 164.311353 
L 309.540318 164.368559 
L 309.953288 164.410757 
L 310.166973 164.502373 
L 310.278688 164.622875 
L 310.410065 164.958367 
L 310.494156 165.097619 
L 310.719325 165.263277 
L 311.081006 165.466086 
L 311.248012 165.601248 
L 311.318182 165.752681 
L 311.307263 165.852084 
L 311.250318 165.90507 
L 311.018797 166.035622 
L 311.083355 166.031967 
L 310.836217 166.15682 
L 310.669428 166.179006 
L 310.49172 166.235951 
L 309.951896 166.46869 
L 309.540797 166.529637 
L 309.312452 166.506363 
L 308.546067 166.52359 
L 308.427218 166.574444 
L 308.237808 166.775774 
L 308.09973 167.156727 
L 307.95987 167.287669 
L 307.747838 167.439015 
L 307.604323 167.471772 
L 307.312986 167.475992 
L 306.986238 167.517232 
L 306.854817 167.552731 
L 306.727615 167.642259 
L 306.693596 167.724522 
L 306.843463 167.917152 
L 306.860255 168.023689 
L 306.835589 168.067671 
L 306.213502 168.392765 
L 305.988376 168.610191 
L 305.828722 168.697457 
L 305.559832 168.798079 
L 305.204286 169.086849 
L 305.02984 169.351736 
L 304.842823 169.518134 
L 304.826992 169.554159 
L 304.722277 169.792461 
L 304.496847 170.136262 
L 304.488712 170.201559 
L 304.552878 170.354732 
L 304.515814 170.490025 
L 304.470179 170.560804 
L 304.380782 170.65329 
L 304.1336 170.682959 
L 304.075568 170.701056 
L 304.025627 170.749735 
L 303.82869 171.071654 
L 303.812551 171.244186 
L 303.632755 171.482449 
L 303.579551 171.672208 
L 303.604174 171.711577 
L 303.865276 171.909427 
L 303.931139 171.988167 
L 303.917697 172.050375 
L 303.884374 172.12098 
L 303.584684 172.499453 
L 303.291172 172.943657 
L 303.106678 173.294027 
L 303.097238 173.423882 
L 302.938584 173.713958 
L 302.621668 174.028742 
L 302.174592 174.351488 
L 302.110599 174.452022 
L 302.08415 174.559735 
L 301.932935 174.808831 
L 301.153673 175.571083 
L 300.806871 175.778112 
L 300.201054 175.966695 
L 300.085902 176.086762 
L 300.102433 176.167373 
L 300.077289 176.205612 
L 299.364629 176.611186 
L 299.27745 176.635896 
L 299.146334 176.627195 
L 298.989507 176.650773 
L 298.686903 176.777105 
L 298.58515 176.871854 
L 298.171615 177.566198 
L 298.167395 177.703318 
L 298.202284 177.727419 
L 298.321916 177.742906 
L 298.473349 177.728854 
L 298.624216 177.671649 
L 298.885927 177.488372 
L 299.027832 177.423597 
L 299.141026 177.401323 
L 299.226726 177.43382 
L 299.242659 177.476804 
L 299.257396 177.516562 
L 299.186486 177.761394 
L 299.073467 177.870325 
L 298.568706 178.136604 
L 298.275412 178.173712 
L 298.035495 178.250407 
L 297.827988 178.364079 
L 297.533954 178.642365 
L 297.327012 178.643453 
L 297.264499 178.697396 
L 297.146998 178.91778 
L 297.121071 179.048505 
L 297.061385 179.166789 
L 296.976686 179.276546 
L 296.693223 179.558703 
L 296.663902 179.647536 
L 296.705056 179.8098 
L 296.68996 179.849127 
L 296.475754 179.909595 
L 296.310661 179.981853 
L 296.042163 180.199366 
L 295.895097 180.26405 
L 294.743002 180.770772 
L 294.548676 180.835591 
L 294.283223 180.848294 
L 293.90536 180.947871 
L 293.882521 181.002119 
L 293.654394 181.194749 
L 293.431399 181.288627 
L 293.064586 181.402343 
L 293.000158 181.486216 
L 292.442107 181.749189 
L 292.277972 181.843807 
L 292.130977 181.968268 
L 292.08556 182.063669 
L 292.089432 182.23707 
L 292.064374 182.339214 
L 292.021742 182.443055 
L 291.915813 182.587223 
L 291.915595 182.720254 
L 291.991551 182.84354 
L 292.096653 182.91732 
L 292.196274 182.930415 
L 292.477779 182.879256 
L 292.568477 182.95665 
L 292.572093 182.959735 
L 292.601022 183.037692 
L 292.56274 183.145665 
L 292.57727 183.206482 
L 292.595671 183.249289 
L 292.638695 183.4792 
L 292.688288 183.624411 
L 292.952827 183.838096 
L 293.193397 184.205258 
L 293.22076 184.352166 
L 293.560254 184.770443 
L 293.655699 184.880374 
L 294.362485 185.326798 
L 294.463542 185.501243 
L 294.501128 185.624703 
L 294.540454 185.924349 
L 294.507001 186.118371 
L 294.595615 186.271413 
L 294.964604 186.553919 
L 295.476804 187.076907 
L 295.570595 187.226382 
L 295.599699 187.320217 
L 295.579339 187.466777 
L 295.400239 187.569399 
L 295.013414 187.9276 
L 295.059701 188.097825 
L 294.939547 188.210975 
L 294.730038 188.219632 
L 294.611972 188.15229 
L 294.475374 188.111616 
L 293.854244 188.141545 
L 293.644475 188.233118 
L 293.581962 188.337959 
L 293.591315 188.570089 
L 293.681191 188.667231 
L 294.091116 188.972532 
L 294.164853 189.071718 
L 294.160198 189.216755 
L 294.096771 189.325468 
L 293.628684 189.750097 
L 293.535936 189.833839 
L 293.449018 189.951644 
L 293.42892 190.042565 
L 293.45389 190.150799 
L 293.426266 190.290138 
L 293.091079 190.668741 
L 292.968269 190.720582 
L 292.967618 190.720857 
L 292.728398 190.744609 
L 292.456681 190.85789 
L 292.335787 190.976217 
L 292.092259 191.327544 
L 292.012302 191.40698 
L 291.964579 191.422597 
L 291.759856 191.429514 
L 291.312998 191.378181 
L 290.692129 191.221572 
L 290.436638 191.217787 
L 290.346849 191.249457 
L 290.270197 191.319757 
L 290.171403 191.459226 
L 290.117677 191.642024 
L 290.090619 191.837612 
L 290.022624 191.938886 
L 289.848744 192.049948 
L 289.467705 192.202816 
L 289.261633 192.385483 
L 289.247365 192.452216 
L 289.270682 192.580984 
L 289.313141 192.653372 
L 289.729417 193.010398 
L 289.85888 193.167703 
L 289.890202 193.260277 
L 289.872105 193.329881 
L 289.703663 193.588808 
L 289.571415 193.849824 
L 289.432207 193.941005 
L 289.421553 193.951942 
L 289.353554 194.021746 
L 289.166493 194.401088 
L 288.94028 195.001424 
L 289.070788 195.262439 
L 289.244798 195.445107 
L 289.520604 195.528632 
L 289.784404 195.502878 
L 289.956326 195.529328 
L 290.085833 195.600324 
L 290.119939 195.688025 
L 290.09001 195.823753 
L 289.860969 196.111914 
L 289.635451 196.20588 
L 289.508772 196.287317 
L 289.255413 196.58383 
L 289.091147 196.84067 
L 289.090451 196.941596 
L 289.318361 197.135661 
L 289.481278 197.388106 
L 289.607653 197.910442 
L 289.577027 198.046866 
L 289.515776 198.113686 
L 289.202557 198.140831 
L 289.08001 198.18329 
L 289.031983 198.234101 
L 289.052169 198.345467 
L 289.176107 198.481891 
L 289.249888 198.608571 
L 289.446171 198.86541 
L 289.529764 199.345418 
L 289.539484 199.401231 
L 289.511208 199.554404 
L 289.343288 199.76748 
L 289.323364 199.865404 
L 289.333978 199.91317 
L 289.369824 200.014748 
L 289.443518 200.10171 
L 289.687785 200.312741 
L 289.843785 200.402008 
L 290.185019 200.504587 
L 290.4764 200.543087 
L 290.726017 200.54374 
L 290.918516 200.491972 
L 291.400438 200.14978 
L 291.638049 200.057511 
L 291.862435 200.037587 
L 292.708822 200.147214 
L 292.98676 200.25771 
L 293.44693 200.382128 
L 293.648129 200.530471 
L 294.396243 201.231081 
L 294.826397 201.495272 
L 294.885473 201.610075 
L 294.922668 201.742845 
L 294.979743 202.194576 
L 294.946551 202.483998 
L 294.940112 202.865908 
L 294.971695 203.128402 
L 295.09794 203.693631 
L 295.116907 203.925369 
L 295.104291 204.141621 
L 295.012936 204.341559 
L 294.862895 204.514177 
L 294.850976 204.699019 
L 294.883516 204.856673 
L 294.741436 205.231056 
L 294.741436 205.282519 
L 294.878165 205.580164 
L 295.074013 206.229049 
L 295.136396 206.688392 
L 295.172365 206.753534 
L 295.251286 206.896465 
L 295.370744 206.983427 
L 295.789631 207.082352 
L 295.879453 207.140147 
L 295.937627 207.177579 
L 295.994634 207.246189 
L 295.9994 207.251925 
L 296.218436 207.386696 
L 296.579551 207.513419 
L 296.73355 207.532038 
L 297.062168 207.480574 
L 297.665549 207.340844 
L 297.870011 207.243268 
L 297.968893 207.224344 
L 298.294161 207.300691 
L 298.443549 207.424152 
L 298.562398 207.489536 
L 299.133935 207.692345 
L 299.311817 207.798187 
L 299.37755 207.889151 
L 299.812365 208.698202 
L 299.825626 208.722878 
L 300.042052 209.215022 
L 300.160205 209.539639 
L 300.20014 209.973533 
L 300.257215 210.180954 
L 300.292962 210.221036 
L 300.434053 210.379238 
L 300.72117 210.592401 
L 300.99528 210.753361 
L 301.404205 211.057879 
L 301.800078 211.297099 
L 302.017591 211.353653 
L 302.317802 211.375404 
L 302.526615 211.466759 
L 302.722376 211.584216 
L 303.005143 211.788679 
L 303.544575 212.241105 
L 303.697574 212.437868 
L 303.880284 212.703233 
L 304.053599 213.015451 
L 304.201066 213.349421 
L 304.201508 213.350421 
L 304.484274 213.824556 
L 304.671335 214.185627 
L 304.932394 214.372688 
L 305.471826 214.577151 
L 305.663238 214.707658 
L 306.716044 215.103532 
L 307.32943 215.447202 
L 307.757757 215.712959 
L 307.799258 215.75172 
L 307.951561 216.047494 
L 308.21535 216.415962 
L 308.225627 216.430317 
L 308.386586 216.843592 
L 308.44314 216.961049 
L 308.499693 217.026302 
L 308.600257 217.099791 
L 308.6128 217.108957 
L 308.943419 217.209013 
L 309.243587 217.356922 
L 309.391539 217.49178 
L 309.891819 218.096466 
L 309.926621 218.192172 
L 309.922271 218.39224 
L 309.883558 218.539351 
L 309.878768 218.55755 
L 309.804814 218.688057 
L 309.745694 218.753964 
L 309.095678 219.201388 
L 308.995622 219.23619 
L 308.865115 219.244891 
L 308.45619 219.223139 
L 308.300582 219.25246 
L 308.127354 219.317496 
L 307.839193 219.465231 
L 307.290278 219.827825 
L 307.15977 219.849576 
L 307.003161 219.845226 
L 306.485437 219.74082 
L 305.954705 219.562459 
L 305.830179 219.537554 
L 305.802446 219.532008 
L 305.684989 219.536358 
L 305.541431 219.57116 
L 305.384821 219.692967 
L 305.276021 219.849576 
L 305.08461 220.223699 
L 304.984554 220.563019 
L 304.858396 220.693526 
L 304.623483 220.832735 
L 304.288513 220.954542 
L 304.144911 221.032847 
L 304.053555 221.111151 
L 304.0149 221.167997 
L 303.979601 221.219908 
L 303.909997 221.389568 
L 303.862144 221.441771 
L 303.735986 221.507025 
L 303.022544 221.654934 
L 302.691881 221.785441 
L 301.769583 222.029056 
L 301.766936 222.02933 
L 301.643425 222.042107 
L 301.256252 221.989903 
L 301.060491 222.007304 
L 300.760323 222.107317 
L 300.229548 222.33353 
L 298.928479 222.956133 
L 298.911376 222.964318 
L 298.511152 223.225333 
L 298.250093 223.460247 
L 297.467047 224.077984 
L 297.327795 224.156288 
L 297.136384 224.234593 
L 296.508209 224.40612 
L 296.100979 224.517316 
L 295.780599 224.687908 
L 295.766009 224.695677 
L 295.583255 224.887088 
L 295.243934 225.409119 
L 295.201428 225.448029 
L 294.678401 225.9268 
L 293.956215 226.161714 
L 293.939127 226.164394 
L 293.734351 226.196516 
L 293.133018 226.367717 
L 293.107871 226.374877 
L 292.624949 226.588039 
L 292.422967 226.700834 
L 292.289979 226.7751 
L 292.15077 226.879507 
L 292.002862 227.066568 
L 291.981036 227.13899 
L 291.907156 227.384137 
L 291.889755 227.958371 
L 291.899865 228.019032 
L 291.937608 228.245488 
L 292.028467 228.480895 
L 292.033313 228.493452 
L 292.15077 228.693521 
L 292.246476 228.919734 
L 292.120319 229.424364 
L 292.007212 229.598374 
L 291.720683 229.935418 
L 291.711351 229.946395 
L 291.615645 230.0247 
L 291.489365 230.117305 
L 291.485137 230.120405 
L 291.254574 230.185659 
L 290.218583 230.20811 
L 289.849353 230.216111 
L 289.575287 230.272664 
L 289.314228 230.433624 
L 288.657296 230.916503 
L 288.637659 230.925395 
L 288.196168 231.125315 
L 287.587089 231.321077 
L 287.221449 231.408778 
L 286.01521 231.633121 
L 285.048713 231.661745 
L 284.339708 231.600972 
L 283.953936 231.611415 
L 283.7499 231.616938 
L 283.436638 231.65174 
L 282.943667 231.779202 
L 282.394011 232.047396 
L 281.635544 232.582695 
L 280.822002 233.117777 
L 280.247725 233.457097 
L 279.755058 233.700407 
L 279.191047 233.382446 
L 278.073553 232.898219 
L 277.80548 232.800147 
L 277.694244 232.759452 
L 277.656058 232.745482 
L 277.650541 232.743841 
L 276.87758 232.514004 
L 276.112021 232.330424 
L 276.073814 232.324535 
L 275.259371 232.199002 
L 274.349993 232.115347 
L 274.322376 232.11461 
L 272.996018 232.07924 
L 272.587616 232.099729 
L 272.583564 232.100039 
L 272.010066 232.143854 
L 271.986323 232.145668 
L 271.932769 232.153275 
L 271.895359 232.158588 
L 270.959793 232.294925 
L 270.199977 232.460975 
L 269.90342 232.539018 
L 268.975814 232.851845 
L 268.78803 232.933411 
L 267.966859 233.29009 
L 267.304053 233.656948 
L 266.919757 233.914858 
L 266.617409 234.117771 
L 266.510832 234.200766 
L 266.319393 234.349849 
L 266.178163 234.459831 
L 265.766716 234.823469 
L 265.422088 235.167009 
L 265.043964 235.611475 
L 264.769125 236.002784 
L 264.726351 236.063685 
L 264.477038 236.473305 
L 264.149638 237.168389 
L 263.505365 237.168433 
L 263.018005 237.165387 
L 262.56101 237.164387 
L 262.480593 237.164536 
L 254.357816 237.179613 
L 253.730595 237.164735 
L 253.097633 237.168563 
L 248.912951 237.179755 
L 248.402664 237.18112 
L 244.160474 237.192466 
L 244.151545 237.19249 
L 243.881941 237.192519 
L 237.765496 237.193186 
L 237.743745 237.193186 
L 237.09125 237.197623 
L 236.709873 237.196005 
L 236.086383 237.19336 
L 236.082033 237.19771 
L 235.061351 237.196425 
L 232.902038 237.193708 
L 231.80586 237.193838 
L 229.536214 237.198438 
L 229.530718 237.198449 
L 227.782112 237.199861 
L 223.95881 237.202946 
L 223.331775 237.203452 
L 223.170859 237.203496 
L 220.067983 237.216862 
L 220.060467 237.216895 
L 219.220955 237.225682 
L 219.099147 237.221332 
L 215.972138 237.233314 
L 215.579876 237.234818 
L 215.255085 237.234861 
L 213.557093 237.221984 
L 211.194989 237.261398 
L 210.83583 237.260158 
L 208.750231 237.252958 
L 208.267396 237.244301 
L 208.236944 237.248695 
L 201.368235 237.253828 
L 201.365057 237.253829 
L 200.367719 237.253959 
L 200.21546 237.253959 
L 190.819624 237.254125 
L 190.397145 237.254133 
L 190.391533 237.254133 
L 187.59771 237.247999 
L 187.537372 237.249391 
L 181.678945 237.222545 
L 181.55655 237.221984 
L 181.457669 237.218983 
L 179.300376 237.217199 
L 178.930647 237.208542 
L 178.470042 237.203757 
L 177.368165 237.197188 
L 176.456837 237.189901 
L 176.430442 237.18969 
L 172.749148 237.160254 
L 164.09196 237.156991 
L 164.003432 237.1576 
L 162.998119 237.156794 
L 158.473558 237.153163 
L 158.405912 237.148639 
L 156.844952 237.14977 
L 156.724537 237.15051 
L 155.600256 237.145898 
L 155.597124 237.144898 
L 152.913406 237.141896 
L 152.635207 237.151815 
L 152.529583 237.147856 
L 152.487864 237.149553 
L 152.399902 237.148465 
L 152.389406 237.148472 
L 150.748167 237.149631 
L 148.210038 237.151423 
L 147.227662 237.134631 
L 143.909503 237.151467 
L 143.530509 237.135023 
L 142.248226 237.148552 
L 140.753144 237.143833 
L 138.669607 237.137256 
L 135.826071 237.12828 
L 132.138864 237.13343 
L 126.915086 237.140726 
L 126.793499 237.140896 
L 121.818327 237.136719 
L 121.341742 237.138765 
L 106.728047 237.201479 
L 103.064973 237.217199 
L 99.941357 237.23025 
L 97.34173 237.213893 
L 97.237323 237.209934 
L 90.57486 237.230337 
L 88.646194 237.2317 
L 86.697475 237.233077 
L 86.687599 237.233077 
L 83.945216 237.225237 
L 76.994528 237.205366 
L 69.800939 237.207438 
L 66.871303 237.208281 
L 66.83624 237.209108 
L 61.966953 237.21237 
L 57.705701 237.203061 
L 57.703255 234.642923 
L 57.702177 233.514999 
L 57.725321 229.826719 
L 57.70979 227.82547 
L 57.715576 227.728851 
L 57.712966 226.969296 
L 57.711748 226.849838 
L 57.711144 226.727797 
L 57.711095 226.718025 
L 57.711574 226.676393 
L 57.715359 224.369495 
L 57.720231 221.73363 
L 57.722319 221.686299 
L 57.720957 220.914328 
L 57.716055 218.137228 
L 57.718143 217.568562 
L 57.718143 217.567387 
L 57.718833 210.694062 
L 57.718882 210.201095 
L 57.764473 209.075814 
L 57.764473 207.731584 
L 57.764633 207.697827 
L 57.777567 204.964864 
L 57.721014 204.477635 
L 57.720781 204.316836 
L 57.71823 202.552428 
L 57.718099 202.552428 
L 57.71815 200.738762 
L 57.718186 199.409323 
L 57.716838 199.409845 
L 57.716838 198.269033 
L 57.718882 198.268772 
L 57.720971 197.293879 
L 57.718056 190.616364 
L 57.720927 190.22819 
L 57.717055 188.14285 
L 57.719709 188.103002 
L 57.719745 188.04791 
L 57.720492 186.907986 
L 57.687343 185.937226 
L 57.686759 185.916945 
L 57.686212 185.897943 
L 57.684961 185.824896 
L 57.681818 185.641278 
" clip-path="url(#pc3641a83b9)" style="fill: #002bdd"/>
   </g>
   <g id="PathCollection_1">
    <defs>
     <path id="m5364ec4232" d="M 0 1.581139 
C 0.419323 1.581139 0.821528 1.41454 1.118034 1.118034 
C 1.41454 0.821528 1.581139 0.419323 1.581139 0 
C 1.581139 -0.419323 1.41454 -0.821528 1.118034 -1.118034 
C 0.821528 -1.41454 0.419323 -1.581139 0 -1.581139 
C -0.419323 -1.581139 -0.821528 -1.41454 -1.118034 -1.118034 
C -1.41454 -0.821528 -1.581139 -0.419323 -1.581139 0 
C -1.581139 0.419323 -1.41454 0.821528 -1.118034 1.118034 
C -0.821528 1.41454 -0.419323 1.581139 0 1.581139 
z
" style="stroke: #000000"/>
    </defs>
    <g clip-path="url(#pc3641a83b9)">
     <use xlink:href="#m5364ec4232" x="215.869951" y="213.582247" style="stroke: #000000"/>
    </g>
   </g>
   <g id="text_1">
    <!-- Harrisburg -->
    <g transform="translate(218.869951 210.582247) scale(0.1 -0.1)">
     <defs>
      <path id="DejaVuSans-48" d="M 628 4666 
L 1259 4666 
L 1259 2753 
L 3553 2753 
L 3553 4666 
L 4184 4666 
L 4184 0 
L 3553 0 
L 3553 2222 
L 1259 2222 
L 1259 0 
L 628 0 
L 628 4666 
z
" transform="scale(0.015625)"/>
      <path id="DejaVuSans-61" d="M 2194 1759 
Q 1497 1759 1228 1600 
Q 959 1441 959 1056 
Q 959 750 1161 570 
Q 1363 391 1709 391 
Q 2188 391 2477 730 
Q 2766 1069 2766 1631 
L 2766 1759 
L 2194 1759 
z
M 3341 1997 
L 3341 0 
L 2766 0 
L 2766 531 
Q 2569 213 2275 61 
Q 1981 -91 1556 -91 
Q 1019 -91 701 211 
Q 384 513 384 1019 
Q 384 1609 779 1909 
Q 1175 2209 1959 2209 
L 2766 2209 
L 2766 2266 
Q 2766 2663 2505 2880 
Q 2244 3097 1772 3097 
Q 1472 3097 1187 3025 
Q 903 2953 641 2809 
L 641 3341 
Q 956 3463 1253 3523 
Q 1550 3584 1831 3584 
Q 2591 3584 2966 3190 
Q 3341 2797 3341 1997 
z
" transform="scale(0.015625)"/>
      <path id="DejaVuSans-72" d="M 2631 2963 
Q 2534 3019 2420 3045 
Q 2306 3072 2169 3072 
Q 1681 3072 1420 2755 
Q 1159 2438 1159 1844 
L 1159 0 
L 581 0 
L 581 3500 
L 1159 3500 
L 1159 2956 
Q 1341 3275 1631 3429 
Q 1922 3584 2338 3584 
Q 2397 3584 2469 3576 
Q 2541 3569 2628 3553 
L 2631 2963 
z
" transform="scale(0.015625)"/>
      <path id="DejaVuSans-69" d="M 603 3500 
L 1178 3500 
L 1178 0 
L 603 0 
L 603 3500 
z
M 603 4863 
L 1178 4863 
L 1178 4134 
L 603 4134 
L 603 4863 
z
" transform="scale(0.015625)"/>
      <path id="DejaVuSans-73" d="M 2834 3397 
L 2834 2853 
Q 2591 2978 2328 3040 
Q 2066 3103 1784 3103 
Q 1356 3103 1142 2972 
Q 928 2841 928 2578 
Q 928 2378 1081 2264 
Q 1234 2150 1697 2047 
L 1894 2003 
Q 2506 1872 2764 1633 
Q 3022 1394 3022 966 
Q 3022 478 2636 193 
Q 2250 -91 1575 -91 
Q 1294 -91 989 -36 
Q 684 19 347 128 
L 347 722 
Q 666 556 975 473 
Q 1284 391 1588 391 
Q 1994 391 2212 530 
Q 2431 669 2431 922 
Q 2431 1156 2273 1281 
Q 2116 1406 1581 1522 
L 1381 1569 
Q 847 1681 609 1914 
Q 372 2147 372 2553 
Q 372 3047 722 3315 
Q 1072 3584 1716 3584 
Q 2034 3584 2315 3537 
Q 2597 3491 2834 3397 
z
" transform="scale(0.015625)"/>
      <path id="DejaVuSans-62" d="M 3116 1747 
Q 3116 2381 2855 2742 
Q 2594 3103 2138 3103 
Q 1681 3103 1420 2742 
Q 1159 2381 1159 1747 
Q 1159 1113 1420 752 
Q 1681 391 2138 391 
Q 2594 391 2855 752 
Q 3116 1113 3116 1747 
z
M 1159 2969 
Q 1341 3281 1617 3432 
Q 1894 3584 2278 3584 
Q 2916 3584 3314 3078 
Q 3713 2572 3713 1747 
Q 3713 922 3314 415 
Q 2916 -91 2278 -91 
Q 1894 -91 1617 61 
Q 1341 213 1159 525 
L 1159 0 
L 581 0 
L 581 4863 
L 1159 4863 
L 1159 2969 
z
" transform="scale(0.015625)"/>
      <path id="DejaVuSans-75" d="M 544 1381 
L 544 3500 
L 1119 3500 
L 1119 1403 
Q 1119 906 1312 657 
Q 1506 409 1894 409 
Q 2359 409 2629 706 
Q 2900 1003 2900 1516 
L 2900 3500 
L 3475 3500 
L 3475 0 
L 2900 0 
L 2900 538 
Q 2691 219 2414 64 
Q 2138 -91 1772 -91 
Q 1169 -91 856 284 
Q 544 659 544 1381 
z
M 1991 3584 
L 1991 3584 
z
" transform="scale(0.015625)"/>
      <path id="DejaVuSans-67" d="M 2906 1791 
Q 2906 2416 2648 2759 
Q 2391 3103 1925 3103 
Q 1463 3103 1205 2759 
Q 947 2416 947 1791 
Q 947 1169 1205 825 
Q 1463 481 1925 481 
Q 2391 481 2648 825 
Q 2906 1169 2906 1791 
z
M 3481 434 
Q 3481 -459 3084 -895 
Q 2688 -1331 1869 -1331 
Q 1566 -1331 1297 -1286 
Q 1028 -1241 775 -1147 
L 775 -588 
Q 1028 -725 1275 -790 
Q 1522 -856 1778 -856 
Q 2344 -856 2625 -561 
Q 2906 -266 2906 331 
L 2906 616 
Q 2728 306 2450 153 
Q 2172 0 1784 0 
Q 1141 0 747 490 
Q 353 981 353 1791 
Q 353 2603 747 3093 
Q 1141 3584 1784 3584 
Q 2172 3584 2450 3431 
Q 2728 3278 2906 2969 
L 2906 3500 
L 3481 3500 
L 3481 434 
z
" transform="scale(0.015625)"/>
     </defs>
     <use xlink:href="#DejaVuSans-48"/>
     <use xlink:href="#DejaVuSans-61" x="75.195312"/>
     <use xlink:href="#DejaVuSans-72" x="136.474609"/>
     <use xlink:href="#DejaVuSans-72" x="175.837891"/>
     <use xlink:href="#DejaVuSans-69" x="216.951172"/>
     <use xlink:href="#DejaVuSans-73" x="244.734375"/>
     <use xlink:href="#DejaVuSans-62" x="296.833984"/>
     <use xlink:href="#DejaVuSans-75" x="360.310547"/>
     <use xlink:href="#DejaVuSans-72" x="423.689453"/>
     <use xlink:href="#DejaVuSans-67" x="463.052734"/>
    </g>
   </g>
   <g id="text_2">
    <!-- Pennsylvania -->
    <g transform="translate(145.084688 114.792463) scale(0.12 -0.12)">
     <defs>
      <path id="DejaVuSans-50" d="M 1259 4147 
L 1259 2394 
L 2053 2394 
Q 2494 2394 2734 2622 
Q 2975 2850 2975 3272 
Q 2975 3691 2734 3919 
Q 2494 4147 2053 4147 
L 1259 4147 
z
M 628 4666 
L 2053 4666 
Q 2838 4666 3239 4311 
Q 3641 3956 3641 3272 
Q 3641 2581 3239 2228 
Q 2838 1875 2053 1875 
L 1259 1875 
L 1259 0 
L 628 0 
L 628 4666 
z
" transform="scale(0.015625)"/>
      <path id="DejaVuSans-65" d="M 3597 1894 
L 3597 1613 
L 953 1613 
Q 991 1019 1311 708 
Q 1631 397 2203 397 
Q 2534 397 2845 478 
Q 3156 559 3463 722 
L 3463 178 
Q 3153 47 2828 -22 
Q 2503 -91 2169 -91 
Q 1331 -91 842 396 
Q 353 884 353 1716 
Q 353 2575 817 3079 
Q 1281 3584 2069 3584 
Q 2775 3584 3186 3129 
Q 3597 2675 3597 1894 
z
M 3022 2063 
Q 3016 2534 2758 2815 
Q 2500 3097 2075 3097 
Q 1594 3097 1305 2825 
Q 1016 2553 972 2059 
L 3022 2063 
z
" transform="scale(0.015625)"/>
      <path id="DejaVuSans-6e" d="M 3513 2113 
L 3513 0 
L 2938 0 
L 2938 2094 
Q 2938 2591 2744 2837 
Q 2550 3084 2163 3084 
Q 1697 3084 1428 2787 
Q 1159 2491 1159 1978 
L 1159 0 
L 581 0 
L 581 3500 
L 1159 3500 
L 1159 2956 
Q 1366 3272 1645 3428 
Q 1925 3584 2291 3584 
Q 2894 3584 3203 3211 
Q 3513 2838 3513 2113 
z
" transform="scale(0.015625)"/>
      <path id="DejaVuSans-79" d="M 2059 -325 
Q 1816 -950 1584 -1140 
Q 1353 -1331 966 -1331 
L 506 -1331 
L 506 -850 
L 844 -850 
Q 1081 -850 1212 -737 
Q 1344 -625 1503 -206 
L 1606 56 
L 191 3500 
L 800 3500 
L 1894 763 
L 2988 3500 
L 3597 3500 
L 2059 -325 
z
" transform="scale(0.015625)"/>
      <path id="DejaVuSans-6c" d="M 603 4863 
L 1178 4863 
L 1178 0 
L 603 0 
L 603 4863 
z
" transform="scale(0.015625)"/>
      <path id="DejaVuSans-76" d="M 191 3500 
L 800 3500 
L 1894 563 
L 2988 3500 
L 3597 3500 
L 2284 0 
L 1503 0 
L 191 3500 
z
" transform="scale(0.015625)"/>
     </defs>
     <use xlink:href="#DejaVuSans-50"/>
     <use xlink:href="#DejaVuSans-65" x="56.677734"/>
     <use xlink:href="#DejaVuSans-6e" x="118.201172"/>
     <use xlink:href="#DejaVuSans-6e" x="181.580078"/>
     <use xlink:href="#DejaVuSans-73" x="244.958984"/>
     <use xlink:href="#DejaVuSans-79" x="297.058594"/>
     <use xlink:href="#DejaVuSans-6c" x="356.238281"/>
     <use xlink:href="#DejaVuSans-76" x="384.021484"/>
     <use xlink:href="#DejaVuSans-61" x="443.201172"/>
     <use xlink:href="#DejaVuSans-6e" x="504.480469"/>
     <use xlink:href="#DejaVuSans-69" x="567.859375"/>
     <use xlink:href="#DejaVuSans-61" x="595.642578"/>
    </g>
   </g>
  </g>
 </g>
 <defs>
  <clipPath id="pc3641a83b9">
   <rect x="45" y="120.792463" width="279" height="122.015075"/>
  </clipPath>
 </defs>
</svg>
