<?xml version="1.0" encoding="utf-8" standalone="no"?>
<!DOCTYPE svg PUBLIC "-//W3C//DTD SVG 1.1//EN"
  "http://www.w3.org/Graphics/SVG/1.1/DTD/svg11.dtd">
<svg xmlns:xlink="http://www.w3.org/1999/xlink" width="460.8pt" height="345.6pt" viewBox="0 0 460.8 345.6" xmlns="http://www.w3.org/2000/svg" version="1.1">
 <metadata>
  <rdf:RDF xmlns:dc="http://purl.org/dc/elements/1.1/" xmlns:cc="http://creativecommons.org/ns#" xmlns:rdf="http://www.w3.org/1999/02/22-rdf-syntax-ns#">
   <cc:Work>
    <dc:type rdf:resource="http://purl.org/dc/dcmitype/StillImage"/>
    <dc:date>2023-06-19T14:47:53.759191</dc:date>
    <dc:format>image/svg+xml</dc:format>
    <dc:creator>
     <cc:Agent>
      <dc:title>Matplotlib v3.7.1, https://matplotlib.org/</dc:title>
     </cc:Agent>
    </dc:creator>
   </cc:Work>
  </rdf:RDF>
 </metadata>
 <defs>
  <style type="text/css">*{stroke-linejoin: round; stroke-linecap: butt}</style>
 </defs>
 <g id="figure_1">
  <g id="patch_1">
   <path d="M 0 345.6 
L 460.8 345.6 
L 460.8 0 
L 0 0 
z
" style="fill: #ffffff"/>
  </g>
  <g id="axes_1">
   <g id="PatchCollection_1">
    <path d="M 384.646127 155.512538 
L 384.860701 155.361946 
L 385.62087 156.314581 
L 386.525861 156.771921 
L 387.949134 156.815028 
L 387.952939 156.819399 
L 388.596716 157.558913 
L 389.322739 157.750571 
L 390.27189 157.477478 
L 392.724619 156.771769 
L 394.384365 156.294221 
L 398.487273 158.953303 
L 398.333854 160.272288 
L 395.109791 162.003242 
L 394.495794 162.367042 
L 393.865129 162.740717 
L 393.557027 162.890399 
L 391.120664 164.074029 
L 391.118408 164.073193 
L 390.749021 163.936418 
L 385.815956 162.109817 
L 384.651765 160.543248 
L 385.859671 158.616115 
L 385.861564 158.613095 
L 384.100532 155.895447 
L 384.646127 155.512538 
" clip-path="url(#p910252085a)" style="fill: #33ff57"/>
    <path d="M 356.221176 184.753615 
L 359.728914 184.293636 
L 363.846388 182.595609 
L 366.459044 182.209528 
L 369.075998 181.222332 
L 372.759481 179.476296 
L 377.241578 178.939025 
L 380.601748 179.494268 
L 385.029282 180.720377 
L 387.514189 181.155849 
L 388.082376 181.045755 
L 388.849111 181.558896 
L 389.732493 181.340092 
L 390.560357 180.678149 
L 392.088217 182.395782 
L 391.962975 182.709221 
L 391.123171 182.575626 
L 389.596386 183.205144 
L 386.401694 183.381218 
L 385.877563 183.693275 
L 384.525806 185.159553 
L 384.104233 185.292646 
L 383.094654 185.225534 
L 382.437042 185.17564 
L 383.059194 183.788162 
L 382.508558 183.565838 
L 381.257091 183.619503 
L 380.327504 184.03097 
L 380.141253 184.798859 
L 380.23808 185.712283 
L 379.20116 185.962632 
L 378.799047 185.411914 
L 377.977869 185.681366 
L 377.208865 185.612872 
L 377.203521 185.614103 
L 375.779025 185.942272 
L 374.781669 186.68141 
L 374.491364 186.896555 
L 374.34656 187.003869 
L 374.042588 187.508464 
L 371.049548 188.470273 
L 370.40125 188.258884 
L 369.322065 188.266801 
L 369.30515 188.236741 
L 369.086699 187.848527 
L 368.97356 187.647463 
L 367.657621 187.181326 
L 364.377324 187.772763 
L 362.354345 188.987938 
L 360.219854 189.08848 
L 358.242842 188.525068 
L 356.970242 187.776534 
L 356.812286 187.059041 
L 356.068235 186.317671 
L 356.221176 184.753615 
" clip-path="url(#p910252085a)" style="fill: #33ff57"/>
    <path d="M 354.002991 149.937207 
L 354.949293 149.851244 
L 356.885965 151.228963 
L 357.256902 151.492842 
L 357.370921 154.256237 
L 357.5715 155.553856 
L 357.164493 156.275621 
L 356.046147 155.179714 
L 354.992274 152.042681 
L 353.873928 151.183299 
L 354.002991 149.937207 
" clip-path="url(#p910252085a)" style="fill: #33ff57"/>
    <path d="M 241.876312 212.594551 
L 243.7208 210.888983 
L 245.139655 211.031124 
L 245.139655 212.736692 
L 243.7208 214.015837 
L 242.01815 214.584401 
L 241.975031 213.979492 
L 241.876312 212.594551 
" clip-path="url(#p910252085a)" style="fill: #33ff57"/>
    <path d="M 154.128652 153.168373 
L 155.034599 152.7652 
L 157.61119 152.121657 
L 159.085213 151.753497 
L 160.248808 151.272027 
L 162.019511 150.287973 
L 162.097326 150.237918 
L 163.351814 149.430967 
L 167.036684 147.06067 
L 167.100717 147.019481 
L 167.459968 146.633903 
L 167.621625 145.952983 
L 167.45758 144.047588 
L 166.845457 142.300672 
L 165.978074 140.68069 
L 165.977477 139.155469 
L 166.559155 138.035935 
L 166.687217 137.921528 
L 169.103877 135.762557 
L 169.650812 135.47463 
L 169.704748 135.456913 
L 171.154435 134.980718 
L 173.803443 134.626642 
L 174.963399 134.471599 
L 176.690047 134.785918 
L 183.735849 135.11934 
L 187.474969 136.737939 
L 187.493133 136.743039 
L 189.454164 137.293594 
L 190.987244 137.724004 
L 191.202986 137.818136 
L 191.228793 137.812818 
L 192.766663 137.495899 
L 193.750072 137.718949 
L 197.23904 138.510293 
L 197.275384 138.518536 
L 197.925147 138.393317 
L 199.294047 138.129509 
L 201.989699 137.610014 
L 204.10449 137.615042 
L 205.624709 138.002882 
L 205.661154 137.997665 
L 206.998845 137.806173 
L 210.116238 137.359916 
L 212.385761 137.53134 
L 214.226543 138.450509 
L 216.088108 139.380055 
L 216.95179 139.633923 
L 217.916597 139.787752 
L 220.691627 139.894075 
L 220.694304 139.893162 
L 221.811982 139.511961 
L 222.593551 139.245395 
L 223.918077 138.793644 
L 224.376901 138.344096 
L 226.22891 137.98403 
L 228.440648 137.862375 
L 230.974266 137.180952 
L 235.492091 138.343593 
L 235.814897 138.426666 
L 238.063408 138.271329 
L 238.071562 138.260522 
L 238.340994 137.903471 
L 238.27306 137.644324 
L 238.284656 137.645611 
L 238.867871 137.710305 
L 241.693045 138.807971 
L 241.884992 138.746798 
L 242.333464 138.603871 
L 244.466642 139.36158 
L 249.399563 140.339099 
L 249.402947 140.339138 
L 251.047889 140.357951 
L 251.91969 140.097673 
L 252.522887 139.339056 
L 252.769701 139.028647 
L 252.795072 138.996739 
L 253.020843 138.271078 
L 253.157887 138.247484 
L 255.294067 137.879718 
L 256.556877 137.722998 
L 258.439183 137.740027 
L 258.473955 137.740342 
L 260.361086 137.939445 
L 260.503739 137.954496 
L 261.036944 137.994462 
L 263.803591 138.169239 
L 265.180354 138.256214 
L 265.22665 138.259138 
L 267.883242 139.628519 
L 267.93657 139.634021 
L 270.778738 139.927254 
L 271.680148 139.945352 
L 272.524966 139.200588 
L 273.336832 138.93013 
L 274.743748 139.354291 
L 274.969399 139.517419 
L 275.014871 139.550292 
L 275.515975 139.91255 
L 276.680048 140.380573 
L 279.264766 140.724929 
L 281.264583 140.708716 
L 281.797988 140.642255 
L 282.3963 140.567706 
L 283.255565 140.255901 
L 283.401544 140.463047 
L 283.81026 141.043018 
L 285.007165 141.664493 
L 286.300778 142.307584 
L 287.272361 142.176288 
L 287.277285 142.175623 
L 288.568152 140.941848 
L 289.077479 139.733083 
L 290.11704 139.900665 
L 290.642645 139.985395 
L 290.657752 139.987831 
L 291.634498 140.244464 
L 294.552917 140.657691 
L 295.345995 141.083696 
L 295.40293 141.114278 
L 295.60882 141.224873 
L 295.680508 141.25681 
L 296.715227 141.71778 
L 300.382353 142.276416 
L 300.839863 142.177634 
L 301.183873 142.708596 
L 301.191951 142.721063 
L 302.765082 143.499995 
L 302.776283 143.505541 
L 304.769891 143.446221 
L 305.885371 142.748963 
L 306.39219 141.794569 
L 306.406069 141.731372 
L 306.407093 141.726707 
L 306.424931 141.645479 
L 306.462154 141.475977 
L 306.648286 141.426334 
L 310.504411 142.5656 
L 314.423096 143.37911 
L 315.47697 143.412037 
L 316.561885 143.126247 
L 316.892362 142.61939 
L 320.03297 144.203428 
L 323.783088 144.84293 
L 324.781813 145.013241 
L 324.791698 145.014926 
L 325.66911 145.645324 
L 326.029611 146.060763 
L 327.434322 147.679539 
L 328.735456 147.662823 
L 330.375067 146.21326 
L 330.733107 146.616374 
L 330.80058 146.692343 
L 331.277432 147.398273 
L 332.39936 147.268629 
L 332.419417 147.266311 
L 332.945578 147.393371 
L 333.038823 147.829095 
L 332.806486 148.23076 
L 333.723966 149.188764 
L 335.342373 150.878657 
L 335.375267 150.898466 
L 336.333446 151.475499 
L 337.358666 151.255312 
L 337.365145 151.24808 
L 337.785731 150.778617 
L 337.469223 149.951786 
L 337.644132 149.634827 
L 339.143458 150.036869 
L 339.646602 151.963627 
L 339.654217 151.992787 
L 341.477453 153.021707 
L 342.577053 153.183329 
L 343.348804 152.980234 
L 344.449956 153.55194 
L 345.048683 153.610189 
L 345.562213 153.660149 
L 346.870033 153.175285 
L 347.370286 152.279708 
L 348.08222 151.595897 
L 348.194334 151.550018 
L 350.399801 150.647491 
L 350.437467 150.632078 
L 351.17531 150.54712 
L 351.66434 151.287234 
L 351.005057 153.126648 
L 349.330822 155.621596 
L 349.601435 156.265007 
L 350.153672 157.578016 
L 350.526337 163.032516 
L 350.636136 164.639577 
L 352.504972 166.384636 
L 352.714755 166.580524 
L 352.792834 166.653432 
L 356.30881 167.911965 
L 354.608906 170.568408 
L 353.417135 172.52621 
L 352.083406 172.781587 
L 352.04789 172.6922 
L 351.260437 170.710298 
L 348.746995 170.495264 
L 348.820245 171.080695 
L 348.820353 171.081559 
L 348.820541 171.083057 
L 349.913097 173.508002 
L 349.093232 174.158257 
L 345.844906 173.30941 
L 345.649249 173.258281 
L 342.470794 174.784759 
L 342.021164 175.787539 
L 342.43832 176.794592 
L 341.861059 176.753621 
L 341.81981 176.731566 
L 341.276597 176.441117 
L 340.065522 175.793571 
L 339.869958 175.519218 
L 339.217361 175.38977 
L 337.967088 175.966378 
L 337.227693 176.622414 
L 336.729828 177.414433 
L 336.695124 177.4914 
L 336.156985 178.684905 
L 334.354643 179.609388 
L 333.376702 180.637052 
L 332.103386 183.048173 
L 329.819775 188.765615 
L 329.870158 189.257139 
L 330.051439 189.403323 
L 330.061544 189.411471 
L 330.020712 190.045639 
L 330.018616 190.050513 
L 329.814461 190.52543 
L 329.208487 191.935073 
L 328.331792 192.149856 
L 327.384655 191.325412 
L 327.375119 191.332182 
L 326.341049 192.066406 
L 325.93107 192.627717 
L 325.917776 192.645918 
L 325.715196 192.923274 
L 325.335051 194.390684 
L 325.339611 194.453307 
L 325.55533 197.41599 
L 324.700244 197.395756 
L 323.348516 197.788226 
L 321.029655 198.4615 
L 320.458125 198.935429 
L 319.286292 200.733245 
L 319.126708 200.70708 
L 317.980444 200.519145 
L 317.95328 200.514692 
L 316.852844 201.3047 
L 315.83492 201.739893 
L 314.53437 202.295917 
L 310.582124 202.971056 
L 308.347903 203.352715 
L 308.341146 203.35387 
L 307.393293 203.13494 
L 307.296824 202.82791 
L 306.123558 201.931201 
L 304.625666 201.73615 
L 303.482248 201.856549 
L 303.215898 202.011022 
L 302.683277 202.319922 
L 299.986807 204.964551 
L 299.694536 205.001249 
L 299.685656 204.996489 
L 298.654005 204.443457 
L 298.598039 204.413456 
L 297.349079 203.521523 
L 297.193729 203.518736 
L 295.828979 203.494251 
L 291.676047 205.68242 
L 290.384822 205.957402 
L 289.42682 206.658808 
L 287.88917 207.589952 
L 286.996714 208.162664 
L 286.58911 208.10812 
L 285.542161 207.650026 
L 284.658779 207.367503 
L 283.666273 207.340859 
L 283.246801 207.304114 
L 282.458264 207.235039 
L 282.020334 208.079717 
L 281.089785 208.778855 
L 280.543455 209.189322 
L 279.416222 209.888041 
L 278.756992 210.296666 
L 276.508362 210.127881 
L 275.237314 209.332469 
L 275.558443 207.739952 
L 275.558837 207.738 
L 274.784221 207.227121 
L 273.994305 206.266553 
L 273.989667 206.260913 
L 272.638149 205.793142 
L 270.831628 206.015465 
L 270.008182 204.424767 
L 270.002455 204.419282 
L 267.707377 202.221014 
L 266.906376 201.988133 
L 265.176042 202.245069 
L 265.147612 202.249291 
L 262.267757 203.283239 
L 261.958889 203.710416 
L 261.519646 204.604611 
L 261.184222 205.388568 
L 261.183677 205.389843 
L 260.580283 205.977701 
L 259.575705 206.956412 
L 258.839295 206.099921 
L 257.917827 205.458212 
L 256.343523 204.658778 
L 252.361799 201.882187 
L 251.778378 201.398753 
L 251.238678 200.951546 
L 250.468122 200.513058 
L 248.689507 200.513743 
L 248.356897 200.513871 
L 248.336072 200.513879 
L 246.879913 200.51444 
L 246.872219 200.516447 
L 244.668447 201.091104 
L 244.64167 201.098086 
L 241.012831 202.37272 
L 236.216755 204.057348 
L 235.915306 204.163232 
L 235.798615 204.007285 
L 235.175258 203.174225 
L 235.148212 203.138081 
L 234.58301 202.975204 
L 233.312321 203.184708 
L 231.073362 201.67218 
L 230.0996 201.459032 
L 228.463093 201.771466 
L 227.012958 202.482171 
L 226.399063 203.10408 
L 226.225687 203.27972 
L 225.21945 203.506945 
L 222.079903 202.109775 
L 220.797527 201.539088 
L 220.375118 200.828508 
L 219.949724 200.504135 
L 218.259014 200.338995 
L 216.452612 200.503506 
L 215.845026 200.947399 
L 215.373835 200.927736 
L 215.257736 200.922892 
L 215.001082 199.924708 
L 214.993761 199.896233 
L 214.787809 199.495466 
L 214.274543 198.49669 
L 213.580159 198.542185 
L 211.815544 199.811024 
L 211.81578 199.843508 
L 211.824575 201.054804 
L 211.831543 202.014526 
L 211.557896 202.694692 
L 209.047679 203.609497 
L 207.360669 205.009041 
L 205.428428 205.583135 
L 203.792223 204.945608 
L 203.730851 204.921696 
L 203.414418 204.798401 
L 203.292505 204.750899 
L 202.934704 205.031997 
L 202.567676 205.320344 
L 202.449716 206.244701 
L 200.80521 205.834616 
L 200.568456 205.376647 
L 200.072979 205.257002 
L 198.138947 205.788366 
L 197.65816 205.560284 
L 197.548434 205.508231 
L 196.992815 205.587496 
L 196.978456 205.589545 
L 196.600819 205.895443 
L 195.800363 207.808446 
L 195.791819 207.828864 
L 195.251212 208.474721 
L 194.8411 208.480753 
L 193.112303 207.715881 
L 191.460395 207.892332 
L 190.932563 206.804091 
L 189.965129 205.919951 
L 188.482877 205.367347 
L 188.419084 205.259681 
L 188.225826 204.933509 
L 188.281104 204.167882 
L 187.956349 203.62633 
L 187.817983 203.395594 
L 186.531295 203.291659 
L 185.988786 203.826676 
L 185.595141 204.214885 
L 184.396326 203.253453 
L 183.228911 202.970176 
L 178.697266 202.580954 
L 177.019092 203.342559 
L 176.288955 204.287362 
L 175.432013 205.396253 
L 174.04217 205.999127 
L 174.01072 206.002295 
L 173.025308 206.101554 
L 170.844493 205.80659 
L 170.189986 205.333288 
L 166.21447 203.931483 
L 164.837283 203.715443 
L 164.247247 203.977606 
L 163.625334 205.450168 
L 163.773738 206.045502 
L 164.369027 207.113509 
L 164.253336 207.945367 
L 162.900863 207.732847 
L 162.820521 207.621153 
L 162.645484 207.377808 
L 161.834812 206.137875 
L 160.902718 205.244686 
L 160.895498 205.200093 
L 160.83347 204.817006 
L 160.567346 204.011539 
L 160.454998 201.368795 
L 160.848753 200.171215 
L 161.359631 199.539561 
L 164.917634 198.174327 
L 165.346729 197.889417 
L 165.573812 197.417247 
L 165.604735 196.598333 
L 165.410961 196.205465 
L 163.081861 195.287769 
L 161.097804 194.836713 
L 162.672944 190.934178 
L 162.491707 189.635051 
L 162.360137 187.836985 
L 162.84057 187.206838 
L 164.197938 186.259985 
L 164.405561 185.653717 
L 165.077499 180.307526 
L 164.831074 179.267923 
L 164.567934 178.169879 
L 164.582325 178.153958 
L 167.628788 174.783376 
L 167.929656 173.716124 
L 167.29258 172.053915 
L 165.501819 170.301092 
L 165.219626 168.180291 
L 165.211815 168.121595 
L 163.729683 165.776078 
L 163.726087 165.750566 
L 163.475616 163.973361 
L 163.463443 163.953508 
L 162.749116 162.788475 
L 161.59628 162.393099 
L 161.088731 162.21903 
L 159.245308 162.008586 
L 159.16437 161.999346 
L 158.083155 161.595545 
L 156.535212 158.914965 
L 154.234863 154.931441 
L 154.221181 154.907748 
L 153.759611 153.75403 
L 154.128652 153.168373 
" clip-path="url(#p910252085a)" style="fill: #33ff57"/>
    <path d="M 127.232968 150.429234 
L 128.509866 149.437137 
L 129.644926 150.003942 
L 130.49631 151.56297 
L 129.36125 152.696957 
L 127.516643 151.988262 
L 127.232968 150.429234 
" clip-path="url(#p910252085a)" style="fill: #33ff57"/>
    <path d="M 74.587285 185.301946 
L 74.86117 185.061274 
L 77.404818 184.251032 
L 79.689982 184.967141 
L 80.24408 185.142587 
L 81.517874 184.94364 
L 82.308965 184.35371 
L 83.294666 183.939854 
L 84.882938 185.677219 
L 85.485033 187.369088 
L 85.435724 188.595573 
L 85.235384 188.99284 
L 84.303529 189.46325 
L 82.811128 191.066265 
L 82.111013 192.02644 
L 79.588869 192.618883 
L 79.190803 192.712388 
L 78.174777 191.85929 
L 76.461859 191.358339 
L 75.379809 190.672644 
L 73.832727 189.272095 
L 74.587285 185.301946 
" clip-path="url(#p910252085a)" style="fill: #33ff57"/>
   </g>
   <g id="text_1">
    <!-- PR -->
    <g transform="translate(228.373125 124.465958) scale(0.12 -0.12)">
     <defs>
      <path id="DejaVuSans-50" d="M 1259 4147 
L 1259 2394 
L 2053 2394 
Q 2494 2394 2734 2622 
Q 2975 2850 2975 3272 
Q 2975 3691 2734 3919 
Q 2494 4147 2053 4147 
L 1259 4147 
z
M 628 4666 
L 2053 4666 
Q 2838 4666 3239 4311 
Q 3641 3956 3641 3272 
Q 3641 2581 3239 2228 
Q 2838 1875 2053 1875 
L 1259 1875 
L 1259 0 
L 628 0 
L 628 4666 
z
" transform="scale(0.015625)"/>
      <path id="DejaVuSans-52" d="M 2841 2188 
Q 3044 2119 3236 1894 
Q 3428 1669 3622 1275 
L 4263 0 
L 3584 0 
L 2988 1197 
Q 2756 1666 2539 1819 
Q 2322 1972 1947 1972 
L 1259 1972 
L 1259 0 
L 628 0 
L 628 4666 
L 2053 4666 
Q 2853 4666 3247 4331 
Q 3641 3997 3641 3322 
Q 3641 2881 3436 2590 
Q 3231 2300 2841 2188 
z
M 1259 4147 
L 1259 2491 
L 2053 2491 
Q 2509 2491 2742 2702 
Q 2975 2913 2975 3322 
Q 2975 3731 2742 3939 
Q 2509 4147 2053 4147 
L 1259 4147 
z
" transform="scale(0.015625)"/>
     </defs>
     <use xlink:href="#DejaVuSans-50"/>
     <use xlink:href="#DejaVuSans-52" x="60.302734"/>
    </g>
   </g>
  </g>
 </g>
 <defs>
  <clipPath id="p910252085a">
   <rect x="57.6" y="130.465958" width="357.12" height="88.124083"/>
  </clipPath>
 </defs>
</svg>
