<?xml version="1.0" encoding="utf-8" standalone="no"?>
<!DOCTYPE svg PUBLIC "-//W3C//DTD SVG 1.1//EN"
  "http://www.w3.org/Graphics/SVG/1.1/DTD/svg11.dtd">
<svg xmlns:xlink="http://www.w3.org/1999/xlink" width="360pt" height="360pt" viewBox="0 0 360 360" xmlns="http://www.w3.org/2000/svg" version="1.1">
 <metadata>
  <rdf:RDF xmlns:dc="http://purl.org/dc/elements/1.1/" xmlns:cc="http://creativecommons.org/ns#" xmlns:rdf="http://www.w3.org/1999/02/22-rdf-syntax-ns#">
   <cc:Work>
    <dc:type rdf:resource="http://purl.org/dc/dcmitype/StillImage"/>
    <dc:date>2023-06-19T15:20:29.150448</dc:date>
    <dc:format>image/svg+xml</dc:format>
    <dc:creator>
     <cc:Agent>
      <dc:title>Matplotlib v3.7.1, https://matplotlib.org/</dc:title>
     </cc:Agent>
    </dc:creator>
   </cc:Work>
  </rdf:RDF>
 </metadata>
 <defs>
  <style type="text/css">*{stroke-linejoin: round; stroke-linecap: butt}</style>
 </defs>
 <g id="figure_1">
  <g id="patch_1">
   <path d="M 0 360 
L 360 360 
L 360 0 
L 0 0 
z
" style="fill: #ffffff"/>
  </g>
  <g id="axes_1">
   <g id="PatchCollection_1">
    <path d="M 300.504787 167.687137 
L 300.672422 167.575371 
L 301.266305 168.282396 
L 301.973329 168.621823 
L 303.085261 168.653817 
L 303.088234 168.657061 
L 303.591185 169.205912 
L 304.15839 169.348156 
L 304.899914 169.145472 
L 306.816109 168.621711 
L 308.112785 168.267285 
L 311.318182 170.240798 
L 311.198323 171.21972 
L 308.679524 172.504397 
L 308.199839 172.774401 
L 307.707132 173.051735 
L 307.466427 173.162825 
L 305.563019 174.041289 
L 305.561257 174.040669 
L 305.272673 173.939158 
L 301.418716 172.583494 
L 300.509191 171.420821 
L 301.452868 169.990544 
L 301.454347 169.988303 
L 300.07854 167.971323 
L 300.504787 167.687137 
" clip-path="url(#pa2e6cbf3db)" style="fill: #d40000"/>
    <path d="M 278.297794 189.38923 
L 281.038214 189.047843 
L 284.25499 187.787604 
L 286.296128 187.501063 
L 288.340623 186.768388 
L 291.218345 185.472518 
L 294.719983 185.073767 
L 297.345115 185.485856 
L 300.804127 186.395847 
L 302.74546 186.719045 
L 303.189356 186.637337 
L 303.788368 187.018178 
L 304.47851 186.855787 
L 305.125279 186.364507 
L 306.31892 187.639297 
L 306.221074 187.871925 
L 305.564978 187.772774 
L 304.372177 188.239988 
L 301.876323 188.370666 
L 301.466846 188.602268 
L 300.410786 189.690508 
L 300.081432 189.789286 
L 299.292698 189.739478 
L 298.778939 189.702447 
L 299.264995 188.672691 
L 298.834811 188.507688 
L 297.857102 188.547516 
L 297.130863 188.852898 
L 296.985354 189.422809 
L 297.061 190.100732 
L 296.250906 190.286536 
L 295.936756 189.877804 
L 295.29521 190.077786 
L 294.694425 190.026951 
L 294.690251 190.027865 
L 293.577364 190.271425 
L 292.798179 190.819997 
L 292.571378 190.979673 
L 292.45825 191.059319 
L 292.220772 191.433819 
L 289.88246 192.147652 
L 289.375976 191.990764 
L 288.532863 191.99664 
L 288.519648 191.97433 
L 288.348984 191.686206 
L 288.260593 191.536981 
L 287.232516 191.191024 
L 284.669784 191.629976 
L 283.089332 192.531852 
L 281.421761 192.606472 
L 279.87722 192.18832 
L 278.883001 191.632774 
L 278.759598 191.100267 
L 278.178308 190.550038 
L 278.297794 189.38923 
" clip-path="url(#pa2e6cbf3db)" style="fill: #d40000"/>
    <path d="M 276.564837 163.549247 
L 277.304135 163.485447 
L 278.81716 164.50796 
L 279.106955 164.703806 
L 279.196032 166.754737 
L 279.352734 167.717802 
L 279.03476 168.25348 
L 278.161053 167.440122 
L 277.337714 165.111884 
L 276.464007 164.474069 
L 276.564837 163.549247 
" clip-path="url(#pa2e6cbf3db)" style="fill: #d40000"/>
    <path d="M 188.965869 210.052168 
L 190.406875 208.786333 
L 191.515355 208.891827 
L 191.515355 210.157662 
L 190.406875 211.107016 
L 189.076679 211.528992 
L 189.042993 211.080041 
L 188.965869 210.052168 
" clip-path="url(#pa2e6cbf3db)" style="fill: #d40000"/>
    <path d="M 120.413009 165.947348 
L 121.12078 165.648122 
L 123.133742 165.170498 
L 124.285322 164.897258 
L 125.194381 164.539921 
L 126.577743 163.809578 
L 126.638536 163.772428 
L 127.618605 163.173527 
L 130.497409 161.414344 
L 130.547435 161.383774 
L 130.8281 161.097606 
L 130.954394 160.592242 
L 130.826234 159.178099 
L 130.348013 157.881576 
L 129.67037 156.679261 
L 129.669904 155.547275 
L 130.12434 154.716381 
L 130.224388 154.631471 
L 132.112404 153.029129 
L 132.539697 152.815436 
L 132.581835 152.802287 
L 133.714402 152.448865 
L 135.78394 152.186078 
L 136.690156 152.071008 
L 138.039099 152.304289 
L 143.543632 152.551748 
L 146.46482 153.753037 
L 146.47901 153.756822 
L 148.011066 154.165432 
L 149.208785 154.484873 
L 149.377333 154.554736 
L 149.397494 154.550789 
L 150.598956 154.315579 
L 151.367244 154.481121 
L 154.093 155.068439 
L 154.121394 155.074557 
L 154.629021 154.981622 
L 155.698474 154.785829 
L 157.804452 154.400272 
L 159.456633 154.404003 
L 160.644304 154.69185 
L 160.672776 154.687978 
L 161.717848 154.545857 
L 164.153311 154.214655 
L 165.926376 154.341882 
L 167.364487 155.024069 
L 168.818834 155.713958 
L 169.493586 155.902373 
L 170.247342 156.016542 
L 172.415333 156.095453 
L 172.417425 156.094775 
L 173.290611 155.811855 
L 173.901212 155.614016 
L 174.935998 155.278737 
L 175.294454 154.945092 
L 176.741336 154.677859 
L 178.469256 154.587569 
L 180.448646 154.081831 
L 183.978196 154.944719 
L 184.230389 155.006373 
L 185.987037 154.891085 
L 185.993408 154.883065 
L 186.203902 154.618069 
L 186.150828 154.425736 
L 186.159887 154.426691 
L 186.615524 154.474706 
L 188.822692 155.28937 
L 188.97265 155.243969 
L 189.323019 155.137891 
L 190.989564 155.700246 
L 194.843408 156.42574 
L 194.846052 156.425768 
L 196.131164 156.439731 
L 196.812258 156.246558 
L 197.283505 155.683529 
L 197.476329 155.45315 
L 197.49615 155.429469 
L 197.672533 154.890899 
L 197.779599 154.873388 
L 199.44849 154.60044 
L 200.43506 154.484127 
L 201.905612 154.496765 
L 201.932777 154.496998 
L 203.407099 154.644769 
L 203.518546 154.655939 
L 203.935113 154.685601 
L 206.096556 154.815317 
L 207.172152 154.879867 
L 207.20832 154.882038 
L 209.283783 155.898363 
L 209.325445 155.902446 
L 211.545889 156.120077 
L 212.250115 156.133509 
L 212.91013 155.580761 
L 213.5444 155.380033 
L 214.643553 155.694836 
L 214.819843 155.815906 
L 214.855368 155.840304 
L 215.246856 156.109164 
L 216.156287 156.45652 
L 218.175598 156.712094 
L 219.737955 156.700061 
L 220.154678 156.650735 
L 220.622109 156.595407 
L 221.29341 156.363992 
L 221.407456 156.517731 
L 221.726766 156.948173 
L 222.661848 157.409418 
L 223.672483 157.886706 
L 224.431532 157.789262 
L 224.435379 157.788768 
L 225.443869 156.873087 
L 225.84178 155.975967 
L 226.653938 156.100344 
L 227.064566 156.163228 
L 227.076369 156.165036 
L 227.839452 156.355504 
L 230.119467 156.662192 
L 230.739059 156.978363 
L 230.783539 157.001061 
L 230.944391 157.083142 
L 231.000397 157.106845 
L 231.808771 157.448967 
L 234.673713 157.863574 
L 235.031143 157.79026 
L 235.299901 158.184328 
L 235.306211 158.193581 
L 236.535221 158.771688 
L 236.543971 158.775804 
L 238.101478 158.731778 
L 238.972946 158.214288 
L 239.368899 157.505958 
L 239.379741 157.459055 
L 239.380542 157.455592 
L 239.394477 157.395307 
L 239.423558 157.269506 
L 239.568974 157.232662 
L 242.581571 158.0782 
L 245.643044 158.681969 
L 246.466383 158.706407 
L 247.313973 158.4943 
L 247.572158 158.118122 
L 250.025758 159.29376 
L 252.955537 159.768385 
L 253.735791 159.894786 
L 253.743514 159.896037 
L 254.428992 160.363905 
L 254.710634 160.672234 
L 255.808064 161.873655 
L 256.824575 161.861249 
L 258.105521 160.785415 
L 258.38524 161.084597 
L 258.437953 161.140979 
L 258.810494 161.664905 
L 259.687 161.568686 
L 259.70267 161.566966 
L 260.113733 161.661267 
L 260.18658 161.984652 
L 260.005067 162.282759 
L 260.721848 162.993769 
L 261.986229 164.247971 
L 262.011928 164.262673 
L 262.760505 164.690934 
L 263.561458 164.527516 
L 263.566519 164.522149 
L 263.895103 164.173724 
L 263.64783 163.560067 
L 263.784478 163.324827 
L 264.955826 163.623214 
L 265.348908 165.053212 
L 265.354857 165.074854 
L 266.77926 165.838496 
L 267.638323 165.958448 
L 268.241253 165.807716 
L 269.101528 166.232024 
L 269.569283 166.275254 
L 269.970479 166.312334 
L 270.992213 165.952478 
L 271.383036 165.287801 
L 271.939235 164.780291 
L 272.026823 164.746241 
L 273.749845 164.076405 
L 273.779271 164.064965 
L 274.355711 164.001911 
L 274.737766 164.551208 
L 274.222701 165.916381 
L 272.914705 167.768077 
L 273.126121 168.245603 
L 273.557557 169.220089 
L 273.848701 173.268301 
L 273.934481 174.461027 
L 275.39451 175.756172 
L 275.558402 175.901556 
L 275.619401 175.955666 
L 278.366258 176.889722 
L 277.038208 178.861277 
L 276.107136 180.314315 
L 275.065161 180.50385 
L 275.037414 180.437509 
L 274.422216 178.966584 
L 272.45859 178.806991 
L 272.515817 179.241485 
L 272.515901 179.242126 
L 272.516048 179.243238 
L 273.369607 181.04298 
L 272.729088 181.525585 
L 270.191333 180.895589 
L 270.038476 180.857642 
L 267.555308 181.990561 
L 267.204034 182.734802 
L 267.529937 183.482215 
L 267.078953 183.451808 
L 267.046727 183.435439 
L 266.622341 183.219874 
L 265.676189 182.73928 
L 265.523405 182.53566 
L 265.013563 182.439587 
L 264.036787 182.867533 
L 263.459135 183.354428 
L 263.070178 183.942248 
L 263.043066 183.999372 
L 262.622645 184.885165 
L 261.214565 185.571296 
L 260.450549 186.334006 
L 259.455771 188.123488 
L 257.671699 192.366849 
L 257.711061 192.731647 
L 257.852687 192.840142 
L 257.860581 192.846189 
L 257.828681 193.316855 
L 257.827044 193.320473 
L 257.667547 193.672945 
L 257.194131 194.719152 
L 256.509212 194.878559 
L 255.769261 194.266675 
L 255.761812 194.271699 
L 254.953944 194.816624 
L 254.633648 195.233217 
L 254.623262 195.246725 
L 254.464997 195.452573 
L 254.168009 196.541653 
L 254.171571 196.588131 
L 254.340101 198.786969 
L 253.672066 198.771952 
L 252.616028 199.063235 
L 250.804418 199.562924 
L 250.35791 199.914665 
L 249.442416 201.248964 
L 249.317741 201.229545 
L 248.422222 201.090064 
L 248.401 201.086759 
L 247.541284 201.673085 
L 246.746031 201.996076 
L 245.729976 202.408746 
L 242.642284 202.909819 
L 240.896799 203.193078 
L 240.89152 203.193935 
L 240.15101 203.03145 
L 240.075644 202.803579 
L 239.15903 202.138061 
L 237.988801 201.993299 
L 237.095506 202.082656 
L 236.887421 202.197302 
L 236.47131 202.426561 
L 234.364693 204.389348 
L 234.136356 204.416584 
L 234.129419 204.413051 
L 233.323442 204.002603 
L 233.279718 203.980337 
L 232.303968 203.318364 
L 232.182601 203.316295 
L 231.11639 203.298123 
L 227.871911 204.922135 
L 226.863142 205.12622 
L 226.114703 205.646788 
L 224.913414 206.337863 
L 224.216183 206.762917 
L 223.897742 206.722436 
L 223.079813 206.382449 
L 222.389671 206.172766 
L 221.614276 206.152992 
L 221.286564 206.12572 
L 220.670519 206.074454 
L 220.328386 206.701356 
L 219.601395 207.220241 
L 219.174574 207.524881 
L 218.293923 208.043455 
L 217.7789 208.346728 
L 216.022158 208.221459 
L 215.029152 207.631122 
L 215.280034 206.44919 
L 215.280341 206.447741 
L 214.675173 206.068578 
L 214.058051 205.355665 
L 214.054428 205.35148 
L 212.998554 205.00431 
L 211.58721 205.169314 
L 210.943892 203.988731 
L 210.939418 203.984661 
L 209.146389 202.353154 
L 208.520606 202.180315 
L 207.168783 202.371007 
L 207.146572 202.374141 
L 204.896685 203.141514 
L 204.655382 203.458556 
L 204.312223 204.122208 
L 204.050174 204.704044 
L 204.049748 204.70499 
L 203.578346 205.141285 
L 202.793519 205.867664 
L 202.218199 205.231994 
L 201.498302 204.755732 
L 200.268378 204.16241 
L 197.157655 202.101684 
L 196.701858 201.74289 
L 196.280217 201.410983 
L 195.67822 201.085546 
L 194.288677 201.086055 
L 194.028826 201.08615 
L 194.012556 201.086156 
L 192.874932 201.086572 
L 192.868921 201.088061 
L 191.147224 201.514559 
L 191.126305 201.519741 
L 188.291274 202.465747 
L 184.54434 203.716041 
L 184.308833 203.794626 
L 184.217668 203.678885 
L 183.73067 203.060607 
L 183.709541 203.033782 
L 183.267977 202.912897 
L 182.275251 203.068387 
L 180.526064 201.945822 
L 179.765313 201.787627 
L 178.486792 202.019509 
L 177.353873 202.546979 
L 176.874268 203.008546 
L 176.738818 203.138903 
L 175.952696 203.307544 
L 173.499924 202.270595 
L 172.498068 201.847043 
L 172.168061 201.319666 
L 171.835722 201.078923 
L 170.514854 200.95636 
L 169.103603 201.078457 
L 168.628927 201.407905 
L 168.260809 201.393312 
L 168.170107 201.389716 
L 167.969596 200.648886 
L 167.963876 200.627752 
L 167.802976 200.330312 
L 167.401987 199.589041 
L 166.859499 199.622807 
L 165.480894 200.564512 
L 165.481078 200.588621 
L 165.487949 201.487618 
L 165.493393 202.199903 
L 165.279607 202.704707 
L 163.318499 203.383656 
L 162.000523 204.422367 
L 160.49096 204.848447 
L 159.212674 204.375289 
L 159.164728 204.357541 
L 158.917514 204.266035 
L 158.822269 204.23078 
L 158.542737 204.439405 
L 158.255997 204.653409 
L 158.163841 205.339447 
L 156.879071 205.035091 
L 156.694106 204.695197 
L 156.307015 204.606399 
L 154.796052 205.000766 
L 154.420437 204.831488 
L 154.334714 204.792856 
L 153.900637 204.851684 
L 153.889419 204.853204 
L 153.59439 205.080236 
L 152.969033 206.500025 
L 152.962359 206.515179 
L 152.540009 206.994519 
L 152.219609 206.998997 
L 150.868987 206.431325 
L 149.578434 206.562283 
L 149.166065 205.754614 
L 148.410257 205.098425 
L 147.252248 204.688294 
L 147.20241 204.608387 
L 147.051426 204.366309 
L 147.094613 203.798077 
L 146.840898 203.396149 
L 146.732799 203.224902 
L 145.727574 203.147764 
L 145.303739 203.544842 
L 144.996204 203.832962 
L 144.05963 203.119408 
L 143.147586 202.909166 
L 139.607239 202.620293 
L 138.296165 203.18554 
L 137.725746 203.886753 
L 137.05626 204.709747 
L 135.970446 205.157188 
L 135.945875 205.159539 
L 135.176022 205.233207 
L 133.47226 205.01429 
L 132.960927 204.663017 
L 129.855055 203.622627 
L 128.779127 203.462287 
L 128.318162 203.656859 
L 127.832292 204.749762 
L 127.948233 205.191606 
L 128.413302 205.984258 
L 128.322919 206.601645 
L 127.266299 206.443917 
L 127.203532 206.36102 
L 127.066784 206.180415 
L 126.433447 205.260163 
L 125.705248 204.597258 
L 125.699608 204.564162 
L 125.651149 204.279843 
L 125.443239 203.682043 
L 125.355467 201.720656 
L 125.663088 200.831838 
L 126.062212 200.363038 
L 128.841901 199.349791 
L 129.177132 199.138336 
L 129.354541 198.787902 
L 129.378699 198.180122 
L 129.227314 197.888544 
L 127.407704 197.20745 
L 125.85766 196.872686 
L 127.088237 193.976309 
L 126.946646 193.012125 
L 126.843857 191.67764 
L 127.219195 191.209959 
L 128.279639 190.507224 
L 128.441845 190.057266 
L 128.966796 186.089439 
L 128.774277 185.317868 
L 128.568699 184.502924 
L 128.579941 184.491107 
L 130.959991 181.989535 
L 131.195044 181.197443 
L 130.697328 179.963788 
L 129.298296 178.662881 
L 129.077833 177.088868 
L 129.071731 177.045305 
L 127.913815 175.304513 
L 127.911006 175.285579 
L 127.715325 173.966576 
L 127.705815 173.951841 
L 127.147747 173.087179 
L 126.247094 172.79374 
L 125.850571 172.66455 
L 124.410397 172.508363 
L 124.347164 172.501505 
L 123.502465 172.201812 
L 122.293134 170.212344 
L 120.495987 167.255859 
L 120.485298 167.238275 
L 120.124696 166.38201 
L 120.413009 165.947348 
" clip-path="url(#pa2e6cbf3db)" style="fill: #d40000"/>
    <path d="M 99.400756 163.914419 
L 100.398333 163.178106 
L 101.285098 163.598776 
L 101.950243 164.755853 
L 101.063477 165.597474 
L 99.622378 165.071496 
L 99.400756 163.914419 
" clip-path="url(#pa2e6cbf3db)" style="fill: #d40000"/>
    <path d="M 58.271316 189.796189 
L 58.485289 189.617567 
L 60.472514 189.016223 
L 62.257798 189.547704 
L 62.690688 189.677916 
L 63.685839 189.530262 
L 64.303879 189.092429 
L 65.073958 188.785274 
L 66.314796 190.074708 
L 66.785182 191.330377 
L 66.746659 192.240648 
L 66.590144 192.53549 
L 65.862132 192.884618 
L 64.696194 194.074342 
L 64.149229 194.786963 
L 62.178804 195.226661 
L 61.867815 195.296058 
L 61.074045 194.662907 
L 59.735828 194.291113 
L 58.890476 193.782204 
L 57.681818 192.742747 
L 58.271316 189.796189 
" clip-path="url(#pa2e6cbf3db)" style="fill: #d40000"/>
   </g>
   <g id="text_1">
    <!-- Puerto Rico -->
    <g transform="translate(150.289688 143.098109) scale(0.12 -0.12)">
     <defs>
      <path id="DejaVuSans-50" d="M 1259 4147 
L 1259 2394 
L 2053 2394 
Q 2494 2394 2734 2622 
Q 2975 2850 2975 3272 
Q 2975 3691 2734 3919 
Q 2494 4147 2053 4147 
L 1259 4147 
z
M 628 4666 
L 2053 4666 
Q 2838 4666 3239 4311 
Q 3641 3956 3641 3272 
Q 3641 2581 3239 2228 
Q 2838 1875 2053 1875 
L 1259 1875 
L 1259 0 
L 628 0 
L 628 4666 
z
" transform="scale(0.015625)"/>
      <path id="DejaVuSans-75" d="M 544 1381 
L 544 3500 
L 1119 3500 
L 1119 1403 
Q 1119 906 1312 657 
Q 1506 409 1894 409 
Q 2359 409 2629 706 
Q 2900 1003 2900 1516 
L 2900 3500 
L 3475 3500 
L 3475 0 
L 2900 0 
L 2900 538 
Q 2691 219 2414 64 
Q 2138 -91 1772 -91 
Q 1169 -91 856 284 
Q 544 659 544 1381 
z
M 1991 3584 
L 1991 3584 
z
" transform="scale(0.015625)"/>
      <path id="DejaVuSans-65" d="M 3597 1894 
L 3597 1613 
L 953 1613 
Q 991 1019 1311 708 
Q 1631 397 2203 397 
Q 2534 397 2845 478 
Q 3156 559 3463 722 
L 3463 178 
Q 3153 47 2828 -22 
Q 2503 -91 2169 -91 
Q 1331 -91 842 396 
Q 353 884 353 1716 
Q 353 2575 817 3079 
Q 1281 3584 2069 3584 
Q 2775 3584 3186 3129 
Q 3597 2675 3597 1894 
z
M 3022 2063 
Q 3016 2534 2758 2815 
Q 2500 3097 2075 3097 
Q 1594 3097 1305 2825 
Q 1016 2553 972 2059 
L 3022 2063 
z
" transform="scale(0.015625)"/>
      <path id="DejaVuSans-72" d="M 2631 2963 
Q 2534 3019 2420 3045 
Q 2306 3072 2169 3072 
Q 1681 3072 1420 2755 
Q 1159 2438 1159 1844 
L 1159 0 
L 581 0 
L 581 3500 
L 1159 3500 
L 1159 2956 
Q 1341 3275 1631 3429 
Q 1922 3584 2338 3584 
Q 2397 3584 2469 3576 
Q 2541 3569 2628 3553 
L 2631 2963 
z
" transform="scale(0.015625)"/>
      <path id="DejaVuSans-74" d="M 1172 4494 
L 1172 3500 
L 2356 3500 
L 2356 3053 
L 1172 3053 
L 1172 1153 
Q 1172 725 1289 603 
Q 1406 481 1766 481 
L 2356 481 
L 2356 0 
L 1766 0 
Q 1100 0 847 248 
Q 594 497 594 1153 
L 594 3053 
L 172 3053 
L 172 3500 
L 594 3500 
L 594 4494 
L 1172 4494 
z
" transform="scale(0.015625)"/>
      <path id="DejaVuSans-6f" d="M 1959 3097 
Q 1497 3097 1228 2736 
Q 959 2375 959 1747 
Q 959 1119 1226 758 
Q 1494 397 1959 397 
Q 2419 397 2687 759 
Q 2956 1122 2956 1747 
Q 2956 2369 2687 2733 
Q 2419 3097 1959 3097 
z
M 1959 3584 
Q 2709 3584 3137 3096 
Q 3566 2609 3566 1747 
Q 3566 888 3137 398 
Q 2709 -91 1959 -91 
Q 1206 -91 779 398 
Q 353 888 353 1747 
Q 353 2609 779 3096 
Q 1206 3584 1959 3584 
z
" transform="scale(0.015625)"/>
      <path id="DejaVuSans-20" transform="scale(0.015625)"/>
      <path id="DejaVuSans-52" d="M 2841 2188 
Q 3044 2119 3236 1894 
Q 3428 1669 3622 1275 
L 4263 0 
L 3584 0 
L 2988 1197 
Q 2756 1666 2539 1819 
Q 2322 1972 1947 1972 
L 1259 1972 
L 1259 0 
L 628 0 
L 628 4666 
L 2053 4666 
Q 2853 4666 3247 4331 
Q 3641 3997 3641 3322 
Q 3641 2881 3436 2590 
Q 3231 2300 2841 2188 
z
M 1259 4147 
L 1259 2491 
L 2053 2491 
Q 2509 2491 2742 2702 
Q 2975 2913 2975 3322 
Q 2975 3731 2742 3939 
Q 2509 4147 2053 4147 
L 1259 4147 
z
" transform="scale(0.015625)"/>
      <path id="DejaVuSans-69" d="M 603 3500 
L 1178 3500 
L 1178 0 
L 603 0 
L 603 3500 
z
M 603 4863 
L 1178 4863 
L 1178 4134 
L 603 4134 
L 603 4863 
z
" transform="scale(0.015625)"/>
      <path id="DejaVuSans-63" d="M 3122 3366 
L 3122 2828 
Q 2878 2963 2633 3030 
Q 2388 3097 2138 3097 
Q 1578 3097 1268 2742 
Q 959 2388 959 1747 
Q 959 1106 1268 751 
Q 1578 397 2138 397 
Q 2388 397 2633 464 
Q 2878 531 3122 666 
L 3122 134 
Q 2881 22 2623 -34 
Q 2366 -91 2075 -91 
Q 1284 -91 818 406 
Q 353 903 353 1747 
Q 353 2603 823 3093 
Q 1294 3584 2113 3584 
Q 2378 3584 2631 3529 
Q 2884 3475 3122 3366 
z
" transform="scale(0.015625)"/>
     </defs>
     <use xlink:href="#DejaVuSans-50"/>
     <use xlink:href="#DejaVuSans-75" x="58.552734"/>
     <use xlink:href="#DejaVuSans-65" x="121.931641"/>
     <use xlink:href="#DejaVuSans-72" x="183.455078"/>
     <use xlink:href="#DejaVuSans-74" x="224.568359"/>
     <use xlink:href="#DejaVuSans-6f" x="263.777344"/>
     <use xlink:href="#DejaVuSans-20" x="324.958984"/>
     <use xlink:href="#DejaVuSans-52" x="356.746094"/>
     <use xlink:href="#DejaVuSans-69" x="426.228516"/>
     <use xlink:href="#DejaVuSans-63" x="454.011719"/>
     <use xlink:href="#DejaVuSans-6f" x="508.992188"/>
    </g>
   </g>
  </g>
 </g>
 <defs>
  <clipPath id="pa2e6cbf3db">
   <rect x="45" y="149.098109" width="279" height="65.403782"/>
  </clipPath>
 </defs>
</svg>
