<?xml version="1.0" encoding="utf-8" standalone="no"?>
<!DOCTYPE svg PUBLIC "-//W3C//DTD SVG 1.1//EN"
  "http://www.w3.org/Graphics/SVG/1.1/DTD/svg11.dtd">
<svg xmlns:xlink="http://www.w3.org/1999/xlink" width="360pt" height="360pt" viewBox="0 0 360 360" xmlns="http://www.w3.org/2000/svg" version="1.1">
 <metadata>
  <rdf:RDF xmlns:dc="http://purl.org/dc/elements/1.1/" xmlns:cc="http://creativecommons.org/ns#" xmlns:rdf="http://www.w3.org/1999/02/22-rdf-syntax-ns#">
   <cc:Work>
    <dc:type rdf:resource="http://purl.org/dc/dcmitype/StillImage"/>
    <dc:date>2023-06-19T15:20:27.744058</dc:date>
    <dc:format>image/svg+xml</dc:format>
    <dc:creator>
     <cc:Agent>
      <dc:title>Matplotlib v3.7.1, https://matplotlib.org/</dc:title>
     </cc:Agent>
    </dc:creator>
   </cc:Work>
  </rdf:RDF>
 </metadata>
 <defs>
  <style type="text/css">*{stroke-linejoin: round; stroke-linecap: butt}</style>
 </defs>
 <g id="figure_1">
  <g id="patch_1">
   <path d="M 0 360 
L 360 360 
L 360 0 
L 0 0 
z
" style="fill: #ffffff"/>
  </g>
  <g id="axes_1">
   <g id="PatchCollection_1">
    <path d="M 222.092657 215.807157 
L 226.266378 213.958877 
L 229.466134 214.416109 
L 231.953902 212.469625 
L 231.825947 210.563577 
L 227.438197 206.915544 
L 227.984391 206.053937 
L 229.220329 204.975276 
L 230.996402 203.425216 
L 230.956831 200.34475 
L 233.896011 197.644652 
L 236.084297 195.634367 
L 236.81968 192.09667 
L 238.80718 188.340321 
L 239.44116 187.556053 
L 241.490204 185.021275 
L 243.188396 184.494259 
L 243.219481 184.484612 
L 244.153586 183.371716 
L 247.532133 174.746124 
L 247.830504 172.420682 
L 247.307223 171.604239 
L 247.015401 171.148925 
L 247.989365 169.83702 
L 252.736285 166.457523 
L 253.991435 165.563938 
L 255.724797 165.423117 
L 259.14663 165.145122 
L 263.203082 161.263995 
L 265.346039 160.532077 
L 267.306326 159.86255 
L 270.005235 155.076202 
L 270.368017 155.159099 
L 271.294034 155.328647 
L 271.2949 155.306695 
L 274.150072 155.823717 
L 275.680917 156.14144 
L 275.652034 156.979072 
L 275.652034 157.094608 
L 279.678942 157.823427 
L 282.03566 158.249963 
L 284.380742 158.627475 
L 287.466118 159.289782 
L 287.610537 159.289782 
L 288.130447 159.405318 
L 288.193414 159.797561 
L 287.671193 164.847041 
L 287.66946 164.865526 
L 287.606733 165.532188 
L 287.325237 168.523901 
L 287.321698 168.561507 
L 285.941049 169.863882 
L 285.640368 172.121734 
L 285.813382 174.626255 
L 285.906388 175.291451 
L 286.800633 176.025391 
L 288.497272 178.521824 
L 288.585657 178.986855 
L 291.159788 199.249473 
L 291.688363 206.386102 
L 286.981157 207.398771 
L 285.760525 208.55557 
L 286.011525 209.73461 
L 278.177929 213.908331 
L 277.373224 216.054692 
L 270.761993 217.800144 
L 270.199624 217.480689 
L 269.653718 216.880193 
L 269.725928 215.82882 
L 271.629665 211.924008 
L 271.58605 210.188087 
L 268.92209 208.026418 
L 268.83486 206.945583 
L 266.902529 205.875724 
L 268.518293 201.498083 
L 264.828378 192.41497 
L 266.247443 185.133344 
L 266.498732 176.574473 
L 265.090354 173.855922 
L 265.159387 171.482245 
L 265.199805 171.022279 
L 265.278677 170.124703 
L 264.078263 169.402606 
L 260.642027 170.279547 
L 256.98756 171.212181 
L 256.36411 178.052013 
L 256.152527 180.373281 
L 258.310153 184.053376 
L 258.162267 195.293537 
L 258.701529 196.250749 
L 260.661589 197.475714 
L 260.241329 199.426243 
L 259.090323 201.588835 
L 257.015 205.488102 
L 257.600765 209.44866 
L 258.008316 209.535023 
L 258.130784 210.452663 
L 256.987271 212.906927 
L 255.25626 213.748025 
L 255.461625 211.049693 
L 253.526405 209.721035 
L 250.031167 208.854518 
L 244.28146 209.157091 
L 244.010033 209.171374 
L 241.274152 210.169312 
L 238.592862 218.790573 
L 236.57099 219.859276 
L 236.1955 219.685973 
L 236.188568 218.763133 
L 233.677981 218.473428 
L 228.974241 220.40807 
L 225.103513 219.859276 
L 221.739407 217.093067 
L 222.092657 215.807157 
" clip-path="url(#p198eb12007)" style="fill: #00da00"/>
    <path d="M 220.751001 159.151717 
L 226.915976 157.411464 
L 228.685114 159.786585 
L 229.411254 162.91211 
L 230.489778 164.117145 
L 232.233209 166.354201 
L 235.561499 167.984985 
L 238.258964 170.259591 
L 238.893832 174.86137 
L 237.7301 177.347406 
L 234.81485 181.621353 
L 232.32246 182.951167 
L 230.850249 182.450032 
L 229.478554 180.838311 
L 229.16112 178.299418 
L 230.113421 175.0728 
L 231.324234 174.13754 
L 232.176308 172.110758 
L 232.387738 169.836442 
L 230.242243 168.233964 
L 226.410797 167.456121 
L 225.046323 166.429011 
L 221.703014 161.902329 
L 220.751001 159.151717 
" clip-path="url(#p198eb12007)" style="fill: #00da00"/>
    <path d="M 210.816391 216.931029 
L 212.154581 207.897595 
L 214.874287 207.650349 
L 217.068595 204.219811 
L 213.576245 201.438294 
L 213.24928 198.581678 
L 215.461496 189.261428 
L 217.037689 186.073803 
L 218.598285 184.501942 
L 219.587269 184.285602 
L 221.503426 185.181869 
L 222.569819 189.385051 
L 221.580835 205.085172 
L 222.41529 210.524295 
L 216.481386 212.996755 
L 215.71914 215.82131 
L 214.073337 217.02779 
L 213.787098 218.634311 
L 211.102919 220.496455 
L 210.816391 216.931029 
" clip-path="url(#p198eb12007)" style="fill: #00da00"/>
    <path d="M 149.417063 303.77301 
L 151.602995 297.459571 
L 154.65631 295.653462 
L 156.228748 293.295094 
L 158.921303 290.903509 
L 159.766735 288.051803 
L 159.951591 285.243135 
L 160.782292 284.087202 
L 164.448234 285.308701 
L 166.206395 287.441776 
L 166.477615 288.558138 
L 165.497874 290.988716 
L 163.574207 293.637368 
L 163.102534 296.814306 
L 164.48405 299.179029 
L 167.587045 301.893824 
L 169.256533 302.435397 
L 169.422326 303.472617 
L 168.504108 305.678479 
L 167.08822 306.246336 
L 155.030067 307.8 
L 153.212405 307.628719 
L 149.829236 305.807012 
L 149.417063 303.77301 
" clip-path="url(#p198eb12007)" style="fill: #00da00"/>
    <path d="M 77.503137 258.618553 
L 77.964124 257.568335 
L 84.174158 253.584093 
L 86.894441 250.550708 
L 85.058582 247.838223 
L 84.542427 245.067104 
L 86.311565 242.938362 
L 85.968922 240.387266 
L 85.78299 239.002933 
L 83.273558 235.873365 
L 82.886226 232.848934 
L 83.14878 231.686358 
L 83.990456 231.032427 
L 90.13088 228.871913 
L 96.111865 229.706657 
L 96.114553 229.648479 
L 97.300345 203.987268 
L 97.581274 197.907815 
L 98.516253 177.674325 
L 98.517025 177.657619 
L 98.950515 166.814504 
L 99.013642 165.235487 
L 99.199263 160.592445 
L 99.197849 160.556229 
L 98.424019 140.737089 
L 98.419943 140.60297 
L 98.024266 127.58366 
L 97.967636 126.363757 
L 97.531796 116.975189 
L 97.526308 116.493117 
L 97.129155 107.403071 
L 97.129155 107.125786 
L 97.036335 104.798645 
L 96.975844 103.282055 
L 96.263233 85.4158 
L 96.042832 79.890021 
L 95.661565 58.900107 
L 105.260256 58.414858 
L 129.85031 57.848811 
L 140.116317 57.612495 
L 151.265335 57.355852 
L 157.004599 57.223738 
L 159.880248 57.157542 
L 164.925973 57.087066 
L 173.684072 56.906583 
L 174.120578 56.897587 
L 174.20723 56.868704 
L 181.500553 56.3162 
L 181.832863 56.291026 
L 182.121701 56.262142 
L 182.597332 56.25572 
L 194.19559 56.099125 
L 203.942916 55.96752 
L 216.350253 55.8 
L 216.331562 65.537818 
L 216.321369 70.848212 
L 216.350253 71.397006 
L 216.292774 83.499351 
L 216.26389 83.557119 
L 216.26389 85.834035 
L 216.26389 85.879194 
L 216.26389 91.918208 
L 216.26389 92.077863 
L 216.313179 92.070131 
L 217.736968 91.846792 
L 218.546006 91.731256 
L 219.354754 91.673489 
L 220.972251 91.471301 
L 221.174439 91.442418 
L 221.809884 91.38465 
L 224.062826 91.124695 
L 224.114868 91.119491 
L 224.640504 91.066927 
L 228.405212 90.609817 
L 228.665908 90.578163 
L 228.684536 90.575901 
L 228.511233 91.962327 
L 228.511233 92.020095 
L 228.077974 95.428104 
L 228.935575 97.86182 
L 229.055703 98.20272 
L 230.042367 101.002693 
L 229.898817 101.309011 
L 227.6736 106.057371 
L 227.789424 106.375094 
L 229.69576 108.743572 
L 229.002547 109.263482 
L 228.42487 109.754508 
L 226.894024 110.909863 
L 226.229695 112.325173 
L 228.540405 116.3978 
L 228.627057 116.599987 
L 228.511521 117.119897 
L 228.511521 117.726458 
L 228.258376 118.435266 
L 228.078263 118.939581 
L 228.107147 119.488375 
L 228.511521 120.066053 
L 229.522457 120.499311 
L 230.07154 120.585962 
L 230.562566 121.221408 
L 231.400198 122.810021 
L 231.371314 124.023144 
L 231.804572 124.629417 
L 234.68476 125.884027 
L 234.722133 125.900307 
L 235.128574 126.071811 
L 244.367393 129.970254 
L 251.013507 132.77467 
L 261.167077 144.355255 
L 261.320142 144.529831 
L 261.583274 144.848998 
L 260.694517 146.293192 
L 256.906107 148.532848 
L 256.369381 148.889801 
L 255.651392 149.367303 
L 257.87545 153.185752 
L 258.208472 154.571667 
L 258.534869 155.93001 
L 256.744646 157.353696 
L 253.317285 159.263498 
L 252.947283 162.594965 
L 249.377813 163.783247 
L 248.564975 164.70755 
L 247.749629 165.634704 
L 244.094663 166.120531 
L 242.706711 164.846626 
L 241.311793 163.566327 
L 240.104933 162.458633 
L 239.4588 162.329522 
L 238.780029 160.940207 
L 238.101547 155.802632 
L 239.10324 153.153402 
L 240.169633 153.217813 
L 241.849519 151.247066 
L 242.39889 147.111184 
L 241.206873 145.799981 
L 238.198597 142.490918 
L 235.581428 141.004554 
L 233.151857 140.873334 
L 229.425985 140.672101 
L 227.024002 137.427286 
L 224.758639 134.865863 
L 223.886472 134.372962 
L 222.492988 133.585441 
L 221.909946 131.616838 
L 221.806034 131.265984 
L 221.188592 129.181227 
L 221.051393 125.494778 
L 220.707869 125.18166 
L 219.197915 123.80536 
L 219.156515 123.79708 
L 216.383181 123.242413 
L 216.041033 123.301283 
L 213.705645 123.703111 
L 213.626503 125.1112 
L 215.167747 128.048401 
L 215.164491 128.431512 
L 215.14724 130.461361 
L 215.431346 131.278794 
L 216.589123 134.609952 
L 216.520379 136.658974 
L 216.50473 137.417031 
L 216.451636 139.988997 
L 216.879775 140.52711 
L 217.756032 141.628446 
L 218.912701 142.01942 
L 221.394534 142.858321 
L 221.027424 144.049367 
L 220.880401 144.526365 
L 220.880401 149.34073 
L 218.780254 155.802632 
L 217.358589 157.515157 
L 216.163086 157.321346 
L 213.901189 155.996731 
L 213.642678 153.476324 
L 214.030589 152.668731 
L 213.707378 152.47492 
L 210.525541 152.46197 
L 205.759112 152.44257 
L 199.0387 151.796149 
L 198.534388 151.259775 
L 198.876951 150.762395 
L 197.713797 150.439184 
L 196.733189 151.520308 
L 196.743455 151.568972 
L 198.090382 157.954241 
L 198.134057 158.161289 
L 198.708737 158.036556 
L 202.302001 157.256646 
L 203.626616 156.319653 
L 208.291362 158.671378 
L 208.483651 161.220003 
L 209.889218 179.849616 
L 207.04181 180.42769 
L 197.197064 182.426347 
L 198.68314 186.852801 
L 204.72507 194.704306 
L 205.952923 195.673649 
L 206.696105 198.9693 
L 206.663756 200.940047 
L 205.322491 204.593794 
L 204.789769 206.044983 
L 205.209741 210.051466 
L 205.791462 210.826998 
L 205.888512 212.022502 
L 205.662351 213.548149 
L 204.867178 214.346499 
L 204.337448 213.539483 
L 202.098081 214.130448 
L 202.045512 215.569154 
L 202.909429 217.33858 
L 202.702332 218.889933 
L 201.269691 221.536563 
L 200.097583 222.603245 
L 199.287836 222.534408 
L 199.078271 222.516593 
L 196.84006 223.418637 
L 195.184217 224.737405 
L 194.847938 225.005228 
L 194.984848 232.23313 
L 189.338916 238.546568 
L 186.919314 242.700647 
L 178.223533 241.839908 
L 175.381591 241.427364 
L 174.375334 241.281294 
L 166.098081 242.240238 
L 146.132388 245.835126 
L 127.772351 251.0478 
L 123.855408 252.738951 
L 118.335988 254.298969 
L 115.878835 254.465526 
L 103.038508 255.3359 
L 99.498788 255.982321 
L 85.692872 258.901904 
L 78.854036 261.59186 
L 77.311637 260.588722 
L 77.503137 258.618553 
" clip-path="url(#p198eb12007)" style="fill: #00da00"/>
   </g>
   <g id="PathCollection_1">
    <defs>
     <path id="mdb60bea1b4" d="M 0 1.581139 
C 0.419323 1.581139 0.821528 1.41454 1.118034 1.118034 
C 1.41454 0.821528 1.581139 0.419323 1.581139 0 
C 1.581139 -0.419323 1.41454 -0.821528 1.118034 -1.118034 
C 0.821528 -1.41454 0.419323 -1.581139 0 -1.581139 
C -0.419323 -1.581139 -0.821528 -1.41454 -1.118034 -1.118034 
C -1.41454 -0.821528 -1.581139 -0.419323 -1.581139 0 
C -1.581139 0.419323 -1.41454 0.821528 -1.118034 1.118034 
C -0.821528 1.41454 -0.419323 1.581139 0 1.581139 
z
" style="stroke: #000000"/>
    </defs>
    <g clip-path="url(#p198eb12007)">
     <use xlink:href="#mdb60bea1b4" x="206.656246" y="110.068187" style="stroke: #000000"/>
    </g>
   </g>
   <g id="text_1">
    <!-- Providence -->
    <g transform="translate(209.656246 107.068187) scale(0.1 -0.1)">
     <defs>
      <path id="DejaVuSans-50" d="M 1259 4147 
L 1259 2394 
L 2053 2394 
Q 2494 2394 2734 2622 
Q 2975 2850 2975 3272 
Q 2975 3691 2734 3919 
Q 2494 4147 2053 4147 
L 1259 4147 
z
M 628 4666 
L 2053 4666 
Q 2838 4666 3239 4311 
Q 3641 3956 3641 3272 
Q 3641 2581 3239 2228 
Q 2838 1875 2053 1875 
L 1259 1875 
L 1259 0 
L 628 0 
L 628 4666 
z
" transform="scale(0.015625)"/>
      <path id="DejaVuSans-72" d="M 2631 2963 
Q 2534 3019 2420 3045 
Q 2306 3072 2169 3072 
Q 1681 3072 1420 2755 
Q 1159 2438 1159 1844 
L 1159 0 
L 581 0 
L 581 3500 
L 1159 3500 
L 1159 2956 
Q 1341 3275 1631 3429 
Q 1922 3584 2338 3584 
Q 2397 3584 2469 3576 
Q 2541 3569 2628 3553 
L 2631 2963 
z
" transform="scale(0.015625)"/>
      <path id="DejaVuSans-6f" d="M 1959 3097 
Q 1497 3097 1228 2736 
Q 959 2375 959 1747 
Q 959 1119 1226 758 
Q 1494 397 1959 397 
Q 2419 397 2687 759 
Q 2956 1122 2956 1747 
Q 2956 2369 2687 2733 
Q 2419 3097 1959 3097 
z
M 1959 3584 
Q 2709 3584 3137 3096 
Q 3566 2609 3566 1747 
Q 3566 888 3137 398 
Q 2709 -91 1959 -91 
Q 1206 -91 779 398 
Q 353 888 353 1747 
Q 353 2609 779 3096 
Q 1206 3584 1959 3584 
z
" transform="scale(0.015625)"/>
      <path id="DejaVuSans-76" d="M 191 3500 
L 800 3500 
L 1894 563 
L 2988 3500 
L 3597 3500 
L 2284 0 
L 1503 0 
L 191 3500 
z
" transform="scale(0.015625)"/>
      <path id="DejaVuSans-69" d="M 603 3500 
L 1178 3500 
L 1178 0 
L 603 0 
L 603 3500 
z
M 603 4863 
L 1178 4863 
L 1178 4134 
L 603 4134 
L 603 4863 
z
" transform="scale(0.015625)"/>
      <path id="DejaVuSans-64" d="M 2906 2969 
L 2906 4863 
L 3481 4863 
L 3481 0 
L 2906 0 
L 2906 525 
Q 2725 213 2448 61 
Q 2172 -91 1784 -91 
Q 1150 -91 751 415 
Q 353 922 353 1747 
Q 353 2572 751 3078 
Q 1150 3584 1784 3584 
Q 2172 3584 2448 3432 
Q 2725 3281 2906 2969 
z
M 947 1747 
Q 947 1113 1208 752 
Q 1469 391 1925 391 
Q 2381 391 2643 752 
Q 2906 1113 2906 1747 
Q 2906 2381 2643 2742 
Q 2381 3103 1925 3103 
Q 1469 3103 1208 2742 
Q 947 2381 947 1747 
z
" transform="scale(0.015625)"/>
      <path id="DejaVuSans-65" d="M 3597 1894 
L 3597 1613 
L 953 1613 
Q 991 1019 1311 708 
Q 1631 397 2203 397 
Q 2534 397 2845 478 
Q 3156 559 3463 722 
L 3463 178 
Q 3153 47 2828 -22 
Q 2503 -91 2169 -91 
Q 1331 -91 842 396 
Q 353 884 353 1716 
Q 353 2575 817 3079 
Q 1281 3584 2069 3584 
Q 2775 3584 3186 3129 
Q 3597 2675 3597 1894 
z
M 3022 2063 
Q 3016 2534 2758 2815 
Q 2500 3097 2075 3097 
Q 1594 3097 1305 2825 
Q 1016 2553 972 2059 
L 3022 2063 
z
" transform="scale(0.015625)"/>
      <path id="DejaVuSans-6e" d="M 3513 2113 
L 3513 0 
L 2938 0 
L 2938 2094 
Q 2938 2591 2744 2837 
Q 2550 3084 2163 3084 
Q 1697 3084 1428 2787 
Q 1159 2491 1159 1978 
L 1159 0 
L 581 0 
L 581 3500 
L 1159 3500 
L 1159 2956 
Q 1366 3272 1645 3428 
Q 1925 3584 2291 3584 
Q 2894 3584 3203 3211 
Q 3513 2838 3513 2113 
z
" transform="scale(0.015625)"/>
      <path id="DejaVuSans-63" d="M 3122 3366 
L 3122 2828 
Q 2878 2963 2633 3030 
Q 2388 3097 2138 3097 
Q 1578 3097 1268 2742 
Q 959 2388 959 1747 
Q 959 1106 1268 751 
Q 1578 397 2138 397 
Q 2388 397 2633 464 
Q 2878 531 3122 666 
L 3122 134 
Q 2881 22 2623 -34 
Q 2366 -91 2075 -91 
Q 1284 -91 818 406 
Q 353 903 353 1747 
Q 353 2603 823 3093 
Q 1294 3584 2113 3584 
Q 2378 3584 2631 3529 
Q 2884 3475 3122 3366 
z
" transform="scale(0.015625)"/>
     </defs>
     <use xlink:href="#DejaVuSans-50"/>
     <use xlink:href="#DejaVuSans-72" x="58.552734"/>
     <use xlink:href="#DejaVuSans-6f" x="97.416016"/>
     <use xlink:href="#DejaVuSans-76" x="158.597656"/>
     <use xlink:href="#DejaVuSans-69" x="217.777344"/>
     <use xlink:href="#DejaVuSans-64" x="245.560547"/>
     <use xlink:href="#DejaVuSans-65" x="309.037109"/>
     <use xlink:href="#DejaVuSans-6e" x="370.560547"/>
     <use xlink:href="#DejaVuSans-63" x="433.939453"/>
     <use xlink:href="#DejaVuSans-65" x="488.919922"/>
    </g>
   </g>
   <g id="text_2">
    <!-- Rhode Island -->
    <g transform="translate(145.598437 37.2) scale(0.12 -0.12)">
     <defs>
      <path id="DejaVuSans-52" d="M 2841 2188 
Q 3044 2119 3236 1894 
Q 3428 1669 3622 1275 
L 4263 0 
L 3584 0 
L 2988 1197 
Q 2756 1666 2539 1819 
Q 2322 1972 1947 1972 
L 1259 1972 
L 1259 0 
L 628 0 
L 628 4666 
L 2053 4666 
Q 2853 4666 3247 4331 
Q 3641 3997 3641 3322 
Q 3641 2881 3436 2590 
Q 3231 2300 2841 2188 
z
M 1259 4147 
L 1259 2491 
L 2053 2491 
Q 2509 2491 2742 2702 
Q 2975 2913 2975 3322 
Q 2975 3731 2742 3939 
Q 2509 4147 2053 4147 
L 1259 4147 
z
" transform="scale(0.015625)"/>
      <path id="DejaVuSans-68" d="M 3513 2113 
L 3513 0 
L 2938 0 
L 2938 2094 
Q 2938 2591 2744 2837 
Q 2550 3084 2163 3084 
Q 1697 3084 1428 2787 
Q 1159 2491 1159 1978 
L 1159 0 
L 581 0 
L 581 4863 
L 1159 4863 
L 1159 2956 
Q 1366 3272 1645 3428 
Q 1925 3584 2291 3584 
Q 2894 3584 3203 3211 
Q 3513 2838 3513 2113 
z
" transform="scale(0.015625)"/>
      <path id="DejaVuSans-20" transform="scale(0.015625)"/>
      <path id="DejaVuSans-49" d="M 628 4666 
L 1259 4666 
L 1259 0 
L 628 0 
L 628 4666 
z
" transform="scale(0.015625)"/>
      <path id="DejaVuSans-73" d="M 2834 3397 
L 2834 2853 
Q 2591 2978 2328 3040 
Q 2066 3103 1784 3103 
Q 1356 3103 1142 2972 
Q 928 2841 928 2578 
Q 928 2378 1081 2264 
Q 1234 2150 1697 2047 
L 1894 2003 
Q 2506 1872 2764 1633 
Q 3022 1394 3022 966 
Q 3022 478 2636 193 
Q 2250 -91 1575 -91 
Q 1294 -91 989 -36 
Q 684 19 347 128 
L 347 722 
Q 666 556 975 473 
Q 1284 391 1588 391 
Q 1994 391 2212 530 
Q 2431 669 2431 922 
Q 2431 1156 2273 1281 
Q 2116 1406 1581 1522 
L 1381 1569 
Q 847 1681 609 1914 
Q 372 2147 372 2553 
Q 372 3047 722 3315 
Q 1072 3584 1716 3584 
Q 2034 3584 2315 3537 
Q 2597 3491 2834 3397 
z
" transform="scale(0.015625)"/>
      <path id="DejaVuSans-6c" d="M 603 4863 
L 1178 4863 
L 1178 0 
L 603 0 
L 603 4863 
z
" transform="scale(0.015625)"/>
      <path id="DejaVuSans-61" d="M 2194 1759 
Q 1497 1759 1228 1600 
Q 959 1441 959 1056 
Q 959 750 1161 570 
Q 1363 391 1709 391 
Q 2188 391 2477 730 
Q 2766 1069 2766 1631 
L 2766 1759 
L 2194 1759 
z
M 3341 1997 
L 3341 0 
L 2766 0 
L 2766 531 
Q 2569 213 2275 61 
Q 1981 -91 1556 -91 
Q 1019 -91 701 211 
Q 384 513 384 1019 
Q 384 1609 779 1909 
Q 1175 2209 1959 2209 
L 2766 2209 
L 2766 2266 
Q 2766 2663 2505 2880 
Q 2244 3097 1772 3097 
Q 1472 3097 1187 3025 
Q 903 2953 641 2809 
L 641 3341 
Q 956 3463 1253 3523 
Q 1550 3584 1831 3584 
Q 2591 3584 2966 3190 
Q 3341 2797 3341 1997 
z
" transform="scale(0.015625)"/>
     </defs>
     <use xlink:href="#DejaVuSans-52"/>
     <use xlink:href="#DejaVuSans-68" x="69.482422"/>
     <use xlink:href="#DejaVuSans-6f" x="132.861328"/>
     <use xlink:href="#DejaVuSans-64" x="194.042969"/>
     <use xlink:href="#DejaVuSans-65" x="257.519531"/>
     <use xlink:href="#DejaVuSans-20" x="319.042969"/>
     <use xlink:href="#DejaVuSans-49" x="350.830078"/>
     <use xlink:href="#DejaVuSans-73" x="380.322266"/>
     <use xlink:href="#DejaVuSans-6c" x="432.421875"/>
     <use xlink:href="#DejaVuSans-61" x="460.205078"/>
     <use xlink:href="#DejaVuSans-6e" x="521.484375"/>
     <use xlink:href="#DejaVuSans-64" x="584.863281"/>
    </g>
   </g>
  </g>
 </g>
 <defs>
  <clipPath id="p198eb12007">
   <rect x="66.592801" y="43.2" width="235.814399" height="277.2"/>
  </clipPath>
 </defs>
</svg>
