<?xml version="1.0" encoding="utf-8" standalone="no"?>
<!DOCTYPE svg PUBLIC "-//W3C//DTD SVG 1.1//EN"
  "http://www.w3.org/Graphics/SVG/1.1/DTD/svg11.dtd">
<svg xmlns:xlink="http://www.w3.org/1999/xlink" width="460.8pt" height="345.6pt" viewBox="0 0 460.8 345.6" xmlns="http://www.w3.org/2000/svg" version="1.1">
 <metadata>
  <rdf:RDF xmlns:dc="http://purl.org/dc/elements/1.1/" xmlns:cc="http://creativecommons.org/ns#" xmlns:rdf="http://www.w3.org/1999/02/22-rdf-syntax-ns#">
   <cc:Work>
    <dc:type rdf:resource="http://purl.org/dc/dcmitype/StillImage"/>
    <dc:date>2023-06-19T14:47:47.755159</dc:date>
    <dc:format>image/svg+xml</dc:format>
    <dc:creator>
     <cc:Agent>
      <dc:title>Matplotlib v3.7.1, https://matplotlib.org/</dc:title>
     </cc:Agent>
    </dc:creator>
   </cc:Work>
  </rdf:RDF>
 </metadata>
 <defs>
  <style type="text/css">*{stroke-linejoin: round; stroke-linecap: butt}</style>
 </defs>
 <g id="figure_1">
  <g id="patch_1">
   <path d="M 0 345.6 
L 460.8 345.6 
L 460.8 0 
L 0 0 
z
" style="fill: #ffffff"/>
  </g>
  <g id="axes_1">
   <g id="PatchCollection_1">
    <path d="M 263.154537 207.174871 
L 266.151602 205.400522 
L 268.449283 205.839465 
L 270.2357 203.97084 
L 270.143818 202.141034 
L 266.993062 198.638922 
L 267.385273 197.81178 
L 268.272776 196.776265 
L 269.548138 195.288207 
L 269.519723 192.33096 
L 271.630289 189.738866 
L 273.201654 187.808992 
L 273.729718 184.412803 
L 275.156902 180.806708 
L 275.612151 180.053811 
L 277.083528 177.620424 
L 278.302966 177.114489 
L 278.325288 177.105228 
L 278.99605 176.036848 
L 281.422117 167.756279 
L 281.636371 165.523855 
L 281.260614 164.740069 
L 281.051062 164.302968 
L 281.750446 163.043539 
L 285.159115 159.799222 
L 286.060413 158.941381 
L 287.305105 158.806193 
L 289.762255 158.539317 
L 292.675112 154.813436 
L 294.213927 154.110794 
L 295.62157 153.468048 
L 297.559603 148.873154 
L 297.820109 148.952735 
L 298.485064 149.115501 
L 298.485686 149.094428 
L 300.535928 149.590768 
L 301.635197 149.895782 
L 301.614456 150.699909 
L 301.614456 150.810823 
L 304.506099 151.51049 
L 306.198411 151.919964 
L 307.882367 152.282376 
L 310.097914 152.918191 
L 310.201619 152.918191 
L 310.574956 153.029105 
L 310.620171 153.405658 
L 310.245175 158.253159 
L 310.243931 158.270905 
L 310.198887 158.910901 
L 309.996751 161.782945 
L 309.99421 161.819047 
L 309.002793 163.069326 
L 308.78688 165.236865 
L 308.911118 167.641205 
L 308.977904 168.279793 
L 309.620043 168.984375 
L 310.838366 171.380951 
L 310.901833 171.82738 
L 312.750265 191.279494 
L 313.129825 198.130658 
L 309.749674 199.10282 
L 308.873162 200.213347 
L 309.053401 201.345226 
L 303.428251 205.351997 
L 302.850409 207.412504 
L 298.103016 209.088139 
L 297.69919 208.781461 
L 297.307186 208.204985 
L 297.359038 207.195667 
L 298.726073 203.447048 
L 298.694755 201.780564 
L 296.781818 199.705361 
L 296.71918 198.667759 
L 295.331612 197.640695 
L 296.49186 193.43816 
L 293.842205 184.718371 
L 294.861207 177.72801 
L 295.041653 169.511494 
L 294.030325 166.901686 
L 294.079896 164.622955 
L 294.10892 164.181388 
L 294.165556 163.319715 
L 293.303563 162.626502 
L 290.83607 163.468365 
L 288.21187 164.363694 
L 287.764183 170.929933 
L 287.61225 173.15835 
L 289.161598 176.691241 
L 289.055404 187.481796 
L 289.442637 188.400719 
L 290.850117 189.576686 
L 290.548337 191.449193 
L 289.721823 193.525281 
L 288.231574 197.268578 
L 288.6522 201.070713 
L 288.944855 201.153622 
L 289.032797 202.034557 
L 288.211663 204.390649 
L 286.968658 205.198104 
L 287.116127 202.607705 
L 285.726484 201.332193 
L 283.216623 200.500338 
L 279.087874 200.790807 
L 278.892967 200.804519 
L 276.928386 201.76254 
L 275.003005 210.03895 
L 273.551139 211.064905 
L 273.281507 210.898534 
L 273.276529 210.012608 
L 271.473727 209.734491 
L 268.096065 211.591747 
L 265.316572 211.064905 
L 262.900875 208.409344 
L 263.154537 207.174871 
" clip-path="url(#p2a89564382)" style="fill: #ff5733"/>
    <path d="M 262.19112 152.785649 
L 266.618066 151.115005 
L 267.888448 153.395122 
L 268.409875 156.395625 
L 269.184342 157.552459 
L 270.436265 159.700033 
L 272.826243 161.265586 
L 274.763239 163.449207 
L 275.219125 167.866915 
L 274.383473 170.253509 
L 272.29009 174.356499 
L 270.500355 175.63312 
L 269.443189 175.15203 
L 268.458202 173.604779 
L 268.230259 171.167442 
L 268.914088 168.069888 
L 269.783548 167.172039 
L 270.395405 165.226328 
L 270.547229 163.042984 
L 269.006592 161.504606 
L 266.255307 160.757877 
L 265.275505 159.77185 
L 262.874742 155.426236 
L 262.19112 152.785649 
" clip-path="url(#p2a89564382)" style="fill: #ff5733"/>
    <path d="M 255.057275 208.253787 
L 256.018203 199.581692 
L 257.971169 199.344335 
L 259.546858 196.051019 
L 257.039072 193.380762 
L 256.804284 190.638411 
L 258.392833 181.690971 
L 259.524666 178.630851 
L 260.645298 177.121865 
L 261.355468 176.914178 
L 262.731422 177.774594 
L 263.497177 181.809649 
L 262.787007 196.881765 
L 263.386213 202.103324 
L 259.125195 204.476885 
L 258.577842 207.188457 
L 257.396023 208.346678 
L 257.19048 209.888938 
L 255.263025 211.676596 
L 255.057275 208.253787 
" clip-path="url(#p2a89564382)" style="fill: #ff5733"/>
    <path d="M 210.967643 291.622089 
L 212.537317 285.561189 
L 214.729842 283.827324 
L 215.858978 281.56329 
L 217.792448 279.267368 
L 218.399536 276.529731 
L 218.532278 273.833409 
L 219.128787 272.723714 
L 221.761227 273.896353 
L 223.023728 275.944105 
L 223.218485 277.015812 
L 222.514952 279.349167 
L 221.133606 281.891873 
L 220.794906 284.941733 
L 221.786945 287.211868 
L 224.015144 289.818071 
L 225.213971 290.337981 
L 225.333023 291.333713 
L 224.673669 293.45134 
L 223.656948 293.996483 
L 214.998229 295.488 
L 213.693002 295.32357 
L 211.263616 293.574732 
L 210.967643 291.622089 
" clip-path="url(#p2a89564382)" style="fill: #ff5733"/>
    <path d="M 159.327688 248.273811 
L 159.658713 247.265602 
L 164.118015 243.440729 
L 166.071396 240.52868 
L 164.753102 237.924694 
L 164.382462 235.26442 
L 165.652844 233.220827 
L 165.406799 230.771775 
L 165.273285 229.442816 
L 163.471312 226.43843 
L 163.193176 223.534977 
L 163.381711 222.418904 
L 163.986102 221.79113 
L 168.395418 219.717036 
L 172.690244 220.518391 
L 172.692174 220.46254 
L 173.543668 195.827777 
L 173.745397 189.991502 
L 174.416787 170.567352 
L 174.417342 170.551314 
L 174.728622 160.141924 
L 174.773952 158.626067 
L 174.907243 154.168747 
L 174.906227 154.133979 
L 174.350556 135.107606 
L 174.347629 134.978851 
L 174.063501 122.480313 
L 174.022836 121.309206 
L 173.709868 112.296181 
L 173.705928 111.833392 
L 173.42074 103.106948 
L 173.42074 102.840755 
L 173.354087 100.606699 
L 173.31065 99.150773 
L 172.798938 81.999168 
L 172.640673 76.694421 
L 172.366893 56.544102 
L 179.259521 56.078263 
L 196.917148 55.534859 
L 204.288963 55.307995 
L 212.29485 55.061618 
L 216.416101 54.934788 
L 218.481048 54.871241 
L 222.104282 54.803583 
L 228.393298 54.630319 
L 228.706744 54.621684 
L 228.768967 54.593955 
L 234.006157 54.063552 
L 234.244782 54.039385 
L 234.452191 54.011656 
L 234.793732 54.005491 
L 243.12221 53.85516 
L 250.12157 53.728819 
L 259.031031 53.568 
L 259.01761 62.916306 
L 259.01029 68.014284 
L 259.031031 68.541125 
L 258.989757 80.159377 
L 258.969016 80.214834 
L 258.969016 82.400673 
L 258.969016 82.444026 
L 258.969016 88.24148 
L 258.969016 88.394748 
L 259.004409 88.387326 
L 260.026804 88.17292 
L 260.607757 88.062006 
L 261.188503 88.006549 
L 262.349996 87.812449 
L 262.495182 87.784721 
L 262.951483 87.729264 
L 264.569276 87.479707 
L 264.606646 87.474711 
L 264.984095 87.42425 
L 267.687457 86.985424 
L 267.874657 86.955037 
L 267.888034 86.952865 
L 267.763588 88.283834 
L 267.763588 88.339291 
L 267.452474 91.61098 
L 268.0683 93.947347 
L 268.154561 94.274611 
L 268.863065 96.962585 
L 268.759985 97.256651 
L 267.162101 101.815077 
L 267.245272 102.12009 
L 268.614174 104.393829 
L 268.116391 104.892943 
L 267.701572 105.364328 
L 266.602303 106.473469 
L 266.125261 107.832166 
L 267.784536 111.741888 
L 267.846759 111.935988 
L 267.763795 112.435101 
L 267.763795 113.0174 
L 267.582016 113.697856 
L 267.452681 114.181998 
L 267.473422 114.70884 
L 267.763795 115.263411 
L 268.489728 115.679338 
L 268.884013 115.762524 
L 269.236609 116.372551 
L 269.838096 117.89762 
L 269.817355 119.062218 
L 270.12847 119.64424 
L 272.196675 120.848666 
L 272.223512 120.864295 
L 272.515369 121.028938 
L 279.14958 124.771443 
L 283.922022 127.463684 
L 291.213098 138.581045 
L 291.323011 138.748638 
L 291.511961 139.055038 
L 290.873762 140.441465 
L 288.153381 142.591534 
L 287.767969 142.934209 
L 287.252395 143.392611 
L 288.849447 147.058322 
L 289.088583 148.3888 
L 289.322962 149.692809 
L 288.037439 151.059548 
L 285.576319 152.892958 
L 285.310628 156.091166 
L 282.747463 157.231917 
L 282.16378 158.119248 
L 281.578296 159.009316 
L 278.953738 159.47571 
L 277.957078 158.252761 
L 276.955415 157.023674 
L 276.088793 155.960287 
L 275.624818 155.836341 
L 275.137406 154.502599 
L 274.650201 149.570526 
L 275.369497 147.027266 
L 276.135252 147.089101 
L 277.341545 145.197184 
L 277.736038 141.226736 
L 276.880074 139.967981 
L 274.719891 136.791282 
L 272.840554 135.364372 
L 271.095927 135.2384 
L 268.420453 135.045217 
L 266.695637 131.930194 
L 265.068925 129.471229 
L 264.442639 128.998043 
L 263.442006 128.242023 
L 263.023336 126.352164 
L 262.948719 126.015344 
L 262.505346 124.013978 
L 262.406826 120.474987 
L 262.160148 120.174394 
L 261.07588 118.853145 
L 261.046152 118.845196 
L 259.054676 118.312716 
L 258.808986 118.369232 
L 257.131991 118.754986 
L 257.075161 120.106752 
L 258.181897 122.926465 
L 258.179559 123.294252 
L 258.167171 125.242906 
L 258.371183 126.027642 
L 259.202559 129.225554 
L 259.153195 131.192615 
L 259.141958 131.92035 
L 259.103832 134.389437 
L 259.41127 134.906026 
L 260.040493 135.963308 
L 260.871074 136.338643 
L 262.653228 137.143989 
L 262.389614 138.287392 
L 262.28404 138.745311 
L 262.28404 143.367101 
L 260.775966 149.570526 
L 259.755097 151.214551 
L 258.89663 151.028492 
L 257.272407 149.756862 
L 257.086776 147.337271 
L 257.365327 146.561982 
L 257.133235 146.375923 
L 254.848422 146.363491 
L 251.425744 146.344867 
L 246.599951 145.724303 
L 246.237814 145.209384 
L 246.483801 144.731899 
L 245.648564 144.421617 
L 244.944409 145.459495 
L 244.95178 145.506213 
L 245.918982 151.636071 
L 245.950344 151.834838 
L 246.36301 151.715094 
L 248.943262 150.96638 
L 249.894441 150.066867 
L 253.244102 152.324523 
L 253.382181 154.771203 
L 254.391491 172.655631 
L 252.346824 173.210583 
L 245.277508 175.129293 
L 246.34463 179.378689 
L 250.683219 186.916134 
L 251.564916 187.846703 
L 252.09858 191.010528 
L 252.075351 192.902445 
L 251.112215 196.410042 
L 250.729679 197.803184 
L 251.031252 201.649408 
L 251.448974 202.393918 
L 251.518664 203.541602 
L 251.356262 205.006223 
L 250.785264 205.772639 
L 250.404876 204.997904 
L 248.796831 205.56523 
L 248.759082 206.946387 
L 249.379444 208.645037 
L 249.230731 210.134336 
L 248.201981 212.6751 
L 247.360313 213.699115 
L 246.77885 213.633032 
L 246.628366 213.615929 
L 245.021151 214.481891 
L 243.832123 215.747908 
L 243.590648 216.005019 
L 243.68896 222.943805 
L 239.634729 229.004705 
L 237.897261 232.992622 
L 231.652994 232.166312 
L 229.612253 231.77027 
L 228.889679 231.630042 
L 222.945949 232.550629 
L 208.608984 236.001721 
L 195.425007 241.005888 
L 192.612329 242.629393 
L 188.648943 244.12701 
L 186.884511 244.286905 
L 177.664128 245.122464 
L 175.122326 245.743029 
L 165.208573 248.545828 
L 160.297742 251.128185 
L 159.190175 250.165174 
L 159.327688 248.273811 
" clip-path="url(#p2a89564382)" style="fill: #ff5733"/>
   </g>
   <g id="text_1">
    <!-- RI -->
    <g transform="translate(230.220938 35.472) scale(0.12 -0.12)">
     <defs>
      <path id="DejaVuSans-52" d="M 2841 2188 
Q 3044 2119 3236 1894 
Q 3428 1669 3622 1275 
L 4263 0 
L 3584 0 
L 2988 1197 
Q 2756 1666 2539 1819 
Q 2322 1972 1947 1972 
L 1259 1972 
L 1259 0 
L 628 0 
L 628 4666 
L 2053 4666 
Q 2853 4666 3247 4331 
Q 3641 3997 3641 3322 
Q 3641 2881 3436 2590 
Q 3231 2300 2841 2188 
z
M 1259 4147 
L 1259 2491 
L 2053 2491 
Q 2509 2491 2742 2702 
Q 2975 2913 2975 3322 
Q 2975 3731 2742 3939 
Q 2509 4147 2053 4147 
L 1259 4147 
z
" transform="scale(0.015625)"/>
      <path id="DejaVuSans-49" d="M 628 4666 
L 1259 4666 
L 1259 0 
L 628 0 
L 628 4666 
z
" transform="scale(0.015625)"/>
     </defs>
     <use xlink:href="#DejaVuSans-52"/>
     <use xlink:href="#DejaVuSans-49" x="69.482422"/>
    </g>
   </g>
  </g>
 </g>
 <defs>
  <clipPath id="p2a89564382">
   <rect x="151.493193" y="41.472" width="169.333614" height="266.112"/>
  </clipPath>
 </defs>
</svg>
