<?xml version="1.0" encoding="utf-8" standalone="no"?>
<!DOCTYPE svg PUBLIC "-//W3C//DTD SVG 1.1//EN"
  "http://www.w3.org/Graphics/SVG/1.1/DTD/svg11.dtd">
<svg xmlns:xlink="http://www.w3.org/1999/xlink" width="460.8pt" height="345.6pt" viewBox="0 0 460.8 345.6" xmlns="http://www.w3.org/2000/svg" version="1.1">
 <metadata>
  <rdf:RDF xmlns:dc="http://purl.org/dc/elements/1.1/" xmlns:cc="http://creativecommons.org/ns#" xmlns:rdf="http://www.w3.org/1999/02/22-rdf-syntax-ns#">
   <cc:Work>
    <dc:type rdf:resource="http://purl.org/dc/dcmitype/StillImage"/>
    <dc:date>2023-06-19T14:47:51.515714</dc:date>
    <dc:format>image/svg+xml</dc:format>
    <dc:creator>
     <cc:Agent>
      <dc:title>Matplotlib v3.7.1, https://matplotlib.org/</dc:title>
     </cc:Agent>
    </dc:creator>
   </cc:Work>
  </rdf:RDF>
 </metadata>
 <defs>
  <style type="text/css">*{stroke-linejoin: round; stroke-linecap: butt}</style>
 </defs>
 <g id="figure_1">
  <g id="patch_1">
   <path d="M 0 345.6 
L 460.8 345.6 
L 460.8 0 
L 0 0 
z
" style="fill: #ffffff"/>
  </g>
  <g id="axes_1">
   <g id="PatchCollection_1">
    <path d="M 83.781968 90.588703 
L 84.061192 89.938726 
L 84.70482 89.550763 
L 85.883022 88.233392 
L 85.823111 87.795688 
L 85.890431 87.160314 
L 85.642112 85.944402 
L 86.280737 85.168704 
L 86.922846 84.979172 
L 87.078702 84.857101 
L 87.059703 84.501995 
L 86.965784 84.319764 
L 86.965784 84.232984 
L 87.001882 84.154874 
L 87.066922 84.085434 
L 87.189784 84.076764 
L 87.327148 84.076764 
L 87.515049 84.042006 
L 87.702951 83.729567 
L 87.715934 83.45006 
L 87.79231 83.300305 
L 88.115423 83.40937 
L 88.220615 83.539807 
L 88.695277 83.879474 
L 88.976591 83.759457 
L 89.170066 83.534863 
L 89.22491 82.671244 
L 89.054614 82.332945 
L 89.201921 81.717422 
L 89.400526 81.632771 
L 89.547896 81.632771 
L 89.695646 81.691563 
L 89.804195 81.740543 
L 89.957961 81.694377 
L 90.028448 81.632771 
L 90.081836 81.506898 
L 90.156566 81.094216 
L 90.316729 80.90187 
L 90.496144 80.717205 
L 90.508937 80.363239 
L 90.598613 80.178575 
L 90.899749 80.086242 
L 91.053516 79.855412 
L 91.044776 79.619865 
L 91.011591 79.40744 
L 91.111083 79.301266 
L 91.436032 79.225666 
L 91.634827 79.084505 
L 92.213731 79.220113 
L 92.642859 78.864778 
L 92.873382 79.056212 
L 93.130251 79.066632 
L 93.411691 78.723542 
L 93.197064 78.295269 
L 93.274391 78.034168 
L 93.636895 77.933089 
L 93.816817 77.720359 
L 94.094015 77.712982 
L 94.338977 77.591748 
L 94.698061 77.198233 
L 94.820859 76.928842 
L 95.131052 76.726456 
L 95.338776 76.473949 
L 95.480003 76.19642 
L 95.701787 76.122417 
L 95.960492 76.166834 
L 96.14529 76.026282 
L 96.280818 75.708138 
L 96.447124 75.552831 
L 96.656558 75.486206 
L 97.079922 75.673457 
L 97.247115 75.661364 
L 97.884663 75.203733 
L 97.927031 75.095809 
L 97.897203 74.881634 
L 97.951857 74.711649 
L 98.041976 74.657573 
L 98.225318 74.738649 
L 98.389344 74.661452 
L 98.48263 74.580299 
L 98.521262 74.418071 
L 98.47617 74.309919 
L 98.366862 74.170812 
L 98.124876 73.84917 
L 98.107523 73.466151 
L 98.275793 73.354957 
L 98.480857 73.071571 
L 98.438869 72.717605 
L 98.528545 72.353599 
L 99.058368 71.783938 
L 99.184776 71.423507 
L 99.376921 71.26493 
L 99.53531 70.762046 
L 99.528344 70.499575 
L 99.469383 70.228739 
L 99.274642 69.900556 
L 105.603878 67.853064 
L 106.16114 67.672791 
L 112.64416 65.689928 
L 118.200337 63.961396 
L 119.587212 63.484067 
L 119.877519 63.440259 
L 120.01387 63.517456 
L 120.018176 63.524529 
L 120.170866 63.594273 
L 120.316146 63.763574 
L 120.249649 64.103089 
L 120.141417 64.347306 
L 120.089993 64.458957 
L 120.089993 64.593652 
L 120.050855 64.699523 
L 119.960482 64.868824 
L 120.251613 65.072198 
L 120.715825 64.970815 
L 121.069336 64.765387 
L 121.497451 64.777404 
L 121.721767 64.654954 
L 121.905236 64.363354 
L 121.915559 64.189489 
L 122.017584 63.981247 
L 122.211376 63.932267 
L 122.507129 63.993492 
L 122.721313 63.907777 
L 122.878056 63.660746 
L 123.190466 63.381087 
L 123.272035 63.270881 
L 123.282548 63.060738 
L 123.31776 62.955172 
L 123.441318 62.790586 
L 123.666015 62.775451 
L 123.857273 62.857287 
L 124.183108 62.881777 
L 124.698936 62.608051 
L 124.903873 62.523704 
L 125.087468 62.535949 
L 125.240412 62.560439 
L 125.474988 62.462479 
L 125.80836 62.031924 
L 125.882963 61.862319 
L 125.862571 61.690812 
L 125.740153 61.470325 
L 125.699368 61.335629 
L 125.709564 61.225423 
L 125.750412 61.115142 
L 125.852374 60.968201 
L 125.934577 60.87815 
L 125.991765 60.839894 
L 126.007091 60.685348 
L 126.03597 60.478246 
L 126.188913 60.380286 
L 126.362312 60.355796 
L 126.617281 60.417021 
L 126.729502 60.576207 
L 126.841661 60.747714 
L 126.892642 60.870164 
L 127.076237 60.968201 
L 127.534307 60.96668 
L 127.820751 60.870164 
L 128.096112 60.674243 
L 128.228726 60.453756 
L 128.401112 60.309021 
L 128.616309 60.184289 
L 128.810037 60.123063 
L 129.065069 60.208779 
L 129.289386 60.343475 
L 129.422 60.380286 
L 129.64638 60.355796 
L 129.810722 60.222849 
L 129.911355 60.030503 
L 130.143271 59.710838 
L 130.345422 59.662543 
L 130.572842 59.553706 
L 130.606787 59.490731 
L 130.696843 59.437112 
L 130.870242 59.375886 
L 131.335595 59.376115 
L 131.602723 59.47552 
L 131.96434 59.378701 
L 132.234888 59.080104 
L 132.369339 59.063828 
L 132.635264 59.123912 
L 132.708031 59.170306 
L 132.858187 59.142774 
L 133.116969 59.025769 
L 133.390417 58.902132 
L 133.544057 58.717619 
L 133.625943 58.533183 
L 133.779583 58.422445 
L 133.967042 58.417197 
L 134.107255 58.471653 
L 134.260832 58.4102 
L 134.342782 58.324104 
L 134.342972 58.189408 
L 134.383757 58.016608 
L 134.465643 57.930589 
L 134.619283 57.819851 
L 134.813834 57.758397 
L 134.998189 57.758397 
L 135.254171 57.758397 
L 135.524276 57.838028 
L 135.540172 57.883282 
L 135.622818 58.016608 
L 135.755939 58.115025 
L 135.919775 58.115025 
L 136.17582 58.02893 
L 136.462518 57.869059 
L 136.601402 57.702268 
L 136.723376 57.580654 
L 136.747062 57.551296 
L 136.801906 57.519885 
L 137.429322 57.485507 
L 137.827924 57.502164 
L 138.102588 57.453716 
L 138.402775 57.042784 
L 138.618669 56.831423 
L 138.835259 56.732246 
L 139.329301 56.603863 
L 139.571413 56.669804 
L 139.845128 56.668739 
L 140.345376 56.401781 
L 140.629287 56.45639 
L 140.795339 56.664404 
L 140.809462 56.821384 
L 140.798886 57.09724 
L 140.908448 57.381615 
L 141.049801 57.398575 
L 141.643462 57.335753 
L 141.890831 57.194896 
L 141.989816 56.96148 
L 142.377779 56.015339 
L 142.601906 55.264816 
L 142.900636 54.844909 
L 143.036607 54.729456 
L 143.435336 54.550571 
L 143.939003 54.399219 
L 144.423545 53.734411 
L 144.598781 53.568 
L 144.756537 53.568532 
L 145.162486 53.937634 
L 145.178508 54.157893 
L 145.384459 54.566315 
L 145.497188 54.887501 
L 145.468879 55.051706 
L 145.379329 55.227244 
L 145.341584 55.408486 
L 145.360457 55.533066 
L 145.435884 55.736973 
L 145.619796 55.923844 
L 145.847152 56.093145 
L 145.968747 56.150339 
L 146.114914 56.127674 
L 146.411997 55.901179 
L 146.463928 55.787931 
L 146.459178 55.652018 
L 146.478051 55.527438 
L 146.591222 55.436779 
L 147.086131 55.330941 
L 147.312114 55.282613 
L 147.662458 55.263067 
L 147.875249 55.385137 
L 147.942443 55.56174 
L 147.982024 55.581362 
L 148.076703 55.575278 
L 148.335029 55.449709 
L 148.395763 55.450926 
L 148.534836 55.573604 
L 148.549402 55.745872 
L 148.779419 55.876004 
L 149.005319 55.896311 
L 149.352307 55.662894 
L 149.478968 55.448416 
L 149.542805 55.417157 
L 150.03026 55.2709 
L 150.77832 55.122362 
L 151.215364 54.845518 
L 151.591358 54.750219 
L 151.696321 54.746684 
L 152.072416 54.734019 
L 153.174684 54.84316 
L 154.859276 54.984016 
L 154.884482 54.985537 
L 155.790108 55.040298 
L 155.80765 55.041408 
L 157.103204 55.123427 
L 157.734609 55.168757 
L 158.281721 55.211729 
L 158.864236 55.21865 
L 160.683658 55.262534 
L 162.764843 55.385273 
L 163.809716 55.446895 
L 166.417716 55.525235 
L 166.972126 55.541889 
L 169.393189 55.614599 
L 171.42459 55.710754 
L 174.194276 55.841855 
L 177.419401 55.9472 
L 177.43547 55.947725 
L 182.01756 56.154446 
L 183.900377 56.221452 
L 184.16905 56.23101 
L 186.044685 56.297736 
L 187.452713 56.347857 
L 189.698286 56.463539 
L 191.857477 56.574733 
L 193.873288 56.67855 
L 195.975608 56.786854 
L 198.289136 56.888466 
L 201.51171 57.030082 
L 201.566427 57.024834 
L 203.592561 57.123251 
L 204.163169 57.150936 
L 204.59198 57.171395 
L 209.591039 57.409527 
L 209.596817 57.409794 
L 212.038866 57.522677 
L 214.405362 57.632068 
L 215.74961 57.694222 
L 216.016075 57.706543 
L 217.507671 57.77551 
L 217.655105 57.783648 
L 224.061051 58.130237 
L 225.794217 58.223938 
L 225.892063 58.229262 
L 227.9213 58.386546 
L 230.050979 58.551588 
L 230.098793 58.599428 
L 230.064785 58.664684 
L 230.002468 58.700583 
L 229.831475 58.910574 
L 229.784927 59.018118 
L 229.570997 59.817165 
L 229.581573 59.937562 
L 229.620648 59.983652 
L 230.345909 60.344844 
L 230.485806 60.629827 
L 230.723549 61.299502 
L 230.757368 61.581975 
L 230.736152 61.732871 
L 230.599865 62.032837 
L 230.447175 62.151789 
L 230.268874 62.19679 
L 229.867384 62.298121 
L 229.642244 62.435023 
L 229.515646 62.628282 
L 229.188987 63.400025 
L 229.138766 64.384117 
L 229.162895 65.202255 
L 229.286579 65.378097 
L 229.646107 65.748871 
L 230.186253 66.550733 
L 231.335947 65.75921 
L 233.02067 64.599339 
L 233.499511 64.269674 
L 233.816929 64.051143 
L 235.481888 62.904898 
L 236.933424 61.781547 
L 238.731821 64.112368 
L 238.752116 64.138527 
L 240.10394 65.880905 
L 240.128688 65.915548 
L 241.012058 67.152123 
L 242.922314 69.826171 
L 244.114473 71.495 
L 245.050245 72.745822 
L 245.0707 72.772822 
L 246.617168 74.83486 
L 246.333742 77.381981 
L 245.789628 82.271872 
L 245.67006 83.346167 
L 245.635482 83.657085 
L 246.89139 83.663854 
L 247.266306 83.667733 
L 250.106397 83.696468 
L 252.821534 83.723939 
L 253.646933 83.732271 
L 255.194719 83.747897 
L 255.317896 83.749722 
L 256.494514 83.776418 
L 256.499834 83.774744 
L 256.801984 83.779688 
L 260.570949 83.832349 
L 260.574267 83.832395 
L 264.492463 83.849127 
L 264.997461 83.884342 
L 265.414176 83.889361 
L 267.540435 83.914916 
L 267.723714 83.919784 
L 268.605464 83.947468 
L 269.171703 83.959485 
L 269.571698 83.976902 
L 269.644718 83.973784 
L 269.734584 83.982454 
L 270.82026 84.011356 
L 273.97431 84.061477 
L 275.827402 84.090951 
L 276.848123 84.107186 
L 278.182054 84.128406 
L 281.327491 84.178451 
L 281.596962 84.185144 
L 286.058788 84.295654 
L 287.837299 84.339691 
L 289.874959 84.390192 
L 289.936516 84.390192 
L 291.253728 84.422972 
L 291.526746 84.421451 
L 293.436035 84.470051 
L 294.404992 84.498268 
L 295.303672 84.521719 
L 296.110039 84.542761 
L 300.703497 84.662738 
L 300.728292 84.663386 
L 300.741098 84.663704 
L 303.019273 84.720276 
L 304.333382 84.752904 
L 310.48189 84.710845 
L 310.531161 84.709096 
L 312.298336 84.729479 
L 312.34957 84.732141 
L 315.590168 84.78368 
L 315.764036 84.786445 
L 315.897853 84.789487 
L 316.707787 84.801124 
L 319.309595 87.366655 
L 319.476724 87.532229 
L 323.902642 91.855193 
L 324.360965 92.283618 
L 325.751828 93.653512 
L 326.525919 94.415932 
L 326.603562 94.492445 
L 328.430141 96.27992 
L 329.120191 96.97804 
L 329.121897 96.980018 
L 329.608216 97.543899 
L 329.790734 97.686657 
L 330.243808 98.068839 
L 330.259317 98.081921 
L 330.357606 98.165507 
L 330.973939 98.773273 
L 336.782425 104.529061 
L 338.491652 106.315547 
L 338.901654 106.740474 
L 339.0033 106.865814 
L 340.054333 107.946422 
L 341.317777 109.297334 
L 343.657207 111.798825 
L 343.96607 112.11347 
L 345.795879 113.977458 
L 345.839774 114.022175 
L 346.873194 115.07495 
L 347.305584 115.498316 
L 347.312771 115.505353 
L 347.395228 115.603389 
L 349.881204 118.113095 
L 350.403238 118.640621 
L 354.962204 123.242377 
L 354.962919 123.243098 
L 354.967659 123.247883 
L 359.743351 128.061181 
L 361.774234 130.108084 
L 365.182113 133.542786 
L 366.460751 134.831504 
L 367.407168 135.785382 
L 368.633374 137.032629 
L 371.399335 139.845951 
L 372.503158 140.968687 
L 374.073593 142.566029 
L 377.700975 146.255519 
L 377.831753 146.410978 
L 378.298499 146.823203 
L 380.846983 149.466007 
L 381.537349 150.159869 
L 381.617451 150.240375 
L 381.61921 150.242143 
L 383.453731 152.085918 
L 383.798059 152.431974 
L 386.049712 154.759145 
L 388.538032 157.330836 
L 387.723791 157.580377 
L 385.767068 157.850301 
L 380.230777 159.880623 
L 377.580014 161.20773 
L 375.853836 162.326168 
L 375.531865 162.534783 
L 373.867515 163.613162 
L 371.322008 165.517535 
L 368.155482 168.393832 
L 364.910187 171.808015 
L 363.396509 173.400465 
L 362.012695 175.157841 
L 359.374884 178.507733 
L 359.00897 178.972425 
L 357.668896 181.497494 
L 356.870361 182.227026 
L 354.117827 185.277188 
L 353.055647 187.000091 
L 350.897279 191.346632 
L 350.13383 193.295498 
L 349.846373 195.373204 
L 349.441437 196.750887 
L 349.194258 197.174141 
L 348.055195 202.734236 
L 348.039679 203.965283 
L 348.557026 206.351777 
L 347.576923 208.851367 
L 347.085415 209.436696 
L 345.830077 210.231256 
L 344.385571 211.639363 
L 343.88982 212.566489 
L 341.061249 213.693206 
L 341.008217 213.71433 
L 338.581518 215.219256 
L 338.121739 216.564236 
L 338.23719 217.092066 
L 337.985958 218.234888 
L 336.678309 221.55581 
L 333.907535 221.76641 
L 333.096714 221.544934 
L 332.657707 220.915948 
L 330.276479 221.482263 
L 328.854582 221.967046 
L 328.52349 220.859134 
L 327.371128 219.567622 
L 326.387858 219.374668 
L 324.16426 220.445616 
L 322.697208 221.572923 
L 322.325775 222.722361 
L 321.411915 223.638992 
L 321.057581 224.173972 
L 320.361199 225.658742 
L 320.354612 226.256241 
L 320.657775 227.020987 
L 321.084243 227.694998 
L 321.096362 227.694633 
L 322.369663 227.656361 
L 322.636285 227.285206 
L 323.062879 227.042967 
L 323.210882 227.091719 
L 323.391501 227.638792 
L 322.996065 229.194675 
L 319.50383 230.535472 
L 317.966355 231.744843 
L 315.451183 233.441431 
L 315.176265 234.232492 
L 314.956255 234.553145 
L 313.884512 235.312567 
L 313.971935 235.722322 
L 314.081977 236.238096 
L 313.47223 236.818482 
L 308.112441 239.026852 
L 307.655448 239.833658 
L 306.25502 240.55893 
L 305.737166 240.678187 
L 304.839013 240.200553 
L 304.800712 239.588075 
L 304.793858 239.478475 
L 304.337498 238.927751 
L 303.80403 238.52584 
L 303.363918 238.194264 
L 301.008213 238.657751 
L 300.744821 239.364466 
L 300.705736 240.086433 
L 300.669521 240.755384 
L 302.568919 240.912217 
L 303.800392 241.013899 
L 304.481639 242.229659 
L 304.355991 242.767529 
L 303.294698 244.732063 
L 303.429782 246.066471 
L 301.484205 247.548579 
L 298.14124 249.463905 
L 297.711859 249.478736 
L 296.972855 250.4788 
L 296.666778 251.239287 
L 296.093574 252.03765 
L 295.479014 251.812523 
L 293.783593 251.707261 
L 291.265381 252.233343 
L 288.458002 253.206559 
L 286.745671 254.122581 
L 285.549991 255.536772 
L 285.266396 256.583839 
L 284.531129 257.049988 
L 284.104661 256.52885 
L 283.921328 256.402092 
L 283.146977 255.866704 
L 280.542129 257.724987 
L 280.339134 257.841377 
L 278.66238 258.802763 
L 278.558617 258.862257 
L 275.090827 261.756731 
L 274.716164 261.70912 
L 274.366009 260.791501 
L 273.094776 260.388174 
L 272.033356 261.128886 
L 271.646343 261.703035 
L 271.283206 261.967559 
L 269.957951 262.321981 
L 269.802411 262.21535 
L 269.678727 261.910973 
L 269.640349 260.783971 
L 269.536989 260.606125 
L 269.326736 260.244352 
L 268.316424 259.827335 
L 267.513963 260.297819 
L 266.650641 260.448867 
L 266.247986 260.322309 
L 265.941316 261.202619 
L 265.729815 261.809742 
L 265.453251 263.059423 
L 265.718412 264.053657 
L 265.735768 264.118735 
L 266.531706 265.775926 
L 267.170458 266.91639 
L 268.724716 266.886348 
L 268.915911 267.561499 
L 268.957076 268.482921 
L 268.639663 269.58376 
L 267.933654 271.474367 
L 267.214029 272.4974 
L 267.316752 273.290363 
L 266.610616 273.844661 
L 263.347257 275.394232 
L 261.981978 276.289567 
L 261.585592 276.665894 
L 259.97649 277.335037 
L 258.374354 277.314426 
L 256.987922 278.330994 
L 255.68515 278.678191 
L 255.203775 277.959155 
L 255.309157 275.949367 
L 254.704288 275.760809 
L 252.539523 275.085976 
L 250.888243 273.35136 
L 250.060858 273.67431 
L 249.682683 273.821921 
L 249.462229 274.844117 
L 248.427915 274.783805 
L 247.63071 275.864869 
L 247.933493 276.82044 
L 249.294391 277.940103 
L 249.401115 278.02791 
L 250.685902 277.814496 
L 253.216019 280.139384 
L 253.765665 281.631837 
L 252.518624 282.834439 
L 250.453669 285.918065 
L 248.703973 287.461247 
L 246.113437 288.803108 
L 244.688057 289.772674 
L 244.116373 289.860671 
L 243.681672 289.508302 
L 243.483004 289.547319 
L 242.66604 289.775488 
L 241.76016 290.545786 
L 240.533087 292.050867 
L 238.806234 294.168956 
L 239.631685 294.79102 
L 240.064042 295.488 
L 239.591596 295.461456 
L 238.471153 295.32562 
L 238.016693 295.261733 
L 237.70327 295.141868 
L 237.452544 294.95013 
L 237.021643 294.502767 
L 236.409301 293.721669 
L 235.696452 292.900413 
L 235.384866 292.699852 
L 234.154291 292.239712 
L 233.881969 292.064782 
L 233.590649 291.714923 
L 233.337327 291.182606 
L 233.172667 290.924014 
L 232.824349 290.58891 
L 232.668303 290.510268 
L 232.386609 290.426302 
L 232.056277 290.500533 
L 231.799915 290.70984 
L 231.540992 291.071425 
L 231.444441 291.206259 
L 230.744512 291.620538 
L 230.390431 291.695149 
L 229.632427 291.631338 
L 228.985949 291.464394 
L 228.576581 291.247786 
L 227.522761 290.454443 
L 227.267875 290.247588 
L 227.225867 290.213496 
L 227.058675 289.982285 
L 227.019157 289.69388 
L 226.899589 289.659806 
L 226.451715 289.663533 
L 225.775598 289.600863 
L 225.636271 289.509595 
L 225.389282 289.174948 
L 225.21449 287.907622 
L 225.268954 287.311645 
L 225.319619 287.136791 
L 225.211957 286.45989 
L 225.191404 286.354991 
L 225.085296 285.813412 
L 225.015632 285.729826 
L 224.67998 285.615741 
L 224.603984 285.524474 
L 224.618676 285.42408 
L 224.698979 285.258277 
L 224.929629 285.028739 
L 225.142293 284.81715 
L 225.249955 284.779122 
L 225.254578 284.646784 
L 225.186624 284.528136 
L 225.224623 284.337996 
L 225.344951 284.026241 
L 225.325952 283.729621 
L 225.014619 282.807211 
L 224.689543 282.25162 
L 224.200061 281.930358 
L 224.15478 281.868676 
L 223.748705 281.25551 
L 223.533926 280.859472 
L 223.090574 280.041956 
L 222.934527 279.753627 
L 222.897036 279.568658 
L 222.95986 279.408027 
L 223.419703 278.71774 
L 223.578029 278.086549 
L 224.167003 277.379225 
L 224.527987 277.234719 
L 224.705312 277.105423 
L 225.123357 276.481837 
L 225.237352 276.246063 
L 225.236923 276.240912 
L 225.224686 276.09395 
L 225.06636 274.892337 
L 225.028361 274.74783 
L 224.965031 274.641351 
L 224.870035 274.595717 
L 224.217731 273.432132 
L 224.097403 273.15833 
L 224.135464 273.021428 
L 224.388786 272.656358 
L 224.350788 272.162068 
L 223.888475 271.546012 
L 223.787146 271.431928 
L 223.692151 271.416717 
L 223.464161 271.546012 
L 223.410646 271.68626 
L 223.372901 271.752201 
L 223.276892 271.813959 
L 223.180883 271.818066 
L 223.105457 271.818066 
L 223.060872 271.809852 
L 223.03345 271.797454 
L 223.009448 271.772736 
L 222.988928 271.715085 
L 222.999188 271.59157 
L 222.995515 271.492773 
L 222.5712 271.036511 
L 222.039604 270.639041 
L 221.993246 270.532258 
L 222.012562 270.448672 
L 222.089888 270.314052 
L 222.12852 270.165515 
L 222.089888 270.021616 
L 221.830233 269.781658 
L 221.397897 269.251099 
L 221.346388 269.187887 
L 221.532643 268.869059 
L 221.58964 268.329059 
L 221.355317 267.963989 
L 220.798009 267.142657 
L 220.46869 266.823221 
L 219.822782 265.887805 
L 219.613791 264.959994 
L 219.688775 264.841726 
L 219.86078 264.754642 
L 219.983768 264.667481 
L 220.046655 264.551343 
L 220.075661 264.429349 
L 220.075661 264.348045 
L 220.00796 264.237687 
L 219.954763 264.109913 
L 219.954763 263.982138 
L 219.998271 263.860144 
L 220.090163 263.773059 
L 220.304157 263.735564 
L 220.614477 263.416127 
L 220.950129 262.914156 
L 220.981794 262.822888 
L 220.899464 262.724015 
L 220.829801 262.708804 
L 220.627143 262.769649 
L 220.47515 262.746832 
L 220.145831 262.526345 
L 219.360596 261.712542 
L 218.404305 260.556563 
L 218.020712 260.2064 
L 217.723312 259.635977 
L 217.695003 259.414806 
L 217.715079 259.316237 
L 217.822994 259.224209 
L 217.941612 259.158116 
L 217.992973 259.043499 
L 217.952632 258.853967 
L 217.798422 258.774564 
L 217.297161 258.698279 
L 217.115782 258.70482 
L 216.992097 258.757299 
L 216.798623 258.697291 
L 215.262921 257.397717 
L 215.319221 257.158824 
L 215.410417 256.962219 
L 215.402501 256.732909 
L 215.384389 256.653506 
L 215.129483 255.93949 
L 214.999048 255.798764 
L 214.997376 255.79696 
L 214.019806 255.326628 
L 213.944126 255.297879 
L 213.77706 255.311797 
L 213.24407 255.454251 
L 212.510766 255.563467 
L 211.993672 255.434628 
L 209.573749 254.230581 
L 209.483693 253.685866 
L 209.445948 253.244435 
L 209.396867 253.152711 
L 209.282049 253.092855 
L 209.180213 253.085477 
L 208.986485 253.305888 
L 208.797824 253.320719 
L 208.684905 253.272804 
L 208.161653 252.836944 
L 208.156792 252.832894 
L 207.870095 252.307802 
L 207.664841 252.060847 
L 207.183022 251.633411 
L 206.727549 251.085577 
L 206.299814 250.250327 
L 206.314317 249.846316 
L 206.404056 249.736567 
L 206.54674 249.638226 
L 206.632236 249.643702 
L 206.751804 249.982989 
L 206.831791 250.098214 
L 206.890688 250.120727 
L 207.021086 250.071975 
L 207.301323 249.731775 
L 207.308353 249.669257 
L 207.213167 249.576012 
L 207.158006 249.23893 
L 207.254712 249.185083 
L 207.824243 248.715663 
L 207.922786 248.565604 
L 207.873071 248.417446 
L 207.588337 248.203272 
L 207.14762 248.1873 
L 207.026025 247.882923 
L 207.019249 247.803748 
L 207.060667 247.731115 
L 207.210064 247.329309 
L 207.416395 246.591867 
L 207.402019 246.389406 
L 206.955285 245.267423 
L 206.889485 245.239967 
L 206.849397 245.246812 
L 206.800759 245.277767 
L 206.774983 245.339601 
L 206.746358 245.40151 
L 206.651932 245.43931 
L 205.78842 244.814204 
L 205.738896 244.735942 
L 206.139335 243.969142 
L 206.182273 243.340917 
L 206.307287 242.401774 
L 206.679164 241.907637 
L 206.750158 241.826865 
L 206.794742 241.709054 
L 206.812602 241.591166 
L 206.830461 241.484003 
L 206.812602 241.38764 
L 206.759087 241.280476 
L 206.669855 241.216209 
L 206.509248 241.162589 
L 206.455734 241.044778 
L 206.420079 240.905519 
L 206.437938 240.723364 
L 206.518178 240.487666 
L 206.437938 240.294787 
L 206.366565 240.112632 
L 206.205958 239.898381 
L 206.063211 239.780494 
L 205.897222 239.703905 
L 205.822365 239.684055 
L 205.804506 239.630511 
L 205.804506 239.534072 
L 205.831232 239.469804 
L 205.858021 239.416261 
L 205.916411 239.354807 
L 206.045352 239.309097 
L 206.134585 239.201934 
L 206.143515 239.105495 
L 206.152444 239.030503 
L 206.143515 238.944788 
L 206.081071 238.848424 
L 205.947253 238.784081 
L 205.804506 238.687641 
L 205.688485 238.559106 
L 205.6439 238.376951 
L 205.706344 238.216244 
L 205.898362 238.009676 
L 205.883479 237.716403 
L 205.906278 237.131378 
L 205.976069 236.47486 
L 206.230657 236.230187 
L 206.310137 236.08317 
L 206.342626 235.890595 
L 206.175686 234.89981 
L 206.112736 234.599007 
L 205.804886 234.173472 
L 204.779185 233.463563 
L 204.720668 233.423938 
L 204.640175 233.398155 
L 204.353287 233.538174 
L 204.239102 233.629518 
L 204.152086 233.627616 
L 204.064943 233.489878 
L 203.936446 233.159338 
L 204.123967 232.738823 
L 204.229476 232.058347 
L 204.132454 231.725144 
L 204.06678 231.640722 
L 203.172426 231.442899 
L 203.024613 231.47393 
L 202.673635 231.369429 
L 202.450268 231.107719 
L 202.598778 230.621948 
L 202.940573 230.396061 
L 202.995481 230.389824 
L 203.386927 229.973188 
L 203.424038 229.835146 
L 203.30656 229.677329 
L 203.113149 229.586517 
L 202.466797 229.240081 
L 202.414613 228.646386 
L 202.212589 228.010707 
L 201.459335 227.265812 
L 201.159339 227.188387 
L 200.994806 226.980068 
L 200.976503 226.726421 
L 201.175995 226.343553 
L 201.183594 226.247266 
L 200.894174 226.011263 
L 200.702346 225.775261 
L 200.633125 225.563672 
L 200.614253 225.427607 
L 200.60792 225.321813 
L 200.614253 225.231078 
L 200.658268 225.163084 
L 200.677203 225.087484 
L 200.696076 225.004354 
L 200.740091 224.921225 
L 200.815644 224.875895 
L 200.936605 224.881143 
L 201.06181 224.883881 
L 201.159275 224.815278 
L 201.182011 224.74196 
L 201.481881 223.660592 
L 201.689542 222.410302 
L 201.706008 222.228756 
L 201.691948 221.448875 
L 201.639131 221.35274 
L 201.019948 220.913819 
L 200.436357 219.949957 
L 200.310583 219.892155 
L 199.905204 219.843859 
L 198.691981 219.082992 
L 198.610158 218.974383 
L 198.482801 218.651448 
L 198.456343 218.621435 
L 198.345627 218.495837 
L 198.18559 218.477584 
L 197.865581 218.660575 
L 197.75127 218.706361 
L 197.537846 218.633119 
L 197.454059 218.55075 
L 197.400672 218.459254 
L 197.37021 218.331175 
L 197.401052 218.126204 
L 197.415935 218.038283 
L 197.400672 217.946787 
L 197.316886 217.864418 
L 197.263561 217.836962 
L 197.217837 217.836962 
L 197.187311 217.836962 
L 197.141587 217.836962 
L 197.050137 217.901001 
L 196.920626 217.974243 
L 196.783453 217.992497 
L 196.53298 217.942528 
L 196.187702 217.580804 
L 196.019116 217.294756 
L 195.841158 216.965889 
L 195.541288 216.674669 
L 195.404114 216.647213 
L 195.281252 216.746162 
L 195.160291 216.747911 
L 194.863081 216.601427 
L 194.809693 216.473348 
L 194.802094 216.345193 
L 194.855418 216.217039 
L 194.924005 216.043174 
L 194.931668 215.896766 
L 194.802094 215.677115 
L 194.710644 215.622202 
L 194.58829 215.630569 
L 194.382529 215.848166 
L 194.245798 215.841853 
L 194.192474 215.814397 
L 194.177211 215.759484 
L 194.192474 215.603873 
L 194.211726 215.455715 
L 194.215336 215.228687 
L 194.131487 215.018163 
L 194.009575 214.917541 
L 193.909926 214.863695 
L 193.857139 214.835172 
L 193.689503 214.816842 
L 192.774187 214.917617 
L 192.457534 214.993673 
L 192.134485 214.978462 
L 191.87483 214.871983 
L 191.114864 214.217899 
L 189.525267 213.49544 
L 188.676575 213.198821 
L 188.492916 213.183609 
L 188.283926 213.229243 
L 188.18893 213.206426 
L 187.397298 212.628399 
L 186.941318 212.217695 
L 185.70631 211.305095 
L 184.990675 210.536927 
L 184.484031 209.936158 
L 184.401701 209.472215 
L 184.256041 209.076722 
L 183.895057 208.338976 
L 183.895057 208.278131 
L 184.319371 207.76863 
L 184.50303 207.745813 
L 184.642357 207.669757 
L 184.87668 207.015673 
L 184.867287 206.994846 
L 184.79435 206.833137 
L 184.579026 206.719053 
L 184.458698 206.574546 
L 184.199043 205.654341 
L 184.116714 205.525045 
L 183.793728 205.243637 
L 183.515074 205.190398 
L 183.407412 205.243637 
L 183.350414 205.34251 
L 183.584737 205.715186 
L 183.572071 205.988989 
L 183.483408 206.103073 
L 183.128757 206.232369 
L 182.76771 206.209552 
L 181.817752 205.981383 
L 181.684758 205.890115 
L 181.64676 205.806454 
L 181.634094 205.372933 
L 181.539098 205.129553 
L 181.406104 205.038285 
L 180.905793 204.825403 
L 180.380149 204.665685 
L 180.150316 204.317034 
L 180.139493 204.300615 
L 179.805108 203.988328 
L 179.202201 203.676954 
L 178.857486 203.248333 
L 178.84755 203.235979 
L 178.784156 202.992523 
L 179.151537 201.806045 
L 179.45641 201.787867 
L 179.61119 201.753186 
L 179.721448 201.596662 
L 179.726515 201.301792 
L 179.360528 200.870629 
L 178.866549 200.497953 
L 178.264909 200.292601 
L 178.144581 200.094854 
L 178.252243 199.402742 
L 178.518232 199.281052 
L 178.796886 199.273446 
L 178.879216 199.357108 
L 179.005877 199.281052 
L 179.227534 198.954086 
L 179.15407 198.730481 
L 178.751541 198.461013 
L 177.846928 198.178312 
L 177.688602 198.261974 
L 177.346617 198.680283 
L 176.82091 198.452115 
L 176.662584 197.957749 
L 175.985454 197.547957 
L 176.002236 197.387174 
L 176.010279 197.144022 
L 175.931116 196.990237 
L 175.797235 196.879727 
L 175.650815 196.945059 
L 175.554616 197.171098 
L 175.408196 197.407253 
L 175.228274 197.407253 
L 175.161334 197.316822 
L 175.102816 197.146 
L 174.973115 197.000276 
L 174.655006 196.74853 
L 174.604342 196.62684 
L 174.678058 196.083189 
L 174.249691 195.797902 
L 173.743046 195.934803 
L 173.458059 195.927198 
L 173.299733 195.828325 
L 173.2934 195.615367 
L 173.413197 195.468071 
L 173.559388 195.288325 
L 173.610052 194.9841 
L 172.98308 194.375649 
L 172.856419 194.12474 
L 172.881751 193.873754 
L 173.046411 193.744458 
L 173.306066 193.729247 
L 173.622718 194.00305 
L 173.876231 194.061993 
L 174.18636 193.835726 
L 174.243358 193.607557 
L 173.861855 193.156087 
L 173.571041 191.804186 
L 173.454069 191.544986 
L 173.475538 191.321533 
L 173.604353 191.183947 
L 173.883514 191.123787 
L 174.355896 191.01206 
L 174.542024 190.822908 
L 174.599275 190.642426 
L 174.592119 190.453274 
L 174.48205 190.315917 
L 174.239811 190.172323 
L 174.091111 189.903159 
L 174.119736 189.619469 
L 174.234238 189.413205 
L 174.504343 189.284061 
L 174.788063 189.122213 
L 174.970455 188.794867 
L 174.964059 188.625794 
L 174.959309 188.501594 
L 174.496743 187.682924 
L 174.17317 186.912874 
L 174.148425 186.853987 
L 173.952101 186.633423 
L 173.654447 186.443283 
L 173.173072 186.313987 
L 172.875418 186.184691 
L 172.311528 185.892147 
L 171.570809 185.507866 
L 171.159161 185.355754 
L 170.709514 185.249275 
L 170.373799 185.059134 
L 170.158475 184.792937 
L 170.057146 184.473577 
L 170.092358 183.977386 
L 169.993816 183.697803 
L 169.398509 182.503719 
L 169.208517 182.366818 
L 169.031192 182.298367 
L 168.999527 182.260339 
L 168.847533 181.720339 
L 168.752538 181.621466 
L 168.723852 181.607769 
L 168.226894 181.37048 
L 167.998904 181.149917 
L 167.998904 180.937035 
L 167.694918 180.617599 
L 167.391881 180.501993 
L 167.273326 180.296337 
L 167.116267 179.877723 
L 166.548825 179.180439 
L 166.382646 179.101341 
L 166.003676 179.0624 
L 165.963442 179.038241 
L 165.827364 178.95653 
L 165.110969 178.301837 
L 164.85353 178.139989 
L 163.942584 177.903911 
L 163.522069 177.742063 
L 163.381222 177.64106 
L 163.225176 177.467043 
L 162.75501 176.761317 
L 162.556405 176.68952 
L 162.179493 176.695581 
L 162.102389 176.696821 
L 161.8592 176.818511 
L 161.512212 177.133689 
L 161.308541 177.19575 
L 161.027163 177.149356 
L 160.435086 176.864677 
L 160.297102 176.758349 
L 160.058649 176.574599 
L 159.916536 176.356773 
L 159.771065 175.948884 
L 159.585444 175.773118 
L 159.456059 175.690977 
L 159.229526 175.620016 
L 159.088102 175.586247 
L 158.441504 175.431853 
L 158.092996 175.216766 
L 157.694014 174.841428 
L 157.03354 174.10353 
L 156.74203 172.862595 
L 156.833162 172.047804 
L 156.827497 171.765677 
L 156.826829 171.732399 
L 156.771668 171.513205 
L 156.284466 171.115278 
L 156.20429 170.971684 
L 156.054197 170.549039 
L 155.74888 170.010332 
L 155.636088 169.865902 
L 155.378967 169.651043 
L 154.627423 168.807426 
L 154.461751 168.224531 
L 154.552883 167.729404 
L 154.341043 166.475844 
L 154.25827 166.169414 
L 153.893739 165.298873 
L 153.810713 164.823978 
L 153.317051 164.284054 
L 153.140866 164.227849 
L 153.05081 164.241843 
L 152.81427 164.111254 
L 152.73992 163.995725 
L 152.699452 163.823762 
L 152.629282 163.747477 
L 152.528459 163.67857 
L 152.35582 163.658643 
L 151.897561 163.345368 
L 151.683567 163.039317 
L 151.383127 162.73494 
L 151.132465 162.584805 
L 150.961092 162.55636 
L 150.801753 162.597278 
L 150.592635 162.471785 
L 150.522528 162.356256 
L 150.509356 162.246278 
L 150.552294 161.534695 
L 150.529685 161.298921 
L 150.470597 161.170538 
L 150.301378 160.99713 
L 149.914302 160.770102 
L 149.639321 160.518127 
L 149.550215 160.343654 
L 148.933755 159.69459 
L 148.088356 159.152841 
L 147.511795 158.609647 
L 147.198436 158.447343 
L 146.107504 157.99534 
L 145.938538 157.885971 
L 145.779515 157.750819 
L 145.433477 157.332814 
L 145.102702 157.078634 
L 144.750964 156.870696 
L 144.421075 156.724135 
L 144.118292 156.400592 
L 143.905248 156.238288 
L 143.621971 156.174172 
L 143.248004 156.248099 
L 143.019254 156.332902 
L 142.706908 156.369333 
L 142.304062 156.210375 
L 142.178288 156.118575 
L 141.703689 155.59622 
L 141.585958 155.504649 
L 141.104266 155.320592 
L 140.661205 155.008229 
L 140.389771 154.648027 
L 139.723407 154.157311 
L 139.077562 153.468317 
L 138.265791 152.870743 
L 138.0644 152.588955 
L 137.591004 151.631482 
L 137.334136 151.22017 
L 136.997851 150.800871 
L 136.265433 150.314796 
L 136.124459 150.283993 
L 135.657713 150.292663 
L 135.299326 150.452381 
L 135.086662 150.498167 
L 134.366657 150.279886 
L 134.218591 150.163215 
L 133.731215 149.373157 
L 133.727969 149.367895 
L 133.657165 149.149461 
L 133.628983 148.752599 
L 133.493266 148.382053 
L 133.393457 148.236633 
L 133.085671 147.975836 
L 132.907332 147.753676 
L 132.778391 147.54627 
L 132.716644 147.340766 
L 132.715377 147.137164 
L 132.751792 146.994862 
L 132.862747 146.868609 
L 132.983962 146.790803 
L 133.045962 146.698775 
L 133.033993 146.611691 
L 132.990802 146.531299 
L 132.894982 146.482851 
L 132.536595 146.365497 
L 132.356736 146.223652 
L 132.166048 145.997993 
L 132.000755 145.321092 
L 131.834016 144.946952 
L 131.760099 144.781092 
L 131.747433 144.598557 
L 131.861428 144.035816 
L 131.829763 143.822859 
L 131.728434 143.685957 
L 131.291454 143.358915 
L 130.873472 142.971028 
L 130.639149 142.446316 
L 130.271832 142.104063 
L 130.157837 141.868288 
L 130.138838 141.678147 
L 130.08184 141.556457 
L 129.777347 141.180663 
L 129.523455 141.023151 
L 129.359239 141.076846 
L 129.205599 141.067796 
L 128.917319 140.865942 
L 128.699652 140.512889 
L 128.593193 140.223191 
L 128.621122 139.995022 
L 128.774572 139.822678 
L 128.929858 139.443005 
L 128.942144 139.343752 
L 128.907312 139.288078 
L 128.872417 139.244498 
L 128.886477 139.096417 
L 128.853355 138.993665 
L 128.50662 138.566761 
L 128.43341 138.50409 
L 128.180658 138.423851 
L 128.063876 138.375023 
L 127.776229 138.164195 
L 127.743551 138.131795 
L 127.664704 137.876778 
L 127.567872 137.811598 
L 127.249446 137.367657 
L 127.171296 136.868043 
L 126.721206 136.136458 
L 126.588212 135.993624 
L 126.020137 135.780895 
L 125.760735 135.488915 
L 125.648893 135.436208 
L 125.434963 135.449213 
L 125.167201 135.410957 
L 124.889687 135.282498 
L 124.178295 134.738087 
L 124.043148 134.560191 
L 123.675514 133.389609 
L 123.54271 133.094587 
L 123.199775 132.628209 
L 123.132835 132.441339 
L 123.102563 132.273939 
L 123.126882 131.316391 
L 123.077104 131.150284 
L 122.49706 130.030355 
L 122.482628 129.890835 
L 122.467928 129.748718 
L 122.584203 129.397262 
L 122.590346 129.298997 
L 122.33905 128.900919 
L 122.399467 128.716102 
L 122.49326 128.499113 
L 122.312515 127.528559 
L 122.303142 127.383748 
L 122.361786 126.809827 
L 122.064132 125.973208 
L 122.070465 125.919969 
L 122.197126 125.745039 
L 121.994469 125.4056 
L 121.666923 125.010335 
L 121.225699 124.59773 
L 121.165535 124.559854 
L 121.018545 124.594155 
L 120.659968 124.30035 
L 120.484262 124.046167 
L 120.065927 123.44099 
L 119.974478 122.969441 
L 119.652252 122.40054 
L 119.390951 121.398955 
L 119.350292 121.104008 
L 119.373915 120.828684 
L 119.195386 120.165169 
L 119.121353 120.074815 
L 118.932944 120.047662 
L 118.188747 119.387418 
L 117.823603 119.098545 
L 117.335622 118.712494 
L 116.684457 118.304072 
L 116.602001 118.165117 
L 116.576099 117.928734 
L 116.589398 117.569596 
L 116.500229 116.90205 
L 116.189086 116.335127 
L 116.15913 116.154645 
L 116.201625 115.787369 
L 116.15913 115.602248 
L 115.867765 114.813482 
L 115.814042 114.668049 
L 115.792827 114.019897 
L 115.737729 113.770965 
L 115.565723 113.54523 
L 115.371489 113.129734 
L 115.287386 112.239724 
L 115.010948 111.803921 
L 114.96364 111.66991 
L 114.974216 111.216691 
L 114.88245 111.116296 
L 114.680489 110.996812 
L 114.039711 110.754649 
L 113.976317 110.579719 
L 114.014315 110.412395 
L 114.077646 110.344857 
L 114.143066 110.145818 
L 113.950985 109.857184 
L 113.571002 109.575776 
L 112.316994 109.051064 
L 111.95601 109.089092 
L 111.037654 109.393317 
L 110.853995 109.362894 
L 110.683003 109.180359 
L 109.897641 109.035852 
L 109.485993 109.530218 
L 109.02368 109.705148 
L 108.643633 109.347683 
L 107.446686 109.294444 
L 106.645718 109.560929 
L 106.616866 109.570528 
L 106.4517 109.830945 
L 106.46367 110.071663 
L 105.967539 110.098359 
L 104.296183 109.184542 
L 104.093652 109.269345 
L 103.954388 109.234131 
L 103.380677 108.829436 
L 103.094549 108.491898 
L 103.019933 108.35204 
L 102.703546 107.759019 
L 102.489489 107.696577 
L 102.003618 107.893183 
L 101.754349 107.816746 
L 100.630992 106.766561 
L 100.651764 106.625172 
L 101.213253 106.172789 
L 101.20578 106.089812 
L 100.778805 105.623587 
L 100.592993 105.539088 
L 100.29059 105.473224 
L 100.271949 105.480627 
L 100.018649 105.581224 
L 99.681667 105.531407 
L 99.618526 105.438086 
L 99.59403 105.192864 
L 99.567165 104.923945 
L 98.369332 103.405633 
L 98.098594 103.263408 
L 97.940267 103.286225 
L 97.294296 102.80707 
L 96.489935 102.023691 
L 96.363274 101.270809 
L 95.495582 101.057852 
L 95.368921 100.951373 
L 95.32459 100.464613 
L 95.386907 100.22032 
L 95.413633 100.079159 
L 95.386907 99.959143 
L 95.16943 99.828478 
L 94.78875 99.763222 
L 93.677933 99.917007 
L 93.500607 99.734472 
L 92.752104 99.543799 
L 92.131211 99.616661 
L 91.473967 99.513985 
L 90.73927 99.004408 
L 90.910579 98.524493 
L 90.911022 98.509282 
L 90.663273 98.373141 
L 90.42895 97.962513 
L 89.985637 97.506175 
L 89.542259 97.308429 
L 88.927953 97.186739 
L 88.549363 96.96184 
L 88.003264 96.502232 
L 87.604282 96.251246 
L 87.099854 95.621957 
L 87.060019 95.309213 
L 86.859642 95.082642 
L 86.58884 95.028489 
L 86.241979 95.129568 
L 86.114875 95.101275 
L 85.980424 94.686236 
L 85.922413 94.594893 
L 85.794295 94.47556 
L 85.549016 94.325425 
L 85.235657 94.186622 
L 84.86055 94.248076 
L 84.7033 94.136425 
L 84.681831 93.999144 
L 84.662464 93.781691 
L 84.660426 93.758806 
L 84.596082 93.604335 
L 84.467458 93.432676 
L 84.324521 93.261017 
L 84.124396 93.063575 
L 84.024334 92.952001 
L 83.988615 92.831832 
L 84.010085 92.69455 
L 84.124396 92.488514 
L 84.131552 92.351232 
L 84.000458 92.138274 
L 83.925222 91.760351 
L 83.898876 91.668094 
L 83.829656 91.551196 
L 83.829172 91.54143 
L 83.781968 90.588703 
" clip-path="url(#p73e2cd4ed1)" style="fill: #c733ff"/>
   </g>
   <g id="text_1">
    <!-- SC -->
    <g transform="translate(228.16125 35.472) scale(0.12 -0.12)">
     <defs>
      <path id="DejaVuSans-53" d="M 3425 4513 
L 3425 3897 
Q 3066 4069 2747 4153 
Q 2428 4238 2131 4238 
Q 1616 4238 1336 4038 
Q 1056 3838 1056 3469 
Q 1056 3159 1242 3001 
Q 1428 2844 1947 2747 
L 2328 2669 
Q 3034 2534 3370 2195 
Q 3706 1856 3706 1288 
Q 3706 609 3251 259 
Q 2797 -91 1919 -91 
Q 1588 -91 1214 -16 
Q 841 59 441 206 
L 441 856 
Q 825 641 1194 531 
Q 1563 422 1919 422 
Q 2459 422 2753 634 
Q 3047 847 3047 1241 
Q 3047 1584 2836 1778 
Q 2625 1972 2144 2069 
L 1759 2144 
Q 1053 2284 737 2584 
Q 422 2884 422 3419 
Q 422 4038 858 4394 
Q 1294 4750 2059 4750 
Q 2388 4750 2728 4690 
Q 3069 4631 3425 4513 
z
" transform="scale(0.015625)"/>
      <path id="DejaVuSans-43" d="M 4122 4306 
L 4122 3641 
Q 3803 3938 3442 4084 
Q 3081 4231 2675 4231 
Q 1875 4231 1450 3742 
Q 1025 3253 1025 2328 
Q 1025 1406 1450 917 
Q 1875 428 2675 428 
Q 3081 428 3442 575 
Q 3803 722 4122 1019 
L 4122 359 
Q 3791 134 3420 21 
Q 3050 -91 2638 -91 
Q 1578 -91 968 557 
Q 359 1206 359 2328 
Q 359 3453 968 4101 
Q 1578 4750 2638 4750 
Q 3056 4750 3426 4639 
Q 3797 4528 4122 4306 
z
" transform="scale(0.015625)"/>
     </defs>
     <use xlink:href="#DejaVuSans-53"/>
     <use xlink:href="#DejaVuSans-43" x="63.476562"/>
    </g>
   </g>
  </g>
 </g>
 <defs>
  <clipPath id="p73e2cd4ed1">
   <rect x="68.544165" y="41.472" width="335.23167" height="266.112"/>
  </clipPath>
 </defs>
</svg>
