<?xml version="1.0" encoding="utf-8" standalone="no"?>
<!DOCTYPE svg PUBLIC "-//W3C//DTD SVG 1.1//EN"
  "http://www.w3.org/Graphics/SVG/1.1/DTD/svg11.dtd">
<svg xmlns:xlink="http://www.w3.org/1999/xlink" width="460.8pt" height="345.6pt" viewBox="0 0 460.8 345.6" xmlns="http://www.w3.org/2000/svg" version="1.1">
 <metadata>
  <rdf:RDF xmlns:dc="http://purl.org/dc/elements/1.1/" xmlns:cc="http://creativecommons.org/ns#" xmlns:rdf="http://www.w3.org/1999/02/22-rdf-syntax-ns#">
   <cc:Work>
    <dc:type rdf:resource="http://purl.org/dc/dcmitype/StillImage"/>
    <dc:date>2023-06-19T14:47:40.078452</dc:date>
    <dc:format>image/svg+xml</dc:format>
    <dc:creator>
     <cc:Agent>
      <dc:title>Matplotlib v3.7.1, https://matplotlib.org/</dc:title>
     </cc:Agent>
    </dc:creator>
   </cc:Work>
  </rdf:RDF>
 </metadata>
 <defs>
  <style type="text/css">*{stroke-linejoin: round; stroke-linecap: butt}</style>
 </defs>
 <g id="figure_1">
  <g id="patch_1">
   <path d="M 0 345.6 
L 460.8 345.6 
L 460.8 0 
L 0 0 
z
" style="fill: #ffffff"/>
  </g>
  <g id="axes_1">
   <g id="PatchCollection_1">
    <path d="M 73.832727 127.879386 
L 74.151711 127.871065 
L 74.623372 127.814663 
L 74.599729 127.693894 
L 74.605267 120.354638 
L 74.587631 120.298236 
L 74.580868 115.073874 
L 74.571401 107.760279 
L 74.575362 107.20101 
L 74.581795 105.48588 
L 74.569185 104.341193 
L 74.55189 100.226379 
L 74.511506 98.557429 
L 74.53238 98.010344 
L 74.537875 97.809875 
L 74.513508 95.684833 
L 74.51649 94.997247 
L 74.504136 94.5679 
L 74.476021 83.151749 
L 74.424177 76.115604 
L 74.41587 75.902297 
L 74.414976 75.307904 
L 74.354783 71.543687 
L 90.413217 71.547729 
L 90.741232 71.547788 
L 90.741232 71.548383 
L 94.30663 71.545292 
L 95.089308 71.554326 
L 100.365626 71.544817 
L 100.470335 71.543509 
L 101.081764 71.551057 
L 101.367819 71.546421 
L 102.895646 71.574177 
L 103.164533 71.553078 
L 106.787142 71.553078 
L 106.787866 71.553256 
L 109.586475 71.54975 
L 109.917132 71.548918 
L 112.020817 71.543747 
L 112.886096 71.546837 
L 114.720723 71.54654 
L 115.546938 71.544936 
L 116.854654 71.542202 
L 117.779955 71.543866 
L 119.074555 71.552158 
L 119.08831 71.552246 
L 119.320179 71.549571 
L 121.357802 71.556656 
L 122.277428 71.559853 
L 123.991201 71.558011 
L 131.462324 71.557833 
L 132.774129 71.545827 
L 132.842416 71.54761 
L 133.089066 71.543866 
L 133.730783 71.535367 
L 134.116947 71.538101 
L 137.694273 71.554445 
L 138.019391 71.56122 
L 141.211065 71.551236 
L 141.571498 71.552662 
L 141.911313 71.557298 
L 142.472219 71.557179 
L 143.367744 71.559675 
L 143.369405 71.562706 
L 143.590283 71.557951 
L 144.008907 71.557417 
L 144.186546 71.56229 
L 144.510344 71.569957 
L 144.604745 71.567104 
L 144.757762 71.56336 
L 144.760786 71.565024 
L 146.397156 71.567996 
L 146.435453 71.563063 
L 147.506998 71.573642 
L 152.208394 71.579288 
L 153.949601 71.584578 
L 153.962168 71.584578 
L 154.697391 71.583448 
L 154.760182 71.583448 
L 154.827148 71.582141 
L 155.297318 71.582379 
L 155.727018 71.586717 
L 156.146196 71.582795 
L 156.180318 71.573226 
L 157.759605 71.586004 
L 157.863249 71.583389 
L 158.893813 71.584578 
L 161.460473 71.590935 
L 161.461448 71.590937 
L 161.471289 71.587014 
L 161.544645 71.588441 
L 161.548255 71.588507 
L 161.822223 71.593552 
L 161.936645 71.593493 
L 162.60767 71.594444 
L 163.302466 71.592779 
L 166.310025 71.588322 
L 167.766754 71.594384 
L 168.603874 71.593968 
L 170.239051 71.59795 
L 170.432964 71.595276 
L 171.450109 71.602408 
L 171.487767 71.599733 
L 171.531048 71.597059 
L 171.772416 71.593136 
L 172.988288 71.600387 
L 173.273235 71.610431 
L 173.894973 71.600862 
L 175.043708 71.595157 
L 175.096744 71.601992 
L 176.074102 71.598545 
L 177.310932 71.604131 
L 180.141278 71.60746 
L 180.349163 71.615602 
L 186.201722 71.635631 
L 188.166448 71.605795 
L 188.297612 71.609777 
L 188.527947 71.616077 
L 189.866078 71.611679 
L 190.743583 71.611798 
L 191.853254 71.615186 
L 192.522022 71.609124 
L 194.54626 71.620059 
L 195.407577 71.627786 
L 196.4591 71.627726 
L 196.604364 71.622556 
L 196.80113 71.623982 
L 197.134811 71.626597 
L 197.86603 71.630936 
L 198.01534 71.630995 
L 199.538055 71.622496 
L 199.772011 71.630995 
L 204.911243 71.617504 
L 205.087094 71.629628 
L 205.604847 71.632124 
L 206.687808 71.630579 
L 206.832944 71.635988 
L 208.767212 71.629807 
L 213.897243 71.635453 
L 214.222745 71.635393 
L 214.224363 71.633254 
L 214.721285 71.642406 
L 215.979756 71.620119 
L 218.96363 71.640564 
L 219.949337 71.642822 
L 224.879449 71.64211 
L 224.886094 71.642109 
L 225.415991 71.643438 
L 226.971547 71.647339 
L 228.344994 71.64306 
L 228.607364 71.647161 
L 228.789519 71.649301 
L 229.20597 71.654055 
L 234.158574 71.664991 
L 234.53264 71.673252 
L 234.584228 71.683891 
L 234.947174 71.685615 
L 234.983469 71.684248 
L 239.411078 71.709863 
L 240.209476 71.711527 
L 240.65055 71.710339 
L 241.987787 71.7186 
L 242.067363 71.717174 
L 243.102869 71.722523 
L 243.747951 71.730308 
L 246.454461 71.743384 
L 248.146125 71.750991 
L 251.787648 71.759906 
L 251.797442 71.760031 
L 253.560293 71.782432 
L 257.321137 71.803709 
L 257.359562 71.802461 
L 257.366761 71.803709 
L 257.428743 71.803828 
L 258.698077 71.805373 
L 259.767236 71.802877 
L 260.6634 71.796161 
L 263.252505 71.794021 
L 264.205879 71.793664 
L 268.280084 71.836516 
L 268.403026 71.837764 
L 272.194116 71.837467 
L 272.862713 71.83509 
L 273.164274 71.835327 
L 274.592461 71.841508 
L 274.600384 71.841508 
L 275.746265 71.843648 
L 276.62394 71.849472 
L 277.190683 71.847689 
L 277.518783 71.848105 
L 278.307766 71.855713 
L 279.819022 71.855059 
L 279.844454 71.855178 
L 280.186442 71.852385 
L 280.232151 71.85286 
L 284.92656 71.849888 
L 285.331425 71.848343 
L 289.042413 71.862589 
L 289.047199 71.862607 
L 293.314166 71.887807 
L 293.35881 71.887807 
L 301.029019 71.937354 
L 305.246168 71.964595 
L 310.288804 72.022116 
L 314.228717 72.067058 
L 323.979204 72.086018 
L 324.021505 72.086136 
L 328.883032 72.086315 
L 331.537528 72.091307 
L 331.541802 72.091345 
L 332.445278 72.099331 
L 332.790981 72.100751 
L 333.645516 72.104264 
L 341.0639 72.137011 
L 341.384886 72.133089 
L 344.807704 72.135526 
L 351.371971 72.141112 
L 352.37574 72.138378 
L 352.379617 72.138378 
L 353.532015 72.149849 
L 353.954814 72.148244 
L 360.901411 72.153237 
L 361.187465 72.15187 
L 364.759892 72.148066 
L 364.760707 72.148064 
L 364.761273 72.148063 
L 368.309955 72.139924 
L 369.457326 72.127621 
L 370.089288 72.097548 
L 373.651534 72.133743 
L 374.470933 72.142598 
L 374.543735 72.114843 
L 378.998591 72.123483 
L 382.786588 72.13083 
L 383.36807 72.105512 
L 387.210194 72.108483 
L 388.090595 72.113892 
L 388.974575 72.123163 
L 389.861877 72.137546 
L 390.746709 72.132257 
L 391.22182 72.138557 
L 391.63546 72.144025 
L 392.510238 72.141053 
L 393.073615 72.141885 
L 393.037576 72.676132 
L 393.046139 72.984116 
L 393.059557 73.074098 
L 392.950503 73.230349 
L 392.930567 73.304581 
L 392.951696 73.530785 
L 392.993997 73.589802 
L 393.041751 73.67705 
L 392.920428 73.916092 
L 392.875826 74.06414 
L 392.886987 74.314058 
L 392.877275 74.759452 
L 392.856358 74.945538 
L 392.746367 75.028685 
L 392.691115 75.634847 
L 392.724343 75.909905 
L 392.605235 76.208855 
L 392.615885 76.316192 
L 392.67693 76.518741 
L 392.611625 77.618497 
L 392.525276 77.805891 
L 392.483103 77.925649 
L 392.485233 78.212237 
L 392.389128 78.645388 
L 392.246633 78.989864 
L 392.075895 79.202576 
L 391.815059 79.355439 
L 391.666472 79.478585 
L 391.446702 79.802973 
L 391.201415 80.235232 
L 390.993061 80.51029 
L 390.750969 80.711115 
L 390.446298 80.897677 
L 390.342739 80.997822 
L 390.272535 81.118353 
L 390.226272 81.299863 
L 389.964968 81.742939 
L 389.876361 81.952799 
L 389.835508 82.236356 
L 389.739404 82.564963 
L 389.301269 83.341282 
L 388.859556 83.824298 
L 388.430581 84.201462 
L 387.810376 84.582133 
L 386.790845 85.079591 
L 385.345491 86.029635 
L 385.121248 86.195692 
L 384.830549 86.660758 
L 384.673272 86.86515 
L 382.999543 88.004073 
L 381.891788 88.847492 
L 381.837772 88.912691 
L 381.614935 88.992985 
L 381.482451 89.115894 
L 381.270434 89.374667 
L 381.122827 89.714091 
L 380.807165 90.912923 
L 380.774321 91.184652 
L 380.592635 91.529307 
L 380.546031 91.712302 
L 380.720902 91.929532 
L 380.899904 92.129406 
L 381.117587 92.400958 
L 381.133647 92.423067 
L 381.495997 92.891046 
L 382.921543 94.716543 
L 383.044442 94.78721 
L 383.2686 94.995286 
L 383.651015 95.555387 
L 383.814043 95.872048 
L 384.485239 96.73728 
L 384.684987 97.124726 
L 385.01411 97.881433 
L 385.328408 98.680872 
L 385.405258 98.934831 
L 385.41365 99.160084 
L 385.455269 99.274552 
L 385.628351 99.585033 
L 385.696893 99.984663 
L 385.871465 100.462389 
L 385.928676 100.564436 
L 386.233091 100.893578 
L 386.80665 101.758454 
L 387.180672 102.393381 
L 387.583875 102.922873 
L 387.958239 103.266517 
L 388.098774 103.329339 
L 388.312069 103.346158 
L 388.531286 103.326605 
L 388.873912 103.417776 
L 389.486066 103.351507 
L 389.795508 103.404938 
L 390.196794 103.404284 
L 390.770948 103.472395 
L 391.475798 103.764272 
L 392.175109 104.208597 
L 392.425806 104.411265 
L 392.745941 104.555331 
L 393.138792 104.780049 
L 393.827582 105.079594 
L 394.093871 105.12191 
L 394.467808 105.231446 
L 394.85789 105.400831 
L 395.439585 105.865185 
L 395.700549 106.005388 
L 396.251827 106.504748 
L 396.529107 107.14651 
L 396.666831 107.540494 
L 397.047508 108.315419 
L 397.096105 108.414344 
L 397.116978 108.674484 
L 397.148033 108.790082 
L 397.206948 108.876676 
L 397.408614 109.071499 
L 397.584507 109.444385 
L 397.62029 109.679622 
L 397.741571 109.804789 
L 397.78532 110.008705 
L 397.797078 110.830966 
L 397.790347 111.735603 
L 397.790407 111.743567 
L 397.817355 115.305947 
L 397.824299 115.551823 
L 397.823873 115.655237 
L 397.817823 117.11409 
L 397.815736 120.352736 
L 397.812967 120.435587 
L 397.829666 122.072324 
L 397.821444 122.149706 
L 397.821828 124.659818 
L 397.823234 124.744035 
L 397.82055 125.209874 
L 397.826853 129.064335 
L 397.826854 129.065439 
L 397.815992 129.941547 
L 397.828771 133.034404 
L 397.837036 133.273504 
L 397.83039 134.259624 
L 397.849537 139.282374 
L 397.84956 139.288405 
L 397.838058 139.750619 
L 397.835545 140.071084 
L 397.838314 140.179728 
L 397.846961 141.028437 
L 397.857185 141.884457 
L 397.848964 141.960413 
L 397.86349 144.464641 
L 397.850242 145.370406 
L 397.840975 149.636859 
L 397.840955 149.646106 
L 397.842701 149.674991 
L 397.835545 154.824897 
L 397.831191 154.849814 
L 397.830092 154.8561 
L 397.82072 155.84638 
L 397.830348 156.437267 
L 397.831881 157.036356 
L 397.825577 159.045562 
L 397.821487 159.174533 
L 397.838612 159.79686 
L 397.834011 160.917359 
L 397.827664 163.999517 
L 397.825065 164.356771 
L 397.8217 165.75524 
L 397.818761 166.069761 
L 397.817781 166.635865 
L 397.824299 166.820881 
L 397.820209 166.914608 
L 397.81761 167.660378 
L 397.814927 167.785367 
L 397.820209 168.535952 
L 397.815054 168.61268 
L 397.820592 169.410039 
L 397.816545 169.507866 
L 397.809474 170.180772 
L 397.80449 170.35818 
L 397.815225 170.995901 
L 397.815054 171.174499 
L 397.812924 171.98832 
L 397.802104 172.029092 
L 397.797802 175.457985 
L 397.797789 175.464821 
L 397.780208 184.880857 
L 397.774841 184.99497 
L 397.770921 185.649748 
L 397.772285 185.748942 
L 397.785916 186.631945 
L 397.783233 186.751465 
L 397.775522 187.47376 
L 397.774202 187.58383 
L 397.776971 188.332335 
L 397.771603 188.464099 
L 397.775735 189.110734 
L 397.781145 189.148772 
L 397.775863 190.083422 
L 397.773179 190.183983 
L 397.780379 194.372376 
L 397.775224 194.376358 
L 397.773903 194.468717 
L 397.776928 196.098679 
L 397.776945 196.104509 
L 397.776945 196.104791 
L 397.784425 198.742338 
L 397.776204 199.555862 
L 397.771986 205.606066 
L 397.770794 206.475518 
L 397.771688 210.342495 
L 397.773009 210.485135 
L 397.771859 211.635825 
L 397.773179 211.703758 
L 397.777098 216.853664 
L 391.900386 216.846295 
L 391.571731 216.849682 
L 391.571693 216.850632 
L 391.560911 217.113923 
L 391.594394 217.169612 
L 391.750904 217.274215 
L 391.880662 217.211632 
L 391.932804 217.215733 
L 392.110784 217.40586 
L 392.162968 217.477894 
L 392.335581 217.983256 
L 392.10695 218.169461 
L 392.159219 218.592033 
L 392.181968 218.683025 
L 392.040282 218.964264 
L 391.524403 219.427726 
L 391.404231 219.794609 
L 391.414966 219.869376 
L 391.770841 220.790356 
L 391.828307 220.848779 
L 391.968259 220.906528 
L 392.042199 220.937038 
L 392.294728 220.905717 
L 392.583339 220.932818 
L 392.794504 221.120331 
L 392.819893 221.184162 
L 392.770478 221.408345 
L 392.651583 221.6774 
L 392.867988 221.796921 
L 393.113829 222.060508 
L 393.332875 222.416514 
L 393.527895 222.575499 
L 394.204884 223.113609 
L 394.458649 223.081099 
L 394.502739 223.033552 
L 394.502739 222.96562 
L 394.544146 222.954803 
L 394.701721 223.03908 
L 394.761744 223.131499 
L 394.867049 223.67365 
L 394.878764 224.249738 
L 394.877657 224.329379 
L 394.840169 224.487472 
L 394.658525 224.703394 
L 394.621123 224.715578 
L 394.62632 225.063382 
L 394.651369 225.682916 
L 394.699293 225.890814 
L 394.743341 225.90175 
L 394.751307 225.957439 
L 394.42687 226.46405 
L 394.298731 226.595814 
L 394.375921 227.064506 
L 394.558417 227.779252 
L 394.696993 228.022572 
L 394.678249 228.169254 
L 394.491323 228.761508 
L 394.037852 229.027651 
L 393.52453 229.187884 
L 393.432558 229.072405 
L 393.079963 229.072345 
L 393.047289 229.072345 
L 392.84196 229.028899 
L 392.773929 228.9596 
L 392.733928 228.871282 
L 392.652563 228.812859 
L 392.363313 228.870271 
L 392.333238 228.934816 
L 392.360629 229.00994 
L 392.400289 229.054158 
L 392.416648 229.132195 
L 392.428192 229.292784 
L 392.480802 230.023518 
L 392.339543 230.261251 
L 392.255537 230.273495 
L 392.252853 230.158075 
L 392.227549 230.137689 
L 392.108952 230.289839 
L 392.155684 230.613216 
L 392.254344 230.683823 
L 392.5142 230.647093 
L 392.864708 230.982654 
L 393.052614 231.126662 
L 393.225823 231.183718 
L 393.359116 231.194594 
L 393.444528 231.140926 
L 393.518992 231.191919 
L 393.545659 231.273462 
L 393.569557 231.668813 
L 393.529812 231.8968 
L 393.264716 232.023155 
L 393.006266 232.077478 
L 392.753183 232.391286 
L 392.867732 232.831509 
L 393.211296 233.267454 
L 393.272853 233.272981 
L 393.344334 233.23423 
L 393.387104 233.153579 
L 393.445721 233.115542 
L 393.733395 233.107399 
L 393.873206 233.165882 
L 394.078279 233.179552 
L 394.263459 233.064132 
L 394.641571 233.27625 
L 394.845238 233.461147 
L 394.893078 233.622806 
L 394.964985 233.655494 
L 395.2553 233.604025 
L 395.75367 233.472618 
L 395.937061 233.301152 
L 396.413748 233.269593 
L 396.778697 233.398504 
L 396.826664 233.45556 
L 396.854737 233.675642 
L 396.972055 234.140234 
L 397.037318 234.277465 
L 397.030715 234.403821 
L 396.903087 234.780213 
L 396.900659 235.312855 
L 396.961959 235.560098 
L 397.115019 235.626604 
L 397.185563 235.627971 
L 397.270762 235.718964 
L 397.281412 235.774653 
L 397.179344 236.842553 
L 397.175425 237.107507 
L 397.211506 237.661842 
L 397.272764 237.826235 
L 397.490916 238.06391 
L 397.538797 238.073419 
L 397.679801 238.025813 
L 397.900594 238.139925 
L 398.195808 238.639879 
L 398.226479 238.936095 
L 398.271933 239.182982 
L 398.307844 239.275579 
L 398.358367 239.344878 
L 398.487273 239.411503 
L 398.370295 239.823139 
L 397.995463 240.385617 
L 397.836013 240.622043 
L 397.467997 240.950948 
L 397.368357 241.160213 
L 397.377687 241.26749 
L 397.688619 241.355749 
L 397.723168 241.433191 
L 397.741826 241.589441 
L 397.737555 241.638046 
L 397.694072 242.1329 
L 397.566615 242.578592 
L 397.453769 242.787857 
L 397.358176 242.850381 
L 397.140365 242.917006 
L 397.065987 242.903455 
L 396.929158 242.816563 
L 396.769836 242.885922 
L 396.351638 243.295121 
L 396.290593 243.38338 
L 396.261455 243.534222 
L 396.196448 243.574993 
L 395.711539 243.703191 
L 395.562825 243.697604 
L 395.406187 243.622778 
L 395.349104 243.626819 
L 395.000854 244.093312 
L 395.048224 244.20154 
L 395.114978 244.252594 
L 395.195022 244.227275 
L 395.291637 244.220559 
L 395.396432 244.376869 
L 395.396389 244.413539 
L 395.325845 244.697512 
L 395.23579 244.812813 
L 395.22859 244.903449 
L 395.28316 245.060234 
L 395.317623 245.125492 
L 395.649302 245.416478 
L 395.820637 245.451663 
L 396.023878 245.728742 
L 396.140856 246.016637 
L 396.097277 246.291101 
L 396.027073 246.485448 
L 395.926624 246.664462 
L 395.87887 246.703925 
L 395.669792 246.767935 
L 395.473452 246.800445 
L 395.360606 246.883236 
L 395.237068 247.103259 
L 395.266163 247.258142 
L 395.264715 247.42937 
L 395.073571 247.695572 
L 394.901086 247.759344 
L 394.923536 247.922311 
L 395.107736 248.205035 
L 395.330488 248.301674 
L 395.524102 248.296444 
L 395.571814 248.326398 
L 395.652582 248.484016 
L 395.772883 249.00709 
L 395.579098 249.288328 
L 395.442269 249.652358 
L 395.382502 249.853422 
L 395.328102 249.898234 
L 395.151784 249.941561 
L 394.934271 250.173827 
L 394.698185 250.42636 
L 394.035254 251.081019 
L 394.010078 251.195131 
L 394.012676 251.307936 
L 394.072273 251.427516 
L 394.17417 251.900428 
L 394.194751 252.014403 
L 394.228399 252.200745 
L 394.252127 252.483351 
L 394.555477 252.658739 
L 394.654436 252.908062 
L 394.663211 253.021164 
L 394.604296 253.096288 
L 394.320797 253.092068 
L 394.077086 253.150372 
L 394.065159 253.197978 
L 394.148568 253.362371 
L 394.173574 253.816205 
L 393.915549 254.045677 
L 393.809647 254.054592 
L 393.769902 254.099405 
L 393.67056 254.303202 
L 393.636055 254.691837 
L 393.637333 254.725774 
L 393.802746 255.076312 
L 393.897956 255.432378 
L 393.847646 255.511187 
L 393.619952 255.648359 
L 393.495349 255.657096 
L 393.455434 255.737866 
L 393.476989 255.886093 
L 393.562997 255.992122 
L 393.290361 256.133395 
L 393.205673 256.140171 
L 393.109058 256.322275 
L 392.746409 256.271994 
L 392.387765 256.216245 
L 392.309723 256.250241 
L 392.276666 256.479892 
L 392.471217 256.773374 
L 392.465935 256.837206 
L 392.186866 257.352256 
L 392.135279 257.408005 
L 391.907798 257.567048 
L 391.739786 257.53858 
L 391.696122 257.586127 
L 391.710776 257.86059 
L 391.860257 257.890426 
L 391.913165 257.946115 
L 391.919811 257.98962 
L 391.845858 258.413559 
L 391.727006 258.897347 
L 391.416371 259.207292 
L 391.364869 259.447819 
L 391.331854 259.488591 
L 390.862409 259.371982 
L 390.695803 259.429157 
L 390.594203 259.713189 
L 390.401186 260.054159 
L 390.234835 260.210647 
L 390.156835 260.211955 
L 390.113129 260.362797 
L 390.153854 260.767717 
L 390.301716 261.004262 
L 390.227423 261.429449 
L 390.149508 261.710985 
L 389.997343 261.986696 
L 389.834699 262.220329 
L 389.880834 262.348111 
L 390.165824 262.932639 
L 390.404977 262.881229 
L 390.47369 262.908212 
L 390.48468 263.574044 
L 390.365956 263.832402 
L 390.257583 263.897481 
L 390.2218 264.074117 
L 390.264058 264.120356 
L 390.693843 264.412353 
L 391.092829 264.746428 
L 391.67921 265.106238 
L 391.883814 265.131973 
L 392.138644 265.191703 
L 392.578312 265.453864 
L 392.885922 265.835665 
L 392.945306 265.853435 
L 393.206611 266.254254 
L 393.791202 266.712308 
L 393.924495 266.719083 
L 393.981238 266.75718 
L 394.172466 267.072474 
L 394.184266 267.266822 
L 394.14729 267.508656 
L 394.172296 267.606484 
L 394.350361 267.779138 
L 394.645788 267.919222 
L 395.090014 268.558072 
L 395.132103 268.723892 
L 395.107906 268.88145 
L 395.382672 269.610341 
L 395.587746 270.069702 
L 395.778208 270.717229 
L 395.775652 270.79895 
L 395.724916 270.925009 
L 395.741828 271.006016 
L 395.790902 271.048095 
L 395.922662 271.100634 
L 396.0085 271.21439 
L 396.012802 271.316199 
L 395.974718 271.393819 
L 395.953589 271.503771 
L 395.97983 271.586859 
L 396.152273 271.732531 
L 396.356579 271.789646 
L 396.391085 271.852705 
L 396.385078 271.940488 
L 396.345972 272.019297 
L 396.240624 272.102385 
L 395.82873 272.694817 
L 396.011823 272.937722 
L 396.767834 272.977304 
L 396.767408 273.55054 
L 396.735586 274.194739 
L 396.646127 274.551339 
L 396.680207 274.741526 
L 396.641867 274.87228 
L 396.177832 275.10193 
L 396.085477 275.283143 
L 396.208206 275.57086 
L 396.484974 275.695433 
L 396.664232 275.648302 
L 396.746449 275.740364 
L 396.921745 276.100055 
L 397.645552 276.75733 
L 398.107329 276.867163 
L 397.502375 277.14014 
L 397.248397 277.312795 
L 396.826919 277.4968 
L 396.689451 277.520633 
L 396.233425 277.492283 
L 395.729729 277.335558 
L 395.543016 277.218236 
L 395.420202 277.101271 
L 395.109056 276.650825 
L 395.038086 276.494396 
L 394.98718 276.260407 
L 394.90492 276.027309 
L 394.71497 275.70203 
L 394.561143 275.521412 
L 394.439181 275.408666 
L 394.165693 275.232684 
L 393.707537 275.089093 
L 393.324824 275.099018 
L 392.893675 275.24778 
L 392.697122 275.374968 
L 392.19283 275.84467 
L 391.904305 275.988737 
L 391.696803 276.03563 
L 391.37833 276.045198 
L 391.147655 276.000148 
L 391.036641 275.948441 
L 390.42027 275.503403 
L 390.325657 275.302102 
L 390.18444 274.86491 
L 390.125312 274.587475 
L 390.105674 274.409353 
L 390.106611 273.920394 
L 390.021029 273.478863 
L 389.905883 273.222111 
L 389.6692 272.886668 
L 389.475544 272.692143 
L 389.023181 272.362347 
L 388.290556 272.054838 
L 388.059796 271.883313 
L 387.873338 271.677792 
L 387.380591 270.936776 
L 386.992809 270.401816 
L 386.869952 270.143875 
L 386.797746 269.883854 
L 386.774274 269.48981 
L 386.784242 269.334273 
L 386.862071 269.063435 
L 386.955577 268.862253 
L 387.400229 268.132469 
L 387.581405 267.868347 
L 387.731184 267.747044 
L 387.78635 267.633466 
L 387.820685 267.408154 
L 387.816425 267.270863 
L 387.79142 267.209468 
L 387.638062 267.02677 
L 387.366704 266.851857 
L 386.072321 266.391902 
L 385.755552 266.375142 
L 385.266128 266.431069 
L 385.16291 266.460191 
L 385.083377 266.541793 
L 384.53721 266.682948 
L 383.935621 266.623039 
L 383.294245 266.442896 
L 383.05965 266.311013 
L 382.964185 266.220972 
L 382.913407 266.073636 
L 382.997966 265.353957 
L 382.985527 264.871357 
L 382.935814 264.496451 
L 382.741092 264.176699 
L 382.446091 264.04339 
L 382.177545 263.96155 
L 381.747206 263.921908 
L 381.156566 263.708958 
L 380.878093 263.530064 
L 380.431652 263.187549 
L 379.905422 262.991478 
L 379.306645 262.924556 
L 378.456702 262.414736 
L 377.873218 262.555474 
L 377.717219 262.621148 
L 377.457746 262.852107 
L 377.179743 263.031179 
L 376.994947 263.141666 
L 376.663055 263.266714 
L 376.366563 263.283772 
L 376.12315 263.244367 
L 376.039868 263.196702 
L 375.986832 263.089008 
L 375.948365 262.965565 
L 375.941805 262.813178 
L 376.135291 262.250165 
L 376.153396 262.100393 
L 376.13789 262.009222 
L 375.812004 261.197658 
L 375.536855 260.957369 
L 375.375787 260.852231 
L 375.244708 260.824654 
L 374.792175 260.888426 
L 373.812178 260.762542 
L 373.427717 260.713157 
L 373.200279 260.636963 
L 373.070777 260.506685 
L 372.263476 260.252132 
L 371.692133 260.133146 
L 371.425588 260.126252 
L 371.105795 260.179682 
L 370.84564 260.25962 
L 370.391318 260.302472 
L 370.172485 260.281254 
L 369.731283 260.2995 
L 368.891692 260.148599 
L 368.758356 259.996152 
L 368.645893 259.732386 
L 368.649003 259.611677 
L 368.598395 259.465174 
L 368.326654 259.067861 
L 368.063901 258.743771 
L 367.655436 258.496087 
L 367.506104 258.405535 
L 367.373152 258.356205 
L 367.155682 258.3064 
L 366.882833 258.288273 
L 366.494667 258.192882 
L 365.948074 258.154251 
L 365.76511 258.093629 
L 365.535073 257.92775 
L 365.469982 257.845256 
L 365.409064 257.707192 
L 365.371875 257.283075 
L 365.324931 257.114641 
L 365.206888 256.830014 
L 365.188187 256.723331 
L 365.224737 255.89376 
L 365.164501 255.755339 
L 364.606279 255.429228 
L 364.353281 255.32201 
L 363.897979 255.188463 
L 363.76132 255.185729 
L 363.548835 255.276009 
L 363.071977 255.355055 
L 362.138497 255.181747 
L 361.618103 254.577844 
L 361.42206 254.462306 
L 361.329364 254.479957 
L 361.234027 254.568275 
L 360.936896 254.721257 
L 360.664643 254.795489 
L 360.584088 254.837628 
L 360.491945 254.943895 
L 360.396608 255.008974 
L 360.166273 255.104305 
L 359.952211 255.158984 
L 359.168894 255.22234 
L 359.074536 255.204094 
L 358.782347 255.008202 
L 358.497187 254.736472 
L 358.439337 254.605481 
L 357.703603 254.661645 
L 357.47625 254.626877 
L 357.257332 254.453628 
L 357.092344 254.418919 
L 356.874789 254.477342 
L 356.719557 254.56251 
L 356.458678 254.844819 
L 356.377867 255.019969 
L 356.358442 255.112864 
L 356.085465 255.416925 
L 355.780326 255.680334 
L 355.645499 255.732992 
L 355.22385 255.743453 
L 355.044677 255.690616 
L 354.942907 255.608301 
L 354.819624 255.557545 
L 354.442066 255.481529 
L 353.828976 255.4867 
L 353.54914 255.411992 
L 353.347219 255.316542 
L 353.22547 255.199696 
L 353.172093 255.079462 
L 352.98014 255.004754 
L 352.507245 255.285577 
L 351.829105 255.502331 
L 351.164299 255.625774 
L 350.548525 255.654065 
L 350.010793 255.529195 
L 349.271055 255.280526 
L 348.958205 255.138361 
L 348.766422 255.013551 
L 348.42354 255.011292 
L 348.062936 255.11643 
L 347.418165 255.422465 
L 346.936481 255.651093 
L 346.462477 255.827967 
L 346.017399 255.922763 
L 345.241579 255.958186 
L 344.622866 255.877237 
L 343.795586 255.660781 
L 342.522162 255.538704 
L 342.374854 255.567292 
L 341.909285 255.562062 
L 341.494963 255.522004 
L 340.898316 255.307984 
L 340.349551 255.032926 
L 340.200696 254.983049 
L 339.67942 254.808386 
L 339.30757 254.466585 
L 339.192893 254.391401 
L 338.951098 254.39158 
L 338.47833 254.454579 
L 337.937872 254.611543 
L 337.608238 254.744258 
L 337.197154 254.990074 
L 337.126524 255.247421 
L 337.131466 255.3503 
L 337.184119 255.490326 
L 337.175684 255.643783 
L 337.042476 255.884607 
L 337.004051 256.376597 
L 336.79165 256.921245 
L 336.634118 257.454957 
L 336.562594 257.582026 
L 336.385849 257.785942 
L 335.933827 258.547284 
L 335.764196 258.782819 
L 335.467534 259.080461 
L 335.233791 259.172524 
L 334.742705 259.775713 
L 334.582787 259.921266 
L 334.010635 260.28589 
L 333.86814 260.320302 
L 333.50383 260.340034 
L 332.841665 260.267822 
L 332.206125 260.553816 
L 331.872103 260.664065 
L 331.779066 260.663589 
L 331.64245 260.609921 
L 331.331176 260.720943 
L 331.153026 260.714286 
L 330.394501 260.607663 
L 330.305894 260.517383 
L 330.097285 260.422765 
L 329.983247 260.380389 
L 329.687777 260.336408 
L 329.474738 260.216828 
L 329.337866 260.098496 
L 329.277545 259.790512 
L 329.206873 259.602406 
L 329.016241 259.386068 
L 328.360466 258.816517 
L 328.145893 258.730517 
L 327.858134 258.521312 
L 327.426772 257.976545 
L 327.299485 257.848287 
L 326.455975 257.284026 
L 326.389989 257.21859 
L 326.011962 256.535106 
L 325.627673 256.113426 
L 325.579663 256.102133 
L 325.365855 256.15845 
L 324.932067 256.272707 
L 324.750551 256.285664 
L 324.59762 256.274431 
L 323.803056 256.006148 
L 323.175098 255.696084 
L 322.522476 255.32094 
L 322.334825 255.18044 
L 322.237656 255.048438 
L 322.007194 254.846483 
L 321.372122 254.415175 
L 321.24475 254.210367 
L 321.159977 254.152063 
L 320.884529 254.05899 
L 320.45483 254.073135 
L 319.958802 254.022974 
L 319.215102 253.722062 
L 318.690956 253.573439 
L 318.275871 253.455741 
L 318.005322 253.339252 
L 317.843487 253.223891 
L 317.725913 253.101458 
L 317.680161 253.040182 
L 317.580095 252.795198 
L 317.488762 252.670031 
L 317.300558 252.48656 
L 317.137743 252.373637 
L 316.634346 252.090199 
L 315.896908 251.75642 
L 315.424609 251.442909 
L 314.877079 251.201728 
L 314.513877 251.006489 
L 313.963663 250.639547 
L 313.727364 250.629087 
L 313.529405 250.66451 
L 313.377368 250.799839 
L 313.258856 250.849407 
L 313.154147 250.861175 
L 312.966625 250.798948 
L 312.893524 250.717049 
L 312.843001 250.449777 
L 312.789241 250.371859 
L 312.622635 250.25531 
L 312.354472 249.959035 
L 312.219943 249.896451 
L 311.97785 249.710484 
L 311.485274 248.76056 
L 310.992654 247.904183 
L 310.768411 247.304857 
L 310.649005 246.679142 
L 307.815209 246.688651 
L 307.650605 246.680509 
L 303.613206 246.686036 
L 303.532224 246.680568 
L 300.261401 246.692039 
L 299.324896 246.693227 
L 297.751871 246.698101 
L 296.785504 246.694 
L 293.549868 246.705173 
L 293.413124 246.694238 
L 292.732301 246.698041 
L 292.728126 246.698101 
L 290.90287 246.695426 
L 289.271783 246.696199 
L 288.354234 246.690731 
L 288.337578 246.698339 
L 285.879125 246.691207 
L 285.799507 246.695307 
L 283.49569 246.694535 
L 283.364313 246.682232 
L 282.848946 246.691979 
L 282.412515 246.684788 
L 280.972187 246.706065 
L 279.299608 246.695723 
L 278.454649 246.704222 
L 278.44795 246.704116 
L 278.09626 246.698517 
L 277.017005 246.70339 
L 274.493503 246.699527 
L 273.584219 246.704104 
L 273.478018 246.706897 
L 273.343958 246.709631 
L 272.436591 246.702321 
L 269.208197 246.714386 
L 269.072816 246.70761 
L 268.379852 246.703925 
L 268.231223 246.705411 
L 266.537374 246.710012 
L 266.480899 246.710166 
L 265.036695 246.712721 
L 259.500607 246.719556 
L 259.406377 246.712781 
L 258.651047 246.718427 
L 258.326824 246.718843 
L 257.630324 246.717654 
L 256.548896 246.704995 
L 255.708708 246.711473 
L 255.195002 246.714088 
L 255.066267 246.708621 
L 254.808753 246.701845 
L 254.276474 246.712721 
L 253.076492 246.702261 
L 252.654417 246.714683 
L 252.23098 246.706838 
L 251.898193 246.706838 
L 250.164228 246.709037 
L 249.770439 246.705708 
L 248.800622 246.695426 
L 248.778896 246.695129 
L 248.340846 246.692514 
L 246.485515 246.689126 
L 245.503259 246.687225 
L 245.223211 246.687165 
L 241.606182 246.671475 
L 241.302448 246.670227 
L 241.282469 246.670167 
L 238.23593 246.680208 
L 238.235903 246.680208 
L 238.234995 246.680211 
L 234.85435 246.672366 
L 234.602162 246.666839 
L 231.797631 246.668444 
L 231.548084 246.667255 
L 226.549643 246.635874 
L 223.925819 246.65198 
L 223.513329 246.665175 
L 223.125121 246.669573 
L 220.04591 246.677715 
L 219.776937 246.706956 
L 209.734346 246.696615 
L 208.864253 246.719497 
L 208.062703 246.717773 
L 205.862403 246.724549 
L 205.614261 246.7192 
L 204.070502 246.740358 
L 202.250742 246.714802 
L 194.440272 246.718308 
L 194.424979 246.718605 
L 194.375762 246.719833 
L 194.324871 246.721102 
L 194.277074 246.718427 
L 182.771023 246.765023 
L 177.4461 246.817146 
L 173.691007 246.794442 
L 167.880068 246.633437 
L 157.975539 246.631833 
L 157.972985 246.631833 
L 142.722363 246.616796 
L 140.729479 246.619768 
L 127.745953 246.594746 
L 118.864039 246.565448 
L 113.277967 246.547021 
L 113.226209 246.546962 
L 104.370905 246.541315 
L 101.655194 246.549755 
L 97.373062 246.547796 
L 97.367992 246.547794 
L 97.328289 246.547734 
L 97.311037 246.547734 
L 94.33875 246.545595 
L 94.311614 246.54922 
L 92.549363 246.553202 
L 91.076063 246.509816 
L 88.427872 246.535134 
L 84.21671 246.511658 
L 84.147103 246.517542 
L 79.488946 246.538998 
L 77.727504 246.492045 
L 76.670741 246.493055 
L 74.027449 246.558789 
L 73.995542 229.369691 
L 73.995201 228.939036 
L 73.980973 228.503805 
L 73.973092 227.223371 
L 73.964104 223.358118 
L 73.957629 221.101728 
L 73.957067 218.195368 
L 73.956777 216.694264 
L 73.956728 216.679053 
L 73.946297 213.393866 
L 73.954476 212.159731 
L 73.952559 211.913439 
L 73.951835 211.893232 
L 73.941995 202.190546 
L 73.941782 201.993465 
L 73.94016 201.327095 
L 73.926872 195.868494 
L 73.94438 190.932072 
L 73.94979 190.839653 
L 73.966315 178.775204 
L 73.969514 176.439468 
L 73.931089 172.302783 
L 73.908171 156.389661 
L 73.909662 154.867511 
L 73.910315 153.222707 
L 73.913155 146.071245 
L 73.907702 145.920403 
L 73.914561 145.529034 
L 73.910599 144.16468 
L 73.907873 144.146969 
L 73.906637 141.517515 
L 73.906637 141.50123 
L 73.883932 135.629327 
L 73.908725 135.156712 
L 73.832727 127.879386 
" clip-path="url(#p19041bd463)" style="fill: #c733ff"/>
   </g>
   <g id="text_1">
    <!-- SD -->
    <g transform="translate(227.730937 55.236103) scale(0.12 -0.12)">
     <defs>
      <path id="DejaVuSans-53" d="M 3425 4513 
L 3425 3897 
Q 3066 4069 2747 4153 
Q 2428 4238 2131 4238 
Q 1616 4238 1336 4038 
Q 1056 3838 1056 3469 
Q 1056 3159 1242 3001 
Q 1428 2844 1947 2747 
L 2328 2669 
Q 3034 2534 3370 2195 
Q 3706 1856 3706 1288 
Q 3706 609 3251 259 
Q 2797 -91 1919 -91 
Q 1588 -91 1214 -16 
Q 841 59 441 206 
L 441 856 
Q 825 641 1194 531 
Q 1563 422 1919 422 
Q 2459 422 2753 634 
Q 3047 847 3047 1241 
Q 3047 1584 2836 1778 
Q 2625 1972 2144 2069 
L 1759 2144 
Q 1053 2284 737 2584 
Q 422 2884 422 3419 
Q 422 4038 858 4394 
Q 1294 4750 2059 4750 
Q 2388 4750 2728 4690 
Q 3069 4631 3425 4513 
z
" transform="scale(0.015625)"/>
      <path id="DejaVuSans-44" d="M 1259 4147 
L 1259 519 
L 2022 519 
Q 2988 519 3436 956 
Q 3884 1394 3884 2338 
Q 3884 3275 3436 3711 
Q 2988 4147 2022 4147 
L 1259 4147 
z
M 628 4666 
L 1925 4666 
Q 3281 4666 3915 4102 
Q 4550 3538 4550 2338 
Q 4550 1131 3912 565 
Q 3275 0 1925 0 
L 628 0 
L 628 4666 
z
" transform="scale(0.015625)"/>
     </defs>
     <use xlink:href="#DejaVuSans-53"/>
     <use xlink:href="#DejaVuSans-44" x="63.476562"/>
    </g>
   </g>
  </g>
 </g>
 <defs>
  <clipPath id="p19041bd463">
   <rect x="57.6" y="61.236103" width="357.12" height="226.583793"/>
  </clipPath>
 </defs>
</svg>
