<?xml version="1.0" encoding="utf-8" standalone="no"?>
<!DOCTYPE svg PUBLIC "-//W3C//DTD SVG 1.1//EN"
  "http://www.w3.org/Graphics/SVG/1.1/DTD/svg11.dtd">
<svg xmlns:xlink="http://www.w3.org/1999/xlink" width="360pt" height="360pt" viewBox="0 0 360 360" xmlns="http://www.w3.org/2000/svg" version="1.1">
 <metadata>
  <rdf:RDF xmlns:dc="http://purl.org/dc/elements/1.1/" xmlns:cc="http://creativecommons.org/ns#" xmlns:rdf="http://www.w3.org/1999/02/22-rdf-syntax-ns#">
   <cc:Work>
    <dc:type rdf:resource="http://purl.org/dc/dcmitype/StillImage"/>
    <dc:date>2023-06-19T15:20:28.603235</dc:date>
    <dc:format>image/svg+xml</dc:format>
    <dc:creator>
     <cc:Agent>
      <dc:title>Matplotlib v3.7.1, https://matplotlib.org/</dc:title>
     </cc:Agent>
    </dc:creator>
   </cc:Work>
  </rdf:RDF>
 </metadata>
 <defs>
  <style type="text/css">*{stroke-linejoin: round; stroke-linecap: butt}</style>
 </defs>
 <g id="figure_1">
  <g id="patch_1">
   <path d="M 0 360 
L 360 360 
L 360 0 
L 0 0 
z
" style="fill: #ffffff"/>
  </g>
  <g id="axes_1">
   <g id="PatchCollection_1">
    <path d="M 57.681818 123.629545 
L 57.914205 123.179107 
L 58.449872 122.910246 
L 59.430442 121.9973 
L 59.38058 121.693968 
L 59.436608 121.25365 
L 59.229942 120.411016 
L 59.761445 119.873452 
L 60.295846 119.742105 
L 60.425559 119.657509 
L 60.409747 119.411418 
L 60.331581 119.285131 
L 60.331581 119.224992 
L 60.361625 119.170861 
L 60.415755 119.122739 
L 60.518008 119.116731 
L 60.63233 119.116731 
L 60.788713 119.092643 
L 60.945097 118.876121 
L 60.955902 118.682421 
L 61.019467 118.57864 
L 61.28838 118.654222 
L 61.375927 118.744616 
L 61.77097 118.980007 
L 62.005097 118.896835 
L 62.166118 118.74119 
L 62.211763 118.142696 
L 62.070032 117.908253 
L 62.19263 117.481692 
L 62.357921 117.423028 
L 62.480571 117.423028 
L 62.603537 117.463771 
L 62.693878 117.497715 
L 62.821852 117.465721 
L 62.880515 117.423028 
L 62.924948 117.335798 
L 62.987143 117.049807 
L 63.12044 116.91651 
L 63.26976 116.788536 
L 63.280407 116.543235 
L 63.355041 116.415261 
L 63.605665 116.351274 
L 63.733639 116.191307 
L 63.726365 116.028072 
L 63.698746 115.88086 
L 63.78155 115.807281 
L 64.051992 115.754889 
L 64.217441 115.657064 
L 64.69924 115.751042 
L 65.056386 115.504792 
L 65.248241 115.637457 
L 65.462022 115.644678 
L 65.696254 115.406915 
L 65.517629 115.110119 
L 65.581985 114.929174 
L 65.883682 114.859126 
L 66.033424 114.711703 
L 66.264125 114.70659 
L 66.467997 114.622574 
L 66.766849 114.349866 
L 66.869049 114.163176 
L 67.12721 114.022921 
L 67.30009 113.847933 
L 67.417628 113.655603 
L 67.60221 113.604319 
L 67.81752 113.6351 
L 67.97132 113.537696 
L 68.084114 113.317221 
L 68.222524 113.209592 
L 68.396828 113.163421 
L 68.749177 113.293186 
L 68.888325 113.284806 
L 69.418931 112.967665 
L 69.454192 112.892873 
L 69.429367 112.744449 
L 69.474854 112.626648 
L 69.549857 112.589173 
L 69.702445 112.645359 
L 69.838957 112.591861 
L 69.916595 112.535622 
L 69.948747 112.423197 
L 69.911219 112.348247 
L 69.820246 112.251845 
L 69.618851 112.028945 
L 69.604409 111.76351 
L 69.744453 111.686451 
L 69.915119 111.490063 
L 69.880174 111.244763 
L 69.954808 110.992505 
L 70.395759 110.597726 
L 70.500963 110.347945 
L 70.660878 110.23805 
L 70.792699 109.889548 
L 70.786901 109.707654 
L 70.73783 109.519963 
L 70.575755 109.29253 
L 75.843327 107.873606 
L 76.307114 107.748675 
L 81.702673 106.374539 
L 86.326859 105.176656 
L 87.4811 104.845864 
L 87.722711 104.815504 
L 87.83619 104.869002 
L 87.839775 104.873904 
L 87.966852 104.922237 
L 88.087763 105.039564 
L 88.03242 105.27485 
L 87.942343 105.444094 
L 87.899545 105.521468 
L 87.899545 105.614813 
L 87.866972 105.688182 
L 87.791758 105.805509 
L 88.034054 105.946449 
L 88.4204 105.876189 
L 88.714613 105.733827 
L 89.070916 105.742154 
L 89.257606 105.657295 
L 89.410299 105.455215 
L 89.418891 105.334725 
L 89.503802 105.190412 
L 89.665087 105.156469 
L 89.911231 105.198898 
L 90.089488 105.139497 
L 90.219939 104.968303 
L 90.479945 104.774498 
L 90.547832 104.698125 
L 90.556582 104.552494 
L 90.585887 104.479336 
L 90.688719 104.365277 
L 90.875726 104.354788 
L 91.034902 104.411501 
L 91.306082 104.428473 
L 91.735385 104.238779 
L 91.905946 104.180326 
L 92.058745 104.188812 
L 92.186034 104.205784 
L 92.381262 104.137897 
L 92.658714 103.83952 
L 92.720804 103.721982 
L 92.703832 103.603127 
L 92.601948 103.450328 
L 92.568005 103.356983 
L 92.576491 103.280609 
L 92.610487 103.204184 
L 92.695346 103.102353 
L 92.76376 103.039947 
L 92.811355 103.013435 
L 92.82411 102.906334 
L 92.848145 102.762811 
L 92.975434 102.694924 
L 93.119747 102.677952 
L 93.331947 102.720382 
L 93.425345 102.830698 
L 93.51869 102.949554 
L 93.561119 103.034413 
L 93.713918 103.102353 
L 94.095151 103.101299 
L 94.333547 103.034413 
L 94.562719 102.898638 
L 94.673089 102.745839 
L 94.816559 102.645537 
L 94.995659 102.559097 
L 95.156891 102.516667 
L 95.369144 102.576069 
L 95.555834 102.669414 
L 95.666203 102.694924 
L 95.852946 102.677952 
L 95.989722 102.585819 
L 96.073474 102.452522 
L 96.266489 102.230993 
L 96.434731 102.197523 
L 96.624004 102.122099 
L 96.652255 102.078457 
L 96.727205 102.041298 
L 96.871518 101.998869 
L 97.258812 101.999027 
L 97.481133 102.067916 
L 97.782092 102.000819 
L 98.007259 101.79389 
L 98.119157 101.78261 
L 98.340475 101.824249 
L 98.401036 101.856401 
L 98.526006 101.83732 
L 98.741379 101.756235 
L 98.968959 101.670554 
L 99.096828 101.542686 
L 99.164979 101.41487 
L 99.292847 101.338128 
L 99.448861 101.334491 
L 99.565555 101.37223 
L 99.693371 101.329642 
L 99.761575 101.269977 
L 99.761733 101.176632 
L 99.795676 101.056881 
L 99.863827 100.997269 
L 99.991695 100.920527 
L 100.153613 100.877939 
L 100.307044 100.877939 
L 100.520088 100.877939 
L 100.744885 100.933124 
L 100.758115 100.964485 
L 100.826898 101.056881 
L 100.937689 101.125084 
L 101.074044 101.125084 
L 101.28714 101.065419 
L 101.525747 100.954628 
L 101.641334 100.839041 
L 101.742849 100.754762 
L 101.762561 100.734416 
L 101.808206 100.712648 
L 102.330379 100.688824 
L 102.66212 100.700367 
L 102.890712 100.666793 
L 103.140546 100.382014 
L 103.320226 100.23554 
L 103.500485 100.16681 
L 103.911656 100.077839 
L 104.113157 100.123537 
L 104.340959 100.122799 
L 104.757295 99.937796 
L 104.993583 99.97564 
L 105.131782 100.119794 
L 105.143536 100.228583 
L 105.134733 100.419753 
L 105.225917 100.616826 
L 105.34356 100.62858 
L 105.83764 100.585043 
L 106.043516 100.487429 
L 106.125898 100.32567 
L 106.448784 99.669989 
L 106.635315 99.149871 
L 106.883937 98.858873 
L 106.9971 98.778863 
L 107.328946 98.654895 
L 107.748129 98.550008 
L 108.151393 98.089291 
L 108.297235 97.973967 
L 108.428529 97.974336 
L 108.766384 98.230126 
L 108.779719 98.382767 
L 108.951124 98.665806 
L 109.044943 98.88839 
L 109.021383 99.002185 
L 108.946855 99.123834 
L 108.915441 99.249436 
L 108.931148 99.335771 
L 108.993923 99.477079 
L 109.146985 99.606582 
L 109.336205 99.723909 
L 109.437403 99.763545 
L 109.559052 99.747838 
L 109.806303 99.590875 
L 109.849523 99.512393 
L 109.84557 99.418205 
L 109.861277 99.33187 
L 109.955465 99.269043 
L 110.367358 99.195696 
L 110.555434 99.162205 
L 110.847012 99.148659 
L 111.024109 99.233255 
L 111.080032 99.355641 
L 111.112974 99.36924 
L 111.191772 99.365023 
L 111.406766 99.278003 
L 111.457312 99.278847 
L 111.573058 99.363864 
L 111.585181 99.483246 
L 111.776614 99.573429 
L 111.964622 99.587502 
L 112.253406 99.425742 
L 112.358821 99.277107 
L 112.41195 99.255444 
L 112.81764 99.154088 
L 113.44022 99.05115 
L 113.803955 98.859295 
L 114.116879 98.793253 
L 114.204236 98.790803 
L 114.517245 98.782026 
L 115.434619 98.857661 
L 116.836638 98.955275 
L 116.857615 98.95633 
L 117.611332 98.994279 
L 117.625932 98.995048 
L 118.704169 99.051888 
L 119.229663 99.083302 
L 119.685003 99.113082 
L 120.169806 99.117878 
L 121.68404 99.14829 
L 123.416127 99.233349 
L 124.285734 99.276053 
L 126.456268 99.330344 
L 126.917682 99.341885 
L 128.932636 99.392273 
L 130.623291 99.458909 
L 132.92839 99.549763 
L 135.612534 99.622768 
L 135.625907 99.623132 
L 139.439398 99.766391 
L 141.006392 99.812826 
L 141.229998 99.81945 
L 142.791014 99.865692 
L 143.96286 99.900426 
L 145.831762 99.980594 
L 147.628771 100.057652 
L 149.30645 100.129598 
L 151.056127 100.204654 
L 152.981584 100.275071 
L 155.663605 100.373212 
L 155.709144 100.369575 
L 157.395414 100.437779 
L 157.870309 100.456964 
L 158.227191 100.471143 
L 162.387709 100.63617 
L 162.392519 100.636355 
L 164.424939 100.714583 
L 166.394479 100.790392 
L 167.513243 100.833465 
L 167.735011 100.842003 
L 168.976408 100.889798 
L 169.099111 100.895438 
L 174.430525 101.135626 
L 175.872971 101.200561 
L 175.954404 101.204251 
L 177.643257 101.31325 
L 179.415704 101.427625 
L 179.455499 101.460778 
L 179.427195 101.506001 
L 179.375331 101.530879 
L 179.23302 101.676405 
L 179.19428 101.750933 
L 179.016234 102.304678 
L 179.025037 102.388114 
L 179.057557 102.420054 
L 179.661163 102.670362 
L 179.777594 102.867857 
L 179.975458 103.331947 
L 180.003604 103.527702 
L 179.985947 103.632274 
L 179.87252 103.840152 
L 179.745442 103.922587 
L 179.59705 103.953773 
L 179.262905 104.023996 
L 179.07553 104.118869 
L 178.970168 104.252799 
L 178.698303 104.787622 
L 178.656506 105.469604 
L 178.676587 106.036578 
L 178.779525 106.158438 
L 179.078746 106.415387 
L 179.528288 106.971082 
L 180.485132 106.422552 
L 181.88726 105.618754 
L 182.285781 105.390294 
L 182.549955 105.238851 
L 183.935635 104.444496 
L 185.14369 103.666007 
L 186.640425 105.28128 
L 186.657315 105.299408 
L 187.782385 106.506887 
L 187.802982 106.530895 
L 188.538175 107.387849 
L 190.128005 109.240981 
L 191.120192 110.39749 
L 191.898997 111.264317 
L 191.916022 111.283028 
L 193.203086 112.712034 
L 192.967201 114.477205 
L 192.514357 117.865929 
L 192.414845 118.610423 
L 192.386067 118.825891 
L 193.431309 118.830582 
L 193.743338 118.83327 
L 196.107032 118.853183 
L 198.366732 118.872221 
L 199.053679 118.877995 
L 200.34184 118.888823 
L 200.444356 118.890088 
L 201.423608 118.908589 
L 201.428036 118.907429 
L 201.679503 118.910855 
L 204.816263 118.947349 
L 204.819024 118.947382 
L 208.079984 118.958977 
L 208.500273 118.983381 
L 208.847088 118.986859 
L 210.616689 119.004569 
L 210.769225 119.007942 
L 211.503071 119.027128 
L 211.974329 119.035456 
L 212.307229 119.047526 
L 212.368001 119.045365 
L 212.442793 119.051373 
L 213.346357 119.071402 
L 215.971348 119.106136 
L 217.513602 119.126563 
L 218.363108 119.137814 
L 219.473286 119.152519 
L 222.091108 119.187201 
L 222.315378 119.191839 
L 226.028779 119.268423 
L 227.508963 119.29894 
L 229.204826 119.333938 
L 229.256058 119.333938 
L 230.352321 119.356655 
L 230.579543 119.355601 
L 232.168568 119.389281 
L 232.974992 119.408836 
L 233.722928 119.425087 
L 234.394036 119.439669 
L 238.216988 119.522815 
L 238.237624 119.523263 
L 238.248282 119.523484 
L 240.144317 119.562689 
L 241.237997 119.5853 
L 246.355156 119.556153 
L 246.396162 119.554941 
L 247.866912 119.569066 
L 247.909552 119.570911 
L 250.606573 119.606628 
L 250.751276 119.608544 
L 250.862647 119.610652 
L 251.536723 119.618717 
L 253.702104 121.396646 
L 253.841199 121.51139 
L 257.524715 124.50723 
L 257.906159 124.804132 
L 259.063719 125.753477 
L 259.707964 126.281839 
L 259.772583 126.334862 
L 261.292772 127.573593 
L 261.867073 128.057395 
L 261.868493 128.058766 
L 262.273237 128.449539 
L 262.42514 128.548471 
L 262.802215 128.813326 
L 262.815123 128.822392 
L 262.896925 128.880317 
L 263.409874 129.301503 
L 268.244046 133.2903 
L 269.666568 134.528346 
L 270.007797 134.822822 
L 270.092392 134.909684 
L 270.967125 135.658552 
L 272.01864 136.594743 
L 273.965654 138.328292 
L 274.222708 138.546343 
L 275.745586 139.838098 
L 275.782118 139.869087 
L 276.642193 140.598667 
L 277.002054 140.892061 
L 277.008035 140.896938 
L 277.076661 140.964878 
L 279.14564 142.70412 
L 279.580108 143.069699 
L 283.374354 146.258744 
L 283.374949 146.259244 
L 283.378894 146.26256 
L 287.353513 149.598206 
L 289.043736 151.016722 
L 291.879979 153.396992 
L 292.944138 154.290082 
L 293.731803 154.951125 
L 294.752326 155.815475 
L 297.054325 157.765125 
L 297.972993 158.543187 
L 299.280004 159.650155 
L 302.29893 162.206995 
L 302.407771 162.314729 
L 302.796225 162.600404 
L 304.917227 164.431883 
L 305.491791 164.912734 
L 305.558457 164.968525 
L 305.559921 164.96975 
L 307.08672 166.247498 
L 307.37329 166.487317 
L 309.247252 168.10006 
L 311.318182 169.882258 
L 310.640522 170.055192 
L 309.012019 170.242251 
L 304.404383 171.649277 
L 302.198259 172.56897 
L 300.76163 173.344055 
L 300.493666 173.488626 
L 299.108494 174.235949 
L 296.989969 175.555692 
L 294.354595 177.548983 
L 291.653665 179.915033 
L 290.393891 181.018612 
L 289.242198 182.236484 
L 287.046852 184.557979 
L 286.742317 184.880014 
L 285.627026 186.629903 
L 284.962438 187.135473 
L 282.671612 189.249254 
L 281.787603 190.443236 
L 279.991279 193.455416 
L 279.35589 194.805993 
L 279.116651 196.245856 
L 278.779639 197.200599 
L 278.573922 197.493916 
L 277.625925 201.347097 
L 277.613012 202.20022 
L 278.043579 203.854076 
L 277.227878 205.586307 
L 276.818816 205.991944 
L 275.774048 206.542579 
L 274.571843 207.518405 
L 274.159249 208.160909 
L 271.805142 208.941731 
L 271.761006 208.956371 
L 269.74136 209.999294 
L 269.358704 210.931373 
L 269.45479 211.297163 
L 269.245699 212.089145 
L 268.157395 214.390565 
L 265.85139 214.536512 
L 265.176576 214.383028 
L 264.811208 213.947137 
L 262.829406 214.339597 
L 261.646018 214.675554 
L 261.370463 213.907764 
L 260.411398 213.012739 
L 259.593062 212.87902 
L 257.742449 213.621194 
L 256.52148 214.402424 
L 256.212351 215.198992 
L 255.451782 215.834223 
L 255.156884 216.204967 
L 254.577312 217.233923 
L 254.571831 217.647993 
L 254.824141 218.177966 
L 255.179073 218.64506 
L 255.189159 218.644808 
L 256.248877 218.618285 
L 256.470776 218.361072 
L 256.825813 218.193199 
L 256.948991 218.226984 
L 257.099312 218.606109 
L 256.770207 219.684346 
L 253.863758 220.613526 
L 252.584179 221.451628 
L 250.490901 222.627374 
L 250.262098 223.175584 
L 250.078992 223.397799 
L 249.187023 223.924083 
L 249.259782 224.208046 
L 249.351365 224.565481 
L 248.843898 224.967692 
L 244.383158 226.498106 
L 244.002821 227.057227 
L 242.8373 227.559846 
L 242.406311 227.642491 
L 241.658814 227.311488 
L 241.626937 226.887037 
L 241.621233 226.811083 
L 241.241423 226.429428 
L 240.797438 226.150902 
L 240.431151 225.921117 
L 238.470591 226.242317 
L 238.25138 226.732075 
L 238.218851 227.232402 
L 238.188711 227.695989 
L 239.769505 227.804675 
L 240.794411 227.875142 
L 241.361385 228.717671 
L 241.256814 229.090418 
L 240.373542 230.451852 
L 240.485967 231.376605 
L 238.86674 232.403716 
L 236.084523 233.731048 
L 235.727166 233.741326 
L 235.112123 234.434377 
L 234.857387 234.961399 
L 234.380332 235.51467 
L 233.868859 235.358655 
L 232.457827 235.285708 
L 230.362019 235.650286 
L 228.025549 236.324731 
L 226.600444 236.95954 
L 225.605327 237.939583 
L 225.369303 238.665207 
L 224.757369 238.988251 
L 224.402437 238.627099 
L 224.249855 238.539255 
L 223.605394 238.168228 
L 221.437483 239.45603 
L 221.268538 239.536689 
L 219.873042 240.202935 
L 219.786684 240.244165 
L 216.900581 242.250053 
L 216.588763 242.217058 
L 216.297344 241.581143 
L 215.239346 241.301635 
L 214.355969 241.814953 
L 214.033873 242.212842 
L 213.731649 242.396158 
L 212.628692 242.641775 
L 212.499242 242.567879 
L 212.396305 242.356944 
L 212.364364 241.575925 
L 212.278342 241.452676 
L 212.103356 241.201965 
L 211.262514 240.91297 
L 210.594658 241.239018 
L 209.876149 241.343695 
L 209.541035 241.25599 
L 209.285806 241.866051 
L 209.109782 242.28679 
L 208.879609 243.152827 
L 209.100292 243.841838 
L 209.114737 243.886937 
L 209.777164 245.03538 
L 210.308772 245.825729 
L 211.602319 245.804909 
L 211.761443 246.272794 
L 211.795703 246.911345 
L 211.531533 247.674233 
L 210.94395 248.984436 
L 210.345035 249.693404 
L 210.430526 250.242932 
L 209.842838 250.627064 
L 207.126874 251.700927 
L 205.990606 252.321399 
L 205.66071 252.582196 
L 204.321518 253.045916 
L 202.988125 253.031632 
L 201.834252 253.736121 
L 200.750007 253.97673 
L 200.349377 253.478434 
L 200.437082 252.085638 
L 199.933674 251.954966 
L 198.132026 251.487303 
L 196.757731 250.285204 
L 196.069131 250.509009 
L 195.754392 250.611305 
L 195.570917 251.319693 
L 194.710098 251.277896 
L 194.046616 252.02708 
L 194.298611 252.689297 
L 195.431231 253.465231 
L 195.520054 253.526081 
L 196.589331 253.378184 
L 198.695047 254.989346 
L 199.152496 256.023625 
L 198.114633 256.857036 
L 196.396052 258.994008 
L 194.93985 260.063443 
L 192.783851 260.993361 
L 191.597563 261.665276 
L 191.121773 261.726259 
L 190.759989 261.482065 
L 190.594645 261.509104 
L 189.914719 261.667226 
L 189.160791 262.201048 
L 188.139546 263.244078 
L 186.702356 264.711927 
L 187.389345 265.143021 
L 187.749179 265.626033 
L 187.355981 265.607638 
L 186.423481 265.513502 
L 186.045252 265.469228 
L 185.784402 265.386161 
L 185.575733 265.253285 
L 185.217112 264.94326 
L 184.707483 264.401954 
L 184.114208 263.832819 
L 183.854887 263.693829 
L 182.830728 263.374949 
L 182.604086 263.253721 
L 182.361631 263.011267 
L 182.150801 262.642367 
L 182.013762 262.463162 
L 181.723871 262.230933 
L 181.593999 262.176433 
L 181.359556 262.118244 
L 181.084634 262.169687 
L 180.871274 262.314738 
L 180.655783 262.565319 
L 180.575427 262.658759 
L 179.992904 262.945857 
L 179.698217 262.997563 
L 179.067361 262.953342 
L 178.529323 262.837649 
L 178.188622 262.687538 
L 177.311569 262.137746 
L 177.099437 261.994394 
L 177.064476 261.970769 
L 176.925329 261.810538 
L 176.892439 261.610671 
L 176.792927 261.587058 
L 176.42018 261.589641 
L 175.857475 261.54621 
L 175.741519 261.482961 
L 175.535959 261.251048 
L 175.390487 260.372783 
L 175.435815 259.959767 
L 175.477981 259.838593 
L 175.388378 259.369496 
L 175.371274 259.296801 
L 175.282964 258.921483 
L 175.224985 258.863557 
L 174.945636 258.784496 
L 174.882387 258.721247 
L 174.894615 258.651673 
L 174.961448 258.536771 
L 175.153409 258.3777 
L 175.3304 258.231067 
L 175.420003 258.204714 
L 175.423851 258.113003 
L 175.367295 258.030779 
L 175.39892 257.89901 
L 175.499064 257.682962 
L 175.483252 257.477403 
L 175.224142 256.838167 
L 174.953594 256.453139 
L 174.546218 256.230502 
L 174.508532 256.187756 
L 174.170572 255.762829 
L 173.991821 255.488371 
L 173.622836 254.921828 
L 173.492965 254.722014 
L 173.461762 254.593829 
L 173.514048 254.482511 
L 173.896757 254.004138 
L 174.028525 253.566719 
L 174.518705 253.076539 
L 174.819138 252.976395 
L 174.966719 252.886792 
L 175.314641 252.454644 
L 175.409514 252.29125 
L 175.409157 252.287681 
L 175.398973 252.185835 
L 175.267204 251.35311 
L 175.235579 251.252966 
L 175.182872 251.179175 
L 175.103811 251.147551 
L 174.560924 250.341179 
L 174.460779 250.151432 
L 174.492457 250.056559 
L 174.703287 249.803563 
L 174.671662 249.461017 
L 174.286898 249.034086 
L 174.202566 248.955025 
L 174.123504 248.944483 
L 173.933757 249.034086 
L 173.88922 249.131279 
L 173.857806 249.176976 
L 173.777901 249.219775 
L 173.697997 249.222621 
L 173.635222 249.222621 
L 173.598116 249.216928 
L 173.575294 249.208337 
L 173.555318 249.191207 
L 173.53824 249.151255 
L 173.546779 249.065658 
L 173.543722 248.997191 
L 173.190582 248.680999 
L 172.748155 248.405549 
L 172.709573 248.331548 
L 172.725649 248.273623 
L 172.790005 248.18033 
L 172.822157 248.077393 
L 172.790005 247.97767 
L 172.573904 247.811378 
L 172.214088 247.443697 
L 172.171219 247.399891 
L 172.326232 247.178941 
L 172.373669 246.804718 
L 172.178651 246.551722 
L 171.714825 245.982534 
L 171.440746 245.761162 
L 170.903183 245.112913 
L 170.729248 244.469934 
L 170.791654 244.387974 
L 170.934807 244.327624 
L 171.037165 244.267221 
L 171.089504 244.186737 
L 171.113644 244.102194 
L 171.113644 244.04585 
L 171.057299 243.969371 
L 171.013025 243.880823 
L 171.013025 243.792274 
L 171.049235 243.707731 
L 171.125714 243.647381 
L 171.303812 243.621397 
L 171.562079 243.400025 
L 171.841428 243.052156 
L 171.867782 242.988907 
L 171.799262 242.920387 
L 171.741284 242.909846 
L 171.57262 242.952012 
L 171.446122 242.936199 
L 171.172043 242.7834 
L 170.518523 242.21943 
L 169.72264 241.418329 
L 169.403391 241.175664 
L 169.155877 240.780358 
L 169.132317 240.627085 
L 169.149025 240.558776 
L 169.238838 240.495 
L 169.33756 240.449197 
L 169.380305 240.369767 
L 169.346731 240.23842 
L 169.218388 240.183393 
L 168.801208 240.130527 
L 168.650254 240.13506 
L 168.547316 240.171428 
L 168.386295 240.129842 
L 167.108191 239.229229 
L 167.155048 239.063675 
L 167.230947 238.927426 
L 167.224358 238.768513 
L 167.209284 238.713487 
L 166.997136 238.218669 
L 166.88858 238.121145 
L 166.887189 238.119895 
L 166.073596 237.793952 
L 166.010611 237.774029 
L 165.871568 237.783674 
L 165.427982 237.882395 
L 164.817682 237.958083 
L 164.387325 237.868797 
L 162.37332 237.034384 
L 162.29837 236.656893 
L 162.266956 236.350979 
L 162.226108 236.287414 
L 162.130549 236.245933 
L 162.045796 236.240821 
L 161.884563 236.393567 
L 161.727548 236.403845 
L 161.63357 236.370639 
L 161.198088 236.068585 
L 161.194043 236.065779 
L 160.955436 235.701887 
L 160.784611 235.530745 
L 160.383612 235.234529 
L 160.00454 234.854877 
L 159.648554 234.276044 
L 159.660624 233.996062 
L 159.73531 233.920005 
L 159.85406 233.851854 
L 159.925215 233.855649 
L 160.024727 234.090777 
L 160.091297 234.170629 
L 160.140315 234.18623 
L 160.248839 234.152445 
L 160.48207 233.916684 
L 160.487921 233.873359 
L 160.408701 233.808739 
L 160.362793 233.57514 
L 160.443277 233.537823 
L 160.917276 233.212512 
L 160.999289 233.10852 
L 160.957913 233.005846 
L 160.72094 232.857422 
L 160.354149 232.846353 
L 160.252951 232.635418 
L 160.247311 232.580549 
L 160.281782 232.530214 
L 160.406119 232.25176 
L 160.577839 231.740708 
L 160.565875 231.600401 
L 160.194076 230.82286 
L 160.139313 230.803833 
L 160.105949 230.808577 
L 160.06547 230.830029 
L 160.044018 230.87288 
L 160.020194 230.915784 
L 159.941607 230.941979 
L 159.222941 230.508776 
L 159.181724 230.45454 
L 159.514993 229.923144 
L 159.550729 229.48778 
L 159.654773 228.836948 
L 159.964272 228.494507 
L 160.023357 228.438532 
L 160.060463 228.356888 
L 160.075326 228.275191 
L 160.09019 228.200927 
L 160.075326 228.134146 
L 160.030789 228.059881 
L 159.956524 228.015344 
L 159.822858 227.978185 
L 159.77832 227.896541 
L 159.748645 227.800034 
L 159.763509 227.673799 
L 159.830289 227.510459 
L 159.763509 227.376792 
L 159.704108 227.250558 
L 159.570441 227.102081 
L 159.451639 227.020384 
L 159.313492 226.967308 
L 159.251192 226.953551 
L 159.236329 226.916445 
L 159.236329 226.849612 
L 159.258571 226.805074 
L 159.280866 226.767968 
L 159.329463 226.725381 
L 159.436775 226.693703 
L 159.51104 226.619439 
L 159.518472 226.552606 
L 159.525904 226.500636 
L 159.518472 226.441235 
L 159.466502 226.374454 
L 159.355131 226.329864 
L 159.236329 226.263031 
L 159.139769 226.173955 
L 159.102662 226.047721 
L 159.154632 225.93635 
L 159.314441 225.793196 
L 159.302055 225.589956 
L 159.32103 225.18453 
L 159.379113 224.729559 
L 159.590997 224.559999 
L 159.657145 224.458116 
L 159.684184 224.32466 
L 159.545247 223.63804 
L 159.492856 223.429582 
L 159.236645 223.134683 
L 158.382995 222.642712 
L 158.334293 222.615251 
L 158.267302 222.597383 
L 158.028537 222.694418 
L 157.933505 222.75772 
L 157.861085 222.756402 
L 157.78856 222.660949 
L 157.681616 222.431882 
L 157.837683 222.140462 
L 157.925494 221.668888 
L 157.844746 221.437977 
L 157.790088 221.379472 
L 157.045753 221.242379 
L 156.922734 221.263884 
L 156.630629 221.191464 
L 156.44473 221.010098 
L 156.568329 220.673455 
L 156.852791 220.516914 
L 156.898488 220.512592 
L 157.224273 220.22386 
L 157.25516 220.128196 
L 157.157387 220.018828 
L 156.996419 219.955895 
L 156.458486 219.715813 
L 156.415055 219.304378 
L 156.246918 218.863849 
L 155.620016 218.347632 
L 155.37034 218.293976 
L 155.233406 218.14961 
L 155.218174 217.97383 
L 155.384202 217.708501 
L 155.390527 217.641773 
L 155.149654 217.478222 
L 154.990003 217.314671 
L 154.932394 217.168038 
L 154.916687 217.073745 
L 154.911416 217.000429 
L 154.916687 216.937548 
L 154.953319 216.890428 
L 154.969078 216.838037 
L 154.984785 216.780427 
L 155.021417 216.722818 
L 155.084297 216.691405 
L 155.184968 216.695041 
L 155.289171 216.696939 
L 155.370288 216.649397 
L 155.38921 216.598587 
L 155.638779 215.849192 
L 155.811607 214.982733 
L 155.825311 214.856921 
L 155.81361 214.316458 
L 155.769652 214.249836 
L 155.254331 213.945661 
L 154.768632 213.277699 
L 154.663955 213.237641 
L 154.326574 213.204172 
L 153.316857 212.676886 
L 153.248759 212.60162 
L 153.142764 212.377824 
L 153.120744 212.357025 
L 153.0286 212.269985 
L 152.895408 212.257335 
L 152.629077 212.384149 
L 152.53394 212.415879 
L 152.356316 212.365122 
L 152.286584 212.308039 
L 152.242151 212.244632 
L 152.216799 212.155873 
L 152.242467 212.013826 
L 152.254854 211.952896 
L 152.242151 211.889489 
L 152.172419 211.832407 
L 152.128039 211.81338 
L 152.089985 211.81338 
L 152.06458 211.81338 
L 152.026525 211.81338 
L 151.950415 211.857759 
L 151.842628 211.908517 
L 151.728464 211.921167 
L 151.520006 211.886538 
L 151.232645 211.635861 
L 151.092337 211.437628 
L 150.944229 211.209721 
L 150.694659 211.007904 
L 150.580495 210.988877 
L 150.478243 211.057449 
L 150.377571 211.058661 
L 150.130215 210.957147 
L 150.085783 210.868387 
L 150.079458 210.779575 
L 150.123837 210.690763 
L 150.18092 210.570274 
L 150.187297 210.468812 
L 150.079458 210.316593 
L 150.003348 210.278538 
L 149.901517 210.284336 
L 149.730271 210.435132 
L 149.616475 210.430757 
L 149.572096 210.41173 
L 149.559393 210.373675 
L 149.572096 210.265835 
L 149.588119 210.163161 
L 149.591123 210.005829 
L 149.521338 209.859935 
L 149.419876 209.790203 
L 149.336942 209.752888 
L 149.293009 209.733121 
L 149.153493 209.720418 
L 148.391711 209.790256 
L 148.128174 209.842963 
L 147.859313 209.832422 
L 147.643213 209.758631 
L 147.010723 209.305347 
L 145.687765 208.804679 
L 144.981432 208.599119 
L 144.82858 208.588578 
L 144.654646 208.620202 
L 144.575584 208.60439 
L 143.916741 208.203813 
L 143.537247 207.919193 
L 142.509398 207.286756 
L 141.913804 206.75441 
L 141.492144 206.338074 
L 141.423624 206.016558 
L 141.302397 205.742479 
L 141.001964 205.231217 
L 141.001964 205.189051 
L 141.355104 204.835963 
L 141.507956 204.820151 
L 141.623913 204.767444 
L 141.81893 204.314159 
L 141.811113 204.299727 
L 141.750411 204.187661 
L 141.571205 204.1086 
L 141.471061 204.008456 
L 141.25496 203.370748 
L 141.186441 203.281145 
L 140.917632 203.086128 
L 140.685719 203.049232 
L 140.596117 203.086128 
L 140.54868 203.154647 
L 140.743698 203.412914 
L 140.733156 203.602661 
L 140.659366 203.681722 
L 140.364204 203.771325 
L 140.063718 203.755513 
L 139.273106 203.59739 
L 139.16242 203.534141 
L 139.130796 203.476163 
L 139.120254 203.17573 
L 139.041193 203.007066 
L 138.930508 202.943817 
L 138.514118 202.796289 
L 138.076646 202.685603 
L 137.885366 202.443986 
L 137.876358 202.432607 
L 137.598062 202.216191 
L 137.096287 202.000406 
L 136.809394 201.703369 
L 136.801125 201.694808 
L 136.748365 201.526091 
L 137.054121 200.703855 
L 137.307855 200.691258 
L 137.436672 200.667223 
L 137.528436 200.558751 
L 137.532652 200.354404 
L 137.228056 200.055605 
L 136.816938 199.797339 
L 136.316216 199.655029 
L 136.216072 199.517989 
L 136.305675 199.038351 
L 136.527046 198.954019 
L 136.758959 198.948748 
L 136.827479 199.006727 
L 136.932894 198.954019 
L 137.11737 198.72743 
L 137.056229 198.57247 
L 136.721221 198.385727 
L 135.968347 198.189813 
L 135.836578 198.247792 
L 135.551958 198.537683 
L 135.114433 198.37956 
L 134.982664 198.036962 
L 134.419116 197.752974 
L 134.433084 197.64155 
L 134.439777 197.473044 
L 134.373893 197.36647 
L 134.262469 197.289886 
L 134.14061 197.335161 
L 134.060547 197.491808 
L 133.938687 197.655465 
L 133.788945 197.655465 
L 133.733234 197.592796 
L 133.684532 197.474415 
L 133.576587 197.373427 
L 133.311837 197.198965 
L 133.269671 197.114633 
L 133.331023 196.73788 
L 132.974509 196.540174 
L 132.552849 196.635048 
L 132.315666 196.629777 
L 132.183897 196.561257 
L 132.178626 196.413677 
L 132.278329 196.3116 
L 132.399998 196.187034 
L 132.442164 195.976204 
L 131.92036 195.554545 
L 131.814945 195.380663 
L 131.836028 195.206728 
L 131.973067 195.117125 
L 132.189168 195.106584 
L 132.452705 195.296331 
L 132.663693 195.337179 
L 132.921802 195.180374 
L 132.969239 195.022252 
L 132.651729 194.70938 
L 132.409696 193.772505 
L 132.312345 193.592878 
L 132.330213 193.438023 
L 132.43742 193.342675 
L 132.669755 193.300983 
L 133.0629 193.223556 
L 133.217807 193.092473 
L 133.265455 192.967398 
L 133.259499 192.836314 
L 133.167893 192.741125 
L 132.966287 192.641613 
L 132.84253 192.455081 
L 132.866354 192.258482 
L 132.961649 192.115539 
L 133.186446 192.026042 
L 133.422576 191.913881 
L 133.574373 191.687028 
L 133.56905 191.569859 
L 133.565097 191.483788 
L 133.180121 190.916444 
L 132.910824 190.382795 
L 132.89023 190.341985 
L 132.726837 190.189134 
L 132.479112 190.057365 
L 132.078482 189.967762 
L 131.830757 189.87816 
L 131.361453 189.675425 
L 130.744983 189.409116 
L 130.402384 189.303701 
L 130.028161 189.22991 
L 129.748759 189.098142 
L 129.569553 188.913665 
L 129.485221 188.692347 
L 129.514527 188.348483 
L 129.432514 188.15473 
L 128.937063 187.327223 
L 128.778941 187.232349 
L 128.63136 187.184913 
L 128.605006 187.158559 
L 128.478508 186.784336 
L 128.399447 186.715816 
L 128.375573 186.706324 
L 127.961975 186.541881 
L 127.772228 186.38903 
L 127.772228 186.241501 
L 127.519232 186.02013 
L 127.267027 185.940015 
L 127.168359 185.797494 
L 127.037644 185.507392 
L 126.565385 185.024169 
L 126.42708 184.969354 
L 126.111679 184.942367 
L 126.078194 184.925625 
L 125.964941 184.868999 
L 125.368714 184.415293 
L 125.154458 184.303131 
L 124.396314 184.139527 
L 124.046336 184.027365 
L 123.929115 183.95737 
L 123.799244 183.836775 
L 123.407943 183.347703 
L 123.242653 183.297947 
L 122.928964 183.302147 
L 122.864793 183.303007 
L 122.662396 183.387339 
L 122.373612 183.605758 
L 122.204104 183.648768 
L 121.969925 183.616616 
L 121.477163 183.419332 
L 121.362325 183.345645 
L 121.163869 183.218306 
L 121.045594 183.067351 
L 120.924525 182.784681 
L 120.770039 182.662874 
L 120.662358 182.60595 
L 120.473823 182.556774 
L 120.356122 182.533372 
L 119.817984 182.426376 
L 119.527935 182.277319 
L 119.195877 182.017208 
L 118.646191 181.50584 
L 118.403579 180.645864 
L 118.479425 180.081209 
L 118.47471 179.885693 
L 118.474154 179.862631 
L 118.428246 179.710728 
L 118.022767 179.434963 
L 117.956039 179.335451 
L 117.831123 179.042555 
L 117.57702 178.669228 
L 117.483148 178.569137 
L 117.269155 178.420238 
L 116.643676 177.835607 
L 116.505793 177.431657 
L 116.581639 177.088531 
L 116.405333 176.219806 
L 116.336444 176.007448 
L 116.03306 175.404158 
L 115.96396 175.075052 
L 115.553105 174.700882 
L 115.406473 174.661931 
L 115.331523 174.671629 
L 115.134661 174.581131 
L 115.072782 174.501068 
L 115.039102 174.381896 
L 114.980702 174.329031 
L 114.896792 174.281278 
L 114.753111 174.267468 
L 114.37172 174.050366 
L 114.193621 173.838271 
L 113.943577 173.627336 
L 113.734961 173.523291 
L 113.592334 173.503579 
L 113.459722 173.531935 
L 113.285682 173.444968 
L 113.227335 173.364905 
L 113.216372 173.28869 
L 113.252107 172.795559 
L 113.233291 172.632166 
L 113.184115 172.543196 
L 113.04328 172.423023 
L 112.721132 172.265691 
L 112.492276 172.091071 
L 112.418117 171.97016 
L 111.905062 171.520354 
L 111.20147 171.144919 
L 110.721621 170.768482 
L 110.460825 170.656004 
L 109.552885 170.342764 
L 109.412262 170.26697 
L 109.279913 170.173309 
L 108.99192 169.883629 
L 108.716629 169.70748 
L 108.423891 169.563378 
L 108.149338 169.461811 
L 107.897343 169.237593 
L 107.720035 169.125115 
L 107.484275 169.080683 
L 107.173037 169.131915 
L 106.982658 169.190684 
L 106.722704 169.21593 
L 106.387432 169.105772 
L 106.282755 169.042154 
L 105.887765 168.680159 
L 105.789782 168.616699 
L 105.388889 168.489147 
L 105.020147 168.272677 
L 104.794243 168.023055 
L 104.239655 167.682986 
L 103.702144 167.205509 
L 103.02654 166.791386 
L 102.85893 166.596105 
L 102.464941 165.932571 
L 102.25116 165.647529 
L 101.971283 165.356952 
L 101.361721 165.020099 
L 101.244394 164.998752 
L 100.85594 165.004761 
L 100.557668 165.115446 
L 100.380677 165.147176 
L 99.781445 164.995906 
L 99.658215 164.915053 
L 99.252592 164.367538 
L 99.24989 164.36389 
L 99.190963 164.212515 
L 99.167509 163.937487 
L 99.054556 163.680696 
L 98.971489 163.579919 
L 98.715331 163.399185 
L 98.566907 163.245227 
L 98.459594 163.101494 
L 98.408205 162.959078 
L 98.40715 162.81798 
L 98.437457 162.719364 
L 98.529801 162.63187 
L 98.630683 162.57795 
L 98.682283 162.514174 
L 98.672322 162.453824 
L 98.636375 162.398112 
L 98.556629 162.364538 
L 98.258357 162.28321 
L 98.108668 162.18491 
L 97.949966 162.028527 
L 97.812399 161.559431 
L 97.673629 161.30015 
L 97.612111 161.185208 
L 97.601569 161.05871 
L 97.696443 160.668727 
L 97.670089 160.521146 
L 97.585757 160.426273 
L 97.222075 160.19963 
L 96.874206 159.930822 
L 96.679188 159.567193 
L 96.373485 159.33001 
L 96.278611 159.166616 
L 96.262799 159.034848 
L 96.215362 158.950516 
L 95.961945 158.690088 
L 95.750641 158.580931 
L 95.61397 158.618142 
L 95.486102 158.61187 
L 95.246177 158.471985 
L 95.065022 158.227316 
L 94.97642 158.026554 
L 94.999664 157.868431 
L 95.127375 157.748996 
L 95.256613 157.48588 
L 95.266839 157.417097 
L 95.237849 157.378515 
L 95.208808 157.348314 
L 95.220509 157.245692 
L 95.192943 157.174484 
L 94.904369 156.878637 
L 94.843439 156.835206 
L 94.633084 156.7796 
L 94.535891 156.745762 
L 94.296494 156.599657 
L 94.269297 156.577203 
L 94.203676 156.400475 
L 94.123086 156.355305 
L 93.858073 156.047651 
L 93.793032 155.701416 
L 93.41844 155.194423 
L 93.307754 155.095438 
L 92.834968 154.948015 
L 92.619078 154.745671 
L 92.525997 154.709145 
L 92.347951 154.718158 
L 92.125104 154.691646 
L 91.89414 154.602623 
L 91.302076 154.225343 
L 91.189599 154.10206 
L 90.883632 153.290839 
L 90.773104 153.086387 
L 90.487693 152.763184 
L 90.431981 152.633682 
L 90.406787 152.517673 
L 90.427027 151.854086 
L 90.385599 151.738973 
L 89.902851 150.962855 
L 89.89084 150.866167 
L 89.878605 150.767679 
L 89.975376 150.524118 
L 89.980489 150.45602 
L 89.771346 150.180149 
L 89.821629 150.05207 
L 89.899688 149.901695 
L 89.749261 149.229095 
L 89.741461 149.12874 
L 89.790268 148.731009 
L 89.542542 148.151227 
L 89.547813 148.114332 
L 89.653228 147.993105 
L 89.484564 147.757871 
L 89.211961 147.48395 
L 88.844748 147.198012 
L 88.794676 147.171764 
L 88.672342 147.195535 
L 88.373912 146.991926 
L 88.227679 146.815776 
L 87.879516 146.396384 
L 87.803406 146.069598 
L 87.535231 145.675346 
L 87.31776 144.981241 
L 87.283921 144.776841 
L 87.303581 144.58604 
L 87.154999 144.12622 
L 87.093384 144.063604 
L 86.936579 144.044787 
L 86.317214 143.587233 
L 86.013319 143.387043 
L 85.607191 143.119507 
L 85.065253 142.836468 
L 84.996628 142.740172 
L 84.97507 142.576357 
L 84.986139 142.327472 
L 84.911927 141.864858 
L 84.652975 141.471977 
L 84.628044 141.346902 
L 84.663411 141.092377 
L 84.628044 140.964087 
L 84.385552 140.417467 
L 84.340841 140.316681 
L 84.323184 139.867508 
L 84.277329 139.694997 
L 84.134175 139.538561 
L 83.972521 139.25062 
L 83.902526 138.633837 
L 83.672457 138.331823 
L 83.633085 138.238953 
L 83.641887 137.924869 
L 83.565514 137.855295 
L 83.39743 137.772491 
L 82.864136 137.604671 
L 82.811375 137.483443 
L 82.843 137.367487 
L 82.895707 137.320683 
L 82.950154 137.182747 
L 82.790292 136.982722 
L 82.474047 136.787705 
L 81.430387 136.424076 
L 81.129954 136.45043 
L 80.365643 136.661259 
L 80.212791 136.640176 
L 80.070481 136.513679 
L 79.416855 136.413534 
L 79.074257 136.756133 
L 78.689492 136.87736 
L 78.373195 136.629635 
L 77.377023 136.59274 
L 76.710409 136.777416 
L 76.686397 136.784068 
L 76.548936 136.964538 
L 76.558898 137.131357 
L 76.145987 137.149858 
L 74.754984 136.516577 
L 74.586425 136.575346 
L 74.470522 136.550943 
L 73.993045 136.270486 
L 73.754912 136.03657 
L 73.692812 135.939648 
L 73.429496 135.528681 
L 73.251345 135.485408 
L 72.846973 135.621657 
L 72.639516 135.568686 
L 71.704591 134.840901 
L 71.721879 134.742918 
L 72.189184 134.429414 
L 72.182964 134.37191 
L 71.82761 134.048813 
L 71.672967 133.990255 
L 71.421288 133.94461 
L 71.405775 133.949741 
L 71.194962 134.019455 
L 70.914506 133.984932 
L 70.861957 133.92026 
L 70.841569 133.750319 
L 70.819211 133.563957 
L 69.822302 132.511757 
L 69.596977 132.413195 
L 69.465208 132.429007 
L 68.927592 132.09695 
L 68.258154 131.554063 
L 68.152739 131.032311 
L 67.430594 130.88473 
L 67.325179 130.81094 
L 67.288284 130.473612 
L 67.340148 130.304315 
L 67.362391 130.20649 
L 67.340148 130.123318 
L 67.159151 130.032766 
L 66.842326 129.987543 
L 65.917837 130.094118 
L 65.770256 129.96762 
L 65.147306 129.835482 
L 64.630562 129.885976 
L 64.083564 129.814821 
L 63.472104 129.461681 
L 63.614678 129.129097 
L 63.615047 129.118555 
L 63.408855 129.024209 
L 63.213837 128.739641 
L 62.844885 128.423396 
L 62.47588 128.286357 
L 61.964617 128.202025 
L 61.649532 128.046169 
L 61.195035 127.727657 
L 60.862978 127.553723 
L 60.443163 127.117621 
L 60.41001 126.900888 
L 60.243244 126.743872 
L 60.017867 126.706345 
L 59.729188 126.776393 
L 59.623404 126.756786 
L 59.511506 126.469161 
L 59.463226 126.405859 
L 59.356598 126.323161 
L 59.152462 126.219117 
L 58.891666 126.122925 
L 58.579479 126.165513 
L 58.448607 126.088139 
L 58.430739 125.993002 
L 58.41462 125.842306 
L 58.412924 125.826446 
L 58.359373 125.719397 
L 58.252324 125.600436 
L 58.133363 125.481475 
L 57.966808 125.344647 
L 57.88353 125.267325 
L 57.853803 125.184047 
L 57.871671 125.08891 
L 57.966808 124.946125 
L 57.972763 124.850988 
L 57.863659 124.703408 
L 57.801043 124.441504 
L 57.779116 124.37757 
L 57.721507 124.296558 
L 57.721104 124.28979 
L 57.681818 123.629545 
" clip-path="url(#pacaed1daf9)" style="fill: #ffac00"/>
   </g>
   <g id="PathCollection_1">
    <defs>
     <path id="mf0b99d7869" d="M 0 1.581139 
C 0.419323 1.581139 0.821528 1.41454 1.118034 1.118034 
C 1.41454 0.821528 1.581139 0.419323 1.581139 0 
C 1.581139 -0.419323 1.41454 -0.821528 1.118034 -1.118034 
C 0.821528 -1.41454 0.419323 -1.581139 0 -1.581139 
C -0.419323 -1.581139 -0.821528 -1.41454 -1.118034 -1.118034 
C -1.41454 -0.821528 -1.581139 -0.419323 -1.581139 0 
C -1.581139 0.419323 -1.41454 0.821528 -1.118034 1.118034 
C -0.821528 1.41454 -0.419323 1.581139 0 1.581139 
z
" style="stroke: #000000"/>
    </defs>
    <g clip-path="url(#pacaed1daf9)">
     <use xlink:href="#mf0b99d7869" x="179.9646" y="162.016668" style="stroke: #000000"/>
    </g>
   </g>
   <g id="text_1">
    <!-- Columbia -->
    <g transform="translate(182.9646 159.016668) scale(0.1 -0.1)">
     <defs>
      <path id="DejaVuSans-43" d="M 4122 4306 
L 4122 3641 
Q 3803 3938 3442 4084 
Q 3081 4231 2675 4231 
Q 1875 4231 1450 3742 
Q 1025 3253 1025 2328 
Q 1025 1406 1450 917 
Q 1875 428 2675 428 
Q 3081 428 3442 575 
Q 3803 722 4122 1019 
L 4122 359 
Q 3791 134 3420 21 
Q 3050 -91 2638 -91 
Q 1578 -91 968 557 
Q 359 1206 359 2328 
Q 359 3453 968 4101 
Q 1578 4750 2638 4750 
Q 3056 4750 3426 4639 
Q 3797 4528 4122 4306 
z
" transform="scale(0.015625)"/>
      <path id="DejaVuSans-6f" d="M 1959 3097 
Q 1497 3097 1228 2736 
Q 959 2375 959 1747 
Q 959 1119 1226 758 
Q 1494 397 1959 397 
Q 2419 397 2687 759 
Q 2956 1122 2956 1747 
Q 2956 2369 2687 2733 
Q 2419 3097 1959 3097 
z
M 1959 3584 
Q 2709 3584 3137 3096 
Q 3566 2609 3566 1747 
Q 3566 888 3137 398 
Q 2709 -91 1959 -91 
Q 1206 -91 779 398 
Q 353 888 353 1747 
Q 353 2609 779 3096 
Q 1206 3584 1959 3584 
z
" transform="scale(0.015625)"/>
      <path id="DejaVuSans-6c" d="M 603 4863 
L 1178 4863 
L 1178 0 
L 603 0 
L 603 4863 
z
" transform="scale(0.015625)"/>
      <path id="DejaVuSans-75" d="M 544 1381 
L 544 3500 
L 1119 3500 
L 1119 1403 
Q 1119 906 1312 657 
Q 1506 409 1894 409 
Q 2359 409 2629 706 
Q 2900 1003 2900 1516 
L 2900 3500 
L 3475 3500 
L 3475 0 
L 2900 0 
L 2900 538 
Q 2691 219 2414 64 
Q 2138 -91 1772 -91 
Q 1169 -91 856 284 
Q 544 659 544 1381 
z
M 1991 3584 
L 1991 3584 
z
" transform="scale(0.015625)"/>
      <path id="DejaVuSans-6d" d="M 3328 2828 
Q 3544 3216 3844 3400 
Q 4144 3584 4550 3584 
Q 5097 3584 5394 3201 
Q 5691 2819 5691 2113 
L 5691 0 
L 5113 0 
L 5113 2094 
Q 5113 2597 4934 2840 
Q 4756 3084 4391 3084 
Q 3944 3084 3684 2787 
Q 3425 2491 3425 1978 
L 3425 0 
L 2847 0 
L 2847 2094 
Q 2847 2600 2669 2842 
Q 2491 3084 2119 3084 
Q 1678 3084 1418 2786 
Q 1159 2488 1159 1978 
L 1159 0 
L 581 0 
L 581 3500 
L 1159 3500 
L 1159 2956 
Q 1356 3278 1631 3431 
Q 1906 3584 2284 3584 
Q 2666 3584 2933 3390 
Q 3200 3197 3328 2828 
z
" transform="scale(0.015625)"/>
      <path id="DejaVuSans-62" d="M 3116 1747 
Q 3116 2381 2855 2742 
Q 2594 3103 2138 3103 
Q 1681 3103 1420 2742 
Q 1159 2381 1159 1747 
Q 1159 1113 1420 752 
Q 1681 391 2138 391 
Q 2594 391 2855 752 
Q 3116 1113 3116 1747 
z
M 1159 2969 
Q 1341 3281 1617 3432 
Q 1894 3584 2278 3584 
Q 2916 3584 3314 3078 
Q 3713 2572 3713 1747 
Q 3713 922 3314 415 
Q 2916 -91 2278 -91 
Q 1894 -91 1617 61 
Q 1341 213 1159 525 
L 1159 0 
L 581 0 
L 581 4863 
L 1159 4863 
L 1159 2969 
z
" transform="scale(0.015625)"/>
      <path id="DejaVuSans-69" d="M 603 3500 
L 1178 3500 
L 1178 0 
L 603 0 
L 603 3500 
z
M 603 4863 
L 1178 4863 
L 1178 4134 
L 603 4134 
L 603 4863 
z
" transform="scale(0.015625)"/>
      <path id="DejaVuSans-61" d="M 2194 1759 
Q 1497 1759 1228 1600 
Q 959 1441 959 1056 
Q 959 750 1161 570 
Q 1363 391 1709 391 
Q 2188 391 2477 730 
Q 2766 1069 2766 1631 
L 2766 1759 
L 2194 1759 
z
M 3341 1997 
L 3341 0 
L 2766 0 
L 2766 531 
Q 2569 213 2275 61 
Q 1981 -91 1556 -91 
Q 1019 -91 701 211 
Q 384 513 384 1019 
Q 384 1609 779 1909 
Q 1175 2209 1959 2209 
L 2766 2209 
L 2766 2266 
Q 2766 2663 2505 2880 
Q 2244 3097 1772 3097 
Q 1472 3097 1187 3025 
Q 903 2953 641 2809 
L 641 3341 
Q 956 3463 1253 3523 
Q 1550 3584 1831 3584 
Q 2591 3584 2966 3190 
Q 3341 2797 3341 1997 
z
" transform="scale(0.015625)"/>
     </defs>
     <use xlink:href="#DejaVuSans-43"/>
     <use xlink:href="#DejaVuSans-6f" x="69.824219"/>
     <use xlink:href="#DejaVuSans-6c" x="131.005859"/>
     <use xlink:href="#DejaVuSans-75" x="158.789062"/>
     <use xlink:href="#DejaVuSans-6d" x="222.167969"/>
     <use xlink:href="#DejaVuSans-62" x="319.580078"/>
     <use xlink:href="#DejaVuSans-69" x="383.056641"/>
     <use xlink:href="#DejaVuSans-61" x="410.839844"/>
    </g>
   </g>
   <g id="text_2">
    <!-- South Carolina -->
    <g transform="translate(140.473125 83.591364) scale(0.12 -0.12)">
     <defs>
      <path id="DejaVuSans-53" d="M 3425 4513 
L 3425 3897 
Q 3066 4069 2747 4153 
Q 2428 4238 2131 4238 
Q 1616 4238 1336 4038 
Q 1056 3838 1056 3469 
Q 1056 3159 1242 3001 
Q 1428 2844 1947 2747 
L 2328 2669 
Q 3034 2534 3370 2195 
Q 3706 1856 3706 1288 
Q 3706 609 3251 259 
Q 2797 -91 1919 -91 
Q 1588 -91 1214 -16 
Q 841 59 441 206 
L 441 856 
Q 825 641 1194 531 
Q 1563 422 1919 422 
Q 2459 422 2753 634 
Q 3047 847 3047 1241 
Q 3047 1584 2836 1778 
Q 2625 1972 2144 2069 
L 1759 2144 
Q 1053 2284 737 2584 
Q 422 2884 422 3419 
Q 422 4038 858 4394 
Q 1294 4750 2059 4750 
Q 2388 4750 2728 4690 
Q 3069 4631 3425 4513 
z
" transform="scale(0.015625)"/>
      <path id="DejaVuSans-74" d="M 1172 4494 
L 1172 3500 
L 2356 3500 
L 2356 3053 
L 1172 3053 
L 1172 1153 
Q 1172 725 1289 603 
Q 1406 481 1766 481 
L 2356 481 
L 2356 0 
L 1766 0 
Q 1100 0 847 248 
Q 594 497 594 1153 
L 594 3053 
L 172 3053 
L 172 3500 
L 594 3500 
L 594 4494 
L 1172 4494 
z
" transform="scale(0.015625)"/>
      <path id="DejaVuSans-68" d="M 3513 2113 
L 3513 0 
L 2938 0 
L 2938 2094 
Q 2938 2591 2744 2837 
Q 2550 3084 2163 3084 
Q 1697 3084 1428 2787 
Q 1159 2491 1159 1978 
L 1159 0 
L 581 0 
L 581 4863 
L 1159 4863 
L 1159 2956 
Q 1366 3272 1645 3428 
Q 1925 3584 2291 3584 
Q 2894 3584 3203 3211 
Q 3513 2838 3513 2113 
z
" transform="scale(0.015625)"/>
      <path id="DejaVuSans-20" transform="scale(0.015625)"/>
      <path id="DejaVuSans-72" d="M 2631 2963 
Q 2534 3019 2420 3045 
Q 2306 3072 2169 3072 
Q 1681 3072 1420 2755 
Q 1159 2438 1159 1844 
L 1159 0 
L 581 0 
L 581 3500 
L 1159 3500 
L 1159 2956 
Q 1341 3275 1631 3429 
Q 1922 3584 2338 3584 
Q 2397 3584 2469 3576 
Q 2541 3569 2628 3553 
L 2631 2963 
z
" transform="scale(0.015625)"/>
      <path id="DejaVuSans-6e" d="M 3513 2113 
L 3513 0 
L 2938 0 
L 2938 2094 
Q 2938 2591 2744 2837 
Q 2550 3084 2163 3084 
Q 1697 3084 1428 2787 
Q 1159 2491 1159 1978 
L 1159 0 
L 581 0 
L 581 3500 
L 1159 3500 
L 1159 2956 
Q 1366 3272 1645 3428 
Q 1925 3584 2291 3584 
Q 2894 3584 3203 3211 
Q 3513 2838 3513 2113 
z
" transform="scale(0.015625)"/>
     </defs>
     <use xlink:href="#DejaVuSans-53"/>
     <use xlink:href="#DejaVuSans-6f" x="63.476562"/>
     <use xlink:href="#DejaVuSans-75" x="124.658203"/>
     <use xlink:href="#DejaVuSans-74" x="188.037109"/>
     <use xlink:href="#DejaVuSans-68" x="227.246094"/>
     <use xlink:href="#DejaVuSans-20" x="290.625"/>
     <use xlink:href="#DejaVuSans-43" x="322.412109"/>
     <use xlink:href="#DejaVuSans-61" x="392.236328"/>
     <use xlink:href="#DejaVuSans-72" x="453.515625"/>
     <use xlink:href="#DejaVuSans-6f" x="492.378906"/>
     <use xlink:href="#DejaVuSans-6c" x="553.560547"/>
     <use xlink:href="#DejaVuSans-69" x="581.34375"/>
     <use xlink:href="#DejaVuSans-6e" x="609.126953"/>
     <use xlink:href="#DejaVuSans-61" x="672.505859"/>
    </g>
   </g>
  </g>
 </g>
 <defs>
  <clipPath id="pacaed1daf9">
   <rect x="45" y="89.591364" width="279" height="184.417272"/>
  </clipPath>
 </defs>
</svg>
