<?xml version="1.0" encoding="utf-8" standalone="no"?>
<!DOCTYPE svg PUBLIC "-//W3C//DTD SVG 1.1//EN"
  "http://www.w3.org/Graphics/SVG/1.1/DTD/svg11.dtd">
<svg xmlns:xlink="http://www.w3.org/1999/xlink" width="360pt" height="360pt" viewBox="0 0 360 360" xmlns="http://www.w3.org/2000/svg" version="1.1">
 <metadata>
  <rdf:RDF xmlns:dc="http://purl.org/dc/elements/1.1/" xmlns:cc="http://creativecommons.org/ns#" xmlns:rdf="http://www.w3.org/1999/02/22-rdf-syntax-ns#">
   <cc:Work>
    <dc:type rdf:resource="http://purl.org/dc/dcmitype/StillImage"/>
    <dc:date>2023-06-19T15:20:25.662608</dc:date>
    <dc:format>image/svg+xml</dc:format>
    <dc:creator>
     <cc:Agent>
      <dc:title>Matplotlib v3.7.1, https://matplotlib.org/</dc:title>
     </cc:Agent>
    </dc:creator>
   </cc:Work>
  </rdf:RDF>
 </metadata>
 <defs>
  <style type="text/css">*{stroke-linejoin: round; stroke-linecap: butt}</style>
 </defs>
 <g id="figure_1">
  <g id="patch_1">
   <path d="M 0 360 
L 360 360 
L 360 0 
L 0 0 
z
" style="fill: #ffffff"/>
  </g>
  <g id="axes_1">
   <g id="PatchCollection_1">
    <path d="M 57.681818 155.678308 
L 57.931025 155.673648 
L 58.299509 155.642065 
L 58.281038 155.574438 
L 58.285365 151.464696 
L 58.271587 151.433113 
L 58.266303 148.507641 
L 58.258907 144.412268 
L 58.262002 144.099096 
L 58.267027 143.13868 
L 58.257176 142.497692 
L 58.243664 140.193532 
L 58.212114 139.258974 
L 58.228422 138.952625 
L 58.232715 138.840369 
L 58.213678 137.650415 
L 58.216008 137.26539 
L 58.206356 137.024969 
L 58.184391 130.6323 
L 58.143888 126.692289 
L 58.137399 126.572845 
L 58.1367 126.240004 
L 58.089674 124.132166 
L 70.635326 124.134429 
L 70.891587 124.134463 
L 70.891587 124.134795 
L 73.677055 124.133065 
L 74.288522 124.138123 
L 78.410645 124.132798 
L 78.492449 124.132066 
L 78.970128 124.136293 
L 79.193608 124.133697 
L 80.387223 124.149239 
L 80.597291 124.137424 
L 83.427455 124.137424 
L 83.42802 124.137524 
L 85.614434 124.135561 
L 85.872759 124.135095 
L 87.516263 124.132199 
L 88.192262 124.13393 
L 89.625565 124.133764 
L 90.271046 124.132865 
L 91.292699 124.131334 
L 92.01559 124.132266 
L 93.026996 124.136909 
L 93.037742 124.136959 
L 93.21889 124.135461 
L 94.810783 124.139428 
L 95.529241 124.141218 
L 96.868126 124.140187 
L 102.70494 124.140087 
L 103.729788 124.133364 
L 103.783137 124.134363 
L 103.975833 124.132266 
L 104.477174 124.127507 
L 104.778865 124.129038 
L 107.57365 124.13819 
L 107.827649 124.141984 
L 110.321144 124.136393 
L 110.602733 124.137192 
L 110.868214 124.139787 
L 111.306421 124.139721 
L 112.00605 124.141119 
L 112.007348 124.142816 
L 112.179908 124.140154 
L 112.506959 124.139854 
L 112.645739 124.142583 
L 112.898707 124.146876 
L 112.972457 124.145279 
L 113.092001 124.143182 
L 113.094364 124.144114 
L 114.372778 124.145778 
L 114.402698 124.143016 
L 115.239842 124.14894 
L 118.912808 124.152101 
L 120.273126 124.155063 
L 120.282944 124.155063 
L 120.857336 124.154431 
L 120.906392 124.154431 
L 120.95871 124.153699 
L 121.326029 124.153832 
L 121.661733 124.156261 
L 121.989215 124.154065 
L 122.015873 124.148707 
L 123.249691 124.155862 
L 123.330663 124.154398 
L 124.135792 124.155063 
L 126.140995 124.158623 
L 126.141757 124.158624 
L 126.149444 124.156428 
L 126.206754 124.157227 
L 126.209574 124.157264 
L 126.423611 124.160089 
L 126.513004 124.160055 
L 127.037242 124.160588 
L 127.580052 124.159656 
L 129.929707 124.15716 
L 131.067776 124.160555 
L 131.721777 124.160322 
L 132.999259 124.162551 
L 133.150753 124.161054 
L 133.945398 124.165048 
L 133.974818 124.16355 
L 134.008631 124.162052 
L 134.1972 124.159856 
L 135.1471 124.163916 
L 135.369715 124.16954 
L 135.855448 124.164182 
L 136.752897 124.160987 
L 136.794332 124.164815 
L 137.557892 124.162884 
L 138.524166 124.166013 
L 140.735374 124.167876 
L 140.897784 124.172436 
L 145.470095 124.183651 
L 147.005038 124.166945 
L 147.107509 124.169174 
L 147.287458 124.172702 
L 148.332874 124.170239 
L 149.018424 124.170306 
L 149.885355 124.172203 
L 150.40783 124.168808 
L 151.989265 124.174932 
L 152.662169 124.179258 
L 153.483672 124.179225 
L 153.597159 124.17633 
L 153.750883 124.177128 
L 154.011571 124.178593 
L 154.582836 124.181022 
L 154.699485 124.181056 
L 155.889106 124.176296 
L 156.071884 124.181056 
L 160.086909 124.173501 
L 160.224292 124.18029 
L 160.628786 124.181688 
L 161.47485 124.180823 
L 161.588238 124.183851 
L 163.099384 124.18039 
L 167.107221 124.183552 
L 167.361519 124.183518 
L 167.362784 124.18232 
L 167.751004 124.187445 
L 168.734184 124.174965 
L 171.065336 124.186414 
L 171.83542 124.187678 
L 175.68707 124.18728 
L 175.692261 124.187279 
L 176.106243 124.188023 
L 177.321521 124.190208 
L 178.394527 124.187812 
L 178.599503 124.190108 
L 178.741811 124.191306 
L 179.067164 124.193969 
L 182.936386 124.200092 
L 183.228625 124.204718 
L 183.268928 124.210675 
L 183.55248 124.211641 
L 183.580835 124.210875 
L 187.039905 124.225219 
L 187.663653 124.226151 
L 188.008242 124.225485 
L 189.052959 124.230111 
L 189.115127 124.229313 
L 189.924116 124.232308 
L 190.428087 124.236668 
L 192.542547 124.24399 
L 193.86416 124.248249 
L 196.7091 124.253242 
L 196.716752 124.253311 
L 198.093979 124.265855 
L 201.032139 124.277769 
L 201.062158 124.277071 
L 201.067782 124.277769 
L 201.116206 124.277836 
L 202.107873 124.278701 
L 202.943154 124.277304 
L 203.643281 124.273543 
L 205.66602 124.272345 
L 206.410843 124.272145 
L 209.593816 124.29614 
L 209.689864 124.296839 
L 212.651653 124.296673 
L 213.173995 124.295342 
L 213.409589 124.295475 
L 214.52536 124.298936 
L 214.53155 124.298936 
L 215.42677 124.300134 
L 216.112453 124.303396 
L 216.555221 124.302397 
L 216.811549 124.30263 
L 217.427942 124.30689 
L 218.608611 124.306524 
L 218.628479 124.306591 
L 218.895658 124.305026 
L 218.931368 124.305293 
L 222.598875 124.303629 
L 222.915176 124.302763 
L 225.814385 124.31074 
L 225.818124 124.310751 
L 229.151692 124.324862 
L 229.18657 124.324862 
L 235.178921 124.352606 
L 238.473569 124.367861 
L 242.413128 124.40007 
L 245.491185 124.425237 
L 253.108753 124.435853 
L 253.141801 124.43592 
L 256.939869 124.43602 
L 259.013694 124.438815 
L 259.017033 124.438836 
L 259.722873 124.443308 
L 259.992954 124.444104 
L 260.660559 124.44607 
L 266.456172 124.464408 
L 266.706943 124.462212 
L 269.381019 124.463576 
L 274.509352 124.466704 
L 275.293547 124.465173 
L 275.296576 124.465173 
L 276.196887 124.471597 
L 276.527199 124.470698 
L 281.954227 124.473494 
L 282.177707 124.472728 
L 284.968666 124.470598 
L 284.969302 124.470597 
L 284.969744 124.470596 
L 287.742152 124.466039 
L 288.638536 124.45915 
L 289.132256 124.44231 
L 291.915261 124.462578 
L 292.555416 124.467536 
L 292.612293 124.451994 
L 296.092649 124.456833 
L 299.052022 124.460947 
L 299.506305 124.446769 
L 302.507964 124.448433 
L 303.195777 124.451462 
L 303.886387 124.456654 
L 304.579592 124.464708 
L 305.270867 124.461746 
L 305.642047 124.465273 
L 305.965203 124.468335 
L 306.648624 124.466671 
L 307.088762 124.467137 
L 307.060606 124.766298 
L 307.067296 124.938759 
L 307.077779 124.989146 
L 306.992581 125.076641 
L 306.977005 125.118209 
L 306.993512 125.244875 
L 307.02656 125.277923 
L 307.063868 125.326779 
L 306.969084 125.460635 
L 306.934239 125.543537 
L 306.942959 125.683483 
L 306.935371 125.932889 
L 306.91903 126.037091 
L 306.833099 126.083651 
L 306.789934 126.423081 
L 306.815893 126.577104 
L 306.72284 126.744507 
L 306.73116 126.804612 
L 306.778851 126.918033 
L 306.727832 127.53386 
L 306.660372 127.638794 
L 306.627424 127.705855 
L 306.629088 127.866335 
L 306.554007 128.108885 
L 306.442682 128.30178 
L 306.309293 128.420892 
L 306.105515 128.50649 
L 305.989432 128.575448 
L 305.817736 128.757095 
L 305.626105 128.999146 
L 305.463329 129.153169 
L 305.274195 129.265625 
L 305.036171 129.370093 
L 304.955265 129.426171 
L 304.900418 129.493665 
L 304.864275 129.595304 
L 304.660131 129.843412 
L 304.590907 129.960927 
L 304.558991 130.119709 
L 304.483909 130.303719 
L 304.141617 130.738432 
L 303.796528 131.008905 
L 303.461391 131.220104 
L 302.976856 131.433268 
L 302.180348 131.711828 
L 301.051165 132.243821 
L 300.875975 132.336807 
L 300.648867 132.597229 
L 300.525994 132.711682 
L 299.218393 133.349441 
L 298.35296 133.821729 
L 298.31076 133.858238 
L 298.136668 133.9032 
L 298.033165 133.972025 
L 297.867526 134.116929 
L 297.752208 134.306996 
L 297.505598 134.978302 
L 297.479938 135.130462 
L 297.337996 135.323457 
L 297.301587 135.425928 
L 297.438204 135.54757 
L 297.57805 135.659493 
L 297.748115 135.811553 
L 297.760662 135.823933 
L 298.043748 136.085986 
L 299.157456 137.108205 
L 299.253471 137.147775 
L 299.428594 137.264291 
L 299.727355 137.577929 
L 299.854721 137.755249 
L 300.379093 138.239751 
L 300.535146 138.456708 
L 300.792274 138.880439 
L 301.037819 139.328098 
L 301.097858 139.470307 
L 301.104414 139.596441 
L 301.136929 139.66054 
L 301.272149 139.834399 
L 301.325698 140.058179 
L 301.462082 140.325689 
L 301.506778 140.382833 
L 301.744603 140.567141 
L 302.192695 141.051443 
L 302.4849 141.406982 
L 302.799903 141.70348 
L 303.092374 141.895909 
L 303.202167 141.931087 
L 303.368804 141.940506 
L 303.540067 141.929556 
L 303.807744 141.980609 
L 304.285989 141.943501 
L 304.52774 141.97342 
L 304.841245 141.973054 
L 305.289803 142.011194 
L 305.840467 142.174636 
L 306.386804 142.423443 
L 306.582661 142.53693 
L 306.832766 142.617603 
L 307.139682 142.743437 
L 307.677798 142.911173 
L 307.885836 142.934868 
L 308.177975 142.996205 
L 308.482727 143.091055 
L 308.937176 143.351078 
L 309.141054 143.429587 
L 309.57174 143.709212 
L 309.788365 144.068578 
L 309.895961 144.289196 
L 310.193366 144.723128 
L 310.231332 144.778523 
L 310.247639 144.924193 
L 310.271901 144.988924 
L 310.317928 145.037414 
L 310.475479 145.146509 
L 310.612896 145.355312 
L 310.640852 145.487037 
L 310.735602 145.557127 
L 310.769781 145.671313 
L 310.778967 146.131752 
L 310.773708 146.638319 
L 310.773756 146.642779 
L 310.794808 148.637595 
L 310.800233 148.775277 
L 310.7999 148.833186 
L 310.795175 149.650095 
L 310.793544 151.463631 
L 310.791381 151.510024 
L 310.804427 152.426544 
L 310.798003 152.469875 
L 310.798303 153.875455 
L 310.799401 153.922614 
L 310.797305 154.183469 
L 310.802229 156.34184 
L 310.80223 156.342459 
L 310.793743 156.83305 
L 310.803728 158.564948 
L 310.810184 158.698837 
L 310.804992 159.251031 
L 310.819951 162.063606 
L 310.819969 162.066984 
L 310.810983 162.325808 
L 310.809019 162.505258 
L 310.811183 162.566095 
L 310.817939 163.041345 
L 310.825926 163.520688 
L 310.819503 163.563221 
L 310.830852 164.965506 
L 310.820501 165.472705 
L 310.813262 167.861778 
L 310.813246 167.866956 
L 310.814611 167.883131 
L 310.809019 170.766909 
L 310.805618 170.780862 
L 310.804759 170.784382 
L 310.797438 171.338906 
L 310.804959 171.669783 
L 310.806157 172.005254 
L 310.801232 173.130343 
L 310.798037 173.202562 
L 310.811416 173.551045 
L 310.807821 174.178488 
L 310.802862 175.904395 
L 310.800832 176.104446 
L 310.798203 176.887542 
L 310.795907 177.063664 
L 310.795141 177.380663 
L 310.800233 177.484266 
L 310.797038 177.53675 
L 310.795008 177.954357 
L 310.792911 178.024347 
L 310.797038 178.44465 
L 310.793011 178.487615 
L 310.797338 178.93411 
L 310.794176 178.98889 
L 310.788652 179.365695 
L 310.784758 179.465038 
L 310.793144 179.822141 
L 310.793011 179.922149 
L 310.791347 180.377863 
L 310.782894 180.400693 
L 310.779533 182.320761 
L 310.779523 182.324589 
L 310.765788 187.59726 
L 310.761594 187.661159 
L 310.758532 188.027814 
L 310.759597 188.083359 
L 310.770247 188.577812 
L 310.768151 188.644739 
L 310.762127 189.0492 
L 310.761095 189.110836 
L 310.763258 189.529974 
L 310.759065 189.603758 
L 310.762293 189.965853 
L 310.76652 189.987152 
L 310.762393 190.510526 
L 310.760296 190.566837 
L 310.765921 192.912199 
L 310.761894 192.914429 
L 310.760862 192.966147 
L 310.763225 193.878872 
L 310.763238 193.882137 
L 310.763239 193.882294 
L 310.769082 195.359234 
L 310.762659 195.814781 
L 310.759364 199.202697 
L 310.758433 199.689561 
L 310.759131 201.854941 
L 310.760163 201.934815 
L 310.759265 202.579164 
L 310.760296 202.617204 
L 310.763358 205.500982 
L 306.172176 205.496856 
L 305.915415 205.498753 
L 305.915385 205.499284 
L 305.906962 205.646719 
L 305.933121 205.677903 
L 306.055394 205.736477 
L 306.156767 205.701432 
L 306.197503 205.703729 
L 306.33655 205.810194 
L 306.377319 205.85053 
L 306.512173 206.133517 
L 306.333555 206.237785 
L 306.37439 206.474412 
L 306.392162 206.525364 
L 306.28147 206.682849 
L 305.87844 206.942373 
L 305.784555 207.147815 
L 305.792942 207.189682 
L 306.070969 207.705401 
L 306.115865 207.738116 
L 306.225202 207.770453 
L 306.282968 207.787538 
L 306.480256 207.769999 
L 306.705734 207.785175 
L 306.870706 207.890176 
L 306.890542 207.925919 
L 306.851936 208.051454 
L 306.759049 208.202116 
L 306.928116 208.269044 
L 307.120179 208.416644 
L 307.291309 208.615996 
L 307.443668 208.705022 
L 307.972566 209.006346 
L 308.17082 208.988141 
L 308.205265 208.961517 
L 308.205265 208.923477 
L 308.237614 208.91742 
L 308.36072 208.964612 
L 308.407612 209.016363 
L 308.489882 209.319951 
L 308.499034 209.642541 
L 308.498169 209.687137 
L 308.468882 209.775664 
L 308.326973 209.896573 
L 308.297752 209.903396 
L 308.301813 210.098155 
L 308.321382 210.445074 
L 308.358823 210.56149 
L 308.393235 210.567613 
L 308.399458 210.598797 
L 308.145992 210.882483 
L 308.045884 210.956266 
L 308.106188 211.218718 
L 308.248763 211.618953 
L 308.357025 211.755204 
L 308.342382 211.837341 
L 308.196346 212.168984 
L 307.842072 212.318015 
L 307.441039 212.40774 
L 307.369186 212.343076 
L 307.093721 212.343042 
L 307.068194 212.343042 
L 306.907781 212.318714 
L 306.854632 212.279909 
L 306.823381 212.230454 
L 306.759815 212.197739 
L 306.533838 212.229888 
L 306.510342 212.266031 
L 306.531742 212.308098 
L 306.562726 212.332859 
L 306.575506 212.376556 
L 306.584525 212.466481 
L 306.625627 212.875668 
L 306.515268 213.008791 
L 306.449638 213.015647 
L 306.447541 212.951016 
L 306.427773 212.9396 
L 306.335119 213.024799 
L 306.371628 213.20588 
L 306.448706 213.245417 
L 306.651719 213.22485 
L 306.925553 213.412753 
L 307.072355 213.493392 
L 307.207674 213.525342 
L 307.31181 213.531432 
L 307.378538 213.50138 
L 307.436712 213.529935 
L 307.457546 213.575596 
L 307.476217 213.796979 
L 307.445166 213.924644 
L 307.238059 213.995399 
L 307.036145 214.025818 
L 306.838424 214.20154 
L 306.927916 214.448051 
L 307.196325 214.692166 
L 307.244416 214.695261 
L 307.300261 214.673562 
L 307.333675 214.6284 
L 307.379469 214.6071 
L 307.604214 214.60254 
L 307.713442 214.635289 
L 307.873656 214.642943 
L 308.018327 214.578312 
L 308.313727 214.697091 
L 308.472843 214.800628 
L 308.510217 214.891151 
L 308.566395 214.909456 
L 308.793203 214.880635 
L 309.182555 214.807051 
L 309.325829 214.711036 
L 309.69824 214.693364 
L 309.983357 214.76555 
L 310.020831 214.797499 
L 310.042763 214.920738 
L 310.134418 215.180894 
L 310.185404 215.257739 
L 310.180246 215.328494 
L 310.080537 215.539261 
L 310.07864 215.837523 
L 310.126531 215.975971 
L 310.246108 216.013212 
L 310.301221 216.013978 
L 310.367783 216.064931 
L 310.376103 216.096115 
L 310.296362 216.694104 
L 310.293301 216.842469 
L 310.321489 217.152879 
L 310.369347 217.244934 
L 310.539778 217.378023 
L 310.577186 217.383348 
L 310.687345 217.35669 
L 310.859839 217.420589 
L 311.090475 217.700547 
L 311.114437 217.866419 
L 311.149948 218.004667 
L 311.178003 218.056518 
L 311.217474 218.095324 
L 311.318182 218.132632 
L 311.226793 218.363134 
L 310.933955 218.678103 
L 310.809385 218.810494 
L 310.521873 218.99467 
L 310.444029 219.111852 
L 310.451318 219.171923 
L 310.694234 219.221345 
L 310.721225 219.26471 
L 310.735802 219.352205 
L 310.732465 219.379423 
L 310.698494 219.656525 
L 310.598918 219.906097 
L 310.510757 220.023279 
L 310.436075 220.05829 
L 310.26591 220.095598 
L 310.207802 220.08801 
L 310.100904 220.039353 
L 309.976434 220.078192 
L 309.649717 220.30733 
L 309.602026 220.356752 
L 309.579262 220.441219 
L 309.528475 220.464049 
L 309.14964 220.535836 
L 309.033457 220.532707 
L 308.911084 220.490807 
L 308.866487 220.49307 
L 308.594417 220.754291 
L 308.631425 220.814895 
L 308.683576 220.843483 
L 308.746111 220.829306 
L 308.821592 220.825545 
L 308.903462 220.913073 
L 308.903429 220.933608 
L 308.848316 221.092623 
L 308.777961 221.157188 
L 308.772336 221.207941 
L 308.814969 221.295736 
L 308.841893 221.332278 
L 309.101017 221.495221 
L 309.234872 221.514923 
L 309.393655 221.670078 
L 309.485044 221.83129 
L 309.450998 221.98498 
L 309.396151 222.093808 
L 309.317675 222.19405 
L 309.280367 222.216149 
L 309.117025 222.251992 
L 308.963634 222.270196 
L 308.875473 222.316557 
L 308.778959 222.439762 
L 308.80169 222.526492 
L 308.800558 222.622374 
L 308.651227 222.771438 
L 308.516474 222.807148 
L 308.534013 222.898404 
L 308.677919 223.056721 
L 308.851944 223.110835 
L 309.003205 223.107907 
L 309.040479 223.12468 
L 309.10358 223.212941 
L 309.197565 223.505845 
L 309.04617 223.663329 
L 308.939272 223.867174 
L 308.89258 223.979763 
L 308.85008 224.004857 
L 308.712331 224.029118 
L 308.542399 224.15918 
L 308.357957 224.30059 
L 307.840042 224.667177 
L 307.820373 224.731076 
L 307.822403 224.794243 
L 307.868963 224.861204 
L 307.948571 225.126019 
L 307.964649 225.189842 
L 307.990937 225.294187 
L 308.009474 225.452437 
L 308.246467 225.550649 
L 308.323778 225.690261 
L 308.330634 225.753595 
L 308.284606 225.795662 
L 308.063123 225.793299 
L 307.872724 225.825947 
L 307.863405 225.852605 
L 307.928569 225.94466 
L 307.948105 226.198792 
L 307.746523 226.327289 
L 307.663787 226.332281 
L 307.632736 226.357374 
L 307.555125 226.471494 
L 307.528168 226.689117 
L 307.529166 226.70812 
L 307.658396 226.90441 
L 307.732778 227.103795 
L 307.693473 227.147926 
L 307.515588 227.224738 
L 307.418242 227.22963 
L 307.387057 227.274859 
L 307.403898 227.357861 
L 307.471091 227.417234 
L 307.258094 227.496342 
L 307.191932 227.500136 
L 307.116452 227.602108 
L 306.833132 227.573953 
L 306.552942 227.542735 
L 306.491971 227.561772 
L 306.466145 227.690369 
L 306.618139 227.854709 
L 306.614012 227.890453 
L 306.395989 228.178864 
L 306.355686 228.210081 
L 306.177967 228.299141 
L 306.046708 228.283199 
L 306.012595 228.309824 
L 306.024044 228.463515 
L 306.140826 228.480221 
L 306.182161 228.511406 
L 306.187352 228.535767 
L 306.129577 228.773159 
L 306.036724 229.044064 
L 305.79404 229.217623 
L 305.753804 229.352311 
L 305.728011 229.375141 
L 305.361257 229.309844 
L 305.231096 229.341861 
L 305.151721 229.500909 
L 305.000926 229.691841 
L 304.870965 229.779469 
L 304.810028 229.780202 
L 304.775882 229.864668 
L 304.807698 230.09141 
L 304.923216 230.223867 
L 304.865174 230.461958 
L 304.804303 230.619609 
L 304.685425 230.773999 
L 304.558359 230.904825 
L 304.594402 230.976379 
L 304.81705 231.303695 
L 305.003888 231.274907 
L 305.05757 231.290017 
L 305.066157 231.662861 
L 304.973403 231.807533 
L 304.888737 231.843975 
L 304.860781 231.942886 
L 304.893795 231.968778 
L 305.229565 232.132287 
L 305.541273 232.319358 
L 305.999383 232.52084 
L 306.15923 232.53525 
L 306.358316 232.568697 
L 306.701806 232.715499 
L 306.942127 232.929294 
L 306.98852 232.939245 
L 307.192664 233.163691 
L 307.649376 233.420186 
L 307.753512 233.42398 
L 307.797842 233.445313 
L 307.947239 233.621867 
L 307.956458 233.730695 
L 307.92757 233.866115 
L 307.947106 233.920895 
L 308.08622 234.017576 
L 308.317022 234.096018 
L 308.664074 234.453753 
L 308.696955 234.546607 
L 308.678052 234.634834 
L 308.892713 235.042989 
L 309.052926 235.300216 
L 309.201725 235.66281 
L 309.199728 235.708571 
L 309.16009 235.77916 
L 309.173303 235.824522 
L 309.211642 235.848084 
L 309.31458 235.877505 
L 309.38164 235.941204 
L 309.385002 235.998214 
L 309.355249 236.041679 
L 309.338742 236.103248 
L 309.359243 236.149775 
L 309.493963 236.231346 
L 309.653578 236.263329 
L 309.680535 236.298639 
L 309.675842 236.347795 
L 309.645291 236.391925 
L 309.562987 236.438452 
L 309.241196 236.770195 
L 309.384236 236.906213 
L 309.97487 236.928378 
L 309.974537 237.249371 
L 309.949677 237.610101 
L 309.879787 237.809786 
L 309.906412 237.916284 
L 309.876459 237.989502 
L 309.513932 238.118099 
L 309.441779 238.219572 
L 309.537661 238.380684 
L 309.753886 238.450441 
L 309.893931 238.424049 
L 309.958163 238.475601 
L 310.095114 238.677016 
L 310.660587 239.045068 
L 311.021351 239.106571 
L 310.54873 239.25943 
L 310.350311 239.35611 
L 310.021031 239.459148 
L 309.913634 239.472493 
L 309.557363 239.456618 
L 309.163851 239.368857 
L 309.017982 239.303161 
L 308.922033 239.237664 
L 308.67895 238.985429 
L 308.623505 238.897834 
L 308.583734 238.766808 
L 308.519469 238.636281 
L 308.37107 238.454135 
L 308.250893 238.352995 
L 308.15561 238.289861 
L 307.941948 238.191317 
L 307.584013 238.11091 
L 307.285019 238.116468 
L 306.948184 238.19977 
L 306.794626 238.270991 
L 306.400649 238.534009 
L 306.175238 238.614681 
L 306.013127 238.64094 
L 305.76432 238.646298 
L 305.584105 238.621071 
L 305.497375 238.592117 
L 305.015836 238.342911 
L 304.941919 238.230189 
L 304.831594 237.985375 
L 304.7854 237.830021 
L 304.770058 237.730278 
L 304.77079 237.456477 
L 304.703929 237.209235 
L 304.613971 237.065462 
L 304.429063 236.877625 
L 304.277768 236.768697 
L 303.92436 236.584022 
L 303.351997 236.411827 
L 303.171715 236.315779 
L 303.026045 236.200694 
L 302.641087 235.785749 
L 302.338132 235.486189 
L 302.24215 235.341751 
L 302.185739 235.196147 
L 302.167402 234.975496 
L 302.175189 234.8884 
L 302.235993 234.73674 
L 302.309045 234.624084 
L 302.656429 234.21543 
L 302.797972 234.06753 
L 302.914987 233.999604 
L 302.958086 233.936004 
L 302.98491 233.809837 
L 302.981582 233.732958 
L 302.962046 233.698579 
L 302.842236 233.596274 
L 302.630237 233.498329 
L 301.619001 233.240769 
L 301.371525 233.231384 
L 300.989163 233.262701 
L 300.908523 233.279009 
L 300.846388 233.324703 
L 300.419695 233.403745 
L 299.949704 233.370198 
L 299.448629 233.269324 
L 299.265352 233.195474 
L 299.19077 233.145054 
L 299.151099 233.062551 
L 299.217161 232.659554 
L 299.207443 232.389314 
L 299.168605 232.179379 
L 299.016478 232.000328 
L 298.786009 231.92568 
L 298.576207 231.879852 
L 298.240005 231.857654 
L 297.778567 231.738409 
L 297.56101 231.638234 
L 297.212228 231.446437 
L 296.801111 231.336643 
L 296.333316 231.299169 
L 295.669298 231.013687 
L 295.213452 231.092496 
L 295.091577 231.129271 
L 294.888864 231.2586 
L 294.671674 231.358875 
L 294.527302 231.420744 
L 294.268012 231.490766 
L 294.036377 231.500318 
L 293.846211 231.478253 
L 293.781147 231.451562 
L 293.739713 231.391257 
L 293.70966 231.322133 
L 293.704535 231.236801 
L 293.855696 230.921532 
L 293.86984 230.837665 
L 293.857726 230.786612 
L 293.603128 230.332163 
L 293.388168 230.197609 
L 293.262333 230.138735 
L 293.159928 230.123293 
L 292.806387 230.159003 
L 292.040764 230.088512 
L 291.740404 230.060858 
L 291.562718 230.018192 
L 291.461544 229.945241 
L 290.83084 229.802699 
L 290.384479 229.736071 
L 290.176241 229.732211 
L 289.926402 229.76213 
L 289.723156 229.806893 
L 289.368217 229.830888 
L 289.197254 229.819007 
L 288.852565 229.829224 
L 288.196634 229.744724 
L 288.092465 229.659359 
L 288.004604 229.511659 
L 288.007034 229.444066 
L 287.967496 229.362029 
L 287.755198 229.139547 
L 287.549922 228.958067 
L 287.23081 228.819372 
L 287.114144 228.768666 
L 287.010275 228.741043 
L 286.840376 228.713154 
L 286.627213 228.703003 
L 286.323959 228.649587 
L 285.896933 228.627955 
L 285.753992 228.594008 
L 285.574276 228.501122 
L 285.523423 228.454928 
L 285.475832 228.377617 
L 285.446777 228.140125 
L 285.410102 228.045808 
L 285.317881 227.886426 
L 285.303271 227.826687 
L 285.331826 227.362154 
L 285.284767 227.284643 
L 284.848655 227.102032 
L 284.651001 227.041993 
L 284.295296 226.967211 
L 284.188531 226.96568 
L 284.022527 227.016234 
L 283.649982 227.060497 
L 282.920701 226.96345 
L 282.514143 226.625285 
L 282.360985 226.560587 
L 282.288566 226.570471 
L 282.214083 226.619926 
L 281.98195 226.705591 
L 281.769253 226.747159 
L 281.706319 226.770755 
L 281.634332 226.830261 
L 281.55985 226.866703 
L 281.379901 226.920086 
L 281.212665 226.950704 
L 280.600698 226.986181 
L 280.526981 226.975964 
L 280.298709 226.866271 
L 280.075927 226.714111 
L 280.030732 226.64076 
L 279.45594 226.67221 
L 279.27832 226.652741 
L 279.10729 226.555728 
L 278.978394 226.536292 
L 278.808429 226.569007 
L 278.687154 226.616698 
L 278.483342 226.774782 
L 278.420209 226.87286 
L 278.405033 226.924878 
L 278.19177 227.095142 
L 277.953379 227.242643 
L 277.848046 227.27213 
L 277.518633 227.277987 
L 277.378654 227.2484 
L 277.299146 227.202307 
L 277.202832 227.173885 
L 276.907864 227.131319 
L 276.428887 227.134214 
L 276.210266 227.09238 
L 276.052515 227.038931 
L 275.957399 226.973501 
L 275.915698 226.906174 
L 275.765735 226.86434 
L 275.396285 227.021592 
L 274.866488 227.142967 
L 274.347109 227.212091 
L 273.866035 227.227933 
L 273.445932 227.15801 
L 272.868011 227.018763 
L 272.623598 226.939155 
L 272.473768 226.869266 
L 272.205891 226.868001 
L 271.924169 226.926875 
L 271.420442 227.098245 
L 271.044126 227.226269 
L 270.67381 227.325312 
L 270.326093 227.378395 
L 269.719984 227.39823 
L 269.236614 227.352902 
L 268.590301 227.231693 
L 267.595439 227.163335 
L 267.480354 227.179343 
L 267.116629 227.176414 
L 266.79294 227.153983 
L 266.32681 227.034139 
L 265.898087 226.880115 
L 265.781794 226.852186 
L 265.374547 226.754381 
L 265.084039 226.562983 
L 264.994447 226.520883 
L 264.805546 226.520983 
L 264.436196 226.55626 
L 264.013963 226.644155 
L 263.756436 226.718471 
L 263.435277 226.85612 
L 263.380097 227.000226 
L 263.383958 227.057835 
L 263.425093 227.136244 
L 263.418503 227.222175 
L 263.314434 227.357029 
L 263.284415 227.632527 
L 263.118477 227.937512 
L 262.995405 228.236373 
L 262.939526 228.307528 
L 262.801444 228.421714 
L 262.448302 228.848041 
L 262.315778 228.979932 
L 262.084011 229.146602 
L 261.901399 229.198154 
L 261.517739 229.535921 
L 261.392803 229.617425 
L 260.945809 229.821603 
L 260.834484 229.840872 
L 260.549867 229.851922 
L 260.032551 229.811485 
L 259.536035 229.971633 
L 259.275081 230.033368 
L 259.202395 230.033102 
L 259.095664 230.00305 
L 258.852481 230.065218 
L 258.713301 230.061491 
L 258.120704 230.001785 
L 258.05148 229.951231 
L 257.888504 229.898248 
L 257.799411 229.874519 
L 257.568576 229.849891 
L 257.402139 229.782931 
L 257.295208 229.716669 
L 257.248082 229.544208 
L 257.192869 229.438874 
L 257.043938 229.317732 
L 256.531614 228.998802 
L 256.363979 228.950645 
L 256.139167 228.833497 
L 255.802166 228.528445 
L 255.702723 228.456625 
L 255.043731 228.140658 
L 254.992179 228.104016 
L 254.696845 227.721287 
L 254.396619 227.48516 
L 254.359112 227.478836 
L 254.192074 227.510372 
L 253.853178 227.574352 
L 253.711368 227.581607 
L 253.59189 227.575317 
L 252.971137 227.425088 
L 252.480546 227.251462 
L 251.970684 227.041394 
L 251.824082 226.962718 
L 251.748169 226.888802 
L 251.56812 226.775714 
L 251.07197 226.534195 
L 250.972461 226.41951 
L 250.906232 226.386861 
L 250.691039 226.334743 
L 250.355336 226.342664 
L 249.967814 226.314575 
L 249.386799 226.146075 
L 248.977309 226.062851 
L 248.653024 225.996944 
L 248.441658 225.931713 
L 248.315224 225.867115 
L 248.22337 225.798557 
L 248.187626 225.764245 
L 248.109449 225.627061 
L 248.038095 225.556972 
L 247.891061 225.454234 
L 247.763862 225.391001 
L 247.370583 225.232285 
L 246.79446 225.04538 
L 246.425476 224.869824 
L 245.997718 224.734771 
L 245.713966 224.625443 
L 245.284112 224.419968 
L 245.099503 224.41411 
L 244.944848 224.433946 
L 244.826069 224.509726 
L 244.733482 224.537482 
L 244.651677 224.544072 
L 244.505176 224.509227 
L 244.448066 224.463366 
L 244.408595 224.313702 
L 244.366594 224.270071 
L 244.236433 224.204808 
L 244.026931 224.038903 
L 243.92183 224.003858 
L 243.732696 223.899723 
L 243.34787 223.367796 
L 242.963011 222.888254 
L 242.787821 222.55265 
L 242.694535 222.20227 
L 240.480632 222.207595 
L 240.352035 222.203036 
L 237.197817 222.206131 
L 237.13455 222.203069 
L 234.57922 222.209492 
L 233.847575 222.210158 
L 232.61865 222.212887 
L 231.863675 222.210591 
L 229.335835 222.216847 
L 229.229003 222.210724 
L 228.69711 222.212854 
L 228.693849 222.212887 
L 227.267867 222.211389 
L 225.99358 222.211822 
L 225.276746 222.20876 
L 225.263733 222.21302 
L 223.343066 222.209026 
L 223.280865 222.211323 
L 221.481007 222.21089 
L 221.37837 222.204001 
L 220.975739 222.209459 
L 220.634777 222.205432 
L 219.509521 222.217347 
L 218.202818 222.211556 
L 217.542694 222.216315 
L 217.537461 222.216255 
L 217.262703 222.21312 
L 216.419535 222.215849 
L 214.448049 222.213686 
L 213.737671 222.216248 
L 213.654702 222.217813 
L 213.549967 222.219343 
L 212.841087 222.21525 
L 210.318904 222.222006 
L 210.213138 222.218212 
L 209.671759 222.216149 
L 209.555643 222.216981 
L 208.232324 222.219557 
L 208.188203 222.219643 
L 207.059918 222.221074 
L 202.734849 222.224901 
L 202.661232 222.221107 
L 202.071131 222.224269 
L 201.817831 222.224502 
L 201.27369 222.223836 
L 200.428825 222.216748 
L 199.772428 222.220375 
L 199.371095 222.22184 
L 199.270521 222.218778 
L 199.069339 222.214984 
L 198.653495 222.221074 
L 197.716009 222.215217 
L 197.386264 222.222172 
L 197.055453 222.217779 
L 196.795463 222.217779 
L 195.440803 222.219011 
L 195.133156 222.217147 
L 194.375486 222.211389 
L 194.358512 222.211223 
L 194.016286 222.209759 
L 192.566809 222.207862 
L 191.799421 222.206797 
L 191.580633 222.206763 
L 188.75483 222.197977 
L 188.517538 222.197278 
L 188.501929 222.197245 
L 186.121821 222.202868 
L 186.121799 222.202868 
L 186.12109 222.202869 
L 183.479961 222.198476 
L 183.282939 222.195381 
L 181.0919 222.19628 
L 180.896941 222.195614 
L 176.991909 222.178042 
L 174.942046 222.187061 
L 174.619789 222.194449 
L 174.316501 222.196912 
L 171.910867 222.201472 
L 171.700732 222.217846 
L 163.854958 222.212055 
L 163.175198 222.224868 
L 162.548987 222.223903 
L 160.830002 222.227697 
L 160.636141 222.224702 
L 159.43008 222.23655 
L 158.008392 222.222239 
L 151.906463 222.224202 
L 151.894515 222.224369 
L 151.856064 222.225056 
L 151.816305 222.225767 
L 151.778964 222.224269 
L 142.789862 222.250361 
L 138.629766 222.279548 
L 135.696099 222.266835 
L 131.156303 222.176678 
L 123.41839 222.175779 
L 123.416394 222.175779 
L 111.501846 222.167359 
L 109.944905 222.169023 
L 99.801526 222.155012 
L 92.86253 222.138606 
L 88.498412 222.128287 
L 88.457976 222.128254 
L 81.539769 222.125092 
L 79.41812 222.129818 
L 76.072704 222.128721 
L 76.068744 222.12872 
L 76.037726 222.128687 
L 76.024247 222.128687 
L 73.702148 222.127489 
L 73.680949 222.129519 
L 72.30419 222.131748 
L 71.153174 222.107454 
L 69.084275 222.121631 
L 65.794305 222.108485 
L 65.739924 222.11178 
L 62.100739 222.123794 
L 60.724612 222.097503 
L 59.899016 222.098068 
L 57.833945 222.134877 
L 57.809017 212.509546 
L 57.808751 212.268394 
L 57.797635 212.024679 
L 57.791478 211.307678 
L 57.784456 209.143263 
L 57.779397 207.879759 
L 57.778958 206.252292 
L 57.778732 205.411723 
L 57.778694 205.403206 
L 57.770545 203.563609 
L 57.776935 202.872534 
L 57.775437 202.734618 
L 57.774871 202.723303 
L 57.767183 197.290118 
L 57.767017 197.179759 
L 57.76575 196.806613 
L 57.755369 193.749976 
L 57.769047 190.985742 
L 57.773274 190.93399 
L 57.786183 184.178295 
L 57.788683 182.870359 
L 57.758663 180.553951 
L 57.740758 171.643125 
L 57.741923 170.790772 
L 57.742434 169.869735 
L 57.744652 165.865151 
L 57.740392 165.780685 
L 57.745751 165.561531 
L 57.742655 164.797538 
L 57.740525 164.78762 
L 57.73956 163.315212 
L 57.73956 163.306093 
L 57.721822 160.01802 
L 57.741191 159.753371 
L 57.681818 155.678308 
" clip-path="url(#p9f83ee22a2)" style="fill: #79008a"/>
   </g>
   <g id="PathCollection_1">
    <defs>
     <path id="mab6979f7f0" d="M 0 1.581139 
C 0.419323 1.581139 0.821528 1.41454 1.118034 1.118034 
C 1.41454 0.821528 1.581139 0.419323 1.581139 0 
C 1.581139 -0.419323 1.41454 -0.821528 1.118034 -1.118034 
C 0.821528 -1.41454 0.419323 -1.581139 0 -1.581139 
C -0.419323 -1.581139 -0.821528 -1.41454 -1.118034 -1.118034 
C -1.41454 -0.821528 -1.581139 -0.419323 -1.581139 0 
C -1.581139 0.419323 -1.41454 0.821528 -1.118034 1.118034 
C -0.821528 1.41454 -0.419323 1.581139 0 1.581139 
z
" style="stroke: #000000"/>
    </defs>
    <g clip-path="url(#p9f83ee22a2)">
     <use xlink:href="#mab6979f7f0" x="181.196501" y="176.658504" style="stroke: #000000"/>
    </g>
   </g>
   <g id="text_1">
    <!-- Pierre -->
    <g transform="translate(184.196501 173.658504) scale(0.1 -0.1)">
     <defs>
      <path id="DejaVuSans-50" d="M 1259 4147 
L 1259 2394 
L 2053 2394 
Q 2494 2394 2734 2622 
Q 2975 2850 2975 3272 
Q 2975 3691 2734 3919 
Q 2494 4147 2053 4147 
L 1259 4147 
z
M 628 4666 
L 2053 4666 
Q 2838 4666 3239 4311 
Q 3641 3956 3641 3272 
Q 3641 2581 3239 2228 
Q 2838 1875 2053 1875 
L 1259 1875 
L 1259 0 
L 628 0 
L 628 4666 
z
" transform="scale(0.015625)"/>
      <path id="DejaVuSans-69" d="M 603 3500 
L 1178 3500 
L 1178 0 
L 603 0 
L 603 3500 
z
M 603 4863 
L 1178 4863 
L 1178 4134 
L 603 4134 
L 603 4863 
z
" transform="scale(0.015625)"/>
      <path id="DejaVuSans-65" d="M 3597 1894 
L 3597 1613 
L 953 1613 
Q 991 1019 1311 708 
Q 1631 397 2203 397 
Q 2534 397 2845 478 
Q 3156 559 3463 722 
L 3463 178 
Q 3153 47 2828 -22 
Q 2503 -91 2169 -91 
Q 1331 -91 842 396 
Q 353 884 353 1716 
Q 353 2575 817 3079 
Q 1281 3584 2069 3584 
Q 2775 3584 3186 3129 
Q 3597 2675 3597 1894 
z
M 3022 2063 
Q 3016 2534 2758 2815 
Q 2500 3097 2075 3097 
Q 1594 3097 1305 2825 
Q 1016 2553 972 2059 
L 3022 2063 
z
" transform="scale(0.015625)"/>
      <path id="DejaVuSans-72" d="M 2631 2963 
Q 2534 3019 2420 3045 
Q 2306 3072 2169 3072 
Q 1681 3072 1420 2755 
Q 1159 2438 1159 1844 
L 1159 0 
L 581 0 
L 581 3500 
L 1159 3500 
L 1159 2956 
Q 1341 3275 1631 3429 
Q 1922 3584 2338 3584 
Q 2397 3584 2469 3576 
Q 2541 3569 2628 3553 
L 2631 2963 
z
" transform="scale(0.015625)"/>
     </defs>
     <use xlink:href="#DejaVuSans-50"/>
     <use xlink:href="#DejaVuSans-69" x="58.052734"/>
     <use xlink:href="#DejaVuSans-65" x="85.835938"/>
     <use xlink:href="#DejaVuSans-72" x="147.359375"/>
     <use xlink:href="#DejaVuSans-72" x="186.722656"/>
     <use xlink:href="#DejaVuSans-65" x="225.585938"/>
    </g>
   </g>
   <g id="text_2">
    <!-- South Dakota -->
    <g transform="translate(143.901563 112.360258) scale(0.12 -0.12)">
     <defs>
      <path id="DejaVuSans-53" d="M 3425 4513 
L 3425 3897 
Q 3066 4069 2747 4153 
Q 2428 4238 2131 4238 
Q 1616 4238 1336 4038 
Q 1056 3838 1056 3469 
Q 1056 3159 1242 3001 
Q 1428 2844 1947 2747 
L 2328 2669 
Q 3034 2534 3370 2195 
Q 3706 1856 3706 1288 
Q 3706 609 3251 259 
Q 2797 -91 1919 -91 
Q 1588 -91 1214 -16 
Q 841 59 441 206 
L 441 856 
Q 825 641 1194 531 
Q 1563 422 1919 422 
Q 2459 422 2753 634 
Q 3047 847 3047 1241 
Q 3047 1584 2836 1778 
Q 2625 1972 2144 2069 
L 1759 2144 
Q 1053 2284 737 2584 
Q 422 2884 422 3419 
Q 422 4038 858 4394 
Q 1294 4750 2059 4750 
Q 2388 4750 2728 4690 
Q 3069 4631 3425 4513 
z
" transform="scale(0.015625)"/>
      <path id="DejaVuSans-6f" d="M 1959 3097 
Q 1497 3097 1228 2736 
Q 959 2375 959 1747 
Q 959 1119 1226 758 
Q 1494 397 1959 397 
Q 2419 397 2687 759 
Q 2956 1122 2956 1747 
Q 2956 2369 2687 2733 
Q 2419 3097 1959 3097 
z
M 1959 3584 
Q 2709 3584 3137 3096 
Q 3566 2609 3566 1747 
Q 3566 888 3137 398 
Q 2709 -91 1959 -91 
Q 1206 -91 779 398 
Q 353 888 353 1747 
Q 353 2609 779 3096 
Q 1206 3584 1959 3584 
z
" transform="scale(0.015625)"/>
      <path id="DejaVuSans-75" d="M 544 1381 
L 544 3500 
L 1119 3500 
L 1119 1403 
Q 1119 906 1312 657 
Q 1506 409 1894 409 
Q 2359 409 2629 706 
Q 2900 1003 2900 1516 
L 2900 3500 
L 3475 3500 
L 3475 0 
L 2900 0 
L 2900 538 
Q 2691 219 2414 64 
Q 2138 -91 1772 -91 
Q 1169 -91 856 284 
Q 544 659 544 1381 
z
M 1991 3584 
L 1991 3584 
z
" transform="scale(0.015625)"/>
      <path id="DejaVuSans-74" d="M 1172 4494 
L 1172 3500 
L 2356 3500 
L 2356 3053 
L 1172 3053 
L 1172 1153 
Q 1172 725 1289 603 
Q 1406 481 1766 481 
L 2356 481 
L 2356 0 
L 1766 0 
Q 1100 0 847 248 
Q 594 497 594 1153 
L 594 3053 
L 172 3053 
L 172 3500 
L 594 3500 
L 594 4494 
L 1172 4494 
z
" transform="scale(0.015625)"/>
      <path id="DejaVuSans-68" d="M 3513 2113 
L 3513 0 
L 2938 0 
L 2938 2094 
Q 2938 2591 2744 2837 
Q 2550 3084 2163 3084 
Q 1697 3084 1428 2787 
Q 1159 2491 1159 1978 
L 1159 0 
L 581 0 
L 581 4863 
L 1159 4863 
L 1159 2956 
Q 1366 3272 1645 3428 
Q 1925 3584 2291 3584 
Q 2894 3584 3203 3211 
Q 3513 2838 3513 2113 
z
" transform="scale(0.015625)"/>
      <path id="DejaVuSans-20" transform="scale(0.015625)"/>
      <path id="DejaVuSans-44" d="M 1259 4147 
L 1259 519 
L 2022 519 
Q 2988 519 3436 956 
Q 3884 1394 3884 2338 
Q 3884 3275 3436 3711 
Q 2988 4147 2022 4147 
L 1259 4147 
z
M 628 4666 
L 1925 4666 
Q 3281 4666 3915 4102 
Q 4550 3538 4550 2338 
Q 4550 1131 3912 565 
Q 3275 0 1925 0 
L 628 0 
L 628 4666 
z
" transform="scale(0.015625)"/>
      <path id="DejaVuSans-61" d="M 2194 1759 
Q 1497 1759 1228 1600 
Q 959 1441 959 1056 
Q 959 750 1161 570 
Q 1363 391 1709 391 
Q 2188 391 2477 730 
Q 2766 1069 2766 1631 
L 2766 1759 
L 2194 1759 
z
M 3341 1997 
L 3341 0 
L 2766 0 
L 2766 531 
Q 2569 213 2275 61 
Q 1981 -91 1556 -91 
Q 1019 -91 701 211 
Q 384 513 384 1019 
Q 384 1609 779 1909 
Q 1175 2209 1959 2209 
L 2766 2209 
L 2766 2266 
Q 2766 2663 2505 2880 
Q 2244 3097 1772 3097 
Q 1472 3097 1187 3025 
Q 903 2953 641 2809 
L 641 3341 
Q 956 3463 1253 3523 
Q 1550 3584 1831 3584 
Q 2591 3584 2966 3190 
Q 3341 2797 3341 1997 
z
" transform="scale(0.015625)"/>
      <path id="DejaVuSans-6b" d="M 581 4863 
L 1159 4863 
L 1159 1991 
L 2875 3500 
L 3609 3500 
L 1753 1863 
L 3688 0 
L 2938 0 
L 1159 1709 
L 1159 0 
L 581 0 
L 581 4863 
z
" transform="scale(0.015625)"/>
     </defs>
     <use xlink:href="#DejaVuSans-53"/>
     <use xlink:href="#DejaVuSans-6f" x="63.476562"/>
     <use xlink:href="#DejaVuSans-75" x="124.658203"/>
     <use xlink:href="#DejaVuSans-74" x="188.037109"/>
     <use xlink:href="#DejaVuSans-68" x="227.246094"/>
     <use xlink:href="#DejaVuSans-20" x="290.625"/>
     <use xlink:href="#DejaVuSans-44" x="322.412109"/>
     <use xlink:href="#DejaVuSans-61" x="399.414062"/>
     <use xlink:href="#DejaVuSans-6b" x="460.693359"/>
     <use xlink:href="#DejaVuSans-6f" x="514.978516"/>
     <use xlink:href="#DejaVuSans-74" x="576.160156"/>
     <use xlink:href="#DejaVuSans-61" x="615.369141"/>
    </g>
   </g>
  </g>
 </g>
 <defs>
  <clipPath id="p9f83ee22a2">
   <rect x="45" y="118.360258" width="279" height="126.879485"/>
  </clipPath>
 </defs>
</svg>
