<?xml version="1.0" encoding="utf-8" standalone="no"?>
<!DOCTYPE svg PUBLIC "-//W3C//DTD SVG 1.1//EN"
  "http://www.w3.org/Graphics/SVG/1.1/DTD/svg11.dtd">
<svg xmlns:xlink="http://www.w3.org/1999/xlink" width="360pt" height="360pt" viewBox="0 0 360 360" xmlns="http://www.w3.org/2000/svg" version="1.1">
 <metadata>
  <rdf:RDF xmlns:dc="http://purl.org/dc/elements/1.1/" xmlns:cc="http://creativecommons.org/ns#" xmlns:rdf="http://www.w3.org/1999/02/22-rdf-syntax-ns#">
   <cc:Work>
    <dc:type rdf:resource="http://purl.org/dc/dcmitype/StillImage"/>
    <dc:date>2023-06-19T15:20:29.259851</dc:date>
    <dc:format>image/svg+xml</dc:format>
    <dc:creator>
     <cc:Agent>
      <dc:title>Matplotlib v3.7.1, https://matplotlib.org/</dc:title>
     </cc:Agent>
    </dc:creator>
   </cc:Work>
  </rdf:RDF>
 </metadata>
 <defs>
  <style type="text/css">*{stroke-linejoin: round; stroke-linecap: butt}</style>
 </defs>
 <g id="figure_1">
  <g id="patch_1">
   <path d="M 0 360 
L 360 360 
L 360 0 
L 0 0 
z
" style="fill: #ffffff"/>
  </g>
  <g id="axes_1">
   <g id="PatchCollection_1">
    <path d="M 57.694144 205.830231 
L 57.781388 205.583018 
L 57.962905 205.272714 
L 58.062475 205.006295 
L 58.112245 204.941886 
L 58.14536 204.926249 
L 58.217642 204.892116 
L 58.999332 204.936031 
L 59.043247 204.956525 
L 59.054958 205.018006 
L 59.084234 205.05021 
L 59.256997 205.105836 
L 60.014797 205.198731 
L 60.185187 205.238519 
L 60.435006 205.353049 
L 60.489929 205.360486 
L 60.635874 205.338499 
L 60.907358 205.155021 
L 61.025314 205.020729 
L 61.002917 204.837251 
L 60.994544 204.63044 
L 61.011027 204.47217 
L 61.053478 204.30658 
L 61.455917 203.439753 
L 61.58895 202.834105 
L 61.683807 202.658883 
L 61.697903 202.646695 
L 61.926072 202.449408 
L 62.080361 202.343953 
L 62.199342 202.280686 
L 62.530257 202.163784 
L 62.585795 202.160651 
L 62.696169 202.192738 
L 63.563669 202.634935 
L 63.821305 202.699344 
L 64.113575 202.652618 
L 64.227754 202.608937 
L 64.324075 202.553575 
L 64.682071 202.26312 
L 64.816773 202.134331 
L 64.851876 202.084531 
L 64.874712 201.99875 
L 64.819965 201.69272 
L 64.806029 201.670324 
L 64.734476 201.61742 
L 64.120572 201.540598 
L 64.045243 201.512551 
L 63.9397 201.402822 
L 63.845194 201.300412 
L 63.744512 201.197767 
L 63.676911 201.118281 
L 63.602256 201.004804 
L 63.569993 200.89121 
L 63.513957 200.885706 
L 63.422526 200.796353 
L 63.329455 200.614867 
L 63.325092 200.536405 
L 63.364909 200.304299 
L 63.57295 200.286528 
L 63.914551 200.41274 
L 63.94213 200.411159 
L 64.035259 200.164238 
L 64.172509 199.897995 
L 64.303581 199.955173 
L 64.38986 200.021631 
L 64.517301 200.002191 
L 64.591928 199.923525 
L 64.595324 199.76057 
L 64.572927 199.661556 
L 64.515574 199.545825 
L 64.460797 199.446255 
L 64.338157 199.328621 
L 64.239113 199.214588 
L 64.105319 199.025167 
L 63.898771 198.796984 
L 63.853597 198.755703 
L 63.689559 198.670947 
L 63.542795 198.636752 
L 63.355804 198.627032 
L 63.147939 198.650424 
L 62.898413 198.703386 
L 62.65606 198.729471 
L 62.313521 198.621147 
L 62.115288 198.428272 
L 61.889008 198.076629 
L 61.824599 197.944883 
L 61.822345 197.859717 
L 61.929996 197.532081 
L 61.970456 197.446387 
L 62.046195 197.363359 
L 62.113883 197.313998 
L 62.275461 197.256879 
L 62.380858 197.236385 
L 62.682116 197.36696 
L 62.890303 197.31836 
L 63.144601 197.200023 
L 63.198558 197.199877 
L 63.334549 197.233575 
L 63.572452 197.186644 
L 63.638881 196.611912 
L 63.725599 196.383933 
L 63.53732 196.080011 
L 63.580532 196.085837 
L 63.624594 196.069559 
L 63.830058 195.821409 
L 63.931619 195.657547 
L 64.029199 195.561812 
L 64.117029 195.550101 
L 64.192827 195.480306 
L 64.312247 195.318464 
L 64.570819 194.868948 
L 64.483604 194.85873 
L 64.426251 194.836158 
L 64.197511 194.673203 
L 64.026359 194.600158 
L 63.936743 194.543829 
L 63.696907 194.361435 
L 63.640315 194.307214 
L 63.530001 194.153336 
L 63.472589 194.107722 
L 63.34383 194.062666 
L 62.946456 194.00256 
L 62.810319 194.025045 
L 62.729632 194.067994 
L 62.618995 194.154273 
L 62.566648 194.209664 
L 62.518722 194.294977 
L 62.486342 194.420545 
L 62.49574 194.549041 
L 62.565858 194.767943 
L 62.799047 195.088055 
L 62.523436 195.147634 
L 61.899196 195.144355 
L 61.719378 195.058398 
L 61.545094 194.929258 
L 61.518042 194.838442 
L 61.768798 194.110299 
L 61.771755 193.867682 
L 61.81851 193.765184 
L 62.662336 193.336849 
L 62.976523 193.177365 
L 63.161142 192.652667 
L 63.235008 192.480285 
L 63.300266 192.390991 
L 63.416729 192.283369 
L 63.612561 192.152561 
L 63.787168 192.153908 
L 63.876169 192.103961 
L 64.277554 192.096935 
L 64.420454 192.155225 
L 64.653907 192.333579 
L 64.781436 192.466144 
L 64.800759 192.506868 
L 64.798768 192.620345 
L 64.678119 192.931235 
L 64.598017 193.245287 
L 64.597461 193.410057 
L 64.700896 193.723084 
L 64.950656 193.960548 
L 64.73796 194.161797 
L 65.10799 194.294128 
L 65.244125 194.169728 
L 65.402104 194.025367 
L 65.43993 193.953083 
L 65.471841 193.841948 
L 65.517982 193.783219 
L 65.578584 193.733799 
L 65.841666 193.595115 
L 65.850946 193.480526 
L 65.908241 193.37311 
L 65.965038 193.295673 
L 65.988049 193.230883 
L 65.978827 193.09135 
L 65.987464 193.005891 
L 66.056469 192.816412 
L 66.12038 192.725215 
L 66.21471 192.507366 
L 66.210143 192.419916 
L 66.169507 192.348071 
L 65.742359 192.042187 
L 65.492306 191.702782 
L 65.425321 191.578795 
L 65.345863 191.349733 
L 65.294395 191.030089 
L 65.329146 190.825679 
L 65.412966 190.610934 
L 65.456266 190.550477 
L 65.537831 190.38035 
L 65.602767 190.070806 
L 65.665097 190.003821 
L 65.802025 189.912741 
L 65.928442 189.859779 
L 66.06654 189.827956 
L 66.259504 189.83791 
L 66.436628 189.746888 
L 66.523551 189.718782 
L 66.795737 189.686724 
L 66.972013 189.698025 
L 67.07776 189.719426 
L 67.45991 189.900093 
L 67.981388 190.256363 
L 68.033852 190.324695 
L 68.065032 190.466716 
L 68.060962 190.504893 
L 68.003609 190.595329 
L 68.004312 190.681198 
L 68.044362 190.727982 
L 68.193645 190.837126 
L 68.288443 190.889122 
L 68.375805 190.909674 
L 68.709911 190.934559 
L 69.015941 191.054887 
L 69.128072 191.071223 
L 69.243159 191.034656 
L 69.34472 190.967583 
L 69.429886 190.875713 
L 69.469761 190.805566 
L 69.580368 190.476758 
L 69.565437 190.432082 
L 69.530598 190.400668 
L 69.435624 190.363867 
L 69.424498 190.359969 
L 69.378212 190.343754 
L 69.375343 190.274836 
L 69.403507 190.188031 
L 69.378154 190.086206 
L 69.278964 190.021856 
L 69.183902 190.004436 
L 68.987133 189.997029 
L 68.842037 189.968221 
L 68.482167 189.821544 
L 68.383768 189.711668 
L 68.320618 189.615875 
L 68.107337 189.250793 
L 68.03432 189.093401 
L 67.998193 188.974157 
L 67.999013 188.922571 
L 68.032593 188.827422 
L 68.10883 188.717546 
L 68.196602 188.62307 
L 68.364709 188.502449 
L 68.742526 188.319353 
L 69.11964 188.191384 
L 69.337664 188.050299 
L 69.38114 188.036217 
L 69.517511 188.076941 
L 69.700198 188.108677 
L 69.78188 188.113917 
L 69.859552 188.0948 
L 70.38062 187.7693 
L 70.751644 187.648241 
L 70.964077 187.541205 
L 71.043973 187.429456 
L 71.10443 187.253766 
L 71.132594 187.079686 
L 71.12343 186.868191 
L 71.055098 186.704182 
L 70.896272 186.52776 
L 70.827705 186.498366 
L 70.72509 186.488968 
L 70.511487 186.544536 
L 70.362761 186.613365 
L 70.322476 186.651894 
L 70.194859 186.867283 
L 70.135163 186.936259 
L 70.075234 186.979296 
L 69.971857 187.015277 
L 69.725757 187.059309 
L 69.514057 187.052254 
L 69.242368 187.004328 
L 69.028003 186.930814 
L 68.785387 186.79172 
L 68.599567 186.625808 
L 68.443903 186.350314 
L 68.225469 186.136242 
L 68.133481 186.019574 
L 68.061753 185.896524 
L 68.037277 185.754092 
L 68.027206 185.280072 
L 67.970146 184.924154 
L 67.975855 184.810794 
L 68.047085 184.644502 
L 68.113573 184.563289 
L 68.222043 184.494986 
L 69.240494 184.014144 
L 69.309558 183.944319 
L 69.40137 183.883013 
L 69.531886 183.892763 
L 70.04057 184.155844 
L 70.176063 184.30495 
L 70.359892 184.410786 
L 70.489032 184.412835 
L 70.751674 184.228596 
L 70.932224 184.155844 
L 71.264925 183.990283 
L 71.658639 184.014495 
L 71.892033 183.990781 
L 72.000562 183.961475 
L 72.198473 183.867058 
L 72.244292 183.831545 
L 72.35001 183.737127 
L 72.643685 183.413326 
L 72.702766 183.276369 
L 72.707977 183.20227 
L 72.641285 183.030854 
L 72.72932 182.904847 
L 73.154741 182.545416 
L 73.633006 182.415749 
L 73.633445 182.365949 
L 73.855012 182.389342 
L 74.289743 182.523956 
L 74.552678 182.513504 
L 74.863538 182.419584 
L 74.966329 182.355907 
L 75.371227 182.159665 
L 75.435929 182.100497 
L 75.498142 181.984649 
L 75.518782 181.867864 
L 75.508184 181.787118 
L 75.464971 181.694369 
L 75.421993 181.648317 
L 75.278244 181.55507 
L 74.685213 181.299748 
L 74.102401 181.143907 
L 73.66562 180.987042 
L 73.517187 180.892039 
L 73.427776 180.7884 
L 73.403564 180.720243 
L 73.395659 180.595202 
L 73.416417 180.462081 
L 73.44947 180.360197 
L 73.536803 180.157046 
L 73.626214 180.021319 
L 73.900742 179.823378 
L 74.341973 179.568993 
L 75.112157 179.583689 
L 75.896569 179.855993 
L 76.081628 180.059642 
L 76.222391 180.184654 
L 76.440766 180.25606 
L 76.554389 180.255474 
L 76.785705 180.183776 
L 76.853598 180.149756 
L 76.993307 180.033586 
L 77.09314 179.915308 
L 77.164342 179.639198 
L 77.109506 179.532133 
L 77.003261 179.245601 
L 76.946493 179.138243 
L 76.833251 179.010948 
L 76.394977 178.718619 
L 76.233838 178.57973 
L 75.932199 178.369611 
L 75.553153 178.183791 
L 75.249963 178.015069 
L 75.12296 177.921149 
L 74.99909 177.767475 
L 74.973238 177.689716 
L 74.964719 177.581948 
L 74.998943 177.277616 
L 74.988199 177.249481 
L 74.716686 177.027212 
L 74.635414 176.930277 
L 74.580461 176.821104 
L 75.346429 176.810183 
L 75.383172 176.691993 
L 75.444829 176.603519 
L 75.770796 176.238525 
L 75.883805 175.98291 
L 75.922538 175.842088 
L 76.004952 175.324738 
L 76.077939 174.721139 
L 76.134063 174.423746 
L 76.169429 174.361035 
L 76.355571 174.150213 
L 76.527279 174.03413 
L 76.78752 173.936756 
L 77.217567 173.805244 
L 77.648375 173.710593 
L 77.742851 173.673177 
L 78.034155 173.506738 
L 78.420374 173.341207 
L 78.507911 173.273637 
L 78.652714 173.115191 
L 78.679942 173.041735 
L 78.708282 172.86789 
L 78.722832 172.620238 
L 78.705237 172.443874 
L 78.641091 172.287624 
L 78.451554 172.021176 
L 78.271999 171.827335 
L 77.943397 171.57008 
L 77.780149 171.477506 
L 77.614794 171.411517 
L 77.396946 171.307028 
L 77.165747 171.156252 
L 76.870461 170.938755 
L 76.599124 170.792664 
L 76.148145 170.517726 
L 75.985811 170.40545 
L 75.765146 170.25283 
L 75.558832 170.081209 
L 75.418831 169.94516 
L 75.395673 169.912956 
L 75.387036 169.86705 
L 75.393389 169.815464 
L 75.446585 169.712585 
L 75.554734 169.567021 
L 75.5913 169.502407 
L 75.68888 169.43873 
L 75.80385 169.458843 
L 75.952547 169.534143 
L 76.192118 169.569949 
L 76.939496 169.49945 
L 77.242101 169.534758 
L 77.399961 169.575951 
L 77.762232 169.715718 
L 78.150764 169.83382 
L 78.286462 169.861428 
L 78.407551 169.867928 
L 78.848108 169.827584 
L 79.134493 169.746254 
L 79.240358 169.699967 
L 79.501829 169.517748 
L 79.58354 169.493097 
L 79.706942 169.48935 
L 79.836579 169.509726 
L 79.971575 169.572408 
L 80.094801 169.59337 
L 80.186203 169.581455 
L 80.256233 169.554227 
L 80.38751 169.444293 
L 80.394478 169.174185 
L 80.364557 168.918336 
L 80.301729 168.779622 
L 80.248679 168.718463 
L 80.09322 168.627998 
L 80.041107 168.628554 
L 79.963758 168.678003 
L 79.815324 168.70725 
L 79.106739 168.397912 
L 78.935616 168.250854 
L 78.775091 168.149147 
L 78.131031 167.789804 
L 77.91371 167.449081 
L 77.884053 167.38233 
L 77.897374 167.190859 
L 78.01328 166.999419 
L 78.164114 166.87186 
L 78.311113 166.819396 
L 78.461127 166.797409 
L 79.014692 166.815795 
L 79.635272 166.95079 
L 80.087101 166.978222 
L 80.289901 166.958109 
L 80.473086 166.906875 
L 80.613409 166.835644 
L 80.740295 166.744594 
L 80.848473 166.63302 
L 81.018922 166.30228 
L 81.120102 165.900339 
L 81.124904 165.85821 
L 81.100838 165.76186 
L 80.996145 165.570536 
L 80.664234 165.115136 
L 80.16524 164.539642 
L 80.110083 164.434802 
L 80.079811 164.335408 
L 80.07255 164.229396 
L 80.085491 164.105995 
L 80.133944 163.993133 
L 80.208248 163.91148 
L 80.606237 163.619122 
L 80.667249 163.547511 
L 80.718864 163.471948 
L 80.789304 163.314966 
L 80.827393 163.166591 
L 80.833805 162.920168 
L 80.8004 162.825048 
L 80.74091 162.747845 
L 80.39398 162.451359 
L 80.256145 162.261002 
L 81.462231 162.262378 
L 81.623224 162.265657 
L 81.831382 162.273971 
L 81.79382 162.348246 
L 81.595177 162.824111 
L 81.573131 162.903978 
L 81.578225 162.984402 
L 81.603872 163.075189 
L 81.677884 163.209745 
L 81.808312 163.324159 
L 82.091799 163.434649 
L 82.232737 163.459388 
L 82.454216 163.453884 
L 82.563038 163.426042 
L 82.778368 163.333966 
L 82.913422 163.242184 
L 83.256107 162.949064 
L 83.474277 162.731157 
L 83.660741 162.511406 
L 83.753607 162.379221 
L 83.826126 162.228826 
L 84.217849 162.225665 
L 84.594612 162.22748 
L 84.86548 162.198701 
L 84.915456 162.188337 
L 85.603226 162.136253 
L 85.911803 162.106537 
L 87.251772 161.991275 
L 87.778344 162.001961 
L 87.872235 162.009895 
L 89.853745 162.035688 
L 91.258445 162.068009 
L 91.264447 162.068126 
L 92.535615 162.093743 
L 92.602015 162.095032 
L 93.403935 162.101209 
L 93.931737 162.105396 
L 94.319566 162.108089 
L 95.028708 162.113739 
L 95.734064 162.12114 
L 95.737499 162.121176 
L 95.843305 162.121937 
L 96.041275 162.12343 
L 97.083294 162.13637 
L 98.985143 162.13558 
L 99.422918 162.150628 
L 99.710767 162.128905 
L 100.877716 162.115285 
L 100.884737 162.115203 
L 101.099185 162.117006 
L 101.10765 162.117077 
L 101.407644 162.118095 
L 101.910361 162.1198 
L 103.434832 162.117545 
L 104.379535 162.122581 
L 105.964053 162.134848 
L 108.41891 162.143719 
L 109.358431 162.147408 
L 110.200578 162.15865 
L 110.202958 162.158607 
L 110.322281 162.156425 
L 110.332528 162.15786 
L 110.997404 162.169248 
L 111.00135 162.169258 
L 111.484745 162.170419 
L 112.070895 162.174986 
L 112.140633 162.168282 
L 113.130217 162.178383 
L 115.635167 162.18497 
L 115.778741 162.186375 
L 115.928081 162.187868 
L 121.590678 162.24326 
L 123.759689 162.284521 
L 123.762225 162.284569 
L 123.842414 162.198964 
L 123.99354 162.081037 
L 124.164019 161.895803 
L 124.212589 161.795032 
L 124.227023 161.678511 
L 124.212355 161.585264 
L 124.22875 161.504226 
L 124.270206 161.441896 
L 124.320621 161.289423 
L 124.368722 161.010064 
L 124.330282 160.68594 
L 124.27691 160.393085 
L 124.159803 160.069664 
L 124.113809 159.737666 
L 123.998722 159.186794 
L 123.688067 158.380628 
L 123.69199 158.227365 
L 123.64989 158.085958 
L 123.604862 158.004715 
L 123.434442 157.783997 
L 123.322985 157.523639 
L 123.254946 156.985795 
L 124.009116 156.989747 
L 124.974664 157.017795 
L 129.065508 157.367242 
L 129.724089 157.407878 
L 129.617609 158.299473 
L 132.792266 158.214454 
L 134.272987 158.187516 
L 135.825867 158.159267 
L 138.057401 158.127736 
L 138.112324 158.127736 
L 141.556574 158.083261 
L 141.817095 158.079897 
L 142.153778 158.071114 
L 142.46704 158.071114 
L 142.467438 158.071112 
L 143.304839 158.066164 
L 144.414326 158.059609 
L 144.521625 158.057559 
L 144.760274 158.056603 
L 145.375973 158.054135 
L 146.355083 158.050211 
L 146.446076 158.05147 
L 147.346132 158.047869 
L 147.832653 158.046493 
L 147.847496 158.046288 
L 151.230545 158.031093 
L 152.815302 158.007579 
L 154.259345 157.986153 
L 157.33162 157.918641 
L 157.348015 157.917265 
L 158.863235 157.900226 
L 159.481355 157.890682 
L 159.913188 157.878122 
L 159.978153 157.875692 
L 160.070345 157.877888 
L 161.526636 157.840994 
L 161.654717 157.837749 
L 162.976095 157.828293 
L 166.120186 157.747313 
L 166.159769 157.746786 
L 166.602902 157.736217 
L 167.357159 158.292886 
L 167.363813 158.29055 
L 167.733395 158.16076 
L 167.76964 157.960741 
L 167.964799 157.987881 
L 167.95341 158.086075 
L 169.00755 157.737418 
L 170.010982 157.760078 
L 170.013441 157.759932 
L 170.049247 157.757384 
L 170.157366 157.755101 
L 171.829388 157.791543 
L 172.89492 157.814767 
L 172.930257 157.805311 
L 173.360948 157.813537 
L 174.122788 157.844776 
L 175.284901 157.944961 
L 177.369583 158.075682 
L 177.459462 158.077643 
L 177.537661 158.084348 
L 177.544306 158.086338 
L 177.857989 158.108111 
L 177.875837 158.10935 
L 178.089147 158.120416 
L 181.474392 158.281878 
L 181.511807 158.279184 
L 182.750215 158.370996 
L 182.903245 158.382444 
L 182.914048 158.38379 
L 184.58061 158.435214 
L 185.045075 158.449546 
L 187.566508 158.580677 
L 188.78691 158.627402 
L 189.685181 158.616511 
L 190.061241 158.633258 
L 190.062178 158.633281 
L 191.723664 158.674743 
L 193.306747 158.74126 
L 196.988946 158.810792 
L 197.00458 158.812402 
L 198.852822 158.833862 
L 200.372872 158.730542 
L 200.557609 158.717985 
L 203.36815 158.600907 
L 203.645401 158.554093 
L 204.355422 158.557402 
L 204.482161 158.516795 
L 204.485795 158.516377 
L 204.641602 158.498468 
L 205.061373 158.496682 
L 207.430362 158.526339 
L 210.335906 158.614608 
L 210.620271 158.631296 
L 212.429225 158.706216 
L 213.546983 158.784853 
L 213.885801 158.817531 
L 214.791246 158.904858 
L 217.256643 159.082686 
L 217.256028 159.084647 
L 217.744013 159.122736 
L 218.895967 159.147973 
L 219.433033 159.174034 
L 219.434747 159.174117 
L 219.63632 159.178889 
L 224.130801 159.285281 
L 226.52567 159.381836 
L 227.790427 159.370096 
L 229.46216 159.387632 
L 234.487841 159.510507 
L 234.776012 159.507609 
L 235.771452 159.501753 
L 235.775502 159.501785 
L 238.694123 159.524238 
L 242.782947 159.577317 
L 242.789711 159.577543 
L 244.454101 159.633111 
L 245.518013 159.668631 
L 248.603902 159.744751 
L 251.481897 159.78281 
L 251.537523 159.730083 
L 251.575583 159.648108 
L 251.707328 159.501724 
L 251.809797 159.446098 
L 251.880061 159.372906 
L 251.923976 159.314353 
L 251.929861 159.249007 
L 252.084208 159.249505 
L 252.084589 159.250471 
L 252.803099 159.27278 
L 253.475353 159.329606 
L 255.402174 159.349426 
L 257.881976 159.352354 
L 260.727796 159.349368 
L 263.614603 159.325917 
L 264.059639 159.451807 
L 264.375682 159.450402 
L 264.387539 159.451485 
L 264.41582 159.453564 
L 270.873575 159.451632 
L 270.905984 159.452978 
L 272.139311 159.456397 
L 274.982394 159.464279 
L 276.668151 159.455496 
L 280.610357 159.45734 
L 281.075887 159.45734 
L 283.145843 159.4456 
L 284.554114 159.425077 
L 284.592174 159.425077 
L 284.752611 159.422852 
L 286.715794 159.395157 
L 286.966696 159.402007 
L 287.319628 159.434417 
L 292.285496 159.398611 
L 292.369105 159.398565 
L 293.860551 159.397738 
L 294.344883 159.397469 
L 294.372315 159.39744 
L 294.438803 159.398114 
L 294.48951 159.395391 
L 294.803006 159.394044 
L 294.817879 159.39662 
L 295.462143 159.413982 
L 295.689068 159.42133 
L 295.791331 159.426014 
L 295.88692 159.430728 
L 296.567752 159.428796 
L 296.630931 159.427478 
L 296.718643 159.427685 
L 300.410719 159.43638 
L 302.908604 159.442263 
L 303.245286 158.798174 
L 306.052988 158.856669 
L 308.682101 158.910421 
L 311.318182 158.923918 
L 310.421288 159.620734 
L 310.34511 159.696825 
L 310.377343 159.890051 
L 310.430042 160.022148 
L 310.435897 160.130121 
L 310.350994 160.191602 
L 310.160695 160.212096 
L 310.049443 160.188674 
L 309.982985 160.275626 
L 309.99291 160.365008 
L 310.052488 160.454361 
L 310.082263 160.563593 
L 310.055474 160.673615 
L 309.943813 160.763524 
L 309.835635 160.901827 
L 309.764698 161.037818 
L 309.764698 161.122281 
L 309.530454 161.140433 
L 309.5217 161.260351 
L 309.541872 161.436363 
L 309.689134 161.6057 
L 309.747395 161.755802 
L 309.760862 161.786015 
L 309.775266 161.823343 
L 309.779804 161.863716 
L 309.829633 161.953186 
L 309.827145 161.979652 
L 309.842925 162.05744 
L 309.823017 162.081564 
L 309.765839 162.175191 
L 309.756617 162.186609 
L 309.765693 162.258542 
L 309.81438 162.281876 
L 309.843774 162.313495 
L 309.856246 162.393948 
L 309.883415 162.447026 
L 309.843013 162.647338 
L 309.872465 162.917826 
L 309.914975 162.948157 
L 309.923641 162.982703 
L 309.900864 163.139949 
L 309.82287 163.232786 
L 309.786333 163.25568 
L 309.732083 163.248273 
L 309.522139 163.30668 
L 309.327654 163.452976 
L 309.322033 163.565838 
L 309.3456 163.635722 
L 309.347503 163.750868 
L 309.317729 163.830295 
L 309.307775 163.919648 
L 309.317729 163.999076 
L 309.317729 164.058654 
L 309.268076 164.157961 
L 309.238389 164.286135 
L 309.15656 164.468383 
L 308.887507 164.676687 
L 308.75904 164.737583 
L 308.642519 164.813292 
L 308.602819 164.932449 
L 308.602819 165.08138 
L 308.652473 165.210461 
L 308.771776 165.287166 
L 308.841103 165.359392 
L 308.870907 165.409046 
L 308.890756 165.478549 
L 308.863705 165.627567 
L 308.821253 165.716832 
L 308.801404 165.816139 
L 308.850794 165.887574 
L 308.999988 166.038906 
L 309.059566 166.173579 
L 309.059566 166.272886 
L 309.069491 166.342389 
L 309.099266 166.451592 
L 309.138994 166.501245 
L 309.228347 166.580673 
L 309.357428 166.610477 
L 309.535665 166.708934 
L 309.608447 166.830579 
L 309.58892 166.928832 
L 309.545824 167.026178 
L 309.377307 167.057299 
L 309.260434 166.996959 
L 309.148334 166.92447 
L 309.004204 166.874143 
L 308.856708 166.850048 
L 308.741826 166.858714 
L 308.607211 166.891914 
L 308.46191 166.949853 
L 308.362925 166.962208 
L 308.170343 166.971342 
L 308.066645 166.957992 
L 307.987217 166.938142 
L 307.937563 166.918293 
L 307.828332 166.928217 
L 307.744161 166.854294 
L 307.480816 166.699829 
L 307.382856 166.660657 
L 307.302082 166.66013 
L 307.202804 166.630326 
L 307.123376 166.540974 
L 307.073723 166.451592 
L 306.974416 166.362239 
L 306.812135 166.355681 
L 306.594228 166.471383 
L 306.45812 166.560823 
L 306.177385 166.626608 
L 305.86386 166.669938 
L 305.627713 166.787572 
L 305.499774 166.87426 
L 305.346042 166.957992 
L 305.157382 167.03742 
L 304.987138 167.171449 
L 304.659589 167.49405 
L 304.605544 167.585247 
L 304.511858 167.652818 
L 304.281714 167.78673 
L 304.067232 167.845576 
L 303.975537 167.837876 
L 303.670005 167.996937 
L 303.377991 168.433155 
L 302.942272 169.084042 
L 302.94152 169.085165 
L 302.769451 169.342088 
L 302.148666 170.159964 
L 300.200619 173.026424 
L 300.209402 173.0557 
L 300.139138 173.199157 
L 300.010291 173.313336 
L 299.869762 173.292842 
L 299.694101 173.166981 
L 299.395449 173.125994 
L 299.339823 173.210897 
L 299.339823 173.304582 
L 299.184656 173.527086 
L 299.014851 173.559319 
L 298.645934 173.720342 
L 298.634224 173.743763 
L 298.610745 173.742549 
L 298.464418 173.73498 
L 298.095502 173.743792 
L 298.004744 173.729154 
L 297.893492 173.673528 
L 297.785138 173.699907 
L 297.60655 173.776026 
L 297.258127 173.781911 
L 297.155658 173.723357 
L 296.941118 173.338104 
L 296.982926 173.216869 
L 296.982896 173.067557 
L 296.857006 172.850939 
L 296.760393 172.616724 
L 296.649112 172.461557 
L 296.414897 172.502574 
L 296.270417 172.548451 
L 296.025487 172.546519 
L 295.940584 172.552374 
L 295.890814 172.584578 
L 295.839258 172.626854 
L 295.744079 172.643659 
L 295.636106 172.631421 
L 295.603872 172.610928 
L 295.571668 172.581651 
L 295.48091 172.509279 
L 295.360875 172.482139 
L 295.261334 172.447007 
L 295.147125 172.36796 
L 295.072147 172.302087 
L 294.98256 172.240489 
L 294.795804 172.183545 
L 294.719655 172.180618 
L 294.585011 172.218092 
L 294.479585 172.245056 
L 294.445039 172.307679 
L 294.397611 172.447065 
L 294.297016 172.546284 
L 294.10616 172.689799 
L 294.086486 172.718256 
L 294.059083 172.742322 
L 294.020379 172.763899 
L 293.908659 172.824736 
L 293.855961 172.906711 
L 293.823522 172.951621 
L 293.733935 173.007599 
L 293.607108 172.968221 
L 293.566121 172.924306 
L 293.476358 172.918012 
L 293.358256 172.924306 
L 293.270396 173.029703 
L 293.202006 173.102777 
L 293.112419 173.119582 
L 293.047893 173.102895 
L 292.957135 173.050196 
L 292.822461 173.076545 
L 292.772691 173.067762 
L 292.53552 172.874536 
L 292.506243 172.865753 
L 292.266173 172.930162 
L 292.113934 172.99457 
L 291.985116 173.076545 
L 291.944129 173.135099 
L 291.66597 173.299049 
L 291.569591 173.338836 
L 291.460652 173.34434 
L 291.343311 173.40102 
L 291.252202 173.415424 
L 291.121422 173.474739 
L 290.825697 173.465956 
L 290.779879 173.444877 
L 290.734939 173.41033 
L 290.5827 173.454245 
L 290.430461 173.571352 
L 290.414007 173.600483 
L 290.248681 173.687259 
L 290.107655 173.724206 
L 289.985425 173.747013 
L 289.891739 173.828988 
L 289.841968 173.931457 
L 289.563839 174.001721 
L 289.139326 174.273995 
L 288.992942 174.396957 
L 288.782068 174.708326 
L 287.493971 176.610282 
L 287.379792 176.648371 
L 287.097798 176.835742 
L 286.860597 176.902639 
L 286.825289 176.947696 
L 286.820371 177.018488 
L 286.790743 177.048262 
L 286.710729 177.083833 
L 286.709558 177.086088 
L 286.336133 177.349462 
L 286.184538 177.492362 
L 286.182484 177.492612 
L 286.135236 177.498363 
L 285.973335 177.551384 
L 285.860737 177.542776 
L 285.737306 177.581568 
L 285.677523 177.616612 
L 285.426035 177.65315 
L 285.324416 177.720515 
L 285.192377 177.743117 
L 285.098984 177.775936 
L 284.887635 177.884817 
L 284.784874 177.991618 
L 284.6478 178.188534 
L 284.365894 178.140198 
L 284.141429 178.057286 
L 284.097279 178.031786 
L 284.066802 177.88713 
L 283.970657 177.847284 
L 283.649374 177.823043 
L 283.564969 177.853432 
L 283.403654 177.874541 
L 283.187269 177.833641 
L 283.095692 177.793063 
L 283.074817 177.675693 
L 283.095809 177.58716 
L 283.217161 177.294275 
L 283.290382 177.210163 
L 283.211189 177.068141 
L 283.045482 177.029554 
L 283.033069 177.014565 
L 282.97352 176.829945 
L 282.994013 176.73626 
L 283.008652 176.701127 
L 283.067205 176.657212 
L 283.287806 176.306447 
L 283.411881 176.201431 
L 283.5455 176.077356 
L 283.564589 175.97237 
L 283.526412 175.90556 
L 283.450058 175.838751 
L 283.392792 175.743308 
L 283.330257 175.672722 
L 283.234054 175.63838 
L 283.131585 175.524201 
L 283.017406 175.480286 
L 282.882703 175.462749 
L 282.885631 175.339787 
L 282.909052 175.251956 
L 282.868065 175.19633 
L 282.584051 175.02067 
L 282.469871 174.915273 
L 282.326415 174.912346 
L 282.139044 175.000176 
L 281.945817 175.14656 
L 281.80968 175.192817 
L 281.73842 175.180784 
L 281.579857 175.228535 
L 281.41298 175.290016 
L 281.278307 175.363208 
L 280.967973 175.489127 
L 280.932841 175.521332 
L 280.909419 175.609162 
L 280.812806 175.708703 
L 280.455629 175.831666 
L 280.394148 175.890219 
L 280.268258 175.957556 
L 280.042827 176.001471 
L 280.031116 176.051242 
L 280.036971 176.128854 
L 280.019405 176.171276 
L 279.752986 176.305949 
L 279.671012 176.297166 
L 279.553904 176.323516 
L 279.021067 176.663126 
L 278.892249 176.712897 
L 278.754648 176.715854 
L 278.573132 176.750986 
L 278.261745 176.835888 
L 278.224212 176.873714 
L 278.185976 176.926705 
L 278.162321 177.058158 
L 277.990466 177.192362 
L 277.989738 177.217702 
L 277.981946 177.488995 
L 278.091705 177.583647 
L 278.135328 177.589414 
L 278.184922 177.576913 
L 278.249068 177.603438 
L 278.293832 177.659298 
L 278.21051 177.807614 
L 278.054348 177.864118 
L 278.011867 177.895649 
L 277.98786 177.935905 
L 277.992691 178.032489 
L 277.926116 178.239417 
L 277.546513 178.473865 
L 277.387833 178.655879 
L 277.378376 178.686034 
L 277.390175 178.732643 
L 277.478064 178.884502 
L 277.474463 178.917174 
L 277.412835 178.97119 
L 277.294528 178.969053 
L 277.235125 178.981935 
L 277.086897 179.064349 
L 276.919112 179.127206 
L 276.898354 179.106946 
L 276.796618 178.896446 
L 276.712066 178.802439 
L 276.677549 178.801268 
L 276.585151 178.742099 
L 276.388236 178.590651 
L 276.351201 178.545125 
L 276.099713 178.367971 
L 276.02052 178.329414 
L 275.781328 178.377984 
L 275.529812 178.286201 
L 275.490259 178.244482 
L 275.387995 178.223754 
L 275.101844 178.326398 
L 274.846374 178.443798 
L 274.720836 178.460135 
L 274.676456 178.446547 
L 274.675222 178.44617 
L 274.581303 178.662466 
L 274.585284 178.845944 
L 274.561951 178.892611 
L 274.530859 178.931491 
L 274.445312 178.97037 
L 274.320886 178.978158 
L 274.297552 179.00925 
L 274.282006 179.133676 
L 274.289764 179.335891 
L 274.428946 179.550021 
L 274.498449 179.85409 
L 274.577497 179.973568 
L 274.577497 180.051327 
L 274.523071 180.129116 
L 274.515283 180.191329 
L 274.60083 180.284634 
L 274.63971 180.354635 
L 274.655285 180.424606 
L 274.63971 180.510153 
L 274.593365 180.56897 
L 274.149792 180.759006 
L 274.095337 180.821219 
L 274.064245 180.922341 
L 274.017403 181.199006 
L 274.072033 181.381166 
L 274.040912 181.474472 
L 273.947607 181.544472 
L 273.824322 181.564585 
L 273.698725 181.630019 
L 273.65885 181.730614 
L 273.535419 181.894418 
L 273.348253 181.943661 
L 273.298921 181.972235 
L 273.1083 182.220473 
L 272.999244 182.407288 
L 272.988236 182.463734 
L 272.905588 182.596972 
L 272.824374 182.679884 
L 272.791643 182.836954 
L 272.810263 182.906369 
L 272.790006 182.936238 
L 272.755164 182.987612 
L 272.592385 182.996893 
L 272.451417 183.081005 
L 272.335745 183.203382 
L 272.173083 183.338055 
L 271.936439 183.456978 
L 271.826651 183.480985 
L 271.660651 183.462716 
L 271.526154 183.32652 
L 271.341417 183.285123 
L 270.643693 183.063 
L 270.547051 183.081386 
L 270.454653 183.121495 
L 270.412436 183.123252 
L 270.348056 183.108438 
L 270.282974 183.054188 
L 270.161563 183.00026 
L 269.995769 183.038525 
L 269.903049 183.081474 
L 269.830794 183.085309 
L 269.589378 183.036505 
L 269.536416 182.986558 
L 269.398757 183.002485 
L 269.209248 183.110165 
L 269.184392 183.173608 
L 268.858278 183.39494 
L 268.769511 183.433059 
L 268.766466 183.431917 
L 268.769277 183.433644 
L 268.708176 183.4241 
L 268.641894 183.448722 
L 268.635424 183.470679 
L 268.468956 183.545833 
L 268.376119 183.566385 
L 268.185205 183.682819 
L 267.964927 183.628393 
L 267.400968 183.715316 
L 267.368471 183.739586 
L 267.19281 183.740026 
L 267.042679 183.722108 
L 266.974493 183.766872 
L 266.875772 183.866355 
L 266.860607 183.90339 
L 266.879842 184.022898 
L 266.721659 184.272072 
L 266.672064 184.275849 
L 266.507178 184.336306 
L 266.409481 184.483597 
L 266.372563 184.582845 
L 266.267518 184.746854 
L 266.18891 184.749547 
L 265.899157 184.875555 
L 265.844732 184.880327 
L 265.738574 184.844551 
L 265.423878 184.906588 
L 265.351535 184.868001 
L 265.263442 184.843145 
L 265.185975 184.8567 
L 264.910334 184.857871 
L 264.657764 184.83849 
L 264.614932 184.929892 
L 264.574852 184.962243 
L 264.348074 185.03886 
L 264.227922 185.146775 
L 264.224257 185.18013 
L 264.223882 185.183546 
L 264.253393 185.260017 
L 264.260741 185.344451 
L 264.235036 185.414189 
L 264.205672 185.505971 
L 264.234509 185.578227 
L 264.220339 185.737258 
L 264.146942 185.858376 
L 264.05516 185.939151 
L 263.934012 185.986872 
L 263.820214 186.04929 
L 263.758703 186.16426 
L 263.63861 186.223194 
L 263.471791 186.271823 
L 263.237957 186.368231 
L 263.193544 186.423008 
L 263.182038 186.584235 
L 263.10589 186.736826 
L 263.004065 186.858881 
L 262.854021 186.908241 
L 262.61363 186.955435 
L 262.547259 186.944984 
L 262.396543 186.821845 
L 262.302974 186.710594 
L 261.897081 186.632835 
L 261.817506 186.703011 
L 261.537064 186.779131 
L 261.478716 186.768005 
L 261.411233 186.797165 
L 261.346355 186.866844 
L 261.294799 186.950166 
L 261.299776 187.017326 
L 261.27533 187.085219 
L 261.216571 187.165496 
L 260.960927 187.415783 
L 260.92518 187.431183 
L 260.860566 187.431124 
L 260.807721 187.398744 
L 260.762694 187.409723 
L 260.672726 187.476972 
L 260.637623 187.539683 
L 260.571253 187.533564 
L 260.323249 187.566383 
L 260.326762 187.602452 
L 260.208191 187.814914 
L 260.091845 187.884446 
L 259.888577 187.925638 
L 259.815619 187.958663 
L 259.646077 188.054251 
L 259.396698 188.155344 
L 259.379307 188.210121 
L 259.36139 188.222124 
L 259.047484 188.258574 
L 258.78695 188.205934 
L 258.652131 188.204061 
L 258.613046 188.29596 
L 258.458055 188.464185 
L 258.361705 188.60685 
L 258.158056 188.766262 
L 257.903816 188.833482 
L 257.865581 188.867999 
L 257.865112 188.943328 
L 257.786563 188.995353 
L 257.6778 189.038068 
L 257.67092 189.054229 
L 257.694165 189.158513 
L 257.63286 189.233725 
L 257.489111 189.480499 
L 257.309937 189.519642 
L 257.114134 189.633411 
L 256.551171 189.636632 
L 256.466122 189.556677 
L 256.06503 189.584021 
L 255.870134 189.553749 
L 255.538106 189.593449 
L 255.330329 189.580274 
L 255.130486 189.54523 
L 254.945047 189.559136 
L 254.830253 189.603022 
L 254.664692 189.642107 
L 254.559589 189.634582 
L 254.51421 189.603081 
L 254.494097 189.516831 
L 254.305466 189.342664 
L 254.083431 189.187028 
L 253.997006 189.154473 
L 253.877469 189.151223 
L 253.689424 189.310049 
L 253.267195 189.489721 
L 253.190372 189.454472 
L 253.088665 189.481523 
L 253.049141 189.512937 
L 252.95206 189.542829 
L 252.806173 189.550148 
L 252.581386 189.477425 
L 252.441619 189.451017 
L 252.354023 189.480411 
L 252.294532 189.453154 
L 252.292582 189.453007 
L 252.19748 189.445806 
L 251.997783 189.457956 
L 251.904829 189.419457 
L 251.673953 189.461644 
L 251.273651 189.476166 
L 251.190622 189.497567 
L 251.148581 189.497186 
L 251.097434 189.472535 
L 250.999269 189.470867 
L 250.601456 189.622696 
L 250.523229 189.665821 
L 250.245451 189.628493 
L 250.165759 189.560981 
L 249.749297 189.687134 
L 249.543687 189.615172 
L 249.462941 189.647728 
L 249.318577 189.675658 
L 249.109834 189.658677 
L 249.070135 189.794902 
L 248.864114 190.002123 
L 248.66875 190.095428 
L 248.211095 190.259729 
L 248.027267 190.411178 
L 247.995501 190.472806 
L 247.533162 190.779656 
L 247.479352 190.755532 
L 247.348572 190.752223 
L 247.105341 190.846085 
L 246.862373 190.913451 
L 246.704395 190.860752 
L 246.547384 190.837565 
L 246.337997 190.865115 
L 246.155983 190.858235 
L 245.938047 190.928499 
L 245.865177 190.974258 
L 245.815435 191.103896 
L 245.586725 191.386856 
L 245.558707 191.411331 
L 245.481475 191.422603 
L 245.314246 191.578209 
L 245.313602 191.615537 
L 245.348822 191.647361 
L 245.344782 191.679448 
L 245.309972 191.740022 
L 245.190376 191.79758 
L 245.119292 191.934097 
L 245.083428 192.071201 
L 245.010002 192.179115 
L 244.862798 192.249848 
L 244.781907 192.25702 
L 244.625832 192.241884 
L 244.483898 192.258104 
L 244.270998 192.311358 
L 244.120017 192.435989 
L 244.096157 192.49952 
L 243.908727 192.614285 
L 243.806463 192.629772 
L 243.732276 192.547182 
L 243.661865 192.525079 
L 243.567243 192.527069 
L 243.567158 192.538468 
L 243.567155 192.538926 
L 243.567213 192.565276 
L 243.557084 192.663119 
L 243.444983 192.783065 
L 243.403205 192.796474 
L 243.309841 192.781777 
L 243.263174 192.790502 
L 243.212467 192.865538 
L 243.215804 192.97272 
L 243.062716 193.004954 
L 242.917884 193.165098 
L 242.644585 193.290549 
L 242.525985 193.416556 
L 242.481045 193.503655 
L 242.449192 193.639675 
L 242.429752 193.667166 
L 242.361127 193.744837 
L 242.271657 193.793583 
L 242.084286 193.954605 
L 241.996426 194.054146 
L 241.911524 194.077567 
L 241.822932 194.116798 
L 241.789293 194.187794 
L 241.797344 194.282505 
L 241.876392 194.411323 
L 241.896885 194.431816 
L 241.981788 194.449382 
L 242.013992 194.469876 
L 242.186725 194.686524 
L 242.186725 194.707018 
L 242.116461 194.809487 
L 242.098895 194.862185 
L 242.139883 194.911956 
L 242.183798 195.023207 
L 242.204906 195.234644 
L 241.984306 195.433521 
L 241.865091 195.588659 
L 241.83596 195.649145 
L 241.740284 195.745348 
L 241.702224 195.754746 
L 241.392271 195.844421 
L 241.329296 195.8732 
L 241.312111 195.916734 
L 241.477554 196.253944 
L 241.511457 196.26586 
L 241.566936 196.360746 
L 241.536722 196.440203 
L 241.484024 196.495829 
L 241.476969 196.555934 
L 241.47612 196.591418 
L 241.387382 196.812018 
L 241.381526 196.955474 
L 241.40202 196.981824 
L 241.586464 197.028666 
L 241.650873 197.060871 
L 241.800184 197.292157 
L 241.738703 197.456107 
L 241.609885 197.543938 
L 241.575486 197.561348 
L 241.372714 197.663972 
L 241.17656 197.965523 
L 240.88669 198.211477 
L 240.795932 198.264176 
L 240.561718 198.308091 
L 240.359708 198.392993 
L 240.239644 198.41056 
L 240.052156 198.470167 
L 240.002502 198.53645 
L 239.999575 198.589148 
L 239.727301 198.797042 
L 239.57228 198.873133 
L 239.432864 198.851673 
L 239.40754 198.832174 
L 239.251963 198.786825 
L 239.109531 198.826319 
L 239.077327 198.823391 
L 239.058765 198.803366 
L 239.052002 198.783663 
L 238.880119 198.777632 
L 238.769891 198.801463 
L 238.749398 198.814608 
L 238.714266 198.899511 
L 238.699627 198.960026 
L 238.653516 198.981544 
L 238.604331 198.990767 
L 238.524435 198.981544 
L 238.433209 198.949311 
L 238.336595 198.908323 
L 238.236791 198.887859 
L 237.879848 198.89954 
L 237.774452 198.917106 
L 237.730537 198.97566 
L 237.704188 198.987371 
L 237.490467 198.920034 
L 237.437769 198.920063 
L 237.244542 199.019604 
L 237.200627 199.069375 
L 236.910758 199.089869 
L 236.799506 198.999111 
L 236.597496 198.981544 
L 236.568219 198.952268 
L 236.521376 198.86151 
L 236.487357 198.6275 
L 236.41598 198.554104 
L 236.410125 198.513116 
L 236.225652 198.325774 
L 236.093906 198.270148 
L 235.877258 198.237944 
L 235.757223 198.273076 
L 235.640116 198.363834 
L 235.394162 198.644891 
L 235.312187 198.703444 
L 235.025275 198.811798 
L 234.881818 198.908411 
L 234.805699 199.034301 
L 234.36359 199.242166 
L 234.155725 199.444176 
L 234.135231 199.482236 
L 233.995815 199.543981 
L 233.947831 199.537862 
L 233.929708 199.511659 
L 233.868822 200.064492 
L 233.868783 200.064844 
L 233.783383 200.774366 
L 233.702345 201.212757 
L 233.503175 202.552638 
L 233.396959 203.387875 
L 233.392889 203.399937 
L 233.350555 203.80624 
L 233.003713 206.455056 
L 230.893853 206.465011 
L 230.865513 206.466123 
L 227.523599 206.466035 
L 227.499182 206.466709 
L 224.231981 206.457369 
L 224.130976 206.467645 
L 221.130078 206.466416 
L 221.025033 206.464425 
L 219.712541 206.472868 
L 218.767647 206.478946 
L 218.736701 206.47962 
L 218.698848 206.478502 
L 218.691088 206.478273 
L 218.499706 206.474233 
L 218.406049 206.469548 
L 218.302644 206.475579 
L 218.074607 206.466884 
L 217.306589 206.474438 
L 217.210503 206.47312 
L 214.927148 206.469461 
L 214.777427 206.470983 
L 214.449439 206.471978 
L 213.824369 206.476698 
L 213.739858 206.477336 
L 211.831247 206.500406 
L 211.827411 206.499703 
L 207.864214 206.523359 
L 207.707525 206.525701 
L 206.810221 206.53507 
L 206.772161 206.53507 
L 206.693114 206.537998 
L 206.655054 206.540925 
L 206.406201 206.540925 
L 206.253933 206.540925 
L 205.685963 206.549708 
L 205.390268 206.552636 
L 205.074049 206.555564 
L 205.024279 206.555564 
L 204.528213 206.565049 
L 204.323627 206.570202 
L 204.207428 206.570202 
L 204.207281 206.570207 
L 204.125453 206.57313 
L 203.564276 206.583211 
L 202.495849 206.602406 
L 201.879631 206.613766 
L 199.486372 206.614205 
L 199.269949 206.611538 
L 196.972095 206.583224 
L 195.432944 206.564259 
L 189.014128 206.462844 
L 188.887857 206.462171 
L 187.856978 206.455905 
L 182.069433 206.420727 
L 174.760349 206.376302 
L 174.541149 206.374868 
L 172.244624 206.359848 
L 171.169464 206.376682 
L 170.17783 206.388188 
L 168.709893 206.388551 
L 168.401111 206.388627 
L 167.599542 206.38002 
L 167.150055 206.378849 
L 167.147392 206.378821 
L 166.630539 206.373403 
L 166.30624 206.372145 
L 165.100828 206.357506 
L 165.095533 206.357491 
L 164.562193 206.355984 
L 164.233035 206.349894 
L 164.130361 206.349865 
L 164.061092 206.347845 
L 164.035036 206.347845 
L 160.931346 206.352089 
L 160.930761 206.35209 
L 159.847256 206.356804 
L 159.389104 206.356804 
L 159.38723 206.356804 
L 159.091652 206.353993 
L 158.994219 206.352119 
L 158.840464 206.351721 
L 158.632563 206.351182 
L 155.559292 206.27963 
L 155.468066 206.275356 
L 155.398475 206.273482 
L 155.345806 206.276322 
L 154.596467 206.258521 
L 154.269533 206.257321 
L 151.006002 206.194171 
L 148.426328 206.144254 
L 148.252892 206.140624 
L 148.037116 206.135393 
L 147.847087 206.130787 
L 146.691532 206.104262 
L 145.837499 206.088892 
L 144.371728 206.067022 
L 144.078082 206.062308 
L 143.440141 206.053672 
L 143.140259 206.046177 
L 142.376545 206.03754 
L 142.255252 206.037248 
L 142.048265 206.033851 
L 141.800562 206.03267 
L 136.849723 206.009051 
L 136.297955 206.006419 
L 135.153291 206.012538 
L 134.940098 206.012128 
L 134.195619 206.002906 
L 134.087031 205.998924 
L 134.034977 206.000183 
L 133.825062 205.995967 
L 132.378819 205.977757 
L 132.12376 205.975649 
L 131.948567 205.970877 
L 129.656196 205.950091 
L 129.611549 205.952433 
L 129.608123 205.953457 
L 129.048996 205.952579 
L 128.899216 205.954306 
L 128.89257 205.955595 
L 127.457783 205.950058 
L 126.095853 205.944803 
L 125.7615 205.943513 
L 125.318959 205.941805 
L 119.37791 205.880646 
L 119.406367 205.956971 
L 119.440533 206.18085 
L 119.462667 206.243502 
L 117.888718 206.245874 
L 117.763238 206.248509 
L 114.676884 206.244802 
L 114.179848 206.244205 
L 111.565637 206.231265 
L 111.563412 206.231821 
L 110.265362 206.235022 
L 102.290432 206.254686 
L 101.223682 206.257451 
L 100.404276 206.259575 
L 99.35201 206.236652 
L 98.231822 206.26669 
L 95.541693 206.263662 
L 95.266114 206.263352 
L 91.973735 206.281679 
L 91.969666 206.282353 
L 91.45173 206.293507 
L 90.237886 206.277171 
L 89.677382 206.269998 
L 85.717781 206.287746 
L 84.164941 206.294706 
L 83.309068 206.298543 
L 81.788345 206.292073 
L 81.588033 206.280772 
L 81.078207 206.269237 
L 79.499999 206.262859 
L 77.187412 206.253513 
L 77.18062 206.253486 
L 74.837235 206.255865 
L 74.326046 206.256384 
L 73.804119 206.26519 
L 72.762608 206.282763 
L 72.237332 206.283748 
L 71.202126 206.28569 
L 70.18104 206.283699 
L 70.169831 206.283593 
L 69.887189 206.280918 
L 69.651259 206.280159 
L 67.061823 206.271828 
L 66.033931 206.268522 
L 64.986775 206.265153 
L 63.9459 206.261804 
L 57.711124 206.241746 
L 57.681818 205.989936 
L 57.694144 205.830231 
" clip-path="url(#pee6684f5db)" style="fill: #cc3838"/>
   </g>
   <g id="PathCollection_1">
    <defs>
     <path id="ma206ae5fac" d="M 0 1.581139 
C 0.419323 1.581139 0.821528 1.41454 1.118034 1.118034 
C 1.41454 0.821528 1.581139 0.419323 1.581139 0 
C 1.581139 -0.419323 1.41454 -0.821528 1.118034 -1.118034 
C 0.821528 -1.41454 0.419323 -1.581139 0 -1.581139 
C -0.419323 -1.581139 -0.821528 -1.41454 -1.118034 -1.118034 
C -1.41454 -0.821528 -1.581139 -0.419323 -1.581139 0 
C -1.581139 0.419323 -1.41454 0.821528 -1.118034 1.118034 
C -0.821528 1.41454 -0.419323 1.581139 0 1.581139 
z
" style="stroke: #000000"/>
    </defs>
    <g clip-path="url(#pee6684f5db)">
     <use xlink:href="#ma206ae5fac" x="160.9134" y="171.984522" style="stroke: #000000"/>
    </g>
   </g>
   <g id="text_1">
    <!-- Nashville -->
    <g transform="translate(163.9134 168.984522) scale(0.1 -0.1)">
     <defs>
      <path id="DejaVuSans-4e" d="M 628 4666 
L 1478 4666 
L 3547 763 
L 3547 4666 
L 4159 4666 
L 4159 0 
L 3309 0 
L 1241 3903 
L 1241 0 
L 628 0 
L 628 4666 
z
" transform="scale(0.015625)"/>
      <path id="DejaVuSans-61" d="M 2194 1759 
Q 1497 1759 1228 1600 
Q 959 1441 959 1056 
Q 959 750 1161 570 
Q 1363 391 1709 391 
Q 2188 391 2477 730 
Q 2766 1069 2766 1631 
L 2766 1759 
L 2194 1759 
z
M 3341 1997 
L 3341 0 
L 2766 0 
L 2766 531 
Q 2569 213 2275 61 
Q 1981 -91 1556 -91 
Q 1019 -91 701 211 
Q 384 513 384 1019 
Q 384 1609 779 1909 
Q 1175 2209 1959 2209 
L 2766 2209 
L 2766 2266 
Q 2766 2663 2505 2880 
Q 2244 3097 1772 3097 
Q 1472 3097 1187 3025 
Q 903 2953 641 2809 
L 641 3341 
Q 956 3463 1253 3523 
Q 1550 3584 1831 3584 
Q 2591 3584 2966 3190 
Q 3341 2797 3341 1997 
z
" transform="scale(0.015625)"/>
      <path id="DejaVuSans-73" d="M 2834 3397 
L 2834 2853 
Q 2591 2978 2328 3040 
Q 2066 3103 1784 3103 
Q 1356 3103 1142 2972 
Q 928 2841 928 2578 
Q 928 2378 1081 2264 
Q 1234 2150 1697 2047 
L 1894 2003 
Q 2506 1872 2764 1633 
Q 3022 1394 3022 966 
Q 3022 478 2636 193 
Q 2250 -91 1575 -91 
Q 1294 -91 989 -36 
Q 684 19 347 128 
L 347 722 
Q 666 556 975 473 
Q 1284 391 1588 391 
Q 1994 391 2212 530 
Q 2431 669 2431 922 
Q 2431 1156 2273 1281 
Q 2116 1406 1581 1522 
L 1381 1569 
Q 847 1681 609 1914 
Q 372 2147 372 2553 
Q 372 3047 722 3315 
Q 1072 3584 1716 3584 
Q 2034 3584 2315 3537 
Q 2597 3491 2834 3397 
z
" transform="scale(0.015625)"/>
      <path id="DejaVuSans-68" d="M 3513 2113 
L 3513 0 
L 2938 0 
L 2938 2094 
Q 2938 2591 2744 2837 
Q 2550 3084 2163 3084 
Q 1697 3084 1428 2787 
Q 1159 2491 1159 1978 
L 1159 0 
L 581 0 
L 581 4863 
L 1159 4863 
L 1159 2956 
Q 1366 3272 1645 3428 
Q 1925 3584 2291 3584 
Q 2894 3584 3203 3211 
Q 3513 2838 3513 2113 
z
" transform="scale(0.015625)"/>
      <path id="DejaVuSans-76" d="M 191 3500 
L 800 3500 
L 1894 563 
L 2988 3500 
L 3597 3500 
L 2284 0 
L 1503 0 
L 191 3500 
z
" transform="scale(0.015625)"/>
      <path id="DejaVuSans-69" d="M 603 3500 
L 1178 3500 
L 1178 0 
L 603 0 
L 603 3500 
z
M 603 4863 
L 1178 4863 
L 1178 4134 
L 603 4134 
L 603 4863 
z
" transform="scale(0.015625)"/>
      <path id="DejaVuSans-6c" d="M 603 4863 
L 1178 4863 
L 1178 0 
L 603 0 
L 603 4863 
z
" transform="scale(0.015625)"/>
      <path id="DejaVuSans-65" d="M 3597 1894 
L 3597 1613 
L 953 1613 
Q 991 1019 1311 708 
Q 1631 397 2203 397 
Q 2534 397 2845 478 
Q 3156 559 3463 722 
L 3463 178 
Q 3153 47 2828 -22 
Q 2503 -91 2169 -91 
Q 1331 -91 842 396 
Q 353 884 353 1716 
Q 353 2575 817 3079 
Q 1281 3584 2069 3584 
Q 2775 3584 3186 3129 
Q 3597 2675 3597 1894 
z
M 3022 2063 
Q 3016 2534 2758 2815 
Q 2500 3097 2075 3097 
Q 1594 3097 1305 2825 
Q 1016 2553 972 2059 
L 3022 2063 
z
" transform="scale(0.015625)"/>
     </defs>
     <use xlink:href="#DejaVuSans-4e"/>
     <use xlink:href="#DejaVuSans-61" x="74.804688"/>
     <use xlink:href="#DejaVuSans-73" x="136.083984"/>
     <use xlink:href="#DejaVuSans-68" x="188.183594"/>
     <use xlink:href="#DejaVuSans-76" x="251.5625"/>
     <use xlink:href="#DejaVuSans-69" x="310.742188"/>
     <use xlink:href="#DejaVuSans-6c" x="338.525391"/>
     <use xlink:href="#DejaVuSans-6c" x="366.308594"/>
     <use xlink:href="#DejaVuSans-65" x="394.091797"/>
    </g>
   </g>
   <g id="text_2">
    <!-- Tennessee -->
    <g transform="translate(153.231562 148.504375) scale(0.12 -0.12)">
     <defs>
      <path id="DejaVuSans-54" d="M -19 4666 
L 3928 4666 
L 3928 4134 
L 2272 4134 
L 2272 0 
L 1638 0 
L 1638 4134 
L -19 4134 
L -19 4666 
z
" transform="scale(0.015625)"/>
      <path id="DejaVuSans-6e" d="M 3513 2113 
L 3513 0 
L 2938 0 
L 2938 2094 
Q 2938 2591 2744 2837 
Q 2550 3084 2163 3084 
Q 1697 3084 1428 2787 
Q 1159 2491 1159 1978 
L 1159 0 
L 581 0 
L 581 3500 
L 1159 3500 
L 1159 2956 
Q 1366 3272 1645 3428 
Q 1925 3584 2291 3584 
Q 2894 3584 3203 3211 
Q 3513 2838 3513 2113 
z
" transform="scale(0.015625)"/>
     </defs>
     <use xlink:href="#DejaVuSans-54"/>
     <use xlink:href="#DejaVuSans-65" x="44.083984"/>
     <use xlink:href="#DejaVuSans-6e" x="105.607422"/>
     <use xlink:href="#DejaVuSans-6e" x="168.986328"/>
     <use xlink:href="#DejaVuSans-65" x="232.365234"/>
     <use xlink:href="#DejaVuSans-73" x="293.888672"/>
     <use xlink:href="#DejaVuSans-73" x="345.988281"/>
     <use xlink:href="#DejaVuSans-65" x="398.087891"/>
     <use xlink:href="#DejaVuSans-65" x="459.611328"/>
    </g>
   </g>
  </g>
 </g>
 <defs>
  <clipPath id="pee6684f5db">
   <rect x="45" y="154.504375" width="279" height="54.591251"/>
  </clipPath>
 </defs>
</svg>
