<?xml version="1.0" encoding="utf-8" standalone="no"?>
<!DOCTYPE svg PUBLIC "-//W3C//DTD SVG 1.1//EN"
  "http://www.w3.org/Graphics/SVG/1.1/DTD/svg11.dtd">
<svg xmlns:xlink="http://www.w3.org/1999/xlink" width="360pt" height="360pt" viewBox="0 0 360 360" xmlns="http://www.w3.org/2000/svg" version="1.1">
 <metadata>
  <rdf:RDF xmlns:dc="http://purl.org/dc/elements/1.1/" xmlns:cc="http://creativecommons.org/ns#" xmlns:rdf="http://www.w3.org/1999/02/22-rdf-syntax-ns#">
   <cc:Work>
    <dc:type rdf:resource="http://purl.org/dc/dcmitype/StillImage"/>
    <dc:date>2023-06-19T15:20:25.740712</dc:date>
    <dc:format>image/svg+xml</dc:format>
    <dc:creator>
     <cc:Agent>
      <dc:title>Matplotlib v3.7.1, https://matplotlib.org/</dc:title>
     </cc:Agent>
    </dc:creator>
   </cc:Work>
  </rdf:RDF>
 </metadata>
 <defs>
  <style type="text/css">*{stroke-linejoin: round; stroke-linecap: butt}</style>
 </defs>
 <g id="figure_1">
  <g id="patch_1">
   <path d="M 0 360 
L 360 360 
L 360 0 
L 0 0 
z
" style="fill: #ffffff"/>
  </g>
  <g id="axes_1">
   <g id="PatchCollection_1">
    <path d="M 57.681818 167.70452 
L 57.771438 167.589999 
L 57.909991 167.489696 
L 58.059151 167.442617 
L 58.327371 167.318397 
L 58.32003 167.273192 
L 58.152982 167.155483 
L 58.097286 167.079928 
L 58.136464 166.980803 
L 58.127481 166.886702 
L 58.265745 166.732887 
L 58.282706 166.659688 
L 58.218337 166.596825 
L 58.147843 166.569798 
L 58.132967 166.500464 
L 58.18619 166.42742 
L 58.11249 166.270146 
L 57.97865 166.302215 
L 57.822709 166.194765 
L 57.796764 166.126609 
L 57.855435 166.022848 
L 57.958017 165.943835 
L 58.10511 165.920845 
L 58.184703 165.848709 
L 58.203287 165.737395 
L 58.619624 165.733531 
L 58.895051 165.733025 
L 59.25007 165.732372 
L 60.856554 165.726693 
L 62.534304 165.718289 
L 62.865005 165.724206 
L 62.871164 165.724316 
L 63.852088 165.719069 
L 63.90262 165.718798 
L 64.098943 165.717748 
L 66.173615 165.712918 
L 66.274381 165.712474 
L 66.638712 165.707355 
L 67.72647 165.698024 
L 69.176974 165.700355 
L 70.190201 165.701984 
L 72.071899 165.706389 
L 72.35088 165.7089 
L 72.970971 165.701559 
L 74.971111 165.704341 
L 75.341354 165.716743 
L 81.17716 165.735811 
L 81.190664 165.735367 
L 81.22028 165.734633 
L 81.928367 165.735231 
L 86.495342 165.737356 
L 86.566512 165.737356 
L 86.606502 165.737588 
L 86.902541 165.736951 
L 86.932273 165.736835 
L 87.189926 165.737588 
L 87.951758 165.736661 
L 87.981876 165.735772 
L 91.047539 165.737375 
L 91.049181 165.737376 
L 92.411766 165.737639 
L 96.356911 165.7384 
L 96.407294 165.739308 
L 98.512663 165.74095 
L 98.51616 165.744698 
L 102.420813 165.745521 
L 108.315272 165.746765 
L 109.171901 165.744543 
L 111.194625 165.736255 
L 113.651169 165.743133 
L 114.142539 165.742932 
L 121.800098 165.73981 
L 122.727008 165.738863 
L 122.884224 165.74066 
L 122.935901 165.740699 
L 122.93735 165.737781 
L 123.941767 165.737047 
L 126.394138 165.738207 
L 126.448656 165.737975 
L 126.863099 165.736951 
L 126.864626 164.065247 
L 126.864548 163.369968 
L 126.863119 162.945633 
L 126.857825 155.658877 
L 126.85657 154.387901 
L 126.856048 154.148079 
L 126.85657 154.119758 
L 126.855526 153.681726 
L 126.859042 153.258976 
L 126.85458 152.559118 
L 126.855855 152.402366 
L 126.855836 152.055924 
L 126.855295 151.709463 
L 126.855681 150.730489 
L 126.857787 150.6088 
L 126.857536 150.589655 
L 126.857767 149.76015 
L 126.858258 149.743101 
L 126.858289 149.74201 
L 126.854097 149.338462 
L 126.853575 149.185825 
L 126.855681 149.177402 
L 126.854618 148.971658 
L 126.857729 148.758978 
L 126.860279 148.359874 
L 126.858579 147.218468 
L 126.858154 147.116543 
L 126.859197 146.430227 
L 126.862539 146.229487 
L 126.871658 145.680778 
L 126.873106 145.615829 
L 126.914078 143.706583 
L 126.946556 142.193138 
L 126.953955 141.477632 
L 126.963189 141.398252 
L 126.989965 140.338371 
L 126.997094 140.063215 
L 127.013161 138.924583 
L 127.013167 138.924166 
L 127.091301 135.405524 
L 127.091311 135.405056 
L 127.109586 134.267378 
L 127.115401 134.026648 
L 127.112079 133.861725 
L 127.120733 133.71299 
L 127.131455 133.43824 
L 127.138874 132.867122 
L 127.149306 132.17561 
L 127.159197 132.011323 
L 127.193005 130.496642 
L 127.201485 130.001601 
L 127.225885 129.01177 
L 127.224842 128.919774 
L 127.240393 128.160202 
L 127.258611 127.599729 
L 127.265044 127.03941 
L 127.265916 126.893642 
L 127.266705 126.761588 
L 127.266242 126.477603 
L 127.262552 126.389123 
L 127.262069 126.307135 
L 127.263035 126.292028 
L 127.262146 126.268362 
L 127.26259 126.143931 
L 127.263711 125.891011 
L 127.266995 125.576039 
L 127.265971 125.410574 
L 127.265758 124.929788 
L 127.264522 122.146567 
L 127.263073 121.517976 
L 127.258881 121.264051 
L 127.258876 121.262834 
L 127.258052 121.067694 
L 127.258051 121.067406 
L 127.258688 119.777092 
L 127.258727 119.775064 
L 127.25921 119.750799 
L 127.263576 119.699373 
L 127.264793 119.677891 
L 127.265102 119.672501 
L 127.265121 119.600828 
L 127.265121 119.56677 
L 127.265662 119.50352 
L 127.26516 119.438049 
L 127.265701 119.369024 
L 127.26657 119.276584 
L 127.26572 118.306902 
L 127.265604 118.22953 
L 127.265585 118.227367 
L 127.265488 118.171613 
L 127.275573 115.136223 
L 127.271438 114.492583 
L 127.280306 114.143127 
L 127.281426 112.671565 
L 127.281407 111.804871 
L 127.281194 110.68402 
L 127.286217 109.731551 
L 127.28561 108.676827 
L 127.28388 105.667538 
L 127.271921 105.374957 
L 127.286236 105.171377 
L 127.284691 105.032862 
L 127.282547 104.994823 
L 127.285309 104.713099 
L 127.288651 104.341118 
L 127.289733 104.276419 
L 127.289212 104.259728 
L 127.288999 104.252715 
L 127.286681 103.698018 
L 127.28131 103.130532 
L 127.289212 102.96016 
L 127.304898 95.765284 
L 127.310349 93.506045 
L 127.31278 92.498573 
L 127.297886 92.404722 
L 127.301769 92.064115 
L 127.292689 91.848808 
L 127.309709 91.607769 
L 127.319001 87.405241 
L 127.30258 82.337893 
L 127.301208 82.323732 
L 127.29775 78.804409 
L 128.060645 78.80522 
L 142.587927 78.805761 
L 142.693465 78.79929 
L 144.287778 78.806592 
L 145.00282 78.806631 
L 145.068194 78.799676 
L 146.801601 78.801104 
L 148.773923 78.802728 
L 150.776884 78.819574 
L 150.778178 78.821873 
L 151.519784 78.819111 
L 151.611567 78.818512 
L 151.638072 78.818338 
L 151.664674 78.818164 
L 151.687374 78.818029 
L 153.042019 78.818261 
L 153.247357 78.822395 
L 154.116253 78.821139 
L 154.188544 78.821139 
L 154.691815 78.822008 
L 165.099929 78.827495 
L 165.732384 78.821332 
L 165.869295 78.821777 
L 167.18766 78.820714 
L 167.630735 78.820638 
L 167.980305 78.820579 
L 168.319252 78.820212 
L 168.982636 78.819033 
L 168.984452 78.819033 
L 169.456272 78.818937 
L 169.626605 78.818686 
L 170.140559 78.82027 
L 170.140907 78.82027 
L 170.489184 78.819188 
L 170.489532 78.819961 
L 170.552569 78.820212 
L 170.553013 78.820212 
L 171.346528 78.82027 
L 171.346528 78.821004 
L 172.069993 78.821004 
L 172.070012 78.821429 
L 172.373992 78.821525 
L 172.373953 78.822144 
L 173.356598 78.822878 
L 173.356598 78.822549 
L 173.53858 78.822646 
L 173.538561 78.823264 
L 174.615191 78.823148 
L 174.616311 78.823148 
L 174.616408 78.823921 
L 174.790508 78.822878 
L 174.793599 78.823651 
L 174.895312 78.823264 
L 174.895312 78.823728 
L 175.512911 78.825582 
L 175.801339 78.825621 
L 175.801339 78.826606 
L 175.815576 78.827572 
L 175.818745 78.825312 
L 175.974975 78.826587 
L 177.542918 78.822743 
L 177.542937 78.823283 
L 177.680196 78.823399 
L 177.924211 78.823573 
L 177.924732 78.822781 
L 178.072848 78.823631 
L 178.074471 78.823148 
L 178.749002 78.822221 
L 178.749814 78.823612 
L 179.266395 78.8228 
L 179.266588 78.823071 
L 179.602308 78.824095 
L 179.602753 78.823708 
L 179.801561 78.819091 
L 180.050869 78.820019 
L 180.055254 78.818917 
L 180.062499 78.819806 
L 182.562761 78.81998 
L 184.324625 78.819961 
L 185.991037 78.818696 
L 186.055869 78.818647 
L 186.056004 87.396625 
L 186.056058 90.772159 
L 186.056139 95.830427 
L 186.0562 99.631397 
L 186.056274 104.261351 
L 186.056301 107.203915 
L 186.056352 112.688952 
L 186.056352 112.690942 
L 186.056352 116.281299 
L 186.111982 116.282944 
L 186.3374 116.289606 
L 186.551277 116.265671 
L 186.613232 116.249037 
L 186.72812 116.178234 
L 186.857749 116.073392 
L 186.883964 116.045611 
L 186.883732 116.017406 
L 186.899883 115.971911 
L 186.941418 115.939629 
L 187.11233 115.918804 
L 187.428886 115.96824 
L 187.547174 116.010007 
L 187.574414 116.093058 
L 187.690905 116.175703 
L 188.016 116.372194 
L 188.07272 116.377487 
L 188.116129 116.402814 
L 188.243883 116.50273 
L 188.490081 116.733627 
L 188.512278 116.767319 
L 188.529607 116.830201 
L 188.595367 116.916768 
L 188.902283 117.226292 
L 189.064711 117.319139 
L 189.291787 117.44894 
L 189.438203 117.496696 
L 189.576119 117.685169 
L 189.565436 117.740497 
L 189.65094 117.909961 
L 190.049465 118.340961 
L 190.256136 118.525068 
L 190.396062 118.527753 
L 190.59203 118.657903 
L 190.606964 118.678265 
L 190.605882 118.700829 
L 190.552446 118.766744 
L 190.560444 118.792863 
L 190.811317 118.970846 
L 191.069047 119.09692 
L 191.273033 119.16498 
L 191.467939 119.260511 
L 191.542181 119.32774 
L 191.567817 119.367555 
L 191.584373 119.424198 
L 191.572666 119.487911 
L 191.614317 119.557381 
L 191.70668 119.622852 
L 191.927666 119.748481 
L 192.27886 119.772378 
L 192.412275 119.812658 
L 192.516306 119.880833 
L 192.579807 119.890589 
L 192.644389 119.876873 
L 192.744228 119.835744 
L 192.83178 119.770717 
L 193.194141 119.845635 
L 193.323731 119.892579 
L 193.790682 119.871116 
L 193.86222 119.823805 
L 194.030814 119.655153 
L 194.072426 119.596289 
L 194.090025 119.552029 
L 194.075053 119.418402 
L 194.091011 119.233889 
L 194.176399 119.060408 
L 194.286381 119.028957 
L 194.376618 119.02631 
L 194.521354 119.047541 
L 194.641477 119.099296 
L 194.771762 119.136485 
L 195.147627 119.160884 
L 195.266166 119.146318 
L 195.38258 119.102117 
L 195.447182 119.110984 
L 195.725468 119.196508 
L 195.779251 119.232769 
L 195.836956 119.290261 
L 195.90801 119.388033 
L 195.969965 119.421628 
L 196.156815 119.452538 
L 196.203639 119.451713 
L 196.283894 119.450297 
L 196.637831 119.609078 
L 196.785175 119.770582 
L 196.867492 119.882031 
L 197.056139 119.895728 
L 197.260202 119.759531 
L 197.483989 119.908053 
L 197.516445 119.911357 
L 197.597738 119.894434 
L 197.662591 119.863563 
L 197.70799 119.809625 
L 197.819284 119.273338 
L 197.772398 119.087048 
L 197.722768 119.048082 
L 197.71477 119.021094 
L 197.712684 118.918415 
L 197.752365 118.568824 
L 198.021764 118.282193 
L 198.130837 118.245314 
L 198.242016 118.248134 
L 198.450947 118.302922 
L 198.530598 118.380313 
L 198.527411 118.422795 
L 198.490048 118.482992 
L 198.483654 118.514423 
L 198.491169 118.567955 
L 198.612992 118.665727 
L 198.788213 118.782064 
L 198.929239 118.850162 
L 199.032845 118.949712 
L 199.118852 119.102812 
L 199.208027 119.210784 
L 199.23204 119.221854 
L 199.270485 119.223612 
L 199.426947 119.188664 
L 199.604215 119.107255 
L 199.690183 119.085136 
L 199.781483 119.097538 
L 200.279036 119.28265 
L 200.334017 119.314526 
L 200.379242 119.551295 
L 200.336528 119.584041 
L 200.272448 119.612304 
L 200.089886 119.622446 
L 200.063188 119.641011 
L 200.071186 119.673756 
L 200.141603 119.737508 
L 200.384728 119.910797 
L 200.461501 119.915221 
L 200.525523 119.863543 
L 200.572641 119.846079 
L 200.689017 119.91014 
L 200.799365 120.10238 
L 200.856954 120.281232 
L 200.875848 120.462017 
L 200.888753 120.495264 
L 200.939213 120.530849 
L 201.013416 120.546536 
L 201.094129 120.540856 
L 201.136746 120.514641 
L 201.183768 120.511878 
L 201.264907 120.534114 
L 201.311638 120.612644 
L 201.330803 120.832279 
L 201.294561 121.044108 
L 201.258319 121.107821 
L 201.293633 121.464057 
L 201.330455 121.577786 
L 201.372589 121.632652 
L 201.447545 121.663156 
L 201.514369 121.678108 
L 201.590909 121.6721 
L 201.603563 121.684155 
L 201.623558 121.846722 
L 201.578043 122.06879 
L 201.573658 122.390079 
L 201.604568 122.471952 
L 201.68984 122.621092 
L 201.709024 122.672866 
L 201.711149 122.72066 
L 201.671739 122.817138 
L 201.660012 122.882184 
L 201.671198 122.923352 
L 201.721291 122.969369 
L 202.310414 123.074308 
L 202.600793 122.960656 
L 202.712166 122.875731 
L 202.8592 122.870921 
L 202.899673 122.883324 
L 202.918315 122.898392 
L 202.936378 122.949722 
L 202.918779 122.97982 
L 202.869226 123.010325 
L 202.840963 123.06519 
L 202.834549 123.103248 
L 202.874983 123.160798 
L 202.937286 123.187825 
L 203.07953 123.212108 
L 203.281333 123.180155 
L 203.601385 123.065885 
L 203.845882 123.023345 
L 203.914599 123.029083 
L 204.098378 123.083504 
L 204.216627 123.153882 
L 204.23952 123.189274 
L 204.246455 123.221594 
L 204.260287 123.234866 
L 204.439797 123.280458 
L 204.542591 123.280477 
L 204.591062 123.229592 
L 204.628888 123.155698 
L 204.658735 123.121175 
L 204.681647 123.112327 
L 205.129802 123.183613 
L 205.270539 123.117447 
L 205.326061 123.076201 
L 205.316073 122.966394 
L 205.367692 122.905019 
L 205.559121 122.827937 
L 205.627857 122.835858 
L 205.742417 122.906178 
L 205.794172 123.048209 
L 205.834702 123.124324 
L 205.882129 123.176968 
L 205.981215 123.220763 
L 206.033395 123.220299 
L 206.107424 123.155678 
L 206.114862 123.122489 
L 206.110573 123.027325 
L 206.13986 122.994136 
L 206.184602 122.978198 
L 206.29978 123.001477 
L 206.302783 123.002853 
L 206.340678 123.020216 
L 206.537265 123.174649 
L 206.770538 123.387097 
L 206.783848 123.416732 
L 206.86744 123.516745 
L 206.914288 123.565872 
L 206.960093 123.596859 
L 207.133652 123.680548 
L 207.837373 123.891411 
L 207.864014 123.92149 
L 207.870428 123.960417 
L 207.850761 124.009989 
L 207.798098 124.075962 
L 207.799702 124.102506 
L 207.830631 124.142322 
L 207.930219 124.218843 
L 208.037747 124.228966 
L 208.084594 124.213473 
L 208.117552 124.159013 
L 208.127578 124.025811 
L 208.138745 123.997471 
L 208.172301 123.98729 
L 208.645029 123.976993 
L 208.995876 124.048665 
L 209.11457 124.097793 
L 209.40039 124.332804 
L 209.911272 124.47499 
L 209.984162 124.525045 
L 210.008098 124.552033 
L 210.028807 124.619764 
L 210.025581 124.657822 
L 210.076119 124.701849 
L 210.225761 124.70948 
L 210.367271 124.68452 
L 210.415664 124.64851 
L 210.458725 124.579002 
L 210.466684 124.532985 
L 210.492745 124.497554 
L 210.515619 124.486929 
L 210.839207 124.47356 
L 210.86689 124.483278 
L 211.245266 124.530145 
L 211.369794 124.537215 
L 212.034685 124.052258 
L 212.13267 123.958466 
L 212.18116 123.932811 
L 212.274855 123.931072 
L 212.41961 123.987348 
L 212.691308 124.072794 
L 212.786607 124.087805 
L 212.881346 124.0851 
L 212.913628 124.074654 
L 212.938838 124.066496 
L 213.033017 124.013795 
L 213.113943 124.007574 
L 213.551569 124.231845 
L 213.642077 124.306628 
L 213.878924 124.536307 
L 213.909795 124.631896 
L 214.058085 124.804219 
L 214.341297 125.035869 
L 214.450371 125.180759 
L 214.496948 125.275073 
L 214.960944 125.711482 
L 215.30586 125.900284 
L 215.388698 125.90662 
L 215.523427 125.868002 
L 216.026331 125.690405 
L 216.077622 125.652386 
L 216.089116 125.625398 
L 216.092961 125.577662 
L 216.128913 125.522526 
L 216.146609 125.503362 
L 216.199078 125.480817 
L 216.352952 125.45549 
L 216.423407 125.457403 
L 216.486193 125.471389 
L 216.527034 125.495563 
L 216.543704 125.505429 
L 216.587326 125.516035 
L 216.629479 125.505584 
L 216.694912 125.466077 
L 216.977911 125.178248 
L 217.004725 125.089517 
L 217.009149 124.764384 
L 216.964059 124.757004 
L 216.954922 124.748156 
L 217.003721 124.627994 
L 217.275341 124.282943 
L 217.33606 124.22234 
L 217.601576 124.09219 
L 217.668631 124.074456 
L 218.413907 124.19199 
L 218.469255 124.217201 
L 218.543246 124.280934 
L 218.901433 124.509706 
L 219.023296 124.539823 
L 219.285643 124.583677 
L 219.746471 124.608192 
L 219.910931 124.584314 
L 220.045022 124.53822 
L 220.348924 124.651389 
L 220.381418 124.692963 
L 220.519296 124.756173 
L 220.765648 124.836249 
L 220.83589 124.853501 
L 221.002417 124.873399 
L 221.4339 124.903961 
L 221.660083 124.782331 
L 221.71916 124.738535 
L 221.943256 124.475318 
L 222.016188 124.370101 
L 222.058859 124.30854 
L 222.173883 124.201515 
L 222.317595 124.124085 
L 222.488971 124.120473 
L 222.586414 124.132373 
L 222.632721 124.162897 
L 222.731787 124.273032 
L 222.958067 124.594669 
L 222.967127 124.632727 
L 222.949644 124.753102 
L 222.915624 124.850912 
L 222.863521 124.96155 
L 222.78219 125.094752 
L 222.685963 125.2125 
L 222.394097 125.477668 
L 222.362762 125.539642 
L 222.378815 125.716196 
L 222.420892 125.813987 
L 222.487406 125.906427 
L 222.786671 126.169953 
L 222.843063 126.247498 
L 222.836011 126.317992 
L 222.821909 126.356765 
L 222.807825 126.370848 
L 222.73028 126.388486 
L 222.691508 126.409621 
L 222.663302 126.455444 
L 222.663302 126.504784 
L 222.699332 126.545354 
L 222.99711 127.003709 
L 223.053965 127.046635 
L 223.100735 127.062998 
L 223.634742 127.189941 
L 223.906749 127.236016 
L 224.166489 127.237928 
L 224.324651 127.229293 
L 224.591597 127.187565 
L 224.944723 127.113014 
L 225.033241 127.071942 
L 225.121392 127.005525 
L 225.200019 126.97985 
L 225.248374 127.004617 
L 225.312705 127.099355 
L 225.415326 127.220967 
L 225.506182 127.286438 
L 225.553995 127.300154 
L 225.615081 127.300579 
L 225.713915 127.282439 
L 225.735147 127.28864 
L 225.7495 127.305891 
L 225.74525 127.333768 
L 225.533382 127.911281 
L 225.467042 128.038282 
L 225.362992 128.125912 
L 225.22921 128.18126 
L 225.200019 128.214005 
L 225.202164 128.263132 
L 225.232455 128.309149 
L 225.257937 128.324179 
L 225.358819 128.3423 
L 225.407656 128.341411 
L 225.560544 128.303759 
L 225.580713 128.311719 
L 225.601423 128.337393 
L 225.615255 128.471909 
L 225.595627 128.570608 
L 225.528784 128.76223 
L 225.461942 128.841437 
L 225.387642 128.898543 
L 225.283089 128.92557 
L 225.219917 128.886643 
L 225.14612 128.799032 
L 225.110554 128.799052 
L 225.087739 128.821191 
L 225.018829 128.964149 
L 224.999742 129.027882 
L 224.99924 129.059294 
L 225.014637 129.095555 
L 225.12881 129.236021 
L 225.129798 129.236902 
L 225.199923 129.299502 
L 225.323581 129.380892 
L 225.503999 129.443697 
L 225.643537 129.458282 
L 225.735321 129.449415 
L 225.807456 129.430831 
L 225.88334 129.429942 
L 225.923117 129.443214 
L 226.527328 129.745996 
L 226.695961 129.853137 
L 227.069797 130.002837 
L 227.18455 130.026696 
L 227.294319 130.019123 
L 227.901544 129.859203 
L 228.460047 129.482566 
L 228.497718 129.424166 
L 228.534327 129.328577 
L 228.861218 129.22244 
L 228.939247 129.127759 
L 228.95731 129.056087 
L 228.944617 128.948095 
L 228.879378 128.837457 
L 229.092753 128.763621 
L 229.23235 128.780042 
L 229.264728 128.766345 
L 229.333232 128.709297 
L 229.34917 128.677885 
L 229.340766 128.554439 
L 229.286152 128.445558 
L 229.284085 128.376977 
L 229.473621 128.325725 
L 229.753336 128.318538 
L 229.790505 128.334882 
L 229.845196 128.338417 
L 229.873324 128.332641 
L 230.00813 128.248527 
L 230.172667 128.120618 
L 230.309598 127.978993 
L 230.416334 127.817895 
L 230.536844 127.54753 
L 230.629786 127.424508 
L 230.72806 127.368329 
L 231.042008 127.276315 
L 231.240662 127.286979 
L 231.342645 127.312672 
L 231.776002 127.471684 
L 232.252922 127.725996 
L 232.629501 128.00687 
L 232.644377 128.039171 
L 232.592487 128.496676 
L 232.523519 128.598022 
L 232.502829 128.614404 
L 232.48691 128.650684 
L 232.484283 128.696276 
L 232.50024 128.775464 
L 232.636147 128.965695 
L 232.671172 128.993572 
L 232.761911 129.026297 
L 233.178586 129.089052 
L 233.234717 129.097506 
L 233.29785 129.093971 
L 233.364712 129.081124 
L 233.524961 129.016561 
L 233.728251 128.914404 
L 233.872098 128.814449 
L 233.990058 128.777994 
L 234.34187 128.661986 
L 234.459753 128.669423 
L 234.621122 128.713161 
L 234.668796 128.736964 
L 235.1259 128.965192 
L 235.170468 129.009877 
L 235.30792 129.207642 
L 235.297971 129.603057 
L 235.1792 129.908369 
L 235.141548 129.943336 
L 235.104456 130.015897 
L 235.07797 130.166351 
L 235.151169 130.305271 
L 235.267293 130.422053 
L 235.438534 130.514068 
L 235.780475 130.598587 
L 236.091621 130.60927 
L 236.815029 130.597505 
L 236.896109 130.558539 
L 236.958644 130.514261 
L 237.093759 130.393423 
L 237.290326 130.125704 
L 237.434019 129.809651 
L 237.463151 129.666808 
L 237.518557 129.566409 
L 237.587795 129.535248 
L 237.660511 129.535248 
L 237.691672 129.545622 
L 237.712459 129.569867 
L 237.757452 129.697969 
L 237.79209 129.718756 
L 237.871722 129.715279 
L 237.916735 129.701427 
L 237.945713 129.679192 
L 238.079456 129.462533 
L 238.176416 129.424455 
L 238.238738 129.424455 
L 238.33568 129.497152 
L 238.494943 129.649499 
L 238.627759 129.726213 
L 238.700397 129.751907 
L 238.774117 129.764754 
L 239.062101 129.750729 
L 239.081207 129.742769 
L 239.108272 129.711376 
L 239.205368 129.522478 
L 239.263884 129.034817 
L 239.287723 128.981729 
L 239.342859 128.920199 
L 239.643651 128.758598 
L 239.945042 128.731127 
L 240.037385 128.765592 
L 240.436953 129.027939 
L 240.52607 129.134115 
L 240.549948 129.191182 
L 240.800705 130.059345 
L 240.796938 130.192953 
L 240.70415 130.290705 
L 240.515928 130.367207 
L 240.421576 130.376499 
L 240.277922 130.368521 
L 240.236561 130.378257 
L 240.204762 130.397731 
L 240.161817 130.445506 
L 240.088135 130.5517 
L 240.059524 130.608787 
L 240.046832 130.783544 
L 240.051101 130.944585 
L 240.093506 131.02466 
L 240.256749 131.256465 
L 240.341538 131.33743 
L 240.391863 131.558648 
L 240.50679 131.825864 
L 240.693235 132.179879 
L 240.867934 132.338737 
L 241.024087 132.433012 
L 241.133662 132.480825 
L 241.362859 132.544635 
L 241.583633 132.577921 
L 241.680226 132.57342 
L 241.831627 132.54193 
L 241.915257 132.513146 
L 242.000472 132.468442 
L 242.14287 132.367966 
L 242.202159 132.306474 
L 242.260366 132.226823 
L 242.354584 132.056471 
L 242.3836 131.878469 
L 242.385146 131.746213 
L 242.373458 131.639593 
L 242.322572 131.473704 
L 242.205405 131.184832 
L 242.179923 131.086615 
L 242.188907 131.001691 
L 242.240275 130.894182 
L 242.319733 130.80435 
L 242.501502 130.726902 
L 242.706531 130.693673 
L 243.08964 130.636104 
L 243.075441 130.486307 
L 242.902732 130.30645 
L 242.407613 130.191774 
L 242.271822 130.107062 
L 242.33426 129.940786 
L 242.704715 129.805227 
L 242.941041 129.896488 
L 243.035432 130.073698 
L 243.222958 130.243838 
L 243.269072 130.234121 
L 243.55806 130.119194 
L 243.674784 130.004653 
L 244.298584 129.30184 
L 244.329416 129.194409 
L 244.310716 128.947458 
L 244.237189 128.684685 
L 244.135727 128.481626 
L 244.115906 128.422589 
L 244.093497 128.235333 
L 244.109241 128.12765 
L 244.130106 128.090867 
L 244.196813 128.023349 
L 244.253668 127.985291 
L 244.380302 127.952314 
L 244.417432 127.956178 
L 244.418746 127.976424 
L 244.393072 128.040484 
L 244.386213 128.091756 
L 244.409647 128.238037 
L 244.464956 128.31792 
L 244.525772 128.351844 
L 244.55021 128.34995 
L 244.941007 128.180197 
L 245.0898 128.090655 
L 245.279516 127.991322 
L 245.328559 127.965644 
L 245.4828 127.898589 
L 245.524412 127.890475 
L 245.59195 127.90309 
L 245.636731 127.924881 
L 245.732629 127.999026 
L 245.808918 128.075045 
L 245.850144 128.129254 
L 245.904604 128.22973 
L 245.962405 128.389882 
L 246.01984 128.784176 
L 246.005834 128.984395 
L 246.034155 129.110739 
L 246.27985 129.659293 
L 246.429164 129.804454 
L 246.599999 129.946562 
L 246.799909 130.055887 
L 246.906104 130.061276 
L 246.996843 130.027198 
L 247.079991 129.951488 
L 247.094924 129.743793 
L 247.115035 129.65201 
L 247.160724 129.594962 
L 247.262263 129.527617 
L 247.63664 129.569906 
L 247.994074 129.642544 
L 248.202542 129.745938 
L 248.258875 129.812317 
L 248.277827 129.854026 
L 248.323921 130.042904 
L 248.332344 130.16241 
L 248.449995 130.401092 
L 248.47507 130.442511 
L 248.535789 130.481516 
L 248.625563 130.501839 
L 248.771361 130.496971 
L 248.925968 130.47686 
L 249.575385 130.362223 
L 249.658224 130.334655 
L 249.729258 130.296771 
L 249.823592 130.218956 
L 249.994871 130.008189 
L 250.043496 129.91828 
L 250.110416 129.758089 
L 250.15906 129.546144 
L 250.161108 129.49265 
L 250.134816 129.346369 
L 250.183441 129.114796 
L 250.292417 128.865392 
L 250.328292 128.804268 
L 250.382983 128.753344 
L 250.449266 128.714204 
L 250.502914 128.707887 
L 250.590118 128.719497 
L 250.896242 128.926285 
L 251.165409 129.129903 
L 251.200627 129.14816 
L 251.601142 129.143175 
L 251.883465 129.126156 
L 251.969029 129.140354 
L 251.980329 129.142229 
L 252.028278 129.209902 
L 252.030056 129.254973 
L 251.988829 129.345712 
L 251.938253 129.414989 
L 251.798463 129.522478 
L 251.714659 129.566486 
L 251.515985 129.640033 
L 251.256555 129.881014 
L 251.187587 129.960897 
L 251.172557 129.990667 
L 251.167245 130.054901 
L 251.181386 130.094563 
L 251.299906 130.171934 
L 251.722927 130.310178 
L 251.88389 130.376074 
L 251.997079 130.432234 
L 252.270051 130.604383 
L 252.398308 130.615723 
L 252.689537 130.603784 
L 253.04419 130.528904 
L 253.114336 130.545866 
L 253.164159 130.569744 
L 253.218096 130.623392 
L 253.294444 130.754122 
L 253.358717 130.912129 
L 253.370791 130.993924 
L 253.371699 131.209115 
L 253.448935 131.331151 
L 253.634936 131.486049 
L 253.673921 131.502991 
L 253.948401 131.494742 
L 254.468189 131.451816 
L 254.524213 131.436303 
L 254.63518 131.348345 
L 254.6828 131.339787 
L 254.906704 131.358738 
L 255.027272 131.385707 
L 255.173533 131.436187 
L 255.225346 131.494278 
L 255.271692 131.571476 
L 255.299047 131.628253 
L 255.351941 131.79024 
L 255.447356 131.916237 
L 255.543216 132.010956 
L 255.917824 132.322915 
L 256.008854 132.406462 
L 256.198447 132.580471 
L 256.249545 132.688405 
L 256.32087 132.884914 
L 256.32315 133.016957 
L 256.341251 133.063264 
L 256.462032 133.153347 
L 256.609626 133.168339 
L 256.718603 133.156825 
L 257.135152 132.99986 
L 257.180416 132.967927 
L 257.215866 132.924576 
L 257.350343 132.702565 
L 257.406928 132.519076 
L 257.415409 132.387729 
L 257.400089 132.228948 
L 257.424991 132.113094 
L 257.484705 131.922303 
L 257.509877 131.866704 
L 257.641997 131.653909 
L 257.688072 131.622071 
L 257.981967 131.558011 
L 258.124404 131.583704 
L 258.542924 131.765667 
L 258.914017 131.977496 
L 259.078264 131.989687 
L 259.476635 131.898367 
L 259.54463 131.876673 
L 259.734462 131.816108 
L 259.898574 131.736071 
L 259.96476 131.674618 
L 260.06485 131.55036 
L 260.194188 131.190299 
L 260.206436 131.047901 
L 260.115368 131.013745 
L 260.047057 130.98527 
L 259.995824 130.962512 
L 259.954772 130.93564 
L 259.912464 130.874477 
L 259.88109 130.769461 
L 259.920771 130.704144 
L 259.940476 130.690756 
L 260.165983 130.644894 
L 260.425858 130.645164 
L 260.463974 130.60247 
L 260.409147 130.356176 
L 260.437797 130.28064 
L 260.477922 130.243104 
L 260.654978 130.21683 
L 260.963188 130.201279 
L 261.05557 130.241462 
L 261.213519 130.347483 
L 261.327847 130.379668 
L 261.418935 130.38469 
L 261.455872 130.341127 
L 261.452202 130.240477 
L 261.422934 130.154045 
L 261.391406 130.118865 
L 261.38051 130.090061 
L 261.378114 130.070974 
L 261.404736 130.046594 
L 261.703576 130.071998 
L 262.103512 130.171161 
L 262.268995 130.234159 
L 262.395031 130.268817 
L 262.619958 130.176532 
L 262.734325 129.992753 
L 262.769253 129.960993 
L 262.85184 129.967349 
L 262.909004 129.989565 
L 262.91536 130.024513 
L 262.903633 130.08216 
L 262.912172 130.138841 
L 262.924884 130.164245 
L 262.959812 130.189649 
L 263.236127 130.094234 
L 263.370296 129.987131 
L 263.382698 129.965243 
L 263.388571 129.900642 
L 263.382215 129.795838 
L 263.401263 129.72915 
L 263.461615 129.694221 
L 263.502899 129.68151 
L 263.553707 129.68151 
L 263.642631 129.72915 
L 263.706151 129.827598 
L 263.876348 129.884317 
L 264.273289 129.871837 
L 264.414799 129.817861 
L 264.473083 129.782933 
L 264.562645 129.609142 
L 264.587875 129.522517 
L 264.588203 129.452487 
L 264.581847 129.420669 
L 264.559051 129.381742 
L 264.551614 129.337966 
L 264.572285 129.295967 
L 264.590328 129.290654 
L 264.831541 129.355237 
L 264.961962 129.405658 
L 265.167088 129.512278 
L 265.399626 129.65655 
L 265.511965 129.739717 
L 265.631721 129.802097 
L 266.053313 129.95995 
L 266.238869 130.104917 
L 266.320711 130.185577 
L 266.356539 130.220887 
L 266.429196 130.268469 
L 266.477416 130.284813 
L 266.584982 130.294067 
L 266.656519 130.276815 
L 266.761961 130.224616 
L 266.800656 130.189688 
L 266.828204 130.146781 
L 266.835584 130.114499 
L 266.824978 130.037553 
L 266.802723 129.992888 
L 266.783617 129.902245 
L 266.783617 129.879256 
L 266.804288 129.843864 
L 267.102704 129.789018 
L 267.185909 129.790796 
L 267.397932 129.858913 
L 267.436105 129.884993 
L 267.660898 130.101189 
L 267.718332 130.126516 
L 267.741804 130.126844 
L 267.90495 130.046923 
L 268.013251 130.005851 
L 268.084846 129.930276 
L 268.100243 129.882521 
L 268.024031 129.660491 
L 267.959371 129.603424 
L 267.939381 129.564037 
L 267.925486 129.536658 
L 267.937908 129.362114 
L 268.006914 129.222846 
L 268.045107 129.183938 
L 268.219594 129.123451 
L 268.409438 129.119375 
L 268.584446 129.163093 
L 268.872469 129.328847 
L 268.923895 129.339898 
L 269.192734 129.327031 
L 269.427089 129.230167 
L 269.579822 129.09484 
L 269.714029 128.928564 
L 269.803668 128.884363 
L 269.910307 128.865817 
L 270.15266 128.926014 
L 270.351546 128.913708 
L 270.995263 128.516091 
L 271.072132 128.379856 
L 271.337436 128.375354 
L 271.772512 128.419536 
L 271.819205 128.43192 
L 271.84998 128.458444 
L 271.898257 128.519472 
L 272.009668 128.760067 
L 272.048363 128.887879 
L 272.041988 129.016136 
L 271.986814 129.149261 
L 271.991566 129.265134 
L 272.064205 129.374826 
L 272.124633 129.422156 
L 272.22909 129.429691 
L 272.354796 129.405388 
L 272.508592 129.321835 
L 272.60874 129.247612 
L 272.702165 129.212587 
L 272.803376 129.232041 
L 272.877347 129.306013 
L 272.872305 129.455095 
L 272.880226 129.497577 
L 272.95327 129.529414 
L 273.151788 129.527868 
L 273.411683 129.44134 
L 273.578074 129.309896 
L 273.675383 129.298227 
L 273.71431 129.313798 
L 273.741568 129.356628 
L 273.689176 129.55588 
L 273.705887 129.576339 
L 274.014522 129.643239 
L 274.779059 129.692348 
L 275.408114 129.654966 
L 275.850415 129.663737 
L 276.105731 129.642795 
L 276.188183 129.489057 
L 276.194577 129.31602 
L 276.215268 129.306399 
L 276.367499 129.317642 
L 276.678797 129.421965 
L 276.962186 129.516934 
L 277.095948 129.525473 
L 277.181337 129.47138 
L 277.215492 129.371773 
L 277.218332 129.280686 
L 277.241109 129.104229 
L 277.252488 129.058675 
L 277.289502 129.02452 
L 277.337876 129.007442 
L 277.391969 129.001763 
L 277.559887 129.055836 
L 277.61396 129.041598 
L 277.716426 128.984685 
L 277.767659 128.936292 
L 277.810353 128.788291 
L 277.813212 128.711442 
L 277.801814 128.57482 
L 277.769108 128.51528 
L 277.757459 128.467505 
L 277.77131 128.391428 
L 278.204339 127.867582 
L 278.283506 127.844593 
L 278.419413 127.852069 
L 279.101034 128.068709 
L 279.397171 128.237689 
L 279.436967 128.27397 
L 279.544707 128.315119 
L 279.645562 128.326047 
L 279.769712 128.339499 
L 280.125292 128.32812 
L 280.248081 128.371587 
L 280.316006 128.436653 
L 280.290582 128.621919 
L 280.29319 128.681517 
L 280.339826 128.735938 
L 280.513443 128.790358 
L 280.661153 128.777395 
L 280.710377 128.80591 
L 280.754443 128.849956 
L 280.821807 128.948424 
L 280.81663 129.054677 
L 280.842536 129.119452 
L 280.90992 129.171284 
L 281.034313 129.171284 
L 281.13278 129.072817 
L 281.280472 129.010611 
L 281.391902 129.04948 
L 281.477426 129.132415 
L 281.520525 129.296218 
L 281.710022 129.735196 
L 281.757488 129.764657 
L 281.938331 129.80938 
L 282.225831 129.817822 
L 282.339869 129.787318 
L 282.495308 129.696578 
L 282.652813 129.765817 
L 282.743591 129.863704 
L 282.798707 129.959969 
L 282.879537 129.988078 
L 282.979685 129.981239 
L 283.011619 129.963273 
L 283.116751 129.817166 
L 283.170785 129.780769 
L 283.208959 129.773196 
L 283.258028 129.796514 
L 283.31612 130.037882 
L 283.344847 130.258134 
L 283.474765 130.2971 
L 283.632077 130.476686 
L 283.64786 130.62515 
L 283.733133 130.738841 
L 283.824742 130.770427 
L 283.89738 130.773595 
L 283.963721 130.76096 
L 284.039527 130.729374 
L 284.115334 130.726206 
L 284.165871 130.745158 
L 284.213241 130.776744 
L 284.244827 130.805181 
L 284.263778 130.884136 
L 284.26061 130.94416 
L 284.210072 131.086287 
L 284.200606 131.174728 
L 284.210072 131.2379 
L 284.368234 131.390943 
L 284.468344 131.394633 
L 284.54502 131.431396 
L 284.813704 131.606211 
L 284.855085 131.657328 
L 284.947389 131.638879 
L 284.99047 131.651185 
L 285.052 131.731183 
L 285.062355 131.83334 
L 285.031773 131.896377 
L 285.07837 131.955415 
L 285.182073 132.019032 
L 285.568523 132.140469 
L 285.716543 132.143444 
L 285.925764 132.131138 
L 285.981132 132.106526 
L 286.01805 132.057302 
L 286.042662 131.952691 
L 286.098048 131.921936 
L 286.18419 131.897305 
L 286.288801 131.903467 
L 286.344188 131.952691 
L 286.547246 132.044996 
L 286.71953 132.014221 
L 287.002588 131.841937 
L 287.082567 131.854243 
L 287.137954 131.872693 
L 287.168709 131.921936 
L 287.174872 131.977303 
L 287.137954 132.081914 
L 287.144097 132.180362 
L 287.236402 132.291116 
L 287.310238 132.334197 
L 287.427154 132.334197 
L 287.630213 132.383421 
L 287.691743 132.469563 
L 287.728661 132.592642 
L 287.697906 132.709539 
L 287.725995 132.789133 
L 287.734824 132.81415 
L 287.827109 132.900292 
L 287.907108 132.912598 
L 287.956332 132.857231 
L 287.987106 132.795681 
L 288.030168 132.764926 
L 288.085554 132.746457 
L 288.165553 132.764926 
L 288.239389 132.795681 
L 288.270144 132.912598 
L 288.245532 132.980291 
L 288.245532 133.066433 
L 288.257838 133.134125 
L 288.300919 133.158737 
L 288.746524 133.207478 
L 289.241565 133.057082 
L 289.374903 133.079473 
L 289.425846 133.136076 
L 289.448468 133.203982 
L 289.459789 133.283227 
L 289.448468 133.419057 
L 289.493751 133.498282 
L 289.556015 133.515264 
L 289.703166 133.486962 
L 289.793712 133.419057 
L 289.850316 133.334151 
L 289.974825 133.271906 
L 290.059711 133.300189 
L 290.161598 133.390755 
L 290.240824 133.441679 
L 290.325729 133.45866 
L 290.444578 133.45866 
L 290.506823 133.407736 
L 290.569087 133.339811 
L 290.642672 133.311509 
L 290.778308 133.337493 
L 290.829425 133.419057 
L 290.908671 133.486962 
L 290.965255 133.554886 
L 290.976576 133.611471 
L 290.925652 133.685055 
L 290.919991 133.735999 
L 290.948293 133.775602 
L 290.987897 133.781262 
L 291.067142 133.758621 
L 291.214292 133.741659 
L 291.310499 133.803904 
L 291.32748 133.866168 
L 291.325181 133.976033 
L 291.282197 134.024639 
L 291.299179 134.098205 
L 291.367103 134.143488 
L 291.46897 134.143488 
L 291.565177 134.103865 
L 291.672725 134.109526 
L 291.75195 134.17179 
L 291.768932 134.262336 
L 291.74063 134.307619 
L 291.757611 134.415147 
L 291.808554 134.46609 
L 291.916082 134.517014 
L 292.227306 134.437518 
L 292.480613 134.351878 
L 292.557675 134.278004 
L 292.589338 134.105527 
L 292.67747 134.087135 
L 293.104703 133.964906 
L 293.23748 134.473547 
L 293.123364 134.870488 
L 293.548704 134.949135 
L 293.880174 135.277205 
L 294.520202 135.186967 
L 294.677977 135.327588 
L 294.479149 135.503349 
L 294.39181 135.780939 
L 295.040975 135.933789 
L 295.163011 135.598011 
L 295.437936 135.472999 
L 295.58924 135.750995 
L 295.995086 135.770681 
L 296.211262 135.296504 
L 296.554884 135.321811 
L 296.74328 135.517413 
L 297.094822 135.104747 
L 297.361188 135.286767 
L 297.142326 135.67231 
L 297.602208 135.746745 
L 297.893205 135.343719 
L 298.432853 134.987521 
L 298.841037 135.051389 
L 299.212767 135.267391 
L 299.582257 135.762432 
L 299.982578 135.409866 
L 300.571914 135.37347 
L 300.892102 135.469715 
L 301.005773 135.782079 
L 301.08637 135.777481 
L 301.136406 135.759476 
L 301.136831 135.775472 
L 301.137855 135.951465 
L 301.144925 136.903413 
L 301.140357 136.937402 
L 301.139709 136.942224 
L 301.141467 137.342236 
L 301.145331 138.008731 
L 301.145331 138.101461 
L 301.147282 138.310083 
L 301.144693 138.973251 
L 301.144075 139.131301 
L 301.14763 139.257761 
L 301.142626 139.497564 
L 301.143805 139.626226 
L 301.143805 139.717913 
L 301.143805 140.04349 
L 301.144619 140.670284 
L 301.145292 141.188216 
L 301.145292 141.188528 
L 301.144133 141.387955 
L 301.145022 141.596133 
L 301.150315 141.756575 
L 301.147495 142.270529 
L 301.147186 142.513036 
L 301.147514 142.568693 
L 301.150528 143.331665 
L 301.141525 143.656509 
L 301.143612 143.759168 
L 301.144964 143.841698 
L 301.147611 144.636913 
L 301.144404 144.892731 
L 301.145795 146.05699 
L 301.143399 147.28618 
L 301.143805 147.627908 
L 301.143322 148.166552 
L 301.147321 148.381182 
L 301.147823 148.499799 
L 301.147307 148.725488 
L 301.147302 148.727875 
L 301.144616 148.737902 
L 301.149253 148.910997 
L 301.144597 150.340773 
L 301.149987 150.543677 
L 301.148403 150.576441 
L 301.146297 150.667606 
L 301.144578 150.738989 
L 301.146123 150.910384 
L 301.142259 152.358513 
L 301.14226 152.358532 
L 301.14678 153.090768 
L 301.149349 153.316043 
L 301.148499 153.377109 
L 301.146529 153.730448 
L 301.146471 153.80299 
L 301.146664 153.959819 
L 301.143496 154.846179 
L 301.142356 154.938117 
L 301.143461 155.769535 
L 301.143534 155.824632 
L 301.147321 155.988222 
L 301.146819 156.225707 
L 301.14338 156.347241 
L 301.143708 156.39092 
L 301.145969 156.468948 
L 301.145196 156.512551 
L 301.146992 156.611037 
L 301.147514 156.641136 
L 301.146973 156.65972 
L 301.146877 157.248844 
L 301.14537 157.333537 
L 301.14705 158.006754 
L 301.146587 158.021069 
L 301.147012 158.168567 
L 301.149678 158.534676 
L 301.150141 158.723477 
L 301.150257 160.536787 
L 301.150277 160.538255 
L 301.151629 161.532665 
L 301.15243 161.9604 
L 301.153484 162.522786 
L 301.154005 162.524099 
L 301.153001 162.692732 
L 301.151262 163.08183 
L 301.14989 163.328974 
L 301.157908 163.430377 
L 301.150895 164.66488 
L 301.150508 165.761157 
L 301.167644 165.893741 
L 301.233733 165.893065 
L 301.410094 165.826841 
L 301.615239 165.923859 
L 301.728596 166.101101 
L 302.411226 167.168446 
L 302.522289 167.285034 
L 302.873233 167.474763 
L 303.066516 167.513381 
L 303.173522 167.545199 
L 303.231362 167.605937 
L 303.280528 167.765007 
L 303.373084 167.843093 
L 303.445394 167.874911 
L 303.529256 167.857562 
L 303.599557 167.816742 
L 303.723042 167.811275 
L 303.815598 167.860441 
L 303.88501 167.950099 
L 303.871197 168.063983 
L 303.965994 168.193051 
L 304.11637 168.302955 
L 304.136616 168.511191 
L 304.214509 168.691009 
L 304.307674 168.761121 
L 304.394076 168.826143 
L 304.395255 169.192232 
L 304.469516 169.285426 
L 304.808114 169.505079 
L 304.947248 169.571651 
L 305.067738 169.637798 
L 305.127298 169.723535 
L 305.127298 169.828338 
L 305.170166 169.933142 
L 305.236854 169.992683 
L 305.309222 170.040709 
L 305.386651 170.091768 
L 305.402975 170.121499 
L 305.311308 170.395612 
L 305.257815 170.488632 
L 305.247479 170.657554 
L 305.364705 170.878058 
L 305.471557 170.985064 
L 305.537066 171.174677 
L 305.533608 171.312573 
L 305.557737 171.398754 
L 305.640479 171.436677 
L 305.699092 171.460806 
L 305.773488 171.52931 
L 305.787494 171.585392 
L 305.792169 171.6742 
L 305.753011 171.819515 
L 305.502911 172.080665 
L 305.413543 172.045486 
L 305.328328 172.181644 
L 305.343802 172.295566 
L 305.491088 172.54922 
L 305.514251 173.039586 
L 305.513789 173.04154 
L 305.477951 173.193228 
L 305.376335 173.199564 
L 305.301475 173.154687 
L 305.104328 173.34316 
L 305.078711 173.4923 
L 305.164853 173.740816 
L 305.396021 174.090117 
L 305.438406 174.281546 
L 305.480559 174.347133 
L 305.876496 174.748614 
L 306.07741 174.878049 
L 306.209781 174.915913 
L 306.611088 174.943945 
L 306.730903 174.916937 
L 306.768787 174.911702 
L 306.807984 174.899937 
L 306.86679 174.903858 
L 306.93344 174.919545 
L 306.968716 174.970508 
L 306.977197 175.017974 
L 306.992246 175.076355 
L 307.011835 175.115553 
L 307.125526 175.150848 
L 307.254903 175.182202 
L 307.27057 175.327247 
L 307.215686 175.468389 
L 307.172567 175.558549 
L 307.05337 175.703381 
L 306.962244 175.724381 
L 306.890321 175.754557 
L 306.847182 175.774165 
L 306.807984 175.813363 
L 306.807984 175.883934 
L 306.815596 176.011167 
L 307.589502 176.50756 
L 307.753441 176.60823 
L 307.817714 176.789342 
L 307.681034 176.973044 
L 307.677151 177.12796 
L 307.740285 177.157846 
L 307.851271 177.156726 
L 308.271433 177.382967 
L 308.319208 177.466598 
L 308.347452 177.585755 
L 308.379308 177.736962 
L 308.386784 177.819144 
L 308.356898 177.882664 
L 308.371832 177.987275 
L 308.446556 178.035842 
L 308.468966 178.073185 
L 308.472714 178.110547 
L 308.454033 178.155386 
L 308.431623 178.203953 
L 308.381124 178.245913 
L 308.210385 178.681144 
L 308.00611 179.080036 
L 308.024868 179.170235 
L 308.079753 179.235822 
L 308.245874 179.249944 
L 308.371677 179.309155 
L 308.602033 179.622872 
L 308.881922 179.8591 
L 309.310275 179.829794 
L 309.433934 180.054857 
L 309.42725 180.20446 
L 309.388226 180.340387 
L 309.394041 180.545841 
L 309.513411 180.628892 
L 309.560143 180.675604 
L 309.601659 180.735299 
L 309.619838 180.800191 
L 309.619838 180.906598 
L 309.562481 181.097524 
L 309.65608 181.539188 
L 309.697325 181.662499 
L 309.725917 181.691072 
L 309.925382 181.866833 
L 310.104814 181.831267 
L 310.291278 181.635144 
L 310.457805 181.540328 
L 310.618034 181.480575 
L 310.620141 181.479994 
L 310.689861 181.460754 
L 310.957116 181.479822 
L 310.991696 181.502058 
L 311.021891 181.572494 
L 310.923636 182.00131 
L 310.857509 182.04074 
L 310.784928 182.109592 
L 310.767966 182.19017 
L 310.767966 182.300421 
L 310.77156 182.440443 
L 310.857026 182.57608 
L 310.869757 182.711774 
L 310.835833 182.872931 
L 310.674677 183.034087 
L 310.636503 183.186743 
L 310.649234 183.305495 
L 310.734043 183.462402 
L 310.859904 183.558724 
L 311.035492 183.622553 
L 311.132008 183.698399 
L 311.190621 183.80527 
L 311.145801 183.894908 
L 311.069956 183.953521 
L 311.015613 183.998012 
L 311.032034 184.067289 
L 311.186023 184.334582 
L 311.307827 184.43616 
L 311.318182 184.494773 
L 311.307827 184.608521 
L 310.871553 184.901469 
L 310.561392 184.98993 
L 310.425292 184.949824 
L 310.359782 184.977411 
L 310.321859 185.036005 
L 310.287395 185.129101 
L 310.246014 185.304921 
L 310.322014 185.491018 
L 310.465726 185.620356 
L 310.672281 185.700877 
L 311.00634 186.018128 
L 311.128125 186.236139 
L 311.130018 186.417271 
L 311.037501 186.523543 
L 310.814312 186.609898 
L 310.765223 186.594964 
L 310.729406 186.581944 
L 310.683814 186.5917 
L 310.631692 186.637292 
L 310.560059 186.780598 
L 310.543773 186.969476 
L 310.393957 187.093232 
L 310.325569 187.223498 
L 310.332079 187.412396 
L 310.371161 187.493805 
L 310.50274 187.588196 
L 310.502916 187.599829 
L 310.511337 188.157131 
L 310.59916 188.250517 
L 310.590833 188.447549 
L 310.443838 188.779869 
L 310.413372 188.809252 
L 310.296301 188.872019 
L 310.120655 188.889831 
L 310.007255 188.993842 
L 309.90842 189.186681 
L 309.898471 189.359023 
L 309.841829 189.625119 
L 309.55342 189.747387 
L 309.333728 190.049821 
L 309.361566 190.117881 
L 309.515517 190.297486 
L 309.518898 190.414229 
L 309.487061 190.512484 
L 309.390622 190.591169 
L 309.301949 190.781613 
L 309.295786 190.954766 
L 309.125569 191.248777 
L 308.96505 191.381728 
L 308.641308 191.43725 
L 308.344129 191.671972 
L 308.097893 192.005625 
L 308.05885 192.306262 
L 308.092155 192.637771 
L 308.142075 192.735292 
L 308.161104 192.797787 
L 308.133922 192.868417 
L 308.07415 192.936341 
L 308.017102 192.95537 
L 307.973596 192.932999 
L 307.909169 192.901645 
L 307.530812 193.015683 
L 307.233498 193.294046 
L 307.235391 193.440539 
L 307.272077 193.624241 
L 307.207398 193.858692 
L 306.993772 193.96056 
L 307.13789 194.146193 
L 307.235874 194.229051 
L 307.494725 194.366387 
L 307.57596 194.601341 
L 307.44921 194.840777 
L 307.658489 195.541233 
L 307.813367 195.809956 
L 307.813908 195.872839 
L 307.719923 196.078312 
L 307.34033 196.256392 
L 306.993936 196.613139 
L 306.895633 196.71438 
L 306.777712 196.72856 
L 306.657608 196.841864 
L 306.640221 196.906504 
L 306.691609 197.222712 
L 306.682761 197.503664 
L 306.499813 197.945057 
L 306.529892 198.004848 
L 306.60595 198.010625 
L 307.023793 198.515422 
L 307.303509 198.682722 
L 307.410457 198.685117 
L 307.494783 198.699181 
L 307.556622 198.755398 
L 307.604397 198.814417 
L 307.643749 198.952159 
L 307.632506 199.061773 
L 307.594989 199.132982 
L 307.630941 199.555868 
L 307.664781 199.666993 
L 307.67321 199.694673 
L 307.513329 200.032576 
L 307.400102 200.162378 
L 307.366758 200.330257 
L 307.43532 200.647335 
L 307.569179 200.893996 
L 307.698692 201.024107 
L 307.742459 201.176827 
L 307.814913 201.429645 
L 307.999136 201.653123 
L 307.909188 201.772107 
L 307.868387 201.772725 
L 307.804712 201.706598 
L 307.74722 201.730398 
L 307.724347 202.2067 
L 307.312299 202.565854 
L 307.14384 202.66662 
L 307.11293 202.720403 
L 307.16084 202.81406 
L 307.454484 203.048975 
L 307.729292 203.11945 
L 307.760202 203.154378 
L 307.783076 203.239689 
L 307.755566 203.297182 
L 307.695291 203.335491 
L 307.369482 203.359601 
L 307.331107 203.395944 
L 307.048 203.664063 
L 307.014926 203.754011 
L 307.003799 203.920924 
L 306.977834 203.967598 
L 306.091937 204.566303 
L 306.043718 204.619777 
L 305.688563 205.262375 
L 305.574197 205.637602 
L 305.519815 205.915791 
L 305.472523 206.029848 
L 305.252753 206.425166 
L 305.098204 206.647408 
L 304.789711 206.992517 
L 304.774307 207.00975 
L 304.61145 207.143473 
L 304.439978 207.250248 
L 304.08774 207.414283 
L 303.893607 207.533904 
L 303.591617 207.765709 
L 303.468287 207.884712 
L 303.366902 208.061826 
L 303.343411 208.191029 
L 303.351138 208.304468 
L 303.395648 208.449745 
L 303.474797 208.536911 
L 303.937228 208.797153 
L 304.026249 208.879991 
L 304.084997 208.988485 
L 304.026886 209.155398 
L 304.069233 209.317965 
L 304.123634 209.364021 
L 304.411096 209.450259 
L 304.486845 209.49446 
L 304.618521 209.715138 
L 305.105989 210.361154 
L 305.05437 210.455082 
L 305.110742 210.585155 
L 304.655478 210.585483 
L 304.109821 210.554303 
L 303.296582 210.51298 
L 301.94864 210.537592 
L 300.884181 210.737019 
L 300.125807 210.94255 
L 299.392721 211.198233 
L 295.134589 212.844449 
L 294.812126 212.969115 
L 292.300872 213.939979 
L 290.484027 214.663734 
L 289.784092 214.981314 
L 289.024771 215.380901 
L 288.565585 215.673541 
L 288.289038 215.916628 
L 287.989869 216.298771 
L 287.852938 216.571686 
L 287.586592 216.571357 
L 287.2648 216.711901 
L 286.932519 216.719628 
L 286.861716 216.665864 
L 286.846744 216.446095 
L 287.16131 216.101314 
L 287.407585 215.956212 
L 287.992593 215.46289 
L 288.329762 215.264506 
L 288.71573 214.690664 
L 288.809329 214.596389 
L 288.985921 214.491025 
L 289.1124 214.460926 
L 289.288509 214.468036 
L 289.496939 214.550411 
L 289.839478 214.507581 
L 290.219284 214.365415 
L 290.496429 214.195758 
L 290.472687 213.895507 
L 290.550599 213.775944 
L 290.765674 213.554996 
L 291.028408 213.425696 
L 291.273446 213.472621 
L 291.4086 213.572692 
L 291.691541 213.69979 
L 292.103087 213.66405 
L 292.412572 213.560096 
L 292.250218 213.208129 
L 292.133185 213.22088 
L 292.102294 213.213519 
L 291.857778 213.155254 
L 291.807685 213.026843 
L 291.4948 212.710673 
L 291.420365 212.65179 
L 291.273485 212.616359 
L 290.964038 212.648235 
L 290.805528 212.743882 
L 290.509817 212.85906 
L 289.884433 213.023481 
L 288.614519 213.313667 
L 288.099657 213.395578 
L 287.666474 213.54412 
L 287.33825 213.568094 
L 287.125996 213.547964 
L 286.88911 213.442986 
L 286.702356 213.108619 
L 286.918069 213.087928 
L 287.080075 213.107885 
L 287.385619 212.830797 
L 287.783797 212.420004 
L 288.283861 211.624461 
L 288.584981 210.287087 
L 288.59889 210.110185 
L 288.543195 209.734592 
L 288.529556 209.068136 
L 288.296147 209.071053 
L 288.05252 208.894924 
L 287.752809 208.986321 
L 287.361046 208.606883 
L 287.071208 208.752488 
L 286.670809 208.877209 
L 286.210116 209.084363 
L 285.533518 209.767028 
L 285.265008 210.270009 
L 285.218044 210.5901 
L 285.119267 210.735338 
L 284.722153 210.926863 
L 284.29123 211.018086 
L 284.177153 210.987872 
L 283.987136 210.684649 
L 283.928928 210.591762 
L 283.891797 210.320875 
L 283.764448 210.222852 
L 283.314671 210.173551 
L 283.185178 210.472218 
L 283.041291 210.584331 
L 282.552839 210.964921 
L 282.444134 211.130339 
L 282.431421 211.149685 
L 282.355054 211.349537 
L 282.396338 211.547804 
L 282.872118 211.916772 
L 282.991218 212.08583 
L 282.869762 212.282668 
L 282.508947 212.609115 
L 282.335909 212.913771 
L 282.304497 212.983356 
L 282.305703 212.989173 
L 282.364153 213.271127 
L 282.60666 213.565173 
L 282.665215 213.636173 
L 283.00648 213.828433 
L 283.459947 213.946818 
L 284.406138 214.104748 
L 284.330408 214.289898 
L 284.088365 214.641633 
L 283.992795 214.99986 
L 284.214187 215.047635 
L 284.766721 215.329668 
L 284.834336 215.6832 
L 284.849096 216.624909 
L 284.70038 217.173289 
L 284.705017 217.749565 
L 284.613745 217.837579 
L 284.171841 218.263712 
L 283.574256 218.098229 
L 282.222798 219.265811 
L 281.524679 219.777471 
L 280.74262 220.350652 
L 280.478785 219.922936 
L 279.99207 219.93897 
L 279.594878 220.049203 
L 279.65917 220.776899 
L 279.511846 221.127166 
L 279.464709 221.509058 
L 279.858906 221.948171 
L 280.616543 221.326233 
L 280.752318 221.214776 
L 282.581334 220.139209 
L 282.820383 219.817417 
L 284.990064 218.18097 
L 285.262709 218.023755 
L 285.560139 217.95869 
L 286.038798 217.79139 
L 286.085279 217.484667 
L 286.089915 217.05247 
L 286.314225 216.875105 
L 286.812666 217.220909 
L 286.907327 217.2325 
L 286.96395 217.196259 
L 287.573165 217.246024 
L 287.584447 217.204005 
L 287.847664 217.172014 
L 288.017475 217.299903 
L 287.852262 217.292427 
L 287.10631 217.812042 
L 286.789483 218.086348 
L 286.449475 218.308512 
L 282.150604 220.842602 
L 281.077374 221.554341 
L 280.522716 221.998632 
L 280.35296 222.199164 
L 280.290099 222.273421 
L 280.239697 222.40245 
L 278.959699 223.256935 
L 278.041424 223.922386 
L 277.397301 224.445884 
L 276.923495 224.969048 
L 276.916632 224.976626 
L 276.674048 225.088887 
L 275.828913 225.670707 
L 275.374383 226.095429 
L 275.26985 226.284984 
L 274.617188 226.417626 
L 274.164744 226.426512 
L 273.253385 226.865722 
L 272.857446 227.071849 
L 271.282262 227.891892 
L 269.916238 228.511732 
L 269.441423 228.84098 
L 266.960615 230.175882 
L 265.578904 230.791066 
L 263.325264 231.657702 
L 261.834132 232.268404 
L 259.582655 233.319379 
L 259.081065 233.51755 
L 258.610172 233.844249 
L 258.114841 234.097806 
L 257.480783 234.48532 
L 257.126324 234.808386 
L 256.986128 234.837151 
L 256.738849 234.959342 
L 256.028701 235.476657 
L 255.796889 235.645522 
L 255.601751 236.122269 
L 254.78318 236.884797 
L 253.944402 237.255078 
L 251.128839 238.717077 
L 249.436194 239.841946 
L 248.034991 240.887028 
L 246.877558 241.866025 
L 246.21322 242.427945 
L 245.032597 243.583086 
L 243.955523 244.793073 
L 243.175838 246.179664 
L 243.153392 246.219584 
L 242.266877 247.158046 
L 241.298644 248.494899 
L 239.911079 250.818318 
L 239.711857 251.201073 
L 239.048578 252.475398 
L 238.300326 254.087909 
L 237.526323 256.200542 
L 237.319056 256.970568 
L 237.094609 257.804417 
L 236.838211 259.384376 
L 236.70383 261.180396 
L 236.737715 262.890408 
L 236.932274 264.550791 
L 237.292509 266.28385 
L 237.784653 268.102241 
L 238.298124 269.723774 
L 238.422793 270.061107 
L 239.116657 271.938583 
L 239.668484 273.708898 
L 239.739027 273.935208 
L 240.215233 275.75014 
L 240.712998 278.525925 
L 240.951989 280.062166 
L 240.748776 280.157716 
L 240.483453 279.277692 
L 240.129902 276.835347 
L 239.670736 275.003511 
L 239.293172 273.709478 
L 239.142698 273.193757 
L 238.527437 271.176538 
L 236.911757 270.909863 
L 238.109574 270.461322 
L 237.936511 270.062603 
L 237.512665 269.086103 
L 237.122389 267.644678 
L 236.502491 266.194811 
L 236.272908 264.433198 
L 236.341779 262.141133 
L 236.295878 260.117115 
L 236.522486 258.352218 
L 236.726513 256.969297 
L 236.732074 256.931599 
L 237.036749 255.540422 
L 237.635957 253.946399 
L 238.141971 252.539671 
L 238.836325 251.213425 
L 238.953974 250.988709 
L 239.469233 250.094726 
L 239.475829 250.083281 
L 240.407937 248.928333 
L 241.098985 247.491622 
L 241.684418 246.910709 
L 241.482403 246.447718 
L 241.510299 246.122584 
L 242.033758 245.357371 
L 242.426333 244.697928 
L 242.510949 244.655806 
L 243.687437 244.070148 
L 244.32109 243.323926 
L 244.586683 242.781051 
L 244.897347 242.326695 
L 245.301417 241.939684 
L 245.404714 241.431197 
L 245.567725 241.21448 
L 246.178407 241.013991 
L 246.19678 240.775038 
L 246.33912 240.534076 
L 246.83503 240.702129 
L 247.40243 240.324301 
L 247.509986 240.25268 
L 247.472643 239.769172 
L 248.065592 239.372251 
L 249.144134 239.336241 
L 249.762197 238.876533 
L 250.685128 238.26162 
L 251.236135 237.822796 
L 251.56492 237.591783 
L 251.766471 237.355767 
L 252.218741 237.21022 
L 252.638884 237.173843 
L 252.877643 236.909061 
L 253.192171 236.781731 
L 254.016383 236.644318 
L 254.638541 236.4968 
L 254.826802 236.395763 
L 254.959965 235.995712 
L 254.744156 235.868441 
L 254.590341 235.676548 
L 254.64084 235.516976 
L 255.212499 235.210002 
L 255.223975 234.967688 
L 254.588042 234.933359 
L 253.456199 235.615945 
L 252.86725 235.838033 
L 252.106248 236.195718 
L 251.348628 236.856514 
L 251.121343 236.864589 
L 250.487691 237.040428 
L 250.117603 236.946655 
L 250.049176 236.682704 
L 249.713997 236.283116 
L 249.812309 235.880032 
L 249.704163 235.290136 
L 249.615684 235.162324 
L 249.379726 235.12301 
L 248.868495 235.12301 
L 248.61287 235.064011 
L 248.521795 235.086783 
L 248.494891 235.09351 
L 248.347432 235.18199 
L 248.072141 235.604741 
L 247.983661 235.978345 
L 247.993494 236.273283 
L 248.062307 236.764866 
L 248.054286 236.857182 
L 248.04266 236.990972 
L 247.767369 237.28593 
L 247.698556 237.413723 
L 247.767369 237.571035 
L 247.896976 237.75318 
L 248.13114 238.082265 
L 248.13114 238.190411 
L 247.875515 238.691827 
L 247.68959 238.82787 
L 247.069346 239.281704 
L 246.479451 239.615975 
L 245.987887 240.068225 
L 245.751928 240.176371 
L 245.280012 240.628622 
L 244.739282 240.638436 
L 244.011759 240.363164 
L 243.874114 240.392663 
L 243.497882 240.154638 
L 243.608211 239.465116 
L 243.48223 239.45366 
L 243.304812 239.437528 
L 241.052388 240.448823 
L 239.884806 241.331416 
L 239.859488 241.542347 
L 239.857219 241.56125 
L 240.611092 241.86465 
L 241.364965 241.919805 
L 242.017704 241.506096 
L 243.019822 240.972861 
L 243.523402 240.854902 
L 243.579175 240.943227 
L 243.559509 241.021873 
L 243.402216 241.208665 
L 243.333403 241.385624 
L 243.333403 241.592102 
L 243.41205 241.985354 
L 243.520196 242.211479 
L 243.421883 242.378605 
L 243.235071 242.467084 
L 243.077778 242.594897 
L 242.822154 243.096294 
L 242.556715 243.273272 
L 241.671881 244.502191 
L 241.524402 244.571024 
L 241.415579 244.905898 
L 241.396609 244.964275 
L 241.229464 245.062588 
L 241.023005 245.328046 
L 240.452775 246.281693 
L 240.403628 246.419339 
L 240.216836 246.458652 
L 239.971045 246.458652 
L 239.754753 246.419339 
L 239.669654 246.388487 
L 239.628293 246.321238 
L 239.628293 246.248832 
L 239.643805 246.14538 
L 239.607602 246.041948 
L 239.489295 245.937589 
L 239.361502 245.770463 
L 239.332002 245.632817 
L 239.17469 245.416525 
L 238.938751 245.337879 
L 238.732273 245.308379 
L 238.319355 245.377192 
L 237.739312 245.573818 
L 237.432087 245.27548 
L 236.718223 245.438355 
L 235.243415 245.459239 
L 234.49103 245.261184 
L 234.075717 245.531703 
L 234.068801 245.896884 
L 234.276921 246.027575 
L 234.899929 246.418798 
L 235.921559 246.44113 
L 236.697166 246.153881 
L 236.451393 246.615964 
L 236.43864 246.875238 
L 236.425787 247.136533 
L 236.421894 247.215674 
L 236.559539 247.530279 
L 236.903624 248.012029 
L 237.316561 248.326634 
L 237.906438 248.572406 
L 239.113681 248.881118 
L 238.997731 249.211448 
L 238.879752 249.231115 
L 238.289875 250.47972 
L 238.250542 250.656679 
L 238.270209 250.774658 
L 238.339022 250.863138 
L 238.181729 251.02045 
L 237.808125 251.305555 
L 237.738901 251.503999 
L 237.513187 252.151056 
L 237.385374 252.337849 
L 237.306728 252.622973 
L 237.247729 253.094871 
L 237.080603 253.488141 
L 236.95279 253.6356 
L 236.834811 254.127184 
L 236.874144 254.372956 
L 236.815145 254.589248 
L 236.687352 254.80554 
L 236.303914 255.680541 
L 236.254768 255.857519 
L 236.195768 255.965646 
L 236.038476 256.132791 
L 235.90083 256.211438 
L 235.704205 256.28027 
L 235.310934 256.28027 
L 234.691558 256.585042 
L 234.199994 257.027459 
L 233.737911 256.958626 
L 233.501952 256.85048 
L 233.452805 256.722668 
L 233.649431 256.752167 
L 233.846057 256.703021 
L 233.885389 256.585042 
L 234.023016 256.447396 
L 234.268807 256.447396 
L 234.39662 256.378583 
L 234.30814 256.113125 
L 234.376953 256.004979 
L 234.671892 255.79852 
L 234.671892 255.552728 
L 234.612912 255.405269 
L 234.327806 255.25779 
L 234.082015 255.356103 
L 233.964036 255.523248 
L 233.619931 255.857519 
L 232.990722 256.240937 
L 232.735097 256.358916 
L 232.253366 256.830814 
L 232.007575 256.7915 
L 231.820783 256.811167 
L 231.72247 256.889813 
L 231.719939 256.897768 
L 231.653657 257.106105 
L 231.673304 257.450209 
L 231.751969 257.568189 
L 231.869929 257.646835 
L 232.479492 257.656668 
L 232.764597 257.695982 
L 232.931742 257.725481 
L 233.177514 257.84346 
L 233.531452 257.912274 
L 233.973869 257.87296 
L 234.170494 257.794294 
L 234.298307 257.705815 
L 234.357287 257.617335 
L 234.647318 257.494449 
L 234.996329 257.440376 
L 235.163475 257.327304 
L 235.320767 257.268324 
L 235.827091 257.238824 
L 235.861497 257.361711 
L 235.620632 258.433337 
L 235.489304 259.175329 
L 235.693521 259.232744 
L 235.531206 260.862024 
L 235.441026 262.58697 
L 235.265188 264.070026 
L 235.127677 265.29058 
L 235.008191 266.016808 
L 234.77374 266.075151 
L 234.90785 267.001443 
L 234.966849 267.345547 
L 234.991423 267.94035 
L 235.424006 269.419987 
L 235.409266 269.886978 
L 235.496205 270.069679 
L 235.748444 270.59976 
L 235.964736 270.963511 
L 235.921888 271.473331 
L 236.160666 272.009521 
L 236.038978 272.362957 
L 236.668033 272.375282 
L 237.253665 273.71059 
L 237.639164 274.58957 
L 238.282012 275.939386 
L 238.612613 276.425173 
L 238.343987 276.655761 
L 238.020032 277.20474 
L 238.005214 277.54075 
L 238.247007 277.771936 
L 238.299708 278.135553 
L 238.224616 278.505428 
L 238.245268 278.808345 
L 238.506978 279.178955 
L 238.523071 279.437014 
L 238.40598 279.634914 
L 238.614313 279.880628 
L 238.786365 279.988774 
L 239.248429 280.106754 
L 240.000544 280.121494 
L 240.162763 280.17066 
L 240.239574 280.75959 
L 240.489655 280.632724 
L 240.832523 280.425048 
L 241.083144 280.459204 
L 241.059942 280.907436 
L 241.084825 281.318016 
L 241.207595 282.21674 
L 241.18221 282.24284 
L 241.19355 282.516682 
L 241.164746 282.564476 
L 240.994297 282.643876 
L 240.923089 282.620288 
L 240.770374 282.446053 
L 240.574039 282.390956 
L 240.395901 282.467072 
L 240.021853 282.414428 
L 239.591413 282.455886 
L 239.385843 282.528891 
L 239.228087 282.661746 
L 238.674143 282.583505 
L 238.583693 282.662905 
L 238.665334 282.906301 
L 238.154567 282.881844 
L 237.826941 283.015181 
L 237.742847 283.126476 
L 237.483359 283.144172 
L 237.25053 283.103294 
L 236.917399 283.288 
L 236.786263 283.447108 
L 236.826156 283.494014 
L 236.949583 283.543644 
L 236.958373 283.774908 
L 237.063448 284.19223 
L 236.960325 284.560212 
L 236.816516 284.747777 
L 236.398286 284.80071 
L 235.854987 284.742735 
L 235.420761 284.556348 
L 235.359753 284.374038 
L 235.342346 284.13806 
L 235.235031 283.990098 
L 234.973553 283.896886 
L 234.629719 284.001284 
L 234.421058 283.97617 
L 233.940003 283.85253 
L 233.886213 283.705551 
L 233.807361 283.490092 
L 233.774635 283.266421 
L 233.530544 283.203867 
L 233.487792 283.127751 
L 233.463624 282.932594 
L 233.290567 282.873498 
L 233.213582 282.967754 
L 232.765369 282.859569 
L 232.806827 282.719335 
L 232.756116 282.519831 
L 232.466355 282.47901 
L 232.279138 282.185579 
L 232.268532 282.111221 
L 231.902578 281.722278 
L 231.756181 281.668534 
L 231.578314 281.531275 
L 231.584167 281.331732 
L 231.478533 281.243716 
L 231.243811 281.284788 
L 231.109121 281.273525 
L 231.050141 281.190899 
L 230.553303 281.205929 
L 230.433952 281.073518 
L 230.281373 281.020701 
L 230.111852 281.063299 
L 229.360007 281.03832 
L 229.277845 281.008975 
L 229.242646 280.926812 
L 229.142885 280.856396 
L 228.966814 280.832924 
L 228.872926 280.873995 
L 228.761418 280.838777 
L 228.714474 280.803579 
L 228.655784 280.592309 
L 228.538848 280.499599 
L 228.071297 280.582959 
L 227.857594 280.661219 
L 227.395954 280.636742 
L 227.246595 280.56453 
L 227.189573 280.536961 
L 227.077602 280.413322 
L 226.893166 280.377466 
L 226.364762 280.566789 
L 225.948676 280.641186 
L 225.776257 280.507249 
L 225.665174 280.464613 
L 225.331676 280.659925 
L 225.11123 280.505569 
L 225.061659 280.361181 
L 224.48913 280.425299 
L 224.14549 280.374936 
L 224.061589 280.479855 
L 224.036455 280.666551 
L 223.94303 280.86167 
L 223.348362 280.731906 
L 223.348285 280.664793 
L 223.222346 280.344567 
L 223.146018 280.288736 
L 223.063721 280.291131 
L 223.042586 280.322041 
L 223.125309 280.381929 
L 223.119185 280.427985 
L 222.942341 280.515981 
L 222.876774 280.526491 
L 222.814742 280.494692 
L 222.662858 280.354323 
L 222.246982 280.456497 
L 222.22189 280.462662 
L 221.868532 280.704474 
L 221.813647 280.66261 
L 221.813647 280.580815 
L 221.769833 280.534952 
L 221.26434 280.216484 
L 221.048686 280.436987 
L 221.000891 280.555604 
L 220.894407 280.574246 
L 220.820513 280.516136 
L 220.768877 280.424482 
L 220.741519 280.375921 
L 220.437964 280.181807 
L 220.255905 280.168515 
L 219.894472 280.246833 
L 219.591014 280.007166 
L 219.345589 279.750324 
L 219.429046 279.605666 
L 219.484375 279.590211 
L 219.56814 279.333659 
L 218.978979 279.334605 
L 218.914686 279.389296 
L 218.847921 279.533027 
L 218.748612 279.479684 
L 218.445145 279.316678 
L 218.225376 279.000469 
L 218.163247 278.735282 
L 218.26185 278.591242 
L 218.264941 278.522931 
L 218.193829 278.443802 
L 218.021042 278.451838 
L 217.849802 278.702517 
L 217.230657 278.609169 
L 217.229884 278.608093 
L 216.887963 278.132153 
L 216.623548 278.091892 
L 216.151863 277.811714 
L 216.116317 277.768131 
L 216.129724 277.53762 
L 215.988814 277.410793 
L 215.716401 277.363829 
L 215.39631 277.422906 
L 215.364956 277.477732 
L 215.105795 277.547009 
L 215.030626 277.528212 
L 214.974274 277.509434 
L 214.861549 277.354421 
L 214.720639 277.340338 
L 214.528051 277.377913 
L 214.360925 277.299266 
L 214.307296 277.190038 
L 214.194572 277.128972 
L 213.851704 277.199427 
L 213.569883 277.114889 
L 213.461853 276.964589 
L 213.396092 276.743815 
L 213.354949 276.734441 
L 213.12621 276.682324 
L 212.84974 276.7902 
L 212.594946 276.786684 
L 212.449554 276.972104 
L 212.062388 277.100612 
L 211.769208 277.093657 
L 211.656986 277.022777 
L 211.582879 276.915269 
L 211.60753 276.721812 
L 211.541827 276.583837 
L 211.426127 276.537279 
L 211.200099 276.527639 
L 211.034055 276.40143 
L 210.973182 276.268788 
L 211.000827 276.168949 
L 210.960992 276.062677 
L 210.61397 275.882241 
L 210.509321 275.883342 
L 210.303403 275.803633 
L 210.296777 275.531298 
L 210.23034 275.444963 
L 210.110796 275.378545 
L 209.634204 275.350687 
L 209.442756 275.253456 
L 209.318537 274.914819 
L 209.280691 274.701116 
L 209.104176 274.522322 
L 208.771451 274.497323 
L 208.610372 274.639837 
L 208.395007 274.730635 
L 208.324494 274.712147 
L 208.214223 274.607285 
L 208.060852 274.588604 
L 207.488806 274.751287 
L 207.20685 274.626585 
L 206.903218 274.290401 
L 206.832725 274.279563 
L 206.58873 274.393427 
L 206.501989 274.404265 
L 206.344735 274.312096 
L 206.1875 274.046406 
L 206.00857 273.965074 
L 205.569379 274.019302 
L 205.227786 274.019302 
L 205.097656 273.954236 
L 204.958639 273.778919 
L 204.758091 273.698167 
L 204.626898 273.681457 
L 204.504051 273.741943 
L 204.35493 273.892822 
L 204.182839 273.982364 
L 203.798223 273.998998 
L 203.737872 273.955106 
L 203.655053 273.775094 
L 203.240821 273.423919 
L 203.183773 273.274702 
L 203.390966 273.129561 
L 203.612126 272.444482 
L 203.353333 271.993236 
L 202.913814 271.512896 
L 202.607091 271.460697 
L 202.161158 271.302709 
L 202.084618 271.220856 
L 202.071094 271.03671 
L 202.148253 270.840567 
L 202.108573 270.615069 
L 201.942432 269.670898 
L 201.508573 268.977435 
L 201.326475 268.253081 
L 201.346586 267.657621 
L 200.745466 267.25019 
L 200.698695 266.430866 
L 200.316881 265.901418 
L 200.193145 265.369285 
L 199.964064 265.082596 
L 199.680562 264.939888 
L 199.263143 264.932335 
L 199.028479 264.663226 
L 199.165275 264.139979 
L 199.109927 263.963657 
L 198.86626 263.832561 
L 198.405568 263.713519 
L 198.291394 263.711336 
L 198.057735 263.605933 
L 197.881858 263.418021 
L 197.775702 263.099011 
L 197.844457 262.990479 
L 198.093223 262.846149 
L 198.107113 262.770845 
L 198.071528 262.726083 
L 197.898974 262.680395 
L 197.583558 262.391445 
L 197.513489 262.228144 
L 197.355945 262.007313 
L 197.259912 262.020295 
L 197.087338 262.131087 
L 197.033729 262.133676 
L 196.906882 262.057734 
L 196.756139 261.895882 
L 196.747523 261.837579 
L 196.803701 261.7366 
L 196.805421 261.636046 
L 196.644245 261.129684 
L 196.683539 261.032395 
L 196.989006 260.823522 
L 197.090642 260.582714 
L 197.070048 260.507565 
L 196.92765 260.39996 
L 196.84116 260.276378 
L 196.860749 260.2145 
L 197.010257 260.037232 
L 197.064137 259.89439 
L 197.049184 259.682502 
L 196.915692 259.543176 
L 196.882734 259.421855 
L 196.921758 259.362952 
L 197.07567 259.265818 
L 197.145912 258.935217 
L 197.021365 258.289374 
L 196.844927 258.129184 
L 196.780983 258.025713 
L 196.854992 257.766514 
L 196.852249 257.512242 
L 196.642796 257.239346 
L 196.612698 257.227241 
L 196.431875 257.154518 
L 196.096135 257.317722 
L 195.956616 257.303581 
L 195.86974 257.237955 
L 195.788447 257.091326 
L 195.964285 256.733312 
L 195.956094 256.642495 
L 195.827297 256.476335 
L 195.68372 256.426512 
L 195.500289 256.466 
L 195.266012 256.464821 
L 195.150177 256.427865 
L 195.019022 256.302544 
L 194.993367 256.234253 
L 195.11691 256.084804 
L 195.312338 256.065968 
L 195.629608 255.805069 
L 195.571768 255.605159 
L 195.572773 255.496782 
L 195.740903 255.131794 
L 195.87482 254.98928 
L 195.964131 254.37342 
L 195.806143 253.861706 
L 195.817637 253.617634 
L 196.000161 253.362424 
L 196.035649 253.312805 
L 196.101332 253.036567 
L 196.105196 252.955428 
L 196.041444 252.853039 
L 195.770983 252.671444 
L 195.465728 252.690762 
L 195.349816 252.740991 
L 195.224245 252.744855 
L 195.175948 252.702354 
L 195.299607 251.829188 
L 195.359495 251.653388 
L 195.446429 251.579977 
L 195.508249 251.435087 
L 195.486998 251.365539 
L 195.414379 251.28755 
L 195.259138 251.19901 
L 195.140827 251.131532 
L 194.955676 250.685773 
L 194.661491 250.469925 
L 194.62552 250.472205 
L 194.574229 250.573821 
L 194.508507 250.608827 
L 194.177442 250.705671 
L 194.083998 250.673757 
L 194.078106 250.625557 
L 194.213105 250.548842 
L 194.214283 250.378316 
L 194.085176 250.324011 
L 193.957866 250.218589 
L 193.906363 250.003978 
L 193.863997 249.979154 
L 193.722932 249.937927 
L 193.317587 250.082373 
L 193.301997 250.147632 
L 193.039128 250.232228 
L 192.741717 250.177015 
L 192.517156 250.054303 
L 192.527318 249.971098 
L 192.641723 249.875064 
L 192.665002 249.780171 
L 192.596421 249.672083 
L 192.459316 249.590539 
L 192.133391 249.570428 
L 191.871758 249.678574 
L 191.770431 249.687519 
L 191.636939 249.621623 
L 191.443598 249.47113 
L 191.401155 249.332557 
L 191.232464 249.098859 
L 190.747739 248.588305 
L 190.728517 248.4875 
L 190.492713 248.196503 
L 190.412328 248.169341 
L 190.210158 248.230871 
L 190.142948 248.223858 
L 189.998116 248.129815 
L 189.895553 248.010329 
L 189.817911 247.683515 
L 189.674644 247.388634 
L 189.558616 247.348703 
L 189.498709 247.525739 
L 189.429162 247.573669 
L 189.248841 247.602511 
L 189.121705 247.533293 
L 189.063189 247.294803 
L 188.944572 247.001836 
L 188.573866 246.98922 
L 188.426831 246.896491 
L 188.423682 246.414509 
L 188.459171 246.15193 
L 188.436008 246.070579 
L 188.343027 245.911914 
L 188.118254 245.799847 
L 187.966873 245.645896 
L 187.910868 245.431034 
L 187.97178 245.254809 
L 188.109734 245.08975 
L 188.122002 244.968853 
L 188.076178 244.87284 
L 187.994035 244.718986 
L 187.658257 244.606338 
L 187.278046 244.170432 
L 187.251019 243.909204 
L 187.374272 243.645485 
L 187.381014 243.389377 
L 186.782966 243.339748 
L 186.35498 243.200788 
L 186.228945 243.126778 
L 185.896973 242.558732 
L 185.81568 242.302972 
L 185.717637 241.770085 
L 185.508783 241.609141 
L 185.172966 241.494195 
L 185.037446 241.384813 
L 184.962876 241.20173 
L 184.989671 241.067774 
L 184.972342 241.008949 
L 184.756765 240.827044 
L 184.605654 240.609129 
L 184.452669 240.239119 
L 184.319448 240.156473 
L 183.752657 240.01593 
L 183.337885 239.773268 
L 182.961325 239.773055 
L 182.809712 239.70772 
L 182.694283 239.554986 
L 182.476349 239.432641 
L 182.26761 239.346924 
L 182.044286 239.343736 
L 181.966123 239.225371 
L 181.965511 239.219046 
L 181.940139 238.956725 
L 181.860643 238.637619 
L 181.808116 238.535694 
L 181.743475 238.477467 
L 181.667263 238.465239 
L 181.307453 238.499336 
L 181.202475 238.459057 
L 180.893956 238.186818 
L 180.644474 237.844877 
L 180.473195 237.738199 
L 180.394297 237.641915 
L 180.378301 237.527819 
L 180.508548 237.204965 
L 180.52947 236.988538 
L 180.487587 236.898088 
L 179.993821 236.340145 
L 179.934938 236.117536 
L 179.874142 236.026062 
L 179.459254 235.5849 
L 179.410358 235.493929 
L 179.310171 235.243906 
L 179.419148 235.098726 
L 179.552177 234.769691 
L 179.569042 234.711155 
L 179.537919 234.464282 
L 179.465745 234.336566 
L 179.286989 234.149658 
L 179.157322 234.064733 
L 178.948873 233.802887 
L 178.993422 233.727158 
L 179.258996 233.697755 
L 179.414589 233.627995 
L 179.550612 233.522129 
L 179.614866 233.376794 
L 179.523991 233.326933 
L 179.06749 233.200086 
L 178.740405 233.137494 
L 178.551449 233.058113 
L 178.238525 232.671122 
L 178.115736 232.359724 
L 178.388979 231.901137 
L 178.398059 231.809103 
L 178.367439 231.722497 
L 177.759461 231.499231 
L 177.422079 231.250329 
L 177.396424 231.106424 
L 177.456679 230.712903 
L 177.426503 230.615285 
L 177.121751 230.631378 
L 176.897113 230.521126 
L 176.797777 230.363602 
L 176.484293 230.299 
L 176.397532 230.23349 
L 176.210122 229.677827 
L 176.172586 229.395214 
L 176.274917 229.175116 
L 176.257298 228.714288 
L 176.03295 228.413651 
L 175.766526 228.276121 
L 175.674666 227.938122 
L 175.777847 227.739391 
L 175.712183 227.452991 
L 175.490134 227.067989 
L 175.37797 227.021006 
L 175.217373 227.003136 
L 175.042211 227.05833 
L 174.961285 227.010613 
L 174.919808 226.868021 
L 174.994262 226.630479 
L 174.849179 226.484739 
L 174.645598 226.348619 
L 174.494198 226.106421 
L 174.421231 225.873264 
L 174.432822 225.597316 
L 173.946919 225.562735 
L 173.86182 225.580026 
L 173.688783 225.360314 
L 173.71579 225.320189 
L 173.721837 225.101251 
L 173.477359 224.795822 
L 173.56466 224.53218 
L 173.585891 223.965332 
L 173.488293 223.543547 
L 173.433969 223.406345 
L 173.388532 223.370258 
L 173.309364 223.094523 
L 173.25133 222.774895 
L 173.264931 222.580452 
L 173.234852 222.28876 
L 173.151965 222.080811 
L 173.030248 221.775443 
L 172.840615 221.565256 
L 172.688867 221.47695 
L 172.348105 221.390866 
L 172.010105 221.208517 
L 171.810485 221.01618 
L 171.784965 220.966357 
L 171.814426 220.855294 
L 171.77405 220.795812 
L 171.649271 220.725048 
L 171.386807 220.667072 
L 171.137152 220.44796 
L 171.07425 220.354226 
L 171.265003 220.112645 
L 171.245143 219.930316 
L 170.888482 219.295697 
L 170.775448 219.338044 
L 170.692204 219.30356 
L 170.665834 219.151792 
L 170.70291 219.03238 
L 170.70706 219.019015 
L 170.65376 218.93239 
L 170.15414 218.646493 
L 169.951159 218.6531 
L 169.855029 218.617186 
L 169.668642 218.459507 
L 169.51786 218.377538 
L 169.35964 218.369579 
L 169.1396 218.301789 
L 169.084851 218.251406 
L 169.02363 217.925848 
L 168.931094 217.755786 
L 168.583493 217.675381 
L 168.161515 217.393831 
L 167.89227 217.267776 
L 167.842409 217.096304 
L 167.730824 216.994668 
L 167.434224 216.992814 
L 167.290918 216.914979 
L 167.268257 216.853661 
L 166.829897 216.682536 
L 166.663757 216.656089 
L 166.539982 216.580804 
L 166.281073 216.097277 
L 166.037889 215.857532 
L 165.999329 215.76855 
L 166.017836 215.691913 
L 165.907295 215.398288 
L 165.644696 215.18785 
L 165.582992 214.842277 
L 165.061427 214.634543 
L 164.741702 214.612597 
L 164.518475 214.652993 
L 164.232868 214.460559 
L 164.088654 214.554796 
L 163.95663 214.560514 
L 163.810967 214.487895 
L 163.428727 213.967353 
L 163.387038 213.762266 
L 163.021934 213.651783 
L 162.351595 213.61189 
L 162.199827 213.563516 
L 161.820795 213.650682 
L 161.706003 213.465396 
L 161.699474 213.333179 
L 162.024414 212.707061 
L 161.870985 212.031293 
L 161.965241 211.761005 
L 161.871429 211.616579 
L 161.544113 211.531712 
L 161.326372 211.825201 
L 161.381971 212.242562 
L 161.080426 212.65604 
L 160.842536 212.538254 
L 160.672608 212.196371 
L 160.807781 211.325215 
L 160.732689 211.175012 
L 160.627557 211.039839 
L 160.462325 210.994769 
L 159.981695 211.05485 
L 159.756381 210.994769 
L 159.651249 210.874606 
L 159.425955 210.213734 
L 159.076518 209.910488 
L 159.049202 209.851508 
L 159.089153 209.657259 
L 159.07534 209.523806 
L 159.005271 209.44429 
L 158.823907 209.378239 
L 158.716495 209.28095 
L 158.720011 209.087242 
L 158.539768 209.057201 
L 158.224352 209.147323 
L 158.1192 209.117282 
L 157.984027 209.027161 
L 157.950703 208.791415 
L 157.713663 208.636634 
L 157.56346 208.621623 
L 157.023425 208.932287 
L 156.647252 209.027161 
L 156.451998 208.937039 
L 156.361876 208.576553 
L 156.181633 208.306188 
L 155.896258 208.351258 
L 155.625893 208.741766 
L 155.4907 208.801847 
L 155.082709 208.742635 
L 154.652347 208.807082 
L 154.568098 208.852172 
L 154.475195 209.046402 
L 154.257087 209.130844 
L 154.141503 209.044084 
L 154.099446 208.921063 
L 153.947312 208.80289 
L 153.415294 208.804185 
L 153.093754 208.96793 
L 152.947164 208.872824 
L 152.541897 208.796863 
L 152.172504 208.679598 
L 152.045067 208.586942 
L 151.999583 208.553872 
L 151.731304 208.454246 
L 151.56696 208.475014 
L 151.463895 208.575741 
L 151.350552 208.583836 
L 151.164359 208.510985 
L 151.107697 208.438134 
L 151.002449 208.381453 
L 150.686724 208.454323 
L 150.273845 208.211449 
L 150.087652 208.243827 
L 149.833456 208.363525 
L 149.49849 208.288801 
L 149.118549 208.289593 
L 149.019039 208.389548 
L 148.921904 208.438134 
L 148.784278 208.454323 
L 148.622368 208.324792 
L 148.460458 208.292413 
L 148.322832 208.308602 
L 148.209489 208.260016 
L 148.079958 208.106201 
L 147.999012 208.049539 
L 147.918048 208.049539 
L 147.667079 208.227638 
L 147.391845 208.154787 
L 147.002902 208.199935 
L 146.75485 208.170242 
L 146.672669 208.196767 
L 146.632583 208.255592 
L 146.684279 208.386534 
L 146.668535 208.42237 
L 146.459564 208.536486 
L 146.003605 208.50063 
L 145.932087 208.394474 
L 145.795098 208.345385 
L 145.652584 208.386109 
L 145.191525 208.395073 
L 144.676798 208.192922 
L 144.343068 207.970719 
L 144.30302 207.871595 
L 143.912396 207.358742 
L 143.830176 207.311836 
L 143.781454 207.302543 
L 143.458658 207.428212 
L 142.948452 207.315912 
L 142.646424 207.141503 
L 142.379575 207.135862 
L 142.369162 207.011623 
L 142.307787 206.938135 
L 142.233158 206.934561 
L 142.079807 207.031406 
L 141.992989 207.02872 
L 141.682306 206.795409 
L 141.604065 206.747498 
L 141.333449 206.704109 
L 141.232412 206.722268 
L 141.230984 206.724642 
L 141.154848 206.851182 
L 140.985809 206.933499 
L 140.838041 206.909176 
L 140.667495 207.044175 
L 140.383878 207.371241 
L 140.423056 207.607528 
L 140.287671 207.854053 
L 140.138299 208.244909 
L 140.137159 208.441805 
L 139.956239 208.887892 
L 139.835923 208.913219 
L 139.465854 208.865058 
L 139.055544 208.69996 
L 138.36693 208.637967 
L 137.9538 208.558161 
L 137.606411 208.572245 
L 137.521912 208.628578 
L 137.508504 208.909529 
L 137.005523 209.182522 
L 136.888162 209.196605 
L 136.78019 209.168438 
L 136.620579 209.013522 
L 136.574002 208.903154 
L 136.426117 208.86386 
L 136.343124 208.979424 
L 136.298575 209.123368 
L 136.077686 209.21573 
L 135.890005 209.182927 
L 135.586334 209.249113 
L 135.399812 209.472244 
L 135.252662 209.517005 
L 134.952952 209.524829 
L 134.651832 209.482077 
L 134.464073 209.36943 
L 134.343892 209.440774 
L 134.131927 209.745507 
L 134.09186 210.035384 
L 133.935205 210.265102 
L 133.916466 210.469146 
L 134.0295 210.63378 
L 133.43516 211.17648 
L 133.189485 211.309335 
L 133.091288 211.490853 
L 133.160893 211.688155 
L 133.130698 212.130321 
L 133.01071 212.24944 
L 132.800831 212.154314 
L 132.709164 212.142762 
L 132.583013 212.213526 
L 132.700857 212.508812 
L 132.625843 212.645994 
L 132.474442 212.631776 
L 132.405475 212.952215 
L 132.440364 213.03544 
L 132.523357 213.105818 
L 131.803485 213.612489 
L 131.829855 214.1594 
L 131.70183 214.375828 
L 131.373104 215.12035 
L 131.342793 215.335908 
L 131.442941 215.622733 
L 131.496859 215.984069 
L 131.183626 216.420594 
L 131.140294 216.787147 
L 130.780793 216.909801 
L 130.583221 216.901031 
L 130.486453 216.86305 
L 130.434911 216.877191 
L 130.354004 216.978962 
L 130.429676 217.158703 
L 130.223275 217.72389 
L 130.265023 218.062972 
L 130.212978 218.156358 
L 129.98921 218.304571 
L 129.917905 218.679933 
L 129.977928 218.795498 
L 130.273252 218.958103 
L 130.403982 218.950182 
L 130.593073 219.035127 
L 130.680027 219.35601 
L 130.46416 219.555321 
L 130.231485 219.668992 
L 130.054391 219.668045 
L 129.869782 219.465701 
L 129.80518 219.474105 
L 129.733025 219.532525 
L 129.739052 219.620154 
L 129.799056 219.718428 
L 129.695566 220.018988 
L 129.547256 219.96053 
L 129.409514 219.952996 
L 129.171914 220.05525 
L 129.128543 220.21063 
L 129.056407 220.286784 
L 129.006468 220.296965 
L 128.546858 220.105362 
L 128.311827 220.164323 
L 128.210964 220.232982 
L 128.14445 220.36713 
L 128.190969 220.588465 
L 128.060645 220.800159 
L 127.946124 220.838178 
L 127.908201 221.040464 
L 127.817346 221.273293 
L 127.470479 221.498394 
L 127.464297 221.629027 
L 127.418318 221.712619 
L 127.326381 221.783673 
L 127.037991 221.837997 
L 126.670222 221.992643 
L 126.632589 222.046967 
L 126.623084 222.233644 
L 126.17066 222.588315 
L 126.126884 222.920461 
L 126.168689 223.183775 
L 126.144734 223.352891 
L 126.0249 223.436173 
L 125.842783 223.698966 
L 125.906844 223.92426 
L 125.879682 223.987567 
L 125.659063 224.048344 
L 125.500978 224.021278 
L 125.339802 224.126585 
L 125.081473 224.227872 
L 124.942011 224.242014 
L 124.902253 224.20525 
L 124.896226 224.111864 
L 123.706852 223.866594 
L 123.488396 224.057482 
L 123.372252 224.08474 
L 123.294321 224.070985 
L 123.214535 223.960193 
L 123.078859 223.901387 
L 122.96884 223.89221 
L 122.884726 223.932625 
L 122.82677 224.034434 
L 122.737846 224.105295 
L 122.60192 224.049117 
L 122.636365 223.835413 
L 122.579433 223.698019 
L 122.422488 223.603145 
L 122.20749 223.591032 
L 122.082209 223.540127 
L 122.136224 223.347984 
L 122.002963 223.266111 
L 121.768068 223.389287 
L 121.621188 223.322792 
L 121.620144 223.171295 
L 121.685248 223.057875 
L 121.639405 222.9341 
L 121.511052 222.90661 
L 121.387277 222.979944 
L 121.330364 223.151126 
L 121.241266 223.287091 
L 121.114343 223.33761 
L 120.725516 223.234544 
L 119.844023 222.885166 
L 119.710454 222.634352 
L 119.355744 222.39963 
L 119.271572 222.3778 
L 119.159331 222.41209 
L 119.043979 222.365339 
L 119.003448 222.290518 
L 119.000338 222.131525 
L 118.934867 222.028634 
L 118.749137 221.876924 
L 118.452904 221.485643 
L 117.972835 221.365481 
L 117.996578 221.126103 
L 117.964837 221.049505 
L 117.331764 220.700455 
L 116.913225 220.805877 
L 116.664052 220.800178 
L 116.392084 220.604074 
L 116.312839 220.500487 
L 115.63485 220.625808 
L 115.48909 220.556685 
L 115.419002 220.436233 
L 115.353415 220.400784 
L 114.80347 220.258598 
L 114.63648 220.279849 
L 114.318571 220.128892 
L 114.106587 220.004055 
L 113.769824 219.672933 
L 113.484777 219.247594 
L 113.272754 219.369166 
L 113.012609 219.241392 
L 113.063591 218.795305 
L 112.823557 218.616819 
L 112.793555 218.608033 
L 112.282846 218.458464 
L 111.912758 218.326537 
L 111.553624 218.257994 
L 111.09552 218.197913 
L 110.390388 218.212325 
L 110.355537 218.196367 
L 110.356561 218.098518 
L 110.23835 218.024991 
L 109.876665 218.005035 
L 109.449761 217.934696 
L 109.267412 217.984345 
L 108.049427 217.518011 
L 107.714944 217.310258 
L 107.683106 217.1792 
L 107.322233 217.036609 
L 107.201955 217.020227 
L 107.03056 216.87014 
L 106.98605 216.749707 
L 106.888452 216.617761 
L 106.732183 216.494681 
L 106.364973 216.344092 
L 106.013045 216.298577 
L 105.571207 215.988049 
L 105.31027 215.728947 
L 105.28703 215.468125 
L 105.002717 215.147068 
L 104.766951 215.044351 
L 104.683205 214.962478 
L 104.655792 214.889395 
L 104.669489 214.565073 
L 104.527883 214.469137 
L 104.363442 214.409751 
L 104.271794 214.303595 
L 104.278324 214.184032 
L 104.232732 214.106564 
L 103.760467 213.861584 
L 103.685859 213.773181 
L 102.823125 213.573503 
L 102.644215 213.503937 
L 102.462445 213.615019 
L 102.320878 213.667663 
L 102.257088 213.657926 
L 101.618373 213.211742 
L 101.427775 213.205116 
L 101.166046 212.960135 
L 101.170644 212.874206 
L 101.069414 212.646555 
L 100.051126 212.041088 
L 99.776434 211.932208 
L 99.448364 211.575875 
L 99.252144 211.45463 
L 98.98344 211.346311 
L 98.361514 210.642145 
L 98.346098 210.544489 
L 98.438615 210.426278 
L 98.428337 210.364593 
L 98.120417 209.849132 
L 98.055506 209.576777 
L 98.073685 209.393153 
L 97.855558 209.044084 
L 97.860639 208.818693 
L 97.343207 208.049539 
L 97.313244 208.06992 
L 97.214216 208.035417 
L 97.001382 207.878723 
L 96.829968 207.389439 
L 96.727366 207.374428 
L 96.616226 207.218102 
L 96.611261 207.023698 
L 96.554947 206.88638 
L 96.100803 206.522262 
L 96.064735 206.479297 
L 96.057162 206.288892 
L 95.800514 206.10152 
L 95.656686 205.83981 
L 95.568786 205.232682 
L 95.658831 204.862034 
L 95.546434 204.578609 
L 95.46603 204.095507 
L 95.389702 204.015779 
L 95.221262 203.972408 
L 95.188672 203.916616 
L 95.244619 203.697851 
L 95.133111 203.405154 
L 95.196708 203.137687 
L 95.300044 203.123063 
L 95.405427 203.036708 
L 95.55563 202.729812 
L 95.542416 202.530559 
L 95.418641 202.31135 
L 95.355431 201.831744 
L 95.418081 201.705535 
L 95.507256 201.250773 
L 95.511332 200.917313 
L 95.212047 200.293861 
L 95.048843 200.077782 
L 95.011558 199.787306 
L 94.612511 199.337876 
L 94.544162 199.334804 
L 94.484506 199.372012 
L 94.306465 199.337123 
L 94.269701 199.291067 
L 94.147472 198.928803 
L 94.07522 198.566539 
L 93.732855 198.333942 
L 93.386374 198.002665 
L 93.144832 197.913993 
L 93.073662 197.67956 
L 93.048529 197.419995 
L 92.994108 197.315326 
L 92.864325 197.227407 
L 92.609724 197.160892 
L 92.184172 196.842057 
L 92.224375 196.483811 
L 92.321354 196.293812 
L 92.15417 196.098597 
L 91.984205 195.523905 
L 92.006634 195.435328 
L 92.056708 195.405191 
L 92.057191 195.355156 
L 91.850616 194.512398 
L 91.607413 194.046045 
L 91.552316 193.731614 
L 91.421471 193.364945 
L 90.923145 192.699764 
L 90.666226 192.72598 
L 90.12028 192.639181 
L 90.009855 192.594903 
L 89.851055 192.367329 
L 89.860521 192.227886 
L 89.734969 191.613533 
L 89.446348 191.390904 
L 89.430565 191.22884 
L 89.338917 191.130952 
L 89.081186 191.177356 
L 88.640952 191.107441 
L 88.506591 191.231834 
L 88.266093 191.125852 
L 88.260452 190.895593 
L 87.571625 190.495851 
L 87.382417 190.280718 
L 87.331609 190.131964 
L 87.332073 190.02347 
L 87.271528 189.972565 
L 87.088986 189.904892 
L 86.761689 189.846975 
L 86.52687 189.867259 
L 86.424906 189.817881 
L 86.376358 189.758939 
L 86.355552 189.557851 
L 86.286218 189.460775 
L 86.026188 189.46771 
L 85.926562 189.380564 
L 85.878361 189.230902 
L 85.700378 189.081259 
L 85.487545 189.191067 
L 85.357028 189.211139 
L 85.298106 189.190333 
L 85.284235 189.131391 
L 85.318892 188.982309 
L 85.24608 188.899104 
L 84.865425 188.869314 
L 84.536003 188.986772 
L 84.421153 188.966506 
L 83.921244 188.500385 
L 83.759121 188.500385 
L 83.603741 188.601712 
L 83.387565 188.601712 
L 83.333531 188.446332 
L 83.286239 188.39904 
L 82.753294 188.19401 
L 82.502596 188.01398 
L 82.179104 187.989619 
L 81.854068 187.905892 
L 81.806775 187.858599 
L 81.853932 187.539184 
L 81.750384 187.211153 
L 81.481932 187.001217 
L 81.161551 186.885614 
L 80.042265 186.161434 
L 79.8717 186.02203 
L 79.850295 185.890953 
L 79.76736 185.786613 
L 79.171746 185.358144 
L 78.9672 185.360327 
L 78.701491 185.254402 
L 78.282584 184.647487 
L 78.238344 184.546991 
L 78.274316 184.381836 
L 78.162635 183.955047 
L 77.957895 183.812978 
L 77.902798 183.618168 
L 77.814763 183.469434 
L 77.350748 183.16188 
L 77.069835 183.166188 
L 76.976313 182.865087 
L 76.935686 182.826566 
L 75.763872 182.431054 
L 75.618693 182.333244 
L 75.569739 182.184046 
L 75.122743 181.880047 
L 74.719891 181.895038 
L 74.531997 181.84141 
L 74.401326 181.536773 
L 74.407044 181.370304 
L 74.345804 181.248983 
L 74.123813 181.158629 
L 73.651491 180.609187 
L 73.325256 180.297557 
L 72.675549 179.489611 
L 72.546848 179.432525 
L 72.259831 179.462951 
L 72.179407 179.444328 
L 72.016628 179.139267 
L 71.914046 179.023258 
L 71.454609 179.016555 
L 71.340648 178.9081 
L 71.154435 178.495955 
L 71.196704 178.249816 
L 71.041382 178.01917 
L 70.729231 177.996219 
L 70.200195 177.593331 
L 70.056458 177.483868 
L 68.601143 177.363243 
L 68.086899 176.924689 
L 67.984664 176.882671 
L 67.586448 176.84811 
L 67.095058 176.58696 
L 66.757812 176.250931 
L 66.175315 176.063598 
L 65.923863 175.786877 
L 65.825995 175.398146 
L 65.57688 175.147892 
L 65.395304 174.611277 
L 65.229608 174.47906 
L 64.726723 174.207343 
L 64.591995 173.774933 
L 64.287706 173.080078 
L 63.684944 172.235871 
L 63.622789 172.098976 
L 63.448245 171.714545 
L 63.399008 171.606102 
L 63.001024 171.335659 
L 62.929545 171.256453 
L 62.848406 170.995651 
L 62.79045 170.92224 
L 62.077572 170.537817 
L 61.814818 170.495316 
L 61.436291 170.294715 
L 61.428445 170.290557 
L 61.117395 170.391014 
L 61.057507 170.508858 
L 60.964777 170.574523 
L 60.788977 170.618956 
L 60.694315 170.607384 
L 60.350443 170.360105 
L 60.035529 170.070344 
L 59.938936 169.962159 
L 59.946682 169.936253 
L 59.948962 169.900764 
L 59.951416 169.8629 
L 59.958641 169.820901 
L 59.956419 169.808498 
L 59.952459 169.794086 
L 59.902771 169.763254 
L 59.86481 169.766905 
L 59.854764 169.768547 
L 59.853933 169.76704 
L 59.821092 169.685902 
L 59.813152 169.666931 
L 59.809501 169.658856 
L 59.799841 169.637605 
L 59.679022 169.569236 
L 59.678114 169.56999 
L 59.628465 169.527875 
L 59.616294 169.513966 
L 59.592484 169.483567 
L 59.581521 169.469571 
L 59.36322 169.409664 
L 59.276266 169.39618 
L 59.266626 169.367163 
L 59.200943 169.35364 
L 59.121736 169.413528 
L 59.000028 169.409664 
L 58.920822 169.342049 
L 58.905367 169.311139 
L 58.791367 169.183635 
L 58.772049 169.172044 
L 58.679686 169.12964 
L 58.50773 169.127264 
L 58.458661 169.071471 
L 58.522838 168.845578 
L 58.520906 168.752848 
L 58.459086 168.72387 
L 58.447495 168.716143 
L 58.277645 168.712569 
L 58.138164 168.589625 
L 58.062705 168.523516 
L 58.023199 168.440117 
L 57.86637 168.331121 
L 57.867258 168.229138 
L 57.886712 168.171877 
L 57.996365 167.993392 
L 57.967484 167.941348 
L 57.823328 167.839886 
L 57.731641 167.815351 
L 57.685354 167.778143 
L 57.681818 167.70452 
" clip-path="url(#p01acbd7798)" style="fill: #7f0090"/>
   </g>
   <g id="PathCollection_1">
    <defs>
     <path id="m1c26f0b4eb" d="M 0 1.581139 
C 0.419323 1.581139 0.821528 1.41454 1.118034 1.118034 
C 1.41454 0.821528 1.581139 0.419323 1.581139 0 
C 1.581139 -0.419323 1.41454 -0.821528 1.118034 -1.118034 
C 0.821528 -1.41454 0.419323 -1.581139 0 -1.581139 
C -0.419323 -1.581139 -0.821528 -1.41454 -1.118034 -1.118034 
C -1.41454 -0.821528 -1.581139 -0.419323 -1.581139 0 
C -1.581139 0.419323 -1.41454 0.821528 -1.118034 1.118034 
C -0.821528 1.41454 -0.419323 1.581139 0 1.581139 
z
" style="stroke: #000000"/>
    </defs>
    <g clip-path="url(#p01acbd7798)">
     <use xlink:href="#m1c26f0b4eb" x="229.717191" y="199.078059" style="stroke: #000000"/>
    </g>
   </g>
   <g id="text_1">
    <!-- Austin -->
    <g transform="translate(232.717191 196.078059) scale(0.1 -0.1)">
     <defs>
      <path id="DejaVuSans-41" d="M 2188 4044 
L 1331 1722 
L 3047 1722 
L 2188 4044 
z
M 1831 4666 
L 2547 4666 
L 4325 0 
L 3669 0 
L 3244 1197 
L 1141 1197 
L 716 0 
L 50 0 
L 1831 4666 
z
" transform="scale(0.015625)"/>
      <path id="DejaVuSans-75" d="M 544 1381 
L 544 3500 
L 1119 3500 
L 1119 1403 
Q 1119 906 1312 657 
Q 1506 409 1894 409 
Q 2359 409 2629 706 
Q 2900 1003 2900 1516 
L 2900 3500 
L 3475 3500 
L 3475 0 
L 2900 0 
L 2900 538 
Q 2691 219 2414 64 
Q 2138 -91 1772 -91 
Q 1169 -91 856 284 
Q 544 659 544 1381 
z
M 1991 3584 
L 1991 3584 
z
" transform="scale(0.015625)"/>
      <path id="DejaVuSans-73" d="M 2834 3397 
L 2834 2853 
Q 2591 2978 2328 3040 
Q 2066 3103 1784 3103 
Q 1356 3103 1142 2972 
Q 928 2841 928 2578 
Q 928 2378 1081 2264 
Q 1234 2150 1697 2047 
L 1894 2003 
Q 2506 1872 2764 1633 
Q 3022 1394 3022 966 
Q 3022 478 2636 193 
Q 2250 -91 1575 -91 
Q 1294 -91 989 -36 
Q 684 19 347 128 
L 347 722 
Q 666 556 975 473 
Q 1284 391 1588 391 
Q 1994 391 2212 530 
Q 2431 669 2431 922 
Q 2431 1156 2273 1281 
Q 2116 1406 1581 1522 
L 1381 1569 
Q 847 1681 609 1914 
Q 372 2147 372 2553 
Q 372 3047 722 3315 
Q 1072 3584 1716 3584 
Q 2034 3584 2315 3537 
Q 2597 3491 2834 3397 
z
" transform="scale(0.015625)"/>
      <path id="DejaVuSans-74" d="M 1172 4494 
L 1172 3500 
L 2356 3500 
L 2356 3053 
L 1172 3053 
L 1172 1153 
Q 1172 725 1289 603 
Q 1406 481 1766 481 
L 2356 481 
L 2356 0 
L 1766 0 
Q 1100 0 847 248 
Q 594 497 594 1153 
L 594 3053 
L 172 3053 
L 172 3500 
L 594 3500 
L 594 4494 
L 1172 4494 
z
" transform="scale(0.015625)"/>
      <path id="DejaVuSans-69" d="M 603 3500 
L 1178 3500 
L 1178 0 
L 603 0 
L 603 3500 
z
M 603 4863 
L 1178 4863 
L 1178 4134 
L 603 4134 
L 603 4863 
z
" transform="scale(0.015625)"/>
      <path id="DejaVuSans-6e" d="M 3513 2113 
L 3513 0 
L 2938 0 
L 2938 2094 
Q 2938 2591 2744 2837 
Q 2550 3084 2163 3084 
Q 1697 3084 1428 2787 
Q 1159 2491 1159 1978 
L 1159 0 
L 581 0 
L 581 3500 
L 1159 3500 
L 1159 2956 
Q 1366 3272 1645 3428 
Q 1925 3584 2291 3584 
Q 2894 3584 3203 3211 
Q 3513 2838 3513 2113 
z
" transform="scale(0.015625)"/>
     </defs>
     <use xlink:href="#DejaVuSans-41"/>
     <use xlink:href="#DejaVuSans-75" x="68.408203"/>
     <use xlink:href="#DejaVuSans-73" x="131.787109"/>
     <use xlink:href="#DejaVuSans-74" x="183.886719"/>
     <use xlink:href="#DejaVuSans-69" x="223.095703"/>
     <use xlink:href="#DejaVuSans-6e" x="250.878906"/>
    </g>
   </g>
   <g id="text_2">
    <!-- Texas -->
    <g transform="translate(167.914688 62.499219) scale(0.12 -0.12)">
     <defs>
      <path id="DejaVuSans-54" d="M -19 4666 
L 3928 4666 
L 3928 4134 
L 2272 4134 
L 2272 0 
L 1638 0 
L 1638 4134 
L -19 4134 
L -19 4666 
z
" transform="scale(0.015625)"/>
      <path id="DejaVuSans-65" d="M 3597 1894 
L 3597 1613 
L 953 1613 
Q 991 1019 1311 708 
Q 1631 397 2203 397 
Q 2534 397 2845 478 
Q 3156 559 3463 722 
L 3463 178 
Q 3153 47 2828 -22 
Q 2503 -91 2169 -91 
Q 1331 -91 842 396 
Q 353 884 353 1716 
Q 353 2575 817 3079 
Q 1281 3584 2069 3584 
Q 2775 3584 3186 3129 
Q 3597 2675 3597 1894 
z
M 3022 2063 
Q 3016 2534 2758 2815 
Q 2500 3097 2075 3097 
Q 1594 3097 1305 2825 
Q 1016 2553 972 2059 
L 3022 2063 
z
" transform="scale(0.015625)"/>
      <path id="DejaVuSans-78" d="M 3513 3500 
L 2247 1797 
L 3578 0 
L 2900 0 
L 1881 1375 
L 863 0 
L 184 0 
L 1544 1831 
L 300 3500 
L 978 3500 
L 1906 2253 
L 2834 3500 
L 3513 3500 
z
" transform="scale(0.015625)"/>
      <path id="DejaVuSans-61" d="M 2194 1759 
Q 1497 1759 1228 1600 
Q 959 1441 959 1056 
Q 959 750 1161 570 
Q 1363 391 1709 391 
Q 2188 391 2477 730 
Q 2766 1069 2766 1631 
L 2766 1759 
L 2194 1759 
z
M 3341 1997 
L 3341 0 
L 2766 0 
L 2766 531 
Q 2569 213 2275 61 
Q 1981 -91 1556 -91 
Q 1019 -91 701 211 
Q 384 513 384 1019 
Q 384 1609 779 1909 
Q 1175 2209 1959 2209 
L 2766 2209 
L 2766 2266 
Q 2766 2663 2505 2880 
Q 2244 3097 1772 3097 
Q 1472 3097 1187 3025 
Q 903 2953 641 2809 
L 641 3341 
Q 956 3463 1253 3523 
Q 1550 3584 1831 3584 
Q 2591 3584 2966 3190 
Q 3341 2797 3341 1997 
z
" transform="scale(0.015625)"/>
     </defs>
     <use xlink:href="#DejaVuSans-54"/>
     <use xlink:href="#DejaVuSans-65" x="44.083984"/>
     <use xlink:href="#DejaVuSans-78" x="103.857422"/>
     <use xlink:href="#DejaVuSans-61" x="163.037109"/>
     <use xlink:href="#DejaVuSans-73" x="224.316406"/>
    </g>
   </g>
  </g>
 </g>
 <defs>
  <clipPath id="p01acbd7798">
   <rect x="45" y="68.499219" width="279" height="226.601563"/>
  </clipPath>
 </defs>
</svg>
