<?xml version="1.0" encoding="utf-8" standalone="no"?>
<!DOCTYPE svg PUBLIC "-//W3C//DTD SVG 1.1//EN"
  "http://www.w3.org/Graphics/SVG/1.1/DTD/svg11.dtd">
<svg xmlns:xlink="http://www.w3.org/1999/xlink" width="460.8pt" height="345.6pt" viewBox="0 0 460.8 345.6" xmlns="http://www.w3.org/2000/svg" version="1.1">
 <metadata>
  <rdf:RDF xmlns:dc="http://purl.org/dc/elements/1.1/" xmlns:cc="http://creativecommons.org/ns#" xmlns:rdf="http://www.w3.org/1999/02/22-rdf-syntax-ns#">
   <cc:Work>
    <dc:type rdf:resource="http://purl.org/dc/dcmitype/StillImage"/>
    <dc:date>2023-06-19T14:47:54.330342</dc:date>
    <dc:format>image/svg+xml</dc:format>
    <dc:creator>
     <cc:Agent>
      <dc:title>Matplotlib v3.7.1, https://matplotlib.org/</dc:title>
     </cc:Agent>
    </dc:creator>
   </cc:Work>
  </rdf:RDF>
 </metadata>
 <defs>
  <style type="text/css">*{stroke-linejoin: round; stroke-linecap: butt}</style>
 </defs>
 <g id="figure_1">
  <g id="patch_1">
   <path d="M 0 345.6 
L 460.8 345.6 
L 460.8 0 
L 0 0 
z
" style="fill: #ffffff"/>
  </g>
  <g id="axes_1">
   <g id="PatchCollection_1">
    <path d="M 73.848504 212.466484 
L 73.960177 212.076188 
L 74.192518 211.586285 
L 74.319968 211.165669 
L 74.383674 211.063981 
L 74.426061 211.039292 
L 74.518581 210.985404 
L 75.519145 211.054737 
L 75.575356 211.087092 
L 75.590346 211.184157 
L 75.62782 211.235001 
L 75.848956 211.322822 
L 76.81894 211.469483 
L 77.03704 211.532299 
L 77.356808 211.713118 
L 77.42711 211.724858 
L 77.613919 211.690145 
L 77.961418 211.400474 
L 78.112402 211.188456 
L 78.083734 210.898785 
L 78.073016 210.572275 
L 78.094114 210.322401 
L 78.148452 210.060972 
L 78.663573 208.692441 
L 78.833856 207.736255 
L 78.955273 207.459618 
L 78.973316 207.440376 
L 79.265373 207.128902 
L 79.462862 206.962412 
L 79.615158 206.862527 
L 80.038729 206.677964 
L 80.109818 206.673018 
L 80.251096 206.723677 
L 81.361496 207.421809 
L 81.69127 207.523496 
L 82.065375 207.449727 
L 82.211525 207.380764 
L 82.334815 207.293359 
L 82.793051 206.834794 
L 82.96547 206.631465 
L 83.010402 206.552842 
L 83.039632 206.417413 
L 82.969555 205.934258 
L 82.951717 205.898899 
L 82.86013 205.815376 
L 82.074332 205.69409 
L 81.97791 205.64981 
L 81.842816 205.476571 
L 81.721849 205.314888 
L 81.592975 205.152835 
L 81.506447 205.027343 
L 81.410887 204.848188 
L 81.369591 204.668848 
L 81.297865 204.660159 
L 81.180833 204.51909 
L 81.061702 204.232562 
L 81.056118 204.108689 
L 81.107083 203.742243 
L 81.373376 203.714187 
L 81.810625 203.913448 
L 81.845926 203.910952 
L 81.965132 203.521119 
L 82.140811 203.10078 
L 82.308583 203.19105 
L 82.41902 203.295974 
L 82.582146 203.265282 
L 82.677668 203.141085 
L 82.682015 202.883815 
L 82.653347 202.727494 
L 82.579935 202.54478 
L 82.50982 202.38758 
L 82.352841 202.201861 
L 82.226065 202.021828 
L 82.054808 201.722774 
L 81.790427 201.362523 
L 81.732604 201.29735 
L 81.522636 201.163539 
L 81.334777 201.109552 
L 81.095429 201.094206 
L 80.829361 201.131137 
L 80.509968 201.214752 
L 80.199756 201.255936 
L 79.761307 201.084916 
L 79.507569 200.780408 
L 79.21793 200.22524 
L 79.135487 200.017242 
L 79.132601 199.882783 
L 79.270394 199.365517 
L 79.322184 199.230226 
L 79.41913 199.099142 
L 79.50577 199.021212 
L 79.712591 198.931034 
L 79.847498 198.898679 
L 80.233108 199.104827 
L 80.499588 199.028099 
L 80.825089 198.841271 
L 80.894155 198.84104 
L 81.068223 198.894241 
L 81.372738 198.820148 
L 81.457768 197.912771 
L 81.568766 197.552843 
L 81.327769 197.073017 
L 81.383081 197.082215 
L 81.43948 197.056516 
L 81.702475 196.664741 
L 81.832473 196.406039 
L 81.957375 196.254894 
L 82.069797 196.236405 
L 82.166818 196.126213 
L 82.319676 195.8707 
L 82.650649 195.161013 
L 82.539013 195.144881 
L 82.465601 195.109244 
L 82.172814 194.851975 
L 81.95374 194.736652 
L 81.839031 194.647721 
L 81.532042 194.359761 
L 81.459604 194.274158 
L 81.318401 194.031217 
L 81.244914 193.959204 
L 81.080102 193.888069 
L 80.571464 193.793176 
L 80.397208 193.828674 
L 80.293929 193.896481 
L 80.152314 194.032696 
L 80.08531 194.120148 
L 80.023964 194.254838 
L 79.982518 194.453082 
L 79.994547 194.655949 
L 80.084298 195.001548 
L 80.382781 195.506935 
L 80.029998 195.600996 
L 79.230971 195.59582 
L 79.000804 195.460113 
L 78.77772 195.256229 
L 78.743094 195.11285 
L 79.064061 193.963272 
L 79.067846 193.580233 
L 79.127692 193.418411 
L 80.207791 192.742164 
L 80.60995 192.490373 
L 80.846262 191.661989 
L 80.94081 191.389836 
L 81.02434 191.24886 
L 81.173413 191.078949 
L 81.424078 190.872431 
L 81.647575 190.874557 
L 81.761497 190.795703 
L 82.275269 190.78461 
L 82.458181 190.876637 
L 82.757001 191.158219 
L 82.920239 191.367511 
L 82.944972 191.431805 
L 82.942423 191.61096 
L 82.787992 192.101788 
L 82.685462 192.597607 
L 82.68475 192.857743 
L 82.817147 193.351944 
L 83.13684 193.726848 
L 82.864589 194.044575 
L 83.338227 194.253497 
L 83.512479 194.057097 
L 83.714693 193.829183 
L 83.76311 193.715061 
L 83.803957 193.539604 
L 83.863016 193.446883 
L 83.940588 193.368861 
L 84.277332 193.14991 
L 84.289211 192.968998 
L 84.362548 192.799411 
L 84.435249 192.677155 
L 84.464703 192.574866 
L 84.452899 192.354574 
L 84.463954 192.219653 
L 84.552281 191.920507 
L 84.634087 191.776526 
L 84.754829 191.432591 
L 84.748983 191.294527 
L 84.696969 191.181099 
L 84.150219 190.698176 
L 83.830151 190.162328 
L 83.74441 189.96658 
L 83.642705 189.604941 
L 83.576825 189.100294 
L 83.621307 188.777574 
L 83.728596 188.438539 
L 83.784021 188.343091 
L 83.888424 188.074497 
L 83.971542 187.585796 
L 84.051325 187.480041 
L 84.226592 187.336245 
L 84.388406 187.25263 
L 84.565172 187.202387 
L 84.812165 187.218103 
L 85.038884 187.0744 
L 85.150145 187.030027 
L 85.498544 186.979414 
L 85.724176 186.997256 
L 85.859533 187.031044 
L 86.348685 187.316277 
L 87.016177 187.878748 
L 87.083331 187.98663 
L 87.123241 188.210851 
L 87.118032 188.271124 
L 87.04462 188.413902 
L 87.045519 188.549471 
L 87.096784 188.623333 
L 87.287865 188.795647 
L 87.409207 188.877737 
L 87.52103 188.910184 
L 87.948686 188.949473 
L 88.340405 189.139443 
L 88.483932 189.165235 
L 88.631243 189.107504 
L 88.761241 189.001611 
L 88.870254 188.856567 
L 88.921294 188.74582 
L 89.062872 188.226705 
L 89.04376 188.156171 
L 88.999165 188.106575 
L 88.877599 188.048474 
L 88.863357 188.04232 
L 88.804112 188.01672 
L 88.800439 187.907914 
L 88.836489 187.770867 
L 88.804037 187.610108 
L 88.677074 187.508513 
L 88.555395 187.481011 
L 88.30353 187.469317 
L 88.117808 187.423835 
L 87.657174 187.192265 
L 87.531223 187.018795 
L 87.450391 186.867558 
L 87.177391 186.291174 
L 87.08393 186.042687 
L 87.037687 185.854426 
L 87.038736 185.772983 
L 87.081719 185.622763 
L 87.179302 185.449293 
L 87.29165 185.300136 
L 87.506827 185.109703 
L 87.990433 184.820633 
L 88.473139 184.618598 
L 88.75221 184.395856 
L 88.807859 184.373623 
L 88.982414 184.437918 
L 89.216254 184.488022 
L 89.320807 184.496296 
L 89.420226 184.466113 
L 90.087193 183.952221 
L 90.562105 183.761094 
L 90.834018 183.592108 
L 90.936285 183.41568 
L 91.01367 183.138304 
L 91.04972 182.86347 
L 91.037991 182.529565 
L 90.950526 182.270632 
L 90.747228 181.9921 
L 90.659463 181.945694 
L 90.528116 181.930856 
L 90.254703 182.018585 
L 90.064334 182.127252 
L 90.012769 182.18808 
L 89.849419 182.528132 
L 89.773009 182.637031 
L 89.696299 182.704976 
L 89.563978 182.761783 
L 89.248969 182.8313 
L 88.977992 182.820161 
L 88.630231 182.744496 
L 88.355844 182.628433 
L 88.045295 182.408834 
L 87.807446 182.146896 
L 87.608195 181.711951 
L 87.3286 181.373978 
L 87.210856 181.189785 
L 87.119044 180.995516 
L 87.087715 180.770647 
L 87.074824 180.022273 
L 87.001787 179.460357 
L 87.009094 179.281386 
L 87.100269 179.018847 
L 87.185373 178.890629 
L 87.324215 178.782794 
L 88.627833 178.02365 
L 88.716235 177.913411 
L 88.833754 177.816623 
L 89.000814 177.832015 
L 89.65193 178.247362 
L 89.825361 178.482769 
L 90.060662 178.64986 
L 90.225961 178.653096 
L 90.562142 178.362223 
L 90.793246 178.247362 
L 91.219104 177.985979 
L 91.723058 178.024204 
L 92.021803 177.986765 
L 92.16072 177.940497 
L 92.414046 177.791432 
L 92.472693 177.735365 
L 92.608013 177.5863 
L 92.983917 177.075089 
L 93.05954 176.858864 
L 93.066211 176.741877 
L 92.980844 176.47125 
L 93.093529 176.272312 
L 93.638068 175.704849 
L 94.250248 175.500133 
L 94.25081 175.42151 
L 94.534415 175.458441 
L 95.090871 175.670969 
L 95.427427 175.654467 
L 95.825329 175.506188 
L 95.956901 175.405656 
L 96.47517 175.095833 
L 96.557989 175.002419 
L 96.637621 174.81952 
L 96.664041 174.635142 
L 96.650475 174.507662 
L 96.595163 174.361232 
L 96.540151 174.288526 
L 96.356152 174.14131 
L 95.597073 173.738211 
L 94.851073 173.492173 
L 94.291994 173.244518 
L 94.102 173.094529 
L 93.987553 172.930904 
L 93.956562 172.8233 
L 93.946444 172.625887 
L 93.973013 172.415718 
L 94.015322 172.254866 
L 94.127107 171.934134 
L 94.241554 171.719851 
L 94.59295 171.407347 
L 95.157725 171.005727 
L 96.143561 171.02893 
L 97.147609 171.458837 
L 97.384484 171.780355 
L 97.56466 171.977721 
L 97.844181 172.090456 
L 97.989618 172.089532 
L 98.285702 171.976335 
L 98.372605 171.922625 
L 98.551433 171.739218 
L 98.67922 171.552482 
L 98.770357 171.116566 
L 98.700168 170.947534 
L 98.564174 170.495163 
L 98.491511 170.325668 
L 98.346561 170.124696 
L 97.785571 169.663173 
L 97.579312 169.443898 
L 97.193215 169.112165 
L 96.708036 168.818797 
L 96.319952 168.552421 
L 96.157389 168.404142 
L 95.998835 168.161525 
L 95.965745 168.03876 
L 95.95484 167.868618 
L 95.998648 167.388145 
L 95.984895 167.343726 
L 95.637358 166.992811 
L 95.53333 166.839771 
L 95.46299 166.667411 
L 96.44343 166.65017 
L 96.49046 166.463573 
L 96.569381 166.323892 
L 96.986619 165.747646 
L 97.13127 165.344085 
L 97.180848 165.121759 
L 97.286339 164.304977 
L 97.379762 163.352026 
L 97.4516 162.882506 
L 97.496869 162.783499 
L 97.73513 162.450658 
L 97.954917 162.267389 
L 98.288026 162.113656 
L 98.838485 161.906028 
L 99.389919 161.756593 
L 99.510849 161.697522 
L 99.883718 161.434752 
L 100.378079 161.173415 
L 100.490127 161.066736 
L 100.675474 160.816584 
L 100.710325 160.700614 
L 100.746601 160.42615 
L 100.765225 160.035161 
L 100.742703 159.756722 
L 100.660597 159.510037 
L 100.417989 159.089374 
L 100.188159 158.783341 
L 99.767548 158.377191 
L 99.558591 158.231039 
L 99.346936 158.126855 
L 99.06809 157.96189 
L 98.772156 157.723849 
L 98.394191 157.380468 
L 98.046879 157.149822 
L 97.469625 156.715755 
L 97.261838 156.538495 
L 96.979387 156.297541 
L 96.715306 156.02659 
L 96.536104 155.811798 
L 96.506461 155.760955 
L 96.495407 155.688479 
L 96.503538 155.607037 
L 96.571629 155.444614 
L 96.710059 155.2148 
L 96.756865 155.112789 
L 96.881766 155.012257 
L 97.028928 155.044011 
L 97.21926 155.162893 
L 97.525912 155.219422 
L 98.482555 155.10812 
L 98.869889 155.163864 
L 99.07195 155.228897 
L 99.535657 155.449559 
L 100.032978 155.636018 
L 100.206671 155.679605 
L 100.361665 155.689866 
L 100.925578 155.626172 
L 101.292151 155.497769 
L 101.427658 155.424692 
L 101.762341 155.137009 
L 101.866931 155.09809 
L 102.024885 155.092174 
L 102.190822 155.124344 
L 102.363615 155.223305 
L 102.521345 155.256399 
L 102.638339 155.237587 
L 102.727978 155.194601 
L 102.896012 155.021039 
L 102.904931 154.594598 
L 102.866633 154.190667 
L 102.786213 153.971669 
L 102.718309 153.875112 
L 102.519321 153.732287 
L 102.452617 153.733165 
L 102.35361 153.811234 
L 102.163615 153.857409 
L 101.256625 153.369031 
L 101.037588 153.13686 
L 100.832117 152.976286 
L 100.00772 152.408962 
L 99.729549 151.871035 
L 99.691587 151.765649 
L 99.708638 151.46336 
L 99.856999 151.161116 
L 100.050066 150.959729 
L 100.238225 150.8769 
L 100.430243 150.842187 
L 101.138806 150.871214 
L 101.933148 151.084342 
L 102.511489 151.127652 
L 102.771073 151.095898 
L 103.00555 151.01501 
L 103.185164 150.902553 
L 103.347577 150.758803 
L 103.486045 150.582653 
L 103.70422 150.060487 
L 103.833731 149.42591 
L 103.839877 149.359397 
L 103.809073 149.207282 
L 103.675065 148.905224 
L 103.250219 148.186246 
L 102.611508 147.277667 
L 102.540906 147.112148 
L 102.502158 146.955225 
L 102.492864 146.787857 
L 102.509428 146.593033 
L 102.571448 146.414848 
L 102.666557 146.285936 
L 103.175983 145.824367 
L 103.254079 145.711309 
L 103.320146 145.592011 
L 103.410309 145.34417 
L 103.459063 145.109919 
L 103.46727 144.720872 
L 103.424512 144.570698 
L 103.348364 144.448811 
L 102.904294 143.980725 
L 102.727865 143.680192 
L 104.271656 143.682364 
L 104.477727 143.687541 
L 104.744169 143.700668 
L 104.696089 143.817932 
L 104.441826 144.569219 
L 104.413608 144.695311 
L 104.420129 144.822282 
L 104.452956 144.965615 
L 104.547691 145.17805 
L 104.714639 145.358684 
L 105.077502 145.533124 
L 105.257903 145.572182 
L 105.541396 145.563492 
L 105.680688 145.519535 
L 105.956312 145.374168 
L 106.12918 145.229263 
L 106.567817 144.766492 
L 106.847075 144.422465 
L 107.085749 144.075525 
L 107.204617 143.866835 
L 107.297441 143.629394 
L 107.798847 143.624402 
L 108.281103 143.627268 
L 108.627815 143.581832 
L 108.691784 143.56547 
L 109.572129 143.483241 
L 109.967108 143.436326 
L 111.682268 143.254352 
L 112.35628 143.271223 
L 112.47646 143.283749 
L 115.012794 143.32447 
L 116.81081 143.375499 
L 116.818492 143.375684 
L 118.445587 143.416127 
L 118.530579 143.418161 
L 119.557037 143.427914 
L 120.232623 143.434524 
L 120.729045 143.438776 
L 121.636747 143.447697 
L 122.539603 143.45938 
L 122.543999 143.459437 
L 122.679431 143.460639 
L 122.932832 143.462996 
L 124.266616 143.483426 
L 126.700983 143.482178 
L 127.261335 143.505936 
L 127.629782 143.47164 
L 129.123477 143.450137 
L 129.132463 143.450008 
L 129.406957 143.452854 
L 129.417792 143.452966 
L 129.801784 143.454573 
L 130.445262 143.457265 
L 132.396585 143.453706 
L 133.605805 143.461656 
L 135.633987 143.481023 
L 138.776205 143.495028 
L 139.978792 143.500852 
L 141.05674 143.518601 
L 141.059787 143.518532 
L 141.21252 143.515088 
L 141.225636 143.517353 
L 142.076677 143.535333 
L 142.081728 143.535348 
L 142.700474 143.537182 
L 143.450746 143.544393 
L 143.54001 143.533808 
L 144.806678 143.549754 
L 148.013014 143.560154 
L 148.196788 143.562373 
L 148.387944 143.56473 
L 155.636068 143.652181 
L 158.412402 143.717324 
L 158.415648 143.7174 
L 158.51829 143.582248 
L 158.711732 143.396067 
L 158.929944 143.103623 
L 158.992114 142.944528 
L 159.010589 142.760566 
L 158.991814 142.61335 
L 159.0128 142.485409 
L 159.065864 142.387003 
L 159.130394 142.146281 
L 159.191965 141.705234 
L 159.142761 141.193514 
L 159.074445 140.731159 
L 158.924548 140.220549 
L 158.865676 139.696395 
L 158.718365 138.826689 
L 158.320725 137.55393 
L 158.325747 137.31196 
L 158.271859 137.08871 
L 158.214223 136.960445 
L 157.996086 136.61198 
L 157.853421 136.200931 
L 157.766331 135.351793 
L 158.731668 135.358033 
L 159.96757 135.402313 
L 165.20385 135.954015 
L 166.046834 136.018171 
L 165.91054 137.425804 
L 169.9741 137.291576 
L 171.869424 137.249049 
L 173.857109 137.204449 
L 176.713473 137.154668 
L 176.783775 137.154668 
L 181.192414 137.084453 
L 181.525882 137.079142 
L 181.956836 137.065275 
L 182.357811 137.065275 
L 182.35832 137.065272 
L 183.430194 137.05746 
L 184.850337 137.04711 
L 184.98768 137.043875 
L 185.293151 137.042365 
L 186.081246 137.038469 
L 187.334507 137.032273 
L 187.450977 137.034261 
L 188.603048 137.028575 
L 189.225796 137.026403 
L 189.244795 137.026079 
L 193.575098 137.00209 
L 195.603587 136.964967 
L 197.451961 136.93114 
L 201.384474 136.824553 
L 201.405459 136.822381 
L 203.34494 136.79548 
L 204.136135 136.780411 
L 204.68888 136.760582 
L 204.772036 136.756746 
L 204.890042 136.760213 
L 206.754095 136.701966 
L 206.918037 136.696843 
L 208.609401 136.681913 
L 212.633839 136.554064 
L 212.684504 136.553232 
L 213.251714 136.536546 
L 214.217164 137.415404 
L 214.22568 137.411715 
L 214.698746 137.206806 
L 214.745139 136.89102 
L 214.994943 136.933867 
L 214.980365 137.088895 
L 216.329664 136.538441 
L 217.614057 136.574217 
L 217.617205 136.573986 
L 217.663036 136.569964 
L 217.801428 136.566359 
L 219.941616 136.623894 
L 221.305498 136.660559 
L 221.350729 136.645629 
L 221.902013 136.658617 
L 222.877169 136.707936 
L 224.364673 136.866106 
L 227.033066 137.072486 
L 227.148112 137.075583 
L 227.248206 137.086168 
L 227.256712 137.089311 
L 227.658226 137.123685 
L 227.681071 137.125641 
L 227.954108 137.143113 
L 232.287221 137.398025 
L 232.335113 137.393772 
L 233.920275 137.538724 
L 234.116153 137.556796 
L 234.129981 137.558922 
L 236.263181 137.64011 
L 236.857696 137.662736 
L 240.08513 137.869763 
L 241.647245 137.943533 
L 242.797031 137.926338 
L 243.278388 137.952777 
L 243.279587 137.952814 
L 245.40629 138.018273 
L 247.432636 138.123288 
L 252.145851 138.233065 
L 252.165862 138.235607 
L 254.531613 138.269488 
L 256.477276 138.106367 
L 256.71374 138.086542 
L 260.311232 137.901702 
L 260.666114 137.827794 
L 261.57494 137.833017 
L 261.737166 137.768907 
L 261.741817 137.768248 
L 261.941251 137.739973 
L 262.478557 137.737153 
L 265.510863 137.783975 
L 269.22996 137.923334 
L 269.593947 137.94968 
L 271.909408 138.067961 
L 273.340138 138.192112 
L 273.773825 138.243704 
L 274.932794 138.381575 
L 278.088503 138.662325 
L 278.087716 138.665422 
L 278.712337 138.725556 
L 280.186838 138.765399 
L 280.874282 138.806544 
L 280.876477 138.806675 
L 281.13449 138.814209 
L 286.887425 138.982179 
L 289.952858 139.134618 
L 291.571747 139.116083 
L 293.711565 139.14377 
L 300.144436 139.337762 
L 300.513296 139.333186 
L 301.787458 139.323942 
L 301.792643 139.323991 
L 305.528478 139.35944 
L 310.762172 139.44324 
L 310.770831 139.443596 
L 312.901249 139.531326 
L 314.263056 139.587405 
L 318.212995 139.707581 
L 321.896828 139.767669 
L 321.968029 139.684424 
L 322.016746 139.555004 
L 322.18538 139.323895 
L 322.31654 139.236074 
L 322.406478 139.12052 
L 322.46269 139.028077 
L 322.470222 138.92491 
L 322.667786 138.925696 
L 322.668273 138.927221 
L 323.587967 138.962442 
L 324.448451 139.052158 
L 326.914783 139.08345 
L 330.088929 139.088073 
L 333.731578 139.083358 
L 337.426692 139.046334 
L 337.996338 139.245087 
L 338.400873 139.242869 
L 338.41605 139.244579 
L 338.45225 139.247861 
L 346.718175 139.24481 
L 346.759659 139.246936 
L 348.338318 139.252334 
L 351.977465 139.264778 
L 354.135233 139.250911 
L 359.181257 139.253823 
L 359.777135 139.253823 
L 362.426679 139.235288 
L 364.229266 139.202887 
L 364.277983 139.202887 
L 364.483342 139.199374 
L 366.996217 139.155649 
L 367.317371 139.166464 
L 367.769124 139.217632 
L 374.125435 139.161103 
L 374.232454 139.16103 
L 376.141505 139.159724 
L 376.76145 139.1593 
L 376.796564 139.159254 
L 376.881668 139.160317 
L 376.946573 139.156018 
L 377.347848 139.153892 
L 377.366885 139.15796 
L 378.191544 139.185369 
L 378.482007 139.196971 
L 378.612904 139.204366 
L 378.735258 139.211808 
L 379.606722 139.208757 
L 379.687591 139.206677 
L 379.799863 139.207003 
L 384.525721 139.220731 
L 387.723013 139.230019 
L 388.153967 138.213143 
L 391.747824 138.305494 
L 395.113089 138.390357 
L 398.487273 138.411665 
L 397.339248 139.511786 
L 397.24174 139.631916 
L 397.282999 139.936979 
L 397.350453 140.145531 
L 397.357948 140.315996 
L 397.249273 140.413062 
L 397.00569 140.445417 
L 396.863288 140.40844 
L 396.778221 140.545718 
L 396.790925 140.686833 
L 396.867185 140.827901 
L 396.905296 141.000354 
L 396.871007 141.174055 
L 396.72808 141.316001 
L 396.589613 141.534352 
L 396.498813 141.749052 
L 396.498813 141.882401 
L 396.198981 141.911059 
L 396.187776 142.100383 
L 396.213596 142.378267 
L 396.402092 142.645613 
L 396.476666 142.882591 
L 396.493904 142.930292 
L 396.512341 142.989225 
L 396.51815 143.052964 
L 396.581931 143.194217 
L 396.578745 143.236002 
L 396.598944 143.358813 
L 396.573462 143.396899 
L 396.500274 143.544716 
L 396.48847 143.562743 
L 396.500087 143.676309 
L 396.562407 143.713148 
L 396.600031 143.763067 
L 396.615995 143.890084 
L 396.650771 143.973884 
L 396.599057 144.290132 
L 396.636756 144.717174 
L 396.691168 144.76506 
L 396.702261 144.819601 
L 396.673106 145.067857 
L 396.573274 145.214426 
L 396.526506 145.250572 
L 396.457066 145.238878 
L 396.188338 145.33109 
L 395.939397 145.562059 
L 395.932202 145.740244 
L 395.962369 145.850575 
L 395.964804 146.032364 
L 395.926693 146.157764 
L 395.913952 146.298832 
L 395.926693 146.424231 
L 395.926693 146.518292 
L 395.863137 146.675076 
L 395.825138 146.877434 
L 395.720397 147.165164 
L 395.376009 147.494031 
L 395.211572 147.590172 
L 395.062424 147.709701 
L 395.011609 147.897823 
L 395.011609 148.132953 
L 395.075165 148.336744 
L 395.227873 148.457844 
L 395.316612 148.571873 
L 395.354761 148.650265 
L 395.380168 148.759995 
L 395.345542 148.995263 
L 395.291204 149.136193 
L 395.265797 149.292977 
L 395.329016 149.405758 
L 395.519985 149.644677 
L 395.596245 149.857297 
L 395.596245 150.01408 
L 395.608949 150.123811 
L 395.64706 150.296217 
L 395.697913 150.374609 
L 395.812284 150.500008 
L 395.977508 150.547062 
L 396.205652 150.702505 
L 396.298813 150.894556 
L 396.273817 151.049676 
L 396.218655 151.203363 
L 396.002953 151.252497 
L 395.853356 151.157234 
L 395.709867 151.042789 
L 395.525381 150.963334 
L 395.336586 150.925294 
L 395.189537 150.938975 
L 395.01723 150.991391 
L 394.831245 151.082863 
L 394.704545 151.102369 
L 394.458039 151.11679 
L 394.325305 151.095713 
L 394.223637 151.064375 
L 394.160081 151.033036 
L 394.020264 151.048705 
L 393.912526 150.931996 
L 393.575445 150.688131 
L 393.450056 150.626286 
L 393.346664 150.625454 
L 393.219589 150.5784 
L 393.117921 150.437332 
L 393.054365 150.296217 
L 392.927252 150.155149 
L 392.719532 150.144795 
L 392.440611 150.327463 
L 392.266393 150.46867 
L 391.907053 150.57253 
L 391.505741 150.640938 
L 391.203473 150.826657 
L 391.039711 150.963519 
L 390.842933 151.095713 
L 390.601449 151.221112 
L 390.383536 151.432715 
L 389.964274 151.942031 
L 389.895096 152.086011 
L 389.775179 152.192691 
L 389.480593 152.404109 
L 389.206057 152.497014 
L 389.088687 152.484858 
L 388.697606 152.73598 
L 388.323828 153.424673 
L 387.766108 154.452282 
L 387.765145 154.454054 
L 387.544897 154.859679 
L 386.750293 156.150926 
L 384.256792 160.67644 
L 384.268034 160.722662 
L 384.178096 160.949148 
L 384.013172 161.129412 
L 383.833295 161.097057 
L 383.60845 160.89835 
L 383.226175 160.83364 
L 383.154974 160.967683 
L 383.154974 161.115592 
L 382.95636 161.466876 
L 382.739009 161.517766 
L 382.266796 161.771985 
L 382.251806 161.808963 
L 382.221753 161.807045 
L 382.034455 161.795096 
L 381.562242 161.809009 
L 381.446072 161.785898 
L 381.303669 161.698077 
L 381.164977 161.739723 
L 380.936384 161.859899 
L 380.490403 161.869189 
L 380.359243 161.776746 
L 380.084631 161.168516 
L 380.138145 160.977112 
L 380.138107 160.741382 
L 379.976968 160.399388 
L 379.853303 160.029615 
L 379.710863 159.78464 
L 379.411069 159.849397 
L 379.226133 159.921826 
L 378.912623 159.918775 
L 378.803948 159.92802 
L 378.740242 159.978863 
L 378.67425 160.045607 
L 378.552421 160.072139 
L 378.414216 160.052818 
L 378.372956 160.020463 
L 378.331735 159.974241 
L 378.215565 159.859981 
L 378.06192 159.817134 
L 377.934507 159.761668 
L 377.78832 159.636869 
L 377.692349 159.532871 
L 377.577677 159.43562 
L 377.338629 159.345719 
L 377.241158 159.341097 
L 377.068814 159.400261 
L 376.933869 159.442831 
L 376.88965 159.541699 
L 376.828941 159.76176 
L 376.70018 159.918405 
L 376.455885 160.144984 
L 376.430702 160.189911 
L 376.395626 160.227905 
L 376.346085 160.261971 
L 376.203084 160.358019 
L 376.13563 160.48744 
L 376.094108 160.558344 
L 375.979437 160.64672 
L 375.817099 160.584552 
L 375.764635 160.515219 
L 375.649738 160.505281 
L 375.498567 160.515219 
L 375.386107 160.681617 
L 375.298567 160.796986 
L 375.183896 160.823517 
L 375.101302 160.797171 
L 374.985132 160.713972 
L 374.812751 160.755572 
L 374.749044 160.741705 
L 374.445465 160.436642 
L 374.407991 160.422776 
L 374.100702 160.524463 
L 373.905836 160.626151 
L 373.740949 160.755572 
L 373.688485 160.848015 
L 373.332442 161.106856 
L 373.209077 161.169671 
L 373.069635 161.178361 
L 372.919438 161.267846 
L 372.802818 161.290587 
L 372.63542 161.384232 
L 372.256893 161.370366 
L 372.198245 161.337086 
L 372.140722 161.282544 
L 371.945856 161.351877 
L 371.75099 161.536763 
L 371.729929 161.582754 
L 371.518312 161.719755 
L 371.337799 161.778087 
L 371.181344 161.814093 
L 371.061426 161.943514 
L 370.99772 162.105289 
L 370.641714 162.216221 
L 370.098337 162.646083 
L 369.910966 162.840213 
L 369.641047 163.331796 
L 367.992283 166.334569 
L 367.846133 166.394703 
L 367.485181 166.690522 
L 367.181565 166.796138 
L 367.136371 166.867273 
L 367.130075 166.979037 
L 367.092151 167.026044 
L 366.989734 167.082204 
L 366.988235 167.085763 
L 366.51025 167.501572 
L 366.316209 167.72718 
L 366.31358 167.727575 
L 366.253102 167.736656 
L 366.045869 167.820363 
L 365.901743 167.806774 
L 365.743752 167.868018 
L 365.667229 167.923345 
L 365.345325 167.981029 
L 365.215252 168.087385 
L 365.046243 168.123069 
L 364.9267 168.174883 
L 364.656173 168.346781 
L 364.524639 168.515398 
L 364.349184 168.826284 
L 363.988344 168.749973 
L 363.701029 168.619073 
L 363.644518 168.578814 
L 363.605507 168.350433 
L 363.482441 168.287525 
L 363.071199 168.249254 
L 362.96316 168.297232 
L 362.756677 168.330557 
L 362.479705 168.265986 
L 362.362485 168.201923 
L 362.335766 168.01662 
L 362.362635 167.876846 
L 362.517966 167.414445 
L 362.611689 167.28165 
L 362.510321 167.057429 
L 362.298217 166.996509 
L 362.282328 166.972843 
L 362.206105 166.68137 
L 362.232337 166.53346 
L 362.251074 166.477994 
L 362.326023 166.408662 
L 362.608392 165.854881 
L 362.767208 165.689084 
L 362.93824 165.493196 
L 362.962673 165.327446 
L 362.913807 165.221968 
L 362.816074 165.11649 
L 362.742774 164.965808 
L 362.662729 164.854367 
L 362.539589 164.800149 
L 362.408429 164.619885 
L 362.262279 164.550552 
L 362.08986 164.522866 
L 362.093607 164.328735 
L 362.123587 164.19007 
L 362.071123 164.102249 
L 361.707585 163.824919 
L 361.561435 163.658521 
L 361.377811 163.653899 
L 361.137976 163.792564 
L 360.890646 164.023672 
L 360.71639 164.096702 
L 360.625178 164.077705 
L 360.422217 164.153093 
L 360.208614 164.250158 
L 360.036232 164.365712 
L 359.639005 164.564511 
L 359.594036 164.615355 
L 359.564057 164.75402 
L 359.440391 164.911174 
L 358.983205 165.105304 
L 358.904509 165.197748 
L 358.74337 165.304057 
L 358.454818 165.37339 
L 358.439828 165.451967 
L 358.447323 165.5745 
L 358.424839 165.641475 
L 358.083823 165.854095 
L 357.978895 165.840228 
L 357.828998 165.881828 
L 357.146966 166.417999 
L 356.982079 166.496576 
L 356.80595 166.501244 
L 356.573609 166.55671 
L 356.175033 166.690753 
L 356.126991 166.750471 
L 356.07805 166.834132 
L 356.04777 167.041667 
L 355.827797 167.253547 
L 355.826865 167.293553 
L 355.816891 167.721865 
L 355.957383 167.871299 
L 356.013219 167.880405 
L 356.076701 167.860668 
L 356.158807 167.902545 
L 356.216105 167.990736 
L 356.109453 168.224895 
L 355.909565 168.314103 
L 355.85519 168.363883 
L 355.824461 168.427438 
L 355.830645 168.579923 
L 355.745428 168.906618 
L 355.259537 169.27676 
L 355.056426 169.56412 
L 355.044322 169.611729 
L 355.059424 169.685313 
L 355.171922 169.925065 
L 355.167312 169.976648 
L 355.088429 170.061927 
L 354.936996 170.058553 
L 354.86096 170.078891 
L 354.671228 170.209005 
L 354.456463 170.308242 
L 354.429894 170.276257 
L 354.299671 169.943923 
L 354.191445 169.795506 
L 354.147263 169.793657 
L 354.028994 169.700243 
L 353.776942 169.461139 
L 353.729537 169.389264 
L 353.407633 169.109577 
L 353.306265 169.048703 
L 353.0001 169.125385 
L 352.678159 168.98048 
L 352.627531 168.914614 
L 352.496633 168.881889 
L 352.13036 169.043942 
L 351.803359 169.229291 
L 351.64267 169.255083 
L 351.585864 169.233631 
L 351.584285 169.233035 
L 351.464067 169.57452 
L 351.469164 169.864191 
L 351.439297 169.937868 
L 351.399499 169.999251 
L 351.289999 170.060633 
L 351.130734 170.072928 
L 351.100867 170.122015 
L 351.080968 170.318457 
L 351.090898 170.63771 
L 351.269051 170.975775 
L 351.358015 171.455833 
L 351.459196 171.644464 
L 351.459196 171.767228 
L 351.389531 171.890039 
L 351.379563 171.98826 
L 351.489063 172.135568 
L 351.538828 172.246084 
L 351.558765 172.356554 
L 351.538828 172.491614 
L 351.479507 172.584473 
L 350.911734 172.884497 
L 350.842032 172.982718 
L 350.802234 173.142368 
L 350.742275 173.579162 
L 350.812202 173.866753 
L 350.772367 174.014062 
L 350.652937 174.124578 
L 350.495132 174.156332 
L 350.334368 174.259637 
L 350.283328 174.418455 
L 350.125336 174.677065 
L 349.885763 174.75481 
L 349.822619 174.799922 
L 349.578624 175.191835 
L 349.439032 175.486775 
L 349.424942 175.575891 
L 349.319152 175.786245 
L 349.215199 175.917145 
L 349.173302 176.165124 
L 349.197136 176.274715 
L 349.171207 176.321871 
L 349.126609 176.40298 
L 348.918253 176.417633 
L 348.737814 176.550427 
L 348.589753 176.743634 
L 348.381546 176.956253 
L 348.078641 177.144006 
L 347.938113 177.181907 
L 347.725634 177.153065 
L 347.553477 176.938042 
L 347.317014 176.872685 
L 346.423927 176.522001 
L 346.300225 176.551028 
L 346.181956 176.614352 
L 346.127918 176.617125 
L 346.045512 176.593737 
L 345.962207 176.508088 
L 345.806801 176.422948 
L 345.594584 176.48336 
L 345.475903 176.551167 
L 345.383417 176.557222 
L 345.074404 176.480171 
L 345.006613 176.401316 
L 344.830409 176.426461 
L 344.587838 176.596464 
L 344.556022 176.696626 
L 344.138596 177.046062 
L 344.024974 177.106243 
L 344.021077 177.10444 
L 344.024675 177.107167 
L 343.946466 177.092099 
L 343.861624 177.130971 
L 343.853342 177.165637 
L 343.640263 177.284288 
L 343.521432 177.316736 
L 343.277063 177.500559 
L 342.995106 177.414633 
L 342.273239 177.551865 
L 342.231643 177.590183 
L 342.006797 177.590876 
L 341.814629 177.562589 
L 341.727352 177.633262 
L 341.600988 177.790323 
L 341.581577 177.848793 
L 341.606197 178.03747 
L 341.403724 178.430862 
L 341.340242 178.436825 
L 341.129187 178.532272 
L 341.004136 178.764813 
L 340.956881 178.921505 
L 340.822423 179.180438 
L 340.721804 179.184691 
L 340.350922 179.383629 
L 340.281257 179.391163 
L 340.145375 179.33468 
L 339.742564 179.432624 
L 339.649965 179.371703 
L 339.537205 179.332461 
L 339.438048 179.353862 
L 339.085228 179.355711 
L 338.761937 179.325112 
L 338.707113 179.469416 
L 338.65581 179.520491 
L 338.365535 179.641453 
L 338.21174 179.811826 
L 338.207049 179.864487 
L 338.206569 179.86988 
L 338.244343 179.990611 
L 338.253749 180.123914 
L 338.220846 180.234014 
L 338.18326 180.378919 
L 338.220172 180.492994 
L 338.202034 180.74407 
L 338.108086 180.935289 
L 337.990604 181.062814 
L 337.835536 181.138155 
L 337.689873 181.2367 
L 337.61114 181.418212 
L 337.457421 181.511257 
L 337.243892 181.588031 
L 336.944585 181.740238 
L 336.887737 181.826719 
L 336.873009 182.081262 
L 336.775539 182.322169 
L 336.645203 182.514867 
L 336.453147 182.592796 
L 336.145446 182.667306 
L 336.060492 182.650805 
L 335.867574 182.456396 
L 335.747807 182.280754 
L 335.228263 182.15799 
L 335.126408 182.268783 
L 334.767442 182.388959 
L 334.692756 182.371395 
L 334.606378 182.417432 
L 334.523335 182.527439 
L 334.457343 182.658986 
L 334.463713 182.765018 
L 334.432422 182.872206 
L 334.357211 182.998946 
L 334.029986 183.394095 
L 333.98423 183.418407 
L 333.901524 183.418315 
L 333.833883 183.367194 
L 333.776248 183.384527 
L 333.661089 183.490698 
L 333.616158 183.589705 
L 333.531203 183.580044 
L 333.213759 183.631859 
L 333.218256 183.688804 
L 333.066485 184.024234 
L 332.917562 184.134011 
L 332.657378 184.199044 
L 332.563992 184.251182 
L 332.346979 184.402096 
L 332.027773 184.561699 
L 332.005513 184.64818 
L 331.982579 184.667131 
L 331.58078 184.724677 
L 331.247296 184.64157 
L 331.074727 184.638612 
L 331.024699 184.783702 
L 330.82631 185.049291 
L 330.702983 185.274529 
L 330.442311 185.526206 
L 330.116885 185.632331 
L 330.067943 185.686826 
L 330.067344 185.805754 
L 329.9668 185.88789 
L 329.827583 185.955328 
L 329.818777 185.980842 
L 329.848532 186.145483 
L 329.77006 186.264227 
L 329.586062 186.653829 
L 329.356719 186.715627 
L 329.106091 186.895245 
L 328.385499 186.900329 
L 328.276636 186.774098 
L 327.763238 186.817269 
L 327.513772 186.769476 
L 327.088776 186.832152 
L 326.822821 186.811352 
L 326.567022 186.756025 
L 326.32966 186.77798 
L 326.182723 186.847267 
L 325.970806 186.908972 
L 325.836274 186.897093 
L 325.778188 186.847359 
L 325.752444 186.71119 
L 325.510997 186.436218 
L 325.226792 186.190503 
L 325.116168 186.139105 
L 324.96316 186.133974 
L 324.722463 186.384727 
L 324.182009 186.668389 
L 324.083677 186.612738 
L 323.953491 186.655447 
L 323.902901 186.705043 
L 323.778636 186.752235 
L 323.591902 186.76379 
L 323.304174 186.648976 
L 323.125272 186.607284 
L 323.013149 186.65369 
L 322.937001 186.610658 
L 322.934506 186.610425 
L 322.812774 186.599056 
L 322.557162 186.618238 
L 322.438181 186.557457 
L 322.142659 186.624062 
L 321.630274 186.646988 
L 321.523997 186.680776 
L 321.470183 186.680175 
L 321.404716 186.641257 
L 321.279065 186.638622 
L 320.769864 186.878327 
L 320.669733 186.946412 
L 320.314177 186.887479 
L 320.212172 186.780892 
L 319.679101 186.980061 
L 319.415919 186.866448 
L 319.312565 186.917847 
L 319.127779 186.961942 
L 318.860587 186.935134 
L 318.809772 187.150203 
L 318.546066 187.47736 
L 318.296 187.624668 
L 317.710202 187.884064 
L 317.474901 188.123168 
L 317.434242 188.220465 
L 316.842448 188.704914 
L 316.77357 188.666827 
L 316.606173 188.661604 
L 316.294836 188.809791 
L 315.983837 188.916147 
L 315.781626 188.832948 
L 315.580652 188.79634 
L 315.312636 188.839835 
L 315.079658 188.828973 
L 314.8007 188.939905 
L 314.707426 189.012149 
L 314.643757 189.216818 
L 314.351008 189.663551 
L 314.315145 189.702192 
L 314.216288 189.719987 
L 314.002235 189.965655 
L 314.001411 190.024588 
L 314.046492 190.074831 
L 314.041321 190.125489 
L 313.996764 190.221122 
L 313.843682 190.311994 
L 313.752694 190.527525 
L 313.706788 190.743981 
L 313.612803 190.914354 
L 313.424382 191.026026 
L 313.320841 191.03735 
L 313.121065 191.013453 
L 312.93939 191.03906 
L 312.666877 191.123137 
L 312.473622 191.319903 
L 312.443081 191.420204 
L 312.20317 191.601392 
L 312.072273 191.625844 
L 311.977313 191.495452 
L 311.887187 191.460555 
L 311.76607 191.463698 
L 311.765962 191.481694 
L 311.765958 191.482418 
L 311.766033 191.524017 
L 311.753067 191.67849 
L 311.609578 191.86786 
L 311.556102 191.88903 
L 311.436597 191.865826 
L 311.376863 191.8796 
L 311.311957 191.998066 
L 311.316229 192.167284 
L 311.120276 192.218174 
L 310.934891 192.471006 
L 310.585069 192.669066 
L 310.43326 192.868004 
L 310.375737 193.005513 
L 310.334965 193.220259 
L 310.310083 193.263661 
L 310.222243 193.386287 
L 310.107721 193.463246 
L 309.867886 193.717465 
L 309.755426 193.874618 
L 309.64675 193.911596 
L 309.533353 193.973533 
L 309.490295 194.08562 
L 309.500601 194.235147 
L 309.601781 194.438522 
L 309.628013 194.470878 
L 309.736689 194.49861 
L 309.77791 194.530966 
L 309.999009 194.873006 
L 309.999009 194.905361 
L 309.90907 195.067137 
L 309.886586 195.150335 
L 309.93905 195.228912 
L 309.995261 195.404554 
L 310.02228 195.738367 
L 309.739911 196.052351 
L 309.587316 196.297279 
L 309.550029 196.392773 
L 309.427563 196.544657 
L 309.378847 196.559494 
L 308.982107 196.701071 
L 308.9015 196.746507 
L 308.879502 196.815239 
L 309.091269 197.347619 
L 309.134664 197.366432 
L 309.205678 197.516236 
L 309.167005 197.641681 
L 309.099551 197.729503 
L 309.09052 197.824396 
L 309.089433 197.880416 
L 308.975848 198.228696 
L 308.968354 198.455182 
L 308.994586 198.496782 
L 309.230674 198.570736 
L 309.313117 198.62158 
L 309.504236 198.986731 
L 309.42554 199.245572 
L 309.260653 199.384237 
L 309.216622 199.411723 
L 308.957074 199.573746 
L 308.705996 200.049828 
L 308.334963 200.438136 
L 308.218793 200.521335 
L 307.918999 200.590668 
L 307.660427 200.72471 
L 307.506745 200.752443 
L 307.266759 200.846551 
L 307.203203 200.951196 
L 307.199455 201.034395 
L 306.850945 201.362615 
L 306.652518 201.482745 
L 306.474066 201.448865 
L 306.441651 201.418081 
L 306.242512 201.346484 
L 306.0602 201.408837 
L 306.018978 201.404215 
L 305.99522 201.372599 
L 305.986563 201.341492 
L 305.766552 201.33197 
L 305.625461 201.369595 
L 305.599229 201.390348 
L 305.55426 201.524391 
L 305.535523 201.619931 
L 305.476501 201.653904 
L 305.413544 201.668464 
L 305.311277 201.653904 
L 305.194507 201.603014 
L 305.070842 201.538304 
L 304.943092 201.505995 
L 304.486206 201.524437 
L 304.351298 201.55217 
L 304.295087 201.644613 
L 304.26136 201.663102 
L 303.987798 201.556792 
L 303.920344 201.556838 
L 303.673014 201.713992 
L 303.616803 201.792569 
L 303.24577 201.824924 
L 303.103368 201.681637 
L 302.844795 201.653904 
L 302.807321 201.607682 
L 302.747362 201.464395 
L 302.703817 201.094946 
L 302.612455 200.979068 
L 302.60496 200.914358 
L 302.368834 200.618586 
L 302.2002 200.530764 
L 301.92289 200.479921 
L 301.769246 200.535387 
L 301.619349 200.678674 
L 301.304527 201.122401 
L 301.199599 201.214845 
L 300.832352 201.385911 
L 300.648728 201.538442 
L 300.551295 201.737195 
L 299.985396 202.065369 
L 299.719328 202.384298 
L 299.693096 202.444386 
L 299.514644 202.541868 
L 299.453223 202.532207 
L 299.430027 202.490839 
L 299.352092 203.363642 
L 299.352043 203.364197 
L 299.24273 204.484378 
L 299.139002 205.176501 
L 298.884064 207.29188 
L 298.748107 208.610537 
L 298.742899 208.62958 
L 298.688711 209.271044 
L 298.244753 213.452946 
L 295.544132 213.468661 
L 295.507857 213.470418 
L 291.230206 213.470279 
L 291.198953 213.471342 
L 287.016936 213.456597 
L 286.88765 213.472821 
L 283.046499 213.47088 
L 282.912042 213.467737 
L 281.232053 213.481066 
L 280.022588 213.490663 
L 279.982977 213.491726 
L 279.934526 213.489961 
L 279.924593 213.4896 
L 279.679623 213.483221 
L 279.559743 213.475826 
L 279.427384 213.485347 
L 279.135497 213.471619 
L 278.152434 213.483545 
L 278.029444 213.481465 
L 275.10675 213.475687 
L 274.915107 213.478091 
L 274.495282 213.479662 
L 273.695193 213.487113 
L 273.587018 213.488121 
L 271.143996 213.524543 
L 271.139086 213.523434 
L 266.066194 213.560781 
L 265.865632 213.564479 
L 264.717083 213.57927 
L 264.668366 213.57927 
L 264.567186 213.583892 
L 264.518469 213.588514 
L 264.199938 213.588514 
L 264.005034 213.588514 
L 263.278033 213.60238 
L 262.899543 213.607003 
L 262.494783 213.611625 
L 262.431077 213.611625 
L 261.796113 213.626601 
L 261.534243 213.634736 
L 261.385507 213.634736 
L 261.38532 213.634744 
L 261.280579 213.639358 
L 260.562274 213.655275 
L 259.194686 213.685579 
L 258.405928 213.703513 
L 255.342556 213.704207 
L 255.065534 213.699997 
L 252.124281 213.655295 
L 250.154168 213.625353 
L 241.938083 213.465241 
L 241.776457 213.464178 
L 240.456932 213.454285 
L 233.048874 213.398748 
L 223.693246 213.32861 
L 223.412671 213.326346 
L 220.473119 213.302633 
L 219.096914 213.329211 
L 217.827623 213.347376 
L 215.948663 213.347949 
L 215.553422 213.348069 
L 214.527414 213.33448 
L 213.952071 213.332631 
L 213.948662 213.332587 
L 213.28709 213.324034 
L 212.871988 213.322046 
L 211.329059 213.298935 
L 211.322282 213.298912 
L 210.639608 213.296532 
L 210.218284 213.286918 
L 210.086862 213.286872 
L 209.998198 213.283682 
L 209.964846 213.283682 
L 205.992122 213.290383 
L 205.991374 213.290384 
L 204.604488 213.297826 
L 204.018053 213.297826 
L 204.015655 213.297826 
L 203.637315 213.293389 
L 203.5126 213.290431 
L 203.315794 213.289802 
L 203.049681 213.288952 
L 199.115894 213.175986 
L 198.999124 213.169238 
L 198.910048 213.166279 
L 198.842631 213.170763 
L 197.883477 213.14266 
L 197.465002 213.140765 
L 193.287682 213.041065 
L 189.985699 212.962257 
L 189.763702 212.956526 
L 189.487508 212.948268 
L 189.244271 212.940995 
L 187.765161 212.899118 
L 186.671999 212.874852 
L 184.795812 212.840324 
L 184.419945 212.832883 
L 183.603381 212.819247 
L 183.219532 212.807415 
L 182.241978 212.793779 
L 182.086722 212.793317 
L 181.821779 212.787955 
L 181.50472 212.78609 
L 175.167645 212.748801 
L 174.461382 212.744646 
L 172.996213 212.754306 
L 172.723325 212.753659 
L 171.770392 212.739099 
L 171.6314 212.732813 
L 171.56477 212.7348 
L 171.29608 212.728145 
L 169.444888 212.699395 
L 169.118412 212.696067 
L 168.894166 212.688533 
L 165.959931 212.655715 
L 165.902782 212.659413 
L 165.898398 212.661031 
L 165.182714 212.659644 
L 164.990996 212.662371 
L 164.982489 212.664405 
L 163.145963 212.655664 
L 161.402691 212.647367 
L 160.974721 212.64533 
L 160.408267 212.642635 
L 152.803725 212.546078 
L 152.84015 212.666577 
L 152.883883 213.020034 
L 152.912213 213.118948 
L 150.897559 213.122692 
L 150.736944 213.126852 
L 146.786411 213.121 
L 146.150205 213.120058 
L 142.804015 213.099628 
L 142.801167 213.100506 
L 141.139664 213.105559 
L 130.931753 213.136605 
L 129.566313 213.140971 
L 128.517473 213.144324 
L 127.170573 213.108133 
L 125.736732 213.155556 
L 122.293368 213.150776 
L 121.940626 213.150287 
L 117.726381 213.179221 
L 117.721172 213.180285 
L 117.058215 213.197895 
L 115.504494 213.172103 
L 114.787049 213.160779 
L 109.71876 213.1888 
L 107.731124 213.199788 
L 106.635608 213.205845 
L 104.689081 213.19563 
L 104.432683 213.177789 
L 103.780106 213.159577 
L 101.759998 213.149508 
L 98.799888 213.134753 
L 98.791193 213.13471 
L 95.791661 213.138467 
L 95.137339 213.139286 
L 94.469273 213.153189 
L 93.136138 213.180932 
L 92.463784 213.182488 
L 91.138721 213.185554 
L 89.831731 213.182411 
L 89.817383 213.182243 
L 89.455602 213.17802 
L 89.153612 213.176821 
L 85.839134 213.163669 
L 84.523432 213.158448 
L 83.183072 213.15313 
L 81.850753 213.147843 
L 73.870239 213.116175 
L 73.832727 212.718623 
L 73.848504 212.466484 
" clip-path="url(#pa63dd1d73d)" style="fill: #c733ff"/>
   </g>
   <g id="text_1">
    <!-- TN -->
    <g transform="translate(228.006563 125.434173) scale(0.12 -0.12)">
     <defs>
      <path id="DejaVuSans-54" d="M -19 4666 
L 3928 4666 
L 3928 4134 
L 2272 4134 
L 2272 0 
L 1638 0 
L 1638 4134 
L -19 4134 
L -19 4666 
z
" transform="scale(0.015625)"/>
      <path id="DejaVuSans-4e" d="M 628 4666 
L 1478 4666 
L 3547 763 
L 3547 4666 
L 4159 4666 
L 4159 0 
L 3309 0 
L 1241 3903 
L 1241 0 
L 628 0 
L 628 4666 
z
" transform="scale(0.015625)"/>
     </defs>
     <use xlink:href="#DejaVuSans-54"/>
     <use xlink:href="#DejaVuSans-4e" x="61.083984"/>
    </g>
   </g>
  </g>
 </g>
 <defs>
  <clipPath id="pa63dd1d73d">
   <rect x="57.6" y="131.434173" width="357.12" height="86.187655"/>
  </clipPath>
 </defs>
</svg>
