<?xml version="1.0" encoding="utf-8" standalone="no"?>
<!DOCTYPE svg PUBLIC "-//W3C//DTD SVG 1.1//EN"
  "http://www.w3.org/Graphics/SVG/1.1/DTD/svg11.dtd">
<svg xmlns:xlink="http://www.w3.org/1999/xlink" width="460.8pt" height="345.6pt" viewBox="0 0 460.8 345.6" xmlns="http://www.w3.org/2000/svg" version="1.1">
 <metadata>
  <rdf:RDF xmlns:dc="http://purl.org/dc/elements/1.1/" xmlns:cc="http://creativecommons.org/ns#" xmlns:rdf="http://www.w3.org/1999/02/22-rdf-syntax-ns#">
   <cc:Work>
    <dc:type rdf:resource="http://purl.org/dc/dcmitype/StillImage"/>
    <dc:date>2023-06-19T14:47:40.346329</dc:date>
    <dc:format>image/svg+xml</dc:format>
    <dc:creator>
     <cc:Agent>
      <dc:title>Matplotlib v3.7.1, https://matplotlib.org/</dc:title>
     </cc:Agent>
    </dc:creator>
   </cc:Work>
  </rdf:RDF>
 </metadata>
 <defs>
  <style type="text/css">*{stroke-linejoin: round; stroke-linecap: butt}</style>
 </defs>
 <g id="figure_1">
  <g id="patch_1">
   <path d="M 0 345.6 
L 460.8 345.6 
L 460.8 0 
L 0 0 
z
" style="fill: #ffffff"/>
  </g>
  <g id="axes_1">
   <g id="PatchCollection_1">
    <path d="M 108.72867 157.97482 
L 108.818723 157.840331 
L 108.957946 157.72254 
L 109.107827 157.667251 
L 109.377345 157.521373 
L 109.369968 157.468285 
L 109.202112 157.330053 
L 109.146147 157.241324 
L 109.185514 157.124916 
L 109.176488 157.014407 
L 109.31542 156.833772 
L 109.332464 156.747811 
L 109.267783 156.673987 
L 109.196948 156.642248 
L 109.182001 156.560824 
L 109.235481 156.475044 
L 109.161424 156.290348 
L 109.026937 156.328009 
L 108.870243 156.201823 
L 108.844172 156.121783 
L 108.903127 155.999931 
L 109.006205 155.90714 
L 109.154009 155.880143 
L 109.233986 155.795429 
L 109.252661 155.664706 
L 109.671011 155.660169 
L 109.947769 155.659574 
L 110.304505 155.658807 
L 111.918755 155.652137 
L 113.604617 155.642268 
L 113.936917 155.649217 
L 113.943106 155.649347 
L 114.928772 155.643184 
L 114.979549 155.642867 
L 115.176821 155.641633 
L 117.261524 155.635961 
L 117.362777 155.63544 
L 117.72887 155.629428 
L 118.821887 155.61847 
L 120.279404 155.621208 
L 121.297529 155.623121 
L 123.188325 155.628293 
L 123.468655 155.631242 
L 124.091744 155.622621 
L 126.101554 155.625888 
L 126.473587 155.640453 
L 132.337609 155.662846 
L 132.351178 155.662324 
L 132.380937 155.661462 
L 133.092448 155.662165 
L 137.681504 155.664661 
L 137.753018 155.664661 
L 137.793201 155.664933 
L 138.090672 155.664184 
L 138.120547 155.664048 
L 138.379446 155.664933 
L 139.144961 155.663844 
L 139.175225 155.6628 
L 142.25571 155.664682 
L 142.257359 155.664683 
L 143.626532 155.664992 
L 147.590752 155.665886 
L 147.641378 155.666952 
L 149.756927 155.66888 
L 149.76044 155.673282 
L 153.683972 155.674249 
L 159.606929 155.675709 
L 160.4677 155.6731 
L 162.500204 155.663367 
L 164.968625 155.671444 
L 165.462371 155.671209 
L 173.156953 155.667542 
L 174.088345 155.66643 
L 174.24632 155.66854 
L 174.298247 155.668585 
L 174.299703 155.66516 
L 175.308977 155.664298 
L 177.773205 155.665659 
L 177.827986 155.665387 
L 178.244433 155.664184 
L 178.245967 153.701001 
L 178.245889 152.884492 
L 178.244453 152.38617 
L 178.239134 143.82889 
L 178.237872 142.336305 
L 178.237348 142.054667 
L 178.237872 142.021408 
L 178.236824 141.507001 
L 178.240357 141.010539 
L 178.235872 140.188653 
L 178.237154 140.00457 
L 178.237134 139.597722 
L 178.236591 139.190852 
L 178.236979 138.041183 
L 178.239095 137.898277 
L 178.238842 137.875794 
L 178.239075 136.901655 
L 178.239568 136.881634 
L 178.2396 136.880352 
L 178.235387 136.406441 
L 178.234863 136.22719 
L 178.236979 136.217298 
L 178.235911 135.975681 
L 178.239037 135.725918 
L 178.241599 135.257226 
L 178.239891 133.916803 
L 178.239464 133.797106 
L 178.240512 132.991124 
L 178.24387 132.755383 
L 178.253033 132.111001 
L 178.254489 132.034727 
L 178.295658 129.792583 
L 178.328293 128.015253 
L 178.335728 127.17499 
L 178.345007 127.081769 
L 178.371912 125.837087 
L 178.379075 125.513954 
L 178.39522 124.17679 
L 178.395226 124.1763 
L 178.473738 120.044144 
L 178.473748 120.043594 
L 178.492112 118.707551 
L 178.497955 118.424847 
L 178.494616 118.231167 
L 178.503313 118.056499 
L 178.514086 117.733843 
L 178.521541 117.063144 
L 178.532023 116.25106 
L 178.541962 116.058128 
L 178.575933 114.279346 
L 178.584455 113.697989 
L 178.608973 112.53557 
L 178.607924 112.427534 
L 178.623551 111.535522 
L 178.641857 110.877324 
L 178.648321 110.219307 
L 178.649197 110.048124 
L 178.64999 109.893044 
L 178.649525 109.559544 
L 178.645817 109.455637 
L 178.645332 109.359353 
L 178.646302 109.341611 
L 178.645409 109.31382 
L 178.645856 109.167692 
L 178.646982 108.870673 
L 178.650282 108.500782 
L 178.649253 108.306467 
L 178.649038 107.741851 
L 178.647797 104.473345 
L 178.646341 103.735152 
L 178.642129 103.436953 
L 178.642123 103.435523 
L 178.641295 103.206359 
L 178.641294 103.206021 
L 178.641934 101.690726 
L 178.641973 101.688344 
L 178.642459 101.659849 
L 178.646846 101.599456 
L 178.648069 101.574228 
L 178.648379 101.567898 
L 178.648399 101.483729 
L 178.648399 101.443732 
L 178.648942 101.369454 
L 178.648437 101.292568 
L 178.648981 101.211507 
L 178.649855 101.102949 
L 178.649 99.964192 
L 178.648884 99.87333 
L 178.648865 99.87079 
L 178.648767 99.805315 
L 178.658901 96.240672 
L 178.654746 95.484805 
L 178.663657 95.074418 
L 178.664782 93.346274 
L 178.664763 92.328462 
L 178.66455 91.012179 
L 178.669597 89.893637 
L 178.668987 88.65501 
L 178.667248 85.121019 
L 178.655232 84.777423 
L 178.669616 84.538346 
L 178.668063 84.37568 
L 178.665908 84.331009 
L 178.668684 84.000163 
L 178.672043 83.563322 
L 178.67313 83.487343 
L 178.672606 83.467742 
L 178.672392 83.459506 
L 178.670063 82.808091 
L 178.664666 82.141658 
L 178.672606 81.94158 
L 178.688368 73.4922 
L 178.693846 70.839038 
L 178.696288 69.655901 
L 178.681322 69.545687 
L 178.685223 69.145691 
L 178.6761 68.892843 
L 178.693202 68.609776 
L 178.702539 63.674492 
L 178.686039 57.723597 
L 178.68466 57.706967 
L 178.681186 53.574012 
L 179.447769 53.574965 
L 194.045288 53.5756 
L 194.151336 53.568 
L 195.753357 53.576576 
L 196.471857 53.576621 
L 196.537547 53.568454 
L 198.279335 53.57013 
L 200.261193 53.572038 
L 202.273838 53.591821 
L 202.275138 53.594521 
L 203.020329 53.591277 
L 203.112556 53.590574 
L 203.13919 53.590369 
L 203.16592 53.590165 
L 203.188729 53.590006 
L 204.549924 53.590279 
L 204.756255 53.595134 
L 205.629352 53.593659 
L 205.701992 53.593659 
L 206.207697 53.59468 
L 216.666132 53.601123 
L 217.301645 53.593886 
L 217.439218 53.594408 
L 218.763957 53.59316 
L 219.209174 53.593071 
L 219.560435 53.593001 
L 219.90102 53.59257 
L 220.567612 53.591186 
L 220.569436 53.591186 
L 221.043538 53.591073 
L 221.214694 53.590778 
L 221.731133 53.592638 
L 221.731483 53.592638 
L 222.081444 53.591368 
L 222.081793 53.592275 
L 222.145135 53.59257 
L 222.145581 53.59257 
L 222.942933 53.592638 
L 222.942933 53.5935 
L 223.669896 53.5935 
L 223.669915 53.593999 
L 223.975364 53.594113 
L 223.975326 53.594839 
L 224.962721 53.595701 
L 224.962721 53.595315 
L 225.145583 53.595429 
L 225.145564 53.596155 
L 226.227399 53.596019 
L 226.228525 53.596019 
L 226.228622 53.596926 
L 226.403564 53.595701 
L 226.40667 53.596608 
L 226.508874 53.596155 
L 226.508874 53.596699 
L 227.129459 53.598877 
L 227.419282 53.598923 
L 227.419282 53.60008 
L 227.433588 53.601214 
L 227.436772 53.59856 
L 227.593758 53.600057 
L 229.169281 53.595542 
L 229.169301 53.596177 
L 229.307223 53.596314 
L 229.552418 53.596518 
L 229.552942 53.595588 
L 229.701774 53.596586 
L 229.703405 53.596019 
L 230.381197 53.59493 
L 230.382012 53.596563 
L 230.901092 53.59561 
L 230.901286 53.595928 
L 231.238629 53.59713 
L 231.239075 53.596676 
L 231.438845 53.591254 
L 231.689358 53.592343 
L 231.693765 53.59105 
L 231.701044 53.592094 
L 234.213395 53.592298 
L 235.983777 53.592275 
L 237.658246 53.59079 
L 237.723391 53.590732 
L 237.723527 63.664373 
L 237.723581 67.628468 
L 237.723663 73.568701 
L 237.723724 78.032411 
L 237.723799 83.469647 
L 237.723826 86.925279 
L 237.723876 93.366692 
L 237.723876 93.369029 
L 237.723876 97.585404 
L 237.779775 97.587335 
L 238.006283 97.59516 
L 238.221195 97.56705 
L 238.283449 97.547517 
L 238.398893 97.464368 
L 238.529148 97.341246 
L 238.55549 97.308622 
L 238.555257 97.275498 
L 238.571486 97.22207 
L 238.613222 97.18416 
L 238.78496 97.159703 
L 239.103047 97.21776 
L 239.221907 97.266809 
L 239.249278 97.364341 
L 239.366333 97.461396 
L 239.692999 97.692147 
L 239.749993 97.698363 
L 239.793612 97.728106 
L 239.921984 97.845444 
L 240.169372 98.1166 
L 240.191676 98.156166 
L 240.209089 98.230013 
L 240.275168 98.331674 
L 240.583568 98.695167 
L 240.746781 98.804202 
L 240.974954 98.956635 
L 241.122078 99.012718 
L 241.260661 99.234053 
L 241.249926 99.299029 
L 241.335844 99.49804 
L 241.736296 100.00419 
L 241.943967 100.220398 
L 242.084568 100.223551 
L 242.281484 100.376394 
L 242.29649 100.400307 
L 242.295403 100.426805 
L 242.241709 100.504213 
L 242.249746 100.534886 
L 242.501831 100.743903 
L 242.760808 100.891959 
L 242.96578 100.971885 
L 243.161628 101.084073 
L 243.236229 101.163024 
L 243.261989 101.209782 
L 243.278625 101.276301 
L 243.266861 101.351123 
L 243.308714 101.432706 
L 243.401523 101.509592 
L 243.623578 101.657127 
L 243.97647 101.685191 
L 244.11053 101.732493 
L 244.215064 101.812556 
L 244.278872 101.824013 
L 244.343766 101.807905 
L 244.444088 101.759604 
L 244.532063 101.68324 
L 244.896176 101.77122 
L 245.026392 101.82635 
L 245.495602 101.801144 
L 245.567485 101.745584 
L 245.736894 101.547525 
L 245.778707 101.478398 
L 245.796392 101.426421 
L 245.781347 101.269495 
L 245.797382 101.05281 
L 245.883183 100.84908 
L 245.993696 100.812145 
L 246.08437 100.809037 
L 246.229805 100.83397 
L 246.35051 100.894749 
L 246.481425 100.938422 
L 246.859106 100.967076 
L 246.978219 100.94997 
L 247.095196 100.898062 
L 247.16011 100.908475 
L 247.439741 101.008911 
L 247.493785 101.051494 
L 247.551768 101.119011 
L 247.623166 101.233831 
L 247.685421 101.273284 
L 247.873174 101.309583 
L 247.920224 101.308613 
L 248.000867 101.306951 
L 248.356516 101.493417 
L 248.504572 101.683081 
L 248.587287 101.813963 
L 248.776846 101.830048 
L 248.981896 101.670104 
L 249.206765 101.844522 
L 249.239377 101.848402 
L 249.321064 101.828528 
L 249.38623 101.792274 
L 249.431848 101.728931 
L 249.543681 101.099137 
L 249.496568 100.880366 
L 249.446699 100.834606 
L 249.438662 100.802912 
L 249.436565 100.68233 
L 249.476438 100.271784 
L 249.747139 99.935176 
L 249.85674 99.891866 
L 249.968457 99.895178 
L 250.178398 99.959519 
L 250.258434 100.050403 
L 250.255231 100.100292 
L 250.217688 100.170985 
L 250.211263 100.207897 
L 250.218814 100.270763 
L 250.341227 100.385583 
L 250.517294 100.522204 
L 250.659003 100.602176 
L 250.76311 100.719083 
L 250.849532 100.898878 
L 250.939138 101.025677 
L 250.963268 101.038676 
L 251.001898 101.040741 
L 251.159116 100.9997 
L 251.337241 100.904096 
L 251.423625 100.87812 
L 251.515367 100.892685 
L 252.015325 101.110073 
L 252.070572 101.147506 
L 252.116015 101.425559 
L 252.073095 101.464014 
L 252.008705 101.497205 
L 251.825261 101.509116 
L 251.798434 101.530918 
L 251.80647 101.569373 
L 251.877227 101.64424 
L 252.121529 101.847744 
L 252.198672 101.852939 
L 252.263004 101.792251 
L 252.31035 101.771742 
L 252.427288 101.846972 
L 252.53817 102.072732 
L 252.596038 102.282769 
L 252.615023 102.495075 
L 252.62799 102.534119 
L 252.678694 102.575909 
L 252.753256 102.594331 
L 252.83436 102.587661 
L 252.877183 102.556874 
L 252.924432 102.55363 
L 253.005963 102.579743 
L 253.05292 102.671966 
L 253.072177 102.929896 
L 253.03576 103.17866 
L 252.999343 103.253482 
L 253.034828 103.671832 
L 253.071828 103.805391 
L 253.114165 103.869823 
L 253.189484 103.905645 
L 253.256631 103.923205 
L 253.333541 103.91615 
L 253.346256 103.930306 
L 253.366348 104.121218 
L 253.320613 104.382007 
L 253.316206 104.759316 
L 253.347266 104.855464 
L 253.432951 105.030608 
L 253.452227 105.09141 
L 253.454362 105.147537 
L 253.414762 105.260837 
L 253.402978 105.337224 
L 253.414218 105.385571 
L 253.464554 105.439611 
L 254.056525 105.562848 
L 254.348308 105.429379 
L 254.460219 105.329647 
L 254.607964 105.323998 
L 254.648633 105.338563 
L 254.667365 105.356259 
L 254.685516 105.416538 
L 254.667831 105.451885 
L 254.618039 105.487708 
L 254.589639 105.552139 
L 254.583194 105.596833 
L 254.623824 105.664418 
L 254.686428 105.696157 
L 254.829359 105.724675 
L 255.032138 105.68715 
L 255.353738 105.552956 
L 255.599417 105.502999 
L 255.668466 105.509737 
L 255.853133 105.573647 
L 255.971954 105.656296 
L 255.994958 105.697859 
L 256.001927 105.735814 
L 256.015826 105.7514 
L 256.196203 105.804942 
L 256.299494 105.804964 
L 256.348199 105.745207 
L 256.386208 105.658428 
L 256.4162 105.617886 
L 256.439223 105.607496 
L 256.889544 105.691211 
L 257.030961 105.613508 
L 257.086752 105.565071 
L 257.076716 105.436117 
L 257.128585 105.36404 
L 257.320939 105.273519 
L 257.390007 105.282821 
L 257.505121 105.365402 
L 257.557126 105.532197 
L 257.597852 105.621584 
L 257.645509 105.683407 
L 257.745074 105.734839 
L 257.797506 105.734294 
L 257.871893 105.658406 
L 257.879366 105.619429 
L 257.875057 105.507673 
L 257.904486 105.468696 
L 257.949444 105.449979 
L 258.065179 105.477317 
L 258.068197 105.478933 
L 258.106274 105.499324 
L 258.303812 105.680684 
L 258.538213 105.930174 
L 258.551587 105.964976 
L 258.635584 106.082428 
L 258.682658 106.140121 
L 258.728684 106.176511 
L 258.903082 106.274792 
L 259.610206 106.522421 
L 259.636975 106.557745 
L 259.64342 106.60346 
L 259.623659 106.661675 
L 259.570741 106.739151 
L 259.572353 106.770323 
L 259.603431 106.817081 
L 259.703501 106.906945 
L 259.811548 106.918833 
L 259.858623 106.900638 
L 259.89174 106.836683 
L 259.901814 106.680255 
L 259.913035 106.646973 
L 259.946753 106.635017 
L 260.421767 106.622925 
L 260.77431 106.707094 
L 260.893578 106.764788 
L 261.18078 107.040776 
L 261.694132 107.207753 
L 261.767374 107.266536 
L 261.791426 107.298229 
L 261.812235 107.37777 
L 261.808994 107.422464 
L 261.859776 107.474168 
L 262.010142 107.483129 
L 262.152335 107.453818 
L 262.200962 107.411529 
L 262.244232 107.329901 
L 262.25223 107.27586 
L 262.278417 107.234252 
L 262.301401 107.221774 
L 262.626553 107.206074 
L 262.65437 107.217486 
L 263.034576 107.272525 
L 263.159706 107.280828 
L 263.827812 106.711314 
L 263.92627 106.601168 
L 263.974994 106.57104 
L 264.069143 106.568998 
L 264.214597 106.635085 
L 264.487609 106.735431 
L 264.583369 106.753058 
L 264.678566 106.749882 
L 264.711003 106.737615 
L 264.736336 106.728035 
L 264.83097 106.666144 
L 264.912287 106.658839 
L 265.352029 106.922213 
L 265.442975 107.010035 
L 265.680967 107.279762 
L 265.711987 107.392018 
L 265.860994 107.594387 
L 266.145576 107.866428 
L 266.255176 108.036581 
L 266.301979 108.14734 
L 266.768218 108.659841 
L 267.114802 108.881562 
L 267.198041 108.889004 
L 267.333421 108.843652 
L 267.838756 108.63509 
L 267.890295 108.590442 
L 267.901845 108.558748 
L 267.905708 108.502688 
L 267.941834 108.437939 
L 267.959616 108.415433 
L 268.012339 108.388957 
L 268.166956 108.359215 
L 268.237752 108.361461 
L 268.300841 108.377886 
L 268.34188 108.406274 
L 268.358631 108.417861 
L 268.402463 108.430316 
L 268.444821 108.418042 
L 268.510569 108.371647 
L 268.794937 108.033632 
L 268.821881 107.92943 
L 268.826326 107.547606 
L 268.781019 107.53894 
L 268.771837 107.528549 
L 268.820872 107.387435 
L 269.093805 106.982221 
L 269.154818 106.911051 
L 269.421617 106.758208 
L 269.488997 106.737382 
L 270.237876 106.87541 
L 270.293492 106.905017 
L 270.36784 106.979861 
L 270.727759 107.248522 
L 270.850211 107.283891 
L 271.113827 107.335391 
L 271.576883 107.364181 
L 271.742138 107.33614 
L 271.876877 107.282008 
L 272.182249 107.414909 
L 272.2149 107.463732 
L 272.353444 107.537964 
L 272.600987 107.632002 
L 272.671569 107.652262 
L 272.838901 107.675629 
L 273.27247 107.71152 
L 273.499747 107.568682 
L 273.559109 107.517251 
L 273.784289 107.208139 
L 273.857574 107.084576 
L 273.900451 107.012281 
L 274.016031 106.886595 
L 274.160437 106.795665 
L 274.332642 106.791422 
L 274.430556 106.805398 
L 274.477087 106.841243 
L 274.576632 106.970582 
L 274.804006 107.3483 
L 274.81311 107.392994 
L 274.795542 107.534357 
L 274.761358 107.649222 
L 274.709003 107.779151 
L 274.627278 107.935578 
L 274.530587 108.073856 
L 274.237309 108.385259 
L 274.205823 108.45804 
L 274.221954 108.665377 
L 274.264234 108.780219 
L 274.331069 108.888777 
L 274.631782 109.198252 
L 274.688446 109.289318 
L 274.681361 109.372103 
L 274.66719 109.417636 
L 274.653038 109.434175 
L 274.575118 109.454888 
L 274.536158 109.479708 
L 274.507817 109.533522 
L 274.507817 109.591465 
L 274.54402 109.639107 
L 274.843238 110.177382 
L 274.900368 110.227792 
L 274.947364 110.247008 
L 275.483953 110.396085 
L 275.757275 110.450194 
L 276.018271 110.45244 
L 276.177198 110.442299 
L 276.445434 110.393295 
L 276.800267 110.305745 
L 276.889213 110.257513 
L 276.977791 110.179514 
L 277.056798 110.149363 
L 277.105386 110.178448 
L 277.170029 110.289706 
L 277.273146 110.432521 
L 277.364441 110.509407 
L 277.412486 110.525515 
L 277.473867 110.526014 
L 277.573179 110.504711 
L 277.594513 110.511994 
L 277.608936 110.532253 
L 277.604665 110.564991 
L 277.391773 111.243199 
L 277.325112 111.392344 
L 277.220558 111.495253 
L 277.08613 111.560251 
L 277.056798 111.598706 
L 277.058953 111.656399 
L 277.089391 111.71044 
L 277.114995 111.728091 
L 277.216365 111.749371 
L 277.265439 111.748327 
L 277.419066 111.70411 
L 277.439332 111.713457 
L 277.460142 111.743609 
L 277.474041 111.901579 
L 277.454319 112.017487 
L 277.387153 112.242521 
L 277.319987 112.335538 
L 277.245328 112.402601 
L 277.14027 112.43434 
L 277.076792 112.388626 
L 277.002638 112.28574 
L 276.966901 112.285762 
L 276.943975 112.311762 
L 276.874732 112.479646 
L 276.855553 112.554491 
L 276.855048 112.59138 
L 276.87052 112.633964 
L 276.985245 112.798922 
L 276.986237 112.799957 
L 277.056701 112.873472 
L 277.180958 112.969052 
L 277.362247 113.042808 
L 277.502461 113.059937 
L 277.594687 113.049524 
L 277.667172 113.027699 
L 277.743423 113.026655 
L 277.783392 113.042241 
L 278.390525 113.397816 
L 278.559973 113.523639 
L 278.935616 113.699441 
L 279.050924 113.72746 
L 279.161223 113.718566 
L 279.771384 113.530762 
L 280.332587 113.088455 
L 280.370441 113.019872 
L 280.407227 112.907616 
L 280.735699 112.782973 
L 280.814104 112.671783 
L 280.832254 112.587614 
L 280.819501 112.460793 
L 280.753946 112.330864 
L 280.968352 112.244154 
L 281.108624 112.263438 
L 281.141159 112.247353 
L 281.209994 112.180358 
L 281.226009 112.143469 
L 281.217565 111.998498 
L 281.162687 111.870634 
L 281.16061 111.790094 
L 281.351062 111.729906 
L 281.632129 111.721466 
L 281.669478 111.740659 
L 281.724434 111.744811 
L 281.752698 111.738028 
L 281.888155 111.639248 
L 282.053488 111.489037 
L 282.191081 111.322717 
L 282.298333 111.13353 
L 282.419425 110.816024 
L 282.512817 110.671552 
L 282.611566 110.605578 
L 282.927032 110.497519 
L 283.126646 110.510043 
L 283.229123 110.540217 
L 283.664575 110.726954 
L 284.143801 111.025607 
L 284.5222 111.355455 
L 284.537148 111.393388 
L 284.485007 111.930664 
L 284.415706 112.04968 
L 284.394915 112.068919 
L 284.37892 112.111525 
L 284.37628 112.165067 
L 284.392314 112.258061 
L 284.528878 112.481461 
L 284.564072 112.514199 
L 284.655251 112.552631 
L 285.07394 112.626327 
L 285.130342 112.636255 
L 285.193781 112.632104 
L 285.260966 112.617017 
L 285.421989 112.541196 
L 285.626263 112.421227 
L 285.770805 112.303844 
L 285.889335 112.261033 
L 286.242849 112.124797 
L 286.361301 112.133532 
L 286.523451 112.184895 
L 286.571355 112.212849 
L 287.030669 112.480871 
L 287.075453 112.533347 
L 287.21357 112.765594 
L 287.203572 113.229954 
L 287.084227 113.588501 
L 287.046393 113.629565 
L 287.009121 113.714778 
L 286.982508 113.891465 
L 287.05606 114.054608 
L 287.172746 114.191751 
L 287.344815 114.29981 
L 287.688409 114.399066 
L 288.00106 114.411612 
L 288.727965 114.397795 
L 288.809437 114.352036 
L 288.872274 114.300037 
L 289.008042 114.158129 
L 289.20556 113.843731 
L 289.349947 113.47257 
L 289.379221 113.304822 
L 289.434894 113.186917 
L 289.504467 113.150322 
L 289.577534 113.150322 
L 289.608846 113.162505 
L 289.629734 113.190978 
L 289.674944 113.341416 
L 289.70975 113.365827 
L 289.789767 113.361743 
L 289.834997 113.345477 
L 289.864115 113.319364 
L 289.998505 113.064928 
L 290.095934 113.020212 
L 290.158558 113.020212 
L 290.255967 113.105583 
L 290.416001 113.284494 
L 290.549459 113.374584 
L 290.622448 113.404758 
L 290.696525 113.419845 
L 290.985901 113.403374 
L 291.005099 113.394027 
L 291.032295 113.357161 
L 291.129861 113.135326 
L 291.18866 112.562636 
L 291.212614 112.500291 
L 291.268016 112.428033 
L 291.570263 112.238255 
L 291.873111 112.205994 
L 291.9659 112.246468 
L 292.3674 112.554559 
L 292.456948 112.679247 
L 292.480942 112.746265 
L 292.732911 113.765801 
L 292.729125 113.922705 
L 292.635889 114.037502 
L 292.446757 114.127342 
L 292.351948 114.138255 
L 292.2076 114.128885 
L 292.166039 114.140319 
L 292.134087 114.163188 
L 292.090934 114.219293 
L 292.016896 114.344004 
L 291.988147 114.411045 
L 291.975393 114.616272 
L 291.979683 114.805392 
L 292.022292 114.89943 
L 292.186325 115.171653 
L 292.271524 115.266734 
L 292.322093 115.526524 
L 292.437575 115.840332 
L 292.624921 116.256073 
L 292.800465 116.442629 
L 292.957373 116.553342 
L 293.067478 116.609493 
L 293.297783 116.684429 
L 293.519624 116.723518 
L 293.616685 116.718232 
L 293.768817 116.681252 
L 293.852852 116.647449 
L 293.938479 116.594951 
L 294.081565 116.476955 
L 294.141141 116.404742 
L 294.199629 116.311203 
L 294.294302 116.111148 
L 294.323459 115.902109 
L 294.325012 115.746793 
L 294.313268 115.621583 
L 294.262136 115.426769 
L 294.144402 115.087529 
L 294.118798 114.972188 
L 294.127824 114.872455 
L 294.179441 114.746201 
L 294.259283 114.640706 
L 294.441931 114.549754 
L 294.647952 114.510732 
L 295.032913 114.443124 
L 295.018645 114.267208 
L 294.845101 114.055992 
L 294.347588 113.921321 
L 294.211141 113.821838 
L 294.273881 113.62657 
L 294.646127 113.467375 
L 294.883595 113.574549 
L 294.978442 113.782657 
L 295.166875 113.982463 
L 295.213212 113.971051 
L 295.503597 113.836085 
L 295.620885 113.701574 
L 296.247701 112.876217 
L 296.278683 112.750054 
L 296.259892 112.460045 
L 296.18601 112.151455 
L 296.084058 111.91299 
L 296.064141 111.843659 
L 296.041623 111.623753 
L 296.057444 111.497295 
L 296.078409 111.454098 
L 296.145439 111.374807 
L 296.202568 111.330113 
L 296.329815 111.291387 
L 296.367125 111.295924 
L 296.368445 111.3197 
L 296.342646 111.39493 
L 296.335755 111.455142 
L 296.359302 111.626929 
L 296.414878 111.72074 
L 296.475988 111.760578 
L 296.500544 111.758355 
L 296.893231 111.559004 
L 297.042743 111.453849 
L 297.233376 111.337197 
L 297.282657 111.307041 
L 297.437643 111.228294 
L 297.479457 111.218765 
L 297.547321 111.23358 
L 297.592318 111.259171 
L 297.68868 111.346244 
L 297.765338 111.435518 
L 297.806764 111.499178 
L 297.861486 111.617173 
L 297.919567 111.805249 
L 297.977279 112.268293 
L 297.963206 112.503422 
L 297.991664 112.651796 
L 298.238547 113.295996 
L 298.388583 113.466467 
L 298.560244 113.633353 
L 298.76112 113.76174 
L 298.867828 113.76807 
L 298.959007 113.728049 
L 299.042556 113.639139 
L 299.057562 113.39523 
L 299.07777 113.287443 
L 299.123679 113.220448 
L 299.225709 113.141361 
L 299.601896 113.191023 
L 299.961059 113.276327 
L 300.170534 113.397748 
L 300.22714 113.475701 
L 300.246183 113.524682 
L 300.292501 113.746494 
L 300.300964 113.886836 
L 300.419184 114.167136 
L 300.444381 114.215777 
L 300.505393 114.261582 
L 300.595601 114.285449 
L 300.742104 114.279732 
L 300.897459 114.256114 
L 301.550015 114.121489 
L 301.633254 114.089115 
L 301.704633 114.044625 
L 301.799422 113.953242 
L 301.971529 113.705725 
L 302.02039 113.60014 
L 302.087633 113.412018 
L 302.136513 113.163118 
L 302.13857 113.100297 
L 302.112151 112.928511 
L 302.161011 112.65656 
L 302.270514 112.36367 
L 302.306563 112.291888 
L 302.361518 112.232085 
L 302.428121 112.18612 
L 302.482028 112.178702 
L 302.569655 112.192337 
L 302.877258 112.43518 
L 303.147727 112.674302 
L 303.183115 112.695741 
L 303.585567 112.689888 
L 303.869255 112.6699 
L 303.955233 112.686574 
L 303.966587 112.688776 
L 304.014768 112.768249 
L 304.016554 112.821178 
L 303.975128 112.927739 
L 303.924307 113.009095 
L 303.783842 113.135326 
L 303.699632 113.187007 
L 303.499998 113.273377 
L 303.239313 113.556376 
L 303.170012 113.650187 
L 303.15491 113.685148 
L 303.149571 113.760583 
L 303.163781 113.807159 
L 303.282874 113.898021 
L 303.70794 114.06037 
L 303.869682 114.137756 
L 303.983417 114.203707 
L 304.25771 114.405872 
L 304.386587 114.419189 
L 304.679224 114.405169 
L 305.035591 114.317234 
L 305.106076 114.337153 
L 305.15614 114.365194 
L 305.210339 114.428196 
L 305.287055 114.58172 
L 305.351639 114.767278 
L 305.363772 114.863335 
L 305.364684 115.116046 
L 305.442294 115.259361 
L 305.629193 115.441266 
L 305.668367 115.461163 
L 305.944174 115.451475 
L 306.466475 115.401065 
L 306.52277 115.382847 
L 306.634273 115.279552 
L 306.682124 115.269502 
L 306.90711 115.291758 
L 307.028261 115.323429 
L 307.17523 115.382711 
L 307.227293 115.450931 
L 307.273863 115.541588 
L 307.30135 115.608266 
L 307.354501 115.798497 
L 307.450377 115.946462 
L 307.5467 116.057697 
L 307.923119 116.424049 
L 308.014589 116.522163 
L 308.205099 116.726513 
L 308.256444 116.853266 
L 308.328114 117.084039 
L 308.330404 117.239106 
L 308.348593 117.293487 
L 308.469958 117.399276 
L 308.618266 117.416882 
L 308.72777 117.40336 
L 309.146333 117.219027 
L 309.191816 117.181526 
L 309.227437 117.130616 
L 309.362564 116.869896 
L 309.419422 116.654414 
L 309.427944 116.500164 
L 309.41255 116.313699 
L 309.437573 116.177644 
L 309.497575 115.953586 
L 309.522869 115.888293 
L 309.655628 115.638394 
L 309.701926 115.601006 
L 309.997242 115.525776 
L 310.140368 115.555949 
L 310.560911 115.769639 
L 310.933798 116.018403 
L 311.098839 116.032719 
L 311.499136 115.925477 
L 311.56746 115.900001 
L 311.75821 115.828875 
L 311.923115 115.734883 
L 311.989621 115.662715 
L 312.090195 115.516791 
L 312.220159 115.093949 
L 312.232466 114.926723 
L 312.140958 114.886612 
L 312.072317 114.853171 
L 312.020836 114.826446 
L 311.979585 114.794888 
L 311.937073 114.72306 
L 311.905547 114.599733 
L 311.94542 114.523028 
L 311.96522 114.507306 
L 312.191817 114.453447 
L 312.452949 114.453765 
L 312.491249 114.403626 
L 312.436157 114.114388 
L 312.464945 114.025682 
L 312.505264 113.981601 
L 312.683176 113.950746 
L 312.992876 113.932483 
L 313.085705 113.979672 
L 313.244418 114.104179 
L 313.359299 114.141976 
L 313.450827 114.147874 
L 313.487943 114.096715 
L 313.484255 113.978515 
L 313.454845 113.877013 
L 313.423165 113.8357 
L 313.412216 113.801873 
L 313.409809 113.779458 
L 313.436559 113.750827 
L 313.736845 113.780661 
L 314.138714 113.897114 
L 314.304997 113.971096 
L 314.431642 114.011797 
L 314.657657 113.903421 
L 314.772576 113.687598 
L 314.807673 113.650301 
L 314.89066 113.657765 
L 314.9481 113.683855 
L 314.954487 113.724896 
L 314.942704 113.792594 
L 314.951284 113.859158 
L 314.964057 113.888992 
L 314.999154 113.918825 
L 315.276805 113.806774 
L 315.411622 113.680996 
L 315.424085 113.655292 
L 315.429986 113.579426 
L 315.423599 113.456349 
L 315.44274 113.378033 
L 315.503383 113.337015 
L 315.544867 113.322086 
L 315.595921 113.322086 
L 315.685274 113.378033 
L 315.749101 113.493646 
L 315.920122 113.560256 
L 316.318982 113.5456 
L 316.461175 113.482212 
L 316.519742 113.441194 
L 316.609736 113.237101 
L 316.635088 113.135372 
L 316.635418 113.053131 
L 316.629032 113.015765 
L 316.606125 112.970051 
L 316.598652 112.918642 
L 316.619423 112.86932 
L 316.637554 112.863081 
L 316.879933 112.938924 
L 317.010984 112.998137 
L 317.217101 113.123347 
L 317.450765 113.292775 
L 317.563646 113.390443 
L 317.683981 113.463699 
L 318.107611 113.649076 
L 318.294064 113.81932 
L 318.376303 113.914044 
L 318.412303 113.95551 
L 318.485312 114.011389 
L 318.533765 114.030582 
L 318.641851 114.041449 
L 318.713734 114.02119 
L 318.819685 113.959889 
L 318.858568 113.918871 
L 318.88625 113.868483 
L 318.893665 113.830572 
L 318.883008 113.74021 
L 318.860645 113.687757 
L 318.841446 113.581309 
L 318.841446 113.554312 
L 318.862217 113.512749 
L 319.162076 113.44834 
L 319.245684 113.450427 
L 319.458731 113.530422 
L 319.49709 113.56105 
L 319.722969 113.814941 
L 319.780681 113.844684 
L 319.804266 113.84507 
L 319.968201 113.751213 
L 320.077026 113.70298 
L 320.148967 113.614228 
L 320.164438 113.558146 
L 320.087858 113.297403 
L 320.022885 113.230385 
L 320.002799 113.184131 
L 319.988837 113.151979 
L 320.001318 112.947001 
L 320.070658 112.783449 
L 320.109036 112.737757 
L 320.284366 112.666724 
L 320.475129 112.661937 
L 320.650983 112.713278 
L 320.940398 112.907933 
L 320.992072 112.92091 
L 321.262211 112.905801 
L 321.497699 112.792048 
L 321.651171 112.633124 
L 321.786027 112.437857 
L 321.876099 112.385948 
L 321.983254 112.364169 
L 322.226778 112.434862 
L 322.426626 112.42041 
L 323.073456 111.953464 
L 323.150696 111.793475 
L 323.417282 111.788189 
L 323.854462 111.840074 
L 323.901381 111.854617 
L 323.932304 111.885766 
L 323.980815 111.957434 
L 324.092765 112.23998 
L 324.131647 112.390078 
L 324.125241 112.540697 
L 324.0698 112.697034 
L 324.074576 112.833111 
L 324.147565 112.961929 
L 324.208286 113.017512 
L 324.313247 113.02636 
L 324.439562 112.99782 
L 324.594101 112.899698 
L 324.694734 112.812534 
L 324.78861 112.771402 
L 324.89031 112.794248 
L 324.964639 112.881117 
L 324.959573 113.056194 
L 324.967532 113.106083 
L 325.040929 113.143471 
L 325.240407 113.141656 
L 325.501558 113.04004 
L 325.668754 112.885677 
L 325.766533 112.871974 
L 325.805648 112.89026 
L 325.833039 112.940557 
L 325.780393 113.174552 
L 325.797185 113.198578 
L 326.107312 113.277143 
L 326.875545 113.334814 
L 327.507642 113.290914 
L 327.952081 113.301214 
L 328.208631 113.276621 
L 328.291482 113.096078 
L 328.297908 112.892869 
L 328.318698 112.881571 
L 328.471665 112.894775 
L 328.784469 113.017287 
L 329.069227 113.128815 
L 329.203637 113.138843 
L 329.289438 113.075319 
L 329.323759 112.958344 
L 329.326612 112.851374 
L 329.349499 112.64415 
L 329.360933 112.590654 
L 329.398126 112.550543 
L 329.446734 112.530488 
L 329.501088 112.523818 
L 329.669818 112.587319 
L 329.724152 112.570599 
L 329.827114 112.503763 
L 329.878595 112.446931 
L 329.921496 112.273126 
L 329.924369 112.182876 
L 329.912915 112.022433 
L 329.880051 111.952511 
L 329.868345 111.896406 
L 329.882264 111.807064 
L 330.317386 111.191881 
L 330.396936 111.164883 
L 330.5335 111.173663 
L 331.218417 111.428076 
L 331.515985 111.62652 
L 331.555974 111.669127 
L 331.664235 111.71745 
L 331.765577 111.730284 
L 331.890327 111.746081 
L 332.247626 111.732719 
L 332.37101 111.783765 
L 332.439262 111.860175 
L 332.413716 112.077744 
L 332.416337 112.147734 
L 332.463198 112.211643 
L 332.637654 112.275553 
L 332.786079 112.26033 
L 332.835541 112.293816 
L 332.87982 112.345543 
L 332.94751 112.461179 
L 332.942307 112.585958 
L 332.968339 112.662028 
L 333.036048 112.722897 
L 333.161043 112.722897 
L 333.259986 112.607261 
L 333.408391 112.534209 
L 333.52036 112.579855 
L 333.606298 112.677251 
L 333.649606 112.869615 
L 333.840019 113.385134 
L 333.887715 113.419732 
L 334.069431 113.472252 
L 334.358322 113.482167 
L 334.472911 113.446344 
L 334.629101 113.339782 
L 334.787368 113.421093 
L 334.878585 113.536049 
L 334.933968 113.649098 
L 335.015188 113.682108 
L 335.11582 113.674077 
L 335.147908 113.652978 
L 335.253549 113.481395 
L 335.307844 113.438653 
L 335.346203 113.429759 
L 335.395509 113.457143 
L 335.453882 113.740595 
L 335.482747 113.999251 
L 335.613294 114.045011 
L 335.771366 114.25591 
L 335.787226 114.430261 
L 335.872911 114.563774 
L 335.964963 114.600868 
L 336.037952 114.604588 
L 336.104613 114.589751 
L 336.180786 114.552658 
L 336.25696 114.548937 
L 336.307742 114.571193 
L 336.35534 114.608286 
L 336.387079 114.641682 
L 336.406122 114.734404 
L 336.402938 114.804893 
L 336.352156 114.971802 
L 336.342644 115.075663 
L 336.352156 115.14985 
L 336.511083 115.329577 
L 336.611677 115.333911 
L 336.688723 115.377084 
L 336.958706 115.58238 
L 337.000287 115.64241 
L 337.093038 115.620744 
L 337.136327 115.635195 
L 337.198154 115.729143 
L 337.208559 115.849112 
L 337.17783 115.92314 
L 337.224652 115.992472 
L 337.328856 116.067181 
L 337.717175 116.209792 
L 337.865911 116.213285 
L 338.076144 116.198834 
L 338.131779 116.16993 
L 338.168875 116.112124 
L 338.193606 115.989273 
L 338.249261 115.953155 
L 338.335819 115.924229 
L 338.440936 115.931466 
L 338.49659 115.989273 
L 338.70063 116.097672 
L 338.873747 116.061531 
L 339.158173 115.859208 
L 339.238539 115.87366 
L 339.294194 115.895326 
L 339.325098 115.953155 
L 339.33129 116.018176 
L 339.294194 116.141027 
L 339.300367 116.256641 
L 339.393118 116.386706 
L 339.467311 116.437298 
L 339.584793 116.437298 
L 339.788833 116.495105 
L 339.850661 116.596266 
L 339.887757 116.740806 
L 339.856853 116.878086 
L 339.885078 116.971557 
L 339.893949 117.000936 
L 339.986681 117.102098 
L 340.067066 117.11655 
L 340.116528 117.051529 
L 340.147452 116.979247 
L 340.190721 116.94313 
L 340.246376 116.921441 
L 340.326761 116.94313 
L 340.400954 116.979247 
L 340.431858 117.11655 
L 340.407127 117.196045 
L 340.407127 117.297207 
L 340.419493 117.376703 
L 340.462782 117.405606 
L 340.910541 117.462846 
L 341.407976 117.286227 
L 341.541958 117.312521 
L 341.593148 117.378994 
L 341.615879 117.458739 
L 341.627255 117.551802 
L 341.615879 117.711315 
L 341.661381 117.804355 
L 341.723946 117.824297 
L 341.871808 117.79106 
L 341.962792 117.711315 
L 342.01967 117.611605 
L 342.144781 117.538507 
L 342.230077 117.571721 
L 342.332457 117.678078 
L 342.412066 117.737882 
L 342.497382 117.757823 
L 342.616805 117.757823 
L 342.679351 117.69802 
L 342.741916 117.618252 
L 342.815856 117.585016 
L 342.952149 117.61553 
L 343.003513 117.711315 
L 343.083141 117.79106 
L 343.139999 117.870828 
L 343.151375 117.937278 
L 343.100205 118.023694 
L 343.094517 118.08352 
L 343.122956 118.130028 
L 343.16275 118.136675 
L 343.242379 118.110086 
L 343.390241 118.090167 
L 343.486913 118.163265 
L 343.503976 118.236385 
L 343.501666 118.365407 
L 343.458474 118.422488 
L 343.475537 118.50888 
L 343.54379 118.562059 
L 343.64615 118.562059 
L 343.742822 118.515527 
L 343.850889 118.522175 
L 343.930498 118.595295 
L 343.947562 118.70163 
L 343.919123 118.754808 
L 343.936186 118.881085 
L 343.987376 118.940911 
L 344.095423 119.000714 
L 344.408152 118.907356 
L 344.662683 118.806784 
L 344.740118 118.720029 
L 344.771935 118.517478 
L 344.860493 118.49588 
L 345.289791 118.352339 
L 345.42321 118.949668 
L 345.308543 119.41582 
L 345.735939 119.508179 
L 346.069011 119.893451 
L 346.712134 119.78748 
L 346.870672 119.952619 
L 346.670883 120.159026 
L 346.583121 120.485017 
L 347.235425 120.664518 
L 347.358051 120.270193 
L 347.634305 120.123385 
L 347.78634 120.449852 
L 348.194149 120.472971 
L 348.411371 119.916116 
L 348.756653 119.945836 
L 348.94596 120.175543 
L 349.299202 119.690923 
L 349.566855 119.904681 
L 349.346936 120.357448 
L 349.809041 120.444861 
L 350.101445 119.971563 
L 350.643702 119.553258 
L 351.05386 119.628262 
L 351.427387 119.881926 
L 351.798663 120.463283 
L 352.20092 120.049244 
L 352.793105 120.006501 
L 353.114841 120.119528 
L 353.229062 120.486356 
L 353.310049 120.480956 
L 353.360326 120.459812 
L 353.360753 120.478597 
L 353.361782 120.685277 
L 353.368887 121.803206 
L 353.364297 121.843122 
L 353.363646 121.848785 
L 353.365412 122.318544 
L 353.369295 123.101249 
L 353.369295 123.210147 
L 353.371255 123.455145 
L 353.368653 124.233943 
L 353.368033 124.419551 
L 353.371605 124.568061 
L 353.366577 124.849676 
L 353.367761 125.000772 
L 353.367761 125.108445 
L 353.367761 125.490791 
L 353.368579 126.226873 
L 353.369255 126.835111 
L 353.369256 126.835478 
L 353.368091 127.069677 
L 353.368984 127.314153 
L 353.374303 127.50257 
L 353.371469 128.106137 
L 353.371158 128.390928 
L 353.371488 128.45629 
L 353.374516 129.352294 
L 353.36547 129.733778 
L 353.367567 129.854337 
L 353.368926 129.951257 
L 353.371585 130.885126 
L 353.368363 131.185548 
L 353.369761 132.552809 
L 353.367353 133.996322 
L 353.367761 134.397634 
L 353.367276 135.030196 
L 353.371294 135.282249 
L 353.371799 135.421548 
L 353.37128 135.686589 
L 353.371275 135.689392 
L 353.368576 135.701167 
L 353.373235 135.904443 
L 353.368557 137.583516 
L 353.373973 137.821798 
L 353.372381 137.860276 
L 353.370265 137.967336 
L 353.368538 138.051165 
L 353.370091 138.252445 
L 353.366208 139.95307 
L 353.366208 139.953093 
L 353.370751 140.813002 
L 353.373332 141.077557 
L 353.372478 141.14927 
L 353.370498 141.564218 
L 353.37044 141.649408 
L 353.370634 141.833582 
L 353.36745 142.874489 
L 353.366305 142.982456 
L 353.367416 143.958841 
L 353.367489 144.023545 
L 353.371294 144.215659 
L 353.370789 144.494552 
L 353.367334 144.637276 
L 353.367664 144.688572 
L 353.369935 144.780205 
L 353.369159 144.83141 
L 353.370964 144.947069 
L 353.371488 144.982415 
L 353.370945 145.00424 
L 353.370848 145.696084 
L 353.369333 145.795544 
L 353.371022 146.586144 
L 353.370556 146.602955 
L 353.370983 146.776171 
L 353.373662 147.206114 
L 353.374128 147.427836 
L 353.374245 149.557315 
L 353.374264 149.559039 
L 353.375623 150.726835 
L 353.376428 151.229151 
L 353.377487 151.889595 
L 353.378011 151.891137 
L 353.377001 152.089173 
L 353.375254 152.546114 
L 353.373876 152.83635 
L 353.381932 152.955435 
L 353.374885 154.405186 
L 353.374497 155.692611 
L 353.391716 155.848313 
L 353.458124 155.847519 
L 353.635337 155.769747 
L 353.841474 155.883682 
L 353.955379 156.091828 
L 354.64131 157.345276 
L 354.75291 157.482192 
L 355.10555 157.705003 
L 355.299768 157.750354 
L 355.407292 157.78772 
L 355.465412 157.859048 
L 355.514815 158.045854 
L 355.607819 158.137555 
L 355.680478 158.17492 
L 355.764746 158.154547 
L 355.835386 158.10661 
L 355.959469 158.100189 
L 356.052472 158.157928 
L 356.122219 158.263219 
L 356.10834 158.396959 
L 356.203595 158.548532 
L 356.354699 158.677599 
L 356.375042 158.922143 
L 356.453312 159.133314 
L 356.546927 159.215651 
L 356.633747 159.292011 
L 356.634931 159.721931 
L 356.709551 159.831374 
L 357.049787 160.089326 
L 357.189593 160.167506 
L 357.310666 160.245187 
L 357.370514 160.345872 
L 357.370514 160.46895 
L 357.413589 160.592027 
L 357.480599 160.661949 
L 357.553317 160.718349 
L 357.631121 160.778311 
L 357.647524 160.813226 
L 357.555414 161.135134 
L 357.501662 161.244372 
L 357.491276 161.442748 
L 357.609069 161.701699 
L 357.716437 161.827363 
L 357.782263 162.050037 
L 357.778789 162.211977 
L 357.803034 162.313184 
L 357.886176 162.357719 
L 357.945072 162.386055 
L 358.019828 162.466504 
L 358.033902 162.532364 
L 358.0386 162.636657 
L 357.999252 162.807309 
L 357.747943 163.113994 
L 357.658142 163.07268 
L 357.572516 163.232579 
L 357.588065 163.366365 
L 357.736063 163.664247 
L 357.759338 164.240113 
L 357.758874 164.242407 
L 357.722862 164.420544 
L 357.620755 164.427985 
L 357.545533 164.375283 
L 357.347433 164.596618 
L 357.321692 164.771763 
L 357.408251 165.06361 
L 357.640536 165.473815 
L 357.683126 165.698622 
L 357.725483 165.775645 
L 358.123334 166.247128 
L 358.325219 166.399132 
L 358.458231 166.443598 
L 358.861478 166.476517 
L 358.981872 166.444801 
L 359.019939 166.438652 
L 359.059326 166.424836 
L 359.118417 166.429441 
L 359.185388 166.447863 
L 359.220835 166.507712 
L 359.229357 166.563454 
L 359.244479 166.632015 
L 359.264162 166.678047 
L 359.378403 166.719496 
L 359.508405 166.756317 
L 359.524148 166.926652 
L 359.468999 167.092404 
L 359.425671 167.198285 
L 359.305898 167.36837 
L 359.214332 167.393031 
L 359.14206 167.428468 
L 359.098713 167.451495 
L 359.059326 167.497528 
L 359.059326 167.580404 
L 359.066974 167.729821 
L 359.844623 168.312766 
L 360.009354 168.430988 
L 360.073938 168.64368 
L 359.936597 168.859412 
L 359.932695 169.04134 
L 359.996134 169.076437 
L 360.107656 169.075121 
L 360.52985 169.340809 
L 360.577856 169.439022 
L 360.606236 169.578956 
L 360.638247 169.756528 
L 360.645759 169.853039 
L 360.615729 169.927634 
L 360.630734 170.050485 
L 360.70582 170.10752 
L 360.728338 170.151374 
L 360.732104 170.195251 
L 360.713333 170.247908 
L 360.690815 170.304943 
L 360.640072 170.35422 
L 360.468508 170.865337 
L 360.263244 171.333781 
L 360.282093 171.439707 
L 360.337243 171.516729 
L 360.504168 171.533314 
L 360.630579 171.60285 
L 360.862049 171.971266 
L 361.143291 172.248683 
L 361.573715 172.214267 
L 361.697972 172.478572 
L 361.691255 172.654261 
L 361.652043 172.813887 
L 361.657886 173.055165 
L 361.777833 173.152696 
L 361.824791 173.207554 
L 361.866508 173.277657 
L 361.884774 173.353863 
L 361.884774 173.478824 
L 361.82714 173.70304 
L 361.921192 174.221713 
L 361.962636 174.366525 
L 361.991366 174.400079 
L 362.191796 174.606486 
L 362.372095 174.564719 
L 362.559461 174.3344 
L 362.726793 174.223051 
L 362.887797 174.15288 
L 362.889914 174.152197 
L 362.959971 174.129603 
L 363.228518 174.151995 
L 363.263265 174.178108 
L 363.293607 174.260825 
L 363.194877 174.764411 
L 363.128429 174.810715 
L 363.055498 174.891572 
L 363.038454 174.9862 
L 363.038454 175.115675 
L 363.042065 175.280112 
L 363.127944 175.439398 
L 363.140736 175.598752 
L 363.106649 175.788008 
L 362.944713 175.977263 
L 362.906355 176.156537 
L 362.919147 176.295995 
L 363.004366 176.480259 
L 363.130836 176.593377 
L 363.307273 176.668335 
L 363.404255 176.757405 
L 363.463152 176.88291 
L 363.418116 176.988178 
L 363.341904 177.057011 
L 363.287298 177.109259 
L 363.303798 177.190615 
L 363.458532 177.504514 
L 363.580925 177.623803 
L 363.59133 177.692635 
L 363.580925 177.826217 
L 363.142542 178.170244 
L 362.830881 178.274129 
L 362.694123 178.22703 
L 362.628296 178.259427 
L 362.59019 178.328237 
L 362.555559 178.437566 
L 362.513978 178.644042 
L 362.590346 178.862587 
L 362.734752 179.014477 
L 362.942306 179.109037 
L 363.27798 179.481604 
L 363.400354 179.737628 
L 363.402256 179.950342 
L 363.309291 180.075144 
L 363.085024 180.176556 
L 363.035698 180.159018 
L 362.999708 180.143727 
L 362.953895 180.155184 
L 362.901521 180.208726 
L 362.829541 180.377019 
L 362.813177 180.598831 
L 362.662636 180.744164 
L 362.593917 180.897143 
L 362.600459 181.118978 
L 362.63973 181.214581 
L 362.771946 181.32543 
L 362.772122 181.339092 
L 362.780584 181.993566 
L 362.868831 182.103235 
L 362.860465 182.334621 
L 362.712758 182.724884 
L 362.682145 182.759391 
L 362.564508 182.833102 
L 362.388013 182.854019 
L 362.274064 182.976167 
L 362.174752 183.202629 
L 362.164755 183.405021 
L 362.107839 183.717513 
L 361.818036 183.8611 
L 361.597282 184.216267 
L 361.625254 184.296193 
L 361.779949 184.507115 
L 361.783346 184.644213 
L 361.751355 184.7596 
L 361.65445 184.852005 
L 361.565349 185.075654 
L 361.559156 185.278998 
L 361.388116 185.624274 
L 361.226821 185.780406 
L 360.901514 185.845609 
L 360.602897 186.121257 
L 360.355471 186.513086 
L 360.316239 186.866143 
L 360.349706 187.255454 
L 360.399866 187.369978 
L 360.418987 187.443371 
L 360.391675 187.526315 
L 360.331614 187.606083 
L 360.27429 187.62843 
L 360.230574 187.602158 
L 360.165834 187.565337 
L 359.785649 187.699259 
L 359.486897 188.026157 
L 359.488799 188.198193 
L 359.525663 188.413925 
L 359.460671 188.689256 
L 359.246012 188.808885 
L 359.390826 189.026885 
L 359.489284 189.12419 
L 359.749387 189.285473 
L 359.831015 189.561393 
L 359.703652 189.842577 
L 359.913943 190.665166 
L 360.06957 190.980744 
L 360.070113 191.05459 
L 359.975674 191.295891 
L 359.594246 191.50502 
L 359.246176 191.923971 
L 359.147399 192.042863 
L 359.028907 192.059516 
L 358.908222 192.192576 
L 358.890752 192.268487 
L 358.942388 192.639829 
L 358.933497 192.969768 
L 358.749665 193.488123 
L 358.779889 193.558339 
L 358.856315 193.565123 
L 359.276179 194.157937 
L 359.557246 194.354407 
L 359.664711 194.35722 
L 359.749445 194.373736 
L 359.811583 194.439756 
L 359.859589 194.509065 
L 359.899132 194.670824 
L 359.887834 194.799551 
L 359.850136 194.883175 
L 359.886262 195.379796 
L 359.920265 195.510297 
L 359.928735 195.542803 
L 359.768081 195.939623 
L 359.654307 196.092058 
L 359.620801 196.289208 
L 359.689695 196.661572 
L 359.824201 196.951241 
L 359.95434 197.104038 
L 359.998319 197.283387 
L 360.071123 197.580286 
L 360.256236 197.842731 
L 360.165854 197.98246 
L 360.124855 197.983186 
L 360.060873 197.905528 
L 360.003103 197.933479 
L 359.980119 198.492829 
L 359.566079 198.914605 
L 359.396805 199.032941 
L 359.365746 199.096102 
L 359.413888 199.206089 
L 359.708952 199.481965 
L 359.985088 199.564727 
L 360.016148 199.605745 
L 360.039132 199.705932 
L 360.011489 199.773448 
L 359.950923 199.818437 
L 359.623538 199.84675 
L 359.584978 199.889431 
L 359.300502 200.204299 
L 359.267268 200.30993 
L 359.256087 200.505947 
L 359.229997 200.560759 
L 358.339817 201.263855 
L 358.291365 201.326653 
L 357.934493 202.081294 
L 357.819573 202.521946 
L 357.764928 202.84864 
L 357.717408 202.982585 
L 357.496576 203.446831 
L 357.341279 203.707823 
L 357.031294 204.113106 
L 357.015816 204.133342 
L 356.852172 204.290383 
L 356.67987 204.415774 
L 356.32593 204.60841 
L 356.130858 204.748889 
L 355.827408 205.021112 
L 355.703481 205.160864 
L 355.601607 205.368859 
L 355.578002 205.520591 
L 355.585766 205.653809 
L 355.630492 205.824416 
L 355.710023 205.926781 
L 356.17469 206.232399 
L 356.264141 206.329681 
L 356.323173 206.457092 
L 356.264782 206.653108 
L 356.307333 206.84402 
L 356.361998 206.898106 
L 356.650849 206.999382 
L 356.726964 207.05129 
L 356.859277 207.310444 
L 357.349102 208.069101 
L 357.297233 208.179406 
L 357.353877 208.332158 
L 356.896412 208.332544 
L 356.348118 208.295927 
L 355.530947 208.247399 
L 354.176488 208.276302 
L 353.106882 208.510501 
L 352.344841 208.751869 
L 351.608211 209.052133 
L 347.329492 210.985385 
L 347.00547 211.131788 
L 344.482073 212.271932 
L 342.656444 213.121882 
L 341.953125 213.494835 
L 341.190133 213.964095 
L 340.728727 214.30776 
L 340.450843 214.593231 
L 340.150228 215.042005 
L 340.012635 215.362506 
L 339.745001 215.36212 
L 339.421653 215.527169 
L 339.087766 215.536244 
L 339.01662 215.473105 
L 339.001576 215.215017 
L 339.317663 214.81012 
L 339.565128 214.639717 
L 340.152965 214.060379 
L 340.491764 213.827406 
L 340.879598 213.153508 
L 340.97365 213.042795 
L 341.151096 212.919059 
L 341.278186 212.883713 
L 341.455147 212.892062 
L 341.664584 212.988799 
L 342.00878 212.938502 
L 342.390421 212.771548 
L 342.668907 212.57231 
L 342.64505 212.219707 
L 342.723338 212.079296 
L 342.939453 211.819824 
L 343.203458 211.667979 
L 343.44968 211.723086 
L 343.585487 211.840605 
L 343.869797 211.989864 
L 344.283332 211.947892 
L 344.594314 211.825813 
L 344.431175 211.412477 
L 344.313576 211.42745 
L 344.282536 211.418806 
L 344.036838 211.350382 
L 343.986502 211.199581 
L 343.672104 210.828284 
L 343.597309 210.759134 
L 343.449719 210.717525 
L 343.138777 210.754959 
L 342.9795 210.867283 
L 342.68236 211.002544 
L 342.053952 211.195634 
L 340.777898 211.536416 
L 340.260547 211.63261 
L 339.82527 211.807051 
L 339.495458 211.835206 
L 339.282178 211.811566 
L 339.044147 211.688284 
L 338.85649 211.295616 
L 339.073245 211.271318 
L 339.236035 211.294753 
L 339.543057 210.969352 
L 339.943159 210.486934 
L 340.445641 209.552679 
L 340.748217 207.982119 
L 340.762194 207.774373 
L 340.706229 207.33329 
L 340.692524 206.550631 
L 340.457987 206.554056 
L 340.213181 206.347218 
L 339.912022 206.454551 
L 339.518364 206.008953 
L 339.227125 206.179946 
L 338.82479 206.326414 
L 338.36187 206.569688 
L 337.682001 207.371382 
L 337.412192 207.962063 
L 337.365001 208.337966 
L 337.265747 208.508528 
L 336.866712 208.733448 
L 336.433707 208.840576 
L 336.319078 208.805093 
L 336.128143 208.449001 
L 336.069652 208.339917 
L 336.032342 208.021799 
L 335.904378 207.906684 
L 335.452426 207.848787 
L 335.322306 208.199529 
L 335.177724 208.331191 
L 334.68691 208.778141 
L 334.57768 208.972401 
L 334.564905 208.995121 
L 334.488169 209.229819 
L 334.529653 209.462656 
L 335.007734 209.895957 
L 335.127409 210.094492 
L 335.005365 210.325651 
L 334.642806 210.709018 
L 334.468932 211.066793 
L 334.437368 211.148512 
L 334.438579 211.155344 
L 334.497312 211.486459 
L 334.740992 211.831776 
L 334.79983 211.915155 
L 335.142745 212.140937 
L 335.598405 212.279964 
L 336.54917 212.465431 
L 336.473074 212.682864 
L 336.22986 213.095928 
L 336.133829 213.516615 
L 336.356291 213.57272 
L 336.911496 213.903929 
L 336.979438 214.319103 
L 336.994269 215.425009 
L 336.844835 216.069005 
L 336.849494 216.745761 
L 336.757781 216.849122 
L 336.31374 217.349556 
L 335.713266 217.155218 
L 334.355274 218.526381 
L 333.653779 219.127255 
L 332.867939 219.800375 
L 332.602829 219.298083 
L 332.113761 219.316913 
L 331.714648 219.446366 
L 331.779252 220.300944 
L 331.631215 220.712283 
L 331.583849 221.160762 
L 331.979953 221.67644 
L 332.741252 220.94606 
L 332.877684 220.815169 
L 334.715543 219.552065 
L 334.955748 219.174166 
L 337.135919 217.252387 
L 337.409882 217.067759 
L 337.708751 216.991349 
L 338.189724 216.794879 
L 338.236429 216.434675 
L 338.241088 215.92712 
L 338.466482 215.718829 
L 338.967333 216.124928 
L 339.062452 216.138541 
L 339.119349 216.09598 
L 339.731509 216.154422 
L 339.742846 216.105077 
L 340.007335 216.067507 
L 340.177968 216.217696 
L 340.011956 216.208916 
L 339.262397 216.819131 
L 338.944039 217.141265 
L 338.602386 217.402167 
L 334.282731 220.378102 
L 333.204312 221.213941 
L 332.646972 221.735699 
L 332.476395 221.971196 
L 332.413231 222.0584 
L 332.362585 222.209927 
L 331.076398 223.2134 
L 330.153684 223.99488 
L 329.506446 224.609656 
L 329.030349 225.22404 
L 329.023454 225.232938 
L 328.779696 225.364773 
L 327.930476 226.048041 
L 327.473748 226.546817 
L 327.368709 226.769422 
L 326.712892 226.925192 
L 326.25826 226.935628 
L 325.342495 227.451419 
L 324.944641 227.693487 
L 323.361842 228.656513 
L 321.989213 229.384429 
L 321.512103 229.771085 
L 319.0193 231.338741 
L 317.630909 232.061189 
L 315.366373 233.078933 
L 313.868031 233.796117 
L 311.605669 235.030341 
L 311.101654 235.263065 
L 310.628485 235.646727 
L 310.130759 235.944495 
L 309.493635 236.399576 
L 309.137462 236.778972 
L 308.996588 236.812753 
L 308.748114 236.956249 
L 308.034532 237.563764 
L 307.8016 237.762073 
L 307.605518 238.321945 
L 306.782989 239.217428 
L 305.940155 239.652271 
L 303.11098 241.369186 
L 301.410151 242.690188 
L 300.002173 243.917492 
L 298.839144 245.067187 
L 298.171594 245.727083 
L 296.985264 247.083636 
L 295.902982 248.504597 
L 295.119528 250.132956 
L 295.096973 250.179836 
L 294.206171 251.28193 
L 293.233257 252.851877 
L 291.838984 255.58041 
L 291.638799 256.029902 
L 290.972312 257.526419 
L 290.220443 259.420089 
L 289.442698 261.901082 
L 289.234428 262.805371 
L 289.008896 263.784611 
L 288.751259 265.640053 
L 288.616229 267.749228 
L 288.650277 269.757399 
L 288.845776 271.707288 
L 289.207754 273.742525 
L 289.702276 275.877971 
L 290.21823 277.782236 
L 290.343502 278.178388 
L 291.04072 280.383222 
L 291.595216 282.46221 
L 291.6661 282.727979 
L 292.144608 284.859364 
L 292.64478 288.119138 
L 292.884927 289.923239 
L 292.680731 290.03545 
L 292.414125 289.001984 
L 292.058865 286.13379 
L 291.597478 283.982553 
L 291.218089 282.462891 
L 291.066888 281.857248 
L 290.448652 279.488306 
L 288.825161 279.175133 
L 290.028768 278.648384 
L 289.854869 278.180144 
L 289.428974 277.03338 
L 289.036811 275.340627 
L 288.413916 273.63796 
L 288.183223 271.569191 
L 288.252427 268.87748 
L 288.206304 266.500552 
L 288.434007 264.427926 
L 288.63902 262.803878 
L 288.644609 262.759608 
L 288.950757 261.125864 
L 289.552862 259.253906 
L 290.061322 257.601899 
L 290.759033 256.044407 
L 290.877251 255.78051 
L 291.395002 254.730651 
L 291.40163 254.717211 
L 292.338243 253.360885 
L 293.032633 251.673668 
L 293.620897 250.991467 
L 293.417905 250.447748 
L 293.445936 250.065924 
L 293.971926 249.167288 
L 294.366399 248.392863 
L 294.451424 248.343397 
L 295.6336 247.655623 
L 296.270317 246.779289 
L 296.537194 246.141758 
L 296.84936 245.60818 
L 297.255383 245.15369 
L 297.359179 244.556542 
L 297.522978 244.302038 
L 298.136614 244.066592 
L 298.155075 243.785975 
L 298.298103 243.502999 
L 298.796411 243.700354 
L 299.366555 243.256647 
L 299.474631 243.172538 
L 299.437107 242.604725 
L 300.032922 242.138596 
L 301.116679 242.096307 
L 301.73773 241.556445 
L 302.665123 240.834315 
L 303.218795 240.318977 
L 303.549169 240.047685 
L 303.751695 239.770516 
L 304.206152 239.599592 
L 304.628326 239.556872 
L 304.86824 239.245923 
L 305.184288 239.096392 
L 306.012485 238.935018 
L 306.637651 238.76178 
L 306.826822 238.643126 
L 306.960629 238.173322 
L 306.743777 238.023859 
L 306.589218 237.798508 
L 306.639961 237.611113 
L 307.214384 237.250614 
L 307.225915 236.96605 
L 306.586908 236.925735 
L 305.449593 237.727339 
L 304.857796 237.98815 
L 304.093115 238.408201 
L 303.331831 239.184214 
L 303.103448 239.193697 
L 302.466732 239.400195 
L 302.094854 239.290072 
L 302.026097 238.980098 
L 301.689297 238.510838 
L 301.788085 238.037471 
L 301.679416 237.344721 
L 301.590509 237.194623 
L 301.35341 237.148454 
L 300.839708 237.148454 
L 300.582847 237.079168 
L 300.491331 237.105911 
L 300.464297 237.113811 
L 300.316125 237.217718 
L 300.039503 237.71418 
L 299.950595 238.152926 
L 299.960476 238.49929 
L 300.029622 239.076586 
L 300.021562 239.184998 
L 300.00988 239.342116 
L 299.733258 239.688503 
L 299.664112 239.838578 
L 299.733258 240.023319 
L 299.863491 240.237223 
L 300.098787 240.623688 
L 300.098787 240.75069 
L 299.841927 241.339534 
L 299.655103 241.499296 
L 299.03186 242.032262 
L 298.439112 242.424817 
L 297.945172 242.955922 
L 297.708073 243.082924 
L 297.233874 243.614029 
L 296.69053 243.625554 
L 295.95949 243.302286 
L 295.821179 243.336929 
L 295.443129 243.057401 
L 295.553991 242.247653 
L 295.4274 242.234201 
L 295.249124 242.215256 
L 292.985811 243.40288 
L 291.812584 244.439363 
L 291.787143 244.687072 
L 291.784863 244.709272 
L 292.542381 245.065573 
L 293.299899 245.130345 
L 293.955794 244.6445 
L 294.962757 244.018291 
L 295.468772 243.879763 
L 295.524815 243.983489 
L 295.505053 244.075848 
L 295.347 244.29521 
L 295.277854 244.503023 
L 295.277854 244.745503 
L 295.356881 245.207322 
L 295.46555 245.472874 
L 295.366762 245.669141 
L 295.179047 245.773047 
L 295.020994 245.923145 
L 294.764133 246.511966 
L 294.497411 246.719803 
L 293.608299 248.162998 
L 293.460107 248.243832 
L 293.350758 248.637095 
L 293.331696 248.70565 
L 293.163742 248.821105 
L 292.956285 249.132849 
L 292.383299 250.252775 
L 292.333915 250.41442 
L 292.146219 250.460589 
L 291.899239 250.460589 
L 291.681901 250.41442 
L 291.596391 250.378189 
L 291.55483 250.299215 
L 291.55483 250.214184 
L 291.570418 250.092695 
L 291.53404 249.971228 
L 291.41516 249.848672 
L 291.286749 249.652406 
L 291.257107 249.49076 
L 291.099034 249.236756 
L 290.861954 249.144396 
L 290.654478 249.109753 
L 290.239564 249.190565 
L 289.656716 249.421474 
L 289.348006 249.071117 
L 288.630691 249.262392 
L 287.148753 249.286917 
L 286.39273 249.054329 
L 285.975409 249.372016 
L 285.968459 249.80087 
L 286.177586 249.954349 
L 286.803606 250.413785 
L 287.830175 250.440011 
L 288.609531 250.102677 
L 288.362571 250.64533 
L 288.349756 250.949811 
L 288.33684 251.256665 
L 288.332929 251.349606 
L 288.47124 251.719065 
L 288.816988 252.284813 
L 289.231922 252.654273 
L 289.82465 252.942898 
L 291.037731 253.305438 
L 290.92122 253.693365 
L 290.80267 253.71646 
L 290.209941 255.182773 
L 290.170418 255.390587 
L 290.19018 255.529137 
L 290.259326 255.633044 
L 290.101272 255.817785 
L 289.725862 256.152601 
L 289.656304 256.385646 
L 289.429498 257.145525 
L 289.301068 257.364887 
L 289.222041 257.699726 
L 289.162756 258.253904 
L 288.994822 258.715745 
L 288.866392 258.888916 
L 288.747843 259.466212 
L 288.787366 259.754837 
L 288.728081 260.008842 
L 288.59967 260.262847 
L 288.214379 261.290414 
L 288.164995 261.49825 
L 288.10571 261.62523 
L 287.947657 261.821519 
L 287.809346 261.913878 
L 287.61177 261.994712 
L 287.216598 261.994712 
L 286.594227 262.352624 
L 286.100286 262.872181 
L 285.635969 262.791347 
L 285.39887 262.664344 
L 285.349485 262.514247 
L 285.547061 262.54889 
L 285.744638 262.491174 
L 285.784161 262.352624 
L 285.922452 262.190978 
L 286.169432 262.190978 
L 286.297863 262.110167 
L 286.208955 261.798423 
L 286.278101 261.671421 
L 286.574465 261.428964 
L 286.574465 261.140316 
L 286.5152 260.967145 
L 286.228717 260.793952 
L 285.981737 260.909406 
L 285.863187 261.105695 
L 285.517419 261.49825 
L 284.885168 261.948521 
L 284.628307 262.087071 
L 284.144247 262.641249 
L 283.897267 262.595081 
L 283.709572 262.618176 
L 283.610784 262.710535 
L 283.608241 262.719877 
L 283.541638 262.96454 
L 283.56138 263.368643 
L 283.640426 263.507193 
L 283.758956 263.599552 
L 284.371466 263.6111 
L 284.657949 263.657268 
L 284.825903 263.691911 
L 285.072863 263.830462 
L 285.428512 263.911273 
L 285.873068 263.865105 
L 286.070644 263.772723 
L 286.199075 263.668816 
L 286.25834 263.564909 
L 286.549773 263.420596 
L 286.900472 263.357095 
L 287.068425 263.224308 
L 287.226479 263.155044 
L 287.73525 263.120401 
L 287.769823 263.264713 
L 287.527793 264.52319 
L 287.39583 265.394556 
L 287.601035 265.461982 
L 287.437934 267.375344 
L 287.347319 269.401053 
L 287.17063 271.142696 
L 287.032455 272.576068 
L 286.912391 273.428921 
L 286.676806 273.497436 
L 286.811565 274.585237 
L 286.870849 274.98934 
L 286.895541 275.687853 
L 287.330217 277.425481 
L 287.315405 277.973897 
L 287.402764 278.188454 
L 287.656223 278.81096 
L 287.873561 279.238135 
L 287.830505 279.836848 
L 288.070438 280.466529 
L 287.948162 280.881589 
L 288.580258 280.896064 
L 289.168722 282.464197 
L 289.556084 283.496437 
L 290.202041 285.081607 
L 290.53424 285.652097 
L 290.264315 285.92289 
L 289.938793 286.56759 
L 289.923904 286.962187 
L 290.166866 287.233683 
L 290.219822 287.6607 
L 290.144367 288.095067 
L 290.165119 288.450801 
L 290.428094 288.88603 
L 290.444265 289.189085 
L 290.326608 289.421491 
L 290.535948 289.710049 
L 290.708832 289.837051 
L 291.17313 289.975601 
L 291.928881 289.992911 
L 292.091885 290.05065 
L 292.169067 290.742266 
L 292.420357 290.59328 
L 292.764882 290.349394 
L 293.016715 290.389505 
L 292.993401 290.915891 
L 293.018404 291.39806 
L 293.141768 292.453487 
L 293.11626 292.484137 
L 293.127655 292.805726 
L 293.098712 292.861854 
L 292.927439 292.955098 
L 292.855886 292.927397 
L 292.702434 292.722782 
L 292.505149 292.658079 
L 292.32615 292.747466 
L 291.950293 292.685644 
L 291.517772 292.73433 
L 291.311208 292.820065 
L 291.152689 292.976084 
L 290.596067 292.884201 
L 290.50518 292.977445 
L 290.587215 293.26328 
L 290.073979 293.234558 
L 289.74477 293.391144 
L 289.660269 293.521845 
L 289.399526 293.542626 
L 289.165571 293.49462 
L 288.830829 293.711532 
L 288.69906 293.898383 
L 288.739146 293.953467 
L 288.86317 294.01175 
L 288.872002 294.283338 
L 288.977585 294.773424 
L 288.873963 295.205568 
L 288.729459 295.425837 
L 288.309207 295.488 
L 287.763281 295.419916 
L 287.326956 295.201031 
L 287.265652 294.986933 
L 287.248162 294.70981 
L 287.140328 294.536049 
L 286.877585 294.426584 
L 286.532089 294.549185 
L 286.322419 294.519692 
L 285.839039 294.374494 
L 285.784988 294.201888 
L 285.705755 293.948862 
L 285.672871 293.68619 
L 285.4276 293.612729 
L 285.384641 293.523342 
L 285.360356 293.294157 
L 285.186463 293.224757 
L 285.109105 293.335448 
L 284.658726 293.2084 
L 284.700384 293.043714 
L 284.649427 292.809424 
L 284.358265 292.761487 
L 284.170143 292.416892 
L 284.159486 292.32957 
L 283.791763 291.87281 
L 283.644658 291.809695 
L 283.465931 291.648503 
L 283.471813 291.414168 
L 283.365667 291.310805 
L 283.12981 291.359038 
L 282.994469 291.345811 
L 282.935204 291.248779 
L 282.435964 291.266429 
L 282.316036 291.110932 
L 282.16272 291.048905 
L 281.992379 291.09893 
L 281.236899 291.069596 
L 281.15434 291.035134 
L 281.118971 290.938646 
L 281.018727 290.855951 
L 280.841805 290.828387 
L 280.747462 290.876619 
L 280.635416 290.835261 
L 280.588244 290.793925 
L 280.529271 290.545819 
L 280.411769 290.436943 
L 279.941958 290.534838 
L 279.727221 290.626744 
L 279.26335 290.597999 
L 279.113268 290.513196 
L 279.055971 290.48082 
L 278.943458 290.335623 
L 278.758131 290.293515 
L 278.227172 290.515849 
L 277.809074 290.603217 
L 277.635822 290.445927 
L 277.524202 290.395857 
L 277.189091 290.625224 
L 276.96758 290.443954 
L 276.917769 290.27439 
L 276.342472 290.349689 
L 275.99717 290.290543 
L 275.912863 290.413757 
L 275.887608 290.633005 
L 275.793731 290.862145 
L 275.196188 290.709756 
L 275.196111 290.630941 
L 275.069563 290.254879 
L 274.992866 290.189314 
L 274.910171 290.192127 
L 274.888934 290.228426 
L 274.972057 290.298756 
L 274.965903 290.352842 
L 274.788205 290.456182 
L 274.72232 290.468524 
L 274.659988 290.431181 
L 274.50737 290.266336 
L 274.089483 290.386326 
L 274.06427 290.393566 
L 273.709203 290.67754 
L 273.654054 290.628377 
L 273.654054 290.53232 
L 273.610027 290.478461 
L 273.10209 290.104464 
L 272.885393 290.363414 
L 272.837368 290.502713 
L 272.730368 290.524606 
L 272.656117 290.456364 
L 272.604232 290.348729 
L 272.576741 290.291701 
L 272.271719 290.06374 
L 272.08878 290.048132 
L 271.725599 290.140105 
L 271.420674 289.858649 
L 271.174063 289.557024 
L 271.257923 289.387143 
L 271.313519 289.368993 
L 271.39769 289.067709 
L 270.80568 289.06882 
L 270.741076 289.133047 
L 270.673988 289.30184 
L 270.574199 289.239195 
L 270.269265 289.047767 
L 270.048434 288.676424 
L 269.986004 288.364998 
L 270.085084 288.195843 
L 270.08819 288.115622 
L 270.016734 288.022695 
L 269.843112 288.032133 
L 269.671043 288.326521 
L 269.048905 288.216897 
L 269.048128 288.215632 
L 268.704554 287.656707 
L 268.438861 287.609427 
L 267.964896 287.280396 
L 267.929177 287.229214 
L 267.942649 286.958511 
L 267.801058 286.80957 
L 267.527328 286.754418 
L 267.205689 286.823795 
L 267.174183 286.888181 
L 266.91377 286.969537 
L 266.838238 286.947463 
L 266.781613 286.925411 
L 266.668343 286.74337 
L 266.526751 286.726831 
L 266.333232 286.770957 
L 266.165298 286.678598 
L 266.11141 286.550325 
L 265.998141 286.478611 
L 265.653615 286.561351 
L 265.370432 286.462072 
L 265.261879 286.285566 
L 265.195801 286.026298 
L 265.154458 286.015289 
L 264.924614 285.954085 
L 264.646807 286.08077 
L 264.390781 286.076641 
L 264.244686 286.294392 
L 263.855648 286.445306 
L 263.561051 286.437139 
L 263.448286 286.3539 
L 263.373821 286.227646 
L 263.398591 286.000458 
L 263.33257 285.838426 
L 263.216311 285.78375 
L 262.98919 285.77243 
L 262.822343 285.624215 
L 262.761176 285.468445 
L 262.788954 285.351198 
L 262.748927 285.226396 
L 262.400227 285.014499 
L 262.295072 285.015792 
L 262.088159 284.922185 
L 262.0815 284.602365 
L 262.014742 284.500976 
L 261.89462 284.422978 
L 261.415724 284.390263 
L 261.22335 284.276079 
L 261.098531 283.878397 
L 261.060502 283.627432 
L 260.883134 283.417463 
L 260.5488 283.388106 
L 260.386942 283.555469 
L 260.170536 283.662098 
L 260.099682 283.640386 
L 259.988878 283.517241 
L 259.834765 283.495302 
L 259.259954 283.68635 
L 258.976634 283.539905 
L 258.671535 283.145104 
L 258.6007 283.132377 
L 258.355525 283.266095 
L 258.268365 283.278822 
L 258.110351 283.170582 
L 257.952356 282.858566 
L 257.772561 282.763053 
L 257.331247 282.826736 
L 256.988002 282.826736 
L 256.857242 282.750326 
L 256.717553 282.54444 
L 256.516036 282.449608 
L 256.384209 282.429984 
L 256.260767 282.501017 
L 256.110925 282.678204 
L 255.938003 282.783358 
L 255.551527 282.802892 
L 255.490884 282.751347 
L 255.407664 282.539948 
L 254.991431 282.127542 
L 254.934107 281.952307 
L 255.142301 281.781859 
L 255.364531 280.977329 
L 255.104487 280.447403 
L 254.662842 279.883311 
L 254.354637 279.822011 
L 253.906547 279.636476 
L 253.829637 279.54035 
L 253.816048 279.324097 
L 253.89358 279.093755 
L 253.853708 278.828938 
L 253.686764 277.720141 
L 253.250807 276.905765 
L 253.067829 276.055112 
L 253.088037 275.355828 
L 252.48401 274.877357 
L 252.437014 273.915174 
L 252.053353 273.293411 
L 251.929019 272.668495 
L 251.69883 272.331818 
L 251.413958 272.164229 
L 250.994521 272.155358 
L 250.758723 271.839327 
L 250.896179 271.224846 
L 250.840564 271.017781 
L 250.595719 270.863827 
L 250.132799 270.724029 
L 250.018074 270.721465 
L 249.783285 270.597684 
L 249.606557 270.377007 
L 249.499888 270.002375 
L 249.568975 269.874918 
L 249.818945 269.705423 
L 249.832902 269.616989 
L 249.797145 269.564423 
L 249.623756 269.510768 
L 249.306815 269.171437 
L 249.236407 268.979663 
L 249.078102 268.720326 
L 248.981604 268.735572 
L 248.808196 268.865683 
L 248.754328 268.868723 
L 248.626868 268.77954 
L 248.475395 268.589467 
L 248.466738 268.520997 
L 248.523188 268.402412 
L 248.524916 268.284326 
L 248.362961 267.689674 
L 248.402445 267.575422 
L 248.709389 267.330129 
L 248.811516 267.047334 
L 248.790822 266.959081 
L 248.647736 266.832714 
L 248.560828 266.687585 
L 248.580512 266.614918 
L 248.730742 266.406741 
L 248.784882 266.238993 
L 248.769857 265.99016 
L 248.63572 265.826541 
L 248.602603 265.684066 
L 248.641815 265.614893 
L 248.796471 265.500822 
L 248.867054 265.112578 
L 248.741904 264.354125 
L 248.564613 264.166004 
L 248.500359 264.044492 
L 248.574727 263.740099 
L 248.571971 263.441491 
L 248.361505 263.121013 
L 248.331261 263.106798 
L 248.149564 263.021394 
L 247.812201 263.213055 
L 247.672007 263.196448 
L 247.584711 263.11938 
L 247.503025 262.947185 
L 247.679713 262.526747 
L 247.671483 262.420095 
L 247.542062 262.224963 
L 247.397792 262.166453 
L 247.213474 262.212826 
L 246.978064 262.211442 
L 246.861669 262.168041 
L 246.72988 262.02087 
L 246.704101 261.940671 
L 246.828241 261.765164 
L 247.024614 261.743044 
L 247.343419 261.436655 
L 247.285299 261.201888 
L 247.286308 261.074614 
L 247.455252 260.645986 
L 247.589816 260.478624 
L 247.679558 259.755381 
L 247.520806 259.154445 
L 247.532356 258.867817 
L 247.715763 258.568108 
L 247.751422 258.509837 
L 247.817423 258.185434 
L 247.821305 258.090148 
L 247.757245 257.969906 
L 247.485476 257.756648 
L 247.178746 257.779335 
L 247.062273 257.838321 
L 246.936095 257.842859 
L 246.887565 257.792947 
L 247.011821 256.767535 
L 247.071999 256.561083 
L 247.159353 256.474872 
L 247.221472 256.304718 
L 247.200119 256.223045 
L 247.127149 256.131457 
L 246.971157 256.027479 
L 246.852273 255.948236 
L 246.666228 255.424754 
L 246.370621 255.171271 
L 246.334475 255.173948 
L 246.282936 255.293282 
L 246.216896 255.334391 
L 245.884232 255.448121 
L 245.790335 255.410642 
L 245.784415 255.354038 
L 245.920066 255.263948 
L 245.92125 255.063688 
L 245.791519 254.999915 
L 245.663594 254.876112 
L 245.611841 254.62408 
L 245.56927 254.594928 
L 245.427523 254.546513 
L 245.020219 254.716145 
L 245.004554 254.792782 
L 244.740413 254.892129 
L 244.441564 254.827289 
L 244.215918 254.68318 
L 244.226129 254.585467 
L 244.341087 254.472689 
L 244.364479 254.36125 
L 244.295566 254.234316 
L 244.157798 254.138554 
L 243.830297 254.114937 
L 243.567399 254.241939 
L 243.465583 254.252443 
L 243.331445 254.175057 
L 243.137169 253.998325 
L 243.094521 253.83559 
L 242.925015 253.561144 
L 242.437946 252.96157 
L 242.418631 252.843188 
L 242.181687 252.501452 
L 242.100913 252.469554 
L 241.897766 252.541813 
L 241.830231 252.533577 
L 241.684699 252.423137 
L 241.58164 252.282817 
L 241.503623 251.899019 
L 241.359663 251.552723 
L 241.243074 251.505829 
L 241.182877 251.713734 
L 241.112993 251.77002 
L 240.931801 251.803892 
L 240.80405 251.722604 
L 240.745251 251.442532 
L 240.626061 251.098482 
L 240.253562 251.083667 
L 240.105817 250.974769 
L 240.102653 250.408749 
L 240.138313 250.100386 
L 240.115038 250.00485 
L 240.021607 249.818521 
L 239.795748 249.686913 
L 239.643635 249.50612 
L 239.587359 249.253794 
L 239.648565 249.046842 
L 239.787187 248.853003 
L 239.799514 248.711027 
L 239.753468 248.598272 
L 239.670928 248.417592 
L 239.333526 248.285304 
L 238.951477 247.773392 
L 238.92432 247.466617 
L 239.048169 247.156915 
L 239.054944 246.856152 
L 238.454004 246.797869 
L 238.023948 246.634681 
L 237.897304 246.547767 
L 237.563727 245.880675 
L 237.482041 245.580321 
L 237.383524 244.954519 
L 237.17366 244.765513 
L 236.83622 244.630525 
L 236.700044 244.502071 
L 236.625114 244.287065 
L 236.652038 244.129753 
L 236.634625 244.06067 
L 236.418006 243.847049 
L 236.266165 243.591138 
L 236.11244 243.156612 
L 235.978575 243.059557 
L 235.409043 242.894508 
L 234.992266 242.609535 
L 234.613886 242.609286 
L 234.46154 242.532558 
L 234.345552 242.353194 
L 234.126565 242.209516 
L 233.916817 242.108853 
L 233.692413 242.10511 
L 233.613872 241.966106 
L 233.613257 241.958679 
L 233.587763 241.650619 
L 233.507882 241.275874 
L 233.455101 241.156177 
L 233.390148 241.087798 
L 233.313567 241.073437 
L 232.952017 241.113479 
L 232.846532 241.066177 
L 232.536521 240.74647 
L 232.285833 240.344908 
L 232.113726 240.21963 
L 232.034447 240.106558 
L 232.018373 239.972568 
L 232.14925 239.593421 
L 232.170273 239.339257 
L 232.128188 239.233036 
L 231.632034 238.57781 
L 231.572866 238.316387 
L 231.511776 238.208963 
L 231.094882 237.69088 
L 231.04575 237.584047 
L 230.945079 237.29043 
L 231.054583 237.119937 
L 231.188254 236.73353 
L 231.205201 236.664788 
L 231.173928 236.37487 
L 231.101405 236.224885 
L 230.921785 236.005387 
L 230.791491 235.905655 
L 230.582034 235.598154 
L 230.626799 235.50922 
L 230.893657 235.474691 
L 231.050002 235.392768 
L 231.186682 235.268442 
L 231.251247 235.097767 
L 231.159932 235.039212 
L 230.701225 234.890248 
L 230.372559 234.816742 
L 230.182689 234.723521 
L 229.868252 234.269053 
L 229.744869 233.903359 
L 230.019433 233.364813 
L 230.028557 233.256731 
L 229.997789 233.155025 
L 229.386871 232.89283 
L 229.047859 232.60053 
L 229.022079 232.431533 
L 229.082626 231.969397 
L 229.052304 231.854759 
L 228.746078 231.873658 
L 228.520355 231.744182 
L 228.420538 231.559192 
L 228.105538 231.483326 
L 228.018358 231.406394 
L 227.830041 230.753845 
L 227.792324 230.421955 
L 227.89515 230.163481 
L 227.877446 229.622303 
L 227.652013 229.269246 
L 227.384301 229.107737 
L 227.291997 228.710803 
L 227.395677 228.477421 
L 227.329695 228.141085 
L 227.106572 227.688953 
L 226.993866 227.633778 
L 226.832493 227.612793 
L 226.656484 227.67761 
L 226.575167 227.621573 
L 226.533489 227.454119 
L 226.608303 227.175159 
L 226.462518 227.004007 
L 226.257954 226.844154 
L 226.105821 226.559725 
L 226.032502 226.285915 
L 226.044149 225.961852 
L 225.555896 225.921242 
L 225.470386 225.941547 
L 225.296512 225.683527 
L 225.32365 225.636406 
L 225.329726 225.379293 
L 225.084066 225.02061 
L 225.171789 224.710999 
L 225.193123 224.045314 
L 225.095053 223.549986 
L 225.040467 223.388862 
L 224.994809 223.346483 
L 224.915259 223.02267 
L 224.856945 222.647312 
L 224.870611 222.418966 
L 224.840386 222.076414 
L 224.757099 221.832207 
L 224.634793 221.473595 
L 224.444244 221.226759 
L 224.291762 221.123056 
L 223.949352 221.021962 
L 223.609718 220.807819 
L 223.409133 220.581946 
L 223.38349 220.523436 
L 223.413093 220.393008 
L 223.372522 220.323154 
L 223.247139 220.240051 
L 222.983407 220.171967 
L 222.732544 219.91465 
L 222.669339 219.804572 
L 222.861014 219.52087 
L 222.841058 219.306749 
L 222.482672 218.561478 
L 222.369092 218.611208 
L 222.285445 218.570712 
L 222.258948 218.392482 
L 222.296203 218.252249 
L 222.300373 218.236553 
L 222.246815 218.134824 
L 221.74478 217.799078 
L 221.540817 217.806837 
L 221.444223 217.764662 
L 221.256935 217.579489 
L 221.105424 217.483228 
L 220.946439 217.473881 
L 220.725335 217.394272 
L 220.670321 217.335104 
L 220.608804 216.952781 
L 220.51582 216.753066 
L 220.166539 216.658643 
L 219.74252 216.328001 
L 219.471974 216.179967 
L 219.421872 215.978597 
L 219.309747 215.85924 
L 219.011714 215.857062 
L 218.867715 215.765656 
L 218.844944 215.693647 
L 218.404465 215.492684 
L 218.237521 215.461626 
L 218.113148 215.373214 
L 217.852987 214.805378 
L 217.608628 214.523832 
L 217.569881 214.419335 
L 217.588478 214.329335 
L 217.477402 213.984514 
L 217.213533 213.737383 
L 217.151531 213.331556 
L 216.627444 213.087602 
L 216.306174 213.061829 
L 216.081867 213.109268 
L 215.794879 212.883282 
L 215.649968 212.993949 
L 215.517305 213.000665 
L 215.370938 212.915384 
L 214.986851 212.30408 
L 214.94496 212.063234 
L 214.578091 211.933486 
L 213.904511 211.886637 
L 213.752009 211.829829 
L 213.371144 211.932193 
L 213.255798 211.714601 
L 213.249236 211.55933 
L 213.575748 210.824041 
L 213.421577 210.030447 
L 213.516288 209.713031 
L 213.422023 209.543423 
L 213.093124 209.443758 
L 212.874331 209.788421 
L 212.930199 210.278553 
L 212.627195 210.764125 
L 212.388155 210.625802 
L 212.217406 210.224308 
L 212.353233 209.201256 
L 212.277778 209.024863 
L 212.172137 208.866122 
L 212.006106 208.813193 
L 211.523153 208.88375 
L 211.296749 208.813193 
L 211.191109 208.672079 
L 210.964725 207.895976 
L 210.613599 207.539856 
L 210.586151 207.470593 
L 210.626295 207.242474 
L 210.612415 207.085751 
L 210.542008 206.992371 
L 210.359767 206.914804 
L 210.251836 206.800552 
L 210.255369 206.573068 
L 210.074254 206.53779 
L 209.757313 206.643625 
L 209.651653 206.608347 
L 209.515826 206.502511 
L 209.482341 206.225661 
L 209.244154 206.043891 
L 209.093225 206.026264 
L 208.55058 206.391095 
L 208.172588 206.502511 
L 207.97639 206.396676 
L 207.885833 205.973335 
L 207.704718 205.655829 
L 207.417962 205.708758 
L 207.14629 206.167355 
L 207.010445 206.237912 
L 206.600481 206.168376 
L 206.168038 206.24406 
L 206.083382 206.297011 
L 205.990029 206.525108 
L 205.770867 206.624273 
L 205.654724 206.522385 
L 205.612464 206.377914 
L 205.459594 206.239137 
L 204.925004 206.240657 
L 204.60191 206.432953 
L 204.454611 206.321264 
L 204.047384 206.232058 
L 203.676205 206.094348 
L 203.548152 205.985536 
L 203.502448 205.9467 
L 203.232872 205.829703 
L 203.067734 205.854091 
L 202.96417 205.972382 
L 202.85028 205.981888 
L 202.663186 205.896335 
L 202.60625 205.810782 
L 202.500493 205.744218 
L 202.183241 205.829793 
L 201.768366 205.544571 
L 201.581273 205.582595 
L 201.325848 205.723164 
L 200.989262 205.63541 
L 200.607485 205.63634 
L 200.507493 205.753723 
L 200.409889 205.810782 
L 200.271598 205.829793 
L 200.108905 205.677676 
L 199.946212 205.639653 
L 199.807921 205.658664 
L 199.69403 205.601606 
L 199.563872 205.420972 
L 199.482535 205.35443 
L 199.401179 205.35443 
L 199.148997 205.563583 
L 198.872433 205.47803 
L 198.481609 205.53105 
L 198.232358 205.496179 
L 198.149779 205.527329 
L 198.109499 205.596411 
L 198.161446 205.750184 
L 198.145625 205.792269 
L 197.935644 205.926282 
L 197.47748 205.884174 
L 197.405617 205.759509 
L 197.267966 205.701861 
L 197.124763 205.749685 
L 196.661474 205.760212 
L 196.144258 205.522814 
L 195.808915 205.261867 
L 195.768673 205.14546 
L 195.376161 204.543185 
L 195.293543 204.488101 
L 195.244586 204.477188 
L 194.920229 204.624768 
L 194.407556 204.492888 
L 194.104068 204.288069 
L 193.835929 204.281444 
L 193.825465 204.135543 
L 193.763793 204.049241 
L 193.688804 204.045044 
L 193.534711 204.158775 
L 193.447473 204.155621 
L 193.135288 203.881629 
L 193.056669 203.825365 
L 192.784745 203.77441 
L 192.68322 203.795736 
L 192.681785 203.798523 
L 192.60528 203.947127 
L 192.435424 204.043796 
L 192.286941 204.015233 
L 192.115571 204.173771 
L 191.830583 204.557864 
L 191.86995 204.83535 
L 191.73391 205.12486 
L 191.583816 205.583865 
L 191.582671 205.815092 
L 191.400877 206.33896 
L 191.279978 206.368703 
L 190.90812 206.312144 
L 190.495827 206.11826 
L 189.803883 206.045457 
L 189.388756 205.951736 
L 189.039688 205.968275 
L 188.954779 206.034431 
L 188.941307 206.36437 
L 188.435894 206.684961 
L 188.317966 206.7015 
L 188.209472 206.668422 
L 188.049089 206.486494 
L 188.002286 206.356883 
L 187.853687 206.310737 
L 187.770293 206.446451 
L 187.725528 206.615493 
L 187.503571 206.72396 
L 187.314982 206.685437 
L 187.009844 206.763163 
L 186.82242 207.025199 
L 186.674558 207.077765 
L 186.373399 207.086954 
L 186.070823 207.036747 
L 185.882157 206.904459 
L 185.761394 206.988242 
L 185.548405 207.346109 
L 185.508144 207.686529 
L 185.350732 207.956301 
L 185.331902 208.195922 
L 185.445482 208.389262 
L 184.848269 209.026588 
L 184.601406 209.182607 
L 184.502734 209.395775 
L 184.572676 209.627478 
L 184.542335 210.146741 
L 184.421766 210.286629 
L 184.210873 210.174918 
L 184.118763 210.161351 
L 183.992002 210.244454 
L 184.110416 210.591226 
L 184.035039 210.752328 
L 183.882906 210.73563 
L 183.813605 211.111941 
L 183.848663 211.209677 
L 183.932058 211.292326 
L 183.208705 211.887341 
L 183.235203 212.529612 
L 183.106559 212.783776 
L 182.776243 213.658114 
L 182.745785 213.911257 
L 182.846417 214.248092 
L 182.900596 214.672432 
L 182.585849 215.18507 
L 182.542308 215.615535 
L 182.181068 215.759575 
L 181.982541 215.749275 
L 181.885306 215.704673 
L 181.833514 215.72128 
L 181.752216 215.840795 
L 181.828253 216.051876 
L 181.620855 216.71561 
L 181.662804 217.113814 
L 181.610508 217.223483 
L 181.385658 217.397539 
L 181.314008 217.838349 
L 181.374321 217.974064 
L 181.671074 218.165021 
L 181.802435 218.155719 
L 181.992441 218.255474 
L 182.079815 218.632307 
L 181.862904 218.86637 
L 181.629105 218.999861 
L 181.451154 218.998749 
L 181.265652 218.761124 
L 181.200738 218.770993 
L 181.128234 218.839599 
L 181.134291 218.942508 
L 181.194585 219.057917 
L 181.090594 219.410883 
L 180.941568 219.342232 
L 180.803159 219.333384 
L 180.56441 219.453467 
L 180.52083 219.635939 
L 180.448345 219.725372 
L 180.398165 219.737328 
L 179.936332 219.512317 
L 179.700165 219.581558 
L 179.598814 219.662188 
L 179.531979 219.819727 
L 179.578723 220.079654 
L 179.447769 220.328259 
L 179.332694 220.372907 
L 179.294588 220.610464 
L 179.203293 220.883889 
L 178.854749 221.148239 
L 178.848537 221.301649 
L 178.802336 221.399816 
L 178.709954 221.483259 
L 178.420171 221.547055 
L 178.050623 221.728666 
L 178.012808 221.792462 
L 178.003257 222.011687 
L 177.548646 222.4282 
L 177.504658 222.818259 
L 177.546666 223.127484 
L 177.522595 223.326087 
L 177.402182 223.423891 
L 177.219184 223.732504 
L 177.283554 223.997081 
L 177.256261 224.071427 
L 177.034575 224.1428 
L 176.875726 224.111016 
L 176.713771 224.234683 
L 176.454192 224.353632 
L 176.314057 224.370239 
L 176.274107 224.327065 
L 176.26805 224.217395 
L 175.072926 223.92936 
L 174.853414 224.153531 
L 174.736708 224.185543 
L 174.6584 224.16939 
L 174.578228 224.039279 
L 174.441897 223.97022 
L 174.331345 223.959443 
L 174.246825 224.006905 
L 174.188589 224.126466 
L 174.099235 224.209682 
L 173.962651 224.143708 
L 173.997263 223.892743 
L 173.940056 223.731392 
L 173.782352 223.619976 
L 173.566315 223.605751 
L 173.440427 223.545971 
L 173.494704 223.320325 
L 173.360799 223.224177 
L 173.124768 223.36883 
L 172.977177 223.290741 
L 172.976129 223.112829 
L 173.041548 222.979633 
L 172.995483 222.834276 
L 172.866509 222.801993 
L 172.742136 222.888113 
L 172.684948 223.089143 
L 172.595419 223.248815 
L 172.467882 223.308142 
L 172.077175 223.187106 
L 171.191421 222.77681 
L 171.057206 222.482263 
L 170.700781 222.206615 
L 170.616202 222.180978 
L 170.503418 222.221248 
L 170.387508 222.166345 
L 170.346782 222.078478 
L 170.343656 221.891763 
L 170.277869 221.770932 
L 170.091241 221.59277 
L 169.793576 221.133265 
L 169.311186 220.992152 
L 169.335043 220.711036 
L 169.303149 220.621081 
L 168.667015 220.211171 
L 168.246452 220.334974 
L 167.996075 220.328282 
L 167.722792 220.097985 
L 167.643164 219.976336 
L 166.961897 220.123508 
L 166.815432 220.042333 
L 166.745005 219.900879 
L 166.679101 219.859248 
L 166.126497 219.692271 
L 165.958699 219.717227 
L 165.639254 219.53995 
L 165.426245 219.393346 
L 165.087854 219.004489 
L 164.801429 218.504987 
L 164.588381 218.647757 
L 164.326978 218.497705 
L 164.378206 217.973837 
L 164.137011 217.76423 
L 164.106865 217.753912 
L 163.593686 217.578264 
L 163.221809 217.423334 
L 162.860938 217.34284 
L 162.40062 217.272283 
L 161.692078 217.289208 
L 161.657059 217.270468 
L 161.658088 217.155558 
L 161.539305 217.069211 
L 161.175872 217.045775 
L 160.746904 216.963172 
L 160.563673 217.021477 
L 159.3398 216.473833 
L 159.003699 216.229856 
L 158.971708 216.075947 
L 158.60909 215.908494 
L 158.48823 215.889255 
L 158.316006 215.712999 
L 158.271281 215.571567 
L 158.173211 215.416614 
L 158.016187 215.272075 
L 157.647202 215.095229 
L 157.293572 215.041778 
L 156.849598 214.677106 
L 156.587399 214.372826 
L 156.564046 214.066528 
L 156.278359 213.689491 
L 156.041453 213.568863 
L 155.957302 213.472715 
L 155.929756 213.38689 
L 155.94352 213.006019 
L 155.801229 212.893355 
L 155.635993 212.823615 
L 155.543902 212.698949 
L 155.550464 212.558539 
L 155.504651 212.467563 
L 155.030103 212.179868 
L 154.955134 212.076052 
L 154.088229 211.841558 
L 153.908454 211.759862 
L 153.725805 211.890313 
L 153.583554 211.952135 
L 153.519455 211.940701 
L 152.877652 211.416719 
L 152.686133 211.408938 
L 152.423138 211.121242 
L 152.427758 211.02033 
L 152.326039 210.752985 
L 151.302828 210.041949 
L 151.026807 209.914084 
L 150.697151 209.495621 
L 150.499983 209.353237 
L 150.22998 209.22603 
L 149.605047 208.399085 
L 149.589556 208.284402 
L 149.68252 208.145579 
L 149.672193 208.073139 
L 149.362784 207.467802 
L 149.297559 207.147959 
L 149.315826 206.932318 
L 149.096644 206.522385 
L 149.10175 206.257695 
L 148.581816 205.35443 
L 148.551708 205.378365 
L 148.452202 205.337846 
L 148.238339 205.153831 
L 148.066095 204.579235 
L 147.962998 204.561607 
L 147.85132 204.378023 
L 147.846331 204.149723 
L 147.789745 203.988463 
L 147.333406 203.560856 
L 147.297163 203.5104 
L 147.289554 203.286796 
L 147.031664 203.066754 
L 146.887141 202.759411 
L 146.798816 202.046424 
L 146.889296 201.611149 
L 146.776357 201.278307 
L 146.695563 200.71097 
L 146.618866 200.617341 
L 146.449612 200.566408 
L 146.416864 200.500888 
L 146.473082 200.243979 
L 146.361035 199.900247 
L 146.42494 199.586144 
L 146.528775 199.56897 
L 146.634668 199.467558 
L 146.785597 199.107151 
L 146.772319 198.873156 
L 146.647946 198.615726 
L 146.584429 198.052496 
L 146.647383 197.904281 
L 146.736989 197.370226 
L 146.741085 196.978624 
L 146.440353 196.246466 
L 146.27636 195.992711 
L 146.238894 195.651587 
L 145.837918 195.123795 
L 145.769238 195.120187 
L 145.709294 195.163883 
L 145.530392 195.12291 
L 145.493451 195.068824 
L 145.37063 194.643395 
L 145.298029 194.217967 
L 144.954008 193.944814 
L 144.605853 193.555776 
L 144.363143 193.451642 
L 144.291629 193.176334 
L 144.266374 192.87151 
L 144.21169 192.748591 
L 144.08128 192.645342 
L 143.825448 192.56723 
L 143.397839 192.192802 
L 143.438235 191.772093 
L 143.535684 191.548965 
L 143.367692 191.319712 
L 143.196904 190.644816 
L 143.219441 190.540796 
L 143.269758 190.505404 
L 143.270243 190.446644 
L 143.062669 189.456942 
L 142.818291 188.909275 
L 142.762927 188.54002 
L 142.631449 188.109419 
L 142.130715 187.328256 
L 141.872553 187.359043 
L 141.323968 187.25711 
L 141.213008 187.205111 
L 141.053441 186.937857 
L 141.062953 186.774101 
L 140.936794 186.052629 
L 140.646777 185.791183 
L 140.630918 185.60086 
L 140.538827 185.485905 
L 140.27985 185.540399 
L 139.837487 185.458295 
L 139.702476 185.604377 
L 139.460815 185.479915 
L 139.455147 185.209508 
L 138.76299 184.740066 
L 138.572868 184.487423 
L 138.521814 184.312732 
L 138.52228 184.185321 
L 138.461442 184.125541 
L 138.278018 184.046068 
L 137.949138 183.978052 
L 137.713184 184.001873 
L 137.610727 183.943885 
L 137.561945 183.874667 
L 137.541038 183.638517 
L 137.471368 183.524514 
L 137.210081 183.532659 
L 137.109973 183.430317 
L 137.06154 183.25456 
L 136.882696 183.078826 
L 136.668833 183.207779 
L 136.537685 183.231351 
L 136.478479 183.206917 
L 136.464541 183.137699 
L 136.499366 182.962623 
L 136.426202 182.864909 
L 136.043706 182.829926 
L 135.712691 182.967863 
L 135.597286 182.944065 
L 135.09496 182.39667 
L 134.932054 182.39667 
L 134.775922 182.515664 
L 134.558701 182.515664 
L 134.504405 182.333192 
L 134.456885 182.277654 
L 133.921363 182.036875 
L 133.669453 181.825454 
L 133.344397 181.796846 
L 133.017789 181.69852 
L 132.970268 181.642982 
L 133.017653 181.267873 
L 132.913604 180.882646 
L 132.643854 180.636106 
L 132.321924 180.500346 
L 131.197227 179.649897 
L 131.025837 179.486187 
L 131.004329 179.332255 
L 130.920993 179.209722 
L 130.322499 178.706545 
L 130.116964 178.709108 
L 129.84997 178.584715 
L 129.429038 177.871977 
L 129.384584 177.753959 
L 129.42073 177.560007 
L 129.308509 177.058803 
L 129.102779 176.891962 
L 129.047416 176.663185 
L 128.958955 176.488517 
L 128.492696 176.127339 
L 128.210425 176.132398 
L 128.116451 175.778797 
L 128.075628 175.733559 
L 126.898149 175.269086 
L 126.752267 175.154221 
L 126.703077 174.979008 
L 126.25392 174.622004 
L 125.84912 174.639609 
L 125.660318 174.57663 
L 125.529014 174.218877 
L 125.53476 174.023382 
L 125.473224 173.880907 
L 125.25016 173.7748 
L 124.775554 173.129556 
L 124.447742 172.76359 
L 123.794894 171.81477 
L 123.665571 171.74773 
L 123.377165 171.783462 
L 123.296353 171.761591 
L 123.132787 171.403339 
L 123.029709 171.267103 
L 122.56805 171.259231 
L 122.453538 171.131865 
L 122.266425 170.647859 
L 122.308899 170.358802 
L 122.152826 170.087941 
L 121.839165 170.060989 
L 121.307571 169.587853 
L 121.163139 169.459304 
L 119.700788 169.317646 
L 119.184058 168.802626 
L 119.081329 168.753281 
L 118.681188 168.712694 
L 118.187422 168.40601 
L 117.848545 168.011391 
L 117.263232 167.791394 
L 117.010565 167.466424 
L 116.912223 167.009914 
L 116.661904 166.716025 
L 116.47945 166.085845 
L 116.312952 165.930575 
L 115.807636 165.611481 
L 115.672257 165.103675 
L 115.366497 164.287666 
L 114.76082 163.296262 
L 114.698365 163.135498 
L 114.522977 162.684037 
L 114.473502 162.556685 
L 114.073594 162.239088 
L 114.001769 162.146071 
L 113.920238 161.839795 
L 113.862002 161.753584 
L 113.145677 161.302133 
L 112.881653 161.252222 
L 112.501295 161.016644 
L 112.493411 161.011761 
L 112.180857 161.129734 
L 112.12068 161.268126 
L 112.027502 161.345239 
L 111.850852 161.397419 
L 111.755733 161.38383 
L 111.410197 161.093435 
L 111.093761 160.753151 
L 110.996701 160.626103 
L 111.004485 160.59568 
L 111.006776 160.554004 
L 111.009241 160.509537 
L 111.016501 160.460215 
L 111.014269 160.44565 
L 111.010289 160.428725 
L 110.960361 160.392517 
L 110.922216 160.396805 
L 110.912122 160.398733 
L 110.911287 160.396963 
L 110.878287 160.301678 
L 110.870309 160.279399 
L 110.86664 160.269916 
L 110.856934 160.24496 
L 110.73553 160.16467 
L 110.734618 160.165555 
L 110.684729 160.116097 
L 110.672499 160.099762 
L 110.648574 160.064064 
L 110.637558 160.047627 
L 110.418201 159.977275 
L 110.330827 159.961439 
L 110.321141 159.927363 
L 110.25514 159.911482 
L 110.17555 159.981812 
L 110.053254 159.977275 
L 109.973664 159.89787 
L 109.958135 159.86157 
L 109.843584 159.711836 
L 109.824172 159.698223 
L 109.731363 159.648425 
L 109.558576 159.645635 
L 109.509269 159.580114 
L 109.573756 159.314834 
L 109.571815 159.205936 
L 109.509696 159.171905 
L 109.498049 159.16283 
L 109.327378 159.158633 
L 109.187223 159.014253 
L 109.111399 158.936617 
L 109.071701 158.838677 
L 108.914114 158.710676 
L 108.915007 158.590911 
L 108.934555 158.523667 
L 109.044738 158.31406 
L 109.015717 158.252941 
L 108.870864 158.133789 
L 108.778734 158.104976 
L 108.732223 158.061281 
L 108.72867 157.97482 
" clip-path="url(#p71057492fc)" style="fill: #ffc733"/>
   </g>
   <g id="text_1">
    <!-- TX -->
    <g transform="translate(228.385313 35.472) scale(0.12 -0.12)">
     <defs>
      <path id="DejaVuSans-54" d="M -19 4666 
L 3928 4666 
L 3928 4134 
L 2272 4134 
L 2272 0 
L 1638 0 
L 1638 4134 
L -19 4134 
L -19 4666 
z
" transform="scale(0.015625)"/>
      <path id="DejaVuSans-58" d="M 403 4666 
L 1081 4666 
L 2241 2931 
L 3406 4666 
L 4084 4666 
L 2584 2425 
L 4184 0 
L 3506 0 
L 2194 1984 
L 872 0 
L 191 0 
L 1856 2491 
L 403 4666 
z
" transform="scale(0.015625)"/>
     </defs>
     <use xlink:href="#DejaVuSans-54"/>
     <use xlink:href="#DejaVuSans-58" x="61.083984"/>
    </g>
   </g>
  </g>
 </g>
 <defs>
  <clipPath id="p71057492fc">
   <rect x="95.985537" y="41.472" width="280.348925" height="266.112"/>
  </clipPath>
 </defs>
</svg>
