<?xml version="1.0" encoding="utf-8" standalone="no"?>
<!DOCTYPE svg PUBLIC "-//W3C//DTD SVG 1.1//EN"
  "http://www.w3.org/Graphics/SVG/1.1/DTD/svg11.dtd">
<svg xmlns:xlink="http://www.w3.org/1999/xlink" width="360pt" height="360pt" viewBox="0 0 360 360" xmlns="http://www.w3.org/2000/svg" version="1.1">
 <metadata>
  <rdf:RDF xmlns:dc="http://purl.org/dc/elements/1.1/" xmlns:cc="http://creativecommons.org/ns#" xmlns:rdf="http://www.w3.org/1999/02/22-rdf-syntax-ns#">
   <cc:Work>
    <dc:type rdf:resource="http://purl.org/dc/dcmitype/StillImage"/>
    <dc:date>2023-06-19T15:20:28.337669</dc:date>
    <dc:format>image/svg+xml</dc:format>
    <dc:creator>
     <cc:Agent>
      <dc:title>Matplotlib v3.7.1, https://matplotlib.org/</dc:title>
     </cc:Agent>
    </dc:creator>
   </cc:Work>
  </rdf:RDF>
 </metadata>
 <defs>
  <style type="text/css">*{stroke-linejoin: round; stroke-linecap: butt}</style>
 </defs>
 <g id="figure_1">
  <g id="patch_1">
   <path d="M 0 360 
L 360 360 
L 360 0 
L 0 0 
z
" style="fill: #ffffff"/>
  </g>
  <g id="axes_1">
   <g id="PatchCollection_1">
    <path d="M 249.811521 266.288223 
L 253.963039 266.095661 
L 259.228355 268.120127 
L 259.025908 270.048482 
L 253.990646 270.394413 
L 250.419202 269.277208 
L 249.811521 266.288223 
" clip-path="url(#pe3586f97c0)" style="fill: #f1e800"/>
    <path d="M 194.073611 81.814728 
L 197.801491 76.530668 
L 204.446102 76.025914 
L 208.661354 76.058292 
L 209.594516 70.34923 
L 211.209659 69.645779 
L 215.763344 70.481127 
L 216.06156 72.844708 
L 220.190244 73.142925 
L 220.789063 71.749315 
L 222.89294 71.546869 
L 225.995417 73.67324 
L 229.198095 73.380817 
L 231.529298 74.471097 
L 232.085174 76.249833 
L 234.847173 77.968243 
L 236.205678 77.335001 
L 240.765157 79.542146 
L 240.074317 82.125896 
L 238.504163 82.210079 
L 237.602355 84.150021 
L 235.24525 83.48781 
L 230.089678 81.135816 
L 225.803195 80.730242 
L 227.099331 84.063453 
L 228.358317 87.363265 
L 226.864847 91.116365 
L 227.486842 93.424734 
L 226.364865 95.090658 
L 219.890664 91.747563 
L 215.967835 89.404771 
L 207.933705 88.801522 
L 204.971645 90.871998 
L 199.857653 90.850526 
L 196.102848 88.774597 
L 194.067135 85.021496 
L 194.073611 81.814728 
" clip-path="url(#pe3586f97c0)" style="fill: #f1e800"/>
    <path d="M 157.566082 102.514041 
L 161.522311 101.382862 
L 166.274353 101.937034 
L 166.375577 105.302282 
L 162.021612 104.917838 
L 157.262413 105.398393 
L 157.566082 102.514041 
" clip-path="url(#pe3586f97c0)" style="fill: #f1e800"/>
    <path d="M 157.262413 305.54071 
L 164.819737 294.813767 
L 163.742408 290.14727 
L 160.907814 283.162863 
L 163.540302 277.376776 
L 169.210851 274.387451 
L 180.956503 278.244501 
L 191.386252 271.783933 
L 200.600639 269.95203 
L 211.232493 270.766928 
L 219.38557 279.362388 
L 229.442122 280.03721 
L 234.420467 277.955487 
L 242.480841 277.264987 
L 256.558377 277.993999 
L 267.019141 277.883574 
L 272.910882 279.547453 
L 272.695825 281.523523 
L 269.052127 283.254202 
L 266.1037 283.632171 
L 259.878638 284.435141 
L 258.163977 287.751993 
L 248.10129 291.566782 
L 239.156832 294.197225 
L 229.768626 297.14497 
L 221.506147 299.146601 
L 213.145512 300.408654 
L 207.213554 304.448725 
L 205.764731 305.05845 
L 201.207979 301.006792 
L 194.224594 301.229006 
L 179.741483 306.022969 
L 176.197645 303.611332 
L 166.755931 304.341026 
L 158.901753 307.8 
L 157.262413 305.54071 
" clip-path="url(#pe3586f97c0)" style="fill: #f1e800"/>
    <path d="M 153.255742 58.858171 
L 155.582174 55.8 
L 157.777731 56.426426 
L 158.557185 57.917169 
L 158.240564 60.455931 
L 159.590889 62.740783 
L 156.655754 64.685838 
L 154.243436 62.010407 
L 153.255742 58.858171 
" clip-path="url(#pe3586f97c0)" style="fill: #f1e800"/>
    <path d="M 122.024776 92.515087 
L 124.961274 89.823638 
L 127.594103 92.418976 
L 126.682752 95.879995 
L 122.73368 95.687773 
L 122.024776 92.515087 
" clip-path="url(#pe3586f97c0)" style="fill: #f1e800"/>
    <path d="M 96.375747 81.077877 
L 99.496288 78.476745 
L 103.253478 67.242322 
L 104.765011 66.603968 
L 116.766618 73.376727 
L 122.674378 71.467458 
L 130.578315 65.544702 
L 131.635536 62.104814 
L 133.715556 59.966174 
L 135.886915 62.106177 
L 137.676897 65.974816 
L 141.381943 68.607303 
L 145.419287 66.093421 
L 154.927119 71.918702 
L 161.375418 73.068967 
L 169.267427 71.46848 
L 178.441548 71.79078 
L 181.316408 71.891778 
L 190.092843 69.49207 
L 194.257653 70.056466 
L 194.12303 72.673958 
L 191.729116 76.833315 
L 181.613943 76.833315 
L 178.448169 77.379627 
L 175.068852 77.96279 
L 174.324843 79.515903 
L 175.564403 80.706384 
L 181.220979 85.05217 
L 185.653673 90.146053 
L 186.153655 95.165979 
L 183.398813 95.614156 
L 177.569783 90.392125 
L 168.242925 92.96974 
L 166.473051 93.532773 
L 159.590889 91.058085 
L 151.522336 87.849954 
L 147.964184 86.80807 
L 145.434624 88.628045 
L 141.400347 90.833145 
L 139.72079 92.464305 
L 138.363989 89.735025 
L 137.140107 85.948183 
L 134.415599 84.625123 
L 130.729639 82.402982 
L 125.394796 78.301564 
L 120.904845 80.060532 
L 117.551525 80.379879 
L 115.760861 80.292289 
L 98.788406 81.940491 
L 96.089118 82.319481 
L 96.375747 81.077877 
" clip-path="url(#pe3586f97c0)" style="fill: #f1e800"/>
   </g>
   <g id="text_1">
    <!-- United States Virgin Islands -->
    <g transform="translate(101.805 37.2) scale(0.12 -0.12)">
     <defs>
      <path id="DejaVuSans-55" d="M 556 4666 
L 1191 4666 
L 1191 1831 
Q 1191 1081 1462 751 
Q 1734 422 2344 422 
Q 2950 422 3222 751 
Q 3494 1081 3494 1831 
L 3494 4666 
L 4128 4666 
L 4128 1753 
Q 4128 841 3676 375 
Q 3225 -91 2344 -91 
Q 1459 -91 1007 375 
Q 556 841 556 1753 
L 556 4666 
z
" transform="scale(0.015625)"/>
      <path id="DejaVuSans-6e" d="M 3513 2113 
L 3513 0 
L 2938 0 
L 2938 2094 
Q 2938 2591 2744 2837 
Q 2550 3084 2163 3084 
Q 1697 3084 1428 2787 
Q 1159 2491 1159 1978 
L 1159 0 
L 581 0 
L 581 3500 
L 1159 3500 
L 1159 2956 
Q 1366 3272 1645 3428 
Q 1925 3584 2291 3584 
Q 2894 3584 3203 3211 
Q 3513 2838 3513 2113 
z
" transform="scale(0.015625)"/>
      <path id="DejaVuSans-69" d="M 603 3500 
L 1178 3500 
L 1178 0 
L 603 0 
L 603 3500 
z
M 603 4863 
L 1178 4863 
L 1178 4134 
L 603 4134 
L 603 4863 
z
" transform="scale(0.015625)"/>
      <path id="DejaVuSans-74" d="M 1172 4494 
L 1172 3500 
L 2356 3500 
L 2356 3053 
L 1172 3053 
L 1172 1153 
Q 1172 725 1289 603 
Q 1406 481 1766 481 
L 2356 481 
L 2356 0 
L 1766 0 
Q 1100 0 847 248 
Q 594 497 594 1153 
L 594 3053 
L 172 3053 
L 172 3500 
L 594 3500 
L 594 4494 
L 1172 4494 
z
" transform="scale(0.015625)"/>
      <path id="DejaVuSans-65" d="M 3597 1894 
L 3597 1613 
L 953 1613 
Q 991 1019 1311 708 
Q 1631 397 2203 397 
Q 2534 397 2845 478 
Q 3156 559 3463 722 
L 3463 178 
Q 3153 47 2828 -22 
Q 2503 -91 2169 -91 
Q 1331 -91 842 396 
Q 353 884 353 1716 
Q 353 2575 817 3079 
Q 1281 3584 2069 3584 
Q 2775 3584 3186 3129 
Q 3597 2675 3597 1894 
z
M 3022 2063 
Q 3016 2534 2758 2815 
Q 2500 3097 2075 3097 
Q 1594 3097 1305 2825 
Q 1016 2553 972 2059 
L 3022 2063 
z
" transform="scale(0.015625)"/>
      <path id="DejaVuSans-64" d="M 2906 2969 
L 2906 4863 
L 3481 4863 
L 3481 0 
L 2906 0 
L 2906 525 
Q 2725 213 2448 61 
Q 2172 -91 1784 -91 
Q 1150 -91 751 415 
Q 353 922 353 1747 
Q 353 2572 751 3078 
Q 1150 3584 1784 3584 
Q 2172 3584 2448 3432 
Q 2725 3281 2906 2969 
z
M 947 1747 
Q 947 1113 1208 752 
Q 1469 391 1925 391 
Q 2381 391 2643 752 
Q 2906 1113 2906 1747 
Q 2906 2381 2643 2742 
Q 2381 3103 1925 3103 
Q 1469 3103 1208 2742 
Q 947 2381 947 1747 
z
" transform="scale(0.015625)"/>
      <path id="DejaVuSans-20" transform="scale(0.015625)"/>
      <path id="DejaVuSans-53" d="M 3425 4513 
L 3425 3897 
Q 3066 4069 2747 4153 
Q 2428 4238 2131 4238 
Q 1616 4238 1336 4038 
Q 1056 3838 1056 3469 
Q 1056 3159 1242 3001 
Q 1428 2844 1947 2747 
L 2328 2669 
Q 3034 2534 3370 2195 
Q 3706 1856 3706 1288 
Q 3706 609 3251 259 
Q 2797 -91 1919 -91 
Q 1588 -91 1214 -16 
Q 841 59 441 206 
L 441 856 
Q 825 641 1194 531 
Q 1563 422 1919 422 
Q 2459 422 2753 634 
Q 3047 847 3047 1241 
Q 3047 1584 2836 1778 
Q 2625 1972 2144 2069 
L 1759 2144 
Q 1053 2284 737 2584 
Q 422 2884 422 3419 
Q 422 4038 858 4394 
Q 1294 4750 2059 4750 
Q 2388 4750 2728 4690 
Q 3069 4631 3425 4513 
z
" transform="scale(0.015625)"/>
      <path id="DejaVuSans-61" d="M 2194 1759 
Q 1497 1759 1228 1600 
Q 959 1441 959 1056 
Q 959 750 1161 570 
Q 1363 391 1709 391 
Q 2188 391 2477 730 
Q 2766 1069 2766 1631 
L 2766 1759 
L 2194 1759 
z
M 3341 1997 
L 3341 0 
L 2766 0 
L 2766 531 
Q 2569 213 2275 61 
Q 1981 -91 1556 -91 
Q 1019 -91 701 211 
Q 384 513 384 1019 
Q 384 1609 779 1909 
Q 1175 2209 1959 2209 
L 2766 2209 
L 2766 2266 
Q 2766 2663 2505 2880 
Q 2244 3097 1772 3097 
Q 1472 3097 1187 3025 
Q 903 2953 641 2809 
L 641 3341 
Q 956 3463 1253 3523 
Q 1550 3584 1831 3584 
Q 2591 3584 2966 3190 
Q 3341 2797 3341 1997 
z
" transform="scale(0.015625)"/>
      <path id="DejaVuSans-73" d="M 2834 3397 
L 2834 2853 
Q 2591 2978 2328 3040 
Q 2066 3103 1784 3103 
Q 1356 3103 1142 2972 
Q 928 2841 928 2578 
Q 928 2378 1081 2264 
Q 1234 2150 1697 2047 
L 1894 2003 
Q 2506 1872 2764 1633 
Q 3022 1394 3022 966 
Q 3022 478 2636 193 
Q 2250 -91 1575 -91 
Q 1294 -91 989 -36 
Q 684 19 347 128 
L 347 722 
Q 666 556 975 473 
Q 1284 391 1588 391 
Q 1994 391 2212 530 
Q 2431 669 2431 922 
Q 2431 1156 2273 1281 
Q 2116 1406 1581 1522 
L 1381 1569 
Q 847 1681 609 1914 
Q 372 2147 372 2553 
Q 372 3047 722 3315 
Q 1072 3584 1716 3584 
Q 2034 3584 2315 3537 
Q 2597 3491 2834 3397 
z
" transform="scale(0.015625)"/>
      <path id="DejaVuSans-56" d="M 1831 0 
L 50 4666 
L 709 4666 
L 2188 738 
L 3669 4666 
L 4325 4666 
L 2547 0 
L 1831 0 
z
" transform="scale(0.015625)"/>
      <path id="DejaVuSans-72" d="M 2631 2963 
Q 2534 3019 2420 3045 
Q 2306 3072 2169 3072 
Q 1681 3072 1420 2755 
Q 1159 2438 1159 1844 
L 1159 0 
L 581 0 
L 581 3500 
L 1159 3500 
L 1159 2956 
Q 1341 3275 1631 3429 
Q 1922 3584 2338 3584 
Q 2397 3584 2469 3576 
Q 2541 3569 2628 3553 
L 2631 2963 
z
" transform="scale(0.015625)"/>
      <path id="DejaVuSans-67" d="M 2906 1791 
Q 2906 2416 2648 2759 
Q 2391 3103 1925 3103 
Q 1463 3103 1205 2759 
Q 947 2416 947 1791 
Q 947 1169 1205 825 
Q 1463 481 1925 481 
Q 2391 481 2648 825 
Q 2906 1169 2906 1791 
z
M 3481 434 
Q 3481 -459 3084 -895 
Q 2688 -1331 1869 -1331 
Q 1566 -1331 1297 -1286 
Q 1028 -1241 775 -1147 
L 775 -588 
Q 1028 -725 1275 -790 
Q 1522 -856 1778 -856 
Q 2344 -856 2625 -561 
Q 2906 -266 2906 331 
L 2906 616 
Q 2728 306 2450 153 
Q 2172 0 1784 0 
Q 1141 0 747 490 
Q 353 981 353 1791 
Q 353 2603 747 3093 
Q 1141 3584 1784 3584 
Q 2172 3584 2450 3431 
Q 2728 3278 2906 2969 
L 2906 3500 
L 3481 3500 
L 3481 434 
z
" transform="scale(0.015625)"/>
      <path id="DejaVuSans-49" d="M 628 4666 
L 1259 4666 
L 1259 0 
L 628 0 
L 628 4666 
z
" transform="scale(0.015625)"/>
      <path id="DejaVuSans-6c" d="M 603 4863 
L 1178 4863 
L 1178 0 
L 603 0 
L 603 4863 
z
" transform="scale(0.015625)"/>
     </defs>
     <use xlink:href="#DejaVuSans-55"/>
     <use xlink:href="#DejaVuSans-6e" x="73.193359"/>
     <use xlink:href="#DejaVuSans-69" x="136.572266"/>
     <use xlink:href="#DejaVuSans-74" x="164.355469"/>
     <use xlink:href="#DejaVuSans-65" x="203.564453"/>
     <use xlink:href="#DejaVuSans-64" x="265.087891"/>
     <use xlink:href="#DejaVuSans-20" x="328.564453"/>
     <use xlink:href="#DejaVuSans-53" x="360.351562"/>
     <use xlink:href="#DejaVuSans-74" x="423.828125"/>
     <use xlink:href="#DejaVuSans-61" x="463.037109"/>
     <use xlink:href="#DejaVuSans-74" x="524.316406"/>
     <use xlink:href="#DejaVuSans-65" x="563.525391"/>
     <use xlink:href="#DejaVuSans-73" x="625.048828"/>
     <use xlink:href="#DejaVuSans-20" x="677.148438"/>
     <use xlink:href="#DejaVuSans-56" x="708.935547"/>
     <use xlink:href="#DejaVuSans-69" x="775.09375"/>
     <use xlink:href="#DejaVuSans-72" x="802.876953"/>
     <use xlink:href="#DejaVuSans-67" x="842.240234"/>
     <use xlink:href="#DejaVuSans-69" x="905.716797"/>
     <use xlink:href="#DejaVuSans-6e" x="933.5"/>
     <use xlink:href="#DejaVuSans-20" x="996.878906"/>
     <use xlink:href="#DejaVuSans-49" x="1028.666016"/>
     <use xlink:href="#DejaVuSans-73" x="1058.158203"/>
     <use xlink:href="#DejaVuSans-6c" x="1110.257812"/>
     <use xlink:href="#DejaVuSans-61" x="1138.041016"/>
     <use xlink:href="#DejaVuSans-6e" x="1199.320312"/>
     <use xlink:href="#DejaVuSans-64" x="1262.699219"/>
     <use xlink:href="#DejaVuSans-73" x="1326.175781"/>
    </g>
   </g>
  </g>
 </g>
 <defs>
  <clipPath id="pe3586f97c0">
   <rect x="87.24803" y="43.2" width="194.50394" height="277.2"/>
  </clipPath>
 </defs>
</svg>
