<?xml version="1.0" encoding="utf-8" standalone="no"?>
<!DOCTYPE svg PUBLIC "-//W3C//DTD SVG 1.1//EN"
  "http://www.w3.org/Graphics/SVG/1.1/DTD/svg11.dtd">
<svg xmlns:xlink="http://www.w3.org/1999/xlink" width="460.8pt" height="345.6pt" viewBox="0 0 460.8 345.6" xmlns="http://www.w3.org/2000/svg" version="1.1">
 <metadata>
  <rdf:RDF xmlns:dc="http://purl.org/dc/elements/1.1/" xmlns:cc="http://creativecommons.org/ns#" xmlns:rdf="http://www.w3.org/1999/02/22-rdf-syntax-ns#">
   <cc:Work>
    <dc:type rdf:resource="http://purl.org/dc/dcmitype/StillImage"/>
    <dc:date>2023-06-19T14:47:48.133068</dc:date>
    <dc:format>image/svg+xml</dc:format>
    <dc:creator>
     <cc:Agent>
      <dc:title>Matplotlib v3.7.1, https://matplotlib.org/</dc:title>
     </cc:Agent>
    </dc:creator>
   </cc:Work>
  </rdf:RDF>
 </metadata>
 <defs>
  <style type="text/css">*{stroke-linejoin: round; stroke-linecap: butt}</style>
 </defs>
 <g id="figure_1">
  <g id="patch_1">
   <path d="M 0 345.6 
L 460.8 345.6 
L 460.8 0 
L 0 0 
z
" style="fill: #ffffff"/>
  </g>
  <g id="axes_1">
   <g id="PatchCollection_1">
    <path d="M 142.669059 266.729172 
L 142.687339 266.14932 
L 142.693538 264.624365 
L 142.715096 259.321398 
L 142.71297 259.309214 
L 142.71726 259.274934 
L 142.738189 258.824416 
L 142.782585 258.374285 
L 142.836532 256.233624 
L 142.791614 255.567179 
L 142.78225 254.171676 
L 142.792323 252.776318 
L 142.763782 247.042442 
L 142.783182 239.855817 
L 142.783168 239.847983 
L 142.774415 234.955191 
L 142.801314 234.242523 
L 142.775087 227.481565 
L 142.776169 227.474941 
L 142.761469 222.868133 
L 142.785757 220.749036 
L 142.784712 220.556606 
L 142.773818 219.340334 
L 142.773823 219.337701 
L 142.783916 214.290502 
L 142.788928 211.783837 
L 142.810603 210.781027 
L 142.799523 204.737474 
L 142.834741 204.677134 
L 142.852164 204.556454 
L 142.812991 198.425002 
L 142.888539 174.519515 
L 142.864326 172.450217 
L 142.881301 161.974348 
L 142.862274 160.294359 
L 142.883502 158.995506 
L 142.886487 154.885195 
L 142.886501 154.882261 
L 142.908088 150.492091 
L 142.897642 148.88535 
L 142.914393 145.608967 
L 142.901149 145.302674 
L 142.903331 144.688427 
L 142.923086 139.126548 
L 142.922153 131.084045 
L 142.935285 129.802308 
L 142.957968 129.53837 
L 142.946776 126.434738 
L 142.944575 126.370579 
L 142.955618 125.849133 
L 143.021876 115.226524 
L 143.009714 113.661267 
L 143.010758 113.635207 
L 143.03415 113.032292 
L 143.072609 101.997964 
L 143.072614 101.996539 
L 143.098655 91.948319 
L 143.057393 91.795003 
L 143.100558 91.358168 
L 143.144021 78.220144 
L 143.117495 77.822182 
L 143.136336 72.239977 
L 143.153833 71.77858 
L 143.156333 65.548254 
L 143.109661 60.867375 
L 143.11134 60.868439 
L 143.165771 59.212817 
L 143.088358 53.947396 
L 144.872405 53.996809 
L 148.627112 54.221198 
L 151.279605 54.200794 
L 152.252623 54.170576 
L 153.429751 54.153412 
L 163.267492 53.991926 
L 163.427504 53.967461 
L 165.851936 53.943577 
L 166.946278 53.926074 
L 167.160162 53.921771 
L 168.610904 53.940676 
L 169.265241 53.897742 
L 172.594679 53.856016 
L 172.656983 53.827345 
L 181.921867 53.72968 
L 181.950994 53.72961 
L 182.727822 53.727746 
L 185.325584 53.702217 
L 186.341096 53.695884 
L 186.406309 53.695932 
L 188.178194 53.675432 
L 188.179724 53.677366 
L 189.841477 53.659187 
L 192.795004 53.628823 
L 195.084046 53.62892 
L 202.441283 53.597686 
L 202.450498 53.590966 
L 204.852992 53.589322 
L 209.375936 53.595849 
L 210.339553 53.584922 
L 212.060588 53.58734 
L 212.792712 53.809698 
L 213.114612 53.803482 
L 213.143253 53.802929 
L 215.17368 53.759898 
L 215.177019 53.759865 
L 218.805645 53.723539 
L 221.312634 53.71784 
L 222.399967 53.715368 
L 222.407988 53.71648 
L 223.86787 53.714933 
L 228.557914 53.676157 
L 228.971167 53.675744 
L 237.622606 53.667088 
L 237.623214 53.667087 
L 237.642826 53.667068 
L 238.981533 53.656382 
L 240.691935 53.60315 
L 240.86493 53.605422 
L 241.052401 53.607598 
L 254.825753 53.568 
L 254.84284 64.295548 
L 254.858231 73.957923 
L 254.85933 74.648057 
L 254.841609 83.72997 
L 254.829073 84.553792 
L 254.830331 88.176933 
L 254.830902 89.822695 
L 254.830899 89.827005 
L 254.824485 102.091642 
L 265.867372 102.145406 
L 267.199289 102.169581 
L 273.735833 102.169629 
L 275.194596 102.246988 
L 279.85819 102.23727 
L 284.521821 102.182055 
L 285.001633 102.214062 
L 289.185265 102.159766 
L 289.337107 102.133126 
L 292.066396 102.111193 
L 293.632848 102.098604 
L 293.848747 102.12099 
L 293.881204 102.122054 
L 294.788076 102.093915 
L 299.273601 102.108323 
L 299.310796 102.10605 
L 304.492555 102.080425 
L 304.54971 102.076799 
L 305.947102 102.070562 
L 310.898694 102.081991 
L 311.225934 102.082746 
L 312.503046 102.03517 
L 321.828405 101.944177 
L 322.527922 101.89341 
L 324.703064 101.951429 
L 329.314502 101.961099 
L 329.374977 110.401806 
L 329.351362 115.79366 
L 329.378038 118.305553 
L 329.382663 118.741075 
L 329.390311 120.402837 
L 329.314577 124.216284 
L 329.319016 124.238379 
L 329.291297 126.169349 
L 329.305623 126.404858 
L 329.282044 128.857323 
L 329.281197 139.577356 
L 329.281037 141.598256 
L 329.282119 141.604879 
L 329.287006 147.461563 
L 329.284768 147.493667 
L 329.294393 156.38726 
L 329.278528 166.758132 
L 329.266489 174.627804 
L 329.266487 174.629219 
L 329.288797 180.962819 
L 329.260928 192.594766 
L 329.226456 198.692083 
L 329.194521 201.453161 
L 329.196722 201.473032 
L 329.175681 203.270801 
L 329.170234 203.312864 
L 329.161056 204.735781 
L 329.041709 208.580896 
L 328.961386 212.234549 
L 328.934823 218.063528 
L 328.945679 222.866586 
L 328.941949 233.720884 
L 329.143932 235.198822 
L 329.624677 239.077927 
L 329.621895 239.641577 
L 329.585206 247.074352 
L 329.585243 247.182316 
L 329.573976 248.285065 
L 329.650941 251.525621 
L 329.628681 252.789993 
L 329.621618 253.191154 
L 329.626132 254.677264 
L 329.624975 254.978237 
L 329.635906 256.705319 
L 329.612142 259.128339 
L 329.629378 259.601194 
L 329.624752 260.907977 
L 329.625796 261.003128 
L 329.605762 263.185949 
L 329.612477 265.229766 
L 329.61091 265.526292 
L 329.623035 266.178571 
L 329.620834 269.729578 
L 329.618969 269.733107 
L 329.573379 271.215542 
L 329.561275 271.949094 
L 329.473656 277.259144 
L 329.465113 283.302793 
L 329.482087 283.333833 
L 329.485706 285.195616 
L 329.467388 285.631387 
L 329.466754 286.818457 
L 329.498055 289.97155 
L 329.496302 289.976675 
L 329.497421 290.097258 
L 329.496824 290.735129 
L 329.504062 291.210982 
L 329.501711 291.779955 
L 329.497682 291.872737 
L 329.495555 295.434042 
L 324.422735 295.425001 
L 322.458418 295.425243 
L 321.970846 295.421375 
L 321.356278 295.425388 
L 321.176344 295.426403 
L 321.106056 295.425243 
L 317.079004 295.431576 
L 316.960105 295.430948 
L 312.702865 295.433027 
L 307.840572 295.471561 
L 298.513497 295.462085 
L 293.849903 295.488 
L 293.849715 295.487346 
L 293.842479 295.462182 
L 293.062676 295.457347 
L 276.333521 295.486598 
L 275.560583 295.217341 
L 275.195641 295.183787 
L 271.508834 295.223046 
L 270.535367 295.224594 
L 270.532196 295.209847 
L 265.868752 295.235182 
L 254.086802 295.274248 
L 251.578914 295.35209 
L 247.059663 295.337682 
L 246.185435 295.367272 
L 243.502607 295.339071 
L 241.438758 295.317376 
L 241.425626 295.318149 
L 241.167644 295.318309 
L 205.915512 295.340197 
L 205.495578 295.335362 
L 199.166841 295.357179 
L 199.100242 295.357409 
L 198.923927 295.354266 
L 198.406098 295.356297 
L 196.510389 295.353347 
L 188.31335 295.369252 
L 185.713437 295.374296 
L 183.203381 295.379166 
L 169.541978 295.383471 
L 163.489584 295.385378 
L 161.132353 295.38612 
L 145.916868 295.390915 
L 145.916868 295.388546 
L 142.757179 295.370608 
L 142.714313 291.114041 
L 142.711589 290.991138 
L 142.674095 290.363323 
L 142.70991 288.896844 
L 142.69827 288.277104 
L 142.717148 287.0559 
L 142.727146 284.083101 
L 142.705918 281.665931 
L 142.705918 281.633876 
L 142.71241 281.221312 
L 142.71241 281.196944 
L 142.707672 277.478359 
L 142.707672 277.465063 
L 142.713716 275.175777 
L 142.688235 274.529976 
L 142.681873 272.556205 
L 142.678796 271.601272 
L 142.679393 271.093654 
L 142.678162 270.380455 
L 142.679244 270.351687 
L 142.669059 266.729172 
" clip-path="url(#p3f8f25e711)" style="fill: #33a1ff"/>
   </g>
   <g id="text_1">
    <!-- UT -->
    <g transform="translate(228.104063 35.472) scale(0.12 -0.12)">
     <defs>
      <path id="DejaVuSans-55" d="M 556 4666 
L 1191 4666 
L 1191 1831 
Q 1191 1081 1462 751 
Q 1734 422 2344 422 
Q 2950 422 3222 751 
Q 3494 1081 3494 1831 
L 3494 4666 
L 4128 4666 
L 4128 1753 
Q 4128 841 3676 375 
Q 3225 -91 2344 -91 
Q 1459 -91 1007 375 
Q 556 841 556 1753 
L 556 4666 
z
" transform="scale(0.015625)"/>
      <path id="DejaVuSans-54" d="M -19 4666 
L 3928 4666 
L 3928 4134 
L 2272 4134 
L 2272 0 
L 1638 0 
L 1638 4134 
L -19 4134 
L -19 4666 
z
" transform="scale(0.015625)"/>
     </defs>
     <use xlink:href="#DejaVuSans-55"/>
     <use xlink:href="#DejaVuSans-54" x="73.193359"/>
    </g>
   </g>
  </g>
 </g>
 <defs>
  <clipPath id="p3f8f25e711">
   <rect x="133.319964" y="41.472" width="205.680071" height="266.112"/>
  </clipPath>
 </defs>
</svg>
