<?xml version="1.0" encoding="utf-8" standalone="no"?>
<!DOCTYPE svg PUBLIC "-//W3C//DTD SVG 1.1//EN"
  "http://www.w3.org/Graphics/SVG/1.1/DTD/svg11.dtd">
<svg xmlns:xlink="http://www.w3.org/1999/xlink" width="360pt" height="360pt" viewBox="0 0 360 360" xmlns="http://www.w3.org/2000/svg" version="1.1">
 <metadata>
  <rdf:RDF xmlns:dc="http://purl.org/dc/elements/1.1/" xmlns:cc="http://creativecommons.org/ns#" xmlns:rdf="http://www.w3.org/1999/02/22-rdf-syntax-ns#">
   <cc:Work>
    <dc:type rdf:resource="http://purl.org/dc/dcmitype/StillImage"/>
    <dc:date>2023-06-19T15:20:27.884607</dc:date>
    <dc:format>image/svg+xml</dc:format>
    <dc:creator>
     <cc:Agent>
      <dc:title>Matplotlib v3.7.1, https://matplotlib.org/</dc:title>
     </cc:Agent>
    </dc:creator>
   </cc:Work>
  </rdf:RDF>
 </metadata>
 <defs>
  <style type="text/css">*{stroke-linejoin: round; stroke-linecap: butt}</style>
 </defs>
 <g id="figure_1">
  <g id="patch_1">
   <path d="M 0 360 
L 360 360 
L 360 0 
L 0 0 
z
" style="fill: #ffffff"/>
  </g>
  <g id="axes_1">
   <g id="PatchCollection_1">
    <path d="M 58.290865 277.842887 
L 58.315543 277.238875 
L 58.323912 275.65038 
L 58.353013 270.126456 
L 58.350143 270.113764 
L 58.355934 270.078056 
L 58.384189 269.608767 
L 58.444121 269.13988 
L 58.516947 266.910025 
L 58.456309 266.215811 
L 58.443668 264.762163 
L 58.457266 263.308665 
L 58.418738 257.335877 
L 58.444927 249.849809 
L 58.444908 249.841649 
L 58.433092 244.74499 
L 58.469404 244.002629 
L 58.433998 236.959963 
L 58.435459 236.953064 
L 58.415616 232.154305 
L 58.448402 229.946912 
L 58.446992 229.746465 
L 58.432286 228.479514 
L 58.432293 228.476771 
L 58.445917 223.219272 
L 58.452683 220.608164 
L 58.481945 219.563569 
L 58.466987 213.268202 
L 58.51453 213.205348 
L 58.53805 213.07964 
L 58.485168 206.692711 
L 58.587154 181.791161 
L 58.554468 179.635643 
L 58.577384 168.723279 
L 58.551698 166.97329 
L 58.580355 165.620319 
L 58.584384 161.338745 
L 58.584404 161.335689 
L 58.613545 156.762594 
L 58.599443 155.088906 
L 58.622057 151.676007 
L 58.604177 151.356953 
L 58.607123 150.717111 
L 58.633791 144.923487 
L 58.632532 136.545881 
L 58.65026 135.210738 
L 58.680881 134.935802 
L 58.665772 131.702852 
L 58.662801 131.63602 
L 58.677708 131.092847 
L 58.767155 120.027629 
L 58.750736 118.397153 
L 58.752146 118.370007 
L 58.783724 117.741971 
L 58.835642 106.24788 
L 58.835649 106.246395 
L 58.870803 95.779499 
L 58.815101 95.619795 
L 58.873372 95.164759 
L 58.932045 81.479317 
L 58.896237 81.064773 
L 58.92167 75.249976 
L 58.945291 74.769355 
L 58.948665 68.279432 
L 58.88566 63.403516 
L 58.887927 63.404624 
L 58.961407 61.680018 
L 58.856903 56.195204 
L 61.265297 56.246676 
L 66.334005 56.480414 
L 69.914767 56.459161 
L 71.228304 56.427683 
L 72.817381 56.409804 
L 86.097949 56.241589 
L 86.313959 56.216105 
L 89.586847 56.191226 
L 91.064167 56.172994 
L 91.352902 56.168512 
L 93.311347 56.188204 
L 94.194677 56.143481 
L 98.689289 56.100017 
L 98.773396 56.070151 
L 111.280629 55.968416 
L 111.31995 55.968344 
L 112.368637 55.966402 
L 115.875515 55.93981 
L 117.246416 55.933212 
L 117.334452 55.933262 
L 119.726428 55.911908 
L 119.728493 55.913923 
L 121.971795 55.894986 
L 125.958942 55.863358 
L 129.04906 55.863458 
L 138.981043 55.830923 
L 138.993483 55.823923 
L 142.236757 55.82221 
L 148.342556 55.82901 
L 149.643401 55.817627 
L 151.966731 55.820145 
L 152.955069 56.051768 
L 153.389622 56.045294 
L 153.428287 56.044717 
L 156.169284 55.999894 
L 156.173792 55.999859 
L 161.072295 55.96202 
L 164.456633 55.956084 
L 165.92449 55.953509 
L 165.935318 55.954667 
L 167.906102 55.953055 
L 174.23748 55.912664 
L 174.795355 55.912233 
L 186.474462 55.903216 
L 186.475283 55.903216 
L 186.501758 55.903195 
L 188.30896 55.892065 
L 190.617936 55.836614 
L 190.851473 55.838982 
L 191.104551 55.841248 
L 209.698041 55.8 
L 209.721108 66.974529 
L 209.741884 77.039503 
L 209.743368 77.758393 
L 209.719445 87.218719 
L 209.702523 88.076867 
L 209.70422 91.850972 
L 209.704991 93.565307 
L 209.704988 93.569797 
L 209.696328 106.345461 
L 224.603796 106.401465 
L 226.401833 106.426647 
L 235.225914 106.426697 
L 237.195187 106.507279 
L 243.490857 106.497156 
L 249.786577 106.439641 
L 250.434305 106.472982 
L 256.082046 106.416423 
L 256.287026 106.388673 
L 259.971461 106.365826 
L 262.08611 106.352713 
L 262.377565 106.376031 
L 262.421381 106.377139 
L 263.645623 106.347828 
L 269.700907 106.362836 
L 269.751119 106.360469 
L 276.746292 106.333776 
L 276.823449 106.329999 
L 278.709873 106.323502 
L 285.39433 106.335407 
L 285.836092 106.336194 
L 287.560144 106.286636 
L 300.149016 106.191851 
L 301.093336 106.138969 
L 304.029694 106.199406 
L 310.254955 106.209478 
L 310.336595 115.001881 
L 310.304715 120.618396 
L 310.340726 123.234951 
L 310.34697 123.68862 
L 310.357294 125.419622 
L 310.255056 129.391962 
L 310.261049 129.414978 
L 310.223629 131.426406 
L 310.242969 131.671728 
L 310.211139 134.226378 
L 310.209995 145.393079 
L 310.209779 147.498183 
L 310.211239 147.505083 
L 310.217837 153.605795 
L 310.214815 153.639236 
L 310.227809 162.903396 
L 310.206392 173.706387 
L 310.19014 181.903962 
L 310.190137 181.905437 
L 310.220255 188.502936 
L 310.182633 200.619548 
L 310.136097 206.97092 
L 310.092985 209.847043 
L 310.095957 209.867742 
L 310.067552 211.740417 
L 310.060199 211.784234 
L 310.047809 213.266439 
L 309.886695 217.271767 
L 309.778262 221.077655 
L 309.742403 227.149508 
L 309.757059 232.152693 
L 309.752023 243.459254 
L 310.024692 244.998773 
L 310.673679 249.039507 
L 310.669923 249.626643 
L 310.620395 257.369117 
L 310.620445 257.481579 
L 310.605235 258.630276 
L 310.709135 262.005855 
L 310.679084 263.322909 
L 310.66955 263.740786 
L 310.675644 265.288816 
L 310.674082 265.602331 
L 310.688839 267.401374 
L 310.656757 269.925353 
L 310.680025 270.417911 
L 310.67378 271.779142 
L 310.67519 271.878258 
L 310.648145 274.15203 
L 310.65721 276.281007 
L 310.655095 276.589887 
L 310.671463 277.269345 
L 310.668492 280.96831 
L 310.665974 280.971987 
L 310.604429 282.51619 
L 310.588089 283.280306 
L 310.469807 288.811608 
L 310.458274 295.107076 
L 310.481189 295.13941 
L 310.486074 297.078767 
L 310.461346 297.532695 
L 310.46049 298.769226 
L 310.502745 302.053698 
L 310.500378 302.059036 
L 310.501889 302.184644 
L 310.501083 302.849092 
L 310.510853 303.344772 
L 310.50768 303.937453 
L 310.502241 304.034101 
L 310.49937 307.743794 
L 303.651261 307.734376 
L 300.999508 307.734628 
L 300.341305 307.730599 
L 299.511663 307.734779 
L 299.268758 307.735837 
L 299.173873 307.734628 
L 293.737509 307.741226 
L 293.577 307.740571 
L 287.829892 307.742736 
L 281.265985 307.782876 
L 268.674796 307.773005 
L 262.379126 307.8 
L 262.378872 307.799319 
L 262.369103 307.773106 
L 261.3164 307.768069 
L 238.732691 307.798539 
L 237.689255 307.518064 
L 237.196597 307.483111 
L 232.219551 307.524007 
L 230.905409 307.525618 
L 230.901128 307.510257 
L 224.60566 307.536648 
L 208.700486 307.577342 
L 205.314934 307.658428 
L 199.214122 307.643419 
L 198.033948 307.674242 
L 194.412234 307.644865 
L 191.626118 307.622266 
L 191.60839 307.623072 
L 191.260125 307.623239 
L 143.671117 307.646038 
L 143.104222 307.641002 
L 134.560674 307.663728 
L 134.470768 307.663968 
L 134.232749 307.660694 
L 133.5337 307.662809 
L 130.974567 307.659737 
L 119.908883 307.676304 
L 116.399102 307.681558 
L 113.010624 307.686631 
L 94.56826 307.691115 
L 86.397764 307.693102 
L 83.215594 307.693875 
L 62.675281 307.69887 
L 62.675281 307.696402 
L 58.409824 307.677717 
L 58.351956 303.243793 
L 58.348279 303.115769 
L 58.297664 302.461795 
L 58.346013 300.934212 
L 58.330299 300.28865 
L 58.355783 299.016562 
L 58.369281 295.919897 
L 58.340624 293.402012 
L 58.340624 293.368621 
L 58.349387 292.938867 
L 58.349387 292.913483 
L 58.342991 289.039957 
L 58.342991 289.026107 
L 58.35115 286.641434 
L 58.316752 285.968725 
L 58.308164 283.912713 
L 58.304009 282.917992 
L 58.304815 282.389223 
L 58.303153 281.646307 
L 58.304614 281.616341 
L 58.290865 277.842887 
" clip-path="url(#pc700c2fa94)" style="fill: #00f300"/>
   </g>
   <g id="PathCollection_1">
    <defs>
     <path id="m98ff1008a4" d="M 0 1.581139 
C 0.419323 1.581139 0.821528 1.41454 1.118034 1.118034 
C 1.41454 0.821528 1.581139 0.419323 1.581139 0 
C 1.581139 -0.419323 1.41454 -0.821528 1.118034 -1.118034 
C 0.821528 -1.41454 0.419323 -1.581139 0 -1.581139 
C -0.419323 -1.581139 -0.821528 -1.41454 -1.118034 -1.118034 
C -1.41454 -0.821528 -1.581139 -0.419323 -1.581139 0 
C -1.581139 0.419323 -1.41454 0.821528 -1.118034 1.118034 
C -0.821528 1.41454 -0.419323 1.581139 0 1.581139 
z
" style="stroke: #000000"/>
    </defs>
    <g clip-path="url(#pc700c2fa94)">
     <use xlink:href="#m98ff1008a4" x="167.314529" y="117.449761" style="stroke: #000000"/>
    </g>
   </g>
   <g id="text_1">
    <!-- Salt Lake City -->
    <g transform="translate(170.314529 114.449761) scale(0.1 -0.1)">
     <defs>
      <path id="DejaVuSans-53" d="M 3425 4513 
L 3425 3897 
Q 3066 4069 2747 4153 
Q 2428 4238 2131 4238 
Q 1616 4238 1336 4038 
Q 1056 3838 1056 3469 
Q 1056 3159 1242 3001 
Q 1428 2844 1947 2747 
L 2328 2669 
Q 3034 2534 3370 2195 
Q 3706 1856 3706 1288 
Q 3706 609 3251 259 
Q 2797 -91 1919 -91 
Q 1588 -91 1214 -16 
Q 841 59 441 206 
L 441 856 
Q 825 641 1194 531 
Q 1563 422 1919 422 
Q 2459 422 2753 634 
Q 3047 847 3047 1241 
Q 3047 1584 2836 1778 
Q 2625 1972 2144 2069 
L 1759 2144 
Q 1053 2284 737 2584 
Q 422 2884 422 3419 
Q 422 4038 858 4394 
Q 1294 4750 2059 4750 
Q 2388 4750 2728 4690 
Q 3069 4631 3425 4513 
z
" transform="scale(0.015625)"/>
      <path id="DejaVuSans-61" d="M 2194 1759 
Q 1497 1759 1228 1600 
Q 959 1441 959 1056 
Q 959 750 1161 570 
Q 1363 391 1709 391 
Q 2188 391 2477 730 
Q 2766 1069 2766 1631 
L 2766 1759 
L 2194 1759 
z
M 3341 1997 
L 3341 0 
L 2766 0 
L 2766 531 
Q 2569 213 2275 61 
Q 1981 -91 1556 -91 
Q 1019 -91 701 211 
Q 384 513 384 1019 
Q 384 1609 779 1909 
Q 1175 2209 1959 2209 
L 2766 2209 
L 2766 2266 
Q 2766 2663 2505 2880 
Q 2244 3097 1772 3097 
Q 1472 3097 1187 3025 
Q 903 2953 641 2809 
L 641 3341 
Q 956 3463 1253 3523 
Q 1550 3584 1831 3584 
Q 2591 3584 2966 3190 
Q 3341 2797 3341 1997 
z
" transform="scale(0.015625)"/>
      <path id="DejaVuSans-6c" d="M 603 4863 
L 1178 4863 
L 1178 0 
L 603 0 
L 603 4863 
z
" transform="scale(0.015625)"/>
      <path id="DejaVuSans-74" d="M 1172 4494 
L 1172 3500 
L 2356 3500 
L 2356 3053 
L 1172 3053 
L 1172 1153 
Q 1172 725 1289 603 
Q 1406 481 1766 481 
L 2356 481 
L 2356 0 
L 1766 0 
Q 1100 0 847 248 
Q 594 497 594 1153 
L 594 3053 
L 172 3053 
L 172 3500 
L 594 3500 
L 594 4494 
L 1172 4494 
z
" transform="scale(0.015625)"/>
      <path id="DejaVuSans-20" transform="scale(0.015625)"/>
      <path id="DejaVuSans-4c" d="M 628 4666 
L 1259 4666 
L 1259 531 
L 3531 531 
L 3531 0 
L 628 0 
L 628 4666 
z
" transform="scale(0.015625)"/>
      <path id="DejaVuSans-6b" d="M 581 4863 
L 1159 4863 
L 1159 1991 
L 2875 3500 
L 3609 3500 
L 1753 1863 
L 3688 0 
L 2938 0 
L 1159 1709 
L 1159 0 
L 581 0 
L 581 4863 
z
" transform="scale(0.015625)"/>
      <path id="DejaVuSans-65" d="M 3597 1894 
L 3597 1613 
L 953 1613 
Q 991 1019 1311 708 
Q 1631 397 2203 397 
Q 2534 397 2845 478 
Q 3156 559 3463 722 
L 3463 178 
Q 3153 47 2828 -22 
Q 2503 -91 2169 -91 
Q 1331 -91 842 396 
Q 353 884 353 1716 
Q 353 2575 817 3079 
Q 1281 3584 2069 3584 
Q 2775 3584 3186 3129 
Q 3597 2675 3597 1894 
z
M 3022 2063 
Q 3016 2534 2758 2815 
Q 2500 3097 2075 3097 
Q 1594 3097 1305 2825 
Q 1016 2553 972 2059 
L 3022 2063 
z
" transform="scale(0.015625)"/>
      <path id="DejaVuSans-43" d="M 4122 4306 
L 4122 3641 
Q 3803 3938 3442 4084 
Q 3081 4231 2675 4231 
Q 1875 4231 1450 3742 
Q 1025 3253 1025 2328 
Q 1025 1406 1450 917 
Q 1875 428 2675 428 
Q 3081 428 3442 575 
Q 3803 722 4122 1019 
L 4122 359 
Q 3791 134 3420 21 
Q 3050 -91 2638 -91 
Q 1578 -91 968 557 
Q 359 1206 359 2328 
Q 359 3453 968 4101 
Q 1578 4750 2638 4750 
Q 3056 4750 3426 4639 
Q 3797 4528 4122 4306 
z
" transform="scale(0.015625)"/>
      <path id="DejaVuSans-69" d="M 603 3500 
L 1178 3500 
L 1178 0 
L 603 0 
L 603 3500 
z
M 603 4863 
L 1178 4863 
L 1178 4134 
L 603 4134 
L 603 4863 
z
" transform="scale(0.015625)"/>
      <path id="DejaVuSans-79" d="M 2059 -325 
Q 1816 -950 1584 -1140 
Q 1353 -1331 966 -1331 
L 506 -1331 
L 506 -850 
L 844 -850 
Q 1081 -850 1212 -737 
Q 1344 -625 1503 -206 
L 1606 56 
L 191 3500 
L 800 3500 
L 1894 763 
L 2988 3500 
L 3597 3500 
L 2059 -325 
z
" transform="scale(0.015625)"/>
     </defs>
     <use xlink:href="#DejaVuSans-53"/>
     <use xlink:href="#DejaVuSans-61" x="63.476562"/>
     <use xlink:href="#DejaVuSans-6c" x="124.755859"/>
     <use xlink:href="#DejaVuSans-74" x="152.539062"/>
     <use xlink:href="#DejaVuSans-20" x="191.748047"/>
     <use xlink:href="#DejaVuSans-4c" x="223.535156"/>
     <use xlink:href="#DejaVuSans-61" x="279.248047"/>
     <use xlink:href="#DejaVuSans-6b" x="340.527344"/>
     <use xlink:href="#DejaVuSans-65" x="394.8125"/>
     <use xlink:href="#DejaVuSans-20" x="456.335938"/>
     <use xlink:href="#DejaVuSans-43" x="488.123047"/>
     <use xlink:href="#DejaVuSans-69" x="557.947266"/>
     <use xlink:href="#DejaVuSans-74" x="585.730469"/>
     <use xlink:href="#DejaVuSans-79" x="624.939453"/>
    </g>
   </g>
   <g id="text_2">
    <!-- Utah -->
    <g transform="translate(170.277187 37.2) scale(0.12 -0.12)">
     <defs>
      <path id="DejaVuSans-55" d="M 556 4666 
L 1191 4666 
L 1191 1831 
Q 1191 1081 1462 751 
Q 1734 422 2344 422 
Q 2950 422 3222 751 
Q 3494 1081 3494 1831 
L 3494 4666 
L 4128 4666 
L 4128 1753 
Q 4128 841 3676 375 
Q 3225 -91 2344 -91 
Q 1459 -91 1007 375 
Q 556 841 556 1753 
L 556 4666 
z
" transform="scale(0.015625)"/>
      <path id="DejaVuSans-68" d="M 3513 2113 
L 3513 0 
L 2938 0 
L 2938 2094 
Q 2938 2591 2744 2837 
Q 2550 3084 2163 3084 
Q 1697 3084 1428 2787 
Q 1159 2491 1159 1978 
L 1159 0 
L 581 0 
L 581 4863 
L 1159 4863 
L 1159 2956 
Q 1366 3272 1645 3428 
Q 1925 3584 2291 3584 
Q 2894 3584 3203 3211 
Q 3513 2838 3513 2113 
z
" transform="scale(0.015625)"/>
     </defs>
     <use xlink:href="#DejaVuSans-55"/>
     <use xlink:href="#DejaVuSans-74" x="73.193359"/>
     <use xlink:href="#DejaVuSans-61" x="112.402344"/>
     <use xlink:href="#DejaVuSans-68" x="173.681641"/>
    </g>
   </g>
  </g>
 </g>
 <defs>
  <clipPath id="pc700c2fa94">
   <rect x="45.669951" y="43.2" width="277.660098" height="277.2"/>
  </clipPath>
 </defs>
</svg>
