<?xml version="1.0" encoding="utf-8" standalone="no"?>
<!DOCTYPE svg PUBLIC "-//W3C//DTD SVG 1.1//EN"
  "http://www.w3.org/Graphics/SVG/1.1/DTD/svg11.dtd">
<svg xmlns:xlink="http://www.w3.org/1999/xlink" width="460.8pt" height="345.6pt" viewBox="0 0 460.8 345.6" xmlns="http://www.w3.org/2000/svg" version="1.1">
 <metadata>
  <rdf:RDF xmlns:dc="http://purl.org/dc/elements/1.1/" xmlns:cc="http://creativecommons.org/ns#" xmlns:rdf="http://www.w3.org/1999/02/22-rdf-syntax-ns#">
   <cc:Work>
    <dc:type rdf:resource="http://purl.org/dc/dcmitype/StillImage"/>
    <dc:date>2023-06-19T14:47:48.367385</dc:date>
    <dc:format>image/svg+xml</dc:format>
    <dc:creator>
     <cc:Agent>
      <dc:title>Matplotlib v3.7.1, https://matplotlib.org/</dc:title>
     </cc:Agent>
    </dc:creator>
   </cc:Work>
  </rdf:RDF>
 </metadata>
 <defs>
  <style type="text/css">*{stroke-linejoin: round; stroke-linecap: butt}</style>
 </defs>
 <g id="figure_1">
  <g id="patch_1">
   <path d="M 0 345.6 
L 460.8 345.6 
L 460.8 0 
L 0 0 
z
" style="fill: #ffffff"/>
  </g>
  <g id="axes_1">
   <g id="PatchCollection_1">
    <path d="M 369.336735 182.109541 
L 369.444492 182.00098 
L 369.610151 182.07578 
L 369.784856 182.457063 
L 370.012766 182.644285 
L 370.339656 182.714444 
L 370.41288 182.953307 
L 370.197443 183.202822 
L 370.010457 184.160182 
L 369.812459 184.224137 
L 369.389016 183.847495 
L 369.280605 182.75695 
L 369.336735 182.109541 
" clip-path="url(#pf54afec6a6)" style="fill: #c733ff"/>
    <path d="M 368.412543 210.40905 
L 368.726575 209.827501 
L 368.41982 209.427213 
L 368.605767 208.022417 
L 368.774929 207.332404 
L 369.409112 206.365223 
L 369.819351 205.54398 
L 370.094691 203.782183 
L 369.973999 203.235273 
L 370.031015 202.3405 
L 370.228627 201.814696 
L 370.82974 200.706416 
L 370.728913 200.325817 
L 370.735458 200.011517 
L 370.903311 199.115082 
L 371.249488 198.052776 
L 371.621228 197.431995 
L 371.723379 196.695696 
L 371.737455 196.594237 
L 371.589082 196.266551 
L 371.587966 196.002574 
L 372.22034 194.225339 
L 372.80436 193.128197 
L 374.056596 191.273083 
L 374.386835 190.902598 
L 374.34672 190.603004 
L 374.391686 189.955497 
L 374.741751 189.19811 
L 375.268525 188.959589 
L 375.572431 188.715693 
L 375.838531 188.104927 
L 375.81293 187.801815 
L 375.94829 187.494209 
L 376.068097 187.31417 
L 376.555294 186.931568 
L 376.906168 186.298279 
L 376.556449 185.608168 
L 376.325459 184.869982 
L 377.277369 184.244852 
L 377.616155 184.130868 
L 378.154824 184.239527 
L 379.213914 184.139174 
L 379.491757 183.655241 
L 379.978992 183.481163 
L 380.23439 183.160072 
L 380.315352 182.618683 
L 380.522204 182.133872 
L 380.760894 182.03816 
L 381.264337 181.444152 
L 381.439273 180.88112 
L 381.351074 180.246023 
L 380.502493 179.548242 
L 380.084246 179.484532 
L 379.929675 179.569641 
L 379.84521 179.710595 
L 378.830817 179.744502 
L 378.609528 179.695156 
L 378.569528 179.611219 
L 378.651953 179.387501 
L 380.408595 177.815759 
L 380.706842 178.161279 
L 381.106301 178.095223 
L 382.034574 177.108207 
L 382.210011 177.160533 
L 382.579287 177.358894 
L 382.890161 177.281015 
L 382.866177 176.31618 
L 383.001075 176.169412 
L 383.112797 175.867083 
L 383.251468 175.699502 
L 383.281451 175.662223 
L 383.414778 175.496451 
L 383.470485 175.343039 
L 383.534508 175.288074 
L 383.69674 175.235601 
L 383.757221 175.153277 
L 383.781668 174.976511 
L 383.785749 174.975876 
L 386.137306 174.712779 
L 390.548525 174.237103 
L 393.27644 173.950703 
L 393.380234 173.939806 
L 396.913229 173.531456 
L 397.787494 173.433581 
L 398.027833 173.406674 
L 398.487273 173.372377 
L 396.392885 176.693945 
L 395.528058 178.480122 
L 394.785501 179.823602 
L 394.252799 180.808371 
L 393.778615 181.378243 
L 393.449685 181.720783 
L 393.167992 181.938344 
L 392.959408 181.903069 
L 392.843913 181.720099 
L 392.755752 181.328946 
L 392.52199 181.070882 
L 391.447269 181.04015 
L 390.921112 181.076842 
L 390.394455 181.361437 
L 389.806585 181.956617 
L 388.985838 182.878605 
L 387.768866 184.626233 
L 386.574763 186.998991 
L 386.14924 187.568326 
L 385.928067 188.178164 
L 385.632284 189.377906 
L 385.353171 189.685756 
L 385.032711 191.149132 
L 384.575427 192.866469 
L 384.163649 193.781665 
L 384.209385 194.922582 
L 384.22771 195.345883 
L 384.703511 195.511558 
L 384.63945 195.842909 
L 384.114024 196.597657 
L 383.087735 198.285533 
L 381.917269 199.918151 
L 381.400274 200.166933 
L 381.487204 200.918066 
L 381.776935 200.895076 
L 382.24208 200.858167 
L 382.475418 201.475773 
L 382.183678 202.091669 
L 381.737674 202.609411 
L 380.953385 203.748325 
L 380.07466 205.320164 
L 379.820725 205.944708 
L 379.886211 206.039003 
L 379.845518 206.443981 
L 379.49372 207.162234 
L 378.355246 208.619649 
L 377.838752 209.031028 
L 377.763719 209.028781 
L 377.614807 208.84537 
L 377.334578 208.864278 
L 377.082991 209.07456 
L 377.204877 209.999137 
L 377.20942 211.477854 
L 376.904012 212.004732 
L 376.898314 212.439367 
L 376.642108 212.984909 
L 376.257817 213.169883 
L 376.422513 213.669303 
L 376.35387 214.099443 
L 375.832333 214.580493 
L 375.687656 215.08519 
L 374.853243 215.80652 
L 374.033074 216.925012 
L 373.698176 217.390085 
L 373.277428 217.783289 
L 372.914157 217.971097 
L 372.56567 218.069984 
L 372.730366 217.54682 
L 372.103574 217.185715 
L 371.535723 217.436158 
L 371.407408 217.66227 
L 371.051298 217.699597 
L 371.133646 218.38487 
L 371.501922 218.632284 
L 371.541113 219.172304 
L 371.046717 219.4547 
L 370.406297 219.37902 
L 370.095076 219.047083 
L 370.108627 218.642642 
L 370.461965 217.755392 
L 370.478366 217.254457 
L 370.167337 215.863146 
L 369.375657 214.328975 
L 369.08896 214.032362 
L 368.820357 213.516624 
L 368.793138 212.837653 
L 368.917988 212.235925 
L 368.783591 212.05017 
L 368.33212 210.974037 
L 368.412543 210.40905 
" clip-path="url(#pf54afec6a6)" style="fill: #c733ff"/>
    <path d="M 367.718533 176.940333 
L 367.729659 176.94004 
L 368.163921 176.957189 
L 368.189291 176.951326 
L 368.464107 176.946285 
L 368.487615 176.945854 
L 368.517721 176.946245 
L 369.096898 176.956851 
L 369.558216 176.965299 
L 369.203069 177.233624 
L 368.646306 177.860757 
L 368.072718 178.84538 
L 367.94525 178.161376 
L 367.53224 176.96056 
L 367.718533 176.940333 
" clip-path="url(#pf54afec6a6)" style="fill: #c733ff"/>
    <path d="M 73.863487 242.942638 
L 73.921235 242.864466 
L 74.209973 242.810723 
L 74.286969 242.761866 
L 74.51411 242.517579 
L 74.829835 242.278129 
L 74.875994 241.984985 
L 74.995378 241.911699 
L 75.203269 241.882384 
L 75.388061 241.975213 
L 75.622901 241.916584 
L 75.773045 241.862841 
L 75.969386 241.726041 
L 76.104131 241.559925 
L 76.177278 241.432896 
L 76.431367 241.281438 
L 76.519913 241.247238 
L 76.569961 241.252124 
L 76.620009 241.29121 
L 76.708555 241.28139 
L 77.332267 241.071303 
L 77.609455 241.05176 
L 77.898193 240.861216 
L 78.056036 240.729301 
L 78.175381 240.587615 
L 78.502617 240.465471 
L 78.764406 240.431271 
L 78.976147 240.328671 
L 79.311083 240.069727 
L 79.314933 240.001326 
L 79.357281 239.918269 
L 79.445827 239.85964 
L 79.542073 239.869363 
L 79.969443 239.791191 
L 80.134986 239.717905 
L 80.319779 239.737448 
L 80.53152 239.717905 
L 80.589267 239.664162 
L 80.662414 239.649504 
L 80.820257 239.669047 
L 81.012788 239.786305 
L 81.255327 239.859591 
L 81.87619 239.932144 
L 82.086695 239.923436 
L 82.094669 239.923106 
L 82.202426 239.879134 
L 82.32947 239.927991 
L 82.583598 239.903563 
L 82.864636 239.825391 
L 83.030179 239.859591 
L 83.214971 239.844934 
L 83.522996 239.800962 
L 83.68469 239.74717 
L 83.981127 239.634798 
L 84.597139 239.341654 
L 84.631788 239.302568 
L 84.6048 239.234119 
L 84.616388 239.209739 
L 84.847379 238.941024 
L 84.970843 238.862705 
L 85.686681 238.564822 
L 85.821426 238.471993 
L 85.894573 238.462221 
L 85.96772 238.52085 
L 86.006218 238.52085 
L 86.114013 238.467107 
L 86.183272 238.395433 
L 86.221501 238.368757 
L 86.329604 238.335192 
L 86.371952 238.286335 
L 86.63763 238.144648 
L 87.680974 237.807484 
L 87.784919 237.763512 
L 87.846517 237.704883 
L 88.01206 237.65114 
L 88.755117 237.533882 
L 88.789765 237.524111 
L 88.835963 237.465482 
L 89.228685 237.328681 
L 89.34418 237.338453 
L 89.467375 237.304253 
L 89.686815 237.182109 
L 89.998691 237.143023 
L 90.352876 236.972023 
L 90.653201 236.884079 
L 90.734048 236.893851 
L 91.365421 236.678878 
L 92.146976 236.375963 
L 92.343357 236.278248 
L 93.071014 236.273362 
L 93.390551 236.292905 
L 93.617691 236.258705 
L 93.802483 236.146333 
L 94.210604 236.165827 
L 94.584038 236.102313 
L 94.664923 235.931312 
L 94.791968 235.774968 
L 94.913661 235.724156 
L 94.896761 235.453389 
L 94.875933 235.380396 
L 94.956548 235.227179 
L 94.9947 235.213695 
L 94.997511 235.207294 
L 94.734875 235.061162 
L 94.742228 235.001947 
L 94.782305 234.928905 
L 94.872815 234.792935 
L 94.888214 234.514448 
L 94.765019 234.226189 
L 94.876664 234.035646 
L 95.086596 233.973792 
L 95.248174 233.83323 
L 95.41953 233.512872 
L 95.569673 233.302785 
L 95.676083 233.215184 
L 95.866149 232.994935 
L 96.043242 232.623619 
L 96.027842 232.19856 
L 95.993194 232.105731 
L 95.920047 232.017787 
L 95.904648 231.944501 
L 95.916197 231.90053 
L 96.027842 231.768615 
L 96.320468 231.641586 
L 96.409015 231.563414 
L 96.486011 231.455927 
L 96.767088 231.33867 
L 96.940331 231.324013 
L 96.994228 231.128583 
L 96.924931 230.850096 
L 97.040426 230.654667 
L 97.167471 230.703524 
L 97.286854 230.786581 
L 97.371551 230.796353 
L 97.506295 230.693752 
L 97.814282 230.781696 
L 98.002924 230.791467 
L 98.130007 230.732838 
L 98.210854 230.664438 
L 98.799917 230.610695 
L 98.838415 230.620466 
L 98.896163 230.796353 
L 98.992409 230.87941 
L 99.350444 231.011325 
L 99.479991 231.011032 
L 99.600722 230.982011 
L 99.689268 230.791467 
L 99.897544 230.554949 
L 100.269785 230.432463 
L 100.634749 230.405299 
L 100.859272 230.434418 
L 100.915518 230.499398 
L 100.980233 230.503355 
L 101.338191 230.266397 
L 101.695071 230.089729 
L 102.23836 230.034862 
L 102.822111 229.70996 
L 103.229654 229.694424 
L 103.234813 229.694179 
L 103.287748 229.703609 
L 103.385573 229.671803 
L 103.404745 229.626023 
L 103.376718 229.54834 
L 103.377604 229.474272 
L 103.441357 229.425855 
L 103.860219 229.308353 
L 104.068765 229.2037 
L 104.161199 229.076525 
L 104.276733 228.998988 
L 104.474383 228.969283 
L 104.509917 228.944854 
L 104.537136 228.834534 
L 104.523809 228.787997 
L 104.507223 228.730077 
L 104.591957 228.619806 
L 104.716115 228.569727 
L 104.837192 228.351237 
L 104.741216 228.271062 
L 104.552112 228.0471 
L 104.600543 227.93678 
L 104.694402 227.835108 
L 104.757577 227.77858 
L 104.950839 227.558282 
L 105.02491 227.413762 
L 105.091281 227.346094 
L 105.149991 227.251897 
L 105.223562 227.202795 
L 105.277344 227.078502 
L 105.303138 226.993295 
L 105.284043 226.837538 
L 105.271608 226.820535 
L 105.20412 226.606833 
L 105.159962 226.515128 
L 105.175439 226.244849 
L 105.200424 226.196382 
L 105.225987 226.038378 
L 105.374976 225.872409 
L 105.390144 225.807087 
L 105.284735 225.795947 
L 105.204235 225.699259 
L 105.114457 225.613758 
L 105.062677 225.603107 
L 105.016748 225.598173 
L 104.941523 225.349098 
L 104.830955 225.235944 
L 104.829261 225.21176 
L 104.86048 224.91438 
L 104.871263 224.811667 
L 104.89929 224.699344 
L 104.934708 224.648679 
L 104.967278 224.622589 
L 104.993072 224.61184 
L 105.035805 224.575783 
L 105.112147 224.528636 
L 105.203196 224.612182 
L 105.304254 224.611645 
L 105.34922 224.57163 
L 105.362733 224.419147 
L 105.466217 224.274431 
L 105.509142 224.284935 
L 105.555995 224.307703 
L 105.63176 224.35744 
L 105.802192 224.34117 
L 105.946561 224.192351 
L 105.992797 224.179892 
L 106.050622 224.184094 
L 106.148446 224.095662 
L 106.231795 223.942445 
L 106.348869 223.870527 
L 106.413431 223.670407 
L 106.357107 223.504097 
L 106.381246 223.376579 
L 106.43395 223.271438 
L 106.563613 223.243492 
L 106.661398 223.348584 
L 106.695508 223.336272 
L 106.7757 223.246765 
L 106.841494 223.249257 
L 106.928423 223.198689 
L 107.011926 223.290346 
L 107.514253 223.162144 
L 107.631442 223.078598 
L 107.68149 223.134882 
L 107.700431 223.222825 
L 107.733963 223.262057 
L 107.787206 223.281991 
L 107.885415 223.219991 
L 107.901893 223.195416 
L 107.954636 223.159652 
L 107.962143 223.151591 
L 108.222122 223.147585 
L 108.366799 222.938524 
L 108.40599 222.803775 
L 108.620542 222.782425 
L 108.801946 222.527438 
L 108.827932 222.421369 
L 109.106391 222.214848 
L 109.303657 222.251296 
L 109.388315 222.298346 
L 109.432087 222.372462 
L 109.537342 222.318377 
L 109.630469 222.092412 
L 109.702769 221.527718 
L 109.750122 221.450377 
L 110.090871 221.374892 
L 110.163287 221.427561 
L 110.372833 221.493469 
L 110.418409 221.469077 
L 110.433083 221.461223 
L 110.519397 221.346751 
L 110.488328 221.223874 
L 110.494142 220.988382 
L 110.527789 220.71908 
L 110.464267 220.494629 
L 110.371563 220.283174 
L 110.344229 219.98275 
L 110.470311 219.860314 
L 110.550041 219.876681 
L 110.677971 219.851471 
L 110.740069 219.777501 
L 110.722206 219.663956 
L 110.684516 219.608503 
L 110.591581 219.552122 
L 110.497529 219.397781 
L 110.423844 219.06003 
L 110.446789 219.00702 
L 110.530677 218.942577 
L 110.552313 218.602188 
L 110.539839 218.38658 
L 110.372256 218.085472 
L 110.366289 217.932402 
L 110.375836 217.888577 
L 110.533833 217.679174 
L 110.678703 217.576623 
L 110.755699 217.585124 
L 111.08155 217.419253 
L 111.551345 217.124838 
L 111.977368 216.913726 
L 112.17652 216.926429 
L 112.279041 216.956232 
L 112.48058 216.786257 
L 112.627374 216.615012 
L 112.830184 216.521401 
L 113.021944 216.464775 
L 113.126198 216.192298 
L 113.183637 216.157462 
L 113.246082 216.128441 
L 113.944942 216.013333 
L 114.276606 215.589837 
L 114.563611 215.335926 
L 114.915217 215.095645 
L 115.332654 214.898212 
L 115.512865 214.736837 
L 115.494925 214.655294 
L 115.524992 214.616843 
L 115.745703 214.481215 
L 116.043296 214.34075 
L 116.567366 213.969716 
L 116.569145 213.968457 
L 116.844447 213.798042 
L 117.010516 213.641056 
L 117.011645 213.639989 
L 117.144965 213.560986 
L 117.860457 213.187765 
L 117.977531 213.107394 
L 118.142381 213.048033 
L 118.448948 212.868779 
L 118.763051 212.68512 
L 118.78026 212.668411 
L 119.12817 212.457494 
L 119.22634 212.432185 
L 119.572479 212.284832 
L 119.606281 212.254247 
L 120.113073 212.040984 
L 120.505834 211.907946 
L 120.739018 211.908141 
L 120.932203 211.699471 
L 121.041307 211.633563 
L 121.558571 211.507364 
L 121.739745 211.493586 
L 122.237798 211.270895 
L 123.485992 210.865378 
L 123.577541 210.839826 
L 123.835095 210.852236 
L 124.299385 210.631645 
L 124.653262 210.592314 
L 124.822463 210.501586 
L 125.164328 210.158021 
L 125.172759 209.826915 
L 125.361671 209.883052 
L 125.568484 209.762179 
L 125.836086 209.714836 
L 126.054064 209.5026 
L 126.114198 209.333993 
L 126.12621 209.204032 
L 126.166825 209.143254 
L 126.232874 209.077508 
L 126.421415 208.88983 
L 127.095406 208.324257 
L 128.541251 207.048933 
L 130.53023 205.275606 
L 130.566534 205.223475 
L 133.526712 202.674879 
L 135.915343 200.542792 
L 136.374282 200.07298 
L 139.5539 197.274869 
L 139.516095 197.444551 
L 139.581388 197.518326 
L 139.897883 197.400824 
L 139.974225 197.401899 
L 139.990856 197.447776 
L 139.972031 197.499222 
L 139.962137 197.663627 
L 140.00306 197.729634 
L 140.122636 197.750838 
L 140.411451 197.57075 
L 140.48891 197.608761 
L 140.490026 197.641202 
L 140.352818 197.776537 
L 140.348391 197.896237 
L 140.370527 197.953254 
L 140.501114 198.085218 
L 140.909389 198.194854 
L 141.167212 198.427464 
L 141.15393 198.48448 
L 141.11456 198.525104 
L 141.110273 198.529527 
L 140.940534 198.537197 
L 140.598977 198.658266 
L 140.526061 198.700967 
L 140.482057 198.780751 
L 140.492683 198.978477 
L 140.413953 199.028702 
L 140.289565 199.005495 
L 140.187814 199.021423 
L 140.13715 199.057382 
L 140.101347 199.130277 
L 140.090298 199.312906 
L 140.097882 199.351112 
L 140.153012 199.40681 
L 140.15509 199.499052 
L 140.132646 199.524019 
L 139.980616 199.536673 
L 139.681368 199.43974 
L 139.460233 199.614844 
L 139.196019 199.873837 
L 139.135346 199.873788 
L 139.090765 199.832602 
L 138.883797 199.821169 
L 138.724183 199.860353 
L 138.606109 199.95367 
L 138.465128 200.259713 
L 138.500893 200.595461 
L 138.630979 201.031122 
L 138.833634 201.326123 
L 138.915058 201.353629 
L 139.102853 201.212187 
L 139.250571 201.21336 
L 139.534728 201.491358 
L 139.513669 201.548619 
L 139.658423 201.715027 
L 139.924447 201.659965 
L 140.282674 201.775171 
L 140.421345 202.042567 
L 140.533337 202.056492 
L 140.598053 202.029327 
L 140.687831 202.030402 
L 140.811873 202.131341 
L 140.823615 202.229398 
L 140.726522 202.438459 
L 140.621999 202.58762 
L 140.760708 203.034079 
L 140.933258 203.263855 
L 141.279243 203.45137 
L 141.239782 203.635366 
L 141.191351 203.671472 
L 141.130754 203.672938 
L 141.026655 203.748813 
L 140.998012 203.92641 
L 141.094489 204.10215 
L 141.075317 204.308035 
L 140.889639 204.534147 
L 140.768639 204.948799 
L 140.802209 205.055113 
L 140.878898 205.092147 
L 140.921901 205.266421 
L 140.878321 205.338828 
L 141.020803 205.6329 
L 141.031544 205.639691 
L 141.155432 205.735989 
L 141.086135 205.9301 
L 141.15959 206.013304 
L 141.196009 206.092746 
L 141.352775 206.136375 
L 141.385883 206.185575 
L 141.402514 206.283974 
L 141.541147 206.482139 
L 141.723129 206.482481 
L 141.740992 206.50691 
L 141.764553 206.512284 
L 141.879278 206.753933 
L 141.901338 206.786374 
L 141.938065 206.803914 
L 141.95435 206.803181 
L 142.037121 206.789745 
L 142.068036 206.824434 
L 142.202664 206.884919 
L 142.20405 206.925227 
L 142.337178 207.331231 
L 142.356889 207.328544 
L 142.38353 207.329033 
L 142.384646 207.359862 
L 142.422952 207.422204 
L 142.457485 207.420787 
L 142.655906 207.370855 
L 142.685549 207.391912 
L 142.757811 207.394844 
L 142.91908 207.371343 
L 142.968551 207.326004 
L 143.002737 207.341687 
L 143.016982 207.484155 
L 143.214478 207.668445 
L 143.235691 207.753994 
L 143.331244 207.88332 
L 143.437307 207.874965 
L 143.712878 208.125261 
L 143.725929 208.210762 
L 143.580251 208.295529 
L 143.51415 208.398618 
L 143.504371 208.429692 
L 143.522234 208.461205 
L 143.539905 208.482458 
L 143.644967 208.617109 
L 143.737633 208.66025 
L 143.875919 208.563659 
L 143.936438 208.572062 
L 143.967814 208.854995 
L 143.954994 208.872633 
L 143.936246 208.896133 
L 143.973859 209.148921 
L 143.951876 209.315574 
L 143.971433 209.493952 
L 144.110104 209.614825 
L 144.231066 209.643065 
L 144.3712 209.597285 
L 144.404193 209.598751 
L 144.540786 209.5603 
L 144.707483 209.605591 
L 144.746983 209.648634 
L 144.709216 209.719429 
L 144.70602 209.784067 
L 145.068098 209.892872 
L 145.277529 209.898979 
L 145.390059 209.876798 
L 145.524034 209.816899 
L 145.626555 209.724608 
L 145.67949 209.723484 
L 145.754639 209.71508 
L 145.825861 209.595526 
L 145.906977 209.581162 
L 146.279641 209.633831 
L 146.29812 209.697345 
L 146.277947 209.763303 
L 146.286186 209.788415 
L 146.415139 209.67979 
L 146.445223 209.654448 
L 146.682834 209.74415 
L 146.827588 209.871082 
L 146.82805 209.997525 
L 146.90624 210.071837 
L 147.005258 210.121965 
L 147.007684 210.123919 
L 147.271282 210.152794 
L 147.372995 210.109652 
L 147.425314 210.103838 
L 147.466122 210.095386 
L 147.505545 210.079654 
L 147.564524 210.10208 
L 147.664196 210.1632 
L 147.660385 210.264286 
L 147.661001 210.303861 
L 147.668046 210.358288 
L 147.765023 210.470171 
L 147.84587 210.524207 
L 147.876245 210.575312 
L 147.908314 210.596663 
L 148.048217 210.635846 
L 148.107774 210.67161 
L 148.131027 210.78237 
L 148.133337 210.938958 
L 148.227158 211.085432 
L 148.278977 211.10219 
L 148.305464 211.137954 
L 148.208024 211.453133 
L 148.211297 211.538291 
L 148.177764 211.620371 
L 148.188852 211.700986 
L 148.370807 211.88132 
L 148.399053 211.909314 
L 148.60013 211.916007 
L 148.797473 211.833145 
L 148.875355 211.798994 
L 148.995085 211.800411 
L 149.130098 211.932717 
L 149.257374 212.101958 
L 149.277316 212.373117 
L 149.923165 212.889539 
L 150.071037 213.115798 
L 150.394269 213.138516 
L 150.516425 213.219278 
L 150.498407 213.236573 
L 150.52705 213.502797 
L 150.599774 213.601245 
L 150.706645 213.658261 
L 150.721775 213.706337 
L 155.248605 213.453256 
L 155.336073 213.380849 
L 155.376034 213.402737 
L 155.392319 213.423355 
L 155.422079 213.416613 
L 155.519056 213.36629 
L 155.686601 213.107883 
L 155.842019 212.793583 
L 155.871816 212.764464 
L 156.309427 212.634846 
L 156.52548 212.517442 
L 156.784536 212.463845 
L 157.244322 212.187801 
L 157.300568 212.127413 
L 157.341568 211.860066 
L 157.335101 211.606154 
L 157.394696 211.448442 
L 157.422107 211.330305 
L 157.459758 211.209921 
L 157.625917 210.943843 
L 157.668227 210.949999 
L 157.668304 210.984639 
L 157.642433 211.015028 
L 157.657833 211.108297 
L 157.746648 211.219008 
L 157.879506 211.289021 
L 158.21552 211.306414 
L 158.346992 211.281155 
L 158.489936 211.085432 
L 159.041387 210.852285 
L 159.122503 210.72291 
L 159.127354 210.656757 
L 159.099981 210.577315 
L 159.165043 210.531438 
L 159.345832 210.505397 
L 159.543367 210.37915 
L 159.573511 210.330683 
L 160.167733 210.227008 
L 160.356529 210.309186 
L 160.790906 210.201749 
L 160.986093 209.85408 
L 161.063706 209.673552 
L 161.057854 209.633879 
L 161.078374 209.573589 
L 161.287497 209.059317 
L 161.237603 208.951977 
L 161.347901 208.811952 
L 161.502279 208.748193 
L 161.554945 208.673295 
L 161.534156 208.58242 
L 161.482375 208.511674 
L 161.488304 208.373457 
L 161.652346 208.091257 
L 161.889303 207.920647 
L 161.943393 207.892749 
L 161.978696 207.911755 
L 162.013191 207.972973 
L 162.043489 207.984503 
L 162.196251 208.021537 
L 162.304431 207.991783 
L 162.415845 207.983624 
L 162.486875 207.90638 
L 162.53673 207.714859 
L 162.67979 207.546106 
L 162.663197 207.454352 
L 162.61569 207.399583 
L 162.611263 207.338071 
L 162.660887 207.308952 
L 162.700849 207.20728 
L 162.729222 207.137756 
L 162.889337 207.051767 
L 164.508231 208.926131 
L 166.264503 210.438186 
L 168.165614 212.07494 
L 168.948286 211.67729 
L 169.973228 210.946091 
L 170.401407 210.706592 
L 170.711896 210.5844 
L 171.349429 210.399572 
L 172.496988 209.943635 
L 173.181335 209.741219 
L 173.597426 209.655181 
L 175.399957 209.369366 
L 175.987211 209.179213 
L 176.506169 209.084918 
L 176.809575 208.997219 
L 176.985243 208.915285 
L 177.61754 208.781709 
L 177.636135 208.864669 
L 177.51806 209.087361 
L 177.550823 209.212338 
L 177.596097 209.247613 
L 177.836981 209.311079 
L 178.119289 209.276195 
L 178.837669 209.094738 
L 179.213451 208.879473 
L 179.483594 208.752737 
L 179.640591 208.713113 
L 179.940146 208.591947 
L 180.66099 208.160194 
L 181.447588 207.48093 
L 181.875575 207.00848 
L 182.016671 206.913208 
L 182.62764 206.601204 
L 181.326511 204.792309 
L 182.115227 203.429384 
L 182.050011 203.31452 
L 182.02233 203.176938 
L 182.023331 203.033737 
L 182.100559 202.803277 
L 182.23834 202.56318 
L 182.238614 202.562703 
L 182.280294 202.62462 
L 182.284658 202.631103 
L 182.337132 202.685628 
L 182.484734 202.692957 
L 182.58125 202.733997 
L 182.748025 202.864348 
L 182.829295 202.856482 
L 182.927119 202.738443 
L 183.080881 202.753735 
L 183.128311 202.817396 
L 184.08334 203.640545 
L 184.193831 203.700933 
L 184.28665 203.806074 
L 184.256776 203.941458 
L 184.295466 204.101417 
L 184.514214 204.215548 
L 184.574964 204.212177 
L 184.904202 204.218968 
L 185.140159 204.271783 
L 185.173422 204.359433 
L 185.171189 204.464183 
L 185.213036 204.543967 
L 185.425894 204.782635 
L 185.430398 204.804719 
L 185.683217 205.357589 
L 186.075746 205.234517 
L 186.505542 204.982022 
L 186.628544 204.979042 
L 186.916781 204.860025 
L 187.165134 204.754347 
L 187.472852 204.580854 
L 187.785343 204.461349 
L 188.180952 204.270268 
L 188.700449 203.921866 
L 188.975058 203.781108 
L 189.729818 203.31281 
L 189.762888 203.312566 
L 190.048739 203.148161 
L 190.168007 203.053915 
L 190.46429 202.925273 
L 190.808697 202.665157 
L 190.785328 202.612147 
L 190.792065 202.572279 
L 190.907137 202.481648 
L 190.985096 202.437775 
L 191.216086 202.378999 
L 191.358569 202.380025 
L 191.379627 202.249967 
L 191.584246 202.080236 
L 192.223242 201.751426 
L 192.563067 201.494094 
L 192.60684 201.403415 
L 192.775616 201.239352 
L 193.528606 200.754638 
L 193.715515 200.598294 
L 194.077631 200.413223 
L 194.354819 200.357916 
L 194.549236 200.366124 
L 194.7932 200.274321 
L 194.834663 200.239242 
L 194.989542 200.22732 
L 195.176952 200.249941 
L 195.498105 200.168789 
L 195.564707 200.125795 
L 195.642397 200.017038 
L 196.351152 201.185853 
L 196.185647 201.819533 
L 196.278544 202.29389 
L 197.020254 202.88609 
L 197.12821 202.845488 
L 197.435304 202.729991 
L 197.724312 202.430837 
L 197.953223 202.344262 
L 198.274376 202.144581 
L 198.943054 201.570507 
L 199.822357 201.060143 
L 199.935388 200.962819 
L 200.603142 200.569371 
L 200.765875 200.51983 
L 201.01057 200.388501 
L 201.106932 200.264892 
L 201.348663 200.098679 
L 201.207451 199.860353 
L 202.0948 199.505208 
L 202.547194 199.427232 
L 202.737184 199.347497 
L 202.986499 199.176301 
L 203.210598 199.075508 
L 203.421376 198.980871 
L 203.40205 198.934603 
L 203.788728 198.717481 
L 204.458753 197.484028 
L 204.102297 197.338042 
L 203.420799 197.783817 
L 202.613873 197.350794 
L 202.722323 197.166211 
L 202.841861 197.115887 
L 202.962553 197.097957 
L 203.223764 196.965993 
L 203.303494 196.862464 
L 202.683247 195.979318 
L 203.977639 195.273085 
L 204.456636 194.945203 
L 204.922389 194.66828 
L 205.183485 194.559572 
L 205.362156 194.45575 
L 205.713993 194.132412 
L 206.080035 193.895747 
L 206.628829 193.255813 
L 206.730118 193.103085 
L 206.822591 192.87922 
L 206.117917 192.395288 
L 205.534937 192.166636 
L 205.533474 192.167564 
L 205.194226 192.033255 
L 205.193841 192.032327 
L 205.134592 192.011562 
L 205.132898 192.012295 
L 205.042273 191.987866 
L 205.033534 191.983127 
L 204.922004 191.845301 
L 204.923121 191.842711 
L 204.574749 191.447211 
L 204.078659 190.144917 
L 204.075618 190.132996 
L 203.929285 189.751567 
L 204.007437 189.650481 
L 204.276964 189.525846 
L 204.742794 188.966868 
L 204.858944 188.786682 
L 205.150915 188.432271 
L 205.392031 188.343057 
L 205.587063 188.084749 
L 205.619787 188.018205 
L 205.627602 187.892934 
L 205.308489 187.712553 
L 205.214091 187.477109 
L 205.420212 186.609989 
L 205.458748 186.595918 
L 205.643079 186.62064 
L 205.713608 186.559812 
L 205.689084 186.3551 
L 205.654744 186.274143 
L 205.824791 186.012707 
L 206.036994 185.957303 
L 206.39807 185.655462 
L 206.457858 185.524329 
L 206.571813 185.495796 
L 206.790137 185.524915 
L 206.951561 185.599081 
L 206.979857 185.634209 
L 206.995295 185.615204 
L 207.027634 185.564588 
L 207.018625 185.344338 
L 206.913756 185.280726 
L 206.856932 185.287126 
L 206.553834 184.869201 
L 206.495163 184.839056 
L 206.505211 184.725267 
L 206.587443 184.518795 
L 206.913948 183.986397 
L 206.978317 183.999979 
L 207.005651 183.984589 
L 207.208307 183.848863 
L 207.380895 183.684116 
L 207.405572 183.539938 
L 207.520605 183.280066 
L 207.64457 183.120449 
L 207.836407 182.912707 
L 208.154789 182.620442 
L 208.332343 182.59103 
L 208.423854 182.522239 
L 208.263547 182.177355 
L 208.282526 181.989938 
L 208.330534 181.888412 
L 208.526991 181.824653 
L 208.705469 181.529701 
L 208.707125 181.428176 
L 208.825546 181.185257 
L 209.085602 180.794105 
L 209.407834 180.466663 
L 209.595744 180.219053 
L 209.658689 180.265761 
L 209.704348 180.338217 
L 209.865387 180.427968 
L 210.250986 180.091633 
L 210.285288 180.033151 
L 210.307463 179.911154 
L 210.342458 179.865228 
L 210.570946 179.679131 
L 210.594007 179.674098 
L 210.686711 179.73815 
L 210.797047 179.690026 
L 210.807326 179.550245 
L 210.744728 179.480037 
L 210.750079 179.40206 
L 210.830271 179.27122 
L 211.217757 178.860525 
L 211.367439 178.654689 
L 211.612596 178.693726 
L 211.982527 178.135042 
L 212.218561 177.842924 
L 212.425759 177.642462 
L 212.461447 177.515824 
L 212.767316 177.27398 
L 212.878461 177.23504 
L 213.141905 177.046207 
L 213.161532 177.024638 
L 213.365042 176.800992 
L 213.466408 176.77026 
L 213.935087 176.260238 
L 214.399685 175.821157 
L 214.824053 175.462251 
L 214.846767 175.376946 
L 214.833831 175.306396 
L 214.860703 175.248255 
L 214.98794 175.140916 
L 215.233598 175.046279 
L 215.353829 174.896043 
L 215.478948 174.644232 
L 215.507283 174.531225 
L 215.487919 174.409961 
L 215.523183 174.309217 
L 215.710709 174.045729 
L 215.863624 173.999998 
L 215.913672 173.881373 
L 215.877099 173.809113 
L 215.883759 173.756786 
L 216.088917 173.344626 
L 216.160639 173.272024 
L 216.225894 173.262447 
L 216.282217 173.223508 
L 216.342582 173.102293 
L 216.401716 172.929045 
L 216.339656 172.799964 
L 216.335114 172.738403 
L 216.437673 172.527242 
L 216.554785 172.361957 
L 216.876054 171.580826 
L 216.866468 171.337516 
L 217.086833 170.764907 
L 217.119941 170.711799 
L 217.28918 170.577246 
L 217.549006 170.218145 
L 217.706464 170.064097 
L 217.828619 169.976154 
L 217.861381 169.921043 
L 217.874432 169.847806 
L 217.985192 169.738658 
L 218.115663 169.571371 
L 218.166288 169.457777 
L 218.037049 169.357815 
L 217.856992 169.33236 
L 217.715049 169.2815 
L 217.680362 169.239482 
L 217.453568 168.263996 
L 217.534261 168.129736 
L 217.880592 168.072329 
L 218.062304 167.86405 
L 218.073238 167.63613 
L 218.075702 167.612092 
L 218.19778 167.352708 
L 218.207828 167.341569 
L 218.289676 167.321586 
L 218.461494 167.130261 
L 218.606941 166.508111 
L 218.599972 166.480555 
L 218.561204 166.463944 
L 218.489906 166.465361 
L 218.451831 166.365692 
L 218.462764 166.256642 
L 218.534525 166.118229 
L 218.54003 165.996574 
L 218.370484 165.900814 
L 218.363939 165.880098 
L 218.52313 165.715791 
L 218.557278 165.684278 
L 218.550733 165.59184 
L 218.625189 165.487285 
L 218.75797 165.511616 
L 218.945495 165.458899 
L 219.240547 165.261222 
L 219.452673 164.927868 
L 219.474655 164.804308 
L 219.487976 164.756379 
L 219.503683 164.694134 
L 219.640198 164.561829 
L 219.703027 164.532856 
L 219.786915 164.537009 
L 219.985066 164.383206 
L 220.580328 163.751529 
L 220.836843 163.403176 
L 221.092395 163.293052 
L 221.24173 162.966977 
L 221.289391 162.91426 
L 221.375088 162.889245 
L 221.586329 162.904782 
L 221.67757 162.874686 
L 221.714259 162.825486 
L 221.719649 162.724938 
L 221.760457 162.598104 
L 221.84088 162.493843 
L 222.056432 162.454708 
L 222.220936 162.562732 
L 222.274333 162.564832 
L 222.369578 162.502442 
L 222.457508 162.401942 
L 222.424631 162.300465 
L 222.425054 162.231088 
L 222.483033 162.07919 
L 222.568307 161.970385 
L 222.785976 162.029404 
L 222.98074 161.917961 
L 223.095426 161.698933 
L 223.179926 161.676634 
L 223.409611 161.616022 
L 223.455386 161.564771 
L 223.509399 161.340271 
L 223.422816 160.955813 
L 223.205031 160.513116 
L 223.112635 160.423951 
L 222.922838 160.422974 
L 222.900971 160.19779 
L 222.874792 160.103007 
L 222.739432 159.952917 
L 222.640376 159.789587 
L 222.638874 159.707995 
L 222.694427 159.575005 
L 222.872213 159.355489 
L 223.044531 159.197827 
L 223.100662 159.099525 
L 223.162606 158.88851 
L 223.569842 158.527064 
L 223.827781 158.491349 
L 224.065778 158.299828 
L 224.188356 157.991343 
L 224.323216 157.55016 
L 224.290107 157.426942 
L 224.399096 157.274556 
L 224.661116 157.223158 
L 224.740654 157.232636 
L 225.181653 157.398947 
L 225.316012 157.392449 
L 225.54758 157.264101 
L 225.645404 157.096031 
L 225.749927 157.01483 
L 225.838127 156.995141 
L 225.879705 156.946479 
L 225.89418 156.917213 
L 225.886211 156.804841 
L 225.848252 156.575016 
L 225.814142 156.532559 
L 225.705654 156.507349 
L 225.659302 156.450723 
L 225.728714 156.109943 
L 225.865191 155.78167 
L 226.00752 155.662116 
L 226.211099 155.073629 
L 226.38284 154.903996 
L 226.534485 154.68321 
L 226.527748 154.560529 
L 226.624225 154.381418 
L 227.277119 153.613917 
L 227.26811 153.544296 
L 227.228803 153.489038 
L 227.200853 153.369777 
L 227.211594 153.217244 
L 227.282162 153.072968 
L 227.207706 152.888727 
L 227.304568 152.729648 
L 227.333711 152.683819 
L 227.327551 152.371425 
L 227.307648 152.281332 
L 227.22272 152.03558 
L 227.049478 151.775952 
L 226.920855 151.736328 
L 226.894175 151.536111 
L 226.91789 151.47841 
L 227.050363 151.346789 
L 227.103683 151.323875 
L 227.132788 151.19196 
L 227.054329 151.170316 
L 226.996696 151.017881 
L 226.973097 150.888458 
L 227.091133 150.546016 
L 227.1771 150.436478 
L 227.21452 150.422114 
L 227.328321 150.450696 
L 227.535096 150.199862 
L 227.587762 150.044153 
L 227.588994 149.862746 
L 227.635192 149.745488 
L 227.877732 149.75526 
L 228.016326 149.887175 
L 228.068144 149.732492 
L 228.068144 149.727997 
L 228.081773 149.677088 
L 228.127971 149.633116 
L 228.201118 149.589145 
L 228.285814 149.574487 
L 228.339712 149.506087 
L 228.305063 149.349743 
L 228.15877 149.076142 
L 228.043274 148.949113 
L 227.973977 148.919799 
L 227.92008 148.86117 
L 228.081773 148.592454 
L 228.15492 148.392139 
L 228.047086 148.143015 
L 228.062485 147.844985 
L 228.224178 147.288011 
L 228.320424 147.307554 
L 228.447469 147.214725 
L 228.393571 147.029067 
L 228.358923 146.975324 
L 228.443619 146.71638 
L 228.489817 146.696837 
L 228.569355 146.541275 
L 228.840152 145.793024 
L 231.81623 147.180476 
L 232.027971 147.209791 
L 232.443753 147.322162 
L 232.94042 147.664164 
L 233.105963 147.732564 
L 233.13471 147.756017 
L 233.159861 147.776536 
L 233.294605 148.006166 
L 233.302305 148.079452 
L 233.352353 148.172281 
L 233.752774 148.607063 
L 234.588227 150.375602 
L 235.478694 152.353935 
L 239.572456 153.818874 
L 241.806363 154.569714 
L 242.27585 154.422556 
L 242.365282 154.346827 
L 242.444049 154.264209 
L 242.594155 154.191021 
L 242.643586 154.135812 
L 242.724318 154.125894 
L 242.784298 154.145681 
L 242.832844 154.209489 
L 242.934557 154.26587 
L 243.043199 154.135665 
L 243.061332 153.968915 
L 243.038811 153.905303 
L 243.026568 153.838954 
L 242.953845 153.724872 
L 242.946415 153.63434 
L 242.942603 153.603755 
L 242.963277 153.582697 
L 243.25956 153.374614 
L 243.354459 153.323851 
L 243.533476 153.277632 
L 243.613822 153.109074 
L 243.688933 153.011848 
L 243.706873 152.971589 
L 243.776285 152.800784 
L 244.033146 152.416423 
L 244.085812 152.422823 
L 244.306215 152.546139 
L 244.487196 152.503438 
L 244.517494 152.362387 
L 244.51095 152.006852 
L 244.586599 151.737696 
L 244.804153 151.582819 
L 244.911487 151.532495 
L 245.14059 151.413772 
L 245.192945 151.355643 
L 245.321841 151.212529 
L 245.304709 151.005031 
L 245.394757 150.877807 
L 245.543168 150.788886 
L 245.721069 150.610459 
L 245.74282 150.546065 
L 245.743513 150.543525 
L 245.755255 150.48045 
L 245.825707 150.258246 
L 245.825284 150.243296 
L 245.860895 150.092131 
L 245.706901 149.901588 
L 245.903243 149.066175 
L 246.072636 148.904946 
L 246.245878 148.470115 
L 246.380661 148.191628 
L 246.553904 147.94739 
L 246.742546 147.747075 
L 246.86574 147.336673 
L 247.027434 147.063072 
L 247.095845 147.024279 
L 247.110051 147.013677 
L 247.246874 146.936043 
L 247.258424 146.8823 
L 247.219925 146.765042 
L 247.250724 146.642947 
L 247.35852 146.423089 
L 247.386878 146.387883 
L 247.535612 146.203231 
L 247.720443 145.753743 
L 247.735842 145.675571 
L 247.708893 145.646257 
L 247.701155 145.318912 
L 247.885986 145.060017 
L 247.839788 144.928102 
L 247.847564 144.830046 
L 248.005331 144.371128 
L 248.170219 144.125718 
L 248.179189 144.117021 
L 248.336416 143.696945 
L 248.451912 143.560145 
L 248.532758 143.521059 
L 248.55374 143.392173 
L 248.578302 143.306917 
L 248.610178 143.24267 
L 248.613027 143.22596 
L 248.686752 143.1302 
L 248.782997 142.778427 
L 248.833045 142.690483 
L 249.121822 142.455968 
L 249.198818 142.436474 
L 249.533754 142.460854 
L 249.733946 142.631855 
L 250.249862 142.470625 
L 250.257562 142.309445 
L 250.323009 141.991872 
L 250.446204 141.772014 
L 250.580948 141.151525 
L 250.53475 141.039153 
L 250.438504 140.975687 
L 250.334559 140.85843 
L 250.276195 140.531427 
L 250.265261 140.485453 
L 250.257562 140.379627 
L 250.496252 139.710281 
L 250.469303 139.510015 
L 250.5386 139.290157 
L 250.673344 139.040984 
L 250.76189 138.796697 
L 250.881235 138.576839 
L 250.985181 138.435153 
L 251.027529 138.313009 
L 251.035229 138.171372 
L 251.331705 137.834256 
L 251.481848 137.721884 
L 251.612743 137.550883 
L 251.624331 137.492254 
L 251.643541 137.243082 
L 251.68589 137.028109 
L 251.759037 136.959709 
L 251.843733 136.945052 
L 251.855282 136.881537 
L 251.839883 136.681222 
L 251.809084 136.622593 
L 251.735937 136.554193 
L 251.68589 136.436935 
L 251.712838 136.30502 
L 251.943829 136.060733 
L 252.036225 135.992333 
L 252.552141 136.046076 
L 252.702285 136.046076 
L 252.779282 135.992333 
L 252.940975 135.67476 
L 252.925575 135.479379 
L 252.887077 135.425636 
L 252.902476 135.156921 
L 253.075719 134.731862 
L 253.183553 134.629261 
L 253.368345 134.609718 
L 253.522339 134.516889 
L 253.576236 134.448489 
L 253.591636 134.409403 
L 253.583936 134.331231 
L 253.630134 134.145573 
L 253.737929 133.823114 
L 253.866437 133.649085 
L 253.87225 133.605699 
L 253.818776 133.388284 
L 253.898891 133.293452 
L 254.059583 133.159143 
L 258.861138 137.415157 
L 258.990916 137.217627 
L 259.076421 136.984773 
L 259.67303 135.852357 
L 260.173354 135.045184 
L 260.285924 134.904035 
L 260.478608 134.551187 
L 260.713255 134.093296 
L 260.946209 133.574821 
L 261.106863 133.182887 
L 261.213195 132.862432 
L 261.673944 131.961942 
L 261.851152 131.816005 
L 261.910131 131.694692 
L 261.988937 131.448109 
L 262.066165 131.347267 
L 262.328993 131.097557 
L 262.575575 131.027007 
L 263.103311 130.695412 
L 263.172877 130.564767 
L 263.27921 130.441403 
L 263.273743 130.350821 
L 263.433165 129.938123 
L 263.879592 129.388282 
L 264.368483 129.210001 
L 264.451639 129.214203 
L 264.51366 129.186892 
L 264.66646 129.047062 
L 264.720589 128.961024 
L 264.622649 129.426049 
L 264.604362 129.555374 
L 264.615488 129.615224 
L 264.617451 129.6398 
L 264.629155 129.731407 
L 264.573371 130.240306 
L 264.615334 130.432657 
L 264.660108 130.498419 
L 264.716662 130.511366 
L 264.755545 130.485276 
L 264.89206 130.297908 
L 265.211558 129.977111 
L 265.478852 129.958985 
L 265.707148 129.636868 
L 265.829726 129.510572 
L 266.085702 129.458783 
L 266.130399 129.484531 
L 266.506797 129.069878 
L 266.664063 128.806049 
L 266.69132 128.689817 
L 266.837729 128.488378 
L 266.954495 128.40664 
L 267.108758 128.094392 
L 267.212357 127.756739 
L 267.434223 127.392214 
L 267.7486 127.456657 
L 267.977743 127.069706 
L 267.978474 126.96007 
L 268.040303 126.832895 
L 268.090081 126.770357 
L 268.239493 126.68686 
L 268.440416 126.68559 
L 268.461167 126.749739 
L 268.458549 126.942726 
L 268.508828 127.101806 
L 268.676834 127.015426 
L 268.797257 127.00155 
L 268.90563 127.313798 
L 269.164108 127.564925 
L 269.173964 127.470777 
L 269.270402 127.323423 
L 269.381239 127.291861 
L 269.487264 127.207533 
L 269.662701 126.882094 
L 269.885067 126.548056 
L 269.921525 126.402363 
L 269.979889 126.296392 
L 270.364988 125.759694 
L 270.701887 125.395462 
L 270.790857 125.255241 
L 270.963368 125.096601 
L 271.063387 125.03553 
L 271.134762 124.952912 
L 270.868623 124.790314 
L 270.781617 124.640664 
L 270.640944 124.549203 
L 270.572455 124.568404 
L 270.543043 124.550425 
L 270.309589 124.272329 
L 270.767873 123.804373 
L 270.892954 123.660048 
L 270.988623 123.487533 
L 271.239979 123.193851 
L 271.319093 123.145824 
L 271.376305 123.071675 
L 271.529409 122.873249 
L 271.857454 122.585577 
L 272.055797 122.502421 
L 272.203208 122.363618 
L 272.43131 122.045703 
L 272.463418 121.924683 
L 272.443245 121.838889 
L 272.611714 121.688604 
L 272.764591 121.505291 
L 272.908883 121.370054 
L 273.232269 120.999617 
L 273.263991 120.901316 
L 273.682738 120.589606 
L 273.908223 120.46888 
L 273.950802 120.490621 
L 274.025643 120.584867 
L 274.109069 120.551937 
L 274.222562 120.458131 
L 274.250705 120.402385 
L 274.361118 120.321575 
L 274.622637 120.297488 
L 275.409544 119.379214 
L 275.473374 119.218962 
L 275.516223 118.91287 
L 275.876721 118.373729 
L 276.390713 118.095779 
L 276.442455 118.016484 
L 276.785167 117.654304 
L 276.659316 117.485649 
L 276.466593 117.396191 
L 275.914411 116.906249 
L 275.822708 116.688589 
L 275.992294 116.447283 
L 275.968694 116.391341 
L 275.739975 116.248384 
L 275.516069 116.227327 
L 275.439496 116.159366 
L 275.501016 116.075478 
L 275.690543 115.833585 
L 275.727617 115.783409 
L 275.780129 115.72136 
L 275.852968 115.643335 
L 276.004767 115.475363 
L 276.23876 115.208846 
L 276.712482 114.540868 
L 276.735774 114.207172 
L 276.765264 114.050438 
L 276.940239 113.920477 
L 276.935773 113.908019 
L 276.576545 113.495907 
L 276.364226 113.341078 
L 276.306902 113.356858 
L 276.212042 113.324857 
L 276.179781 113.255919 
L 276.380665 112.941571 
L 276.820355 112.376731 
L 276.857698 112.314047 
L 276.839912 112.2904 
L 276.978237 112.090378 
L 277.182701 112.00947 
L 277.359255 111.73665 
L 277.420506 111.596332 
L 277.418658 111.499301 
L 277.470785 111.428067 
L 277.900426 110.927377 
L 278.020695 110.802497 
L 278.188625 110.682504 
L 278.287027 110.332489 
L 278.407103 110.297068 
L 278.466083 110.310064 
L 278.508239 110.226371 
L 278.994819 109.267594 
L 279.027197 109.173983 
L 278.943501 109.091121 
L 278.952163 109.0578 
L 279.095531 108.896034 
L 279.140613 108.893298 
L 279.187042 108.952611 
L 279.264962 108.803596 
L 279.277513 108.740863 
L 279.218918 108.56483 
L 278.902539 108.50366 
L 278.380155 108.355134 
L 278.203062 108.281555 
L 278.366103 108.105766 
L 278.666197 107.679339 
L 279.113664 106.839431 
L 278.851875 106.641364 
L 278.874127 106.426831 
L 278.54639 106.087761 
L 278.470587 105.851487 
L 278.492377 105.680193 
L 278.597285 105.515641 
L 278.80483 105.286353 
L 278.915782 105.098936 
L 278.978766 104.943228 
L 278.931644 104.783904 
L 278.72818 104.49501 
L 278.93815 104.309792 
L 278.985387 104.210465 
L 279.004059 104.064039 
L 278.955089 103.964077 
L 278.969372 103.816528 
L 279.013222 103.67875 
L 279.039401 103.386339 
L 278.872587 103.253398 
L 278.96456 103.067398 
L 278.966535 103.068978 
L 281.240082 104.887677 
L 282.210049 105.592787 
L 283.519725 106.720903 
L 284.419239 107.509168 
L 285.113403 108.051974 
L 286.236631 109.058289 
L 286.901652 109.529616 
L 288.140298 110.569545 
L 289.18263 111.407036 
L 289.246477 111.458336 
L 291.049212 112.906794 
L 291.049261 112.906834 
L 291.062517 112.917484 
L 298.93694 119.365707 
L 298.942516 119.370273 
L 299.172543 118.996221 
L 299.170695 118.861912 
L 299.141437 118.729166 
L 299.145902 118.616599 
L 299.202149 118.389168 
L 299.316373 118.248996 
L 299.518105 117.77293 
L 299.591675 117.648832 
L 299.675216 117.599779 
L 299.79587 117.411483 
L 299.830211 117.323491 
L 299.856544 117.136709 
L 299.84511 117.069579 
L 300.105705 116.414548 
L 300.114521 116.345464 
L 300.085109 116.084859 
L 300.096196 116.031897 
L 300.234559 115.756293 
L 300.27171 115.569365 
L 300.45912 115.319313 
L 300.656347 114.887511 
L 300.747665 114.749342 
L 300.87086 114.63228 
L 301.12699 114.267267 
L 301.145269 114.196607 
L 301.286296 113.651468 
L 301.158789 113.650833 
L 301.14774 113.632903 
L 301.15571 113.364089 
L 301.170647 113.329156 
L 301.220271 113.307659 
L 301.258462 113.247076 
L 301.315247 113.262564 
L 301.456959 113.208576 
L 301.498383 112.984516 
L 301.519596 112.950805 
L 301.615226 112.736174 
L 301.627584 112.683262 
L 301.732069 112.420507 
L 301.75151 112.390411 
L 301.831895 112.285416 
L 301.833627 112.254587 
L 301.822193 112.139284 
L 301.846486 111.99066 
L 301.941153 111.701864 
L 302.055878 111.422546 
L 302.532796 110.572037 
L 302.71959 110.412909 
L 303.043323 110.27474 
L 303.108462 110.21616 
L 303.124901 110.136962 
L 303.265574 110.169843 
L 303.579567 110.124992 
L 303.974098 110.267949 
L 304.146455 110.27689 
L 304.372055 110.205362 
L 304.580639 110.02205 
L 304.757077 110.001951 
L 304.80624 109.996351 
L 304.979675 110.119325 
L 305.18029 110.347342 
L 305.762886 110.65143 
L 306.175396 110.775675 
L 306.336357 110.7981 
L 307.112561 111.045318 
L 307.499046 110.998122 
L 307.768843 111.08631 
L 308.005723 111.115282 
L 308.17912 111.082792 
L 308.554248 110.922882 
L 308.879559 110.868064 
L 309.012186 110.879252 
L 309.041636 110.903735 
L 309.142542 110.987618 
L 309.195823 111.084844 
L 309.159558 111.446975 
L 309.233244 111.854885 
L 309.531221 112.191219 
L 309.610528 112.35665 
L 309.811027 112.569033 
L 309.872163 112.660641 
L 309.911816 112.79368 
L 310.013721 112.890906 
L 310.249331 113.017251 
L 310.710349 113.177259 
L 310.768096 113.206329 
L 310.820146 113.26784 
L 311.251597 113.492682 
L 311.706687 113.570121 
L 312.083701 113.739119 
L 312.166434 113.810597 
L 312.314922 114.028452 
L 312.684276 114.378026 
L 313.107873 114.678499 
L 313.188335 114.786914 
L 313.205274 114.841634 
L 313.195149 114.98806 
L 313.157445 115.070463 
L 313.120462 115.151292 
L 312.726624 115.485574 
L 312.591995 115.653302 
L 312.502717 115.965158 
L 312.537982 116.311557 
L 312.447549 116.528435 
L 312.400042 116.593269 
L 312.116117 116.764416 
L 311.377295 116.941035 
L 311.166747 117.115261 
L 310.943649 117.486235 
L 310.759011 117.966698 
L 310.618492 118.582399 
L 310.525711 118.690813 
L 310.529476 118.767749 
L 310.547039 119.12667 
L 310.630542 119.590522 
L 310.768101 119.850534 
L 310.808789 119.927442 
L 310.986228 120.041475 
L 311.587149 120.268223 
L 311.770247 120.31278 
L 312.1227 120.495263 
L 312.296751 120.673348 
L 312.461101 120.933611 
L 312.638039 121.315041 
L 312.752418 121.614878 
L 312.763792 121.636319 
L 313.015207 122.110243 
L 313.060135 122.16384 
L 313.185178 122.233608 
L 313.392106 122.294924 
L 313.986021 122.385652 
L 314.533467 122.568037 
L 314.83183 122.589681 
L 315.249037 122.684415 
L 315.352191 122.677419 
L 315.456504 122.670344 
L 315.977156 122.806998 
L 316.191669 122.766886 
L 316.385277 122.84071 
L 316.67594 122.85097 
L 316.977267 122.806168 
L 317.338805 122.799865 
L 317.724712 122.757945 
L 317.908581 122.817551 
L 317.966367 122.855758 
L 317.97807 122.928116 
L 318.18692 123.011815 
L 318.343805 123.074688 
L 318.701878 123.284774 
L 318.863571 123.294546 
L 319.237005 123.416689 
L 319.541142 123.563262 
L 320.249474 124.169924 
L 320.584486 124.27653 
L 320.996457 124.369359 
L 321.262096 124.520817 
L 321.262865 124.52163 
L 321.354492 124.618532 
L 321.40839 124.853047 
L 321.319844 125.111991 
L 321.131202 125.278106 
L 320.981058 125.717823 
L 321.085003 126.045167 
L 321.231297 126.142882 
L 321.265946 126.211282 
L 321.208198 126.523969 
L 321.785674 126.992951 
L 321.883267 126.836999 
L 321.908945 126.816723 
L 321.970889 126.819605 
L 322.032371 126.890644 
L 322.164267 127.137618 
L 322.29774 127.237238 
L 322.682724 127.330067 
L 322.76742 127.28121 
L 322.986861 127.354496 
L 323.029209 127.403353 
L 323.221701 127.457096 
L 323.575886 127.422896 
L 323.779927 127.359382 
L 324.207298 127.422896 
L 324.357441 127.427782 
L 324.39979 127.393582 
L 324.461387 127.398468 
L 325.008718 127.504879 
L 325.120556 127.545431 
L 325.181306 127.584126 
L 325.523942 128.018956 
L 325.747232 128.404929 
L 325.912775 128.766474 
L 326.213228 129.042018 
L 326.214679 129.043349 
L 326.286248 129.137741 
L 326.336296 129.308742 
L 326.459491 129.489514 
L 326.732829 129.787544 
L 326.844474 130.09046 
L 326.929171 130.178403 
L 327.217908 130.432462 
L 327.352653 130.515519 
L 327.66064 130.627891 
L 327.808615 130.646514 
L 328.126508 130.68652 
L 328.199655 130.730492 
L 328.234304 130.759806 
L 328.380597 131.277694 
L 328.582521 131.695034 
L 328.700134 131.697819 
L 328.742482 131.74179 
L 328.857977 131.932334 
L 328.850277 132.030049 
L 328.934974 132.152192 
L 329.042769 132.122878 
L 329.069718 132.03982 
L 329.03122 131.946991 
L 329.077418 131.932334 
L 329.152294 131.986633 
L 329.158264 131.990963 
L 329.26221 132.127764 
L 329.319957 132.279221 
L 329.327657 132.391593 
L 329.312258 132.46488 
L 329.597426 133.121928 
L 329.604884 133.139111 
L 329.562536 133.569056 
L 329.219862 133.642342 
L 329.123616 133.642342 
L 329.112505 133.672306 
L 329.092817 133.7254 
L 329.096667 133.911058 
L 329.150565 133.984344 
L 329.185213 133.955029 
L 329.239111 133.959915 
L 329.316108 134.033201 
L 329.358494 134.209088 
L 329.319996 134.560812 
L 329.358494 134.844185 
L 329.447041 134.878385 
L 329.327696 135.567274 
L 329.323538 136.015198 
L 329.304597 136.04119 
L 329.281498 136.099819 
L 329.270928 136.322492 
L 329.242999 136.910852 
L 329.238386 137.143544 
L 329.217238 138.210335 
L 329.212201 138.464467 
L 329.246849 138.640354 
L 329.23145 139.294994 
L 329.196801 139.588138 
L 329.073606 139.793339 
L 328.777131 140.008311 
L 328.310415 140.02546 
L 328.058674 139.975772 
L 328.022255 139.929602 
L 327.987335 139.942919 
L 327.764624 140.027854 
L 327.501683 140.19333 
L 327.291055 140.325884 
L 327.013867 140.5604 
L 326.871423 140.575057 
L 326.748228 140.648343 
L 326.128366 141.185725 
L 325.724133 141.772014 
L 325.648603 142.448597 
L 325.593239 142.944542 
L 325.747232 143.218143 
L 325.735683 143.364715 
L 325.812718 143.667631 
L 324.761674 143.599231 
L 324.091764 144.195291 
L 323.048459 144.537292 
L 322.959912 144.507978 
L 322.929075 144.209948 
L 322.497893 143.53083 
L 322.265104 143.517458 
L 321.562345 143.477087 
L 321.327505 143.657859 
L 321.242808 143.980318 
L 321.389102 144.366291 
L 321.315994 145.836849 
L 320.645083 146.216618 
L 320.611435 146.340032 
L 320.783677 147.072355 
L 320.176442 147.962047 
L 320.187992 148.328478 
L 320.00593 148.790545 
L 319.910803 149.031975 
L 319.618216 149.49612 
L 319.245821 149.92328 
L 319.179466 150.038274 
L 318.877854 150.560967 
L 318.404786 151.8701 
L 318.296298 152.763262 
L 318.542841 154.280136 
L 318.863032 155.263831 
L 318.805977 155.591713 
L 318.704072 155.659087 
L 318.610136 155.952378 
L 319.426725 156.625584 
L 319.732094 157.129792 
L 319.724202 157.529982 
L 319.772447 157.651438 
L 319.806896 157.738164 
L 320.059792 158.108551 
L 320.611782 158.415327 
L 321.582826 158.491886 
L 323.147361 158.037904 
L 323.920908 157.987825 
L 324.561829 157.788536 
L 324.850605 157.541659 
L 325.503807 156.717435 
L 326.793772 156.632521 
L 327.180757 156.727305 
L 327.560159 156.69887 
L 328.132013 156.229937 
L 328.668065 155.335602 
L 328.844965 155.194746 
L 329.149525 155.12317 
L 329.867905 155.795301 
L 330.369885 156.393169 
L 330.173351 157.998476 
L 330.01878 158.60548 
L 329.64396 159.467812 
L 329.812544 159.9045 
L 330.914906 161.108248 
L 331.200372 161.309149 
L 331.542353 161.295518 
L 332.282368 162.161661 
L 332.44999 162.811611 
L 332.464581 163.145893 
L 332.273706 163.451154 
L 332.11286 163.478074 
L 332.082754 163.593231 
L 332.27617 164.233751 
L 333.245443 164.804943 
L 334.023572 164.933584 
L 334.258027 165.064424 
L 335.627029 166.279312 
L 337.031334 166.705886 
L 337.590368 166.697922 
L 338.410615 166.485441 
L 338.969726 166.426275 
L 339.838443 166.52861 
L 340.055534 166.554184 
L 340.461923 166.772429 
L 340.716821 167.022872 
L 340.824077 167.226314 
L 340.869248 167.496429 
L 340.875665 167.5348 
L 341.538453 167.968409 
L 342.218873 167.400247 
L 342.324782 167.084921 
L 342.956347 167.046861 
L 343.717268 167.479689 
L 344.551874 167.449788 
L 344.723769 167.292174 
L 345.089773 167.215273 
L 345.687922 167.433323 
L 346.065514 168.401481 
L 346.188478 169.314479 
L 347.013882 170.057795 
L 348.41299 170.932293 
L 348.691564 171.295743 
L 349.213794 172.612058 
L 349.322281 172.99197 
L 349.437354 173.394949 
L 350.382451 173.851472 
L 351.254631 174.031169 
L 351.410627 174.193278 
L 351.516459 174.762662 
L 352.866019 175.814757 
L 353.296738 176.31359 
L 354.253808 176.708651 
L 355.456035 177.021973 
L 356.085983 177.265479 
L 359.083081 179.022634 
L 360.210044 180.107561 
L 359.888698 181.439217 
L 359.646697 182.848557 
L 359.08081 183.61425 
L 358.729666 183.845639 
L 358.523084 183.848912 
L 358.444239 183.77504 
L 358.467608 183.581613 
L 358.355231 183.374458 
L 358.023337 183.354475 
L 357.486015 183.86098 
L 357.377257 184.716033 
L 357.524244 185.019095 
L 357.307921 186.881733 
L 357.584763 187.888635 
L 357.279048 188.356444 
L 357.666149 189.131518 
L 357.77148 189.576608 
L 357.676081 189.887537 
L 357.309038 190.100017 
L 357.190386 190.096646 
L 356.995791 190.294707 
L 356.818992 190.474656 
L 356.238283 191.501491 
L 356.520476 191.997345 
L 357.525206 192.183589 
L 358.061488 192.47219 
L 358.237618 192.683595 
L 358.565316 193.345417 
L 358.529783 193.565764 
L 357.420876 193.166257 
L 355.374842 193.72929 
L 354.651611 192.916547 
L 354.307128 192.754194 
L 353.953636 192.836763 
L 352.259015 191.678306 
L 351.13725 191.022396 
L 350.475694 191.001436 
L 350.390112 191.12783 
L 350.168169 191.93681 
L 350.015792 192.097747 
L 349.682204 192.168004 
L 348.667349 191.129784 
L 348.623076 190.868104 
L 348.715318 189.960041 
L 348.64117 189.40424 
L 348.532527 189.13357 
L 347.74616 187.990552 
L 347.133612 186.541149 
L 346.829398 185.984321 
L 346.461893 185.790944 
L 346.380892 185.848009 
L 346.14663 185.79666 
L 345.633562 185.404433 
L 344.597006 184.839754 
L 344.245234 184.648121 
L 343.980019 184.131405 
L 343.137097 183.210981 
L 342.653943 183.351886 
L 342.312886 183.35643 
L 341.521744 182.67228 
L 341.328329 182.399509 
L 341.102497 181.923345 
L 340.896569 181.270415 
L 340.54404 180.757853 
L 339.844948 180.591249 
L 339.727105 179.621186 
L 338.583318 178.347718 
L 337.727769 177.958423 
L 337.114721 177.908051 
L 336.744136 177.1983 
L 336.538247 176.003493 
L 335.906874 175.49093 
L 334.662414 174.758753 
L 334.427267 174.752534 
L 333.971599 174.740481 
L 333.619301 175.58244 
L 334.484013 176.035543 
L 335.129091 177.04264 
L 336.747023 178.674134 
L 338.281376 179.744893 
L 339.11706 181.06541 
L 339.186049 181.377364 
L 339.821195 182.488723 
L 340.403598 183.284902 
L 341.053874 184.529837 
L 341.456028 185.026082 
L 341.778066 185.154576 
L 342.768437 185.187946 
L 342.99935 185.373555 
L 343.071496 185.533465 
L 343.015981 185.647547 
L 343.015381 185.917498 
L 343.014865 186.149606 
L 343.109186 186.43591 
L 343.2601 186.609207 
L 343.765006 186.815043 
L 344.686079 186.861262 
L 345.465748 187.16154 
L 345.555718 187.281142 
L 345.399415 187.494845 
L 345.455738 187.822287 
L 345.97562 188.137515 
L 346.331845 188.506388 
L 346.380738 188.715497 
L 346.298737 188.904526 
L 346.306629 189.20754 
L 347.010264 190.74215 
L 346.873517 191.20737 
L 347.223622 191.950246 
L 348.431816 193.412254 
L 348.774028 193.62366 
L 349.027693 193.683022 
L 352.558532 193.610127 
L 353.144554 194.300042 
L 353.509172 195.124314 
L 354.571458 195.552256 
L 355.547507 195.520841 
L 356.517435 195.699512 
L 357.768516 196.105419 
L 357.852596 196.305637 
L 357.667727 196.615441 
L 356.596087 197.343612 
L 356.234549 197.248877 
L 355.887948 197.335941 
L 355.653397 197.784639 
L 355.44591 198.181564 
L 355.488104 198.465621 
L 355.746043 198.881544 
L 356.639513 199.369776 
L 357.506419 199.24431 
L 357.861104 198.786272 
L 357.910921 198.572668 
L 357.833501 198.502215 
L 357.864492 198.368004 
L 358.020488 198.315483 
L 358.229611 198.431812 
L 358.503873 198.739467 
L 359.119346 200.032037 
L 359.606004 201.697634 
L 359.6815 202.938025 
L 359.829218 203.805928 
L 359.880575 204.65033 
L 359.758265 205.222156 
L 359.380327 205.862921 
L 359.221329 205.923211 
L 359.127393 206.088691 
L 358.817827 207.174546 
L 358.851821 207.808714 
L 358.715268 208.40624 
L 358.445664 207.959537 
L 358.108071 207.713394 
L 357.443705 207.458309 
L 357.310154 207.032175 
L 356.331295 205.765499 
L 355.204255 205.253425 
L 354.42039 204.737198 
L 354.253885 204.482016 
L 354.15683 204.205679 
L 354.1889 204.10171 
L 353.741124 203.996911 
L 353.340319 203.903105 
L 353.203572 204.114804 
L 353.224477 204.737051 
L 353.057895 204.918263 
L 352.479572 204.996679 
L 352.178977 205.645994 
L 352.578128 206.229156 
L 353.678296 207.284475 
L 354.395058 208.518319 
L 354.478484 209.180923 
L 354.652805 209.609304 
L 355.116556 209.903865 
L 355.75074 209.951599 
L 355.868814 210.165154 
L 355.375997 210.347734 
L 354.201873 210.604382 
L 353.263091 210.654363 
L 353.086306 211.081963 
L 352.802342 211.174206 
L 351.001158 211.309394 
L 350.735019 211.099894 
L 350.332249 211.361818 
L 350.116736 211.774902 
L 349.934253 212.124677 
L 350.305069 212.537424 
L 351.160079 212.996293 
L 354.150132 212.550029 
L 354.317176 212.656001 
L 354.170613 213.092395 
L 354.076215 213.725684 
L 354.336772 214.096219 
L 354.261007 214.761461 
L 354.005718 215.517365 
L 353.937351 215.719798 
L 354.126109 215.851908 
L 354.641101 215.942637 
L 354.876865 215.692047 
L 355.476092 215.313891 
L 355.900806 215.212512 
L 356.109621 215.42983 
L 356.04556 215.514255 
L 356.078207 215.715157 
L 356.229159 216.132594 
L 356.464461 216.50391 
L 356.600591 216.625858 
L 356.836509 216.568793 
L 357.34719 216.783765 
L 358.068803 217.364191 
L 358.265467 217.811835 
L 358.757192 218.931096 
L 358.880426 219.419669 
L 358.518279 220.470703 
L 358.146934 221.548432 
L 358.048822 221.833175 
L 357.760508 223.117879 
L 357.609595 223.482942 
L 357.310231 223.532141 
L 357.196276 223.46804 
L 357.21106 223.094428 
L 357.078587 222.873788 
L 356.637171 222.839087 
L 356.208485 222.805388 
L 355.923597 223.220626 
L 355.604061 223.406284 
L 354.941851 223.631028 
L 354.564567 223.875315 
L 354.397318 224.054899 
L 354.064049 224.412746 
L 353.594369 225.057664 
L 353.514378 225.257521 
L 353.471175 225.365465 
L 353.193948 225.306836 
L 352.812814 225.018578 
L 352.200317 224.075206 
L 351.917766 223.640018 
L 351.904561 223.325377 
L 352.003501 223.312429 
L 352.067409 223.173821 
L 352.04147 223.133601 
L 351.863672 222.857916 
L 351.442195 222.204393 
L 349.60128 220.870049 
L 349.3721 220.845963 
L 349.062919 220.474842 
L 348.997472 220.215898 
L 349.05137 220.127955 
L 349.065614 219.750483 
L 348.65476 219.449081 
L 347.954436 219.843996 
L 347.60206 219.763479 
L 347.459155 219.618861 
L 347.013805 218.829326 
L 345.521878 217.719286 
L 345.270561 217.340935 
L 345.367885 216.605387 
L 345.566844 216.490474 
L 346.051861 215.732006 
L 346.052232 215.731426 
L 345.967227 215.407013 
L 345.802146 215.391379 
L 345.800392 215.386346 
L 345.598259 214.806654 
L 345.479992 214.162518 
L 345.327847 213.84045 
L 345.074681 213.449591 
L 344.642845 212.996977 
L 344.304676 212.756989 
L 342.791805 212.66162 
L 342.415407 212.84762 
L 341.183151 213.103925 
L 341.05345 213.573054 
L 340.83478 214.004562 
L 340.717745 214.139799 
L 340.431702 214.262578 
L 340.150856 214.186361 
L 339.535383 213.482668 
L 339.274364 213.32266 
L 338.964641 212.660394 
L 338.773693 212.252097 
L 337.80244 211.718709 
L 337.671061 211.646559 
L 336.275649 211.75683 
L 335.744949 210.712992 
L 335.62535 210.799346 
L 334.38153 211.697419 
L 333.283518 211.882296 
L 333.012399 212.105699 
L 332.81226 212.270614 
L 333.585461 212.954862 
L 334.349538 213.64849 
L 335.024337 213.802928 
L 335.995381 213.337903 
L 337.131198 213.486625 
L 338.428208 213.861459 
L 338.64403 214.296485 
L 340.184196 215.655795 
L 340.54096 216.194887 
L 340.939495 216.409078 
L 341.207444 216.446649 
L 341.785882 216.317666 
L 341.824899 216.247318 
L 342.500411 215.029395 
L 342.647052 214.455614 
L 342.685858 213.987364 
L 342.928552 213.834929 
L 343.534054 214.58147 
L 343.769356 215.055191 
L 343.750261 215.194337 
L 343.580868 215.402274 
L 343.473072 215.794696 
L 343.468784 216.563937 
L 343.46853 216.609589 
L 343.662792 216.799204 
L 344.034225 218.183627 
L 343.987411 218.821508 
L 343.62029 219.825967 
L 343.536518 220.410692 
L 343.593187 220.86018 
L 343.81617 221.31514 
L 344.145716 221.636426 
L 344.453125 221.780262 
L 345.757796 221.810749 
L 346.744625 222.146106 
L 347.08957 222.448631 
L 347.651954 223.364804 
L 348.1015 223.601763 
L 349.117587 224.340144 
L 349.190041 224.474404 
L 349.144959 224.60969 
L 349.26569 224.86028 
L 349.559933 225.110918 
L 350.06072 225.249917 
L 350.553345 225.877246 
L 350.686239 227.023245 
L 350.751689 227.587645 
L 350.76216 228.38187 
L 350.714653 228.619757 
L 350.895202 228.846946 
L 351.232649 229.271563 
L 351.818671 229.21396 
L 351.872645 229.069636 
L 351.847583 228.790709 
L 352.0989 228.278684 
L 352.322499 228.137193 
L 352.722304 228.214583 
L 353.029346 228.331055 
L 353.635216 228.560884 
L 353.658276 228.557797 
L 354.402873 228.458137 
L 354.468321 227.300217 
L 355.704195 227.324646 
L 355.87097 228.672083 
L 356.600159 228.96642 
L 357.078818 229.159631 
L 357.200056 228.658704 
L 357.20694 228.630261 
L 357.229808 228.314545 
L 357.052743 228.291174 
L 356.772294 228.254157 
L 356.685364 227.701727 
L 356.589657 226.547813 
L 356.720552 225.53158 
L 356.897683 225.546237 
L 357.163206 225.7317 
L 357.798545 225.23355 
L 357.854758 225.124508 
L 357.86403 225.106521 
L 358.34911 225.077207 
L 359.00747 225.282407 
L 359.163938 225.399139 
L 360.277955 226.230241 
L 360.790021 226.503842 
L 361.179291 226.630068 
L 362.010458 226.899587 
L 362.155512 226.930266 
L 362.508618 227.00495 
L 363.184961 227.147999 
L 363.950853 227.309988 
L 364.337244 227.468399 
L 365.646667 228.005229 
L 365.796829 228.009518 
L 365.937445 228.013535 
L 367.084735 227.608018 
L 367.66606 227.09013 
L 368.035644 226.875207 
L 368.794101 226.933836 
L 369.032791 227.016844 
L 369.467861 227.358846 
L 369.648803 227.906048 
L 370.359484 231.094133 
L 370.39571 231.256638 
L 370.653649 232.713516 
L 371.265811 235.219851 
L 372.336143 238.595846 
L 373.521969 241.590706 
L 374.16878 243.882116 
L 374.442157 245.499247 
L 373.953228 245.499247 
L 373.918579 245.499247 
L 373.7145 245.499247 
L 373.691401 245.499247 
L 373.483509 245.499247 
L 373.433462 245.504132 
L 373.398813 245.499247 
L 373.133851 245.502862 
L 373.040778 245.504132 
L 372.99073 245.504132 
L 372.825149 245.504132 
L 372.732753 245.504132 
L 372.32467 245.504132 
L 371.138882 245.509067 
L 371.115783 245.509067 
L 371.027198 245.509067 
L 370.954051 245.509067 
L 368.293738 245.509067 
L 367.985712 245.504181 
L 364.613211 245.505749 
L 357.265304 245.509165 
L 357.261919 245.509153 
L 354.821515 245.501006 
L 351.411512 245.489622 
L 350.402286 245.500331 
L 348.475301 245.52078 
L 348.469506 245.520842 
L 347.843867 245.510696 
L 347.167914 245.499735 
L 340.89911 245.487961 
L 340.462192 245.51747 
L 339.244951 245.503888 
L 338.252386 245.506478 
L 334.063033 245.433827 
L 334.020993 245.499833 
L 334.008327 245.729267 
L 334.056747 245.837213 
L 334.05722 245.838268 
L 327.165474 245.798645 
L 326.020147 245.829913 
L 324.946851 245.825418 
L 324.497226 245.716602 
L 324.492224 245.715392 
L 324.293573 245.667267 
L 323.503779 245.723502 
L 322.927035 245.800843 
L 319.395996 245.793116 
L 301.962751 245.754966 
L 301.292215 245.760157 
L 297.406826 245.790235 
L 297.128357 245.792391 
L 296.855904 245.793221 
L 296.185494 245.796837 
L 290.827792 245.820777 
L 290.809236 245.819653 
L 290.547785 245.82102 
L 287.209985 245.838463 
L 287.194124 245.836704 
L 282.876956 245.809149 
L 282.830026 245.812569 
L 279.856759 245.838561 
L 279.853821 245.838599 
L 275.528735 245.894405 
L 275.341402 245.893379 
L 274.734359 245.903784 
L 274.734244 245.903786 
L 274.20212 245.911505 
L 274.193265 245.911945 
L 272.694023 245.972626 
L 271.933411 245.97673 
L 271.806713 245.975606 
L 269.023628 245.971307 
L 267.11555 245.932947 
L 266.790222 245.926407 
L 266.530974 245.925234 
L 264.064348 245.931719 
L 263.12999 245.934175 
L 262.859039 245.940282 
L 261.671711 245.940965 
L 261.670594 245.940966 
L 257.118432 245.928312 
L 257.084669 245.928214 
L 256.061036 245.921423 
L 256.051604 245.923084 
L 254.961215 245.91942 
L 254.913592 245.920935 
L 254.630216 245.92224 
L 249.026346 245.94805 
L 248.974681 245.94976 
L 248.518167 245.939696 
L 248.502953 245.939742 
L 245.794408 245.947904 
L 245.76384 245.94678 
L 245.418349 245.951735 
L 244.213896 245.96901 
L 240.619028 245.967171 
L 236.670257 245.965151 
L 236.659709 245.966274 
L 235.733004 245.974583 
L 234.169404 245.988602 
L 234.053906 245.987632 
L 228.156729 245.938084 
L 228.138173 245.938084 
L 226.3083 245.926829 
L 219.670342 245.886002 
L 219.50445 245.890841 
L 219.000471 245.905545 
L 218.406898 245.905097 
L 216.601368 245.903737 
L 216.580887 245.902418 
L 215.629246 245.902559 
L 214.280302 245.90276 
L 214.277608 245.902754 
L 213.272048 245.900724 
L 210.626268 245.895382 
L 208.803294 245.868804 
L 208.722409 245.867387 
L 206.652275 245.841541 
L 206.542362 245.835727 
L 203.963741 245.830548 
L 198.714028 245.525385 
L 198.674644 245.52133 
L 198.386984 245.505305 
L 195.660012 245.359559 
L 191.766878 245.151485 
L 191.276798 245.125292 
L 190.177246 245.085571 
L 189.778401 245.055112 
L 188.195274 244.934211 
L 187.212795 244.932745 
L 185.545354 245.032512 
L 184.380509 245.00779 
L 183.103557 245.088845 
L 183.082306 245.090604 
L 183.070237 245.089974 
L 180.617495 244.962085 
L 180.615138 244.961962 
L 178.974646 244.898105 
L 178.911124 244.891363 
L 176.685379 244.870208 
L 176.392792 244.831122 
L 174.566352 244.706682 
L 174.45001 244.704533 
L 173.628455 244.689485 
L 172.026808 244.596704 
L 171.372297 244.582047 
L 170.240368 244.50881 
L 170.028627 244.464838 
L 167.214243 244.401373 
L 166.733514 244.367221 
L 164.99308 244.313478 
L 163.231849 244.328164 
L 163.229431 244.328184 
L 162.401639 244.330627 
L 159.806696 244.225633 
L 158.489975 244.049795 
L 157.991151 244.117951 
L 157.589074 244.079158 
L 156.772871 244.044958 
L 153.696774 243.727434 
L 150.747761 243.673789 
L 151.927159 242.510934 
L 148.460766 242.488411 
L 145.003536 242.398709 
L 141.311466 242.301092 
L 140.868735 243.375954 
L 137.584068 243.366137 
L 132.729063 243.351626 
L 132.613723 243.351281 
L 132.530643 243.35348 
L 131.635364 243.356704 
L 131.509667 243.348838 
L 131.375192 243.341021 
L 131.076791 243.328758 
L 130.229596 243.299785 
L 130.210039 243.295486 
L 129.797799 243.297733 
L 129.731119 243.302277 
L 129.64369 243.301153 
L 129.607617 243.301202 
L 128.97073 243.30165 
L 127.009509 243.30303 
L 126.899565 243.303108 
L 120.369549 243.36286 
L 119.905452 243.308775 
L 119.575521 243.297343 
L 116.993974 243.343562 
L 116.783003 243.347275 
L 116.732955 243.347275 
L 114.881107 243.381524 
L 112.159157 243.401116 
L 111.546995 243.401116 
L 106.363075 243.398038 
L 104.146339 243.412695 
L 100.407742 243.399542 
L 98.785942 243.393836 
L 98.743325 243.391588 
L 90.251509 243.394813 
L 90.21432 243.391344 
L 90.198728 243.389536 
L 89.783138 243.391882 
L 89.197925 243.181795 
L 85.401832 243.22093 
L 81.659637 243.225913 
L 78.398749 243.221027 
L 75.865017 243.187951 
L 74.981018 243.093119 
L 74.036191 243.055889 
L 74.035691 243.054277 
L 73.832727 243.053446 
L 73.863487 242.942638 
" clip-path="url(#pf54afec6a6)" style="fill: #c733ff"/>
   </g>
   <g id="text_1">
    <!-- VA -->
    <g transform="translate(228.33375 89.921338) scale(0.12 -0.12)">
     <defs>
      <path id="DejaVuSans-56" d="M 1831 0 
L 50 4666 
L 709 4666 
L 2188 738 
L 3669 4666 
L 4325 4666 
L 2547 0 
L 1831 0 
z
" transform="scale(0.015625)"/>
      <path id="DejaVuSans-41" d="M 2188 4044 
L 1331 1722 
L 3047 1722 
L 2188 4044 
z
M 1831 4666 
L 2547 4666 
L 4325 0 
L 3669 0 
L 3244 1197 
L 1141 1197 
L 716 0 
L 50 0 
L 1831 4666 
z
" transform="scale(0.015625)"/>
     </defs>
     <use xlink:href="#DejaVuSans-56"/>
     <use xlink:href="#DejaVuSans-41" x="62.033203"/>
    </g>
   </g>
  </g>
 </g>
 <defs>
  <clipPath id="pf54afec6a6">
   <rect x="57.6" y="95.921338" width="357.12" height="157.213325"/>
  </clipPath>
 </defs>
</svg>
