<?xml version="1.0" encoding="utf-8" standalone="no"?>
<!DOCTYPE svg PUBLIC "-//W3C//DTD SVG 1.1//EN"
  "http://www.w3.org/Graphics/SVG/1.1/DTD/svg11.dtd">
<svg xmlns:xlink="http://www.w3.org/1999/xlink" width="360pt" height="360pt" viewBox="0 0 360 360" xmlns="http://www.w3.org/2000/svg" version="1.1">
 <metadata>
  <rdf:RDF xmlns:dc="http://purl.org/dc/elements/1.1/" xmlns:cc="http://creativecommons.org/ns#" xmlns:rdf="http://www.w3.org/1999/02/22-rdf-syntax-ns#">
   <cc:Work>
    <dc:type rdf:resource="http://purl.org/dc/dcmitype/StillImage"/>
    <dc:date>2023-06-19T15:20:27.148397</dc:date>
    <dc:format>image/svg+xml</dc:format>
    <dc:creator>
     <cc:Agent>
      <dc:title>Matplotlib v3.7.1, https://matplotlib.org/</dc:title>
     </cc:Agent>
    </dc:creator>
   </cc:Work>
  </rdf:RDF>
 </metadata>
 <defs>
  <style type="text/css">*{stroke-linejoin: round; stroke-linecap: butt}</style>
 </defs>
 <g id="figure_1">
  <g id="patch_1">
   <path d="M 0 360 
L 360 360 
L 360 0 
L 0 0 
z
" style="fill: #ffffff"/>
  </g>
  <g id="axes_1">
   <g id="PatchCollection_1">
    <path d="M 75.949177 162.733319 
L 76.581872 160.703502 
L 76.778206 159.793804 
L 76.884737 158.946616 
L 78.306622 156.744676 
L 78.857217 155.284933 
L 78.812536 154.750736 
L 78.589238 153.812204 
L 78.365941 153.211865 
L 78.368032 153.068466 
L 78.812756 152.518311 
L 79.209167 152.347949 
L 79.742924 151.806268 
L 79.840541 151.634475 
L 80.142856 150.592273 
L 80.242564 149.830486 
L 80.594294 149.404141 
L 80.608931 149.31819 
L 80.469714 149.106008 
L 80.390365 148.801711 
L 80.444622 148.554092 
L 80.557976 148.340699 
L 81.160956 147.933393 
L 81.240745 147.73937 
L 81.114514 146.878425 
L 81.138946 146.678789 
L 81.367966 146.521193 
L 81.717494 146.490488 
L 81.864855 146.428748 
L 82.055797 145.986335 
L 82.557529 145.735965 
L 82.822096 145.690293 
L 83.139489 145.437501 
L 83.329551 145.175465 
L 84.28316 144.735363 
L 84.342258 144.534076 
L 84.734927 143.893678 
L 85.024587 143.52379 
L 85.027228 143.158854 
L 85.082805 143.078625 
L 85.516524 142.820661 
L 85.617442 142.334997 
L 86.451314 141.875526 
L 86.350285 141.48836 
L 87.060347 141.3224 
L 87.361452 141.166785 
L 87.75126 140.805481 
L 87.880902 140.777968 
L 88.391658 140.875915 
L 88.511066 140.84477 
L 88.928607 140.22297 
L 89.279015 139.318115 
L 89.63074 138.610462 
L 89.693475 138.484243 
L 89.894542 137.505432 
L 89.754334 136.868775 
L 89.254804 136.025989 
L 88.657326 134.502856 
L 88.441402 133.567406 
L 88.406625 132.552277 
L 88.484763 131.87314 
L 88.466934 130.946053 
L 88.342574 130.429685 
L 88.141386 129.898013 
L 88.099577 129.787526 
L 87.29597 128.410983 
L 87.262734 127.578542 
L 87.412847 126.714956 
L 87.765677 126.30787 
L 88.801826 125.572496 
L 89.233784 125.208331 
L 89.45532 124.929346 
L 89.741238 124.247348 
L 89.95331 123.37892 
L 91.544676 120.546376 
L 91.784152 119.532017 
L 91.789574 119.46473 
L 91.810784 119.201528 
L 91.634369 118.615496 
L 91.09533 117.644058 
L 91.248194 116.626508 
L 91.224642 115.817949 
L 91.120532 115.229386 
L 90.621662 114.229334 
L 90.566305 113.517291 
L 90.369751 112.623111 
L 89.691384 111.862425 
L 88.987705 111.343635 
L 88.814812 111.159736 
L 88.750981 110.849057 
L 88.784547 110.474546 
L 88.775869 110.423027 
L 88.683849 109.876738 
L 88.473758 109.675231 
L 87.970045 109.525779 
L 87.865935 109.445991 
L 87.741575 109.244484 
L 87.708009 108.888463 
L 87.630752 108.706325 
L 86.81636 107.894354 
L 86.782793 107.765042 
L 86.856529 107.504546 
L 86.843212 107.372262 
L 86.383081 106.947348 
L 85.602255 106.563813 
L 85.034492 106.395872 
L 84.858187 106.285819 
L 84.495012 105.776494 
L 84.341156 105.669478 
L 83.704061 105.226339 
L 82.921144 104.35582 
L 82.780606 103.631341 
L 82.546414 103.291277 
L 82.100259 102.830375 
L 82.12315 102.690938 
L 82.535078 102.331615 
L 82.655146 102.15476 
L 82.707311 101.960737 
L 82.650414 101.698811 
L 82.223738 101.078002 
L 81.980961 100.313684 
L 81.222916 99.760557 
L 81.177684 99.634767 
L 81.206849 99.49533 
L 81.495187 99.049395 
L 81.588622 98.691503 
L 81.654434 98.238084 
L 81.514667 97.743066 
L 81.557147 97.652052 
L 82.33137 97.212831 
L 82.462003 97.090122 
L 81.956199 96.618104 
L 82.526714 95.830785 
L 82.522202 95.728656 
L 82.417211 95.581845 
L 82.405546 95.406641 
L 82.949207 94.793866 
L 83.067074 94.752816 
L 83.339235 94.774276 
L 83.440594 94.668626 
L 83.397013 94.383258 
L 83.104822 94.089637 
L 83.201339 93.185331 
L 83.284319 93.122161 
L 83.711324 93.013979 
L 83.688764 92.708142 
L 83.438833 92.436751 
L 83.388539 92.316243 
L 83.921746 92.01987 
L 84.360747 91.25203 
L 84.359096 91.158926 
L 83.892802 90.616584 
L 83.946948 87.826851 
L 83.892692 86.050596 
L 84.087486 85.668932 
L 84.76101 85.034587 
L 85.125285 84.56378 
L 85.748956 83.138594 
L 85.927462 82.616722 
L 86.237591 82.254208 
L 87.177553 81.61546 
L 87.391276 81.273636 
L 87.459179 80.881077 
L 87.373448 79.732013 
L 87.318751 79.403175 
L 87.207268 79.137507 
L 85.583216 77.839762 
L 85.223122 77.400431 
L 85.061014 77.277832 
L 84.715998 77.078636 
L 83.879816 76.732959 
L 83.443015 76.437467 
L 83.257906 76.260722 
L 82.815933 75.648277 
L 82.444835 75.532611 
L 82.363946 75.460857 
L 82.154075 74.689275 
L 82.149893 74.272835 
L 82.323226 73.366879 
L 82.775874 72.958802 
L 83.187692 72.775124 
L 83.502884 72.305638 
L 83.793864 71.385595 
L 84.259388 69.578194 
L 84.468709 68.942858 
L 84.715998 68.492852 
L 84.920917 68.144314 
L 85.202763 67.830223 
L 85.843271 67.394083 
L 86.399082 67.119687 
L 86.584038 67.028377 
L 86.81812 66.692825 
L 86.872817 65.985074 
L 86.749447 63.865674 
L 86.936207 61.975954 
L 86.899119 61.512741 
L 86.845083 61.387721 
L 86.184105 60.883458 
L 85.581235 60.250213 
L 85.287613 59.763558 
L 85.152688 59.387397 
L 85.095351 59.025323 
L 85.227855 58.715744 
L 85.584536 58.260235 
L 86.361951 56.440398 
L 96.685031 56.292817 
L 97.594289 56.229977 
L 103.001512 56.134376 
L 105.398255 56.092002 
L 114.662298 55.928212 
L 114.772681 56.009981 
L 116.959544 56.006129 
L 117.555261 55.886942 
L 118.352815 55.90323 
L 118.798749 56.005689 
L 122.41366 55.974654 
L 122.498731 55.984779 
L 127.641177 56.081846 
L 131.118742 56.063247 
L 131.126995 56.020436 
L 131.761561 55.96585 
L 141.112323 55.8 
L 148.631914 55.886502 
L 156.850853 55.919686 
L 159.916308 55.932064 
L 169.258706 56.176601 
L 169.602952 56.21578 
L 170.085094 56.363031 
L 172.996986 56.719493 
L 173.167796 56.722733 
L 175.573217 56.768356 
L 181.237644 56.657203 
L 184.777829 56.69385 
L 190.012719 56.908234 
L 195.814163 57.014325 
L 197.942562 57.113974 
L 200.052304 57.21275 
L 202.056038 57.138575 
L 204.366821 57.172691 
L 207.02391 57.124563 
L 216.512599 56.952695 
L 222.834924 57.017296 
L 228.43541 56.932445 
L 230.477444 56.656322 
L 230.903899 56.886993 
L 231.61341 56.885893 
L 235.639919 56.767036 
L 239.987453 56.71344 
L 243.530279 56.77595 
L 245.439969 56.728763 
L 259.769368 56.374697 
L 268.084312 56.376678 
L 277.11504 56.234709 
L 282.538231 56.251657 
L 289.083523 56.161194 
L 293.050823 56.13247 
L 292.917879 56.317249 
L 291.447131 57.313669 
L 290.571769 57.530363 
L 289.488078 57.206587 
L 287.595496 57.197893 
L 286.999779 57.381241 
L 286.450175 57.426363 
L 285.891656 57.671231 
L 285.133501 58.274211 
L 284.956095 58.933979 
L 285.045018 59.361425 
L 285.725036 60.272113 
L 286.213891 60.531288 
L 286.741375 61.341278 
L 287.417871 61.53266 
L 287.569744 62.174049 
L 287.352829 63.40147 
L 287.497659 63.849166 
L 287.426565 64.143447 
L 287.337972 64.269128 
L 287.531666 65.632354 
L 288.190003 66.06024 
L 288.709893 66.540842 
L 289.116539 67.039052 
L 289.819227 67.335975 
L 289.872383 67.436563 
L 289.660641 68.090608 
L 289.536941 68.173698 
L 289.255205 68.113279 
L 289.083523 68.150807 
L 288.931099 68.339328 
L 288.252182 68.891464 
L 287.676825 69.227676 
L 287.624 69.302952 
L 287.652614 69.392645 
L 287.91432 69.566309 
L 287.850489 69.712129 
L 286.738844 70.750479 
L 286.271669 70.939 
L 286.084139 71.079757 
L 286.02394 71.177815 
L 285.994776 71.548583 
L 285.396748 71.973498 
L 284.788375 72.091585 
L 284.151718 72.365727 
L 283.752006 72.755534 
L 283.681242 72.863716 
L 283.667155 73.090095 
L 283.879227 73.36919 
L 283.882749 73.532728 
L 283.298257 73.907679 
L 283.084314 74.081123 
L 282.9517 74.272505 
L 282.957753 74.486668 
L 283.146384 74.610918 
L 283.40853 75.016353 
L 283.479955 75.329013 
L 283.456513 75.486719 
L 283.292094 75.67491 
L 282.856284 75.855837 
L 282.351801 76.933146 
L 282.192775 77.013595 
L 282.076229 77.013595 
L 282.033748 76.928083 
L 281.729892 77.021188 
L 281.024782 77.654323 
L 280.89426 77.87674 
L 280.933989 78.151102 
L 281.184359 78.501291 
L 281.585833 78.674074 
L 281.598819 78.868758 
L 281.45531 79.063331 
L 281.155195 79.86991 
L 281.311801 80.212945 
L 281.142209 80.537381 
L 280.515897 81.177009 
L 280.398471 81.24194 
L 279.915668 81.214097 
L 278.972074 81.539524 
L 278.533733 81.956515 
L 278.563337 82.129408 
L 278.647748 82.255308 
L 278.634321 82.348853 
L 278.036073 82.718081 
L 277.690067 83.194501 
L 277.291785 83.423411 
L 276.902968 83.56791 
L 276.627835 83.977638 
L 276.631027 84.193122 
L 276.223501 84.499179 
L 275.565054 84.581499 
L 274.758255 84.788618 
L 274.689142 84.87556 
L 274.679897 85.109973 
L 274.693781 85.136576 
L 274.774323 85.2909 
L 275.236545 85.452128 
L 275.426827 85.80936 
L 275.440143 86.566414 
L 275.376423 86.790262 
L 275.379394 87.313344 
L 275.455221 87.454212 
L 275.637468 87.590347 
L 275.711534 87.592768 
L 276.099581 87.426588 
L 276.254866 87.466758 
L 276.279628 87.562284 
L 276.16022 88.017573 
L 276.177939 88.160972 
L 276.756927 88.565637 
L 277.657381 89.752338 
L 278.225475 90.064008 
L 278.285453 90.222485 
L 278.113 90.559577 
L 278.113 90.660165 
L 278.180133 90.768237 
L 278.345873 90.868826 
L 278.543748 91.208229 
L 278.413445 91.439671 
L 278.59008 92.073466 
L 278.833627 92.430478 
L 278.784434 92.669513 
L 278.594152 92.885877 
L 278.604717 92.951249 
L 279.29585 93.340836 
L 279.588481 93.408739 
L 280.067872 93.418644 
L 280.180786 93.562043 
L 280.120917 93.702911 
L 279.906204 93.927639 
L 279.777772 94.030428 
L 279.777772 94.210145 
L 279.895639 94.462496 
L 279.821683 94.663673 
L 279.675093 94.929121 
L 279.675093 95.108838 
L 279.865484 95.291746 
L 280.072714 95.423259 
L 280.837802 95.525608 
L 280.871148 95.648537 
L 280.804897 95.802061 
L 280.830539 95.930493 
L 280.933328 96.084567 
L 281.261506 96.11087 
L 281.473689 96.098764 
L 281.645151 95.982768 
L 281.758726 95.760131 
L 281.923915 95.726785 
L 282.114637 95.8408 
L 282.405067 96.127268 
L 282.757347 96.771188 
L 282.814675 97.042787 
L 282.817326 97.055345 
L 282.725651 97.239023 
L 282.309981 97.306926 
L 282.309981 97.553335 
L 282.366328 97.628831 
L 283.190625 98.111193 
L 283.5111 98.617327 
L 283.353284 98.722207 
L 283.271624 98.858123 
L 283.187104 98.860654 
L 283.066706 99.000201 
L 282.978663 99.784989 
L 283.249724 100.599932 
L 283.274376 100.876605 
L 283.168725 101.085375 
L 283.064395 101.271255 
L 283.038752 101.502366 
L 283.210985 101.829774 
L 283.192826 102.118553 
L 283.321258 102.375306 
L 283.78117 102.405791 
L 284.734999 102.705245 
L 285.213729 102.926672 
L 285.051621 103.329026 
L 284.787604 103.578076 
L 284.25946 103.935087 
L 283.981466 104.015536 
L 283.78095 103.947633 
L 283.5746 103.811058 
L 283.348441 103.780463 
L 283.09719 104.056916 
L 282.750303 104.87494 
L 282.711785 105.090534 
L 282.758007 105.443474 
L 282.617029 105.603381 
L 282.226011 105.702538 
L 281.543682 105.751072 
L 280.892169 105.531186 
L 279.279782 105.430047 
L 279.06837 105.493438 
L 278.866753 105.637057 
L 278.623096 105.957861 
L 278.440408 106.367919 
L 278.405301 106.561612 
L 278.549691 106.780397 
L 279.510233 107.393833 
L 280.928046 108.163213 
L 281.160258 108.480056 
L 281.167301 108.663624 
L 281.009155 108.955485 
L 280.741946 109.322732 
L 280.123338 109.974245 
L 279.768307 110.165517 
L 279.617205 110.19072 
L 278.98429 110.127989 
L 278.829776 110.27392 
L 278.861471 110.487643 
L 279.065509 110.703897 
L 279.638665 111.045831 
L 279.744206 111.181637 
L 279.853268 111.543821 
L 280.04322 111.74995 
L 280.644329 112.12215 
L 280.721697 112.215144 
L 280.658416 112.363606 
L 280.535487 112.449117 
L 280.401883 112.464194 
L 279.822233 112.515809 
L 279.473475 112.606823 
L 279.133192 112.697837 
L 278.722254 113.019742 
L 278.694961 113.273524 
L 278.427202 113.939235 
L 278.255189 114.150536 
L 277.144974 114.382418 
L 276.445588 114.206773 
L 276.259488 114.231975 
L 274.785548 114.385169 
L 274.588773 114.432822 
L 273.871558 115.099083 
L 273.453467 115.229716 
L 273.14763 115.395676 
L 272.949204 115.617543 
L 272.895828 115.738821 
L 272.930385 115.964099 
L 273.074885 116.085928 
L 273.702627 116.408824 
L 273.75138 116.601306 
L 273.482081 116.871156 
L 273.238093 117.002009 
L 272.439989 116.939059 
L 272.326854 117.007072 
L 271.890494 117.721976 
L 271.702524 118.720267 
L 271.393385 119.230802 
L 271.13355 119.444525 
L 270.610468 119.645702 
L 269.681621 119.736056 
L 269.474831 119.811332 
L 269.401096 119.916543 
L 269.486387 120.124323 
L 269.399225 120.593809 
L 268.749912 121.089377 
L 268.191943 121.328302 
L 267.254952 121.896726 
L 266.307726 122.347063 
L 265.532293 122.510712 
L 264.309384 122.412214 
L 263.723792 122.452934 
L 263.239229 122.557814 
L 263.028697 122.683385 
L 262.799237 122.919228 
L 262.53654 123.404782 
L 262.448938 123.48281 
L 262.239067 123.515606 
L 261.741407 123.450014 
L 261.212383 123.051402 
L 261.01968 122.960718 
L 260.373119 122.891825 
L 260.041749 122.940249 
L 259.963394 122.970988 
L 259.721385 123.065929 
L 259.180694 123.324334 
L 258.894777 123.541248 
L 258.541066 123.687288 
L 257.212176 123.636554 
L 256.856045 123.745396 
L 255.928408 124.393718 
L 255.803498 124.557697 
L 255.803388 124.723437 
L 256.198478 125.211302 
L 256.152586 125.395641 
L 255.80647 125.499201 
L 255.215815 125.441203 
L 254.742367 125.557969 
L 254.603921 125.653605 
L 254.451497 126.365428 
L 254.508945 126.461174 
L 254.820065 126.688103 
L 254.840865 126.802558 
L 254.775163 126.917454 
L 254.482642 127.094859 
L 254.409237 127.235397 
L 254.537559 127.661632 
L 254.814672 128.234898 
L 254.844056 128.358267 
L 254.767459 128.557353 
L 254.607993 128.668067 
L 254.114185 128.844371 
L 253.298912 128.947051 
L 252.52689 129.15285 
L 252.036214 129.416071 
L 251.309925 129.805684 
L 250.395494 130.172271 
L 249.370571 130.256351 
L 248.493558 130.602688 
L 248.211603 130.639446 
L 247.838413 130.557786 
L 247.174573 130.245346 
L 244.92542 129.44306 
L 244.421708 129.356668 
L 243.2634 129.549151 
L 242.421054 130.0456 
L 241.978421 130.535005 
L 241.286738 130.733871 
L 240.884605 130.725727 
L 240.211741 130.516627 
L 238.785894 130.538637 
L 238.234088 130.64737 
L 236.254565 130.54348 
L 235.86971 130.681816 
L 235.866554 130.690312 
L 235.664241 131.234832 
L 235.463724 131.394409 
L 233.922102 131.933339 
L 233.078766 132.254694 
L 232.576264 132.355832 
L 232.071451 132.427257 
L 231.339268 132.243358 
L 230.978515 132.2055 
L 230.530049 132.429238 
L 230.456313 132.761157 
L 230.617541 132.936912 
L 230.620182 133.935643 
L 230.59553 134.257548 
L 230.493841 134.463787 
L 230.101502 134.908842 
L 229.884258 135.059724 
L 229.081091 135.552762 
L 228.304887 135.71586 
L 227.696845 136.184796 
L 226.975557 137.175823 
L 226.718033 137.864645 
L 226.862203 138.155735 
L 227.073504 138.192493 
L 227.444383 138.700937 
L 227.597577 139.510817 
L 228.235004 140.511419 
L 228.661789 140.828372 
L 228.843597 141.140262 
L 228.906437 141.439496 
L 228.60192 141.980076 
L 228.279905 142.809986 
L 228.244909 143.177233 
L 228.381154 143.602257 
L 228.35024 143.708644 
L 228.318314 143.818512 
L 227.727109 144.771681 
L 227.786428 145.008074 
L 227.685069 145.443114 
L 227.566212 145.626682 
L 227.181687 145.845578 
L 227.069873 146.011538 
L 226.894999 146.801278 
L 227.426334 147.331953 
L 227.849158 147.938015 
L 228.341645 149.208137 
L 228.939013 149.87968 
L 229.511949 149.987972 
L 229.703213 150.314845 
L 229.756266 150.405513 
L 229.765621 150.545721 
L 229.476622 150.928595 
L 229.459123 151.036667 
L 229.55641 152.590946 
L 230.010269 152.963255 
L 230.40833 153.101702 
L 230.467649 153.209884 
L 230.049117 153.961876 
L 229.902417 153.97068 
L 229.694527 153.856225 
L 229.560262 153.857876 
L 229.067004 154.049588 
L 228.416371 154.492001 
L 228.159617 155.344251 
L 228.142449 155.565458 
L 229.810522 156.310076 
L 230.11768 156.33781 
L 230.546887 156.498927 
L 230.738709 156.66995 
L 230.763031 156.903922 
L 230.668495 157.411927 
L 230.556682 157.623119 
L 230.403048 157.766408 
L 230.182832 157.865675 
L 229.773324 157.917841 
L 229.088465 157.832439 
L 228.928998 157.905625 
L 228.80827 158.096236 
L 228.970708 158.28982 
L 229.798527 158.742248 
L 229.499072 159.472119 
L 228.831491 159.833093 
L 228.862416 160.077741 
L 228.290911 160.562634 
L 227.976269 161.129187 
L 227.884705 161.232196 
L 227.698716 161.311985 
L 227.345886 161.573251 
L 227.275012 162.005649 
L 226.866825 162.260862 
L 225.935887 162.635812 
L 225.661745 162.778991 
L 225.483789 162.966632 
L 225.417097 163.126979 
L 225.438887 163.335859 
L 225.869305 163.87699 
L 225.92235 164.077837 
L 225.851476 164.202747 
L 225.44857 164.377883 
L 225.411884 164.39383 
L 225.372966 164.410747 
L 225.223184 164.546662 
L 225.167387 164.720216 
L 224.793977 164.993698 
L 224.21939 165.012187 
L 224.048588 164.994578 
L 223.825621 165.135446 
L 223.710725 165.283797 
L 223.648105 165.520191 
L 223.292854 165.983074 
L 222.899084 166.048556 
L 222.589065 166.292763 
L 222.627694 166.652416 
L 222.777916 167.22073 
L 222.757116 167.374144 
L 222.178898 167.627486 
L 221.302216 168.293857 
L 221.33292 168.571851 
L 221.761357 169.004799 
L 221.877683 169.343432 
L 221.796904 170.365714 
L 221.732193 170.680906 
L 221.553467 171.045402 
L 221.550825 171.171522 
L 221.600679 171.261656 
L 221.966936 171.322625 
L 223.073078 171.994829 
L 223.286471 172.211853 
L 223.315745 172.346008 
L 222.684921 173.130025 
L 222.524904 173.258347 
L 221.974969 173.447198 
L 221.491177 173.449949 
L 221.20823 173.538102 
L 221.113695 173.69966 
L 221.08211 173.934623 
L 221.326317 174.809214 
L 221.326207 174.958336 
L 221.189081 176.128309 
L 221.059549 176.385833 
L 220.860133 176.605499 
L 219.306735 177.588492 
L 218.214569 178.109703 
L 217.523106 178.504133 
L 217.038873 179.008616 
L 216.724011 179.488227 
L 216.654568 179.977853 
L 216.478153 180.09781 
L 215.773263 180.219969 
L 215.401284 180.189705 
L 215.286389 180.302729 
L 215.161259 180.483766 
L 215.074207 180.929041 
L 215.258215 181.316537 
L 215.491968 181.616322 
L 215.541785 181.708755 
L 215.616722 181.8478 
L 215.74553 182.086798 
L 214.942363 182.390985 
L 214.434799 182.413545 
L 214.04191 182.50665 
L 213.840293 182.720373 
L 213.496047 183.520128 
L 213.555145 183.796801 
L 214.052035 184.732582 
L 214.12478 185.951639 
L 213.999979 186.318446 
L 213.680716 186.733125 
L 213.458739 187.17807 
L 213.424072 187.369012 
L 213.660246 187.951852 
L 213.906765 188.318659 
L 214.00042 188.797059 
L 213.833799 189.179933 
L 213.183716 189.60815 
L 212.916288 190.280573 
L 212.655682 190.633293 
L 212.492364 190.796832 
L 211.718251 191.227029 
L 211.582886 191.405645 
L 211.558564 191.647212 
L 211.642314 192.859555 
L 211.593363 192.894642 
L 211.336917 193.078451 
L 210.975943 193.252114 
L 210.351283 193.382967 
L 210.174317 193.468589 
L 209.952341 193.70003 
L 209.737407 194.117681 
L 209.563963 194.336576 
L 208.566003 195.388243 
L 207.206298 195.959748 
L 205.095812 196.943072 
L 204.332595 196.945273 
L 203.794215 197.724888 
L 203.377885 197.991326 
L 202.833123 198.461583 
L 202.597059 198.803627 
L 202.01763 199.455031 
L 201.722798 199.711455 
L 201.192232 199.980534 
L 200.845345 200.403138 
L 200.574725 201.167786 
L 200.555114 201.526925 
L 200.55509 201.527355 
L 200.498348 202.566449 
L 200.682027 202.777751 
L 200.820583 203.114843 
L 200.785807 203.557586 
L 200.685218 204.058107 
L 200.525752 204.385185 
L 199.967783 205.134756 
L 199.742614 205.275624 
L 199.617924 205.527205 
L 199.503579 206.269292 
L 199.635203 206.583714 
L 199.610991 206.996192 
L 199.482889 207.177339 
L 198.682804 207.426389 
L 198.145966 207.660472 
L 197.955464 207.793746 
L 197.896696 207.894445 
L 197.917496 208.09309 
L 198.149597 208.276769 
L 198.163464 208.347203 
L 197.973072 208.73712 
L 197.599553 208.948532 
L 197.374934 209.589041 
L 197.337076 210.109701 
L 197.562135 210.572584 
L 197.911883 210.783886 
L 198.053851 210.954908 
L 198.06126 211.009266 
L 198.116251 211.412729 
L 198.022816 211.618968 
L 197.901098 211.68544 
L 197.894793 211.687351 
L 197.597131 211.777554 
L 195.666362 213.058351 
L 194.12672 213.506707 
L 193.113132 213.972561 
L 192.418258 214.561345 
L 192.067739 215.655492 
L 192.050351 215.83906 
L 192.225995 216.6693 
L 192.314478 218.213894 
L 191.992353 218.840095 
L 191.355476 219.602102 
L 191.179061 219.712705 
L 190.791895 219.697408 
L 190.601393 220.084794 
L 190.615039 220.45017 
L 190.313714 221.234298 
L 190.334294 221.521096 
L 190.562214 221.825613 
L 191.304962 222.283763 
L 191.831345 222.684356 
L 192.258241 223.43987 
L 192.316789 223.633563 
L 192.309525 223.975718 
L 192.167007 224.903905 
L 192.031862 225.354132 
L 191.86238 225.552777 
L 191.088157 226.148714 
L 190.980966 226.304549 
L 190.966879 226.55613 
L 191.193698 228.080695 
L 191.124475 228.291996 
L 190.816767 228.802532 
L 190.633308 229.476607 
L 190.605025 230.309378 
L 190.547387 230.532838 
L 190.545507 230.540125 
L 190.15865 232.039961 
L 190.141151 232.507906 
L 189.976764 233.359416 
L 189.736156 234.605736 
L 189.57746 234.819569 
L 188.707931 235.445771 
L 188.462843 235.895998 
L 188.397142 236.300993 
L 188.493878 237.471406 
L 188.53867 237.650022 
L 188.683389 237.818623 
L 189.720969 238.329599 
L 190.107035 238.375051 
L 191.017283 238.355242 
L 191.244763 238.458582 
L 191.154849 238.672304 
L 190.661482 239.175247 
L 190.233816 239.487027 
L 190.047606 239.685782 
L 189.426518 240.563138 
L 189.418309 240.574735 
L 189.161019 240.938186 
L 189.01619 241.23753 
L 189.033358 241.378397 
L 189.198547 241.677852 
L 189.876914 242.480578 
L 190.417604 242.845514 
L 190.61724 243.114814 
L 190.654989 243.29343 
L 189.97222 244.349828 
L 189.292533 246.606245 
L 188.455249 247.873835 
L 187.780294 248.746775 
L 186.279392 249.292528 
L 186.15206 249.405773 
L 185.897288 249.906404 
L 185.870435 250.860013 
L 186.121686 251.511637 
L 186.389995 251.881525 
L 186.448543 252.050016 
L 186.438673 252.087819 
L 186.362482 252.379625 
L 186.011413 252.948158 
L 185.698422 253.632358 
L 185.691489 254.050009 
L 185.908183 254.73685 
L 186.004479 255.426112 
L 185.866913 255.614852 
L 184.622104 256.555806 
L 184.715099 256.920631 
L 185.34086 257.685389 
L 185.378718 257.959641 
L 185.213749 258.153335 
L 184.371623 258.797365 
L 184.44734 259.011198 
L 184.421807 259.975262 
L 184.422496 259.98314 
L 184.482006 260.664084 
L 184.454603 260.847762 
L 184.34466 261.013832 
L 183.933502 261.283352 
L 183.86714 261.397257 
L 183.894654 261.610209 
L 184.434353 262.450354 
L 184.839679 262.641516 
L 185.289685 262.621376 
L 185.543908 262.704466 
L 185.653851 262.79493 
L 185.684775 263.19002 
L 185.667607 263.270469 
L 185.451243 263.305686 
L 185.430663 263.411337 
L 185.647027 263.695713 
L 185.979032 263.974661 
L 186.200704 264.160907 
L 186.526901 264.570965 
L 186.561127 265.18484 
L 186.509623 265.343317 
L 186.320772 265.642661 
L 185.688847 266.057781 
L 185.48635 266.334564 
L 185.417677 266.641502 
L 185.83995 267.300609 
L 186.282693 268.206345 
L 186.268937 268.545969 
L 186.17275 268.744725 
L 185.767755 269.260543 
L 185.180953 269.886855 
L 184.134569 270.752421 
L 183.132867 271.421874 
L 182.838035 271.716265 
L 182.742069 271.945286 
L 182.800507 272.325079 
L 182.903516 272.511288 
L 183.30499 272.873473 
L 183.524655 273.26339 
L 183.452791 273.78174 
L 183.22333 274.599434 
L 183.288592 274.926401 
L 183.662662 275.605648 
L 183.878696 275.83709 
L 184.324521 276.008112 
L 185.243353 276.576536 
L 185.332496 276.75273 
L 185.339429 277.052075 
L 185.205715 277.253362 
L 184.794447 277.610704 
L 184.455153 277.675855 
L 183.889591 277.595626 
L 183.557781 277.730551 
L 183.228833 278.075788 
L 183.033599 278.445676 
L 182.965256 278.888529 
L 183.109315 279.268322 
L 183.376634 279.494811 
L 183.373333 279.620601 
L 182.893722 280.108796 
L 182.030686 280.815887 
L 181.712083 280.848793 
L 181.434419 280.645085 
L 181.163578 280.602384 
L 180.595045 280.844061 
L 179.964991 281.29979 
L 178.685185 281.501517 
L 178.28074 281.682444 
L 177.122873 281.792607 
L 175.608103 282.697793 
L 175.395591 283.007262 
L 175.347498 283.253671 
L 175.419363 283.39707 
L 175.66236 283.62609 
L 175.874762 283.669011 
L 176.008256 283.757053 
L 176.131405 283.996088 
L 176.220218 284.35343 
L 176.250813 284.813892 
L 176.168163 285.5989 
L 176.482364 286.708564 
L 176.461674 287.030579 
L 176.36912 287.163964 
L 175.937712 287.344891 
L 175.824688 287.470681 
L 175.673915 287.956235 
L 175.687011 288.970263 
L 175.545999 289.172295 
L 175.543062 289.176503 
L 175.046723 289.639386 
L 174.670232 289.913528 
L 174.033795 290.159936 
L 173.424762 290.326006 
L 173.335729 290.398971 
L 173.051683 291.448877 
L 173.082938 291.929808 
L 172.96375 292.381906 
L 172.974976 292.458723 
L 173.082828 292.516061 
L 173.181875 293.142592 
L 172.850065 293.915054 
L 172.923841 294.036888 
L 173.270578 294.609489 
L 173.807196 295.125417 
L 173.933537 295.613392 
L 173.930015 296.161896 
L 174.073194 297.115505 
L 174.074697 297.122438 
L 174.441762 298.816484 
L 174.792171 299.218178 
L 177.130356 300.778839 
L 177.40725 301.00896 
L 177.857587 301.498256 
L 178.17542 301.959928 
L 178.264563 302.293829 
L 178.228905 302.544199 
L 178.032791 302.697063 
L 177.517523 302.893507 
L 177.308972 303.197914 
L 177.380397 303.497368 
L 177.708025 303.731451 
L 177.953883 303.739155 
L 178.271496 303.6663 
L 179.074332 303.309398 
L 179.232919 303.155654 
L 179.283873 302.833529 
L 179.375988 302.730409 
L 179.662786 302.689909 
L 180.12732 302.780263 
L 180.496547 303.119776 
L 180.64699 303.383904 
L 180.81449 303.54238 
L 181.422423 303.808818 
L 181.613805 304.015058 
L 181.798364 304.404975 
L 181.932079 305.172375 
L 182.113886 305.70206 
L 182.691004 306.220079 
L 183.442226 307.100503 
L 183.718789 307.553371 
L 183.715377 307.8 
L 177.311153 307.622301 
L 158.661321 307.10482 
L 147.116437 306.784482 
L 145.131459 306.729404 
L 137.022817 306.556756 
L 131.798779 306.445526 
L 121.60323 306.228443 
L 121.590904 306.228199 
L 108.441947 305.967071 
L 94.964463 305.699419 
L 93.702815 305.690724 
L 92.104516 299.538652 
L 92.61153 298.865348 
L 92.896237 298.224179 
L 92.531632 297.533487 
L 92.71597 295.997917 
L 92.834497 295.903162 
L 93.454976 296.073083 
L 93.475532 295.615692 
L 93.770718 289.04741 
L 93.897742 284.954539 
L 93.917969 284.302806 
L 93.926003 284.069384 
L 93.936898 283.940622 
L 94.405642 274.359004 
L 94.433677 273.785922 
L 94.826965 268.147485 
L 94.89656 267.149727 
L 95.57751 253.8733 
L 95.651084 252.438833 
L 95.656579 252.366329 
L 95.895951 249.208228 
L 96.113753 243.108967 
L 96.271122 238.702019 
L 96.298855 237.735864 
L 96.316244 236.988384 
L 96.326369 236.910026 
L 96.746566 226.915541 
L 96.7865 225.965696 
L 96.933971 221.070979 
L 96.971499 220.63561 
L 96.871241 220.59544 
L 96.863868 220.162602 
L 96.960384 219.875694 
L 97.340617 219.661531 
L 97.502945 219.475321 
L 97.558082 219.153196 
L 97.536181 218.863977 
L 97.486327 218.869259 
L 97.095929 218.273737 
L 96.986356 218.106592 
L 96.851321 218.001051 
L 96.595999 217.933369 
L 96.565624 217.163438 
L 96.784409 216.926604 
L 96.760088 216.785736 
L 96.324168 216.456237 
L 95.660658 215.565028 
L 95.058888 215.13197 
L 94.477699 214.792016 
L 93.33909 214.542416 
L 93.204165 214.414094 
L 93.166307 214.175059 
L 92.768355 213.988739 
L 91.819258 214.071719 
L 91.699851 214.021975 
L 91.620283 213.882758 
L 91.719771 213.634148 
L 91.975864 213.412392 
L 91.948241 213.34691 
L 91.446399 213.102702 
L 91.851614 212.526575 
L 91.900147 212.383176 
L 91.966069 211.910058 
L 91.962768 211.426926 
L 91.796698 211.134955 
L 91.325781 210.603949 
L 91.076511 210.518328 
L 90.879406 209.02623 
L 90.827021 208.878318 
L 90.653907 208.729857 
L 90.421806 208.624096 
L 90.262449 208.681984 
L 89.940654 209.053743 
L 89.698207 209.000037 
L 89.174685 208.697061 
L 88.47838 208.666907 
L 88.059188 208.855758 
L 86.465731 208.838479 
L 85.867042 209.230378 
L 84.659541 208.949082 
L 84.602644 209.000477 
L 83.892582 209.127919 
L 83.715947 209.107889 
L 83.525335 208.988151 
L 83.196276 209.012473 
L 83.130575 209.203745 
L 83.418473 209.538306 
L 83.41154 209.606319 
L 82.902655 210.092313 
L 82.739887 210.321333 
L 83.142791 211.045702 
L 83.132446 211.174024 
L 83.025254 211.345266 
L 82.551476 211.745419 
L 81.924394 212.062151 
L 81.926595 213.3884 
L 82.023112 213.997433 
L 81.932868 214.264092 
L 81.842735 214.402538 
L 80.987403 215.018505 
L 80.568431 215.219682 
L 80.308926 215.222103 
L 80.070111 215.131419 
L 79.483089 214.879398 
L 78.235638 214.158441 
L 77.859917 213.744752 
L 77.168234 213.581323 
L 76.951099 213.469069 
L 76.696767 213.134288 
L 76.665732 212.996832 
L 76.76522 212.749542 
L 77.353783 211.842376 
L 77.723671 211.374871 
L 77.664463 210.991006 
L 77.481665 210.498188 
L 77.49344 210.347746 
L 78.140662 209.44201 
L 78.158161 209.320842 
L 78.086516 209.140575 
L 77.030998 207.918656 
L 76.956932 207.685894 
L 77.190245 207.019523 
L 77.327371 206.833314 
L 77.512039 206.68078 
L 78.037653 206.438224 
L 78.395325 205.935281 
L 78.501746 205.301486 
L 79.21544 204.065701 
L 79.246805 203.726628 
L 79.288237 203.626509 
L 79.648498 202.75596 
L 79.720253 202.386733 
L 79.525569 201.982508 
L 79.581036 201.77935 
L 79.873887 201.460967 
L 80.286145 201.293796 
L 80.595944 201.05102 
L 80.793379 200.790304 
L 81.006112 200.319167 
L 81.656195 199.454701 
L 81.97733 199.155137 
L 82.550596 198.753003 
L 83.336814 197.914729 
L 83.413411 197.533946 
L 83.324488 196.787567 
L 83.372581 196.050432 
L 83.434431 195.829775 
L 84.179913 194.849483 
L 85.099313 193.640491 
L 85.527419 192.947598 
L 85.539965 192.785159 
L 85.081594 192.258886 
L 84.994983 192.066623 
L 84.774656 191.245078 
L 84.229784 190.774271 
L 83.604023 190.429255 
L 82.704119 189.832768 
L 82.608263 189.634783 
L 82.494028 189.037195 
L 82.382985 188.773508 
L 82.377391 188.764118 
L 82.215154 188.491772 
L 81.944974 188.232157 
L 81.169871 187.785232 
L 80.928855 187.410171 
L 80.900351 187.254226 
L 81.181756 186.465366 
L 81.380402 186.130805 
L 82.098388 185.590335 
L 82.678037 185.365607 
L 82.998291 185.007604 
L 83.156877 184.70749 
L 83.133216 184.605251 
L 82.992348 184.448205 
L 82.195014 183.904543 
L 82.078468 183.643167 
L 82.138447 183.177974 
L 82.376932 182.582257 
L 82.947447 181.535102 
L 82.958342 181.381028 
L 82.709512 180.860588 
L 81.919442 179.687533 
L 80.556215 178.356662 
L 80.404562 178.067883 
L 80.000668 176.81548 
L 79.250547 175.40251 
L 79.157332 175.067288 
L 79.494534 173.319647 
L 79.351685 171.283226 
L 78.864701 170.372097 
L 78.714478 169.889625 
L 78.718 169.58808 
L 78.867342 169.204875 
L 79.44479 166.422406 
L 79.442369 165.900314 
L 79.289942 165.455034 
L 79.250877 165.340915 
L 78.916646 164.721096 
L 78.521776 164.43694 
L 77.883909 164.164228 
L 77.558152 164.081138 
L 77.022524 163.536486 
L 76.716026 163.422251 
L 76.043822 163.000528 
L 75.949177 162.733319 
" clip-path="url(#pe87b66fd62)" style="fill: #00a457"/>
   </g>
   <g id="PathCollection_1">
    <defs>
     <path id="mac7933b872" d="M 0 1.581139 
C 0.419323 1.581139 0.821528 1.41454 1.118034 1.118034 
C 1.41454 0.821528 1.581139 0.419323 1.581139 0 
C 1.581139 -0.419323 1.41454 -0.821528 1.118034 -1.118034 
C 0.821528 -1.41454 0.419323 -1.581139 0 -1.581139 
C -0.419323 -1.581139 -0.821528 -1.41454 -1.118034 -1.118034 
C -1.41454 -0.821528 -1.581139 -0.419323 -1.581139 0 
C -1.581139 0.419323 -1.41454 0.821528 -1.118034 1.118034 
C -0.821528 1.41454 -0.419323 1.581139 0 1.581139 
z
" style="stroke: #000000"/>
    </defs>
    <g clip-path="url(#pe87b66fd62)">
     <use xlink:href="#mac7933b872" x="170.287041" y="138.804497" style="stroke: #000000"/>
    </g>
   </g>
   <g id="text_1">
    <!-- Montpelier -->
    <g transform="translate(173.287041 135.804497) scale(0.1 -0.1)">
     <defs>
      <path id="DejaVuSans-4d" d="M 628 4666 
L 1569 4666 
L 2759 1491 
L 3956 4666 
L 4897 4666 
L 4897 0 
L 4281 0 
L 4281 4097 
L 3078 897 
L 2444 897 
L 1241 4097 
L 1241 0 
L 628 0 
L 628 4666 
z
" transform="scale(0.015625)"/>
      <path id="DejaVuSans-6f" d="M 1959 3097 
Q 1497 3097 1228 2736 
Q 959 2375 959 1747 
Q 959 1119 1226 758 
Q 1494 397 1959 397 
Q 2419 397 2687 759 
Q 2956 1122 2956 1747 
Q 2956 2369 2687 2733 
Q 2419 3097 1959 3097 
z
M 1959 3584 
Q 2709 3584 3137 3096 
Q 3566 2609 3566 1747 
Q 3566 888 3137 398 
Q 2709 -91 1959 -91 
Q 1206 -91 779 398 
Q 353 888 353 1747 
Q 353 2609 779 3096 
Q 1206 3584 1959 3584 
z
" transform="scale(0.015625)"/>
      <path id="DejaVuSans-6e" d="M 3513 2113 
L 3513 0 
L 2938 0 
L 2938 2094 
Q 2938 2591 2744 2837 
Q 2550 3084 2163 3084 
Q 1697 3084 1428 2787 
Q 1159 2491 1159 1978 
L 1159 0 
L 581 0 
L 581 3500 
L 1159 3500 
L 1159 2956 
Q 1366 3272 1645 3428 
Q 1925 3584 2291 3584 
Q 2894 3584 3203 3211 
Q 3513 2838 3513 2113 
z
" transform="scale(0.015625)"/>
      <path id="DejaVuSans-74" d="M 1172 4494 
L 1172 3500 
L 2356 3500 
L 2356 3053 
L 1172 3053 
L 1172 1153 
Q 1172 725 1289 603 
Q 1406 481 1766 481 
L 2356 481 
L 2356 0 
L 1766 0 
Q 1100 0 847 248 
Q 594 497 594 1153 
L 594 3053 
L 172 3053 
L 172 3500 
L 594 3500 
L 594 4494 
L 1172 4494 
z
" transform="scale(0.015625)"/>
      <path id="DejaVuSans-70" d="M 1159 525 
L 1159 -1331 
L 581 -1331 
L 581 3500 
L 1159 3500 
L 1159 2969 
Q 1341 3281 1617 3432 
Q 1894 3584 2278 3584 
Q 2916 3584 3314 3078 
Q 3713 2572 3713 1747 
Q 3713 922 3314 415 
Q 2916 -91 2278 -91 
Q 1894 -91 1617 61 
Q 1341 213 1159 525 
z
M 3116 1747 
Q 3116 2381 2855 2742 
Q 2594 3103 2138 3103 
Q 1681 3103 1420 2742 
Q 1159 2381 1159 1747 
Q 1159 1113 1420 752 
Q 1681 391 2138 391 
Q 2594 391 2855 752 
Q 3116 1113 3116 1747 
z
" transform="scale(0.015625)"/>
      <path id="DejaVuSans-65" d="M 3597 1894 
L 3597 1613 
L 953 1613 
Q 991 1019 1311 708 
Q 1631 397 2203 397 
Q 2534 397 2845 478 
Q 3156 559 3463 722 
L 3463 178 
Q 3153 47 2828 -22 
Q 2503 -91 2169 -91 
Q 1331 -91 842 396 
Q 353 884 353 1716 
Q 353 2575 817 3079 
Q 1281 3584 2069 3584 
Q 2775 3584 3186 3129 
Q 3597 2675 3597 1894 
z
M 3022 2063 
Q 3016 2534 2758 2815 
Q 2500 3097 2075 3097 
Q 1594 3097 1305 2825 
Q 1016 2553 972 2059 
L 3022 2063 
z
" transform="scale(0.015625)"/>
      <path id="DejaVuSans-6c" d="M 603 4863 
L 1178 4863 
L 1178 0 
L 603 0 
L 603 4863 
z
" transform="scale(0.015625)"/>
      <path id="DejaVuSans-69" d="M 603 3500 
L 1178 3500 
L 1178 0 
L 603 0 
L 603 3500 
z
M 603 4863 
L 1178 4863 
L 1178 4134 
L 603 4134 
L 603 4863 
z
" transform="scale(0.015625)"/>
      <path id="DejaVuSans-72" d="M 2631 2963 
Q 2534 3019 2420 3045 
Q 2306 3072 2169 3072 
Q 1681 3072 1420 2755 
Q 1159 2438 1159 1844 
L 1159 0 
L 581 0 
L 581 3500 
L 1159 3500 
L 1159 2956 
Q 1341 3275 1631 3429 
Q 1922 3584 2338 3584 
Q 2397 3584 2469 3576 
Q 2541 3569 2628 3553 
L 2631 2963 
z
" transform="scale(0.015625)"/>
     </defs>
     <use xlink:href="#DejaVuSans-4d"/>
     <use xlink:href="#DejaVuSans-6f" x="86.279297"/>
     <use xlink:href="#DejaVuSans-6e" x="147.460938"/>
     <use xlink:href="#DejaVuSans-74" x="210.839844"/>
     <use xlink:href="#DejaVuSans-70" x="250.048828"/>
     <use xlink:href="#DejaVuSans-65" x="313.525391"/>
     <use xlink:href="#DejaVuSans-6c" x="375.048828"/>
     <use xlink:href="#DejaVuSans-69" x="402.832031"/>
     <use xlink:href="#DejaVuSans-65" x="430.615234"/>
     <use xlink:href="#DejaVuSans-72" x="492.138672"/>
    </g>
   </g>
   <g id="text_2">
    <!-- Vermont -->
    <g transform="translate(159.136875 37.2) scale(0.12 -0.12)">
     <defs>
      <path id="DejaVuSans-56" d="M 1831 0 
L 50 4666 
L 709 4666 
L 2188 738 
L 3669 4666 
L 4325 4666 
L 2547 0 
L 1831 0 
z
" transform="scale(0.015625)"/>
      <path id="DejaVuSans-6d" d="M 3328 2828 
Q 3544 3216 3844 3400 
Q 4144 3584 4550 3584 
Q 5097 3584 5394 3201 
Q 5691 2819 5691 2113 
L 5691 0 
L 5113 0 
L 5113 2094 
Q 5113 2597 4934 2840 
Q 4756 3084 4391 3084 
Q 3944 3084 3684 2787 
Q 3425 2491 3425 1978 
L 3425 0 
L 2847 0 
L 2847 2094 
Q 2847 2600 2669 2842 
Q 2491 3084 2119 3084 
Q 1678 3084 1418 2786 
Q 1159 2488 1159 1978 
L 1159 0 
L 581 0 
L 581 3500 
L 1159 3500 
L 1159 2956 
Q 1356 3278 1631 3431 
Q 1906 3584 2284 3584 
Q 2666 3584 2933 3390 
Q 3200 3197 3328 2828 
z
" transform="scale(0.015625)"/>
     </defs>
     <use xlink:href="#DejaVuSans-56"/>
     <use xlink:href="#DejaVuSans-65" x="60.658203"/>
     <use xlink:href="#DejaVuSans-72" x="122.181641"/>
     <use xlink:href="#DejaVuSans-6d" x="161.544922"/>
     <use xlink:href="#DejaVuSans-6f" x="258.957031"/>
     <use xlink:href="#DejaVuSans-6e" x="320.138672"/>
     <use xlink:href="#DejaVuSans-74" x="383.517578"/>
    </g>
   </g>
  </g>
 </g>
 <defs>
  <clipPath id="pe87b66fd62">
   <rect x="65.094095" y="43.2" width="238.811811" height="277.2"/>
  </clipPath>
 </defs>
</svg>
