<?xml version="1.0" encoding="utf-8" standalone="no"?>
<!DOCTYPE svg PUBLIC "-//W3C//DTD SVG 1.1//EN"
  "http://www.w3.org/Graphics/SVG/1.1/DTD/svg11.dtd">
<svg xmlns:xlink="http://www.w3.org/1999/xlink" width="460.8pt" height="345.6pt" viewBox="0 0 460.8 345.6" xmlns="http://www.w3.org/2000/svg" version="1.1">
 <metadata>
  <rdf:RDF xmlns:dc="http://purl.org/dc/elements/1.1/" xmlns:cc="http://creativecommons.org/ns#" xmlns:rdf="http://www.w3.org/1999/02/22-rdf-syntax-ns#">
   <cc:Work>
    <dc:type rdf:resource="http://purl.org/dc/dcmitype/StillImage"/>
    <dc:date>2023-06-19T14:47:50.412344</dc:date>
    <dc:format>image/svg+xml</dc:format>
    <dc:creator>
     <cc:Agent>
      <dc:title>Matplotlib v3.7.1, https://matplotlib.org/</dc:title>
     </cc:Agent>
    </dc:creator>
   </cc:Work>
  </rdf:RDF>
 </metadata>
 <defs>
  <style type="text/css">*{stroke-linejoin: round; stroke-linecap: butt}</style>
 </defs>
 <g id="figure_1">
  <g id="patch_1">
   <path d="M 0 345.6 
L 460.8 345.6 
L 460.8 0 
L 0 0 
z
" style="fill: #ffffff"/>
  </g>
  <g id="axes_1">
   <g id="PatchCollection_1">
    <path d="M 295.775525 255.636695 
L 299.564978 255.451834 
L 304.371091 257.395322 
L 304.1863 259.246542 
L 299.590177 259.578636 
L 296.330208 258.506119 
L 295.775525 255.636695 
" clip-path="url(#pea8e8ce387)" style="fill: #ffc733"/>
    <path d="M 244.89867 78.542139 
L 248.301432 73.469441 
L 254.366548 72.984878 
L 258.214176 73.015961 
L 259.065955 67.535261 
L 260.540236 66.859948 
L 264.696782 67.661882 
L 264.968991 69.93092 
L 268.7376 70.217208 
L 269.284195 68.879343 
L 271.204587 68.684994 
L 274.036489 70.72631 
L 276.959852 70.445584 
L 279.087745 71.492253 
L 279.595141 73.199839 
L 282.116259 74.849513 
L 283.356285 74.241601 
L 287.518119 76.36046 
L 286.887529 78.84086 
L 285.454312 78.921675 
L 284.631154 80.78402 
L 282.479618 80.148297 
L 277.773678 77.890384 
L 273.861031 77.501032 
L 275.044127 80.700915 
L 276.193313 83.868734 
L 274.830093 87.471711 
L 275.397842 89.687744 
L 274.373716 91.287032 
L 268.464148 88.07766 
L 264.883439 85.828581 
L 257.549987 85.249461 
L 254.846257 87.237118 
L 250.17827 87.216505 
L 246.750932 85.223613 
L 244.892759 81.620636 
L 244.89867 78.542139 
" clip-path="url(#pea8e8ce387)" style="fill: #ffc733"/>
    <path d="M 211.575063 98.413479 
L 215.186258 97.327547 
L 219.523862 97.859552 
L 219.616257 101.090191 
L 215.642013 100.721125 
L 211.297877 101.182458 
L 211.575063 98.413479 
" clip-path="url(#pea8e8ce387)" style="fill: #ffc733"/>
    <path d="M 211.297877 293.319081 
L 218.196107 283.021216 
L 217.212734 278.54138 
L 214.625353 271.836348 
L 217.028254 266.281705 
L 222.20426 263.411953 
L 232.925541 267.114721 
L 242.445683 260.912575 
L 250.856458 259.153949 
L 260.56108 259.936251 
L 268.003104 268.187893 
L 277.182596 268.835722 
L 281.726767 266.837267 
L 289.084174 266.174387 
L 301.93397 266.874239 
L 311.482421 266.768231 
L 316.860327 268.365555 
L 316.664026 270.262582 
L 313.338105 271.924034 
L 310.646819 272.286884 
L 304.964661 273.057735 
L 303.39954 276.241913 
L 294.214448 279.904111 
L 286.05006 282.429336 
L 277.480626 285.259171 
L 269.93874 287.180737 
L 262.307258 288.392308 
L 256.892643 292.270776 
L 255.570176 292.856112 
L 251.41083 288.96652 
L 245.036485 289.179846 
L 231.816486 293.78205 
L 228.581716 291.466879 
L 219.96344 292.167385 
L 212.794246 295.488 
L 211.297877 293.319081 
" clip-path="url(#pea8e8ce387)" style="fill: #ffc733"/>
    <path d="M 207.640639 56.503844 
L 209.764177 53.568 
L 211.768253 54.169369 
L 212.479728 55.600482 
L 212.190721 58.037694 
L 213.423281 60.231151 
L 210.744127 62.098404 
L 208.542194 59.529991 
L 207.640639 56.503844 
" clip-path="url(#pea8e8ce387)" style="fill: #ffc733"/>
    <path d="M 179.133411 88.814484 
L 181.813809 86.230693 
L 184.217021 88.722217 
L 183.385152 92.044795 
L 179.78049 91.860262 
L 179.133411 88.814484 
" clip-path="url(#pea8e8ce387)" style="fill: #ffc733"/>
    <path d="M 155.721304 77.834762 
L 158.569693 75.337675 
L 161.999209 64.55263 
L 163.378917 63.939809 
L 174.333831 70.441658 
L 179.726359 68.60876 
L 186.940973 62.922914 
L 187.905991 59.620622 
L 189.804606 57.567527 
L 191.786595 59.62193 
L 193.420468 63.335823 
L 196.802386 65.863011 
L 200.487622 63.449684 
L 209.166251 69.041954 
L 215.052176 70.146209 
L 222.255902 68.609741 
L 230.629922 68.919149 
L 233.254058 69.016107 
L 241.265076 66.712387 
L 245.066662 67.254208 
L 244.943779 69.766999 
L 242.758645 73.759982 
L 233.525644 73.759982 
L 230.635966 74.284442 
L 227.551368 74.844278 
L 226.872246 76.335267 
L 228.003701 77.478129 
L 233.166951 81.650083 
L 237.213058 86.540211 
L 237.669435 91.35934 
L 235.154851 91.78959 
L 229.834186 86.77644 
L 221.320749 89.250951 
L 219.70523 89.791462 
L 213.423281 87.415762 
L 206.058408 84.335956 
L 202.810572 83.335747 
L 200.501622 85.082923 
L 196.819185 87.199819 
L 195.286107 88.765733 
L 194.047636 86.145624 
L 192.930493 82.510256 
L 190.443596 81.240118 
L 187.079099 79.106863 
L 182.209523 75.169502 
L 178.111152 76.858111 
L 175.050284 77.164684 
L 173.415789 77.080597 
L 157.923548 78.662871 
L 155.459673 79.026702 
L 155.721304 77.834762 
" clip-path="url(#pea8e8ce387)" style="fill: #ffc733"/>
   </g>
   <g id="text_1">
    <!-- VI -->
    <g transform="translate(230.285625 35.472) scale(0.12 -0.12)">
     <defs>
      <path id="DejaVuSans-56" d="M 1831 0 
L 50 4666 
L 709 4666 
L 2188 738 
L 3669 4666 
L 4325 4666 
L 2547 0 
L 1831 0 
z
" transform="scale(0.015625)"/>
      <path id="DejaVuSans-49" d="M 628 4666 
L 1259 4666 
L 1259 0 
L 628 0 
L 628 4666 
z
" transform="scale(0.015625)"/>
     </defs>
     <use xlink:href="#DejaVuSans-56"/>
     <use xlink:href="#DejaVuSans-49" x="68.408203"/>
    </g>
   </g>
  </g>
 </g>
 <defs>
  <clipPath id="pea8e8ce387">
   <rect x="147.38964" y="41.472" width="177.54072" height="266.112"/>
  </clipPath>
 </defs>
</svg>
