<?xml version="1.0" encoding="utf-8" standalone="no"?>
<!DOCTYPE svg PUBLIC "-//W3C//DTD SVG 1.1//EN"
  "http://www.w3.org/Graphics/SVG/1.1/DTD/svg11.dtd">
<svg xmlns:xlink="http://www.w3.org/1999/xlink" width="360pt" height="360pt" viewBox="0 0 360 360" xmlns="http://www.w3.org/2000/svg" version="1.1">
 <metadata>
  <rdf:RDF xmlns:dc="http://purl.org/dc/elements/1.1/" xmlns:cc="http://creativecommons.org/ns#" xmlns:rdf="http://www.w3.org/1999/02/22-rdf-syntax-ns#">
   <cc:Work>
    <dc:type rdf:resource="http://purl.org/dc/dcmitype/StillImage"/>
    <dc:date>2023-06-19T15:20:27.947138</dc:date>
    <dc:format>image/svg+xml</dc:format>
    <dc:creator>
     <cc:Agent>
      <dc:title>Matplotlib v3.7.1, https://matplotlib.org/</dc:title>
     </cc:Agent>
    </dc:creator>
   </cc:Work>
  </rdf:RDF>
 </metadata>
 <defs>
  <style type="text/css">*{stroke-linejoin: round; stroke-linecap: butt}</style>
 </defs>
 <g id="figure_1">
  <g id="patch_1">
   <path d="M 0 360 
L 360 360 
L 360 0 
L 0 0 
z
" style="fill: #ffffff"/>
  </g>
  <g id="axes_1">
   <g id="PatchCollection_1">
    <path d="M 288.544324 186.467235 
L 288.628509 186.400404 
L 288.75793 186.446452 
L 288.894419 186.681171 
L 289.072474 186.796426 
L 289.327856 186.839616 
L 289.385062 186.986662 
L 289.216752 187.140264 
L 289.070669 187.72962 
L 288.915984 187.768991 
L 288.585169 187.537128 
L 288.500472 186.865783 
L 288.544324 186.467235 
" clip-path="url(#p9d475beac4)" style="fill: #00ff00"/>
    <path d="M 287.8223 203.888556 
L 288.067636 203.530552 
L 287.827984 203.284132 
L 287.973255 202.419333 
L 288.105413 201.994557 
L 288.600869 201.399156 
L 288.921368 200.893594 
L 289.136477 199.809023 
L 289.042186 199.472343 
L 289.08673 198.921516 
L 289.241115 198.597829 
L 289.710735 197.915565 
L 289.631963 197.681267 
L 289.637076 197.487782 
L 289.768211 196.935932 
L 290.038662 196.281972 
L 290.329084 195.899815 
L 290.40889 195.446546 
L 290.419886 195.384087 
L 290.30397 195.182362 
L 290.303098 195.019857 
L 290.79714 193.925782 
L 291.253406 193.250376 
L 292.231716 192.108358 
L 292.489715 191.880285 
L 292.458375 191.695854 
L 292.493505 191.297246 
L 292.766993 190.830994 
L 293.178535 190.684159 
L 293.415961 190.534016 
L 293.623853 190.158025 
L 293.603852 189.971428 
L 293.709602 189.782064 
L 293.803201 189.671231 
L 294.183823 189.435699 
L 294.457944 189.045843 
L 294.184726 188.621008 
L 294.004265 188.166577 
L 294.747945 187.781743 
L 295.012621 187.711574 
L 295.433456 187.778465 
L 296.26087 187.716687 
L 296.477935 187.418776 
L 296.858587 187.311612 
L 297.058117 187.113947 
L 297.121369 186.780666 
L 297.282972 186.482213 
L 297.469448 186.423293 
L 297.862763 186.057618 
L 297.999432 185.711013 
L 297.930526 185.320044 
L 297.267572 184.890486 
L 296.940817 184.851266 
L 296.820059 184.90366 
L 296.75407 184.990432 
L 295.961576 185.011305 
L 295.788694 184.980927 
L 295.757444 184.929255 
L 295.821838 184.791533 
L 297.194215 183.823961 
L 297.42722 184.036665 
L 297.739298 183.996001 
L 298.464511 183.388388 
L 298.601571 183.420601 
L 298.890068 183.542713 
L 299.132938 183.49477 
L 299.114201 182.900813 
L 299.21959 182.810462 
L 299.306873 182.624346 
L 299.41521 182.521183 
L 299.438634 182.498233 
L 299.542796 182.396183 
L 299.586317 182.301742 
L 299.636335 182.267906 
L 299.763078 182.235603 
L 299.810329 182.184923 
L 299.829428 182.076105 
L 299.832616 182.075714 
L 301.66977 181.913751 
L 305.116035 181.620922 
L 307.247219 181.444613 
L 307.328308 181.437905 
L 310.08846 181.186523 
L 310.77148 181.12627 
L 310.959245 181.109706 
L 311.318182 181.088592 
L 309.681941 183.133367 
L 309.006295 184.232946 
L 308.426173 185.059999 
L 308.009999 185.666228 
L 307.639543 186.017045 
L 307.382566 186.227913 
L 307.162494 186.361846 
L 306.999538 186.34013 
L 306.909307 186.227492 
L 306.840431 185.986697 
L 306.657805 185.827831 
L 305.818179 185.808913 
L 305.407119 185.831501 
L 304.995668 186.006698 
L 304.536394 186.373094 
L 303.895186 186.940674 
L 302.944427 188.016523 
L 302.011533 189.477205 
L 301.679094 189.827691 
L 301.506302 190.20311 
L 301.275222 190.941677 
L 301.057165 191.131191 
L 300.806805 192.032053 
L 300.449552 193.089254 
L 300.12785 193.652654 
L 300.163582 194.355008 
L 300.177898 194.615594 
L 300.549618 194.717585 
L 300.49957 194.921566 
L 300.089081 195.386193 
L 299.287293 196.425258 
L 298.372866 197.430306 
L 297.968964 197.583457 
L 298.036878 198.045858 
L 298.263231 198.031706 
L 298.626625 198.008984 
L 298.808921 198.389186 
L 298.580998 198.768334 
L 298.232558 199.087059 
L 297.619832 199.78818 
L 296.933328 200.755812 
L 296.734941 201.140285 
L 296.786102 201.198333 
L 296.754311 201.44764 
L 296.479469 201.8898 
L 295.590036 202.786992 
L 295.186525 203.040239 
L 295.127905 203.038856 
L 295.011568 202.925947 
L 294.792639 202.937587 
L 294.596087 203.067038 
L 294.69131 203.636212 
L 294.694859 204.546518 
L 294.456259 204.870866 
L 294.451808 205.13843 
L 294.251647 205.474268 
L 293.95142 205.588139 
L 294.080088 205.895584 
L 294.026461 206.160381 
L 293.61901 206.456518 
L 293.505981 206.767211 
L 292.854096 207.211266 
L 292.213339 207.899815 
L 291.9517 208.186117 
L 291.62299 208.428175 
L 291.339185 208.543791 
L 291.06693 208.604666 
L 291.195598 208.282603 
L 290.705917 208.060305 
L 290.262284 208.214479 
L 290.162038 208.353675 
L 289.883827 208.376654 
L 289.948161 208.798511 
L 290.235876 208.950821 
L 290.266495 209.28326 
L 289.880248 209.457104 
L 289.379919 209.410515 
L 289.136778 209.206173 
L 289.147365 208.957197 
L 289.42341 208.411001 
L 289.436223 208.102623 
L 289.193232 207.246125 
L 288.574732 206.301682 
L 288.35075 206.119086 
L 288.140904 205.801594 
L 288.119639 205.383616 
L 288.217179 205.01319 
L 288.11218 204.898838 
L 287.759469 204.236365 
L 287.8223 203.888556 
" clip-path="url(#p9d475beac4)" style="fill: #00ff00"/>
    <path d="M 287.280104 183.285044 
L 287.288796 183.284864 
L 287.628063 183.295421 
L 287.647884 183.291812 
L 287.862583 183.288708 
L 287.880949 183.288443 
L 287.90447 183.288684 
L 288.356951 183.295213 
L 288.717356 183.300414 
L 288.439898 183.465596 
L 288.004926 183.851662 
L 287.556811 184.457801 
L 287.457227 184.036725 
L 287.134562 183.297496 
L 287.280104 183.285044 
" clip-path="url(#p9d475beac4)" style="fill: #00ff00"/>
    <path d="M 57.70585 223.916398 
L 57.750965 223.868275 
L 57.976541 223.83519 
L 58.036695 223.805114 
L 58.214148 223.654729 
L 58.460809 223.507323 
L 58.496871 223.326862 
L 58.590139 223.281746 
L 58.752554 223.2637 
L 58.896923 223.320846 
L 59.080392 223.284754 
L 59.197691 223.251669 
L 59.351083 223.167454 
L 59.456352 223.065193 
L 59.513498 222.986993 
L 59.712005 222.893755 
L 59.781182 222.872701 
L 59.820282 222.875709 
L 59.859382 222.89977 
L 59.928559 222.893725 
L 60.415834 222.764394 
L 60.632387 222.752364 
L 60.857963 222.635064 
L 60.981278 222.553857 
L 61.074517 222.466634 
L 61.33017 222.391442 
L 61.534692 222.370388 
L 61.700115 222.307226 
L 61.961784 222.147819 
L 61.964791 222.105712 
L 61.997876 222.054581 
L 62.067053 222.018489 
L 62.142245 222.024474 
L 62.476128 221.976351 
L 62.605458 221.931236 
L 62.749827 221.943266 
L 62.91525 221.931236 
L 62.960365 221.898151 
L 63.017511 221.889128 
L 63.140826 221.901159 
L 63.29124 221.973343 
L 63.480724 222.018459 
L 63.965774 222.063123 
L 64.13023 222.057762 
L 64.13646 222.057558 
L 64.220645 222.030489 
L 64.319899 222.060566 
L 64.518436 222.045528 
L 64.737997 221.997405 
L 64.867327 222.018459 
L 65.011696 222.009436 
L 65.252341 221.982366 
L 65.378664 221.949252 
L 65.610255 221.880075 
L 66.091515 221.699614 
L 66.118584 221.675552 
L 66.0975 221.633415 
L 66.106553 221.618406 
L 66.287015 221.452984 
L 66.383471 221.404771 
L 66.94272 221.221392 
L 67.047989 221.164246 
L 67.105135 221.158231 
L 67.162281 221.194323 
L 67.192358 221.194323 
L 67.276573 221.161238 
L 67.330681 221.117116 
L 67.360547 221.100694 
L 67.445003 221.080031 
L 67.478088 221.049954 
L 67.685648 220.962731 
L 68.500761 220.755171 
L 68.581968 220.728102 
L 68.630091 220.69201 
L 68.759422 220.658925 
L 69.339935 220.586741 
L 69.367004 220.580725 
L 69.403096 220.544633 
L 69.70991 220.460418 
L 69.800141 220.466433 
L 69.896387 220.445379 
L 70.067825 220.370187 
L 70.311477 220.346126 
L 70.588184 220.240857 
L 70.822814 220.186718 
L 70.885975 220.192734 
L 71.379235 220.060396 
L 71.989825 219.873919 
L 72.143247 219.813766 
L 72.71173 219.810758 
L 72.961368 219.822789 
L 73.138821 219.801735 
L 73.28319 219.732558 
L 73.602035 219.744559 
L 73.89378 219.705459 
L 73.956971 219.60019 
L 74.056225 219.503944 
L 74.151298 219.472664 
L 74.138094 219.305978 
L 74.121823 219.261043 
L 74.184803 219.166722 
L 74.21461 219.158421 
L 74.216805 219.154481 
L 74.011621 219.064521 
L 74.017366 219.028068 
L 74.048676 218.983103 
L 74.119386 218.899399 
L 74.131417 218.727961 
L 74.035171 218.550508 
L 74.122394 218.433208 
L 74.286403 218.395131 
L 74.412636 218.3086 
L 74.546508 218.111386 
L 74.663807 217.982056 
L 74.74694 217.928128 
L 74.895429 217.792541 
L 75.033783 217.563957 
L 75.021752 217.302289 
L 74.994683 217.245143 
L 74.937537 217.191004 
L 74.925506 217.145889 
L 74.934529 217.11882 
L 75.021752 217.037612 
L 75.250366 216.959413 
L 75.319543 216.91129 
L 75.379696 216.845121 
L 75.599288 216.772936 
L 75.734633 216.763913 
L 75.776741 216.643606 
L 75.722603 216.472168 
L 75.812833 216.35186 
L 75.912087 216.381937 
L 76.005355 216.433068 
L 76.071524 216.439083 
L 76.176793 216.375922 
L 76.417408 216.43006 
L 76.564784 216.436076 
L 76.664068 216.399983 
L 76.727229 216.357876 
L 77.187435 216.324791 
L 77.217512 216.330807 
L 77.262627 216.439083 
L 77.337819 216.490214 
L 77.617534 216.571421 
L 77.718743 216.571241 
L 77.813064 216.553375 
L 77.88224 216.436076 
L 78.044956 216.290474 
L 78.335769 216.215071 
L 78.620898 216.198348 
L 78.796306 216.216274 
L 78.840248 216.256276 
L 78.890807 216.258712 
L 79.170462 216.11284 
L 79.449274 216.004082 
L 79.873719 215.970305 
L 80.329774 215.770294 
L 80.648167 215.76073 
L 80.652198 215.76058 
L 80.693553 215.766384 
L 80.769979 215.746804 
L 80.784957 215.718622 
L 80.763061 215.6708 
L 80.763753 215.625204 
L 80.81356 215.595398 
L 81.140796 215.523063 
L 81.303722 215.458638 
L 81.375937 215.380348 
L 81.466198 215.332616 
L 81.620612 215.314329 
L 81.648373 215.299291 
L 81.669637 215.231378 
L 81.659226 215.202729 
L 81.646268 215.167073 
L 81.712467 215.09919 
L 81.809465 215.068361 
L 81.904056 214.933857 
L 81.829075 214.884501 
L 81.681337 214.746629 
L 81.719174 214.678715 
L 81.792501 214.616126 
L 81.841857 214.581327 
L 81.992843 214.44571 
L 82.050711 214.356743 
L 82.102563 214.315086 
L 82.148431 214.257098 
L 82.205907 214.226871 
L 82.247925 214.150356 
L 82.268076 214.097901 
L 82.253158 214.002016 
L 82.243443 213.99155 
L 82.190719 213.859994 
L 82.156221 213.803539 
L 82.168311 213.637154 
L 82.187831 213.607318 
L 82.207802 213.51005 
L 82.3242 213.407878 
L 82.33605 213.367666 
L 82.2537 213.360808 
L 82.190809 213.301286 
L 82.12067 213.248652 
L 82.080216 213.242095 
L 82.044335 213.239057 
L 81.985565 213.085725 
L 81.899184 213.016067 
L 81.89786 213.001179 
L 81.92225 212.818111 
L 81.930674 212.75488 
L 81.95257 212.685733 
L 81.980241 212.654544 
L 82.005686 212.638483 
L 82.025837 212.631866 
L 82.059223 212.609669 
L 82.118865 212.580645 
L 82.189997 212.632076 
L 82.268949 212.631745 
L 82.304078 212.607113 
L 82.314635 212.513243 
L 82.395482 212.424155 
L 82.429018 212.430622 
L 82.465621 212.444637 
L 82.524812 212.475256 
L 82.657962 212.46524 
L 82.770751 212.373626 
L 82.806873 212.365956 
L 82.852048 212.368543 
L 82.928474 212.314104 
L 82.99359 212.219783 
L 83.085054 212.17551 
L 83.135493 212.052315 
L 83.09149 211.949933 
L 83.110348 211.871433 
L 83.151524 211.806707 
L 83.252822 211.789504 
L 83.329218 211.854199 
L 83.355866 211.846619 
L 83.418516 211.791519 
L 83.469917 211.793053 
L 83.537831 211.761923 
L 83.603067 211.818347 
L 83.99551 211.739426 
L 84.087064 211.687994 
L 84.126164 211.722643 
L 84.140962 211.776781 
L 84.167159 211.800933 
L 84.208755 211.813204 
L 84.285481 211.775037 
L 84.298354 211.759908 
L 84.339559 211.737892 
L 84.345424 211.732929 
L 84.548533 211.730463 
L 84.661562 211.601764 
L 84.69218 211.518812 
L 84.859798 211.505668 
L 85.00152 211.348697 
L 85.021822 211.2834 
L 85.239368 211.156266 
L 85.393482 211.178703 
L 85.459621 211.207667 
L 85.493818 211.253293 
L 85.576048 211.219998 
L 85.648804 211.080893 
L 85.705288 210.733265 
L 85.742283 210.685653 
L 86.008493 210.639184 
L 86.065068 210.671607 
L 86.228776 210.712181 
L 86.264382 210.697165 
L 86.275846 210.69233 
L 86.343279 210.62186 
L 86.319007 210.546217 
L 86.323548 210.401246 
L 86.349835 210.235463 
L 86.300208 210.09729 
L 86.227783 209.967117 
L 86.206429 209.782175 
L 86.304931 209.706802 
L 86.36722 209.716878 
L 86.467165 209.701358 
L 86.515679 209.655822 
L 86.501723 209.585923 
L 86.472278 209.551786 
L 86.399673 209.517077 
L 86.326195 209.422065 
L 86.268628 209.214143 
L 86.286554 209.18151 
L 86.352091 209.141839 
L 86.368994 208.932293 
L 86.359249 208.799564 
L 86.228325 208.614201 
L 86.223663 208.51997 
L 86.231122 208.492991 
L 86.354557 208.364082 
L 86.467737 208.30095 
L 86.52789 208.306184 
L 86.782461 208.204073 
L 87.149488 208.02283 
L 87.482319 207.892868 
L 87.637906 207.900688 
L 87.718001 207.919034 
L 87.875453 207.814397 
L 87.990136 207.708978 
L 88.148581 207.65135 
L 88.298394 207.616491 
L 88.379842 207.448753 
L 88.424717 207.427308 
L 88.473501 207.409442 
L 89.019486 207.338581 
L 89.278598 207.077875 
L 89.502821 206.921566 
L 89.777513 206.773648 
L 90.103636 206.652107 
L 90.244426 206.552764 
L 90.23041 206.502565 
L 90.2539 206.478895 
L 90.426331 206.395402 
L 90.658825 206.308931 
L 91.068254 206.08052 
L 91.069644 206.079745 
L 91.284724 205.974837 
L 91.414466 205.878195 
L 91.415348 205.877538 
L 91.519504 205.828904 
L 92.078482 205.599147 
L 92.169946 205.549671 
L 92.298735 205.513127 
L 92.538241 205.402778 
L 92.783634 205.289716 
L 92.797078 205.27943 
L 93.068883 205.149588 
L 93.145578 205.134009 
L 93.415999 205.043297 
L 93.442407 205.024469 
L 93.838338 204.893183 
L 94.145182 204.811284 
L 94.327358 204.811404 
L 94.478284 204.682946 
L 94.563521 204.642373 
L 94.967634 204.564684 
L 95.109175 204.556202 
L 95.49828 204.419112 
L 96.473431 204.169474 
L 96.544954 204.153744 
L 96.746168 204.161384 
L 97.108895 204.025587 
L 97.385361 204.001375 
L 97.517549 203.945522 
L 97.784631 203.734022 
L 97.791218 203.530191 
L 97.938805 203.564749 
L 98.100378 203.490339 
L 98.309442 203.461195 
L 98.479737 203.330541 
L 98.526717 203.226746 
L 98.536101 203.146741 
L 98.567832 203.109326 
L 98.619433 203.068852 
L 98.766731 202.953317 
L 99.293286 202.605147 
L 100.422852 201.820051 
L 101.976742 200.728382 
L 102.005105 200.69629 
L 104.317743 199.127362 
L 106.183861 197.814838 
L 106.542408 197.525619 
L 109.026484 195.803088 
L 108.996949 195.907545 
L 109.047959 195.952961 
L 109.295221 195.880626 
L 109.354863 195.881288 
L 109.367857 195.90953 
L 109.353149 195.941201 
L 109.345419 196.04241 
L 109.377391 196.083043 
L 109.47081 196.096097 
L 109.696446 195.985233 
L 109.756961 196.008633 
L 109.757833 196.028604 
L 109.650639 196.111917 
L 109.64718 196.185605 
L 109.664474 196.220705 
L 109.766495 196.301943 
L 110.08546 196.369435 
L 110.286885 196.512631 
L 110.276508 196.547731 
L 110.24575 196.572739 
L 110.242401 196.575461 
L 110.109792 196.580184 
L 109.84295 196.654714 
L 109.785985 196.681001 
L 109.751607 196.730117 
L 109.759908 196.851838 
L 109.698401 196.882757 
L 109.601223 196.86847 
L 109.52173 196.878275 
L 109.482149 196.900412 
L 109.454177 196.945286 
L 109.445545 197.057714 
L 109.45147 197.081234 
L 109.49454 197.115521 
L 109.496164 197.172306 
L 109.47863 197.187676 
L 109.359856 197.195466 
L 109.126069 197.135793 
L 108.953307 197.243589 
L 108.74689 197.403026 
L 108.699489 197.402996 
L 108.66466 197.377641 
L 108.502967 197.370603 
L 108.378268 197.394725 
L 108.286022 197.452171 
L 108.175881 197.640573 
L 108.203822 197.847261 
L 108.305452 198.115456 
L 108.463777 198.29706 
L 108.527389 198.313993 
L 108.674104 198.226921 
L 108.789509 198.227643 
L 109.011506 198.39878 
L 108.995054 198.43403 
L 109.108143 198.536472 
L 109.315974 198.502575 
L 109.595839 198.573496 
L 109.704176 198.738107 
L 109.791669 198.746679 
L 109.842229 198.729956 
L 109.912368 198.730618 
L 110.009275 198.792757 
L 110.018449 198.853121 
L 109.942595 198.98182 
L 109.860936 199.073644 
L 109.969303 199.348487 
L 110.104108 199.489938 
L 110.374408 199.605373 
L 110.34358 199.718642 
L 110.305743 199.740869 
L 110.258402 199.741771 
L 110.177074 199.788481 
L 110.154697 199.89781 
L 110.23007 200.005997 
L 110.215091 200.13274 
L 110.070031 200.271936 
L 109.975499 200.527198 
L 110.001726 200.592645 
L 110.061639 200.615444 
L 110.095235 200.722728 
L 110.061188 200.767302 
L 110.172502 200.948334 
L 110.180894 200.952515 
L 110.277681 201.011796 
L 110.223543 201.131292 
L 110.280929 201.182513 
L 110.309382 201.231417 
L 110.431855 201.258276 
L 110.457721 201.288563 
L 110.470714 201.349138 
L 110.579021 201.47113 
L 110.721194 201.47134 
L 110.73515 201.486379 
L 110.753557 201.489687 
L 110.843186 201.638447 
L 110.86042 201.658418 
L 110.889113 201.669216 
L 110.901836 201.668765 
L 110.966501 201.660494 
L 110.990653 201.681848 
L 111.095832 201.719083 
L 111.096914 201.743897 
L 111.20092 201.993835 
L 111.216319 201.992181 
L 111.237133 201.992482 
L 111.238005 202.01146 
L 111.267931 202.049839 
L 111.29491 202.048966 
L 111.449926 202.018228 
L 111.473085 202.031191 
L 111.52954 202.032996 
L 111.655532 202.018529 
L 111.69418 201.990617 
L 111.720889 202.000272 
L 111.732017 202.087976 
L 111.886311 202.201426 
L 111.902884 202.25409 
L 111.977534 202.333704 
L 112.060396 202.328561 
L 112.275686 202.482644 
L 112.285882 202.535279 
L 112.172071 202.587462 
L 112.120429 202.650924 
L 112.11279 202.670053 
L 112.126746 202.689453 
L 112.140551 202.702536 
L 112.222631 202.785428 
L 112.295026 202.811986 
L 112.403062 202.752524 
L 112.450342 202.757697 
L 112.474855 202.931872 
L 112.464839 202.94273 
L 112.450192 202.957197 
L 112.479577 203.112814 
L 112.462403 203.215407 
L 112.477682 203.325217 
L 112.586019 203.399627 
L 112.68052 203.417012 
L 112.79 203.38883 
L 112.815776 203.389732 
L 112.922489 203.366062 
L 113.052721 203.393943 
L 113.08358 203.42044 
L 113.054075 203.464022 
L 113.051579 203.503813 
L 113.334451 203.570795 
L 113.498069 203.574554 
L 113.585984 203.560899 
L 113.690651 203.524025 
L 113.770746 203.46721 
L 113.812102 203.466518 
L 113.870812 203.461345 
L 113.926454 203.387747 
L 113.989826 203.378904 
L 114.28097 203.411327 
L 114.295407 203.450427 
L 114.279646 203.491031 
L 114.286083 203.50649 
L 114.386827 203.43962 
L 114.41033 203.42402 
L 114.595964 203.479241 
L 114.709053 203.55738 
L 114.709414 203.635219 
L 114.7705 203.680966 
L 114.847858 203.711825 
L 114.849753 203.713028 
L 115.055689 203.730803 
L 115.135152 203.704246 
L 115.176027 203.700666 
L 115.207908 203.695463 
L 115.238707 203.685778 
L 115.284784 203.699584 
L 115.362653 203.73721 
L 115.359676 203.799439 
L 115.360157 203.823801 
L 115.365661 203.857307 
L 115.441425 203.926183 
L 115.504586 203.959448 
L 115.528317 203.990908 
L 115.553371 204.004052 
L 115.66267 204.028173 
L 115.709199 204.050189 
L 115.727365 204.118374 
L 115.72917 204.21477 
L 115.802467 204.30494 
L 115.842951 204.315257 
L 115.863643 204.337273 
L 115.787519 204.531299 
L 115.790075 204.583723 
L 115.763878 204.634252 
L 115.772541 204.683879 
L 115.914693 204.794893 
L 115.93676 204.812126 
L 116.093852 204.816247 
L 116.248025 204.765236 
L 116.308871 204.744213 
L 116.40241 204.745085 
L 116.507889 204.826533 
L 116.607323 204.930719 
L 116.622903 205.097646 
L 117.127472 205.415558 
L 117.242998 205.554844 
L 117.495523 205.56883 
L 117.590957 205.618547 
L 117.576881 205.629194 
L 117.599258 205.793083 
L 117.656073 205.853687 
L 117.739566 205.888787 
L 117.751387 205.918383 
L 121.287973 205.762585 
L 121.356307 205.718011 
L 121.387527 205.731485 
L 121.400249 205.744178 
L 121.423499 205.740027 
L 121.499262 205.709048 
L 121.630157 205.549971 
L 121.751577 205.356487 
L 121.774857 205.338561 
L 122.11674 205.258767 
L 122.285531 205.186493 
L 122.487918 205.153498 
L 122.847126 204.983564 
L 122.891069 204.946389 
L 122.9231 204.781809 
L 122.918047 204.625499 
L 122.964606 204.528411 
L 122.986021 204.455686 
L 123.015436 204.381576 
L 123.145248 204.217778 
L 123.178302 204.221567 
L 123.178363 204.242892 
L 123.158151 204.2616 
L 123.170182 204.319016 
L 123.239569 204.38717 
L 123.343364 204.430271 
L 123.605875 204.440978 
L 123.708587 204.425428 
L 123.820263 204.30494 
L 124.251083 204.161414 
L 124.314455 204.08177 
L 124.318245 204.041046 
L 124.29686 203.992141 
L 124.34769 203.963899 
L 124.488931 203.947868 
L 124.643255 203.870149 
L 124.666806 203.840313 
L 125.131042 203.77649 
L 125.278539 203.827079 
L 125.617896 203.76094 
L 125.770385 203.546914 
L 125.83102 203.43578 
L 125.826448 203.411357 
L 125.842479 203.374242 
L 126.005857 203.057654 
L 125.966877 202.991575 
L 126.053047 202.905374 
L 126.173656 202.866124 
L 126.214801 202.820016 
L 126.198559 202.764073 
L 126.158106 202.720522 
L 126.162738 202.635435 
L 126.290895 202.461711 
L 126.476018 202.356683 
L 126.518276 202.339509 
L 126.545857 202.351209 
L 126.572805 202.388895 
L 126.596476 202.395993 
L 126.715821 202.418791 
L 126.800337 202.400474 
L 126.887379 202.395452 
L 126.942871 202.3479 
L 126.98182 202.229999 
L 127.093586 202.126113 
L 127.080623 202.069629 
L 127.043508 202.035913 
L 127.040049 201.998046 
L 127.078818 201.98012 
L 127.110038 201.917531 
L 127.132205 201.874731 
L 127.257294 201.821796 
L 128.522056 202.975664 
L 129.894143 203.906493 
L 131.379386 204.914087 
L 131.990849 204.669291 
L 132.791584 204.219161 
L 133.126099 204.071724 
L 133.368669 203.996502 
L 133.866741 203.882722 
L 134.763272 203.602044 
L 135.297918 203.477436 
L 135.622989 203.424471 
L 137.031217 203.248521 
L 137.490009 203.131462 
L 137.895445 203.073414 
L 138.13248 203.019426 
L 138.269721 202.968987 
L 138.763703 202.886757 
L 138.77823 202.937827 
L 138.685985 203.074918 
L 138.71158 203.151854 
L 138.74695 203.17357 
L 138.935141 203.21264 
L 139.155695 203.191165 
L 139.716929 203.079459 
L 140.010509 202.946941 
L 140.221558 202.868921 
L 140.344211 202.844529 
L 140.578239 202.769938 
L 141.141398 202.504149 
L 141.755928 202.085991 
L 142.090293 201.795148 
L 142.200524 201.736498 
L 142.677844 201.544427 
L 141.661337 200.430862 
L 142.277521 199.591838 
L 142.226571 199.521128 
L 142.204946 199.436431 
L 142.205728 199.348276 
L 142.266062 199.206404 
L 142.373703 199.058599 
L 142.373917 199.058305 
L 142.40648 199.096421 
L 142.409889 199.100413 
L 142.450884 199.133979 
L 142.566199 199.13849 
L 142.641601 199.163755 
L 142.771894 199.244 
L 142.835386 199.239157 
L 142.911812 199.166492 
L 143.031939 199.175906 
L 143.068993 199.215096 
L 143.81511 199.72183 
L 143.90143 199.759005 
L 143.973945 199.823731 
L 143.950606 199.907074 
L 143.980833 200.005545 
L 144.15173 200.075805 
L 144.199191 200.07373 
L 144.456408 200.07791 
L 144.640749 200.110423 
L 144.666736 200.164381 
L 144.664991 200.228866 
L 144.697685 200.277981 
L 144.86398 200.424907 
L 144.867499 200.438502 
L 145.065013 200.778851 
L 145.371677 200.703088 
L 145.707455 200.54765 
L 145.80355 200.545816 
L 146.028736 200.472549 
L 146.222761 200.407492 
L 146.463165 200.300689 
L 146.707299 200.227121 
L 147.016369 200.109491 
L 147.422226 199.895013 
L 147.636764 199.808362 
L 148.226421 199.520075 
L 148.252257 199.519925 
L 148.475577 199.418716 
L 148.568755 199.360698 
L 148.800227 199.281505 
L 149.069294 199.121376 
L 149.051038 199.088743 
L 149.056301 199.0642 
L 149.146201 199.008408 
L 149.207106 198.981399 
L 149.387567 198.945216 
L 149.498882 198.945848 
L 149.515334 198.865783 
L 149.675192 198.761296 
L 150.174408 198.558879 
L 150.439896 198.400464 
L 150.474093 198.344642 
L 150.60595 198.243644 
L 151.194223 197.945251 
L 151.340246 197.849005 
L 151.623149 197.735074 
L 151.839703 197.701027 
L 151.991591 197.70608 
L 152.182188 197.649566 
L 152.21458 197.627971 
L 152.33558 197.620632 
L 152.481994 197.634557 
L 152.732895 197.5846 
L 152.784928 197.558132 
L 152.845623 197.491181 
L 153.399337 198.21071 
L 153.270037 198.600806 
L 153.342613 198.892822 
L 153.922073 199.257384 
L 154.006414 199.232389 
L 154.246332 199.161288 
L 154.472118 198.977128 
L 154.650955 198.923832 
L 154.901856 198.800908 
L 155.424261 198.447505 
L 156.111216 198.133322 
L 156.199522 198.073409 
L 156.721205 197.8312 
L 156.84834 197.800702 
L 157.039508 197.719855 
L 157.11479 197.643761 
L 157.303643 197.54144 
L 157.193321 197.394725 
L 157.886562 197.176096 
L 158.239995 197.128093 
L 158.388425 197.079008 
L 158.583202 196.973619 
L 158.75828 196.91157 
L 158.92295 196.853311 
L 158.907852 196.824829 
L 159.209944 196.691167 
L 159.733401 195.931847 
L 159.45492 195.841977 
L 158.922499 196.116399 
L 158.292089 195.849827 
L 158.376815 195.736197 
L 158.470204 195.705218 
L 158.564495 195.69418 
L 158.768566 195.612942 
L 158.830855 195.549209 
L 158.346287 195.00554 
L 159.357531 194.570779 
L 159.731747 194.368934 
L 160.095617 194.198458 
L 160.299598 194.131537 
L 160.439184 194.067624 
L 160.714057 193.868575 
L 161.000027 193.722883 
L 161.428773 193.328937 
L 161.507905 193.234916 
L 161.58015 193.097104 
L 161.029623 192.799193 
L 160.574169 192.658433 
L 160.573026 192.659005 
L 160.307989 192.576324 
L 160.307688 192.575752 
L 160.2614 192.56297 
L 160.260077 192.563421 
L 160.189276 192.548382 
L 160.182448 192.545465 
L 160.095316 192.460618 
L 160.096188 192.459024 
L 159.824023 192.215552 
L 159.436452 191.413853 
L 159.434076 191.406515 
L 159.319754 191.171705 
L 159.38081 191.109476 
L 159.591378 191.03275 
L 159.955308 190.688641 
L 160.04605 190.577717 
L 160.274153 190.35954 
L 160.462524 190.304619 
L 160.614893 190.145603 
L 160.640459 190.104638 
L 160.646564 190.027521 
L 160.397257 189.916478 
L 160.323509 189.771537 
L 160.48454 189.237733 
L 160.514647 189.229071 
L 160.658655 189.24429 
L 160.713756 189.206845 
L 160.694597 189.080823 
L 160.667768 189.030985 
L 160.800618 188.870044 
L 160.966401 188.835937 
L 161.248492 188.650122 
L 161.295201 188.569396 
L 161.384229 188.551831 
L 161.554795 188.569757 
L 161.680907 188.615413 
L 161.703013 188.637039 
L 161.715074 188.625339 
L 161.740339 188.594179 
L 161.733301 188.458593 
L 161.651372 188.419433 
L 161.606978 188.423373 
L 161.370183 188.166095 
L 161.324346 188.147538 
L 161.332196 188.077489 
L 161.39644 187.950384 
L 161.651522 187.622637 
L 161.70181 187.630998 
L 161.723165 187.621524 
L 161.881489 187.537971 
L 162.016324 187.436551 
L 162.035603 187.347795 
L 162.125473 187.187816 
L 162.22232 187.089555 
L 162.372193 186.961668 
L 162.620929 186.781748 
L 162.759643 186.763642 
L 162.831136 186.721294 
L 162.705896 186.508981 
L 162.720724 186.393607 
L 162.75823 186.331107 
L 162.911712 186.291857 
L 163.051148 186.110283 
L 163.052441 186.047783 
L 163.144958 185.898241 
L 163.348127 185.657446 
L 163.59987 185.455871 
L 163.746675 185.303441 
L 163.795851 185.332195 
L 163.831522 185.376799 
L 163.957333 185.43205 
L 164.258583 185.225001 
L 164.285381 185.188999 
L 164.302706 185.113897 
L 164.330046 185.085625 
L 164.508552 184.971062 
L 164.526568 184.967964 
L 164.598993 185.007395 
L 164.685193 184.977769 
L 164.693223 184.891719 
L 164.644319 184.848499 
L 164.648499 184.800496 
L 164.711149 184.719951 
L 165.013873 184.467125 
L 165.130812 184.340411 
L 165.322341 184.364442 
L 165.611349 184.020513 
L 165.79575 183.840684 
L 165.957624 183.717279 
L 165.985505 183.639319 
L 166.224466 183.490439 
L 166.311298 183.466468 
L 166.517114 183.350221 
L 166.532447 183.336943 
L 166.691439 183.199265 
L 166.770631 183.180347 
L 167.136787 182.866375 
L 167.499754 182.596074 
L 167.831291 182.375129 
L 167.849037 182.322615 
L 167.838931 182.279184 
L 167.859924 182.243393 
L 167.959328 182.177314 
L 168.151249 182.119055 
L 168.245179 182.026569 
L 168.342929 181.871553 
L 168.365065 181.801985 
L 168.349936 181.727334 
L 168.377487 181.665316 
L 168.523991 181.503111 
L 168.643456 181.47496 
L 168.682556 181.401933 
L 168.653983 181.357449 
L 168.659187 181.325237 
L 168.819466 181.071509 
L 168.875499 181.026815 
L 168.926479 181.020919 
L 168.970482 180.996948 
L 169.017642 180.922328 
L 169.06384 180.815675 
L 169.015357 180.736212 
L 169.011808 180.698315 
L 169.091932 180.568323 
L 169.183426 180.466573 
L 169.434417 179.985704 
L 169.426928 179.835922 
L 169.599088 179.483421 
L 169.624954 179.450728 
L 169.757172 179.367896 
L 169.960161 179.146831 
L 170.083175 179.051999 
L 170.178609 178.997861 
L 170.204204 178.963934 
L 170.2144 178.918849 
L 170.300931 178.851657 
L 170.402862 178.748674 
L 170.442413 178.678745 
L 170.341445 178.617208 
L 170.200775 178.601538 
L 170.089882 178.570228 
L 170.062783 178.544362 
L 169.8856 177.943847 
L 169.948641 177.861196 
L 170.219212 177.825856 
L 170.361175 177.697638 
L 170.369717 177.55733 
L 170.371642 177.542532 
L 170.467016 177.382854 
L 170.474866 177.375997 
L 170.538809 177.363695 
L 170.673042 177.245914 
L 170.786672 176.862916 
L 170.781228 176.845952 
L 170.750941 176.835726 
L 170.695239 176.836598 
L 170.665493 176.775242 
L 170.674035 176.70811 
L 170.730098 176.622902 
L 170.734399 176.548011 
L 170.60194 176.48906 
L 170.596827 176.476308 
L 170.721195 176.375159 
L 170.747873 176.35576 
L 170.74276 176.298855 
L 170.800929 176.23449 
L 170.904664 176.249468 
L 171.051168 176.217015 
L 171.281677 176.095324 
L 171.4474 175.89011 
L 171.464574 175.814046 
L 171.474981 175.78454 
L 171.487252 175.746223 
L 171.593905 175.664774 
L 171.64299 175.646939 
L 171.708528 175.649495 
L 171.863333 175.554813 
L 172.328381 175.16595 
L 172.528783 174.951502 
L 172.728434 174.883709 
L 172.845102 174.682976 
L 172.882337 174.650523 
L 172.949288 174.635124 
L 173.114319 174.644688 
L 173.185602 174.626161 
L 173.214265 174.595873 
L 173.218476 174.533975 
L 173.250357 174.455896 
L 173.313188 174.391712 
L 173.481588 174.36762 
L 173.610106 174.43412 
L 173.651823 174.435413 
L 173.726233 174.397005 
L 173.794928 174.335137 
L 173.769243 174.272668 
L 173.769574 174.229958 
L 173.814869 174.13645 
L 173.88149 174.069468 
L 174.051544 174.105801 
L 174.203703 174.037196 
L 174.293302 173.902361 
L 174.359317 173.888634 
L 174.538759 173.851321 
L 174.57452 173.81977 
L 174.616718 173.681567 
L 174.549075 173.444893 
L 174.378931 173.172366 
L 174.306746 173.117476 
L 174.158467 173.116875 
L 174.141384 172.97825 
L 174.120931 172.919901 
L 174.015181 172.827505 
L 173.937793 172.726958 
L 173.93662 172.67673 
L 173.980021 172.594861 
L 174.118916 172.459725 
L 174.25354 172.362668 
L 174.297392 172.302153 
L 174.345786 172.172251 
L 174.663939 171.949742 
L 174.865454 171.927756 
L 175.051389 171.809855 
L 175.147153 171.61995 
L 175.252513 171.348356 
L 175.226646 171.272502 
L 175.311794 171.178692 
L 175.516497 171.147052 
L 175.578636 171.152887 
L 175.923166 171.255268 
L 176.028134 171.251268 
L 176.209047 171.172256 
L 176.285472 171.068792 
L 176.36713 171.018804 
L 176.436036 171.006683 
L 176.468519 170.976726 
L 176.479828 170.95871 
L 176.473602 170.889534 
L 176.443947 170.748052 
L 176.417299 170.721915 
L 176.332542 170.706396 
L 176.29633 170.671537 
L 176.350558 170.461751 
L 176.457181 170.259664 
L 176.568375 170.186066 
L 176.727421 169.823791 
L 176.861594 169.719364 
L 176.980066 169.583447 
L 176.974803 169.507924 
L 177.050176 169.397662 
L 177.560249 168.925185 
L 177.553211 168.882325 
L 177.522502 168.848308 
L 177.500667 168.774891 
L 177.509058 168.680991 
L 177.564189 168.592174 
L 177.50602 168.478754 
L 177.581694 168.380824 
L 177.604462 168.352612 
L 177.59965 168.1603 
L 177.5841 168.104839 
L 177.51775 167.953552 
L 177.382404 167.793724 
L 177.281918 167.769331 
L 177.261074 167.646077 
L 177.279602 167.610556 
L 177.383096 167.529529 
L 177.424753 167.515423 
L 177.447491 167.434215 
L 177.386194 167.420891 
L 177.341169 167.327051 
L 177.322732 167.247378 
L 177.414948 167.036569 
L 177.482109 166.969137 
L 177.511344 166.960294 
L 177.600251 166.977889 
L 177.761794 166.823475 
L 177.802939 166.72762 
L 177.803901 166.615945 
L 177.839994 166.54376 
L 178.029478 166.549776 
L 178.137754 166.630983 
L 178.178238 166.53576 
L 178.178238 166.532993 
L 178.188885 166.501653 
L 178.224977 166.474583 
L 178.282123 166.447514 
L 178.348292 166.438491 
L 178.3904 166.396384 
L 178.363331 166.300138 
L 178.249039 166.131707 
L 178.158808 166.053508 
L 178.10467 166.035461 
L 178.062562 165.999369 
L 178.188885 165.833947 
L 178.246031 165.710631 
L 178.161786 165.55727 
L 178.173817 165.373801 
L 178.300139 165.030925 
L 178.375331 165.042956 
L 178.474585 164.98581 
L 178.432477 164.871518 
L 178.405408 164.838433 
L 178.471577 164.679026 
L 178.50767 164.666995 
L 178.569808 164.57123 
L 178.781369 164.110603 
L 181.106429 164.964726 
L 181.271852 164.982772 
L 181.596682 165.051949 
L 181.984703 165.262486 
L 182.114034 165.304594 
L 182.136492 165.319032 
L 182.156141 165.331663 
L 182.26141 165.473024 
L 182.267426 165.51814 
L 182.306526 165.575286 
L 182.619355 165.84294 
L 183.272053 166.931661 
L 183.96773 168.149533 
L 187.165982 169.051357 
L 188.911221 169.513578 
L 189.278008 169.422987 
L 189.347876 169.376367 
L 189.409414 169.325508 
L 189.526683 169.280452 
L 189.565302 169.246466 
L 189.628373 169.24036 
L 189.675233 169.252541 
L 189.71316 169.291821 
L 189.792623 169.32653 
L 189.8775 169.246375 
L 189.891666 169.143723 
L 189.874071 169.104563 
L 189.864506 169.063719 
L 189.807691 168.993489 
L 189.801886 168.937757 
L 189.798909 168.918929 
L 189.81506 168.905966 
L 190.046531 168.777868 
L 190.120671 168.746618 
L 190.260528 168.718166 
L 190.323299 168.614401 
L 190.381979 168.554548 
L 190.395994 168.529764 
L 190.450223 168.424616 
L 190.650896 168.188001 
L 190.692041 168.191941 
L 190.864231 168.267855 
L 191.005622 168.241568 
L 191.029292 168.154736 
L 191.024179 167.935867 
L 191.08328 167.770174 
L 191.253245 167.67483 
L 191.337099 167.643851 
L 191.516086 167.570764 
L 191.556988 167.534979 
L 191.657688 167.446878 
L 191.644304 167.319141 
L 191.714654 167.240821 
L 191.8306 167.186081 
L 191.969585 167.076241 
L 191.986578 167.036599 
L 191.98712 167.035035 
L 191.996293 166.996206 
L 192.051334 166.859417 
L 192.051003 166.850213 
L 192.078824 166.757155 
L 191.958517 166.639856 
L 192.111909 166.125572 
L 192.244247 166.026318 
L 192.379592 165.758634 
L 192.484891 165.587196 
L 192.620237 165.436842 
L 192.767614 165.313527 
L 192.86386 165.060881 
L 192.990183 164.892451 
L 193.043629 164.86857 
L 193.054727 164.862043 
L 193.161621 164.814251 
L 193.170644 164.781167 
L 193.140567 164.708982 
L 193.164628 164.63382 
L 193.248843 164.498474 
L 193.270998 164.476801 
L 193.387197 164.363129 
L 193.531596 164.086422 
L 193.543627 164.038299 
L 193.522573 164.020253 
L 193.516527 163.818738 
L 193.660926 163.65936 
L 193.624834 163.578153 
L 193.63091 163.517789 
L 193.754164 163.235277 
L 193.882984 163.084201 
L 193.889992 163.078847 
L 194.012825 162.820247 
L 194.103056 162.736031 
L 194.166217 162.71197 
L 194.182609 162.632627 
L 194.201798 162.580143 
L 194.226702 162.540592 
L 194.228928 162.530306 
L 194.286525 162.471355 
L 194.361717 162.254802 
L 194.400817 162.200663 
L 194.626423 162.056295 
L 194.686577 162.044294 
L 194.948245 162.059302 
L 195.104645 162.164571 
L 195.507705 162.065318 
L 195.51372 161.966094 
L 195.564851 161.770595 
L 195.661097 161.635249 
L 195.766366 161.253273 
L 195.730273 161.184096 
L 195.655081 161.145026 
L 195.573874 161.072842 
L 195.528277 160.871538 
L 195.519736 160.843235 
L 195.51372 160.778089 
L 195.700197 160.366036 
L 195.679143 160.242751 
L 195.733281 160.107405 
L 195.83855 159.954013 
L 195.907727 159.803629 
L 196.000965 159.668283 
L 196.082173 159.58106 
L 196.115257 159.505868 
L 196.121272 159.418675 
L 196.352894 159.211145 
L 196.470194 159.141968 
L 196.572455 159.0367 
L 196.581508 159.000607 
L 196.596517 158.847215 
L 196.629601 158.714877 
L 196.686747 158.67277 
L 196.752916 158.663747 
L 196.761939 158.624647 
L 196.749909 158.501332 
L 196.725847 158.465239 
L 196.668701 158.423132 
L 196.629601 158.350947 
L 196.650655 158.26974 
L 196.831116 158.119356 
L 196.903301 158.077248 
L 197.30636 158.110333 
L 197.42366 158.110333 
L 197.483814 158.077248 
L 197.610137 157.881749 
L 197.598106 157.761471 
L 197.568029 157.728387 
L 197.58006 157.562964 
L 197.715406 157.301296 
L 197.799651 157.238134 
L 197.94402 157.226103 
L 198.064327 157.168957 
L 198.106435 157.12685 
L 198.118465 157.102788 
L 198.11245 157.054665 
L 198.148542 156.940373 
L 198.232757 156.741866 
L 198.333154 156.634732 
L 198.337695 156.608024 
L 198.295919 156.474182 
L 198.358509 156.415803 
L 198.484049 156.333122 
L 202.235264 158.953146 
L 202.336653 158.831545 
L 202.403454 158.688199 
L 202.869554 157.991078 
L 203.260433 157.494178 
L 203.348378 157.407286 
L 203.498912 157.190071 
L 203.682231 156.908191 
L 203.864226 156.589016 
L 203.989736 156.347739 
L 204.072809 156.150465 
L 204.432768 155.596119 
L 204.571212 155.506279 
L 204.61729 155.431598 
L 204.678857 155.279801 
L 204.739191 155.217722 
L 204.944526 155.063999 
L 205.137168 155.020568 
L 205.549462 154.816437 
L 205.60381 154.736011 
L 205.686883 154.660067 
L 205.682612 154.604305 
L 205.80716 154.350246 
L 206.155931 154.011761 
L 206.537877 153.90201 
L 206.602843 153.904597 
L 206.651297 153.887784 
L 206.770672 153.801704 
L 206.81296 153.748739 
L 206.736444 154.03501 
L 206.722158 154.114624 
L 206.73085 154.151468 
L 206.732384 154.166596 
L 206.741527 154.22299 
L 206.697946 154.536271 
L 206.73073 154.654683 
L 206.765709 154.695167 
L 206.809892 154.703137 
L 206.84027 154.687076 
L 206.946922 154.571731 
L 207.19653 154.374247 
L 207.405353 154.363088 
L 207.583709 154.164792 
L 207.679474 154.087043 
L 207.879455 154.055162 
L 207.914374 154.071012 
L 208.208435 153.81575 
L 208.331299 153.653335 
L 208.352594 153.581782 
L 208.466976 153.457775 
L 208.558199 153.407457 
L 208.678717 153.215236 
L 208.759654 153.007375 
L 208.932987 152.782971 
L 209.178594 152.822643 
L 209.357611 152.584434 
L 209.358183 152.516941 
L 209.406486 152.438651 
L 209.445376 152.400153 
L 209.562104 152.348752 
L 209.719075 152.34797 
L 209.735286 152.387461 
L 209.733241 152.506264 
L 209.772522 152.604194 
L 209.903777 152.551019 
L 209.997857 152.542477 
L 210.082524 152.734698 
L 210.28446 152.889293 
L 210.292159 152.831335 
L 210.367502 152.740623 
L 210.454093 152.721193 
L 210.536925 152.669281 
L 210.673985 152.468939 
L 210.847709 152.263303 
L 210.876191 152.173614 
L 210.921788 152.108378 
L 211.222647 151.777983 
L 211.485849 151.553761 
L 211.555357 151.46744 
L 211.690131 151.36978 
L 211.768271 151.332184 
L 211.824033 151.281324 
L 211.616112 151.181229 
L 211.548138 151.089103 
L 211.438237 151.032799 
L 211.384731 151.04462 
L 211.361752 151.033551 
L 211.179366 150.862354 
L 211.537401 150.574278 
L 211.635121 150.485431 
L 211.709861 150.37923 
L 211.906233 150.198438 
L 211.968041 150.168872 
L 212.012739 150.123226 
L 212.132351 150.001073 
L 212.388636 149.823981 
L 212.543592 149.77279 
L 212.658756 149.687342 
L 212.836961 149.491632 
L 212.862045 149.417131 
L 212.846285 149.364316 
L 212.977901 149.2718 
L 213.097337 149.158952 
L 213.210065 149.075699 
L 213.46271 148.847656 
L 213.487493 148.787142 
L 213.814639 148.595252 
L 213.990799 148.520932 
L 214.024064 148.534316 
L 214.082534 148.592334 
L 214.14771 148.572062 
L 214.236377 148.514315 
L 214.258363 148.479997 
L 214.344623 148.43025 
L 214.548935 148.415422 
L 215.163706 147.850128 
L 215.213574 147.751476 
L 215.247049 147.563044 
L 215.528689 147.231146 
L 215.930245 147.060039 
L 215.970668 147.011224 
L 216.238412 146.788265 
L 216.140091 146.684439 
L 215.989526 146.629369 
L 215.558134 146.327758 
L 215.486491 146.193766 
L 215.618979 146.045216 
L 215.600542 146.010778 
L 215.421856 145.922773 
L 215.246929 145.90981 
L 215.187106 145.867973 
L 215.235169 145.816331 
L 215.383237 145.667421 
L 215.412201 145.636532 
L 215.453226 145.598334 
L 215.510131 145.550302 
L 215.628724 145.446897 
L 215.811531 145.282828 
L 216.181627 144.871618 
L 216.199823 144.666193 
L 216.222862 144.569706 
L 216.359562 144.489702 
L 216.356073 144.482032 
L 216.075426 144.228334 
L 215.909552 144.13302 
L 215.864767 144.142735 
L 215.790658 144.123035 
L 215.765454 144.080597 
L 215.922395 143.887082 
L 216.265902 143.539364 
L 216.295077 143.500775 
L 216.281181 143.486218 
L 216.389247 143.363083 
L 216.548986 143.313276 
L 216.686918 143.145327 
L 216.73477 143.058946 
L 216.733326 142.999214 
L 216.774051 142.955362 
L 217.109708 142.647134 
L 217.203668 142.570258 
L 217.334863 142.496389 
L 217.41174 142.280918 
L 217.50555 142.259113 
L 217.551627 142.267113 
L 217.584561 142.215591 
L 217.964703 141.625363 
L 217.989997 141.567736 
L 217.92461 141.516726 
L 217.931378 141.496213 
L 218.043384 141.396629 
L 218.078604 141.394945 
L 218.114876 141.431458 
L 218.175752 141.339724 
L 218.185557 141.301105 
L 218.13978 141.192738 
L 217.892608 141.155082 
L 217.484496 141.063648 
L 217.346142 141.018352 
L 217.473518 140.910136 
L 217.707967 140.647625 
L 218.05755 140.130574 
L 217.853027 140.008643 
L 217.870412 139.876575 
L 217.614368 139.667842 
L 217.555146 139.52239 
L 217.57217 139.416941 
L 217.654129 139.315642 
L 217.816273 139.174491 
L 217.902955 139.059117 
L 217.952161 138.963262 
L 217.915347 138.865181 
L 217.75639 138.687337 
L 217.92043 138.573315 
L 217.957334 138.512169 
L 217.971921 138.422029 
L 217.933663 138.360492 
L 217.944822 138.26966 
L 217.979079 138.184843 
L 217.999532 138.004833 
L 217.869209 137.922994 
L 217.941062 137.808491 
L 217.942605 137.809464 
L 219.718814 138.929064 
L 220.476601 139.363133 
L 221.499785 140.057608 
L 222.20253 140.542868 
L 222.744846 140.877021 
L 223.622368 141.496514 
L 224.141916 141.786666 
L 225.109608 142.426851 
L 225.92393 142.942415 
L 225.97381 142.973995 
L 227.382197 143.865673 
L 227.382235 143.865698 
L 227.392591 143.872254 
L 233.544484 147.841813 
L 233.54884 147.844624 
L 233.728549 147.614355 
L 233.727106 147.531674 
L 233.704247 147.449955 
L 233.707736 147.380658 
L 233.751679 147.24065 
L 233.840917 147.15436 
L 233.998519 146.861291 
L 234.055996 146.784896 
L 234.121263 146.754699 
L 234.215524 146.638783 
L 234.242352 146.584614 
L 234.262925 146.469631 
L 234.253992 146.428305 
L 234.457582 146.025065 
L 234.46447 145.982536 
L 234.441491 145.822106 
L 234.450153 145.789503 
L 234.558249 145.619839 
L 234.587274 145.504765 
L 234.733688 145.350832 
L 234.887771 145.085013 
L 234.959114 144.999955 
L 235.055359 144.927891 
L 235.255461 144.703187 
L 235.269742 144.659689 
L 235.379919 144.324099 
L 235.280304 144.323708 
L 235.271672 144.312669 
L 235.277898 144.147187 
L 235.289568 144.125682 
L 235.328337 144.112448 
L 235.358173 144.075153 
L 235.402537 144.084687 
L 235.513249 144.051452 
L 235.545612 143.91352 
L 235.562184 143.892767 
L 235.636895 143.760639 
L 235.64655 143.728066 
L 235.728179 143.566313 
L 235.743367 143.547785 
L 235.806168 143.48315 
L 235.807521 143.464172 
L 235.798588 143.39319 
L 235.817567 143.301696 
L 235.891526 143.123912 
L 235.981155 142.951963 
L 236.353747 142.428385 
L 236.49968 142.330425 
L 236.752596 142.245367 
L 236.803486 142.209305 
L 236.816329 142.160551 
L 236.92623 142.180792 
L 237.171536 142.153182 
L 237.479764 142.241187 
L 237.614418 142.246691 
L 237.790668 142.202658 
L 237.953625 142.08981 
L 238.091466 142.077437 
L 238.129875 142.07399 
L 238.265371 142.149693 
L 238.422102 142.290062 
L 238.877254 142.47726 
L 239.199528 142.553745 
L 239.325279 142.567551 
L 239.931689 142.71974 
L 240.23363 142.690685 
L 240.444409 142.744974 
L 240.629471 142.76281 
L 240.764938 142.742808 
L 241.058006 142.644367 
L 241.312156 142.610621 
L 241.41577 142.617508 
L 241.438778 142.63258 
L 241.517611 142.684219 
L 241.559237 142.744072 
L 241.530905 142.967001 
L 241.588472 143.218113 
L 241.821266 143.425162 
L 241.883225 143.527002 
L 242.039865 143.657746 
L 242.087627 143.71414 
L 242.118606 143.796039 
L 242.19822 143.855892 
L 242.38229 143.933671 
L 242.74246 144.032173 
L 242.787575 144.050069 
L 242.828239 144.087935 
L 243.16531 144.226349 
L 243.520849 144.274021 
L 243.815391 144.378057 
L 243.880027 144.422059 
L 243.996033 144.556172 
L 244.28459 144.771371 
L 244.615526 144.956344 
L 244.678386 145.023085 
L 244.69162 145.056771 
L 244.68371 145.146911 
L 244.654254 145.197639 
L 244.625361 145.247398 
L 244.317675 145.453183 
L 244.212496 145.556437 
L 244.142748 145.748418 
L 244.170298 145.961663 
L 244.099648 146.095174 
L 244.062533 146.135086 
L 243.840716 146.240445 
L 243.263511 146.349173 
L 243.099021 146.456427 
L 242.924726 146.6848 
L 242.780477 146.980576 
L 242.670697 147.359604 
L 242.598212 147.426345 
L 242.601153 147.473707 
L 242.614874 147.69466 
L 242.680111 147.98021 
L 242.787579 148.140275 
L 242.819367 148.18762 
L 242.957991 148.257819 
L 243.42746 148.397406 
L 243.570506 148.424836 
L 243.845859 148.537173 
L 243.981837 148.646803 
L 244.110235 148.807023 
L 244.248468 149.041833 
L 244.337826 149.226414 
L 244.346713 149.239613 
L 244.543131 149.531363 
L 244.578231 149.564358 
L 244.67592 149.607307 
L 244.837583 149.645054 
L 245.301579 149.700906 
L 245.729271 149.813183 
L 245.962367 149.826507 
L 246.28831 149.884826 
L 246.3689 149.880519 
L 246.450394 149.876164 
L 246.857153 149.960289 
L 247.024741 149.935596 
L 247.175998 149.981042 
L 247.403078 149.987358 
L 247.63849 149.959778 
L 247.920941 149.955898 
L 248.222431 149.930092 
L 248.366079 149.966786 
L 248.411224 149.990306 
L 248.420367 150.03485 
L 248.583531 150.086375 
L 248.706097 150.12508 
L 248.985842 150.254411 
L 249.112165 150.260426 
L 249.40391 150.335618 
L 249.641517 150.425849 
L 250.194901 150.799313 
L 250.45663 150.864941 
L 250.778482 150.922087 
L 250.986012 151.015325 
L 250.986613 151.015825 
L 251.058197 151.075479 
L 251.100304 151.219847 
L 251.031128 151.379255 
L 250.883751 151.481516 
L 250.766451 151.752208 
L 250.847659 151.953722 
L 250.961951 152.013876 
L 250.98902 152.055984 
L 250.943905 152.248476 
L 251.395058 152.537183 
L 251.471302 152.441178 
L 251.491364 152.428696 
L 251.539757 152.430471 
L 251.58779 152.474202 
L 251.690833 152.626241 
L 251.79511 152.687567 
L 252.095878 152.744713 
L 252.162047 152.714637 
L 252.333485 152.759752 
L 252.36657 152.789829 
L 252.516954 152.822913 
L 252.793661 152.801859 
L 252.953068 152.76276 
L 253.286951 152.801859 
L 253.404251 152.804867 
L 253.437336 152.783813 
L 253.485459 152.786821 
L 253.913061 152.852328 
L 254.000434 152.877292 
L 254.047896 152.901113 
L 254.31558 153.168797 
L 254.490025 153.406404 
L 254.619356 153.628973 
L 254.854085 153.798599 
L 254.855218 153.799418 
L 254.911131 153.857527 
L 254.950231 153.962796 
L 255.046477 154.07408 
L 255.260023 154.257549 
L 255.347245 154.444025 
L 255.413415 154.498164 
L 255.638991 154.654563 
L 255.74426 154.705694 
L 255.984875 154.774871 
L 256.100481 154.786335 
L 256.348835 154.810963 
L 256.405981 154.838032 
L 256.43305 154.856078 
L 256.547342 155.174893 
L 256.705095 155.431809 
L 256.79698 155.433523 
L 256.830064 155.460593 
L 256.920295 155.577892 
L 256.914279 155.638046 
L 256.980448 155.713238 
L 257.064663 155.695192 
L 257.085717 155.644061 
L 257.05564 155.586915 
L 257.091733 155.577892 
L 257.150229 155.611319 
L 257.154894 155.613984 
L 257.236102 155.6982 
L 257.281217 155.791438 
L 257.287232 155.860615 
L 257.275201 155.90573 
L 257.497989 156.310212 
L 257.503816 156.32079 
L 257.470731 156.585467 
L 257.203017 156.630582 
L 257.127825 156.630582 
L 257.119144 156.649028 
L 257.103763 156.681713 
L 257.106771 156.796005 
L 257.148879 156.84112 
L 257.175948 156.823074 
L 257.218055 156.826081 
L 257.278209 156.871197 
L 257.311324 156.979473 
L 257.281247 157.195997 
L 257.311324 157.370442 
L 257.3805 157.391496 
L 257.287262 157.81558 
L 257.284014 158.091324 
L 257.269216 158.107325 
L 257.25117 158.143417 
L 257.242912 158.280496 
L 257.221093 158.642693 
L 257.217489 158.785939 
L 257.200968 159.442661 
L 257.197032 159.599106 
L 257.224101 159.707383 
L 257.21207 160.110383 
L 257.185001 160.290844 
L 257.088755 160.417167 
L 256.857133 160.549505 
L 256.492512 160.560062 
L 256.295839 160.529474 
L 256.267386 160.501051 
L 256.240106 160.509249 
L 256.066112 160.561535 
L 255.86069 160.663403 
L 255.696137 160.745004 
L 255.479584 160.889373 
L 255.368299 160.898396 
L 255.272053 160.943511 
L 254.787786 161.274327 
L 254.471979 161.635249 
L 254.412971 162.051757 
L 254.369718 162.357063 
L 254.490025 162.525493 
L 254.481002 162.615724 
L 254.541186 162.8022 
L 253.720058 162.760093 
L 253.196691 163.12703 
L 252.381608 163.337568 
L 252.312431 163.319522 
L 252.28834 163.136053 
L 251.951479 162.717985 
L 251.769612 162.709753 
L 251.220582 162.684901 
L 251.037113 162.796185 
L 250.970944 162.994692 
L 251.085236 163.232299 
L 251.02812 164.137582 
L 250.503971 164.37137 
L 250.477684 164.447344 
L 250.612248 164.898166 
L 250.137845 165.445865 
L 250.146868 165.671441 
L 250.004633 165.955892 
L 249.930315 166.104518 
L 249.701731 166.390248 
L 249.410798 166.65321 
L 249.358958 166.724001 
L 249.123323 167.045773 
L 248.753739 167.851682 
L 248.668982 168.401517 
L 248.861595 169.335313 
L 249.111744 169.94088 
L 249.06717 170.142726 
L 248.987556 170.184202 
L 248.914169 170.364753 
L 249.552129 170.779182 
L 249.790698 171.089575 
L 249.784533 171.335934 
L 249.822224 171.410703 
L 249.849138 171.464092 
L 250.046713 171.692104 
L 250.477954 171.880957 
L 251.236583 171.928087 
L 252.458876 171.648613 
L 253.06321 171.617784 
L 253.563929 171.495101 
L 253.789536 171.343123 
L 254.299849 170.835726 
L 255.307634 170.783453 
L 255.609967 170.841802 
L 255.906374 170.824297 
L 256.353136 170.535619 
L 256.771926 169.985063 
L 256.910129 169.898351 
L 257.148067 169.854289 
L 257.709301 170.268056 
L 258.101473 170.636106 
L 257.94793 171.624341 
L 257.827172 171.998016 
L 257.534344 172.528872 
L 257.66605 172.797699 
L 258.52727 173.538732 
L 258.75029 173.662408 
L 259.017463 173.654017 
L 259.5956 174.187219 
L 259.726555 174.587332 
L 259.737954 174.793117 
L 259.588833 174.981037 
L 259.463172 174.99761 
L 259.439652 175.068501 
L 259.590758 175.462808 
L 260.348002 175.814437 
L 260.955916 175.893629 
L 261.139084 175.974175 
L 262.208616 176.722066 
L 263.305729 176.984667 
L 263.742475 176.979764 
L 264.383293 176.84896 
L 264.820099 176.812537 
L 265.498783 176.875535 
L 265.668386 176.891278 
L 265.985877 177.025631 
L 266.185016 177.179805 
L 266.26881 177.305045 
L 266.3041 177.471329 
L 266.309113 177.494951 
L 266.826916 177.761883 
L 267.358494 177.412119 
L 267.441236 177.218003 
L 267.934646 177.194573 
L 268.529115 177.461024 
L 269.181151 177.442617 
L 269.315444 177.345589 
L 269.601385 177.298248 
L 270.068689 177.432481 
L 270.363683 178.028484 
L 270.459748 178.59053 
L 271.104596 179.048119 
L 272.197648 179.586464 
L 272.415284 179.810206 
L 272.823277 180.620536 
L 272.908032 180.854412 
L 272.997933 181.102488 
L 273.73629 181.383526 
L 274.417681 181.494149 
L 274.539552 181.593944 
L 274.622233 181.944459 
L 275.676577 182.592134 
L 276.013077 182.899219 
L 276.760787 183.14242 
L 277.700027 183.335303 
L 278.192175 183.485206 
L 280.533657 184.56692 
L 281.414097 185.234806 
L 281.163045 186.05458 
L 280.973982 186.922177 
L 280.531882 187.393542 
L 280.257552 187.535986 
L 280.096159 187.538001 
L 280.034562 187.492524 
L 280.052818 187.37345 
L 279.965024 187.245924 
L 279.705732 187.233623 
L 279.285949 187.54543 
L 279.200982 188.071805 
L 279.315815 188.258371 
L 279.146814 189.405021 
L 279.363096 190.024875 
L 279.124256 190.31286 
L 279.426679 190.79 
L 279.508969 191.064 
L 279.434439 191.255409 
L 279.147686 191.386213 
L 279.054989 191.384138 
L 278.902962 191.506065 
L 278.764838 191.616842 
L 278.311159 192.248967 
L 278.531622 192.554217 
L 279.316567 192.66887 
L 279.735538 192.846534 
L 279.873139 192.976677 
L 280.129154 193.384097 
L 280.101393 193.519744 
L 279.235059 193.273806 
L 277.636595 193.620411 
L 277.071571 193.120083 
L 276.802444 193.020138 
L 276.526278 193.070967 
L 275.202355 192.357815 
L 274.325976 191.954034 
L 273.809136 191.941131 
L 273.742275 192.01894 
L 273.568882 192.516952 
L 273.449838 192.616025 
L 273.189222 192.659276 
L 272.396366 192.020143 
L 272.361778 191.859051 
L 272.433842 191.300043 
L 272.375914 190.957889 
L 272.291037 190.791263 
L 271.676687 190.087615 
L 271.198135 189.195355 
L 270.960467 188.852569 
L 270.673354 188.733525 
L 270.610072 188.768655 
L 270.427055 188.737044 
L 270.02622 188.495587 
L 269.216411 188.147968 
L 268.941589 188.029998 
L 268.73439 187.711905 
L 268.075857 187.145287 
L 267.698393 187.232029 
L 267.431942 187.234826 
L 266.813863 186.81366 
L 266.662757 186.645741 
L 266.486326 186.352612 
L 266.325445 185.950665 
L 266.050031 185.635129 
L 265.503866 185.532567 
L 265.411801 184.935391 
L 264.518217 184.151438 
L 263.84982 183.911786 
L 263.370876 183.880776 
L 263.081356 183.44385 
L 262.920505 182.708321 
L 262.427245 182.392785 
L 261.455011 181.942053 
L 261.271302 181.938224 
L 260.915312 181.930804 
L 260.640079 182.449119 
L 261.315635 182.728051 
L 261.819602 183.348025 
L 263.083612 184.352381 
L 264.282325 185.011546 
L 264.935203 185.824463 
L 264.989101 186.016503 
L 265.485308 186.700661 
L 265.940311 187.190794 
L 266.448339 187.957182 
L 266.762522 188.262672 
L 267.014114 188.341774 
L 267.787841 188.362317 
L 267.968242 188.476579 
L 268.024606 188.57502 
L 267.981235 188.64525 
L 267.980766 188.811433 
L 267.980363 188.954319 
L 268.054052 189.13057 
L 268.171953 189.237252 
L 268.566411 189.363966 
L 269.285999 189.392419 
L 269.895115 189.577271 
L 269.965405 189.650899 
L 269.843293 189.782455 
L 269.887295 189.98403 
L 270.293453 190.178086 
L 270.571754 190.405166 
L 270.609952 190.533895 
L 270.545888 190.650263 
L 270.552054 190.836799 
L 271.101768 191.781513 
L 270.994935 192.067905 
L 271.268454 192.525223 
L 272.212356 193.425243 
L 272.479709 193.555385 
L 272.677885 193.591929 
L 275.436353 193.547054 
L 275.894183 193.971769 
L 276.179041 194.479195 
L 277.008951 194.742639 
L 277.77149 194.723299 
L 278.529246 194.83329 
L 279.506653 195.083169 
L 279.572341 195.206424 
L 279.427912 195.397141 
L 278.590693 195.845406 
L 278.308241 195.787087 
L 278.037459 195.840684 
L 277.854217 196.116905 
L 277.692117 196.361254 
L 277.725081 196.536121 
L 277.926596 196.792165 
L 278.624619 197.092723 
L 279.30189 197.015486 
L 279.578988 196.733515 
L 279.617907 196.602019 
L 279.557423 196.558649 
L 279.581635 196.476027 
L 279.703506 196.443695 
L 279.866883 196.515308 
L 280.081151 196.704702 
L 280.561989 197.500415 
L 280.942191 198.525765 
L 281.001172 199.289355 
L 281.116576 199.823641 
L 281.156699 200.343459 
L 281.061145 200.695478 
L 280.76588 201.089936 
L 280.641663 201.127051 
L 280.568275 201.228921 
L 280.326428 201.897379 
L 280.352985 202.287776 
L 280.246303 202.655616 
L 280.035675 202.380624 
L 279.771931 202.229097 
L 279.252895 202.072065 
L 279.148558 201.809735 
L 278.383824 201.029963 
L 277.503324 200.714727 
L 276.89093 200.396935 
L 276.760847 200.239844 
L 276.685024 200.069729 
L 276.710078 200.005726 
L 276.360253 199.941211 
L 276.047124 199.883463 
L 275.940291 200.013786 
L 275.956623 200.396845 
L 275.82648 200.5084 
L 275.374666 200.556674 
L 275.139826 200.956395 
L 275.451662 201.315392 
L 276.311169 201.965052 
L 276.871139 202.724613 
L 276.936316 203.132515 
L 277.072504 203.396229 
L 277.434809 203.577562 
L 277.930265 203.606947 
L 278.022511 203.738413 
L 277.637497 203.85081 
L 276.720214 204.008804 
L 275.98679 204.039572 
L 275.848677 204.302805 
L 275.62683 204.35959 
L 274.219655 204.442813 
L 274.011733 204.313843 
L 273.697069 204.475085 
L 273.5287 204.729382 
L 273.386135 204.944705 
L 273.675835 205.198794 
L 274.343812 205.481276 
L 276.67979 205.206554 
L 276.810294 205.271791 
L 276.695791 205.540437 
L 276.622043 205.930293 
L 276.825603 206.158396 
L 276.766412 206.567922 
L 276.566967 207.033261 
L 276.513556 207.15788 
L 276.661022 207.239207 
L 277.06336 207.29506 
L 277.247551 207.140796 
L 277.715697 206.908001 
L 278.047505 206.845592 
L 278.210642 206.979374 
L 278.160594 207.031346 
L 278.186099 207.155022 
L 278.30403 207.411999 
L 278.48786 207.640583 
L 278.594212 207.715655 
L 278.778523 207.680525 
L 279.177492 207.812863 
L 279.741252 208.170176 
L 279.894896 208.445748 
L 280.279057 209.134771 
L 280.375333 209.435539 
L 280.092406 210.082561 
L 279.802292 210.746016 
L 279.725643 210.921305 
L 279.500397 211.712176 
L 279.382496 211.93691 
L 279.148618 211.967198 
L 279.059591 211.927737 
L 279.07114 211.697739 
L 278.967646 211.561912 
L 278.62279 211.54055 
L 278.287879 211.519804 
L 278.06531 211.775428 
L 277.815673 211.88972 
L 277.298321 212.028073 
L 277.003568 212.178457 
L 276.872905 212.28901 
L 276.612539 212.509303 
L 276.245601 212.906317 
L 276.183108 213.02935 
L 276.149355 213.095801 
L 275.932772 213.059709 
L 275.635011 212.882255 
L 275.156498 212.301511 
L 274.935754 212.033607 
L 274.925438 211.839912 
L 275.002735 211.831942 
L 275.052663 211.746614 
L 275.032398 211.721854 
L 274.893494 211.552141 
L 274.564215 211.149829 
L 273.126 210.3284 
L 272.946953 210.313572 
L 272.705406 210.085109 
L 272.654275 209.925701 
L 272.696383 209.871563 
L 272.707511 209.639189 
L 272.386531 209.453645 
L 271.839403 209.696757 
L 271.56411 209.64719 
L 271.452464 209.558162 
L 271.104536 209.072121 
L 269.938967 208.388775 
L 269.742626 208.15586 
L 269.81866 207.703053 
L 269.974097 207.632312 
L 270.353016 207.165395 
L 270.353306 207.165038 
L 270.286896 206.965328 
L 270.157927 206.955703 
L 270.156556 206.952605 
L 269.99864 206.595743 
L 269.906244 206.19921 
L 269.78738 206.000944 
L 269.589595 205.760329 
L 269.252223 205.481697 
L 268.988028 205.33396 
L 267.806098 205.27525 
L 267.512037 205.389752 
L 266.549337 205.547535 
L 266.448008 205.836333 
L 266.277172 206.101972 
L 266.185738 206.185225 
L 265.962267 206.260808 
L 265.742856 206.213888 
L 265.262018 205.780691 
L 265.058097 205.682189 
L 264.816126 205.274495 
L 264.666947 205.023145 
L 263.908156 204.694789 
L 263.805516 204.650373 
L 262.715351 204.718256 
L 262.300742 204.075665 
L 262.207305 204.128825 
L 261.23557 204.681683 
L 260.377748 204.795494 
L 260.165937 204.933022 
L 260.009578 205.034545 
L 260.613641 205.455771 
L 261.210576 205.882772 
L 261.737763 205.977845 
L 262.496392 205.691573 
L 263.383749 205.783127 
L 264.397038 206.013877 
L 264.565649 206.281681 
L 265.768903 207.118479 
L 266.047625 207.450347 
L 266.358981 207.582204 
L 266.568315 207.605333 
L 267.02022 207.52593 
L 267.050703 207.482624 
L 267.578446 206.732864 
L 267.693009 206.379641 
L 267.723326 206.091385 
L 267.912931 205.997545 
L 268.38598 206.457119 
L 268.569809 206.748744 
L 268.554891 206.834403 
L 268.422553 206.96241 
L 268.338338 207.203987 
L 268.334988 207.677536 
L 268.334789 207.705639 
L 268.486557 207.822367 
L 268.776738 208.674625 
L 268.740165 209.067308 
L 268.453352 209.685658 
L 268.387904 210.045618 
L 268.432178 210.322325 
L 268.606383 210.6024 
L 268.863841 210.800186 
L 269.104004 210.888732 
L 270.123278 210.9075 
L 270.894238 211.113947 
L 271.163727 211.300183 
L 271.603089 211.864184 
L 271.954297 212.010057 
L 272.748115 212.464608 
L 272.80472 212.54726 
L 272.7695 212.630542 
L 272.863821 212.784807 
L 273.093698 212.939101 
L 273.484937 213.024669 
L 273.869801 213.410856 
L 273.973624 214.116339 
L 274.024757 214.463786 
L 274.032938 214.952716 
L 273.995823 215.09916 
L 274.136877 215.239019 
L 274.400507 215.500415 
L 274.858337 215.464954 
L 274.900504 215.376107 
L 274.880924 215.204399 
L 275.077266 214.889193 
L 275.251952 214.802091 
L 275.5643 214.849732 
L 275.804176 214.921433 
L 276.277513 215.062917 
L 276.295528 215.061017 
L 276.877245 214.999666 
L 276.928375 214.286844 
L 277.893902 214.301883 
L 278.024195 215.131372 
L 278.593874 215.312567 
L 278.967826 215.431509 
L 279.062544 215.123136 
L 279.067922 215.105626 
L 279.085788 214.91127 
L 278.947456 214.896882 
L 278.728354 214.874095 
L 278.660441 214.534016 
L 278.58567 213.823661 
L 278.687931 213.198062 
L 278.826315 213.207085 
L 279.033755 213.321257 
L 279.530113 213.014594 
L 279.57403 212.947466 
L 279.581274 212.936394 
L 279.960242 212.918348 
L 280.474586 213.04467 
L 280.596827 213.116531 
L 281.467152 213.628161 
L 281.867204 213.796592 
L 282.171321 213.874297 
L 282.82067 214.040214 
L 282.933994 214.059101 
L 283.209858 214.105076 
L 283.738251 214.193138 
L 284.336604 214.29286 
L 284.638472 214.390378 
L 285.661459 214.720853 
L 285.778773 214.723494 
L 285.888629 214.725966 
L 286.784949 214.476328 
L 287.23911 214.157514 
L 287.527847 214.025206 
L 288.120391 214.061298 
L 288.306868 214.112399 
L 288.646766 214.322936 
L 288.788127 214.659797 
L 289.343347 216.622398 
L 289.371648 216.722437 
L 289.573163 217.619299 
L 290.051415 219.162211 
L 290.887611 221.240491 
L 291.814039 223.084141 
L 292.31936 224.494746 
L 292.532935 225.490259 
L 292.150959 225.490259 
L 292.12389 225.490259 
L 291.964453 225.490259 
L 291.946407 225.490259 
L 291.783992 225.490259 
L 291.744892 225.493267 
L 291.717823 225.490259 
L 291.510821 225.492485 
L 291.438108 225.493267 
L 291.399008 225.493267 
L 291.269648 225.493267 
L 291.197463 225.493267 
L 290.878649 225.493267 
L 289.952252 225.496305 
L 289.934206 225.496305 
L 289.864999 225.496305 
L 289.807853 225.496305 
L 287.729482 225.496305 
L 287.488838 225.493297 
L 284.854071 225.494262 
L 279.113519 225.496365 
L 279.110874 225.496358 
L 277.204308 225.491342 
L 274.540244 225.484334 
L 273.751786 225.490927 
L 272.246329 225.503515 
L 272.241801 225.503553 
L 271.753021 225.497308 
L 271.224933 225.49056 
L 266.32743 225.483311 
L 265.986088 225.501478 
L 265.035118 225.493116 
L 264.259677 225.49471 
L 260.986744 225.449986 
L 260.953901 225.49062 
L 260.944005 225.631861 
L 260.981833 225.698313 
L 260.982203 225.698962 
L 255.598026 225.67457 
L 254.70324 225.693819 
L 253.864728 225.691052 
L 253.513458 225.624064 
L 253.50955 225.623319 
L 253.354354 225.593693 
L 252.737327 225.628312 
L 252.286746 225.675923 
L 249.528122 225.671167 
L 235.908399 225.647681 
L 235.384543 225.650877 
L 232.349082 225.669393 
L 232.131529 225.67072 
L 231.918675 225.671231 
L 231.394917 225.673457 
L 227.209212 225.688195 
L 227.194715 225.687503 
L 226.990457 225.688344 
L 224.382801 225.699083 
L 224.370409 225.698 
L 220.997622 225.681037 
L 220.960958 225.683142 
L 218.638093 225.699143 
L 218.635798 225.699166 
L 215.256824 225.733521 
L 215.11047 225.732889 
L 214.636218 225.739294 
L 214.636128 225.739295 
L 214.220406 225.744048 
L 214.213488 225.744318 
L 213.042206 225.781674 
L 212.447977 225.7842 
L 212.348994 225.783508 
L 210.174709 225.780862 
L 208.684024 225.757247 
L 208.429861 225.753221 
L 208.227324 225.752499 
L 206.300272 225.756491 
L 205.570305 225.758003 
L 205.358624 225.761763 
L 204.431024 225.762183 
L 204.430152 225.762184 
L 200.873775 225.754394 
L 200.847398 225.754334 
L 200.047685 225.750153 
L 200.040316 225.751176 
L 199.188449 225.74892 
L 199.151244 225.749852 
L 198.929857 225.750656 
L 194.551833 225.766545 
L 194.511469 225.767598 
L 194.154818 225.761402 
L 194.142932 225.76143 
L 192.026881 225.766455 
L 192.003 225.765763 
L 191.733085 225.768813 
L 190.792106 225.779448 
L 187.983616 225.778316 
L 184.898639 225.777072 
L 184.890397 225.777764 
L 184.16641 225.782879 
L 182.944847 225.791509 
L 182.854614 225.790911 
L 178.247445 225.760409 
L 178.232948 225.760409 
L 176.803359 225.753481 
L 171.617455 225.728347 
L 171.487851 225.731327 
L 171.094118 225.740378 
L 170.630389 225.740103 
L 169.219819 225.739265 
L 169.203818 225.738453 
L 168.460348 225.73854 
L 167.406486 225.738664 
L 167.404381 225.73866 
L 166.618787 225.737411 
L 164.551772 225.734122 
L 163.127573 225.71776 
L 163.064382 225.716888 
L 161.44709 225.700977 
L 161.36122 225.697398 
L 159.346673 225.69421 
L 155.245334 225.50635 
L 155.214565 225.503854 
L 154.989831 225.493989 
L 152.859385 225.404266 
L 149.817874 225.276175 
L 149.434999 225.260051 
L 148.575974 225.235598 
L 148.264376 225.216848 
L 147.027558 225.14242 
L 146.259996 225.141518 
L 144.957308 225.202935 
L 144.047273 225.187716 
L 143.049654 225.237614 
L 143.033052 225.238696 
L 143.023622 225.238309 
L 141.107418 225.15958 
L 141.105577 225.159504 
L 139.823942 225.120194 
L 139.774315 225.116043 
L 138.035453 225.10302 
L 137.806869 225.078958 
L 136.379963 225.002352 
L 136.289071 225.001029 
L 135.647231 224.991765 
L 134.395944 224.934649 
L 133.884607 224.925626 
L 133.000288 224.880541 
L 132.834865 224.853472 
L 130.636127 224.814402 
L 130.260558 224.793379 
L 128.900844 224.760294 
L 127.524882 224.769335 
L 127.522993 224.769347 
L 126.876281 224.770851 
L 124.848981 224.706216 
L 123.820293 224.597969 
L 123.430587 224.639926 
L 123.116464 224.616045 
L 122.478805 224.594992 
L 120.075605 224.399522 
L 117.771688 224.366498 
L 118.693093 223.650639 
L 115.984973 223.636773 
L 113.284012 223.581552 
L 110.399583 223.521459 
L 110.053699 224.183149 
L 107.487553 224.177106 
L 103.69458 224.168173 
L 103.604471 224.167961 
L 103.539565 224.169314 
L 102.840128 224.171299 
L 102.741927 224.166457 
L 102.636869 224.161644 
L 102.403743 224.154095 
L 101.741872 224.13626 
L 101.726593 224.133613 
L 101.40453 224.134996 
L 101.352437 224.137794 
L 101.284133 224.137102 
L 101.255951 224.137132 
L 100.758383 224.137408 
L 99.226179 224.138257 
L 99.140285 224.138305 
L 94.03871 224.175089 
L 93.676134 224.141794 
L 93.418375 224.134756 
L 91.401542 224.163208 
L 91.236721 224.165494 
L 91.197621 224.165494 
L 89.750865 224.186578 
L 87.624342 224.198639 
L 87.14609 224.198639 
L 83.096152 224.196744 
L 81.364327 224.205767 
L 78.443548 224.19767 
L 77.176517 224.194158 
L 77.143222 224.192774 
L 70.508992 224.194759 
L 70.479938 224.192624 
L 70.467756 224.191511 
L 70.143077 224.192954 
L 69.685879 224.063624 
L 66.720181 224.087716 
L 63.796591 224.090783 
L 61.249022 224.087776 
L 59.269545 224.067414 
L 58.57892 224.009035 
L 57.840774 223.986116 
L 57.840383 223.985123 
L 57.681818 223.984612 
L 57.70585 223.916398 
" clip-path="url(#p9d475beac4)" style="fill: #00ff00"/>
   </g>
   <g id="PathCollection_1">
    <defs>
     <path id="m270f39a61f" d="M 0 1.581139 
C 0.419323 1.581139 0.821528 1.41454 1.118034 1.118034 
C 1.41454 0.821528 1.581139 0.419323 1.581139 0 
C 1.581139 -0.419323 1.41454 -0.821528 1.118034 -1.118034 
C 0.821528 -1.41454 0.419323 -1.581139 0 -1.581139 
C -0.419323 -1.581139 -0.821528 -1.41454 -1.118034 -1.118034 
C -1.41454 -0.821528 -1.581139 -0.419323 -1.581139 0 
C -1.581139 0.419323 -1.41454 0.821528 -1.118034 1.118034 
C -0.821528 1.41454 -0.419323 1.581139 0 1.581139 
z
" style="stroke: #000000"/>
    </defs>
    <g clip-path="url(#p9d475beac4)">
     <use xlink:href="#m270f39a61f" x="245.414668" y="195.771237" style="stroke: #000000"/>
    </g>
   </g>
   <g id="text_1">
    <!-- Richmond -->
    <g transform="translate(248.414668 192.771237) scale(0.1 -0.1)">
     <defs>
      <path id="DejaVuSans-52" d="M 2841 2188 
Q 3044 2119 3236 1894 
Q 3428 1669 3622 1275 
L 4263 0 
L 3584 0 
L 2988 1197 
Q 2756 1666 2539 1819 
Q 2322 1972 1947 1972 
L 1259 1972 
L 1259 0 
L 628 0 
L 628 4666 
L 2053 4666 
Q 2853 4666 3247 4331 
Q 3641 3997 3641 3322 
Q 3641 2881 3436 2590 
Q 3231 2300 2841 2188 
z
M 1259 4147 
L 1259 2491 
L 2053 2491 
Q 2509 2491 2742 2702 
Q 2975 2913 2975 3322 
Q 2975 3731 2742 3939 
Q 2509 4147 2053 4147 
L 1259 4147 
z
" transform="scale(0.015625)"/>
      <path id="DejaVuSans-69" d="M 603 3500 
L 1178 3500 
L 1178 0 
L 603 0 
L 603 3500 
z
M 603 4863 
L 1178 4863 
L 1178 4134 
L 603 4134 
L 603 4863 
z
" transform="scale(0.015625)"/>
      <path id="DejaVuSans-63" d="M 3122 3366 
L 3122 2828 
Q 2878 2963 2633 3030 
Q 2388 3097 2138 3097 
Q 1578 3097 1268 2742 
Q 959 2388 959 1747 
Q 959 1106 1268 751 
Q 1578 397 2138 397 
Q 2388 397 2633 464 
Q 2878 531 3122 666 
L 3122 134 
Q 2881 22 2623 -34 
Q 2366 -91 2075 -91 
Q 1284 -91 818 406 
Q 353 903 353 1747 
Q 353 2603 823 3093 
Q 1294 3584 2113 3584 
Q 2378 3584 2631 3529 
Q 2884 3475 3122 3366 
z
" transform="scale(0.015625)"/>
      <path id="DejaVuSans-68" d="M 3513 2113 
L 3513 0 
L 2938 0 
L 2938 2094 
Q 2938 2591 2744 2837 
Q 2550 3084 2163 3084 
Q 1697 3084 1428 2787 
Q 1159 2491 1159 1978 
L 1159 0 
L 581 0 
L 581 4863 
L 1159 4863 
L 1159 2956 
Q 1366 3272 1645 3428 
Q 1925 3584 2291 3584 
Q 2894 3584 3203 3211 
Q 3513 2838 3513 2113 
z
" transform="scale(0.015625)"/>
      <path id="DejaVuSans-6d" d="M 3328 2828 
Q 3544 3216 3844 3400 
Q 4144 3584 4550 3584 
Q 5097 3584 5394 3201 
Q 5691 2819 5691 2113 
L 5691 0 
L 5113 0 
L 5113 2094 
Q 5113 2597 4934 2840 
Q 4756 3084 4391 3084 
Q 3944 3084 3684 2787 
Q 3425 2491 3425 1978 
L 3425 0 
L 2847 0 
L 2847 2094 
Q 2847 2600 2669 2842 
Q 2491 3084 2119 3084 
Q 1678 3084 1418 2786 
Q 1159 2488 1159 1978 
L 1159 0 
L 581 0 
L 581 3500 
L 1159 3500 
L 1159 2956 
Q 1356 3278 1631 3431 
Q 1906 3584 2284 3584 
Q 2666 3584 2933 3390 
Q 3200 3197 3328 2828 
z
" transform="scale(0.015625)"/>
      <path id="DejaVuSans-6f" d="M 1959 3097 
Q 1497 3097 1228 2736 
Q 959 2375 959 1747 
Q 959 1119 1226 758 
Q 1494 397 1959 397 
Q 2419 397 2687 759 
Q 2956 1122 2956 1747 
Q 2956 2369 2687 2733 
Q 2419 3097 1959 3097 
z
M 1959 3584 
Q 2709 3584 3137 3096 
Q 3566 2609 3566 1747 
Q 3566 888 3137 398 
Q 2709 -91 1959 -91 
Q 1206 -91 779 398 
Q 353 888 353 1747 
Q 353 2609 779 3096 
Q 1206 3584 1959 3584 
z
" transform="scale(0.015625)"/>
      <path id="DejaVuSans-6e" d="M 3513 2113 
L 3513 0 
L 2938 0 
L 2938 2094 
Q 2938 2591 2744 2837 
Q 2550 3084 2163 3084 
Q 1697 3084 1428 2787 
Q 1159 2491 1159 1978 
L 1159 0 
L 581 0 
L 581 3500 
L 1159 3500 
L 1159 2956 
Q 1366 3272 1645 3428 
Q 1925 3584 2291 3584 
Q 2894 3584 3203 3211 
Q 3513 2838 3513 2113 
z
" transform="scale(0.015625)"/>
      <path id="DejaVuSans-64" d="M 2906 2969 
L 2906 4863 
L 3481 4863 
L 3481 0 
L 2906 0 
L 2906 525 
Q 2725 213 2448 61 
Q 2172 -91 1784 -91 
Q 1150 -91 751 415 
Q 353 922 353 1747 
Q 353 2572 751 3078 
Q 1150 3584 1784 3584 
Q 2172 3584 2448 3432 
Q 2725 3281 2906 2969 
z
M 947 1747 
Q 947 1113 1208 752 
Q 1469 391 1925 391 
Q 2381 391 2643 752 
Q 2906 1113 2906 1747 
Q 2906 2381 2643 2742 
Q 2381 3103 1925 3103 
Q 1469 3103 1208 2742 
Q 947 2381 947 1747 
z
" transform="scale(0.015625)"/>
     </defs>
     <use xlink:href="#DejaVuSans-52"/>
     <use xlink:href="#DejaVuSans-69" x="69.482422"/>
     <use xlink:href="#DejaVuSans-63" x="97.265625"/>
     <use xlink:href="#DejaVuSans-68" x="152.246094"/>
     <use xlink:href="#DejaVuSans-6d" x="215.625"/>
     <use xlink:href="#DejaVuSans-6f" x="313.037109"/>
     <use xlink:href="#DejaVuSans-6e" x="374.21875"/>
     <use xlink:href="#DejaVuSans-64" x="437.597656"/>
    </g>
   </g>
   <g id="text_2">
    <!-- Virginia -->
    <g transform="translate(161.88 127.40934) scale(0.12 -0.12)">
     <defs>
      <path id="DejaVuSans-56" d="M 1831 0 
L 50 4666 
L 709 4666 
L 2188 738 
L 3669 4666 
L 4325 4666 
L 2547 0 
L 1831 0 
z
" transform="scale(0.015625)"/>
      <path id="DejaVuSans-72" d="M 2631 2963 
Q 2534 3019 2420 3045 
Q 2306 3072 2169 3072 
Q 1681 3072 1420 2755 
Q 1159 2438 1159 1844 
L 1159 0 
L 581 0 
L 581 3500 
L 1159 3500 
L 1159 2956 
Q 1341 3275 1631 3429 
Q 1922 3584 2338 3584 
Q 2397 3584 2469 3576 
Q 2541 3569 2628 3553 
L 2631 2963 
z
" transform="scale(0.015625)"/>
      <path id="DejaVuSans-67" d="M 2906 1791 
Q 2906 2416 2648 2759 
Q 2391 3103 1925 3103 
Q 1463 3103 1205 2759 
Q 947 2416 947 1791 
Q 947 1169 1205 825 
Q 1463 481 1925 481 
Q 2391 481 2648 825 
Q 2906 1169 2906 1791 
z
M 3481 434 
Q 3481 -459 3084 -895 
Q 2688 -1331 1869 -1331 
Q 1566 -1331 1297 -1286 
Q 1028 -1241 775 -1147 
L 775 -588 
Q 1028 -725 1275 -790 
Q 1522 -856 1778 -856 
Q 2344 -856 2625 -561 
Q 2906 -266 2906 331 
L 2906 616 
Q 2728 306 2450 153 
Q 2172 0 1784 0 
Q 1141 0 747 490 
Q 353 981 353 1791 
Q 353 2603 747 3093 
Q 1141 3584 1784 3584 
Q 2172 3584 2450 3431 
Q 2728 3278 2906 2969 
L 2906 3500 
L 3481 3500 
L 3481 434 
z
" transform="scale(0.015625)"/>
      <path id="DejaVuSans-61" d="M 2194 1759 
Q 1497 1759 1228 1600 
Q 959 1441 959 1056 
Q 959 750 1161 570 
Q 1363 391 1709 391 
Q 2188 391 2477 730 
Q 2766 1069 2766 1631 
L 2766 1759 
L 2194 1759 
z
M 3341 1997 
L 3341 0 
L 2766 0 
L 2766 531 
Q 2569 213 2275 61 
Q 1981 -91 1556 -91 
Q 1019 -91 701 211 
Q 384 513 384 1019 
Q 384 1609 779 1909 
Q 1175 2209 1959 2209 
L 2766 2209 
L 2766 2266 
Q 2766 2663 2505 2880 
Q 2244 3097 1772 3097 
Q 1472 3097 1187 3025 
Q 903 2953 641 2809 
L 641 3341 
Q 956 3463 1253 3523 
Q 1550 3584 1831 3584 
Q 2591 3584 2966 3190 
Q 3341 2797 3341 1997 
z
" transform="scale(0.015625)"/>
     </defs>
     <use xlink:href="#DejaVuSans-56"/>
     <use xlink:href="#DejaVuSans-69" x="66.158203"/>
     <use xlink:href="#DejaVuSans-72" x="93.941406"/>
     <use xlink:href="#DejaVuSans-67" x="133.304688"/>
     <use xlink:href="#DejaVuSans-69" x="196.78125"/>
     <use xlink:href="#DejaVuSans-6e" x="224.564453"/>
     <use xlink:href="#DejaVuSans-69" x="287.943359"/>
     <use xlink:href="#DejaVuSans-61" x="315.726562"/>
    </g>
   </g>
  </g>
 </g>
 <defs>
  <clipPath id="p9d475beac4">
   <rect x="45" y="133.40934" width="279" height="96.781319"/>
  </clipPath>
 </defs>
</svg>
