<?xml version="1.0" encoding="utf-8" standalone="no"?>
<!DOCTYPE svg PUBLIC "-//W3C//DTD SVG 1.1//EN"
  "http://www.w3.org/Graphics/SVG/1.1/DTD/svg11.dtd">
<svg xmlns:xlink="http://www.w3.org/1999/xlink" width="460.8pt" height="345.6pt" viewBox="0 0 460.8 345.6" xmlns="http://www.w3.org/2000/svg" version="1.1">
 <metadata>
  <rdf:RDF xmlns:dc="http://purl.org/dc/elements/1.1/" xmlns:cc="http://creativecommons.org/ns#" xmlns:rdf="http://www.w3.org/1999/02/22-rdf-syntax-ns#">
   <cc:Work>
    <dc:type rdf:resource="http://purl.org/dc/dcmitype/StillImage"/>
    <dc:date>2023-06-19T14:47:45.314770</dc:date>
    <dc:format>image/svg+xml</dc:format>
    <dc:creator>
     <cc:Agent>
      <dc:title>Matplotlib v3.7.1, https://matplotlib.org/</dc:title>
     </cc:Agent>
    </dc:creator>
   </cc:Work>
  </rdf:RDF>
 </metadata>
 <defs>
  <style type="text/css">*{stroke-linejoin: round; stroke-linecap: butt}</style>
 </defs>
 <g id="figure_1">
  <g id="patch_1">
   <path d="M 0 345.6 
L 460.8 345.6 
L 460.8 0 
L 0 0 
z
" style="fill: #ffffff"/>
  </g>
  <g id="axes_1">
   <g id="PatchCollection_1">
    <path d="M 161.03663 156.223986 
L 161.47449 154.275362 
L 161.610365 153.402052 
L 161.684091 152.588751 
L 162.668116 150.474889 
L 163.04916 149.073535 
L 163.018237 148.560706 
L 162.863703 147.659716 
L 162.709168 147.08339 
L 162.710615 146.945727 
L 163.01839 146.417578 
L 163.292729 146.254031 
L 163.662119 145.734017 
L 163.729676 145.569096 
L 163.938895 144.568582 
L 164.007899 143.837267 
L 164.251316 143.427975 
L 164.261445 143.345462 
L 164.165099 143.141767 
L 164.110186 142.849643 
L 164.147734 142.611928 
L 164.226182 142.407071 
L 164.643479 142.016057 
L 164.698697 141.829795 
L 164.611338 141.003288 
L 164.628246 140.811637 
L 164.786741 140.660345 
L 165.028635 140.630869 
L 165.130617 140.571599 
L 165.26276 140.146882 
L 165.609987 139.906526 
L 165.793082 139.862681 
L 166.012736 139.620001 
L 166.14427 139.368446 
L 166.804222 138.945949 
L 166.845121 138.752713 
L 167.116871 138.137931 
L 167.317332 137.782838 
L 167.31916 137.4325 
L 167.357622 137.35548 
L 167.65778 137.107835 
L 167.727622 136.641597 
L 168.304708 136.200505 
L 168.234791 135.828825 
L 168.726194 135.669504 
L 168.934576 135.520113 
L 169.204345 135.173262 
L 169.294065 135.146849 
L 169.647537 135.240878 
L 169.730174 135.210979 
L 170.019136 134.614052 
L 170.261639 133.74539 
L 170.505053 133.066044 
L 170.548469 132.944873 
L 170.687619 132.005215 
L 170.590587 131.394024 
L 170.244883 130.58495 
L 169.831395 129.122742 
L 169.681963 128.224709 
L 169.657895 127.250186 
L 169.711971 126.598214 
L 169.699633 125.708211 
L 169.613569 125.212497 
L 169.474335 124.702092 
L 169.445401 124.596025 
L 168.889259 123.274543 
L 168.866258 122.4754 
L 168.970144 121.646358 
L 169.214322 121.255555 
L 169.931397 120.549596 
L 170.230336 120.199997 
L 170.383652 119.932172 
L 170.581524 119.277454 
L 170.72829 118.443763 
L 171.829606 115.724521 
L 171.995337 114.750737 
L 171.999089 114.686141 
L 172.013768 114.433467 
L 171.891679 113.870876 
L 171.518633 112.938296 
L 171.624423 111.961448 
L 171.608124 111.185231 
L 171.536074 110.62021 
L 171.190827 109.660161 
L 171.152517 108.9766 
L 171.01649 108.118186 
L 170.547022 107.387928 
L 170.060036 106.889889 
L 169.940384 106.713347 
L 169.896209 106.415094 
L 169.919439 106.055564 
L 169.913433 106.006106 
L 169.84975 105.481669 
L 169.704355 105.288222 
L 169.355757 105.144748 
L 169.283707 105.068151 
L 169.197643 104.874705 
L 169.174413 104.532924 
L 169.120947 104.358072 
L 168.557341 103.57858 
L 168.534111 103.45444 
L 168.58514 103.204364 
L 168.575925 103.077372 
L 168.257487 102.669454 
L 167.717111 102.301261 
L 167.324186 102.140037 
L 167.202173 102.034387 
L 166.950836 101.545434 
L 166.844358 101.442699 
L 166.403452 101.017286 
L 165.861629 100.181587 
L 165.764369 99.486088 
L 165.602294 99.159626 
L 165.29353 98.71716 
L 165.309371 98.583301 
L 165.594449 98.238351 
L 165.677543 98.06857 
L 165.713644 97.882307 
L 165.674268 97.630858 
L 165.378984 97.034882 
L 165.210969 96.301136 
L 164.686358 95.770135 
L 164.655056 95.649376 
L 164.675239 95.515516 
L 164.874786 95.087419 
L 164.939448 94.743842 
L 164.984993 94.308561 
L 164.888266 93.833343 
L 164.917665 93.74597 
L 165.453472 93.324317 
L 165.543877 93.206517 
L 165.193832 92.75338 
L 165.588661 91.997554 
L 165.585538 91.89951 
L 165.512879 91.758571 
L 165.504806 91.590375 
L 165.881051 91.002111 
L 165.962621 90.962703 
L 166.150972 90.983305 
L 166.221118 90.881881 
L 166.190958 90.607928 
L 165.988745 90.326051 
L 166.05554 89.457918 
L 166.112967 89.397274 
L 166.408479 89.29342 
L 166.392866 88.999816 
L 166.2199 88.739281 
L 166.185093 88.623593 
L 166.554103 88.339075 
L 166.857917 87.601949 
L 166.856774 87.512569 
L 166.534072 86.991921 
L 166.571544 84.313777 
L 166.533996 82.608572 
L 166.668804 82.242175 
L 167.134921 81.633203 
L 167.387021 81.181229 
L 167.818636 79.81305 
L 167.942173 79.312054 
L 168.1568 78.96404 
L 168.807308 78.350842 
L 168.955216 78.02269 
L 169.002209 77.645834 
L 168.942878 76.542733 
L 168.905025 76.227048 
L 168.827872 75.972007 
L 167.703935 74.726172 
L 167.45473 74.304414 
L 167.342542 74.186718 
L 167.103771 73.99549 
L 166.525085 73.663641 
L 166.222794 73.379968 
L 166.094688 73.210293 
L 165.788817 72.622346 
L 165.531996 72.511307 
L 165.476016 72.442423 
L 165.330773 71.701704 
L 165.327879 71.301921 
L 165.447836 70.432203 
L 165.761094 70.04045 
L 166.046096 69.864119 
L 166.264226 69.413412 
L 166.465601 68.530171 
L 166.787771 66.795067 
L 166.932633 66.185144 
L 167.103771 65.753138 
L 167.245586 65.418541 
L 167.440639 65.117014 
L 167.883908 64.698319 
L 168.268561 64.434899 
L 168.396561 64.347241 
L 168.558559 64.025112 
L 168.596412 63.345671 
L 168.511034 61.311047 
L 168.640282 59.496916 
L 168.614615 59.052231 
L 168.577219 58.932212 
L 168.119785 58.448119 
L 167.702564 57.840204 
L 167.499361 57.373016 
L 167.405985 57.011901 
L 167.366304 56.66431 
L 167.458005 56.367114 
L 167.704849 55.929825 
L 168.242864 54.182782 
L 175.387025 54.041105 
L 176.016284 53.980778 
L 179.758391 53.889001 
L 181.417074 53.848322 
L 187.828321 53.691083 
L 187.904712 53.769582 
L 189.418146 53.765884 
L 189.830416 53.651464 
L 190.382369 53.667101 
L 190.690981 53.765461 
L 193.192706 53.735668 
L 193.25158 53.745388 
L 196.810447 53.838572 
L 199.21712 53.820717 
L 199.222832 53.779619 
L 199.661988 53.727216 
L 206.133249 53.568 
L 211.337236 53.651042 
L 217.025211 53.682899 
L 219.146681 53.694781 
L 225.612154 53.929537 
L 225.850392 53.967149 
L 226.184062 54.10851 
L 228.199257 54.450713 
L 228.317467 54.453823 
L 229.982156 54.497622 
L 233.902263 54.390915 
L 236.352273 54.426096 
L 239.975117 54.631904 
L 243.990047 54.733752 
L 245.463021 54.829415 
L 246.923082 54.92424 
L 248.309781 54.853032 
L 249.908975 54.885783 
L 251.747832 54.839581 
L 258.314547 54.674587 
L 262.689957 54.736604 
L 266.565814 54.655147 
L 267.979017 54.390069 
L 268.274149 54.611514 
L 268.765171 54.610457 
L 271.551745 54.496354 
L 274.560487 54.444902 
L 277.012325 54.504912 
L 278.333939 54.459613 
L 288.250702 54.119709 
L 294.005118 54.121611 
L 300.254898 53.985321 
L 304.008056 54.001591 
L 308.537772 53.914746 
L 311.28337 53.887171 
L 311.191366 54.064559 
L 310.173524 55.021122 
L 309.567724 55.229149 
L 308.817747 54.918324 
L 307.507973 54.909977 
L 307.095703 55.085992 
L 306.715345 55.129309 
L 306.328818 55.364382 
L 305.804131 55.943243 
L 305.681356 56.57662 
L 305.742896 56.986968 
L 306.213507 57.861229 
L 306.551823 58.110037 
L 306.916872 58.887627 
L 307.385046 59.071354 
L 307.49015 59.687087 
L 307.340033 60.865411 
L 307.440264 61.295199 
L 307.391062 61.57771 
L 307.329751 61.698363 
L 307.463798 63.00706 
L 307.919405 63.417831 
L 308.279199 63.879208 
L 308.560621 64.35749 
L 309.046921 64.642536 
L 309.083708 64.739101 
L 308.937171 65.366984 
L 308.851563 65.44675 
L 308.656586 65.388748 
L 308.537772 65.424775 
L 308.432286 65.605755 
L 307.962437 66.135805 
L 307.564257 66.458569 
L 307.527699 66.530834 
L 307.547501 66.616939 
L 307.728617 66.783656 
L 307.684442 66.923644 
L 306.91512 67.92046 
L 306.591808 68.10144 
L 306.462027 68.236567 
L 306.420366 68.330702 
L 306.400182 68.68664 
L 305.986313 69.094558 
L 305.565284 69.207921 
L 305.124681 69.471097 
L 304.848058 69.845313 
L 304.799085 69.949168 
L 304.789336 70.166492 
L 304.936102 70.434422 
L 304.938539 70.591419 
L 304.534038 70.951372 
L 304.385977 71.117878 
L 304.294201 71.301604 
L 304.298389 71.507201 
L 304.428933 71.626481 
L 304.610353 72.015699 
L 304.659783 72.315853 
L 304.64356 72.467251 
L 304.529773 72.647914 
L 304.228167 72.821604 
L 303.879036 73.85582 
L 303.768981 73.933051 
L 303.688324 73.933051 
L 303.658925 73.85096 
L 303.448639 73.940341 
L 302.960663 74.54815 
L 302.870334 74.761671 
L 302.897829 75.025058 
L 303.0711 75.361239 
L 303.348942 75.527111 
L 303.357929 75.714007 
L 303.258613 75.900798 
L 303.050916 76.675113 
L 303.159296 77.004427 
L 303.041929 77.315886 
L 302.608486 77.929929 
L 302.52722 77.992263 
L 302.193093 77.965533 
L 301.540072 78.277943 
L 301.236715 78.678254 
L 301.257203 78.844232 
L 301.31562 78.965096 
L 301.306328 79.054899 
L 300.892306 79.409358 
L 300.65285 79.866721 
L 300.377216 80.086474 
L 300.108132 80.225194 
L 299.917725 80.618532 
L 299.919933 80.825397 
L 299.637902 81.119212 
L 299.182219 81.198239 
L 298.623868 81.397074 
L 298.576038 81.480538 
L 298.56964 81.705574 
L 298.579249 81.731113 
L 298.634988 81.879264 
L 298.954873 82.034043 
L 299.086558 82.376985 
L 299.095774 83.103758 
L 299.051676 83.318652 
L 299.053732 83.82081 
L 299.106208 83.956043 
L 299.232334 84.086733 
L 299.283592 84.089058 
L 299.552142 83.929525 
L 299.659608 83.968087 
L 299.676745 84.059792 
L 299.594108 84.49687 
L 299.606371 84.634533 
L 300.007064 85.023011 
L 300.630229 86.162245 
L 301.023382 86.461448 
L 301.064891 86.613585 
L 300.945544 86.937194 
L 300.945544 87.033759 
L 300.992003 87.137508 
L 301.106705 87.234073 
L 301.243646 87.5599 
L 301.153469 87.782084 
L 301.27571 88.390527 
L 301.444259 88.733259 
L 301.410214 88.962732 
L 301.278528 89.170442 
L 301.28584 89.233199 
L 301.764143 89.607203 
L 301.966661 89.672389 
L 302.298426 89.681898 
L 302.37657 89.819561 
L 302.335137 89.954794 
L 302.186543 90.170533 
L 302.097661 90.269211 
L 302.097661 90.441739 
L 302.179231 90.683996 
L 302.12805 90.877126 
L 302.026601 91.131956 
L 302.026601 91.304484 
L 302.158363 91.480076 
L 302.301778 91.606329 
L 302.831262 91.704584 
L 302.85434 91.822596 
L 302.80849 91.969979 
L 302.826236 92.093273 
L 302.897372 92.241185 
L 303.12449 92.266435 
L 303.271332 92.254814 
L 303.389994 92.143458 
L 303.468594 91.929726 
L 303.582915 91.897714 
L 303.714905 92.007168 
L 303.915899 92.282177 
L 304.159697 92.90034 
L 304.199371 93.161076 
L 304.201206 93.173131 
L 304.137762 93.349462 
L 303.850094 93.414649 
L 303.850094 93.651201 
L 303.88909 93.723678 
L 304.45955 94.186745 
L 304.681337 94.672634 
L 304.572119 94.773319 
L 304.515606 94.903798 
L 304.457113 94.906228 
L 304.373791 95.040193 
L 304.31286 95.79359 
L 304.50045 96.575934 
L 304.51751 96.841541 
L 304.444394 97.04196 
L 304.372191 97.220405 
L 304.354445 97.442271 
L 304.47364 97.756583 
L 304.461074 98.033811 
L 304.549956 98.280294 
L 304.868241 98.309559 
L 305.528345 98.597035 
L 305.859654 98.809605 
L 305.747466 99.195865 
L 305.564751 99.434953 
L 305.199245 99.777684 
L 305.006857 99.854915 
L 304.868088 99.789728 
L 304.725283 99.658615 
L 304.568768 99.629244 
L 304.394888 99.894639 
L 304.154822 100.679942 
L 304.128165 100.886912 
L 304.160154 101.225735 
L 304.062589 101.379245 
L 303.791982 101.474437 
L 303.319772 101.521029 
L 302.868887 101.309939 
L 301.753023 101.212845 
L 301.606714 101.2737 
L 301.467184 101.411575 
L 301.298559 101.719547 
L 301.172129 102.113202 
L 301.147833 102.299148 
L 301.247758 102.509182 
L 301.912509 103.09808 
L 302.893716 103.836685 
L 303.05442 104.140854 
L 303.059294 104.317079 
L 302.949848 104.597265 
L 302.764925 104.949822 
L 302.336813 105.575276 
L 302.091111 105.758897 
L 301.986539 105.783091 
L 301.548526 105.72287 
L 301.441593 105.862963 
L 301.463528 106.068137 
L 301.604734 106.275741 
L 302.001391 106.603998 
L 302.074431 106.734371 
L 302.149909 107.082068 
L 302.281366 107.279952 
L 302.697368 107.637264 
L 302.750911 107.726539 
L 302.707117 107.869062 
L 302.622043 107.951152 
L 302.529581 107.965626 
L 302.128431 108.015177 
L 301.88707 108.10255 
L 301.651574 108.189923 
L 301.367182 108.498952 
L 301.348294 108.742583 
L 301.162989 109.381665 
L 301.043946 109.584515 
L 300.275614 109.807121 
L 299.791599 109.638502 
L 299.662807 109.662696 
L 298.642757 109.809762 
L 298.506577 109.855509 
L 298.010223 110.49512 
L 297.72088 110.620527 
L 297.509224 110.779849 
L 297.371902 110.992841 
L 297.334963 111.109268 
L 297.358878 111.325536 
L 297.45888 111.442491 
L 297.893313 111.752471 
L 297.927053 111.937254 
L 297.740683 112.19631 
L 297.571829 112.321929 
L 297.019496 112.261497 
L 296.9412 112.326789 
L 296.639214 113.013097 
L 296.509128 113.971456 
L 296.295186 114.46157 
L 296.115365 114.666744 
L 295.753363 114.859874 
L 295.110547 114.946613 
L 294.967437 115.018879 
L 294.916408 115.119881 
L 294.975434 115.31935 
L 294.915113 115.770056 
L 294.465752 116.245802 
L 294.079606 116.47517 
L 293.431154 117.020857 
L 292.77562 117.45318 
L 292.238975 117.610283 
L 291.392653 117.515726 
L 290.98739 117.554817 
L 290.652044 117.655502 
L 290.506344 117.776049 
L 290.347545 118.002459 
L 290.165744 118.468591 
L 290.105118 118.543497 
L 289.959875 118.574981 
L 289.615466 118.512013 
L 289.249351 118.129346 
L 289.11599 118.04229 
L 288.668532 117.976152 
L 288.439205 118.022639 
L 288.384979 118.052148 
L 288.217495 118.143292 
L 287.843307 118.39136 
L 287.645435 118.599598 
L 287.400647 118.739797 
L 286.48098 118.691092 
L 286.234516 118.79558 
L 285.592539 119.41797 
L 285.506094 119.575389 
L 285.506018 119.7345 
L 285.779443 120.20285 
L 285.747683 120.379815 
L 285.50815 120.479233 
L 285.099384 120.423555 
L 284.771731 120.53565 
L 284.675918 120.627461 
L 284.570432 121.310811 
L 284.610189 121.402727 
L 284.825502 121.620579 
L 284.839896 121.730456 
L 284.794427 121.840755 
L 284.591986 122.011065 
L 284.541185 122.145981 
L 284.629991 122.555167 
L 284.82177 123.105502 
L 284.842105 123.223937 
L 284.789096 123.415059 
L 284.678736 123.521344 
L 284.336992 123.690597 
L 283.772777 123.789169 
L 283.238494 123.986736 
L 282.898918 124.239428 
L 282.396284 124.613457 
L 281.763446 124.96538 
L 281.054141 125.046097 
L 280.447198 125.378581 
L 280.252068 125.413868 
L 279.9938 125.335475 
L 279.534385 125.035532 
L 277.977843 124.265337 
L 277.629245 124.182401 
L 276.82763 124.367185 
L 276.244678 124.843776 
L 275.938351 125.313605 
L 275.459667 125.504516 
L 275.181367 125.496698 
L 274.715707 125.295962 
L 273.72894 125.317092 
L 273.347059 125.421475 
L 271.977116 125.32174 
L 271.710774 125.454544 
L 271.708589 125.462699 
L 271.568577 125.985439 
L 271.429809 126.138633 
L 270.362918 126.656005 
L 269.779281 126.964506 
L 269.431521 127.061599 
L 269.082162 127.130166 
L 268.575449 126.953624 
L 268.325787 126.91728 
L 268.015423 127.132068 
L 267.964394 127.450711 
L 268.075973 127.619436 
L 268.077801 128.578217 
L 268.06074 128.887246 
L 267.990366 129.085236 
L 267.718845 129.512488 
L 267.568499 129.657335 
L 267.012662 130.130651 
L 266.475484 130.287226 
L 266.054684 130.737404 
L 265.555512 131.68879 
L 265.377291 132.350059 
L 265.477064 132.629506 
L 265.623297 132.664793 
L 265.879966 133.1529 
L 265.985985 133.930385 
L 266.427121 134.890962 
L 266.722481 135.195237 
L 266.848302 135.494652 
L 266.891791 135.781916 
L 266.681048 136.300873 
L 266.458195 137.097587 
L 266.433976 137.450144 
L 266.528265 137.858167 
L 266.506871 137.960298 
L 266.484776 138.065771 
L 266.075629 138.980813 
L 266.116681 139.207751 
L 266.046535 139.625389 
L 265.964279 139.801615 
L 265.698165 140.011755 
L 265.620784 140.171076 
L 265.499761 140.929227 
L 265.867475 141.438675 
L 266.160094 142.020495 
L 266.500923 143.239811 
L 266.914335 143.884493 
L 267.31084 143.988453 
L 267.443205 144.302251 
L 267.479921 144.389293 
L 267.486395 144.523892 
L 267.286391 144.891451 
L 267.274281 144.995201 
L 267.34161 146.487308 
L 267.655706 146.844725 
L 267.931187 146.977633 
L 267.972239 147.081488 
L 267.682591 147.803401 
L 267.581066 147.811853 
L 267.437194 147.701976 
L 267.344275 147.703561 
L 267.002913 147.887604 
L 266.552637 148.312321 
L 266.374949 149.130481 
L 266.363068 149.34284 
L 267.51747 150.057673 
L 267.730041 150.084297 
L 268.027076 150.23897 
L 268.159828 150.403152 
L 268.17666 150.627765 
L 268.111236 151.11545 
L 268.033855 151.318194 
L 267.927531 151.455751 
L 267.775129 151.551048 
L 267.491727 151.601127 
L 267.017765 151.519142 
L 266.907405 151.5894 
L 266.823854 151.772387 
L 266.93627 151.958227 
L 267.509168 152.392558 
L 267.301929 153.093234 
L 266.839924 153.439769 
L 266.861326 153.674631 
L 266.465812 154.140129 
L 266.248062 154.684019 
L 266.184694 154.782909 
L 266.055979 154.859505 
L 265.8118 155.110321 
L 265.762751 155.525423 
L 265.480263 155.770427 
L 264.836001 156.13038 
L 264.646279 156.267832 
L 264.523123 156.447966 
L 264.476968 156.6019 
L 264.492049 156.802425 
L 264.789922 157.32191 
L 264.826633 157.514723 
L 264.777584 157.634637 
L 264.498749 157.802768 
L 264.473361 157.818076 
L 264.446427 157.834317 
L 264.342769 157.964796 
L 264.304155 158.131407 
L 264.045734 158.39395 
L 263.648087 158.411699 
L 263.529882 158.394795 
L 263.375576 158.530028 
L 263.296062 158.672445 
L 263.252725 158.899383 
L 263.006871 159.343751 
L 262.73436 159.406613 
L 262.519809 159.641053 
L 262.546542 159.98632 
L 262.650505 160.531901 
L 262.63611 160.679178 
L 262.23595 160.922386 
L 261.629235 161.562102 
L 261.650485 161.828977 
L 261.946987 162.244607 
L 262.027492 162.569695 
L 261.971588 163.551086 
L 261.926804 163.85367 
L 261.803115 164.203586 
L 261.801288 164.324661 
L 261.835789 164.411189 
L 262.08926 164.46972 
L 262.854774 165.115036 
L 263.002454 165.323379 
L 263.022713 165.452168 
L 262.586147 166.204824 
L 262.475406 166.328013 
L 262.09482 166.50931 
L 261.760007 166.511951 
L 261.564192 166.596578 
L 261.498768 166.751673 
L 261.47691 166.977238 
L 261.645915 167.816845 
L 261.645839 167.960002 
L 261.55094 169.083177 
L 261.461296 169.3304 
L 261.323289 169.541279 
L 260.248249 170.484952 
L 259.492408 170.985315 
L 259.013876 171.363968 
L 258.678759 171.848271 
L 258.460856 172.308698 
L 258.412798 172.778739 
L 258.290708 172.893898 
L 257.802885 173.01117 
L 257.545454 172.982116 
L 257.46594 173.09062 
L 257.379342 173.264416 
L 257.319098 173.691879 
L 257.446442 174.063876 
L 257.608212 174.351669 
L 257.642688 174.440405 
L 257.694549 174.573888 
L 257.783692 174.803326 
L 257.227854 175.095345 
L 256.876591 175.117004 
L 256.604689 175.206384 
L 256.465158 175.411558 
L 256.226921 176.179323 
L 256.26782 176.444929 
L 256.611696 177.343279 
L 256.66204 178.513573 
L 256.575671 178.865708 
L 256.354722 179.2638 
L 256.201102 179.690947 
L 256.17711 179.874251 
L 256.340556 180.433778 
L 256.511161 180.785912 
L 256.575976 181.245177 
L 256.460665 181.612736 
L 256.01077 182.023824 
L 255.825694 182.669351 
L 255.64534 183.007962 
L 255.532315 183.164959 
L 254.996584 183.577948 
L 254.902904 183.749419 
L 254.886072 183.981323 
L 254.944032 185.145173 
L 254.910155 185.178856 
L 254.73268 185.355313 
L 254.482865 185.52203 
L 254.050564 185.647649 
L 253.928094 185.729845 
L 253.774474 185.952029 
L 253.625727 186.352974 
L 253.505694 186.563113 
L 252.815049 187.572713 
L 251.874055 188.121358 
L 250.413478 189.065349 
L 249.885288 189.067462 
L 249.512699 189.815892 
L 249.224575 190.071673 
L 248.847568 190.523119 
L 248.684199 190.851482 
L 248.283201 191.47683 
L 248.07916 191.722996 
L 247.711978 191.981313 
L 247.471913 192.387012 
L 247.284628 193.121074 
L 247.271056 193.465848 
L 247.271039 193.466261 
L 247.231771 194.463791 
L 247.358887 194.666641 
L 247.454776 194.99025 
L 247.430709 195.415283 
L 247.361096 195.895783 
L 247.250736 196.209778 
L 246.864589 196.929366 
L 246.70876 197.064599 
L 246.622467 197.306117 
L 246.543334 198.01852 
L 246.634425 198.320365 
L 246.617669 198.716344 
L 246.529015 198.890246 
L 245.975311 199.129334 
L 245.603788 199.354053 
L 245.47195 199.481996 
L 245.431279 199.578667 
L 245.445673 199.769367 
L 245.606301 199.945698 
L 245.615898 200.013315 
L 245.484136 200.387636 
L 245.225639 200.590591 
L 245.07019 201.205479 
L 245.04399 201.705313 
L 245.199743 202.149681 
L 245.441789 202.352531 
L 245.540039 202.516712 
L 245.545167 202.568896 
L 245.583224 202.95622 
L 245.518561 203.154209 
L 245.434325 203.218022 
L 245.429962 203.219857 
L 245.223963 203.306452 
L 243.88776 204.536017 
L 242.82224 204.966439 
L 242.12078 205.413659 
L 241.639887 205.978891 
L 241.397308 207.029272 
L 241.385274 207.205498 
L 241.50683 208.002528 
L 241.568065 209.485338 
L 241.345136 210.086491 
L 240.904381 210.818018 
L 240.782292 210.924197 
L 240.51435 210.909512 
L 240.382512 211.281403 
L 240.391957 211.632164 
L 240.183422 212.384926 
L 240.197665 212.660252 
L 240.355398 212.952588 
L 240.869422 213.392413 
L 241.23371 213.776982 
L 241.529146 214.502275 
L 241.569664 214.688221 
L 241.564638 215.016689 
L 241.466007 215.907749 
L 241.372479 216.339966 
L 241.255188 216.530666 
L 240.719381 217.102766 
L 240.645198 217.252367 
L 240.63545 217.493885 
L 240.792421 218.957467 
L 240.744515 219.160316 
L 240.531563 219.650431 
L 240.4046 220.297542 
L 240.385026 221.097003 
L 240.345137 221.311525 
L 240.343836 221.31852 
L 240.076109 222.758363 
L 240.063999 223.20759 
L 239.950233 224.02504 
L 239.783719 225.221507 
L 239.673892 225.426787 
L 239.072129 226.02794 
L 238.902514 226.460158 
L 238.857045 226.848953 
L 238.923992 227.97255 
L 238.95499 228.144021 
L 239.055144 228.305878 
L 239.773209 228.796415 
L 240.040388 228.840049 
L 240.670332 228.821032 
L 240.827761 228.920238 
L 240.765536 229.125412 
L 240.424097 229.608237 
L 240.128128 229.907546 
L 239.99926 230.098351 
L 239.569432 230.940613 
L 239.563751 230.951746 
L 239.385692 231.300658 
L 239.285461 231.588028 
L 239.297343 231.723262 
L 239.411663 232.010738 
L 239.881132 232.781355 
L 240.25532 233.131693 
L 240.39348 233.390221 
L 240.419604 233.561692 
L 239.947089 234.575835 
L 239.476706 236.741995 
L 238.897259 237.958882 
L 238.430151 238.796904 
L 237.391441 239.320827 
L 237.30332 239.429542 
L 237.127003 239.910148 
L 237.108419 240.825612 
L 237.282299 241.451171 
L 237.467985 241.806264 
L 237.508503 241.968015 
L 237.501672 242.004306 
L 237.448944 242.28444 
L 237.205984 242.830232 
L 236.989377 243.487064 
L 236.984578 243.888009 
L 237.134543 244.547376 
L 237.201186 245.209067 
L 237.105982 245.390258 
L 236.244503 246.293573 
L 236.30886 246.643806 
L 236.741923 247.377974 
L 236.768123 247.641256 
L 236.653955 247.827201 
L 236.071156 248.44547 
L 236.123556 248.65075 
L 236.105886 249.576252 
L 236.106363 249.583814 
L 236.147547 250.23752 
L 236.128583 250.413852 
L 236.052496 250.573279 
L 235.767951 250.832018 
L 235.722025 250.941366 
L 235.741066 251.145801 
L 236.114569 251.95234 
L 236.395077 252.135855 
L 236.706507 252.116521 
L 236.882444 252.196287 
L 236.958531 252.283133 
L 236.979932 252.662419 
L 236.968051 252.73965 
L 236.818315 252.773458 
L 236.804072 252.874883 
L 236.953808 253.147885 
L 237.183575 253.415675 
L 237.336984 253.594471 
L 237.562731 253.988126 
L 237.586418 254.577447 
L 237.550774 254.729584 
L 237.420078 255.016954 
L 236.98275 255.41547 
L 236.84261 255.681182 
L 236.795085 255.975842 
L 237.087322 256.608585 
L 237.393726 257.478092 
L 237.384205 257.80413 
L 237.317639 257.994936 
L 237.037359 258.490121 
L 236.631258 259.09138 
L 235.907101 259.922324 
L 235.213866 260.564999 
L 235.009825 260.847615 
L 234.943411 261.067474 
L 234.983854 261.432075 
L 235.055142 261.610837 
L 235.332985 261.958534 
L 235.485006 262.332855 
L 235.435271 262.83047 
L 235.276472 263.615456 
L 235.321636 263.929345 
L 235.580514 264.581422 
L 235.730022 264.803606 
L 236.038558 264.967787 
L 236.674443 265.513474 
L 236.736135 265.682621 
L 236.740933 265.969992 
L 236.648395 266.163227 
L 236.363774 266.506275 
L 236.128964 266.568821 
L 235.737562 266.491801 
L 235.507931 266.621329 
L 235.28028 266.952756 
L 235.145167 267.307849 
L 235.097869 267.732988 
L 235.197567 268.097589 
L 235.382567 268.315018 
L 235.380282 268.435777 
L 235.048364 268.904445 
L 234.451094 269.583251 
L 234.230602 269.614841 
L 234.038443 269.419281 
L 233.851006 269.378289 
L 233.457548 269.610298 
L 233.021515 270.047798 
L 232.135816 270.241456 
L 231.855917 270.415146 
L 231.054607 270.520903 
L 230.0063 271.389881 
L 229.859229 271.686972 
L 229.825946 271.923524 
L 229.87568 272.061187 
L 230.043848 272.281046 
L 230.190843 272.32225 
L 230.283228 272.406771 
L 230.368455 272.636245 
L 230.429918 272.979293 
L 230.451091 273.421336 
L 230.393893 274.174944 
L 230.611338 275.240222 
L 230.59702 275.549356 
L 230.532967 275.677405 
L 230.234408 275.851095 
L 230.156188 275.971854 
L 230.051845 276.437986 
L 230.060909 277.411453 
L 229.96332 277.605403 
L 229.961287 277.609443 
L 229.617792 278.05381 
L 229.357239 278.316986 
L 228.916789 278.553539 
L 228.495303 278.712966 
L 228.433687 278.783012 
L 228.23711 279.790922 
L 228.258741 280.252616 
L 228.176256 280.68663 
L 228.184025 280.760374 
L 228.258664 280.815418 
L 228.327211 281.416889 
L 228.09758 282.158452 
L 228.148637 282.275412 
L 228.388598 282.825109 
L 228.759969 283.3204 
L 228.847404 283.788856 
L 228.844967 284.31542 
L 228.944055 285.230885 
L 228.945094 285.23754 
L 229.199125 286.863825 
L 229.441628 287.249451 
L 231.059786 288.747686 
L 231.251412 288.968602 
L 231.563071 289.438325 
L 231.783029 289.881531 
L 231.844721 290.202076 
L 231.820044 290.442431 
L 231.684322 290.58918 
L 231.327727 290.777767 
L 231.183398 291.069997 
L 231.232828 291.357474 
L 231.459565 291.582193 
L 231.629713 291.589588 
L 231.849519 291.519648 
L 232.405128 291.177022 
L 232.514879 291.029428 
L 232.550142 290.720187 
L 232.613891 290.621193 
L 232.812371 290.582313 
L 233.133855 290.669052 
L 233.389382 290.994985 
L 233.493497 291.248547 
L 233.609417 291.400685 
L 234.030141 291.656465 
L 234.162588 291.854455 
L 234.290314 292.228776 
L 234.382852 292.96548 
L 234.508673 293.473977 
L 234.908071 293.971276 
L 235.42796 294.816483 
L 235.619357 295.251236 
L 235.616996 295.488 
L 231.184908 295.317409 
L 218.278158 294.820627 
L 210.288439 294.513103 
L 208.914721 294.460228 
L 203.303077 294.294486 
L 199.687744 294.187705 
L 192.631842 293.979306 
L 192.623312 293.979071 
L 183.523482 293.728388 
L 174.196294 293.471442 
L 173.323162 293.463095 
L 172.217047 287.557106 
L 172.56793 286.910734 
L 172.764963 286.295212 
L 172.512635 285.632147 
L 172.640208 284.158001 
L 172.722236 284.067035 
L 173.151643 284.23016 
L 173.165868 283.791065 
L 173.370154 277.485514 
L 173.458062 273.556357 
L 173.47206 272.930694 
L 173.47762 272.706608 
L 173.48516 272.582997 
L 173.809557 263.384644 
L 173.82896 262.834485 
L 174.101138 257.421585 
L 174.149301 256.463738 
L 174.620557 243.718368 
L 174.671474 242.34128 
L 174.675278 242.271676 
L 174.840937 239.239898 
L 174.991668 233.384608 
L 175.100577 229.153938 
L 175.11977 228.226429 
L 175.131803 227.508848 
L 175.13881 227.433625 
L 175.429611 217.838919 
L 175.457248 216.927068 
L 175.559306 212.22814 
L 175.585278 211.810185 
L 175.515893 211.771623 
L 175.51079 211.356098 
L 175.577585 211.080666 
L 175.840728 210.875069 
L 175.953069 210.696308 
L 175.991226 210.387068 
L 175.97607 210.109418 
L 175.941568 210.114489 
L 175.67139 209.542787 
L 175.59556 209.382328 
L 175.502108 209.281009 
L 175.32541 209.216034 
L 175.304389 208.4769 
L 175.455801 208.24954 
L 175.438969 208.114306 
L 175.137287 207.797988 
L 174.678101 206.942427 
L 174.261642 206.526691 
L 173.859425 206.200335 
L 173.071443 205.960719 
L 172.978067 205.83753 
L 172.951867 205.608056 
L 172.676462 205.42919 
L 172.019633 205.50885 
L 171.936996 205.461096 
L 171.88193 205.327448 
L 171.950781 205.088782 
L 172.128013 204.875896 
L 172.108896 204.813034 
L 171.761593 204.578594 
L 172.042025 204.025512 
L 172.075612 203.887849 
L 172.121234 203.433656 
L 172.118949 202.969849 
L 172.004019 202.689557 
L 171.678118 202.179791 
L 171.505609 202.097595 
L 171.369201 200.66518 
L 171.332947 200.523186 
L 171.213143 200.380663 
L 171.052515 200.279132 
L 170.942231 200.334705 
L 170.719531 200.691593 
L 170.551744 200.640036 
L 170.189437 200.349179 
L 169.707554 200.32023 
L 169.417449 200.501527 
L 168.314686 200.48494 
L 167.900359 200.861163 
L 167.064699 200.591119 
L 167.025323 200.640458 
L 166.533919 200.762802 
L 166.411678 200.743573 
L 166.279764 200.628625 
L 166.052036 200.651974 
L 166.006567 200.835595 
L 166.205809 201.156774 
L 166.201011 201.222066 
L 165.848834 201.68862 
L 165.736189 201.90848 
L 166.015021 202.603874 
L 166.007862 202.727063 
L 165.933679 202.891456 
L 165.605798 203.275602 
L 165.171821 203.579665 
L 165.173344 204.852864 
L 165.240139 205.437536 
L 165.177686 205.693528 
L 165.115308 205.826437 
L 164.52337 206.417765 
L 164.233417 206.610895 
L 164.053825 206.613219 
L 163.888552 206.526163 
L 163.482298 206.284222 
L 162.618991 205.592103 
L 162.358971 205.194962 
L 161.880287 205.03807 
L 161.730017 204.930306 
L 161.554005 204.608916 
L 161.532527 204.476958 
L 161.601378 204.239561 
L 162.008697 203.368681 
L 162.264681 202.919876 
L 162.223705 202.551365 
L 162.097199 202.078261 
L 162.105348 201.933836 
L 162.553263 201.064329 
L 162.565372 200.948008 
L 162.51579 200.774952 
L 161.785311 199.60191 
L 161.734054 199.378458 
L 161.895519 198.738742 
L 161.990418 198.559981 
L 162.11822 198.413549 
L 162.481974 198.180695 
L 162.729504 197.69787 
L 162.803153 197.089427 
L 163.29707 195.903073 
L 163.318776 195.577563 
L 163.34745 195.481449 
L 163.596771 194.645722 
L 163.646429 194.291263 
L 163.511697 193.903208 
L 163.550083 193.708176 
L 163.752753 193.402528 
L 164.038059 193.242045 
L 164.252458 193.008979 
L 164.389094 192.758692 
L 164.536317 192.3064 
L 164.986212 191.476513 
L 165.208456 191.188931 
L 165.605188 190.802883 
L 166.149297 189.99814 
L 166.202306 189.632588 
L 166.140766 188.916064 
L 166.17405 188.208414 
L 166.216853 187.996584 
L 166.732769 187.055504 
L 167.369046 185.894872 
L 167.66532 185.229694 
L 167.674003 185.073753 
L 167.356784 184.568531 
L 167.296844 184.383959 
L 167.144366 183.595275 
L 166.767283 183.1433 
L 166.33422 182.812085 
L 165.711436 182.239457 
L 165.645098 182.049391 
L 165.566041 181.475707 
L 165.489192 181.222567 
L 165.485321 181.213553 
L 165.373044 180.952101 
L 165.186064 180.702871 
L 164.649648 180.273823 
L 164.482851 179.913764 
L 164.463125 179.764057 
L 164.657874 179.006752 
L 164.795348 178.685573 
L 165.292235 178.166722 
L 165.693385 177.950983 
L 165.915019 177.6073 
L 166.02477 177.31919 
L 166.008395 177.221041 
L 165.910907 177.070277 
L 165.359106 176.548362 
L 165.278449 176.297441 
L 165.319958 175.850855 
L 165.485003 175.278966 
L 165.879832 174.273698 
L 165.887372 174.125787 
L 165.715168 173.626164 
L 165.168394 172.500032 
L 164.224963 171.222396 
L 164.120011 170.945168 
L 163.840493 169.742861 
L 163.321366 168.386409 
L 163.256856 168.064597 
L 163.490219 166.386861 
L 163.39136 164.431897 
L 163.054339 163.557213 
L 162.950376 163.09404 
L 162.952813 162.804557 
L 163.056167 162.43668 
L 163.455794 159.765509 
L 163.454118 159.264302 
L 163.34863 158.836832 
L 163.321594 158.727278 
L 163.090288 158.132253 
L 162.817015 157.859462 
L 162.375574 157.597659 
L 162.150132 157.517893 
L 161.779447 156.995027 
L 161.567333 156.885361 
L 161.10213 156.480507 
L 161.03663 156.223986 
" clip-path="url(#pd7fab7f2be)" style="fill: #c733ff"/>
   </g>
   <g id="text_1">
    <!-- VT -->
    <g transform="translate(228.390937 35.472) scale(0.12 -0.12)">
     <defs>
      <path id="DejaVuSans-56" d="M 1831 0 
L 50 4666 
L 709 4666 
L 2188 738 
L 3669 4666 
L 4325 4666 
L 2547 0 
L 1831 0 
z
" transform="scale(0.015625)"/>
      <path id="DejaVuSans-54" d="M -19 4666 
L 3928 4666 
L 3928 4134 
L 2272 4134 
L 2272 0 
L 1638 0 
L 1638 4134 
L -19 4134 
L -19 4666 
z
" transform="scale(0.015625)"/>
     </defs>
     <use xlink:href="#DejaVuSans-56"/>
     <use xlink:href="#DejaVuSans-54" x="68.408203"/>
    </g>
   </g>
  </g>
 </g>
 <defs>
  <clipPath id="pd7fab7f2be">
   <rect x="153.524293" y="41.472" width="165.271415" height="266.112"/>
  </clipPath>
 </defs>
</svg>
