<?xml version="1.0" encoding="utf-8" standalone="no"?>
<!DOCTYPE svg PUBLIC "-//W3C//DTD SVG 1.1//EN"
  "http://www.w3.org/Graphics/SVG/1.1/DTD/svg11.dtd">
<svg xmlns:xlink="http://www.w3.org/1999/xlink" width="460.8pt" height="345.6pt" viewBox="0 0 460.8 345.6" xmlns="http://www.w3.org/2000/svg" version="1.1">
 <metadata>
  <rdf:RDF xmlns:dc="http://purl.org/dc/elements/1.1/" xmlns:cc="http://creativecommons.org/ns#" xmlns:rdf="http://www.w3.org/1999/02/22-rdf-syntax-ns#">
   <cc:Work>
    <dc:type rdf:resource="http://purl.org/dc/dcmitype/StillImage"/>
    <dc:date>2023-06-19T14:47:39.431014</dc:date>
    <dc:format>image/svg+xml</dc:format>
    <dc:creator>
     <cc:Agent>
      <dc:title>Matplotlib v3.7.1, https://matplotlib.org/</dc:title>
     </cc:Agent>
    </dc:creator>
   </cc:Work>
  </rdf:RDF>
 </metadata>
 <defs>
  <style type="text/css">*{stroke-linejoin: round; stroke-linecap: butt}</style>
 </defs>
 <g id="figure_1">
  <g id="patch_1">
   <path d="M 0 345.6 
L 460.8 345.6 
L 460.8 0 
L 0 0 
z
" style="fill: #ffffff"/>
  </g>
  <g id="axes_1">
   <g id="PatchCollection_1">
    <path d="M 173.707467 128.72399 
L 173.982484 128.807112 
L 174.741087 129.686935 
L 174.609268 129.760753 
L 173.799998 129.399741 
L 173.450764 128.872055 
L 173.707467 128.72399 
" clip-path="url(#p8e096e20e7)" style="fill: #33ff57"/>
    <path d="M 166.39309 157.471623 
L 167.528254 157.815314 
L 167.528254 158.650086 
L 166.985362 159.09214 
L 166.491809 158.895658 
L 166.096934 157.717073 
L 166.39309 157.471623 
" clip-path="url(#p8e096e20e7)" style="fill: #33ff57"/>
    <path d="M 165.497394 169.270762 
L 165.839276 168.672685 
L 165.468156 166.842343 
L 165.967773 165.895618 
L 166.024878 163.749741 
L 166.667194 162.108781 
L 167.295266 161.666972 
L 167.629797 159.957089 
L 168.555312 160.422096 
L 168.221279 161.016255 
L 168.238515 161.438845 
L 169.344939 162.689351 
L 169.094549 163.1666 
L 169.073119 165.7145 
L 169.167602 166.301069 
L 169.596574 166.625172 
L 170.9369 166.799741 
L 171.826699 167.44605 
L 171.62515 167.653427 
L 170.658104 167.898571 
L 169.161248 168.86072 
L 168.721436 169.510702 
L 168.488904 170.223791 
L 168.343712 170.270922 
L 167.836704 170.145076 
L 166.942336 170.723565 
L 166.864009 171.024654 
L 166.37436 170.998517 
L 165.795544 170.836925 
L 165.410179 170.088824 
L 165.497394 169.270762 
" clip-path="url(#p8e096e20e7)" style="fill: #33ff57"/>
    <path d="M 160.19876 96.4275 
L 160.316126 96.11876 
L 160.249718 94.318411 
L 160.37348 94.010834 
L 160.656223 94.018056 
L 161.207587 95.005914 
L 161.975077 95.682522 
L 162.720141 96.142265 
L 163.09043 96.270866 
L 163.303442 96.479222 
L 163.548018 97.648443 
L 163.107873 97.445717 
L 162.832565 97.205838 
L 162.427473 97.166358 
L 161.600593 97.635099 
L 160.941083 97.832499 
L 160.746885 97.842354 
L 160.379669 97.664296 
L 160.264005 97.5076 
L 160.168442 97.101966 
L 160.19876 96.4275 
" clip-path="url(#p8e096e20e7)" style="fill: #33ff57"/>
    <path d="M 158.352796 91.891583 
L 159.344844 91.471442 
L 160.057389 92.698873 
L 159.678087 92.809233 
L 159.235908 92.688835 
L 158.84801 92.49223 
L 158.302709 92.011859 
L 158.352796 91.891583 
" clip-path="url(#p8e096e20e7)" style="fill: #33ff57"/>
    <path d="M 157.347665 85.247678 
L 157.619817 84.204181 
L 158.145141 84.514513 
L 158.442212 84.901907 
L 159.561884 86.776687 
L 159.798112 87.362277 
L 160.560536 87.710435 
L 161.668413 88.97551 
L 162.027614 90.548773 
L 161.721116 90.515414 
L 160.959315 90.130836 
L 159.371216 88.35803 
L 158.612987 86.479577 
L 158.179903 86.142558 
L 157.490075 86.153943 
L 157.359336 85.752594 
L 157.347665 85.247678 
" clip-path="url(#p8e096e20e7)" style="fill: #33ff57"/>
    <path d="M 156.615227 94.286765 
L 157.236861 93.104568 
L 157.66953 92.766877 
L 158.493502 93.512284 
L 158.615063 93.878928 
L 159.491655 95.213291 
L 158.710792 96.737954 
L 157.554655 96.99283 
L 157.341643 96.939761 
L 157.274197 96.370514 
L 157.006365 95.409773 
L 156.76885 95.201478 
L 156.634248 94.902286 
L 156.615227 94.286765 
" clip-path="url(#p8e096e20e7)" style="fill: #33ff57"/>
    <path d="M 155.367598 116.101831 
L 156.089238 114.111732 
L 156.942324 112.926474 
L 157.334043 111.405851 
L 157.978312 110.731447 
L 159.3632 108.319983 
L 159.728797 107.087227 
L 159.739968 105.453856 
L 160.564813 105.210243 
L 160.972106 105.286387 
L 161.416404 105.51629 
L 161.712062 105.108819 
L 162.021841 104.838274 
L 162.343082 104.939759 
L 162.561036 105.201796 
L 162.61839 105.717546 
L 163.046698 105.842046 
L 162.88668 107.810599 
L 163.041549 108.404391 
L 163.85709 108.715762 
L 164.446455 109.087854 
L 165.914779 110.417259 
L 166.305626 111.05249 
L 166.382002 111.644261 
L 166.336359 111.809282 
L 165.767095 112.382385 
L 165.633324 112.554383 
L 165.291941 112.741622 
L 164.427392 112.798731 
L 164.155822 112.765127 
L 163.468901 111.979076 
L 163.086236 111.790307 
L 162.44475 111.770965 
L 161.658404 112.024616 
L 161.314072 112.340946 
L 161.563631 112.710038 
L 161.437751 113.5382 
L 160.23917 113.804461 
L 160.206319 114.155864 
L 159.550961 115.30207 
L 157.36814 115.681996 
L 157.184989 116.400961 
L 157.816757 116.924423 
L 159.585224 116.321021 
L 161.127058 116.521849 
L 161.24783 116.412835 
L 162.159267 117.282314 
L 162.917953 118.648628 
L 163.015966 118.868247 
L 163.148158 119.598352 
L 163.467531 120.506148 
L 163.756959 120.932716 
L 164.161096 122.71054 
L 164.090245 123.040642 
L 163.604167 123.595995 
L 163.594283 123.777786 
L 164.312518 125.292778 
L 164.704528 126.81334 
L 165.002886 129.046134 
L 165.83205 128.656843 
L 166.177545 127.596453 
L 165.997218 126.413827 
L 166.118197 125.420767 
L 165.87628 125.066732 
L 165.522603 124.120926 
L 166.027037 124.059655 
L 166.94786 124.261401 
L 168.172938 125.83699 
L 168.720605 126.704816 
L 169.432984 127.27541 
L 170.705407 127.791894 
L 171.255525 127.946937 
L 171.717473 127.920801 
L 171.8419 129.981474 
L 172.012259 130.31788 
L 172.658065 131.166364 
L 172.797484 131.90565 
L 172.824769 132.55196 
L 172.777258 132.892345 
L 172.442062 133.86037 
L 172.065627 134.166723 
L 171.693468 134.699979 
L 171.737367 135.523305 
L 171.67424 135.787179 
L 171.541465 135.904578 
L 171.129355 135.802175 
L 170.841587 135.391766 
L 169.931023 135.40866 
L 169.442578 135.249087 
L 168.841045 134.30071 
L 168.831077 133.935658 
L 169.037444 133.298836 
L 169.03869 132.977426 
L 168.792744 132.285148 
L 167.713855 130.736919 
L 167.097329 130.597362 
L 166.526197 130.820164 
L 165.963204 131.183564 
L 165.839982 131.565265 
L 165.697157 131.682726 
L 164.633759 132.036638 
L 164.416594 131.643124 
L 164.458997 131.416527 
L 164.789957 130.887862 
L 164.852212 130.458478 
L 164.79573 130.249999 
L 164.085801 129.631907 
L 163.182006 129.39417 
L 162.120394 128.132891 
L 162.558794 127.652888 
L 162.690239 127.14081 
L 162.636207 126.582704 
L 161.842718 125.574586 
L 161.8764 125.164667 
L 162.122512 124.641389 
L 162.495874 123.25916 
L 162.337725 121.75139 
L 162.027946 120.734642 
L 161.700018 120.294241 
L 161.047859 120.03557 
L 160.098754 120.082579 
L 159.466861 120.400929 
L 159.21344 120.567724 
L 159.121283 120.535528 
L 158.82766 119.339498 
L 158.559453 118.919847 
L 157.794288 118.181418 
L 156.817399 117.790229 
L 156.41945 117.197355 
L 155.654036 116.848952 
L 155.363195 116.294824 
L 155.367598 116.101831 
" clip-path="url(#p8e096e20e7)" style="fill: #33ff57"/>
    <path d="M 146.762276 81.463534 
L 148.390992 81.655241 
L 150.91013 83.254702 
L 153.353475 84.451651 
L 152.240697 84.867752 
L 150.099074 84.36761 
L 148.985631 83.841516 
L 146.663557 82.182437 
L 146.762276 81.463534 
" clip-path="url(#p8e096e20e7)" style="fill: #33ff57"/>
    <path d="M 142.888068 87.185137 
L 144.144294 86.124685 
L 144.754507 86.083675 
L 144.994846 85.878869 
L 145.4065 85.818945 
L 145.501024 86.02877 
L 145.601737 87.529684 
L 145.212883 88.102848 
L 144.931885 88.320876 
L 144.05467 88.673013 
L 144.083409 88.491221 
L 144.331473 88.080078 
L 144.3029 87.790558 
L 143.858603 87.442155 
L 142.888068 87.185137 
" clip-path="url(#p8e096e20e7)" style="fill: #33ff57"/>
    <path d="M 142.052508 68.699614 
L 144.34306 68.688719 
L 144.921752 70.210077 
L 144.646319 70.415495 
L 144.111567 70.209709 
L 143.291333 70.327048 
L 142.331263 70.281079 
L 142.303687 69.644747 
L 142.052508 68.699614 
" clip-path="url(#p8e096e20e7)" style="fill: #33ff57"/>
    <path d="M 137.381115 93.538236 
L 137.684332 92.872463 
L 138.402816 91.95065 
L 139.515096 91.85449 
L 140.010892 91.909579 
L 140.179507 92.069641 
L 141.354125 91.930084 
L 141.72375 92.518734 
L 141.732388 92.68657 
L 141.57374 93.057315 
L 141.595419 93.437731 
L 142.714303 93.805232 
L 143.319449 94.399635 
L 143.802744 95.188562 
L 144.41466 95.544005 
L 145.188089 95.702415 
L 146.340571 95.636676 
L 146.389827 95.141554 
L 146.242849 94.854849 
L 146.019537 94.640984 
L 145.613615 94.480248 
L 145.121598 94.513546 
L 144.396718 93.808231 
L 144.778761 93.641925 
L 144.83977 93.336307 
L 144.102347 92.573027 
L 143.880531 92.600999 
L 143.792403 92.018776 
L 144.837195 91.223116 
L 145.165413 90.698797 
L 145.197101 90.396668 
L 145.40081 89.933864 
L 146.27462 89.188212 
L 146.442031 88.855233 
L 147.92622 87.587466 
L 148.250161 87.00561 
L 148.206512 86.771851 
L 149.208029 86.35673 
L 150.190359 86.263386 
L 150.965366 86.441505 
L 152.743469 87.295191 
L 154.013442 88.243385 
L 154.108049 88.430808 
L 156.484363 89.509867 
L 156.524523 89.589562 
L 155.98674 90.273698 
L 154.788823 91.136321 
L 154.44528 91.25366 
L 153.719528 92.139175 
L 153.751008 92.36718 
L 154.160254 93.017651 
L 154.170221 93.16033 
L 154.110126 93.200851 
L 153.916924 93.553294 
L 154.07362 94.19642 
L 154.676233 94.732553 
L 155.314978 95.604174 
L 155.35057 95.868598 
L 155.266055 96.233589 
L 154.841028 96.659116 
L 154.596619 97.564892 
L 154.644628 98.016678 
L 155.054953 98.335762 
L 154.986137 98.879791 
L 154.101944 99.763898 
L 153.440856 100.169471 
L 153.375237 100.411432 
L 153.299734 101.944419 
L 153.575084 102.31088 
L 153.799018 102.849399 
L 154.014937 103.520254 
L 153.972908 103.786514 
L 153.612129 104.1796 
L 153.047517 104.069118 
L 151.040247 104.432395 
L 150.640553 104.395853 
L 150.229938 104.159463 
L 150.422226 103.345868 
L 149.83257 103.2827 
L 149.38927 102.900019 
L 149.228005 103.111192 
L 148.80302 103.099868 
L 149.282452 102.285967 
L 149.131321 101.969821 
L 148.848828 101.820103 
L 148.392819 102.10491 
L 147.390762 102.414629 
L 144.18678 101.873417 
L 143.397776 101.168346 
L 143.002361 100.680202 
L 140.852058 99.879645 
L 139.937257 99.101369 
L 139.539101 98.571051 
L 139.033712 97.616859 
L 138.999532 97.244828 
L 139.091066 97.022455 
L 139.106972 96.510561 
L 138.652541 95.967757 
L 138.492481 95.62223 
L 138.509675 95.233429 
L 138.671396 95.002547 
L 138.625588 94.584426 
L 138.132201 94.101852 
L 137.600066 94.148004 
L 137.395485 93.903289 
L 137.381115 93.538236 
" clip-path="url(#p8e096e20e7)" style="fill: #33ff57"/>
    <path d="M 135.988128 87.859725 
L 136.971371 87.813022 
L 137.591801 88.122313 
L 138.085063 88.106582 
L 138.666911 88.41575 
L 139.666808 89.141999 
L 140.373996 89.828278 
L 140.745531 90.423477 
L 141.403837 91.255435 
L 140.842672 91.286101 
L 140.208122 91.024859 
L 136.84574 89.059305 
L 135.963998 88.195397 
L 135.988128 87.859725 
" clip-path="url(#p8e096e20e7)" style="fill: #33ff57"/>
    <path d="M 73.892033 119.624489 
L 75.037995 118.741544 
L 75.371986 117.873779 
L 75.588404 117.015747 
L 75.609626 116.579447 
L 75.001531 115.414695 
L 74.96461 115.34614 
L 75.224468 114.983903 
L 75.84685 114.407556 
L 76.004668 113.787996 
L 76.193965 111.964386 
L 76.486924 111.890323 
L 76.626343 111.70847 
L 76.785822 111.027455 
L 76.91573 109.766114 
L 76.453409 109.136638 
L 75.3474 108.622051 
L 74.63664 107.608363 
L 74.088225 107.315048 
L 73.928705 107.002942 
L 73.888628 106.699527 
L 74.137356 106.402356 
L 74.506649 106.171964 
L 75.438436 106.219218 
L 77.152332 106.115957 
L 77.727701 106.432226 
L 78.071618 106.983232 
L 78.374419 107.437528 
L 78.936208 107.583023 
L 79.390306 107.3511 
L 79.748427 107.161841 
L 80.490542 107.613321 
L 80.823744 107.509694 
L 81.595471 108.38664 
L 81.904378 108.613176 
L 82.459562 108.666489 
L 83.077168 109.020646 
L 87.088013 111.6128 
L 87.852762 112.354351 
L 88.464055 112.603656 
L 89.274862 112.42719 
L 90.061416 113.032367 
L 91.858291 113.611162 
L 92.006016 113.932878 
L 91.950572 114.005534 
L 91.920711 114.074088 
L 92.001697 114.159414 
L 92.984982 114.457626 
L 93.242182 114.431183 
L 93.687186 114.178389 
L 93.805217 114.054011 
L 93.862737 113.823313 
L 94.373567 113.964217 
L 95.23363 114.525935 
L 96.279419 114.953054 
L 98.414189 116.110094 
L 99.673239 116.529745 
L 100.055364 116.754628 
L 99.829353 117.783006 
L 100.51453 118.004829 
L 101.286713 118.406056 
L 102.175059 119.150116 
L 105.069844 119.944981 
L 106.136564 119.902501 
L 106.984874 120.184982 
L 107.787749 120.276062 
L 109.262967 120.198387 
L 109.819107 120.554932 
L 110.145374 120.586944 
L 111.27709 120.362673 
L 113.496874 120.513921 
L 114.399215 120.1717 
L 115.547918 120.065012 
L 115.566441 120.183881 
L 115.688458 120.285917 
L 115.979258 120.315175 
L 116.482778 120.028287 
L 116.474223 119.880038 
L 116.62743 119.821215 
L 117.885732 120.070215 
L 118.759418 120.422964 
L 119.359165 120.828966 
L 119.187186 121.085555 
L 119.697558 121.504717 
L 121.274901 121.769753 
L 121.965352 121.414311 
L 122.531127 120.805829 
L 122.924009 120.7639 
L 123.598969 121.106795 
L 124.120555 121.73364 
L 124.747049 121.962073 
L 126.153118 121.823005 
L 126.897393 121.457708 
L 127.534061 121.337309 
L 127.575634 121.382359 
L 127.457478 122.424081 
L 128.176128 122.803211 
L 129.406273 123.037153 
L 130.823514 122.937933 
L 131.995682 123.115073 
L 132.748263 123.06886 
L 133.841065 122.621358 
L 134.176925 122.849486 
L 134.644604 122.923855 
L 135.487764 122.945217 
L 135.881726 122.793908 
L 136.792872 122.243881 
L 137.858928 121.226704 
L 138.985287 119.87563 
L 139.799998 119.260538 
L 140.270875 119.178946 
L 140.313569 119.336376 
L 140.029456 119.839762 
L 139.864537 120.44249 
L 140.354892 120.681023 
L 140.629245 120.635973 
L 140.975488 120.83576 
L 142.276442 122.24792 
L 143.063203 122.656064 
L 143.717896 123.736042 
L 144.204597 125.063488 
L 145.121432 124.803838 
L 145.641523 124.489467 
L 146.667959 124.157468 
L 148.050688 123.997589 
L 148.75771 124.13886 
L 149.220903 124.427095 
L 149.097598 124.631289 
L 148.859502 125.494279 
L 148.804224 125.950289 
L 148.834773 126.032686 
L 148.850905 126.076196 
L 149.193493 126.465182 
L 150.894639 127.151522 
L 151.587582 128.724602 
L 150.970184 130.272096 
L 152.007127 130.28091 
L 152.480454 129.921672 
L 152.796338 128.841328 
L 152.977787 127.167253 
L 152.072787 126.736339 
L 151.721685 126.003908 
L 150.869139 125.373575 
L 150.713066 123.861276 
L 150.95108 123.243184 
L 152.741434 121.80299 
L 154.780476 121.278548 
L 155.761767 121.262267 
L 156.240909 122.866808 
L 155.233121 123.488817 
L 155.013464 123.533439 
L 154.413924 124.081568 
L 154.18293 124.371027 
L 154.061036 124.670341 
L 155.341849 126.759354 
L 155.344465 127.098147 
L 155.504276 127.318929 
L 156.515885 127.010802 
L 156.6107 126.717487 
L 156.641267 125.797082 
L 156.561818 125.686599 
L 156.304119 125.696576 
L 156.264416 125.616882 
L 156.891033 124.445641 
L 157.501496 124.05788 
L 158.335976 123.719087 
L 158.80216 123.807228 
L 158.619424 124.109357 
L 158.595336 124.699721 
L 159.008817 127.414844 
L 159.221082 127.805176 
L 159.562092 128.069601 
L 159.523634 128.97605 
L 158.816363 129.521547 
L 158.684793 129.514508 
L 158.389135 129.113097 
L 158.195809 129.044053 
L 157.301483 129.534401 
L 157.521264 130.780378 
L 158.218485 131.683828 
L 158.968989 131.729918 
L 159.15268 131.992874 
L 159.260038 132.555204 
L 158.908147 133.454614 
L 158.918031 133.727362 
L 159.022938 133.921886 
L 159.834617 134.271697 
L 160.028068 134.243785 
L 160.304622 134.866346 
L 160.183061 135.178207 
L 160.137585 135.841226 
L 160.494377 136.470887 
L 160.87102 136.766283 
L 161.641501 136.748104 
L 161.995843 136.92555 
L 161.102264 137.69238 
L 161.018289 138.084977 
L 160.915251 138.220555 
L 160.345323 138.362928 
L 159.666957 138.14031 
L 158.531378 138.109399 
L 158.647083 138.591974 
L 159.036311 139.1865 
L 158.947435 139.898487 
L 158.745844 140.347457 
L 157.457847 141.473831 
L 156.945065 141.675516 
L 156.27621 142.238336 
L 156.173255 143.86528 
L 155.868211 144.858217 
L 155.842753 145.574856 
L 154.879901 148.152748 
L 153.623716 149.625383 
L 152.784377 148.667457 
L 154.508739 142.724889 
L 153.595185 139.821608 
L 153.281128 140.074096 
L 153.495054 141.813114 
L 152.224832 143.650557 
L 150.777481 147.129144 
L 150.110412 149.932838 
L 146.957554 153.601602 
L 146.664941 154.105843 
L 141.390506 163.19494 
L 139.334977 169.464305 
L 139.991621 169.969221 
L 141.190659 169.043553 
L 142.81867 169.718447 
L 144.555989 169.757865 
L 146.480821 168.309285 
L 148.356355 167.777315 
L 149.491519 167.42273 
L 150.883343 166.083469 
L 151.110351 165.315598 
L 149.915964 165.433732 
L 149.274354 165.916123 
L 146.747615 166.99053 
L 145.266707 168.062979 
L 143.450437 168.683642 
L 142.256051 168.299737 
L 141.017559 168.219185 
L 140.819539 167.276378 
L 144.403488 160.819835 
L 145.131329 159.392126 
L 147.171687 155.389833 
L 149.255748 153.243956 
L 151.768034 151.476721 
L 153.932332 151.247308 
L 156.021834 150.130299 
L 156.038932 150.014215 
L 156.604387 146.175197 
L 156.901208 146.089688 
L 157.330056 145.404021 
L 157.453569 144.660389 
L 157.657527 144.219682 
L 158.664194 143.595591 
L 158.93319 142.35904 
L 159.019159 142.217769 
L 160.427346 140.733994 
L 161.462129 140.056039 
L 161.819586 139.161955 
L 162.088706 138.799473 
L 163.518738 138.7472 
L 163.542577 137.737308 
L 162.992667 136.026997 
L 162.913924 135.359815 
L 162.581968 134.913783 
L 161.731706 134.612082 
L 161.581572 134.219485 
L 161.718375 133.764455 
L 161.92877 133.655197 
L 162.264963 133.673192 
L 163.300327 134.569235 
L 164.540398 134.983439 
L 165.43244 135.79079 
L 165.99755 137.325614 
L 166.04772 138.361765 
L 166.324149 140.328666 
L 166.486036 140.656136 
L 167.303987 141.322338 
L 167.307808 141.705264 
L 167.192477 142.019084 
L 166.771686 142.452936 
L 166.767034 143.08633 
L 167.766101 144.355015 
L 167.810498 144.897085 
L 167.747744 145.343301 
L 167.519325 145.575897 
L 167.05638 145.723656 
L 166.261188 145.758239 
L 165.947422 145.704926 
L 165.775817 145.563594 
L 165.028552 145.507281 
L 164.316879 145.595178 
L 164.785887 147.722997 
L 165.293436 148.098027 
L 165.504786 148.080827 
L 165.583238 147.900933 
L 166.113421 147.859249 
L 166.387193 148.445573 
L 166.393506 149.256475 
L 166.216709 150.177369 
L 165.819341 151.372359 
L 166.490522 152.121928 
L 166.860603 152.363827 
L 166.87705 152.702376 
L 166.806073 153.067551 
L 166.563575 153.423116 
L 166.651495 154.621227 
L 166.830369 155.189189 
L 167.250994 155.32642 
L 167.446853 155.514149 
L 166.4259 156.032959 
L 165.815603 156.100167 
L 165.336017 156.445319 
L 165.138775 156.587271 
L 164.787673 157.186877 
L 164.819361 158.318393 
L 164.617853 158.904962 
L 164.642605 159.193074 
L 165.211661 159.276686 
L 165.621114 159.16553 
L 166.55585 159.699275 
L 166.790956 160.00624 
L 165.311128 162.529534 
L 165.254023 164.991005 
L 164.662887 166.546837 
L 164.454678 167.094831 
L 165.039931 168.230876 
L 164.438066 169.232016 
L 164.259317 169.967813 
L 163.615588 171.210363 
L 163.422677 171.259269 
L 163.515956 171.749005 
L 163.619783 171.920391 
L 164.496292 173.458153 
L 164.604812 173.773503 
L 163.33023 175.642836 
L 162.887967 176.724221 
L 162.820397 177.298671 
L 162.319866 177.925822 
L 161.83408 177.719791 
L 161.304104 176.816525 
L 159.5775 174.685339 
L 158.586781 174.099014 
L 158.38112 173.857666 
L 159.465989 170.197042 
L 160.979084 168.556081 
L 161.077097 168.200394 
L 160.800376 168.112987 
L 159.456437 168.782984 
L 157.203304 171.011371 
L 156.392954 173.050376 
L 156.211422 174.32047 
L 157.51952 175.934131 
L 157.241263 176.800794 
L 157.91035 177.039691 
L 158.082305 177.101087 
L 158.885803 177.015639 
L 159.108201 177.088478 
L 159.622187 177.565421 
L 159.948204 177.816502 
L 160.401971 178.039732 
L 160.689323 178.69051 
L 160.587032 179.021591 
L 160.046632 179.393805 
L 159.1977 179.542115 
L 159.112395 180.244737 
L 159.35506 180.547478 
L 159.37541 182.064062 
L 159.289815 182.549697 
L 158.926379 182.678665 
L 158.564479 183.242035 
L 158.490346 183.533208 
L 158.17114 183.657402 
L 157.773938 183.423888 
L 157.351818 182.845766 
L 156.489388 181.967596 
L 156.171196 181.638481 
L 155.622431 181.070879 
L 155.297826 181.010588 
L 152.756967 176.340133 
L 152.321308 175.479958 
L 152.361178 174.861866 
L 152.720004 174.483103 
L 153.428355 174.317471 
L 154.159631 173.530992 
L 154.258433 170.326806 
L 154.00156 169.605598 
L 153.927473 169.397587 
L 153.210941 169.016008 
L 153.071023 169.607964 
L 153.299402 171.164762 
L 153.191172 171.666739 
L 152.214532 172.974048 
L 151.472292 174.699172 
L 151.786307 176.929211 
L 152.528589 178.486071 
L 151.668951 180.99042 
L 151.629777 181.104544 
L 151.957622 181.178914 
L 153.527821 180.253245 
L 155.155084 183.703492 
L 157.381928 184.9237 
L 158.533077 184.896786 
L 159.180506 184.881649 
L 160.322439 183.132226 
L 160.554223 182.970572 
L 160.923183 182.940824 
L 160.737582 182.11156 
L 160.935019 181.203397 
L 161.132457 180.975944 
L 161.808372 180.886088 
L 162.806193 180.337408 
L 163.234459 178.359796 
L 164.005273 176.298082 
L 164.051962 176.20312 
L 165.00024 174.274436 
L 165.43273 173.394801 
L 164.595426 171.872403 
L 164.609505 171.790933 
L 164.907282 171.742823 
L 165.193845 171.85912 
L 167.755718 174.264586 
L 168.895824 174.913282 
L 169.164658 174.832275 
L 169.501967 174.730633 
L 169.98086 173.992571 
L 170.349446 173.576899 
L 170.161062 173.248511 
L 169.724988 173.028157 
L 169.388588 173.119971 
L 168.877758 172.85065 
L 168.945329 172.488781 
L 169.75406 171.706036 
L 169.97236 171.614815 
L 172.219623 170.67576 
L 173.350675 170.341068 
L 173.85324 169.906482 
L 173.838813 168.891709 
L 173.815821 167.274481 
L 173.703687 166.717476 
L 173.421277 166.240043 
L 172.889641 165.780973 
L 172.758569 165.342898 
L 172.758569 164.870423 
L 172.594771 164.18953 
L 172.308622 163.98754 
L 172.100513 163.840637 
L 171.431865 163.66313 
L 172.058982 163.130609 
L 172.337239 161.771762 
L 172.175268 161.343358 
L 171.286466 160.498669 
L 170.875269 159.702948 
L 170.983249 159.115338 
L 170.800513 157.566743 
L 170.322866 156.416007 
L 169.853568 155.981421 
L 170.655113 155.497867 
L 171.265617 154.775597 
L 171.752276 155.420682 
L 171.970479 155.548855 
L 172.465901 155.442779 
L 173.043416 155.086763 
L 173.101365 155.051039 
L 173.243567 154.567914 
L 173.241158 154.561365 
L 173.049286 154.039639 
L 173.018303 153.955392 
L 172.067994 153.03156 
L 171.311301 152.572061 
L 170.991514 152.614908 
L 170.555398 152.437401 
L 170.123269 152.079571 
L 169.492166 150.907229 
L 170.405845 149.609591 
L 170.571969 149.040344 
L 171.011905 148.294631 
L 171.543833 147.834521 
L 171.615895 147.638036 
L 171.709956 147.381572 
L 171.847008 146.604213 
L 171.452423 145.386148 
L 171.552097 144.81078 
L 170.962317 143.972212 
L 170.8801 143.622805 
L 170.854296 143.513142 
L 170.941001 142.076409 
L 170.941469 142.068663 
L 171.061908 141.799342 
L 172.673306 139.785555 
L 172.951563 139.675379 
L 173.225667 139.412179 
L 173.391541 139.070141 
L 173.50027 138.642016 
L 173.657547 138.022727 
L 173.632628 137.661592 
L 173.491506 137.359952 
L 173.699036 136.278322 
L 173.977251 135.427513 
L 174.438244 134.613429 
L 174.479775 134.368591 
L 174.42159 133.9034 
L 174.591867 133.144405 
L 175.067501 132.965534 
L 175.796304 132.691456 
L 177.00236 132.50844 
L 177.789827 131.810041 
L 177.943492 131.47339 
L 177.692437 130.78197 
L 177.782601 129.591999 
L 177.842945 129.266733 
L 178.000264 129.012224 
L 177.718602 128.201201 
L 175.67005 126.982095 
L 174.642119 125.536208 
L 173.982983 124.796065 
L 173.799831 124.344952 
L 173.08874 124.053963 
L 172.253472 122.482431 
L 172.233162 122.444219 
L 172.18183 122.328411 
L 172.235031 121.291708 
L 172.195701 120.768675 
L 171.966908 119.942043 
L 172.248238 119.352658 
L 172.307835 118.54898 
L 171.87392 118.215144 
L 171.474808 117.353072 
L 171.325256 116.697826 
L 170.92193 116.046107 
L 170.892587 115.998693 
L 169.669461 115.775034 
L 169.461558 115.569983 
L 169.329116 115.550824 
L 168.67135 115.792724 
L 168.500865 116.021585 
L 168.504686 116.145779 
L 168.67517 116.886045 
L 168.883032 116.899143 
L 168.998364 117.067224 
L 168.985074 117.215718 
L 168.450198 117.99375 
L 168.161226 118.208105 
L 168.040246 118.108334 
L 167.813945 118.154853 
L 167.469861 118.517212 
L 167.450217 119.275228 
L 167.583324 119.820664 
L 168.971286 122.021201 
L 170.247696 123.100383 
L 171.583661 124.681175 
L 172.378396 126.263864 
L 172.460211 126.594027 
L 172.263687 126.691167 
L 171.681964 126.506192 
L 171.242734 126.039716 
L 171.114113 125.77725 
L 171.005053 125.226672 
L 170.702749 124.811489 
L 169.747082 123.728941 
L 168.669065 123.049518 
L 167.928155 122.051071 
L 167.492786 122.130949 
L 167.129267 122.626622 
L 166.994291 122.647005 
L 166.078743 121.832064 
L 165.6408 120.131608 
L 165.032622 118.782983 
L 164.962185 117.195335 
L 165.148451 116.379905 
L 165.11614 115.326615 
L 165.29111 114.738515 
L 166.421165 114.296339 
L 166.59302 114.322904 
L 166.672801 114.52012 
L 166.850511 114.602508 
L 167.370603 114.623136 
L 167.637688 114.407618 
L 167.957102 113.527611 
L 168.075091 113.470258 
L 170.460874 114.615546 
L 170.49828 114.589148 
L 170.925521 114.287647 
L 171.061327 113.526142 
L 171.907103 112.411459 
L 171.694257 111.90587 
L 171.632865 111.808962 
L 171.383108 111.414726 
L 170.369423 110.050371 
L 169.730512 109.564797 
L 168.959034 109.345178 
L 167.594703 107.999919 
L 167.308389 107.888212 
L 166.674504 107.882091 
L 166.269536 107.70893 
L 165.18911 106.561684 
L 164.94005 105.718158 
L 164.606017 105.552954 
L 164.313473 105.176455 
L 164.152873 103.908321 
L 164.451148 103.130534 
L 164.198765 102.82614 
L 163.739849 102.792352 
L 163.453036 102.893776 
L 163.189191 103.756154 
L 161.89974 104.424315 
L 160.149214 104.868817 
L 159.711769 104.539083 
L 159.345467 104.032698 
L 159.147364 103.130473 
L 159.224446 102.849338 
L 159.344221 102.894143 
L 159.348498 102.976653 
L 159.632403 102.94458 
L 160.147594 102.235531 
L 160.026781 101.081552 
L 159.741464 100.763998 
L 158.72404 100.842284 
L 158.44977 101.580714 
L 158.455501 101.839445 
L 158.247183 102.018544 
L 157.841883 101.776645 
L 157.760482 101.62001 
L 157.733113 100.723477 
L 157.975987 100.128877 
L 158.203949 99.570783 
L 158.915082 98.866814 
L 159.139307 98.947978 
L 159.230675 99.150764 
L 159.46059 99.181614 
L 161.79475 98.113695 
L 162.136217 98.069318 
L 162.427348 98.143137 
L 162.488897 98.680371 
L 163.751353 98.922699 
L 164.218035 99.497944 
L 165.027015 101.460498 
L 165.214319 101.502855 
L 165.459435 101.383681 
L 165.953112 101.533644 
L 166.107109 101.761893 
L 166.548457 101.819308 
L 167.748243 101.217191 
L 167.839528 101.127642 
L 167.838033 100.956991 
L 167.668047 100.664716 
L 167.456738 100.543154 
L 167.263619 99.888582 
L 167.20153 98.836393 
L 167.248211 98.085294 
L 167.189403 97.704878 
L 166.642234 95.984896 
L 166.394502 95.460393 
L 165.524763 95.303146 
L 165.250327 95.223574 
L 165.136491 94.880679 
L 165.133666 94.775767 
L 166.064581 94.646799 
L 166.748512 94.777787 
L 167.059287 95.467126 
L 167.309095 95.773907 
L 167.474181 95.79533 
L 168.880873 95.133535 
L 169.358519 94.429995 
L 169.681962 93.333552 
L 168.708852 91.919495 
L 168.06313 91.730174 
L 167.123369 90.664826 
L 167.043797 90.525092 
L 166.828002 90.146138 
L 166.56561 89.866595 
L 166.299397 89.038494 
L 165.782171 86.381826 
L 165.934216 85.898456 
L 166.34234 85.682264 
L 166.773555 84.89854 
L 166.879136 84.460295 
L 166.977056 84.053851 
L 166.125631 83.64987 
L 166.036842 83.568938 
L 165.407106 82.99493 
L 165.091471 82.523618 
L 163.77515 82.336501 
L 162.556385 82.807385 
L 162.507005 82.929987 
L 162.143443 83.563259 
L 161.270423 84.449753 
L 160.882607 84.997699 
L 160.843735 85.194916 
L 161.333591 85.902251 
L 161.903603 86.269384 
L 162.187217 87.118113 
L 162.171767 87.271748 
L 161.795332 87.560472 
L 161.580658 87.57198 
L 161.161861 87.389943 
L 160.501479 86.693626 
L 159.373957 85.158435 
L 159.644697 84.218076 
L 159.88732 83.880384 
L 160.454964 82.653994 
L 160.525567 82.192476 
L 160.482624 81.979896 
L 160.077656 81.982466 
L 159.945588 81.887347 
L 159.092627 80.894103 
L 158.534576 80.788517 
L 158.387723 80.890431 
L 158.327254 81.030478 
L 158.2927 81.374229 
L 158.301173 81.731875 
L 158.143231 81.899711 
L 157.8646 81.906812 
L 157.80708 81.585157 
L 157.891429 79.971128 
L 157.781954 79.078757 
L 157.563169 78.173961 
L 157.330098 77.82721 
L 154.714732 75.855596 
L 154.402586 75.37443 
L 154.427131 75.263947 
L 154.794139 75.26964 
L 156.142149 74.253565 
L 156.298928 73.987733 
L 156.387928 73.642206 
L 156.337053 73.060473 
L 155.962112 72.575144 
L 155.527201 72.373459 
L 155.347123 72.338386 
L 154.636654 73.001038 
L 153.361947 72.550538 
L 153.220784 72.409328 
L 153.186188 72.192524 
L 153.403727 71.51561 
L 154.248424 70.349205 
L 155.187478 69.369122 
L 155.518438 69.330315 
L 155.93329 69.011476 
L 155.94496 68.850434 
L 155.862604 68.676293 
L 170.406343 68.686332 
L 170.48276 68.683516 
L 176.916973 68.667908 
L 183.258987 68.689208 
L 197.674562 68.979769 
L 212.447468 68.829684 
L 214.534312 68.768964 
L 218.204063 68.815177 
L 218.440332 68.810342 
L 218.535646 68.763945 
L 219.326767 68.749683 
L 223.631858 68.734136 
L 226.384275 68.782553 
L 229.748733 68.7981 
L 235.039522 68.80342 
L 240.6444 68.809056 
L 254.781012 68.777411 
L 268.930844 68.84898 
L 270.355797 68.856188 
L 275.547323 68.793142 
L 282.781129 68.804098 
L 282.814271 68.804772 
L 292.927787 68.804588 
L 294.133096 68.805078 
L 306.23536 68.802385 
L 306.450157 68.804527 
L 318.722073 68.801726 
L 345.270187 68.795667 
L 353.382373 68.793815 
L 353.421413 68.826011 
L 358.268398 68.82595 
L 358.613021 68.787143 
L 369.775566 68.768964 
L 377.141274 68.798254 
L 383.859973 68.824971 
L 383.857689 68.831704 
L 389.762217 68.888628 
L 393.654657 68.870266 
L 393.66479 76.476259 
L 393.653261 78.206078 
L 393.61379 84.127731 
L 393.599836 89.821361 
L 393.571304 91.558421 
L 393.565449 92.033038 
L 393.526991 99.430491 
L 393.532805 103.702963 
L 393.532805 103.721143 
L 393.534093 104.129531 
L 393.532639 104.154749 
L 393.537249 107.307703 
L 393.537249 107.328698 
L 393.395047 117.302084 
L 393.353641 118.743686 
L 393.352977 118.766456 
L 393.354347 118.943412 
L 393.354347 118.96 
L 393.354306 118.993053 
L 393.352852 119.125939 
L 393.361366 119.180537 
L 393.355593 119.381916 
L 393.291013 122.384601 
L 393.278802 124.796493 
L 393.267381 127.241194 
L 393.267347 127.247053 
L 393.242958 131.410068 
L 393.238974 132.090013 
L 393.238688 132.578356 
L 393.234406 139.884041 
L 393.253967 140.900728 
L 393.251267 143.579799 
L 393.233783 144.320738 
L 393.232288 144.420448 
L 393.228052 144.64527 
L 393.22664 144.667673 
L 393.251475 145.632148 
L 393.248319 145.693357 
L 393.267657 146.193972 
L 393.269126 146.231999 
L 393.267298 147.002625 
L 393.269167 148.000949 
L 393.273362 149.421373 
L 393.277557 149.616875 
L 393.277557 149.72797 
L 393.277557 149.730724 
L 393.290213 153.07035 
L 393.301686 156.097474 
L 393.28823 157.051972 
L 393.283994 157.071559 
L 393.306047 158.620216 
L 393.314353 158.947503 
L 393.31564 159.266464 
L 393.339271 161.991993 
L 393.338192 162.880385 
L 393.339147 164.620199 
L 393.339064 165.995756 
L 393.341888 166.811493 
L 393.329678 168.291841 
L 393.334108 168.834899 
L 393.343508 169.987278 
L 393.336198 175.369353 
L 393.341182 177.435596 
L 393.341639 178.796463 
L 393.342345 180.107812 
L 393.343798 181.768053 
L 393.344419 183.44917 
L 393.351232 201.902005 
L 393.344131 202.535827 
L 393.361989 209.590631 
L 393.351241 219.290887 
L 393.346498 223.571269 
L 393.34683 223.706481 
L 393.347744 224.126744 
L 393.344792 226.37924 
L 393.344753 226.408566 
L 393.47977 226.581728 
L 393.557267 226.843581 
L 393.522007 227.351986 
L 393.484214 227.48787 
L 393.408337 227.595109 
L 393.264848 228.258924 
L 393.256002 228.444695 
L 393.049801 229.214892 
L 392.943524 229.383646 
L 392.847961 229.455811 
L 392.609532 229.715645 
L 392.46297 229.938998 
L 392.390706 230.089573 
L 392.392243 230.803457 
L 392.397143 230.87091 
L 392.477173 231.085571 
L 392.673199 231.298824 
L 392.849622 231.402758 
L 393.109855 231.484962 
L 393.567484 231.556577 
L 393.724387 231.618092 
L 393.84599 231.713824 
L 394.00796 231.883679 
L 394.036824 231.958171 
L 394.055222 232.311288 
L 394.025403 232.468167 
L 394.045545 232.850848 
L 394.072374 233.016419 
L 394.14007 233.180277 
L 394.316576 233.397998 
L 394.687322 233.761214 
L 395.112017 233.892876 
L 395.422086 234.122778 
L 395.551081 234.290063 
L 395.636552 234.532268 
L 395.624923 234.713876 
L 395.376402 235.287163 
L 395.354474 235.403767 
L 395.366435 235.533836 
L 395.521885 235.746661 
L 395.992721 236.166251 
L 396.136542 236.333904 
L 396.231772 236.458648 
L 396.379456 236.72246 
L 396.477594 236.945324 
L 396.709253 237.6163 
L 396.856148 238.316535 
L 396.824293 238.616705 
L 396.683213 238.994 
L 396.404873 239.628067 
L 396.386641 239.747548 
L 396.416875 239.997527 
L 396.536277 240.226266 
L 396.974427 240.603683 
L 397.418476 241.122738 
L 398.156313 241.986646 
L 398.24303 242.17713 
L 398.268447 242.361553 
L 398.210719 242.609512 
L 397.678085 243.729398 
L 397.143873 244.743208 
L 397.063304 244.891396 
L 397.034066 245.173632 
L 397.02223 245.644454 
L 396.856189 246.190686 
L 396.678229 246.385271 
L 396.075616 246.467965 
L 395.955218 246.531439 
L 395.877722 246.588914 
L 395.756285 246.763361 
L 395.725096 246.857256 
L 395.725885 246.977104 
L 395.747356 247.250954 
L 395.872946 247.55137 
L 396.243775 247.749565 
L 396.526974 247.80245 
L 396.64218 247.775457 
L 396.7686 247.830362 
L 397.134404 248.290411 
L 397.379769 248.714775 
L 397.834532 250.021533 
L 398.195892 251.328842 
L 398.375513 252.456195 
L 398.437809 252.658186 
L 398.487273 252.729311 
L 397.461792 252.67661 
L 395.584555 252.633764 
L 392.867522 252.641415 
L 392.089109 252.600955 
L 386.168093 252.551315 
L 386.088437 252.551376 
L 385.997194 252.549172 
L 380.974574 252.530442 
L 380.299282 252.672019 
L 378.770531 252.53436 
L 376.727004 252.532217 
L 375.264909 252.577512 
L 375.256105 252.579838 
L 375.066095 252.578953 
L 375.059124 252.57892 
L 374.032065 252.55156 
L 369.948334 252.51667 
L 369.937473 252.516534 
L 365.185199 252.456746 
L 354.395007 252.404261 
L 353.595635 252.400373 
L 353.594027 252.400382 
L 348.226274 252.431283 
L 348.026012 252.431406 
L 347.402675 252.405637 
L 343.959225 252.422775 
L 343.641805 252.422959 
L 342.979553 252.420449 
L 342.820158 252.421673 
L 341.692262 252.400373 
L 340.385867 252.420816 
L 338.192705 252.410472 
L 337.753723 252.41341 
L 336.697674 252.412433 
L 333.916436 252.40986 
L 332.825379 252.410594 
L 331.160323 252.397128 
L 329.819997 252.401229 
L 329.557605 252.404596 
L 329.383341 252.398475 
L 328.266853 252.394149 
L 326.982067 252.389171 
L 326.915327 252.387702 
L 326.110251 252.390089 
L 325.31481 252.391314 
L 314.37674 252.41341 
L 312.471013 252.45742 
L 312.468227 252.461364 
L 311.581048 253.717414 
L 310.81281 254.337831 
L 309.383898 254.987079 
L 308.064919 255.953084 
L 306.698595 256.5582 
L 304.897152 256.879916 
L 303.815937 256.863573 
L 302.561081 256.566402 
L 301.256804 256.125633 
L 298.542388 256.538368 
L 296.802784 257.247049 
L 293.988903 257.452379 
L 293.236943 257.50725 
L 291.676503 258.18343 
L 290.148042 258.042771 
L 288.198085 257.011332 
L 286.995143 257.370937 
L 286.046411 258.224318 
L 284.11589 261.209619 
L 279.836133 261.900611 
L 278.601503 261.78113 
L 275.882062 262.4892 
L 275.87637 262.490503 
L 275.549441 262.565344 
L 274.248818 262.968285 
L 271.828274 263.199044 
L 270.426309 263.926412 
L 270.357915 263.961896 
L 267.492202 265.599246 
L 264.53512 266.333758 
L 263.32653 267.019363 
L 261.652794 269.222899 
L 258.687406 269.510644 
L 258.417456 269.577974 
L 256.739567 270.134979 
L 253.62878 270.857311 
L 250.372676 271.151115 
L 249.396659 270.808404 
L 248.72797 270.208553 
L 247.170521 268.464087 
L 245.85395 267.962232 
L 244.034815 268.005078 
L 243.263738 268.531376 
L 242.626877 268.966065 
L 241.775452 269.841358 
L 240.330136 270.416787 
L 237.643047 271.653215 
L 234.868701 272.553054 
L 234.271986 273.183693 
L 233.211578 274.30364 
L 232.468133 274.481147 
L 232.371816 274.404255 
L 232.368459 274.401575 
L 231.2014 273.477315 
L 230.823469 273.458952 
L 229.789309 273.911901 
L 229.560889 273.973171 
L 228.565352 273.674898 
L 227.480026 273.810722 
L 226.201373 273.715786 
L 225.347374 274.000777 
L 223.888353 275.516258 
L 224.013444 275.823346 
L 223.799643 275.948825 
L 223.570207 276.167427 
L 223.394592 276.33475 
L 223.081865 276.200089 
L 222.830561 276.449578 
L 221.903675 276.559021 
L 221.239638 276.538026 
L 220.711573 275.910753 
L 220.766518 275.125804 
L 220.553299 273.882275 
L 219.913225 272.571845 
L 218.442866 272.134076 
L 216.94194 271.605901 
L 215.908859 270.815933 
L 214.846832 270.508417 
L 213.401391 270.62092 
L 212.190143 271.246724 
L 211.282569 271.17921 
L 210.550272 270.976397 
L 209.652191 270.727669 
L 208.144454 269.535373 
L 207.179318 269.30088 
L 207.125583 269.287101 
L 206.734356 269.186786 
L 202.661797 270.52629 
L 201.117056 270.500277 
L 199.497518 271.12908 
L 198.345202 271.176211 
L 195.18055 270.397506 
L 192.86051 271.222853 
L 191.419887 272.603796 
L 191.461294 273.136746 
L 191.153591 273.602549 
L 190.582049 273.923108 
L 190.037158 274.22872 
L 189.344049 274.180855 
L 189.182245 274.266058 
L 188.857764 274.925588 
L 188.182888 275.411897 
L 188.048286 275.535968 
L 187.19059 275.95721 
L 186.406446 276.004892 
L 185.500948 276.349807 
L 183.121187 277.94125 
L 182.677596 278.070218 
L 182.102767 277.996277 
L 182.102767 277.99897 
L 181.966006 277.974853 
L 181.963597 277.9762 
L 181.498368 277.88053 
L 179.714825 278.297488 
L 178.967062 279.12718 
L 177.006308 280.129048 
L 177.002942 280.130768 
L 176.436793 280.340349 
L 176.267513 280.36973 
L 175.096342 280.388092 
L 173.576271 280.100409 
L 172.691663 278.802771 
L 171.549564 278.40491 
L 171.071959 278.490603 
L 170.680698 278.701326 
L 170.286859 278.913437 
L 169.125324 279.161213 
L 168.493348 278.933024 
L 167.630835 278.260211 
L 167.437467 278.171091 
L 166.899892 277.955634 
L 166.356082 277.793572 
L 165.595448 277.566893 
L 164.578731 277.130104 
L 164.503715 277.106261 
L 163.197539 276.69111 
L 163.006515 276.641988 
L 162.317084 276.464697 
L 160.601817 276.336157 
L 159.310165 275.82812 
L 158.645671 275.418017 
L 157.719491 274.64072 
L 156.689526 274.230618 
L 155.680113 273.478114 
L 155.622141 273.434896 
L 155.177719 272.00878 
L 155.26078 270.833561 
L 155.68944 269.062179 
L 155.775888 268.704946 
L 155.739916 267.727925 
L 155.720112 267.190015 
L 155.384501 265.878911 
L 154.301666 264.078316 
L 154.286798 263.158707 
L 154.713196 261.983978 
L 154.720713 261.597135 
L 154.741021 260.546599 
L 154.198421 259.528443 
L 153.641118 257.790588 
L 153.861937 256.585315 
L 153.537789 254.836687 
L 152.555999 253.622539 
L 151.786847 251.562906 
L 150.875909 250.533855 
L 150.652854 249.041021 
L 150.610693 248.758846 
L 149.794985 247.323242 
L 147.362854 246.032766 
L 145.637163 244.257328 
L 145.421077 244.121444 
L 144.893178 243.933715 
L 144.408389 243.613835 
L 144.097862 243.490498 
L 143.69223 243.046853 
L 141.451349 241.573116 
L 140.999368 241.108415 
L 138.901643 240.881634 
L 136.964643 241.887426 
L 136.21119 242.278615 
L 135.379036 242.872223 
L 134.177423 243.582802 
L 133.310757 243.595717 
L 132.010799 243.503903 
L 130.706391 243.492102 
L 130.387025 243.489213 
L 127.919509 241.319036 
L 128.053156 238.410308 
L 127.224075 237.156496 
L 126.345655 236.25678 
L 126.092275 236.054789 
L 125.892927 235.975217 
L 124.995819 235.860572 
L 124.375223 236.157498 
L 123.951483 236.325763 
L 123.46553 236.496782 
L 123.068204 236.588657 
L 123.06916 236.191653 
L 122.55887 236.222074 
L 122.372728 236.401173 
L 121.656861 236.503392 
L 120.331943 236.534854 
L 118.007999 236.115937 
L 117.608306 235.76888 
L 117.568644 235.43584 
L 117.652163 234.91397 
L 117.623465 234.653708 
L 117.548128 234.329053 
L 117.249562 234.132571 
L 116.70962 233.762683 
L 115.73327 234.014682 
L 115.74303 234.388243 
L 115.582822 234.717106 
L 115.554189 234.775881 
L 115.018731 234.681068 
L 114.26777 235.611511 
L 113.971987 235.707855 
L 113.624291 235.640524 
L 113.308656 235.296038 
L 112.772825 235.03443 
L 112.333303 235.090314 
L 109.451642 237.771343 
L 108.048688 237.422205 
L 107.621958 237.071721 
L 106.177846 235.493499 
L 105.55181 234.612269 
L 105.490136 234.461204 
L 105.513269 234.12541 
L 105.34075 233.898262 
L 104.896577 233.532475 
L 104.229591 233.274111 
L 103.428585 233.122495 
L 103.039316 233.576974 
L 102.803629 234.278984 
L 102.670813 235.084988 
L 102.45398 235.559361 
L 101.750322 235.385771 
L 100.931749 236.091025 
L 100.868788 235.973503 
L 100.887809 235.633485 
L 101.114858 234.300101 
L 101.317446 233.74885 
L 101.598195 232.439277 
L 101.858718 228.790956 
L 101.897176 227.394649 
L 101.913829 222.251657 
L 101.709124 218.406059 
L 101.440544 215.637439 
L 101.392243 213.846821 
L 101.430784 213.588028 
L 101.677477 213.116533 
L 101.936588 212.929048 
L 102.270164 212.917908 
L 102.792208 213.836354 
L 102.093077 214.32762 
L 102.170573 214.65662 
L 103.086038 216.271384 
L 103.30337 216.7905 
L 103.320729 217.919567 
L 103.201494 219.910339 
L 102.964021 222.065765 
L 103.200954 224.109973 
L 103.648408 229.269735 
L 103.984019 229.71136 
L 104.911902 229.269735 
L 105.78052 229.390134 
L 106.205007 229.259697 
L 106.362949 227.333194 
L 105.861422 227.420173 
L 105.652231 227.002174 
L 105.721297 225.929175 
L 105.253493 225.439806 
L 104.763803 225.207333 
L 104.671853 224.107463 
L 104.661263 223.941035 
L 104.523754 223.74945 
L 104.586092 222.540627 
L 104.764426 222.027019 
L 104.959538 221.933124 
L 105.152033 222.004372 
L 105.145389 222.459096 
L 105.493542 223.351467 
L 105.609247 223.466112 
L 106.668949 223.974577 
L 106.797238 223.854301 
L 106.621645 223.239637 
L 107.555052 221.370672 
L 108.572101 220.456571 
L 108.549716 220.100639 
L 108.67381 219.577422 
L 108.29725 218.666505 
L 107.733219 218.010157 
L 107.594298 217.721861 
L 107.507706 217.127274 
L 107.236551 216.403902 
L 106.809697 215.947831 
L 106.127884 215.504431 
L 105.977584 214.891664 
L 105.916658 213.497132 
L 106.748356 213.221813 
L 107.525108 212.646445 
L 107.566514 212.443597 
L 107.468792 211.27254 
L 107.787458 210.908896 
L 108.617868 210.601441 
L 109.892825 209.682506 
L 110.455402 209.44532 
L 111.217452 209.451012 
L 111.373899 209.05205 
L 111.198223 208.480538 
L 110.56467 208.384072 
L 110.007159 207.903518 
L 109.648623 207.868139 
L 109.403674 207.725521 
L 108.723647 206.529062 
L 108.491614 206.529001 
L 107.990129 206.742622 
L 107.755272 207.072724 
L 107.777325 207.317561 
L 107.901502 207.726133 
L 107.734382 207.965339 
L 107.227747 208.054766 
L 106.413326 208.049196 
L 105.587651 207.391991 
L 105.320607 207.558175 
L 105.127032 208.092716 
L 105.313838 208.74686 
L 105.65734 209.284706 
L 105.375885 209.396781 
L 104.80035 209.142517 
L 104.521221 209.116687 
L 104.138472 209.458969 
L 103.351255 209.052784 
L 102.517938 208.375381 
L 102.533179 208.207483 
L 102.355095 208.029793 
L 101.660782 207.541465 
L 100.918791 207.459505 
L 100.453936 207.054238 
L 100.273734 206.774022 
L 100.33495 206.124591 
L 100.267919 204.43754 
L 100.197814 203.844238 
L 100.077832 202.828836 
L 99.793512 201.253798 
L 99.174661 198.596028 
L 98.541481 197.021418 
L 99.393404 196.602379 
L 99.687068 196.593809 
L 100.403435 197.288658 
L 100.526781 197.635592 
L 100.57396 199.336232 
L 101.245639 199.717138 
L 101.526554 199.594046 
L 101.746585 199.494703 
L 101.994358 199.170171 
L 102.235486 197.895548 
L 102.357379 197.72912 
L 102.777007 197.453617 
L 103.714774 197.13796 
L 103.886754 196.728164 
L 104.901644 196.018686 
L 105.138536 195.95001 
L 106.047439 196.058779 
L 107.801579 195.342446 
L 109.146016 194.915082 
L 110.088933 194.38807 
L 109.927004 194.201136 
L 109.426267 193.623076 
L 108.875318 193.142583 
L 108.508061 192.957547 
L 107.537401 192.961403 
L 106.806582 193.091473 
L 106.441858 192.964219 
L 105.977169 192.355737 
L 104.630447 192.450244 
L 103.774662 192.146584 
L 103.462807 191.778533 
L 103.863953 191.368859 
L 104.064132 190.999583 
L 103.574608 190.522028 
L 103.576103 190.330381 
L 103.187955 189.391491 
L 101.547029 188.721066 
L 99.864115 188.629252 
L 99.212952 188.689849 
L 98.404761 189.088199 
L 98.0922 189.446151 
L 97.998963 189.946966 
L 98.478852 191.951082 
L 98.549372 193.016797 
L 99.116227 194.674897 
L 98.415144 194.895495 
L 97.694292 195.558209 
L 96.801918 195.746856 
L 97.034824 194.812434 
L 97.17362 193.782893 
L 97.258675 191.575379 
L 97.076438 187.176754 
L 96.941711 185.546811 
L 96.647341 183.599865 
L 96.690159 183.034658 
L 96.5654 182.913708 
L 96.402641 182.252036 
L 96.146478 180.588795 
L 95.601427 177.886342 
L 94.466305 173.654574 
L 94.221896 173.176284 
L 93.750271 172.72462 
L 93.589879 172.627971 
L 93.019203 172.568842 
L 92.388931 171.33627 
L 92.101578 170.470342 
L 91.82519 169.916336 
L 91.510968 169.67713 
L 91.017996 169.47569 
L 90.822303 168.738546 
L 90.716025 167.443541 
L 90.297643 165.776382 
L 89.947496 161.30602 
L 89.595218 158.581769 
L 89.498963 157.83741 
L 89.371339 157.720011 
L 89.072607 155.588518 
L 88.843149 154.539635 
L 88.711039 154.275456 
L 88.408362 152.536438 
L 87.836565 150.502329 
L 87.166963 148.931392 
L 86.830023 146.84446 
L 86.623365 146.040169 
L 86.401133 145.561818 
L 85.4301 144.393638 
L 84.692512 144.297356 
L 84.489716 144.128174 
L 84.257808 142.427595 
L 83.942879 141.231932 
L 83.60025 140.888119 
L 83.239222 140.808241 
L 82.985883 140.893444 
L 81.858445 140.009031 
L 81.097308 138.845319 
L 81.064914 138.410366 
L 80.926658 138.218719 
L 79.854787 137.504896 
L 78.967439 137.375255 
L 78.916559 137.337855 
L 78.304025 136.8876 
L 78.11128 136.611913 
L 78.129844 136.33641 
L 77.476314 133.987808 
L 77.205367 133.507988 
L 76.774775 133.001542 
L 76.355603 132.208086 
L 76.421928 131.109256 
L 76.081624 129.069088 
L 75.951508 127.82715 
L 75.817114 127.016066 
L 75.693934 126.667846 
L 75.473114 126.437087 
L 75.354086 125.789676 
L 75.413392 124.698803 
L 75.683842 124.370109 
L 75.746179 123.991162 
L 75.414472 122.998285 
L 74.308214 120.65354 
L 73.893819 120.211792 
L 73.832727 120.028715 
L 73.892033 119.624489 
" clip-path="url(#p8e096e20e7)" style="fill: #33ff57"/>
   </g>
   <g id="text_1">
    <!-- WA -->
    <g transform="translate(226.453125 52.081898) scale(0.12 -0.12)">
     <defs>
      <path id="DejaVuSans-57" d="M 213 4666 
L 850 4666 
L 1831 722 
L 2809 4666 
L 3519 4666 
L 4500 722 
L 5478 4666 
L 6119 4666 
L 4947 0 
L 4153 0 
L 3169 4050 
L 2175 0 
L 1381 0 
L 213 4666 
z
" transform="scale(0.015625)"/>
      <path id="DejaVuSans-41" d="M 2188 4044 
L 1331 1722 
L 3047 1722 
L 2188 4044 
z
M 1831 4666 
L 2547 4666 
L 4325 0 
L 3669 0 
L 3244 1197 
L 1141 1197 
L 716 0 
L 50 0 
L 1831 4666 
z
" transform="scale(0.015625)"/>
     </defs>
     <use xlink:href="#DejaVuSans-57"/>
     <use xlink:href="#DejaVuSans-41" x="93.376953"/>
    </g>
   </g>
  </g>
 </g>
 <defs>
  <clipPath id="p8e096e20e7">
   <rect x="57.6" y="58.081898" width="357.12" height="232.892203"/>
  </clipPath>
 </defs>
</svg>
