<?xml version="1.0" encoding="utf-8" standalone="no"?>
<!DOCTYPE svg PUBLIC "-//W3C//DTD SVG 1.1//EN"
  "http://www.w3.org/Graphics/SVG/1.1/DTD/svg11.dtd">
<svg xmlns:xlink="http://www.w3.org/1999/xlink" width="360pt" height="360pt" viewBox="0 0 360 360" xmlns="http://www.w3.org/2000/svg" version="1.1">
 <metadata>
  <rdf:RDF xmlns:dc="http://purl.org/dc/elements/1.1/" xmlns:cc="http://creativecommons.org/ns#" xmlns:rdf="http://www.w3.org/1999/02/22-rdf-syntax-ns#">
   <cc:Work>
    <dc:type rdf:resource="http://purl.org/dc/dcmitype/StillImage"/>
    <dc:date>2023-06-19T15:20:25.506390</dc:date>
    <dc:format>image/svg+xml</dc:format>
    <dc:creator>
     <cc:Agent>
      <dc:title>Matplotlib v3.7.1, https://matplotlib.org/</dc:title>
     </cc:Agent>
    </dc:creator>
   </cc:Work>
  </rdf:RDF>
 </metadata>
 <defs>
  <style type="text/css">*{stroke-linejoin: round; stroke-linecap: butt}</style>
 </defs>
 <g id="figure_1">
  <g id="patch_1">
   <path d="M 0 360 
L 360 360 
L 360 0 
L 0 0 
z
" style="fill: #ffffff"/>
  </g>
  <g id="axes_1">
   <g id="PatchCollection_1">
    <path d="M 135.708958 157.520092 
L 135.923816 157.564154 
L 136.516474 158.030533 
L 136.413491 158.069663 
L 135.781248 157.878296 
L 135.50841 157.598579 
L 135.708958 157.520092 
" clip-path="url(#p839ec11caa)" style="fill: #2b0031"/>
    <path d="M 129.994602 172.758712 
L 130.881448 172.940896 
L 130.881448 173.383395 
L 130.457314 173.61772 
L 130.071726 173.513568 
L 129.763229 172.88882 
L 129.994602 172.758712 
" clip-path="url(#p839ec11caa)" style="fill: #2b0031"/>
    <path d="M 129.294839 179.01323 
L 129.561934 178.6962 
L 129.271997 177.725967 
L 129.662322 177.224125 
L 129.706936 176.086633 
L 130.208745 175.216788 
L 130.699426 174.982593 
L 130.960779 174.076214 
L 131.683838 174.322706 
L 131.422875 174.63766 
L 131.43634 174.861667 
L 132.300733 175.524539 
L 132.105117 175.77752 
L 132.088374 177.128117 
L 132.162189 177.439047 
L 132.497324 177.610849 
L 133.544453 177.703385 
L 134.239609 178.045982 
L 134.082149 178.155909 
L 133.326643 178.285855 
L 132.157225 178.795874 
L 131.813622 179.140418 
L 131.631957 179.518414 
L 131.518525 179.543397 
L 131.122425 179.476688 
L 130.4237 179.783335 
L 130.362507 179.942937 
L 129.979969 179.929083 
L 129.527769 179.843425 
L 129.226702 179.44687 
L 129.294839 179.01323 
" clip-path="url(#p839ec11caa)" style="fill: #2b0031"/>
    <path d="M 125.155281 140.400286 
L 125.246974 140.236629 
L 125.195093 139.282295 
L 125.291782 139.119253 
L 125.512674 139.123082 
L 125.943427 139.646728 
L 126.543029 140.005386 
L 127.12511 140.249088 
L 127.414399 140.317257 
L 127.580814 140.427703 
L 127.771889 141.047487 
L 127.428026 140.940026 
L 127.212942 140.81287 
L 126.896463 140.791942 
L 126.250463 141.040413 
L 125.735221 141.145052 
L 125.583504 141.150276 
L 125.296616 141.05589 
L 125.206254 140.972828 
L 125.131596 140.757809 
L 125.155281 140.400286 
" clip-path="url(#p839ec11caa)" style="fill: #2b0031"/>
    <path d="M 123.713122 137.995876 
L 124.488159 137.773166 
L 125.044835 138.423806 
L 124.748506 138.482306 
L 124.403053 138.418485 
L 124.100008 138.314268 
L 123.673992 138.059632 
L 123.713122 137.995876 
" clip-path="url(#p839ec11caa)" style="fill: #2b0031"/>
    <path d="M 122.927864 134.474057 
L 123.140482 133.920918 
L 123.550892 134.085419 
L 123.782978 134.29077 
L 124.657722 135.284558 
L 124.842275 135.594969 
L 125.437918 135.779522 
L 126.303448 136.450116 
L 126.584073 137.284075 
L 126.344622 137.266392 
L 125.749465 137.062534 
L 124.508762 136.122801 
L 123.916396 135.127066 
L 123.578049 134.948418 
L 123.039121 134.954453 
L 122.936981 134.741704 
L 122.927864 134.474057 
" clip-path="url(#p839ec11caa)" style="fill: #2b0031"/>
    <path d="M 122.355646 139.26552 
L 122.841298 138.638858 
L 123.17932 138.459853 
L 123.823049 138.854981 
L 123.918018 139.049332 
L 124.602856 139.756655 
L 123.992806 140.564852 
L 123.089574 140.699958 
L 122.923159 140.671827 
L 122.870467 140.370079 
L 122.661222 139.860807 
L 122.475664 139.750393 
L 122.370506 139.591797 
L 122.355646 139.26552 
" clip-path="url(#p839ec11caa)" style="fill: #2b0031"/>
    <path d="M 121.380936 150.829306 
L 121.944717 149.774389 
L 122.611191 149.146105 
L 122.917221 148.340049 
L 123.420556 147.982559 
L 124.5025 146.704284 
L 124.788122 146.050822 
L 124.79685 145.185 
L 125.44126 145.055865 
L 125.759458 145.096228 
L 126.106565 145.218095 
L 126.337549 145.002102 
L 126.579563 144.858691 
L 126.830533 144.912486 
L 127.00081 145.051388 
L 127.045618 145.324778 
L 127.380233 145.390773 
L 127.255219 146.434268 
L 127.37621 146.749027 
L 128.013352 146.91408 
L 128.473793 147.111319 
L 129.620921 147.816014 
L 129.926271 148.152738 
L 129.985939 148.466426 
L 129.950281 148.553901 
L 129.505543 148.857692 
L 129.401035 148.948866 
L 129.134329 149.048118 
L 128.4589 149.07839 
L 128.246736 149.060577 
L 127.710079 148.643906 
L 127.411122 148.543842 
L 126.909961 148.533589 
L 126.295628 148.668046 
L 126.026619 148.835727 
L 126.221587 149.031376 
L 126.123243 149.47037 
L 125.186851 149.61151 
L 125.161186 149.797783 
L 124.649189 150.405367 
L 122.943859 150.606759 
L 122.800773 150.98787 
L 123.294341 151.265348 
L 124.675957 150.945495 
L 125.880514 151.05195 
L 125.974867 150.994164 
L 126.686927 151.455059 
L 127.279651 152.179319 
L 127.356223 152.295735 
L 127.459499 152.682751 
L 127.709008 153.163958 
L 127.935125 153.390074 
L 128.250857 154.332468 
L 128.195504 154.507449 
L 127.815756 154.801832 
L 127.808034 154.898196 
L 128.369155 155.701267 
L 128.675412 156.507291 
L 128.908504 157.690856 
L 129.556289 157.484499 
L 129.826207 156.922405 
L 129.685327 156.295516 
L 129.779842 155.769112 
L 129.590844 155.581444 
L 129.314534 155.080089 
L 129.708623 155.04761 
L 130.428015 155.154552 
L 131.385107 155.989744 
L 131.812973 156.449764 
L 132.369519 156.752225 
L 133.363599 157.026005 
L 133.793379 157.10819 
L 134.154276 157.094336 
L 134.251484 158.186663 
L 134.384578 158.364986 
L 134.889113 158.814753 
L 134.998034 159.206635 
L 135.019351 159.549233 
L 134.982233 159.729665 
L 134.720361 160.242798 
L 134.426271 160.40519 
L 134.135522 160.68786 
L 134.169818 161.124291 
L 134.1205 161.264166 
L 134.01677 161.326397 
L 133.694808 161.272115 
L 133.46999 161.054565 
L 132.758611 161.06352 
L 132.377014 160.978933 
L 131.907066 160.476215 
L 131.899279 160.282707 
L 132.060503 159.945139 
L 132.061477 159.774765 
L 131.869332 159.407801 
L 131.026449 158.587111 
L 130.544789 158.513135 
L 130.098591 158.631238 
L 129.658753 158.82387 
L 129.562486 159.026203 
L 129.450904 159.088467 
L 128.620124 159.27607 
L 128.450464 159.067474 
L 128.483592 158.947359 
L 128.742154 158.667123 
L 128.79079 158.439515 
L 128.746664 158.329004 
L 128.192032 158.001364 
L 127.485942 157.875344 
L 126.656558 157.206761 
L 126.999058 156.95232 
L 127.101749 156.680877 
L 127.059537 156.385034 
L 126.439624 155.850648 
L 126.465937 155.633358 
L 126.658212 155.355977 
L 126.949902 154.623281 
L 126.826347 153.824039 
L 126.584333 153.285079 
L 126.328139 153.05163 
L 125.81864 152.914513 
L 125.077151 152.939431 
L 124.583485 153.108183 
L 124.3855 153.196598 
L 124.313502 153.179532 
L 124.084109 152.545537 
L 123.874573 152.323087 
L 123.276788 151.931659 
L 122.513593 151.724296 
L 122.202696 151.410024 
L 121.604716 151.225342 
L 121.377496 150.931608 
L 121.380936 150.829306 
" clip-path="url(#p839ec11caa)" style="fill: #2b0031"/>
    <path d="M 114.658028 132.468149 
L 115.930462 132.569769 
L 117.898539 133.417616 
L 119.807402 134.052097 
L 118.938044 134.272665 
L 117.264901 134.007549 
L 116.395024 133.728675 
L 114.580904 132.849227 
L 114.658028 132.468149 
" clip-path="url(#p839ec11caa)" style="fill: #2b0031"/>
    <path d="M 111.631303 135.501071 
L 112.612729 134.938944 
L 113.089458 134.917205 
L 113.277223 134.808641 
L 113.598828 134.776876 
L 113.672675 134.888101 
L 113.751357 135.683709 
L 113.447565 135.987533 
L 113.228035 136.103106 
L 112.542711 136.289768 
L 112.565164 136.193403 
L 112.758964 135.975463 
L 112.736641 135.821994 
L 112.389533 135.637311 
L 111.631303 135.501071 
" clip-path="url(#p839ec11caa)" style="fill: #2b0031"/>
    <path d="M 110.978522 125.702217 
L 112.768016 125.696442 
L 113.220119 126.502887 
L 113.004937 126.611776 
L 112.587162 126.502692 
L 111.946354 126.564891 
L 111.196299 126.540524 
L 111.174755 126.203216 
L 110.978522 125.702217 
" clip-path="url(#p839ec11caa)" style="fill: #2b0031"/>
    <path d="M 107.328996 138.868738 
L 107.565884 138.515823 
L 108.1272 138.027186 
L 108.996169 137.976213 
L 109.383509 138.005415 
L 109.51524 138.090261 
L 110.43291 138.016284 
L 110.721679 138.328317 
L 110.728428 138.417284 
L 110.604484 138.61381 
L 110.621421 138.815462 
L 111.495549 139.010267 
L 111.968319 139.32535 
L 112.345894 139.743547 
L 112.823953 139.931961 
L 113.428195 140.015931 
L 114.328571 139.981084 
L 114.367052 139.718628 
L 114.252226 139.566651 
L 114.077764 139.453285 
L 113.760636 139.368082 
L 113.376249 139.385732 
L 112.809936 139.011857 
L 113.108407 138.923701 
L 113.15607 138.761699 
L 112.579959 138.357097 
L 112.406665 138.371925 
L 112.337814 138.063299 
L 113.154058 137.641533 
L 113.410479 137.363601 
L 113.435235 137.203447 
L 113.594383 136.958123 
L 114.277047 136.562866 
L 114.407837 136.38636 
L 115.567359 135.714338 
L 115.820438 135.405906 
L 115.786337 135.281995 
L 116.568773 135.061946 
L 117.336218 135.012466 
L 117.941692 135.106884 
L 119.330835 135.559408 
L 120.323002 136.062029 
L 120.396914 136.161379 
L 122.253409 136.73337 
L 122.284784 136.775614 
L 121.864641 137.138263 
L 120.928768 137.595525 
L 120.660375 137.657724 
L 120.093381 138.12712 
L 120.117975 138.247981 
L 120.437698 138.592785 
L 120.445485 138.668416 
L 120.398536 138.689896 
L 120.247597 138.87672 
L 120.370016 139.21763 
L 120.840807 139.501824 
L 121.339827 139.963855 
L 121.367633 140.104022 
L 121.301605 140.297497 
L 120.969553 140.523062 
L 120.778608 141.003198 
L 120.816116 141.242682 
L 121.136682 141.411823 
L 121.082919 141.700203 
L 120.392144 142.168853 
L 119.875669 142.38384 
L 119.824404 142.512099 
L 119.765417 143.324709 
L 119.980534 143.518963 
L 120.155483 143.804423 
L 120.32417 144.160031 
L 120.291334 144.301171 
L 120.009476 144.509539 
L 119.568373 144.450974 
L 118.000193 144.643541 
L 117.687932 144.624171 
L 117.367139 144.498865 
L 117.517364 144.067593 
L 117.056695 144.034108 
L 116.710367 143.831256 
L 116.584379 143.943195 
L 116.252359 143.937192 
L 116.626916 143.505758 
L 116.508845 143.338174 
L 116.288147 143.258811 
L 115.93189 143.409782 
L 115.149033 143.573959 
L 112.645922 143.287072 
L 112.029513 142.913326 
L 111.720594 142.654569 
L 110.04067 142.230208 
L 109.325982 141.817657 
L 109.014923 141.536545 
L 108.620087 141.030745 
L 108.593384 140.833538 
L 108.664895 140.715661 
L 108.677322 140.444316 
L 108.322298 140.156584 
L 108.197251 139.973427 
L 108.210684 139.76733 
L 108.337028 139.644944 
L 108.30124 139.423305 
L 107.915782 139.167501 
L 107.500051 139.191965 
L 107.340222 139.062246 
L 107.328996 138.868738 
" clip-path="url(#p839ec11caa)" style="fill: #2b0031"/>
    <path d="M 106.240725 135.858658 
L 107.008884 135.833902 
L 107.493595 135.997851 
L 107.878956 135.989513 
L 108.333524 136.153397 
L 109.114694 136.538369 
L 109.667184 136.902154 
L 109.957446 137.217658 
L 110.471748 137.658664 
L 110.033338 137.67492 
L 109.537595 137.53644 
L 106.910735 136.494535 
L 106.221874 136.036592 
L 106.240725 135.858658 
" clip-path="url(#p839ec11caa)" style="fill: #2b0031"/>
    <path d="M 57.728151 152.696606 
L 58.623433 152.228572 
L 58.884364 151.768585 
L 59.05344 151.313757 
L 59.07002 151.082482 
L 58.594946 150.465067 
L 58.566101 150.428728 
L 58.769116 150.236712 
L 59.255352 149.931201 
L 59.378647 149.602782 
L 59.526535 148.636119 
L 59.755409 148.596859 
L 59.864331 148.500462 
L 59.988923 148.139468 
L 60.090414 147.470853 
L 59.729226 147.137179 
L 58.865156 146.864405 
L 58.309875 146.327067 
L 57.881426 146.171586 
L 57.756801 146.006144 
L 57.72549 145.845309 
L 57.91981 145.687783 
L 58.208319 145.565657 
L 58.936278 145.590705 
L 60.275259 145.535969 
L 60.724766 145.703617 
L 60.993451 145.995696 
L 61.230015 146.23651 
L 61.668912 146.313634 
L 62.023677 146.190696 
L 62.303458 146.090373 
L 62.883236 146.329695 
L 63.14355 146.274764 
L 63.746462 146.739618 
L 63.987795 146.8597 
L 64.421533 146.887961 
L 64.904038 147.075693 
L 68.03751 148.449749 
L 68.63497 148.842832 
L 69.112543 148.974985 
L 69.745986 148.881443 
L 70.360481 149.202237 
L 71.76429 149.509046 
L 71.8797 149.679582 
L 71.836385 149.718095 
L 71.813056 149.754435 
L 71.876326 149.799665 
L 72.644517 149.957742 
L 72.845455 149.943725 
L 73.193114 149.809723 
L 73.285325 149.743793 
L 73.330263 149.621504 
L 73.729349 149.696194 
L 74.401273 149.993951 
L 75.218296 150.220359 
L 76.886085 150.833686 
L 77.869718 151.056136 
L 78.168253 151.175343 
L 77.991682 151.720468 
L 78.526976 151.838052 
L 79.130245 152.050736 
L 79.824265 152.445149 
L 82.085816 152.866493 
L 82.919191 152.843975 
L 83.581933 152.993714 
L 84.209179 153.041993 
L 85.361693 153.000819 
L 85.796178 153.189817 
L 86.051073 153.206786 
L 86.935227 153.087904 
L 88.669433 153.168078 
L 89.374387 152.986673 
L 90.271811 152.930119 
L 90.286282 152.99313 
L 90.381608 153.047217 
L 90.608795 153.062726 
L 91.00217 152.910652 
L 90.995486 152.832068 
L 91.11518 152.800887 
L 92.098228 152.932877 
L 92.780795 153.119864 
L 93.249348 153.335078 
L 93.114989 153.471091 
L 93.513718 153.693282 
L 94.746017 153.833773 
L 95.285431 153.645359 
L 95.727443 153.322813 
L 96.034382 153.300588 
L 96.561695 153.48235 
L 96.969184 153.81463 
L 97.458632 153.935718 
L 98.557123 153.862001 
L 99.138588 153.668363 
L 99.635985 153.604542 
L 99.668464 153.628422 
L 99.576155 154.180621 
L 100.1376 154.381591 
L 101.098651 154.5056 
L 102.20587 154.453005 
L 103.121626 154.546903 
L 103.70958 154.522407 
L 104.563332 154.285194 
L 104.825723 154.40612 
L 105.191097 154.445542 
L 105.849816 154.456866 
L 106.157598 154.376659 
L 106.869431 154.0851 
L 107.702287 153.545912 
L 108.582255 152.829731 
L 109.218748 152.503682 
L 109.586621 152.460431 
L 109.619976 152.543882 
L 109.398012 152.810718 
L 109.269169 153.130214 
L 109.652259 153.256656 
L 109.866598 153.232776 
L 110.1371 153.338679 
L 111.153471 154.087241 
L 111.768128 154.303591 
L 112.279606 154.876068 
L 112.659841 155.579724 
L 113.376119 155.442088 
L 113.78244 155.275446 
L 114.584343 155.099459 
L 115.6646 155.01471 
L 116.216961 155.089595 
L 116.578831 155.242383 
L 116.482499 155.350623 
L 116.296486 155.808079 
L 116.2533 156.049802 
L 116.277167 156.093479 
L 116.289769 156.116543 
L 116.557416 156.322738 
L 117.886437 156.686555 
L 118.427798 157.520417 
L 117.945456 158.340717 
L 118.755568 158.345389 
L 119.125355 158.154963 
L 119.372139 157.582291 
L 119.513896 156.694893 
L 118.806865 156.466474 
L 118.532567 156.078225 
L 117.866515 155.744096 
L 117.744583 154.942453 
L 117.930531 154.614813 
L 119.329246 153.851391 
L 120.922247 153.573394 
L 121.688881 153.564763 
L 122.06321 154.415302 
L 121.275876 154.745019 
L 121.104269 154.768672 
L 120.635878 155.059226 
L 120.455414 155.212663 
L 120.360185 155.371324 
L 121.360819 156.478673 
L 121.362863 156.658262 
L 121.487716 156.775295 
L 122.278035 156.611961 
L 122.352109 156.45648 
L 122.37599 155.96859 
L 122.31392 155.910025 
L 122.112593 155.915313 
L 122.081575 155.873069 
L 122.57112 155.252215 
L 123.048044 155.046669 
L 123.699981 154.867081 
L 124.064187 154.913803 
L 123.921425 155.073956 
L 123.902606 155.386898 
L 124.225639 156.826137 
L 124.39147 157.033046 
L 124.657884 157.173212 
L 124.627839 157.653705 
L 124.075284 157.942864 
L 123.972495 157.939132 
L 123.741512 157.726352 
L 123.590476 157.689753 
L 122.891784 157.949677 
L 123.063488 158.610148 
L 123.608191 159.089051 
L 124.194523 159.113483 
L 124.338032 159.252871 
L 124.421904 159.550952 
L 124.146989 160.027714 
L 124.154712 160.172293 
L 124.23667 160.275406 
L 124.870795 160.460835 
L 125.021928 160.44604 
L 125.237986 160.776048 
L 125.143017 160.941361 
L 125.107488 161.292816 
L 125.386232 161.626588 
L 125.680485 161.783172 
L 126.282423 161.773536 
L 126.559252 161.867596 
L 125.861144 162.27408 
L 125.795538 162.482189 
L 125.71504 162.554056 
L 125.269783 162.629526 
L 124.73981 162.51152 
L 123.852639 162.495135 
L 123.943034 162.750939 
L 124.247118 163.066087 
L 124.177683 163.443499 
L 124.020191 163.68149 
L 123.013943 164.278561 
L 122.613332 164.385471 
L 122.090789 164.683812 
L 122.010356 165.546226 
L 121.77204 166.072565 
L 121.75215 166.452443 
L 120.999922 167.818939 
L 120.018528 168.599557 
L 119.362795 168.091777 
L 120.709953 164.941725 
L 119.996238 163.402746 
L 119.750881 163.536586 
L 119.918011 164.458409 
L 118.92565 165.432406 
L 117.794907 167.276344 
L 117.273759 168.762533 
L 114.810589 170.707281 
L 114.581985 170.974571 
L 110.461333 175.792542 
L 108.85545 179.115824 
L 109.368454 179.383471 
L 110.305203 178.89279 
L 111.577086 179.25054 
L 112.934367 179.271435 
L 114.438141 178.503568 
L 115.903402 178.22158 
L 116.790249 178.03362 
L 117.877612 177.323702 
L 118.054961 176.916667 
L 117.121847 176.979287 
L 116.620589 177.234994 
L 114.646574 177.804519 
L 113.489615 178.373005 
L 112.070654 178.702008 
L 111.13754 178.498506 
L 110.169968 178.455807 
L 110.015265 177.956042 
L 112.815225 174.53354 
L 113.383851 173.776737 
L 114.97788 171.655191 
L 116.606053 170.517699 
L 118.568776 169.580919 
L 120.259635 169.459311 
L 121.892058 168.867204 
L 121.905415 168.80567 
L 122.347178 166.770673 
L 122.579069 166.725346 
L 122.914106 166.361886 
L 123.010601 165.9677 
L 123.169943 165.734089 
L 123.956402 165.403269 
L 124.166554 164.747795 
L 124.233718 164.67291 
L 125.333864 163.886386 
L 126.142289 163.527015 
L 126.421551 163.053076 
L 126.631801 162.860931 
L 127.749014 162.833222 
L 127.767638 162.297895 
L 127.338021 161.391289 
L 127.276503 161.037628 
L 127.017162 160.801194 
L 126.352895 160.641268 
L 126.235603 160.433159 
L 126.34248 160.191955 
L 126.506852 160.134039 
L 126.769502 160.143578 
L 127.578381 160.618555 
L 128.547186 160.838117 
L 129.244093 161.26608 
L 129.685586 162.079664 
L 129.724781 162.628909 
L 129.940741 163.671529 
L 130.067216 163.845115 
L 130.70624 164.198257 
L 130.709225 164.40124 
L 130.619122 164.56759 
L 130.290379 164.797567 
L 130.286746 165.133319 
L 131.067266 165.805827 
L 131.101951 166.093168 
L 131.052925 166.3297 
L 130.874472 166.452995 
L 130.512797 166.531319 
L 129.891553 166.549651 
L 129.646424 166.521391 
L 129.512357 166.446473 
L 128.928556 166.416623 
L 128.372561 166.463215 
L 128.738974 167.591135 
L 129.135497 167.789932 
L 129.300614 167.780815 
L 129.361905 167.685456 
L 129.77611 167.66336 
L 129.989994 167.97416 
L 129.994926 168.404005 
L 129.856804 168.892155 
L 129.54636 169.525598 
L 130.07072 169.922932 
L 130.359846 170.051158 
L 130.372695 170.230617 
L 130.317245 170.42419 
L 130.127793 170.612669 
L 130.196481 171.247767 
L 130.336226 171.548833 
L 130.664839 171.621577 
L 130.817854 171.721089 
L 130.020234 171.996101 
L 129.54344 172.031727 
L 129.168763 172.214686 
L 129.014668 172.289932 
L 128.740369 172.607773 
L 128.765126 173.20757 
L 128.607698 173.5185 
L 128.627035 173.671223 
L 129.07161 173.715544 
L 129.391496 173.656622 
L 130.121758 173.939552 
L 130.305434 174.102268 
L 129.149319 175.439822 
L 129.104705 176.744605 
L 128.642881 177.569325 
L 128.480217 177.859807 
L 128.937446 178.462004 
L 128.467239 178.992691 
L 128.327591 179.382725 
L 127.824678 180.041378 
L 127.673967 180.067303 
L 127.74684 180.326903 
L 127.827955 180.417752 
L 128.512728 181.232893 
L 128.59751 181.400054 
L 127.601742 182.390955 
L 127.256225 182.964179 
L 127.203435 183.268684 
L 126.812396 183.601126 
L 126.432875 183.491913 
L 126.018831 183.013107 
L 124.669922 181.883402 
L 123.895922 181.572602 
L 123.73525 181.444668 
L 124.582804 179.504235 
L 125.764909 178.63439 
L 125.841482 178.445846 
L 125.625294 178.399513 
L 124.575342 178.754667 
L 122.815081 179.935896 
L 122.181995 181.016737 
L 122.040174 181.689992 
L 123.062125 182.545366 
L 122.844737 183.004769 
L 123.367461 183.131403 
L 123.501801 183.163949 
L 124.129534 183.118654 
L 124.303282 183.157265 
L 124.704833 183.410084 
L 124.959535 183.543177 
L 125.31404 183.661508 
L 125.538533 184.006474 
L 125.458619 184.181974 
L 125.036432 184.379278 
L 124.373203 184.457895 
L 124.306559 184.830343 
L 124.496141 184.99082 
L 124.512039 185.794735 
L 124.445168 186.052162 
L 124.161233 186.120525 
L 123.878499 186.419158 
L 123.820583 186.573504 
L 123.571203 186.639337 
L 123.260889 186.515555 
L 122.931108 186.209103 
L 122.257335 185.7436 
L 122.008747 185.569142 
L 121.580024 185.268266 
L 121.326426 185.236307 
L 119.34138 182.76058 
L 119.001022 182.304616 
L 119.03217 181.976977 
L 119.312503 181.776201 
L 119.865902 181.688402 
L 120.437211 181.271503 
L 120.5144 179.57302 
L 120.313719 179.190721 
L 120.255838 179.080458 
L 119.696048 178.878189 
L 119.586737 179.191975 
L 119.765158 180.017206 
L 119.680603 180.283296 
L 118.917603 180.976277 
L 118.337728 181.890735 
L 118.583053 183.07284 
L 119.16296 183.898104 
L 118.491368 185.225616 
L 118.460764 185.286112 
L 118.716892 185.325533 
L 119.943611 184.834853 
L 121.21491 186.663769 
L 122.954632 187.31058 
L 123.853966 187.296313 
L 124.35977 187.288289 
L 125.251905 186.36095 
L 125.432987 186.27526 
L 125.721237 186.259491 
L 125.576236 185.819913 
L 125.730484 185.338512 
L 125.884732 185.217942 
L 126.412791 185.170312 
L 127.192338 184.879466 
L 127.526921 183.831168 
L 128.129119 182.73829 
L 128.165596 182.687952 
L 128.906437 181.66559 
L 129.244321 181.199311 
L 128.590177 180.392314 
L 128.601176 180.349129 
L 128.833814 180.323626 
L 129.057691 180.385273 
L 131.059155 181.660369 
L 131.949862 182.004231 
L 132.159889 181.961291 
L 132.423412 181.907412 
L 132.797547 181.516179 
L 133.085505 181.295838 
L 132.93833 181.121765 
L 132.597647 181.00496 
L 132.334834 181.053629 
L 131.935748 180.910866 
L 131.988538 180.719045 
L 132.620359 180.304126 
L 132.790906 180.255772 
L 134.546581 179.757995 
L 135.430215 179.58058 
L 135.822844 179.350214 
L 135.811573 178.812301 
L 135.79361 177.955036 
L 135.706006 177.659777 
L 135.485373 177.406698 
L 135.070032 177.163353 
L 134.967632 176.931137 
L 134.967632 176.680687 
L 134.839665 176.319757 
L 134.616111 176.212686 
L 134.453525 176.134815 
L 133.931145 176.040722 
L 134.421079 175.758442 
L 134.638468 175.038141 
L 134.511928 174.811051 
L 133.817551 174.363296 
L 133.496304 173.941498 
L 133.580663 173.630017 
L 133.437901 172.809133 
L 133.064739 172.199148 
L 132.6981 171.968782 
L 133.324307 171.712458 
L 133.801264 171.329596 
L 134.181466 171.671544 
L 134.351937 171.739486 
L 134.738985 171.683257 
L 135.190169 171.494539 
L 135.235442 171.475603 
L 135.346537 171.219506 
L 135.344655 171.216035 
L 135.194755 170.939477 
L 135.17055 170.894819 
L 134.42812 170.405112 
L 133.836954 170.16154 
L 133.58712 170.184252 
L 133.246405 170.090158 
L 132.908804 169.900479 
L 132.415755 169.279041 
L 133.129566 168.591186 
L 133.25935 168.289438 
L 133.603051 167.894148 
L 134.018619 167.650252 
L 134.074918 167.546099 
L 134.148403 167.410152 
L 134.255475 166.998087 
L 133.947206 166.352412 
L 134.025076 166.04742 
L 133.56431 165.602909 
L 133.500078 165.417695 
L 133.479918 165.359564 
L 133.547657 164.597977 
L 133.548023 164.593871 
L 133.642116 164.451109 
L 134.901021 163.383636 
L 135.118409 163.325233 
L 135.332552 163.185715 
L 135.462142 163.004407 
L 135.547086 162.777465 
L 135.669958 162.449191 
L 135.650491 162.25776 
L 135.540239 162.097866 
L 135.702372 161.524512 
L 135.919728 161.073513 
L 136.279878 160.641981 
L 136.312324 160.512197 
L 136.266867 160.265608 
L 136.399896 159.863277 
L 136.771485 159.768461 
L 137.340862 159.623177 
L 138.283094 159.526164 
L 138.898303 159.155955 
L 139.018353 158.977502 
L 138.822217 158.610992 
L 138.892657 157.980209 
L 138.939801 157.807791 
L 139.062706 157.672881 
L 138.842658 157.242971 
L 137.242226 156.596744 
L 136.439156 155.830305 
L 135.924205 155.437968 
L 135.781118 155.198841 
L 135.225578 155.044593 
L 134.573025 154.211551 
L 134.557158 154.191295 
L 134.517055 154.129907 
L 134.558618 153.58037 
L 134.527892 153.303119 
L 134.349147 152.864935 
L 134.568936 152.552513 
L 134.615496 152.126497 
L 134.2765 151.949536 
L 133.964694 151.492567 
L 133.847856 151.145233 
L 133.532758 150.799768 
L 133.509834 150.774634 
L 132.554267 150.656077 
L 132.391842 150.547383 
L 132.288372 150.537227 
L 131.774492 150.665454 
L 131.641301 150.786769 
L 131.644286 150.852602 
L 131.777477 151.245004 
L 131.939869 151.251948 
L 132.029972 151.341044 
L 132.019589 151.419758 
L 131.601717 151.832179 
L 131.375958 151.945805 
L 131.281442 151.892918 
L 131.104644 151.917577 
L 130.835829 152.109657 
L 130.820482 152.511469 
L 130.924472 152.800595 
L 132.008817 153.967061 
L 133.006012 154.539116 
L 134.049735 155.377067 
L 134.670622 156.216023 
L 134.73454 156.391037 
L 134.581006 156.442528 
L 134.126535 156.344477 
L 133.783386 156.097206 
L 133.682901 155.958077 
L 133.597697 155.666225 
L 133.361523 155.446144 
L 132.614908 154.872304 
L 131.772707 154.512154 
L 131.193871 153.982895 
L 130.853739 154.025237 
L 130.56974 154.287984 
L 130.46429 154.298789 
L 129.749018 153.866803 
L 129.406875 152.965421 
L 128.931736 152.250538 
L 128.876707 151.408954 
L 129.022228 150.976708 
L 128.996985 150.418377 
L 129.13368 150.106636 
L 130.016535 149.872246 
L 130.150797 149.886328 
L 130.213126 149.990869 
L 130.351962 150.034541 
L 130.758283 150.045476 
L 130.966943 149.931233 
L 131.216486 149.464757 
L 131.308665 149.434355 
L 133.172557 150.041452 
L 133.201781 150.027459 
L 133.535563 149.867639 
L 133.641662 149.463978 
L 134.302424 148.873104 
L 134.136139 148.6051 
L 134.088175 148.553731 
L 133.893053 148.344754 
L 133.101111 147.621532 
L 132.601962 147.364138 
L 131.999245 147.247722 
L 130.933362 146.534624 
L 130.709679 146.47541 
L 130.214456 146.472165 
L 129.898075 146.380376 
L 129.053992 145.77224 
L 128.859414 145.325102 
L 128.598451 145.23753 
L 128.369901 145.037955 
L 128.244432 144.365739 
L 128.477459 143.953448 
L 128.280285 143.792094 
L 127.921757 143.774183 
L 127.697685 143.827946 
L 127.491555 144.285078 
L 126.484172 144.639259 
L 125.116573 144.874881 
L 124.77482 144.700095 
L 124.488646 144.431669 
L 124.333878 143.953415 
L 124.394098 143.804391 
L 124.487672 143.828141 
L 124.491014 143.871878 
L 124.712815 143.854877 
L 125.115308 143.479022 
L 125.020922 142.867318 
L 124.798018 142.698988 
L 124.003156 142.740486 
L 123.788883 143.131915 
L 123.793361 143.269064 
L 123.630611 143.364001 
L 123.313971 143.235775 
L 123.250377 143.152745 
L 123.228995 142.677509 
L 123.41874 142.362322 
L 123.596835 142.066486 
L 124.152408 141.693324 
L 124.327584 141.736348 
L 124.398965 141.843841 
L 124.578586 141.860194 
L 126.402149 141.294109 
L 126.66892 141.270585 
L 126.896366 141.309715 
L 126.944451 141.594494 
L 127.930744 141.722947 
L 128.29534 142.027875 
L 128.927356 143.068191 
L 129.073687 143.090644 
L 129.265183 143.027471 
L 129.650869 143.106964 
L 129.771179 143.227955 
L 130.115982 143.258389 
L 131.053315 142.939218 
L 131.124631 142.89175 
L 131.123463 142.80129 
L 130.990661 142.646361 
L 130.825576 142.581923 
L 130.674702 142.234945 
L 130.626196 141.677199 
L 130.662665 141.279054 
L 130.616721 141.077402 
L 130.189245 140.165669 
L 129.995705 139.88764 
L 129.316221 139.804286 
L 129.101818 139.762106 
L 129.012883 139.580344 
L 129.010677 139.524731 
L 129.737954 139.456367 
L 130.272275 139.525802 
L 130.515068 139.891209 
L 130.710231 140.053828 
L 130.839204 140.065184 
L 131.938182 139.714378 
L 132.311343 139.341444 
L 132.564033 138.760239 
L 131.803791 138.010671 
L 131.29932 137.910316 
L 130.565132 137.345593 
L 130.502967 137.271522 
L 130.334376 137.070646 
L 130.129382 136.922465 
L 129.921404 136.483503 
L 129.517321 135.075249 
L 129.636106 134.819023 
L 129.954953 134.704424 
L 130.29184 134.288985 
L 130.374325 134.056679 
L 130.450825 133.841231 
L 129.78565 133.627087 
L 129.716283 133.584186 
L 129.224301 133.279915 
L 128.977712 133.030081 
L 127.949336 132.930893 
L 126.997176 133.1805 
L 126.958597 133.24549 
L 126.674565 133.581176 
L 125.992518 134.051091 
L 125.689537 134.341548 
L 125.659168 134.446089 
L 126.041868 134.821035 
L 126.487189 135.015646 
L 126.708763 135.465542 
L 126.696693 135.546982 
L 126.402603 135.700029 
L 126.234889 135.706129 
L 125.907704 135.609635 
L 125.39178 135.240529 
L 124.510904 134.426751 
L 124.722419 133.928283 
L 124.911969 133.749279 
L 125.355441 133.099191 
L 125.410599 132.854548 
L 125.37705 132.741863 
L 125.060669 132.743226 
L 124.95749 132.692805 
L 124.291115 132.166303 
L 123.855138 132.110334 
L 123.740409 132.164357 
L 123.693167 132.238593 
L 123.666172 132.42081 
L 123.672791 132.610392 
L 123.549399 132.699359 
L 123.331719 132.703122 
L 123.286781 132.532619 
L 123.352679 131.67705 
L 123.267151 131.20402 
L 123.096226 130.724403 
L 122.914139 130.540597 
L 120.870885 129.495479 
L 120.627021 129.240421 
L 120.646196 129.181856 
L 120.932921 129.184873 
L 121.986054 128.64627 
L 122.108537 128.505357 
L 122.178069 128.322199 
L 122.138323 128.013832 
L 121.8454 127.756568 
L 121.505626 127.649658 
L 121.36494 127.631067 
L 120.809886 127.982327 
L 119.814021 127.743525 
L 119.703737 127.668672 
L 119.67671 127.553748 
L 119.846662 127.194928 
L 120.506581 126.576637 
L 121.240217 126.057111 
L 121.49878 126.036541 
L 121.822883 125.867529 
L 121.832 125.782164 
L 121.76766 125.689855 
L 133.129956 125.695176 
L 133.189656 125.693684 
L 138.216385 125.68541 
L 143.171084 125.696701 
L 154.433251 125.850722 
L 165.974585 125.771165 
L 167.604931 125.738978 
L 170.471924 125.763475 
L 170.65651 125.760912 
L 170.730973 125.736318 
L 171.349037 125.728758 
L 174.712389 125.720517 
L 176.862715 125.746181 
L 179.491198 125.754423 
L 183.624626 125.757243 
L 188.003438 125.760231 
L 199.047666 125.743456 
L 210.102222 125.781394 
L 211.215466 125.785214 
L 215.271346 125.751795 
L 220.922757 125.757602 
L 220.948649 125.757959 
L 228.849833 125.757862 
L 229.791481 125.758122 
L 239.246375 125.756694 
L 239.414185 125.75783 
L 249.001619 125.756345 
L 269.742333 125.753133 
L 276.079979 125.752152 
L 276.110479 125.769218 
L 279.897186 125.769186 
L 280.166423 125.748615 
L 288.887161 125.738978 
L 294.641621 125.754504 
L 299.890604 125.768667 
L 299.88882 125.772236 
L 304.501732 125.80241 
L 307.542701 125.792677 
L 307.550618 129.824481 
L 307.54161 130.741428 
L 307.510774 133.880393 
L 307.499872 136.898487 
L 307.477582 137.819272 
L 307.473007 138.070858 
L 307.442962 141.992119 
L 307.447504 144.256882 
L 307.447504 144.266519 
L 307.44851 144.482999 
L 307.447374 144.496366 
L 307.450976 146.167692 
L 307.450976 146.178821 
L 307.339881 151.46554 
L 307.307532 152.229708 
L 307.307013 152.241778 
L 307.308084 152.335579 
L 307.308084 152.344372 
L 307.308051 152.361893 
L 307.306916 152.432333 
L 307.313567 152.461275 
L 307.309057 152.568022 
L 307.258604 154.159693 
L 307.249064 155.438195 
L 307.240142 156.734088 
L 307.240115 156.737194 
L 307.221061 158.943936 
L 307.217949 159.304363 
L 307.217725 159.563225 
L 307.21438 163.435841 
L 307.229662 163.974769 
L 307.227553 165.394898 
L 307.213893 165.787657 
L 307.212725 165.840512 
L 307.209415 165.959686 
L 307.208312 165.971561 
L 307.227715 166.482812 
L 307.225249 166.515258 
L 307.240357 166.780625 
L 307.241504 166.800783 
L 307.240077 167.209278 
L 307.241537 167.738473 
L 307.244814 168.491414 
L 307.248091 168.595047 
L 307.248091 168.653936 
L 307.248091 168.655396 
L 307.257979 170.425674 
L 307.266942 172.030299 
L 307.25643 172.536262 
L 307.25312 172.546645 
L 307.270349 173.367561 
L 307.276838 173.54105 
L 307.277844 173.710126 
L 307.296306 175.154881 
L 307.295462 175.625802 
L 307.296208 176.548048 
L 307.296144 177.277206 
L 307.29835 177.709614 
L 307.288811 178.494321 
L 307.292271 178.782186 
L 307.299615 179.393042 
L 307.293905 182.245986 
L 307.297798 183.341266 
L 307.298155 184.062638 
L 307.298707 184.757761 
L 307.299842 185.637826 
L 307.300327 186.528957 
L 307.30565 196.310483 
L 307.300102 196.646461 
L 307.314054 200.386089 
L 307.305657 205.528026 
L 307.301951 207.796982 
L 307.302211 207.868655 
L 307.302925 208.09143 
L 307.300619 209.285438 
L 307.300589 209.300984 
L 307.406071 209.392774 
L 307.466615 209.531578 
L 307.439068 209.801074 
L 307.409542 209.873104 
L 307.350263 209.92995 
L 307.238163 210.281826 
L 307.231252 210.3803 
L 307.070157 210.788568 
L 306.987128 210.878022 
L 306.91247 210.916276 
L 306.726197 211.054009 
L 306.611695 211.172404 
L 306.555239 211.252221 
L 306.55644 211.630639 
L 306.560268 211.666395 
L 306.622792 211.780183 
L 306.775937 211.893225 
L 306.913767 211.948318 
L 307.117074 211.991893 
L 307.474597 212.029855 
L 307.597178 212.062463 
L 307.692179 212.113208 
L 307.818719 212.203246 
L 307.841269 212.242733 
L 307.855642 212.429914 
L 307.832346 212.513073 
L 307.848082 212.715925 
L 307.869043 212.803692 
L 307.921929 212.89055 
L 308.059825 213.00596 
L 308.34947 213.198495 
L 308.681263 213.268286 
L 308.923505 213.390153 
L 309.024282 213.478828 
L 309.091056 213.607217 
L 309.081971 213.703484 
L 308.887814 214.007373 
L 308.870683 214.069183 
L 308.880027 214.138131 
L 309.001473 214.250945 
L 309.369313 214.473363 
L 309.481673 214.562232 
L 309.556072 214.628357 
L 309.67145 214.768199 
L 309.74812 214.886335 
L 309.929104 215.242008 
L 310.043865 215.613191 
L 310.018979 215.772306 
L 309.90876 215.972303 
L 309.691307 216.308411 
L 309.677063 216.371746 
L 309.700684 216.504255 
L 309.793966 216.625506 
L 310.136271 216.825568 
L 310.483184 217.10071 
L 311.05962 217.558653 
L 311.127367 217.659624 
L 311.147224 217.757384 
L 311.102124 217.888823 
L 310.686004 218.482455 
L 310.268651 219.019858 
L 310.205706 219.09841 
L 310.182864 219.248018 
L 310.173617 219.497593 
L 310.043898 219.787141 
L 309.904867 219.890287 
L 309.434075 219.934121 
L 309.340014 219.967768 
L 309.27947 219.998235 
L 309.184598 220.090706 
L 309.160231 220.140478 
L 309.160847 220.204007 
L 309.177622 220.349171 
L 309.275739 220.508415 
L 309.565449 220.613476 
L 309.786698 220.641509 
L 309.876703 220.6272 
L 309.975469 220.656304 
L 310.261253 220.900168 
L 310.452944 221.125117 
L 310.808228 221.817806 
L 311.090541 222.510788 
L 311.23087 223.108378 
L 311.279539 223.21545 
L 311.318182 223.253152 
L 310.517025 223.225216 
L 309.050434 223.202504 
L 306.927752 223.20656 
L 306.319616 223.185113 
L 301.693823 223.158799 
L 301.631592 223.158832 
L 301.560308 223.157664 
L 297.636386 223.147735 
L 297.108814 223.222783 
L 295.914477 223.149812 
L 294.317972 223.148676 
L 293.17571 223.172686 
L 293.168832 223.173919 
L 293.020387 223.17345 
L 293.01494 223.173432 
L 292.212551 223.158929 
L 289.022136 223.140435 
L 289.013651 223.140362 
L 285.300937 223.10867 
L 276.871099 223.080849 
L 276.246589 223.078787 
L 276.245333 223.078792 
L 272.051776 223.095173 
L 271.895322 223.095238 
L 271.40834 223.081578 
L 268.718145 223.090663 
L 268.47016 223.09076 
L 267.952776 223.08943 
L 267.828248 223.090079 
L 266.94708 223.078787 
L 265.926459 223.089624 
L 264.21305 223.084141 
L 263.870096 223.085698 
L 263.045058 223.08518 
L 260.872216 223.083817 
L 260.019827 223.084206 
L 258.719002 223.077068 
L 257.671872 223.079242 
L 257.466879 223.081026 
L 257.330735 223.077782 
L 256.458479 223.075489 
L 255.45474 223.07285 
L 255.402599 223.072071 
L 254.773634 223.073336 
L 254.152196 223.073985 
L 245.606828 223.085698 
L 244.117979 223.109027 
L 244.115802 223.111118 
L 243.422694 223.776928 
L 242.822508 224.105801 
L 241.706171 224.449955 
L 240.675718 224.962018 
L 239.608277 225.282779 
L 238.2009 225.453315 
L 237.356201 225.444652 
L 236.375845 225.287127 
L 235.356878 225.053483 
L 233.23624 225.272267 
L 231.877175 225.647926 
L 229.67883 225.756768 
L 229.091362 225.785854 
L 227.872268 226.144285 
L 226.678158 226.069724 
L 225.154754 225.522977 
L 224.214955 225.713597 
L 223.473759 226.165959 
L 221.965539 227.748415 
L 218.621979 228.114698 
L 217.657424 228.051364 
L 215.532861 228.426699 
L 215.528414 228.42739 
L 215.273001 228.467062 
L 214.256889 228.680654 
L 212.365839 228.802975 
L 211.270554 229.18854 
L 211.217121 229.20735 
L 208.978282 230.07528 
L 206.668063 230.464632 
L 205.723852 230.82806 
L 204.416245 231.996116 
L 202.099536 232.148644 
L 201.888637 232.184335 
L 200.577787 232.479593 
L 198.147484 232.862489 
L 195.603653 233.018229 
L 194.84114 232.836564 
L 194.318727 232.518593 
L 193.101969 231.593882 
L 192.073399 231.327858 
L 190.652199 231.35057 
L 190.049796 231.629551 
L 189.552247 231.859972 
L 188.887072 232.32395 
L 187.757919 232.628975 
L 185.65863 233.284384 
L 183.491173 233.761372 
L 183.024989 234.095664 
L 182.196545 234.689328 
L 181.615729 234.783421 
L 181.540481 234.742662 
L 181.537859 234.741242 
L 180.626094 234.251307 
L 180.330835 234.241573 
L 179.522898 234.481674 
L 179.344445 234.514152 
L 178.566682 234.356043 
L 177.71877 234.42804 
L 176.719823 234.377717 
L 176.052636 234.528785 
L 174.912776 235.332116 
L 175.010503 235.494897 
L 174.843471 235.561411 
L 174.664224 235.677289 
L 174.527025 235.765984 
L 174.282707 235.694602 
L 174.086376 235.826852 
L 173.362246 235.884866 
L 172.843467 235.873737 
L 172.430916 235.54123 
L 172.473842 235.125143 
L 172.307265 234.46597 
L 171.807207 233.771333 
L 170.658489 233.53928 
L 169.485891 233.259303 
L 168.678796 232.840555 
L 167.849087 232.677546 
L 166.719837 232.737182 
L 165.773549 233.06891 
L 165.064507 233.033122 
L 164.4924 232.925614 
L 163.790774 232.793768 
L 162.612855 232.161752 
L 161.858842 232.037452 
L 161.816862 232.030148 
L 161.511216 231.976972 
L 158.329529 232.687021 
L 157.1227 232.673231 
L 155.857436 233.006549 
L 154.957189 233.031532 
L 152.484804 232.618754 
L 150.672274 233.056256 
L 149.546787 233.78827 
L 149.579136 234.070777 
L 149.338743 234.317692 
L 148.892226 234.487614 
L 148.46653 234.649614 
L 147.925039 234.624241 
L 147.798629 234.669406 
L 147.545128 235.019012 
L 147.017881 235.276795 
L 146.912723 235.342563 
L 146.242649 235.565857 
L 145.630036 235.591132 
L 144.922616 235.773965 
L 143.063428 236.617561 
L 142.716872 236.685925 
L 142.267787 236.64673 
L 142.267787 236.648158 
L 142.160942 236.635374 
L 142.15906 236.636088 
L 141.7956 236.585375 
L 140.402207 236.806397 
L 139.818017 237.246202 
L 138.286178 237.777275 
L 138.283548 237.778187 
L 137.841244 237.889282 
L 137.708995 237.904856 
L 136.794017 237.91459 
L 135.606461 237.762094 
L 134.915362 237.074239 
L 134.023097 236.86334 
L 133.649968 236.908764 
L 133.344296 237.020464 
L 133.036609 237.132901 
L 132.129159 237.264242 
L 131.635428 237.143284 
L 130.96159 236.786637 
L 130.810521 236.739396 
L 130.39054 236.625186 
L 129.965689 236.53928 
L 129.371444 236.419121 
L 128.577133 236.187587 
L 128.518527 236.174948 
L 127.498077 235.954884 
L 127.34884 235.928845 
L 126.810222 235.834866 
L 125.47017 235.76673 
L 124.461067 235.497428 
L 123.941931 235.28004 
L 123.218353 234.868008 
L 122.413692 234.65062 
L 121.625088 234.251731 
L 121.579797 234.228822 
L 121.232593 233.472863 
L 121.297485 232.8499 
L 121.632375 231.910921 
L 121.699912 231.721557 
L 121.67181 231.203656 
L 121.656337 230.918519 
L 121.394141 230.223526 
L 120.548177 229.269062 
L 120.536561 228.781593 
L 120.869684 228.15889 
L 120.875557 227.953831 
L 120.891423 227.39696 
L 120.467516 226.857254 
L 120.032123 225.936047 
L 120.204639 225.297153 
L 119.951398 224.370235 
L 119.184374 223.726637 
L 118.583474 222.634861 
L 117.871804 222.089379 
L 117.697542 221.298054 
L 117.664604 221.148478 
L 117.027332 220.387489 
L 115.127229 219.70343 
L 113.779033 218.762302 
L 113.610217 218.690272 
L 113.197796 218.59076 
L 112.819054 218.421197 
L 112.576455 218.355818 
L 112.259555 218.12065 
L 110.508866 217.339447 
L 110.155756 217.093117 
L 108.516909 216.972905 
L 107.003628 217.506058 
L 106.414992 217.71342 
L 105.764872 218.028081 
L 104.826112 218.404747 
L 104.149029 218.411593 
L 103.133437 218.362924 
L 102.114368 218.356668 
L 101.864863 218.355137 
L 99.937117 217.204764 
L 100.041528 215.662898 
L 99.393808 214.998274 
L 98.707543 214.52135 
L 98.50959 214.414278 
L 98.353849 214.372099 
L 97.652983 214.311327 
L 97.168143 214.468723 
L 96.837096 214.557917 
L 96.457446 214.648571 
L 96.147035 214.697272 
L 96.147781 214.486828 
L 95.749117 214.502953 
L 95.603694 214.59789 
L 95.044422 214.652075 
L 94.00933 214.668752 
L 92.193749 214.446692 
L 91.881489 214.262723 
L 91.850503 214.086185 
L 91.915752 213.80955 
L 91.893332 213.67159 
L 91.834475 213.499496 
L 91.601221 213.395344 
L 91.17939 213.199273 
L 90.416617 213.332853 
L 90.424242 213.530871 
L 90.29908 213.705196 
L 90.27671 213.736352 
L 89.858384 213.686093 
L 89.271695 214.179305 
L 89.040615 214.230375 
L 88.768977 214.194684 
L 88.522388 214.012078 
L 88.103769 213.873404 
L 87.760393 213.903027 
L 85.509095 215.324194 
L 84.413037 215.139122 
L 84.079654 214.953336 
L 82.951442 214.116749 
L 82.462351 213.649624 
L 82.414169 213.569547 
L 82.432241 213.391548 
L 82.297461 213.271141 
L 81.950451 213.077244 
L 81.429368 212.940289 
L 80.803582 212.859921 
L 80.499466 213.100832 
L 80.315335 213.472955 
L 80.211572 213.900204 
L 80.042172 214.151661 
L 79.492439 214.059644 
L 78.852929 214.433487 
L 78.803741 214.37119 
L 78.818601 214.190953 
L 78.995983 213.484149 
L 79.154255 213.19194 
L 79.37359 212.497758 
L 79.577123 210.563847 
L 79.607168 209.823689 
L 79.620179 207.097479 
L 79.460253 205.058994 
L 79.250425 203.591397 
L 79.21269 202.642222 
L 79.2428 202.50504 
L 79.435529 202.255109 
L 79.63796 202.155726 
L 79.898566 202.149821 
L 80.306412 202.636673 
L 79.760216 202.897085 
L 79.82076 203.071482 
L 80.535968 203.92744 
L 80.705757 204.202615 
L 80.71932 204.801114 
L 80.626167 205.856387 
L 80.440641 206.99894 
L 80.625746 208.082539 
L 80.975319 210.81764 
L 81.237515 211.051738 
L 81.962423 210.81764 
L 82.641031 210.881461 
L 82.972662 210.812319 
L 83.096054 209.791113 
L 82.704236 209.837219 
L 82.540806 209.615645 
L 82.594763 209.046867 
L 82.229292 208.787461 
L 81.846721 208.664231 
L 81.774886 208.081209 
L 81.766612 207.992989 
L 81.659183 207.891433 
L 81.707885 207.250657 
L 81.847208 206.978402 
L 81.999639 206.92863 
L 82.150026 206.966397 
L 82.144835 207.207438 
L 82.41683 207.680469 
L 82.507224 207.74124 
L 83.335116 208.010769 
L 83.435342 207.947013 
L 83.29816 207.62119 
L 84.027384 206.630484 
L 84.821954 206.145935 
L 84.804466 205.957262 
L 84.901414 205.679913 
L 84.607226 205.197052 
L 84.166577 204.849134 
L 84.058045 204.696313 
L 83.990396 204.381133 
L 83.778556 203.997686 
L 83.445076 203.755931 
L 82.91241 203.520892 
L 82.794988 203.196075 
L 82.747389 202.456858 
L 83.397153 202.310916 
L 84.00399 202.005923 
L 84.036339 201.898397 
L 83.959994 201.27764 
L 84.208952 201.084879 
L 84.85771 200.921903 
L 85.853769 200.434791 
L 86.293283 200.309063 
L 86.888634 200.31208 
L 87.010858 200.100597 
L 86.873612 199.797649 
L 86.378648 199.746514 
L 85.943093 199.49178 
L 85.662987 199.473027 
L 85.47162 199.397427 
L 84.940349 198.763205 
L 84.759074 198.763173 
L 84.367288 198.87641 
L 84.183806 199.051391 
L 84.201035 199.181175 
L 84.298048 199.397752 
L 84.167486 199.524551 
L 83.771677 199.571954 
L 83.135411 199.569002 
L 82.490352 199.220629 
L 82.281724 199.30872 
L 82.130494 199.592071 
L 82.276436 199.938821 
L 82.544797 200.223924 
L 82.32491 200.283333 
L 81.875273 200.148552 
L 81.657204 200.13486 
L 81.358182 200.316298 
L 80.743168 200.100986 
L 80.092139 199.741906 
L 80.104046 199.652907 
L 79.964918 199.558716 
L 79.422486 199.299862 
L 78.842806 199.256417 
L 78.479638 199.041592 
L 78.338854 198.893054 
L 78.38668 198.548802 
L 78.334312 197.654526 
L 78.279542 197.340027 
L 78.185807 196.80178 
L 77.963681 195.96688 
L 77.480204 194.558042 
L 76.985532 193.723369 
L 77.651097 193.501243 
L 77.880522 193.496701 
L 78.440183 193.865028 
L 78.536548 194.048932 
L 78.573407 194.950411 
L 79.098156 195.152323 
L 79.31762 195.087074 
L 79.489519 195.034414 
L 79.683092 194.862385 
L 79.871474 194.18673 
L 79.966703 194.098509 
L 80.294537 193.95247 
L 81.027168 193.785146 
L 81.161526 193.56792 
L 81.954409 193.191838 
L 82.139481 193.155434 
L 82.849562 193.21309 
L 84.219983 192.833375 
L 85.270325 192.606837 
L 86.006979 192.327477 
L 85.880472 192.228387 
L 85.489271 191.921967 
L 85.058842 191.667266 
L 84.771922 191.569182 
L 84.013594 191.571226 
L 83.442642 191.640173 
L 83.157701 191.572718 
L 82.794663 191.250173 
L 81.742537 191.300269 
L 81.073955 191.139305 
L 80.830318 190.944207 
L 81.143714 190.727046 
L 81.300103 190.531299 
L 80.917662 190.278155 
L 80.91883 190.176567 
L 80.61559 189.678878 
L 79.333616 189.323497 
L 78.01884 189.274828 
L 77.510119 189.306949 
L 76.87872 189.518108 
L 76.634531 189.707852 
L 76.56169 189.973325 
L 76.936603 191.035672 
L 76.991697 191.600589 
L 77.434552 192.479519 
L 76.886831 192.596454 
L 76.323666 192.947747 
L 75.626499 193.047746 
L 75.808456 192.552425 
L 75.91689 192.006683 
L 75.98334 190.836518 
L 75.840967 188.504884 
L 75.735712 187.64088 
L 75.505735 186.608837 
L 75.539187 186.309231 
L 75.441719 186.245118 
L 75.314563 185.894377 
L 75.114436 185.012722 
L 74.688615 183.580198 
L 73.801801 181.337012 
L 73.610856 181.083479 
L 73.242399 180.84406 
L 73.117093 180.792828 
L 72.671252 180.761485 
L 72.178852 180.10812 
L 71.954358 179.649106 
L 71.73843 179.355437 
L 71.492944 179.228638 
L 71.10781 179.121859 
L 70.954924 178.731112 
L 70.871895 178.044652 
L 70.545034 177.16092 
L 70.271482 174.791259 
L 69.996264 173.347181 
L 69.921065 172.952609 
L 69.821358 172.890378 
L 69.587974 171.760511 
L 69.40871 171.204516 
L 69.305499 171.064479 
L 69.069033 170.142656 
L 68.622316 169.064411 
L 68.09919 168.231684 
L 67.835955 167.125438 
L 67.674504 166.699097 
L 67.500885 166.445532 
L 66.742266 165.8263 
L 66.166025 165.775263 
L 66.007591 165.685582 
L 65.826412 164.784135 
L 65.580374 164.150335 
L 65.312695 163.968085 
L 65.030642 163.925743 
L 64.832721 163.970908 
L 63.95191 163.502096 
L 63.357272 162.885233 
L 63.331964 162.654671 
L 63.223951 162.553083 
L 62.386553 162.174698 
L 61.693312 162.105977 
L 61.653562 162.086152 
L 61.175019 161.84748 
L 61.024437 161.701343 
L 61.038941 161.555304 
L 60.52837 160.310351 
L 60.316693 160.056007 
L 59.980293 159.787548 
L 59.652815 159.366951 
L 59.704631 158.78448 
L 59.438769 157.703023 
L 59.337116 157.044694 
L 59.23212 156.614752 
L 59.135886 156.430166 
L 58.96337 156.307845 
L 58.87038 155.964664 
L 58.916713 155.386411 
L 59.128001 155.212176 
L 59.176703 155.011303 
L 58.917556 154.484996 
L 58.053292 153.242088 
L 57.729546 153.007925 
L 57.681818 152.910879 
L 57.728151 152.696606 
" clip-path="url(#p839ec11caa)" style="fill: #2b0031"/>
   </g>
   <g id="PathCollection_1">
    <defs>
     <path id="mc064dbd1ba" d="M 0 1.581139 
C 0.419323 1.581139 0.821528 1.41454 1.118034 1.118034 
C 1.41454 0.821528 1.581139 0.419323 1.581139 0 
C 1.581139 -0.419323 1.41454 -0.821528 1.118034 -1.118034 
C 0.821528 -1.41454 0.419323 -1.581139 0 -1.581139 
C -0.419323 -1.581139 -0.821528 -1.41454 -1.118034 -1.118034 
C -1.41454 -0.821528 -1.581139 -0.419323 -1.581139 0 
C -1.581139 0.419323 -1.41454 0.821528 -1.118034 1.118034 
C -0.821528 1.41454 -0.419323 1.581139 0 1.581139 
z
" style="stroke: #000000"/>
    </defs>
    <g clip-path="url(#p839ec11caa)">
     <use xlink:href="#mc064dbd1ba" x="116.998293" y="189.496596" style="stroke: #000000"/>
    </g>
   </g>
   <g id="text_1">
    <!-- Olympia -->
    <g transform="translate(119.998293 186.496596) scale(0.1 -0.1)">
     <defs>
      <path id="DejaVuSans-4f" d="M 2522 4238 
Q 1834 4238 1429 3725 
Q 1025 3213 1025 2328 
Q 1025 1447 1429 934 
Q 1834 422 2522 422 
Q 3209 422 3611 934 
Q 4013 1447 4013 2328 
Q 4013 3213 3611 3725 
Q 3209 4238 2522 4238 
z
M 2522 4750 
Q 3503 4750 4090 4092 
Q 4678 3434 4678 2328 
Q 4678 1225 4090 567 
Q 3503 -91 2522 -91 
Q 1538 -91 948 565 
Q 359 1222 359 2328 
Q 359 3434 948 4092 
Q 1538 4750 2522 4750 
z
" transform="scale(0.015625)"/>
      <path id="DejaVuSans-6c" d="M 603 4863 
L 1178 4863 
L 1178 0 
L 603 0 
L 603 4863 
z
" transform="scale(0.015625)"/>
      <path id="DejaVuSans-79" d="M 2059 -325 
Q 1816 -950 1584 -1140 
Q 1353 -1331 966 -1331 
L 506 -1331 
L 506 -850 
L 844 -850 
Q 1081 -850 1212 -737 
Q 1344 -625 1503 -206 
L 1606 56 
L 191 3500 
L 800 3500 
L 1894 763 
L 2988 3500 
L 3597 3500 
L 2059 -325 
z
" transform="scale(0.015625)"/>
      <path id="DejaVuSans-6d" d="M 3328 2828 
Q 3544 3216 3844 3400 
Q 4144 3584 4550 3584 
Q 5097 3584 5394 3201 
Q 5691 2819 5691 2113 
L 5691 0 
L 5113 0 
L 5113 2094 
Q 5113 2597 4934 2840 
Q 4756 3084 4391 3084 
Q 3944 3084 3684 2787 
Q 3425 2491 3425 1978 
L 3425 0 
L 2847 0 
L 2847 2094 
Q 2847 2600 2669 2842 
Q 2491 3084 2119 3084 
Q 1678 3084 1418 2786 
Q 1159 2488 1159 1978 
L 1159 0 
L 581 0 
L 581 3500 
L 1159 3500 
L 1159 2956 
Q 1356 3278 1631 3431 
Q 1906 3584 2284 3584 
Q 2666 3584 2933 3390 
Q 3200 3197 3328 2828 
z
" transform="scale(0.015625)"/>
      <path id="DejaVuSans-70" d="M 1159 525 
L 1159 -1331 
L 581 -1331 
L 581 3500 
L 1159 3500 
L 1159 2969 
Q 1341 3281 1617 3432 
Q 1894 3584 2278 3584 
Q 2916 3584 3314 3078 
Q 3713 2572 3713 1747 
Q 3713 922 3314 415 
Q 2916 -91 2278 -91 
Q 1894 -91 1617 61 
Q 1341 213 1159 525 
z
M 3116 1747 
Q 3116 2381 2855 2742 
Q 2594 3103 2138 3103 
Q 1681 3103 1420 2742 
Q 1159 2381 1159 1747 
Q 1159 1113 1420 752 
Q 1681 391 2138 391 
Q 2594 391 2855 752 
Q 3116 1113 3116 1747 
z
" transform="scale(0.015625)"/>
      <path id="DejaVuSans-69" d="M 603 3500 
L 1178 3500 
L 1178 0 
L 603 0 
L 603 3500 
z
M 603 4863 
L 1178 4863 
L 1178 4134 
L 603 4134 
L 603 4863 
z
" transform="scale(0.015625)"/>
      <path id="DejaVuSans-61" d="M 2194 1759 
Q 1497 1759 1228 1600 
Q 959 1441 959 1056 
Q 959 750 1161 570 
Q 1363 391 1709 391 
Q 2188 391 2477 730 
Q 2766 1069 2766 1631 
L 2766 1759 
L 2194 1759 
z
M 3341 1997 
L 3341 0 
L 2766 0 
L 2766 531 
Q 2569 213 2275 61 
Q 1981 -91 1556 -91 
Q 1019 -91 701 211 
Q 384 513 384 1019 
Q 384 1609 779 1909 
Q 1175 2209 1959 2209 
L 2766 2209 
L 2766 2266 
Q 2766 2663 2505 2880 
Q 2244 3097 1772 3097 
Q 1472 3097 1187 3025 
Q 903 2953 641 2809 
L 641 3341 
Q 956 3463 1253 3523 
Q 1550 3584 1831 3584 
Q 2591 3584 2966 3190 
Q 3341 2797 3341 1997 
z
" transform="scale(0.015625)"/>
     </defs>
     <use xlink:href="#DejaVuSans-4f"/>
     <use xlink:href="#DejaVuSans-6c" x="78.710938"/>
     <use xlink:href="#DejaVuSans-79" x="106.494141"/>
     <use xlink:href="#DejaVuSans-6d" x="165.673828"/>
     <use xlink:href="#DejaVuSans-70" x="263.085938"/>
     <use xlink:href="#DejaVuSans-69" x="326.5625"/>
     <use xlink:href="#DejaVuSans-61" x="354.345703"/>
    </g>
   </g>
   <g id="text_2">
    <!-- Washington -->
    <g transform="translate(149.240625 114.073951) scale(0.12 -0.12)">
     <defs>
      <path id="DejaVuSans-57" d="M 213 4666 
L 850 4666 
L 1831 722 
L 2809 4666 
L 3519 4666 
L 4500 722 
L 5478 4666 
L 6119 4666 
L 4947 0 
L 4153 0 
L 3169 4050 
L 2175 0 
L 1381 0 
L 213 4666 
z
" transform="scale(0.015625)"/>
      <path id="DejaVuSans-73" d="M 2834 3397 
L 2834 2853 
Q 2591 2978 2328 3040 
Q 2066 3103 1784 3103 
Q 1356 3103 1142 2972 
Q 928 2841 928 2578 
Q 928 2378 1081 2264 
Q 1234 2150 1697 2047 
L 1894 2003 
Q 2506 1872 2764 1633 
Q 3022 1394 3022 966 
Q 3022 478 2636 193 
Q 2250 -91 1575 -91 
Q 1294 -91 989 -36 
Q 684 19 347 128 
L 347 722 
Q 666 556 975 473 
Q 1284 391 1588 391 
Q 1994 391 2212 530 
Q 2431 669 2431 922 
Q 2431 1156 2273 1281 
Q 2116 1406 1581 1522 
L 1381 1569 
Q 847 1681 609 1914 
Q 372 2147 372 2553 
Q 372 3047 722 3315 
Q 1072 3584 1716 3584 
Q 2034 3584 2315 3537 
Q 2597 3491 2834 3397 
z
" transform="scale(0.015625)"/>
      <path id="DejaVuSans-68" d="M 3513 2113 
L 3513 0 
L 2938 0 
L 2938 2094 
Q 2938 2591 2744 2837 
Q 2550 3084 2163 3084 
Q 1697 3084 1428 2787 
Q 1159 2491 1159 1978 
L 1159 0 
L 581 0 
L 581 4863 
L 1159 4863 
L 1159 2956 
Q 1366 3272 1645 3428 
Q 1925 3584 2291 3584 
Q 2894 3584 3203 3211 
Q 3513 2838 3513 2113 
z
" transform="scale(0.015625)"/>
      <path id="DejaVuSans-6e" d="M 3513 2113 
L 3513 0 
L 2938 0 
L 2938 2094 
Q 2938 2591 2744 2837 
Q 2550 3084 2163 3084 
Q 1697 3084 1428 2787 
Q 1159 2491 1159 1978 
L 1159 0 
L 581 0 
L 581 3500 
L 1159 3500 
L 1159 2956 
Q 1366 3272 1645 3428 
Q 1925 3584 2291 3584 
Q 2894 3584 3203 3211 
Q 3513 2838 3513 2113 
z
" transform="scale(0.015625)"/>
      <path id="DejaVuSans-67" d="M 2906 1791 
Q 2906 2416 2648 2759 
Q 2391 3103 1925 3103 
Q 1463 3103 1205 2759 
Q 947 2416 947 1791 
Q 947 1169 1205 825 
Q 1463 481 1925 481 
Q 2391 481 2648 825 
Q 2906 1169 2906 1791 
z
M 3481 434 
Q 3481 -459 3084 -895 
Q 2688 -1331 1869 -1331 
Q 1566 -1331 1297 -1286 
Q 1028 -1241 775 -1147 
L 775 -588 
Q 1028 -725 1275 -790 
Q 1522 -856 1778 -856 
Q 2344 -856 2625 -561 
Q 2906 -266 2906 331 
L 2906 616 
Q 2728 306 2450 153 
Q 2172 0 1784 0 
Q 1141 0 747 490 
Q 353 981 353 1791 
Q 353 2603 747 3093 
Q 1141 3584 1784 3584 
Q 2172 3584 2450 3431 
Q 2728 3278 2906 2969 
L 2906 3500 
L 3481 3500 
L 3481 434 
z
" transform="scale(0.015625)"/>
      <path id="DejaVuSans-74" d="M 1172 4494 
L 1172 3500 
L 2356 3500 
L 2356 3053 
L 1172 3053 
L 1172 1153 
Q 1172 725 1289 603 
Q 1406 481 1766 481 
L 2356 481 
L 2356 0 
L 1766 0 
Q 1100 0 847 248 
Q 594 497 594 1153 
L 594 3053 
L 172 3053 
L 172 3500 
L 594 3500 
L 594 4494 
L 1172 4494 
z
" transform="scale(0.015625)"/>
      <path id="DejaVuSans-6f" d="M 1959 3097 
Q 1497 3097 1228 2736 
Q 959 2375 959 1747 
Q 959 1119 1226 758 
Q 1494 397 1959 397 
Q 2419 397 2687 759 
Q 2956 1122 2956 1747 
Q 2956 2369 2687 2733 
Q 2419 3097 1959 3097 
z
M 1959 3584 
Q 2709 3584 3137 3096 
Q 3566 2609 3566 1747 
Q 3566 888 3137 398 
Q 2709 -91 1959 -91 
Q 1206 -91 779 398 
Q 353 888 353 1747 
Q 353 2609 779 3096 
Q 1206 3584 1959 3584 
z
" transform="scale(0.015625)"/>
     </defs>
     <use xlink:href="#DejaVuSans-57"/>
     <use xlink:href="#DejaVuSans-61" x="92.501953"/>
     <use xlink:href="#DejaVuSans-73" x="153.78125"/>
     <use xlink:href="#DejaVuSans-68" x="205.880859"/>
     <use xlink:href="#DejaVuSans-69" x="269.259766"/>
     <use xlink:href="#DejaVuSans-6e" x="297.042969"/>
     <use xlink:href="#DejaVuSans-67" x="360.421875"/>
     <use xlink:href="#DejaVuSans-74" x="423.898438"/>
     <use xlink:href="#DejaVuSans-6f" x="463.107422"/>
     <use xlink:href="#DejaVuSans-6e" x="524.289062"/>
    </g>
   </g>
  </g>
 </g>
 <defs>
  <clipPath id="p839ec11caa">
   <rect x="45" y="120.073951" width="279" height="123.452098"/>
  </clipPath>
 </defs>
</svg>
