<?xml version="1.0" encoding="utf-8" standalone="no"?>
<!DOCTYPE svg PUBLIC "-//W3C//DTD SVG 1.1//EN"
  "http://www.w3.org/Graphics/SVG/1.1/DTD/svg11.dtd">
<svg xmlns:xlink="http://www.w3.org/1999/xlink" width="360pt" height="360pt" viewBox="0 0 360 360" xmlns="http://www.w3.org/2000/svg" version="1.1">
 <metadata>
  <rdf:RDF xmlns:dc="http://purl.org/dc/elements/1.1/" xmlns:cc="http://creativecommons.org/ns#" xmlns:rdf="http://www.w3.org/1999/02/22-rdf-syntax-ns#">
   <cc:Work>
    <dc:type rdf:resource="http://purl.org/dc/dcmitype/StillImage"/>
    <dc:date>2023-06-19T15:20:26.662883</dc:date>
    <dc:format>image/svg+xml</dc:format>
    <dc:creator>
     <cc:Agent>
      <dc:title>Matplotlib v3.7.1, https://matplotlib.org/</dc:title>
     </cc:Agent>
    </dc:creator>
   </cc:Work>
  </rdf:RDF>
 </metadata>
 <defs>
  <style type="text/css">*{stroke-linejoin: round; stroke-linecap: butt}</style>
 </defs>
 <g id="figure_1">
  <g id="patch_1">
   <path d="M 0 360 
L 360 360 
L 360 0 
L 0 0 
z
" style="fill: #ffffff"/>
  </g>
  <g id="axes_1">
   <g id="PatchCollection_1">
    <path d="M 57.771527 220.453073 
L 57.974581 220.373046 
L 58.674792 220.405129 
L 58.985219 220.480521 
L 59.291217 220.417952 
L 59.401628 220.350696 
L 59.766899 219.52205 
L 60.020473 219.028087 
L 60.044265 218.833632 
L 60.066254 217.989795 
L 59.967585 217.909665 
L 59.689653 217.796628 
L 59.52517 217.66706 
L 59.451889 217.5068 
L 59.341015 217.106098 
L 59.354404 217.027101 
L 59.618535 216.517894 
L 59.711127 216.449505 
L 59.747588 216.449505 
L 59.767929 216.449505 
L 60.244796 216.544776 
L 60.703587 216.536382 
L 60.809671 216.497501 
L 60.923223 216.383125 
L 61.105627 216.062965 
L 61.290915 215.596192 
L 61.293799 215.037548 
L 61.184625 214.893767 
L 61.078437 214.675727 
L 61.042492 214.511913 
L 61.028948 214.161833 
L 60.870335 213.968615 
L 60.858337 213.899042 
L 60.940527 213.712827 
L 61.100581 213.45467 
L 61.381705 213.118752 
L 61.429546 213.035069 
L 61.434027 212.923062 
L 61.392108 212.767539 
L 61.223414 212.391048 
L 61.173501 212.279652 
L 60.739532 211.981534 
L 60.606256 211.748199 
L 60.514951 211.662198 
L 60.36978 211.590359 
L 60.164717 211.529128 
L 60.08984 211.423044 
L 60.079025 210.754812 
L 60.113271 210.396493 
L 60.158074 210.268007 
L 60.29722 210.035805 
L 60.345834 209.86921 
L 60.248144 209.555238 
L 60.223579 209.476285 
L 60.224248 209.47577 
L 60.023202 209.165961 
L 59.999307 209.081917 
L 60.02485 208.937724 
L 60.099006 208.835553 
L 60.243199 208.517505 
L 60.138556 208.074266 
L 60.134437 207.922658 
L 60.177283 207.67547 
L 60.311588 207.462888 
L 60.59091 207.788352 
L 61.016949 208.064327 
L 61.161142 208.134364 
L 61.563234 208.263725 
L 62.011468 208.3626 
L 62.378619 208.400988 
L 62.570988 208.421102 
L 63.065364 208.397207 
L 63.612267 208.319137 
L 63.625136 208.315846 
L 64.740113 208.030751 
L 65.826761 207.654819 
L 67.212094 207.314936 
L 67.860962 207.196492 
L 68.430381 207.057511 
L 68.515032 207.03685 
L 70.033847 206.559726 
L 70.813312 206.816801 
L 71.223902 206.79476 
L 72.337689 206.5984 
L 73.342147 206.477278 
L 73.872828 206.294359 
L 74.199116 206.048819 
L 74.502333 205.605529 
L 74.717387 205.079843 
L 74.790719 204.666215 
L 74.887123 204.302849 
L 75.107944 203.915588 
L 75.21753 203.626378 
L 75.276855 203.210485 
L 75.230508 202.52562 
L 75.287155 202.242384 
L 75.421048 201.923099 
L 75.549792 201.722259 
L 75.657937 201.454472 
L 75.781531 200.331828 
L 75.750632 199.693259 
L 75.771231 199.554216 
L 75.884526 199.368825 
L 76.099243 199.183169 
L 76.760034 198.611812 
L 76.904227 198.524266 
L 77.388303 198.380074 
L 77.88273 198.349175 
L 78.217464 198.364624 
L 79.443155 198.730205 
L 79.607998 198.714807 
L 80.318458 198.712953 
L 80.902799 198.642041 
L 81.163222 198.544814 
L 81.513405 198.318225 
L 81.755443 198.091636 
L 81.863588 197.849598 
L 82.023281 197.293425 
L 82.023281 196.948392 
L 81.992331 196.757852 
L 81.909935 196.577662 
L 81.781192 196.083286 
L 81.662748 195.769152 
L 81.328014 195.218129 
L 81.302265 194.847347 
L 81.219869 194.543512 
L 81.055077 194.146982 
L 81.091126 193.786551 
L 81.353763 193.178881 
L 81.467057 192.854447 
L 81.487656 192.684505 
L 81.379511 192.318873 
L 81.276465 191.97899 
L 81.188919 191.381619 
L 81.116823 191.211677 
L 80.931432 191.015987 
L 80.811031 190.436177 
L 80.642325 190.164064 
L 80.505599 190.027751 
L 80.217008 189.843853 
L 79.729172 189.616904 
L 79.531679 189.339384 
L 79.476628 189.026743 
L 79.474157 188.646846 
L 79.695441 188.209478 
L 79.838347 188.054419 
L 80.10634 187.849408 
L 80.621829 187.539599 
L 81.039371 187.207492 
L 81.641582 187.092189 
L 82.340918 186.83156 
L 82.563799 186.718523 
L 83.279768 186.082633 
L 83.423961 185.902391 
L 83.591379 185.340348 
L 83.714561 184.638643 
L 83.675217 184.364419 
L 83.619434 184.192002 
L 83.563004 184.017584 
L 83.403362 183.688052 
L 83.43941 183.265772 
L 83.511507 182.936189 
L 83.944137 182.549958 
L 84.247972 182.323369 
L 84.654802 181.751747 
L 85.133728 181.159526 
L 85.190427 181.020483 
L 85.174926 180.757846 
L 85.267673 180.490059 
L 85.705402 179.969986 
L 85.792516 179.833965 
L 85.998937 179.511658 
L 86.086483 179.181972 
L 86.168879 179.037882 
L 86.297623 178.924587 
L 86.7972 178.66195 
L 87.337923 178.46626 
L 87.858048 178.198473 
L 88.228881 177.977034 
L 88.352475 177.827691 
L 88.532716 177.492958 
L 88.743855 176.766843 
L 88.888048 176.519656 
L 89.032241 176.375463 
L 89.480321 176.22612 
L 89.979846 176.138574 
L 90.52057 176.164323 
L 90.767809 176.251869 
L 91.143741 176.529955 
L 91.329131 176.741095 
L 91.550571 177.070678 
L 91.720512 177.405412 
L 91.77201 177.585653 
L 91.809551 177.909109 
L 91.85456 177.978424 
L 91.946586 178.038058 
L 92.045255 178.064528 
L 92.229822 178.078226 
L 92.54406 178.050315 
L 92.901298 177.982338 
L 92.982252 177.933313 
L 93.384601 177.891857 
L 93.879904 178.032806 
L 94.137443 178.18117 
L 94.324997 178.323045 
L 94.666167 178.845796 
L 95.096017 179.407788 
L 95.393209 180.038735 
L 95.694108 180.506384 
L 96.003351 180.897301 
L 96.112783 181.312782 
L 96.036412 181.528969 
L 95.987129 181.583917 
L 95.604451 181.941052 
L 95.419318 182.035755 
L 95.119551 182.291183 
L 95.050493 182.393611 
L 94.660503 182.769749 
L 94.573935 183.075644 
L 94.592063 183.172408 
L 94.645259 183.269738 
L 95.215285 183.647317 
L 95.50295 183.903569 
L 95.588796 183.946517 
L 96.109126 184.146225 
L 96.402868 184.182942 
L 96.588465 184.161828 
L 97.328793 183.806753 
L 98.149456 183.342452 
L 98.301374 183.211443 
L 98.678232 182.764805 
L 98.850285 182.317756 
L 98.81125 182.157907 
L 98.892822 181.356916 
L 99.223384 180.924904 
L 99.560744 180.586977 
L 99.775077 180.473631 
L 99.894963 180.437325 
L 100.16965 180.416057 
L 100.450672 180.459727 
L 100.867699 180.668601 
L 101.370365 181.163697 
L 101.525064 181.281832 
L 101.922882 181.488389 
L 102.149419 181.559919 
L 102.517214 181.654623 
L 102.741022 181.666725 
L 102.922963 181.655601 
L 103.106706 181.595092 
L 103.243895 181.507185 
L 103.320575 181.39832 
L 103.442881 181.109779 
L 103.399417 180.924028 
L 102.743957 180.328975 
L 102.524733 180.177675 
L 102.273167 179.958965 
L 102.175786 179.800199 
L 102.132382 179.561557 
L 102.119963 179.493274 
L 102.219713 179.089637 
L 102.433376 178.679511 
L 102.39568 178.611998 
L 102.382445 178.452665 
L 102.4428 178.19698 
L 102.51948 178.012876 
L 102.626955 177.84999 
L 102.873473 177.681593 
L 102.978271 177.554703 
L 103.024619 177.348713 
L 103.024619 176.900685 
L 102.870126 176.658647 
L 102.581689 176.339363 
L 101.876174 175.803789 
L 101.528566 175.609438 
L 101.165457 175.371262 
L 101.010965 175.232219 
L 100.722579 174.845988 
L 100.583536 174.619399 
L 100.49599 174.294965 
L 100.454792 173.903584 
L 100.470241 173.604899 
L 100.547487 173.460706 
L 100.635033 173.398909 
L 100.779226 173.362861 
L 101.026414 173.36801 
L 101.278751 173.419508 
L 101.659884 173.57915 
L 101.927671 173.640947 
L 102.138811 173.666696 
L 102.442646 173.651247 
L 102.993669 173.465856 
L 103.20486 173.357711 
L 103.637438 173.059026 
L 103.900076 172.77579 
L 103.900091 172.775766 
L 103.992771 172.636746 
L 104.075167 172.415307 
L 104.121515 172.199018 
L 104.162713 171.673795 
L 104.038346 171.156812 
L 104.024442 170.946599 
L 104.040561 170.538173 
L 104.089998 170.378325 
L 104.035617 170.044621 
L 103.539542 168.856935 
L 103.436547 168.55825 
L 103.459151 168.390976 
L 103.462296 168.367709 
L 103.616788 168.177169 
L 103.766182 168.083804 
L 104.194641 167.923801 
L 104.423702 167.705452 
L 104.489619 167.58021 
L 104.615684 167.085834 
L 104.791188 166.776025 
L 104.944444 166.612057 
L 105.016001 166.572547 
L 105.07875 166.537901 
L 105.351044 166.479752 
L 105.734673 166.397828 
L 106.286726 166.314608 
L 106.611417 166.146572 
L 106.725124 166.026274 
L 106.779505 165.948822 
L 106.793512 165.835939 
L 106.735011 165.529426 
L 106.553689 165.180891 
L 106.506723 165.012804 
L 106.488596 164.877674 
L 106.519906 164.450863 
L 106.742375 164.131991 
L 106.875084 163.986974 
L 107.176653 163.734842 
L 107.449384 163.589826 
L 107.868779 163.476119 
L 108.592267 163.404435 
L 109.259675 163.412674 
L 110.386079 163.595593 
L 110.767623 163.508254 
L 111.050242 163.471999 
L 111.310613 163.498366 
L 111.73248 163.608777 
L 112.071179 163.794167 
L 112.226907 163.847725 
L 113.015437 163.90293 
L 113.164779 163.748438 
L 113.272924 163.465202 
L 113.283223 162.553748 
L 113.535561 161.317809 
L 113.56131 160.653491 
L 113.669454 160.241512 
L 114.452267 159.515397 
L 114.857861 159.239371 
L 115.381127 159.065515 
L 115.938124 158.785369 
L 116.468754 158.466497 
L 117.197185 157.908676 
L 117.513586 157.62029 
L 118.013729 157.079773 
L 118.294082 156.894176 
L 118.891504 156.61094 
L 119.385879 156.554293 
L 119.947253 156.652138 
L 120.307736 156.81178 
L 120.723011 157.069062 
L 120.879322 157.183436 
L 121.128399 157.365687 
L 121.43826 157.701862 
L 121.640078 158.277398 
L 121.744412 158.673568 
L 121.994741 159.377436 
L 122.102319 159.575546 
L 122.23338 159.724477 
L 122.578053 160.000761 
L 122.829464 160.071209 
L 123.020674 160.090985 
L 123.262212 160.072207 
L 124.001701 160.014717 
L 124.482893 159.881235 
L 124.737496 159.764233 
L 125.099215 159.519517 
L 125.584578 159.241843 
L 125.923226 159.081995 
L 126.685388 158.605746 
L 127.060341 158.407996 
L 127.890068 158.156688 
L 128.185046 157.923508 
L 128.440525 157.813921 
L 129.003289 157.773547 
L 129.554312 157.603914 
L 129.927566 157.589289 
L 130.867858 157.806299 
L 130.981616 157.800635 
L 131.190541 157.727611 
L 131.409457 157.56972 
L 131.482068 157.450194 
L 131.522442 157.237252 
L 131.493449 156.983936 
L 131.524348 156.905042 
L 131.658344 156.720475 
L 131.813249 156.533076 
L 132.061003 156.300462 
L 132.560425 155.875144 
L 132.805965 155.505959 
L 132.993365 155.361663 
L 133.115568 155.279885 
L 133.594495 155.071114 
L 133.960848 154.967553 
L 134.526599 154.865124 
L 135.268162 154.834226 
L 135.458703 154.767279 
L 135.556548 154.705482 
L 135.762589 154.54584 
L 135.95828 154.33985 
L 136.126206 154.1142 
L 136.452656 153.675533 
L 136.488704 153.675533 
L 137.189069 152.599236 
L 137.673146 152.094561 
L 138.470481 151.441315 
L 138.746301 151.115285 
L 139.272348 150.767522 
L 139.704772 150.42939 
L 139.809158 150.296372 
L 140.069374 150.069423 
L 140.388452 149.876434 
L 140.828086 149.610529 
L 141.008688 149.438733 
L 141.150924 149.244794 
L 141.348932 149.085306 
L 141.935746 148.704843 
L 142.5463 148.379276 
L 142.706405 148.269432 
L 143.013485 147.959983 
L 143.480464 147.637867 
L 143.904185 147.297468 
L 145.276798 146.432362 
L 145.630895 146.139342 
L 145.817007 146.026253 
L 146.200714 145.893184 
L 146.624075 145.825877 
L 147.209756 145.839884 
L 147.710981 145.926091 
L 147.932729 145.926142 
L 148.542871 145.722727 
L 148.767297 145.394276 
L 149.023857 144.782538 
L 149.052026 144.638294 
L 149.03668 144.580565 
L 149.086581 144.374009 
L 149.249056 144.079443 
L 149.304261 143.557516 
L 149.247871 142.747152 
L 149.26538 142.506144 
L 149.292416 142.335327 
L 149.400922 142.06548 
L 149.502887 141.967583 
L 149.869497 141.769421 
L 150.003339 141.713443 
L 150.378189 141.668126 
L 150.667038 141.58609 
L 150.93637 141.4592 
L 151.039932 141.348069 
L 151.148437 141.029608 
L 151.150548 140.916211 
L 151.056411 140.636374 
L 150.957959 140.567504 
L 150.9013 140.527869 
L 150.796555 140.40721 
L 150.307638 139.692065 
L 149.965334 139.525831 
L 149.86342 139.445907 
L 149.316414 138.896995 
L 149.200185 138.697957 
L 149.079835 138.366365 
L 149.123144 138.221709 
L 149.265432 137.944961 
L 149.434395 137.766832 
L 150.86278 136.968981 
L 151.338205 136.56246 
L 151.395367 136.433305 
L 151.538942 135.886608 
L 151.523544 135.203597 
L 151.495221 135.074184 
L 151.330532 134.645828 
L 151.29263 134.344361 
L 151.335888 134.211395 
L 151.431055 134.060971 
L 151.585393 133.915594 
L 151.835104 133.758526 
L 152.68646 133.455721 
L 153.034944 133.206525 
L 153.156993 133.02479 
L 153.188148 132.768745 
L 152.990759 132.226219 
L 152.878855 132.084962 
L 152.560755 131.771857 
L 152.363005 131.478527 
L 152.217164 131.173662 
L 152.182557 131.02535 
L 152.203156 130.808648 
L 152.2889 130.570524 
L 152.371296 130.457642 
L 152.506425 130.373598 
L 152.653914 130.338991 
L 152.901926 130.325808 
L 153.56444 130.455994 
L 154.090127 130.757563 
L 154.315119 130.843255 
L 154.607625 130.881157 
L 154.707324 130.881157 
L 154.77736 130.852318 
L 154.828446 130.802881 
L 154.924849 130.622433 
L 154.950392 130.487304 
L 154.906722 130.279666 
L 154.673541 129.84132 
L 154.508801 128.939908 
L 154.510449 128.752045 
L 154.567302 128.583958 
L 154.816962 128.289032 
L 154.991641 128.169557 
L 155.448166 127.928961 
L 155.608015 127.780649 
L 155.764567 127.694133 
L 155.837127 126.956689 
L 155.768738 126.502687 
L 155.715181 126.351903 
L 155.665743 125.899549 
L 155.673159 125.781723 
L 155.744843 125.405997 
L 155.884092 125.120907 
L 155.907987 125.007201 
L 155.905515 124.769077 
L 155.961596 124.648779 
L 156.115883 124.476622 
L 156.117768 124.472223 
L 156.208578 124.260333 
L 156.214123 124.175315 
L 156.239477 123.786556 
L 156.239477 123.657813 
L 156.126182 123.163437 
L 156.064385 123.117089 
L 155.920192 122.844153 
L 155.848096 122.509419 
L 155.842946 122.29313 
L 155.935641 122.066541 
L 156.249776 121.736957 
L 157.161333 121.201383 
L 157.305526 121.06234 
L 157.362224 120.964495 
L 157.434321 120.763655 
L 157.485818 120.480419 
L 157.470369 120.356825 
L 157.413516 120.151659 
L 157.377262 120.108813 
L 157.28745 119.738907 
L 157.313817 119.06738 
L 157.45389 118.722965 
L 157.522278 118.383493 
L 157.593963 118.217054 
L 157.680365 118.091725 
L 158.544864 116.837745 
L 158.670106 116.70344 
L 158.757497 116.637523 
L 158.767581 116.633855 
L 158.881503 116.592411 
L 159.241985 116.283427 
L 159.473724 115.907495 
L 159.56647 115.567612 
L 159.669465 114.903346 
L 159.811392 114.356031 
L 160.297786 113.574711 
L 160.684017 113.250277 
L 161.065098 113.054587 
L 161.070248 113.095785 
L 161.822163 112.709554 
L 161.986955 112.534462 
L 162.146648 112.16883 
L 162.11575 111.499415 
L 162.213595 111.154382 
L 162.641024 110.541562 
L 162.831616 110.37677 
L 162.986108 109.830897 
L 162.95521 109.650656 
L 162.831616 109.305623 
L 162.424735 108.636207 
L 162.323307 108.291352 
L 162.32174 108.286024 
L 162.373237 107.899793 
L 162.532931 107.54961 
L 162.589578 107.15823 
L 162.481433 106.880143 
L 162.239344 106.684453 
L 161.992156 106.529961 
L 161.397669 106.36867 
L 161.353587 106.33942 
L 161.250592 106.081984 
L 161.322689 105.917192 
L 161.451259 105.848203 
L 161.533828 105.803898 
L 162.198197 105.597908 
L 162.35269 105.453715 
L 162.373289 105.391918 
L 162.326941 105.196228 
L 162.34754 104.634905 
L 162.311492 104.078733 
L 162.34754 103.795496 
L 162.404187 103.646154 
L 162.728621 103.187826 
L 162.75437 103.028184 
L 163.068556 102.585357 
L 163.18185 102.32787 
L 163.248797 101.91589 
L 163.212749 101.71505 
L 163.022208 101.339119 
L 162.854532 101.253633 
L 162.514237 100.981726 
L 162.053592 100.335794 
L 161.90528 99.810107 
L 161.837715 99.385768 
L 161.56416 98.598063 
L 161.410904 98.488476 
L 161.275774 98.448102 
L 160.849736 97.947959 
L 160.28038 97.220454 
L 160.132067 97.084501 
L 159.751398 96.827425 
L 159.534645 96.647802 
L 159.490151 96.419565 
L 159.481088 96.192977 
L 159.58743 95.923542 
L 159.758814 95.724144 
L 160.138659 95.46954 
L 160.20128 95.472836 
L 160.317458 95.407743 
L 160.66522 95.103702 
L 160.952782 94.710673 
L 161.211506 94.462713 
L 161.581463 94.264911 
L 162.156639 94.174276 
L 162.781097 94.000832 
L 163.044352 93.990584 
L 163.286339 94.072929 
L 163.390158 94.133078 
L 163.82356 94.492324 
L 164.018066 94.554945 
L 164.178738 94.559065 
L 164.425926 94.49562 
L 164.63686 94.387681 
L 165.003522 94.072105 
L 165.497588 93.806017 
L 165.767126 93.761987 
L 166.094187 93.637363 
L 166.444575 93.45877 
L 166.580735 93.424524 
L 166.809023 93.434154 
L 167.001778 93.386571 
L 167.15246 93.293412 
L 167.149988 94.44747 
L 167.147567 94.447779 
L 167.147567 95.798249 
L 167.149164 95.797631 
L 167.14912 97.371393 
L 167.149061 99.518374 
L 167.149215 99.518374 
L 167.152236 101.607045 
L 167.152511 101.797395 
L 167.219458 102.374166 
L 167.204146 105.609393 
L 167.203957 105.649354 
L 167.203957 107.240626 
L 167.149988 108.572711 
L 167.149929 109.156274 
L 167.149112 117.292777 
L 167.149112 117.294167 
L 167.14664 117.967342 
L 167.152443 121.254817 
L 167.154056 122.16866 
L 167.151584 122.22469 
L 167.145816 125.344973 
L 167.141336 128.075832 
L 167.14077 128.125115 
L 167.140827 128.136683 
L 167.141542 128.281152 
L 167.142984 128.422565 
L 167.146074 129.32171 
L 167.139225 129.436086 
L 167.157609 131.805124 
L 167.130213 136.171234 
L 167.131488 137.506447 
L 167.134384 140.537087 
L 172.178767 140.548107 
L 177.94293 140.544245 
L 177.984437 140.543266 
L 181.45248 140.542268 
L 189.968104 140.539816 
L 198.196186 140.563339 
L 201.442564 140.57262 
L 201.454254 140.57262 
L 203.761109 140.570989 
L 206.044224 140.569376 
L 213.931112 140.545223 
L 214.054706 140.549909 
L 217.132092 140.569273 
L 220.829765 140.553823 
L 220.834297 144.512537 
L 220.814007 144.575364 
L 220.773015 144.611618 
L 220.766596 145.255797 
L 220.716264 150.306877 
L 220.536023 150.306877 
L 220.536641 150.66772 
L 220.521501 150.838589 
L 220.432719 159.956937 
L 220.345174 159.956937 
L 220.307066 162.425365 
L 220.263859 163.271674 
L 220.310928 163.363546 
L 220.283274 164.030129 
L 220.339663 164.042231 
L 220.35537 164.045578 
L 220.303924 167.081045 
L 220.861951 167.196039 
L 221.216305 167.01209 
L 222.06452 166.784523 
L 222.72652 166.508754 
L 223.520456 165.937286 
L 223.487189 165.653278 
L 223.72969 165.3858 
L 224.157068 165.300005 
L 225.445946 164.012877 
L 226.005672 163.620776 
L 226.768401 163.529625 
L 227.159422 163.36921 
L 227.67177 162.954295 
L 227.680834 162.90012 
L 227.579178 162.766999 
L 227.643807 162.571257 
L 228.259923 162.242446 
L 229.166896 162.012664 
L 229.8084 162.261242 
L 230.302827 162.303728 
L 230.430232 162.273138 
L 230.765635 161.741839 
L 230.85246 161.051361 
L 231.354905 160.74669 
L 231.505036 160.655654 
L 232.229039 160.390854 
L 232.301908 160.321436 
L 232.300002 159.453034 
L 232.385385 159.320273 
L 233.229531 159.21594 
L 233.571011 158.959843 
L 234.028824 158.985849 
L 234.358201 158.87446 
L 234.925601 158.228064 
L 235.183397 157.802694 
L 235.306682 157.717312 
L 235.420543 157.707836 
L 235.619683 157.783743 
L 236.141353 157.688885 
L 236.262784 157.493813 
L 236.385193 157.461575 
L 236.596642 157.499168 
L 236.765245 157.435827 
L 236.849031 157.236119 
L 236.802477 157.042798 
L 237.06805 156.475965 
L 237.177585 156.417979 
L 237.280631 156.417979 
L 237.467464 156.469528 
L 237.570511 156.636998 
L 237.673608 156.688547 
L 237.783092 156.688547 
L 237.88619 156.688547 
L 237.969925 156.649924 
L 238.027911 156.546826 
L 238.066586 156.353556 
L 238.131009 156.231146 
L 238.337153 156.179649 
L 238.569046 156.147411 
L 238.691456 156.063676 
L 238.736516 155.889718 
L 238.712673 155.71679 
L 238.731058 155.567189 
L 238.989111 155.378606 
L 239.116619 155.400132 
L 239.226154 155.38082 
L 239.303452 155.316397 
L 239.354949 155.245536 
L 239.373385 155.128637 
L 239.383942 155.003807 
L 239.502335 154.857606 
L 239.818375 154.732621 
L 240.00974 154.598213 
L 240.462351 153.867464 
L 240.424964 153.71328 
L 240.31754 153.563783 
L 240.275467 153.470367 
L 240.284839 153.409651 
L 240.326861 153.376951 
L 240.40627 153.339563 
L 240.499738 153.316183 
L 240.673439 153.35975 
L 241.088457 153.41269 
L 241.842535 153.251194 
L 242.46277 153.431486 
L 242.544857 153.324269 
L 242.573659 153.142524 
L 242.601968 152.963889 
L 242.675764 152.849513 
L 242.774587 152.79884 
L 242.993555 152.772988 
L 243.475622 153.133779 
L 243.542157 153.311497 
L 243.537574 153.415162 
L 243.631711 153.599008 
L 243.814064 153.720439 
L 243.926534 153.738102 
L 244.31879 153.638094 
L 244.493624 153.639382 
L 244.856681 153.94471 
L 245.533719 154.258175 
L 246.467059 154.581734 
L 246.915499 154.857297 
L 247.052328 155.038722 
L 247.154138 155.108192 
L 247.541667 155.027918 
L 247.603865 155.015033 
L 247.669164 154.911369 
L 247.779884 153.810971 
L 248.126462 153.682485 
L 248.365101 153.485816 
L 248.524743 153.272565 
L 248.509551 153.212468 
L 248.387914 153.129969 
L 248.331679 152.988608 
L 248.348416 152.917902 
L 248.53082 152.776542 
L 248.795414 152.650476 
L 249.136018 152.608093 
L 249.592131 152.667058 
L 249.677308 152.631731 
L 250.077392 152.108774 
L 250.768076 151.316434 
L 250.97973 150.965479 
L 251.247569 150.775916 
L 251.603519 150.846777 
L 251.720625 150.844459 
L 251.827018 150.774371 
L 252.124571 150.323511 
L 252.127558 150.265782 
L 253.00183 149.26874 
L 253.04895 149.155651 
L 253.039681 148.852846 
L 253.613365 148.518156 
L 253.690763 148.473001 
L 254.115875 148.573164 
L 254.316251 148.715606 
L 254.573893 148.81721 
L 254.812842 148.76185 
L 254.980311 148.451372 
L 254.897812 148.264385 
L 254.64084 148.010193 
L 254.318672 147.956327 
L 254.336747 147.364312 
L 254.399626 147.29201 
L 254.702894 147.284954 
L 255.047104 146.906603 
L 255.050245 146.761225 
L 255.194798 146.37381 
L 255.583862 146.438233 
L 255.653795 146.519599 
L 255.78738 146.536851 
L 255.889499 146.43195 
L 255.914681 146.237496 
L 255.883989 146.057512 
L 255.586488 145.373471 
L 255.885173 144.868848 
L 255.95438 144.855006 
L 256.142661 144.81735 
L 256.951171 144.436269 
L 257.435299 144.292076 
L 257.476497 144.41567 
L 257.461047 144.523815 
L 257.316855 144.765853 
L 257.162362 144.8122 
L 257.085116 144.889447 
L 256.784525 145.532238 
L 256.784525 145.622616 
L 256.834014 145.670921 
L 257.243471 145.788386 
L 257.572745 145.815886 
L 257.906707 145.606085 
L 258.328316 145.436607 
L 258.617681 145.497065 
L 258.96225 145.671127 
L 259.097997 145.989124 
L 259.087389 146.071623 
L 258.814916 146.289663 
L 258.402267 146.496013 
L 258.291084 146.452446 
L 258.284492 146.347598 
L 258.173051 146.276788 
L 257.71045 146.274883 
L 257.318142 146.3408 
L 256.867797 146.581654 
L 256.804146 146.681044 
L 256.801828 146.718791 
L 257.000609 146.926635 
L 257.111483 146.969429 
L 257.194754 147.04683 
L 257.299294 147.222488 
L 257.307894 147.335216 
L 257.350328 147.433422 
L 257.72595 147.708058 
L 257.903565 147.78345 
L 258.435328 147.842466 
L 258.595125 147.782317 
L 258.753325 147.527765 
L 258.843136 147.493571 
L 259.07606 147.478173 
L 259.118802 147.628958 
L 259.178385 148.057725 
L 259.469346 148.458221 
L 259.53794 148.644333 
L 259.559538 148.647322 
L 260.064553 148.717202 
L 260.139173 148.74429 
L 260.379718 149.013982 
L 260.460363 149.062287 
L 261.102639 149.196489 
L 261.195438 149.262457 
L 261.238078 149.323739 
L 261.26393 149.485132 
L 261.368933 149.581742 
L 261.731063 149.68072 
L 262.080937 149.859776 
L 262.435445 149.870436 
L 262.680316 150.044807 
L 263.018831 150.132882 
L 263.092605 150.152076 
L 264.387354 150.027761 
L 264.495396 149.988932 
L 264.504562 149.920595 
L 264.789292 149.904013 
L 265.227587 150.002733 
L 265.621697 150.132146 
L 265.673452 150.172212 
L 265.949324 150.217014 
L 266.096195 150.133794 
L 266.202073 150.111496 
L 266.291267 150.128233 
L 266.33025 150.167216 
L 266.380873 150.300337 
L 266.456934 150.383969 
L 266.628048 150.48793 
L 266.641038 150.495822 
L 267.059352 150.564056 
L 267.381932 150.786679 
L 267.626802 150.913878 
L 267.679645 150.925931 
L 267.730209 150.937464 
L 268.18349 150.830246 
L 268.408585 150.837353 
L 268.543921 150.87268 
L 268.726428 150.857437 
L 269.689327 150.669162 
L 270.023958 150.662158 
L 270.423887 150.77777 
L 270.960594 150.97825 
L 271.176008 150.96517 
L 271.653647 151.022692 
L 271.861954 150.940142 
L 271.947079 150.93422 
L 272.120471 150.962389 
L 272.455153 151.102462 
L 272.610264 151.109517 
L 272.740398 151.07419 
L 273.035993 150.865573 
L 273.13631 150.600516 
L 273.130131 150.429699 
L 273.086873 150.240858 
L 273.118801 150.152951 
L 273.222672 150.089043 
L 273.646187 150.049081 
L 273.726059 149.977139 
L 273.718077 149.897267 
L 273.702113 149.825325 
L 273.726059 149.761416 
L 273.845946 149.70549 
L 273.941834 149.70549 
L 274.114247 149.815901 
L 274.299844 149.943099 
L 274.401758 149.914827 
L 274.467211 149.793499 
L 274.485132 149.67351 
L 274.485132 149.529729 
L 274.533076 149.417825 
L 274.708889 149.393879 
L 274.887121 149.539102 
L 275.036464 149.553675 
L 275.188279 149.529729 
L 275.276185 149.497749 
L 275.308165 149.417825 
L 275.244205 149.274044 
L 275.075911 149.038495 
L 274.908544 148.892448 
L 274.309011 148.667455 
L 273.689599 148.288177 
L 273.474906 148.11154 
L 273.270873 147.797045 
L 273.285602 147.549085 
L 273.330147 147.438983 
L 273.46713 147.357669 
L 273.639183 147.294069 
L 273.907125 147.241027 
L 274.051729 147.244529 
L 274.820535 147.473075 
L 275.091463 147.60738 
L 275.242145 147.731129 
L 275.313675 147.761769 
L 275.861557 147.89144 
L 276.226931 147.807963 
L 276.406657 147.71846 
L 276.516295 147.601921 
L 276.508777 147.439344 
L 276.40537 147.292061 
L 276.135987 147.118824 
L 275.61236 146.876013 
L 275.212019 146.625117 
L 274.957776 146.397705 
L 274.651726 146.043144 
L 274.575613 145.938296 
L 274.543633 145.848742 
L 274.560421 145.729782 
L 274.717334 145.589658 
L 274.941245 145.524874 
L 275.216911 145.552013 
L 275.612875 145.702901 
L 276.48998 145.96116 
L 276.750248 146.165039 
L 277.120155 146.330088 
L 277.398756 146.367888 
L 277.576371 146.344353 
L 277.655265 146.298263 
L 277.70393 146.212262 
L 277.696257 146.155769 
L 277.350503 145.855539 
L 277.152701 145.643421 
L 277.126849 145.588061 
L 277.12757 145.496911 
L 277.177008 145.335981 
L 277.279127 145.27712 
L 277.657016 145.220472 
L 277.925163 145.299264 
L 278.015129 145.371102 
L 278.20706 145.447576 
L 278.420363 145.471677 
L 278.552866 145.436813 
L 278.650299 145.361421 
L 278.671567 145.300139 
L 278.660856 145.203581 
L 278.56332 145.065774 
L 278.400176 144.95629 
L 278.360471 144.827959 
L 278.424431 144.746644 
L 278.581292 144.699473 
L 278.751903 144.704107 
L 279.680132 144.910101 
L 279.780359 144.932344 
L 280.753713 145.192561 
L 281.005072 145.2644 
L 282.298328 145.734881 
L 282.912023 145.777521 
L 283.132896 145.819954 
L 283.222759 145.796472 
L 283.31118 145.672826 
L 283.312571 145.428625 
L 283.37205 145.220215 
L 283.789798 144.724552 
L 284.168562 144.48411 
L 284.614684 144.106994 
L 285.149331 143.864184 
L 285.283327 143.756966 
L 285.359441 143.642693 
L 285.345691 143.564932 
L 284.874592 143.159956 
L 284.868103 143.036156 
L 284.94916 142.958549 
L 285.167046 142.868995 
L 286.226349 142.875741 
L 286.422966 142.841598 
L 286.518958 142.779132 
L 286.744517 142.562431 
L 286.963999 142.199682 
L 287.032593 142.140769 
L 287.462494 141.89111 
L 287.77838 141.846976 
L 288.049462 141.865258 
L 288.525042 141.966656 
L 288.935064 142.126916 
L 289.485366 142.133045 
L 289.910581 142.24155 
L 290.040097 142.309938 
L 290.491575 142.378173 
L 291.115158 142.535703 
L 291.320942 142.559186 
L 291.634922 142.654508 
L 291.872789 142.76394 
L 292.247845 143.098313 
L 292.311856 143.121848 
L 292.637938 143.124165 
L 292.881779 143.241888 
L 293.032667 143.354874 
L 293.32141 143.612563 
L 293.357307 143.644598 
L 294.199754 144.306495 
L 294.301822 144.453675 
L 294.419133 144.569132 
L 294.521491 144.627048 
L 294.872929 144.825899 
L 295.020623 144.949544 
L 295.321987 145.37481 
L 295.643537 145.671693 
L 295.720481 145.779659 
L 296.289984 146.57877 
L 296.359918 146.640052 
L 296.527336 146.720182 
L 296.754131 146.763903 
L 297.315093 146.779043 
L 298.091366 146.796192 
L 298.255334 146.721212 
L 298.510195 146.452086 
L 298.826286 146.340903 
L 299.189446 146.373037 
L 299.408362 146.551321 
L 299.383025 147.283101 
L 299.645611 147.571074 
L 300.012891 147.451343 
L 300.150853 147.071858 
L 300.195398 146.352541 
L 299.72466 146.0038 
L 299.737431 145.906007 
L 299.864063 145.821396 
L 300.093124 145.802857 
L 300.331557 145.878765 
L 300.543933 146.072807 
L 300.685551 146.39549 
L 300.847974 146.537417 
L 301.270768 146.644017 
L 301.848724 146.750668 
L 302.439539 146.895186 
L 302.522002 146.915357 
L 302.84793 146.879051 
L 302.974047 146.784399 
L 302.996654 146.469029 
L 302.954117 146.371286 
L 302.695446 146.102624 
L 302.692459 146.041394 
L 302.789943 145.976661 
L 303.325826 146.05298 
L 303.636819 146.215455 
L 304.19706 146.383234 
L 304.421795 146.422526 
L 304.970295 146.41542 
L 305.216298 146.473612 
L 305.444947 146.637837 
L 305.535325 146.732129 
L 305.64141 147.249936 
L 305.638268 147.44367 
L 305.588779 147.758319 
L 305.463023 148.281636 
L 305.384958 148.398144 
L 305.302711 148.520894 
L 305.00176 148.625794 
L 304.297635 148.611684 
L 303.788479 148.666271 
L 303.428564 148.64835 
L 303.133586 148.669052 
L 302.73788 148.826686 
L 302.643485 148.890234 
L 302.608466 148.949147 
L 302.593172 149.057497 
L 302.722379 149.263642 
L 303.49 149.658576 
L 303.808203 149.962256 
L 303.855426 150.059999 
L 303.861554 150.145999 
L 303.822262 150.485213 
L 303.767674 150.665403 
L 303.767983 151.029284 
L 303.82938 151.095112 
L 303.894255 151.164671 
L 304.073724 151.201079 
L 304.627734 151.135678 
L 305.056141 150.932108 
L 305.086113 150.435261 
L 305.162071 150.336334 
L 305.271555 150.282107 
L 305.447985 150.258521 
L 305.773501 150.370271 
L 305.867793 150.436239 
L 305.949931 150.604636 
L 305.960591 150.698876 
L 305.878916 151.017748 
L 305.67787 151.19593 
L 304.850924 151.637778 
L 304.712601 151.819616 
L 304.731147 151.864946 
L 304.77033 151.960719 
L 305.157179 152.1217 
L 305.861544 152.259777 
L 305.896683 152.266665 
L 306.770852 152.441344 
L 307.463596 152.402618 
L 307.756617 152.175463 
L 307.974812 152.038634 
L 308.120755 151.986828 
L 308.493288 151.964529 
L 308.669615 151.985798 
L 308.924888 152.158984 
L 308.94765 152.297976 
L 308.86855 152.385109 
L 308.629808 152.494593 
L 308.129407 152.644451 
L 307.422604 152.917593 
L 307.266258 153.189191 
L 307.398452 153.418869 
L 307.70687 153.595609 
L 308.053448 153.720336 
L 308.077292 153.825493 
L 308.002157 153.921845 
L 307.814552 153.937964 
L 307.353237 153.917519 
L 307.227789 154.103271 
L 307.370695 154.300558 
L 307.713359 154.532657 
L 307.725461 154.75837 
L 307.536105 154.920175 
L 307.30174 155.002571 
L 307.183605 155.186057 
L 307.404838 155.388751 
L 307.804561 155.587325 
L 308.468775 155.654581 
L 309.062593 155.624146 
L 309.29943 155.70788 
L 309.507428 155.818703 
L 309.58936 155.890593 
L 309.610474 156.049618 
L 309.878364 156.52566 
L 310.262844 157.001291 
L 310.44839 157.465283 
L 310.474344 157.620754 
L 310.453127 157.719681 
L 310.362131 157.798626 
L 310.224067 157.839927 
L 309.763164 157.903681 
L 309.63473 157.947093 
L 309.573963 158.010641 
L 309.552591 158.13784 
L 309.579885 158.204993 
L 310.050057 158.883781 
L 310.063961 159.151156 
L 309.958082 159.497528 
L 309.728558 159.691725 
L 309.30185 159.895809 
L 309.178513 160.047881 
L 309.221462 160.249339 
L 309.356849 160.415882 
L 309.589978 160.520525 
L 310.613439 160.882295 
L 310.980822 161.123303 
L 311.318182 161.140657 
L 311.296192 161.224135 
L 311.209059 161.28588 
L 310.776016 161.431515 
L 310.526151 161.599242 
L 309.8882 162.49571 
L 309.734738 162.790121 
L 309.608105 163.094523 
L 309.57561 163.251178 
L 309.590905 163.372712 
L 309.588588 163.405207 
L 309.481061 163.515875 
L 309.455055 163.547598 
L 309.315291 163.824551 
L 309.29876 163.880323 
L 309.17084 164.106551 
L 309.142465 164.142084 
L 309.087054 164.378252 
L 308.897492 164.435156 
L 308.821533 164.418832 
L 308.770448 164.482689 
L 308.704067 164.505348 
L 308.684086 164.542168 
L 308.673426 164.825507 
L 308.688206 164.844407 
L 308.858766 164.845076 
L 308.670121 165.419673 
L 308.645669 165.49415 
L 308.303057 165.878888 
L 308.138265 166.002276 
L 308.016113 166.147911 
L 307.752291 166.603045 
L 307.501601 166.866609 
L 307.451906 167.063639 
L 307.266824 167.354136 
L 307.251993 167.409959 
L 307.291337 167.684647 
L 307.279544 167.757464 
L 306.930958 168.447891 
L 306.946253 168.518648 
L 306.911028 168.715523 
L 306.865093 168.80827 
L 306.7037 169.006741 
L 306.59195 169.058445 
L 306.493538 169.189248 
L 306.223692 169.69104 
L 306.070899 169.838786 
L 305.995661 170.078507 
L 305.989687 170.197157 
L 306.028825 170.337075 
L 306.031297 170.478642 
L 305.7236 170.872907 
L 305.716141 170.868094 
L 295.182892 164.07143 
L 295.165161 164.060204 
L 295.165094 164.060162 
L 292.753661 162.533434 
L 292.668255 162.479362 
L 291.273977 161.596616 
L 289.617097 160.500492 
L 288.72753 160.003696 
L 287.22504 158.943003 
L 286.296489 158.370866 
L 285.09325 157.540006 
L 283.341358 156.350929 
L 282.043879 155.607718 
L 279.00266 153.690742 
L 279.000018 153.689077 
L 278.876991 153.885128 
L 279.100129 154.025252 
L 279.065111 154.333464 
L 279.006455 154.478687 
L 278.98735 154.63421 
L 279.052855 154.739574 
L 279.027878 154.893911 
L 278.964691 154.998606 
L 278.683824 155.193833 
L 278.955988 155.498337 
L 279.019021 155.66627 
L 278.934771 155.830393 
L 278.786355 156.027937 
L 278.508732 156.269615 
L 278.368402 156.443058 
L 278.339254 156.623608 
L 278.440653 156.87265 
L 278.879051 157.230043 
L 278.849285 157.456168 
L 279.199468 157.664939 
L 278.600913 158.550232 
L 278.19949 158.999702 
L 277.981398 159.18499 
L 278.218287 159.262545 
L 278.917056 159.419097 
L 279.340262 159.483572 
L 279.418641 159.669117 
L 279.401853 159.73524 
L 279.297622 159.892307 
L 279.235516 159.829789 
L 279.175213 159.832673 
L 278.983436 160.003181 
L 278.971849 160.038303 
L 279.083805 160.125642 
L 279.040495 160.224311 
L 278.389619 161.234898 
L 278.333229 161.323113 
L 278.254335 161.309415 
L 278.093714 161.34675 
L 277.962087 161.715678 
L 277.737455 161.842156 
L 277.576577 161.973783 
L 277.001865 162.50153 
L 276.932137 162.576613 
L 276.934609 162.678887 
L 276.852677 162.826788 
L 276.616509 163.114349 
L 276.343006 163.199629 
L 276.157976 163.41046 
L 276.181768 163.435385 
L 276.131815 163.501456 
L 275.543663 164.096818 
L 275.274949 164.428153 
L 275.318104 164.500816 
L 275.444994 164.534547 
L 275.521673 164.517913 
L 275.805682 164.681108 
L 276.286205 165.11549 
L 276.292178 165.128621 
L 276.058122 165.265605 
L 276.018675 165.430809 
L 275.987519 165.782536 
L 275.353843 166.48661 
L 275.040841 166.767528 
L 274.837787 166.944577 
L 274.740354 167.026818 
L 274.670111 167.09222 
L 274.620519 167.145108 
L 274.366997 167.400072 
L 274.284704 167.488493 
L 274.387132 167.560126 
L 274.686642 167.582321 
L 274.992588 167.733003 
L 275.024156 167.791968 
L 274.79731 168.046314 
L 274.919977 168.275735 
L 275.658605 168.792151 
L 275.916401 168.886443 
L 276.084747 169.064212 
L 275.626316 169.445963 
L 275.557103 169.529544 
L 274.869561 169.822513 
L 274.387338 170.390787 
L 274.330022 170.713419 
L 274.244639 170.882331 
L 273.192031 171.850226 
L 272.842208 171.875614 
L 272.694514 171.960791 
L 272.656869 172.019549 
L 272.505055 172.118424 
L 272.393459 172.153134 
L 272.293348 172.053795 
L 272.236392 172.030879 
L 271.934772 172.158129 
L 271.374634 172.486683 
L 271.3322 172.590296 
L 270.899621 172.980749 
L 270.706608 173.123294 
L 270.502112 173.316513 
L 270.276759 173.474919 
L 270.303744 173.565349 
L 270.260795 173.692908 
L 269.955672 174.028002 
L 269.758488 174.174306 
L 269.493174 174.261955 
L 269.054364 174.565172 
L 268.849564 174.774321 
L 268.773033 174.852476 
L 268.667206 174.903098 
L 268.330979 175.21265 
L 268.203007 175.394487 
L 268.035692 175.546611 
L 267.422666 176.039854 
L 267.734947 176.332977 
L 267.774291 176.351928 
L 267.865905 176.33169 
L 268.054077 176.428093 
L 268.170461 176.58583 
L 268.526463 176.757213 
L 268.430987 176.844296 
L 268.297196 176.908667 
L 268.066436 177.07588 
L 267.947426 177.223677 
L 267.496771 177.607591 
L 266.981642 178.173291 
L 266.903572 178.284989 
L 266.854804 178.438554 
L 266.557354 178.790642 
L 266.32268 179.133667 
L 266.180856 179.222552 
L 266.032595 179.255819 
L 265.903594 179.411135 
L 265.890411 179.510371 
L 265.544657 179.245674 
L 265.399691 178.916554 
L 265.238607 178.931179 
L 265.013872 179.022227 
L 264.946617 178.854551 
L 264.950118 178.651136 
L 264.922361 178.58352 
L 264.653596 178.584859 
L 264.453734 178.672868 
L 264.387148 178.738784 
L 264.304443 178.872832 
L 264.303465 178.988393 
L 263.996952 179.396253 
L 263.576423 179.328327 
L 263.279643 179.71255 
L 263.141064 180.068449 
L 262.934713 180.397569 
L 262.778522 180.483725 
L 262.582677 180.696049 
L 262.546216 180.818561 
L 262.335849 181.096648 
L 261.832359 181.533707 
L 261.77257 181.506567 
L 261.430163 181.561155 
L 261.266195 181.694276 
L 260.960815 182.033799 
L 260.603268 182.052904 
L 260.175891 182.391036 
L 259.993281 182.588529 
L 259.941269 182.616029 
L 259.865619 182.602382 
L 259.805727 182.533066 
L 259.749595 182.330321 
L 259.824215 181.793923 
L 259.80856 181.697366 
L 259.805933 181.671462 
L 259.79105 181.608378 
L 259.815512 181.472064 
L 259.946521 180.981911 
L 259.874116 181.072598 
L 259.669722 181.219984 
L 259.58676 181.248771 
L 259.475525 181.244342 
L 258.821559 181.432257 
L 258.224394 182.011809 
L 258.011143 182.446808 
L 258.018456 182.542285 
L 257.87622 182.672316 
L 257.783164 182.81002 
L 257.077237 183.159533 
L 256.747396 183.233896 
L 256.395822 183.497099 
L 256.292518 183.60339 
L 256.187103 183.863298 
L 256.108209 183.991166 
L 255.871166 184.144989 
L 255.254844 185.094139 
L 255.112608 185.43191 
L 254.897709 185.845023 
L 254.586098 186.391514 
L 254.272221 186.874149 
L 254.014476 187.246063 
L 253.863898 187.39484 
L 253.194637 188.245629 
L 252.39658 189.439238 
L 252.282204 189.684674 
L 252.108607 189.892879 
L 245.685791 185.406883 
L 245.47084 185.548449 
L 245.363674 185.648406 
L 245.435204 185.87757 
L 245.427428 185.923299 
L 245.255529 186.106733 
L 245.111336 186.446617 
L 245.049539 186.642307 
L 245.059839 186.724703 
L 245.03924 186.765901 
L 244.967144 186.837997 
L 244.761154 186.935843 
L 244.513966 186.956442 
L 244.369721 187.064586 
L 244.137983 187.512614 
L 244.117384 187.79585 
L 244.168881 187.852498 
L 244.18948 188.058436 
L 243.973191 188.393169 
L 243.870196 188.449817 
L 243.669356 188.449817 
L 242.979238 188.393169 
L 242.855644 188.465266 
L 242.546659 188.722753 
L 242.510611 188.861796 
L 242.577558 188.98539 
L 242.675403 189.057487 
L 242.716601 189.119284 
L 242.7372 189.330423 
L 242.721751 189.39737 
L 242.608456 189.412819 
L 242.510611 189.484916 
L 242.453964 189.711505 
L 242.428267 189.974142 
L 242.412766 190.035939 
L 242.237675 190.21618 
L 242.036835 190.334624 
L 241.640253 190.689957 
L 241.629953 190.839248 
L 241.573306 190.967991 
L 241.434263 191.117334 
L 241.27462 191.349073 
L 241.156176 191.60656 
L 240.975935 191.869197 
L 240.88324 192.100936 
L 240.919288 192.312024 
L 240.600004 193.017539 
L 240.610303 193.129083 
L 240.624928 193.177542 
L 240.702999 193.522214 
L 240.842042 193.645808 
L 240.970785 193.712703 
L 241.032582 193.831148 
L 240.852341 194.485166 
L 240.687549 194.716904 
L 240.600004 195.051638 
L 240.589704 195.221528 
L 239.899587 195.391469 
L 239.6318 195.211228 
L 239.183772 195.185531 
L 239.080777 195.206079 
L 238.694494 195.453266 
L 238.627548 195.545962 
L 238.498804 195.916744 
L 238.400186 196.017679 
L 238.396375 196.035291 
L 238.353736 196.10301 
L 238.32088 196.192873 
L 238.292814 196.328723 
L 238.184669 196.369921 
L 238.030177 196.514114 
L 237.819861 196.95689 
L 237.807862 196.966056 
L 237.587299 197.224728 
L 237.376262 197.708444 
L 237.36586 197.811799 
L 237.427657 197.950842 
L 237.180417 198.223727 
L 237.190768 198.56876 
L 237.226816 198.599659 
L 237.206217 198.682055 
L 236.958978 199.155831 
L 236.760023 199.350461 
L 236.72209 199.38757 
L 236.577897 199.619309 
L 236.536699 199.748001 
L 236.588196 199.871595 
L 236.572747 199.928242 
L 236.389725 200.010071 
L 236.370723 200.021246 
L 236.279212 200.062135 
L 236.062922 200.350521 
L 235.89813 200.7831 
L 235.645793 200.99424 
L 235.414054 201.251675 
L 235.233761 201.545211 
L 235.002023 202.003538 
L 234.775434 202.17348 
L 234.512797 203.054035 
L 234.718787 203.254875 
L 234.671152 203.414209 
L 234.671718 203.429967 
L 234.577478 203.664177 
L 234.561771 203.730661 
L 234.560844 203.733338 
L 234.531748 203.801212 
L 234.293778 203.989281 
L 234.095255 204.083006 
L 233.974803 204.217106 
L 233.997719 204.435815 
L 233.825301 204.586663 
L 233.755269 204.647934 
L 233.448808 204.773072 
L 233.305233 204.826115 
L 233.01422 204.989362 
L 232.913028 205.273061 
L 232.921783 205.647808 
L 232.881254 205.796482 
L 232.639164 205.84149 
L 232.344341 205.711511 
L 232.273893 205.704765 
L 231.930302 206.109895 
L 231.837452 206.28993 
L 231.813454 206.332364 
L 231.712982 206.434844 
L 231.605507 206.61251 
L 231.366044 206.661227 
L 231.239103 206.714733 
L 230.842778 206.934061 
L 230.815124 206.956256 
L 230.820222 206.988493 
L 230.830161 207.083918 
L 230.92744 207.204165 
L 230.943816 207.274098 
L 230.973942 207.341148 
L 230.949687 207.516909 
L 230.804361 207.65415 
L 230.668305 207.594722 
L 230.603366 207.527466 
L 230.523133 207.50661 
L 230.415143 207.517063 
L 230.34902 207.575256 
L 230.148232 207.652399 
L 230.042868 207.739481 
L 229.923239 207.819302 
L 229.295228 207.974413 
L 226.307036 207.182999 
L 220.831001 205.638899 
L 219.639864 203.553664 
L 218.522318 201.689558 
L 217.986693 201.231282 
L 217.919746 201.133437 
L 217.909446 201.056191 
L 217.729205 200.814153 
L 217.695562 200.792525 
L 217.657109 200.767805 
L 217.43567 200.695709 
L 216.771301 200.335226 
L 216.215128 200.216782 
L 215.931892 200.185884 
L 211.950932 198.723459 
L 211.588699 199.512142 
L 211.482305 199.67611 
L 211.420508 199.696709 
L 211.307213 199.969646 
L 211.353561 200.026293 
L 211.425658 200.221984 
L 211.255716 200.319829 
L 211.126972 200.29923 
L 210.910683 200.886301 
L 210.890084 201.200435 
L 211.034328 201.463021 
L 210.936483 201.674161 
L 210.720194 201.957397 
L 210.79229 202.019194 
L 210.884986 202.050092 
L 211.039478 202.183986 
L 211.235168 202.472371 
L 211.281516 202.637163 
L 211.20942 202.70926 
L 211.096125 202.724709 
L 210.99828 202.771057 
L 210.936483 202.817404 
L 210.918253 202.871065 
L 210.918253 202.875803 
L 210.848937 203.038844 
L 210.663547 202.8998 
L 210.339112 202.889501 
L 210.277316 203.013095 
L 210.275668 203.204305 
L 210.205219 203.368427 
L 209.928626 203.632815 
L 209.7764 203.602689 
L 209.726344 203.61783 
L 209.61135 203.733287 
L 209.453459 204.094233 
L 209.485027 204.23065 
L 209.562119 204.391322 
L 209.667071 204.414135 
L 209.628138 204.553178 
L 209.556814 204.57733 
L 209.379612 204.716065 
L 209.347889 204.776883 
L 209.383577 204.98792 
L 209.55563 205.029684 
L 209.787369 205.303342 
L 209.900972 205.562374 
L 209.927596 205.657335 
L 209.935836 205.98661 
L 209.896852 206.034915 
L 209.767285 206.202591 
L 209.866881 206.396788 
L 209.772486 206.54886 
L 209.758118 206.709635 
L 209.795505 206.83534 
L 209.848084 206.893584 
L 209.860135 206.966968 
L 208.986789 207.775941 
L 208.857736 207.964731 
L 208.866748 208.094041 
L 208.6639 208.326758 
L 208.43417 208.505557 
L 208.161851 209.125844 
L 207.971465 209.251859 
L 207.788906 209.59787 
L 207.696056 209.957065 
L 207.758059 210.016751 
L 207.903179 210.043323 
L 207.948806 210.088075 
L 207.999582 210.330319 
L 208.010242 210.448763 
L 207.990879 210.47961 
L 207.935262 210.530901 
L 207.817281 210.551655 
L 207.677466 210.637244 
L 207.546611 210.814395 
L 207.236853 210.949679 
L 207.057127 210.956528 
L 206.467224 210.781231 
L 206.36083 210.77124 
L 206.010338 210.825415 
L 205.864549 210.986036 
L 205.908837 211.115913 
L 205.728441 211.580935 
L 205.564473 211.90609 
L 205.246116 212.10796 
L 204.901083 212.145604 
L 204.356343 212.526583 
L 204.273483 212.749 
L 204.1984 212.852613 
L 203.967897 213.018796 
L 203.730082 213.250174 
L 203.655771 213.39035 
L 203.657779 213.476351 
L 203.790282 213.648507 
L 203.971347 213.806707 
L 204.006366 213.906612 
L 204.035616 214.143964 
L 204.289499 214.144994 
L 204.413093 214.238977 
L 204.704414 214.705595 
L 204.820232 215.110829 
L 204.747981 215.34746 
L 204.68675 215.40148 
L 204.37951 215.465368 
L 204.266479 215.488872 
L 204.113069 215.719735 
L 203.852543 215.837201 
L 203.561376 215.774992 
L 203.447309 215.889676 
L 203.369754 216.049782 
L 203.369188 216.122909 
L 203.413166 216.229869 
L 203.295546 216.335799 
L 203.168141 216.401561 
L 203.096714 216.399347 
L 202.876666 216.285486 
L 202.588331 216.326735 
L 202.480753 216.436631 
L 202.426166 216.570319 
L 202.418956 216.6763 
L 202.369879 216.728158 
L 202.24783 216.759881 
L 201.965264 216.743505 
L 201.85063 216.769871 
L 201.786876 216.825437 
L 201.587118 217.169131 
L 201.245277 217.285206 
L 200.90215 217.652383 
L 200.105896 218.318194 
L 199.840838 218.480308 
L 199.728626 218.475931 
L 199.644582 218.506469 
L 199.461972 218.645924 
L 199.440961 218.711532 
L 199.423143 218.762051 
L 199.393737 218.892288 
L 199.109986 219.243655 
L 198.71531 219.452014 
L 198.464466 219.50758 
L 198.286851 219.481934 
L 198.187255 219.592138 
L 198.196009 219.689572 
L 198.150331 219.722788 
L 197.937389 219.895974 
L 197.946144 219.917808 
L 198.172938 220.018744 
L 198.165574 220.146972 
L 198.069583 220.292865 
L 198.054958 220.407807 
L 198.105889 220.512862 
L 198.201262 220.511368 
L 198.25312 220.528877 
L 198.262441 220.557922 
L 198.067884 221.213691 
L 197.83805 221.415355 
L 197.728567 221.436417 
L 197.715126 221.448159 
L 197.551827 221.721559 
L 197.548532 221.746896 
L 197.533906 221.987131 
L 197.290838 222.206665 
L 196.827567 222.267175 
L 196.719628 222.40869 
L 197.023 223.436888 
L 197.069399 223.481176 
L 197.25927 223.534785 
L 197.500124 223.561615 
L 197.673001 223.666979 
L 197.605282 223.78671 
L 197.430757 223.963038 
L 197.282599 224.078083 
L 197.265141 224.155278 
L 197.221317 224.213367 
L 197.057915 224.306062 
L 196.847291 224.468434 
L 196.499734 224.84694 
L 196.273351 224.988764 
L 196.229064 225.044742 
L 195.934292 225.648292 
L 195.947115 225.90475 
L 195.517368 226.728091 
L 195.360713 226.902307 
L 195.223524 227.124879 
L 195.229601 227.189766 
L 195.312615 227.325822 
L 195.233514 227.508432 
L 195.152766 227.636198 
L 195.077426 227.677241 
L 194.990137 227.687335 
L 194.894198 227.76386 
L 194.619768 228.198292 
L 194.610859 228.253446 
L 194.659781 228.329611 
L 194.592834 228.454647 
L 194.388286 228.502849 
L 194.137442 228.780574 
L 194.090271 228.886762 
L 194.116174 229.014579 
L 194.078272 229.133693 
L 193.910905 229.39911 
L 193.750078 229.557465 
L 193.421473 229.657216 
L 193.251274 229.770356 
L 193.215329 229.831638 
L 193.232632 229.906 
L 193.202248 229.995915 
L 192.634592 230.374215 
L 192.01312 230.837023 
L 191.38619 231.374605 
L 191.250597 231.406997 
L 190.978372 231.642728 
L 190.952118 231.665463 
L 190.599721 231.8645 
L 190.451048 231.905544 
L 190.0419 232.160456 
L 189.994162 232.293938 
L 189.717003 232.505232 
L 189.401272 232.813135 
L 188.906432 233.402009 
L 188.578497 233.360862 
L 188.378274 233.577821 
L 187.859952 234.010709 
L 187.752683 234.148619 
L 187.745525 234.230809 
L 187.82926 234.304811 
L 187.81551 234.452145 
L 187.667918 234.50287 
L 187.543912 234.435357 
L 187.513065 234.440661 
L 187.207428 234.636815 
L 187.160617 234.685223 
L 187.130954 234.813812 
L 187.08507 234.875454 
L 186.569271 235.229963 
L 186.353857 235.135362 
L 186.292781 235.058991 
L 186.208583 235.00976 
L 185.957224 235.270749 
L 185.52619 235.615885 
L 185.178325 236.028174 
L 185.019918 236.284219 
L 185.017704 236.391231 
L 184.778962 236.702121 
L 184.51617 236.769325 
L 184.451953 236.876337 
L 184.426565 237.073881 
L 184.641 237.437402 
L 184.518591 237.50991 
L 184.281084 237.540912 
L 183.8552 237.84897 
L 183.598588 238.067937 
L 183.432766 238.236179 
L 183.278892 238.510094 
L 183.245882 238.662063 
L 183.015019 238.835713 
L 182.743936 238.978773 
L 182.707373 238.994994 
L 182.621269 238.980678 
L 182.184519 239.541846 
L 182.074521 239.759474 
L 182.06108 239.879412 
L 182.139562 239.911186 
L 182.545002 240.351695 
L 182.621012 240.344949 
L 182.761291 240.411999 
L 182.773341 240.644149 
L 182.730083 240.697501 
L 182.709433 240.717533 
L 182.671582 240.680506 
L 182.455653 240.602333 
L 182.163611 240.571641 
L 182.011179 240.601715 
L 181.931203 240.739935 
L 181.448208 241.058086 
L 181.164354 241.116484 
L 180.93689 241.392047 
L 180.982826 241.477378 
L 181.01563 241.693153 
L 180.921286 241.757267 
L 180.674717 241.731209 
L 180.623168 241.746041 
L 180.34745 242.660018 
L 180.473722 242.908184 
L 180.900584 243.098313 
L 180.89013 243.230352 
L 180.846358 243.300492 
L 180.585471 243.572759 
L 180.262943 243.666793 
L 179.872386 244.040356 
L 179.717018 244.230279 
L 179.093899 244.819461 
L 178.733365 244.950831 
L 178.628825 245.057379 
L 178.824567 245.45942 
L 178.828635 245.471985 
L 179.492232 246.844651 
L 179.958232 247.261523 
L 179.956739 247.264252 
L 180.105927 247.409526 
L 180.117617 247.414522 
L 180.238842 247.44027 
L 180.241108 247.439498 
L 180.320362 247.461384 
L 180.320877 247.462363 
L 180.774673 247.603929 
L 180.77663 247.602951 
L 181.556456 247.843959 
L 182.499066 248.354041 
L 182.375369 248.590003 
L 182.239879 248.750984 
L 181.505783 249.425498 
L 181.016145 249.674951 
L 180.545509 250.015762 
L 180.30651 250.125194 
L 179.957254 250.239776 
L 179.334237 250.531663 
L 178.693506 250.877263 
L 176.962058 251.621659 
L 177.791734 252.552527 
L 177.685082 252.66165 
L 177.335672 252.800745 
L 177.174228 252.819644 
L 177.014328 252.872687 
L 176.86926 253.067244 
L 177.948647 253.523666 
L 178.860255 253.053803 
L 179.33707 253.207678 
L 178.440808 254.507783 
L 177.923567 254.736638 
L 177.949419 254.785406 
L 177.66747 254.885156 
L 177.367704 254.991396 
L 177.034206 255.171843 
L 176.780066 255.255887 
L 176.174919 255.338077 
L 174.987954 255.712412 
L 175.176847 255.963616 
L 174.853494 256.138811 
L 174.724596 256.269099 
L 174.397278 256.407525 
L 174.179598 256.459743 
L 173.286375 256.874452 
L 173.135178 256.977035 
L 171.958976 257.514978 
L 171.064516 258.120073 
L 170.634924 258.330543 
L 170.328721 258.421796 
L 169.942129 258.737115 
L 169.531343 258.858854 
L 169.386935 258.90165 
L 168.394785 258.277449 
L 168.270521 257.77746 
L 168.491909 257.109538 
L 167.54384 255.877564 
L 167.439919 255.992197 
L 167.350828 256.037515 
L 166.921236 256.123052 
L 166.670546 256.099209 
L 166.463372 256.111775 
L 166.407909 256.14875 
L 166.08157 256.245513 
L 165.821508 256.236862 
L 165.450726 256.295157 
L 164.966341 256.490229 
L 164.71632 256.655021 
L 163.709081 257.165928 
L 163.483316 257.338856 
L 163.424764 257.434436 
L 162.970196 257.705673 
L 162.115441 258.052251 
L 161.841732 258.231153 
L 161.813563 258.368239 
L 161.62297 258.367158 
L 161.313986 258.429109 
L 161.209703 258.475354 
L 161.055777 258.570882 
L 161.046765 258.612904 
L 161.078024 258.668778 
L 160.617328 258.942951 
L 160.221003 259.078544 
L 160.061464 259.177882 
L 159.679095 259.351171 
L 159.634859 259.351429 
L 158.625251 259.845032 
L 158.25792 259.993396 
L 157.563013 260.360625 
L 157.033825 260.562031 
L 156.61582 260.687994 
L 156.204201 260.870862 
L 155.871991 260.982251 
L 155.486429 261.107698 
L 155.321895 261.11084 
L 154.746977 261.376979 
L 154.221909 261.506701 
L 153.883725 260.923956 
L 153.8777 260.900679 
L 153.59297 260.649114 
L 153.536992 260.565018 
L 153.539979 260.454608 
L 153.495485 260.362221 
L 153.179857 260.306552 
L 152.739451 260.299394 
L 152.658188 260.302948 
L 152.365579 260.182649 
L 152.313824 260.014047 
L 152.353787 259.871347 
L 152.229626 259.760525 
L 152.081828 259.696874 
L 150.804331 258.829244 
L 150.740886 258.762143 
L 150.535205 258.746025 
L 150.40435 258.870442 
L 150.295639 258.878734 
L 150.072552 258.741338 
L 149.943447 258.69808 
L 149.746006 258.690356 
L 149.675815 258.632885 
L 149.669977 258.626051 
L 149.614224 258.560788 
L 149.613858 258.561291 
L 149.429554 258.814362 
L 149.32625 259.057275 
L 149.324911 259.208214 
L 149.361938 259.353231 
L 149.449175 259.474302 
L 148.394146 260.910875 
L 150.134606 262.817517 
L 149.317341 263.14638 
L 149.128603 263.2468 
L 148.556106 263.744781 
L 147.503909 264.46075 
L 146.539671 264.915833 
L 146.138969 265.043547 
L 145.928962 265.085311 
L 145.567605 265.218896 
L 145.064938 265.445794 
L 144.103995 265.637055 
L 143.726364 265.673825 
L 143.404144 265.606929 
L 143.343583 265.569748 
L 143.299759 265.438018 
L 143.457702 265.203292 
L 143.432828 265.115849 
L 142.587034 265.256644 
L 142.352051 265.343005 
L 141.9462 265.435443 
L 141.252014 265.534833 
L 140.466471 265.735261 
L 138.055308 266.036521 
L 137.498724 266.127208 
L 136.583305 266.340562 
L 135.048268 266.821137 
L 134.19547 267.015952 
L 133.780143 267.144747 
L 133.207388 267.397187 
L 131.836371 268.167898 
L 130.789427 268.587036 
L 128.246399 266.861837 
L 125.897116 265.268076 
L 123.731596 263.292427 
L 123.517418 263.383063 
L 123.479465 263.456344 
L 123.42601 263.56351 
L 123.35963 263.594202 
L 123.365552 263.659038 
L 123.4291 263.716766 
L 123.451296 263.813478 
L 123.259931 263.991351 
L 123.193242 264.193221 
L 123.098229 264.274638 
L 122.949195 264.283238 
L 122.804487 264.3146 
L 122.600145 264.275565 
L 122.559617 264.263412 
L 122.513475 264.198886 
L 122.466252 264.178853 
L 122.393898 264.208258 
L 122.076931 264.388087 
L 121.8575 264.685537 
L 121.84957 264.831223 
L 121.918834 264.905791 
L 121.946643 265.001577 
L 121.876194 265.080522 
L 121.669689 265.147726 
L 121.522149 265.295318 
L 121.58889 265.408458 
L 121.309155 265.95052 
L 121.281707 266.014068 
L 121.289535 266.055884 
L 121.185716 266.246167 
L 120.924624 266.612623 
L 120.343578 266.725866 
L 120.091034 266.639248 
L 119.296171 266.748525 
L 119.255848 266.799611 
L 118.991615 266.93268 
L 118.749783 266.960128 
L 118.662752 267.008484 
L 118.699367 267.092219 
L 118.692878 267.161947 
L 118.584373 267.298312 
L 117.846723 267.544058 
L 117.655513 267.750357 
L 117.479649 267.776981 
L 117.030179 267.758648 
L 116.852461 267.684852 
L 116.733657 267.568159 
L 116.713058 267.46985 
L 116.747664 267.437819 
L 116.747561 267.401307 
L 116.690965 267.394818 
L 116.468702 267.675274 
L 116.418338 267.802163 
L 116.381672 267.926684 
L 116.301953 268.092918 
L 116.310605 268.360551 
L 116.25576 268.642345 
L 116.180522 268.705996 
L 115.565488 268.996956 
L 115.218962 269.053449 
L 114.929958 269.177197 
L 114.344586 269.31382 
L 114.304727 269.344513 
L 114.096832 269.675796 
L 113.872715 269.948166 
L 113.742993 270.001208 
L 113.703185 270.008315 
L 113.681402 269.986583 
L 113.627947 269.963512 
L 113.510945 270.039831 
L 107.455615 270.306588 
L 107.435377 270.255915 
L 107.29242 270.195817 
L 107.195141 270.09205 
L 107.156827 269.81144 
L 107.180928 269.79321 
L 107.017526 269.708085 
L 106.585154 269.684138 
L 106.387352 269.445654 
L 105.52343 268.901325 
L 105.496755 268.615514 
L 105.326504 268.437127 
L 105.145902 268.297672 
L 104.985745 268.296179 
L 104.881566 268.332175 
L 104.61759 268.419515 
L 104.348618 268.41246 
L 104.310835 268.382953 
L 104.067442 268.192875 
L 104.052611 268.107904 
L 104.097465 268.021388 
L 104.093088 267.931628 
L 104.223428 267.599418 
L 104.187998 267.561722 
L 104.118682 267.544058 
L 103.993183 267.389669 
L 103.990093 267.224619 
L 103.958989 267.107875 
L 103.879322 267.070178 
L 103.69218 267.028877 
L 103.649283 267.006373 
L 103.608651 266.952507 
L 103.500507 266.895551 
L 103.370785 266.777621 
L 103.361361 266.720253 
L 103.360537 266.67854 
L 103.365635 266.571992 
L 103.232308 266.507569 
L 103.153414 266.483931 
L 103.10068 266.500513 
L 103.046093 266.509422 
L 102.976108 266.515551 
L 102.840052 266.561023 
L 102.487448 266.530588 
L 102.484204 266.528528 
L 102.351753 266.475692 
L 102.247161 266.397364 
L 102.246543 266.264089 
L 102.052913 266.130298 
L 101.73507 266.035749 
L 101.694829 266.06246 
L 101.522334 266.176955 
L 101.511314 266.150485 
L 101.538299 266.080964 
L 101.51358 266.014017 
L 101.015084 265.958503 
L 100.906579 265.973643 
L 100.811309 266.099657 
L 100.710786 266.108515 
L 100.639977 266.109699 
L 100.502839 266.206978 
L 100.323628 266.270114 
L 100.173101 266.293494 
L 99.892954 266.287056 
L 99.408621 266.172372 
L 99.412895 266.10424 
L 99.463414 266.029621 
L 99.410578 265.984251 
L 99.187594 265.936513 
L 99.004881 265.977042 
L 98.960747 265.975497 
L 98.773297 266.02375 
L 98.611491 265.993984 
L 98.425998 265.86658 
L 98.399837 265.678562 
L 98.429242 265.502904 
L 98.378929 265.236457 
L 98.404008 265.211686 
L 98.421157 265.193096 
L 98.379186 264.894874 
L 98.298232 264.886016 
L 98.113253 264.987827 
L 97.989299 264.942355 
L 97.848762 264.800427 
L 97.825125 264.778026 
L 97.80123 264.74481 
L 97.814311 264.712058 
L 97.902732 264.603398 
L 98.097598 264.51405 
L 98.080141 264.423929 
L 97.711522 264.160108 
L 97.569646 264.168914 
L 97.441829 264.0326 
L 97.413454 263.942428 
L 97.149272 263.74818 
L 97.130218 263.598013 
L 97.084489 263.581482 
L 97.018314 263.629272 
L 96.802591 263.654042 
L 96.705931 263.650952 
L 96.666278 263.628757 
L 96.40086 263.681387 
L 96.354666 263.682881 
L 96.303426 263.61717 
L 96.301933 263.584675 
L 96.266297 263.58416 
L 96.23993 263.586993 
L 96.061852 263.159049 
L 96.059998 263.116563 
L 95.879911 263.052809 
L 95.838559 263.016246 
L 95.727839 263.030408 
L 95.706056 263.03118 
L 95.656927 263.012693 
L 95.627419 262.978499 
L 95.473957 262.723792 
L 95.44244 262.718127 
L 95.418545 262.692379 
L 95.175117 262.692018 
L 94.989674 262.483144 
L 94.967428 262.379428 
L 94.92314 262.327571 
L 94.713442 262.281583 
L 94.664725 262.197848 
L 94.566468 262.110148 
L 94.659164 261.905549 
L 94.493445 261.804047 
L 94.479077 261.796889 
L 94.288485 261.486926 
L 94.34678 261.410607 
L 94.289257 261.226915 
L 94.186674 261.18788 
L 94.141769 261.075822 
L 94.303625 260.638763 
L 94.551997 260.400432 
L 94.577643 260.183422 
L 94.448591 259.998186 
L 94.486905 259.810992 
L 94.626154 259.731017 
L 94.707211 259.729472 
L 94.771995 259.691415 
L 94.82478 259.497476 
L 94.361972 259.299828 
L 94.13116 259.057636 
L 93.945615 258.587052 
L 94.08543 258.42983 
L 94.215307 258.209472 
L 94.1996 258.106117 
L 94.033675 257.999723 
L 93.913583 257.99859 
L 93.827016 258.027223 
L 93.67721 258.012546 
L 93.491716 257.7307 
L 93.012532 257.609269 
L 92.656685 257.667307 
L 92.463054 257.491907 
L 92.491223 257.431552 
L 92.11112 257.138531 
L 91.913525 257.137295 
L 91.66232 257.28638 
L 91.553403 257.257387 
L 91.28232 256.946446 
L 91.10831 256.487243 
L 91.060469 256.133352 
L 91.249053 255.810772 
L 91.406996 255.712412 
L 91.620504 255.671111 
L 91.897354 255.683161 
L 91.956989 255.726573 
L 92.038149 255.726625 
L 92.391576 255.453637 
L 92.687377 255.26907 
L 93.087667 255.371241 
L 93.29103 255.357903 
L 93.321053 255.331588 
L 93.318273 255.234361 
L 93.244528 255.175654 
L 93.234383 255.135383 
L 93.249163 254.942885 
L 93.297056 254.866051 
L 93.364826 254.828149 
L 93.500934 254.81136 
L 93.667322 254.835822 
L 93.772635 254.782882 
L 93.758421 254.574472 
L 93.817283 254.490377 
L 93.914819 254.445368 
L 94.371705 254.317757 
L 94.598757 254.309672 
L 94.604491 254.30501 
L 94.657155 254.262191 
L 94.674922 254.202094 
L 94.330043 253.956914 
L 93.783913 253.841354 
L 93.609233 253.702259 
L 93.579622 253.642162 
L 93.585544 253.515993 
L 93.769081 253.373345 
L 93.767588 253.339151 
L 93.663975 253.299086 
L 93.277641 253.488905 
L 93.11769 253.466556 
L 93.062948 253.396982 
L 93.076183 253.223693 
L 93.101365 253.169467 
L 93.079118 253.121111 
L 92.976999 253.119978 
L 92.553638 253.243829 
L 92.466299 253.166068 
L 92.516869 252.987217 
L 92.666006 252.813516 
L 92.68815 252.717988 
L 92.421599 252.53888 
L 92.100306 252.594394 
L 91.870885 252.75244 
L 91.786532 252.780764 
L 91.527397 252.727824 
L 91.445979 252.744355 
L 91.265481 252.960181 
L 91.19153 252.996796 
L 90.502546 253.199438 
L 90.410777 253.221788 
L 90.165031 253.205257 
L 90.064405 253.166274 
L 90.01265 252.948182 
L 89.912076 252.844363 
L 89.802489 252.846732 
L 89.583367 252.963374 
L 89.399779 252.993963 
L 88.98234 252.733283 
L 88.926105 252.51756 
L 88.877285 252.465651 
L 88.678866 252.443249 
L 88.578188 252.528117 
L 88.558877 252.641257 
L 88.576643 252.780403 
L 88.062853 253.040877 
L 87.9252 253.033822 
L 87.729716 253.079758 
L 87.623116 253.069201 
L 87.566881 253.035007 
L 87.547621 252.924236 
L 87.605349 252.774481 
L 87.566881 252.641257 
L 87.112261 252.100173 
L 87.02039 252.058924 
L 86.527301 252.080244 
L 86.291803 252.049654 
L 85.634284 251.941407 
L 85.617959 251.871885 
L 85.573465 251.838875 
L 84.880464 251.865087 
L 84.479402 250.998797 
L 84.482749 250.926906 
L 84.416111 250.864337 
L 84.327536 250.470587 
L 84.181077 250.219434 
L 84.087763 250.1168 
L 83.594521 250.03291 
L 83.344037 250.162478 
L 83.240269 250.252084 
L 82.813664 250.155268 
L 82.76778 249.950154 
L 82.41528 249.371271 
L 82.225615 249.346501 
L 82.178237 249.275743 
L 82.170873 249.113063 
L 81.785569 248.846615 
L 81.541059 248.659164 
L 81.48915 248.549526 
L 81.542707 248.403942 
L 81.311405 248.369963 
L 81.269976 248.363877 
L 81.238872 248.396887 
L 80.976441 248.465327 
L 80.522903 248.34745 
L 80.457707 248.368667 
L 80.410278 248.43824 
L 80.361406 248.45477 
L 80.085689 248.491231 
L 79.89005 248.475524 
L 79.778867 248.432472 
L 79.821816 248.364083 
L 79.544502 248.037589 
L 79.541567 247.992838 
L 79.602282 247.935058 
L 79.725258 247.726339 
L 79.725207 247.655633 
L 79.58879 247.573134 
L 79.369308 247.489553 
L 79.29958 247.363436 
L 79.269763 247.108833 
L 79.240101 247.049868 
L 78.556266 246.61868 
L 78.485045 246.6022 
L 78.323446 246.644737 
L 77.892824 246.853405 
L 77.643679 246.861542 
L 77.08488 246.570169 
L 76.875852 246.49936 
L 76.574334 246.179252 
L 76.133001 246.172609 
L 76.044013 246.270454 
L 75.858674 246.223282 
L 75.72375 246.156078 
L 75.707426 246.062919 
L 75.737088 246.00519 
L 75.723802 245.769383 
L 75.706035 245.752904 
L 75.634917 245.346229 
L 75.627502 245.300241 
L 75.548917 245.264914 
L 75.357552 245.109289 
L 75.286382 244.959534 
L 75.333863 244.828731 
L 75.57276 244.643649 
L 75.608345 244.510476 
L 75.534188 244.420871 
L 75.385876 244.318288 
L 75.14255 244.28878 
L 75.06242 244.239291 
L 74.885784 243.949308 
L 74.863537 243.741825 
L 74.832381 243.667566 
L 74.6009 243.524918 
L 74.514796 243.206715 
L 74.492497 242.932079 
L 74.462783 242.895516 
L 74.421225 242.862506 
L 74.053121 242.767081 
L 73.733305 242.524433 
L 73.717615 242.512529 
L 73.705668 242.40526 
L 73.981694 242.137627 
L 74.332186 241.994001 
L 74.352939 241.779462 
L 74.026239 241.429383 
L 73.917889 241.421143 
L 73.83024 241.383447 
L 73.693566 241.266754 
L 73.689085 241.219633 
L 73.582074 240.797663 
L 73.498905 240.752912 
L 73.43201 240.676284 
L 73.421608 240.603209 
L 73.458686 240.492386 
L 73.390297 240.230728 
L 73.351674 240.202455 
L 72.919404 240.144778 
L 72.639979 239.839604 
L 72.544863 239.800724 
L 72.283411 239.77137 
L 72.149723 239.719564 
L 72.08875 239.650094 
L 72.058985 239.571097 
L 71.944506 239.452137 
L 71.831572 239.394409 
L 71.579543 239.373243 
L 71.44946 239.329522 
L 71.391732 239.056019 
L 71.336836 238.922795 
L 71.044381 238.587907 
L 70.976044 238.546606 
L 70.915123 238.546606 
L 70.301736 237.942901 
L 69.879766 237.656369 
L 69.824818 237.597405 
L 69.65843 237.177752 
L 69.607911 237.149428 
L 69.390901 237.132897 
L 69.230383 237.073933 
L 69.230383 237.038554 
L 69.183825 236.668917 
L 69.153188 236.425683 
L 69.074397 236.378511 
L 69.035723 236.30662 
L 69.044683 236.238232 
L 69.145773 236.191112 
L 69.374833 235.84577 
L 69.32277 235.757348 
L 69.289451 235.617275 
L 69.2963 235.257514 
L 69.266586 235.167908 
L 69.178886 235.073617 
L 68.790646 234.938024 
L 68.631519 234.85434 
L 68.444171 234.487781 
L 68.298382 234.321548 
L 67.834184 234.110614 
L 66.617453 234.367792 
L 66.550506 234.373714 
L 66.444885 234.319539 
L 65.776345 233.460561 
L 65.739112 233.401597 
L 65.35489 232.942085 
L 65.231296 232.877353 
L 65.039622 232.625015 
L 65.035193 232.544885 
L 65.115632 232.454146 
L 65.275326 232.125335 
L 65.274558 231.992067 
L 65.274553 231.991236 
L 65.30643 231.944991 
L 65.377857 231.934331 
L 65.761926 232.002514 
L 65.901793 231.963581 
L 66.116022 231.804351 
L 66.418003 231.507211 
L 66.587687 231.290252 
L 66.595103 231.245501 
L 66.542988 231.207753 
L 66.712363 230.572377 
L 66.938591 230.376687 
L 66.985969 230.199742 
L 66.976184 230.039224 
L 66.913563 229.968775 
L 66.834154 229.92768 
L 66.596545 229.863412 
L 65.858174 229.406166 
L 65.767281 229.270985 
L 65.661814 229.243228 
L 65.141999 229.228396 
L 64.764883 229.10712 
L 64.630217 229.120664 
L 64.452087 229.201772 
L 64.31289 229.18864 
L 64.241978 229.122981 
L 64.21834 229.057322 
L 64.241978 228.92075 
L 64.228846 228.813069 
L 64.122813 228.745299 
L 63.972131 228.517165 
L 63.805279 228.177488 
L 63.806 227.825142 
L 63.741577 227.764375 
L 63.571481 227.702269 
L 63.334335 227.524191 
L 63.1457 227.259957 
L 63.123453 227.136003 
L 63.2059 226.985991 
L 63.215015 226.857092 
L 63.011497 226.690241 
L 62.873947 226.500266 
L 62.829505 226.390628 
L 62.825849 226.171301 
L 62.700504 226.038798 
L 62.591175 225.937399 
L 62.582266 225.653339 
L 62.495802 225.539015 
L 62.066364 225.434063 
L 61.750273 225.032228 
L 61.320835 224.956836 
L 60.807715 224.516069 
L 60.733095 224.331039 
L 60.750913 224.1354 
L 60.722383 223.6746 
L 60.61496 223.577991 
L 60.409073 223.525 
L 60.31509 223.475511 
L 60.088192 223.21514 
L 59.979223 223.139748 
L 59.850943 223.090259 
L 59.646447 222.961875 
L 59.154131 222.993907 
L 58.984035 222.966922 
L 58.937738 222.929226 
L 58.895871 222.838487 
L 58.895717 222.387524 
L 58.846382 222.314501 
L 58.637457 222.241323 
L 58.221203 222.146876 
L 58.107857 222.085543 
L 58.064599 222.024261 
L 58.014028 221.795561 
L 58.008364 221.349284 
L 57.980092 221.113168 
L 57.681818 220.662822 
L 57.771527 220.453073 
" clip-path="url(#p0a567df0a1)" style="fill: #009cd4"/>
   </g>
   <g id="PathCollection_1">
    <defs>
     <path id="m3c4c81bb74" d="M 0 1.581139 
C 0.419323 1.581139 0.821528 1.41454 1.118034 1.118034 
C 1.41454 0.821528 1.581139 0.419323 1.581139 0 
C 1.581139 -0.419323 1.41454 -0.821528 1.118034 -1.118034 
C 0.821528 -1.41454 0.419323 -1.581139 0 -1.581139 
C -0.419323 -1.581139 -0.821528 -1.41454 -1.118034 -1.118034 
C -1.41454 -0.821528 -1.581139 -0.419323 -1.581139 0 
C -1.581139 0.419323 -1.41454 0.821528 -1.118034 1.118034 
C -0.821528 1.41454 -0.419323 1.581139 0 1.581139 
z
" style="stroke: #000000"/>
    </defs>
    <g clip-path="url(#p0a567df0a1)">
     <use xlink:href="#m3c4c81bb74" x="110.848372" y="211.869166" style="stroke: #000000"/>
    </g>
   </g>
   <g id="text_1">
    <!-- Charleston -->
    <g transform="translate(113.848372 208.869166) scale(0.1 -0.1)">
     <defs>
      <path id="DejaVuSans-43" d="M 4122 4306 
L 4122 3641 
Q 3803 3938 3442 4084 
Q 3081 4231 2675 4231 
Q 1875 4231 1450 3742 
Q 1025 3253 1025 2328 
Q 1025 1406 1450 917 
Q 1875 428 2675 428 
Q 3081 428 3442 575 
Q 3803 722 4122 1019 
L 4122 359 
Q 3791 134 3420 21 
Q 3050 -91 2638 -91 
Q 1578 -91 968 557 
Q 359 1206 359 2328 
Q 359 3453 968 4101 
Q 1578 4750 2638 4750 
Q 3056 4750 3426 4639 
Q 3797 4528 4122 4306 
z
" transform="scale(0.015625)"/>
      <path id="DejaVuSans-68" d="M 3513 2113 
L 3513 0 
L 2938 0 
L 2938 2094 
Q 2938 2591 2744 2837 
Q 2550 3084 2163 3084 
Q 1697 3084 1428 2787 
Q 1159 2491 1159 1978 
L 1159 0 
L 581 0 
L 581 4863 
L 1159 4863 
L 1159 2956 
Q 1366 3272 1645 3428 
Q 1925 3584 2291 3584 
Q 2894 3584 3203 3211 
Q 3513 2838 3513 2113 
z
" transform="scale(0.015625)"/>
      <path id="DejaVuSans-61" d="M 2194 1759 
Q 1497 1759 1228 1600 
Q 959 1441 959 1056 
Q 959 750 1161 570 
Q 1363 391 1709 391 
Q 2188 391 2477 730 
Q 2766 1069 2766 1631 
L 2766 1759 
L 2194 1759 
z
M 3341 1997 
L 3341 0 
L 2766 0 
L 2766 531 
Q 2569 213 2275 61 
Q 1981 -91 1556 -91 
Q 1019 -91 701 211 
Q 384 513 384 1019 
Q 384 1609 779 1909 
Q 1175 2209 1959 2209 
L 2766 2209 
L 2766 2266 
Q 2766 2663 2505 2880 
Q 2244 3097 1772 3097 
Q 1472 3097 1187 3025 
Q 903 2953 641 2809 
L 641 3341 
Q 956 3463 1253 3523 
Q 1550 3584 1831 3584 
Q 2591 3584 2966 3190 
Q 3341 2797 3341 1997 
z
" transform="scale(0.015625)"/>
      <path id="DejaVuSans-72" d="M 2631 2963 
Q 2534 3019 2420 3045 
Q 2306 3072 2169 3072 
Q 1681 3072 1420 2755 
Q 1159 2438 1159 1844 
L 1159 0 
L 581 0 
L 581 3500 
L 1159 3500 
L 1159 2956 
Q 1341 3275 1631 3429 
Q 1922 3584 2338 3584 
Q 2397 3584 2469 3576 
Q 2541 3569 2628 3553 
L 2631 2963 
z
" transform="scale(0.015625)"/>
      <path id="DejaVuSans-6c" d="M 603 4863 
L 1178 4863 
L 1178 0 
L 603 0 
L 603 4863 
z
" transform="scale(0.015625)"/>
      <path id="DejaVuSans-65" d="M 3597 1894 
L 3597 1613 
L 953 1613 
Q 991 1019 1311 708 
Q 1631 397 2203 397 
Q 2534 397 2845 478 
Q 3156 559 3463 722 
L 3463 178 
Q 3153 47 2828 -22 
Q 2503 -91 2169 -91 
Q 1331 -91 842 396 
Q 353 884 353 1716 
Q 353 2575 817 3079 
Q 1281 3584 2069 3584 
Q 2775 3584 3186 3129 
Q 3597 2675 3597 1894 
z
M 3022 2063 
Q 3016 2534 2758 2815 
Q 2500 3097 2075 3097 
Q 1594 3097 1305 2825 
Q 1016 2553 972 2059 
L 3022 2063 
z
" transform="scale(0.015625)"/>
      <path id="DejaVuSans-73" d="M 2834 3397 
L 2834 2853 
Q 2591 2978 2328 3040 
Q 2066 3103 1784 3103 
Q 1356 3103 1142 2972 
Q 928 2841 928 2578 
Q 928 2378 1081 2264 
Q 1234 2150 1697 2047 
L 1894 2003 
Q 2506 1872 2764 1633 
Q 3022 1394 3022 966 
Q 3022 478 2636 193 
Q 2250 -91 1575 -91 
Q 1294 -91 989 -36 
Q 684 19 347 128 
L 347 722 
Q 666 556 975 473 
Q 1284 391 1588 391 
Q 1994 391 2212 530 
Q 2431 669 2431 922 
Q 2431 1156 2273 1281 
Q 2116 1406 1581 1522 
L 1381 1569 
Q 847 1681 609 1914 
Q 372 2147 372 2553 
Q 372 3047 722 3315 
Q 1072 3584 1716 3584 
Q 2034 3584 2315 3537 
Q 2597 3491 2834 3397 
z
" transform="scale(0.015625)"/>
      <path id="DejaVuSans-74" d="M 1172 4494 
L 1172 3500 
L 2356 3500 
L 2356 3053 
L 1172 3053 
L 1172 1153 
Q 1172 725 1289 603 
Q 1406 481 1766 481 
L 2356 481 
L 2356 0 
L 1766 0 
Q 1100 0 847 248 
Q 594 497 594 1153 
L 594 3053 
L 172 3053 
L 172 3500 
L 594 3500 
L 594 4494 
L 1172 4494 
z
" transform="scale(0.015625)"/>
      <path id="DejaVuSans-6f" d="M 1959 3097 
Q 1497 3097 1228 2736 
Q 959 2375 959 1747 
Q 959 1119 1226 758 
Q 1494 397 1959 397 
Q 2419 397 2687 759 
Q 2956 1122 2956 1747 
Q 2956 2369 2687 2733 
Q 2419 3097 1959 3097 
z
M 1959 3584 
Q 2709 3584 3137 3096 
Q 3566 2609 3566 1747 
Q 3566 888 3137 398 
Q 2709 -91 1959 -91 
Q 1206 -91 779 398 
Q 353 888 353 1747 
Q 353 2609 779 3096 
Q 1206 3584 1959 3584 
z
" transform="scale(0.015625)"/>
      <path id="DejaVuSans-6e" d="M 3513 2113 
L 3513 0 
L 2938 0 
L 2938 2094 
Q 2938 2591 2744 2837 
Q 2550 3084 2163 3084 
Q 1697 3084 1428 2787 
Q 1159 2491 1159 1978 
L 1159 0 
L 581 0 
L 581 3500 
L 1159 3500 
L 1159 2956 
Q 1366 3272 1645 3428 
Q 1925 3584 2291 3584 
Q 2894 3584 3203 3211 
Q 3513 2838 3513 2113 
z
" transform="scale(0.015625)"/>
     </defs>
     <use xlink:href="#DejaVuSans-43"/>
     <use xlink:href="#DejaVuSans-68" x="69.824219"/>
     <use xlink:href="#DejaVuSans-61" x="133.203125"/>
     <use xlink:href="#DejaVuSans-72" x="194.482422"/>
     <use xlink:href="#DejaVuSans-6c" x="235.595703"/>
     <use xlink:href="#DejaVuSans-65" x="263.378906"/>
     <use xlink:href="#DejaVuSans-73" x="324.902344"/>
     <use xlink:href="#DejaVuSans-74" x="377.001953"/>
     <use xlink:href="#DejaVuSans-6f" x="416.210938"/>
     <use xlink:href="#DejaVuSans-6e" x="477.392578"/>
    </g>
   </g>
   <g id="text_2">
    <!-- West Virginia -->
    <g transform="translate(145.223437 78.442753) scale(0.12 -0.12)">
     <defs>
      <path id="DejaVuSans-57" d="M 213 4666 
L 850 4666 
L 1831 722 
L 2809 4666 
L 3519 4666 
L 4500 722 
L 5478 4666 
L 6119 4666 
L 4947 0 
L 4153 0 
L 3169 4050 
L 2175 0 
L 1381 0 
L 213 4666 
z
" transform="scale(0.015625)"/>
      <path id="DejaVuSans-20" transform="scale(0.015625)"/>
      <path id="DejaVuSans-56" d="M 1831 0 
L 50 4666 
L 709 4666 
L 2188 738 
L 3669 4666 
L 4325 4666 
L 2547 0 
L 1831 0 
z
" transform="scale(0.015625)"/>
      <path id="DejaVuSans-69" d="M 603 3500 
L 1178 3500 
L 1178 0 
L 603 0 
L 603 3500 
z
M 603 4863 
L 1178 4863 
L 1178 4134 
L 603 4134 
L 603 4863 
z
" transform="scale(0.015625)"/>
      <path id="DejaVuSans-67" d="M 2906 1791 
Q 2906 2416 2648 2759 
Q 2391 3103 1925 3103 
Q 1463 3103 1205 2759 
Q 947 2416 947 1791 
Q 947 1169 1205 825 
Q 1463 481 1925 481 
Q 2391 481 2648 825 
Q 2906 1169 2906 1791 
z
M 3481 434 
Q 3481 -459 3084 -895 
Q 2688 -1331 1869 -1331 
Q 1566 -1331 1297 -1286 
Q 1028 -1241 775 -1147 
L 775 -588 
Q 1028 -725 1275 -790 
Q 1522 -856 1778 -856 
Q 2344 -856 2625 -561 
Q 2906 -266 2906 331 
L 2906 616 
Q 2728 306 2450 153 
Q 2172 0 1784 0 
Q 1141 0 747 490 
Q 353 981 353 1791 
Q 353 2603 747 3093 
Q 1141 3584 1784 3584 
Q 2172 3584 2450 3431 
Q 2728 3278 2906 2969 
L 2906 3500 
L 3481 3500 
L 3481 434 
z
" transform="scale(0.015625)"/>
     </defs>
     <use xlink:href="#DejaVuSans-57"/>
     <use xlink:href="#DejaVuSans-65" x="93.001953"/>
     <use xlink:href="#DejaVuSans-73" x="154.525391"/>
     <use xlink:href="#DejaVuSans-74" x="206.625"/>
     <use xlink:href="#DejaVuSans-20" x="245.833984"/>
     <use xlink:href="#DejaVuSans-56" x="277.621094"/>
     <use xlink:href="#DejaVuSans-69" x="343.779297"/>
     <use xlink:href="#DejaVuSans-72" x="371.5625"/>
     <use xlink:href="#DejaVuSans-67" x="410.925781"/>
     <use xlink:href="#DejaVuSans-69" x="474.402344"/>
     <use xlink:href="#DejaVuSans-6e" x="502.185547"/>
     <use xlink:href="#DejaVuSans-69" x="565.564453"/>
     <use xlink:href="#DejaVuSans-61" x="593.347656"/>
    </g>
   </g>
  </g>
 </g>
 <defs>
  <clipPath id="p0a567df0a1">
   <rect x="45" y="84.442753" width="279" height="194.714494"/>
  </clipPath>
 </defs>
</svg>
