<?xml version="1.0" encoding="utf-8" standalone="no"?>
<!DOCTYPE svg PUBLIC "-//W3C//DTD SVG 1.1//EN"
  "http://www.w3.org/Graphics/SVG/1.1/DTD/svg11.dtd">
<svg xmlns:xlink="http://www.w3.org/1999/xlink" width="360pt" height="360pt" viewBox="0 0 360 360" xmlns="http://www.w3.org/2000/svg" version="1.1">
 <metadata>
  <rdf:RDF xmlns:dc="http://purl.org/dc/elements/1.1/" xmlns:cc="http://creativecommons.org/ns#" xmlns:rdf="http://www.w3.org/1999/02/22-rdf-syntax-ns#">
   <cc:Work>
    <dc:type rdf:resource="http://purl.org/dc/dcmitype/StillImage"/>
    <dc:date>2023-06-19T15:20:26.163048</dc:date>
    <dc:format>image/svg+xml</dc:format>
    <dc:creator>
     <cc:Agent>
      <dc:title>Matplotlib v3.7.1, https://matplotlib.org/</dc:title>
     </cc:Agent>
    </dc:creator>
   </cc:Work>
  </rdf:RDF>
 </metadata>
 <defs>
  <style type="text/css">*{stroke-linejoin: round; stroke-linecap: butt}</style>
 </defs>
 <g id="figure_1">
  <g id="patch_1">
   <path d="M 0 360 
L 360 360 
L 360 0 
L 0 0 
z
" style="fill: #ffffff"/>
  </g>
  <g id="axes_1">
   <g id="PatchCollection_1">
    <path d="M 305.030833 158.146353 
L 305.147962 158.033393 
L 305.361331 157.993071 
L 305.443685 157.867643 
L 305.393105 157.544734 
L 305.072281 156.823901 
L 305.579453 155.509205 
L 305.814964 155.270859 
L 305.944936 155.263228 
L 306.101929 155.413883 
L 306.204756 155.675037 
L 306.636706 155.816102 
L 307.670524 155.770651 
L 308.312298 155.562119 
L 308.980717 155.641929 
L 309.327936 155.9138 
L 310.278317 155.692592 
L 310.328772 155.457499 
L 310.255508 155.059992 
L 310.34887 154.95508 
L 310.832233 155.020796 
L 311.124703 155.201932 
L 311.299293 155.60707 
L 311.318182 155.839703 
L 311.197758 155.892117 
L 310.790369 155.805385 
L 310.527254 155.889282 
L 309.816345 156.578716 
L 309.329688 157.360137 
L 308.893527 157.609199 
L 308.719229 158.102194 
L 308.812799 158.606073 
L 308.665105 158.929566 
L 308.411748 159.027681 
L 307.882809 158.969763 
L 307.580373 159.104197 
L 307.395526 159.373024 
L 307.513156 160.011546 
L 307.502273 160.385785 
L 307.378722 160.515674 
L 307.16994 160.446706 
L 306.790613 159.809936 
L 306.303331 159.305807 
L 305.816006 158.936154 
L 305.369045 158.843126 
L 305.03371 158.552449 
L 305.030833 158.146353 
" clip-path="url(#p3349998e92)" style="fill: #0000ca"/>
    <path d="M 287.550824 164.514054 
L 289.270658 163.998124 
L 289.362227 164.51593 
L 289.184677 165.603289 
L 289.55729 166.262576 
L 287.493531 165.431326 
L 287.550824 164.514054 
" clip-path="url(#p3349998e92)" style="fill: #0000ca"/>
    <path d="M 158.701429 89.320181 
L 159.035513 88.895279 
L 159.127332 88.427552 
L 159.049065 87.591174 
L 159.136797 87.198712 
L 159.384859 86.675694 
L 159.877062 86.36421 
L 160.71098 86.19379 
L 161.624375 86.210261 
L 161.688465 86.261716 
L 161.721614 86.597969 
L 161.668366 86.888521 
L 161.414133 87.485678 
L 161.285287 88.370593 
L 160.871267 88.879141 
L 160.205392 89.194378 
L 158.759222 89.651972 
L 158.701429 89.320181 
" clip-path="url(#p3349998e92)" style="fill: #0000ca"/>
    <path d="M 156.203635 94.590308 
L 157.409791 93.903333 
L 159.420052 93.399663 
L 159.822104 93.811723 
L 158.682956 94.727702 
L 157.275774 95.094228 
L 156.203635 94.590308 
" clip-path="url(#p3349998e92)" style="fill: #0000ca"/>
    <path d="M 150.930215 92.54452 
L 151.652716 91.807425 
L 153.043511 91.410752 
L 156.060319 90.741916 
L 156.289908 90.779152 
L 156.776732 91.037555 
L 156.921258 91.228156 
L 156.258301 92.110986 
L 155.786613 92.285201 
L 155.595678 92.436814 
L 155.444064 92.638966 
L 155.432848 92.835489 
L 155.348618 92.902873 
L 155.21385 92.953411 
L 155.039719 92.902831 
L 154.871301 92.818643 
L 154.377179 92.751259 
L 151.543592 93.317726 
L 151.250872 93.248716 
L 150.80633 92.795042 
L 150.930215 92.54452 
" clip-path="url(#p3349998e92)" style="fill: #0000ca"/>
    <path d="M 146.361282 96.144892 
L 146.858572 95.163071 
L 147.661133 94.704477 
L 149.839603 93.701223 
L 150.269551 94.016543 
L 149.954273 94.389156 
L 148.148416 95.07709 
L 147.030534 96.280953 
L 146.584533 96.492153 
L 146.361282 96.144892 
" clip-path="url(#p3349998e92)" style="fill: #0000ca"/>
    <path d="M 147.231185 90.920842 
L 148.291732 91.207474 
L 149.15167 92.06737 
L 149.380967 92.869973 
L 147.374501 92.984643 
L 146.199285 91.637422 
L 147.231185 90.920842 
" clip-path="url(#p3349998e92)" style="fill: #0000ca"/>
    <path d="M 145.714337 88.414042 
L 146.402271 88.041429 
L 149.461861 87.612064 
L 150.989092 87.148341 
L 151.272597 87.711306 
L 152.736071 89.12516 
L 154.112939 88.016243 
L 154.720479 87.884936 
L 155.390191 88.703468 
L 155.04293 89.472421 
L 152.686492 89.794913 
L 151.669478 90.638255 
L 150.106804 91.556028 
L 148.420079 90.042932 
L 146.086951 89.331273 
L 145.714337 88.414042 
" clip-path="url(#p3349998e92)" style="fill: #0000ca"/>
    <path d="M 145.103837 98.394082 
L 145.159337 98.34738 
L 146.47887 97.925772 
L 147.545713 97.758772 
L 147.731478 97.586267 
L 147.761834 97.332826 
L 148.048966 97.10503 
L 148.405526 96.902962 
L 149.949061 96.353132 
L 150.717054 95.955041 
L 151.289484 95.522716 
L 151.671855 95.082719 
L 152.172231 94.729287 
L 152.405573 94.66282 
L 152.985175 94.736209 
L 153.617317 95.347084 
L 154.342278 95.69568 
L 154.38948 95.79759 
L 153.997978 96.031057 
L 153.738366 96.107281 
L 152.515239 96.185798 
L 149.916995 96.976225 
L 149.61581 97.214362 
L 149.51586 97.559288 
L 150.170686 97.788919 
L 150.785272 97.802388 
L 150.885097 97.861515 
L 150.914161 97.996784 
L 150.707339 98.234921 
L 149.069191 98.516799 
L 148.235607 98.375944 
L 147.923622 98.529434 
L 147.277845 99.101364 
L 146.267836 99.647357 
L 145.951724 99.726292 
L 145.230891 99.714658 
L 145.457269 98.896293 
L 145.128731 98.544612 
L 145.103837 98.394082 
" clip-path="url(#p3349998e92)" style="fill: #0000ca"/>
    <path d="M 137.158742 90.018122 
L 138.523017 89.794913 
L 138.919857 89.373221 
L 139.39117 89.398031 
L 139.614421 89.993312 
L 139.242349 90.985516 
L 138.002084 91.035136 
L 137.233173 90.613444 
L 137.084311 90.290994 
L 137.158742 90.018122 
" clip-path="url(#p3349998e92)" style="fill: #0000ca"/>
    <path d="M 57.681818 146.622236 
L 57.735484 146.412661 
L 57.729813 146.271972 
L 57.689532 146.179028 
L 57.725476 145.964616 
L 57.782018 145.886683 
L 57.853906 145.517531 
L 57.915744 145.325678 
L 58.064689 145.069861 
L 58.149795 144.666099 
L 58.208297 144.093794 
L 58.431089 143.770927 
L 58.436093 143.749452 
L 58.363122 143.645124 
L 58.484588 143.135616 
L 58.450104 143.004309 
L 58.470786 142.90315 
L 58.616937 142.775762 
L 58.745784 142.708295 
L 59.129114 142.670308 
L 59.232191 142.641995 
L 59.248704 142.61927 
L 59.254917 142.485836 
L 59.319007 142.436841 
L 59.559687 142.419661 
L 59.644251 142.383759 
L 59.858329 142.267922 
L 60.076492 142.254662 
L 60.147546 142.229894 
L 60.271305 142.107468 
L 60.665518 141.882841 
L 60.816465 141.85482 
L 60.945812 141.793816 
L 61.132995 141.655337 
L 61.190413 141.558931 
L 61.24633 141.472074 
L 61.412496 141.398436 
L 61.997269 140.958855 
L 62.132704 140.589161 
L 62.205926 140.192988 
L 62.336065 139.882296 
L 62.520829 139.6648 
L 62.672401 139.548879 
L 62.947483 139.413444 
L 63.065196 139.300568 
L 63.115025 139.191778 
L 63.109521 138.998215 
L 63.022956 138.820624 
L 62.945148 138.718339 
L 62.819345 138.42933 
L 62.787029 138.329546 
L 62.809337 138.20733 
L 62.952528 138.053964 
L 63.046516 137.992251 
L 63.475088 137.768083 
L 63.62616 137.73731 
L 63.858251 137.535992 
L 63.887981 137.48191 
L 64.019789 137.000339 
L 64.004485 136.824082 
L 64.106437 136.625933 
L 64.6448 135.9714 
L 65.004445 135.641985 
L 65.204637 135.508719 
L 65.389651 135.456429 
L 65.568202 135.444087 
L 66.196132 135.131852 
L 66.501236 135.030484 
L 66.537514 134.984283 
L 66.492897 134.840341 
L 66.519584 134.792722 
L 66.762057 134.618633 
L 67.212521 134.339674 
L 67.355295 134.276918 
L 68.064536 134.272206 
L 68.091306 134.213162 
L 68.02288 133.941833 
L 68.030344 133.897508 
L 68.076712 133.871447 
L 68.18129 133.851932 
L 68.475511 133.944919 
L 68.539601 133.933327 
L 68.748216 133.828915 
L 69.09873 133.85631 
L 69.243804 133.76946 
L 69.348292 133.706906 
L 69.593018 133.594197 
L 70.10682 133.55425 
L 70.505995 133.367568 
L 70.742548 133.290302 
L 70.956375 133.288509 
L 71.311142 133.169253 
L 71.699892 133.142357 
L 71.731041 133.117797 
L 71.786416 132.917689 
L 71.752474 132.762572 
L 71.788584 132.461221 
L 71.844751 132.416604 
L 71.960547 132.37232 
L 72.293005 132.051246 
L 72.592938 131.880284 
L 72.73738 131.824951 
L 72.946704 131.785004 
L 73.052784 131.79693 
L 73.75969 131.960469 
L 74.240843 132.1454 
L 74.506168 132.13239 
L 74.721121 132.210782 
L 75.001206 132.254148 
L 75.143271 132.21833 
L 75.346466 132.115919 
L 75.480775 131.984154 
L 75.485862 131.951254 
L 75.390332 131.897422 
L 75.359309 131.859227 
L 75.345173 131.750186 
L 75.430028 131.632932 
L 75.679508 131.533148 
L 75.809647 131.421815 
L 75.798722 131.285962 
L 75.827202 131.218787 
L 75.882452 131.107912 
L 75.965723 131.032397 
L 76.188223 130.744306 
L 76.185638 130.635224 
L 76.273079 130.451752 
L 76.54962 130.240969 
L 76.844508 130.1155 
L 77.172212 130.010087 
L 77.591152 129.989655 
L 77.69081 130.015883 
L 78.340382 130.311522 
L 78.797976 130.416017 
L 79.172841 130.534273 
L 79.613839 130.579932 
L 79.78797 130.567006 
L 80.046706 130.472268 
L 80.121053 130.418185 
L 80.106792 130.334873 
L 80.119927 130.213615 
L 80.150075 130.141227 
L 80.2725 130.065962 
L 80.360108 129.982525 
L 80.380915 129.936865 
L 80.43579 129.68601 
L 80.386794 129.420144 
L 80.392841 129.333704 
L 80.483784 129.232211 
L 80.595868 129.036773 
L 80.610504 128.951792 
L 80.731595 128.648522 
L 80.832629 128.511962 
L 80.962143 128.406924 
L 81.042954 128.366727 
L 81.399013 128.237088 
L 81.923282 128.106949 
L 82.261787 128.082806 
L 82.453806 128.024929 
L 82.452305 127.85943 
L 82.47478 126.380068 
L 82.467458 124.56633 
L 82.465857 124.16949 
L 82.461145 123.617617 
L 82.473612 121.761848 
L 82.471069 120.950197 
L 82.493794 118.820013 
L 82.496588 118.70084 
L 82.503552 118.436808 
L 82.503593 118.320554 
L 82.501884 118.043471 
L 82.505094 118.006944 
L 82.50597 117.81163 
L 82.496922 117.703966 
L 82.502718 113.729063 
L 82.50326 113.576615 
L 82.508263 113.113058 
L 82.517312 111.162926 
L 82.523108 110.461399 
L 82.539579 110.110636 
L 82.553297 105.913649 
L 82.555382 105.067513 
L 82.530572 103.470438 
L 82.530572 103.467269 
L 82.530572 103.353684 
L 82.5681 103.266118 
L 82.730722 103.299476 
L 82.743232 103.487117 
L 82.78076 103.591362 
L 82.885005 103.653951 
L 83.101834 103.662291 
L 83.272796 103.712328 
L 83.339513 103.904139 
L 83.431249 103.991705 
L 83.623018 103.979195 
L 83.885757 103.724838 
L 84.015021 103.658121 
L 84.602921 104.054252 
L 84.890678 104.020893 
L 85.186734 103.899969 
L 85.395224 103.912479 
L 85.69128 104.029233 
L 85.858072 104.025063 
L 86.079071 103.941667 
L 86.279222 103.812403 
L 86.30841 103.745687 
L 86.283392 103.649781 
L 86.145788 103.407933 
L 86.204165 103.316197 
L 86.395976 103.178594 
L 86.687862 102.907557 
L 86.892182 102.815821 
L 87.150752 102.761614 
L 87.309204 102.62818 
L 87.371751 102.507256 
L 87.355072 102.344634 
L 87.296695 102.277917 
L 87.079865 102.136144 
L 86.437716 102.098616 
L 86.158298 102.00688 
L 86.137449 101.831748 
L 86.179188 101.769201 
L 86.308452 101.689975 
L 86.483584 101.619089 
L 86.654545 101.468976 
L 86.729602 101.260486 
L 86.829677 101.206279 
L 87.254997 101.239637 
L 87.446807 101.218788 
L 87.738693 101.106203 
L 88.243239 101.273037 
L 88.514276 101.306395 
L 88.614351 101.273037 
L 88.822841 100.885246 
L 88.735275 100.764321 
L 88.739487 100.493284 
L 88.964656 100.288964 
L 89.852823 99.909513 
L 90.203087 99.888664 
L 90.982839 99.884494 
L 93.297078 101.564965 
L 93.868382 101.769285 
L 94.076831 101.667959 
L 94.381268 101.727587 
L 95.219397 102.240472 
L 95.824018 102.50317 
L 96.303545 102.665792 
L 97.091679 102.774207 
L 99.427809 102.345885 
L 100.657942 102.256192 
L 101.374063 102.367484 
L 102.218907 102.347344 
L 103.465468 102.159745 
L 105.153486 101.557042 
L 105.738003 101.413343 
L 109.496249 100.489407 
L 111.78205 99.672209 
L 112.465605 99.540569 
L 113.418238 99.616209 
L 113.419781 99.616542 
L 114.01577 99.653153 
L 115.101503 99.542028 
L 115.576068 99.383993 
L 115.879087 99.15799 
L 116.806784 99.064252 
L 117.676354 98.881115 
L 118.744406 98.511379 
L 119.241196 98.199895 
L 119.805912 98.134304 
L 120.088917 98.176335 
L 121.033376 98.02493 
L 121.367586 97.845628 
L 121.726731 97.458629 
L 122.308042 97.029682 
L 123.285235 96.649355 
L 123.807294 96.502661 
L 125.32631 96.352507 
L 125.708305 96.229789 
L 125.954282 96.052656 
L 126.70789 95.264564 
L 126.955451 95.115494 
L 127.587134 94.981476 
L 127.759055 95.022716 
L 127.887693 95.315394 
L 128.068329 95.515503 
L 128.977971 95.922392 
L 129.423764 95.901501 
L 130.247883 95.13751 
L 130.396787 94.836493 
L 130.56779 94.715568 
L 130.797004 94.745216 
L 130.852504 94.834825 
L 130.720113 95.225368 
L 130.785328 95.308305 
L 131.278991 95.425602 
L 132.013668 95.365265 
L 132.385823 95.202226 
L 132.504704 94.436984 
L 132.621375 94.32073 
L 133.036895 94.281576 
L 133.567752 94.502575 
L 134.202771 94.376814 
L 134.749057 94.047191 
L 134.885326 93.865221 
L 134.973058 93.4708 
L 135.614248 93.118493 
L 136.195602 92.922471 
L 136.460426 92.931978 
L 136.614667 92.865178 
L 137.05383 92.530552 
L 137.506754 91.87581 
L 137.729254 91.767145 
L 137.877449 91.772565 
L 138.308106 91.995691 
L 139.672714 92.292039 
L 140.005173 92.205391 
L 140.22367 91.875768 
L 141.431953 91.17595 
L 141.786177 91.049147 
L 142.422155 91.003154 
L 143.179307 91.203054 
L 145.35219 92.495984 
L 146.64708 93.670241 
L 146.801112 93.88853 
L 146.793898 94.100022 
L 146.639491 94.228577 
L 146.354568 94.299881 
L 145.99584 94.586513 
L 145.545419 95.30818 
L 144.796356 96.802887 
L 143.680517 97.607033 
L 143.582068 97.875693 
L 143.267249 98.194933 
L 142.39476 98.231377 
L 142.102415 98.578304 
L 142.273252 98.852677 
L 142.152828 99.09661 
L 141.975486 99.252018 
L 141.206784 99.588396 
L 141.274543 99.978439 
L 141.816617 100.966432 
L 142.554338 101.955133 
L 142.507428 102.210533 
L 141.897011 102.756026 
L 141.171424 103.173048 
L 140.111794 103.477068 
L 139.950381 103.671923 
L 139.713412 104.550041 
L 139.7092 104.790513 
L 139.561131 105.047665 
L 138.969311 105.760492 
L 138.513093 105.983451 
L 138.43295 106.081608 
L 138.435743 106.231221 
L 138.833792 106.590407 
L 139.454094 106.73062 
L 139.820534 106.81345 
L 140.172924 106.828753 
L 140.349848 106.794519 
L 141.701614 106.056506 
L 141.95322 106.027818 
L 143.541455 105.437583 
L 144.969861 105.067513 
L 145.994923 104.601079 
L 146.616432 104.177344 
L 146.56606 103.414187 
L 146.916532 103.196274 
L 147.272675 102.355475 
L 147.368121 102.260154 
L 149.141913 103.422068 
L 151.92884 105.113464 
L 153.664978 106.113215 
L 154.837025 106.675263 
L 155.193323 106.768897 
L 155.678449 106.896387 
L 156.198173 106.652662 
L 157.014995 106.540578 
L 158.355544 107.184228 
L 159.86351 107.713209 
L 160.674953 107.521315 
L 160.779865 107.643282 
L 160.822564 107.887173 
L 160.828068 107.887173 
L 161.106986 108.098749 
L 161.197971 108.293145 
L 161.347 108.426579 
L 161.413299 108.426579 
L 161.429478 108.426579 
L 161.483644 108.495213 
L 161.615993 108.762956 
L 161.628336 108.862031 
L 161.70973 108.917322 
L 161.963755 108.873623 
L 162.496113 108.642241 
L 162.683629 108.58649 
L 163.032391 108.549588 
L 163.196014 108.598082 
L 163.223618 108.584739 
L 163.278868 108.596164 
L 163.368727 108.711418 
L 163.450205 108.731391 
L 163.511042 108.720424 
L 163.538521 108.689443 
L 163.619749 108.314036 
L 163.752182 108.105379 
L 164.061456 108.022442 
L 164.271364 108.055717 
L 164.452291 108.181478 
L 164.431609 108.27388 
L 164.488235 108.35294 
L 164.571089 108.37579 
L 164.749181 108.347227 
L 165.148189 108.635861 
L 165.170289 108.740648 
L 165.105365 109.080778 
L 164.999119 109.285557 
L 164.859722 109.375083 
L 164.89283 109.555135 
L 165.021636 109.601837 
L 165.023929 109.601837 
L 165.076385 109.563725 
L 165.279246 109.510393 
L 165.327532 109.506557 
L 165.453126 109.550423 
L 165.672541 109.534244 
L 165.834038 109.491379 
L 165.838207 109.448513 
L 165.898961 109.402812 
L 166.196977 109.491462 
L 166.292215 109.490545 
L 166.479981 109.348646 
L 166.503499 109.28293 
L 166.554579 109.256244 
L 166.743554 109.396349 
L 166.769741 109.453517 
L 166.655071 109.634486 
L 166.834331 109.789853 
L 166.833914 109.828799 
L 166.82866 109.87867 
L 166.823406 109.933836 
L 166.844422 109.970572 
L 166.915308 109.978453 
L 166.996703 109.970572 
L 167.054455 110.017858 
L 167.054455 110.065101 
L 167.049201 110.117641 
L 167.143063 110.161507 
L 167.247892 110.159631 
L 167.3252 110.132068 
L 167.38733 110.080655 
L 167.761194 110.053926 
L 167.850886 110.075818 
L 167.961303 110.058596 
L 168.257859 109.980371 
L 168.453673 109.866911 
L 168.504711 109.872623 
L 168.544783 109.944052 
L 168.481443 110.083157 
L 168.477315 110.137447 
L 168.506337 110.205082 
L 168.572595 110.211711 
L 168.838795 110.136363 
L 168.914644 110.135404 
L 169.078851 110.203956 
L 169.150905 110.279512 
L 169.151864 110.353151 
L 169.280711 110.679646 
L 169.60362 111.187361 
L 169.698775 111.274969 
L 170.046244 111.424539 
L 170.229632 111.569315 
L 170.244768 111.607427 
L 170.211702 111.65317 
L 170.104163 111.711255 
L 170.050414 111.814166 
L 170.156535 111.938009 
L 170.22271 111.984669 
L 170.590737 112.080908 
L 170.637605 112.233355 
L 170.693981 112.756332 
L 170.831751 112.793526 
L 171.150199 112.785395 
L 171.150616 112.807912 
L 171.166586 112.880258 
L 171.296017 113.004143 
L 171.496959 113.502392 
L 171.512054 113.592919 
L 171.481573 113.872962 
L 171.528316 114.059686 
L 171.733262 114.393187 
L 171.924614 114.478042 
L 171.988454 114.563648 
L 172.090905 114.853449 
L 172.297269 115.072614 
L 172.470607 115.188909 
L 172.524273 115.192746 
L 172.595827 115.228981 
L 172.495501 115.490428 
L 172.495209 115.491762 
L 172.528234 115.621818 
L 172.646448 115.731442 
L 172.834881 115.827764 
L 172.984744 115.964784 
L 172.991666 116.005732 
L 172.990498 116.062524 
L 173.011264 116.109226 
L 173.066055 116.126697 
L 173.11676 116.12553 
L 173.119512 116.125238 
L 173.155539 116.146671 
L 173.238226 116.317132 
L 173.242521 116.504815 
L 173.21229 116.553393 
L 173.117927 116.594382 
L 173.081024 116.681281 
L 173.098371 116.73774 
L 173.124474 116.774684 
L 173.15704 116.855036 
L 173.12881 116.961491 
L 173.061426 117.005024 
L 173.049084 117.026915 
L 173.054588 117.065027 
L 173.086237 117.080247 
L 181.064371 118.627331 
L 181.496347 118.711098 
L 181.866959 118.766931 
L 181.93843 118.782151 
L 187.930015 119.947818 
L 191.970092 120.710266 
L 193.187715 120.960162 
L 197.549951 121.780988 
L 199.137727 122.106982 
L 208.262917 123.866012 
L 208.279346 123.86889 
L 210.636325 124.316226 
L 210.711715 124.330028 
L 211.232899 124.437609 
L 211.331639 124.453787 
L 211.415286 124.478556 
L 211.697789 124.540436 
L 212.84953 124.752011 
L 213.063441 124.795878 
L 214.590463 125.099648 
L 215.987596 125.35092 
L 220.188464 127.067841 
L 220.191713 127.069169 
L 221.947574 127.781913 
L 222.173536 127.876234 
L 222.612478 128.054007 
L 226.051825 129.446956 
L 226.127131 129.506 
L 226.1632 129.576762 
L 226.317316 129.748182 
L 226.455711 129.828993 
L 226.563834 129.868022 
L 226.67817 129.861601 
L 226.832661 129.891206 
L 227.289338 130.03127 
L 227.460425 130.128718 
L 227.504708 130.169165 
L 227.496285 130.195602 
L 227.649775 130.225249 
L 228.074553 130.136516 
L 228.295594 130.14202 
L 228.323531 130.089522 
L 228.304684 130.006585 
L 228.120045 129.87386 
L 228.307186 129.720578 
L 228.490073 129.789588 
L 228.798013 129.762401 
L 229.014425 129.797427 
L 229.039152 129.822363 
L 229.034732 129.922271 
L 228.830371 130.110663 
L 228.814859 130.167914 
L 228.819696 130.253395 
L 228.89421 130.435865 
L 228.985487 130.482651 
L 229.140937 130.46201 
L 229.410932 130.335373 
L 229.453464 130.268531 
L 229.469601 130.242262 
L 229.498581 130.223831 
L 229.51968 130.213282 
L 229.55921 130.202732 
L 229.59874 130.205359 
L 229.658826 130.211322 
L 229.814068 130.300055 
L 229.873529 130.311439 
L 229.970394 130.285127 
L 230.064715 130.189764 
L 230.142148 130.142895 
L 230.382078 130.050576 
L 230.650113 129.987612 
L 231.038696 130.019845 
L 231.28363 130.104575 
L 231.436912 130.208403 
L 231.428823 130.350385 
L 231.550664 130.572385 
L 231.773665 130.598071 
L 231.887126 130.446498 
L 232.122344 130.369315 
L 232.371323 130.379782 
L 232.66546 130.482692 
L 233.013996 130.535459 
L 233.187936 130.561793 
L 233.376661 130.685678 
L 233.507927 130.913474 
L 233.563927 131.128094 
L 233.529568 131.128094 
L 233.515891 131.166915 
L 233.674469 131.332789 
L 233.822121 131.408096 
L 233.835214 131.443331 
L 233.803899 131.487531 
L 233.785469 131.550161 
L 233.831545 131.581476 
L 233.864695 131.596237 
L 233.930995 131.592526 
L 234.079106 131.573011 
L 234.923907 131.753439 
L 235.003217 131.746809 
L 235.034741 131.644815 
L 235.067557 131.626719 
L 235.48904 131.600282 
L 235.803527 131.639186 
L 235.896471 131.594361 
L 235.942881 131.517136 
L 236.005428 131.175921 
L 236.009473 130.987363 
L 236.177432 130.667998 
L 236.32225 130.451586 
L 236.427537 130.392458 
L 236.5671 130.391457 
L 236.743608 130.495327 
L 236.766875 130.52389 
L 236.784722 130.643021 
L 236.914778 130.892709 
L 236.94626 130.9146 
L 237.293604 130.835457 
L 237.613637 130.634306 
L 237.673765 130.55041 
L 237.926789 130.471309 
L 238.364534 130.50179 
L 238.540958 130.588563 
L 238.944512 130.552411 
L 239.030701 130.509546 
L 239.203123 130.3714 
L 239.259248 130.295176 
L 239.246947 130.254187 
L 239.305783 130.241803 
L 239.545171 130.258065 
L 239.692865 130.312439 
L 240.048549 130.295427 
L 240.260584 130.326992 
L 240.357657 130.363228 
L 240.398646 130.411847 
L 240.409446 130.568173 
L 240.651836 131.107245 
L 240.708879 131.109914 
L 240.786729 131.167498 
L 240.786771 131.19798 
L 240.736274 131.278082 
L 240.765088 131.328578 
L 240.970325 131.453338 
L 241.209672 131.503709 
L 241.533707 131.46835 
L 241.65805 131.425442 
L 241.740029 131.349177 
L 241.693494 131.268157 
L 241.71255 131.177589 
L 241.87267 131.084436 
L 242.094211 131.097738 
L 242.38126 131.151695 
L 242.560437 131.229795 
L 242.580994 131.286046 
L 242.564607 131.400423 
L 242.72873 131.535733 
L 242.794362 131.552871 
L 243.030915 131.514718 
L 243.170395 131.524267 
L 243.334477 131.621465 
L 243.406948 131.701525 
L 243.737821 131.789216 
L 243.849906 131.879784 
L 243.896399 131.953172 
L 243.866293 132.020848 
L 243.978377 132.095196 
L 244.121902 132.155282 
L 244.208008 132.148611 
L 244.365293 131.996163 
L 244.415872 131.973271 
L 244.708426 131.910473 
L 244.866961 131.948669 
L 245.022829 131.943957 
L 245.292239 131.848719 
L 245.48109 131.621965 
L 245.442894 131.533315 
L 245.653511 131.474312 
L 247.553063 132.426945 
L 247.740329 132.546076 
L 247.815552 132.625177 
L 248.14088 132.795764 
L 248.292535 132.753815 
L 248.600016 132.820532 
L 248.956743 132.954007 
L 249.12341 133.054124 
L 249.194463 133.158953 
L 249.314678 133.164707 
L 249.691878 132.998916 
L 250.315055 132.899049 
L 250.692297 132.81532 
L 250.81272 132.68001 
L 250.881064 132.646693 
L 251.076335 132.662997 
L 251.076335 132.645275 
L 251.1187 132.641481 
L 251.235872 132.669836 
L 251.2513 132.847344 
L 251.22453 132.936119 
L 251.259014 133.038279 
L 251.313222 133.121884 
L 251.393865 133.196064 
L 251.512538 133.253649 
L 251.784909 133.319407 
L 251.999737 133.307606 
L 252.175494 133.264908 
L 252.242461 133.273206 
L 252.540269 133.337295 
L 252.701515 133.439247 
L 252.767106 133.449713 
L 253.089556 133.412477 
L 253.078548 133.218039 
L 253.26573 133.082687 
L 253.320396 133.073139 
L 253.50074 133.096948 
L 253.592559 133.119132 
L 254.083803 133.331666 
L 254.187047 133.423986 
L 254.308138 133.585857 
L 254.413718 133.650281 
L 254.669618 133.697399 
L 254.705228 133.668086 
L 254.888741 133.66721 
L 255.403795 133.823577 
L 255.401001 133.870279 
L 255.421475 133.89313 
L 255.626921 134.019808 
L 256.192888 134.205573 
L 256.247346 134.268704 
L 256.192805 134.328123 
L 256.185966 134.361482 
L 256.236504 134.399635 
L 256.424896 134.430867 
L 256.564876 134.414605 
L 256.634147 134.391135 
L 256.696683 134.369946 
L 257.141184 134.373699 
L 257.215323 134.384207 
L 257.48269 134.575851 
L 257.528016 134.663333 
L 257.530309 134.716707 
L 257.371107 134.78063 
L 257.25431 134.856187 
L 257.145771 135.010594 
L 257.099861 135.113171 
L 257.080722 135.262283 
L 257.087185 135.4174 
L 257.109452 135.438166 
L 257.26094 135.983951 
L 257.32749 136.079814 
L 257.510003 136.128309 
L 258.005208 136.080607 
L 258.096276 136.108544 
L 258.423064 136.313824 
L 258.456839 136.465646 
L 258.372943 136.762536 
L 258.273368 136.804526 
L 258.102114 136.751903 
L 258.062543 136.757866 
L 257.962676 136.862152 
L 257.861183 137.069975 
L 257.802556 137.13665 
L 257.406383 137.375079 
L 257.060456 137.75328 
L 256.957587 137.819163 
L 256.84763 137.831506 
L 256.741675 137.885921 
L 256.472473 138.090075 
L 256.379737 138.233099 
L 256.177043 138.332841 
L 255.93386 138.501509 
L 255.874357 138.561304 
L 255.830866 138.672429 
L 256.009167 138.994212 
L 256.108116 139.078609 
L 256.668412 139.295814 
L 256.940199 139.316455 
L 257.023595 139.35465 
L 257.113288 139.461564 
L 257.106491 139.514312 
L 257.071757 139.567101 
L 257.201187 139.826129 
L 257.352593 139.875124 
L 257.584809 140.063933 
L 257.812355 140.104005 
L 258.180381 140.093455 
L 258.238884 140.122685 
L 258.321696 140.232893 
L 258.50033 140.288977 
L 259.077222 140.269861 
L 259.395044 140.25933 
L 259.483444 140.193572 
L 259.642605 140.144827 
L 259.801266 140.030825 
L 259.829245 139.914737 
L 259.849761 139.898475 
L 260.106662 139.890553 
L 260.208572 139.914863 
L 260.371027 139.916656 
L 260.522308 139.878961 
L 260.772996 139.780512 
L 261.212701 139.791478 
L 261.439955 139.712294 
L 261.678343 139.656252 
L 261.863023 139.658003 
L 261.930407 139.681604 
L 262.009175 139.754659 
L 262.231217 140.177101 
L 262.304063 140.425913 
L 262.265742 140.504973 
L 262.198901 140.521026 
L 262.072264 140.733686 
L 262.472314 140.841309 
L 262.655118 140.87033 
L 262.883665 140.966152 
L 263.007675 141.100712 
L 262.977277 141.156295 
L 263.030359 141.208043 
L 263.204448 141.243611 
L 263.405349 141.199953 
L 263.836756 141.241318 
L 264.234055 141.213296 
L 264.461517 141.118642 
L 264.566555 141.150916 
L 264.758866 141.259373 
L 265.303692 141.204832 
L 265.352145 141.163843 
L 265.431288 141.16034 
L 265.481992 141.168721 
L 265.563303 141.220052 
L 265.622014 141.277553 
L 265.675971 141.404982 
L 265.74444 141.44643 
L 265.841638 141.45552 
L 266.013725 141.381715 
L 266.415861 141.351525 
L 266.517979 141.348857 
L 266.684729 141.388678 
L 266.78789 141.532495 
L 267.005887 141.572608 
L 267.171428 141.730227 
L 267.216921 141.838933 
L 267.182562 141.856863 
L 267.163964 142.087078 
L 267.532575 142.512231 
L 267.893807 142.711877 
L 268.288851 142.930212 
L 268.534911 143.012815 
L 269.33151 143.164387 
L 269.422995 143.209129 
L 269.601337 143.350444 
L 269.634112 143.428294 
L 269.634321 143.487422 
L 269.46315 143.621648 
L 269.46757 143.6475 
L 269.637782 143.810998 
L 269.767587 143.891642 
L 270.357739 144.170268 
L 270.58712 144.342356 
L 270.646248 144.455107 
L 270.649208 144.659052 
L 270.63795 144.7226 
L 270.612264 144.74987 
L 270.039667 144.831015 
L 269.891722 144.880802 
L 269.708793 145.032833 
L 268.880087 145.189701 
L 268.850732 145.22356 
L 268.858905 145.311251 
L 268.910902 145.386515 
L 268.899727 145.467201 
L 268.81704 145.586707 
L 268.840975 145.839939 
L 268.936213 145.90453 
L 269.125563 145.973873 
L 269.42091 146.190453 
L 269.659131 146.599051 
L 269.971782 146.820885 
L 270.005308 146.885058 
L 270.017775 147.019659 
L 270.178896 147.106808 
L 270.644705 147.196751 
L 270.777054 147.421711 
L 270.836807 147.89736 
L 270.796736 148.285068 
L 270.627609 148.402532 
L 270.444471 148.474335 
L 270.397769 148.521454 
L 270.365787 148.582083 
L 270.375878 148.851869 
L 270.332762 149.142296 
L 270.313081 149.225441 
L 270.226516 149.302624 
L 270.164052 149.346032 
L 269.948724 149.384853 
L 269.591455 149.354038 
L 269.272841 149.257632 
L 268.62231 149.107478 
L 268.524612 149.138376 
L 268.445302 149.367965 
L 268.47128 149.495895 
L 268.499301 149.524833 
L 268.711169 149.656057 
L 269.062433 149.802834 
L 269.273174 149.948109 
L 269.547464 150.160477 
L 269.704623 150.379434 
L 269.705708 150.431806 
L 269.657171 150.542014 
L 269.649165 150.672487 
L 269.670723 150.94636 
L 269.75145 151.381812 
L 269.896267 151.713144 
L 270.128901 151.765642 
L 270.147498 151.976675 
L 270.119227 152.043184 
L 269.995717 152.197174 
L 269.936714 152.331067 
L 269.914281 152.535554 
L 269.889346 152.59464 
L 269.558639 152.847121 
L 269.537915 152.933061 
L 269.601087 153.043602 
L 269.605257 153.095349 
L 269.367745 153.31001 
L 269.305115 153.388861 
L 269.304906 153.469797 
L 268.967945 153.645096 
L 268.702204 153.723446 
L 268.492629 153.850875 
L 268.468194 153.910253 
L 268.344518 154.02363 
L 267.977284 154.126457 
L 267.868285 154.303007 
L 267.540164 154.419678 
L 267.273338 154.707644 
L 267.262789 154.766063 
L 267.338804 154.911505 
L 267.326086 155.165029 
L 267.501885 155.47372 
L 267.685606 155.59873 
L 267.738855 155.657858 
L 267.774924 155.748217 
L 267.789351 155.983644 
L 267.720674 156.06483 
L 267.380335 156.188173 
L 267.353565 156.258601 
L 267.360654 156.294836 
L 267.476282 156.432565 
L 267.368368 156.636009 
L 267.149078 156.760895 
L 266.889383 156.849128 
L 266.778341 156.922475 
L 266.70095 157.005204 
L 266.689775 157.101985 
L 266.852522 157.247719 
L 266.865198 157.331574 
L 266.987165 157.790627 
L 267.050671 157.807306 
L 267.107464 157.887533 
L 267.124185 157.981103 
L 267.140905 158.031224 
L 267.198616 158.104071 
L 267.307781 158.180295 
L 267.401768 158.214237 
L 267.644993 158.250973 
L 267.74365 158.334577 
L 267.765291 158.453041 
L 267.699575 158.549614 
L 267.706122 158.590853 
L 267.755534 158.62884 
L 267.829131 158.618791 
L 268.255576 158.434277 
L 268.312244 158.377985 
L 268.373915 158.189135 
L 268.486125 158.13622 
L 268.604422 158.146394 
L 268.723553 158.207565 
L 268.809576 158.200268 
L 268.863825 158.161739 
L 268.885758 158.119499 
L 269.425831 158.177084 
L 269.826632 158.079552 
L 270.249449 158.086391 
L 270.347732 158.121084 
L 270.551677 158.241466 
L 270.934256 158.178877 
L 271.03921 158.179544 
L 271.131445 158.18017 
L 271.425166 158.296674 
L 271.759751 158.253266 
L 271.870334 158.156819 
L 271.863079 158.05616 
L 271.892184 158.019966 
L 272.416578 157.886282 
L 272.439553 157.828239 
L 272.622691 157.628213 
L 273.228062 157.084888 
L 273.668477 156.928271 
L 273.733609 156.819481 
L 273.834935 156.751304 
L 274.024244 156.648519 
L 274.267802 156.566541 
L 274.421042 156.569501 
L 274.602303 156.615828 
L 274.730233 156.772654 
L 275.05752 156.876732 
L 275.076993 156.910299 
L 275.083123 157.059745 
L 275.120234 157.106405 
L 275.794241 157.448078 
L 275.824472 157.508832 
L 275.858539 157.700184 
L 275.824138 157.870687 
L 275.951901 158.0547 
L 276.073117 158.07163 
L 276.164227 158.13647 
L 276.195375 158.199935 
L 276.206842 158.428815 
L 276.178821 158.672164 
L 275.859873 159.028641 
L 275.690788 159.099652 
L 275.616857 159.1637 
L 275.599094 159.212654 
L 275.621152 159.423145 
L 275.530834 159.553618 
L 275.465077 159.601237 
L 275.374175 159.632719 
L 275.044552 159.985193 
L 274.887893 160.071341 
L 274.537088 160.396001 
L 274.533752 160.46989 
L 274.417581 160.72062 
L 274.288151 160.828826 
L 274.088834 161.085811 
L 274.036962 161.288172 
L 274.080161 161.47944 
L 274.066651 161.590023 
L 273.888475 161.689223 
L 273.634785 161.968599 
L 273.691411 162.051912 
L 273.634451 162.205944 
L 273.537086 162.598948 
L 273.542966 162.818238 
L 273.507731 162.857893 
L 273.45711 162.876657 
L 273.304787 162.869193 
L 273.254207 162.886289 
L 273.008523 163.098824 
L 272.964781 163.169585 
L 272.976665 163.234717 
L 273.101134 163.298641 
L 273.12536 163.365232 
L 273.0787 163.51276 
L 272.891935 163.694563 
L 272.878425 163.812151 
L 272.924334 163.957636 
L 272.923375 164.093112 
L 272.849903 164.152949 
L 272.500516 164.290678 
L 272.369042 164.396048 
L 272.275639 164.559713 
L 272.272595 164.607666 
L 272.547593 165.416982 
L 272.493427 165.594324 
L 272.510315 165.642068 
L 272.55072 165.671507 
L 272.728729 165.697568 
L 272.857909 165.752484 
L 272.989967 165.841885 
L 273.05168 165.938249 
L 273.267509 166.104415 
L 273.543675 166.196568 
L 273.676608 166.319243 
L 273.707589 166.374493 
L 273.87017 166.477612 
L 273.99001 166.520061 
L 274.221976 166.547832 
L 274.333727 166.590239 
L 274.498434 166.676637 
L 274.687034 166.814157 
L 275.024204 167.192608 
L 275.01553 167.233055 
L 274.911828 167.353354 
L 274.92442 167.400055 
L 275.164684 167.766581 
L 275.225021 167.817661 
L 275.38756 167.899389 
L 275.596634 168.098993 
L 275.629659 168.130521 
L 275.633203 168.30928 
L 275.685701 168.341263 
L 275.803164 168.338928 
L 275.995934 168.294519 
L 276.176111 168.388965 
L 276.679864 168.407729 
L 276.870633 168.39497 
L 276.952528 168.432498 
L 276.983467 168.48608 
L 277.033046 168.515727 
L 277.284527 168.554465 
L 277.564404 168.651829 
L 278.524167 168.875956 
L 278.593886 168.85198 
L 278.721523 169.092535 
L 278.686289 169.268668 
L 278.536551 169.330339 
L 278.405828 169.27438 
L 278.108479 169.392678 
L 277.752128 169.67122 
L 277.111939 170.941341 
L 277.15593 172.233187 
L 276.922213 173.788981 
L 275.601804 173.948684 
L 274.162056 173.89873 
L 271.40465 174.250517 
L 271.227351 174.273136 
L 269.304364 174.741863 
L 269.031826 174.862954 
L 268.21859 175.67152 
L 268.034911 175.978543 
L 267.9988 176.221684 
L 268.064683 176.490511 
L 268.196365 176.760297 
L 268.688819 177.359831 
L 268.479786 177.788903 
L 268.246486 178.078787 
L 267.830966 178.22669 
L 267.644784 178.459365 
L 267.565891 178.754962 
L 267.084029 179.47592 
L 266.584446 179.537008 
L 265.628769 180.022831 
L 265.489206 180.383185 
L 264.558006 182.058111 
L 263.947673 182.995273 
L 263.526231 183.119241 
L 262.977736 183.516915 
L 262.194647 184.491564 
L 261.935161 185.8932 
L 261.927029 186.268274 
L 261.918773 186.64906 
L 261.41944 186.833365 
L 261.099158 187.957293 
L 261.111792 188.235961 
L 261.55992 189.116205 
L 261.425361 189.340499 
L 260.989534 189.401837 
L 260.822366 189.833244 
L 260.376239 190.379488 
L 260.000957 190.471224 
L 259.788339 190.646814 
L 259.737801 190.896668 
L 260.031787 191.114775 
L 261.276291 192.038067 
L 262.728048 192.41018 
L 263.849766 192.435157 
L 264.029137 192.358804 
L 264.466896 192.17246 
L 264.967314 191.667914 
L 265.627101 190.799262 
L 265.722548 190.582015 
L 265.707852 190.560031 
L 265.522356 190.28254 
L 265.627018 190.147939 
L 266.021564 189.962925 
L 267.057051 189.151816 
L 268.55968 188.520133 
L 269.478245 187.988275 
L 270.881758 187.865557 
L 271.273135 187.751222 
L 271.414821 187.647884 
L 271.679399 187.454916 
L 271.893393 187.160403 
L 271.997221 186.704643 
L 272.512215 186.291689 
L 272.771678 186.083635 
L 273.190993 185.615325 
L 273.248161 185.007994 
L 273.106096 184.542727 
L 273.14475 184.310094 
L 273.771763 183.739791 
L 274.507524 182.878018 
L 276.254962 181.216478 
L 276.638417 180.597847 
L 277.765972 179.563361 
L 278.965081 179.004316 
L 279.304128 178.948983 
L 280.25847 179.025207 
L 281.062782 178.768889 
L 281.723988 178.261883 
L 282.289579 178.483341 
L 283.252344 178.513072 
L 284.97885 177.297742 
L 285.143807 177.296783 
L 285.677583 177.511319 
L 285.728496 177.603805 
L 285.693262 177.997351 
L 286.107573 178.579038 
L 286.29413 178.660057 
L 287.158112 178.431344 
L 287.207733 177.614772 
L 287.134136 177.412578 
L 286.800427 177.069195 
L 286.266692 176.806873 
L 286.31648 176.501811 
L 286.59323 175.942224 
L 286.800177 175.559978 
L 287.056703 175.350321 
L 287.575759 174.632698 
L 288.181089 173.33956 
L 289.174794 172.260124 
L 289.772743 171.398185 
L 290.576931 170.637363 
L 291.350471 170.168385 
L 292.159537 169.431707 
L 292.340298 168.963689 
L 292.338088 168.404018 
L 292.46927 167.751987 
L 292.759571 167.349809 
L 293.184015 167.074728 
L 293.074933 166.595576 
L 293.270914 165.849932 
L 293.563216 165.615256 
L 293.948631 165.525522 
L 294.265578 165.91348 
L 295.064386 166.022937 
L 295.904392 165.608459 
L 296.233348 165.168796 
L 296.400557 165.096366 
L 297.045208 164.872031 
L 297.657293 164.783131 
L 298.046794 164.906265 
L 298.201785 164.855685 
L 298.225428 164.257861 
L 298.133525 164.076767 
L 298.083071 163.525769 
L 298.349396 162.753397 
L 298.670012 162.107787 
L 299.938757 161.744181 
L 300.24236 161.134056 
L 300.801447 160.61354 
L 301.048591 160.903341 
L 301.374044 160.950084 
L 301.778055 160.825366 
L 302.49401 160.346005 
L 303.449895 160.395751 
L 303.89844 160.508044 
L 304.130907 160.703357 
L 304.440514 161.213282 
L 304.266508 161.489823 
L 303.854949 161.800765 
L 303.83089 162.03811 
L 303.927045 162.436618 
L 304.175482 162.560503 
L 304.329306 162.549953 
L 304.090084 163.344967 
L 303.789275 163.822868 
L 303.087373 163.993788 
L 302.980918 163.913686 
L 302.889974 163.562047 
L 301.847274 163.555917 
L 301.498554 164.003712 
L 301.290481 165.572933 
L 301.318585 166.219293 
L 302.001515 166.720962 
L 301.82359 166.913482 
L 301.296777 167.19561 
L 300.938425 167.821872 
L 301.075736 167.980158 
L 301.163218 168.290975 
L 301.193992 169.108005 
L 300.809077 169.177099 
L 300.570857 169.516979 
L 299.887218 169.872788 
L 299.790729 170.359821 
L 299.383214 170.524862 
L 298.152415 170.392846 
L 298.004595 170.616973 
L 298.000134 171.066018 
L 297.392344 172.300362 
L 296.779383 172.444137 
L 296.385545 172.620394 
L 295.61947 173.621272 
L 295.306485 174.13228 
L 295.349517 174.989383 
L 295.89722 175.336477 
L 296.044831 175.681611 
L 295.910563 175.83702 
L 295.418027 175.932341 
L 294.688062 176.292779 
L 294.198569 176.719016 
L 294.147781 177.084207 
L 294.602706 177.580872 
L 294.67526 178.01182 
L 292.052623 179.210304 
L 291.694479 179.780358 
L 291.422149 180.549727 
L 290.493827 180.971961 
L 290.121589 181.423842 
L 289.844464 181.79091 
L 289.903467 182.35917 
L 289.127801 183.759556 
L 288.880782 184.531928 
L 288.452085 185.253845 
L 287.848548 185.994985 
L 287.640252 186.353602 
L 286.79534 187.808264 
L 286.457252 188.202894 
L 286.299592 188.369686 
L 285.773447 188.633259 
L 284.961795 189.292046 
L 284.566915 190.075843 
L 283.685837 191.508128 
L 283.035223 193.199857 
L 283.026133 193.488782 
L 282.771358 194.62301 
L 282.411171 195.312611 
L 282.090096 196.850517 
L 281.870222 197.257531 
L 281.606274 198.078439 
L 281.621619 198.856524 
L 281.477761 199.197197 
L 280.955035 199.881669 
L 280.564456 200.865679 
L 280.46304 201.121184 
L 280.490811 201.72668 
L 280.639298 202.298819 
L 281.448239 203.682608 
L 281.807545 204.498645 
L 282.004323 204.945557 
L 282.046021 205.732232 
L 281.817349 206.482587 
L 281.535596 207.022076 
L 280.689961 207.863541 
L 279.720858 208.509652 
L 278.148801 209.030877 
L 277.347125 209.419809 
L 277.306502 209.439517 
L 276.243161 210.156764 
L 275.884558 211.107479 
L 275.955445 211.720439 
L 275.84703 212.362588 
L 275.211845 212.964874 
L 274.709592 213.682539 
L 274.203295 214.956704 
L 274.142572 215.376913 
L 274.060813 215.942695 
L 273.851031 216.329861 
L 273.347069 216.869683 
L 273.221808 217.116702 
L 272.898148 218.561454 
L 272.709699 219.017994 
L 272.507229 219.508499 
L 272.513943 219.787876 
L 272.81913 220.671748 
L 272.781519 221.536648 
L 272.91466 222.426358 
L 274.005313 224.223333 
L 274.012235 224.471645 
L 274.004728 224.501931 
L 273.891311 224.959512 
L 273.799575 225.151322 
L 273.670311 225.243058 
L 273.603595 225.539114 
L 273.674481 226.077018 
L 273.891311 226.765035 
L 273.90382 227.548916 
L 273.757085 227.884751 
L 272.585038 229.567349 
L 270.627609 232.098292 
L 270.25733 232.742067 
L 270.0828 233.576861 
L 269.945721 234.232521 
L 269.957063 234.928335 
L 270.1279 235.672227 
L 269.520777 236.991844 
L 268.706832 238.087959 
L 267.527237 239.314214 
L 267.133608 239.809211 
L 266.822708 240.36763 
L 266.616553 240.823931 
L 266.410398 241.538468 
L 266.404292 241.578294 
L 266.126226 243.391819 
L 265.599164 244.373182 
L 265.184686 245.778863 
L 265.255572 246.383442 
L 265.831046 248.001283 
L 266.00602 248.212458 
L 266.193819 248.439112 
L 266.464898 249.106238 
L 265.99788 250.019382 
L 265.664296 250.494739 
L 265.618428 250.665701 
L 265.655956 250.970097 
L 265.960352 251.466261 
L 266.672495 252.090911 
L 266.673429 252.091731 
L 266.95126 252.803643 
L 267.07373 253.11746 
L 266.919447 253.53444 
L 266.423241 254.088982 
L 265.881167 254.455924 
L 265.731055 255.018847 
L 265.851979 255.560879 
L 266.189774 256.198859 
L 266.565056 256.536571 
L 266.83496 256.717335 
L 267.461605 257.137022 
L 267.962022 257.80419 
L 268.066267 258.550542 
L 268.012384 259.130693 
L 267.868803 260.676607 
L 267.853649 260.839762 
L 268.391595 262.194905 
L 268.719255 262.799301 
L 268.875334 263.087201 
L 270.097168 264.300613 
L 270.942679 264.83172 
L 271.235565 265.189697 
L 271.106343 265.655756 
L 270.75608 266.110264 
L 270.675701 266.413694 
L 270.589288 266.739904 
L 270.737191 267.591377 
L 270.580949 268.386975 
L 270.468364 268.69554 
L 270.397477 268.69971 
L 270.373398 268.731816 
L 270.059724 269.150048 
L 269.7178 269.754669 
L 269.601801 270.068656 
L 269.234103 271.063944 
L 269.025613 272.239828 
L 269.038123 272.623449 
L 269.189137 273.062446 
L 269.217424 273.144674 
L 269.392597 273.428221 
L 269.292522 273.765974 
L 269.311941 274.72526 
L 269.33422 275.825856 
L 269.442677 276.451325 
L 269.82609 277.40621 
L 269.184149 277.40621 
L 268.028197 277.390072 
L 265.759669 277.36152 
L 265.666089 277.360342 
L 262.703988 277.318685 
L 261.915855 277.297836 
L 259.430571 277.264478 
L 257.578102 277.239025 
L 256.699227 277.22695 
L 253.19217 277.235337 
L 253.159609 277.235415 
L 252.462085 277.239293 
L 251.078128 277.243462 
L 250.204351 277.284115 
L 250.17741 277.285369 
L 248.801334 277.287258 
L 244.101803 277.293708 
L 242.26705 277.293708 
L 240.369165 277.282658 
L 238.969445 277.280958 
L 234.87583 277.275987 
L 232.010051 277.336699 
L 229.592401 277.400038 
L 229.128172 277.401889 
L 228.703358 277.403583 
L 222.293959 277.275862 
L 222.174161 277.273026 
L 220.118653 277.235116 
L 220.114488 277.235039 
L 219.321933 277.2327 
L 219.238497 277.232454 
L 219.232784 277.232037 
L 218.019623 277.225449 
L 216.841946 277.227409 
L 215.679781 277.215274 
L 214.931844 277.198137 
L 214.789404 277.194717 
L 214.591505 277.196177 
L 212.932175 277.179915 
L 212.85616 277.183709 
L 210.373378 277.154479 
L 210.289606 277.150726 
L 209.510146 277.147265 
L 209.352235 277.152936 
L 208.855665 277.142309 
L 207.678603 277.117117 
L 204.732014 277.068789 
L 204.555307 277.058432 
L 204.545624 277.057865 
L 203.070124 277.051237 
L 203.069473 277.051235 
L 202.253902 277.04473 
L 202.188186 277.040935 
L 202.131518 277.035181 
L 202.07998 277.039017 
L 199.614044 277.009828 
L 199.26745 277.006159 
L 199.242264 277.006159 
L 198.019429 276.990522 
L 196.273742 276.959707 
L 195.007291 276.924681 
L 194.789544 276.916175 
L 194.729672 276.91813 
L 194.642683 276.92097 
L 194.230415 276.904916 
L 192.947535 276.880815 
L 192.691175 276.876937 
L 191.970968 276.862468 
L 191.033096 276.852835 
L 190.891365 276.856672 
L 188.851999 276.844871 
L 187.715812 276.847373 
L 187.271353 276.846247 
L 186.701967 276.841369 
L 186.462329 276.843245 
L 186.370885 276.842286 
L 184.882664 276.838173 
L 181.180443 276.827942 
L 181.175857 276.827983 
L 181.154046 276.828105 
L 179.974662 276.834697 
L 178.732854 276.799754 
L 178.708961 276.80113 
L 178.226599 276.78762 
L 178.138991 276.78099 
L 177.400353 276.772108 
L 177.332093 276.765395 
L 175.038495 276.724239 
L 174.231389 276.729034 
L 174.14891 276.740501 
L 172.150826 276.729409 
L 171.256779 276.724364 
L 170.539198 276.73287 
L 169.517555 276.746255 
L 168.803811 276.745505 
L 167.659951 276.755679 
L 167.555748 276.763226 
L 166.971059 276.750634 
L 166.879657 276.747131 
L 166.732504 276.755262 
L 165.441576 276.757847 
L 162.988525 276.775402 
L 162.770778 276.77265 
L 162.767077 276.772654 
L 162.654065 276.772775 
L 161.184044 276.781949 
L 160.331281 276.774926 
L 159.887903 276.771274 
L 158.305715 276.757222 
L 158.118449 276.760057 
L 157.606814 276.751384 
L 155.916461 276.753511 
L 155.412207 276.747923 
L 155.39336 276.747673 
L 155.12791 276.74859 
L 154.932055 276.75618 
L 154.53263 276.752385 
L 152.483256 276.733496 
L 152.352241 276.732495 
L 151.305121 276.715649 
L 151.551807 276.518793 
L 151.560146 276.289454 
L 151.397524 275.914214 
L 151.259921 275.384649 
L 151.189034 275.230408 
L 150.834601 274.98856 
L 150.626111 274.654976 
L 150.526036 274.233868 
L 150.059018 273.875265 
L 149.878549 273.766183 
L 149.78181 273.670778 
L 149.526952 273.332565 
L 149.464905 273.242498 
L 149.431547 273.124409 
L 149.422206 272.932932 
L 149.25408 272.467249 
L 149.172019 272.294494 
L 148.917828 271.962911 
L 148.886095 271.796787 
L 148.810413 271.617026 
L 148.658966 271.474711 
L 148.538 271.39511 
L 148.079114 271.199963 
L 147.623647 271.088254 
L 147.100545 270.999729 
L 146.403688 270.850826 
L 146.023987 270.75442 
L 145.637988 270.690956 
L 145.242941 270.652468 
L 144.876374 270.573909 
L 143.388381 270.328308 
L 142.92103 270.269556 
L 142.562969 270.196543 
L 141.953011 270.03367 
L 141.106333 269.877636 
L 140.711542 269.761208 
L 140.571306 269.719851 
L 140.023436 269.440683 
L 139.700068 269.338231 
L 139.596699 269.334311 
L 139.336212 269.391521 
L 139.037487 269.421919 
L 138.848929 269.403363 
L 138.530106 269.331267 
L 138.396589 269.281021 
L 137.869818 269.011861 
L 137.486655 268.927798 
L 137.340796 268.862457 
L 137.222248 268.774224 
L 136.880408 268.365917 
L 136.59853 268.158261 
L 136.407052 268.054642 
L 136.013048 267.890602 
L 135.758273 267.92788 
L 135.693558 267.913827 
L 135.295467 267.719431 
L 135.174293 267.613268 
L 135.131511 267.491927 
L 135.120419 267.372421 
L 135.077512 267.291777 
L 134.93553 267.172687 
L 134.770198 267.125235 
L 134.571882 267.119939 
L 134.470472 267.179901 
L 134.328657 267.190826 
L 134.274325 267.186823 
L 134.171831 267.135242 
L 134.127298 267.039712 
L 134.126923 266.866374 
L 134.064918 266.755666 
L 133.990111 266.676231 
L 133.903338 266.624734 
L 133.715363 266.606679 
L 133.66937 266.503559 
L 133.681505 266.349527 
L 133.780412 266.341521 
L 133.850798 266.312291 
L 133.905131 266.228394 
L 133.899627 266.150794 
L 133.774825 266.063229 
L 133.512336 265.826342 
L 133.463674 265.581408 
L 133.446078 265.26859 
L 133.391495 265.071442 
L 133.264983 264.748949 
L 133.155901 264.28777 
L 133.105155 263.713046 
L 133.132217 263.405774 
L 132.961047 263.30991 
L 132.653899 263.340766 
L 132.490276 263.27505 
L 132.446327 263.101879 
L 132.601109 262.480829 
L 132.582971 262.423911 
L 132.437361 262.253158 
L 132.34033 262.06339 
L 132.291794 261.873664 
L 132.316062 261.399266 
L 132.219031 261.095705 
L 132.073672 260.975072 
L 131.735626 260.75916 
L 131.595771 260.612258 
L 131.516586 260.56368 
L 130.658066 260.232806 
L 130.433939 260.195361 
L 130.378439 260.141404 
L 130.342829 260.057341 
L 130.317102 259.979366 
L 130.316893 259.875621 
L 130.329986 259.765997 
L 130.412965 259.529194 
L 130.416218 259.436166 
L 130.394743 259.281258 
L 130.344622 259.123389 
L 130.166697 258.711997 
L 130.162694 258.640652 
L 130.195635 258.448882 
L 130.343663 258.033737 
L 130.34825 257.962809 
L 130.301548 257.748731 
L 130.241045 257.63156 
L 130.119912 257.449798 
L 129.927559 257.230467 
L 129.884068 257.128224 
L 129.876521 256.727756 
L 129.873616 256.713584 
L 129.845372 256.575767 
L 129.395326 255.410266 
L 129.128083 254.606037 
L 128.986519 253.633181 
L 128.994566 253.54303 
L 128.929392 253.408721 
L 128.958414 253.27733 
L 129.020836 253.177046 
L 129.022587 252.874152 
L 129.107193 251.893249 
L 129.001488 251.269363 
L 128.97968 251.008792 
L 128.992982 250.846462 
L 129.031719 250.722577 
L 129.104691 250.605031 
L 129.308219 250.491654 
L 129.721988 250.358595 
L 129.899163 250.259771 
L 130.316143 249.865308 
L 130.437776 249.698183 
L 130.518128 249.401126 
L 130.631004 249.131924 
L 130.744923 248.988941 
L 130.817644 248.947952 
L 131.223991 248.385822 
L 131.246175 248.150228 
L 131.318146 247.995153 
L 131.445533 247.865431 
L 131.669284 247.759434 
L 131.911883 247.606403 
L 132.76565 246.967881 
L 133.106656 246.702348 
L 133.416097 246.414424 
L 133.643726 246.242253 
L 133.80368 246.080798 
L 133.923687 245.855587 
L 133.997659 245.630334 
L 133.997325 245.572041 
L 133.967052 245.475593 
L 133.920934 245.417425 
L 133.835537 245.380814 
L 133.496157 245.36747 
L 133.422727 245.33653 
L 133.383072 245.290037 
L 133.377526 245.196884 
L 133.427897 245.03718 
L 133.421643 244.903789 
L 133.33883 244.763934 
L 133.081762 244.429224 
L 132.840873 244.049897 
L 131.940822 243.141923 
L 131.506162 242.904787 
L 131.028303 242.61215 
L 130.874354 242.542097 
L 130.685462 242.470085 
L 129.95729 242.258718 
L 129.279739 242.00265 
L 128.860257 241.79587 
L 128.572583 241.725984 
L 127.995774 241.663396 
L 127.9075 241.632164 
L 127.79675 241.520747 
L 127.456911 240.964078 
L 127.447737 240.875178 
L 127.515705 240.787988 
L 127.765601 240.63946 
L 127.8196 240.584543 
L 127.871347 240.421462 
L 128.04356 240.127783 
L 128.116448 239.964953 
L 128.169947 239.735655 
L 128.154185 239.573492 
L 128.097476 239.414664 
L 128.050816 239.187243 
L 128.057821 239.011486 
L 128.021752 238.877969 
L 127.941692 238.715264 
L 127.841339 238.584186 
L 127.774858 238.49735 
L 126.873973 237.642291 
L 126.726946 237.416496 
L 126.681453 237.240698 
L 126.688959 237.131616 
L 126.728405 237.038462 
L 126.842574 236.930506 
L 127.047603 236.808831 
L 127.222193 236.567775 
L 127.404163 236.157634 
L 127.435562 236.005186 
L 127.33828 235.746241 
L 127.310968 235.48688 
L 127.334486 235.348359 
L 127.327397 235.033372 
L 127.349205 234.851152 
L 127.310051 234.769424 
L 127.129874 234.625232 
L 126.820725 234.470825 
L 126.699217 234.371917 
L 126.541431 233.998178 
L 126.272146 233.690488 
L 126.234201 233.46903 
L 126.245584 233.32267 
L 126.270853 233.256287 
L 126.377809 233.078112 
L 126.637045 232.795149 
L 126.704596 232.667511 
L 126.75972 232.219133 
L 126.744084 231.959479 
L 126.708974 231.888134 
L 126.634251 231.804905 
L 126.442023 231.628481 
L 125.865882 231.186357 
L 125.643173 231.056217 
L 125.502901 230.944008 
L 125.358626 230.785472 
L 125.206137 230.561512 
L 125.218271 230.06097 
L 125.438394 229.608505 
L 125.47096 229.460185 
L 125.410123 229.214083 
L 125.360294 229.152412 
L 125.121948 228.988164 
L 125.081001 228.911064 
L 125.018329 228.423448 
L 125.039636 228.007051 
L 125.246 227.212996 
L 125.218354 226.622052 
L 125.298289 226.450132 
L 125.516036 226.219 
L 125.622783 226.054876 
L 125.663755 225.961689 
L 125.740538 225.78705 
L 125.783445 225.633435 
L 125.761429 225.160454 
L 126.239955 223.985822 
L 126.232449 223.918229 
L 125.85259 223.555016 
L 125.469334 223.188556 
L 125.385938 222.846632 
L 125.260844 222.68818 
L 125.068992 222.287879 
L 125.027294 222.087729 
L 124.914709 221.825032 
L 124.833065 221.28817 
L 124.654889 221.079805 
L 124.564404 220.899378 
L 124.278189 220.663033 
L 124.038968 220.561624 
L 123.952403 220.503664 
L 123.8487 220.380238 
L 123.444688 220.052241 
L 123.359374 219.702979 
L 123.264594 219.450664 
L 123.043803 219.171996 
L 122.729484 218.965842 
L 122.312587 218.789501 
L 122.137706 218.579635 
L 121.973583 218.272029 
L 121.912287 218.193219 
L 121.747705 218.085597 
L 121.537005 218.001409 
L 121.508442 217.973596 
L 121.265926 217.58447 
L 121.203629 217.237501 
L 121.124153 217.129962 
L 120.76972 216.845332 
L 120.325928 216.430437 
L 119.938095 216.214858 
L 119.482544 216.026383 
L 119.424834 215.975553 
L 119.293069 215.73604 
L 119.212341 215.631003 
L 118.726852 215.246547 
L 118.682903 215.176036 
L 118.662345 215.143053 
L 118.619021 215.001821 
L 118.487338 214.777153 
L 118.377089 214.654602 
L 118.17452 214.523879 
L 118.042921 214.459706 
L 117.340643 214.259555 
L 117.084743 214.145303 
L 116.878046 214.126998 
L 116.459982 214.18746 
L 116.361074 214.182664 
L 115.772382 213.999568 
L 115.473199 213.819433 
L 115.26646 213.730867 
L 114.549505 213.628581 
L 114.154916 213.628581 
L 113.602418 213.595515 
L 113.103043 213.46671 
L 112.507637 213.400577 
L 112.226759 213.399576 
L 112.11897 213.380562 
L 111.724257 213.214145 
L 111.492958 213.064324 
L 111.245564 212.700884 
L 111.08757 212.547602 
L 110.956305 212.466166 
L 110.752485 212.370761 
L 110.401847 212.266183 
L 110.230218 212.195254 
L 110.002338 212.005237 
L 109.804273 211.883437 
L 109.703363 211.867008 
L 109.583899 211.907371 
L 109.528982 211.904411 
L 109.397383 211.849078 
L 109.214996 211.660394 
L 109.016806 211.544682 
L 108.912102 211.428178 
L 108.748187 211.14851 
L 108.672255 210.976255 
L 108.599576 210.89607 
L 107.993954 210.46091 
L 107.818072 210.418419 
L 107.587357 210.441812 
L 107.419356 210.412123 
L 106.911432 210.189622 
L 106.881577 210.136249 
L 106.886789 209.896777 
L 106.828662 209.62007 
L 106.781918 209.49852 
L 106.427485 209.149383 
L 106.401382 209.133551 
L 106.325117 209.087294 
L 105.945832 208.980631 
L 105.066046 208.901988 
L 104.858723 208.817842 
L 104.364394 208.538298 
L 104.117875 208.370214 
L 103.192888 208.086834 
L 102.71774 207.881388 
L 102.332534 207.674024 
L 101.837787 207.085457 
L 101.699683 207.003812 
L 101.18784 206.813252 
L 100.619124 206.47445 
L 100.369183 206.325552 
L 100.03635 206.21743 
L 99.920054 206.158719 
L 99.882609 206.068943 
L 99.8701 205.783437 
L 99.825358 205.643915 
L 99.707103 205.492385 
L 99.309929 205.086622 
L 99.188671 204.885679 
L 99.177621 204.717052 
L 99.38853 204.247992 
L 99.424599 204.023906 
L 99.391907 203.923873 
L 99.337366 203.845105 
L 99.050651 203.5611 
L 99.019294 203.453686 
L 99.065496 203.138408 
L 99.034806 203.068272 
L 98.938525 202.964777 
L 98.642803 202.779555 
L 98.038474 202.575985 
L 97.958289 202.521152 
L 97.85788 202.354194 
L 97.842785 202.228933 
L 97.879188 202.134028 
L 98.007367 201.96832 
L 98.285409 201.669721 
L 98.318184 201.57957 
L 98.319852 201.537872 
L 98.20906 201.258412 
L 98.107567 201.06756 
L 97.817141 200.614011 
L 97.707308 200.533742 
L 97.161607 200.304195 
L 96.816014 199.9782 
L 96.681704 199.803652 
L 96.402203 199.535868 
L 96.2322 199.422949 
L 95.955805 199.268291 
L 95.954241 199.267416 
L 95.760095 199.197614 
L 95.607814 199.16192 
L 95.382645 199.158751 
L 95.244416 199.130772 
L 94.965248 199.018979 
L 94.707513 198.886963 
L 94.664411 198.852263 
L 94.596054 198.797229 
L 94.456741 198.726051 
L 94.356249 198.692651 
L 93.90908 198.626309 
L 93.123739 198.312991 
L 92.784401 198.076688 
L 92.481507 197.785761 
L 92.35904 197.729302 
L 92.144254 197.671133 
L 91.701004 197.675595 
L 91.436722 197.640068 
L 91.226779 197.543338 
L 91.076618 197.474152 
L 90.652383 197.36507 
L 90.082371 197.261492 
L 89.906781 197.173593 
L 89.664515 196.985285 
L 89.52245 196.920945 
L 88.894645 196.814281 
L 87.940387 196.708577 
L 87.614058 196.650616 
L 86.567522 196.434037 
L 85.742527 196.237598 
L 85.495675 196.15908 
L 85.020776 195.948589 
L 84.818416 195.782506 
L 84.623061 195.580813 
L 84.503221 195.472898 
L 84.328631 195.361064 
L 83.76967 195.126513 
L 83.173055 194.77208 
L 82.94038 194.60287 
L 82.580067 194.279418 
L 82.325001 193.976357 
L 82.112633 193.66087 
L 82.081526 193.523142 
L 82.102167 192.985821 
L 82.077982 192.895795 
L 82.057925 192.846758 
L 81.873203 192.652738 
L 81.75353 192.474229 
L 81.618261 192.088188 
L 81.528332 191.96509 
L 81.481242 191.900631 
L 81.373619 191.799388 
L 80.99521 191.551077 
L 80.699112 191.421437 
L 80.221545 191.290297 
L 79.639817 191.215825 
L 79.357104 191.205525 
L 78.492204 191.267447 
L 78.065175 191.242636 
L 77.406013 191.156447 
L 77.171962 191.086311 
L 76.96047 190.979522 
L 76.738345 190.930152 
L 76.648486 190.942077 
L 76.336209 191.053286 
L 75.737426 191.092774 
L 75.10762 190.961425 
L 74.657615 190.826324 
L 74.501706 190.835039 
L 74.262693 190.91268 
L 74.123589 190.918601 
L 73.500162 190.740884 
L 73.341501 190.679338 
L 73.099903 190.538316 
L 72.994824 190.537607 
L 72.725496 190.606242 
L 72.174499 190.868772 
L 72.016255 190.880114 
L 71.861389 190.846506 
L 71.782288 190.796635 
L 71.717531 190.687428 
L 71.731208 190.61062 
L 71.79363 190.504248 
L 71.810517 190.433195 
L 71.789793 190.290338 
L 71.330323 189.713821 
L 71.062205 189.429691 
L 70.970136 189.355927 
L 70.823818 189.309642 
L 70.648477 189.292755 
L 70.577507 189.339248 
L 70.463213 189.467511 
L 70.333116 189.509292 
L 70.27036 189.499827 
L 70.162737 189.432693 
L 70.093102 189.255977 
L 69.632381 189.000952 
L 69.397829 188.985065 
L 69.088097 189.014379 
L 68.943988 188.966843 
L 68.800923 188.877318 
L 68.729744 188.743592 
L 68.72203 188.639806 
L 68.754429 188.522843 
L 68.871059 188.285331 
L 68.87085 188.077633 
L 68.789372 187.877983 
L 68.356881 187.459169 
L 67.368555 187.083345 
L 67.152517 186.964756 
L 66.997776 186.860677 
L 66.088259 186.080258 
L 65.672113 185.774194 
L 65.486265 185.594268 
L 64.975465 185.288454 
L 64.189708 184.763658 
L 63.972169 184.618368 
L 63.432556 184.411337 
L 63.265764 184.384358 
L 63.149426 184.340075 
L 62.771476 184.099269 
L 61.860291 183.772857 
L 61.255837 183.450323 
L 61.248439 183.424049 
L 61.236114 183.380271 
L 61.187744 183.314138 
L 61.050891 183.233619 
L 61.022912 183.187501 
L 61.049015 182.877309 
L 61.135538 182.48318 
L 61.342944 182.107147 
L 61.521161 181.912126 
L 61.824014 181.672863 
L 61.972876 181.484847 
L 62.066404 181.241831 
L 62.127492 180.771602 
L 62.172025 180.638961 
L 62.495894 180.270559 
L 62.527626 180.202049 
L 62.495894 180.065697 
L 62.512448 179.994435 
L 62.63333 179.837901 
L 62.769474 179.705885 
L 62.803833 179.613315 
L 62.803833 179.45136 
L 62.666397 178.89686 
L 62.644861 178.578753 
L 62.644771 178.577427 
L 62.64438 178.571658 
L 62.727776 178.379847 
L 62.869383 178.156262 
L 62.882059 178.071282 
L 62.851578 177.998811 
L 62.623489 177.704339 
L 62.442395 177.411202 
L 62.402323 177.294448 
L 62.416334 177.073991 
L 62.439226 176.990636 
L 62.477546 176.937096 
L 62.967998 176.706214 
L 63.042429 176.666476 
L 63.078081 176.619691 
L 63.125784 176.526496 
L 63.207727 176.217252 
L 63.414 175.438804 
L 63.407454 175.260837 
L 63.248959 174.668725 
L 62.994685 174.284603 
L 62.722939 174.155131 
L 62.667606 174.081951 
L 62.630078 173.985587 
L 62.594259 173.701332 
L 62.592508 173.519528 
L 62.64659 173.316543 
L 62.572159 173.069023 
L 62.555605 172.766838 
L 62.685411 172.44422 
L 62.918294 171.967362 
L 62.944522 171.887469 
L 62.938017 171.810202 
L 62.831938 171.624771 
L 62.591841 171.41478 
L 62.239368 171.184441 
L 61.860124 171.009768 
L 61.636123 170.85707 
L 61.477712 170.712378 
L 61.270264 170.429874 
L 61.227607 170.281637 
L 61.234613 170.097124 
L 61.265803 170.00739 
L 61.32051 169.927246 
L 61.676655 169.538746 
L 61.688711 169.525594 
L 61.709261 169.503177 
L 62.439726 169.107422 
L 62.790323 168.832548 
L 63.257966 168.523316 
L 63.576456 168.360485 
L 63.651971 168.308029 
L 63.836651 168.095912 
L 63.875222 168.004093 
L 63.877557 167.965856 
L 63.832398 167.885003 
L 63.735909 167.823957 
L 63.621771 167.692301 
L 63.620447 167.690774 
L 63.464788 167.065095 
L 63.157057 166.49179 
L 63.119529 166.341677 
L 63.116693 166.130977 
L 63.152887 165.937206 
L 63.334899 165.661749 
L 63.340653 165.572349 
L 62.820763 165.201403 
L 62.740035 165.090737 
L 62.715017 164.894756 
L 62.734865 164.68856 
L 62.86096 164.281796 
L 62.936016 164.18589 
L 63.106978 164.085815 
L 63.27377 163.952382 
L 63.369675 163.706364 
L 63.349493 163.606914 
L 63.27698 163.529606 
L 63.201882 163.402677 
L 63.129995 163.211825 
L 63.128035 162.887331 
L 63.013533 162.416478 
L 63.069491 162.257733 
L 63.224107 162.119046 
L 63.369633 161.91335 
L 63.371718 161.736383 
L 63.329728 161.583977 
L 63.106394 161.364771 
L 62.998271 161.19777 
L 62.946023 160.942954 
L 62.946023 160.856431 
L 62.981675 160.772409 
L 63.077706 160.69164 
L 63.406745 160.607619 
L 63.625423 160.488213 
L 63.977882 160.295759 
L 64.166691 160.138766 
L 64.369218 159.927608 
L 65.11015 159.426648 
L 65.325895 159.208818 
L 65.52763 158.909009 
L 65.568869 158.798176 
L 65.570829 158.673499 
L 65.545643 158.546028 
L 65.356751 158.077384 
L 65.371304 157.96605 
L 65.412377 157.876733 
L 65.67178 157.665867 
L 66.393405 157.283037 
L 66.433852 157.245759 
L 66.411627 157.13747 
L 66.486475 156.973346 
L 66.581 156.859577 
L 66.797376 156.599148 
L 67.02267 156.4241 
L 67.256846 156.309472 
L 67.593098 156.207354 
L 67.586927 156.007162 
L 67.687544 155.835575 
L 67.749299 155.59356 
L 67.738166 155.550277 
L 67.63292 155.460918 
L 67.599478 155.345832 
L 67.646055 154.910088 
L 67.745463 154.563536 
L 67.752385 154.409003 
L 67.498194 153.871432 
L 67.462709 153.837282 
L 67.146555 153.715023 
L 66.475717 153.523796 
L 66.349998 153.462083 
L 66.076501 153.131543 
L 65.875266 152.964668 
L 65.725445 152.689086 
L 65.433059 152.265267 
L 65.030006 151.838488 
L 64.866383 151.696923 
L 64.510991 151.465625 
L 64.413418 151.372263 
L 64.368926 151.190918 
L 64.357292 150.905662 
L 64.49794 150.443148 
L 64.493269 150.365048 
L 64.438228 150.261011 
L 63.624742 149.764638 
L 63.152929 149.577706 
L 62.833189 149.32364 
L 62.597637 149.184077 
L 62.464662 149.130036 
L 62.357248 149.119904 
L 61.950567 149.144506 
L 61.767013 149.185078 
L 61.293323 149.354413 
L 60.852159 149.426634 
L 60.384057 149.434474 
L 59.931759 149.344322 
L 59.530332 149.217602 
L 59.419249 149.201757 
L 58.392018 149.157307 
L 57.972787 148.914291 
L 57.86383 148.827809 
L 57.813584 148.688747 
L 57.883511 148.229527 
L 57.752413 148.018952 
L 57.751537 147.860583 
L 57.815836 147.596968 
L 57.914701 147.379513 
L 57.896313 147.232653 
L 57.742072 146.981547 
L 57.685112 146.764759 
L 57.681818 146.622236 
" clip-path="url(#p3349998e92)" style="fill: #0000ca"/>
   </g>
   <g id="PathCollection_1">
    <defs>
     <path id="m7c05346e4f" d="M 0 1.581139 
C 0.419323 1.581139 0.821528 1.41454 1.118034 1.118034 
C 1.41454 0.821528 1.581139 0.419323 1.581139 0 
C 1.581139 -0.419323 1.41454 -0.821528 1.118034 -1.118034 
C 0.821528 -1.41454 0.419323 -1.581139 0 -1.581139 
C -0.419323 -1.581139 -0.821528 -1.41454 -1.118034 -1.118034 
C -1.41454 -0.821528 -1.581139 -0.419323 -1.581139 0 
C -1.581139 0.419323 -1.41454 0.821528 -1.118034 1.118034 
C -0.821528 1.41454 -0.419323 1.581139 0 1.581139 
z
" style="stroke: #000000"/>
    </defs>
    <g clip-path="url(#p3349998e92)">
     <use xlink:href="#m7c05346e4f" x="203.777797" y="253.106118" style="stroke: #000000"/>
    </g>
   </g>
   <g id="text_1">
    <!-- Madison -->
    <g transform="translate(206.777797 250.106118) scale(0.1 -0.1)">
     <defs>
      <path id="DejaVuSans-4d" d="M 628 4666 
L 1569 4666 
L 2759 1491 
L 3956 4666 
L 4897 4666 
L 4897 0 
L 4281 0 
L 4281 4097 
L 3078 897 
L 2444 897 
L 1241 4097 
L 1241 0 
L 628 0 
L 628 4666 
z
" transform="scale(0.015625)"/>
      <path id="DejaVuSans-61" d="M 2194 1759 
Q 1497 1759 1228 1600 
Q 959 1441 959 1056 
Q 959 750 1161 570 
Q 1363 391 1709 391 
Q 2188 391 2477 730 
Q 2766 1069 2766 1631 
L 2766 1759 
L 2194 1759 
z
M 3341 1997 
L 3341 0 
L 2766 0 
L 2766 531 
Q 2569 213 2275 61 
Q 1981 -91 1556 -91 
Q 1019 -91 701 211 
Q 384 513 384 1019 
Q 384 1609 779 1909 
Q 1175 2209 1959 2209 
L 2766 2209 
L 2766 2266 
Q 2766 2663 2505 2880 
Q 2244 3097 1772 3097 
Q 1472 3097 1187 3025 
Q 903 2953 641 2809 
L 641 3341 
Q 956 3463 1253 3523 
Q 1550 3584 1831 3584 
Q 2591 3584 2966 3190 
Q 3341 2797 3341 1997 
z
" transform="scale(0.015625)"/>
      <path id="DejaVuSans-64" d="M 2906 2969 
L 2906 4863 
L 3481 4863 
L 3481 0 
L 2906 0 
L 2906 525 
Q 2725 213 2448 61 
Q 2172 -91 1784 -91 
Q 1150 -91 751 415 
Q 353 922 353 1747 
Q 353 2572 751 3078 
Q 1150 3584 1784 3584 
Q 2172 3584 2448 3432 
Q 2725 3281 2906 2969 
z
M 947 1747 
Q 947 1113 1208 752 
Q 1469 391 1925 391 
Q 2381 391 2643 752 
Q 2906 1113 2906 1747 
Q 2906 2381 2643 2742 
Q 2381 3103 1925 3103 
Q 1469 3103 1208 2742 
Q 947 2381 947 1747 
z
" transform="scale(0.015625)"/>
      <path id="DejaVuSans-69" d="M 603 3500 
L 1178 3500 
L 1178 0 
L 603 0 
L 603 3500 
z
M 603 4863 
L 1178 4863 
L 1178 4134 
L 603 4134 
L 603 4863 
z
" transform="scale(0.015625)"/>
      <path id="DejaVuSans-73" d="M 2834 3397 
L 2834 2853 
Q 2591 2978 2328 3040 
Q 2066 3103 1784 3103 
Q 1356 3103 1142 2972 
Q 928 2841 928 2578 
Q 928 2378 1081 2264 
Q 1234 2150 1697 2047 
L 1894 2003 
Q 2506 1872 2764 1633 
Q 3022 1394 3022 966 
Q 3022 478 2636 193 
Q 2250 -91 1575 -91 
Q 1294 -91 989 -36 
Q 684 19 347 128 
L 347 722 
Q 666 556 975 473 
Q 1284 391 1588 391 
Q 1994 391 2212 530 
Q 2431 669 2431 922 
Q 2431 1156 2273 1281 
Q 2116 1406 1581 1522 
L 1381 1569 
Q 847 1681 609 1914 
Q 372 2147 372 2553 
Q 372 3047 722 3315 
Q 1072 3584 1716 3584 
Q 2034 3584 2315 3537 
Q 2597 3491 2834 3397 
z
" transform="scale(0.015625)"/>
      <path id="DejaVuSans-6f" d="M 1959 3097 
Q 1497 3097 1228 2736 
Q 959 2375 959 1747 
Q 959 1119 1226 758 
Q 1494 397 1959 397 
Q 2419 397 2687 759 
Q 2956 1122 2956 1747 
Q 2956 2369 2687 2733 
Q 2419 3097 1959 3097 
z
M 1959 3584 
Q 2709 3584 3137 3096 
Q 3566 2609 3566 1747 
Q 3566 888 3137 398 
Q 2709 -91 1959 -91 
Q 1206 -91 779 398 
Q 353 888 353 1747 
Q 353 2609 779 3096 
Q 1206 3584 1959 3584 
z
" transform="scale(0.015625)"/>
      <path id="DejaVuSans-6e" d="M 3513 2113 
L 3513 0 
L 2938 0 
L 2938 2094 
Q 2938 2591 2744 2837 
Q 2550 3084 2163 3084 
Q 1697 3084 1428 2787 
Q 1159 2491 1159 1978 
L 1159 0 
L 581 0 
L 581 3500 
L 1159 3500 
L 1159 2956 
Q 1366 3272 1645 3428 
Q 1925 3584 2291 3584 
Q 2894 3584 3203 3211 
Q 3513 2838 3513 2113 
z
" transform="scale(0.015625)"/>
     </defs>
     <use xlink:href="#DejaVuSans-4d"/>
     <use xlink:href="#DejaVuSans-61" x="86.279297"/>
     <use xlink:href="#DejaVuSans-64" x="147.558594"/>
     <use xlink:href="#DejaVuSans-69" x="211.035156"/>
     <use xlink:href="#DejaVuSans-73" x="238.818359"/>
     <use xlink:href="#DejaVuSans-6f" x="290.917969"/>
     <use xlink:href="#DejaVuSans-6e" x="352.099609"/>
    </g>
   </g>
   <g id="text_2">
    <!-- Wisconsin -->
    <g transform="translate(154.542188 70.633169) scale(0.12 -0.12)">
     <defs>
      <path id="DejaVuSans-57" d="M 213 4666 
L 850 4666 
L 1831 722 
L 2809 4666 
L 3519 4666 
L 4500 722 
L 5478 4666 
L 6119 4666 
L 4947 0 
L 4153 0 
L 3169 4050 
L 2175 0 
L 1381 0 
L 213 4666 
z
" transform="scale(0.015625)"/>
      <path id="DejaVuSans-63" d="M 3122 3366 
L 3122 2828 
Q 2878 2963 2633 3030 
Q 2388 3097 2138 3097 
Q 1578 3097 1268 2742 
Q 959 2388 959 1747 
Q 959 1106 1268 751 
Q 1578 397 2138 397 
Q 2388 397 2633 464 
Q 2878 531 3122 666 
L 3122 134 
Q 2881 22 2623 -34 
Q 2366 -91 2075 -91 
Q 1284 -91 818 406 
Q 353 903 353 1747 
Q 353 2603 823 3093 
Q 1294 3584 2113 3584 
Q 2378 3584 2631 3529 
Q 2884 3475 3122 3366 
z
" transform="scale(0.015625)"/>
     </defs>
     <use xlink:href="#DejaVuSans-57"/>
     <use xlink:href="#DejaVuSans-69" x="96.626953"/>
     <use xlink:href="#DejaVuSans-73" x="124.410156"/>
     <use xlink:href="#DejaVuSans-63" x="176.509766"/>
     <use xlink:href="#DejaVuSans-6f" x="231.490234"/>
     <use xlink:href="#DejaVuSans-6e" x="292.671875"/>
     <use xlink:href="#DejaVuSans-73" x="356.050781"/>
     <use xlink:href="#DejaVuSans-69" x="408.150391"/>
     <use xlink:href="#DejaVuSans-6e" x="435.933594"/>
    </g>
   </g>
  </g>
 </g>
 <defs>
  <clipPath id="p3349998e92">
   <rect x="45" y="76.633169" width="279" height="210.333661"/>
  </clipPath>
 </defs>
</svg>
