<?xml version="1.0" encoding="utf-8" standalone="no"?>
<!DOCTYPE svg PUBLIC "-//W3C//DTD SVG 1.1//EN"
  "http://www.w3.org/Graphics/SVG/1.1/DTD/svg11.dtd">
<svg xmlns:xlink="http://www.w3.org/1999/xlink" width="460.8pt" height="345.6pt" viewBox="0 0 460.8 345.6" xmlns="http://www.w3.org/2000/svg" version="1.1">
 <metadata>
  <rdf:RDF xmlns:dc="http://purl.org/dc/elements/1.1/" xmlns:cc="http://creativecommons.org/ns#" xmlns:rdf="http://www.w3.org/1999/02/22-rdf-syntax-ns#">
   <cc:Work>
    <dc:type rdf:resource="http://purl.org/dc/dcmitype/StillImage"/>
    <dc:date>2023-06-19T14:47:43.499172</dc:date>
    <dc:format>image/svg+xml</dc:format>
    <dc:creator>
     <cc:Agent>
      <dc:title>Matplotlib v3.7.1, https://matplotlib.org/</dc:title>
     </cc:Agent>
    </dc:creator>
   </cc:Work>
  </rdf:RDF>
 </metadata>
 <defs>
  <style type="text/css">*{stroke-linejoin: round; stroke-linecap: butt}</style>
 </defs>
 <g id="figure_1">
  <g id="patch_1">
   <path d="M 0 345.6 
L 460.8 345.6 
L 460.8 0 
L 0 0 
z
" style="fill: #ffffff"/>
  </g>
  <g id="axes_1">
   <g id="PatchCollection_1">
    <path d="M 101.408859 227.354302 
L 101.624768 227.24493 
L 102.369307 227.288777 
L 102.699386 227.391814 
L 103.024755 227.306302 
L 103.142155 227.214385 
L 103.530551 226.081893 
L 103.800177 225.406804 
L 103.825475 225.141047 
L 103.848857 223.987793 
L 103.743941 223.878281 
L 103.448414 223.723796 
L 103.273519 223.546719 
L 103.195599 223.327695 
L 103.077706 222.780065 
L 103.091943 222.672101 
L 103.372794 221.976179 
L 103.471248 221.882714 
L 103.510017 221.882714 
L 103.531646 221.882714 
L 104.038701 222.012918 
L 104.526536 222.001446 
L 104.639337 221.948309 
L 104.760077 221.791994 
L 104.954028 221.354438 
L 105.151046 220.71651 
L 105.154113 219.953023 
L 105.038027 219.756521 
L 104.925116 219.45853 
L 104.886896 219.234649 
L 104.872494 218.756203 
L 104.703841 218.492136 
L 104.691083 218.397052 
L 104.778476 218.142556 
L 104.948662 217.789739 
L 105.247584 217.330647 
L 105.298454 217.216279 
L 105.303217 217.063201 
L 105.258645 216.850652 
L 105.079272 216.33611 
L 105.026199 216.183868 
L 104.564757 215.776435 
L 104.423044 215.457542 
L 104.325959 215.340006 
L 104.171598 215.241826 
L 103.953553 215.158143 
L 103.873935 215.013159 
L 103.862436 214.099903 
L 103.89885 213.610196 
L 103.946489 213.434596 
L 104.094444 213.117251 
L 104.146135 212.88957 
L 104.042262 212.460471 
L 104.016141 212.352567 
L 104.016853 212.351863 
L 103.803079 211.928455 
L 103.777672 211.813594 
L 103.804831 211.616528 
L 103.883682 211.476894 
L 104.037004 211.042224 
L 103.925736 210.436459 
L 103.921356 210.229259 
L 103.966914 209.891433 
L 104.109722 209.600903 
L 104.406727 210.045707 
L 104.859736 210.422876 
L 105.013057 210.518593 
L 105.440604 210.695389 
L 105.917214 210.830519 
L 106.307608 210.882983 
L 106.512155 210.910472 
L 107.037828 210.877815 
L 107.619353 210.771118 
L 107.633037 210.766621 
L 108.818598 210.376988 
L 109.974038 209.863211 
L 111.447071 209.3987 
L 112.137016 209.236824 
L 112.742483 209.046882 
L 112.832492 209.018645 
L 114.447457 208.36657 
L 115.276268 208.717909 
L 115.71285 208.687787 
L 116.897146 208.419426 
L 117.965193 208.253891 
L 118.529469 208.0039 
L 118.876413 207.668326 
L 119.198826 207.062491 
L 119.427493 206.344047 
L 119.505468 205.778751 
L 119.607974 205.282147 
L 119.842775 204.752886 
L 119.959299 204.357629 
L 120.02238 203.789237 
L 119.973098 202.853247 
L 120.033331 202.466154 
L 120.175701 202.029796 
L 120.312595 201.755312 
L 120.427586 201.389334 
L 120.559004 199.85504 
L 120.526149 198.982322 
L 120.548052 198.792295 
L 120.668519 198.538925 
L 120.896829 198.285193 
L 121.599452 197.504333 
L 121.752773 197.384686 
L 122.267495 197.18762 
L 122.793222 197.145392 
L 123.149146 197.166506 
L 124.452431 197.666137 
L 124.62771 197.645093 
L 125.383145 197.64256 
L 126.004479 197.545646 
L 126.281388 197.412768 
L 126.65374 197.103094 
L 126.9111 196.79342 
L 127.026091 196.462631 
L 127.195894 195.702523 
L 127.195894 195.230973 
L 127.162985 194.970566 
L 127.075373 194.724305 
L 126.938479 194.048652 
L 126.812537 193.619331 
L 126.456613 192.866261 
L 126.429234 192.359521 
L 126.341622 191.944277 
L 126.166397 191.402347 
L 126.204728 190.909754 
L 126.483991 190.079265 
L 126.604458 189.635868 
L 126.626361 189.403613 
L 126.51137 188.903911 
L 126.4018 188.4394 
L 126.308712 187.622987 
L 126.232052 187.390732 
L 126.034925 187.123286 
L 125.906901 186.330872 
L 125.727516 185.958982 
L 125.582134 185.772685 
L 125.275273 185.521356 
L 124.756554 185.21119 
L 124.546559 184.83191 
L 124.488023 184.40463 
L 124.485395 183.885433 
L 124.720688 183.287692 
L 124.87264 183.075776 
L 125.157599 182.795592 
L 125.705722 182.372183 
L 126.149696 181.9183 
L 126.790031 181.760718 
L 127.533639 181.404522 
L 127.77063 181.250037 
L 128.531924 180.380979 
L 128.685245 180.134648 
L 128.863262 179.366515 
L 128.994242 178.407511 
L 128.952408 178.032735 
L 128.893093 177.797096 
L 128.833091 177.558723 
L 128.663342 177.108359 
L 128.701673 176.531239 
L 128.778333 176.080804 
L 129.238352 175.552951 
L 129.561421 175.243277 
L 129.994006 174.462054 
L 130.503251 173.652678 
L 130.56354 173.462651 
L 130.547057 173.103711 
L 130.645676 172.737732 
L 131.111115 172.02696 
L 131.203745 171.841063 
L 131.423233 171.400574 
L 131.516321 170.949998 
L 131.603933 170.753074 
L 131.740827 170.598237 
L 132.27203 170.239297 
L 132.846985 169.971851 
L 133.400036 169.605873 
L 133.794345 169.303237 
L 133.925764 169.099133 
L 134.117415 168.64166 
L 134.341921 167.649296 
L 134.495242 167.31147 
L 134.648563 167.114405 
L 135.125009 166.910301 
L 135.656157 166.790654 
L 136.231112 166.825845 
L 136.494003 166.945491 
L 136.893733 167.325546 
L 137.09086 167.614106 
L 137.326318 168.064541 
L 137.507018 168.522014 
L 137.561775 168.768345 
L 137.601694 169.210405 
L 137.649552 169.305137 
L 137.747404 169.386637 
L 137.852319 169.422813 
L 138.04857 169.441534 
L 138.382701 169.403388 
L 138.762554 169.310486 
L 138.848633 169.243484 
L 139.276454 169.186827 
L 139.803112 169.379459 
L 140.076955 169.582225 
L 140.276382 169.776123 
L 140.639151 170.490555 
L 141.096212 171.258617 
L 141.412218 172.120918 
L 141.732166 172.760043 
L 142.060986 173.294301 
L 142.177345 173.862131 
L 142.09614 174.157588 
L 142.043737 174.232684 
L 141.636833 174.720772 
L 141.43998 174.850202 
L 141.121236 175.199289 
L 141.047806 175.339275 
L 140.633127 175.853334 
L 140.54108 176.271394 
L 140.560354 176.403639 
L 140.616919 176.536658 
L 141.22303 177.052688 
L 141.528906 177.402901 
L 141.620187 177.461598 
L 142.173458 177.734533 
L 142.485795 177.784715 
L 142.683141 177.755859 
L 143.470336 177.270586 
L 144.342952 176.636035 
L 144.504487 176.456987 
L 144.905203 175.846578 
L 145.088148 175.235605 
L 145.046642 175.017144 
L 145.133378 173.922447 
L 145.484867 173.332025 
L 145.843583 172.870188 
L 146.071484 172.715281 
L 146.19896 172.665663 
L 146.491037 172.636596 
L 146.789849 172.696278 
L 147.233276 172.981741 
L 147.767764 173.658379 
L 147.932256 173.819832 
L 148.355258 174.102128 
L 148.596137 174.199886 
L 148.987215 174.329316 
L 149.225192 174.345855 
L 149.41865 174.330653 
L 149.614025 174.247956 
L 149.759899 174.127817 
L 149.841433 173.979032 
L 149.971482 173.584691 
L 149.925267 173.330828 
L 149.228313 172.517582 
L 148.99521 172.310805 
L 148.727719 172.011899 
L 148.624173 171.794916 
L 148.578021 171.468769 
L 148.564815 171.375448 
L 148.670881 170.823806 
L 148.89807 170.263296 
L 148.857987 170.171028 
L 148.843915 169.953271 
L 148.908091 169.603832 
L 148.989625 169.352221 
L 149.103904 169.129608 
L 149.366028 168.899464 
L 149.47746 168.726047 
L 149.526742 168.444525 
L 149.526742 167.832215 
L 149.362469 167.501427 
L 149.055772 167.065068 
L 148.305593 166.333111 
L 147.935979 166.067495 
L 147.549884 165.741986 
L 147.385611 165.551958 
L 147.078969 165.024105 
L 146.931123 164.714431 
L 146.838036 164.271034 
L 146.794229 163.736143 
L 146.810657 163.327936 
L 146.892793 163.130871 
L 146.985881 163.046414 
L 147.139202 162.997148 
L 147.402038 163.004186 
L 147.670351 163.074567 
L 148.075611 163.292746 
L 148.360351 163.377202 
L 148.584857 163.412393 
L 148.907926 163.391279 
L 149.493832 163.137909 
L 149.718393 162.99011 
L 150.178357 162.581903 
L 150.45762 162.194811 
L 150.457637 162.194779 
L 150.556184 162.004784 
L 150.643796 161.702148 
L 150.693078 161.40655 
L 150.736884 160.68874 
L 150.604644 159.98219 
L 150.58986 159.694897 
L 150.606999 159.13671 
L 150.659566 158.918249 
L 150.601742 158.462183 
L 150.074262 156.838999 
L 149.964747 156.430792 
L 149.988783 156.202183 
L 149.992126 156.170385 
L 150.156399 155.909977 
L 150.31525 155.782377 
L 150.770833 155.563705 
L 151.014395 155.265292 
L 151.084485 155.094127 
L 151.218531 154.418475 
L 151.405145 153.995066 
L 151.568104 153.770974 
L 151.644191 153.716977 
L 151.710911 153.669626 
L 152.000444 153.590156 
L 152.408358 153.478192 
L 152.995359 153.364457 
L 153.340606 153.134805 
L 153.461511 152.970397 
L 153.519335 152.864544 
L 153.534229 152.710271 
L 153.472024 152.291366 
L 153.279223 151.815031 
L 153.229284 151.585309 
L 153.210009 151.400631 
L 153.243302 150.817318 
L 153.479854 150.381522 
L 153.620965 150.183331 
L 153.941625 149.838748 
L 154.231621 149.640557 
L 154.677567 149.485157 
L 155.446856 149.387187 
L 156.156514 149.398448 
L 157.354226 149.648439 
L 157.759925 149.529074 
L 158.060434 149.479526 
L 158.337289 149.515561 
L 158.785863 149.666457 
L 159.146003 149.919826 
L 159.31159 149.993022 
L 160.150038 150.06847 
L 160.308835 149.857328 
L 160.423826 149.470236 
L 160.434777 148.224572 
L 160.703089 146.535441 
L 160.730468 145.627534 
L 160.845459 145.06449 
L 161.677829 144.072126 
L 162.109099 143.694886 
L 162.665491 143.457282 
L 163.257749 143.074412 
L 163.821971 142.638616 
L 164.596516 141.876255 
L 164.932947 141.482125 
L 165.464752 140.743412 
L 165.762852 140.48976 
L 166.398095 140.102668 
L 166.923768 140.025249 
L 167.52068 140.158972 
L 167.903983 140.377152 
L 168.345548 140.728772 
L 168.511754 140.885085 
L 168.776599 141.134164 
L 169.106076 141.593607 
L 169.320671 142.380179 
L 169.431609 142.921616 
L 169.697786 143.883576 
L 169.812174 144.15433 
L 169.951532 144.35787 
L 170.318025 144.735461 
L 170.585351 144.831742 
L 170.788666 144.858768 
L 171.045496 144.833105 
L 171.831798 144.754534 
L 172.343452 144.572108 
L 172.614174 144.412204 
L 172.998791 144.077756 
L 173.514881 143.698265 
L 173.874967 143.479804 
L 174.685379 142.828925 
L 175.084069 142.558664 
L 175.966322 142.215208 
L 176.279974 141.896525 
L 176.551626 141.746755 
L 177.150017 141.691577 
L 177.735923 141.459744 
L 178.132806 141.439756 
L 179.132624 141.736339 
L 179.253583 141.728597 
L 179.475735 141.628798 
L 179.708509 141.413011 
L 179.785717 141.249658 
L 179.828647 140.958635 
L 179.797819 140.612434 
L 179.830673 140.504611 
L 179.973153 140.252367 
L 180.137863 139.996253 
L 180.401302 139.678344 
L 180.932341 139.097072 
L 181.193425 138.592515 
L 181.392688 138.395309 
L 181.522627 138.283544 
L 182.031873 137.998222 
L 182.421418 137.856687 
L 183.022985 137.7167 
L 183.811494 137.674472 
L 184.014097 137.582977 
L 184.118136 137.498521 
L 184.337221 137.280341 
L 184.5453 136.99882 
L 184.723856 136.690428 
L 185.070972 136.090912 
L 185.109303 136.090912 
L 185.854006 134.61996 
L 186.368727 133.930232 
L 187.216538 133.037456 
L 187.50982 132.591877 
L 188.069168 132.116598 
L 188.528967 131.65448 
L 188.639961 131.472687 
L 188.916651 131.16252 
L 189.255928 130.898767 
L 189.723394 130.53536 
L 189.915429 130.300571 
L 190.066669 130.035518 
L 190.277212 129.81755 
L 190.901175 129.297579 
L 191.55038 128.852634 
L 191.720622 128.702512 
L 192.047141 128.279596 
L 192.543683 127.839367 
L 192.994228 127.374152 
L 194.453736 126.191831 
L 194.830249 125.791366 
L 195.028143 125.63681 
L 195.436141 125.454947 
L 195.886303 125.36296 
L 196.509061 125.382103 
L 197.042017 125.49992 
L 197.277803 125.499991 
L 197.92657 125.221988 
L 198.165204 124.773101 
L 198.438006 123.937052 
L 198.467958 123.739916 
L 198.451641 123.66102 
L 198.504701 123.378724 
L 198.677461 122.976148 
L 198.736161 122.262842 
L 198.676201 121.155335 
L 198.694819 120.825954 
L 198.723567 120.592502 
L 198.838941 120.223709 
L 198.947361 120.089916 
L 199.33718 119.819092 
L 199.479495 119.742588 
L 199.878075 119.680653 
L 200.18521 119.568537 
L 200.471592 119.39512 
L 200.58171 119.243239 
L 200.697084 118.808006 
L 200.699329 118.653028 
L 200.599232 118.270581 
L 200.494548 118.176458 
L 200.434303 118.122289 
L 200.322926 117.957388 
L 199.803057 116.980015 
L 199.439084 116.752826 
L 199.330719 116.643596 
L 198.749084 115.893411 
L 198.625496 115.62139 
L 198.497527 115.16821 
L 198.543579 114.970512 
L 198.694874 114.592287 
L 198.874533 114.348841 
L 200.393344 113.258437 
L 200.898866 112.702854 
L 200.959647 112.526339 
L 201.112311 111.779181 
L 201.095938 110.845725 
L 201.065822 110.668858 
L 200.890707 110.083434 
L 200.850405 109.671427 
L 200.896402 109.489704 
L 200.997594 109.284123 
L 201.161702 109.085439 
L 201.427221 108.870779 
L 202.332474 108.456942 
L 202.703018 108.116371 
L 202.832793 107.867998 
L 202.865922 107.518066 
L 202.656036 106.776608 
L 202.537048 106.583555 
L 202.19881 106.155642 
L 201.988541 105.754754 
L 201.833468 105.338102 
L 201.796671 105.135406 
L 201.818574 104.839246 
L 201.909745 104.513806 
L 201.997357 104.359532 
L 202.141041 104.244671 
L 202.297867 104.197376 
L 202.561579 104.179358 
L 203.266035 104.35728 
L 203.825001 104.769428 
L 204.064236 104.886541 
L 204.375259 104.938341 
L 204.48127 104.938341 
L 204.55574 104.898928 
L 204.61006 104.831363 
L 204.712566 104.58475 
L 204.739726 104.400071 
L 204.693291 104.116297 
L 204.445349 103.517219 
L 204.27018 102.28528 
L 204.271932 102.028532 
L 204.332384 101.79881 
L 204.597849 101.395741 
L 204.783586 101.232458 
L 205.269012 100.903641 
L 205.43898 100.700945 
L 205.605443 100.582706 
L 205.682596 99.574858 
L 205.609878 98.954384 
L 205.55293 98.74831 
L 205.500363 98.130088 
L 205.508248 97.969058 
L 205.584471 97.455562 
L 205.732535 97.065936 
L 205.757943 96.910536 
L 205.755314 96.585096 
L 205.814945 96.420688 
L 205.978999 96.185406 
L 205.981004 96.179393 
L 206.077562 95.889808 
L 206.083458 95.773616 
L 206.110417 95.242308 
L 206.110417 95.066356 
L 205.98995 94.390704 
L 205.924241 94.327362 
L 205.77092 93.954345 
L 205.69426 93.496872 
L 205.688784 93.201274 
L 205.787347 92.8916 
L 206.121369 92.441166 
L 207.090632 91.709209 
L 207.243953 91.519182 
L 207.304241 91.385459 
L 207.380902 91.110975 
L 207.43566 90.723882 
L 207.419232 90.554969 
L 207.35878 90.274574 
L 207.320231 90.216017 
L 207.224733 89.710474 
L 207.252769 88.792713 
L 207.40171 88.322009 
L 207.474428 87.858061 
L 207.550651 87.630591 
L 207.642522 87.459307 
L 208.561749 85.745521 
L 208.694919 85.561969 
L 208.787843 85.471882 
L 208.798566 85.466868 
L 208.919699 85.410229 
L 209.303002 84.987946 
L 209.549411 84.474169 
L 209.64803 84.009658 
L 209.757545 83.10182 
L 209.908457 82.353817 
L 210.425642 81.286004 
L 210.836323 80.842608 
L 211.241529 80.575162 
L 211.247005 80.631466 
L 212.04652 80.103613 
L 212.221745 79.864319 
L 212.391548 79.364618 
L 212.358693 78.449743 
L 212.462733 77.978193 
L 212.91722 77.140666 
L 213.119878 76.915449 
L 213.284151 76.169416 
L 213.251296 75.923084 
L 213.119878 75.451535 
L 212.687239 74.53666 
L 212.57939 74.065354 
L 212.577724 74.058073 
L 212.632481 73.530219 
L 212.802284 73.051632 
L 212.862518 72.516741 
L 212.747527 72.136686 
L 212.490111 71.86924 
L 212.227275 71.658099 
L 211.595154 71.437668 
L 211.548281 71.397691 
L 211.438766 71.04586 
L 211.515427 70.820642 
L 211.652136 70.726357 
L 211.739933 70.665805 
L 212.44636 70.384283 
L 212.610633 70.187218 
L 212.632536 70.102761 
L 212.583254 69.835316 
L 212.605157 69.068169 
L 212.566827 68.30806 
L 212.605157 67.920967 
L 212.66539 67.716864 
L 213.010363 67.090478 
L 213.037742 66.872299 
L 213.371818 66.267097 
L 213.492284 65.915195 
L 213.563469 65.352151 
L 213.525139 65.077667 
L 213.322536 64.56389 
L 213.144245 64.447059 
L 212.782407 64.07545 
L 212.292601 63.192668 
L 212.134899 62.474224 
L 212.063057 61.894289 
L 211.772185 60.81775 
L 211.609226 60.66798 
L 211.465543 60.612802 
L 211.012533 59.929267 
L 210.407134 58.935002 
L 210.249432 58.749198 
L 209.844664 58.397859 
L 209.614189 58.152372 
L 209.566879 57.840445 
L 209.557241 57.530771 
L 209.670316 57.162541 
L 209.852549 56.890028 
L 210.256441 56.542067 
L 210.323026 56.546571 
L 210.446559 56.45761 
L 210.816337 56.042084 
L 211.122103 55.50494 
L 211.397205 55.166059 
L 211.790584 54.895727 
L 212.402171 54.771858 
L 213.066161 54.534816 
L 213.346082 54.520811 
L 213.603388 54.633349 
L 213.713779 54.715553 
L 214.174618 55.206527 
L 214.381438 55.29211 
L 214.552281 55.29774 
L 214.815118 55.211032 
L 215.039405 55.063514 
L 215.429279 54.632223 
L 215.954623 54.268567 
L 216.241224 54.208392 
L 216.588989 54.038071 
L 216.961559 53.793992 
L 217.106338 53.747189 
L 217.349079 53.76035 
L 217.554036 53.695318 
L 217.714257 53.568 
L 217.711629 55.145226 
L 217.709055 55.145648 
L 217.709055 56.991305 
L 217.710753 56.990461 
L 217.710706 59.141287 
L 217.710643 62.075519 
L 217.710807 62.075519 
L 217.714019 64.930059 
L 217.714312 65.190206 
L 217.785497 65.978467 
L 217.769216 70.399979 
L 217.769015 70.454593 
L 217.769015 72.629349 
L 217.711629 74.449881 
L 217.711566 75.247424 
L 217.710698 86.367403 
L 217.710698 86.369303 
L 217.708069 87.289316 
L 217.714239 91.782236 
L 217.715954 93.031165 
L 217.713326 93.107739 
L 217.707193 97.372161 
L 217.702429 101.104366 
L 217.701827 101.17172 
L 217.701888 101.187529 
L 217.702648 101.384973 
L 217.704182 101.578238 
L 217.707467 102.80708 
L 217.700184 102.963395 
L 217.719733 106.201107 
L 217.690602 112.168173 
L 217.691958 113.99298 
L 217.695037 118.134887 
L 223.05876 118.149949 
L 229.187829 118.14467 
L 229.231963 118.143333 
L 232.919554 118.141968 
L 241.974268 118.138618 
L 250.723236 118.170766 
L 254.17513 118.18345 
L 254.187559 118.18345 
L 256.640452 118.181221 
L 259.068101 118.179016 
L 267.454277 118.146007 
L 267.585695 118.152412 
L 270.857898 118.178875 
L 274.789655 118.157761 
L 274.794474 123.568047 
L 274.7729 123.653911 
L 274.729313 123.703459 
L 274.722487 124.583844 
L 274.66897 131.487045 
L 274.477318 131.487045 
L 274.477975 131.980201 
L 274.461877 132.213723 
L 274.367475 144.675568 
L 274.274387 144.675568 
L 274.233866 148.049114 
L 274.187925 149.205746 
L 274.237973 149.331305 
L 274.208568 150.24231 
L 274.268528 150.258849 
L 274.285229 150.263424 
L 274.230526 154.411929 
L 274.823879 154.569089 
L 275.200666 154.31769 
L 276.102578 154.006678 
L 276.806486 153.629791 
L 277.650683 152.848779 
L 277.61531 152.460631 
L 277.873163 152.095075 
L 278.327596 151.977821 
L 279.698069 150.218732 
L 280.293229 149.682855 
L 281.104243 149.558282 
L 281.520017 149.339047 
L 282.0648 148.771991 
L 282.074438 148.697951 
L 281.966346 148.516018 
L 282.035067 148.248502 
L 282.690186 147.799122 
L 283.654577 147.485085 
L 284.336692 147.824811 
L 284.862419 147.882875 
L 284.997889 147.841069 
L 285.354525 147.114954 
L 285.446847 146.171293 
L 285.9811 145.754906 
L 286.140734 145.63049 
L 286.910571 145.268593 
L 286.988053 145.17372 
L 286.986027 143.986895 
L 287.076815 143.805454 
L 287.974401 143.662863 
L 288.337498 143.312861 
L 288.824293 143.348403 
L 289.174523 143.19617 
L 289.777841 142.312755 
L 290.051958 141.731412 
L 290.183047 141.614722 
L 290.304116 141.601772 
L 290.515864 141.705512 
L 291.070558 141.575872 
L 291.199676 141.30927 
L 291.329835 141.265212 
L 291.55467 141.31659 
L 291.733946 141.230022 
L 291.823037 140.957087 
L 291.773536 140.692878 
L 292.05592 139.918201 
L 292.17239 139.838952 
L 292.28196 139.838952 
L 292.48062 139.909403 
L 292.59019 140.13828 
L 292.699815 140.208731 
L 292.816229 140.208731 
L 292.925854 140.208731 
L 293.01489 140.155946 
L 293.076547 140.015044 
L 293.11767 139.750906 
L 293.186171 139.583612 
L 293.405366 139.513232 
L 293.651939 139.469174 
L 293.782098 139.354735 
L 293.830011 139.11699 
L 293.804658 138.880652 
L 293.824207 138.676197 
L 294.098597 138.418464 
L 294.234176 138.447883 
L 294.350646 138.42149 
L 294.432837 138.333444 
L 294.487594 138.236601 
L 294.507198 138.076837 
L 294.518423 137.906235 
L 294.644311 137.706425 
L 294.980358 137.535611 
L 295.183837 137.351918 
L 295.665101 136.35322 
L 295.625347 136.142501 
L 295.511123 135.938186 
L 295.466386 135.810516 
L 295.476352 135.727537 
L 295.521034 135.682846 
L 295.60547 135.63175 
L 295.704855 135.599797 
L 295.889552 135.659339 
L 296.330844 135.73169 
L 297.132659 135.510977 
L 297.792159 135.757379 
L 297.879442 135.610847 
L 297.910067 135.362461 
L 297.940168 135.118324 
L 298.018636 134.962009 
L 298.123716 134.892755 
L 298.356545 134.857424 
L 298.869131 135.350509 
L 298.939877 135.593392 
L 298.935004 135.735068 
L 299.035101 135.986326 
L 299.228997 136.152283 
L 299.348588 136.176424 
L 299.765676 136.039745 
L 299.951578 136.041505 
L 300.337619 136.45879 
L 301.057517 136.887196 
L 302.049943 137.329397 
L 302.526772 137.706002 
L 302.672263 137.953953 
L 302.780518 138.048896 
L 303.19258 137.939186 
L 303.258716 137.921578 
L 303.328149 137.779902 
L 303.445877 136.276012 
L 303.814396 136.100413 
L 304.068142 135.83163 
L 304.237891 135.540185 
L 304.221737 135.458051 
L 304.0924 135.345301 
L 304.032605 135.152107 
L 304.050401 135.055475 
L 304.244352 134.86228 
L 304.525697 134.689989 
L 304.887863 134.632066 
L 305.372851 134.712651 
L 305.46342 134.66437 
L 305.888831 133.949657 
L 306.62324 132.866783 
L 306.848293 132.38714 
L 307.133088 132.12807 
L 307.511572 132.224913 
L 307.636091 132.221746 
L 307.74922 132.125959 
L 308.065609 131.509778 
L 308.068785 131.430881 
L 308.998404 130.068245 
L 309.048507 129.91369 
L 309.038651 129.499853 
L 309.648652 129.042438 
L 309.730951 128.980726 
L 310.182974 129.117616 
L 310.396036 129.312289 
L 310.669988 129.451149 
L 310.924063 129.37549 
L 311.102135 128.951167 
L 311.014413 128.695615 
L 310.741173 128.348217 
L 310.39861 128.274599 
L 310.41783 127.465506 
L 310.484689 127.366691 
L 310.807156 127.357049 
L 311.173156 126.839964 
L 311.176496 126.64128 
L 311.3302 126.111808 
L 311.743894 126.199854 
L 311.818254 126.311055 
L 311.960296 126.334632 
L 312.06888 126.191268 
L 312.095656 125.925511 
L 312.063021 125.679531 
L 311.746686 124.744668 
L 312.06428 124.05501 
L 312.137868 124.036093 
L 312.338068 123.984629 
L 313.197762 123.463814 
L 313.712538 123.266749 
L 313.756344 123.435662 
L 313.739916 123.583461 
L 313.586595 123.914249 
L 313.422323 123.977591 
L 313.340186 124.083162 
L 313.020566 124.961651 
L 313.020566 125.085168 
L 313.073188 125.151185 
L 313.508566 125.311723 
L 313.858686 125.349306 
L 314.213788 125.062576 
L 314.662089 124.830954 
L 314.969771 124.913581 
L 315.336154 125.151467 
L 315.480495 125.586066 
L 315.469215 125.698815 
L 315.179493 125.996806 
L 314.74072 126.278821 
L 314.622499 126.219279 
L 314.61549 126.075984 
L 314.496995 125.979211 
L 314.005107 125.976607 
L 313.587964 126.066694 
L 313.109109 126.395863 
L 313.041429 126.531698 
L 313.038965 126.583287 
L 313.250329 126.867342 
L 313.368222 126.925828 
L 313.456765 127.03161 
L 313.567923 127.271678 
L 313.577067 127.425741 
L 313.622188 127.559956 
L 314.021589 127.935295 
L 314.210448 128.038332 
L 314.775875 128.118988 
L 314.945788 128.036784 
L 315.114003 127.688893 
L 315.2095 127.642161 
L 315.457168 127.621117 
L 315.502617 127.827191 
L 315.565972 128.413178 
L 315.875352 128.960527 
L 315.948289 129.214882 
L 315.971254 129.218966 
L 316.50824 129.314471 
L 316.587584 129.351491 
L 316.843356 129.720073 
L 316.929107 129.78609 
L 317.612043 129.969501 
L 317.710716 130.059659 
L 317.756055 130.143412 
L 317.783544 130.363984 
L 317.895194 130.496018 
L 318.280249 130.631289 
L 318.652272 130.876002 
L 319.029223 130.89057 
L 319.289596 131.128879 
L 319.649541 131.249249 
L 319.727985 131.275481 
L 321.104699 131.105583 
L 321.219581 131.052516 
L 321.229328 130.959121 
L 321.532082 130.936458 
L 321.998124 131.071378 
L 322.417184 131.248244 
L 322.472215 131.303 
L 322.765551 131.364231 
L 322.92172 131.250496 
L 323.034301 131.220021 
L 323.129141 131.242895 
L 323.170593 131.296173 
L 323.22442 131.478106 
L 323.305296 131.592404 
L 323.487243 131.734485 
L 323.501055 131.745271 
L 323.94585 131.838525 
L 324.288852 132.142779 
L 324.549224 132.316619 
L 324.605412 132.333091 
L 324.659177 132.348853 
L 325.141153 132.202321 
L 325.380499 132.212034 
L 325.524402 132.260315 
L 325.718462 132.239482 
L 326.742319 131.982171 
L 327.098134 131.972599 
L 327.523381 132.130604 
L 328.094065 132.404595 
L 328.323116 132.386718 
L 328.830992 132.465333 
L 329.052486 132.352513 
L 329.143001 132.344419 
L 329.327369 132.382918 
L 329.683239 132.574352 
L 329.848168 132.583994 
L 329.986541 132.535714 
L 330.300849 132.250602 
L 330.407517 131.888354 
L 330.400946 131.654902 
L 330.35495 131.396817 
L 330.388899 131.276678 
L 330.499345 131.189335 
L 330.949672 131.13472 
L 331.034601 131.036399 
L 331.026113 130.927239 
L 331.009138 130.828917 
L 331.034601 130.741575 
L 331.162076 130.665142 
L 331.264035 130.665142 
L 331.447363 130.816037 
L 331.644709 130.989877 
L 331.753075 130.951238 
L 331.822672 130.785422 
L 331.841727 130.621436 
L 331.841727 130.424933 
L 331.892706 130.271997 
L 332.079649 130.23927 
L 332.269165 130.437743 
L 332.427962 130.45766 
L 332.589387 130.424933 
L 332.682858 130.381227 
L 332.716863 130.271997 
L 332.648854 130.075494 
L 332.469906 129.753574 
L 332.291944 129.553975 
L 331.654456 129.246483 
L 330.995832 128.728131 
L 330.767548 128.486726 
L 330.550599 128.056913 
L 330.566259 127.718031 
L 330.613624 127.567557 
L 330.75928 127.456427 
L 330.942225 127.369507 
L 331.227128 127.297015 
L 331.380887 127.301801 
L 332.198363 127.614149 
L 332.486443 127.797701 
L 332.646663 127.966826 
L 332.722722 128.008702 
L 333.305287 128.18592 
L 333.693792 128.071833 
L 333.884896 127.949512 
L 334.001475 127.790241 
L 333.99348 127.56805 
L 333.883527 127.366762 
L 333.59709 127.130002 
L 333.040316 126.798158 
L 332.61463 126.455265 
L 332.344292 126.144465 
L 332.018868 125.659895 
L 331.937936 125.5166 
L 331.903932 125.394209 
L 331.921783 125.23163 
L 332.088629 125.040125 
L 332.326715 124.951586 
L 332.619832 124.988677 
L 333.040863 125.194891 
L 333.973494 125.547849 
L 334.250239 125.826486 
L 334.643562 126.052055 
L 334.939801 126.103714 
L 335.12866 126.07155 
L 335.212548 126.00856 
L 335.264294 125.891024 
L 335.256135 125.813817 
L 334.888493 125.403499 
L 334.678169 125.113602 
L 334.650681 125.037943 
L 334.651447 124.91337 
L 334.704015 124.693431 
L 334.812599 124.612986 
L 335.21441 124.535567 
L 335.499533 124.643249 
L 335.595194 124.74143 
L 335.799275 124.845945 
L 336.026081 124.878883 
L 336.166972 124.831236 
L 336.270574 124.728199 
L 336.293189 124.644446 
L 336.281799 124.512483 
L 336.178088 124.324144 
L 336.004616 124.174516 
L 335.962398 123.999128 
L 336.030407 123.887997 
L 336.197199 123.823528 
L 336.37861 123.829863 
L 337.365601 124.11139 
L 337.472174 124.141789 
L 338.507147 124.497421 
L 338.774418 124.595602 
L 340.149545 125.238598 
L 340.802091 125.296873 
L 341.036946 125.354866 
L 341.132498 125.322773 
L 341.226517 125.153789 
L 341.227995 124.820045 
L 341.29124 124.535215 
L 341.735434 123.857804 
L 342.138175 123.529197 
L 342.61254 123.013801 
L 343.181033 122.681957 
L 343.323513 122.535425 
L 343.404444 122.379251 
L 343.389824 122.272977 
L 342.888902 121.719505 
L 342.882002 121.55031 
L 342.968191 121.444247 
L 343.19987 121.321855 
L 344.326233 121.331075 
L 344.535297 121.284413 
L 344.637366 121.199041 
L 344.877204 120.90288 
L 345.11058 120.40712 
L 345.183517 120.326605 
L 345.640634 119.985401 
L 345.976517 119.925085 
L 346.26476 119.95007 
L 346.770446 120.088649 
L 347.206426 120.307673 
L 347.791566 120.316048 
L 348.243699 120.46434 
L 348.381414 120.557805 
L 348.861474 120.651059 
L 349.524533 120.866353 
L 349.743344 120.898446 
L 350.077201 121.02872 
L 350.330126 121.178279 
L 350.728926 121.635259 
L 350.796989 121.667423 
L 351.143714 121.67059 
L 351.402991 121.83148 
L 351.563431 121.985895 
L 351.870454 122.338073 
L 351.908623 122.381855 
L 352.804402 123.286455 
L 352.912931 123.487602 
L 353.037669 123.645395 
L 353.146507 123.724548 
L 353.520193 123.996312 
L 353.677237 124.165296 
L 353.997679 124.746498 
L 354.339585 125.152241 
L 354.4214 125.299796 
L 355.026956 126.391922 
L 355.101317 126.475675 
L 355.279334 126.585187 
L 355.520486 126.64494 
L 356.116961 126.665632 
L 356.942376 126.689068 
L 357.116724 126.586595 
L 357.387719 126.218786 
L 357.723821 126.066835 
L 358.109972 126.110752 
L 358.342746 126.354409 
L 358.315805 127.354516 
L 358.595014 127.748083 
L 358.985545 127.584449 
L 359.132241 127.065815 
L 359.179606 126.082741 
L 358.679067 125.606124 
L 358.692647 125.472472 
L 358.827296 125.356837 
L 359.070857 125.3315 
L 359.324385 125.435241 
L 359.550205 125.700434 
L 359.700788 126.141438 
L 359.873494 126.335407 
L 360.323053 126.481094 
L 360.937598 126.626852 
L 361.565814 126.824361 
L 361.653498 126.851929 
L 362.000059 126.802311 
L 362.13416 126.672951 
L 362.158199 126.241941 
L 362.112969 126.108359 
L 361.837922 125.741185 
L 361.834746 125.657502 
L 361.938402 125.569034 
L 362.508209 125.673338 
L 362.83889 125.895388 
L 363.434597 126.124688 
L 363.673559 126.178388 
L 364.256782 126.168675 
L 364.518359 126.248205 
L 364.761483 126.472649 
L 364.857582 126.601515 
L 364.970383 127.309191 
L 364.967043 127.573962 
L 364.914421 128.003986 
L 364.780703 128.719193 
L 364.697696 128.878421 
L 364.610242 129.04618 
L 364.290239 129.189545 
L 363.541539 129.170261 
L 363.000151 129.244864 
L 362.61745 129.220372 
L 362.303799 129.248665 
L 361.883042 129.464099 
L 361.782671 129.550949 
L 361.745436 129.631464 
L 361.729173 129.779545 
L 361.86656 130.061278 
L 362.682776 130.601025 
L 363.021123 131.016059 
L 363.071336 131.149641 
L 363.077852 131.267176 
L 363.036072 131.730772 
L 362.978029 131.977033 
L 362.978357 132.474342 
L 363.04364 132.564308 
L 363.112623 132.659372 
L 363.303453 132.709131 
L 363.892535 132.619748 
L 364.348063 132.341534 
L 364.379932 131.662503 
L 364.460699 131.527302 
L 364.577114 131.453192 
L 364.764713 131.420957 
L 365.110836 131.573683 
L 365.211097 131.66384 
L 365.298435 131.893985 
L 365.30977 132.022781 
L 365.222925 132.458577 
L 365.009151 132.702093 
L 364.129854 133.305957 
L 363.982775 133.554471 
L 364.002495 133.616423 
L 364.044159 133.747313 
L 364.455497 133.967322 
L 365.204453 134.156029 
L 365.241816 134.165443 
L 366.171326 134.404174 
L 366.907924 134.351248 
L 367.219495 134.0408 
L 367.451503 133.853799 
L 367.606686 133.782996 
L 368.002802 133.752521 
L 368.190292 133.781588 
L 368.461725 134.018278 
L 368.485928 134.208235 
L 368.40182 134.327318 
L 368.147964 134.476947 
L 367.615885 134.681754 
L 366.864337 135.055052 
L 366.698094 135.426239 
L 366.838656 135.740136 
L 367.166599 135.981681 
L 367.535118 136.152143 
L 367.56047 136.29586 
L 367.480579 136.427541 
L 367.281097 136.449571 
L 366.790579 136.421629 
L 366.65719 136.675492 
L 366.809142 136.945119 
L 367.173499 137.262324 
L 367.186367 137.570802 
L 366.985023 137.791937 
L 366.735821 137.904546 
L 366.610208 138.155311 
L 366.845446 138.432329 
L 367.270474 138.703716 
L 367.976737 138.795633 
L 368.608147 138.754038 
L 368.859977 138.868476 
L 369.081143 139.019935 
L 369.168262 139.118186 
L 369.190713 139.335521 
L 369.475561 139.986118 
L 369.884381 140.636152 
L 370.081673 141.27028 
L 370.109271 141.482758 
L 370.086711 141.617959 
L 369.989954 141.725852 
L 369.843149 141.782297 
L 369.353069 141.869428 
L 369.216503 141.928759 
L 369.15189 142.015609 
L 369.129165 142.189448 
L 369.158187 142.281225 
L 369.658123 143.208909 
L 369.672908 143.574325 
L 369.560326 144.047704 
L 369.316272 144.313108 
L 368.862551 144.592026 
L 368.731406 144.799859 
L 368.777074 145.075188 
L 368.921032 145.302798 
L 369.168919 145.445811 
L 370.257171 145.940234 
L 370.647811 146.269614 
L 371.006528 146.293333 
L 370.983147 146.407419 
L 370.890497 146.491806 
L 370.430041 146.690841 
L 370.164357 146.920071 
L 369.48602 148.145254 
L 369.322843 148.547619 
L 369.188194 148.963637 
L 369.153642 149.177735 
L 369.169905 149.343833 
L 369.167441 149.388243 
L 369.053107 149.53949 
L 369.025454 149.582845 
L 368.876842 149.961351 
L 368.859265 150.037573 
L 368.723247 150.346754 
L 368.693076 150.395317 
L 368.634157 150.718081 
L 368.432594 150.795852 
L 368.351827 150.773541 
L 368.297507 150.860813 
L 368.226925 150.89178 
L 368.205679 150.942102 
L 368.194344 151.329336 
L 368.210059 151.355165 
L 368.391416 151.35608 
L 368.190829 152.141368 
L 368.16483 152.243155 
L 367.800528 152.768968 
L 367.625303 152.937599 
L 367.495418 153.136635 
L 367.214895 153.758658 
L 366.948336 154.118865 
L 366.895495 154.388141 
L 366.698696 154.785157 
L 366.682926 154.861449 
L 366.72476 155.236858 
L 366.712221 155.336376 
L 366.341567 156.279967 
L 366.35783 156.37667 
L 366.320376 156.645734 
L 366.271532 156.77249 
L 366.099922 157.043736 
L 365.981098 157.114398 
L 365.876456 157.293164 
L 365.589527 157.978951 
L 365.427061 158.180873 
L 365.34706 158.508494 
L 365.340708 158.67065 
L 365.382324 158.861874 
L 365.384952 159.05535 
L 365.057776 159.594183 
L 365.049845 159.587605 
L 353.849778 150.298755 
L 353.830925 150.283413 
L 353.830854 150.283355 
L 351.266762 148.19681 
L 351.17595 148.122911 
L 349.693405 146.916481 
L 347.931635 145.418433 
L 346.985753 144.739473 
L 345.388147 143.289847 
L 344.400813 142.50792 
L 343.121402 141.372402 
L 341.258605 139.747317 
L 339.878988 138.731586 
L 336.645242 136.111698 
L 336.642432 136.109422 
L 336.511617 136.37736 
L 336.748881 136.568865 
L 336.711646 136.990092 
L 336.649277 137.188565 
L 336.628962 137.401114 
L 336.698614 137.545113 
L 336.672056 137.756043 
L 336.604869 137.899126 
L 336.306221 138.165939 
L 336.595615 138.582098 
L 336.662638 138.811609 
L 336.573055 139.035911 
L 336.415243 139.305891 
L 336.120045 139.636186 
L 335.970831 139.873228 
L 335.939838 140.119982 
L 336.047656 140.460341 
L 336.513807 140.948782 
L 336.482157 141.257822 
L 336.854508 141.543145 
L 336.218061 142.753055 
L 335.791226 143.367336 
L 335.559328 143.620565 
L 335.811213 143.726558 
L 336.554218 143.940514 
L 337.004216 144.02863 
L 337.087557 144.282211 
L 337.069706 144.37258 
L 336.958876 144.58724 
L 336.892839 144.501798 
L 336.828718 144.50574 
L 336.6248 144.738769 
L 336.61248 144.786769 
L 336.731523 144.906134 
L 336.685472 145.040983 
L 335.993391 146.422129 
L 335.933431 146.542691 
L 335.849543 146.523969 
L 335.678754 146.574995 
L 335.538794 147.079201 
L 335.299941 147.252055 
L 335.128879 147.431948 
L 334.517784 148.153207 
L 334.443642 148.255821 
L 334.446271 148.395597 
L 334.359151 148.597729 
L 334.108033 148.990734 
L 333.817216 149.107284 
L 333.620472 149.395422 
L 333.64577 149.429486 
L 333.592655 149.519784 
L 332.967269 150.333452 
L 332.681544 150.78628 
L 332.727431 150.885587 
L 332.862353 150.931686 
L 332.943887 150.908953 
L 333.245875 151.131989 
L 333.756818 151.725648 
L 333.76317 151.743595 
L 333.514297 151.930807 
L 333.472353 152.156587 
L 333.439224 152.637286 
L 332.765433 153.599528 
L 332.432616 153.983453 
L 332.216707 154.225421 
L 332.113106 154.337819 
L 332.038416 154.427202 
L 331.985685 154.499482 
L 331.716113 154.847936 
L 331.628611 154.968779 
L 331.737524 155.066678 
L 332.055994 155.097012 
L 332.381308 155.302946 
L 332.414875 155.383531 
L 332.173668 155.73114 
L 332.3041 156.044685 
L 333.089488 156.75046 
L 333.363604 156.879327 
L 333.542607 157.12228 
L 333.055155 157.644011 
L 332.981561 157.758238 
L 332.250492 158.158633 
L 331.737743 158.935281 
L 331.676797 159.376214 
L 331.586009 159.607062 
L 330.466765 160.929863 
L 330.094797 160.964561 
L 329.937752 161.08097 
L 329.897724 161.161274 
L 329.736299 161.296404 
L 329.617639 161.343841 
L 329.51119 161.208077 
L 329.450629 161.176758 
L 329.129913 161.350668 
L 328.534315 161.799695 
L 328.489195 161.9413 
L 328.029232 162.474925 
L 327.824 162.669738 
L 327.606558 162.933806 
L 327.366939 163.150296 
L 327.395632 163.273884 
L 327.349964 163.448216 
L 327.025525 163.906182 
L 326.815859 164.106133 
L 326.533748 164.22592 
L 326.067159 164.64032 
L 325.849394 164.926159 
L 325.768018 165.032973 
L 325.655491 165.102157 
L 325.297979 165.525214 
L 325.161906 165.773727 
L 324.983999 165.981631 
L 324.332165 166.655735 
L 324.664215 167.056341 
L 324.70605 167.082241 
L 324.803463 167.054581 
L 325.003548 167.186333 
L 325.1273 167.401909 
L 325.505839 167.636135 
L 325.404318 167.755148 
L 325.262058 167.843124 
L 325.016689 168.071649 
L 324.890145 168.273641 
L 324.410961 168.798327 
L 323.863221 169.571457 
L 323.780209 169.724112 
L 323.728353 169.933986 
L 323.412074 170.415177 
L 323.162544 170.883982 
L 323.011741 171.005458 
L 322.854094 171.050924 
L 322.716926 171.263192 
L 322.702909 171.398815 
L 322.335266 171.037059 
L 322.181124 170.587258 
L 322.009842 170.607246 
L 321.77088 170.731678 
L 321.699367 170.50252 
L 321.70309 170.224517 
L 321.673576 170.132107 
L 321.387796 170.133937 
L 321.175282 170.254217 
L 321.10448 170.344304 
L 321.01654 170.527505 
L 321.015499 170.685438 
L 320.689582 171.242852 
L 320.242432 171.15002 
L 319.926864 171.675128 
L 319.779512 172.161528 
L 319.560098 172.611329 
L 319.394018 172.729076 
L 319.185775 173.019254 
L 319.147007 173.186689 
L 318.923322 173.566744 
L 318.387958 174.164063 
L 318.324384 174.126972 
L 317.960301 174.201575 
L 317.785953 174.383509 
L 317.461241 174.847527 
L 317.081059 174.873638 
L 316.626626 175.335756 
L 316.432455 175.605666 
L 316.37715 175.643249 
L 316.296711 175.624598 
L 316.233028 175.529866 
L 316.173343 175.252778 
L 316.252686 174.519695 
L 316.23604 174.387732 
L 316.233247 174.35233 
L 316.217422 174.266114 
L 316.243432 174.079817 
L 316.382736 173.409936 
L 316.305746 173.533876 
L 316.088414 173.735305 
L 316.000199 173.774648 
L 315.881923 173.768595 
L 315.186557 174.025413 
L 314.551588 174.817475 
L 314.324837 175.411978 
L 314.332612 175.542464 
L 314.181372 175.720175 
L 314.082425 175.908372 
L 313.331808 176.386044 
L 312.981086 176.487673 
L 312.607256 176.847388 
L 312.497412 176.992653 
L 312.385324 177.347863 
L 312.301435 177.522618 
L 312.049386 177.732844 
L 311.394048 179.030026 
L 311.242807 179.491652 
L 311.014304 180.056244 
L 310.682966 180.803121 
L 310.349218 181.462727 
L 310.075157 181.971014 
L 309.915046 182.174344 
L 309.203416 183.337099 
L 308.354838 184.968377 
L 308.233222 185.30381 
L 308.048634 185.588359 
L 301.219216 179.457447 
L 300.990658 179.650923 
L 300.876707 179.787531 
L 300.952765 180.100724 
L 300.944497 180.163222 
L 300.761716 180.413917 
L 300.608395 180.878428 
L 300.542686 181.145874 
L 300.553638 181.258483 
L 300.531735 181.314787 
L 300.455074 181.41332 
L 300.236044 181.547043 
L 299.973207 181.575195 
L 299.819831 181.722994 
L 299.573422 182.335304 
L 299.551519 182.722396 
L 299.606277 182.799815 
L 299.62818 183.081266 
L 299.398198 183.538739 
L 299.288683 183.616158 
L 299.075129 183.616158 
L 298.341322 183.538739 
L 298.209904 183.637272 
L 297.881359 183.989174 
L 297.843029 184.179201 
L 297.914213 184.348114 
L 298.018253 184.446647 
L 298.062059 184.531103 
L 298.083962 184.819663 
L 298.067535 184.911158 
L 297.947068 184.932272 
L 297.843029 185.030805 
L 297.782795 185.340479 
L 297.755471 185.699419 
L 297.738989 185.783876 
L 297.552813 186.030207 
L 297.339259 186.192082 
L 296.917571 186.677707 
L 296.906619 186.88174 
L 296.846386 187.057691 
L 296.698541 187.261795 
L 296.528792 187.578507 
L 296.40285 187.930409 
L 296.211198 188.289349 
L 296.112635 188.606061 
L 296.150965 188.894551 
L 295.811468 189.858763 
L 295.82242 190.011207 
L 295.837971 190.077435 
L 295.920983 190.548492 
L 296.068829 190.717405 
L 296.205723 190.808829 
L 296.271432 190.970704 
L 296.07978 191.864536 
L 295.904556 192.181248 
L 295.811468 192.638721 
L 295.800517 192.870906 
L 295.06671 193.103161 
L 294.781971 192.85683 
L 294.30558 192.82171 
L 294.196065 192.849792 
L 293.785329 193.187618 
L 293.714144 193.314303 
L 293.57725 193.821042 
L 293.472389 193.958988 
L 293.468337 193.983058 
L 293.422998 194.075608 
L 293.388063 194.198422 
L 293.35822 194.384085 
L 293.243229 194.44039 
L 293.078956 194.637455 
L 292.855326 195.242586 
L 292.842568 195.255114 
L 292.608041 195.608635 
L 292.383645 196.269719 
L 292.372583 196.410972 
L 292.438293 196.600999 
L 292.175401 196.973945 
L 292.186408 197.445494 
L 292.224738 197.487723 
L 292.202835 197.600331 
L 291.939944 198.247832 
L 291.728394 198.513828 
L 291.688059 198.564544 
L 291.534738 198.881256 
L 291.490932 199.057136 
L 291.545689 199.22605 
L 291.529262 199.303468 
L 291.334654 199.415303 
L 291.314448 199.430575 
L 291.217144 199.486457 
L 290.987162 199.880588 
L 290.811938 200.471784 
L 290.543626 200.760343 
L 290.297217 201.112175 
L 290.105511 201.513344 
L 289.859102 202.13973 
L 289.618168 202.371985 
L 289.338905 203.575421 
L 289.557935 203.849905 
L 289.507284 204.067662 
L 289.507887 204.089198 
L 289.40768 204.409288 
L 289.390979 204.50015 
L 289.389994 204.503809 
L 289.359056 204.596571 
L 289.106021 204.8536 
L 288.894931 204.981693 
L 288.766853 205.164963 
L 288.79122 205.463869 
L 288.607887 205.670029 
L 288.533421 205.753766 
L 288.207559 205.924791 
L 288.054895 205.997283 
L 287.74546 206.220389 
L 287.637861 206.608115 
L 287.64717 207.120273 
L 287.604076 207.323461 
L 287.34666 207.384974 
L 287.033173 207.207334 
L 286.958265 207.198114 
L 286.592922 207.751797 
L 286.494195 207.997847 
L 286.468678 208.05584 
L 286.361846 208.195898 
L 286.247566 208.43871 
L 285.992944 208.50529 
L 285.857966 208.578415 
L 285.436552 208.878166 
L 285.407147 208.9085 
L 285.412568 208.952558 
L 285.423137 209.082973 
L 285.526574 209.247311 
L 285.543987 209.342888 
L 285.57602 209.434523 
L 285.550229 209.674732 
L 285.395703 209.862296 
L 285.251034 209.781077 
L 285.181984 209.68916 
L 285.096672 209.660656 
L 284.981845 209.674943 
L 284.911537 209.754473 
L 284.698037 209.859903 
L 284.586003 209.978916 
L 284.458801 210.088006 
L 283.791033 210.299992 
L 280.61367 209.218385 
L 274.79097 207.108097 
L 273.524427 204.258252 
L 272.336133 201.71062 
L 271.7666 201.084305 
L 271.695415 200.950582 
L 271.684463 200.845011 
L 271.492812 200.514223 
L 271.457039 200.484665 
L 271.416151 200.450881 
L 271.180694 200.352348 
L 270.474266 199.859685 
L 269.882885 199.69781 
L 269.581718 199.655581 
L 265.348739 197.656917 
L 264.963575 198.734794 
L 264.850445 198.958885 
L 264.784736 198.987038 
L 264.66427 199.360054 
L 264.713552 199.437472 
L 264.790212 199.704918 
L 264.609512 199.838641 
L 264.472618 199.810489 
L 264.242636 200.612826 
L 264.220733 201.042147 
L 264.374109 201.401017 
L 264.27007 201.689577 
L 264.040088 202.076669 
L 264.116749 202.161126 
L 264.215312 202.203354 
L 264.379585 202.386343 
L 264.587664 202.780474 
L 264.636946 203.005691 
L 264.560285 203.104224 
L 264.439818 203.125338 
L 264.335779 203.18868 
L 264.27007 203.252023 
L 264.250686 203.325359 
L 264.250686 203.331834 
L 264.176982 203.554659 
L 263.979855 203.364631 
L 263.634882 203.350555 
L 263.569173 203.519468 
L 263.567421 203.780791 
L 263.492513 204.005093 
L 263.19841 204.366427 
L 263.036546 204.325254 
L 262.983322 204.345946 
L 262.861048 204.503739 
L 262.693162 204.997036 
L 262.726728 205.183473 
L 262.8087 205.40306 
L 262.920296 205.434239 
L 262.878899 205.624266 
L 262.80306 205.657275 
L 262.614639 205.84688 
L 262.580909 205.929999 
L 262.618856 206.218418 
L 262.801801 206.275497 
L 263.04821 206.649498 
L 263.169005 207.003512 
L 263.197315 207.133293 
L 263.206076 207.583306 
L 263.164624 207.649323 
L 263.026854 207.878482 
L 263.132755 208.143886 
L 263.032385 208.35172 
L 263.017107 208.571448 
L 263.056861 208.743246 
L 263.112769 208.822847 
L 263.125582 208.923139 
L 262.196949 210.028745 
L 262.059726 210.28676 
L 262.069309 210.463485 
L 261.853619 210.781535 
L 261.609345 211.025896 
L 261.319787 211.873628 
L 261.117348 212.045849 
L 260.923233 212.518735 
L 260.824505 213.009639 
L 260.890433 213.09121 
L 261.04474 213.127526 
L 261.093255 213.188687 
L 261.147246 213.519757 
L 261.158581 213.681632 
L 261.137992 213.72379 
L 261.078854 213.793888 
L 260.953404 213.822252 
L 260.804737 213.939224 
L 260.665599 214.181333 
L 260.336232 214.366222 
L 260.145128 214.375583 
L 259.51788 214.136008 
L 259.404751 214.122354 
L 259.032071 214.196394 
L 258.877052 214.415911 
L 258.924144 214.59341 
L 258.732328 215.228946 
L 258.55798 215.673328 
L 258.219469 215.949219 
L 257.852593 216.000668 
L 257.273367 216.521342 
L 257.185262 216.825315 
L 257.105426 216.966921 
L 256.860331 217.194039 
L 256.607461 217.510258 
L 256.528445 217.701834 
L 256.530581 217.819369 
L 256.671472 218.054651 
L 256.864 218.27086 
L 256.901235 218.407398 
L 256.932337 218.731781 
L 257.202292 218.733189 
L 257.33371 218.861633 
L 257.643474 219.49935 
L 257.766623 220.053174 
L 257.689799 220.376572 
L 257.624692 220.450401 
L 257.298002 220.537715 
L 257.177815 220.569837 
L 257.014693 220.885353 
L 256.737674 221.04589 
L 256.428075 220.960871 
L 256.306787 221.117608 
L 256.224322 221.336421 
L 256.22372 221.436361 
L 256.270483 221.582541 
L 256.145416 221.727314 
L 256.009946 221.81719 
L 255.933997 221.814163 
L 255.700018 221.658552 
L 255.393431 221.714927 
L 255.279042 221.865119 
L 255.220999 222.047827 
L 255.213333 222.19267 
L 255.161149 222.263543 
L 255.031374 222.306897 
L 254.730919 222.284516 
L 254.609028 222.320551 
L 254.541239 222.396491 
L 254.328834 222.86621 
L 253.965353 223.024848 
L 253.600504 223.526661 
L 252.753842 224.43661 
L 252.472005 224.658167 
L 252.352688 224.652185 
L 252.263324 224.69392 
L 252.069154 224.884511 
L 252.046812 224.974175 
L 252.027866 225.043219 
L 251.9966 225.221211 
L 251.694886 225.701417 
L 251.275224 225.986176 
L 251.0085 226.062116 
L 250.819641 226.027067 
L 250.71374 226.177681 
L 250.723048 226.310841 
L 250.674478 226.356236 
L 250.448056 226.592926 
L 250.457365 226.622767 
L 250.698517 226.760713 
L 250.690687 226.93596 
L 250.588618 227.135348 
L 250.573067 227.292437 
L 250.627223 227.436013 
L 250.728634 227.433972 
L 250.783774 227.457902 
L 250.793686 227.497596 
L 250.586811 228.393821 
L 250.342428 228.669431 
L 250.226014 228.698216 
L 250.211722 228.714263 
L 250.038086 229.087913 
L 250.034581 229.12254 
L 250.01903 229.450865 
L 249.760575 229.750897 
L 249.267976 229.833594 
L 249.153204 230.026999 
L 249.47578 231.432215 
L 249.525117 231.492743 
L 249.727008 231.566009 
L 249.983109 231.602677 
L 250.16693 231.746675 
L 250.094924 231.91031 
L 249.909351 232.151293 
L 249.751813 232.308523 
L 249.733251 232.414023 
L 249.686652 232.493412 
L 249.512906 232.620097 
L 249.288948 232.842006 
L 248.919389 233.359303 
L 248.678675 233.55313 
L 248.631583 233.629634 
L 248.318151 234.454493 
L 248.331785 234.804988 
L 247.874834 235.93023 
L 247.708261 236.168327 
L 247.562387 236.472512 
L 247.568848 236.561191 
L 247.657117 236.747136 
L 247.57301 236.996705 
L 247.48715 237.171319 
L 247.40704 237.227412 
L 247.314226 237.241207 
L 247.212212 237.345792 
L 246.920409 237.939522 
L 246.910936 238.014899 
L 246.962956 238.118992 
L 246.891771 238.289876 
L 246.674274 238.355752 
L 246.40755 238.735314 
L 246.357392 238.880438 
L 246.384935 239.055122 
L 246.344633 239.217912 
L 246.166671 239.580653 
L 245.995663 239.797073 
L 245.646255 239.9334 
L 245.465282 240.088026 
L 245.427061 240.171779 
L 245.445459 240.273408 
L 245.413152 240.396292 
L 244.80956 240.913307 
L 244.148745 241.545816 
L 243.482127 242.280518 
L 243.33795 242.324787 
L 243.048492 242.646956 
L 243.020575 242.678027 
L 242.645869 242.950047 
L 242.487784 243.00614 
L 242.052735 243.354524 
L 242.001975 243.53695 
L 241.70727 243.825721 
L 241.371551 244.246525 
L 240.845386 245.051326 
L 240.49669 244.995092 
L 240.283792 245.291605 
L 239.732657 245.883223 
L 239.618597 246.071702 
L 239.610986 246.184029 
L 239.700022 246.285166 
L 239.685402 246.486524 
L 239.528466 246.555849 
L 239.39661 246.46358 
L 239.36381 246.470829 
L 239.038824 246.738908 
L 238.98905 246.805066 
L 238.957509 246.980806 
L 238.90872 247.065051 
L 238.360268 247.54955 
L 238.131218 247.420262 
L 238.066275 247.315887 
L 237.976747 247.248604 
L 237.709475 247.605292 
L 237.251154 248.076982 
L 236.881267 248.640448 
L 236.712832 248.990379 
L 236.710478 249.13663 
L 236.456622 249.561517 
L 236.177194 249.653363 
L 236.108911 249.799614 
L 236.081916 250.069593 
L 236.309926 250.566409 
L 236.179767 250.665504 
L 235.927226 250.707873 
L 235.474381 251.128889 
L 235.201524 251.428147 
L 235.025204 251.65808 
L 234.861589 252.032433 
L 234.826489 252.240126 
L 234.581011 252.477449 
L 234.292767 252.672966 
L 234.253889 252.695136 
L 234.162334 252.67557 
L 233.697936 253.442506 
L 233.580973 253.739934 
L 233.566682 253.90385 
L 233.650132 253.947274 
L 234.081239 254.549309 
L 234.162061 254.540089 
L 234.31122 254.631724 
L 234.324034 254.948999 
L 234.278037 255.021914 
L 234.256079 255.049292 
L 234.215833 254.998688 
L 233.986234 254.891851 
L 233.675704 254.849904 
L 233.513622 254.891006 
L 233.428583 255.079907 
L 232.915012 255.514718 
L 232.613188 255.594529 
L 232.371324 255.971135 
L 232.420168 256.087755 
L 232.455048 256.382649 
L 232.354733 256.470273 
L 232.092553 256.43466 
L 232.037741 256.45493 
L 231.744569 257.704042 
L 231.878835 258.043206 
L 232.33272 258.30305 
L 232.321604 258.483506 
L 232.27506 258.579364 
L 231.997658 258.951466 
L 231.654712 259.07998 
L 231.23943 259.59052 
L 231.074227 259.850083 
L 230.41166 260.655306 
L 230.028303 260.834846 
L 229.917145 260.980464 
L 230.125278 261.529924 
L 230.129604 261.547097 
L 230.83521 263.423088 
L 231.330711 263.992817 
L 231.329123 263.996548 
L 231.487756 264.195091 
L 231.500186 264.201918 
L 231.629085 264.237108 
L 231.631495 264.236052 
L 231.715766 264.265964 
L 231.716314 264.267301 
L 232.198838 264.460777 
L 232.200919 264.45944 
L 233.030112 264.78882 
L 234.032395 265.485939 
L 233.900867 265.808422 
L 233.7568 266.028431 
L 232.976231 266.950274 
L 232.455596 267.291197 
L 231.955167 267.756975 
L 231.701037 267.906534 
L 231.329671 268.06313 
L 230.667214 268.462047 
L 229.98592 268.93437 
L 228.144861 269.951719 
L 229.02706 271.223916 
L 228.913658 271.373053 
L 228.542127 271.56315 
L 228.370463 271.58898 
L 228.20044 271.661472 
L 228.046188 271.927369 
L 229.193907 272.551151 
L 230.163225 271.909 
L 230.670226 272.119296 
L 229.717225 273.896121 
L 229.16724 274.208892 
L 229.194728 274.275542 
L 228.89493 274.411869 
L 228.576187 274.557064 
L 228.221577 274.803677 
L 227.951348 274.918538 
L 227.307892 275.030865 
L 226.045785 275.542461 
L 226.246636 275.885777 
L 225.902813 276.125211 
L 225.765755 276.303274 
L 225.417716 276.492456 
L 225.186255 276.563822 
L 224.236485 277.130596 
L 224.075717 277.270794 
L 222.825054 278.005988 
L 221.87397 278.832958 
L 221.417183 279.120603 
L 221.091594 279.245317 
L 220.680529 279.676257 
L 220.243737 279.842634 
L 220.090188 279.901122 
L 219.035228 279.048041 
L 218.903098 278.364717 
L 219.138501 277.451883 
L 218.130414 275.768171 
L 218.019914 275.924838 
L 217.925183 275.986773 
L 217.468396 276.103675 
L 217.201836 276.071089 
L 216.981546 276.088261 
L 216.922572 276.138795 
L 216.575573 276.271039 
L 216.299048 276.259216 
L 215.904793 276.338886 
L 215.389744 276.605487 
L 215.123896 276.830705 
L 214.052892 277.528949 
L 213.812835 277.765287 
L 213.750576 277.895913 
L 213.267231 278.266607 
L 212.358365 278.740267 
L 212.067328 278.984769 
L 212.037376 279.172122 
L 211.834718 279.170644 
L 211.506173 279.255311 
L 211.395289 279.318513 
L 211.231618 279.449069 
L 211.222036 279.506499 
L 211.255274 279.582862 
L 210.765412 279.957568 
L 210.343998 280.142879 
L 210.174359 280.278643 
L 209.767784 280.515473 
L 209.720748 280.515825 
L 208.647226 281.190422 
L 208.25664 281.393188 
L 207.517741 281.895071 
L 206.955052 282.170329 
L 206.510585 282.34248 
L 206.072908 282.592401 
L 205.719667 282.744634 
L 205.309697 282.91608 
L 205.134747 282.920374 
L 204.523433 283.2841 
L 203.965125 283.461388 
L 203.605532 282.664963 
L 203.599126 282.633151 
L 203.296371 282.289342 
L 203.236849 282.174411 
L 203.240025 282.023515 
L 203.192715 281.897253 
L 202.857106 281.821172 
L 202.388819 281.811389 
L 202.302412 281.816245 
L 201.991279 281.651836 
L 201.936248 281.421411 
L 201.97874 281.226386 
L 201.846719 281.074928 
L 201.689565 280.987937 
L 200.331194 279.802168 
L 200.263733 279.710462 
L 200.045031 279.688433 
L 199.905892 279.858472 
L 199.790299 279.869803 
L 199.553089 279.682028 
L 199.415812 279.622909 
L 199.205871 279.612351 
L 199.131237 279.533807 
L 199.125029 279.524467 
L 199.065747 279.435274 
L 199.065357 279.435962 
L 198.869386 279.781828 
L 198.759542 280.113812 
L 198.758119 280.320097 
L 198.797489 280.518289 
L 198.890249 280.683753 
L 197.76843 282.647086 
L 199.619072 285.252852 
L 198.750069 285.702302 
L 198.549383 285.839544 
L 197.940643 286.520123 
L 196.821836 287.498622 
L 195.796556 288.120574 
L 195.370487 288.295118 
L 195.147186 288.352196 
L 194.762952 288.534763 
L 194.228463 288.844859 
L 193.206687 289.106252 
L 192.80515 289.156504 
L 192.462532 289.06508 
L 192.398137 289.014265 
L 192.351538 288.834232 
L 192.51948 288.513438 
L 192.493032 288.393932 
L 191.593694 288.586352 
L 191.343835 288.70438 
L 190.91229 288.830713 
L 190.174158 288.966547 
L 189.338887 289.240468 
L 186.775083 289.652194 
L 186.183263 289.776134 
L 185.209892 290.06772 
L 183.577679 290.72451 
L 182.670894 290.990759 
L 182.229274 291.166781 
L 181.62026 291.511786 
L 180.162449 292.5651 
L 179.049228 293.137926 
L 176.345211 290.780135 
L 173.847205 288.601976 
L 171.544594 285.901901 
L 171.316858 286.02577 
L 171.276501 286.125922 
L 171.219663 286.272383 
L 171.14908 286.31433 
L 171.155378 286.402939 
L 171.222948 286.481836 
L 171.246549 286.61401 
L 171.04307 286.857104 
L 170.972159 287.132996 
L 170.871131 287.244267 
L 170.712663 287.256021 
L 170.558794 287.298882 
L 170.341516 287.245534 
L 170.298422 287.228924 
L 170.249359 287.140737 
L 170.199146 287.113359 
L 170.122212 287.153547 
L 169.785179 287.399315 
L 169.551857 287.805833 
L 169.543424 288.004939 
L 169.617073 288.10685 
L 169.646642 288.237758 
L 169.571734 288.345651 
L 169.352156 288.437497 
L 169.195276 288.639208 
L 169.266242 288.793834 
L 168.968798 289.534658 
L 168.939613 289.621508 
L 168.947936 289.678657 
L 168.837545 289.938712 
L 168.559924 290.43954 
L 167.942094 290.594306 
L 167.673563 290.475926 
L 166.82838 290.625274 
L 166.785505 290.695091 
L 166.504544 290.876954 
L 166.247402 290.914467 
L 166.154862 290.980554 
L 166.193795 291.094993 
L 166.186895 291.190288 
L 166.071521 291.376655 
L 165.287174 291.712511 
L 165.083859 291.994455 
L 164.896862 292.030842 
L 164.418938 292.005786 
L 164.229969 291.904931 
L 164.103643 291.745449 
L 164.08174 291.611093 
L 164.118538 291.567316 
L 164.118428 291.517416 
L 164.058249 291.508548 
L 163.821916 291.89184 
L 163.768363 292.065258 
L 163.729376 292.235438 
L 163.644611 292.462626 
L 163.65381 292.828393 
L 163.595493 293.213515 
L 163.515492 293.300505 
L 162.861523 293.698155 
L 162.493059 293.775362 
L 162.18576 293.944486 
L 161.563331 294.131206 
L 161.520948 294.173152 
L 161.299892 294.62591 
L 161.061587 294.998152 
L 160.923653 295.070644 
L 160.881325 295.080356 
L 160.858163 295.050656 
L 160.801324 295.019125 
L 160.676915 295.123429 
L 154.238247 295.488 
L 154.216727 295.418746 
L 154.06472 295.336612 
L 153.961283 295.194795 
L 153.920543 294.811292 
L 153.94617 294.786377 
L 153.772424 294.670038 
L 153.31268 294.637311 
L 153.102356 294.31138 
L 152.183743 293.567458 
L 152.155378 293.176847 
L 151.97435 292.933049 
L 151.782315 292.742459 
L 151.612019 292.740417 
L 151.501245 292.789613 
L 151.220557 292.908979 
L 150.934559 292.899337 
L 150.894384 292.85901 
L 150.635582 292.599234 
L 150.619812 292.483107 
L 150.667506 292.364867 
L 150.662851 292.242194 
L 150.801443 291.78817 
L 150.76377 291.736651 
L 150.690066 291.712511 
L 150.556622 291.50151 
L 150.553336 291.275941 
L 150.520263 291.116389 
L 150.435553 291.06487 
L 150.236564 291.008425 
L 150.190951 290.977669 
L 150.147747 290.904051 
L 150.032756 290.82621 
L 149.894822 290.665039 
L 149.884801 290.586635 
L 149.883925 290.529627 
L 149.889346 290.38401 
L 149.747579 290.295964 
L 149.66369 290.263659 
L 149.607618 290.286321 
L 149.549575 290.298497 
L 149.47516 290.306873 
L 149.33049 290.369018 
L 148.955565 290.327424 
L 148.952116 290.324608 
L 148.811279 290.252398 
L 148.700067 290.145349 
L 148.699409 289.963205 
L 148.493521 289.780356 
L 148.155557 289.651138 
L 148.112768 289.687643 
L 147.929354 289.844121 
L 147.917636 289.807945 
L 147.946329 289.712932 
L 147.920045 289.621437 
L 147.389992 289.545567 
L 147.274618 289.566259 
L 147.173316 289.73848 
L 147.066429 289.750585 
L 146.991138 289.752204 
L 146.845318 289.885153 
L 146.654762 289.971439 
L 146.494706 290.003392 
L 146.196824 289.994594 
L 145.68183 289.837857 
L 145.686374 289.744744 
L 145.740092 289.642763 
L 145.68391 289.580757 
L 145.44681 289.515515 
L 145.25253 289.570904 
L 145.205603 289.568793 
L 145.006285 289.634739 
L 144.834237 289.594059 
L 144.637 289.419938 
L 144.609184 289.162979 
L 144.64045 288.922911 
L 144.586952 288.558763 
L 144.613619 288.52491 
L 144.631853 288.499502 
L 144.587226 288.091929 
L 144.501147 288.079824 
L 144.304458 288.218966 
L 144.172656 288.15682 
L 144.023223 287.962852 
L 143.998089 287.932236 
L 143.972682 287.886841 
L 143.98659 287.842079 
L 144.080609 287.693576 
L 144.287811 287.571466 
L 144.269249 287.4483 
L 143.877294 287.087741 
L 143.726437 287.099776 
L 143.590529 286.913479 
L 143.560357 286.790243 
L 143.279451 286.524768 
L 143.259191 286.319538 
L 143.210566 286.296946 
L 143.140202 286.362259 
L 142.910823 286.396112 
L 142.808043 286.391889 
L 142.76588 286.361555 
L 142.483659 286.433484 
L 142.434542 286.435525 
L 142.380058 286.34572 
L 142.37847 286.30131 
L 142.340578 286.300606 
L 142.312542 286.304477 
L 142.12319 285.719615 
L 142.121219 285.661551 
L 141.929732 285.57442 
L 141.885761 285.52445 
L 141.768033 285.543805 
L 141.74487 285.544861 
L 141.692631 285.519594 
L 141.661255 285.472861 
L 141.498078 285.12476 
L 141.464566 285.117018 
L 141.439159 285.081828 
L 141.18032 285.081335 
L 140.983138 284.795872 
L 140.959482 284.654126 
L 140.912391 284.583253 
L 140.689418 284.520403 
L 140.637617 284.405964 
L 140.53314 284.286106 
L 140.631704 284.006485 
L 140.455494 283.867765 
L 140.440216 283.857982 
L 140.237559 283.434362 
L 140.299544 283.330058 
L 140.23838 283.079011 
L 140.129303 283.025663 
L 140.081554 282.872515 
L 140.253657 282.275196 
L 140.517753 281.949475 
L 140.545022 281.652892 
L 140.4078 281.399733 
L 140.448539 281.143901 
L 140.596604 281.0346 
L 140.682792 281.032488 
L 140.751677 280.980477 
L 140.807804 280.715424 
L 140.315698 280.445304 
L 140.070274 280.114305 
L 139.872983 279.471168 
L 140.02165 279.256297 
L 140.159748 278.955139 
L 140.143047 278.813885 
L 139.966618 278.668479 
L 139.838924 278.666931 
L 139.746876 278.706062 
L 139.587586 278.686004 
L 139.39035 278.300812 
L 138.88083 278.134855 
L 138.502456 278.214173 
L 138.296567 277.974458 
L 138.32652 277.891972 
L 137.922354 277.491507 
L 137.712249 277.489818 
L 137.445142 277.693569 
L 137.32933 277.653945 
L 137.041086 277.228988 
L 136.85606 276.601405 
L 136.80519 276.117751 
L 137.005712 275.676888 
L 137.173654 275.542461 
L 137.400679 275.486016 
L 137.695055 275.502485 
L 137.758465 275.561816 
L 137.844762 275.561886 
L 138.220564 275.188799 
L 138.535091 274.936556 
L 138.960722 275.07619 
L 139.176959 275.057962 
L 139.208883 275.021998 
L 139.205926 274.889119 
L 139.127513 274.808886 
L 139.116726 274.753848 
L 139.132441 274.490766 
L 139.183366 274.385758 
L 139.255427 274.333958 
L 139.400151 274.311014 
L 139.577073 274.344445 
L 139.689052 274.272094 
L 139.673939 273.987264 
L 139.736527 273.872333 
L 139.840238 273.81082 
L 140.326047 273.636418 
L 140.567473 273.625368 
L 140.573569 273.618997 
L 140.629568 273.560477 
L 140.648459 273.478343 
L 140.281748 273.143262 
L 139.701044 272.985328 
L 139.515306 272.79523 
L 139.483821 272.713096 
L 139.490118 272.540664 
L 139.685274 272.34571 
L 139.683686 272.298978 
L 139.573514 272.244222 
L 139.162722 272.503644 
L 138.992645 272.473099 
L 138.934438 272.378015 
L 138.948511 272.141185 
L 138.975287 272.067074 
L 138.951632 272.000987 
L 138.843048 271.999439 
L 138.392886 272.168704 
L 138.300017 272.062429 
L 138.353789 271.817998 
L 138.512367 271.580604 
L 138.535912 271.450049 
L 138.252487 271.205266 
L 137.910855 271.281136 
L 137.66691 271.497133 
L 137.577217 271.535843 
L 137.301677 271.463491 
L 137.215105 271.486084 
L 137.02318 271.781048 
L 136.944548 271.831089 
L 136.211947 272.108036 
L 136.114369 272.138581 
L 135.853066 272.115989 
L 135.746069 272.062711 
L 135.691038 271.764649 
L 135.584096 271.622762 
L 135.467572 271.626 
L 135.234579 271.785412 
L 135.039368 271.827218 
L 134.595503 271.470952 
L 134.535708 271.176128 
L 134.483798 271.105185 
L 134.272817 271.074569 
L 134.165766 271.190556 
L 134.145232 271.345182 
L 134.164123 271.53535 
L 133.617807 271.891334 
L 133.47144 271.881692 
L 133.26358 271.944471 
L 133.150232 271.930043 
L 133.090437 271.883311 
L 133.069958 271.731922 
L 133.131341 271.527256 
L 133.090437 271.345182 
L 132.607037 270.605694 
L 132.50935 270.54932 
L 131.985046 270.578457 
L 131.73464 270.536651 
L 131.035495 270.388711 
L 131.018137 270.293698 
L 130.970826 270.248584 
L 130.233954 270.284408 
L 129.807502 269.100468 
L 129.811061 269.002217 
L 129.740205 268.916704 
L 129.646022 268.378575 
L 129.490291 268.03533 
L 129.391071 267.895062 
L 128.866603 267.780412 
L 128.600262 267.957489 
L 128.489925 268.079951 
L 128.036314 267.947636 
L 127.987525 267.66731 
L 127.612709 266.876164 
L 127.411037 266.842311 
L 127.36066 266.745608 
L 127.35283 266.523276 
L 126.943134 266.159128 
L 126.683145 265.902943 
L 126.627949 265.753103 
L 126.684897 265.554137 
L 126.438952 265.507699 
L 126.394901 265.499381 
L 126.361827 265.544495 
L 126.082783 265.638031 
L 125.600533 265.47693 
L 125.53121 265.505927 
L 125.480778 265.601011 
L 125.428813 265.623603 
L 125.135641 265.673432 
L 124.927617 265.651966 
L 124.809395 265.593128 
L 124.855063 265.499663 
L 124.560194 265.053451 
L 124.557073 264.99229 
L 124.621632 264.913323 
L 124.752393 264.628071 
L 124.752338 264.531439 
L 124.607285 264.41869 
L 124.373909 264.304462 
L 124.299767 264.1321 
L 124.268062 263.784139 
L 124.236522 263.703554 
L 123.509396 263.114258 
L 123.433666 263.091736 
L 123.261837 263.149871 
L 122.803954 263.435052 
L 122.539037 263.446172 
L 121.944863 263.04796 
L 121.722602 262.951187 
L 121.401996 262.513702 
L 120.932724 262.504623 
L 120.838103 262.638346 
L 120.641031 262.573877 
L 120.497566 262.482031 
L 120.480208 262.354712 
L 120.511748 262.275816 
L 120.497621 261.953544 
L 120.478729 261.931022 
L 120.403109 261.375228 
L 120.395224 261.312378 
L 120.311664 261.264097 
L 120.108185 261.051407 
L 120.03251 260.846741 
L 120.082996 260.667974 
L 120.337017 260.415027 
L 120.374854 260.233023 
L 120.296003 260.110561 
L 120.138301 259.970363 
L 119.879572 259.930035 
L 119.794369 259.8624 
L 119.606551 259.466087 
L 119.582895 259.182525 
L 119.549767 259.081036 
L 119.303632 258.886082 
L 119.212077 258.451201 
L 119.188367 258.075862 
L 119.156772 258.025892 
L 119.112583 257.980778 
L 118.721176 257.850363 
L 118.381114 257.518742 
L 118.36443 257.502473 
L 118.351726 257.35587 
L 118.645227 256.990103 
L 119.017907 256.793812 
L 119.039974 256.500607 
L 118.692592 256.022161 
L 118.577382 256.0109 
L 118.484185 255.959381 
L 118.338858 255.799899 
L 118.334094 255.735501 
L 118.220308 255.158804 
L 118.131875 255.097643 
L 118.060745 254.992917 
L 118.049684 254.893047 
L 118.089109 254.741588 
L 118.016391 254.383985 
L 117.975323 254.345346 
L 117.515688 254.26652 
L 117.218573 253.849446 
L 117.117436 253.796308 
L 116.839432 253.756192 
L 116.697281 253.685389 
L 116.632448 253.590446 
L 116.600798 253.482482 
L 116.479072 253.319903 
L 116.358989 253.241007 
L 116.091005 253.21208 
L 115.952688 253.152327 
L 115.891305 252.778537 
L 115.832933 252.596462 
L 115.521965 252.138778 
L 115.449302 252.082333 
L 115.384523 252.082333 
L 114.732306 251.257263 
L 114.283622 250.865666 
L 114.225196 250.785081 
L 114.048274 250.21155 
L 113.994557 250.172841 
L 113.763809 250.150249 
L 113.59313 250.069663 
L 113.59313 250.021312 
L 113.543624 249.516137 
L 113.511048 249.183714 
L 113.427269 249.119246 
L 113.386146 249.020995 
L 113.395674 248.927529 
L 113.503163 248.863131 
L 113.746725 248.39116 
L 113.691365 248.270317 
L 113.655937 248.078882 
L 113.663219 247.587204 
L 113.631624 247.464742 
L 113.538372 247.335875 
L 113.125555 247.150564 
L 112.956354 247.036195 
L 112.757146 246.535227 
L 112.602127 246.308039 
L 112.108542 246.019761 
L 110.814785 246.371241 
L 110.743601 246.379335 
L 110.631293 246.305294 
L 109.92043 245.131348 
L 109.88084 245.050763 
L 109.472294 244.422758 
L 109.340876 244.33429 
L 109.137068 243.989426 
L 109.132359 243.879914 
L 109.217891 243.755903 
L 109.387694 243.306524 
L 109.386878 243.124389 
L 109.386872 243.123253 
L 109.420767 243.060052 
L 109.496716 243.045483 
L 109.905098 243.138667 
L 110.05382 243.085459 
L 110.281611 242.867843 
L 110.602709 242.461748 
L 110.783136 242.165235 
L 110.791021 242.104074 
L 110.735606 242.052485 
L 110.915704 241.184131 
L 111.156254 240.916685 
L 111.206631 240.674858 
L 111.196227 240.455482 
L 111.129641 240.359202 
L 111.045205 240.303038 
L 110.792554 240.215203 
L 110.00744 239.590295 
L 109.910793 239.405547 
L 109.798649 239.367612 
L 109.245926 239.347342 
L 108.844937 239.181596 
L 108.701746 239.200106 
L 108.512339 239.310955 
L 108.36433 239.293008 
L 108.288928 239.203273 
L 108.263795 239.113538 
L 108.288928 238.926889 
L 108.274965 238.779724 
L 108.162219 238.687103 
L 108.001999 238.375318 
L 107.824584 237.911088 
L 107.825351 237.429545 
L 107.756849 237.346496 
L 107.575985 237.261617 
L 107.323826 237.018242 
L 107.123249 236.65712 
L 107.099594 236.487714 
L 107.187261 236.282696 
L 107.196953 236.106533 
L 106.980551 235.878501 
L 106.834294 235.618867 
L 106.787038 235.469027 
L 106.78315 235.169277 
L 106.64987 234.988188 
L 106.53362 234.849609 
L 106.524147 234.46139 
L 106.432209 234.305146 
L 105.975586 234.16171 
L 105.639484 233.612532 
L 105.18286 233.509495 
L 104.637256 232.907108 
L 104.557912 232.654231 
L 104.576858 232.386856 
L 104.546523 231.757092 
L 104.432298 231.625058 
L 104.213378 231.552636 
L 104.113445 231.485001 
L 103.872183 231.129157 
L 103.756316 231.02612 
L 103.619915 230.958485 
L 103.402473 230.783026 
L 102.878991 230.826803 
L 102.698126 230.789923 
L 102.648899 230.738405 
L 102.604381 230.614395 
L 102.604217 229.998073 
L 102.551759 229.898273 
L 102.329608 229.798263 
L 101.887002 229.669185 
L 101.766481 229.585362 
L 101.720485 229.501609 
L 101.666713 229.18905 
L 101.660689 228.579133 
L 101.630628 228.256438 
L 101.313472 227.640961 
L 101.408859 227.354302 
" clip-path="url(#p1db0c3eda9)" style="fill: #33a1ff"/>
   </g>
   <g id="text_1">
    <!-- WV -->
    <g transform="translate(226.123125 35.472) scale(0.12 -0.12)">
     <defs>
      <path id="DejaVuSans-57" d="M 213 4666 
L 850 4666 
L 1831 722 
L 2809 4666 
L 3519 4666 
L 4500 722 
L 5478 4666 
L 6119 4666 
L 4947 0 
L 4153 0 
L 3169 4050 
L 2175 0 
L 1381 0 
L 213 4666 
z
" transform="scale(0.015625)"/>
      <path id="DejaVuSans-56" d="M 1831 0 
L 50 4666 
L 709 4666 
L 2188 738 
L 3669 4666 
L 4325 4666 
L 2547 0 
L 1831 0 
z
" transform="scale(0.015625)"/>
     </defs>
     <use xlink:href="#DejaVuSans-57"/>
     <use xlink:href="#DejaVuSans-56" x="98.876953"/>
    </g>
   </g>
  </g>
 </g>
 <defs>
  <clipPath id="p1db0c3eda9">
   <rect x="87.828819" y="41.472" width="296.662362" height="266.112"/>
  </clipPath>
 </defs>
</svg>
