<?xml version="1.0" encoding="utf-8" standalone="no"?>
<!DOCTYPE svg PUBLIC "-//W3C//DTD SVG 1.1//EN"
  "http://www.w3.org/Graphics/SVG/1.1/DTD/svg11.dtd">
<svg xmlns:xlink="http://www.w3.org/1999/xlink" width="460.8pt" height="345.6pt" viewBox="0 0 460.8 345.6" xmlns="http://www.w3.org/2000/svg" version="1.1">
 <metadata>
  <rdf:RDF xmlns:dc="http://purl.org/dc/elements/1.1/" xmlns:cc="http://creativecommons.org/ns#" xmlns:rdf="http://www.w3.org/1999/02/22-rdf-syntax-ns#">
   <cc:Work>
    <dc:type rdf:resource="http://purl.org/dc/dcmitype/StillImage"/>
    <dc:date>2023-06-19T14:47:48.853154</dc:date>
    <dc:format>image/svg+xml</dc:format>
    <dc:creator>
     <cc:Agent>
      <dc:title>Matplotlib v3.7.1, https://matplotlib.org/</dc:title>
     </cc:Agent>
    </dc:creator>
   </cc:Work>
  </rdf:RDF>
 </metadata>
 <defs>
  <style type="text/css">*{stroke-linejoin: round; stroke-linecap: butt}</style>
 </defs>
 <g id="figure_1">
  <g id="patch_1">
   <path d="M 0 345.6 
L 460.8 345.6 
L 460.8 0 
L 0 0 
z
" style="fill: #ffffff"/>
  </g>
  <g id="axes_1">
   <g id="PatchCollection_1">
    <path d="M 81.674241 61.966171 
L 81.729774 57.930108 
L 81.704279 57.790004 
L 81.748741 53.844409 
L 82.19571 53.843066 
L 82.230588 53.842961 
L 93.666595 53.74604 
L 94.701127 53.928061 
L 95.176931 54.04784 
L 97.18367 54.387034 
L 103.925244 54.392281 
L 104.157611 54.378892 
L 106.764232 54.384802 
L 110.519804 54.29741 
L 112.294265 53.888316 
L 113.201454 53.981196 
L 113.981743 53.974984 
L 115.643372 54.114063 
L 119.492632 54.153989 
L 123.435976 53.688563 
L 127.13037 53.703038 
L 127.165789 53.706838 
L 128.226126 53.727187 
L 128.510849 53.732651 
L 133.773714 53.72656 
L 137.172224 53.792119 
L 137.181143 53.792267 
L 139.287559 53.82728 
L 143.127555 53.77113 
L 147.068782 53.7654 
L 155.356378 53.629337 
L 155.829182 53.646043 
L 160.523217 53.605454 
L 160.781828 53.601714 
L 167.83865 53.568 
L 168.740017 53.947602 
L 169.655191 53.946818 
L 174.596485 53.934794 
L 186.381541 53.906115 
L 189.104917 53.899487 
L 190.994153 53.89489 
L 191.548294 53.88922 
L 194.426053 53.942717 
L 204.548097 53.908942 
L 205.508479 53.956588 
L 205.512143 53.95677 
L 206.006429 53.911656 
L 206.873612 53.891452 
L 209.921058 53.86003 
L 216.481257 53.850319 
L 216.627257 53.829693 
L 220.413219 53.846207 
L 227.508903 53.877158 
L 233.763558 53.872213 
L 233.808991 53.868051 
L 235.552663 53.856704 
L 238.915665 53.834819 
L 245.117787 53.839222 
L 254.700952 53.917507 
L 255.077951 53.960991 
L 255.957838 54.000435 
L 256.872923 54.129201 
L 257.311499 54.104775 
L 258.378716 54.139755 
L 261.167972 54.151275 
L 265.344673 54.168524 
L 265.525608 54.172264 
L 279.730168 54.23741 
L 293.096285 54.298711 
L 293.101979 54.298737 
L 303.633932 54.304791 
L 307.896224 54.307241 
L 308.510486 53.924925 
L 308.549126 53.867327 
L 311.430193 53.900197 
L 332.459232 53.902008 
L 345.458697 53.903128 
L 347.143483 53.903273 
L 347.150187 53.903311 
L 347.723031 53.90659 
L 347.986891 53.904238 
L 348.03294 53.897724 
L 359.200324 53.973355 
L 359.430043 53.980412 
L 360.907033 53.953151 
L 363.60646 54.007431 
L 363.663316 53.992293 
L 372.196642 54.017383 
L 372.210096 54.017383 
L 381.91284 54.031436 
L 390.401484 54.079022 
L 390.480174 61.463895 
L 390.454503 61.943494 
L 390.478013 67.902175 
L 390.478013 67.918701 
L 390.479292 70.587014 
L 390.482115 70.604987 
L 390.486217 71.989503 
L 390.479115 72.386656 
L 390.484761 72.539728 
L 390.481821 79.796877 
L 390.481144 81.465989 
L 390.479601 83.010633 
L 390.503331 99.158926 
L 390.543118 103.356745 
L 390.539805 105.726999 
L 390.522695 117.969742 
L 390.517093 118.063527 
L 390.498964 123.072901 
L 390.512723 128.612172 
L 390.514403 129.28839 
L 390.514623 129.488384 
L 390.524812 139.334459 
L 390.525562 139.354965 
L 390.527547 139.604897 
L 390.519078 140.857271 
L 390.529879 144.191007 
L 390.529929 144.206443 
L 390.530229 145.729731 
L 390.530811 148.679043 
L 390.537516 150.968779 
L 390.546823 154.891154 
L 390.554983 156.190511 
L 390.569715 156.632174 
L 390.570068 157.069193 
L 390.603106 174.512319 
L 390.614751 189.349977 
L 390.617132 189.627592 
L 390.627101 195.652978 
L 390.620132 196.622791 
L 390.626969 196.807647 
L 390.618708 197.962655 
L 390.618632 197.973292 
L 390.618632 198.020154 
L 390.603988 204.705653 
L 390.618588 219.285659 
L 390.617838 219.783713 
L 390.603194 219.783713 
L 390.61925 224.589596 
L 390.628689 224.7993 
L 390.608664 226.581331 
L 390.620264 226.791518 
L 390.626351 227.322623 
L 390.610737 229.486971 
L 390.610166 230.330914 
L 390.610163 230.335738 
L 390.614001 233.546917 
L 390.620661 233.875194 
L 390.621756 234.755752 
L 390.621984 234.939395 
L 390.61925 235.162911 
L 390.616206 235.185045 
L 390.615059 236.309377 
L 390.620441 236.487357 
L 390.609105 239.98749 
L 390.611751 240.520043 
L 390.607561 241.767229 
L 390.618676 250.938417 
L 390.616213 253.076274 
L 390.612545 256.258577 
L 390.611134 256.682147 
L 390.60981 257.601057 
L 390.620397 258.159242 
L 390.614927 259.451241 
L 390.628998 261.138764 
L 390.629395 261.835425 
L 390.627057 261.839828 
L 390.622293 262.533172 
L 390.622558 262.656389 
L 390.631821 263.667696 
L 390.631733 264.06509 
L 390.63782 269.968948 
L 390.645759 270.584309 
L 390.640157 271.450084 
L 390.640131 271.455693 
L 390.622514 275.233924 
L 390.638525 275.802362 
L 390.631821 275.813399 
L 390.627763 276.100423 
L 390.632835 278.39227 
L 390.627498 278.403307 
L 390.62344 278.57025 
L 390.586036 285.686676 
L 390.602444 288.268019 
L 390.605047 288.839292 
L 390.607605 289.726538 
L 390.6009 289.759649 
L 390.604429 294.082796 
L 390.601738 294.157342 
L 390.597724 295.086324 
L 389.992902 295.080413 
L 389.150111 295.076855 
L 388.333125 295.078061 
L 387.49523 295.073055 
L 383.618623 295.075166 
L 383.498734 295.076553 
L 383.476636 295.071185 
L 372.317942 295.082283 
L 371.021755 295.062259 
L 371.017741 295.060872 
L 366.502029 295.090942 
L 363.128847 295.113404 
L 358.849031 295.177716 
L 356.357896 295.21515 
L 355.221251 295.288851 
L 351.335337 295.286696 
L 337.599443 295.27908 
L 337.52234 295.280226 
L 336.625472 295.281297 
L 336.61321 295.281312 
L 316.867112 295.357485 
L 316.619352 295.358933 
L 302.02986 295.352118 
L 296.323353 295.315447 
L 295.131566 295.307788 
L 290.562227 295.224015 
L 287.686717 295.102125 
L 287.444294 295.100195 
L 285.719721 295.065456 
L 285.43438 295.062862 
L 285.33981 295.051825 
L 284.709228 295.047061 
L 266.892987 295.010512 
L 260.592767 294.963408 
L 249.980672 295.002008 
L 246.601927 294.992164 
L 244.411955 294.985784 
L 233.02385 295.04302 
L 220.108869 295.048327 
L 214.457712 295.046639 
L 208.51676 295.14368 
L 205.454625 295.164246 
L 194.426935 295.164367 
L 193.279748 295.194764 
L 188.672961 295.161713 
L 177.512062 295.165453 
L 170.192703 295.131377 
L 164.740566 295.119314 
L 162.16888 295.04694 
L 161.341836 295.110267 
L 150.316396 295.223774 
L 148.806456 295.283121 
L 148.419558 295.282179 
L 142.565254 295.267922 
L 140.913107 295.275703 
L 140.845532 295.280226 
L 134.719102 295.312191 
L 134.675125 295.315026 
L 129.371856 295.297053 
L 128.299655 295.332154 
L 128.26128 295.330828 
L 128.006021 295.302903 
L 126.153994 295.318606 
L 122.927135 295.345966 
L 122.747611 295.379198 
L 117.801273 295.446928 
L 117.233987 295.407001 
L 111.720142 295.475877 
L 106.206341 295.488 
L 104.481635 295.391501 
L 96.75343 295.391441 
L 95.178695 295.361285 
L 82.122609 295.294218 
L 82.130193 279.995063 
L 82.130196 279.989687 
L 82.12952 277.936731 
L 82.128034 273.417153 
L 82.142855 272.3895 
L 82.163807 261.060539 
L 82.162507 260.199652 
L 82.144311 248.146612 
L 82.124108 234.764853 
L 82.105583 226.265117 
L 82.105671 225.874658 
L 82.107832 223.842092 
L 82.106112 223.112259 
L 82.107127 217.924603 
L 82.106862 213.785226 
L 82.119168 204.40518 
L 82.12316 203.863705 
L 82.15375 199.714312 
L 82.261949 191.276636 
L 82.236763 182.091155 
L 82.243575 177.353001 
L 82.244526 176.691684 
L 82.244614 176.388196 
L 82.24607 176.051596 
L 82.237027 173.419651 
L 82.236415 173.377071 
L 82.233631 173.183711 
L 82.241218 173.065078 
L 82.241218 173.049216 
L 82.241262 172.954707 
L 82.238571 172.782276 
L 82.24285 172.04979 
L 82.240159 171.855284 
L 82.239939 171.755046 
L 82.238924 171.241371 
L 82.237557 170.910259 
L 82.236101 170.556652 
L 82.235572 170.433012 
L 82.23641 170.183201 
L 82.232352 163.865122 
L 82.230985 163.858186 
L 82.232484 163.4237 
L 82.235307 163.133963 
L 82.232617 162.751888 
L 82.215502 155.505972 
L 82.189578 144.328282 
L 82.178102 139.38043 
L 82.167468 134.795396 
L 82.159793 133.473302 
L 82.149295 133.239956 
L 82.15225 133.185072 
L 82.149648 133.062278 
L 82.13593 130.998952 
L 82.135312 130.728393 
L 82.139503 130.703545 
L 82.122962 125.343337 
L 82.131783 119.761846 
L 82.114052 115.744962 
L 82.107571 115.233361 
L 82.094997 114.240606 
L 82.018776 113.025263 
L 82.033156 110.59283 
L 82.033156 110.566594 
L 82.038361 110.44205 
L 82.046344 107.310181 
L 82.016924 106.701515 
L 81.991517 92.908034 
L 82.015644 91.623454 
L 82.012645 87.951312 
L 82.013615 87.815792 
L 82.023319 85.643724 
L 81.870702 85.382031 
L 81.748344 76.545394 
L 81.742842 74.052388 
L 81.734979 70.489128 
L 81.69506 69.006363 
L 81.674241 61.966171 
" clip-path="url(#p3d0ac51361)" style="fill: #ffc733"/>
   </g>
   <g id="text_1">
    <!-- WY -->
    <g transform="translate(226.562813 35.472) scale(0.12 -0.12)">
     <defs>
      <path id="DejaVuSans-57" d="M 213 4666 
L 850 4666 
L 1831 722 
L 2809 4666 
L 3519 4666 
L 4500 722 
L 5478 4666 
L 6119 4666 
L 4947 0 
L 4153 0 
L 3169 4050 
L 2175 0 
L 1381 0 
L 213 4666 
z
" transform="scale(0.015625)"/>
      <path id="DejaVuSans-59" d="M -13 4666 
L 666 4666 
L 1959 2747 
L 3244 4666 
L 3922 4666 
L 2272 2222 
L 2272 0 
L 1638 0 
L 1638 2222 
L -13 4666 
z
" transform="scale(0.015625)"/>
     </defs>
     <use xlink:href="#DejaVuSans-57"/>
     <use xlink:href="#DejaVuSans-59" x="98.876953"/>
    </g>
   </g>
  </g>
 </g>
 <defs>
  <clipPath id="p3d0ac51361">
   <rect x="66.225665" y="41.472" width="339.86867" height="266.112"/>
  </clipPath>
 </defs>
</svg>
