<?xml version="1.0" encoding="utf-8" standalone="no"?>
<!DOCTYPE svg PUBLIC "-//W3C//DTD SVG 1.1//EN"
  "http://www.w3.org/Graphics/SVG/1.1/DTD/svg11.dtd">
<svg xmlns:xlink="http://www.w3.org/1999/xlink" width="360pt" height="360pt" viewBox="0 0 360 360" xmlns="http://www.w3.org/2000/svg" version="1.1">
 <metadata>
  <rdf:RDF xmlns:dc="http://purl.org/dc/elements/1.1/" xmlns:cc="http://creativecommons.org/ns#" xmlns:rdf="http://www.w3.org/1999/02/22-rdf-syntax-ns#">
   <cc:Work>
    <dc:type rdf:resource="http://purl.org/dc/dcmitype/StillImage"/>
    <dc:date>2023-06-19T15:20:27.994000</dc:date>
    <dc:format>image/svg+xml</dc:format>
    <dc:creator>
     <cc:Agent>
      <dc:title>Matplotlib v3.7.1, https://matplotlib.org/</dc:title>
     </cc:Agent>
    </dc:creator>
   </cc:Work>
  </rdf:RDF>
 </metadata>
 <defs>
  <style type="text/css">*{stroke-linejoin: round; stroke-linecap: butt}</style>
 </defs>
 <g id="figure_1">
  <g id="patch_1">
   <path d="M 0 360 
L 360 360 
L 360 0 
L 0 0 
z
" style="fill: #ffffff"/>
  </g>
  <g id="axes_1">
   <g id="PatchCollection_1">
    <path d="M 57.681818 114.221371 
L 57.727406 111.798244 
L 57.706477 111.71413 
L 57.742976 109.345317 
L 58.109895 109.344511 
L 58.138526 109.344448 
L 67.526405 109.286259 
L 68.375658 109.395539 
L 68.766248 109.467451 
L 70.413591 109.671092 
L 75.947785 109.674242 
L 76.138536 109.666204 
L 78.278325 109.669752 
L 81.361294 109.617285 
L 82.817959 109.371677 
L 83.562676 109.427439 
L 84.203218 109.42371 
L 85.567259 109.507208 
L 88.727137 109.531179 
L 91.964249 109.251752 
L 94.996996 109.260442 
L 95.026072 109.262723 
L 95.896509 109.27494 
L 96.130239 109.278221 
L 100.450553 109.274564 
L 103.240408 109.313923 
L 103.247729 109.314012 
L 104.976897 109.335033 
L 108.129171 109.301322 
L 111.364545 109.297882 
L 118.167876 109.216194 
L 118.556004 109.226224 
L 122.409362 109.201855 
L 122.621658 109.19961 
L 128.41464 109.179369 
L 129.154577 109.407271 
L 129.905848 109.4068 
L 133.962183 109.399581 
L 143.636598 109.382363 
L 145.872232 109.378384 
L 147.423116 109.375624 
L 147.878013 109.37222 
L 150.240381 109.404338 
L 158.549621 109.384061 
L 159.338003 109.412665 
L 159.341011 109.412775 
L 159.746773 109.38569 
L 160.458648 109.37356 
L 162.960313 109.354695 
L 168.345615 109.348865 
L 168.465468 109.336482 
L 171.573384 109.346396 
L 177.398268 109.364978 
L 182.532748 109.362009 
L 182.570044 109.359511 
L 184.001434 109.352698 
L 186.76214 109.339559 
L 191.853495 109.342203 
L 199.720366 109.389202 
L 200.029847 109.415309 
L 200.75215 109.43899 
L 201.503349 109.516297 
L 201.863378 109.501632 
L 202.739462 109.522634 
L 205.029178 109.52955 
L 208.457853 109.539905 
L 208.606384 109.54215 
L 220.266983 109.581262 
L 231.239299 109.618066 
L 231.243973 109.618081 
L 239.889709 109.621716 
L 243.388648 109.623187 
L 243.892899 109.393656 
L 243.924618 109.359076 
L 246.289702 109.37881 
L 263.552552 109.379898 
L 274.223882 109.38057 
L 275.606931 109.380657 
L 275.612435 109.38068 
L 276.082686 109.382648 
L 276.29929 109.381236 
L 276.337092 109.377326 
L 285.504456 109.422732 
L 285.693035 109.426969 
L 286.905503 109.410602 
L 289.121477 109.44319 
L 289.168151 109.434102 
L 296.173204 109.449165 
L 296.184247 109.449165 
L 304.149282 109.457602 
L 311.117655 109.486171 
L 311.182252 113.91982 
L 311.161178 114.207756 
L 311.180478 117.785164 
L 311.180478 117.795085 
L 311.181528 119.397057 
L 311.183845 119.407848 
L 311.187213 120.239068 
L 311.181383 120.477507 
L 311.186018 120.569406 
L 311.183604 124.926373 
L 311.183049 125.928456 
L 311.181781 126.855813 
L 311.201262 136.550747 
L 311.233923 139.070987 
L 311.231203 140.494014 
L 311.217158 147.844177 
L 311.212559 147.900482 
L 311.197677 150.907955 
L 311.208972 154.233562 
L 311.21035 154.639542 
L 311.210532 154.759612 
L 311.218896 160.67089 
L 311.219511 160.683201 
L 311.221141 160.833253 
L 311.214189 161.585139 
L 311.223055 163.586611 
L 311.223096 163.595878 
L 311.223343 164.510413 
L 311.22382 166.281088 
L 311.229324 167.655775 
L 311.236964 170.010647 
L 311.243663 170.790741 
L 311.255757 171.055901 
L 311.256047 171.318274 
L 311.283167 181.790586 
L 311.292727 190.698655 
L 311.294682 190.865326 
L 311.302865 194.482781 
L 311.297144 195.065027 
L 311.302757 195.176009 
L 311.295976 195.86944 
L 311.295913 195.875826 
L 311.295913 195.903961 
L 311.283892 199.917726 
L 311.295877 208.67111 
L 311.295261 208.970126 
L 311.28324 208.970126 
L 311.29642 211.855429 
L 311.304169 211.981328 
L 311.28773 213.051205 
L 311.297253 213.177394 
L 311.30225 213.496254 
L 311.289432 214.795661 
L 311.288964 215.302338 
L 311.288961 215.305234 
L 311.292111 217.233127 
L 311.297579 217.430214 
L 311.298478 217.958874 
L 311.298665 218.069127 
L 311.29642 218.203319 
L 311.293922 218.216608 
L 311.29298 218.891622 
L 311.297398 218.998475 
L 311.288092 221.099846 
L 311.290264 221.419575 
L 311.286825 222.168347 
L 311.295949 227.674443 
L 311.293927 228.957946 
L 311.290916 230.868503 
L 311.289758 231.122801 
L 311.288671 231.674486 
L 311.297361 232.009603 
L 311.292872 232.785279 
L 311.304422 233.798415 
L 311.304748 234.216669 
L 311.302829 234.219312 
L 311.298918 234.635574 
L 311.299136 234.70955 
L 311.30674 235.316708 
L 311.306667 235.555291 
L 311.311664 239.099784 
L 311.318182 239.469227 
L 311.313583 239.989012 
L 311.313562 239.992379 
L 311.2991 242.260712 
L 311.312243 242.601984 
L 311.30674 242.608611 
L 311.303408 242.780931 
L 311.307572 244.156885 
L 311.303191 244.163511 
L 311.29986 244.263738 
L 311.269154 248.53622 
L 311.282624 250.085978 
L 311.284761 250.428953 
L 311.286861 250.961628 
L 311.281357 250.981507 
L 311.284254 253.57699 
L 311.282045 253.621745 
L 311.27875 254.179477 
L 310.782248 254.175928 
L 310.090397 254.173792 
L 309.419728 254.174516 
L 308.731896 254.171511 
L 305.549568 254.172778 
L 305.451151 254.173611 
L 305.43301 254.170388 
L 296.272779 254.177051 
L 295.208732 254.165029 
L 295.205437 254.164196 
L 291.498465 254.182249 
L 288.729402 254.195735 
L 285.216078 254.234346 
L 283.171092 254.25682 
L 282.238015 254.301067 
L 279.048047 254.299774 
L 267.772178 254.295202 
L 267.708884 254.29589 
L 266.972641 254.296533 
L 266.962574 254.296541 
L 250.752898 254.342274 
L 250.54951 254.343143 
L 238.572919 254.339051 
L 233.888417 254.317035 
L 232.910072 254.312437 
L 229.159078 254.262142 
L 226.798557 254.188963 
L 226.59955 254.187805 
L 225.183839 254.166948 
L 224.949601 254.165391 
L 224.871968 254.158765 
L 224.35432 254.155904 
L 209.728873 254.133961 
L 204.556988 254.105682 
L 195.845463 254.128856 
L 193.071833 254.122946 
L 191.274074 254.119116 
L 181.925518 254.153478 
L 171.323541 254.156665 
L 166.684477 254.155651 
L 161.807517 254.213912 
L 159.293794 254.226259 
L 150.241105 254.226331 
L 149.299373 254.244581 
L 145.517637 254.224738 
L 136.355595 254.226983 
L 130.347095 254.206525 
L 125.871407 254.199283 
L 123.760296 254.155832 
L 123.081371 254.193852 
L 114.030528 254.261998 
L 112.791011 254.297628 
L 112.473404 254.297062 
L 107.667575 254.288503 
L 106.311319 254.293174 
L 106.255846 254.29589 
L 101.226627 254.31508 
L 101.190526 254.316782 
L 96.837045 254.305992 
L 95.956869 254.327066 
L 95.925367 254.326269 
L 95.715823 254.309504 
L 94.195485 254.318932 
L 91.546539 254.335358 
L 91.399167 254.355309 
L 87.338691 254.395972 
L 86.873003 254.372001 
L 82.346658 254.413353 
L 77.82035 254.420631 
L 76.40453 254.362696 
L 70.060405 254.362659 
L 68.767697 254.344555 
L 58.049886 254.30429 
L 58.056112 245.119152 
L 58.056114 245.115924 
L 58.05556 243.883393 
L 58.05434 241.169979 
L 58.066506 240.553008 
L 58.083705 233.751452 
L 58.082638 233.234602 
L 58.067701 225.99833 
L 58.051117 217.964337 
L 58.035909 212.861359 
L 58.035981 212.62694 
L 58.037756 211.40665 
L 58.036344 210.968482 
L 58.037176 207.853974 
L 58.036959 205.368821 
L 58.047061 199.737331 
L 58.050338 199.412247 
L 58.07545 196.92108 
L 58.164271 191.855361 
L 58.143596 186.340684 
L 58.149188 183.496043 
L 58.149968 183.099009 
L 58.150041 182.916804 
L 58.151236 182.71472 
L 58.143813 181.134582 
L 58.14331 181.109018 
L 58.141025 180.992931 
L 58.147253 180.921707 
L 58.147253 180.912184 
L 58.147289 180.855444 
L 58.14508 180.751922 
L 58.148592 180.312159 
L 58.146384 180.195384 
L 58.146203 180.135205 
L 58.14537 179.82681 
L 58.144247 179.628021 
L 58.143052 179.415726 
L 58.142618 179.341497 
L 58.143306 179.191518 
L 58.139975 175.398339 
L 58.138852 175.394175 
L 58.140083 175.133323 
L 58.142401 174.959373 
L 58.140192 174.729987 
L 58.126143 170.379765 
L 58.104861 163.669027 
L 58.09544 160.69849 
L 58.086711 157.945778 
L 58.08041 157.152033 
L 58.071792 157.01194 
L 58.074218 156.978989 
L 58.072082 156.905267 
L 58.060821 155.66651 
L 58.060314 155.504075 
L 58.063754 155.489157 
L 58.050175 152.271055 
L 58.057417 148.9201 
L 58.042861 146.508488 
L 58.037542 146.201338 
L 58.027219 145.605319 
L 57.964649 144.875665 
L 57.976453 143.415308 
L 57.976453 143.399557 
L 57.980726 143.324784 
L 57.98728 141.444507 
L 57.963128 141.079083 
L 57.942272 132.797905 
L 57.962078 132.026683 
L 57.959616 129.822043 
L 57.960413 129.740681 
L 57.968379 128.436639 
L 57.843094 128.279527 
L 57.74265 122.974283 
L 57.738134 121.47756 
L 57.731678 119.338289 
L 57.698909 118.448084 
L 57.681818 114.221371 
" clip-path="url(#pa4795f9a85)" style="fill: #44ff00"/>
   </g>
   <g id="PathCollection_1">
    <defs>
     <path id="m99f0939ab0" d="M 0 1.581139 
C 0.419323 1.581139 0.821528 1.41454 1.118034 1.118034 
C 1.41454 0.821528 1.581139 0.419323 1.581139 0 
C 1.581139 -0.419323 1.41454 -0.821528 1.118034 -1.118034 
C 0.821528 -1.41454 0.419323 -1.581139 0 -1.581139 
C -0.419323 -1.581139 -0.821528 -1.41454 -1.118034 -1.118034 
C -1.41454 -0.821528 -1.581139 -0.419323 -1.581139 0 
C -1.581139 0.419323 -1.41454 0.821528 -1.118034 1.118034 
C -0.821528 1.41454 -0.419323 1.581139 0 1.581139 
z
" style="stroke: #000000"/>
    </defs>
    <g clip-path="url(#pa4795f9a85)">
     <use xlink:href="#m99f0939ab0" x="283.50668" y="249.151705" style="stroke: #000000"/>
    </g>
   </g>
   <g id="text_1">
    <!-- Cheyenne -->
    <g transform="translate(286.50668 246.151705) scale(0.1 -0.1)">
     <defs>
      <path id="DejaVuSans-43" d="M 4122 4306 
L 4122 3641 
Q 3803 3938 3442 4084 
Q 3081 4231 2675 4231 
Q 1875 4231 1450 3742 
Q 1025 3253 1025 2328 
Q 1025 1406 1450 917 
Q 1875 428 2675 428 
Q 3081 428 3442 575 
Q 3803 722 4122 1019 
L 4122 359 
Q 3791 134 3420 21 
Q 3050 -91 2638 -91 
Q 1578 -91 968 557 
Q 359 1206 359 2328 
Q 359 3453 968 4101 
Q 1578 4750 2638 4750 
Q 3056 4750 3426 4639 
Q 3797 4528 4122 4306 
z
" transform="scale(0.015625)"/>
      <path id="DejaVuSans-68" d="M 3513 2113 
L 3513 0 
L 2938 0 
L 2938 2094 
Q 2938 2591 2744 2837 
Q 2550 3084 2163 3084 
Q 1697 3084 1428 2787 
Q 1159 2491 1159 1978 
L 1159 0 
L 581 0 
L 581 4863 
L 1159 4863 
L 1159 2956 
Q 1366 3272 1645 3428 
Q 1925 3584 2291 3584 
Q 2894 3584 3203 3211 
Q 3513 2838 3513 2113 
z
" transform="scale(0.015625)"/>
      <path id="DejaVuSans-65" d="M 3597 1894 
L 3597 1613 
L 953 1613 
Q 991 1019 1311 708 
Q 1631 397 2203 397 
Q 2534 397 2845 478 
Q 3156 559 3463 722 
L 3463 178 
Q 3153 47 2828 -22 
Q 2503 -91 2169 -91 
Q 1331 -91 842 396 
Q 353 884 353 1716 
Q 353 2575 817 3079 
Q 1281 3584 2069 3584 
Q 2775 3584 3186 3129 
Q 3597 2675 3597 1894 
z
M 3022 2063 
Q 3016 2534 2758 2815 
Q 2500 3097 2075 3097 
Q 1594 3097 1305 2825 
Q 1016 2553 972 2059 
L 3022 2063 
z
" transform="scale(0.015625)"/>
      <path id="DejaVuSans-79" d="M 2059 -325 
Q 1816 -950 1584 -1140 
Q 1353 -1331 966 -1331 
L 506 -1331 
L 506 -850 
L 844 -850 
Q 1081 -850 1212 -737 
Q 1344 -625 1503 -206 
L 1606 56 
L 191 3500 
L 800 3500 
L 1894 763 
L 2988 3500 
L 3597 3500 
L 2059 -325 
z
" transform="scale(0.015625)"/>
      <path id="DejaVuSans-6e" d="M 3513 2113 
L 3513 0 
L 2938 0 
L 2938 2094 
Q 2938 2591 2744 2837 
Q 2550 3084 2163 3084 
Q 1697 3084 1428 2787 
Q 1159 2491 1159 1978 
L 1159 0 
L 581 0 
L 581 3500 
L 1159 3500 
L 1159 2956 
Q 1366 3272 1645 3428 
Q 1925 3584 2291 3584 
Q 2894 3584 3203 3211 
Q 3513 2838 3513 2113 
z
" transform="scale(0.015625)"/>
     </defs>
     <use xlink:href="#DejaVuSans-43"/>
     <use xlink:href="#DejaVuSans-68" x="69.824219"/>
     <use xlink:href="#DejaVuSans-65" x="133.203125"/>
     <use xlink:href="#DejaVuSans-79" x="194.726562"/>
     <use xlink:href="#DejaVuSans-65" x="253.90625"/>
     <use xlink:href="#DejaVuSans-6e" x="315.429688"/>
     <use xlink:href="#DejaVuSans-6e" x="378.808594"/>
     <use xlink:href="#DejaVuSans-65" x="442.1875"/>
    </g>
   </g>
   <g id="text_2">
    <!-- Wyoming -->
    <g transform="translate(156.327188 95.917306) scale(0.12 -0.12)">
     <defs>
      <path id="DejaVuSans-57" d="M 213 4666 
L 850 4666 
L 1831 722 
L 2809 4666 
L 3519 4666 
L 4500 722 
L 5478 4666 
L 6119 4666 
L 4947 0 
L 4153 0 
L 3169 4050 
L 2175 0 
L 1381 0 
L 213 4666 
z
" transform="scale(0.015625)"/>
      <path id="DejaVuSans-6f" d="M 1959 3097 
Q 1497 3097 1228 2736 
Q 959 2375 959 1747 
Q 959 1119 1226 758 
Q 1494 397 1959 397 
Q 2419 397 2687 759 
Q 2956 1122 2956 1747 
Q 2956 2369 2687 2733 
Q 2419 3097 1959 3097 
z
M 1959 3584 
Q 2709 3584 3137 3096 
Q 3566 2609 3566 1747 
Q 3566 888 3137 398 
Q 2709 -91 1959 -91 
Q 1206 -91 779 398 
Q 353 888 353 1747 
Q 353 2609 779 3096 
Q 1206 3584 1959 3584 
z
" transform="scale(0.015625)"/>
      <path id="DejaVuSans-6d" d="M 3328 2828 
Q 3544 3216 3844 3400 
Q 4144 3584 4550 3584 
Q 5097 3584 5394 3201 
Q 5691 2819 5691 2113 
L 5691 0 
L 5113 0 
L 5113 2094 
Q 5113 2597 4934 2840 
Q 4756 3084 4391 3084 
Q 3944 3084 3684 2787 
Q 3425 2491 3425 1978 
L 3425 0 
L 2847 0 
L 2847 2094 
Q 2847 2600 2669 2842 
Q 2491 3084 2119 3084 
Q 1678 3084 1418 2786 
Q 1159 2488 1159 1978 
L 1159 0 
L 581 0 
L 581 3500 
L 1159 3500 
L 1159 2956 
Q 1356 3278 1631 3431 
Q 1906 3584 2284 3584 
Q 2666 3584 2933 3390 
Q 3200 3197 3328 2828 
z
" transform="scale(0.015625)"/>
      <path id="DejaVuSans-69" d="M 603 3500 
L 1178 3500 
L 1178 0 
L 603 0 
L 603 3500 
z
M 603 4863 
L 1178 4863 
L 1178 4134 
L 603 4134 
L 603 4863 
z
" transform="scale(0.015625)"/>
      <path id="DejaVuSans-67" d="M 2906 1791 
Q 2906 2416 2648 2759 
Q 2391 3103 1925 3103 
Q 1463 3103 1205 2759 
Q 947 2416 947 1791 
Q 947 1169 1205 825 
Q 1463 481 1925 481 
Q 2391 481 2648 825 
Q 2906 1169 2906 1791 
z
M 3481 434 
Q 3481 -459 3084 -895 
Q 2688 -1331 1869 -1331 
Q 1566 -1331 1297 -1286 
Q 1028 -1241 775 -1147 
L 775 -588 
Q 1028 -725 1275 -790 
Q 1522 -856 1778 -856 
Q 2344 -856 2625 -561 
Q 2906 -266 2906 331 
L 2906 616 
Q 2728 306 2450 153 
Q 2172 0 1784 0 
Q 1141 0 747 490 
Q 353 981 353 1791 
Q 353 2603 747 3093 
Q 1141 3584 1784 3584 
Q 2172 3584 2450 3431 
Q 2728 3278 2906 2969 
L 2906 3500 
L 3481 3500 
L 3481 434 
z
" transform="scale(0.015625)"/>
     </defs>
     <use xlink:href="#DejaVuSans-57"/>
     <use xlink:href="#DejaVuSans-79" x="97.126953"/>
     <use xlink:href="#DejaVuSans-6f" x="156.306641"/>
     <use xlink:href="#DejaVuSans-6d" x="217.488281"/>
     <use xlink:href="#DejaVuSans-69" x="314.900391"/>
     <use xlink:href="#DejaVuSans-6e" x="342.683594"/>
     <use xlink:href="#DejaVuSans-67" x="406.0625"/>
    </g>
   </g>
  </g>
 </g>
 <defs>
  <clipPath id="pa4795f9a85">
   <rect x="45" y="101.917306" width="279" height="159.765387"/>
  </clipPath>
 </defs>
</svg>
